<?xml version="1.0" encoding="UTF-8"?>
<!DOCTYPE xmeml>
<xmeml version="5">
<sequence id="S02E18 Kraakeklubben Pgm 18 v3 Til ProTools">
	<uuid>235E06DF-A04D-47A5-A405-A1C05E9B3E38</uuid>
	<updatebehavior>add</updatebehavior>
	<name>S02E18 Kraakeklubben Pgm 18 v3 Til ProTools</name>
	<duration>29028</duration>
	<rate>
		<ntsc>FALSE</ntsc>
		<timebase>25</timebase>
	</rate>
	<timecode>
		<rate>
			<ntsc>FALSE</ntsc>
			<timebase>25</timebase>
		</rate>
		<string>00:00:00:00</string>
		<frame>0</frame>
		<source>source</source>
		<displayformat>NDF</displayformat>
	</timecode>
	<in>0</in>
	<out>29029</out>
	<media>
		<video>
			<format>
				<samplecharacteristics>
					<width>1920</width>
					<height>1080</height>
					<anamorphic>FALSE</anamorphic>
					<pixelaspectratio>Square</pixelaspectratio>
					<fielddominance>upper</fielddominance>
					<rate>
						<ntsc>FALSE</ntsc>
						<timebase>25</timebase>
					</rate>
					<colordepth>24</colordepth>
					<codec>
						<name>Apple XDCAM 422 1080i50 (50 Mb/s CBR)</name>
						<appspecificdata>
							<appname>Final Cut Pro</appname>
							<appmanufacturer>Apple Inc.</appmanufacturer>
							<appversion>7.0</appversion>
							<data>
								<qtcodec>
									<codecname>Apple XDCAM 422 1080i50 (50 Mb/s CBR)</codecname>
									<codectypename>XDCAM 422 1080i50 (50 Mb/s CBR)</codectypename>
									<codectypecode>xd5c</codectypecode>
									<codecvendorcode>appl</codecvendorcode>
									<spatialquality>1023</spatialquality>
									<temporalquality>0</temporalquality>
									<keyframerate>0</keyframerate>
									<datarate>0</datarate>
								</qtcodec>
							</data>
						</appspecificdata>
					</codec>
				</samplecharacteristics>
				<appspecificdata>
					<appname>Final Cut Pro</appname>
					<appmanufacturer>Apple Inc.</appmanufacturer>
					<appversion>7.0</appversion>
					<data>
						<fcpimageprocessing>
							<useyuv>TRUE</useyuv>
							<usesuperwhite>FALSE</usesuperwhite>
							<rendermode>YUV8BPP</rendermode>
						</fcpimageprocessing>
					</data>
				</appspecificdata>
			</format>
			<track>
				<clipitem id="525_1799_01 ">
					<name>525_1799_01</name>
					<duration>1779</duration>
					<rate>
						<ntsc>FALSE</ntsc>
						<timebase>25</timebase>
					</rate>
					<in>531</in>
					<out>644</out>
					<start>407</start>
					<end>-1</end>
					<pixelaspectratio>Square</pixelaspectratio>
					<enabled>TRUE</enabled>
					<anamorphic>FALSE</anamorphic>
					<alphatype>none</alphatype>
					<masterclipid>525_1799_01 1</masterclipid>
					<logginginfo>
						<scene/>
						<shottake/>
						<lognote/>
						<good>FALSE</good>
					</logginginfo>
					<labels>
						<label2/>
					</labels>
					<comments>
						<mastercomment1/>
						<mastercomment2/>
						<mastercomment3/>
						<mastercomment4/>
					</comments>
					<file id="525_1799_01 2">
						<name>525_1799_01.mov</name>
						<pathurl>file://localhost/Volumes/Askepott/Prosjekter/DNPR637010_Kra%CC%8Akeklubben_TEM_011212/Video/MELLOMSTIKK/S01E%20Spor%20i%20sn%C3%B8en/EX-3/525_1799_01.mov</pathurl>
						<rate>
							<timebase>25</timebase>
						</rate>
						<duration>1779</duration>
						<metadata>
							<storage>QuickTime</storage>
							<key>com.sony.bprl.xdcamtransfer.version</key>
							<size>10</size>
							<type>UTF8</type>
							<value>2.12.0.631</value>
						</metadata>
						<metadata>
							<storage>QuickTime</storage>
							<key>org.smpte.mxf.package.material.packageid</key>
							<size>66</size>
							<type>UTF8</type>
							<value>0x060a2b340101010501010d4313000000e9c9d482785905c808004602022f05f5</value>
						</metadata>
						<metadata>
							<storage>QuickTime</storage>
							<key>com.sony.professionaldisc.nonrealtimemeta.lastupdate</key>
							<size>25</size>
							<type>UTF8</type>
							<value>2012-02-21 13:17:07 +0100</value>
						</metadata>
						<metadata>
							<storage>QuickTime</storage>
							<key>com.sony.bprl.mxf.umid</key>
							<size>64</size>
							<type>UTF8</type>
							<value>060a2b340101010501010d4313000000e9c9d482785905c808004602022f05f5</value>
						</metadata>
						<metadata>
							<storage>QuickTime</storage>
							<key>com.sony.bprl.mxf.nrtmetadata</key>
							<size>2011</size>
							<type>UTF8</type>
							<value>&lt;?xml version="1.0" encoding="UTF-8" standalone="yes"?>&lt;NonRealTimeMeta xmlns="urn:schemas-professionalDisc:nonRealTimeMeta:ver.1.20" xmlns:lib="urn:schemas-professionalDisc:lib:ver.1.20" xmlns:xsi="http://www.w3.org/2001/XMLSchema-instance" lastUpdate="2012-02-21T13:17:07+01:00">&lt;TargetMaterial umidRef="060A2B340101010501010D4313000000E9C9D482785905C808004602022F05F5">&lt;/TargetMaterial>&lt;Duration value="1779">&lt;/Duration>&lt;LtcChangeTable tcFps="25" halfStep="false">&lt;LtcChange frameCount="0" value="01174922" status="increment">&lt;/LtcChange>&lt;LtcChange frameCount="1778" value="04285022" status="end">&lt;/LtcChange>&lt;/LtcChangeTable>&lt;CreationDate value="2012-02-21T13:15:55+01:00">&lt;/CreationDate>&lt;TypicalUbit value="0000000000000000">&lt;/TypicalUbit>&lt;BodyUmidBasicChangeTable>&lt;BodyUmidBasicChange frameCount="0" value="060A2B340101010501010D4333000000E9C9D482785905C808004602022F05F5" status="start">&lt;/BodyUmidBasicChange>&lt;/BodyUmidBasicChangeTable>&lt;BodyUmidWhenChangeTable>&lt;BodyUmidWhenChange frameCount="0" value="84063604785905A5" status="increment">&lt;/BodyUmidWhenChange>&lt;BodyUmidWhenChange frameCount="1778" value="04C33704785905A5" status="end">&lt;/BodyUmidWhenChange>&lt;/BodyUmidWhenChangeTable>&lt;KlvPacketTable>&lt;KlvPacket key="060E2B34010101050301020A02000000" frameCount="0" lengthValue="095F5265635374617274" status="spot">&lt;/KlvPacket>&lt;/KlvPacketTable>&lt;VideoFormat>&lt;VideoRecPort port="DIRECT">&lt;/VideoRecPort>&lt;VideoFrame videoCodec="MPEG2HD35_1920_1080_MP@HL" captureFps="50.00i" recFps="50.00" formatFps="50i">&lt;/VideoFrame>&lt;VideoLayout pixel="1920" numOfVerticalLine="1080" aspectRatio="16:9">&lt;/VideoLayout>&lt;/VideoFormat>&lt;AudioFormat numOfChannel="2">&lt;AudioRecPort port="ANALOG" audioCodec="LPCM16" trackDst="CH1">&lt;/AudioRecPort>&lt;AudioRecPort port="ANALOG" audioCodec="LPCM16" trackDst="CH2">&lt;/AudioRecPort>&lt;/AudioFormat>&lt;Device manufacturer="Sony" modelName="PMW-EX3" serialNo="0401525">&lt;/Device>&lt;Lens modelName="VCL-614B2X">&lt;/Lens>&lt;RecordingMode type="normal" cacheRec="false">&lt;/RecordingMode>&lt;/NonRealTimeMeta>
							</value>
						</metadata>
						<metadata>
							<storage>QuickTime</storage>
							<key>com.apple.proapps.reel</key>
							<size>8</size>
							<type>UTF8</type>
							<value>Untitled</value>
						</metadata>
						<metadata>
							<storage>QuickTime</storage>
							<key>com.apple.proapps.clipID</key>
							<size>64</size>
							<type>UTF8</type>
							<value>060A2B340101010501010D4313000000E9C9D482785905C808004602022F05F5</value>
						</metadata>
						<metadata>
							<storage>QuickTime</storage>
							<key>com.apple.quicktime.information</key>
							<size>64</size>
							<type>UTF8</type>
							<value>060a2b340101010501010d4313000000e9c9d482785905c808004602022f05f5</value>
						</metadata>
						<metadata>
							<storage>QuickTime</storage>
							<key>com.apple.proapps.originalFormat</key>
							<size>36</size>
							<type>UTF8</type>
							<value>Apple XDCAM EX 1080i50 (35 Mb/s VBR)</value>
						</metadata>
						<timecode>
							<rate>
								<timebase>25</timebase>
							</rate>
							<string>22:49:17:01</string>
							<frame>2053926</frame>
							<displayformat>NDF</displayformat>
							<source>source</source>
							<reel>
								<name>Untitled</name>
							</reel>
						</timecode>
						<media>
							<video>
								<duration>1779</duration>
								<samplecharacteristics>
									<width>1920</width>
									<height>1080</height>
								</samplecharacteristics>
							</video>
							<audio>
								<samplecharacteristics>
									<samplerate>48000</samplerate>
									<depth>16</depth>
								</samplecharacteristics>
								<channelcount>1</channelcount>
								<layout>mono</layout>
								<audiochannel>
									<sourcechannel>1</sourcechannel>
									<channellabel>discrete</channellabel>
								</audiochannel>
							</audio>
							<audio>
								<samplecharacteristics>
									<samplerate>48000</samplerate>
									<depth>16</depth>
								</samplecharacteristics>
								<channelcount>1</channelcount>
								<layout>mono</layout>
								<audiochannel>
									<sourcechannel>2</sourcechannel>
									<channellabel>discrete</channellabel>
								</audiochannel>
							</audio>
						</media>
					</file>
					<sourcetrack>
						<mediatype>video</mediatype>
					</sourcetrack>
					<link>
						<linkclipref>525_1799_01 </linkclipref>
						<mediatype>video</mediatype>
						<trackindex>1</trackindex>
						<clipindex>1</clipindex>
					</link>
					<link>
						<linkclipref>525_1799_01 3</linkclipref>
						<mediatype>audio</mediatype>
						<trackindex>1</trackindex>
						<clipindex>1</clipindex>
					</link>
					<link>
						<linkclipref>525_1799_01 4</linkclipref>
						<mediatype>audio</mediatype>
						<trackindex>2</trackindex>
						<clipindex>1</clipindex>
					</link>
					<fielddominance>upper</fielddominance>
					<itemhistory>
						<uuid>4E849E77-715A-4746-8445-B2473007C5A5</uuid>
					</itemhistory>
				</clipitem>
				<transitionitem>
					<rate>
						<ntsc>FALSE</ntsc>
						<timebase>25</timebase>
					</rate>
					<start>505</start>
					<end>520</end>
					<alignment>center</alignment>
					<effect>
						<name>G Lens Flare Musikkvideo</name>
						<effectcategory>Nattress Big Box Of Tricks</effectcategory>
						<effecttype>transition</effecttype>
						<mediatype>video</mediatype>
						<startratio>0</startratio>
						<endratio>1</endratio>
						<reverse>FALSE</reverse>
						<parameter>
							<parameterid>dispvar1</parameterid>
							<name>Display Settings</name>
							<value>string</value>
						</parameter>
						<parameter>
							<parameterid>inputvar1</parameterid>
							<name>Flare Position</name>
							<value>string</value>
						</parameter>
						<parameter>
							<parameterid>theangle</parameterid>
							<name>Transition Direction</name>
							<valuemin>-360</valuemin>
							<valuemax>360</valuemax>
							<value>270</value>
						</parameter>
						<parameter>
							<parameterid>transitionblendduration</parameterid>
							<name>Blend Duration</name>
							<valuemin>0</valuemin>
							<valuemax>100</valuemax>
							<value>50</value>
						</parameter>
						<parameter>
							<parameterid>settingsvar1</parameterid>
							<name>Flare Settings</name>
							<value>string</value>
						</parameter>
						<parameter>
							<parameterid>presets</parameterid>
							<name>Preset Select</name>
							<valuemin>1</valuemin>
							<valuemax>4</valuemax>
							<valuelist>
								<valueentry>
									<name>Custom Controls</name>
									<value>1</value>
								</valueentry>
								<valueentry>
									<name>Other End of the Rainbow</name>
									<value>2</value>
								</valueentry>
								<valueentry>
									<name>Photon</name>
									<value>3</value>
								</valueentry>
								<valueentry>
									<name>Gaudy</name>
									<value>4</value>
								</valueentry>
							</valuelist>
							<value>2</value>
						</parameter>
						<parameter>
							<parameterid>randomevolution</parameterid>
							<name>Randomness Evolution</name>
							<valuemin>0</valuemin>
							<valuemax>1</valuemax>
							<value>0.05</value>
						</parameter>
						<parameter>
							<parameterid>flareaspect</parameterid>
							<name>Aspect</name>
							<valuemin>0.1</valuemin>
							<valuemax>10</valuemax>
							<value>1</value>
						</parameter>
						<parameter>
							<parameterid>flareintensity</parameterid>
							<name>Overall Intensity</name>
							<valuemin>0</valuemin>
							<valuemax>400</valuemax>
							<value>300</value>
						</parameter>
						<parameter>
							<parameterid>therandomseed</parameterid>
							<name>Random Seed</name>
							<valuemin>0</valuemin>
							<valuemax>100</valuemax>
							<value>100</value>
						</parameter>
						<parameter>
							<parameterid>settingsvar2</parameterid>
							<name>   Bloom</name>
							<value>string</value>
						</parameter>
						<parameter>
							<parameterid>bloomon</parameterid>
							<name>Bloom On?</name>
							<value>TRUE</value>
						</parameter>
						<parameter>
							<parameterid>bloomcolour</parameterid>
							<name>Bloom Colour</name>
							<value>
								<alpha>255</alpha>
								<red>218</red>
								<green>224</green>
								<blue>254</blue>
							</value>
						</parameter>
						<parameter>
							<parameterid>bloomcolourfromimage</parameterid>
							<name>Use Image for Bloom Colour?</name>
							<value>FALSE</value>
						</parameter>
						<parameter>
							<parameterid>bloomintensity</parameterid>
							<name>Intensity</name>
							<valuemin>0</valuemin>
							<valuemax>100</valuemax>
							<value>90</value>
						</parameter>
						<parameter>
							<parameterid>bloomradius</parameterid>
							<name>Radius</name>
							<valuemin>0</valuemin>
							<valuemax>200</valuemax>
							<value>45</value>
						</parameter>
						<parameter>
							<parameterid>bloomfalloff</parameterid>
							<name>Fall Off</name>
							<valuemin>0</valuemin>
							<valuemax>100</valuemax>
							<value>75</value>
						</parameter>
						<parameter>
							<parameterid>bloomstarry</parameterid>
							<name>Starry</name>
							<valuemin>0</valuemin>
							<valuemax>100</valuemax>
							<value>10</value>
						</parameter>
						<parameter>
							<parameterid>bloomstarpoints</parameterid>
							<name>Star Points</name>
							<valuemin>0</valuemin>
							<valuemax>100</valuemax>
							<value>7</value>
						</parameter>
						<parameter>
							<parameterid>settingsvar3</parameterid>
							<name>   StarBurst</name>
							<value>string</value>
						</parameter>
						<parameter>
							<parameterid>starburston</parameterid>
							<name>StarBurst On?</name>
							<value>TRUE</value>
						</parameter>
						<parameter>
							<parameterid>starburstcolour</parameterid>
							<name>StarBurst Colour</name>
							<value>
								<alpha>255</alpha>
								<red>254</red>
								<green>224</green>
								<blue>218</blue>
							</value>
						</parameter>
						<parameter>
							<parameterid>starburstintensity</parameterid>
							<name>Intensity</name>
							<valuemin>0</valuemin>
							<valuemax>100</valuemax>
							<value>75</value>
						</parameter>
						<parameter>
							<parameterid>starburstradius</parameterid>
							<name>Radius</name>
							<valuemin>0</valuemin>
							<valuemax>150</valuemax>
							<value>75</value>
						</parameter>
						<parameter>
							<parameterid>starburststarpoints</parameterid>
							<name>Star Points</name>
							<valuemin>0</valuemin>
							<valuemax>200</valuemax>
							<value>90</value>
						</parameter>
						<parameter>
							<parameterid>starcentre</parameterid>
							<name>Centre Size</name>
							<valuemin>0</valuemin>
							<valuemax>100</valuemax>
							<value>75</value>
						</parameter>
						<parameter>
							<parameterid>starfalloff</parameterid>
							<name>Fall Off</name>
							<valuemin>0</valuemin>
							<valuemax>100</valuemax>
							<value>75</value>
						</parameter>
						<parameter>
							<parameterid>starburstrandom</parameterid>
							<name>Randomness</name>
							<valuemin>0</valuemin>
							<valuemax>4</valuemax>
							<value>0.4</value>
						</parameter>
						<parameter>
							<parameterid>settingsvar4</parameterid>
							<name>   Rainbow</name>
							<value>string</value>
						</parameter>
						<parameter>
							<parameterid>rainbowon</parameterid>
							<name>Rainbow On?</name>
							<value>TRUE</value>
						</parameter>
						<parameter>
							<parameterid>rainbowcolors</parameterid>
							<name>Colour Type</name>
							<valuemin>1</valuemin>
							<valuemax>2</valuemax>
							<valuelist>
								<valueentry>
									<name>Rainbow</name>
									<value>1</value>
								</valueentry>
								<valueentry>
									<name>User Colour</name>
									<value>2</value>
								</valueentry>
							</valuelist>
							<value>1</value>
						</parameter>
						<parameter>
							<parameterid>rainbowusercolor</parameterid>
							<name>User Colour</name>
							<value>
								<alpha>255</alpha>
								<red>230</red>
								<green>110</green>
								<blue>22</blue>
							</value>
						</parameter>
						<parameter>
							<parameterid>rainbowposition</parameterid>
							<name>Position</name>
							<valuemin>-200</valuemin>
							<valuemax>200</valuemax>
							<value>100</value>
						</parameter>
						<parameter>
							<parameterid>rainbowintensity</parameterid>
							<name>Intensity</name>
							<valuemin>0</valuemin>
							<valuemax>100</valuemax>
							<value>20</value>
						</parameter>
						<parameter>
							<parameterid>rainbowradius</parameterid>
							<name>Radius</name>
							<valuemin>0</valuemin>
							<valuemax>200</valuemax>
							<value>50</value>
						</parameter>
						<parameter>
							<parameterid>rainbowthickness</parameterid>
							<name>Thickness</name>
							<valuemin>0</valuemin>
							<valuemax>1</valuemax>
							<value>0.15</value>
						</parameter>
						<parameter>
							<parameterid>rainbowsharpness</parameterid>
							<name>Sharpness</name>
							<valuemin>0</valuemin>
							<valuemax>1</valuemax>
							<value>0.65</value>
						</parameter>
						<parameter>
							<parameterid>settingsvar5</parameterid>
							<name>   Spots</name>
							<value>string</value>
						</parameter>
						<parameter>
							<parameterid>spotson</parameterid>
							<name>Spots On?</name>
							<value>TRUE</value>
						</parameter>
						<parameter>
							<parameterid>spotsnumber</parameterid>
							<name>Number</name>
							<valuemin>0</valuemin>
							<valuemax>100</valuemax>
							<value>12</value>
						</parameter>
						<parameter>
							<parameterid>spotsintensity</parameterid>
							<name>Intensity</name>
							<valuemin>0</valuemin>
							<valuemax>100</valuemax>
							<value>80</value>
						</parameter>
						<parameter>
							<parameterid>spotsradius</parameterid>
							<name>Radius</name>
							<valuemin>0</valuemin>
							<valuemax>150</valuemax>
							<value>30</value>
						</parameter>
						<parameter>
							<parameterid>spotsdisky</parameterid>
							<name>Disky</name>
							<valuemin>0</valuemin>
							<valuemax>100</valuemax>
							<value>75</value>
						</parameter>
						<parameter>
							<parameterid>spotsringy</parameterid>
							<name>Ringy</name>
							<valuemin>0</valuemin>
							<valuemax>100</valuemax>
							<value>75</value>
						</parameter>
						<parameter>
							<parameterid>spotsblotty</parameterid>
							<name>Blotty</name>
							<valuemin>0</valuemin>
							<valuemax>100</valuemax>
							<value>75</value>
						</parameter>
						<parameter>
							<parameterid>spotsbloony</parameterid>
							<name>Bloony</name>
							<valuemin>0</valuemin>
							<valuemax>100</valuemax>
							<value>75</value>
						</parameter>
						<parameter>
							<parameterid>spotsvarycolour</parameterid>
							<name>Vary Colour</name>
							<valuemin>0</valuemin>
							<valuemax>100</valuemax>
							<value>31</value>
						</parameter>
						<parameter>
							<parameterid>spotsbasehue</parameterid>
							<name>Base Hue</name>
							<valuemin>0</valuemin>
							<valuemax>100</valuemax>
							<value>72</value>
						</parameter>
						<parameter>
							<parameterid>spotssaturation</parameterid>
							<name>Saturation</name>
							<valuemin>0</valuemin>
							<valuemax>100</valuemax>
							<value>20</value>
						</parameter>
						<parameter>
							<parameterid>copyright</parameterid>
							<name>©www.nattress.com</name>
							<value>string</value>
						</parameter>
					</effect>
				</transitionitem>
				<clipitem id="DYR19729_01 ">
					<name>DYR19729_01</name>
					<duration>589</duration>
					<rate>
						<ntsc>FALSE</ntsc>
						<timebase>25</timebase>
					</rate>
					<in>311</in>
					<out>453</out>
					<start>-1</start>
					<end>-1</end>
					<pixelaspectratio>Square</pixelaspectratio>
					<enabled>TRUE</enabled>
					<anamorphic>FALSE</anamorphic>
					<alphatype>none</alphatype>
					<masterclipid>DYR19729_01 1</masterclipid>
					<logginginfo>
						<scene/>
						<shottake/>
						<lognote/>
						<good>FALSE</good>
					</logginginfo>
					<labels>
						<label2/>
					</labels>
					<comments>
						<mastercomment1/>
						<mastercomment2/>
						<mastercomment3/>
						<mastercomment4/>
					</comments>
					<file id="DYR19729_01 2">
						<name>DYR19729_01.mov</name>
						<pathurl>file://localhost/Volumes/Askepott/Prosjekter/DNPR637010_Kra%CC%8Akeklubben_TEM_011212/Video/TORDS%20GARASJE/SJ%C3%98DYR/Reke/DYR19729_01.mov</pathurl>
						<rate>
							<timebase>25</timebase>
						</rate>
						<duration>589</duration>
						<metadata>
							<storage>QuickTime</storage>
							<key>com.sony.bprl.xdcamtransfer.version</key>
							<size>10</size>
							<type>UTF8</type>
							<value>2.12.0.631</value>
						</metadata>
						<metadata>
							<storage>QuickTime</storage>
							<key>org.smpte.mxf.package.material.packageid</key>
							<size>66</size>
							<type>UTF8</type>
							<value>0x060a2b340101010501010d431300000039edb37f885505de08004602022f05f5</value>
						</metadata>
						<metadata>
							<storage>QuickTime</storage>
							<key>com.sony.professionaldisc.nonrealtimemeta.lastupdate</key>
							<size>25</size>
							<type>UTF8</type>
							<value>2011-01-27 12:58:44 +0100</value>
						</metadata>
						<metadata>
							<storage>QuickTime</storage>
							<key>com.sony.bprl.mxf.umid</key>
							<size>64</size>
							<type>UTF8</type>
							<value>060a2b340101010501010d431300000039edb37f885505de08004602022f05f5</value>
						</metadata>
						<metadata>
							<storage>QuickTime</storage>
							<key>com.sony.bprl.mxf.nrtmetadata</key>
							<size>1991</size>
							<type>UTF8</type>
							<value>&lt;?xml version="1.0" encoding="UTF-8"?>&lt;NonRealTimeMeta xmlns="urn:schemas-professionalDisc:nonRealTimeMeta:ver.1.20" xmlns:lib="urn:schemas-professionalDisc:lib:ver.1.20" xmlns:xsi="http://www.w3.org/2001/XMLSchema-instance" lastUpdate="2011-01-27T12:58:44+01:00">&lt;TargetMaterial umidRef="060A2B340101010501010D431300000039EDB37F885505DE08004602022F05F5">&lt;/TargetMaterial>&lt;Duration value="589">&lt;/Duration>&lt;LtcChangeTable tcFps="25" halfStep="false">&lt;LtcChange frameCount="0" value="00571902" status="increment">&lt;/LtcChange>&lt;LtcChange frameCount="588" value="13202002" status="end">&lt;/LtcChange>&lt;/LtcChangeTable>&lt;CreationDate value="2011-01-27T12:58:19+01:00">&lt;/CreationDate>&lt;TypicalUbit value="0000000017061020">&lt;/TypicalUbit>&lt;BodyUmidBasicChangeTable>&lt;BodyUmidBasicChange frameCount="0" value="060A2B340101010501010D433300000039EDB37F885505DE08004602022F05F5" status="start">&lt;/BodyUmidBasicChange>&lt;/BodyUmidBasicChangeTable>&lt;BodyUmidWhenChangeTable>&lt;BodyUmidWhenChange frameCount="0" value="443F1C04885505A5" status="increment">&lt;/BodyUmidWhenChange>&lt;BodyUmidWhenChange frameCount="588" value="44D21C04885505A5" status="end">&lt;/BodyUmidWhenChange>&lt;/BodyUmidWhenChangeTable>&lt;KlvPacketTable>&lt;KlvPacket key="060E2B34010101050301020A02000000" frameCount="0" lengthValue="095F5265635374617274" status="spot">&lt;/KlvPacket>&lt;/KlvPacketTable>&lt;VideoFormat>&lt;VideoRecPort port="DIRECT">&lt;/VideoRecPort>&lt;VideoFrame videoCodec="MPEG2HD35_1920_1080_MP@HL" captureFps="50.00i" recFps="50.00" formatFps="50i">&lt;/VideoFrame>&lt;VideoLayout pixel="1920" numOfVerticalLine="1080" aspectRatio="16:9">&lt;/VideoLayout>&lt;/VideoFormat>&lt;AudioFormat numOfChannel="2">&lt;AudioRecPort port="ANALOG" audioCodec="LPCM16" trackDst="CH1">&lt;/AudioRecPort>&lt;AudioRecPort port="DIRECT" audioCodec="LPCM16" trackDst="CH2">&lt;/AudioRecPort>&lt;/AudioFormat>&lt;Device manufacturer="Sony" modelName="PMW-EX3" serialNo="0401525">&lt;/Device>&lt;Lens modelName="VCL-614B2X">&lt;/Lens>&lt;RecordingMode type="normal" cacheRec="false">&lt;/RecordingMode>&lt;/NonRealTimeMeta>
							</value>
						</metadata>
						<metadata>
							<storage>QuickTime</storage>
							<key>com.apple.proapps.reel</key>
							<size>8</size>
							<type>UTF8</type>
							<value>Untitled</value>
						</metadata>
						<metadata>
							<storage>QuickTime</storage>
							<key>com.apple.proapps.clipID</key>
							<size>64</size>
							<type>UTF8</type>
							<value>060A2B340101010501010D431300000039EDB37F885505DE08004602022F05F5</value>
						</metadata>
						<metadata>
							<storage>QuickTime</storage>
							<key>com.apple.quicktime.information</key>
							<size>64</size>
							<type>UTF8</type>
							<value>060a2b340101010501010d431300000039edb37f885505de08004602022f05f5</value>
						</metadata>
						<metadata>
							<storage>QuickTime</storage>
							<key>com.apple.proapps.originalFormat</key>
							<size>36</size>
							<type>UTF8</type>
							<value>Apple XDCAM EX 1080i50 (35 Mb/s VBR)</value>
						</metadata>
						<timecode>
							<rate>
								<timebase>25</timebase>
							</rate>
							<string>02:19:57:00</string>
							<frame>209925</frame>
							<displayformat>NDF</displayformat>
							<source>source</source>
							<reel>
								<name>Untitled</name>
							</reel>
						</timecode>
						<media>
							<video>
								<duration>589</duration>
								<samplecharacteristics>
									<width>1920</width>
									<height>1080</height>
								</samplecharacteristics>
							</video>
							<audio>
								<samplecharacteristics>
									<samplerate>48000</samplerate>
									<depth>16</depth>
								</samplecharacteristics>
								<channelcount>1</channelcount>
								<layout>mono</layout>
								<audiochannel>
									<sourcechannel>1</sourcechannel>
									<channellabel>discrete</channellabel>
								</audiochannel>
							</audio>
							<audio>
								<samplecharacteristics>
									<samplerate>48000</samplerate>
									<depth>16</depth>
								</samplecharacteristics>
								<channelcount>1</channelcount>
								<layout>mono</layout>
								<audiochannel>
									<sourcechannel>2</sourcechannel>
									<channellabel>discrete</channellabel>
								</audiochannel>
							</audio>
						</media>
					</file>
					<sourcetrack>
						<mediatype>video</mediatype>
					</sourcetrack>
					<link>
						<linkclipref>DYR19729_01 </linkclipref>
						<mediatype>video</mediatype>
						<trackindex>1</trackindex>
						<clipindex>3</clipindex>
					</link>
					<link>
						<linkclipref>DYR19729_01 3</linkclipref>
						<mediatype>audio</mediatype>
						<trackindex>1</trackindex>
						<clipindex>2</clipindex>
					</link>
					<link>
						<linkclipref>DYR19729_01 4</linkclipref>
						<mediatype>audio</mediatype>
						<trackindex>2</trackindex>
						<clipindex>2</clipindex>
					</link>
					<fielddominance>upper</fielddominance>
					<itemhistory>
						<uuid>5879304C-42B7-4002-9D65-101ADC8C7966</uuid>
					</itemhistory>
				</clipitem>
				<transitionitem>
					<rate>
						<ntsc>FALSE</ntsc>
						<timebase>25</timebase>
					</rate>
					<start>632</start>
					<end>647</end>
					<alignment>center</alignment>
					<effect>
						<name>G Lens Flare Musikkvideo</name>
						<effectcategory>Nattress Big Box Of Tricks</effectcategory>
						<effecttype>transition</effecttype>
						<mediatype>video</mediatype>
						<startratio>0</startratio>
						<endratio>1</endratio>
						<reverse>FALSE</reverse>
						<parameter>
							<parameterid>dispvar1</parameterid>
							<name>Display Settings</name>
							<value>string</value>
						</parameter>
						<parameter>
							<parameterid>inputvar1</parameterid>
							<name>Flare Position</name>
							<value>string</value>
						</parameter>
						<parameter>
							<parameterid>theangle</parameterid>
							<name>Transition Direction</name>
							<valuemin>-360</valuemin>
							<valuemax>360</valuemax>
							<value>270</value>
						</parameter>
						<parameter>
							<parameterid>transitionblendduration</parameterid>
							<name>Blend Duration</name>
							<valuemin>0</valuemin>
							<valuemax>100</valuemax>
							<value>50</value>
						</parameter>
						<parameter>
							<parameterid>settingsvar1</parameterid>
							<name>Flare Settings</name>
							<value>string</value>
						</parameter>
						<parameter>
							<parameterid>presets</parameterid>
							<name>Preset Select</name>
							<valuemin>1</valuemin>
							<valuemax>4</valuemax>
							<valuelist>
								<valueentry>
									<name>Custom Controls</name>
									<value>1</value>
								</valueentry>
								<valueentry>
									<name>Other End of the Rainbow</name>
									<value>2</value>
								</valueentry>
								<valueentry>
									<name>Photon</name>
									<value>3</value>
								</valueentry>
								<valueentry>
									<name>Gaudy</name>
									<value>4</value>
								</valueentry>
							</valuelist>
							<value>2</value>
						</parameter>
						<parameter>
							<parameterid>randomevolution</parameterid>
							<name>Randomness Evolution</name>
							<valuemin>0</valuemin>
							<valuemax>1</valuemax>
							<value>0.05</value>
						</parameter>
						<parameter>
							<parameterid>flareaspect</parameterid>
							<name>Aspect</name>
							<valuemin>0.1</valuemin>
							<valuemax>10</valuemax>
							<value>1</value>
						</parameter>
						<parameter>
							<parameterid>flareintensity</parameterid>
							<name>Overall Intensity</name>
							<valuemin>0</valuemin>
							<valuemax>400</valuemax>
							<value>300</value>
						</parameter>
						<parameter>
							<parameterid>therandomseed</parameterid>
							<name>Random Seed</name>
							<valuemin>0</valuemin>
							<valuemax>100</valuemax>
							<value>100</value>
						</parameter>
						<parameter>
							<parameterid>settingsvar2</parameterid>
							<name>   Bloom</name>
							<value>string</value>
						</parameter>
						<parameter>
							<parameterid>bloomon</parameterid>
							<name>Bloom On?</name>
							<value>TRUE</value>
						</parameter>
						<parameter>
							<parameterid>bloomcolour</parameterid>
							<name>Bloom Colour</name>
							<value>
								<alpha>255</alpha>
								<red>218</red>
								<green>224</green>
								<blue>254</blue>
							</value>
						</parameter>
						<parameter>
							<parameterid>bloomcolourfromimage</parameterid>
							<name>Use Image for Bloom Colour?</name>
							<value>FALSE</value>
						</parameter>
						<parameter>
							<parameterid>bloomintensity</parameterid>
							<name>Intensity</name>
							<valuemin>0</valuemin>
							<valuemax>100</valuemax>
							<value>90</value>
						</parameter>
						<parameter>
							<parameterid>bloomradius</parameterid>
							<name>Radius</name>
							<valuemin>0</valuemin>
							<valuemax>200</valuemax>
							<value>45</value>
						</parameter>
						<parameter>
							<parameterid>bloomfalloff</parameterid>
							<name>Fall Off</name>
							<valuemin>0</valuemin>
							<valuemax>100</valuemax>
							<value>75</value>
						</parameter>
						<parameter>
							<parameterid>bloomstarry</parameterid>
							<name>Starry</name>
							<valuemin>0</valuemin>
							<valuemax>100</valuemax>
							<value>10</value>
						</parameter>
						<parameter>
							<parameterid>bloomstarpoints</parameterid>
							<name>Star Points</name>
							<valuemin>0</valuemin>
							<valuemax>100</valuemax>
							<value>7</value>
						</parameter>
						<parameter>
							<parameterid>settingsvar3</parameterid>
							<name>   StarBurst</name>
							<value>string</value>
						</parameter>
						<parameter>
							<parameterid>starburston</parameterid>
							<name>StarBurst On?</name>
							<value>TRUE</value>
						</parameter>
						<parameter>
							<parameterid>starburstcolour</parameterid>
							<name>StarBurst Colour</name>
							<value>
								<alpha>255</alpha>
								<red>254</red>
								<green>224</green>
								<blue>218</blue>
							</value>
						</parameter>
						<parameter>
							<parameterid>starburstintensity</parameterid>
							<name>Intensity</name>
							<valuemin>0</valuemin>
							<valuemax>100</valuemax>
							<value>75</value>
						</parameter>
						<parameter>
							<parameterid>starburstradius</parameterid>
							<name>Radius</name>
							<valuemin>0</valuemin>
							<valuemax>150</valuemax>
							<value>75</value>
						</parameter>
						<parameter>
							<parameterid>starburststarpoints</parameterid>
							<name>Star Points</name>
							<valuemin>0</valuemin>
							<valuemax>200</valuemax>
							<value>90</value>
						</parameter>
						<parameter>
							<parameterid>starcentre</parameterid>
							<name>Centre Size</name>
							<valuemin>0</valuemin>
							<valuemax>100</valuemax>
							<value>75</value>
						</parameter>
						<parameter>
							<parameterid>starfalloff</parameterid>
							<name>Fall Off</name>
							<valuemin>0</valuemin>
							<valuemax>100</valuemax>
							<value>75</value>
						</parameter>
						<parameter>
							<parameterid>starburstrandom</parameterid>
							<name>Randomness</name>
							<valuemin>0</valuemin>
							<valuemax>4</valuemax>
							<value>0.4</value>
						</parameter>
						<parameter>
							<parameterid>settingsvar4</parameterid>
							<name>   Rainbow</name>
							<value>string</value>
						</parameter>
						<parameter>
							<parameterid>rainbowon</parameterid>
							<name>Rainbow On?</name>
							<value>TRUE</value>
						</parameter>
						<parameter>
							<parameterid>rainbowcolors</parameterid>
							<name>Colour Type</name>
							<valuemin>1</valuemin>
							<valuemax>2</valuemax>
							<valuelist>
								<valueentry>
									<name>Rainbow</name>
									<value>1</value>
								</valueentry>
								<valueentry>
									<name>User Colour</name>
									<value>2</value>
								</valueentry>
							</valuelist>
							<value>1</value>
						</parameter>
						<parameter>
							<parameterid>rainbowusercolor</parameterid>
							<name>User Colour</name>
							<value>
								<alpha>255</alpha>
								<red>230</red>
								<green>110</green>
								<blue>22</blue>
							</value>
						</parameter>
						<parameter>
							<parameterid>rainbowposition</parameterid>
							<name>Position</name>
							<valuemin>-200</valuemin>
							<valuemax>200</valuemax>
							<value>100</value>
						</parameter>
						<parameter>
							<parameterid>rainbowintensity</parameterid>
							<name>Intensity</name>
							<valuemin>0</valuemin>
							<valuemax>100</valuemax>
							<value>20</value>
						</parameter>
						<parameter>
							<parameterid>rainbowradius</parameterid>
							<name>Radius</name>
							<valuemin>0</valuemin>
							<valuemax>200</valuemax>
							<value>50</value>
						</parameter>
						<parameter>
							<parameterid>rainbowthickness</parameterid>
							<name>Thickness</name>
							<valuemin>0</valuemin>
							<valuemax>1</valuemax>
							<value>0.15</value>
						</parameter>
						<parameter>
							<parameterid>rainbowsharpness</parameterid>
							<name>Sharpness</name>
							<valuemin>0</valuemin>
							<valuemax>1</valuemax>
							<value>0.65</value>
						</parameter>
						<parameter>
							<parameterid>settingsvar5</parameterid>
							<name>   Spots</name>
							<value>string</value>
						</parameter>
						<parameter>
							<parameterid>spotson</parameterid>
							<name>Spots On?</name>
							<value>TRUE</value>
						</parameter>
						<parameter>
							<parameterid>spotsnumber</parameterid>
							<name>Number</name>
							<valuemin>0</valuemin>
							<valuemax>100</valuemax>
							<value>12</value>
						</parameter>
						<parameter>
							<parameterid>spotsintensity</parameterid>
							<name>Intensity</name>
							<valuemin>0</valuemin>
							<valuemax>100</valuemax>
							<value>80</value>
						</parameter>
						<parameter>
							<parameterid>spotsradius</parameterid>
							<name>Radius</name>
							<valuemin>0</valuemin>
							<valuemax>150</valuemax>
							<value>30</value>
						</parameter>
						<parameter>
							<parameterid>spotsdisky</parameterid>
							<name>Disky</name>
							<valuemin>0</valuemin>
							<valuemax>100</valuemax>
							<value>75</value>
						</parameter>
						<parameter>
							<parameterid>spotsringy</parameterid>
							<name>Ringy</name>
							<valuemin>0</valuemin>
							<valuemax>100</valuemax>
							<value>75</value>
						</parameter>
						<parameter>
							<parameterid>spotsblotty</parameterid>
							<name>Blotty</name>
							<valuemin>0</valuemin>
							<valuemax>100</valuemax>
							<value>75</value>
						</parameter>
						<parameter>
							<parameterid>spotsbloony</parameterid>
							<name>Bloony</name>
							<valuemin>0</valuemin>
							<valuemax>100</valuemax>
							<value>75</value>
						</parameter>
						<parameter>
							<parameterid>spotsvarycolour</parameterid>
							<name>Vary Colour</name>
							<valuemin>0</valuemin>
							<valuemax>100</valuemax>
							<value>31</value>
						</parameter>
						<parameter>
							<parameterid>spotsbasehue</parameterid>
							<name>Base Hue</name>
							<valuemin>0</valuemin>
							<valuemax>100</valuemax>
							<value>72</value>
						</parameter>
						<parameter>
							<parameterid>spotssaturation</parameterid>
							<name>Saturation</name>
							<valuemin>0</valuemin>
							<valuemax>100</valuemax>
							<value>20</value>
						</parameter>
						<parameter>
							<parameterid>copyright</parameterid>
							<name>©www.nattress.com</name>
							<value>string</value>
						</parameter>
					</effect>
				</transitionitem>
				<clipitem id="AA1477_01 ">
					<name>AA1477_01</name>
					<duration>408</duration>
					<rate>
						<ntsc>FALSE</ntsc>
						<timebase>25</timebase>
					</rate>
					<in>201</in>
					<out>297</out>
					<start>-1</start>
					<end>-1</end>
					<pixelaspectratio>Square</pixelaspectratio>
					<enabled>TRUE</enabled>
					<anamorphic>FALSE</anamorphic>
					<alphatype>none</alphatype>
					<masterclipid>AA1477_01 1</masterclipid>
					<logginginfo>
						<scene/>
						<shottake/>
						<lognote/>
						<good>FALSE</good>
					</logginginfo>
					<labels>
						<label2/>
					</labels>
					<comments>
						<mastercomment1/>
						<mastercomment2/>
						<mastercomment3/>
						<mastercomment4/>
					</comments>
					<file id="AA1477_01 2">
						<name>AA1477_01.mov</name>
						<pathurl>file://localhost/Volumes/Askepott/Prosjekter/DNPR637010_Kra%CC%8Akeklubben_TEM_011212/Video/MELLOMSTIKK/S01E%20Spor%20i%20sn%C3%B8en/Canon%20XF/AA1477_01.mov</pathurl>
						<rate>
							<timebase>25</timebase>
						</rate>
						<duration>408</duration>
						<metadata>
							<storage>QuickTime</storage>
							<key>com.apple.proapps.originalFormat</key>
							<size>14</size>
							<type>UTF8</type>
							<value>Canon XF MPEG2</value>
						</metadata>
						<metadata>
							<storage>QuickTime</storage>
							<key>com.apple.quicktime.creationdate</key>
							<size>24</size>
							<type>UTF8</type>
							<value>2012-02-22T15:50:56+0100</value>
						</metadata>
						<metadata>
							<storage>QuickTime</storage>
							<key>com.apple.proapps.isGood</key>
							<size>4</size>
							<type>unsigned</type>
							<value>0</value>
						</metadata>
						<metadata>
							<storage>QuickTime</storage>
							<key>com.apple.finalcutstudio.media.uuid</key>
							<size>36</size>
							<type>UTF8</type>
							<value>79722C69-4F51-409D-BCBB-626DD29ABCC2</value>
						</metadata>
						<metadata>
							<storage>QuickTime</storage>
							<key>com.apple.proapps.clipID</key>
							<size>36</size>
							<type>UTF8</type>
							<value>0A28C8A0-7959-0580-0000-850001E01891</value>
						</metadata>
						<metadata>
							<storage>QuickTime</storage>
							<key>com.apple.proapps.reel</key>
							<size>8</size>
							<type>UTF8</type>
							<value>CANON XF</value>
						</metadata>
						<timecode>
							<rate>
								<timebase>25</timebase>
							</rate>
							<string>01:16:02:10</string>
							<frame>114060</frame>
							<displayformat>NDF</displayformat>
							<source>source</source>
							<reel>
								<name>CANON XF</name>
							</reel>
						</timecode>
						<media>
							<video>
								<duration>408</duration>
								<samplecharacteristics>
									<width>1920</width>
									<height>1080</height>
								</samplecharacteristics>
							</video>
							<audio>
								<samplecharacteristics>
									<samplerate>48000</samplerate>
									<depth>16</depth>
								</samplecharacteristics>
								<channelcount>1</channelcount>
								<layout>mono</layout>
								<audiochannel>
									<sourcechannel>1</sourcechannel>
									<channellabel>discrete</channellabel>
								</audiochannel>
							</audio>
							<audio>
								<samplecharacteristics>
									<samplerate>48000</samplerate>
									<depth>16</depth>
								</samplecharacteristics>
								<channelcount>1</channelcount>
								<layout>mono</layout>
								<audiochannel>
									<sourcechannel>2</sourcechannel>
									<channellabel>discrete</channellabel>
								</audiochannel>
							</audio>
						</media>
					</file>
					<sourcetrack>
						<mediatype>video</mediatype>
					</sourcetrack>
					<link>
						<linkclipref>AA1477_01 </linkclipref>
						<mediatype>video</mediatype>
						<trackindex>1</trackindex>
						<clipindex>5</clipindex>
					</link>
					<link>
						<linkclipref>AA1477_01 3</linkclipref>
						<mediatype>audio</mediatype>
						<trackindex>1</trackindex>
						<clipindex>4</clipindex>
					</link>
					<link>
						<linkclipref>AA1477_01 4</linkclipref>
						<mediatype>audio</mediatype>
						<trackindex>2</trackindex>
						<clipindex>4</clipindex>
					</link>
					<fielddominance>upper</fielddominance>
					<itemhistory>
						<uuid>89893C08-3268-49B2-B33C-736438C933D4</uuid>
					</itemhistory>
				</clipitem>
				<transitionitem>
					<rate>
						<ntsc>FALSE</ntsc>
						<timebase>25</timebase>
					</rate>
					<start>713</start>
					<end>728</end>
					<alignment>center</alignment>
					<effect>
						<name>G Lens Flare Musikkvideo</name>
						<effectcategory>Nattress Big Box Of Tricks</effectcategory>
						<effecttype>transition</effecttype>
						<mediatype>video</mediatype>
						<startratio>0</startratio>
						<endratio>1</endratio>
						<reverse>FALSE</reverse>
						<parameter>
							<parameterid>dispvar1</parameterid>
							<name>Display Settings</name>
							<value>string</value>
						</parameter>
						<parameter>
							<parameterid>inputvar1</parameterid>
							<name>Flare Position</name>
							<value>string</value>
						</parameter>
						<parameter>
							<parameterid>theangle</parameterid>
							<name>Transition Direction</name>
							<valuemin>-360</valuemin>
							<valuemax>360</valuemax>
							<value>270</value>
						</parameter>
						<parameter>
							<parameterid>transitionblendduration</parameterid>
							<name>Blend Duration</name>
							<valuemin>0</valuemin>
							<valuemax>100</valuemax>
							<value>50</value>
						</parameter>
						<parameter>
							<parameterid>settingsvar1</parameterid>
							<name>Flare Settings</name>
							<value>string</value>
						</parameter>
						<parameter>
							<parameterid>presets</parameterid>
							<name>Preset Select</name>
							<valuemin>1</valuemin>
							<valuemax>4</valuemax>
							<valuelist>
								<valueentry>
									<name>Custom Controls</name>
									<value>1</value>
								</valueentry>
								<valueentry>
									<name>Other End of the Rainbow</name>
									<value>2</value>
								</valueentry>
								<valueentry>
									<name>Photon</name>
									<value>3</value>
								</valueentry>
								<valueentry>
									<name>Gaudy</name>
									<value>4</value>
								</valueentry>
							</valuelist>
							<value>2</value>
						</parameter>
						<parameter>
							<parameterid>randomevolution</parameterid>
							<name>Randomness Evolution</name>
							<valuemin>0</valuemin>
							<valuemax>1</valuemax>
							<value>0.05</value>
						</parameter>
						<parameter>
							<parameterid>flareaspect</parameterid>
							<name>Aspect</name>
							<valuemin>0.1</valuemin>
							<valuemax>10</valuemax>
							<value>1</value>
						</parameter>
						<parameter>
							<parameterid>flareintensity</parameterid>
							<name>Overall Intensity</name>
							<valuemin>0</valuemin>
							<valuemax>400</valuemax>
							<value>300</value>
						</parameter>
						<parameter>
							<parameterid>therandomseed</parameterid>
							<name>Random Seed</name>
							<valuemin>0</valuemin>
							<valuemax>100</valuemax>
							<value>100</value>
						</parameter>
						<parameter>
							<parameterid>settingsvar2</parameterid>
							<name>   Bloom</name>
							<value>string</value>
						</parameter>
						<parameter>
							<parameterid>bloomon</parameterid>
							<name>Bloom On?</name>
							<value>TRUE</value>
						</parameter>
						<parameter>
							<parameterid>bloomcolour</parameterid>
							<name>Bloom Colour</name>
							<value>
								<alpha>255</alpha>
								<red>218</red>
								<green>224</green>
								<blue>254</blue>
							</value>
						</parameter>
						<parameter>
							<parameterid>bloomcolourfromimage</parameterid>
							<name>Use Image for Bloom Colour?</name>
							<value>FALSE</value>
						</parameter>
						<parameter>
							<parameterid>bloomintensity</parameterid>
							<name>Intensity</name>
							<valuemin>0</valuemin>
							<valuemax>100</valuemax>
							<value>90</value>
						</parameter>
						<parameter>
							<parameterid>bloomradius</parameterid>
							<name>Radius</name>
							<valuemin>0</valuemin>
							<valuemax>200</valuemax>
							<value>45</value>
						</parameter>
						<parameter>
							<parameterid>bloomfalloff</parameterid>
							<name>Fall Off</name>
							<valuemin>0</valuemin>
							<valuemax>100</valuemax>
							<value>75</value>
						</parameter>
						<parameter>
							<parameterid>bloomstarry</parameterid>
							<name>Starry</name>
							<valuemin>0</valuemin>
							<valuemax>100</valuemax>
							<value>10</value>
						</parameter>
						<parameter>
							<parameterid>bloomstarpoints</parameterid>
							<name>Star Points</name>
							<valuemin>0</valuemin>
							<valuemax>100</valuemax>
							<value>7</value>
						</parameter>
						<parameter>
							<parameterid>settingsvar3</parameterid>
							<name>   StarBurst</name>
							<value>string</value>
						</parameter>
						<parameter>
							<parameterid>starburston</parameterid>
							<name>StarBurst On?</name>
							<value>TRUE</value>
						</parameter>
						<parameter>
							<parameterid>starburstcolour</parameterid>
							<name>StarBurst Colour</name>
							<value>
								<alpha>255</alpha>
								<red>254</red>
								<green>224</green>
								<blue>218</blue>
							</value>
						</parameter>
						<parameter>
							<parameterid>starburstintensity</parameterid>
							<name>Intensity</name>
							<valuemin>0</valuemin>
							<valuemax>100</valuemax>
							<value>75</value>
						</parameter>
						<parameter>
							<parameterid>starburstradius</parameterid>
							<name>Radius</name>
							<valuemin>0</valuemin>
							<valuemax>150</valuemax>
							<value>75</value>
						</parameter>
						<parameter>
							<parameterid>starburststarpoints</parameterid>
							<name>Star Points</name>
							<valuemin>0</valuemin>
							<valuemax>200</valuemax>
							<value>90</value>
						</parameter>
						<parameter>
							<parameterid>starcentre</parameterid>
							<name>Centre Size</name>
							<valuemin>0</valuemin>
							<valuemax>100</valuemax>
							<value>75</value>
						</parameter>
						<parameter>
							<parameterid>starfalloff</parameterid>
							<name>Fall Off</name>
							<valuemin>0</valuemin>
							<valuemax>100</valuemax>
							<value>75</value>
						</parameter>
						<parameter>
							<parameterid>starburstrandom</parameterid>
							<name>Randomness</name>
							<valuemin>0</valuemin>
							<valuemax>4</valuemax>
							<value>0.4</value>
						</parameter>
						<parameter>
							<parameterid>settingsvar4</parameterid>
							<name>   Rainbow</name>
							<value>string</value>
						</parameter>
						<parameter>
							<parameterid>rainbowon</parameterid>
							<name>Rainbow On?</name>
							<value>TRUE</value>
						</parameter>
						<parameter>
							<parameterid>rainbowcolors</parameterid>
							<name>Colour Type</name>
							<valuemin>1</valuemin>
							<valuemax>2</valuemax>
							<valuelist>
								<valueentry>
									<name>Rainbow</name>
									<value>1</value>
								</valueentry>
								<valueentry>
									<name>User Colour</name>
									<value>2</value>
								</valueentry>
							</valuelist>
							<value>1</value>
						</parameter>
						<parameter>
							<parameterid>rainbowusercolor</parameterid>
							<name>User Colour</name>
							<value>
								<alpha>255</alpha>
								<red>230</red>
								<green>110</green>
								<blue>22</blue>
							</value>
						</parameter>
						<parameter>
							<parameterid>rainbowposition</parameterid>
							<name>Position</name>
							<valuemin>-200</valuemin>
							<valuemax>200</valuemax>
							<value>100</value>
						</parameter>
						<parameter>
							<parameterid>rainbowintensity</parameterid>
							<name>Intensity</name>
							<valuemin>0</valuemin>
							<valuemax>100</valuemax>
							<value>20</value>
						</parameter>
						<parameter>
							<parameterid>rainbowradius</parameterid>
							<name>Radius</name>
							<valuemin>0</valuemin>
							<valuemax>200</valuemax>
							<value>50</value>
						</parameter>
						<parameter>
							<parameterid>rainbowthickness</parameterid>
							<name>Thickness</name>
							<valuemin>0</valuemin>
							<valuemax>1</valuemax>
							<value>0.15</value>
						</parameter>
						<parameter>
							<parameterid>rainbowsharpness</parameterid>
							<name>Sharpness</name>
							<valuemin>0</valuemin>
							<valuemax>1</valuemax>
							<value>0.65</value>
						</parameter>
						<parameter>
							<parameterid>settingsvar5</parameterid>
							<name>   Spots</name>
							<value>string</value>
						</parameter>
						<parameter>
							<parameterid>spotson</parameterid>
							<name>Spots On?</name>
							<value>TRUE</value>
						</parameter>
						<parameter>
							<parameterid>spotsnumber</parameterid>
							<name>Number</name>
							<valuemin>0</valuemin>
							<valuemax>100</valuemax>
							<value>12</value>
						</parameter>
						<parameter>
							<parameterid>spotsintensity</parameterid>
							<name>Intensity</name>
							<valuemin>0</valuemin>
							<valuemax>100</valuemax>
							<value>80</value>
						</parameter>
						<parameter>
							<parameterid>spotsradius</parameterid>
							<name>Radius</name>
							<valuemin>0</valuemin>
							<valuemax>150</valuemax>
							<value>30</value>
						</parameter>
						<parameter>
							<parameterid>spotsdisky</parameterid>
							<name>Disky</name>
							<valuemin>0</valuemin>
							<valuemax>100</valuemax>
							<value>75</value>
						</parameter>
						<parameter>
							<parameterid>spotsringy</parameterid>
							<name>Ringy</name>
							<valuemin>0</valuemin>
							<valuemax>100</valuemax>
							<value>75</value>
						</parameter>
						<parameter>
							<parameterid>spotsblotty</parameterid>
							<name>Blotty</name>
							<valuemin>0</valuemin>
							<valuemax>100</valuemax>
							<value>75</value>
						</parameter>
						<parameter>
							<parameterid>spotsbloony</parameterid>
							<name>Bloony</name>
							<valuemin>0</valuemin>
							<valuemax>100</valuemax>
							<value>75</value>
						</parameter>
						<parameter>
							<parameterid>spotsvarycolour</parameterid>
							<name>Vary Colour</name>
							<valuemin>0</valuemin>
							<valuemax>100</valuemax>
							<value>31</value>
						</parameter>
						<parameter>
							<parameterid>spotsbasehue</parameterid>
							<name>Base Hue</name>
							<valuemin>0</valuemin>
							<valuemax>100</valuemax>
							<value>72</value>
						</parameter>
						<parameter>
							<parameterid>spotssaturation</parameterid>
							<name>Saturation</name>
							<valuemin>0</valuemin>
							<valuemax>100</valuemax>
							<value>20</value>
						</parameter>
						<parameter>
							<parameterid>copyright</parameterid>
							<name>©www.nattress.com</name>
							<value>string</value>
						</parameter>
					</effect>
				</transitionitem>
				<clipitem id="VIGNETT m ALPHA 25fps PROG SCAN">
					<name>VIGNETT m ALPHA 25fps PROG SCAN</name>
					<duration>881</duration>
					<rate>
						<ntsc>FALSE</ntsc>
						<timebase>25</timebase>
					</rate>
					<in>742</in>
					<out>877</out>
					<start>-1</start>
					<end>848</end>
					<pixelaspectratio>Square</pixelaspectratio>
					<enabled>TRUE</enabled>
					<anamorphic>FALSE</anamorphic>
					<alphatype>straight</alphatype>
					<masterclipid>VIGNETT m ALPHA 25fps PROG SCAN1</masterclipid>
					<logginginfo>
						<scene/>
						<shottake/>
						<lognote/>
						<good>FALSE</good>
					</logginginfo>
					<labels>
						<label2/>
					</labels>
					<comments>
						<mastercomment1/>
						<mastercomment2/>
						<mastercomment3/>
						<mastercomment4/>
					</comments>
					<file id="VIGNETT m ALPHA 25fps PROG SCAN2">
						<name>VIGNETT m ALPHA 25fps PROG SCAN.mov</name>
						<pathurl>file://localhost/Volumes/Askepott/Prosjekter/DNPR637010_Kra%CC%8Akeklubben_TEM_011212/Grafikk/MASTERE%20GRAFIKK/VIGNETT%20m%20ALPHA%2025fps%20PROG%20SCAN.mov</pathurl>
						<rate>
							<timebase>25</timebase>
						</rate>
						<duration>881</duration>
						<timecode>
							<rate>
								<timebase>25</timebase>
							</rate>
							<string>00:00:00:00</string>
							<frame>0</frame>
							<displayformat>NDF</displayformat>
							<source>source</source>
						</timecode>
						<media>
							<video>
								<duration>881</duration>
								<samplecharacteristics>
									<width>1920</width>
									<height>1080</height>
								</samplecharacteristics>
							</video>
						</media>
					</file>
					<sourcetrack>
						<mediatype>video</mediatype>
					</sourcetrack>
					<fielddominance>upper</fielddominance>
					<itemhistory>
						<uuid>59E76CAD-20E9-4851-86A7-550DBA87B034</uuid>
					</itemhistory>
				</clipitem>
				<clipitem id="Clip1ATK24 ">
					<name>Clip1ATK24</name>
					<duration>706</duration>
					<rate>
						<ntsc>FALSE</ntsc>
						<timebase>25</timebase>
					</rate>
					<in>23</in>
					<out>417</out>
					<start>848</start>
					<end>1242</end>
					<pixelaspectratio>Square</pixelaspectratio>
					<enabled>TRUE</enabled>
					<anamorphic>FALSE</anamorphic>
					<alphatype>none</alphatype>
					<masterclipid>Clip1ATK24 1</masterclipid>
					<logginginfo>
						<scene/>
						<shottake/>
						<lognote/>
						<good>FALSE</good>
					</logginginfo>
					<labels>
						<label2/>
					</labels>
					<comments>
						<mastercomment1/>
						<mastercomment2/>
						<mastercomment3/>
						<mastercomment4/>
					</comments>
					<file id="Clip1ATK24 2">
						<name>Clip1ATK24.mov</name>
						<pathurl>file://localhost/Volumes/Askepott/Prosjekter/DNPR637010_Kra%CC%8Akeklubben_TEM_011212/Video/MELLOMSTIKK/S01E%20Spor%20i%20sn%C3%B8en/AJA/Clip1ATK24.mov</pathurl>
						<rate>
							<timebase>25</timebase>
						</rate>
						<duration>706</duration>
						<timecode>
							<rate>
								<timebase>25</timebase>
							</rate>
							<string>22:32:52:15</string>
							<frame>2029315</frame>
							<displayformat>NDF</displayformat>
							<source>source</source>
							<reel>
								<name>1</name>
							</reel>
						</timecode>
						<media>
							<video>
								<duration>706</duration>
								<samplecharacteristics>
									<width>1920</width>
									<height>1080</height>
								</samplecharacteristics>
							</video>
							<audio>
								<samplecharacteristics>
									<samplerate>48000</samplerate>
									<depth>24</depth>
								</samplecharacteristics>
								<channelcount>1</channelcount>
							</audio>
							<audio>
								<samplecharacteristics>
									<samplerate>48000</samplerate>
									<depth>24</depth>
								</samplecharacteristics>
								<channelcount>1</channelcount>
							</audio>
						</media>
					</file>
					<sourcetrack>
						<mediatype>video</mediatype>
					</sourcetrack>
					<link>
						<linkclipref>Clip1ATK24 </linkclipref>
						<mediatype>video</mediatype>
						<trackindex>1</trackindex>
						<clipindex>8</clipindex>
					</link>
					<link>
						<linkclipref>Clip1ATK24 3</linkclipref>
						<mediatype>audio</mediatype>
						<trackindex>1</trackindex>
						<clipindex>5</clipindex>
					</link>
					<link>
						<linkclipref>Clip1ATK24 4</linkclipref>
						<mediatype>audio</mediatype>
						<trackindex>2</trackindex>
						<clipindex>5</clipindex>
					</link>
					<fielddominance>upper</fielddominance>
					<itemhistory>
						<uuid>075914B9-DD72-492A-83DC-85D721F3C355</uuid>
					</itemhistory>
				</clipitem>
				<clipitem id="Clip1ATK29 ">
					<name>Clip1ATK29</name>
					<duration>553</duration>
					<rate>
						<ntsc>FALSE</ntsc>
						<timebase>25</timebase>
					</rate>
					<in>223</in>
					<out>386</out>
					<start>1242</start>
					<end>1405</end>
					<pixelaspectratio>Square</pixelaspectratio>
					<enabled>TRUE</enabled>
					<anamorphic>FALSE</anamorphic>
					<alphatype>none</alphatype>
					<masterclipid>Clip1ATK29 1</masterclipid>
					<logginginfo>
						<scene/>
						<shottake/>
						<lognote/>
						<good>FALSE</good>
					</logginginfo>
					<labels>
						<label2/>
					</labels>
					<comments>
						<mastercomment1/>
						<mastercomment2/>
						<mastercomment3/>
						<mastercomment4/>
					</comments>
					<file id="Clip1ATK29 2">
						<name>Clip1ATK29.mov</name>
						<pathurl>file://localhost/Volumes/Askepott/Prosjekter/DNPR637010_Kra%CC%8Akeklubben_TEM_011212/Video/MELLOMSTIKK/S01E%20Spor%20i%20sn%C3%B8en/AJA/Clip1ATK29.mov</pathurl>
						<rate>
							<timebase>25</timebase>
						</rate>
						<duration>553</duration>
						<timecode>
							<rate>
								<timebase>25</timebase>
							</rate>
							<string>22:35:06:07</string>
							<frame>2032657</frame>
							<displayformat>NDF</displayformat>
							<source>source</source>
							<reel>
								<name>1</name>
							</reel>
						</timecode>
						<media>
							<video>
								<duration>553</duration>
								<samplecharacteristics>
									<width>1920</width>
									<height>1080</height>
								</samplecharacteristics>
							</video>
							<audio>
								<samplecharacteristics>
									<samplerate>48000</samplerate>
									<depth>24</depth>
								</samplecharacteristics>
								<channelcount>1</channelcount>
							</audio>
							<audio>
								<samplecharacteristics>
									<samplerate>48000</samplerate>
									<depth>24</depth>
								</samplecharacteristics>
								<channelcount>1</channelcount>
							</audio>
						</media>
					</file>
					<sourcetrack>
						<mediatype>video</mediatype>
					</sourcetrack>
					<link>
						<linkclipref>Clip1ATK29 </linkclipref>
						<mediatype>video</mediatype>
						<trackindex>1</trackindex>
						<clipindex>9</clipindex>
					</link>
					<link>
						<linkclipref>Clip1ATK29 3</linkclipref>
						<mediatype>audio</mediatype>
						<trackindex>1</trackindex>
						<clipindex>6</clipindex>
					</link>
					<link>
						<linkclipref>Clip1ATK29 4</linkclipref>
						<mediatype>audio</mediatype>
						<trackindex>2</trackindex>
						<clipindex>6</clipindex>
					</link>
					<fielddominance>upper</fielddominance>
					<itemhistory>
						<uuid>415C7AFF-10FA-4841-BE9C-B1A22C3F92ED</uuid>
					</itemhistory>
				</clipitem>
				<clipitem id="525_1784_01 ">
					<name>525_1784_01</name>
					<duration>1081</duration>
					<rate>
						<ntsc>FALSE</ntsc>
						<timebase>25</timebase>
					</rate>
					<in>341</in>
					<out>551</out>
					<start>1405</start>
					<end>1615</end>
					<pixelaspectratio>Square</pixelaspectratio>
					<enabled>TRUE</enabled>
					<anamorphic>FALSE</anamorphic>
					<alphatype>none</alphatype>
					<masterclipid>525_1784_01 1</masterclipid>
					<logginginfo>
						<scene/>
						<shottake/>
						<lognote/>
						<good>FALSE</good>
					</logginginfo>
					<labels>
						<label2/>
					</labels>
					<comments>
						<mastercomment1/>
						<mastercomment2/>
						<mastercomment3/>
						<mastercomment4/>
					</comments>
					<file id="525_1784_01 2">
						<name>525_1784_01.mov</name>
						<pathurl>file://localhost/Volumes/Askepott/Prosjekter/DNPR637010_Kra%CC%8Akeklubben_TEM_011212/Video/MELLOMSTIKK/S01E%20Spor%20i%20sn%C3%B8en/EX-3/525_1784_01.mov</pathurl>
						<rate>
							<timebase>25</timebase>
						</rate>
						<duration>1081</duration>
						<metadata>
							<storage>QuickTime</storage>
							<key>com.sony.bprl.xdcamtransfer.version</key>
							<size>10</size>
							<type>UTF8</type>
							<value>2.12.0.631</value>
						</metadata>
						<metadata>
							<storage>QuickTime</storage>
							<key>org.smpte.mxf.package.material.packageid</key>
							<size>66</size>
							<type>UTF8</type>
							<value>0x060a2b340101010501010d4313000000ea442a7b785905cc08004602022f05f5</value>
						</metadata>
						<metadata>
							<storage>QuickTime</storage>
							<key>com.sony.professionaldisc.nonrealtimemeta.lastupdate</key>
							<size>25</size>
							<type>UTF8</type>
							<value>2012-02-21 12:33:32 +0100</value>
						</metadata>
						<metadata>
							<storage>QuickTime</storage>
							<key>com.sony.bprl.mxf.umid</key>
							<size>64</size>
							<type>UTF8</type>
							<value>060a2b340101010501010d4313000000ea442a7b785905cc08004602022f05f5</value>
						</metadata>
						<metadata>
							<storage>QuickTime</storage>
							<key>com.sony.bprl.mxf.nrtmetadata</key>
							<size>2011</size>
							<type>UTF8</type>
							<value>&lt;?xml version="1.0" encoding="UTF-8" standalone="yes"?>&lt;NonRealTimeMeta xmlns="urn:schemas-professionalDisc:nonRealTimeMeta:ver.1.20" xmlns:lib="urn:schemas-professionalDisc:lib:ver.1.20" xmlns:xsi="http://www.w3.org/2001/XMLSchema-instance" lastUpdate="2012-02-21T12:33:32+01:00">&lt;TargetMaterial umidRef="060A2B340101010501010D4313000000EA442A7B785905CC08004602022F05F5">&lt;/TargetMaterial>&lt;Duration value="1081">&lt;/Duration>&lt;LtcChangeTable tcFps="25" halfStep="false">&lt;LtcChange frameCount="0" value="08213822" status="increment">&lt;/LtcChange>&lt;LtcChange frameCount="1080" value="13043922" status="end">&lt;/LtcChange>&lt;/LtcChangeTable>&lt;CreationDate value="2012-02-21T12:32:48+01:00">&lt;/CreationDate>&lt;TypicalUbit value="0000000000000000">&lt;/TypicalUbit>&lt;BodyUmidBasicChangeTable>&lt;BodyUmidBasicChange frameCount="0" value="060A2B340101010501010D4333000000EA442A7B785905CC08004602022F05F5" status="start">&lt;/BodyUmidBasicChange>&lt;/BodyUmidBasicChangeTable>&lt;BodyUmidWhenChangeTable>&lt;BodyUmidWhenChange frameCount="0" value="44DBF603785905A5" status="increment">&lt;/BodyUmidWhenChange>&lt;BodyUmidWhenChange frameCount="1080" value="44E9F703785905A5" status="end">&lt;/BodyUmidWhenChange>&lt;/BodyUmidWhenChangeTable>&lt;KlvPacketTable>&lt;KlvPacket key="060E2B34010101050301020A02000000" frameCount="0" lengthValue="095F5265635374617274" status="spot">&lt;/KlvPacket>&lt;/KlvPacketTable>&lt;VideoFormat>&lt;VideoRecPort port="DIRECT">&lt;/VideoRecPort>&lt;VideoFrame videoCodec="MPEG2HD35_1920_1080_MP@HL" captureFps="50.00i" recFps="50.00" formatFps="50i">&lt;/VideoFrame>&lt;VideoLayout pixel="1920" numOfVerticalLine="1080" aspectRatio="16:9">&lt;/VideoLayout>&lt;/VideoFormat>&lt;AudioFormat numOfChannel="2">&lt;AudioRecPort port="ANALOG" audioCodec="LPCM16" trackDst="CH1">&lt;/AudioRecPort>&lt;AudioRecPort port="ANALOG" audioCodec="LPCM16" trackDst="CH2">&lt;/AudioRecPort>&lt;/AudioFormat>&lt;Device manufacturer="Sony" modelName="PMW-EX3" serialNo="0401525">&lt;/Device>&lt;Lens modelName="VCL-614B2X">&lt;/Lens>&lt;RecordingMode type="normal" cacheRec="false">&lt;/RecordingMode>&lt;/NonRealTimeMeta>
							</value>
						</metadata>
						<metadata>
							<storage>QuickTime</storage>
							<key>com.apple.proapps.reel</key>
							<size>8</size>
							<type>UTF8</type>
							<value>Untitled</value>
						</metadata>
						<metadata>
							<storage>QuickTime</storage>
							<key>com.apple.proapps.clipID</key>
							<size>64</size>
							<type>UTF8</type>
							<value>060A2B340101010501010D4313000000EA442A7B785905CC08004602022F05F5</value>
						</metadata>
						<metadata>
							<storage>QuickTime</storage>
							<key>com.apple.quicktime.information</key>
							<size>64</size>
							<type>UTF8</type>
							<value>060a2b340101010501010d4313000000ea442a7b785905cc08004602022f05f5</value>
						</metadata>
						<metadata>
							<storage>QuickTime</storage>
							<key>com.apple.proapps.originalFormat</key>
							<size>36</size>
							<type>UTF8</type>
							<value>Apple XDCAM EX 1080i50 (35 Mb/s VBR)</value>
						</metadata>
						<timecode>
							<rate>
								<timebase>25</timebase>
							</rate>
							<string>22:38:21:08</string>
							<frame>2037533</frame>
							<displayformat>NDF</displayformat>
							<source>source</source>
							<reel>
								<name>Untitled</name>
							</reel>
						</timecode>
						<media>
							<video>
								<duration>1081</duration>
								<samplecharacteristics>
									<width>1920</width>
									<height>1080</height>
								</samplecharacteristics>
							</video>
							<audio>
								<samplecharacteristics>
									<samplerate>48000</samplerate>
									<depth>16</depth>
								</samplecharacteristics>
								<channelcount>1</channelcount>
								<layout>mono</layout>
								<audiochannel>
									<sourcechannel>1</sourcechannel>
									<channellabel>discrete</channellabel>
								</audiochannel>
							</audio>
							<audio>
								<samplecharacteristics>
									<samplerate>48000</samplerate>
									<depth>16</depth>
								</samplecharacteristics>
								<channelcount>1</channelcount>
								<layout>mono</layout>
								<audiochannel>
									<sourcechannel>2</sourcechannel>
									<channellabel>discrete</channellabel>
								</audiochannel>
							</audio>
						</media>
					</file>
					<sourcetrack>
						<mediatype>video</mediatype>
					</sourcetrack>
					<link>
						<linkclipref>525_1784_01 </linkclipref>
						<mediatype>video</mediatype>
						<trackindex>1</trackindex>
						<clipindex>10</clipindex>
					</link>
					<link>
						<linkclipref>525_1784_01 3</linkclipref>
						<mediatype>audio</mediatype>
						<trackindex>1</trackindex>
						<clipindex>7</clipindex>
					</link>
					<link>
						<linkclipref>525_1784_01 4</linkclipref>
						<mediatype>audio</mediatype>
						<trackindex>2</trackindex>
						<clipindex>7</clipindex>
					</link>
					<fielddominance>upper</fielddominance>
					<itemhistory>
						<uuid>19AD2FDE-D55E-4AD1-82F9-C23B6EEA0668</uuid>
					</itemhistory>
				</clipitem>
				<clipitem id="525_1787_01 ">
					<name>525_1787_01</name>
					<duration>450</duration>
					<rate>
						<ntsc>FALSE</ntsc>
						<timebase>25</timebase>
					</rate>
					<in>256</in>
					<out>387</out>
					<start>1615</start>
					<end>1746</end>
					<pixelaspectratio>Square</pixelaspectratio>
					<enabled>TRUE</enabled>
					<anamorphic>FALSE</anamorphic>
					<alphatype>none</alphatype>
					<masterclipid>525_1787_01 1</masterclipid>
					<logginginfo>
						<scene/>
						<shottake/>
						<lognote/>
						<good>FALSE</good>
					</logginginfo>
					<labels>
						<label2/>
					</labels>
					<comments>
						<mastercomment1/>
						<mastercomment2/>
						<mastercomment3/>
						<mastercomment4/>
					</comments>
					<file id="525_1787_01 2">
						<name>525_1787_01.mov</name>
						<pathurl>file://localhost/Volumes/Askepott/Prosjekter/DNPR637010_Kra%CC%8Akeklubben_TEM_011212/Video/MELLOMSTIKK/S01E%20Spor%20i%20sn%C3%B8en/EX-3/525_1787_01.mov</pathurl>
						<rate>
							<timebase>25</timebase>
						</rate>
						<duration>450</duration>
						<metadata>
							<storage>QuickTime</storage>
							<key>com.sony.bprl.xdcamtransfer.version</key>
							<size>10</size>
							<type>UTF8</type>
							<value>2.12.0.631</value>
						</metadata>
						<metadata>
							<storage>QuickTime</storage>
							<key>org.smpte.mxf.package.material.packageid</key>
							<size>66</size>
							<type>UTF8</type>
							<value>0x060a2b340101010501010d431300000020b5c97c785905d908004602022f05f5</value>
						</metadata>
						<metadata>
							<storage>QuickTime</storage>
							<key>com.sony.professionaldisc.nonrealtimemeta.lastupdate</key>
							<size>25</size>
							<type>UTF8</type>
							<value>2012-02-21 12:42:14 +0100</value>
						</metadata>
						<metadata>
							<storage>QuickTime</storage>
							<key>com.sony.bprl.mxf.umid</key>
							<size>64</size>
							<type>UTF8</type>
							<value>060a2b340101010501010d431300000020b5c97c785905d908004602022f05f5</value>
						</metadata>
						<metadata>
							<storage>QuickTime</storage>
							<key>com.sony.bprl.mxf.nrtmetadata</key>
							<size>2008</size>
							<type>UTF8</type>
							<value>&lt;?xml version="1.0" encoding="UTF-8" standalone="yes"?>&lt;NonRealTimeMeta xmlns="urn:schemas-professionalDisc:nonRealTimeMeta:ver.1.20" xmlns:lib="urn:schemas-professionalDisc:lib:ver.1.20" xmlns:xsi="http://www.w3.org/2001/XMLSchema-instance" lastUpdate="2012-02-21T12:42:14+01:00">&lt;TargetMaterial umidRef="060A2B340101010501010D431300000020B5C97C785905D908004602022F05F5">&lt;/TargetMaterial>&lt;Duration value="450">&lt;/Duration>&lt;LtcChangeTable tcFps="25" halfStep="false">&lt;LtcChange frameCount="0" value="05423922" status="increment">&lt;/LtcChange>&lt;LtcChange frameCount="449" value="04004022" status="end">&lt;/LtcChange>&lt;/LtcChangeTable>&lt;CreationDate value="2012-02-21T12:41:55+01:00">&lt;/CreationDate>&lt;TypicalUbit value="0000000000000000">&lt;/TypicalUbit>&lt;BodyUmidBasicChangeTable>&lt;BodyUmidBasicChange frameCount="0" value="060A2B340101010501010D433300000020B5C97C785905D908004602022F05F5" status="start">&lt;/BodyUmidBasicChange>&lt;/BodyUmidBasicChangeTable>&lt;BodyUmidWhenChangeTable>&lt;BodyUmidWhenChange frameCount="0" value="843A0404785905A5" status="increment">&lt;/BodyUmidWhenChange>&lt;BodyUmidWhenChange frameCount="449" value="C4AA0404785905A5" status="end">&lt;/BodyUmidWhenChange>&lt;/BodyUmidWhenChangeTable>&lt;KlvPacketTable>&lt;KlvPacket key="060E2B34010101050301020A02000000" frameCount="0" lengthValue="095F5265635374617274" status="spot">&lt;/KlvPacket>&lt;/KlvPacketTable>&lt;VideoFormat>&lt;VideoRecPort port="DIRECT">&lt;/VideoRecPort>&lt;VideoFrame videoCodec="MPEG2HD35_1920_1080_MP@HL" captureFps="50.00i" recFps="50.00" formatFps="50i">&lt;/VideoFrame>&lt;VideoLayout pixel="1920" numOfVerticalLine="1080" aspectRatio="16:9">&lt;/VideoLayout>&lt;/VideoFormat>&lt;AudioFormat numOfChannel="2">&lt;AudioRecPort port="ANALOG" audioCodec="LPCM16" trackDst="CH1">&lt;/AudioRecPort>&lt;AudioRecPort port="ANALOG" audioCodec="LPCM16" trackDst="CH2">&lt;/AudioRecPort>&lt;/AudioFormat>&lt;Device manufacturer="Sony" modelName="PMW-EX3" serialNo="0401525">&lt;/Device>&lt;Lens modelName="VCL-614B2X">&lt;/Lens>&lt;RecordingMode type="normal" cacheRec="false">&lt;/RecordingMode>&lt;/NonRealTimeMeta>
							</value>
						</metadata>
						<metadata>
							<storage>QuickTime</storage>
							<key>com.apple.proapps.reel</key>
							<size>8</size>
							<type>UTF8</type>
							<value>Untitled</value>
						</metadata>
						<metadata>
							<storage>QuickTime</storage>
							<key>com.apple.proapps.clipID</key>
							<size>64</size>
							<type>UTF8</type>
							<value>060A2B340101010501010D431300000020B5C97C785905D908004602022F05F5</value>
						</metadata>
						<metadata>
							<storage>QuickTime</storage>
							<key>com.apple.quicktime.information</key>
							<size>64</size>
							<type>UTF8</type>
							<value>060a2b340101010501010d431300000020b5c97c785905d908004602022f05f5</value>
						</metadata>
						<metadata>
							<storage>QuickTime</storage>
							<key>com.apple.proapps.originalFormat</key>
							<size>36</size>
							<type>UTF8</type>
							<value>Apple XDCAM EX 1080i50 (35 Mb/s VBR)</value>
						</metadata>
						<timecode>
							<rate>
								<timebase>25</timebase>
							</rate>
							<string>22:39:42:05</string>
							<frame>2039555</frame>
							<displayformat>NDF</displayformat>
							<source>source</source>
							<reel>
								<name>Untitled</name>
							</reel>
						</timecode>
						<media>
							<video>
								<duration>450</duration>
								<samplecharacteristics>
									<width>1920</width>
									<height>1080</height>
								</samplecharacteristics>
							</video>
							<audio>
								<samplecharacteristics>
									<samplerate>48000</samplerate>
									<depth>16</depth>
								</samplecharacteristics>
								<channelcount>1</channelcount>
								<layout>mono</layout>
								<audiochannel>
									<sourcechannel>1</sourcechannel>
									<channellabel>discrete</channellabel>
								</audiochannel>
							</audio>
							<audio>
								<samplecharacteristics>
									<samplerate>48000</samplerate>
									<depth>16</depth>
								</samplecharacteristics>
								<channelcount>1</channelcount>
								<layout>mono</layout>
								<audiochannel>
									<sourcechannel>2</sourcechannel>
									<channellabel>discrete</channellabel>
								</audiochannel>
							</audio>
						</media>
					</file>
					<sourcetrack>
						<mediatype>video</mediatype>
					</sourcetrack>
					<link>
						<linkclipref>525_1787_01 </linkclipref>
						<mediatype>video</mediatype>
						<trackindex>1</trackindex>
						<clipindex>11</clipindex>
					</link>
					<link>
						<linkclipref>525_1787_01 3</linkclipref>
						<mediatype>audio</mediatype>
						<trackindex>1</trackindex>
						<clipindex>8</clipindex>
					</link>
					<link>
						<linkclipref>525_1787_01 4</linkclipref>
						<mediatype>audio</mediatype>
						<trackindex>2</trackindex>
						<clipindex>8</clipindex>
					</link>
					<fielddominance>upper</fielddominance>
					<itemhistory>
						<uuid>1385EB21-C36B-47FF-9764-A2DA8038EBAC</uuid>
					</itemhistory>
				</clipitem>
				<clipitem id="525_1797_01 ">
					<name>525_1797_01</name>
					<duration>3463</duration>
					<rate>
						<ntsc>FALSE</ntsc>
						<timebase>25</timebase>
					</rate>
					<in>34</in>
					<out>138</out>
					<start>1746</start>
					<end>1850</end>
					<pixelaspectratio>Square</pixelaspectratio>
					<enabled>TRUE</enabled>
					<anamorphic>FALSE</anamorphic>
					<alphatype>none</alphatype>
					<masterclipid>525_1797_01 1</masterclipid>
					<logginginfo>
						<scene/>
						<shottake/>
						<lognote/>
						<good>FALSE</good>
					</logginginfo>
					<labels>
						<label2/>
					</labels>
					<comments>
						<mastercomment1/>
						<mastercomment2/>
						<mastercomment3/>
						<mastercomment4/>
					</comments>
					<file id="525_1797_01 2">
						<name>525_1797_01.mov</name>
						<pathurl>file://localhost/Volumes/Askepott/Prosjekter/DNPR637010_Kra%CC%8Akeklubben_TEM_011212/Video/MELLOMSTIKK/S01E%20Spor%20i%20sn%C3%B8en/EX-3/525_1797_01.mov</pathurl>
						<rate>
							<timebase>25</timebase>
						</rate>
						<duration>3463</duration>
						<metadata>
							<storage>QuickTime</storage>
							<key>com.sony.bprl.xdcamtransfer.version</key>
							<size>10</size>
							<type>UTF8</type>
							<value>2.12.0.631</value>
						</metadata>
						<metadata>
							<storage>QuickTime</storage>
							<key>org.smpte.mxf.package.material.packageid</key>
							<size>66</size>
							<type>UTF8</type>
							<value>0x060a2b340101010501010d431300000083371182785905df08004602022f05f5</value>
						</metadata>
						<metadata>
							<storage>QuickTime</storage>
							<key>com.sony.professionaldisc.nonrealtimemeta.lastupdate</key>
							<size>25</size>
							<type>UTF8</type>
							<value>2012-02-21 13:13:57 +0100</value>
						</metadata>
						<metadata>
							<storage>QuickTime</storage>
							<key>com.sony.bprl.mxf.umid</key>
							<size>64</size>
							<type>UTF8</type>
							<value>060a2b340101010501010d431300000083371182785905df08004602022f05f5</value>
						</metadata>
						<metadata>
							<storage>QuickTime</storage>
							<key>com.sony.bprl.mxf.nrtmetadata</key>
							<size>2011</size>
							<type>UTF8</type>
							<value>&lt;?xml version="1.0" encoding="UTF-8" standalone="yes"?>&lt;NonRealTimeMeta xmlns="urn:schemas-professionalDisc:nonRealTimeMeta:ver.1.20" xmlns:lib="urn:schemas-professionalDisc:lib:ver.1.20" xmlns:xsi="http://www.w3.org/2001/XMLSchema-instance" lastUpdate="2012-02-21T13:13:57+01:00">&lt;TargetMaterial umidRef="060A2B340101010501010D431300000083371182785905DF08004602022F05F5">&lt;/TargetMaterial>&lt;Duration value="3463">&lt;/Duration>&lt;LtcChangeTable tcFps="25" halfStep="false">&lt;LtcChange frameCount="0" value="18104622" status="increment">&lt;/LtcChange>&lt;LtcChange frameCount="3462" value="05294822" status="end">&lt;/LtcChange>&lt;/LtcChangeTable>&lt;CreationDate value="2012-02-21T13:11:37+01:00">&lt;/CreationDate>&lt;TypicalUbit value="0000000000000000">&lt;/TypicalUbit>&lt;BodyUmidBasicChangeTable>&lt;BodyUmidBasicChange frameCount="0" value="060A2B340101010501010D433300000083371182785905DF08004602022F05F5" status="start">&lt;/BodyUmidBasicChange>&lt;/BodyUmidBasicChangeTable>&lt;BodyUmidWhenChangeTable>&lt;BodyUmidWhenChange frameCount="0" value="04BB2F04785905A5" status="increment">&lt;/BodyUmidWhenChange>&lt;BodyUmidWhenChange frameCount="3462" value="841C3304785905A5" status="end">&lt;/BodyUmidWhenChange>&lt;/BodyUmidWhenChangeTable>&lt;KlvPacketTable>&lt;KlvPacket key="060E2B34010101050301020A02000000" frameCount="0" lengthValue="095F5265635374617274" status="spot">&lt;/KlvPacket>&lt;/KlvPacketTable>&lt;VideoFormat>&lt;VideoRecPort port="DIRECT">&lt;/VideoRecPort>&lt;VideoFrame videoCodec="MPEG2HD35_1920_1080_MP@HL" captureFps="50.00i" recFps="50.00" formatFps="50i">&lt;/VideoFrame>&lt;VideoLayout pixel="1920" numOfVerticalLine="1080" aspectRatio="16:9">&lt;/VideoLayout>&lt;/VideoFormat>&lt;AudioFormat numOfChannel="2">&lt;AudioRecPort port="ANALOG" audioCodec="LPCM16" trackDst="CH1">&lt;/AudioRecPort>&lt;AudioRecPort port="ANALOG" audioCodec="LPCM16" trackDst="CH2">&lt;/AudioRecPort>&lt;/AudioFormat>&lt;Device manufacturer="Sony" modelName="PMW-EX3" serialNo="0401525">&lt;/Device>&lt;Lens modelName="VCL-614B2X">&lt;/Lens>&lt;RecordingMode type="normal" cacheRec="false">&lt;/RecordingMode>&lt;/NonRealTimeMeta>
							</value>
						</metadata>
						<metadata>
							<storage>QuickTime</storage>
							<key>com.apple.proapps.reel</key>
							<size>8</size>
							<type>UTF8</type>
							<value>Untitled</value>
						</metadata>
						<metadata>
							<storage>QuickTime</storage>
							<key>com.apple.proapps.clipID</key>
							<size>64</size>
							<type>UTF8</type>
							<value>060A2B340101010501010D431300000083371182785905DF08004602022F05F5</value>
						</metadata>
						<metadata>
							<storage>QuickTime</storage>
							<key>com.apple.quicktime.information</key>
							<size>64</size>
							<type>UTF8</type>
							<value>060a2b340101010501010d431300000083371182785905df08004602022f05f5</value>
						</metadata>
						<metadata>
							<storage>QuickTime</storage>
							<key>com.apple.proapps.originalFormat</key>
							<size>36</size>
							<type>UTF8</type>
							<value>Apple XDCAM EX 1080i50 (35 Mb/s VBR)</value>
						</metadata>
						<timecode>
							<rate>
								<timebase>25</timebase>
							</rate>
							<string>22:46:10:18</string>
							<frame>2049268</frame>
							<displayformat>NDF</displayformat>
							<source>source</source>
							<reel>
								<name>Untitled</name>
							</reel>
						</timecode>
						<media>
							<video>
								<duration>3463</duration>
								<samplecharacteristics>
									<width>1920</width>
									<height>1080</height>
								</samplecharacteristics>
							</video>
							<audio>
								<samplecharacteristics>
									<samplerate>48000</samplerate>
									<depth>16</depth>
								</samplecharacteristics>
								<channelcount>1</channelcount>
								<layout>mono</layout>
								<audiochannel>
									<sourcechannel>1</sourcechannel>
									<channellabel>discrete</channellabel>
								</audiochannel>
							</audio>
							<audio>
								<samplecharacteristics>
									<samplerate>48000</samplerate>
									<depth>16</depth>
								</samplecharacteristics>
								<channelcount>1</channelcount>
								<layout>mono</layout>
								<audiochannel>
									<sourcechannel>2</sourcechannel>
									<channellabel>discrete</channellabel>
								</audiochannel>
							</audio>
						</media>
					</file>
					<sourcetrack>
						<mediatype>video</mediatype>
					</sourcetrack>
					<link>
						<linkclipref>525_1797_01 </linkclipref>
						<mediatype>video</mediatype>
						<trackindex>1</trackindex>
						<clipindex>12</clipindex>
					</link>
					<link>
						<linkclipref>525_1797_01 3</linkclipref>
						<mediatype>audio</mediatype>
						<trackindex>1</trackindex>
						<clipindex>9</clipindex>
					</link>
					<link>
						<linkclipref>525_1797_01 4</linkclipref>
						<mediatype>audio</mediatype>
						<trackindex>2</trackindex>
						<clipindex>9</clipindex>
					</link>
					<fielddominance>upper</fielddominance>
					<itemhistory>
						<uuid>03F32980-160A-4246-8DFC-C00FE7881BE4</uuid>
					</itemhistory>
				</clipitem>
				<clipitem id="525_1790_01 ">
					<name>525_1790_01</name>
					<duration>1245</duration>
					<rate>
						<ntsc>FALSE</ntsc>
						<timebase>25</timebase>
					</rate>
					<in>199</in>
					<out>269</out>
					<start>1850</start>
					<end>1920</end>
					<pixelaspectratio>Square</pixelaspectratio>
					<enabled>TRUE</enabled>
					<anamorphic>FALSE</anamorphic>
					<alphatype>none</alphatype>
					<masterclipid>525_1790_01 1</masterclipid>
					<logginginfo>
						<scene/>
						<shottake/>
						<lognote/>
						<good>FALSE</good>
					</logginginfo>
					<labels>
						<label2/>
					</labels>
					<comments>
						<mastercomment1/>
						<mastercomment2/>
						<mastercomment3/>
						<mastercomment4/>
					</comments>
					<file id="525_1790_01 2">
						<name>525_1790_01.mov</name>
						<pathurl>file://localhost/Volumes/Askepott/Prosjekter/DNPR637010_Kra%CC%8Akeklubben_TEM_011212/Video/MELLOMSTIKK/S01E%20Spor%20i%20sn%C3%B8en/EX-3/525_1790_01.mov</pathurl>
						<rate>
							<timebase>25</timebase>
						</rate>
						<duration>1245</duration>
						<metadata>
							<storage>QuickTime</storage>
							<key>com.sony.bprl.xdcamtransfer.version</key>
							<size>10</size>
							<type>UTF8</type>
							<value>2.12.0.631</value>
						</metadata>
						<metadata>
							<storage>QuickTime</storage>
							<key>org.smpte.mxf.package.material.packageid</key>
							<size>66</size>
							<type>UTF8</type>
							<value>0x060a2b340101010501010d4313000000cbe1947e785905cf08004602022f05f5</value>
						</metadata>
						<metadata>
							<storage>QuickTime</storage>
							<key>com.sony.professionaldisc.nonrealtimemeta.lastupdate</key>
							<size>25</size>
							<type>UTF8</type>
							<value>2012-02-21 12:52:51 +0100</value>
						</metadata>
						<metadata>
							<storage>QuickTime</storage>
							<key>com.sony.bprl.mxf.umid</key>
							<size>64</size>
							<type>UTF8</type>
							<value>060a2b340101010501010d4313000000cbe1947e785905cf08004602022f05f5</value>
						</metadata>
						<metadata>
							<storage>QuickTime</storage>
							<key>com.sony.bprl.mxf.nrtmetadata</key>
							<size>2011</size>
							<type>UTF8</type>
							<value>&lt;?xml version="1.0" encoding="UTF-8" standalone="yes"?>&lt;NonRealTimeMeta xmlns="urn:schemas-professionalDisc:nonRealTimeMeta:ver.1.20" xmlns:lib="urn:schemas-professionalDisc:lib:ver.1.20" xmlns:xsi="http://www.w3.org/2001/XMLSchema-instance" lastUpdate="2012-02-21T12:52:51+01:00">&lt;TargetMaterial umidRef="060A2B340101010501010D4313000000CBE1947E785905CF08004602022F05F5">&lt;/TargetMaterial>&lt;Duration value="1245">&lt;/Duration>&lt;LtcChangeTable tcFps="25" halfStep="false">&lt;LtcChange frameCount="0" value="00394022" status="increment">&lt;/LtcChange>&lt;LtcChange frameCount="1244" value="19284122" status="end">&lt;/LtcChange>&lt;/LtcChangeTable>&lt;CreationDate value="2012-02-21T12:52:01+01:00">&lt;/CreationDate>&lt;TypicalUbit value="0000000000000000">&lt;/TypicalUbit>&lt;BodyUmidBasicChangeTable>&lt;BodyUmidBasicChange frameCount="0" value="060A2B340101010501010D4333000000CBE1947E785905CF08004602022F05F5" status="start">&lt;/BodyUmidBasicChange>&lt;/BodyUmidBasicChangeTable>&lt;BodyUmidWhenChangeTable>&lt;BodyUmidWhenChange frameCount="0" value="44021304785905A5" status="increment">&lt;/BodyUmidWhenChange>&lt;BodyUmidWhenChange frameCount="1244" value="44391404785905A5" status="end">&lt;/BodyUmidWhenChange>&lt;/BodyUmidWhenChangeTable>&lt;KlvPacketTable>&lt;KlvPacket key="060E2B34010101050301020A02000000" frameCount="0" lengthValue="095F5265635374617274" status="spot">&lt;/KlvPacket>&lt;/KlvPacketTable>&lt;VideoFormat>&lt;VideoRecPort port="DIRECT">&lt;/VideoRecPort>&lt;VideoFrame videoCodec="MPEG2HD35_1920_1080_MP@HL" captureFps="50.00i" recFps="50.00" formatFps="50i">&lt;/VideoFrame>&lt;VideoLayout pixel="1920" numOfVerticalLine="1080" aspectRatio="16:9">&lt;/VideoLayout>&lt;/VideoFormat>&lt;AudioFormat numOfChannel="2">&lt;AudioRecPort port="ANALOG" audioCodec="LPCM16" trackDst="CH1">&lt;/AudioRecPort>&lt;AudioRecPort port="ANALOG" audioCodec="LPCM16" trackDst="CH2">&lt;/AudioRecPort>&lt;/AudioFormat>&lt;Device manufacturer="Sony" modelName="PMW-EX3" serialNo="0401525">&lt;/Device>&lt;Lens modelName="VCL-614B2X">&lt;/Lens>&lt;RecordingMode type="normal" cacheRec="false">&lt;/RecordingMode>&lt;/NonRealTimeMeta>
							</value>
						</metadata>
						<metadata>
							<storage>QuickTime</storage>
							<key>com.apple.proapps.reel</key>
							<size>8</size>
							<type>UTF8</type>
							<value>Untitled</value>
						</metadata>
						<metadata>
							<storage>QuickTime</storage>
							<key>com.apple.proapps.clipID</key>
							<size>64</size>
							<type>UTF8</type>
							<value>060A2B340101010501010D4313000000CBE1947E785905CF08004602022F05F5</value>
						</metadata>
						<metadata>
							<storage>QuickTime</storage>
							<key>com.apple.quicktime.information</key>
							<size>64</size>
							<type>UTF8</type>
							<value>060a2b340101010501010d4313000000cbe1947e785905cf08004602022f05f5</value>
						</metadata>
						<metadata>
							<storage>QuickTime</storage>
							<key>com.apple.proapps.originalFormat</key>
							<size>36</size>
							<type>UTF8</type>
							<value>Apple XDCAM EX 1080i50 (35 Mb/s VBR)</value>
						</metadata>
						<timecode>
							<rate>
								<timebase>25</timebase>
							</rate>
							<string>22:40:39:00</string>
							<frame>2040975</frame>
							<displayformat>NDF</displayformat>
							<source>source</source>
							<reel>
								<name>Untitled</name>
							</reel>
						</timecode>
						<media>
							<video>
								<duration>1245</duration>
								<samplecharacteristics>
									<width>1920</width>
									<height>1080</height>
								</samplecharacteristics>
							</video>
							<audio>
								<samplecharacteristics>
									<samplerate>48000</samplerate>
									<depth>16</depth>
								</samplecharacteristics>
								<channelcount>1</channelcount>
								<layout>mono</layout>
								<audiochannel>
									<sourcechannel>1</sourcechannel>
									<channellabel>discrete</channellabel>
								</audiochannel>
							</audio>
							<audio>
								<samplecharacteristics>
									<samplerate>48000</samplerate>
									<depth>16</depth>
								</samplecharacteristics>
								<channelcount>1</channelcount>
								<layout>mono</layout>
								<audiochannel>
									<sourcechannel>2</sourcechannel>
									<channellabel>discrete</channellabel>
								</audiochannel>
							</audio>
						</media>
					</file>
					<sourcetrack>
						<mediatype>video</mediatype>
					</sourcetrack>
					<link>
						<linkclipref>525_1790_01 </linkclipref>
						<mediatype>video</mediatype>
						<trackindex>1</trackindex>
						<clipindex>13</clipindex>
					</link>
					<link>
						<linkclipref>525_1790_01 3</linkclipref>
						<mediatype>audio</mediatype>
						<trackindex>1</trackindex>
						<clipindex>10</clipindex>
					</link>
					<link>
						<linkclipref>525_1790_01 4</linkclipref>
						<mediatype>audio</mediatype>
						<trackindex>2</trackindex>
						<clipindex>10</clipindex>
					</link>
					<fielddominance>upper</fielddominance>
					<itemhistory>
						<uuid>FE0B5A0C-0AE7-48DE-8D5E-92BD8CB871F1</uuid>
					</itemhistory>
				</clipitem>
				<clipitem id="525_1797_01 5">
					<name>525_1797_01</name>
					<duration>3463</duration>
					<rate>
						<ntsc>FALSE</ntsc>
						<timebase>25</timebase>
					</rate>
					<in>205</in>
					<out>290</out>
					<start>1920</start>
					<end>2005</end>
					<pixelaspectratio>Square</pixelaspectratio>
					<enabled>TRUE</enabled>
					<anamorphic>FALSE</anamorphic>
					<alphatype>none</alphatype>
					<masterclipid>525_1797_01 1</masterclipid>
					<logginginfo>
						<scene/>
						<shottake/>
						<lognote/>
						<good>FALSE</good>
					</logginginfo>
					<labels>
						<label2/>
					</labels>
					<comments>
						<mastercomment1/>
						<mastercomment2/>
						<mastercomment3/>
						<mastercomment4/>
					</comments>
					<file id="525_1797_01 2"/>
					<sourcetrack>
						<mediatype>video</mediatype>
					</sourcetrack>
					<link>
						<linkclipref>525_1797_01 5</linkclipref>
						<mediatype>video</mediatype>
						<trackindex>1</trackindex>
						<clipindex>14</clipindex>
					</link>
					<link>
						<linkclipref>525_1797_01 6</linkclipref>
						<mediatype>audio</mediatype>
						<trackindex>1</trackindex>
						<clipindex>11</clipindex>
					</link>
					<link>
						<linkclipref>525_1797_01 7</linkclipref>
						<mediatype>audio</mediatype>
						<trackindex>2</trackindex>
						<clipindex>11</clipindex>
					</link>
					<fielddominance>upper</fielddominance>
					<itemhistory>
						<uuid>C9E9E6B1-DBF3-47CA-B180-EAACF36AB3E3</uuid>
					</itemhistory>
				</clipitem>
				<clipitem id="525_1791_01 ">
					<name>525_1791_01</name>
					<duration>3026</duration>
					<rate>
						<ntsc>FALSE</ntsc>
						<timebase>25</timebase>
					</rate>
					<in>664</in>
					<out>763</out>
					<start>2005</start>
					<end>2104</end>
					<pixelaspectratio>Square</pixelaspectratio>
					<enabled>TRUE</enabled>
					<anamorphic>FALSE</anamorphic>
					<alphatype>none</alphatype>
					<masterclipid>525_1791_01 1</masterclipid>
					<logginginfo>
						<scene/>
						<shottake/>
						<lognote/>
						<good>FALSE</good>
					</logginginfo>
					<labels>
						<label2/>
					</labels>
					<comments>
						<mastercomment1/>
						<mastercomment2/>
						<mastercomment3/>
						<mastercomment4/>
					</comments>
					<file id="525_1791_01 2">
						<name>525_1791_01.mov</name>
						<pathurl>file://localhost/Volumes/Askepott/Prosjekter/DNPR637010_Kra%CC%8Akeklubben_TEM_011212/Video/MELLOMSTIKK/S01E%20Spor%20i%20sn%C3%B8en/EX-3/525_1791_01.mov</pathurl>
						<rate>
							<timebase>25</timebase>
						</rate>
						<duration>3026</duration>
						<metadata>
							<storage>QuickTime</storage>
							<key>com.sony.bprl.xdcamtransfer.version</key>
							<size>10</size>
							<type>UTF8</type>
							<value>2.12.0.631</value>
						</metadata>
						<metadata>
							<storage>QuickTime</storage>
							<key>org.smpte.mxf.package.material.packageid</key>
							<size>66</size>
							<type>UTF8</type>
							<value>0x060a2b340101010501010d43130000003967f67e785905dd08004602022f05f5</value>
						</metadata>
						<metadata>
							<storage>QuickTime</storage>
							<key>com.sony.professionaldisc.nonrealtimemeta.lastupdate</key>
							<size>25</size>
							<type>UTF8</type>
							<value>2012-02-21 12:56:11 +0100</value>
						</metadata>
						<metadata>
							<storage>QuickTime</storage>
							<key>com.sony.bprl.mxf.umid</key>
							<size>64</size>
							<type>UTF8</type>
							<value>060a2b340101010501010d43130000003967f67e785905dd08004602022f05f5</value>
						</metadata>
						<metadata>
							<storage>QuickTime</storage>
							<key>com.sony.bprl.mxf.nrtmetadata</key>
							<size>2011</size>
							<type>UTF8</type>
							<value>&lt;?xml version="1.0" encoding="UTF-8" standalone="yes"?>&lt;NonRealTimeMeta xmlns="urn:schemas-professionalDisc:nonRealTimeMeta:ver.1.20" xmlns:lib="urn:schemas-professionalDisc:lib:ver.1.20" xmlns:xsi="http://www.w3.org/2001/XMLSchema-instance" lastUpdate="2012-02-21T12:56:11+01:00">&lt;TargetMaterial umidRef="060A2B340101010501010D43130000003967F67E785905DD08004602022F05F5">&lt;/TargetMaterial>&lt;Duration value="3026">&lt;/Duration>&lt;LtcChangeTable tcFps="25" halfStep="false">&lt;LtcChange frameCount="0" value="20284122" status="increment">&lt;/LtcChange>&lt;LtcChange frameCount="3025" value="20294322" status="end">&lt;/LtcChange>&lt;/LtcChangeTable>&lt;CreationDate value="2012-02-21T12:54:09+01:00">&lt;/CreationDate>&lt;TypicalUbit value="0000000000000000">&lt;/TypicalUbit>&lt;BodyUmidBasicChangeTable>&lt;BodyUmidBasicChange frameCount="0" value="060A2B340101010501010D43330000003967F67E785905DD08004602022F05F5" status="start">&lt;/BodyUmidBasicChange>&lt;/BodyUmidBasicChangeTable>&lt;BodyUmidWhenChangeTable>&lt;BodyUmidWhenChange frameCount="0" value="C4251604785905A5" status="increment">&lt;/BodyUmidWhenChange>&lt;BodyUmidWhenChange frameCount="3025" value="041A1904785905A5" status="end">&lt;/BodyUmidWhenChange>&lt;/BodyUmidWhenChangeTable>&lt;KlvPacketTable>&lt;KlvPacket key="060E2B34010101050301020A02000000" frameCount="0" lengthValue="095F5265635374617274" status="spot">&lt;/KlvPacket>&lt;/KlvPacketTable>&lt;VideoFormat>&lt;VideoRecPort port="DIRECT">&lt;/VideoRecPort>&lt;VideoFrame videoCodec="MPEG2HD35_1920_1080_MP@HL" captureFps="50.00i" recFps="50.00" formatFps="50i">&lt;/VideoFrame>&lt;VideoLayout pixel="1920" numOfVerticalLine="1080" aspectRatio="16:9">&lt;/VideoLayout>&lt;/VideoFormat>&lt;AudioFormat numOfChannel="2">&lt;AudioRecPort port="ANALOG" audioCodec="LPCM16" trackDst="CH1">&lt;/AudioRecPort>&lt;AudioRecPort port="ANALOG" audioCodec="LPCM16" trackDst="CH2">&lt;/AudioRecPort>&lt;/AudioFormat>&lt;Device manufacturer="Sony" modelName="PMW-EX3" serialNo="0401525">&lt;/Device>&lt;Lens modelName="VCL-614B2X">&lt;/Lens>&lt;RecordingMode type="normal" cacheRec="false">&lt;/RecordingMode>&lt;/NonRealTimeMeta>
							</value>
						</metadata>
						<metadata>
							<storage>QuickTime</storage>
							<key>com.apple.proapps.reel</key>
							<size>8</size>
							<type>UTF8</type>
							<value>Untitled</value>
						</metadata>
						<metadata>
							<storage>QuickTime</storage>
							<key>com.apple.proapps.clipID</key>
							<size>64</size>
							<type>UTF8</type>
							<value>060A2B340101010501010D43130000003967F67E785905DD08004602022F05F5</value>
						</metadata>
						<metadata>
							<storage>QuickTime</storage>
							<key>com.apple.quicktime.information</key>
							<size>64</size>
							<type>UTF8</type>
							<value>060a2b340101010501010d43130000003967f67e785905dd08004602022f05f5</value>
						</metadata>
						<metadata>
							<storage>QuickTime</storage>
							<key>com.apple.proapps.originalFormat</key>
							<size>36</size>
							<type>UTF8</type>
							<value>Apple XDCAM EX 1080i50 (35 Mb/s VBR)</value>
						</metadata>
						<timecode>
							<rate>
								<timebase>25</timebase>
							</rate>
							<string>22:41:28:20</string>
							<frame>2042220</frame>
							<displayformat>NDF</displayformat>
							<source>source</source>
							<reel>
								<name>Untitled</name>
							</reel>
						</timecode>
						<media>
							<video>
								<duration>3026</duration>
								<samplecharacteristics>
									<width>1920</width>
									<height>1080</height>
								</samplecharacteristics>
							</video>
							<audio>
								<samplecharacteristics>
									<samplerate>48000</samplerate>
									<depth>16</depth>
								</samplecharacteristics>
								<channelcount>1</channelcount>
								<layout>mono</layout>
								<audiochannel>
									<sourcechannel>1</sourcechannel>
									<channellabel>discrete</channellabel>
								</audiochannel>
							</audio>
							<audio>
								<samplecharacteristics>
									<samplerate>48000</samplerate>
									<depth>16</depth>
								</samplecharacteristics>
								<channelcount>1</channelcount>
								<layout>mono</layout>
								<audiochannel>
									<sourcechannel>2</sourcechannel>
									<channellabel>discrete</channellabel>
								</audiochannel>
							</audio>
						</media>
					</file>
					<sourcetrack>
						<mediatype>video</mediatype>
					</sourcetrack>
					<link>
						<linkclipref>525_1791_01 </linkclipref>
						<mediatype>video</mediatype>
						<trackindex>1</trackindex>
						<clipindex>15</clipindex>
					</link>
					<link>
						<linkclipref>525_1791_01 3</linkclipref>
						<mediatype>audio</mediatype>
						<trackindex>1</trackindex>
						<clipindex>12</clipindex>
					</link>
					<link>
						<linkclipref>525_1791_01 4</linkclipref>
						<mediatype>audio</mediatype>
						<trackindex>2</trackindex>
						<clipindex>12</clipindex>
					</link>
					<fielddominance>upper</fielddominance>
					<itemhistory>
						<uuid>9E68DDD6-A730-424E-AE92-B126EFEF7F99</uuid>
					</itemhistory>
				</clipitem>
				<clipitem id="525_1797_01 8">
					<name>525_1797_01</name>
					<duration>3463</duration>
					<rate>
						<ntsc>FALSE</ntsc>
						<timebase>25</timebase>
					</rate>
					<in>412</in>
					<out>432</out>
					<start>2104</start>
					<end>2124</end>
					<pixelaspectratio>Square</pixelaspectratio>
					<enabled>TRUE</enabled>
					<anamorphic>FALSE</anamorphic>
					<alphatype>none</alphatype>
					<masterclipid>525_1797_01 1</masterclipid>
					<logginginfo>
						<scene/>
						<shottake/>
						<lognote/>
						<good>FALSE</good>
					</logginginfo>
					<labels>
						<label2/>
					</labels>
					<comments>
						<mastercomment1/>
						<mastercomment2/>
						<mastercomment3/>
						<mastercomment4/>
					</comments>
					<file id="525_1797_01 2"/>
					<sourcetrack>
						<mediatype>video</mediatype>
					</sourcetrack>
					<link>
						<linkclipref>525_1797_01 8</linkclipref>
						<mediatype>video</mediatype>
						<trackindex>1</trackindex>
						<clipindex>16</clipindex>
					</link>
					<link>
						<linkclipref>525_1797_01 9</linkclipref>
						<mediatype>audio</mediatype>
						<trackindex>1</trackindex>
						<clipindex>13</clipindex>
					</link>
					<link>
						<linkclipref>525_1797_01 10</linkclipref>
						<mediatype>audio</mediatype>
						<trackindex>2</trackindex>
						<clipindex>13</clipindex>
					</link>
					<fielddominance>upper</fielddominance>
					<itemhistory>
						<uuid>917DC11E-CFB6-4F52-BD3B-E5E4383FB290</uuid>
					</itemhistory>
				</clipitem>
				<clipitem id="525_1803_01 ">
					<name>525_1803_01</name>
					<duration>3142</duration>
					<rate>
						<ntsc>FALSE</ntsc>
						<timebase>25</timebase>
					</rate>
					<in>472</in>
					<out>545</out>
					<start>2124</start>
					<end>2197</end>
					<pixelaspectratio>Square</pixelaspectratio>
					<enabled>TRUE</enabled>
					<anamorphic>FALSE</anamorphic>
					<alphatype>none</alphatype>
					<masterclipid>525_1803_01 1</masterclipid>
					<logginginfo>
						<scene/>
						<shottake/>
						<lognote/>
						<good>FALSE</good>
					</logginginfo>
					<labels>
						<label2/>
					</labels>
					<comments>
						<mastercomment1/>
						<mastercomment2/>
						<mastercomment3/>
						<mastercomment4/>
					</comments>
					<file id="525_1803_01 2">
						<name>525_1803_01.mov</name>
						<pathurl>file://localhost/Volumes/Askepott/Prosjekter/DNPR637010_Kra%CC%8Akeklubben_TEM_011212/Video/MELLOMSTIKK/S01E%20Spor%20i%20sn%C3%B8en/EX-3/525_1803_01.mov</pathurl>
						<rate>
							<timebase>25</timebase>
						</rate>
						<duration>3142</duration>
						<metadata>
							<storage>QuickTime</storage>
							<key>com.sony.bprl.xdcamtransfer.version</key>
							<size>10</size>
							<type>UTF8</type>
							<value>2.12.0.631</value>
						</metadata>
						<metadata>
							<storage>QuickTime</storage>
							<key>org.smpte.mxf.package.material.packageid</key>
							<size>66</size>
							<type>UTF8</type>
							<value>0x060a2b340101010501010d43130000004ea5b484785905d508004602022f05f5</value>
						</metadata>
						<metadata>
							<storage>QuickTime</storage>
							<key>com.sony.professionaldisc.nonrealtimemeta.lastupdate</key>
							<size>25</size>
							<type>UTF8</type>
							<value>2012-02-21 13:28:34 +0100</value>
						</metadata>
						<metadata>
							<storage>QuickTime</storage>
							<key>com.sony.bprl.mxf.umid</key>
							<size>64</size>
							<type>UTF8</type>
							<value>060a2b340101010501010d43130000004ea5b484785905d508004602022f05f5</value>
						</metadata>
						<metadata>
							<storage>QuickTime</storage>
							<key>com.sony.bprl.mxf.nrtmetadata</key>
							<size>2011</size>
							<type>UTF8</type>
							<value>&lt;?xml version="1.0" encoding="UTF-8" standalone="yes"?>&lt;NonRealTimeMeta xmlns="urn:schemas-professionalDisc:nonRealTimeMeta:ver.1.20" xmlns:lib="urn:schemas-professionalDisc:lib:ver.1.20" xmlns:xsi="http://www.w3.org/2001/XMLSchema-instance" lastUpdate="2012-02-21T13:28:34+01:00">&lt;TargetMaterial umidRef="060A2B340101010501010D43130000004EA5B484785905D508004602022F05F5">&lt;/TargetMaterial>&lt;Duration value="3142">&lt;/Duration>&lt;LtcChangeTable tcFps="25" halfStep="false">&lt;LtcChange frameCount="0" value="14515122" status="increment">&lt;/LtcChange>&lt;LtcChange frameCount="3141" value="05575322" status="end">&lt;/LtcChange>&lt;/LtcChangeTable>&lt;CreationDate value="2012-02-21T13:26:28+01:00">&lt;/CreationDate>&lt;TypicalUbit value="0000000000000000">&lt;/TypicalUbit>&lt;BodyUmidBasicChangeTable>&lt;BodyUmidBasicChange frameCount="0" value="060A2B340101010501010D43330000004EA5B484785905D508004602022F05F5" status="start">&lt;/BodyUmidBasicChange>&lt;/BodyUmidBasicChangeTable>&lt;BodyUmidWhenChangeTable>&lt;BodyUmidWhenChange frameCount="0" value="84784504785905A5" status="increment">&lt;/BodyUmidWhenChange>&lt;BodyUmidWhenChange frameCount="3141" value="C4894804785905A5" status="end">&lt;/BodyUmidWhenChange>&lt;/BodyUmidWhenChangeTable>&lt;KlvPacketTable>&lt;KlvPacket key="060E2B34010101050301020A02000000" frameCount="0" lengthValue="095F5265635374617274" status="spot">&lt;/KlvPacket>&lt;/KlvPacketTable>&lt;VideoFormat>&lt;VideoRecPort port="DIRECT">&lt;/VideoRecPort>&lt;VideoFrame videoCodec="MPEG2HD35_1920_1080_MP@HL" captureFps="50.00i" recFps="50.00" formatFps="50i">&lt;/VideoFrame>&lt;VideoLayout pixel="1920" numOfVerticalLine="1080" aspectRatio="16:9">&lt;/VideoLayout>&lt;/VideoFormat>&lt;AudioFormat numOfChannel="2">&lt;AudioRecPort port="ANALOG" audioCodec="LPCM16" trackDst="CH1">&lt;/AudioRecPort>&lt;AudioRecPort port="ANALOG" audioCodec="LPCM16" trackDst="CH2">&lt;/AudioRecPort>&lt;/AudioFormat>&lt;Device manufacturer="Sony" modelName="PMW-EX3" serialNo="0401525">&lt;/Device>&lt;Lens modelName="VCL-614B2X">&lt;/Lens>&lt;RecordingMode type="normal" cacheRec="false">&lt;/RecordingMode>&lt;/NonRealTimeMeta>
							</value>
						</metadata>
						<metadata>
							<storage>QuickTime</storage>
							<key>com.apple.proapps.reel</key>
							<size>8</size>
							<type>UTF8</type>
							<value>Untitled</value>
						</metadata>
						<metadata>
							<storage>QuickTime</storage>
							<key>com.apple.proapps.clipID</key>
							<size>64</size>
							<type>UTF8</type>
							<value>060A2B340101010501010D43130000004EA5B484785905D508004602022F05F5</value>
						</metadata>
						<metadata>
							<storage>QuickTime</storage>
							<key>com.apple.quicktime.information</key>
							<size>64</size>
							<type>UTF8</type>
							<value>060a2b340101010501010d43130000004ea5b484785905d508004602022f05f5</value>
						</metadata>
						<metadata>
							<storage>QuickTime</storage>
							<key>com.apple.proapps.originalFormat</key>
							<size>36</size>
							<type>UTF8</type>
							<value>Apple XDCAM EX 1080i50 (35 Mb/s VBR)</value>
						</metadata>
						<timecode>
							<rate>
								<timebase>25</timebase>
							</rate>
							<string>22:51:51:14</string>
							<frame>2057789</frame>
							<displayformat>NDF</displayformat>
							<source>source</source>
							<reel>
								<name>Untitled</name>
							</reel>
						</timecode>
						<media>
							<video>
								<duration>3142</duration>
								<samplecharacteristics>
									<width>1920</width>
									<height>1080</height>
								</samplecharacteristics>
							</video>
							<audio>
								<samplecharacteristics>
									<samplerate>48000</samplerate>
									<depth>16</depth>
								</samplecharacteristics>
								<channelcount>1</channelcount>
								<layout>mono</layout>
								<audiochannel>
									<sourcechannel>1</sourcechannel>
									<channellabel>discrete</channellabel>
								</audiochannel>
							</audio>
							<audio>
								<samplecharacteristics>
									<samplerate>48000</samplerate>
									<depth>16</depth>
								</samplecharacteristics>
								<channelcount>1</channelcount>
								<layout>mono</layout>
								<audiochannel>
									<sourcechannel>2</sourcechannel>
									<channellabel>discrete</channellabel>
								</audiochannel>
							</audio>
						</media>
					</file>
					<sourcetrack>
						<mediatype>video</mediatype>
					</sourcetrack>
					<link>
						<linkclipref>525_1803_01 </linkclipref>
						<mediatype>video</mediatype>
						<trackindex>1</trackindex>
						<clipindex>17</clipindex>
					</link>
					<link>
						<linkclipref>525_1803_01 3</linkclipref>
						<mediatype>audio</mediatype>
						<trackindex>1</trackindex>
						<clipindex>14</clipindex>
					</link>
					<link>
						<linkclipref>525_1803_01 4</linkclipref>
						<mediatype>audio</mediatype>
						<trackindex>2</trackindex>
						<clipindex>14</clipindex>
					</link>
					<fielddominance>upper</fielddominance>
					<itemhistory>
						<uuid>2E8141B6-9DD2-4A4F-99A9-47037F76CAD4</uuid>
					</itemhistory>
				</clipitem>
				<clipitem id="525_1797_01 11">
					<name>525_1797_01</name>
					<duration>3463</duration>
					<rate>
						<ntsc>FALSE</ntsc>
						<timebase>25</timebase>
					</rate>
					<in>512</in>
					<out>689</out>
					<start>2197</start>
					<end>2374</end>
					<pixelaspectratio>Square</pixelaspectratio>
					<enabled>TRUE</enabled>
					<anamorphic>FALSE</anamorphic>
					<alphatype>none</alphatype>
					<masterclipid>525_1797_01 1</masterclipid>
					<logginginfo>
						<scene/>
						<shottake/>
						<lognote/>
						<good>FALSE</good>
					</logginginfo>
					<labels>
						<label2/>
					</labels>
					<comments>
						<mastercomment1/>
						<mastercomment2/>
						<mastercomment3/>
						<mastercomment4/>
					</comments>
					<file id="525_1797_01 2"/>
					<sourcetrack>
						<mediatype>video</mediatype>
					</sourcetrack>
					<link>
						<linkclipref>525_1797_01 11</linkclipref>
						<mediatype>video</mediatype>
						<trackindex>1</trackindex>
						<clipindex>18</clipindex>
					</link>
					<link>
						<linkclipref>525_1797_01 12</linkclipref>
						<mediatype>audio</mediatype>
						<trackindex>1</trackindex>
						<clipindex>15</clipindex>
					</link>
					<link>
						<linkclipref>525_1797_01 13</linkclipref>
						<mediatype>audio</mediatype>
						<trackindex>2</trackindex>
						<clipindex>15</clipindex>
					</link>
					<fielddominance>upper</fielddominance>
					<itemhistory>
						<uuid>E0F04BAD-4793-441B-A624-26671CE0DCED</uuid>
					</itemhistory>
				</clipitem>
				<clipitem id="525_1791_01 5">
					<name>525_1791_01</name>
					<duration>3026</duration>
					<rate>
						<ntsc>FALSE</ntsc>
						<timebase>25</timebase>
					</rate>
					<in>977</in>
					<out>1168</out>
					<start>2374</start>
					<end>2565</end>
					<pixelaspectratio>Square</pixelaspectratio>
					<enabled>TRUE</enabled>
					<anamorphic>FALSE</anamorphic>
					<alphatype>none</alphatype>
					<masterclipid>525_1791_01 1</masterclipid>
					<logginginfo>
						<scene/>
						<shottake/>
						<lognote/>
						<good>FALSE</good>
					</logginginfo>
					<labels>
						<label2/>
					</labels>
					<comments>
						<mastercomment1/>
						<mastercomment2/>
						<mastercomment3/>
						<mastercomment4/>
					</comments>
					<file id="525_1791_01 2"/>
					<sourcetrack>
						<mediatype>video</mediatype>
					</sourcetrack>
					<link>
						<linkclipref>525_1791_01 5</linkclipref>
						<mediatype>video</mediatype>
						<trackindex>1</trackindex>
						<clipindex>19</clipindex>
					</link>
					<link>
						<linkclipref>525_1791_01 6</linkclipref>
						<mediatype>audio</mediatype>
						<trackindex>1</trackindex>
						<clipindex>16</clipindex>
					</link>
					<link>
						<linkclipref>525_1791_01 7</linkclipref>
						<mediatype>audio</mediatype>
						<trackindex>2</trackindex>
						<clipindex>16</clipindex>
					</link>
					<fielddominance>upper</fielddominance>
					<itemhistory>
						<uuid>2890F8DD-A1BF-430D-A781-C98F18E43B4A</uuid>
					</itemhistory>
				</clipitem>
				<clipitem id="525_1797_01 14">
					<name>525_1797_01</name>
					<duration>3463</duration>
					<rate>
						<ntsc>FALSE</ntsc>
						<timebase>25</timebase>
					</rate>
					<in>834</in>
					<out>890</out>
					<start>2565</start>
					<end>2621</end>
					<pixelaspectratio>Square</pixelaspectratio>
					<enabled>TRUE</enabled>
					<anamorphic>FALSE</anamorphic>
					<alphatype>none</alphatype>
					<masterclipid>525_1797_01 1</masterclipid>
					<logginginfo>
						<scene/>
						<shottake/>
						<lognote/>
						<good>FALSE</good>
					</logginginfo>
					<labels>
						<label2/>
					</labels>
					<comments>
						<mastercomment1/>
						<mastercomment2/>
						<mastercomment3/>
						<mastercomment4/>
					</comments>
					<file id="525_1797_01 2"/>
					<sourcetrack>
						<mediatype>video</mediatype>
					</sourcetrack>
					<link>
						<linkclipref>525_1797_01 14</linkclipref>
						<mediatype>video</mediatype>
						<trackindex>1</trackindex>
						<clipindex>20</clipindex>
					</link>
					<link>
						<linkclipref>525_1797_01 15</linkclipref>
						<mediatype>audio</mediatype>
						<trackindex>1</trackindex>
						<clipindex>17</clipindex>
					</link>
					<link>
						<linkclipref>525_1797_01 16</linkclipref>
						<mediatype>audio</mediatype>
						<trackindex>2</trackindex>
						<clipindex>17</clipindex>
					</link>
					<fielddominance>upper</fielddominance>
					<itemhistory>
						<uuid>75770A64-E45A-4A1D-9099-A6CF0FB4BFFF</uuid>
					</itemhistory>
				</clipitem>
				<clipitem id="525_1791_01 8">
					<name>525_1791_01</name>
					<duration>3026</duration>
					<rate>
						<ntsc>FALSE</ntsc>
						<timebase>25</timebase>
					</rate>
					<in>1239</in>
					<out>1474</out>
					<start>2621</start>
					<end>2856</end>
					<pixelaspectratio>Square</pixelaspectratio>
					<enabled>TRUE</enabled>
					<anamorphic>FALSE</anamorphic>
					<alphatype>none</alphatype>
					<masterclipid>525_1791_01 1</masterclipid>
					<logginginfo>
						<scene/>
						<shottake/>
						<lognote/>
						<good>FALSE</good>
					</logginginfo>
					<labels>
						<label2/>
					</labels>
					<comments>
						<mastercomment1/>
						<mastercomment2/>
						<mastercomment3/>
						<mastercomment4/>
					</comments>
					<file id="525_1791_01 2"/>
					<sourcetrack>
						<mediatype>video</mediatype>
					</sourcetrack>
					<link>
						<linkclipref>525_1791_01 8</linkclipref>
						<mediatype>video</mediatype>
						<trackindex>1</trackindex>
						<clipindex>21</clipindex>
					</link>
					<link>
						<linkclipref>525_1791_01 9</linkclipref>
						<mediatype>audio</mediatype>
						<trackindex>1</trackindex>
						<clipindex>18</clipindex>
					</link>
					<link>
						<linkclipref>525_1791_01 10</linkclipref>
						<mediatype>audio</mediatype>
						<trackindex>2</trackindex>
						<clipindex>18</clipindex>
					</link>
					<fielddominance>upper</fielddominance>
					<itemhistory>
						<uuid>97D17A96-062D-450E-928A-B76742C3AFFF</uuid>
					</itemhistory>
				</clipitem>
				<clipitem id="S02E18 kassa AFX v2 ">
					<name>S02E18 kassa AFX v2</name>
					<duration>97</duration>
					<rate>
						<ntsc>FALSE</ntsc>
						<timebase>25</timebase>
					</rate>
					<in>0</in>
					<out>97</out>
					<start>2856</start>
					<end>-1</end>
					<pixelaspectratio>Square</pixelaspectratio>
					<enabled>TRUE</enabled>
					<anamorphic>FALSE</anamorphic>
					<alphatype>none</alphatype>
					<masterclipid>S02E18 kassa AFX v2 1</masterclipid>
					<logginginfo>
						<scene/>
						<shottake/>
						<lognote/>
						<good>FALSE</good>
					</logginginfo>
					<labels>
						<label2/>
					</labels>
					<comments>
						<mastercomment1/>
						<mastercomment2/>
						<mastercomment3/>
						<mastercomment4/>
					</comments>
					<file id="S02E18 kassa AFX v2 2">
						<name>S02E18 kassa AFX v2.mov</name>
						<pathurl>file://localhost/Volumes/Askepott/Prosjekter/DNPR637010_Kra%CC%8Akeklubben_TEM_011212/Eksport/S02E18/S02E18%20kassa%20AFX%20v2.mov</pathurl>
						<rate>
							<timebase>25</timebase>
						</rate>
						<duration>97</duration>
						<timecode>
							<rate>
								<timebase>25</timebase>
							</rate>
							<string>00:00:00:00</string>
							<frame>0</frame>
							<displayformat>NDF</displayformat>
							<source>source</source>
						</timecode>
						<media>
							<video>
								<duration>97</duration>
								<samplecharacteristics>
									<width>1920</width>
									<height>1080</height>
								</samplecharacteristics>
							</video>
						</media>
					</file>
					<filter>
						<effect>
							<name>Opacity</name>
							<effectid>opacity</effectid>
							<effectcategory>motion</effectcategory>
							<effecttype>motion</effecttype>
							<mediatype>video</mediatype>
							<parameter>
								<parameterid>opacity</parameterid>
								<name>opacity</name>
								<valuemin>0</valuemin>
								<valuemax>100</valuemax>
								<value>100</value>
							</parameter>
						</effect>
					</filter>
					<sourcetrack>
						<mediatype>video</mediatype>
					</sourcetrack>
					<fielddominance>upper</fielddominance>
					<itemhistory>
						<uuid>C98C6046-E3DF-40BB-A621-33AB3C38421D</uuid>
					</itemhistory>
				</clipitem>
				<transitionitem>
					<rate>
						<ntsc>FALSE</ntsc>
						<timebase>25</timebase>
					</rate>
					<start>2938</start>
					<end>2953</end>
					<alignment>center</alignment>
					<effect>
						<name>G Glow Dissolve</name>
						<effectcategory>Nattress Big Box Of Tricks</effectcategory>
						<effecttype>transition</effecttype>
						<mediatype>video</mediatype>
						<wipecode>0</wipecode>
						<wipeaccuracy>100</wipeaccuracy>
						<startratio>0</startratio>
						<endratio>1</endratio>
						<reverse>FALSE</reverse>
						<parameter>
							<parameterid>glowamount</parameterid>
							<name>Glow Amount</name>
							<valuemin>0</valuemin>
							<valuemax>100</valuemax>
							<value>75</value>
						</parameter>
						<parameter>
							<parameterid>glowthreshold</parameterid>
							<name>Glow Threshold Limit</name>
							<valuemin>0</valuemin>
							<valuemax>100</valuemax>
							<value>12</value>
						</parameter>
						<parameter>
							<parameterid>glowsize</parameterid>
							<name>Glow Size</name>
							<valuemin>0</valuemin>
							<valuemax>100</valuemax>
							<value>4</value>
						</parameter>
						<parameter>
							<parameterid>ablur</parameterid>
							<name>Blur</name>
							<valuemin>0</valuemin>
							<valuemax>100</valuemax>
							<value>4</value>
						</parameter>
						<parameter>
							<parameterid>asaturation</parameterid>
							<name>Saturation</name>
							<valuemin>-1</valuemin>
							<valuemax>4</valuemax>
							<value>0</value>
						</parameter>
						<parameter>
							<parameterid>dissolvep</parameterid>
							<name>Dissolve Percentage</name>
							<valuemin>5</valuemin>
							<valuemax>100</valuemax>
							<value>50</value>
						</parameter>
						<parameter>
							<parameterid>copyright</parameterid>
							<name>© www.nattress.com</name>
							<value>string</value>
						</parameter>
					</effect>
				</transitionitem>
				<clipitem id="525_1791_01 11">
					<name>525_1791_01</name>
					<duration>3026</duration>
					<rate>
						<ntsc>FALSE</ntsc>
						<timebase>25</timebase>
					</rate>
					<in>1482</in>
					<out>1580</out>
					<start>-1</start>
					<end>3036</end>
					<pixelaspectratio>Square</pixelaspectratio>
					<enabled>TRUE</enabled>
					<anamorphic>FALSE</anamorphic>
					<alphatype>none</alphatype>
					<masterclipid>525_1791_01 1</masterclipid>
					<logginginfo>
						<scene/>
						<shottake/>
						<lognote/>
						<good>FALSE</good>
					</logginginfo>
					<labels>
						<label2/>
					</labels>
					<comments>
						<mastercomment1/>
						<mastercomment2/>
						<mastercomment3/>
						<mastercomment4/>
					</comments>
					<file id="525_1791_01 2"/>
					<sourcetrack>
						<mediatype>video</mediatype>
					</sourcetrack>
					<link>
						<linkclipref>525_1791_01 11</linkclipref>
						<mediatype>video</mediatype>
						<trackindex>1</trackindex>
						<clipindex>24</clipindex>
					</link>
					<link>
						<linkclipref>525_1791_01 12</linkclipref>
						<mediatype>audio</mediatype>
						<trackindex>1</trackindex>
						<clipindex>19</clipindex>
					</link>
					<link>
						<linkclipref>525_1791_01 13</linkclipref>
						<mediatype>audio</mediatype>
						<trackindex>2</trackindex>
						<clipindex>19</clipindex>
					</link>
					<fielddominance>upper</fielddominance>
					<itemhistory>
						<uuid>87C124D1-73F5-462B-8690-D4EA47729D78</uuid>
					</itemhistory>
				</clipitem>
				<clipitem id="525_1806_01 ">
					<name>525_1806_01</name>
					<duration>876</duration>
					<rate>
						<ntsc>FALSE</ntsc>
						<timebase>25</timebase>
					</rate>
					<in>650</in>
					<out>693</out>
					<start>3036</start>
					<end>3079</end>
					<pixelaspectratio>Square</pixelaspectratio>
					<enabled>TRUE</enabled>
					<anamorphic>FALSE</anamorphic>
					<alphatype>none</alphatype>
					<masterclipid>525_1806_01 1</masterclipid>
					<logginginfo>
						<scene/>
						<shottake/>
						<lognote/>
						<good>FALSE</good>
					</logginginfo>
					<labels>
						<label2/>
					</labels>
					<comments>
						<mastercomment1/>
						<mastercomment2/>
						<mastercomment3/>
						<mastercomment4/>
					</comments>
					<file id="525_1806_01 2">
						<name>525_1806_01.mov</name>
						<pathurl>file://localhost/Volumes/Askepott/Prosjekter/DNPR637010_Kra%CC%8Akeklubben_TEM_011212/Video/MELLOMSTIKK/S01E%20Spor%20i%20sn%C3%B8en/EX-3/525_1806_01.mov</pathurl>
						<rate>
							<timebase>25</timebase>
						</rate>
						<duration>876</duration>
						<metadata>
							<storage>QuickTime</storage>
							<key>com.sony.bprl.xdcamtransfer.version</key>
							<size>10</size>
							<type>UTF8</type>
							<value>2.12.0.631</value>
						</metadata>
						<metadata>
							<storage>QuickTime</storage>
							<key>org.smpte.mxf.package.material.packageid</key>
							<size>66</size>
							<type>UTF8</type>
							<value>0x060a2b340101010501010d43130000008da58485785905df08004602022f05f5</value>
						</metadata>
						<metadata>
							<storage>QuickTime</storage>
							<key>com.sony.professionaldisc.nonrealtimemeta.lastupdate</key>
							<size>25</size>
							<type>UTF8</type>
							<value>2012-02-21 13:31:38 +0100</value>
						</metadata>
						<metadata>
							<storage>QuickTime</storage>
							<key>com.sony.bprl.mxf.umid</key>
							<size>64</size>
							<type>UTF8</type>
							<value>060a2b340101010501010d43130000008da58485785905df08004602022f05f5</value>
						</metadata>
						<metadata>
							<storage>QuickTime</storage>
							<key>com.sony.bprl.mxf.nrtmetadata</key>
							<size>2008</size>
							<type>UTF8</type>
							<value>&lt;?xml version="1.0" encoding="UTF-8" standalone="yes"?>&lt;NonRealTimeMeta xmlns="urn:schemas-professionalDisc:nonRealTimeMeta:ver.1.20" xmlns:lib="urn:schemas-professionalDisc:lib:ver.1.20" xmlns:xsi="http://www.w3.org/2001/XMLSchema-instance" lastUpdate="2012-02-21T13:31:38+01:00">&lt;TargetMaterial umidRef="060A2B340101010501010D43130000008DA58485785905DF08004602022F05F5">&lt;/TargetMaterial>&lt;Duration value="876">&lt;/Duration>&lt;LtcChangeTable tcFps="25" halfStep="false">&lt;LtcChange frameCount="0" value="21175422" status="increment">&lt;/LtcChange>&lt;LtcChange frameCount="875" value="21525422" status="end">&lt;/LtcChange>&lt;/LtcChangeTable>&lt;CreationDate value="2012-02-21T13:31:02+01:00">&lt;/CreationDate>&lt;TypicalUbit value="0000000000000000">&lt;/TypicalUbit>&lt;BodyUmidBasicChangeTable>&lt;BodyUmidBasicChange frameCount="0" value="060A2B340101010501010D43330000008DA58485785905DF08004602022F05F5" status="start">&lt;/BodyUmidBasicChange>&lt;/BodyUmidBasicChangeTable>&lt;BodyUmidWhenChangeTable>&lt;BodyUmidWhenChange frameCount="0" value="842A4C04785905A5" status="increment">&lt;/BodyUmidWhenChange>&lt;BodyUmidWhenChange frameCount="875" value="44054D04785905A5" status="end">&lt;/BodyUmidWhenChange>&lt;/BodyUmidWhenChangeTable>&lt;KlvPacketTable>&lt;KlvPacket key="060E2B34010101050301020A02000000" frameCount="0" lengthValue="095F5265635374617274" status="spot">&lt;/KlvPacket>&lt;/KlvPacketTable>&lt;VideoFormat>&lt;VideoRecPort port="DIRECT">&lt;/VideoRecPort>&lt;VideoFrame videoCodec="MPEG2HD35_1920_1080_MP@HL" captureFps="50.00i" recFps="50.00" formatFps="50i">&lt;/VideoFrame>&lt;VideoLayout pixel="1920" numOfVerticalLine="1080" aspectRatio="16:9">&lt;/VideoLayout>&lt;/VideoFormat>&lt;AudioFormat numOfChannel="2">&lt;AudioRecPort port="ANALOG" audioCodec="LPCM16" trackDst="CH1">&lt;/AudioRecPort>&lt;AudioRecPort port="ANALOG" audioCodec="LPCM16" trackDst="CH2">&lt;/AudioRecPort>&lt;/AudioFormat>&lt;Device manufacturer="Sony" modelName="PMW-EX3" serialNo="0401525">&lt;/Device>&lt;Lens modelName="VCL-614B2X">&lt;/Lens>&lt;RecordingMode type="normal" cacheRec="false">&lt;/RecordingMode>&lt;/NonRealTimeMeta>
							</value>
						</metadata>
						<metadata>
							<storage>QuickTime</storage>
							<key>com.apple.proapps.reel</key>
							<size>8</size>
							<type>UTF8</type>
							<value>Untitled</value>
						</metadata>
						<metadata>
							<storage>QuickTime</storage>
							<key>com.apple.proapps.clipID</key>
							<size>64</size>
							<type>UTF8</type>
							<value>060A2B340101010501010D43130000008DA58485785905DF08004602022F05F5</value>
						</metadata>
						<metadata>
							<storage>QuickTime</storage>
							<key>com.apple.quicktime.information</key>
							<size>64</size>
							<type>UTF8</type>
							<value>060a2b340101010501010d43130000008da58485785905df08004602022f05f5</value>
						</metadata>
						<metadata>
							<storage>QuickTime</storage>
							<key>com.apple.proapps.originalFormat</key>
							<size>36</size>
							<type>UTF8</type>
							<value>Apple XDCAM EX 1080i50 (35 Mb/s VBR)</value>
						</metadata>
						<timecode>
							<rate>
								<timebase>25</timebase>
							</rate>
							<string>22:54:17:21</string>
							<frame>2061446</frame>
							<displayformat>NDF</displayformat>
							<source>source</source>
							<reel>
								<name>Untitled</name>
							</reel>
						</timecode>
						<media>
							<video>
								<duration>876</duration>
								<samplecharacteristics>
									<width>1920</width>
									<height>1080</height>
								</samplecharacteristics>
							</video>
							<audio>
								<samplecharacteristics>
									<samplerate>48000</samplerate>
									<depth>16</depth>
								</samplecharacteristics>
								<channelcount>1</channelcount>
								<layout>mono</layout>
								<audiochannel>
									<sourcechannel>1</sourcechannel>
									<channellabel>discrete</channellabel>
								</audiochannel>
							</audio>
							<audio>
								<samplecharacteristics>
									<samplerate>48000</samplerate>
									<depth>16</depth>
								</samplecharacteristics>
								<channelcount>1</channelcount>
								<layout>mono</layout>
								<audiochannel>
									<sourcechannel>2</sourcechannel>
									<channellabel>discrete</channellabel>
								</audiochannel>
							</audio>
						</media>
					</file>
					<sourcetrack>
						<mediatype>video</mediatype>
					</sourcetrack>
					<fielddominance>upper</fielddominance>
					<itemhistory>
						<uuid>FCFEC623-075F-4FDD-B7C9-FBF45E6CD95F</uuid>
					</itemhistory>
				</clipitem>
				<clipitem id="525_1791_01 14">
					<name>525_1791_01</name>
					<duration>3026</duration>
					<rate>
						<ntsc>FALSE</ntsc>
						<timebase>25</timebase>
					</rate>
					<in>1677</in>
					<out>1756</out>
					<start>3079</start>
					<end>3158</end>
					<pixelaspectratio>Square</pixelaspectratio>
					<enabled>TRUE</enabled>
					<anamorphic>FALSE</anamorphic>
					<alphatype>none</alphatype>
					<masterclipid>525_1791_01 1</masterclipid>
					<logginginfo>
						<scene/>
						<shottake/>
						<lognote/>
						<good>FALSE</good>
					</logginginfo>
					<labels>
						<label2/>
					</labels>
					<comments>
						<mastercomment1/>
						<mastercomment2/>
						<mastercomment3/>
						<mastercomment4/>
					</comments>
					<file id="525_1791_01 2"/>
					<sourcetrack>
						<mediatype>video</mediatype>
					</sourcetrack>
					<link>
						<linkclipref>525_1791_01 14</linkclipref>
						<mediatype>video</mediatype>
						<trackindex>1</trackindex>
						<clipindex>26</clipindex>
					</link>
					<link>
						<linkclipref>525_1791_01 15</linkclipref>
						<mediatype>audio</mediatype>
						<trackindex>1</trackindex>
						<clipindex>20</clipindex>
					</link>
					<link>
						<linkclipref>525_1791_01 16</linkclipref>
						<mediatype>audio</mediatype>
						<trackindex>2</trackindex>
						<clipindex>20</clipindex>
					</link>
					<fielddominance>upper</fielddominance>
					<itemhistory>
						<uuid>D75B36DE-5458-47C3-8268-8C1F70B5559E</uuid>
					</itemhistory>
				</clipitem>
				<clipitem id="525_1806_01 3">
					<name>525_1806_01</name>
					<duration>876</duration>
					<rate>
						<ntsc>FALSE</ntsc>
						<timebase>25</timebase>
					</rate>
					<in>730</in>
					<out>779</out>
					<start>3158</start>
					<end>3207</end>
					<pixelaspectratio>Square</pixelaspectratio>
					<enabled>TRUE</enabled>
					<anamorphic>FALSE</anamorphic>
					<alphatype>none</alphatype>
					<masterclipid>525_1806_01 1</masterclipid>
					<logginginfo>
						<scene/>
						<shottake/>
						<lognote/>
						<good>FALSE</good>
					</logginginfo>
					<labels>
						<label2/>
					</labels>
					<comments>
						<mastercomment1/>
						<mastercomment2/>
						<mastercomment3/>
						<mastercomment4/>
					</comments>
					<file id="525_1806_01 2"/>
					<filter>
						<effect>
							<name>Basic Motion</name>
							<effectid>basic</effectid>
							<effectcategory>motion</effectcategory>
							<effecttype>motion</effecttype>
							<mediatype>video</mediatype>
							<parameter>
								<parameterid>scale</parameterid>
								<name>Scale</name>
								<valuemin>0</valuemin>
								<valuemax>1000</valuemax>
								<value>125</value>
							</parameter>
							<parameter>
								<parameterid>rotation</parameterid>
								<name>Rotation</name>
								<valuemin>-8640</valuemin>
								<valuemax>8640</valuemax>
								<value>0</value>
							</parameter>
							<parameter>
								<parameterid>center</parameterid>
								<name>Center</name>
								<value>
									<horiz>0.124834</horiz>
									<vert>0.0377358</vert>
								</value>
							</parameter>
							<parameter>
								<parameterid>centerOffset</parameterid>
								<name>Anchor Point</name>
								<value>
									<horiz>0</horiz>
									<vert>0</vert>
								</value>
							</parameter>
						</effect>
					</filter>
					<filter>
						<enabled>FALSE</enabled>
						<effect>
							<name>Drop Shadow</name>
							<effectid>dropshadow</effectid>
							<effectcategory>motion</effectcategory>
							<effecttype>motion</effecttype>
							<mediatype>video</mediatype>
							<parameter>
								<parameterid>offset</parameterid>
								<name>offset</name>
								<valuemin>-100</valuemin>
								<valuemax>100</valuemax>
								<value>2</value>
							</parameter>
							<parameter>
								<parameterid>angle</parameterid>
								<name>angle</name>
								<valuemin>-720</valuemin>
								<valuemax>720</valuemax>
								<value>135</value>
							</parameter>
							<parameter>
								<parameterid>color</parameterid>
								<name>color</name>
								<value>
									<alpha>0</alpha>
									<red>0</red>
									<green>0</green>
									<blue>0</blue>
								</value>
							</parameter>
							<parameter>
								<parameterid>softness</parameterid>
								<name>softness</name>
								<valuemin>0</valuemin>
								<valuemax>100</valuemax>
								<value>10</value>
							</parameter>
							<parameter>
								<parameterid>opacity</parameterid>
								<name>opacity</name>
								<valuemin>0</valuemin>
								<valuemax>100</valuemax>
								<value>50</value>
							</parameter>
						</effect>
					</filter>
					<filter>
						<enabled>FALSE</enabled>
						<effect>
							<name>Motion Blur</name>
							<effectid>motionblur</effectid>
							<effectcategory>motion</effectcategory>
							<effecttype>motion</effecttype>
							<mediatype>video</mediatype>
							<parameter>
								<parameterid>duration</parameterid>
								<name>% Blur</name>
								<valuemin>0</valuemin>
								<valuemax>1000</valuemax>
								<value>500</value>
							</parameter>
							<parameter>
								<parameterid>samples</parameterid>
								<name>Samples</name>
								<valuemin>1</valuemin>
								<valuemax>16</valuemax>
								<value>4</value>
							</parameter>
						</effect>
					</filter>
					<filter>
						<effect>
							<name>Crop</name>
							<effectid>crop</effectid>
							<effectcategory>motion</effectcategory>
							<effecttype>motion</effecttype>
							<mediatype>video</mediatype>
							<parameter>
								<parameterid>left</parameterid>
								<name>left</name>
								<valuemin>0</valuemin>
								<valuemax>100</valuemax>
								<value>0</value>
							</parameter>
							<parameter>
								<parameterid>right</parameterid>
								<name>right</name>
								<valuemin>0</valuemin>
								<valuemax>100</valuemax>
								<value>0</value>
							</parameter>
							<parameter>
								<parameterid>top</parameterid>
								<name>top</name>
								<valuemin>0</valuemin>
								<valuemax>100</valuemax>
								<value>0</value>
							</parameter>
							<parameter>
								<parameterid>bottom</parameterid>
								<name>bottom</name>
								<valuemin>0</valuemin>
								<valuemax>100</valuemax>
								<value>0</value>
							</parameter>
							<parameter>
								<parameterid>edgefeather</parameterid>
								<name>edgefeather</name>
								<valuemin>0</valuemin>
								<valuemax>100</valuemax>
								<value>0</value>
							</parameter>
						</effect>
					</filter>
					<filter>
						<effect>
							<name>Distort</name>
							<effectid>deformation</effectid>
							<effectcategory>motion</effectcategory>
							<effecttype>motion</effecttype>
							<mediatype>video</mediatype>
							<parameter>
								<parameterid>ulcorner</parameterid>
								<name>Upper Left</name>
								<value>
									<horiz>-0.5</horiz>
									<vert>-0.5</vert>
								</value>
							</parameter>
							<parameter>
								<parameterid>urcorner</parameterid>
								<name>Upper Right</name>
								<value>
									<horiz>0.5</horiz>
									<vert>-0.5</vert>
								</value>
							</parameter>
							<parameter>
								<parameterid>lrcorner</parameterid>
								<name>Lower Right</name>
								<value>
									<horiz>0.5</horiz>
									<vert>0.5</vert>
								</value>
							</parameter>
							<parameter>
								<parameterid>llcorner</parameterid>
								<name>Lower Left</name>
								<value>
									<horiz>-0.5</horiz>
									<vert>0.5</vert>
								</value>
							</parameter>
							<parameter>
								<parameterid>aspect</parameterid>
								<name>Aspect</name>
								<valuemin>-10000</valuemin>
								<valuemax>10000</valuemax>
								<value>0</value>
							</parameter>
						</effect>
					</filter>
					<filter>
						<effect>
							<name>Opacity</name>
							<effectid>opacity</effectid>
							<effectcategory>motion</effectcategory>
							<effecttype>motion</effecttype>
							<mediatype>video</mediatype>
							<parameter>
								<parameterid>opacity</parameterid>
								<name>opacity</name>
								<valuemin>0</valuemin>
								<valuemax>100</valuemax>
								<value>100</value>
							</parameter>
						</effect>
					</filter>
					<sourcetrack>
						<mediatype>video</mediatype>
					</sourcetrack>
					<fielddominance>upper</fielddominance>
					<itemhistory>
						<uuid>DE58D7A8-BB87-4E89-BE27-4BA39CF853E2</uuid>
					</itemhistory>
				</clipitem>
				<clipitem id="525_1791_01 17">
					<name>525_1791_01</name>
					<duration>3026</duration>
					<rate>
						<ntsc>FALSE</ntsc>
						<timebase>25</timebase>
					</rate>
					<in>1805</in>
					<out>1922</out>
					<start>3207</start>
					<end>3324</end>
					<pixelaspectratio>Square</pixelaspectratio>
					<enabled>TRUE</enabled>
					<anamorphic>FALSE</anamorphic>
					<alphatype>none</alphatype>
					<masterclipid>525_1791_01 1</masterclipid>
					<logginginfo>
						<scene/>
						<shottake/>
						<lognote/>
						<good>FALSE</good>
					</logginginfo>
					<labels>
						<label2/>
					</labels>
					<comments>
						<mastercomment1/>
						<mastercomment2/>
						<mastercomment3/>
						<mastercomment4/>
					</comments>
					<file id="525_1791_01 2"/>
					<sourcetrack>
						<mediatype>video</mediatype>
					</sourcetrack>
					<fielddominance>upper</fielddominance>
					<itemhistory>
						<uuid>42449A51-F158-49F9-A7C9-059139F2707B</uuid>
					</itemhistory>
				</clipitem>
				<clipitem id="525_1799_01 5">
					<name>525_1799_01</name>
					<duration>1779</duration>
					<rate>
						<ntsc>FALSE</ntsc>
						<timebase>25</timebase>
					</rate>
					<in>282</in>
					<out>312</out>
					<start>3324</start>
					<end>3354</end>
					<pixelaspectratio>Square</pixelaspectratio>
					<enabled>TRUE</enabled>
					<anamorphic>FALSE</anamorphic>
					<alphatype>none</alphatype>
					<masterclipid>525_1799_01 1</masterclipid>
					<logginginfo>
						<scene/>
						<shottake/>
						<lognote/>
						<good>FALSE</good>
					</logginginfo>
					<labels>
						<label2/>
					</labels>
					<comments>
						<mastercomment1/>
						<mastercomment2/>
						<mastercomment3/>
						<mastercomment4/>
					</comments>
					<file id="525_1799_01 2"/>
					<sourcetrack>
						<mediatype>video</mediatype>
					</sourcetrack>
					<fielddominance>upper</fielddominance>
					<itemhistory>
						<uuid>082BF73F-FDB8-49FC-B59C-A6567E783EE2</uuid>
					</itemhistory>
				</clipitem>
				<clipitem id="525_1803_01 5">
					<name>525_1803_01</name>
					<duration>3142</duration>
					<rate>
						<ntsc>FALSE</ntsc>
						<timebase>25</timebase>
					</rate>
					<in>1547</in>
					<out>1610</out>
					<start>3354</start>
					<end>3417</end>
					<pixelaspectratio>Square</pixelaspectratio>
					<enabled>TRUE</enabled>
					<anamorphic>FALSE</anamorphic>
					<alphatype>none</alphatype>
					<masterclipid>525_1803_01 1</masterclipid>
					<logginginfo>
						<scene/>
						<shottake/>
						<lognote/>
						<good>FALSE</good>
					</logginginfo>
					<labels>
						<label2/>
					</labels>
					<comments>
						<mastercomment1/>
						<mastercomment2/>
						<mastercomment3/>
						<mastercomment4/>
					</comments>
					<file id="525_1803_01 2"/>
					<sourcetrack>
						<mediatype>video</mediatype>
					</sourcetrack>
					<link>
						<linkclipref>525_1803_01 5</linkclipref>
						<mediatype>video</mediatype>
						<trackindex>1</trackindex>
						<clipindex>30</clipindex>
					</link>
					<link>
						<linkclipref>525_1803_01 6</linkclipref>
						<mediatype>audio</mediatype>
						<trackindex>1</trackindex>
						<clipindex>21</clipindex>
					</link>
					<link>
						<linkclipref>525_1803_01 7</linkclipref>
						<mediatype>audio</mediatype>
						<trackindex>2</trackindex>
						<clipindex>21</clipindex>
					</link>
					<fielddominance>upper</fielddominance>
					<itemhistory>
						<uuid>786046BE-EE18-4C21-9F0D-5C587DBE9B7B</uuid>
					</itemhistory>
				</clipitem>
				<clipitem id="525_1799_01 6">
					<name>525_1799_01</name>
					<duration>1779</duration>
					<rate>
						<ntsc>FALSE</ntsc>
						<timebase>25</timebase>
					</rate>
					<in>340</in>
					<out>426</out>
					<start>3417</start>
					<end>3503</end>
					<pixelaspectratio>Square</pixelaspectratio>
					<enabled>TRUE</enabled>
					<anamorphic>FALSE</anamorphic>
					<alphatype>none</alphatype>
					<masterclipid>525_1799_01 1</masterclipid>
					<logginginfo>
						<scene/>
						<shottake/>
						<lognote/>
						<good>FALSE</good>
					</logginginfo>
					<labels>
						<label2/>
					</labels>
					<comments>
						<mastercomment1/>
						<mastercomment2/>
						<mastercomment3/>
						<mastercomment4/>
					</comments>
					<file id="525_1799_01 2"/>
					<sourcetrack>
						<mediatype>video</mediatype>
					</sourcetrack>
					<link>
						<linkclipref>525_1799_01 6</linkclipref>
						<mediatype>video</mediatype>
						<trackindex>1</trackindex>
						<clipindex>31</clipindex>
					</link>
					<link>
						<linkclipref>525_1799_01 7</linkclipref>
						<mediatype>audio</mediatype>
						<trackindex>1</trackindex>
						<clipindex>22</clipindex>
					</link>
					<link>
						<linkclipref>525_1799_01 8</linkclipref>
						<mediatype>audio</mediatype>
						<trackindex>2</trackindex>
						<clipindex>22</clipindex>
					</link>
					<fielddominance>upper</fielddominance>
					<itemhistory>
						<uuid>E648C6BE-DA83-45D1-BFA3-9EBE35FF4069</uuid>
					</itemhistory>
				</clipitem>
				<clipitem id="525_1803_01 8">
					<name>525_1803_01</name>
					<duration>3142</duration>
					<rate>
						<ntsc>FALSE</ntsc>
						<timebase>25</timebase>
					</rate>
					<in>1677</in>
					<out>1724</out>
					<start>3503</start>
					<end>3550</end>
					<pixelaspectratio>Square</pixelaspectratio>
					<enabled>TRUE</enabled>
					<anamorphic>FALSE</anamorphic>
					<alphatype>none</alphatype>
					<masterclipid>525_1803_01 1</masterclipid>
					<logginginfo>
						<scene/>
						<shottake/>
						<lognote/>
						<good>FALSE</good>
					</logginginfo>
					<labels>
						<label2/>
					</labels>
					<comments>
						<mastercomment1/>
						<mastercomment2/>
						<mastercomment3/>
						<mastercomment4/>
					</comments>
					<file id="525_1803_01 2"/>
					<sourcetrack>
						<mediatype>video</mediatype>
					</sourcetrack>
					<fielddominance>upper</fielddominance>
					<itemhistory>
						<uuid>781553C1-AE82-445E-B395-E8FF03515E98</uuid>
					</itemhistory>
				</clipitem>
				<clipitem id="525_1799_01 9">
					<name>525_1799_01</name>
					<duration>1779</duration>
					<rate>
						<ntsc>FALSE</ntsc>
						<timebase>25</timebase>
					</rate>
					<in>491</in>
					<out>531</out>
					<start>3550</start>
					<end>3590</end>
					<pixelaspectratio>Square</pixelaspectratio>
					<enabled>TRUE</enabled>
					<anamorphic>FALSE</anamorphic>
					<alphatype>none</alphatype>
					<masterclipid>525_1799_01 1</masterclipid>
					<logginginfo>
						<scene/>
						<shottake/>
						<lognote/>
						<good>FALSE</good>
					</logginginfo>
					<labels>
						<label2/>
					</labels>
					<comments>
						<mastercomment1/>
						<mastercomment2/>
						<mastercomment3/>
						<mastercomment4/>
					</comments>
					<file id="525_1799_01 2"/>
					<sourcetrack>
						<mediatype>video</mediatype>
					</sourcetrack>
					<link>
						<linkclipref>525_1799_01 9</linkclipref>
						<mediatype>video</mediatype>
						<trackindex>1</trackindex>
						<clipindex>33</clipindex>
					</link>
					<link>
						<linkclipref>525_1799_01 10</linkclipref>
						<mediatype>audio</mediatype>
						<trackindex>1</trackindex>
						<clipindex>23</clipindex>
					</link>
					<link>
						<linkclipref>525_1799_01 11</linkclipref>
						<mediatype>audio</mediatype>
						<trackindex>2</trackindex>
						<clipindex>23</clipindex>
					</link>
					<fielddominance>upper</fielddominance>
					<itemhistory>
						<uuid>B02F3C01-FA1D-4274-9C02-2D5F997142BD</uuid>
					</itemhistory>
				</clipitem>
				<clipitem id="525_1791_01 18">
					<name>525_1791_01</name>
					<duration>3026</duration>
					<rate>
						<ntsc>FALSE</ntsc>
						<timebase>25</timebase>
					</rate>
					<in>2130</in>
					<out>2233</out>
					<start>3590</start>
					<end>3693</end>
					<pixelaspectratio>Square</pixelaspectratio>
					<enabled>TRUE</enabled>
					<anamorphic>FALSE</anamorphic>
					<alphatype>none</alphatype>
					<masterclipid>525_1791_01 1</masterclipid>
					<logginginfo>
						<scene/>
						<shottake/>
						<lognote/>
						<good>FALSE</good>
					</logginginfo>
					<labels>
						<label2/>
					</labels>
					<comments>
						<mastercomment1/>
						<mastercomment2/>
						<mastercomment3/>
						<mastercomment4/>
					</comments>
					<file id="525_1791_01 2"/>
					<sourcetrack>
						<mediatype>video</mediatype>
					</sourcetrack>
					<link>
						<linkclipref>525_1791_01 18</linkclipref>
						<mediatype>video</mediatype>
						<trackindex>1</trackindex>
						<clipindex>34</clipindex>
					</link>
					<link>
						<linkclipref>525_1791_01 19</linkclipref>
						<mediatype>audio</mediatype>
						<trackindex>1</trackindex>
						<clipindex>24</clipindex>
					</link>
					<link>
						<linkclipref>525_1791_01 20</linkclipref>
						<mediatype>audio</mediatype>
						<trackindex>2</trackindex>
						<clipindex>24</clipindex>
					</link>
					<fielddominance>upper</fielddominance>
					<itemhistory>
						<uuid>C701449D-B995-4F15-A238-69DACF82C6A9</uuid>
					</itemhistory>
				</clipitem>
				<clipitem id="525_1803_01 9">
					<name>525_1803_01</name>
					<duration>3142</duration>
					<rate>
						<ntsc>FALSE</ntsc>
						<timebase>25</timebase>
					</rate>
					<in>1784</in>
					<out>1864</out>
					<start>3693</start>
					<end>3773</end>
					<pixelaspectratio>Square</pixelaspectratio>
					<enabled>TRUE</enabled>
					<anamorphic>FALSE</anamorphic>
					<alphatype>none</alphatype>
					<masterclipid>525_1803_01 1</masterclipid>
					<logginginfo>
						<scene/>
						<shottake/>
						<lognote/>
						<good>FALSE</good>
					</logginginfo>
					<labels>
						<label2/>
					</labels>
					<comments>
						<mastercomment1/>
						<mastercomment2/>
						<mastercomment3/>
						<mastercomment4/>
					</comments>
					<file id="525_1803_01 2"/>
					<sourcetrack>
						<mediatype>video</mediatype>
					</sourcetrack>
					<link>
						<linkclipref>525_1803_01 9</linkclipref>
						<mediatype>video</mediatype>
						<trackindex>1</trackindex>
						<clipindex>35</clipindex>
					</link>
					<link>
						<linkclipref>525_1803_01 10</linkclipref>
						<mediatype>audio</mediatype>
						<trackindex>1</trackindex>
						<clipindex>25</clipindex>
					</link>
					<link>
						<linkclipref>525_1803_01 11</linkclipref>
						<mediatype>audio</mediatype>
						<trackindex>2</trackindex>
						<clipindex>25</clipindex>
					</link>
					<fielddominance>upper</fielddominance>
					<itemhistory>
						<uuid>61639C63-3D28-4A2A-A71C-740036BDA154</uuid>
					</itemhistory>
				</clipitem>
				<clipitem id="525_1799_01 12">
					<name>525_1799_01</name>
					<duration>1779</duration>
					<rate>
						<ntsc>FALSE</ntsc>
						<timebase>25</timebase>
					</rate>
					<in>611</in>
					<out>760</out>
					<start>3773</start>
					<end>3922</end>
					<pixelaspectratio>Square</pixelaspectratio>
					<enabled>TRUE</enabled>
					<anamorphic>FALSE</anamorphic>
					<alphatype>none</alphatype>
					<masterclipid>525_1799_01 1</masterclipid>
					<logginginfo>
						<scene/>
						<shottake/>
						<lognote/>
						<good>FALSE</good>
					</logginginfo>
					<labels>
						<label2/>
					</labels>
					<comments>
						<mastercomment1/>
						<mastercomment2/>
						<mastercomment3/>
						<mastercomment4/>
					</comments>
					<file id="525_1799_01 2"/>
					<sourcetrack>
						<mediatype>video</mediatype>
					</sourcetrack>
					<link>
						<linkclipref>525_1799_01 12</linkclipref>
						<mediatype>video</mediatype>
						<trackindex>1</trackindex>
						<clipindex>36</clipindex>
					</link>
					<link>
						<linkclipref>525_1799_01 13</linkclipref>
						<mediatype>audio</mediatype>
						<trackindex>1</trackindex>
						<clipindex>26</clipindex>
					</link>
					<link>
						<linkclipref>525_1799_01 14</linkclipref>
						<mediatype>audio</mediatype>
						<trackindex>2</trackindex>
						<clipindex>26</clipindex>
					</link>
					<fielddominance>upper</fielddominance>
					<itemhistory>
						<uuid>2A082C66-033C-4773-B112-F8DF79412963</uuid>
					</itemhistory>
				</clipitem>
				<clipitem id="525_1803_01 12">
					<name>525_1803_01</name>
					<duration>3142</duration>
					<rate>
						<ntsc>FALSE</ntsc>
						<timebase>25</timebase>
					</rate>
					<in>2047</in>
					<out>2098</out>
					<start>3922</start>
					<end>3973</end>
					<pixelaspectratio>Square</pixelaspectratio>
					<enabled>TRUE</enabled>
					<anamorphic>FALSE</anamorphic>
					<alphatype>none</alphatype>
					<masterclipid>525_1803_01 1</masterclipid>
					<logginginfo>
						<scene/>
						<shottake/>
						<lognote/>
						<good>FALSE</good>
					</logginginfo>
					<labels>
						<label2/>
					</labels>
					<comments>
						<mastercomment1/>
						<mastercomment2/>
						<mastercomment3/>
						<mastercomment4/>
					</comments>
					<file id="525_1803_01 2"/>
					<sourcetrack>
						<mediatype>video</mediatype>
					</sourcetrack>
					<link>
						<linkclipref>525_1803_01 12</linkclipref>
						<mediatype>video</mediatype>
						<trackindex>1</trackindex>
						<clipindex>37</clipindex>
					</link>
					<link>
						<linkclipref>525_1803_01 13</linkclipref>
						<mediatype>audio</mediatype>
						<trackindex>1</trackindex>
						<clipindex>27</clipindex>
					</link>
					<link>
						<linkclipref>525_1803_01 14</linkclipref>
						<mediatype>audio</mediatype>
						<trackindex>2</trackindex>
						<clipindex>27</clipindex>
					</link>
					<fielddominance>upper</fielddominance>
					<itemhistory>
						<uuid>75A358CB-0D6D-4843-881E-2CDA9C485406</uuid>
					</itemhistory>
				</clipitem>
				<clipitem id="525_1799_01 15">
					<name>525_1799_01</name>
					<duration>1779</duration>
					<rate>
						<ntsc>FALSE</ntsc>
						<timebase>25</timebase>
					</rate>
					<in>813</in>
					<out>851</out>
					<start>3973</start>
					<end>4011</end>
					<pixelaspectratio>Square</pixelaspectratio>
					<enabled>TRUE</enabled>
					<anamorphic>FALSE</anamorphic>
					<alphatype>none</alphatype>
					<masterclipid>525_1799_01 1</masterclipid>
					<logginginfo>
						<scene/>
						<shottake/>
						<lognote/>
						<good>FALSE</good>
					</logginginfo>
					<labels>
						<label2/>
					</labels>
					<comments>
						<mastercomment1/>
						<mastercomment2/>
						<mastercomment3/>
						<mastercomment4/>
					</comments>
					<file id="525_1799_01 2"/>
					<sourcetrack>
						<mediatype>video</mediatype>
					</sourcetrack>
					<link>
						<linkclipref>525_1799_01 15</linkclipref>
						<mediatype>video</mediatype>
						<trackindex>1</trackindex>
						<clipindex>38</clipindex>
					</link>
					<link>
						<linkclipref>525_1799_01 16</linkclipref>
						<mediatype>audio</mediatype>
						<trackindex>1</trackindex>
						<clipindex>28</clipindex>
					</link>
					<link>
						<linkclipref>525_1799_01 17</linkclipref>
						<mediatype>audio</mediatype>
						<trackindex>2</trackindex>
						<clipindex>28</clipindex>
					</link>
					<fielddominance>upper</fielddominance>
					<itemhistory>
						<uuid>6640868A-3EA0-45D6-9DF3-00C45BAC9A77</uuid>
					</itemhistory>
				</clipitem>
				<clipitem id="525_1803_01 15">
					<name>525_1803_01</name>
					<duration>3142</duration>
					<rate>
						<ntsc>FALSE</ntsc>
						<timebase>25</timebase>
					</rate>
					<in>2153</in>
					<out>2248</out>
					<start>4011</start>
					<end>4106</end>
					<pixelaspectratio>Square</pixelaspectratio>
					<enabled>TRUE</enabled>
					<anamorphic>FALSE</anamorphic>
					<alphatype>none</alphatype>
					<masterclipid>525_1803_01 1</masterclipid>
					<logginginfo>
						<scene/>
						<shottake/>
						<lognote/>
						<good>FALSE</good>
					</logginginfo>
					<labels>
						<label2/>
					</labels>
					<comments>
						<mastercomment1/>
						<mastercomment2/>
						<mastercomment3/>
						<mastercomment4/>
					</comments>
					<file id="525_1803_01 2"/>
					<sourcetrack>
						<mediatype>video</mediatype>
					</sourcetrack>
					<link>
						<linkclipref>525_1803_01 15</linkclipref>
						<mediatype>video</mediatype>
						<trackindex>1</trackindex>
						<clipindex>39</clipindex>
					</link>
					<link>
						<linkclipref>525_1803_01 16</linkclipref>
						<mediatype>audio</mediatype>
						<trackindex>1</trackindex>
						<clipindex>29</clipindex>
					</link>
					<link>
						<linkclipref>525_1803_01 17</linkclipref>
						<mediatype>audio</mediatype>
						<trackindex>2</trackindex>
						<clipindex>29</clipindex>
					</link>
					<fielddominance>upper</fielddominance>
					<itemhistory>
						<uuid>E390CD75-D0BD-473A-9240-A1DF03FF8AB6</uuid>
					</itemhistory>
				</clipitem>
				<clipitem id="525_1799_01 18">
					<name>525_1799_01</name>
					<duration>1779</duration>
					<rate>
						<ntsc>FALSE</ntsc>
						<timebase>25</timebase>
					</rate>
					<in>961</in>
					<out>1082</out>
					<start>4106</start>
					<end>4227</end>
					<pixelaspectratio>Square</pixelaspectratio>
					<enabled>TRUE</enabled>
					<anamorphic>FALSE</anamorphic>
					<alphatype>none</alphatype>
					<masterclipid>525_1799_01 1</masterclipid>
					<logginginfo>
						<scene/>
						<shottake/>
						<lognote/>
						<good>FALSE</good>
					</logginginfo>
					<labels>
						<label2/>
					</labels>
					<comments>
						<mastercomment1/>
						<mastercomment2/>
						<mastercomment3/>
						<mastercomment4/>
					</comments>
					<file id="525_1799_01 2"/>
					<sourcetrack>
						<mediatype>video</mediatype>
					</sourcetrack>
					<link>
						<linkclipref>525_1799_01 18</linkclipref>
						<mediatype>video</mediatype>
						<trackindex>1</trackindex>
						<clipindex>40</clipindex>
					</link>
					<link>
						<linkclipref>525_1799_01 19</linkclipref>
						<mediatype>audio</mediatype>
						<trackindex>1</trackindex>
						<clipindex>30</clipindex>
					</link>
					<link>
						<linkclipref>525_1799_01 20</linkclipref>
						<mediatype>audio</mediatype>
						<trackindex>2</trackindex>
						<clipindex>30</clipindex>
					</link>
					<fielddominance>upper</fielddominance>
					<itemhistory>
						<uuid>40C34856-144F-497E-B74B-1474FD92B005</uuid>
					</itemhistory>
				</clipitem>
				<clipitem id="525_1803_01 18">
					<name>525_1803_01</name>
					<duration>3142</duration>
					<rate>
						<ntsc>FALSE</ntsc>
						<timebase>25</timebase>
					</rate>
					<in>2297</in>
					<out>2418</out>
					<start>4227</start>
					<end>4348</end>
					<pixelaspectratio>Square</pixelaspectratio>
					<enabled>TRUE</enabled>
					<anamorphic>FALSE</anamorphic>
					<alphatype>none</alphatype>
					<masterclipid>525_1803_01 1</masterclipid>
					<logginginfo>
						<scene/>
						<shottake/>
						<lognote/>
						<good>FALSE</good>
					</logginginfo>
					<labels>
						<label2/>
					</labels>
					<comments>
						<mastercomment1/>
						<mastercomment2/>
						<mastercomment3/>
						<mastercomment4/>
					</comments>
					<file id="525_1803_01 2"/>
					<sourcetrack>
						<mediatype>video</mediatype>
					</sourcetrack>
					<link>
						<linkclipref>525_1803_01 18</linkclipref>
						<mediatype>video</mediatype>
						<trackindex>1</trackindex>
						<clipindex>41</clipindex>
					</link>
					<link>
						<linkclipref>525_1803_01 19</linkclipref>
						<mediatype>audio</mediatype>
						<trackindex>1</trackindex>
						<clipindex>31</clipindex>
					</link>
					<link>
						<linkclipref>525_1803_01 20</linkclipref>
						<mediatype>audio</mediatype>
						<trackindex>2</trackindex>
						<clipindex>31</clipindex>
					</link>
					<fielddominance>upper</fielddominance>
					<itemhistory>
						<uuid>F7758A99-9A10-49C6-8C92-B2331724F02F</uuid>
					</itemhistory>
				</clipitem>
				<clipitem id="525_1799_01 21">
					<name>525_1799_01</name>
					<duration>1779</duration>
					<rate>
						<ntsc>FALSE</ntsc>
						<timebase>25</timebase>
					</rate>
					<in>1223</in>
					<out>1303</out>
					<start>4348</start>
					<end>4428</end>
					<pixelaspectratio>Square</pixelaspectratio>
					<enabled>TRUE</enabled>
					<anamorphic>FALSE</anamorphic>
					<alphatype>none</alphatype>
					<masterclipid>525_1799_01 1</masterclipid>
					<logginginfo>
						<scene/>
						<shottake/>
						<lognote/>
						<good>FALSE</good>
					</logginginfo>
					<labels>
						<label2/>
					</labels>
					<comments>
						<mastercomment1/>
						<mastercomment2/>
						<mastercomment3/>
						<mastercomment4/>
					</comments>
					<file id="525_1799_01 2"/>
					<sourcetrack>
						<mediatype>video</mediatype>
					</sourcetrack>
					<link>
						<linkclipref>525_1799_01 21</linkclipref>
						<mediatype>video</mediatype>
						<trackindex>1</trackindex>
						<clipindex>42</clipindex>
					</link>
					<link>
						<linkclipref>525_1799_01 22</linkclipref>
						<mediatype>audio</mediatype>
						<trackindex>1</trackindex>
						<clipindex>32</clipindex>
					</link>
					<link>
						<linkclipref>525_1799_01 23</linkclipref>
						<mediatype>audio</mediatype>
						<trackindex>2</trackindex>
						<clipindex>32</clipindex>
					</link>
					<fielddominance>upper</fielddominance>
					<itemhistory>
						<uuid>F05805BB-8D12-40CB-9B59-14E5439F4A94</uuid>
					</itemhistory>
				</clipitem>
				<clipitem id="525_1791_01 21">
					<name>525_1791_01</name>
					<duration>3026</duration>
					<rate>
						<ntsc>FALSE</ntsc>
						<timebase>25</timebase>
					</rate>
					<in>2844</in>
					<out>2906</out>
					<start>4428</start>
					<end>4490</end>
					<pixelaspectratio>Square</pixelaspectratio>
					<enabled>TRUE</enabled>
					<anamorphic>FALSE</anamorphic>
					<alphatype>none</alphatype>
					<masterclipid>525_1791_01 1</masterclipid>
					<logginginfo>
						<scene/>
						<shottake/>
						<lognote/>
						<good>FALSE</good>
					</logginginfo>
					<labels>
						<label2/>
					</labels>
					<comments>
						<mastercomment1/>
						<mastercomment2/>
						<mastercomment3/>
						<mastercomment4/>
					</comments>
					<file id="525_1791_01 2"/>
					<sourcetrack>
						<mediatype>video</mediatype>
					</sourcetrack>
					<link>
						<linkclipref>525_1791_01 21</linkclipref>
						<mediatype>video</mediatype>
						<trackindex>1</trackindex>
						<clipindex>43</clipindex>
					</link>
					<link>
						<linkclipref>525_1791_01 22</linkclipref>
						<mediatype>audio</mediatype>
						<trackindex>1</trackindex>
						<clipindex>33</clipindex>
					</link>
					<link>
						<linkclipref>525_1791_01 23</linkclipref>
						<mediatype>audio</mediatype>
						<trackindex>2</trackindex>
						<clipindex>33</clipindex>
					</link>
					<fielddominance>upper</fielddominance>
					<itemhistory>
						<uuid>8C7494DB-EF9A-43CE-9703-893DD1DC9D32</uuid>
					</itemhistory>
				</clipitem>
				<clipitem id="525_1808_01 ">
					<name>525_1808_01</name>
					<duration>313</duration>
					<rate>
						<ntsc>FALSE</ntsc>
						<timebase>25</timebase>
					</rate>
					<in>117</in>
					<out>213</out>
					<start>4490</start>
					<end>4586</end>
					<pixelaspectratio>Square</pixelaspectratio>
					<enabled>TRUE</enabled>
					<anamorphic>FALSE</anamorphic>
					<alphatype>none</alphatype>
					<masterclipid>525_1808_01 1</masterclipid>
					<logginginfo>
						<scene/>
						<shottake/>
						<lognote/>
						<good>FALSE</good>
					</logginginfo>
					<labels>
						<label2/>
					</labels>
					<comments>
						<mastercomment1/>
						<mastercomment2/>
						<mastercomment3/>
						<mastercomment4/>
					</comments>
					<file id="525_1808_01 2">
						<name>525_1808_01.mov</name>
						<pathurl>file://localhost/Volumes/Askepott/Prosjekter/DNPR637010_Kra%CC%8Akeklubben_TEM_011212/Video/MELLOMSTIKK/S01E%20Spor%20i%20sn%C3%B8en/EX-3/525_1808_01.mov</pathurl>
						<rate>
							<timebase>25</timebase>
						</rate>
						<duration>313</duration>
						<metadata>
							<storage>QuickTime</storage>
							<key>com.sony.bprl.xdcamtransfer.version</key>
							<size>10</size>
							<type>UTF8</type>
							<value>2.12.0.631</value>
						</metadata>
						<metadata>
							<storage>QuickTime</storage>
							<key>org.smpte.mxf.package.material.packageid</key>
							<size>66</size>
							<type>UTF8</type>
							<value>0x060a2b340101010501010d4313000000b5a9e785785905ce08004602022f05f5</value>
						</metadata>
						<metadata>
							<storage>QuickTime</storage>
							<key>com.sony.professionaldisc.nonrealtimemeta.lastupdate</key>
							<size>25</size>
							<type>UTF8</type>
							<value>2012-02-21 13:33:26 +0100</value>
						</metadata>
						<metadata>
							<storage>QuickTime</storage>
							<key>com.sony.bprl.mxf.umid</key>
							<size>64</size>
							<type>UTF8</type>
							<value>060a2b340101010501010d4313000000b5a9e785785905ce08004602022f05f5</value>
						</metadata>
						<metadata>
							<storage>QuickTime</storage>
							<key>com.sony.bprl.mxf.nrtmetadata</key>
							<size>2008</size>
							<type>UTF8</type>
							<value>&lt;?xml version="1.0" encoding="UTF-8" standalone="yes"?>&lt;NonRealTimeMeta xmlns="urn:schemas-professionalDisc:nonRealTimeMeta:ver.1.20" xmlns:lib="urn:schemas-professionalDisc:lib:ver.1.20" xmlns:xsi="http://www.w3.org/2001/XMLSchema-instance" lastUpdate="2012-02-21T13:33:26+01:00">&lt;TargetMaterial umidRef="060A2B340101010501010D4313000000B5A9E785785905CE08004602022F05F5">&lt;/TargetMaterial>&lt;Duration value="313">&lt;/Duration>&lt;LtcChangeTable tcFps="25" halfStep="false">&lt;LtcChange frameCount="0" value="04125522" status="increment">&lt;/LtcChange>&lt;LtcChange frameCount="312" value="16245522" status="end">&lt;/LtcChange>&lt;/LtcChangeTable>&lt;CreationDate value="2012-02-21T13:33:12+01:00">&lt;/CreationDate>&lt;TypicalUbit value="0000000000000000">&lt;/TypicalUbit>&lt;BodyUmidBasicChangeTable>&lt;BodyUmidBasicChange frameCount="0" value="060A2B340101010501010D4333000000B5A9E785785905CE08004602022F05F5" status="start">&lt;/BodyUmidBasicChange>&lt;/BodyUmidBasicChangeTable>&lt;BodyUmidWhenChangeTable>&lt;BodyUmidWhenChange frameCount="0" value="445A4F04785905A5" status="increment">&lt;/BodyUmidWhenChange>&lt;BodyUmidWhenChange frameCount="312" value="44A84F04785905A5" status="end">&lt;/BodyUmidWhenChange>&lt;/BodyUmidWhenChangeTable>&lt;KlvPacketTable>&lt;KlvPacket key="060E2B34010101050301020A02000000" frameCount="0" lengthValue="095F5265635374617274" status="spot">&lt;/KlvPacket>&lt;/KlvPacketTable>&lt;VideoFormat>&lt;VideoRecPort port="DIRECT">&lt;/VideoRecPort>&lt;VideoFrame videoCodec="MPEG2HD35_1920_1080_MP@HL" captureFps="50.00i" recFps="50.00" formatFps="50i">&lt;/VideoFrame>&lt;VideoLayout pixel="1920" numOfVerticalLine="1080" aspectRatio="16:9">&lt;/VideoLayout>&lt;/VideoFormat>&lt;AudioFormat numOfChannel="2">&lt;AudioRecPort port="ANALOG" audioCodec="LPCM16" trackDst="CH1">&lt;/AudioRecPort>&lt;AudioRecPort port="ANALOG" audioCodec="LPCM16" trackDst="CH2">&lt;/AudioRecPort>&lt;/AudioFormat>&lt;Device manufacturer="Sony" modelName="PMW-EX3" serialNo="0401525">&lt;/Device>&lt;Lens modelName="VCL-614B2X">&lt;/Lens>&lt;RecordingMode type="normal" cacheRec="false">&lt;/RecordingMode>&lt;/NonRealTimeMeta>
							</value>
						</metadata>
						<metadata>
							<storage>QuickTime</storage>
							<key>com.apple.proapps.reel</key>
							<size>8</size>
							<type>UTF8</type>
							<value>Untitled</value>
						</metadata>
						<metadata>
							<storage>QuickTime</storage>
							<key>com.apple.proapps.clipID</key>
							<size>64</size>
							<type>UTF8</type>
							<value>060A2B340101010501010D4313000000B5A9E785785905CE08004602022F05F5</value>
						</metadata>
						<metadata>
							<storage>QuickTime</storage>
							<key>com.apple.quicktime.information</key>
							<size>64</size>
							<type>UTF8</type>
							<value>060a2b340101010501010d4313000000b5a9e785785905ce08004602022f05f5</value>
						</metadata>
						<metadata>
							<storage>QuickTime</storage>
							<key>com.apple.proapps.originalFormat</key>
							<size>36</size>
							<type>UTF8</type>
							<value>Apple XDCAM EX 1080i50 (35 Mb/s VBR)</value>
						</metadata>
						<timecode>
							<rate>
								<timebase>25</timebase>
							</rate>
							<string>22:55:12:04</string>
							<frame>2062804</frame>
							<displayformat>NDF</displayformat>
							<source>source</source>
							<reel>
								<name>Untitled</name>
							</reel>
						</timecode>
						<media>
							<video>
								<duration>313</duration>
								<samplecharacteristics>
									<width>1920</width>
									<height>1080</height>
								</samplecharacteristics>
							</video>
							<audio>
								<samplecharacteristics>
									<samplerate>48000</samplerate>
									<depth>16</depth>
								</samplecharacteristics>
								<channelcount>1</channelcount>
								<layout>mono</layout>
								<audiochannel>
									<sourcechannel>1</sourcechannel>
									<channellabel>discrete</channellabel>
								</audiochannel>
							</audio>
							<audio>
								<samplecharacteristics>
									<samplerate>48000</samplerate>
									<depth>16</depth>
								</samplecharacteristics>
								<channelcount>1</channelcount>
								<layout>mono</layout>
								<audiochannel>
									<sourcechannel>2</sourcechannel>
									<channellabel>discrete</channellabel>
								</audiochannel>
							</audio>
						</media>
					</file>
					<sourcetrack>
						<mediatype>video</mediatype>
					</sourcetrack>
					<link>
						<linkclipref>525_1808_01 </linkclipref>
						<mediatype>video</mediatype>
						<trackindex>1</trackindex>
						<clipindex>44</clipindex>
					</link>
					<link>
						<linkclipref>525_1808_01 3</linkclipref>
						<mediatype>audio</mediatype>
						<trackindex>1</trackindex>
						<clipindex>34</clipindex>
					</link>
					<link>
						<linkclipref>525_1808_01 4</linkclipref>
						<mediatype>audio</mediatype>
						<trackindex>2</trackindex>
						<clipindex>34</clipindex>
					</link>
					<fielddominance>upper</fielddominance>
					<itemhistory>
						<uuid>0C00989E-43DF-4996-9101-E1A058A30533</uuid>
					</itemhistory>
				</clipitem>
				<clipitem id="Clip1ATK75 ">
					<name>Clip1ATK75</name>
					<duration>1507</duration>
					<rate>
						<ntsc>FALSE</ntsc>
						<timebase>25</timebase>
					</rate>
					<in>233</in>
					<out>369</out>
					<start>4586</start>
					<end>4722</end>
					<pixelaspectratio>Square</pixelaspectratio>
					<enabled>TRUE</enabled>
					<anamorphic>FALSE</anamorphic>
					<alphatype>none</alphatype>
					<masterclipid>Clip1ATK75 1</masterclipid>
					<logginginfo>
						<scene/>
						<shottake/>
						<lognote/>
						<good>FALSE</good>
					</logginginfo>
					<labels>
						<label2/>
					</labels>
					<comments>
						<mastercomment1/>
						<mastercomment2/>
						<mastercomment3/>
						<mastercomment4/>
					</comments>
					<file id="Clip1ATK75 2">
						<name>Clip1ATK75.mov</name>
						<pathurl>file://localhost/Volumes/Askepott/Prosjekter/DNPR637010_Kra%CC%8Akeklubben_TEM_011212/Video/MELLOMSTIKK/S01E%20Spor%20i%20sn%C3%B8en/AJA/Clip1ATK75.mov</pathurl>
						<rate>
							<timebase>25</timebase>
						</rate>
						<duration>1507</duration>
						<timecode>
							<rate>
								<timebase>25</timebase>
							</rate>
							<string>02:27:29:08</string>
							<frame>221233</frame>
							<displayformat>NDF</displayformat>
							<source>source</source>
							<reel>
								<name>1</name>
							</reel>
						</timecode>
						<media>
							<video>
								<duration>1507</duration>
								<samplecharacteristics>
									<width>1920</width>
									<height>1080</height>
								</samplecharacteristics>
							</video>
							<audio>
								<samplecharacteristics>
									<samplerate>48000</samplerate>
									<depth>24</depth>
								</samplecharacteristics>
								<channelcount>1</channelcount>
							</audio>
							<audio>
								<samplecharacteristics>
									<samplerate>48000</samplerate>
									<depth>24</depth>
								</samplecharacteristics>
								<channelcount>1</channelcount>
							</audio>
						</media>
					</file>
					<sourcetrack>
						<mediatype>video</mediatype>
					</sourcetrack>
					<link>
						<linkclipref>Clip1ATK75 </linkclipref>
						<mediatype>video</mediatype>
						<trackindex>1</trackindex>
						<clipindex>45</clipindex>
					</link>
					<link>
						<linkclipref>Clip1ATK75 3</linkclipref>
						<mediatype>audio</mediatype>
						<trackindex>1</trackindex>
						<clipindex>35</clipindex>
					</link>
					<link>
						<linkclipref>Clip1ATK75 4</linkclipref>
						<mediatype>audio</mediatype>
						<trackindex>2</trackindex>
						<clipindex>35</clipindex>
					</link>
					<fielddominance>upper</fielddominance>
					<itemhistory>
						<uuid>CF869A8F-2BB2-4D10-ACB9-7E94E9EA4C7F</uuid>
					</itemhistory>
				</clipitem>
				<clipitem id="Clip1ATK68 ">
					<name>Clip1ATK68</name>
					<duration>1106</duration>
					<rate>
						<ntsc>FALSE</ntsc>
						<timebase>25</timebase>
					</rate>
					<in>936</in>
					<out>1034</out>
					<start>4722</start>
					<end>4820</end>
					<pixelaspectratio>Square</pixelaspectratio>
					<enabled>TRUE</enabled>
					<anamorphic>FALSE</anamorphic>
					<alphatype>none</alphatype>
					<masterclipid>Clip1ATK68 1</masterclipid>
					<logginginfo>
						<scene/>
						<shottake/>
						<lognote/>
						<good>FALSE</good>
					</logginginfo>
					<labels>
						<label2/>
					</labels>
					<comments>
						<mastercomment1/>
						<mastercomment2/>
						<mastercomment3/>
						<mastercomment4/>
					</comments>
					<file id="Clip1ATK68 2">
						<name>Clip1ATK68.mov</name>
						<pathurl>file://localhost/Volumes/Askepott/Prosjekter/DNPR637010_Kra%CC%8Akeklubben_TEM_011212/Video/MELLOMSTIKK/S01E%20Spor%20i%20sn%C3%B8en/AJA/Clip1ATK68.mov</pathurl>
						<rate>
							<timebase>25</timebase>
						</rate>
						<duration>1106</duration>
						<timecode>
							<rate>
								<timebase>25</timebase>
							</rate>
							<string>02:24:46:02</string>
							<frame>217152</frame>
							<displayformat>NDF</displayformat>
							<source>source</source>
							<reel>
								<name>1</name>
							</reel>
						</timecode>
						<media>
							<video>
								<duration>1106</duration>
								<samplecharacteristics>
									<width>1920</width>
									<height>1080</height>
								</samplecharacteristics>
							</video>
							<audio>
								<samplecharacteristics>
									<samplerate>48000</samplerate>
									<depth>24</depth>
								</samplecharacteristics>
								<channelcount>1</channelcount>
							</audio>
							<audio>
								<samplecharacteristics>
									<samplerate>48000</samplerate>
									<depth>24</depth>
								</samplecharacteristics>
								<channelcount>1</channelcount>
							</audio>
						</media>
					</file>
					<sourcetrack>
						<mediatype>video</mediatype>
					</sourcetrack>
					<link>
						<linkclipref>Clip1ATK68 </linkclipref>
						<mediatype>video</mediatype>
						<trackindex>1</trackindex>
						<clipindex>46</clipindex>
					</link>
					<link>
						<linkclipref>Clip1ATK68 3</linkclipref>
						<mediatype>audio</mediatype>
						<trackindex>2</trackindex>
						<clipindex>36</clipindex>
					</link>
					<fielddominance>upper</fielddominance>
					<itemhistory>
						<uuid>C2800432-222B-4196-83DE-0F4E05A60111</uuid>
					</itemhistory>
				</clipitem>
				<clipitem id="Clip1ATK75 5">
					<name>Clip1ATK75</name>
					<duration>1507</duration>
					<rate>
						<ntsc>FALSE</ntsc>
						<timebase>25</timebase>
					</rate>
					<in>465</in>
					<out>706</out>
					<start>4820</start>
					<end>5061</end>
					<pixelaspectratio>Square</pixelaspectratio>
					<enabled>TRUE</enabled>
					<anamorphic>FALSE</anamorphic>
					<alphatype>none</alphatype>
					<masterclipid>Clip1ATK75 1</masterclipid>
					<logginginfo>
						<scene/>
						<shottake/>
						<lognote/>
						<good>FALSE</good>
					</logginginfo>
					<labels>
						<label2/>
					</labels>
					<comments>
						<mastercomment1/>
						<mastercomment2/>
						<mastercomment3/>
						<mastercomment4/>
					</comments>
					<file id="Clip1ATK75 2"/>
					<sourcetrack>
						<mediatype>video</mediatype>
					</sourcetrack>
					<link>
						<linkclipref>Clip1ATK75 5</linkclipref>
						<mediatype>video</mediatype>
						<trackindex>1</trackindex>
						<clipindex>47</clipindex>
					</link>
					<link>
						<linkclipref>Clip1ATK75 6</linkclipref>
						<mediatype>audio</mediatype>
						<trackindex>1</trackindex>
						<clipindex>36</clipindex>
					</link>
					<link>
						<linkclipref>Clip1ATK75 7</linkclipref>
						<mediatype>audio</mediatype>
						<trackindex>2</trackindex>
						<clipindex>37</clipindex>
					</link>
					<fielddominance>upper</fielddominance>
					<itemhistory>
						<uuid>EE853E6B-1684-46D3-AB45-A9E5E548A4C1</uuid>
					</itemhistory>
				</clipitem>
				<clipitem id="-01_0201_01 ">
					<name>-01_0201_01</name>
					<duration>1109</duration>
					<rate>
						<ntsc>FALSE</ntsc>
						<timebase>25</timebase>
					</rate>
					<in>804</in>
					<out>881</out>
					<start>5061</start>
					<end>5138</end>
					<pixelaspectratio>Square</pixelaspectratio>
					<enabled>TRUE</enabled>
					<anamorphic>FALSE</anamorphic>
					<alphatype>none</alphatype>
					<masterclipid>-01_0201_01 1</masterclipid>
					<logginginfo>
						<scene/>
						<shottake/>
						<lognote/>
						<good>FALSE</good>
					</logginginfo>
					<labels>
						<label2/>
					</labels>
					<comments>
						<mastercomment1/>
						<mastercomment2/>
						<mastercomment3/>
						<mastercomment4/>
					</comments>
					<file id="-01_0201_01 2">
						<name>-01_0201_01.mov</name>
						<pathurl>file://localhost/Volumes/Askepott/Prosjekter/DNPR637010_Kra%CC%8Akeklubben_TEM_011212/Video/MELLOMSTIKK/S01E%20Spor%20i%20sn%C3%B8en/EX-3/-01_0201_01.mov</pathurl>
						<rate>
							<timebase>25</timebase>
						</rate>
						<duration>1109</duration>
						<metadata>
							<storage>QuickTime</storage>
							<key>com.sony.bprl.xdcamtransfer.version</key>
							<size>10</size>
							<type>UTF8</type>
							<value>2.12.0.631</value>
						</metadata>
						<metadata>
							<storage>QuickTime</storage>
							<key>org.smpte.mxf.package.material.packageid</key>
							<size>66</size>
							<type>UTF8</type>
							<value>0x060a2b340101010501010d43130000004df22d91785905dd08004602022f05fa</value>
						</metadata>
						<metadata>
							<storage>QuickTime</storage>
							<key>com.sony.professionaldisc.nonrealtimemeta.lastupdate</key>
							<size>25</size>
							<type>UTF8</type>
							<value>2012-02-21 14:37:23 +0100</value>
						</metadata>
						<metadata>
							<storage>QuickTime</storage>
							<key>com.sony.bprl.mxf.umid</key>
							<size>64</size>
							<type>UTF8</type>
							<value>060a2b340101010501010d43130000004df22d91785905dd08004602022f05fa</value>
						</metadata>
						<metadata>
							<storage>QuickTime</storage>
							<key>com.sony.bprl.mxf.nrtmetadata</key>
							<size>2011</size>
							<type>UTF8</type>
							<value>&lt;?xml version="1.0" encoding="UTF-8" standalone="yes"?>&lt;NonRealTimeMeta xmlns="urn:schemas-professionalDisc:nonRealTimeMeta:ver.1.20" xmlns:lib="urn:schemas-professionalDisc:lib:ver.1.20" xmlns:xsi="http://www.w3.org/2001/XMLSchema-instance" lastUpdate="2012-02-21T14:37:23+01:00">&lt;TargetMaterial umidRef="060A2B340101010501010D43130000004DF22D91785905DD08004602022F05FA">&lt;/TargetMaterial>&lt;Duration value="1109">&lt;/Duration>&lt;LtcChangeTable tcFps="25" halfStep="false">&lt;LtcChange frameCount="0" value="22452402" status="increment">&lt;/LtcChange>&lt;LtcChange frameCount="1108" value="05302502" status="end">&lt;/LtcChange>&lt;/LtcChangeTable>&lt;CreationDate value="2012-02-21T14:36:38+01:00">&lt;/CreationDate>&lt;TypicalUbit value="0000000020121120">&lt;/TypicalUbit>&lt;BodyUmidBasicChangeTable>&lt;BodyUmidBasicChange frameCount="0" value="060A2B340101010501010D43330000004DF22D91785905DD08004602022F05FA" status="start">&lt;/BodyUmidBasicChange>&lt;/BodyUmidBasicChangeTable>&lt;BodyUmidWhenChangeTable>&lt;BodyUmidWhenChange frameCount="0" value="843FAC04785905A5" status="increment">&lt;/BodyUmidWhenChange>&lt;BodyUmidWhenChange frameCount="1108" value="8454AD04785905A5" status="end">&lt;/BodyUmidWhenChange>&lt;/BodyUmidWhenChangeTable>&lt;KlvPacketTable>&lt;KlvPacket key="060E2B34010101050301020A02000000" frameCount="0" lengthValue="095F5265635374617274" status="spot">&lt;/KlvPacket>&lt;/KlvPacketTable>&lt;VideoFormat>&lt;VideoRecPort port="DIRECT">&lt;/VideoRecPort>&lt;VideoFrame videoCodec="MPEG2HD35_1920_1080_MP@HL" captureFps="50.00i" recFps="50.00" formatFps="50i">&lt;/VideoFrame>&lt;VideoLayout pixel="1920" numOfVerticalLine="1080" aspectRatio="16:9">&lt;/VideoLayout>&lt;/VideoFormat>&lt;AudioFormat numOfChannel="2">&lt;AudioRecPort port="ANALOG" audioCodec="LPCM16" trackDst="CH1">&lt;/AudioRecPort>&lt;AudioRecPort port="ANALOG" audioCodec="LPCM16" trackDst="CH2">&lt;/AudioRecPort>&lt;/AudioFormat>&lt;Device manufacturer="Sony" modelName="PMW-EX3" serialNo="0401530">&lt;/Device>&lt;Lens modelName="VCL-614B2X">&lt;/Lens>&lt;RecordingMode type="normal" cacheRec="false">&lt;/RecordingMode>&lt;/NonRealTimeMeta>
							</value>
						</metadata>
						<metadata>
							<storage>QuickTime</storage>
							<key>com.apple.proapps.reel</key>
							<size>8</size>
							<type>UTF8</type>
							<value>Untitled</value>
						</metadata>
						<metadata>
							<storage>QuickTime</storage>
							<key>com.apple.proapps.clipID</key>
							<size>64</size>
							<type>UTF8</type>
							<value>060A2B340101010501010D43130000004DF22D91785905DD08004602022F05FA</value>
						</metadata>
						<metadata>
							<storage>QuickTime</storage>
							<key>com.apple.quicktime.information</key>
							<size>64</size>
							<type>UTF8</type>
							<value>060a2b340101010501010d43130000004df22d91785905dd08004602022f05fa</value>
						</metadata>
						<metadata>
							<storage>QuickTime</storage>
							<key>com.apple.proapps.originalFormat</key>
							<size>36</size>
							<type>UTF8</type>
							<value>Apple XDCAM EX 1080i50 (35 Mb/s VBR)</value>
						</metadata>
						<timecode>
							<rate>
								<timebase>25</timebase>
							</rate>
							<string>02:24:45:22</string>
							<frame>217147</frame>
							<displayformat>NDF</displayformat>
							<source>source</source>
							<reel>
								<name>Untitled</name>
							</reel>
						</timecode>
						<media>
							<video>
								<duration>1109</duration>
								<samplecharacteristics>
									<width>1920</width>
									<height>1080</height>
								</samplecharacteristics>
							</video>
							<audio>
								<samplecharacteristics>
									<samplerate>48000</samplerate>
									<depth>16</depth>
								</samplecharacteristics>
								<channelcount>1</channelcount>
								<layout>mono</layout>
								<audiochannel>
									<sourcechannel>1</sourcechannel>
									<channellabel>discrete</channellabel>
								</audiochannel>
							</audio>
							<audio>
								<samplecharacteristics>
									<samplerate>48000</samplerate>
									<depth>16</depth>
								</samplecharacteristics>
								<channelcount>1</channelcount>
								<layout>mono</layout>
								<audiochannel>
									<sourcechannel>2</sourcechannel>
									<channellabel>discrete</channellabel>
								</audiochannel>
							</audio>
						</media>
					</file>
					<sourcetrack>
						<mediatype>video</mediatype>
					</sourcetrack>
					<fielddominance>upper</fielddominance>
					<itemhistory>
						<uuid>9566AF4F-A4B2-402D-9D8C-613CE010C783</uuid>
					</itemhistory>
				</clipitem>
				<clipitem id="Clip1ATK75 8">
					<name>Clip1ATK75</name>
					<duration>1507</duration>
					<rate>
						<ntsc>FALSE</ntsc>
						<timebase>25</timebase>
					</rate>
					<in>783</in>
					<out>1015</out>
					<start>5138</start>
					<end>5370</end>
					<pixelaspectratio>Square</pixelaspectratio>
					<enabled>TRUE</enabled>
					<anamorphic>FALSE</anamorphic>
					<alphatype>none</alphatype>
					<masterclipid>Clip1ATK75 1</masterclipid>
					<logginginfo>
						<scene/>
						<shottake/>
						<lognote/>
						<good>FALSE</good>
					</logginginfo>
					<labels>
						<label2/>
					</labels>
					<comments>
						<mastercomment1/>
						<mastercomment2/>
						<mastercomment3/>
						<mastercomment4/>
					</comments>
					<file id="Clip1ATK75 2"/>
					<sourcetrack>
						<mediatype>video</mediatype>
					</sourcetrack>
					<fielddominance>upper</fielddominance>
					<itemhistory>
						<uuid>190A720F-BEC5-42FE-90A8-3F57A39C8AEC</uuid>
					</itemhistory>
				</clipitem>
				<clipitem id="-01_0212_01 ">
					<name>-01_0212_01</name>
					<duration>446</duration>
					<rate>
						<ntsc>FALSE</ntsc>
						<timebase>25</timebase>
					</rate>
					<in>87</in>
					<out>236</out>
					<start>5370</start>
					<end>5519</end>
					<pixelaspectratio>Square</pixelaspectratio>
					<enabled>TRUE</enabled>
					<anamorphic>FALSE</anamorphic>
					<alphatype>none</alphatype>
					<masterclipid>-01_0212_01 1</masterclipid>
					<logginginfo>
						<scene/>
						<shottake/>
						<lognote/>
						<good>FALSE</good>
					</logginginfo>
					<labels>
						<label2/>
					</labels>
					<comments>
						<mastercomment1/>
						<mastercomment2/>
						<mastercomment3/>
						<mastercomment4/>
					</comments>
					<file id="-01_0212_01 2">
						<name>-01_0212_01.mov</name>
						<pathurl>file://localhost/Volumes/Askepott/Prosjekter/DNPR637010_Kra%CC%8Akeklubben_TEM_011212/Video/MELLOMSTIKK/S01E%20Spor%20i%20sn%C3%B8en/EX-3/-01_0212_01.mov</pathurl>
						<rate>
							<timebase>25</timebase>
						</rate>
						<duration>446</duration>
						<metadata>
							<storage>QuickTime</storage>
							<key>com.sony.bprl.xdcamtransfer.version</key>
							<size>10</size>
							<type>UTF8</type>
							<value>2.12.0.631</value>
						</metadata>
						<metadata>
							<storage>QuickTime</storage>
							<key>org.smpte.mxf.package.material.packageid</key>
							<size>66</size>
							<type>UTF8</type>
							<value>0x060a2b340101010501010d43130000009f83ed93785905dd08004602022f05fa</value>
						</metadata>
						<metadata>
							<storage>QuickTime</storage>
							<key>com.sony.professionaldisc.nonrealtimemeta.lastupdate</key>
							<size>25</size>
							<type>UTF8</type>
							<value>2012-02-21 14:52:24 +0100</value>
						</metadata>
						<metadata>
							<storage>QuickTime</storage>
							<key>com.sony.bprl.mxf.umid</key>
							<size>64</size>
							<type>UTF8</type>
							<value>060a2b340101010501010d43130000009f83ed93785905dd08004602022f05fa</value>
						</metadata>
						<metadata>
							<storage>QuickTime</storage>
							<key>com.sony.bprl.mxf.nrtmetadata</key>
							<size>2008</size>
							<type>UTF8</type>
							<value>&lt;?xml version="1.0" encoding="UTF-8" standalone="yes"?>&lt;NonRealTimeMeta xmlns="urn:schemas-professionalDisc:nonRealTimeMeta:ver.1.20" xmlns:lib="urn:schemas-professionalDisc:lib:ver.1.20" xmlns:xsi="http://www.w3.org/2001/XMLSchema-instance" lastUpdate="2012-02-21T14:52:24+01:00">&lt;TargetMaterial umidRef="060A2B340101010501010D43130000009F83ED93785905DD08004602022F05FA">&lt;/TargetMaterial>&lt;Duration value="446">&lt;/Duration>&lt;LtcChangeTable tcFps="25" halfStep="false">&lt;LtcChange frameCount="0" value="16382902" status="increment">&lt;/LtcChange>&lt;LtcChange frameCount="445" value="11562902" status="end">&lt;/LtcChange>&lt;/LtcChangeTable>&lt;CreationDate value="2012-02-21T14:52:05+01:00">&lt;/CreationDate>&lt;TypicalUbit value="0000000020121120">&lt;/TypicalUbit>&lt;BodyUmidBasicChangeTable>&lt;BodyUmidBasicChange frameCount="0" value="060A2B340101010501010D43330000009F83ED93785905DD08004602022F05FA" status="start">&lt;/BodyUmidBasicChange>&lt;/BodyUmidBasicChangeTable>&lt;BodyUmidWhenChangeTable>&lt;BodyUmidWhenChange frameCount="0" value="04E5C204785905A5" status="increment">&lt;/BodyUmidWhenChange>&lt;BodyUmidWhenChange frameCount="445" value="4454C304785905A5" status="end">&lt;/BodyUmidWhenChange>&lt;/BodyUmidWhenChangeTable>&lt;KlvPacketTable>&lt;KlvPacket key="060E2B34010101050301020A02000000" frameCount="0" lengthValue="095F5265635374617274" status="spot">&lt;/KlvPacket>&lt;/KlvPacketTable>&lt;VideoFormat>&lt;VideoRecPort port="DIRECT">&lt;/VideoRecPort>&lt;VideoFrame videoCodec="MPEG2HD35_1920_1080_MP@HL" captureFps="50.00i" recFps="50.00" formatFps="50i">&lt;/VideoFrame>&lt;VideoLayout pixel="1920" numOfVerticalLine="1080" aspectRatio="16:9">&lt;/VideoLayout>&lt;/VideoFormat>&lt;AudioFormat numOfChannel="2">&lt;AudioRecPort port="ANALOG" audioCodec="LPCM16" trackDst="CH1">&lt;/AudioRecPort>&lt;AudioRecPort port="ANALOG" audioCodec="LPCM16" trackDst="CH2">&lt;/AudioRecPort>&lt;/AudioFormat>&lt;Device manufacturer="Sony" modelName="PMW-EX3" serialNo="0401530">&lt;/Device>&lt;Lens modelName="VCL-614B2X">&lt;/Lens>&lt;RecordingMode type="normal" cacheRec="false">&lt;/RecordingMode>&lt;/NonRealTimeMeta>
							</value>
						</metadata>
						<metadata>
							<storage>QuickTime</storage>
							<key>com.apple.proapps.reel</key>
							<size>8</size>
							<type>UTF8</type>
							<value>Untitled</value>
						</metadata>
						<metadata>
							<storage>QuickTime</storage>
							<key>com.apple.proapps.clipID</key>
							<size>64</size>
							<type>UTF8</type>
							<value>060A2B340101010501010D43130000009F83ED93785905DD08004602022F05FA</value>
						</metadata>
						<metadata>
							<storage>QuickTime</storage>
							<key>com.apple.quicktime.information</key>
							<size>64</size>
							<type>UTF8</type>
							<value>060a2b340101010501010d43130000009f83ed93785905dd08004602022f05fa</value>
						</metadata>
						<metadata>
							<storage>QuickTime</storage>
							<key>com.apple.proapps.originalFormat</key>
							<size>36</size>
							<type>UTF8</type>
							<value>Apple XDCAM EX 1080i50 (35 Mb/s VBR)</value>
						</metadata>
						<timecode>
							<rate>
								<timebase>25</timebase>
							</rate>
							<string>02:29:38:16</string>
							<frame>224466</frame>
							<displayformat>NDF</displayformat>
							<source>source</source>
							<reel>
								<name>Untitled</name>
							</reel>
						</timecode>
						<media>
							<video>
								<duration>446</duration>
								<samplecharacteristics>
									<width>1920</width>
									<height>1080</height>
								</samplecharacteristics>
							</video>
							<audio>
								<samplecharacteristics>
									<samplerate>48000</samplerate>
									<depth>16</depth>
								</samplecharacteristics>
								<channelcount>1</channelcount>
								<layout>mono</layout>
								<audiochannel>
									<sourcechannel>1</sourcechannel>
									<channellabel>discrete</channellabel>
								</audiochannel>
							</audio>
							<audio>
								<samplecharacteristics>
									<samplerate>48000</samplerate>
									<depth>16</depth>
								</samplecharacteristics>
								<channelcount>1</channelcount>
								<layout>mono</layout>
								<audiochannel>
									<sourcechannel>2</sourcechannel>
									<channellabel>discrete</channellabel>
								</audiochannel>
							</audio>
						</media>
					</file>
					<sourcetrack>
						<mediatype>video</mediatype>
					</sourcetrack>
					<fielddominance>upper</fielddominance>
					<itemhistory>
						<uuid>A3F6B89F-F6B3-4290-ADD6-C1C18D8A3DB4</uuid>
					</itemhistory>
				</clipitem>
				<clipitem id="Clip1ATK75 9">
					<name>Clip1ATK75</name>
					<duration>1507</duration>
					<rate>
						<ntsc>FALSE</ntsc>
						<timebase>25</timebase>
					</rate>
					<in>1164</in>
					<out>1443</out>
					<start>5519</start>
					<end>5798</end>
					<pixelaspectratio>Square</pixelaspectratio>
					<enabled>TRUE</enabled>
					<anamorphic>FALSE</anamorphic>
					<alphatype>none</alphatype>
					<masterclipid>Clip1ATK75 1</masterclipid>
					<logginginfo>
						<scene/>
						<shottake/>
						<lognote/>
						<good>FALSE</good>
					</logginginfo>
					<labels>
						<label2/>
					</labels>
					<comments>
						<mastercomment1/>
						<mastercomment2/>
						<mastercomment3/>
						<mastercomment4/>
					</comments>
					<file id="Clip1ATK75 2"/>
					<sourcetrack>
						<mediatype>video</mediatype>
					</sourcetrack>
					<fielddominance>upper</fielddominance>
					<itemhistory>
						<uuid>4542FBEB-88AE-4E9F-B245-46144973526C</uuid>
					</itemhistory>
				</clipitem>
				<clipitem id="Clip1ATK64 ">
					<name>Clip1ATK64</name>
					<duration>309</duration>
					<rate>
						<ntsc>FALSE</ntsc>
						<timebase>25</timebase>
					</rate>
					<in>198</in>
					<out>249</out>
					<start>5798</start>
					<end>-1</end>
					<pixelaspectratio>Square</pixelaspectratio>
					<enabled>TRUE</enabled>
					<anamorphic>FALSE</anamorphic>
					<alphatype>none</alphatype>
					<masterclipid>Clip1ATK64 1</masterclipid>
					<logginginfo>
						<scene/>
						<shottake/>
						<lognote/>
						<good>FALSE</good>
					</logginginfo>
					<labels>
						<label2/>
					</labels>
					<comments>
						<mastercomment1/>
						<mastercomment2/>
						<mastercomment3/>
						<mastercomment4/>
					</comments>
					<file id="Clip1ATK64 2">
						<name>Clip1ATK64.mov</name>
						<pathurl>file://localhost/Volumes/Askepott/Prosjekter/DNPR637010_Kra%CC%8Akeklubben_TEM_011212/Video/MELLOMSTIKK/S01E%20Spor%20i%20sn%C3%B8en/AJA/Clip1ATK64.mov</pathurl>
						<rate>
							<timebase>25</timebase>
						</rate>
						<duration>309</duration>
						<timecode>
							<rate>
								<timebase>25</timebase>
							</rate>
							<string>22:55:12:10</string>
							<frame>2062810</frame>
							<displayformat>NDF</displayformat>
							<source>source</source>
							<reel>
								<name>1</name>
							</reel>
						</timecode>
						<media>
							<video>
								<duration>309</duration>
								<samplecharacteristics>
									<width>1920</width>
									<height>1080</height>
								</samplecharacteristics>
							</video>
							<audio>
								<samplecharacteristics>
									<samplerate>48000</samplerate>
									<depth>24</depth>
								</samplecharacteristics>
								<channelcount>1</channelcount>
							</audio>
							<audio>
								<samplecharacteristics>
									<samplerate>48000</samplerate>
									<depth>24</depth>
								</samplecharacteristics>
								<channelcount>1</channelcount>
							</audio>
						</media>
					</file>
					<sourcetrack>
						<mediatype>video</mediatype>
					</sourcetrack>
					<fielddominance>upper</fielddominance>
					<itemhistory>
						<uuid>8B6DD3F9-0E02-4B39-8B99-624B7D33D267</uuid>
					</itemhistory>
				</clipitem>
				<transitionitem>
					<rate>
						<ntsc>FALSE</ntsc>
						<timebase>25</timebase>
					</rate>
					<start>5824</start>
					<end>5849</end>
					<alignment>center</alignment>
					<effect>
						<name>Cross Dissolve</name>
						<effectid>Cross Dissolve</effectid>
						<effectcategory>Dissolve</effectcategory>
						<effecttype>transition</effecttype>
						<mediatype>video</mediatype>
						<wipecode>0</wipecode>
						<wipeaccuracy>100</wipeaccuracy>
						<startratio>0</startratio>
						<endratio>1</endratio>
						<reverse>FALSE</reverse>
					</effect>
				</transitionitem>
				<clipitem id="Clip1ATK95 ">
					<name>Clip1ATK95</name>
					<duration>358</duration>
					<rate>
						<ntsc>FALSE</ntsc>
						<timebase>25</timebase>
					</rate>
					<in>113</in>
					<out>256</out>
					<start>-1</start>
					<end>5967</end>
					<pixelaspectratio>Square</pixelaspectratio>
					<enabled>TRUE</enabled>
					<anamorphic>FALSE</anamorphic>
					<alphatype>none</alphatype>
					<masterclipid>Clip1ATK95 1</masterclipid>
					<logginginfo>
						<scene/>
						<shottake/>
						<lognote/>
						<good>FALSE</good>
					</logginginfo>
					<labels>
						<label2/>
					</labels>
					<comments>
						<mastercomment1/>
						<mastercomment2/>
						<mastercomment3/>
						<mastercomment4/>
					</comments>
					<file id="Clip1ATK95 2">
						<name>Clip1ATK95.mov</name>
						<pathurl>file://localhost/Volumes/Askepott/Prosjekter/DNPR637010_Kra%CC%8Akeklubben_TEM_011212/Video/MELLOMSTIKK/S01E%20Spor%20i%20sn%C3%B8en/AJA/Clip1ATK95.mov</pathurl>
						<rate>
							<timebase>25</timebase>
						</rate>
						<duration>358</duration>
						<timecode>
							<rate>
								<timebase>25</timebase>
							</rate>
							<string>02:34:17:07</string>
							<frame>231432</frame>
							<displayformat>NDF</displayformat>
							<source>source</source>
							<reel>
								<name>1</name>
							</reel>
						</timecode>
						<media>
							<video>
								<duration>358</duration>
								<samplecharacteristics>
									<width>1920</width>
									<height>1080</height>
								</samplecharacteristics>
							</video>
							<audio>
								<samplecharacteristics>
									<samplerate>48000</samplerate>
									<depth>24</depth>
								</samplecharacteristics>
								<channelcount>1</channelcount>
							</audio>
							<audio>
								<samplecharacteristics>
									<samplerate>48000</samplerate>
									<depth>24</depth>
								</samplecharacteristics>
								<channelcount>1</channelcount>
							</audio>
						</media>
					</file>
					<filter>
						<enabled>TRUE</enabled>
						<start>-1</start>
						<end>-1</end>
						<effect>
							<name>Color leter fotspor</name>
							<effectid>Color Corrector 3-way</effectid>
							<effectcategory>Color Correction</effectcategory>
							<effecttype>filter</effecttype>
							<mediatype>video</mediatype>
							<parameter>
								<parameterid>dispmode</parameterid>
								<name>Display Mode</name>
								<valuemin>1</valuemin>
								<valuemax>3</valuemax>
								<valuelist>
									<valueentry>
										<name>Final</name>
										<value>1</value>
									</valueentry>
									<valueentry>
										<name>Matte</name>
										<value>2</value>
									</valueentry>
									<valueentry>
										<name>Source</name>
										<value>3</value>
									</valueentry>
								</valuelist>
								<value>1</value>
							</parameter>
							<parameter>
								<parameterid>label1</parameterid>
								<name>Blacks Controls</name>
								<value/>
							</parameter>
							<parameter>
								<parameterid>blacklevel</parameterid>
								<name>Level</name>
								<valuemin>-196</valuemin>
								<valuemax>254</valuemax>
								<value>0</value>
							</parameter>
							<parameter>
								<parameterid>b_hue</parameterid>
								<name>Angle</name>
								<valuemin>-180</valuemin>
								<valuemax>180</valuemax>
								<value>-33</value>
							</parameter>
							<parameter>
								<parameterid>b_mag</parameterid>
								<name>Magnitude</name>
								<valuemin>0</valuemin>
								<valuemax>200</valuemax>
								<value>0</value>
							</parameter>
							<parameter>
								<parameterid>label2</parameterid>
								<name>Midrange Controls</name>
								<value/>
							</parameter>
							<parameter>
								<parameterid>mids</parameterid>
								<name>Level</name>
								<valuemin>0</valuemin>
								<valuemax>200</valuemax>
								<value>125</value>
							</parameter>
							<parameter>
								<parameterid>m_hue</parameterid>
								<name>Angle</name>
								<valuemin>-180</valuemin>
								<valuemax>180</valuemax>
								<value>-33</value>
							</parameter>
							<parameter>
								<parameterid>m_mag</parameterid>
								<name>Magnitude</name>
								<valuemin>0</valuemin>
								<valuemax>200</valuemax>
								<value>0</value>
							</parameter>
							<parameter>
								<parameterid>label3</parameterid>
								<name>Highlight Controls</name>
								<value/>
							</parameter>
							<parameter>
								<parameterid>highlights</parameterid>
								<name>Level</name>
								<valuemin>64</valuemin>
								<valuemax>509</valuemax>
								<value>255</value>
							</parameter>
							<parameter>
								<parameterid>h_hue</parameterid>
								<name>Angle</name>
								<valuemin>-180</valuemin>
								<valuemax>180</valuemax>
								<value>-33</value>
							</parameter>
							<parameter>
								<parameterid>h_mag</parameterid>
								<name>Magnitude</name>
								<valuemin>0</valuemin>
								<valuemax>200</valuemax>
								<value>0</value>
							</parameter>
							<parameter>
								<parameterid>label4</parameterid>
								<name>Color Controls</name>
								<value/>
							</parameter>
							<parameter>
								<parameterid>chroma</parameterid>
								<name>Saturation</name>
								<valuemin>0</valuemin>
								<valuemax>200</valuemax>
								<value>112</value>
							</parameter>
							<parameter>
								<parameterid>label5</parameterid>
								<name>Limit Effect Controls</name>
								<value/>
							</parameter>
							<parameter>
								<parameterid>dochroma</parameterid>
								<name>Limit on Chroma</name>
								<value>FALSE</value>
							</parameter>
							<parameter>
								<parameterid>centerang</parameterid>
								<name>Chroma Center</name>
								<valuemin>-760</valuemin>
								<valuemax>760</valuemax>
								<value>-110</value>
							</parameter>
							<parameter>
								<parameterid>chromawidth</parameterid>
								<name>Chroma Width</name>
								<valuemin>0</valuemin>
								<valuemax>360</valuemax>
								<value>15</value>
							</parameter>
							<parameter>
								<parameterid>chromasoft</parameterid>
								<name>Chroma Softness</name>
								<valuemin>0</valuemin>
								<valuemax>180</valuemax>
								<value>10</value>
							</parameter>
							<parameter>
								<parameterid>dosat</parameterid>
								<name>Limit on Saturation</name>
								<value>FALSE</value>
							</parameter>
							<parameter>
								<parameterid>satmin</parameterid>
								<name>Sat. Minimum</name>
								<valuemin>0</valuemin>
								<valuemax>125</valuemax>
								<value>35</value>
							</parameter>
							<parameter>
								<parameterid>satwidth</parameterid>
								<name>Sat. Width</name>
								<valuemin>0</valuemin>
								<valuemax>125</valuemax>
								<value>40</value>
							</parameter>
							<parameter>
								<parameterid>satsoft</parameterid>
								<name>Sat. Softness</name>
								<valuemin>0</valuemin>
								<valuemax>125</valuemax>
								<value>20</value>
							</parameter>
							<parameter>
								<parameterid>doluma</parameterid>
								<name>Limit on Luma</name>
								<value>FALSE</value>
							</parameter>
							<parameter>
								<parameterid>lumamin</parameterid>
								<name>Luma Minimum</name>
								<valuemin>0</valuemin>
								<valuemax>120</valuemax>
								<value>0</value>
							</parameter>
							<parameter>
								<parameterid>lumawidth</parameterid>
								<name>Luma Width</name>
								<valuemin>0</valuemin>
								<valuemax>120</valuemax>
								<value>40</value>
							</parameter>
							<parameter>
								<parameterid>lumasoft</parameterid>
								<name>Luma Softness</name>
								<valuemin>0</valuemin>
								<valuemax>120</valuemax>
								<value>20</value>
							</parameter>
							<parameter>
								<parameterid>label6</parameterid>
								<name>Edge Control</name>
								<value/>
							</parameter>
							<parameter>
								<parameterid>edgethin</parameterid>
								<name>Thin/Spread</name>
								<valuemin>-100</valuemin>
								<valuemax>100</valuemax>
								<value>0</value>
							</parameter>
							<parameter>
								<parameterid>edgefeather</parameterid>
								<name>Softening</name>
								<valuemin>0</valuemin>
								<valuemax>100</valuemax>
								<value>0</value>
							</parameter>
							<parameter>
								<parameterid>label7</parameterid>
								<name>Mask Control</name>
								<value/>
							</parameter>
							<parameter>
								<parameterid>invertsel</parameterid>
								<name>Invert</name>
								<value>FALSE</value>
							</parameter>
							<parameter>
								<parameterid>debugshow</parameterid>
								<name>Show Stats</name>
								<value>FALSE</value>
							</parameter>
						</effect>
					</filter>
					<sourcetrack>
						<mediatype>video</mediatype>
					</sourcetrack>
					<fielddominance>upper</fielddominance>
					<itemhistory>
						<uuid>0644E713-CF4A-4A34-9A9C-B35E9BD53533</uuid>
					</itemhistory>
				</clipitem>
				<clipitem id="Clip1ATK91 ">
					<name>Clip1ATK91</name>
					<duration>548</duration>
					<rate>
						<ntsc>FALSE</ntsc>
						<timebase>25</timebase>
					</rate>
					<in>222</in>
					<out>352</out>
					<start>5967</start>
					<end>6097</end>
					<pixelaspectratio>Square</pixelaspectratio>
					<enabled>TRUE</enabled>
					<anamorphic>FALSE</anamorphic>
					<alphatype>none</alphatype>
					<masterclipid>Clip1ATK91 1</masterclipid>
					<logginginfo>
						<scene/>
						<shottake/>
						<lognote/>
						<good>FALSE</good>
					</logginginfo>
					<labels>
						<label2/>
					</labels>
					<comments>
						<mastercomment1/>
						<mastercomment2/>
						<mastercomment3/>
						<mastercomment4/>
					</comments>
					<file id="Clip1ATK91 2">
						<name>Clip1ATK91.mov</name>
						<pathurl>file://localhost/Volumes/Askepott/Prosjekter/DNPR637010_Kra%CC%8Akeklubben_TEM_011212/Video/MELLOMSTIKK/S01E%20Spor%20i%20sn%C3%B8en/AJA/Clip1ATK91.mov</pathurl>
						<rate>
							<timebase>25</timebase>
						</rate>
						<duration>548</duration>
						<timecode>
							<rate>
								<timebase>25</timebase>
							</rate>
							<string>02:32:53:20</string>
							<frame>229345</frame>
							<displayformat>NDF</displayformat>
							<source>source</source>
							<reel>
								<name>1</name>
							</reel>
						</timecode>
						<media>
							<video>
								<duration>548</duration>
								<samplecharacteristics>
									<width>1920</width>
									<height>1080</height>
								</samplecharacteristics>
							</video>
							<audio>
								<samplecharacteristics>
									<samplerate>48000</samplerate>
									<depth>24</depth>
								</samplecharacteristics>
								<channelcount>1</channelcount>
							</audio>
							<audio>
								<samplecharacteristics>
									<samplerate>48000</samplerate>
									<depth>24</depth>
								</samplecharacteristics>
								<channelcount>1</channelcount>
							</audio>
						</media>
					</file>
					<sourcetrack>
						<mediatype>video</mediatype>
					</sourcetrack>
					<link>
						<linkclipref>Clip1ATK91 </linkclipref>
						<mediatype>video</mediatype>
						<trackindex>1</trackindex>
						<clipindex>55</clipindex>
					</link>
					<link>
						<linkclipref>Clip1ATK91 3</linkclipref>
						<mediatype>audio</mediatype>
						<trackindex>1</trackindex>
						<clipindex>37</clipindex>
					</link>
					<link>
						<linkclipref>Clip1ATK91 4</linkclipref>
						<mediatype>audio</mediatype>
						<trackindex>2</trackindex>
						<clipindex>39</clipindex>
					</link>
					<fielddominance>upper</fielddominance>
					<itemhistory>
						<uuid>A2C19619-1E4F-420F-A105-4B5B25EA41E3</uuid>
					</itemhistory>
				</clipitem>
				<clipitem id="-01_0218_01 ">
					<name>-01_0218_01</name>
					<duration>767</duration>
					<rate>
						<ntsc>FALSE</ntsc>
						<timebase>25</timebase>
					</rate>
					<in>217</in>
					<out>682</out>
					<start>6097</start>
					<end>6562</end>
					<pixelaspectratio>Square</pixelaspectratio>
					<enabled>TRUE</enabled>
					<anamorphic>FALSE</anamorphic>
					<alphatype>none</alphatype>
					<masterclipid>-01_0218_01 1</masterclipid>
					<logginginfo>
						<scene/>
						<shottake/>
						<lognote/>
						<good>FALSE</good>
					</logginginfo>
					<labels>
						<label2/>
					</labels>
					<comments>
						<mastercomment1/>
						<mastercomment2/>
						<mastercomment3/>
						<mastercomment4/>
					</comments>
					<file id="-01_0218_01 2">
						<name>-01_0218_01.mov</name>
						<pathurl>file://localhost/Volumes/Askepott/Prosjekter/DNPR637010_Kra%CC%8Akeklubben_TEM_011212/Video/MELLOMSTIKK/S01E%20Spor%20i%20sn%C3%B8en/EX-3/-01_0218_01.mov</pathurl>
						<rate>
							<timebase>25</timebase>
						</rate>
						<duration>767</duration>
						<metadata>
							<storage>QuickTime</storage>
							<key>com.sony.bprl.xdcamtransfer.version</key>
							<size>10</size>
							<type>UTF8</type>
							<value>2.12.0.631</value>
						</metadata>
						<metadata>
							<storage>QuickTime</storage>
							<key>org.smpte.mxf.package.material.packageid</key>
							<size>66</size>
							<type>UTF8</type>
							<value>0x060a2b340101010501010d43130000008d3bcc95785905c808004602022f05fa</value>
						</metadata>
						<metadata>
							<storage>QuickTime</storage>
							<key>com.sony.professionaldisc.nonrealtimemeta.lastupdate</key>
							<size>25</size>
							<type>UTF8</type>
							<value>2012-02-21 15:03:08 +0100</value>
						</metadata>
						<metadata>
							<storage>QuickTime</storage>
							<key>com.sony.bprl.mxf.umid</key>
							<size>64</size>
							<type>UTF8</type>
							<value>060a2b340101010501010d43130000008d3bcc95785905c808004602022f05fa</value>
						</metadata>
						<metadata>
							<storage>QuickTime</storage>
							<key>com.sony.bprl.mxf.nrtmetadata</key>
							<size>2008</size>
							<type>UTF8</type>
							<value>&lt;?xml version="1.0" encoding="UTF-8" standalone="yes"?>&lt;NonRealTimeMeta xmlns="urn:schemas-professionalDisc:nonRealTimeMeta:ver.1.20" xmlns:lib="urn:schemas-professionalDisc:lib:ver.1.20" xmlns:xsi="http://www.w3.org/2001/XMLSchema-instance" lastUpdate="2012-02-21T15:03:08+01:00">&lt;TargetMaterial umidRef="060A2B340101010501010D43130000008D3BCC95785905C808004602022F05FA">&lt;/TargetMaterial>&lt;Duration value="767">&lt;/Duration>&lt;LtcChangeTable tcFps="25" halfStep="false">&lt;LtcChange frameCount="0" value="03573002" status="increment">&lt;/LtcChange>&lt;LtcChange frameCount="766" value="19273102" status="end">&lt;/LtcChange>&lt;/LtcChangeTable>&lt;CreationDate value="2012-02-21T15:02:36+01:00">&lt;/CreationDate>&lt;TypicalUbit value="0000000020121120">&lt;/TypicalUbit>&lt;BodyUmidBasicChangeTable>&lt;BodyUmidBasicChange frameCount="0" value="060A2B340101010501010D43330000008D3BCC95785905C808004602022F05FA" status="start">&lt;/BodyUmidBasicChange>&lt;/BodyUmidBasicChangeTable>&lt;BodyUmidWhenChangeTable>&lt;BodyUmidWhenChange frameCount="0" value="C44DD204785905A5" status="increment">&lt;/BodyUmidWhenChange>&lt;BodyUmidWhenChange frameCount="766" value="440DD304785905A5" status="end">&lt;/BodyUmidWhenChange>&lt;/BodyUmidWhenChangeTable>&lt;KlvPacketTable>&lt;KlvPacket key="060E2B34010101050301020A02000000" frameCount="0" lengthValue="095F5265635374617274" status="spot">&lt;/KlvPacket>&lt;/KlvPacketTable>&lt;VideoFormat>&lt;VideoRecPort port="DIRECT">&lt;/VideoRecPort>&lt;VideoFrame videoCodec="MPEG2HD35_1920_1080_MP@HL" captureFps="50.00i" recFps="50.00" formatFps="50i">&lt;/VideoFrame>&lt;VideoLayout pixel="1920" numOfVerticalLine="1080" aspectRatio="16:9">&lt;/VideoLayout>&lt;/VideoFormat>&lt;AudioFormat numOfChannel="2">&lt;AudioRecPort port="ANALOG" audioCodec="LPCM16" trackDst="CH1">&lt;/AudioRecPort>&lt;AudioRecPort port="ANALOG" audioCodec="LPCM16" trackDst="CH2">&lt;/AudioRecPort>&lt;/AudioFormat>&lt;Device manufacturer="Sony" modelName="PMW-EX3" serialNo="0401530">&lt;/Device>&lt;Lens modelName="VCL-614B2X">&lt;/Lens>&lt;RecordingMode type="normal" cacheRec="false">&lt;/RecordingMode>&lt;/NonRealTimeMeta>
							</value>
						</metadata>
						<metadata>
							<storage>QuickTime</storage>
							<key>com.apple.proapps.reel</key>
							<size>8</size>
							<type>UTF8</type>
							<value>Untitled</value>
						</metadata>
						<metadata>
							<storage>QuickTime</storage>
							<key>com.apple.proapps.clipID</key>
							<size>64</size>
							<type>UTF8</type>
							<value>060A2B340101010501010D43130000008D3BCC95785905C808004602022F05FA</value>
						</metadata>
						<metadata>
							<storage>QuickTime</storage>
							<key>com.apple.quicktime.information</key>
							<size>64</size>
							<type>UTF8</type>
							<value>060a2b340101010501010d43130000008d3bcc95785905c808004602022f05fa</value>
						</metadata>
						<metadata>
							<storage>QuickTime</storage>
							<key>com.apple.proapps.originalFormat</key>
							<size>36</size>
							<type>UTF8</type>
							<value>Apple XDCAM EX 1080i50 (35 Mb/s VBR)</value>
						</metadata>
						<timecode>
							<rate>
								<timebase>25</timebase>
							</rate>
							<string>02:30:57:03</string>
							<frame>226428</frame>
							<displayformat>NDF</displayformat>
							<source>source</source>
							<reel>
								<name>Untitled</name>
							</reel>
						</timecode>
						<media>
							<video>
								<duration>767</duration>
								<samplecharacteristics>
									<width>1920</width>
									<height>1080</height>
								</samplecharacteristics>
							</video>
							<audio>
								<samplecharacteristics>
									<samplerate>48000</samplerate>
									<depth>16</depth>
								</samplecharacteristics>
								<channelcount>1</channelcount>
								<layout>mono</layout>
								<audiochannel>
									<sourcechannel>1</sourcechannel>
									<channellabel>discrete</channellabel>
								</audiochannel>
							</audio>
							<audio>
								<samplecharacteristics>
									<samplerate>48000</samplerate>
									<depth>16</depth>
								</samplecharacteristics>
								<channelcount>1</channelcount>
								<layout>mono</layout>
								<audiochannel>
									<sourcechannel>2</sourcechannel>
									<channellabel>discrete</channellabel>
								</audiochannel>
							</audio>
						</media>
					</file>
					<sourcetrack>
						<mediatype>video</mediatype>
					</sourcetrack>
					<link>
						<linkclipref>-01_0218_01 </linkclipref>
						<mediatype>video</mediatype>
						<trackindex>1</trackindex>
						<clipindex>56</clipindex>
					</link>
					<link>
						<linkclipref>-01_0218_01 3</linkclipref>
						<mediatype>audio</mediatype>
						<trackindex>1</trackindex>
						<clipindex>38</clipindex>
					</link>
					<link>
						<linkclipref>-01_0218_01 4</linkclipref>
						<mediatype>audio</mediatype>
						<trackindex>2</trackindex>
						<clipindex>40</clipindex>
					</link>
					<fielddominance>upper</fielddominance>
					<itemhistory>
						<uuid>DB45842D-CFFB-47CF-8816-A81917E6C243</uuid>
					</itemhistory>
				</clipitem>
				<clipitem id="Clip1ATK92 ">
					<name>Clip1ATK92</name>
					<duration>627</duration>
					<rate>
						<ntsc>FALSE</ntsc>
						<timebase>25</timebase>
					</rate>
					<in>186</in>
					<out>244</out>
					<start>6562</start>
					<end>6620</end>
					<pixelaspectratio>Square</pixelaspectratio>
					<enabled>TRUE</enabled>
					<anamorphic>FALSE</anamorphic>
					<alphatype>none</alphatype>
					<masterclipid>Clip1ATK92 1</masterclipid>
					<logginginfo>
						<scene/>
						<shottake/>
						<lognote/>
						<good>FALSE</good>
					</logginginfo>
					<labels>
						<label2/>
					</labels>
					<comments>
						<mastercomment1/>
						<mastercomment2/>
						<mastercomment3/>
						<mastercomment4/>
					</comments>
					<file id="Clip1ATK92 2">
						<name>Clip1ATK92.mov</name>
						<pathurl>file://localhost/Volumes/Askepott/Prosjekter/DNPR637010_Kra%CC%8Akeklubben_TEM_011212/Video/MELLOMSTIKK/S01E%20Spor%20i%20sn%C3%B8en/AJA/Clip1ATK92.mov</pathurl>
						<rate>
							<timebase>25</timebase>
						</rate>
						<duration>627</duration>
						<timecode>
							<rate>
								<timebase>25</timebase>
							</rate>
							<string>02:33:15:22</string>
							<frame>229897</frame>
							<displayformat>NDF</displayformat>
							<source>source</source>
							<reel>
								<name>1</name>
							</reel>
						</timecode>
						<media>
							<video>
								<duration>627</duration>
								<samplecharacteristics>
									<width>1920</width>
									<height>1080</height>
								</samplecharacteristics>
							</video>
							<audio>
								<samplecharacteristics>
									<samplerate>48000</samplerate>
									<depth>24</depth>
								</samplecharacteristics>
								<channelcount>1</channelcount>
							</audio>
							<audio>
								<samplecharacteristics>
									<samplerate>48000</samplerate>
									<depth>24</depth>
								</samplecharacteristics>
								<channelcount>1</channelcount>
							</audio>
						</media>
					</file>
					<filter>
						<start>-1</start>
						<end>-1</end>
						<effect>
							<name>Flop</name>
							<effectid>Flop</effectid>
							<effectcategory>Perspective</effectcategory>
							<effecttype>filter</effecttype>
							<mediatype>video</mediatype>
							<parameter>
								<parameterid>flop</parameterid>
								<name>Flop</name>
								<valuemin>1</valuemin>
								<valuemax>3</valuemax>
								<valuelist>
									<valueentry>
										<name>Horizontal</name>
										<value>1</value>
									</valueentry>
									<valueentry>
										<name>Vertical</name>
										<value>2</value>
									</valueentry>
									<valueentry>
										<name>Both</name>
										<value>3</value>
									</valueentry>
								</valuelist>
								<value>1</value>
							</parameter>
						</effect>
					</filter>
					<filter>
						<effect>
							<name>Basic Motion</name>
							<effectid>basic</effectid>
							<effectcategory>motion</effectcategory>
							<effecttype>motion</effecttype>
							<mediatype>video</mediatype>
							<parameter>
								<parameterid>scale</parameterid>
								<name>Scale</name>
								<valuemin>0</valuemin>
								<valuemax>1000</valuemax>
								<value>108</value>
							</parameter>
							<parameter>
								<parameterid>rotation</parameterid>
								<name>Rotation</name>
								<valuemin>-8640</valuemin>
								<valuemax>8640</valuemax>
								<value>0</value>
							</parameter>
							<parameter>
								<parameterid>center</parameterid>
								<name>Center</name>
								<value>
									<horiz>0</horiz>
									<vert>0</vert>
								</value>
							</parameter>
							<parameter>
								<parameterid>centerOffset</parameterid>
								<name>Anchor Point</name>
								<value>
									<horiz>0</horiz>
									<vert>0</vert>
								</value>
							</parameter>
						</effect>
					</filter>
					<filter>
						<enabled>FALSE</enabled>
						<effect>
							<name>Drop Shadow</name>
							<effectid>dropshadow</effectid>
							<effectcategory>motion</effectcategory>
							<effecttype>motion</effecttype>
							<mediatype>video</mediatype>
							<parameter>
								<parameterid>offset</parameterid>
								<name>offset</name>
								<valuemin>-100</valuemin>
								<valuemax>100</valuemax>
								<value>2</value>
							</parameter>
							<parameter>
								<parameterid>angle</parameterid>
								<name>angle</name>
								<valuemin>-720</valuemin>
								<valuemax>720</valuemax>
								<value>135</value>
							</parameter>
							<parameter>
								<parameterid>color</parameterid>
								<name>color</name>
								<value>
									<alpha>0</alpha>
									<red>0</red>
									<green>0</green>
									<blue>0</blue>
								</value>
							</parameter>
							<parameter>
								<parameterid>softness</parameterid>
								<name>softness</name>
								<valuemin>0</valuemin>
								<valuemax>100</valuemax>
								<value>10</value>
							</parameter>
							<parameter>
								<parameterid>opacity</parameterid>
								<name>opacity</name>
								<valuemin>0</valuemin>
								<valuemax>100</valuemax>
								<value>50</value>
							</parameter>
						</effect>
					</filter>
					<filter>
						<enabled>FALSE</enabled>
						<effect>
							<name>Motion Blur</name>
							<effectid>motionblur</effectid>
							<effectcategory>motion</effectcategory>
							<effecttype>motion</effecttype>
							<mediatype>video</mediatype>
							<parameter>
								<parameterid>duration</parameterid>
								<name>% Blur</name>
								<valuemin>0</valuemin>
								<valuemax>1000</valuemax>
								<value>500</value>
							</parameter>
							<parameter>
								<parameterid>samples</parameterid>
								<name>Samples</name>
								<valuemin>1</valuemin>
								<valuemax>16</valuemax>
								<value>4</value>
							</parameter>
						</effect>
					</filter>
					<filter>
						<effect>
							<name>Crop</name>
							<effectid>crop</effectid>
							<effectcategory>motion</effectcategory>
							<effecttype>motion</effecttype>
							<mediatype>video</mediatype>
							<parameter>
								<parameterid>left</parameterid>
								<name>left</name>
								<valuemin>0</valuemin>
								<valuemax>100</valuemax>
								<value>0</value>
							</parameter>
							<parameter>
								<parameterid>right</parameterid>
								<name>right</name>
								<valuemin>0</valuemin>
								<valuemax>100</valuemax>
								<value>0</value>
							</parameter>
							<parameter>
								<parameterid>top</parameterid>
								<name>top</name>
								<valuemin>0</valuemin>
								<valuemax>100</valuemax>
								<value>0</value>
							</parameter>
							<parameter>
								<parameterid>bottom</parameterid>
								<name>bottom</name>
								<valuemin>0</valuemin>
								<valuemax>100</valuemax>
								<value>0</value>
							</parameter>
							<parameter>
								<parameterid>edgefeather</parameterid>
								<name>edgefeather</name>
								<valuemin>0</valuemin>
								<valuemax>100</valuemax>
								<value>0</value>
							</parameter>
						</effect>
					</filter>
					<filter>
						<effect>
							<name>Distort</name>
							<effectid>deformation</effectid>
							<effectcategory>motion</effectcategory>
							<effecttype>motion</effecttype>
							<mediatype>video</mediatype>
							<parameter>
								<parameterid>ulcorner</parameterid>
								<name>Upper Left</name>
								<value>
									<horiz>-0.5</horiz>
									<vert>-0.5</vert>
								</value>
							</parameter>
							<parameter>
								<parameterid>urcorner</parameterid>
								<name>Upper Right</name>
								<value>
									<horiz>0.5</horiz>
									<vert>-0.5</vert>
								</value>
							</parameter>
							<parameter>
								<parameterid>lrcorner</parameterid>
								<name>Lower Right</name>
								<value>
									<horiz>0.5</horiz>
									<vert>0.5</vert>
								</value>
							</parameter>
							<parameter>
								<parameterid>llcorner</parameterid>
								<name>Lower Left</name>
								<value>
									<horiz>-0.5</horiz>
									<vert>0.5</vert>
								</value>
							</parameter>
							<parameter>
								<parameterid>aspect</parameterid>
								<name>Aspect</name>
								<valuemin>-10000</valuemin>
								<valuemax>10000</valuemax>
								<value>0</value>
							</parameter>
						</effect>
					</filter>
					<filter>
						<effect>
							<name>Opacity</name>
							<effectid>opacity</effectid>
							<effectcategory>motion</effectcategory>
							<effecttype>motion</effecttype>
							<mediatype>video</mediatype>
							<parameter>
								<parameterid>opacity</parameterid>
								<name>opacity</name>
								<valuemin>0</valuemin>
								<valuemax>100</valuemax>
								<value>100</value>
							</parameter>
						</effect>
					</filter>
					<sourcetrack>
						<mediatype>video</mediatype>
					</sourcetrack>
					<link>
						<linkclipref>Clip1ATK92 </linkclipref>
						<mediatype>video</mediatype>
						<trackindex>1</trackindex>
						<clipindex>57</clipindex>
					</link>
					<link>
						<linkclipref>Clip1ATK92 3</linkclipref>
						<mediatype>audio</mediatype>
						<trackindex>2</trackindex>
						<clipindex>41</clipindex>
					</link>
					<fielddominance>upper</fielddominance>
					<itemhistory>
						<uuid>0447D831-A898-42ED-AD09-36915B1C32BF</uuid>
					</itemhistory>
				</clipitem>
				<clipitem id="Clip1ATK92 4">
					<name>Clip1ATK92</name>
					<duration>627</duration>
					<rate>
						<ntsc>FALSE</ntsc>
						<timebase>25</timebase>
					</rate>
					<in>417</in>
					<out>491</out>
					<start>6620</start>
					<end>6694</end>
					<pixelaspectratio>Square</pixelaspectratio>
					<enabled>TRUE</enabled>
					<anamorphic>FALSE</anamorphic>
					<alphatype>none</alphatype>
					<masterclipid>Clip1ATK92 1</masterclipid>
					<logginginfo>
						<scene/>
						<shottake/>
						<lognote/>
						<good>FALSE</good>
					</logginginfo>
					<labels>
						<label2/>
					</labels>
					<comments>
						<mastercomment1/>
						<mastercomment2/>
						<mastercomment3/>
						<mastercomment4/>
					</comments>
					<file id="Clip1ATK92 2"/>
					<sourcetrack>
						<mediatype>video</mediatype>
					</sourcetrack>
					<link>
						<linkclipref>Clip1ATK92 4</linkclipref>
						<mediatype>video</mediatype>
						<trackindex>1</trackindex>
						<clipindex>58</clipindex>
					</link>
					<link>
						<linkclipref>Clip1ATK92 5</linkclipref>
						<mediatype>audio</mediatype>
						<trackindex>1</trackindex>
						<clipindex>39</clipindex>
					</link>
					<link>
						<linkclipref>Clip1ATK92 6</linkclipref>
						<mediatype>audio</mediatype>
						<trackindex>2</trackindex>
						<clipindex>42</clipindex>
					</link>
					<fielddominance>upper</fielddominance>
					<itemhistory>
						<uuid>9BE98051-B87C-4C1D-9054-D1FC742DADBC</uuid>
					</itemhistory>
				</clipitem>
				<clipitem id="Clip1ATK88 ">
					<name>Clip1ATK88</name>
					<duration>427</duration>
					<rate>
						<ntsc>FALSE</ntsc>
						<timebase>25</timebase>
					</rate>
					<in>157</in>
					<out>274</out>
					<start>6694</start>
					<end>6811</end>
					<pixelaspectratio>Square</pixelaspectratio>
					<enabled>TRUE</enabled>
					<anamorphic>FALSE</anamorphic>
					<alphatype>none</alphatype>
					<masterclipid>Clip1ATK88 1</masterclipid>
					<logginginfo>
						<scene/>
						<shottake/>
						<lognote/>
						<good>FALSE</good>
					</logginginfo>
					<labels>
						<label2/>
					</labels>
					<comments>
						<mastercomment1/>
						<mastercomment2/>
						<mastercomment3/>
						<mastercomment4/>
					</comments>
					<file id="Clip1ATK88 2">
						<name>Clip1ATK88.mov</name>
						<pathurl>file://localhost/Volumes/Askepott/Prosjekter/DNPR637010_Kra%CC%8Akeklubben_TEM_011212/Video/MELLOMSTIKK/S01E%20Spor%20i%20sn%C3%B8en/AJA/Clip1ATK88.mov</pathurl>
						<rate>
							<timebase>25</timebase>
						</rate>
						<duration>427</duration>
						<timecode>
							<rate>
								<timebase>25</timebase>
							</rate>
							<string>02:32:04:15</string>
							<frame>228115</frame>
							<displayformat>NDF</displayformat>
							<source>source</source>
							<reel>
								<name>1</name>
							</reel>
						</timecode>
						<media>
							<video>
								<duration>427</duration>
								<samplecharacteristics>
									<width>1920</width>
									<height>1080</height>
								</samplecharacteristics>
							</video>
							<audio>
								<samplecharacteristics>
									<samplerate>48000</samplerate>
									<depth>24</depth>
								</samplecharacteristics>
								<channelcount>1</channelcount>
							</audio>
							<audio>
								<samplecharacteristics>
									<samplerate>48000</samplerate>
									<depth>24</depth>
								</samplecharacteristics>
								<channelcount>1</channelcount>
							</audio>
						</media>
					</file>
					<filter>
						<enabled>TRUE</enabled>
						<start>-1</start>
						<end>-1</end>
						<effect>
							<name>Color Corrector 3-way</name>
							<effectid>Color Corrector 3-way</effectid>
							<effectcategory>Color Correction</effectcategory>
							<effecttype>filter</effecttype>
							<mediatype>video</mediatype>
							<parameter>
								<parameterid>dispmode</parameterid>
								<name>Display Mode</name>
								<valuemin>1</valuemin>
								<valuemax>3</valuemax>
								<valuelist>
									<valueentry>
										<name>Final</name>
										<value>1</value>
									</valueentry>
									<valueentry>
										<name>Matte</name>
										<value>2</value>
									</valueentry>
									<valueentry>
										<name>Source</name>
										<value>3</value>
									</valueentry>
								</valuelist>
								<value>1</value>
							</parameter>
							<parameter>
								<parameterid>label1</parameterid>
								<name>Blacks Controls</name>
								<value/>
							</parameter>
							<parameter>
								<parameterid>blacklevel</parameterid>
								<name>Level</name>
								<valuemin>-196</valuemin>
								<valuemax>254</valuemax>
								<value>0</value>
							</parameter>
							<parameter>
								<parameterid>b_hue</parameterid>
								<name>Angle</name>
								<valuemin>-180</valuemin>
								<valuemax>180</valuemax>
								<value>-33</value>
							</parameter>
							<parameter>
								<parameterid>b_mag</parameterid>
								<name>Magnitude</name>
								<valuemin>0</valuemin>
								<valuemax>200</valuemax>
								<value>0</value>
							</parameter>
							<parameter>
								<parameterid>label2</parameterid>
								<name>Midrange Controls</name>
								<value/>
							</parameter>
							<parameter>
								<parameterid>mids</parameterid>
								<name>Level</name>
								<valuemin>0</valuemin>
								<valuemax>200</valuemax>
								<value>125</value>
							</parameter>
							<parameter>
								<parameterid>m_hue</parameterid>
								<name>Angle</name>
								<valuemin>-180</valuemin>
								<valuemax>180</valuemax>
								<value>-33</value>
							</parameter>
							<parameter>
								<parameterid>m_mag</parameterid>
								<name>Magnitude</name>
								<valuemin>0</valuemin>
								<valuemax>200</valuemax>
								<value>0</value>
							</parameter>
							<parameter>
								<parameterid>label3</parameterid>
								<name>Highlight Controls</name>
								<value/>
							</parameter>
							<parameter>
								<parameterid>highlights</parameterid>
								<name>Level</name>
								<valuemin>64</valuemin>
								<valuemax>509</valuemax>
								<value>255</value>
							</parameter>
							<parameter>
								<parameterid>h_hue</parameterid>
								<name>Angle</name>
								<valuemin>-180</valuemin>
								<valuemax>180</valuemax>
								<value>112.359</value>
							</parameter>
							<parameter>
								<parameterid>h_mag</parameterid>
								<name>Magnitude</name>
								<valuemin>0</valuemin>
								<valuemax>200</valuemax>
								<value>6.53996</value>
							</parameter>
							<parameter>
								<parameterid>label4</parameterid>
								<name>Color Controls</name>
								<value/>
							</parameter>
							<parameter>
								<parameterid>chroma</parameterid>
								<name>Saturation</name>
								<valuemin>0</valuemin>
								<valuemax>200</valuemax>
								<value>112</value>
							</parameter>
							<parameter>
								<parameterid>label5</parameterid>
								<name>Limit Effect Controls</name>
								<value/>
							</parameter>
							<parameter>
								<parameterid>dochroma</parameterid>
								<name>Limit on Chroma</name>
								<value>FALSE</value>
							</parameter>
							<parameter>
								<parameterid>centerang</parameterid>
								<name>Chroma Center</name>
								<valuemin>-760</valuemin>
								<valuemax>760</valuemax>
								<value>-110</value>
							</parameter>
							<parameter>
								<parameterid>chromawidth</parameterid>
								<name>Chroma Width</name>
								<valuemin>0</valuemin>
								<valuemax>360</valuemax>
								<value>15</value>
							</parameter>
							<parameter>
								<parameterid>chromasoft</parameterid>
								<name>Chroma Softness</name>
								<valuemin>0</valuemin>
								<valuemax>180</valuemax>
								<value>10</value>
							</parameter>
							<parameter>
								<parameterid>dosat</parameterid>
								<name>Limit on Saturation</name>
								<value>FALSE</value>
							</parameter>
							<parameter>
								<parameterid>satmin</parameterid>
								<name>Sat. Minimum</name>
								<valuemin>0</valuemin>
								<valuemax>125</valuemax>
								<value>35</value>
							</parameter>
							<parameter>
								<parameterid>satwidth</parameterid>
								<name>Sat. Width</name>
								<valuemin>0</valuemin>
								<valuemax>125</valuemax>
								<value>40</value>
							</parameter>
							<parameter>
								<parameterid>satsoft</parameterid>
								<name>Sat. Softness</name>
								<valuemin>0</valuemin>
								<valuemax>125</valuemax>
								<value>20</value>
							</parameter>
							<parameter>
								<parameterid>doluma</parameterid>
								<name>Limit on Luma</name>
								<value>FALSE</value>
							</parameter>
							<parameter>
								<parameterid>lumamin</parameterid>
								<name>Luma Minimum</name>
								<valuemin>0</valuemin>
								<valuemax>120</valuemax>
								<value>0</value>
							</parameter>
							<parameter>
								<parameterid>lumawidth</parameterid>
								<name>Luma Width</name>
								<valuemin>0</valuemin>
								<valuemax>120</valuemax>
								<value>40</value>
							</parameter>
							<parameter>
								<parameterid>lumasoft</parameterid>
								<name>Luma Softness</name>
								<valuemin>0</valuemin>
								<valuemax>120</valuemax>
								<value>20</value>
							</parameter>
							<parameter>
								<parameterid>label6</parameterid>
								<name>Edge Control</name>
								<value/>
							</parameter>
							<parameter>
								<parameterid>edgethin</parameterid>
								<name>Thin/Spread</name>
								<valuemin>-100</valuemin>
								<valuemax>100</valuemax>
								<value>0</value>
							</parameter>
							<parameter>
								<parameterid>edgefeather</parameterid>
								<name>Softening</name>
								<valuemin>0</valuemin>
								<valuemax>100</valuemax>
								<value>0</value>
							</parameter>
							<parameter>
								<parameterid>label7</parameterid>
								<name>Mask Control</name>
								<value/>
							</parameter>
							<parameter>
								<parameterid>invertsel</parameterid>
								<name>Invert</name>
								<value>FALSE</value>
							</parameter>
							<parameter>
								<parameterid>debugshow</parameterid>
								<name>Show Stats</name>
								<value>FALSE</value>
							</parameter>
						</effect>
					</filter>
					<sourcetrack>
						<mediatype>video</mediatype>
					</sourcetrack>
					<link>
						<linkclipref>Clip1ATK88 </linkclipref>
						<mediatype>video</mediatype>
						<trackindex>1</trackindex>
						<clipindex>59</clipindex>
					</link>
					<link>
						<linkclipref>Clip1ATK88 3</linkclipref>
						<mediatype>audio</mediatype>
						<trackindex>1</trackindex>
						<clipindex>40</clipindex>
					</link>
					<link>
						<linkclipref>Clip1ATK88 4</linkclipref>
						<mediatype>audio</mediatype>
						<trackindex>2</trackindex>
						<clipindex>43</clipindex>
					</link>
					<fielddominance>upper</fielddominance>
					<itemhistory>
						<uuid>EC02BB3C-3ABB-42B0-989D-045030CCA0BB</uuid>
					</itemhistory>
				</clipitem>
				<clipitem id="Clip1ATK86 ">
					<name>Clip1ATK86</name>
					<duration>343</duration>
					<rate>
						<ntsc>FALSE</ntsc>
						<timebase>25</timebase>
					</rate>
					<in>168</in>
					<out>240</out>
					<start>6811</start>
					<end>6883</end>
					<pixelaspectratio>Square</pixelaspectratio>
					<enabled>TRUE</enabled>
					<anamorphic>FALSE</anamorphic>
					<alphatype>none</alphatype>
					<masterclipid>Clip1ATK86 1</masterclipid>
					<logginginfo>
						<scene/>
						<shottake/>
						<lognote/>
						<good>FALSE</good>
					</logginginfo>
					<labels>
						<label2/>
					</labels>
					<comments>
						<mastercomment1/>
						<mastercomment2/>
						<mastercomment3/>
						<mastercomment4/>
					</comments>
					<file id="Clip1ATK86 2">
						<name>Clip1ATK86.mov</name>
						<pathurl>file://localhost/Volumes/Askepott/Prosjekter/DNPR637010_Kra%CC%8Akeklubben_TEM_011212/Video/MELLOMSTIKK/S01E%20Spor%20i%20sn%C3%B8en/AJA/Clip1ATK86.mov</pathurl>
						<rate>
							<timebase>25</timebase>
						</rate>
						<duration>343</duration>
						<timecode>
							<rate>
								<timebase>25</timebase>
							</rate>
							<string>02:31:28:00</string>
							<frame>227200</frame>
							<displayformat>NDF</displayformat>
							<source>source</source>
							<reel>
								<name>1</name>
							</reel>
						</timecode>
						<media>
							<video>
								<duration>343</duration>
								<samplecharacteristics>
									<width>1920</width>
									<height>1080</height>
								</samplecharacteristics>
							</video>
							<audio>
								<samplecharacteristics>
									<samplerate>48000</samplerate>
									<depth>24</depth>
								</samplecharacteristics>
								<channelcount>1</channelcount>
							</audio>
							<audio>
								<samplecharacteristics>
									<samplerate>48000</samplerate>
									<depth>24</depth>
								</samplecharacteristics>
								<channelcount>1</channelcount>
							</audio>
						</media>
					</file>
					<sourcetrack>
						<mediatype>video</mediatype>
					</sourcetrack>
					<link>
						<linkclipref>Clip1ATK86 </linkclipref>
						<mediatype>video</mediatype>
						<trackindex>1</trackindex>
						<clipindex>60</clipindex>
					</link>
					<link>
						<linkclipref>Clip1ATK86 3</linkclipref>
						<mediatype>audio</mediatype>
						<trackindex>1</trackindex>
						<clipindex>41</clipindex>
					</link>
					<link>
						<linkclipref>Clip1ATK86 4</linkclipref>
						<mediatype>audio</mediatype>
						<trackindex>2</trackindex>
						<clipindex>44</clipindex>
					</link>
					<fielddominance>upper</fielddominance>
					<itemhistory>
						<uuid>58715D0A-2504-4D5F-A6E4-972A9B932525</uuid>
					</itemhistory>
				</clipitem>
				<clipitem id="Clip1ATK94 ">
					<name>Clip1ATK94</name>
					<duration>471</duration>
					<rate>
						<ntsc>FALSE</ntsc>
						<timebase>25</timebase>
					</rate>
					<in>184</in>
					<out>349</out>
					<start>6883</start>
					<end>7048</end>
					<pixelaspectratio>Square</pixelaspectratio>
					<enabled>TRUE</enabled>
					<anamorphic>FALSE</anamorphic>
					<alphatype>none</alphatype>
					<masterclipid>Clip1ATK94 1</masterclipid>
					<logginginfo>
						<scene/>
						<shottake/>
						<lognote/>
						<good>FALSE</good>
					</logginginfo>
					<labels>
						<label2/>
					</labels>
					<comments>
						<mastercomment1/>
						<mastercomment2/>
						<mastercomment3/>
						<mastercomment4/>
					</comments>
					<file id="Clip1ATK94 2">
						<name>Clip1ATK94.mov</name>
						<pathurl>file://localhost/Volumes/Askepott/Prosjekter/DNPR637010_Kra%CC%8Akeklubben_TEM_011212/Video/MELLOMSTIKK/S01E%20Spor%20i%20sn%C3%B8en/AJA/Clip1ATK94.mov</pathurl>
						<rate>
							<timebase>25</timebase>
						</rate>
						<duration>471</duration>
						<timecode>
							<rate>
								<timebase>25</timebase>
							</rate>
							<string>02:33:58:07</string>
							<frame>230957</frame>
							<displayformat>NDF</displayformat>
							<source>source</source>
							<reel>
								<name>1</name>
							</reel>
						</timecode>
						<media>
							<video>
								<duration>471</duration>
								<samplecharacteristics>
									<width>1920</width>
									<height>1080</height>
								</samplecharacteristics>
							</video>
							<audio>
								<samplecharacteristics>
									<samplerate>48000</samplerate>
									<depth>24</depth>
								</samplecharacteristics>
								<channelcount>1</channelcount>
							</audio>
							<audio>
								<samplecharacteristics>
									<samplerate>48000</samplerate>
									<depth>24</depth>
								</samplecharacteristics>
								<channelcount>1</channelcount>
							</audio>
						</media>
					</file>
					<filter>
						<start>-1</start>
						<end>-1</end>
						<effect>
							<name>Flop</name>
							<effectid>Flop</effectid>
							<effectcategory>Perspective</effectcategory>
							<effecttype>filter</effecttype>
							<mediatype>video</mediatype>
							<parameter>
								<parameterid>flop</parameterid>
								<name>Flop</name>
								<valuemin>1</valuemin>
								<valuemax>3</valuemax>
								<valuelist>
									<valueentry>
										<name>Horizontal</name>
										<value>1</value>
									</valueentry>
									<valueentry>
										<name>Vertical</name>
										<value>2</value>
									</valueentry>
									<valueentry>
										<name>Both</name>
										<value>3</value>
									</valueentry>
								</valuelist>
								<value>1</value>
							</parameter>
						</effect>
					</filter>
					<sourcetrack>
						<mediatype>video</mediatype>
					</sourcetrack>
					<link>
						<linkclipref>Clip1ATK94 </linkclipref>
						<mediatype>video</mediatype>
						<trackindex>1</trackindex>
						<clipindex>61</clipindex>
					</link>
					<link>
						<linkclipref>Clip1ATK94 3</linkclipref>
						<mediatype>audio</mediatype>
						<trackindex>1</trackindex>
						<clipindex>42</clipindex>
					</link>
					<link>
						<linkclipref>Clip1ATK94 4</linkclipref>
						<mediatype>audio</mediatype>
						<trackindex>2</trackindex>
						<clipindex>45</clipindex>
					</link>
					<fielddominance>upper</fielddominance>
					<itemhistory>
						<uuid>C47260A9-6FFB-4564-917B-0ABEBBF9794D</uuid>
					</itemhistory>
				</clipitem>
				<clipitem id="Clip1ATK90 ">
					<name>Clip1ATK90</name>
					<duration>481</duration>
					<rate>
						<ntsc>FALSE</ntsc>
						<timebase>25</timebase>
					</rate>
					<in>163</in>
					<out>255</out>
					<start>7048</start>
					<end>7140</end>
					<pixelaspectratio>Square</pixelaspectratio>
					<enabled>TRUE</enabled>
					<anamorphic>FALSE</anamorphic>
					<alphatype>none</alphatype>
					<masterclipid>Clip1ATK90 1</masterclipid>
					<logginginfo>
						<scene/>
						<shottake/>
						<lognote/>
						<good>FALSE</good>
					</logginginfo>
					<labels>
						<label2/>
					</labels>
					<comments>
						<mastercomment1/>
						<mastercomment2/>
						<mastercomment3/>
						<mastercomment4/>
					</comments>
					<file id="Clip1ATK90 2">
						<name>Clip1ATK90.mov</name>
						<pathurl>file://localhost/Volumes/Askepott/Prosjekter/DNPR637010_Kra%CC%8Akeklubben_TEM_011212/Video/MELLOMSTIKK/S01E%20Spor%20i%20sn%C3%B8en/AJA/Clip1ATK90.mov</pathurl>
						<rate>
							<timebase>25</timebase>
						</rate>
						<duration>481</duration>
						<timecode>
							<rate>
								<timebase>25</timebase>
							</rate>
							<string>02:32:34:11</string>
							<frame>228861</frame>
							<displayformat>NDF</displayformat>
							<source>source</source>
							<reel>
								<name>1</name>
							</reel>
						</timecode>
						<media>
							<video>
								<duration>481</duration>
								<samplecharacteristics>
									<width>1920</width>
									<height>1080</height>
								</samplecharacteristics>
							</video>
							<audio>
								<samplecharacteristics>
									<samplerate>48000</samplerate>
									<depth>24</depth>
								</samplecharacteristics>
								<channelcount>1</channelcount>
							</audio>
							<audio>
								<samplecharacteristics>
									<samplerate>48000</samplerate>
									<depth>24</depth>
								</samplecharacteristics>
								<channelcount>1</channelcount>
							</audio>
						</media>
					</file>
					<sourcetrack>
						<mediatype>video</mediatype>
					</sourcetrack>
					<link>
						<linkclipref>Clip1ATK90 </linkclipref>
						<mediatype>video</mediatype>
						<trackindex>1</trackindex>
						<clipindex>62</clipindex>
					</link>
					<link>
						<linkclipref>Clip1ATK90 3</linkclipref>
						<mediatype>audio</mediatype>
						<trackindex>1</trackindex>
						<clipindex>43</clipindex>
					</link>
					<link>
						<linkclipref>Clip1ATK90 4</linkclipref>
						<mediatype>audio</mediatype>
						<trackindex>2</trackindex>
						<clipindex>46</clipindex>
					</link>
					<fielddominance>upper</fielddominance>
					<itemhistory>
						<uuid>D56A6997-3441-424C-BFD7-60A6B12AF70F</uuid>
					</itemhistory>
				</clipitem>
				<clipitem id="Clip1ATK91 5">
					<name>Clip1ATK91</name>
					<duration>548</duration>
					<rate>
						<ntsc>FALSE</ntsc>
						<timebase>25</timebase>
					</rate>
					<in>364</in>
					<out>454</out>
					<start>7140</start>
					<end>7230</end>
					<pixelaspectratio>Square</pixelaspectratio>
					<enabled>TRUE</enabled>
					<anamorphic>FALSE</anamorphic>
					<alphatype>none</alphatype>
					<masterclipid>Clip1ATK91 1</masterclipid>
					<logginginfo>
						<scene/>
						<shottake/>
						<lognote/>
						<good>FALSE</good>
					</logginginfo>
					<labels>
						<label2/>
					</labels>
					<comments>
						<mastercomment1/>
						<mastercomment2/>
						<mastercomment3/>
						<mastercomment4/>
					</comments>
					<file id="Clip1ATK91 2"/>
					<sourcetrack>
						<mediatype>video</mediatype>
					</sourcetrack>
					<link>
						<linkclipref>Clip1ATK91 5</linkclipref>
						<mediatype>video</mediatype>
						<trackindex>1</trackindex>
						<clipindex>63</clipindex>
					</link>
					<link>
						<linkclipref>Clip1ATK91 6</linkclipref>
						<mediatype>audio</mediatype>
						<trackindex>1</trackindex>
						<clipindex>45</clipindex>
					</link>
					<link>
						<linkclipref>Clip1ATK91 7</linkclipref>
						<mediatype>audio</mediatype>
						<trackindex>2</trackindex>
						<clipindex>48</clipindex>
					</link>
					<fielddominance>upper</fielddominance>
					<itemhistory>
						<uuid>0C5A7506-7088-4894-9C27-8AF7554D6EFC</uuid>
					</itemhistory>
				</clipitem>
				<clipitem id="-01_0235_01 ">
					<name>-01_0235_01</name>
					<duration>1180</duration>
					<rate>
						<ntsc>FALSE</ntsc>
						<timebase>25</timebase>
					</rate>
					<in>588</in>
					<out>1103</out>
					<start>7230</start>
					<end>-1</end>
					<pixelaspectratio>Square</pixelaspectratio>
					<enabled>TRUE</enabled>
					<anamorphic>FALSE</anamorphic>
					<alphatype>none</alphatype>
					<masterclipid>-01_0235_01 1</masterclipid>
					<logginginfo>
						<scene/>
						<shottake/>
						<lognote/>
						<good>FALSE</good>
					</logginginfo>
					<labels>
						<label2/>
					</labels>
					<comments>
						<mastercomment1/>
						<mastercomment2/>
						<mastercomment3/>
						<mastercomment4/>
					</comments>
					<file id="-01_0235_01 2">
						<name>-01_0235_01.mov</name>
						<pathurl>file://localhost/Volumes/Askepott/Prosjekter/DNPR637010_Kra%CC%8Akeklubben_TEM_011212/Video/MELLOMSTIKK/S01E%20Spor%20i%20sn%C3%B8en/EX-3/-01_0235_01.mov</pathurl>
						<rate>
							<timebase>25</timebase>
						</rate>
						<duration>1180</duration>
						<metadata>
							<storage>QuickTime</storage>
							<key>com.sony.bprl.xdcamtransfer.version</key>
							<size>10</size>
							<type>UTF8</type>
							<value>2.12.0.631</value>
						</metadata>
						<metadata>
							<storage>QuickTime</storage>
							<key>org.smpte.mxf.package.material.packageid</key>
							<size>66</size>
							<type>UTF8</type>
							<value>0x060a2b340101010501010d4313000000f05bae9a785905d608004602022f05fa</value>
						</metadata>
						<metadata>
							<storage>QuickTime</storage>
							<key>com.sony.professionaldisc.nonrealtimemeta.lastupdate</key>
							<size>25</size>
							<type>UTF8</type>
							<value>2012-02-21 15:30:52 +0100</value>
						</metadata>
						<metadata>
							<storage>QuickTime</storage>
							<key>com.sony.bprl.mxf.umid</key>
							<size>64</size>
							<type>UTF8</type>
							<value>060a2b340101010501010d4313000000f05bae9a785905d608004602022f05fa</value>
						</metadata>
						<metadata>
							<storage>QuickTime</storage>
							<key>com.sony.bprl.mxf.nrtmetadata</key>
							<size>2011</size>
							<type>UTF8</type>
							<value>&lt;?xml version="1.0" encoding="UTF-8" standalone="yes"?>&lt;NonRealTimeMeta xmlns="urn:schemas-professionalDisc:nonRealTimeMeta:ver.1.20" xmlns:lib="urn:schemas-professionalDisc:lib:ver.1.20" xmlns:xsi="http://www.w3.org/2001/XMLSchema-instance" lastUpdate="2012-02-21T15:30:52+01:00">&lt;TargetMaterial umidRef="060A2B340101010501010D4313000000F05BAE9A785905D608004602022F05FA">&lt;/TargetMaterial>&lt;Duration value="1180">&lt;/Duration>&lt;LtcChangeTable tcFps="25" halfStep="false">&lt;LtcChange frameCount="0" value="03013702" status="increment">&lt;/LtcChange>&lt;LtcChange frameCount="1179" value="07483702" status="end">&lt;/LtcChange>&lt;/LtcChangeTable>&lt;CreationDate value="2012-02-21T15:30:04+01:00">&lt;/CreationDate>&lt;TypicalUbit value="0000000020121120">&lt;/TypicalUbit>&lt;BodyUmidBasicChangeTable>&lt;BodyUmidBasicChange frameCount="0" value="060A2B340101010501010D4333000000F05BAE9A785905D608004602022F05FA" status="start">&lt;/BodyUmidBasicChange>&lt;/BodyUmidBasicChangeTable>&lt;BodyUmidWhenChangeTable>&lt;BodyUmidWhenChange frameCount="0" value="848AFA04785905A5" status="increment">&lt;/BodyUmidWhenChange>&lt;BodyUmidWhenChange frameCount="1179" value="44B1FB04785905A5" status="end">&lt;/BodyUmidWhenChange>&lt;/BodyUmidWhenChangeTable>&lt;KlvPacketTable>&lt;KlvPacket key="060E2B34010101050301020A02000000" frameCount="0" lengthValue="095F5265635374617274" status="spot">&lt;/KlvPacket>&lt;/KlvPacketTable>&lt;VideoFormat>&lt;VideoRecPort port="DIRECT">&lt;/VideoRecPort>&lt;VideoFrame videoCodec="MPEG2HD35_1920_1080_MP@HL" captureFps="50.00i" recFps="50.00" formatFps="50i">&lt;/VideoFrame>&lt;VideoLayout pixel="1920" numOfVerticalLine="1080" aspectRatio="16:9">&lt;/VideoLayout>&lt;/VideoFormat>&lt;AudioFormat numOfChannel="2">&lt;AudioRecPort port="ANALOG" audioCodec="LPCM16" trackDst="CH1">&lt;/AudioRecPort>&lt;AudioRecPort port="ANALOG" audioCodec="LPCM16" trackDst="CH2">&lt;/AudioRecPort>&lt;/AudioFormat>&lt;Device manufacturer="Sony" modelName="PMW-EX3" serialNo="0401530">&lt;/Device>&lt;Lens modelName="VCL-614B2X">&lt;/Lens>&lt;RecordingMode type="normal" cacheRec="false">&lt;/RecordingMode>&lt;/NonRealTimeMeta>
							</value>
						</metadata>
						<metadata>
							<storage>QuickTime</storage>
							<key>com.apple.proapps.reel</key>
							<size>8</size>
							<type>UTF8</type>
							<value>Untitled</value>
						</metadata>
						<metadata>
							<storage>QuickTime</storage>
							<key>com.apple.proapps.clipID</key>
							<size>64</size>
							<type>UTF8</type>
							<value>060A2B340101010501010D4313000000F05BAE9A785905D608004602022F05FA</value>
						</metadata>
						<metadata>
							<storage>QuickTime</storage>
							<key>com.apple.quicktime.information</key>
							<size>64</size>
							<type>UTF8</type>
							<value>060a2b340101010501010d4313000000f05bae9a785905d608004602022f05fa</value>
						</metadata>
						<metadata>
							<storage>QuickTime</storage>
							<key>com.apple.proapps.originalFormat</key>
							<size>36</size>
							<type>UTF8</type>
							<value>Apple XDCAM EX 1080i50 (35 Mb/s VBR)</value>
						</metadata>
						<timecode>
							<rate>
								<timebase>25</timebase>
							</rate>
							<string>02:37:01:03</string>
							<frame>235528</frame>
							<displayformat>NDF</displayformat>
							<source>source</source>
							<reel>
								<name>Untitled</name>
							</reel>
						</timecode>
						<media>
							<video>
								<duration>1180</duration>
								<samplecharacteristics>
									<width>1920</width>
									<height>1080</height>
								</samplecharacteristics>
							</video>
							<audio>
								<samplecharacteristics>
									<samplerate>48000</samplerate>
									<depth>16</depth>
								</samplecharacteristics>
								<channelcount>1</channelcount>
								<layout>mono</layout>
								<audiochannel>
									<sourcechannel>1</sourcechannel>
									<channellabel>discrete</channellabel>
								</audiochannel>
							</audio>
							<audio>
								<samplecharacteristics>
									<samplerate>48000</samplerate>
									<depth>16</depth>
								</samplecharacteristics>
								<channelcount>1</channelcount>
								<layout>mono</layout>
								<audiochannel>
									<sourcechannel>2</sourcechannel>
									<channellabel>discrete</channellabel>
								</audiochannel>
							</audio>
						</media>
					</file>
					<filter>
						<enabled>TRUE</enabled>
						<start>-1</start>
						<end>-1</end>
						<effect>
							<name>Color Corrector 3-way</name>
							<effectid>Color Corrector 3-way</effectid>
							<effectcategory>Color Correction</effectcategory>
							<effecttype>filter</effecttype>
							<mediatype>video</mediatype>
							<parameter>
								<parameterid>dispmode</parameterid>
								<name>Display Mode</name>
								<valuemin>1</valuemin>
								<valuemax>3</valuemax>
								<valuelist>
									<valueentry>
										<name>Final</name>
										<value>1</value>
									</valueentry>
									<valueentry>
										<name>Matte</name>
										<value>2</value>
									</valueentry>
									<valueentry>
										<name>Source</name>
										<value>3</value>
									</valueentry>
								</valuelist>
								<value>1</value>
							</parameter>
							<parameter>
								<parameterid>label1</parameterid>
								<name>Blacks Controls</name>
								<value/>
							</parameter>
							<parameter>
								<parameterid>blacklevel</parameterid>
								<name>Level</name>
								<valuemin>-196</valuemin>
								<valuemax>254</valuemax>
								<value>-2</value>
							</parameter>
							<parameter>
								<parameterid>b_hue</parameterid>
								<name>Angle</name>
								<valuemin>-180</valuemin>
								<valuemax>180</valuemax>
								<value>121.815</value>
							</parameter>
							<parameter>
								<parameterid>b_mag</parameterid>
								<name>Magnitude</name>
								<valuemin>0</valuemin>
								<valuemax>200</valuemax>
								<value>2.86838</value>
							</parameter>
							<parameter>
								<parameterid>label2</parameterid>
								<name>Midrange Controls</name>
								<value/>
							</parameter>
							<parameter>
								<parameterid>mids</parameterid>
								<name>Level</name>
								<valuemin>0</valuemin>
								<valuemax>200</valuemax>
								<value>104</value>
							</parameter>
							<parameter>
								<parameterid>m_hue</parameterid>
								<name>Angle</name>
								<valuemin>-180</valuemin>
								<valuemax>180</valuemax>
								<value>113.552</value>
							</parameter>
							<parameter>
								<parameterid>m_mag</parameterid>
								<name>Magnitude</name>
								<valuemin>0</valuemin>
								<valuemax>200</valuemax>
								<value>8.83728</value>
							</parameter>
							<parameter>
								<parameterid>label3</parameterid>
								<name>Highlight Controls</name>
								<value/>
							</parameter>
							<parameter>
								<parameterid>highlights</parameterid>
								<name>Level</name>
								<valuemin>64</valuemin>
								<valuemax>509</valuemax>
								<value>243</value>
							</parameter>
							<parameter>
								<parameterid>h_hue</parameterid>
								<name>Angle</name>
								<valuemin>-180</valuemin>
								<valuemax>180</valuemax>
								<value>124.824</value>
							</parameter>
							<parameter>
								<parameterid>h_mag</parameterid>
								<name>Magnitude</name>
								<valuemin>0</valuemin>
								<valuemax>200</valuemax>
								<value>9.06464</value>
							</parameter>
							<parameter>
								<parameterid>label4</parameterid>
								<name>Color Controls</name>
								<value/>
							</parameter>
							<parameter>
								<parameterid>chroma</parameterid>
								<name>Saturation</name>
								<valuemin>0</valuemin>
								<valuemax>200</valuemax>
								<value>100</value>
							</parameter>
							<parameter>
								<parameterid>label5</parameterid>
								<name>Limit Effect Controls</name>
								<value/>
							</parameter>
							<parameter>
								<parameterid>dochroma</parameterid>
								<name>Limit on Chroma</name>
								<value>FALSE</value>
							</parameter>
							<parameter>
								<parameterid>centerang</parameterid>
								<name>Chroma Center</name>
								<valuemin>-760</valuemin>
								<valuemax>760</valuemax>
								<value>-110</value>
							</parameter>
							<parameter>
								<parameterid>chromawidth</parameterid>
								<name>Chroma Width</name>
								<valuemin>0</valuemin>
								<valuemax>360</valuemax>
								<value>15</value>
							</parameter>
							<parameter>
								<parameterid>chromasoft</parameterid>
								<name>Chroma Softness</name>
								<valuemin>0</valuemin>
								<valuemax>180</valuemax>
								<value>10</value>
							</parameter>
							<parameter>
								<parameterid>dosat</parameterid>
								<name>Limit on Saturation</name>
								<value>FALSE</value>
							</parameter>
							<parameter>
								<parameterid>satmin</parameterid>
								<name>Sat. Minimum</name>
								<valuemin>0</valuemin>
								<valuemax>125</valuemax>
								<value>35</value>
							</parameter>
							<parameter>
								<parameterid>satwidth</parameterid>
								<name>Sat. Width</name>
								<valuemin>0</valuemin>
								<valuemax>125</valuemax>
								<value>40</value>
							</parameter>
							<parameter>
								<parameterid>satsoft</parameterid>
								<name>Sat. Softness</name>
								<valuemin>0</valuemin>
								<valuemax>125</valuemax>
								<value>20</value>
							</parameter>
							<parameter>
								<parameterid>doluma</parameterid>
								<name>Limit on Luma</name>
								<value>FALSE</value>
							</parameter>
							<parameter>
								<parameterid>lumamin</parameterid>
								<name>Luma Minimum</name>
								<valuemin>0</valuemin>
								<valuemax>120</valuemax>
								<value>0</value>
							</parameter>
							<parameter>
								<parameterid>lumawidth</parameterid>
								<name>Luma Width</name>
								<valuemin>0</valuemin>
								<valuemax>120</valuemax>
								<value>40</value>
							</parameter>
							<parameter>
								<parameterid>lumasoft</parameterid>
								<name>Luma Softness</name>
								<valuemin>0</valuemin>
								<valuemax>120</valuemax>
								<value>20</value>
							</parameter>
							<parameter>
								<parameterid>label6</parameterid>
								<name>Edge Control</name>
								<value/>
							</parameter>
							<parameter>
								<parameterid>edgethin</parameterid>
								<name>Thin/Spread</name>
								<valuemin>-100</valuemin>
								<valuemax>100</valuemax>
								<value>0</value>
							</parameter>
							<parameter>
								<parameterid>edgefeather</parameterid>
								<name>Softening</name>
								<valuemin>0</valuemin>
								<valuemax>100</valuemax>
								<value>0</value>
							</parameter>
							<parameter>
								<parameterid>label7</parameterid>
								<name>Mask Control</name>
								<value/>
							</parameter>
							<parameter>
								<parameterid>invertsel</parameterid>
								<name>Invert</name>
								<value>FALSE</value>
							</parameter>
							<parameter>
								<parameterid>debugshow</parameterid>
								<name>Show Stats</name>
								<value>FALSE</value>
							</parameter>
						</effect>
					</filter>
					<sourcetrack>
						<mediatype>video</mediatype>
					</sourcetrack>
					<link>
						<linkclipref>-01_0235_01 </linkclipref>
						<mediatype>video</mediatype>
						<trackindex>1</trackindex>
						<clipindex>64</clipindex>
					</link>
					<link>
						<linkclipref>-01_0235_01 3</linkclipref>
						<mediatype>audio</mediatype>
						<trackindex>1</trackindex>
						<clipindex>46</clipindex>
					</link>
					<link>
						<linkclipref>-01_0235_01 4</linkclipref>
						<mediatype>audio</mediatype>
						<trackindex>2</trackindex>
						<clipindex>49</clipindex>
					</link>
					<fielddominance>upper</fielddominance>
					<itemhistory>
						<uuid>DDD5D255-E19F-4BC2-BFDC-A66F190722C2</uuid>
					</itemhistory>
				</clipitem>
				<transitionitem>
					<rate>
						<ntsc>FALSE</ntsc>
						<timebase>25</timebase>
					</rate>
					<start>7730</start>
					<end>7745</end>
					<alignment>center</alignment>
					<effect>
						<name>G Lens Flare Generell NED</name>
						<effectcategory>Nattress Big Box Of Tricks</effectcategory>
						<effecttype>transition</effecttype>
						<mediatype>video</mediatype>
						<startratio>0</startratio>
						<endratio>1</endratio>
						<reverse>FALSE</reverse>
						<parameter>
							<parameterid>dispvar1</parameterid>
							<name>Display Settings</name>
							<value>string</value>
						</parameter>
						<parameter>
							<parameterid>inputvar1</parameterid>
							<name>Flare Position</name>
							<value>string</value>
						</parameter>
						<parameter>
							<parameterid>theangle</parameterid>
							<name>Transition Direction</name>
							<valuemin>-360</valuemin>
							<valuemax>360</valuemax>
							<value>180</value>
						</parameter>
						<parameter>
							<parameterid>transitionblendduration</parameterid>
							<name>Blend Duration</name>
							<valuemin>0</valuemin>
							<valuemax>100</valuemax>
							<value>50</value>
						</parameter>
						<parameter>
							<parameterid>settingsvar1</parameterid>
							<name>Flare Settings</name>
							<value>string</value>
						</parameter>
						<parameter>
							<parameterid>presets</parameterid>
							<name>Preset Select</name>
							<valuemin>1</valuemin>
							<valuemax>4</valuemax>
							<valuelist>
								<valueentry>
									<name>Custom Controls</name>
									<value>1</value>
								</valueentry>
								<valueentry>
									<name>Other End of the Rainbow</name>
									<value>2</value>
								</valueentry>
								<valueentry>
									<name>Photon</name>
									<value>3</value>
								</valueentry>
								<valueentry>
									<name>Gaudy</name>
									<value>4</value>
								</valueentry>
							</valuelist>
							<value>1</value>
						</parameter>
						<parameter>
							<parameterid>randomevolution</parameterid>
							<name>Randomness Evolution</name>
							<valuemin>0</valuemin>
							<valuemax>1</valuemax>
							<value>0.05</value>
						</parameter>
						<parameter>
							<parameterid>flareaspect</parameterid>
							<name>Aspect</name>
							<valuemin>0.1</valuemin>
							<valuemax>10</valuemax>
							<value>1</value>
						</parameter>
						<parameter>
							<parameterid>flareintensity</parameterid>
							<name>Overall Intensity</name>
							<valuemin>0</valuemin>
							<valuemax>400</valuemax>
							<value>300</value>
						</parameter>
						<parameter>
							<parameterid>therandomseed</parameterid>
							<name>Random Seed</name>
							<valuemin>0</valuemin>
							<valuemax>100</valuemax>
							<value>100</value>
						</parameter>
						<parameter>
							<parameterid>settingsvar2</parameterid>
							<name>   Bloom</name>
							<value>string</value>
						</parameter>
						<parameter>
							<parameterid>bloomon</parameterid>
							<name>Bloom On?</name>
							<value>TRUE</value>
						</parameter>
						<parameter>
							<parameterid>bloomcolour</parameterid>
							<name>Bloom Colour</name>
							<value>
								<alpha>255</alpha>
								<red>218</red>
								<green>224</green>
								<blue>254</blue>
							</value>
						</parameter>
						<parameter>
							<parameterid>bloomcolourfromimage</parameterid>
							<name>Use Image for Bloom Colour?</name>
							<value>FALSE</value>
						</parameter>
						<parameter>
							<parameterid>bloomintensity</parameterid>
							<name>Intensity</name>
							<valuemin>0</valuemin>
							<valuemax>100</valuemax>
							<value>90</value>
						</parameter>
						<parameter>
							<parameterid>bloomradius</parameterid>
							<name>Radius</name>
							<valuemin>0</valuemin>
							<valuemax>200</valuemax>
							<value>45</value>
						</parameter>
						<parameter>
							<parameterid>bloomfalloff</parameterid>
							<name>Fall Off</name>
							<valuemin>0</valuemin>
							<valuemax>100</valuemax>
							<value>75</value>
						</parameter>
						<parameter>
							<parameterid>bloomstarry</parameterid>
							<name>Starry</name>
							<valuemin>0</valuemin>
							<valuemax>100</valuemax>
							<value>10</value>
						</parameter>
						<parameter>
							<parameterid>bloomstarpoints</parameterid>
							<name>Star Points</name>
							<valuemin>0</valuemin>
							<valuemax>100</valuemax>
							<value>7</value>
						</parameter>
						<parameter>
							<parameterid>settingsvar3</parameterid>
							<name>   StarBurst</name>
							<value>string</value>
						</parameter>
						<parameter>
							<parameterid>starburston</parameterid>
							<name>StarBurst On?</name>
							<value>TRUE</value>
						</parameter>
						<parameter>
							<parameterid>starburstcolour</parameterid>
							<name>StarBurst Colour</name>
							<value>
								<alpha>255</alpha>
								<red>254</red>
								<green>224</green>
								<blue>218</blue>
							</value>
						</parameter>
						<parameter>
							<parameterid>starburstintensity</parameterid>
							<name>Intensity</name>
							<valuemin>0</valuemin>
							<valuemax>100</valuemax>
							<value>75</value>
						</parameter>
						<parameter>
							<parameterid>starburstradius</parameterid>
							<name>Radius</name>
							<valuemin>0</valuemin>
							<valuemax>150</valuemax>
							<value>75</value>
						</parameter>
						<parameter>
							<parameterid>starburststarpoints</parameterid>
							<name>Star Points</name>
							<valuemin>0</valuemin>
							<valuemax>200</valuemax>
							<value>90</value>
						</parameter>
						<parameter>
							<parameterid>starcentre</parameterid>
							<name>Centre Size</name>
							<valuemin>0</valuemin>
							<valuemax>100</valuemax>
							<value>75</value>
						</parameter>
						<parameter>
							<parameterid>starfalloff</parameterid>
							<name>Fall Off</name>
							<valuemin>0</valuemin>
							<valuemax>100</valuemax>
							<value>75</value>
						</parameter>
						<parameter>
							<parameterid>starburstrandom</parameterid>
							<name>Randomness</name>
							<valuemin>0</valuemin>
							<valuemax>4</valuemax>
							<value>0.4</value>
						</parameter>
						<parameter>
							<parameterid>settingsvar4</parameterid>
							<name>   Rainbow</name>
							<value>string</value>
						</parameter>
						<parameter>
							<parameterid>rainbowon</parameterid>
							<name>Rainbow On?</name>
							<value>TRUE</value>
						</parameter>
						<parameter>
							<parameterid>rainbowcolors</parameterid>
							<name>Colour Type</name>
							<valuemin>1</valuemin>
							<valuemax>2</valuemax>
							<valuelist>
								<valueentry>
									<name>Rainbow</name>
									<value>1</value>
								</valueentry>
								<valueentry>
									<name>User Colour</name>
									<value>2</value>
								</valueentry>
							</valuelist>
							<value>1</value>
						</parameter>
						<parameter>
							<parameterid>rainbowusercolor</parameterid>
							<name>User Colour</name>
							<value>
								<alpha>255</alpha>
								<red>230</red>
								<green>110</green>
								<blue>22</blue>
							</value>
						</parameter>
						<parameter>
							<parameterid>rainbowposition</parameterid>
							<name>Position</name>
							<valuemin>-200</valuemin>
							<valuemax>200</valuemax>
							<value>100</value>
						</parameter>
						<parameter>
							<parameterid>rainbowintensity</parameterid>
							<name>Intensity</name>
							<valuemin>0</valuemin>
							<valuemax>100</valuemax>
							<value>20</value>
						</parameter>
						<parameter>
							<parameterid>rainbowradius</parameterid>
							<name>Radius</name>
							<valuemin>0</valuemin>
							<valuemax>200</valuemax>
							<value>50</value>
						</parameter>
						<parameter>
							<parameterid>rainbowthickness</parameterid>
							<name>Thickness</name>
							<valuemin>0</valuemin>
							<valuemax>1</valuemax>
							<value>0.15</value>
						</parameter>
						<parameter>
							<parameterid>rainbowsharpness</parameterid>
							<name>Sharpness</name>
							<valuemin>0</valuemin>
							<valuemax>1</valuemax>
							<value>0.65</value>
						</parameter>
						<parameter>
							<parameterid>settingsvar5</parameterid>
							<name>   Spots</name>
							<value>string</value>
						</parameter>
						<parameter>
							<parameterid>spotson</parameterid>
							<name>Spots On?</name>
							<value>TRUE</value>
						</parameter>
						<parameter>
							<parameterid>spotsnumber</parameterid>
							<name>Number</name>
							<valuemin>0</valuemin>
							<valuemax>100</valuemax>
							<value>12</value>
						</parameter>
						<parameter>
							<parameterid>spotsintensity</parameterid>
							<name>Intensity</name>
							<valuemin>0</valuemin>
							<valuemax>100</valuemax>
							<value>80</value>
						</parameter>
						<parameter>
							<parameterid>spotsradius</parameterid>
							<name>Radius</name>
							<valuemin>0</valuemin>
							<valuemax>150</valuemax>
							<value>30</value>
						</parameter>
						<parameter>
							<parameterid>spotsdisky</parameterid>
							<name>Disky</name>
							<valuemin>0</valuemin>
							<valuemax>100</valuemax>
							<value>75</value>
						</parameter>
						<parameter>
							<parameterid>spotsringy</parameterid>
							<name>Ringy</name>
							<valuemin>0</valuemin>
							<valuemax>100</valuemax>
							<value>75</value>
						</parameter>
						<parameter>
							<parameterid>spotsblotty</parameterid>
							<name>Blotty</name>
							<valuemin>0</valuemin>
							<valuemax>100</valuemax>
							<value>75</value>
						</parameter>
						<parameter>
							<parameterid>spotsbloony</parameterid>
							<name>Bloony</name>
							<valuemin>0</valuemin>
							<valuemax>100</valuemax>
							<value>75</value>
						</parameter>
						<parameter>
							<parameterid>spotsvarycolour</parameterid>
							<name>Vary Colour</name>
							<valuemin>0</valuemin>
							<valuemax>100</valuemax>
							<value>31</value>
						</parameter>
						<parameter>
							<parameterid>spotsbasehue</parameterid>
							<name>Base Hue</name>
							<valuemin>0</valuemin>
							<valuemax>100</valuemax>
							<value>72</value>
						</parameter>
						<parameter>
							<parameterid>spotssaturation</parameterid>
							<name>Saturation</name>
							<valuemin>0</valuemin>
							<valuemax>100</valuemax>
							<value>20</value>
						</parameter>
						<parameter>
							<parameterid>copyright</parameterid>
							<name>©www.nattress.com</name>
							<value>string</value>
						</parameter>
					</effect>
				</transitionitem>
				<clipitem id="AA1480_01 ">
					<name>AA1480_01</name>
					<duration>432</duration>
					<rate>
						<ntsc>FALSE</ntsc>
						<timebase>25</timebase>
					</rate>
					<in>113</in>
					<out>291</out>
					<start>-1</start>
					<end>7908</end>
					<pixelaspectratio>Square</pixelaspectratio>
					<enabled>TRUE</enabled>
					<anamorphic>FALSE</anamorphic>
					<alphatype>none</alphatype>
					<masterclipid>AA1480_01 1</masterclipid>
					<logginginfo>
						<scene/>
						<shottake/>
						<lognote/>
						<good>FALSE</good>
					</logginginfo>
					<labels>
						<label2/>
					</labels>
					<comments>
						<mastercomment1/>
						<mastercomment2/>
						<mastercomment3/>
						<mastercomment4/>
					</comments>
					<file id="AA1480_01 2">
						<name>AA1480_01.mov</name>
						<pathurl>file://localhost/Volumes/Askepott/Prosjekter/DNPR637010_Kra%CC%8Akeklubben_TEM_011212/Video/MELLOMSTIKK/S01E%20Spor%20i%20sn%C3%B8en/Canon%20XF/AA1480_01.mov</pathurl>
						<rate>
							<timebase>25</timebase>
						</rate>
						<duration>432</duration>
						<metadata>
							<storage>QuickTime</storage>
							<key>com.apple.proapps.originalFormat</key>
							<size>14</size>
							<type>UTF8</type>
							<value>Canon XF MPEG2</value>
						</metadata>
						<metadata>
							<storage>QuickTime</storage>
							<key>com.apple.quicktime.creationdate</key>
							<size>24</size>
							<type>UTF8</type>
							<value>2012-02-22T16:06:36+0100</value>
						</metadata>
						<metadata>
							<storage>QuickTime</storage>
							<key>com.apple.proapps.isGood</key>
							<size>4</size>
							<type>unsigned</type>
							<value>0</value>
						</metadata>
						<metadata>
							<storage>QuickTime</storage>
							<key>com.apple.finalcutstudio.media.uuid</key>
							<size>36</size>
							<type>UTF8</type>
							<value>DB0C7AB0-212A-473B-BC5B-042772B1672C</value>
						</metadata>
						<metadata>
							<storage>QuickTime</storage>
							<key>com.apple.proapps.clipID</key>
							<size>36</size>
							<type>UTF8</type>
							<value>0A298038-7959-0580-0000-850001E01891</value>
						</metadata>
						<metadata>
							<storage>QuickTime</storage>
							<key>com.apple.proapps.reel</key>
							<size>8</size>
							<type>UTF8</type>
							<value>CANON XF</value>
						</metadata>
						<timecode>
							<rate>
								<timebase>25</timebase>
							</rate>
							<string>01:16:47:01</string>
							<frame>115176</frame>
							<displayformat>NDF</displayformat>
							<source>source</source>
							<reel>
								<name>CANON XF</name>
							</reel>
						</timecode>
						<media>
							<video>
								<duration>432</duration>
								<samplecharacteristics>
									<width>1920</width>
									<height>1080</height>
								</samplecharacteristics>
							</video>
							<audio>
								<samplecharacteristics>
									<samplerate>48000</samplerate>
									<depth>16</depth>
								</samplecharacteristics>
								<channelcount>1</channelcount>
								<layout>mono</layout>
								<audiochannel>
									<sourcechannel>1</sourcechannel>
									<channellabel>discrete</channellabel>
								</audiochannel>
							</audio>
							<audio>
								<samplecharacteristics>
									<samplerate>48000</samplerate>
									<depth>16</depth>
								</samplecharacteristics>
								<channelcount>1</channelcount>
								<layout>mono</layout>
								<audiochannel>
									<sourcechannel>2</sourcechannel>
									<channellabel>discrete</channellabel>
								</audiochannel>
							</audio>
						</media>
					</file>
					<filter>
						<effect>
							<name>Basic Motion</name>
							<effectid>basic</effectid>
							<effectcategory>motion</effectcategory>
							<effecttype>motion</effecttype>
							<mediatype>video</mediatype>
							<parameter>
								<parameterid>scale</parameterid>
								<name>Scale</name>
								<valuemin>0</valuemin>
								<valuemax>1000</valuemax>
								<value>115</value>
							</parameter>
							<parameter>
								<parameterid>rotation</parameterid>
								<name>Rotation</name>
								<valuemin>-8640</valuemin>
								<valuemax>8640</valuemax>
								<value>0</value>
							</parameter>
							<parameter>
								<parameterid>center</parameterid>
								<name>Center</name>
								<value>
									<horiz>0.00132802</horiz>
									<vert>0.0306604</vert>
								</value>
							</parameter>
							<parameter>
								<parameterid>centerOffset</parameterid>
								<name>Anchor Point</name>
								<value>
									<horiz>0</horiz>
									<vert>0</vert>
								</value>
							</parameter>
						</effect>
					</filter>
					<filter>
						<enabled>FALSE</enabled>
						<effect>
							<name>Drop Shadow</name>
							<effectid>dropshadow</effectid>
							<effectcategory>motion</effectcategory>
							<effecttype>motion</effecttype>
							<mediatype>video</mediatype>
							<parameter>
								<parameterid>offset</parameterid>
								<name>offset</name>
								<valuemin>-100</valuemin>
								<valuemax>100</valuemax>
								<value>2</value>
							</parameter>
							<parameter>
								<parameterid>angle</parameterid>
								<name>angle</name>
								<valuemin>-720</valuemin>
								<valuemax>720</valuemax>
								<value>135</value>
							</parameter>
							<parameter>
								<parameterid>color</parameterid>
								<name>color</name>
								<value>
									<alpha>0</alpha>
									<red>0</red>
									<green>0</green>
									<blue>0</blue>
								</value>
							</parameter>
							<parameter>
								<parameterid>softness</parameterid>
								<name>softness</name>
								<valuemin>0</valuemin>
								<valuemax>100</valuemax>
								<value>10</value>
							</parameter>
							<parameter>
								<parameterid>opacity</parameterid>
								<name>opacity</name>
								<valuemin>0</valuemin>
								<valuemax>100</valuemax>
								<value>50</value>
							</parameter>
						</effect>
					</filter>
					<filter>
						<enabled>FALSE</enabled>
						<effect>
							<name>Motion Blur</name>
							<effectid>motionblur</effectid>
							<effectcategory>motion</effectcategory>
							<effecttype>motion</effecttype>
							<mediatype>video</mediatype>
							<parameter>
								<parameterid>duration</parameterid>
								<name>% Blur</name>
								<valuemin>0</valuemin>
								<valuemax>1000</valuemax>
								<value>500</value>
							</parameter>
							<parameter>
								<parameterid>samples</parameterid>
								<name>Samples</name>
								<valuemin>1</valuemin>
								<valuemax>16</valuemax>
								<value>4</value>
							</parameter>
						</effect>
					</filter>
					<filter>
						<effect>
							<name>Crop</name>
							<effectid>crop</effectid>
							<effectcategory>motion</effectcategory>
							<effecttype>motion</effecttype>
							<mediatype>video</mediatype>
							<parameter>
								<parameterid>left</parameterid>
								<name>left</name>
								<valuemin>0</valuemin>
								<valuemax>100</valuemax>
								<value>0</value>
							</parameter>
							<parameter>
								<parameterid>right</parameterid>
								<name>right</name>
								<valuemin>0</valuemin>
								<valuemax>100</valuemax>
								<value>0</value>
							</parameter>
							<parameter>
								<parameterid>top</parameterid>
								<name>top</name>
								<valuemin>0</valuemin>
								<valuemax>100</valuemax>
								<value>0</value>
							</parameter>
							<parameter>
								<parameterid>bottom</parameterid>
								<name>bottom</name>
								<valuemin>0</valuemin>
								<valuemax>100</valuemax>
								<value>0</value>
							</parameter>
							<parameter>
								<parameterid>edgefeather</parameterid>
								<name>edgefeather</name>
								<valuemin>0</valuemin>
								<valuemax>100</valuemax>
								<value>0</value>
							</parameter>
						</effect>
					</filter>
					<filter>
						<effect>
							<name>Distort</name>
							<effectid>deformation</effectid>
							<effectcategory>motion</effectcategory>
							<effecttype>motion</effecttype>
							<mediatype>video</mediatype>
							<parameter>
								<parameterid>ulcorner</parameterid>
								<name>Upper Left</name>
								<value>
									<horiz>-0.5</horiz>
									<vert>-0.5</vert>
								</value>
							</parameter>
							<parameter>
								<parameterid>urcorner</parameterid>
								<name>Upper Right</name>
								<value>
									<horiz>0.5</horiz>
									<vert>-0.5</vert>
								</value>
							</parameter>
							<parameter>
								<parameterid>lrcorner</parameterid>
								<name>Lower Right</name>
								<value>
									<horiz>0.5</horiz>
									<vert>0.5</vert>
								</value>
							</parameter>
							<parameter>
								<parameterid>llcorner</parameterid>
								<name>Lower Left</name>
								<value>
									<horiz>-0.5</horiz>
									<vert>0.5</vert>
								</value>
							</parameter>
							<parameter>
								<parameterid>aspect</parameterid>
								<name>Aspect</name>
								<valuemin>-10000</valuemin>
								<valuemax>10000</valuemax>
								<value>0</value>
							</parameter>
						</effect>
					</filter>
					<filter>
						<effect>
							<name>Opacity</name>
							<effectid>opacity</effectid>
							<effectcategory>motion</effectcategory>
							<effecttype>motion</effecttype>
							<mediatype>video</mediatype>
							<parameter>
								<parameterid>opacity</parameterid>
								<name>opacity</name>
								<valuemin>0</valuemin>
								<valuemax>100</valuemax>
								<value>100</value>
							</parameter>
						</effect>
					</filter>
					<sourcetrack>
						<mediatype>video</mediatype>
					</sourcetrack>
					<link>
						<linkclipref>AA1480_01 </linkclipref>
						<mediatype>video</mediatype>
						<trackindex>1</trackindex>
						<clipindex>66</clipindex>
					</link>
					<link>
						<linkclipref>AA1480_01 3</linkclipref>
						<mediatype>audio</mediatype>
						<trackindex>1</trackindex>
						<clipindex>47</clipindex>
					</link>
					<fielddominance>upper</fielddominance>
					<itemhistory>
						<uuid>909B2AFC-8A55-43BE-8800-8CAD0F39EEE8</uuid>
					</itemhistory>
				</clipitem>
				<clipitem id="Til S02E18 Dyrespor-HD.mxf">
					<name>Til S02E18 Dyrespor-HD.mxf</name>
					<duration>691</duration>
					<rate>
						<ntsc>FALSE</ntsc>
						<timebase>25</timebase>
					</rate>
					<in>0</in>
					<out>67</out>
					<start>7908</start>
					<end>7975</end>
					<pixelaspectratio>Square</pixelaspectratio>
					<enabled>TRUE</enabled>
					<anamorphic>FALSE</anamorphic>
					<alphatype>none</alphatype>
					<masterclipid>Til S02E18 Dyrespor-HD.mxf1</masterclipid>
					<logginginfo>
						<scene/>
						<shottake/>
						<lognote/>
						<good>FALSE</good>
					</logginginfo>
					<labels>
						<label2/>
					</labels>
					<comments>
						<mastercomment1/>
						<mastercomment2/>
						<mastercomment3/>
						<mastercomment4/>
					</comments>
					<file id="Til S02E18 Dyrespor-HD">
						<name>Til S02E18 Dyrespor-HD.mxf</name>
						<pathurl>file://localhost/Volumes/Askepott/Prosjekter/DNPR637010_Kra%CC%8Akeklubben_TEM_011212/Video/Arkiv/HD-konvertert/Til%20S02E18%20Dyrespor-HD.mxf</pathurl>
						<rate>
							<timebase>25</timebase>
						</rate>
						<duration>691</duration>
						<timecode>
							<rate>
								<timebase>25</timebase>
							</rate>
							<string>00:00:00:00</string>
							<frame>0</frame>
							<displayformat>NDF</displayformat>
							<source>source</source>
						</timecode>
						<media>
							<video>
								<duration>691</duration>
								<samplecharacteristics>
									<width>1920</width>
									<height>1080</height>
								</samplecharacteristics>
							</video>
							<audio>
								<samplecharacteristics>
									<samplerate>48000</samplerate>
									<depth>16</depth>
								</samplecharacteristics>
								<channelcount>2</channelcount>
							</audio>
						</media>
					</file>
					<filter>
						<enabled>TRUE</enabled>
						<start>-1</start>
						<end>-1</end>
						<effect>
							<name>Twixtor FxPlug</name>
							<effectid>FxPlugWrapper:B3134303_3C75_40AE_B82F_F0A6EAB802E2</effectid>
							<effectclass>FxPlug</effectclass>
							<effecttype>filter</effecttype>
							<mediatype>video</mediatype>
							<parameter>
								<parameterid>input_1</parameterid>
								<name>Display</name>
								<valuelist>
									<valueentry>
										<name>Twixtored Output</name>
										<value>1</value>
									</valueentry>
									<valueentry>
										<name>Source</name>
										<value>2</value>
									</valueentry>
									<valueentry>
										<name>Alt Track Source</name>
										<value>3</value>
									</valueentry>
								</valuelist>
								<value>1</value>
							</parameter>
							<parameter>
								<parameterid>group_2</parameterid>
								<name>Source Control</name>
								<value>Source Control</value>
							</parameter>
							<parameter>
								<parameterid>input_3</parameterid>
								<name>Alt Track Source</name>
							</parameter>
							<parameter>
								<parameterid>input_4</parameterid>
								<name>Mark Segments</name>
								<valuemin>1</valuemin>
								<valuemax>2</valuemax>
								<value>1</value>
							</parameter>
							<parameter>
								<parameterid>group_5</parameterid>
								<name>Track Control</name>
								<value>Track Control</value>
							</parameter>
							<parameter>
								<parameterid>input_6</parameterid>
								<name>Motion Vectors</name>
								<valuelist>
									<valueentry>
										<name>No Motion Vectors</name>
										<value>1</value>
									</valueentry>
									<valueentry>
										<name>Sloppy</name>
										<value>2</value>
									</valueentry>
									<valueentry>
										<name>Medium</name>
										<value>3</value>
									</valueentry>
									<valueentry>
										<name>High</name>
										<value>4</value>
									</valueentry>
									<valueentry>
										<name>Best</name>
										<value>5</value>
									</valueentry>
								</valuelist>
								<value>5</value>
							</parameter>
							<parameter>
								<parameterid>input_7</parameterid>
								<name>Image Prep</name>
								<valuelist>
									<valueentry>
										<name>None</name>
										<value>1</value>
									</valueentry>
									<valueentry>
										<name>Contrast/Edge Enhance</name>
										<value>2</value>
									</valueentry>
								</valuelist>
								<value>2</value>
							</parameter>
							<parameter>
								<parameterid>input_8</parameterid>
								<name>Motion Sensitivity</name>
								<valuemin>0</valuemin>
								<valuemax>100</valuemax>
								<value>80</value>
							</parameter>
							<parameter>
								<parameterid>group_9</parameterid>
								<name>Output Control</name>
								<value>Output Control</value>
							</parameter>
							<parameter>
								<parameterid>input_10</parameterid>
								<name>Time Remap Mode</name>
								<valuelist>
									<valueentry>
										<name>Speed</name>
										<value>1</value>
									</valueentry>
									<valueentry>
										<name>Frame Number</name>
										<value>2</value>
									</valueentry>
								</valuelist>
								<value>1</value>
							</parameter>
							<parameter>
								<parameterid>input_11</parameterid>
								<name>Speed %</name>
								<valuemin>-10000</valuemin>
								<valuemax>10000</valuemax>
								<value>40</value>
							</parameter>
							<parameter>
								<parameterid>input_12</parameterid>
								<name>Frame Num</name>
								<valuemin>0</valuemin>
								<valuemax>30000</valuemax>
								<value>0</value>
							</parameter>
							<parameter>
								<parameterid>input_13</parameterid>
								<name>Frame Interp</name>
								<valuelist>
									<valueentry>
										<name>Nearest</name>
										<value>1</value>
									</valueentry>
									<valueentry>
										<name>Blend</name>
										<value>2</value>
									</valueentry>
									<valueentry>
										<name>Motion Weighted Blend</name>
										<value>3</value>
									</valueentry>
								</valuelist>
								<value>2</value>
							</parameter>
							<parameter>
								<parameterid>input_14</parameterid>
								<name>Smart Blend</name>
								<value>TRUE</value>
							</parameter>
							<parameter>
								<parameterid>input_15</parameterid>
								<name>Motion Blur Compensation</name>
								<valuemin>0</valuemin>
								<valuemax>10</valuemax>
								<value>0</value>
							</parameter>
							<parameter>
								<parameterid>endGroup_9</parameterid>
								<name/>
								<value/>
							</parameter>
							<parameter>
								<parameterid>input_16</parameterid>
								<name>Registered to</name>
								<value>4Hans Ludvig Andreassen</value>
							</parameter>
							<parameter>
								<parameterid>FCP_FilterMix</parameterid>
								<name>Mix</name>
								<valuemin>0</valuemin>
								<valuemax>100</valuemax>
								<value>100</value>
							</parameter>
						</effect>
					</filter>
					<filter>
						<effect>
							<name>Opacity</name>
							<effectid>opacity</effectid>
							<effectcategory>motion</effectcategory>
							<effecttype>motion</effecttype>
							<mediatype>video</mediatype>
							<parameter>
								<parameterid>opacity</parameterid>
								<name>opacity</name>
								<valuemin>0</valuemin>
								<valuemax>100</valuemax>
								<value>100</value>
							</parameter>
						</effect>
					</filter>
					<filter>
						<effect>
							<name>Basic Motion</name>
							<effectid>basic</effectid>
							<effectcategory>motion</effectcategory>
							<effecttype>motion</effecttype>
							<mediatype>video</mediatype>
							<parameter>
								<parameterid>scale</parameterid>
								<name>Scale</name>
								<valuemin>0</valuemin>
								<valuemax>1000</valuemax>
								<value>102</value>
							</parameter>
							<parameter>
								<parameterid>rotation</parameterid>
								<name>Rotation</name>
								<valuemin>-8640</valuemin>
								<valuemax>8640</valuemax>
								<value>0</value>
							</parameter>
							<parameter>
								<parameterid>center</parameterid>
								<name>Center</name>
								<keyframe>
									<when>0</when>
									<value>
										<horiz>0</horiz>
										<vert>-0.992593</vert>
									</value>
									<inscale>0</inscale>
									<outscale>0</outscale>
									<outbez>
										<horiz>0.1</horiz>
										<vert>1.5708</vert>
									</outbez>
								</keyframe>
								<keyframe>
									<when>8</when>
									<value>
										<horiz>2.30029e-09</horiz>
										<vert>-0.0277778</vert>
									</value>
								</keyframe>
								<keyframe>
									<when>9</when>
									<value>
										<horiz>0</horiz>
										<vert>0</vert>
									</value>
									<inscale>0</inscale>
									<inbez>
										<horiz>0.00578704</horiz>
										<vert>1.5708</vert>
									</inbez>
									<outscale>0</outscale>
									<outbez>
										<horiz>0.00578704</horiz>
										<vert>4.71239</vert>
									</outbez>
								</keyframe>
								<interpolation>
									<name>FCPCurve</name>
								</interpolation>
							</parameter>
							<parameter>
								<parameterid>centerOffset</parameterid>
								<name>Anchor Point</name>
								<value>
									<horiz>0</horiz>
									<vert>0</vert>
								</value>
							</parameter>
						</effect>
					</filter>
					<filter>
						<enabled>FALSE</enabled>
						<effect>
							<name>Drop Shadow</name>
							<effectid>dropshadow</effectid>
							<effectcategory>motion</effectcategory>
							<effecttype>motion</effecttype>
							<mediatype>video</mediatype>
							<parameter>
								<parameterid>offset</parameterid>
								<name>offset</name>
								<valuemin>-100</valuemin>
								<valuemax>100</valuemax>
								<value>2</value>
							</parameter>
							<parameter>
								<parameterid>angle</parameterid>
								<name>angle</name>
								<valuemin>-720</valuemin>
								<valuemax>720</valuemax>
								<value>135</value>
							</parameter>
							<parameter>
								<parameterid>color</parameterid>
								<name>color</name>
								<value>
									<alpha>0</alpha>
									<red>0</red>
									<green>0</green>
									<blue>0</blue>
								</value>
							</parameter>
							<parameter>
								<parameterid>softness</parameterid>
								<name>softness</name>
								<valuemin>0</valuemin>
								<valuemax>100</valuemax>
								<value>10</value>
							</parameter>
							<parameter>
								<parameterid>opacity</parameterid>
								<name>opacity</name>
								<valuemin>0</valuemin>
								<valuemax>100</valuemax>
								<value>50</value>
							</parameter>
						</effect>
					</filter>
					<filter>
						<enabled>FALSE</enabled>
						<effect>
							<name>Motion Blur</name>
							<effectid>motionblur</effectid>
							<effectcategory>motion</effectcategory>
							<effecttype>motion</effecttype>
							<mediatype>video</mediatype>
							<parameter>
								<parameterid>duration</parameterid>
								<name>% Blur</name>
								<valuemin>0</valuemin>
								<valuemax>1000</valuemax>
								<value>500</value>
							</parameter>
							<parameter>
								<parameterid>samples</parameterid>
								<name>Samples</name>
								<valuemin>1</valuemin>
								<valuemax>16</valuemax>
								<value>4</value>
							</parameter>
						</effect>
					</filter>
					<filter>
						<effect>
							<name>Crop</name>
							<effectid>crop</effectid>
							<effectcategory>motion</effectcategory>
							<effecttype>motion</effecttype>
							<mediatype>video</mediatype>
							<parameter>
								<parameterid>left</parameterid>
								<name>left</name>
								<valuemin>0</valuemin>
								<valuemax>100</valuemax>
								<value>0</value>
							</parameter>
							<parameter>
								<parameterid>right</parameterid>
								<name>right</name>
								<valuemin>0</valuemin>
								<valuemax>100</valuemax>
								<value>0</value>
							</parameter>
							<parameter>
								<parameterid>top</parameterid>
								<name>top</name>
								<valuemin>0</valuemin>
								<valuemax>100</valuemax>
								<value>0</value>
							</parameter>
							<parameter>
								<parameterid>bottom</parameterid>
								<name>bottom</name>
								<valuemin>0</valuemin>
								<valuemax>100</valuemax>
								<value>0</value>
							</parameter>
							<parameter>
								<parameterid>edgefeather</parameterid>
								<name>edgefeather</name>
								<valuemin>0</valuemin>
								<valuemax>100</valuemax>
								<value>0</value>
							</parameter>
						</effect>
					</filter>
					<filter>
						<effect>
							<name>Distort</name>
							<effectid>deformation</effectid>
							<effectcategory>motion</effectcategory>
							<effecttype>motion</effecttype>
							<mediatype>video</mediatype>
							<parameter>
								<parameterid>ulcorner</parameterid>
								<name>Upper Left</name>
								<value>
									<horiz>-0.5</horiz>
									<vert>-0.5</vert>
								</value>
							</parameter>
							<parameter>
								<parameterid>urcorner</parameterid>
								<name>Upper Right</name>
								<value>
									<horiz>0.5</horiz>
									<vert>-0.5</vert>
								</value>
							</parameter>
							<parameter>
								<parameterid>lrcorner</parameterid>
								<name>Lower Right</name>
								<value>
									<horiz>0.5</horiz>
									<vert>0.5</vert>
								</value>
							</parameter>
							<parameter>
								<parameterid>llcorner</parameterid>
								<name>Lower Left</name>
								<value>
									<horiz>-0.5</horiz>
									<vert>0.5</vert>
								</value>
							</parameter>
							<parameter>
								<parameterid>aspect</parameterid>
								<name>Aspect</name>
								<valuemin>-10000</valuemin>
								<valuemax>10000</valuemax>
								<value>0</value>
							</parameter>
						</effect>
					</filter>
					<sourcetrack>
						<mediatype>video</mediatype>
					</sourcetrack>
					<fielddominance>upper</fielddominance>
					<itemhistory>
						<uuid>808D97A9-457E-4D5F-AEAF-0B1A2ADF768C</uuid>
					</itemhistory>
				</clipitem>
				<clipitem id="Til S02E18 Dyrespor-HD.mxf2">
					<name>Til S02E18 Dyrespor-HD.mxf</name>
					<duration>691</duration>
					<rate>
						<ntsc>FALSE</ntsc>
						<timebase>25</timebase>
					</rate>
					<in>67</in>
					<out>142</out>
					<start>7975</start>
					<end>8050</end>
					<pixelaspectratio>Square</pixelaspectratio>
					<enabled>TRUE</enabled>
					<anamorphic>FALSE</anamorphic>
					<alphatype>none</alphatype>
					<masterclipid>Til S02E18 Dyrespor-HD.mxf1</masterclipid>
					<logginginfo>
						<scene/>
						<shottake/>
						<lognote/>
						<good>FALSE</good>
					</logginginfo>
					<labels>
						<label2/>
					</labels>
					<comments>
						<mastercomment1/>
						<mastercomment2/>
						<mastercomment3/>
						<mastercomment4/>
					</comments>
					<file id="Til S02E18 Dyrespor-HD"/>
					<filter>
						<enabled>TRUE</enabled>
						<start>-1</start>
						<end>-1</end>
						<effect>
							<name>Twixtor FxPlug</name>
							<effectid>FxPlugWrapper:B3134303_3C75_40AE_B82F_F0A6EAB802E2</effectid>
							<effectclass>FxPlug</effectclass>
							<effecttype>filter</effecttype>
							<mediatype>video</mediatype>
							<parameter>
								<parameterid>input_1</parameterid>
								<name>Display</name>
								<valuelist>
									<valueentry>
										<name>Twixtored Output</name>
										<value>1</value>
									</valueentry>
									<valueentry>
										<name>Source</name>
										<value>2</value>
									</valueentry>
									<valueentry>
										<name>Alt Track Source</name>
										<value>3</value>
									</valueentry>
								</valuelist>
								<value>1</value>
							</parameter>
							<parameter>
								<parameterid>group_2</parameterid>
								<name>Source Control</name>
								<value>Source Control</value>
							</parameter>
							<parameter>
								<parameterid>input_3</parameterid>
								<name>Alt Track Source</name>
							</parameter>
							<parameter>
								<parameterid>input_4</parameterid>
								<name>Mark Segments</name>
								<valuemin>1</valuemin>
								<valuemax>2</valuemax>
								<value>1</value>
							</parameter>
							<parameter>
								<parameterid>group_5</parameterid>
								<name>Track Control</name>
								<value>Track Control</value>
							</parameter>
							<parameter>
								<parameterid>input_6</parameterid>
								<name>Motion Vectors</name>
								<valuelist>
									<valueentry>
										<name>No Motion Vectors</name>
										<value>1</value>
									</valueentry>
									<valueentry>
										<name>Sloppy</name>
										<value>2</value>
									</valueentry>
									<valueentry>
										<name>Medium</name>
										<value>3</value>
									</valueentry>
									<valueentry>
										<name>High</name>
										<value>4</value>
									</valueentry>
									<valueentry>
										<name>Best</name>
										<value>5</value>
									</valueentry>
								</valuelist>
								<value>5</value>
							</parameter>
							<parameter>
								<parameterid>input_7</parameterid>
								<name>Image Prep</name>
								<valuelist>
									<valueentry>
										<name>None</name>
										<value>1</value>
									</valueentry>
									<valueentry>
										<name>Contrast/Edge Enhance</name>
										<value>2</value>
									</valueentry>
								</valuelist>
								<value>1</value>
							</parameter>
							<parameter>
								<parameterid>input_8</parameterid>
								<name>Motion Sensitivity</name>
								<valuemin>0</valuemin>
								<valuemax>100</valuemax>
								<value>80</value>
							</parameter>
							<parameter>
								<parameterid>group_9</parameterid>
								<name>Output Control</name>
								<value>Output Control</value>
							</parameter>
							<parameter>
								<parameterid>input_10</parameterid>
								<name>Time Remap Mode</name>
								<valuelist>
									<valueentry>
										<name>Speed</name>
										<value>1</value>
									</valueentry>
									<valueentry>
										<name>Frame Number</name>
										<value>2</value>
									</valueentry>
								</valuelist>
								<value>1</value>
							</parameter>
							<parameter>
								<parameterid>input_11</parameterid>
								<name>Speed %</name>
								<valuemin>-10000</valuemin>
								<valuemax>10000</valuemax>
								<value>45</value>
							</parameter>
							<parameter>
								<parameterid>input_12</parameterid>
								<name>Frame Num</name>
								<valuemin>0</valuemin>
								<valuemax>30000</valuemax>
								<value>0</value>
							</parameter>
							<parameter>
								<parameterid>input_13</parameterid>
								<name>Frame Interp</name>
								<valuelist>
									<valueentry>
										<name>Nearest</name>
										<value>1</value>
									</valueentry>
									<valueentry>
										<name>Blend</name>
										<value>2</value>
									</valueentry>
									<valueentry>
										<name>Motion Weighted Blend</name>
										<value>3</value>
									</valueentry>
								</valuelist>
								<value>2</value>
							</parameter>
							<parameter>
								<parameterid>input_14</parameterid>
								<name>Smart Blend</name>
								<value>FALSE</value>
							</parameter>
							<parameter>
								<parameterid>input_15</parameterid>
								<name>Motion Blur Compensation</name>
								<valuemin>0</valuemin>
								<valuemax>10</valuemax>
								<value>0</value>
							</parameter>
							<parameter>
								<parameterid>endGroup_9</parameterid>
								<name/>
								<value/>
							</parameter>
							<parameter>
								<parameterid>input_16</parameterid>
								<name>Registered to</name>
								<value>4Hans Ludvig Andreassen</value>
							</parameter>
							<parameter>
								<parameterid>FCP_FilterMix</parameterid>
								<name>Mix</name>
								<valuemin>0</valuemin>
								<valuemax>100</valuemax>
								<value>100</value>
							</parameter>
						</effect>
					</filter>
					<sourcetrack>
						<mediatype>video</mediatype>
					</sourcetrack>
					<fielddominance>upper</fielddominance>
					<itemhistory>
						<uuid>991BB390-4B64-480C-A48A-4E480820B138</uuid>
					</itemhistory>
				</clipitem>
				<clipitem id="Til S02E18 Dyrespor-HD.mxf3">
					<name>Til S02E18 Dyrespor-HD.mxf</name>
					<duration>691</duration>
					<rate>
						<ntsc>FALSE</ntsc>
						<timebase>25</timebase>
					</rate>
					<in>142</in>
					<out>201</out>
					<start>8050</start>
					<end>8109</end>
					<pixelaspectratio>Square</pixelaspectratio>
					<enabled>TRUE</enabled>
					<anamorphic>FALSE</anamorphic>
					<alphatype>none</alphatype>
					<masterclipid>Til S02E18 Dyrespor-HD.mxf1</masterclipid>
					<logginginfo>
						<scene/>
						<shottake/>
						<lognote/>
						<good>FALSE</good>
					</logginginfo>
					<labels>
						<label2/>
					</labels>
					<comments>
						<mastercomment1/>
						<mastercomment2/>
						<mastercomment3/>
						<mastercomment4/>
					</comments>
					<file id="Til S02E18 Dyrespor-HD"/>
					<sourcetrack>
						<mediatype>video</mediatype>
					</sourcetrack>
					<fielddominance>upper</fielddominance>
					<itemhistory>
						<uuid>1260FC6E-5473-4290-8854-E87B79EE1DF3</uuid>
					</itemhistory>
				</clipitem>
				<clipitem id="Til S02E18 Dyrespor-HD.mxf4">
					<name>Til S02E18 Dyrespor-HD.mxf</name>
					<duration>691</duration>
					<rate>
						<ntsc>FALSE</ntsc>
						<timebase>25</timebase>
					</rate>
					<in>201</in>
					<out>349</out>
					<start>8109</start>
					<end>-1</end>
					<pixelaspectratio>Square</pixelaspectratio>
					<enabled>TRUE</enabled>
					<anamorphic>FALSE</anamorphic>
					<alphatype>none</alphatype>
					<masterclipid>Til S02E18 Dyrespor-HD.mxf1</masterclipid>
					<logginginfo>
						<scene/>
						<shottake/>
						<lognote/>
						<good>FALSE</good>
					</logginginfo>
					<labels>
						<label2/>
					</labels>
					<comments>
						<mastercomment1/>
						<mastercomment2/>
						<mastercomment3/>
						<mastercomment4/>
					</comments>
					<file id="Til S02E18 Dyrespor-HD"/>
					<filter>
						<enabled>TRUE</enabled>
						<start>-1</start>
						<end>-1</end>
						<effect>
							<name>Twixtor FxPlug</name>
							<effectid>FxPlugWrapper:B3134303_3C75_40AE_B82F_F0A6EAB802E2</effectid>
							<effectclass>FxPlug</effectclass>
							<effecttype>filter</effecttype>
							<mediatype>video</mediatype>
							<parameter>
								<parameterid>input_1</parameterid>
								<name>Display</name>
								<valuelist>
									<valueentry>
										<name>Twixtored Output</name>
										<value>1</value>
									</valueentry>
									<valueentry>
										<name>Source</name>
										<value>2</value>
									</valueentry>
									<valueentry>
										<name>Alt Track Source</name>
										<value>3</value>
									</valueentry>
								</valuelist>
								<value>1</value>
							</parameter>
							<parameter>
								<parameterid>group_2</parameterid>
								<name>Source Control</name>
								<value>Source Control</value>
							</parameter>
							<parameter>
								<parameterid>input_3</parameterid>
								<name>Alt Track Source</name>
							</parameter>
							<parameter>
								<parameterid>input_4</parameterid>
								<name>Mark Segments</name>
								<valuemin>1</valuemin>
								<valuemax>2</valuemax>
								<value>1</value>
							</parameter>
							<parameter>
								<parameterid>group_5</parameterid>
								<name>Track Control</name>
								<value>Track Control</value>
							</parameter>
							<parameter>
								<parameterid>input_6</parameterid>
								<name>Motion Vectors</name>
								<valuelist>
									<valueentry>
										<name>No Motion Vectors</name>
										<value>1</value>
									</valueentry>
									<valueentry>
										<name>Sloppy</name>
										<value>2</value>
									</valueentry>
									<valueentry>
										<name>Medium</name>
										<value>3</value>
									</valueentry>
									<valueentry>
										<name>High</name>
										<value>4</value>
									</valueentry>
									<valueentry>
										<name>Best</name>
										<value>5</value>
									</valueentry>
								</valuelist>
								<value>5</value>
							</parameter>
							<parameter>
								<parameterid>input_7</parameterid>
								<name>Image Prep</name>
								<valuelist>
									<valueentry>
										<name>None</name>
										<value>1</value>
									</valueentry>
									<valueentry>
										<name>Contrast/Edge Enhance</name>
										<value>2</value>
									</valueentry>
								</valuelist>
								<value>1</value>
							</parameter>
							<parameter>
								<parameterid>input_8</parameterid>
								<name>Motion Sensitivity</name>
								<valuemin>0</valuemin>
								<valuemax>100</valuemax>
								<value>80</value>
							</parameter>
							<parameter>
								<parameterid>group_9</parameterid>
								<name>Output Control</name>
								<value>Output Control</value>
							</parameter>
							<parameter>
								<parameterid>input_10</parameterid>
								<name>Time Remap Mode</name>
								<valuelist>
									<valueentry>
										<name>Speed</name>
										<value>1</value>
									</valueentry>
									<valueentry>
										<name>Frame Number</name>
										<value>2</value>
									</valueentry>
								</valuelist>
								<value>1</value>
							</parameter>
							<parameter>
								<parameterid>input_11</parameterid>
								<name>Speed %</name>
								<valuemin>-10000</valuemin>
								<valuemax>10000</valuemax>
								<value>48</value>
							</parameter>
							<parameter>
								<parameterid>input_12</parameterid>
								<name>Frame Num</name>
								<valuemin>0</valuemin>
								<valuemax>30000</valuemax>
								<value>0</value>
							</parameter>
							<parameter>
								<parameterid>input_13</parameterid>
								<name>Frame Interp</name>
								<valuelist>
									<valueentry>
										<name>Nearest</name>
										<value>1</value>
									</valueentry>
									<valueentry>
										<name>Blend</name>
										<value>2</value>
									</valueentry>
									<valueentry>
										<name>Motion Weighted Blend</name>
										<value>3</value>
									</valueentry>
								</valuelist>
								<value>2</value>
							</parameter>
							<parameter>
								<parameterid>input_14</parameterid>
								<name>Smart Blend</name>
								<value>FALSE</value>
							</parameter>
							<parameter>
								<parameterid>input_15</parameterid>
								<name>Motion Blur Compensation</name>
								<valuemin>0</valuemin>
								<valuemax>10</valuemax>
								<value>0</value>
							</parameter>
							<parameter>
								<parameterid>endGroup_9</parameterid>
								<name/>
								<value/>
							</parameter>
							<parameter>
								<parameterid>input_16</parameterid>
								<name>Registered to</name>
								<value>4Hans Ludvig Andreassen</value>
							</parameter>
							<parameter>
								<parameterid>FCP_FilterMix</parameterid>
								<name>Mix</name>
								<valuemin>0</valuemin>
								<valuemax>100</valuemax>
								<value>100</value>
							</parameter>
						</effect>
					</filter>
					<sourcetrack>
						<mediatype>video</mediatype>
					</sourcetrack>
					<fielddominance>upper</fielddominance>
					<itemhistory>
						<uuid>6FF1EFB9-BD33-4B85-857B-BF7AB018259D</uuid>
					</itemhistory>
				</clipitem>
				<transitionitem>
					<rate>
						<ntsc>FALSE</ntsc>
						<timebase>25</timebase>
					</rate>
					<start>8242</start>
					<end>8257</end>
					<alignment>center</alignment>
					<effect>
						<name>G Lens Flare Generell NED</name>
						<effectcategory>Nattress Big Box Of Tricks</effectcategory>
						<effecttype>transition</effecttype>
						<mediatype>video</mediatype>
						<startratio>0</startratio>
						<endratio>1</endratio>
						<reverse>FALSE</reverse>
						<parameter>
							<parameterid>dispvar1</parameterid>
							<name>Display Settings</name>
							<value>string</value>
						</parameter>
						<parameter>
							<parameterid>inputvar1</parameterid>
							<name>Flare Position</name>
							<value>string</value>
						</parameter>
						<parameter>
							<parameterid>theangle</parameterid>
							<name>Transition Direction</name>
							<valuemin>-360</valuemin>
							<valuemax>360</valuemax>
							<value>180</value>
						</parameter>
						<parameter>
							<parameterid>transitionblendduration</parameterid>
							<name>Blend Duration</name>
							<valuemin>0</valuemin>
							<valuemax>100</valuemax>
							<value>50</value>
						</parameter>
						<parameter>
							<parameterid>settingsvar1</parameterid>
							<name>Flare Settings</name>
							<value>string</value>
						</parameter>
						<parameter>
							<parameterid>presets</parameterid>
							<name>Preset Select</name>
							<valuemin>1</valuemin>
							<valuemax>4</valuemax>
							<valuelist>
								<valueentry>
									<name>Custom Controls</name>
									<value>1</value>
								</valueentry>
								<valueentry>
									<name>Other End of the Rainbow</name>
									<value>2</value>
								</valueentry>
								<valueentry>
									<name>Photon</name>
									<value>3</value>
								</valueentry>
								<valueentry>
									<name>Gaudy</name>
									<value>4</value>
								</valueentry>
							</valuelist>
							<value>1</value>
						</parameter>
						<parameter>
							<parameterid>randomevolution</parameterid>
							<name>Randomness Evolution</name>
							<valuemin>0</valuemin>
							<valuemax>1</valuemax>
							<value>0.05</value>
						</parameter>
						<parameter>
							<parameterid>flareaspect</parameterid>
							<name>Aspect</name>
							<valuemin>0.1</valuemin>
							<valuemax>10</valuemax>
							<value>1</value>
						</parameter>
						<parameter>
							<parameterid>flareintensity</parameterid>
							<name>Overall Intensity</name>
							<valuemin>0</valuemin>
							<valuemax>400</valuemax>
							<value>300</value>
						</parameter>
						<parameter>
							<parameterid>therandomseed</parameterid>
							<name>Random Seed</name>
							<valuemin>0</valuemin>
							<valuemax>100</valuemax>
							<value>100</value>
						</parameter>
						<parameter>
							<parameterid>settingsvar2</parameterid>
							<name>   Bloom</name>
							<value>string</value>
						</parameter>
						<parameter>
							<parameterid>bloomon</parameterid>
							<name>Bloom On?</name>
							<value>TRUE</value>
						</parameter>
						<parameter>
							<parameterid>bloomcolour</parameterid>
							<name>Bloom Colour</name>
							<value>
								<alpha>255</alpha>
								<red>218</red>
								<green>224</green>
								<blue>254</blue>
							</value>
						</parameter>
						<parameter>
							<parameterid>bloomcolourfromimage</parameterid>
							<name>Use Image for Bloom Colour?</name>
							<value>FALSE</value>
						</parameter>
						<parameter>
							<parameterid>bloomintensity</parameterid>
							<name>Intensity</name>
							<valuemin>0</valuemin>
							<valuemax>100</valuemax>
							<value>90</value>
						</parameter>
						<parameter>
							<parameterid>bloomradius</parameterid>
							<name>Radius</name>
							<valuemin>0</valuemin>
							<valuemax>200</valuemax>
							<value>45</value>
						</parameter>
						<parameter>
							<parameterid>bloomfalloff</parameterid>
							<name>Fall Off</name>
							<valuemin>0</valuemin>
							<valuemax>100</valuemax>
							<value>75</value>
						</parameter>
						<parameter>
							<parameterid>bloomstarry</parameterid>
							<name>Starry</name>
							<valuemin>0</valuemin>
							<valuemax>100</valuemax>
							<value>10</value>
						</parameter>
						<parameter>
							<parameterid>bloomstarpoints</parameterid>
							<name>Star Points</name>
							<valuemin>0</valuemin>
							<valuemax>100</valuemax>
							<value>7</value>
						</parameter>
						<parameter>
							<parameterid>settingsvar3</parameterid>
							<name>   StarBurst</name>
							<value>string</value>
						</parameter>
						<parameter>
							<parameterid>starburston</parameterid>
							<name>StarBurst On?</name>
							<value>TRUE</value>
						</parameter>
						<parameter>
							<parameterid>starburstcolour</parameterid>
							<name>StarBurst Colour</name>
							<value>
								<alpha>255</alpha>
								<red>254</red>
								<green>224</green>
								<blue>218</blue>
							</value>
						</parameter>
						<parameter>
							<parameterid>starburstintensity</parameterid>
							<name>Intensity</name>
							<valuemin>0</valuemin>
							<valuemax>100</valuemax>
							<value>75</value>
						</parameter>
						<parameter>
							<parameterid>starburstradius</parameterid>
							<name>Radius</name>
							<valuemin>0</valuemin>
							<valuemax>150</valuemax>
							<value>75</value>
						</parameter>
						<parameter>
							<parameterid>starburststarpoints</parameterid>
							<name>Star Points</name>
							<valuemin>0</valuemin>
							<valuemax>200</valuemax>
							<value>90</value>
						</parameter>
						<parameter>
							<parameterid>starcentre</parameterid>
							<name>Centre Size</name>
							<valuemin>0</valuemin>
							<valuemax>100</valuemax>
							<value>75</value>
						</parameter>
						<parameter>
							<parameterid>starfalloff</parameterid>
							<name>Fall Off</name>
							<valuemin>0</valuemin>
							<valuemax>100</valuemax>
							<value>75</value>
						</parameter>
						<parameter>
							<parameterid>starburstrandom</parameterid>
							<name>Randomness</name>
							<valuemin>0</valuemin>
							<valuemax>4</valuemax>
							<value>0.4</value>
						</parameter>
						<parameter>
							<parameterid>settingsvar4</parameterid>
							<name>   Rainbow</name>
							<value>string</value>
						</parameter>
						<parameter>
							<parameterid>rainbowon</parameterid>
							<name>Rainbow On?</name>
							<value>TRUE</value>
						</parameter>
						<parameter>
							<parameterid>rainbowcolors</parameterid>
							<name>Colour Type</name>
							<valuemin>1</valuemin>
							<valuemax>2</valuemax>
							<valuelist>
								<valueentry>
									<name>Rainbow</name>
									<value>1</value>
								</valueentry>
								<valueentry>
									<name>User Colour</name>
									<value>2</value>
								</valueentry>
							</valuelist>
							<value>1</value>
						</parameter>
						<parameter>
							<parameterid>rainbowusercolor</parameterid>
							<name>User Colour</name>
							<value>
								<alpha>255</alpha>
								<red>230</red>
								<green>110</green>
								<blue>22</blue>
							</value>
						</parameter>
						<parameter>
							<parameterid>rainbowposition</parameterid>
							<name>Position</name>
							<valuemin>-200</valuemin>
							<valuemax>200</valuemax>
							<value>100</value>
						</parameter>
						<parameter>
							<parameterid>rainbowintensity</parameterid>
							<name>Intensity</name>
							<valuemin>0</valuemin>
							<valuemax>100</valuemax>
							<value>20</value>
						</parameter>
						<parameter>
							<parameterid>rainbowradius</parameterid>
							<name>Radius</name>
							<valuemin>0</valuemin>
							<valuemax>200</valuemax>
							<value>50</value>
						</parameter>
						<parameter>
							<parameterid>rainbowthickness</parameterid>
							<name>Thickness</name>
							<valuemin>0</valuemin>
							<valuemax>1</valuemax>
							<value>0.15</value>
						</parameter>
						<parameter>
							<parameterid>rainbowsharpness</parameterid>
							<name>Sharpness</name>
							<valuemin>0</valuemin>
							<valuemax>1</valuemax>
							<value>0.65</value>
						</parameter>
						<parameter>
							<parameterid>settingsvar5</parameterid>
							<name>   Spots</name>
							<value>string</value>
						</parameter>
						<parameter>
							<parameterid>spotson</parameterid>
							<name>Spots On?</name>
							<value>TRUE</value>
						</parameter>
						<parameter>
							<parameterid>spotsnumber</parameterid>
							<name>Number</name>
							<valuemin>0</valuemin>
							<valuemax>100</valuemax>
							<value>12</value>
						</parameter>
						<parameter>
							<parameterid>spotsintensity</parameterid>
							<name>Intensity</name>
							<valuemin>0</valuemin>
							<valuemax>100</valuemax>
							<value>80</value>
						</parameter>
						<parameter>
							<parameterid>spotsradius</parameterid>
							<name>Radius</name>
							<valuemin>0</valuemin>
							<valuemax>150</valuemax>
							<value>30</value>
						</parameter>
						<parameter>
							<parameterid>spotsdisky</parameterid>
							<name>Disky</name>
							<valuemin>0</valuemin>
							<valuemax>100</valuemax>
							<value>75</value>
						</parameter>
						<parameter>
							<parameterid>spotsringy</parameterid>
							<name>Ringy</name>
							<valuemin>0</valuemin>
							<valuemax>100</valuemax>
							<value>75</value>
						</parameter>
						<parameter>
							<parameterid>spotsblotty</parameterid>
							<name>Blotty</name>
							<valuemin>0</valuemin>
							<valuemax>100</valuemax>
							<value>75</value>
						</parameter>
						<parameter>
							<parameterid>spotsbloony</parameterid>
							<name>Bloony</name>
							<valuemin>0</valuemin>
							<valuemax>100</valuemax>
							<value>75</value>
						</parameter>
						<parameter>
							<parameterid>spotsvarycolour</parameterid>
							<name>Vary Colour</name>
							<valuemin>0</valuemin>
							<valuemax>100</valuemax>
							<value>31</value>
						</parameter>
						<parameter>
							<parameterid>spotsbasehue</parameterid>
							<name>Base Hue</name>
							<valuemin>0</valuemin>
							<valuemax>100</valuemax>
							<value>72</value>
						</parameter>
						<parameter>
							<parameterid>spotssaturation</parameterid>
							<name>Saturation</name>
							<valuemin>0</valuemin>
							<valuemax>100</valuemax>
							<value>20</value>
						</parameter>
						<parameter>
							<parameterid>copyright</parameterid>
							<name>©www.nattress.com</name>
							<value>string</value>
						</parameter>
					</effect>
				</transitionitem>
				<clipitem id="AA1483_01 ">
					<name>AA1483_01</name>
					<duration>408</duration>
					<rate>
						<ntsc>FALSE</ntsc>
						<timebase>25</timebase>
					</rate>
					<in>93</in>
					<out>308</out>
					<start>-1</start>
					<end>8457</end>
					<pixelaspectratio>Square</pixelaspectratio>
					<enabled>TRUE</enabled>
					<anamorphic>FALSE</anamorphic>
					<alphatype>none</alphatype>
					<masterclipid>AA1483_01 1</masterclipid>
					<logginginfo>
						<scene/>
						<shottake/>
						<lognote/>
						<good>FALSE</good>
					</logginginfo>
					<labels>
						<label2/>
					</labels>
					<comments>
						<mastercomment1/>
						<mastercomment2/>
						<mastercomment3/>
						<mastercomment4/>
					</comments>
					<file id="AA1483_01 2">
						<name>AA1483_01.mov</name>
						<pathurl>file://localhost/Volumes/Askepott/Prosjekter/DNPR637010_Kra%CC%8Akeklubben_TEM_011212/Video/MELLOMSTIKK/S01E%20Spor%20i%20sn%C3%B8en/Canon%20XF/AA1483_01.mov</pathurl>
						<rate>
							<timebase>25</timebase>
						</rate>
						<duration>408</duration>
						<metadata>
							<storage>QuickTime</storage>
							<key>com.apple.proapps.originalFormat</key>
							<size>14</size>
							<type>UTF8</type>
							<value>Canon XF MPEG2</value>
						</metadata>
						<metadata>
							<storage>QuickTime</storage>
							<key>com.apple.quicktime.creationdate</key>
							<size>24</size>
							<type>UTF8</type>
							<value>2012-02-22T16:10:00+0100</value>
						</metadata>
						<metadata>
							<storage>QuickTime</storage>
							<key>com.apple.proapps.isGood</key>
							<size>4</size>
							<type>unsigned</type>
							<value>0</value>
						</metadata>
						<metadata>
							<storage>QuickTime</storage>
							<key>com.apple.finalcutstudio.media.uuid</key>
							<size>36</size>
							<type>UTF8</type>
							<value>99392877-B941-4AF0-BF85-56D4CC7D2E81</value>
						</metadata>
						<metadata>
							<storage>QuickTime</storage>
							<key>com.apple.proapps.clipID</key>
							<size>36</size>
							<type>UTF8</type>
							<value>0A29A810-7959-0580-0000-850001E01891</value>
						</metadata>
						<metadata>
							<storage>QuickTime</storage>
							<key>com.apple.proapps.reel</key>
							<size>8</size>
							<type>UTF8</type>
							<value>CANON XF</value>
						</metadata>
						<timecode>
							<rate>
								<timebase>25</timebase>
							</rate>
							<string>01:17:33:03</string>
							<frame>116328</frame>
							<displayformat>NDF</displayformat>
							<source>source</source>
							<reel>
								<name>CANON XF</name>
							</reel>
						</timecode>
						<media>
							<video>
								<duration>408</duration>
								<samplecharacteristics>
									<width>1920</width>
									<height>1080</height>
								</samplecharacteristics>
							</video>
							<audio>
								<samplecharacteristics>
									<samplerate>48000</samplerate>
									<depth>16</depth>
								</samplecharacteristics>
								<channelcount>1</channelcount>
								<layout>mono</layout>
								<audiochannel>
									<sourcechannel>1</sourcechannel>
									<channellabel>discrete</channellabel>
								</audiochannel>
							</audio>
							<audio>
								<samplecharacteristics>
									<samplerate>48000</samplerate>
									<depth>16</depth>
								</samplecharacteristics>
								<channelcount>1</channelcount>
								<layout>mono</layout>
								<audiochannel>
									<sourcechannel>2</sourcechannel>
									<channellabel>discrete</channellabel>
								</audiochannel>
							</audio>
						</media>
					</file>
					<filter>
						<effect>
							<name>Basic Motion</name>
							<effectid>basic</effectid>
							<effectcategory>motion</effectcategory>
							<effecttype>motion</effecttype>
							<mediatype>video</mediatype>
							<parameter>
								<parameterid>scale</parameterid>
								<name>Scale</name>
								<valuemin>0</valuemin>
								<valuemax>1000</valuemax>
								<value>102</value>
							</parameter>
							<parameter>
								<parameterid>rotation</parameterid>
								<name>Rotation</name>
								<valuemin>-8640</valuemin>
								<valuemax>8640</valuemax>
								<value>0</value>
							</parameter>
							<parameter>
								<parameterid>center</parameterid>
								<name>Center</name>
								<value>
									<horiz>0</horiz>
									<vert>0</vert>
								</value>
							</parameter>
							<parameter>
								<parameterid>centerOffset</parameterid>
								<name>Anchor Point</name>
								<value>
									<horiz>0</horiz>
									<vert>0</vert>
								</value>
							</parameter>
						</effect>
					</filter>
					<filter>
						<enabled>FALSE</enabled>
						<effect>
							<name>Drop Shadow</name>
							<effectid>dropshadow</effectid>
							<effectcategory>motion</effectcategory>
							<effecttype>motion</effecttype>
							<mediatype>video</mediatype>
							<parameter>
								<parameterid>offset</parameterid>
								<name>offset</name>
								<valuemin>-100</valuemin>
								<valuemax>100</valuemax>
								<value>2</value>
							</parameter>
							<parameter>
								<parameterid>angle</parameterid>
								<name>angle</name>
								<valuemin>-720</valuemin>
								<valuemax>720</valuemax>
								<value>135</value>
							</parameter>
							<parameter>
								<parameterid>color</parameterid>
								<name>color</name>
								<value>
									<alpha>0</alpha>
									<red>0</red>
									<green>0</green>
									<blue>0</blue>
								</value>
							</parameter>
							<parameter>
								<parameterid>softness</parameterid>
								<name>softness</name>
								<valuemin>0</valuemin>
								<valuemax>100</valuemax>
								<value>10</value>
							</parameter>
							<parameter>
								<parameterid>opacity</parameterid>
								<name>opacity</name>
								<valuemin>0</valuemin>
								<valuemax>100</valuemax>
								<value>50</value>
							</parameter>
						</effect>
					</filter>
					<filter>
						<enabled>FALSE</enabled>
						<effect>
							<name>Motion Blur</name>
							<effectid>motionblur</effectid>
							<effectcategory>motion</effectcategory>
							<effecttype>motion</effecttype>
							<mediatype>video</mediatype>
							<parameter>
								<parameterid>duration</parameterid>
								<name>% Blur</name>
								<valuemin>0</valuemin>
								<valuemax>1000</valuemax>
								<value>500</value>
							</parameter>
							<parameter>
								<parameterid>samples</parameterid>
								<name>Samples</name>
								<valuemin>1</valuemin>
								<valuemax>16</valuemax>
								<value>4</value>
							</parameter>
						</effect>
					</filter>
					<filter>
						<effect>
							<name>Crop</name>
							<effectid>crop</effectid>
							<effectcategory>motion</effectcategory>
							<effecttype>motion</effecttype>
							<mediatype>video</mediatype>
							<parameter>
								<parameterid>left</parameterid>
								<name>left</name>
								<valuemin>0</valuemin>
								<valuemax>100</valuemax>
								<value>0</value>
							</parameter>
							<parameter>
								<parameterid>right</parameterid>
								<name>right</name>
								<valuemin>0</valuemin>
								<valuemax>100</valuemax>
								<value>0</value>
							</parameter>
							<parameter>
								<parameterid>top</parameterid>
								<name>top</name>
								<valuemin>0</valuemin>
								<valuemax>100</valuemax>
								<value>0</value>
							</parameter>
							<parameter>
								<parameterid>bottom</parameterid>
								<name>bottom</name>
								<valuemin>0</valuemin>
								<valuemax>100</valuemax>
								<value>0</value>
							</parameter>
							<parameter>
								<parameterid>edgefeather</parameterid>
								<name>edgefeather</name>
								<valuemin>0</valuemin>
								<valuemax>100</valuemax>
								<value>0</value>
							</parameter>
						</effect>
					</filter>
					<filter>
						<effect>
							<name>Distort</name>
							<effectid>deformation</effectid>
							<effectcategory>motion</effectcategory>
							<effecttype>motion</effecttype>
							<mediatype>video</mediatype>
							<parameter>
								<parameterid>ulcorner</parameterid>
								<name>Upper Left</name>
								<value>
									<horiz>-0.5</horiz>
									<vert>-0.5</vert>
								</value>
							</parameter>
							<parameter>
								<parameterid>urcorner</parameterid>
								<name>Upper Right</name>
								<value>
									<horiz>0.5</horiz>
									<vert>-0.5</vert>
								</value>
							</parameter>
							<parameter>
								<parameterid>lrcorner</parameterid>
								<name>Lower Right</name>
								<value>
									<horiz>0.5</horiz>
									<vert>0.5</vert>
								</value>
							</parameter>
							<parameter>
								<parameterid>llcorner</parameterid>
								<name>Lower Left</name>
								<value>
									<horiz>-0.5</horiz>
									<vert>0.5</vert>
								</value>
							</parameter>
							<parameter>
								<parameterid>aspect</parameterid>
								<name>Aspect</name>
								<valuemin>-10000</valuemin>
								<valuemax>10000</valuemax>
								<value>0</value>
							</parameter>
						</effect>
					</filter>
					<filter>
						<effect>
							<name>Opacity</name>
							<effectid>opacity</effectid>
							<effectcategory>motion</effectcategory>
							<effecttype>motion</effecttype>
							<mediatype>video</mediatype>
							<parameter>
								<parameterid>opacity</parameterid>
								<name>opacity</name>
								<valuemin>0</valuemin>
								<valuemax>100</valuemax>
								<value>100</value>
							</parameter>
						</effect>
					</filter>
					<sourcetrack>
						<mediatype>video</mediatype>
					</sourcetrack>
					<link>
						<linkclipref>AA1483_01 </linkclipref>
						<mediatype>video</mediatype>
						<trackindex>1</trackindex>
						<clipindex>72</clipindex>
					</link>
					<link>
						<linkclipref>AA1483_01 3</linkclipref>
						<mediatype>audio</mediatype>
						<trackindex>1</trackindex>
						<clipindex>52</clipindex>
					</link>
					<fielddominance>upper</fielddominance>
					<itemhistory>
						<uuid>5D8227A2-0018-4691-92B2-B9A5704AF0CB</uuid>
					</itemhistory>
				</clipitem>
				<clipitem id="Til S02E18 Dyrespor-HD.mxf5">
					<name>Til S02E18 Dyrespor-HD.mxf</name>
					<duration>691</duration>
					<rate>
						<ntsc>FALSE</ntsc>
						<timebase>25</timebase>
					</rate>
					<in>349</in>
					<out>373</out>
					<start>8457</start>
					<end>8481</end>
					<pixelaspectratio>Square</pixelaspectratio>
					<enabled>TRUE</enabled>
					<anamorphic>FALSE</anamorphic>
					<alphatype>none</alphatype>
					<masterclipid>Til S02E18 Dyrespor-HD.mxf1</masterclipid>
					<logginginfo>
						<scene/>
						<shottake/>
						<lognote/>
						<good>FALSE</good>
					</logginginfo>
					<labels>
						<label2/>
					</labels>
					<comments>
						<mastercomment1/>
						<mastercomment2/>
						<mastercomment3/>
						<mastercomment4/>
					</comments>
					<file id="Til S02E18 Dyrespor-HD"/>
					<filter>
						<effect>
							<name>Basic Motion</name>
							<effectid>basic</effectid>
							<effectcategory>motion</effectcategory>
							<effecttype>motion</effecttype>
							<mediatype>video</mediatype>
							<parameter>
								<parameterid>scale</parameterid>
								<name>Scale</name>
								<valuemin>0</valuemin>
								<valuemax>1000</valuemax>
								<value>104</value>
							</parameter>
							<parameter>
								<parameterid>rotation</parameterid>
								<name>Rotation</name>
								<valuemin>-8640</valuemin>
								<valuemax>8640</valuemax>
								<value>0</value>
							</parameter>
							<parameter>
								<parameterid>center</parameterid>
								<name>Center</name>
								<keyframe>
									<when>353</when>
									<value>
										<horiz>-1.01138</horiz>
										<vert>0</vert>
									</value>
								</keyframe>
								<keyframe>
									<when>363</when>
									<value>
										<horiz>-0.389296</horiz>
										<vert>0.0037037</vert>
									</value>
								</keyframe>
								<keyframe>
									<when>368</when>
									<value>
										<horiz>-0.0892961</horiz>
										<vert>0</vert>
									</value>
								</keyframe>
								<keyframe>
									<when>372</when>
									<value>
										<horiz>-0.00929615</horiz>
										<vert>0</vert>
									</value>
								</keyframe>
								<interpolation>
									<name>FCPCurve</name>
								</interpolation>
							</parameter>
							<parameter>
								<parameterid>centerOffset</parameterid>
								<name>Anchor Point</name>
								<value>
									<horiz>0</horiz>
									<vert>0</vert>
								</value>
							</parameter>
						</effect>
					</filter>
					<filter>
						<enabled>FALSE</enabled>
						<effect>
							<name>Drop Shadow</name>
							<effectid>dropshadow</effectid>
							<effectcategory>motion</effectcategory>
							<effecttype>motion</effecttype>
							<mediatype>video</mediatype>
							<parameter>
								<parameterid>offset</parameterid>
								<name>offset</name>
								<valuemin>-100</valuemin>
								<valuemax>100</valuemax>
								<value>2</value>
							</parameter>
							<parameter>
								<parameterid>angle</parameterid>
								<name>angle</name>
								<valuemin>-720</valuemin>
								<valuemax>720</valuemax>
								<value>135</value>
							</parameter>
							<parameter>
								<parameterid>color</parameterid>
								<name>color</name>
								<value>
									<alpha>0</alpha>
									<red>0</red>
									<green>0</green>
									<blue>0</blue>
								</value>
							</parameter>
							<parameter>
								<parameterid>softness</parameterid>
								<name>softness</name>
								<valuemin>0</valuemin>
								<valuemax>100</valuemax>
								<value>10</value>
							</parameter>
							<parameter>
								<parameterid>opacity</parameterid>
								<name>opacity</name>
								<valuemin>0</valuemin>
								<valuemax>100</valuemax>
								<value>50</value>
							</parameter>
						</effect>
					</filter>
					<filter>
						<enabled>TRUE</enabled>
						<effect>
							<name>Motion Blur</name>
							<effectid>motionblur</effectid>
							<effectcategory>motion</effectcategory>
							<effecttype>motion</effecttype>
							<mediatype>video</mediatype>
							<parameter>
								<parameterid>duration</parameterid>
								<name>% Blur</name>
								<valuemin>0</valuemin>
								<valuemax>1000</valuemax>
								<value>100</value>
							</parameter>
							<parameter>
								<parameterid>samples</parameterid>
								<name>Samples</name>
								<valuemin>1</valuemin>
								<valuemax>16</valuemax>
								<value>2</value>
							</parameter>
						</effect>
					</filter>
					<filter>
						<effect>
							<name>Crop</name>
							<effectid>crop</effectid>
							<effectcategory>motion</effectcategory>
							<effecttype>motion</effecttype>
							<mediatype>video</mediatype>
							<parameter>
								<parameterid>left</parameterid>
								<name>left</name>
								<valuemin>0</valuemin>
								<valuemax>100</valuemax>
								<value>0</value>
							</parameter>
							<parameter>
								<parameterid>right</parameterid>
								<name>right</name>
								<valuemin>0</valuemin>
								<valuemax>100</valuemax>
								<value>0</value>
							</parameter>
							<parameter>
								<parameterid>top</parameterid>
								<name>top</name>
								<valuemin>0</valuemin>
								<valuemax>100</valuemax>
								<value>0</value>
							</parameter>
							<parameter>
								<parameterid>bottom</parameterid>
								<name>bottom</name>
								<valuemin>0</valuemin>
								<valuemax>100</valuemax>
								<value>0</value>
							</parameter>
							<parameter>
								<parameterid>edgefeather</parameterid>
								<name>edgefeather</name>
								<valuemin>0</valuemin>
								<valuemax>100</valuemax>
								<value>10</value>
							</parameter>
						</effect>
					</filter>
					<filter>
						<effect>
							<name>Distort</name>
							<effectid>deformation</effectid>
							<effectcategory>motion</effectcategory>
							<effecttype>motion</effecttype>
							<mediatype>video</mediatype>
							<parameter>
								<parameterid>ulcorner</parameterid>
								<name>Upper Left</name>
								<value>
									<horiz>-0.5</horiz>
									<vert>-0.5</vert>
								</value>
							</parameter>
							<parameter>
								<parameterid>urcorner</parameterid>
								<name>Upper Right</name>
								<value>
									<horiz>0.5</horiz>
									<vert>-0.5</vert>
								</value>
							</parameter>
							<parameter>
								<parameterid>lrcorner</parameterid>
								<name>Lower Right</name>
								<value>
									<horiz>0.5</horiz>
									<vert>0.5</vert>
								</value>
							</parameter>
							<parameter>
								<parameterid>llcorner</parameterid>
								<name>Lower Left</name>
								<value>
									<horiz>-0.5</horiz>
									<vert>0.5</vert>
								</value>
							</parameter>
							<parameter>
								<parameterid>aspect</parameterid>
								<name>Aspect</name>
								<valuemin>-10000</valuemin>
								<valuemax>10000</valuemax>
								<value>0</value>
							</parameter>
						</effect>
					</filter>
					<filter>
						<effect>
							<name>Opacity</name>
							<effectid>opacity</effectid>
							<effectcategory>motion</effectcategory>
							<effecttype>motion</effecttype>
							<mediatype>video</mediatype>
							<parameter>
								<parameterid>opacity</parameterid>
								<name>opacity</name>
								<valuemin>0</valuemin>
								<valuemax>100</valuemax>
								<value>100</value>
							</parameter>
						</effect>
					</filter>
					<sourcetrack>
						<mediatype>video</mediatype>
					</sourcetrack>
					<fielddominance>upper</fielddominance>
					<itemhistory>
						<uuid>681B964A-675F-4BD3-A574-CA707B1F03A1</uuid>
					</itemhistory>
				</clipitem>
				<clipitem id="Til S02E18 Dyrespor-HD.mxf6">
					<name>Til S02E18 Dyrespor-HD.mxf</name>
					<duration>691</duration>
					<rate>
						<ntsc>FALSE</ntsc>
						<timebase>25</timebase>
					</rate>
					<in>373</in>
					<out>508</out>
					<start>8481</start>
					<end>8616</end>
					<pixelaspectratio>Square</pixelaspectratio>
					<enabled>TRUE</enabled>
					<anamorphic>FALSE</anamorphic>
					<alphatype>none</alphatype>
					<masterclipid>Til S02E18 Dyrespor-HD.mxf1</masterclipid>
					<logginginfo>
						<scene/>
						<shottake/>
						<lognote/>
						<good>FALSE</good>
					</logginginfo>
					<labels>
						<label2/>
					</labels>
					<comments>
						<mastercomment1/>
						<mastercomment2/>
						<mastercomment3/>
						<mastercomment4/>
					</comments>
					<file id="Til S02E18 Dyrespor-HD"/>
					<filter>
						<effect>
							<name>Basic Motion</name>
							<effectid>basic</effectid>
							<effectcategory>motion</effectcategory>
							<effecttype>motion</effecttype>
							<mediatype>video</mediatype>
							<parameter>
								<parameterid>scale</parameterid>
								<name>Scale</name>
								<valuemin>0</valuemin>
								<valuemax>1000</valuemax>
								<value>104</value>
							</parameter>
							<parameter>
								<parameterid>rotation</parameterid>
								<name>Rotation</name>
								<valuemin>-8640</valuemin>
								<valuemax>8640</valuemax>
								<value>0</value>
							</parameter>
							<parameter>
								<parameterid>center</parameterid>
								<name>Center</name>
								<keyframe>
									<when>353</when>
									<value>
										<horiz>-1.01138</horiz>
										<vert>0</vert>
									</value>
								</keyframe>
								<keyframe>
									<when>363</when>
									<value>
										<horiz>-0.389296</horiz>
										<vert>0.0037037</vert>
									</value>
								</keyframe>
								<keyframe>
									<when>368</when>
									<value>
										<horiz>-0.0892961</horiz>
										<vert>0</vert>
									</value>
								</keyframe>
								<keyframe>
									<when>372</when>
									<value>
										<horiz>-0.00929615</horiz>
										<vert>0</vert>
									</value>
								</keyframe>
								<interpolation>
									<name>FCPCurve</name>
								</interpolation>
							</parameter>
							<parameter>
								<parameterid>centerOffset</parameterid>
								<name>Anchor Point</name>
								<value>
									<horiz>0</horiz>
									<vert>0</vert>
								</value>
							</parameter>
						</effect>
					</filter>
					<filter>
						<enabled>FALSE</enabled>
						<effect>
							<name>Drop Shadow</name>
							<effectid>dropshadow</effectid>
							<effectcategory>motion</effectcategory>
							<effecttype>motion</effecttype>
							<mediatype>video</mediatype>
							<parameter>
								<parameterid>offset</parameterid>
								<name>offset</name>
								<valuemin>-100</valuemin>
								<valuemax>100</valuemax>
								<value>2</value>
							</parameter>
							<parameter>
								<parameterid>angle</parameterid>
								<name>angle</name>
								<valuemin>-720</valuemin>
								<valuemax>720</valuemax>
								<value>135</value>
							</parameter>
							<parameter>
								<parameterid>color</parameterid>
								<name>color</name>
								<value>
									<alpha>0</alpha>
									<red>0</red>
									<green>0</green>
									<blue>0</blue>
								</value>
							</parameter>
							<parameter>
								<parameterid>softness</parameterid>
								<name>softness</name>
								<valuemin>0</valuemin>
								<valuemax>100</valuemax>
								<value>10</value>
							</parameter>
							<parameter>
								<parameterid>opacity</parameterid>
								<name>opacity</name>
								<valuemin>0</valuemin>
								<valuemax>100</valuemax>
								<value>50</value>
							</parameter>
						</effect>
					</filter>
					<filter>
						<enabled>FALSE</enabled>
						<effect>
							<name>Motion Blur</name>
							<effectid>motionblur</effectid>
							<effectcategory>motion</effectcategory>
							<effecttype>motion</effecttype>
							<mediatype>video</mediatype>
							<parameter>
								<parameterid>duration</parameterid>
								<name>% Blur</name>
								<valuemin>0</valuemin>
								<valuemax>1000</valuemax>
								<value>100</value>
							</parameter>
							<parameter>
								<parameterid>samples</parameterid>
								<name>Samples</name>
								<valuemin>1</valuemin>
								<valuemax>16</valuemax>
								<value>2</value>
							</parameter>
						</effect>
					</filter>
					<filter>
						<effect>
							<name>Crop</name>
							<effectid>crop</effectid>
							<effectcategory>motion</effectcategory>
							<effecttype>motion</effecttype>
							<mediatype>video</mediatype>
							<parameter>
								<parameterid>left</parameterid>
								<name>left</name>
								<valuemin>0</valuemin>
								<valuemax>100</valuemax>
								<value>0</value>
							</parameter>
							<parameter>
								<parameterid>right</parameterid>
								<name>right</name>
								<valuemin>0</valuemin>
								<valuemax>100</valuemax>
								<value>0</value>
							</parameter>
							<parameter>
								<parameterid>top</parameterid>
								<name>top</name>
								<valuemin>0</valuemin>
								<valuemax>100</valuemax>
								<value>0</value>
							</parameter>
							<parameter>
								<parameterid>bottom</parameterid>
								<name>bottom</name>
								<valuemin>0</valuemin>
								<valuemax>100</valuemax>
								<value>0</value>
							</parameter>
							<parameter>
								<parameterid>edgefeather</parameterid>
								<name>edgefeather</name>
								<valuemin>0</valuemin>
								<valuemax>100</valuemax>
								<value>10</value>
							</parameter>
						</effect>
					</filter>
					<filter>
						<effect>
							<name>Distort</name>
							<effectid>deformation</effectid>
							<effectcategory>motion</effectcategory>
							<effecttype>motion</effecttype>
							<mediatype>video</mediatype>
							<parameter>
								<parameterid>ulcorner</parameterid>
								<name>Upper Left</name>
								<value>
									<horiz>-0.5</horiz>
									<vert>-0.5</vert>
								</value>
							</parameter>
							<parameter>
								<parameterid>urcorner</parameterid>
								<name>Upper Right</name>
								<value>
									<horiz>0.5</horiz>
									<vert>-0.5</vert>
								</value>
							</parameter>
							<parameter>
								<parameterid>lrcorner</parameterid>
								<name>Lower Right</name>
								<value>
									<horiz>0.5</horiz>
									<vert>0.5</vert>
								</value>
							</parameter>
							<parameter>
								<parameterid>llcorner</parameterid>
								<name>Lower Left</name>
								<value>
									<horiz>-0.5</horiz>
									<vert>0.5</vert>
								</value>
							</parameter>
							<parameter>
								<parameterid>aspect</parameterid>
								<name>Aspect</name>
								<valuemin>-10000</valuemin>
								<valuemax>10000</valuemax>
								<value>0</value>
							</parameter>
						</effect>
					</filter>
					<filter>
						<effect>
							<name>Opacity</name>
							<effectid>opacity</effectid>
							<effectcategory>motion</effectcategory>
							<effecttype>motion</effecttype>
							<mediatype>video</mediatype>
							<parameter>
								<parameterid>opacity</parameterid>
								<name>opacity</name>
								<valuemin>0</valuemin>
								<valuemax>100</valuemax>
								<value>100</value>
							</parameter>
						</effect>
					</filter>
					<sourcetrack>
						<mediatype>video</mediatype>
					</sourcetrack>
					<fielddominance>upper</fielddominance>
					<itemhistory>
						<uuid>3488C1EB-A846-47D5-8CB5-024F88D87CFC</uuid>
					</itemhistory>
				</clipitem>
				<clipitem id="Til S02E18 Dyrespor-HD.mxf7">
					<name>Til S02E18 Dyrespor-HD.mxf</name>
					<duration>691</duration>
					<rate>
						<ntsc>FALSE</ntsc>
						<timebase>25</timebase>
					</rate>
					<in>508</in>
					<out>566</out>
					<start>8616</start>
					<end>-1</end>
					<pixelaspectratio>Square</pixelaspectratio>
					<enabled>TRUE</enabled>
					<anamorphic>FALSE</anamorphic>
					<alphatype>none</alphatype>
					<masterclipid>Til S02E18 Dyrespor-HD.mxf1</masterclipid>
					<logginginfo>
						<scene/>
						<shottake/>
						<lognote/>
						<good>FALSE</good>
					</logginginfo>
					<labels>
						<label2/>
					</labels>
					<comments>
						<mastercomment1/>
						<mastercomment2/>
						<mastercomment3/>
						<mastercomment4/>
					</comments>
					<file id="Til S02E18 Dyrespor-HD"/>
					<filter>
						<enabled>TRUE</enabled>
						<start>-1</start>
						<end>-1</end>
						<effect>
							<name>Twixtor FxPlug</name>
							<effectid>FxPlugWrapper:B3134303_3C75_40AE_B82F_F0A6EAB802E2</effectid>
							<effectclass>FxPlug</effectclass>
							<effecttype>filter</effecttype>
							<mediatype>video</mediatype>
							<parameter>
								<parameterid>input_1</parameterid>
								<name>Display</name>
								<valuelist>
									<valueentry>
										<name>Twixtored Output</name>
										<value>1</value>
									</valueentry>
									<valueentry>
										<name>Source</name>
										<value>2</value>
									</valueentry>
									<valueentry>
										<name>Alt Track Source</name>
										<value>3</value>
									</valueentry>
								</valuelist>
								<value>1</value>
							</parameter>
							<parameter>
								<parameterid>group_2</parameterid>
								<name>Source Control</name>
								<value>Source Control</value>
							</parameter>
							<parameter>
								<parameterid>input_3</parameterid>
								<name>Alt Track Source</name>
							</parameter>
							<parameter>
								<parameterid>input_4</parameterid>
								<name>Mark Segments</name>
								<valuemin>1</valuemin>
								<valuemax>2</valuemax>
								<value>1</value>
							</parameter>
							<parameter>
								<parameterid>group_5</parameterid>
								<name>Track Control</name>
								<value>Track Control</value>
							</parameter>
							<parameter>
								<parameterid>input_6</parameterid>
								<name>Motion Vectors</name>
								<valuelist>
									<valueentry>
										<name>No Motion Vectors</name>
										<value>1</value>
									</valueentry>
									<valueentry>
										<name>Sloppy</name>
										<value>2</value>
									</valueentry>
									<valueentry>
										<name>Medium</name>
										<value>3</value>
									</valueentry>
									<valueentry>
										<name>High</name>
										<value>4</value>
									</valueentry>
									<valueentry>
										<name>Best</name>
										<value>5</value>
									</valueentry>
								</valuelist>
								<value>5</value>
							</parameter>
							<parameter>
								<parameterid>input_7</parameterid>
								<name>Image Prep</name>
								<valuelist>
									<valueentry>
										<name>None</name>
										<value>1</value>
									</valueentry>
									<valueentry>
										<name>Contrast/Edge Enhance</name>
										<value>2</value>
									</valueentry>
								</valuelist>
								<value>1</value>
							</parameter>
							<parameter>
								<parameterid>input_8</parameterid>
								<name>Motion Sensitivity</name>
								<valuemin>0</valuemin>
								<valuemax>100</valuemax>
								<value>80</value>
							</parameter>
							<parameter>
								<parameterid>group_9</parameterid>
								<name>Output Control</name>
								<value>Output Control</value>
							</parameter>
							<parameter>
								<parameterid>input_10</parameterid>
								<name>Time Remap Mode</name>
								<valuelist>
									<valueentry>
										<name>Speed</name>
										<value>1</value>
									</valueentry>
									<valueentry>
										<name>Frame Number</name>
										<value>2</value>
									</valueentry>
								</valuelist>
								<value>1</value>
							</parameter>
							<parameter>
								<parameterid>input_11</parameterid>
								<name>Speed %</name>
								<valuemin>-10000</valuemin>
								<valuemax>10000</valuemax>
								<value>48</value>
							</parameter>
							<parameter>
								<parameterid>input_12</parameterid>
								<name>Frame Num</name>
								<valuemin>0</valuemin>
								<valuemax>30000</valuemax>
								<value>0</value>
							</parameter>
							<parameter>
								<parameterid>input_13</parameterid>
								<name>Frame Interp</name>
								<valuelist>
									<valueentry>
										<name>Nearest</name>
										<value>1</value>
									</valueentry>
									<valueentry>
										<name>Blend</name>
										<value>2</value>
									</valueentry>
									<valueentry>
										<name>Motion Weighted Blend</name>
										<value>3</value>
									</valueentry>
								</valuelist>
								<value>2</value>
							</parameter>
							<parameter>
								<parameterid>input_14</parameterid>
								<name>Smart Blend</name>
								<value>FALSE</value>
							</parameter>
							<parameter>
								<parameterid>input_15</parameterid>
								<name>Motion Blur Compensation</name>
								<valuemin>0</valuemin>
								<valuemax>10</valuemax>
								<value>0</value>
							</parameter>
							<parameter>
								<parameterid>endGroup_9</parameterid>
								<name/>
								<value/>
							</parameter>
							<parameter>
								<parameterid>input_16</parameterid>
								<name>Registered to</name>
								<value>4Hans Ludvig Andreassen</value>
							</parameter>
							<parameter>
								<parameterid>FCP_FilterMix</parameterid>
								<name>Mix</name>
								<valuemin>0</valuemin>
								<valuemax>100</valuemax>
								<value>100</value>
							</parameter>
						</effect>
					</filter>
					<filter>
						<enabled>TRUE</enabled>
						<start>-1</start>
						<end>-1</end>
						<effect>
							<name>Color Corrector 3-way</name>
							<effectid>Color Corrector 3-way</effectid>
							<effectcategory>Color Correction</effectcategory>
							<effecttype>filter</effecttype>
							<mediatype>video</mediatype>
							<parameter>
								<parameterid>dispmode</parameterid>
								<name>Display Mode</name>
								<valuemin>1</valuemin>
								<valuemax>3</valuemax>
								<valuelist>
									<valueentry>
										<name>Final</name>
										<value>1</value>
									</valueentry>
									<valueentry>
										<name>Matte</name>
										<value>2</value>
									</valueentry>
									<valueentry>
										<name>Source</name>
										<value>3</value>
									</valueentry>
								</valuelist>
								<value>1</value>
							</parameter>
							<parameter>
								<parameterid>label1</parameterid>
								<name>Blacks Controls</name>
								<value/>
							</parameter>
							<parameter>
								<parameterid>blacklevel</parameterid>
								<name>Level</name>
								<valuemin>-196</valuemin>
								<valuemax>254</valuemax>
								<value>-17</value>
							</parameter>
							<parameter>
								<parameterid>b_hue</parameterid>
								<name>Angle</name>
								<valuemin>-180</valuemin>
								<valuemax>180</valuemax>
								<value>-33</value>
							</parameter>
							<parameter>
								<parameterid>b_mag</parameterid>
								<name>Magnitude</name>
								<valuemin>0</valuemin>
								<valuemax>200</valuemax>
								<value>0</value>
							</parameter>
							<parameter>
								<parameterid>label2</parameterid>
								<name>Midrange Controls</name>
								<value/>
							</parameter>
							<parameter>
								<parameterid>mids</parameterid>
								<name>Level</name>
								<valuemin>0</valuemin>
								<valuemax>200</valuemax>
								<value>108</value>
							</parameter>
							<parameter>
								<parameterid>m_hue</parameterid>
								<name>Angle</name>
								<valuemin>-180</valuemin>
								<valuemax>180</valuemax>
								<value>-33</value>
							</parameter>
							<parameter>
								<parameterid>m_mag</parameterid>
								<name>Magnitude</name>
								<valuemin>0</valuemin>
								<valuemax>200</valuemax>
								<value>0</value>
							</parameter>
							<parameter>
								<parameterid>label3</parameterid>
								<name>Highlight Controls</name>
								<value/>
							</parameter>
							<parameter>
								<parameterid>highlights</parameterid>
								<name>Level</name>
								<valuemin>64</valuemin>
								<valuemax>509</valuemax>
								<value>255</value>
							</parameter>
							<parameter>
								<parameterid>h_hue</parameterid>
								<name>Angle</name>
								<valuemin>-180</valuemin>
								<valuemax>180</valuemax>
								<value>-33</value>
							</parameter>
							<parameter>
								<parameterid>h_mag</parameterid>
								<name>Magnitude</name>
								<valuemin>0</valuemin>
								<valuemax>200</valuemax>
								<value>0</value>
							</parameter>
							<parameter>
								<parameterid>label4</parameterid>
								<name>Color Controls</name>
								<value/>
							</parameter>
							<parameter>
								<parameterid>chroma</parameterid>
								<name>Saturation</name>
								<valuemin>0</valuemin>
								<valuemax>200</valuemax>
								<value>122</value>
							</parameter>
							<parameter>
								<parameterid>label5</parameterid>
								<name>Limit Effect Controls</name>
								<value/>
							</parameter>
							<parameter>
								<parameterid>dochroma</parameterid>
								<name>Limit on Chroma</name>
								<value>FALSE</value>
							</parameter>
							<parameter>
								<parameterid>centerang</parameterid>
								<name>Chroma Center</name>
								<valuemin>-760</valuemin>
								<valuemax>760</valuemax>
								<value>-110</value>
							</parameter>
							<parameter>
								<parameterid>chromawidth</parameterid>
								<name>Chroma Width</name>
								<valuemin>0</valuemin>
								<valuemax>360</valuemax>
								<value>15</value>
							</parameter>
							<parameter>
								<parameterid>chromasoft</parameterid>
								<name>Chroma Softness</name>
								<valuemin>0</valuemin>
								<valuemax>180</valuemax>
								<value>10</value>
							</parameter>
							<parameter>
								<parameterid>dosat</parameterid>
								<name>Limit on Saturation</name>
								<value>FALSE</value>
							</parameter>
							<parameter>
								<parameterid>satmin</parameterid>
								<name>Sat. Minimum</name>
								<valuemin>0</valuemin>
								<valuemax>125</valuemax>
								<value>35</value>
							</parameter>
							<parameter>
								<parameterid>satwidth</parameterid>
								<name>Sat. Width</name>
								<valuemin>0</valuemin>
								<valuemax>125</valuemax>
								<value>40</value>
							</parameter>
							<parameter>
								<parameterid>satsoft</parameterid>
								<name>Sat. Softness</name>
								<valuemin>0</valuemin>
								<valuemax>125</valuemax>
								<value>20</value>
							</parameter>
							<parameter>
								<parameterid>doluma</parameterid>
								<name>Limit on Luma</name>
								<value>FALSE</value>
							</parameter>
							<parameter>
								<parameterid>lumamin</parameterid>
								<name>Luma Minimum</name>
								<valuemin>0</valuemin>
								<valuemax>120</valuemax>
								<value>0</value>
							</parameter>
							<parameter>
								<parameterid>lumawidth</parameterid>
								<name>Luma Width</name>
								<valuemin>0</valuemin>
								<valuemax>120</valuemax>
								<value>40</value>
							</parameter>
							<parameter>
								<parameterid>lumasoft</parameterid>
								<name>Luma Softness</name>
								<valuemin>0</valuemin>
								<valuemax>120</valuemax>
								<value>20</value>
							</parameter>
							<parameter>
								<parameterid>label6</parameterid>
								<name>Edge Control</name>
								<value/>
							</parameter>
							<parameter>
								<parameterid>edgethin</parameterid>
								<name>Thin/Spread</name>
								<valuemin>-100</valuemin>
								<valuemax>100</valuemax>
								<value>0</value>
							</parameter>
							<parameter>
								<parameterid>edgefeather</parameterid>
								<name>Softening</name>
								<valuemin>0</valuemin>
								<valuemax>100</valuemax>
								<value>0</value>
							</parameter>
							<parameter>
								<parameterid>label7</parameterid>
								<name>Mask Control</name>
								<value/>
							</parameter>
							<parameter>
								<parameterid>invertsel</parameterid>
								<name>Invert</name>
								<value>FALSE</value>
							</parameter>
							<parameter>
								<parameterid>debugshow</parameterid>
								<name>Show Stats</name>
								<value>FALSE</value>
							</parameter>
						</effect>
					</filter>
					<filter>
						<effect>
							<name>Basic Motion</name>
							<effectid>basic</effectid>
							<effectcategory>motion</effectcategory>
							<effecttype>motion</effecttype>
							<mediatype>video</mediatype>
							<parameter>
								<parameterid>scale</parameterid>
								<name>Scale</name>
								<valuemin>0</valuemin>
								<valuemax>1000</valuemax>
								<value>104</value>
							</parameter>
							<parameter>
								<parameterid>rotation</parameterid>
								<name>Rotation</name>
								<valuemin>-8640</valuemin>
								<valuemax>8640</valuemax>
								<value>0</value>
							</parameter>
							<parameter>
								<parameterid>center</parameterid>
								<name>Center</name>
								<keyframe>
									<when>353</when>
									<value>
										<horiz>-1.01138</horiz>
										<vert>0</vert>
									</value>
								</keyframe>
								<keyframe>
									<when>363</when>
									<value>
										<horiz>-0.389296</horiz>
										<vert>0.0037037</vert>
									</value>
								</keyframe>
								<keyframe>
									<when>368</when>
									<value>
										<horiz>-0.0892961</horiz>
										<vert>0</vert>
									</value>
								</keyframe>
								<keyframe>
									<when>372</when>
									<value>
										<horiz>-0.00929615</horiz>
										<vert>0</vert>
									</value>
								</keyframe>
								<interpolation>
									<name>FCPCurve</name>
								</interpolation>
							</parameter>
							<parameter>
								<parameterid>centerOffset</parameterid>
								<name>Anchor Point</name>
								<value>
									<horiz>0</horiz>
									<vert>0</vert>
								</value>
							</parameter>
						</effect>
					</filter>
					<filter>
						<enabled>FALSE</enabled>
						<effect>
							<name>Drop Shadow</name>
							<effectid>dropshadow</effectid>
							<effectcategory>motion</effectcategory>
							<effecttype>motion</effecttype>
							<mediatype>video</mediatype>
							<parameter>
								<parameterid>offset</parameterid>
								<name>offset</name>
								<valuemin>-100</valuemin>
								<valuemax>100</valuemax>
								<value>2</value>
							</parameter>
							<parameter>
								<parameterid>angle</parameterid>
								<name>angle</name>
								<valuemin>-720</valuemin>
								<valuemax>720</valuemax>
								<value>135</value>
							</parameter>
							<parameter>
								<parameterid>color</parameterid>
								<name>color</name>
								<value>
									<alpha>0</alpha>
									<red>0</red>
									<green>0</green>
									<blue>0</blue>
								</value>
							</parameter>
							<parameter>
								<parameterid>softness</parameterid>
								<name>softness</name>
								<valuemin>0</valuemin>
								<valuemax>100</valuemax>
								<value>10</value>
							</parameter>
							<parameter>
								<parameterid>opacity</parameterid>
								<name>opacity</name>
								<valuemin>0</valuemin>
								<valuemax>100</valuemax>
								<value>50</value>
							</parameter>
						</effect>
					</filter>
					<filter>
						<enabled>FALSE</enabled>
						<effect>
							<name>Motion Blur</name>
							<effectid>motionblur</effectid>
							<effectcategory>motion</effectcategory>
							<effecttype>motion</effecttype>
							<mediatype>video</mediatype>
							<parameter>
								<parameterid>duration</parameterid>
								<name>% Blur</name>
								<valuemin>0</valuemin>
								<valuemax>1000</valuemax>
								<value>100</value>
							</parameter>
							<parameter>
								<parameterid>samples</parameterid>
								<name>Samples</name>
								<valuemin>1</valuemin>
								<valuemax>16</valuemax>
								<value>2</value>
							</parameter>
						</effect>
					</filter>
					<filter>
						<effect>
							<name>Crop</name>
							<effectid>crop</effectid>
							<effectcategory>motion</effectcategory>
							<effecttype>motion</effecttype>
							<mediatype>video</mediatype>
							<parameter>
								<parameterid>left</parameterid>
								<name>left</name>
								<valuemin>0</valuemin>
								<valuemax>100</valuemax>
								<value>0</value>
							</parameter>
							<parameter>
								<parameterid>right</parameterid>
								<name>right</name>
								<valuemin>0</valuemin>
								<valuemax>100</valuemax>
								<value>0</value>
							</parameter>
							<parameter>
								<parameterid>top</parameterid>
								<name>top</name>
								<valuemin>0</valuemin>
								<valuemax>100</valuemax>
								<value>0</value>
							</parameter>
							<parameter>
								<parameterid>bottom</parameterid>
								<name>bottom</name>
								<valuemin>0</valuemin>
								<valuemax>100</valuemax>
								<value>0</value>
							</parameter>
							<parameter>
								<parameterid>edgefeather</parameterid>
								<name>edgefeather</name>
								<valuemin>0</valuemin>
								<valuemax>100</valuemax>
								<value>10</value>
							</parameter>
						</effect>
					</filter>
					<filter>
						<effect>
							<name>Distort</name>
							<effectid>deformation</effectid>
							<effectcategory>motion</effectcategory>
							<effecttype>motion</effecttype>
							<mediatype>video</mediatype>
							<parameter>
								<parameterid>ulcorner</parameterid>
								<name>Upper Left</name>
								<value>
									<horiz>-0.5</horiz>
									<vert>-0.5</vert>
								</value>
							</parameter>
							<parameter>
								<parameterid>urcorner</parameterid>
								<name>Upper Right</name>
								<value>
									<horiz>0.5</horiz>
									<vert>-0.5</vert>
								</value>
							</parameter>
							<parameter>
								<parameterid>lrcorner</parameterid>
								<name>Lower Right</name>
								<value>
									<horiz>0.5</horiz>
									<vert>0.5</vert>
								</value>
							</parameter>
							<parameter>
								<parameterid>llcorner</parameterid>
								<name>Lower Left</name>
								<value>
									<horiz>-0.5</horiz>
									<vert>0.5</vert>
								</value>
							</parameter>
							<parameter>
								<parameterid>aspect</parameterid>
								<name>Aspect</name>
								<valuemin>-10000</valuemin>
								<valuemax>10000</valuemax>
								<value>0</value>
							</parameter>
						</effect>
					</filter>
					<filter>
						<effect>
							<name>Opacity</name>
							<effectid>opacity</effectid>
							<effectcategory>motion</effectcategory>
							<effecttype>motion</effecttype>
							<mediatype>video</mediatype>
							<parameter>
								<parameterid>opacity</parameterid>
								<name>opacity</name>
								<valuemin>0</valuemin>
								<valuemax>100</valuemax>
								<value>100</value>
							</parameter>
						</effect>
					</filter>
					<sourcetrack>
						<mediatype>video</mediatype>
					</sourcetrack>
					<fielddominance>upper</fielddominance>
					<itemhistory>
						<uuid>B92AA564-CB9E-4BDE-95D9-59761A127527</uuid>
					</itemhistory>
				</clipitem>
				<transitionitem>
					<rate>
						<ntsc>FALSE</ntsc>
						<timebase>25</timebase>
					</rate>
					<start>8649</start>
					<end>8674</end>
					<alignment>center</alignment>
					<effect>
						<name>Cross Dissolve</name>
						<effectid>Cross Dissolve</effectid>
						<effectcategory>Dissolve</effectcategory>
						<effecttype>transition</effecttype>
						<mediatype>video</mediatype>
						<wipecode>0</wipecode>
						<wipeaccuracy>100</wipeaccuracy>
						<startratio>0</startratio>
						<endratio>1</endratio>
						<reverse>FALSE</reverse>
					</effect>
				</transitionitem>
				<clipitem id="Til S02E18 Dyrespor-HD.mxf8">
					<name>Til S02E18 Dyrespor-HD.mxf</name>
					<duration>691</duration>
					<rate>
						<ntsc>FALSE</ntsc>
						<timebase>25</timebase>
					</rate>
					<in>571</in>
					<out>691</out>
					<start>-1</start>
					<end>-1</end>
					<pixelaspectratio>Square</pixelaspectratio>
					<enabled>TRUE</enabled>
					<anamorphic>FALSE</anamorphic>
					<alphatype>none</alphatype>
					<masterclipid>Til S02E18 Dyrespor-HD.mxf1</masterclipid>
					<logginginfo>
						<scene/>
						<shottake/>
						<lognote/>
						<good>FALSE</good>
					</logginginfo>
					<labels>
						<label2/>
					</labels>
					<comments>
						<mastercomment1/>
						<mastercomment2/>
						<mastercomment3/>
						<mastercomment4/>
					</comments>
					<file id="Til S02E18 Dyrespor-HD"/>
					<filter>
						<enabled>TRUE</enabled>
						<start>-1</start>
						<end>-1</end>
						<effect>
							<name>Color Corrector 3-way</name>
							<effectid>Color Corrector 3-way</effectid>
							<effectcategory>Color Correction</effectcategory>
							<effecttype>filter</effecttype>
							<mediatype>video</mediatype>
							<parameter>
								<parameterid>dispmode</parameterid>
								<name>Display Mode</name>
								<valuemin>1</valuemin>
								<valuemax>3</valuemax>
								<valuelist>
									<valueentry>
										<name>Final</name>
										<value>1</value>
									</valueentry>
									<valueentry>
										<name>Matte</name>
										<value>2</value>
									</valueentry>
									<valueentry>
										<name>Source</name>
										<value>3</value>
									</valueentry>
								</valuelist>
								<value>1</value>
							</parameter>
							<parameter>
								<parameterid>label1</parameterid>
								<name>Blacks Controls</name>
								<value/>
							</parameter>
							<parameter>
								<parameterid>blacklevel</parameterid>
								<name>Level</name>
								<valuemin>-196</valuemin>
								<valuemax>254</valuemax>
								<value>-11</value>
							</parameter>
							<parameter>
								<parameterid>b_hue</parameterid>
								<name>Angle</name>
								<valuemin>-180</valuemin>
								<valuemax>180</valuemax>
								<value>-33</value>
							</parameter>
							<parameter>
								<parameterid>b_mag</parameterid>
								<name>Magnitude</name>
								<valuemin>0</valuemin>
								<valuemax>200</valuemax>
								<value>0</value>
							</parameter>
							<parameter>
								<parameterid>label2</parameterid>
								<name>Midrange Controls</name>
								<value/>
							</parameter>
							<parameter>
								<parameterid>mids</parameterid>
								<name>Level</name>
								<valuemin>0</valuemin>
								<valuemax>200</valuemax>
								<value>114</value>
							</parameter>
							<parameter>
								<parameterid>m_hue</parameterid>
								<name>Angle</name>
								<valuemin>-180</valuemin>
								<valuemax>180</valuemax>
								<value>-33</value>
							</parameter>
							<parameter>
								<parameterid>m_mag</parameterid>
								<name>Magnitude</name>
								<valuemin>0</valuemin>
								<valuemax>200</valuemax>
								<value>0</value>
							</parameter>
							<parameter>
								<parameterid>label3</parameterid>
								<name>Highlight Controls</name>
								<value/>
							</parameter>
							<parameter>
								<parameterid>highlights</parameterid>
								<name>Level</name>
								<valuemin>64</valuemin>
								<valuemax>509</valuemax>
								<value>279</value>
							</parameter>
							<parameter>
								<parameterid>h_hue</parameterid>
								<name>Angle</name>
								<valuemin>-180</valuemin>
								<valuemax>180</valuemax>
								<value>-33</value>
							</parameter>
							<parameter>
								<parameterid>h_mag</parameterid>
								<name>Magnitude</name>
								<valuemin>0</valuemin>
								<valuemax>200</valuemax>
								<value>0</value>
							</parameter>
							<parameter>
								<parameterid>label4</parameterid>
								<name>Color Controls</name>
								<value/>
							</parameter>
							<parameter>
								<parameterid>chroma</parameterid>
								<name>Saturation</name>
								<valuemin>0</valuemin>
								<valuemax>200</valuemax>
								<value>110</value>
							</parameter>
							<parameter>
								<parameterid>label5</parameterid>
								<name>Limit Effect Controls</name>
								<value/>
							</parameter>
							<parameter>
								<parameterid>dochroma</parameterid>
								<name>Limit on Chroma</name>
								<value>FALSE</value>
							</parameter>
							<parameter>
								<parameterid>centerang</parameterid>
								<name>Chroma Center</name>
								<valuemin>-760</valuemin>
								<valuemax>760</valuemax>
								<value>-110</value>
							</parameter>
							<parameter>
								<parameterid>chromawidth</parameterid>
								<name>Chroma Width</name>
								<valuemin>0</valuemin>
								<valuemax>360</valuemax>
								<value>15</value>
							</parameter>
							<parameter>
								<parameterid>chromasoft</parameterid>
								<name>Chroma Softness</name>
								<valuemin>0</valuemin>
								<valuemax>180</valuemax>
								<value>10</value>
							</parameter>
							<parameter>
								<parameterid>dosat</parameterid>
								<name>Limit on Saturation</name>
								<value>FALSE</value>
							</parameter>
							<parameter>
								<parameterid>satmin</parameterid>
								<name>Sat. Minimum</name>
								<valuemin>0</valuemin>
								<valuemax>125</valuemax>
								<value>35</value>
							</parameter>
							<parameter>
								<parameterid>satwidth</parameterid>
								<name>Sat. Width</name>
								<valuemin>0</valuemin>
								<valuemax>125</valuemax>
								<value>40</value>
							</parameter>
							<parameter>
								<parameterid>satsoft</parameterid>
								<name>Sat. Softness</name>
								<valuemin>0</valuemin>
								<valuemax>125</valuemax>
								<value>20</value>
							</parameter>
							<parameter>
								<parameterid>doluma</parameterid>
								<name>Limit on Luma</name>
								<value>FALSE</value>
							</parameter>
							<parameter>
								<parameterid>lumamin</parameterid>
								<name>Luma Minimum</name>
								<valuemin>0</valuemin>
								<valuemax>120</valuemax>
								<value>0</value>
							</parameter>
							<parameter>
								<parameterid>lumawidth</parameterid>
								<name>Luma Width</name>
								<valuemin>0</valuemin>
								<valuemax>120</valuemax>
								<value>40</value>
							</parameter>
							<parameter>
								<parameterid>lumasoft</parameterid>
								<name>Luma Softness</name>
								<valuemin>0</valuemin>
								<valuemax>120</valuemax>
								<value>20</value>
							</parameter>
							<parameter>
								<parameterid>label6</parameterid>
								<name>Edge Control</name>
								<value/>
							</parameter>
							<parameter>
								<parameterid>edgethin</parameterid>
								<name>Thin/Spread</name>
								<valuemin>-100</valuemin>
								<valuemax>100</valuemax>
								<value>0</value>
							</parameter>
							<parameter>
								<parameterid>edgefeather</parameterid>
								<name>Softening</name>
								<valuemin>0</valuemin>
								<valuemax>100</valuemax>
								<value>0</value>
							</parameter>
							<parameter>
								<parameterid>label7</parameterid>
								<name>Mask Control</name>
								<value/>
							</parameter>
							<parameter>
								<parameterid>invertsel</parameterid>
								<name>Invert</name>
								<value>FALSE</value>
							</parameter>
							<parameter>
								<parameterid>debugshow</parameterid>
								<name>Show Stats</name>
								<value>FALSE</value>
							</parameter>
						</effect>
					</filter>
					<filter>
						<effect>
							<name>Basic Motion</name>
							<effectid>basic</effectid>
							<effectcategory>motion</effectcategory>
							<effecttype>motion</effecttype>
							<mediatype>video</mediatype>
							<parameter>
								<parameterid>scale</parameterid>
								<name>Scale</name>
								<valuemin>0</valuemin>
								<valuemax>1000</valuemax>
								<value>103</value>
							</parameter>
							<parameter>
								<parameterid>rotation</parameterid>
								<name>Rotation</name>
								<valuemin>-8640</valuemin>
								<valuemax>8640</valuemax>
								<value>0</value>
							</parameter>
							<parameter>
								<parameterid>center</parameterid>
								<name>Center</name>
								<value>
									<horiz>0</horiz>
									<vert>0</vert>
								</value>
							</parameter>
							<parameter>
								<parameterid>centerOffset</parameterid>
								<name>Anchor Point</name>
								<value>
									<horiz>0</horiz>
									<vert>0</vert>
								</value>
							</parameter>
						</effect>
					</filter>
					<filter>
						<enabled>FALSE</enabled>
						<effect>
							<name>Drop Shadow</name>
							<effectid>dropshadow</effectid>
							<effectcategory>motion</effectcategory>
							<effecttype>motion</effecttype>
							<mediatype>video</mediatype>
							<parameter>
								<parameterid>offset</parameterid>
								<name>offset</name>
								<valuemin>-100</valuemin>
								<valuemax>100</valuemax>
								<value>2</value>
							</parameter>
							<parameter>
								<parameterid>angle</parameterid>
								<name>angle</name>
								<valuemin>-720</valuemin>
								<valuemax>720</valuemax>
								<value>135</value>
							</parameter>
							<parameter>
								<parameterid>color</parameterid>
								<name>color</name>
								<value>
									<alpha>0</alpha>
									<red>0</red>
									<green>0</green>
									<blue>0</blue>
								</value>
							</parameter>
							<parameter>
								<parameterid>softness</parameterid>
								<name>softness</name>
								<valuemin>0</valuemin>
								<valuemax>100</valuemax>
								<value>10</value>
							</parameter>
							<parameter>
								<parameterid>opacity</parameterid>
								<name>opacity</name>
								<valuemin>0</valuemin>
								<valuemax>100</valuemax>
								<value>50</value>
							</parameter>
						</effect>
					</filter>
					<filter>
						<enabled>FALSE</enabled>
						<effect>
							<name>Motion Blur</name>
							<effectid>motionblur</effectid>
							<effectcategory>motion</effectcategory>
							<effecttype>motion</effecttype>
							<mediatype>video</mediatype>
							<parameter>
								<parameterid>duration</parameterid>
								<name>% Blur</name>
								<valuemin>0</valuemin>
								<valuemax>1000</valuemax>
								<value>500</value>
							</parameter>
							<parameter>
								<parameterid>samples</parameterid>
								<name>Samples</name>
								<valuemin>1</valuemin>
								<valuemax>16</valuemax>
								<value>4</value>
							</parameter>
						</effect>
					</filter>
					<filter>
						<effect>
							<name>Crop</name>
							<effectid>crop</effectid>
							<effectcategory>motion</effectcategory>
							<effecttype>motion</effecttype>
							<mediatype>video</mediatype>
							<parameter>
								<parameterid>left</parameterid>
								<name>left</name>
								<valuemin>0</valuemin>
								<valuemax>100</valuemax>
								<value>0</value>
							</parameter>
							<parameter>
								<parameterid>right</parameterid>
								<name>right</name>
								<valuemin>0</valuemin>
								<valuemax>100</valuemax>
								<value>0</value>
							</parameter>
							<parameter>
								<parameterid>top</parameterid>
								<name>top</name>
								<valuemin>0</valuemin>
								<valuemax>100</valuemax>
								<value>0</value>
							</parameter>
							<parameter>
								<parameterid>bottom</parameterid>
								<name>bottom</name>
								<valuemin>0</valuemin>
								<valuemax>100</valuemax>
								<value>0</value>
							</parameter>
							<parameter>
								<parameterid>edgefeather</parameterid>
								<name>edgefeather</name>
								<valuemin>0</valuemin>
								<valuemax>100</valuemax>
								<value>0</value>
							</parameter>
						</effect>
					</filter>
					<filter>
						<effect>
							<name>Distort</name>
							<effectid>deformation</effectid>
							<effectcategory>motion</effectcategory>
							<effecttype>motion</effecttype>
							<mediatype>video</mediatype>
							<parameter>
								<parameterid>ulcorner</parameterid>
								<name>Upper Left</name>
								<value>
									<horiz>-0.5</horiz>
									<vert>-0.5</vert>
								</value>
							</parameter>
							<parameter>
								<parameterid>urcorner</parameterid>
								<name>Upper Right</name>
								<value>
									<horiz>0.5</horiz>
									<vert>-0.5</vert>
								</value>
							</parameter>
							<parameter>
								<parameterid>lrcorner</parameterid>
								<name>Lower Right</name>
								<value>
									<horiz>0.5</horiz>
									<vert>0.5</vert>
								</value>
							</parameter>
							<parameter>
								<parameterid>llcorner</parameterid>
								<name>Lower Left</name>
								<value>
									<horiz>-0.5</horiz>
									<vert>0.5</vert>
								</value>
							</parameter>
							<parameter>
								<parameterid>aspect</parameterid>
								<name>Aspect</name>
								<valuemin>-10000</valuemin>
								<valuemax>10000</valuemax>
								<value>0</value>
							</parameter>
						</effect>
					</filter>
					<filter>
						<effect>
							<name>Opacity</name>
							<effectid>opacity</effectid>
							<effectcategory>motion</effectcategory>
							<effecttype>motion</effecttype>
							<mediatype>video</mediatype>
							<parameter>
								<parameterid>opacity</parameterid>
								<name>opacity</name>
								<valuemin>0</valuemin>
								<valuemax>100</valuemax>
								<value>100</value>
							</parameter>
						</effect>
					</filter>
					<sourcetrack>
						<mediatype>video</mediatype>
					</sourcetrack>
					<fielddominance>upper</fielddominance>
					<itemhistory>
						<uuid>402E8BAA-99A6-4B8D-93B7-6B14BCC63C13</uuid>
					</itemhistory>
				</clipitem>
				<transitionitem>
					<rate>
						<ntsc>FALSE</ntsc>
						<timebase>25</timebase>
					</rate>
					<start>8749</start>
					<end>8769</end>
					<alignment>center</alignment>
					<effect>
						<name>Cross Dissolve</name>
						<effectid>Cross Dissolve</effectid>
						<effectcategory>Dissolve</effectcategory>
						<effecttype>transition</effecttype>
						<mediatype>video</mediatype>
						<wipecode>0</wipecode>
						<wipeaccuracy>100</wipeaccuracy>
						<startratio>0</startratio>
						<endratio>1</endratio>
						<reverse>FALSE</reverse>
					</effect>
				</transitionitem>
				<clipitem id="Owesen-rullene Bever 4-3-HD.mxf">
					<name>Owesen-rullene Bever 4-3-HD.mxf</name>
					<duration>325</duration>
					<rate>
						<ntsc>FALSE</ntsc>
						<timebase>25</timebase>
					</rate>
					<in>2</in>
					<out>140</out>
					<start>-1</start>
					<end>-1</end>
					<pixelaspectratio>Square</pixelaspectratio>
					<enabled>TRUE</enabled>
					<anamorphic>FALSE</anamorphic>
					<alphatype>none</alphatype>
					<masterclipid>Owesen-rullene Bever 4-3-HD.mxf1</masterclipid>
					<logginginfo>
						<scene/>
						<shottake/>
						<lognote/>
						<good>FALSE</good>
					</logginginfo>
					<labels>
						<label2/>
					</labels>
					<comments>
						<mastercomment1/>
						<mastercomment2/>
						<mastercomment3/>
						<mastercomment4/>
					</comments>
					<file id="Owesen-rullene Bever 4-3-HD">
						<name>Owesen-rullene Bever 4-3-HD.mxf</name>
						<pathurl>file://localhost/Volumes/Askepott/Prosjekter/DNPR637010_Kra%CC%8Akeklubben_TEM_011212/Video/Arkiv/HD-konvertert/Owesen-rullene%20Bever%204-3-HD.mxf</pathurl>
						<rate>
							<timebase>25</timebase>
						</rate>
						<duration>325</duration>
						<timecode>
							<rate>
								<timebase>25</timebase>
							</rate>
							<string>00:00:00:00</string>
							<frame>0</frame>
							<displayformat>NDF</displayformat>
							<source>source</source>
						</timecode>
						<media>
							<video>
								<duration>325</duration>
								<samplecharacteristics>
									<width>1920</width>
									<height>1080</height>
								</samplecharacteristics>
							</video>
							<audio>
								<samplecharacteristics>
									<samplerate>48000</samplerate>
									<depth>24</depth>
								</samplecharacteristics>
								<channelcount>1</channelcount>
							</audio>
							<audio>
								<samplecharacteristics>
									<samplerate>48000</samplerate>
									<depth>24</depth>
								</samplecharacteristics>
								<channelcount>1</channelcount>
							</audio>
						</media>
					</file>
					<filter>
						<enabled>TRUE</enabled>
						<start>-1</start>
						<end>-1</end>
						<effect>
							<name>Color Corrector 3-way</name>
							<effectid>Color Corrector 3-way</effectid>
							<effectcategory>Color Correction</effectcategory>
							<effecttype>filter</effecttype>
							<mediatype>video</mediatype>
							<parameter>
								<parameterid>dispmode</parameterid>
								<name>Display Mode</name>
								<valuemin>1</valuemin>
								<valuemax>3</valuemax>
								<valuelist>
									<valueentry>
										<name>Final</name>
										<value>1</value>
									</valueentry>
									<valueentry>
										<name>Matte</name>
										<value>2</value>
									</valueentry>
									<valueentry>
										<name>Source</name>
										<value>3</value>
									</valueentry>
								</valuelist>
								<value>1</value>
							</parameter>
							<parameter>
								<parameterid>label1</parameterid>
								<name>Blacks Controls</name>
								<value/>
							</parameter>
							<parameter>
								<parameterid>blacklevel</parameterid>
								<name>Level</name>
								<valuemin>-196</valuemin>
								<valuemax>254</valuemax>
								<value>-11</value>
							</parameter>
							<parameter>
								<parameterid>b_hue</parameterid>
								<name>Angle</name>
								<valuemin>-180</valuemin>
								<valuemax>180</valuemax>
								<value>-33</value>
							</parameter>
							<parameter>
								<parameterid>b_mag</parameterid>
								<name>Magnitude</name>
								<valuemin>0</valuemin>
								<valuemax>200</valuemax>
								<value>0</value>
							</parameter>
							<parameter>
								<parameterid>label2</parameterid>
								<name>Midrange Controls</name>
								<value/>
							</parameter>
							<parameter>
								<parameterid>mids</parameterid>
								<name>Level</name>
								<valuemin>0</valuemin>
								<valuemax>200</valuemax>
								<value>116</value>
							</parameter>
							<parameter>
								<parameterid>m_hue</parameterid>
								<name>Angle</name>
								<valuemin>-180</valuemin>
								<valuemax>180</valuemax>
								<value>-33</value>
							</parameter>
							<parameter>
								<parameterid>m_mag</parameterid>
								<name>Magnitude</name>
								<valuemin>0</valuemin>
								<valuemax>200</valuemax>
								<value>0</value>
							</parameter>
							<parameter>
								<parameterid>label3</parameterid>
								<name>Highlight Controls</name>
								<value/>
							</parameter>
							<parameter>
								<parameterid>highlights</parameterid>
								<name>Level</name>
								<valuemin>64</valuemin>
								<valuemax>509</valuemax>
								<value>290</value>
							</parameter>
							<parameter>
								<parameterid>h_hue</parameterid>
								<name>Angle</name>
								<valuemin>-180</valuemin>
								<valuemax>180</valuemax>
								<value>-33</value>
							</parameter>
							<parameter>
								<parameterid>h_mag</parameterid>
								<name>Magnitude</name>
								<valuemin>0</valuemin>
								<valuemax>200</valuemax>
								<value>0</value>
							</parameter>
							<parameter>
								<parameterid>label4</parameterid>
								<name>Color Controls</name>
								<value/>
							</parameter>
							<parameter>
								<parameterid>chroma</parameterid>
								<name>Saturation</name>
								<valuemin>0</valuemin>
								<valuemax>200</valuemax>
								<value>170</value>
							</parameter>
							<parameter>
								<parameterid>label5</parameterid>
								<name>Limit Effect Controls</name>
								<value/>
							</parameter>
							<parameter>
								<parameterid>dochroma</parameterid>
								<name>Limit on Chroma</name>
								<value>FALSE</value>
							</parameter>
							<parameter>
								<parameterid>centerang</parameterid>
								<name>Chroma Center</name>
								<valuemin>-760</valuemin>
								<valuemax>760</valuemax>
								<value>-110</value>
							</parameter>
							<parameter>
								<parameterid>chromawidth</parameterid>
								<name>Chroma Width</name>
								<valuemin>0</valuemin>
								<valuemax>360</valuemax>
								<value>15</value>
							</parameter>
							<parameter>
								<parameterid>chromasoft</parameterid>
								<name>Chroma Softness</name>
								<valuemin>0</valuemin>
								<valuemax>180</valuemax>
								<value>10</value>
							</parameter>
							<parameter>
								<parameterid>dosat</parameterid>
								<name>Limit on Saturation</name>
								<value>FALSE</value>
							</parameter>
							<parameter>
								<parameterid>satmin</parameterid>
								<name>Sat. Minimum</name>
								<valuemin>0</valuemin>
								<valuemax>125</valuemax>
								<value>35</value>
							</parameter>
							<parameter>
								<parameterid>satwidth</parameterid>
								<name>Sat. Width</name>
								<valuemin>0</valuemin>
								<valuemax>125</valuemax>
								<value>40</value>
							</parameter>
							<parameter>
								<parameterid>satsoft</parameterid>
								<name>Sat. Softness</name>
								<valuemin>0</valuemin>
								<valuemax>125</valuemax>
								<value>20</value>
							</parameter>
							<parameter>
								<parameterid>doluma</parameterid>
								<name>Limit on Luma</name>
								<value>FALSE</value>
							</parameter>
							<parameter>
								<parameterid>lumamin</parameterid>
								<name>Luma Minimum</name>
								<valuemin>0</valuemin>
								<valuemax>120</valuemax>
								<value>0</value>
							</parameter>
							<parameter>
								<parameterid>lumawidth</parameterid>
								<name>Luma Width</name>
								<valuemin>0</valuemin>
								<valuemax>120</valuemax>
								<value>40</value>
							</parameter>
							<parameter>
								<parameterid>lumasoft</parameterid>
								<name>Luma Softness</name>
								<valuemin>0</valuemin>
								<valuemax>120</valuemax>
								<value>20</value>
							</parameter>
							<parameter>
								<parameterid>label6</parameterid>
								<name>Edge Control</name>
								<value/>
							</parameter>
							<parameter>
								<parameterid>edgethin</parameterid>
								<name>Thin/Spread</name>
								<valuemin>-100</valuemin>
								<valuemax>100</valuemax>
								<value>0</value>
							</parameter>
							<parameter>
								<parameterid>edgefeather</parameterid>
								<name>Softening</name>
								<valuemin>0</valuemin>
								<valuemax>100</valuemax>
								<value>0</value>
							</parameter>
							<parameter>
								<parameterid>label7</parameterid>
								<name>Mask Control</name>
								<value/>
							</parameter>
							<parameter>
								<parameterid>invertsel</parameterid>
								<name>Invert</name>
								<value>FALSE</value>
							</parameter>
							<parameter>
								<parameterid>debugshow</parameterid>
								<name>Show Stats</name>
								<value>FALSE</value>
							</parameter>
						</effect>
					</filter>
					<filter>
						<effect>
							<name>Basic Motion</name>
							<effectid>basic</effectid>
							<effectcategory>motion</effectcategory>
							<effecttype>motion</effecttype>
							<mediatype>video</mediatype>
							<parameter>
								<parameterid>scale</parameterid>
								<name>Scale</name>
								<valuemin>0</valuemin>
								<valuemax>1000</valuemax>
								<value>134</value>
							</parameter>
							<parameter>
								<parameterid>rotation</parameterid>
								<name>Rotation</name>
								<valuemin>-8640</valuemin>
								<valuemax>8640</valuemax>
								<value>0</value>
							</parameter>
							<parameter>
								<parameterid>center</parameterid>
								<name>Center</name>
								<value>
									<horiz>0</horiz>
									<vert>0</vert>
								</value>
							</parameter>
							<parameter>
								<parameterid>centerOffset</parameterid>
								<name>Anchor Point</name>
								<value>
									<horiz>0</horiz>
									<vert>0</vert>
								</value>
							</parameter>
						</effect>
					</filter>
					<filter>
						<enabled>FALSE</enabled>
						<effect>
							<name>Drop Shadow</name>
							<effectid>dropshadow</effectid>
							<effectcategory>motion</effectcategory>
							<effecttype>motion</effecttype>
							<mediatype>video</mediatype>
							<parameter>
								<parameterid>offset</parameterid>
								<name>offset</name>
								<valuemin>-100</valuemin>
								<valuemax>100</valuemax>
								<value>2</value>
							</parameter>
							<parameter>
								<parameterid>angle</parameterid>
								<name>angle</name>
								<valuemin>-720</valuemin>
								<valuemax>720</valuemax>
								<value>135</value>
							</parameter>
							<parameter>
								<parameterid>color</parameterid>
								<name>color</name>
								<value>
									<alpha>0</alpha>
									<red>0</red>
									<green>0</green>
									<blue>0</blue>
								</value>
							</parameter>
							<parameter>
								<parameterid>softness</parameterid>
								<name>softness</name>
								<valuemin>0</valuemin>
								<valuemax>100</valuemax>
								<value>10</value>
							</parameter>
							<parameter>
								<parameterid>opacity</parameterid>
								<name>opacity</name>
								<valuemin>0</valuemin>
								<valuemax>100</valuemax>
								<value>50</value>
							</parameter>
						</effect>
					</filter>
					<filter>
						<enabled>FALSE</enabled>
						<effect>
							<name>Motion Blur</name>
							<effectid>motionblur</effectid>
							<effectcategory>motion</effectcategory>
							<effecttype>motion</effecttype>
							<mediatype>video</mediatype>
							<parameter>
								<parameterid>duration</parameterid>
								<name>% Blur</name>
								<valuemin>0</valuemin>
								<valuemax>1000</valuemax>
								<value>500</value>
							</parameter>
							<parameter>
								<parameterid>samples</parameterid>
								<name>Samples</name>
								<valuemin>1</valuemin>
								<valuemax>16</valuemax>
								<value>4</value>
							</parameter>
						</effect>
					</filter>
					<filter>
						<effect>
							<name>Crop</name>
							<effectid>crop</effectid>
							<effectcategory>motion</effectcategory>
							<effecttype>motion</effecttype>
							<mediatype>video</mediatype>
							<parameter>
								<parameterid>left</parameterid>
								<name>left</name>
								<valuemin>0</valuemin>
								<valuemax>100</valuemax>
								<value>0</value>
							</parameter>
							<parameter>
								<parameterid>right</parameterid>
								<name>right</name>
								<valuemin>0</valuemin>
								<valuemax>100</valuemax>
								<value>0</value>
							</parameter>
							<parameter>
								<parameterid>top</parameterid>
								<name>top</name>
								<valuemin>0</valuemin>
								<valuemax>100</valuemax>
								<value>0</value>
							</parameter>
							<parameter>
								<parameterid>bottom</parameterid>
								<name>bottom</name>
								<valuemin>0</valuemin>
								<valuemax>100</valuemax>
								<value>0</value>
							</parameter>
							<parameter>
								<parameterid>edgefeather</parameterid>
								<name>edgefeather</name>
								<valuemin>0</valuemin>
								<valuemax>100</valuemax>
								<value>0</value>
							</parameter>
						</effect>
					</filter>
					<filter>
						<effect>
							<name>Distort</name>
							<effectid>deformation</effectid>
							<effectcategory>motion</effectcategory>
							<effecttype>motion</effecttype>
							<mediatype>video</mediatype>
							<parameter>
								<parameterid>ulcorner</parameterid>
								<name>Upper Left</name>
								<value>
									<horiz>-0.5</horiz>
									<vert>-0.5</vert>
								</value>
							</parameter>
							<parameter>
								<parameterid>urcorner</parameterid>
								<name>Upper Right</name>
								<value>
									<horiz>0.5</horiz>
									<vert>-0.5</vert>
								</value>
							</parameter>
							<parameter>
								<parameterid>lrcorner</parameterid>
								<name>Lower Right</name>
								<value>
									<horiz>0.5</horiz>
									<vert>0.5</vert>
								</value>
							</parameter>
							<parameter>
								<parameterid>llcorner</parameterid>
								<name>Lower Left</name>
								<value>
									<horiz>-0.5</horiz>
									<vert>0.5</vert>
								</value>
							</parameter>
							<parameter>
								<parameterid>aspect</parameterid>
								<name>Aspect</name>
								<valuemin>-10000</valuemin>
								<valuemax>10000</valuemax>
								<value>0</value>
							</parameter>
						</effect>
					</filter>
					<filter>
						<effect>
							<name>Opacity</name>
							<effectid>opacity</effectid>
							<effectcategory>motion</effectcategory>
							<effecttype>motion</effecttype>
							<mediatype>video</mediatype>
							<parameter>
								<parameterid>opacity</parameterid>
								<name>opacity</name>
								<valuemin>0</valuemin>
								<valuemax>100</valuemax>
								<value>100</value>
							</parameter>
						</effect>
					</filter>
					<sourcetrack>
						<mediatype>video</mediatype>
					</sourcetrack>
					<fielddominance>upper</fielddominance>
					<itemhistory>
						<uuid>FE04911A-DD8E-4179-858E-8DDB560E167A</uuid>
					</itemhistory>
				</clipitem>
				<transitionitem>
					<rate>
						<ntsc>FALSE</ntsc>
						<timebase>25</timebase>
					</rate>
					<start>8872</start>
					<end>8887</end>
					<alignment>center</alignment>
					<effect>
						<name>Cross Dissolve</name>
						<effectid>Cross Dissolve</effectid>
						<effectcategory>Dissolve</effectcategory>
						<effecttype>transition</effecttype>
						<mediatype>video</mediatype>
						<wipecode>0</wipecode>
						<wipeaccuracy>100</wipeaccuracy>
						<startratio>0</startratio>
						<endratio>1</endratio>
						<reverse>FALSE</reverse>
					</effect>
				</transitionitem>
				<clipitem id="Owesen-rullene Bever 4-3-HD.mxf2">
					<name>Owesen-rullene Bever 4-3-HD.mxf</name>
					<duration>325</duration>
					<rate>
						<ntsc>FALSE</ntsc>
						<timebase>25</timebase>
					</rate>
					<in>156</in>
					<out>248</out>
					<start>-1</start>
					<end>-1</end>
					<pixelaspectratio>Square</pixelaspectratio>
					<enabled>TRUE</enabled>
					<anamorphic>FALSE</anamorphic>
					<alphatype>none</alphatype>
					<masterclipid>Owesen-rullene Bever 4-3-HD.mxf1</masterclipid>
					<logginginfo>
						<scene/>
						<shottake/>
						<lognote/>
						<good>FALSE</good>
					</logginginfo>
					<labels>
						<label2/>
					</labels>
					<comments>
						<mastercomment1/>
						<mastercomment2/>
						<mastercomment3/>
						<mastercomment4/>
					</comments>
					<file id="Owesen-rullene Bever 4-3-HD"/>
					<filter>
						<enabled>TRUE</enabled>
						<start>-1</start>
						<end>-1</end>
						<effect>
							<name>Color Corrector 3-way</name>
							<effectid>Color Corrector 3-way</effectid>
							<effectcategory>Color Correction</effectcategory>
							<effecttype>filter</effecttype>
							<mediatype>video</mediatype>
							<parameter>
								<parameterid>dispmode</parameterid>
								<name>Display Mode</name>
								<valuemin>1</valuemin>
								<valuemax>3</valuemax>
								<valuelist>
									<valueentry>
										<name>Final</name>
										<value>1</value>
									</valueentry>
									<valueentry>
										<name>Matte</name>
										<value>2</value>
									</valueentry>
									<valueentry>
										<name>Source</name>
										<value>3</value>
									</valueentry>
								</valuelist>
								<value>1</value>
							</parameter>
							<parameter>
								<parameterid>label1</parameterid>
								<name>Blacks Controls</name>
								<value/>
							</parameter>
							<parameter>
								<parameterid>blacklevel</parameterid>
								<name>Level</name>
								<valuemin>-196</valuemin>
								<valuemax>254</valuemax>
								<value>-11</value>
							</parameter>
							<parameter>
								<parameterid>b_hue</parameterid>
								<name>Angle</name>
								<valuemin>-180</valuemin>
								<valuemax>180</valuemax>
								<value>-33</value>
							</parameter>
							<parameter>
								<parameterid>b_mag</parameterid>
								<name>Magnitude</name>
								<valuemin>0</valuemin>
								<valuemax>200</valuemax>
								<value>0</value>
							</parameter>
							<parameter>
								<parameterid>label2</parameterid>
								<name>Midrange Controls</name>
								<value/>
							</parameter>
							<parameter>
								<parameterid>mids</parameterid>
								<name>Level</name>
								<valuemin>0</valuemin>
								<valuemax>200</valuemax>
								<value>113</value>
							</parameter>
							<parameter>
								<parameterid>m_hue</parameterid>
								<name>Angle</name>
								<valuemin>-180</valuemin>
								<valuemax>180</valuemax>
								<value>-33</value>
							</parameter>
							<parameter>
								<parameterid>m_mag</parameterid>
								<name>Magnitude</name>
								<valuemin>0</valuemin>
								<valuemax>200</valuemax>
								<value>0</value>
							</parameter>
							<parameter>
								<parameterid>label3</parameterid>
								<name>Highlight Controls</name>
								<value/>
							</parameter>
							<parameter>
								<parameterid>highlights</parameterid>
								<name>Level</name>
								<valuemin>64</valuemin>
								<valuemax>509</valuemax>
								<value>300</value>
							</parameter>
							<parameter>
								<parameterid>h_hue</parameterid>
								<name>Angle</name>
								<valuemin>-180</valuemin>
								<valuemax>180</valuemax>
								<value>-33</value>
							</parameter>
							<parameter>
								<parameterid>h_mag</parameterid>
								<name>Magnitude</name>
								<valuemin>0</valuemin>
								<valuemax>200</valuemax>
								<value>0</value>
							</parameter>
							<parameter>
								<parameterid>label4</parameterid>
								<name>Color Controls</name>
								<value/>
							</parameter>
							<parameter>
								<parameterid>chroma</parameterid>
								<name>Saturation</name>
								<valuemin>0</valuemin>
								<valuemax>200</valuemax>
								<value>152</value>
							</parameter>
							<parameter>
								<parameterid>label5</parameterid>
								<name>Limit Effect Controls</name>
								<value/>
							</parameter>
							<parameter>
								<parameterid>dochroma</parameterid>
								<name>Limit on Chroma</name>
								<value>FALSE</value>
							</parameter>
							<parameter>
								<parameterid>centerang</parameterid>
								<name>Chroma Center</name>
								<valuemin>-760</valuemin>
								<valuemax>760</valuemax>
								<value>-110</value>
							</parameter>
							<parameter>
								<parameterid>chromawidth</parameterid>
								<name>Chroma Width</name>
								<valuemin>0</valuemin>
								<valuemax>360</valuemax>
								<value>15</value>
							</parameter>
							<parameter>
								<parameterid>chromasoft</parameterid>
								<name>Chroma Softness</name>
								<valuemin>0</valuemin>
								<valuemax>180</valuemax>
								<value>10</value>
							</parameter>
							<parameter>
								<parameterid>dosat</parameterid>
								<name>Limit on Saturation</name>
								<value>FALSE</value>
							</parameter>
							<parameter>
								<parameterid>satmin</parameterid>
								<name>Sat. Minimum</name>
								<valuemin>0</valuemin>
								<valuemax>125</valuemax>
								<value>35</value>
							</parameter>
							<parameter>
								<parameterid>satwidth</parameterid>
								<name>Sat. Width</name>
								<valuemin>0</valuemin>
								<valuemax>125</valuemax>
								<value>40</value>
							</parameter>
							<parameter>
								<parameterid>satsoft</parameterid>
								<name>Sat. Softness</name>
								<valuemin>0</valuemin>
								<valuemax>125</valuemax>
								<value>20</value>
							</parameter>
							<parameter>
								<parameterid>doluma</parameterid>
								<name>Limit on Luma</name>
								<value>FALSE</value>
							</parameter>
							<parameter>
								<parameterid>lumamin</parameterid>
								<name>Luma Minimum</name>
								<valuemin>0</valuemin>
								<valuemax>120</valuemax>
								<value>0</value>
							</parameter>
							<parameter>
								<parameterid>lumawidth</parameterid>
								<name>Luma Width</name>
								<valuemin>0</valuemin>
								<valuemax>120</valuemax>
								<value>40</value>
							</parameter>
							<parameter>
								<parameterid>lumasoft</parameterid>
								<name>Luma Softness</name>
								<valuemin>0</valuemin>
								<valuemax>120</valuemax>
								<value>20</value>
							</parameter>
							<parameter>
								<parameterid>label6</parameterid>
								<name>Edge Control</name>
								<value/>
							</parameter>
							<parameter>
								<parameterid>edgethin</parameterid>
								<name>Thin/Spread</name>
								<valuemin>-100</valuemin>
								<valuemax>100</valuemax>
								<value>0</value>
							</parameter>
							<parameter>
								<parameterid>edgefeather</parameterid>
								<name>Softening</name>
								<valuemin>0</valuemin>
								<valuemax>100</valuemax>
								<value>0</value>
							</parameter>
							<parameter>
								<parameterid>label7</parameterid>
								<name>Mask Control</name>
								<value/>
							</parameter>
							<parameter>
								<parameterid>invertsel</parameterid>
								<name>Invert</name>
								<value>FALSE</value>
							</parameter>
							<parameter>
								<parameterid>debugshow</parameterid>
								<name>Show Stats</name>
								<value>FALSE</value>
							</parameter>
						</effect>
					</filter>
					<filter>
						<effect>
							<name>Basic Motion</name>
							<effectid>basic</effectid>
							<effectcategory>motion</effectcategory>
							<effecttype>motion</effecttype>
							<mediatype>video</mediatype>
							<parameter>
								<parameterid>scale</parameterid>
								<name>Scale</name>
								<valuemin>0</valuemin>
								<valuemax>1000</valuemax>
								<value>133</value>
							</parameter>
							<parameter>
								<parameterid>rotation</parameterid>
								<name>Rotation</name>
								<valuemin>-8640</valuemin>
								<valuemax>8640</valuemax>
								<value>0</value>
							</parameter>
							<parameter>
								<parameterid>center</parameterid>
								<name>Center</name>
								<value>
									<horiz>0</horiz>
									<vert>0</vert>
								</value>
							</parameter>
							<parameter>
								<parameterid>centerOffset</parameterid>
								<name>Anchor Point</name>
								<value>
									<horiz>0</horiz>
									<vert>0</vert>
								</value>
							</parameter>
						</effect>
					</filter>
					<filter>
						<enabled>FALSE</enabled>
						<effect>
							<name>Drop Shadow</name>
							<effectid>dropshadow</effectid>
							<effectcategory>motion</effectcategory>
							<effecttype>motion</effecttype>
							<mediatype>video</mediatype>
							<parameter>
								<parameterid>offset</parameterid>
								<name>offset</name>
								<valuemin>-100</valuemin>
								<valuemax>100</valuemax>
								<value>2</value>
							</parameter>
							<parameter>
								<parameterid>angle</parameterid>
								<name>angle</name>
								<valuemin>-720</valuemin>
								<valuemax>720</valuemax>
								<value>135</value>
							</parameter>
							<parameter>
								<parameterid>color</parameterid>
								<name>color</name>
								<value>
									<alpha>0</alpha>
									<red>0</red>
									<green>0</green>
									<blue>0</blue>
								</value>
							</parameter>
							<parameter>
								<parameterid>softness</parameterid>
								<name>softness</name>
								<valuemin>0</valuemin>
								<valuemax>100</valuemax>
								<value>10</value>
							</parameter>
							<parameter>
								<parameterid>opacity</parameterid>
								<name>opacity</name>
								<valuemin>0</valuemin>
								<valuemax>100</valuemax>
								<value>50</value>
							</parameter>
						</effect>
					</filter>
					<filter>
						<enabled>FALSE</enabled>
						<effect>
							<name>Motion Blur</name>
							<effectid>motionblur</effectid>
							<effectcategory>motion</effectcategory>
							<effecttype>motion</effecttype>
							<mediatype>video</mediatype>
							<parameter>
								<parameterid>duration</parameterid>
								<name>% Blur</name>
								<valuemin>0</valuemin>
								<valuemax>1000</valuemax>
								<value>500</value>
							</parameter>
							<parameter>
								<parameterid>samples</parameterid>
								<name>Samples</name>
								<valuemin>1</valuemin>
								<valuemax>16</valuemax>
								<value>4</value>
							</parameter>
						</effect>
					</filter>
					<filter>
						<effect>
							<name>Crop</name>
							<effectid>crop</effectid>
							<effectcategory>motion</effectcategory>
							<effecttype>motion</effecttype>
							<mediatype>video</mediatype>
							<parameter>
								<parameterid>left</parameterid>
								<name>left</name>
								<valuemin>0</valuemin>
								<valuemax>100</valuemax>
								<value>0</value>
							</parameter>
							<parameter>
								<parameterid>right</parameterid>
								<name>right</name>
								<valuemin>0</valuemin>
								<valuemax>100</valuemax>
								<value>0</value>
							</parameter>
							<parameter>
								<parameterid>top</parameterid>
								<name>top</name>
								<valuemin>0</valuemin>
								<valuemax>100</valuemax>
								<value>0</value>
							</parameter>
							<parameter>
								<parameterid>bottom</parameterid>
								<name>bottom</name>
								<valuemin>0</valuemin>
								<valuemax>100</valuemax>
								<value>0</value>
							</parameter>
							<parameter>
								<parameterid>edgefeather</parameterid>
								<name>edgefeather</name>
								<valuemin>0</valuemin>
								<valuemax>100</valuemax>
								<value>0</value>
							</parameter>
						</effect>
					</filter>
					<filter>
						<effect>
							<name>Distort</name>
							<effectid>deformation</effectid>
							<effectcategory>motion</effectcategory>
							<effecttype>motion</effecttype>
							<mediatype>video</mediatype>
							<parameter>
								<parameterid>ulcorner</parameterid>
								<name>Upper Left</name>
								<value>
									<horiz>-0.5</horiz>
									<vert>-0.5</vert>
								</value>
							</parameter>
							<parameter>
								<parameterid>urcorner</parameterid>
								<name>Upper Right</name>
								<value>
									<horiz>0.5</horiz>
									<vert>-0.5</vert>
								</value>
							</parameter>
							<parameter>
								<parameterid>lrcorner</parameterid>
								<name>Lower Right</name>
								<value>
									<horiz>0.5</horiz>
									<vert>0.5</vert>
								</value>
							</parameter>
							<parameter>
								<parameterid>llcorner</parameterid>
								<name>Lower Left</name>
								<value>
									<horiz>-0.5</horiz>
									<vert>0.5</vert>
								</value>
							</parameter>
							<parameter>
								<parameterid>aspect</parameterid>
								<name>Aspect</name>
								<valuemin>-10000</valuemin>
								<valuemax>10000</valuemax>
								<value>0</value>
							</parameter>
						</effect>
					</filter>
					<filter>
						<effect>
							<name>Opacity</name>
							<effectid>opacity</effectid>
							<effectcategory>motion</effectcategory>
							<effecttype>motion</effecttype>
							<mediatype>video</mediatype>
							<parameter>
								<parameterid>opacity</parameterid>
								<name>opacity</name>
								<valuemin>0</valuemin>
								<valuemax>100</valuemax>
								<value>100</value>
							</parameter>
						</effect>
					</filter>
					<sourcetrack>
						<mediatype>video</mediatype>
					</sourcetrack>
					<fielddominance>upper</fielddominance>
					<itemhistory>
						<uuid>1D32D048-CC29-4B13-B718-C0CE703E34EC</uuid>
					</itemhistory>
				</clipitem>
				<transitionitem>
					<rate>
						<ntsc>FALSE</ntsc>
						<timebase>25</timebase>
					</rate>
					<start>8955</start>
					<end>8964</end>
					<alignment>center</alignment>
					<effect>
						<name>Cross Dissolve</name>
						<effectid>Cross Dissolve</effectid>
						<effectcategory>Dissolve</effectcategory>
						<effecttype>transition</effecttype>
						<mediatype>video</mediatype>
						<wipecode>0</wipecode>
						<wipeaccuracy>100</wipeaccuracy>
						<startratio>0</startratio>
						<endratio>1</endratio>
						<reverse>FALSE</reverse>
					</effect>
				</transitionitem>
				<clipitem id="Owesen-rullene Bever 4-3-HD.mxf3">
					<name>Owesen-rullene Bever 4-3-HD.mxf</name>
					<duration>325</duration>
					<rate>
						<ntsc>FALSE</ntsc>
						<timebase>25</timebase>
					</rate>
					<in>249</in>
					<out>325</out>
					<start>-1</start>
					<end>-1</end>
					<pixelaspectratio>Square</pixelaspectratio>
					<enabled>TRUE</enabled>
					<anamorphic>FALSE</anamorphic>
					<alphatype>none</alphatype>
					<masterclipid>Owesen-rullene Bever 4-3-HD.mxf1</masterclipid>
					<logginginfo>
						<scene/>
						<shottake/>
						<lognote/>
						<good>FALSE</good>
					</logginginfo>
					<labels>
						<label2/>
					</labels>
					<comments>
						<mastercomment1/>
						<mastercomment2/>
						<mastercomment3/>
						<mastercomment4/>
					</comments>
					<file id="Owesen-rullene Bever 4-3-HD"/>
					<filter>
						<enabled>TRUE</enabled>
						<start>-1</start>
						<end>-1</end>
						<effect>
							<name>Color Corrector 3-way</name>
							<effectid>Color Corrector 3-way</effectid>
							<effectcategory>Color Correction</effectcategory>
							<effecttype>filter</effecttype>
							<mediatype>video</mediatype>
							<parameter>
								<parameterid>dispmode</parameterid>
								<name>Display Mode</name>
								<valuemin>1</valuemin>
								<valuemax>3</valuemax>
								<valuelist>
									<valueentry>
										<name>Final</name>
										<value>1</value>
									</valueentry>
									<valueentry>
										<name>Matte</name>
										<value>2</value>
									</valueentry>
									<valueentry>
										<name>Source</name>
										<value>3</value>
									</valueentry>
								</valuelist>
								<value>1</value>
							</parameter>
							<parameter>
								<parameterid>label1</parameterid>
								<name>Blacks Controls</name>
								<value/>
							</parameter>
							<parameter>
								<parameterid>blacklevel</parameterid>
								<name>Level</name>
								<valuemin>-196</valuemin>
								<valuemax>254</valuemax>
								<value>-8</value>
							</parameter>
							<parameter>
								<parameterid>b_hue</parameterid>
								<name>Angle</name>
								<valuemin>-180</valuemin>
								<valuemax>180</valuemax>
								<value>-56.4785</value>
							</parameter>
							<parameter>
								<parameterid>b_mag</parameterid>
								<name>Magnitude</name>
								<valuemin>0</valuemin>
								<valuemax>200</valuemax>
								<value>4.26415</value>
							</parameter>
							<parameter>
								<parameterid>label2</parameterid>
								<name>Midrange Controls</name>
								<value/>
							</parameter>
							<parameter>
								<parameterid>mids</parameterid>
								<name>Level</name>
								<valuemin>0</valuemin>
								<valuemax>200</valuemax>
								<value>148</value>
							</parameter>
							<parameter>
								<parameterid>m_hue</parameterid>
								<name>Angle</name>
								<valuemin>-180</valuemin>
								<valuemax>180</valuemax>
								<value>-56.9764</value>
							</parameter>
							<parameter>
								<parameterid>m_mag</parameterid>
								<name>Magnitude</name>
								<valuemin>0</valuemin>
								<valuemax>200</valuemax>
								<value>3.23252</value>
							</parameter>
							<parameter>
								<parameterid>label3</parameterid>
								<name>Highlight Controls</name>
								<value/>
							</parameter>
							<parameter>
								<parameterid>highlights</parameterid>
								<name>Level</name>
								<valuemin>64</valuemin>
								<valuemax>509</valuemax>
								<value>268</value>
							</parameter>
							<parameter>
								<parameterid>h_hue</parameterid>
								<name>Angle</name>
								<valuemin>-180</valuemin>
								<valuemax>180</valuemax>
								<value>123.174</value>
							</parameter>
							<parameter>
								<parameterid>h_mag</parameterid>
								<name>Magnitude</name>
								<valuemin>0</valuemin>
								<valuemax>200</valuemax>
								<value>9.25931</value>
							</parameter>
							<parameter>
								<parameterid>label4</parameterid>
								<name>Color Controls</name>
								<value/>
							</parameter>
							<parameter>
								<parameterid>chroma</parameterid>
								<name>Saturation</name>
								<valuemin>0</valuemin>
								<valuemax>200</valuemax>
								<value>187</value>
							</parameter>
							<parameter>
								<parameterid>label5</parameterid>
								<name>Limit Effect Controls</name>
								<value/>
							</parameter>
							<parameter>
								<parameterid>dochroma</parameterid>
								<name>Limit on Chroma</name>
								<value>FALSE</value>
							</parameter>
							<parameter>
								<parameterid>centerang</parameterid>
								<name>Chroma Center</name>
								<valuemin>-760</valuemin>
								<valuemax>760</valuemax>
								<value>-110</value>
							</parameter>
							<parameter>
								<parameterid>chromawidth</parameterid>
								<name>Chroma Width</name>
								<valuemin>0</valuemin>
								<valuemax>360</valuemax>
								<value>15</value>
							</parameter>
							<parameter>
								<parameterid>chromasoft</parameterid>
								<name>Chroma Softness</name>
								<valuemin>0</valuemin>
								<valuemax>180</valuemax>
								<value>10</value>
							</parameter>
							<parameter>
								<parameterid>dosat</parameterid>
								<name>Limit on Saturation</name>
								<value>FALSE</value>
							</parameter>
							<parameter>
								<parameterid>satmin</parameterid>
								<name>Sat. Minimum</name>
								<valuemin>0</valuemin>
								<valuemax>125</valuemax>
								<value>35</value>
							</parameter>
							<parameter>
								<parameterid>satwidth</parameterid>
								<name>Sat. Width</name>
								<valuemin>0</valuemin>
								<valuemax>125</valuemax>
								<value>40</value>
							</parameter>
							<parameter>
								<parameterid>satsoft</parameterid>
								<name>Sat. Softness</name>
								<valuemin>0</valuemin>
								<valuemax>125</valuemax>
								<value>20</value>
							</parameter>
							<parameter>
								<parameterid>doluma</parameterid>
								<name>Limit on Luma</name>
								<value>FALSE</value>
							</parameter>
							<parameter>
								<parameterid>lumamin</parameterid>
								<name>Luma Minimum</name>
								<valuemin>0</valuemin>
								<valuemax>120</valuemax>
								<value>0</value>
							</parameter>
							<parameter>
								<parameterid>lumawidth</parameterid>
								<name>Luma Width</name>
								<valuemin>0</valuemin>
								<valuemax>120</valuemax>
								<value>40</value>
							</parameter>
							<parameter>
								<parameterid>lumasoft</parameterid>
								<name>Luma Softness</name>
								<valuemin>0</valuemin>
								<valuemax>120</valuemax>
								<value>20</value>
							</parameter>
							<parameter>
								<parameterid>label6</parameterid>
								<name>Edge Control</name>
								<value/>
							</parameter>
							<parameter>
								<parameterid>edgethin</parameterid>
								<name>Thin/Spread</name>
								<valuemin>-100</valuemin>
								<valuemax>100</valuemax>
								<value>0</value>
							</parameter>
							<parameter>
								<parameterid>edgefeather</parameterid>
								<name>Softening</name>
								<valuemin>0</valuemin>
								<valuemax>100</valuemax>
								<value>0</value>
							</parameter>
							<parameter>
								<parameterid>label7</parameterid>
								<name>Mask Control</name>
								<value/>
							</parameter>
							<parameter>
								<parameterid>invertsel</parameterid>
								<name>Invert</name>
								<value>FALSE</value>
							</parameter>
							<parameter>
								<parameterid>debugshow</parameterid>
								<name>Show Stats</name>
								<value>FALSE</value>
							</parameter>
						</effect>
					</filter>
					<filter>
						<enabled>TRUE</enabled>
						<start>-1</start>
						<end>-1</end>
						<effect>
							<name>Soft Focus</name>
							<effectid>FxPlugWrapper:BE1A5748_322A_4D25_8107_F3961E0BC21A</effectid>
							<effectclass>FxPlug</effectclass>
							<effecttype>filter</effecttype>
							<mediatype>video</mediatype>
							<parameter>
								<parameterid>input_1</parameterid>
								<name>Amount</name>
								<valuemin>0</valuemin>
								<valuemax>32</valuemax>
								<value>1</value>
							</parameter>
							<parameter>
								<parameterid>input_2</parameterid>
								<name>Strength</name>
								<valuemin>0</valuemin>
								<valuemax>1</valuemax>
								<value>0.5</value>
							</parameter>
							<parameter>
								<parameterid>input_3</parameterid>
								<name>Horizontal</name>
								<valuemin>0</valuemin>
								<valuemax>100</valuemax>
								<value>100</value>
							</parameter>
							<parameter>
								<parameterid>input_4</parameterid>
								<name>Vertical</name>
								<valuemin>0</valuemin>
								<valuemax>100</valuemax>
								<value>100</value>
							</parameter>
							<parameter>
								<parameterid>input_5</parameterid>
								<name>Crop</name>
								<value>FALSE</value>
							</parameter>
							<parameter>
								<parameterid>FCP_FilterMix</parameterid>
								<name>Mix</name>
								<valuemin>0</valuemin>
								<valuemax>100</valuemax>
								<value>100</value>
							</parameter>
						</effect>
					</filter>
					<filter>
						<effect>
							<name>Basic Motion</name>
							<effectid>basic</effectid>
							<effectcategory>motion</effectcategory>
							<effecttype>motion</effecttype>
							<mediatype>video</mediatype>
							<parameter>
								<parameterid>scale</parameterid>
								<name>Scale</name>
								<valuemin>0</valuemin>
								<valuemax>1000</valuemax>
								<value>133</value>
							</parameter>
							<parameter>
								<parameterid>rotation</parameterid>
								<name>Rotation</name>
								<valuemin>-8640</valuemin>
								<valuemax>8640</valuemax>
								<value>0</value>
							</parameter>
							<parameter>
								<parameterid>center</parameterid>
								<name>Center</name>
								<value>
									<horiz>0</horiz>
									<vert>0</vert>
								</value>
							</parameter>
							<parameter>
								<parameterid>centerOffset</parameterid>
								<name>Anchor Point</name>
								<value>
									<horiz>0</horiz>
									<vert>0</vert>
								</value>
							</parameter>
						</effect>
					</filter>
					<filter>
						<enabled>FALSE</enabled>
						<effect>
							<name>Drop Shadow</name>
							<effectid>dropshadow</effectid>
							<effectcategory>motion</effectcategory>
							<effecttype>motion</effecttype>
							<mediatype>video</mediatype>
							<parameter>
								<parameterid>offset</parameterid>
								<name>offset</name>
								<valuemin>-100</valuemin>
								<valuemax>100</valuemax>
								<value>2</value>
							</parameter>
							<parameter>
								<parameterid>angle</parameterid>
								<name>angle</name>
								<valuemin>-720</valuemin>
								<valuemax>720</valuemax>
								<value>135</value>
							</parameter>
							<parameter>
								<parameterid>color</parameterid>
								<name>color</name>
								<value>
									<alpha>0</alpha>
									<red>0</red>
									<green>0</green>
									<blue>0</blue>
								</value>
							</parameter>
							<parameter>
								<parameterid>softness</parameterid>
								<name>softness</name>
								<valuemin>0</valuemin>
								<valuemax>100</valuemax>
								<value>10</value>
							</parameter>
							<parameter>
								<parameterid>opacity</parameterid>
								<name>opacity</name>
								<valuemin>0</valuemin>
								<valuemax>100</valuemax>
								<value>50</value>
							</parameter>
						</effect>
					</filter>
					<filter>
						<enabled>FALSE</enabled>
						<effect>
							<name>Motion Blur</name>
							<effectid>motionblur</effectid>
							<effectcategory>motion</effectcategory>
							<effecttype>motion</effecttype>
							<mediatype>video</mediatype>
							<parameter>
								<parameterid>duration</parameterid>
								<name>% Blur</name>
								<valuemin>0</valuemin>
								<valuemax>1000</valuemax>
								<value>500</value>
							</parameter>
							<parameter>
								<parameterid>samples</parameterid>
								<name>Samples</name>
								<valuemin>1</valuemin>
								<valuemax>16</valuemax>
								<value>4</value>
							</parameter>
						</effect>
					</filter>
					<filter>
						<effect>
							<name>Crop</name>
							<effectid>crop</effectid>
							<effectcategory>motion</effectcategory>
							<effecttype>motion</effecttype>
							<mediatype>video</mediatype>
							<parameter>
								<parameterid>left</parameterid>
								<name>left</name>
								<valuemin>0</valuemin>
								<valuemax>100</valuemax>
								<value>0</value>
							</parameter>
							<parameter>
								<parameterid>right</parameterid>
								<name>right</name>
								<valuemin>0</valuemin>
								<valuemax>100</valuemax>
								<value>0</value>
							</parameter>
							<parameter>
								<parameterid>top</parameterid>
								<name>top</name>
								<valuemin>0</valuemin>
								<valuemax>100</valuemax>
								<value>0</value>
							</parameter>
							<parameter>
								<parameterid>bottom</parameterid>
								<name>bottom</name>
								<valuemin>0</valuemin>
								<valuemax>100</valuemax>
								<value>0</value>
							</parameter>
							<parameter>
								<parameterid>edgefeather</parameterid>
								<name>edgefeather</name>
								<valuemin>0</valuemin>
								<valuemax>100</valuemax>
								<value>0</value>
							</parameter>
						</effect>
					</filter>
					<filter>
						<effect>
							<name>Distort</name>
							<effectid>deformation</effectid>
							<effectcategory>motion</effectcategory>
							<effecttype>motion</effecttype>
							<mediatype>video</mediatype>
							<parameter>
								<parameterid>ulcorner</parameterid>
								<name>Upper Left</name>
								<value>
									<horiz>-0.5</horiz>
									<vert>-0.5</vert>
								</value>
							</parameter>
							<parameter>
								<parameterid>urcorner</parameterid>
								<name>Upper Right</name>
								<value>
									<horiz>0.5</horiz>
									<vert>-0.5</vert>
								</value>
							</parameter>
							<parameter>
								<parameterid>lrcorner</parameterid>
								<name>Lower Right</name>
								<value>
									<horiz>0.5</horiz>
									<vert>0.5</vert>
								</value>
							</parameter>
							<parameter>
								<parameterid>llcorner</parameterid>
								<name>Lower Left</name>
								<value>
									<horiz>-0.5</horiz>
									<vert>0.5</vert>
								</value>
							</parameter>
							<parameter>
								<parameterid>aspect</parameterid>
								<name>Aspect</name>
								<valuemin>-10000</valuemin>
								<valuemax>10000</valuemax>
								<value>0</value>
							</parameter>
						</effect>
					</filter>
					<filter>
						<effect>
							<name>Opacity</name>
							<effectid>opacity</effectid>
							<effectcategory>motion</effectcategory>
							<effecttype>motion</effecttype>
							<mediatype>video</mediatype>
							<parameter>
								<parameterid>opacity</parameterid>
								<name>opacity</name>
								<valuemin>0</valuemin>
								<valuemax>100</valuemax>
								<value>100</value>
							</parameter>
						</effect>
					</filter>
					<sourcetrack>
						<mediatype>video</mediatype>
					</sourcetrack>
					<fielddominance>upper</fielddominance>
					<itemhistory>
						<uuid>EC6D54D1-EDED-4CC8-A41D-A94FBC394CC1</uuid>
					</itemhistory>
				</clipitem>
				<transitionitem>
					<rate>
						<ntsc>FALSE</ntsc>
						<timebase>25</timebase>
					</rate>
					<start>9016</start>
					<end>9031</end>
					<alignment>center</alignment>
					<effect>
						<name>G Lens Flare Musikkvideo</name>
						<effectcategory>Nattress Big Box Of Tricks</effectcategory>
						<effecttype>transition</effecttype>
						<mediatype>video</mediatype>
						<startratio>0</startratio>
						<endratio>1</endratio>
						<reverse>FALSE</reverse>
						<parameter>
							<parameterid>dispvar1</parameterid>
							<name>Display Settings</name>
							<value>string</value>
						</parameter>
						<parameter>
							<parameterid>inputvar1</parameterid>
							<name>Flare Position</name>
							<value>string</value>
						</parameter>
						<parameter>
							<parameterid>theangle</parameterid>
							<name>Transition Direction</name>
							<valuemin>-360</valuemin>
							<valuemax>360</valuemax>
							<value>270</value>
						</parameter>
						<parameter>
							<parameterid>transitionblendduration</parameterid>
							<name>Blend Duration</name>
							<valuemin>0</valuemin>
							<valuemax>100</valuemax>
							<value>50</value>
						</parameter>
						<parameter>
							<parameterid>settingsvar1</parameterid>
							<name>Flare Settings</name>
							<value>string</value>
						</parameter>
						<parameter>
							<parameterid>presets</parameterid>
							<name>Preset Select</name>
							<valuemin>1</valuemin>
							<valuemax>4</valuemax>
							<valuelist>
								<valueentry>
									<name>Custom Controls</name>
									<value>1</value>
								</valueentry>
								<valueentry>
									<name>Other End of the Rainbow</name>
									<value>2</value>
								</valueentry>
								<valueentry>
									<name>Photon</name>
									<value>3</value>
								</valueentry>
								<valueentry>
									<name>Gaudy</name>
									<value>4</value>
								</valueentry>
							</valuelist>
							<value>2</value>
						</parameter>
						<parameter>
							<parameterid>randomevolution</parameterid>
							<name>Randomness Evolution</name>
							<valuemin>0</valuemin>
							<valuemax>1</valuemax>
							<value>0.05</value>
						</parameter>
						<parameter>
							<parameterid>flareaspect</parameterid>
							<name>Aspect</name>
							<valuemin>0.1</valuemin>
							<valuemax>10</valuemax>
							<value>1</value>
						</parameter>
						<parameter>
							<parameterid>flareintensity</parameterid>
							<name>Overall Intensity</name>
							<valuemin>0</valuemin>
							<valuemax>400</valuemax>
							<value>300</value>
						</parameter>
						<parameter>
							<parameterid>therandomseed</parameterid>
							<name>Random Seed</name>
							<valuemin>0</valuemin>
							<valuemax>100</valuemax>
							<value>100</value>
						</parameter>
						<parameter>
							<parameterid>settingsvar2</parameterid>
							<name>   Bloom</name>
							<value>string</value>
						</parameter>
						<parameter>
							<parameterid>bloomon</parameterid>
							<name>Bloom On?</name>
							<value>TRUE</value>
						</parameter>
						<parameter>
							<parameterid>bloomcolour</parameterid>
							<name>Bloom Colour</name>
							<value>
								<alpha>255</alpha>
								<red>218</red>
								<green>224</green>
								<blue>254</blue>
							</value>
						</parameter>
						<parameter>
							<parameterid>bloomcolourfromimage</parameterid>
							<name>Use Image for Bloom Colour?</name>
							<value>FALSE</value>
						</parameter>
						<parameter>
							<parameterid>bloomintensity</parameterid>
							<name>Intensity</name>
							<valuemin>0</valuemin>
							<valuemax>100</valuemax>
							<value>90</value>
						</parameter>
						<parameter>
							<parameterid>bloomradius</parameterid>
							<name>Radius</name>
							<valuemin>0</valuemin>
							<valuemax>200</valuemax>
							<value>45</value>
						</parameter>
						<parameter>
							<parameterid>bloomfalloff</parameterid>
							<name>Fall Off</name>
							<valuemin>0</valuemin>
							<valuemax>100</valuemax>
							<value>75</value>
						</parameter>
						<parameter>
							<parameterid>bloomstarry</parameterid>
							<name>Starry</name>
							<valuemin>0</valuemin>
							<valuemax>100</valuemax>
							<value>10</value>
						</parameter>
						<parameter>
							<parameterid>bloomstarpoints</parameterid>
							<name>Star Points</name>
							<valuemin>0</valuemin>
							<valuemax>100</valuemax>
							<value>7</value>
						</parameter>
						<parameter>
							<parameterid>settingsvar3</parameterid>
							<name>   StarBurst</name>
							<value>string</value>
						</parameter>
						<parameter>
							<parameterid>starburston</parameterid>
							<name>StarBurst On?</name>
							<value>TRUE</value>
						</parameter>
						<parameter>
							<parameterid>starburstcolour</parameterid>
							<name>StarBurst Colour</name>
							<value>
								<alpha>255</alpha>
								<red>254</red>
								<green>224</green>
								<blue>218</blue>
							</value>
						</parameter>
						<parameter>
							<parameterid>starburstintensity</parameterid>
							<name>Intensity</name>
							<valuemin>0</valuemin>
							<valuemax>100</valuemax>
							<value>75</value>
						</parameter>
						<parameter>
							<parameterid>starburstradius</parameterid>
							<name>Radius</name>
							<valuemin>0</valuemin>
							<valuemax>150</valuemax>
							<value>75</value>
						</parameter>
						<parameter>
							<parameterid>starburststarpoints</parameterid>
							<name>Star Points</name>
							<valuemin>0</valuemin>
							<valuemax>200</valuemax>
							<value>90</value>
						</parameter>
						<parameter>
							<parameterid>starcentre</parameterid>
							<name>Centre Size</name>
							<valuemin>0</valuemin>
							<valuemax>100</valuemax>
							<value>75</value>
						</parameter>
						<parameter>
							<parameterid>starfalloff</parameterid>
							<name>Fall Off</name>
							<valuemin>0</valuemin>
							<valuemax>100</valuemax>
							<value>75</value>
						</parameter>
						<parameter>
							<parameterid>starburstrandom</parameterid>
							<name>Randomness</name>
							<valuemin>0</valuemin>
							<valuemax>4</valuemax>
							<value>0.4</value>
						</parameter>
						<parameter>
							<parameterid>settingsvar4</parameterid>
							<name>   Rainbow</name>
							<value>string</value>
						</parameter>
						<parameter>
							<parameterid>rainbowon</parameterid>
							<name>Rainbow On?</name>
							<value>TRUE</value>
						</parameter>
						<parameter>
							<parameterid>rainbowcolors</parameterid>
							<name>Colour Type</name>
							<valuemin>1</valuemin>
							<valuemax>2</valuemax>
							<valuelist>
								<valueentry>
									<name>Rainbow</name>
									<value>1</value>
								</valueentry>
								<valueentry>
									<name>User Colour</name>
									<value>2</value>
								</valueentry>
							</valuelist>
							<value>1</value>
						</parameter>
						<parameter>
							<parameterid>rainbowusercolor</parameterid>
							<name>User Colour</name>
							<value>
								<alpha>255</alpha>
								<red>230</red>
								<green>110</green>
								<blue>22</blue>
							</value>
						</parameter>
						<parameter>
							<parameterid>rainbowposition</parameterid>
							<name>Position</name>
							<valuemin>-200</valuemin>
							<valuemax>200</valuemax>
							<value>100</value>
						</parameter>
						<parameter>
							<parameterid>rainbowintensity</parameterid>
							<name>Intensity</name>
							<valuemin>0</valuemin>
							<valuemax>100</valuemax>
							<value>20</value>
						</parameter>
						<parameter>
							<parameterid>rainbowradius</parameterid>
							<name>Radius</name>
							<valuemin>0</valuemin>
							<valuemax>200</valuemax>
							<value>50</value>
						</parameter>
						<parameter>
							<parameterid>rainbowthickness</parameterid>
							<name>Thickness</name>
							<valuemin>0</valuemin>
							<valuemax>1</valuemax>
							<value>0.15</value>
						</parameter>
						<parameter>
							<parameterid>rainbowsharpness</parameterid>
							<name>Sharpness</name>
							<valuemin>0</valuemin>
							<valuemax>1</valuemax>
							<value>0.65</value>
						</parameter>
						<parameter>
							<parameterid>settingsvar5</parameterid>
							<name>   Spots</name>
							<value>string</value>
						</parameter>
						<parameter>
							<parameterid>spotson</parameterid>
							<name>Spots On?</name>
							<value>TRUE</value>
						</parameter>
						<parameter>
							<parameterid>spotsnumber</parameterid>
							<name>Number</name>
							<valuemin>0</valuemin>
							<valuemax>100</valuemax>
							<value>12</value>
						</parameter>
						<parameter>
							<parameterid>spotsintensity</parameterid>
							<name>Intensity</name>
							<valuemin>0</valuemin>
							<valuemax>100</valuemax>
							<value>80</value>
						</parameter>
						<parameter>
							<parameterid>spotsradius</parameterid>
							<name>Radius</name>
							<valuemin>0</valuemin>
							<valuemax>150</valuemax>
							<value>30</value>
						</parameter>
						<parameter>
							<parameterid>spotsdisky</parameterid>
							<name>Disky</name>
							<valuemin>0</valuemin>
							<valuemax>100</valuemax>
							<value>75</value>
						</parameter>
						<parameter>
							<parameterid>spotsringy</parameterid>
							<name>Ringy</name>
							<valuemin>0</valuemin>
							<valuemax>100</valuemax>
							<value>75</value>
						</parameter>
						<parameter>
							<parameterid>spotsblotty</parameterid>
							<name>Blotty</name>
							<valuemin>0</valuemin>
							<valuemax>100</valuemax>
							<value>75</value>
						</parameter>
						<parameter>
							<parameterid>spotsbloony</parameterid>
							<name>Bloony</name>
							<valuemin>0</valuemin>
							<valuemax>100</valuemax>
							<value>75</value>
						</parameter>
						<parameter>
							<parameterid>spotsvarycolour</parameterid>
							<name>Vary Colour</name>
							<valuemin>0</valuemin>
							<valuemax>100</valuemax>
							<value>31</value>
						</parameter>
						<parameter>
							<parameterid>spotsbasehue</parameterid>
							<name>Base Hue</name>
							<valuemin>0</valuemin>
							<valuemax>100</valuemax>
							<value>72</value>
						</parameter>
						<parameter>
							<parameterid>spotssaturation</parameterid>
							<name>Saturation</name>
							<valuemin>0</valuemin>
							<valuemax>100</valuemax>
							<value>20</value>
						</parameter>
						<parameter>
							<parameterid>copyright</parameterid>
							<name>©www.nattress.com</name>
							<value>string</value>
						</parameter>
					</effect>
				</transitionitem>
				<clipitem id="AA1484_01 ">
					<name>AA1484_01</name>
					<duration>480</duration>
					<rate>
						<ntsc>FALSE</ntsc>
						<timebase>25</timebase>
					</rate>
					<in>202</in>
					<out>380</out>
					<start>-1</start>
					<end>9194</end>
					<pixelaspectratio>Square</pixelaspectratio>
					<enabled>TRUE</enabled>
					<anamorphic>FALSE</anamorphic>
					<alphatype>none</alphatype>
					<masterclipid>AA1484_01 1</masterclipid>
					<logginginfo>
						<scene/>
						<shottake/>
						<lognote/>
						<good>FALSE</good>
					</logginginfo>
					<labels>
						<label2/>
					</labels>
					<comments>
						<mastercomment1/>
						<mastercomment2/>
						<mastercomment3/>
						<mastercomment4/>
					</comments>
					<file id="AA1484_01 2">
						<name>AA1484_01.mov</name>
						<pathurl>file://localhost/Volumes/Askepott/Prosjekter/DNPR637010_Kra%CC%8Akeklubben_TEM_011212/Video/MELLOMSTIKK/S01E%20Spor%20i%20sn%C3%B8en/Canon%20XF/AA1484_01.mov</pathurl>
						<rate>
							<timebase>25</timebase>
						</rate>
						<duration>480</duration>
						<metadata>
							<storage>QuickTime</storage>
							<key>com.apple.proapps.originalFormat</key>
							<size>14</size>
							<type>UTF8</type>
							<value>Canon XF MPEG2</value>
						</metadata>
						<metadata>
							<storage>QuickTime</storage>
							<key>com.apple.quicktime.creationdate</key>
							<size>24</size>
							<type>UTF8</type>
							<value>2012-02-22T16:10:39+0100</value>
						</metadata>
						<metadata>
							<storage>QuickTime</storage>
							<key>com.apple.proapps.isGood</key>
							<size>4</size>
							<type>unsigned</type>
							<value>0</value>
						</metadata>
						<metadata>
							<storage>QuickTime</storage>
							<key>com.apple.finalcutstudio.media.uuid</key>
							<size>36</size>
							<type>UTF8</type>
							<value>C02C6A82-C9D7-4D37-BB77-AD26CE110262</value>
						</metadata>
						<metadata>
							<storage>QuickTime</storage>
							<key>com.apple.proapps.clipID</key>
							<size>36</size>
							<type>UTF8</type>
							<value>0A29AFAE-7959-0580-0000-850001E01891</value>
						</metadata>
						<metadata>
							<storage>QuickTime</storage>
							<key>com.apple.proapps.reel</key>
							<size>8</size>
							<type>UTF8</type>
							<value>CANON XF</value>
						</metadata>
						<timecode>
							<rate>
								<timebase>25</timebase>
							</rate>
							<string>01:17:49:11</string>
							<frame>116736</frame>
							<displayformat>NDF</displayformat>
							<source>source</source>
							<reel>
								<name>CANON XF</name>
							</reel>
						</timecode>
						<media>
							<video>
								<duration>480</duration>
								<samplecharacteristics>
									<width>1920</width>
									<height>1080</height>
								</samplecharacteristics>
							</video>
							<audio>
								<samplecharacteristics>
									<samplerate>48000</samplerate>
									<depth>16</depth>
								</samplecharacteristics>
								<channelcount>1</channelcount>
								<layout>mono</layout>
								<audiochannel>
									<sourcechannel>1</sourcechannel>
									<channellabel>discrete</channellabel>
								</audiochannel>
							</audio>
							<audio>
								<samplecharacteristics>
									<samplerate>48000</samplerate>
									<depth>16</depth>
								</samplecharacteristics>
								<channelcount>1</channelcount>
								<layout>mono</layout>
								<audiochannel>
									<sourcechannel>2</sourcechannel>
									<channellabel>discrete</channellabel>
								</audiochannel>
							</audio>
						</media>
					</file>
					<filter>
						<effect>
							<name>Basic Motion</name>
							<effectid>basic</effectid>
							<effectcategory>motion</effectcategory>
							<effecttype>motion</effecttype>
							<mediatype>video</mediatype>
							<parameter>
								<parameterid>scale</parameterid>
								<name>Scale</name>
								<valuemin>0</valuemin>
								<valuemax>1000</valuemax>
								<value>102</value>
							</parameter>
							<parameter>
								<parameterid>rotation</parameterid>
								<name>Rotation</name>
								<valuemin>-8640</valuemin>
								<valuemax>8640</valuemax>
								<value>0</value>
							</parameter>
							<parameter>
								<parameterid>center</parameterid>
								<name>Center</name>
								<value>
									<horiz>0</horiz>
									<vert>0</vert>
								</value>
							</parameter>
							<parameter>
								<parameterid>centerOffset</parameterid>
								<name>Anchor Point</name>
								<value>
									<horiz>0</horiz>
									<vert>0</vert>
								</value>
							</parameter>
						</effect>
					</filter>
					<filter>
						<enabled>FALSE</enabled>
						<effect>
							<name>Drop Shadow</name>
							<effectid>dropshadow</effectid>
							<effectcategory>motion</effectcategory>
							<effecttype>motion</effecttype>
							<mediatype>video</mediatype>
							<parameter>
								<parameterid>offset</parameterid>
								<name>offset</name>
								<valuemin>-100</valuemin>
								<valuemax>100</valuemax>
								<value>2</value>
							</parameter>
							<parameter>
								<parameterid>angle</parameterid>
								<name>angle</name>
								<valuemin>-720</valuemin>
								<valuemax>720</valuemax>
								<value>135</value>
							</parameter>
							<parameter>
								<parameterid>color</parameterid>
								<name>color</name>
								<value>
									<alpha>0</alpha>
									<red>0</red>
									<green>0</green>
									<blue>0</blue>
								</value>
							</parameter>
							<parameter>
								<parameterid>softness</parameterid>
								<name>softness</name>
								<valuemin>0</valuemin>
								<valuemax>100</valuemax>
								<value>10</value>
							</parameter>
							<parameter>
								<parameterid>opacity</parameterid>
								<name>opacity</name>
								<valuemin>0</valuemin>
								<valuemax>100</valuemax>
								<value>50</value>
							</parameter>
						</effect>
					</filter>
					<filter>
						<enabled>FALSE</enabled>
						<effect>
							<name>Motion Blur</name>
							<effectid>motionblur</effectid>
							<effectcategory>motion</effectcategory>
							<effecttype>motion</effecttype>
							<mediatype>video</mediatype>
							<parameter>
								<parameterid>duration</parameterid>
								<name>% Blur</name>
								<valuemin>0</valuemin>
								<valuemax>1000</valuemax>
								<value>500</value>
							</parameter>
							<parameter>
								<parameterid>samples</parameterid>
								<name>Samples</name>
								<valuemin>1</valuemin>
								<valuemax>16</valuemax>
								<value>4</value>
							</parameter>
						</effect>
					</filter>
					<filter>
						<effect>
							<name>Crop</name>
							<effectid>crop</effectid>
							<effectcategory>motion</effectcategory>
							<effecttype>motion</effecttype>
							<mediatype>video</mediatype>
							<parameter>
								<parameterid>left</parameterid>
								<name>left</name>
								<valuemin>0</valuemin>
								<valuemax>100</valuemax>
								<value>0</value>
							</parameter>
							<parameter>
								<parameterid>right</parameterid>
								<name>right</name>
								<valuemin>0</valuemin>
								<valuemax>100</valuemax>
								<value>0</value>
							</parameter>
							<parameter>
								<parameterid>top</parameterid>
								<name>top</name>
								<valuemin>0</valuemin>
								<valuemax>100</valuemax>
								<value>0</value>
							</parameter>
							<parameter>
								<parameterid>bottom</parameterid>
								<name>bottom</name>
								<valuemin>0</valuemin>
								<valuemax>100</valuemax>
								<value>0</value>
							</parameter>
							<parameter>
								<parameterid>edgefeather</parameterid>
								<name>edgefeather</name>
								<valuemin>0</valuemin>
								<valuemax>100</valuemax>
								<value>0</value>
							</parameter>
						</effect>
					</filter>
					<filter>
						<effect>
							<name>Distort</name>
							<effectid>deformation</effectid>
							<effectcategory>motion</effectcategory>
							<effecttype>motion</effecttype>
							<mediatype>video</mediatype>
							<parameter>
								<parameterid>ulcorner</parameterid>
								<name>Upper Left</name>
								<value>
									<horiz>-0.5</horiz>
									<vert>-0.5</vert>
								</value>
							</parameter>
							<parameter>
								<parameterid>urcorner</parameterid>
								<name>Upper Right</name>
								<value>
									<horiz>0.5</horiz>
									<vert>-0.5</vert>
								</value>
							</parameter>
							<parameter>
								<parameterid>lrcorner</parameterid>
								<name>Lower Right</name>
								<value>
									<horiz>0.5</horiz>
									<vert>0.5</vert>
								</value>
							</parameter>
							<parameter>
								<parameterid>llcorner</parameterid>
								<name>Lower Left</name>
								<value>
									<horiz>-0.5</horiz>
									<vert>0.5</vert>
								</value>
							</parameter>
							<parameter>
								<parameterid>aspect</parameterid>
								<name>Aspect</name>
								<valuemin>-10000</valuemin>
								<valuemax>10000</valuemax>
								<value>0</value>
							</parameter>
						</effect>
					</filter>
					<filter>
						<effect>
							<name>Opacity</name>
							<effectid>opacity</effectid>
							<effectcategory>motion</effectcategory>
							<effecttype>motion</effecttype>
							<mediatype>video</mediatype>
							<parameter>
								<parameterid>opacity</parameterid>
								<name>opacity</name>
								<valuemin>0</valuemin>
								<valuemax>100</valuemax>
								<value>100</value>
							</parameter>
						</effect>
					</filter>
					<sourcetrack>
						<mediatype>video</mediatype>
					</sourcetrack>
					<fielddominance>upper</fielddominance>
					<itemhistory>
						<uuid>3AC9E263-9D19-4AEF-8779-23179296BF68</uuid>
					</itemhistory>
				</clipitem>
				<clipitem id="Owesen-rullene Utvalg fra 14 - 17-HD.mxf">
					<name>Owesen-rullene Utvalg fra 14 - 17-HD.mxf</name>
					<duration>16570</duration>
					<rate>
						<ntsc>FALSE</ntsc>
						<timebase>25</timebase>
					</rate>
					<in>6056</in>
					<out>6082</out>
					<start>9194</start>
					<end>9220</end>
					<pixelaspectratio>Square</pixelaspectratio>
					<enabled>TRUE</enabled>
					<anamorphic>FALSE</anamorphic>
					<alphatype>none</alphatype>
					<masterclipid>Owesen-rullene Utvalg fra 14 - 17-HD.mxf1</masterclipid>
					<logginginfo>
						<scene/>
						<shottake/>
						<lognote/>
						<good>FALSE</good>
					</logginginfo>
					<labels>
						<label2/>
					</labels>
					<comments>
						<mastercomment1/>
						<mastercomment2/>
						<mastercomment3/>
						<mastercomment4/>
					</comments>
					<file id="Owesen-rullene Utvalg fra 14 - 17-HD">
						<name>Owesen-rullene Utvalg fra 14 - 17-HD.mxf</name>
						<pathurl>file://localhost/Volumes/Askepott/Prosjekter/DNPR637010_Kra%CC%8Akeklubben_TEM_011212/Video/Arkiv/HD-konvertert/Owesen-rullene%20Utvalg%20fra%2014%20-%2017-HD.mxf</pathurl>
						<rate>
							<timebase>25</timebase>
						</rate>
						<duration>16570</duration>
						<timecode>
							<rate>
								<timebase>25</timebase>
							</rate>
							<string>00:00:00:00</string>
							<frame>0</frame>
							<displayformat>NDF</displayformat>
							<source>source</source>
						</timecode>
						<media>
							<video>
								<duration>16570</duration>
								<samplecharacteristics>
									<width>1920</width>
									<height>1080</height>
								</samplecharacteristics>
							</video>
							<audio>
								<samplecharacteristics>
									<samplerate>48000</samplerate>
									<depth>24</depth>
								</samplecharacteristics>
								<channelcount>1</channelcount>
							</audio>
							<audio>
								<samplecharacteristics>
									<samplerate>48000</samplerate>
									<depth>24</depth>
								</samplecharacteristics>
								<channelcount>1</channelcount>
							</audio>
							<audio>
								<samplecharacteristics>
									<samplerate>48000</samplerate>
									<depth>24</depth>
								</samplecharacteristics>
								<channelcount>1</channelcount>
							</audio>
							<audio>
								<samplecharacteristics>
									<samplerate>48000</samplerate>
									<depth>24</depth>
								</samplecharacteristics>
								<channelcount>1</channelcount>
							</audio>
							<audio>
								<samplecharacteristics>
									<samplerate>48000</samplerate>
									<depth>24</depth>
								</samplecharacteristics>
								<channelcount>1</channelcount>
							</audio>
							<audio>
								<samplecharacteristics>
									<samplerate>48000</samplerate>
									<depth>24</depth>
								</samplecharacteristics>
								<channelcount>1</channelcount>
							</audio>
							<audio>
								<samplecharacteristics>
									<samplerate>48000</samplerate>
									<depth>24</depth>
								</samplecharacteristics>
								<channelcount>1</channelcount>
							</audio>
							<audio>
								<samplecharacteristics>
									<samplerate>48000</samplerate>
									<depth>24</depth>
								</samplecharacteristics>
								<channelcount>1</channelcount>
							</audio>
						</media>
					</file>
					<filter>
						<effect>
							<name>Basic Motion</name>
							<effectid>basic</effectid>
							<effectcategory>motion</effectcategory>
							<effecttype>motion</effecttype>
							<mediatype>video</mediatype>
							<parameter>
								<parameterid>scale</parameterid>
								<name>Scale</name>
								<valuemin>0</valuemin>
								<valuemax>1000</valuemax>
								<value>134</value>
							</parameter>
							<parameter>
								<parameterid>rotation</parameterid>
								<name>Rotation</name>
								<valuemin>-8640</valuemin>
								<valuemax>8640</valuemax>
								<value>0</value>
							</parameter>
							<parameter>
								<parameterid>center</parameterid>
								<name>Center</name>
								<keyframe>
									<when>6057</when>
									<value>
										<horiz>0.916667</horiz>
										<vert>0</vert>
									</value>
									<inscale>0</inscale>
									<outscale>0</outscale>
									<outbez>
										<horiz>0.1</horiz>
										<vert>-3.14159</vert>
									</outbez>
								</keyframe>
								<keyframe>
									<when>6081</when>
									<value>
										<horiz>0</horiz>
										<vert>0</vert>
									</value>
									<inscale>0</inscale>
									<inbez>
										<horiz>0.1</horiz>
										<vert>0</vert>
									</inbez>
									<outscale>0</outscale>
								</keyframe>
								<interpolation>
									<name>FCPCurve</name>
								</interpolation>
							</parameter>
							<parameter>
								<parameterid>centerOffset</parameterid>
								<name>Anchor Point</name>
								<value>
									<horiz>0</horiz>
									<vert>0</vert>
								</value>
							</parameter>
						</effect>
					</filter>
					<filter>
						<enabled>FALSE</enabled>
						<effect>
							<name>Drop Shadow</name>
							<effectid>dropshadow</effectid>
							<effectcategory>motion</effectcategory>
							<effecttype>motion</effecttype>
							<mediatype>video</mediatype>
							<parameter>
								<parameterid>offset</parameterid>
								<name>offset</name>
								<valuemin>-100</valuemin>
								<valuemax>100</valuemax>
								<value>2</value>
							</parameter>
							<parameter>
								<parameterid>angle</parameterid>
								<name>angle</name>
								<valuemin>-720</valuemin>
								<valuemax>720</valuemax>
								<value>135</value>
							</parameter>
							<parameter>
								<parameterid>color</parameterid>
								<name>color</name>
								<value>
									<alpha>0</alpha>
									<red>0</red>
									<green>0</green>
									<blue>0</blue>
								</value>
							</parameter>
							<parameter>
								<parameterid>softness</parameterid>
								<name>softness</name>
								<valuemin>0</valuemin>
								<valuemax>100</valuemax>
								<value>10</value>
							</parameter>
							<parameter>
								<parameterid>opacity</parameterid>
								<name>opacity</name>
								<valuemin>0</valuemin>
								<valuemax>100</valuemax>
								<value>50</value>
							</parameter>
						</effect>
					</filter>
					<filter>
						<enabled>FALSE</enabled>
						<effect>
							<name>Motion Blur</name>
							<effectid>motionblur</effectid>
							<effectcategory>motion</effectcategory>
							<effecttype>motion</effecttype>
							<mediatype>video</mediatype>
							<parameter>
								<parameterid>duration</parameterid>
								<name>% Blur</name>
								<valuemin>0</valuemin>
								<valuemax>1000</valuemax>
								<value>500</value>
							</parameter>
							<parameter>
								<parameterid>samples</parameterid>
								<name>Samples</name>
								<valuemin>1</valuemin>
								<valuemax>16</valuemax>
								<value>4</value>
							</parameter>
						</effect>
					</filter>
					<filter>
						<effect>
							<name>Crop</name>
							<effectid>crop</effectid>
							<effectcategory>motion</effectcategory>
							<effecttype>motion</effecttype>
							<mediatype>video</mediatype>
							<parameter>
								<parameterid>left</parameterid>
								<name>left</name>
								<valuemin>0</valuemin>
								<valuemax>100</valuemax>
								<value>0</value>
							</parameter>
							<parameter>
								<parameterid>right</parameterid>
								<name>right</name>
								<valuemin>0</valuemin>
								<valuemax>100</valuemax>
								<value>0</value>
							</parameter>
							<parameter>
								<parameterid>top</parameterid>
								<name>top</name>
								<valuemin>0</valuemin>
								<valuemax>100</valuemax>
								<value>0</value>
							</parameter>
							<parameter>
								<parameterid>bottom</parameterid>
								<name>bottom</name>
								<valuemin>0</valuemin>
								<valuemax>100</valuemax>
								<value>0</value>
							</parameter>
							<parameter>
								<parameterid>edgefeather</parameterid>
								<name>edgefeather</name>
								<valuemin>0</valuemin>
								<valuemax>100</valuemax>
								<value>0</value>
							</parameter>
						</effect>
					</filter>
					<filter>
						<effect>
							<name>Distort</name>
							<effectid>deformation</effectid>
							<effectcategory>motion</effectcategory>
							<effecttype>motion</effecttype>
							<mediatype>video</mediatype>
							<parameter>
								<parameterid>ulcorner</parameterid>
								<name>Upper Left</name>
								<value>
									<horiz>-0.5</horiz>
									<vert>-0.5</vert>
								</value>
							</parameter>
							<parameter>
								<parameterid>urcorner</parameterid>
								<name>Upper Right</name>
								<value>
									<horiz>0.5</horiz>
									<vert>-0.5</vert>
								</value>
							</parameter>
							<parameter>
								<parameterid>lrcorner</parameterid>
								<name>Lower Right</name>
								<value>
									<horiz>0.5</horiz>
									<vert>0.5</vert>
								</value>
							</parameter>
							<parameter>
								<parameterid>llcorner</parameterid>
								<name>Lower Left</name>
								<value>
									<horiz>-0.5</horiz>
									<vert>0.5</vert>
								</value>
							</parameter>
							<parameter>
								<parameterid>aspect</parameterid>
								<name>Aspect</name>
								<valuemin>-10000</valuemin>
								<valuemax>10000</valuemax>
								<value>0</value>
							</parameter>
						</effect>
					</filter>
					<filter>
						<effect>
							<name>Opacity</name>
							<effectid>opacity</effectid>
							<effectcategory>motion</effectcategory>
							<effecttype>motion</effecttype>
							<mediatype>video</mediatype>
							<parameter>
								<parameterid>opacity</parameterid>
								<name>opacity</name>
								<valuemin>0</valuemin>
								<valuemax>100</valuemax>
								<value>100</value>
							</parameter>
						</effect>
					</filter>
					<sourcetrack>
						<mediatype>video</mediatype>
					</sourcetrack>
					<fielddominance>upper</fielddominance>
					<itemhistory>
						<uuid>E664E799-3A7B-49F0-A550-83DA2DA106D6</uuid>
					</itemhistory>
				</clipitem>
				<clipitem id="Owesen-rullene Utvalg fra 14 - 17-HD.mxf2">
					<name>Owesen-rullene Utvalg fra 14 - 17-HD.mxf</name>
					<duration>27616</duration>
					<rate>
						<ntsc>FALSE</ntsc>
						<timebase>25</timebase>
					</rate>
					<in>10136</in>
					<out>10283</out>
					<start>9220</start>
					<end>-1</end>
					<pixelaspectratio>Square</pixelaspectratio>
					<enabled>TRUE</enabled>
					<anamorphic>FALSE</anamorphic>
					<alphatype>none</alphatype>
					<masterclipid>Owesen-rullene Utvalg fra 14 - 17-HD.mxf1</masterclipid>
					<logginginfo>
						<scene/>
						<shottake/>
						<lognote/>
						<good>FALSE</good>
					</logginginfo>
					<labels>
						<label2/>
					</labels>
					<comments>
						<mastercomment1/>
						<mastercomment2/>
						<mastercomment3/>
						<mastercomment4/>
					</comments>
					<file id="Owesen-rullene Utvalg fra 14 - 17-HD"/>
					<filter>
						<effect>
							<name>Basic Motion</name>
							<effectid>basic</effectid>
							<effectcategory>motion</effectcategory>
							<effecttype>motion</effecttype>
							<mediatype>video</mediatype>
							<parameter>
								<parameterid>scale</parameterid>
								<name>Scale</name>
								<valuemin>0</valuemin>
								<valuemax>1000</valuemax>
								<value>134</value>
							</parameter>
							<parameter>
								<parameterid>rotation</parameterid>
								<name>Rotation</name>
								<valuemin>-8640</valuemin>
								<valuemax>8640</valuemax>
								<value>0</value>
							</parameter>
							<parameter>
								<parameterid>center</parameterid>
								<name>Center</name>
								<value>
									<horiz>0</horiz>
									<vert>0</vert>
								</value>
							</parameter>
							<parameter>
								<parameterid>centerOffset</parameterid>
								<name>Anchor Point</name>
								<value>
									<horiz>0</horiz>
									<vert>0</vert>
								</value>
							</parameter>
						</effect>
					</filter>
					<filter>
						<enabled>FALSE</enabled>
						<effect>
							<name>Drop Shadow</name>
							<effectid>dropshadow</effectid>
							<effectcategory>motion</effectcategory>
							<effecttype>motion</effecttype>
							<mediatype>video</mediatype>
							<parameter>
								<parameterid>offset</parameterid>
								<name>offset</name>
								<valuemin>-100</valuemin>
								<valuemax>100</valuemax>
								<value>2</value>
							</parameter>
							<parameter>
								<parameterid>angle</parameterid>
								<name>angle</name>
								<valuemin>-720</valuemin>
								<valuemax>720</valuemax>
								<value>135</value>
							</parameter>
							<parameter>
								<parameterid>color</parameterid>
								<name>color</name>
								<value>
									<alpha>0</alpha>
									<red>0</red>
									<green>0</green>
									<blue>0</blue>
								</value>
							</parameter>
							<parameter>
								<parameterid>softness</parameterid>
								<name>softness</name>
								<valuemin>0</valuemin>
								<valuemax>100</valuemax>
								<value>10</value>
							</parameter>
							<parameter>
								<parameterid>opacity</parameterid>
								<name>opacity</name>
								<valuemin>0</valuemin>
								<valuemax>100</valuemax>
								<value>50</value>
							</parameter>
						</effect>
					</filter>
					<filter>
						<enabled>FALSE</enabled>
						<effect>
							<name>Motion Blur</name>
							<effectid>motionblur</effectid>
							<effectcategory>motion</effectcategory>
							<effecttype>motion</effecttype>
							<mediatype>video</mediatype>
							<parameter>
								<parameterid>duration</parameterid>
								<name>% Blur</name>
								<valuemin>0</valuemin>
								<valuemax>1000</valuemax>
								<value>500</value>
							</parameter>
							<parameter>
								<parameterid>samples</parameterid>
								<name>Samples</name>
								<valuemin>1</valuemin>
								<valuemax>16</valuemax>
								<value>4</value>
							</parameter>
						</effect>
					</filter>
					<filter>
						<effect>
							<name>Crop</name>
							<effectid>crop</effectid>
							<effectcategory>motion</effectcategory>
							<effecttype>motion</effecttype>
							<mediatype>video</mediatype>
							<parameter>
								<parameterid>left</parameterid>
								<name>left</name>
								<valuemin>0</valuemin>
								<valuemax>100</valuemax>
								<value>0</value>
							</parameter>
							<parameter>
								<parameterid>right</parameterid>
								<name>right</name>
								<valuemin>0</valuemin>
								<valuemax>100</valuemax>
								<value>0</value>
							</parameter>
							<parameter>
								<parameterid>top</parameterid>
								<name>top</name>
								<valuemin>0</valuemin>
								<valuemax>100</valuemax>
								<value>0</value>
							</parameter>
							<parameter>
								<parameterid>bottom</parameterid>
								<name>bottom</name>
								<valuemin>0</valuemin>
								<valuemax>100</valuemax>
								<value>0</value>
							</parameter>
							<parameter>
								<parameterid>edgefeather</parameterid>
								<name>edgefeather</name>
								<valuemin>0</valuemin>
								<valuemax>100</valuemax>
								<value>0</value>
							</parameter>
						</effect>
					</filter>
					<filter>
						<effect>
							<name>Distort</name>
							<effectid>deformation</effectid>
							<effectcategory>motion</effectcategory>
							<effecttype>motion</effecttype>
							<mediatype>video</mediatype>
							<parameter>
								<parameterid>ulcorner</parameterid>
								<name>Upper Left</name>
								<value>
									<horiz>-0.5</horiz>
									<vert>-0.5</vert>
								</value>
							</parameter>
							<parameter>
								<parameterid>urcorner</parameterid>
								<name>Upper Right</name>
								<value>
									<horiz>0.5</horiz>
									<vert>-0.5</vert>
								</value>
							</parameter>
							<parameter>
								<parameterid>lrcorner</parameterid>
								<name>Lower Right</name>
								<value>
									<horiz>0.5</horiz>
									<vert>0.5</vert>
								</value>
							</parameter>
							<parameter>
								<parameterid>llcorner</parameterid>
								<name>Lower Left</name>
								<value>
									<horiz>-0.5</horiz>
									<vert>0.5</vert>
								</value>
							</parameter>
							<parameter>
								<parameterid>aspect</parameterid>
								<name>Aspect</name>
								<valuemin>-10000</valuemin>
								<valuemax>10000</valuemax>
								<value>0</value>
							</parameter>
						</effect>
					</filter>
					<filter>
						<effect>
							<name>Opacity</name>
							<effectid>opacity</effectid>
							<effectcategory>motion</effectcategory>
							<effecttype>motion</effecttype>
							<mediatype>video</mediatype>
							<parameter>
								<parameterid>opacity</parameterid>
								<name>opacity</name>
								<valuemin>0</valuemin>
								<valuemax>100</valuemax>
								<value>100</value>
							</parameter>
						</effect>
					</filter>
					<sourcetrack>
						<mediatype>video</mediatype>
					</sourcetrack>
					<fielddominance>upper</fielddominance>
					<itemhistory>
						<uuid>E8931BC4-55F5-4EE1-B1D7-48C97C10D1D5</uuid>
					</itemhistory>
					<filter>
						<effect>
							<name>Time Remap</name>
							<effectid>timeremap</effectid>
							<effectcategory>motion</effectcategory>
							<effecttype>motion</effecttype>
							<mediatype>video</mediatype>
							<parameter>
								<parameterid>variablespeed</parameterid>
								<name>variablespeed</name>
								<valuemin>0</valuemin>
								<valuemax>1</valuemax>
								<value>0</value>
							</parameter>
							<parameter>
								<parameterid>mappedduration</parameterid>
								<name>mappedduration</name>
								<value>
									<timecode>
										<rate>
											<timebase>0</timebase>
										</rate>
										<string>0</string>
										<frame>0</frame>
										<displayformat>NDF</displayformat>
									</timecode>
								</value>
							</parameter>
							<parameter>
								<parameterid>speed</parameterid>
								<name>speed</name>
								<valuemin>-10000</valuemin>
								<valuemax>10000</valuemax>
								<value>60</value>
							</parameter>
							<parameter>
								<parameterid>reverse</parameterid>
								<name>reverse</name>
								<value>FALSE</value>
							</parameter>
							<parameter>
								<parameterid>frameblending</parameterid>
								<name>frameblending</name>
								<value>TRUE</value>
							</parameter>
							<parameter>
								<parameterid>graphdict</parameterid>
								<name>graphdict</name>
								<valuemin>0</valuemin>
								<valuemax>16569</valuemax>
								<keyframe>
									<when>0</when>
									<value>0.3997</value>
									<speedkfstart>TRUE</speedkfstart>
									<speedvirtualkf>TRUE</speedvirtualkf>
									<anchorOffset>0.3997</anchorOffset>
								</keyframe>
								<keyframe>
									<when>10136</when>
									<value>6082</value>
									<speedkfin>TRUE</speedkfin>
									<speedvirtualkf>TRUE</speedvirtualkf>
								</keyframe>
								<keyframe>
									<when>10283</when>
									<value>6170.2</value>
									<speedkfout>TRUE</speedkfout>
									<speedvirtualkf>TRUE</speedvirtualkf>
								</keyframe>
								<keyframe>
									<when>27616</when>
									<value>16570.4</value>
									<speedkfend>TRUE</speedkfend>
									<speedvirtualkf>TRUE</speedvirtualkf>
								</keyframe>
								<interpolation>
									<name>FCPCurve</name>
								</interpolation>
								<value>6082</value>
							</parameter>
						</effect>
					</filter>
				</clipitem>
				<transitionitem>
					<rate>
						<ntsc>FALSE</ntsc>
						<timebase>25</timebase>
					</rate>
					<start>9342</start>
					<end>9367</end>
					<alignment>center</alignment>
					<effect>
						<name>Cross Dissolve</name>
						<effectid>Cross Dissolve</effectid>
						<effectcategory>Dissolve</effectcategory>
						<effecttype>transition</effecttype>
						<mediatype>video</mediatype>
						<wipecode>0</wipecode>
						<wipeaccuracy>100</wipeaccuracy>
						<startratio>0</startratio>
						<endratio>1</endratio>
						<reverse>FALSE</reverse>
					</effect>
				</transitionitem>
				<clipitem id="Owesen-rullene Utvalg fra 14 - 17-HD.mxf3">
					<name>Owesen-rullene Utvalg fra 14 - 17-HD.mxf</name>
					<duration>16570</duration>
					<rate>
						<ntsc>FALSE</ntsc>
						<timebase>25</timebase>
					</rate>
					<in>5270</in>
					<out>5373</out>
					<start>-1</start>
					<end>9445</end>
					<pixelaspectratio>Square</pixelaspectratio>
					<enabled>TRUE</enabled>
					<anamorphic>FALSE</anamorphic>
					<alphatype>none</alphatype>
					<masterclipid>Owesen-rullene Utvalg fra 14 - 17-HD.mxf1</masterclipid>
					<logginginfo>
						<scene/>
						<shottake/>
						<lognote/>
						<good>FALSE</good>
					</logginginfo>
					<labels>
						<label2/>
					</labels>
					<comments>
						<mastercomment1/>
						<mastercomment2/>
						<mastercomment3/>
						<mastercomment4/>
					</comments>
					<file id="Owesen-rullene Utvalg fra 14 - 17-HD"/>
					<filter>
						<effect>
							<name>Basic Motion</name>
							<effectid>basic</effectid>
							<effectcategory>motion</effectcategory>
							<effecttype>motion</effecttype>
							<mediatype>video</mediatype>
							<parameter>
								<parameterid>scale</parameterid>
								<name>Scale</name>
								<valuemin>0</valuemin>
								<valuemax>1000</valuemax>
								<value>135</value>
							</parameter>
							<parameter>
								<parameterid>rotation</parameterid>
								<name>Rotation</name>
								<valuemin>-8640</valuemin>
								<valuemax>8640</valuemax>
								<value>0</value>
							</parameter>
							<parameter>
								<parameterid>center</parameterid>
								<name>Center</name>
								<value>
									<horiz>0</horiz>
									<vert>0</vert>
								</value>
							</parameter>
							<parameter>
								<parameterid>centerOffset</parameterid>
								<name>Anchor Point</name>
								<value>
									<horiz>0</horiz>
									<vert>0</vert>
								</value>
							</parameter>
						</effect>
					</filter>
					<filter>
						<enabled>FALSE</enabled>
						<effect>
							<name>Drop Shadow</name>
							<effectid>dropshadow</effectid>
							<effectcategory>motion</effectcategory>
							<effecttype>motion</effecttype>
							<mediatype>video</mediatype>
							<parameter>
								<parameterid>offset</parameterid>
								<name>offset</name>
								<valuemin>-100</valuemin>
								<valuemax>100</valuemax>
								<value>2</value>
							</parameter>
							<parameter>
								<parameterid>angle</parameterid>
								<name>angle</name>
								<valuemin>-720</valuemin>
								<valuemax>720</valuemax>
								<value>135</value>
							</parameter>
							<parameter>
								<parameterid>color</parameterid>
								<name>color</name>
								<value>
									<alpha>0</alpha>
									<red>0</red>
									<green>0</green>
									<blue>0</blue>
								</value>
							</parameter>
							<parameter>
								<parameterid>softness</parameterid>
								<name>softness</name>
								<valuemin>0</valuemin>
								<valuemax>100</valuemax>
								<value>10</value>
							</parameter>
							<parameter>
								<parameterid>opacity</parameterid>
								<name>opacity</name>
								<valuemin>0</valuemin>
								<valuemax>100</valuemax>
								<value>50</value>
							</parameter>
						</effect>
					</filter>
					<filter>
						<enabled>FALSE</enabled>
						<effect>
							<name>Motion Blur</name>
							<effectid>motionblur</effectid>
							<effectcategory>motion</effectcategory>
							<effecttype>motion</effecttype>
							<mediatype>video</mediatype>
							<parameter>
								<parameterid>duration</parameterid>
								<name>% Blur</name>
								<valuemin>0</valuemin>
								<valuemax>1000</valuemax>
								<value>500</value>
							</parameter>
							<parameter>
								<parameterid>samples</parameterid>
								<name>Samples</name>
								<valuemin>1</valuemin>
								<valuemax>16</valuemax>
								<value>4</value>
							</parameter>
						</effect>
					</filter>
					<filter>
						<effect>
							<name>Crop</name>
							<effectid>crop</effectid>
							<effectcategory>motion</effectcategory>
							<effecttype>motion</effecttype>
							<mediatype>video</mediatype>
							<parameter>
								<parameterid>left</parameterid>
								<name>left</name>
								<valuemin>0</valuemin>
								<valuemax>100</valuemax>
								<value>0</value>
							</parameter>
							<parameter>
								<parameterid>right</parameterid>
								<name>right</name>
								<valuemin>0</valuemin>
								<valuemax>100</valuemax>
								<value>0</value>
							</parameter>
							<parameter>
								<parameterid>top</parameterid>
								<name>top</name>
								<valuemin>0</valuemin>
								<valuemax>100</valuemax>
								<value>0</value>
							</parameter>
							<parameter>
								<parameterid>bottom</parameterid>
								<name>bottom</name>
								<valuemin>0</valuemin>
								<valuemax>100</valuemax>
								<value>0</value>
							</parameter>
							<parameter>
								<parameterid>edgefeather</parameterid>
								<name>edgefeather</name>
								<valuemin>0</valuemin>
								<valuemax>100</valuemax>
								<value>0</value>
							</parameter>
						</effect>
					</filter>
					<filter>
						<effect>
							<name>Distort</name>
							<effectid>deformation</effectid>
							<effectcategory>motion</effectcategory>
							<effecttype>motion</effecttype>
							<mediatype>video</mediatype>
							<parameter>
								<parameterid>ulcorner</parameterid>
								<name>Upper Left</name>
								<value>
									<horiz>-0.5</horiz>
									<vert>-0.5</vert>
								</value>
							</parameter>
							<parameter>
								<parameterid>urcorner</parameterid>
								<name>Upper Right</name>
								<value>
									<horiz>0.5</horiz>
									<vert>-0.5</vert>
								</value>
							</parameter>
							<parameter>
								<parameterid>lrcorner</parameterid>
								<name>Lower Right</name>
								<value>
									<horiz>0.5</horiz>
									<vert>0.5</vert>
								</value>
							</parameter>
							<parameter>
								<parameterid>llcorner</parameterid>
								<name>Lower Left</name>
								<value>
									<horiz>-0.5</horiz>
									<vert>0.5</vert>
								</value>
							</parameter>
							<parameter>
								<parameterid>aspect</parameterid>
								<name>Aspect</name>
								<valuemin>-10000</valuemin>
								<valuemax>10000</valuemax>
								<value>0</value>
							</parameter>
						</effect>
					</filter>
					<filter>
						<effect>
							<name>Opacity</name>
							<effectid>opacity</effectid>
							<effectcategory>motion</effectcategory>
							<effecttype>motion</effecttype>
							<mediatype>video</mediatype>
							<parameter>
								<parameterid>opacity</parameterid>
								<name>opacity</name>
								<valuemin>0</valuemin>
								<valuemax>100</valuemax>
								<value>100</value>
							</parameter>
						</effect>
					</filter>
					<sourcetrack>
						<mediatype>video</mediatype>
					</sourcetrack>
					<fielddominance>upper</fielddominance>
					<itemhistory>
						<uuid>6BCBB786-03A3-4E1A-B755-37E2E5E1ECB3</uuid>
					</itemhistory>
				</clipitem>
				<clipitem id="Owesen-rullene Utvalg fra 14 - 17-HD.mxf4">
					<name>Owesen-rullene Utvalg fra 14 - 17-HD.mxf</name>
					<duration>16570</duration>
					<rate>
						<ntsc>FALSE</ntsc>
						<timebase>25</timebase>
					</rate>
					<in>6225</in>
					<out>6285</out>
					<start>9445</start>
					<end>9505</end>
					<pixelaspectratio>Square</pixelaspectratio>
					<enabled>TRUE</enabled>
					<anamorphic>FALSE</anamorphic>
					<alphatype>none</alphatype>
					<masterclipid>Owesen-rullene Utvalg fra 14 - 17-HD.mxf1</masterclipid>
					<logginginfo>
						<scene/>
						<shottake/>
						<lognote/>
						<good>FALSE</good>
					</logginginfo>
					<labels>
						<label2/>
					</labels>
					<comments>
						<mastercomment1/>
						<mastercomment2/>
						<mastercomment3/>
						<mastercomment4/>
					</comments>
					<file id="Owesen-rullene Utvalg fra 14 - 17-HD"/>
					<filter>
						<effect>
							<name>Basic Motion</name>
							<effectid>basic</effectid>
							<effectcategory>motion</effectcategory>
							<effecttype>motion</effecttype>
							<mediatype>video</mediatype>
							<parameter>
								<parameterid>scale</parameterid>
								<name>Scale</name>
								<valuemin>0</valuemin>
								<valuemax>1000</valuemax>
								<value>134</value>
							</parameter>
							<parameter>
								<parameterid>rotation</parameterid>
								<name>Rotation</name>
								<valuemin>-8640</valuemin>
								<valuemax>8640</valuemax>
								<value>0</value>
							</parameter>
							<parameter>
								<parameterid>center</parameterid>
								<name>Center</name>
								<value>
									<horiz>0</horiz>
									<vert>0.143868</vert>
								</value>
							</parameter>
							<parameter>
								<parameterid>centerOffset</parameterid>
								<name>Anchor Point</name>
								<value>
									<horiz>0</horiz>
									<vert>0</vert>
								</value>
							</parameter>
						</effect>
					</filter>
					<filter>
						<enabled>FALSE</enabled>
						<effect>
							<name>Drop Shadow</name>
							<effectid>dropshadow</effectid>
							<effectcategory>motion</effectcategory>
							<effecttype>motion</effecttype>
							<mediatype>video</mediatype>
							<parameter>
								<parameterid>offset</parameterid>
								<name>offset</name>
								<valuemin>-100</valuemin>
								<valuemax>100</valuemax>
								<value>2</value>
							</parameter>
							<parameter>
								<parameterid>angle</parameterid>
								<name>angle</name>
								<valuemin>-720</valuemin>
								<valuemax>720</valuemax>
								<value>135</value>
							</parameter>
							<parameter>
								<parameterid>color</parameterid>
								<name>color</name>
								<value>
									<alpha>0</alpha>
									<red>0</red>
									<green>0</green>
									<blue>0</blue>
								</value>
							</parameter>
							<parameter>
								<parameterid>softness</parameterid>
								<name>softness</name>
								<valuemin>0</valuemin>
								<valuemax>100</valuemax>
								<value>10</value>
							</parameter>
							<parameter>
								<parameterid>opacity</parameterid>
								<name>opacity</name>
								<valuemin>0</valuemin>
								<valuemax>100</valuemax>
								<value>50</value>
							</parameter>
						</effect>
					</filter>
					<filter>
						<enabled>FALSE</enabled>
						<effect>
							<name>Motion Blur</name>
							<effectid>motionblur</effectid>
							<effectcategory>motion</effectcategory>
							<effecttype>motion</effecttype>
							<mediatype>video</mediatype>
							<parameter>
								<parameterid>duration</parameterid>
								<name>% Blur</name>
								<valuemin>0</valuemin>
								<valuemax>1000</valuemax>
								<value>500</value>
							</parameter>
							<parameter>
								<parameterid>samples</parameterid>
								<name>Samples</name>
								<valuemin>1</valuemin>
								<valuemax>16</valuemax>
								<value>4</value>
							</parameter>
						</effect>
					</filter>
					<filter>
						<effect>
							<name>Crop</name>
							<effectid>crop</effectid>
							<effectcategory>motion</effectcategory>
							<effecttype>motion</effecttype>
							<mediatype>video</mediatype>
							<parameter>
								<parameterid>left</parameterid>
								<name>left</name>
								<valuemin>0</valuemin>
								<valuemax>100</valuemax>
								<value>0</value>
							</parameter>
							<parameter>
								<parameterid>right</parameterid>
								<name>right</name>
								<valuemin>0</valuemin>
								<valuemax>100</valuemax>
								<value>0</value>
							</parameter>
							<parameter>
								<parameterid>top</parameterid>
								<name>top</name>
								<valuemin>0</valuemin>
								<valuemax>100</valuemax>
								<value>0</value>
							</parameter>
							<parameter>
								<parameterid>bottom</parameterid>
								<name>bottom</name>
								<valuemin>0</valuemin>
								<valuemax>100</valuemax>
								<value>0</value>
							</parameter>
							<parameter>
								<parameterid>edgefeather</parameterid>
								<name>edgefeather</name>
								<valuemin>0</valuemin>
								<valuemax>100</valuemax>
								<value>0</value>
							</parameter>
						</effect>
					</filter>
					<filter>
						<effect>
							<name>Distort</name>
							<effectid>deformation</effectid>
							<effectcategory>motion</effectcategory>
							<effecttype>motion</effecttype>
							<mediatype>video</mediatype>
							<parameter>
								<parameterid>ulcorner</parameterid>
								<name>Upper Left</name>
								<value>
									<horiz>-0.5</horiz>
									<vert>-0.5</vert>
								</value>
							</parameter>
							<parameter>
								<parameterid>urcorner</parameterid>
								<name>Upper Right</name>
								<value>
									<horiz>0.5</horiz>
									<vert>-0.5</vert>
								</value>
							</parameter>
							<parameter>
								<parameterid>lrcorner</parameterid>
								<name>Lower Right</name>
								<value>
									<horiz>0.5</horiz>
									<vert>0.5</vert>
								</value>
							</parameter>
							<parameter>
								<parameterid>llcorner</parameterid>
								<name>Lower Left</name>
								<value>
									<horiz>-0.5</horiz>
									<vert>0.5</vert>
								</value>
							</parameter>
							<parameter>
								<parameterid>aspect</parameterid>
								<name>Aspect</name>
								<valuemin>-10000</valuemin>
								<valuemax>10000</valuemax>
								<value>0</value>
							</parameter>
						</effect>
					</filter>
					<filter>
						<effect>
							<name>Opacity</name>
							<effectid>opacity</effectid>
							<effectcategory>motion</effectcategory>
							<effecttype>motion</effecttype>
							<mediatype>video</mediatype>
							<parameter>
								<parameterid>opacity</parameterid>
								<name>opacity</name>
								<valuemin>0</valuemin>
								<valuemax>100</valuemax>
								<value>100</value>
							</parameter>
						</effect>
					</filter>
					<sourcetrack>
						<mediatype>video</mediatype>
					</sourcetrack>
					<fielddominance>upper</fielddominance>
					<itemhistory>
						<uuid>C11A250E-4DB8-49DA-8C63-4EA456329843</uuid>
					</itemhistory>
				</clipitem>
				<clipitem id="AA1418_01 ">
					<name>AA1418_01</name>
					<duration>1872</duration>
					<rate>
						<ntsc>FALSE</ntsc>
						<timebase>25</timebase>
					</rate>
					<in>259</in>
					<out>691</out>
					<start>9654</start>
					<end>10086</end>
					<pixelaspectratio>Square</pixelaspectratio>
					<enabled>TRUE</enabled>
					<anamorphic>FALSE</anamorphic>
					<alphatype>none</alphatype>
					<masterclipid>AA1418_01 1</masterclipid>
					<logginginfo>
						<scene/>
						<shottake/>
						<lognote/>
						<good>FALSE</good>
					</logginginfo>
					<labels>
						<label2/>
					</labels>
					<comments>
						<mastercomment1/>
						<mastercomment2/>
						<mastercomment3/>
						<mastercomment4/>
					</comments>
					<file id="AA1418_01 2">
						<name>AA1418_01.mov</name>
						<pathurl>file://localhost/Volumes/Askepott/Prosjekter/DNPR637010_Kra%CC%8Akeklubben_TEM_011212/Video/MELLOMSTIKK/S01E%20Spor%20i%20sn%C3%B8en/Canon%20XF/AA1418_01.mov</pathurl>
						<rate>
							<timebase>25</timebase>
						</rate>
						<duration>1872</duration>
						<metadata>
							<storage>QuickTime</storage>
							<key>com.apple.proapps.originalFormat</key>
							<size>14</size>
							<type>UTF8</type>
							<value>Canon XF MPEG2</value>
						</metadata>
						<metadata>
							<storage>QuickTime</storage>
							<key>com.apple.quicktime.creationdate</key>
							<size>24</size>
							<type>UTF8</type>
							<value>2012-02-22T11:59:42+0100</value>
						</metadata>
						<metadata>
							<storage>QuickTime</storage>
							<key>com.apple.proapps.isGood</key>
							<size>4</size>
							<type>unsigned</type>
							<value>0</value>
						</metadata>
						<metadata>
							<storage>QuickTime</storage>
							<key>com.apple.finalcutstudio.media.uuid</key>
							<size>36</size>
							<type>UTF8</type>
							<value>EEE1DE5C-4ECC-4724-BE1D-8BD72F868A9B</value>
						</metadata>
						<metadata>
							<storage>QuickTime</storage>
							<key>com.apple.proapps.clipID</key>
							<size>36</size>
							<type>UTF8</type>
							<value>0A1E32DC-7959-0580-0000-850001E01891</value>
						</metadata>
						<metadata>
							<storage>QuickTime</storage>
							<key>com.apple.proapps.reel</key>
							<size>8</size>
							<type>UTF8</type>
							<value>CANON XF</value>
						</metadata>
						<timecode>
							<rate>
								<timebase>25</timebase>
							</rate>
							<string>00:30:29:19</string>
							<frame>45744</frame>
							<displayformat>NDF</displayformat>
							<source>source</source>
							<reel>
								<name>CANON XF</name>
							</reel>
						</timecode>
						<media>
							<video>
								<duration>1872</duration>
								<samplecharacteristics>
									<width>1920</width>
									<height>1080</height>
								</samplecharacteristics>
							</video>
							<audio>
								<samplecharacteristics>
									<samplerate>48000</samplerate>
									<depth>16</depth>
								</samplecharacteristics>
								<channelcount>1</channelcount>
								<layout>mono</layout>
								<audiochannel>
									<sourcechannel>1</sourcechannel>
									<channellabel>discrete</channellabel>
								</audiochannel>
							</audio>
							<audio>
								<samplecharacteristics>
									<samplerate>48000</samplerate>
									<depth>16</depth>
								</samplecharacteristics>
								<channelcount>1</channelcount>
								<layout>mono</layout>
								<audiochannel>
									<sourcechannel>2</sourcechannel>
									<channellabel>discrete</channellabel>
								</audiochannel>
							</audio>
						</media>
					</file>
					<sourcetrack>
						<mediatype>video</mediatype>
					</sourcetrack>
					<link>
						<linkclipref>AA1418_01 </linkclipref>
						<mediatype>video</mediatype>
						<trackindex>1</trackindex>
						<clipindex>91</clipindex>
					</link>
					<link>
						<linkclipref>AA1418_01 3</linkclipref>
						<mediatype>audio</mediatype>
						<trackindex>1</trackindex>
						<clipindex>57</clipindex>
					</link>
					<link>
						<linkclipref>AA1418_01 4</linkclipref>
						<mediatype>audio</mediatype>
						<trackindex>2</trackindex>
						<clipindex>52</clipindex>
					</link>
					<fielddominance>upper</fielddominance>
					<itemhistory>
						<uuid>698DAF54-9E07-49AC-8334-176D21CF3BB3</uuid>
					</itemhistory>
				</clipitem>
				<clipitem id="AA1425_01 ">
					<name>AA1425_01</name>
					<duration>1595</duration>
					<rate>
						<ntsc>FALSE</ntsc>
						<timebase>25</timebase>
					</rate>
					<in>949</in>
					<out>1062</out>
					<start>10086</start>
					<end>10199</end>
					<pixelaspectratio>Square</pixelaspectratio>
					<enabled>TRUE</enabled>
					<anamorphic>FALSE</anamorphic>
					<alphatype>none</alphatype>
					<masterclipid>AA1425_01 1</masterclipid>
					<logginginfo>
						<scene/>
						<shottake/>
						<lognote/>
						<good>FALSE</good>
					</logginginfo>
					<labels>
						<label2/>
					</labels>
					<comments>
						<mastercomment1/>
						<mastercomment2/>
						<mastercomment3/>
						<mastercomment4/>
					</comments>
					<file id="AA1425_01 2">
						<name>AA1425_01.mov</name>
						<pathurl>file://localhost/Volumes/Askepott/Prosjekter/DNPR637010_Kra%CC%8Akeklubben_TEM_011212/Video/MELLOMSTIKK/S01E%20Spor%20i%20sn%C3%B8en/Canon%20XF/AA1425_01.mov</pathurl>
						<rate>
							<timebase>25</timebase>
						</rate>
						<duration>1920</duration>
						<metadata>
							<storage>QuickTime</storage>
							<key>com.apple.proapps.originalFormat</key>
							<size>14</size>
							<type>UTF8</type>
							<value>Canon XF MPEG2</value>
						</metadata>
						<metadata>
							<storage>QuickTime</storage>
							<key>com.apple.quicktime.creationdate</key>
							<size>24</size>
							<type>UTF8</type>
							<value>2012-02-22T12:16:22+0100</value>
						</metadata>
						<metadata>
							<storage>QuickTime</storage>
							<key>com.apple.proapps.isGood</key>
							<size>4</size>
							<type>unsigned</type>
							<value>0</value>
						</metadata>
						<metadata>
							<storage>QuickTime</storage>
							<key>com.apple.finalcutstudio.media.uuid</key>
							<size>36</size>
							<type>UTF8</type>
							<value>FB4A4F8C-3D2F-4FD2-B149-4B15F9A06502</value>
						</metadata>
						<metadata>
							<storage>QuickTime</storage>
							<key>com.apple.proapps.clipID</key>
							<size>36</size>
							<type>UTF8</type>
							<value>0A1EF62C-7959-0580-0000-850001E01891</value>
						</metadata>
						<metadata>
							<storage>QuickTime</storage>
							<key>com.apple.proapps.reel</key>
							<size>8</size>
							<type>UTF8</type>
							<value>CANON XF</value>
						</metadata>
						<timecode>
							<rate>
								<timebase>25</timebase>
							</rate>
							<string>00:35:49:23</string>
							<frame>53748</frame>
							<displayformat>NDF</displayformat>
							<source>source</source>
							<reel>
								<name>CANON XF</name>
							</reel>
						</timecode>
						<media>
							<video>
								<duration>1920</duration>
								<samplecharacteristics>
									<width>1920</width>
									<height>1080</height>
								</samplecharacteristics>
							</video>
							<audio>
								<samplecharacteristics>
									<samplerate>48000</samplerate>
									<depth>16</depth>
								</samplecharacteristics>
								<channelcount>1</channelcount>
								<layout>mono</layout>
								<audiochannel>
									<sourcechannel>1</sourcechannel>
									<channellabel>discrete</channellabel>
								</audiochannel>
							</audio>
							<audio>
								<samplecharacteristics>
									<samplerate>48000</samplerate>
									<depth>16</depth>
								</samplecharacteristics>
								<channelcount>1</channelcount>
								<layout>mono</layout>
								<audiochannel>
									<sourcechannel>2</sourcechannel>
									<channellabel>discrete</channellabel>
								</audiochannel>
							</audio>
						</media>
					</file>
					<sourcetrack>
						<mediatype>video</mediatype>
					</sourcetrack>
					<fielddominance>upper</fielddominance>
					<itemhistory>
						<uuid>22569EF2-AE7A-4615-B1D6-062374BEB40F</uuid>
					</itemhistory>
					<filter>
						<effect>
							<name>Time Remap</name>
							<effectid>timeremap</effectid>
							<effectcategory>motion</effectcategory>
							<effecttype>motion</effecttype>
							<mediatype>video</mediatype>
							<parameter>
								<parameterid>variablespeed</parameterid>
								<name>variablespeed</name>
								<valuemin>0</valuemin>
								<valuemax>1</valuemax>
								<value>0</value>
							</parameter>
							<parameter>
								<parameterid>mappedduration</parameterid>
								<name>mappedduration</name>
								<value>
									<timecode>
										<rate>
											<timebase>0</timebase>
										</rate>
										<string>0</string>
										<frame>0</frame>
										<displayformat>NDF</displayformat>
									</timecode>
								</value>
							</parameter>
							<parameter>
								<parameterid>speed</parameterid>
								<name>speed</name>
								<valuemin>-10000</valuemin>
								<valuemax>10000</valuemax>
								<value>120</value>
							</parameter>
							<parameter>
								<parameterid>reverse</parameterid>
								<name>reverse</name>
								<value>FALSE</value>
							</parameter>
							<parameter>
								<parameterid>frameblending</parameterid>
								<name>frameblending</name>
								<value>TRUE</value>
							</parameter>
							<parameter>
								<parameterid>graphdict</parameterid>
								<name>graphdict</name>
								<valuemin>0</valuemin>
								<valuemax>1919</valuemax>
								<keyframe>
									<when>0</when>
									<value>0.6932</value>
									<speedkfstart>TRUE</speedkfstart>
									<speedvirtualkf>TRUE</speedvirtualkf>
									<anchorOffset>0.6932</anchorOffset>
								</keyframe>
								<keyframe>
									<when>949</when>
									<value>1143.18</value>
									<speedkfin>TRUE</speedkfin>
									<speedvirtualkf>TRUE</speedvirtualkf>
								</keyframe>
								<keyframe>
									<when>1062</when>
									<value>1279.22</value>
									<speedkfout>TRUE</speedkfout>
									<speedvirtualkf>TRUE</speedvirtualkf>
								</keyframe>
								<keyframe>
									<when>1595</when>
									<value>1920.69</value>
									<speedkfend>TRUE</speedkfend>
									<speedvirtualkf>TRUE</speedvirtualkf>
								</keyframe>
								<interpolation>
									<name>FCPCurve</name>
								</interpolation>
								<value>1143.18</value>
							</parameter>
						</effect>
					</filter>
				</clipitem>
				<clipitem id="AA1418_01 5">
					<name>AA1418_01</name>
					<duration>1872</duration>
					<rate>
						<ntsc>FALSE</ntsc>
						<timebase>25</timebase>
					</rate>
					<in>804</in>
					<out>917</out>
					<start>10199</start>
					<end>10312</end>
					<pixelaspectratio>Square</pixelaspectratio>
					<enabled>TRUE</enabled>
					<anamorphic>FALSE</anamorphic>
					<alphatype>none</alphatype>
					<masterclipid>AA1418_01 1</masterclipid>
					<logginginfo>
						<scene/>
						<shottake/>
						<lognote/>
						<good>FALSE</good>
					</logginginfo>
					<labels>
						<label2/>
					</labels>
					<comments>
						<mastercomment1/>
						<mastercomment2/>
						<mastercomment3/>
						<mastercomment4/>
					</comments>
					<file id="AA1418_01 2"/>
					<sourcetrack>
						<mediatype>video</mediatype>
					</sourcetrack>
					<fielddominance>upper</fielddominance>
					<itemhistory>
						<uuid>9259231E-3422-4D6B-98BB-1467466B03C6</uuid>
					</itemhistory>
				</clipitem>
				<clipitem id="AA1422_01 ">
					<name>AA1422_01</name>
					<duration>1188</duration>
					<rate>
						<ntsc>FALSE</ntsc>
						<timebase>25</timebase>
					</rate>
					<in>644</in>
					<out>679</out>
					<start>10312</start>
					<end>10347</end>
					<pixelaspectratio>Square</pixelaspectratio>
					<enabled>TRUE</enabled>
					<anamorphic>FALSE</anamorphic>
					<alphatype>none</alphatype>
					<masterclipid>AA1422_01 1</masterclipid>
					<logginginfo>
						<scene/>
						<shottake/>
						<lognote/>
						<good>FALSE</good>
					</logginginfo>
					<labels>
						<label2/>
					</labels>
					<comments>
						<mastercomment1/>
						<mastercomment2/>
						<mastercomment3/>
						<mastercomment4/>
					</comments>
					<file id="AA1422_01 2">
						<name>AA1422_01.mov</name>
						<pathurl>file://localhost/Volumes/Askepott/Prosjekter/DNPR637010_Kra%CC%8Akeklubben_TEM_011212/Video/MELLOMSTIKK/S01E%20Spor%20i%20sn%C3%B8en/Canon%20XF/AA1422_01.mov</pathurl>
						<rate>
							<timebase>25</timebase>
						</rate>
						<duration>1188</duration>
						<metadata>
							<storage>QuickTime</storage>
							<key>com.apple.proapps.originalFormat</key>
							<size>14</size>
							<type>UTF8</type>
							<value>Canon XF MPEG2</value>
						</metadata>
						<metadata>
							<storage>QuickTime</storage>
							<key>com.apple.quicktime.creationdate</key>
							<size>24</size>
							<type>UTF8</type>
							<value>2012-02-22T12:10:07+0100</value>
						</metadata>
						<metadata>
							<storage>QuickTime</storage>
							<key>com.apple.proapps.isGood</key>
							<size>4</size>
							<type>unsigned</type>
							<value>0</value>
						</metadata>
						<metadata>
							<storage>QuickTime</storage>
							<key>com.apple.finalcutstudio.media.uuid</key>
							<size>36</size>
							<type>UTF8</type>
							<value>C5CB5586-0E6B-40FC-A8D5-0D282CEF2ADA</value>
						</metadata>
						<metadata>
							<storage>QuickTime</storage>
							<key>com.apple.proapps.clipID</key>
							<size>36</size>
							<type>UTF8</type>
							<value>0A1EACEE-7959-0580-0000-850001E01891</value>
						</metadata>
						<metadata>
							<storage>QuickTime</storage>
							<key>com.apple.proapps.reel</key>
							<size>8</size>
							<type>UTF8</type>
							<value>CANON XF</value>
						</metadata>
						<timecode>
							<rate>
								<timebase>25</timebase>
							</rate>
							<string>00:34:03:21</string>
							<frame>51096</frame>
							<displayformat>NDF</displayformat>
							<source>source</source>
							<reel>
								<name>CANON XF</name>
							</reel>
						</timecode>
						<media>
							<video>
								<duration>1188</duration>
								<samplecharacteristics>
									<width>1920</width>
									<height>1080</height>
								</samplecharacteristics>
							</video>
							<audio>
								<samplecharacteristics>
									<samplerate>48000</samplerate>
									<depth>16</depth>
								</samplecharacteristics>
								<channelcount>1</channelcount>
								<layout>mono</layout>
								<audiochannel>
									<sourcechannel>1</sourcechannel>
									<channellabel>discrete</channellabel>
								</audiochannel>
							</audio>
							<audio>
								<samplecharacteristics>
									<samplerate>48000</samplerate>
									<depth>16</depth>
								</samplecharacteristics>
								<channelcount>1</channelcount>
								<layout>mono</layout>
								<audiochannel>
									<sourcechannel>2</sourcechannel>
									<channellabel>discrete</channellabel>
								</audiochannel>
							</audio>
						</media>
					</file>
					<sourcetrack>
						<mediatype>video</mediatype>
					</sourcetrack>
					<fielddominance>upper</fielddominance>
					<itemhistory>
						<uuid>0FA7C8EF-0200-48B1-9C1A-FDA0718025BB</uuid>
					</itemhistory>
				</clipitem>
				<clipitem id="AA1418_01 6">
					<name>AA1418_01</name>
					<duration>1872</duration>
					<rate>
						<ntsc>FALSE</ntsc>
						<timebase>25</timebase>
					</rate>
					<in>952</in>
					<out>1054</out>
					<start>10347</start>
					<end>10449</end>
					<pixelaspectratio>Square</pixelaspectratio>
					<enabled>TRUE</enabled>
					<anamorphic>FALSE</anamorphic>
					<alphatype>none</alphatype>
					<masterclipid>AA1418_01 1</masterclipid>
					<logginginfo>
						<scene/>
						<shottake/>
						<lognote/>
						<good>FALSE</good>
					</logginginfo>
					<labels>
						<label2/>
					</labels>
					<comments>
						<mastercomment1/>
						<mastercomment2/>
						<mastercomment3/>
						<mastercomment4/>
					</comments>
					<file id="AA1418_01 2"/>
					<sourcetrack>
						<mediatype>video</mediatype>
					</sourcetrack>
					<fielddominance>upper</fielddominance>
					<itemhistory>
						<uuid>2D8DDCA8-4071-4DAE-A361-88224B00EFC9</uuid>
					</itemhistory>
				</clipitem>
				<clipitem id="AA1422_01 3">
					<name>AA1422_01</name>
					<duration>1188</duration>
					<rate>
						<ntsc>FALSE</ntsc>
						<timebase>25</timebase>
					</rate>
					<in>762</in>
					<out>831</out>
					<start>10449</start>
					<end>10518</end>
					<pixelaspectratio>Square</pixelaspectratio>
					<enabled>TRUE</enabled>
					<anamorphic>FALSE</anamorphic>
					<alphatype>none</alphatype>
					<masterclipid>AA1422_01 1</masterclipid>
					<logginginfo>
						<scene/>
						<shottake/>
						<lognote/>
						<good>FALSE</good>
					</logginginfo>
					<labels>
						<label2/>
					</labels>
					<comments>
						<mastercomment1/>
						<mastercomment2/>
						<mastercomment3/>
						<mastercomment4/>
					</comments>
					<file id="AA1422_01 2"/>
					<sourcetrack>
						<mediatype>video</mediatype>
					</sourcetrack>
					<link>
						<linkclipref>AA1422_01 3</linkclipref>
						<mediatype>video</mediatype>
						<trackindex>1</trackindex>
						<clipindex>96</clipindex>
					</link>
					<link>
						<linkclipref>AA1422_01 4</linkclipref>
						<mediatype>audio</mediatype>
						<trackindex>1</trackindex>
						<clipindex>58</clipindex>
					</link>
					<link>
						<linkclipref>AA1422_01 5</linkclipref>
						<mediatype>audio</mediatype>
						<trackindex>2</trackindex>
						<clipindex>53</clipindex>
					</link>
					<fielddominance>upper</fielddominance>
					<itemhistory>
						<uuid>AA79D53C-8C58-4406-8CF5-AAC32255885D</uuid>
					</itemhistory>
				</clipitem>
				<clipitem id="AA1418_01 7">
					<name>AA1418_01</name>
					<duration>1872</duration>
					<rate>
						<ntsc>FALSE</ntsc>
						<timebase>25</timebase>
					</rate>
					<in>1123</in>
					<out>1193</out>
					<start>10518</start>
					<end>10588</end>
					<pixelaspectratio>Square</pixelaspectratio>
					<enabled>TRUE</enabled>
					<anamorphic>FALSE</anamorphic>
					<alphatype>none</alphatype>
					<masterclipid>AA1418_01 1</masterclipid>
					<logginginfo>
						<scene/>
						<shottake/>
						<lognote/>
						<good>FALSE</good>
					</logginginfo>
					<labels>
						<label2/>
					</labels>
					<comments>
						<mastercomment1/>
						<mastercomment2/>
						<mastercomment3/>
						<mastercomment4/>
					</comments>
					<file id="AA1418_01 2"/>
					<sourcetrack>
						<mediatype>video</mediatype>
					</sourcetrack>
					<fielddominance>upper</fielddominance>
					<itemhistory>
						<uuid>ED95709E-7046-4B74-978D-D0DB74674C2E</uuid>
					</itemhistory>
				</clipitem>
				<clipitem id="AA1425_01 3">
					<name>AA1425_01</name>
					<duration>1920</duration>
					<rate>
						<ntsc>FALSE</ntsc>
						<timebase>25</timebase>
					</rate>
					<in>1705</in>
					<out>1788</out>
					<start>10588</start>
					<end>10671</end>
					<pixelaspectratio>Square</pixelaspectratio>
					<enabled>TRUE</enabled>
					<anamorphic>FALSE</anamorphic>
					<alphatype>none</alphatype>
					<masterclipid>AA1425_01 1</masterclipid>
					<logginginfo>
						<scene/>
						<shottake/>
						<lognote/>
						<good>FALSE</good>
					</logginginfo>
					<labels>
						<label2/>
					</labels>
					<comments>
						<mastercomment1/>
						<mastercomment2/>
						<mastercomment3/>
						<mastercomment4/>
					</comments>
					<file id="AA1425_01 2"/>
					<sourcetrack>
						<mediatype>video</mediatype>
					</sourcetrack>
					<link>
						<linkclipref>AA1425_01 3</linkclipref>
						<mediatype>video</mediatype>
						<trackindex>1</trackindex>
						<clipindex>98</clipindex>
					</link>
					<link>
						<linkclipref>AA1425_01 4</linkclipref>
						<mediatype>audio</mediatype>
						<trackindex>1</trackindex>
						<clipindex>60</clipindex>
					</link>
					<link>
						<linkclipref>AA1425_01 5</linkclipref>
						<mediatype>audio</mediatype>
						<trackindex>2</trackindex>
						<clipindex>55</clipindex>
					</link>
					<fielddominance>upper</fielddominance>
					<itemhistory>
						<uuid>34B05D79-E65C-4C16-A1A6-C4C11923854A</uuid>
					</itemhistory>
				</clipitem>
				<clipitem id="AA1418_01 8">
					<name>AA1418_01</name>
					<duration>1872</duration>
					<rate>
						<ntsc>FALSE</ntsc>
						<timebase>25</timebase>
					</rate>
					<in>1303</in>
					<out>1595</out>
					<start>10671</start>
					<end>10963</end>
					<pixelaspectratio>Square</pixelaspectratio>
					<enabled>TRUE</enabled>
					<anamorphic>FALSE</anamorphic>
					<alphatype>none</alphatype>
					<masterclipid>AA1418_01 1</masterclipid>
					<logginginfo>
						<scene/>
						<shottake/>
						<lognote/>
						<good>FALSE</good>
					</logginginfo>
					<labels>
						<label2/>
					</labels>
					<comments>
						<mastercomment1/>
						<mastercomment2/>
						<mastercomment3/>
						<mastercomment4/>
					</comments>
					<file id="AA1418_01 2"/>
					<sourcetrack>
						<mediatype>video</mediatype>
					</sourcetrack>
					<link>
						<linkclipref>AA1418_01 8</linkclipref>
						<mediatype>video</mediatype>
						<trackindex>1</trackindex>
						<clipindex>99</clipindex>
					</link>
					<link>
						<linkclipref>AA1418_01 9</linkclipref>
						<mediatype>audio</mediatype>
						<trackindex>1</trackindex>
						<clipindex>61</clipindex>
					</link>
					<link>
						<linkclipref>AA1418_01 10</linkclipref>
						<mediatype>audio</mediatype>
						<trackindex>2</trackindex>
						<clipindex>56</clipindex>
					</link>
					<fielddominance>upper</fielddominance>
					<itemhistory>
						<uuid>DDCCAB1F-FEA8-4D54-8533-7A7A3F671999</uuid>
					</itemhistory>
				</clipitem>
				<clipitem id="AA1423_01 ">
					<name>AA1423_01</name>
					<duration>840</duration>
					<rate>
						<ntsc>FALSE</ntsc>
						<timebase>25</timebase>
					</rate>
					<in>707</in>
					<out>725</out>
					<start>10963</start>
					<end>10981</end>
					<pixelaspectratio>Square</pixelaspectratio>
					<enabled>TRUE</enabled>
					<anamorphic>FALSE</anamorphic>
					<alphatype>none</alphatype>
					<masterclipid>AA1423_01 1</masterclipid>
					<logginginfo>
						<scene/>
						<shottake/>
						<lognote/>
						<good>FALSE</good>
					</logginginfo>
					<labels>
						<label2/>
					</labels>
					<comments>
						<mastercomment1/>
						<mastercomment2/>
						<mastercomment3/>
						<mastercomment4/>
					</comments>
					<file id="AA1423_01 2">
						<name>AA1423_01.mov</name>
						<pathurl>file://localhost/Volumes/Askepott/Prosjekter/DNPR637010_Kra%CC%8Akeklubben_TEM_011212/Video/MELLOMSTIKK/S01E%20Spor%20i%20sn%C3%B8en/Canon%20XF/AA1423_01.mov</pathurl>
						<rate>
							<timebase>25</timebase>
						</rate>
						<duration>840</duration>
						<metadata>
							<storage>QuickTime</storage>
							<key>com.apple.proapps.originalFormat</key>
							<size>14</size>
							<type>UTF8</type>
							<value>Canon XF MPEG2</value>
						</metadata>
						<metadata>
							<storage>QuickTime</storage>
							<key>com.apple.quicktime.creationdate</key>
							<size>24</size>
							<type>UTF8</type>
							<value>2012-02-22T12:11:50+0100</value>
						</metadata>
						<metadata>
							<storage>QuickTime</storage>
							<key>com.apple.proapps.isGood</key>
							<size>4</size>
							<type>unsigned</type>
							<value>0</value>
						</metadata>
						<metadata>
							<storage>QuickTime</storage>
							<key>com.apple.finalcutstudio.media.uuid</key>
							<size>36</size>
							<type>UTF8</type>
							<value>1D7DDD7E-E93D-472E-9B0F-D2FA6EC1AFCD</value>
						</metadata>
						<metadata>
							<storage>QuickTime</storage>
							<key>com.apple.proapps.clipID</key>
							<size>36</size>
							<type>UTF8</type>
							<value>0A1EC10C-7959-0580-0000-850001E01891</value>
						</metadata>
						<metadata>
							<storage>QuickTime</storage>
							<key>com.apple.proapps.reel</key>
							<size>8</size>
							<type>UTF8</type>
							<value>CANON XF</value>
						</metadata>
						<timecode>
							<rate>
								<timebase>25</timebase>
							</rate>
							<string>00:34:51:09</string>
							<frame>52284</frame>
							<displayformat>NDF</displayformat>
							<source>source</source>
							<reel>
								<name>CANON XF</name>
							</reel>
						</timecode>
						<media>
							<video>
								<duration>840</duration>
								<samplecharacteristics>
									<width>1920</width>
									<height>1080</height>
								</samplecharacteristics>
							</video>
							<audio>
								<samplecharacteristics>
									<samplerate>48000</samplerate>
									<depth>16</depth>
								</samplecharacteristics>
								<channelcount>1</channelcount>
								<layout>mono</layout>
								<audiochannel>
									<sourcechannel>1</sourcechannel>
									<channellabel>discrete</channellabel>
								</audiochannel>
							</audio>
							<audio>
								<samplecharacteristics>
									<samplerate>48000</samplerate>
									<depth>16</depth>
								</samplecharacteristics>
								<channelcount>1</channelcount>
								<layout>mono</layout>
								<audiochannel>
									<sourcechannel>2</sourcechannel>
									<channellabel>discrete</channellabel>
								</audiochannel>
							</audio>
						</media>
					</file>
					<sourcetrack>
						<mediatype>video</mediatype>
					</sourcetrack>
					<link>
						<linkclipref>AA1423_01 </linkclipref>
						<mediatype>video</mediatype>
						<trackindex>1</trackindex>
						<clipindex>100</clipindex>
					</link>
					<link>
						<linkclipref>AA1423_01 3</linkclipref>
						<mediatype>audio</mediatype>
						<trackindex>1</trackindex>
						<clipindex>62</clipindex>
					</link>
					<link>
						<linkclipref>AA1423_01 4</linkclipref>
						<mediatype>audio</mediatype>
						<trackindex>2</trackindex>
						<clipindex>57</clipindex>
					</link>
					<fielddominance>upper</fielddominance>
					<itemhistory>
						<uuid>5C473EDF-2439-4863-A94E-FC11EC98CBAC</uuid>
					</itemhistory>
				</clipitem>
				<clipitem id="AA1426_01 ">
					<name>AA1426_01</name>
					<duration>384</duration>
					<rate>
						<ntsc>FALSE</ntsc>
						<timebase>25</timebase>
					</rate>
					<in>196</in>
					<out>296</out>
					<start>10981</start>
					<end>11081</end>
					<pixelaspectratio>Square</pixelaspectratio>
					<enabled>TRUE</enabled>
					<anamorphic>FALSE</anamorphic>
					<alphatype>none</alphatype>
					<masterclipid>AA1426_01 1</masterclipid>
					<logginginfo>
						<scene/>
						<shottake/>
						<lognote/>
						<good>FALSE</good>
					</logginginfo>
					<labels>
						<label2/>
					</labels>
					<comments>
						<mastercomment1/>
						<mastercomment2/>
						<mastercomment3/>
						<mastercomment4/>
					</comments>
					<file id="AA1426_01 2">
						<name>AA1426_01.mov</name>
						<pathurl>file://localhost/Volumes/Askepott/Prosjekter/DNPR637010_Kra%CC%8Akeklubben_TEM_011212/Video/MELLOMSTIKK/S01E%20Spor%20i%20sn%C3%B8en/Canon%20XF/AA1426_01.mov</pathurl>
						<rate>
							<timebase>25</timebase>
						</rate>
						<duration>384</duration>
						<metadata>
							<storage>QuickTime</storage>
							<key>com.apple.proapps.originalFormat</key>
							<size>14</size>
							<type>UTF8</type>
							<value>Canon XF MPEG2</value>
						</metadata>
						<metadata>
							<storage>QuickTime</storage>
							<key>com.apple.quicktime.creationdate</key>
							<size>24</size>
							<type>UTF8</type>
							<value>2012-02-22T12:19:12+0100</value>
						</metadata>
						<metadata>
							<storage>QuickTime</storage>
							<key>com.apple.proapps.isGood</key>
							<size>4</size>
							<type>unsigned</type>
							<value>0</value>
						</metadata>
						<metadata>
							<storage>QuickTime</storage>
							<key>com.apple.finalcutstudio.media.uuid</key>
							<size>36</size>
							<type>UTF8</type>
							<value>AD830474-7690-4CD3-96F2-C08FF992A522</value>
						</metadata>
						<metadata>
							<storage>QuickTime</storage>
							<key>com.apple.proapps.clipID</key>
							<size>36</size>
							<type>UTF8</type>
							<value>0A1F1760-7959-0580-0000-850001E01891</value>
						</metadata>
						<metadata>
							<storage>QuickTime</storage>
							<key>com.apple.proapps.reel</key>
							<size>8</size>
							<type>UTF8</type>
							<value>CANON XF</value>
						</metadata>
						<timecode>
							<rate>
								<timebase>25</timebase>
							</rate>
							<string>00:37:06:18</string>
							<frame>55668</frame>
							<displayformat>NDF</displayformat>
							<source>source</source>
							<reel>
								<name>CANON XF</name>
							</reel>
						</timecode>
						<media>
							<video>
								<duration>384</duration>
								<samplecharacteristics>
									<width>1920</width>
									<height>1080</height>
								</samplecharacteristics>
							</video>
							<audio>
								<samplecharacteristics>
									<samplerate>48000</samplerate>
									<depth>16</depth>
								</samplecharacteristics>
								<channelcount>1</channelcount>
								<layout>mono</layout>
								<audiochannel>
									<sourcechannel>1</sourcechannel>
									<channellabel>discrete</channellabel>
								</audiochannel>
							</audio>
							<audio>
								<samplecharacteristics>
									<samplerate>48000</samplerate>
									<depth>16</depth>
								</samplecharacteristics>
								<channelcount>1</channelcount>
								<layout>mono</layout>
								<audiochannel>
									<sourcechannel>2</sourcechannel>
									<channellabel>discrete</channellabel>
								</audiochannel>
							</audio>
						</media>
					</file>
					<sourcetrack>
						<mediatype>video</mediatype>
					</sourcetrack>
					<link>
						<linkclipref>AA1426_01 </linkclipref>
						<mediatype>video</mediatype>
						<trackindex>1</trackindex>
						<clipindex>101</clipindex>
					</link>
					<link>
						<linkclipref>AA1426_01 3</linkclipref>
						<mediatype>audio</mediatype>
						<trackindex>1</trackindex>
						<clipindex>63</clipindex>
					</link>
					<link>
						<linkclipref>AA1426_01 4</linkclipref>
						<mediatype>audio</mediatype>
						<trackindex>2</trackindex>
						<clipindex>58</clipindex>
					</link>
					<fielddominance>upper</fielddominance>
					<itemhistory>
						<uuid>68B9EAD8-5186-4735-BEED-E3F682EF7887</uuid>
					</itemhistory>
				</clipitem>
				<clipitem id="AA1430_01 ">
					<name>AA1430_01</name>
					<duration>576</duration>
					<rate>
						<ntsc>FALSE</ntsc>
						<timebase>25</timebase>
					</rate>
					<in>43</in>
					<out>150</out>
					<start>11081</start>
					<end>11188</end>
					<pixelaspectratio>Square</pixelaspectratio>
					<enabled>TRUE</enabled>
					<anamorphic>FALSE</anamorphic>
					<alphatype>none</alphatype>
					<masterclipid>AA1430_01 1</masterclipid>
					<logginginfo>
						<scene/>
						<shottake/>
						<lognote/>
						<good>FALSE</good>
					</logginginfo>
					<labels>
						<label2/>
					</labels>
					<comments>
						<mastercomment1/>
						<mastercomment2/>
						<mastercomment3/>
						<mastercomment4/>
					</comments>
					<file id="AA1430_01 2">
						<name>AA1430_01.mov</name>
						<pathurl>file://localhost/Volumes/Askepott/Prosjekter/DNPR637010_Kra%CC%8Akeklubben_TEM_011212/Video/MELLOMSTIKK/S01E%20Spor%20i%20sn%C3%B8en/Canon%20XF/AA1430_01.mov</pathurl>
						<rate>
							<timebase>25</timebase>
						</rate>
						<duration>864</duration>
						<metadata>
							<storage>QuickTime</storage>
							<key>com.apple.proapps.originalFormat</key>
							<size>14</size>
							<type>UTF8</type>
							<value>Canon XF MPEG2</value>
						</metadata>
						<metadata>
							<storage>QuickTime</storage>
							<key>com.apple.quicktime.creationdate</key>
							<size>24</size>
							<type>UTF8</type>
							<value>2012-02-22T12:26:35+0100</value>
						</metadata>
						<metadata>
							<storage>QuickTime</storage>
							<key>com.apple.proapps.isGood</key>
							<size>4</size>
							<type>unsigned</type>
							<value>0</value>
						</metadata>
						<metadata>
							<storage>QuickTime</storage>
							<key>com.apple.finalcutstudio.media.uuid</key>
							<size>36</size>
							<type>UTF8</type>
							<value>E568DCBF-7D48-4059-B91B-3EC0EDA7F5D2</value>
						</metadata>
						<metadata>
							<storage>QuickTime</storage>
							<key>com.apple.proapps.clipID</key>
							<size>36</size>
							<type>UTF8</type>
							<value>0A1F6DE6-7959-0580-0000-850001E01891</value>
						</metadata>
						<metadata>
							<storage>QuickTime</storage>
							<key>com.apple.proapps.reel</key>
							<size>8</size>
							<type>UTF8</type>
							<value>CANON XF</value>
						</metadata>
						<timecode>
							<rate>
								<timebase>25</timebase>
							</rate>
							<string>00:38:43:05</string>
							<frame>58080</frame>
							<displayformat>NDF</displayformat>
							<source>source</source>
							<reel>
								<name>CANON XF</name>
							</reel>
						</timecode>
						<media>
							<video>
								<duration>864</duration>
								<samplecharacteristics>
									<width>1920</width>
									<height>1080</height>
								</samplecharacteristics>
							</video>
							<audio>
								<samplecharacteristics>
									<samplerate>48000</samplerate>
									<depth>16</depth>
								</samplecharacteristics>
								<channelcount>1</channelcount>
								<layout>mono</layout>
								<audiochannel>
									<sourcechannel>1</sourcechannel>
									<channellabel>discrete</channellabel>
								</audiochannel>
							</audio>
							<audio>
								<samplecharacteristics>
									<samplerate>48000</samplerate>
									<depth>16</depth>
								</samplecharacteristics>
								<channelcount>1</channelcount>
								<layout>mono</layout>
								<audiochannel>
									<sourcechannel>2</sourcechannel>
									<channellabel>discrete</channellabel>
								</audiochannel>
							</audio>
						</media>
					</file>
					<filter>
						<effect>
							<name>Basic Motion</name>
							<effectid>basic</effectid>
							<effectcategory>motion</effectcategory>
							<effecttype>motion</effecttype>
							<mediatype>video</mediatype>
							<parameter>
								<parameterid>scale</parameterid>
								<name>Scale</name>
								<valuemin>0</valuemin>
								<valuemax>1000</valuemax>
								<value>100</value>
							</parameter>
							<parameter>
								<parameterid>rotation</parameterid>
								<name>Rotation</name>
								<valuemin>-8640</valuemin>
								<valuemax>8640</valuemax>
								<value>0</value>
							</parameter>
							<parameter>
								<parameterid>center</parameterid>
								<name>Center</name>
								<value>
									<horiz>0</horiz>
									<vert>0</vert>
								</value>
							</parameter>
							<parameter>
								<parameterid>centerOffset</parameterid>
								<name>Anchor Point</name>
								<value>
									<horiz>0</horiz>
									<vert>0</vert>
								</value>
							</parameter>
						</effect>
					</filter>
					<filter>
						<enabled>FALSE</enabled>
						<effect>
							<name>Drop Shadow</name>
							<effectid>dropshadow</effectid>
							<effectcategory>motion</effectcategory>
							<effecttype>motion</effecttype>
							<mediatype>video</mediatype>
							<parameter>
								<parameterid>offset</parameterid>
								<name>offset</name>
								<valuemin>-100</valuemin>
								<valuemax>100</valuemax>
								<value>2</value>
							</parameter>
							<parameter>
								<parameterid>angle</parameterid>
								<name>angle</name>
								<valuemin>-720</valuemin>
								<valuemax>720</valuemax>
								<value>135</value>
							</parameter>
							<parameter>
								<parameterid>color</parameterid>
								<name>color</name>
								<value>
									<alpha>0</alpha>
									<red>0</red>
									<green>0</green>
									<blue>0</blue>
								</value>
							</parameter>
							<parameter>
								<parameterid>softness</parameterid>
								<name>softness</name>
								<valuemin>0</valuemin>
								<valuemax>100</valuemax>
								<value>10</value>
							</parameter>
							<parameter>
								<parameterid>opacity</parameterid>
								<name>opacity</name>
								<valuemin>0</valuemin>
								<valuemax>100</valuemax>
								<value>50</value>
							</parameter>
						</effect>
					</filter>
					<filter>
						<enabled>FALSE</enabled>
						<effect>
							<name>Motion Blur</name>
							<effectid>motionblur</effectid>
							<effectcategory>motion</effectcategory>
							<effecttype>motion</effecttype>
							<mediatype>video</mediatype>
							<parameter>
								<parameterid>duration</parameterid>
								<name>% Blur</name>
								<valuemin>0</valuemin>
								<valuemax>1000</valuemax>
								<value>500</value>
							</parameter>
							<parameter>
								<parameterid>samples</parameterid>
								<name>Samples</name>
								<valuemin>1</valuemin>
								<valuemax>16</valuemax>
								<value>4</value>
							</parameter>
						</effect>
					</filter>
					<filter>
						<effect>
							<name>Crop</name>
							<effectid>crop</effectid>
							<effectcategory>motion</effectcategory>
							<effecttype>motion</effecttype>
							<mediatype>video</mediatype>
							<parameter>
								<parameterid>left</parameterid>
								<name>left</name>
								<valuemin>0</valuemin>
								<valuemax>100</valuemax>
								<value>0</value>
							</parameter>
							<parameter>
								<parameterid>right</parameterid>
								<name>right</name>
								<valuemin>0</valuemin>
								<valuemax>100</valuemax>
								<value>0</value>
							</parameter>
							<parameter>
								<parameterid>top</parameterid>
								<name>top</name>
								<valuemin>0</valuemin>
								<valuemax>100</valuemax>
								<value>0</value>
							</parameter>
							<parameter>
								<parameterid>bottom</parameterid>
								<name>bottom</name>
								<valuemin>0</valuemin>
								<valuemax>100</valuemax>
								<value>0</value>
							</parameter>
							<parameter>
								<parameterid>edgefeather</parameterid>
								<name>edgefeather</name>
								<valuemin>0</valuemin>
								<valuemax>100</valuemax>
								<value>0</value>
							</parameter>
						</effect>
					</filter>
					<filter>
						<effect>
							<name>Distort</name>
							<effectid>deformation</effectid>
							<effectcategory>motion</effectcategory>
							<effecttype>motion</effecttype>
							<mediatype>video</mediatype>
							<parameter>
								<parameterid>ulcorner</parameterid>
								<name>Upper Left</name>
								<value>
									<horiz>-0.5</horiz>
									<vert>-0.5</vert>
								</value>
							</parameter>
							<parameter>
								<parameterid>urcorner</parameterid>
								<name>Upper Right</name>
								<value>
									<horiz>0.5</horiz>
									<vert>-0.5</vert>
								</value>
							</parameter>
							<parameter>
								<parameterid>lrcorner</parameterid>
								<name>Lower Right</name>
								<value>
									<horiz>0.5</horiz>
									<vert>0.5</vert>
								</value>
							</parameter>
							<parameter>
								<parameterid>llcorner</parameterid>
								<name>Lower Left</name>
								<value>
									<horiz>-0.5</horiz>
									<vert>0.5</vert>
								</value>
							</parameter>
							<parameter>
								<parameterid>aspect</parameterid>
								<name>Aspect</name>
								<valuemin>-10000</valuemin>
								<valuemax>10000</valuemax>
								<value>0</value>
							</parameter>
						</effect>
					</filter>
					<filter>
						<effect>
							<name>Opacity</name>
							<effectid>opacity</effectid>
							<effectcategory>motion</effectcategory>
							<effecttype>motion</effecttype>
							<mediatype>video</mediatype>
							<parameter>
								<parameterid>opacity</parameterid>
								<name>opacity</name>
								<valuemin>0</valuemin>
								<valuemax>100</valuemax>
								<value>100</value>
							</parameter>
						</effect>
					</filter>
					<sourcetrack>
						<mediatype>video</mediatype>
					</sourcetrack>
					<fielddominance>upper</fielddominance>
					<itemhistory>
						<uuid>049D845A-070A-43DF-9A7C-81DAD1CAB230</uuid>
					</itemhistory>
					<filter>
						<effect>
							<name>Time Remap</name>
							<effectid>timeremap</effectid>
							<effectcategory>motion</effectcategory>
							<effecttype>motion</effecttype>
							<mediatype>video</mediatype>
							<parameter>
								<parameterid>variablespeed</parameterid>
								<name>variablespeed</name>
								<valuemin>0</valuemin>
								<valuemax>1</valuemax>
								<value>0</value>
							</parameter>
							<parameter>
								<parameterid>mappedduration</parameterid>
								<name>mappedduration</name>
								<value>
									<timecode>
										<rate>
											<timebase>0</timebase>
										</rate>
										<string>0</string>
										<frame>0</frame>
										<displayformat>NDF</displayformat>
									</timecode>
								</value>
							</parameter>
							<parameter>
								<parameterid>speed</parameterid>
								<name>speed</name>
								<valuemin>-10000</valuemin>
								<valuemax>10000</valuemax>
								<value>150</value>
							</parameter>
							<parameter>
								<parameterid>reverse</parameterid>
								<name>reverse</name>
								<value>FALSE</value>
							</parameter>
							<parameter>
								<parameterid>frameblending</parameterid>
								<name>frameblending</name>
								<value>TRUE</value>
							</parameter>
							<parameter>
								<parameterid>graphdict</parameterid>
								<name>graphdict</name>
								<valuemin>0</valuemin>
								<valuemax>863</valuemax>
								<keyframe>
									<when>0</when>
									<value>0.4626</value>
									<speedkfstart>TRUE</speedkfstart>
									<speedvirtualkf>TRUE</speedvirtualkf>
									<anchorOffset>0.4626</anchorOffset>
								</keyframe>
								<keyframe>
									<when>43</when>
									<value>65</value>
									<speedkfin>TRUE</speedkfin>
									<speedvirtualkf>TRUE</speedvirtualkf>
								</keyframe>
								<keyframe>
									<when>150</when>
									<value>225.593</value>
									<speedkfout>TRUE</speedkfout>
									<speedvirtualkf>TRUE</speedvirtualkf>
								</keyframe>
								<keyframe>
									<when>576</when>
									<value>864.463</value>
									<speedkfend>TRUE</speedkfend>
									<speedvirtualkf>TRUE</speedvirtualkf>
								</keyframe>
								<interpolation>
									<name>FCPCurve</name>
								</interpolation>
								<value>65</value>
							</parameter>
						</effect>
					</filter>
				</clipitem>
				<clipitem id="AA1429_01 ">
					<name>AA1429_01</name>
					<duration>648</duration>
					<rate>
						<ntsc>FALSE</ntsc>
						<timebase>25</timebase>
					</rate>
					<in>228</in>
					<out>322</out>
					<start>11188</start>
					<end>11282</end>
					<pixelaspectratio>Square</pixelaspectratio>
					<enabled>TRUE</enabled>
					<anamorphic>FALSE</anamorphic>
					<alphatype>none</alphatype>
					<masterclipid>AA1429_01 1</masterclipid>
					<logginginfo>
						<scene/>
						<shottake/>
						<lognote/>
						<good>FALSE</good>
					</logginginfo>
					<labels>
						<label2/>
					</labels>
					<comments>
						<mastercomment1/>
						<mastercomment2/>
						<mastercomment3/>
						<mastercomment4/>
					</comments>
					<file id="AA1429_01 2">
						<name>AA1429_01.mov</name>
						<pathurl>file://localhost/Volumes/Askepott/Prosjekter/DNPR637010_Kra%CC%8Akeklubben_TEM_011212/Video/MELLOMSTIKK/S01E%20Spor%20i%20sn%C3%B8en/Canon%20XF/AA1429_01.mov</pathurl>
						<rate>
							<timebase>25</timebase>
						</rate>
						<duration>648</duration>
						<metadata>
							<storage>QuickTime</storage>
							<key>com.apple.proapps.originalFormat</key>
							<size>14</size>
							<type>UTF8</type>
							<value>Canon XF MPEG2</value>
						</metadata>
						<metadata>
							<storage>QuickTime</storage>
							<key>com.apple.quicktime.creationdate</key>
							<size>24</size>
							<type>UTF8</type>
							<value>2012-02-22T12:25:26+0100</value>
						</metadata>
						<metadata>
							<storage>QuickTime</storage>
							<key>com.apple.proapps.isGood</key>
							<size>4</size>
							<type>unsigned</type>
							<value>0</value>
						</metadata>
						<metadata>
							<storage>QuickTime</storage>
							<key>com.apple.finalcutstudio.media.uuid</key>
							<size>36</size>
							<type>UTF8</type>
							<value>6C74C504-86AE-47F8-B328-65813228AAF3</value>
						</metadata>
						<metadata>
							<storage>QuickTime</storage>
							<key>com.apple.proapps.clipID</key>
							<size>36</size>
							<type>UTF8</type>
							<value>0A1F606C-7959-0580-0000-850001E01891</value>
						</metadata>
						<metadata>
							<storage>QuickTime</storage>
							<key>com.apple.proapps.reel</key>
							<size>8</size>
							<type>UTF8</type>
							<value>CANON XF</value>
						</metadata>
						<timecode>
							<rate>
								<timebase>25</timebase>
							</rate>
							<string>00:38:17:07</string>
							<frame>57432</frame>
							<displayformat>NDF</displayformat>
							<source>source</source>
							<reel>
								<name>CANON XF</name>
							</reel>
						</timecode>
						<media>
							<video>
								<duration>648</duration>
								<samplecharacteristics>
									<width>1920</width>
									<height>1080</height>
								</samplecharacteristics>
							</video>
							<audio>
								<samplecharacteristics>
									<samplerate>48000</samplerate>
									<depth>16</depth>
								</samplecharacteristics>
								<channelcount>1</channelcount>
								<layout>mono</layout>
								<audiochannel>
									<sourcechannel>1</sourcechannel>
									<channellabel>discrete</channellabel>
								</audiochannel>
							</audio>
							<audio>
								<samplecharacteristics>
									<samplerate>48000</samplerate>
									<depth>16</depth>
								</samplecharacteristics>
								<channelcount>1</channelcount>
								<layout>mono</layout>
								<audiochannel>
									<sourcechannel>2</sourcechannel>
									<channellabel>discrete</channellabel>
								</audiochannel>
							</audio>
						</media>
					</file>
					<sourcetrack>
						<mediatype>video</mediatype>
					</sourcetrack>
					<link>
						<linkclipref>AA1429_01 </linkclipref>
						<mediatype>video</mediatype>
						<trackindex>1</trackindex>
						<clipindex>103</clipindex>
					</link>
					<link>
						<linkclipref>AA1429_01 3</linkclipref>
						<mediatype>audio</mediatype>
						<trackindex>1</trackindex>
						<clipindex>64</clipindex>
					</link>
					<link>
						<linkclipref>AA1429_01 4</linkclipref>
						<mediatype>audio</mediatype>
						<trackindex>2</trackindex>
						<clipindex>59</clipindex>
					</link>
					<fielddominance>upper</fielddominance>
					<itemhistory>
						<uuid>1771CFA9-1832-42AB-8086-27100954A339</uuid>
					</itemhistory>
				</clipitem>
				<clipitem id="AA1432_01 ">
					<name>AA1432_01</name>
					<duration>408</duration>
					<rate>
						<ntsc>FALSE</ntsc>
						<timebase>25</timebase>
					</rate>
					<in>80</in>
					<out>347</out>
					<start>11282</start>
					<end>11549</end>
					<pixelaspectratio>Square</pixelaspectratio>
					<enabled>TRUE</enabled>
					<anamorphic>FALSE</anamorphic>
					<alphatype>none</alphatype>
					<masterclipid>AA1432_01 1</masterclipid>
					<logginginfo>
						<scene/>
						<shottake/>
						<lognote/>
						<good>FALSE</good>
					</logginginfo>
					<labels>
						<label2/>
					</labels>
					<comments>
						<mastercomment1/>
						<mastercomment2/>
						<mastercomment3/>
						<mastercomment4/>
					</comments>
					<file id="AA1432_01 2">
						<name>AA1432_01.mov</name>
						<pathurl>file://localhost/Volumes/Askepott/Prosjekter/DNPR637010_Kra%CC%8Akeklubben_TEM_011212/Video/MELLOMSTIKK/S01E%20Spor%20i%20sn%C3%B8en/Canon%20XF/AA1432_01.mov</pathurl>
						<rate>
							<timebase>25</timebase>
						</rate>
						<duration>408</duration>
						<metadata>
							<storage>QuickTime</storage>
							<key>com.apple.proapps.originalFormat</key>
							<size>14</size>
							<type>UTF8</type>
							<value>Canon XF MPEG2</value>
						</metadata>
						<metadata>
							<storage>QuickTime</storage>
							<key>com.apple.quicktime.creationdate</key>
							<size>24</size>
							<type>UTF8</type>
							<value>2012-02-22T12:29:14+0100</value>
						</metadata>
						<metadata>
							<storage>QuickTime</storage>
							<key>com.apple.proapps.isGood</key>
							<size>4</size>
							<type>unsigned</type>
							<value>0</value>
						</metadata>
						<metadata>
							<storage>QuickTime</storage>
							<key>com.apple.finalcutstudio.media.uuid</key>
							<size>36</size>
							<type>UTF8</type>
							<value>438CB0B3-A8BC-4F3A-8F8B-BB6808FBFFC8</value>
						</metadata>
						<metadata>
							<storage>QuickTime</storage>
							<key>com.apple.proapps.clipID</key>
							<size>36</size>
							<type>UTF8</type>
							<value>0A1F8CF4-7959-0580-0000-850001E01891</value>
						</metadata>
						<metadata>
							<storage>QuickTime</storage>
							<key>com.apple.proapps.reel</key>
							<size>8</size>
							<type>UTF8</type>
							<value>CANON XF</value>
						</metadata>
						<timecode>
							<rate>
								<timebase>25</timebase>
							</rate>
							<string>00:39:37:23</string>
							<frame>59448</frame>
							<displayformat>NDF</displayformat>
							<source>source</source>
							<reel>
								<name>CANON XF</name>
							</reel>
						</timecode>
						<media>
							<video>
								<duration>408</duration>
								<samplecharacteristics>
									<width>1920</width>
									<height>1080</height>
								</samplecharacteristics>
							</video>
							<audio>
								<samplecharacteristics>
									<samplerate>48000</samplerate>
									<depth>16</depth>
								</samplecharacteristics>
								<channelcount>1</channelcount>
								<layout>mono</layout>
								<audiochannel>
									<sourcechannel>1</sourcechannel>
									<channellabel>discrete</channellabel>
								</audiochannel>
							</audio>
							<audio>
								<samplecharacteristics>
									<samplerate>48000</samplerate>
									<depth>16</depth>
								</samplecharacteristics>
								<channelcount>1</channelcount>
								<layout>mono</layout>
								<audiochannel>
									<sourcechannel>2</sourcechannel>
									<channellabel>discrete</channellabel>
								</audiochannel>
							</audio>
						</media>
					</file>
					<sourcetrack>
						<mediatype>video</mediatype>
					</sourcetrack>
					<link>
						<linkclipref>AA1432_01 </linkclipref>
						<mediatype>video</mediatype>
						<trackindex>1</trackindex>
						<clipindex>104</clipindex>
					</link>
					<link>
						<linkclipref>AA1432_01 3</linkclipref>
						<mediatype>audio</mediatype>
						<trackindex>1</trackindex>
						<clipindex>65</clipindex>
					</link>
					<link>
						<linkclipref>AA1432_01 4</linkclipref>
						<mediatype>audio</mediatype>
						<trackindex>2</trackindex>
						<clipindex>60</clipindex>
					</link>
					<fielddominance>upper</fielddominance>
					<itemhistory>
						<uuid>63BEEBD0-41B6-4BB1-8EDA-F191E5E2050C</uuid>
					</itemhistory>
				</clipitem>
				<clipitem id="AA1427_01 ">
					<name>AA1427_01</name>
					<duration>408</duration>
					<rate>
						<ntsc>FALSE</ntsc>
						<timebase>25</timebase>
					</rate>
					<in>182</in>
					<out>274</out>
					<start>11549</start>
					<end>11641</end>
					<pixelaspectratio>Square</pixelaspectratio>
					<enabled>TRUE</enabled>
					<anamorphic>FALSE</anamorphic>
					<alphatype>none</alphatype>
					<masterclipid>AA1427_01 1</masterclipid>
					<logginginfo>
						<scene/>
						<shottake/>
						<lognote/>
						<good>FALSE</good>
					</logginginfo>
					<labels>
						<label2/>
					</labels>
					<comments>
						<mastercomment1/>
						<mastercomment2/>
						<mastercomment3/>
						<mastercomment4/>
					</comments>
					<file id="AA1427_01 2">
						<name>AA1427_01.mov</name>
						<pathurl>file://localhost/Volumes/Askepott/Prosjekter/DNPR637010_Kra%CC%8Akeklubben_TEM_011212/Video/MELLOMSTIKK/S01E%20Spor%20i%20sn%C3%B8en/Canon%20XF/AA1427_01.mov</pathurl>
						<rate>
							<timebase>25</timebase>
						</rate>
						<duration>408</duration>
						<metadata>
							<storage>QuickTime</storage>
							<key>com.apple.proapps.originalFormat</key>
							<size>14</size>
							<type>UTF8</type>
							<value>Canon XF MPEG2</value>
						</metadata>
						<metadata>
							<storage>QuickTime</storage>
							<key>com.apple.quicktime.creationdate</key>
							<size>24</size>
							<type>UTF8</type>
							<value>2012-02-22T12:23:25+0100</value>
						</metadata>
						<metadata>
							<storage>QuickTime</storage>
							<key>com.apple.proapps.isGood</key>
							<size>4</size>
							<type>unsigned</type>
							<value>0</value>
						</metadata>
						<metadata>
							<storage>QuickTime</storage>
							<key>com.apple.finalcutstudio.media.uuid</key>
							<size>36</size>
							<type>UTF8</type>
							<value>33825D9C-90A3-4112-8FB4-2929035644BE</value>
						</metadata>
						<metadata>
							<storage>QuickTime</storage>
							<key>com.apple.proapps.clipID</key>
							<size>36</size>
							<type>UTF8</type>
							<value>0A1F48CA-7959-0580-0000-850001E01891</value>
						</metadata>
						<metadata>
							<storage>QuickTime</storage>
							<key>com.apple.proapps.reel</key>
							<size>8</size>
							<type>UTF8</type>
							<value>CANON XF</value>
						</metadata>
						<timecode>
							<rate>
								<timebase>25</timebase>
							</rate>
							<string>00:37:22:02</string>
							<frame>56052</frame>
							<displayformat>NDF</displayformat>
							<source>source</source>
							<reel>
								<name>CANON XF</name>
							</reel>
						</timecode>
						<media>
							<video>
								<duration>408</duration>
								<samplecharacteristics>
									<width>1920</width>
									<height>1080</height>
								</samplecharacteristics>
							</video>
							<audio>
								<samplecharacteristics>
									<samplerate>48000</samplerate>
									<depth>16</depth>
								</samplecharacteristics>
								<channelcount>1</channelcount>
								<layout>mono</layout>
								<audiochannel>
									<sourcechannel>1</sourcechannel>
									<channellabel>discrete</channellabel>
								</audiochannel>
							</audio>
							<audio>
								<samplecharacteristics>
									<samplerate>48000</samplerate>
									<depth>16</depth>
								</samplecharacteristics>
								<channelcount>1</channelcount>
								<layout>mono</layout>
								<audiochannel>
									<sourcechannel>2</sourcechannel>
									<channellabel>discrete</channellabel>
								</audiochannel>
							</audio>
						</media>
					</file>
					<sourcetrack>
						<mediatype>video</mediatype>
					</sourcetrack>
					<link>
						<linkclipref>AA1427_01 </linkclipref>
						<mediatype>video</mediatype>
						<trackindex>1</trackindex>
						<clipindex>105</clipindex>
					</link>
					<link>
						<linkclipref>AA1427_01 3</linkclipref>
						<mediatype>audio</mediatype>
						<trackindex>1</trackindex>
						<clipindex>66</clipindex>
					</link>
					<link>
						<linkclipref>AA1427_01 4</linkclipref>
						<mediatype>audio</mediatype>
						<trackindex>2</trackindex>
						<clipindex>61</clipindex>
					</link>
					<fielddominance>upper</fielddominance>
					<itemhistory>
						<uuid>D476BDE1-8924-4BAD-8291-7613C5E39023</uuid>
					</itemhistory>
				</clipitem>
				<clipitem id="Clip1ATK91 8">
					<name>Clip1ATK91</name>
					<duration>548</duration>
					<rate>
						<ntsc>FALSE</ntsc>
						<timebase>25</timebase>
					</rate>
					<in>418</in>
					<out>490</out>
					<start>11641</start>
					<end>11713</end>
					<pixelaspectratio>Square</pixelaspectratio>
					<enabled>TRUE</enabled>
					<anamorphic>FALSE</anamorphic>
					<alphatype>none</alphatype>
					<masterclipid>Clip1ATK91 1</masterclipid>
					<logginginfo>
						<scene/>
						<shottake/>
						<lognote/>
						<good>FALSE</good>
					</logginginfo>
					<labels>
						<label2/>
					</labels>
					<comments>
						<mastercomment1/>
						<mastercomment2/>
						<mastercomment3/>
						<mastercomment4/>
					</comments>
					<file id="Clip1ATK91 2"/>
					<filter>
						<start>-1</start>
						<end>-1</end>
						<effect>
							<name>Flop</name>
							<effectid>Flop</effectid>
							<effectcategory>Perspective</effectcategory>
							<effecttype>filter</effecttype>
							<mediatype>video</mediatype>
							<parameter>
								<parameterid>flop</parameterid>
								<name>Flop</name>
								<valuemin>1</valuemin>
								<valuemax>3</valuemax>
								<valuelist>
									<valueentry>
										<name>Horizontal</name>
										<value>1</value>
									</valueentry>
									<valueentry>
										<name>Vertical</name>
										<value>2</value>
									</valueentry>
									<valueentry>
										<name>Both</name>
										<value>3</value>
									</valueentry>
								</valuelist>
								<value>1</value>
							</parameter>
						</effect>
					</filter>
					<sourcetrack>
						<mediatype>video</mediatype>
					</sourcetrack>
					<fielddominance>upper</fielddominance>
					<itemhistory>
						<uuid>CF36F909-23EB-4016-A3D6-EAA96BF420DC</uuid>
					</itemhistory>
				</clipitem>
				<clipitem id="AA1435_01 ">
					<name>AA1435_01</name>
					<duration>3048</duration>
					<rate>
						<ntsc>FALSE</ntsc>
						<timebase>25</timebase>
					</rate>
					<in>194</in>
					<out>224</out>
					<start>11713</start>
					<end>11743</end>
					<pixelaspectratio>Square</pixelaspectratio>
					<enabled>TRUE</enabled>
					<anamorphic>FALSE</anamorphic>
					<alphatype>none</alphatype>
					<masterclipid>AA1435_01 1</masterclipid>
					<logginginfo>
						<scene/>
						<shottake/>
						<lognote/>
						<good>FALSE</good>
					</logginginfo>
					<labels>
						<label2/>
					</labels>
					<comments>
						<mastercomment1/>
						<mastercomment2/>
						<mastercomment3/>
						<mastercomment4/>
					</comments>
					<file id="AA1435_01 2">
						<name>AA1435_01.mov</name>
						<pathurl>file://localhost/Volumes/Askepott/Prosjekter/DNPR637010_Kra%CC%8Akeklubben_TEM_011212/Video/MELLOMSTIKK/S01E%20Spor%20i%20sn%C3%B8en/Canon%20XF/AA1435_01.mov</pathurl>
						<rate>
							<timebase>25</timebase>
						</rate>
						<duration>3048</duration>
						<metadata>
							<storage>QuickTime</storage>
							<key>com.apple.proapps.originalFormat</key>
							<size>14</size>
							<type>UTF8</type>
							<value>Canon XF MPEG2</value>
						</metadata>
						<metadata>
							<storage>QuickTime</storage>
							<key>com.apple.quicktime.creationdate</key>
							<size>24</size>
							<type>UTF8</type>
							<value>2012-02-22T12:50:00+0100</value>
						</metadata>
						<metadata>
							<storage>QuickTime</storage>
							<key>com.apple.proapps.isGood</key>
							<size>4</size>
							<type>unsigned</type>
							<value>0</value>
						</metadata>
						<metadata>
							<storage>QuickTime</storage>
							<key>com.apple.finalcutstudio.media.uuid</key>
							<size>36</size>
							<type>UTF8</type>
							<value>CC7C6382-BFD0-4E8A-83DB-539723A2F565</value>
						</metadata>
						<metadata>
							<storage>QuickTime</storage>
							<key>com.apple.proapps.clipID</key>
							<size>36</size>
							<type>UTF8</type>
							<value>0A208050-7959-0580-0000-850001E01891</value>
						</metadata>
						<metadata>
							<storage>QuickTime</storage>
							<key>com.apple.proapps.reel</key>
							<size>8</size>
							<type>UTF8</type>
							<value>CANON XF</value>
						</metadata>
						<timecode>
							<rate>
								<timebase>25</timebase>
							</rate>
							<string>00:40:54:18</string>
							<frame>61368</frame>
							<displayformat>NDF</displayformat>
							<source>source</source>
							<reel>
								<name>CANON XF</name>
							</reel>
						</timecode>
						<media>
							<video>
								<duration>3048</duration>
								<samplecharacteristics>
									<width>1920</width>
									<height>1080</height>
								</samplecharacteristics>
							</video>
							<audio>
								<samplecharacteristics>
									<samplerate>48000</samplerate>
									<depth>16</depth>
								</samplecharacteristics>
								<channelcount>1</channelcount>
								<layout>mono</layout>
								<audiochannel>
									<sourcechannel>1</sourcechannel>
									<channellabel>discrete</channellabel>
								</audiochannel>
							</audio>
							<audio>
								<samplecharacteristics>
									<samplerate>48000</samplerate>
									<depth>16</depth>
								</samplecharacteristics>
								<channelcount>1</channelcount>
								<layout>mono</layout>
								<audiochannel>
									<sourcechannel>2</sourcechannel>
									<channellabel>discrete</channellabel>
								</audiochannel>
							</audio>
						</media>
					</file>
					<sourcetrack>
						<mediatype>video</mediatype>
					</sourcetrack>
					<link>
						<linkclipref>AA1435_01 </linkclipref>
						<mediatype>video</mediatype>
						<trackindex>1</trackindex>
						<clipindex>107</clipindex>
					</link>
					<link>
						<linkclipref>AA1435_01 3</linkclipref>
						<mediatype>audio</mediatype>
						<trackindex>1</trackindex>
						<clipindex>67</clipindex>
					</link>
					<link>
						<linkclipref>AA1435_01 4</linkclipref>
						<mediatype>audio</mediatype>
						<trackindex>2</trackindex>
						<clipindex>62</clipindex>
					</link>
					<fielddominance>upper</fielddominance>
					<itemhistory>
						<uuid>180E6B7A-7F66-48DF-9FAB-322BD2D89C01</uuid>
					</itemhistory>
				</clipitem>
				<clipitem id="AA1435_01 5">
					<name>AA1435_01</name>
					<duration>3048</duration>
					<rate>
						<ntsc>FALSE</ntsc>
						<timebase>25</timebase>
					</rate>
					<in>224</in>
					<out>245</out>
					<start>11743</start>
					<end>11764</end>
					<pixelaspectratio>Square</pixelaspectratio>
					<enabled>TRUE</enabled>
					<anamorphic>FALSE</anamorphic>
					<alphatype>none</alphatype>
					<masterclipid>AA1435_01 1</masterclipid>
					<logginginfo>
						<scene/>
						<shottake/>
						<lognote/>
						<good>FALSE</good>
					</logginginfo>
					<labels>
						<label2/>
					</labels>
					<comments>
						<mastercomment1/>
						<mastercomment2/>
						<mastercomment3/>
						<mastercomment4/>
					</comments>
					<file id="AA1435_01 2"/>
					<filter>
						<enabled>TRUE</enabled>
						<start>-1</start>
						<end>-1</end>
						<effect>
							<name>Twixtor FxPlug</name>
							<effectid>FxPlugWrapper:B3134303_3C75_40AE_B82F_F0A6EAB802E2</effectid>
							<effectclass>FxPlug</effectclass>
							<effecttype>filter</effecttype>
							<mediatype>video</mediatype>
							<parameter>
								<parameterid>input_1</parameterid>
								<name>Display</name>
								<valuelist>
									<valueentry>
										<name>Twixtored Output</name>
										<value>1</value>
									</valueentry>
									<valueentry>
										<name>Source</name>
										<value>2</value>
									</valueentry>
									<valueentry>
										<name>Alt Track Source</name>
										<value>3</value>
									</valueentry>
								</valuelist>
								<value>1</value>
							</parameter>
							<parameter>
								<parameterid>group_2</parameterid>
								<name>Source Control</name>
								<value>Source Control</value>
							</parameter>
							<parameter>
								<parameterid>input_3</parameterid>
								<name>Alt Track Source</name>
							</parameter>
							<parameter>
								<parameterid>input_4</parameterid>
								<name>Mark Segments</name>
								<valuemin>1</valuemin>
								<valuemax>2</valuemax>
								<value>1</value>
							</parameter>
							<parameter>
								<parameterid>group_5</parameterid>
								<name>Track Control</name>
								<value>Track Control</value>
							</parameter>
							<parameter>
								<parameterid>input_6</parameterid>
								<name>Motion Vectors</name>
								<valuelist>
									<valueentry>
										<name>No Motion Vectors</name>
										<value>1</value>
									</valueentry>
									<valueentry>
										<name>Sloppy</name>
										<value>2</value>
									</valueentry>
									<valueentry>
										<name>Medium</name>
										<value>3</value>
									</valueentry>
									<valueentry>
										<name>High</name>
										<value>4</value>
									</valueentry>
									<valueentry>
										<name>Best</name>
										<value>5</value>
									</valueentry>
								</valuelist>
								<value>5</value>
							</parameter>
							<parameter>
								<parameterid>input_7</parameterid>
								<name>Image Prep</name>
								<valuelist>
									<valueentry>
										<name>None</name>
										<value>1</value>
									</valueentry>
									<valueentry>
										<name>Contrast/Edge Enhance</name>
										<value>2</value>
									</valueentry>
								</valuelist>
								<value>1</value>
							</parameter>
							<parameter>
								<parameterid>input_8</parameterid>
								<name>Motion Sensitivity</name>
								<valuemin>0</valuemin>
								<valuemax>100</valuemax>
								<value>80</value>
							</parameter>
							<parameter>
								<parameterid>group_9</parameterid>
								<name>Output Control</name>
								<value>Output Control</value>
							</parameter>
							<parameter>
								<parameterid>input_10</parameterid>
								<name>Time Remap Mode</name>
								<valuelist>
									<valueentry>
										<name>Speed</name>
										<value>1</value>
									</valueentry>
									<valueentry>
										<name>Frame Number</name>
										<value>2</value>
									</valueentry>
								</valuelist>
								<value>1</value>
							</parameter>
							<parameter>
								<parameterid>input_11</parameterid>
								<name>Speed %</name>
								<valuemin>-10000</valuemin>
								<valuemax>10000</valuemax>
								<value>60</value>
							</parameter>
							<parameter>
								<parameterid>input_12</parameterid>
								<name>Frame Num</name>
								<valuemin>0</valuemin>
								<valuemax>30000</valuemax>
								<value>0</value>
							</parameter>
							<parameter>
								<parameterid>input_13</parameterid>
								<name>Frame Interp</name>
								<valuelist>
									<valueentry>
										<name>Nearest</name>
										<value>1</value>
									</valueentry>
									<valueentry>
										<name>Blend</name>
										<value>2</value>
									</valueentry>
									<valueentry>
										<name>Motion Weighted Blend</name>
										<value>3</value>
									</valueentry>
								</valuelist>
								<value>2</value>
							</parameter>
							<parameter>
								<parameterid>input_14</parameterid>
								<name>Smart Blend</name>
								<value>FALSE</value>
							</parameter>
							<parameter>
								<parameterid>input_15</parameterid>
								<name>Motion Blur Compensation</name>
								<valuemin>0</valuemin>
								<valuemax>10</valuemax>
								<value>0</value>
							</parameter>
							<parameter>
								<parameterid>endGroup_9</parameterid>
								<name/>
								<value/>
							</parameter>
							<parameter>
								<parameterid>input_16</parameterid>
								<name>Registered to</name>
								<value>4Hans Ludvig Andreassen</value>
							</parameter>
							<parameter>
								<parameterid>FCP_FilterMix</parameterid>
								<name>Mix</name>
								<valuemin>0</valuemin>
								<valuemax>100</valuemax>
								<value>100</value>
							</parameter>
						</effect>
					</filter>
					<sourcetrack>
						<mediatype>video</mediatype>
					</sourcetrack>
					<fielddominance>upper</fielddominance>
					<itemhistory>
						<uuid>28CE91F8-B0FB-4D4E-BF83-B0EF695B9FBB</uuid>
					</itemhistory>
				</clipitem>
				<clipitem id="AA1435_01 6">
					<name>AA1435_01</name>
					<duration>3048</duration>
					<rate>
						<ntsc>FALSE</ntsc>
						<timebase>25</timebase>
					</rate>
					<in>237</in>
					<out>489</out>
					<start>11764</start>
					<end>12016</end>
					<pixelaspectratio>Square</pixelaspectratio>
					<enabled>TRUE</enabled>
					<anamorphic>FALSE</anamorphic>
					<alphatype>none</alphatype>
					<masterclipid>AA1435_01 1</masterclipid>
					<logginginfo>
						<scene/>
						<shottake/>
						<lognote/>
						<good>FALSE</good>
					</logginginfo>
					<labels>
						<label2/>
					</labels>
					<comments>
						<mastercomment1/>
						<mastercomment2/>
						<mastercomment3/>
						<mastercomment4/>
					</comments>
					<file id="AA1435_01 2"/>
					<sourcetrack>
						<mediatype>video</mediatype>
					</sourcetrack>
					<link>
						<linkclipref>AA1435_01 6</linkclipref>
						<mediatype>video</mediatype>
						<trackindex>1</trackindex>
						<clipindex>109</clipindex>
					</link>
					<link>
						<linkclipref>AA1435_01 7</linkclipref>
						<mediatype>audio</mediatype>
						<trackindex>1</trackindex>
						<clipindex>68</clipindex>
					</link>
					<link>
						<linkclipref>AA1435_01 8</linkclipref>
						<mediatype>audio</mediatype>
						<trackindex>2</trackindex>
						<clipindex>63</clipindex>
					</link>
					<fielddominance>upper</fielddominance>
					<itemhistory>
						<uuid>9F0DB948-A294-45BC-99BE-0BD8064CEF27</uuid>
					</itemhistory>
				</clipitem>
				<clipitem id="AA1437_01 ">
					<name>AA1437_01</name>
					<duration>2808</duration>
					<rate>
						<ntsc>FALSE</ntsc>
						<timebase>25</timebase>
					</rate>
					<in>264</in>
					<out>310</out>
					<start>12016</start>
					<end>12062</end>
					<pixelaspectratio>Square</pixelaspectratio>
					<enabled>TRUE</enabled>
					<anamorphic>FALSE</anamorphic>
					<alphatype>none</alphatype>
					<masterclipid>AA1437_01 1</masterclipid>
					<logginginfo>
						<scene/>
						<shottake/>
						<lognote/>
						<good>FALSE</good>
					</logginginfo>
					<labels>
						<label2/>
					</labels>
					<comments>
						<mastercomment1/>
						<mastercomment2/>
						<mastercomment3/>
						<mastercomment4/>
					</comments>
					<file id="AA1437_01 2">
						<name>AA1437_01.mov</name>
						<pathurl>file://localhost/Volumes/Askepott/Prosjekter/DNPR637010_Kra%CC%8Akeklubben_TEM_011212/Video/MELLOMSTIKK/S01E%20Spor%20i%20sn%C3%B8en/Canon%20XF/AA1437_01.mov</pathurl>
						<rate>
							<timebase>25</timebase>
						</rate>
						<duration>2808</duration>
						<metadata>
							<storage>QuickTime</storage>
							<key>com.apple.proapps.originalFormat</key>
							<size>14</size>
							<type>UTF8</type>
							<value>Canon XF MPEG2</value>
						</metadata>
						<metadata>
							<storage>QuickTime</storage>
							<key>com.apple.quicktime.creationdate</key>
							<size>24</size>
							<type>UTF8</type>
							<value>2012-02-22T13:02:55+0100</value>
						</metadata>
						<metadata>
							<storage>QuickTime</storage>
							<key>com.apple.proapps.isGood</key>
							<size>4</size>
							<type>unsigned</type>
							<value>0</value>
						</metadata>
						<metadata>
							<storage>QuickTime</storage>
							<key>com.apple.finalcutstudio.media.uuid</key>
							<size>36</size>
							<type>UTF8</type>
							<value>AD25F3E4-293A-439D-B58F-C398FECDBB9C</value>
						</metadata>
						<metadata>
							<storage>QuickTime</storage>
							<key>com.apple.proapps.clipID</key>
							<size>36</size>
							<type>UTF8</type>
							<value>0A2117AE-7959-0580-0000-850001E01891</value>
						</metadata>
						<metadata>
							<storage>QuickTime</storage>
							<key>com.apple.proapps.reel</key>
							<size>8</size>
							<type>UTF8</type>
							<value>CANON XF</value>
						</metadata>
						<timecode>
							<rate>
								<timebase>25</timebase>
							</rate>
							<string>00:44:37:23</string>
							<frame>66948</frame>
							<displayformat>NDF</displayformat>
							<source>source</source>
							<reel>
								<name>CANON XF</name>
							</reel>
						</timecode>
						<media>
							<video>
								<duration>2808</duration>
								<samplecharacteristics>
									<width>1920</width>
									<height>1080</height>
								</samplecharacteristics>
							</video>
							<audio>
								<samplecharacteristics>
									<samplerate>48000</samplerate>
									<depth>16</depth>
								</samplecharacteristics>
								<channelcount>1</channelcount>
								<layout>mono</layout>
								<audiochannel>
									<sourcechannel>1</sourcechannel>
									<channellabel>discrete</channellabel>
								</audiochannel>
							</audio>
							<audio>
								<samplecharacteristics>
									<samplerate>48000</samplerate>
									<depth>16</depth>
								</samplecharacteristics>
								<channelcount>1</channelcount>
								<layout>mono</layout>
								<audiochannel>
									<sourcechannel>2</sourcechannel>
									<channellabel>discrete</channellabel>
								</audiochannel>
							</audio>
						</media>
					</file>
					<sourcetrack>
						<mediatype>video</mediatype>
					</sourcetrack>
					<fielddominance>upper</fielddominance>
					<itemhistory>
						<uuid>9C4EDC54-29A8-4E25-B91E-72B4C63E7520</uuid>
					</itemhistory>
				</clipitem>
				<clipitem id="AA1435_01 9">
					<name>AA1435_01</name>
					<duration>3048</duration>
					<rate>
						<ntsc>FALSE</ntsc>
						<timebase>25</timebase>
					</rate>
					<in>537</in>
					<out>615</out>
					<start>12062</start>
					<end>12140</end>
					<pixelaspectratio>Square</pixelaspectratio>
					<enabled>TRUE</enabled>
					<anamorphic>FALSE</anamorphic>
					<alphatype>none</alphatype>
					<masterclipid>AA1435_01 1</masterclipid>
					<logginginfo>
						<scene/>
						<shottake/>
						<lognote/>
						<good>FALSE</good>
					</logginginfo>
					<labels>
						<label2/>
					</labels>
					<comments>
						<mastercomment1/>
						<mastercomment2/>
						<mastercomment3/>
						<mastercomment4/>
					</comments>
					<file id="AA1435_01 2"/>
					<sourcetrack>
						<mediatype>video</mediatype>
					</sourcetrack>
					<link>
						<linkclipref>AA1435_01 9</linkclipref>
						<mediatype>video</mediatype>
						<trackindex>1</trackindex>
						<clipindex>111</clipindex>
					</link>
					<link>
						<linkclipref>AA1435_01 10</linkclipref>
						<mediatype>audio</mediatype>
						<trackindex>1</trackindex>
						<clipindex>69</clipindex>
					</link>
					<link>
						<linkclipref>AA1435_01 11</linkclipref>
						<mediatype>audio</mediatype>
						<trackindex>2</trackindex>
						<clipindex>64</clipindex>
					</link>
					<fielddominance>upper</fielddominance>
					<itemhistory>
						<uuid>9F602C9B-9C5C-4F62-BFE8-6ACB7A6F5886</uuid>
					</itemhistory>
				</clipitem>
				<clipitem id="AA1437_01 3">
					<name>AA1437_01</name>
					<duration>2808</duration>
					<rate>
						<ntsc>FALSE</ntsc>
						<timebase>25</timebase>
					</rate>
					<in>807</in>
					<out>1005</out>
					<start>12140</start>
					<end>12338</end>
					<pixelaspectratio>Square</pixelaspectratio>
					<enabled>TRUE</enabled>
					<anamorphic>FALSE</anamorphic>
					<alphatype>none</alphatype>
					<masterclipid>AA1437_01 1</masterclipid>
					<logginginfo>
						<scene/>
						<shottake/>
						<lognote/>
						<good>FALSE</good>
					</logginginfo>
					<labels>
						<label2/>
					</labels>
					<comments>
						<mastercomment1/>
						<mastercomment2/>
						<mastercomment3/>
						<mastercomment4/>
					</comments>
					<file id="AA1437_01 2"/>
					<sourcetrack>
						<mediatype>video</mediatype>
					</sourcetrack>
					<link>
						<linkclipref>AA1437_01 3</linkclipref>
						<mediatype>video</mediatype>
						<trackindex>1</trackindex>
						<clipindex>112</clipindex>
					</link>
					<link>
						<linkclipref>AA1437_01 4</linkclipref>
						<mediatype>audio</mediatype>
						<trackindex>1</trackindex>
						<clipindex>70</clipindex>
					</link>
					<link>
						<linkclipref>AA1437_01 5</linkclipref>
						<mediatype>audio</mediatype>
						<trackindex>2</trackindex>
						<clipindex>65</clipindex>
					</link>
					<fielddominance>upper</fielddominance>
					<itemhistory>
						<uuid>9BB14B11-253C-4366-B37D-E7D7228B70CE</uuid>
					</itemhistory>
				</clipitem>
				<clipitem id="AA1435_01 12">
					<name>AA1435_01</name>
					<duration>3048</duration>
					<rate>
						<ntsc>FALSE</ntsc>
						<timebase>25</timebase>
					</rate>
					<in>809</in>
					<out>851</out>
					<start>12338</start>
					<end>12380</end>
					<pixelaspectratio>Square</pixelaspectratio>
					<enabled>TRUE</enabled>
					<anamorphic>FALSE</anamorphic>
					<alphatype>none</alphatype>
					<masterclipid>AA1435_01 1</masterclipid>
					<logginginfo>
						<scene/>
						<shottake/>
						<lognote/>
						<good>FALSE</good>
					</logginginfo>
					<labels>
						<label2/>
					</labels>
					<comments>
						<mastercomment1/>
						<mastercomment2/>
						<mastercomment3/>
						<mastercomment4/>
					</comments>
					<file id="AA1435_01 2"/>
					<sourcetrack>
						<mediatype>video</mediatype>
					</sourcetrack>
					<fielddominance>upper</fielddominance>
					<itemhistory>
						<uuid>B4BFB29D-9D71-4F37-BC10-60526A33289A</uuid>
					</itemhistory>
				</clipitem>
				<clipitem id="AA1437_01 6">
					<name>AA1437_01</name>
					<duration>2808</duration>
					<rate>
						<ntsc>FALSE</ntsc>
						<timebase>25</timebase>
					</rate>
					<in>1047</in>
					<out>1126</out>
					<start>12380</start>
					<end>12459</end>
					<pixelaspectratio>Square</pixelaspectratio>
					<enabled>TRUE</enabled>
					<anamorphic>FALSE</anamorphic>
					<alphatype>none</alphatype>
					<masterclipid>AA1437_01 1</masterclipid>
					<logginginfo>
						<scene/>
						<shottake/>
						<lognote/>
						<good>FALSE</good>
					</logginginfo>
					<labels>
						<label2/>
					</labels>
					<comments>
						<mastercomment1/>
						<mastercomment2/>
						<mastercomment3/>
						<mastercomment4/>
					</comments>
					<file id="AA1437_01 2"/>
					<sourcetrack>
						<mediatype>video</mediatype>
					</sourcetrack>
					<fielddominance>upper</fielddominance>
					<itemhistory>
						<uuid>BBEC3332-7442-423F-A4EC-F8DAEC73BAAB</uuid>
					</itemhistory>
				</clipitem>
				<clipitem id="AA1435_01 13">
					<name>AA1435_01</name>
					<duration>3048</duration>
					<rate>
						<ntsc>FALSE</ntsc>
						<timebase>25</timebase>
					</rate>
					<in>888</in>
					<out>1156</out>
					<start>12459</start>
					<end>12727</end>
					<pixelaspectratio>Square</pixelaspectratio>
					<enabled>TRUE</enabled>
					<anamorphic>FALSE</anamorphic>
					<alphatype>none</alphatype>
					<masterclipid>AA1435_01 1</masterclipid>
					<logginginfo>
						<scene/>
						<shottake/>
						<lognote/>
						<good>FALSE</good>
					</logginginfo>
					<labels>
						<label2/>
					</labels>
					<comments>
						<mastercomment1/>
						<mastercomment2/>
						<mastercomment3/>
						<mastercomment4/>
					</comments>
					<file id="AA1435_01 2"/>
					<sourcetrack>
						<mediatype>video</mediatype>
					</sourcetrack>
					<link>
						<linkclipref>AA1435_01 13</linkclipref>
						<mediatype>video</mediatype>
						<trackindex>1</trackindex>
						<clipindex>115</clipindex>
					</link>
					<link>
						<linkclipref>AA1435_01 14</linkclipref>
						<mediatype>audio</mediatype>
						<trackindex>1</trackindex>
						<clipindex>71</clipindex>
					</link>
					<link>
						<linkclipref>AA1435_01 15</linkclipref>
						<mediatype>audio</mediatype>
						<trackindex>2</trackindex>
						<clipindex>66</clipindex>
					</link>
					<fielddominance>upper</fielddominance>
					<itemhistory>
						<uuid>5905C733-6996-4B8C-89D9-8131B0595940</uuid>
					</itemhistory>
				</clipitem>
				<clipitem id="AA1437_01 7">
					<name>AA1437_01</name>
					<duration>2808</duration>
					<rate>
						<ntsc>FALSE</ntsc>
						<timebase>25</timebase>
					</rate>
					<in>1399</in>
					<out>1479</out>
					<start>12727</start>
					<end>12807</end>
					<pixelaspectratio>Square</pixelaspectratio>
					<enabled>TRUE</enabled>
					<anamorphic>FALSE</anamorphic>
					<alphatype>none</alphatype>
					<masterclipid>AA1437_01 1</masterclipid>
					<logginginfo>
						<scene/>
						<shottake/>
						<lognote/>
						<good>FALSE</good>
					</logginginfo>
					<labels>
						<label2/>
					</labels>
					<comments>
						<mastercomment1/>
						<mastercomment2/>
						<mastercomment3/>
						<mastercomment4/>
					</comments>
					<file id="AA1437_01 2"/>
					<sourcetrack>
						<mediatype>video</mediatype>
					</sourcetrack>
					<fielddominance>upper</fielddominance>
					<itemhistory>
						<uuid>AE624288-FA5B-4B08-9EA0-C0AC0EBE475F</uuid>
					</itemhistory>
				</clipitem>
				<clipitem id="AA1435_01 16">
					<name>AA1435_01</name>
					<duration>3048</duration>
					<rate>
						<ntsc>FALSE</ntsc>
						<timebase>25</timebase>
					</rate>
					<in>1258</in>
					<out>1382</out>
					<start>12807</start>
					<end>12931</end>
					<pixelaspectratio>Square</pixelaspectratio>
					<enabled>TRUE</enabled>
					<anamorphic>FALSE</anamorphic>
					<alphatype>none</alphatype>
					<masterclipid>AA1435_01 1</masterclipid>
					<logginginfo>
						<scene/>
						<shottake/>
						<lognote/>
						<good>FALSE</good>
					</logginginfo>
					<labels>
						<label2/>
					</labels>
					<comments>
						<mastercomment1/>
						<mastercomment2/>
						<mastercomment3/>
						<mastercomment4/>
					</comments>
					<file id="AA1435_01 2"/>
					<sourcetrack>
						<mediatype>video</mediatype>
					</sourcetrack>
					<fielddominance>upper</fielddominance>
					<itemhistory>
						<uuid>19DDE8EB-B393-4C27-B840-06ECFB9971D9</uuid>
					</itemhistory>
				</clipitem>
				<clipitem id="AA1443_01 ">
					<name>AA1443_01</name>
					<duration>660</duration>
					<rate>
						<ntsc>FALSE</ntsc>
						<timebase>25</timebase>
					</rate>
					<in>369</in>
					<out>465</out>
					<start>12931</start>
					<end>13027</end>
					<pixelaspectratio>Square</pixelaspectratio>
					<enabled>TRUE</enabled>
					<anamorphic>FALSE</anamorphic>
					<alphatype>none</alphatype>
					<masterclipid>AA1443_01 1</masterclipid>
					<logginginfo>
						<scene/>
						<shottake/>
						<lognote/>
						<good>FALSE</good>
					</logginginfo>
					<labels>
						<label2/>
					</labels>
					<comments>
						<mastercomment1/>
						<mastercomment2/>
						<mastercomment3/>
						<mastercomment4/>
					</comments>
					<file id="AA1443_01 2">
						<name>AA1443_01.mov</name>
						<pathurl>file://localhost/Volumes/Askepott/Prosjekter/DNPR637010_Kra%CC%8Akeklubben_TEM_011212/Video/MELLOMSTIKK/S01E%20Spor%20i%20sn%C3%B8en/Canon%20XF/AA1443_01.mov</pathurl>
						<rate>
							<timebase>25</timebase>
						</rate>
						<duration>660</duration>
						<metadata>
							<storage>QuickTime</storage>
							<key>com.apple.proapps.originalFormat</key>
							<size>14</size>
							<type>UTF8</type>
							<value>Canon XF MPEG2</value>
						</metadata>
						<metadata>
							<storage>QuickTime</storage>
							<key>com.apple.quicktime.creationdate</key>
							<size>24</size>
							<type>UTF8</type>
							<value>2012-02-22T13:15:16+0100</value>
						</metadata>
						<metadata>
							<storage>QuickTime</storage>
							<key>com.apple.proapps.isGood</key>
							<size>4</size>
							<type>unsigned</type>
							<value>0</value>
						</metadata>
						<metadata>
							<storage>QuickTime</storage>
							<key>com.apple.finalcutstudio.media.uuid</key>
							<size>36</size>
							<type>UTF8</type>
							<value>024B4707-8E00-44AE-8AAA-BF03B96FB714</value>
						</metadata>
						<metadata>
							<storage>QuickTime</storage>
							<key>com.apple.proapps.clipID</key>
							<size>36</size>
							<type>UTF8</type>
							<value>0A21A868-7959-0580-0000-850001E01891</value>
						</metadata>
						<metadata>
							<storage>QuickTime</storage>
							<key>com.apple.proapps.reel</key>
							<size>8</size>
							<type>UTF8</type>
							<value>CANON XF</value>
						</metadata>
						<timecode>
							<rate>
								<timebase>25</timebase>
							</rate>
							<string>00:48:48:24</string>
							<frame>73224</frame>
							<displayformat>NDF</displayformat>
							<source>source</source>
							<reel>
								<name>CANON XF</name>
							</reel>
						</timecode>
						<media>
							<video>
								<duration>660</duration>
								<samplecharacteristics>
									<width>1920</width>
									<height>1080</height>
								</samplecharacteristics>
							</video>
							<audio>
								<samplecharacteristics>
									<samplerate>48000</samplerate>
									<depth>16</depth>
								</samplecharacteristics>
								<channelcount>1</channelcount>
								<layout>mono</layout>
								<audiochannel>
									<sourcechannel>1</sourcechannel>
									<channellabel>discrete</channellabel>
								</audiochannel>
							</audio>
							<audio>
								<samplecharacteristics>
									<samplerate>48000</samplerate>
									<depth>16</depth>
								</samplecharacteristics>
								<channelcount>1</channelcount>
								<layout>mono</layout>
								<audiochannel>
									<sourcechannel>2</sourcechannel>
									<channellabel>discrete</channellabel>
								</audiochannel>
							</audio>
						</media>
					</file>
					<sourcetrack>
						<mediatype>video</mediatype>
					</sourcetrack>
					<fielddominance>upper</fielddominance>
					<itemhistory>
						<uuid>4898C721-44DB-4E42-B21C-042C0E9A89CD</uuid>
					</itemhistory>
				</clipitem>
				<clipitem id="AA1435_01 17">
					<name>AA1435_01</name>
					<duration>3048</duration>
					<rate>
						<ntsc>FALSE</ntsc>
						<timebase>25</timebase>
					</rate>
					<in>1478</in>
					<out>1557</out>
					<start>13027</start>
					<end>13106</end>
					<pixelaspectratio>Square</pixelaspectratio>
					<enabled>TRUE</enabled>
					<anamorphic>FALSE</anamorphic>
					<alphatype>none</alphatype>
					<masterclipid>AA1435_01 1</masterclipid>
					<logginginfo>
						<scene/>
						<shottake/>
						<lognote/>
						<good>FALSE</good>
					</logginginfo>
					<labels>
						<label2/>
					</labels>
					<comments>
						<mastercomment1/>
						<mastercomment2/>
						<mastercomment3/>
						<mastercomment4/>
					</comments>
					<file id="AA1435_01 2"/>
					<sourcetrack>
						<mediatype>video</mediatype>
					</sourcetrack>
					<fielddominance>upper</fielddominance>
					<itemhistory>
						<uuid>16913F8F-AE7E-44FB-B8AE-2DBBB6C03BAE</uuid>
					</itemhistory>
				</clipitem>
				<clipitem id="AA1437_01 8">
					<name>AA1437_01</name>
					<duration>2808</duration>
					<rate>
						<ntsc>FALSE</ntsc>
						<timebase>25</timebase>
					</rate>
					<in>1732</in>
					<out>1855</out>
					<start>13106</start>
					<end>13229</end>
					<pixelaspectratio>Square</pixelaspectratio>
					<enabled>TRUE</enabled>
					<anamorphic>FALSE</anamorphic>
					<alphatype>none</alphatype>
					<masterclipid>AA1437_01 1</masterclipid>
					<logginginfo>
						<scene/>
						<shottake/>
						<lognote/>
						<good>FALSE</good>
					</logginginfo>
					<labels>
						<label2/>
					</labels>
					<comments>
						<mastercomment1/>
						<mastercomment2/>
						<mastercomment3/>
						<mastercomment4/>
					</comments>
					<file id="AA1437_01 2"/>
					<sourcetrack>
						<mediatype>video</mediatype>
					</sourcetrack>
					<fielddominance>upper</fielddominance>
					<itemhistory>
						<uuid>5D1FC159-2CD3-45BA-9F4D-FBD7DF1FD8CF</uuid>
					</itemhistory>
				</clipitem>
				<clipitem id="AA1435_01 18">
					<name>AA1435_01</name>
					<duration>3048</duration>
					<rate>
						<ntsc>FALSE</ntsc>
						<timebase>25</timebase>
					</rate>
					<in>1714</in>
					<out>1829</out>
					<start>13229</start>
					<end>13344</end>
					<pixelaspectratio>Square</pixelaspectratio>
					<enabled>TRUE</enabled>
					<anamorphic>FALSE</anamorphic>
					<alphatype>none</alphatype>
					<masterclipid>AA1435_01 1</masterclipid>
					<logginginfo>
						<scene/>
						<shottake/>
						<lognote/>
						<good>FALSE</good>
					</logginginfo>
					<labels>
						<label2/>
					</labels>
					<comments>
						<mastercomment1/>
						<mastercomment2/>
						<mastercomment3/>
						<mastercomment4/>
					</comments>
					<file id="AA1435_01 2"/>
					<sourcetrack>
						<mediatype>video</mediatype>
					</sourcetrack>
					<link>
						<linkclipref>AA1435_01 18</linkclipref>
						<mediatype>video</mediatype>
						<trackindex>1</trackindex>
						<clipindex>121</clipindex>
					</link>
					<link>
						<linkclipref>AA1435_01 19</linkclipref>
						<mediatype>audio</mediatype>
						<trackindex>1</trackindex>
						<clipindex>73</clipindex>
					</link>
					<link>
						<linkclipref>AA1435_01 20</linkclipref>
						<mediatype>audio</mediatype>
						<trackindex>2</trackindex>
						<clipindex>68</clipindex>
					</link>
					<fielddominance>upper</fielddominance>
					<itemhistory>
						<uuid>3284C873-262A-4B72-A6AC-98DF1E892246</uuid>
					</itemhistory>
				</clipitem>
				<clipitem id="AA1437_01 9">
					<name>AA1437_01</name>
					<duration>2808</duration>
					<rate>
						<ntsc>FALSE</ntsc>
						<timebase>25</timebase>
					</rate>
					<in>2088</in>
					<out>2165</out>
					<start>13344</start>
					<end>13421</end>
					<pixelaspectratio>Square</pixelaspectratio>
					<enabled>TRUE</enabled>
					<anamorphic>FALSE</anamorphic>
					<alphatype>none</alphatype>
					<masterclipid>AA1437_01 1</masterclipid>
					<logginginfo>
						<scene/>
						<shottake/>
						<lognote/>
						<good>FALSE</good>
					</logginginfo>
					<labels>
						<label2/>
					</labels>
					<comments>
						<mastercomment1/>
						<mastercomment2/>
						<mastercomment3/>
						<mastercomment4/>
					</comments>
					<file id="AA1437_01 2"/>
					<sourcetrack>
						<mediatype>video</mediatype>
					</sourcetrack>
					<link>
						<linkclipref>AA1437_01 9</linkclipref>
						<mediatype>video</mediatype>
						<trackindex>1</trackindex>
						<clipindex>122</clipindex>
					</link>
					<link>
						<linkclipref>AA1437_01 10</linkclipref>
						<mediatype>audio</mediatype>
						<trackindex>1</trackindex>
						<clipindex>74</clipindex>
					</link>
					<link>
						<linkclipref>AA1437_01 11</linkclipref>
						<mediatype>audio</mediatype>
						<trackindex>2</trackindex>
						<clipindex>69</clipindex>
					</link>
					<fielddominance>upper</fielddominance>
					<itemhistory>
						<uuid>5C190C56-97E0-4DE7-808A-BBFADBDED0C7</uuid>
					</itemhistory>
				</clipitem>
				<clipitem id="AA1435_01 21">
					<name>AA1435_01</name>
					<duration>3048</duration>
					<rate>
						<ntsc>FALSE</ntsc>
						<timebase>25</timebase>
					</rate>
					<in>1949</in>
					<out>2096</out>
					<start>13421</start>
					<end>13568</end>
					<pixelaspectratio>Square</pixelaspectratio>
					<enabled>TRUE</enabled>
					<anamorphic>FALSE</anamorphic>
					<alphatype>none</alphatype>
					<masterclipid>AA1435_01 1</masterclipid>
					<logginginfo>
						<scene/>
						<shottake/>
						<lognote/>
						<good>FALSE</good>
					</logginginfo>
					<labels>
						<label2/>
					</labels>
					<comments>
						<mastercomment1/>
						<mastercomment2/>
						<mastercomment3/>
						<mastercomment4/>
					</comments>
					<file id="AA1435_01 2"/>
					<sourcetrack>
						<mediatype>video</mediatype>
					</sourcetrack>
					<link>
						<linkclipref>AA1435_01 21</linkclipref>
						<mediatype>video</mediatype>
						<trackindex>1</trackindex>
						<clipindex>123</clipindex>
					</link>
					<link>
						<linkclipref>AA1435_01 22</linkclipref>
						<mediatype>audio</mediatype>
						<trackindex>1</trackindex>
						<clipindex>75</clipindex>
					</link>
					<link>
						<linkclipref>AA1435_01 23</linkclipref>
						<mediatype>audio</mediatype>
						<trackindex>2</trackindex>
						<clipindex>70</clipindex>
					</link>
					<fielddominance>upper</fielddominance>
					<itemhistory>
						<uuid>045E6001-C689-4F0E-BFCF-B4B6BDB5AE6B</uuid>
					</itemhistory>
				</clipitem>
				<clipitem id="AA1437_01 12">
					<name>AA1437_01</name>
					<duration>2808</duration>
					<rate>
						<ntsc>FALSE</ntsc>
						<timebase>25</timebase>
					</rate>
					<in>2301</in>
					<out>2345</out>
					<start>13568</start>
					<end>13612</end>
					<pixelaspectratio>Square</pixelaspectratio>
					<enabled>TRUE</enabled>
					<anamorphic>FALSE</anamorphic>
					<alphatype>none</alphatype>
					<masterclipid>AA1437_01 1</masterclipid>
					<logginginfo>
						<scene/>
						<shottake/>
						<lognote/>
						<good>FALSE</good>
					</logginginfo>
					<labels>
						<label2/>
					</labels>
					<comments>
						<mastercomment1/>
						<mastercomment2/>
						<mastercomment3/>
						<mastercomment4/>
					</comments>
					<file id="AA1437_01 2"/>
					<sourcetrack>
						<mediatype>video</mediatype>
					</sourcetrack>
					<fielddominance>upper</fielddominance>
					<itemhistory>
						<uuid>469860A3-5BC4-4C7C-AD08-781F5DD6AD8B</uuid>
					</itemhistory>
				</clipitem>
				<clipitem id="AA1435_01 24">
					<name>AA1435_01</name>
					<duration>3048</duration>
					<rate>
						<ntsc>FALSE</ntsc>
						<timebase>25</timebase>
					</rate>
					<in>2140</in>
					<out>2217</out>
					<start>13612</start>
					<end>13689</end>
					<pixelaspectratio>Square</pixelaspectratio>
					<enabled>TRUE</enabled>
					<anamorphic>FALSE</anamorphic>
					<alphatype>none</alphatype>
					<masterclipid>AA1435_01 1</masterclipid>
					<logginginfo>
						<scene/>
						<shottake/>
						<lognote/>
						<good>FALSE</good>
					</logginginfo>
					<labels>
						<label2/>
					</labels>
					<comments>
						<mastercomment1/>
						<mastercomment2/>
						<mastercomment3/>
						<mastercomment4/>
					</comments>
					<file id="AA1435_01 2"/>
					<sourcetrack>
						<mediatype>video</mediatype>
					</sourcetrack>
					<fielddominance>upper</fielddominance>
					<itemhistory>
						<uuid>28D9803C-58B5-4763-8075-E765429DD6EE</uuid>
					</itemhistory>
				</clipitem>
				<clipitem id="AA1437_01 13">
					<name>AA1437_01</name>
					<duration>2808</duration>
					<rate>
						<ntsc>FALSE</ntsc>
						<timebase>25</timebase>
					</rate>
					<in>2463</in>
					<out>2512</out>
					<start>13689</start>
					<end>13738</end>
					<pixelaspectratio>Square</pixelaspectratio>
					<enabled>TRUE</enabled>
					<anamorphic>FALSE</anamorphic>
					<alphatype>none</alphatype>
					<masterclipid>AA1437_01 1</masterclipid>
					<logginginfo>
						<scene/>
						<shottake/>
						<lognote/>
						<good>FALSE</good>
					</logginginfo>
					<labels>
						<label2/>
					</labels>
					<comments>
						<mastercomment1/>
						<mastercomment2/>
						<mastercomment3/>
						<mastercomment4/>
					</comments>
					<file id="AA1437_01 2"/>
					<sourcetrack>
						<mediatype>video</mediatype>
					</sourcetrack>
					<fielddominance>upper</fielddominance>
					<itemhistory>
						<uuid>AA98D063-9F08-4BE6-99B1-9B87748C8070</uuid>
					</itemhistory>
				</clipitem>
				<clipitem id="AA1435_01 25">
					<name>AA1435_01</name>
					<duration>3048</duration>
					<rate>
						<ntsc>FALSE</ntsc>
						<timebase>25</timebase>
					</rate>
					<in>2266</in>
					<out>2363</out>
					<start>13738</start>
					<end>13835</end>
					<pixelaspectratio>Square</pixelaspectratio>
					<enabled>TRUE</enabled>
					<anamorphic>FALSE</anamorphic>
					<alphatype>none</alphatype>
					<masterclipid>AA1435_01 1</masterclipid>
					<logginginfo>
						<scene/>
						<shottake/>
						<lognote/>
						<good>FALSE</good>
					</logginginfo>
					<labels>
						<label2/>
					</labels>
					<comments>
						<mastercomment1/>
						<mastercomment2/>
						<mastercomment3/>
						<mastercomment4/>
					</comments>
					<file id="AA1435_01 2"/>
					<sourcetrack>
						<mediatype>video</mediatype>
					</sourcetrack>
					<fielddominance>upper</fielddominance>
					<itemhistory>
						<uuid>46ACD057-B55D-4256-A5A4-85B9F203C7DD</uuid>
					</itemhistory>
				</clipitem>
				<clipitem id="AA1438_01 ">
					<name>AA1438_01</name>
					<duration>780</duration>
					<rate>
						<ntsc>FALSE</ntsc>
						<timebase>25</timebase>
					</rate>
					<in>169</in>
					<out>277</out>
					<start>13835</start>
					<end>13943</end>
					<pixelaspectratio>Square</pixelaspectratio>
					<enabled>TRUE</enabled>
					<anamorphic>FALSE</anamorphic>
					<alphatype>none</alphatype>
					<masterclipid>AA1438_01 1</masterclipid>
					<logginginfo>
						<scene/>
						<shottake/>
						<lognote/>
						<good>FALSE</good>
					</logginginfo>
					<labels>
						<label2/>
					</labels>
					<comments>
						<mastercomment1/>
						<mastercomment2/>
						<mastercomment3/>
						<mastercomment4/>
					</comments>
					<file id="AA1438_01 2">
						<name>AA1438_01.mov</name>
						<pathurl>file://localhost/Volumes/Askepott/Prosjekter/DNPR637010_Kra%CC%8Akeklubben_TEM_011212/Video/MELLOMSTIKK/S01E%20Spor%20i%20sn%C3%B8en/Canon%20XF/AA1438_01.mov</pathurl>
						<rate>
							<timebase>25</timebase>
						</rate>
						<duration>780</duration>
						<metadata>
							<storage>QuickTime</storage>
							<key>com.apple.proapps.originalFormat</key>
							<size>14</size>
							<type>UTF8</type>
							<value>Canon XF MPEG2</value>
						</metadata>
						<metadata>
							<storage>QuickTime</storage>
							<key>com.apple.quicktime.creationdate</key>
							<size>24</size>
							<type>UTF8</type>
							<value>2012-02-22T13:05:13+0100</value>
						</metadata>
						<metadata>
							<storage>QuickTime</storage>
							<key>com.apple.proapps.isGood</key>
							<size>4</size>
							<type>unsigned</type>
							<value>0</value>
						</metadata>
						<metadata>
							<storage>QuickTime</storage>
							<key>com.apple.finalcutstudio.media.uuid</key>
							<size>36</size>
							<type>UTF8</type>
							<value>397DD7E9-F476-426B-BF3D-788AEC6C2575</value>
						</metadata>
						<metadata>
							<storage>QuickTime</storage>
							<key>com.apple.proapps.clipID</key>
							<size>36</size>
							<type>UTF8</type>
							<value>0A2132A2-7959-0580-0000-850001E01891</value>
						</metadata>
						<metadata>
							<storage>QuickTime</storage>
							<key>com.apple.proapps.reel</key>
							<size>8</size>
							<type>UTF8</type>
							<value>CANON XF</value>
						</metadata>
						<timecode>
							<rate>
								<timebase>25</timebase>
							</rate>
							<string>00:46:30:06</string>
							<frame>69756</frame>
							<displayformat>NDF</displayformat>
							<source>source</source>
							<reel>
								<name>CANON XF</name>
							</reel>
						</timecode>
						<media>
							<video>
								<duration>780</duration>
								<samplecharacteristics>
									<width>1920</width>
									<height>1080</height>
								</samplecharacteristics>
							</video>
							<audio>
								<samplecharacteristics>
									<samplerate>48000</samplerate>
									<depth>16</depth>
								</samplecharacteristics>
								<channelcount>1</channelcount>
								<layout>mono</layout>
								<audiochannel>
									<sourcechannel>1</sourcechannel>
									<channellabel>discrete</channellabel>
								</audiochannel>
							</audio>
							<audio>
								<samplecharacteristics>
									<samplerate>48000</samplerate>
									<depth>16</depth>
								</samplecharacteristics>
								<channelcount>1</channelcount>
								<layout>mono</layout>
								<audiochannel>
									<sourcechannel>2</sourcechannel>
									<channellabel>discrete</channellabel>
								</audiochannel>
							</audio>
						</media>
					</file>
					<sourcetrack>
						<mediatype>video</mediatype>
					</sourcetrack>
					<link>
						<linkclipref>AA1438_01 </linkclipref>
						<mediatype>video</mediatype>
						<trackindex>1</trackindex>
						<clipindex>128</clipindex>
					</link>
					<link>
						<linkclipref>AA1438_01 3</linkclipref>
						<mediatype>audio</mediatype>
						<trackindex>1</trackindex>
						<clipindex>76</clipindex>
					</link>
					<link>
						<linkclipref>AA1438_01 4</linkclipref>
						<mediatype>audio</mediatype>
						<trackindex>2</trackindex>
						<clipindex>71</clipindex>
					</link>
					<fielddominance>upper</fielddominance>
					<itemhistory>
						<uuid>95A39602-525F-4A06-99C1-2975CCF844D2</uuid>
					</itemhistory>
				</clipitem>
				<clipitem id="AA1439_01 ">
					<name>AA1439_01</name>
					<duration>1080</duration>
					<rate>
						<ntsc>FALSE</ntsc>
						<timebase>25</timebase>
					</rate>
					<in>530</in>
					<out>969</out>
					<start>13943</start>
					<end>-1</end>
					<pixelaspectratio>Square</pixelaspectratio>
					<enabled>TRUE</enabled>
					<anamorphic>FALSE</anamorphic>
					<alphatype>none</alphatype>
					<masterclipid>AA1439_01 1</masterclipid>
					<logginginfo>
						<scene/>
						<shottake/>
						<lognote/>
						<good>FALSE</good>
					</logginginfo>
					<labels>
						<label2/>
					</labels>
					<comments>
						<mastercomment1/>
						<mastercomment2/>
						<mastercomment3/>
						<mastercomment4/>
					</comments>
					<file id="AA1439_01 2">
						<name>AA1439_01.mov</name>
						<pathurl>file://localhost/Volumes/Askepott/Prosjekter/DNPR637010_Kra%CC%8Akeklubben_TEM_011212/Video/MELLOMSTIKK/S01E%20Spor%20i%20sn%C3%B8en/Canon%20XF/AA1439_01.mov</pathurl>
						<rate>
							<timebase>25</timebase>
						</rate>
						<duration>1080</duration>
						<metadata>
							<storage>QuickTime</storage>
							<key>com.apple.proapps.originalFormat</key>
							<size>14</size>
							<type>UTF8</type>
							<value>Canon XF MPEG2</value>
						</metadata>
						<metadata>
							<storage>QuickTime</storage>
							<key>com.apple.quicktime.creationdate</key>
							<size>24</size>
							<type>UTF8</type>
							<value>2012-02-22T13:10:12+0100</value>
						</metadata>
						<metadata>
							<storage>QuickTime</storage>
							<key>com.apple.proapps.isGood</key>
							<size>4</size>
							<type>unsigned</type>
							<value>0</value>
						</metadata>
						<metadata>
							<storage>QuickTime</storage>
							<key>com.apple.finalcutstudio.media.uuid</key>
							<size>36</size>
							<type>UTF8</type>
							<value>9FEFDBFC-8392-423E-8B89-36626A55D0B0</value>
						</metadata>
						<metadata>
							<storage>QuickTime</storage>
							<key>com.apple.proapps.clipID</key>
							<size>36</size>
							<type>UTF8</type>
							<value>0A216D08-7959-0580-0000-850001E01891</value>
						</metadata>
						<metadata>
							<storage>QuickTime</storage>
							<key>com.apple.proapps.reel</key>
							<size>8</size>
							<type>UTF8</type>
							<value>CANON XF</value>
						</metadata>
						<timecode>
							<rate>
								<timebase>25</timebase>
							</rate>
							<string>00:47:01:11</string>
							<frame>70536</frame>
							<displayformat>NDF</displayformat>
							<source>source</source>
							<reel>
								<name>CANON XF</name>
							</reel>
						</timecode>
						<media>
							<video>
								<duration>1080</duration>
								<samplecharacteristics>
									<width>1920</width>
									<height>1080</height>
								</samplecharacteristics>
							</video>
							<audio>
								<samplecharacteristics>
									<samplerate>48000</samplerate>
									<depth>16</depth>
								</samplecharacteristics>
								<channelcount>1</channelcount>
								<layout>mono</layout>
								<audiochannel>
									<sourcechannel>1</sourcechannel>
									<channellabel>discrete</channellabel>
								</audiochannel>
							</audio>
							<audio>
								<samplecharacteristics>
									<samplerate>48000</samplerate>
									<depth>16</depth>
								</samplecharacteristics>
								<channelcount>1</channelcount>
								<layout>mono</layout>
								<audiochannel>
									<sourcechannel>2</sourcechannel>
									<channellabel>discrete</channellabel>
								</audiochannel>
							</audio>
						</media>
					</file>
					<sourcetrack>
						<mediatype>video</mediatype>
					</sourcetrack>
					<link>
						<linkclipref>AA1439_01 </linkclipref>
						<mediatype>video</mediatype>
						<trackindex>1</trackindex>
						<clipindex>129</clipindex>
					</link>
					<link>
						<linkclipref>AA1439_01 3</linkclipref>
						<mediatype>audio</mediatype>
						<trackindex>1</trackindex>
						<clipindex>78</clipindex>
					</link>
					<link>
						<linkclipref>AA1439_01 4</linkclipref>
						<mediatype>audio</mediatype>
						<trackindex>2</trackindex>
						<clipindex>73</clipindex>
					</link>
					<fielddominance>upper</fielddominance>
					<itemhistory>
						<uuid>C69C8A33-69FA-4979-BB45-EF6699F34B78</uuid>
					</itemhistory>
				</clipitem>
				<transitionitem>
					<rate>
						<ntsc>FALSE</ntsc>
						<timebase>25</timebase>
					</rate>
					<start>14367</start>
					<end>14382</end>
					<alignment>start</alignment>
					<effect>
						<name>G Lens Flare Tords garasje</name>
						<effectcategory>Nattress Big Box Of Tricks</effectcategory>
						<effecttype>transition</effecttype>
						<mediatype>video</mediatype>
						<startratio>0</startratio>
						<endratio>1</endratio>
						<reverse>FALSE</reverse>
						<parameter>
							<parameterid>dispvar1</parameterid>
							<name>Display Settings</name>
							<value>string</value>
						</parameter>
						<parameter>
							<parameterid>inputvar1</parameterid>
							<name>Flare Position</name>
							<value>string</value>
						</parameter>
						<parameter>
							<parameterid>theangle</parameterid>
							<name>Transition Direction</name>
							<valuemin>-360</valuemin>
							<valuemax>360</valuemax>
							<value>90</value>
						</parameter>
						<parameter>
							<parameterid>transitionblendduration</parameterid>
							<name>Blend Duration</name>
							<valuemin>0</valuemin>
							<valuemax>100</valuemax>
							<value>50</value>
						</parameter>
						<parameter>
							<parameterid>settingsvar1</parameterid>
							<name>Flare Settings</name>
							<value>string</value>
						</parameter>
						<parameter>
							<parameterid>presets</parameterid>
							<name>Preset Select</name>
							<valuemin>1</valuemin>
							<valuemax>4</valuemax>
							<valuelist>
								<valueentry>
									<name>Custom Controls</name>
									<value>1</value>
								</valueentry>
								<valueentry>
									<name>Other End of the Rainbow</name>
									<value>2</value>
								</valueentry>
								<valueentry>
									<name>Photon</name>
									<value>3</value>
								</valueentry>
								<valueentry>
									<name>Gaudy</name>
									<value>4</value>
								</valueentry>
							</valuelist>
							<value>1</value>
						</parameter>
						<parameter>
							<parameterid>randomevolution</parameterid>
							<name>Randomness Evolution</name>
							<valuemin>0</valuemin>
							<valuemax>1</valuemax>
							<value>0.05</value>
						</parameter>
						<parameter>
							<parameterid>flareaspect</parameterid>
							<name>Aspect</name>
							<valuemin>0.1</valuemin>
							<valuemax>10</valuemax>
							<value>1</value>
						</parameter>
						<parameter>
							<parameterid>flareintensity</parameterid>
							<name>Overall Intensity</name>
							<valuemin>0</valuemin>
							<valuemax>400</valuemax>
							<value>300</value>
						</parameter>
						<parameter>
							<parameterid>therandomseed</parameterid>
							<name>Random Seed</name>
							<valuemin>0</valuemin>
							<valuemax>100</valuemax>
							<value>100</value>
						</parameter>
						<parameter>
							<parameterid>settingsvar2</parameterid>
							<name>   Bloom</name>
							<value>string</value>
						</parameter>
						<parameter>
							<parameterid>bloomon</parameterid>
							<name>Bloom On?</name>
							<value>TRUE</value>
						</parameter>
						<parameter>
							<parameterid>bloomcolour</parameterid>
							<name>Bloom Colour</name>
							<value>
								<alpha>255</alpha>
								<red>218</red>
								<green>224</green>
								<blue>254</blue>
							</value>
						</parameter>
						<parameter>
							<parameterid>bloomcolourfromimage</parameterid>
							<name>Use Image for Bloom Colour?</name>
							<value>FALSE</value>
						</parameter>
						<parameter>
							<parameterid>bloomintensity</parameterid>
							<name>Intensity</name>
							<valuemin>0</valuemin>
							<valuemax>100</valuemax>
							<value>90</value>
						</parameter>
						<parameter>
							<parameterid>bloomradius</parameterid>
							<name>Radius</name>
							<valuemin>0</valuemin>
							<valuemax>200</valuemax>
							<value>45</value>
						</parameter>
						<parameter>
							<parameterid>bloomfalloff</parameterid>
							<name>Fall Off</name>
							<valuemin>0</valuemin>
							<valuemax>100</valuemax>
							<value>75</value>
						</parameter>
						<parameter>
							<parameterid>bloomstarry</parameterid>
							<name>Starry</name>
							<valuemin>0</valuemin>
							<valuemax>100</valuemax>
							<value>10</value>
						</parameter>
						<parameter>
							<parameterid>bloomstarpoints</parameterid>
							<name>Star Points</name>
							<valuemin>0</valuemin>
							<valuemax>100</valuemax>
							<value>7</value>
						</parameter>
						<parameter>
							<parameterid>settingsvar3</parameterid>
							<name>   StarBurst</name>
							<value>string</value>
						</parameter>
						<parameter>
							<parameterid>starburston</parameterid>
							<name>StarBurst On?</name>
							<value>TRUE</value>
						</parameter>
						<parameter>
							<parameterid>starburstcolour</parameterid>
							<name>StarBurst Colour</name>
							<value>
								<alpha>255</alpha>
								<red>254</red>
								<green>224</green>
								<blue>218</blue>
							</value>
						</parameter>
						<parameter>
							<parameterid>starburstintensity</parameterid>
							<name>Intensity</name>
							<valuemin>0</valuemin>
							<valuemax>100</valuemax>
							<value>75</value>
						</parameter>
						<parameter>
							<parameterid>starburstradius</parameterid>
							<name>Radius</name>
							<valuemin>0</valuemin>
							<valuemax>150</valuemax>
							<value>75</value>
						</parameter>
						<parameter>
							<parameterid>starburststarpoints</parameterid>
							<name>Star Points</name>
							<valuemin>0</valuemin>
							<valuemax>200</valuemax>
							<value>90</value>
						</parameter>
						<parameter>
							<parameterid>starcentre</parameterid>
							<name>Centre Size</name>
							<valuemin>0</valuemin>
							<valuemax>100</valuemax>
							<value>75</value>
						</parameter>
						<parameter>
							<parameterid>starfalloff</parameterid>
							<name>Fall Off</name>
							<valuemin>0</valuemin>
							<valuemax>100</valuemax>
							<value>75</value>
						</parameter>
						<parameter>
							<parameterid>starburstrandom</parameterid>
							<name>Randomness</name>
							<valuemin>0</valuemin>
							<valuemax>4</valuemax>
							<value>0.4</value>
						</parameter>
						<parameter>
							<parameterid>settingsvar4</parameterid>
							<name>   Rainbow</name>
							<value>string</value>
						</parameter>
						<parameter>
							<parameterid>rainbowon</parameterid>
							<name>Rainbow On?</name>
							<value>TRUE</value>
						</parameter>
						<parameter>
							<parameterid>rainbowcolors</parameterid>
							<name>Colour Type</name>
							<valuemin>1</valuemin>
							<valuemax>2</valuemax>
							<valuelist>
								<valueentry>
									<name>Rainbow</name>
									<value>1</value>
								</valueentry>
								<valueentry>
									<name>User Colour</name>
									<value>2</value>
								</valueentry>
							</valuelist>
							<value>1</value>
						</parameter>
						<parameter>
							<parameterid>rainbowusercolor</parameterid>
							<name>User Colour</name>
							<value>
								<alpha>255</alpha>
								<red>230</red>
								<green>110</green>
								<blue>22</blue>
							</value>
						</parameter>
						<parameter>
							<parameterid>rainbowposition</parameterid>
							<name>Position</name>
							<valuemin>-200</valuemin>
							<valuemax>200</valuemax>
							<value>100</value>
						</parameter>
						<parameter>
							<parameterid>rainbowintensity</parameterid>
							<name>Intensity</name>
							<valuemin>0</valuemin>
							<valuemax>100</valuemax>
							<value>20</value>
						</parameter>
						<parameter>
							<parameterid>rainbowradius</parameterid>
							<name>Radius</name>
							<valuemin>0</valuemin>
							<valuemax>200</valuemax>
							<value>50</value>
						</parameter>
						<parameter>
							<parameterid>rainbowthickness</parameterid>
							<name>Thickness</name>
							<valuemin>0</valuemin>
							<valuemax>1</valuemax>
							<value>0.15</value>
						</parameter>
						<parameter>
							<parameterid>rainbowsharpness</parameterid>
							<name>Sharpness</name>
							<valuemin>0</valuemin>
							<valuemax>1</valuemax>
							<value>0.65</value>
						</parameter>
						<parameter>
							<parameterid>settingsvar5</parameterid>
							<name>   Spots</name>
							<value>string</value>
						</parameter>
						<parameter>
							<parameterid>spotson</parameterid>
							<name>Spots On?</name>
							<value>TRUE</value>
						</parameter>
						<parameter>
							<parameterid>spotsnumber</parameterid>
							<name>Number</name>
							<valuemin>0</valuemin>
							<valuemax>100</valuemax>
							<value>12</value>
						</parameter>
						<parameter>
							<parameterid>spotsintensity</parameterid>
							<name>Intensity</name>
							<valuemin>0</valuemin>
							<valuemax>100</valuemax>
							<value>80</value>
						</parameter>
						<parameter>
							<parameterid>spotsradius</parameterid>
							<name>Radius</name>
							<valuemin>0</valuemin>
							<valuemax>150</valuemax>
							<value>30</value>
						</parameter>
						<parameter>
							<parameterid>spotsdisky</parameterid>
							<name>Disky</name>
							<valuemin>0</valuemin>
							<valuemax>100</valuemax>
							<value>75</value>
						</parameter>
						<parameter>
							<parameterid>spotsringy</parameterid>
							<name>Ringy</name>
							<valuemin>0</valuemin>
							<valuemax>100</valuemax>
							<value>75</value>
						</parameter>
						<parameter>
							<parameterid>spotsblotty</parameterid>
							<name>Blotty</name>
							<valuemin>0</valuemin>
							<valuemax>100</valuemax>
							<value>75</value>
						</parameter>
						<parameter>
							<parameterid>spotsbloony</parameterid>
							<name>Bloony</name>
							<valuemin>0</valuemin>
							<valuemax>100</valuemax>
							<value>75</value>
						</parameter>
						<parameter>
							<parameterid>spotsvarycolour</parameterid>
							<name>Vary Colour</name>
							<valuemin>0</valuemin>
							<valuemax>100</valuemax>
							<value>31</value>
						</parameter>
						<parameter>
							<parameterid>spotsbasehue</parameterid>
							<name>Base Hue</name>
							<valuemin>0</valuemin>
							<valuemax>100</valuemax>
							<value>72</value>
						</parameter>
						<parameter>
							<parameterid>spotssaturation</parameterid>
							<name>Saturation</name>
							<valuemin>0</valuemin>
							<valuemax>100</valuemax>
							<value>20</value>
						</parameter>
						<parameter>
							<parameterid>copyright</parameterid>
							<name>©www.nattress.com</name>
							<value>string</value>
						</parameter>
					</effect>
				</transitionitem>
				<clipitem id="Tords garasje Vignett">
					<name>Tords garasje Vignett</name>
					<duration>250</duration>
					<rate>
						<ntsc>FALSE</ntsc>
						<timebase>25</timebase>
					</rate>
					<in>0</in>
					<out>223</out>
					<start>-1</start>
					<end>-1</end>
					<pixelaspectratio>Square</pixelaspectratio>
					<enabled>TRUE</enabled>
					<anamorphic>FALSE</anamorphic>
					<alphatype>straight</alphatype>
					<masterclipid>Tords garasje Vignett1</masterclipid>
					<logginginfo>
						<scene/>
						<shottake/>
						<lognote/>
						<good>FALSE</good>
					</logginginfo>
					<labels>
						<label2/>
					</labels>
					<comments>
						<mastercomment1/>
						<mastercomment2/>
						<mastercomment3/>
						<mastercomment4/>
					</comments>
					<file id="Tords garasje Vignett2">
						<name>Tords garasje Vignett.mov</name>
						<pathurl>file://localhost/Volumes/Askepott/Prosjekter/DNPR637010_Kra%CC%8Akeklubben_TEM_011212/Grafikk/MASTERE%20GRAFIKK/Tords%20garasje%20Vignett.mov</pathurl>
						<rate>
							<timebase>25</timebase>
						</rate>
						<duration>250</duration>
						<timecode>
							<rate>
								<timebase>25</timebase>
							</rate>
							<string>00:00:00:00</string>
							<frame>0</frame>
							<displayformat>NDF</displayformat>
							<source>source</source>
						</timecode>
						<media>
							<video>
								<duration>250</duration>
								<samplecharacteristics>
									<width>1920</width>
									<height>1080</height>
								</samplecharacteristics>
							</video>
						</media>
					</file>
					<filter>
						<enabled>TRUE</enabled>
						<start>-1</start>
						<end>-1</end>
						<effect>
							<name>Color Corrector KRAAKA PAA BESOK</name>
							<effectid>Color Corrector 3-way</effectid>
							<effectcategory>Color Correction</effectcategory>
							<effecttype>filter</effecttype>
							<mediatype>video</mediatype>
							<parameter>
								<parameterid>dispmode</parameterid>
								<name>Display Mode</name>
								<valuemin>1</valuemin>
								<valuemax>3</valuemax>
								<valuelist>
									<valueentry>
										<name>Final</name>
										<value>1</value>
									</valueentry>
									<valueentry>
										<name>Matte</name>
										<value>2</value>
									</valueentry>
									<valueentry>
										<name>Source</name>
										<value>3</value>
									</valueentry>
								</valuelist>
								<value>1</value>
							</parameter>
							<parameter>
								<parameterid>label1</parameterid>
								<name>Blacks Controls</name>
								<value/>
							</parameter>
							<parameter>
								<parameterid>blacklevel</parameterid>
								<name>Level</name>
								<valuemin>-196</valuemin>
								<valuemax>254</valuemax>
								<value>-6</value>
							</parameter>
							<parameter>
								<parameterid>b_hue</parameterid>
								<name>Angle</name>
								<valuemin>-180</valuemin>
								<valuemax>180</valuemax>
								<value>-33</value>
							</parameter>
							<parameter>
								<parameterid>b_mag</parameterid>
								<name>Magnitude</name>
								<valuemin>0</valuemin>
								<valuemax>200</valuemax>
								<value>0</value>
							</parameter>
							<parameter>
								<parameterid>label2</parameterid>
								<name>Midrange Controls</name>
								<value/>
							</parameter>
							<parameter>
								<parameterid>mids</parameterid>
								<name>Level</name>
								<valuemin>0</valuemin>
								<valuemax>200</valuemax>
								<value>107</value>
							</parameter>
							<parameter>
								<parameterid>m_hue</parameterid>
								<name>Angle</name>
								<valuemin>-180</valuemin>
								<valuemax>180</valuemax>
								<value>-33</value>
							</parameter>
							<parameter>
								<parameterid>m_mag</parameterid>
								<name>Magnitude</name>
								<valuemin>0</valuemin>
								<valuemax>200</valuemax>
								<value>0</value>
							</parameter>
							<parameter>
								<parameterid>label3</parameterid>
								<name>Highlight Controls</name>
								<value/>
							</parameter>
							<parameter>
								<parameterid>highlights</parameterid>
								<name>Level</name>
								<valuemin>64</valuemin>
								<valuemax>509</valuemax>
								<value>266</value>
							</parameter>
							<parameter>
								<parameterid>h_hue</parameterid>
								<name>Angle</name>
								<valuemin>-180</valuemin>
								<valuemax>180</valuemax>
								<value>-33</value>
							</parameter>
							<parameter>
								<parameterid>h_mag</parameterid>
								<name>Magnitude</name>
								<valuemin>0</valuemin>
								<valuemax>200</valuemax>
								<value>0</value>
							</parameter>
							<parameter>
								<parameterid>label4</parameterid>
								<name>Color Controls</name>
								<value/>
							</parameter>
							<parameter>
								<parameterid>chroma</parameterid>
								<name>Saturation</name>
								<valuemin>0</valuemin>
								<valuemax>200</valuemax>
								<value>109</value>
							</parameter>
							<parameter>
								<parameterid>label5</parameterid>
								<name>Limit Effect Controls</name>
								<value/>
							</parameter>
							<parameter>
								<parameterid>dochroma</parameterid>
								<name>Limit on Chroma</name>
								<value>FALSE</value>
							</parameter>
							<parameter>
								<parameterid>centerang</parameterid>
								<name>Chroma Center</name>
								<valuemin>-760</valuemin>
								<valuemax>760</valuemax>
								<value>-110</value>
							</parameter>
							<parameter>
								<parameterid>chromawidth</parameterid>
								<name>Chroma Width</name>
								<valuemin>0</valuemin>
								<valuemax>360</valuemax>
								<value>15</value>
							</parameter>
							<parameter>
								<parameterid>chromasoft</parameterid>
								<name>Chroma Softness</name>
								<valuemin>0</valuemin>
								<valuemax>180</valuemax>
								<value>10</value>
							</parameter>
							<parameter>
								<parameterid>dosat</parameterid>
								<name>Limit on Saturation</name>
								<value>FALSE</value>
							</parameter>
							<parameter>
								<parameterid>satmin</parameterid>
								<name>Sat. Minimum</name>
								<valuemin>0</valuemin>
								<valuemax>125</valuemax>
								<value>35</value>
							</parameter>
							<parameter>
								<parameterid>satwidth</parameterid>
								<name>Sat. Width</name>
								<valuemin>0</valuemin>
								<valuemax>125</valuemax>
								<value>40</value>
							</parameter>
							<parameter>
								<parameterid>satsoft</parameterid>
								<name>Sat. Softness</name>
								<valuemin>0</valuemin>
								<valuemax>125</valuemax>
								<value>20</value>
							</parameter>
							<parameter>
								<parameterid>doluma</parameterid>
								<name>Limit on Luma</name>
								<value>FALSE</value>
							</parameter>
							<parameter>
								<parameterid>lumamin</parameterid>
								<name>Luma Minimum</name>
								<valuemin>0</valuemin>
								<valuemax>120</valuemax>
								<value>0</value>
							</parameter>
							<parameter>
								<parameterid>lumawidth</parameterid>
								<name>Luma Width</name>
								<valuemin>0</valuemin>
								<valuemax>120</valuemax>
								<value>40</value>
							</parameter>
							<parameter>
								<parameterid>lumasoft</parameterid>
								<name>Luma Softness</name>
								<valuemin>0</valuemin>
								<valuemax>120</valuemax>
								<value>20</value>
							</parameter>
							<parameter>
								<parameterid>label6</parameterid>
								<name>Edge Control</name>
								<value/>
							</parameter>
							<parameter>
								<parameterid>edgethin</parameterid>
								<name>Thin/Spread</name>
								<valuemin>-100</valuemin>
								<valuemax>100</valuemax>
								<value>0</value>
							</parameter>
							<parameter>
								<parameterid>edgefeather</parameterid>
								<name>Softening</name>
								<valuemin>0</valuemin>
								<valuemax>100</valuemax>
								<value>0</value>
							</parameter>
							<parameter>
								<parameterid>label7</parameterid>
								<name>Mask Control</name>
								<value/>
							</parameter>
							<parameter>
								<parameterid>invertsel</parameterid>
								<name>Invert</name>
								<value>FALSE</value>
							</parameter>
							<parameter>
								<parameterid>debugshow</parameterid>
								<name>Show Stats</name>
								<value>FALSE</value>
							</parameter>
						</effect>
					</filter>
					<filter>
						<effect>
							<name>Basic Motion</name>
							<effectid>basic</effectid>
							<effectcategory>motion</effectcategory>
							<effecttype>motion</effecttype>
							<mediatype>video</mediatype>
							<parameter>
								<parameterid>scale</parameterid>
								<name>Scale</name>
								<valuemin>0</valuemin>
								<valuemax>1000</valuemax>
								<value>100</value>
							</parameter>
							<parameter>
								<parameterid>rotation</parameterid>
								<name>Rotation</name>
								<valuemin>-8640</valuemin>
								<valuemax>8640</valuemax>
								<value>0</value>
							</parameter>
							<parameter>
								<parameterid>center</parameterid>
								<name>Center</name>
								<value>
									<horiz>0</horiz>
									<vert>0</vert>
								</value>
							</parameter>
							<parameter>
								<parameterid>centerOffset</parameterid>
								<name>Anchor Point</name>
								<value>
									<horiz>0</horiz>
									<vert>0</vert>
								</value>
							</parameter>
						</effect>
					</filter>
					<filter>
						<enabled>FALSE</enabled>
						<effect>
							<name>Drop Shadow</name>
							<effectid>dropshadow</effectid>
							<effectcategory>motion</effectcategory>
							<effecttype>motion</effecttype>
							<mediatype>video</mediatype>
							<parameter>
								<parameterid>offset</parameterid>
								<name>offset</name>
								<valuemin>-100</valuemin>
								<valuemax>100</valuemax>
								<value>2</value>
							</parameter>
							<parameter>
								<parameterid>angle</parameterid>
								<name>angle</name>
								<valuemin>-720</valuemin>
								<valuemax>720</valuemax>
								<value>135</value>
							</parameter>
							<parameter>
								<parameterid>color</parameterid>
								<name>color</name>
								<value>
									<alpha>0</alpha>
									<red>0</red>
									<green>0</green>
									<blue>0</blue>
								</value>
							</parameter>
							<parameter>
								<parameterid>softness</parameterid>
								<name>softness</name>
								<valuemin>0</valuemin>
								<valuemax>100</valuemax>
								<value>10</value>
							</parameter>
							<parameter>
								<parameterid>opacity</parameterid>
								<name>opacity</name>
								<valuemin>0</valuemin>
								<valuemax>100</valuemax>
								<value>50</value>
							</parameter>
						</effect>
					</filter>
					<filter>
						<enabled>FALSE</enabled>
						<effect>
							<name>Motion Blur</name>
							<effectid>motionblur</effectid>
							<effectcategory>motion</effectcategory>
							<effecttype>motion</effecttype>
							<mediatype>video</mediatype>
							<parameter>
								<parameterid>duration</parameterid>
								<name>% Blur</name>
								<valuemin>0</valuemin>
								<valuemax>1000</valuemax>
								<value>500</value>
							</parameter>
							<parameter>
								<parameterid>samples</parameterid>
								<name>Samples</name>
								<valuemin>1</valuemin>
								<valuemax>16</valuemax>
								<value>4</value>
							</parameter>
						</effect>
					</filter>
					<filter>
						<effect>
							<name>Crop</name>
							<effectid>crop</effectid>
							<effectcategory>motion</effectcategory>
							<effecttype>motion</effecttype>
							<mediatype>video</mediatype>
							<parameter>
								<parameterid>left</parameterid>
								<name>left</name>
								<valuemin>0</valuemin>
								<valuemax>100</valuemax>
								<value>0</value>
							</parameter>
							<parameter>
								<parameterid>right</parameterid>
								<name>right</name>
								<valuemin>0</valuemin>
								<valuemax>100</valuemax>
								<value>0</value>
							</parameter>
							<parameter>
								<parameterid>top</parameterid>
								<name>top</name>
								<valuemin>0</valuemin>
								<valuemax>100</valuemax>
								<value>0</value>
							</parameter>
							<parameter>
								<parameterid>bottom</parameterid>
								<name>bottom</name>
								<valuemin>0</valuemin>
								<valuemax>100</valuemax>
								<value>0</value>
							</parameter>
							<parameter>
								<parameterid>edgefeather</parameterid>
								<name>edgefeather</name>
								<valuemin>0</valuemin>
								<valuemax>100</valuemax>
								<value>0</value>
							</parameter>
						</effect>
					</filter>
					<filter>
						<effect>
							<name>Distort</name>
							<effectid>deformation</effectid>
							<effectcategory>motion</effectcategory>
							<effecttype>motion</effecttype>
							<mediatype>video</mediatype>
							<parameter>
								<parameterid>ulcorner</parameterid>
								<name>Upper Left</name>
								<value>
									<horiz>-0.5</horiz>
									<vert>-0.5</vert>
								</value>
							</parameter>
							<parameter>
								<parameterid>urcorner</parameterid>
								<name>Upper Right</name>
								<value>
									<horiz>0.5</horiz>
									<vert>-0.5</vert>
								</value>
							</parameter>
							<parameter>
								<parameterid>lrcorner</parameterid>
								<name>Lower Right</name>
								<value>
									<horiz>0.5</horiz>
									<vert>0.5</vert>
								</value>
							</parameter>
							<parameter>
								<parameterid>llcorner</parameterid>
								<name>Lower Left</name>
								<value>
									<horiz>-0.5</horiz>
									<vert>0.5</vert>
								</value>
							</parameter>
							<parameter>
								<parameterid>aspect</parameterid>
								<name>Aspect</name>
								<valuemin>-10000</valuemin>
								<valuemax>10000</valuemax>
								<value>0</value>
							</parameter>
						</effect>
					</filter>
					<filter>
						<effect>
							<name>Opacity</name>
							<effectid>opacity</effectid>
							<effectcategory>motion</effectcategory>
							<effecttype>motion</effecttype>
							<mediatype>video</mediatype>
							<parameter>
								<parameterid>opacity</parameterid>
								<name>opacity</name>
								<valuemin>0</valuemin>
								<valuemax>100</valuemax>
								<value>100</value>
							</parameter>
						</effect>
					</filter>
					<sourcetrack>
						<mediatype>video</mediatype>
					</sourcetrack>
					<fielddominance>upper</fielddominance>
					<itemhistory>
						<uuid>6C660349-8852-4F3D-BC47-B71B26B1892A</uuid>
					</itemhistory>
				</clipitem>
				<transitionitem>
					<rate>
						<ntsc>FALSE</ntsc>
						<timebase>25</timebase>
					</rate>
					<start>14575</start>
					<end>14590</end>
					<alignment>center</alignment>
					<effect>
						<name>G Lens Flare Tords garasje</name>
						<effectcategory>Nattress Big Box Of Tricks</effectcategory>
						<effecttype>transition</effecttype>
						<mediatype>video</mediatype>
						<startratio>0</startratio>
						<endratio>1</endratio>
						<reverse>FALSE</reverse>
						<parameter>
							<parameterid>dispvar1</parameterid>
							<name>Display Settings</name>
							<value>string</value>
						</parameter>
						<parameter>
							<parameterid>inputvar1</parameterid>
							<name>Flare Position</name>
							<value>string</value>
						</parameter>
						<parameter>
							<parameterid>theangle</parameterid>
							<name>Transition Direction</name>
							<valuemin>-360</valuemin>
							<valuemax>360</valuemax>
							<value>90</value>
						</parameter>
						<parameter>
							<parameterid>transitionblendduration</parameterid>
							<name>Blend Duration</name>
							<valuemin>0</valuemin>
							<valuemax>100</valuemax>
							<value>50</value>
						</parameter>
						<parameter>
							<parameterid>settingsvar1</parameterid>
							<name>Flare Settings</name>
							<value>string</value>
						</parameter>
						<parameter>
							<parameterid>presets</parameterid>
							<name>Preset Select</name>
							<valuemin>1</valuemin>
							<valuemax>4</valuemax>
							<valuelist>
								<valueentry>
									<name>Custom Controls</name>
									<value>1</value>
								</valueentry>
								<valueentry>
									<name>Other End of the Rainbow</name>
									<value>2</value>
								</valueentry>
								<valueentry>
									<name>Photon</name>
									<value>3</value>
								</valueentry>
								<valueentry>
									<name>Gaudy</name>
									<value>4</value>
								</valueentry>
							</valuelist>
							<value>1</value>
						</parameter>
						<parameter>
							<parameterid>randomevolution</parameterid>
							<name>Randomness Evolution</name>
							<valuemin>0</valuemin>
							<valuemax>1</valuemax>
							<value>0.05</value>
						</parameter>
						<parameter>
							<parameterid>flareaspect</parameterid>
							<name>Aspect</name>
							<valuemin>0.1</valuemin>
							<valuemax>10</valuemax>
							<value>1</value>
						</parameter>
						<parameter>
							<parameterid>flareintensity</parameterid>
							<name>Overall Intensity</name>
							<valuemin>0</valuemin>
							<valuemax>400</valuemax>
							<value>300</value>
						</parameter>
						<parameter>
							<parameterid>therandomseed</parameterid>
							<name>Random Seed</name>
							<valuemin>0</valuemin>
							<valuemax>100</valuemax>
							<value>100</value>
						</parameter>
						<parameter>
							<parameterid>settingsvar2</parameterid>
							<name>   Bloom</name>
							<value>string</value>
						</parameter>
						<parameter>
							<parameterid>bloomon</parameterid>
							<name>Bloom On?</name>
							<value>TRUE</value>
						</parameter>
						<parameter>
							<parameterid>bloomcolour</parameterid>
							<name>Bloom Colour</name>
							<value>
								<alpha>255</alpha>
								<red>218</red>
								<green>224</green>
								<blue>254</blue>
							</value>
						</parameter>
						<parameter>
							<parameterid>bloomcolourfromimage</parameterid>
							<name>Use Image for Bloom Colour?</name>
							<value>FALSE</value>
						</parameter>
						<parameter>
							<parameterid>bloomintensity</parameterid>
							<name>Intensity</name>
							<valuemin>0</valuemin>
							<valuemax>100</valuemax>
							<value>90</value>
						</parameter>
						<parameter>
							<parameterid>bloomradius</parameterid>
							<name>Radius</name>
							<valuemin>0</valuemin>
							<valuemax>200</valuemax>
							<value>45</value>
						</parameter>
						<parameter>
							<parameterid>bloomfalloff</parameterid>
							<name>Fall Off</name>
							<valuemin>0</valuemin>
							<valuemax>100</valuemax>
							<value>75</value>
						</parameter>
						<parameter>
							<parameterid>bloomstarry</parameterid>
							<name>Starry</name>
							<valuemin>0</valuemin>
							<valuemax>100</valuemax>
							<value>10</value>
						</parameter>
						<parameter>
							<parameterid>bloomstarpoints</parameterid>
							<name>Star Points</name>
							<valuemin>0</valuemin>
							<valuemax>100</valuemax>
							<value>7</value>
						</parameter>
						<parameter>
							<parameterid>settingsvar3</parameterid>
							<name>   StarBurst</name>
							<value>string</value>
						</parameter>
						<parameter>
							<parameterid>starburston</parameterid>
							<name>StarBurst On?</name>
							<value>TRUE</value>
						</parameter>
						<parameter>
							<parameterid>starburstcolour</parameterid>
							<name>StarBurst Colour</name>
							<value>
								<alpha>255</alpha>
								<red>254</red>
								<green>224</green>
								<blue>218</blue>
							</value>
						</parameter>
						<parameter>
							<parameterid>starburstintensity</parameterid>
							<name>Intensity</name>
							<valuemin>0</valuemin>
							<valuemax>100</valuemax>
							<value>75</value>
						</parameter>
						<parameter>
							<parameterid>starburstradius</parameterid>
							<name>Radius</name>
							<valuemin>0</valuemin>
							<valuemax>150</valuemax>
							<value>75</value>
						</parameter>
						<parameter>
							<parameterid>starburststarpoints</parameterid>
							<name>Star Points</name>
							<valuemin>0</valuemin>
							<valuemax>200</valuemax>
							<value>90</value>
						</parameter>
						<parameter>
							<parameterid>starcentre</parameterid>
							<name>Centre Size</name>
							<valuemin>0</valuemin>
							<valuemax>100</valuemax>
							<value>75</value>
						</parameter>
						<parameter>
							<parameterid>starfalloff</parameterid>
							<name>Fall Off</name>
							<valuemin>0</valuemin>
							<valuemax>100</valuemax>
							<value>75</value>
						</parameter>
						<parameter>
							<parameterid>starburstrandom</parameterid>
							<name>Randomness</name>
							<valuemin>0</valuemin>
							<valuemax>4</valuemax>
							<value>0.4</value>
						</parameter>
						<parameter>
							<parameterid>settingsvar4</parameterid>
							<name>   Rainbow</name>
							<value>string</value>
						</parameter>
						<parameter>
							<parameterid>rainbowon</parameterid>
							<name>Rainbow On?</name>
							<value>TRUE</value>
						</parameter>
						<parameter>
							<parameterid>rainbowcolors</parameterid>
							<name>Colour Type</name>
							<valuemin>1</valuemin>
							<valuemax>2</valuemax>
							<valuelist>
								<valueentry>
									<name>Rainbow</name>
									<value>1</value>
								</valueentry>
								<valueentry>
									<name>User Colour</name>
									<value>2</value>
								</valueentry>
							</valuelist>
							<value>1</value>
						</parameter>
						<parameter>
							<parameterid>rainbowusercolor</parameterid>
							<name>User Colour</name>
							<value>
								<alpha>255</alpha>
								<red>230</red>
								<green>110</green>
								<blue>22</blue>
							</value>
						</parameter>
						<parameter>
							<parameterid>rainbowposition</parameterid>
							<name>Position</name>
							<valuemin>-200</valuemin>
							<valuemax>200</valuemax>
							<value>100</value>
						</parameter>
						<parameter>
							<parameterid>rainbowintensity</parameterid>
							<name>Intensity</name>
							<valuemin>0</valuemin>
							<valuemax>100</valuemax>
							<value>20</value>
						</parameter>
						<parameter>
							<parameterid>rainbowradius</parameterid>
							<name>Radius</name>
							<valuemin>0</valuemin>
							<valuemax>200</valuemax>
							<value>50</value>
						</parameter>
						<parameter>
							<parameterid>rainbowthickness</parameterid>
							<name>Thickness</name>
							<valuemin>0</valuemin>
							<valuemax>1</valuemax>
							<value>0.15</value>
						</parameter>
						<parameter>
							<parameterid>rainbowsharpness</parameterid>
							<name>Sharpness</name>
							<valuemin>0</valuemin>
							<valuemax>1</valuemax>
							<value>0.65</value>
						</parameter>
						<parameter>
							<parameterid>settingsvar5</parameterid>
							<name>   Spots</name>
							<value>string</value>
						</parameter>
						<parameter>
							<parameterid>spotson</parameterid>
							<name>Spots On?</name>
							<value>TRUE</value>
						</parameter>
						<parameter>
							<parameterid>spotsnumber</parameterid>
							<name>Number</name>
							<valuemin>0</valuemin>
							<valuemax>100</valuemax>
							<value>12</value>
						</parameter>
						<parameter>
							<parameterid>spotsintensity</parameterid>
							<name>Intensity</name>
							<valuemin>0</valuemin>
							<valuemax>100</valuemax>
							<value>80</value>
						</parameter>
						<parameter>
							<parameterid>spotsradius</parameterid>
							<name>Radius</name>
							<valuemin>0</valuemin>
							<valuemax>150</valuemax>
							<value>30</value>
						</parameter>
						<parameter>
							<parameterid>spotsdisky</parameterid>
							<name>Disky</name>
							<valuemin>0</valuemin>
							<valuemax>100</valuemax>
							<value>75</value>
						</parameter>
						<parameter>
							<parameterid>spotsringy</parameterid>
							<name>Ringy</name>
							<valuemin>0</valuemin>
							<valuemax>100</valuemax>
							<value>75</value>
						</parameter>
						<parameter>
							<parameterid>spotsblotty</parameterid>
							<name>Blotty</name>
							<valuemin>0</valuemin>
							<valuemax>100</valuemax>
							<value>75</value>
						</parameter>
						<parameter>
							<parameterid>spotsbloony</parameterid>
							<name>Bloony</name>
							<valuemin>0</valuemin>
							<valuemax>100</valuemax>
							<value>75</value>
						</parameter>
						<parameter>
							<parameterid>spotsvarycolour</parameterid>
							<name>Vary Colour</name>
							<valuemin>0</valuemin>
							<valuemax>100</valuemax>
							<value>31</value>
						</parameter>
						<parameter>
							<parameterid>spotsbasehue</parameterid>
							<name>Base Hue</name>
							<valuemin>0</valuemin>
							<valuemax>100</valuemax>
							<value>72</value>
						</parameter>
						<parameter>
							<parameterid>spotssaturation</parameterid>
							<name>Saturation</name>
							<valuemin>0</valuemin>
							<valuemax>100</valuemax>
							<value>20</value>
						</parameter>
						<parameter>
							<parameterid>copyright</parameterid>
							<name>©www.nattress.com</name>
							<value>string</value>
						</parameter>
					</effect>
				</transitionitem>
				<clipitem id="DYR19725_01 ">
					<name>DYR19725_01</name>
					<duration>2183</duration>
					<rate>
						<ntsc>FALSE</ntsc>
						<timebase>25</timebase>
					</rate>
					<in>1038</in>
					<out>1266</out>
					<start>-1</start>
					<end>14803</end>
					<pixelaspectratio>Square</pixelaspectratio>
					<enabled>TRUE</enabled>
					<anamorphic>FALSE</anamorphic>
					<alphatype>none</alphatype>
					<masterclipid>DYR19725_01 1</masterclipid>
					<logginginfo>
						<scene/>
						<shottake/>
						<lognote/>
						<good>FALSE</good>
					</logginginfo>
					<labels>
						<label2/>
					</labels>
					<comments>
						<mastercomment1/>
						<mastercomment2/>
						<mastercomment3/>
						<mastercomment4/>
					</comments>
					<file id="DYR19725_01 2">
						<name>DYR19725_01.mov</name>
						<pathurl>file://localhost/Volumes/Askepott/Prosjekter/DNPR637010_Kra%CC%8Akeklubben_TEM_011212/Video/TORDS%20GARASJE/SJ%C3%98DYR/Reke/DYR19725_01.mov</pathurl>
						<rate>
							<timebase>25</timebase>
						</rate>
						<duration>2183</duration>
						<metadata>
							<storage>QuickTime</storage>
							<key>com.sony.bprl.xdcamtransfer.version</key>
							<size>10</size>
							<type>UTF8</type>
							<value>2.12.0.631</value>
						</metadata>
						<metadata>
							<storage>QuickTime</storage>
							<key>org.smpte.mxf.package.material.packageid</key>
							<size>66</size>
							<type>UTF8</type>
							<value>0x060a2b340101010501010d4313000000184a9d7e885505df08004602022f05f5</value>
						</metadata>
						<metadata>
							<storage>QuickTime</storage>
							<key>com.sony.professionaldisc.nonrealtimemeta.lastupdate</key>
							<size>25</size>
							<type>UTF8</type>
							<value>2011-01-27 12:53:40 +0100</value>
						</metadata>
						<metadata>
							<storage>QuickTime</storage>
							<key>com.sony.bprl.mxf.umid</key>
							<size>64</size>
							<type>UTF8</type>
							<value>060a2b340101010501010d4313000000184a9d7e885505df08004602022f05f5</value>
						</metadata>
						<metadata>
							<storage>QuickTime</storage>
							<key>com.sony.bprl.mxf.nrtmetadata</key>
							<size>1994</size>
							<type>UTF8</type>
							<value>&lt;?xml version="1.0" encoding="UTF-8"?>&lt;NonRealTimeMeta xmlns="urn:schemas-professionalDisc:nonRealTimeMeta:ver.1.20" xmlns:lib="urn:schemas-professionalDisc:lib:ver.1.20" xmlns:xsi="http://www.w3.org/2001/XMLSchema-instance" lastUpdate="2011-01-27T12:53:40+01:00">&lt;TargetMaterial umidRef="060A2B340101010501010D4313000000184A9D7E885505DF08004602022F05F5">&lt;/TargetMaterial>&lt;Duration value="2183">&lt;/Duration>&lt;LtcChangeTable tcFps="25" halfStep="false">&lt;LtcChange frameCount="0" value="13291602" status="increment">&lt;/LtcChange>&lt;LtcChange frameCount="2182" value="20561702" status="end">&lt;/LtcChange>&lt;/LtcChangeTable>&lt;CreationDate value="2011-01-27T12:52:12+01:00">&lt;/CreationDate>&lt;TypicalUbit value="0000000017061020">&lt;/TypicalUbit>&lt;BodyUmidBasicChangeTable>&lt;BodyUmidBasicChange frameCount="0" value="060A2B340101010501010D4333000000184A9D7E885505DF08004602022F05F5" status="start">&lt;/BodyUmidBasicChange>&lt;/BodyUmidBasicChangeTable>&lt;BodyUmidWhenChangeTable>&lt;BodyUmidWhenChange frameCount="0" value="84471304885505A5" status="increment">&lt;/BodyUmidWhenChange>&lt;BodyUmidWhenChange frameCount="2182" value="04691504885505A5" status="end">&lt;/BodyUmidWhenChange>&lt;/BodyUmidWhenChangeTable>&lt;KlvPacketTable>&lt;KlvPacket key="060E2B34010101050301020A02000000" frameCount="0" lengthValue="095F5265635374617274" status="spot">&lt;/KlvPacket>&lt;/KlvPacketTable>&lt;VideoFormat>&lt;VideoRecPort port="DIRECT">&lt;/VideoRecPort>&lt;VideoFrame videoCodec="MPEG2HD35_1920_1080_MP@HL" captureFps="50.00i" recFps="50.00" formatFps="50i">&lt;/VideoFrame>&lt;VideoLayout pixel="1920" numOfVerticalLine="1080" aspectRatio="16:9">&lt;/VideoLayout>&lt;/VideoFormat>&lt;AudioFormat numOfChannel="2">&lt;AudioRecPort port="ANALOG" audioCodec="LPCM16" trackDst="CH1">&lt;/AudioRecPort>&lt;AudioRecPort port="DIRECT" audioCodec="LPCM16" trackDst="CH2">&lt;/AudioRecPort>&lt;/AudioFormat>&lt;Device manufacturer="Sony" modelName="PMW-EX3" serialNo="0401525">&lt;/Device>&lt;Lens modelName="VCL-614B2X">&lt;/Lens>&lt;RecordingMode type="normal" cacheRec="false">&lt;/RecordingMode>&lt;/NonRealTimeMeta>
							</value>
						</metadata>
						<metadata>
							<storage>QuickTime</storage>
							<key>com.apple.proapps.reel</key>
							<size>8</size>
							<type>UTF8</type>
							<value>Untitled</value>
						</metadata>
						<metadata>
							<storage>QuickTime</storage>
							<key>com.apple.proapps.clipID</key>
							<size>64</size>
							<type>UTF8</type>
							<value>060A2B340101010501010D4313000000184A9D7E885505DF08004602022F05F5</value>
						</metadata>
						<metadata>
							<storage>QuickTime</storage>
							<key>com.apple.quicktime.information</key>
							<size>64</size>
							<type>UTF8</type>
							<value>060a2b340101010501010d4313000000184a9d7e885505df08004602022f05f5</value>
						</metadata>
						<metadata>
							<storage>QuickTime</storage>
							<key>com.apple.proapps.originalFormat</key>
							<size>36</size>
							<type>UTF8</type>
							<value>Apple XDCAM EX 1080i50 (35 Mb/s VBR)</value>
						</metadata>
						<timecode>
							<rate>
								<timebase>25</timebase>
							</rate>
							<string>02:16:29:13</string>
							<frame>204738</frame>
							<displayformat>NDF</displayformat>
							<source>source</source>
							<reel>
								<name>Untitled</name>
							</reel>
						</timecode>
						<media>
							<video>
								<duration>2183</duration>
								<samplecharacteristics>
									<width>1920</width>
									<height>1080</height>
								</samplecharacteristics>
							</video>
							<audio>
								<samplecharacteristics>
									<samplerate>48000</samplerate>
									<depth>16</depth>
								</samplecharacteristics>
								<channelcount>1</channelcount>
								<layout>mono</layout>
								<audiochannel>
									<sourcechannel>1</sourcechannel>
									<channellabel>discrete</channellabel>
								</audiochannel>
							</audio>
							<audio>
								<samplecharacteristics>
									<samplerate>48000</samplerate>
									<depth>16</depth>
								</samplecharacteristics>
								<channelcount>1</channelcount>
								<layout>mono</layout>
								<audiochannel>
									<sourcechannel>2</sourcechannel>
									<channellabel>discrete</channellabel>
								</audiochannel>
							</audio>
						</media>
					</file>
					<sourcetrack>
						<mediatype>video</mediatype>
					</sourcetrack>
					<link>
						<linkclipref>DYR19725_01 </linkclipref>
						<mediatype>video</mediatype>
						<trackindex>1</trackindex>
						<clipindex>133</clipindex>
					</link>
					<link>
						<linkclipref>DYR19725_01 3</linkclipref>
						<mediatype>audio</mediatype>
						<trackindex>1</trackindex>
						<clipindex>80</clipindex>
					</link>
					<link>
						<linkclipref>DYR19725_01 4</linkclipref>
						<mediatype>audio</mediatype>
						<trackindex>2</trackindex>
						<clipindex>75</clipindex>
					</link>
					<fielddominance>upper</fielddominance>
					<itemhistory>
						<uuid>0FE64593-CC3D-4F68-9257-D6D56F6FB195</uuid>
					</itemhistory>
				</clipitem>
				<clipitem id="DYR19728_01 ">
					<name>DYR19728_01</name>
					<duration>2140</duration>
					<rate>
						<ntsc>FALSE</ntsc>
						<timebase>25</timebase>
					</rate>
					<in>292</in>
					<out>443</out>
					<start>14803</start>
					<end>-1</end>
					<pixelaspectratio>Square</pixelaspectratio>
					<anamorphic>FALSE</anamorphic>
					<alphatype>none</alphatype>
					<masterclipid>DYR19728_01 1</masterclipid>
					<logginginfo>
						<scene/>
						<shottake/>
						<lognote/>
						<good>FALSE</good>
					</logginginfo>
					<labels>
						<label2/>
					</labels>
					<comments>
						<mastercomment1/>
						<mastercomment2/>
						<mastercomment3/>
						<mastercomment4/>
					</comments>
					<file id="DYR19728_01 2">
						<name>DYR19728_01.mov</name>
						<pathurl>file://localhost/Volumes/Askepott/Prosjekter/DNPR637010_Kra%CC%8Akeklubben_TEM_011212/Video/TORDS%20GARASJE/SJ%C3%98DYR/Reke/DYR19728_01.mov</pathurl>
						<rate>
							<timebase>25</timebase>
						</rate>
						<duration>2140</duration>
						<metadata>
							<storage>QuickTime</storage>
							<key>com.sony.bprl.xdcamtransfer.version</key>
							<size>10</size>
							<type>UTF8</type>
							<value>2.12.0.631</value>
						</metadata>
						<metadata>
							<storage>QuickTime</storage>
							<key>org.smpte.mxf.package.material.packageid</key>
							<size>66</size>
							<type>UTF8</type>
							<value>0x060a2b340101010501010d431300000012ac617f885505cc08004602022f05f5</value>
						</metadata>
						<metadata>
							<storage>QuickTime</storage>
							<key>com.sony.professionaldisc.nonrealtimemeta.lastupdate</key>
							<size>25</size>
							<type>UTF8</type>
							<value>2011-01-27 12:57:57 +0100</value>
						</metadata>
						<metadata>
							<storage>QuickTime</storage>
							<key>com.sony.bprl.mxf.umid</key>
							<size>64</size>
							<type>UTF8</type>
							<value>060a2b340101010501010d431300000012ac617f885505cc08004602022f05f5</value>
						</metadata>
						<metadata>
							<storage>QuickTime</storage>
							<key>com.sony.bprl.mxf.nrtmetadata</key>
							<size>1994</size>
							<type>UTF8</type>
							<value>&lt;?xml version="1.0" encoding="UTF-8"?>&lt;NonRealTimeMeta xmlns="urn:schemas-professionalDisc:nonRealTimeMeta:ver.1.20" xmlns:lib="urn:schemas-professionalDisc:lib:ver.1.20" xmlns:xsi="http://www.w3.org/2001/XMLSchema-instance" lastUpdate="2011-01-27T12:57:57+01:00">&lt;TargetMaterial umidRef="060A2B340101010501010D431300000012AC617F885505CC08004602022F05F5">&lt;/TargetMaterial>&lt;Duration value="2140">&lt;/Duration>&lt;LtcChangeTable tcFps="25" halfStep="false">&lt;LtcChange frameCount="0" value="10311802" status="increment">&lt;/LtcChange>&lt;LtcChange frameCount="2139" value="24561902" status="end">&lt;/LtcChange>&lt;/LtcChangeTable>&lt;CreationDate value="2011-01-27T12:56:31+01:00">&lt;/CreationDate>&lt;TypicalUbit value="0000000017061020">&lt;/TypicalUbit>&lt;BodyUmidBasicChangeTable>&lt;BodyUmidBasicChange frameCount="0" value="060A2B340101010501010D433300000012AC617F885505CC08004602022F05F5" status="start">&lt;/BodyUmidBasicChange>&lt;/BodyUmidBasicChangeTable>&lt;BodyUmidWhenChangeTable>&lt;BodyUmidWhenChange frameCount="0" value="84991904885505A5" status="increment">&lt;/BodyUmidWhenChange>&lt;BodyUmidWhenChange frameCount="2139" value="44B01B04885505A5" status="end">&lt;/BodyUmidWhenChange>&lt;/BodyUmidWhenChangeTable>&lt;KlvPacketTable>&lt;KlvPacket key="060E2B34010101050301020A02000000" frameCount="0" lengthValue="095F5265635374617274" status="spot">&lt;/KlvPacket>&lt;/KlvPacketTable>&lt;VideoFormat>&lt;VideoRecPort port="DIRECT">&lt;/VideoRecPort>&lt;VideoFrame videoCodec="MPEG2HD35_1920_1080_MP@HL" captureFps="50.00i" recFps="50.00" formatFps="50i">&lt;/VideoFrame>&lt;VideoLayout pixel="1920" numOfVerticalLine="1080" aspectRatio="16:9">&lt;/VideoLayout>&lt;/VideoFormat>&lt;AudioFormat numOfChannel="2">&lt;AudioRecPort port="ANALOG" audioCodec="LPCM16" trackDst="CH1">&lt;/AudioRecPort>&lt;AudioRecPort port="DIRECT" audioCodec="LPCM16" trackDst="CH2">&lt;/AudioRecPort>&lt;/AudioFormat>&lt;Device manufacturer="Sony" modelName="PMW-EX3" serialNo="0401525">&lt;/Device>&lt;Lens modelName="VCL-614B2X">&lt;/Lens>&lt;RecordingMode type="normal" cacheRec="false">&lt;/RecordingMode>&lt;/NonRealTimeMeta>
							</value>
						</metadata>
						<metadata>
							<storage>QuickTime</storage>
							<key>com.apple.proapps.reel</key>
							<size>8</size>
							<type>UTF8</type>
							<value>Untitled</value>
						</metadata>
						<metadata>
							<storage>QuickTime</storage>
							<key>com.apple.proapps.clipID</key>
							<size>64</size>
							<type>UTF8</type>
							<value>060A2B340101010501010D431300000012AC617F885505CC08004602022F05F5</value>
						</metadata>
						<metadata>
							<storage>QuickTime</storage>
							<key>com.apple.quicktime.information</key>
							<size>64</size>
							<type>UTF8</type>
							<value>060a2b340101010501010d431300000012ac617f885505cc08004602022f05f5</value>
						</metadata>
						<metadata>
							<storage>QuickTime</storage>
							<key>com.apple.proapps.originalFormat</key>
							<size>36</size>
							<type>UTF8</type>
							<value>Apple XDCAM EX 1080i50 (35 Mb/s VBR)</value>
						</metadata>
						<timecode>
							<rate>
								<timebase>25</timebase>
							</rate>
							<string>02:18:31:10</string>
							<frame>207785</frame>
							<displayformat>NDF</displayformat>
							<source>source</source>
							<reel>
								<name>Untitled</name>
							</reel>
						</timecode>
						<media>
							<video>
								<duration>2140</duration>
								<samplecharacteristics>
									<width>1920</width>
									<height>1080</height>
								</samplecharacteristics>
							</video>
							<audio>
								<samplecharacteristics>
									<samplerate>48000</samplerate>
									<depth>16</depth>
								</samplecharacteristics>
								<channelcount>1</channelcount>
								<layout>mono</layout>
								<audiochannel>
									<sourcechannel>1</sourcechannel>
									<channellabel>discrete</channellabel>
								</audiochannel>
							</audio>
							<audio>
								<samplecharacteristics>
									<samplerate>48000</samplerate>
									<depth>16</depth>
								</samplecharacteristics>
								<channelcount>1</channelcount>
								<layout>mono</layout>
								<audiochannel>
									<sourcechannel>2</sourcechannel>
									<channellabel>discrete</channellabel>
								</audiochannel>
							</audio>
						</media>
					</file>
					<sourcetrack>
						<mediatype>video</mediatype>
					</sourcetrack>
					<link>
						<linkclipref>DYR19728_01 </linkclipref>
						<mediatype>video</mediatype>
						<trackindex>1</trackindex>
						<clipindex>134</clipindex>
					</link>
					<link>
						<linkclipref>DYR19728_01 3</linkclipref>
						<mediatype>audio</mediatype>
						<trackindex>1</trackindex>
						<clipindex>81</clipindex>
					</link>
					<link>
						<linkclipref>DYR19728_01 4</linkclipref>
						<mediatype>audio</mediatype>
						<trackindex>2</trackindex>
						<clipindex>76</clipindex>
					</link>
					<fielddominance>upper</fielddominance>
					<itemhistory>
						<uuid>2229ACFC-27E0-40BD-AAA9-58323A63CE53</uuid>
					</itemhistory>
				</clipitem>
				<transitionitem>
					<rate>
						<ntsc>FALSE</ntsc>
						<timebase>25</timebase>
					</rate>
					<start>14929</start>
					<end>14954</end>
					<alignment>center</alignment>
					<effect>
						<name>Cross Dissolve</name>
						<effectid>Cross Dissolve</effectid>
						<effectcategory>Dissolve</effectcategory>
						<effecttype>transition</effecttype>
						<mediatype>video</mediatype>
						<wipecode>0</wipecode>
						<wipeaccuracy>100</wipeaccuracy>
						<startratio>0</startratio>
						<endratio>1</endratio>
						<reverse>FALSE</reverse>
					</effect>
				</transitionitem>
				<clipitem id="MVI_6470 ">
					<name>MVI_6470</name>
					<duration>534</duration>
					<rate>
						<ntsc>FALSE</ntsc>
						<timebase>25</timebase>
					</rate>
					<in>203</in>
					<out>298</out>
					<start>-1</start>
					<end>-1</end>
					<pixelaspectratio>Square</pixelaspectratio>
					<enabled>TRUE</enabled>
					<anamorphic>FALSE</anamorphic>
					<alphatype>none</alphatype>
					<masterclipid>MVI_6470 1</masterclipid>
					<logginginfo>
						<scene/>
						<shottake/>
						<lognote/>
						<good>FALSE</good>
					</logginginfo>
					<labels>
						<label2/>
					</labels>
					<comments>
						<mastercomment1/>
						<mastercomment2/>
						<mastercomment3/>
						<mastercomment4/>
					</comments>
					<file id="MVI_6470 2">
						<name>MVI_6470.mov</name>
						<pathurl>file://localhost/Volumes/Askepott/Prosjekter/DNPR637010_Kra%CC%8Akeklubben_TEM_011212/Video/TORDS%20GARASJE/SJ%C3%98DYR/Reke/Apple%20ProRes%20422%20HQ/MVI_6470.mov</pathurl>
						<rate>
							<timebase>25</timebase>
						</rate>
						<duration>534</duration>
						<media>
							<video>
								<duration>534</duration>
								<samplecharacteristics>
									<width>1920</width>
									<height>1080</height>
								</samplecharacteristics>
							</video>
							<audio>
								<samplecharacteristics>
									<samplerate>48000</samplerate>
									<depth>16</depth>
								</samplecharacteristics>
								<channelcount>2</channelcount>
							</audio>
						</media>
					</file>
					<sourcetrack>
						<mediatype>video</mediatype>
					</sourcetrack>
					<link>
						<linkclipref>MVI_6470 </linkclipref>
						<mediatype>video</mediatype>
						<trackindex>1</trackindex>
						<clipindex>136</clipindex>
					</link>
					<link>
						<linkclipref>MVI_6470 3</linkclipref>
						<mediatype>audio</mediatype>
						<trackindex>1</trackindex>
						<clipindex>82</clipindex>
						<groupindex>1</groupindex>
					</link>
					<link>
						<linkclipref>MVI_6470 4</linkclipref>
						<mediatype>audio</mediatype>
						<trackindex>2</trackindex>
						<clipindex>77</clipindex>
						<groupindex>1</groupindex>
					</link>
					<fielddominance>upper</fielddominance>
					<itemhistory>
						<uuid>E8E2EA57-C299-4098-9AF1-9AC48D934C4E</uuid>
					</itemhistory>
				</clipitem>
				<transitionitem>
					<rate>
						<ntsc>FALSE</ntsc>
						<timebase>25</timebase>
					</rate>
					<start>14999</start>
					<end>15024</end>
					<alignment>center</alignment>
					<effect>
						<name>Cross Dissolve</name>
						<effectid>Cross Dissolve</effectid>
						<effectcategory>Dissolve</effectcategory>
						<effecttype>transition</effecttype>
						<mediatype>video</mediatype>
						<wipecode>0</wipecode>
						<wipeaccuracy>100</wipeaccuracy>
						<startratio>0</startratio>
						<endratio>1</endratio>
						<reverse>FALSE</reverse>
					</effect>
				</transitionitem>
				<clipitem id="MVI_6473 ">
					<name>MVI_6473</name>
					<duration>903</duration>
					<rate>
						<ntsc>FALSE</ntsc>
						<timebase>25</timebase>
					</rate>
					<in>281</in>
					<out>371</out>
					<start>-1</start>
					<end>-1</end>
					<pixelaspectratio>Square</pixelaspectratio>
					<enabled>TRUE</enabled>
					<anamorphic>FALSE</anamorphic>
					<alphatype>none</alphatype>
					<masterclipid>MVI_6473 1</masterclipid>
					<logginginfo>
						<scene/>
						<shottake/>
						<lognote/>
						<good>FALSE</good>
					</logginginfo>
					<labels>
						<label2/>
					</labels>
					<comments>
						<mastercomment1/>
						<mastercomment2/>
						<mastercomment3/>
						<mastercomment4/>
					</comments>
					<file id="MVI_6473 2">
						<name>MVI_6473.mov</name>
						<pathurl>file://localhost/Volumes/Askepott/Prosjekter/DNPR637010_Kra%CC%8Akeklubben_TEM_011212/Video/TORDS%20GARASJE/SJ%C3%98DYR/Reke/Apple%20ProRes%20422%20HQ/MVI_6473.mov</pathurl>
						<rate>
							<timebase>25</timebase>
						</rate>
						<duration>903</duration>
						<media>
							<video>
								<duration>903</duration>
								<samplecharacteristics>
									<width>1920</width>
									<height>1080</height>
								</samplecharacteristics>
							</video>
							<audio>
								<samplecharacteristics>
									<samplerate>48000</samplerate>
									<depth>16</depth>
								</samplecharacteristics>
								<channelcount>2</channelcount>
							</audio>
						</media>
					</file>
					<sourcetrack>
						<mediatype>video</mediatype>
					</sourcetrack>
					<link>
						<linkclipref>MVI_6473 </linkclipref>
						<mediatype>video</mediatype>
						<trackindex>1</trackindex>
						<clipindex>138</clipindex>
					</link>
					<link>
						<linkclipref>MVI_6473 3</linkclipref>
						<mediatype>audio</mediatype>
						<trackindex>1</trackindex>
						<clipindex>83</clipindex>
						<groupindex>1</groupindex>
					</link>
					<link>
						<linkclipref>MVI_6473 4</linkclipref>
						<mediatype>audio</mediatype>
						<trackindex>2</trackindex>
						<clipindex>78</clipindex>
						<groupindex>1</groupindex>
					</link>
					<fielddominance>upper</fielddominance>
					<itemhistory>
						<uuid>9B898E0A-0AB6-4EB6-AC9D-D710BE17CBB1</uuid>
					</itemhistory>
				</clipitem>
				<transitionitem>
					<rate>
						<ntsc>FALSE</ntsc>
						<timebase>25</timebase>
					</rate>
					<start>15064</start>
					<end>15089</end>
					<alignment>center</alignment>
					<effect>
						<name>Cross Dissolve</name>
						<effectid>Cross Dissolve</effectid>
						<effectcategory>Dissolve</effectcategory>
						<effecttype>transition</effecttype>
						<mediatype>video</mediatype>
						<wipecode>0</wipecode>
						<wipeaccuracy>100</wipeaccuracy>
						<startratio>0</startratio>
						<endratio>1</endratio>
						<reverse>FALSE</reverse>
					</effect>
				</transitionitem>
				<clipitem id="MVI_6481 ">
					<name>MVI_6481</name>
					<duration>483</duration>
					<rate>
						<ntsc>FALSE</ntsc>
						<timebase>25</timebase>
					</rate>
					<in>293</in>
					<out>397</out>
					<start>-1</start>
					<end>-1</end>
					<pixelaspectratio>Square</pixelaspectratio>
					<enabled>TRUE</enabled>
					<anamorphic>FALSE</anamorphic>
					<alphatype>none</alphatype>
					<masterclipid>MVI_6481 1</masterclipid>
					<logginginfo>
						<scene/>
						<shottake/>
						<lognote/>
						<good>FALSE</good>
					</logginginfo>
					<labels>
						<label2/>
					</labels>
					<comments>
						<mastercomment1/>
						<mastercomment2/>
						<mastercomment3/>
						<mastercomment4/>
					</comments>
					<file id="MVI_6481 2">
						<name>MVI_6481.mov</name>
						<pathurl>file://localhost/Volumes/Askepott/Prosjekter/DNPR637010_Kra%CC%8Akeklubben_TEM_011212/Video/TORDS%20GARASJE/SJ%C3%98DYR/Reke/Apple%20ProRes%20422%20HQ/MVI_6481.mov</pathurl>
						<rate>
							<timebase>25</timebase>
						</rate>
						<duration>483</duration>
						<media>
							<video>
								<duration>483</duration>
								<samplecharacteristics>
									<width>1920</width>
									<height>1080</height>
								</samplecharacteristics>
							</video>
							<audio>
								<samplecharacteristics>
									<samplerate>48000</samplerate>
									<depth>16</depth>
								</samplecharacteristics>
								<channelcount>2</channelcount>
							</audio>
						</media>
					</file>
					<sourcetrack>
						<mediatype>video</mediatype>
					</sourcetrack>
					<link>
						<linkclipref>MVI_6481 </linkclipref>
						<mediatype>video</mediatype>
						<trackindex>1</trackindex>
						<clipindex>140</clipindex>
					</link>
					<link>
						<linkclipref>MVI_6481 3</linkclipref>
						<mediatype>audio</mediatype>
						<trackindex>1</trackindex>
						<clipindex>84</clipindex>
						<groupindex>1</groupindex>
					</link>
					<link>
						<linkclipref>MVI_6481 4</linkclipref>
						<mediatype>audio</mediatype>
						<trackindex>2</trackindex>
						<clipindex>79</clipindex>
						<groupindex>1</groupindex>
					</link>
					<fielddominance>upper</fielddominance>
					<itemhistory>
						<uuid>A48463B3-B0A0-4B43-89F6-3C1B681B5FD8</uuid>
					</itemhistory>
				</clipitem>
				<transitionitem>
					<rate>
						<ntsc>FALSE</ntsc>
						<timebase>25</timebase>
					</rate>
					<start>15143</start>
					<end>15168</end>
					<alignment>center</alignment>
					<effect>
						<name>Cross Dissolve</name>
						<effectid>Cross Dissolve</effectid>
						<effectcategory>Dissolve</effectcategory>
						<effecttype>transition</effecttype>
						<mediatype>video</mediatype>
						<wipecode>0</wipecode>
						<wipeaccuracy>100</wipeaccuracy>
						<startratio>0</startratio>
						<endratio>1</endratio>
						<reverse>FALSE</reverse>
					</effect>
				</transitionitem>
				<clipitem id="DYR19739_01 ">
					<name>DYR19739_01</name>
					<duration>2566</duration>
					<rate>
						<ntsc>FALSE</ntsc>
						<timebase>25</timebase>
					</rate>
					<in>1417</in>
					<out>1489</out>
					<start>-1</start>
					<end>15215</end>
					<pixelaspectratio>Square</pixelaspectratio>
					<enabled>TRUE</enabled>
					<anamorphic>FALSE</anamorphic>
					<alphatype>none</alphatype>
					<masterclipid>DYR19739_01 1</masterclipid>
					<logginginfo>
						<scene/>
						<shottake/>
						<lognote/>
						<good>FALSE</good>
					</logginginfo>
					<labels>
						<label2/>
					</labels>
					<comments>
						<mastercomment1/>
						<mastercomment2/>
						<mastercomment3/>
						<mastercomment4/>
					</comments>
					<file id="DYR19739_01 2">
						<name>DYR19739_01.mov</name>
						<pathurl>file://localhost/Volumes/Askepott/Prosjekter/DNPR637010_Kra%CC%8Akeklubben_TEM_011212/Video/TORDS%20GARASJE/SJ%C3%98DYR/Reke/DYR19739_01.mov</pathurl>
						<rate>
							<timebase>25</timebase>
						</rate>
						<duration>2566</duration>
						<metadata>
							<storage>QuickTime</storage>
							<key>com.sony.bprl.xdcamtransfer.version</key>
							<size>10</size>
							<type>UTF8</type>
							<value>2.12.0.631</value>
						</metadata>
						<metadata>
							<storage>QuickTime</storage>
							<key>org.smpte.mxf.package.material.packageid</key>
							<size>66</size>
							<type>UTF8</type>
							<value>0x060a2b340101010501010d43130000005685f381885505d808004602022f05f5</value>
						</metadata>
						<metadata>
							<storage>QuickTime</storage>
							<key>com.sony.professionaldisc.nonrealtimemeta.lastupdate</key>
							<size>25</size>
							<type>UTF8</type>
							<value>2011-01-27 13:12:42 +0100</value>
						</metadata>
						<metadata>
							<storage>QuickTime</storage>
							<key>com.sony.bprl.mxf.umid</key>
							<size>64</size>
							<type>UTF8</type>
							<value>060a2b340101010501010d43130000005685f381885505d808004602022f05f5</value>
						</metadata>
						<metadata>
							<storage>QuickTime</storage>
							<key>com.sony.bprl.mxf.nrtmetadata</key>
							<size>1994</size>
							<type>UTF8</type>
							<value>&lt;?xml version="1.0" encoding="UTF-8"?>&lt;NonRealTimeMeta xmlns="urn:schemas-professionalDisc:nonRealTimeMeta:ver.1.20" xmlns:lib="urn:schemas-professionalDisc:lib:ver.1.20" xmlns:xsi="http://www.w3.org/2001/XMLSchema-instance" lastUpdate="2011-01-27T13:12:42+01:00">&lt;TargetMaterial umidRef="060A2B340101010501010D43130000005685F381885505D808004602022F05F5">&lt;/TargetMaterial>&lt;Duration value="2566">&lt;/Duration>&lt;LtcChangeTable tcFps="25" halfStep="false">&lt;LtcChange frameCount="0" value="10522402" status="increment">&lt;/LtcChange>&lt;LtcChange frameCount="2565" value="00352602" status="end">&lt;/LtcChange>&lt;/LtcChangeTable>&lt;CreationDate value="2011-01-27T13:10:58+01:00">&lt;/CreationDate>&lt;TypicalUbit value="0000000017061020">&lt;/TypicalUbit>&lt;BodyUmidBasicChangeTable>&lt;BodyUmidBasicChange frameCount="0" value="060A2B340101010501010D43330000005685F381885505D808004602022F05F5" status="start">&lt;/BodyUmidBasicChange>&lt;/BodyUmidBasicChangeTable>&lt;BodyUmidWhenChangeTable>&lt;BodyUmidWhenChange frameCount="0" value="44C62E04885505A5" status="increment">&lt;/BodyUmidWhenChange>&lt;BodyUmidWhenChange frameCount="2565" value="84473104885505A5" status="end">&lt;/BodyUmidWhenChange>&lt;/BodyUmidWhenChangeTable>&lt;KlvPacketTable>&lt;KlvPacket key="060E2B34010101050301020A02000000" frameCount="0" lengthValue="095F5265635374617274" status="spot">&lt;/KlvPacket>&lt;/KlvPacketTable>&lt;VideoFormat>&lt;VideoRecPort port="DIRECT">&lt;/VideoRecPort>&lt;VideoFrame videoCodec="MPEG2HD35_1920_1080_MP@HL" captureFps="50.00i" recFps="50.00" formatFps="50i">&lt;/VideoFrame>&lt;VideoLayout pixel="1920" numOfVerticalLine="1080" aspectRatio="16:9">&lt;/VideoLayout>&lt;/VideoFormat>&lt;AudioFormat numOfChannel="2">&lt;AudioRecPort port="ANALOG" audioCodec="LPCM16" trackDst="CH1">&lt;/AudioRecPort>&lt;AudioRecPort port="DIRECT" audioCodec="LPCM16" trackDst="CH2">&lt;/AudioRecPort>&lt;/AudioFormat>&lt;Device manufacturer="Sony" modelName="PMW-EX3" serialNo="0401525">&lt;/Device>&lt;Lens modelName="VCL-614B2X">&lt;/Lens>&lt;RecordingMode type="normal" cacheRec="false">&lt;/RecordingMode>&lt;/NonRealTimeMeta>
							</value>
						</metadata>
						<metadata>
							<storage>QuickTime</storage>
							<key>com.apple.proapps.reel</key>
							<size>8</size>
							<type>UTF8</type>
							<value>Untitled</value>
						</metadata>
						<metadata>
							<storage>QuickTime</storage>
							<key>com.apple.proapps.clipID</key>
							<size>64</size>
							<type>UTF8</type>
							<value>060A2B340101010501010D43130000005685F381885505D808004602022F05F5</value>
						</metadata>
						<metadata>
							<storage>QuickTime</storage>
							<key>com.apple.quicktime.information</key>
							<size>64</size>
							<type>UTF8</type>
							<value>060a2b340101010501010d43130000005685f381885505d808004602022f05f5</value>
						</metadata>
						<metadata>
							<storage>QuickTime</storage>
							<key>com.apple.proapps.originalFormat</key>
							<size>36</size>
							<type>UTF8</type>
							<value>Apple XDCAM EX 1080i50 (35 Mb/s VBR)</value>
						</metadata>
						<timecode>
							<rate>
								<timebase>25</timebase>
							</rate>
							<string>02:24:52:10</string>
							<frame>217310</frame>
							<displayformat>NDF</displayformat>
							<source>source</source>
							<reel>
								<name>Untitled</name>
							</reel>
						</timecode>
						<media>
							<video>
								<duration>2566</duration>
								<samplecharacteristics>
									<width>1920</width>
									<height>1080</height>
								</samplecharacteristics>
							</video>
							<audio>
								<samplecharacteristics>
									<samplerate>48000</samplerate>
									<depth>16</depth>
								</samplecharacteristics>
								<channelcount>1</channelcount>
								<layout>mono</layout>
								<audiochannel>
									<sourcechannel>1</sourcechannel>
									<channellabel>discrete</channellabel>
								</audiochannel>
							</audio>
							<audio>
								<samplecharacteristics>
									<samplerate>48000</samplerate>
									<depth>16</depth>
								</samplecharacteristics>
								<channelcount>1</channelcount>
								<layout>mono</layout>
								<audiochannel>
									<sourcechannel>2</sourcechannel>
									<channellabel>discrete</channellabel>
								</audiochannel>
							</audio>
						</media>
					</file>
					<filter>
						<effect>
							<name>Basic Motion</name>
							<effectid>basic</effectid>
							<effectcategory>motion</effectcategory>
							<effecttype>motion</effecttype>
							<mediatype>video</mediatype>
							<parameter>
								<parameterid>scale</parameterid>
								<name>Scale</name>
								<valuemin>0</valuemin>
								<valuemax>1000</valuemax>
								<value>120</value>
							</parameter>
							<parameter>
								<parameterid>rotation</parameterid>
								<name>Rotation</name>
								<valuemin>-8640</valuemin>
								<valuemax>8640</valuemax>
								<value>0</value>
							</parameter>
							<parameter>
								<parameterid>center</parameterid>
								<name>Center</name>
								<value>
									<horiz>0</horiz>
									<vert>0</vert>
								</value>
							</parameter>
							<parameter>
								<parameterid>centerOffset</parameterid>
								<name>Anchor Point</name>
								<value>
									<horiz>0</horiz>
									<vert>0</vert>
								</value>
							</parameter>
						</effect>
					</filter>
					<filter>
						<enabled>FALSE</enabled>
						<effect>
							<name>Drop Shadow</name>
							<effectid>dropshadow</effectid>
							<effectcategory>motion</effectcategory>
							<effecttype>motion</effecttype>
							<mediatype>video</mediatype>
							<parameter>
								<parameterid>offset</parameterid>
								<name>offset</name>
								<valuemin>-100</valuemin>
								<valuemax>100</valuemax>
								<value>2</value>
							</parameter>
							<parameter>
								<parameterid>angle</parameterid>
								<name>angle</name>
								<valuemin>-720</valuemin>
								<valuemax>720</valuemax>
								<value>135</value>
							</parameter>
							<parameter>
								<parameterid>color</parameterid>
								<name>color</name>
								<value>
									<alpha>0</alpha>
									<red>0</red>
									<green>0</green>
									<blue>0</blue>
								</value>
							</parameter>
							<parameter>
								<parameterid>softness</parameterid>
								<name>softness</name>
								<valuemin>0</valuemin>
								<valuemax>100</valuemax>
								<value>10</value>
							</parameter>
							<parameter>
								<parameterid>opacity</parameterid>
								<name>opacity</name>
								<valuemin>0</valuemin>
								<valuemax>100</valuemax>
								<value>50</value>
							</parameter>
						</effect>
					</filter>
					<filter>
						<enabled>FALSE</enabled>
						<effect>
							<name>Motion Blur</name>
							<effectid>motionblur</effectid>
							<effectcategory>motion</effectcategory>
							<effecttype>motion</effecttype>
							<mediatype>video</mediatype>
							<parameter>
								<parameterid>duration</parameterid>
								<name>% Blur</name>
								<valuemin>0</valuemin>
								<valuemax>1000</valuemax>
								<value>500</value>
							</parameter>
							<parameter>
								<parameterid>samples</parameterid>
								<name>Samples</name>
								<valuemin>1</valuemin>
								<valuemax>16</valuemax>
								<value>4</value>
							</parameter>
						</effect>
					</filter>
					<filter>
						<effect>
							<name>Crop</name>
							<effectid>crop</effectid>
							<effectcategory>motion</effectcategory>
							<effecttype>motion</effecttype>
							<mediatype>video</mediatype>
							<parameter>
								<parameterid>left</parameterid>
								<name>left</name>
								<valuemin>0</valuemin>
								<valuemax>100</valuemax>
								<value>0</value>
							</parameter>
							<parameter>
								<parameterid>right</parameterid>
								<name>right</name>
								<valuemin>0</valuemin>
								<valuemax>100</valuemax>
								<value>0</value>
							</parameter>
							<parameter>
								<parameterid>top</parameterid>
								<name>top</name>
								<valuemin>0</valuemin>
								<valuemax>100</valuemax>
								<value>0</value>
							</parameter>
							<parameter>
								<parameterid>bottom</parameterid>
								<name>bottom</name>
								<valuemin>0</valuemin>
								<valuemax>100</valuemax>
								<value>0</value>
							</parameter>
							<parameter>
								<parameterid>edgefeather</parameterid>
								<name>edgefeather</name>
								<valuemin>0</valuemin>
								<valuemax>100</valuemax>
								<value>0</value>
							</parameter>
						</effect>
					</filter>
					<filter>
						<effect>
							<name>Distort</name>
							<effectid>deformation</effectid>
							<effectcategory>motion</effectcategory>
							<effecttype>motion</effecttype>
							<mediatype>video</mediatype>
							<parameter>
								<parameterid>ulcorner</parameterid>
								<name>Upper Left</name>
								<value>
									<horiz>-0.5</horiz>
									<vert>-0.5</vert>
								</value>
							</parameter>
							<parameter>
								<parameterid>urcorner</parameterid>
								<name>Upper Right</name>
								<value>
									<horiz>0.5</horiz>
									<vert>-0.5</vert>
								</value>
							</parameter>
							<parameter>
								<parameterid>lrcorner</parameterid>
								<name>Lower Right</name>
								<value>
									<horiz>0.5</horiz>
									<vert>0.5</vert>
								</value>
							</parameter>
							<parameter>
								<parameterid>llcorner</parameterid>
								<name>Lower Left</name>
								<value>
									<horiz>-0.5</horiz>
									<vert>0.5</vert>
								</value>
							</parameter>
							<parameter>
								<parameterid>aspect</parameterid>
								<name>Aspect</name>
								<valuemin>-10000</valuemin>
								<valuemax>10000</valuemax>
								<value>0</value>
							</parameter>
						</effect>
					</filter>
					<filter>
						<effect>
							<name>Opacity</name>
							<effectid>opacity</effectid>
							<effectcategory>motion</effectcategory>
							<effecttype>motion</effecttype>
							<mediatype>video</mediatype>
							<parameter>
								<parameterid>opacity</parameterid>
								<name>opacity</name>
								<valuemin>0</valuemin>
								<valuemax>100</valuemax>
								<value>100</value>
							</parameter>
						</effect>
					</filter>
					<sourcetrack>
						<mediatype>video</mediatype>
					</sourcetrack>
					<fielddominance>upper</fielddominance>
					<itemhistory>
						<uuid>F609C858-37A6-4BA2-991F-36478D4AA187</uuid>
					</itemhistory>
				</clipitem>
				<clipitem id="DYR19738_01 ">
					<name>DYR19738_01</name>
					<duration>946</duration>
					<rate>
						<ntsc>FALSE</ntsc>
						<timebase>25</timebase>
					</rate>
					<in>363</in>
					<out>564</out>
					<start>15215</start>
					<end>15416</end>
					<pixelaspectratio>Square</pixelaspectratio>
					<enabled>TRUE</enabled>
					<anamorphic>FALSE</anamorphic>
					<alphatype>none</alphatype>
					<masterclipid>DYR19738_01 1</masterclipid>
					<logginginfo>
						<scene/>
						<shottake/>
						<lognote/>
						<good>FALSE</good>
					</logginginfo>
					<labels>
						<label2/>
					</labels>
					<comments>
						<mastercomment1/>
						<mastercomment2/>
						<mastercomment3/>
						<mastercomment4/>
					</comments>
					<file id="DYR19738_01 2">
						<name>DYR19738_01.mov</name>
						<pathurl>file://localhost/Volumes/Askepott/Prosjekter/DNPR637010_Kra%CC%8Akeklubben_TEM_011212/Video/TORDS%20GARASJE/SJ%C3%98DYR/Reke/DYR19738_01.mov</pathurl>
						<rate>
							<timebase>25</timebase>
						</rate>
						<duration>946</duration>
						<metadata>
							<storage>QuickTime</storage>
							<key>com.sony.bprl.xdcamtransfer.version</key>
							<size>10</size>
							<type>UTF8</type>
							<value>2.12.0.631</value>
						</metadata>
						<metadata>
							<storage>QuickTime</storage>
							<key>org.smpte.mxf.package.material.packageid</key>
							<size>66</size>
							<type>UTF8</type>
							<value>0x060a2b340101010501010d43130000001e089481885505cb08004602022f05f5</value>
						</metadata>
						<metadata>
							<storage>QuickTime</storage>
							<key>com.sony.professionaldisc.nonrealtimemeta.lastupdate</key>
							<size>25</size>
							<type>UTF8</type>
							<value>2011-01-27 13:09:31 +0100</value>
						</metadata>
						<metadata>
							<storage>QuickTime</storage>
							<key>com.sony.bprl.mxf.umid</key>
							<size>64</size>
							<type>UTF8</type>
							<value>060a2b340101010501010d43130000001e089481885505cb08004602022f05f5</value>
						</metadata>
						<metadata>
							<storage>QuickTime</storage>
							<key>com.sony.bprl.mxf.nrtmetadata</key>
							<size>1991</size>
							<type>UTF8</type>
							<value>&lt;?xml version="1.0" encoding="UTF-8"?>&lt;NonRealTimeMeta xmlns="urn:schemas-professionalDisc:nonRealTimeMeta:ver.1.20" xmlns:lib="urn:schemas-professionalDisc:lib:ver.1.20" xmlns:xsi="http://www.w3.org/2001/XMLSchema-instance" lastUpdate="2011-01-27T13:09:31+01:00">&lt;TargetMaterial umidRef="060A2B340101010501010D43130000001E089481885505CB08004602022F05F5">&lt;/TargetMaterial>&lt;Duration value="946">&lt;/Duration>&lt;LtcChangeTable tcFps="25" halfStep="false">&lt;LtcChange frameCount="0" value="14142402" status="increment">&lt;/LtcChange>&lt;LtcChange frameCount="945" value="09522402" status="end">&lt;/LtcChange>&lt;/LtcChangeTable>&lt;CreationDate value="2011-01-27T13:08:52+01:00">&lt;/CreationDate>&lt;TypicalUbit value="0000000017061020">&lt;/TypicalUbit>&lt;BodyUmidBasicChangeTable>&lt;BodyUmidBasicChange frameCount="0" value="060A2B340101010501010D43330000001E089481885505CB08004602022F05F5" status="start">&lt;/BodyUmidBasicChange>&lt;/BodyUmidBasicChangeTable>&lt;BodyUmidWhenChangeTable>&lt;BodyUmidWhenChange frameCount="0" value="84B32B04885505A5" status="increment">&lt;/BodyUmidWhenChange>&lt;BodyUmidWhenChange frameCount="945" value="C49F2C04885505A5" status="end">&lt;/BodyUmidWhenChange>&lt;/BodyUmidWhenChangeTable>&lt;KlvPacketTable>&lt;KlvPacket key="060E2B34010101050301020A02000000" frameCount="0" lengthValue="095F5265635374617274" status="spot">&lt;/KlvPacket>&lt;/KlvPacketTable>&lt;VideoFormat>&lt;VideoRecPort port="DIRECT">&lt;/VideoRecPort>&lt;VideoFrame videoCodec="MPEG2HD35_1920_1080_MP@HL" captureFps="50.00i" recFps="50.00" formatFps="50i">&lt;/VideoFrame>&lt;VideoLayout pixel="1920" numOfVerticalLine="1080" aspectRatio="16:9">&lt;/VideoLayout>&lt;/VideoFormat>&lt;AudioFormat numOfChannel="2">&lt;AudioRecPort port="ANALOG" audioCodec="LPCM16" trackDst="CH1">&lt;/AudioRecPort>&lt;AudioRecPort port="DIRECT" audioCodec="LPCM16" trackDst="CH2">&lt;/AudioRecPort>&lt;/AudioFormat>&lt;Device manufacturer="Sony" modelName="PMW-EX3" serialNo="0401525">&lt;/Device>&lt;Lens modelName="VCL-614B2X">&lt;/Lens>&lt;RecordingMode type="normal" cacheRec="false">&lt;/RecordingMode>&lt;/NonRealTimeMeta>
							</value>
						</metadata>
						<metadata>
							<storage>QuickTime</storage>
							<key>com.apple.proapps.reel</key>
							<size>8</size>
							<type>UTF8</type>
							<value>Untitled</value>
						</metadata>
						<metadata>
							<storage>QuickTime</storage>
							<key>com.apple.proapps.clipID</key>
							<size>64</size>
							<type>UTF8</type>
							<value>060A2B340101010501010D43130000001E089481885505CB08004602022F05F5</value>
						</metadata>
						<metadata>
							<storage>QuickTime</storage>
							<key>com.apple.quicktime.information</key>
							<size>64</size>
							<type>UTF8</type>
							<value>060a2b340101010501010d43130000001e089481885505cb08004602022f05f5</value>
						</metadata>
						<metadata>
							<storage>QuickTime</storage>
							<key>com.apple.proapps.originalFormat</key>
							<size>36</size>
							<type>UTF8</type>
							<value>Apple XDCAM EX 1080i50 (35 Mb/s VBR)</value>
						</metadata>
						<timecode>
							<rate>
								<timebase>25</timebase>
							</rate>
							<string>02:24:14:14</string>
							<frame>216364</frame>
							<displayformat>NDF</displayformat>
							<source>source</source>
							<reel>
								<name>Untitled</name>
							</reel>
						</timecode>
						<media>
							<video>
								<duration>946</duration>
								<samplecharacteristics>
									<width>1920</width>
									<height>1080</height>
								</samplecharacteristics>
							</video>
							<audio>
								<samplecharacteristics>
									<samplerate>48000</samplerate>
									<depth>16</depth>
								</samplecharacteristics>
								<channelcount>1</channelcount>
								<layout>mono</layout>
								<audiochannel>
									<sourcechannel>1</sourcechannel>
									<channellabel>discrete</channellabel>
								</audiochannel>
							</audio>
							<audio>
								<samplecharacteristics>
									<samplerate>48000</samplerate>
									<depth>16</depth>
								</samplecharacteristics>
								<channelcount>1</channelcount>
								<layout>mono</layout>
								<audiochannel>
									<sourcechannel>2</sourcechannel>
									<channellabel>discrete</channellabel>
								</audiochannel>
							</audio>
						</media>
					</file>
					<filter>
						<effect>
							<name>Opacity</name>
							<effectid>opacity</effectid>
							<effectcategory>motion</effectcategory>
							<effecttype>motion</effecttype>
							<mediatype>video</mediatype>
							<parameter>
								<parameterid>opacity</parameterid>
								<name>opacity</name>
								<valuemin>0</valuemin>
								<valuemax>100</valuemax>
								<value>100</value>
							</parameter>
						</effect>
					</filter>
					<sourcetrack>
						<mediatype>video</mediatype>
					</sourcetrack>
					<link>
						<linkclipref>DYR19738_01 </linkclipref>
						<mediatype>video</mediatype>
						<trackindex>1</trackindex>
						<clipindex>143</clipindex>
					</link>
					<link>
						<linkclipref>DYR19738_01 3</linkclipref>
						<mediatype>audio</mediatype>
						<trackindex>1</trackindex>
						<clipindex>86</clipindex>
					</link>
					<link>
						<linkclipref>DYR19738_01 4</linkclipref>
						<mediatype>audio</mediatype>
						<trackindex>2</trackindex>
						<clipindex>81</clipindex>
					</link>
					<fielddominance>upper</fielddominance>
					<itemhistory>
						<uuid>0DA90AB0-7213-4E38-9AB2-81652715C62C</uuid>
					</itemhistory>
				</clipitem>
				<clipitem id="DYR19738_01 5">
					<name>DYR19738_01</name>
					<duration>946</duration>
					<rate>
						<ntsc>FALSE</ntsc>
						<timebase>25</timebase>
					</rate>
					<in>583</in>
					<out>688</out>
					<start>15416</start>
					<end>15521</end>
					<pixelaspectratio>Square</pixelaspectratio>
					<enabled>TRUE</enabled>
					<anamorphic>FALSE</anamorphic>
					<alphatype>none</alphatype>
					<masterclipid>DYR19738_01 1</masterclipid>
					<logginginfo>
						<scene/>
						<shottake/>
						<lognote/>
						<good>FALSE</good>
					</logginginfo>
					<labels>
						<label2/>
					</labels>
					<comments>
						<mastercomment1/>
						<mastercomment2/>
						<mastercomment3/>
						<mastercomment4/>
					</comments>
					<file id="DYR19738_01 2"/>
					<filter>
						<effect>
							<name>Opacity</name>
							<effectid>opacity</effectid>
							<effectcategory>motion</effectcategory>
							<effecttype>motion</effecttype>
							<mediatype>video</mediatype>
							<parameter>
								<parameterid>opacity</parameterid>
								<name>opacity</name>
								<valuemin>0</valuemin>
								<valuemax>100</valuemax>
								<value>100</value>
							</parameter>
						</effect>
					</filter>
					<sourcetrack>
						<mediatype>video</mediatype>
					</sourcetrack>
					<link>
						<linkclipref>DYR19738_01 5</linkclipref>
						<mediatype>video</mediatype>
						<trackindex>1</trackindex>
						<clipindex>144</clipindex>
					</link>
					<link>
						<linkclipref>DYR19738_01 6</linkclipref>
						<mediatype>audio</mediatype>
						<trackindex>1</trackindex>
						<clipindex>87</clipindex>
					</link>
					<link>
						<linkclipref>DYR19738_01 7</linkclipref>
						<mediatype>audio</mediatype>
						<trackindex>2</trackindex>
						<clipindex>82</clipindex>
					</link>
					<fielddominance>upper</fielddominance>
					<itemhistory>
						<uuid>EC15745B-7333-41D4-987F-6A7455F46232</uuid>
					</itemhistory>
				</clipitem>
				<clipitem id="DYR19728_01 5">
					<name>DYR19728_01</name>
					<duration>2140</duration>
					<rate>
						<ntsc>FALSE</ntsc>
						<timebase>25</timebase>
					</rate>
					<in>1072</in>
					<out>1150</out>
					<start>15521</start>
					<end>-1</end>
					<pixelaspectratio>Square</pixelaspectratio>
					<enabled>TRUE</enabled>
					<anamorphic>FALSE</anamorphic>
					<alphatype>none</alphatype>
					<masterclipid>DYR19728_01 1</masterclipid>
					<logginginfo>
						<scene/>
						<shottake/>
						<lognote/>
						<good>FALSE</good>
					</logginginfo>
					<labels>
						<label2/>
					</labels>
					<comments>
						<mastercomment1/>
						<mastercomment2/>
						<mastercomment3/>
						<mastercomment4/>
					</comments>
					<file id="DYR19728_01 2"/>
					<filter>
						<effect>
							<name>Basic Motion</name>
							<effectid>basic</effectid>
							<effectcategory>motion</effectcategory>
							<effecttype>motion</effecttype>
							<mediatype>video</mediatype>
							<parameter>
								<parameterid>scale</parameterid>
								<name>Scale</name>
								<valuemin>0</valuemin>
								<valuemax>1000</valuemax>
								<value>125</value>
							</parameter>
							<parameter>
								<parameterid>rotation</parameterid>
								<name>Rotation</name>
								<valuemin>-8640</valuemin>
								<valuemax>8640</valuemax>
								<value>-2</value>
							</parameter>
							<parameter>
								<parameterid>center</parameterid>
								<name>Center</name>
								<value>
									<horiz>-0.0916335</horiz>
									<vert>0.0778302</vert>
								</value>
							</parameter>
							<parameter>
								<parameterid>centerOffset</parameterid>
								<name>Anchor Point</name>
								<value>
									<horiz>0</horiz>
									<vert>0</vert>
								</value>
							</parameter>
						</effect>
					</filter>
					<filter>
						<enabled>FALSE</enabled>
						<effect>
							<name>Drop Shadow</name>
							<effectid>dropshadow</effectid>
							<effectcategory>motion</effectcategory>
							<effecttype>motion</effecttype>
							<mediatype>video</mediatype>
							<parameter>
								<parameterid>offset</parameterid>
								<name>offset</name>
								<valuemin>-100</valuemin>
								<valuemax>100</valuemax>
								<value>2</value>
							</parameter>
							<parameter>
								<parameterid>angle</parameterid>
								<name>angle</name>
								<valuemin>-720</valuemin>
								<valuemax>720</valuemax>
								<value>135</value>
							</parameter>
							<parameter>
								<parameterid>color</parameterid>
								<name>color</name>
								<value>
									<alpha>0</alpha>
									<red>0</red>
									<green>0</green>
									<blue>0</blue>
								</value>
							</parameter>
							<parameter>
								<parameterid>softness</parameterid>
								<name>softness</name>
								<valuemin>0</valuemin>
								<valuemax>100</valuemax>
								<value>10</value>
							</parameter>
							<parameter>
								<parameterid>opacity</parameterid>
								<name>opacity</name>
								<valuemin>0</valuemin>
								<valuemax>100</valuemax>
								<value>50</value>
							</parameter>
						</effect>
					</filter>
					<filter>
						<enabled>FALSE</enabled>
						<effect>
							<name>Motion Blur</name>
							<effectid>motionblur</effectid>
							<effectcategory>motion</effectcategory>
							<effecttype>motion</effecttype>
							<mediatype>video</mediatype>
							<parameter>
								<parameterid>duration</parameterid>
								<name>% Blur</name>
								<valuemin>0</valuemin>
								<valuemax>1000</valuemax>
								<value>500</value>
							</parameter>
							<parameter>
								<parameterid>samples</parameterid>
								<name>Samples</name>
								<valuemin>1</valuemin>
								<valuemax>16</valuemax>
								<value>4</value>
							</parameter>
						</effect>
					</filter>
					<filter>
						<effect>
							<name>Crop</name>
							<effectid>crop</effectid>
							<effectcategory>motion</effectcategory>
							<effecttype>motion</effecttype>
							<mediatype>video</mediatype>
							<parameter>
								<parameterid>left</parameterid>
								<name>left</name>
								<valuemin>0</valuemin>
								<valuemax>100</valuemax>
								<value>0</value>
							</parameter>
							<parameter>
								<parameterid>right</parameterid>
								<name>right</name>
								<valuemin>0</valuemin>
								<valuemax>100</valuemax>
								<value>0</value>
							</parameter>
							<parameter>
								<parameterid>top</parameterid>
								<name>top</name>
								<valuemin>0</valuemin>
								<valuemax>100</valuemax>
								<value>0</value>
							</parameter>
							<parameter>
								<parameterid>bottom</parameterid>
								<name>bottom</name>
								<valuemin>0</valuemin>
								<valuemax>100</valuemax>
								<value>0</value>
							</parameter>
							<parameter>
								<parameterid>edgefeather</parameterid>
								<name>edgefeather</name>
								<valuemin>0</valuemin>
								<valuemax>100</valuemax>
								<value>0</value>
							</parameter>
						</effect>
					</filter>
					<filter>
						<effect>
							<name>Distort</name>
							<effectid>deformation</effectid>
							<effectcategory>motion</effectcategory>
							<effecttype>motion</effecttype>
							<mediatype>video</mediatype>
							<parameter>
								<parameterid>ulcorner</parameterid>
								<name>Upper Left</name>
								<value>
									<horiz>-0.5</horiz>
									<vert>-0.5</vert>
								</value>
							</parameter>
							<parameter>
								<parameterid>urcorner</parameterid>
								<name>Upper Right</name>
								<value>
									<horiz>0.5</horiz>
									<vert>-0.5</vert>
								</value>
							</parameter>
							<parameter>
								<parameterid>lrcorner</parameterid>
								<name>Lower Right</name>
								<value>
									<horiz>0.5</horiz>
									<vert>0.5</vert>
								</value>
							</parameter>
							<parameter>
								<parameterid>llcorner</parameterid>
								<name>Lower Left</name>
								<value>
									<horiz>-0.5</horiz>
									<vert>0.5</vert>
								</value>
							</parameter>
							<parameter>
								<parameterid>aspect</parameterid>
								<name>Aspect</name>
								<valuemin>-10000</valuemin>
								<valuemax>10000</valuemax>
								<value>0</value>
							</parameter>
						</effect>
					</filter>
					<filter>
						<effect>
							<name>Opacity</name>
							<effectid>opacity</effectid>
							<effectcategory>motion</effectcategory>
							<effecttype>motion</effecttype>
							<mediatype>video</mediatype>
							<parameter>
								<parameterid>opacity</parameterid>
								<name>opacity</name>
								<valuemin>0</valuemin>
								<valuemax>100</valuemax>
								<value>100</value>
							</parameter>
						</effect>
					</filter>
					<sourcetrack>
						<mediatype>video</mediatype>
					</sourcetrack>
					<fielddominance>upper</fielddominance>
					<itemhistory>
						<uuid>268C1A85-9347-4CE4-94C4-3AF1505C0173</uuid>
					</itemhistory>
				</clipitem>
				<transitionitem>
					<rate>
						<ntsc>FALSE</ntsc>
						<timebase>25</timebase>
					</rate>
					<start>15584</start>
					<end>15599</end>
					<alignment>center</alignment>
					<effect>
						<name>Cross Dissolve</name>
						<effectid>Cross Dissolve</effectid>
						<effectcategory>Dissolve</effectcategory>
						<effecttype>transition</effecttype>
						<mediatype>video</mediatype>
						<wipecode>0</wipecode>
						<wipeaccuracy>100</wipeaccuracy>
						<startratio>0</startratio>
						<endratio>1</endratio>
						<reverse>FALSE</reverse>
					</effect>
				</transitionitem>
				<clipitem id="DYR19725_01 5">
					<name>DYR19725_01</name>
					<duration>2183</duration>
					<rate>
						<ntsc>FALSE</ntsc>
						<timebase>25</timebase>
					</rate>
					<in>1969</in>
					<out>2047</out>
					<start>-1</start>
					<end>-1</end>
					<pixelaspectratio>Square</pixelaspectratio>
					<enabled>TRUE</enabled>
					<anamorphic>FALSE</anamorphic>
					<alphatype>none</alphatype>
					<masterclipid>DYR19725_01 1</masterclipid>
					<logginginfo>
						<scene/>
						<shottake/>
						<lognote/>
						<good>FALSE</good>
					</logginginfo>
					<labels>
						<label2/>
					</labels>
					<comments>
						<mastercomment1/>
						<mastercomment2/>
						<mastercomment3/>
						<mastercomment4/>
					</comments>
					<file id="DYR19725_01 2"/>
					<sourcetrack>
						<mediatype>video</mediatype>
					</sourcetrack>
					<link>
						<linkclipref>DYR19725_01 5</linkclipref>
						<mediatype>video</mediatype>
						<trackindex>1</trackindex>
						<clipindex>147</clipindex>
					</link>
					<link>
						<linkclipref>DYR19725_01 6</linkclipref>
						<mediatype>audio</mediatype>
						<trackindex>1</trackindex>
						<clipindex>88</clipindex>
					</link>
					<link>
						<linkclipref>DYR19725_01 7</linkclipref>
						<mediatype>audio</mediatype>
						<trackindex>2</trackindex>
						<clipindex>83</clipindex>
					</link>
					<fielddominance>upper</fielddominance>
					<itemhistory>
						<uuid>885BBEA5-A30B-4D45-955C-B22F2A87952E</uuid>
					</itemhistory>
				</clipitem>
				<transitionitem>
					<rate>
						<ntsc>FALSE</ntsc>
						<timebase>25</timebase>
					</rate>
					<start>15647</start>
					<end>15662</end>
					<alignment>center</alignment>
					<effect>
						<name>Cross Dissolve</name>
						<effectid>Cross Dissolve</effectid>
						<effectcategory>Dissolve</effectcategory>
						<effecttype>transition</effecttype>
						<mediatype>video</mediatype>
						<wipecode>0</wipecode>
						<wipeaccuracy>100</wipeaccuracy>
						<startratio>0</startratio>
						<endratio>1</endratio>
						<reverse>FALSE</reverse>
					</effect>
				</transitionitem>
				<clipitem id="DYR19728_01 6">
					<name>DYR19728_01</name>
					<duration>2140</duration>
					<rate>
						<ntsc>FALSE</ntsc>
						<timebase>25</timebase>
					</rate>
					<in>687</in>
					<out>779</out>
					<start>-1</start>
					<end>15739</end>
					<pixelaspectratio>Square</pixelaspectratio>
					<enabled>TRUE</enabled>
					<anamorphic>FALSE</anamorphic>
					<alphatype>none</alphatype>
					<masterclipid>DYR19728_01 1</masterclipid>
					<logginginfo>
						<scene/>
						<shottake/>
						<lognote/>
						<good>FALSE</good>
					</logginginfo>
					<labels>
						<label2/>
					</labels>
					<comments>
						<mastercomment1/>
						<mastercomment2/>
						<mastercomment3/>
						<mastercomment4/>
					</comments>
					<file id="DYR19728_01 2"/>
					<sourcetrack>
						<mediatype>video</mediatype>
					</sourcetrack>
					<fielddominance>upper</fielddominance>
					<itemhistory>
						<uuid>0A54BFF1-2318-448A-88A1-1727F4929A2E</uuid>
					</itemhistory>
				</clipitem>
				<clipitem id="DYR19729_01 5">
					<name>DYR19729_01</name>
					<duration>589</duration>
					<rate>
						<ntsc>FALSE</ntsc>
						<timebase>25</timebase>
					</rate>
					<in>327</in>
					<out>426</out>
					<start>15739</start>
					<end>-1</end>
					<pixelaspectratio>Square</pixelaspectratio>
					<enabled>TRUE</enabled>
					<anamorphic>FALSE</anamorphic>
					<alphatype>none</alphatype>
					<masterclipid>DYR19729_01 1</masterclipid>
					<logginginfo>
						<scene/>
						<shottake/>
						<lognote/>
						<good>FALSE</good>
					</logginginfo>
					<labels>
						<label2/>
					</labels>
					<comments>
						<mastercomment1/>
						<mastercomment2/>
						<mastercomment3/>
						<mastercomment4/>
					</comments>
					<file id="DYR19729_01 2"/>
					<sourcetrack>
						<mediatype>video</mediatype>
					</sourcetrack>
					<link>
						<linkclipref>DYR19729_01 5</linkclipref>
						<mediatype>video</mediatype>
						<trackindex>1</trackindex>
						<clipindex>150</clipindex>
					</link>
					<link>
						<linkclipref>DYR19729_01 6</linkclipref>
						<mediatype>audio</mediatype>
						<trackindex>1</trackindex>
						<clipindex>89</clipindex>
					</link>
					<link>
						<linkclipref>DYR19729_01 7</linkclipref>
						<mediatype>audio</mediatype>
						<trackindex>2</trackindex>
						<clipindex>84</clipindex>
					</link>
					<fielddominance>upper</fielddominance>
					<itemhistory>
						<uuid>5BF1DAA4-0956-45C5-93E6-E09C0BE63E3E</uuid>
					</itemhistory>
				</clipitem>
				<transitionitem>
					<rate>
						<ntsc>FALSE</ntsc>
						<timebase>25</timebase>
					</rate>
					<start>15823</start>
					<end>15838</end>
					<alignment>center</alignment>
					<effect>
						<name>Cross Dissolve</name>
						<effectid>Cross Dissolve</effectid>
						<effectcategory>Dissolve</effectcategory>
						<effecttype>transition</effecttype>
						<mediatype>video</mediatype>
						<wipecode>0</wipecode>
						<wipeaccuracy>100</wipeaccuracy>
						<startratio>0</startratio>
						<endratio>1</endratio>
						<reverse>FALSE</reverse>
					</effect>
				</transitionitem>
				<clipitem id="MVI_6489 ">
					<name>MVI_6489</name>
					<duration>1189</duration>
					<rate>
						<ntsc>FALSE</ntsc>
						<timebase>25</timebase>
					</rate>
					<in>69</in>
					<out>131</out>
					<start>-1</start>
					<end>-1</end>
					<pixelaspectratio>Square</pixelaspectratio>
					<enabled>TRUE</enabled>
					<anamorphic>FALSE</anamorphic>
					<alphatype>none</alphatype>
					<masterclipid>MVI_6489 1</masterclipid>
					<logginginfo>
						<scene/>
						<shottake/>
						<lognote/>
						<good>FALSE</good>
					</logginginfo>
					<labels>
						<label2/>
					</labels>
					<comments>
						<mastercomment1/>
						<mastercomment2/>
						<mastercomment3/>
						<mastercomment4/>
					</comments>
					<file id="MVI_6489 2">
						<name>MVI_6489.mov</name>
						<pathurl>file://localhost/Volumes/Askepott/Prosjekter/DNPR637010_Kra%CC%8Akeklubben_TEM_011212/Video/TORDS%20GARASJE/SJ%C3%98DYR/Reke/Apple%20ProRes%20422%20HQ/MVI_6489.mov</pathurl>
						<rate>
							<timebase>25</timebase>
						</rate>
						<duration>1189</duration>
						<media>
							<video>
								<duration>1189</duration>
								<samplecharacteristics>
									<width>1920</width>
									<height>1080</height>
								</samplecharacteristics>
							</video>
							<audio>
								<samplecharacteristics>
									<samplerate>48000</samplerate>
									<depth>16</depth>
								</samplecharacteristics>
								<channelcount>2</channelcount>
							</audio>
						</media>
					</file>
					<sourcetrack>
						<mediatype>video</mediatype>
					</sourcetrack>
					<fielddominance>upper</fielddominance>
					<itemhistory>
						<uuid>4A5F4284-7D53-461C-B3DF-60029A05C216</uuid>
					</itemhistory>
				</clipitem>
				<transitionitem>
					<rate>
						<ntsc>FALSE</ntsc>
						<timebase>25</timebase>
					</rate>
					<start>15875</start>
					<end>15885</end>
					<alignment>center</alignment>
					<effect>
						<name>Cross Dissolve</name>
						<effectid>Cross Dissolve</effectid>
						<effectcategory>Dissolve</effectcategory>
						<effecttype>transition</effecttype>
						<mediatype>video</mediatype>
						<wipecode>0</wipecode>
						<wipeaccuracy>100</wipeaccuracy>
						<startratio>0</startratio>
						<endratio>1</endratio>
						<reverse>FALSE</reverse>
					</effect>
				</transitionitem>
				<clipitem id="DYR19730_01 ">
					<name>DYR19730_01</name>
					<duration>2083</duration>
					<rate>
						<ntsc>FALSE</ntsc>
						<timebase>25</timebase>
					</rate>
					<in>1148</in>
					<out>1211</out>
					<start>-1</start>
					<end>-1</end>
					<pixelaspectratio>Square</pixelaspectratio>
					<enabled>TRUE</enabled>
					<anamorphic>FALSE</anamorphic>
					<alphatype>none</alphatype>
					<masterclipid>DYR19730_01 1</masterclipid>
					<logginginfo>
						<scene/>
						<shottake/>
						<lognote/>
						<good>FALSE</good>
					</logginginfo>
					<labels>
						<label2/>
					</labels>
					<comments>
						<mastercomment1/>
						<mastercomment2/>
						<mastercomment3/>
						<mastercomment4/>
					</comments>
					<file id="DYR19730_01 2">
						<name>DYR19730_01.mov</name>
						<pathurl>file://localhost/Volumes/Askepott/Prosjekter/DNPR637010_Kra%CC%8Akeklubben_TEM_011212/Video/TORDS%20GARASJE/SJ%C3%98DYR/Reke/DYR19730_01.mov</pathurl>
						<rate>
							<timebase>25</timebase>
						</rate>
						<duration>2083</duration>
						<metadata>
							<storage>QuickTime</storage>
							<key>com.sony.bprl.xdcamtransfer.version</key>
							<size>10</size>
							<type>UTF8</type>
							<value>2.12.0.631</value>
						</metadata>
						<metadata>
							<storage>QuickTime</storage>
							<key>org.smpte.mxf.package.material.packageid</key>
							<size>66</size>
							<type>UTF8</type>
							<value>0x060a2b340101010501010d4313000000e5eacc7f885505d308004602022f05f5</value>
						</metadata>
						<metadata>
							<storage>QuickTime</storage>
							<key>com.sony.professionaldisc.nonrealtimemeta.lastupdate</key>
							<size>25</size>
							<type>UTF8</type>
							<value>2011-01-27 13:00:17 +0100</value>
						</metadata>
						<metadata>
							<storage>QuickTime</storage>
							<key>com.sony.bprl.mxf.umid</key>
							<size>64</size>
							<type>UTF8</type>
							<value>060a2b340101010501010d4313000000e5eacc7f885505d308004602022f05f5</value>
						</metadata>
						<metadata>
							<storage>QuickTime</storage>
							<key>com.sony.bprl.mxf.nrtmetadata</key>
							<size>1994</size>
							<type>UTF8</type>
							<value>&lt;?xml version="1.0" encoding="UTF-8"?>&lt;NonRealTimeMeta xmlns="urn:schemas-professionalDisc:nonRealTimeMeta:ver.1.20" xmlns:lib="urn:schemas-professionalDisc:lib:ver.1.20" xmlns:xsi="http://www.w3.org/2001/XMLSchema-instance" lastUpdate="2011-01-27T13:00:17+01:00">&lt;TargetMaterial umidRef="060A2B340101010501010D4313000000E5EACC7F885505D308004602022F05F5">&lt;/TargetMaterial>&lt;Duration value="2083">&lt;/Duration>&lt;LtcChangeTable tcFps="25" halfStep="false">&lt;LtcChange frameCount="0" value="14202002" status="increment">&lt;/LtcChange>&lt;LtcChange frameCount="2082" value="21432102" status="end">&lt;/LtcChange>&lt;/LtcChangeTable>&lt;CreationDate value="2011-01-27T12:58:52+01:00">&lt;/CreationDate>&lt;TypicalUbit value="0000000017061020">&lt;/TypicalUbit>&lt;BodyUmidBasicChangeTable>&lt;BodyUmidBasicChange frameCount="0" value="060A2B340101010501010D4333000000E5EACC7F885505D308004602022F05F5" status="start">&lt;/BodyUmidBasicChange>&lt;/BodyUmidBasicChangeTable>&lt;BodyUmidWhenChangeTable>&lt;BodyUmidWhenChange frameCount="0" value="440D1D04885505A5" status="increment">&lt;/BodyUmidWhenChange>&lt;BodyUmidWhenChange frameCount="2082" value="C4151F04885505A5" status="end">&lt;/BodyUmidWhenChange>&lt;/BodyUmidWhenChangeTable>&lt;KlvPacketTable>&lt;KlvPacket key="060E2B34010101050301020A02000000" frameCount="0" lengthValue="095F5265635374617274" status="spot">&lt;/KlvPacket>&lt;/KlvPacketTable>&lt;VideoFormat>&lt;VideoRecPort port="DIRECT">&lt;/VideoRecPort>&lt;VideoFrame videoCodec="MPEG2HD35_1920_1080_MP@HL" captureFps="50.00i" recFps="50.00" formatFps="50i">&lt;/VideoFrame>&lt;VideoLayout pixel="1920" numOfVerticalLine="1080" aspectRatio="16:9">&lt;/VideoLayout>&lt;/VideoFormat>&lt;AudioFormat numOfChannel="2">&lt;AudioRecPort port="ANALOG" audioCodec="LPCM16" trackDst="CH1">&lt;/AudioRecPort>&lt;AudioRecPort port="DIRECT" audioCodec="LPCM16" trackDst="CH2">&lt;/AudioRecPort>&lt;/AudioFormat>&lt;Device manufacturer="Sony" modelName="PMW-EX3" serialNo="0401525">&lt;/Device>&lt;Lens modelName="VCL-614B2X">&lt;/Lens>&lt;RecordingMode type="normal" cacheRec="false">&lt;/RecordingMode>&lt;/NonRealTimeMeta>
							</value>
						</metadata>
						<metadata>
							<storage>QuickTime</storage>
							<key>com.apple.proapps.reel</key>
							<size>8</size>
							<type>UTF8</type>
							<value>Untitled</value>
						</metadata>
						<metadata>
							<storage>QuickTime</storage>
							<key>com.apple.proapps.clipID</key>
							<size>64</size>
							<type>UTF8</type>
							<value>060A2B340101010501010D4313000000E5EACC7F885505D308004602022F05F5</value>
						</metadata>
						<metadata>
							<storage>QuickTime</storage>
							<key>com.apple.quicktime.information</key>
							<size>64</size>
							<type>UTF8</type>
							<value>060a2b340101010501010d4313000000e5eacc7f885505d308004602022f05f5</value>
						</metadata>
						<metadata>
							<storage>QuickTime</storage>
							<key>com.apple.proapps.originalFormat</key>
							<size>36</size>
							<type>UTF8</type>
							<value>Apple XDCAM EX 1080i50 (35 Mb/s VBR)</value>
						</metadata>
						<timecode>
							<rate>
								<timebase>25</timebase>
							</rate>
							<string>02:20:20:14</string>
							<frame>210514</frame>
							<displayformat>NDF</displayformat>
							<source>source</source>
							<reel>
								<name>Untitled</name>
							</reel>
						</timecode>
						<media>
							<video>
								<duration>2083</duration>
								<samplecharacteristics>
									<width>1920</width>
									<height>1080</height>
								</samplecharacteristics>
							</video>
							<audio>
								<samplecharacteristics>
									<samplerate>48000</samplerate>
									<depth>16</depth>
								</samplecharacteristics>
								<channelcount>1</channelcount>
								<layout>mono</layout>
								<audiochannel>
									<sourcechannel>1</sourcechannel>
									<channellabel>discrete</channellabel>
								</audiochannel>
							</audio>
							<audio>
								<samplecharacteristics>
									<samplerate>48000</samplerate>
									<depth>16</depth>
								</samplecharacteristics>
								<channelcount>1</channelcount>
								<layout>mono</layout>
								<audiochannel>
									<sourcechannel>2</sourcechannel>
									<channellabel>discrete</channellabel>
								</audiochannel>
							</audio>
						</media>
					</file>
					<sourcetrack>
						<mediatype>video</mediatype>
					</sourcetrack>
					<fielddominance>upper</fielddominance>
					<itemhistory>
						<uuid>1F5578FE-3408-4002-9461-282415705006</uuid>
					</itemhistory>
				</clipitem>
				<transitionitem>
					<rate>
						<ntsc>FALSE</ntsc>
						<timebase>25</timebase>
					</rate>
					<start>15928</start>
					<end>15938</end>
					<alignment>center</alignment>
					<effect>
						<name>Cross Dissolve</name>
						<effectid>Cross Dissolve</effectid>
						<effectcategory>Dissolve</effectcategory>
						<effecttype>transition</effecttype>
						<mediatype>video</mediatype>
						<wipecode>0</wipecode>
						<wipeaccuracy>100</wipeaccuracy>
						<startratio>0</startratio>
						<endratio>1</endratio>
						<reverse>FALSE</reverse>
					</effect>
				</transitionitem>
				<clipitem id="DYR19767_01 ">
					<name>DYR19767_01</name>
					<duration>4277</duration>
					<rate>
						<ntsc>FALSE</ntsc>
						<timebase>25</timebase>
					</rate>
					<in>368</in>
					<out>430</out>
					<start>-1</start>
					<end>15990</end>
					<pixelaspectratio>Square</pixelaspectratio>
					<enabled>TRUE</enabled>
					<anamorphic>FALSE</anamorphic>
					<alphatype>none</alphatype>
					<masterclipid>DYR19767_01 1</masterclipid>
					<logginginfo>
						<scene/>
						<shottake/>
						<lognote/>
						<good>FALSE</good>
					</logginginfo>
					<labels>
						<label2/>
					</labels>
					<comments>
						<mastercomment1/>
						<mastercomment2/>
						<mastercomment3/>
						<mastercomment4/>
					</comments>
					<file id="DYR19767_01 2">
						<name>DYR19767_01.mov</name>
						<pathurl>file://localhost/Volumes/Askepott/Prosjekter/DNPR637010_Kra%CC%8Akeklubben_TEM_011212/Video/TORDS%20GARASJE/SJ%C3%98DYR/Reke/DYR19767_01.mov</pathurl>
						<rate>
							<timebase>25</timebase>
						</rate>
						<duration>4277</duration>
						<metadata>
							<storage>QuickTime</storage>
							<key>com.sony.bprl.xdcamtransfer.version</key>
							<size>10</size>
							<type>UTF8</type>
							<value>2.12.0.631</value>
						</metadata>
						<metadata>
							<storage>QuickTime</storage>
							<key>org.smpte.mxf.package.material.packageid</key>
							<size>66</size>
							<type>UTF8</type>
							<value>0x060a2b340101010501010d431300000030292f8c885505c708004602022f05f5</value>
						</metadata>
						<metadata>
							<storage>QuickTime</storage>
							<key>com.sony.professionaldisc.nonrealtimemeta.lastupdate</key>
							<size>25</size>
							<type>UTF8</type>
							<value>2011-01-27 14:11:24 +0100</value>
						</metadata>
						<metadata>
							<storage>QuickTime</storage>
							<key>com.sony.bprl.mxf.umid</key>
							<size>64</size>
							<type>UTF8</type>
							<value>060a2b340101010501010d431300000030292f8c885505c708004602022f05f5</value>
						</metadata>
						<metadata>
							<storage>QuickTime</storage>
							<key>com.sony.bprl.mxf.nrtmetadata</key>
							<size>1994</size>
							<type>UTF8</type>
							<value>&lt;?xml version="1.0" encoding="UTF-8"?>&lt;NonRealTimeMeta xmlns="urn:schemas-professionalDisc:nonRealTimeMeta:ver.1.20" xmlns:lib="urn:schemas-professionalDisc:lib:ver.1.20" xmlns:xsi="http://www.w3.org/2001/XMLSchema-instance" lastUpdate="2011-01-27T14:11:24+01:00">&lt;TargetMaterial umidRef="060A2B340101010501010D431300000030292F8C885505C708004602022F05F5">&lt;/TargetMaterial>&lt;Duration value="4277">&lt;/Duration>&lt;LtcChangeTable tcFps="25" halfStep="false">&lt;LtcChange frameCount="0" value="21054302" status="increment">&lt;/LtcChange>&lt;LtcChange frameCount="4276" value="22564502" status="end">&lt;/LtcChange>&lt;/LtcChangeTable>&lt;CreationDate value="2011-01-27T14:08:32+01:00">&lt;/CreationDate>&lt;TypicalUbit value="0000000017061020">&lt;/TypicalUbit>&lt;BodyUmidBasicChangeTable>&lt;BodyUmidBasicChange frameCount="0" value="060A2B340101010501010D433300000030292F8C885505C708004602022F05F5" status="start">&lt;/BodyUmidBasicChange>&lt;/BodyUmidBasicChangeTable>&lt;BodyUmidWhenChangeTable>&lt;BodyUmidWhenChange frameCount="0" value="04188304885505A5" status="increment">&lt;/BodyUmidWhenChange>&lt;BodyUmidWhenChange frameCount="4276" value="04458704885505A5" status="end">&lt;/BodyUmidWhenChange>&lt;/BodyUmidWhenChangeTable>&lt;KlvPacketTable>&lt;KlvPacket key="060E2B34010101050301020A02000000" frameCount="0" lengthValue="095F5265635374617274" status="spot">&lt;/KlvPacket>&lt;/KlvPacketTable>&lt;VideoFormat>&lt;VideoRecPort port="DIRECT">&lt;/VideoRecPort>&lt;VideoFrame videoCodec="MPEG2HD35_1920_1080_MP@HL" captureFps="50.00i" recFps="50.00" formatFps="50i">&lt;/VideoFrame>&lt;VideoLayout pixel="1920" numOfVerticalLine="1080" aspectRatio="16:9">&lt;/VideoLayout>&lt;/VideoFormat>&lt;AudioFormat numOfChannel="2">&lt;AudioRecPort port="ANALOG" audioCodec="LPCM16" trackDst="CH1">&lt;/AudioRecPort>&lt;AudioRecPort port="DIRECT" audioCodec="LPCM16" trackDst="CH2">&lt;/AudioRecPort>&lt;/AudioFormat>&lt;Device manufacturer="Sony" modelName="PMW-EX3" serialNo="0401525">&lt;/Device>&lt;Lens modelName="VCL-614B2X">&lt;/Lens>&lt;RecordingMode type="normal" cacheRec="false">&lt;/RecordingMode>&lt;/NonRealTimeMeta>
							</value>
						</metadata>
						<metadata>
							<storage>QuickTime</storage>
							<key>com.apple.proapps.reel</key>
							<size>8</size>
							<type>UTF8</type>
							<value>Untitled</value>
						</metadata>
						<metadata>
							<storage>QuickTime</storage>
							<key>com.apple.proapps.clipID</key>
							<size>64</size>
							<type>UTF8</type>
							<value>060A2B340101010501010D431300000030292F8C885505C708004602022F05F5</value>
						</metadata>
						<metadata>
							<storage>QuickTime</storage>
							<key>com.apple.quicktime.information</key>
							<size>64</size>
							<type>UTF8</type>
							<value>060a2b340101010501010d431300000030292f8c885505c708004602022f05f5</value>
						</metadata>
						<metadata>
							<storage>QuickTime</storage>
							<key>com.apple.proapps.originalFormat</key>
							<size>36</size>
							<type>UTF8</type>
							<value>Apple XDCAM EX 1080i50 (35 Mb/s VBR)</value>
						</metadata>
						<timecode>
							<rate>
								<timebase>25</timebase>
							</rate>
							<string>02:43:05:21</string>
							<frame>244646</frame>
							<displayformat>NDF</displayformat>
							<source>source</source>
							<reel>
								<name>Untitled</name>
							</reel>
						</timecode>
						<media>
							<video>
								<duration>4277</duration>
								<samplecharacteristics>
									<width>1920</width>
									<height>1080</height>
								</samplecharacteristics>
							</video>
							<audio>
								<samplecharacteristics>
									<samplerate>48000</samplerate>
									<depth>16</depth>
								</samplecharacteristics>
								<channelcount>1</channelcount>
								<layout>mono</layout>
								<audiochannel>
									<sourcechannel>1</sourcechannel>
									<channellabel>discrete</channellabel>
								</audiochannel>
							</audio>
							<audio>
								<samplecharacteristics>
									<samplerate>48000</samplerate>
									<depth>16</depth>
								</samplecharacteristics>
								<channelcount>1</channelcount>
								<layout>mono</layout>
								<audiochannel>
									<sourcechannel>2</sourcechannel>
									<channellabel>discrete</channellabel>
								</audiochannel>
							</audio>
						</media>
					</file>
					<sourcetrack>
						<mediatype>video</mediatype>
					</sourcetrack>
					<link>
						<linkclipref>DYR19767_01 </linkclipref>
						<mediatype>video</mediatype>
						<trackindex>1</trackindex>
						<clipindex>156</clipindex>
					</link>
					<link>
						<linkclipref>DYR19767_01 3</linkclipref>
						<mediatype>audio</mediatype>
						<trackindex>1</trackindex>
						<clipindex>91</clipindex>
					</link>
					<link>
						<linkclipref>DYR19767_01 4</linkclipref>
						<mediatype>audio</mediatype>
						<trackindex>2</trackindex>
						<clipindex>86</clipindex>
					</link>
					<fielddominance>upper</fielddominance>
					<itemhistory>
						<uuid>8BB5C371-3161-40A9-8D3D-1E05C85CC642</uuid>
					</itemhistory>
				</clipitem>
				<clipitem id="DYR19747_01 ">
					<name>DYR19747_01</name>
					<duration>1271</duration>
					<rate>
						<ntsc>FALSE</ntsc>
						<timebase>25</timebase>
					</rate>
					<in>584</in>
					<out>633</out>
					<start>15990</start>
					<end>16039</end>
					<pixelaspectratio>Square</pixelaspectratio>
					<enabled>TRUE</enabled>
					<anamorphic>FALSE</anamorphic>
					<alphatype>none</alphatype>
					<masterclipid>DYR19747_01 1</masterclipid>
					<logginginfo>
						<scene/>
						<shottake/>
						<lognote/>
						<good>FALSE</good>
					</logginginfo>
					<labels>
						<label2/>
					</labels>
					<comments>
						<mastercomment1/>
						<mastercomment2/>
						<mastercomment3/>
						<mastercomment4/>
					</comments>
					<file id="DYR19747_01 2">
						<name>DYR19747_01.mov</name>
						<pathurl>file://localhost/Volumes/Askepott/Prosjekter/DNPR637010_Kra%CC%8Akeklubben_TEM_011212/Video/TORDS%20GARASJE/SJ%C3%98DYR/Reke/DYR19747_01.mov</pathurl>
						<rate>
							<timebase>25</timebase>
						</rate>
						<duration>1271</duration>
						<metadata>
							<storage>QuickTime</storage>
							<key>com.sony.bprl.xdcamtransfer.version</key>
							<size>10</size>
							<type>UTF8</type>
							<value>2.12.0.631</value>
						</metadata>
						<metadata>
							<storage>QuickTime</storage>
							<key>org.smpte.mxf.package.material.packageid</key>
							<size>66</size>
							<type>UTF8</type>
							<value>0x060a2b340101010501010d4313000000c91bd684885505d508004602022f05f5</value>
						</metadata>
						<metadata>
							<storage>QuickTime</storage>
							<key>com.sony.professionaldisc.nonrealtimemeta.lastupdate</key>
							<size>25</size>
							<type>UTF8</type>
							<value>2011-01-27 13:28:03 +0100</value>
						</metadata>
						<metadata>
							<storage>QuickTime</storage>
							<key>com.sony.bprl.mxf.umid</key>
							<size>64</size>
							<type>UTF8</type>
							<value>060a2b340101010501010d4313000000c91bd684885505d508004602022f05f5</value>
						</metadata>
						<metadata>
							<storage>QuickTime</storage>
							<key>com.sony.bprl.mxf.nrtmetadata</key>
							<size>1994</size>
							<type>UTF8</type>
							<value>&lt;?xml version="1.0" encoding="UTF-8"?>&lt;NonRealTimeMeta xmlns="urn:schemas-professionalDisc:nonRealTimeMeta:ver.1.20" xmlns:lib="urn:schemas-professionalDisc:lib:ver.1.20" xmlns:xsi="http://www.w3.org/2001/XMLSchema-instance" lastUpdate="2011-01-27T13:28:03+01:00">&lt;TargetMaterial umidRef="060A2B340101010501010D4313000000C91BD684885505D508004602022F05F5">&lt;/TargetMaterial>&lt;Duration value="1271">&lt;/Duration>&lt;LtcChangeTable tcFps="25" halfStep="false">&lt;LtcChange frameCount="0" value="14033102" status="increment">&lt;/LtcChange>&lt;LtcChange frameCount="1270" value="09543102" status="end">&lt;/LtcChange>&lt;/LtcChangeTable>&lt;CreationDate value="2011-01-27T13:27:12+01:00">&lt;/CreationDate>&lt;TypicalUbit value="0000000017061020">&lt;/TypicalUbit>&lt;BodyUmidBasicChangeTable>&lt;BodyUmidBasicChange frameCount="0" value="060A2B340101010501010D4333000000C91BD684885505D508004602022F05F5" status="start">&lt;/BodyUmidBasicChange>&lt;/BodyUmidBasicChangeTable>&lt;BodyUmidWhenChangeTable>&lt;BodyUmidWhenChange frameCount="0" value="448C4604885505A5" status="increment">&lt;/BodyUmidWhenChange>&lt;BodyUmidWhenChange frameCount="1270" value="C4C94704885505A5" status="end">&lt;/BodyUmidWhenChange>&lt;/BodyUmidWhenChangeTable>&lt;KlvPacketTable>&lt;KlvPacket key="060E2B34010101050301020A02000000" frameCount="0" lengthValue="095F5265635374617274" status="spot">&lt;/KlvPacket>&lt;/KlvPacketTable>&lt;VideoFormat>&lt;VideoRecPort port="DIRECT">&lt;/VideoRecPort>&lt;VideoFrame videoCodec="MPEG2HD35_1920_1080_MP@HL" captureFps="50.00i" recFps="50.00" formatFps="50i">&lt;/VideoFrame>&lt;VideoLayout pixel="1920" numOfVerticalLine="1080" aspectRatio="16:9">&lt;/VideoLayout>&lt;/VideoFormat>&lt;AudioFormat numOfChannel="2">&lt;AudioRecPort port="ANALOG" audioCodec="LPCM16" trackDst="CH1">&lt;/AudioRecPort>&lt;AudioRecPort port="DIRECT" audioCodec="LPCM16" trackDst="CH2">&lt;/AudioRecPort>&lt;/AudioFormat>&lt;Device manufacturer="Sony" modelName="PMW-EX3" serialNo="0401525">&lt;/Device>&lt;Lens modelName="VCL-614B2X">&lt;/Lens>&lt;RecordingMode type="normal" cacheRec="false">&lt;/RecordingMode>&lt;/NonRealTimeMeta>
							</value>
						</metadata>
						<metadata>
							<storage>QuickTime</storage>
							<key>com.apple.proapps.reel</key>
							<size>8</size>
							<type>UTF8</type>
							<value>Untitled</value>
						</metadata>
						<metadata>
							<storage>QuickTime</storage>
							<key>com.apple.proapps.clipID</key>
							<size>64</size>
							<type>UTF8</type>
							<value>060A2B340101010501010D4313000000C91BD684885505D508004602022F05F5</value>
						</metadata>
						<metadata>
							<storage>QuickTime</storage>
							<key>com.apple.quicktime.information</key>
							<size>64</size>
							<type>UTF8</type>
							<value>060a2b340101010501010d4313000000c91bd684885505d508004602022f05f5</value>
						</metadata>
						<metadata>
							<storage>QuickTime</storage>
							<key>com.apple.proapps.originalFormat</key>
							<size>36</size>
							<type>UTF8</type>
							<value>Apple XDCAM EX 1080i50 (35 Mb/s VBR)</value>
						</metadata>
						<timecode>
							<rate>
								<timebase>25</timebase>
							</rate>
							<string>02:31:03:14</string>
							<frame>226589</frame>
							<displayformat>NDF</displayformat>
							<source>source</source>
							<reel>
								<name>Untitled</name>
							</reel>
						</timecode>
						<media>
							<video>
								<duration>1271</duration>
								<samplecharacteristics>
									<width>1920</width>
									<height>1080</height>
								</samplecharacteristics>
							</video>
							<audio>
								<samplecharacteristics>
									<samplerate>48000</samplerate>
									<depth>16</depth>
								</samplecharacteristics>
								<channelcount>1</channelcount>
								<layout>mono</layout>
								<audiochannel>
									<sourcechannel>1</sourcechannel>
									<channellabel>discrete</channellabel>
								</audiochannel>
							</audio>
							<audio>
								<samplecharacteristics>
									<samplerate>48000</samplerate>
									<depth>16</depth>
								</samplecharacteristics>
								<channelcount>1</channelcount>
								<layout>mono</layout>
								<audiochannel>
									<sourcechannel>2</sourcechannel>
									<channellabel>discrete</channellabel>
								</audiochannel>
							</audio>
						</media>
					</file>
					<sourcetrack>
						<mediatype>video</mediatype>
					</sourcetrack>
					<link>
						<linkclipref>DYR19747_01 </linkclipref>
						<mediatype>video</mediatype>
						<trackindex>1</trackindex>
						<clipindex>157</clipindex>
					</link>
					<link>
						<linkclipref>DYR19747_01 3</linkclipref>
						<mediatype>audio</mediatype>
						<trackindex>1</trackindex>
						<clipindex>92</clipindex>
					</link>
					<link>
						<linkclipref>DYR19747_01 4</linkclipref>
						<mediatype>audio</mediatype>
						<trackindex>2</trackindex>
						<clipindex>87</clipindex>
					</link>
					<fielddominance>upper</fielddominance>
					<itemhistory>
						<uuid>B2E1F2FB-B570-44AE-803D-A17ACE958750</uuid>
					</itemhistory>
				</clipitem>
				<clipitem id="DYR19743_01 ">
					<name>DYR19743_01</name>
					<duration>980</duration>
					<rate>
						<ntsc>FALSE</ntsc>
						<timebase>25</timebase>
					</rate>
					<in>496</in>
					<out>801</out>
					<start>16039</start>
					<end>-1</end>
					<pixelaspectratio>Square</pixelaspectratio>
					<enabled>TRUE</enabled>
					<anamorphic>FALSE</anamorphic>
					<alphatype>none</alphatype>
					<masterclipid>DYR19743_01 1</masterclipid>
					<logginginfo>
						<scene/>
						<shottake/>
						<lognote/>
						<good>FALSE</good>
					</logginginfo>
					<labels>
						<label2/>
					</labels>
					<comments>
						<mastercomment1/>
						<mastercomment2/>
						<mastercomment3/>
						<mastercomment4/>
					</comments>
					<file id="DYR19743_01 2">
						<name>DYR19743_01.mov</name>
						<pathurl>file://localhost/Volumes/Askepott/Prosjekter/DNPR637010_Kra%CC%8Akeklubben_TEM_011212/Video/TORDS%20GARASJE/SJ%C3%98DYR/Reke/DYR19743_01.mov</pathurl>
						<rate>
							<timebase>25</timebase>
						</rate>
						<duration>980</duration>
						<metadata>
							<storage>QuickTime</storage>
							<key>com.sony.bprl.xdcamtransfer.version</key>
							<size>10</size>
							<type>UTF8</type>
							<value>2.12.0.631</value>
						</metadata>
						<metadata>
							<storage>QuickTime</storage>
							<key>org.smpte.mxf.package.material.packageid</key>
							<size>66</size>
							<type>UTF8</type>
							<value>0x060a2b340101010501010d4313000000c6173c84885505c808004602022f05f5</value>
						</metadata>
						<metadata>
							<storage>QuickTime</storage>
							<key>com.sony.professionaldisc.nonrealtimemeta.lastupdate</key>
							<size>25</size>
							<type>UTF8</type>
							<value>2011-01-27 13:24:29 +0100</value>
						</metadata>
						<metadata>
							<storage>QuickTime</storage>
							<key>com.sony.bprl.mxf.umid</key>
							<size>64</size>
							<type>UTF8</type>
							<value>060a2b340101010501010d4313000000c6173c84885505c808004602022f05f5</value>
						</metadata>
						<metadata>
							<storage>QuickTime</storage>
							<key>com.sony.bprl.mxf.nrtmetadata</key>
							<size>1991</size>
							<type>UTF8</type>
							<value>&lt;?xml version="1.0" encoding="UTF-8"?>&lt;NonRealTimeMeta xmlns="urn:schemas-professionalDisc:nonRealTimeMeta:ver.1.20" xmlns:lib="urn:schemas-professionalDisc:lib:ver.1.20" xmlns:xsi="http://www.w3.org/2001/XMLSchema-instance" lastUpdate="2011-01-27T13:24:29+01:00">&lt;TargetMaterial umidRef="060A2B340101010501010D4313000000C6173C84885505C808004602022F05F5">&lt;/TargetMaterial>&lt;Duration value="980">&lt;/Duration>&lt;LtcChangeTable tcFps="25" halfStep="false">&lt;LtcChange frameCount="0" value="10482902" status="increment">&lt;/LtcChange>&lt;LtcChange frameCount="979" value="14273002" status="end">&lt;/LtcChange>&lt;/LtcChangeTable>&lt;CreationDate value="2011-01-27T13:23:49+01:00">&lt;/CreationDate>&lt;TypicalUbit value="0000000017061020">&lt;/TypicalUbit>&lt;BodyUmidBasicChangeTable>&lt;BodyUmidBasicChange frameCount="0" value="060A2B340101010501010D4333000000C6173C84885505C808004602022F05F5" status="start">&lt;/BodyUmidBasicChange>&lt;/BodyUmidBasicChangeTable>&lt;BodyUmidWhenChangeTable>&lt;BodyUmidWhenChange frameCount="0" value="04974104885505A5" status="increment">&lt;/BodyUmidWhenChange>&lt;BodyUmidWhenChange frameCount="979" value="C48B4204885505A5" status="end">&lt;/BodyUmidWhenChange>&lt;/BodyUmidWhenChangeTable>&lt;KlvPacketTable>&lt;KlvPacket key="060E2B34010101050301020A02000000" frameCount="0" lengthValue="095F5265635374617274" status="spot">&lt;/KlvPacket>&lt;/KlvPacketTable>&lt;VideoFormat>&lt;VideoRecPort port="DIRECT">&lt;/VideoRecPort>&lt;VideoFrame videoCodec="MPEG2HD35_1920_1080_MP@HL" captureFps="50.00i" recFps="50.00" formatFps="50i">&lt;/VideoFrame>&lt;VideoLayout pixel="1920" numOfVerticalLine="1080" aspectRatio="16:9">&lt;/VideoLayout>&lt;/VideoFormat>&lt;AudioFormat numOfChannel="2">&lt;AudioRecPort port="ANALOG" audioCodec="LPCM16" trackDst="CH1">&lt;/AudioRecPort>&lt;AudioRecPort port="DIRECT" audioCodec="LPCM16" trackDst="CH2">&lt;/AudioRecPort>&lt;/AudioFormat>&lt;Device manufacturer="Sony" modelName="PMW-EX3" serialNo="0401525">&lt;/Device>&lt;Lens modelName="VCL-614B2X">&lt;/Lens>&lt;RecordingMode type="normal" cacheRec="false">&lt;/RecordingMode>&lt;/NonRealTimeMeta>
							</value>
						</metadata>
						<metadata>
							<storage>QuickTime</storage>
							<key>com.apple.proapps.reel</key>
							<size>8</size>
							<type>UTF8</type>
							<value>Untitled</value>
						</metadata>
						<metadata>
							<storage>QuickTime</storage>
							<key>com.apple.proapps.clipID</key>
							<size>64</size>
							<type>UTF8</type>
							<value>060A2B340101010501010D4313000000C6173C84885505C808004602022F05F5</value>
						</metadata>
						<metadata>
							<storage>QuickTime</storage>
							<key>com.apple.quicktime.information</key>
							<size>64</size>
							<type>UTF8</type>
							<value>060a2b340101010501010d4313000000c6173c84885505c808004602022f05f5</value>
						</metadata>
						<metadata>
							<storage>QuickTime</storage>
							<key>com.apple.proapps.originalFormat</key>
							<size>36</size>
							<type>UTF8</type>
							<value>Apple XDCAM EX 1080i50 (35 Mb/s VBR)</value>
						</metadata>
						<timecode>
							<rate>
								<timebase>25</timebase>
							</rate>
							<string>02:29:48:10</string>
							<frame>224710</frame>
							<displayformat>NDF</displayformat>
							<source>source</source>
							<reel>
								<name>Untitled</name>
							</reel>
						</timecode>
						<media>
							<video>
								<duration>980</duration>
								<samplecharacteristics>
									<width>1920</width>
									<height>1080</height>
								</samplecharacteristics>
							</video>
							<audio>
								<samplecharacteristics>
									<samplerate>48000</samplerate>
									<depth>16</depth>
								</samplecharacteristics>
								<channelcount>1</channelcount>
								<layout>mono</layout>
								<audiochannel>
									<sourcechannel>1</sourcechannel>
									<channellabel>discrete</channellabel>
								</audiochannel>
							</audio>
							<audio>
								<samplecharacteristics>
									<samplerate>48000</samplerate>
									<depth>16</depth>
								</samplecharacteristics>
								<channelcount>1</channelcount>
								<layout>mono</layout>
								<audiochannel>
									<sourcechannel>2</sourcechannel>
									<channellabel>discrete</channellabel>
								</audiochannel>
							</audio>
						</media>
					</file>
					<sourcetrack>
						<mediatype>video</mediatype>
					</sourcetrack>
					<fielddominance>upper</fielddominance>
					<itemhistory>
						<uuid>0FCE4140-72B6-47D3-BE5C-E0308D7E924A</uuid>
					</itemhistory>
				</clipitem>
				<transitionitem>
					<rate>
						<ntsc>FALSE</ntsc>
						<timebase>25</timebase>
					</rate>
					<start>16319</start>
					<end>16344</end>
					<alignment>center</alignment>
					<effect>
						<name>Cross Dissolve</name>
						<effectid>Cross Dissolve</effectid>
						<effectcategory>Dissolve</effectcategory>
						<effecttype>transition</effecttype>
						<mediatype>video</mediatype>
						<wipecode>0</wipecode>
						<wipeaccuracy>100</wipeaccuracy>
						<startratio>0</startratio>
						<endratio>1</endratio>
						<reverse>FALSE</reverse>
					</effect>
				</transitionitem>
				<clipitem id="MVI_6503 ">
					<name>MVI_6503</name>
					<duration>1057</duration>
					<rate>
						<ntsc>FALSE</ntsc>
						<timebase>25</timebase>
					</rate>
					<in>53</in>
					<out>163</out>
					<start>-1</start>
					<end>-1</end>
					<pixelaspectratio>Square</pixelaspectratio>
					<enabled>TRUE</enabled>
					<anamorphic>FALSE</anamorphic>
					<alphatype>none</alphatype>
					<masterclipid>MVI_6503 1</masterclipid>
					<logginginfo>
						<scene/>
						<shottake/>
						<lognote/>
						<good>FALSE</good>
					</logginginfo>
					<labels>
						<label2/>
					</labels>
					<comments>
						<mastercomment1/>
						<mastercomment2/>
						<mastercomment3/>
						<mastercomment4/>
					</comments>
					<file id="MVI_6503 2">
						<name>MVI_6503.mov</name>
						<pathurl>file://localhost/Volumes/Askepott/Prosjekter/DNPR637010_Kra%CC%8Akeklubben_TEM_011212/Video/TORDS%20GARASJE/SJ%C3%98DYR/Reke/Apple%20ProRes%20422%20HQ/MVI_6503.mov</pathurl>
						<rate>
							<timebase>25</timebase>
						</rate>
						<duration>1057</duration>
						<media>
							<video>
								<duration>1057</duration>
								<samplecharacteristics>
									<width>1920</width>
									<height>1080</height>
								</samplecharacteristics>
							</video>
						</media>
					</file>
					<sourcetrack>
						<mediatype>video</mediatype>
					</sourcetrack>
					<fielddominance>upper</fielddominance>
					<itemhistory>
						<uuid>C3385C31-ADB4-40DB-BA58-3BD7F202457C</uuid>
					</itemhistory>
				</clipitem>
				<transitionitem>
					<rate>
						<ntsc>FALSE</ntsc>
						<timebase>25</timebase>
					</rate>
					<start>16404</start>
					<end>16429</end>
					<alignment>center</alignment>
					<effect>
						<name>Cross Dissolve</name>
						<effectid>Cross Dissolve</effectid>
						<effectcategory>Dissolve</effectcategory>
						<effecttype>transition</effecttype>
						<mediatype>video</mediatype>
						<wipecode>0</wipecode>
						<wipeaccuracy>100</wipeaccuracy>
						<startratio>0</startratio>
						<endratio>1</endratio>
						<reverse>FALSE</reverse>
					</effect>
				</transitionitem>
				<clipitem id="MVI_6502 ">
					<name>MVI_6502</name>
					<duration>825</duration>
					<rate>
						<ntsc>FALSE</ntsc>
						<timebase>25</timebase>
					</rate>
					<in>17</in>
					<out>114</out>
					<start>-1</start>
					<end>-1</end>
					<pixelaspectratio>Square</pixelaspectratio>
					<enabled>TRUE</enabled>
					<anamorphic>FALSE</anamorphic>
					<alphatype>none</alphatype>
					<masterclipid>MVI_6502 1</masterclipid>
					<logginginfo>
						<scene/>
						<shottake/>
						<lognote/>
						<good>FALSE</good>
					</logginginfo>
					<labels>
						<label2/>
					</labels>
					<comments>
						<mastercomment1/>
						<mastercomment2/>
						<mastercomment3/>
						<mastercomment4/>
					</comments>
					<file id="MVI_6502 2">
						<name>MVI_6502.mov</name>
						<pathurl>file://localhost/Volumes/Askepott/Prosjekter/DNPR637010_Kra%CC%8Akeklubben_TEM_011212/Video/TORDS%20GARASJE/SJ%C3%98DYR/Reke/Apple%20ProRes%20422%20HQ/MVI_6502.mov</pathurl>
						<rate>
							<timebase>25</timebase>
						</rate>
						<duration>825</duration>
						<media>
							<video>
								<duration>825</duration>
								<samplecharacteristics>
									<width>1920</width>
									<height>1080</height>
								</samplecharacteristics>
							</video>
							<audio>
								<samplecharacteristics>
									<samplerate>48000</samplerate>
									<depth>16</depth>
								</samplecharacteristics>
								<channelcount>2</channelcount>
							</audio>
						</media>
					</file>
					<sourcetrack>
						<mediatype>video</mediatype>
					</sourcetrack>
					<link>
						<linkclipref>MVI_6502 </linkclipref>
						<mediatype>video</mediatype>
						<trackindex>1</trackindex>
						<clipindex>162</clipindex>
					</link>
					<link>
						<linkclipref>MVI_6502 3</linkclipref>
						<mediatype>audio</mediatype>
						<trackindex>1</trackindex>
						<clipindex>97</clipindex>
						<groupindex>1</groupindex>
					</link>
					<link>
						<linkclipref>MVI_6502 4</linkclipref>
						<mediatype>audio</mediatype>
						<trackindex>2</trackindex>
						<clipindex>92</clipindex>
						<groupindex>1</groupindex>
					</link>
					<fielddominance>upper</fielddominance>
					<itemhistory>
						<uuid>BA9219AB-370F-46F9-9683-3A6145703F95</uuid>
					</itemhistory>
				</clipitem>
				<transitionitem>
					<rate>
						<ntsc>FALSE</ntsc>
						<timebase>25</timebase>
					</rate>
					<start>16476</start>
					<end>16501</end>
					<alignment>center</alignment>
					<effect>
						<name>Cross Dissolve</name>
						<effectid>Cross Dissolve</effectid>
						<effectcategory>Dissolve</effectcategory>
						<effecttype>transition</effecttype>
						<mediatype>video</mediatype>
						<wipecode>0</wipecode>
						<wipeaccuracy>100</wipeaccuracy>
						<startratio>0</startratio>
						<endratio>1</endratio>
						<reverse>FALSE</reverse>
					</effect>
				</transitionitem>
				<clipitem id="MVI_6499 ">
					<name>MVI_6499</name>
					<duration>1047</duration>
					<rate>
						<ntsc>FALSE</ntsc>
						<timebase>25</timebase>
					</rate>
					<in>52</in>
					<out>193</out>
					<start>-1</start>
					<end>-1</end>
					<pixelaspectratio>Square</pixelaspectratio>
					<enabled>TRUE</enabled>
					<anamorphic>FALSE</anamorphic>
					<alphatype>none</alphatype>
					<masterclipid>MVI_6499 1</masterclipid>
					<logginginfo>
						<scene/>
						<shottake/>
						<lognote/>
						<good>FALSE</good>
					</logginginfo>
					<labels>
						<label2/>
					</labels>
					<comments>
						<mastercomment1/>
						<mastercomment2/>
						<mastercomment3/>
						<mastercomment4/>
					</comments>
					<file id="MVI_6499 2">
						<name>MVI_6499.mov</name>
						<pathurl>file://localhost/Volumes/Askepott/Prosjekter/DNPR637010_Kra%CC%8Akeklubben_TEM_011212/Video/TORDS%20GARASJE/SJ%C3%98DYR/Reke/Apple%20ProRes%20422%20HQ/MVI_6499.mov</pathurl>
						<rate>
							<timebase>25</timebase>
						</rate>
						<duration>1047</duration>
						<media>
							<video>
								<duration>1047</duration>
								<samplecharacteristics>
									<width>1920</width>
									<height>1080</height>
								</samplecharacteristics>
							</video>
							<audio>
								<samplecharacteristics>
									<samplerate>48000</samplerate>
									<depth>16</depth>
								</samplecharacteristics>
								<channelcount>2</channelcount>
							</audio>
						</media>
					</file>
					<sourcetrack>
						<mediatype>video</mediatype>
					</sourcetrack>
					<fielddominance>upper</fielddominance>
					<itemhistory>
						<uuid>AEA2A460-9E8D-4A65-A668-6D6616D0C714</uuid>
					</itemhistory>
				</clipitem>
				<transitionitem>
					<rate>
						<ntsc>FALSE</ntsc>
						<timebase>25</timebase>
					</rate>
					<start>16592</start>
					<end>16617</end>
					<alignment>center</alignment>
					<effect>
						<name>Cross Dissolve</name>
						<effectid>Cross Dissolve</effectid>
						<effectcategory>Dissolve</effectcategory>
						<effecttype>transition</effecttype>
						<mediatype>video</mediatype>
						<wipecode>0</wipecode>
						<wipeaccuracy>100</wipeaccuracy>
						<startratio>0</startratio>
						<endratio>1</endratio>
						<reverse>FALSE</reverse>
					</effect>
				</transitionitem>
				<clipitem id="MVI_6493 ">
					<name>MVI_6493</name>
					<duration>741</duration>
					<rate>
						<ntsc>FALSE</ntsc>
						<timebase>25</timebase>
					</rate>
					<in>503</in>
					<out>682</out>
					<start>-1</start>
					<end>-1</end>
					<pixelaspectratio>Square</pixelaspectratio>
					<enabled>TRUE</enabled>
					<anamorphic>FALSE</anamorphic>
					<alphatype>none</alphatype>
					<masterclipid>MVI_6493 1</masterclipid>
					<logginginfo>
						<scene/>
						<shottake/>
						<lognote/>
						<good>FALSE</good>
					</logginginfo>
					<labels>
						<label2/>
					</labels>
					<comments>
						<mastercomment1/>
						<mastercomment2/>
						<mastercomment3/>
						<mastercomment4/>
					</comments>
					<file id="MVI_6493 2">
						<name>MVI_6493.mov</name>
						<pathurl>file://localhost/Volumes/Askepott/Prosjekter/DNPR637010_Kra%CC%8Akeklubben_TEM_011212/Video/TORDS%20GARASJE/SJ%C3%98DYR/Reke/Apple%20ProRes%20422%20HQ/MVI_6493.mov</pathurl>
						<rate>
							<timebase>25</timebase>
						</rate>
						<duration>741</duration>
						<media>
							<video>
								<duration>741</duration>
								<samplecharacteristics>
									<width>1920</width>
									<height>1080</height>
								</samplecharacteristics>
							</video>
							<audio>
								<samplecharacteristics>
									<samplerate>48000</samplerate>
									<depth>16</depth>
								</samplecharacteristics>
								<channelcount>2</channelcount>
							</audio>
						</media>
					</file>
					<sourcetrack>
						<mediatype>video</mediatype>
					</sourcetrack>
					<link>
						<linkclipref>MVI_6493 </linkclipref>
						<mediatype>video</mediatype>
						<trackindex>1</trackindex>
						<clipindex>166</clipindex>
					</link>
					<link>
						<linkclipref>MVI_6493 3</linkclipref>
						<mediatype>audio</mediatype>
						<trackindex>1</trackindex>
						<clipindex>100</clipindex>
						<groupindex>1</groupindex>
					</link>
					<link>
						<linkclipref>MVI_6493 4</linkclipref>
						<mediatype>audio</mediatype>
						<trackindex>2</trackindex>
						<clipindex>95</clipindex>
						<groupindex>1</groupindex>
					</link>
					<fielddominance>upper</fielddominance>
					<itemhistory>
						<uuid>F703DEC7-1D69-4E91-8847-2033E06E1E87</uuid>
					</itemhistory>
				</clipitem>
				<transitionitem>
					<rate>
						<ntsc>FALSE</ntsc>
						<timebase>25</timebase>
					</rate>
					<start>16726</start>
					<end>16771</end>
					<alignment>center</alignment>
					<effect>
						<name>Cross Dissolve</name>
						<effectid>Cross Dissolve</effectid>
						<effectcategory>Dissolve</effectcategory>
						<effecttype>transition</effecttype>
						<mediatype>video</mediatype>
						<wipecode>0</wipecode>
						<wipeaccuracy>100</wipeaccuracy>
						<startratio>0</startratio>
						<endratio>1</endratio>
						<reverse>FALSE</reverse>
					</effect>
				</transitionitem>
				<clipitem id="MVI_6486 ">
					<name>MVI_6486</name>
					<duration>805</duration>
					<rate>
						<ntsc>FALSE</ntsc>
						<timebase>25</timebase>
					</rate>
					<in>107</in>
					<out>223</out>
					<start>-1</start>
					<end>-1</end>
					<pixelaspectratio>Square</pixelaspectratio>
					<enabled>TRUE</enabled>
					<anamorphic>FALSE</anamorphic>
					<alphatype>none</alphatype>
					<masterclipid>MVI_6486 1</masterclipid>
					<logginginfo>
						<scene/>
						<shottake/>
						<lognote/>
						<good>FALSE</good>
					</logginginfo>
					<labels>
						<label2/>
					</labels>
					<comments>
						<mastercomment1/>
						<mastercomment2/>
						<mastercomment3/>
						<mastercomment4/>
					</comments>
					<file id="MVI_6486 2">
						<name>MVI_6486.mov</name>
						<pathurl>file://localhost/Volumes/Askepott/Prosjekter/DNPR637010_Kra%CC%8Akeklubben_TEM_011212/Video/TORDS%20GARASJE/SJ%C3%98DYR/Reke/Apple%20ProRes%20422%20HQ/MVI_6486.mov</pathurl>
						<rate>
							<timebase>25</timebase>
						</rate>
						<duration>805</duration>
						<media>
							<video>
								<duration>805</duration>
								<samplecharacteristics>
									<width>1920</width>
									<height>1080</height>
								</samplecharacteristics>
							</video>
							<audio>
								<samplecharacteristics>
									<samplerate>48000</samplerate>
									<depth>16</depth>
								</samplecharacteristics>
								<channelcount>2</channelcount>
							</audio>
						</media>
					</file>
					<filter>
						<effect>
							<name>Basic Motion</name>
							<effectid>basic</effectid>
							<effectcategory>motion</effectcategory>
							<effecttype>motion</effecttype>
							<mediatype>video</mediatype>
							<parameter>
								<parameterid>scale</parameterid>
								<name>Scale</name>
								<valuemin>0</valuemin>
								<valuemax>1000</valuemax>
								<value>107</value>
							</parameter>
							<parameter>
								<parameterid>rotation</parameterid>
								<name>Rotation</name>
								<valuemin>-8640</valuemin>
								<valuemax>8640</valuemax>
								<value>0</value>
							</parameter>
							<parameter>
								<parameterid>center</parameterid>
								<name>Center</name>
								<value>
									<horiz>0.0318725</horiz>
									<vert>0.0377358</vert>
								</value>
							</parameter>
							<parameter>
								<parameterid>centerOffset</parameterid>
								<name>Anchor Point</name>
								<value>
									<horiz>0</horiz>
									<vert>0</vert>
								</value>
							</parameter>
						</effect>
					</filter>
					<filter>
						<enabled>FALSE</enabled>
						<effect>
							<name>Drop Shadow</name>
							<effectid>dropshadow</effectid>
							<effectcategory>motion</effectcategory>
							<effecttype>motion</effecttype>
							<mediatype>video</mediatype>
							<parameter>
								<parameterid>offset</parameterid>
								<name>offset</name>
								<valuemin>-100</valuemin>
								<valuemax>100</valuemax>
								<value>2</value>
							</parameter>
							<parameter>
								<parameterid>angle</parameterid>
								<name>angle</name>
								<valuemin>-720</valuemin>
								<valuemax>720</valuemax>
								<value>135</value>
							</parameter>
							<parameter>
								<parameterid>color</parameterid>
								<name>color</name>
								<value>
									<alpha>0</alpha>
									<red>0</red>
									<green>0</green>
									<blue>0</blue>
								</value>
							</parameter>
							<parameter>
								<parameterid>softness</parameterid>
								<name>softness</name>
								<valuemin>0</valuemin>
								<valuemax>100</valuemax>
								<value>10</value>
							</parameter>
							<parameter>
								<parameterid>opacity</parameterid>
								<name>opacity</name>
								<valuemin>0</valuemin>
								<valuemax>100</valuemax>
								<value>50</value>
							</parameter>
						</effect>
					</filter>
					<filter>
						<enabled>FALSE</enabled>
						<effect>
							<name>Motion Blur</name>
							<effectid>motionblur</effectid>
							<effectcategory>motion</effectcategory>
							<effecttype>motion</effecttype>
							<mediatype>video</mediatype>
							<parameter>
								<parameterid>duration</parameterid>
								<name>% Blur</name>
								<valuemin>0</valuemin>
								<valuemax>1000</valuemax>
								<value>500</value>
							</parameter>
							<parameter>
								<parameterid>samples</parameterid>
								<name>Samples</name>
								<valuemin>1</valuemin>
								<valuemax>16</valuemax>
								<value>4</value>
							</parameter>
						</effect>
					</filter>
					<filter>
						<effect>
							<name>Crop</name>
							<effectid>crop</effectid>
							<effectcategory>motion</effectcategory>
							<effecttype>motion</effecttype>
							<mediatype>video</mediatype>
							<parameter>
								<parameterid>left</parameterid>
								<name>left</name>
								<valuemin>0</valuemin>
								<valuemax>100</valuemax>
								<value>0</value>
							</parameter>
							<parameter>
								<parameterid>right</parameterid>
								<name>right</name>
								<valuemin>0</valuemin>
								<valuemax>100</valuemax>
								<value>0</value>
							</parameter>
							<parameter>
								<parameterid>top</parameterid>
								<name>top</name>
								<valuemin>0</valuemin>
								<valuemax>100</valuemax>
								<value>0</value>
							</parameter>
							<parameter>
								<parameterid>bottom</parameterid>
								<name>bottom</name>
								<valuemin>0</valuemin>
								<valuemax>100</valuemax>
								<value>0</value>
							</parameter>
							<parameter>
								<parameterid>edgefeather</parameterid>
								<name>edgefeather</name>
								<valuemin>0</valuemin>
								<valuemax>100</valuemax>
								<value>0</value>
							</parameter>
						</effect>
					</filter>
					<filter>
						<effect>
							<name>Distort</name>
							<effectid>deformation</effectid>
							<effectcategory>motion</effectcategory>
							<effecttype>motion</effecttype>
							<mediatype>video</mediatype>
							<parameter>
								<parameterid>ulcorner</parameterid>
								<name>Upper Left</name>
								<value>
									<horiz>-0.5</horiz>
									<vert>-0.5</vert>
								</value>
							</parameter>
							<parameter>
								<parameterid>urcorner</parameterid>
								<name>Upper Right</name>
								<value>
									<horiz>0.5</horiz>
									<vert>-0.5</vert>
								</value>
							</parameter>
							<parameter>
								<parameterid>lrcorner</parameterid>
								<name>Lower Right</name>
								<value>
									<horiz>0.5</horiz>
									<vert>0.5</vert>
								</value>
							</parameter>
							<parameter>
								<parameterid>llcorner</parameterid>
								<name>Lower Left</name>
								<value>
									<horiz>-0.5</horiz>
									<vert>0.5</vert>
								</value>
							</parameter>
							<parameter>
								<parameterid>aspect</parameterid>
								<name>Aspect</name>
								<valuemin>-10000</valuemin>
								<valuemax>10000</valuemax>
								<value>0</value>
							</parameter>
						</effect>
					</filter>
					<filter>
						<effect>
							<name>Opacity</name>
							<effectid>opacity</effectid>
							<effectcategory>motion</effectcategory>
							<effecttype>motion</effecttype>
							<mediatype>video</mediatype>
							<parameter>
								<parameterid>opacity</parameterid>
								<name>opacity</name>
								<valuemin>0</valuemin>
								<valuemax>100</valuemax>
								<value>100</value>
							</parameter>
						</effect>
					</filter>
					<sourcetrack>
						<mediatype>video</mediatype>
					</sourcetrack>
					<fielddominance>upper</fielddominance>
					<itemhistory>
						<uuid>4C1EFFFA-9A9A-47CF-87E7-BC8058CA45E8</uuid>
					</itemhistory>
				</clipitem>
				<transitionitem>
					<rate>
						<ntsc>FALSE</ntsc>
						<timebase>25</timebase>
					</rate>
					<start>16817</start>
					<end>16842</end>
					<alignment>center</alignment>
					<effect>
						<name>Cross Dissolve</name>
						<effectid>Cross Dissolve</effectid>
						<effectcategory>Dissolve</effectcategory>
						<effecttype>transition</effecttype>
						<mediatype>video</mediatype>
						<wipecode>0</wipecode>
						<wipeaccuracy>100</wipeaccuracy>
						<startratio>0</startratio>
						<endratio>1</endratio>
						<reverse>FALSE</reverse>
					</effect>
				</transitionitem>
				<clipitem id="DYR19767_01 5">
					<name>DYR19767_01</name>
					<duration>4277</duration>
					<rate>
						<ntsc>FALSE</ntsc>
						<timebase>25</timebase>
					</rate>
					<in>1501</in>
					<out>1617</out>
					<start>-1</start>
					<end>-1</end>
					<pixelaspectratio>Square</pixelaspectratio>
					<enabled>TRUE</enabled>
					<anamorphic>FALSE</anamorphic>
					<alphatype>none</alphatype>
					<masterclipid>DYR19767_01 1</masterclipid>
					<logginginfo>
						<scene/>
						<shottake/>
						<lognote/>
						<good>FALSE</good>
					</logginginfo>
					<labels>
						<label2/>
					</labels>
					<comments>
						<mastercomment1/>
						<mastercomment2/>
						<mastercomment3/>
						<mastercomment4/>
					</comments>
					<file id="DYR19767_01 2"/>
					<sourcetrack>
						<mediatype>video</mediatype>
					</sourcetrack>
					<fielddominance>upper</fielddominance>
					<itemhistory>
						<uuid>4098CD27-EE0F-4115-A712-36C2470C5CEA</uuid>
					</itemhistory>
				</clipitem>
				<transitionitem>
					<rate>
						<ntsc>FALSE</ntsc>
						<timebase>25</timebase>
					</rate>
					<start>16908</start>
					<end>16933</end>
					<alignment>center</alignment>
					<effect>
						<name>Cross Dissolve</name>
						<effectid>Cross Dissolve</effectid>
						<effectcategory>Dissolve</effectcategory>
						<effecttype>transition</effecttype>
						<mediatype>video</mediatype>
						<wipecode>0</wipecode>
						<wipeaccuracy>100</wipeaccuracy>
						<startratio>0</startratio>
						<endratio>1</endratio>
						<reverse>FALSE</reverse>
					</effect>
				</transitionitem>
				<clipitem id="DYR19767_01 6">
					<name>DYR19767_01</name>
					<duration>4277</duration>
					<rate>
						<ntsc>FALSE</ntsc>
						<timebase>25</timebase>
					</rate>
					<in>294</in>
					<out>409</out>
					<start>-1</start>
					<end>-1</end>
					<pixelaspectratio>Square</pixelaspectratio>
					<enabled>TRUE</enabled>
					<anamorphic>FALSE</anamorphic>
					<alphatype>none</alphatype>
					<masterclipid>DYR19767_01 1</masterclipid>
					<logginginfo>
						<scene/>
						<shottake/>
						<lognote/>
						<good>FALSE</good>
					</logginginfo>
					<labels>
						<label2/>
					</labels>
					<comments>
						<mastercomment1/>
						<mastercomment2/>
						<mastercomment3/>
						<mastercomment4/>
					</comments>
					<file id="DYR19767_01 2"/>
					<filter>
						<enabled>TRUE</enabled>
						<start>-1</start>
						<end>-1</end>
						<effect>
							<name>Flop</name>
							<effectid>Flop</effectid>
							<effectcategory>Perspective</effectcategory>
							<effecttype>filter</effecttype>
							<mediatype>video</mediatype>
							<parameter>
								<parameterid>flop</parameterid>
								<name>Flop</name>
								<valuemin>1</valuemin>
								<valuemax>3</valuemax>
								<valuelist>
									<valueentry>
										<name>Horizontal</name>
										<value>1</value>
									</valueentry>
									<valueentry>
										<name>Vertical</name>
										<value>2</value>
									</valueentry>
									<valueentry>
										<name>Both</name>
										<value>3</value>
									</valueentry>
								</valuelist>
								<value>1</value>
							</parameter>
						</effect>
					</filter>
					<filter>
						<effect>
							<name>Basic Motion</name>
							<effectid>basic</effectid>
							<effectcategory>motion</effectcategory>
							<effecttype>motion</effecttype>
							<mediatype>video</mediatype>
							<parameter>
								<parameterid>scale</parameterid>
								<name>Scale</name>
								<valuemin>0</valuemin>
								<valuemax>1000</valuemax>
								<value>120</value>
							</parameter>
							<parameter>
								<parameterid>rotation</parameterid>
								<name>Rotation</name>
								<valuemin>-8640</valuemin>
								<valuemax>8640</valuemax>
								<value>0</value>
							</parameter>
							<parameter>
								<parameterid>center</parameterid>
								<name>Center</name>
								<keyframe>
									<when>302</when>
									<value>
										<horiz>0.0929615</horiz>
										<vert>0.103774</vert>
									</value>
								</keyframe>
								<keyframe>
									<when>393</when>
									<value>
										<horiz>0.0969456</horiz>
										<vert>-0.0966981</vert>
									</value>
								</keyframe>
								<interpolation>
									<name>FCPCurve</name>
								</interpolation>
							</parameter>
							<parameter>
								<parameterid>centerOffset</parameterid>
								<name>Anchor Point</name>
								<value>
									<horiz>0</horiz>
									<vert>0</vert>
								</value>
							</parameter>
						</effect>
					</filter>
					<filter>
						<enabled>FALSE</enabled>
						<effect>
							<name>Drop Shadow</name>
							<effectid>dropshadow</effectid>
							<effectcategory>motion</effectcategory>
							<effecttype>motion</effecttype>
							<mediatype>video</mediatype>
							<parameter>
								<parameterid>offset</parameterid>
								<name>offset</name>
								<valuemin>-100</valuemin>
								<valuemax>100</valuemax>
								<value>2</value>
							</parameter>
							<parameter>
								<parameterid>angle</parameterid>
								<name>angle</name>
								<valuemin>-720</valuemin>
								<valuemax>720</valuemax>
								<value>135</value>
							</parameter>
							<parameter>
								<parameterid>color</parameterid>
								<name>color</name>
								<value>
									<alpha>0</alpha>
									<red>0</red>
									<green>0</green>
									<blue>0</blue>
								</value>
							</parameter>
							<parameter>
								<parameterid>softness</parameterid>
								<name>softness</name>
								<valuemin>0</valuemin>
								<valuemax>100</valuemax>
								<value>10</value>
							</parameter>
							<parameter>
								<parameterid>opacity</parameterid>
								<name>opacity</name>
								<valuemin>0</valuemin>
								<valuemax>100</valuemax>
								<value>50</value>
							</parameter>
						</effect>
					</filter>
					<filter>
						<enabled>FALSE</enabled>
						<effect>
							<name>Motion Blur</name>
							<effectid>motionblur</effectid>
							<effectcategory>motion</effectcategory>
							<effecttype>motion</effecttype>
							<mediatype>video</mediatype>
							<parameter>
								<parameterid>duration</parameterid>
								<name>% Blur</name>
								<valuemin>0</valuemin>
								<valuemax>1000</valuemax>
								<value>500</value>
							</parameter>
							<parameter>
								<parameterid>samples</parameterid>
								<name>Samples</name>
								<valuemin>1</valuemin>
								<valuemax>16</valuemax>
								<value>4</value>
							</parameter>
						</effect>
					</filter>
					<filter>
						<effect>
							<name>Crop</name>
							<effectid>crop</effectid>
							<effectcategory>motion</effectcategory>
							<effecttype>motion</effecttype>
							<mediatype>video</mediatype>
							<parameter>
								<parameterid>left</parameterid>
								<name>left</name>
								<valuemin>0</valuemin>
								<valuemax>100</valuemax>
								<value>0</value>
							</parameter>
							<parameter>
								<parameterid>right</parameterid>
								<name>right</name>
								<valuemin>0</valuemin>
								<valuemax>100</valuemax>
								<value>0</value>
							</parameter>
							<parameter>
								<parameterid>top</parameterid>
								<name>top</name>
								<valuemin>0</valuemin>
								<valuemax>100</valuemax>
								<value>0</value>
							</parameter>
							<parameter>
								<parameterid>bottom</parameterid>
								<name>bottom</name>
								<valuemin>0</valuemin>
								<valuemax>100</valuemax>
								<value>0</value>
							</parameter>
							<parameter>
								<parameterid>edgefeather</parameterid>
								<name>edgefeather</name>
								<valuemin>0</valuemin>
								<valuemax>100</valuemax>
								<value>0</value>
							</parameter>
						</effect>
					</filter>
					<filter>
						<effect>
							<name>Distort</name>
							<effectid>deformation</effectid>
							<effectcategory>motion</effectcategory>
							<effecttype>motion</effecttype>
							<mediatype>video</mediatype>
							<parameter>
								<parameterid>ulcorner</parameterid>
								<name>Upper Left</name>
								<value>
									<horiz>-0.5</horiz>
									<vert>-0.5</vert>
								</value>
							</parameter>
							<parameter>
								<parameterid>urcorner</parameterid>
								<name>Upper Right</name>
								<value>
									<horiz>0.5</horiz>
									<vert>-0.5</vert>
								</value>
							</parameter>
							<parameter>
								<parameterid>lrcorner</parameterid>
								<name>Lower Right</name>
								<value>
									<horiz>0.5</horiz>
									<vert>0.5</vert>
								</value>
							</parameter>
							<parameter>
								<parameterid>llcorner</parameterid>
								<name>Lower Left</name>
								<value>
									<horiz>-0.5</horiz>
									<vert>0.5</vert>
								</value>
							</parameter>
							<parameter>
								<parameterid>aspect</parameterid>
								<name>Aspect</name>
								<valuemin>-10000</valuemin>
								<valuemax>10000</valuemax>
								<value>0</value>
							</parameter>
						</effect>
					</filter>
					<filter>
						<effect>
							<name>Opacity</name>
							<effectid>opacity</effectid>
							<effectcategory>motion</effectcategory>
							<effecttype>motion</effecttype>
							<mediatype>video</mediatype>
							<parameter>
								<parameterid>opacity</parameterid>
								<name>opacity</name>
								<valuemin>0</valuemin>
								<valuemax>100</valuemax>
								<value>100</value>
							</parameter>
						</effect>
					</filter>
					<sourcetrack>
						<mediatype>video</mediatype>
					</sourcetrack>
					<fielddominance>upper</fielddominance>
					<itemhistory>
						<uuid>520DAF69-E0AD-4093-9592-F4014A73D586</uuid>
					</itemhistory>
				</clipitem>
				<transitionitem>
					<rate>
						<ntsc>FALSE</ntsc>
						<timebase>25</timebase>
					</rate>
					<start>16980</start>
					<end>17023</end>
					<alignment>center</alignment>
					<effect>
						<name>Cross Dissolve</name>
						<effectid>Cross Dissolve</effectid>
						<effectcategory>Dissolve</effectcategory>
						<effecttype>transition</effecttype>
						<mediatype>video</mediatype>
						<wipecode>0</wipecode>
						<wipeaccuracy>100</wipeaccuracy>
						<startratio>0</startratio>
						<endratio>1</endratio>
						<reverse>FALSE</reverse>
					</effect>
				</transitionitem>
				<clipitem id="DYR19767_01 7">
					<name>DYR19767_01</name>
					<duration>4277</duration>
					<rate>
						<ntsc>FALSE</ntsc>
						<timebase>25</timebase>
					</rate>
					<in>2686</in>
					<out>2814</out>
					<start>-1</start>
					<end>-1</end>
					<pixelaspectratio>Square</pixelaspectratio>
					<enabled>TRUE</enabled>
					<anamorphic>FALSE</anamorphic>
					<alphatype>none</alphatype>
					<masterclipid>DYR19767_01 1</masterclipid>
					<logginginfo>
						<scene/>
						<shottake/>
						<lognote/>
						<good>FALSE</good>
					</logginginfo>
					<labels>
						<label2/>
					</labels>
					<comments>
						<mastercomment1/>
						<mastercomment2/>
						<mastercomment3/>
						<mastercomment4/>
					</comments>
					<file id="DYR19767_01 2"/>
					<filter>
						<effect>
							<name>Basic Motion</name>
							<effectid>basic</effectid>
							<effectcategory>motion</effectcategory>
							<effecttype>motion</effecttype>
							<mediatype>video</mediatype>
							<parameter>
								<parameterid>scale</parameterid>
								<name>Scale</name>
								<valuemin>0</valuemin>
								<valuemax>1000</valuemax>
								<value>120</value>
							</parameter>
							<parameter>
								<parameterid>rotation</parameterid>
								<name>Rotation</name>
								<valuemin>-8640</valuemin>
								<valuemax>8640</valuemax>
								<value>0</value>
							</parameter>
							<parameter>
								<parameterid>center</parameterid>
								<name>Center</name>
								<value>
									<horiz>0.0212483</horiz>
									<vert>-0.0966981</vert>
								</value>
							</parameter>
							<parameter>
								<parameterid>centerOffset</parameterid>
								<name>Anchor Point</name>
								<value>
									<horiz>0</horiz>
									<vert>0</vert>
								</value>
							</parameter>
						</effect>
					</filter>
					<filter>
						<enabled>FALSE</enabled>
						<effect>
							<name>Drop Shadow</name>
							<effectid>dropshadow</effectid>
							<effectcategory>motion</effectcategory>
							<effecttype>motion</effecttype>
							<mediatype>video</mediatype>
							<parameter>
								<parameterid>offset</parameterid>
								<name>offset</name>
								<valuemin>-100</valuemin>
								<valuemax>100</valuemax>
								<value>2</value>
							</parameter>
							<parameter>
								<parameterid>angle</parameterid>
								<name>angle</name>
								<valuemin>-720</valuemin>
								<valuemax>720</valuemax>
								<value>135</value>
							</parameter>
							<parameter>
								<parameterid>color</parameterid>
								<name>color</name>
								<value>
									<alpha>0</alpha>
									<red>0</red>
									<green>0</green>
									<blue>0</blue>
								</value>
							</parameter>
							<parameter>
								<parameterid>softness</parameterid>
								<name>softness</name>
								<valuemin>0</valuemin>
								<valuemax>100</valuemax>
								<value>10</value>
							</parameter>
							<parameter>
								<parameterid>opacity</parameterid>
								<name>opacity</name>
								<valuemin>0</valuemin>
								<valuemax>100</valuemax>
								<value>50</value>
							</parameter>
						</effect>
					</filter>
					<filter>
						<enabled>FALSE</enabled>
						<effect>
							<name>Motion Blur</name>
							<effectid>motionblur</effectid>
							<effectcategory>motion</effectcategory>
							<effecttype>motion</effecttype>
							<mediatype>video</mediatype>
							<parameter>
								<parameterid>duration</parameterid>
								<name>% Blur</name>
								<valuemin>0</valuemin>
								<valuemax>1000</valuemax>
								<value>500</value>
							</parameter>
							<parameter>
								<parameterid>samples</parameterid>
								<name>Samples</name>
								<valuemin>1</valuemin>
								<valuemax>16</valuemax>
								<value>4</value>
							</parameter>
						</effect>
					</filter>
					<filter>
						<effect>
							<name>Crop</name>
							<effectid>crop</effectid>
							<effectcategory>motion</effectcategory>
							<effecttype>motion</effecttype>
							<mediatype>video</mediatype>
							<parameter>
								<parameterid>left</parameterid>
								<name>left</name>
								<valuemin>0</valuemin>
								<valuemax>100</valuemax>
								<value>0</value>
							</parameter>
							<parameter>
								<parameterid>right</parameterid>
								<name>right</name>
								<valuemin>0</valuemin>
								<valuemax>100</valuemax>
								<value>0</value>
							</parameter>
							<parameter>
								<parameterid>top</parameterid>
								<name>top</name>
								<valuemin>0</valuemin>
								<valuemax>100</valuemax>
								<value>0</value>
							</parameter>
							<parameter>
								<parameterid>bottom</parameterid>
								<name>bottom</name>
								<valuemin>0</valuemin>
								<valuemax>100</valuemax>
								<value>0</value>
							</parameter>
							<parameter>
								<parameterid>edgefeather</parameterid>
								<name>edgefeather</name>
								<valuemin>0</valuemin>
								<valuemax>100</valuemax>
								<value>0</value>
							</parameter>
						</effect>
					</filter>
					<filter>
						<effect>
							<name>Distort</name>
							<effectid>deformation</effectid>
							<effectcategory>motion</effectcategory>
							<effecttype>motion</effecttype>
							<mediatype>video</mediatype>
							<parameter>
								<parameterid>ulcorner</parameterid>
								<name>Upper Left</name>
								<value>
									<horiz>-0.5</horiz>
									<vert>-0.5</vert>
								</value>
							</parameter>
							<parameter>
								<parameterid>urcorner</parameterid>
								<name>Upper Right</name>
								<value>
									<horiz>0.5</horiz>
									<vert>-0.5</vert>
								</value>
							</parameter>
							<parameter>
								<parameterid>lrcorner</parameterid>
								<name>Lower Right</name>
								<value>
									<horiz>0.5</horiz>
									<vert>0.5</vert>
								</value>
							</parameter>
							<parameter>
								<parameterid>llcorner</parameterid>
								<name>Lower Left</name>
								<value>
									<horiz>-0.5</horiz>
									<vert>0.5</vert>
								</value>
							</parameter>
							<parameter>
								<parameterid>aspect</parameterid>
								<name>Aspect</name>
								<valuemin>-10000</valuemin>
								<valuemax>10000</valuemax>
								<value>0</value>
							</parameter>
						</effect>
					</filter>
					<filter>
						<effect>
							<name>Opacity</name>
							<effectid>opacity</effectid>
							<effectcategory>motion</effectcategory>
							<effecttype>motion</effecttype>
							<mediatype>video</mediatype>
							<parameter>
								<parameterid>opacity</parameterid>
								<name>opacity</name>
								<valuemin>0</valuemin>
								<valuemax>100</valuemax>
								<value>100</value>
							</parameter>
						</effect>
					</filter>
					<sourcetrack>
						<mediatype>video</mediatype>
					</sourcetrack>
					<fielddominance>upper</fielddominance>
					<itemhistory>
						<uuid>E076D00C-1B84-4DDA-AF5F-06A75F772697</uuid>
					</itemhistory>
				</clipitem>
				<transitionitem>
					<rate>
						<ntsc>FALSE</ntsc>
						<timebase>25</timebase>
					</rate>
					<start>17083</start>
					<end>17108</end>
					<alignment>center</alignment>
					<effect>
						<name>Cross Dissolve</name>
						<effectid>Cross Dissolve</effectid>
						<effectcategory>Dissolve</effectcategory>
						<effecttype>transition</effecttype>
						<mediatype>video</mediatype>
						<wipecode>0</wipecode>
						<wipeaccuracy>100</wipeaccuracy>
						<startratio>0</startratio>
						<endratio>1</endratio>
						<reverse>FALSE</reverse>
					</effect>
				</transitionitem>
				<clipitem id="DYR19742_01 ">
					<name>DYR19742_01</name>
					<duration>3480</duration>
					<rate>
						<ntsc>FALSE</ntsc>
						<timebase>25</timebase>
					</rate>
					<in>456</in>
					<out>569</out>
					<start>-1</start>
					<end>-1</end>
					<pixelaspectratio>Square</pixelaspectratio>
					<enabled>TRUE</enabled>
					<anamorphic>FALSE</anamorphic>
					<alphatype>none</alphatype>
					<masterclipid>DYR19742_01 1</masterclipid>
					<logginginfo>
						<scene/>
						<shottake/>
						<lognote/>
						<good>FALSE</good>
					</logginginfo>
					<labels>
						<label2/>
					</labels>
					<comments>
						<mastercomment1/>
						<mastercomment2/>
						<mastercomment3/>
						<mastercomment4/>
					</comments>
					<file id="DYR19742_01 2">
						<name>DYR19742_01.mov</name>
						<pathurl>file://localhost/Volumes/Askepott/Prosjekter/DNPR637010_Kra%CC%8Akeklubben_TEM_011212/Video/TORDS%20GARASJE/SJ%C3%98DYR/Reke/DYR19742_01.mov</pathurl>
						<rate>
							<timebase>25</timebase>
						</rate>
						<duration>3480</duration>
						<metadata>
							<storage>QuickTime</storage>
							<key>com.sony.bprl.xdcamtransfer.version</key>
							<size>10</size>
							<type>UTF8</type>
							<value>2.12.0.631</value>
						</metadata>
						<metadata>
							<storage>QuickTime</storage>
							<key>org.smpte.mxf.package.material.packageid</key>
							<size>66</size>
							<type>UTF8</type>
							<value>0x060a2b340101010501010d43130000002ceca982885505ce08004602022f05f5</value>
						</metadata>
						<metadata>
							<storage>QuickTime</storage>
							<key>com.sony.professionaldisc.nonrealtimemeta.lastupdate</key>
							<size>25</size>
							<type>UTF8</type>
							<value>2011-01-27 13:17:19 +0100</value>
						</metadata>
						<metadata>
							<storage>QuickTime</storage>
							<key>com.sony.bprl.mxf.umid</key>
							<size>64</size>
							<type>UTF8</type>
							<value>060a2b340101010501010d43130000002ceca982885505ce08004602022f05f5</value>
						</metadata>
						<metadata>
							<storage>QuickTime</storage>
							<key>com.sony.bprl.mxf.nrtmetadata</key>
							<size>1994</size>
							<type>UTF8</type>
							<value>&lt;?xml version="1.0" encoding="UTF-8"?>&lt;NonRealTimeMeta xmlns="urn:schemas-professionalDisc:nonRealTimeMeta:ver.1.20" xmlns:lib="urn:schemas-professionalDisc:lib:ver.1.20" xmlns:xsi="http://www.w3.org/2001/XMLSchema-instance" lastUpdate="2011-01-27T13:17:19+01:00">&lt;TargetMaterial umidRef="060A2B340101010501010D43130000002CECA982885505CE08004602022F05F5">&lt;/TargetMaterial>&lt;Duration value="3480">&lt;/Duration>&lt;LtcChangeTable tcFps="25" halfStep="false">&lt;LtcChange frameCount="0" value="05292702" status="increment">&lt;/LtcChange>&lt;LtcChange frameCount="3479" value="09482902" status="end">&lt;/LtcChange>&lt;/LtcChangeTable>&lt;CreationDate value="2011-01-27T13:14:59+01:00">&lt;/CreationDate>&lt;TypicalUbit value="0000000017061020">&lt;/TypicalUbit>&lt;BodyUmidBasicChangeTable>&lt;BodyUmidBasicChange frameCount="0" value="060A2B340101010501010D43330000002CECA982885505CE08004602022F05F5" status="start">&lt;/BodyUmidBasicChange>&lt;/BodyUmidBasicChangeTable>&lt;BodyUmidWhenChangeTable>&lt;BodyUmidWhenChange frameCount="0" value="44A53404885505A5" status="increment">&lt;/BodyUmidWhenChange>&lt;BodyUmidWhenChange frameCount="3479" value="040B3804885505A5" status="end">&lt;/BodyUmidWhenChange>&lt;/BodyUmidWhenChangeTable>&lt;KlvPacketTable>&lt;KlvPacket key="060E2B34010101050301020A02000000" frameCount="0" lengthValue="095F5265635374617274" status="spot">&lt;/KlvPacket>&lt;/KlvPacketTable>&lt;VideoFormat>&lt;VideoRecPort port="DIRECT">&lt;/VideoRecPort>&lt;VideoFrame videoCodec="MPEG2HD35_1920_1080_MP@HL" captureFps="50.00i" recFps="50.00" formatFps="50i">&lt;/VideoFrame>&lt;VideoLayout pixel="1920" numOfVerticalLine="1080" aspectRatio="16:9">&lt;/VideoLayout>&lt;/VideoFormat>&lt;AudioFormat numOfChannel="2">&lt;AudioRecPort port="ANALOG" audioCodec="LPCM16" trackDst="CH1">&lt;/AudioRecPort>&lt;AudioRecPort port="DIRECT" audioCodec="LPCM16" trackDst="CH2">&lt;/AudioRecPort>&lt;/AudioFormat>&lt;Device manufacturer="Sony" modelName="PMW-EX3" serialNo="0401525">&lt;/Device>&lt;Lens modelName="VCL-614B2X">&lt;/Lens>&lt;RecordingMode type="normal" cacheRec="false">&lt;/RecordingMode>&lt;/NonRealTimeMeta>
							</value>
						</metadata>
						<metadata>
							<storage>QuickTime</storage>
							<key>com.apple.proapps.reel</key>
							<size>8</size>
							<type>UTF8</type>
							<value>Untitled</value>
						</metadata>
						<metadata>
							<storage>QuickTime</storage>
							<key>com.apple.proapps.clipID</key>
							<size>64</size>
							<type>UTF8</type>
							<value>060A2B340101010501010D43130000002CECA982885505CE08004602022F05F5</value>
						</metadata>
						<metadata>
							<storage>QuickTime</storage>
							<key>com.apple.quicktime.information</key>
							<size>64</size>
							<type>UTF8</type>
							<value>060a2b340101010501010d43130000002ceca982885505ce08004602022f05f5</value>
						</metadata>
						<metadata>
							<storage>QuickTime</storage>
							<key>com.apple.proapps.originalFormat</key>
							<size>36</size>
							<type>UTF8</type>
							<value>Apple XDCAM EX 1080i50 (35 Mb/s VBR)</value>
						</metadata>
						<timecode>
							<rate>
								<timebase>25</timebase>
							</rate>
							<string>02:27:29:05</string>
							<frame>221230</frame>
							<displayformat>NDF</displayformat>
							<source>source</source>
							<reel>
								<name>Untitled</name>
							</reel>
						</timecode>
						<media>
							<video>
								<duration>3480</duration>
								<samplecharacteristics>
									<width>1920</width>
									<height>1080</height>
								</samplecharacteristics>
							</video>
							<audio>
								<samplecharacteristics>
									<samplerate>48000</samplerate>
									<depth>16</depth>
								</samplecharacteristics>
								<channelcount>1</channelcount>
								<layout>mono</layout>
								<audiochannel>
									<sourcechannel>1</sourcechannel>
									<channellabel>discrete</channellabel>
								</audiochannel>
							</audio>
							<audio>
								<samplecharacteristics>
									<samplerate>48000</samplerate>
									<depth>16</depth>
								</samplecharacteristics>
								<channelcount>1</channelcount>
								<layout>mono</layout>
								<audiochannel>
									<sourcechannel>2</sourcechannel>
									<channellabel>discrete</channellabel>
								</audiochannel>
							</audio>
						</media>
					</file>
					<sourcetrack>
						<mediatype>video</mediatype>
					</sourcetrack>
					<link>
						<linkclipref>DYR19742_01 </linkclipref>
						<mediatype>video</mediatype>
						<trackindex>1</trackindex>
						<clipindex>176</clipindex>
					</link>
					<link>
						<linkclipref>DYR19742_01 3</linkclipref>
						<mediatype>audio</mediatype>
						<trackindex>1</trackindex>
						<clipindex>103</clipindex>
					</link>
					<fielddominance>upper</fielddominance>
					<itemhistory>
						<uuid>BB4FF039-5F7F-4AAC-8C0F-9A6CE0A59346</uuid>
					</itemhistory>
				</clipitem>
				<transitionitem>
					<rate>
						<ntsc>FALSE</ntsc>
						<timebase>25</timebase>
					</rate>
					<start>17171</start>
					<end>17196</end>
					<alignment>center</alignment>
					<effect>
						<name>Cross Dissolve</name>
						<effectid>Cross Dissolve</effectid>
						<effectcategory>Dissolve</effectcategory>
						<effecttype>transition</effecttype>
						<mediatype>video</mediatype>
						<wipecode>0</wipecode>
						<wipeaccuracy>100</wipeaccuracy>
						<startratio>0</startratio>
						<endratio>1</endratio>
						<reverse>FALSE</reverse>
					</effect>
				</transitionitem>
				<clipitem id="DYR19767_01 8">
					<name>DYR19767_01</name>
					<duration>4277</duration>
					<rate>
						<ntsc>FALSE</ntsc>
						<timebase>25</timebase>
					</rate>
					<in>2559</in>
					<out>2673</out>
					<start>-1</start>
					<end>-1</end>
					<pixelaspectratio>Square</pixelaspectratio>
					<enabled>TRUE</enabled>
					<anamorphic>FALSE</anamorphic>
					<alphatype>none</alphatype>
					<masterclipid>DYR19767_01 1</masterclipid>
					<logginginfo>
						<scene/>
						<shottake/>
						<lognote/>
						<good>FALSE</good>
					</logginginfo>
					<labels>
						<label2/>
					</labels>
					<comments>
						<mastercomment1/>
						<mastercomment2/>
						<mastercomment3/>
						<mastercomment4/>
					</comments>
					<file id="DYR19767_01 2"/>
					<filter>
						<effect>
							<name>Basic Motion</name>
							<effectid>basic</effectid>
							<effectcategory>motion</effectcategory>
							<effecttype>motion</effecttype>
							<mediatype>video</mediatype>
							<parameter>
								<parameterid>scale</parameterid>
								<name>Scale</name>
								<valuemin>0</valuemin>
								<valuemax>1000</valuemax>
								<value>125</value>
							</parameter>
							<parameter>
								<parameterid>rotation</parameterid>
								<name>Rotation</name>
								<valuemin>-8640</valuemin>
								<valuemax>8640</valuemax>
								<value>0</value>
							</parameter>
							<parameter>
								<parameterid>center</parameterid>
								<name>Center</name>
								<value>
									<horiz>0.0517928</horiz>
									<vert>-0.122642</vert>
								</value>
							</parameter>
							<parameter>
								<parameterid>centerOffset</parameterid>
								<name>Anchor Point</name>
								<value>
									<horiz>0</horiz>
									<vert>0</vert>
								</value>
							</parameter>
						</effect>
					</filter>
					<filter>
						<enabled>FALSE</enabled>
						<effect>
							<name>Drop Shadow</name>
							<effectid>dropshadow</effectid>
							<effectcategory>motion</effectcategory>
							<effecttype>motion</effecttype>
							<mediatype>video</mediatype>
							<parameter>
								<parameterid>offset</parameterid>
								<name>offset</name>
								<valuemin>-100</valuemin>
								<valuemax>100</valuemax>
								<value>2</value>
							</parameter>
							<parameter>
								<parameterid>angle</parameterid>
								<name>angle</name>
								<valuemin>-720</valuemin>
								<valuemax>720</valuemax>
								<value>135</value>
							</parameter>
							<parameter>
								<parameterid>color</parameterid>
								<name>color</name>
								<value>
									<alpha>0</alpha>
									<red>0</red>
									<green>0</green>
									<blue>0</blue>
								</value>
							</parameter>
							<parameter>
								<parameterid>softness</parameterid>
								<name>softness</name>
								<valuemin>0</valuemin>
								<valuemax>100</valuemax>
								<value>10</value>
							</parameter>
							<parameter>
								<parameterid>opacity</parameterid>
								<name>opacity</name>
								<valuemin>0</valuemin>
								<valuemax>100</valuemax>
								<value>50</value>
							</parameter>
						</effect>
					</filter>
					<filter>
						<enabled>FALSE</enabled>
						<effect>
							<name>Motion Blur</name>
							<effectid>motionblur</effectid>
							<effectcategory>motion</effectcategory>
							<effecttype>motion</effecttype>
							<mediatype>video</mediatype>
							<parameter>
								<parameterid>duration</parameterid>
								<name>% Blur</name>
								<valuemin>0</valuemin>
								<valuemax>1000</valuemax>
								<value>500</value>
							</parameter>
							<parameter>
								<parameterid>samples</parameterid>
								<name>Samples</name>
								<valuemin>1</valuemin>
								<valuemax>16</valuemax>
								<value>4</value>
							</parameter>
						</effect>
					</filter>
					<filter>
						<effect>
							<name>Crop</name>
							<effectid>crop</effectid>
							<effectcategory>motion</effectcategory>
							<effecttype>motion</effecttype>
							<mediatype>video</mediatype>
							<parameter>
								<parameterid>left</parameterid>
								<name>left</name>
								<valuemin>0</valuemin>
								<valuemax>100</valuemax>
								<value>0</value>
							</parameter>
							<parameter>
								<parameterid>right</parameterid>
								<name>right</name>
								<valuemin>0</valuemin>
								<valuemax>100</valuemax>
								<value>0</value>
							</parameter>
							<parameter>
								<parameterid>top</parameterid>
								<name>top</name>
								<valuemin>0</valuemin>
								<valuemax>100</valuemax>
								<value>0</value>
							</parameter>
							<parameter>
								<parameterid>bottom</parameterid>
								<name>bottom</name>
								<valuemin>0</valuemin>
								<valuemax>100</valuemax>
								<value>0</value>
							</parameter>
							<parameter>
								<parameterid>edgefeather</parameterid>
								<name>edgefeather</name>
								<valuemin>0</valuemin>
								<valuemax>100</valuemax>
								<value>0</value>
							</parameter>
						</effect>
					</filter>
					<filter>
						<effect>
							<name>Distort</name>
							<effectid>deformation</effectid>
							<effectcategory>motion</effectcategory>
							<effecttype>motion</effecttype>
							<mediatype>video</mediatype>
							<parameter>
								<parameterid>ulcorner</parameterid>
								<name>Upper Left</name>
								<value>
									<horiz>-0.5</horiz>
									<vert>-0.5</vert>
								</value>
							</parameter>
							<parameter>
								<parameterid>urcorner</parameterid>
								<name>Upper Right</name>
								<value>
									<horiz>0.5</horiz>
									<vert>-0.5</vert>
								</value>
							</parameter>
							<parameter>
								<parameterid>lrcorner</parameterid>
								<name>Lower Right</name>
								<value>
									<horiz>0.5</horiz>
									<vert>0.5</vert>
								</value>
							</parameter>
							<parameter>
								<parameterid>llcorner</parameterid>
								<name>Lower Left</name>
								<value>
									<horiz>-0.5</horiz>
									<vert>0.5</vert>
								</value>
							</parameter>
							<parameter>
								<parameterid>aspect</parameterid>
								<name>Aspect</name>
								<valuemin>-10000</valuemin>
								<valuemax>10000</valuemax>
								<value>0</value>
							</parameter>
						</effect>
					</filter>
					<filter>
						<effect>
							<name>Opacity</name>
							<effectid>opacity</effectid>
							<effectcategory>motion</effectcategory>
							<effecttype>motion</effecttype>
							<mediatype>video</mediatype>
							<parameter>
								<parameterid>opacity</parameterid>
								<name>opacity</name>
								<valuemin>0</valuemin>
								<valuemax>100</valuemax>
								<value>100</value>
							</parameter>
						</effect>
					</filter>
					<sourcetrack>
						<mediatype>video</mediatype>
					</sourcetrack>
					<fielddominance>upper</fielddominance>
					<itemhistory>
						<uuid>2B12CDBA-584E-4816-9BF7-184973A1009D</uuid>
					</itemhistory>
				</clipitem>
				<transitionitem>
					<rate>
						<ntsc>FALSE</ntsc>
						<timebase>25</timebase>
					</rate>
					<start>17260</start>
					<end>17285</end>
					<alignment>center</alignment>
					<effect>
						<name>Cross Dissolve</name>
						<effectid>Cross Dissolve</effectid>
						<effectcategory>Dissolve</effectcategory>
						<effecttype>transition</effecttype>
						<mediatype>video</mediatype>
						<wipecode>0</wipecode>
						<wipeaccuracy>100</wipeaccuracy>
						<startratio>0</startratio>
						<endratio>1</endratio>
						<reverse>FALSE</reverse>
					</effect>
				</transitionitem>
				<clipitem id="DYR19742_01 4">
					<name>DYR19742_01</name>
					<duration>3480</duration>
					<rate>
						<ntsc>FALSE</ntsc>
						<timebase>25</timebase>
					</rate>
					<in>3139</in>
					<out>3289</out>
					<start>-1</start>
					<end>-1</end>
					<pixelaspectratio>Square</pixelaspectratio>
					<enabled>TRUE</enabled>
					<anamorphic>FALSE</anamorphic>
					<alphatype>none</alphatype>
					<masterclipid>DYR19742_01 1</masterclipid>
					<logginginfo>
						<scene/>
						<shottake/>
						<lognote/>
						<good>FALSE</good>
					</logginginfo>
					<labels>
						<label2/>
					</labels>
					<comments>
						<mastercomment1/>
						<mastercomment2/>
						<mastercomment3/>
						<mastercomment4/>
					</comments>
					<file id="DYR19742_01 2"/>
					<sourcetrack>
						<mediatype>video</mediatype>
					</sourcetrack>
					<link>
						<linkclipref>DYR19742_01 4</linkclipref>
						<mediatype>video</mediatype>
						<trackindex>1</trackindex>
						<clipindex>180</clipindex>
					</link>
					<link>
						<linkclipref>DYR19742_01 5</linkclipref>
						<mediatype>audio</mediatype>
						<trackindex>1</trackindex>
						<clipindex>105</clipindex>
					</link>
					<fielddominance>upper</fielddominance>
					<itemhistory>
						<uuid>9319D9C4-51DE-427E-9AE1-8FD958B0D8BA</uuid>
					</itemhistory>
				</clipitem>
				<transitionitem>
					<rate>
						<ntsc>FALSE</ntsc>
						<timebase>25</timebase>
					</rate>
					<start>17385</start>
					<end>17410</end>
					<alignment>center</alignment>
					<effect>
						<name>Cross Dissolve</name>
						<effectid>Cross Dissolve</effectid>
						<effectcategory>Dissolve</effectcategory>
						<effecttype>transition</effecttype>
						<mediatype>video</mediatype>
						<wipecode>0</wipecode>
						<wipeaccuracy>100</wipeaccuracy>
						<startratio>0</startratio>
						<endratio>1</endratio>
						<reverse>FALSE</reverse>
					</effect>
				</transitionitem>
				<clipitem id="DYR19752_01 ">
					<name>DYR19752_01</name>
					<duration>1433</duration>
					<rate>
						<ntsc>FALSE</ntsc>
						<timebase>25</timebase>
					</rate>
					<in>479</in>
					<out>607</out>
					<start>-1</start>
					<end>-1</end>
					<pixelaspectratio>Square</pixelaspectratio>
					<enabled>TRUE</enabled>
					<anamorphic>FALSE</anamorphic>
					<alphatype>none</alphatype>
					<masterclipid>DYR19752_01 1</masterclipid>
					<logginginfo>
						<scene/>
						<shottake/>
						<lognote/>
						<good>FALSE</good>
					</logginginfo>
					<labels>
						<label2/>
					</labels>
					<comments>
						<mastercomment1/>
						<mastercomment2/>
						<mastercomment3/>
						<mastercomment4/>
					</comments>
					<file id="DYR19752_01 2">
						<name>DYR19752_01.mov</name>
						<pathurl>file://localhost/Volumes/Askepott/Prosjekter/DNPR637010_Kra%CC%8Akeklubben_TEM_011212/Video/TORDS%20GARASJE/SJ%C3%98DYR/Reke/DYR19752_01.mov</pathurl>
						<rate>
							<timebase>25</timebase>
						</rate>
						<duration>1433</duration>
						<metadata>
							<storage>QuickTime</storage>
							<key>com.sony.bprl.xdcamtransfer.version</key>
							<size>10</size>
							<type>UTF8</type>
							<value>2.12.0.631</value>
						</metadata>
						<metadata>
							<storage>QuickTime</storage>
							<key>org.smpte.mxf.package.material.packageid</key>
							<size>66</size>
							<type>UTF8</type>
							<value>0x060a2b340101010501010d431300000003f6c385885505ce08004602022f05f5</value>
						</metadata>
						<metadata>
							<storage>QuickTime</storage>
							<key>com.sony.professionaldisc.nonrealtimemeta.lastupdate</key>
							<size>25</size>
							<type>UTF8</type>
							<value>2011-01-27 13:33:24 +0100</value>
						</metadata>
						<metadata>
							<storage>QuickTime</storage>
							<key>com.sony.bprl.mxf.umid</key>
							<size>64</size>
							<type>UTF8</type>
							<value>060a2b340101010501010d431300000003f6c385885505ce08004602022f05f5</value>
						</metadata>
						<metadata>
							<storage>QuickTime</storage>
							<key>com.sony.bprl.mxf.nrtmetadata</key>
							<size>1994</size>
							<type>UTF8</type>
							<value>&lt;?xml version="1.0" encoding="UTF-8"?>&lt;NonRealTimeMeta xmlns="urn:schemas-professionalDisc:nonRealTimeMeta:ver.1.20" xmlns:lib="urn:schemas-professionalDisc:lib:ver.1.20" xmlns:xsi="http://www.w3.org/2001/XMLSchema-instance" lastUpdate="2011-01-27T13:33:24+01:00">&lt;TargetMaterial umidRef="060A2B340101010501010D431300000003F6C385885505CE08004602022F05F5">&lt;/TargetMaterial>&lt;Duration value="1433">&lt;/Duration>&lt;LtcChangeTable tcFps="25" halfStep="false">&lt;LtcChange frameCount="0" value="18333302" status="increment">&lt;/LtcChange>&lt;LtcChange frameCount="1432" value="00313402" status="end">&lt;/LtcChange>&lt;/LtcChangeTable>&lt;CreationDate value="2011-01-27T13:32:25+01:00">&lt;/CreationDate>&lt;TypicalUbit value="0000000017061020">&lt;/TypicalUbit>&lt;BodyUmidBasicChangeTable>&lt;BodyUmidBasicChange frameCount="0" value="060A2B340101010501010D433300000003F6C385885505CE08004602022F05F5" status="start">&lt;/BodyUmidBasicChange>&lt;/BodyUmidBasicChangeTable>&lt;BodyUmidWhenChangeTable>&lt;BodyUmidWhenChange frameCount="0" value="04344E04885505A5" status="increment">&lt;/BodyUmidWhenChange>&lt;BodyUmidWhenChange frameCount="1432" value="049A4F04885505A5" status="end">&lt;/BodyUmidWhenChange>&lt;/BodyUmidWhenChangeTable>&lt;KlvPacketTable>&lt;KlvPacket key="060E2B34010101050301020A02000000" frameCount="0" lengthValue="095F5265635374617274" status="spot">&lt;/KlvPacket>&lt;/KlvPacketTable>&lt;VideoFormat>&lt;VideoRecPort port="DIRECT">&lt;/VideoRecPort>&lt;VideoFrame videoCodec="MPEG2HD35_1920_1080_MP@HL" captureFps="50.00i" recFps="50.00" formatFps="50i">&lt;/VideoFrame>&lt;VideoLayout pixel="1920" numOfVerticalLine="1080" aspectRatio="16:9">&lt;/VideoLayout>&lt;/VideoFormat>&lt;AudioFormat numOfChannel="2">&lt;AudioRecPort port="ANALOG" audioCodec="LPCM16" trackDst="CH1">&lt;/AudioRecPort>&lt;AudioRecPort port="DIRECT" audioCodec="LPCM16" trackDst="CH2">&lt;/AudioRecPort>&lt;/AudioFormat>&lt;Device manufacturer="Sony" modelName="PMW-EX3" serialNo="0401525">&lt;/Device>&lt;Lens modelName="VCL-614B2X">&lt;/Lens>&lt;RecordingMode type="normal" cacheRec="false">&lt;/RecordingMode>&lt;/NonRealTimeMeta>
							</value>
						</metadata>
						<metadata>
							<storage>QuickTime</storage>
							<key>com.apple.proapps.reel</key>
							<size>8</size>
							<type>UTF8</type>
							<value>Untitled</value>
						</metadata>
						<metadata>
							<storage>QuickTime</storage>
							<key>com.apple.proapps.clipID</key>
							<size>64</size>
							<type>UTF8</type>
							<value>060A2B340101010501010D431300000003F6C385885505CE08004602022F05F5</value>
						</metadata>
						<metadata>
							<storage>QuickTime</storage>
							<key>com.apple.quicktime.information</key>
							<size>64</size>
							<type>UTF8</type>
							<value>060a2b340101010501010d431300000003f6c385885505ce08004602022f05f5</value>
						</metadata>
						<metadata>
							<storage>QuickTime</storage>
							<key>com.apple.proapps.originalFormat</key>
							<size>36</size>
							<type>UTF8</type>
							<value>Apple XDCAM EX 1080i50 (35 Mb/s VBR)</value>
						</metadata>
						<timecode>
							<rate>
								<timebase>25</timebase>
							</rate>
							<string>02:33:33:18</string>
							<frame>230343</frame>
							<displayformat>NDF</displayformat>
							<source>source</source>
							<reel>
								<name>Untitled</name>
							</reel>
						</timecode>
						<media>
							<video>
								<duration>1433</duration>
								<samplecharacteristics>
									<width>1920</width>
									<height>1080</height>
								</samplecharacteristics>
							</video>
							<audio>
								<samplecharacteristics>
									<samplerate>48000</samplerate>
									<depth>16</depth>
								</samplecharacteristics>
								<channelcount>1</channelcount>
								<layout>mono</layout>
								<audiochannel>
									<sourcechannel>1</sourcechannel>
									<channellabel>discrete</channellabel>
								</audiochannel>
							</audio>
							<audio>
								<samplecharacteristics>
									<samplerate>48000</samplerate>
									<depth>16</depth>
								</samplecharacteristics>
								<channelcount>1</channelcount>
								<layout>mono</layout>
								<audiochannel>
									<sourcechannel>2</sourcechannel>
									<channellabel>discrete</channellabel>
								</audiochannel>
							</audio>
						</media>
					</file>
					<sourcetrack>
						<mediatype>video</mediatype>
					</sourcetrack>
					<fielddominance>upper</fielddominance>
					<itemhistory>
						<uuid>B4F571FA-AE4F-44C7-9F84-2AF6251C05EA</uuid>
					</itemhistory>
				</clipitem>
				<transitionitem>
					<rate>
						<ntsc>FALSE</ntsc>
						<timebase>25</timebase>
					</rate>
					<start>17488</start>
					<end>17513</end>
					<alignment>center</alignment>
					<effect>
						<name>Cross Dissolve</name>
						<effectid>Cross Dissolve</effectid>
						<effectcategory>Dissolve</effectcategory>
						<effecttype>transition</effecttype>
						<mediatype>video</mediatype>
						<wipecode>0</wipecode>
						<wipeaccuracy>100</wipeaccuracy>
						<startratio>0</startratio>
						<endratio>1</endratio>
						<reverse>FALSE</reverse>
					</effect>
				</transitionitem>
				<clipitem id="DYR19759_01 ">
					<name>DYR19759_01</name>
					<duration>358</duration>
					<rate>
						<ntsc>FALSE</ntsc>
						<timebase>25</timebase>
					</rate>
					<in>104</in>
					<out>170</out>
					<start>-1</start>
					<end>17554</end>
					<pixelaspectratio>Square</pixelaspectratio>
					<enabled>TRUE</enabled>
					<anamorphic>FALSE</anamorphic>
					<alphatype>none</alphatype>
					<masterclipid>DYR19759_01 1</masterclipid>
					<logginginfo>
						<scene/>
						<shottake/>
						<lognote/>
						<good>FALSE</good>
					</logginginfo>
					<labels>
						<label2/>
					</labels>
					<comments>
						<mastercomment1/>
						<mastercomment2/>
						<mastercomment3/>
						<mastercomment4/>
					</comments>
					<file id="DYR19759_01 2">
						<name>DYR19759_01.mov</name>
						<pathurl>file://localhost/Volumes/Askepott/Prosjekter/DNPR637010_Kra%CC%8Akeklubben_TEM_011212/Video/TORDS%20GARASJE/SJ%C3%98DYR/Reke/DYR19759_01.mov</pathurl>
						<rate>
							<timebase>25</timebase>
						</rate>
						<duration>358</duration>
						<metadata>
							<storage>QuickTime</storage>
							<key>com.sony.bprl.xdcamtransfer.version</key>
							<size>10</size>
							<type>UTF8</type>
							<value>2.12.0.631</value>
						</metadata>
						<metadata>
							<storage>QuickTime</storage>
							<key>org.smpte.mxf.package.material.packageid</key>
							<size>66</size>
							<type>UTF8</type>
							<value>0x060a2b340101010501010d4313000000bbb2558a885505c208004602022f05f5</value>
						</metadata>
						<metadata>
							<storage>QuickTime</storage>
							<key>com.sony.professionaldisc.nonrealtimemeta.lastupdate</key>
							<size>25</size>
							<type>UTF8</type>
							<value>2011-01-27 13:58:23 +0100</value>
						</metadata>
						<metadata>
							<storage>QuickTime</storage>
							<key>com.sony.bprl.mxf.umid</key>
							<size>64</size>
							<type>UTF8</type>
							<value>060a2b340101010501010d4313000000bbb2558a885505c208004602022f05f5</value>
						</metadata>
						<metadata>
							<storage>QuickTime</storage>
							<key>com.sony.bprl.mxf.nrtmetadata</key>
							<size>1991</size>
							<type>UTF8</type>
							<value>&lt;?xml version="1.0" encoding="UTF-8"?>&lt;NonRealTimeMeta xmlns="urn:schemas-professionalDisc:nonRealTimeMeta:ver.1.20" xmlns:lib="urn:schemas-professionalDisc:lib:ver.1.20" xmlns:xsi="http://www.w3.org/2001/XMLSchema-instance" lastUpdate="2011-01-27T13:58:23+01:00">&lt;TargetMaterial umidRef="060A2B340101010501010D4313000000BBB2558A885505C208004602022F05F5">&lt;/TargetMaterial>&lt;Duration value="358">&lt;/Duration>&lt;LtcChangeTable tcFps="25" halfStep="false">&lt;LtcChange frameCount="0" value="24003702" status="increment">&lt;/LtcChange>&lt;LtcChange frameCount="357" value="06153702" status="end">&lt;/LtcChange>&lt;/LtcChangeTable>&lt;CreationDate value="2011-01-27T13:58:07+01:00">&lt;/CreationDate>&lt;TypicalUbit value="0000000017061020">&lt;/TypicalUbit>&lt;BodyUmidBasicChangeTable>&lt;BodyUmidBasicChange frameCount="0" value="060A2B340101010501010D4333000000BBB2558A885505C208004602022F05F5" status="start">&lt;/BodyUmidBasicChange>&lt;/BodyUmidBasicChangeTable>&lt;BodyUmidWhenChangeTable>&lt;BodyUmidWhenChange frameCount="0" value="C4DA7304885505A5" status="increment">&lt;/BodyUmidWhenChange>&lt;BodyUmidWhenChange frameCount="357" value="04347404885505A5" status="end">&lt;/BodyUmidWhenChange>&lt;/BodyUmidWhenChangeTable>&lt;KlvPacketTable>&lt;KlvPacket key="060E2B34010101050301020A02000000" frameCount="0" lengthValue="095F5265635374617274" status="spot">&lt;/KlvPacket>&lt;/KlvPacketTable>&lt;VideoFormat>&lt;VideoRecPort port="DIRECT">&lt;/VideoRecPort>&lt;VideoFrame videoCodec="MPEG2HD35_1920_1080_MP@HL" captureFps="50.00i" recFps="50.00" formatFps="50i">&lt;/VideoFrame>&lt;VideoLayout pixel="1920" numOfVerticalLine="1080" aspectRatio="16:9">&lt;/VideoLayout>&lt;/VideoFormat>&lt;AudioFormat numOfChannel="2">&lt;AudioRecPort port="ANALOG" audioCodec="LPCM16" trackDst="CH1">&lt;/AudioRecPort>&lt;AudioRecPort port="DIRECT" audioCodec="LPCM16" trackDst="CH2">&lt;/AudioRecPort>&lt;/AudioFormat>&lt;Device manufacturer="Sony" modelName="PMW-EX3" serialNo="0401525">&lt;/Device>&lt;Lens modelName="VCL-614B2X">&lt;/Lens>&lt;RecordingMode type="normal" cacheRec="false">&lt;/RecordingMode>&lt;/NonRealTimeMeta>
							</value>
						</metadata>
						<metadata>
							<storage>QuickTime</storage>
							<key>com.apple.proapps.reel</key>
							<size>8</size>
							<type>UTF8</type>
							<value>Untitled</value>
						</metadata>
						<metadata>
							<storage>QuickTime</storage>
							<key>com.apple.proapps.clipID</key>
							<size>64</size>
							<type>UTF8</type>
							<value>060A2B340101010501010D4313000000BBB2558A885505C208004602022F05F5</value>
						</metadata>
						<metadata>
							<storage>QuickTime</storage>
							<key>com.apple.quicktime.information</key>
							<size>64</size>
							<type>UTF8</type>
							<value>060a2b340101010501010d4313000000bbb2558a885505c208004602022f05f5</value>
						</metadata>
						<metadata>
							<storage>QuickTime</storage>
							<key>com.apple.proapps.originalFormat</key>
							<size>36</size>
							<type>UTF8</type>
							<value>Apple XDCAM EX 1080i50 (35 Mb/s VBR)</value>
						</metadata>
						<timecode>
							<rate>
								<timebase>25</timebase>
							</rate>
							<string>02:37:00:24</string>
							<frame>235524</frame>
							<displayformat>NDF</displayformat>
							<source>source</source>
							<reel>
								<name>Untitled</name>
							</reel>
						</timecode>
						<media>
							<video>
								<duration>358</duration>
								<samplecharacteristics>
									<width>1920</width>
									<height>1080</height>
								</samplecharacteristics>
							</video>
							<audio>
								<samplecharacteristics>
									<samplerate>48000</samplerate>
									<depth>16</depth>
								</samplecharacteristics>
								<channelcount>1</channelcount>
								<layout>mono</layout>
								<audiochannel>
									<sourcechannel>1</sourcechannel>
									<channellabel>discrete</channellabel>
								</audiochannel>
							</audio>
							<audio>
								<samplecharacteristics>
									<samplerate>48000</samplerate>
									<depth>16</depth>
								</samplecharacteristics>
								<channelcount>1</channelcount>
								<layout>mono</layout>
								<audiochannel>
									<sourcechannel>2</sourcechannel>
									<channellabel>discrete</channellabel>
								</audiochannel>
							</audio>
						</media>
					</file>
					<sourcetrack>
						<mediatype>video</mediatype>
					</sourcetrack>
					<fielddominance>upper</fielddominance>
					<itemhistory>
						<uuid>C4F29F1A-DB70-4FBA-9C50-C1B6FAF42B9D</uuid>
					</itemhistory>
				</clipitem>
				<clipitem id="DYR19770_01 ">
					<name>DYR19770_01</name>
					<duration>3992</duration>
					<rate>
						<ntsc>FALSE</ntsc>
						<timebase>25</timebase>
					</rate>
					<in>214</in>
					<out>275</out>
					<start>17554</start>
					<end>-1</end>
					<pixelaspectratio>Square</pixelaspectratio>
					<enabled>TRUE</enabled>
					<anamorphic>FALSE</anamorphic>
					<alphatype>none</alphatype>
					<masterclipid>DYR19770_01 1</masterclipid>
					<logginginfo>
						<scene/>
						<shottake/>
						<lognote/>
						<good>FALSE</good>
					</logginginfo>
					<labels>
						<label2/>
					</labels>
					<comments>
						<mastercomment1/>
						<mastercomment2/>
						<mastercomment3/>
						<mastercomment4/>
					</comments>
					<file id="DYR19770_01 2">
						<name>DYR19770_01.mov</name>
						<pathurl>file://localhost/Volumes/Askepott/Prosjekter/DNPR637010_Kra%CC%8Akeklubben_TEM_011212/Video/TORDS%20GARASJE/SJ%C3%98DYR/Reke/DYR19770_01.mov</pathurl>
						<rate>
							<timebase>25</timebase>
						</rate>
						<duration>3992</duration>
						<metadata>
							<storage>QuickTime</storage>
							<key>com.sony.bprl.xdcamtransfer.version</key>
							<size>10</size>
							<type>UTF8</type>
							<value>2.12.0.631</value>
						</metadata>
						<metadata>
							<storage>QuickTime</storage>
							<key>org.smpte.mxf.package.material.packageid</key>
							<size>66</size>
							<type>UTF8</type>
							<value>0x060a2b340101010501010d4313000000ee3fb78d885505d608004602022f05f5</value>
						</metadata>
						<metadata>
							<storage>QuickTime</storage>
							<key>com.sony.professionaldisc.nonrealtimemeta.lastupdate</key>
							<size>25</size>
							<type>UTF8</type>
							<value>2011-01-27 14:19:49 +0100</value>
						</metadata>
						<metadata>
							<storage>QuickTime</storage>
							<key>com.sony.bprl.mxf.umid</key>
							<size>64</size>
							<type>UTF8</type>
							<value>060a2b340101010501010d4313000000ee3fb78d885505d608004602022f05f5</value>
						</metadata>
						<metadata>
							<storage>QuickTime</storage>
							<key>com.sony.bprl.mxf.nrtmetadata</key>
							<size>1994</size>
							<type>UTF8</type>
							<value>&lt;?xml version="1.0" encoding="UTF-8"?>&lt;NonRealTimeMeta xmlns="urn:schemas-professionalDisc:nonRealTimeMeta:ver.1.20" xmlns:lib="urn:schemas-professionalDisc:lib:ver.1.20" xmlns:xsi="http://www.w3.org/2001/XMLSchema-instance" lastUpdate="2011-01-27T14:19:49+01:00">&lt;TargetMaterial umidRef="060A2B340101010501010D4313000000EE3FB78D885505D608004602022F05F5">&lt;/TargetMaterial>&lt;Duration value="3992">&lt;/Duration>&lt;LtcChangeTable tcFps="25" halfStep="false">&lt;LtcChange frameCount="0" value="24094802" status="increment">&lt;/LtcChange>&lt;LtcChange frameCount="3991" value="15495002" status="end">&lt;/LtcChange>&lt;/LtcChangeTable>&lt;CreationDate value="2011-01-27T14:17:09+01:00">&lt;/CreationDate>&lt;TypicalUbit value="0000000017061020">&lt;/TypicalUbit>&lt;BodyUmidBasicChangeTable>&lt;BodyUmidBasicChange frameCount="0" value="060A2B340101010501010D4333000000EE3FB78D885505D608004602022F05F5" status="start">&lt;/BodyUmidBasicChange>&lt;/BodyUmidBasicChangeTable>&lt;BodyUmidWhenChangeTable>&lt;BodyUmidWhenChange frameCount="0" value="C4B68F04885505A5" status="increment">&lt;/BodyUmidWhenChange>&lt;BodyUmidWhenChange frameCount="3991" value="849C9304885505A5" status="end">&lt;/BodyUmidWhenChange>&lt;/BodyUmidWhenChangeTable>&lt;KlvPacketTable>&lt;KlvPacket key="060E2B34010101050301020A02000000" frameCount="0" lengthValue="095F5265635374617274" status="spot">&lt;/KlvPacket>&lt;/KlvPacketTable>&lt;VideoFormat>&lt;VideoRecPort port="DIRECT">&lt;/VideoRecPort>&lt;VideoFrame videoCodec="MPEG2HD35_1920_1080_MP@HL" captureFps="50.00i" recFps="50.00" formatFps="50i">&lt;/VideoFrame>&lt;VideoLayout pixel="1920" numOfVerticalLine="1080" aspectRatio="16:9">&lt;/VideoLayout>&lt;/VideoFormat>&lt;AudioFormat numOfChannel="2">&lt;AudioRecPort port="ANALOG" audioCodec="LPCM16" trackDst="CH1">&lt;/AudioRecPort>&lt;AudioRecPort port="DIRECT" audioCodec="LPCM16" trackDst="CH2">&lt;/AudioRecPort>&lt;/AudioFormat>&lt;Device manufacturer="Sony" modelName="PMW-EX3" serialNo="0401525">&lt;/Device>&lt;Lens modelName="VCL-614B2X">&lt;/Lens>&lt;RecordingMode type="normal" cacheRec="false">&lt;/RecordingMode>&lt;/NonRealTimeMeta>
							</value>
						</metadata>
						<metadata>
							<storage>QuickTime</storage>
							<key>com.apple.proapps.reel</key>
							<size>8</size>
							<type>UTF8</type>
							<value>Untitled</value>
						</metadata>
						<metadata>
							<storage>QuickTime</storage>
							<key>com.apple.proapps.clipID</key>
							<size>64</size>
							<type>UTF8</type>
							<value>060A2B340101010501010D4313000000EE3FB78D885505D608004602022F05F5</value>
						</metadata>
						<metadata>
							<storage>QuickTime</storage>
							<key>com.apple.quicktime.information</key>
							<size>64</size>
							<type>UTF8</type>
							<value>060a2b340101010501010d4313000000ee3fb78d885505d608004602022f05f5</value>
						</metadata>
						<metadata>
							<storage>QuickTime</storage>
							<key>com.apple.proapps.originalFormat</key>
							<size>36</size>
							<type>UTF8</type>
							<value>Apple XDCAM EX 1080i50 (35 Mb/s VBR)</value>
						</metadata>
						<timecode>
							<rate>
								<timebase>25</timebase>
							</rate>
							<string>02:48:09:24</string>
							<frame>252249</frame>
							<displayformat>NDF</displayformat>
							<source>source</source>
							<reel>
								<name>Untitled</name>
							</reel>
						</timecode>
						<media>
							<video>
								<duration>3992</duration>
								<samplecharacteristics>
									<width>1920</width>
									<height>1080</height>
								</samplecharacteristics>
							</video>
							<audio>
								<samplecharacteristics>
									<samplerate>48000</samplerate>
									<depth>16</depth>
								</samplecharacteristics>
								<channelcount>1</channelcount>
								<layout>mono</layout>
								<audiochannel>
									<sourcechannel>1</sourcechannel>
									<channellabel>discrete</channellabel>
								</audiochannel>
							</audio>
							<audio>
								<samplecharacteristics>
									<samplerate>48000</samplerate>
									<depth>16</depth>
								</samplecharacteristics>
								<channelcount>1</channelcount>
								<layout>mono</layout>
								<audiochannel>
									<sourcechannel>2</sourcechannel>
									<channellabel>discrete</channellabel>
								</audiochannel>
							</audio>
						</media>
					</file>
					<sourcetrack>
						<mediatype>video</mediatype>
					</sourcetrack>
					<link>
						<linkclipref>DYR19770_01 </linkclipref>
						<mediatype>video</mediatype>
						<trackindex>1</trackindex>
						<clipindex>185</clipindex>
					</link>
					<link>
						<linkclipref>DYR19770_01 3</linkclipref>
						<mediatype>audio</mediatype>
						<trackindex>1</trackindex>
						<clipindex>109</clipindex>
					</link>
					<fielddominance>upper</fielddominance>
					<itemhistory>
						<uuid>36D72AEB-53BF-465E-ADCF-EBEDA80A046A</uuid>
					</itemhistory>
				</clipitem>
				<transitionitem>
					<rate>
						<ntsc>FALSE</ntsc>
						<timebase>25</timebase>
					</rate>
					<start>17590</start>
					<end>17615</end>
					<alignment>center</alignment>
					<effect>
						<name>Cross Dissolve</name>
						<effectid>Cross Dissolve</effectid>
						<effectcategory>Dissolve</effectcategory>
						<effecttype>transition</effecttype>
						<mediatype>video</mediatype>
						<wipecode>0</wipecode>
						<wipeaccuracy>100</wipeaccuracy>
						<startratio>0</startratio>
						<endratio>1</endratio>
						<reverse>FALSE</reverse>
					</effect>
				</transitionitem>
				<clipitem id="MVI_6471 ">
					<name>MVI_6471</name>
					<duration>749</duration>
					<rate>
						<ntsc>FALSE</ntsc>
						<timebase>25</timebase>
					</rate>
					<in>80</in>
					<out>169</out>
					<start>-1</start>
					<end>-1</end>
					<pixelaspectratio>Square</pixelaspectratio>
					<enabled>TRUE</enabled>
					<anamorphic>FALSE</anamorphic>
					<alphatype>none</alphatype>
					<masterclipid>MVI_6471 1</masterclipid>
					<logginginfo>
						<scene/>
						<shottake/>
						<lognote/>
						<good>FALSE</good>
					</logginginfo>
					<labels>
						<label2/>
					</labels>
					<comments>
						<mastercomment1/>
						<mastercomment2/>
						<mastercomment3/>
						<mastercomment4/>
					</comments>
					<file id="MVI_6471 2">
						<name>MVI_6471.mov</name>
						<pathurl>file://localhost/Volumes/Askepott/Prosjekter/DNPR637010_Kra%CC%8Akeklubben_TEM_011212/Video/TORDS%20GARASJE/SJ%C3%98DYR/Reke/Apple%20ProRes%20422%20HQ/MVI_6471.mov</pathurl>
						<rate>
							<timebase>25</timebase>
						</rate>
						<duration>749</duration>
						<media>
							<video>
								<duration>749</duration>
								<samplecharacteristics>
									<width>1920</width>
									<height>1080</height>
								</samplecharacteristics>
							</video>
							<audio>
								<samplecharacteristics>
									<samplerate>48000</samplerate>
									<depth>16</depth>
								</samplecharacteristics>
								<channelcount>2</channelcount>
							</audio>
						</media>
					</file>
					<sourcetrack>
						<mediatype>video</mediatype>
					</sourcetrack>
					<fielddominance>upper</fielddominance>
					<itemhistory>
						<uuid>CA181747-272B-4153-9B21-CAA9680E99ED</uuid>
					</itemhistory>
				</clipitem>
				<transitionitem>
					<rate>
						<ntsc>FALSE</ntsc>
						<timebase>25</timebase>
					</rate>
					<start>17654</start>
					<end>17679</end>
					<alignment>center</alignment>
					<effect>
						<name>Cross Dissolve</name>
						<effectid>Cross Dissolve</effectid>
						<effectcategory>Dissolve</effectcategory>
						<effecttype>transition</effecttype>
						<mediatype>video</mediatype>
						<wipecode>0</wipecode>
						<wipeaccuracy>100</wipeaccuracy>
						<startratio>0</startratio>
						<endratio>1</endratio>
						<reverse>FALSE</reverse>
					</effect>
				</transitionitem>
				<clipitem id="DYR19763_01 ">
					<name>DYR19763_01</name>
					<duration>1407</duration>
					<rate>
						<ntsc>FALSE</ntsc>
						<timebase>25</timebase>
					</rate>
					<in>231</in>
					<out>383</out>
					<start>-1</start>
					<end>-1</end>
					<pixelaspectratio>Square</pixelaspectratio>
					<enabled>TRUE</enabled>
					<anamorphic>FALSE</anamorphic>
					<alphatype>none</alphatype>
					<masterclipid>DYR19763_01 1</masterclipid>
					<logginginfo>
						<scene/>
						<shottake/>
						<lognote/>
						<good>FALSE</good>
					</logginginfo>
					<labels>
						<label2/>
					</labels>
					<comments>
						<mastercomment1/>
						<mastercomment2/>
						<mastercomment3/>
						<mastercomment4/>
					</comments>
					<file id="DYR19763_01 2">
						<name>DYR19763_01.mov</name>
						<pathurl>file://localhost/Volumes/Askepott/Prosjekter/DNPR637010_Kra%CC%8Akeklubben_TEM_011212/Video/TORDS%20GARASJE/SJ%C3%98DYR/Reke/DYR19763_01.mov</pathurl>
						<rate>
							<timebase>25</timebase>
						</rate>
						<duration>1407</duration>
						<metadata>
							<storage>QuickTime</storage>
							<key>com.sony.bprl.xdcamtransfer.version</key>
							<size>10</size>
							<type>UTF8</type>
							<value>2.12.0.631</value>
						</metadata>
						<metadata>
							<storage>QuickTime</storage>
							<key>org.smpte.mxf.package.material.packageid</key>
							<size>66</size>
							<type>UTF8</type>
							<value>0x060a2b340101010501010d4313000000e908518b885505d408004602022f05f5</value>
						</metadata>
						<metadata>
							<storage>QuickTime</storage>
							<key>com.sony.professionaldisc.nonrealtimemeta.lastupdate</key>
							<size>25</size>
							<type>UTF8</type>
							<value>2011-01-27 14:04:36 +0100</value>
						</metadata>
						<metadata>
							<storage>QuickTime</storage>
							<key>com.sony.bprl.mxf.umid</key>
							<size>64</size>
							<type>UTF8</type>
							<value>060a2b340101010501010d4313000000e908518b885505d408004602022f05f5</value>
						</metadata>
						<metadata>
							<storage>QuickTime</storage>
							<key>com.sony.bprl.mxf.nrtmetadata</key>
							<size>1994</size>
							<type>UTF8</type>
							<value>&lt;?xml version="1.0" encoding="UTF-8"?>&lt;NonRealTimeMeta xmlns="urn:schemas-professionalDisc:nonRealTimeMeta:ver.1.20" xmlns:lib="urn:schemas-professionalDisc:lib:ver.1.20" xmlns:xsi="http://www.w3.org/2001/XMLSchema-instance" lastUpdate="2011-01-27T14:04:36+01:00">&lt;TargetMaterial umidRef="060A2B340101010501010D4313000000E908518B885505D408004602022F05F5">&lt;/TargetMaterial>&lt;Duration value="1407">&lt;/Duration>&lt;LtcChangeTable tcFps="25" halfStep="false">&lt;LtcChange frameCount="0" value="06454002" status="increment">&lt;/LtcChange>&lt;LtcChange frameCount="1406" value="12414102" status="end">&lt;/LtcChange>&lt;/LtcChangeTable>&lt;CreationDate value="2011-01-27T14:03:39+01:00">&lt;/CreationDate>&lt;TypicalUbit value="0000000017061020">&lt;/TypicalUbit>&lt;BodyUmidBasicChangeTable>&lt;BodyUmidBasicChange frameCount="0" value="060A2B340101010501010D4333000000E908518B885505D408004602022F05F5" status="start">&lt;/BodyUmidBasicChange>&lt;/BodyUmidBasicChangeTable>&lt;BodyUmidWhenChangeTable>&lt;BodyUmidWhenChange frameCount="0" value="C4F17B04885505A5" status="increment">&lt;/BodyUmidWhenChange>&lt;BodyUmidWhenChange frameCount="1406" value="44517D04885505A5" status="end">&lt;/BodyUmidWhenChange>&lt;/BodyUmidWhenChangeTable>&lt;KlvPacketTable>&lt;KlvPacket key="060E2B34010101050301020A02000000" frameCount="0" lengthValue="095F5265635374617274" status="spot">&lt;/KlvPacket>&lt;/KlvPacketTable>&lt;VideoFormat>&lt;VideoRecPort port="DIRECT">&lt;/VideoRecPort>&lt;VideoFrame videoCodec="MPEG2HD35_1920_1080_MP@HL" captureFps="50.00i" recFps="50.00" formatFps="50i">&lt;/VideoFrame>&lt;VideoLayout pixel="1920" numOfVerticalLine="1080" aspectRatio="16:9">&lt;/VideoLayout>&lt;/VideoFormat>&lt;AudioFormat numOfChannel="2">&lt;AudioRecPort port="ANALOG" audioCodec="LPCM16" trackDst="CH1">&lt;/AudioRecPort>&lt;AudioRecPort port="DIRECT" audioCodec="LPCM16" trackDst="CH2">&lt;/AudioRecPort>&lt;/AudioFormat>&lt;Device manufacturer="Sony" modelName="PMW-EX3" serialNo="0401525">&lt;/Device>&lt;Lens modelName="VCL-614B2X">&lt;/Lens>&lt;RecordingMode type="normal" cacheRec="false">&lt;/RecordingMode>&lt;/NonRealTimeMeta>
							</value>
						</metadata>
						<metadata>
							<storage>QuickTime</storage>
							<key>com.apple.proapps.reel</key>
							<size>8</size>
							<type>UTF8</type>
							<value>Untitled</value>
						</metadata>
						<metadata>
							<storage>QuickTime</storage>
							<key>com.apple.proapps.clipID</key>
							<size>64</size>
							<type>UTF8</type>
							<value>060A2B340101010501010D4313000000E908518B885505D408004602022F05F5</value>
						</metadata>
						<metadata>
							<storage>QuickTime</storage>
							<key>com.apple.quicktime.information</key>
							<size>64</size>
							<type>UTF8</type>
							<value>060a2b340101010501010d4313000000e908518b885505d408004602022f05f5</value>
						</metadata>
						<metadata>
							<storage>QuickTime</storage>
							<key>com.apple.proapps.originalFormat</key>
							<size>36</size>
							<type>UTF8</type>
							<value>Apple XDCAM EX 1080i50 (35 Mb/s VBR)</value>
						</metadata>
						<timecode>
							<rate>
								<timebase>25</timebase>
							</rate>
							<string>02:40:45:06</string>
							<frame>241131</frame>
							<displayformat>NDF</displayformat>
							<source>source</source>
							<reel>
								<name>Untitled</name>
							</reel>
						</timecode>
						<media>
							<video>
								<duration>1407</duration>
								<samplecharacteristics>
									<width>1920</width>
									<height>1080</height>
								</samplecharacteristics>
							</video>
							<audio>
								<samplecharacteristics>
									<samplerate>48000</samplerate>
									<depth>16</depth>
								</samplecharacteristics>
								<channelcount>1</channelcount>
								<layout>mono</layout>
								<audiochannel>
									<sourcechannel>1</sourcechannel>
									<channellabel>discrete</channellabel>
								</audiochannel>
							</audio>
							<audio>
								<samplecharacteristics>
									<samplerate>48000</samplerate>
									<depth>16</depth>
								</samplecharacteristics>
								<channelcount>1</channelcount>
								<layout>mono</layout>
								<audiochannel>
									<sourcechannel>2</sourcechannel>
									<channellabel>discrete</channellabel>
								</audiochannel>
							</audio>
						</media>
					</file>
					<filter>
						<effect>
							<name>Basic Motion</name>
							<effectid>basic</effectid>
							<effectcategory>motion</effectcategory>
							<effecttype>motion</effecttype>
							<mediatype>video</mediatype>
							<parameter>
								<parameterid>scale</parameterid>
								<name>Scale</name>
								<valuemin>0</valuemin>
								<valuemax>1000</valuemax>
								<value>125</value>
							</parameter>
							<parameter>
								<parameterid>rotation</parameterid>
								<name>Rotation</name>
								<valuemin>-8640</valuemin>
								<valuemax>8640</valuemax>
								<value>0</value>
							</parameter>
							<parameter>
								<parameterid>center</parameterid>
								<name>Center</name>
								<value>
									<horiz>-0.0942895</horiz>
									<vert>-0.125</vert>
								</value>
							</parameter>
							<parameter>
								<parameterid>centerOffset</parameterid>
								<name>Anchor Point</name>
								<value>
									<horiz>0</horiz>
									<vert>0</vert>
								</value>
							</parameter>
						</effect>
					</filter>
					<filter>
						<enabled>FALSE</enabled>
						<effect>
							<name>Drop Shadow</name>
							<effectid>dropshadow</effectid>
							<effectcategory>motion</effectcategory>
							<effecttype>motion</effecttype>
							<mediatype>video</mediatype>
							<parameter>
								<parameterid>offset</parameterid>
								<name>offset</name>
								<valuemin>-100</valuemin>
								<valuemax>100</valuemax>
								<value>2</value>
							</parameter>
							<parameter>
								<parameterid>angle</parameterid>
								<name>angle</name>
								<valuemin>-720</valuemin>
								<valuemax>720</valuemax>
								<value>135</value>
							</parameter>
							<parameter>
								<parameterid>color</parameterid>
								<name>color</name>
								<value>
									<alpha>0</alpha>
									<red>0</red>
									<green>0</green>
									<blue>0</blue>
								</value>
							</parameter>
							<parameter>
								<parameterid>softness</parameterid>
								<name>softness</name>
								<valuemin>0</valuemin>
								<valuemax>100</valuemax>
								<value>10</value>
							</parameter>
							<parameter>
								<parameterid>opacity</parameterid>
								<name>opacity</name>
								<valuemin>0</valuemin>
								<valuemax>100</valuemax>
								<value>50</value>
							</parameter>
						</effect>
					</filter>
					<filter>
						<enabled>FALSE</enabled>
						<effect>
							<name>Motion Blur</name>
							<effectid>motionblur</effectid>
							<effectcategory>motion</effectcategory>
							<effecttype>motion</effecttype>
							<mediatype>video</mediatype>
							<parameter>
								<parameterid>duration</parameterid>
								<name>% Blur</name>
								<valuemin>0</valuemin>
								<valuemax>1000</valuemax>
								<value>500</value>
							</parameter>
							<parameter>
								<parameterid>samples</parameterid>
								<name>Samples</name>
								<valuemin>1</valuemin>
								<valuemax>16</valuemax>
								<value>4</value>
							</parameter>
						</effect>
					</filter>
					<filter>
						<effect>
							<name>Crop</name>
							<effectid>crop</effectid>
							<effectcategory>motion</effectcategory>
							<effecttype>motion</effecttype>
							<mediatype>video</mediatype>
							<parameter>
								<parameterid>left</parameterid>
								<name>left</name>
								<valuemin>0</valuemin>
								<valuemax>100</valuemax>
								<value>0</value>
							</parameter>
							<parameter>
								<parameterid>right</parameterid>
								<name>right</name>
								<valuemin>0</valuemin>
								<valuemax>100</valuemax>
								<value>0</value>
							</parameter>
							<parameter>
								<parameterid>top</parameterid>
								<name>top</name>
								<valuemin>0</valuemin>
								<valuemax>100</valuemax>
								<value>0</value>
							</parameter>
							<parameter>
								<parameterid>bottom</parameterid>
								<name>bottom</name>
								<valuemin>0</valuemin>
								<valuemax>100</valuemax>
								<value>0</value>
							</parameter>
							<parameter>
								<parameterid>edgefeather</parameterid>
								<name>edgefeather</name>
								<valuemin>0</valuemin>
								<valuemax>100</valuemax>
								<value>0</value>
							</parameter>
						</effect>
					</filter>
					<filter>
						<effect>
							<name>Distort</name>
							<effectid>deformation</effectid>
							<effectcategory>motion</effectcategory>
							<effecttype>motion</effecttype>
							<mediatype>video</mediatype>
							<parameter>
								<parameterid>ulcorner</parameterid>
								<name>Upper Left</name>
								<value>
									<horiz>-0.5</horiz>
									<vert>-0.5</vert>
								</value>
							</parameter>
							<parameter>
								<parameterid>urcorner</parameterid>
								<name>Upper Right</name>
								<value>
									<horiz>0.5</horiz>
									<vert>-0.5</vert>
								</value>
							</parameter>
							<parameter>
								<parameterid>lrcorner</parameterid>
								<name>Lower Right</name>
								<value>
									<horiz>0.5</horiz>
									<vert>0.5</vert>
								</value>
							</parameter>
							<parameter>
								<parameterid>llcorner</parameterid>
								<name>Lower Left</name>
								<value>
									<horiz>-0.5</horiz>
									<vert>0.5</vert>
								</value>
							</parameter>
							<parameter>
								<parameterid>aspect</parameterid>
								<name>Aspect</name>
								<valuemin>-10000</valuemin>
								<valuemax>10000</valuemax>
								<value>0</value>
							</parameter>
						</effect>
					</filter>
					<filter>
						<effect>
							<name>Opacity</name>
							<effectid>opacity</effectid>
							<effectcategory>motion</effectcategory>
							<effecttype>motion</effecttype>
							<mediatype>video</mediatype>
							<parameter>
								<parameterid>opacity</parameterid>
								<name>opacity</name>
								<valuemin>0</valuemin>
								<valuemax>100</valuemax>
								<value>100</value>
							</parameter>
						</effect>
					</filter>
					<sourcetrack>
						<mediatype>video</mediatype>
					</sourcetrack>
					<fielddominance>upper</fielddominance>
					<itemhistory>
						<uuid>EE4EDB36-6E1A-4B95-AC57-855505CD02FE</uuid>
					</itemhistory>
				</clipitem>
				<transitionitem>
					<rate>
						<ntsc>FALSE</ntsc>
						<timebase>25</timebase>
					</rate>
					<start>17781</start>
					<end>17806</end>
					<alignment>center</alignment>
					<effect>
						<name>Cross Dissolve</name>
						<effectid>Cross Dissolve</effectid>
						<effectcategory>Dissolve</effectcategory>
						<effecttype>transition</effecttype>
						<mediatype>video</mediatype>
						<wipecode>0</wipecode>
						<wipeaccuracy>100</wipeaccuracy>
						<startratio>0</startratio>
						<endratio>1</endratio>
						<reverse>FALSE</reverse>
					</effect>
				</transitionitem>
				<clipitem id="DYR19770_01 4">
					<name>DYR19770_01</name>
					<duration>3992</duration>
					<rate>
						<ntsc>FALSE</ntsc>
						<timebase>25</timebase>
					</rate>
					<in>2815</in>
					<out>2894</out>
					<start>-1</start>
					<end>-1</end>
					<pixelaspectratio>Square</pixelaspectratio>
					<enabled>TRUE</enabled>
					<anamorphic>FALSE</anamorphic>
					<alphatype>none</alphatype>
					<masterclipid>DYR19770_01 1</masterclipid>
					<logginginfo>
						<scene/>
						<shottake/>
						<lognote/>
						<good>FALSE</good>
					</logginginfo>
					<labels>
						<label2/>
					</labels>
					<comments>
						<mastercomment1/>
						<mastercomment2/>
						<mastercomment3/>
						<mastercomment4/>
					</comments>
					<file id="DYR19770_01 2"/>
					<sourcetrack>
						<mediatype>video</mediatype>
					</sourcetrack>
					<link>
						<linkclipref>DYR19770_01 4</linkclipref>
						<mediatype>video</mediatype>
						<trackindex>1</trackindex>
						<clipindex>191</clipindex>
					</link>
					<link>
						<linkclipref>DYR19770_01 5</linkclipref>
						<mediatype>audio</mediatype>
						<trackindex>1</trackindex>
						<clipindex>115</clipindex>
					</link>
					<fielddominance>upper</fielddominance>
					<itemhistory>
						<uuid>40399FAB-CEB9-4B1D-A5E7-1E1240D681F1</uuid>
					</itemhistory>
				</clipitem>
				<transitionitem>
					<rate>
						<ntsc>FALSE</ntsc>
						<timebase>25</timebase>
					</rate>
					<start>17835</start>
					<end>17860</end>
					<alignment>center</alignment>
					<effect>
						<name>Cross Dissolve</name>
						<effectid>Cross Dissolve</effectid>
						<effectcategory>Dissolve</effectcategory>
						<effecttype>transition</effecttype>
						<mediatype>video</mediatype>
						<wipecode>0</wipecode>
						<wipeaccuracy>100</wipeaccuracy>
						<startratio>0</startratio>
						<endratio>1</endratio>
						<reverse>FALSE</reverse>
					</effect>
				</transitionitem>
				<clipitem id="DYR19761_01 ">
					<name>DYR19761_01</name>
					<duration>2643</duration>
					<rate>
						<ntsc>FALSE</ntsc>
						<timebase>25</timebase>
					</rate>
					<in>510</in>
					<out>648</out>
					<start>-1</start>
					<end>-1</end>
					<pixelaspectratio>Square</pixelaspectratio>
					<enabled>TRUE</enabled>
					<anamorphic>FALSE</anamorphic>
					<alphatype>none</alphatype>
					<masterclipid>DYR19761_01 1</masterclipid>
					<logginginfo>
						<scene/>
						<shottake/>
						<lognote/>
						<good>FALSE</good>
					</logginginfo>
					<labels>
						<label2/>
					</labels>
					<comments>
						<mastercomment1/>
						<mastercomment2/>
						<mastercomment3/>
						<mastercomment4/>
					</comments>
					<file id="DYR19761_01 2">
						<name>DYR19761_01.mov</name>
						<pathurl>file://localhost/Volumes/Askepott/Prosjekter/DNPR637010_Kra%CC%8Akeklubben_TEM_011212/Video/TORDS%20GARASJE/SJ%C3%98DYR/Reke/DYR19761_01.mov</pathurl>
						<rate>
							<timebase>25</timebase>
						</rate>
						<duration>2643</duration>
						<metadata>
							<storage>QuickTime</storage>
							<key>com.sony.bprl.xdcamtransfer.version</key>
							<size>10</size>
							<type>UTF8</type>
							<value>2.12.0.631</value>
						</metadata>
						<metadata>
							<storage>QuickTime</storage>
							<key>org.smpte.mxf.package.material.packageid</key>
							<size>66</size>
							<type>UTF8</type>
							<value>0x060a2b340101010501010d4313000000f740dd8a885505d308004602022f05f5</value>
						</metadata>
						<metadata>
							<storage>QuickTime</storage>
							<key>com.sony.professionaldisc.nonrealtimemeta.lastupdate</key>
							<size>25</size>
							<type>UTF8</type>
							<value>2011-01-27 14:02:53 +0100</value>
						</metadata>
						<metadata>
							<storage>QuickTime</storage>
							<key>com.sony.bprl.mxf.umid</key>
							<size>64</size>
							<type>UTF8</type>
							<value>060a2b340101010501010d4313000000f740dd8a885505d308004602022f05f5</value>
						</metadata>
						<metadata>
							<storage>QuickTime</storage>
							<key>com.sony.bprl.mxf.nrtmetadata</key>
							<size>1994</size>
							<type>UTF8</type>
							<value>&lt;?xml version="1.0" encoding="UTF-8"?>&lt;NonRealTimeMeta xmlns="urn:schemas-professionalDisc:nonRealTimeMeta:ver.1.20" xmlns:lib="urn:schemas-professionalDisc:lib:ver.1.20" xmlns:xsi="http://www.w3.org/2001/XMLSchema-instance" lastUpdate="2011-01-27T14:02:53+01:00">&lt;TargetMaterial umidRef="060A2B340101010501010D4313000000F740DD8A885505D308004602022F05F5">&lt;/TargetMaterial>&lt;Duration value="2643">&lt;/Duration>&lt;LtcChangeTable tcFps="25" halfStep="false">&lt;LtcChange frameCount="0" value="07543802" status="increment">&lt;/LtcChange>&lt;LtcChange frameCount="2642" value="24394002" status="end">&lt;/LtcChange>&lt;/LtcChangeTable>&lt;CreationDate value="2011-01-27T14:01:06+01:00">&lt;/CreationDate>&lt;TypicalUbit value="0000000017061020">&lt;/TypicalUbit>&lt;BodyUmidBasicChangeTable>&lt;BodyUmidBasicChange frameCount="0" value="060A2B340101010501010D4333000000F740DD8A885505D308004602022F05F5" status="start">&lt;/BodyUmidBasicChange>&lt;/BodyUmidBasicChangeTable>&lt;BodyUmidWhenChangeTable>&lt;BodyUmidWhenChange frameCount="0" value="84377804885505A5" status="increment">&lt;/BodyUmidWhenChange>&lt;BodyUmidWhenChange frameCount="2642" value="04CC7A04885505A5" status="end">&lt;/BodyUmidWhenChange>&lt;/BodyUmidWhenChangeTable>&lt;KlvPacketTable>&lt;KlvPacket key="060E2B34010101050301020A02000000" frameCount="0" lengthValue="095F5265635374617274" status="spot">&lt;/KlvPacket>&lt;/KlvPacketTable>&lt;VideoFormat>&lt;VideoRecPort port="DIRECT">&lt;/VideoRecPort>&lt;VideoFrame videoCodec="MPEG2HD35_1920_1080_MP@HL" captureFps="50.00i" recFps="50.00" formatFps="50i">&lt;/VideoFrame>&lt;VideoLayout pixel="1920" numOfVerticalLine="1080" aspectRatio="16:9">&lt;/VideoLayout>&lt;/VideoFormat>&lt;AudioFormat numOfChannel="2">&lt;AudioRecPort port="ANALOG" audioCodec="LPCM16" trackDst="CH1">&lt;/AudioRecPort>&lt;AudioRecPort port="DIRECT" audioCodec="LPCM16" trackDst="CH2">&lt;/AudioRecPort>&lt;/AudioFormat>&lt;Device manufacturer="Sony" modelName="PMW-EX3" serialNo="0401525">&lt;/Device>&lt;Lens modelName="VCL-614B2X">&lt;/Lens>&lt;RecordingMode type="normal" cacheRec="false">&lt;/RecordingMode>&lt;/NonRealTimeMeta>
							</value>
						</metadata>
						<metadata>
							<storage>QuickTime</storage>
							<key>com.apple.proapps.reel</key>
							<size>8</size>
							<type>UTF8</type>
							<value>Untitled</value>
						</metadata>
						<metadata>
							<storage>QuickTime</storage>
							<key>com.apple.proapps.clipID</key>
							<size>64</size>
							<type>UTF8</type>
							<value>060A2B340101010501010D4313000000F740DD8A885505D308004602022F05F5</value>
						</metadata>
						<metadata>
							<storage>QuickTime</storage>
							<key>com.apple.quicktime.information</key>
							<size>64</size>
							<type>UTF8</type>
							<value>060a2b340101010501010d4313000000f740dd8a885505d308004602022f05f5</value>
						</metadata>
						<metadata>
							<storage>QuickTime</storage>
							<key>com.apple.proapps.originalFormat</key>
							<size>36</size>
							<type>UTF8</type>
							<value>Apple XDCAM EX 1080i50 (35 Mb/s VBR)</value>
						</metadata>
						<timecode>
							<rate>
								<timebase>25</timebase>
							</rate>
							<string>02:38:54:07</string>
							<frame>238357</frame>
							<displayformat>NDF</displayformat>
							<source>source</source>
							<reel>
								<name>Untitled</name>
							</reel>
						</timecode>
						<media>
							<video>
								<duration>2643</duration>
								<samplecharacteristics>
									<width>1920</width>
									<height>1080</height>
								</samplecharacteristics>
							</video>
							<audio>
								<samplecharacteristics>
									<samplerate>48000</samplerate>
									<depth>16</depth>
								</samplecharacteristics>
								<channelcount>1</channelcount>
								<layout>mono</layout>
								<audiochannel>
									<sourcechannel>1</sourcechannel>
									<channellabel>discrete</channellabel>
								</audiochannel>
							</audio>
							<audio>
								<samplecharacteristics>
									<samplerate>48000</samplerate>
									<depth>16</depth>
								</samplecharacteristics>
								<channelcount>1</channelcount>
								<layout>mono</layout>
								<audiochannel>
									<sourcechannel>2</sourcechannel>
									<channellabel>discrete</channellabel>
								</audiochannel>
							</audio>
						</media>
					</file>
					<sourcetrack>
						<mediatype>video</mediatype>
					</sourcetrack>
					<fielddominance>upper</fielddominance>
					<itemhistory>
						<uuid>95B600A4-DAA5-4B57-B144-95A2157A9A7A</uuid>
					</itemhistory>
				</clipitem>
				<transitionitem>
					<rate>
						<ntsc>FALSE</ntsc>
						<timebase>25</timebase>
					</rate>
					<start>17948</start>
					<end>17973</end>
					<alignment>center</alignment>
					<effect>
						<name>Cross Dissolve</name>
						<effectid>Cross Dissolve</effectid>
						<effectcategory>Dissolve</effectcategory>
						<effecttype>transition</effecttype>
						<mediatype>video</mediatype>
						<wipecode>0</wipecode>
						<wipeaccuracy>100</wipeaccuracy>
						<startratio>0</startratio>
						<endratio>1</endratio>
						<reverse>FALSE</reverse>
					</effect>
				</transitionitem>
				<clipitem id="DYR19770_01 6">
					<name>DYR19770_01</name>
					<duration>3992</duration>
					<rate>
						<ntsc>FALSE</ntsc>
						<timebase>25</timebase>
					</rate>
					<in>1690</in>
					<out>1805</out>
					<start>-1</start>
					<end>-1</end>
					<pixelaspectratio>Square</pixelaspectratio>
					<enabled>TRUE</enabled>
					<anamorphic>FALSE</anamorphic>
					<alphatype>none</alphatype>
					<masterclipid>DYR19770_01 1</masterclipid>
					<logginginfo>
						<scene/>
						<shottake/>
						<lognote/>
						<good>FALSE</good>
					</logginginfo>
					<labels>
						<label2/>
					</labels>
					<comments>
						<mastercomment1/>
						<mastercomment2/>
						<mastercomment3/>
						<mastercomment4/>
					</comments>
					<file id="DYR19770_01 2"/>
					<sourcetrack>
						<mediatype>video</mediatype>
					</sourcetrack>
					<link>
						<linkclipref>DYR19770_01 6</linkclipref>
						<mediatype>video</mediatype>
						<trackindex>1</trackindex>
						<clipindex>195</clipindex>
					</link>
					<link>
						<linkclipref>DYR19770_01 7</linkclipref>
						<mediatype>audio</mediatype>
						<trackindex>1</trackindex>
						<clipindex>117</clipindex>
					</link>
					<fielddominance>upper</fielddominance>
					<itemhistory>
						<uuid>8EF40457-10FD-412F-9078-709CE7FB6C77</uuid>
					</itemhistory>
				</clipitem>
				<transitionitem>
					<rate>
						<ntsc>FALSE</ntsc>
						<timebase>25</timebase>
					</rate>
					<start>18038</start>
					<end>18063</end>
					<alignment>center</alignment>
					<effect>
						<name>Cross Dissolve</name>
						<effectid>Cross Dissolve</effectid>
						<effectcategory>Dissolve</effectcategory>
						<effecttype>transition</effecttype>
						<mediatype>video</mediatype>
						<wipecode>0</wipecode>
						<wipeaccuracy>100</wipeaccuracy>
						<startratio>0</startratio>
						<endratio>1</endratio>
						<reverse>FALSE</reverse>
					</effect>
				</transitionitem>
				<clipitem id="DYR19761_01 3">
					<name>DYR19761_01</name>
					<duration>2643</duration>
					<rate>
						<ntsc>FALSE</ntsc>
						<timebase>25</timebase>
					</rate>
					<in>2061</in>
					<out>2196</out>
					<start>-1</start>
					<end>-1</end>
					<pixelaspectratio>Square</pixelaspectratio>
					<enabled>TRUE</enabled>
					<anamorphic>FALSE</anamorphic>
					<alphatype>none</alphatype>
					<masterclipid>DYR19761_01 1</masterclipid>
					<logginginfo>
						<scene/>
						<shottake/>
						<lognote/>
						<good>FALSE</good>
					</logginginfo>
					<labels>
						<label2/>
					</labels>
					<comments>
						<mastercomment1/>
						<mastercomment2/>
						<mastercomment3/>
						<mastercomment4/>
					</comments>
					<file id="DYR19761_01 2"/>
					<sourcetrack>
						<mediatype>video</mediatype>
					</sourcetrack>
					<fielddominance>upper</fielddominance>
					<itemhistory>
						<uuid>D05C6917-0D54-4800-A638-EE67AB793F4E</uuid>
					</itemhistory>
				</clipitem>
				<transitionitem>
					<rate>
						<ntsc>FALSE</ntsc>
						<timebase>25</timebase>
					</rate>
					<start>18123</start>
					<end>18173</end>
					<alignment>center</alignment>
					<effect>
						<name>Cross Dissolve</name>
						<effectid>Cross Dissolve</effectid>
						<effectcategory>Dissolve</effectcategory>
						<effecttype>transition</effecttype>
						<mediatype>video</mediatype>
						<wipecode>0</wipecode>
						<wipeaccuracy>100</wipeaccuracy>
						<startratio>0</startratio>
						<endratio>1</endratio>
						<reverse>FALSE</reverse>
					</effect>
				</transitionitem>
				<clipitem id="DYR19768_01 ">
					<name>DYR19768_01</name>
					<duration>3048</duration>
					<rate>
						<ntsc>FALSE</ntsc>
						<timebase>25</timebase>
					</rate>
					<in>1498</in>
					<out>1689</out>
					<start>-1</start>
					<end>18314</end>
					<pixelaspectratio>Square</pixelaspectratio>
					<enabled>TRUE</enabled>
					<anamorphic>FALSE</anamorphic>
					<alphatype>none</alphatype>
					<masterclipid>DYR19768_01 1</masterclipid>
					<logginginfo>
						<scene/>
						<shottake/>
						<lognote/>
						<good>FALSE</good>
					</logginginfo>
					<labels>
						<label2/>
					</labels>
					<comments>
						<mastercomment1/>
						<mastercomment2/>
						<mastercomment3/>
						<mastercomment4/>
					</comments>
					<file id="DYR19768_01 2">
						<name>DYR19768_01.mov</name>
						<pathurl>file://localhost/Volumes/Askepott/Prosjekter/DNPR637010_Kra%CC%8Akeklubben_TEM_011212/Video/TORDS%20GARASJE/SJ%C3%98DYR/Reke/DYR19768_01.mov</pathurl>
						<rate>
							<timebase>25</timebase>
						</rate>
						<duration>3048</duration>
						<metadata>
							<storage>QuickTime</storage>
							<key>com.sony.bprl.xdcamtransfer.version</key>
							<size>10</size>
							<type>UTF8</type>
							<value>2.12.0.631</value>
						</metadata>
						<metadata>
							<storage>QuickTime</storage>
							<key>org.smpte.mxf.package.material.packageid</key>
							<size>66</size>
							<type>UTF8</type>
							<value>0x060a2b340101010501010d43130000001aa3b58c885505dc08004602022f05f5</value>
						</metadata>
						<metadata>
							<storage>QuickTime</storage>
							<key>com.sony.professionaldisc.nonrealtimemeta.lastupdate</key>
							<size>25</size>
							<type>UTF8</type>
							<value>2011-01-27 14:13:32 +0100</value>
						</metadata>
						<metadata>
							<storage>QuickTime</storage>
							<key>com.sony.bprl.mxf.umid</key>
							<size>64</size>
							<type>UTF8</type>
							<value>060a2b340101010501010d43130000001aa3b58c885505dc08004602022f05f5</value>
						</metadata>
						<metadata>
							<storage>QuickTime</storage>
							<key>com.sony.bprl.mxf.nrtmetadata</key>
							<size>1994</size>
							<type>UTF8</type>
							<value>&lt;?xml version="1.0" encoding="UTF-8"?>&lt;NonRealTimeMeta xmlns="urn:schemas-professionalDisc:nonRealTimeMeta:ver.1.20" xmlns:lib="urn:schemas-professionalDisc:lib:ver.1.20" xmlns:xsi="http://www.w3.org/2001/XMLSchema-instance" lastUpdate="2011-01-27T14:13:32+01:00">&lt;TargetMaterial umidRef="060A2B340101010501010D43130000001AA3B58C885505DC08004602022F05F5">&lt;/TargetMaterial>&lt;Duration value="3048">&lt;/Duration>&lt;LtcChangeTable tcFps="25" halfStep="false">&lt;LtcChange frameCount="0" value="23564502" status="increment">&lt;/LtcChange>&lt;LtcChange frameCount="3047" value="20584702" status="end">&lt;/LtcChange>&lt;/LtcChangeTable>&lt;CreationDate value="2011-01-27T14:11:29+01:00">&lt;/CreationDate>&lt;TypicalUbit value="0000000017061020">&lt;/TypicalUbit>&lt;BodyUmidBasicChangeTable>&lt;BodyUmidBasicChange frameCount="0" value="060A2B340101010501010D43330000001AA3B58C885505DC08004602022F05F5" status="start">&lt;/BodyUmidBasicChange>&lt;/BodyUmidBasicChangeTable>&lt;BodyUmidWhenChangeTable>&lt;BodyUmidWhenChange frameCount="0" value="046C8704885505A5" status="increment">&lt;/BodyUmidWhenChange>&lt;BodyUmidWhenChange frameCount="3047" value="C4658A04885505A5" status="end">&lt;/BodyUmidWhenChange>&lt;/BodyUmidWhenChangeTable>&lt;KlvPacketTable>&lt;KlvPacket key="060E2B34010101050301020A02000000" frameCount="0" lengthValue="095F5265635374617274" status="spot">&lt;/KlvPacket>&lt;/KlvPacketTable>&lt;VideoFormat>&lt;VideoRecPort port="DIRECT">&lt;/VideoRecPort>&lt;VideoFrame videoCodec="MPEG2HD35_1920_1080_MP@HL" captureFps="50.00i" recFps="50.00" formatFps="50i">&lt;/VideoFrame>&lt;VideoLayout pixel="1920" numOfVerticalLine="1080" aspectRatio="16:9">&lt;/VideoLayout>&lt;/VideoFormat>&lt;AudioFormat numOfChannel="2">&lt;AudioRecPort port="ANALOG" audioCodec="LPCM16" trackDst="CH1">&lt;/AudioRecPort>&lt;AudioRecPort port="DIRECT" audioCodec="LPCM16" trackDst="CH2">&lt;/AudioRecPort>&lt;/AudioFormat>&lt;Device manufacturer="Sony" modelName="PMW-EX3" serialNo="0401525">&lt;/Device>&lt;Lens modelName="VCL-614B2X">&lt;/Lens>&lt;RecordingMode type="normal" cacheRec="false">&lt;/RecordingMode>&lt;/NonRealTimeMeta>
							</value>
						</metadata>
						<metadata>
							<storage>QuickTime</storage>
							<key>com.apple.proapps.reel</key>
							<size>8</size>
							<type>UTF8</type>
							<value>Untitled</value>
						</metadata>
						<metadata>
							<storage>QuickTime</storage>
							<key>com.apple.proapps.clipID</key>
							<size>64</size>
							<type>UTF8</type>
							<value>060A2B340101010501010D43130000001AA3B58C885505DC08004602022F05F5</value>
						</metadata>
						<metadata>
							<storage>QuickTime</storage>
							<key>com.apple.quicktime.information</key>
							<size>64</size>
							<type>UTF8</type>
							<value>060a2b340101010501010d43130000001aa3b58c885505dc08004602022f05f5</value>
						</metadata>
						<metadata>
							<storage>QuickTime</storage>
							<key>com.apple.proapps.originalFormat</key>
							<size>36</size>
							<type>UTF8</type>
							<value>Apple XDCAM EX 1080i50 (35 Mb/s VBR)</value>
						</metadata>
						<timecode>
							<rate>
								<timebase>25</timebase>
							</rate>
							<string>02:45:56:23</string>
							<frame>248923</frame>
							<displayformat>NDF</displayformat>
							<source>source</source>
							<reel>
								<name>Untitled</name>
							</reel>
						</timecode>
						<media>
							<video>
								<duration>3048</duration>
								<samplecharacteristics>
									<width>1920</width>
									<height>1080</height>
								</samplecharacteristics>
							</video>
							<audio>
								<samplecharacteristics>
									<samplerate>48000</samplerate>
									<depth>16</depth>
								</samplecharacteristics>
								<channelcount>1</channelcount>
								<layout>mono</layout>
								<audiochannel>
									<sourcechannel>1</sourcechannel>
									<channellabel>discrete</channellabel>
								</audiochannel>
							</audio>
							<audio>
								<samplecharacteristics>
									<samplerate>48000</samplerate>
									<depth>16</depth>
								</samplecharacteristics>
								<channelcount>1</channelcount>
								<layout>mono</layout>
								<audiochannel>
									<sourcechannel>2</sourcechannel>
									<channellabel>discrete</channellabel>
								</audiochannel>
							</audio>
						</media>
					</file>
					<sourcetrack>
						<mediatype>video</mediatype>
					</sourcetrack>
					<fielddominance>upper</fielddominance>
					<itemhistory>
						<uuid>6CEB73A1-04E8-44F7-B7B7-BE1643D22F4D</uuid>
					</itemhistory>
				</clipitem>
				<clipitem id="DYR19771_01 ">
					<name>DYR19771_01</name>
					<duration>867</duration>
					<rate>
						<ntsc>FALSE</ntsc>
						<timebase>25</timebase>
					</rate>
					<in>604</in>
					<out>662</out>
					<start>18314</start>
					<end>18372</end>
					<pixelaspectratio>Square</pixelaspectratio>
					<enabled>TRUE</enabled>
					<anamorphic>FALSE</anamorphic>
					<alphatype>none</alphatype>
					<masterclipid>DYR19771_01 1</masterclipid>
					<logginginfo>
						<scene/>
						<shottake/>
						<lognote/>
						<good>FALSE</good>
					</logginginfo>
					<labels>
						<label2/>
					</labels>
					<comments>
						<mastercomment1/>
						<mastercomment2/>
						<mastercomment3/>
						<mastercomment4/>
					</comments>
					<file id="DYR19771_01 2">
						<name>DYR19771_01.mov</name>
						<pathurl>file://localhost/Volumes/Askepott/Prosjekter/DNPR637010_Kra%CC%8Akeklubben_TEM_011212/Video/TORDS%20GARASJE/SJ%C3%98DYR/Reke/DYR19771_01.mov</pathurl>
						<rate>
							<timebase>25</timebase>
						</rate>
						<duration>867</duration>
						<metadata>
							<storage>QuickTime</storage>
							<key>com.sony.bprl.xdcamtransfer.version</key>
							<size>10</size>
							<type>UTF8</type>
							<value>2.12.0.631</value>
						</metadata>
						<metadata>
							<storage>QuickTime</storage>
							<key>org.smpte.mxf.package.material.packageid</key>
							<size>66</size>
							<type>UTF8</type>
							<value>0x060a2b340101010501010d43130000005d3c388e885505cc08004602022f05f5</value>
						</metadata>
						<metadata>
							<storage>QuickTime</storage>
							<key>com.sony.professionaldisc.nonrealtimemeta.lastupdate</key>
							<size>25</size>
							<type>UTF8</type>
							<value>2011-01-27 14:20:34 +0100</value>
						</metadata>
						<metadata>
							<storage>QuickTime</storage>
							<key>com.sony.bprl.mxf.umid</key>
							<size>64</size>
							<type>UTF8</type>
							<value>060a2b340101010501010d43130000005d3c388e885505cc08004602022f05f5</value>
						</metadata>
						<metadata>
							<storage>QuickTime</storage>
							<key>com.sony.bprl.mxf.nrtmetadata</key>
							<size>1991</size>
							<type>UTF8</type>
							<value>&lt;?xml version="1.0" encoding="UTF-8"?>&lt;NonRealTimeMeta xmlns="urn:schemas-professionalDisc:nonRealTimeMeta:ver.1.20" xmlns:lib="urn:schemas-professionalDisc:lib:ver.1.20" xmlns:xsi="http://www.w3.org/2001/XMLSchema-instance" lastUpdate="2011-01-27T14:20:34+01:00">&lt;TargetMaterial umidRef="060A2B340101010501010D43130000005D3C388E885505CC08004602022F05F5">&lt;/TargetMaterial>&lt;Duration value="867">&lt;/Duration>&lt;LtcChangeTable tcFps="25" halfStep="false">&lt;LtcChange frameCount="0" value="16495002" status="increment">&lt;/LtcChange>&lt;LtcChange frameCount="866" value="07245102" status="end">&lt;/LtcChange>&lt;/LtcChangeTable>&lt;CreationDate value="2011-01-27T14:19:59+01:00">&lt;/CreationDate>&lt;TypicalUbit value="0000000017061020">&lt;/TypicalUbit>&lt;BodyUmidBasicChangeTable>&lt;BodyUmidBasicChange frameCount="0" value="060A2B340101010501010D43330000005D3C388E885505CC08004602022F05F5" status="start">&lt;/BodyUmidBasicChange>&lt;/BodyUmidBasicChangeTable>&lt;BodyUmidWhenChangeTable>&lt;BodyUmidWhenChange frameCount="0" value="84DD9304885505A5" status="increment">&lt;/BodyUmidWhenChange>&lt;BodyUmidWhenChange frameCount="866" value="04B69404885505A5" status="end">&lt;/BodyUmidWhenChange>&lt;/BodyUmidWhenChangeTable>&lt;KlvPacketTable>&lt;KlvPacket key="060E2B34010101050301020A02000000" frameCount="0" lengthValue="095F5265635374617274" status="spot">&lt;/KlvPacket>&lt;/KlvPacketTable>&lt;VideoFormat>&lt;VideoRecPort port="DIRECT">&lt;/VideoRecPort>&lt;VideoFrame videoCodec="MPEG2HD35_1920_1080_MP@HL" captureFps="50.00i" recFps="50.00" formatFps="50i">&lt;/VideoFrame>&lt;VideoLayout pixel="1920" numOfVerticalLine="1080" aspectRatio="16:9">&lt;/VideoLayout>&lt;/VideoFormat>&lt;AudioFormat numOfChannel="2">&lt;AudioRecPort port="ANALOG" audioCodec="LPCM16" trackDst="CH1">&lt;/AudioRecPort>&lt;AudioRecPort port="DIRECT" audioCodec="LPCM16" trackDst="CH2">&lt;/AudioRecPort>&lt;/AudioFormat>&lt;Device manufacturer="Sony" modelName="PMW-EX3" serialNo="0401525">&lt;/Device>&lt;Lens modelName="VCL-614B2X">&lt;/Lens>&lt;RecordingMode type="normal" cacheRec="false">&lt;/RecordingMode>&lt;/NonRealTimeMeta>
							</value>
						</metadata>
						<metadata>
							<storage>QuickTime</storage>
							<key>com.apple.proapps.reel</key>
							<size>8</size>
							<type>UTF8</type>
							<value>Untitled</value>
						</metadata>
						<metadata>
							<storage>QuickTime</storage>
							<key>com.apple.proapps.clipID</key>
							<size>64</size>
							<type>UTF8</type>
							<value>060A2B340101010501010D43130000005D3C388E885505CC08004602022F05F5</value>
						</metadata>
						<metadata>
							<storage>QuickTime</storage>
							<key>com.apple.quicktime.information</key>
							<size>64</size>
							<type>UTF8</type>
							<value>060a2b340101010501010d43130000005d3c388e885505cc08004602022f05f5</value>
						</metadata>
						<metadata>
							<storage>QuickTime</storage>
							<key>com.apple.proapps.originalFormat</key>
							<size>36</size>
							<type>UTF8</type>
							<value>Apple XDCAM EX 1080i50 (35 Mb/s VBR)</value>
						</metadata>
						<timecode>
							<rate>
								<timebase>25</timebase>
							</rate>
							<string>02:50:49:16</string>
							<frame>256241</frame>
							<displayformat>NDF</displayformat>
							<source>source</source>
							<reel>
								<name>Untitled</name>
							</reel>
						</timecode>
						<media>
							<video>
								<duration>867</duration>
								<samplecharacteristics>
									<width>1920</width>
									<height>1080</height>
								</samplecharacteristics>
							</video>
							<audio>
								<samplecharacteristics>
									<samplerate>48000</samplerate>
									<depth>16</depth>
								</samplecharacteristics>
								<channelcount>1</channelcount>
								<layout>mono</layout>
								<audiochannel>
									<sourcechannel>1</sourcechannel>
									<channellabel>discrete</channellabel>
								</audiochannel>
							</audio>
							<audio>
								<samplecharacteristics>
									<samplerate>48000</samplerate>
									<depth>16</depth>
								</samplecharacteristics>
								<channelcount>1</channelcount>
								<layout>mono</layout>
								<audiochannel>
									<sourcechannel>2</sourcechannel>
									<channellabel>discrete</channellabel>
								</audiochannel>
							</audio>
						</media>
					</file>
					<sourcetrack>
						<mediatype>video</mediatype>
					</sourcetrack>
					<fielddominance>upper</fielddominance>
					<itemhistory>
						<uuid>F9936073-C2DC-4B35-AD3D-5E2DE0B37DB8</uuid>
					</itemhistory>
				</clipitem>
				<clipitem id="DYR19768_01 3">
					<name>DYR19768_01</name>
					<duration>3048</duration>
					<rate>
						<ntsc>FALSE</ntsc>
						<timebase>25</timebase>
					</rate>
					<in>522</in>
					<out>555</out>
					<start>18372</start>
					<end>18405</end>
					<pixelaspectratio>Square</pixelaspectratio>
					<enabled>TRUE</enabled>
					<anamorphic>FALSE</anamorphic>
					<alphatype>none</alphatype>
					<masterclipid>DYR19768_01 1</masterclipid>
					<logginginfo>
						<scene/>
						<shottake/>
						<lognote/>
						<good>FALSE</good>
					</logginginfo>
					<labels>
						<label2/>
					</labels>
					<comments>
						<mastercomment1/>
						<mastercomment2/>
						<mastercomment3/>
						<mastercomment4/>
					</comments>
					<file id="DYR19768_01 2"/>
					<sourcetrack>
						<mediatype>video</mediatype>
					</sourcetrack>
					<fielddominance>upper</fielddominance>
					<itemhistory>
						<uuid>2910361C-4CE1-40A7-90EC-2859912C24B3</uuid>
					</itemhistory>
				</clipitem>
				<clipitem id="DYR19768_01 4">
					<name>DYR19768_01</name>
					<duration>3048</duration>
					<rate>
						<ntsc>FALSE</ntsc>
						<timebase>25</timebase>
					</rate>
					<in>1263</in>
					<out>1423</out>
					<start>18405</start>
					<end>18565</end>
					<pixelaspectratio>Square</pixelaspectratio>
					<enabled>TRUE</enabled>
					<anamorphic>FALSE</anamorphic>
					<alphatype>none</alphatype>
					<masterclipid>DYR19768_01 1</masterclipid>
					<logginginfo>
						<scene/>
						<shottake/>
						<lognote/>
						<good>FALSE</good>
					</logginginfo>
					<labels>
						<label2/>
					</labels>
					<comments>
						<mastercomment1/>
						<mastercomment2/>
						<mastercomment3/>
						<mastercomment4/>
					</comments>
					<file id="DYR19768_01 2"/>
					<filter>
						<start>-1</start>
						<end>-1</end>
						<effect>
							<name>Flop</name>
							<effectid>Flop</effectid>
							<effectcategory>Perspective</effectcategory>
							<effecttype>filter</effecttype>
							<mediatype>video</mediatype>
							<parameter>
								<parameterid>flop</parameterid>
								<name>Flop</name>
								<valuemin>1</valuemin>
								<valuemax>3</valuemax>
								<valuelist>
									<valueentry>
										<name>Horizontal</name>
										<value>1</value>
									</valueentry>
									<valueentry>
										<name>Vertical</name>
										<value>2</value>
									</valueentry>
									<valueentry>
										<name>Both</name>
										<value>3</value>
									</valueentry>
								</valuelist>
								<value>1</value>
							</parameter>
						</effect>
					</filter>
					<sourcetrack>
						<mediatype>video</mediatype>
					</sourcetrack>
					<fielddominance>upper</fielddominance>
					<itemhistory>
						<uuid>4725C6B2-AC68-4A7F-A869-7297A9A0CC4F</uuid>
					</itemhistory>
				</clipitem>
				<clipitem id="DYR19772_01 ">
					<name>DYR19772_01</name>
					<duration>2381</duration>
					<rate>
						<ntsc>FALSE</ntsc>
						<timebase>25</timebase>
					</rate>
					<in>865</in>
					<out>945</out>
					<start>18565</start>
					<end>18645</end>
					<pixelaspectratio>Square</pixelaspectratio>
					<enabled>TRUE</enabled>
					<anamorphic>FALSE</anamorphic>
					<alphatype>none</alphatype>
					<masterclipid>DYR19772_01 1</masterclipid>
					<logginginfo>
						<scene/>
						<shottake/>
						<lognote/>
						<good>FALSE</good>
					</logginginfo>
					<labels>
						<label2/>
					</labels>
					<comments>
						<mastercomment1/>
						<mastercomment2/>
						<mastercomment3/>
						<mastercomment4/>
					</comments>
					<file id="DYR19772_01 2">
						<name>DYR19772_01.mov</name>
						<pathurl>file://localhost/Volumes/Askepott/Prosjekter/DNPR637010_Kra%CC%8Akeklubben_TEM_011212/Video/TORDS%20GARASJE/SJ%C3%98DYR/Reke/DYR19772_01.mov</pathurl>
						<rate>
							<timebase>25</timebase>
						</rate>
						<duration>2381</duration>
						<metadata>
							<storage>QuickTime</storage>
							<key>com.sony.bprl.xdcamtransfer.version</key>
							<size>10</size>
							<type>UTF8</type>
							<value>2.12.0.631</value>
						</metadata>
						<metadata>
							<storage>QuickTime</storage>
							<key>org.smpte.mxf.package.material.packageid</key>
							<size>66</size>
							<type>UTF8</type>
							<value>0x060a2b340101010501010d4313000000e3b8618e885505c908004602022f05f5</value>
						</metadata>
						<metadata>
							<storage>QuickTime</storage>
							<key>com.sony.professionaldisc.nonrealtimemeta.lastupdate</key>
							<size>25</size>
							<type>UTF8</type>
							<value>2011-01-27 14:22:30 +0100</value>
						</metadata>
						<metadata>
							<storage>QuickTime</storage>
							<key>com.sony.bprl.mxf.umid</key>
							<size>64</size>
							<type>UTF8</type>
							<value>060a2b340101010501010d4313000000e3b8618e885505c908004602022f05f5</value>
						</metadata>
						<metadata>
							<storage>QuickTime</storage>
							<key>com.sony.bprl.mxf.nrtmetadata</key>
							<size>1994</size>
							<type>UTF8</type>
							<value>&lt;?xml version="1.0" encoding="UTF-8"?>&lt;NonRealTimeMeta xmlns="urn:schemas-professionalDisc:nonRealTimeMeta:ver.1.20" xmlns:lib="urn:schemas-professionalDisc:lib:ver.1.20" xmlns:xsi="http://www.w3.org/2001/XMLSchema-instance" lastUpdate="2011-01-27T14:22:30+01:00">&lt;TargetMaterial umidRef="060A2B340101010501010D4313000000E3B8618E885505C908004602022F05F5">&lt;/TargetMaterial>&lt;Duration value="2381">&lt;/Duration>&lt;LtcChangeTable tcFps="25" halfStep="false">&lt;LtcChange frameCount="0" value="08245102" status="increment">&lt;/LtcChange>&lt;LtcChange frameCount="2380" value="13595202" status="end">&lt;/LtcChange>&lt;/LtcChangeTable>&lt;CreationDate value="2011-01-27T14:20:53+01:00">&lt;/CreationDate>&lt;TypicalUbit value="0000000017061020">&lt;/TypicalUbit>&lt;BodyUmidBasicChangeTable>&lt;BodyUmidBasicChange frameCount="0" value="060A2B340101010501010D4333000000E3B8618E885505C908004602022F05F5" status="start">&lt;/BodyUmidBasicChange>&lt;/BodyUmidBasicChangeTable>&lt;BodyUmidWhenChangeTable>&lt;BodyUmidWhenChange frameCount="0" value="84339504885505A5" status="increment">&lt;/BodyUmidWhenChange>&lt;BodyUmidWhenChange frameCount="2380" value="84869704885505A5" status="end">&lt;/BodyUmidWhenChange>&lt;/BodyUmidWhenChangeTable>&lt;KlvPacketTable>&lt;KlvPacket key="060E2B34010101050301020A02000000" frameCount="0" lengthValue="095F5265635374617274" status="spot">&lt;/KlvPacket>&lt;/KlvPacketTable>&lt;VideoFormat>&lt;VideoRecPort port="DIRECT">&lt;/VideoRecPort>&lt;VideoFrame videoCodec="MPEG2HD35_1920_1080_MP@HL" captureFps="50.00i" recFps="50.00" formatFps="50i">&lt;/VideoFrame>&lt;VideoLayout pixel="1920" numOfVerticalLine="1080" aspectRatio="16:9">&lt;/VideoLayout>&lt;/VideoFormat>&lt;AudioFormat numOfChannel="2">&lt;AudioRecPort port="ANALOG" audioCodec="LPCM16" trackDst="CH1">&lt;/AudioRecPort>&lt;AudioRecPort port="DIRECT" audioCodec="LPCM16" trackDst="CH2">&lt;/AudioRecPort>&lt;/AudioFormat>&lt;Device manufacturer="Sony" modelName="PMW-EX3" serialNo="0401525">&lt;/Device>&lt;Lens modelName="VCL-614B2X">&lt;/Lens>&lt;RecordingMode type="normal" cacheRec="false">&lt;/RecordingMode>&lt;/NonRealTimeMeta>
							</value>
						</metadata>
						<metadata>
							<storage>QuickTime</storage>
							<key>com.apple.proapps.reel</key>
							<size>8</size>
							<type>UTF8</type>
							<value>Untitled</value>
						</metadata>
						<metadata>
							<storage>QuickTime</storage>
							<key>com.apple.proapps.clipID</key>
							<size>64</size>
							<type>UTF8</type>
							<value>060A2B340101010501010D4313000000E3B8618E885505C908004602022F05F5</value>
						</metadata>
						<metadata>
							<storage>QuickTime</storage>
							<key>com.apple.quicktime.information</key>
							<size>64</size>
							<type>UTF8</type>
							<value>060a2b340101010501010d4313000000e3b8618e885505c908004602022f05f5</value>
						</metadata>
						<metadata>
							<storage>QuickTime</storage>
							<key>com.apple.proapps.originalFormat</key>
							<size>36</size>
							<type>UTF8</type>
							<value>Apple XDCAM EX 1080i50 (35 Mb/s VBR)</value>
						</metadata>
						<timecode>
							<rate>
								<timebase>25</timebase>
							</rate>
							<string>02:51:24:08</string>
							<frame>257108</frame>
							<displayformat>NDF</displayformat>
							<source>source</source>
							<reel>
								<name>Untitled</name>
							</reel>
						</timecode>
						<media>
							<video>
								<duration>2381</duration>
								<samplecharacteristics>
									<width>1920</width>
									<height>1080</height>
								</samplecharacteristics>
							</video>
							<audio>
								<samplecharacteristics>
									<samplerate>48000</samplerate>
									<depth>16</depth>
								</samplecharacteristics>
								<channelcount>1</channelcount>
								<layout>mono</layout>
								<audiochannel>
									<sourcechannel>1</sourcechannel>
									<channellabel>discrete</channellabel>
								</audiochannel>
							</audio>
							<audio>
								<samplecharacteristics>
									<samplerate>48000</samplerate>
									<depth>16</depth>
								</samplecharacteristics>
								<channelcount>1</channelcount>
								<layout>mono</layout>
								<audiochannel>
									<sourcechannel>2</sourcechannel>
									<channellabel>discrete</channellabel>
								</audiochannel>
							</audio>
						</media>
					</file>
					<sourcetrack>
						<mediatype>video</mediatype>
					</sourcetrack>
					<fielddominance>upper</fielddominance>
					<itemhistory>
						<uuid>E921573B-DC4A-401E-B375-08A612839AAB</uuid>
					</itemhistory>
				</clipitem>
				<clipitem id="DYR19768_01 5">
					<name>DYR19768_01</name>
					<duration>3048</duration>
					<rate>
						<ntsc>FALSE</ntsc>
						<timebase>25</timebase>
					</rate>
					<in>1334</in>
					<out>1505</out>
					<start>18645</start>
					<end>-1</end>
					<pixelaspectratio>Square</pixelaspectratio>
					<enabled>TRUE</enabled>
					<anamorphic>FALSE</anamorphic>
					<alphatype>none</alphatype>
					<masterclipid>DYR19768_01 1</masterclipid>
					<logginginfo>
						<scene/>
						<shottake/>
						<lognote/>
						<good>FALSE</good>
					</logginginfo>
					<labels>
						<label2/>
					</labels>
					<comments>
						<mastercomment1/>
						<mastercomment2/>
						<mastercomment3/>
						<mastercomment4/>
					</comments>
					<file id="DYR19768_01 2"/>
					<filter>
						<effect>
							<name>Basic Motion</name>
							<effectid>basic</effectid>
							<effectcategory>motion</effectcategory>
							<effecttype>motion</effecttype>
							<mediatype>video</mediatype>
							<parameter>
								<parameterid>scale</parameterid>
								<name>Scale</name>
								<valuemin>0</valuemin>
								<valuemax>1000</valuemax>
								<value>100</value>
							</parameter>
							<parameter>
								<parameterid>rotation</parameterid>
								<name>Rotation</name>
								<valuemin>-8640</valuemin>
								<valuemax>8640</valuemax>
								<value>0</value>
							</parameter>
							<parameter>
								<parameterid>center</parameterid>
								<name>Center</name>
								<value>
									<horiz>0</horiz>
									<vert>0</vert>
								</value>
							</parameter>
							<parameter>
								<parameterid>centerOffset</parameterid>
								<name>Anchor Point</name>
								<value>
									<horiz>0</horiz>
									<vert>0</vert>
								</value>
							</parameter>
						</effect>
					</filter>
					<filter>
						<enabled>FALSE</enabled>
						<effect>
							<name>Drop Shadow</name>
							<effectid>dropshadow</effectid>
							<effectcategory>motion</effectcategory>
							<effecttype>motion</effecttype>
							<mediatype>video</mediatype>
							<parameter>
								<parameterid>offset</parameterid>
								<name>offset</name>
								<valuemin>-100</valuemin>
								<valuemax>100</valuemax>
								<value>2</value>
							</parameter>
							<parameter>
								<parameterid>angle</parameterid>
								<name>angle</name>
								<valuemin>-720</valuemin>
								<valuemax>720</valuemax>
								<value>135</value>
							</parameter>
							<parameter>
								<parameterid>color</parameterid>
								<name>color</name>
								<value>
									<alpha>0</alpha>
									<red>0</red>
									<green>0</green>
									<blue>0</blue>
								</value>
							</parameter>
							<parameter>
								<parameterid>softness</parameterid>
								<name>softness</name>
								<valuemin>0</valuemin>
								<valuemax>100</valuemax>
								<value>10</value>
							</parameter>
							<parameter>
								<parameterid>opacity</parameterid>
								<name>opacity</name>
								<valuemin>0</valuemin>
								<valuemax>100</valuemax>
								<value>50</value>
							</parameter>
						</effect>
					</filter>
					<filter>
						<enabled>FALSE</enabled>
						<effect>
							<name>Motion Blur</name>
							<effectid>motionblur</effectid>
							<effectcategory>motion</effectcategory>
							<effecttype>motion</effecttype>
							<mediatype>video</mediatype>
							<parameter>
								<parameterid>duration</parameterid>
								<name>% Blur</name>
								<valuemin>0</valuemin>
								<valuemax>1000</valuemax>
								<value>500</value>
							</parameter>
							<parameter>
								<parameterid>samples</parameterid>
								<name>Samples</name>
								<valuemin>1</valuemin>
								<valuemax>16</valuemax>
								<value>4</value>
							</parameter>
						</effect>
					</filter>
					<filter>
						<effect>
							<name>Crop</name>
							<effectid>crop</effectid>
							<effectcategory>motion</effectcategory>
							<effecttype>motion</effecttype>
							<mediatype>video</mediatype>
							<parameter>
								<parameterid>left</parameterid>
								<name>left</name>
								<valuemin>0</valuemin>
								<valuemax>100</valuemax>
								<value>0</value>
							</parameter>
							<parameter>
								<parameterid>right</parameterid>
								<name>right</name>
								<valuemin>0</valuemin>
								<valuemax>100</valuemax>
								<value>0</value>
							</parameter>
							<parameter>
								<parameterid>top</parameterid>
								<name>top</name>
								<valuemin>0</valuemin>
								<valuemax>100</valuemax>
								<value>0</value>
							</parameter>
							<parameter>
								<parameterid>bottom</parameterid>
								<name>bottom</name>
								<valuemin>0</valuemin>
								<valuemax>100</valuemax>
								<value>0</value>
							</parameter>
							<parameter>
								<parameterid>edgefeather</parameterid>
								<name>edgefeather</name>
								<valuemin>0</valuemin>
								<valuemax>100</valuemax>
								<value>0</value>
							</parameter>
						</effect>
					</filter>
					<filter>
						<effect>
							<name>Distort</name>
							<effectid>deformation</effectid>
							<effectcategory>motion</effectcategory>
							<effecttype>motion</effecttype>
							<mediatype>video</mediatype>
							<parameter>
								<parameterid>ulcorner</parameterid>
								<name>Upper Left</name>
								<value>
									<horiz>-0.5</horiz>
									<vert>-0.5</vert>
								</value>
							</parameter>
							<parameter>
								<parameterid>urcorner</parameterid>
								<name>Upper Right</name>
								<value>
									<horiz>0.5</horiz>
									<vert>-0.5</vert>
								</value>
							</parameter>
							<parameter>
								<parameterid>lrcorner</parameterid>
								<name>Lower Right</name>
								<value>
									<horiz>0.5</horiz>
									<vert>0.5</vert>
								</value>
							</parameter>
							<parameter>
								<parameterid>llcorner</parameterid>
								<name>Lower Left</name>
								<value>
									<horiz>-0.5</horiz>
									<vert>0.5</vert>
								</value>
							</parameter>
							<parameter>
								<parameterid>aspect</parameterid>
								<name>Aspect</name>
								<valuemin>-10000</valuemin>
								<valuemax>10000</valuemax>
								<value>0</value>
							</parameter>
						</effect>
					</filter>
					<filter>
						<effect>
							<name>Opacity</name>
							<effectid>opacity</effectid>
							<effectcategory>motion</effectcategory>
							<effecttype>motion</effecttype>
							<mediatype>video</mediatype>
							<parameter>
								<parameterid>opacity</parameterid>
								<name>opacity</name>
								<valuemin>0</valuemin>
								<valuemax>100</valuemax>
								<value>100</value>
							</parameter>
						</effect>
					</filter>
					<sourcetrack>
						<mediatype>video</mediatype>
					</sourcetrack>
					<fielddominance>upper</fielddominance>
					<itemhistory>
						<uuid>22CA2841-50F2-41B1-A6BC-451BFD3FA66A</uuid>
					</itemhistory>
				</clipitem>
				<transitionitem>
					<rate>
						<ntsc>FALSE</ntsc>
						<timebase>25</timebase>
					</rate>
					<start>18791</start>
					<end>18816</end>
					<alignment>center</alignment>
					<effect>
						<name>Cross Dissolve</name>
						<effectid>Cross Dissolve</effectid>
						<effectcategory>Dissolve</effectcategory>
						<effecttype>transition</effecttype>
						<mediatype>video</mediatype>
						<wipecode>0</wipecode>
						<wipeaccuracy>100</wipeaccuracy>
						<startratio>0</startratio>
						<endratio>1</endratio>
						<reverse>FALSE</reverse>
					</effect>
				</transitionitem>
				<clipitem id="DYR19789_01 ">
					<name>DYR19789_01</name>
					<duration>4712</duration>
					<rate>
						<ntsc>FALSE</ntsc>
						<timebase>25</timebase>
					</rate>
					<in>797</in>
					<out>893</out>
					<start>-1</start>
					<end>-1</end>
					<pixelaspectratio>Square</pixelaspectratio>
					<enabled>TRUE</enabled>
					<anamorphic>FALSE</anamorphic>
					<alphatype>none</alphatype>
					<masterclipid>DYR19789_01 1</masterclipid>
					<logginginfo>
						<scene/>
						<shottake/>
						<lognote/>
						<good>FALSE</good>
					</logginginfo>
					<labels>
						<label2/>
					</labels>
					<comments>
						<mastercomment1/>
						<mastercomment2/>
						<mastercomment3/>
						<mastercomment4/>
					</comments>
					<file id="DYR19789_01 2">
						<name>DYR19789_01.mov</name>
						<pathurl>file://localhost/Volumes/Askepott/Prosjekter/DNPR637010_Kra%CC%8Akeklubben_TEM_011212/Video/TORDS%20GARASJE/SJ%C3%98DYR/Reke/DYR19789_01.mov</pathurl>
						<rate>
							<timebase>25</timebase>
						</rate>
						<duration>4712</duration>
						<metadata>
							<storage>QuickTime</storage>
							<key>com.sony.bprl.xdcamtransfer.version</key>
							<size>10</size>
							<type>UTF8</type>
							<value>2.12.0.631</value>
						</metadata>
						<metadata>
							<storage>QuickTime</storage>
							<key>org.smpte.mxf.package.material.packageid</key>
							<size>66</size>
							<type>UTF8</type>
							<value>0x060a2b340101010501010d431300000044a06694885505d808004602022f05f5</value>
						</metadata>
						<metadata>
							<storage>QuickTime</storage>
							<key>com.sony.professionaldisc.nonrealtimemeta.lastupdate</key>
							<size>25</size>
							<type>UTF8</type>
							<value>2011-01-27 14:57:54 +0100</value>
						</metadata>
						<metadata>
							<storage>QuickTime</storage>
							<key>com.sony.bprl.mxf.umid</key>
							<size>64</size>
							<type>UTF8</type>
							<value>060a2b340101010501010d431300000044a06694885505d808004602022f05f5</value>
						</metadata>
						<metadata>
							<storage>QuickTime</storage>
							<key>com.sony.bprl.mxf.nrtmetadata</key>
							<size>1994</size>
							<type>UTF8</type>
							<value>&lt;?xml version="1.0" encoding="UTF-8"?>&lt;NonRealTimeMeta xmlns="urn:schemas-professionalDisc:nonRealTimeMeta:ver.1.20" xmlns:lib="urn:schemas-professionalDisc:lib:ver.1.20" xmlns:xsi="http://www.w3.org/2001/XMLSchema-instance" lastUpdate="2011-01-27T14:57:54+01:00">&lt;TargetMaterial umidRef="060A2B340101010501010D431300000044A06694885505D808004602022F05F5">&lt;/TargetMaterial>&lt;Duration value="4712">&lt;/Duration>&lt;LtcChangeTable tcFps="25" halfStep="false">&lt;LtcChange frameCount="0" value="08210203" status="increment">&lt;/LtcChange>&lt;LtcChange frameCount="4711" value="19290503" status="end">&lt;/LtcChange>&lt;/LtcChangeTable>&lt;CreationDate value="2011-01-27T14:54:45+01:00">&lt;/CreationDate>&lt;TypicalUbit value="0000000017061020">&lt;/TypicalUbit>&lt;BodyUmidBasicChangeTable>&lt;BodyUmidBasicChange frameCount="0" value="060A2B340101010501010D433300000044A06694885505D808004602022F05F5" status="start">&lt;/BodyUmidBasicChange>&lt;/BodyUmidBasicChangeTable>&lt;BodyUmidWhenChangeTable>&lt;BodyUmidWhenChange frameCount="0" value="84CCC604885505A5" status="increment">&lt;/BodyUmidWhenChange>&lt;BodyUmidWhenChange frameCount="4711" value="4466CB04885505A5" status="end">&lt;/BodyUmidWhenChange>&lt;/BodyUmidWhenChangeTable>&lt;KlvPacketTable>&lt;KlvPacket key="060E2B34010101050301020A02000000" frameCount="0" lengthValue="095F5265635374617274" status="spot">&lt;/KlvPacket>&lt;/KlvPacketTable>&lt;VideoFormat>&lt;VideoRecPort port="DIRECT">&lt;/VideoRecPort>&lt;VideoFrame videoCodec="MPEG2HD35_1920_1080_MP@HL" captureFps="50.00i" recFps="50.00" formatFps="50i">&lt;/VideoFrame>&lt;VideoLayout pixel="1920" numOfVerticalLine="1080" aspectRatio="16:9">&lt;/VideoLayout>&lt;/VideoFormat>&lt;AudioFormat numOfChannel="2">&lt;AudioRecPort port="ANALOG" audioCodec="LPCM16" trackDst="CH1">&lt;/AudioRecPort>&lt;AudioRecPort port="DIRECT" audioCodec="LPCM16" trackDst="CH2">&lt;/AudioRecPort>&lt;/AudioFormat>&lt;Device manufacturer="Sony" modelName="PMW-EX3" serialNo="0401525">&lt;/Device>&lt;Lens modelName="VCL-614B2X">&lt;/Lens>&lt;RecordingMode type="normal" cacheRec="false">&lt;/RecordingMode>&lt;/NonRealTimeMeta>
							</value>
						</metadata>
						<metadata>
							<storage>QuickTime</storage>
							<key>com.apple.proapps.reel</key>
							<size>8</size>
							<type>UTF8</type>
							<value>Untitled</value>
						</metadata>
						<metadata>
							<storage>QuickTime</storage>
							<key>com.apple.proapps.clipID</key>
							<size>64</size>
							<type>UTF8</type>
							<value>060A2B340101010501010D431300000044A06694885505D808004602022F05F5</value>
						</metadata>
						<metadata>
							<storage>QuickTime</storage>
							<key>com.apple.quicktime.information</key>
							<size>64</size>
							<type>UTF8</type>
							<value>060a2b340101010501010d431300000044a06694885505d808004602022f05f5</value>
						</metadata>
						<metadata>
							<storage>QuickTime</storage>
							<key>com.apple.proapps.originalFormat</key>
							<size>36</size>
							<type>UTF8</type>
							<value>Apple XDCAM EX 1080i50 (35 Mb/s VBR)</value>
						</metadata>
						<timecode>
							<rate>
								<timebase>25</timebase>
							</rate>
							<string>03:02:21:08</string>
							<frame>273533</frame>
							<displayformat>NDF</displayformat>
							<source>source</source>
							<reel>
								<name>Untitled</name>
							</reel>
						</timecode>
						<media>
							<video>
								<duration>4712</duration>
								<samplecharacteristics>
									<width>1920</width>
									<height>1080</height>
								</samplecharacteristics>
							</video>
							<audio>
								<samplecharacteristics>
									<samplerate>48000</samplerate>
									<depth>16</depth>
								</samplecharacteristics>
								<channelcount>1</channelcount>
								<layout>mono</layout>
								<audiochannel>
									<sourcechannel>1</sourcechannel>
									<channellabel>discrete</channellabel>
								</audiochannel>
							</audio>
							<audio>
								<samplecharacteristics>
									<samplerate>48000</samplerate>
									<depth>16</depth>
								</samplecharacteristics>
								<channelcount>1</channelcount>
								<layout>mono</layout>
								<audiochannel>
									<sourcechannel>2</sourcechannel>
									<channellabel>discrete</channellabel>
								</audiochannel>
							</audio>
						</media>
					</file>
					<sourcetrack>
						<mediatype>video</mediatype>
					</sourcetrack>
					<link>
						<linkclipref>DYR19789_01 </linkclipref>
						<mediatype>video</mediatype>
						<trackindex>1</trackindex>
						<clipindex>206</clipindex>
					</link>
					<link>
						<linkclipref>DYR19789_01 3</linkclipref>
						<mediatype>audio</mediatype>
						<trackindex>1</trackindex>
						<clipindex>119</clipindex>
					</link>
					<link>
						<linkclipref>DYR19789_01 4</linkclipref>
						<mediatype>audio</mediatype>
						<trackindex>2</trackindex>
						<clipindex>98</clipindex>
					</link>
					<fielddominance>upper</fielddominance>
					<itemhistory>
						<uuid>60637C69-2133-41C0-8310-2FDC94E05F6E</uuid>
					</itemhistory>
				</clipitem>
				<transitionitem>
					<rate>
						<ntsc>FALSE</ntsc>
						<timebase>25</timebase>
					</rate>
					<start>18862</start>
					<end>18887</end>
					<alignment>center</alignment>
					<effect>
						<name>Cross Dissolve</name>
						<effectid>Cross Dissolve</effectid>
						<effectcategory>Dissolve</effectcategory>
						<effecttype>transition</effecttype>
						<mediatype>video</mediatype>
						<wipecode>0</wipecode>
						<wipeaccuracy>100</wipeaccuracy>
						<startratio>0</startratio>
						<endratio>1</endratio>
						<reverse>FALSE</reverse>
					</effect>
				</transitionitem>
				<clipitem id="DYR19788_01 ">
					<name>DYR19788_01</name>
					<duration>720</duration>
					<rate>
						<ntsc>FALSE</ntsc>
						<timebase>25</timebase>
					</rate>
					<in>185</in>
					<out>283</out>
					<start>-1</start>
					<end>-1</end>
					<pixelaspectratio>Square</pixelaspectratio>
					<enabled>TRUE</enabled>
					<anamorphic>FALSE</anamorphic>
					<alphatype>none</alphatype>
					<masterclipid>DYR19788_01 1</masterclipid>
					<logginginfo>
						<scene/>
						<shottake/>
						<lognote/>
						<good>FALSE</good>
					</logginginfo>
					<labels>
						<label2/>
					</labels>
					<comments>
						<mastercomment1/>
						<mastercomment2/>
						<mastercomment3/>
						<mastercomment4/>
					</comments>
					<file id="DYR19788_01 2">
						<name>DYR19788_01.mov</name>
						<pathurl>file://localhost/Volumes/Askepott/Prosjekter/DNPR637010_Kra%CC%8Akeklubben_TEM_011212/Video/TORDS%20GARASJE/SJ%C3%98DYR/Reke/DYR19788_01.mov</pathurl>
						<rate>
							<timebase>25</timebase>
						</rate>
						<duration>720</duration>
						<metadata>
							<storage>QuickTime</storage>
							<key>com.sony.bprl.xdcamtransfer.version</key>
							<size>10</size>
							<type>UTF8</type>
							<value>2.12.0.631</value>
						</metadata>
						<metadata>
							<storage>QuickTime</storage>
							<key>org.smpte.mxf.package.material.packageid</key>
							<size>66</size>
							<type>UTF8</type>
							<value>0x060a2b340101010501010d43130000007a406492885505d308004602022f05f5</value>
						</metadata>
						<metadata>
							<storage>QuickTime</storage>
							<key>com.sony.professionaldisc.nonrealtimemeta.lastupdate</key>
							<size>25</size>
							<type>UTF8</type>
							<value>2011-01-27 14:43:56 +0100</value>
						</metadata>
						<metadata>
							<storage>QuickTime</storage>
							<key>com.sony.bprl.mxf.umid</key>
							<size>64</size>
							<type>UTF8</type>
							<value>060a2b340101010501010d43130000007a406492885505d308004602022f05f5</value>
						</metadata>
						<metadata>
							<storage>QuickTime</storage>
							<key>com.sony.bprl.mxf.nrtmetadata</key>
							<size>1991</size>
							<type>UTF8</type>
							<value>&lt;?xml version="1.0" encoding="UTF-8"?>&lt;NonRealTimeMeta xmlns="urn:schemas-professionalDisc:nonRealTimeMeta:ver.1.20" xmlns:lib="urn:schemas-professionalDisc:lib:ver.1.20" xmlns:xsi="http://www.w3.org/2001/XMLSchema-instance" lastUpdate="2011-01-27T14:43:56+01:00">&lt;TargetMaterial umidRef="060A2B340101010501010D43130000007A406492885505D308004602022F05F5">&lt;/TargetMaterial>&lt;Duration value="720">&lt;/Duration>&lt;LtcChangeTable tcFps="25" halfStep="false">&lt;LtcChange frameCount="0" value="13520103" status="increment">&lt;/LtcChange>&lt;LtcChange frameCount="719" value="07210203" status="end">&lt;/LtcChange>&lt;/LtcChangeTable>&lt;CreationDate value="2011-01-27T14:43:27+01:00">&lt;/CreationDate>&lt;TypicalUbit value="0000000017061020">&lt;/TypicalUbit>&lt;BodyUmidBasicChangeTable>&lt;BodyUmidBasicChange frameCount="0" value="060A2B340101010501010D43330000007A406492885505D308004602022F05F5" status="start">&lt;/BodyUmidBasicChange>&lt;/BodyUmidBasicChangeTable>&lt;BodyUmidWhenChangeTable>&lt;BodyUmidWhenChange frameCount="0" value="043EB604885505A5" status="increment">&lt;/BodyUmidWhenChange>&lt;BodyUmidWhenChange frameCount="719" value="C4F1B604885505A5" status="end">&lt;/BodyUmidWhenChange>&lt;/BodyUmidWhenChangeTable>&lt;KlvPacketTable>&lt;KlvPacket key="060E2B34010101050301020A02000000" frameCount="0" lengthValue="095F5265635374617274" status="spot">&lt;/KlvPacket>&lt;/KlvPacketTable>&lt;VideoFormat>&lt;VideoRecPort port="DIRECT">&lt;/VideoRecPort>&lt;VideoFrame videoCodec="MPEG2HD35_1920_1080_MP@HL" captureFps="50.00i" recFps="50.00" formatFps="50i">&lt;/VideoFrame>&lt;VideoLayout pixel="1920" numOfVerticalLine="1080" aspectRatio="16:9">&lt;/VideoLayout>&lt;/VideoFormat>&lt;AudioFormat numOfChannel="2">&lt;AudioRecPort port="ANALOG" audioCodec="LPCM16" trackDst="CH1">&lt;/AudioRecPort>&lt;AudioRecPort port="DIRECT" audioCodec="LPCM16" trackDst="CH2">&lt;/AudioRecPort>&lt;/AudioFormat>&lt;Device manufacturer="Sony" modelName="PMW-EX3" serialNo="0401525">&lt;/Device>&lt;Lens modelName="VCL-614B2X">&lt;/Lens>&lt;RecordingMode type="normal" cacheRec="false">&lt;/RecordingMode>&lt;/NonRealTimeMeta>
							</value>
						</metadata>
						<metadata>
							<storage>QuickTime</storage>
							<key>com.apple.proapps.reel</key>
							<size>8</size>
							<type>UTF8</type>
							<value>Untitled</value>
						</metadata>
						<metadata>
							<storage>QuickTime</storage>
							<key>com.apple.proapps.clipID</key>
							<size>64</size>
							<type>UTF8</type>
							<value>060A2B340101010501010D43130000007A406492885505D308004602022F05F5</value>
						</metadata>
						<metadata>
							<storage>QuickTime</storage>
							<key>com.apple.quicktime.information</key>
							<size>64</size>
							<type>UTF8</type>
							<value>060a2b340101010501010d43130000007a406492885505d308004602022f05f5</value>
						</metadata>
						<metadata>
							<storage>QuickTime</storage>
							<key>com.apple.proapps.originalFormat</key>
							<size>36</size>
							<type>UTF8</type>
							<value>Apple XDCAM EX 1080i50 (35 Mb/s VBR)</value>
						</metadata>
						<timecode>
							<rate>
								<timebase>25</timebase>
							</rate>
							<string>03:01:52:13</string>
							<frame>272813</frame>
							<displayformat>NDF</displayformat>
							<source>source</source>
							<reel>
								<name>Untitled</name>
							</reel>
						</timecode>
						<media>
							<video>
								<duration>720</duration>
								<samplecharacteristics>
									<width>1920</width>
									<height>1080</height>
								</samplecharacteristics>
							</video>
							<audio>
								<samplecharacteristics>
									<samplerate>48000</samplerate>
									<depth>16</depth>
								</samplecharacteristics>
								<channelcount>1</channelcount>
								<layout>mono</layout>
								<audiochannel>
									<sourcechannel>1</sourcechannel>
									<channellabel>discrete</channellabel>
								</audiochannel>
							</audio>
							<audio>
								<samplecharacteristics>
									<samplerate>48000</samplerate>
									<depth>16</depth>
								</samplecharacteristics>
								<channelcount>1</channelcount>
								<layout>mono</layout>
								<audiochannel>
									<sourcechannel>2</sourcechannel>
									<channellabel>discrete</channellabel>
								</audiochannel>
							</audio>
						</media>
					</file>
					<sourcetrack>
						<mediatype>video</mediatype>
					</sourcetrack>
					<fielddominance>upper</fielddominance>
					<itemhistory>
						<uuid>1AC778B4-D348-4A7F-8714-8AB7C712744E</uuid>
					</itemhistory>
				</clipitem>
				<transitionitem>
					<rate>
						<ntsc>FALSE</ntsc>
						<timebase>25</timebase>
					</rate>
					<start>18935</start>
					<end>18960</end>
					<alignment>center</alignment>
					<effect>
						<name>Cross Dissolve</name>
						<effectid>Cross Dissolve</effectid>
						<effectcategory>Dissolve</effectcategory>
						<effecttype>transition</effecttype>
						<mediatype>video</mediatype>
						<wipecode>0</wipecode>
						<wipeaccuracy>100</wipeaccuracy>
						<startratio>0</startratio>
						<endratio>1</endratio>
						<reverse>FALSE</reverse>
					</effect>
				</transitionitem>
				<clipitem id="DYR19789_01 5">
					<name>DYR19789_01</name>
					<duration>4712</duration>
					<rate>
						<ntsc>FALSE</ntsc>
						<timebase>25</timebase>
					</rate>
					<in>1101</in>
					<out>1225</out>
					<start>-1</start>
					<end>-1</end>
					<pixelaspectratio>Square</pixelaspectratio>
					<enabled>TRUE</enabled>
					<anamorphic>FALSE</anamorphic>
					<alphatype>none</alphatype>
					<masterclipid>DYR19789_01 1</masterclipid>
					<logginginfo>
						<scene/>
						<shottake/>
						<lognote/>
						<good>FALSE</good>
					</logginginfo>
					<labels>
						<label2/>
					</labels>
					<comments>
						<mastercomment1/>
						<mastercomment2/>
						<mastercomment3/>
						<mastercomment4/>
					</comments>
					<file id="DYR19789_01 2"/>
					<sourcetrack>
						<mediatype>video</mediatype>
					</sourcetrack>
					<link>
						<linkclipref>DYR19789_01 5</linkclipref>
						<mediatype>video</mediatype>
						<trackindex>1</trackindex>
						<clipindex>210</clipindex>
					</link>
					<link>
						<linkclipref>DYR19789_01 6</linkclipref>
						<mediatype>audio</mediatype>
						<trackindex>1</trackindex>
						<clipindex>120</clipindex>
					</link>
					<link>
						<linkclipref>DYR19789_01 7</linkclipref>
						<mediatype>audio</mediatype>
						<trackindex>2</trackindex>
						<clipindex>99</clipindex>
					</link>
					<fielddominance>upper</fielddominance>
					<itemhistory>
						<uuid>B8BA3E6A-414C-4C18-BB16-9922BD7DFE75</uuid>
					</itemhistory>
				</clipitem>
				<transitionitem>
					<rate>
						<ntsc>FALSE</ntsc>
						<timebase>25</timebase>
					</rate>
					<start>19034</start>
					<end>19059</end>
					<alignment>center</alignment>
					<effect>
						<name>Cross Dissolve</name>
						<effectid>Cross Dissolve</effectid>
						<effectcategory>Dissolve</effectcategory>
						<effecttype>transition</effecttype>
						<mediatype>video</mediatype>
						<wipecode>0</wipecode>
						<wipeaccuracy>100</wipeaccuracy>
						<startratio>0</startratio>
						<endratio>1</endratio>
						<reverse>FALSE</reverse>
					</effect>
				</transitionitem>
				<clipitem id="DYR19789_01 8">
					<name>DYR19789_01</name>
					<duration>4712</duration>
					<rate>
						<ntsc>FALSE</ntsc>
						<timebase>25</timebase>
					</rate>
					<in>3810</in>
					<out>3913</out>
					<start>-1</start>
					<end>-1</end>
					<pixelaspectratio>Square</pixelaspectratio>
					<enabled>TRUE</enabled>
					<anamorphic>FALSE</anamorphic>
					<alphatype>none</alphatype>
					<masterclipid>DYR19789_01 1</masterclipid>
					<logginginfo>
						<scene/>
						<shottake/>
						<lognote/>
						<good>FALSE</good>
					</logginginfo>
					<labels>
						<label2/>
					</labels>
					<comments>
						<mastercomment1/>
						<mastercomment2/>
						<mastercomment3/>
						<mastercomment4/>
					</comments>
					<file id="DYR19789_01 2"/>
					<sourcetrack>
						<mediatype>video</mediatype>
					</sourcetrack>
					<fielddominance>upper</fielddominance>
					<itemhistory>
						<uuid>9356344B-0441-4BEC-96A8-A8A2484FEDA0</uuid>
					</itemhistory>
				</clipitem>
				<transitionitem>
					<rate>
						<ntsc>FALSE</ntsc>
						<timebase>25</timebase>
					</rate>
					<start>19112</start>
					<end>19137</end>
					<alignment>center</alignment>
					<effect>
						<name>Cross Dissolve</name>
						<effectid>Cross Dissolve</effectid>
						<effectcategory>Dissolve</effectcategory>
						<effecttype>transition</effecttype>
						<mediatype>video</mediatype>
						<wipecode>0</wipecode>
						<wipeaccuracy>100</wipeaccuracy>
						<startratio>0</startratio>
						<endratio>1</endratio>
						<reverse>FALSE</reverse>
					</effect>
				</transitionitem>
				<clipitem id="DYR19789_01 9">
					<name>DYR19789_01</name>
					<duration>4712</duration>
					<rate>
						<ntsc>FALSE</ntsc>
						<timebase>25</timebase>
					</rate>
					<in>4050</in>
					<out>4180</out>
					<start>-1</start>
					<end>-1</end>
					<pixelaspectratio>Square</pixelaspectratio>
					<enabled>TRUE</enabled>
					<anamorphic>FALSE</anamorphic>
					<alphatype>none</alphatype>
					<masterclipid>DYR19789_01 1</masterclipid>
					<logginginfo>
						<scene/>
						<shottake/>
						<lognote/>
						<good>FALSE</good>
					</logginginfo>
					<labels>
						<label2/>
					</labels>
					<comments>
						<mastercomment1/>
						<mastercomment2/>
						<mastercomment3/>
						<mastercomment4/>
					</comments>
					<file id="DYR19789_01 2"/>
					<sourcetrack>
						<mediatype>video</mediatype>
					</sourcetrack>
					<fielddominance>upper</fielddominance>
					<itemhistory>
						<uuid>461B185A-4CAB-4393-AA66-6D509875B6CE</uuid>
					</itemhistory>
				</clipitem>
				<transitionitem>
					<rate>
						<ntsc>FALSE</ntsc>
						<timebase>25</timebase>
					</rate>
					<start>19217</start>
					<end>19242</end>
					<alignment>center</alignment>
					<effect>
						<name>Cross Dissolve</name>
						<effectid>Cross Dissolve</effectid>
						<effectcategory>Dissolve</effectcategory>
						<effecttype>transition</effecttype>
						<mediatype>video</mediatype>
						<wipecode>0</wipecode>
						<wipeaccuracy>100</wipeaccuracy>
						<startratio>0</startratio>
						<endratio>1</endratio>
						<reverse>FALSE</reverse>
					</effect>
				</transitionitem>
				<clipitem id="DYR19792_01 ">
					<name>DYR19792_01</name>
					<duration>526</duration>
					<rate>
						<ntsc>FALSE</ntsc>
						<timebase>25</timebase>
					</rate>
					<in>169</in>
					<out>246</out>
					<start>-1</start>
					<end>19294</end>
					<pixelaspectratio>Square</pixelaspectratio>
					<enabled>TRUE</enabled>
					<anamorphic>FALSE</anamorphic>
					<alphatype>none</alphatype>
					<masterclipid>DYR19792_01 1</masterclipid>
					<logginginfo>
						<scene/>
						<shottake/>
						<lognote/>
						<good>FALSE</good>
					</logginginfo>
					<labels>
						<label2/>
					</labels>
					<comments>
						<mastercomment1/>
						<mastercomment2/>
						<mastercomment3/>
						<mastercomment4/>
					</comments>
					<file id="DYR19792_01 2">
						<name>DYR19792_01.mov</name>
						<pathurl>file://localhost/Volumes/Askepott/Prosjekter/DNPR637010_Kra%CC%8Akeklubben_TEM_011212/Video/TORDS%20GARASJE/SJ%C3%98DYR/Reke/DYR19792_01.mov</pathurl>
						<rate>
							<timebase>25</timebase>
						</rate>
						<duration>526</duration>
						<metadata>
							<storage>QuickTime</storage>
							<key>com.sony.bprl.xdcamtransfer.version</key>
							<size>10</size>
							<type>UTF8</type>
							<value>2.12.0.631</value>
						</metadata>
						<metadata>
							<storage>QuickTime</storage>
							<key>org.smpte.mxf.package.material.packageid</key>
							<size>66</size>
							<type>UTF8</type>
							<value>0x060a2b340101010501010d431300000041a35795885505df08004602022f05f5</value>
						</metadata>
						<metadata>
							<storage>QuickTime</storage>
							<key>com.sony.professionaldisc.nonrealtimemeta.lastupdate</key>
							<size>25</size>
							<type>UTF8</type>
							<value>2011-01-27 15:00:24 +0100</value>
						</metadata>
						<metadata>
							<storage>QuickTime</storage>
							<key>com.sony.bprl.mxf.umid</key>
							<size>64</size>
							<type>UTF8</type>
							<value>060a2b340101010501010d431300000041a35795885505df08004602022f05f5</value>
						</metadata>
						<metadata>
							<storage>QuickTime</storage>
							<key>com.sony.bprl.mxf.nrtmetadata</key>
							<size>1991</size>
							<type>UTF8</type>
							<value>&lt;?xml version="1.0" encoding="UTF-8"?>&lt;NonRealTimeMeta xmlns="urn:schemas-professionalDisc:nonRealTimeMeta:ver.1.20" xmlns:lib="urn:schemas-professionalDisc:lib:ver.1.20" xmlns:xsi="http://www.w3.org/2001/XMLSchema-instance" lastUpdate="2011-01-27T15:00:24+01:00">&lt;TargetMaterial umidRef="060A2B340101010501010D431300000041A35795885505DF08004602022F05F5">&lt;/TargetMaterial>&lt;Duration value="526">&lt;/Duration>&lt;LtcChangeTable tcFps="25" halfStep="false">&lt;LtcChange frameCount="0" value="21270603" status="increment">&lt;/LtcChange>&lt;LtcChange frameCount="525" value="21480603" status="end">&lt;/LtcChange>&lt;/LtcChangeTable>&lt;CreationDate value="2011-01-27T15:00:03+01:00">&lt;/CreationDate>&lt;TypicalUbit value="0000000017061020">&lt;/TypicalUbit>&lt;BodyUmidBasicChangeTable>&lt;BodyUmidBasicChange frameCount="0" value="060A2B340101010501010D433300000041A35795885505DF08004602022F05F5" status="start">&lt;/BodyUmidBasicChange>&lt;/BodyUmidBasicChangeTable>&lt;BodyUmidWhenChangeTable>&lt;BodyUmidWhenChange frameCount="0" value="848ECE04885505A5" status="increment">&lt;/BodyUmidWhenChange>&lt;BodyUmidWhenChange frameCount="525" value="C411CF04885505A5" status="end">&lt;/BodyUmidWhenChange>&lt;/BodyUmidWhenChangeTable>&lt;KlvPacketTable>&lt;KlvPacket key="060E2B34010101050301020A02000000" frameCount="0" lengthValue="095F5265635374617274" status="spot">&lt;/KlvPacket>&lt;/KlvPacketTable>&lt;VideoFormat>&lt;VideoRecPort port="DIRECT">&lt;/VideoRecPort>&lt;VideoFrame videoCodec="MPEG2HD35_1920_1080_MP@HL" captureFps="50.00i" recFps="50.00" formatFps="50i">&lt;/VideoFrame>&lt;VideoLayout pixel="1920" numOfVerticalLine="1080" aspectRatio="16:9">&lt;/VideoLayout>&lt;/VideoFormat>&lt;AudioFormat numOfChannel="2">&lt;AudioRecPort port="ANALOG" audioCodec="LPCM16" trackDst="CH1">&lt;/AudioRecPort>&lt;AudioRecPort port="DIRECT" audioCodec="LPCM16" trackDst="CH2">&lt;/AudioRecPort>&lt;/AudioFormat>&lt;Device manufacturer="Sony" modelName="PMW-EX3" serialNo="0401525">&lt;/Device>&lt;Lens modelName="VCL-614B2X">&lt;/Lens>&lt;RecordingMode type="normal" cacheRec="false">&lt;/RecordingMode>&lt;/NonRealTimeMeta>
							</value>
						</metadata>
						<metadata>
							<storage>QuickTime</storage>
							<key>com.apple.proapps.reel</key>
							<size>8</size>
							<type>UTF8</type>
							<value>Untitled</value>
						</metadata>
						<metadata>
							<storage>QuickTime</storage>
							<key>com.apple.proapps.clipID</key>
							<size>64</size>
							<type>UTF8</type>
							<value>060A2B340101010501010D431300000041A35795885505DF08004602022F05F5</value>
						</metadata>
						<metadata>
							<storage>QuickTime</storage>
							<key>com.apple.quicktime.information</key>
							<size>64</size>
							<type>UTF8</type>
							<value>060a2b340101010501010d431300000041a35795885505df08004602022f05f5</value>
						</metadata>
						<metadata>
							<storage>QuickTime</storage>
							<key>com.apple.proapps.originalFormat</key>
							<size>36</size>
							<type>UTF8</type>
							<value>Apple XDCAM EX 1080i50 (35 Mb/s VBR)</value>
						</metadata>
						<timecode>
							<rate>
								<timebase>25</timebase>
							</rate>
							<string>03:06:27:21</string>
							<frame>279696</frame>
							<displayformat>NDF</displayformat>
							<source>source</source>
							<reel>
								<name>Untitled</name>
							</reel>
						</timecode>
						<media>
							<video>
								<duration>526</duration>
								<samplecharacteristics>
									<width>1920</width>
									<height>1080</height>
								</samplecharacteristics>
							</video>
							<audio>
								<samplecharacteristics>
									<samplerate>48000</samplerate>
									<depth>16</depth>
								</samplecharacteristics>
								<channelcount>1</channelcount>
								<layout>mono</layout>
								<audiochannel>
									<sourcechannel>1</sourcechannel>
									<channellabel>discrete</channellabel>
								</audiochannel>
							</audio>
							<audio>
								<samplecharacteristics>
									<samplerate>48000</samplerate>
									<depth>16</depth>
								</samplecharacteristics>
								<channelcount>1</channelcount>
								<layout>mono</layout>
								<audiochannel>
									<sourcechannel>2</sourcechannel>
									<channellabel>discrete</channellabel>
								</audiochannel>
							</audio>
						</media>
					</file>
					<sourcetrack>
						<mediatype>video</mediatype>
					</sourcetrack>
					<link>
						<linkclipref>DYR19792_01 </linkclipref>
						<mediatype>video</mediatype>
						<trackindex>1</trackindex>
						<clipindex>216</clipindex>
					</link>
					<link>
						<linkclipref>DYR19792_01 3</linkclipref>
						<mediatype>audio</mediatype>
						<trackindex>1</trackindex>
						<clipindex>121</clipindex>
					</link>
					<link>
						<linkclipref>DYR19792_01 4</linkclipref>
						<mediatype>audio</mediatype>
						<trackindex>2</trackindex>
						<clipindex>100</clipindex>
					</link>
					<fielddominance>upper</fielddominance>
					<itemhistory>
						<uuid>09E6AC94-BBC5-4C08-900D-A76BAEA014A9</uuid>
					</itemhistory>
				</clipitem>
				<clipitem id="DYR19792_01 5">
					<name>DYR19792_01</name>
					<duration>526</duration>
					<rate>
						<ntsc>FALSE</ntsc>
						<timebase>25</timebase>
					</rate>
					<in>246</in>
					<out>288</out>
					<start>19294</start>
					<end>-1</end>
					<pixelaspectratio>Square</pixelaspectratio>
					<enabled>TRUE</enabled>
					<anamorphic>FALSE</anamorphic>
					<alphatype>none</alphatype>
					<masterclipid>DYR19792_01 1</masterclipid>
					<logginginfo>
						<scene/>
						<shottake/>
						<lognote/>
						<good>FALSE</good>
					</logginginfo>
					<labels>
						<label2/>
					</labels>
					<comments>
						<mastercomment1/>
						<mastercomment2/>
						<mastercomment3/>
						<mastercomment4/>
					</comments>
					<file id="DYR19792_01 2"/>
					<filter>
						<enabled>TRUE</enabled>
						<start>-1</start>
						<end>-1</end>
						<effect>
							<name>Twixtor FxPlug</name>
							<effectid>FxPlugWrapper:B3134303_3C75_40AE_B82F_F0A6EAB802E2</effectid>
							<effectclass>FxPlug</effectclass>
							<effecttype>filter</effecttype>
							<mediatype>video</mediatype>
							<parameter>
								<parameterid>input_1</parameterid>
								<name>Display</name>
								<valuelist>
									<valueentry>
										<name>Twixtored Output</name>
										<value>1</value>
									</valueentry>
									<valueentry>
										<name>Source</name>
										<value>2</value>
									</valueentry>
									<valueentry>
										<name>Alt Track Source</name>
										<value>3</value>
									</valueentry>
								</valuelist>
								<value>1</value>
							</parameter>
							<parameter>
								<parameterid>group_2</parameterid>
								<name>Source Control</name>
								<value>Source Control</value>
							</parameter>
							<parameter>
								<parameterid>input_3</parameterid>
								<name>Alt Track Source</name>
							</parameter>
							<parameter>
								<parameterid>input_4</parameterid>
								<name>Mark Segments</name>
								<valuemin>1</valuemin>
								<valuemax>2</valuemax>
								<value>1</value>
							</parameter>
							<parameter>
								<parameterid>group_5</parameterid>
								<name>Track Control</name>
								<value>Track Control</value>
							</parameter>
							<parameter>
								<parameterid>input_6</parameterid>
								<name>Motion Vectors</name>
								<valuelist>
									<valueentry>
										<name>No Motion Vectors</name>
										<value>1</value>
									</valueentry>
									<valueentry>
										<name>Sloppy</name>
										<value>2</value>
									</valueentry>
									<valueentry>
										<name>Medium</name>
										<value>3</value>
									</valueentry>
									<valueentry>
										<name>High</name>
										<value>4</value>
									</valueentry>
									<valueentry>
										<name>Best</name>
										<value>5</value>
									</valueentry>
								</valuelist>
								<value>5</value>
							</parameter>
							<parameter>
								<parameterid>input_7</parameterid>
								<name>Image Prep</name>
								<valuelist>
									<valueentry>
										<name>None</name>
										<value>1</value>
									</valueentry>
									<valueentry>
										<name>Contrast/Edge Enhance</name>
										<value>2</value>
									</valueentry>
								</valuelist>
								<value>2</value>
							</parameter>
							<parameter>
								<parameterid>input_8</parameterid>
								<name>Motion Sensitivity</name>
								<valuemin>0</valuemin>
								<valuemax>100</valuemax>
								<value>70</value>
							</parameter>
							<parameter>
								<parameterid>group_9</parameterid>
								<name>Output Control</name>
								<value>Output Control</value>
							</parameter>
							<parameter>
								<parameterid>input_10</parameterid>
								<name>Time Remap Mode</name>
								<valuelist>
									<valueentry>
										<name>Speed</name>
										<value>1</value>
									</valueentry>
									<valueentry>
										<name>Frame Number</name>
										<value>2</value>
									</valueentry>
								</valuelist>
								<value>1</value>
							</parameter>
							<parameter>
								<parameterid>input_11</parameterid>
								<name>Speed %</name>
								<valuemin>-10000</valuemin>
								<valuemax>10000</valuemax>
								<value>200</value>
							</parameter>
							<parameter>
								<parameterid>input_12</parameterid>
								<name>Frame Num</name>
								<valuemin>0</valuemin>
								<valuemax>30000</valuemax>
								<value>0</value>
							</parameter>
							<parameter>
								<parameterid>input_13</parameterid>
								<name>Frame Interp</name>
								<valuelist>
									<valueentry>
										<name>Nearest</name>
										<value>1</value>
									</valueentry>
									<valueentry>
										<name>Blend</name>
										<value>2</value>
									</valueentry>
									<valueentry>
										<name>Motion Weighted Blend</name>
										<value>3</value>
									</valueentry>
								</valuelist>
								<value>3</value>
							</parameter>
							<parameter>
								<parameterid>input_14</parameterid>
								<name>Smart Blend</name>
								<value>TRUE</value>
							</parameter>
							<parameter>
								<parameterid>input_15</parameterid>
								<name>Motion Blur Compensation</name>
								<valuemin>0</valuemin>
								<valuemax>10</valuemax>
								<value>0</value>
							</parameter>
							<parameter>
								<parameterid>endGroup_9</parameterid>
								<name/>
								<value/>
							</parameter>
							<parameter>
								<parameterid>input_16</parameterid>
								<name>Registered to</name>
								<value>4Hans Ludvig Andreassen</value>
							</parameter>
							<parameter>
								<parameterid>FCP_FilterMix</parameterid>
								<name>Mix</name>
								<valuemin>0</valuemin>
								<valuemax>100</valuemax>
								<value>100</value>
							</parameter>
						</effect>
					</filter>
					<filter>
						<effect>
							<name>Basic Motion</name>
							<effectid>basic</effectid>
							<effectcategory>motion</effectcategory>
							<effecttype>motion</effecttype>
							<mediatype>video</mediatype>
							<parameter>
								<parameterid>scale</parameterid>
								<name>Scale</name>
								<valuemin>0</valuemin>
								<valuemax>1000</valuemax>
								<value>100</value>
							</parameter>
							<parameter>
								<parameterid>rotation</parameterid>
								<name>Rotation</name>
								<valuemin>-8640</valuemin>
								<valuemax>8640</valuemax>
								<value>0</value>
							</parameter>
							<parameter>
								<parameterid>center</parameterid>
								<name>Center</name>
								<value>
									<horiz>0</horiz>
									<vert>0</vert>
								</value>
							</parameter>
							<parameter>
								<parameterid>centerOffset</parameterid>
								<name>Anchor Point</name>
								<value>
									<horiz>0</horiz>
									<vert>0</vert>
								</value>
							</parameter>
						</effect>
					</filter>
					<filter>
						<enabled>FALSE</enabled>
						<effect>
							<name>Drop Shadow</name>
							<effectid>dropshadow</effectid>
							<effectcategory>motion</effectcategory>
							<effecttype>motion</effecttype>
							<mediatype>video</mediatype>
							<parameter>
								<parameterid>offset</parameterid>
								<name>offset</name>
								<valuemin>-100</valuemin>
								<valuemax>100</valuemax>
								<value>2</value>
							</parameter>
							<parameter>
								<parameterid>angle</parameterid>
								<name>angle</name>
								<valuemin>-720</valuemin>
								<valuemax>720</valuemax>
								<value>135</value>
							</parameter>
							<parameter>
								<parameterid>color</parameterid>
								<name>color</name>
								<value>
									<alpha>0</alpha>
									<red>0</red>
									<green>0</green>
									<blue>0</blue>
								</value>
							</parameter>
							<parameter>
								<parameterid>softness</parameterid>
								<name>softness</name>
								<valuemin>0</valuemin>
								<valuemax>100</valuemax>
								<value>10</value>
							</parameter>
							<parameter>
								<parameterid>opacity</parameterid>
								<name>opacity</name>
								<valuemin>0</valuemin>
								<valuemax>100</valuemax>
								<value>50</value>
							</parameter>
						</effect>
					</filter>
					<filter>
						<enabled>FALSE</enabled>
						<effect>
							<name>Motion Blur</name>
							<effectid>motionblur</effectid>
							<effectcategory>motion</effectcategory>
							<effecttype>motion</effecttype>
							<mediatype>video</mediatype>
							<parameter>
								<parameterid>duration</parameterid>
								<name>% Blur</name>
								<valuemin>0</valuemin>
								<valuemax>1000</valuemax>
								<value>500</value>
							</parameter>
							<parameter>
								<parameterid>samples</parameterid>
								<name>Samples</name>
								<valuemin>1</valuemin>
								<valuemax>16</valuemax>
								<value>4</value>
							</parameter>
						</effect>
					</filter>
					<filter>
						<effect>
							<name>Crop</name>
							<effectid>crop</effectid>
							<effectcategory>motion</effectcategory>
							<effecttype>motion</effecttype>
							<mediatype>video</mediatype>
							<parameter>
								<parameterid>left</parameterid>
								<name>left</name>
								<valuemin>0</valuemin>
								<valuemax>100</valuemax>
								<value>0</value>
							</parameter>
							<parameter>
								<parameterid>right</parameterid>
								<name>right</name>
								<valuemin>0</valuemin>
								<valuemax>100</valuemax>
								<value>0</value>
							</parameter>
							<parameter>
								<parameterid>top</parameterid>
								<name>top</name>
								<valuemin>0</valuemin>
								<valuemax>100</valuemax>
								<value>0</value>
							</parameter>
							<parameter>
								<parameterid>bottom</parameterid>
								<name>bottom</name>
								<valuemin>0</valuemin>
								<valuemax>100</valuemax>
								<value>0</value>
							</parameter>
							<parameter>
								<parameterid>edgefeather</parameterid>
								<name>edgefeather</name>
								<valuemin>0</valuemin>
								<valuemax>100</valuemax>
								<value>0</value>
							</parameter>
						</effect>
					</filter>
					<filter>
						<effect>
							<name>Distort</name>
							<effectid>deformation</effectid>
							<effectcategory>motion</effectcategory>
							<effecttype>motion</effecttype>
							<mediatype>video</mediatype>
							<parameter>
								<parameterid>ulcorner</parameterid>
								<name>Upper Left</name>
								<value>
									<horiz>-0.5</horiz>
									<vert>-0.5</vert>
								</value>
							</parameter>
							<parameter>
								<parameterid>urcorner</parameterid>
								<name>Upper Right</name>
								<value>
									<horiz>0.5</horiz>
									<vert>-0.5</vert>
								</value>
							</parameter>
							<parameter>
								<parameterid>lrcorner</parameterid>
								<name>Lower Right</name>
								<value>
									<horiz>0.5</horiz>
									<vert>0.5</vert>
								</value>
							</parameter>
							<parameter>
								<parameterid>llcorner</parameterid>
								<name>Lower Left</name>
								<value>
									<horiz>-0.5</horiz>
									<vert>0.5</vert>
								</value>
							</parameter>
							<parameter>
								<parameterid>aspect</parameterid>
								<name>Aspect</name>
								<valuemin>-10000</valuemin>
								<valuemax>10000</valuemax>
								<value>0</value>
							</parameter>
						</effect>
					</filter>
					<filter>
						<effect>
							<name>Opacity</name>
							<effectid>opacity</effectid>
							<effectcategory>motion</effectcategory>
							<effecttype>motion</effecttype>
							<mediatype>video</mediatype>
							<parameter>
								<parameterid>opacity</parameterid>
								<name>opacity</name>
								<valuemin>0</valuemin>
								<valuemax>100</valuemax>
								<value>100</value>
							</parameter>
						</effect>
					</filter>
					<sourcetrack>
						<mediatype>video</mediatype>
					</sourcetrack>
					<fielddominance>upper</fielddominance>
					<itemhistory>
						<uuid>A6EFB2CA-E349-442C-8B76-8B507E383011</uuid>
					</itemhistory>
				</clipitem>
				<transitionitem>
					<rate>
						<ntsc>FALSE</ntsc>
						<timebase>25</timebase>
					</rate>
					<start>19321</start>
					<end>19336</end>
					<alignment>center</alignment>
					<effect>
						<name>G Lens Flare Tords garasje</name>
						<effectcategory>Nattress Big Box Of Tricks</effectcategory>
						<effecttype>transition</effecttype>
						<mediatype>video</mediatype>
						<startratio>0</startratio>
						<endratio>1</endratio>
						<reverse>FALSE</reverse>
						<parameter>
							<parameterid>dispvar1</parameterid>
							<name>Display Settings</name>
							<value>string</value>
						</parameter>
						<parameter>
							<parameterid>inputvar1</parameterid>
							<name>Flare Position</name>
							<value>string</value>
						</parameter>
						<parameter>
							<parameterid>theangle</parameterid>
							<name>Transition Direction</name>
							<valuemin>-360</valuemin>
							<valuemax>360</valuemax>
							<value>90</value>
						</parameter>
						<parameter>
							<parameterid>transitionblendduration</parameterid>
							<name>Blend Duration</name>
							<valuemin>0</valuemin>
							<valuemax>100</valuemax>
							<value>50</value>
						</parameter>
						<parameter>
							<parameterid>settingsvar1</parameterid>
							<name>Flare Settings</name>
							<value>string</value>
						</parameter>
						<parameter>
							<parameterid>presets</parameterid>
							<name>Preset Select</name>
							<valuemin>1</valuemin>
							<valuemax>4</valuemax>
							<valuelist>
								<valueentry>
									<name>Custom Controls</name>
									<value>1</value>
								</valueentry>
								<valueentry>
									<name>Other End of the Rainbow</name>
									<value>2</value>
								</valueentry>
								<valueentry>
									<name>Photon</name>
									<value>3</value>
								</valueentry>
								<valueentry>
									<name>Gaudy</name>
									<value>4</value>
								</valueentry>
							</valuelist>
							<value>1</value>
						</parameter>
						<parameter>
							<parameterid>randomevolution</parameterid>
							<name>Randomness Evolution</name>
							<valuemin>0</valuemin>
							<valuemax>1</valuemax>
							<value>0.05</value>
						</parameter>
						<parameter>
							<parameterid>flareaspect</parameterid>
							<name>Aspect</name>
							<valuemin>0.1</valuemin>
							<valuemax>10</valuemax>
							<value>1</value>
						</parameter>
						<parameter>
							<parameterid>flareintensity</parameterid>
							<name>Overall Intensity</name>
							<valuemin>0</valuemin>
							<valuemax>400</valuemax>
							<value>300</value>
						</parameter>
						<parameter>
							<parameterid>therandomseed</parameterid>
							<name>Random Seed</name>
							<valuemin>0</valuemin>
							<valuemax>100</valuemax>
							<value>100</value>
						</parameter>
						<parameter>
							<parameterid>settingsvar2</parameterid>
							<name>   Bloom</name>
							<value>string</value>
						</parameter>
						<parameter>
							<parameterid>bloomon</parameterid>
							<name>Bloom On?</name>
							<value>TRUE</value>
						</parameter>
						<parameter>
							<parameterid>bloomcolour</parameterid>
							<name>Bloom Colour</name>
							<value>
								<alpha>255</alpha>
								<red>218</red>
								<green>224</green>
								<blue>254</blue>
							</value>
						</parameter>
						<parameter>
							<parameterid>bloomcolourfromimage</parameterid>
							<name>Use Image for Bloom Colour?</name>
							<value>FALSE</value>
						</parameter>
						<parameter>
							<parameterid>bloomintensity</parameterid>
							<name>Intensity</name>
							<valuemin>0</valuemin>
							<valuemax>100</valuemax>
							<value>90</value>
						</parameter>
						<parameter>
							<parameterid>bloomradius</parameterid>
							<name>Radius</name>
							<valuemin>0</valuemin>
							<valuemax>200</valuemax>
							<value>45</value>
						</parameter>
						<parameter>
							<parameterid>bloomfalloff</parameterid>
							<name>Fall Off</name>
							<valuemin>0</valuemin>
							<valuemax>100</valuemax>
							<value>75</value>
						</parameter>
						<parameter>
							<parameterid>bloomstarry</parameterid>
							<name>Starry</name>
							<valuemin>0</valuemin>
							<valuemax>100</valuemax>
							<value>10</value>
						</parameter>
						<parameter>
							<parameterid>bloomstarpoints</parameterid>
							<name>Star Points</name>
							<valuemin>0</valuemin>
							<valuemax>100</valuemax>
							<value>7</value>
						</parameter>
						<parameter>
							<parameterid>settingsvar3</parameterid>
							<name>   StarBurst</name>
							<value>string</value>
						</parameter>
						<parameter>
							<parameterid>starburston</parameterid>
							<name>StarBurst On?</name>
							<value>TRUE</value>
						</parameter>
						<parameter>
							<parameterid>starburstcolour</parameterid>
							<name>StarBurst Colour</name>
							<value>
								<alpha>255</alpha>
								<red>254</red>
								<green>224</green>
								<blue>218</blue>
							</value>
						</parameter>
						<parameter>
							<parameterid>starburstintensity</parameterid>
							<name>Intensity</name>
							<valuemin>0</valuemin>
							<valuemax>100</valuemax>
							<value>75</value>
						</parameter>
						<parameter>
							<parameterid>starburstradius</parameterid>
							<name>Radius</name>
							<valuemin>0</valuemin>
							<valuemax>150</valuemax>
							<value>75</value>
						</parameter>
						<parameter>
							<parameterid>starburststarpoints</parameterid>
							<name>Star Points</name>
							<valuemin>0</valuemin>
							<valuemax>200</valuemax>
							<value>90</value>
						</parameter>
						<parameter>
							<parameterid>starcentre</parameterid>
							<name>Centre Size</name>
							<valuemin>0</valuemin>
							<valuemax>100</valuemax>
							<value>75</value>
						</parameter>
						<parameter>
							<parameterid>starfalloff</parameterid>
							<name>Fall Off</name>
							<valuemin>0</valuemin>
							<valuemax>100</valuemax>
							<value>75</value>
						</parameter>
						<parameter>
							<parameterid>starburstrandom</parameterid>
							<name>Randomness</name>
							<valuemin>0</valuemin>
							<valuemax>4</valuemax>
							<value>0.4</value>
						</parameter>
						<parameter>
							<parameterid>settingsvar4</parameterid>
							<name>   Rainbow</name>
							<value>string</value>
						</parameter>
						<parameter>
							<parameterid>rainbowon</parameterid>
							<name>Rainbow On?</name>
							<value>TRUE</value>
						</parameter>
						<parameter>
							<parameterid>rainbowcolors</parameterid>
							<name>Colour Type</name>
							<valuemin>1</valuemin>
							<valuemax>2</valuemax>
							<valuelist>
								<valueentry>
									<name>Rainbow</name>
									<value>1</value>
								</valueentry>
								<valueentry>
									<name>User Colour</name>
									<value>2</value>
								</valueentry>
							</valuelist>
							<value>1</value>
						</parameter>
						<parameter>
							<parameterid>rainbowusercolor</parameterid>
							<name>User Colour</name>
							<value>
								<alpha>255</alpha>
								<red>230</red>
								<green>110</green>
								<blue>22</blue>
							</value>
						</parameter>
						<parameter>
							<parameterid>rainbowposition</parameterid>
							<name>Position</name>
							<valuemin>-200</valuemin>
							<valuemax>200</valuemax>
							<value>100</value>
						</parameter>
						<parameter>
							<parameterid>rainbowintensity</parameterid>
							<name>Intensity</name>
							<valuemin>0</valuemin>
							<valuemax>100</valuemax>
							<value>20</value>
						</parameter>
						<parameter>
							<parameterid>rainbowradius</parameterid>
							<name>Radius</name>
							<valuemin>0</valuemin>
							<valuemax>200</valuemax>
							<value>50</value>
						</parameter>
						<parameter>
							<parameterid>rainbowthickness</parameterid>
							<name>Thickness</name>
							<valuemin>0</valuemin>
							<valuemax>1</valuemax>
							<value>0.15</value>
						</parameter>
						<parameter>
							<parameterid>rainbowsharpness</parameterid>
							<name>Sharpness</name>
							<valuemin>0</valuemin>
							<valuemax>1</valuemax>
							<value>0.65</value>
						</parameter>
						<parameter>
							<parameterid>settingsvar5</parameterid>
							<name>   Spots</name>
							<value>string</value>
						</parameter>
						<parameter>
							<parameterid>spotson</parameterid>
							<name>Spots On?</name>
							<value>TRUE</value>
						</parameter>
						<parameter>
							<parameterid>spotsnumber</parameterid>
							<name>Number</name>
							<valuemin>0</valuemin>
							<valuemax>100</valuemax>
							<value>12</value>
						</parameter>
						<parameter>
							<parameterid>spotsintensity</parameterid>
							<name>Intensity</name>
							<valuemin>0</valuemin>
							<valuemax>100</valuemax>
							<value>80</value>
						</parameter>
						<parameter>
							<parameterid>spotsradius</parameterid>
							<name>Radius</name>
							<valuemin>0</valuemin>
							<valuemax>150</valuemax>
							<value>30</value>
						</parameter>
						<parameter>
							<parameterid>spotsdisky</parameterid>
							<name>Disky</name>
							<valuemin>0</valuemin>
							<valuemax>100</valuemax>
							<value>75</value>
						</parameter>
						<parameter>
							<parameterid>spotsringy</parameterid>
							<name>Ringy</name>
							<valuemin>0</valuemin>
							<valuemax>100</valuemax>
							<value>75</value>
						</parameter>
						<parameter>
							<parameterid>spotsblotty</parameterid>
							<name>Blotty</name>
							<valuemin>0</valuemin>
							<valuemax>100</valuemax>
							<value>75</value>
						</parameter>
						<parameter>
							<parameterid>spotsbloony</parameterid>
							<name>Bloony</name>
							<valuemin>0</valuemin>
							<valuemax>100</valuemax>
							<value>75</value>
						</parameter>
						<parameter>
							<parameterid>spotsvarycolour</parameterid>
							<name>Vary Colour</name>
							<valuemin>0</valuemin>
							<valuemax>100</valuemax>
							<value>31</value>
						</parameter>
						<parameter>
							<parameterid>spotsbasehue</parameterid>
							<name>Base Hue</name>
							<valuemin>0</valuemin>
							<valuemax>100</valuemax>
							<value>72</value>
						</parameter>
						<parameter>
							<parameterid>spotssaturation</parameterid>
							<name>Saturation</name>
							<valuemin>0</valuemin>
							<valuemax>100</valuemax>
							<value>20</value>
						</parameter>
						<parameter>
							<parameterid>copyright</parameterid>
							<name>©www.nattress.com</name>
							<value>string</value>
						</parameter>
					</effect>
				</transitionitem>
				<clipitem id="AA1447_01 ">
					<name>AA1447_01</name>
					<duration>1236</duration>
					<rate>
						<ntsc>FALSE</ntsc>
						<timebase>25</timebase>
					</rate>
					<in>40</in>
					<out>1083</out>
					<start>-1</start>
					<end>20364</end>
					<pixelaspectratio>Square</pixelaspectratio>
					<enabled>TRUE</enabled>
					<anamorphic>FALSE</anamorphic>
					<alphatype>none</alphatype>
					<masterclipid>AA1447_01 1</masterclipid>
					<logginginfo>
						<scene/>
						<shottake/>
						<lognote/>
						<good>FALSE</good>
					</logginginfo>
					<labels>
						<label2/>
					</labels>
					<comments>
						<mastercomment1/>
						<mastercomment2/>
						<mastercomment3/>
						<mastercomment4/>
					</comments>
					<file id="AA1447_01 2">
						<name>AA1447_01.mov</name>
						<pathurl>file://localhost/Volumes/Askepott/Prosjekter/DNPR637010_Kra%CC%8Akeklubben_TEM_011212/Video/MELLOMSTIKK/S01E%20Spor%20i%20sn%C3%B8en/Canon%20XF/AA1447_01.mov</pathurl>
						<rate>
							<timebase>25</timebase>
						</rate>
						<duration>1236</duration>
						<metadata>
							<storage>QuickTime</storage>
							<key>com.apple.proapps.originalFormat</key>
							<size>14</size>
							<type>UTF8</type>
							<value>Canon XF MPEG2</value>
						</metadata>
						<metadata>
							<storage>QuickTime</storage>
							<key>com.apple.quicktime.creationdate</key>
							<size>24</size>
							<type>UTF8</type>
							<value>2012-02-22T13:50:52+0100</value>
						</metadata>
						<metadata>
							<storage>QuickTime</storage>
							<key>com.apple.proapps.isGood</key>
							<size>4</size>
							<type>unsigned</type>
							<value>0</value>
						</metadata>
						<metadata>
							<storage>QuickTime</storage>
							<key>com.apple.finalcutstudio.media.uuid</key>
							<size>36</size>
							<type>UTF8</type>
							<value>952EBAAC-16C6-4EE1-844D-23341D54779C</value>
						</metadata>
						<metadata>
							<storage>QuickTime</storage>
							<key>com.apple.proapps.clipID</key>
							<size>36</size>
							<type>UTF8</type>
							<value>0A234998-7959-0580-0000-850001E01891</value>
						</metadata>
						<metadata>
							<storage>QuickTime</storage>
							<key>com.apple.proapps.reel</key>
							<size>8</size>
							<type>UTF8</type>
							<value>CANON XF</value>
						</metadata>
						<timecode>
							<rate>
								<timebase>25</timebase>
							</rate>
							<string>00:51:18:18</string>
							<frame>76968</frame>
							<displayformat>NDF</displayformat>
							<source>source</source>
							<reel>
								<name>CANON XF</name>
							</reel>
						</timecode>
						<media>
							<video>
								<duration>1236</duration>
								<samplecharacteristics>
									<width>1920</width>
									<height>1080</height>
								</samplecharacteristics>
							</video>
							<audio>
								<samplecharacteristics>
									<samplerate>48000</samplerate>
									<depth>16</depth>
								</samplecharacteristics>
								<channelcount>1</channelcount>
								<layout>mono</layout>
								<audiochannel>
									<sourcechannel>1</sourcechannel>
									<channellabel>discrete</channellabel>
								</audiochannel>
							</audio>
							<audio>
								<samplecharacteristics>
									<samplerate>48000</samplerate>
									<depth>16</depth>
								</samplecharacteristics>
								<channelcount>1</channelcount>
								<layout>mono</layout>
								<audiochannel>
									<sourcechannel>2</sourcechannel>
									<channellabel>discrete</channellabel>
								</audiochannel>
							</audio>
						</media>
					</file>
					<sourcetrack>
						<mediatype>video</mediatype>
					</sourcetrack>
					<link>
						<linkclipref>AA1447_01 </linkclipref>
						<mediatype>video</mediatype>
						<trackindex>1</trackindex>
						<clipindex>219</clipindex>
					</link>
					<link>
						<linkclipref>AA1447_01 3</linkclipref>
						<mediatype>audio</mediatype>
						<trackindex>1</trackindex>
						<clipindex>122</clipindex>
					</link>
					<link>
						<linkclipref>AA1447_01 4</linkclipref>
						<mediatype>audio</mediatype>
						<trackindex>2</trackindex>
						<clipindex>101</clipindex>
					</link>
					<fielddominance>upper</fielddominance>
					<itemhistory>
						<uuid>FD3469D1-E4D9-49A3-A0EA-11F98599D6F1</uuid>
					</itemhistory>
				</clipitem>
				<clipitem id="AA1448_01 ">
					<name>AA1448_01</name>
					<duration>456</duration>
					<rate>
						<ntsc>FALSE</ntsc>
						<timebase>25</timebase>
					</rate>
					<in>245</in>
					<out>310</out>
					<start>20364</start>
					<end>20429</end>
					<pixelaspectratio>Square</pixelaspectratio>
					<enabled>TRUE</enabled>
					<anamorphic>FALSE</anamorphic>
					<alphatype>none</alphatype>
					<masterclipid>AA1448_01 1</masterclipid>
					<logginginfo>
						<scene/>
						<shottake/>
						<lognote/>
						<good>FALSE</good>
					</logginginfo>
					<labels>
						<label2/>
					</labels>
					<comments>
						<mastercomment1/>
						<mastercomment2/>
						<mastercomment3/>
						<mastercomment4/>
					</comments>
					<file id="AA1448_01 2">
						<name>AA1448_01.mov</name>
						<pathurl>file://localhost/Volumes/Askepott/Prosjekter/DNPR637010_Kra%CC%8Akeklubben_TEM_011212/Video/MELLOMSTIKK/S01E%20Spor%20i%20sn%C3%B8en/Canon%20XF/AA1448_01.mov</pathurl>
						<rate>
							<timebase>25</timebase>
						</rate>
						<duration>456</duration>
						<metadata>
							<storage>QuickTime</storage>
							<key>com.apple.proapps.originalFormat</key>
							<size>14</size>
							<type>UTF8</type>
							<value>Canon XF MPEG2</value>
						</metadata>
						<metadata>
							<storage>QuickTime</storage>
							<key>com.apple.quicktime.creationdate</key>
							<size>24</size>
							<type>UTF8</type>
							<value>2012-02-22T13:53:33+0100</value>
						</metadata>
						<metadata>
							<storage>QuickTime</storage>
							<key>com.apple.proapps.isGood</key>
							<size>4</size>
							<type>unsigned</type>
							<value>0</value>
						</metadata>
						<metadata>
							<storage>QuickTime</storage>
							<key>com.apple.finalcutstudio.media.uuid</key>
							<size>36</size>
							<type>UTF8</type>
							<value>D740EAD3-30CD-4B93-8181-098A9CE9D527</value>
						</metadata>
						<metadata>
							<storage>QuickTime</storage>
							<key>com.apple.proapps.clipID</key>
							<size>36</size>
							<type>UTF8</type>
							<value>0A23690A-7959-0580-0000-850001E01891</value>
						</metadata>
						<metadata>
							<storage>QuickTime</storage>
							<key>com.apple.proapps.reel</key>
							<size>8</size>
							<type>UTF8</type>
							<value>CANON XF</value>
						</metadata>
						<timecode>
							<rate>
								<timebase>25</timebase>
							</rate>
							<string>00:52:08:04</string>
							<frame>78204</frame>
							<displayformat>NDF</displayformat>
							<source>source</source>
							<reel>
								<name>CANON XF</name>
							</reel>
						</timecode>
						<media>
							<video>
								<duration>456</duration>
								<samplecharacteristics>
									<width>1920</width>
									<height>1080</height>
								</samplecharacteristics>
							</video>
							<audio>
								<samplecharacteristics>
									<samplerate>48000</samplerate>
									<depth>16</depth>
								</samplecharacteristics>
								<channelcount>1</channelcount>
								<layout>mono</layout>
								<audiochannel>
									<sourcechannel>1</sourcechannel>
									<channellabel>discrete</channellabel>
								</audiochannel>
							</audio>
							<audio>
								<samplecharacteristics>
									<samplerate>48000</samplerate>
									<depth>16</depth>
								</samplecharacteristics>
								<channelcount>1</channelcount>
								<layout>mono</layout>
								<audiochannel>
									<sourcechannel>2</sourcechannel>
									<channellabel>discrete</channellabel>
								</audiochannel>
							</audio>
						</media>
					</file>
					<filter>
						<effect>
							<name>Basic Motion</name>
							<effectid>basic</effectid>
							<effectcategory>motion</effectcategory>
							<effecttype>motion</effecttype>
							<mediatype>video</mediatype>
							<parameter>
								<parameterid>scale</parameterid>
								<name>Scale</name>
								<valuemin>0</valuemin>
								<valuemax>1000</valuemax>
								<value>115</value>
							</parameter>
							<parameter>
								<parameterid>rotation</parameterid>
								<name>Rotation</name>
								<valuemin>-8640</valuemin>
								<valuemax>8640</valuemax>
								<value>0</value>
							</parameter>
							<parameter>
								<parameterid>center</parameterid>
								<name>Center</name>
								<keyframe>
									<when>260</when>
									<value>
										<horiz>-0.0770252</horiz>
										<vert>-0.0212264</vert>
									</value>
									<inscale>-0.75</inscale>
									<outscale>-0.75</outscale>
									<outbez>
										<horiz>0.0236015</horiz>
										<vert>1.53328</vert>
									</outbez>
								</keyframe>
								<keyframe>
									<when>328</when>
									<value>
										<horiz>-0.0743692</horiz>
										<vert>0.0731132</vert>
									</value>
									<inscale>-0.75</inscale>
									<inbez>
										<horiz>0.0298742</horiz>
										<vert>-1.5708</vert>
									</inbez>
									<outscale>-0.75</outscale>
								</keyframe>
								<interpolation>
									<name>FCPCurve</name>
								</interpolation>
							</parameter>
							<parameter>
								<parameterid>centerOffset</parameterid>
								<name>Anchor Point</name>
								<value>
									<horiz>0</horiz>
									<vert>0</vert>
								</value>
							</parameter>
						</effect>
					</filter>
					<filter>
						<enabled>FALSE</enabled>
						<effect>
							<name>Drop Shadow</name>
							<effectid>dropshadow</effectid>
							<effectcategory>motion</effectcategory>
							<effecttype>motion</effecttype>
							<mediatype>video</mediatype>
							<parameter>
								<parameterid>offset</parameterid>
								<name>offset</name>
								<valuemin>-100</valuemin>
								<valuemax>100</valuemax>
								<value>2</value>
							</parameter>
							<parameter>
								<parameterid>angle</parameterid>
								<name>angle</name>
								<valuemin>-720</valuemin>
								<valuemax>720</valuemax>
								<value>135</value>
							</parameter>
							<parameter>
								<parameterid>color</parameterid>
								<name>color</name>
								<value>
									<alpha>0</alpha>
									<red>0</red>
									<green>0</green>
									<blue>0</blue>
								</value>
							</parameter>
							<parameter>
								<parameterid>softness</parameterid>
								<name>softness</name>
								<valuemin>0</valuemin>
								<valuemax>100</valuemax>
								<value>10</value>
							</parameter>
							<parameter>
								<parameterid>opacity</parameterid>
								<name>opacity</name>
								<valuemin>0</valuemin>
								<valuemax>100</valuemax>
								<value>50</value>
							</parameter>
						</effect>
					</filter>
					<filter>
						<enabled>FALSE</enabled>
						<effect>
							<name>Motion Blur</name>
							<effectid>motionblur</effectid>
							<effectcategory>motion</effectcategory>
							<effecttype>motion</effecttype>
							<mediatype>video</mediatype>
							<parameter>
								<parameterid>duration</parameterid>
								<name>% Blur</name>
								<valuemin>0</valuemin>
								<valuemax>1000</valuemax>
								<value>500</value>
							</parameter>
							<parameter>
								<parameterid>samples</parameterid>
								<name>Samples</name>
								<valuemin>1</valuemin>
								<valuemax>16</valuemax>
								<value>4</value>
							</parameter>
						</effect>
					</filter>
					<filter>
						<effect>
							<name>Crop</name>
							<effectid>crop</effectid>
							<effectcategory>motion</effectcategory>
							<effecttype>motion</effecttype>
							<mediatype>video</mediatype>
							<parameter>
								<parameterid>left</parameterid>
								<name>left</name>
								<valuemin>0</valuemin>
								<valuemax>100</valuemax>
								<value>0</value>
							</parameter>
							<parameter>
								<parameterid>right</parameterid>
								<name>right</name>
								<valuemin>0</valuemin>
								<valuemax>100</valuemax>
								<value>0</value>
							</parameter>
							<parameter>
								<parameterid>top</parameterid>
								<name>top</name>
								<valuemin>0</valuemin>
								<valuemax>100</valuemax>
								<value>0</value>
							</parameter>
							<parameter>
								<parameterid>bottom</parameterid>
								<name>bottom</name>
								<valuemin>0</valuemin>
								<valuemax>100</valuemax>
								<value>0</value>
							</parameter>
							<parameter>
								<parameterid>edgefeather</parameterid>
								<name>edgefeather</name>
								<valuemin>0</valuemin>
								<valuemax>100</valuemax>
								<value>0</value>
							</parameter>
						</effect>
					</filter>
					<filter>
						<effect>
							<name>Distort</name>
							<effectid>deformation</effectid>
							<effectcategory>motion</effectcategory>
							<effecttype>motion</effecttype>
							<mediatype>video</mediatype>
							<parameter>
								<parameterid>ulcorner</parameterid>
								<name>Upper Left</name>
								<value>
									<horiz>-0.5</horiz>
									<vert>-0.5</vert>
								</value>
							</parameter>
							<parameter>
								<parameterid>urcorner</parameterid>
								<name>Upper Right</name>
								<value>
									<horiz>0.5</horiz>
									<vert>-0.5</vert>
								</value>
							</parameter>
							<parameter>
								<parameterid>lrcorner</parameterid>
								<name>Lower Right</name>
								<value>
									<horiz>0.5</horiz>
									<vert>0.5</vert>
								</value>
							</parameter>
							<parameter>
								<parameterid>llcorner</parameterid>
								<name>Lower Left</name>
								<value>
									<horiz>-0.5</horiz>
									<vert>0.5</vert>
								</value>
							</parameter>
							<parameter>
								<parameterid>aspect</parameterid>
								<name>Aspect</name>
								<valuemin>-10000</valuemin>
								<valuemax>10000</valuemax>
								<value>0</value>
							</parameter>
						</effect>
					</filter>
					<filter>
						<effect>
							<name>Opacity</name>
							<effectid>opacity</effectid>
							<effectcategory>motion</effectcategory>
							<effecttype>motion</effecttype>
							<mediatype>video</mediatype>
							<parameter>
								<parameterid>opacity</parameterid>
								<name>opacity</name>
								<valuemin>0</valuemin>
								<valuemax>100</valuemax>
								<value>100</value>
							</parameter>
						</effect>
					</filter>
					<sourcetrack>
						<mediatype>video</mediatype>
					</sourcetrack>
					<link>
						<linkclipref>AA1448_01 </linkclipref>
						<mediatype>video</mediatype>
						<trackindex>1</trackindex>
						<clipindex>220</clipindex>
					</link>
					<link>
						<linkclipref>AA1448_01 3</linkclipref>
						<mediatype>audio</mediatype>
						<trackindex>1</trackindex>
						<clipindex>123</clipindex>
					</link>
					<link>
						<linkclipref>AA1448_01 4</linkclipref>
						<mediatype>audio</mediatype>
						<trackindex>2</trackindex>
						<clipindex>102</clipindex>
					</link>
					<fielddominance>upper</fielddominance>
					<itemhistory>
						<uuid>8F5F5DA4-1918-44D5-8408-C55ED662603B</uuid>
					</itemhistory>
				</clipitem>
				<clipitem id="AA1454_01 ">
					<name>AA1454_01</name>
					<duration>1152</duration>
					<rate>
						<ntsc>FALSE</ntsc>
						<timebase>25</timebase>
					</rate>
					<in>86</in>
					<out>315</out>
					<start>20429</start>
					<end>20658</end>
					<pixelaspectratio>Square</pixelaspectratio>
					<enabled>TRUE</enabled>
					<anamorphic>FALSE</anamorphic>
					<alphatype>none</alphatype>
					<masterclipid>AA1454_01 1</masterclipid>
					<logginginfo>
						<scene/>
						<shottake/>
						<lognote/>
						<good>FALSE</good>
					</logginginfo>
					<labels>
						<label2/>
					</labels>
					<comments>
						<mastercomment1/>
						<mastercomment2/>
						<mastercomment3/>
						<mastercomment4/>
					</comments>
					<file id="AA1454_01 2">
						<name>AA1454_01.mov</name>
						<pathurl>file://localhost/Volumes/Askepott/Prosjekter/DNPR637010_Kra%CC%8Akeklubben_TEM_011212/Video/MELLOMSTIKK/S01E%20Spor%20i%20sn%C3%B8en/Canon%20XF/AA1454_01.mov</pathurl>
						<rate>
							<timebase>25</timebase>
						</rate>
						<duration>1152</duration>
						<metadata>
							<storage>QuickTime</storage>
							<key>com.apple.proapps.originalFormat</key>
							<size>14</size>
							<type>UTF8</type>
							<value>Canon XF MPEG2</value>
						</metadata>
						<metadata>
							<storage>QuickTime</storage>
							<key>com.apple.quicktime.creationdate</key>
							<size>24</size>
							<type>UTF8</type>
							<value>2012-02-22T14:14:58+0100</value>
						</metadata>
						<metadata>
							<storage>QuickTime</storage>
							<key>com.apple.proapps.isGood</key>
							<size>4</size>
							<type>unsigned</type>
							<value>0</value>
						</metadata>
						<metadata>
							<storage>QuickTime</storage>
							<key>com.apple.finalcutstudio.media.uuid</key>
							<size>36</size>
							<type>UTF8</type>
							<value>A616EACC-0690-4327-8B30-515DC65EF3DA</value>
						</metadata>
						<metadata>
							<storage>QuickTime</storage>
							<key>com.apple.proapps.clipID</key>
							<size>36</size>
							<type>UTF8</type>
							<value>0A246404-7959-0580-0000-850001E01891</value>
						</metadata>
						<metadata>
							<storage>QuickTime</storage>
							<key>com.apple.proapps.reel</key>
							<size>8</size>
							<type>UTF8</type>
							<value>CANON XF</value>
						</metadata>
						<timecode>
							<rate>
								<timebase>25</timebase>
							</rate>
							<string>00:53:38:22</string>
							<frame>80472</frame>
							<displayformat>NDF</displayformat>
							<source>source</source>
							<reel>
								<name>CANON XF</name>
							</reel>
						</timecode>
						<media>
							<video>
								<duration>1152</duration>
								<samplecharacteristics>
									<width>1920</width>
									<height>1080</height>
								</samplecharacteristics>
							</video>
							<audio>
								<samplecharacteristics>
									<samplerate>48000</samplerate>
									<depth>16</depth>
								</samplecharacteristics>
								<channelcount>1</channelcount>
								<layout>mono</layout>
								<audiochannel>
									<sourcechannel>1</sourcechannel>
									<channellabel>discrete</channellabel>
								</audiochannel>
							</audio>
							<audio>
								<samplecharacteristics>
									<samplerate>48000</samplerate>
									<depth>16</depth>
								</samplecharacteristics>
								<channelcount>1</channelcount>
								<layout>mono</layout>
								<audiochannel>
									<sourcechannel>2</sourcechannel>
									<channellabel>discrete</channellabel>
								</audiochannel>
							</audio>
						</media>
					</file>
					<filter>
						<effect>
							<name>Basic Motion</name>
							<effectid>basic</effectid>
							<effectcategory>motion</effectcategory>
							<effecttype>motion</effecttype>
							<mediatype>video</mediatype>
							<parameter>
								<parameterid>scale</parameterid>
								<name>Scale</name>
								<valuemin>0</valuemin>
								<valuemax>1000</valuemax>
								<value>107</value>
							</parameter>
							<parameter>
								<parameterid>rotation</parameterid>
								<name>Rotation</name>
								<valuemin>-8640</valuemin>
								<valuemax>8640</valuemax>
								<value>0</value>
							</parameter>
							<parameter>
								<parameterid>center</parameterid>
								<name>Center</name>
								<value>
									<horiz>-0.0265604</horiz>
									<vert>0.00943396</vert>
								</value>
							</parameter>
							<parameter>
								<parameterid>centerOffset</parameterid>
								<name>Anchor Point</name>
								<value>
									<horiz>0</horiz>
									<vert>0</vert>
								</value>
							</parameter>
						</effect>
					</filter>
					<filter>
						<enabled>FALSE</enabled>
						<effect>
							<name>Drop Shadow</name>
							<effectid>dropshadow</effectid>
							<effectcategory>motion</effectcategory>
							<effecttype>motion</effecttype>
							<mediatype>video</mediatype>
							<parameter>
								<parameterid>offset</parameterid>
								<name>offset</name>
								<valuemin>-100</valuemin>
								<valuemax>100</valuemax>
								<value>2</value>
							</parameter>
							<parameter>
								<parameterid>angle</parameterid>
								<name>angle</name>
								<valuemin>-720</valuemin>
								<valuemax>720</valuemax>
								<value>135</value>
							</parameter>
							<parameter>
								<parameterid>color</parameterid>
								<name>color</name>
								<value>
									<alpha>0</alpha>
									<red>0</red>
									<green>0</green>
									<blue>0</blue>
								</value>
							</parameter>
							<parameter>
								<parameterid>softness</parameterid>
								<name>softness</name>
								<valuemin>0</valuemin>
								<valuemax>100</valuemax>
								<value>10</value>
							</parameter>
							<parameter>
								<parameterid>opacity</parameterid>
								<name>opacity</name>
								<valuemin>0</valuemin>
								<valuemax>100</valuemax>
								<value>50</value>
							</parameter>
						</effect>
					</filter>
					<filter>
						<enabled>FALSE</enabled>
						<effect>
							<name>Motion Blur</name>
							<effectid>motionblur</effectid>
							<effectcategory>motion</effectcategory>
							<effecttype>motion</effecttype>
							<mediatype>video</mediatype>
							<parameter>
								<parameterid>duration</parameterid>
								<name>% Blur</name>
								<valuemin>0</valuemin>
								<valuemax>1000</valuemax>
								<value>500</value>
							</parameter>
							<parameter>
								<parameterid>samples</parameterid>
								<name>Samples</name>
								<valuemin>1</valuemin>
								<valuemax>16</valuemax>
								<value>4</value>
							</parameter>
						</effect>
					</filter>
					<filter>
						<effect>
							<name>Crop</name>
							<effectid>crop</effectid>
							<effectcategory>motion</effectcategory>
							<effecttype>motion</effecttype>
							<mediatype>video</mediatype>
							<parameter>
								<parameterid>left</parameterid>
								<name>left</name>
								<valuemin>0</valuemin>
								<valuemax>100</valuemax>
								<value>0</value>
							</parameter>
							<parameter>
								<parameterid>right</parameterid>
								<name>right</name>
								<valuemin>0</valuemin>
								<valuemax>100</valuemax>
								<value>0</value>
							</parameter>
							<parameter>
								<parameterid>top</parameterid>
								<name>top</name>
								<valuemin>0</valuemin>
								<valuemax>100</valuemax>
								<value>0</value>
							</parameter>
							<parameter>
								<parameterid>bottom</parameterid>
								<name>bottom</name>
								<valuemin>0</valuemin>
								<valuemax>100</valuemax>
								<value>0</value>
							</parameter>
							<parameter>
								<parameterid>edgefeather</parameterid>
								<name>edgefeather</name>
								<valuemin>0</valuemin>
								<valuemax>100</valuemax>
								<value>0</value>
							</parameter>
						</effect>
					</filter>
					<filter>
						<effect>
							<name>Distort</name>
							<effectid>deformation</effectid>
							<effectcategory>motion</effectcategory>
							<effecttype>motion</effecttype>
							<mediatype>video</mediatype>
							<parameter>
								<parameterid>ulcorner</parameterid>
								<name>Upper Left</name>
								<value>
									<horiz>-0.5</horiz>
									<vert>-0.5</vert>
								</value>
							</parameter>
							<parameter>
								<parameterid>urcorner</parameterid>
								<name>Upper Right</name>
								<value>
									<horiz>0.5</horiz>
									<vert>-0.5</vert>
								</value>
							</parameter>
							<parameter>
								<parameterid>lrcorner</parameterid>
								<name>Lower Right</name>
								<value>
									<horiz>0.5</horiz>
									<vert>0.5</vert>
								</value>
							</parameter>
							<parameter>
								<parameterid>llcorner</parameterid>
								<name>Lower Left</name>
								<value>
									<horiz>-0.5</horiz>
									<vert>0.5</vert>
								</value>
							</parameter>
							<parameter>
								<parameterid>aspect</parameterid>
								<name>Aspect</name>
								<valuemin>-10000</valuemin>
								<valuemax>10000</valuemax>
								<value>0</value>
							</parameter>
						</effect>
					</filter>
					<filter>
						<effect>
							<name>Opacity</name>
							<effectid>opacity</effectid>
							<effectcategory>motion</effectcategory>
							<effecttype>motion</effecttype>
							<mediatype>video</mediatype>
							<parameter>
								<parameterid>opacity</parameterid>
								<name>opacity</name>
								<valuemin>0</valuemin>
								<valuemax>100</valuemax>
								<value>100</value>
							</parameter>
						</effect>
					</filter>
					<sourcetrack>
						<mediatype>video</mediatype>
					</sourcetrack>
					<link>
						<linkclipref>AA1454_01 </linkclipref>
						<mediatype>video</mediatype>
						<trackindex>1</trackindex>
						<clipindex>221</clipindex>
					</link>
					<link>
						<linkclipref>AA1454_01 3</linkclipref>
						<mediatype>audio</mediatype>
						<trackindex>1</trackindex>
						<clipindex>124</clipindex>
					</link>
					<link>
						<linkclipref>AA1454_01 4</linkclipref>
						<mediatype>audio</mediatype>
						<trackindex>2</trackindex>
						<clipindex>103</clipindex>
					</link>
					<fielddominance>upper</fielddominance>
					<itemhistory>
						<uuid>A558600C-052A-4D46-AD26-580F0EE09478</uuid>
					</itemhistory>
				</clipitem>
				<clipitem id="AA1458_01 ">
					<name>AA1458_01</name>
					<duration>960</duration>
					<rate>
						<ntsc>FALSE</ntsc>
						<timebase>25</timebase>
					</rate>
					<in>123</in>
					<out>244</out>
					<start>20658</start>
					<end>20779</end>
					<pixelaspectratio>Square</pixelaspectratio>
					<enabled>TRUE</enabled>
					<anamorphic>FALSE</anamorphic>
					<alphatype>none</alphatype>
					<masterclipid>AA1458_01 1</masterclipid>
					<logginginfo>
						<scene/>
						<shottake/>
						<lognote/>
						<good>FALSE</good>
					</logginginfo>
					<labels>
						<label2/>
					</labels>
					<comments>
						<mastercomment1/>
						<mastercomment2/>
						<mastercomment3/>
						<mastercomment4/>
					</comments>
					<file id="AA1458_01 2">
						<name>AA1458_01.mov</name>
						<pathurl>file://localhost/Volumes/Askepott/Prosjekter/DNPR637010_Kra%CC%8Akeklubben_TEM_011212/Video/MELLOMSTIKK/S01E%20Spor%20i%20sn%C3%B8en/Canon%20XF/AA1458_01.mov</pathurl>
						<rate>
							<timebase>25</timebase>
						</rate>
						<duration>960</duration>
						<metadata>
							<storage>QuickTime</storage>
							<key>com.apple.proapps.originalFormat</key>
							<size>14</size>
							<type>UTF8</type>
							<value>Canon XF MPEG2</value>
						</metadata>
						<metadata>
							<storage>QuickTime</storage>
							<key>com.apple.quicktime.creationdate</key>
							<size>24</size>
							<type>UTF8</type>
							<value>2012-02-22T14:43:53+0100</value>
						</metadata>
						<metadata>
							<storage>QuickTime</storage>
							<key>com.apple.proapps.isGood</key>
							<size>4</size>
							<type>unsigned</type>
							<value>0</value>
						</metadata>
						<metadata>
							<storage>QuickTime</storage>
							<key>com.apple.finalcutstudio.media.uuid</key>
							<size>36</size>
							<type>UTF8</type>
							<value>8F9FC9FB-9CDA-40AD-9EAA-DA1D202F968B</value>
						</metadata>
						<metadata>
							<storage>QuickTime</storage>
							<key>com.apple.proapps.clipID</key>
							<size>36</size>
							<type>UTF8</type>
							<value>0A25B6E2-7959-0580-0000-850001E01891</value>
						</metadata>
						<metadata>
							<storage>QuickTime</storage>
							<key>com.apple.proapps.reel</key>
							<size>8</size>
							<type>UTF8</type>
							<value>CANON XF</value>
						</metadata>
						<timecode>
							<rate>
								<timebase>25</timebase>
							</rate>
							<string>00:55:56:16</string>
							<frame>83916</frame>
							<displayformat>NDF</displayformat>
							<source>source</source>
							<reel>
								<name>CANON XF</name>
							</reel>
						</timecode>
						<media>
							<video>
								<duration>960</duration>
								<samplecharacteristics>
									<width>1920</width>
									<height>1080</height>
								</samplecharacteristics>
							</video>
							<audio>
								<samplecharacteristics>
									<samplerate>48000</samplerate>
									<depth>16</depth>
								</samplecharacteristics>
								<channelcount>1</channelcount>
								<layout>mono</layout>
								<audiochannel>
									<sourcechannel>1</sourcechannel>
									<channellabel>discrete</channellabel>
								</audiochannel>
							</audio>
							<audio>
								<samplecharacteristics>
									<samplerate>48000</samplerate>
									<depth>16</depth>
								</samplecharacteristics>
								<channelcount>1</channelcount>
								<layout>mono</layout>
								<audiochannel>
									<sourcechannel>2</sourcechannel>
									<channellabel>discrete</channellabel>
								</audiochannel>
							</audio>
						</media>
					</file>
					<sourcetrack>
						<mediatype>video</mediatype>
					</sourcetrack>
					<link>
						<linkclipref>AA1458_01 </linkclipref>
						<mediatype>video</mediatype>
						<trackindex>1</trackindex>
						<clipindex>222</clipindex>
					</link>
					<link>
						<linkclipref>AA1458_01 3</linkclipref>
						<mediatype>audio</mediatype>
						<trackindex>1</trackindex>
						<clipindex>125</clipindex>
					</link>
					<link>
						<linkclipref>AA1458_01 4</linkclipref>
						<mediatype>audio</mediatype>
						<trackindex>2</trackindex>
						<clipindex>104</clipindex>
					</link>
					<fielddominance>upper</fielddominance>
					<itemhistory>
						<uuid>8BF0F7C0-1D70-48DA-ABCB-8030D0371AE5</uuid>
					</itemhistory>
				</clipitem>
				<clipitem id="AA1459_01 ">
					<name>AA1459_01</name>
					<duration>2304</duration>
					<rate>
						<ntsc>FALSE</ntsc>
						<timebase>25</timebase>
					</rate>
					<in>541</in>
					<out>744</out>
					<start>20779</start>
					<end>20982</end>
					<pixelaspectratio>Square</pixelaspectratio>
					<enabled>TRUE</enabled>
					<anamorphic>FALSE</anamorphic>
					<alphatype>none</alphatype>
					<masterclipid>AA1459_01 1</masterclipid>
					<logginginfo>
						<scene/>
						<shottake/>
						<lognote/>
						<good>FALSE</good>
					</logginginfo>
					<labels>
						<label2/>
					</labels>
					<comments>
						<mastercomment1/>
						<mastercomment2/>
						<mastercomment3/>
						<mastercomment4/>
					</comments>
					<file id="AA1459_01 2">
						<name>AA1459_01.mov</name>
						<pathurl>file://localhost/Volumes/Askepott/Prosjekter/DNPR637010_Kra%CC%8Akeklubben_TEM_011212/Video/MELLOMSTIKK/S01E%20Spor%20i%20sn%C3%B8en/Canon%20XF/AA1459_01.mov</pathurl>
						<rate>
							<timebase>25</timebase>
						</rate>
						<duration>2304</duration>
						<metadata>
							<storage>QuickTime</storage>
							<key>com.apple.proapps.originalFormat</key>
							<size>14</size>
							<type>UTF8</type>
							<value>Canon XF MPEG2</value>
						</metadata>
						<metadata>
							<storage>QuickTime</storage>
							<key>com.apple.quicktime.creationdate</key>
							<size>24</size>
							<type>UTF8</type>
							<value>2012-02-22T14:48:34+0100</value>
						</metadata>
						<metadata>
							<storage>QuickTime</storage>
							<key>com.apple.proapps.isGood</key>
							<size>4</size>
							<type>unsigned</type>
							<value>0</value>
						</metadata>
						<metadata>
							<storage>QuickTime</storage>
							<key>com.apple.finalcutstudio.media.uuid</key>
							<size>36</size>
							<type>UTF8</type>
							<value>66D4908D-9143-4A5F-B4A5-CE7E6610A85A</value>
						</metadata>
						<metadata>
							<storage>QuickTime</storage>
							<key>com.apple.proapps.clipID</key>
							<size>36</size>
							<type>UTF8</type>
							<value>0A25EDC4-7959-0580-0000-850001E01891</value>
						</metadata>
						<metadata>
							<storage>QuickTime</storage>
							<key>com.apple.proapps.reel</key>
							<size>8</size>
							<type>UTF8</type>
							<value>CANON XF</value>
						</metadata>
						<timecode>
							<rate>
								<timebase>25</timebase>
							</rate>
							<string>00:56:35:01</string>
							<frame>84876</frame>
							<displayformat>NDF</displayformat>
							<source>source</source>
							<reel>
								<name>CANON XF</name>
							</reel>
						</timecode>
						<media>
							<video>
								<duration>2304</duration>
								<samplecharacteristics>
									<width>1920</width>
									<height>1080</height>
								</samplecharacteristics>
							</video>
							<audio>
								<samplecharacteristics>
									<samplerate>48000</samplerate>
									<depth>16</depth>
								</samplecharacteristics>
								<channelcount>1</channelcount>
								<layout>mono</layout>
								<audiochannel>
									<sourcechannel>1</sourcechannel>
									<channellabel>discrete</channellabel>
								</audiochannel>
							</audio>
							<audio>
								<samplecharacteristics>
									<samplerate>48000</samplerate>
									<depth>16</depth>
								</samplecharacteristics>
								<channelcount>1</channelcount>
								<layout>mono</layout>
								<audiochannel>
									<sourcechannel>2</sourcechannel>
									<channellabel>discrete</channellabel>
								</audiochannel>
							</audio>
						</media>
					</file>
					<sourcetrack>
						<mediatype>video</mediatype>
					</sourcetrack>
					<link>
						<linkclipref>AA1459_01 </linkclipref>
						<mediatype>video</mediatype>
						<trackindex>1</trackindex>
						<clipindex>223</clipindex>
					</link>
					<link>
						<linkclipref>AA1459_01 3</linkclipref>
						<mediatype>audio</mediatype>
						<trackindex>1</trackindex>
						<clipindex>126</clipindex>
					</link>
					<link>
						<linkclipref>AA1459_01 4</linkclipref>
						<mediatype>audio</mediatype>
						<trackindex>2</trackindex>
						<clipindex>105</clipindex>
					</link>
					<fielddominance>upper</fielddominance>
					<itemhistory>
						<uuid>E6C81897-9056-4DDD-9995-F29CDB6A5052</uuid>
					</itemhistory>
				</clipitem>
				<clipitem id="AA1458_01 5">
					<name>AA1458_01</name>
					<duration>960</duration>
					<rate>
						<ntsc>FALSE</ntsc>
						<timebase>25</timebase>
					</rate>
					<in>432</in>
					<out>694</out>
					<start>20982</start>
					<end>21244</end>
					<pixelaspectratio>Square</pixelaspectratio>
					<enabled>TRUE</enabled>
					<anamorphic>FALSE</anamorphic>
					<alphatype>none</alphatype>
					<masterclipid>AA1458_01 1</masterclipid>
					<logginginfo>
						<scene/>
						<shottake/>
						<lognote/>
						<good>FALSE</good>
					</logginginfo>
					<labels>
						<label2/>
					</labels>
					<comments>
						<mastercomment1/>
						<mastercomment2/>
						<mastercomment3/>
						<mastercomment4/>
					</comments>
					<file id="AA1458_01 2"/>
					<sourcetrack>
						<mediatype>video</mediatype>
					</sourcetrack>
					<link>
						<linkclipref>AA1458_01 5</linkclipref>
						<mediatype>video</mediatype>
						<trackindex>1</trackindex>
						<clipindex>224</clipindex>
					</link>
					<link>
						<linkclipref>AA1458_01 6</linkclipref>
						<mediatype>audio</mediatype>
						<trackindex>1</trackindex>
						<clipindex>127</clipindex>
					</link>
					<link>
						<linkclipref>AA1458_01 7</linkclipref>
						<mediatype>audio</mediatype>
						<trackindex>2</trackindex>
						<clipindex>106</clipindex>
					</link>
					<fielddominance>upper</fielddominance>
					<itemhistory>
						<uuid>AEEAD867-7B94-480B-A12A-5F8DADF7657B</uuid>
					</itemhistory>
				</clipitem>
				<clipitem id="AA1470_01 ">
					<name>AA1470_01</name>
					<duration>1368</duration>
					<rate>
						<ntsc>FALSE</ntsc>
						<timebase>25</timebase>
					</rate>
					<in>263</in>
					<out>333</out>
					<start>21244</start>
					<end>21314</end>
					<pixelaspectratio>Square</pixelaspectratio>
					<enabled>TRUE</enabled>
					<anamorphic>FALSE</anamorphic>
					<alphatype>none</alphatype>
					<masterclipid>AA1470_01 1</masterclipid>
					<logginginfo>
						<scene/>
						<shottake/>
						<lognote/>
						<good>FALSE</good>
					</logginginfo>
					<labels>
						<label2/>
					</labels>
					<comments>
						<mastercomment1/>
						<mastercomment2/>
						<mastercomment3/>
						<mastercomment4/>
					</comments>
					<file id="AA1470_01 2">
						<name>AA1470_01.mov</name>
						<pathurl>file://localhost/Volumes/Askepott/Prosjekter/DNPR637010_Kra%CC%8Akeklubben_TEM_011212/Video/MELLOMSTIKK/S01E%20Spor%20i%20sn%C3%B8en/Canon%20XF/AA1470_01.mov</pathurl>
						<rate>
							<timebase>25</timebase>
						</rate>
						<duration>1368</duration>
						<metadata>
							<storage>QuickTime</storage>
							<key>com.apple.proapps.originalFormat</key>
							<size>14</size>
							<type>UTF8</type>
							<value>Canon XF MPEG2</value>
						</metadata>
						<metadata>
							<storage>QuickTime</storage>
							<key>com.apple.quicktime.creationdate</key>
							<size>24</size>
							<type>UTF8</type>
							<value>2012-02-22T15:22:23+0100</value>
						</metadata>
						<metadata>
							<storage>QuickTime</storage>
							<key>com.apple.proapps.isGood</key>
							<size>4</size>
							<type>unsigned</type>
							<value>0</value>
						</metadata>
						<metadata>
							<storage>QuickTime</storage>
							<key>com.apple.finalcutstudio.media.uuid</key>
							<size>36</size>
							<type>UTF8</type>
							<value>6140930C-08B4-438C-9A17-4105B97EF516</value>
						</metadata>
						<metadata>
							<storage>QuickTime</storage>
							<key>com.apple.proapps.clipID</key>
							<size>36</size>
							<type>UTF8</type>
							<value>0A277A0E-7959-0580-0000-850001E01891</value>
						</metadata>
						<metadata>
							<storage>QuickTime</storage>
							<key>com.apple.proapps.reel</key>
							<size>8</size>
							<type>UTF8</type>
							<value>CANON XF</value>
						</metadata>
						<timecode>
							<rate>
								<timebase>25</timebase>
							</rate>
							<string>01:09:42:18</string>
							<frame>104568</frame>
							<displayformat>NDF</displayformat>
							<source>source</source>
							<reel>
								<name>CANON XF</name>
							</reel>
						</timecode>
						<media>
							<video>
								<duration>1368</duration>
								<samplecharacteristics>
									<width>1920</width>
									<height>1080</height>
								</samplecharacteristics>
							</video>
							<audio>
								<samplecharacteristics>
									<samplerate>48000</samplerate>
									<depth>16</depth>
								</samplecharacteristics>
								<channelcount>1</channelcount>
								<layout>mono</layout>
								<audiochannel>
									<sourcechannel>1</sourcechannel>
									<channellabel>discrete</channellabel>
								</audiochannel>
							</audio>
							<audio>
								<samplecharacteristics>
									<samplerate>48000</samplerate>
									<depth>16</depth>
								</samplecharacteristics>
								<channelcount>1</channelcount>
								<layout>mono</layout>
								<audiochannel>
									<sourcechannel>2</sourcechannel>
									<channellabel>discrete</channellabel>
								</audiochannel>
							</audio>
						</media>
					</file>
					<filter>
						<effect>
							<name>Basic Motion</name>
							<effectid>basic</effectid>
							<effectcategory>motion</effectcategory>
							<effecttype>motion</effecttype>
							<mediatype>video</mediatype>
							<parameter>
								<parameterid>scale</parameterid>
								<name>Scale</name>
								<valuemin>0</valuemin>
								<valuemax>1000</valuemax>
								<value>100</value>
							</parameter>
							<parameter>
								<parameterid>rotation</parameterid>
								<name>Rotation</name>
								<valuemin>-8640</valuemin>
								<valuemax>8640</valuemax>
								<value>0</value>
							</parameter>
							<parameter>
								<parameterid>center</parameterid>
								<name>Center</name>
								<value>
									<horiz>0</horiz>
									<vert>0</vert>
								</value>
							</parameter>
							<parameter>
								<parameterid>centerOffset</parameterid>
								<name>Anchor Point</name>
								<value>
									<horiz>0</horiz>
									<vert>0</vert>
								</value>
							</parameter>
						</effect>
					</filter>
					<filter>
						<enabled>FALSE</enabled>
						<effect>
							<name>Drop Shadow</name>
							<effectid>dropshadow</effectid>
							<effectcategory>motion</effectcategory>
							<effecttype>motion</effecttype>
							<mediatype>video</mediatype>
							<parameter>
								<parameterid>offset</parameterid>
								<name>offset</name>
								<valuemin>-100</valuemin>
								<valuemax>100</valuemax>
								<value>2</value>
							</parameter>
							<parameter>
								<parameterid>angle</parameterid>
								<name>angle</name>
								<valuemin>-720</valuemin>
								<valuemax>720</valuemax>
								<value>135</value>
							</parameter>
							<parameter>
								<parameterid>color</parameterid>
								<name>color</name>
								<value>
									<alpha>0</alpha>
									<red>0</red>
									<green>0</green>
									<blue>0</blue>
								</value>
							</parameter>
							<parameter>
								<parameterid>softness</parameterid>
								<name>softness</name>
								<valuemin>0</valuemin>
								<valuemax>100</valuemax>
								<value>10</value>
							</parameter>
							<parameter>
								<parameterid>opacity</parameterid>
								<name>opacity</name>
								<valuemin>0</valuemin>
								<valuemax>100</valuemax>
								<value>50</value>
							</parameter>
						</effect>
					</filter>
					<filter>
						<enabled>FALSE</enabled>
						<effect>
							<name>Motion Blur</name>
							<effectid>motionblur</effectid>
							<effectcategory>motion</effectcategory>
							<effecttype>motion</effecttype>
							<mediatype>video</mediatype>
							<parameter>
								<parameterid>duration</parameterid>
								<name>% Blur</name>
								<valuemin>0</valuemin>
								<valuemax>1000</valuemax>
								<value>500</value>
							</parameter>
							<parameter>
								<parameterid>samples</parameterid>
								<name>Samples</name>
								<valuemin>1</valuemin>
								<valuemax>16</valuemax>
								<value>4</value>
							</parameter>
						</effect>
					</filter>
					<filter>
						<effect>
							<name>Crop</name>
							<effectid>crop</effectid>
							<effectcategory>motion</effectcategory>
							<effecttype>motion</effecttype>
							<mediatype>video</mediatype>
							<parameter>
								<parameterid>left</parameterid>
								<name>left</name>
								<valuemin>0</valuemin>
								<valuemax>100</valuemax>
								<value>0</value>
							</parameter>
							<parameter>
								<parameterid>right</parameterid>
								<name>right</name>
								<valuemin>0</valuemin>
								<valuemax>100</valuemax>
								<value>0</value>
							</parameter>
							<parameter>
								<parameterid>top</parameterid>
								<name>top</name>
								<valuemin>0</valuemin>
								<valuemax>100</valuemax>
								<value>0</value>
							</parameter>
							<parameter>
								<parameterid>bottom</parameterid>
								<name>bottom</name>
								<valuemin>0</valuemin>
								<valuemax>100</valuemax>
								<value>0</value>
							</parameter>
							<parameter>
								<parameterid>edgefeather</parameterid>
								<name>edgefeather</name>
								<valuemin>0</valuemin>
								<valuemax>100</valuemax>
								<value>0</value>
							</parameter>
						</effect>
					</filter>
					<filter>
						<effect>
							<name>Distort</name>
							<effectid>deformation</effectid>
							<effectcategory>motion</effectcategory>
							<effecttype>motion</effecttype>
							<mediatype>video</mediatype>
							<parameter>
								<parameterid>ulcorner</parameterid>
								<name>Upper Left</name>
								<value>
									<horiz>-0.5</horiz>
									<vert>-0.5</vert>
								</value>
							</parameter>
							<parameter>
								<parameterid>urcorner</parameterid>
								<name>Upper Right</name>
								<value>
									<horiz>0.5</horiz>
									<vert>-0.5</vert>
								</value>
							</parameter>
							<parameter>
								<parameterid>lrcorner</parameterid>
								<name>Lower Right</name>
								<value>
									<horiz>0.5</horiz>
									<vert>0.5</vert>
								</value>
							</parameter>
							<parameter>
								<parameterid>llcorner</parameterid>
								<name>Lower Left</name>
								<value>
									<horiz>-0.5</horiz>
									<vert>0.5</vert>
								</value>
							</parameter>
							<parameter>
								<parameterid>aspect</parameterid>
								<name>Aspect</name>
								<valuemin>-10000</valuemin>
								<valuemax>10000</valuemax>
								<value>0</value>
							</parameter>
						</effect>
					</filter>
					<filter>
						<effect>
							<name>Opacity</name>
							<effectid>opacity</effectid>
							<effectcategory>motion</effectcategory>
							<effecttype>motion</effecttype>
							<mediatype>video</mediatype>
							<parameter>
								<parameterid>opacity</parameterid>
								<name>opacity</name>
								<valuemin>0</valuemin>
								<valuemax>100</valuemax>
								<value>100</value>
							</parameter>
						</effect>
					</filter>
					<sourcetrack>
						<mediatype>video</mediatype>
					</sourcetrack>
					<fielddominance>upper</fielddominance>
					<itemhistory>
						<uuid>CA21A747-4D1D-4FF1-A46D-22A404A472E8</uuid>
					</itemhistory>
				</clipitem>
				<clipitem id="AA1458_01 8">
					<name>AA1458_01</name>
					<duration>960</duration>
					<rate>
						<ntsc>FALSE</ntsc>
						<timebase>25</timebase>
					</rate>
					<in>764</in>
					<out>821</out>
					<start>21314</start>
					<end>21371</end>
					<pixelaspectratio>Square</pixelaspectratio>
					<enabled>TRUE</enabled>
					<anamorphic>FALSE</anamorphic>
					<alphatype>none</alphatype>
					<masterclipid>AA1458_01 1</masterclipid>
					<logginginfo>
						<scene/>
						<shottake/>
						<lognote/>
						<good>FALSE</good>
					</logginginfo>
					<labels>
						<label2/>
					</labels>
					<comments>
						<mastercomment1/>
						<mastercomment2/>
						<mastercomment3/>
						<mastercomment4/>
					</comments>
					<file id="AA1458_01 2"/>
					<sourcetrack>
						<mediatype>video</mediatype>
					</sourcetrack>
					<fielddominance>upper</fielddominance>
					<itemhistory>
						<uuid>7065C0F7-62CA-414B-9A37-510D40D860FA</uuid>
					</itemhistory>
				</clipitem>
				<clipitem id="AA1461_01 ">
					<name>AA1461_01</name>
					<duration>1452</duration>
					<rate>
						<ntsc>FALSE</ntsc>
						<timebase>25</timebase>
					</rate>
					<in>142</in>
					<out>380</out>
					<start>21371</start>
					<end>21609</end>
					<pixelaspectratio>Square</pixelaspectratio>
					<enabled>TRUE</enabled>
					<anamorphic>FALSE</anamorphic>
					<alphatype>none</alphatype>
					<masterclipid>AA1461_01 1</masterclipid>
					<logginginfo>
						<scene/>
						<shottake/>
						<lognote/>
						<good>FALSE</good>
					</logginginfo>
					<labels>
						<label2/>
					</labels>
					<comments>
						<mastercomment1/>
						<mastercomment2/>
						<mastercomment3/>
						<mastercomment4/>
					</comments>
					<file id="AA1461_01 2">
						<name>AA1461_01.mov</name>
						<pathurl>file://localhost/Volumes/Askepott/Prosjekter/DNPR637010_Kra%CC%8Akeklubben_TEM_011212/Video/MELLOMSTIKK/S01E%20Spor%20i%20sn%C3%B8en/Canon%20XF/AA1461_01.mov</pathurl>
						<rate>
							<timebase>25</timebase>
						</rate>
						<duration>1452</duration>
						<metadata>
							<storage>QuickTime</storage>
							<key>com.apple.proapps.originalFormat</key>
							<size>14</size>
							<type>UTF8</type>
							<value>Canon XF MPEG2</value>
						</metadata>
						<metadata>
							<storage>QuickTime</storage>
							<key>com.apple.quicktime.creationdate</key>
							<size>24</size>
							<type>UTF8</type>
							<value>2012-02-22T14:51:55+0100</value>
						</metadata>
						<metadata>
							<storage>QuickTime</storage>
							<key>com.apple.proapps.isGood</key>
							<size>4</size>
							<type>unsigned</type>
							<value>0</value>
						</metadata>
						<metadata>
							<storage>QuickTime</storage>
							<key>com.apple.finalcutstudio.media.uuid</key>
							<size>36</size>
							<type>UTF8</type>
							<value>A6FF8764-ECBE-4C2D-9902-4088CD11B539</value>
						</metadata>
						<metadata>
							<storage>QuickTime</storage>
							<key>com.apple.proapps.clipID</key>
							<size>36</size>
							<type>UTF8</type>
							<value>0A261506-7959-0580-0000-850001E01891</value>
						</metadata>
						<metadata>
							<storage>QuickTime</storage>
							<key>com.apple.proapps.reel</key>
							<size>8</size>
							<type>UTF8</type>
							<value>CANON XF</value>
						</metadata>
						<timecode>
							<rate>
								<timebase>25</timebase>
							</rate>
							<string>00:58:59:01</string>
							<frame>88476</frame>
							<displayformat>NDF</displayformat>
							<source>source</source>
							<reel>
								<name>CANON XF</name>
							</reel>
						</timecode>
						<media>
							<video>
								<duration>1452</duration>
								<samplecharacteristics>
									<width>1920</width>
									<height>1080</height>
								</samplecharacteristics>
							</video>
							<audio>
								<samplecharacteristics>
									<samplerate>48000</samplerate>
									<depth>16</depth>
								</samplecharacteristics>
								<channelcount>1</channelcount>
								<layout>mono</layout>
								<audiochannel>
									<sourcechannel>1</sourcechannel>
									<channellabel>discrete</channellabel>
								</audiochannel>
							</audio>
							<audio>
								<samplecharacteristics>
									<samplerate>48000</samplerate>
									<depth>16</depth>
								</samplecharacteristics>
								<channelcount>1</channelcount>
								<layout>mono</layout>
								<audiochannel>
									<sourcechannel>2</sourcechannel>
									<channellabel>discrete</channellabel>
								</audiochannel>
							</audio>
						</media>
					</file>
					<sourcetrack>
						<mediatype>video</mediatype>
					</sourcetrack>
					<link>
						<linkclipref>AA1461_01 </linkclipref>
						<mediatype>video</mediatype>
						<trackindex>1</trackindex>
						<clipindex>227</clipindex>
					</link>
					<link>
						<linkclipref>AA1461_01 3</linkclipref>
						<mediatype>audio</mediatype>
						<trackindex>1</trackindex>
						<clipindex>128</clipindex>
					</link>
					<link>
						<linkclipref>AA1461_01 4</linkclipref>
						<mediatype>audio</mediatype>
						<trackindex>2</trackindex>
						<clipindex>107</clipindex>
					</link>
					<fielddominance>upper</fielddominance>
					<itemhistory>
						<uuid>78CAB55B-EA9D-4385-88C5-0C8E29559E63</uuid>
					</itemhistory>
				</clipitem>
				<clipitem id="AA1463_01 ">
					<name>AA1463_01</name>
					<duration>2856</duration>
					<rate>
						<ntsc>FALSE</ntsc>
						<timebase>25</timebase>
					</rate>
					<in>843</in>
					<out>1127</out>
					<start>21609</start>
					<end>21893</end>
					<pixelaspectratio>Square</pixelaspectratio>
					<enabled>TRUE</enabled>
					<anamorphic>FALSE</anamorphic>
					<alphatype>none</alphatype>
					<masterclipid>AA1463_01 1</masterclipid>
					<logginginfo>
						<scene/>
						<shottake/>
						<lognote/>
						<good>FALSE</good>
					</logginginfo>
					<labels>
						<label2/>
					</labels>
					<comments>
						<mastercomment1/>
						<mastercomment2/>
						<mastercomment3/>
						<mastercomment4/>
					</comments>
					<file id="AA1463_01 2">
						<name>AA1463_01.mov</name>
						<pathurl>file://localhost/Volumes/Askepott/Prosjekter/DNPR637010_Kra%CC%8Akeklubben_TEM_011212/Video/MELLOMSTIKK/S01E%20Spor%20i%20sn%C3%B8en/Canon%20XF/AA1463_01.mov</pathurl>
						<rate>
							<timebase>25</timebase>
						</rate>
						<duration>2856</duration>
						<metadata>
							<storage>QuickTime</storage>
							<key>com.apple.proapps.originalFormat</key>
							<size>14</size>
							<type>UTF8</type>
							<value>Canon XF MPEG2</value>
						</metadata>
						<metadata>
							<storage>QuickTime</storage>
							<key>com.apple.quicktime.creationdate</key>
							<size>24</size>
							<type>UTF8</type>
							<value>2012-02-22T15:00:22+0100</value>
						</metadata>
						<metadata>
							<storage>QuickTime</storage>
							<key>com.apple.proapps.isGood</key>
							<size>4</size>
							<type>unsigned</type>
							<value>0</value>
						</metadata>
						<metadata>
							<storage>QuickTime</storage>
							<key>com.apple.finalcutstudio.media.uuid</key>
							<size>36</size>
							<type>UTF8</type>
							<value>9E1DADF3-F2F1-4308-9A41-1203BA992790</value>
						</metadata>
						<metadata>
							<storage>QuickTime</storage>
							<key>com.apple.proapps.clipID</key>
							<size>36</size>
							<type>UTF8</type>
							<value>0A26780C-7959-0580-0000-850001E01891</value>
						</metadata>
						<metadata>
							<storage>QuickTime</storage>
							<key>com.apple.proapps.reel</key>
							<size>8</size>
							<type>UTF8</type>
							<value>CANON XF</value>
						</metadata>
						<timecode>
							<rate>
								<timebase>25</timebase>
							</rate>
							<string>01:01:43:17</string>
							<frame>92592</frame>
							<displayformat>NDF</displayformat>
							<source>source</source>
							<reel>
								<name>CANON XF</name>
							</reel>
						</timecode>
						<media>
							<video>
								<duration>2856</duration>
								<samplecharacteristics>
									<width>1920</width>
									<height>1080</height>
								</samplecharacteristics>
							</video>
							<audio>
								<samplecharacteristics>
									<samplerate>48000</samplerate>
									<depth>16</depth>
								</samplecharacteristics>
								<channelcount>1</channelcount>
								<layout>mono</layout>
								<audiochannel>
									<sourcechannel>1</sourcechannel>
									<channellabel>discrete</channellabel>
								</audiochannel>
							</audio>
							<audio>
								<samplecharacteristics>
									<samplerate>48000</samplerate>
									<depth>16</depth>
								</samplecharacteristics>
								<channelcount>1</channelcount>
								<layout>mono</layout>
								<audiochannel>
									<sourcechannel>2</sourcechannel>
									<channellabel>discrete</channellabel>
								</audiochannel>
							</audio>
						</media>
					</file>
					<filter>
						<effect>
							<name>Opacity</name>
							<effectid>opacity</effectid>
							<effectcategory>motion</effectcategory>
							<effecttype>motion</effecttype>
							<mediatype>video</mediatype>
							<parameter>
								<parameterid>opacity</parameterid>
								<name>opacity</name>
								<valuemin>0</valuemin>
								<valuemax>100</valuemax>
								<value>100</value>
							</parameter>
						</effect>
					</filter>
					<sourcetrack>
						<mediatype>video</mediatype>
					</sourcetrack>
					<link>
						<linkclipref>AA1463_01 </linkclipref>
						<mediatype>video</mediatype>
						<trackindex>1</trackindex>
						<clipindex>228</clipindex>
					</link>
					<link>
						<linkclipref>AA1463_01 3</linkclipref>
						<mediatype>audio</mediatype>
						<trackindex>1</trackindex>
						<clipindex>129</clipindex>
					</link>
					<link>
						<linkclipref>AA1463_01 4</linkclipref>
						<mediatype>audio</mediatype>
						<trackindex>2</trackindex>
						<clipindex>108</clipindex>
					</link>
					<fielddominance>upper</fielddominance>
					<itemhistory>
						<uuid>739C40B5-126B-41AB-8C76-ED419FD31C10</uuid>
					</itemhistory>
				</clipitem>
				<clipitem id="AA1468_01 ">
					<name>AA1468_01</name>
					<duration>1980</duration>
					<rate>
						<ntsc>FALSE</ntsc>
						<timebase>25</timebase>
					</rate>
					<in>377</in>
					<out>435</out>
					<start>21893</start>
					<end>21951</end>
					<pixelaspectratio>Square</pixelaspectratio>
					<enabled>TRUE</enabled>
					<anamorphic>FALSE</anamorphic>
					<alphatype>none</alphatype>
					<masterclipid>AA1468_01 1</masterclipid>
					<logginginfo>
						<scene/>
						<shottake/>
						<lognote/>
						<good>FALSE</good>
					</logginginfo>
					<labels>
						<label2/>
					</labels>
					<comments>
						<mastercomment1/>
						<mastercomment2/>
						<mastercomment3/>
						<mastercomment4/>
					</comments>
					<file id="AA1468_01 2">
						<name>AA1468_01.mov</name>
						<pathurl>file://localhost/Volumes/Askepott/Prosjekter/DNPR637010_Kra%CC%8Akeklubben_TEM_011212/Video/MELLOMSTIKK/S01E%20Spor%20i%20sn%C3%B8en/Canon%20XF/AA1468_01.mov</pathurl>
						<rate>
							<timebase>25</timebase>
						</rate>
						<duration>1980</duration>
						<metadata>
							<storage>QuickTime</storage>
							<key>com.apple.proapps.originalFormat</key>
							<size>14</size>
							<type>UTF8</type>
							<value>Canon XF MPEG2</value>
						</metadata>
						<metadata>
							<storage>QuickTime</storage>
							<key>com.apple.quicktime.creationdate</key>
							<size>24</size>
							<type>UTF8</type>
							<value>2012-02-22T15:18:50+0100</value>
						</metadata>
						<metadata>
							<storage>QuickTime</storage>
							<key>com.apple.proapps.isGood</key>
							<size>4</size>
							<type>unsigned</type>
							<value>0</value>
						</metadata>
						<metadata>
							<storage>QuickTime</storage>
							<key>com.apple.finalcutstudio.media.uuid</key>
							<size>36</size>
							<type>UTF8</type>
							<value>14F6BD97-7117-4EF8-BA6B-A088193B655C</value>
						</metadata>
						<metadata>
							<storage>QuickTime</storage>
							<key>com.apple.proapps.clipID</key>
							<size>36</size>
							<type>UTF8</type>
							<value>0A275074-7959-0580-0000-850001E01891</value>
						</metadata>
						<metadata>
							<storage>QuickTime</storage>
							<key>com.apple.proapps.reel</key>
							<size>8</size>
							<type>UTF8</type>
							<value>CANON XF</value>
						</metadata>
						<timecode>
							<rate>
								<timebase>25</timebase>
							</rate>
							<string>01:07:09:15</string>
							<frame>100740</frame>
							<displayformat>NDF</displayformat>
							<source>source</source>
							<reel>
								<name>CANON XF</name>
							</reel>
						</timecode>
						<media>
							<video>
								<duration>1980</duration>
								<samplecharacteristics>
									<width>1920</width>
									<height>1080</height>
								</samplecharacteristics>
							</video>
							<audio>
								<samplecharacteristics>
									<samplerate>48000</samplerate>
									<depth>16</depth>
								</samplecharacteristics>
								<channelcount>1</channelcount>
								<layout>mono</layout>
								<audiochannel>
									<sourcechannel>1</sourcechannel>
									<channellabel>discrete</channellabel>
								</audiochannel>
							</audio>
							<audio>
								<samplecharacteristics>
									<samplerate>48000</samplerate>
									<depth>16</depth>
								</samplecharacteristics>
								<channelcount>1</channelcount>
								<layout>mono</layout>
								<audiochannel>
									<sourcechannel>2</sourcechannel>
									<channellabel>discrete</channellabel>
								</audiochannel>
							</audio>
						</media>
					</file>
					<sourcetrack>
						<mediatype>video</mediatype>
					</sourcetrack>
					<link>
						<linkclipref>AA1468_01 </linkclipref>
						<mediatype>video</mediatype>
						<trackindex>1</trackindex>
						<clipindex>229</clipindex>
					</link>
					<link>
						<linkclipref>AA1468_01 3</linkclipref>
						<mediatype>audio</mediatype>
						<trackindex>1</trackindex>
						<clipindex>130</clipindex>
					</link>
					<link>
						<linkclipref>AA1468_01 4</linkclipref>
						<mediatype>audio</mediatype>
						<trackindex>2</trackindex>
						<clipindex>109</clipindex>
					</link>
					<fielddominance>upper</fielddominance>
					<itemhistory>
						<uuid>11B5F732-B833-41F5-8DC1-B24136C014A3</uuid>
					</itemhistory>
				</clipitem>
				<clipitem id="AA1463_01 5">
					<name>AA1463_01</name>
					<duration>2856</duration>
					<rate>
						<ntsc>FALSE</ntsc>
						<timebase>25</timebase>
					</rate>
					<in>1176</in>
					<out>1248</out>
					<start>21951</start>
					<end>22023</end>
					<pixelaspectratio>Square</pixelaspectratio>
					<enabled>TRUE</enabled>
					<anamorphic>FALSE</anamorphic>
					<alphatype>none</alphatype>
					<masterclipid>AA1463_01 1</masterclipid>
					<logginginfo>
						<scene/>
						<shottake/>
						<lognote/>
						<good>FALSE</good>
					</logginginfo>
					<labels>
						<label2/>
					</labels>
					<comments>
						<mastercomment1/>
						<mastercomment2/>
						<mastercomment3/>
						<mastercomment4/>
					</comments>
					<file id="AA1463_01 2"/>
					<filter>
						<effect>
							<name>Opacity</name>
							<effectid>opacity</effectid>
							<effectcategory>motion</effectcategory>
							<effecttype>motion</effecttype>
							<mediatype>video</mediatype>
							<parameter>
								<parameterid>opacity</parameterid>
								<name>opacity</name>
								<valuemin>0</valuemin>
								<valuemax>100</valuemax>
								<value>100</value>
							</parameter>
						</effect>
					</filter>
					<sourcetrack>
						<mediatype>video</mediatype>
					</sourcetrack>
					<link>
						<linkclipref>AA1463_01 5</linkclipref>
						<mediatype>video</mediatype>
						<trackindex>1</trackindex>
						<clipindex>230</clipindex>
					</link>
					<link>
						<linkclipref>AA1463_01 6</linkclipref>
						<mediatype>audio</mediatype>
						<trackindex>1</trackindex>
						<clipindex>131</clipindex>
					</link>
					<link>
						<linkclipref>AA1463_01 7</linkclipref>
						<mediatype>audio</mediatype>
						<trackindex>2</trackindex>
						<clipindex>110</clipindex>
					</link>
					<fielddominance>upper</fielddominance>
					<itemhistory>
						<uuid>A8605BE1-61B6-4945-81A6-FBFB2E824877</uuid>
					</itemhistory>
				</clipitem>
				<clipitem id="AA1468_01 5">
					<name>AA1468_01</name>
					<duration>1980</duration>
					<rate>
						<ntsc>FALSE</ntsc>
						<timebase>25</timebase>
					</rate>
					<in>481</in>
					<out>519</out>
					<start>22023</start>
					<end>22061</end>
					<pixelaspectratio>Square</pixelaspectratio>
					<enabled>TRUE</enabled>
					<anamorphic>FALSE</anamorphic>
					<alphatype>none</alphatype>
					<masterclipid>AA1468_01 1</masterclipid>
					<logginginfo>
						<scene/>
						<shottake/>
						<lognote/>
						<good>FALSE</good>
					</logginginfo>
					<labels>
						<label2/>
					</labels>
					<comments>
						<mastercomment1/>
						<mastercomment2/>
						<mastercomment3/>
						<mastercomment4/>
					</comments>
					<file id="AA1468_01 2"/>
					<sourcetrack>
						<mediatype>video</mediatype>
					</sourcetrack>
					<fielddominance>upper</fielddominance>
					<itemhistory>
						<uuid>C105CBA5-4368-4F19-B28D-74FB50ACC86B</uuid>
					</itemhistory>
				</clipitem>
				<clipitem id="AA1467_01 ">
					<name>AA1467_01</name>
					<duration>1728</duration>
					<rate>
						<ntsc>FALSE</ntsc>
						<timebase>25</timebase>
					</rate>
					<in>222</in>
					<out>264</out>
					<start>22061</start>
					<end>22103</end>
					<pixelaspectratio>Square</pixelaspectratio>
					<enabled>TRUE</enabled>
					<anamorphic>FALSE</anamorphic>
					<alphatype>none</alphatype>
					<masterclipid>AA1467_01 1</masterclipid>
					<logginginfo>
						<scene/>
						<shottake/>
						<lognote/>
						<good>FALSE</good>
					</logginginfo>
					<labels>
						<label2/>
					</labels>
					<comments>
						<mastercomment1/>
						<mastercomment2/>
						<mastercomment3/>
						<mastercomment4/>
					</comments>
					<file id="AA1467_01 2">
						<name>AA1467_01.mov</name>
						<pathurl>file://localhost/Volumes/Askepott/Prosjekter/DNPR637010_Kra%CC%8Akeklubben_TEM_011212/Video/MELLOMSTIKK/S01E%20Spor%20i%20sn%C3%B8en/Canon%20XF/AA1467_01.mov</pathurl>
						<rate>
							<timebase>25</timebase>
						</rate>
						<duration>1728</duration>
						<metadata>
							<storage>QuickTime</storage>
							<key>com.apple.proapps.originalFormat</key>
							<size>14</size>
							<type>UTF8</type>
							<value>Canon XF MPEG2</value>
						</metadata>
						<metadata>
							<storage>QuickTime</storage>
							<key>com.apple.quicktime.creationdate</key>
							<size>24</size>
							<type>UTF8</type>
							<value>2012-02-22T15:13:14+0100</value>
						</metadata>
						<metadata>
							<storage>QuickTime</storage>
							<key>com.apple.proapps.isGood</key>
							<size>4</size>
							<type>unsigned</type>
							<value>0</value>
						</metadata>
						<metadata>
							<storage>QuickTime</storage>
							<key>com.apple.finalcutstudio.media.uuid</key>
							<size>36</size>
							<type>UTF8</type>
							<value>7A9A9E94-2F38-4EBE-A327-DF5E8F8D9E5E</value>
						</metadata>
						<metadata>
							<storage>QuickTime</storage>
							<key>com.apple.proapps.clipID</key>
							<size>36</size>
							<type>UTF8</type>
							<value>0A270ED4-7959-0580-0000-850001E01891</value>
						</metadata>
						<metadata>
							<storage>QuickTime</storage>
							<key>com.apple.proapps.reel</key>
							<size>8</size>
							<type>UTF8</type>
							<value>CANON XF</value>
						</metadata>
						<timecode>
							<rate>
								<timebase>25</timebase>
							</rate>
							<string>01:06:00:12</string>
							<frame>99012</frame>
							<displayformat>NDF</displayformat>
							<source>source</source>
							<reel>
								<name>CANON XF</name>
							</reel>
						</timecode>
						<media>
							<video>
								<duration>1728</duration>
								<samplecharacteristics>
									<width>1920</width>
									<height>1080</height>
								</samplecharacteristics>
							</video>
							<audio>
								<samplecharacteristics>
									<samplerate>48000</samplerate>
									<depth>16</depth>
								</samplecharacteristics>
								<channelcount>1</channelcount>
								<layout>mono</layout>
								<audiochannel>
									<sourcechannel>1</sourcechannel>
									<channellabel>discrete</channellabel>
								</audiochannel>
							</audio>
							<audio>
								<samplecharacteristics>
									<samplerate>48000</samplerate>
									<depth>16</depth>
								</samplecharacteristics>
								<channelcount>1</channelcount>
								<layout>mono</layout>
								<audiochannel>
									<sourcechannel>2</sourcechannel>
									<channellabel>discrete</channellabel>
								</audiochannel>
							</audio>
						</media>
					</file>
					<sourcetrack>
						<mediatype>video</mediatype>
					</sourcetrack>
					<link>
						<linkclipref>AA1467_01 </linkclipref>
						<mediatype>video</mediatype>
						<trackindex>1</trackindex>
						<clipindex>232</clipindex>
					</link>
					<link>
						<linkclipref>AA1467_01 3</linkclipref>
						<mediatype>audio</mediatype>
						<trackindex>2</trackindex>
						<clipindex>111</clipindex>
					</link>
					<fielddominance>upper</fielddominance>
					<itemhistory>
						<uuid>6F5B1877-C701-4670-AE42-844368EC7E99</uuid>
					</itemhistory>
				</clipitem>
				<clipitem id="AA1468_01 6">
					<name>AA1468_01</name>
					<duration>1980</duration>
					<rate>
						<ntsc>FALSE</ntsc>
						<timebase>25</timebase>
					</rate>
					<in>718</in>
					<out>766</out>
					<start>22103</start>
					<end>22151</end>
					<pixelaspectratio>Square</pixelaspectratio>
					<enabled>TRUE</enabled>
					<anamorphic>FALSE</anamorphic>
					<alphatype>none</alphatype>
					<masterclipid>AA1468_01 1</masterclipid>
					<logginginfo>
						<scene/>
						<shottake/>
						<lognote/>
						<good>FALSE</good>
					</logginginfo>
					<labels>
						<label2/>
					</labels>
					<comments>
						<mastercomment1/>
						<mastercomment2/>
						<mastercomment3/>
						<mastercomment4/>
					</comments>
					<file id="AA1468_01 2"/>
					<sourcetrack>
						<mediatype>video</mediatype>
					</sourcetrack>
					<link>
						<linkclipref>AA1468_01 6</linkclipref>
						<mediatype>video</mediatype>
						<trackindex>1</trackindex>
						<clipindex>233</clipindex>
					</link>
					<link>
						<linkclipref>AA1468_01 7</linkclipref>
						<mediatype>audio</mediatype>
						<trackindex>1</trackindex>
						<clipindex>132</clipindex>
					</link>
					<fielddominance>upper</fielddominance>
					<itemhistory>
						<uuid>14F98F11-8FFC-434B-85AB-5BB2FB9C031E</uuid>
					</itemhistory>
				</clipitem>
				<clipitem id="AA1467_01 4">
					<name>AA1467_01</name>
					<duration>1728</duration>
					<rate>
						<ntsc>FALSE</ntsc>
						<timebase>25</timebase>
					</rate>
					<in>312</in>
					<out>370</out>
					<start>22151</start>
					<end>22209</end>
					<pixelaspectratio>Square</pixelaspectratio>
					<enabled>TRUE</enabled>
					<anamorphic>FALSE</anamorphic>
					<alphatype>none</alphatype>
					<masterclipid>AA1467_01 1</masterclipid>
					<logginginfo>
						<scene/>
						<shottake/>
						<lognote/>
						<good>FALSE</good>
					</logginginfo>
					<labels>
						<label2/>
					</labels>
					<comments>
						<mastercomment1/>
						<mastercomment2/>
						<mastercomment3/>
						<mastercomment4/>
					</comments>
					<file id="AA1467_01 2"/>
					<sourcetrack>
						<mediatype>video</mediatype>
					</sourcetrack>
					<fielddominance>upper</fielddominance>
					<itemhistory>
						<uuid>498EF880-1DDF-449D-9B07-29AC83BE6660</uuid>
					</itemhistory>
				</clipitem>
				<clipitem id="AA1468_01 8">
					<name>AA1468_01</name>
					<duration>1980</duration>
					<rate>
						<ntsc>FALSE</ntsc>
						<timebase>25</timebase>
					</rate>
					<in>1147</in>
					<out>1302</out>
					<start>22209</start>
					<end>22364</end>
					<pixelaspectratio>Square</pixelaspectratio>
					<enabled>TRUE</enabled>
					<anamorphic>FALSE</anamorphic>
					<alphatype>none</alphatype>
					<masterclipid>AA1468_01 1</masterclipid>
					<logginginfo>
						<scene/>
						<shottake/>
						<lognote/>
						<good>FALSE</good>
					</logginginfo>
					<labels>
						<label2/>
					</labels>
					<comments>
						<mastercomment1/>
						<mastercomment2/>
						<mastercomment3/>
						<mastercomment4/>
					</comments>
					<file id="AA1468_01 2"/>
					<sourcetrack>
						<mediatype>video</mediatype>
					</sourcetrack>
					<link>
						<linkclipref>AA1468_01 8</linkclipref>
						<mediatype>video</mediatype>
						<trackindex>1</trackindex>
						<clipindex>235</clipindex>
					</link>
					<link>
						<linkclipref>AA1468_01 9</linkclipref>
						<mediatype>audio</mediatype>
						<trackindex>1</trackindex>
						<clipindex>134</clipindex>
					</link>
					<link>
						<linkclipref>AA1468_01 10</linkclipref>
						<mediatype>audio</mediatype>
						<trackindex>2</trackindex>
						<clipindex>112</clipindex>
					</link>
					<fielddominance>upper</fielddominance>
					<itemhistory>
						<uuid>293688C1-AE84-4A76-B5B7-573ABD1BB8E0</uuid>
					</itemhistory>
				</clipitem>
				<clipitem id="AA1467_01 5">
					<name>AA1467_01</name>
					<duration>1728</duration>
					<rate>
						<ntsc>FALSE</ntsc>
						<timebase>25</timebase>
					</rate>
					<in>891</in>
					<out>942</out>
					<start>22364</start>
					<end>22415</end>
					<pixelaspectratio>Square</pixelaspectratio>
					<enabled>TRUE</enabled>
					<anamorphic>FALSE</anamorphic>
					<alphatype>none</alphatype>
					<masterclipid>AA1467_01 1</masterclipid>
					<logginginfo>
						<scene/>
						<shottake/>
						<lognote/>
						<good>FALSE</good>
					</logginginfo>
					<labels>
						<label2/>
					</labels>
					<comments>
						<mastercomment1/>
						<mastercomment2/>
						<mastercomment3/>
						<mastercomment4/>
					</comments>
					<file id="AA1467_01 2"/>
					<sourcetrack>
						<mediatype>video</mediatype>
					</sourcetrack>
					<link>
						<linkclipref>AA1467_01 5</linkclipref>
						<mediatype>video</mediatype>
						<trackindex>1</trackindex>
						<clipindex>236</clipindex>
					</link>
					<link>
						<linkclipref>AA1467_01 6</linkclipref>
						<mediatype>audio</mediatype>
						<trackindex>1</trackindex>
						<clipindex>135</clipindex>
					</link>
					<link>
						<linkclipref>AA1467_01 7</linkclipref>
						<mediatype>audio</mediatype>
						<trackindex>2</trackindex>
						<clipindex>113</clipindex>
					</link>
					<fielddominance>upper</fielddominance>
					<itemhistory>
						<uuid>22EB967C-37A9-4FC7-8359-9AA97C5BE7E6</uuid>
					</itemhistory>
				</clipitem>
				<clipitem id="AA1469_01 ">
					<name>AA1469_01</name>
					<duration>1848</duration>
					<rate>
						<ntsc>FALSE</ntsc>
						<timebase>25</timebase>
					</rate>
					<in>507</in>
					<out>589</out>
					<start>22415</start>
					<end>22497</end>
					<pixelaspectratio>Square</pixelaspectratio>
					<enabled>TRUE</enabled>
					<anamorphic>FALSE</anamorphic>
					<alphatype>none</alphatype>
					<masterclipid>AA1469_01 1</masterclipid>
					<logginginfo>
						<scene/>
						<shottake/>
						<lognote/>
						<good>FALSE</good>
					</logginginfo>
					<labels>
						<label2/>
					</labels>
					<comments>
						<mastercomment1/>
						<mastercomment2/>
						<mastercomment3/>
						<mastercomment4/>
					</comments>
					<file id="AA1469_01 2">
						<name>AA1469_01.mov</name>
						<pathurl>file://localhost/Volumes/Askepott/Prosjekter/DNPR637010_Kra%CC%8Akeklubben_TEM_011212/Video/MELLOMSTIKK/S01E%20Spor%20i%20sn%C3%B8en/Canon%20XF/AA1469_01.mov</pathurl>
						<rate>
							<timebase>25</timebase>
						</rate>
						<duration>1848</duration>
						<metadata>
							<storage>QuickTime</storage>
							<key>com.apple.proapps.originalFormat</key>
							<size>14</size>
							<type>UTF8</type>
							<value>Canon XF MPEG2</value>
						</metadata>
						<metadata>
							<storage>QuickTime</storage>
							<key>com.apple.quicktime.creationdate</key>
							<size>24</size>
							<type>UTF8</type>
							<value>2012-02-22T15:20:18+0100</value>
						</metadata>
						<metadata>
							<storage>QuickTime</storage>
							<key>com.apple.proapps.isGood</key>
							<size>4</size>
							<type>unsigned</type>
							<value>0</value>
						</metadata>
						<metadata>
							<storage>QuickTime</storage>
							<key>com.apple.finalcutstudio.media.uuid</key>
							<size>36</size>
							<type>UTF8</type>
							<value>2DAFD29D-87F9-450E-AD58-34E4FCB748E0</value>
						</metadata>
						<metadata>
							<storage>QuickTime</storage>
							<key>com.apple.proapps.clipID</key>
							<size>36</size>
							<type>UTF8</type>
							<value>0A2761A4-7959-0580-0000-850001E01891</value>
						</metadata>
						<metadata>
							<storage>QuickTime</storage>
							<key>com.apple.proapps.reel</key>
							<size>8</size>
							<type>UTF8</type>
							<value>CANON XF</value>
						</metadata>
						<timecode>
							<rate>
								<timebase>25</timebase>
							</rate>
							<string>01:08:28:20</string>
							<frame>102720</frame>
							<displayformat>NDF</displayformat>
							<source>source</source>
							<reel>
								<name>CANON XF</name>
							</reel>
						</timecode>
						<media>
							<video>
								<duration>1848</duration>
								<samplecharacteristics>
									<width>1920</width>
									<height>1080</height>
								</samplecharacteristics>
							</video>
							<audio>
								<samplecharacteristics>
									<samplerate>48000</samplerate>
									<depth>16</depth>
								</samplecharacteristics>
								<channelcount>1</channelcount>
								<layout>mono</layout>
								<audiochannel>
									<sourcechannel>1</sourcechannel>
									<channellabel>discrete</channellabel>
								</audiochannel>
							</audio>
							<audio>
								<samplecharacteristics>
									<samplerate>48000</samplerate>
									<depth>16</depth>
								</samplecharacteristics>
								<channelcount>1</channelcount>
								<layout>mono</layout>
								<audiochannel>
									<sourcechannel>2</sourcechannel>
									<channellabel>discrete</channellabel>
								</audiochannel>
							</audio>
						</media>
					</file>
					<sourcetrack>
						<mediatype>video</mediatype>
					</sourcetrack>
					<link>
						<linkclipref>AA1469_01 </linkclipref>
						<mediatype>video</mediatype>
						<trackindex>1</trackindex>
						<clipindex>237</clipindex>
					</link>
					<link>
						<linkclipref>AA1469_01 3</linkclipref>
						<mediatype>audio</mediatype>
						<trackindex>1</trackindex>
						<clipindex>136</clipindex>
					</link>
					<link>
						<linkclipref>AA1469_01 4</linkclipref>
						<mediatype>audio</mediatype>
						<trackindex>2</trackindex>
						<clipindex>114</clipindex>
					</link>
					<fielddominance>upper</fielddominance>
					<itemhistory>
						<uuid>64351C7A-ED59-425F-A3F7-7E0420070D80</uuid>
					</itemhistory>
				</clipitem>
				<clipitem id="AA1463_01 8">
					<name>AA1463_01</name>
					<duration>2856</duration>
					<rate>
						<ntsc>FALSE</ntsc>
						<timebase>25</timebase>
					</rate>
					<in>2051</in>
					<out>2150</out>
					<start>22497</start>
					<end>22596</end>
					<pixelaspectratio>Square</pixelaspectratio>
					<enabled>TRUE</enabled>
					<anamorphic>FALSE</anamorphic>
					<alphatype>none</alphatype>
					<masterclipid>AA1463_01 1</masterclipid>
					<logginginfo>
						<scene/>
						<shottake/>
						<lognote/>
						<good>FALSE</good>
					</logginginfo>
					<labels>
						<label2/>
					</labels>
					<comments>
						<mastercomment1/>
						<mastercomment2/>
						<mastercomment3/>
						<mastercomment4/>
					</comments>
					<file id="AA1463_01 2"/>
					<filter>
						<effect>
							<name>Opacity</name>
							<effectid>opacity</effectid>
							<effectcategory>motion</effectcategory>
							<effecttype>motion</effecttype>
							<mediatype>video</mediatype>
							<parameter>
								<parameterid>opacity</parameterid>
								<name>opacity</name>
								<valuemin>0</valuemin>
								<valuemax>100</valuemax>
								<value>100</value>
							</parameter>
						</effect>
					</filter>
					<sourcetrack>
						<mediatype>video</mediatype>
					</sourcetrack>
					<link>
						<linkclipref>AA1463_01 8</linkclipref>
						<mediatype>video</mediatype>
						<trackindex>1</trackindex>
						<clipindex>238</clipindex>
					</link>
					<link>
						<linkclipref>AA1463_01 9</linkclipref>
						<mediatype>audio</mediatype>
						<trackindex>1</trackindex>
						<clipindex>137</clipindex>
					</link>
					<link>
						<linkclipref>AA1463_01 10</linkclipref>
						<mediatype>audio</mediatype>
						<trackindex>2</trackindex>
						<clipindex>115</clipindex>
					</link>
					<fielddominance>upper</fielddominance>
					<itemhistory>
						<uuid>D9DF467C-8937-41C4-9557-6D22A3BD187D</uuid>
					</itemhistory>
				</clipitem>
				<clipitem id="AA1469_01 5">
					<name>AA1469_01</name>
					<duration>1848</duration>
					<rate>
						<ntsc>FALSE</ntsc>
						<timebase>25</timebase>
					</rate>
					<in>1167</in>
					<out>1233</out>
					<start>22596</start>
					<end>22662</end>
					<pixelaspectratio>Square</pixelaspectratio>
					<enabled>TRUE</enabled>
					<anamorphic>FALSE</anamorphic>
					<alphatype>none</alphatype>
					<masterclipid>AA1469_01 1</masterclipid>
					<logginginfo>
						<scene/>
						<shottake/>
						<lognote/>
						<good>FALSE</good>
					</logginginfo>
					<labels>
						<label2/>
					</labels>
					<comments>
						<mastercomment1/>
						<mastercomment2/>
						<mastercomment3/>
						<mastercomment4/>
					</comments>
					<file id="AA1469_01 2"/>
					<sourcetrack>
						<mediatype>video</mediatype>
					</sourcetrack>
					<fielddominance>upper</fielddominance>
					<itemhistory>
						<uuid>CD0F80D6-0951-4B88-85FB-E948FEF0243C</uuid>
					</itemhistory>
				</clipitem>
				<clipitem id="AA1463_01 11">
					<name>AA1463_01</name>
					<duration>2856</duration>
					<rate>
						<ntsc>FALSE</ntsc>
						<timebase>25</timebase>
					</rate>
					<in>2218</in>
					<out>2337</out>
					<start>22662</start>
					<end>22781</end>
					<pixelaspectratio>Square</pixelaspectratio>
					<enabled>TRUE</enabled>
					<anamorphic>FALSE</anamorphic>
					<alphatype>none</alphatype>
					<masterclipid>AA1463_01 1</masterclipid>
					<logginginfo>
						<scene/>
						<shottake/>
						<lognote/>
						<good>FALSE</good>
					</logginginfo>
					<labels>
						<label2/>
					</labels>
					<comments>
						<mastercomment1/>
						<mastercomment2/>
						<mastercomment3/>
						<mastercomment4/>
					</comments>
					<file id="AA1463_01 2"/>
					<filter>
						<effect>
							<name>Opacity</name>
							<effectid>opacity</effectid>
							<effectcategory>motion</effectcategory>
							<effecttype>motion</effecttype>
							<mediatype>video</mediatype>
							<parameter>
								<parameterid>opacity</parameterid>
								<name>opacity</name>
								<valuemin>0</valuemin>
								<valuemax>100</valuemax>
								<value>100</value>
							</parameter>
						</effect>
					</filter>
					<sourcetrack>
						<mediatype>video</mediatype>
					</sourcetrack>
					<link>
						<linkclipref>AA1463_01 11</linkclipref>
						<mediatype>video</mediatype>
						<trackindex>1</trackindex>
						<clipindex>240</clipindex>
					</link>
					<link>
						<linkclipref>AA1463_01 12</linkclipref>
						<mediatype>audio</mediatype>
						<trackindex>1</trackindex>
						<clipindex>138</clipindex>
					</link>
					<link>
						<linkclipref>AA1463_01 13</linkclipref>
						<mediatype>audio</mediatype>
						<trackindex>2</trackindex>
						<clipindex>116</clipindex>
					</link>
					<fielddominance>upper</fielddominance>
					<itemhistory>
						<uuid>66B4A52D-8175-4B9A-8020-3F25BB90ADD3</uuid>
					</itemhistory>
				</clipitem>
				<clipitem id="AA1469_01 6">
					<name>AA1469_01</name>
					<duration>1848</duration>
					<rate>
						<ntsc>FALSE</ntsc>
						<timebase>25</timebase>
					</rate>
					<in>1330</in>
					<out>1439</out>
					<start>22781</start>
					<end>22890</end>
					<pixelaspectratio>Square</pixelaspectratio>
					<enabled>TRUE</enabled>
					<anamorphic>FALSE</anamorphic>
					<alphatype>none</alphatype>
					<masterclipid>AA1469_01 1</masterclipid>
					<logginginfo>
						<scene/>
						<shottake/>
						<lognote/>
						<good>FALSE</good>
					</logginginfo>
					<labels>
						<label2/>
					</labels>
					<comments>
						<mastercomment1/>
						<mastercomment2/>
						<mastercomment3/>
						<mastercomment4/>
					</comments>
					<file id="AA1469_01 2"/>
					<sourcetrack>
						<mediatype>video</mediatype>
					</sourcetrack>
					<link>
						<linkclipref>AA1469_01 6</linkclipref>
						<mediatype>video</mediatype>
						<trackindex>1</trackindex>
						<clipindex>241</clipindex>
					</link>
					<link>
						<linkclipref>AA1469_01 7</linkclipref>
						<mediatype>audio</mediatype>
						<trackindex>1</trackindex>
						<clipindex>139</clipindex>
					</link>
					<link>
						<linkclipref>AA1469_01 8</linkclipref>
						<mediatype>audio</mediatype>
						<trackindex>2</trackindex>
						<clipindex>117</clipindex>
					</link>
					<fielddominance>upper</fielddominance>
					<itemhistory>
						<uuid>3202D398-F2DC-4D99-A628-2E27343B8199</uuid>
					</itemhistory>
				</clipitem>
				<clipitem id="AA1463_01 14">
					<name>AA1463_01</name>
					<duration>2856</duration>
					<rate>
						<ntsc>FALSE</ntsc>
						<timebase>25</timebase>
					</rate>
					<in>2459</in>
					<out>2765</out>
					<start>22890</start>
					<end>-1</end>
					<pixelaspectratio>Square</pixelaspectratio>
					<enabled>TRUE</enabled>
					<anamorphic>FALSE</anamorphic>
					<alphatype>none</alphatype>
					<masterclipid>AA1463_01 1</masterclipid>
					<logginginfo>
						<scene/>
						<shottake/>
						<lognote/>
						<good>FALSE</good>
					</logginginfo>
					<labels>
						<label2/>
					</labels>
					<comments>
						<mastercomment1/>
						<mastercomment2/>
						<mastercomment3/>
						<mastercomment4/>
					</comments>
					<file id="AA1463_01 2"/>
					<filter>
						<effect>
							<name>Opacity</name>
							<effectid>opacity</effectid>
							<effectcategory>motion</effectcategory>
							<effecttype>motion</effecttype>
							<mediatype>video</mediatype>
							<parameter>
								<parameterid>opacity</parameterid>
								<name>opacity</name>
								<valuemin>0</valuemin>
								<valuemax>100</valuemax>
								<value>100</value>
							</parameter>
						</effect>
					</filter>
					<sourcetrack>
						<mediatype>video</mediatype>
					</sourcetrack>
					<link>
						<linkclipref>AA1463_01 14</linkclipref>
						<mediatype>video</mediatype>
						<trackindex>1</trackindex>
						<clipindex>242</clipindex>
					</link>
					<link>
						<linkclipref>AA1463_01 15</linkclipref>
						<mediatype>audio</mediatype>
						<trackindex>1</trackindex>
						<clipindex>140</clipindex>
					</link>
					<link>
						<linkclipref>AA1463_01 16</linkclipref>
						<mediatype>audio</mediatype>
						<trackindex>2</trackindex>
						<clipindex>118</clipindex>
					</link>
					<fielddominance>upper</fielddominance>
					<itemhistory>
						<uuid>B438F22E-5EA2-442D-9B97-EA3EDA619AF7</uuid>
					</itemhistory>
				</clipitem>
				<transitionitem>
					<rate>
						<ntsc>FALSE</ntsc>
						<timebase>25</timebase>
					</rate>
					<start>23171</start>
					<end>23196</end>
					<alignment>center</alignment>
					<effect>
						<name>G Lens Flare Musikkvideo</name>
						<effectcategory>Nattress Big Box Of Tricks</effectcategory>
						<effecttype>transition</effecttype>
						<mediatype>video</mediatype>
						<startratio>0</startratio>
						<endratio>1</endratio>
						<reverse>FALSE</reverse>
						<parameter>
							<parameterid>dispvar1</parameterid>
							<name>Display Settings</name>
							<value>string</value>
						</parameter>
						<parameter>
							<parameterid>inputvar1</parameterid>
							<name>Flare Position</name>
							<value>string</value>
						</parameter>
						<parameter>
							<parameterid>theangle</parameterid>
							<name>Transition Direction</name>
							<valuemin>-360</valuemin>
							<valuemax>360</valuemax>
							<value>270</value>
						</parameter>
						<parameter>
							<parameterid>transitionblendduration</parameterid>
							<name>Blend Duration</name>
							<valuemin>0</valuemin>
							<valuemax>100</valuemax>
							<value>50</value>
						</parameter>
						<parameter>
							<parameterid>settingsvar1</parameterid>
							<name>Flare Settings</name>
							<value>string</value>
						</parameter>
						<parameter>
							<parameterid>presets</parameterid>
							<name>Preset Select</name>
							<valuemin>1</valuemin>
							<valuemax>4</valuemax>
							<valuelist>
								<valueentry>
									<name>Custom Controls</name>
									<value>1</value>
								</valueentry>
								<valueentry>
									<name>Other End of the Rainbow</name>
									<value>2</value>
								</valueentry>
								<valueentry>
									<name>Photon</name>
									<value>3</value>
								</valueentry>
								<valueentry>
									<name>Gaudy</name>
									<value>4</value>
								</valueentry>
							</valuelist>
							<value>2</value>
						</parameter>
						<parameter>
							<parameterid>randomevolution</parameterid>
							<name>Randomness Evolution</name>
							<valuemin>0</valuemin>
							<valuemax>1</valuemax>
							<value>0.05</value>
						</parameter>
						<parameter>
							<parameterid>flareaspect</parameterid>
							<name>Aspect</name>
							<valuemin>0.1</valuemin>
							<valuemax>10</valuemax>
							<value>1</value>
						</parameter>
						<parameter>
							<parameterid>flareintensity</parameterid>
							<name>Overall Intensity</name>
							<valuemin>0</valuemin>
							<valuemax>400</valuemax>
							<value>300</value>
						</parameter>
						<parameter>
							<parameterid>therandomseed</parameterid>
							<name>Random Seed</name>
							<valuemin>0</valuemin>
							<valuemax>100</valuemax>
							<value>100</value>
						</parameter>
						<parameter>
							<parameterid>settingsvar2</parameterid>
							<name>   Bloom</name>
							<value>string</value>
						</parameter>
						<parameter>
							<parameterid>bloomon</parameterid>
							<name>Bloom On?</name>
							<value>TRUE</value>
						</parameter>
						<parameter>
							<parameterid>bloomcolour</parameterid>
							<name>Bloom Colour</name>
							<value>
								<alpha>255</alpha>
								<red>218</red>
								<green>224</green>
								<blue>254</blue>
							</value>
						</parameter>
						<parameter>
							<parameterid>bloomcolourfromimage</parameterid>
							<name>Use Image for Bloom Colour?</name>
							<value>FALSE</value>
						</parameter>
						<parameter>
							<parameterid>bloomintensity</parameterid>
							<name>Intensity</name>
							<valuemin>0</valuemin>
							<valuemax>100</valuemax>
							<value>90</value>
						</parameter>
						<parameter>
							<parameterid>bloomradius</parameterid>
							<name>Radius</name>
							<valuemin>0</valuemin>
							<valuemax>200</valuemax>
							<value>45</value>
						</parameter>
						<parameter>
							<parameterid>bloomfalloff</parameterid>
							<name>Fall Off</name>
							<valuemin>0</valuemin>
							<valuemax>100</valuemax>
							<value>75</value>
						</parameter>
						<parameter>
							<parameterid>bloomstarry</parameterid>
							<name>Starry</name>
							<valuemin>0</valuemin>
							<valuemax>100</valuemax>
							<value>10</value>
						</parameter>
						<parameter>
							<parameterid>bloomstarpoints</parameterid>
							<name>Star Points</name>
							<valuemin>0</valuemin>
							<valuemax>100</valuemax>
							<value>7</value>
						</parameter>
						<parameter>
							<parameterid>settingsvar3</parameterid>
							<name>   StarBurst</name>
							<value>string</value>
						</parameter>
						<parameter>
							<parameterid>starburston</parameterid>
							<name>StarBurst On?</name>
							<value>TRUE</value>
						</parameter>
						<parameter>
							<parameterid>starburstcolour</parameterid>
							<name>StarBurst Colour</name>
							<value>
								<alpha>255</alpha>
								<red>254</red>
								<green>224</green>
								<blue>218</blue>
							</value>
						</parameter>
						<parameter>
							<parameterid>starburstintensity</parameterid>
							<name>Intensity</name>
							<valuemin>0</valuemin>
							<valuemax>100</valuemax>
							<value>75</value>
						</parameter>
						<parameter>
							<parameterid>starburstradius</parameterid>
							<name>Radius</name>
							<valuemin>0</valuemin>
							<valuemax>150</valuemax>
							<value>75</value>
						</parameter>
						<parameter>
							<parameterid>starburststarpoints</parameterid>
							<name>Star Points</name>
							<valuemin>0</valuemin>
							<valuemax>200</valuemax>
							<value>90</value>
						</parameter>
						<parameter>
							<parameterid>starcentre</parameterid>
							<name>Centre Size</name>
							<valuemin>0</valuemin>
							<valuemax>100</valuemax>
							<value>75</value>
						</parameter>
						<parameter>
							<parameterid>starfalloff</parameterid>
							<name>Fall Off</name>
							<valuemin>0</valuemin>
							<valuemax>100</valuemax>
							<value>75</value>
						</parameter>
						<parameter>
							<parameterid>starburstrandom</parameterid>
							<name>Randomness</name>
							<valuemin>0</valuemin>
							<valuemax>4</valuemax>
							<value>0.4</value>
						</parameter>
						<parameter>
							<parameterid>settingsvar4</parameterid>
							<name>   Rainbow</name>
							<value>string</value>
						</parameter>
						<parameter>
							<parameterid>rainbowon</parameterid>
							<name>Rainbow On?</name>
							<value>TRUE</value>
						</parameter>
						<parameter>
							<parameterid>rainbowcolors</parameterid>
							<name>Colour Type</name>
							<valuemin>1</valuemin>
							<valuemax>2</valuemax>
							<valuelist>
								<valueentry>
									<name>Rainbow</name>
									<value>1</value>
								</valueentry>
								<valueentry>
									<name>User Colour</name>
									<value>2</value>
								</valueentry>
							</valuelist>
							<value>1</value>
						</parameter>
						<parameter>
							<parameterid>rainbowusercolor</parameterid>
							<name>User Colour</name>
							<value>
								<alpha>255</alpha>
								<red>230</red>
								<green>110</green>
								<blue>22</blue>
							</value>
						</parameter>
						<parameter>
							<parameterid>rainbowposition</parameterid>
							<name>Position</name>
							<valuemin>-200</valuemin>
							<valuemax>200</valuemax>
							<value>100</value>
						</parameter>
						<parameter>
							<parameterid>rainbowintensity</parameterid>
							<name>Intensity</name>
							<valuemin>0</valuemin>
							<valuemax>100</valuemax>
							<value>20</value>
						</parameter>
						<parameter>
							<parameterid>rainbowradius</parameterid>
							<name>Radius</name>
							<valuemin>0</valuemin>
							<valuemax>200</valuemax>
							<value>50</value>
						</parameter>
						<parameter>
							<parameterid>rainbowthickness</parameterid>
							<name>Thickness</name>
							<valuemin>0</valuemin>
							<valuemax>1</valuemax>
							<value>0.15</value>
						</parameter>
						<parameter>
							<parameterid>rainbowsharpness</parameterid>
							<name>Sharpness</name>
							<valuemin>0</valuemin>
							<valuemax>1</valuemax>
							<value>0.65</value>
						</parameter>
						<parameter>
							<parameterid>settingsvar5</parameterid>
							<name>   Spots</name>
							<value>string</value>
						</parameter>
						<parameter>
							<parameterid>spotson</parameterid>
							<name>Spots On?</name>
							<value>TRUE</value>
						</parameter>
						<parameter>
							<parameterid>spotsnumber</parameterid>
							<name>Number</name>
							<valuemin>0</valuemin>
							<valuemax>100</valuemax>
							<value>12</value>
						</parameter>
						<parameter>
							<parameterid>spotsintensity</parameterid>
							<name>Intensity</name>
							<valuemin>0</valuemin>
							<valuemax>100</valuemax>
							<value>80</value>
						</parameter>
						<parameter>
							<parameterid>spotsradius</parameterid>
							<name>Radius</name>
							<valuemin>0</valuemin>
							<valuemax>150</valuemax>
							<value>30</value>
						</parameter>
						<parameter>
							<parameterid>spotsdisky</parameterid>
							<name>Disky</name>
							<valuemin>0</valuemin>
							<valuemax>100</valuemax>
							<value>75</value>
						</parameter>
						<parameter>
							<parameterid>spotsringy</parameterid>
							<name>Ringy</name>
							<valuemin>0</valuemin>
							<valuemax>100</valuemax>
							<value>75</value>
						</parameter>
						<parameter>
							<parameterid>spotsblotty</parameterid>
							<name>Blotty</name>
							<valuemin>0</valuemin>
							<valuemax>100</valuemax>
							<value>75</value>
						</parameter>
						<parameter>
							<parameterid>spotsbloony</parameterid>
							<name>Bloony</name>
							<valuemin>0</valuemin>
							<valuemax>100</valuemax>
							<value>75</value>
						</parameter>
						<parameter>
							<parameterid>spotsvarycolour</parameterid>
							<name>Vary Colour</name>
							<valuemin>0</valuemin>
							<valuemax>100</valuemax>
							<value>31</value>
						</parameter>
						<parameter>
							<parameterid>spotsbasehue</parameterid>
							<name>Base Hue</name>
							<valuemin>0</valuemin>
							<valuemax>100</valuemax>
							<value>72</value>
						</parameter>
						<parameter>
							<parameterid>spotssaturation</parameterid>
							<name>Saturation</name>
							<valuemin>0</valuemin>
							<valuemax>100</valuemax>
							<value>20</value>
						</parameter>
						<parameter>
							<parameterid>copyright</parameterid>
							<name>©www.nattress.com</name>
							<value>string</value>
						</parameter>
					</effect>
				</transitionitem>
				<clipitem id="DYR10507_01 ">
					<name>DYR10507_01</name>
					<duration>695</duration>
					<rate>
						<ntsc>FALSE</ntsc>
						<timebase>25</timebase>
					</rate>
					<in>55</in>
					<out>112</out>
					<start>-1</start>
					<end>-1</end>
					<pixelaspectratio>Square</pixelaspectratio>
					<enabled>TRUE</enabled>
					<anamorphic>FALSE</anamorphic>
					<alphatype>none</alphatype>
					<masterclipid>DYR10507_01 1</masterclipid>
					<logginginfo>
						<scene/>
						<shottake/>
						<lognote/>
						<good>FALSE</good>
					</logginginfo>
					<labels>
						<label2/>
					</labels>
					<comments>
						<mastercomment1/>
						<mastercomment2/>
						<mastercomment3/>
						<mastercomment4/>
					</comments>
					<file id="DYR10507_01 2">
						<name>DYR10507_01.mov</name>
						<pathurl>file://localhost/Volumes/Askepott/Prosjekter/DNPR637010_Kra%CC%8Akeklubben_TEM_011212/Video/MUSIKKVIDEO/Vinter/EX-3/DYR10507_01.mov</pathurl>
						<rate>
							<timebase>25</timebase>
						</rate>
						<duration>695</duration>
						<metadata>
							<storage>QuickTime</storage>
							<key>com.sony.bprl.xdcamtransfer.version</key>
							<size>10</size>
							<type>UTF8</type>
							<value>2.12.0.631</value>
						</metadata>
						<metadata>
							<storage>QuickTime</storage>
							<key>org.smpte.mxf.package.material.packageid</key>
							<size>66</size>
							<type>UTF8</type>
							<value>0x060a2b340101010501010d431300000060da0f94375605dd08004602022f05f5</value>
						</metadata>
						<metadata>
							<storage>QuickTime</storage>
							<key>com.sony.professionaldisc.nonrealtimemeta.lastupdate</key>
							<size>25</size>
							<type>UTF8</type>
							<value>2011-03-17 14:53:19 +0100</value>
						</metadata>
						<metadata>
							<storage>QuickTime</storage>
							<key>com.sony.bprl.mxf.umid</key>
							<size>64</size>
							<type>UTF8</type>
							<value>060a2b340101010501010d431300000060da0f94375605dd08004602022f05f5</value>
						</metadata>
						<metadata>
							<storage>QuickTime</storage>
							<key>com.sony.bprl.mxf.nrtmetadata</key>
							<size>1991</size>
							<type>UTF8</type>
							<value>&lt;?xml version="1.0" encoding="UTF-8"?>&lt;NonRealTimeMeta xmlns="urn:schemas-professionalDisc:nonRealTimeMeta:ver.1.20" xmlns:lib="urn:schemas-professionalDisc:lib:ver.1.20" xmlns:xsi="http://www.w3.org/2001/XMLSchema-instance" lastUpdate="2011-03-17T14:53:19+01:00">&lt;TargetMaterial umidRef="060A2B340101010501010D431300000060DA0F94375605DD08004602022F05F5">&lt;/TargetMaterial>&lt;Duration value="695">&lt;/Duration>&lt;LtcChangeTable tcFps="25" halfStep="false">&lt;LtcChange frameCount="0" value="02462809" status="increment">&lt;/LtcChange>&lt;LtcChange frameCount="694" value="21132909" status="end">&lt;/LtcChange>&lt;/LtcChangeTable>&lt;CreationDate value="2011-03-17T14:52:50+01:00">&lt;/CreationDate>&lt;TypicalUbit value="0000000017061020">&lt;/TypicalUbit>&lt;BodyUmidBasicChangeTable>&lt;BodyUmidBasicChange frameCount="0" value="060A2B340101010501010D433300000060DA0F94375605DD08004602022F05F5" status="start">&lt;/BodyUmidBasicChange>&lt;/BodyUmidBasicChangeTable>&lt;BodyUmidWhenChangeTable>&lt;BodyUmidWhenChange frameCount="0" value="0400C404375605A5" status="increment">&lt;/BodyUmidWhenChange>&lt;BodyUmidWhenChange frameCount="694" value="84ADC404375605A5" status="end">&lt;/BodyUmidWhenChange>&lt;/BodyUmidWhenChangeTable>&lt;KlvPacketTable>&lt;KlvPacket key="060E2B34010101050301020A02000000" frameCount="0" lengthValue="095F5265635374617274" status="spot">&lt;/KlvPacket>&lt;/KlvPacketTable>&lt;VideoFormat>&lt;VideoRecPort port="DIRECT">&lt;/VideoRecPort>&lt;VideoFrame videoCodec="MPEG2HD35_1920_1080_MP@HL" captureFps="50.00i" recFps="50.00" formatFps="50i">&lt;/VideoFrame>&lt;VideoLayout pixel="1920" numOfVerticalLine="1080" aspectRatio="16:9">&lt;/VideoLayout>&lt;/VideoFormat>&lt;AudioFormat numOfChannel="2">&lt;AudioRecPort port="ANALOG" audioCodec="LPCM16" trackDst="CH1">&lt;/AudioRecPort>&lt;AudioRecPort port="ANALOG" audioCodec="LPCM16" trackDst="CH2">&lt;/AudioRecPort>&lt;/AudioFormat>&lt;Device manufacturer="Sony" modelName="PMW-EX3" serialNo="0401525">&lt;/Device>&lt;Lens modelName="VCL-614B2X">&lt;/Lens>&lt;RecordingMode type="normal" cacheRec="false">&lt;/RecordingMode>&lt;/NonRealTimeMeta>
							</value>
						</metadata>
						<metadata>
							<storage>QuickTime</storage>
							<key>com.apple.proapps.reel</key>
							<size>8</size>
							<type>UTF8</type>
							<value>Untitled</value>
						</metadata>
						<metadata>
							<storage>QuickTime</storage>
							<key>com.apple.proapps.clipID</key>
							<size>64</size>
							<type>UTF8</type>
							<value>060A2B340101010501010D431300000060DA0F94375605DD08004602022F05F5</value>
						</metadata>
						<metadata>
							<storage>QuickTime</storage>
							<key>com.apple.quicktime.information</key>
							<size>64</size>
							<type>UTF8</type>
							<value>060a2b340101010501010d431300000060da0f94375605dd08004602022f05f5</value>
						</metadata>
						<metadata>
							<storage>QuickTime</storage>
							<key>com.apple.proapps.originalFormat</key>
							<size>36</size>
							<type>UTF8</type>
							<value>Apple XDCAM EX 1080i50 (35 Mb/s VBR)</value>
						</metadata>
						<timecode>
							<rate>
								<timebase>25</timebase>
							</rate>
							<string>09:28:46:02</string>
							<frame>853152</frame>
							<displayformat>NDF</displayformat>
							<source>source</source>
							<reel>
								<name>Untitled</name>
							</reel>
						</timecode>
						<media>
							<video>
								<duration>695</duration>
								<samplecharacteristics>
									<width>1920</width>
									<height>1080</height>
								</samplecharacteristics>
							</video>
							<audio>
								<samplecharacteristics>
									<samplerate>48000</samplerate>
									<depth>16</depth>
								</samplecharacteristics>
								<channelcount>1</channelcount>
								<layout>mono</layout>
								<audiochannel>
									<sourcechannel>1</sourcechannel>
									<channellabel>discrete</channellabel>
								</audiochannel>
							</audio>
							<audio>
								<samplecharacteristics>
									<samplerate>48000</samplerate>
									<depth>16</depth>
								</samplecharacteristics>
								<channelcount>1</channelcount>
								<layout>mono</layout>
								<audiochannel>
									<sourcechannel>2</sourcechannel>
									<channellabel>discrete</channellabel>
								</audiochannel>
							</audio>
						</media>
					</file>
					<filter>
						<effect>
							<name>Basic Motion</name>
							<effectid>basic</effectid>
							<effectcategory>motion</effectcategory>
							<effecttype>motion</effecttype>
							<mediatype>video</mediatype>
							<parameter>
								<parameterid>scale</parameterid>
								<name>Scale</name>
								<valuemin>0</valuemin>
								<valuemax>1000</valuemax>
								<value>120</value>
							</parameter>
							<parameter>
								<parameterid>rotation</parameterid>
								<name>Rotation</name>
								<valuemin>-8640</valuemin>
								<valuemax>8640</valuemax>
								<value>0</value>
							</parameter>
							<parameter>
								<parameterid>center</parameterid>
								<name>Center</name>
								<value>
									<horiz>-0.0958333</horiz>
									<vert>-0.0925926</vert>
								</value>
							</parameter>
							<parameter>
								<parameterid>centerOffset</parameterid>
								<name>Anchor Point</name>
								<value>
									<horiz>0</horiz>
									<vert>0</vert>
								</value>
							</parameter>
						</effect>
					</filter>
					<filter>
						<enabled>FALSE</enabled>
						<effect>
							<name>Drop Shadow</name>
							<effectid>dropshadow</effectid>
							<effectcategory>motion</effectcategory>
							<effecttype>motion</effecttype>
							<mediatype>video</mediatype>
							<parameter>
								<parameterid>offset</parameterid>
								<name>offset</name>
								<valuemin>-100</valuemin>
								<valuemax>100</valuemax>
								<value>2</value>
							</parameter>
							<parameter>
								<parameterid>angle</parameterid>
								<name>angle</name>
								<valuemin>-720</valuemin>
								<valuemax>720</valuemax>
								<value>135</value>
							</parameter>
							<parameter>
								<parameterid>color</parameterid>
								<name>color</name>
								<value>
									<alpha>0</alpha>
									<red>0</red>
									<green>0</green>
									<blue>0</blue>
								</value>
							</parameter>
							<parameter>
								<parameterid>softness</parameterid>
								<name>softness</name>
								<valuemin>0</valuemin>
								<valuemax>100</valuemax>
								<value>10</value>
							</parameter>
							<parameter>
								<parameterid>opacity</parameterid>
								<name>opacity</name>
								<valuemin>0</valuemin>
								<valuemax>100</valuemax>
								<value>50</value>
							</parameter>
						</effect>
					</filter>
					<filter>
						<enabled>FALSE</enabled>
						<effect>
							<name>Motion Blur</name>
							<effectid>motionblur</effectid>
							<effectcategory>motion</effectcategory>
							<effecttype>motion</effecttype>
							<mediatype>video</mediatype>
							<parameter>
								<parameterid>duration</parameterid>
								<name>% Blur</name>
								<valuemin>0</valuemin>
								<valuemax>1000</valuemax>
								<value>500</value>
							</parameter>
							<parameter>
								<parameterid>samples</parameterid>
								<name>Samples</name>
								<valuemin>1</valuemin>
								<valuemax>16</valuemax>
								<value>4</value>
							</parameter>
						</effect>
					</filter>
					<filter>
						<effect>
							<name>Crop</name>
							<effectid>crop</effectid>
							<effectcategory>motion</effectcategory>
							<effecttype>motion</effecttype>
							<mediatype>video</mediatype>
							<parameter>
								<parameterid>left</parameterid>
								<name>left</name>
								<valuemin>0</valuemin>
								<valuemax>100</valuemax>
								<value>0</value>
							</parameter>
							<parameter>
								<parameterid>right</parameterid>
								<name>right</name>
								<valuemin>0</valuemin>
								<valuemax>100</valuemax>
								<value>0</value>
							</parameter>
							<parameter>
								<parameterid>top</parameterid>
								<name>top</name>
								<valuemin>0</valuemin>
								<valuemax>100</valuemax>
								<value>0</value>
							</parameter>
							<parameter>
								<parameterid>bottom</parameterid>
								<name>bottom</name>
								<valuemin>0</valuemin>
								<valuemax>100</valuemax>
								<value>0</value>
							</parameter>
							<parameter>
								<parameterid>edgefeather</parameterid>
								<name>edgefeather</name>
								<valuemin>0</valuemin>
								<valuemax>100</valuemax>
								<value>0</value>
							</parameter>
						</effect>
					</filter>
					<filter>
						<effect>
							<name>Distort</name>
							<effectid>deformation</effectid>
							<effectcategory>motion</effectcategory>
							<effecttype>motion</effecttype>
							<mediatype>video</mediatype>
							<parameter>
								<parameterid>ulcorner</parameterid>
								<name>Upper Left</name>
								<value>
									<horiz>-0.5</horiz>
									<vert>-0.5</vert>
								</value>
							</parameter>
							<parameter>
								<parameterid>urcorner</parameterid>
								<name>Upper Right</name>
								<value>
									<horiz>0.5</horiz>
									<vert>-0.5</vert>
								</value>
							</parameter>
							<parameter>
								<parameterid>lrcorner</parameterid>
								<name>Lower Right</name>
								<value>
									<horiz>0.5</horiz>
									<vert>0.5</vert>
								</value>
							</parameter>
							<parameter>
								<parameterid>llcorner</parameterid>
								<name>Lower Left</name>
								<value>
									<horiz>-0.5</horiz>
									<vert>0.5</vert>
								</value>
							</parameter>
							<parameter>
								<parameterid>aspect</parameterid>
								<name>Aspect</name>
								<valuemin>-10000</valuemin>
								<valuemax>10000</valuemax>
								<value>0</value>
							</parameter>
						</effect>
					</filter>
					<filter>
						<effect>
							<name>Opacity</name>
							<effectid>opacity</effectid>
							<effectcategory>motion</effectcategory>
							<effecttype>motion</effecttype>
							<mediatype>video</mediatype>
							<parameter>
								<parameterid>opacity</parameterid>
								<name>opacity</name>
								<valuemin>0</valuemin>
								<valuemax>100</valuemax>
								<value>100</value>
							</parameter>
						</effect>
					</filter>
					<sourcetrack>
						<mediatype>video</mediatype>
					</sourcetrack>
					<fielddominance>upper</fielddominance>
					<itemhistory>
						<uuid>30678F75-6E43-4DD0-A25A-B0F07A59FA0C</uuid>
					</itemhistory>
				</clipitem>
				<transitionitem>
					<rate>
						<ntsc>FALSE</ntsc>
						<timebase>25</timebase>
					</rate>
					<start>23213</start>
					<end>23228</end>
					<alignment>center</alignment>
					<effect>
						<name>Cross Dissolve</name>
						<effectid>Cross Dissolve</effectid>
						<effectcategory>Dissolve</effectcategory>
						<effecttype>transition</effecttype>
						<mediatype>video</mediatype>
						<wipecode>0</wipecode>
						<wipeaccuracy>100</wipeaccuracy>
						<startratio>0</startratio>
						<endratio>1</endratio>
						<reverse>FALSE</reverse>
					</effect>
				</transitionitem>
				<clipitem id="DYR10508_01 ">
					<name>DYR10508_01</name>
					<duration>282</duration>
					<rate>
						<ntsc>FALSE</ntsc>
						<timebase>25</timebase>
					</rate>
					<in>54</in>
					<out>102</out>
					<start>-1</start>
					<end>-1</end>
					<pixelaspectratio>Square</pixelaspectratio>
					<enabled>TRUE</enabled>
					<anamorphic>FALSE</anamorphic>
					<alphatype>none</alphatype>
					<masterclipid>DYR10508_01 1</masterclipid>
					<logginginfo>
						<scene/>
						<shottake/>
						<lognote/>
						<good>FALSE</good>
					</logginginfo>
					<labels>
						<label2/>
					</labels>
					<comments>
						<mastercomment1/>
						<mastercomment2/>
						<mastercomment3/>
						<mastercomment4/>
					</comments>
					<file id="DYR10508_01 2">
						<name>DYR10508_01.mov</name>
						<pathurl>file://localhost/Volumes/Askepott/Prosjekter/DNPR637010_Kra%CC%8Akeklubben_TEM_011212/Video/MUSIKKVIDEO/Vinter/EX-3/DYR10508_01.mov</pathurl>
						<rate>
							<timebase>25</timebase>
						</rate>
						<duration>282</duration>
						<metadata>
							<storage>QuickTime</storage>
							<key>com.sony.bprl.xdcamtransfer.version</key>
							<size>10</size>
							<type>UTF8</type>
							<value>2.12.0.631</value>
						</metadata>
						<metadata>
							<storage>QuickTime</storage>
							<key>org.smpte.mxf.package.material.packageid</key>
							<size>66</size>
							<type>UTF8</type>
							<value>0x060a2b340101010501010d4313000000c67a2994375605df08004602022f05f5</value>
						</metadata>
						<metadata>
							<storage>QuickTime</storage>
							<key>com.sony.professionaldisc.nonrealtimemeta.lastupdate</key>
							<size>25</size>
							<type>UTF8</type>
							<value>2011-03-17 14:53:37 +0100</value>
						</metadata>
						<metadata>
							<storage>QuickTime</storage>
							<key>com.sony.bprl.mxf.umid</key>
							<size>64</size>
							<type>UTF8</type>
							<value>060a2b340101010501010d4313000000c67a2994375605df08004602022f05f5</value>
						</metadata>
						<metadata>
							<storage>QuickTime</storage>
							<key>com.sony.bprl.mxf.nrtmetadata</key>
							<size>1991</size>
							<type>UTF8</type>
							<value>&lt;?xml version="1.0" encoding="UTF-8"?>&lt;NonRealTimeMeta xmlns="urn:schemas-professionalDisc:nonRealTimeMeta:ver.1.20" xmlns:lib="urn:schemas-professionalDisc:lib:ver.1.20" xmlns:xsi="http://www.w3.org/2001/XMLSchema-instance" lastUpdate="2011-03-17T14:53:37+01:00">&lt;TargetMaterial umidRef="060A2B340101010501010D4313000000C67A2994375605DF08004602022F05F5">&lt;/TargetMaterial>&lt;Duration value="282">&lt;/Duration>&lt;LtcChangeTable tcFps="25" halfStep="false">&lt;LtcChange frameCount="0" value="22132909" status="increment">&lt;/LtcChange>&lt;LtcChange frameCount="281" value="03252909" status="end">&lt;/LtcChange>&lt;/LtcChangeTable>&lt;CreationDate value="2011-03-17T14:53:24+01:00">&lt;/CreationDate>&lt;TypicalUbit value="0000000017061020">&lt;/TypicalUbit>&lt;BodyUmidBasicChangeTable>&lt;BodyUmidBasicChange frameCount="0" value="060A2B340101010501010D4333000000C67A2994375605DF08004602022F05F5" status="start">&lt;/BodyUmidBasicChange>&lt;/BodyUmidBasicChangeTable>&lt;BodyUmidWhenChangeTable>&lt;BodyUmidWhenChange frameCount="0" value="44D3C404375605A5" status="increment">&lt;/BodyUmidWhenChange>&lt;BodyUmidWhenChange frameCount="281" value="8419C504375605A5" status="end">&lt;/BodyUmidWhenChange>&lt;/BodyUmidWhenChangeTable>&lt;KlvPacketTable>&lt;KlvPacket key="060E2B34010101050301020A02000000" frameCount="0" lengthValue="095F5265635374617274" status="spot">&lt;/KlvPacket>&lt;/KlvPacketTable>&lt;VideoFormat>&lt;VideoRecPort port="DIRECT">&lt;/VideoRecPort>&lt;VideoFrame videoCodec="MPEG2HD35_1920_1080_MP@HL" captureFps="50.00i" recFps="50.00" formatFps="50i">&lt;/VideoFrame>&lt;VideoLayout pixel="1920" numOfVerticalLine="1080" aspectRatio="16:9">&lt;/VideoLayout>&lt;/VideoFormat>&lt;AudioFormat numOfChannel="2">&lt;AudioRecPort port="ANALOG" audioCodec="LPCM16" trackDst="CH1">&lt;/AudioRecPort>&lt;AudioRecPort port="ANALOG" audioCodec="LPCM16" trackDst="CH2">&lt;/AudioRecPort>&lt;/AudioFormat>&lt;Device manufacturer="Sony" modelName="PMW-EX3" serialNo="0401525">&lt;/Device>&lt;Lens modelName="VCL-614B2X">&lt;/Lens>&lt;RecordingMode type="normal" cacheRec="false">&lt;/RecordingMode>&lt;/NonRealTimeMeta>
							</value>
						</metadata>
						<metadata>
							<storage>QuickTime</storage>
							<key>com.apple.proapps.reel</key>
							<size>8</size>
							<type>UTF8</type>
							<value>Untitled</value>
						</metadata>
						<metadata>
							<storage>QuickTime</storage>
							<key>com.apple.proapps.clipID</key>
							<size>64</size>
							<type>UTF8</type>
							<value>060A2B340101010501010D4313000000C67A2994375605DF08004602022F05F5</value>
						</metadata>
						<metadata>
							<storage>QuickTime</storage>
							<key>com.apple.quicktime.information</key>
							<size>64</size>
							<type>UTF8</type>
							<value>060a2b340101010501010d4313000000c67a2994375605df08004602022f05f5</value>
						</metadata>
						<metadata>
							<storage>QuickTime</storage>
							<key>com.apple.proapps.originalFormat</key>
							<size>36</size>
							<type>UTF8</type>
							<value>Apple XDCAM EX 1080i50 (35 Mb/s VBR)</value>
						</metadata>
						<timecode>
							<rate>
								<timebase>25</timebase>
							</rate>
							<string>09:29:13:22</string>
							<frame>853847</frame>
							<displayformat>NDF</displayformat>
							<source>source</source>
							<reel>
								<name>Untitled</name>
							</reel>
						</timecode>
						<media>
							<video>
								<duration>282</duration>
								<samplecharacteristics>
									<width>1920</width>
									<height>1080</height>
								</samplecharacteristics>
							</video>
							<audio>
								<samplecharacteristics>
									<samplerate>48000</samplerate>
									<depth>16</depth>
								</samplecharacteristics>
								<channelcount>1</channelcount>
								<layout>mono</layout>
								<audiochannel>
									<sourcechannel>1</sourcechannel>
									<channellabel>discrete</channellabel>
								</audiochannel>
							</audio>
							<audio>
								<samplecharacteristics>
									<samplerate>48000</samplerate>
									<depth>16</depth>
								</samplecharacteristics>
								<channelcount>1</channelcount>
								<layout>mono</layout>
								<audiochannel>
									<sourcechannel>2</sourcechannel>
									<channellabel>discrete</channellabel>
								</audiochannel>
							</audio>
						</media>
					</file>
					<sourcetrack>
						<mediatype>video</mediatype>
					</sourcetrack>
					<fielddominance>upper</fielddominance>
					<itemhistory>
						<uuid>A3EB1022-9DCB-4B66-89F3-391926B01C5F</uuid>
					</itemhistory>
				</clipitem>
				<transitionitem>
					<rate>
						<ntsc>FALSE</ntsc>
						<timebase>25</timebase>
					</rate>
					<start>23246</start>
					<end>23261</end>
					<alignment>center</alignment>
					<effect>
						<name>Cross Dissolve</name>
						<effectid>Cross Dissolve</effectid>
						<effectcategory>Dissolve</effectcategory>
						<effecttype>transition</effecttype>
						<mediatype>video</mediatype>
						<wipecode>0</wipecode>
						<wipeaccuracy>100</wipeaccuracy>
						<startratio>0</startratio>
						<endratio>1</endratio>
						<reverse>FALSE</reverse>
					</effect>
				</transitionitem>
				<clipitem id="DYR10543_01 ">
					<name>DYR10543_01</name>
					<duration>165</duration>
					<rate>
						<ntsc>FALSE</ntsc>
						<timebase>25</timebase>
					</rate>
					<in>76</in>
					<out>113</out>
					<start>-1</start>
					<end>-1</end>
					<pixelaspectratio>Square</pixelaspectratio>
					<enabled>TRUE</enabled>
					<anamorphic>FALSE</anamorphic>
					<alphatype>none</alphatype>
					<masterclipid>DYR10543_01 1</masterclipid>
					<logginginfo>
						<scene/>
						<shottake/>
						<lognote/>
						<good>FALSE</good>
					</logginginfo>
					<labels>
						<label2/>
					</labels>
					<comments>
						<mastercomment1/>
						<mastercomment2/>
						<mastercomment3/>
						<mastercomment4/>
					</comments>
					<file id="DYR10543_01 2">
						<name>DYR10543_01.mov</name>
						<pathurl>file://localhost/Volumes/Askepott/Prosjekter/DNPR637010_Kra%CC%8Akeklubben_TEM_011212/Video/MUSIKKVIDEO/Vinter/EX-3/DYR10543_01.mov</pathurl>
						<rate>
							<timebase>25</timebase>
						</rate>
						<duration>165</duration>
						<metadata>
							<storage>QuickTime</storage>
							<key>com.sony.bprl.xdcamtransfer.version</key>
							<size>10</size>
							<type>UTF8</type>
							<value>2.12.0.631</value>
						</metadata>
						<metadata>
							<storage>QuickTime</storage>
							<key>org.smpte.mxf.package.material.packageid</key>
							<size>66</size>
							<type>UTF8</type>
							<value>0x060a2b340101010501010d4313000000b993b07f415605cf08004602022f05f5</value>
						</metadata>
						<metadata>
							<storage>QuickTime</storage>
							<key>com.sony.professionaldisc.nonrealtimemeta.lastupdate</key>
							<size>25</size>
							<type>UTF8</type>
							<value>2011-03-21 12:58:22 +0100</value>
						</metadata>
						<metadata>
							<storage>QuickTime</storage>
							<key>com.sony.bprl.mxf.umid</key>
							<size>64</size>
							<type>UTF8</type>
							<value>060a2b340101010501010d4313000000b993b07f415605cf08004602022f05f5</value>
						</metadata>
						<metadata>
							<storage>QuickTime</storage>
							<key>com.sony.bprl.mxf.nrtmetadata</key>
							<size>1991</size>
							<type>UTF8</type>
							<value>&lt;?xml version="1.0" encoding="UTF-8"?>&lt;NonRealTimeMeta xmlns="urn:schemas-professionalDisc:nonRealTimeMeta:ver.1.20" xmlns:lib="urn:schemas-professionalDisc:lib:ver.1.20" xmlns:xsi="http://www.w3.org/2001/XMLSchema-instance" lastUpdate="2011-03-21T12:58:22+01:00">&lt;TargetMaterial umidRef="060A2B340101010501010D4313000000B993B07F415605CF08004602022F05F5">&lt;/TargetMaterial>&lt;Duration value="165">&lt;/Duration>&lt;LtcChangeTable tcFps="25" halfStep="false">&lt;LtcChange frameCount="0" value="08044309" status="increment">&lt;/LtcChange>&lt;LtcChange frameCount="164" value="22104309" status="end">&lt;/LtcChange>&lt;/LtcChangeTable>&lt;CreationDate value="2011-03-21T12:58:15+01:00">&lt;/CreationDate>&lt;TypicalUbit value="0000000017061020">&lt;/TypicalUbit>&lt;BodyUmidBasicChangeTable>&lt;BodyUmidBasicChange frameCount="0" value="060A2B340101010501010D4333000000B993B07F415605CF08004602022F05F5" status="start">&lt;/BodyUmidBasicChange>&lt;/BodyUmidBasicChangeTable>&lt;BodyUmidWhenChangeTable>&lt;BodyUmidWhenChange frameCount="0" value="C4231C04415605A5" status="increment">&lt;/BodyUmidWhenChange>&lt;BodyUmidWhenChange frameCount="164" value="C44C1C04415605A5" status="end">&lt;/BodyUmidWhenChange>&lt;/BodyUmidWhenChangeTable>&lt;KlvPacketTable>&lt;KlvPacket key="060E2B34010101050301020A02000000" frameCount="0" lengthValue="095F5265635374617274" status="spot">&lt;/KlvPacket>&lt;/KlvPacketTable>&lt;VideoFormat>&lt;VideoRecPort port="DIRECT">&lt;/VideoRecPort>&lt;VideoFrame videoCodec="MPEG2HD35_1920_1080_MP@HL" captureFps="50.00i" recFps="50.00" formatFps="50i">&lt;/VideoFrame>&lt;VideoLayout pixel="1920" numOfVerticalLine="1080" aspectRatio="16:9">&lt;/VideoLayout>&lt;/VideoFormat>&lt;AudioFormat numOfChannel="2">&lt;AudioRecPort port="ANALOG" audioCodec="LPCM16" trackDst="CH1">&lt;/AudioRecPort>&lt;AudioRecPort port="ANALOG" audioCodec="LPCM16" trackDst="CH2">&lt;/AudioRecPort>&lt;/AudioFormat>&lt;Device manufacturer="Sony" modelName="PMW-EX3" serialNo="0401525">&lt;/Device>&lt;Lens modelName="VCL-614B2X">&lt;/Lens>&lt;RecordingMode type="normal" cacheRec="false">&lt;/RecordingMode>&lt;/NonRealTimeMeta>
							</value>
						</metadata>
						<metadata>
							<storage>QuickTime</storage>
							<key>com.apple.proapps.reel</key>
							<size>8</size>
							<type>UTF8</type>
							<value>Untitled</value>
						</metadata>
						<metadata>
							<storage>QuickTime</storage>
							<key>com.apple.proapps.clipID</key>
							<size>64</size>
							<type>UTF8</type>
							<value>060A2B340101010501010D4313000000B993B07F415605CF08004602022F05F5</value>
						</metadata>
						<metadata>
							<storage>QuickTime</storage>
							<key>com.apple.quicktime.information</key>
							<size>64</size>
							<type>UTF8</type>
							<value>060a2b340101010501010d4313000000b993b07f415605cf08004602022f05f5</value>
						</metadata>
						<metadata>
							<storage>QuickTime</storage>
							<key>com.apple.proapps.originalFormat</key>
							<size>36</size>
							<type>UTF8</type>
							<value>Apple XDCAM EX 1080i50 (35 Mb/s VBR)</value>
						</metadata>
						<timecode>
							<rate>
								<timebase>25</timebase>
							</rate>
							<string>09:43:04:08</string>
							<frame>874608</frame>
							<displayformat>NDF</displayformat>
							<source>source</source>
							<reel>
								<name>Untitled</name>
							</reel>
						</timecode>
						<media>
							<video>
								<duration>165</duration>
								<samplecharacteristics>
									<width>1920</width>
									<height>1080</height>
								</samplecharacteristics>
							</video>
							<audio>
								<samplecharacteristics>
									<samplerate>48000</samplerate>
									<depth>16</depth>
								</samplecharacteristics>
								<channelcount>1</channelcount>
								<layout>mono</layout>
								<audiochannel>
									<sourcechannel>1</sourcechannel>
									<channellabel>discrete</channellabel>
								</audiochannel>
							</audio>
							<audio>
								<samplecharacteristics>
									<samplerate>48000</samplerate>
									<depth>16</depth>
								</samplecharacteristics>
								<channelcount>1</channelcount>
								<layout>mono</layout>
								<audiochannel>
									<sourcechannel>2</sourcechannel>
									<channellabel>discrete</channellabel>
								</audiochannel>
							</audio>
						</media>
					</file>
					<sourcetrack>
						<mediatype>video</mediatype>
					</sourcetrack>
					<fielddominance>upper</fielddominance>
					<itemhistory>
						<uuid>C8C85FA0-3E3B-4CBC-9A52-065EC348C1D5</uuid>
					</itemhistory>
				</clipitem>
				<transitionitem>
					<rate>
						<ntsc>FALSE</ntsc>
						<timebase>25</timebase>
					</rate>
					<start>23268</start>
					<end>23283</end>
					<alignment>center</alignment>
					<effect>
						<name>Cross Dissolve</name>
						<effectid>Cross Dissolve</effectid>
						<effectcategory>Dissolve</effectcategory>
						<effecttype>transition</effecttype>
						<mediatype>video</mediatype>
						<wipecode>0</wipecode>
						<wipeaccuracy>100</wipeaccuracy>
						<startratio>0</startratio>
						<endratio>1</endratio>
						<reverse>FALSE</reverse>
					</effect>
				</transitionitem>
				<clipitem id="DYR10510_01 ">
					<name>DYR10510_01</name>
					<duration>301</duration>
					<rate>
						<ntsc>FALSE</ntsc>
						<timebase>25</timebase>
					</rate>
					<in>197</in>
					<out>237</out>
					<start>-1</start>
					<end>-1</end>
					<pixelaspectratio>Square</pixelaspectratio>
					<enabled>TRUE</enabled>
					<anamorphic>FALSE</anamorphic>
					<alphatype>none</alphatype>
					<masterclipid>DYR10510_01 1</masterclipid>
					<logginginfo>
						<scene/>
						<shottake/>
						<lognote/>
						<good>FALSE</good>
					</logginginfo>
					<labels>
						<label2/>
					</labels>
					<comments>
						<mastercomment1/>
						<mastercomment2/>
						<mastercomment3/>
						<mastercomment4/>
					</comments>
					<file id="DYR10510_01 2">
						<name>DYR10510_01.mov</name>
						<pathurl>file://localhost/Volumes/Askepott/Prosjekter/DNPR637010_Kra%CC%8Akeklubben_TEM_011212/Video/MUSIKKVIDEO/Vinter/EX-3/DYR10510_01.mov</pathurl>
						<rate>
							<timebase>25</timebase>
						</rate>
						<duration>301</duration>
						<metadata>
							<storage>QuickTime</storage>
							<key>com.sony.bprl.xdcamtransfer.version</key>
							<size>10</size>
							<type>UTF8</type>
							<value>2.12.0.631</value>
						</metadata>
						<metadata>
							<storage>QuickTime</storage>
							<key>org.smpte.mxf.package.material.packageid</key>
							<size>66</size>
							<type>UTF8</type>
							<value>0x060a2b340101010501010d4313000000e1075d94375605dd08004602022f05f5</value>
						</metadata>
						<metadata>
							<storage>QuickTime</storage>
							<key>com.sony.professionaldisc.nonrealtimemeta.lastupdate</key>
							<size>25</size>
							<type>UTF8</type>
							<value>2011-03-17 14:54:45 +0100</value>
						</metadata>
						<metadata>
							<storage>QuickTime</storage>
							<key>com.sony.bprl.mxf.umid</key>
							<size>64</size>
							<type>UTF8</type>
							<value>060a2b340101010501010d4313000000e1075d94375605dd08004602022f05f5</value>
						</metadata>
						<metadata>
							<storage>QuickTime</storage>
							<key>com.sony.bprl.mxf.nrtmetadata</key>
							<size>1991</size>
							<type>UTF8</type>
							<value>&lt;?xml version="1.0" encoding="UTF-8"?>&lt;NonRealTimeMeta xmlns="urn:schemas-professionalDisc:nonRealTimeMeta:ver.1.20" xmlns:lib="urn:schemas-professionalDisc:lib:ver.1.20" xmlns:xsi="http://www.w3.org/2001/XMLSchema-instance" lastUpdate="2011-03-17T14:54:45+01:00">&lt;TargetMaterial umidRef="060A2B340101010501010D4313000000E1075D94375605DD08004602022F05F5">&lt;/TargetMaterial>&lt;Duration value="301">&lt;/Duration>&lt;LtcChangeTable tcFps="25" halfStep="false">&lt;LtcChange frameCount="0" value="20382909" status="increment">&lt;/LtcChange>&lt;LtcChange frameCount="300" value="20502909" status="end">&lt;/LtcChange>&lt;/LtcChangeTable>&lt;CreationDate value="2011-03-17T14:54:32+01:00">&lt;/CreationDate>&lt;TypicalUbit value="0000000017061020">&lt;/TypicalUbit>&lt;BodyUmidBasicChangeTable>&lt;BodyUmidBasicChange frameCount="0" value="060A2B340101010501010D4333000000E1075D94375605DD08004602022F05F5" status="start">&lt;/BodyUmidBasicChange>&lt;/BodyUmidBasicChangeTable>&lt;BodyUmidWhenChangeTable>&lt;BodyUmidWhenChange frameCount="0" value="047CC604375605A5" status="increment">&lt;/BodyUmidWhenChange>&lt;BodyUmidWhenChange frameCount="300" value="04C7C604375605A5" status="end">&lt;/BodyUmidWhenChange>&lt;/BodyUmidWhenChangeTable>&lt;KlvPacketTable>&lt;KlvPacket key="060E2B34010101050301020A02000000" frameCount="0" lengthValue="095F5265635374617274" status="spot">&lt;/KlvPacket>&lt;/KlvPacketTable>&lt;VideoFormat>&lt;VideoRecPort port="DIRECT">&lt;/VideoRecPort>&lt;VideoFrame videoCodec="MPEG2HD35_1920_1080_MP@HL" captureFps="50.00i" recFps="50.00" formatFps="50i">&lt;/VideoFrame>&lt;VideoLayout pixel="1920" numOfVerticalLine="1080" aspectRatio="16:9">&lt;/VideoLayout>&lt;/VideoFormat>&lt;AudioFormat numOfChannel="2">&lt;AudioRecPort port="ANALOG" audioCodec="LPCM16" trackDst="CH1">&lt;/AudioRecPort>&lt;AudioRecPort port="ANALOG" audioCodec="LPCM16" trackDst="CH2">&lt;/AudioRecPort>&lt;/AudioFormat>&lt;Device manufacturer="Sony" modelName="PMW-EX3" serialNo="0401525">&lt;/Device>&lt;Lens modelName="VCL-614B2X">&lt;/Lens>&lt;RecordingMode type="normal" cacheRec="false">&lt;/RecordingMode>&lt;/NonRealTimeMeta>
							</value>
						</metadata>
						<metadata>
							<storage>QuickTime</storage>
							<key>com.apple.proapps.reel</key>
							<size>8</size>
							<type>UTF8</type>
							<value>Untitled</value>
						</metadata>
						<metadata>
							<storage>QuickTime</storage>
							<key>com.apple.proapps.clipID</key>
							<size>64</size>
							<type>UTF8</type>
							<value>060A2B340101010501010D4313000000E1075D94375605DD08004602022F05F5</value>
						</metadata>
						<metadata>
							<storage>QuickTime</storage>
							<key>com.apple.quicktime.information</key>
							<size>64</size>
							<type>UTF8</type>
							<value>060a2b340101010501010d4313000000e1075d94375605dd08004602022f05f5</value>
						</metadata>
						<metadata>
							<storage>QuickTime</storage>
							<key>com.apple.proapps.originalFormat</key>
							<size>36</size>
							<type>UTF8</type>
							<value>Apple XDCAM EX 1080i50 (35 Mb/s VBR)</value>
						</metadata>
						<timecode>
							<rate>
								<timebase>25</timebase>
							</rate>
							<string>09:29:38:20</string>
							<frame>854470</frame>
							<displayformat>NDF</displayformat>
							<source>source</source>
							<reel>
								<name>Untitled</name>
							</reel>
						</timecode>
						<media>
							<video>
								<duration>301</duration>
								<samplecharacteristics>
									<width>1920</width>
									<height>1080</height>
								</samplecharacteristics>
							</video>
							<audio>
								<samplecharacteristics>
									<samplerate>48000</samplerate>
									<depth>16</depth>
								</samplecharacteristics>
								<channelcount>1</channelcount>
								<layout>mono</layout>
								<audiochannel>
									<sourcechannel>1</sourcechannel>
									<channellabel>discrete</channellabel>
								</audiochannel>
							</audio>
							<audio>
								<samplecharacteristics>
									<samplerate>48000</samplerate>
									<depth>16</depth>
								</samplecharacteristics>
								<channelcount>1</channelcount>
								<layout>mono</layout>
								<audiochannel>
									<sourcechannel>2</sourcechannel>
									<channellabel>discrete</channellabel>
								</audiochannel>
							</audio>
						</media>
					</file>
					<sourcetrack>
						<mediatype>video</mediatype>
					</sourcetrack>
					<fielddominance>upper</fielddominance>
					<itemhistory>
						<uuid>DBD2B7F3-DA7B-492A-A43B-F991F7D6C4F8</uuid>
					</itemhistory>
				</clipitem>
				<transitionitem>
					<rate>
						<ntsc>FALSE</ntsc>
						<timebase>25</timebase>
					</rate>
					<start>23293</start>
					<end>23308</end>
					<alignment>center</alignment>
					<effect>
						<name>Cross Dissolve</name>
						<effectid>Cross Dissolve</effectid>
						<effectcategory>Dissolve</effectcategory>
						<effecttype>transition</effecttype>
						<mediatype>video</mediatype>
						<wipecode>0</wipecode>
						<wipeaccuracy>100</wipeaccuracy>
						<startratio>0</startratio>
						<endratio>1</endratio>
						<reverse>FALSE</reverse>
					</effect>
				</transitionitem>
				<clipitem id="DYR10480_01 ">
					<name>DYR10480_01</name>
					<duration>1448</duration>
					<rate>
						<ntsc>FALSE</ntsc>
						<timebase>25</timebase>
					</rate>
					<in>1343</in>
					<out>1379</out>
					<start>-1</start>
					<end>-1</end>
					<pixelaspectratio>Square</pixelaspectratio>
					<enabled>TRUE</enabled>
					<anamorphic>FALSE</anamorphic>
					<alphatype>none</alphatype>
					<masterclipid>DYR10480_01 1</masterclipid>
					<logginginfo>
						<scene/>
						<shottake/>
						<lognote/>
						<good>FALSE</good>
					</logginginfo>
					<labels>
						<label2/>
					</labels>
					<comments>
						<mastercomment1/>
						<mastercomment2/>
						<mastercomment3/>
						<mastercomment4/>
					</comments>
					<file id="DYR10480_01 2">
						<name>DYR10480_01.mov</name>
						<pathurl>file://localhost/Volumes/Askepott/Prosjekter/DNPR637010_Kra%CC%8Akeklubben_TEM_011212/Video/MUSIKKVIDEO/Vinter/EX-3/DYR10480_01.mov</pathurl>
						<rate>
							<timebase>25</timebase>
						</rate>
						<duration>1448</duration>
						<metadata>
							<storage>QuickTime</storage>
							<key>com.sony.bprl.xdcamtransfer.version</key>
							<size>10</size>
							<type>UTF8</type>
							<value>2.12.0.631</value>
						</metadata>
						<metadata>
							<storage>QuickTime</storage>
							<key>org.smpte.mxf.package.material.packageid</key>
							<size>66</size>
							<type>UTF8</type>
							<value>0x060a2b340101010501010d43130000000c6ff887375605dc08004602022f05f5</value>
						</metadata>
						<metadata>
							<storage>QuickTime</storage>
							<key>com.sony.professionaldisc.nonrealtimemeta.lastupdate</key>
							<size>25</size>
							<type>UTF8</type>
							<value>2011-03-17 13:45:49 +0100</value>
						</metadata>
						<metadata>
							<storage>QuickTime</storage>
							<key>com.sony.bprl.mxf.umid</key>
							<size>64</size>
							<type>UTF8</type>
							<value>060a2b340101010501010d43130000000c6ff887375605dc08004602022f05f5</value>
						</metadata>
						<metadata>
							<storage>QuickTime</storage>
							<key>com.sony.bprl.mxf.nrtmetadata</key>
							<size>1994</size>
							<type>UTF8</type>
							<value>&lt;?xml version="1.0" encoding="UTF-8"?>&lt;NonRealTimeMeta xmlns="urn:schemas-professionalDisc:nonRealTimeMeta:ver.1.20" xmlns:lib="urn:schemas-professionalDisc:lib:ver.1.20" xmlns:xsi="http://www.w3.org/2001/XMLSchema-instance" lastUpdate="2011-03-17T13:45:49+01:00">&lt;TargetMaterial umidRef="060A2B340101010501010D43130000000C6FF887375605DC08004602022F05F5">&lt;/TargetMaterial>&lt;Duration value="1448">&lt;/Duration>&lt;LtcChangeTable tcFps="25" halfStep="false">&lt;LtcChange frameCount="0" value="11152409" status="increment">&lt;/LtcChange>&lt;LtcChange frameCount="1447" value="08132509" status="end">&lt;/LtcChange>&lt;/LtcChangeTable>&lt;CreationDate value="2011-03-17T13:44:50+01:00">&lt;/CreationDate>&lt;TypicalUbit value="0000000017061020">&lt;/TypicalUbit>&lt;BodyUmidBasicChangeTable>&lt;BodyUmidBasicChange frameCount="0" value="060A2B340101010501010D43330000000C6FF887375605DC08004602022F05F5" status="start">&lt;/BodyUmidBasicChange>&lt;/BodyUmidBasicChangeTable>&lt;BodyUmidWhenChangeTable>&lt;BodyUmidWhenChange frameCount="0" value="845E6004375605A5" status="increment">&lt;/BodyUmidWhenChange>&lt;BodyUmidWhenChange frameCount="1447" value="44C86104375605A5" status="end">&lt;/BodyUmidWhenChange>&lt;/BodyUmidWhenChangeTable>&lt;KlvPacketTable>&lt;KlvPacket key="060E2B34010101050301020A02000000" frameCount="0" lengthValue="095F5265635374617274" status="spot">&lt;/KlvPacket>&lt;/KlvPacketTable>&lt;VideoFormat>&lt;VideoRecPort port="DIRECT">&lt;/VideoRecPort>&lt;VideoFrame videoCodec="MPEG2HD35_1920_1080_MP@HL" captureFps="50.00i" recFps="50.00" formatFps="50i">&lt;/VideoFrame>&lt;VideoLayout pixel="1920" numOfVerticalLine="1080" aspectRatio="16:9">&lt;/VideoLayout>&lt;/VideoFormat>&lt;AudioFormat numOfChannel="2">&lt;AudioRecPort port="ANALOG" audioCodec="LPCM16" trackDst="CH1">&lt;/AudioRecPort>&lt;AudioRecPort port="ANALOG" audioCodec="LPCM16" trackDst="CH2">&lt;/AudioRecPort>&lt;/AudioFormat>&lt;Device manufacturer="Sony" modelName="PMW-EX3" serialNo="0401525">&lt;/Device>&lt;Lens modelName="VCL-614B2X">&lt;/Lens>&lt;RecordingMode type="normal" cacheRec="false">&lt;/RecordingMode>&lt;/NonRealTimeMeta>
							</value>
						</metadata>
						<metadata>
							<storage>QuickTime</storage>
							<key>com.apple.proapps.reel</key>
							<size>8</size>
							<type>UTF8</type>
							<value>Untitled</value>
						</metadata>
						<metadata>
							<storage>QuickTime</storage>
							<key>com.apple.proapps.clipID</key>
							<size>64</size>
							<type>UTF8</type>
							<value>060A2B340101010501010D43130000000C6FF887375605DC08004602022F05F5</value>
						</metadata>
						<metadata>
							<storage>QuickTime</storage>
							<key>com.apple.quicktime.information</key>
							<size>64</size>
							<type>UTF8</type>
							<value>060a2b340101010501010d43130000000c6ff887375605dc08004602022f05f5</value>
						</metadata>
						<metadata>
							<storage>QuickTime</storage>
							<key>com.apple.proapps.originalFormat</key>
							<size>36</size>
							<type>UTF8</type>
							<value>Apple XDCAM EX 1080i50 (35 Mb/s VBR)</value>
						</metadata>
						<timecode>
							<rate>
								<timebase>25</timebase>
							</rate>
							<string>09:24:15:11</string>
							<frame>846386</frame>
							<displayformat>NDF</displayformat>
							<source>source</source>
							<reel>
								<name>Untitled</name>
							</reel>
						</timecode>
						<media>
							<video>
								<duration>1448</duration>
								<samplecharacteristics>
									<width>1920</width>
									<height>1080</height>
								</samplecharacteristics>
							</video>
							<audio>
								<samplecharacteristics>
									<samplerate>48000</samplerate>
									<depth>16</depth>
								</samplecharacteristics>
								<channelcount>1</channelcount>
								<layout>mono</layout>
								<audiochannel>
									<sourcechannel>1</sourcechannel>
									<channellabel>discrete</channellabel>
								</audiochannel>
							</audio>
							<audio>
								<samplecharacteristics>
									<samplerate>48000</samplerate>
									<depth>16</depth>
								</samplecharacteristics>
								<channelcount>1</channelcount>
								<layout>mono</layout>
								<audiochannel>
									<sourcechannel>2</sourcechannel>
									<channellabel>discrete</channellabel>
								</audiochannel>
							</audio>
						</media>
					</file>
					<sourcetrack>
						<mediatype>video</mediatype>
					</sourcetrack>
					<fielddominance>upper</fielddominance>
					<itemhistory>
						<uuid>DED5902A-8433-468A-BA56-DF8F2645230E</uuid>
					</itemhistory>
				</clipitem>
				<transitionitem>
					<rate>
						<ntsc>FALSE</ntsc>
						<timebase>25</timebase>
					</rate>
					<start>23314</start>
					<end>23329</end>
					<alignment>center</alignment>
					<effect>
						<name>Cross Dissolve</name>
						<effectid>Cross Dissolve</effectid>
						<effectcategory>Dissolve</effectcategory>
						<effecttype>transition</effecttype>
						<mediatype>video</mediatype>
						<wipecode>0</wipecode>
						<wipeaccuracy>100</wipeaccuracy>
						<startratio>0</startratio>
						<endratio>1</endratio>
						<reverse>FALSE</reverse>
					</effect>
				</transitionitem>
				<clipitem id="DYR10544_01 ">
					<name>DYR10544_01</name>
					<duration>204</duration>
					<rate>
						<ntsc>FALSE</ntsc>
						<timebase>25</timebase>
					</rate>
					<in>101</in>
					<out>145</out>
					<start>-1</start>
					<end>-1</end>
					<pixelaspectratio>Square</pixelaspectratio>
					<enabled>TRUE</enabled>
					<anamorphic>FALSE</anamorphic>
					<alphatype>none</alphatype>
					<masterclipid>DYR10544_01 1</masterclipid>
					<logginginfo>
						<scene/>
						<shottake/>
						<lognote/>
						<good>FALSE</good>
					</logginginfo>
					<labels>
						<label2/>
					</labels>
					<comments>
						<mastercomment1/>
						<mastercomment2/>
						<mastercomment3/>
						<mastercomment4/>
					</comments>
					<file id="DYR10544_01 2">
						<name>DYR10544_01.mov</name>
						<pathurl>file://localhost/Volumes/Askepott/Prosjekter/DNPR637010_Kra%CC%8Akeklubben_TEM_011212/Video/MUSIKKVIDEO/Vinter/EX-3/DYR10544_01.mov</pathurl>
						<rate>
							<timebase>25</timebase>
						</rate>
						<duration>204</duration>
						<metadata>
							<storage>QuickTime</storage>
							<key>com.sony.bprl.xdcamtransfer.version</key>
							<size>10</size>
							<type>UTF8</type>
							<value>2.12.0.631</value>
						</metadata>
						<metadata>
							<storage>QuickTime</storage>
							<key>org.smpte.mxf.package.material.packageid</key>
							<size>66</size>
							<type>UTF8</type>
							<value>0x060a2b340101010501010d4313000000d25ecd7f415605dd08004602022f05f5</value>
						</metadata>
						<metadata>
							<storage>QuickTime</storage>
							<key>com.sony.professionaldisc.nonrealtimemeta.lastupdate</key>
							<size>25</size>
							<type>UTF8</type>
							<value>2011-03-21 12:59:02 +0100</value>
						</metadata>
						<metadata>
							<storage>QuickTime</storage>
							<key>com.sony.bprl.mxf.umid</key>
							<size>64</size>
							<type>UTF8</type>
							<value>060a2b340101010501010d4313000000d25ecd7f415605dd08004602022f05f5</value>
						</metadata>
						<metadata>
							<storage>QuickTime</storage>
							<key>com.sony.bprl.mxf.nrtmetadata</key>
							<size>1991</size>
							<type>UTF8</type>
							<value>&lt;?xml version="1.0" encoding="UTF-8"?>&lt;NonRealTimeMeta xmlns="urn:schemas-professionalDisc:nonRealTimeMeta:ver.1.20" xmlns:lib="urn:schemas-professionalDisc:lib:ver.1.20" xmlns:xsi="http://www.w3.org/2001/XMLSchema-instance" lastUpdate="2011-03-21T12:59:02+01:00">&lt;TargetMaterial umidRef="060A2B340101010501010D4313000000D25ECD7F415605DD08004602022F05F5">&lt;/TargetMaterial>&lt;Duration value="204">&lt;/Duration>&lt;LtcChangeTable tcFps="25" halfStep="false">&lt;LtcChange frameCount="0" value="23104309" status="increment">&lt;/LtcChange>&lt;LtcChange frameCount="203" value="01194309" status="end">&lt;/LtcChange>&lt;/LtcChangeTable>&lt;CreationDate value="2011-03-21T12:58:53+01:00">&lt;/CreationDate>&lt;TypicalUbit value="0000000017061020">&lt;/TypicalUbit>&lt;BodyUmidBasicChangeTable>&lt;BodyUmidBasicChange frameCount="0" value="060A2B340101010501010D4333000000D25ECD7F415605DD08004602022F05F5" status="start">&lt;/BodyUmidBasicChange>&lt;/BodyUmidBasicChangeTable>&lt;BodyUmidWhenChangeTable>&lt;BodyUmidWhenChange frameCount="0" value="04111D04415605A5" status="increment">&lt;/BodyUmidWhenChange>&lt;BodyUmidWhenChange frameCount="203" value="C4431D04415605A5" status="end">&lt;/BodyUmidWhenChange>&lt;/BodyUmidWhenChangeTable>&lt;KlvPacketTable>&lt;KlvPacket key="060E2B34010101050301020A02000000" frameCount="0" lengthValue="095F5265635374617274" status="spot">&lt;/KlvPacket>&lt;/KlvPacketTable>&lt;VideoFormat>&lt;VideoRecPort port="DIRECT">&lt;/VideoRecPort>&lt;VideoFrame videoCodec="MPEG2HD35_1920_1080_MP@HL" captureFps="50.00i" recFps="50.00" formatFps="50i">&lt;/VideoFrame>&lt;VideoLayout pixel="1920" numOfVerticalLine="1080" aspectRatio="16:9">&lt;/VideoLayout>&lt;/VideoFormat>&lt;AudioFormat numOfChannel="2">&lt;AudioRecPort port="ANALOG" audioCodec="LPCM16" trackDst="CH1">&lt;/AudioRecPort>&lt;AudioRecPort port="ANALOG" audioCodec="LPCM16" trackDst="CH2">&lt;/AudioRecPort>&lt;/AudioFormat>&lt;Device manufacturer="Sony" modelName="PMW-EX3" serialNo="0401525">&lt;/Device>&lt;Lens modelName="VCL-614B2X">&lt;/Lens>&lt;RecordingMode type="normal" cacheRec="false">&lt;/RecordingMode>&lt;/NonRealTimeMeta>
							</value>
						</metadata>
						<metadata>
							<storage>QuickTime</storage>
							<key>com.apple.proapps.reel</key>
							<size>8</size>
							<type>UTF8</type>
							<value>Untitled</value>
						</metadata>
						<metadata>
							<storage>QuickTime</storage>
							<key>com.apple.proapps.clipID</key>
							<size>64</size>
							<type>UTF8</type>
							<value>060A2B340101010501010D4313000000D25ECD7F415605DD08004602022F05F5</value>
						</metadata>
						<metadata>
							<storage>QuickTime</storage>
							<key>com.apple.quicktime.information</key>
							<size>64</size>
							<type>UTF8</type>
							<value>060a2b340101010501010d4313000000d25ecd7f415605dd08004602022f05f5</value>
						</metadata>
						<metadata>
							<storage>QuickTime</storage>
							<key>com.apple.proapps.originalFormat</key>
							<size>36</size>
							<type>UTF8</type>
							<value>Apple XDCAM EX 1080i50 (35 Mb/s VBR)</value>
						</metadata>
						<timecode>
							<rate>
								<timebase>25</timebase>
							</rate>
							<string>09:43:10:23</string>
							<frame>874773</frame>
							<displayformat>NDF</displayformat>
							<source>source</source>
							<reel>
								<name>Untitled</name>
							</reel>
						</timecode>
						<media>
							<video>
								<duration>204</duration>
								<samplecharacteristics>
									<width>1920</width>
									<height>1080</height>
								</samplecharacteristics>
							</video>
							<audio>
								<samplecharacteristics>
									<samplerate>48000</samplerate>
									<depth>16</depth>
								</samplecharacteristics>
								<channelcount>1</channelcount>
								<layout>mono</layout>
								<audiochannel>
									<sourcechannel>1</sourcechannel>
									<channellabel>discrete</channellabel>
								</audiochannel>
							</audio>
							<audio>
								<samplecharacteristics>
									<samplerate>48000</samplerate>
									<depth>16</depth>
								</samplecharacteristics>
								<channelcount>1</channelcount>
								<layout>mono</layout>
								<audiochannel>
									<sourcechannel>2</sourcechannel>
									<channellabel>discrete</channellabel>
								</audiochannel>
							</audio>
						</media>
					</file>
					<sourcetrack>
						<mediatype>video</mediatype>
					</sourcetrack>
					<fielddominance>upper</fielddominance>
					<itemhistory>
						<uuid>DFCC97C5-0D4B-45E0-86AB-CB2E88D94BE2</uuid>
					</itemhistory>
				</clipitem>
				<transitionitem>
					<rate>
						<ntsc>FALSE</ntsc>
						<timebase>25</timebase>
					</rate>
					<start>23343</start>
					<end>23358</end>
					<alignment>center</alignment>
					<effect>
						<name>Cross Dissolve</name>
						<effectid>Cross Dissolve</effectid>
						<effectcategory>Dissolve</effectcategory>
						<effecttype>transition</effecttype>
						<mediatype>video</mediatype>
						<wipecode>0</wipecode>
						<wipeaccuracy>100</wipeaccuracy>
						<startratio>0</startratio>
						<endratio>1</endratio>
						<reverse>FALSE</reverse>
					</effect>
				</transitionitem>
				<clipitem id="DYR10507_01 3">
					<name>DYR10507_01</name>
					<duration>695</duration>
					<rate>
						<ntsc>FALSE</ntsc>
						<timebase>25</timebase>
					</rate>
					<in>462</in>
					<out>501</out>
					<start>-1</start>
					<end>-1</end>
					<pixelaspectratio>Square</pixelaspectratio>
					<enabled>TRUE</enabled>
					<anamorphic>FALSE</anamorphic>
					<alphatype>none</alphatype>
					<masterclipid>DYR10507_01 1</masterclipid>
					<logginginfo>
						<scene/>
						<shottake/>
						<lognote/>
						<good>FALSE</good>
					</logginginfo>
					<labels>
						<label2/>
					</labels>
					<comments>
						<mastercomment1/>
						<mastercomment2/>
						<mastercomment3/>
						<mastercomment4/>
					</comments>
					<file id="DYR10507_01 2"/>
					<filter>
						<effect>
							<name>Basic Motion</name>
							<effectid>basic</effectid>
							<effectcategory>motion</effectcategory>
							<effecttype>motion</effecttype>
							<mediatype>video</mediatype>
							<parameter>
								<parameterid>scale</parameterid>
								<name>Scale</name>
								<valuemin>0</valuemin>
								<valuemax>1000</valuemax>
								<value>120</value>
							</parameter>
							<parameter>
								<parameterid>rotation</parameterid>
								<name>Rotation</name>
								<valuemin>-8640</valuemin>
								<valuemax>8640</valuemax>
								<value>0</value>
							</parameter>
							<parameter>
								<parameterid>center</parameterid>
								<name>Center</name>
								<value>
									<horiz>-0.0958333</horiz>
									<vert>-0.0925926</vert>
								</value>
							</parameter>
							<parameter>
								<parameterid>centerOffset</parameterid>
								<name>Anchor Point</name>
								<value>
									<horiz>0</horiz>
									<vert>0</vert>
								</value>
							</parameter>
						</effect>
					</filter>
					<filter>
						<enabled>FALSE</enabled>
						<effect>
							<name>Drop Shadow</name>
							<effectid>dropshadow</effectid>
							<effectcategory>motion</effectcategory>
							<effecttype>motion</effecttype>
							<mediatype>video</mediatype>
							<parameter>
								<parameterid>offset</parameterid>
								<name>offset</name>
								<valuemin>-100</valuemin>
								<valuemax>100</valuemax>
								<value>2</value>
							</parameter>
							<parameter>
								<parameterid>angle</parameterid>
								<name>angle</name>
								<valuemin>-720</valuemin>
								<valuemax>720</valuemax>
								<value>135</value>
							</parameter>
							<parameter>
								<parameterid>color</parameterid>
								<name>color</name>
								<value>
									<alpha>0</alpha>
									<red>0</red>
									<green>0</green>
									<blue>0</blue>
								</value>
							</parameter>
							<parameter>
								<parameterid>softness</parameterid>
								<name>softness</name>
								<valuemin>0</valuemin>
								<valuemax>100</valuemax>
								<value>10</value>
							</parameter>
							<parameter>
								<parameterid>opacity</parameterid>
								<name>opacity</name>
								<valuemin>0</valuemin>
								<valuemax>100</valuemax>
								<value>50</value>
							</parameter>
						</effect>
					</filter>
					<filter>
						<enabled>FALSE</enabled>
						<effect>
							<name>Motion Blur</name>
							<effectid>motionblur</effectid>
							<effectcategory>motion</effectcategory>
							<effecttype>motion</effecttype>
							<mediatype>video</mediatype>
							<parameter>
								<parameterid>duration</parameterid>
								<name>% Blur</name>
								<valuemin>0</valuemin>
								<valuemax>1000</valuemax>
								<value>500</value>
							</parameter>
							<parameter>
								<parameterid>samples</parameterid>
								<name>Samples</name>
								<valuemin>1</valuemin>
								<valuemax>16</valuemax>
								<value>4</value>
							</parameter>
						</effect>
					</filter>
					<filter>
						<effect>
							<name>Crop</name>
							<effectid>crop</effectid>
							<effectcategory>motion</effectcategory>
							<effecttype>motion</effecttype>
							<mediatype>video</mediatype>
							<parameter>
								<parameterid>left</parameterid>
								<name>left</name>
								<valuemin>0</valuemin>
								<valuemax>100</valuemax>
								<value>0</value>
							</parameter>
							<parameter>
								<parameterid>right</parameterid>
								<name>right</name>
								<valuemin>0</valuemin>
								<valuemax>100</valuemax>
								<value>0</value>
							</parameter>
							<parameter>
								<parameterid>top</parameterid>
								<name>top</name>
								<valuemin>0</valuemin>
								<valuemax>100</valuemax>
								<value>0</value>
							</parameter>
							<parameter>
								<parameterid>bottom</parameterid>
								<name>bottom</name>
								<valuemin>0</valuemin>
								<valuemax>100</valuemax>
								<value>0</value>
							</parameter>
							<parameter>
								<parameterid>edgefeather</parameterid>
								<name>edgefeather</name>
								<valuemin>0</valuemin>
								<valuemax>100</valuemax>
								<value>0</value>
							</parameter>
						</effect>
					</filter>
					<filter>
						<effect>
							<name>Distort</name>
							<effectid>deformation</effectid>
							<effectcategory>motion</effectcategory>
							<effecttype>motion</effecttype>
							<mediatype>video</mediatype>
							<parameter>
								<parameterid>ulcorner</parameterid>
								<name>Upper Left</name>
								<value>
									<horiz>-0.5</horiz>
									<vert>-0.5</vert>
								</value>
							</parameter>
							<parameter>
								<parameterid>urcorner</parameterid>
								<name>Upper Right</name>
								<value>
									<horiz>0.5</horiz>
									<vert>-0.5</vert>
								</value>
							</parameter>
							<parameter>
								<parameterid>lrcorner</parameterid>
								<name>Lower Right</name>
								<value>
									<horiz>0.5</horiz>
									<vert>0.5</vert>
								</value>
							</parameter>
							<parameter>
								<parameterid>llcorner</parameterid>
								<name>Lower Left</name>
								<value>
									<horiz>-0.5</horiz>
									<vert>0.5</vert>
								</value>
							</parameter>
							<parameter>
								<parameterid>aspect</parameterid>
								<name>Aspect</name>
								<valuemin>-10000</valuemin>
								<valuemax>10000</valuemax>
								<value>0</value>
							</parameter>
						</effect>
					</filter>
					<filter>
						<effect>
							<name>Opacity</name>
							<effectid>opacity</effectid>
							<effectcategory>motion</effectcategory>
							<effecttype>motion</effecttype>
							<mediatype>video</mediatype>
							<parameter>
								<parameterid>opacity</parameterid>
								<name>opacity</name>
								<valuemin>0</valuemin>
								<valuemax>100</valuemax>
								<value>100</value>
							</parameter>
						</effect>
					</filter>
					<sourcetrack>
						<mediatype>video</mediatype>
					</sourcetrack>
					<fielddominance>upper</fielddominance>
					<itemhistory>
						<uuid>9A6CFAAF-8F1C-4E44-AAFA-4DEB0A4BDF84</uuid>
					</itemhistory>
				</clipitem>
				<transitionitem>
					<rate>
						<ntsc>FALSE</ntsc>
						<timebase>25</timebase>
					</rate>
					<start>23367</start>
					<end>23382</end>
					<alignment>center</alignment>
					<effect>
						<name>Cross Dissolve</name>
						<effectid>Cross Dissolve</effectid>
						<effectcategory>Dissolve</effectcategory>
						<effecttype>transition</effecttype>
						<mediatype>video</mediatype>
						<wipecode>0</wipecode>
						<wipeaccuracy>100</wipeaccuracy>
						<startratio>0</startratio>
						<endratio>1</endratio>
						<reverse>FALSE</reverse>
					</effect>
				</transitionitem>
				<clipitem id="DYR10542_01 ">
					<name>DYR10542_01</name>
					<duration>1209</duration>
					<rate>
						<ntsc>FALSE</ntsc>
						<timebase>25</timebase>
					</rate>
					<in>711</in>
					<out>767</out>
					<start>-1</start>
					<end>23423</end>
					<pixelaspectratio>Square</pixelaspectratio>
					<enabled>TRUE</enabled>
					<anamorphic>FALSE</anamorphic>
					<alphatype>none</alphatype>
					<masterclipid>DYR10542_01 1</masterclipid>
					<logginginfo>
						<scene/>
						<shottake/>
						<lognote/>
						<good>FALSE</good>
					</logginginfo>
					<labels>
						<label2/>
					</labels>
					<comments>
						<mastercomment1/>
						<mastercomment2/>
						<mastercomment3/>
						<mastercomment4/>
					</comments>
					<file id="DYR10542_01 2">
						<name>DYR10542_01.mov</name>
						<pathurl>file://localhost/Volumes/Askepott/Prosjekter/DNPR637010_Kra%CC%8Akeklubben_TEM_011212/Video/MUSIKKVIDEO/Vinter/EX-3/DYR10542_01.mov</pathurl>
						<rate>
							<timebase>25</timebase>
						</rate>
						<duration>1209</duration>
						<metadata>
							<storage>QuickTime</storage>
							<key>com.sony.bprl.xdcamtransfer.version</key>
							<size>10</size>
							<type>UTF8</type>
							<value>2.12.0.631</value>
						</metadata>
						<metadata>
							<storage>QuickTime</storage>
							<key>org.smpte.mxf.package.material.packageid</key>
							<size>66</size>
							<type>UTF8</type>
							<value>0x060a2b340101010501010d43130000008bea1f7f415605df08004602022f05f5</value>
						</metadata>
						<metadata>
							<storage>QuickTime</storage>
							<key>com.sony.professionaldisc.nonrealtimemeta.lastupdate</key>
							<size>25</size>
							<type>UTF8</type>
							<value>2011-03-21 12:55:54 +0100</value>
						</metadata>
						<metadata>
							<storage>QuickTime</storage>
							<key>com.sony.bprl.mxf.umid</key>
							<size>64</size>
							<type>UTF8</type>
							<value>060a2b340101010501010d43130000008bea1f7f415605df08004602022f05f5</value>
						</metadata>
						<metadata>
							<storage>QuickTime</storage>
							<key>com.sony.bprl.mxf.nrtmetadata</key>
							<size>1994</size>
							<type>UTF8</type>
							<value>&lt;?xml version="1.0" encoding="UTF-8"?>&lt;NonRealTimeMeta xmlns="urn:schemas-professionalDisc:nonRealTimeMeta:ver.1.20" xmlns:lib="urn:schemas-professionalDisc:lib:ver.1.20" xmlns:xsi="http://www.w3.org/2001/XMLSchema-instance" lastUpdate="2011-03-21T12:55:54+01:00">&lt;TargetMaterial umidRef="060A2B340101010501010D43130000008BEA1F7F415605DF08004602022F05F5">&lt;/TargetMaterial>&lt;Duration value="1209">&lt;/Duration>&lt;LtcChangeTable tcFps="25" halfStep="false">&lt;LtcChange frameCount="0" value="24154209" status="increment">&lt;/LtcChange>&lt;LtcChange frameCount="1208" value="07044309" status="end">&lt;/LtcChange>&lt;/LtcChangeTable>&lt;CreationDate value="2011-03-21T12:55:04+01:00">&lt;/CreationDate>&lt;TypicalUbit value="0000000017061020">&lt;/TypicalUbit>&lt;BodyUmidBasicChangeTable>&lt;BodyUmidBasicChange frameCount="0" value="060A2B340101010501010D43330000008BEA1F7F415605DF08004602022F05F5" status="start">&lt;/BodyUmidBasicChange>&lt;/BodyUmidBasicChangeTable>&lt;BodyUmidWhenChangeTable>&lt;BodyUmidWhenChange frameCount="0" value="C47B1704415605A5" status="increment">&lt;/BodyUmidWhenChange>&lt;BodyUmidWhenChange frameCount="1208" value="C4A91804415605A5" status="end">&lt;/BodyUmidWhenChange>&lt;/BodyUmidWhenChangeTable>&lt;KlvPacketTable>&lt;KlvPacket key="060E2B34010101050301020A02000000" frameCount="0" lengthValue="095F5265635374617274" status="spot">&lt;/KlvPacket>&lt;/KlvPacketTable>&lt;VideoFormat>&lt;VideoRecPort port="DIRECT">&lt;/VideoRecPort>&lt;VideoFrame videoCodec="MPEG2HD35_1920_1080_MP@HL" captureFps="50.00i" recFps="50.00" formatFps="50i">&lt;/VideoFrame>&lt;VideoLayout pixel="1920" numOfVerticalLine="1080" aspectRatio="16:9">&lt;/VideoLayout>&lt;/VideoFormat>&lt;AudioFormat numOfChannel="2">&lt;AudioRecPort port="ANALOG" audioCodec="LPCM16" trackDst="CH1">&lt;/AudioRecPort>&lt;AudioRecPort port="ANALOG" audioCodec="LPCM16" trackDst="CH2">&lt;/AudioRecPort>&lt;/AudioFormat>&lt;Device manufacturer="Sony" modelName="PMW-EX3" serialNo="0401525">&lt;/Device>&lt;Lens modelName="VCL-614B2X">&lt;/Lens>&lt;RecordingMode type="normal" cacheRec="false">&lt;/RecordingMode>&lt;/NonRealTimeMeta>
							</value>
						</metadata>
						<metadata>
							<storage>QuickTime</storage>
							<key>com.apple.proapps.reel</key>
							<size>8</size>
							<type>UTF8</type>
							<value>Untitled</value>
						</metadata>
						<metadata>
							<storage>QuickTime</storage>
							<key>com.apple.proapps.clipID</key>
							<size>64</size>
							<type>UTF8</type>
							<value>060A2B340101010501010D43130000008BEA1F7F415605DF08004602022F05F5</value>
						</metadata>
						<metadata>
							<storage>QuickTime</storage>
							<key>com.apple.quicktime.information</key>
							<size>64</size>
							<type>UTF8</type>
							<value>060a2b340101010501010d43130000008bea1f7f415605df08004602022f05f5</value>
						</metadata>
						<metadata>
							<storage>QuickTime</storage>
							<key>com.apple.proapps.originalFormat</key>
							<size>36</size>
							<type>UTF8</type>
							<value>Apple XDCAM EX 1080i50 (35 Mb/s VBR)</value>
						</metadata>
						<timecode>
							<rate>
								<timebase>25</timebase>
							</rate>
							<string>09:42:15:24</string>
							<frame>873399</frame>
							<displayformat>NDF</displayformat>
							<source>source</source>
							<reel>
								<name>Untitled</name>
							</reel>
						</timecode>
						<media>
							<video>
								<duration>1209</duration>
								<samplecharacteristics>
									<width>1920</width>
									<height>1080</height>
								</samplecharacteristics>
							</video>
							<audio>
								<samplecharacteristics>
									<samplerate>48000</samplerate>
									<depth>16</depth>
								</samplecharacteristics>
								<channelcount>1</channelcount>
								<layout>mono</layout>
								<audiochannel>
									<sourcechannel>1</sourcechannel>
									<channellabel>discrete</channellabel>
								</audiochannel>
							</audio>
							<audio>
								<samplecharacteristics>
									<samplerate>48000</samplerate>
									<depth>16</depth>
								</samplecharacteristics>
								<channelcount>1</channelcount>
								<layout>mono</layout>
								<audiochannel>
									<sourcechannel>2</sourcechannel>
									<channellabel>discrete</channellabel>
								</audiochannel>
							</audio>
						</media>
					</file>
					<sourcetrack>
						<mediatype>video</mediatype>
					</sourcetrack>
					<fielddominance>upper</fielddominance>
					<itemhistory>
						<uuid>882FD9AB-3434-4DCE-91A2-BEA490A5668C</uuid>
					</itemhistory>
				</clipitem>
				<clipitem id="DYR10537_01 ">
					<name>DYR10537_01</name>
					<duration>1477</duration>
					<rate>
						<ntsc>FALSE</ntsc>
						<timebase>25</timebase>
					</rate>
					<in>292</in>
					<out>333</out>
					<start>23423</start>
					<end>23464</end>
					<pixelaspectratio>Square</pixelaspectratio>
					<enabled>TRUE</enabled>
					<anamorphic>FALSE</anamorphic>
					<alphatype>none</alphatype>
					<masterclipid>DYR10537_01 1</masterclipid>
					<logginginfo>
						<scene/>
						<shottake/>
						<lognote/>
						<good>FALSE</good>
					</logginginfo>
					<labels>
						<label2/>
					</labels>
					<comments>
						<mastercomment1/>
						<mastercomment2/>
						<mastercomment3/>
						<mastercomment4/>
					</comments>
					<file id="DYR10537_01 2">
						<name>DYR10537_01.mov</name>
						<pathurl>file://localhost/Volumes/Askepott/Prosjekter/DNPR637010_Kra%CC%8Akeklubben_TEM_011212/Video/MUSIKKVIDEO/Vinter/EX-3/DYR10537_01.mov</pathurl>
						<rate>
							<timebase>25</timebase>
						</rate>
						<duration>1477</duration>
						<metadata>
							<storage>QuickTime</storage>
							<key>com.sony.bprl.xdcamtransfer.version</key>
							<size>10</size>
							<type>UTF8</type>
							<value>2.12.0.631</value>
						</metadata>
						<metadata>
							<storage>QuickTime</storage>
							<key>org.smpte.mxf.package.material.packageid</key>
							<size>66</size>
							<type>UTF8</type>
							<value>0x060a2b340101010501010d4313000000e76f827a415605cc08004602022f05f5</value>
						</metadata>
						<metadata>
							<storage>QuickTime</storage>
							<key>com.sony.professionaldisc.nonrealtimemeta.lastupdate</key>
							<size>25</size>
							<type>UTF8</type>
							<value>2011-03-21 12:30:07 +0100</value>
						</metadata>
						<metadata>
							<storage>QuickTime</storage>
							<key>com.sony.bprl.mxf.umid</key>
							<size>64</size>
							<type>UTF8</type>
							<value>060a2b340101010501010d4313000000e76f827a415605cc08004602022f05f5</value>
						</metadata>
						<metadata>
							<storage>QuickTime</storage>
							<key>com.sony.bprl.mxf.nrtmetadata</key>
							<size>1994</size>
							<type>UTF8</type>
							<value>&lt;?xml version="1.0" encoding="UTF-8"?>&lt;NonRealTimeMeta xmlns="urn:schemas-professionalDisc:nonRealTimeMeta:ver.1.20" xmlns:lib="urn:schemas-professionalDisc:lib:ver.1.20" xmlns:xsi="http://www.w3.org/2001/XMLSchema-instance" lastUpdate="2011-03-21T12:30:07+01:00">&lt;TargetMaterial umidRef="060A2B340101010501010D4313000000E76F827A415605CC08004602022F05F5">&lt;/TargetMaterial>&lt;Duration value="1477">&lt;/Duration>&lt;LtcChangeTable tcFps="25" halfStep="false">&lt;LtcChange frameCount="0" value="15013909" status="increment">&lt;/LtcChange>&lt;LtcChange frameCount="1476" value="16004009" status="end">&lt;/LtcChange>&lt;/LtcChangeTable>&lt;CreationDate value="2011-03-21T12:29:06+01:00">&lt;/CreationDate>&lt;TypicalUbit value="0000000017061020">&lt;/TypicalUbit>&lt;BodyUmidBasicChangeTable>&lt;BodyUmidBasicChange frameCount="0" value="060A2B340101010501010D4333000000E76F827A415605CC08004602022F05F5" status="start">&lt;/BodyUmidBasicChange>&lt;/BodyUmidBasicChangeTable>&lt;BodyUmidWhenChangeTable>&lt;BodyUmidWhenChange frameCount="0" value="8474F103415605A5" status="increment">&lt;/BodyUmidWhenChange>&lt;BodyUmidWhenChange frameCount="1476" value="84E5F203415605A5" status="end">&lt;/BodyUmidWhenChange>&lt;/BodyUmidWhenChangeTable>&lt;KlvPacketTable>&lt;KlvPacket key="060E2B34010101050301020A02000000" frameCount="0" lengthValue="095F5265635374617274" status="spot">&lt;/KlvPacket>&lt;/KlvPacketTable>&lt;VideoFormat>&lt;VideoRecPort port="DIRECT">&lt;/VideoRecPort>&lt;VideoFrame videoCodec="MPEG2HD35_1920_1080_MP@HL" captureFps="50.00i" recFps="50.00" formatFps="50i">&lt;/VideoFrame>&lt;VideoLayout pixel="1920" numOfVerticalLine="1080" aspectRatio="16:9">&lt;/VideoLayout>&lt;/VideoFormat>&lt;AudioFormat numOfChannel="2">&lt;AudioRecPort port="ANALOG" audioCodec="LPCM16" trackDst="CH1">&lt;/AudioRecPort>&lt;AudioRecPort port="ANALOG" audioCodec="LPCM16" trackDst="CH2">&lt;/AudioRecPort>&lt;/AudioFormat>&lt;Device manufacturer="Sony" modelName="PMW-EX3" serialNo="0401525">&lt;/Device>&lt;Lens modelName="VCL-614B2X">&lt;/Lens>&lt;RecordingMode type="normal" cacheRec="false">&lt;/RecordingMode>&lt;/NonRealTimeMeta>
							</value>
						</metadata>
						<metadata>
							<storage>QuickTime</storage>
							<key>com.apple.proapps.reel</key>
							<size>8</size>
							<type>UTF8</type>
							<value>Untitled</value>
						</metadata>
						<metadata>
							<storage>QuickTime</storage>
							<key>com.apple.proapps.clipID</key>
							<size>64</size>
							<type>UTF8</type>
							<value>060A2B340101010501010D4313000000E76F827A415605CC08004602022F05F5</value>
						</metadata>
						<metadata>
							<storage>QuickTime</storage>
							<key>com.apple.quicktime.information</key>
							<size>64</size>
							<type>UTF8</type>
							<value>060a2b340101010501010d4313000000e76f827a415605cc08004602022f05f5</value>
						</metadata>
						<metadata>
							<storage>QuickTime</storage>
							<key>com.apple.proapps.originalFormat</key>
							<size>36</size>
							<type>UTF8</type>
							<value>Apple XDCAM EX 1080i50 (35 Mb/s VBR)</value>
						</metadata>
						<timecode>
							<rate>
								<timebase>25</timebase>
							</rate>
							<string>09:39:01:15</string>
							<frame>868540</frame>
							<displayformat>NDF</displayformat>
							<source>source</source>
							<reel>
								<name>Untitled</name>
							</reel>
						</timecode>
						<media>
							<video>
								<duration>1477</duration>
								<samplecharacteristics>
									<width>1920</width>
									<height>1080</height>
								</samplecharacteristics>
							</video>
							<audio>
								<samplecharacteristics>
									<samplerate>48000</samplerate>
									<depth>16</depth>
								</samplecharacteristics>
								<channelcount>1</channelcount>
								<layout>mono</layout>
								<audiochannel>
									<sourcechannel>1</sourcechannel>
									<channellabel>discrete</channellabel>
								</audiochannel>
							</audio>
							<audio>
								<samplecharacteristics>
									<samplerate>48000</samplerate>
									<depth>16</depth>
								</samplecharacteristics>
								<channelcount>1</channelcount>
								<layout>mono</layout>
								<audiochannel>
									<sourcechannel>2</sourcechannel>
									<channellabel>discrete</channellabel>
								</audiochannel>
							</audio>
						</media>
					</file>
					<sourcetrack>
						<mediatype>video</mediatype>
					</sourcetrack>
					<fielddominance>upper</fielddominance>
					<itemhistory>
						<uuid>04CA00C3-0338-4A26-B4CD-797F1699F429</uuid>
					</itemhistory>
				</clipitem>
				<clipitem id="DYR10531_01 ">
					<name>DYR10531_01</name>
					<duration>966</duration>
					<rate>
						<ntsc>FALSE</ntsc>
						<timebase>25</timebase>
					</rate>
					<in>380</in>
					<out>443</out>
					<start>23464</start>
					<end>-1</end>
					<pixelaspectratio>Square</pixelaspectratio>
					<enabled>TRUE</enabled>
					<anamorphic>FALSE</anamorphic>
					<alphatype>none</alphatype>
					<masterclipid>DYR10531_01 1</masterclipid>
					<logginginfo>
						<scene/>
						<shottake/>
						<lognote/>
						<good>FALSE</good>
					</logginginfo>
					<labels>
						<label2/>
					</labels>
					<comments>
						<mastercomment1/>
						<mastercomment2/>
						<mastercomment3/>
						<mastercomment4/>
					</comments>
					<file id="DYR10531_01 2">
						<name>DYR10531_01.mov</name>
						<pathurl>file://localhost/Volumes/Askepott/Prosjekter/DNPR637010_Kra%CC%8Akeklubben_TEM_011212/Video/MUSIKKVIDEO/Vinter/EX-3/DYR10531_01.mov</pathurl>
						<rate>
							<timebase>25</timebase>
						</rate>
						<duration>966</duration>
						<metadata>
							<storage>QuickTime</storage>
							<key>com.sony.bprl.xdcamtransfer.version</key>
							<size>10</size>
							<type>UTF8</type>
							<value>2.12.0.631</value>
						</metadata>
						<metadata>
							<storage>QuickTime</storage>
							<key>org.smpte.mxf.package.material.packageid</key>
							<size>66</size>
							<type>UTF8</type>
							<value>0x060a2b340101010501010d431300000094852a78415605dc08004602022f05f5</value>
						</metadata>
						<metadata>
							<storage>QuickTime</storage>
							<key>com.sony.professionaldisc.nonrealtimemeta.lastupdate</key>
							<size>25</size>
							<type>UTF8</type>
							<value>2011-03-21 12:16:35 +0100</value>
						</metadata>
						<metadata>
							<storage>QuickTime</storage>
							<key>com.sony.bprl.mxf.umid</key>
							<size>64</size>
							<type>UTF8</type>
							<value>060a2b340101010501010d431300000094852a78415605dc08004602022f05f5</value>
						</metadata>
						<metadata>
							<storage>QuickTime</storage>
							<key>com.sony.bprl.mxf.nrtmetadata</key>
							<size>1991</size>
							<type>UTF8</type>
							<value>&lt;?xml version="1.0" encoding="UTF-8"?>&lt;NonRealTimeMeta xmlns="urn:schemas-professionalDisc:nonRealTimeMeta:ver.1.20" xmlns:lib="urn:schemas-professionalDisc:lib:ver.1.20" xmlns:xsi="http://www.w3.org/2001/XMLSchema-instance" lastUpdate="2011-03-21T12:16:35+01:00">&lt;TargetMaterial umidRef="060A2B340101010501010D431300000094852A78415605DC08004602022F05F5">&lt;/TargetMaterial>&lt;Duration value="966">&lt;/Duration>&lt;LtcChangeTable tcFps="25" halfStep="false">&lt;LtcChange frameCount="0" value="20263509" status="increment">&lt;/LtcChange>&lt;LtcChange frameCount="965" value="10053609" status="end">&lt;/LtcChange>&lt;/LtcChangeTable>&lt;CreationDate value="2011-03-21T12:15:56+01:00">&lt;/CreationDate>&lt;TypicalUbit value="0000000017061020">&lt;/TypicalUbit>&lt;BodyUmidBasicChangeTable>&lt;BodyUmidBasicChange frameCount="0" value="060A2B340101010501010D433300000094852A78415605DC08004602022F05F5" status="start">&lt;/BodyUmidBasicChange>&lt;/BodyUmidBasicChangeTable>&lt;BodyUmidWhenChangeTable>&lt;BodyUmidWhenChange frameCount="0" value="0425DE03415605A5" status="increment">&lt;/BodyUmidWhenChange>&lt;BodyUmidWhenChange frameCount="965" value="4416DF03415605A5" status="end">&lt;/BodyUmidWhenChange>&lt;/BodyUmidWhenChangeTable>&lt;KlvPacketTable>&lt;KlvPacket key="060E2B34010101050301020A02000000" frameCount="0" lengthValue="095F5265635374617274" status="spot">&lt;/KlvPacket>&lt;/KlvPacketTable>&lt;VideoFormat>&lt;VideoRecPort port="DIRECT">&lt;/VideoRecPort>&lt;VideoFrame videoCodec="MPEG2HD35_1920_1080_MP@HL" captureFps="50.00i" recFps="50.00" formatFps="50i">&lt;/VideoFrame>&lt;VideoLayout pixel="1920" numOfVerticalLine="1080" aspectRatio="16:9">&lt;/VideoLayout>&lt;/VideoFormat>&lt;AudioFormat numOfChannel="2">&lt;AudioRecPort port="ANALOG" audioCodec="LPCM16" trackDst="CH1">&lt;/AudioRecPort>&lt;AudioRecPort port="ANALOG" audioCodec="LPCM16" trackDst="CH2">&lt;/AudioRecPort>&lt;/AudioFormat>&lt;Device manufacturer="Sony" modelName="PMW-EX3" serialNo="0401525">&lt;/Device>&lt;Lens modelName="VCL-614B2X">&lt;/Lens>&lt;RecordingMode type="normal" cacheRec="false">&lt;/RecordingMode>&lt;/NonRealTimeMeta>
							</value>
						</metadata>
						<metadata>
							<storage>QuickTime</storage>
							<key>com.apple.proapps.reel</key>
							<size>8</size>
							<type>UTF8</type>
							<value>Untitled</value>
						</metadata>
						<metadata>
							<storage>QuickTime</storage>
							<key>com.apple.proapps.clipID</key>
							<size>64</size>
							<type>UTF8</type>
							<value>060A2B340101010501010D431300000094852A78415605DC08004602022F05F5</value>
						</metadata>
						<metadata>
							<storage>QuickTime</storage>
							<key>com.apple.quicktime.information</key>
							<size>64</size>
							<type>UTF8</type>
							<value>060a2b340101010501010d431300000094852a78415605dc08004602022f05f5</value>
						</metadata>
						<metadata>
							<storage>QuickTime</storage>
							<key>com.apple.proapps.originalFormat</key>
							<size>36</size>
							<type>UTF8</type>
							<value>Apple XDCAM EX 1080i50 (35 Mb/s VBR)</value>
						</metadata>
						<timecode>
							<rate>
								<timebase>25</timebase>
							</rate>
							<string>09:35:26:20</string>
							<frame>863170</frame>
							<displayformat>NDF</displayformat>
							<source>source</source>
							<reel>
								<name>Untitled</name>
							</reel>
						</timecode>
						<media>
							<video>
								<duration>966</duration>
								<samplecharacteristics>
									<width>1920</width>
									<height>1080</height>
								</samplecharacteristics>
							</video>
							<audio>
								<samplecharacteristics>
									<samplerate>48000</samplerate>
									<depth>16</depth>
								</samplecharacteristics>
								<channelcount>1</channelcount>
								<layout>mono</layout>
								<audiochannel>
									<sourcechannel>1</sourcechannel>
									<channellabel>discrete</channellabel>
								</audiochannel>
							</audio>
							<audio>
								<samplecharacteristics>
									<samplerate>48000</samplerate>
									<depth>16</depth>
								</samplecharacteristics>
								<channelcount>1</channelcount>
								<layout>mono</layout>
								<audiochannel>
									<sourcechannel>2</sourcechannel>
									<channellabel>discrete</channellabel>
								</audiochannel>
							</audio>
						</media>
					</file>
					<sourcetrack>
						<mediatype>video</mediatype>
					</sourcetrack>
					<link>
						<linkclipref>DYR10531_01 </linkclipref>
						<mediatype>video</mediatype>
						<trackindex>1</trackindex>
						<clipindex>260</clipindex>
					</link>
					<fielddominance>upper</fielddominance>
					<itemhistory>
						<uuid>EEFC1281-C42D-44EA-B374-C2D7442FEE06</uuid>
					</itemhistory>
				</clipitem>
				<transitionitem>
					<rate>
						<ntsc>FALSE</ntsc>
						<timebase>25</timebase>
					</rate>
					<start>23517</start>
					<end>23527</end>
					<alignment>center</alignment>
					<effect>
						<name>Cross Dissolve</name>
						<effectid>Cross Dissolve</effectid>
						<effectcategory>Dissolve</effectcategory>
						<effecttype>transition</effecttype>
						<mediatype>video</mediatype>
						<wipecode>0</wipecode>
						<wipeaccuracy>100</wipeaccuracy>
						<startratio>0</startratio>
						<endratio>1</endratio>
						<reverse>FALSE</reverse>
					</effect>
				</transitionitem>
				<clipitem id="DYR10512_01 ">
					<name>DYR10512_01</name>
					<duration>335</duration>
					<rate>
						<ntsc>FALSE</ntsc>
						<timebase>25</timebase>
					</rate>
					<in>195</in>
					<out>248</out>
					<start>-1</start>
					<end>-1</end>
					<pixelaspectratio>Square</pixelaspectratio>
					<enabled>TRUE</enabled>
					<anamorphic>FALSE</anamorphic>
					<alphatype>none</alphatype>
					<masterclipid>DYR10512_01 1</masterclipid>
					<logginginfo>
						<scene/>
						<shottake/>
						<lognote/>
						<good>FALSE</good>
					</logginginfo>
					<labels>
						<label2/>
					</labels>
					<comments>
						<mastercomment1/>
						<mastercomment2/>
						<mastercomment3/>
						<mastercomment4/>
					</comments>
					<file id="DYR10512_01 2">
						<name>DYR10512_01.mov</name>
						<pathurl>file://localhost/Volumes/Askepott/Prosjekter/DNPR637010_Kra%CC%8Akeklubben_TEM_011212/Video/MUSIKKVIDEO/Vinter/EX-3/DYR10512_01.mov</pathurl>
						<rate>
							<timebase>25</timebase>
						</rate>
						<duration>335</duration>
						<metadata>
							<storage>QuickTime</storage>
							<key>com.sony.bprl.xdcamtransfer.version</key>
							<size>10</size>
							<type>UTF8</type>
							<value>2.12.0.631</value>
						</metadata>
						<metadata>
							<storage>QuickTime</storage>
							<key>org.smpte.mxf.package.material.packageid</key>
							<size>66</size>
							<type>UTF8</type>
							<value>0x060a2b340101010501010d4313000000923e7794375605dd08004602022f05f5</value>
						</metadata>
						<metadata>
							<storage>QuickTime</storage>
							<key>com.sony.professionaldisc.nonrealtimemeta.lastupdate</key>
							<size>25</size>
							<type>UTF8</type>
							<value>2011-03-17 14:55:21 +0100</value>
						</metadata>
						<metadata>
							<storage>QuickTime</storage>
							<key>com.sony.bprl.mxf.umid</key>
							<size>64</size>
							<type>UTF8</type>
							<value>060a2b340101010501010d4313000000923e7794375605dd08004602022f05f5</value>
						</metadata>
						<metadata>
							<storage>QuickTime</storage>
							<key>com.sony.bprl.mxf.nrtmetadata</key>
							<size>1991</size>
							<type>UTF8</type>
							<value>&lt;?xml version="1.0" encoding="UTF-8"?>&lt;NonRealTimeMeta xmlns="urn:schemas-professionalDisc:nonRealTimeMeta:ver.1.20" xmlns:lib="urn:schemas-professionalDisc:lib:ver.1.20" xmlns:xsi="http://www.w3.org/2001/XMLSchema-instance" lastUpdate="2011-03-17T14:55:21+01:00">&lt;TargetMaterial umidRef="060A2B340101010501010D4313000000923E7794375605DD08004602022F05F5">&lt;/TargetMaterial>&lt;Duration value="335">&lt;/Duration>&lt;LtcChangeTable tcFps="25" halfStep="false">&lt;LtcChange frameCount="0" value="19023009" status="increment">&lt;/LtcChange>&lt;LtcChange frameCount="334" value="03163009" status="end">&lt;/LtcChange>&lt;/LtcChangeTable>&lt;CreationDate value="2011-03-17T14:55:07+01:00">&lt;/CreationDate>&lt;TypicalUbit value="0000000017061020">&lt;/TypicalUbit>&lt;BodyUmidBasicChangeTable>&lt;BodyUmidBasicChange frameCount="0" value="060A2B340101010501010D4333000000923E7794375605DD08004602022F05F5" status="start">&lt;/BodyUmidBasicChange>&lt;/BodyUmidBasicChangeTable>&lt;BodyUmidWhenChangeTable>&lt;BodyUmidWhenChange frameCount="0" value="0454C704375605A5" status="increment">&lt;/BodyUmidWhenChange>&lt;BodyUmidWhenChange frameCount="334" value="84A7C704375605A5" status="end">&lt;/BodyUmidWhenChange>&lt;/BodyUmidWhenChangeTable>&lt;KlvPacketTable>&lt;KlvPacket key="060E2B34010101050301020A02000000" frameCount="0" lengthValue="095F5265635374617274" status="spot">&lt;/KlvPacket>&lt;/KlvPacketTable>&lt;VideoFormat>&lt;VideoRecPort port="DIRECT">&lt;/VideoRecPort>&lt;VideoFrame videoCodec="MPEG2HD35_1920_1080_MP@HL" captureFps="50.00i" recFps="50.00" formatFps="50i">&lt;/VideoFrame>&lt;VideoLayout pixel="1920" numOfVerticalLine="1080" aspectRatio="16:9">&lt;/VideoLayout>&lt;/VideoFormat>&lt;AudioFormat numOfChannel="2">&lt;AudioRecPort port="ANALOG" audioCodec="LPCM16" trackDst="CH1">&lt;/AudioRecPort>&lt;AudioRecPort port="ANALOG" audioCodec="LPCM16" trackDst="CH2">&lt;/AudioRecPort>&lt;/AudioFormat>&lt;Device manufacturer="Sony" modelName="PMW-EX3" serialNo="0401525">&lt;/Device>&lt;Lens modelName="VCL-614B2X">&lt;/Lens>&lt;RecordingMode type="normal" cacheRec="false">&lt;/RecordingMode>&lt;/NonRealTimeMeta>
							</value>
						</metadata>
						<metadata>
							<storage>QuickTime</storage>
							<key>com.apple.proapps.reel</key>
							<size>8</size>
							<type>UTF8</type>
							<value>Untitled</value>
						</metadata>
						<metadata>
							<storage>QuickTime</storage>
							<key>com.apple.proapps.clipID</key>
							<size>64</size>
							<type>UTF8</type>
							<value>060A2B340101010501010D4313000000923E7794375605DD08004602022F05F5</value>
						</metadata>
						<metadata>
							<storage>QuickTime</storage>
							<key>com.apple.quicktime.information</key>
							<size>64</size>
							<type>UTF8</type>
							<value>060a2b340101010501010d4313000000923e7794375605dd08004602022f05f5</value>
						</metadata>
						<metadata>
							<storage>QuickTime</storage>
							<key>com.apple.proapps.originalFormat</key>
							<size>36</size>
							<type>UTF8</type>
							<value>Apple XDCAM EX 1080i50 (35 Mb/s VBR)</value>
						</metadata>
						<timecode>
							<rate>
								<timebase>25</timebase>
							</rate>
							<string>09:30:02:19</string>
							<frame>855069</frame>
							<displayformat>NDF</displayformat>
							<source>source</source>
							<reel>
								<name>Untitled</name>
							</reel>
						</timecode>
						<media>
							<video>
								<duration>335</duration>
								<samplecharacteristics>
									<width>1920</width>
									<height>1080</height>
								</samplecharacteristics>
							</video>
							<audio>
								<samplecharacteristics>
									<samplerate>48000</samplerate>
									<depth>16</depth>
								</samplecharacteristics>
								<channelcount>1</channelcount>
								<layout>mono</layout>
								<audiochannel>
									<sourcechannel>1</sourcechannel>
									<channellabel>discrete</channellabel>
								</audiochannel>
							</audio>
							<audio>
								<samplecharacteristics>
									<samplerate>48000</samplerate>
									<depth>16</depth>
								</samplecharacteristics>
								<channelcount>1</channelcount>
								<layout>mono</layout>
								<audiochannel>
									<sourcechannel>2</sourcechannel>
									<channellabel>discrete</channellabel>
								</audiochannel>
							</audio>
						</media>
					</file>
					<sourcetrack>
						<mediatype>video</mediatype>
					</sourcetrack>
					<link>
						<linkclipref>DYR10512_01 </linkclipref>
						<mediatype>video</mediatype>
						<trackindex>1</trackindex>
						<clipindex>262</clipindex>
					</link>
					<fielddominance>upper</fielddominance>
					<itemhistory>
						<uuid>8D44471D-DE41-47A0-A496-86DF5F76D773</uuid>
					</itemhistory>
				</clipitem>
				<transitionitem>
					<rate>
						<ntsc>FALSE</ntsc>
						<timebase>25</timebase>
					</rate>
					<start>23555</start>
					<end>23570</end>
					<alignment>center</alignment>
					<effect>
						<name>Cross Dissolve</name>
						<effectid>Cross Dissolve</effectid>
						<effectcategory>Dissolve</effectcategory>
						<effecttype>transition</effecttype>
						<mediatype>video</mediatype>
						<wipecode>0</wipecode>
						<wipeaccuracy>100</wipeaccuracy>
						<startratio>0</startratio>
						<endratio>1</endratio>
						<reverse>FALSE</reverse>
					</effect>
				</transitionitem>
				<clipitem id="DYR10513_01 ">
					<name>DYR10513_01</name>
					<duration>179</duration>
					<rate>
						<ntsc>FALSE</ntsc>
						<timebase>25</timebase>
					</rate>
					<in>31</in>
					<out>100</out>
					<start>-1</start>
					<end>-1</end>
					<pixelaspectratio>Square</pixelaspectratio>
					<enabled>TRUE</enabled>
					<anamorphic>FALSE</anamorphic>
					<alphatype>none</alphatype>
					<masterclipid>DYR10513_01 1</masterclipid>
					<logginginfo>
						<scene/>
						<shottake/>
						<lognote/>
						<good>FALSE</good>
					</logginginfo>
					<labels>
						<label2/>
					</labels>
					<comments>
						<mastercomment1/>
						<mastercomment2/>
						<mastercomment3/>
						<mastercomment4/>
					</comments>
					<file id="DYR10513_01 2">
						<name>DYR10513_01.mov</name>
						<pathurl>file://localhost/Volumes/Askepott/Prosjekter/DNPR637010_Kra%CC%8Akeklubben_TEM_011212/Video/MUSIKKVIDEO/Vinter/EX-3/DYR10513_01.mov</pathurl>
						<rate>
							<timebase>25</timebase>
						</rate>
						<duration>179</duration>
						<metadata>
							<storage>QuickTime</storage>
							<key>com.sony.bprl.xdcamtransfer.version</key>
							<size>10</size>
							<type>UTF8</type>
							<value>2.12.0.631</value>
						</metadata>
						<metadata>
							<storage>QuickTime</storage>
							<key>org.smpte.mxf.package.material.packageid</key>
							<size>66</size>
							<type>UTF8</type>
							<value>0x060a2b340101010501010d431300000089e18794375605cb08004602022f05f5</value>
						</metadata>
						<metadata>
							<storage>QuickTime</storage>
							<key>com.sony.professionaldisc.nonrealtimemeta.lastupdate</key>
							<size>25</size>
							<type>UTF8</type>
							<value>2011-03-17 14:55:37 +0100</value>
						</metadata>
						<metadata>
							<storage>QuickTime</storage>
							<key>com.sony.bprl.mxf.umid</key>
							<size>64</size>
							<type>UTF8</type>
							<value>060a2b340101010501010d431300000089e18794375605cb08004602022f05f5</value>
						</metadata>
						<metadata>
							<storage>QuickTime</storage>
							<key>com.sony.bprl.mxf.nrtmetadata</key>
							<size>1991</size>
							<type>UTF8</type>
							<value>&lt;?xml version="1.0" encoding="UTF-8"?>&lt;NonRealTimeMeta xmlns="urn:schemas-professionalDisc:nonRealTimeMeta:ver.1.20" xmlns:lib="urn:schemas-professionalDisc:lib:ver.1.20" xmlns:xsi="http://www.w3.org/2001/XMLSchema-instance" lastUpdate="2011-03-17T14:55:37+01:00">&lt;TargetMaterial umidRef="060A2B340101010501010D431300000089E18794375605CB08004602022F05F5">&lt;/TargetMaterial>&lt;Duration value="179">&lt;/Duration>&lt;LtcChangeTable tcFps="25" halfStep="false">&lt;LtcChange frameCount="0" value="04163009" status="increment">&lt;/LtcChange>&lt;LtcChange frameCount="178" value="07233009" status="end">&lt;/LtcChange>&lt;/LtcChangeTable>&lt;CreationDate value="2011-03-17T14:55:29+01:00">&lt;/CreationDate>&lt;TypicalUbit value="0000000017061020">&lt;/TypicalUbit>&lt;BodyUmidBasicChangeTable>&lt;BodyUmidBasicChange frameCount="0" value="060A2B340101010501010D433300000089E18794375605CB08004602022F05F5" status="start">&lt;/BodyUmidBasicChange>&lt;/BodyUmidBasicChangeTable>&lt;BodyUmidWhenChangeTable>&lt;BodyUmidWhenChange frameCount="0" value="04DDC704375605A5" status="increment">&lt;/BodyUmidWhenChange>&lt;BodyUmidWhenChange frameCount="178" value="8409C804375605A5" status="end">&lt;/BodyUmidWhenChange>&lt;/BodyUmidWhenChangeTable>&lt;KlvPacketTable>&lt;KlvPacket key="060E2B34010101050301020A02000000" frameCount="0" lengthValue="095F5265635374617274" status="spot">&lt;/KlvPacket>&lt;/KlvPacketTable>&lt;VideoFormat>&lt;VideoRecPort port="DIRECT">&lt;/VideoRecPort>&lt;VideoFrame videoCodec="MPEG2HD35_1920_1080_MP@HL" captureFps="50.00i" recFps="50.00" formatFps="50i">&lt;/VideoFrame>&lt;VideoLayout pixel="1920" numOfVerticalLine="1080" aspectRatio="16:9">&lt;/VideoLayout>&lt;/VideoFormat>&lt;AudioFormat numOfChannel="2">&lt;AudioRecPort port="ANALOG" audioCodec="LPCM16" trackDst="CH1">&lt;/AudioRecPort>&lt;AudioRecPort port="ANALOG" audioCodec="LPCM16" trackDst="CH2">&lt;/AudioRecPort>&lt;/AudioFormat>&lt;Device manufacturer="Sony" modelName="PMW-EX3" serialNo="0401525">&lt;/Device>&lt;Lens modelName="VCL-614B2X">&lt;/Lens>&lt;RecordingMode type="normal" cacheRec="false">&lt;/RecordingMode>&lt;/NonRealTimeMeta>
							</value>
						</metadata>
						<metadata>
							<storage>QuickTime</storage>
							<key>com.apple.proapps.reel</key>
							<size>8</size>
							<type>UTF8</type>
							<value>Untitled</value>
						</metadata>
						<metadata>
							<storage>QuickTime</storage>
							<key>com.apple.proapps.clipID</key>
							<size>64</size>
							<type>UTF8</type>
							<value>060A2B340101010501010D431300000089E18794375605CB08004602022F05F5</value>
						</metadata>
						<metadata>
							<storage>QuickTime</storage>
							<key>com.apple.quicktime.information</key>
							<size>64</size>
							<type>UTF8</type>
							<value>060a2b340101010501010d431300000089e18794375605cb08004602022f05f5</value>
						</metadata>
						<metadata>
							<storage>QuickTime</storage>
							<key>com.apple.proapps.originalFormat</key>
							<size>36</size>
							<type>UTF8</type>
							<value>Apple XDCAM EX 1080i50 (35 Mb/s VBR)</value>
						</metadata>
						<timecode>
							<rate>
								<timebase>25</timebase>
							</rate>
							<string>09:30:16:04</string>
							<frame>855404</frame>
							<displayformat>NDF</displayformat>
							<source>source</source>
							<reel>
								<name>Untitled</name>
							</reel>
						</timecode>
						<media>
							<video>
								<duration>179</duration>
								<samplecharacteristics>
									<width>1920</width>
									<height>1080</height>
								</samplecharacteristics>
							</video>
							<audio>
								<samplecharacteristics>
									<samplerate>48000</samplerate>
									<depth>16</depth>
								</samplecharacteristics>
								<channelcount>1</channelcount>
								<layout>mono</layout>
								<audiochannel>
									<sourcechannel>1</sourcechannel>
									<channellabel>discrete</channellabel>
								</audiochannel>
							</audio>
							<audio>
								<samplecharacteristics>
									<samplerate>48000</samplerate>
									<depth>16</depth>
								</samplecharacteristics>
								<channelcount>1</channelcount>
								<layout>mono</layout>
								<audiochannel>
									<sourcechannel>2</sourcechannel>
									<channellabel>discrete</channellabel>
								</audiochannel>
							</audio>
						</media>
					</file>
					<sourcetrack>
						<mediatype>video</mediatype>
					</sourcetrack>
					<fielddominance>upper</fielddominance>
					<itemhistory>
						<uuid>CDEC5294-001D-4E4E-ADDD-0A2FC777C1F1</uuid>
					</itemhistory>
				</clipitem>
				<transitionitem>
					<rate>
						<ntsc>FALSE</ntsc>
						<timebase>25</timebase>
					</rate>
					<start>23599</start>
					<end>23624</end>
					<alignment>center</alignment>
					<effect>
						<name>Cross Dissolve</name>
						<effectid>Cross Dissolve</effectid>
						<effectcategory>Dissolve</effectcategory>
						<effecttype>transition</effecttype>
						<mediatype>video</mediatype>
						<wipecode>0</wipecode>
						<wipeaccuracy>100</wipeaccuracy>
						<startratio>0</startratio>
						<endratio>1</endratio>
						<reverse>FALSE</reverse>
					</effect>
				</transitionitem>
				<clipitem id="DYR10512_01 3">
					<name>DYR10512_01</name>
					<duration>335</duration>
					<rate>
						<ntsc>FALSE</ntsc>
						<timebase>25</timebase>
					</rate>
					<in>95</in>
					<out>168</out>
					<start>-1</start>
					<end>-1</end>
					<pixelaspectratio>Square</pixelaspectratio>
					<enabled>TRUE</enabled>
					<anamorphic>FALSE</anamorphic>
					<alphatype>none</alphatype>
					<masterclipid>DYR10512_01 4</masterclipid>
					<logginginfo>
						<scene/>
						<shottake/>
						<lognote/>
						<good>FALSE</good>
					</logginginfo>
					<labels>
						<label2/>
					</labels>
					<comments>
						<mastercomment1/>
						<mastercomment2/>
						<mastercomment3/>
						<mastercomment4/>
					</comments>
					<file id="DYR10512_01 2"/>
					<sourcetrack>
						<mediatype>video</mediatype>
					</sourcetrack>
					<fielddominance>upper</fielddominance>
					<itemhistory>
						<uuid>0257E7CB-4A4A-45EA-95BE-86C8507367C2</uuid>
					</itemhistory>
				</clipitem>
				<transitionitem>
					<rate>
						<ntsc>FALSE</ntsc>
						<timebase>25</timebase>
					</rate>
					<start>23647</start>
					<end>23672</end>
					<alignment>center</alignment>
					<effect>
						<name>Cross Dissolve</name>
						<effectid>Cross Dissolve</effectid>
						<effectcategory>Dissolve</effectcategory>
						<effecttype>transition</effecttype>
						<mediatype>video</mediatype>
						<wipecode>0</wipecode>
						<wipeaccuracy>100</wipeaccuracy>
						<startratio>0</startratio>
						<endratio>1</endratio>
						<reverse>FALSE</reverse>
					</effect>
				</transitionitem>
				<clipitem id="DYR10514_01 ">
					<name>DYR10514_01</name>
					<duration>377</duration>
					<rate>
						<ntsc>FALSE</ntsc>
						<timebase>25</timebase>
					</rate>
					<in>45</in>
					<out>115</out>
					<start>-1</start>
					<end>-1</end>
					<pixelaspectratio>Square</pixelaspectratio>
					<enabled>TRUE</enabled>
					<anamorphic>FALSE</anamorphic>
					<alphatype>none</alphatype>
					<masterclipid>DYR10514_01 1</masterclipid>
					<logginginfo>
						<scene/>
						<shottake/>
						<lognote/>
						<good>FALSE</good>
					</logginginfo>
					<labels>
						<label2/>
					</labels>
					<comments>
						<mastercomment1/>
						<mastercomment2/>
						<mastercomment3/>
						<mastercomment4/>
					</comments>
					<file id="DYR10514_01 2">
						<name>DYR10514_01.mov</name>
						<pathurl>file://localhost/Volumes/Askepott/Prosjekter/DNPR637010_Kra%CC%8Akeklubben_TEM_011212/Video/MUSIKKVIDEO/Vinter/EX-3/DYR10514_01.mov</pathurl>
						<rate>
							<timebase>25</timebase>
						</rate>
						<duration>377</duration>
						<metadata>
							<storage>QuickTime</storage>
							<key>com.sony.bprl.xdcamtransfer.version</key>
							<size>10</size>
							<type>UTF8</type>
							<value>2.12.0.631</value>
						</metadata>
						<metadata>
							<storage>QuickTime</storage>
							<key>org.smpte.mxf.package.material.packageid</key>
							<size>66</size>
							<type>UTF8</type>
							<value>0x060a2b340101010501010d4313000000e36b8f94375605d808004602022f05f5</value>
						</metadata>
						<metadata>
							<storage>QuickTime</storage>
							<key>com.sony.professionaldisc.nonrealtimemeta.lastupdate</key>
							<size>25</size>
							<type>UTF8</type>
							<value>2011-03-17 14:55:55 +0100</value>
						</metadata>
						<metadata>
							<storage>QuickTime</storage>
							<key>com.sony.bprl.mxf.umid</key>
							<size>64</size>
							<type>UTF8</type>
							<value>060a2b340101010501010d4313000000e36b8f94375605d808004602022f05f5</value>
						</metadata>
						<metadata>
							<storage>QuickTime</storage>
							<key>com.sony.bprl.mxf.nrtmetadata</key>
							<size>1991</size>
							<type>UTF8</type>
							<value>&lt;?xml version="1.0" encoding="UTF-8"?>&lt;NonRealTimeMeta xmlns="urn:schemas-professionalDisc:nonRealTimeMeta:ver.1.20" xmlns:lib="urn:schemas-professionalDisc:lib:ver.1.20" xmlns:xsi="http://www.w3.org/2001/XMLSchema-instance" lastUpdate="2011-03-17T14:55:55+01:00">&lt;TargetMaterial umidRef="060A2B340101010501010D4313000000E36B8F94375605D808004602022F05F5">&lt;/TargetMaterial>&lt;Duration value="377">&lt;/Duration>&lt;LtcChangeTable tcFps="25" halfStep="false">&lt;LtcChange frameCount="0" value="08233009" status="increment">&lt;/LtcChange>&lt;LtcChange frameCount="376" value="09383009" status="end">&lt;/LtcChange>&lt;/LtcChangeTable>&lt;CreationDate value="2011-03-17T14:55:39+01:00">&lt;/CreationDate>&lt;TypicalUbit value="0000000017061020">&lt;/TypicalUbit>&lt;BodyUmidBasicChangeTable>&lt;BodyUmidBasicChange frameCount="0" value="060A2B340101010501010D4333000000E36B8F94375605D808004602022F05F5" status="start">&lt;/BodyUmidBasicChange>&lt;/BodyUmidBasicChangeTable>&lt;BodyUmidWhenChangeTable>&lt;BodyUmidWhenChange frameCount="0" value="441BC804375605A5" status="increment">&lt;/BodyUmidWhenChange>&lt;BodyUmidWhenChange frameCount="376" value="4479C804375605A5" status="end">&lt;/BodyUmidWhenChange>&lt;/BodyUmidWhenChangeTable>&lt;KlvPacketTable>&lt;KlvPacket key="060E2B34010101050301020A02000000" frameCount="0" lengthValue="095F5265635374617274" status="spot">&lt;/KlvPacket>&lt;/KlvPacketTable>&lt;VideoFormat>&lt;VideoRecPort port="DIRECT">&lt;/VideoRecPort>&lt;VideoFrame videoCodec="MPEG2HD35_1920_1080_MP@HL" captureFps="50.00i" recFps="50.00" formatFps="50i">&lt;/VideoFrame>&lt;VideoLayout pixel="1920" numOfVerticalLine="1080" aspectRatio="16:9">&lt;/VideoLayout>&lt;/VideoFormat>&lt;AudioFormat numOfChannel="2">&lt;AudioRecPort port="ANALOG" audioCodec="LPCM16" trackDst="CH1">&lt;/AudioRecPort>&lt;AudioRecPort port="ANALOG" audioCodec="LPCM16" trackDst="CH2">&lt;/AudioRecPort>&lt;/AudioFormat>&lt;Device manufacturer="Sony" modelName="PMW-EX3" serialNo="0401525">&lt;/Device>&lt;Lens modelName="VCL-614B2X">&lt;/Lens>&lt;RecordingMode type="normal" cacheRec="false">&lt;/RecordingMode>&lt;/NonRealTimeMeta>
							</value>
						</metadata>
						<metadata>
							<storage>QuickTime</storage>
							<key>com.apple.proapps.reel</key>
							<size>8</size>
							<type>UTF8</type>
							<value>Untitled</value>
						</metadata>
						<metadata>
							<storage>QuickTime</storage>
							<key>com.apple.proapps.clipID</key>
							<size>64</size>
							<type>UTF8</type>
							<value>060A2B340101010501010D4313000000E36B8F94375605D808004602022F05F5</value>
						</metadata>
						<metadata>
							<storage>QuickTime</storage>
							<key>com.apple.quicktime.information</key>
							<size>64</size>
							<type>UTF8</type>
							<value>060a2b340101010501010d4313000000e36b8f94375605d808004602022f05f5</value>
						</metadata>
						<metadata>
							<storage>QuickTime</storage>
							<key>com.apple.proapps.originalFormat</key>
							<size>36</size>
							<type>UTF8</type>
							<value>Apple XDCAM EX 1080i50 (35 Mb/s VBR)</value>
						</metadata>
						<timecode>
							<rate>
								<timebase>25</timebase>
							</rate>
							<string>09:30:23:08</string>
							<frame>855583</frame>
							<displayformat>NDF</displayformat>
							<source>source</source>
							<reel>
								<name>Untitled</name>
							</reel>
						</timecode>
						<media>
							<video>
								<duration>377</duration>
								<samplecharacteristics>
									<width>1920</width>
									<height>1080</height>
								</samplecharacteristics>
							</video>
							<audio>
								<samplecharacteristics>
									<samplerate>48000</samplerate>
									<depth>16</depth>
								</samplecharacteristics>
								<channelcount>1</channelcount>
								<layout>mono</layout>
								<audiochannel>
									<sourcechannel>1</sourcechannel>
									<channellabel>discrete</channellabel>
								</audiochannel>
							</audio>
							<audio>
								<samplecharacteristics>
									<samplerate>48000</samplerate>
									<depth>16</depth>
								</samplecharacteristics>
								<channelcount>1</channelcount>
								<layout>mono</layout>
								<audiochannel>
									<sourcechannel>2</sourcechannel>
									<channellabel>discrete</channellabel>
								</audiochannel>
							</audio>
						</media>
					</file>
					<sourcetrack>
						<mediatype>video</mediatype>
					</sourcetrack>
					<fielddominance>upper</fielddominance>
					<itemhistory>
						<uuid>156C06FD-6A7B-4945-92D2-63F6A3BA33B0</uuid>
					</itemhistory>
				</clipitem>
				<transitionitem>
					<rate>
						<ntsc>FALSE</ntsc>
						<timebase>25</timebase>
					</rate>
					<start>23692</start>
					<end>23717</end>
					<alignment>center</alignment>
					<effect>
						<name>Cross Dissolve</name>
						<effectid>Cross Dissolve</effectid>
						<effectcategory>Dissolve</effectcategory>
						<effecttype>transition</effecttype>
						<mediatype>video</mediatype>
						<wipecode>0</wipecode>
						<wipeaccuracy>100</wipeaccuracy>
						<startratio>0</startratio>
						<endratio>1</endratio>
						<reverse>FALSE</reverse>
					</effect>
				</transitionitem>
				<clipitem id="DYR10512_01 5">
					<name>DYR10512_01</name>
					<duration>335</duration>
					<rate>
						<ntsc>FALSE</ntsc>
						<timebase>25</timebase>
					</rate>
					<in>159</in>
					<out>224</out>
					<start>-1</start>
					<end>-1</end>
					<pixelaspectratio>Square</pixelaspectratio>
					<enabled>TRUE</enabled>
					<anamorphic>FALSE</anamorphic>
					<alphatype>none</alphatype>
					<masterclipid>DYR10512_01 4</masterclipid>
					<logginginfo>
						<scene/>
						<shottake/>
						<lognote/>
						<good>FALSE</good>
					</logginginfo>
					<labels>
						<label2/>
					</labels>
					<comments>
						<mastercomment1/>
						<mastercomment2/>
						<mastercomment3/>
						<mastercomment4/>
					</comments>
					<file id="DYR10512_01 2"/>
					<sourcetrack>
						<mediatype>video</mediatype>
					</sourcetrack>
					<fielddominance>upper</fielddominance>
					<itemhistory>
						<uuid>D946A9CC-8E02-4F98-93ED-5C40E824C35D</uuid>
					</itemhistory>
				</clipitem>
				<transitionitem>
					<rate>
						<ntsc>FALSE</ntsc>
						<timebase>25</timebase>
					</rate>
					<start>23732</start>
					<end>23757</end>
					<alignment>center</alignment>
					<effect>
						<name>Cross Dissolve</name>
						<effectid>Cross Dissolve</effectid>
						<effectcategory>Dissolve</effectcategory>
						<effecttype>transition</effecttype>
						<mediatype>video</mediatype>
						<wipecode>0</wipecode>
						<wipeaccuracy>100</wipeaccuracy>
						<startratio>0</startratio>
						<endratio>1</endratio>
						<reverse>FALSE</reverse>
					</effect>
				</transitionitem>
				<clipitem id="DYR10446_01 ">
					<name>DYR10446_01</name>
					<duration>606</duration>
					<rate>
						<ntsc>FALSE</ntsc>
						<timebase>25</timebase>
					</rate>
					<in>133</in>
					<out>207</out>
					<start>-1</start>
					<end>23806</end>
					<pixelaspectratio>Square</pixelaspectratio>
					<enabled>TRUE</enabled>
					<anamorphic>FALSE</anamorphic>
					<alphatype>none</alphatype>
					<masterclipid>DYR10446_01 1</masterclipid>
					<logginginfo>
						<scene/>
						<shottake/>
						<lognote/>
						<good>FALSE</good>
					</logginginfo>
					<labels>
						<label2/>
					</labels>
					<comments>
						<mastercomment1/>
						<mastercomment2/>
						<mastercomment3/>
						<mastercomment4/>
					</comments>
					<file id="DYR10446_01 2">
						<name>DYR10446_01.mov</name>
						<pathurl>file://localhost/Volumes/Askepott/Prosjekter/DNPR637010_Kra%CC%8Akeklubben_TEM_011212/Video/MUSIKKVIDEO/Vinter/EX-3/DYR10446_01.mov</pathurl>
						<rate>
							<timebase>25</timebase>
						</rate>
						<duration>606</duration>
						<metadata>
							<storage>QuickTime</storage>
							<key>com.sony.bprl.xdcamtransfer.version</key>
							<size>10</size>
							<type>UTF8</type>
							<value>2.12.0.631</value>
						</metadata>
						<metadata>
							<storage>QuickTime</storage>
							<key>org.smpte.mxf.package.material.packageid</key>
							<size>66</size>
							<type>UTF8</type>
							<value>0x060a2b340101010501010d4313000000c11ef170375605ca08004602022f05f5</value>
						</metadata>
						<metadata>
							<storage>QuickTime</storage>
							<key>com.sony.professionaldisc.nonrealtimemeta.lastupdate</key>
							<size>25</size>
							<type>UTF8</type>
							<value>2011-03-17 11:35:43 +0100</value>
						</metadata>
						<metadata>
							<storage>QuickTime</storage>
							<key>com.sony.bprl.mxf.umid</key>
							<size>64</size>
							<type>UTF8</type>
							<value>060a2b340101010501010d4313000000c11ef170375605ca08004602022f05f5</value>
						</metadata>
						<metadata>
							<storage>QuickTime</storage>
							<key>com.sony.bprl.mxf.nrtmetadata</key>
							<size>1991</size>
							<type>UTF8</type>
							<value>&lt;?xml version="1.0" encoding="UTF-8"?>&lt;NonRealTimeMeta xmlns="urn:schemas-professionalDisc:nonRealTimeMeta:ver.1.20" xmlns:lib="urn:schemas-professionalDisc:lib:ver.1.20" xmlns:xsi="http://www.w3.org/2001/XMLSchema-instance" lastUpdate="2011-03-17T11:35:43+01:00">&lt;TargetMaterial umidRef="060A2B340101010501010D4313000000C11EF170375605CA08004602022F05F5">&lt;/TargetMaterial>&lt;Duration value="606">&lt;/Duration>&lt;LtcChangeTable tcFps="25" halfStep="false">&lt;LtcChange frameCount="0" value="05160809" status="increment">&lt;/LtcChange>&lt;LtcChange frameCount="605" value="10400809" status="end">&lt;/LtcChange>&lt;/LtcChangeTable>&lt;CreationDate value="2011-03-17T11:35:17+01:00">&lt;/CreationDate>&lt;TypicalUbit value="0000000017061020">&lt;/TypicalUbit>&lt;BodyUmidBasicChangeTable>&lt;BodyUmidBasicChange frameCount="0" value="060A2B340101010501010D4333000000C11EF170375605CA08004602022F05F5" status="start">&lt;/BodyUmidBasicChange>&lt;/BodyUmidBasicChangeTable>&lt;BodyUmidWhenChangeTable>&lt;BodyUmidWhenChange frameCount="0" value="449FA203375605A5" status="increment">&lt;/BodyUmidWhenChange>&lt;BodyUmidWhenChange frameCount="605" value="8436A303375605A5" status="end">&lt;/BodyUmidWhenChange>&lt;/BodyUmidWhenChangeTable>&lt;KlvPacketTable>&lt;KlvPacket key="060E2B34010101050301020A02000000" frameCount="0" lengthValue="095F5265635374617274" status="spot">&lt;/KlvPacket>&lt;/KlvPacketTable>&lt;VideoFormat>&lt;VideoRecPort port="DIRECT">&lt;/VideoRecPort>&lt;VideoFrame videoCodec="MPEG2HD35_1920_1080_MP@HL" captureFps="50.00i" recFps="50.00" formatFps="50i">&lt;/VideoFrame>&lt;VideoLayout pixel="1920" numOfVerticalLine="1080" aspectRatio="16:9">&lt;/VideoLayout>&lt;/VideoFormat>&lt;AudioFormat numOfChannel="2">&lt;AudioRecPort port="ANALOG" audioCodec="LPCM16" trackDst="CH1">&lt;/AudioRecPort>&lt;AudioRecPort port="ANALOG" audioCodec="LPCM16" trackDst="CH2">&lt;/AudioRecPort>&lt;/AudioFormat>&lt;Device manufacturer="Sony" modelName="PMW-EX3" serialNo="0401525">&lt;/Device>&lt;Lens modelName="VCL-614B2X">&lt;/Lens>&lt;RecordingMode type="normal" cacheRec="false">&lt;/RecordingMode>&lt;/NonRealTimeMeta>
							</value>
						</metadata>
						<metadata>
							<storage>QuickTime</storage>
							<key>com.apple.proapps.reel</key>
							<size>8</size>
							<type>UTF8</type>
							<value>Untitled</value>
						</metadata>
						<metadata>
							<storage>QuickTime</storage>
							<key>com.apple.proapps.clipID</key>
							<size>64</size>
							<type>UTF8</type>
							<value>060A2B340101010501010D4313000000C11EF170375605CA08004602022F05F5</value>
						</metadata>
						<metadata>
							<storage>QuickTime</storage>
							<key>com.apple.quicktime.information</key>
							<size>64</size>
							<type>UTF8</type>
							<value>060a2b340101010501010d4313000000c11ef170375605ca08004602022f05f5</value>
						</metadata>
						<metadata>
							<storage>QuickTime</storage>
							<key>com.apple.proapps.originalFormat</key>
							<size>36</size>
							<type>UTF8</type>
							<value>Apple XDCAM EX 1080i50 (35 Mb/s VBR)</value>
						</metadata>
						<timecode>
							<rate>
								<timebase>25</timebase>
							</rate>
							<string>09:08:16:05</string>
							<frame>822405</frame>
							<displayformat>NDF</displayformat>
							<source>source</source>
							<reel>
								<name>Untitled</name>
							</reel>
						</timecode>
						<media>
							<video>
								<duration>606</duration>
								<samplecharacteristics>
									<width>1920</width>
									<height>1080</height>
								</samplecharacteristics>
							</video>
							<audio>
								<samplecharacteristics>
									<samplerate>48000</samplerate>
									<depth>16</depth>
								</samplecharacteristics>
								<channelcount>1</channelcount>
								<layout>mono</layout>
								<audiochannel>
									<sourcechannel>1</sourcechannel>
									<channellabel>discrete</channellabel>
								</audiochannel>
							</audio>
							<audio>
								<samplecharacteristics>
									<samplerate>48000</samplerate>
									<depth>16</depth>
								</samplecharacteristics>
								<channelcount>1</channelcount>
								<layout>mono</layout>
								<audiochannel>
									<sourcechannel>2</sourcechannel>
									<channellabel>discrete</channellabel>
								</audiochannel>
							</audio>
						</media>
					</file>
					<sourcetrack>
						<mediatype>video</mediatype>
					</sourcetrack>
					<fielddominance>upper</fielddominance>
					<itemhistory>
						<uuid>F94DA461-825F-4638-ACBC-32A8C818D91D</uuid>
					</itemhistory>
				</clipitem>
				<clipitem id="DYR10447_01 ">
					<name>DYR10447_01</name>
					<duration>748</duration>
					<rate>
						<ntsc>FALSE</ntsc>
						<timebase>25</timebase>
					</rate>
					<in>290</in>
					<out>321</out>
					<start>23806</start>
					<end>23837</end>
					<pixelaspectratio>Square</pixelaspectratio>
					<enabled>TRUE</enabled>
					<anamorphic>FALSE</anamorphic>
					<alphatype>none</alphatype>
					<masterclipid>DYR10447_01 1</masterclipid>
					<logginginfo>
						<scene/>
						<shottake/>
						<lognote/>
						<good>FALSE</good>
					</logginginfo>
					<labels>
						<label2/>
					</labels>
					<comments>
						<mastercomment1/>
						<mastercomment2/>
						<mastercomment3/>
						<mastercomment4/>
					</comments>
					<file id="DYR10447_01 2">
						<name>DYR10447_01.mov</name>
						<pathurl>file://localhost/Volumes/Askepott/Prosjekter/DNPR637010_Kra%CC%8Akeklubben_TEM_011212/Video/MUSIKKVIDEO/Vinter/EX-3/DYR10447_01.mov</pathurl>
						<rate>
							<timebase>25</timebase>
						</rate>
						<duration>748</duration>
						<metadata>
							<storage>QuickTime</storage>
							<key>com.sony.bprl.xdcamtransfer.version</key>
							<size>10</size>
							<type>UTF8</type>
							<value>2.12.0.631</value>
						</metadata>
						<metadata>
							<storage>QuickTime</storage>
							<key>org.smpte.mxf.package.material.packageid</key>
							<size>66</size>
							<type>UTF8</type>
							<value>0x060a2b340101010501010d43130000006532d271375605cd08004602022f05f5</value>
						</metadata>
						<metadata>
							<storage>QuickTime</storage>
							<key>com.sony.professionaldisc.nonrealtimemeta.lastupdate</key>
							<size>25</size>
							<type>UTF8</type>
							<value>2011-03-17 11:40:45 +0100</value>
						</metadata>
						<metadata>
							<storage>QuickTime</storage>
							<key>com.sony.bprl.mxf.umid</key>
							<size>64</size>
							<type>UTF8</type>
							<value>060a2b340101010501010d43130000006532d271375605cd08004602022f05f5</value>
						</metadata>
						<metadata>
							<storage>QuickTime</storage>
							<key>com.sony.bprl.mxf.nrtmetadata</key>
							<size>1991</size>
							<type>UTF8</type>
							<value>&lt;?xml version="1.0" encoding="UTF-8"?>&lt;NonRealTimeMeta xmlns="urn:schemas-professionalDisc:nonRealTimeMeta:ver.1.20" xmlns:lib="urn:schemas-professionalDisc:lib:ver.1.20" xmlns:xsi="http://www.w3.org/2001/XMLSchema-instance" lastUpdate="2011-03-17T11:40:45+01:00">&lt;TargetMaterial umidRef="060A2B340101010501010D43130000006532D271375605CD08004602022F05F5">&lt;/TargetMaterial>&lt;Duration value="748">&lt;/Duration>&lt;LtcChangeTable tcFps="25" halfStep="false">&lt;LtcChange frameCount="0" value="11400809" status="increment">&lt;/LtcChange>&lt;LtcChange frameCount="747" value="08100909" status="end">&lt;/LtcChange>&lt;/LtcChangeTable>&lt;CreationDate value="2011-03-17T11:40:14+01:00">&lt;/CreationDate>&lt;TypicalUbit value="0000000017061020">&lt;/TypicalUbit>&lt;BodyUmidBasicChangeTable>&lt;BodyUmidBasicChange frameCount="0" value="060A2B340101010501010D43330000006532D271375605CD08004602022F05F5" status="start">&lt;/BodyUmidBasicChange>&lt;/BodyUmidBasicChangeTable>&lt;BodyUmidWhenChangeTable>&lt;BodyUmidWhenChange frameCount="0" value="C4DDA903375605A5" status="increment">&lt;/BodyUmidWhenChange>&lt;BodyUmidWhenChange frameCount="747" value="8498AA03375605A5" status="end">&lt;/BodyUmidWhenChange>&lt;/BodyUmidWhenChangeTable>&lt;KlvPacketTable>&lt;KlvPacket key="060E2B34010101050301020A02000000" frameCount="0" lengthValue="095F5265635374617274" status="spot">&lt;/KlvPacket>&lt;/KlvPacketTable>&lt;VideoFormat>&lt;VideoRecPort port="DIRECT">&lt;/VideoRecPort>&lt;VideoFrame videoCodec="MPEG2HD35_1920_1080_MP@HL" captureFps="50.00i" recFps="50.00" formatFps="50i">&lt;/VideoFrame>&lt;VideoLayout pixel="1920" numOfVerticalLine="1080" aspectRatio="16:9">&lt;/VideoLayout>&lt;/VideoFormat>&lt;AudioFormat numOfChannel="2">&lt;AudioRecPort port="ANALOG" audioCodec="LPCM16" trackDst="CH1">&lt;/AudioRecPort>&lt;AudioRecPort port="ANALOG" audioCodec="LPCM16" trackDst="CH2">&lt;/AudioRecPort>&lt;/AudioFormat>&lt;Device manufacturer="Sony" modelName="PMW-EX3" serialNo="0401525">&lt;/Device>&lt;Lens modelName="VCL-614B2X">&lt;/Lens>&lt;RecordingMode type="normal" cacheRec="false">&lt;/RecordingMode>&lt;/NonRealTimeMeta>
							</value>
						</metadata>
						<metadata>
							<storage>QuickTime</storage>
							<key>com.apple.proapps.reel</key>
							<size>8</size>
							<type>UTF8</type>
							<value>Untitled</value>
						</metadata>
						<metadata>
							<storage>QuickTime</storage>
							<key>com.apple.proapps.clipID</key>
							<size>64</size>
							<type>UTF8</type>
							<value>060A2B340101010501010D43130000006532D271375605CD08004602022F05F5</value>
						</metadata>
						<metadata>
							<storage>QuickTime</storage>
							<key>com.apple.quicktime.information</key>
							<size>64</size>
							<type>UTF8</type>
							<value>060a2b340101010501010d43130000006532d271375605cd08004602022f05f5</value>
						</metadata>
						<metadata>
							<storage>QuickTime</storage>
							<key>com.apple.proapps.originalFormat</key>
							<size>36</size>
							<type>UTF8</type>
							<value>Apple XDCAM EX 1080i50 (35 Mb/s VBR)</value>
						</metadata>
						<timecode>
							<rate>
								<timebase>25</timebase>
							</rate>
							<string>09:08:40:11</string>
							<frame>823011</frame>
							<displayformat>NDF</displayformat>
							<source>source</source>
							<reel>
								<name>Untitled</name>
							</reel>
						</timecode>
						<media>
							<video>
								<duration>748</duration>
								<samplecharacteristics>
									<width>1920</width>
									<height>1080</height>
								</samplecharacteristics>
							</video>
							<audio>
								<samplecharacteristics>
									<samplerate>48000</samplerate>
									<depth>16</depth>
								</samplecharacteristics>
								<channelcount>1</channelcount>
								<layout>mono</layout>
								<audiochannel>
									<sourcechannel>1</sourcechannel>
									<channellabel>discrete</channellabel>
								</audiochannel>
							</audio>
							<audio>
								<samplecharacteristics>
									<samplerate>48000</samplerate>
									<depth>16</depth>
								</samplecharacteristics>
								<channelcount>1</channelcount>
								<layout>mono</layout>
								<audiochannel>
									<sourcechannel>2</sourcechannel>
									<channellabel>discrete</channellabel>
								</audiochannel>
							</audio>
						</media>
					</file>
					<sourcetrack>
						<mediatype>video</mediatype>
					</sourcetrack>
					<fielddominance>upper</fielddominance>
					<itemhistory>
						<uuid>0D8123A9-9B0E-488F-8019-4DD0866AD6F9</uuid>
					</itemhistory>
				</clipitem>
				<clipitem id="DYR10448_01 ">
					<name>DYR10448_01</name>
					<duration>378</duration>
					<rate>
						<ntsc>FALSE</ntsc>
						<timebase>25</timebase>
					</rate>
					<in>112</in>
					<out>141</out>
					<start>23837</start>
					<end>23866</end>
					<pixelaspectratio>Square</pixelaspectratio>
					<enabled>TRUE</enabled>
					<anamorphic>FALSE</anamorphic>
					<alphatype>none</alphatype>
					<masterclipid>DYR10448_01 1</masterclipid>
					<logginginfo>
						<scene/>
						<shottake/>
						<lognote/>
						<good>FALSE</good>
					</logginginfo>
					<labels>
						<label2/>
					</labels>
					<comments>
						<mastercomment1/>
						<mastercomment2/>
						<mastercomment3/>
						<mastercomment4/>
					</comments>
					<file id="DYR10448_01 2">
						<name>DYR10448_01.mov</name>
						<pathurl>file://localhost/Volumes/Askepott/Prosjekter/DNPR637010_Kra%CC%8Akeklubben_TEM_011212/Video/MUSIKKVIDEO/Vinter/EX-3/DYR10448_01.mov</pathurl>
						<rate>
							<timebase>25</timebase>
						</rate>
						<duration>378</duration>
						<metadata>
							<storage>QuickTime</storage>
							<key>com.sony.bprl.xdcamtransfer.version</key>
							<size>10</size>
							<type>UTF8</type>
							<value>2.12.0.631</value>
						</metadata>
						<metadata>
							<storage>QuickTime</storage>
							<key>org.smpte.mxf.package.material.packageid</key>
							<size>66</size>
							<type>UTF8</type>
							<value>0x060a2b340101010501010d4313000000f9b34672375605da08004602022f05f5</value>
						</metadata>
						<metadata>
							<storage>QuickTime</storage>
							<key>com.sony.professionaldisc.nonrealtimemeta.lastupdate</key>
							<size>25</size>
							<type>UTF8</type>
							<value>2011-03-17 11:43:04 +0100</value>
						</metadata>
						<metadata>
							<storage>QuickTime</storage>
							<key>com.sony.bprl.mxf.umid</key>
							<size>64</size>
							<type>UTF8</type>
							<value>060a2b340101010501010d4313000000f9b34672375605da08004602022f05f5</value>
						</metadata>
						<metadata>
							<storage>QuickTime</storage>
							<key>com.sony.bprl.mxf.nrtmetadata</key>
							<size>1991</size>
							<type>UTF8</type>
							<value>&lt;?xml version="1.0" encoding="UTF-8"?>&lt;NonRealTimeMeta xmlns="urn:schemas-professionalDisc:nonRealTimeMeta:ver.1.20" xmlns:lib="urn:schemas-professionalDisc:lib:ver.1.20" xmlns:xsi="http://www.w3.org/2001/XMLSchema-instance" lastUpdate="2011-03-17T11:43:04+01:00">&lt;TargetMaterial umidRef="060A2B340101010501010D4313000000F9B34672375605DA08004602022F05F5">&lt;/TargetMaterial>&lt;Duration value="378">&lt;/Duration>&lt;LtcChangeTable tcFps="25" halfStep="false">&lt;LtcChange frameCount="0" value="09100909" status="increment">&lt;/LtcChange>&lt;LtcChange frameCount="377" value="11250909" status="end">&lt;/LtcChange>&lt;/LtcChangeTable>&lt;CreationDate value="2011-03-17T11:42:48+01:00">&lt;/CreationDate>&lt;TypicalUbit value="0000000017061020">&lt;/TypicalUbit>&lt;BodyUmidBasicChangeTable>&lt;BodyUmidBasicChange frameCount="0" value="060A2B340101010501010D4333000000F9B34672375605DA08004602022F05F5" status="start">&lt;/BodyUmidBasicChange>&lt;/BodyUmidBasicChangeTable>&lt;BodyUmidWhenChangeTable>&lt;BodyUmidWhenChange frameCount="0" value="C49DAD03375605A5" status="increment">&lt;/BodyUmidWhenChange>&lt;BodyUmidWhenChange frameCount="377" value="04FCAD03375605A5" status="end">&lt;/BodyUmidWhenChange>&lt;/BodyUmidWhenChangeTable>&lt;KlvPacketTable>&lt;KlvPacket key="060E2B34010101050301020A02000000" frameCount="0" lengthValue="095F5265635374617274" status="spot">&lt;/KlvPacket>&lt;/KlvPacketTable>&lt;VideoFormat>&lt;VideoRecPort port="DIRECT">&lt;/VideoRecPort>&lt;VideoFrame videoCodec="MPEG2HD35_1920_1080_MP@HL" captureFps="50.00i" recFps="50.00" formatFps="50i">&lt;/VideoFrame>&lt;VideoLayout pixel="1920" numOfVerticalLine="1080" aspectRatio="16:9">&lt;/VideoLayout>&lt;/VideoFormat>&lt;AudioFormat numOfChannel="2">&lt;AudioRecPort port="ANALOG" audioCodec="LPCM16" trackDst="CH1">&lt;/AudioRecPort>&lt;AudioRecPort port="ANALOG" audioCodec="LPCM16" trackDst="CH2">&lt;/AudioRecPort>&lt;/AudioFormat>&lt;Device manufacturer="Sony" modelName="PMW-EX3" serialNo="0401525">&lt;/Device>&lt;Lens modelName="VCL-614B2X">&lt;/Lens>&lt;RecordingMode type="normal" cacheRec="false">&lt;/RecordingMode>&lt;/NonRealTimeMeta>
							</value>
						</metadata>
						<metadata>
							<storage>QuickTime</storage>
							<key>com.apple.proapps.reel</key>
							<size>8</size>
							<type>UTF8</type>
							<value>Untitled</value>
						</metadata>
						<metadata>
							<storage>QuickTime</storage>
							<key>com.apple.proapps.clipID</key>
							<size>64</size>
							<type>UTF8</type>
							<value>060A2B340101010501010D4313000000F9B34672375605DA08004602022F05F5</value>
						</metadata>
						<metadata>
							<storage>QuickTime</storage>
							<key>com.apple.quicktime.information</key>
							<size>64</size>
							<type>UTF8</type>
							<value>060a2b340101010501010d4313000000f9b34672375605da08004602022f05f5</value>
						</metadata>
						<metadata>
							<storage>QuickTime</storage>
							<key>com.apple.proapps.originalFormat</key>
							<size>36</size>
							<type>UTF8</type>
							<value>Apple XDCAM EX 1080i50 (35 Mb/s VBR)</value>
						</metadata>
						<timecode>
							<rate>
								<timebase>25</timebase>
							</rate>
							<string>09:09:10:09</string>
							<frame>823759</frame>
							<displayformat>NDF</displayformat>
							<source>source</source>
							<reel>
								<name>Untitled</name>
							</reel>
						</timecode>
						<media>
							<video>
								<duration>378</duration>
								<samplecharacteristics>
									<width>1920</width>
									<height>1080</height>
								</samplecharacteristics>
							</video>
							<audio>
								<samplecharacteristics>
									<samplerate>48000</samplerate>
									<depth>16</depth>
								</samplecharacteristics>
								<channelcount>1</channelcount>
								<layout>mono</layout>
								<audiochannel>
									<sourcechannel>1</sourcechannel>
									<channellabel>discrete</channellabel>
								</audiochannel>
							</audio>
							<audio>
								<samplecharacteristics>
									<samplerate>48000</samplerate>
									<depth>16</depth>
								</samplecharacteristics>
								<channelcount>1</channelcount>
								<layout>mono</layout>
								<audiochannel>
									<sourcechannel>2</sourcechannel>
									<channellabel>discrete</channellabel>
								</audiochannel>
							</audio>
						</media>
					</file>
					<sourcetrack>
						<mediatype>video</mediatype>
					</sourcetrack>
					<fielddominance>upper</fielddominance>
					<itemhistory>
						<uuid>5ABBBF9B-099B-4324-9E81-0AB248AAE7FB</uuid>
					</itemhistory>
				</clipitem>
				<clipitem id="DYR10445_01 ">
					<name>DYR10445_01</name>
					<duration>844</duration>
					<rate>
						<ntsc>FALSE</ntsc>
						<timebase>25</timebase>
					</rate>
					<in>669</in>
					<out>692</out>
					<start>23866</start>
					<end>23889</end>
					<pixelaspectratio>Square</pixelaspectratio>
					<anamorphic>FALSE</anamorphic>
					<alphatype>none</alphatype>
					<masterclipid>DYR10445_01 1</masterclipid>
					<logginginfo>
						<scene/>
						<shottake/>
						<lognote/>
						<good>FALSE</good>
					</logginginfo>
					<labels>
						<label2/>
					</labels>
					<comments>
						<mastercomment1/>
						<mastercomment2/>
						<mastercomment3/>
						<mastercomment4/>
					</comments>
					<file id="DYR10445_01 2">
						<name>DYR10445_01.mov</name>
						<pathurl>file://localhost/Volumes/Askepott/Prosjekter/DNPR637010_Kra%CC%8Akeklubben_TEM_011212/Video/MUSIKKVIDEO/Vinter/EX-3/DYR10445_01.mov</pathurl>
						<rate>
							<timebase>25</timebase>
						</rate>
						<duration>844</duration>
						<metadata>
							<storage>QuickTime</storage>
							<key>com.sony.bprl.xdcamtransfer.version</key>
							<size>10</size>
							<type>UTF8</type>
							<value>2.12.0.631</value>
						</metadata>
						<metadata>
							<storage>QuickTime</storage>
							<key>org.smpte.mxf.package.material.packageid</key>
							<size>66</size>
							<type>UTF8</type>
							<value>0x060a2b340101010501010d431300000075b89c70375605c408004602022f05f5</value>
						</metadata>
						<metadata>
							<storage>QuickTime</storage>
							<key>com.sony.professionaldisc.nonrealtimemeta.lastupdate</key>
							<size>25</size>
							<type>UTF8</type>
							<value>2011-03-17 11:34:01 +0100</value>
						</metadata>
						<metadata>
							<storage>QuickTime</storage>
							<key>com.sony.bprl.mxf.umid</key>
							<size>64</size>
							<type>UTF8</type>
							<value>060a2b340101010501010d431300000075b89c70375605c408004602022f05f5</value>
						</metadata>
						<metadata>
							<storage>QuickTime</storage>
							<key>com.sony.bprl.mxf.nrtmetadata</key>
							<size>1991</size>
							<type>UTF8</type>
							<value>&lt;?xml version="1.0" encoding="UTF-8"?>&lt;NonRealTimeMeta xmlns="urn:schemas-professionalDisc:nonRealTimeMeta:ver.1.20" xmlns:lib="urn:schemas-professionalDisc:lib:ver.1.20" xmlns:xsi="http://www.w3.org/2001/XMLSchema-instance" lastUpdate="2011-03-17T11:34:01+01:00">&lt;TargetMaterial umidRef="060A2B340101010501010D431300000075B89C70375605C408004602022F05F5">&lt;/TargetMaterial>&lt;Duration value="844">&lt;/Duration>&lt;LtcChangeTable tcFps="25" halfStep="false">&lt;LtcChange frameCount="0" value="11420709" status="increment">&lt;/LtcChange>&lt;LtcChange frameCount="843" value="04160809" status="end">&lt;/LtcChange>&lt;/LtcChangeTable>&lt;CreationDate value="2011-03-17T11:33:26+01:00">&lt;/CreationDate>&lt;TypicalUbit value="0000000017061020">&lt;/TypicalUbit>&lt;BodyUmidBasicChangeTable>&lt;BodyUmidBasicChange frameCount="0" value="060A2B340101010501010D433300000075B89C70375605C408004602022F05F5" status="start">&lt;/BodyUmidBasicChange>&lt;/BodyUmidBasicChangeTable>&lt;BodyUmidWhenChangeTable>&lt;BodyUmidWhenChange frameCount="0" value="C4E79F03375605A5" status="increment">&lt;/BodyUmidWhenChange>&lt;BodyUmidWhenChange frameCount="843" value="84BAA003375605A5" status="end">&lt;/BodyUmidWhenChange>&lt;/BodyUmidWhenChangeTable>&lt;KlvPacketTable>&lt;KlvPacket key="060E2B34010101050301020A02000000" frameCount="0" lengthValue="095F5265635374617274" status="spot">&lt;/KlvPacket>&lt;/KlvPacketTable>&lt;VideoFormat>&lt;VideoRecPort port="DIRECT">&lt;/VideoRecPort>&lt;VideoFrame videoCodec="MPEG2HD35_1920_1080_MP@HL" captureFps="50.00i" recFps="50.00" formatFps="50i">&lt;/VideoFrame>&lt;VideoLayout pixel="1920" numOfVerticalLine="1080" aspectRatio="16:9">&lt;/VideoLayout>&lt;/VideoFormat>&lt;AudioFormat numOfChannel="2">&lt;AudioRecPort port="ANALOG" audioCodec="LPCM16" trackDst="CH1">&lt;/AudioRecPort>&lt;AudioRecPort port="ANALOG" audioCodec="LPCM16" trackDst="CH2">&lt;/AudioRecPort>&lt;/AudioFormat>&lt;Device manufacturer="Sony" modelName="PMW-EX3" serialNo="0401525">&lt;/Device>&lt;Lens modelName="VCL-614B2X">&lt;/Lens>&lt;RecordingMode type="normal" cacheRec="false">&lt;/RecordingMode>&lt;/NonRealTimeMeta>
							</value>
						</metadata>
						<metadata>
							<storage>QuickTime</storage>
							<key>com.apple.proapps.reel</key>
							<size>8</size>
							<type>UTF8</type>
							<value>Untitled</value>
						</metadata>
						<metadata>
							<storage>QuickTime</storage>
							<key>com.apple.proapps.clipID</key>
							<size>64</size>
							<type>UTF8</type>
							<value>060A2B340101010501010D431300000075B89C70375605C408004602022F05F5</value>
						</metadata>
						<metadata>
							<storage>QuickTime</storage>
							<key>com.apple.quicktime.information</key>
							<size>64</size>
							<type>UTF8</type>
							<value>060a2b340101010501010d431300000075b89c70375605c408004602022f05f5</value>
						</metadata>
						<metadata>
							<storage>QuickTime</storage>
							<key>com.apple.proapps.originalFormat</key>
							<size>36</size>
							<type>UTF8</type>
							<value>Apple XDCAM EX 1080i50 (35 Mb/s VBR)</value>
						</metadata>
						<timecode>
							<rate>
								<timebase>25</timebase>
							</rate>
							<string>09:07:42:11</string>
							<frame>821561</frame>
							<displayformat>NDF</displayformat>
							<source>source</source>
							<reel>
								<name>Untitled</name>
							</reel>
						</timecode>
						<media>
							<video>
								<duration>844</duration>
								<samplecharacteristics>
									<width>1920</width>
									<height>1080</height>
								</samplecharacteristics>
							</video>
							<audio>
								<samplecharacteristics>
									<samplerate>48000</samplerate>
									<depth>16</depth>
								</samplecharacteristics>
								<channelcount>1</channelcount>
								<layout>mono</layout>
								<audiochannel>
									<sourcechannel>1</sourcechannel>
									<channellabel>discrete</channellabel>
								</audiochannel>
							</audio>
							<audio>
								<samplecharacteristics>
									<samplerate>48000</samplerate>
									<depth>16</depth>
								</samplecharacteristics>
								<channelcount>1</channelcount>
								<layout>mono</layout>
								<audiochannel>
									<sourcechannel>2</sourcechannel>
									<channellabel>discrete</channellabel>
								</audiochannel>
							</audio>
						</media>
					</file>
					<sourcetrack>
						<mediatype>video</mediatype>
					</sourcetrack>
					<fielddominance>upper</fielddominance>
					<itemhistory>
						<uuid>ADD3122E-4257-4387-AB75-7305599A773C</uuid>
					</itemhistory>
				</clipitem>
				<clipitem id="DYR10449_01 ">
					<name>DYR10449_01</name>
					<duration>376</duration>
					<rate>
						<ntsc>FALSE</ntsc>
						<timebase>25</timebase>
					</rate>
					<in>253</in>
					<out>278</out>
					<start>23889</start>
					<end>23914</end>
					<pixelaspectratio>Square</pixelaspectratio>
					<enabled>TRUE</enabled>
					<anamorphic>FALSE</anamorphic>
					<alphatype>none</alphatype>
					<masterclipid>DYR10449_01 1</masterclipid>
					<logginginfo>
						<scene/>
						<shottake/>
						<lognote/>
						<good>FALSE</good>
					</logginginfo>
					<labels>
						<label2/>
					</labels>
					<comments>
						<mastercomment1/>
						<mastercomment2/>
						<mastercomment3/>
						<mastercomment4/>
					</comments>
					<file id="DYR10449_01 2">
						<name>DYR10449_01.mov</name>
						<pathurl>file://localhost/Volumes/Askepott/Prosjekter/DNPR637010_Kra%CC%8Akeklubben_TEM_011212/Video/MUSIKKVIDEO/Vinter/EX-3/DYR10449_01.mov</pathurl>
						<rate>
							<timebase>25</timebase>
						</rate>
						<duration>376</duration>
						<metadata>
							<storage>QuickTime</storage>
							<key>com.sony.bprl.xdcamtransfer.version</key>
							<size>10</size>
							<type>UTF8</type>
							<value>2.12.0.631</value>
						</metadata>
						<metadata>
							<storage>QuickTime</storage>
							<key>org.smpte.mxf.package.material.packageid</key>
							<size>66</size>
							<type>UTF8</type>
							<value>0x060a2b340101010501010d431300000011f38972375605c508004602022f05f5</value>
						</metadata>
						<metadata>
							<storage>QuickTime</storage>
							<key>com.sony.professionaldisc.nonrealtimemeta.lastupdate</key>
							<size>25</size>
							<type>UTF8</type>
							<value>2011-03-17 11:44:32 +0100</value>
						</metadata>
						<metadata>
							<storage>QuickTime</storage>
							<key>com.sony.bprl.mxf.umid</key>
							<size>64</size>
							<type>UTF8</type>
							<value>060a2b340101010501010d431300000011f38972375605c508004602022f05f5</value>
						</metadata>
						<metadata>
							<storage>QuickTime</storage>
							<key>com.sony.bprl.mxf.nrtmetadata</key>
							<size>1991</size>
							<type>UTF8</type>
							<value>&lt;?xml version="1.0" encoding="UTF-8"?>&lt;NonRealTimeMeta xmlns="urn:schemas-professionalDisc:nonRealTimeMeta:ver.1.20" xmlns:lib="urn:schemas-professionalDisc:lib:ver.1.20" xmlns:xsi="http://www.w3.org/2001/XMLSchema-instance" lastUpdate="2011-03-17T11:44:32+01:00">&lt;TargetMaterial umidRef="060A2B340101010501010D431300000011F38972375605C508004602022F05F5">&lt;/TargetMaterial>&lt;Duration value="376">&lt;/Duration>&lt;LtcChangeTable tcFps="25" halfStep="false">&lt;LtcChange frameCount="0" value="12250909" status="increment">&lt;/LtcChange>&lt;LtcChange frameCount="375" value="12400909" status="end">&lt;/LtcChange>&lt;/LtcChangeTable>&lt;CreationDate value="2011-03-17T11:44:16+01:00">&lt;/CreationDate>&lt;TypicalUbit value="0000000017061020">&lt;/TypicalUbit>&lt;BodyUmidBasicChangeTable>&lt;BodyUmidBasicChange frameCount="0" value="060A2B340101010501010D433300000011F38972375605C508004602022F05F5" status="start">&lt;/BodyUmidBasicChange>&lt;/BodyUmidBasicChangeTable>&lt;BodyUmidWhenChangeTable>&lt;BodyUmidWhenChange frameCount="0" value="04C8AF03375605A5" status="increment">&lt;/BodyUmidWhenChange>&lt;BodyUmidWhenChange frameCount="375" value="C425B003375605A5" status="end">&lt;/BodyUmidWhenChange>&lt;/BodyUmidWhenChangeTable>&lt;KlvPacketTable>&lt;KlvPacket key="060E2B34010101050301020A02000000" frameCount="0" lengthValue="095F5265635374617274" status="spot">&lt;/KlvPacket>&lt;/KlvPacketTable>&lt;VideoFormat>&lt;VideoRecPort port="DIRECT">&lt;/VideoRecPort>&lt;VideoFrame videoCodec="MPEG2HD35_1920_1080_MP@HL" captureFps="50.00i" recFps="50.00" formatFps="50i">&lt;/VideoFrame>&lt;VideoLayout pixel="1920" numOfVerticalLine="1080" aspectRatio="16:9">&lt;/VideoLayout>&lt;/VideoFormat>&lt;AudioFormat numOfChannel="2">&lt;AudioRecPort port="ANALOG" audioCodec="LPCM16" trackDst="CH1">&lt;/AudioRecPort>&lt;AudioRecPort port="ANALOG" audioCodec="LPCM16" trackDst="CH2">&lt;/AudioRecPort>&lt;/AudioFormat>&lt;Device manufacturer="Sony" modelName="PMW-EX3" serialNo="0401525">&lt;/Device>&lt;Lens modelName="VCL-614B2X">&lt;/Lens>&lt;RecordingMode type="normal" cacheRec="false">&lt;/RecordingMode>&lt;/NonRealTimeMeta>
							</value>
						</metadata>
						<metadata>
							<storage>QuickTime</storage>
							<key>com.apple.proapps.reel</key>
							<size>8</size>
							<type>UTF8</type>
							<value>Untitled</value>
						</metadata>
						<metadata>
							<storage>QuickTime</storage>
							<key>com.apple.proapps.clipID</key>
							<size>64</size>
							<type>UTF8</type>
							<value>060A2B340101010501010D431300000011F38972375605C508004602022F05F5</value>
						</metadata>
						<metadata>
							<storage>QuickTime</storage>
							<key>com.apple.quicktime.information</key>
							<size>64</size>
							<type>UTF8</type>
							<value>060a2b340101010501010d431300000011f38972375605c508004602022f05f5</value>
						</metadata>
						<metadata>
							<storage>QuickTime</storage>
							<key>com.apple.proapps.originalFormat</key>
							<size>36</size>
							<type>UTF8</type>
							<value>Apple XDCAM EX 1080i50 (35 Mb/s VBR)</value>
						</metadata>
						<timecode>
							<rate>
								<timebase>25</timebase>
							</rate>
							<string>09:09:25:12</string>
							<frame>824137</frame>
							<displayformat>NDF</displayformat>
							<source>source</source>
							<reel>
								<name>Untitled</name>
							</reel>
						</timecode>
						<media>
							<video>
								<duration>376</duration>
								<samplecharacteristics>
									<width>1920</width>
									<height>1080</height>
								</samplecharacteristics>
							</video>
							<audio>
								<samplecharacteristics>
									<samplerate>48000</samplerate>
									<depth>16</depth>
								</samplecharacteristics>
								<channelcount>1</channelcount>
								<layout>mono</layout>
								<audiochannel>
									<sourcechannel>1</sourcechannel>
									<channellabel>discrete</channellabel>
								</audiochannel>
							</audio>
							<audio>
								<samplecharacteristics>
									<samplerate>48000</samplerate>
									<depth>16</depth>
								</samplecharacteristics>
								<channelcount>1</channelcount>
								<layout>mono</layout>
								<audiochannel>
									<sourcechannel>2</sourcechannel>
									<channellabel>discrete</channellabel>
								</audiochannel>
							</audio>
						</media>
					</file>
					<sourcetrack>
						<mediatype>video</mediatype>
					</sourcetrack>
					<fielddominance>upper</fielddominance>
					<itemhistory>
						<uuid>15119114-A60F-49C3-8AEB-4BCCB8C93549</uuid>
					</itemhistory>
				</clipitem>
				<clipitem id="DYR10448_01 3">
					<name>DYR10448_01</name>
					<duration>378</duration>
					<rate>
						<ntsc>FALSE</ntsc>
						<timebase>25</timebase>
					</rate>
					<in>282</in>
					<out>306</out>
					<start>23914</start>
					<end>23938</end>
					<pixelaspectratio>Square</pixelaspectratio>
					<enabled>TRUE</enabled>
					<anamorphic>FALSE</anamorphic>
					<alphatype>none</alphatype>
					<masterclipid>DYR10448_01 4</masterclipid>
					<logginginfo>
						<scene/>
						<shottake/>
						<lognote/>
						<good>FALSE</good>
					</logginginfo>
					<labels>
						<label2/>
					</labels>
					<comments>
						<mastercomment1/>
						<mastercomment2/>
						<mastercomment3/>
						<mastercomment4/>
					</comments>
					<file id="DYR10448_01 2"/>
					<sourcetrack>
						<mediatype>video</mediatype>
					</sourcetrack>
					<fielddominance>upper</fielddominance>
					<itemhistory>
						<uuid>F9220835-3719-4A4A-B14B-A3539EFB1098</uuid>
					</itemhistory>
				</clipitem>
				<clipitem id="DYR10446_01 3">
					<name>DYR10446_01</name>
					<duration>606</duration>
					<rate>
						<ntsc>FALSE</ntsc>
						<timebase>25</timebase>
					</rate>
					<in>422</in>
					<out>461</out>
					<start>23938</start>
					<end>23977</end>
					<pixelaspectratio>Square</pixelaspectratio>
					<enabled>TRUE</enabled>
					<anamorphic>FALSE</anamorphic>
					<alphatype>none</alphatype>
					<masterclipid>DYR10446_01 1</masterclipid>
					<logginginfo>
						<scene/>
						<shottake/>
						<lognote/>
						<good>FALSE</good>
					</logginginfo>
					<labels>
						<label2/>
					</labels>
					<comments>
						<mastercomment1/>
						<mastercomment2/>
						<mastercomment3/>
						<mastercomment4/>
					</comments>
					<file id="DYR10446_01 2"/>
					<filter>
						<effect>
							<name>Basic Motion</name>
							<effectid>basic</effectid>
							<effectcategory>motion</effectcategory>
							<effecttype>motion</effecttype>
							<mediatype>video</mediatype>
							<parameter>
								<parameterid>scale</parameterid>
								<name>Scale</name>
								<valuemin>0</valuemin>
								<valuemax>1000</valuemax>
								<value>125</value>
							</parameter>
							<parameter>
								<parameterid>rotation</parameterid>
								<name>Rotation</name>
								<valuemin>-8640</valuemin>
								<valuemax>8640</valuemax>
								<value>0</value>
							</parameter>
							<parameter>
								<parameterid>center</parameterid>
								<name>Center</name>
								<value>
									<horiz>-0.116667</horiz>
									<vert>0.114815</vert>
								</value>
							</parameter>
							<parameter>
								<parameterid>centerOffset</parameterid>
								<name>Anchor Point</name>
								<value>
									<horiz>0</horiz>
									<vert>0</vert>
								</value>
							</parameter>
						</effect>
					</filter>
					<filter>
						<enabled>FALSE</enabled>
						<effect>
							<name>Drop Shadow</name>
							<effectid>dropshadow</effectid>
							<effectcategory>motion</effectcategory>
							<effecttype>motion</effecttype>
							<mediatype>video</mediatype>
							<parameter>
								<parameterid>offset</parameterid>
								<name>offset</name>
								<valuemin>-100</valuemin>
								<valuemax>100</valuemax>
								<value>2</value>
							</parameter>
							<parameter>
								<parameterid>angle</parameterid>
								<name>angle</name>
								<valuemin>-720</valuemin>
								<valuemax>720</valuemax>
								<value>135</value>
							</parameter>
							<parameter>
								<parameterid>color</parameterid>
								<name>color</name>
								<value>
									<alpha>0</alpha>
									<red>0</red>
									<green>0</green>
									<blue>0</blue>
								</value>
							</parameter>
							<parameter>
								<parameterid>softness</parameterid>
								<name>softness</name>
								<valuemin>0</valuemin>
								<valuemax>100</valuemax>
								<value>10</value>
							</parameter>
							<parameter>
								<parameterid>opacity</parameterid>
								<name>opacity</name>
								<valuemin>0</valuemin>
								<valuemax>100</valuemax>
								<value>50</value>
							</parameter>
						</effect>
					</filter>
					<filter>
						<enabled>FALSE</enabled>
						<effect>
							<name>Motion Blur</name>
							<effectid>motionblur</effectid>
							<effectcategory>motion</effectcategory>
							<effecttype>motion</effecttype>
							<mediatype>video</mediatype>
							<parameter>
								<parameterid>duration</parameterid>
								<name>% Blur</name>
								<valuemin>0</valuemin>
								<valuemax>1000</valuemax>
								<value>500</value>
							</parameter>
							<parameter>
								<parameterid>samples</parameterid>
								<name>Samples</name>
								<valuemin>1</valuemin>
								<valuemax>16</valuemax>
								<value>4</value>
							</parameter>
						</effect>
					</filter>
					<filter>
						<effect>
							<name>Crop</name>
							<effectid>crop</effectid>
							<effectcategory>motion</effectcategory>
							<effecttype>motion</effecttype>
							<mediatype>video</mediatype>
							<parameter>
								<parameterid>left</parameterid>
								<name>left</name>
								<valuemin>0</valuemin>
								<valuemax>100</valuemax>
								<value>0</value>
							</parameter>
							<parameter>
								<parameterid>right</parameterid>
								<name>right</name>
								<valuemin>0</valuemin>
								<valuemax>100</valuemax>
								<value>0</value>
							</parameter>
							<parameter>
								<parameterid>top</parameterid>
								<name>top</name>
								<valuemin>0</valuemin>
								<valuemax>100</valuemax>
								<value>0</value>
							</parameter>
							<parameter>
								<parameterid>bottom</parameterid>
								<name>bottom</name>
								<valuemin>0</valuemin>
								<valuemax>100</valuemax>
								<value>0</value>
							</parameter>
							<parameter>
								<parameterid>edgefeather</parameterid>
								<name>edgefeather</name>
								<valuemin>0</valuemin>
								<valuemax>100</valuemax>
								<value>0</value>
							</parameter>
						</effect>
					</filter>
					<filter>
						<effect>
							<name>Distort</name>
							<effectid>deformation</effectid>
							<effectcategory>motion</effectcategory>
							<effecttype>motion</effecttype>
							<mediatype>video</mediatype>
							<parameter>
								<parameterid>ulcorner</parameterid>
								<name>Upper Left</name>
								<value>
									<horiz>-0.5</horiz>
									<vert>-0.5</vert>
								</value>
							</parameter>
							<parameter>
								<parameterid>urcorner</parameterid>
								<name>Upper Right</name>
								<value>
									<horiz>0.5</horiz>
									<vert>-0.5</vert>
								</value>
							</parameter>
							<parameter>
								<parameterid>lrcorner</parameterid>
								<name>Lower Right</name>
								<value>
									<horiz>0.5</horiz>
									<vert>0.5</vert>
								</value>
							</parameter>
							<parameter>
								<parameterid>llcorner</parameterid>
								<name>Lower Left</name>
								<value>
									<horiz>-0.5</horiz>
									<vert>0.5</vert>
								</value>
							</parameter>
							<parameter>
								<parameterid>aspect</parameterid>
								<name>Aspect</name>
								<valuemin>-10000</valuemin>
								<valuemax>10000</valuemax>
								<value>0</value>
							</parameter>
						</effect>
					</filter>
					<filter>
						<effect>
							<name>Opacity</name>
							<effectid>opacity</effectid>
							<effectcategory>motion</effectcategory>
							<effecttype>motion</effecttype>
							<mediatype>video</mediatype>
							<parameter>
								<parameterid>opacity</parameterid>
								<name>opacity</name>
								<valuemin>0</valuemin>
								<valuemax>100</valuemax>
								<value>100</value>
							</parameter>
						</effect>
					</filter>
					<sourcetrack>
						<mediatype>video</mediatype>
					</sourcetrack>
					<fielddominance>upper</fielddominance>
					<itemhistory>
						<uuid>4AD4AE5D-DE4F-4062-BEF5-20EFDA6A5FB2</uuid>
					</itemhistory>
				</clipitem>
				<clipitem id="DYR10449_01 3">
					<name>DYR10449_01</name>
					<duration>376</duration>
					<rate>
						<ntsc>FALSE</ntsc>
						<timebase>25</timebase>
					</rate>
					<in>202</in>
					<out>245</out>
					<start>23977</start>
					<end>24020</end>
					<pixelaspectratio>Square</pixelaspectratio>
					<enabled>TRUE</enabled>
					<anamorphic>FALSE</anamorphic>
					<alphatype>none</alphatype>
					<masterclipid>DYR10449_01 1</masterclipid>
					<logginginfo>
						<scene/>
						<shottake/>
						<lognote/>
						<good>FALSE</good>
					</logginginfo>
					<labels>
						<label2/>
					</labels>
					<comments>
						<mastercomment1/>
						<mastercomment2/>
						<mastercomment3/>
						<mastercomment4/>
					</comments>
					<file id="DYR10449_01 2"/>
					<filter>
						<effect>
							<name>Basic Motion</name>
							<effectid>basic</effectid>
							<effectcategory>motion</effectcategory>
							<effecttype>motion</effecttype>
							<mediatype>video</mediatype>
							<parameter>
								<parameterid>scale</parameterid>
								<name>Scale</name>
								<valuemin>0</valuemin>
								<valuemax>1000</valuemax>
								<value>125</value>
							</parameter>
							<parameter>
								<parameterid>rotation</parameterid>
								<name>Rotation</name>
								<valuemin>-8640</valuemin>
								<valuemax>8640</valuemax>
								<value>0</value>
							</parameter>
							<parameter>
								<parameterid>center</parameterid>
								<name>Center</name>
								<value>
									<horiz>-0.114583</horiz>
									<vert>0.0296296</vert>
								</value>
							</parameter>
							<parameter>
								<parameterid>centerOffset</parameterid>
								<name>Anchor Point</name>
								<value>
									<horiz>0</horiz>
									<vert>0</vert>
								</value>
							</parameter>
						</effect>
					</filter>
					<filter>
						<enabled>FALSE</enabled>
						<effect>
							<name>Drop Shadow</name>
							<effectid>dropshadow</effectid>
							<effectcategory>motion</effectcategory>
							<effecttype>motion</effecttype>
							<mediatype>video</mediatype>
							<parameter>
								<parameterid>offset</parameterid>
								<name>offset</name>
								<valuemin>-100</valuemin>
								<valuemax>100</valuemax>
								<value>2</value>
							</parameter>
							<parameter>
								<parameterid>angle</parameterid>
								<name>angle</name>
								<valuemin>-720</valuemin>
								<valuemax>720</valuemax>
								<value>135</value>
							</parameter>
							<parameter>
								<parameterid>color</parameterid>
								<name>color</name>
								<value>
									<alpha>0</alpha>
									<red>0</red>
									<green>0</green>
									<blue>0</blue>
								</value>
							</parameter>
							<parameter>
								<parameterid>softness</parameterid>
								<name>softness</name>
								<valuemin>0</valuemin>
								<valuemax>100</valuemax>
								<value>10</value>
							</parameter>
							<parameter>
								<parameterid>opacity</parameterid>
								<name>opacity</name>
								<valuemin>0</valuemin>
								<valuemax>100</valuemax>
								<value>50</value>
							</parameter>
						</effect>
					</filter>
					<filter>
						<enabled>FALSE</enabled>
						<effect>
							<name>Motion Blur</name>
							<effectid>motionblur</effectid>
							<effectcategory>motion</effectcategory>
							<effecttype>motion</effecttype>
							<mediatype>video</mediatype>
							<parameter>
								<parameterid>duration</parameterid>
								<name>% Blur</name>
								<valuemin>0</valuemin>
								<valuemax>1000</valuemax>
								<value>500</value>
							</parameter>
							<parameter>
								<parameterid>samples</parameterid>
								<name>Samples</name>
								<valuemin>1</valuemin>
								<valuemax>16</valuemax>
								<value>4</value>
							</parameter>
						</effect>
					</filter>
					<filter>
						<effect>
							<name>Crop</name>
							<effectid>crop</effectid>
							<effectcategory>motion</effectcategory>
							<effecttype>motion</effecttype>
							<mediatype>video</mediatype>
							<parameter>
								<parameterid>left</parameterid>
								<name>left</name>
								<valuemin>0</valuemin>
								<valuemax>100</valuemax>
								<value>0</value>
							</parameter>
							<parameter>
								<parameterid>right</parameterid>
								<name>right</name>
								<valuemin>0</valuemin>
								<valuemax>100</valuemax>
								<value>0</value>
							</parameter>
							<parameter>
								<parameterid>top</parameterid>
								<name>top</name>
								<valuemin>0</valuemin>
								<valuemax>100</valuemax>
								<value>0</value>
							</parameter>
							<parameter>
								<parameterid>bottom</parameterid>
								<name>bottom</name>
								<valuemin>0</valuemin>
								<valuemax>100</valuemax>
								<value>0</value>
							</parameter>
							<parameter>
								<parameterid>edgefeather</parameterid>
								<name>edgefeather</name>
								<valuemin>0</valuemin>
								<valuemax>100</valuemax>
								<value>0</value>
							</parameter>
						</effect>
					</filter>
					<filter>
						<effect>
							<name>Distort</name>
							<effectid>deformation</effectid>
							<effectcategory>motion</effectcategory>
							<effecttype>motion</effecttype>
							<mediatype>video</mediatype>
							<parameter>
								<parameterid>ulcorner</parameterid>
								<name>Upper Left</name>
								<value>
									<horiz>-0.5</horiz>
									<vert>-0.5</vert>
								</value>
							</parameter>
							<parameter>
								<parameterid>urcorner</parameterid>
								<name>Upper Right</name>
								<value>
									<horiz>0.5</horiz>
									<vert>-0.5</vert>
								</value>
							</parameter>
							<parameter>
								<parameterid>lrcorner</parameterid>
								<name>Lower Right</name>
								<value>
									<horiz>0.5</horiz>
									<vert>0.5</vert>
								</value>
							</parameter>
							<parameter>
								<parameterid>llcorner</parameterid>
								<name>Lower Left</name>
								<value>
									<horiz>-0.5</horiz>
									<vert>0.5</vert>
								</value>
							</parameter>
							<parameter>
								<parameterid>aspect</parameterid>
								<name>Aspect</name>
								<valuemin>-10000</valuemin>
								<valuemax>10000</valuemax>
								<value>0</value>
							</parameter>
						</effect>
					</filter>
					<filter>
						<effect>
							<name>Opacity</name>
							<effectid>opacity</effectid>
							<effectcategory>motion</effectcategory>
							<effecttype>motion</effecttype>
							<mediatype>video</mediatype>
							<parameter>
								<parameterid>opacity</parameterid>
								<name>opacity</name>
								<valuemin>0</valuemin>
								<valuemax>100</valuemax>
								<value>100</value>
							</parameter>
						</effect>
					</filter>
					<sourcetrack>
						<mediatype>video</mediatype>
					</sourcetrack>
					<fielddominance>upper</fielddominance>
					<itemhistory>
						<uuid>1F95A0DE-6788-4CDC-AC82-9186BA8C9F9C</uuid>
					</itemhistory>
				</clipitem>
				<clipitem id="DYR10454_01 ">
					<name>DYR10454_01</name>
					<duration>832</duration>
					<rate>
						<ntsc>FALSE</ntsc>
						<timebase>25</timebase>
					</rate>
					<in>603</in>
					<out>712</out>
					<start>24020</start>
					<end>24129</end>
					<pixelaspectratio>Square</pixelaspectratio>
					<enabled>TRUE</enabled>
					<anamorphic>FALSE</anamorphic>
					<alphatype>none</alphatype>
					<masterclipid>DYR10454_01 1</masterclipid>
					<logginginfo>
						<scene/>
						<shottake/>
						<lognote/>
						<good>FALSE</good>
					</logginginfo>
					<labels>
						<label2/>
					</labels>
					<comments>
						<mastercomment1/>
						<mastercomment2/>
						<mastercomment3/>
						<mastercomment4/>
					</comments>
					<file id="DYR10454_01 2">
						<name>DYR10454_01.mov</name>
						<pathurl>file://localhost/Volumes/Askepott/Prosjekter/DNPR637010_Kra%CC%8Akeklubben_TEM_011212/Video/MUSIKKVIDEO/Vinter/EX-3/DYR10454_01.mov</pathurl>
						<rate>
							<timebase>25</timebase>
						</rate>
						<duration>832</duration>
						<metadata>
							<storage>QuickTime</storage>
							<key>com.sony.bprl.xdcamtransfer.version</key>
							<size>10</size>
							<type>UTF8</type>
							<value>2.12.0.631</value>
						</metadata>
						<metadata>
							<storage>QuickTime</storage>
							<key>org.smpte.mxf.package.material.packageid</key>
							<size>66</size>
							<type>UTF8</type>
							<value>0x060a2b340101010501010d43130000004105e479375605c508004602022f05f5</value>
						</metadata>
						<metadata>
							<storage>QuickTime</storage>
							<key>com.sony.professionaldisc.nonrealtimemeta.lastupdate</key>
							<size>25</size>
							<type>UTF8</type>
							<value>2011-03-17 12:26:12 +0100</value>
						</metadata>
						<metadata>
							<storage>QuickTime</storage>
							<key>com.sony.bprl.mxf.umid</key>
							<size>64</size>
							<type>UTF8</type>
							<value>060a2b340101010501010d43130000004105e479375605c508004602022f05f5</value>
						</metadata>
						<metadata>
							<storage>QuickTime</storage>
							<key>com.sony.bprl.mxf.nrtmetadata</key>
							<size>1991</size>
							<type>UTF8</type>
							<value>&lt;?xml version="1.0" encoding="UTF-8"?>&lt;NonRealTimeMeta xmlns="urn:schemas-professionalDisc:nonRealTimeMeta:ver.1.20" xmlns:lib="urn:schemas-professionalDisc:lib:ver.1.20" xmlns:xsi="http://www.w3.org/2001/XMLSchema-instance" lastUpdate="2011-03-17T12:26:12+01:00">&lt;TargetMaterial umidRef="060A2B340101010501010D43130000004105E479375605C508004602022F05F5">&lt;/TargetMaterial>&lt;Duration value="832">&lt;/Duration>&lt;LtcChangeTable tcFps="25" halfStep="false">&lt;LtcChange frameCount="0" value="08521109" status="increment">&lt;/LtcChange>&lt;LtcChange frameCount="831" value="14251209" status="end">&lt;/LtcChange>&lt;/LtcChangeTable>&lt;CreationDate value="2011-03-17T12:25:38+01:00">&lt;/CreationDate>&lt;TypicalUbit value="0000000017061020">&lt;/TypicalUbit>&lt;BodyUmidBasicChangeTable>&lt;BodyUmidBasicChange frameCount="0" value="060A2B340101010501010D43330000004105E479375605C508004602022F05F5" status="start">&lt;/BodyUmidBasicChange>&lt;/BodyUmidBasicChangeTable>&lt;BodyUmidWhenChangeTable>&lt;BodyUmidWhenChange frameCount="0" value="045BEC03375605A5" status="increment">&lt;/BodyUmidWhenChange>&lt;BodyUmidWhenChange frameCount="831" value="C42AED03375605A5" status="end">&lt;/BodyUmidWhenChange>&lt;/BodyUmidWhenChangeTable>&lt;KlvPacketTable>&lt;KlvPacket key="060E2B34010101050301020A02000000" frameCount="0" lengthValue="095F5265635374617274" status="spot">&lt;/KlvPacket>&lt;/KlvPacketTable>&lt;VideoFormat>&lt;VideoRecPort port="DIRECT">&lt;/VideoRecPort>&lt;VideoFrame videoCodec="MPEG2HD35_1920_1080_MP@HL" captureFps="50.00i" recFps="50.00" formatFps="50i">&lt;/VideoFrame>&lt;VideoLayout pixel="1920" numOfVerticalLine="1080" aspectRatio="16:9">&lt;/VideoLayout>&lt;/VideoFormat>&lt;AudioFormat numOfChannel="2">&lt;AudioRecPort port="ANALOG" audioCodec="LPCM16" trackDst="CH1">&lt;/AudioRecPort>&lt;AudioRecPort port="ANALOG" audioCodec="LPCM16" trackDst="CH2">&lt;/AudioRecPort>&lt;/AudioFormat>&lt;Device manufacturer="Sony" modelName="PMW-EX3" serialNo="0401525">&lt;/Device>&lt;Lens modelName="VCL-614B2X">&lt;/Lens>&lt;RecordingMode type="normal" cacheRec="false">&lt;/RecordingMode>&lt;/NonRealTimeMeta>
							</value>
						</metadata>
						<metadata>
							<storage>QuickTime</storage>
							<key>com.apple.proapps.reel</key>
							<size>8</size>
							<type>UTF8</type>
							<value>Untitled</value>
						</metadata>
						<metadata>
							<storage>QuickTime</storage>
							<key>com.apple.proapps.clipID</key>
							<size>64</size>
							<type>UTF8</type>
							<value>060A2B340101010501010D43130000004105E479375605C508004602022F05F5</value>
						</metadata>
						<metadata>
							<storage>QuickTime</storage>
							<key>com.apple.quicktime.information</key>
							<size>64</size>
							<type>UTF8</type>
							<value>060a2b340101010501010d43130000004105e479375605c508004602022f05f5</value>
						</metadata>
						<metadata>
							<storage>QuickTime</storage>
							<key>com.apple.proapps.originalFormat</key>
							<size>36</size>
							<type>UTF8</type>
							<value>Apple XDCAM EX 1080i50 (35 Mb/s VBR)</value>
						</metadata>
						<timecode>
							<rate>
								<timebase>25</timebase>
							</rate>
							<string>09:11:52:08</string>
							<frame>827808</frame>
							<displayformat>NDF</displayformat>
							<source>source</source>
							<reel>
								<name>Untitled</name>
							</reel>
						</timecode>
						<media>
							<video>
								<duration>832</duration>
								<samplecharacteristics>
									<width>1920</width>
									<height>1080</height>
								</samplecharacteristics>
							</video>
							<audio>
								<samplecharacteristics>
									<samplerate>48000</samplerate>
									<depth>16</depth>
								</samplecharacteristics>
								<channelcount>1</channelcount>
								<layout>mono</layout>
								<audiochannel>
									<sourcechannel>1</sourcechannel>
									<channellabel>discrete</channellabel>
								</audiochannel>
							</audio>
							<audio>
								<samplecharacteristics>
									<samplerate>48000</samplerate>
									<depth>16</depth>
								</samplecharacteristics>
								<channelcount>1</channelcount>
								<layout>mono</layout>
								<audiochannel>
									<sourcechannel>2</sourcechannel>
									<channellabel>discrete</channellabel>
								</audiochannel>
							</audio>
						</media>
					</file>
					<sourcetrack>
						<mediatype>video</mediatype>
					</sourcetrack>
					<link>
						<linkclipref>DYR10454_01 </linkclipref>
						<mediatype>video</mediatype>
						<trackindex>1</trackindex>
						<clipindex>280</clipindex>
					</link>
					<fielddominance>upper</fielddominance>
					<itemhistory>
						<uuid>8F985695-95B9-4B59-B5E8-7C800320F346</uuid>
					</itemhistory>
				</clipitem>
				<clipitem id="DYR10460_01 ">
					<name>DYR10460_01</name>
					<duration>526</duration>
					<rate>
						<ntsc>FALSE</ntsc>
						<timebase>25</timebase>
					</rate>
					<in>75</in>
					<out>108</out>
					<start>24129</start>
					<end>24162</end>
					<pixelaspectratio>Square</pixelaspectratio>
					<enabled>TRUE</enabled>
					<anamorphic>FALSE</anamorphic>
					<alphatype>none</alphatype>
					<masterclipid>DYR10460_01 1</masterclipid>
					<logginginfo>
						<scene/>
						<shottake/>
						<lognote/>
						<good>FALSE</good>
					</logginginfo>
					<labels>
						<label2/>
					</labels>
					<comments>
						<mastercomment1/>
						<mastercomment2/>
						<mastercomment3/>
						<mastercomment4/>
					</comments>
					<file id="DYR10460_01 2">
						<name>DYR10460_01.mov</name>
						<pathurl>file://localhost/Volumes/Askepott/Prosjekter/DNPR637010_Kra%CC%8Akeklubben_TEM_011212/Video/MUSIKKVIDEO/Vinter/EX-3/DYR10460_01.mov</pathurl>
						<rate>
							<timebase>25</timebase>
						</rate>
						<duration>526</duration>
						<metadata>
							<storage>QuickTime</storage>
							<key>com.sony.bprl.xdcamtransfer.version</key>
							<size>10</size>
							<type>UTF8</type>
							<value>2.12.0.631</value>
						</metadata>
						<metadata>
							<storage>QuickTime</storage>
							<key>org.smpte.mxf.package.material.packageid</key>
							<size>66</size>
							<type>UTF8</type>
							<value>0x060a2b340101010501010d431300000059b4627d375605cc08004602022f05f5</value>
						</metadata>
						<metadata>
							<storage>QuickTime</storage>
							<key>com.sony.professionaldisc.nonrealtimemeta.lastupdate</key>
							<size>25</size>
							<type>UTF8</type>
							<value>2011-03-17 12:45:39 +0100</value>
						</metadata>
						<metadata>
							<storage>QuickTime</storage>
							<key>com.sony.bprl.mxf.umid</key>
							<size>64</size>
							<type>UTF8</type>
							<value>060a2b340101010501010d431300000059b4627d375605cc08004602022f05f5</value>
						</metadata>
						<metadata>
							<storage>QuickTime</storage>
							<key>com.sony.bprl.mxf.nrtmetadata</key>
							<size>1991</size>
							<type>UTF8</type>
							<value>&lt;?xml version="1.0" encoding="UTF-8"?>&lt;NonRealTimeMeta xmlns="urn:schemas-professionalDisc:nonRealTimeMeta:ver.1.20" xmlns:lib="urn:schemas-professionalDisc:lib:ver.1.20" xmlns:xsi="http://www.w3.org/2001/XMLSchema-instance" lastUpdate="2011-03-17T12:45:39+01:00">&lt;TargetMaterial umidRef="060A2B340101010501010D431300000059B4627D375605CC08004602022F05F5">&lt;/TargetMaterial>&lt;Duration value="526">&lt;/Duration>&lt;LtcChangeTable tcFps="25" halfStep="false">&lt;LtcChange frameCount="0" value="00531409" status="increment">&lt;/LtcChange>&lt;LtcChange frameCount="525" value="00141509" status="end">&lt;/LtcChange>&lt;/LtcChangeTable>&lt;CreationDate value="2011-03-17T12:45:17+01:00">&lt;/CreationDate>&lt;TypicalUbit value="0000000017061020">&lt;/TypicalUbit>&lt;BodyUmidBasicChangeTable>&lt;BodyUmidBasicChange frameCount="0" value="060A2B340101010501010D433300000059B4627D375605CC08004602022F05F5" status="start">&lt;/BodyUmidBasicChange>&lt;/BodyUmidBasicChangeTable>&lt;BodyUmidWhenChangeTable>&lt;BodyUmidWhenChange frameCount="0" value="04270904375605A5" status="increment">&lt;/BodyUmidWhenChange>&lt;BodyUmidWhenChange frameCount="525" value="44AA0904375605A5" status="end">&lt;/BodyUmidWhenChange>&lt;/BodyUmidWhenChangeTable>&lt;KlvPacketTable>&lt;KlvPacket key="060E2B34010101050301020A02000000" frameCount="0" lengthValue="095F5265635374617274" status="spot">&lt;/KlvPacket>&lt;/KlvPacketTable>&lt;VideoFormat>&lt;VideoRecPort port="DIRECT">&lt;/VideoRecPort>&lt;VideoFrame videoCodec="MPEG2HD35_1920_1080_MP@HL" captureFps="50.00i" recFps="50.00" formatFps="50i">&lt;/VideoFrame>&lt;VideoLayout pixel="1920" numOfVerticalLine="1080" aspectRatio="16:9">&lt;/VideoLayout>&lt;/VideoFormat>&lt;AudioFormat numOfChannel="2">&lt;AudioRecPort port="ANALOG" audioCodec="LPCM16" trackDst="CH1">&lt;/AudioRecPort>&lt;AudioRecPort port="ANALOG" audioCodec="LPCM16" trackDst="CH2">&lt;/AudioRecPort>&lt;/AudioFormat>&lt;Device manufacturer="Sony" modelName="PMW-EX3" serialNo="0401525">&lt;/Device>&lt;Lens modelName="VCL-614B2X">&lt;/Lens>&lt;RecordingMode type="normal" cacheRec="false">&lt;/RecordingMode>&lt;/NonRealTimeMeta>
							</value>
						</metadata>
						<metadata>
							<storage>QuickTime</storage>
							<key>com.apple.proapps.reel</key>
							<size>8</size>
							<type>UTF8</type>
							<value>Untitled</value>
						</metadata>
						<metadata>
							<storage>QuickTime</storage>
							<key>com.apple.proapps.clipID</key>
							<size>64</size>
							<type>UTF8</type>
							<value>060A2B340101010501010D431300000059B4627D375605CC08004602022F05F5</value>
						</metadata>
						<metadata>
							<storage>QuickTime</storage>
							<key>com.apple.quicktime.information</key>
							<size>64</size>
							<type>UTF8</type>
							<value>060a2b340101010501010d431300000059b4627d375605cc08004602022f05f5</value>
						</metadata>
						<metadata>
							<storage>QuickTime</storage>
							<key>com.apple.proapps.originalFormat</key>
							<size>36</size>
							<type>UTF8</type>
							<value>Apple XDCAM EX 1080i50 (35 Mb/s VBR)</value>
						</metadata>
						<timecode>
							<rate>
								<timebase>25</timebase>
							</rate>
							<string>09:14:53:00</string>
							<frame>832325</frame>
							<displayformat>NDF</displayformat>
							<source>source</source>
							<reel>
								<name>Untitled</name>
							</reel>
						</timecode>
						<media>
							<video>
								<duration>526</duration>
								<samplecharacteristics>
									<width>1920</width>
									<height>1080</height>
								</samplecharacteristics>
							</video>
							<audio>
								<samplecharacteristics>
									<samplerate>48000</samplerate>
									<depth>16</depth>
								</samplecharacteristics>
								<channelcount>1</channelcount>
								<layout>mono</layout>
								<audiochannel>
									<sourcechannel>1</sourcechannel>
									<channellabel>discrete</channellabel>
								</audiochannel>
							</audio>
							<audio>
								<samplecharacteristics>
									<samplerate>48000</samplerate>
									<depth>16</depth>
								</samplecharacteristics>
								<channelcount>1</channelcount>
								<layout>mono</layout>
								<audiochannel>
									<sourcechannel>2</sourcechannel>
									<channellabel>discrete</channellabel>
								</audiochannel>
							</audio>
						</media>
					</file>
					<sourcetrack>
						<mediatype>video</mediatype>
					</sourcetrack>
					<fielddominance>upper</fielddominance>
					<itemhistory>
						<uuid>AAD0E7C8-EBC4-4DCC-AD33-1FC512DDEB9D</uuid>
					</itemhistory>
				</clipitem>
				<clipitem id="DYR10459_01 ">
					<name>DYR10459_01</name>
					<duration>1045</duration>
					<rate>
						<ntsc>FALSE</ntsc>
						<timebase>25</timebase>
					</rate>
					<in>766</in>
					<out>803</out>
					<start>24162</start>
					<end>24199</end>
					<pixelaspectratio>Square</pixelaspectratio>
					<enabled>TRUE</enabled>
					<anamorphic>FALSE</anamorphic>
					<alphatype>none</alphatype>
					<masterclipid>DYR10459_01 1</masterclipid>
					<logginginfo>
						<scene/>
						<shottake/>
						<lognote/>
						<good>FALSE</good>
					</logginginfo>
					<labels>
						<label2/>
					</labels>
					<comments>
						<mastercomment1/>
						<mastercomment2/>
						<mastercomment3/>
						<mastercomment4/>
					</comments>
					<file id="DYR10459_01 2">
						<name>DYR10459_01.mov</name>
						<pathurl>file://localhost/Volumes/Askepott/Prosjekter/DNPR637010_Kra%CC%8Akeklubben_TEM_011212/Video/MUSIKKVIDEO/Vinter/EX-3/DYR10459_01.mov</pathurl>
						<rate>
							<timebase>25</timebase>
						</rate>
						<duration>1045</duration>
						<metadata>
							<storage>QuickTime</storage>
							<key>com.sony.bprl.xdcamtransfer.version</key>
							<size>10</size>
							<type>UTF8</type>
							<value>2.12.0.631</value>
						</metadata>
						<metadata>
							<storage>QuickTime</storage>
							<key>org.smpte.mxf.package.material.packageid</key>
							<size>66</size>
							<type>UTF8</type>
							<value>0x060a2b340101010501010d43130000000b60287d375605da08004602022f05f5</value>
						</metadata>
						<metadata>
							<storage>QuickTime</storage>
							<key>com.sony.professionaldisc.nonrealtimemeta.lastupdate</key>
							<size>25</size>
							<type>UTF8</type>
							<value>2011-03-17 12:44:43 +0100</value>
						</metadata>
						<metadata>
							<storage>QuickTime</storage>
							<key>com.sony.bprl.mxf.umid</key>
							<size>64</size>
							<type>UTF8</type>
							<value>060a2b340101010501010d43130000000b60287d375605da08004602022f05f5</value>
						</metadata>
						<metadata>
							<storage>QuickTime</storage>
							<key>com.sony.bprl.mxf.nrtmetadata</key>
							<size>1994</size>
							<type>UTF8</type>
							<value>&lt;?xml version="1.0" encoding="UTF-8"?>&lt;NonRealTimeMeta xmlns="urn:schemas-professionalDisc:nonRealTimeMeta:ver.1.20" xmlns:lib="urn:schemas-professionalDisc:lib:ver.1.20" xmlns:xsi="http://www.w3.org/2001/XMLSchema-instance" lastUpdate="2011-03-17T12:44:43+01:00">&lt;TargetMaterial umidRef="060A2B340101010501010D43130000000B60287D375605DA08004602022F05F5">&lt;/TargetMaterial>&lt;Duration value="1045">&lt;/Duration>&lt;LtcChangeTable tcFps="25" halfStep="false">&lt;LtcChange frameCount="0" value="05111409" status="increment">&lt;/LtcChange>&lt;LtcChange frameCount="1044" value="24521409" status="end">&lt;/LtcChange>&lt;/LtcChangeTable>&lt;CreationDate value="2011-03-17T12:44:00+01:00">&lt;/CreationDate>&lt;TypicalUbit value="0000000017061020">&lt;/TypicalUbit>&lt;BodyUmidBasicChangeTable>&lt;BodyUmidBasicChange frameCount="0" value="060A2B340101010501010D43330000000B60287D375605DA08004602022F05F5" status="start">&lt;/BodyUmidBasicChange>&lt;/BodyUmidBasicChangeTable>&lt;BodyUmidWhenChangeTable>&lt;BodyUmidWhenChange frameCount="0" value="44460704375605A5" status="increment">&lt;/BodyUmidWhenChange>&lt;BodyUmidWhenChange frameCount="1044" value="444B0804375605A5" status="end">&lt;/BodyUmidWhenChange>&lt;/BodyUmidWhenChangeTable>&lt;KlvPacketTable>&lt;KlvPacket key="060E2B34010101050301020A02000000" frameCount="0" lengthValue="095F5265635374617274" status="spot">&lt;/KlvPacket>&lt;/KlvPacketTable>&lt;VideoFormat>&lt;VideoRecPort port="DIRECT">&lt;/VideoRecPort>&lt;VideoFrame videoCodec="MPEG2HD35_1920_1080_MP@HL" captureFps="50.00i" recFps="50.00" formatFps="50i">&lt;/VideoFrame>&lt;VideoLayout pixel="1920" numOfVerticalLine="1080" aspectRatio="16:9">&lt;/VideoLayout>&lt;/VideoFormat>&lt;AudioFormat numOfChannel="2">&lt;AudioRecPort port="ANALOG" audioCodec="LPCM16" trackDst="CH1">&lt;/AudioRecPort>&lt;AudioRecPort port="ANALOG" audioCodec="LPCM16" trackDst="CH2">&lt;/AudioRecPort>&lt;/AudioFormat>&lt;Device manufacturer="Sony" modelName="PMW-EX3" serialNo="0401525">&lt;/Device>&lt;Lens modelName="VCL-614B2X">&lt;/Lens>&lt;RecordingMode type="normal" cacheRec="false">&lt;/RecordingMode>&lt;/NonRealTimeMeta>
							</value>
						</metadata>
						<metadata>
							<storage>QuickTime</storage>
							<key>com.apple.proapps.reel</key>
							<size>8</size>
							<type>UTF8</type>
							<value>Untitled</value>
						</metadata>
						<metadata>
							<storage>QuickTime</storage>
							<key>com.apple.proapps.clipID</key>
							<size>64</size>
							<type>UTF8</type>
							<value>060A2B340101010501010D43130000000B60287D375605DA08004602022F05F5</value>
						</metadata>
						<metadata>
							<storage>QuickTime</storage>
							<key>com.apple.quicktime.information</key>
							<size>64</size>
							<type>UTF8</type>
							<value>060a2b340101010501010d43130000000b60287d375605da08004602022f05f5</value>
						</metadata>
						<metadata>
							<storage>QuickTime</storage>
							<key>com.apple.proapps.originalFormat</key>
							<size>36</size>
							<type>UTF8</type>
							<value>Apple XDCAM EX 1080i50 (35 Mb/s VBR)</value>
						</metadata>
						<timecode>
							<rate>
								<timebase>25</timebase>
							</rate>
							<string>09:14:11:05</string>
							<frame>831280</frame>
							<displayformat>NDF</displayformat>
							<source>source</source>
							<reel>
								<name>Untitled</name>
							</reel>
						</timecode>
						<media>
							<video>
								<duration>1045</duration>
								<samplecharacteristics>
									<width>1920</width>
									<height>1080</height>
								</samplecharacteristics>
							</video>
							<audio>
								<samplecharacteristics>
									<samplerate>48000</samplerate>
									<depth>16</depth>
								</samplecharacteristics>
								<channelcount>1</channelcount>
								<layout>mono</layout>
								<audiochannel>
									<sourcechannel>1</sourcechannel>
									<channellabel>discrete</channellabel>
								</audiochannel>
							</audio>
							<audio>
								<samplecharacteristics>
									<samplerate>48000</samplerate>
									<depth>16</depth>
								</samplecharacteristics>
								<channelcount>1</channelcount>
								<layout>mono</layout>
								<audiochannel>
									<sourcechannel>2</sourcechannel>
									<channellabel>discrete</channellabel>
								</audiochannel>
							</audio>
						</media>
					</file>
					<sourcetrack>
						<mediatype>video</mediatype>
					</sourcetrack>
					<fielddominance>upper</fielddominance>
					<itemhistory>
						<uuid>68B66DC8-328B-4A56-8707-9AA287AB9080</uuid>
					</itemhistory>
				</clipitem>
				<clipitem id="DYR10458_01 ">
					<name>DYR10458_01</name>
					<duration>729</duration>
					<rate>
						<ntsc>FALSE</ntsc>
						<timebase>25</timebase>
					</rate>
					<in>472</in>
					<out>513</out>
					<start>24199</start>
					<end>24240</end>
					<pixelaspectratio>Square</pixelaspectratio>
					<enabled>TRUE</enabled>
					<anamorphic>FALSE</anamorphic>
					<alphatype>none</alphatype>
					<masterclipid>DYR10458_01 1</masterclipid>
					<logginginfo>
						<scene/>
						<shottake/>
						<lognote/>
						<good>FALSE</good>
					</logginginfo>
					<labels>
						<label2/>
					</labels>
					<comments>
						<mastercomment1/>
						<mastercomment2/>
						<mastercomment3/>
						<mastercomment4/>
					</comments>
					<file id="DYR10458_01 2">
						<name>DYR10458_01.mov</name>
						<pathurl>file://localhost/Volumes/Askepott/Prosjekter/DNPR637010_Kra%CC%8Akeklubben_TEM_011212/Video/MUSIKKVIDEO/Vinter/EX-3/DYR10458_01.mov</pathurl>
						<rate>
							<timebase>25</timebase>
						</rate>
						<duration>729</duration>
						<metadata>
							<storage>QuickTime</storage>
							<key>com.sony.bprl.xdcamtransfer.version</key>
							<size>10</size>
							<type>UTF8</type>
							<value>2.12.0.631</value>
						</metadata>
						<metadata>
							<storage>QuickTime</storage>
							<key>org.smpte.mxf.package.material.packageid</key>
							<size>66</size>
							<type>UTF8</type>
							<value>0x060a2b340101010501010d4313000000387ed97c375605dd08004602022f05f5</value>
						</metadata>
						<metadata>
							<storage>QuickTime</storage>
							<key>com.sony.professionaldisc.nonrealtimemeta.lastupdate</key>
							<size>25</size>
							<type>UTF8</type>
							<value>2011-03-17 12:42:47 +0100</value>
						</metadata>
						<metadata>
							<storage>QuickTime</storage>
							<key>com.sony.bprl.mxf.umid</key>
							<size>64</size>
							<type>UTF8</type>
							<value>060a2b340101010501010d4313000000387ed97c375605dd08004602022f05f5</value>
						</metadata>
						<metadata>
							<storage>QuickTime</storage>
							<key>com.sony.bprl.mxf.nrtmetadata</key>
							<size>1991</size>
							<type>UTF8</type>
							<value>&lt;?xml version="1.0" encoding="UTF-8"?>&lt;NonRealTimeMeta xmlns="urn:schemas-professionalDisc:nonRealTimeMeta:ver.1.20" xmlns:lib="urn:schemas-professionalDisc:lib:ver.1.20" xmlns:xsi="http://www.w3.org/2001/XMLSchema-instance" lastUpdate="2011-03-17T12:42:47+01:00">&lt;TargetMaterial umidRef="060A2B340101010501010D4313000000387ED97C375605DD08004602022F05F5">&lt;/TargetMaterial>&lt;Duration value="729">&lt;/Duration>&lt;LtcChangeTable tcFps="25" halfStep="false">&lt;LtcChange frameCount="0" value="01421309" status="increment">&lt;/LtcChange>&lt;LtcChange frameCount="728" value="04111409" status="end">&lt;/LtcChange>&lt;/LtcChangeTable>&lt;CreationDate value="2011-03-17T12:42:16+01:00">&lt;/CreationDate>&lt;TypicalUbit value="0000000017061020">&lt;/TypicalUbit>&lt;BodyUmidBasicChangeTable>&lt;BodyUmidBasicChange frameCount="0" value="060A2B340101010501010D4333000000387ED97C375605DD08004602022F05F5" status="start">&lt;/BodyUmidBasicChange>&lt;/BodyUmidBasicChangeTable>&lt;BodyUmidWhenChangeTable>&lt;BodyUmidWhenChange frameCount="0" value="84BC0404375605A5" status="increment">&lt;/BodyUmidWhenChange>&lt;BodyUmidWhenChange frameCount="728" value="84720504375605A5" status="end">&lt;/BodyUmidWhenChange>&lt;/BodyUmidWhenChangeTable>&lt;KlvPacketTable>&lt;KlvPacket key="060E2B34010101050301020A02000000" frameCount="0" lengthValue="095F5265635374617274" status="spot">&lt;/KlvPacket>&lt;/KlvPacketTable>&lt;VideoFormat>&lt;VideoRecPort port="DIRECT">&lt;/VideoRecPort>&lt;VideoFrame videoCodec="MPEG2HD35_1920_1080_MP@HL" captureFps="50.00i" recFps="50.00" formatFps="50i">&lt;/VideoFrame>&lt;VideoLayout pixel="1920" numOfVerticalLine="1080" aspectRatio="16:9">&lt;/VideoLayout>&lt;/VideoFormat>&lt;AudioFormat numOfChannel="2">&lt;AudioRecPort port="ANALOG" audioCodec="LPCM16" trackDst="CH1">&lt;/AudioRecPort>&lt;AudioRecPort port="ANALOG" audioCodec="LPCM16" trackDst="CH2">&lt;/AudioRecPort>&lt;/AudioFormat>&lt;Device manufacturer="Sony" modelName="PMW-EX3" serialNo="0401525">&lt;/Device>&lt;Lens modelName="VCL-614B2X">&lt;/Lens>&lt;RecordingMode type="normal" cacheRec="false">&lt;/RecordingMode>&lt;/NonRealTimeMeta>
							</value>
						</metadata>
						<metadata>
							<storage>QuickTime</storage>
							<key>com.apple.proapps.reel</key>
							<size>8</size>
							<type>UTF8</type>
							<value>Untitled</value>
						</metadata>
						<metadata>
							<storage>QuickTime</storage>
							<key>com.apple.proapps.clipID</key>
							<size>64</size>
							<type>UTF8</type>
							<value>060A2B340101010501010D4313000000387ED97C375605DD08004602022F05F5</value>
						</metadata>
						<metadata>
							<storage>QuickTime</storage>
							<key>com.apple.quicktime.information</key>
							<size>64</size>
							<type>UTF8</type>
							<value>060a2b340101010501010d4313000000387ed97c375605dd08004602022f05f5</value>
						</metadata>
						<metadata>
							<storage>QuickTime</storage>
							<key>com.apple.proapps.originalFormat</key>
							<size>36</size>
							<type>UTF8</type>
							<value>Apple XDCAM EX 1080i50 (35 Mb/s VBR)</value>
						</metadata>
						<timecode>
							<rate>
								<timebase>25</timebase>
							</rate>
							<string>09:13:42:01</string>
							<frame>830551</frame>
							<displayformat>NDF</displayformat>
							<source>source</source>
							<reel>
								<name>Untitled</name>
							</reel>
						</timecode>
						<media>
							<video>
								<duration>729</duration>
								<samplecharacteristics>
									<width>1920</width>
									<height>1080</height>
								</samplecharacteristics>
							</video>
							<audio>
								<samplecharacteristics>
									<samplerate>48000</samplerate>
									<depth>16</depth>
								</samplecharacteristics>
								<channelcount>1</channelcount>
								<layout>mono</layout>
								<audiochannel>
									<sourcechannel>1</sourcechannel>
									<channellabel>discrete</channellabel>
								</audiochannel>
							</audio>
							<audio>
								<samplecharacteristics>
									<samplerate>48000</samplerate>
									<depth>16</depth>
								</samplecharacteristics>
								<channelcount>1</channelcount>
								<layout>mono</layout>
								<audiochannel>
									<sourcechannel>2</sourcechannel>
									<channellabel>discrete</channellabel>
								</audiochannel>
							</audio>
						</media>
					</file>
					<sourcetrack>
						<mediatype>video</mediatype>
					</sourcetrack>
					<fielddominance>upper</fielddominance>
					<itemhistory>
						<uuid>55158579-F57A-4152-9D17-00FCFA3B32C1</uuid>
					</itemhistory>
				</clipitem>
				<clipitem id="DYR10470_01 ">
					<name>DYR10470_01</name>
					<duration>438</duration>
					<rate>
						<ntsc>FALSE</ntsc>
						<timebase>25</timebase>
					</rate>
					<in>166</in>
					<out>213</out>
					<start>24240</start>
					<end>24287</end>
					<pixelaspectratio>Square</pixelaspectratio>
					<enabled>TRUE</enabled>
					<anamorphic>FALSE</anamorphic>
					<alphatype>none</alphatype>
					<masterclipid>DYR10470_01 1</masterclipid>
					<logginginfo>
						<scene/>
						<shottake/>
						<lognote/>
						<good>FALSE</good>
					</logginginfo>
					<labels>
						<label2/>
					</labels>
					<comments>
						<mastercomment1/>
						<mastercomment2/>
						<mastercomment3/>
						<mastercomment4/>
					</comments>
					<file id="DYR10470_01 2">
						<name>DYR10470_01.mov</name>
						<pathurl>file://localhost/Volumes/Askepott/Prosjekter/DNPR637010_Kra%CC%8Akeklubben_TEM_011212/Video/MUSIKKVIDEO/Vinter/EX-3/DYR10470_01.mov</pathurl>
						<rate>
							<timebase>25</timebase>
						</rate>
						<duration>438</duration>
						<metadata>
							<storage>QuickTime</storage>
							<key>com.sony.bprl.xdcamtransfer.version</key>
							<size>10</size>
							<type>UTF8</type>
							<value>2.12.0.631</value>
						</metadata>
						<metadata>
							<storage>QuickTime</storage>
							<key>org.smpte.mxf.package.material.packageid</key>
							<size>66</size>
							<type>UTF8</type>
							<value>0x060a2b340101010501010d4313000000429d9f7f375605cb08004602022f05f5</value>
						</metadata>
						<metadata>
							<storage>QuickTime</storage>
							<key>com.sony.professionaldisc.nonrealtimemeta.lastupdate</key>
							<size>25</size>
							<type>UTF8</type>
							<value>2011-03-17 12:58:11 +0100</value>
						</metadata>
						<metadata>
							<storage>QuickTime</storage>
							<key>com.sony.bprl.mxf.umid</key>
							<size>64</size>
							<type>UTF8</type>
							<value>060a2b340101010501010d4313000000429d9f7f375605cb08004602022f05f5</value>
						</metadata>
						<metadata>
							<storage>QuickTime</storage>
							<key>com.sony.bprl.mxf.nrtmetadata</key>
							<size>1991</size>
							<type>UTF8</type>
							<value>&lt;?xml version="1.0" encoding="UTF-8"?>&lt;NonRealTimeMeta xmlns="urn:schemas-professionalDisc:nonRealTimeMeta:ver.1.20" xmlns:lib="urn:schemas-professionalDisc:lib:ver.1.20" xmlns:xsi="http://www.w3.org/2001/XMLSchema-instance" lastUpdate="2011-03-17T12:58:11+01:00">&lt;TargetMaterial umidRef="060A2B340101010501010D4313000000429D9F7F375605CB08004602022F05F5">&lt;/TargetMaterial>&lt;Duration value="438">&lt;/Duration>&lt;LtcChangeTable tcFps="25" halfStep="false">&lt;LtcChange frameCount="0" value="07501709" status="increment">&lt;/LtcChange>&lt;LtcChange frameCount="437" value="19071809" status="end">&lt;/LtcChange>&lt;/LtcChangeTable>&lt;CreationDate value="2011-03-17T12:57:52+01:00">&lt;/CreationDate>&lt;TypicalUbit value="0000000017061020">&lt;/TypicalUbit>&lt;BodyUmidBasicChangeTable>&lt;BodyUmidBasicChange frameCount="0" value="060A2B340101010501010D4333000000429D9F7F375605CB08004602022F05F5" status="start">&lt;/BodyUmidBasicChange>&lt;/BodyUmidBasicChangeTable>&lt;BodyUmidWhenChangeTable>&lt;BodyUmidWhenChange frameCount="0" value="C4971B04375605A5" status="increment">&lt;/BodyUmidWhenChange>&lt;BodyUmidWhenChange frameCount="437" value="04051C04375605A5" status="end">&lt;/BodyUmidWhenChange>&lt;/BodyUmidWhenChangeTable>&lt;KlvPacketTable>&lt;KlvPacket key="060E2B34010101050301020A02000000" frameCount="0" lengthValue="095F5265635374617274" status="spot">&lt;/KlvPacket>&lt;/KlvPacketTable>&lt;VideoFormat>&lt;VideoRecPort port="DIRECT">&lt;/VideoRecPort>&lt;VideoFrame videoCodec="MPEG2HD35_1920_1080_MP@HL" captureFps="50.00i" recFps="50.00" formatFps="50i">&lt;/VideoFrame>&lt;VideoLayout pixel="1920" numOfVerticalLine="1080" aspectRatio="16:9">&lt;/VideoLayout>&lt;/VideoFormat>&lt;AudioFormat numOfChannel="2">&lt;AudioRecPort port="ANALOG" audioCodec="LPCM16" trackDst="CH1">&lt;/AudioRecPort>&lt;AudioRecPort port="ANALOG" audioCodec="LPCM16" trackDst="CH2">&lt;/AudioRecPort>&lt;/AudioFormat>&lt;Device manufacturer="Sony" modelName="PMW-EX3" serialNo="0401525">&lt;/Device>&lt;Lens modelName="VCL-614B2X">&lt;/Lens>&lt;RecordingMode type="normal" cacheRec="false">&lt;/RecordingMode>&lt;/NonRealTimeMeta>
							</value>
						</metadata>
						<metadata>
							<storage>QuickTime</storage>
							<key>com.apple.proapps.reel</key>
							<size>8</size>
							<type>UTF8</type>
							<value>Untitled</value>
						</metadata>
						<metadata>
							<storage>QuickTime</storage>
							<key>com.apple.proapps.clipID</key>
							<size>64</size>
							<type>UTF8</type>
							<value>060A2B340101010501010D4313000000429D9F7F375605CB08004602022F05F5</value>
						</metadata>
						<metadata>
							<storage>QuickTime</storage>
							<key>com.apple.quicktime.information</key>
							<size>64</size>
							<type>UTF8</type>
							<value>060a2b340101010501010d4313000000429d9f7f375605cb08004602022f05f5</value>
						</metadata>
						<metadata>
							<storage>QuickTime</storage>
							<key>com.apple.proapps.originalFormat</key>
							<size>36</size>
							<type>UTF8</type>
							<value>Apple XDCAM EX 1080i50 (35 Mb/s VBR)</value>
						</metadata>
						<timecode>
							<rate>
								<timebase>25</timebase>
							</rate>
							<string>09:17:50:07</string>
							<frame>836757</frame>
							<displayformat>NDF</displayformat>
							<source>source</source>
							<reel>
								<name>Untitled</name>
							</reel>
						</timecode>
						<media>
							<video>
								<duration>438</duration>
								<samplecharacteristics>
									<width>1920</width>
									<height>1080</height>
								</samplecharacteristics>
							</video>
							<audio>
								<samplecharacteristics>
									<samplerate>48000</samplerate>
									<depth>16</depth>
								</samplecharacteristics>
								<channelcount>1</channelcount>
								<layout>mono</layout>
								<audiochannel>
									<sourcechannel>1</sourcechannel>
									<channellabel>discrete</channellabel>
								</audiochannel>
							</audio>
							<audio>
								<samplecharacteristics>
									<samplerate>48000</samplerate>
									<depth>16</depth>
								</samplecharacteristics>
								<channelcount>1</channelcount>
								<layout>mono</layout>
								<audiochannel>
									<sourcechannel>2</sourcechannel>
									<channellabel>discrete</channellabel>
								</audiochannel>
							</audio>
						</media>
					</file>
					<sourcetrack>
						<mediatype>video</mediatype>
					</sourcetrack>
					<fielddominance>upper</fielddominance>
					<itemhistory>
						<uuid>4C5571DF-4676-4E31-ACF6-89BD247B651D</uuid>
					</itemhistory>
				</clipitem>
				<clipitem id="DYR10469_01 ">
					<name>DYR10469_01</name>
					<duration>370</duration>
					<rate>
						<ntsc>FALSE</ntsc>
						<timebase>25</timebase>
					</rate>
					<in>194</in>
					<out>227</out>
					<start>24287</start>
					<end>24320</end>
					<pixelaspectratio>Square</pixelaspectratio>
					<enabled>TRUE</enabled>
					<anamorphic>FALSE</anamorphic>
					<alphatype>none</alphatype>
					<masterclipid>DYR10469_01 1</masterclipid>
					<logginginfo>
						<scene/>
						<shottake/>
						<lognote/>
						<good>FALSE</good>
					</logginginfo>
					<labels>
						<label2/>
					</labels>
					<comments>
						<mastercomment1/>
						<mastercomment2/>
						<mastercomment3/>
						<mastercomment4/>
					</comments>
					<file id="DYR10469_01 2">
						<name>DYR10469_01.mov</name>
						<pathurl>file://localhost/Volumes/Askepott/Prosjekter/DNPR637010_Kra%CC%8Akeklubben_TEM_011212/Video/MUSIKKVIDEO/Vinter/EX-3/DYR10469_01.mov</pathurl>
						<rate>
							<timebase>25</timebase>
						</rate>
						<duration>370</duration>
						<metadata>
							<storage>QuickTime</storage>
							<key>com.sony.bprl.xdcamtransfer.version</key>
							<size>10</size>
							<type>UTF8</type>
							<value>2.12.0.631</value>
						</metadata>
						<metadata>
							<storage>QuickTime</storage>
							<key>org.smpte.mxf.package.material.packageid</key>
							<size>66</size>
							<type>UTF8</type>
							<value>0x060a2b340101010501010d431300000057e4837f375605dd08004602022f05f5</value>
						</metadata>
						<metadata>
							<storage>QuickTime</storage>
							<key>com.sony.professionaldisc.nonrealtimemeta.lastupdate</key>
							<size>25</size>
							<type>UTF8</type>
							<value>2011-03-17 12:57:32 +0100</value>
						</metadata>
						<metadata>
							<storage>QuickTime</storage>
							<key>com.sony.bprl.mxf.umid</key>
							<size>64</size>
							<type>UTF8</type>
							<value>060a2b340101010501010d431300000057e4837f375605dd08004602022f05f5</value>
						</metadata>
						<metadata>
							<storage>QuickTime</storage>
							<key>com.sony.bprl.mxf.nrtmetadata</key>
							<size>1991</size>
							<type>UTF8</type>
							<value>&lt;?xml version="1.0" encoding="UTF-8"?>&lt;NonRealTimeMeta xmlns="urn:schemas-professionalDisc:nonRealTimeMeta:ver.1.20" xmlns:lib="urn:schemas-professionalDisc:lib:ver.1.20" xmlns:xsi="http://www.w3.org/2001/XMLSchema-instance" lastUpdate="2011-03-17T12:57:32+01:00">&lt;TargetMaterial umidRef="060A2B340101010501010D431300000057E4837F375605DD08004602022F05F5">&lt;/TargetMaterial>&lt;Duration value="370">&lt;/Duration>&lt;LtcChangeTable tcFps="25" halfStep="false">&lt;LtcChange frameCount="0" value="12351709" status="increment">&lt;/LtcChange>&lt;LtcChange frameCount="369" value="06501709" status="end">&lt;/LtcChange>&lt;/LtcChangeTable>&lt;CreationDate value="2011-03-17T12:57:16+01:00">&lt;/CreationDate>&lt;TypicalUbit value="0000000017061020">&lt;/TypicalUbit>&lt;BodyUmidBasicChangeTable>&lt;BodyUmidBasicChange frameCount="0" value="060A2B340101010501010D433300000057E4837F375605DD08004602022F05F5" status="start">&lt;/BodyUmidBasicChange>&lt;/BodyUmidBasicChangeTable>&lt;BodyUmidWhenChangeTable>&lt;BodyUmidWhenChange frameCount="0" value="44B31A04375605A5" status="increment">&lt;/BodyUmidWhenChange>&lt;BodyUmidWhenChange frameCount="369" value="840F1B04375605A5" status="end">&lt;/BodyUmidWhenChange>&lt;/BodyUmidWhenChangeTable>&lt;KlvPacketTable>&lt;KlvPacket key="060E2B34010101050301020A02000000" frameCount="0" lengthValue="095F5265635374617274" status="spot">&lt;/KlvPacket>&lt;/KlvPacketTable>&lt;VideoFormat>&lt;VideoRecPort port="DIRECT">&lt;/VideoRecPort>&lt;VideoFrame videoCodec="MPEG2HD35_1920_1080_MP@HL" captureFps="50.00i" recFps="50.00" formatFps="50i">&lt;/VideoFrame>&lt;VideoLayout pixel="1920" numOfVerticalLine="1080" aspectRatio="16:9">&lt;/VideoLayout>&lt;/VideoFormat>&lt;AudioFormat numOfChannel="2">&lt;AudioRecPort port="ANALOG" audioCodec="LPCM16" trackDst="CH1">&lt;/AudioRecPort>&lt;AudioRecPort port="ANALOG" audioCodec="LPCM16" trackDst="CH2">&lt;/AudioRecPort>&lt;/AudioFormat>&lt;Device manufacturer="Sony" modelName="PMW-EX3" serialNo="0401525">&lt;/Device>&lt;Lens modelName="VCL-614B2X">&lt;/Lens>&lt;RecordingMode type="normal" cacheRec="false">&lt;/RecordingMode>&lt;/NonRealTimeMeta>
							</value>
						</metadata>
						<metadata>
							<storage>QuickTime</storage>
							<key>com.apple.proapps.reel</key>
							<size>8</size>
							<type>UTF8</type>
							<value>Untitled</value>
						</metadata>
						<metadata>
							<storage>QuickTime</storage>
							<key>com.apple.proapps.clipID</key>
							<size>64</size>
							<type>UTF8</type>
							<value>060A2B340101010501010D431300000057E4837F375605DD08004602022F05F5</value>
						</metadata>
						<metadata>
							<storage>QuickTime</storage>
							<key>com.apple.quicktime.information</key>
							<size>64</size>
							<type>UTF8</type>
							<value>060a2b340101010501010d431300000057e4837f375605dd08004602022f05f5</value>
						</metadata>
						<metadata>
							<storage>QuickTime</storage>
							<key>com.apple.proapps.originalFormat</key>
							<size>36</size>
							<type>UTF8</type>
							<value>Apple XDCAM EX 1080i50 (35 Mb/s VBR)</value>
						</metadata>
						<timecode>
							<rate>
								<timebase>25</timebase>
							</rate>
							<string>09:17:35:12</string>
							<frame>836387</frame>
							<displayformat>NDF</displayformat>
							<source>source</source>
							<reel>
								<name>Untitled</name>
							</reel>
						</timecode>
						<media>
							<video>
								<duration>370</duration>
								<samplecharacteristics>
									<width>1920</width>
									<height>1080</height>
								</samplecharacteristics>
							</video>
							<audio>
								<samplecharacteristics>
									<samplerate>48000</samplerate>
									<depth>16</depth>
								</samplecharacteristics>
								<channelcount>1</channelcount>
								<layout>mono</layout>
								<audiochannel>
									<sourcechannel>1</sourcechannel>
									<channellabel>discrete</channellabel>
								</audiochannel>
							</audio>
							<audio>
								<samplecharacteristics>
									<samplerate>48000</samplerate>
									<depth>16</depth>
								</samplecharacteristics>
								<channelcount>1</channelcount>
								<layout>mono</layout>
								<audiochannel>
									<sourcechannel>2</sourcechannel>
									<channellabel>discrete</channellabel>
								</audiochannel>
							</audio>
						</media>
					</file>
					<sourcetrack>
						<mediatype>video</mediatype>
					</sourcetrack>
					<fielddominance>upper</fielddominance>
					<itemhistory>
						<uuid>74500F82-7656-4509-833A-0EA932A80B38</uuid>
					</itemhistory>
				</clipitem>
				<clipitem id="DYR10472_01 ">
					<name>DYR10472_01</name>
					<duration>523</duration>
					<rate>
						<ntsc>FALSE</ntsc>
						<timebase>25</timebase>
					</rate>
					<in>129</in>
					<out>163</out>
					<start>24320</start>
					<end>24354</end>
					<pixelaspectratio>Square</pixelaspectratio>
					<enabled>TRUE</enabled>
					<anamorphic>FALSE</anamorphic>
					<alphatype>none</alphatype>
					<masterclipid>DYR10472_01 1</masterclipid>
					<logginginfo>
						<scene/>
						<shottake/>
						<lognote/>
						<good>FALSE</good>
					</logginginfo>
					<labels>
						<label2/>
					</labels>
					<comments>
						<mastercomment1/>
						<mastercomment2/>
						<mastercomment3/>
						<mastercomment4/>
					</comments>
					<file id="DYR10472_01 2">
						<name>DYR10472_01.mov</name>
						<pathurl>file://localhost/Volumes/Askepott/Prosjekter/DNPR637010_Kra%CC%8Akeklubben_TEM_011212/Video/MUSIKKVIDEO/Vinter/EX-3/DYR10472_01.mov</pathurl>
						<rate>
							<timebase>25</timebase>
						</rate>
						<duration>523</duration>
						<metadata>
							<storage>QuickTime</storage>
							<key>com.sony.bprl.xdcamtransfer.version</key>
							<size>10</size>
							<type>UTF8</type>
							<value>2.12.0.631</value>
						</metadata>
						<metadata>
							<storage>QuickTime</storage>
							<key>org.smpte.mxf.package.material.packageid</key>
							<size>66</size>
							<type>UTF8</type>
							<value>0x060a2b340101010501010d4313000000132ffc7f375605da08004602022f05f5</value>
						</metadata>
						<metadata>
							<storage>QuickTime</storage>
							<key>com.sony.professionaldisc.nonrealtimemeta.lastupdate</key>
							<size>25</size>
							<type>UTF8</type>
							<value>2011-03-17 13:00:16 +0100</value>
						</metadata>
						<metadata>
							<storage>QuickTime</storage>
							<key>com.sony.bprl.mxf.umid</key>
							<size>64</size>
							<type>UTF8</type>
							<value>060a2b340101010501010d4313000000132ffc7f375605da08004602022f05f5</value>
						</metadata>
						<metadata>
							<storage>QuickTime</storage>
							<key>com.sony.bprl.mxf.nrtmetadata</key>
							<size>1991</size>
							<type>UTF8</type>
							<value>&lt;?xml version="1.0" encoding="UTF-8"?>&lt;NonRealTimeMeta xmlns="urn:schemas-professionalDisc:nonRealTimeMeta:ver.1.20" xmlns:lib="urn:schemas-professionalDisc:lib:ver.1.20" xmlns:xsi="http://www.w3.org/2001/XMLSchema-instance" lastUpdate="2011-03-17T13:00:16+01:00">&lt;TargetMaterial umidRef="060A2B340101010501010D4313000000132FFC7F375605DA08004602022F05F5">&lt;/TargetMaterial>&lt;Duration value="523">&lt;/Duration>&lt;LtcChangeTable tcFps="25" halfStep="false">&lt;LtcChange frameCount="0" value="14201809" status="increment">&lt;/LtcChange>&lt;LtcChange frameCount="522" value="11411809" status="end">&lt;/LtcChange>&lt;/LtcChangeTable>&lt;CreationDate value="2011-03-17T12:59:54+01:00">&lt;/CreationDate>&lt;TypicalUbit value="0000000017061020">&lt;/TypicalUbit>&lt;BodyUmidBasicChangeTable>&lt;BodyUmidBasicChange frameCount="0" value="060A2B340101010501010D4333000000132FFC7F375605DA08004602022F05F5" status="start">&lt;/BodyUmidBasicChange>&lt;/BodyUmidBasicChangeTable>&lt;BodyUmidWhenChangeTable>&lt;BodyUmidWhenChange frameCount="0" value="84921E04375605A5" status="increment">&lt;/BodyUmidWhenChange>&lt;BodyUmidWhenChange frameCount="522" value="04151F04375605A5" status="end">&lt;/BodyUmidWhenChange>&lt;/BodyUmidWhenChangeTable>&lt;KlvPacketTable>&lt;KlvPacket key="060E2B34010101050301020A02000000" frameCount="0" lengthValue="095F5265635374617274" status="spot">&lt;/KlvPacket>&lt;/KlvPacketTable>&lt;VideoFormat>&lt;VideoRecPort port="DIRECT">&lt;/VideoRecPort>&lt;VideoFrame videoCodec="MPEG2HD35_1920_1080_MP@HL" captureFps="50.00i" recFps="50.00" formatFps="50i">&lt;/VideoFrame>&lt;VideoLayout pixel="1920" numOfVerticalLine="1080" aspectRatio="16:9">&lt;/VideoLayout>&lt;/VideoFormat>&lt;AudioFormat numOfChannel="2">&lt;AudioRecPort port="ANALOG" audioCodec="LPCM16" trackDst="CH1">&lt;/AudioRecPort>&lt;AudioRecPort port="ANALOG" audioCodec="LPCM16" trackDst="CH2">&lt;/AudioRecPort>&lt;/AudioFormat>&lt;Device manufacturer="Sony" modelName="PMW-EX3" serialNo="0401525">&lt;/Device>&lt;Lens modelName="VCL-614B2X">&lt;/Lens>&lt;RecordingMode type="normal" cacheRec="false">&lt;/RecordingMode>&lt;/NonRealTimeMeta>
							</value>
						</metadata>
						<metadata>
							<storage>QuickTime</storage>
							<key>com.apple.proapps.reel</key>
							<size>8</size>
							<type>UTF8</type>
							<value>Untitled</value>
						</metadata>
						<metadata>
							<storage>QuickTime</storage>
							<key>com.apple.proapps.clipID</key>
							<size>64</size>
							<type>UTF8</type>
							<value>060A2B340101010501010D4313000000132FFC7F375605DA08004602022F05F5</value>
						</metadata>
						<metadata>
							<storage>QuickTime</storage>
							<key>com.apple.quicktime.information</key>
							<size>64</size>
							<type>UTF8</type>
							<value>060a2b340101010501010d4313000000132ffc7f375605da08004602022f05f5</value>
						</metadata>
						<metadata>
							<storage>QuickTime</storage>
							<key>com.apple.proapps.originalFormat</key>
							<size>36</size>
							<type>UTF8</type>
							<value>Apple XDCAM EX 1080i50 (35 Mb/s VBR)</value>
						</metadata>
						<timecode>
							<rate>
								<timebase>25</timebase>
							</rate>
							<string>09:18:20:14</string>
							<frame>837514</frame>
							<displayformat>NDF</displayformat>
							<source>source</source>
							<reel>
								<name>Untitled</name>
							</reel>
						</timecode>
						<media>
							<video>
								<duration>523</duration>
								<samplecharacteristics>
									<width>1920</width>
									<height>1080</height>
								</samplecharacteristics>
							</video>
							<audio>
								<samplecharacteristics>
									<samplerate>48000</samplerate>
									<depth>16</depth>
								</samplecharacteristics>
								<channelcount>1</channelcount>
								<layout>mono</layout>
								<audiochannel>
									<sourcechannel>1</sourcechannel>
									<channellabel>discrete</channellabel>
								</audiochannel>
							</audio>
							<audio>
								<samplecharacteristics>
									<samplerate>48000</samplerate>
									<depth>16</depth>
								</samplecharacteristics>
								<channelcount>1</channelcount>
								<layout>mono</layout>
								<audiochannel>
									<sourcechannel>2</sourcechannel>
									<channellabel>discrete</channellabel>
								</audiochannel>
							</audio>
						</media>
					</file>
					<sourcetrack>
						<mediatype>video</mediatype>
					</sourcetrack>
					<fielddominance>upper</fielddominance>
					<itemhistory>
						<uuid>AF456215-6659-4D49-9DB1-510463B24721</uuid>
					</itemhistory>
				</clipitem>
				<clipitem id="DYR10474_01 ">
					<name>DYR10474_01</name>
					<duration>1169</duration>
					<rate>
						<ntsc>FALSE</ntsc>
						<timebase>25</timebase>
					</rate>
					<in>377</in>
					<out>443</out>
					<start>24354</start>
					<end>24420</end>
					<pixelaspectratio>Square</pixelaspectratio>
					<enabled>TRUE</enabled>
					<anamorphic>FALSE</anamorphic>
					<alphatype>none</alphatype>
					<masterclipid>DYR10474_01 1</masterclipid>
					<logginginfo>
						<scene/>
						<shottake/>
						<lognote/>
						<good>FALSE</good>
					</logginginfo>
					<labels>
						<label2/>
					</labels>
					<comments>
						<mastercomment1/>
						<mastercomment2/>
						<mastercomment3/>
						<mastercomment4/>
					</comments>
					<file id="DYR10474_01 2">
						<name>DYR10474_01.mov</name>
						<pathurl>file://localhost/Volumes/Askepott/Prosjekter/DNPR637010_Kra%CC%8Akeklubben_TEM_011212/Video/MUSIKKVIDEO/Vinter/EX-3/DYR10474_01.mov</pathurl>
						<rate>
							<timebase>25</timebase>
						</rate>
						<duration>1169</duration>
						<metadata>
							<storage>QuickTime</storage>
							<key>com.sony.bprl.xdcamtransfer.version</key>
							<size>10</size>
							<type>UTF8</type>
							<value>2.12.0.631</value>
						</metadata>
						<metadata>
							<storage>QuickTime</storage>
							<key>org.smpte.mxf.package.material.packageid</key>
							<size>66</size>
							<type>UTF8</type>
							<value>0x060a2b340101010501010d43130000005fca6c82375605ce08004602022f05f5</value>
						</metadata>
						<metadata>
							<storage>QuickTime</storage>
							<key>com.sony.professionaldisc.nonrealtimemeta.lastupdate</key>
							<size>25</size>
							<type>UTF8</type>
							<value>2011-03-17 13:14:26 +0100</value>
						</metadata>
						<metadata>
							<storage>QuickTime</storage>
							<key>com.sony.bprl.mxf.umid</key>
							<size>64</size>
							<type>UTF8</type>
							<value>060a2b340101010501010d43130000005fca6c82375605ce08004602022f05f5</value>
						</metadata>
						<metadata>
							<storage>QuickTime</storage>
							<key>com.sony.bprl.mxf.nrtmetadata</key>
							<size>1994</size>
							<type>UTF8</type>
							<value>&lt;?xml version="1.0" encoding="UTF-8"?>&lt;NonRealTimeMeta xmlns="urn:schemas-professionalDisc:nonRealTimeMeta:ver.1.20" xmlns:lib="urn:schemas-professionalDisc:lib:ver.1.20" xmlns:xsi="http://www.w3.org/2001/XMLSchema-instance" lastUpdate="2011-03-17T13:14:26+01:00">&lt;TargetMaterial umidRef="060A2B340101010501010D43130000005FCA6C82375605CE08004602022F05F5">&lt;/TargetMaterial>&lt;Duration value="1169">&lt;/Duration>&lt;LtcChangeTable tcFps="25" halfStep="false">&lt;LtcChange frameCount="0" value="03271909" status="increment">&lt;/LtcChange>&lt;LtcChange frameCount="1168" value="21132009" status="end">&lt;/LtcChange>&lt;/LtcChangeTable>&lt;CreationDate value="2011-03-17T13:13:38+01:00">&lt;/CreationDate>&lt;TypicalUbit value="0000000017061020">&lt;/TypicalUbit>&lt;BodyUmidBasicChangeTable>&lt;BodyUmidBasicChange frameCount="0" value="060A2B340101010501010D43330000005FCA6C82375605CE08004602022F05F5" status="start">&lt;/BodyUmidBasicChange>&lt;/BodyUmidBasicChangeTable>&lt;BodyUmidWhenChangeTable>&lt;BodyUmidWhenChange frameCount="0" value="44AD3204375605A5" status="increment">&lt;/BodyUmidWhenChange>&lt;BodyUmidWhenChange frameCount="1168" value="44D13304375605A5" status="end">&lt;/BodyUmidWhenChange>&lt;/BodyUmidWhenChangeTable>&lt;KlvPacketTable>&lt;KlvPacket key="060E2B34010101050301020A02000000" frameCount="0" lengthValue="095F5265635374617274" status="spot">&lt;/KlvPacket>&lt;/KlvPacketTable>&lt;VideoFormat>&lt;VideoRecPort port="DIRECT">&lt;/VideoRecPort>&lt;VideoFrame videoCodec="MPEG2HD35_1920_1080_MP@HL" captureFps="50.00i" recFps="50.00" formatFps="50i">&lt;/VideoFrame>&lt;VideoLayout pixel="1920" numOfVerticalLine="1080" aspectRatio="16:9">&lt;/VideoLayout>&lt;/VideoFormat>&lt;AudioFormat numOfChannel="2">&lt;AudioRecPort port="ANALOG" audioCodec="LPCM16" trackDst="CH1">&lt;/AudioRecPort>&lt;AudioRecPort port="ANALOG" audioCodec="LPCM16" trackDst="CH2">&lt;/AudioRecPort>&lt;/AudioFormat>&lt;Device manufacturer="Sony" modelName="PMW-EX3" serialNo="0401525">&lt;/Device>&lt;Lens modelName="VCL-614B2X">&lt;/Lens>&lt;RecordingMode type="normal" cacheRec="false">&lt;/RecordingMode>&lt;/NonRealTimeMeta>
							</value>
						</metadata>
						<metadata>
							<storage>QuickTime</storage>
							<key>com.apple.proapps.reel</key>
							<size>8</size>
							<type>UTF8</type>
							<value>Untitled</value>
						</metadata>
						<metadata>
							<storage>QuickTime</storage>
							<key>com.apple.proapps.clipID</key>
							<size>64</size>
							<type>UTF8</type>
							<value>060A2B340101010501010D43130000005FCA6C82375605CE08004602022F05F5</value>
						</metadata>
						<metadata>
							<storage>QuickTime</storage>
							<key>com.apple.quicktime.information</key>
							<size>64</size>
							<type>UTF8</type>
							<value>060a2b340101010501010d43130000005fca6c82375605ce08004602022f05f5</value>
						</metadata>
						<metadata>
							<storage>QuickTime</storage>
							<key>com.apple.proapps.originalFormat</key>
							<size>36</size>
							<type>UTF8</type>
							<value>Apple XDCAM EX 1080i50 (35 Mb/s VBR)</value>
						</metadata>
						<timecode>
							<rate>
								<timebase>25</timebase>
							</rate>
							<string>09:19:27:03</string>
							<frame>839178</frame>
							<displayformat>NDF</displayformat>
							<source>source</source>
							<reel>
								<name>Untitled</name>
							</reel>
						</timecode>
						<media>
							<video>
								<duration>1169</duration>
								<samplecharacteristics>
									<width>1920</width>
									<height>1080</height>
								</samplecharacteristics>
							</video>
							<audio>
								<samplecharacteristics>
									<samplerate>48000</samplerate>
									<depth>16</depth>
								</samplecharacteristics>
								<channelcount>1</channelcount>
								<layout>mono</layout>
								<audiochannel>
									<sourcechannel>1</sourcechannel>
									<channellabel>discrete</channellabel>
								</audiochannel>
							</audio>
							<audio>
								<samplecharacteristics>
									<samplerate>48000</samplerate>
									<depth>16</depth>
								</samplecharacteristics>
								<channelcount>1</channelcount>
								<layout>mono</layout>
								<audiochannel>
									<sourcechannel>2</sourcechannel>
									<channellabel>discrete</channellabel>
								</audiochannel>
							</audio>
						</media>
					</file>
					<sourcetrack>
						<mediatype>video</mediatype>
					</sourcetrack>
					<fielddominance>upper</fielddominance>
					<itemhistory>
						<uuid>693B55A1-7752-4B46-84E0-4B30B4E76AFC</uuid>
					</itemhistory>
				</clipitem>
				<clipitem id="DYR10475_01 ">
					<name>DYR10475_01</name>
					<duration>1174</duration>
					<rate>
						<ntsc>FALSE</ntsc>
						<timebase>25</timebase>
					</rate>
					<in>509</in>
					<out>556</out>
					<start>24420</start>
					<end>24467</end>
					<pixelaspectratio>Square</pixelaspectratio>
					<enabled>TRUE</enabled>
					<anamorphic>FALSE</anamorphic>
					<alphatype>none</alphatype>
					<masterclipid>DYR10475_01 1</masterclipid>
					<logginginfo>
						<scene/>
						<shottake/>
						<lognote/>
						<good>FALSE</good>
					</logginginfo>
					<labels>
						<label2/>
					</labels>
					<comments>
						<mastercomment1/>
						<mastercomment2/>
						<mastercomment3/>
						<mastercomment4/>
					</comments>
					<file id="DYR10475_01 2">
						<name>DYR10475_01.mov</name>
						<pathurl>file://localhost/Volumes/Askepott/Prosjekter/DNPR637010_Kra%CC%8Akeklubben_TEM_011212/Video/MUSIKKVIDEO/Vinter/EX-3/DYR10475_01.mov</pathurl>
						<rate>
							<timebase>25</timebase>
						</rate>
						<duration>1174</duration>
						<metadata>
							<storage>QuickTime</storage>
							<key>com.sony.bprl.xdcamtransfer.version</key>
							<size>10</size>
							<type>UTF8</type>
							<value>2.12.0.631</value>
						</metadata>
						<metadata>
							<storage>QuickTime</storage>
							<key>org.smpte.mxf.package.material.packageid</key>
							<size>66</size>
							<type>UTF8</type>
							<value>0x060a2b340101010501010d43130000002a84c182375605c808004602022f05f5</value>
						</metadata>
						<metadata>
							<storage>QuickTime</storage>
							<key>com.sony.professionaldisc.nonrealtimemeta.lastupdate</key>
							<size>25</size>
							<type>UTF8</type>
							<value>2011-03-17 13:16:17 +0100</value>
						</metadata>
						<metadata>
							<storage>QuickTime</storage>
							<key>com.sony.bprl.mxf.umid</key>
							<size>64</size>
							<type>UTF8</type>
							<value>060a2b340101010501010d43130000002a84c182375605c808004602022f05f5</value>
						</metadata>
						<metadata>
							<storage>QuickTime</storage>
							<key>com.sony.bprl.mxf.nrtmetadata</key>
							<size>1994</size>
							<type>UTF8</type>
							<value>&lt;?xml version="1.0" encoding="UTF-8"?>&lt;NonRealTimeMeta xmlns="urn:schemas-professionalDisc:nonRealTimeMeta:ver.1.20" xmlns:lib="urn:schemas-professionalDisc:lib:ver.1.20" xmlns:xsi="http://www.w3.org/2001/XMLSchema-instance" lastUpdate="2011-03-17T13:16:17+01:00">&lt;TargetMaterial umidRef="060A2B340101010501010D43130000002A84C182375605C808004602022F05F5">&lt;/TargetMaterial>&lt;Duration value="1174">&lt;/Duration>&lt;LtcChangeTable tcFps="25" halfStep="false">&lt;LtcChange frameCount="0" value="22132009" status="increment">&lt;/LtcChange>&lt;LtcChange frameCount="1173" value="20002109" status="end">&lt;/LtcChange>&lt;/LtcChangeTable>&lt;CreationDate value="2011-03-17T13:15:30+01:00">&lt;/CreationDate>&lt;TypicalUbit value="0000000017061020">&lt;/TypicalUbit>&lt;BodyUmidBasicChangeTable>&lt;BodyUmidBasicChange frameCount="0" value="060A2B340101010501010D43330000002A84C182375605C808004602022F05F5" status="start">&lt;/BodyUmidBasicChange>&lt;/BodyUmidBasicChangeTable>&lt;BodyUmidWhenChangeTable>&lt;BodyUmidWhenChange frameCount="0" value="84673504375605A5" status="increment">&lt;/BodyUmidWhenChange>&lt;BodyUmidWhenChange frameCount="1173" value="C48C3604375605A5" status="end">&lt;/BodyUmidWhenChange>&lt;/BodyUmidWhenChangeTable>&lt;KlvPacketTable>&lt;KlvPacket key="060E2B34010101050301020A02000000" frameCount="0" lengthValue="095F5265635374617274" status="spot">&lt;/KlvPacket>&lt;/KlvPacketTable>&lt;VideoFormat>&lt;VideoRecPort port="DIRECT">&lt;/VideoRecPort>&lt;VideoFrame videoCodec="MPEG2HD35_1920_1080_MP@HL" captureFps="50.00i" recFps="50.00" formatFps="50i">&lt;/VideoFrame>&lt;VideoLayout pixel="1920" numOfVerticalLine="1080" aspectRatio="16:9">&lt;/VideoLayout>&lt;/VideoFormat>&lt;AudioFormat numOfChannel="2">&lt;AudioRecPort port="ANALOG" audioCodec="LPCM16" trackDst="CH1">&lt;/AudioRecPort>&lt;AudioRecPort port="ANALOG" audioCodec="LPCM16" trackDst="CH2">&lt;/AudioRecPort>&lt;/AudioFormat>&lt;Device manufacturer="Sony" modelName="PMW-EX3" serialNo="0401525">&lt;/Device>&lt;Lens modelName="VCL-614B2X">&lt;/Lens>&lt;RecordingMode type="normal" cacheRec="false">&lt;/RecordingMode>&lt;/NonRealTimeMeta>
							</value>
						</metadata>
						<metadata>
							<storage>QuickTime</storage>
							<key>com.apple.proapps.reel</key>
							<size>8</size>
							<type>UTF8</type>
							<value>Untitled</value>
						</metadata>
						<metadata>
							<storage>QuickTime</storage>
							<key>com.apple.proapps.clipID</key>
							<size>64</size>
							<type>UTF8</type>
							<value>060A2B340101010501010D43130000002A84C182375605C808004602022F05F5</value>
						</metadata>
						<metadata>
							<storage>QuickTime</storage>
							<key>com.apple.quicktime.information</key>
							<size>64</size>
							<type>UTF8</type>
							<value>060a2b340101010501010d43130000002a84c182375605c808004602022f05f5</value>
						</metadata>
						<metadata>
							<storage>QuickTime</storage>
							<key>com.apple.proapps.originalFormat</key>
							<size>36</size>
							<type>UTF8</type>
							<value>Apple XDCAM EX 1080i50 (35 Mb/s VBR)</value>
						</metadata>
						<timecode>
							<rate>
								<timebase>25</timebase>
							</rate>
							<string>09:20:13:22</string>
							<frame>840347</frame>
							<displayformat>NDF</displayformat>
							<source>source</source>
							<reel>
								<name>Untitled</name>
							</reel>
						</timecode>
						<media>
							<video>
								<duration>1174</duration>
								<samplecharacteristics>
									<width>1920</width>
									<height>1080</height>
								</samplecharacteristics>
							</video>
							<audio>
								<samplecharacteristics>
									<samplerate>48000</samplerate>
									<depth>16</depth>
								</samplecharacteristics>
								<channelcount>1</channelcount>
								<layout>mono</layout>
								<audiochannel>
									<sourcechannel>1</sourcechannel>
									<channellabel>discrete</channellabel>
								</audiochannel>
							</audio>
							<audio>
								<samplecharacteristics>
									<samplerate>48000</samplerate>
									<depth>16</depth>
								</samplecharacteristics>
								<channelcount>1</channelcount>
								<layout>mono</layout>
								<audiochannel>
									<sourcechannel>2</sourcechannel>
									<channellabel>discrete</channellabel>
								</audiochannel>
							</audio>
						</media>
					</file>
					<sourcetrack>
						<mediatype>video</mediatype>
					</sourcetrack>
					<fielddominance>upper</fielddominance>
					<itemhistory>
						<uuid>214F6DEE-1DFE-4D11-BC46-C5A8678CA8B8</uuid>
					</itemhistory>
				</clipitem>
				<clipitem id="DYR10477_01 ">
					<name>DYR10477_01</name>
					<duration>1085</duration>
					<rate>
						<ntsc>FALSE</ntsc>
						<timebase>25</timebase>
					</rate>
					<in>826</in>
					<out>878</out>
					<start>24467</start>
					<end>24519</end>
					<pixelaspectratio>Square</pixelaspectratio>
					<enabled>TRUE</enabled>
					<anamorphic>FALSE</anamorphic>
					<alphatype>none</alphatype>
					<masterclipid>DYR10477_01 1</masterclipid>
					<logginginfo>
						<scene/>
						<shottake/>
						<lognote/>
						<good>FALSE</good>
					</logginginfo>
					<labels>
						<label2/>
					</labels>
					<comments>
						<mastercomment1/>
						<mastercomment2/>
						<mastercomment3/>
						<mastercomment4/>
					</comments>
					<file id="DYR10477_01 2">
						<name>DYR10477_01.mov</name>
						<pathurl>file://localhost/Volumes/Askepott/Prosjekter/DNPR637010_Kra%CC%8Akeklubben_TEM_011212/Video/MUSIKKVIDEO/Vinter/EX-3/DYR10477_01.mov</pathurl>
						<rate>
							<timebase>25</timebase>
						</rate>
						<duration>1085</duration>
						<metadata>
							<storage>QuickTime</storage>
							<key>com.sony.bprl.xdcamtransfer.version</key>
							<size>10</size>
							<type>UTF8</type>
							<value>2.12.0.631</value>
						</metadata>
						<metadata>
							<storage>QuickTime</storage>
							<key>org.smpte.mxf.package.material.packageid</key>
							<size>66</size>
							<type>UTF8</type>
							<value>0x060a2b340101010501010d43130000003ba6bd83375605d908004602022f05f5</value>
						</metadata>
						<metadata>
							<storage>QuickTime</storage>
							<key>com.sony.professionaldisc.nonrealtimemeta.lastupdate</key>
							<size>25</size>
							<type>UTF8</type>
							<value>2011-03-17 13:21:46 +0100</value>
						</metadata>
						<metadata>
							<storage>QuickTime</storage>
							<key>com.sony.bprl.mxf.umid</key>
							<size>64</size>
							<type>UTF8</type>
							<value>060a2b340101010501010d43130000003ba6bd83375605d908004602022f05f5</value>
						</metadata>
						<metadata>
							<storage>QuickTime</storage>
							<key>com.sony.bprl.mxf.nrtmetadata</key>
							<size>1994</size>
							<type>UTF8</type>
							<value>&lt;?xml version="1.0" encoding="UTF-8"?>&lt;NonRealTimeMeta xmlns="urn:schemas-professionalDisc:nonRealTimeMeta:ver.1.20" xmlns:lib="urn:schemas-professionalDisc:lib:ver.1.20" xmlns:xsi="http://www.w3.org/2001/XMLSchema-instance" lastUpdate="2011-03-17T13:21:46+01:00">&lt;TargetMaterial umidRef="060A2B340101010501010D43130000003BA6BD83375605D908004602022F05F5">&lt;/TargetMaterial>&lt;Duration value="1085">&lt;/Duration>&lt;LtcChangeTable tcFps="25" halfStep="false">&lt;LtcChange frameCount="0" value="21522109" status="increment">&lt;/LtcChange>&lt;LtcChange frameCount="1084" value="05362209" status="end">&lt;/LtcChange>&lt;/LtcChangeTable>&lt;CreationDate value="2011-03-17T13:21:02+01:00">&lt;/CreationDate>&lt;TypicalUbit value="0000000017061020">&lt;/TypicalUbit>&lt;BodyUmidBasicChangeTable>&lt;BodyUmidBasicChange frameCount="0" value="060A2B340101010501010D43330000003BA6BD83375605D908004602022F05F5" status="start">&lt;/BodyUmidBasicChange>&lt;/BodyUmidBasicChangeTable>&lt;BodyUmidWhenChangeTable>&lt;BodyUmidWhenChange frameCount="0" value="04853D04375605A5" status="increment">&lt;/BodyUmidWhenChange>&lt;BodyUmidWhenChange frameCount="1084" value="04943E04375605A5" status="end">&lt;/BodyUmidWhenChange>&lt;/BodyUmidWhenChangeTable>&lt;KlvPacketTable>&lt;KlvPacket key="060E2B34010101050301020A02000000" frameCount="0" lengthValue="095F5265635374617274" status="spot">&lt;/KlvPacket>&lt;/KlvPacketTable>&lt;VideoFormat>&lt;VideoRecPort port="DIRECT">&lt;/VideoRecPort>&lt;VideoFrame videoCodec="MPEG2HD35_1920_1080_MP@HL" captureFps="50.00i" recFps="50.00" formatFps="50i">&lt;/VideoFrame>&lt;VideoLayout pixel="1920" numOfVerticalLine="1080" aspectRatio="16:9">&lt;/VideoLayout>&lt;/VideoFormat>&lt;AudioFormat numOfChannel="2">&lt;AudioRecPort port="ANALOG" audioCodec="LPCM16" trackDst="CH1">&lt;/AudioRecPort>&lt;AudioRecPort port="ANALOG" audioCodec="LPCM16" trackDst="CH2">&lt;/AudioRecPort>&lt;/AudioFormat>&lt;Device manufacturer="Sony" modelName="PMW-EX3" serialNo="0401525">&lt;/Device>&lt;Lens modelName="VCL-614B2X">&lt;/Lens>&lt;RecordingMode type="normal" cacheRec="false">&lt;/RecordingMode>&lt;/NonRealTimeMeta>
							</value>
						</metadata>
						<metadata>
							<storage>QuickTime</storage>
							<key>com.apple.proapps.reel</key>
							<size>8</size>
							<type>UTF8</type>
							<value>Untitled</value>
						</metadata>
						<metadata>
							<storage>QuickTime</storage>
							<key>com.apple.proapps.clipID</key>
							<size>64</size>
							<type>UTF8</type>
							<value>060A2B340101010501010D43130000003BA6BD83375605D908004602022F05F5</value>
						</metadata>
						<metadata>
							<storage>QuickTime</storage>
							<key>com.apple.quicktime.information</key>
							<size>64</size>
							<type>UTF8</type>
							<value>060a2b340101010501010d43130000003ba6bd83375605d908004602022f05f5</value>
						</metadata>
						<metadata>
							<storage>QuickTime</storage>
							<key>com.apple.proapps.originalFormat</key>
							<size>36</size>
							<type>UTF8</type>
							<value>Apple XDCAM EX 1080i50 (35 Mb/s VBR)</value>
						</metadata>
						<timecode>
							<rate>
								<timebase>25</timebase>
							</rate>
							<string>09:21:52:21</string>
							<frame>842821</frame>
							<displayformat>NDF</displayformat>
							<source>source</source>
							<reel>
								<name>Untitled</name>
							</reel>
						</timecode>
						<media>
							<video>
								<duration>1085</duration>
								<samplecharacteristics>
									<width>1920</width>
									<height>1080</height>
								</samplecharacteristics>
							</video>
							<audio>
								<samplecharacteristics>
									<samplerate>48000</samplerate>
									<depth>16</depth>
								</samplecharacteristics>
								<channelcount>1</channelcount>
								<layout>mono</layout>
								<audiochannel>
									<sourcechannel>1</sourcechannel>
									<channellabel>discrete</channellabel>
								</audiochannel>
							</audio>
							<audio>
								<samplecharacteristics>
									<samplerate>48000</samplerate>
									<depth>16</depth>
								</samplecharacteristics>
								<channelcount>1</channelcount>
								<layout>mono</layout>
								<audiochannel>
									<sourcechannel>2</sourcechannel>
									<channellabel>discrete</channellabel>
								</audiochannel>
							</audio>
						</media>
					</file>
					<filter>
						<effect>
							<name>Basic Motion</name>
							<effectid>basic</effectid>
							<effectcategory>motion</effectcategory>
							<effecttype>motion</effecttype>
							<mediatype>video</mediatype>
							<parameter>
								<parameterid>scale</parameterid>
								<name>Scale</name>
								<valuemin>0</valuemin>
								<valuemax>1000</valuemax>
								<value>125</value>
							</parameter>
							<parameter>
								<parameterid>rotation</parameterid>
								<name>Rotation</name>
								<valuemin>-8640</valuemin>
								<valuemax>8640</valuemax>
								<value>0</value>
							</parameter>
							<parameter>
								<parameterid>center</parameterid>
								<name>Center</name>
								<value>
									<horiz>-0.121622</horiz>
									<vert>0.122667</vert>
								</value>
							</parameter>
							<parameter>
								<parameterid>centerOffset</parameterid>
								<name>Anchor Point</name>
								<value>
									<horiz>0</horiz>
									<vert>0</vert>
								</value>
							</parameter>
						</effect>
					</filter>
					<filter>
						<enabled>FALSE</enabled>
						<effect>
							<name>Drop Shadow</name>
							<effectid>dropshadow</effectid>
							<effectcategory>motion</effectcategory>
							<effecttype>motion</effecttype>
							<mediatype>video</mediatype>
							<parameter>
								<parameterid>offset</parameterid>
								<name>offset</name>
								<valuemin>-100</valuemin>
								<valuemax>100</valuemax>
								<value>2</value>
							</parameter>
							<parameter>
								<parameterid>angle</parameterid>
								<name>angle</name>
								<valuemin>-720</valuemin>
								<valuemax>720</valuemax>
								<value>135</value>
							</parameter>
							<parameter>
								<parameterid>color</parameterid>
								<name>color</name>
								<value>
									<alpha>0</alpha>
									<red>0</red>
									<green>0</green>
									<blue>0</blue>
								</value>
							</parameter>
							<parameter>
								<parameterid>softness</parameterid>
								<name>softness</name>
								<valuemin>0</valuemin>
								<valuemax>100</valuemax>
								<value>10</value>
							</parameter>
							<parameter>
								<parameterid>opacity</parameterid>
								<name>opacity</name>
								<valuemin>0</valuemin>
								<valuemax>100</valuemax>
								<value>50</value>
							</parameter>
						</effect>
					</filter>
					<filter>
						<enabled>FALSE</enabled>
						<effect>
							<name>Motion Blur</name>
							<effectid>motionblur</effectid>
							<effectcategory>motion</effectcategory>
							<effecttype>motion</effecttype>
							<mediatype>video</mediatype>
							<parameter>
								<parameterid>duration</parameterid>
								<name>% Blur</name>
								<valuemin>0</valuemin>
								<valuemax>1000</valuemax>
								<value>500</value>
							</parameter>
							<parameter>
								<parameterid>samples</parameterid>
								<name>Samples</name>
								<valuemin>1</valuemin>
								<valuemax>16</valuemax>
								<value>4</value>
							</parameter>
						</effect>
					</filter>
					<filter>
						<effect>
							<name>Crop</name>
							<effectid>crop</effectid>
							<effectcategory>motion</effectcategory>
							<effecttype>motion</effecttype>
							<mediatype>video</mediatype>
							<parameter>
								<parameterid>left</parameterid>
								<name>left</name>
								<valuemin>0</valuemin>
								<valuemax>100</valuemax>
								<value>0</value>
							</parameter>
							<parameter>
								<parameterid>right</parameterid>
								<name>right</name>
								<valuemin>0</valuemin>
								<valuemax>100</valuemax>
								<value>0</value>
							</parameter>
							<parameter>
								<parameterid>top</parameterid>
								<name>top</name>
								<valuemin>0</valuemin>
								<valuemax>100</valuemax>
								<value>0</value>
							</parameter>
							<parameter>
								<parameterid>bottom</parameterid>
								<name>bottom</name>
								<valuemin>0</valuemin>
								<valuemax>100</valuemax>
								<value>0</value>
							</parameter>
							<parameter>
								<parameterid>edgefeather</parameterid>
								<name>edgefeather</name>
								<valuemin>0</valuemin>
								<valuemax>100</valuemax>
								<value>0</value>
							</parameter>
						</effect>
					</filter>
					<filter>
						<effect>
							<name>Distort</name>
							<effectid>deformation</effectid>
							<effectcategory>motion</effectcategory>
							<effecttype>motion</effecttype>
							<mediatype>video</mediatype>
							<parameter>
								<parameterid>ulcorner</parameterid>
								<name>Upper Left</name>
								<value>
									<horiz>-0.5</horiz>
									<vert>-0.5</vert>
								</value>
							</parameter>
							<parameter>
								<parameterid>urcorner</parameterid>
								<name>Upper Right</name>
								<value>
									<horiz>0.5</horiz>
									<vert>-0.5</vert>
								</value>
							</parameter>
							<parameter>
								<parameterid>lrcorner</parameterid>
								<name>Lower Right</name>
								<value>
									<horiz>0.5</horiz>
									<vert>0.5</vert>
								</value>
							</parameter>
							<parameter>
								<parameterid>llcorner</parameterid>
								<name>Lower Left</name>
								<value>
									<horiz>-0.5</horiz>
									<vert>0.5</vert>
								</value>
							</parameter>
							<parameter>
								<parameterid>aspect</parameterid>
								<name>Aspect</name>
								<valuemin>-10000</valuemin>
								<valuemax>10000</valuemax>
								<value>0</value>
							</parameter>
						</effect>
					</filter>
					<filter>
						<effect>
							<name>Opacity</name>
							<effectid>opacity</effectid>
							<effectcategory>motion</effectcategory>
							<effecttype>motion</effecttype>
							<mediatype>video</mediatype>
							<parameter>
								<parameterid>opacity</parameterid>
								<name>opacity</name>
								<valuemin>0</valuemin>
								<valuemax>100</valuemax>
								<value>100</value>
							</parameter>
						</effect>
					</filter>
					<sourcetrack>
						<mediatype>video</mediatype>
					</sourcetrack>
					<fielddominance>upper</fielddominance>
					<itemhistory>
						<uuid>3E258EAE-7A70-452A-BBB7-C60F2021DD99</uuid>
					</itemhistory>
				</clipitem>
				<clipitem id="DYR10502_01 ">
					<name>DYR10502_01</name>
					<duration>789</duration>
					<rate>
						<ntsc>FALSE</ntsc>
						<timebase>25</timebase>
					</rate>
					<in>283</in>
					<out>308</out>
					<start>24519</start>
					<end>24544</end>
					<pixelaspectratio>Square</pixelaspectratio>
					<enabled>TRUE</enabled>
					<anamorphic>FALSE</anamorphic>
					<alphatype>none</alphatype>
					<masterclipid>DYR10502_01 1</masterclipid>
					<logginginfo>
						<scene/>
						<shottake/>
						<lognote/>
						<good>FALSE</good>
					</logginginfo>
					<labels>
						<label2/>
					</labels>
					<comments>
						<mastercomment1/>
						<mastercomment2/>
						<mastercomment3/>
						<mastercomment4/>
					</comments>
					<file id="DYR10502_01 2">
						<name>DYR10502_01.mov</name>
						<pathurl>file://localhost/Volumes/Askepott/Prosjekter/DNPR637010_Kra%CC%8Akeklubben_TEM_011212/Video/MUSIKKVIDEO/Vinter/EX-3/DYR10502_01.mov</pathurl>
						<rate>
							<timebase>25</timebase>
						</rate>
						<duration>789</duration>
						<metadata>
							<storage>QuickTime</storage>
							<key>com.sony.bprl.xdcamtransfer.version</key>
							<size>10</size>
							<type>UTF8</type>
							<value>2.12.0.631</value>
						</metadata>
						<metadata>
							<storage>QuickTime</storage>
							<key>org.smpte.mxf.package.material.packageid</key>
							<size>66</size>
							<type>UTF8</type>
							<value>0x060a2b340101010501010d431300000044d2c691375605da08004602022f05f5</value>
						</metadata>
						<metadata>
							<storage>QuickTime</storage>
							<key>com.sony.professionaldisc.nonrealtimemeta.lastupdate</key>
							<size>25</size>
							<type>UTF8</type>
							<value>2011-03-17 14:40:32 +0100</value>
						</metadata>
						<metadata>
							<storage>QuickTime</storage>
							<key>com.sony.bprl.mxf.umid</key>
							<size>64</size>
							<type>UTF8</type>
							<value>060a2b340101010501010d431300000044d2c691375605da08004602022f05f5</value>
						</metadata>
						<metadata>
							<storage>QuickTime</storage>
							<key>com.sony.bprl.mxf.nrtmetadata</key>
							<size>1991</size>
							<type>UTF8</type>
							<value>&lt;?xml version="1.0" encoding="UTF-8"?>&lt;NonRealTimeMeta xmlns="urn:schemas-professionalDisc:nonRealTimeMeta:ver.1.20" xmlns:lib="urn:schemas-professionalDisc:lib:ver.1.20" xmlns:xsi="http://www.w3.org/2001/XMLSchema-instance" lastUpdate="2011-03-17T14:40:32+01:00">&lt;TargetMaterial umidRef="060A2B340101010501010D431300000044D2C691375605DA08004602022F05F5">&lt;/TargetMaterial>&lt;Duration value="789">&lt;/Duration>&lt;LtcChangeTable tcFps="25" halfStep="false">&lt;LtcChange frameCount="0" value="24592609" status="increment">&lt;/LtcChange>&lt;LtcChange frameCount="788" value="12312709" status="end">&lt;/LtcChange>&lt;/LtcChangeTable>&lt;CreationDate value="2011-03-17T14:39:59+01:00">&lt;/CreationDate>&lt;TypicalUbit value="0000000017061020">&lt;/TypicalUbit>&lt;BodyUmidBasicChangeTable>&lt;BodyUmidBasicChange frameCount="0" value="060A2B340101010501010D433300000044D2C691375605DA08004602022F05F5" status="start">&lt;/BodyUmidBasicChange>&lt;/BodyUmidBasicChangeTable>&lt;BodyUmidWhenChangeTable>&lt;BodyUmidWhenChange frameCount="0" value="842BB104375605A5" status="increment">&lt;/BodyUmidWhenChange>&lt;BodyUmidWhenChange frameCount="788" value="84F0B104375605A5" status="end">&lt;/BodyUmidWhenChange>&lt;/BodyUmidWhenChangeTable>&lt;KlvPacketTable>&lt;KlvPacket key="060E2B34010101050301020A02000000" frameCount="0" lengthValue="095F5265635374617274" status="spot">&lt;/KlvPacket>&lt;/KlvPacketTable>&lt;VideoFormat>&lt;VideoRecPort port="DIRECT">&lt;/VideoRecPort>&lt;VideoFrame videoCodec="MPEG2HD35_1920_1080_MP@HL" captureFps="50.00i" recFps="50.00" formatFps="50i">&lt;/VideoFrame>&lt;VideoLayout pixel="1920" numOfVerticalLine="1080" aspectRatio="16:9">&lt;/VideoLayout>&lt;/VideoFormat>&lt;AudioFormat numOfChannel="2">&lt;AudioRecPort port="ANALOG" audioCodec="LPCM16" trackDst="CH1">&lt;/AudioRecPort>&lt;AudioRecPort port="ANALOG" audioCodec="LPCM16" trackDst="CH2">&lt;/AudioRecPort>&lt;/AudioFormat>&lt;Device manufacturer="Sony" modelName="PMW-EX3" serialNo="0401525">&lt;/Device>&lt;Lens modelName="VCL-614B2X">&lt;/Lens>&lt;RecordingMode type="normal" cacheRec="false">&lt;/RecordingMode>&lt;/NonRealTimeMeta>
							</value>
						</metadata>
						<metadata>
							<storage>QuickTime</storage>
							<key>com.apple.proapps.reel</key>
							<size>8</size>
							<type>UTF8</type>
							<value>Untitled</value>
						</metadata>
						<metadata>
							<storage>QuickTime</storage>
							<key>com.apple.proapps.clipID</key>
							<size>64</size>
							<type>UTF8</type>
							<value>060A2B340101010501010D431300000044D2C691375605DA08004602022F05F5</value>
						</metadata>
						<metadata>
							<storage>QuickTime</storage>
							<key>com.apple.quicktime.information</key>
							<size>64</size>
							<type>UTF8</type>
							<value>060a2b340101010501010d431300000044d2c691375605da08004602022f05f5</value>
						</metadata>
						<metadata>
							<storage>QuickTime</storage>
							<key>com.apple.proapps.originalFormat</key>
							<size>36</size>
							<type>UTF8</type>
							<value>Apple XDCAM EX 1080i50 (35 Mb/s VBR)</value>
						</metadata>
						<timecode>
							<rate>
								<timebase>25</timebase>
							</rate>
							<string>09:26:59:24</string>
							<frame>850499</frame>
							<displayformat>NDF</displayformat>
							<source>source</source>
							<reel>
								<name>Untitled</name>
							</reel>
						</timecode>
						<media>
							<video>
								<duration>789</duration>
								<samplecharacteristics>
									<width>1920</width>
									<height>1080</height>
								</samplecharacteristics>
							</video>
							<audio>
								<samplecharacteristics>
									<samplerate>48000</samplerate>
									<depth>16</depth>
								</samplecharacteristics>
								<channelcount>1</channelcount>
								<layout>mono</layout>
								<audiochannel>
									<sourcechannel>1</sourcechannel>
									<channellabel>discrete</channellabel>
								</audiochannel>
							</audio>
							<audio>
								<samplecharacteristics>
									<samplerate>48000</samplerate>
									<depth>16</depth>
								</samplecharacteristics>
								<channelcount>1</channelcount>
								<layout>mono</layout>
								<audiochannel>
									<sourcechannel>2</sourcechannel>
									<channellabel>discrete</channellabel>
								</audiochannel>
							</audio>
						</media>
					</file>
					<sourcetrack>
						<mediatype>video</mediatype>
					</sourcetrack>
					<fielddominance>upper</fielddominance>
					<itemhistory>
						<uuid>67FE3F57-A778-44BD-82D5-57616978875B</uuid>
					</itemhistory>
				</clipitem>
				<clipitem id="DYR10502_01 3">
					<name>DYR10502_01</name>
					<duration>789</duration>
					<rate>
						<ntsc>FALSE</ntsc>
						<timebase>25</timebase>
					</rate>
					<in>556</in>
					<out>600</out>
					<start>24544</start>
					<end>24588</end>
					<pixelaspectratio>Square</pixelaspectratio>
					<enabled>TRUE</enabled>
					<anamorphic>FALSE</anamorphic>
					<alphatype>none</alphatype>
					<masterclipid>DYR10502_01 1</masterclipid>
					<logginginfo>
						<scene/>
						<shottake/>
						<lognote/>
						<good>FALSE</good>
					</logginginfo>
					<labels>
						<label2/>
					</labels>
					<comments>
						<mastercomment1/>
						<mastercomment2/>
						<mastercomment3/>
						<mastercomment4/>
					</comments>
					<file id="DYR10502_01 2"/>
					<sourcetrack>
						<mediatype>video</mediatype>
					</sourcetrack>
					<fielddominance>upper</fielddominance>
					<itemhistory>
						<uuid>C14B15AB-6249-498C-A5BD-730F79A1B854</uuid>
					</itemhistory>
				</clipitem>
				<clipitem id="DYR10505_01 ">
					<name>DYR10505_01</name>
					<duration>262</duration>
					<rate>
						<ntsc>FALSE</ntsc>
						<timebase>25</timebase>
					</rate>
					<in>91</in>
					<out>146</out>
					<start>24588</start>
					<end>24643</end>
					<pixelaspectratio>Square</pixelaspectratio>
					<enabled>TRUE</enabled>
					<anamorphic>FALSE</anamorphic>
					<alphatype>none</alphatype>
					<masterclipid>DYR10505_01 1</masterclipid>
					<logginginfo>
						<scene/>
						<shottake/>
						<lognote/>
						<good>FALSE</good>
					</logginginfo>
					<labels>
						<label2/>
					</labels>
					<comments>
						<mastercomment1/>
						<mastercomment2/>
						<mastercomment3/>
						<mastercomment4/>
					</comments>
					<file id="DYR10505_01 2">
						<name>DYR10505_01.mov</name>
						<pathurl>file://localhost/Volumes/Askepott/Prosjekter/DNPR637010_Kra%CC%8Akeklubben_TEM_011212/Video/MUSIKKVIDEO/Vinter/EX-3/DYR10505_01.mov</pathurl>
						<rate>
							<timebase>25</timebase>
						</rate>
						<duration>262</duration>
						<metadata>
							<storage>QuickTime</storage>
							<key>com.sony.bprl.xdcamtransfer.version</key>
							<size>10</size>
							<type>UTF8</type>
							<value>2.12.0.631</value>
						</metadata>
						<metadata>
							<storage>QuickTime</storage>
							<key>org.smpte.mxf.package.material.packageid</key>
							<size>66</size>
							<type>UTF8</type>
							<value>0x060a2b340101010501010d431300000019424a92375605d308004602022f05f5</value>
						</metadata>
						<metadata>
							<storage>QuickTime</storage>
							<key>com.sony.professionaldisc.nonrealtimemeta.lastupdate</key>
							<size>25</size>
							<type>UTF8</type>
							<value>2011-03-17 14:43:04 +0100</value>
						</metadata>
						<metadata>
							<storage>QuickTime</storage>
							<key>com.sony.bprl.mxf.umid</key>
							<size>64</size>
							<type>UTF8</type>
							<value>060a2b340101010501010d431300000019424a92375605d308004602022f05f5</value>
						</metadata>
						<metadata>
							<storage>QuickTime</storage>
							<key>com.sony.bprl.mxf.nrtmetadata</key>
							<size>1991</size>
							<type>UTF8</type>
							<value>&lt;?xml version="1.0" encoding="UTF-8"?>&lt;NonRealTimeMeta xmlns="urn:schemas-professionalDisc:nonRealTimeMeta:ver.1.20" xmlns:lib="urn:schemas-professionalDisc:lib:ver.1.20" xmlns:xsi="http://www.w3.org/2001/XMLSchema-instance" lastUpdate="2011-03-17T14:43:04+01:00">&lt;TargetMaterial umidRef="060A2B340101010501010D431300000019424A92375605D308004602022F05F5">&lt;/TargetMaterial>&lt;Duration value="262">&lt;/Duration>&lt;LtcChangeTable tcFps="25" halfStep="false">&lt;LtcChange frameCount="0" value="19192809" status="increment">&lt;/LtcChange>&lt;LtcChange frameCount="261" value="05302809" status="end">&lt;/LtcChange>&lt;/LtcChangeTable>&lt;CreationDate value="2011-03-17T14:42:52+01:00">&lt;/CreationDate>&lt;TypicalUbit value="0000000017061020">&lt;/TypicalUbit>&lt;BodyUmidBasicChangeTable>&lt;BodyUmidBasicChange frameCount="0" value="060A2B340101010501010D433300000019424A92375605D308004602022F05F5" status="start">&lt;/BodyUmidBasicChange>&lt;/BodyUmidBasicChangeTable>&lt;BodyUmidWhenChangeTable>&lt;BodyUmidWhenChange frameCount="0" value="8466B504375605A5" status="increment">&lt;/BodyUmidWhenChange>&lt;BodyUmidWhenChange frameCount="261" value="C4A7B504375605A5" status="end">&lt;/BodyUmidWhenChange>&lt;/BodyUmidWhenChangeTable>&lt;KlvPacketTable>&lt;KlvPacket key="060E2B34010101050301020A02000000" frameCount="0" lengthValue="095F5265635374617274" status="spot">&lt;/KlvPacket>&lt;/KlvPacketTable>&lt;VideoFormat>&lt;VideoRecPort port="DIRECT">&lt;/VideoRecPort>&lt;VideoFrame videoCodec="MPEG2HD35_1920_1080_MP@HL" captureFps="50.00i" recFps="50.00" formatFps="50i">&lt;/VideoFrame>&lt;VideoLayout pixel="1920" numOfVerticalLine="1080" aspectRatio="16:9">&lt;/VideoLayout>&lt;/VideoFormat>&lt;AudioFormat numOfChannel="2">&lt;AudioRecPort port="ANALOG" audioCodec="LPCM16" trackDst="CH1">&lt;/AudioRecPort>&lt;AudioRecPort port="ANALOG" audioCodec="LPCM16" trackDst="CH2">&lt;/AudioRecPort>&lt;/AudioFormat>&lt;Device manufacturer="Sony" modelName="PMW-EX3" serialNo="0401525">&lt;/Device>&lt;Lens modelName="VCL-614B2X">&lt;/Lens>&lt;RecordingMode type="normal" cacheRec="false">&lt;/RecordingMode>&lt;/NonRealTimeMeta>
							</value>
						</metadata>
						<metadata>
							<storage>QuickTime</storage>
							<key>com.apple.proapps.reel</key>
							<size>8</size>
							<type>UTF8</type>
							<value>Untitled</value>
						</metadata>
						<metadata>
							<storage>QuickTime</storage>
							<key>com.apple.proapps.clipID</key>
							<size>64</size>
							<type>UTF8</type>
							<value>060A2B340101010501010D431300000019424A92375605D308004602022F05F5</value>
						</metadata>
						<metadata>
							<storage>QuickTime</storage>
							<key>com.apple.quicktime.information</key>
							<size>64</size>
							<type>UTF8</type>
							<value>060a2b340101010501010d431300000019424a92375605d308004602022f05f5</value>
						</metadata>
						<metadata>
							<storage>QuickTime</storage>
							<key>com.apple.proapps.originalFormat</key>
							<size>36</size>
							<type>UTF8</type>
							<value>Apple XDCAM EX 1080i50 (35 Mb/s VBR)</value>
						</metadata>
						<timecode>
							<rate>
								<timebase>25</timebase>
							</rate>
							<string>09:28:19:19</string>
							<frame>852494</frame>
							<displayformat>NDF</displayformat>
							<source>source</source>
							<reel>
								<name>Untitled</name>
							</reel>
						</timecode>
						<media>
							<video>
								<duration>262</duration>
								<samplecharacteristics>
									<width>1920</width>
									<height>1080</height>
								</samplecharacteristics>
							</video>
							<audio>
								<samplecharacteristics>
									<samplerate>48000</samplerate>
									<depth>16</depth>
								</samplecharacteristics>
								<channelcount>1</channelcount>
								<layout>mono</layout>
								<audiochannel>
									<sourcechannel>1</sourcechannel>
									<channellabel>discrete</channellabel>
								</audiochannel>
							</audio>
							<audio>
								<samplecharacteristics>
									<samplerate>48000</samplerate>
									<depth>16</depth>
								</samplecharacteristics>
								<channelcount>1</channelcount>
								<layout>mono</layout>
								<audiochannel>
									<sourcechannel>2</sourcechannel>
									<channellabel>discrete</channellabel>
								</audiochannel>
							</audio>
						</media>
					</file>
					<sourcetrack>
						<mediatype>video</mediatype>
					</sourcetrack>
					<fielddominance>upper</fielddominance>
					<itemhistory>
						<uuid>6B848A6C-DAA0-4810-B456-76025D56AA37</uuid>
					</itemhistory>
				</clipitem>
				<clipitem id="DYR10502_01 4">
					<name>DYR10502_01</name>
					<duration>789</duration>
					<rate>
						<ntsc>FALSE</ntsc>
						<timebase>25</timebase>
					</rate>
					<in>655</in>
					<out>699</out>
					<start>24643</start>
					<end>24687</end>
					<pixelaspectratio>Square</pixelaspectratio>
					<enabled>TRUE</enabled>
					<anamorphic>FALSE</anamorphic>
					<alphatype>none</alphatype>
					<masterclipid>DYR10502_01 1</masterclipid>
					<logginginfo>
						<scene/>
						<shottake/>
						<lognote/>
						<good>FALSE</good>
					</logginginfo>
					<labels>
						<label2/>
					</labels>
					<comments>
						<mastercomment1/>
						<mastercomment2/>
						<mastercomment3/>
						<mastercomment4/>
					</comments>
					<file id="DYR10502_01 2"/>
					<sourcetrack>
						<mediatype>video</mediatype>
					</sourcetrack>
					<fielddominance>upper</fielddominance>
					<itemhistory>
						<uuid>D018DB2C-3934-43CF-9192-FBB8EB340F45</uuid>
					</itemhistory>
				</clipitem>
				<clipitem id="DYR10505_01 3">
					<name>DYR10505_01</name>
					<duration>262</duration>
					<rate>
						<ntsc>FALSE</ntsc>
						<timebase>25</timebase>
					</rate>
					<in>15</in>
					<out>53</out>
					<start>24687</start>
					<end>24725</end>
					<pixelaspectratio>Square</pixelaspectratio>
					<enabled>TRUE</enabled>
					<anamorphic>FALSE</anamorphic>
					<alphatype>none</alphatype>
					<masterclipid>DYR10505_01 1</masterclipid>
					<logginginfo>
						<scene/>
						<shottake/>
						<lognote/>
						<good>FALSE</good>
					</logginginfo>
					<labels>
						<label2/>
					</labels>
					<comments>
						<mastercomment1/>
						<mastercomment2/>
						<mastercomment3/>
						<mastercomment4/>
					</comments>
					<file id="DYR10505_01 2"/>
					<filter>
						<start>-1</start>
						<end>-1</end>
						<effect>
							<name>Flop</name>
							<effectid>Flop</effectid>
							<effectcategory>Perspective</effectcategory>
							<effecttype>filter</effecttype>
							<mediatype>video</mediatype>
							<parameter>
								<parameterid>flop</parameterid>
								<name>Flop</name>
								<valuemin>1</valuemin>
								<valuemax>3</valuemax>
								<valuelist>
									<valueentry>
										<name>Horizontal</name>
										<value>1</value>
									</valueentry>
									<valueentry>
										<name>Vertical</name>
										<value>2</value>
									</valueentry>
									<valueentry>
										<name>Both</name>
										<value>3</value>
									</valueentry>
								</valuelist>
								<value>1</value>
							</parameter>
						</effect>
					</filter>
					<sourcetrack>
						<mediatype>video</mediatype>
					</sourcetrack>
					<fielddominance>upper</fielddominance>
					<itemhistory>
						<uuid>38751EFB-6AF2-4A28-9072-1461C6EB40EA</uuid>
					</itemhistory>
				</clipitem>
				<clipitem id="DYR10485_01 ">
					<name>DYR10485_01</name>
					<duration>512</duration>
					<rate>
						<ntsc>FALSE</ntsc>
						<timebase>25</timebase>
					</rate>
					<in>288</in>
					<out>337</out>
					<start>24725</start>
					<end>24774</end>
					<pixelaspectratio>Square</pixelaspectratio>
					<enabled>TRUE</enabled>
					<anamorphic>FALSE</anamorphic>
					<alphatype>none</alphatype>
					<masterclipid>DYR10485_01 1</masterclipid>
					<logginginfo>
						<scene/>
						<shottake/>
						<lognote/>
						<good>FALSE</good>
					</logginginfo>
					<labels>
						<label2/>
					</labels>
					<comments>
						<mastercomment1/>
						<mastercomment2/>
						<mastercomment3/>
						<mastercomment4/>
					</comments>
					<file id="DYR10485_01 2">
						<name>DYR10485_01.mov</name>
						<pathurl>file://localhost/Volumes/Askepott/Prosjekter/DNPR637010_Kra%CC%8Akeklubben_TEM_011212/Video/MUSIKKVIDEO/Vinter/EX-3/DYR10485_01.mov</pathurl>
						<rate>
							<timebase>25</timebase>
						</rate>
						<duration>512</duration>
						<metadata>
							<storage>QuickTime</storage>
							<key>com.sony.bprl.xdcamtransfer.version</key>
							<size>10</size>
							<type>UTF8</type>
							<value>2.12.0.631</value>
						</metadata>
						<metadata>
							<storage>QuickTime</storage>
							<key>org.smpte.mxf.package.material.packageid</key>
							<size>66</size>
							<type>UTF8</type>
							<value>0x060a2b340101010501010d4313000000b2b7598a375605cc08004602022f05f5</value>
						</metadata>
						<metadata>
							<storage>QuickTime</storage>
							<key>com.sony.professionaldisc.nonrealtimemeta.lastupdate</key>
							<size>25</size>
							<type>UTF8</type>
							<value>2011-03-17 13:58:34 +0100</value>
						</metadata>
						<metadata>
							<storage>QuickTime</storage>
							<key>com.sony.bprl.mxf.umid</key>
							<size>64</size>
							<type>UTF8</type>
							<value>060a2b340101010501010d4313000000b2b7598a375605cc08004602022f05f5</value>
						</metadata>
						<metadata>
							<storage>QuickTime</storage>
							<key>com.sony.bprl.mxf.nrtmetadata</key>
							<size>1991</size>
							<type>UTF8</type>
							<value>&lt;?xml version="1.0" encoding="UTF-8"?>&lt;NonRealTimeMeta xmlns="urn:schemas-professionalDisc:nonRealTimeMeta:ver.1.20" xmlns:lib="urn:schemas-professionalDisc:lib:ver.1.20" xmlns:xsi="http://www.w3.org/2001/XMLSchema-instance" lastUpdate="2011-03-17T13:58:34+01:00">&lt;TargetMaterial umidRef="060A2B340101010501010D4313000000B2B7598A375605CC08004602022F05F5">&lt;/TargetMaterial>&lt;Duration value="512">&lt;/Duration>&lt;LtcChangeTable tcFps="25" halfStep="false">&lt;LtcChange frameCount="0" value="14202609" status="increment">&lt;/LtcChange>&lt;LtcChange frameCount="511" value="00412609" status="end">&lt;/LtcChange>&lt;/LtcChangeTable>&lt;CreationDate value="2011-03-17T13:58:13+01:00">&lt;/CreationDate>&lt;TypicalUbit value="0000000017061020">&lt;/TypicalUbit>&lt;BodyUmidBasicChangeTable>&lt;BodyUmidBasicChange frameCount="0" value="060A2B340101010501010D4333000000B2B7598A375605CC08004602022F05F5" status="start">&lt;/BodyUmidBasicChange>&lt;/BodyUmidBasicChangeTable>&lt;BodyUmidWhenChangeTable>&lt;BodyUmidWhenChange frameCount="0" value="04FB7304375605A5" status="increment">&lt;/BodyUmidWhenChange>&lt;BodyUmidWhenChange frameCount="511" value="C47A7404375605A5" status="end">&lt;/BodyUmidWhenChange>&lt;/BodyUmidWhenChangeTable>&lt;KlvPacketTable>&lt;KlvPacket key="060E2B34010101050301020A02000000" frameCount="0" lengthValue="095F5265635374617274" status="spot">&lt;/KlvPacket>&lt;/KlvPacketTable>&lt;VideoFormat>&lt;VideoRecPort port="DIRECT">&lt;/VideoRecPort>&lt;VideoFrame videoCodec="MPEG2HD35_1920_1080_MP@HL" captureFps="50.00i" recFps="50.00" formatFps="50i">&lt;/VideoFrame>&lt;VideoLayout pixel="1920" numOfVerticalLine="1080" aspectRatio="16:9">&lt;/VideoLayout>&lt;/VideoFormat>&lt;AudioFormat numOfChannel="2">&lt;AudioRecPort port="ANALOG" audioCodec="LPCM16" trackDst="CH1">&lt;/AudioRecPort>&lt;AudioRecPort port="ANALOG" audioCodec="LPCM16" trackDst="CH2">&lt;/AudioRecPort>&lt;/AudioFormat>&lt;Device manufacturer="Sony" modelName="PMW-EX3" serialNo="0401525">&lt;/Device>&lt;Lens modelName="VCL-614B2X">&lt;/Lens>&lt;RecordingMode type="normal" cacheRec="false">&lt;/RecordingMode>&lt;/NonRealTimeMeta>
							</value>
						</metadata>
						<metadata>
							<storage>QuickTime</storage>
							<key>com.apple.proapps.reel</key>
							<size>8</size>
							<type>UTF8</type>
							<value>Untitled</value>
						</metadata>
						<metadata>
							<storage>QuickTime</storage>
							<key>com.apple.proapps.clipID</key>
							<size>64</size>
							<type>UTF8</type>
							<value>060A2B340101010501010D4313000000B2B7598A375605CC08004602022F05F5</value>
						</metadata>
						<metadata>
							<storage>QuickTime</storage>
							<key>com.apple.quicktime.information</key>
							<size>64</size>
							<type>UTF8</type>
							<value>060a2b340101010501010d4313000000b2b7598a375605cc08004602022f05f5</value>
						</metadata>
						<metadata>
							<storage>QuickTime</storage>
							<key>com.apple.proapps.originalFormat</key>
							<size>36</size>
							<type>UTF8</type>
							<value>Apple XDCAM EX 1080i50 (35 Mb/s VBR)</value>
						</metadata>
						<timecode>
							<rate>
								<timebase>25</timebase>
							</rate>
							<string>09:26:20:14</string>
							<frame>849514</frame>
							<displayformat>NDF</displayformat>
							<source>source</source>
							<reel>
								<name>Untitled</name>
							</reel>
						</timecode>
						<media>
							<video>
								<duration>512</duration>
								<samplecharacteristics>
									<width>1920</width>
									<height>1080</height>
								</samplecharacteristics>
							</video>
							<audio>
								<samplecharacteristics>
									<samplerate>48000</samplerate>
									<depth>16</depth>
								</samplecharacteristics>
								<channelcount>1</channelcount>
								<layout>mono</layout>
								<audiochannel>
									<sourcechannel>1</sourcechannel>
									<channellabel>discrete</channellabel>
								</audiochannel>
							</audio>
							<audio>
								<samplecharacteristics>
									<samplerate>48000</samplerate>
									<depth>16</depth>
								</samplecharacteristics>
								<channelcount>1</channelcount>
								<layout>mono</layout>
								<audiochannel>
									<sourcechannel>2</sourcechannel>
									<channellabel>discrete</channellabel>
								</audiochannel>
							</audio>
						</media>
					</file>
					<sourcetrack>
						<mediatype>video</mediatype>
					</sourcetrack>
					<fielddominance>upper</fielddominance>
					<itemhistory>
						<uuid>3DC07B8E-DFCE-4CC2-8AF7-36792E8E224B</uuid>
					</itemhistory>
				</clipitem>
				<clipitem id="DYR10489_01 ">
					<name>DYR10489_01</name>
					<duration>1023</duration>
					<rate>
						<ntsc>FALSE</ntsc>
						<timebase>25</timebase>
					</rate>
					<in>791</in>
					<out>833</out>
					<start>24774</start>
					<end>24816</end>
					<pixelaspectratio>Square</pixelaspectratio>
					<enabled>TRUE</enabled>
					<anamorphic>FALSE</anamorphic>
					<alphatype>none</alphatype>
					<masterclipid>DYR10489_01 1</masterclipid>
					<logginginfo>
						<scene/>
						<shottake/>
						<lognote/>
						<good>FALSE</good>
					</logginginfo>
					<labels>
						<label2/>
					</labels>
					<comments>
						<mastercomment1/>
						<mastercomment2/>
						<mastercomment3/>
						<mastercomment4/>
					</comments>
					<file id="DYR10489_01 2">
						<name>DYR10489_01.mov</name>
						<pathurl>file://localhost/Volumes/Askepott/Prosjekter/DNPR637010_Kra%CC%8Akeklubben_TEM_011212/Video/MUSIKKVIDEO/Vinter/EX-3/DYR10489_01.mov</pathurl>
						<rate>
							<timebase>25</timebase>
						</rate>
						<duration>1023</duration>
						<metadata>
							<storage>QuickTime</storage>
							<key>com.sony.bprl.xdcamtransfer.version</key>
							<size>10</size>
							<type>UTF8</type>
							<value>2.12.0.631</value>
						</metadata>
						<metadata>
							<storage>QuickTime</storage>
							<key>org.smpte.mxf.package.material.packageid</key>
							<size>66</size>
							<type>UTF8</type>
							<value>0x060a2b340101010501010d4313000000c9796c8b375605dd08004602022f05f5</value>
						</metadata>
						<metadata>
							<storage>QuickTime</storage>
							<key>com.sony.professionaldisc.nonrealtimemeta.lastupdate</key>
							<size>25</size>
							<type>UTF8</type>
							<value>2011-03-17 14:04:57 +0100</value>
						</metadata>
						<metadata>
							<storage>QuickTime</storage>
							<key>com.sony.bprl.mxf.umid</key>
							<size>64</size>
							<type>UTF8</type>
							<value>060a2b340101010501010d4313000000c9796c8b375605dd08004602022f05f5</value>
						</metadata>
						<metadata>
							<storage>QuickTime</storage>
							<key>com.sony.bprl.mxf.nrtmetadata</key>
							<size>1994</size>
							<type>UTF8</type>
							<value>&lt;?xml version="1.0" encoding="UTF-8"?>&lt;NonRealTimeMeta xmlns="urn:schemas-professionalDisc:nonRealTimeMeta:ver.1.20" xmlns:lib="urn:schemas-professionalDisc:lib:ver.1.20" xmlns:xsi="http://www.w3.org/2001/XMLSchema-instance" lastUpdate="2011-03-17T14:04:57+01:00">&lt;TargetMaterial umidRef="060A2B340101010501010D4313000000C9796C8B375605DD08004602022F05F5">&lt;/TargetMaterial>&lt;Duration value="1023">&lt;/Duration>&lt;LtcChangeTable tcFps="25" halfStep="false">&lt;LtcChange frameCount="0" value="14422709" status="increment">&lt;/LtcChange>&lt;LtcChange frameCount="1022" value="11232809" status="end">&lt;/LtcChange>&lt;/LtcChangeTable>&lt;CreationDate value="2011-03-17T14:04:15+01:00">&lt;/CreationDate>&lt;TypicalUbit value="0000000017061020">&lt;/TypicalUbit>&lt;BodyUmidBasicChangeTable>&lt;BodyUmidBasicChange frameCount="0" value="060A2B340101010501010D4333000000C9796C8B375605DD08004602022F05F5" status="start">&lt;/BodyUmidBasicChange>&lt;/BodyUmidBasicChangeTable>&lt;BodyUmidWhenChangeTable>&lt;BodyUmidWhenChange frameCount="0" value="04D37C04375605A5" status="increment">&lt;/BodyUmidWhenChange>&lt;BodyUmidWhenChange frameCount="1022" value="84D27D04375605A5" status="end">&lt;/BodyUmidWhenChange>&lt;/BodyUmidWhenChangeTable>&lt;KlvPacketTable>&lt;KlvPacket key="060E2B34010101050301020A02000000" frameCount="0" lengthValue="095F5265635374617274" status="spot">&lt;/KlvPacket>&lt;/KlvPacketTable>&lt;VideoFormat>&lt;VideoRecPort port="DIRECT">&lt;/VideoRecPort>&lt;VideoFrame videoCodec="MPEG2HD35_1920_1080_MP@HL" captureFps="50.00i" recFps="50.00" formatFps="50i">&lt;/VideoFrame>&lt;VideoLayout pixel="1920" numOfVerticalLine="1080" aspectRatio="16:9">&lt;/VideoLayout>&lt;/VideoFormat>&lt;AudioFormat numOfChannel="2">&lt;AudioRecPort port="ANALOG" audioCodec="LPCM16" trackDst="CH1">&lt;/AudioRecPort>&lt;AudioRecPort port="ANALOG" audioCodec="LPCM16" trackDst="CH2">&lt;/AudioRecPort>&lt;/AudioFormat>&lt;Device manufacturer="Sony" modelName="PMW-EX3" serialNo="0401525">&lt;/Device>&lt;Lens modelName="VCL-614B2X">&lt;/Lens>&lt;RecordingMode type="normal" cacheRec="false">&lt;/RecordingMode>&lt;/NonRealTimeMeta>
							</value>
						</metadata>
						<metadata>
							<storage>QuickTime</storage>
							<key>com.apple.proapps.reel</key>
							<size>8</size>
							<type>UTF8</type>
							<value>Untitled</value>
						</metadata>
						<metadata>
							<storage>QuickTime</storage>
							<key>com.apple.proapps.clipID</key>
							<size>64</size>
							<type>UTF8</type>
							<value>060A2B340101010501010D4313000000C9796C8B375605DD08004602022F05F5</value>
						</metadata>
						<metadata>
							<storage>QuickTime</storage>
							<key>com.apple.quicktime.information</key>
							<size>64</size>
							<type>UTF8</type>
							<value>060a2b340101010501010d4313000000c9796c8b375605dd08004602022f05f5</value>
						</metadata>
						<metadata>
							<storage>QuickTime</storage>
							<key>com.apple.proapps.originalFormat</key>
							<size>36</size>
							<type>UTF8</type>
							<value>Apple XDCAM EX 1080i50 (35 Mb/s VBR)</value>
						</metadata>
						<timecode>
							<rate>
								<timebase>25</timebase>
							</rate>
							<string>09:27:42:14</string>
							<frame>851564</frame>
							<displayformat>NDF</displayformat>
							<source>source</source>
							<reel>
								<name>Untitled</name>
							</reel>
						</timecode>
						<media>
							<video>
								<duration>1023</duration>
								<samplecharacteristics>
									<width>1920</width>
									<height>1080</height>
								</samplecharacteristics>
							</video>
							<audio>
								<samplecharacteristics>
									<samplerate>48000</samplerate>
									<depth>16</depth>
								</samplecharacteristics>
								<channelcount>1</channelcount>
								<layout>mono</layout>
								<audiochannel>
									<sourcechannel>1</sourcechannel>
									<channellabel>discrete</channellabel>
								</audiochannel>
							</audio>
							<audio>
								<samplecharacteristics>
									<samplerate>48000</samplerate>
									<depth>16</depth>
								</samplecharacteristics>
								<channelcount>1</channelcount>
								<layout>mono</layout>
								<audiochannel>
									<sourcechannel>2</sourcechannel>
									<channellabel>discrete</channellabel>
								</audiochannel>
							</audio>
						</media>
					</file>
					<sourcetrack>
						<mediatype>video</mediatype>
					</sourcetrack>
					<fielddominance>upper</fielddominance>
					<itemhistory>
						<uuid>783D9624-E044-4EE7-96EC-9DFB66421E80</uuid>
					</itemhistory>
				</clipitem>
				<clipitem id="GOPR0112.MP4 ">
					<name>GOPR0112.MP4</name>
					<duration>8043</duration>
					<rate>
						<ntsc>FALSE</ntsc>
						<timebase>25</timebase>
					</rate>
					<in>7177</in>
					<out>7229</out>
					<start>24816</start>
					<end>24868</end>
					<pixelaspectratio>Square</pixelaspectratio>
					<enabled>TRUE</enabled>
					<anamorphic>FALSE</anamorphic>
					<alphatype>none</alphatype>
					<masterclipid>GOPR0112.MP4 1</masterclipid>
					<logginginfo>
						<scene/>
						<shottake/>
						<lognote/>
						<good>FALSE</good>
					</logginginfo>
					<labels>
						<label2/>
					</labels>
					<comments>
						<mastercomment1/>
						<mastercomment2/>
						<mastercomment3/>
						<mastercomment4/>
					</comments>
					<file id="GOPR0112 ">
						<name>GOPR0112.MP4</name>
						<pathurl>file://localhost/Volumes/Askepott/Prosjekter/DNPR637010_Kra%CC%8Akeklubben_TEM_011212/Video/MUSIKKVIDEO/Vinter/100GOPRO/GOPR0112.MP4</pathurl>
						<rate>
							<timebase>25</timebase>
						</rate>
						<duration>8043</duration>
						<media>
							<video>
								<duration>8043</duration>
								<samplecharacteristics>
									<width>1920</width>
									<height>1080</height>
								</samplecharacteristics>
							</video>
							<audio>
								<samplecharacteristics>
									<samplerate>48000</samplerate>
									<depth>32</depth>
								</samplecharacteristics>
								<channelcount>2</channelcount>
							</audio>
						</media>
					</file>
					<filter>
						<enabled>TRUE</enabled>
						<start>-1</start>
						<end>-1</end>
						<effect>
							<name>Color Corrector 3-way</name>
							<effectid>Color Corrector 3-way</effectid>
							<effectcategory>Color Correction</effectcategory>
							<effecttype>filter</effecttype>
							<mediatype>video</mediatype>
							<parameter>
								<parameterid>dispmode</parameterid>
								<name>Display Mode</name>
								<valuemin>1</valuemin>
								<valuemax>3</valuemax>
								<valuelist>
									<valueentry>
										<name>Final</name>
										<value>1</value>
									</valueentry>
									<valueentry>
										<name>Matte</name>
										<value>2</value>
									</valueentry>
									<valueentry>
										<name>Source</name>
										<value>3</value>
									</valueentry>
								</valuelist>
								<value>1</value>
							</parameter>
							<parameter>
								<parameterid>label1</parameterid>
								<name>Blacks Controls</name>
								<value/>
							</parameter>
							<parameter>
								<parameterid>blacklevel</parameterid>
								<name>Level</name>
								<valuemin>-196</valuemin>
								<valuemax>254</valuemax>
								<value>0</value>
							</parameter>
							<parameter>
								<parameterid>b_hue</parameterid>
								<name>Angle</name>
								<valuemin>-180</valuemin>
								<valuemax>180</valuemax>
								<value>-33</value>
							</parameter>
							<parameter>
								<parameterid>b_mag</parameterid>
								<name>Magnitude</name>
								<valuemin>0</valuemin>
								<valuemax>200</valuemax>
								<value>0</value>
							</parameter>
							<parameter>
								<parameterid>label2</parameterid>
								<name>Midrange Controls</name>
								<value/>
							</parameter>
							<parameter>
								<parameterid>mids</parameterid>
								<name>Level</name>
								<valuemin>0</valuemin>
								<valuemax>200</valuemax>
								<value>100</value>
							</parameter>
							<parameter>
								<parameterid>m_hue</parameterid>
								<name>Angle</name>
								<valuemin>-180</valuemin>
								<valuemax>180</valuemax>
								<value>129.926</value>
							</parameter>
							<parameter>
								<parameterid>m_mag</parameterid>
								<name>Magnitude</name>
								<valuemin>0</valuemin>
								<valuemax>200</valuemax>
								<value>14.6182</value>
							</parameter>
							<parameter>
								<parameterid>label3</parameterid>
								<name>Highlight Controls</name>
								<value/>
							</parameter>
							<parameter>
								<parameterid>highlights</parameterid>
								<name>Level</name>
								<valuemin>64</valuemin>
								<valuemax>509</valuemax>
								<value>255</value>
							</parameter>
							<parameter>
								<parameterid>h_hue</parameterid>
								<name>Angle</name>
								<valuemin>-180</valuemin>
								<valuemax>180</valuemax>
								<value>122.709</value>
							</parameter>
							<parameter>
								<parameterid>h_mag</parameterid>
								<name>Magnitude</name>
								<valuemin>0</valuemin>
								<valuemax>200</valuemax>
								<value>12.2382</value>
							</parameter>
							<parameter>
								<parameterid>label4</parameterid>
								<name>Color Controls</name>
								<value/>
							</parameter>
							<parameter>
								<parameterid>chroma</parameterid>
								<name>Saturation</name>
								<valuemin>0</valuemin>
								<valuemax>200</valuemax>
								<value>95</value>
							</parameter>
							<parameter>
								<parameterid>label5</parameterid>
								<name>Limit Effect Controls</name>
								<value/>
							</parameter>
							<parameter>
								<parameterid>dochroma</parameterid>
								<name>Limit on Chroma</name>
								<value>FALSE</value>
							</parameter>
							<parameter>
								<parameterid>centerang</parameterid>
								<name>Chroma Center</name>
								<valuemin>-760</valuemin>
								<valuemax>760</valuemax>
								<value>-110</value>
							</parameter>
							<parameter>
								<parameterid>chromawidth</parameterid>
								<name>Chroma Width</name>
								<valuemin>0</valuemin>
								<valuemax>360</valuemax>
								<value>15</value>
							</parameter>
							<parameter>
								<parameterid>chromasoft</parameterid>
								<name>Chroma Softness</name>
								<valuemin>0</valuemin>
								<valuemax>180</valuemax>
								<value>10</value>
							</parameter>
							<parameter>
								<parameterid>dosat</parameterid>
								<name>Limit on Saturation</name>
								<value>FALSE</value>
							</parameter>
							<parameter>
								<parameterid>satmin</parameterid>
								<name>Sat. Minimum</name>
								<valuemin>0</valuemin>
								<valuemax>125</valuemax>
								<value>35</value>
							</parameter>
							<parameter>
								<parameterid>satwidth</parameterid>
								<name>Sat. Width</name>
								<valuemin>0</valuemin>
								<valuemax>125</valuemax>
								<value>40</value>
							</parameter>
							<parameter>
								<parameterid>satsoft</parameterid>
								<name>Sat. Softness</name>
								<valuemin>0</valuemin>
								<valuemax>125</valuemax>
								<value>20</value>
							</parameter>
							<parameter>
								<parameterid>doluma</parameterid>
								<name>Limit on Luma</name>
								<value>FALSE</value>
							</parameter>
							<parameter>
								<parameterid>lumamin</parameterid>
								<name>Luma Minimum</name>
								<valuemin>0</valuemin>
								<valuemax>120</valuemax>
								<value>0</value>
							</parameter>
							<parameter>
								<parameterid>lumawidth</parameterid>
								<name>Luma Width</name>
								<valuemin>0</valuemin>
								<valuemax>120</valuemax>
								<value>40</value>
							</parameter>
							<parameter>
								<parameterid>lumasoft</parameterid>
								<name>Luma Softness</name>
								<valuemin>0</valuemin>
								<valuemax>120</valuemax>
								<value>20</value>
							</parameter>
							<parameter>
								<parameterid>label6</parameterid>
								<name>Edge Control</name>
								<value/>
							</parameter>
							<parameter>
								<parameterid>edgethin</parameterid>
								<name>Thin/Spread</name>
								<valuemin>-100</valuemin>
								<valuemax>100</valuemax>
								<value>0</value>
							</parameter>
							<parameter>
								<parameterid>edgefeather</parameterid>
								<name>Softening</name>
								<valuemin>0</valuemin>
								<valuemax>100</valuemax>
								<value>0</value>
							</parameter>
							<parameter>
								<parameterid>label7</parameterid>
								<name>Mask Control</name>
								<value/>
							</parameter>
							<parameter>
								<parameterid>invertsel</parameterid>
								<name>Invert</name>
								<value>FALSE</value>
							</parameter>
							<parameter>
								<parameterid>debugshow</parameterid>
								<name>Show Stats</name>
								<value>FALSE</value>
							</parameter>
						</effect>
					</filter>
					<filter>
						<effect>
							<name>Basic Motion</name>
							<effectid>basic</effectid>
							<effectcategory>motion</effectcategory>
							<effecttype>motion</effecttype>
							<mediatype>video</mediatype>
							<parameter>
								<parameterid>scale</parameterid>
								<name>Scale</name>
								<valuemin>0</valuemin>
								<valuemax>1000</valuemax>
								<value>100</value>
							</parameter>
							<parameter>
								<parameterid>rotation</parameterid>
								<name>Rotation</name>
								<valuemin>-8640</valuemin>
								<valuemax>8640</valuemax>
								<value>0</value>
							</parameter>
							<parameter>
								<parameterid>center</parameterid>
								<name>Center</name>
								<value>
									<horiz>0</horiz>
									<vert>0</vert>
								</value>
							</parameter>
							<parameter>
								<parameterid>centerOffset</parameterid>
								<name>Anchor Point</name>
								<value>
									<horiz>0</horiz>
									<vert>0</vert>
								</value>
							</parameter>
						</effect>
					</filter>
					<filter>
						<enabled>FALSE</enabled>
						<effect>
							<name>Drop Shadow</name>
							<effectid>dropshadow</effectid>
							<effectcategory>motion</effectcategory>
							<effecttype>motion</effecttype>
							<mediatype>video</mediatype>
							<parameter>
								<parameterid>offset</parameterid>
								<name>offset</name>
								<valuemin>-100</valuemin>
								<valuemax>100</valuemax>
								<value>2</value>
							</parameter>
							<parameter>
								<parameterid>angle</parameterid>
								<name>angle</name>
								<valuemin>-720</valuemin>
								<valuemax>720</valuemax>
								<value>135</value>
							</parameter>
							<parameter>
								<parameterid>color</parameterid>
								<name>color</name>
								<value>
									<alpha>0</alpha>
									<red>0</red>
									<green>0</green>
									<blue>0</blue>
								</value>
							</parameter>
							<parameter>
								<parameterid>softness</parameterid>
								<name>softness</name>
								<valuemin>0</valuemin>
								<valuemax>100</valuemax>
								<value>10</value>
							</parameter>
							<parameter>
								<parameterid>opacity</parameterid>
								<name>opacity</name>
								<valuemin>0</valuemin>
								<valuemax>100</valuemax>
								<value>50</value>
							</parameter>
						</effect>
					</filter>
					<filter>
						<enabled>FALSE</enabled>
						<effect>
							<name>Motion Blur</name>
							<effectid>motionblur</effectid>
							<effectcategory>motion</effectcategory>
							<effecttype>motion</effecttype>
							<mediatype>video</mediatype>
							<parameter>
								<parameterid>duration</parameterid>
								<name>% Blur</name>
								<valuemin>0</valuemin>
								<valuemax>1000</valuemax>
								<value>500</value>
							</parameter>
							<parameter>
								<parameterid>samples</parameterid>
								<name>Samples</name>
								<valuemin>1</valuemin>
								<valuemax>16</valuemax>
								<value>4</value>
							</parameter>
						</effect>
					</filter>
					<filter>
						<effect>
							<name>Crop</name>
							<effectid>crop</effectid>
							<effectcategory>motion</effectcategory>
							<effecttype>motion</effecttype>
							<mediatype>video</mediatype>
							<parameter>
								<parameterid>left</parameterid>
								<name>left</name>
								<valuemin>0</valuemin>
								<valuemax>100</valuemax>
								<value>0</value>
							</parameter>
							<parameter>
								<parameterid>right</parameterid>
								<name>right</name>
								<valuemin>0</valuemin>
								<valuemax>100</valuemax>
								<value>0</value>
							</parameter>
							<parameter>
								<parameterid>top</parameterid>
								<name>top</name>
								<valuemin>0</valuemin>
								<valuemax>100</valuemax>
								<value>0</value>
							</parameter>
							<parameter>
								<parameterid>bottom</parameterid>
								<name>bottom</name>
								<valuemin>0</valuemin>
								<valuemax>100</valuemax>
								<value>0</value>
							</parameter>
							<parameter>
								<parameterid>edgefeather</parameterid>
								<name>edgefeather</name>
								<valuemin>0</valuemin>
								<valuemax>100</valuemax>
								<value>0</value>
							</parameter>
						</effect>
					</filter>
					<filter>
						<effect>
							<name>Distort</name>
							<effectid>deformation</effectid>
							<effectcategory>motion</effectcategory>
							<effecttype>motion</effecttype>
							<mediatype>video</mediatype>
							<parameter>
								<parameterid>ulcorner</parameterid>
								<name>Upper Left</name>
								<value>
									<horiz>-0.5</horiz>
									<vert>-0.5</vert>
								</value>
							</parameter>
							<parameter>
								<parameterid>urcorner</parameterid>
								<name>Upper Right</name>
								<value>
									<horiz>0.5</horiz>
									<vert>-0.5</vert>
								</value>
							</parameter>
							<parameter>
								<parameterid>lrcorner</parameterid>
								<name>Lower Right</name>
								<value>
									<horiz>0.5</horiz>
									<vert>0.5</vert>
								</value>
							</parameter>
							<parameter>
								<parameterid>llcorner</parameterid>
								<name>Lower Left</name>
								<value>
									<horiz>-0.5</horiz>
									<vert>0.5</vert>
								</value>
							</parameter>
							<parameter>
								<parameterid>aspect</parameterid>
								<name>Aspect</name>
								<valuemin>-10000</valuemin>
								<valuemax>10000</valuemax>
								<value>0</value>
							</parameter>
						</effect>
					</filter>
					<filter>
						<effect>
							<name>Opacity</name>
							<effectid>opacity</effectid>
							<effectcategory>motion</effectcategory>
							<effecttype>motion</effecttype>
							<mediatype>video</mediatype>
							<parameter>
								<parameterid>opacity</parameterid>
								<name>opacity</name>
								<valuemin>0</valuemin>
								<valuemax>100</valuemax>
								<value>100</value>
							</parameter>
						</effect>
					</filter>
					<sourcetrack>
						<mediatype>video</mediatype>
					</sourcetrack>
					<fielddominance>upper</fielddominance>
					<itemhistory>
						<uuid>311B5183-0CBB-415D-BA2F-E7A779A8AAF8</uuid>
					</itemhistory>
				</clipitem>
				<clipitem id="DYR10495_01 ">
					<name>DYR10495_01</name>
					<duration>676</duration>
					<rate>
						<ntsc>FALSE</ntsc>
						<timebase>25</timebase>
					</rate>
					<in>470</in>
					<out>560</out>
					<start>24868</start>
					<end>24958</end>
					<pixelaspectratio>Square</pixelaspectratio>
					<enabled>TRUE</enabled>
					<anamorphic>FALSE</anamorphic>
					<alphatype>none</alphatype>
					<masterclipid>DYR10495_01 1</masterclipid>
					<logginginfo>
						<scene/>
						<shottake/>
						<lognote/>
						<good>FALSE</good>
					</logginginfo>
					<labels>
						<label2/>
					</labels>
					<comments>
						<mastercomment1/>
						<mastercomment2/>
						<mastercomment3/>
						<mastercomment4/>
					</comments>
					<file id="DYR10495_01 2">
						<name>DYR10495_01.mov</name>
						<pathurl>file://localhost/Volumes/Askepott/Prosjekter/DNPR637010_Kra%CC%8Akeklubben_TEM_011212/Video/MUSIKKVIDEO/Vinter/EX-3/DYR10495_01.mov</pathurl>
						<rate>
							<timebase>25</timebase>
						</rate>
						<duration>676</duration>
						<metadata>
							<storage>QuickTime</storage>
							<key>com.sony.bprl.xdcamtransfer.version</key>
							<size>10</size>
							<type>UTF8</type>
							<value>2.12.0.631</value>
						</metadata>
						<metadata>
							<storage>QuickTime</storage>
							<key>org.smpte.mxf.package.material.packageid</key>
							<size>66</size>
							<type>UTF8</type>
							<value>0x060a2b340101010501010d4313000000e37f4f8e375605dc08004602022f05f5</value>
						</metadata>
						<metadata>
							<storage>QuickTime</storage>
							<key>com.sony.professionaldisc.nonrealtimemeta.lastupdate</key>
							<size>25</size>
							<type>UTF8</type>
							<value>2011-03-17 14:20:57 +0100</value>
						</metadata>
						<metadata>
							<storage>QuickTime</storage>
							<key>com.sony.bprl.mxf.umid</key>
							<size>64</size>
							<type>UTF8</type>
							<value>060a2b340101010501010d4313000000e37f4f8e375605dc08004602022f05f5</value>
						</metadata>
						<metadata>
							<storage>QuickTime</storage>
							<key>com.sony.bprl.mxf.nrtmetadata</key>
							<size>1991</size>
							<type>UTF8</type>
							<value>&lt;?xml version="1.0" encoding="UTF-8"?>&lt;NonRealTimeMeta xmlns="urn:schemas-professionalDisc:nonRealTimeMeta:ver.1.20" xmlns:lib="urn:schemas-professionalDisc:lib:ver.1.20" xmlns:xsi="http://www.w3.org/2001/XMLSchema-instance" lastUpdate="2011-03-17T14:20:57+01:00">&lt;TargetMaterial umidRef="060A2B340101010501010D4313000000E37F4F8E375605DC08004602022F05F5">&lt;/TargetMaterial>&lt;Duration value="676">&lt;/Duration>&lt;LtcChangeTable tcFps="25" halfStep="false">&lt;LtcChange frameCount="0" value="11152409" status="increment">&lt;/LtcChange>&lt;LtcChange frameCount="675" value="11422409" status="end">&lt;/LtcChange>&lt;/LtcChangeTable>&lt;CreationDate value="2011-03-17T14:20:29+01:00">&lt;/CreationDate>&lt;TypicalUbit value="0000000017061020">&lt;/TypicalUbit>&lt;BodyUmidBasicChangeTable>&lt;BodyUmidBasicChange frameCount="0" value="060A2B340101010501010D4333000000E37F4F8E375605DC08004602022F05F5" status="start">&lt;/BodyUmidBasicChange>&lt;/BodyUmidBasicChangeTable>&lt;BodyUmidWhenChangeTable>&lt;BodyUmidWhenChange frameCount="0" value="449C9404375605A5" status="increment">&lt;/BodyUmidWhenChange>&lt;BodyUmidWhenChange frameCount="675" value="04459504375605A5" status="end">&lt;/BodyUmidWhenChange>&lt;/BodyUmidWhenChangeTable>&lt;KlvPacketTable>&lt;KlvPacket key="060E2B34010101050301020A02000000" frameCount="0" lengthValue="095F5265635374617274" status="spot">&lt;/KlvPacket>&lt;/KlvPacketTable>&lt;VideoFormat>&lt;VideoRecPort port="DIRECT">&lt;/VideoRecPort>&lt;VideoFrame videoCodec="MPEG2HD35_1920_1080_MP@HL" captureFps="50.00i" recFps="50.00" formatFps="50i">&lt;/VideoFrame>&lt;VideoLayout pixel="1920" numOfVerticalLine="1080" aspectRatio="16:9">&lt;/VideoLayout>&lt;/VideoFormat>&lt;AudioFormat numOfChannel="2">&lt;AudioRecPort port="ANALOG" audioCodec="LPCM16" trackDst="CH1">&lt;/AudioRecPort>&lt;AudioRecPort port="ANALOG" audioCodec="LPCM16" trackDst="CH2">&lt;/AudioRecPort>&lt;/AudioFormat>&lt;Device manufacturer="Sony" modelName="PMW-EX3" serialNo="0401525">&lt;/Device>&lt;Lens modelName="VCL-614B2X">&lt;/Lens>&lt;RecordingMode type="normal" cacheRec="false">&lt;/RecordingMode>&lt;/NonRealTimeMeta>
							</value>
						</metadata>
						<metadata>
							<storage>QuickTime</storage>
							<key>com.apple.proapps.reel</key>
							<size>8</size>
							<type>UTF8</type>
							<value>Untitled</value>
						</metadata>
						<metadata>
							<storage>QuickTime</storage>
							<key>com.apple.proapps.clipID</key>
							<size>64</size>
							<type>UTF8</type>
							<value>060A2B340101010501010D4313000000E37F4F8E375605DC08004602022F05F5</value>
						</metadata>
						<metadata>
							<storage>QuickTime</storage>
							<key>com.apple.quicktime.information</key>
							<size>64</size>
							<type>UTF8</type>
							<value>060a2b340101010501010d4313000000e37f4f8e375605dc08004602022f05f5</value>
						</metadata>
						<metadata>
							<storage>QuickTime</storage>
							<key>com.apple.proapps.originalFormat</key>
							<size>36</size>
							<type>UTF8</type>
							<value>Apple XDCAM EX 1080i50 (35 Mb/s VBR)</value>
						</metadata>
						<timecode>
							<rate>
								<timebase>25</timebase>
							</rate>
							<string>09:24:15:11</string>
							<frame>846386</frame>
							<displayformat>NDF</displayformat>
							<source>source</source>
							<reel>
								<name>Untitled</name>
							</reel>
						</timecode>
						<media>
							<video>
								<duration>676</duration>
								<samplecharacteristics>
									<width>1920</width>
									<height>1080</height>
								</samplecharacteristics>
							</video>
							<audio>
								<samplecharacteristics>
									<samplerate>48000</samplerate>
									<depth>16</depth>
								</samplecharacteristics>
								<channelcount>1</channelcount>
								<layout>mono</layout>
								<audiochannel>
									<sourcechannel>1</sourcechannel>
									<channellabel>discrete</channellabel>
								</audiochannel>
							</audio>
							<audio>
								<samplecharacteristics>
									<samplerate>48000</samplerate>
									<depth>16</depth>
								</samplecharacteristics>
								<channelcount>1</channelcount>
								<layout>mono</layout>
								<audiochannel>
									<sourcechannel>2</sourcechannel>
									<channellabel>discrete</channellabel>
								</audiochannel>
							</audio>
						</media>
					</file>
					<sourcetrack>
						<mediatype>video</mediatype>
					</sourcetrack>
					<fielddominance>upper</fielddominance>
					<itemhistory>
						<uuid>3EA7F2A7-6731-4500-B842-A31C64A262D3</uuid>
					</itemhistory>
				</clipitem>
				<clipitem id="DYR10491_01 ">
					<name>DYR10491_01</name>
					<duration>461</duration>
					<rate>
						<ntsc>FALSE</ntsc>
						<timebase>25</timebase>
					</rate>
					<in>170</in>
					<out>204</out>
					<start>24958</start>
					<end>24992</end>
					<pixelaspectratio>Square</pixelaspectratio>
					<enabled>TRUE</enabled>
					<anamorphic>FALSE</anamorphic>
					<alphatype>none</alphatype>
					<masterclipid>DYR10491_01 1</masterclipid>
					<logginginfo>
						<scene/>
						<shottake/>
						<lognote/>
						<good>FALSE</good>
					</logginginfo>
					<labels>
						<label2/>
					</labels>
					<comments>
						<mastercomment1/>
						<mastercomment2/>
						<mastercomment3/>
						<mastercomment4/>
					</comments>
					<file id="DYR10491_01 2">
						<name>DYR10491_01.mov</name>
						<pathurl>file://localhost/Volumes/Askepott/Prosjekter/DNPR637010_Kra%CC%8Akeklubben_TEM_011212/Video/MUSIKKVIDEO/Vinter/EX-3/DYR10491_01.mov</pathurl>
						<rate>
							<timebase>25</timebase>
						</rate>
						<duration>461</duration>
						<metadata>
							<storage>QuickTime</storage>
							<key>com.sony.bprl.xdcamtransfer.version</key>
							<size>10</size>
							<type>UTF8</type>
							<value>2.12.0.631</value>
						</metadata>
						<metadata>
							<storage>QuickTime</storage>
							<key>org.smpte.mxf.package.material.packageid</key>
							<size>66</size>
							<type>UTF8</type>
							<value>0x060a2b340101010501010d4313000000b82c348c375605cf08004602022f05f5</value>
						</metadata>
						<metadata>
							<storage>QuickTime</storage>
							<key>com.sony.professionaldisc.nonrealtimemeta.lastupdate</key>
							<size>25</size>
							<type>UTF8</type>
							<value>2011-03-17 14:08:58 +0100</value>
						</metadata>
						<metadata>
							<storage>QuickTime</storage>
							<key>com.sony.bprl.mxf.umid</key>
							<size>64</size>
							<type>UTF8</type>
							<value>060a2b340101010501010d4313000000b82c348c375605cf08004602022f05f5</value>
						</metadata>
						<metadata>
							<storage>QuickTime</storage>
							<key>com.sony.bprl.mxf.nrtmetadata</key>
							<size>1991</size>
							<type>UTF8</type>
							<value>&lt;?xml version="1.0" encoding="UTF-8"?>&lt;NonRealTimeMeta xmlns="urn:schemas-professionalDisc:nonRealTimeMeta:ver.1.20" xmlns:lib="urn:schemas-professionalDisc:lib:ver.1.20" xmlns:xsi="http://www.w3.org/2001/XMLSchema-instance" lastUpdate="2011-03-17T14:08:58+01:00">&lt;TargetMaterial umidRef="060A2B340101010501010D4313000000B82C348C375605CF08004602022F05F5">&lt;/TargetMaterial>&lt;Duration value="461">&lt;/Duration>&lt;LtcChangeTable tcFps="25" halfStep="false">&lt;LtcChange frameCount="0" value="08432809" status="increment">&lt;/LtcChange>&lt;LtcChange frameCount="460" value="18012909" status="end">&lt;/LtcChange>&lt;/LtcChangeTable>&lt;CreationDate value="2011-03-17T14:08:38+01:00">&lt;/CreationDate>&lt;TypicalUbit value="0000000017061020">&lt;/TypicalUbit>&lt;BodyUmidBasicChangeTable>&lt;BodyUmidBasicChange frameCount="0" value="060A2B340101010501010D4333000000B82C348C375605CF08004602022F05F5" status="start">&lt;/BodyUmidBasicChange>&lt;/BodyUmidBasicChangeTable>&lt;BodyUmidWhenChangeTable>&lt;BodyUmidWhenChange frameCount="0" value="84408304375605A5" status="increment">&lt;/BodyUmidWhenChange>&lt;BodyUmidWhenChange frameCount="460" value="84B38304375605A5" status="end">&lt;/BodyUmidWhenChange>&lt;/BodyUmidWhenChangeTable>&lt;KlvPacketTable>&lt;KlvPacket key="060E2B34010101050301020A02000000" frameCount="0" lengthValue="095F5265635374617274" status="spot">&lt;/KlvPacket>&lt;/KlvPacketTable>&lt;VideoFormat>&lt;VideoRecPort port="DIRECT">&lt;/VideoRecPort>&lt;VideoFrame videoCodec="MPEG2HD35_1920_1080_MP@HL" captureFps="50.00i" recFps="50.00" formatFps="50i">&lt;/VideoFrame>&lt;VideoLayout pixel="1920" numOfVerticalLine="1080" aspectRatio="16:9">&lt;/VideoLayout>&lt;/VideoFormat>&lt;AudioFormat numOfChannel="2">&lt;AudioRecPort port="ANALOG" audioCodec="LPCM16" trackDst="CH1">&lt;/AudioRecPort>&lt;AudioRecPort port="ANALOG" audioCodec="LPCM16" trackDst="CH2">&lt;/AudioRecPort>&lt;/AudioFormat>&lt;Device manufacturer="Sony" modelName="PMW-EX3" serialNo="0401525">&lt;/Device>&lt;Lens modelName="VCL-614B2X">&lt;/Lens>&lt;RecordingMode type="normal" cacheRec="false">&lt;/RecordingMode>&lt;/NonRealTimeMeta>
							</value>
						</metadata>
						<metadata>
							<storage>QuickTime</storage>
							<key>com.apple.proapps.reel</key>
							<size>8</size>
							<type>UTF8</type>
							<value>Untitled</value>
						</metadata>
						<metadata>
							<storage>QuickTime</storage>
							<key>com.apple.proapps.clipID</key>
							<size>64</size>
							<type>UTF8</type>
							<value>060A2B340101010501010D4313000000B82C348C375605CF08004602022F05F5</value>
						</metadata>
						<metadata>
							<storage>QuickTime</storage>
							<key>com.apple.quicktime.information</key>
							<size>64</size>
							<type>UTF8</type>
							<value>060a2b340101010501010d4313000000b82c348c375605cf08004602022f05f5</value>
						</metadata>
						<metadata>
							<storage>QuickTime</storage>
							<key>com.apple.proapps.originalFormat</key>
							<size>36</size>
							<type>UTF8</type>
							<value>Apple XDCAM EX 1080i50 (35 Mb/s VBR)</value>
						</metadata>
						<timecode>
							<rate>
								<timebase>25</timebase>
							</rate>
							<string>09:28:43:08</string>
							<frame>853083</frame>
							<displayformat>NDF</displayformat>
							<source>source</source>
							<reel>
								<name>Untitled</name>
							</reel>
						</timecode>
						<media>
							<video>
								<duration>461</duration>
								<samplecharacteristics>
									<width>1920</width>
									<height>1080</height>
								</samplecharacteristics>
							</video>
							<audio>
								<samplecharacteristics>
									<samplerate>48000</samplerate>
									<depth>16</depth>
								</samplecharacteristics>
								<channelcount>1</channelcount>
								<layout>mono</layout>
								<audiochannel>
									<sourcechannel>1</sourcechannel>
									<channellabel>discrete</channellabel>
								</audiochannel>
							</audio>
							<audio>
								<samplecharacteristics>
									<samplerate>48000</samplerate>
									<depth>16</depth>
								</samplecharacteristics>
								<channelcount>1</channelcount>
								<layout>mono</layout>
								<audiochannel>
									<sourcechannel>2</sourcechannel>
									<channellabel>discrete</channellabel>
								</audiochannel>
							</audio>
						</media>
					</file>
					<sourcetrack>
						<mediatype>video</mediatype>
					</sourcetrack>
					<fielddominance>upper</fielddominance>
					<itemhistory>
						<uuid>7C61E023-E9C8-4EAB-8B6E-9F69BCFA5855</uuid>
					</itemhistory>
				</clipitem>
				<clipitem id="DYR10496_01 ">
					<name>DYR10496_01</name>
					<duration>728</duration>
					<rate>
						<ntsc>FALSE</ntsc>
						<timebase>25</timebase>
					</rate>
					<in>276</in>
					<out>435</out>
					<start>24992</start>
					<end>-1</end>
					<pixelaspectratio>Square</pixelaspectratio>
					<enabled>TRUE</enabled>
					<anamorphic>FALSE</anamorphic>
					<alphatype>none</alphatype>
					<masterclipid>DYR10496_01 1</masterclipid>
					<logginginfo>
						<scene/>
						<shottake/>
						<lognote/>
						<good>FALSE</good>
					</logginginfo>
					<labels>
						<label2/>
					</labels>
					<comments>
						<mastercomment1/>
						<mastercomment2/>
						<mastercomment3/>
						<mastercomment4/>
					</comments>
					<file id="DYR10496_01 2">
						<name>DYR10496_01.mov</name>
						<pathurl>file://localhost/Volumes/Askepott/Prosjekter/DNPR637010_Kra%CC%8Akeklubben_TEM_011212/Video/MUSIKKVIDEO/Vinter/EX-3/DYR10496_01.mov</pathurl>
						<rate>
							<timebase>25</timebase>
						</rate>
						<duration>728</duration>
						<metadata>
							<storage>QuickTime</storage>
							<key>com.sony.bprl.xdcamtransfer.version</key>
							<size>10</size>
							<type>UTF8</type>
							<value>2.12.0.631</value>
						</metadata>
						<metadata>
							<storage>QuickTime</storage>
							<key>org.smpte.mxf.package.material.packageid</key>
							<size>66</size>
							<type>UTF8</type>
							<value>0x060a2b340101010501010d43130000006a0ff18e375605c508004602022f05f5</value>
						</metadata>
						<metadata>
							<storage>QuickTime</storage>
							<key>com.sony.professionaldisc.nonrealtimemeta.lastupdate</key>
							<size>25</size>
							<type>UTF8</type>
							<value>2011-03-17 14:24:33 +0100</value>
						</metadata>
						<metadata>
							<storage>QuickTime</storage>
							<key>com.sony.bprl.mxf.umid</key>
							<size>64</size>
							<type>UTF8</type>
							<value>060a2b340101010501010d43130000006a0ff18e375605c508004602022f05f5</value>
						</metadata>
						<metadata>
							<storage>QuickTime</storage>
							<key>com.sony.bprl.mxf.nrtmetadata</key>
							<size>1991</size>
							<type>UTF8</type>
							<value>&lt;?xml version="1.0" encoding="UTF-8"?>&lt;NonRealTimeMeta xmlns="urn:schemas-professionalDisc:nonRealTimeMeta:ver.1.20" xmlns:lib="urn:schemas-professionalDisc:lib:ver.1.20" xmlns:xsi="http://www.w3.org/2001/XMLSchema-instance" lastUpdate="2011-03-17T14:24:33+01:00">&lt;TargetMaterial umidRef="060A2B340101010501010D43130000006A0FF18E375605C508004602022F05F5">&lt;/TargetMaterial>&lt;Duration value="728">&lt;/Duration>&lt;LtcChangeTable tcFps="25" halfStep="false">&lt;LtcChange frameCount="0" value="12422409" status="increment">&lt;/LtcChange>&lt;LtcChange frameCount="727" value="14112509" status="end">&lt;/LtcChange>&lt;/LtcChangeTable>&lt;CreationDate value="2011-03-17T14:24:02+01:00">&lt;/CreationDate>&lt;TypicalUbit value="0000000017061020">&lt;/TypicalUbit>&lt;BodyUmidBasicChangeTable>&lt;BodyUmidBasicChange frameCount="0" value="060A2B340101010501010D43330000006A0FF18E375605C508004602022F05F5" status="start">&lt;/BodyUmidBasicChange>&lt;/BodyUmidBasicChangeTable>&lt;BodyUmidWhenChangeTable>&lt;BodyUmidWhenChange frameCount="0" value="84CF9904375605A5" status="increment">&lt;/BodyUmidWhenChange>&lt;BodyUmidWhenChange frameCount="727" value="44859A04375605A5" status="end">&lt;/BodyUmidWhenChange>&lt;/BodyUmidWhenChangeTable>&lt;KlvPacketTable>&lt;KlvPacket key="060E2B34010101050301020A02000000" frameCount="0" lengthValue="095F5265635374617274" status="spot">&lt;/KlvPacket>&lt;/KlvPacketTable>&lt;VideoFormat>&lt;VideoRecPort port="DIRECT">&lt;/VideoRecPort>&lt;VideoFrame videoCodec="MPEG2HD35_1920_1080_MP@HL" captureFps="50.00i" recFps="50.00" formatFps="50i">&lt;/VideoFrame>&lt;VideoLayout pixel="1920" numOfVerticalLine="1080" aspectRatio="16:9">&lt;/VideoLayout>&lt;/VideoFormat>&lt;AudioFormat numOfChannel="2">&lt;AudioRecPort port="ANALOG" audioCodec="LPCM16" trackDst="CH1">&lt;/AudioRecPort>&lt;AudioRecPort port="ANALOG" audioCodec="LPCM16" trackDst="CH2">&lt;/AudioRecPort>&lt;/AudioFormat>&lt;Device manufacturer="Sony" modelName="PMW-EX3" serialNo="0401525">&lt;/Device>&lt;Lens modelName="VCL-614B2X">&lt;/Lens>&lt;RecordingMode type="normal" cacheRec="false">&lt;/RecordingMode>&lt;/NonRealTimeMeta>
							</value>
						</metadata>
						<metadata>
							<storage>QuickTime</storage>
							<key>com.apple.proapps.reel</key>
							<size>8</size>
							<type>UTF8</type>
							<value>Untitled</value>
						</metadata>
						<metadata>
							<storage>QuickTime</storage>
							<key>com.apple.proapps.clipID</key>
							<size>64</size>
							<type>UTF8</type>
							<value>060A2B340101010501010D43130000006A0FF18E375605C508004602022F05F5</value>
						</metadata>
						<metadata>
							<storage>QuickTime</storage>
							<key>com.apple.quicktime.information</key>
							<size>64</size>
							<type>UTF8</type>
							<value>060a2b340101010501010d43130000006a0ff18e375605c508004602022f05f5</value>
						</metadata>
						<metadata>
							<storage>QuickTime</storage>
							<key>com.apple.proapps.originalFormat</key>
							<size>36</size>
							<type>UTF8</type>
							<value>Apple XDCAM EX 1080i50 (35 Mb/s VBR)</value>
						</metadata>
						<timecode>
							<rate>
								<timebase>25</timebase>
							</rate>
							<string>09:24:42:12</string>
							<frame>847062</frame>
							<displayformat>NDF</displayformat>
							<source>source</source>
							<reel>
								<name>Untitled</name>
							</reel>
						</timecode>
						<media>
							<video>
								<duration>728</duration>
								<samplecharacteristics>
									<width>1920</width>
									<height>1080</height>
								</samplecharacteristics>
							</video>
							<audio>
								<samplecharacteristics>
									<samplerate>48000</samplerate>
									<depth>16</depth>
								</samplecharacteristics>
								<channelcount>1</channelcount>
								<layout>mono</layout>
								<audiochannel>
									<sourcechannel>1</sourcechannel>
									<channellabel>discrete</channellabel>
								</audiochannel>
							</audio>
							<audio>
								<samplecharacteristics>
									<samplerate>48000</samplerate>
									<depth>16</depth>
								</samplecharacteristics>
								<channelcount>1</channelcount>
								<layout>mono</layout>
								<audiochannel>
									<sourcechannel>2</sourcechannel>
									<channellabel>discrete</channellabel>
								</audiochannel>
							</audio>
						</media>
					</file>
					<sourcetrack>
						<mediatype>video</mediatype>
					</sourcetrack>
					<fielddominance>upper</fielddominance>
					<itemhistory>
						<uuid>78C6104D-D51B-4FBC-AE9C-271B7C041608</uuid>
					</itemhistory>
				</clipitem>
				<transitionitem>
					<rate>
						<ntsc>FALSE</ntsc>
						<timebase>25</timebase>
					</rate>
					<start>25126</start>
					<end>25151</end>
					<alignment>end</alignment>
					<effect>
						<name>Cross Dissolve</name>
						<effectid>Cross Dissolve</effectid>
						<effectcategory>Dissolve</effectcategory>
						<effecttype>transition</effecttype>
						<mediatype>video</mediatype>
						<wipecode>0</wipecode>
						<wipeaccuracy>100</wipeaccuracy>
						<startratio>0</startratio>
						<endratio>1</endratio>
						<reverse>FALSE</reverse>
					</effect>
				</transitionitem>
				<clipitem id="Dryssende sno">
					<name>Dryssende sno</name>
					<duration>117</duration>
					<rate>
						<ntsc>FALSE</ntsc>
						<timebase>25</timebase>
					</rate>
					<in>1</in>
					<out>83</out>
					<start>-1</start>
					<end>-1</end>
					<pixelaspectratio>Square</pixelaspectratio>
					<enabled>TRUE</enabled>
					<anamorphic>FALSE</anamorphic>
					<alphatype>none</alphatype>
					<masterclipid>Dryssende sno1</masterclipid>
					<logginginfo>
						<scene/>
						<shottake/>
						<lognote/>
						<good>FALSE</good>
					</logginginfo>
					<labels>
						<label2/>
					</labels>
					<comments>
						<mastercomment1/>
						<mastercomment2/>
						<mastercomment3/>
						<mastercomment4/>
					</comments>
					<file id="Dryssende sno2">
						<name>Dryssende sno.mov</name>
						<pathurl>file://localhost/Volumes/Askepott/Prosjekter/DNPR637010_Kra%CC%8Akeklubben_TEM_011212/Eksport/Vinter%20-%20Musikkvideo/Dryssende%20sno.mov</pathurl>
						<rate>
							<timebase>25</timebase>
						</rate>
						<duration>117</duration>
						<metadata>
							<storage>QuickTime</storage>
							<key>com.apple.finalcutstudio.media.uuid</key>
							<size>36</size>
							<type>UTF8</type>
							<value>45059D30-BED6-4E24-A472-E2951590E597</value>
						</metadata>
						<timecode>
							<rate>
								<timebase>25</timebase>
							</rate>
							<string>00:00:08:05</string>
							<frame>205</frame>
							<displayformat>NDF</displayformat>
							<source>source</source>
						</timecode>
						<media>
							<video>
								<duration>117</duration>
								<samplecharacteristics>
									<width>1920</width>
									<height>1080</height>
								</samplecharacteristics>
							</video>
						</media>
					</file>
					<sourcetrack>
						<mediatype>video</mediatype>
					</sourcetrack>
					<fielddominance>upper</fielddominance>
					<itemhistory>
						<uuid>FF8FD4F9-2A15-4494-87A5-575D0FE18ABC</uuid>
					</itemhistory>
				</clipitem>
				<transitionitem>
					<rate>
						<ntsc>FALSE</ntsc>
						<timebase>25</timebase>
					</rate>
					<start>25195</start>
					<end>25208</end>
					<alignment>center</alignment>
					<effect>
						<name>Cross Dissolve</name>
						<effectid>Cross Dissolve</effectid>
						<effectcategory>Dissolve</effectcategory>
						<effecttype>transition</effecttype>
						<mediatype>video</mediatype>
						<wipecode>0</wipecode>
						<wipeaccuracy>100</wipeaccuracy>
						<startratio>0</startratio>
						<endratio>1</endratio>
						<reverse>FALSE</reverse>
					</effect>
				</transitionitem>
				<clipitem id="DYR10480_01 3">
					<name>DYR10480_01</name>
					<duration>1448</duration>
					<rate>
						<ntsc>FALSE</ntsc>
						<timebase>25</timebase>
					</rate>
					<in>1338</in>
					<out>1432</out>
					<start>-1</start>
					<end>-1</end>
					<pixelaspectratio>Square</pixelaspectratio>
					<enabled>TRUE</enabled>
					<anamorphic>FALSE</anamorphic>
					<alphatype>none</alphatype>
					<masterclipid>DYR10480_01 1</masterclipid>
					<logginginfo>
						<scene/>
						<shottake/>
						<lognote/>
						<good>FALSE</good>
					</logginginfo>
					<labels>
						<label2/>
					</labels>
					<comments>
						<mastercomment1/>
						<mastercomment2/>
						<mastercomment3/>
						<mastercomment4/>
					</comments>
					<file id="DYR10480_01 2"/>
					<sourcetrack>
						<mediatype>video</mediatype>
					</sourcetrack>
					<fielddominance>upper</fielddominance>
					<itemhistory>
						<uuid>56627D7A-D46F-4EF2-A622-DCAC4E072618</uuid>
					</itemhistory>
				</clipitem>
				<transitionitem>
					<rate>
						<ntsc>FALSE</ntsc>
						<timebase>25</timebase>
					</rate>
					<start>25276</start>
					<end>25289</end>
					<alignment>center</alignment>
					<effect>
						<name>Cross Dissolve</name>
						<effectid>Cross Dissolve</effectid>
						<effectcategory>Dissolve</effectcategory>
						<effecttype>transition</effecttype>
						<mediatype>video</mediatype>
						<wipecode>0</wipecode>
						<wipeaccuracy>100</wipeaccuracy>
						<startratio>0</startratio>
						<endratio>1</endratio>
						<reverse>FALSE</reverse>
					</effect>
				</transitionitem>
				<clipitem id="Dryssende sno3">
					<name>Dryssende sno</name>
					<duration>117</duration>
					<rate>
						<ntsc>FALSE</ntsc>
						<timebase>25</timebase>
					</rate>
					<in>21</in>
					<out>95</out>
					<start>-1</start>
					<end>-1</end>
					<pixelaspectratio>Square</pixelaspectratio>
					<enabled>TRUE</enabled>
					<anamorphic>FALSE</anamorphic>
					<alphatype>none</alphatype>
					<masterclipid>Dryssende sno1</masterclipid>
					<logginginfo>
						<scene/>
						<shottake/>
						<lognote/>
						<good>FALSE</good>
					</logginginfo>
					<labels>
						<label2/>
					</labels>
					<comments>
						<mastercomment1/>
						<mastercomment2/>
						<mastercomment3/>
						<mastercomment4/>
					</comments>
					<file id="Dryssende sno2"/>
					<filter>
						<start>-1</start>
						<end>-1</end>
						<effect>
							<name>Flop</name>
							<effectid>Flop</effectid>
							<effectcategory>Perspective</effectcategory>
							<effecttype>filter</effecttype>
							<mediatype>video</mediatype>
							<parameter>
								<parameterid>flop</parameterid>
								<name>Flop</name>
								<valuemin>1</valuemin>
								<valuemax>3</valuemax>
								<valuelist>
									<valueentry>
										<name>Horizontal</name>
										<value>1</value>
									</valueentry>
									<valueentry>
										<name>Vertical</name>
										<value>2</value>
									</valueentry>
									<valueentry>
										<name>Both</name>
										<value>3</value>
									</valueentry>
								</valuelist>
								<value>1</value>
							</parameter>
						</effect>
					</filter>
					<sourcetrack>
						<mediatype>video</mediatype>
					</sourcetrack>
					<fielddominance>upper</fielddominance>
					<itemhistory>
						<uuid>E4BC3290-2AF2-495C-89A7-4A8EB8722464</uuid>
					</itemhistory>
				</clipitem>
				<transitionitem>
					<rate>
						<ntsc>FALSE</ntsc>
						<timebase>25</timebase>
					</rate>
					<start>25329</start>
					<end>25350</end>
					<alignment>center</alignment>
					<effect>
						<name>Cross Dissolve</name>
						<effectid>Cross Dissolve</effectid>
						<effectcategory>Dissolve</effectcategory>
						<effecttype>transition</effecttype>
						<mediatype>video</mediatype>
						<wipecode>0</wipecode>
						<wipeaccuracy>100</wipeaccuracy>
						<startratio>0</startratio>
						<endratio>1</endratio>
						<reverse>FALSE</reverse>
					</effect>
				</transitionitem>
				<clipitem id="Musikkvideo - Vinter Kraaka i tre">
					<name>Musikkvideo - Vinter Kraaka i tre</name>
					<duration>144</duration>
					<rate>
						<ntsc>FALSE</ntsc>
						<timebase>25</timebase>
					</rate>
					<in>0</in>
					<out>144</out>
					<start>-1</start>
					<end>-1</end>
					<pixelaspectratio>Square</pixelaspectratio>
					<enabled>TRUE</enabled>
					<anamorphic>FALSE</anamorphic>
					<alphatype>none</alphatype>
					<masterclipid>Musikkvideo - Vinter Kraaka i tre1</masterclipid>
					<logginginfo>
						<scene/>
						<shottake/>
						<lognote/>
						<good>FALSE</good>
					</logginginfo>
					<labels>
						<label2/>
					</labels>
					<comments>
						<mastercomment1/>
						<mastercomment2/>
						<mastercomment3/>
						<mastercomment4/>
					</comments>
					<file id="Musikkvideo - Vinter Kraaka i tre2">
						<name>Musikkvideo - Vinter Kraaka i tre.mov</name>
						<pathurl>file://localhost/Volumes/Askepott/Prosjekter/DNPR637010_Kra%CC%8Akeklubben_TEM_011212/Eksport/S01E10/Musikkvideo%20-%20Vinter%20Kraaka%20i%20tre.mov</pathurl>
						<rate>
							<timebase>25</timebase>
						</rate>
						<duration>144</duration>
						<metadata>
							<storage>QuickTime</storage>
							<key>com.apple.finalcutstudio.media.uuid</key>
							<size>36</size>
							<type>UTF8</type>
							<value>6F48E6B5-97AA-423B-8388-67EBE09E5370</value>
						</metadata>
						<timecode>
							<rate>
								<timebase>25</timebase>
							</rate>
							<string>00:01:27:01</string>
							<frame>2176</frame>
							<displayformat>NDF</displayformat>
							<source>source</source>
						</timecode>
						<media>
							<video>
								<duration>144</duration>
								<samplecharacteristics>
									<width>1920</width>
									<height>1080</height>
								</samplecharacteristics>
							</video>
						</media>
					</file>
					<filter>
						<effect>
							<name>Basic Motion</name>
							<effectid>basic</effectid>
							<effectcategory>motion</effectcategory>
							<effecttype>motion</effecttype>
							<mediatype>video</mediatype>
							<parameter>
								<parameterid>scale</parameterid>
								<name>Scale</name>
								<valuemin>0</valuemin>
								<valuemax>1000</valuemax>
								<value>102</value>
							</parameter>
							<parameter>
								<parameterid>rotation</parameterid>
								<name>Rotation</name>
								<valuemin>-8640</valuemin>
								<valuemax>8640</valuemax>
								<value>0</value>
							</parameter>
							<parameter>
								<parameterid>center</parameterid>
								<name>Center</name>
								<value>
									<horiz>0</horiz>
									<vert>0</vert>
								</value>
							</parameter>
							<parameter>
								<parameterid>centerOffset</parameterid>
								<name>Anchor Point</name>
								<value>
									<horiz>0</horiz>
									<vert>0</vert>
								</value>
							</parameter>
						</effect>
					</filter>
					<filter>
						<enabled>FALSE</enabled>
						<effect>
							<name>Drop Shadow</name>
							<effectid>dropshadow</effectid>
							<effectcategory>motion</effectcategory>
							<effecttype>motion</effecttype>
							<mediatype>video</mediatype>
							<parameter>
								<parameterid>offset</parameterid>
								<name>offset</name>
								<valuemin>-100</valuemin>
								<valuemax>100</valuemax>
								<value>2</value>
							</parameter>
							<parameter>
								<parameterid>angle</parameterid>
								<name>angle</name>
								<valuemin>-720</valuemin>
								<valuemax>720</valuemax>
								<value>135</value>
							</parameter>
							<parameter>
								<parameterid>color</parameterid>
								<name>color</name>
								<value>
									<alpha>0</alpha>
									<red>0</red>
									<green>0</green>
									<blue>0</blue>
								</value>
							</parameter>
							<parameter>
								<parameterid>softness</parameterid>
								<name>softness</name>
								<valuemin>0</valuemin>
								<valuemax>100</valuemax>
								<value>10</value>
							</parameter>
							<parameter>
								<parameterid>opacity</parameterid>
								<name>opacity</name>
								<valuemin>0</valuemin>
								<valuemax>100</valuemax>
								<value>50</value>
							</parameter>
						</effect>
					</filter>
					<filter>
						<enabled>FALSE</enabled>
						<effect>
							<name>Motion Blur</name>
							<effectid>motionblur</effectid>
							<effectcategory>motion</effectcategory>
							<effecttype>motion</effecttype>
							<mediatype>video</mediatype>
							<parameter>
								<parameterid>duration</parameterid>
								<name>% Blur</name>
								<valuemin>0</valuemin>
								<valuemax>1000</valuemax>
								<value>500</value>
							</parameter>
							<parameter>
								<parameterid>samples</parameterid>
								<name>Samples</name>
								<valuemin>1</valuemin>
								<valuemax>16</valuemax>
								<value>4</value>
							</parameter>
						</effect>
					</filter>
					<filter>
						<effect>
							<name>Crop</name>
							<effectid>crop</effectid>
							<effectcategory>motion</effectcategory>
							<effecttype>motion</effecttype>
							<mediatype>video</mediatype>
							<parameter>
								<parameterid>left</parameterid>
								<name>left</name>
								<valuemin>0</valuemin>
								<valuemax>100</valuemax>
								<value>0</value>
							</parameter>
							<parameter>
								<parameterid>right</parameterid>
								<name>right</name>
								<valuemin>0</valuemin>
								<valuemax>100</valuemax>
								<value>0</value>
							</parameter>
							<parameter>
								<parameterid>top</parameterid>
								<name>top</name>
								<valuemin>0</valuemin>
								<valuemax>100</valuemax>
								<value>0</value>
							</parameter>
							<parameter>
								<parameterid>bottom</parameterid>
								<name>bottom</name>
								<valuemin>0</valuemin>
								<valuemax>100</valuemax>
								<value>0</value>
							</parameter>
							<parameter>
								<parameterid>edgefeather</parameterid>
								<name>edgefeather</name>
								<valuemin>0</valuemin>
								<valuemax>100</valuemax>
								<value>0</value>
							</parameter>
						</effect>
					</filter>
					<filter>
						<effect>
							<name>Distort</name>
							<effectid>deformation</effectid>
							<effectcategory>motion</effectcategory>
							<effecttype>motion</effecttype>
							<mediatype>video</mediatype>
							<parameter>
								<parameterid>ulcorner</parameterid>
								<name>Upper Left</name>
								<value>
									<horiz>-0.5</horiz>
									<vert>-0.5</vert>
								</value>
							</parameter>
							<parameter>
								<parameterid>urcorner</parameterid>
								<name>Upper Right</name>
								<value>
									<horiz>0.5</horiz>
									<vert>-0.5</vert>
								</value>
							</parameter>
							<parameter>
								<parameterid>lrcorner</parameterid>
								<name>Lower Right</name>
								<value>
									<horiz>0.5</horiz>
									<vert>0.5</vert>
								</value>
							</parameter>
							<parameter>
								<parameterid>llcorner</parameterid>
								<name>Lower Left</name>
								<value>
									<horiz>-0.5</horiz>
									<vert>0.5</vert>
								</value>
							</parameter>
							<parameter>
								<parameterid>aspect</parameterid>
								<name>Aspect</name>
								<valuemin>-10000</valuemin>
								<valuemax>10000</valuemax>
								<value>0</value>
							</parameter>
						</effect>
					</filter>
					<filter>
						<effect>
							<name>Opacity</name>
							<effectid>opacity</effectid>
							<effectcategory>motion</effectcategory>
							<effecttype>motion</effecttype>
							<mediatype>video</mediatype>
							<parameter>
								<parameterid>opacity</parameterid>
								<name>opacity</name>
								<valuemin>0</valuemin>
								<valuemax>100</valuemax>
								<value>100</value>
							</parameter>
						</effect>
					</filter>
					<sourcetrack>
						<mediatype>video</mediatype>
					</sourcetrack>
					<fielddominance>upper</fielddominance>
					<itemhistory>
						<uuid>1DDB3AC8-31D8-4648-B673-A0F68B41C79A</uuid>
					</itemhistory>
				</clipitem>
				<transitionitem>
					<rate>
						<ntsc>FALSE</ntsc>
						<timebase>25</timebase>
					</rate>
					<start>25467</start>
					<end>25473</end>
					<alignment>center</alignment>
					<effect>
						<name>Cross Dissolve</name>
						<effectid>Cross Dissolve</effectid>
						<effectcategory>Dissolve</effectcategory>
						<effecttype>transition</effecttype>
						<mediatype>video</mediatype>
						<wipecode>0</wipecode>
						<wipeaccuracy>100</wipeaccuracy>
						<startratio>0</startratio>
						<endratio>1</endratio>
						<reverse>FALSE</reverse>
					</effect>
				</transitionitem>
				<clipitem id="DYR10575_01 ">
					<name>DYR10575_01</name>
					<duration>1518</duration>
					<rate>
						<ntsc>FALSE</ntsc>
						<timebase>25</timebase>
					</rate>
					<in>645</in>
					<out>725</out>
					<start>-1</start>
					<end>25547</end>
					<pixelaspectratio>Square</pixelaspectratio>
					<enabled>TRUE</enabled>
					<anamorphic>FALSE</anamorphic>
					<alphatype>none</alphatype>
					<masterclipid>DYR10575_01 1</masterclipid>
					<logginginfo>
						<scene/>
						<shottake/>
						<lognote/>
						<good>FALSE</good>
					</logginginfo>
					<labels>
						<label2/>
					</labels>
					<comments>
						<mastercomment1/>
						<mastercomment2/>
						<mastercomment3/>
						<mastercomment4/>
					</comments>
					<file id="DYR10575_01 2">
						<name>DYR10575_01.mov</name>
						<pathurl>file://localhost/Volumes/Askepott/Prosjekter/DNPR637010_Kra%CC%8Akeklubben_TEM_011212/Video/MUSIKKVIDEO/Vinter/EX-3/DYR10575_01.mov</pathurl>
						<rate>
							<timebase>25</timebase>
						</rate>
						<duration>1518</duration>
						<metadata>
							<storage>QuickTime</storage>
							<key>com.sony.bprl.xdcamtransfer.version</key>
							<size>10</size>
							<type>UTF8</type>
							<value>2.12.0.631</value>
						</metadata>
						<metadata>
							<storage>QuickTime</storage>
							<key>org.smpte.mxf.package.material.packageid</key>
							<size>66</size>
							<type>UTF8</type>
							<value>0x060a2b340101010501010d4313000000ce2bf690415605dd08004602022f05f5</value>
						</metadata>
						<metadata>
							<storage>QuickTime</storage>
							<key>com.sony.professionaldisc.nonrealtimemeta.lastupdate</key>
							<size>25</size>
							<type>UTF8</type>
							<value>2011-03-21 14:36:26 +0100</value>
						</metadata>
						<metadata>
							<storage>QuickTime</storage>
							<key>com.sony.bprl.mxf.umid</key>
							<size>64</size>
							<type>UTF8</type>
							<value>060a2b340101010501010d4313000000ce2bf690415605dd08004602022f05f5</value>
						</metadata>
						<metadata>
							<storage>QuickTime</storage>
							<key>com.sony.bprl.mxf.nrtmetadata</key>
							<size>1994</size>
							<type>UTF8</type>
							<value>&lt;?xml version="1.0" encoding="UTF-8"?>&lt;NonRealTimeMeta xmlns="urn:schemas-professionalDisc:nonRealTimeMeta:ver.1.20" xmlns:lib="urn:schemas-professionalDisc:lib:ver.1.20" xmlns:xsi="http://www.w3.org/2001/XMLSchema-instance" lastUpdate="2011-03-21T14:36:26+01:00">&lt;TargetMaterial umidRef="060A2B340101010501010D4313000000CE2BF690415605DD08004602022F05F5">&lt;/TargetMaterial>&lt;Duration value="1518">&lt;/Duration>&lt;LtcChangeTable tcFps="25" halfStep="false">&lt;LtcChange frameCount="0" value="05295909" status="increment">&lt;/LtcChange>&lt;LtcChange frameCount="1517" value="22290010" status="end">&lt;/LtcChange>&lt;/LtcChangeTable>&lt;CreationDate value="2011-03-21T14:35:24+01:00">&lt;/CreationDate>&lt;TypicalUbit value="0000000017061020">&lt;/TypicalUbit>&lt;BodyUmidBasicChangeTable>&lt;BodyUmidBasicChange frameCount="0" value="060A2B340101010501010D4333000000CE2BF690415605DD08004602022F05F5" status="start">&lt;/BodyUmidBasicChange>&lt;/BodyUmidBasicChangeTable>&lt;BodyUmidWhenChangeTable>&lt;BodyUmidWhenChange frameCount="0" value="8474AA04415605A5" status="increment">&lt;/BodyUmidWhenChange>&lt;BodyUmidWhenChange frameCount="1517" value="C4EFAB04415605A5" status="end">&lt;/BodyUmidWhenChange>&lt;/BodyUmidWhenChangeTable>&lt;KlvPacketTable>&lt;KlvPacket key="060E2B34010101050301020A02000000" frameCount="0" lengthValue="095F5265635374617274" status="spot">&lt;/KlvPacket>&lt;/KlvPacketTable>&lt;VideoFormat>&lt;VideoRecPort port="DIRECT">&lt;/VideoRecPort>&lt;VideoFrame videoCodec="MPEG2HD35_1920_1080_MP@HL" captureFps="50.00i" recFps="50.00" formatFps="50i">&lt;/VideoFrame>&lt;VideoLayout pixel="1920" numOfVerticalLine="1080" aspectRatio="16:9">&lt;/VideoLayout>&lt;/VideoFormat>&lt;AudioFormat numOfChannel="2">&lt;AudioRecPort port="ANALOG" audioCodec="LPCM16" trackDst="CH1">&lt;/AudioRecPort>&lt;AudioRecPort port="ANALOG" audioCodec="LPCM16" trackDst="CH2">&lt;/AudioRecPort>&lt;/AudioFormat>&lt;Device manufacturer="Sony" modelName="PMW-EX3" serialNo="0401525">&lt;/Device>&lt;Lens modelName="VCL-614B2X">&lt;/Lens>&lt;RecordingMode type="normal" cacheRec="false">&lt;/RecordingMode>&lt;/NonRealTimeMeta>
							</value>
						</metadata>
						<metadata>
							<storage>QuickTime</storage>
							<key>com.apple.proapps.reel</key>
							<size>8</size>
							<type>UTF8</type>
							<value>Untitled</value>
						</metadata>
						<metadata>
							<storage>QuickTime</storage>
							<key>com.apple.proapps.clipID</key>
							<size>64</size>
							<type>UTF8</type>
							<value>060A2B340101010501010D4313000000CE2BF690415605DD08004602022F05F5</value>
						</metadata>
						<metadata>
							<storage>QuickTime</storage>
							<key>com.apple.quicktime.information</key>
							<size>64</size>
							<type>UTF8</type>
							<value>060a2b340101010501010d4313000000ce2bf690415605dd08004602022f05f5</value>
						</metadata>
						<metadata>
							<storage>QuickTime</storage>
							<key>com.apple.proapps.originalFormat</key>
							<size>36</size>
							<type>UTF8</type>
							<value>Apple XDCAM EX 1080i50 (35 Mb/s VBR)</value>
						</metadata>
						<timecode>
							<rate>
								<timebase>25</timebase>
							</rate>
							<string>09:59:29:05</string>
							<frame>899230</frame>
							<displayformat>NDF</displayformat>
							<source>source</source>
							<reel>
								<name>Untitled</name>
							</reel>
						</timecode>
						<media>
							<video>
								<duration>1518</duration>
								<samplecharacteristics>
									<width>1920</width>
									<height>1080</height>
								</samplecharacteristics>
							</video>
							<audio>
								<samplecharacteristics>
									<samplerate>48000</samplerate>
									<depth>16</depth>
								</samplecharacteristics>
								<channelcount>1</channelcount>
								<layout>mono</layout>
								<audiochannel>
									<sourcechannel>1</sourcechannel>
									<channellabel>discrete</channellabel>
								</audiochannel>
							</audio>
							<audio>
								<samplecharacteristics>
									<samplerate>48000</samplerate>
									<depth>16</depth>
								</samplecharacteristics>
								<channelcount>1</channelcount>
								<layout>mono</layout>
								<audiochannel>
									<sourcechannel>2</sourcechannel>
									<channellabel>discrete</channellabel>
								</audiochannel>
							</audio>
						</media>
					</file>
					<filter>
						<effect>
							<name>Basic Motion</name>
							<effectid>basic</effectid>
							<effectcategory>motion</effectcategory>
							<effecttype>motion</effecttype>
							<mediatype>video</mediatype>
							<parameter>
								<parameterid>scale</parameterid>
								<name>Scale</name>
								<valuemin>0</valuemin>
								<valuemax>1000</valuemax>
								<value>125</value>
							</parameter>
							<parameter>
								<parameterid>rotation</parameterid>
								<name>Rotation</name>
								<valuemin>-8640</valuemin>
								<valuemax>8640</valuemax>
								<value>0</value>
							</parameter>
							<parameter>
								<parameterid>center</parameterid>
								<name>Center</name>
								<value>
									<horiz>-0.1125</horiz>
									<vert>-0.0222222</vert>
								</value>
							</parameter>
							<parameter>
								<parameterid>centerOffset</parameterid>
								<name>Anchor Point</name>
								<value>
									<horiz>0</horiz>
									<vert>0</vert>
								</value>
							</parameter>
						</effect>
					</filter>
					<filter>
						<enabled>FALSE</enabled>
						<effect>
							<name>Drop Shadow</name>
							<effectid>dropshadow</effectid>
							<effectcategory>motion</effectcategory>
							<effecttype>motion</effecttype>
							<mediatype>video</mediatype>
							<parameter>
								<parameterid>offset</parameterid>
								<name>offset</name>
								<valuemin>-100</valuemin>
								<valuemax>100</valuemax>
								<value>2</value>
							</parameter>
							<parameter>
								<parameterid>angle</parameterid>
								<name>angle</name>
								<valuemin>-720</valuemin>
								<valuemax>720</valuemax>
								<value>135</value>
							</parameter>
							<parameter>
								<parameterid>color</parameterid>
								<name>color</name>
								<value>
									<alpha>0</alpha>
									<red>0</red>
									<green>0</green>
									<blue>0</blue>
								</value>
							</parameter>
							<parameter>
								<parameterid>softness</parameterid>
								<name>softness</name>
								<valuemin>0</valuemin>
								<valuemax>100</valuemax>
								<value>10</value>
							</parameter>
							<parameter>
								<parameterid>opacity</parameterid>
								<name>opacity</name>
								<valuemin>0</valuemin>
								<valuemax>100</valuemax>
								<value>50</value>
							</parameter>
						</effect>
					</filter>
					<filter>
						<enabled>FALSE</enabled>
						<effect>
							<name>Motion Blur</name>
							<effectid>motionblur</effectid>
							<effectcategory>motion</effectcategory>
							<effecttype>motion</effecttype>
							<mediatype>video</mediatype>
							<parameter>
								<parameterid>duration</parameterid>
								<name>% Blur</name>
								<valuemin>0</valuemin>
								<valuemax>1000</valuemax>
								<value>500</value>
							</parameter>
							<parameter>
								<parameterid>samples</parameterid>
								<name>Samples</name>
								<valuemin>1</valuemin>
								<valuemax>16</valuemax>
								<value>4</value>
							</parameter>
						</effect>
					</filter>
					<filter>
						<effect>
							<name>Crop</name>
							<effectid>crop</effectid>
							<effectcategory>motion</effectcategory>
							<effecttype>motion</effecttype>
							<mediatype>video</mediatype>
							<parameter>
								<parameterid>left</parameterid>
								<name>left</name>
								<valuemin>0</valuemin>
								<valuemax>100</valuemax>
								<value>0</value>
							</parameter>
							<parameter>
								<parameterid>right</parameterid>
								<name>right</name>
								<valuemin>0</valuemin>
								<valuemax>100</valuemax>
								<value>0</value>
							</parameter>
							<parameter>
								<parameterid>top</parameterid>
								<name>top</name>
								<valuemin>0</valuemin>
								<valuemax>100</valuemax>
								<value>0</value>
							</parameter>
							<parameter>
								<parameterid>bottom</parameterid>
								<name>bottom</name>
								<valuemin>0</valuemin>
								<valuemax>100</valuemax>
								<value>0</value>
							</parameter>
							<parameter>
								<parameterid>edgefeather</parameterid>
								<name>edgefeather</name>
								<valuemin>0</valuemin>
								<valuemax>100</valuemax>
								<value>0</value>
							</parameter>
						</effect>
					</filter>
					<filter>
						<effect>
							<name>Distort</name>
							<effectid>deformation</effectid>
							<effectcategory>motion</effectcategory>
							<effecttype>motion</effecttype>
							<mediatype>video</mediatype>
							<parameter>
								<parameterid>ulcorner</parameterid>
								<name>Upper Left</name>
								<value>
									<horiz>-0.5</horiz>
									<vert>-0.5</vert>
								</value>
							</parameter>
							<parameter>
								<parameterid>urcorner</parameterid>
								<name>Upper Right</name>
								<value>
									<horiz>0.5</horiz>
									<vert>-0.5</vert>
								</value>
							</parameter>
							<parameter>
								<parameterid>lrcorner</parameterid>
								<name>Lower Right</name>
								<value>
									<horiz>0.5</horiz>
									<vert>0.5</vert>
								</value>
							</parameter>
							<parameter>
								<parameterid>llcorner</parameterid>
								<name>Lower Left</name>
								<value>
									<horiz>-0.5</horiz>
									<vert>0.5</vert>
								</value>
							</parameter>
							<parameter>
								<parameterid>aspect</parameterid>
								<name>Aspect</name>
								<valuemin>-10000</valuemin>
								<valuemax>10000</valuemax>
								<value>0</value>
							</parameter>
						</effect>
					</filter>
					<filter>
						<effect>
							<name>Opacity</name>
							<effectid>opacity</effectid>
							<effectcategory>motion</effectcategory>
							<effecttype>motion</effecttype>
							<mediatype>video</mediatype>
							<parameter>
								<parameterid>opacity</parameterid>
								<name>opacity</name>
								<valuemin>0</valuemin>
								<valuemax>100</valuemax>
								<value>100</value>
							</parameter>
						</effect>
					</filter>
					<sourcetrack>
						<mediatype>video</mediatype>
					</sourcetrack>
					<link>
						<linkclipref>DYR10575_01 </linkclipref>
						<mediatype>video</mediatype>
						<trackindex>1</trackindex>
						<clipindex>310</clipindex>
					</link>
					<fielddominance>upper</fielddominance>
					<itemhistory>
						<uuid>F99C4CCE-526D-4807-8739-EF9389797714</uuid>
					</itemhistory>
				</clipitem>
				<clipitem id="DYR10474_01 3">
					<name>DYR10474_01</name>
					<duration>1169</duration>
					<rate>
						<ntsc>FALSE</ntsc>
						<timebase>25</timebase>
					</rate>
					<in>381</in>
					<out>550</out>
					<start>25547</start>
					<end>-1</end>
					<pixelaspectratio>Square</pixelaspectratio>
					<enabled>TRUE</enabled>
					<anamorphic>FALSE</anamorphic>
					<alphatype>none</alphatype>
					<masterclipid>DYR10474_01 4</masterclipid>
					<logginginfo>
						<scene/>
						<shottake/>
						<lognote/>
						<good>FALSE</good>
					</logginginfo>
					<labels>
						<label2/>
					</labels>
					<comments>
						<mastercomment1/>
						<mastercomment2/>
						<mastercomment3/>
						<mastercomment4/>
					</comments>
					<file id="DYR10474_01 2"/>
					<filter>
						<effect>
							<name>Opacity</name>
							<effectid>opacity</effectid>
							<effectcategory>motion</effectcategory>
							<effecttype>motion</effecttype>
							<mediatype>video</mediatype>
							<parameter>
								<parameterid>opacity</parameterid>
								<name>opacity</name>
								<valuemin>0</valuemin>
								<valuemax>100</valuemax>
								<value>100</value>
							</parameter>
						</effect>
					</filter>
					<sourcetrack>
						<mediatype>video</mediatype>
					</sourcetrack>
					<fielddominance>upper</fielddominance>
					<itemhistory>
						<uuid>A62FDD19-5ADB-438C-BC72-3106E0C5E7EA</uuid>
					</itemhistory>
				</clipitem>
				<transitionitem>
					<rate>
						<ntsc>FALSE</ntsc>
						<timebase>25</timebase>
					</rate>
					<start>25699</start>
					<end>25716</end>
					<alignment>end</alignment>
					<effect>
						<name>Cross Dissolve</name>
						<effectid>Cross Dissolve</effectid>
						<effectcategory>Dissolve</effectcategory>
						<effecttype>transition</effecttype>
						<mediatype>video</mediatype>
						<wipecode>0</wipecode>
						<wipeaccuracy>100</wipeaccuracy>
						<startratio>0</startratio>
						<endratio>1</endratio>
						<reverse>FALSE</reverse>
					</effect>
				</transitionitem>
				<clipitem id="GoPro-bilder">
					<name>GoPro-bilder</name>
					<duration>2195</duration>
					<rate>
						<ntsc>FALSE</ntsc>
						<timebase>25</timebase>
					</rate>
					<in>1653</in>
					<out>1728</out>
					<start>-1</start>
					<end>-1</end>
					<pixelaspectratio>Square</pixelaspectratio>
					<enabled>TRUE</enabled>
					<anamorphic>FALSE</anamorphic>
					<alphatype>none</alphatype>
					<masterclipid>GoPro-bilder1</masterclipid>
					<logginginfo>
						<scene/>
						<shottake/>
						<lognote/>
						<good>FALSE</good>
					</logginginfo>
					<labels>
						<label2/>
					</labels>
					<comments>
						<mastercomment1/>
						<mastercomment2/>
						<mastercomment3/>
						<mastercomment4/>
					</comments>
					<file id="GoPro-bilder2">
						<name>GoPro-bilder.mov</name>
						<pathurl>file://localhost/Volumes/Askepott/Prosjekter/DNPR637010_Kra%CC%8Akeklubben_TEM_011212/Eksport/Vinter%20-%20Musikkvideo/GoPro-bilder.mov</pathurl>
						<rate>
							<timebase>25</timebase>
						</rate>
						<duration>2195</duration>
						<metadata>
							<storage>QuickTime</storage>
							<key>com.apple.finalcutstudio.media.uuid</key>
							<size>36</size>
							<type>UTF8</type>
							<value>A603F583-F726-4318-9B8B-97742E6B7878</value>
						</metadata>
						<timecode>
							<rate>
								<timebase>25</timebase>
							</rate>
							<string>00:04:25:20</string>
							<frame>6645</frame>
							<displayformat>NDF</displayformat>
							<source>source</source>
						</timecode>
						<media>
							<video>
								<duration>2195</duration>
								<samplecharacteristics>
									<width>1920</width>
									<height>1080</height>
								</samplecharacteristics>
							</video>
						</media>
					</file>
					<filter>
						<enabled>TRUE</enabled>
						<start>-1</start>
						<end>-1</end>
						<effect>
							<name>Twixtor FxPlug</name>
							<effectid>FxPlugWrapper:B3134303_3C75_40AE_B82F_F0A6EAB802E2</effectid>
							<effectclass>FxPlug</effectclass>
							<effecttype>filter</effecttype>
							<mediatype>video</mediatype>
							<parameter>
								<parameterid>input_1</parameterid>
								<name>Display</name>
								<valuelist>
									<valueentry>
										<name>Twixtored Output</name>
										<value>1</value>
									</valueentry>
									<valueentry>
										<name>Source</name>
										<value>2</value>
									</valueentry>
									<valueentry>
										<name>Alt Track Source</name>
										<value>3</value>
									</valueentry>
								</valuelist>
								<value>1</value>
							</parameter>
							<parameter>
								<parameterid>group_2</parameterid>
								<name>Source Control</name>
								<value>Source Control</value>
							</parameter>
							<parameter>
								<parameterid>input_3</parameterid>
								<name>Alt Track Source</name>
							</parameter>
							<parameter>
								<parameterid>input_4</parameterid>
								<name>Mark Segments</name>
								<valuemin>1</valuemin>
								<valuemax>2</valuemax>
								<value>1</value>
							</parameter>
							<parameter>
								<parameterid>group_5</parameterid>
								<name>Track Control</name>
								<value>Track Control</value>
							</parameter>
							<parameter>
								<parameterid>input_6</parameterid>
								<name>Motion Vectors</name>
								<valuelist>
									<valueentry>
										<name>No Motion Vectors</name>
										<value>1</value>
									</valueentry>
									<valueentry>
										<name>Sloppy</name>
										<value>2</value>
									</valueentry>
									<valueentry>
										<name>Medium</name>
										<value>3</value>
									</valueentry>
									<valueentry>
										<name>High</name>
										<value>4</value>
									</valueentry>
									<valueentry>
										<name>Best</name>
										<value>5</value>
									</valueentry>
								</valuelist>
								<value>5</value>
							</parameter>
							<parameter>
								<parameterid>input_7</parameterid>
								<name>Image Prep</name>
								<valuelist>
									<valueentry>
										<name>None</name>
										<value>1</value>
									</valueentry>
									<valueentry>
										<name>Contrast/Edge Enhance</name>
										<value>2</value>
									</valueentry>
								</valuelist>
								<value>1</value>
							</parameter>
							<parameter>
								<parameterid>input_8</parameterid>
								<name>Motion Sensitivity</name>
								<valuemin>0</valuemin>
								<valuemax>100</valuemax>
								<value>80</value>
							</parameter>
							<parameter>
								<parameterid>group_9</parameterid>
								<name>Output Control</name>
								<value>Output Control</value>
							</parameter>
							<parameter>
								<parameterid>input_10</parameterid>
								<name>Time Remap Mode</name>
								<valuelist>
									<valueentry>
										<name>Speed</name>
										<value>1</value>
									</valueentry>
									<valueentry>
										<name>Frame Number</name>
										<value>2</value>
									</valueentry>
								</valuelist>
								<value>1</value>
							</parameter>
							<parameter>
								<parameterid>input_11</parameterid>
								<name>Speed %</name>
								<valuemin>-10000</valuemin>
								<valuemax>10000</valuemax>
								<value>52</value>
							</parameter>
							<parameter>
								<parameterid>input_12</parameterid>
								<name>Frame Num</name>
								<valuemin>0</valuemin>
								<valuemax>30000</valuemax>
								<value>0</value>
							</parameter>
							<parameter>
								<parameterid>input_13</parameterid>
								<name>Frame Interp</name>
								<valuelist>
									<valueentry>
										<name>Nearest</name>
										<value>1</value>
									</valueentry>
									<valueentry>
										<name>Blend</name>
										<value>2</value>
									</valueentry>
									<valueentry>
										<name>Motion Weighted Blend</name>
										<value>3</value>
									</valueentry>
								</valuelist>
								<value>2</value>
							</parameter>
							<parameter>
								<parameterid>input_14</parameterid>
								<name>Smart Blend</name>
								<value>TRUE</value>
							</parameter>
							<parameter>
								<parameterid>input_15</parameterid>
								<name>Motion Blur Compensation</name>
								<valuemin>0</valuemin>
								<valuemax>10</valuemax>
								<value>0</value>
							</parameter>
							<parameter>
								<parameterid>endGroup_9</parameterid>
								<name/>
								<value/>
							</parameter>
							<parameter>
								<parameterid>input_16</parameterid>
								<name>Registered to</name>
								<value>4Hans Ludvig Andreassen</value>
							</parameter>
							<parameter>
								<parameterid>FCP_FilterMix</parameterid>
								<name>Mix</name>
								<valuemin>0</valuemin>
								<valuemax>100</valuemax>
								<value>100</value>
							</parameter>
						</effect>
					</filter>
					<filter>
						<start>-1</start>
						<end>-1</end>
						<effect>
							<name>Flop</name>
							<effectid>FxPlugWrapper:2FF8887B_E673_4727_9601_1B3353531C10</effectid>
							<effectclass>FxPlug</effectclass>
							<effecttype>filter</effecttype>
							<mediatype>video</mediatype>
							<parameter>
								<parameterid>input_1</parameterid>
								<name>Flop</name>
								<valuelist>
									<valueentry>
										<name>Horizontal</name>
										<value>1</value>
									</valueentry>
									<valueentry>
										<name>Vertical</name>
										<value>2</value>
									</valueentry>
									<valueentry>
										<name>Both</name>
										<value>3</value>
									</valueentry>
								</valuelist>
								<value>1</value>
							</parameter>
							<parameter>
								<parameterid>FCP_FilterMix</parameterid>
								<name>Mix</name>
								<valuemin>0</valuemin>
								<valuemax>100</valuemax>
								<value>100</value>
							</parameter>
						</effect>
					</filter>
					<sourcetrack>
						<mediatype>video</mediatype>
					</sourcetrack>
					<fielddominance>upper</fielddominance>
					<itemhistory>
						<uuid>C508A028-A679-4CE8-A55A-355CC8FAD50E</uuid>
					</itemhistory>
				</clipitem>
				<transitionitem>
					<rate>
						<ntsc>FALSE</ntsc>
						<timebase>25</timebase>
					</rate>
					<start>25759</start>
					<end>25774</end>
					<alignment>center</alignment>
					<effect>
						<name>Cross Dissolve</name>
						<effectid>Cross Dissolve</effectid>
						<effectcategory>Dissolve</effectcategory>
						<effecttype>transition</effecttype>
						<mediatype>video</mediatype>
						<wipecode>0</wipecode>
						<wipeaccuracy>100</wipeaccuracy>
						<startratio>0</startratio>
						<endratio>1</endratio>
						<reverse>FALSE</reverse>
					</effect>
				</transitionitem>
				<clipitem id="DYR10519_01 ">
					<name>DYR10519_01</name>
					<duration>417</duration>
					<rate>
						<ntsc>FALSE</ntsc>
						<timebase>25</timebase>
					</rate>
					<in>343</in>
					<out>367</out>
					<start>-1</start>
					<end>25783</end>
					<pixelaspectratio>Square</pixelaspectratio>
					<enabled>TRUE</enabled>
					<anamorphic>FALSE</anamorphic>
					<alphatype>none</alphatype>
					<masterclipid>DYR10519_01 1</masterclipid>
					<logginginfo>
						<scene/>
						<shottake/>
						<lognote/>
						<good>FALSE</good>
					</logginginfo>
					<labels>
						<label2/>
					</labels>
					<comments>
						<mastercomment1/>
						<mastercomment2/>
						<mastercomment3/>
						<mastercomment4/>
					</comments>
					<file id="DYR10519_01 2">
						<name>DYR10519_01.mov</name>
						<pathurl>file://localhost/Volumes/Askepott/Prosjekter/DNPR637010_Kra%CC%8Akeklubben_TEM_011212/Video/MUSIKKVIDEO/Vinter/EX-3/DYR10519_01.mov</pathurl>
						<rate>
							<timebase>25</timebase>
						</rate>
						<duration>417</duration>
						<metadata>
							<storage>QuickTime</storage>
							<key>com.sony.bprl.xdcamtransfer.version</key>
							<size>10</size>
							<type>UTF8</type>
							<value>2.12.0.631</value>
						</metadata>
						<metadata>
							<storage>QuickTime</storage>
							<key>org.smpte.mxf.package.material.packageid</key>
							<size>66</size>
							<type>UTF8</type>
							<value>0x060a2b340101010501010d4313000000c24e0f96375605d108004602022f05f5</value>
						</metadata>
						<metadata>
							<storage>QuickTime</storage>
							<key>com.sony.professionaldisc.nonrealtimemeta.lastupdate</key>
							<size>25</size>
							<type>UTF8</type>
							<value>2011-03-17 15:04:22 +0100</value>
						</metadata>
						<metadata>
							<storage>QuickTime</storage>
							<key>com.sony.bprl.mxf.umid</key>
							<size>64</size>
							<type>UTF8</type>
							<value>060a2b340101010501010d4313000000c24e0f96375605d108004602022f05f5</value>
						</metadata>
						<metadata>
							<storage>QuickTime</storage>
							<key>com.sony.bprl.mxf.nrtmetadata</key>
							<size>1991</size>
							<type>UTF8</type>
							<value>&lt;?xml version="1.0" encoding="UTF-8"?>&lt;NonRealTimeMeta xmlns="urn:schemas-professionalDisc:nonRealTimeMeta:ver.1.20" xmlns:lib="urn:schemas-professionalDisc:lib:ver.1.20" xmlns:xsi="http://www.w3.org/2001/XMLSchema-instance" lastUpdate="2011-03-17T15:04:22+01:00">&lt;TargetMaterial umidRef="060A2B340101010501010D4313000000C24E0F96375605D108004602022F05F5">&lt;/TargetMaterial>&lt;Duration value="417">&lt;/Duration>&lt;LtcChangeTable tcFps="25" halfStep="false">&lt;LtcChange frameCount="0" value="20033209" status="increment">&lt;/LtcChange>&lt;LtcChange frameCount="416" value="11203209" status="end">&lt;/LtcChange>&lt;/LtcChangeTable>&lt;CreationDate value="2011-03-17T15:04:05+01:00">&lt;/CreationDate>&lt;TypicalUbit value="0000000017061020">&lt;/TypicalUbit>&lt;BodyUmidBasicChangeTable>&lt;BodyUmidBasicChange frameCount="0" value="060A2B340101010501010D4333000000C24E0F96375605D108004602022F05F5" status="start">&lt;/BodyUmidBasicChange>&lt;/BodyUmidBasicChangeTable>&lt;BodyUmidWhenChangeTable>&lt;BodyUmidWhenChange frameCount="0" value="8476D404375605A5" status="increment">&lt;/BodyUmidWhenChange>&lt;BodyUmidWhenChange frameCount="416" value="84DED404375605A5" status="end">&lt;/BodyUmidWhenChange>&lt;/BodyUmidWhenChangeTable>&lt;KlvPacketTable>&lt;KlvPacket key="060E2B34010101050301020A02000000" frameCount="0" lengthValue="095F5265635374617274" status="spot">&lt;/KlvPacket>&lt;/KlvPacketTable>&lt;VideoFormat>&lt;VideoRecPort port="DIRECT">&lt;/VideoRecPort>&lt;VideoFrame videoCodec="MPEG2HD35_1920_1080_MP@HL" captureFps="50.00i" recFps="50.00" formatFps="50i">&lt;/VideoFrame>&lt;VideoLayout pixel="1920" numOfVerticalLine="1080" aspectRatio="16:9">&lt;/VideoLayout>&lt;/VideoFormat>&lt;AudioFormat numOfChannel="2">&lt;AudioRecPort port="ANALOG" audioCodec="LPCM16" trackDst="CH1">&lt;/AudioRecPort>&lt;AudioRecPort port="ANALOG" audioCodec="LPCM16" trackDst="CH2">&lt;/AudioRecPort>&lt;/AudioFormat>&lt;Device manufacturer="Sony" modelName="PMW-EX3" serialNo="0401525">&lt;/Device>&lt;Lens modelName="VCL-614B2X">&lt;/Lens>&lt;RecordingMode type="normal" cacheRec="false">&lt;/RecordingMode>&lt;/NonRealTimeMeta>
							</value>
						</metadata>
						<metadata>
							<storage>QuickTime</storage>
							<key>com.apple.proapps.reel</key>
							<size>8</size>
							<type>UTF8</type>
							<value>Untitled</value>
						</metadata>
						<metadata>
							<storage>QuickTime</storage>
							<key>com.apple.proapps.clipID</key>
							<size>64</size>
							<type>UTF8</type>
							<value>060A2B340101010501010D4313000000C24E0F96375605D108004602022F05F5</value>
						</metadata>
						<metadata>
							<storage>QuickTime</storage>
							<key>com.apple.quicktime.information</key>
							<size>64</size>
							<type>UTF8</type>
							<value>060a2b340101010501010d4313000000c24e0f96375605d108004602022f05f5</value>
						</metadata>
						<metadata>
							<storage>QuickTime</storage>
							<key>com.apple.proapps.originalFormat</key>
							<size>36</size>
							<type>UTF8</type>
							<value>Apple XDCAM EX 1080i50 (35 Mb/s VBR)</value>
						</metadata>
						<timecode>
							<rate>
								<timebase>25</timebase>
							</rate>
							<string>09:32:03:20</string>
							<frame>858095</frame>
							<displayformat>NDF</displayformat>
							<source>source</source>
							<reel>
								<name>Untitled</name>
							</reel>
						</timecode>
						<media>
							<video>
								<duration>417</duration>
								<samplecharacteristics>
									<width>1920</width>
									<height>1080</height>
								</samplecharacteristics>
							</video>
							<audio>
								<samplecharacteristics>
									<samplerate>48000</samplerate>
									<depth>16</depth>
								</samplecharacteristics>
								<channelcount>1</channelcount>
								<layout>mono</layout>
								<audiochannel>
									<sourcechannel>1</sourcechannel>
									<channellabel>discrete</channellabel>
								</audiochannel>
							</audio>
							<audio>
								<samplecharacteristics>
									<samplerate>48000</samplerate>
									<depth>16</depth>
								</samplecharacteristics>
								<channelcount>1</channelcount>
								<layout>mono</layout>
								<audiochannel>
									<sourcechannel>2</sourcechannel>
									<channellabel>discrete</channellabel>
								</audiochannel>
							</audio>
						</media>
					</file>
					<sourcetrack>
						<mediatype>video</mediatype>
					</sourcetrack>
					<fielddominance>upper</fielddominance>
					<itemhistory>
						<uuid>891918DC-1871-4B27-8D63-1F4856F0BDEB</uuid>
					</itemhistory>
				</clipitem>
				<clipitem id="GOPR0114.MP4 ">
					<name>GOPR0114.MP4</name>
					<duration>1372</duration>
					<rate>
						<ntsc>FALSE</ntsc>
						<timebase>25</timebase>
					</rate>
					<in>1251</in>
					<out>1273</out>
					<start>25783</start>
					<end>25805</end>
					<pixelaspectratio>Square</pixelaspectratio>
					<enabled>TRUE</enabled>
					<anamorphic>FALSE</anamorphic>
					<alphatype>none</alphatype>
					<masterclipid>GOPR0114.MP4 1</masterclipid>
					<logginginfo>
						<scene/>
						<shottake/>
						<lognote/>
						<good>FALSE</good>
					</logginginfo>
					<labels>
						<label2/>
					</labels>
					<comments>
						<mastercomment1/>
						<mastercomment2/>
						<mastercomment3/>
						<mastercomment4/>
					</comments>
					<file id="GOPR0114 ">
						<name>GOPR0114.MP4</name>
						<pathurl>file://localhost/Volumes/Askepott/Prosjekter/DNPR637010_Kra%CC%8Akeklubben_TEM_011212/Video/MUSIKKVIDEO/Vinter/100GOPRO/GOPR0114.MP4</pathurl>
						<rate>
							<timebase>25</timebase>
						</rate>
						<duration>1098</duration>
						<media>
							<video>
								<duration>1098</duration>
								<samplecharacteristics>
									<width>1920</width>
									<height>1080</height>
								</samplecharacteristics>
							</video>
							<audio>
								<samplecharacteristics>
									<samplerate>48000</samplerate>
									<depth>32</depth>
								</samplecharacteristics>
								<channelcount>2</channelcount>
							</audio>
						</media>
					</file>
					<filter>
						<effect>
							<name>Basic Motion</name>
							<effectid>basic</effectid>
							<effectcategory>motion</effectcategory>
							<effecttype>motion</effecttype>
							<mediatype>video</mediatype>
							<parameter>
								<parameterid>scale</parameterid>
								<name>Scale</name>
								<valuemin>0</valuemin>
								<valuemax>1000</valuemax>
								<value>100</value>
							</parameter>
							<parameter>
								<parameterid>rotation</parameterid>
								<name>Rotation</name>
								<valuemin>-8640</valuemin>
								<valuemax>8640</valuemax>
								<value>0</value>
							</parameter>
							<parameter>
								<parameterid>center</parameterid>
								<name>Center</name>
								<value>
									<horiz>0</horiz>
									<vert>0</vert>
								</value>
							</parameter>
							<parameter>
								<parameterid>centerOffset</parameterid>
								<name>Anchor Point</name>
								<value>
									<horiz>0</horiz>
									<vert>0</vert>
								</value>
							</parameter>
						</effect>
					</filter>
					<filter>
						<enabled>FALSE</enabled>
						<effect>
							<name>Drop Shadow</name>
							<effectid>dropshadow</effectid>
							<effectcategory>motion</effectcategory>
							<effecttype>motion</effecttype>
							<mediatype>video</mediatype>
							<parameter>
								<parameterid>offset</parameterid>
								<name>offset</name>
								<valuemin>-100</valuemin>
								<valuemax>100</valuemax>
								<value>2</value>
							</parameter>
							<parameter>
								<parameterid>angle</parameterid>
								<name>angle</name>
								<valuemin>-720</valuemin>
								<valuemax>720</valuemax>
								<value>135</value>
							</parameter>
							<parameter>
								<parameterid>color</parameterid>
								<name>color</name>
								<value>
									<alpha>0</alpha>
									<red>0</red>
									<green>0</green>
									<blue>0</blue>
								</value>
							</parameter>
							<parameter>
								<parameterid>softness</parameterid>
								<name>softness</name>
								<valuemin>0</valuemin>
								<valuemax>100</valuemax>
								<value>10</value>
							</parameter>
							<parameter>
								<parameterid>opacity</parameterid>
								<name>opacity</name>
								<valuemin>0</valuemin>
								<valuemax>100</valuemax>
								<value>50</value>
							</parameter>
						</effect>
					</filter>
					<filter>
						<enabled>FALSE</enabled>
						<effect>
							<name>Motion Blur</name>
							<effectid>motionblur</effectid>
							<effectcategory>motion</effectcategory>
							<effecttype>motion</effecttype>
							<mediatype>video</mediatype>
							<parameter>
								<parameterid>duration</parameterid>
								<name>% Blur</name>
								<valuemin>0</valuemin>
								<valuemax>1000</valuemax>
								<value>500</value>
							</parameter>
							<parameter>
								<parameterid>samples</parameterid>
								<name>Samples</name>
								<valuemin>1</valuemin>
								<valuemax>16</valuemax>
								<value>4</value>
							</parameter>
						</effect>
					</filter>
					<filter>
						<effect>
							<name>Crop</name>
							<effectid>crop</effectid>
							<effectcategory>motion</effectcategory>
							<effecttype>motion</effecttype>
							<mediatype>video</mediatype>
							<parameter>
								<parameterid>left</parameterid>
								<name>left</name>
								<valuemin>0</valuemin>
								<valuemax>100</valuemax>
								<value>0</value>
							</parameter>
							<parameter>
								<parameterid>right</parameterid>
								<name>right</name>
								<valuemin>0</valuemin>
								<valuemax>100</valuemax>
								<value>0</value>
							</parameter>
							<parameter>
								<parameterid>top</parameterid>
								<name>top</name>
								<valuemin>0</valuemin>
								<valuemax>100</valuemax>
								<value>0</value>
							</parameter>
							<parameter>
								<parameterid>bottom</parameterid>
								<name>bottom</name>
								<valuemin>0</valuemin>
								<valuemax>100</valuemax>
								<value>0</value>
							</parameter>
							<parameter>
								<parameterid>edgefeather</parameterid>
								<name>edgefeather</name>
								<valuemin>0</valuemin>
								<valuemax>100</valuemax>
								<value>0</value>
							</parameter>
						</effect>
					</filter>
					<filter>
						<effect>
							<name>Distort</name>
							<effectid>deformation</effectid>
							<effectcategory>motion</effectcategory>
							<effecttype>motion</effecttype>
							<mediatype>video</mediatype>
							<parameter>
								<parameterid>ulcorner</parameterid>
								<name>Upper Left</name>
								<value>
									<horiz>-0.5</horiz>
									<vert>-0.5</vert>
								</value>
							</parameter>
							<parameter>
								<parameterid>urcorner</parameterid>
								<name>Upper Right</name>
								<value>
									<horiz>0.5</horiz>
									<vert>-0.5</vert>
								</value>
							</parameter>
							<parameter>
								<parameterid>lrcorner</parameterid>
								<name>Lower Right</name>
								<value>
									<horiz>0.5</horiz>
									<vert>0.5</vert>
								</value>
							</parameter>
							<parameter>
								<parameterid>llcorner</parameterid>
								<name>Lower Left</name>
								<value>
									<horiz>-0.5</horiz>
									<vert>0.5</vert>
								</value>
							</parameter>
							<parameter>
								<parameterid>aspect</parameterid>
								<name>Aspect</name>
								<valuemin>-10000</valuemin>
								<valuemax>10000</valuemax>
								<value>0</value>
							</parameter>
						</effect>
					</filter>
					<filter>
						<effect>
							<name>Opacity</name>
							<effectid>opacity</effectid>
							<effectcategory>motion</effectcategory>
							<effecttype>motion</effecttype>
							<mediatype>video</mediatype>
							<parameter>
								<parameterid>opacity</parameterid>
								<name>opacity</name>
								<valuemin>0</valuemin>
								<valuemax>100</valuemax>
								<value>100</value>
							</parameter>
						</effect>
					</filter>
					<sourcetrack>
						<mediatype>video</mediatype>
					</sourcetrack>
					<fielddominance>upper</fielddominance>
					<itemhistory>
						<uuid>B97FA612-58F0-4725-A10D-99729913989D</uuid>
					</itemhistory>
					<filter>
						<effect>
							<name>Time Remap</name>
							<effectid>timeremap</effectid>
							<effectcategory>motion</effectcategory>
							<effecttype>motion</effecttype>
							<mediatype>video</mediatype>
							<parameter>
								<parameterid>variablespeed</parameterid>
								<name>variablespeed</name>
								<valuemin>0</valuemin>
								<valuemax>1</valuemax>
								<value>0</value>
							</parameter>
							<parameter>
								<parameterid>mappedduration</parameterid>
								<name>mappedduration</name>
								<value>
									<timecode>
										<rate>
											<timebase>0</timebase>
										</rate>
										<string>0</string>
										<frame>0</frame>
										<displayformat>NDF</displayformat>
									</timecode>
								</value>
							</parameter>
							<parameter>
								<parameterid>speed</parameterid>
								<name>speed</name>
								<valuemin>-10000</valuemin>
								<valuemax>10000</valuemax>
								<value>80</value>
							</parameter>
							<parameter>
								<parameterid>reverse</parameterid>
								<name>reverse</name>
								<value>FALSE</value>
							</parameter>
							<parameter>
								<parameterid>frameblending</parameterid>
								<name>frameblending</name>
								<value>TRUE</value>
							</parameter>
							<parameter>
								<parameterid>graphdict</parameterid>
								<name>graphdict</name>
								<valuemin>0</valuemin>
								<valuemax>1097</valuemax>
								<keyframe>
									<when>0</when>
									<value>0.0175</value>
									<speedkfstart>TRUE</speedkfstart>
									<speedvirtualkf>TRUE</speedvirtualkf>
									<anchorOffset>0.0175</anchorOffset>
								</keyframe>
								<keyframe>
									<when>1251</when>
									<value>1001</value>
									<speedkfin>TRUE</speedkfin>
									<speedvirtualkf>TRUE</speedvirtualkf>
								</keyframe>
								<keyframe>
									<when>1273</when>
									<value>1018.6</value>
									<speedkfout>TRUE</speedkfout>
									<speedvirtualkf>TRUE</speedvirtualkf>
								</keyframe>
								<keyframe>
									<when>1372</when>
									<value>1098.02</value>
									<speedkfend>TRUE</speedkfend>
									<speedvirtualkf>TRUE</speedvirtualkf>
								</keyframe>
								<interpolation>
									<name>FCPCurve</name>
								</interpolation>
								<value>1001</value>
							</parameter>
						</effect>
					</filter>
				</clipitem>
				<clipitem id="DYR10518_01 ">
					<name>DYR10518_01</name>
					<duration>522</duration>
					<rate>
						<ntsc>FALSE</ntsc>
						<timebase>25</timebase>
					</rate>
					<in>393</in>
					<out>429</out>
					<start>25805</start>
					<end>-1</end>
					<pixelaspectratio>Square</pixelaspectratio>
					<enabled>TRUE</enabled>
					<anamorphic>FALSE</anamorphic>
					<alphatype>none</alphatype>
					<masterclipid>DYR10518_01 1</masterclipid>
					<logginginfo>
						<scene/>
						<shottake/>
						<lognote/>
						<good>FALSE</good>
					</logginginfo>
					<labels>
						<label2/>
					</labels>
					<comments>
						<mastercomment1/>
						<mastercomment2/>
						<mastercomment3/>
						<mastercomment4/>
					</comments>
					<file id="DYR10518_01 2">
						<name>DYR10518_01.mov</name>
						<pathurl>file://localhost/Volumes/Askepott/Prosjekter/DNPR637010_Kra%CC%8Akeklubben_TEM_011212/Video/MUSIKKVIDEO/Vinter/EX-3/DYR10518_01.mov</pathurl>
						<rate>
							<timebase>25</timebase>
						</rate>
						<duration>522</duration>
						<metadata>
							<storage>QuickTime</storage>
							<key>com.sony.bprl.xdcamtransfer.version</key>
							<size>10</size>
							<type>UTF8</type>
							<value>2.12.0.631</value>
						</metadata>
						<metadata>
							<storage>QuickTime</storage>
							<key>org.smpte.mxf.package.material.packageid</key>
							<size>66</size>
							<type>UTF8</type>
							<value>0x060a2b340101010501010d4313000000400bf595375605c808004602022f05f5</value>
						</metadata>
						<metadata>
							<storage>QuickTime</storage>
							<key>com.sony.professionaldisc.nonrealtimemeta.lastupdate</key>
							<size>25</size>
							<type>UTF8</type>
							<value>2011-03-17 15:03:52 +0100</value>
						</metadata>
						<metadata>
							<storage>QuickTime</storage>
							<key>com.sony.bprl.mxf.umid</key>
							<size>64</size>
							<type>UTF8</type>
							<value>060a2b340101010501010d4313000000400bf595375605c808004602022f05f5</value>
						</metadata>
						<metadata>
							<storage>QuickTime</storage>
							<key>com.sony.bprl.mxf.nrtmetadata</key>
							<size>1991</size>
							<type>UTF8</type>
							<value>&lt;?xml version="1.0" encoding="UTF-8"?>&lt;NonRealTimeMeta xmlns="urn:schemas-professionalDisc:nonRealTimeMeta:ver.1.20" xmlns:lib="urn:schemas-professionalDisc:lib:ver.1.20" xmlns:xsi="http://www.w3.org/2001/XMLSchema-instance" lastUpdate="2011-03-17T15:03:52+01:00">&lt;TargetMaterial umidRef="060A2B340101010501010D4313000000400BF595375605C808004602022F05F5">&lt;/TargetMaterial>&lt;Duration value="522">&lt;/Duration>&lt;LtcChangeTable tcFps="25" halfStep="false">&lt;LtcChange frameCount="0" value="23423109" status="increment">&lt;/LtcChange>&lt;LtcChange frameCount="521" value="19033209" status="end">&lt;/LtcChange>&lt;/LtcChangeTable>&lt;CreationDate value="2011-03-17T15:03:30+01:00">&lt;/CreationDate>&lt;TypicalUbit value="0000000017061020">&lt;/TypicalUbit>&lt;BodyUmidBasicChangeTable>&lt;BodyUmidBasicChange frameCount="0" value="060A2B340101010501010D4333000000400BF595375605C808004602022F05F5" status="start">&lt;/BodyUmidBasicChange>&lt;/BodyUmidBasicChangeTable>&lt;BodyUmidWhenChangeTable>&lt;BodyUmidWhenChange frameCount="0" value="049ED304375605A5" status="increment">&lt;/BodyUmidWhenChange>&lt;BodyUmidWhenChange frameCount="521" value="4420D404375605A5" status="end">&lt;/BodyUmidWhenChange>&lt;/BodyUmidWhenChangeTable>&lt;KlvPacketTable>&lt;KlvPacket key="060E2B34010101050301020A02000000" frameCount="0" lengthValue="095F5265635374617274" status="spot">&lt;/KlvPacket>&lt;/KlvPacketTable>&lt;VideoFormat>&lt;VideoRecPort port="DIRECT">&lt;/VideoRecPort>&lt;VideoFrame videoCodec="MPEG2HD35_1920_1080_MP@HL" captureFps="50.00i" recFps="50.00" formatFps="50i">&lt;/VideoFrame>&lt;VideoLayout pixel="1920" numOfVerticalLine="1080" aspectRatio="16:9">&lt;/VideoLayout>&lt;/VideoFormat>&lt;AudioFormat numOfChannel="2">&lt;AudioRecPort port="ANALOG" audioCodec="LPCM16" trackDst="CH1">&lt;/AudioRecPort>&lt;AudioRecPort port="ANALOG" audioCodec="LPCM16" trackDst="CH2">&lt;/AudioRecPort>&lt;/AudioFormat>&lt;Device manufacturer="Sony" modelName="PMW-EX3" serialNo="0401525">&lt;/Device>&lt;Lens modelName="VCL-614B2X">&lt;/Lens>&lt;RecordingMode type="normal" cacheRec="false">&lt;/RecordingMode>&lt;/NonRealTimeMeta>
							</value>
						</metadata>
						<metadata>
							<storage>QuickTime</storage>
							<key>com.apple.proapps.reel</key>
							<size>8</size>
							<type>UTF8</type>
							<value>Untitled</value>
						</metadata>
						<metadata>
							<storage>QuickTime</storage>
							<key>com.apple.proapps.clipID</key>
							<size>64</size>
							<type>UTF8</type>
							<value>060A2B340101010501010D4313000000400BF595375605C808004602022F05F5</value>
						</metadata>
						<metadata>
							<storage>QuickTime</storage>
							<key>com.apple.quicktime.information</key>
							<size>64</size>
							<type>UTF8</type>
							<value>060a2b340101010501010d4313000000400bf595375605c808004602022f05f5</value>
						</metadata>
						<metadata>
							<storage>QuickTime</storage>
							<key>com.apple.proapps.originalFormat</key>
							<size>36</size>
							<type>UTF8</type>
							<value>Apple XDCAM EX 1080i50 (35 Mb/s VBR)</value>
						</metadata>
						<timecode>
							<rate>
								<timebase>25</timebase>
							</rate>
							<string>09:31:42:23</string>
							<frame>857573</frame>
							<displayformat>NDF</displayformat>
							<source>source</source>
							<reel>
								<name>Untitled</name>
							</reel>
						</timecode>
						<media>
							<video>
								<duration>522</duration>
								<samplecharacteristics>
									<width>1920</width>
									<height>1080</height>
								</samplecharacteristics>
							</video>
							<audio>
								<samplecharacteristics>
									<samplerate>48000</samplerate>
									<depth>16</depth>
								</samplecharacteristics>
								<channelcount>1</channelcount>
								<layout>mono</layout>
								<audiochannel>
									<sourcechannel>1</sourcechannel>
									<channellabel>discrete</channellabel>
								</audiochannel>
							</audio>
							<audio>
								<samplecharacteristics>
									<samplerate>48000</samplerate>
									<depth>16</depth>
								</samplecharacteristics>
								<channelcount>1</channelcount>
								<layout>mono</layout>
								<audiochannel>
									<sourcechannel>2</sourcechannel>
									<channellabel>discrete</channellabel>
								</audiochannel>
							</audio>
						</media>
					</file>
					<sourcetrack>
						<mediatype>video</mediatype>
					</sourcetrack>
					<fielddominance>upper</fielddominance>
					<itemhistory>
						<uuid>6E081B51-5E91-49CF-98ED-08B688DC0351</uuid>
					</itemhistory>
				</clipitem>
				<transitionitem>
					<rate>
						<ntsc>FALSE</ntsc>
						<timebase>25</timebase>
					</rate>
					<start>25826</start>
					<end>25841</end>
					<alignment>center</alignment>
					<effect>
						<name>Cross Dissolve</name>
						<effectid>Cross Dissolve</effectid>
						<effectcategory>Dissolve</effectcategory>
						<effecttype>transition</effecttype>
						<mediatype>video</mediatype>
						<wipecode>0</wipecode>
						<wipeaccuracy>100</wipeaccuracy>
						<startratio>0</startratio>
						<endratio>1</endratio>
						<reverse>FALSE</reverse>
					</effect>
				</transitionitem>
				<clipitem id="GoPro-bilde 2 ">
					<name>GoPro-bilde 2</name>
					<duration>318</duration>
					<rate>
						<ntsc>FALSE</ntsc>
						<timebase>25</timebase>
					</rate>
					<in>76</in>
					<out>124</out>
					<start>-1</start>
					<end>-1</end>
					<pixelaspectratio>Square</pixelaspectratio>
					<enabled>TRUE</enabled>
					<anamorphic>FALSE</anamorphic>
					<alphatype>none</alphatype>
					<masterclipid>GoPro-bilde 2 1</masterclipid>
					<logginginfo>
						<scene/>
						<shottake/>
						<lognote/>
						<good>FALSE</good>
					</logginginfo>
					<labels>
						<label2/>
					</labels>
					<comments>
						<mastercomment1/>
						<mastercomment2/>
						<mastercomment3/>
						<mastercomment4/>
					</comments>
					<file id="GoPro-bilde 2 2">
						<name>GoPro-bilde 2.mov</name>
						<pathurl>file://localhost/Volumes/Askepott/Prosjekter/DNPR637010_Kra%CC%8Akeklubben_TEM_011212/Eksport/Vinter%20-%20Musikkvideo/GoPro-bilde%202.mov</pathurl>
						<rate>
							<timebase>25</timebase>
						</rate>
						<duration>318</duration>
						<metadata>
							<storage>QuickTime</storage>
							<key>com.apple.finalcutstudio.media.uuid</key>
							<size>36</size>
							<type>UTF8</type>
							<value>158920D9-1712-41B4-B2FA-4D842CF8F2F2</value>
						</metadata>
						<timecode>
							<rate>
								<timebase>25</timebase>
							</rate>
							<string>00:05:36:21</string>
							<frame>8421</frame>
							<displayformat>NDF</displayformat>
							<source>source</source>
						</timecode>
						<media>
							<video>
								<duration>318</duration>
								<samplecharacteristics>
									<width>1920</width>
									<height>1080</height>
								</samplecharacteristics>
							</video>
						</media>
					</file>
					<filter>
						<enabled>TRUE</enabled>
						<start>-1</start>
						<end>-1</end>
						<effect>
							<name>Twixtor FxPlug</name>
							<effectid>FxPlugWrapper:B3134303_3C75_40AE_B82F_F0A6EAB802E2</effectid>
							<effectclass>FxPlug</effectclass>
							<effecttype>filter</effecttype>
							<mediatype>video</mediatype>
							<parameter>
								<parameterid>input_1</parameterid>
								<name>Display</name>
								<valuelist>
									<valueentry>
										<name>Twixtored Output</name>
										<value>1</value>
									</valueentry>
									<valueentry>
										<name>Source</name>
										<value>2</value>
									</valueentry>
									<valueentry>
										<name>Alt Track Source</name>
										<value>3</value>
									</valueentry>
								</valuelist>
								<value>1</value>
							</parameter>
							<parameter>
								<parameterid>group_2</parameterid>
								<name>Source Control</name>
								<value>Source Control</value>
							</parameter>
							<parameter>
								<parameterid>input_3</parameterid>
								<name>Alt Track Source</name>
							</parameter>
							<parameter>
								<parameterid>input_4</parameterid>
								<name>Mark Segments</name>
								<valuemin>1</valuemin>
								<valuemax>2</valuemax>
								<value>1</value>
							</parameter>
							<parameter>
								<parameterid>group_5</parameterid>
								<name>Track Control</name>
								<value>Track Control</value>
							</parameter>
							<parameter>
								<parameterid>input_6</parameterid>
								<name>Motion Vectors</name>
								<valuelist>
									<valueentry>
										<name>No Motion Vectors</name>
										<value>1</value>
									</valueentry>
									<valueentry>
										<name>Sloppy</name>
										<value>2</value>
									</valueentry>
									<valueentry>
										<name>Medium</name>
										<value>3</value>
									</valueentry>
									<valueentry>
										<name>High</name>
										<value>4</value>
									</valueentry>
									<valueentry>
										<name>Best</name>
										<value>5</value>
									</valueentry>
								</valuelist>
								<value>5</value>
							</parameter>
							<parameter>
								<parameterid>input_7</parameterid>
								<name>Image Prep</name>
								<valuelist>
									<valueentry>
										<name>None</name>
										<value>1</value>
									</valueentry>
									<valueentry>
										<name>Contrast/Edge Enhance</name>
										<value>2</value>
									</valueentry>
								</valuelist>
								<value>1</value>
							</parameter>
							<parameter>
								<parameterid>input_8</parameterid>
								<name>Motion Sensitivity</name>
								<valuemin>0</valuemin>
								<valuemax>100</valuemax>
								<value>80</value>
							</parameter>
							<parameter>
								<parameterid>group_9</parameterid>
								<name>Output Control</name>
								<value>Output Control</value>
							</parameter>
							<parameter>
								<parameterid>input_10</parameterid>
								<name>Time Remap Mode</name>
								<valuelist>
									<valueentry>
										<name>Speed</name>
										<value>1</value>
									</valueentry>
									<valueentry>
										<name>Frame Number</name>
										<value>2</value>
									</valueentry>
								</valuelist>
								<value>1</value>
							</parameter>
							<parameter>
								<parameterid>input_11</parameterid>
								<name>Speed %</name>
								<valuemin>-10000</valuemin>
								<valuemax>10000</valuemax>
								<value>52</value>
							</parameter>
							<parameter>
								<parameterid>input_12</parameterid>
								<name>Frame Num</name>
								<valuemin>0</valuemin>
								<valuemax>30000</valuemax>
								<value>0</value>
							</parameter>
							<parameter>
								<parameterid>input_13</parameterid>
								<name>Frame Interp</name>
								<valuelist>
									<valueentry>
										<name>Nearest</name>
										<value>1</value>
									</valueentry>
									<valueentry>
										<name>Blend</name>
										<value>2</value>
									</valueentry>
									<valueentry>
										<name>Motion Weighted Blend</name>
										<value>3</value>
									</valueentry>
								</valuelist>
								<value>2</value>
							</parameter>
							<parameter>
								<parameterid>input_14</parameterid>
								<name>Smart Blend</name>
								<value>TRUE</value>
							</parameter>
							<parameter>
								<parameterid>input_15</parameterid>
								<name>Motion Blur Compensation</name>
								<valuemin>0</valuemin>
								<valuemax>10</valuemax>
								<value>0</value>
							</parameter>
							<parameter>
								<parameterid>endGroup_9</parameterid>
								<name/>
								<value/>
							</parameter>
							<parameter>
								<parameterid>input_16</parameterid>
								<name>Registered to</name>
								<value>4Hans Ludvig Andreassen</value>
							</parameter>
							<parameter>
								<parameterid>FCP_FilterMix</parameterid>
								<name>Mix</name>
								<valuemin>0</valuemin>
								<valuemax>100</valuemax>
								<value>100</value>
							</parameter>
						</effect>
					</filter>
					<sourcetrack>
						<mediatype>video</mediatype>
					</sourcetrack>
					<fielddominance>upper</fielddominance>
					<itemhistory>
						<uuid>765C65CA-CA17-4C3B-AB03-1B6C155277A3</uuid>
					</itemhistory>
				</clipitem>
				<transitionitem>
					<rate>
						<ntsc>FALSE</ntsc>
						<timebase>25</timebase>
					</rate>
					<start>25859</start>
					<end>25874</end>
					<alignment>center</alignment>
					<effect>
						<name>Cross Dissolve</name>
						<effectid>Cross Dissolve</effectid>
						<effectcategory>Dissolve</effectcategory>
						<effecttype>transition</effecttype>
						<mediatype>video</mediatype>
						<wipecode>0</wipecode>
						<wipeaccuracy>100</wipeaccuracy>
						<startratio>0</startratio>
						<endratio>1</endratio>
						<reverse>FALSE</reverse>
					</effect>
				</transitionitem>
				<clipitem id="DYR10516_01 ">
					<name>DYR10516_01</name>
					<duration>770</duration>
					<rate>
						<ntsc>FALSE</ntsc>
						<timebase>25</timebase>
					</rate>
					<in>488</in>
					<out>551</out>
					<start>-1</start>
					<end>-1</end>
					<pixelaspectratio>Square</pixelaspectratio>
					<enabled>TRUE</enabled>
					<anamorphic>FALSE</anamorphic>
					<alphatype>none</alphatype>
					<masterclipid>DYR10516_01 1</masterclipid>
					<logginginfo>
						<scene/>
						<shottake/>
						<lognote/>
						<good>FALSE</good>
					</logginginfo>
					<labels>
						<label2/>
					</labels>
					<comments>
						<mastercomment1/>
						<mastercomment2/>
						<mastercomment3/>
						<mastercomment4/>
					</comments>
					<file id="DYR10516_01 2">
						<name>DYR10516_01.mov</name>
						<pathurl>file://localhost/Volumes/Askepott/Prosjekter/DNPR637010_Kra%CC%8Akeklubben_TEM_011212/Video/MUSIKKVIDEO/Vinter/EX-3/DYR10516_01.mov</pathurl>
						<rate>
							<timebase>25</timebase>
						</rate>
						<duration>770</duration>
						<metadata>
							<storage>QuickTime</storage>
							<key>com.sony.bprl.xdcamtransfer.version</key>
							<size>10</size>
							<type>UTF8</type>
							<value>2.12.0.631</value>
						</metadata>
						<metadata>
							<storage>QuickTime</storage>
							<key>org.smpte.mxf.package.material.packageid</key>
							<size>66</size>
							<type>UTF8</type>
							<value>0x060a2b340101010501010d431300000063e2b894375605df08004602022f05f5</value>
						</metadata>
						<metadata>
							<storage>QuickTime</storage>
							<key>com.sony.professionaldisc.nonrealtimemeta.lastupdate</key>
							<size>25</size>
							<type>UTF8</type>
							<value>2011-03-17 14:57:05 +0100</value>
						</metadata>
						<metadata>
							<storage>QuickTime</storage>
							<key>com.sony.bprl.mxf.umid</key>
							<size>64</size>
							<type>UTF8</type>
							<value>060a2b340101010501010d431300000063e2b894375605df08004602022f05f5</value>
						</metadata>
						<metadata>
							<storage>QuickTime</storage>
							<key>com.sony.bprl.mxf.nrtmetadata</key>
							<size>1991</size>
							<type>UTF8</type>
							<value>&lt;?xml version="1.0" encoding="UTF-8"?>&lt;NonRealTimeMeta xmlns="urn:schemas-professionalDisc:nonRealTimeMeta:ver.1.20" xmlns:lib="urn:schemas-professionalDisc:lib:ver.1.20" xmlns:xsi="http://www.w3.org/2001/XMLSchema-instance" lastUpdate="2011-03-17T14:57:05+01:00">&lt;TargetMaterial umidRef="060A2B340101010501010D431300000063E2B894375605DF08004602022F05F5">&lt;/TargetMaterial>&lt;Duration value="770">&lt;/Duration>&lt;LtcChangeTable tcFps="25" halfStep="false">&lt;LtcChange frameCount="0" value="01463009" status="increment">&lt;/LtcChange>&lt;LtcChange frameCount="769" value="20163109" status="end">&lt;/LtcChange>&lt;/LtcChangeTable>&lt;CreationDate value="2011-03-17T14:56:33+01:00">&lt;/CreationDate>&lt;TypicalUbit value="0000000017061020">&lt;/TypicalUbit>&lt;BodyUmidBasicChangeTable>&lt;BodyUmidBasicChange frameCount="0" value="060A2B340101010501010D433300000063E2B894375605DF08004602022F05F5" status="start">&lt;/BodyUmidBasicChange>&lt;/BodyUmidBasicChangeTable>&lt;BodyUmidWhenChangeTable>&lt;BodyUmidWhenChange frameCount="0" value="0471C904375605A5" status="increment">&lt;/BodyUmidWhenChange>&lt;BodyUmidWhenChange frameCount="769" value="4431CA04375605A5" status="end">&lt;/BodyUmidWhenChange>&lt;/BodyUmidWhenChangeTable>&lt;KlvPacketTable>&lt;KlvPacket key="060E2B34010101050301020A02000000" frameCount="0" lengthValue="095F5265635374617274" status="spot">&lt;/KlvPacket>&lt;/KlvPacketTable>&lt;VideoFormat>&lt;VideoRecPort port="DIRECT">&lt;/VideoRecPort>&lt;VideoFrame videoCodec="MPEG2HD35_1920_1080_MP@HL" captureFps="50.00i" recFps="50.00" formatFps="50i">&lt;/VideoFrame>&lt;VideoLayout pixel="1920" numOfVerticalLine="1080" aspectRatio="16:9">&lt;/VideoLayout>&lt;/VideoFormat>&lt;AudioFormat numOfChannel="2">&lt;AudioRecPort port="ANALOG" audioCodec="LPCM16" trackDst="CH1">&lt;/AudioRecPort>&lt;AudioRecPort port="ANALOG" audioCodec="LPCM16" trackDst="CH2">&lt;/AudioRecPort>&lt;/AudioFormat>&lt;Device manufacturer="Sony" modelName="PMW-EX3" serialNo="0401525">&lt;/Device>&lt;Lens modelName="VCL-614B2X">&lt;/Lens>&lt;RecordingMode type="normal" cacheRec="false">&lt;/RecordingMode>&lt;/NonRealTimeMeta>
							</value>
						</metadata>
						<metadata>
							<storage>QuickTime</storage>
							<key>com.apple.proapps.reel</key>
							<size>8</size>
							<type>UTF8</type>
							<value>Untitled</value>
						</metadata>
						<metadata>
							<storage>QuickTime</storage>
							<key>com.apple.proapps.clipID</key>
							<size>64</size>
							<type>UTF8</type>
							<value>060A2B340101010501010D431300000063E2B894375605DF08004602022F05F5</value>
						</metadata>
						<metadata>
							<storage>QuickTime</storage>
							<key>com.apple.quicktime.information</key>
							<size>64</size>
							<type>UTF8</type>
							<value>060a2b340101010501010d431300000063e2b894375605df08004602022f05f5</value>
						</metadata>
						<metadata>
							<storage>QuickTime</storage>
							<key>com.apple.proapps.originalFormat</key>
							<size>36</size>
							<type>UTF8</type>
							<value>Apple XDCAM EX 1080i50 (35 Mb/s VBR)</value>
						</metadata>
						<timecode>
							<rate>
								<timebase>25</timebase>
							</rate>
							<string>09:30:46:01</string>
							<frame>856151</frame>
							<displayformat>NDF</displayformat>
							<source>source</source>
							<reel>
								<name>Untitled</name>
							</reel>
						</timecode>
						<media>
							<video>
								<duration>770</duration>
								<samplecharacteristics>
									<width>1920</width>
									<height>1080</height>
								</samplecharacteristics>
							</video>
							<audio>
								<samplecharacteristics>
									<samplerate>48000</samplerate>
									<depth>16</depth>
								</samplecharacteristics>
								<channelcount>1</channelcount>
								<layout>mono</layout>
								<audiochannel>
									<sourcechannel>1</sourcechannel>
									<channellabel>discrete</channellabel>
								</audiochannel>
							</audio>
							<audio>
								<samplecharacteristics>
									<samplerate>48000</samplerate>
									<depth>16</depth>
								</samplecharacteristics>
								<channelcount>1</channelcount>
								<layout>mono</layout>
								<audiochannel>
									<sourcechannel>2</sourcechannel>
									<channellabel>discrete</channellabel>
								</audiochannel>
							</audio>
						</media>
					</file>
					<sourcetrack>
						<mediatype>video</mediatype>
					</sourcetrack>
					<fielddominance>upper</fielddominance>
					<itemhistory>
						<uuid>618BB2D0-F0A7-4835-AE4F-912EE86735B9</uuid>
					</itemhistory>
				</clipitem>
				<transitionitem>
					<rate>
						<ntsc>FALSE</ntsc>
						<timebase>25</timebase>
					</rate>
					<start>25897</start>
					<end>25922</end>
					<alignment>center</alignment>
					<effect>
						<name>Cross Dissolve</name>
						<effectid>Cross Dissolve</effectid>
						<effectcategory>Dissolve</effectcategory>
						<effecttype>transition</effecttype>
						<mediatype>video</mediatype>
						<wipecode>0</wipecode>
						<wipeaccuracy>100</wipeaccuracy>
						<startratio>0</startratio>
						<endratio>1</endratio>
						<reverse>FALSE</reverse>
					</effect>
				</transitionitem>
				<clipitem id="DYR10516_01 3">
					<name>DYR10516_01</name>
					<duration>770</duration>
					<rate>
						<ntsc>FALSE</ntsc>
						<timebase>25</timebase>
					</rate>
					<in>422</in>
					<out>464</out>
					<start>-1</start>
					<end>-1</end>
					<pixelaspectratio>Square</pixelaspectratio>
					<enabled>TRUE</enabled>
					<anamorphic>FALSE</anamorphic>
					<alphatype>none</alphatype>
					<masterclipid>DYR10516_01 1</masterclipid>
					<logginginfo>
						<scene/>
						<shottake/>
						<lognote/>
						<good>FALSE</good>
					</logginginfo>
					<labels>
						<label2/>
					</labels>
					<comments>
						<mastercomment1/>
						<mastercomment2/>
						<mastercomment3/>
						<mastercomment4/>
					</comments>
					<file id="DYR10516_01 2"/>
					<sourcetrack>
						<mediatype>video</mediatype>
					</sourcetrack>
					<fielddominance>upper</fielddominance>
					<itemhistory>
						<uuid>08F62543-CB0E-40C0-A4C6-A179F6BEFF10</uuid>
					</itemhistory>
				</clipitem>
				<transitionitem>
					<rate>
						<ntsc>FALSE</ntsc>
						<timebase>25</timebase>
					</rate>
					<start>25924</start>
					<end>25939</end>
					<alignment>center</alignment>
					<effect>
						<name>Cross Dissolve</name>
						<effectid>Cross Dissolve</effectid>
						<effectcategory>Dissolve</effectcategory>
						<effecttype>transition</effecttype>
						<mediatype>video</mediatype>
						<wipecode>0</wipecode>
						<wipeaccuracy>100</wipeaccuracy>
						<startratio>0</startratio>
						<endratio>1</endratio>
						<reverse>FALSE</reverse>
					</effect>
				</transitionitem>
				<clipitem id="DYR10516_01 4">
					<name>DYR10516_01</name>
					<duration>770</duration>
					<rate>
						<ntsc>FALSE</ntsc>
						<timebase>25</timebase>
					</rate>
					<in>637</in>
					<out>692</out>
					<start>-1</start>
					<end>-1</end>
					<pixelaspectratio>Square</pixelaspectratio>
					<enabled>TRUE</enabled>
					<anamorphic>FALSE</anamorphic>
					<alphatype>none</alphatype>
					<masterclipid>DYR10516_01 1</masterclipid>
					<logginginfo>
						<scene/>
						<shottake/>
						<lognote/>
						<good>FALSE</good>
					</logginginfo>
					<labels>
						<label2/>
					</labels>
					<comments>
						<mastercomment1/>
						<mastercomment2/>
						<mastercomment3/>
						<mastercomment4/>
					</comments>
					<file id="DYR10516_01 2"/>
					<sourcetrack>
						<mediatype>video</mediatype>
					</sourcetrack>
					<fielddominance>upper</fielddominance>
					<itemhistory>
						<uuid>5652C9AB-6374-4A47-AB26-C2D765BA3B0E</uuid>
					</itemhistory>
				</clipitem>
				<transitionitem>
					<rate>
						<ntsc>FALSE</ntsc>
						<timebase>25</timebase>
					</rate>
					<start>25955</start>
					<end>25979</end>
					<alignment>center</alignment>
					<effect>
						<name>Cross Dissolve</name>
						<effectid>Cross Dissolve</effectid>
						<effectcategory>Dissolve</effectcategory>
						<effecttype>transition</effecttype>
						<mediatype>video</mediatype>
						<wipecode>0</wipecode>
						<wipeaccuracy>100</wipeaccuracy>
						<startratio>0</startratio>
						<endratio>1</endratio>
						<reverse>FALSE</reverse>
					</effect>
				</transitionitem>
				<clipitem id="Dryssende sno4">
					<name>Dryssende sno</name>
					<duration>117</duration>
					<rate>
						<ntsc>FALSE</ntsc>
						<timebase>25</timebase>
					</rate>
					<in>39</in>
					<out>83</out>
					<start>-1</start>
					<end>-1</end>
					<pixelaspectratio>Square</pixelaspectratio>
					<enabled>TRUE</enabled>
					<anamorphic>FALSE</anamorphic>
					<alphatype>none</alphatype>
					<masterclipid>Dryssende sno1</masterclipid>
					<logginginfo>
						<scene/>
						<shottake/>
						<lognote/>
						<good>FALSE</good>
					</logginginfo>
					<labels>
						<label2/>
					</labels>
					<comments>
						<mastercomment1/>
						<mastercomment2/>
						<mastercomment3/>
						<mastercomment4/>
					</comments>
					<file id="Dryssende sno2"/>
					<sourcetrack>
						<mediatype>video</mediatype>
					</sourcetrack>
					<fielddominance>upper</fielddominance>
					<itemhistory>
						<uuid>D1295AF0-6C69-45E0-81B3-8D38CA0F0AF4</uuid>
					</itemhistory>
				</clipitem>
				<transitionitem>
					<rate>
						<ntsc>FALSE</ntsc>
						<timebase>25</timebase>
					</rate>
					<start>25982</start>
					<end>25999</end>
					<alignment>center</alignment>
					<effect>
						<name>Cross Dissolve</name>
						<effectid>Cross Dissolve</effectid>
						<effectcategory>Dissolve</effectcategory>
						<effecttype>transition</effecttype>
						<mediatype>video</mediatype>
						<wipecode>0</wipecode>
						<wipeaccuracy>100</wipeaccuracy>
						<startratio>0</startratio>
						<endratio>1</endratio>
						<reverse>FALSE</reverse>
					</effect>
				</transitionitem>
				<clipitem id="DYR10575_01 3">
					<name>DYR10575_01</name>
					<duration>1518</duration>
					<rate>
						<ntsc>FALSE</ntsc>
						<timebase>25</timebase>
					</rate>
					<in>1162</in>
					<out>1284</out>
					<start>-1</start>
					<end>-1</end>
					<pixelaspectratio>Square</pixelaspectratio>
					<enabled>TRUE</enabled>
					<anamorphic>FALSE</anamorphic>
					<alphatype>none</alphatype>
					<masterclipid>DYR10575_01 1</masterclipid>
					<logginginfo>
						<scene/>
						<shottake/>
						<lognote/>
						<good>FALSE</good>
					</logginginfo>
					<labels>
						<label2/>
					</labels>
					<comments>
						<mastercomment1/>
						<mastercomment2/>
						<mastercomment3/>
						<mastercomment4/>
					</comments>
					<file id="DYR10575_01 2"/>
					<sourcetrack>
						<mediatype>video</mediatype>
					</sourcetrack>
					<link>
						<linkclipref>DYR10575_01 3</linkclipref>
						<mediatype>video</mediatype>
						<trackindex>1</trackindex>
						<clipindex>329</clipindex>
					</link>
					<fielddominance>upper</fielddominance>
					<itemhistory>
						<uuid>99A5D6E5-0FBD-4078-AF25-7F0620DD12D5</uuid>
					</itemhistory>
				</clipitem>
				<transitionitem>
					<rate>
						<ntsc>FALSE</ntsc>
						<timebase>25</timebase>
					</rate>
					<start>26079</start>
					<end>26104</end>
					<alignment>center</alignment>
					<effect>
						<name>Cross Dissolve</name>
						<effectid>Cross Dissolve</effectid>
						<effectcategory>Dissolve</effectcategory>
						<effecttype>transition</effecttype>
						<mediatype>video</mediatype>
						<wipecode>0</wipecode>
						<wipeaccuracy>100</wipeaccuracy>
						<startratio>0</startratio>
						<endratio>1</endratio>
						<reverse>FALSE</reverse>
					</effect>
				</transitionitem>
				<clipitem id="DYR10479_01 ">
					<name>DYR10479_01</name>
					<duration>1306</duration>
					<rate>
						<ntsc>FALSE</ntsc>
						<timebase>25</timebase>
					</rate>
					<in>1007</in>
					<out>1187</out>
					<start>-1</start>
					<end>-1</end>
					<pixelaspectratio>Square</pixelaspectratio>
					<enabled>TRUE</enabled>
					<anamorphic>FALSE</anamorphic>
					<alphatype>none</alphatype>
					<masterclipid>DYR10479_01 1</masterclipid>
					<logginginfo>
						<scene/>
						<shottake/>
						<lognote/>
						<good>FALSE</good>
					</logginginfo>
					<labels>
						<label2/>
					</labels>
					<comments>
						<mastercomment1/>
						<mastercomment2/>
						<mastercomment3/>
						<mastercomment4/>
					</comments>
					<file id="DYR10479_01 2">
						<name>DYR10479_01.mov</name>
						<pathurl>file://localhost/Volumes/Askepott/Prosjekter/DNPR637010_Kra%CC%8Akeklubben_TEM_011212/Video/MUSIKKVIDEO/Vinter/EX-3/DYR10479_01.mov</pathurl>
						<rate>
							<timebase>25</timebase>
						</rate>
						<duration>1306</duration>
						<metadata>
							<storage>QuickTime</storage>
							<key>com.sony.bprl.xdcamtransfer.version</key>
							<size>10</size>
							<type>UTF8</type>
							<value>2.12.0.631</value>
						</metadata>
						<metadata>
							<storage>QuickTime</storage>
							<key>org.smpte.mxf.package.material.packageid</key>
							<size>66</size>
							<type>UTF8</type>
							<value>0x060a2b340101010501010d431300000050631586375605d508004602022f05f5</value>
						</metadata>
						<metadata>
							<storage>QuickTime</storage>
							<key>com.sony.professionaldisc.nonrealtimemeta.lastupdate</key>
							<size>25</size>
							<type>UTF8</type>
							<value>2011-03-17 13:35:06 +0100</value>
						</metadata>
						<metadata>
							<storage>QuickTime</storage>
							<key>com.sony.bprl.mxf.umid</key>
							<size>64</size>
							<type>UTF8</type>
							<value>060a2b340101010501010d431300000050631586375605d508004602022f05f5</value>
						</metadata>
						<metadata>
							<storage>QuickTime</storage>
							<key>com.sony.bprl.mxf.nrtmetadata</key>
							<size>1994</size>
							<type>UTF8</type>
							<value>&lt;?xml version="1.0" encoding="UTF-8"?>&lt;NonRealTimeMeta xmlns="urn:schemas-professionalDisc:nonRealTimeMeta:ver.1.20" xmlns:lib="urn:schemas-professionalDisc:lib:ver.1.20" xmlns:xsi="http://www.w3.org/2001/XMLSchema-instance" lastUpdate="2011-03-17T13:35:06+01:00">&lt;TargetMaterial umidRef="060A2B340101010501010D431300000050631586375605D508004602022F05F5">&lt;/TargetMaterial>&lt;Duration value="1306">&lt;/Duration>&lt;LtcChangeTable tcFps="25" halfStep="false">&lt;LtcChange frameCount="0" value="05232309" status="increment">&lt;/LtcChange>&lt;LtcChange frameCount="1305" value="10152409" status="end">&lt;/LtcChange>&lt;/LtcChangeTable>&lt;CreationDate value="2011-03-17T13:34:13+01:00">&lt;/CreationDate>&lt;TypicalUbit value="0000000017061020">&lt;/TypicalUbit>&lt;BodyUmidBasicChangeTable>&lt;BodyUmidBasicChange frameCount="0" value="060A2B340101010501010D433300000050631586375605D508004602022F05F5" status="start">&lt;/BodyUmidBasicChange>&lt;/BodyUmidBasicChangeTable>&lt;BodyUmidWhenChangeTable>&lt;BodyUmidWhenChange frameCount="0" value="C4D25004375605A5" status="increment">&lt;/BodyUmidWhenChange>&lt;BodyUmidWhenChange frameCount="1305" value="04195204375605A5" status="end">&lt;/BodyUmidWhenChange>&lt;/BodyUmidWhenChangeTable>&lt;KlvPacketTable>&lt;KlvPacket key="060E2B34010101050301020A02000000" frameCount="0" lengthValue="095F5265635374617274" status="spot">&lt;/KlvPacket>&lt;/KlvPacketTable>&lt;VideoFormat>&lt;VideoRecPort port="DIRECT">&lt;/VideoRecPort>&lt;VideoFrame videoCodec="MPEG2HD35_1920_1080_MP@HL" captureFps="50.00i" recFps="50.00" formatFps="50i">&lt;/VideoFrame>&lt;VideoLayout pixel="1920" numOfVerticalLine="1080" aspectRatio="16:9">&lt;/VideoLayout>&lt;/VideoFormat>&lt;AudioFormat numOfChannel="2">&lt;AudioRecPort port="ANALOG" audioCodec="LPCM16" trackDst="CH1">&lt;/AudioRecPort>&lt;AudioRecPort port="ANALOG" audioCodec="LPCM16" trackDst="CH2">&lt;/AudioRecPort>&lt;/AudioFormat>&lt;Device manufacturer="Sony" modelName="PMW-EX3" serialNo="0401525">&lt;/Device>&lt;Lens modelName="VCL-614B2X">&lt;/Lens>&lt;RecordingMode type="normal" cacheRec="false">&lt;/RecordingMode>&lt;/NonRealTimeMeta>
							</value>
						</metadata>
						<metadata>
							<storage>QuickTime</storage>
							<key>com.apple.proapps.reel</key>
							<size>8</size>
							<type>UTF8</type>
							<value>Untitled</value>
						</metadata>
						<metadata>
							<storage>QuickTime</storage>
							<key>com.apple.proapps.clipID</key>
							<size>64</size>
							<type>UTF8</type>
							<value>060A2B340101010501010D431300000050631586375605D508004602022F05F5</value>
						</metadata>
						<metadata>
							<storage>QuickTime</storage>
							<key>com.apple.quicktime.information</key>
							<size>64</size>
							<type>UTF8</type>
							<value>060a2b340101010501010d431300000050631586375605d508004602022f05f5</value>
						</metadata>
						<metadata>
							<storage>QuickTime</storage>
							<key>com.apple.proapps.originalFormat</key>
							<size>36</size>
							<type>UTF8</type>
							<value>Apple XDCAM EX 1080i50 (35 Mb/s VBR)</value>
						</metadata>
						<timecode>
							<rate>
								<timebase>25</timebase>
							</rate>
							<string>09:23:23:05</string>
							<frame>845080</frame>
							<displayformat>NDF</displayformat>
							<source>source</source>
							<reel>
								<name>Untitled</name>
							</reel>
						</timecode>
						<media>
							<video>
								<duration>1306</duration>
								<samplecharacteristics>
									<width>1920</width>
									<height>1080</height>
								</samplecharacteristics>
							</video>
							<audio>
								<samplecharacteristics>
									<samplerate>48000</samplerate>
									<depth>16</depth>
								</samplecharacteristics>
								<channelcount>1</channelcount>
								<layout>mono</layout>
								<audiochannel>
									<sourcechannel>1</sourcechannel>
									<channellabel>discrete</channellabel>
								</audiochannel>
							</audio>
							<audio>
								<samplecharacteristics>
									<samplerate>48000</samplerate>
									<depth>16</depth>
								</samplecharacteristics>
								<channelcount>1</channelcount>
								<layout>mono</layout>
								<audiochannel>
									<sourcechannel>2</sourcechannel>
									<channellabel>discrete</channellabel>
								</audiochannel>
							</audio>
						</media>
					</file>
					<sourcetrack>
						<mediatype>video</mediatype>
					</sourcetrack>
					<link>
						<linkclipref>DYR10479_01 </linkclipref>
						<mediatype>video</mediatype>
						<trackindex>1</trackindex>
						<clipindex>331</clipindex>
					</link>
					<fielddominance>upper</fielddominance>
					<itemhistory>
						<uuid>EEBD6BD3-C2D2-4CD7-AE5F-A06852A8BD2F</uuid>
					</itemhistory>
				</clipitem>
				<transitionitem>
					<rate>
						<ntsc>FALSE</ntsc>
						<timebase>25</timebase>
					</rate>
					<start>26234</start>
					<end>26259</end>
					<alignment>center</alignment>
					<effect>
						<name>G Lens Flare Musikkvideo</name>
						<effectcategory>Nattress Big Box Of Tricks</effectcategory>
						<effecttype>transition</effecttype>
						<mediatype>video</mediatype>
						<startratio>0</startratio>
						<endratio>1</endratio>
						<reverse>FALSE</reverse>
						<parameter>
							<parameterid>dispvar1</parameterid>
							<name>Display Settings</name>
							<value>string</value>
						</parameter>
						<parameter>
							<parameterid>inputvar1</parameterid>
							<name>Flare Position</name>
							<value>string</value>
						</parameter>
						<parameter>
							<parameterid>theangle</parameterid>
							<name>Transition Direction</name>
							<valuemin>-360</valuemin>
							<valuemax>360</valuemax>
							<value>270</value>
						</parameter>
						<parameter>
							<parameterid>transitionblendduration</parameterid>
							<name>Blend Duration</name>
							<valuemin>0</valuemin>
							<valuemax>100</valuemax>
							<value>50</value>
						</parameter>
						<parameter>
							<parameterid>settingsvar1</parameterid>
							<name>Flare Settings</name>
							<value>string</value>
						</parameter>
						<parameter>
							<parameterid>presets</parameterid>
							<name>Preset Select</name>
							<valuemin>1</valuemin>
							<valuemax>4</valuemax>
							<valuelist>
								<valueentry>
									<name>Custom Controls</name>
									<value>1</value>
								</valueentry>
								<valueentry>
									<name>Other End of the Rainbow</name>
									<value>2</value>
								</valueentry>
								<valueentry>
									<name>Photon</name>
									<value>3</value>
								</valueentry>
								<valueentry>
									<name>Gaudy</name>
									<value>4</value>
								</valueentry>
							</valuelist>
							<value>2</value>
						</parameter>
						<parameter>
							<parameterid>randomevolution</parameterid>
							<name>Randomness Evolution</name>
							<valuemin>0</valuemin>
							<valuemax>1</valuemax>
							<value>0.05</value>
						</parameter>
						<parameter>
							<parameterid>flareaspect</parameterid>
							<name>Aspect</name>
							<valuemin>0.1</valuemin>
							<valuemax>10</valuemax>
							<value>1</value>
						</parameter>
						<parameter>
							<parameterid>flareintensity</parameterid>
							<name>Overall Intensity</name>
							<valuemin>0</valuemin>
							<valuemax>400</valuemax>
							<value>300</value>
						</parameter>
						<parameter>
							<parameterid>therandomseed</parameterid>
							<name>Random Seed</name>
							<valuemin>0</valuemin>
							<valuemax>100</valuemax>
							<value>100</value>
						</parameter>
						<parameter>
							<parameterid>settingsvar2</parameterid>
							<name>   Bloom</name>
							<value>string</value>
						</parameter>
						<parameter>
							<parameterid>bloomon</parameterid>
							<name>Bloom On?</name>
							<value>TRUE</value>
						</parameter>
						<parameter>
							<parameterid>bloomcolour</parameterid>
							<name>Bloom Colour</name>
							<value>
								<alpha>255</alpha>
								<red>218</red>
								<green>224</green>
								<blue>254</blue>
							</value>
						</parameter>
						<parameter>
							<parameterid>bloomcolourfromimage</parameterid>
							<name>Use Image for Bloom Colour?</name>
							<value>FALSE</value>
						</parameter>
						<parameter>
							<parameterid>bloomintensity</parameterid>
							<name>Intensity</name>
							<valuemin>0</valuemin>
							<valuemax>100</valuemax>
							<value>90</value>
						</parameter>
						<parameter>
							<parameterid>bloomradius</parameterid>
							<name>Radius</name>
							<valuemin>0</valuemin>
							<valuemax>200</valuemax>
							<value>45</value>
						</parameter>
						<parameter>
							<parameterid>bloomfalloff</parameterid>
							<name>Fall Off</name>
							<valuemin>0</valuemin>
							<valuemax>100</valuemax>
							<value>75</value>
						</parameter>
						<parameter>
							<parameterid>bloomstarry</parameterid>
							<name>Starry</name>
							<valuemin>0</valuemin>
							<valuemax>100</valuemax>
							<value>10</value>
						</parameter>
						<parameter>
							<parameterid>bloomstarpoints</parameterid>
							<name>Star Points</name>
							<valuemin>0</valuemin>
							<valuemax>100</valuemax>
							<value>7</value>
						</parameter>
						<parameter>
							<parameterid>settingsvar3</parameterid>
							<name>   StarBurst</name>
							<value>string</value>
						</parameter>
						<parameter>
							<parameterid>starburston</parameterid>
							<name>StarBurst On?</name>
							<value>TRUE</value>
						</parameter>
						<parameter>
							<parameterid>starburstcolour</parameterid>
							<name>StarBurst Colour</name>
							<value>
								<alpha>255</alpha>
								<red>254</red>
								<green>224</green>
								<blue>218</blue>
							</value>
						</parameter>
						<parameter>
							<parameterid>starburstintensity</parameterid>
							<name>Intensity</name>
							<valuemin>0</valuemin>
							<valuemax>100</valuemax>
							<value>75</value>
						</parameter>
						<parameter>
							<parameterid>starburstradius</parameterid>
							<name>Radius</name>
							<valuemin>0</valuemin>
							<valuemax>150</valuemax>
							<value>75</value>
						</parameter>
						<parameter>
							<parameterid>starburststarpoints</parameterid>
							<name>Star Points</name>
							<valuemin>0</valuemin>
							<valuemax>200</valuemax>
							<value>90</value>
						</parameter>
						<parameter>
							<parameterid>starcentre</parameterid>
							<name>Centre Size</name>
							<valuemin>0</valuemin>
							<valuemax>100</valuemax>
							<value>75</value>
						</parameter>
						<parameter>
							<parameterid>starfalloff</parameterid>
							<name>Fall Off</name>
							<valuemin>0</valuemin>
							<valuemax>100</valuemax>
							<value>75</value>
						</parameter>
						<parameter>
							<parameterid>starburstrandom</parameterid>
							<name>Randomness</name>
							<valuemin>0</valuemin>
							<valuemax>4</valuemax>
							<value>0.4</value>
						</parameter>
						<parameter>
							<parameterid>settingsvar4</parameterid>
							<name>   Rainbow</name>
							<value>string</value>
						</parameter>
						<parameter>
							<parameterid>rainbowon</parameterid>
							<name>Rainbow On?</name>
							<value>TRUE</value>
						</parameter>
						<parameter>
							<parameterid>rainbowcolors</parameterid>
							<name>Colour Type</name>
							<valuemin>1</valuemin>
							<valuemax>2</valuemax>
							<valuelist>
								<valueentry>
									<name>Rainbow</name>
									<value>1</value>
								</valueentry>
								<valueentry>
									<name>User Colour</name>
									<value>2</value>
								</valueentry>
							</valuelist>
							<value>1</value>
						</parameter>
						<parameter>
							<parameterid>rainbowusercolor</parameterid>
							<name>User Colour</name>
							<value>
								<alpha>255</alpha>
								<red>230</red>
								<green>110</green>
								<blue>22</blue>
							</value>
						</parameter>
						<parameter>
							<parameterid>rainbowposition</parameterid>
							<name>Position</name>
							<valuemin>-200</valuemin>
							<valuemax>200</valuemax>
							<value>100</value>
						</parameter>
						<parameter>
							<parameterid>rainbowintensity</parameterid>
							<name>Intensity</name>
							<valuemin>0</valuemin>
							<valuemax>100</valuemax>
							<value>20</value>
						</parameter>
						<parameter>
							<parameterid>rainbowradius</parameterid>
							<name>Radius</name>
							<valuemin>0</valuemin>
							<valuemax>200</valuemax>
							<value>50</value>
						</parameter>
						<parameter>
							<parameterid>rainbowthickness</parameterid>
							<name>Thickness</name>
							<valuemin>0</valuemin>
							<valuemax>1</valuemax>
							<value>0.15</value>
						</parameter>
						<parameter>
							<parameterid>rainbowsharpness</parameterid>
							<name>Sharpness</name>
							<valuemin>0</valuemin>
							<valuemax>1</valuemax>
							<value>0.65</value>
						</parameter>
						<parameter>
							<parameterid>settingsvar5</parameterid>
							<name>   Spots</name>
							<value>string</value>
						</parameter>
						<parameter>
							<parameterid>spotson</parameterid>
							<name>Spots On?</name>
							<value>TRUE</value>
						</parameter>
						<parameter>
							<parameterid>spotsnumber</parameterid>
							<name>Number</name>
							<valuemin>0</valuemin>
							<valuemax>100</valuemax>
							<value>12</value>
						</parameter>
						<parameter>
							<parameterid>spotsintensity</parameterid>
							<name>Intensity</name>
							<valuemin>0</valuemin>
							<valuemax>100</valuemax>
							<value>80</value>
						</parameter>
						<parameter>
							<parameterid>spotsradius</parameterid>
							<name>Radius</name>
							<valuemin>0</valuemin>
							<valuemax>150</valuemax>
							<value>30</value>
						</parameter>
						<parameter>
							<parameterid>spotsdisky</parameterid>
							<name>Disky</name>
							<valuemin>0</valuemin>
							<valuemax>100</valuemax>
							<value>75</value>
						</parameter>
						<parameter>
							<parameterid>spotsringy</parameterid>
							<name>Ringy</name>
							<valuemin>0</valuemin>
							<valuemax>100</valuemax>
							<value>75</value>
						</parameter>
						<parameter>
							<parameterid>spotsblotty</parameterid>
							<name>Blotty</name>
							<valuemin>0</valuemin>
							<valuemax>100</valuemax>
							<value>75</value>
						</parameter>
						<parameter>
							<parameterid>spotsbloony</parameterid>
							<name>Bloony</name>
							<valuemin>0</valuemin>
							<valuemax>100</valuemax>
							<value>75</value>
						</parameter>
						<parameter>
							<parameterid>spotsvarycolour</parameterid>
							<name>Vary Colour</name>
							<valuemin>0</valuemin>
							<valuemax>100</valuemax>
							<value>31</value>
						</parameter>
						<parameter>
							<parameterid>spotsbasehue</parameterid>
							<name>Base Hue</name>
							<valuemin>0</valuemin>
							<valuemax>100</valuemax>
							<value>72</value>
						</parameter>
						<parameter>
							<parameterid>spotssaturation</parameterid>
							<name>Saturation</name>
							<valuemin>0</valuemin>
							<valuemax>100</valuemax>
							<value>20</value>
						</parameter>
						<parameter>
							<parameterid>copyright</parameterid>
							<name>©www.nattress.com</name>
							<value>string</value>
						</parameter>
					</effect>
				</transitionitem>
				<clipitem id="AA1471_01 ">
					<name>AA1471_01</name>
					<duration>1032</duration>
					<rate>
						<ntsc>FALSE</ntsc>
						<timebase>25</timebase>
					</rate>
					<in>483</in>
					<out>594</out>
					<start>-1</start>
					<end>26345</end>
					<pixelaspectratio>Square</pixelaspectratio>
					<enabled>TRUE</enabled>
					<anamorphic>FALSE</anamorphic>
					<alphatype>none</alphatype>
					<masterclipid>AA1471_01 1</masterclipid>
					<logginginfo>
						<scene/>
						<shottake/>
						<lognote/>
						<good>FALSE</good>
					</logginginfo>
					<labels>
						<label2/>
					</labels>
					<comments>
						<mastercomment1/>
						<mastercomment2/>
						<mastercomment3/>
						<mastercomment4/>
					</comments>
					<file id="AA1471_01 2">
						<name>AA1471_01.mov</name>
						<pathurl>file://localhost/Volumes/Askepott/Prosjekter/DNPR637010_Kra%CC%8Akeklubben_TEM_011212/Video/MELLOMSTIKK/S01E%20Spor%20i%20sn%C3%B8en/Canon%20XF/AA1471_01.mov</pathurl>
						<rate>
							<timebase>25</timebase>
						</rate>
						<duration>1032</duration>
						<metadata>
							<storage>QuickTime</storage>
							<key>com.apple.proapps.originalFormat</key>
							<size>14</size>
							<type>UTF8</type>
							<value>Canon XF MPEG2</value>
						</metadata>
						<metadata>
							<storage>QuickTime</storage>
							<key>com.apple.quicktime.creationdate</key>
							<size>24</size>
							<type>UTF8</type>
							<value>2012-02-22T15:39:47+0100</value>
						</metadata>
						<metadata>
							<storage>QuickTime</storage>
							<key>com.apple.proapps.isGood</key>
							<size>4</size>
							<type>unsigned</type>
							<value>0</value>
						</metadata>
						<metadata>
							<storage>QuickTime</storage>
							<key>com.apple.finalcutstudio.media.uuid</key>
							<size>36</size>
							<type>UTF8</type>
							<value>96592515-58EC-4CC6-B82F-3700A233E2EC</value>
						</metadata>
						<metadata>
							<storage>QuickTime</storage>
							<key>com.apple.proapps.clipID</key>
							<size>36</size>
							<type>UTF8</type>
							<value>0A2845F6-7959-0580-0000-850001E01891</value>
						</metadata>
						<metadata>
							<storage>QuickTime</storage>
							<key>com.apple.proapps.reel</key>
							<size>8</size>
							<type>UTF8</type>
							<value>CANON XF</value>
						</metadata>
						<timecode>
							<rate>
								<timebase>25</timebase>
							</rate>
							<string>01:10:37:11</string>
							<frame>105936</frame>
							<displayformat>NDF</displayformat>
							<source>source</source>
							<reel>
								<name>CANON XF</name>
							</reel>
						</timecode>
						<media>
							<video>
								<duration>1032</duration>
								<samplecharacteristics>
									<width>1920</width>
									<height>1080</height>
								</samplecharacteristics>
							</video>
							<audio>
								<samplecharacteristics>
									<samplerate>48000</samplerate>
									<depth>16</depth>
								</samplecharacteristics>
								<channelcount>1</channelcount>
								<layout>mono</layout>
								<audiochannel>
									<sourcechannel>1</sourcechannel>
									<channellabel>discrete</channellabel>
								</audiochannel>
							</audio>
							<audio>
								<samplecharacteristics>
									<samplerate>48000</samplerate>
									<depth>16</depth>
								</samplecharacteristics>
								<channelcount>1</channelcount>
								<layout>mono</layout>
								<audiochannel>
									<sourcechannel>2</sourcechannel>
									<channellabel>discrete</channellabel>
								</audiochannel>
							</audio>
						</media>
					</file>
					<sourcetrack>
						<mediatype>video</mediatype>
					</sourcetrack>
					<link>
						<linkclipref>AA1471_01 </linkclipref>
						<mediatype>video</mediatype>
						<trackindex>1</trackindex>
						<clipindex>333</clipindex>
					</link>
					<link>
						<linkclipref>AA1471_01 3</linkclipref>
						<mediatype>audio</mediatype>
						<trackindex>1</trackindex>
						<clipindex>141</clipindex>
					</link>
					<link>
						<linkclipref>AA1471_01 4</linkclipref>
						<mediatype>audio</mediatype>
						<trackindex>2</trackindex>
						<clipindex>119</clipindex>
					</link>
					<fielddominance>upper</fielddominance>
					<itemhistory>
						<uuid>F55CC33A-F64B-45A5-BEBD-7F20B6BF53EA</uuid>
					</itemhistory>
				</clipitem>
				<clipitem id="AA1473_01 ">
					<name>AA1473_01</name>
					<duration>2532</duration>
					<rate>
						<ntsc>FALSE</ntsc>
						<timebase>25</timebase>
					</rate>
					<in>291</in>
					<out>361</out>
					<start>26345</start>
					<end>26415</end>
					<pixelaspectratio>Square</pixelaspectratio>
					<enabled>TRUE</enabled>
					<anamorphic>FALSE</anamorphic>
					<alphatype>none</alphatype>
					<masterclipid>AA1473_01 1</masterclipid>
					<logginginfo>
						<scene/>
						<shottake/>
						<lognote/>
						<good>FALSE</good>
					</logginginfo>
					<labels>
						<label2/>
					</labels>
					<comments>
						<mastercomment1/>
						<mastercomment2/>
						<mastercomment3/>
						<mastercomment4/>
					</comments>
					<file id="AA1473_01 2">
						<name>AA1473_01.mov</name>
						<pathurl>file://localhost/Volumes/Askepott/Prosjekter/DNPR637010_Kra%CC%8Akeklubben_TEM_011212/Video/MELLOMSTIKK/S01E%20Spor%20i%20sn%C3%B8en/Canon%20XF/AA1473_01.mov</pathurl>
						<rate>
							<timebase>25</timebase>
						</rate>
						<duration>2532</duration>
						<metadata>
							<storage>QuickTime</storage>
							<key>com.apple.proapps.originalFormat</key>
							<size>14</size>
							<type>UTF8</type>
							<value>Canon XF MPEG2</value>
						</metadata>
						<metadata>
							<storage>QuickTime</storage>
							<key>com.apple.quicktime.creationdate</key>
							<size>24</size>
							<type>UTF8</type>
							<value>2012-02-22T15:44:25+0100</value>
						</metadata>
						<metadata>
							<storage>QuickTime</storage>
							<key>com.apple.proapps.isGood</key>
							<size>4</size>
							<type>unsigned</type>
							<value>0</value>
						</metadata>
						<metadata>
							<storage>QuickTime</storage>
							<key>com.apple.finalcutstudio.media.uuid</key>
							<size>36</size>
							<type>UTF8</type>
							<value>2009335D-9398-484F-A1A0-BEA359B76CE6</value>
						</metadata>
						<metadata>
							<storage>QuickTime</storage>
							<key>com.apple.proapps.clipID</key>
							<size>36</size>
							<type>UTF8</type>
							<value>0A287C42-7959-0580-0000-850001E01891</value>
						</metadata>
						<metadata>
							<storage>QuickTime</storage>
							<key>com.apple.proapps.reel</key>
							<size>8</size>
							<type>UTF8</type>
							<value>CANON XF</value>
						</metadata>
						<timecode>
							<rate>
								<timebase>25</timebase>
							</rate>
							<string>01:13:28:20</string>
							<frame>110220</frame>
							<displayformat>NDF</displayformat>
							<source>source</source>
							<reel>
								<name>CANON XF</name>
							</reel>
						</timecode>
						<media>
							<video>
								<duration>2532</duration>
								<samplecharacteristics>
									<width>1920</width>
									<height>1080</height>
								</samplecharacteristics>
							</video>
							<audio>
								<samplecharacteristics>
									<samplerate>48000</samplerate>
									<depth>16</depth>
								</samplecharacteristics>
								<channelcount>1</channelcount>
								<layout>mono</layout>
								<audiochannel>
									<sourcechannel>1</sourcechannel>
									<channellabel>discrete</channellabel>
								</audiochannel>
							</audio>
							<audio>
								<samplecharacteristics>
									<samplerate>48000</samplerate>
									<depth>16</depth>
								</samplecharacteristics>
								<channelcount>1</channelcount>
								<layout>mono</layout>
								<audiochannel>
									<sourcechannel>2</sourcechannel>
									<channellabel>discrete</channellabel>
								</audiochannel>
							</audio>
						</media>
					</file>
					<sourcetrack>
						<mediatype>video</mediatype>
					</sourcetrack>
					<link>
						<linkclipref>AA1473_01 </linkclipref>
						<mediatype>video</mediatype>
						<trackindex>1</trackindex>
						<clipindex>334</clipindex>
					</link>
					<link>
						<linkclipref>AA1473_01 3</linkclipref>
						<mediatype>audio</mediatype>
						<trackindex>1</trackindex>
						<clipindex>142</clipindex>
					</link>
					<link>
						<linkclipref>AA1473_01 4</linkclipref>
						<mediatype>audio</mediatype>
						<trackindex>2</trackindex>
						<clipindex>120</clipindex>
					</link>
					<fielddominance>upper</fielddominance>
					<itemhistory>
						<uuid>33452CA4-78B7-4327-92F6-CE368EDB9CE8</uuid>
					</itemhistory>
				</clipitem>
				<clipitem id="AA1474_01 ">
					<name>AA1474_01</name>
					<duration>636</duration>
					<rate>
						<ntsc>FALSE</ntsc>
						<timebase>25</timebase>
					</rate>
					<in>329</in>
					<out>366</out>
					<start>26415</start>
					<end>26452</end>
					<pixelaspectratio>Square</pixelaspectratio>
					<enabled>TRUE</enabled>
					<anamorphic>FALSE</anamorphic>
					<alphatype>none</alphatype>
					<masterclipid>AA1474_01 1</masterclipid>
					<logginginfo>
						<scene/>
						<shottake/>
						<lognote/>
						<good>FALSE</good>
					</logginginfo>
					<labels>
						<label2/>
					</labels>
					<comments>
						<mastercomment1/>
						<mastercomment2/>
						<mastercomment3/>
						<mastercomment4/>
					</comments>
					<file id="AA1474_01 2">
						<name>AA1474_01.mov</name>
						<pathurl>file://localhost/Volumes/Askepott/Prosjekter/DNPR637010_Kra%CC%8Akeklubben_TEM_011212/Video/MELLOMSTIKK/S01E%20Spor%20i%20sn%C3%B8en/Canon%20XF/AA1474_01.mov</pathurl>
						<rate>
							<timebase>25</timebase>
						</rate>
						<duration>636</duration>
						<metadata>
							<storage>QuickTime</storage>
							<key>com.apple.proapps.originalFormat</key>
							<size>14</size>
							<type>UTF8</type>
							<value>Canon XF MPEG2</value>
						</metadata>
						<metadata>
							<storage>QuickTime</storage>
							<key>com.apple.quicktime.creationdate</key>
							<size>24</size>
							<type>UTF8</type>
							<value>2012-02-22T15:46:25+0100</value>
						</metadata>
						<metadata>
							<storage>QuickTime</storage>
							<key>com.apple.proapps.isGood</key>
							<size>4</size>
							<type>unsigned</type>
							<value>0</value>
						</metadata>
						<metadata>
							<storage>QuickTime</storage>
							<key>com.apple.finalcutstudio.media.uuid</key>
							<size>36</size>
							<type>UTF8</type>
							<value>77BC66C5-9015-4E6F-ACD9-7E669207DD2F</value>
						</metadata>
						<metadata>
							<storage>QuickTime</storage>
							<key>com.apple.proapps.clipID</key>
							<size>36</size>
							<type>UTF8</type>
							<value>0A2893C8-7959-0580-0000-850001E01891</value>
						</metadata>
						<metadata>
							<storage>QuickTime</storage>
							<key>com.apple.proapps.reel</key>
							<size>8</size>
							<type>UTF8</type>
							<value>CANON XF</value>
						</metadata>
						<timecode>
							<rate>
								<timebase>25</timebase>
							</rate>
							<string>01:15:10:02</string>
							<frame>112752</frame>
							<displayformat>NDF</displayformat>
							<source>source</source>
							<reel>
								<name>CANON XF</name>
							</reel>
						</timecode>
						<media>
							<video>
								<duration>636</duration>
								<samplecharacteristics>
									<width>1920</width>
									<height>1080</height>
								</samplecharacteristics>
							</video>
							<audio>
								<samplecharacteristics>
									<samplerate>48000</samplerate>
									<depth>16</depth>
								</samplecharacteristics>
								<channelcount>1</channelcount>
								<layout>mono</layout>
								<audiochannel>
									<sourcechannel>1</sourcechannel>
									<channellabel>discrete</channellabel>
								</audiochannel>
							</audio>
							<audio>
								<samplecharacteristics>
									<samplerate>48000</samplerate>
									<depth>16</depth>
								</samplecharacteristics>
								<channelcount>1</channelcount>
								<layout>mono</layout>
								<audiochannel>
									<sourcechannel>2</sourcechannel>
									<channellabel>discrete</channellabel>
								</audiochannel>
							</audio>
						</media>
					</file>
					<filter>
						<start>-1</start>
						<end>-1</end>
						<effect>
							<name>Shift Fields</name>
							<effectid>Shift Fields</effectid>
							<effectcategory>Video</effectcategory>
							<effecttype>filter</effecttype>
							<mediatype>video</mediatype>
							<parameter>
								<parameterid>dir</parameterid>
								<name>Shift Direction</name>
								<valuemin>1</valuemin>
								<valuemax>3</valuemax>
								<valuelist>
									<valueentry>
										<name> +1</name>
										<value>1</value>
									</valueentry>
									<valueentry>
										<name>none</name>
										<value>2</value>
									</valueentry>
									<valueentry>
										<name> -1</name>
										<value>3</value>
									</valueentry>
								</valuelist>
								<value>1</value>
							</parameter>
						</effect>
					</filter>
					<sourcetrack>
						<mediatype>video</mediatype>
					</sourcetrack>
					<fielddominance>upper</fielddominance>
					<itemhistory>
						<uuid>C6651823-7C63-472C-A1AC-FECCB3D25514</uuid>
					</itemhistory>
					<filter>
						<effect>
							<name>Time Remap</name>
							<effectid>timeremap</effectid>
							<effectcategory>motion</effectcategory>
							<effecttype>motion</effecttype>
							<mediatype>video</mediatype>
							<parameter>
								<parameterid>variablespeed</parameterid>
								<name>variablespeed</name>
								<valuemin>0</valuemin>
								<valuemax>1</valuemax>
								<value>0</value>
							</parameter>
							<parameter>
								<parameterid>mappedduration</parameterid>
								<name>mappedduration</name>
								<value>
									<timecode>
										<rate>
											<timebase>0</timebase>
										</rate>
										<string>0</string>
										<frame>0</frame>
										<displayformat>NDF</displayformat>
									</timecode>
								</value>
							</parameter>
							<parameter>
								<parameterid>speed</parameterid>
								<name>speed</name>
								<valuemin>-10000</valuemin>
								<valuemax>10000</valuemax>
								<value>100</value>
							</parameter>
							<parameter>
								<parameterid>reverse</parameterid>
								<name>reverse</name>
								<value>TRUE</value>
							</parameter>
							<parameter>
								<parameterid>frameblending</parameterid>
								<name>frameblending</name>
								<value>TRUE</value>
							</parameter>
							<parameter>
								<parameterid>graphdict</parameterid>
								<name>graphdict</name>
								<valuemin>0</valuemin>
								<valuemax>635</valuemax>
								<keyframe>
									<when>0</when>
									<value>637</value>
									<speedkfstart>TRUE</speedkfstart>
									<speedvirtualkf>TRUE</speedvirtualkf>
								</keyframe>
								<keyframe>
									<when>329</when>
									<value>307</value>
									<speedkfin>TRUE</speedkfin>
									<speedvirtualkf>TRUE</speedvirtualkf>
								</keyframe>
								<keyframe>
									<when>366</when>
									<value>270</value>
									<speedkfout>TRUE</speedkfout>
									<speedvirtualkf>TRUE</speedvirtualkf>
								</keyframe>
								<keyframe>
									<when>636</when>
									<value>1</value>
									<speedkfend>TRUE</speedkfend>
									<speedvirtualkf>TRUE</speedvirtualkf>
								</keyframe>
								<interpolation>
									<name>FCPCurve</name>
								</interpolation>
								<value>306</value>
							</parameter>
						</effect>
					</filter>
				</clipitem>
				<clipitem id="AA1472_01 ">
					<name>AA1472_01</name>
					<duration>3252</duration>
					<rate>
						<ntsc>FALSE</ntsc>
						<timebase>25</timebase>
					</rate>
					<in>278</in>
					<out>659</out>
					<start>26452</start>
					<end>26833</end>
					<pixelaspectratio>Square</pixelaspectratio>
					<enabled>TRUE</enabled>
					<anamorphic>FALSE</anamorphic>
					<alphatype>none</alphatype>
					<masterclipid>AA1472_01 1</masterclipid>
					<logginginfo>
						<scene/>
						<shottake/>
						<lognote/>
						<good>FALSE</good>
					</logginginfo>
					<labels>
						<label2/>
					</labels>
					<comments>
						<mastercomment1/>
						<mastercomment2/>
						<mastercomment3/>
						<mastercomment4/>
					</comments>
					<file id="AA1472_01 2">
						<name>AA1472_01.mov</name>
						<pathurl>file://localhost/Volumes/Askepott/Prosjekter/DNPR637010_Kra%CC%8Akeklubben_TEM_011212/Video/MELLOMSTIKK/S01E%20Spor%20i%20sn%C3%B8en/Canon%20XF/AA1472_01.mov</pathurl>
						<rate>
							<timebase>25</timebase>
						</rate>
						<duration>3252</duration>
						<metadata>
							<storage>QuickTime</storage>
							<key>com.apple.proapps.originalFormat</key>
							<size>14</size>
							<type>UTF8</type>
							<value>Canon XF MPEG2</value>
						</metadata>
						<metadata>
							<storage>QuickTime</storage>
							<key>com.apple.quicktime.creationdate</key>
							<size>24</size>
							<type>UTF8</type>
							<value>2012-02-22T15:40:36+0100</value>
						</metadata>
						<metadata>
							<storage>QuickTime</storage>
							<key>com.apple.proapps.isGood</key>
							<size>4</size>
							<type>unsigned</type>
							<value>0</value>
						</metadata>
						<metadata>
							<storage>QuickTime</storage>
							<key>com.apple.finalcutstudio.media.uuid</key>
							<size>36</size>
							<type>UTF8</type>
							<value>76441CD5-183C-46C7-B075-25C34574C124</value>
						</metadata>
						<metadata>
							<storage>QuickTime</storage>
							<key>com.apple.proapps.clipID</key>
							<size>36</size>
							<type>UTF8</type>
							<value>0A284F88-7959-0580-0000-850001E01891</value>
						</metadata>
						<metadata>
							<storage>QuickTime</storage>
							<key>com.apple.proapps.reel</key>
							<size>8</size>
							<type>UTF8</type>
							<value>CANON XF</value>
						</metadata>
						<timecode>
							<rate>
								<timebase>25</timebase>
							</rate>
							<string>01:11:18:18</string>
							<frame>106968</frame>
							<displayformat>NDF</displayformat>
							<source>source</source>
							<reel>
								<name>CANON XF</name>
							</reel>
						</timecode>
						<media>
							<video>
								<duration>3252</duration>
								<samplecharacteristics>
									<width>1920</width>
									<height>1080</height>
								</samplecharacteristics>
							</video>
							<audio>
								<samplecharacteristics>
									<samplerate>48000</samplerate>
									<depth>16</depth>
								</samplecharacteristics>
								<channelcount>1</channelcount>
								<layout>mono</layout>
								<audiochannel>
									<sourcechannel>1</sourcechannel>
									<channellabel>discrete</channellabel>
								</audiochannel>
							</audio>
							<audio>
								<samplecharacteristics>
									<samplerate>48000</samplerate>
									<depth>16</depth>
								</samplecharacteristics>
								<channelcount>1</channelcount>
								<layout>mono</layout>
								<audiochannel>
									<sourcechannel>2</sourcechannel>
									<channellabel>discrete</channellabel>
								</audiochannel>
							</audio>
						</media>
					</file>
					<sourcetrack>
						<mediatype>video</mediatype>
					</sourcetrack>
					<link>
						<linkclipref>AA1472_01 </linkclipref>
						<mediatype>video</mediatype>
						<trackindex>1</trackindex>
						<clipindex>336</clipindex>
					</link>
					<link>
						<linkclipref>AA1472_01 3</linkclipref>
						<mediatype>audio</mediatype>
						<trackindex>1</trackindex>
						<clipindex>144</clipindex>
					</link>
					<link>
						<linkclipref>AA1472_01 4</linkclipref>
						<mediatype>audio</mediatype>
						<trackindex>2</trackindex>
						<clipindex>122</clipindex>
					</link>
					<fielddominance>upper</fielddominance>
					<itemhistory>
						<uuid>1F4512B2-31DB-4A56-91EC-A9D9A46C5A13</uuid>
					</itemhistory>
				</clipitem>
				<clipitem id="AA1473_01 5">
					<name>AA1473_01</name>
					<duration>2532</duration>
					<rate>
						<ntsc>FALSE</ntsc>
						<timebase>25</timebase>
					</rate>
					<in>796</in>
					<out>858</out>
					<start>26833</start>
					<end>26895</end>
					<pixelaspectratio>Square</pixelaspectratio>
					<enabled>TRUE</enabled>
					<anamorphic>FALSE</anamorphic>
					<alphatype>none</alphatype>
					<masterclipid>AA1473_01 1</masterclipid>
					<logginginfo>
						<scene/>
						<shottake/>
						<lognote/>
						<good>FALSE</good>
					</logginginfo>
					<labels>
						<label2/>
					</labels>
					<comments>
						<mastercomment1/>
						<mastercomment2/>
						<mastercomment3/>
						<mastercomment4/>
					</comments>
					<file id="AA1473_01 2"/>
					<sourcetrack>
						<mediatype>video</mediatype>
					</sourcetrack>
					<fielddominance>upper</fielddominance>
					<itemhistory>
						<uuid>85888C4E-3552-4B87-80EF-93A370473BDB</uuid>
					</itemhistory>
				</clipitem>
				<clipitem id="AA1472_01 5">
					<name>AA1472_01</name>
					<duration>3252</duration>
					<rate>
						<ntsc>FALSE</ntsc>
						<timebase>25</timebase>
					</rate>
					<in>721</in>
					<out>860</out>
					<start>26895</start>
					<end>27034</end>
					<pixelaspectratio>Square</pixelaspectratio>
					<enabled>TRUE</enabled>
					<anamorphic>FALSE</anamorphic>
					<alphatype>none</alphatype>
					<masterclipid>AA1472_01 1</masterclipid>
					<logginginfo>
						<scene/>
						<shottake/>
						<lognote/>
						<good>FALSE</good>
					</logginginfo>
					<labels>
						<label2/>
					</labels>
					<comments>
						<mastercomment1/>
						<mastercomment2/>
						<mastercomment3/>
						<mastercomment4/>
					</comments>
					<file id="AA1472_01 2"/>
					<sourcetrack>
						<mediatype>video</mediatype>
					</sourcetrack>
					<fielddominance>upper</fielddominance>
					<itemhistory>
						<uuid>87EDB591-143E-4281-87EF-BE981BAEA88A</uuid>
					</itemhistory>
				</clipitem>
				<clipitem id="AA1474_01 3">
					<name>AA1474_01</name>
					<duration>636</duration>
					<rate>
						<ntsc>FALSE</ntsc>
						<timebase>25</timebase>
					</rate>
					<in>348</in>
					<out>435</out>
					<start>27034</start>
					<end>27121</end>
					<pixelaspectratio>Square</pixelaspectratio>
					<enabled>TRUE</enabled>
					<anamorphic>FALSE</anamorphic>
					<alphatype>none</alphatype>
					<masterclipid>AA1474_01 1</masterclipid>
					<logginginfo>
						<scene/>
						<shottake/>
						<lognote/>
						<good>FALSE</good>
					</logginginfo>
					<labels>
						<label2/>
					</labels>
					<comments>
						<mastercomment1/>
						<mastercomment2/>
						<mastercomment3/>
						<mastercomment4/>
					</comments>
					<file id="AA1474_01 2"/>
					<sourcetrack>
						<mediatype>video</mediatype>
					</sourcetrack>
					<link>
						<linkclipref>AA1474_01 3</linkclipref>
						<mediatype>video</mediatype>
						<trackindex>1</trackindex>
						<clipindex>339</clipindex>
					</link>
					<link>
						<linkclipref>AA1474_01 4</linkclipref>
						<mediatype>audio</mediatype>
						<trackindex>1</trackindex>
						<clipindex>145</clipindex>
					</link>
					<link>
						<linkclipref>AA1474_01 5</linkclipref>
						<mediatype>audio</mediatype>
						<trackindex>2</trackindex>
						<clipindex>123</clipindex>
					</link>
					<fielddominance>upper</fielddominance>
					<itemhistory>
						<uuid>9AF6E641-8191-455A-AFAB-CF365535B708</uuid>
					</itemhistory>
				</clipitem>
				<clipitem id="AA1472_01 6">
					<name>AA1472_01</name>
					<duration>3252</duration>
					<rate>
						<ntsc>FALSE</ntsc>
						<timebase>25</timebase>
					</rate>
					<in>889</in>
					<out>1120</out>
					<start>27121</start>
					<end>27352</end>
					<pixelaspectratio>Square</pixelaspectratio>
					<enabled>TRUE</enabled>
					<anamorphic>FALSE</anamorphic>
					<alphatype>none</alphatype>
					<masterclipid>AA1472_01 1</masterclipid>
					<logginginfo>
						<scene/>
						<shottake/>
						<lognote/>
						<good>FALSE</good>
					</logginginfo>
					<labels>
						<label2/>
					</labels>
					<comments>
						<mastercomment1/>
						<mastercomment2/>
						<mastercomment3/>
						<mastercomment4/>
					</comments>
					<file id="AA1472_01 2"/>
					<sourcetrack>
						<mediatype>video</mediatype>
					</sourcetrack>
					<link>
						<linkclipref>AA1472_01 6</linkclipref>
						<mediatype>video</mediatype>
						<trackindex>1</trackindex>
						<clipindex>340</clipindex>
					</link>
					<link>
						<linkclipref>AA1472_01 7</linkclipref>
						<mediatype>audio</mediatype>
						<trackindex>1</trackindex>
						<clipindex>146</clipindex>
					</link>
					<link>
						<linkclipref>AA1472_01 8</linkclipref>
						<mediatype>audio</mediatype>
						<trackindex>2</trackindex>
						<clipindex>124</clipindex>
					</link>
					<fielddominance>upper</fielddominance>
					<itemhistory>
						<uuid>4E752670-9F13-4B4C-A3E6-328E9B616172</uuid>
					</itemhistory>
				</clipitem>
				<clipitem id="AA1473_01 6">
					<name>AA1473_01</name>
					<duration>2532</duration>
					<rate>
						<ntsc>FALSE</ntsc>
						<timebase>25</timebase>
					</rate>
					<in>1268</in>
					<out>1559</out>
					<start>27352</start>
					<end>27643</end>
					<pixelaspectratio>Square</pixelaspectratio>
					<enabled>TRUE</enabled>
					<anamorphic>FALSE</anamorphic>
					<alphatype>none</alphatype>
					<masterclipid>AA1473_01 1</masterclipid>
					<logginginfo>
						<scene/>
						<shottake/>
						<lognote/>
						<good>FALSE</good>
					</logginginfo>
					<labels>
						<label2/>
					</labels>
					<comments>
						<mastercomment1/>
						<mastercomment2/>
						<mastercomment3/>
						<mastercomment4/>
					</comments>
					<file id="AA1473_01 2"/>
					<sourcetrack>
						<mediatype>video</mediatype>
					</sourcetrack>
					<link>
						<linkclipref>AA1473_01 6</linkclipref>
						<mediatype>video</mediatype>
						<trackindex>1</trackindex>
						<clipindex>341</clipindex>
					</link>
					<link>
						<linkclipref>AA1473_01 7</linkclipref>
						<mediatype>audio</mediatype>
						<trackindex>1</trackindex>
						<clipindex>147</clipindex>
					</link>
					<link>
						<linkclipref>AA1473_01 8</linkclipref>
						<mediatype>audio</mediatype>
						<trackindex>2</trackindex>
						<clipindex>125</clipindex>
					</link>
					<fielddominance>upper</fielddominance>
					<itemhistory>
						<uuid>87F0698A-E886-43A4-9A74-B64D669B518E</uuid>
					</itemhistory>
				</clipitem>
				<clipitem id="AA1472_01 9">
					<name>AA1472_01</name>
					<duration>3252</duration>
					<rate>
						<ntsc>FALSE</ntsc>
						<timebase>25</timebase>
					</rate>
					<in>1394</in>
					<out>1955</out>
					<start>27643</start>
					<end>28204</end>
					<pixelaspectratio>Square</pixelaspectratio>
					<enabled>TRUE</enabled>
					<anamorphic>FALSE</anamorphic>
					<alphatype>none</alphatype>
					<masterclipid>AA1472_01 1</masterclipid>
					<logginginfo>
						<scene/>
						<shottake/>
						<lognote/>
						<good>FALSE</good>
					</logginginfo>
					<labels>
						<label2/>
					</labels>
					<comments>
						<mastercomment1/>
						<mastercomment2/>
						<mastercomment3/>
						<mastercomment4/>
					</comments>
					<file id="AA1472_01 2"/>
					<sourcetrack>
						<mediatype>video</mediatype>
					</sourcetrack>
					<link>
						<linkclipref>AA1472_01 9</linkclipref>
						<mediatype>video</mediatype>
						<trackindex>1</trackindex>
						<clipindex>342</clipindex>
					</link>
					<link>
						<linkclipref>AA1472_01 10</linkclipref>
						<mediatype>audio</mediatype>
						<trackindex>1</trackindex>
						<clipindex>148</clipindex>
					</link>
					<link>
						<linkclipref>AA1472_01 11</linkclipref>
						<mediatype>audio</mediatype>
						<trackindex>2</trackindex>
						<clipindex>126</clipindex>
					</link>
					<fielddominance>upper</fielddominance>
					<itemhistory>
						<uuid>7642D4B2-1B25-4829-8EFE-1A18740D1223</uuid>
					</itemhistory>
				</clipitem>
				<clipitem id="AA1473_01 9">
					<name>AA1473_01</name>
					<duration>2532</duration>
					<rate>
						<ntsc>FALSE</ntsc>
						<timebase>25</timebase>
					</rate>
					<in>2093</in>
					<out>2179</out>
					<start>28204</start>
					<end>28290</end>
					<pixelaspectratio>Square</pixelaspectratio>
					<enabled>TRUE</enabled>
					<anamorphic>FALSE</anamorphic>
					<alphatype>none</alphatype>
					<masterclipid>AA1473_01 1</masterclipid>
					<logginginfo>
						<scene/>
						<shottake/>
						<lognote/>
						<good>FALSE</good>
					</logginginfo>
					<labels>
						<label2/>
					</labels>
					<comments>
						<mastercomment1/>
						<mastercomment2/>
						<mastercomment3/>
						<mastercomment4/>
					</comments>
					<file id="AA1473_01 2"/>
					<sourcetrack>
						<mediatype>video</mediatype>
					</sourcetrack>
					<link>
						<linkclipref>AA1473_01 9</linkclipref>
						<mediatype>video</mediatype>
						<trackindex>1</trackindex>
						<clipindex>343</clipindex>
					</link>
					<link>
						<linkclipref>AA1473_01 10</linkclipref>
						<mediatype>audio</mediatype>
						<trackindex>1</trackindex>
						<clipindex>150</clipindex>
					</link>
					<link>
						<linkclipref>AA1473_01 11</linkclipref>
						<mediatype>audio</mediatype>
						<trackindex>2</trackindex>
						<clipindex>128</clipindex>
					</link>
					<fielddominance>upper</fielddominance>
					<itemhistory>
						<uuid>95148D18-18D9-4580-8AA6-013732DB3F58</uuid>
					</itemhistory>
				</clipitem>
				<clipitem id="AA1472_01 12">
					<name>AA1472_01</name>
					<duration>3252</duration>
					<rate>
						<ntsc>FALSE</ntsc>
						<timebase>25</timebase>
					</rate>
					<in>2188</in>
					<out>2799</out>
					<start>28290</start>
					<end>-1</end>
					<pixelaspectratio>Square</pixelaspectratio>
					<enabled>TRUE</enabled>
					<anamorphic>FALSE</anamorphic>
					<alphatype>none</alphatype>
					<masterclipid>AA1472_01 1</masterclipid>
					<logginginfo>
						<scene/>
						<shottake/>
						<lognote/>
						<good>FALSE</good>
					</logginginfo>
					<labels>
						<label2/>
					</labels>
					<comments>
						<mastercomment1/>
						<mastercomment2/>
						<mastercomment3/>
						<mastercomment4/>
					</comments>
					<file id="AA1472_01 2"/>
					<sourcetrack>
						<mediatype>video</mediatype>
					</sourcetrack>
					<link>
						<linkclipref>AA1472_01 12</linkclipref>
						<mediatype>video</mediatype>
						<trackindex>1</trackindex>
						<clipindex>344</clipindex>
					</link>
					<link>
						<linkclipref>AA1472_01 13</linkclipref>
						<mediatype>audio</mediatype>
						<trackindex>1</trackindex>
						<clipindex>151</clipindex>
					</link>
					<link>
						<linkclipref>AA1472_01 14</linkclipref>
						<mediatype>audio</mediatype>
						<trackindex>2</trackindex>
						<clipindex>129</clipindex>
					</link>
					<fielddominance>upper</fielddominance>
					<itemhistory>
						<uuid>B1622523-7EFD-4FA7-85A7-5912D70F080D</uuid>
					</itemhistory>
				</clipitem>
				<transitionitem>
					<rate>
						<ntsc>FALSE</ntsc>
						<timebase>25</timebase>
					</rate>
					<start>28876</start>
					<end>28901</end>
					<alignment>end-black</alignment>
					<effect>
						<name>Cross Dissolve</name>
						<effectid>Cross Dissolve</effectid>
						<effectcategory>Dissolve</effectcategory>
						<effecttype>transition</effecttype>
						<mediatype>video</mediatype>
						<wipecode>0</wipecode>
						<wipeaccuracy>100</wipeaccuracy>
						<startratio>0</startratio>
						<endratio>1</endratio>
						<reverse>FALSE</reverse>
					</effect>
				</transitionitem>
				<clipitem id="NRK © 2011 Sluttplakat 1920x1080.tif">
					<name>NRK © 2011 Sluttplakat 1920x1080.tif</name>
					<duration>3002</duration>
					<rate>
						<ntsc>FALSE</ntsc>
						<timebase>25</timebase>
					</rate>
					<in>1129</in>
					<out>1256</out>
					<start>28901</start>
					<end>29028</end>
					<pixelaspectratio>Square</pixelaspectratio>
					<stillframe>TRUE</stillframe>
					<enabled>TRUE</enabled>
					<anamorphic>FALSE</anamorphic>
					<alphatype>none</alphatype>
					<masterclipid>NRK © 2011 Sluttplakat 1920x1080.tif1</masterclipid>
					<logginginfo>
						<scene/>
						<shottake/>
						<lognote/>
						<good>FALSE</good>
					</logginginfo>
					<labels>
						<label2/>
					</labels>
					<comments>
						<mastercomment1/>
						<mastercomment2/>
						<mastercomment3/>
						<mastercomment4/>
					</comments>
					<file id="NRK © 2011 Sluttplakat 1920x1080 ">
						<name>NRK © 2011 Sluttplakat 1920x1080.tif</name>
						<pathurl>file://localhost/Volumes/Askepott/Prosjekter/DNPR637010_Kra%CC%8Akeklubben_TEM_011212/Grafikk/NRK%20%C2%A9%202011%20Sluttplakat%201920x1080.tif</pathurl>
						<rate>
							<timebase>25</timebase>
						</rate>
						<duration>2</duration>
						<width>1920</width>
						<height>1080</height>
						<media>
							<video>
								<duration>2</duration>
								<stillframe>TRUE</stillframe>
								<samplecharacteristics>
									<width>1920</width>
									<height>1080</height>
								</samplecharacteristics>
							</video>
						</media>
					</file>
					<filter>
						<effect>
							<name>Opacity</name>
							<effectid>opacity</effectid>
							<effectcategory>motion</effectcategory>
							<effecttype>motion</effecttype>
							<mediatype>video</mediatype>
							<parameter>
								<parameterid>opacity</parameterid>
								<name>opacity</name>
								<valuemin>0</valuemin>
								<valuemax>100</valuemax>
								<keyframe>
									<when>1130</when>
									<value>0</value>
									<outscale>0</outscale>
									<outbez>
										<horiz>6.25</horiz>
										<vert>0</vert>
									</outbez>
								</keyframe>
								<keyframe>
									<when>1155</when>
									<value>100</value>
									<inscale>0</inscale>
									<inbez>
										<horiz>6.25</horiz>
										<vert>-3.14159</vert>
									</inbez>
									<outscale>0</outscale>
									<outbez>
										<horiz>24.5</horiz>
										<vert>0</vert>
									</outbez>
								</keyframe>
								<keyframe>
									<when>1223</when>
									<value>100</value>
									<inscale>0</inscale>
									<inbez>
										<horiz>24.5</horiz>
										<vert>-3.14159</vert>
									</inbez>
									<outscale>0</outscale>
									<outbez>
										<horiz>6.25</horiz>
										<vert>0</vert>
									</outbez>
								</keyframe>
								<keyframe>
									<when>1253</when>
									<value>0</value>
									<inscale>0</inscale>
									<inbez>
										<horiz>6.25</horiz>
										<vert>-3.14159</vert>
									</inbez>
								</keyframe>
								<interpolation>
									<name>FCPCurve</name>
								</interpolation>
								<value>100</value>
							</parameter>
						</effect>
					</filter>
					<sourcetrack>
						<mediatype>video</mediatype>
					</sourcetrack>
					<fielddominance>none</fielddominance>
					<itemhistory>
						<uuid>11E43178-73F8-458F-9DD9-8304C46A4D62</uuid>
					</itemhistory>
				</clipitem>
				<enabled>TRUE</enabled>
				<locked>FALSE</locked>
			</track>
			<track>
				<clipitem id="VIGNETT m ALPHA 25fps PROG SCAN3">
					<name>VIGNETT m ALPHA 25fps PROG SCAN</name>
					<duration>881</duration>
					<rate>
						<ntsc>FALSE</ntsc>
						<timebase>25</timebase>
					</rate>
					<in>0</in>
					<out>421</out>
					<start>0</start>
					<end>421</end>
					<pixelaspectratio>Square</pixelaspectratio>
					<enabled>TRUE</enabled>
					<anamorphic>FALSE</anamorphic>
					<alphatype>straight</alphatype>
					<masterclipid>VIGNETT m ALPHA 25fps PROG SCAN1</masterclipid>
					<logginginfo>
						<scene/>
						<shottake/>
						<lognote/>
						<good>FALSE</good>
					</logginginfo>
					<labels>
						<label2/>
					</labels>
					<comments>
						<mastercomment1/>
						<mastercomment2/>
						<mastercomment3/>
						<mastercomment4/>
					</comments>
					<file id="VIGNETT m ALPHA 25fps PROG SCAN2"/>
					<sourcetrack>
						<mediatype>video</mediatype>
					</sourcetrack>
					<fielddominance>upper</fielddominance>
					<itemhistory>
						<uuid>C9D5B811-AD93-4880-B89B-9129BC239650</uuid>
					</itemhistory>
				</clipitem>
				<clipitem id="Wipe1_Kongler m Alpha">
					<name>Wipe1_Kongler m Alpha</name>
					<duration>36</duration>
					<rate>
						<ntsc>FALSE</ntsc>
						<timebase>25</timebase>
					</rate>
					<in>0</in>
					<out>36</out>
					<start>831</start>
					<end>867</end>
					<pixelaspectratio>Square</pixelaspectratio>
					<enabled>TRUE</enabled>
					<anamorphic>FALSE</anamorphic>
					<alphatype>straight</alphatype>
					<masterclipid>Wipe1_Kongler m Alpha1</masterclipid>
					<logginginfo>
						<scene/>
						<shottake/>
						<lognote/>
						<good>FALSE</good>
					</logginginfo>
					<labels>
						<label2/>
					</labels>
					<comments>
						<mastercomment1/>
						<mastercomment2/>
						<mastercomment3/>
						<mastercomment4/>
					</comments>
					<file id="Wipe1_Kongler m Alpha2">
						<name>Wipe1_Kongler m Alpha.mov</name>
						<pathurl>file://localhost/Volumes/Askepott/Prosjekter/DNPR637010_Kra%CC%8Akeklubben_TEM_011212/Grafikk/MASTERE%20GRAFIKK/Wipe1_Kongler%20m%20Alpha.mov</pathurl>
						<rate>
							<timebase>25</timebase>
						</rate>
						<duration>36</duration>
						<timecode>
							<rate>
								<timebase>25</timebase>
							</rate>
							<string>00:00:00:00</string>
							<frame>0</frame>
							<displayformat>NDF</displayformat>
							<source>source</source>
						</timecode>
						<media>
							<video>
								<duration>36</duration>
								<samplecharacteristics>
									<width>1920</width>
									<height>1080</height>
								</samplecharacteristics>
							</video>
						</media>
					</file>
					<filter>
						<start>-1</start>
						<end>-1</end>
						<effect>
							<name>Color Corrector 3-way</name>
							<effectid>Color Corrector 3-way</effectid>
							<effectcategory>Color Correction</effectcategory>
							<effecttype>filter</effecttype>
							<mediatype>video</mediatype>
							<parameter>
								<parameterid>dispmode</parameterid>
								<name>Display Mode</name>
								<valuemin>1</valuemin>
								<valuemax>3</valuemax>
								<valuelist>
									<valueentry>
										<name>Final</name>
										<value>1</value>
									</valueentry>
									<valueentry>
										<name>Matte</name>
										<value>2</value>
									</valueentry>
									<valueentry>
										<name>Source</name>
										<value>3</value>
									</valueentry>
								</valuelist>
								<value>1</value>
							</parameter>
							<parameter>
								<parameterid>label1</parameterid>
								<name>Blacks Controls</name>
								<value/>
							</parameter>
							<parameter>
								<parameterid>blacklevel</parameterid>
								<name>Level</name>
								<valuemin>-196</valuemin>
								<valuemax>254</valuemax>
								<value>0</value>
							</parameter>
							<parameter>
								<parameterid>b_hue</parameterid>
								<name>Angle</name>
								<valuemin>-180</valuemin>
								<valuemax>180</valuemax>
								<value>-33</value>
							</parameter>
							<parameter>
								<parameterid>b_mag</parameterid>
								<name>Magnitude</name>
								<valuemin>0</valuemin>
								<valuemax>200</valuemax>
								<value>0</value>
							</parameter>
							<parameter>
								<parameterid>label2</parameterid>
								<name>Midrange Controls</name>
								<value/>
							</parameter>
							<parameter>
								<parameterid>mids</parameterid>
								<name>Level</name>
								<valuemin>0</valuemin>
								<valuemax>200</valuemax>
								<value>100</value>
							</parameter>
							<parameter>
								<parameterid>m_hue</parameterid>
								<name>Angle</name>
								<valuemin>-180</valuemin>
								<valuemax>180</valuemax>
								<value>-33</value>
							</parameter>
							<parameter>
								<parameterid>m_mag</parameterid>
								<name>Magnitude</name>
								<valuemin>0</valuemin>
								<valuemax>200</valuemax>
								<value>0</value>
							</parameter>
							<parameter>
								<parameterid>label3</parameterid>
								<name>Highlight Controls</name>
								<value/>
							</parameter>
							<parameter>
								<parameterid>highlights</parameterid>
								<name>Level</name>
								<valuemin>64</valuemin>
								<valuemax>509</valuemax>
								<value>255</value>
							</parameter>
							<parameter>
								<parameterid>h_hue</parameterid>
								<name>Angle</name>
								<valuemin>-180</valuemin>
								<valuemax>180</valuemax>
								<value>-33</value>
							</parameter>
							<parameter>
								<parameterid>h_mag</parameterid>
								<name>Magnitude</name>
								<valuemin>0</valuemin>
								<valuemax>200</valuemax>
								<value>0</value>
							</parameter>
							<parameter>
								<parameterid>label4</parameterid>
								<name>Color Controls</name>
								<value/>
							</parameter>
							<parameter>
								<parameterid>chroma</parameterid>
								<name>Saturation</name>
								<valuemin>0</valuemin>
								<valuemax>200</valuemax>
								<value>100</value>
							</parameter>
							<parameter>
								<parameterid>label5</parameterid>
								<name>Limit Effect Controls</name>
								<value/>
							</parameter>
							<parameter>
								<parameterid>dochroma</parameterid>
								<name>Limit on Chroma</name>
								<value>FALSE</value>
							</parameter>
							<parameter>
								<parameterid>centerang</parameterid>
								<name>Chroma Center</name>
								<valuemin>-760</valuemin>
								<valuemax>760</valuemax>
								<value>-110</value>
							</parameter>
							<parameter>
								<parameterid>chromawidth</parameterid>
								<name>Chroma Width</name>
								<valuemin>0</valuemin>
								<valuemax>360</valuemax>
								<value>15</value>
							</parameter>
							<parameter>
								<parameterid>chromasoft</parameterid>
								<name>Chroma Softness</name>
								<valuemin>0</valuemin>
								<valuemax>180</valuemax>
								<value>10</value>
							</parameter>
							<parameter>
								<parameterid>dosat</parameterid>
								<name>Limit on Saturation</name>
								<value>FALSE</value>
							</parameter>
							<parameter>
								<parameterid>satmin</parameterid>
								<name>Sat. Minimum</name>
								<valuemin>0</valuemin>
								<valuemax>125</valuemax>
								<value>35</value>
							</parameter>
							<parameter>
								<parameterid>satwidth</parameterid>
								<name>Sat. Width</name>
								<valuemin>0</valuemin>
								<valuemax>125</valuemax>
								<value>40</value>
							</parameter>
							<parameter>
								<parameterid>satsoft</parameterid>
								<name>Sat. Softness</name>
								<valuemin>0</valuemin>
								<valuemax>125</valuemax>
								<value>20</value>
							</parameter>
							<parameter>
								<parameterid>doluma</parameterid>
								<name>Limit on Luma</name>
								<value>FALSE</value>
							</parameter>
							<parameter>
								<parameterid>lumamin</parameterid>
								<name>Luma Minimum</name>
								<valuemin>0</valuemin>
								<valuemax>120</valuemax>
								<value>0</value>
							</parameter>
							<parameter>
								<parameterid>lumawidth</parameterid>
								<name>Luma Width</name>
								<valuemin>0</valuemin>
								<valuemax>120</valuemax>
								<value>40</value>
							</parameter>
							<parameter>
								<parameterid>lumasoft</parameterid>
								<name>Luma Softness</name>
								<valuemin>0</valuemin>
								<valuemax>120</valuemax>
								<value>20</value>
							</parameter>
							<parameter>
								<parameterid>label6</parameterid>
								<name>Edge Control</name>
								<value/>
							</parameter>
							<parameter>
								<parameterid>edgethin</parameterid>
								<name>Thin/Spread</name>
								<valuemin>-100</valuemin>
								<valuemax>100</valuemax>
								<value>0</value>
							</parameter>
							<parameter>
								<parameterid>edgefeather</parameterid>
								<name>Softening</name>
								<valuemin>0</valuemin>
								<valuemax>100</valuemax>
								<value>0</value>
							</parameter>
							<parameter>
								<parameterid>label7</parameterid>
								<name>Mask Control</name>
								<value/>
							</parameter>
							<parameter>
								<parameterid>invertsel</parameterid>
								<name>Invert</name>
								<value>FALSE</value>
							</parameter>
							<parameter>
								<parameterid>debugshow</parameterid>
								<name>Show Stats</name>
								<value>FALSE</value>
							</parameter>
						</effect>
					</filter>
					<filter>
						<effect>
							<name>Opacity</name>
							<effectid>opacity</effectid>
							<effectcategory>motion</effectcategory>
							<effecttype>motion</effecttype>
							<mediatype>video</mediatype>
							<parameter>
								<parameterid>opacity</parameterid>
								<name>opacity</name>
								<valuemin>0</valuemin>
								<valuemax>100</valuemax>
								<value>100</value>
							</parameter>
						</effect>
					</filter>
					<sourcetrack>
						<mediatype>video</mediatype>
					</sourcetrack>
					<fielddominance>upper</fielddominance>
					<itemhistory>
						<uuid>94F7F442-BA90-4623-99EB-51CDDB6BEFC7</uuid>
					</itemhistory>
				</clipitem>
				<clipitem id="Clip1ATK34 ">
					<name>Clip1ATK34</name>
					<duration>666</duration>
					<rate>
						<ntsc>FALSE</ntsc>
						<timebase>25</timebase>
					</rate>
					<in>362</in>
					<out>433</out>
					<start>1172</start>
					<end>1243</end>
					<pixelaspectratio>Square</pixelaspectratio>
					<enabled>TRUE</enabled>
					<anamorphic>FALSE</anamorphic>
					<alphatype>none</alphatype>
					<masterclipid>Clip1ATK34 1</masterclipid>
					<logginginfo>
						<scene/>
						<shottake/>
						<lognote/>
						<good>FALSE</good>
					</logginginfo>
					<labels>
						<label2/>
					</labels>
					<comments>
						<mastercomment1/>
						<mastercomment2/>
						<mastercomment3/>
						<mastercomment4/>
					</comments>
					<file id="Clip1ATK34 2">
						<name>Clip1ATK34.mov</name>
						<pathurl>file://localhost/Volumes/Askepott/Prosjekter/DNPR637010_Kra%CC%8Akeklubben_TEM_011212/Video/MELLOMSTIKK/S01E%20Spor%20i%20sn%C3%B8en/AJA/Clip1ATK34.mov</pathurl>
						<rate>
							<timebase>25</timebase>
						</rate>
						<duration>666</duration>
						<timecode>
							<rate>
								<timebase>25</timebase>
							</rate>
							<string>22:36:20:21</string>
							<frame>2034521</frame>
							<displayformat>NDF</displayformat>
							<source>source</source>
							<reel>
								<name>1</name>
							</reel>
						</timecode>
						<media>
							<video>
								<duration>666</duration>
								<samplecharacteristics>
									<width>1920</width>
									<height>1080</height>
								</samplecharacteristics>
							</video>
							<audio>
								<samplecharacteristics>
									<samplerate>48000</samplerate>
									<depth>24</depth>
								</samplecharacteristics>
								<channelcount>1</channelcount>
							</audio>
							<audio>
								<samplecharacteristics>
									<samplerate>48000</samplerate>
									<depth>24</depth>
								</samplecharacteristics>
								<channelcount>1</channelcount>
							</audio>
						</media>
					</file>
					<filter>
						<effect>
							<name>Opacity</name>
							<effectid>opacity</effectid>
							<effectcategory>motion</effectcategory>
							<effecttype>motion</effecttype>
							<mediatype>video</mediatype>
							<parameter>
								<parameterid>opacity</parameterid>
								<name>opacity</name>
								<valuemin>0</valuemin>
								<valuemax>100</valuemax>
								<value>100</value>
							</parameter>
						</effect>
					</filter>
					<sourcetrack>
						<mediatype>video</mediatype>
					</sourcetrack>
					<link>
						<linkclipref>Clip1ATK34 </linkclipref>
						<mediatype>video</mediatype>
						<trackindex>2</trackindex>
						<clipindex>3</clipindex>
					</link>
					<link>
						<linkclipref>Clip1ATK34 3</linkclipref>
						<mediatype>audio</mediatype>
						<trackindex>3</trackindex>
						<clipindex>7</clipindex>
					</link>
					<fielddominance>upper</fielddominance>
					<itemhistory>
						<uuid>B89D6139-ABEC-4A74-B434-1C77204869AB</uuid>
					</itemhistory>
				</clipitem>
				<clipitem id="AA1480_01 4">
					<name>AA1480_01</name>
					<duration>432</duration>
					<rate>
						<ntsc>FALSE</ntsc>
						<timebase>25</timebase>
					</rate>
					<in>291</in>
					<out>301</out>
					<start>7908</start>
					<end>7918</end>
					<pixelaspectratio>Square</pixelaspectratio>
					<enabled>TRUE</enabled>
					<anamorphic>FALSE</anamorphic>
					<alphatype>none</alphatype>
					<masterclipid>AA1480_01 1</masterclipid>
					<logginginfo>
						<scene/>
						<shottake/>
						<lognote/>
						<good>FALSE</good>
					</logginginfo>
					<labels>
						<label2/>
					</labels>
					<comments>
						<mastercomment1/>
						<mastercomment2/>
						<mastercomment3/>
						<mastercomment4/>
					</comments>
					<file id="AA1480_01 2"/>
					<filter>
						<effect>
							<name>Basic Motion</name>
							<effectid>basic</effectid>
							<effectcategory>motion</effectcategory>
							<effecttype>motion</effecttype>
							<mediatype>video</mediatype>
							<parameter>
								<parameterid>scale</parameterid>
								<name>Scale</name>
								<valuemin>0</valuemin>
								<valuemax>1000</valuemax>
								<value>115</value>
							</parameter>
							<parameter>
								<parameterid>rotation</parameterid>
								<name>Rotation</name>
								<valuemin>-8640</valuemin>
								<valuemax>8640</valuemax>
								<value>0</value>
							</parameter>
							<parameter>
								<parameterid>center</parameterid>
								<name>Center</name>
								<value>
									<horiz>0.00132802</horiz>
									<vert>0.0306604</vert>
								</value>
							</parameter>
							<parameter>
								<parameterid>centerOffset</parameterid>
								<name>Anchor Point</name>
								<value>
									<horiz>0</horiz>
									<vert>0</vert>
								</value>
							</parameter>
						</effect>
					</filter>
					<filter>
						<enabled>FALSE</enabled>
						<effect>
							<name>Drop Shadow</name>
							<effectid>dropshadow</effectid>
							<effectcategory>motion</effectcategory>
							<effecttype>motion</effecttype>
							<mediatype>video</mediatype>
							<parameter>
								<parameterid>offset</parameterid>
								<name>offset</name>
								<valuemin>-100</valuemin>
								<valuemax>100</valuemax>
								<value>2</value>
							</parameter>
							<parameter>
								<parameterid>angle</parameterid>
								<name>angle</name>
								<valuemin>-720</valuemin>
								<valuemax>720</valuemax>
								<value>135</value>
							</parameter>
							<parameter>
								<parameterid>color</parameterid>
								<name>color</name>
								<value>
									<alpha>0</alpha>
									<red>0</red>
									<green>0</green>
									<blue>0</blue>
								</value>
							</parameter>
							<parameter>
								<parameterid>softness</parameterid>
								<name>softness</name>
								<valuemin>0</valuemin>
								<valuemax>100</valuemax>
								<value>10</value>
							</parameter>
							<parameter>
								<parameterid>opacity</parameterid>
								<name>opacity</name>
								<valuemin>0</valuemin>
								<valuemax>100</valuemax>
								<value>50</value>
							</parameter>
						</effect>
					</filter>
					<filter>
						<enabled>FALSE</enabled>
						<effect>
							<name>Motion Blur</name>
							<effectid>motionblur</effectid>
							<effectcategory>motion</effectcategory>
							<effecttype>motion</effecttype>
							<mediatype>video</mediatype>
							<parameter>
								<parameterid>duration</parameterid>
								<name>% Blur</name>
								<valuemin>0</valuemin>
								<valuemax>1000</valuemax>
								<value>500</value>
							</parameter>
							<parameter>
								<parameterid>samples</parameterid>
								<name>Samples</name>
								<valuemin>1</valuemin>
								<valuemax>16</valuemax>
								<value>4</value>
							</parameter>
						</effect>
					</filter>
					<filter>
						<effect>
							<name>Crop</name>
							<effectid>crop</effectid>
							<effectcategory>motion</effectcategory>
							<effecttype>motion</effecttype>
							<mediatype>video</mediatype>
							<parameter>
								<parameterid>left</parameterid>
								<name>left</name>
								<valuemin>0</valuemin>
								<valuemax>100</valuemax>
								<value>0</value>
							</parameter>
							<parameter>
								<parameterid>right</parameterid>
								<name>right</name>
								<valuemin>0</valuemin>
								<valuemax>100</valuemax>
								<value>0</value>
							</parameter>
							<parameter>
								<parameterid>top</parameterid>
								<name>top</name>
								<valuemin>0</valuemin>
								<valuemax>100</valuemax>
								<keyframe>
									<when>291</when>
									<value>0</value>
								</keyframe>
								<keyframe>
									<when>294</when>
									<value>30</value>
								</keyframe>
								<keyframe>
									<when>298</when>
									<value>75</value>
								</keyframe>
								<keyframe>
									<when>300</when>
									<value>100</value>
								</keyframe>
								<interpolation>
									<name>FCPCurve</name>
								</interpolation>
								<value>87.5</value>
							</parameter>
							<parameter>
								<parameterid>bottom</parameterid>
								<name>bottom</name>
								<valuemin>0</valuemin>
								<valuemax>100</valuemax>
								<value>0</value>
							</parameter>
							<parameter>
								<parameterid>edgefeather</parameterid>
								<name>edgefeather</name>
								<valuemin>0</valuemin>
								<valuemax>100</valuemax>
								<value>10</value>
							</parameter>
						</effect>
					</filter>
					<filter>
						<effect>
							<name>Distort</name>
							<effectid>deformation</effectid>
							<effectcategory>motion</effectcategory>
							<effecttype>motion</effecttype>
							<mediatype>video</mediatype>
							<parameter>
								<parameterid>ulcorner</parameterid>
								<name>Upper Left</name>
								<value>
									<horiz>-0.5</horiz>
									<vert>-0.5</vert>
								</value>
							</parameter>
							<parameter>
								<parameterid>urcorner</parameterid>
								<name>Upper Right</name>
								<value>
									<horiz>0.5</horiz>
									<vert>-0.5</vert>
								</value>
							</parameter>
							<parameter>
								<parameterid>lrcorner</parameterid>
								<name>Lower Right</name>
								<value>
									<horiz>0.5</horiz>
									<vert>0.5</vert>
								</value>
							</parameter>
							<parameter>
								<parameterid>llcorner</parameterid>
								<name>Lower Left</name>
								<value>
									<horiz>-0.5</horiz>
									<vert>0.5</vert>
								</value>
							</parameter>
							<parameter>
								<parameterid>aspect</parameterid>
								<name>Aspect</name>
								<valuemin>-10000</valuemin>
								<valuemax>10000</valuemax>
								<value>0</value>
							</parameter>
						</effect>
					</filter>
					<filter>
						<effect>
							<name>Opacity</name>
							<effectid>opacity</effectid>
							<effectcategory>motion</effectcategory>
							<effecttype>motion</effecttype>
							<mediatype>video</mediatype>
							<parameter>
								<parameterid>opacity</parameterid>
								<name>opacity</name>
								<valuemin>0</valuemin>
								<valuemax>100</valuemax>
								<value>100</value>
							</parameter>
						</effect>
					</filter>
					<sourcetrack>
						<mediatype>video</mediatype>
					</sourcetrack>
					<fielddominance>upper</fielddominance>
					<itemhistory>
						<uuid>7E7B7784-04D5-4F71-9234-3B0E8D4322B5</uuid>
					</itemhistory>
				</clipitem>
				<clipitem id="AA1483_01 4">
					<name>AA1483_01</name>
					<duration>408</duration>
					<rate>
						<ntsc>FALSE</ntsc>
						<timebase>25</timebase>
					</rate>
					<in>308</in>
					<out>333</out>
					<start>8457</start>
					<end>8482</end>
					<pixelaspectratio>Square</pixelaspectratio>
					<enabled>TRUE</enabled>
					<anamorphic>FALSE</anamorphic>
					<alphatype>none</alphatype>
					<masterclipid>AA1483_01 1</masterclipid>
					<logginginfo>
						<scene/>
						<shottake/>
						<lognote/>
						<good>FALSE</good>
					</logginginfo>
					<labels>
						<label2/>
					</labels>
					<comments>
						<mastercomment1/>
						<mastercomment2/>
						<mastercomment3/>
						<mastercomment4/>
					</comments>
					<file id="AA1483_01 2"/>
					<filter>
						<effect>
							<name>Basic Motion</name>
							<effectid>basic</effectid>
							<effectcategory>motion</effectcategory>
							<effecttype>motion</effecttype>
							<mediatype>video</mediatype>
							<parameter>
								<parameterid>scale</parameterid>
								<name>Scale</name>
								<valuemin>0</valuemin>
								<valuemax>1000</valuemax>
								<value>102</value>
							</parameter>
							<parameter>
								<parameterid>rotation</parameterid>
								<name>Rotation</name>
								<valuemin>-8640</valuemin>
								<valuemax>8640</valuemax>
								<value>0</value>
							</parameter>
							<parameter>
								<parameterid>center</parameterid>
								<name>Center</name>
								<value>
									<horiz>0</horiz>
									<vert>0</vert>
								</value>
							</parameter>
							<parameter>
								<parameterid>centerOffset</parameterid>
								<name>Anchor Point</name>
								<value>
									<horiz>0</horiz>
									<vert>0</vert>
								</value>
							</parameter>
						</effect>
					</filter>
					<filter>
						<enabled>FALSE</enabled>
						<effect>
							<name>Drop Shadow</name>
							<effectid>dropshadow</effectid>
							<effectcategory>motion</effectcategory>
							<effecttype>motion</effecttype>
							<mediatype>video</mediatype>
							<parameter>
								<parameterid>offset</parameterid>
								<name>offset</name>
								<valuemin>-100</valuemin>
								<valuemax>100</valuemax>
								<value>2</value>
							</parameter>
							<parameter>
								<parameterid>angle</parameterid>
								<name>angle</name>
								<valuemin>-720</valuemin>
								<valuemax>720</valuemax>
								<value>135</value>
							</parameter>
							<parameter>
								<parameterid>color</parameterid>
								<name>color</name>
								<value>
									<alpha>0</alpha>
									<red>0</red>
									<green>0</green>
									<blue>0</blue>
								</value>
							</parameter>
							<parameter>
								<parameterid>softness</parameterid>
								<name>softness</name>
								<valuemin>0</valuemin>
								<valuemax>100</valuemax>
								<value>10</value>
							</parameter>
							<parameter>
								<parameterid>opacity</parameterid>
								<name>opacity</name>
								<valuemin>0</valuemin>
								<valuemax>100</valuemax>
								<value>50</value>
							</parameter>
						</effect>
					</filter>
					<filter>
						<enabled>FALSE</enabled>
						<effect>
							<name>Motion Blur</name>
							<effectid>motionblur</effectid>
							<effectcategory>motion</effectcategory>
							<effecttype>motion</effecttype>
							<mediatype>video</mediatype>
							<parameter>
								<parameterid>duration</parameterid>
								<name>% Blur</name>
								<valuemin>0</valuemin>
								<valuemax>1000</valuemax>
								<value>500</value>
							</parameter>
							<parameter>
								<parameterid>samples</parameterid>
								<name>Samples</name>
								<valuemin>1</valuemin>
								<valuemax>16</valuemax>
								<value>4</value>
							</parameter>
						</effect>
					</filter>
					<filter>
						<effect>
							<name>Crop</name>
							<effectid>crop</effectid>
							<effectcategory>motion</effectcategory>
							<effecttype>motion</effecttype>
							<mediatype>video</mediatype>
							<parameter>
								<parameterid>left</parameterid>
								<name>left</name>
								<valuemin>0</valuemin>
								<valuemax>100</valuemax>
								<keyframe>
									<when>312</when>
									<value>0</value>
								</keyframe>
								<keyframe>
									<when>317</when>
									<value>19</value>
								</keyframe>
								<keyframe>
									<when>321</when>
									<value>42</value>
								</keyframe>
								<keyframe>
									<when>324</when>
									<value>59</value>
								</keyframe>
								<keyframe>
									<when>329</when>
									<value>90</value>
								</keyframe>
								<keyframe>
									<when>332</when>
									<value>100</value>
								</keyframe>
								<interpolation>
									<name>FCPCurve</name>
								</interpolation>
								<value>100</value>
							</parameter>
							<parameter>
								<parameterid>right</parameterid>
								<name>right</name>
								<valuemin>0</valuemin>
								<valuemax>100</valuemax>
								<value>0</value>
							</parameter>
							<parameter>
								<parameterid>top</parameterid>
								<name>top</name>
								<valuemin>0</valuemin>
								<valuemax>100</valuemax>
								<value>0</value>
							</parameter>
							<parameter>
								<parameterid>bottom</parameterid>
								<name>bottom</name>
								<valuemin>0</valuemin>
								<valuemax>100</valuemax>
								<value>0</value>
							</parameter>
							<parameter>
								<parameterid>edgefeather</parameterid>
								<name>edgefeather</name>
								<valuemin>0</valuemin>
								<valuemax>100</valuemax>
								<value>10</value>
							</parameter>
						</effect>
					</filter>
					<filter>
						<effect>
							<name>Distort</name>
							<effectid>deformation</effectid>
							<effectcategory>motion</effectcategory>
							<effecttype>motion</effecttype>
							<mediatype>video</mediatype>
							<parameter>
								<parameterid>ulcorner</parameterid>
								<name>Upper Left</name>
								<value>
									<horiz>-0.5</horiz>
									<vert>-0.5</vert>
								</value>
							</parameter>
							<parameter>
								<parameterid>urcorner</parameterid>
								<name>Upper Right</name>
								<value>
									<horiz>0.5</horiz>
									<vert>-0.5</vert>
								</value>
							</parameter>
							<parameter>
								<parameterid>lrcorner</parameterid>
								<name>Lower Right</name>
								<value>
									<horiz>0.5</horiz>
									<vert>0.5</vert>
								</value>
							</parameter>
							<parameter>
								<parameterid>llcorner</parameterid>
								<name>Lower Left</name>
								<value>
									<horiz>-0.5</horiz>
									<vert>0.5</vert>
								</value>
							</parameter>
							<parameter>
								<parameterid>aspect</parameterid>
								<name>Aspect</name>
								<valuemin>-10000</valuemin>
								<valuemax>10000</valuemax>
								<value>0</value>
							</parameter>
						</effect>
					</filter>
					<filter>
						<effect>
							<name>Opacity</name>
							<effectid>opacity</effectid>
							<effectcategory>motion</effectcategory>
							<effecttype>motion</effecttype>
							<mediatype>video</mediatype>
							<parameter>
								<parameterid>opacity</parameterid>
								<name>opacity</name>
								<valuemin>0</valuemin>
								<valuemax>100</valuemax>
								<value>100</value>
							</parameter>
						</effect>
					</filter>
					<sourcetrack>
						<mediatype>video</mediatype>
					</sourcetrack>
					<fielddominance>upper</fielddominance>
					<itemhistory>
						<uuid>81930C16-BE2E-4BB5-B327-9DD199595C2E</uuid>
					</itemhistory>
				</clipitem>
				<clipitem id="AA1484_01 3">
					<name>AA1484_01</name>
					<duration>480</duration>
					<rate>
						<ntsc>FALSE</ntsc>
						<timebase>25</timebase>
					</rate>
					<in>380</in>
					<out>405</out>
					<start>9194</start>
					<end>9219</end>
					<pixelaspectratio>Square</pixelaspectratio>
					<enabled>TRUE</enabled>
					<anamorphic>FALSE</anamorphic>
					<alphatype>none</alphatype>
					<masterclipid>AA1484_01 1</masterclipid>
					<logginginfo>
						<scene/>
						<shottake/>
						<lognote/>
						<good>FALSE</good>
					</logginginfo>
					<labels>
						<label2/>
					</labels>
					<comments>
						<mastercomment1/>
						<mastercomment2/>
						<mastercomment3/>
						<mastercomment4/>
					</comments>
					<file id="AA1484_01 2"/>
					<filter>
						<effect>
							<name>Basic Motion</name>
							<effectid>basic</effectid>
							<effectcategory>motion</effectcategory>
							<effecttype>motion</effecttype>
							<mediatype>video</mediatype>
							<parameter>
								<parameterid>scale</parameterid>
								<name>Scale</name>
								<valuemin>0</valuemin>
								<valuemax>1000</valuemax>
								<value>102</value>
							</parameter>
							<parameter>
								<parameterid>rotation</parameterid>
								<name>Rotation</name>
								<valuemin>-8640</valuemin>
								<valuemax>8640</valuemax>
								<value>0</value>
							</parameter>
							<parameter>
								<parameterid>center</parameterid>
								<name>Center</name>
								<value>
									<horiz>0</horiz>
									<vert>0</vert>
								</value>
							</parameter>
							<parameter>
								<parameterid>centerOffset</parameterid>
								<name>Anchor Point</name>
								<value>
									<horiz>0</horiz>
									<vert>0</vert>
								</value>
							</parameter>
						</effect>
					</filter>
					<filter>
						<enabled>FALSE</enabled>
						<effect>
							<name>Drop Shadow</name>
							<effectid>dropshadow</effectid>
							<effectcategory>motion</effectcategory>
							<effecttype>motion</effecttype>
							<mediatype>video</mediatype>
							<parameter>
								<parameterid>offset</parameterid>
								<name>offset</name>
								<valuemin>-100</valuemin>
								<valuemax>100</valuemax>
								<value>2</value>
							</parameter>
							<parameter>
								<parameterid>angle</parameterid>
								<name>angle</name>
								<valuemin>-720</valuemin>
								<valuemax>720</valuemax>
								<value>135</value>
							</parameter>
							<parameter>
								<parameterid>color</parameterid>
								<name>color</name>
								<value>
									<alpha>0</alpha>
									<red>0</red>
									<green>0</green>
									<blue>0</blue>
								</value>
							</parameter>
							<parameter>
								<parameterid>softness</parameterid>
								<name>softness</name>
								<valuemin>0</valuemin>
								<valuemax>100</valuemax>
								<value>10</value>
							</parameter>
							<parameter>
								<parameterid>opacity</parameterid>
								<name>opacity</name>
								<valuemin>0</valuemin>
								<valuemax>100</valuemax>
								<value>50</value>
							</parameter>
						</effect>
					</filter>
					<filter>
						<enabled>FALSE</enabled>
						<effect>
							<name>Motion Blur</name>
							<effectid>motionblur</effectid>
							<effectcategory>motion</effectcategory>
							<effecttype>motion</effecttype>
							<mediatype>video</mediatype>
							<parameter>
								<parameterid>duration</parameterid>
								<name>% Blur</name>
								<valuemin>0</valuemin>
								<valuemax>1000</valuemax>
								<value>500</value>
							</parameter>
							<parameter>
								<parameterid>samples</parameterid>
								<name>Samples</name>
								<valuemin>1</valuemin>
								<valuemax>16</valuemax>
								<value>4</value>
							</parameter>
						</effect>
					</filter>
					<filter>
						<effect>
							<name>Crop</name>
							<effectid>crop</effectid>
							<effectcategory>motion</effectcategory>
							<effecttype>motion</effecttype>
							<mediatype>video</mediatype>
							<parameter>
								<parameterid>left</parameterid>
								<name>left</name>
								<valuemin>0</valuemin>
								<valuemax>100</valuemax>
								<value>0</value>
							</parameter>
							<parameter>
								<parameterid>right</parameterid>
								<name>right</name>
								<valuemin>0</valuemin>
								<valuemax>100</valuemax>
								<keyframe>
									<when>381</when>
									<value>0</value>
								</keyframe>
								<keyframe>
									<when>386</when>
									<value>20</value>
								</keyframe>
								<keyframe>
									<when>391</when>
									<value>44</value>
								</keyframe>
								<keyframe>
									<when>396</when>
									<value>63</value>
								</keyframe>
								<keyframe>
									<when>400</when>
									<value>80</value>
								</keyframe>
								<keyframe>
									<when>405</when>
									<value>100</value>
								</keyframe>
								<interpolation>
									<name>FCPCurve</name>
								</interpolation>
								<value>51.6</value>
							</parameter>
							<parameter>
								<parameterid>top</parameterid>
								<name>top</name>
								<valuemin>0</valuemin>
								<valuemax>100</valuemax>
								<value>0</value>
							</parameter>
							<parameter>
								<parameterid>bottom</parameterid>
								<name>bottom</name>
								<valuemin>0</valuemin>
								<valuemax>100</valuemax>
								<value>0</value>
							</parameter>
							<parameter>
								<parameterid>edgefeather</parameterid>
								<name>edgefeather</name>
								<valuemin>0</valuemin>
								<valuemax>100</valuemax>
								<value>10</value>
							</parameter>
						</effect>
					</filter>
					<filter>
						<effect>
							<name>Distort</name>
							<effectid>deformation</effectid>
							<effectcategory>motion</effectcategory>
							<effecttype>motion</effecttype>
							<mediatype>video</mediatype>
							<parameter>
								<parameterid>ulcorner</parameterid>
								<name>Upper Left</name>
								<value>
									<horiz>-0.5</horiz>
									<vert>-0.5</vert>
								</value>
							</parameter>
							<parameter>
								<parameterid>urcorner</parameterid>
								<name>Upper Right</name>
								<value>
									<horiz>0.5</horiz>
									<vert>-0.5</vert>
								</value>
							</parameter>
							<parameter>
								<parameterid>lrcorner</parameterid>
								<name>Lower Right</name>
								<value>
									<horiz>0.5</horiz>
									<vert>0.5</vert>
								</value>
							</parameter>
							<parameter>
								<parameterid>llcorner</parameterid>
								<name>Lower Left</name>
								<value>
									<horiz>-0.5</horiz>
									<vert>0.5</vert>
								</value>
							</parameter>
							<parameter>
								<parameterid>aspect</parameterid>
								<name>Aspect</name>
								<valuemin>-10000</valuemin>
								<valuemax>10000</valuemax>
								<value>0</value>
							</parameter>
						</effect>
					</filter>
					<filter>
						<effect>
							<name>Opacity</name>
							<effectid>opacity</effectid>
							<effectcategory>motion</effectcategory>
							<effecttype>motion</effecttype>
							<mediatype>video</mediatype>
							<parameter>
								<parameterid>opacity</parameterid>
								<name>opacity</name>
								<valuemin>0</valuemin>
								<valuemax>100</valuemax>
								<value>100</value>
							</parameter>
						</effect>
					</filter>
					<sourcetrack>
						<mediatype>video</mediatype>
					</sourcetrack>
					<fielddominance>upper</fielddominance>
					<itemhistory>
						<uuid>97D8FFE9-86EA-4D3A-83CE-BFC652AD822A</uuid>
					</itemhistory>
				</clipitem>
				<clipitem id="Oter aker AFX">
					<name>Oter aker AFX</name>
					<duration>105</duration>
					<rate>
						<ntsc>FALSE</ntsc>
						<timebase>25</timebase>
					</rate>
					<in>0</in>
					<out>50</out>
					<start>9445</start>
					<end>9495</end>
					<pixelaspectratio>Square</pixelaspectratio>
					<anamorphic>FALSE</anamorphic>
					<alphatype>none</alphatype>
					<masterclipid>Oter aker AFX1</masterclipid>
					<logginginfo>
						<scene/>
						<shottake/>
						<lognote/>
						<good>FALSE</good>
					</logginginfo>
					<labels>
						<label2/>
					</labels>
					<comments>
						<mastercomment1/>
						<mastercomment2/>
						<mastercomment3/>
						<mastercomment4/>
					</comments>
					<file id="Oter aker AFX2">
						<name>Oter aker AFX.mov</name>
						<pathurl>file://localhost/Volumes/Askepott/Prosjekter/DNPR637010_Kra%CC%8Akeklubben_TEM_011212/Eksport/S02E18/Oter%20aker%20AFX.mov</pathurl>
						<rate>
							<timebase>25</timebase>
						</rate>
						<duration>105</duration>
						<timecode>
							<rate>
								<timebase>25</timebase>
							</rate>
							<string>00:00:00:00</string>
							<frame>0</frame>
							<displayformat>NDF</displayformat>
							<source>source</source>
						</timecode>
						<media>
							<video>
								<duration>105</duration>
								<samplecharacteristics>
									<width>1920</width>
									<height>1080</height>
								</samplecharacteristics>
							</video>
						</media>
					</file>
					<sourcetrack>
						<mediatype>video</mediatype>
					</sourcetrack>
					<fielddominance>upper</fielddominance>
					<itemhistory>
						<uuid>271D607C-E10C-4046-BFA5-271C658BFB03</uuid>
					</itemhistory>
				</clipitem>
				<clipitem id="Oter aker AFX3">
					<name>Oter aker AFX</name>
					<duration>174</duration>
					<rate>
						<ntsc>FALSE</ntsc>
						<timebase>25</timebase>
					</rate>
					<in>83</in>
					<out>136</out>
					<start>9495</start>
					<end>-1</end>
					<pixelaspectratio>Square</pixelaspectratio>
					<enabled>TRUE</enabled>
					<anamorphic>FALSE</anamorphic>
					<alphatype>none</alphatype>
					<masterclipid>Oter aker AFX1</masterclipid>
					<logginginfo>
						<scene/>
						<shottake/>
						<lognote/>
						<good>FALSE</good>
					</logginginfo>
					<labels>
						<label2/>
					</labels>
					<comments>
						<mastercomment1/>
						<mastercomment2/>
						<mastercomment3/>
						<mastercomment4/>
					</comments>
					<file id="Oter aker AFX2"/>
					<filter>
						<effect>
							<name>Basic Motion</name>
							<effectid>basic</effectid>
							<effectcategory>motion</effectcategory>
							<effecttype>motion</effecttype>
							<mediatype>video</mediatype>
							<parameter>
								<parameterid>scale</parameterid>
								<name>Scale</name>
								<valuemin>0</valuemin>
								<valuemax>1000</valuemax>
								<keyframe>
									<when>88</when>
									<value>100</value>
									<outscale>0</outscale>
									<outbez>
										<horiz>16</horiz>
										<vert>0</vert>
									</outbez>
								</keyframe>
								<keyframe>
									<when>152</when>
									<value>119</value>
									<inscale>0</inscale>
									<inbez>
										<horiz>16</horiz>
										<vert>-3.14159</vert>
									</inbez>
								</keyframe>
								<interpolation>
									<name>FCPCurve</name>
								</interpolation>
								<value>100</value>
							</parameter>
							<parameter>
								<parameterid>rotation</parameterid>
								<name>Rotation</name>
								<valuemin>-8640</valuemin>
								<valuemax>8640</valuemax>
								<value>0</value>
							</parameter>
							<parameter>
								<parameterid>center</parameterid>
								<name>Center</name>
								<keyframe>
									<when>88</when>
									<value>
										<horiz>0</horiz>
										<vert>0</vert>
									</value>
								</keyframe>
								<keyframe>
									<when>152</when>
									<value>
										<horiz>0</horiz>
										<vert>0.0925926</vert>
									</value>
								</keyframe>
								<interpolation>
									<name>FCPCurve</name>
								</interpolation>
							</parameter>
							<parameter>
								<parameterid>centerOffset</parameterid>
								<name>Anchor Point</name>
								<value>
									<horiz>0</horiz>
									<vert>0</vert>
								</value>
							</parameter>
						</effect>
					</filter>
					<filter>
						<enabled>FALSE</enabled>
						<effect>
							<name>Drop Shadow</name>
							<effectid>dropshadow</effectid>
							<effectcategory>motion</effectcategory>
							<effecttype>motion</effecttype>
							<mediatype>video</mediatype>
							<parameter>
								<parameterid>offset</parameterid>
								<name>offset</name>
								<valuemin>-100</valuemin>
								<valuemax>100</valuemax>
								<value>2</value>
							</parameter>
							<parameter>
								<parameterid>angle</parameterid>
								<name>angle</name>
								<valuemin>-720</valuemin>
								<valuemax>720</valuemax>
								<value>135</value>
							</parameter>
							<parameter>
								<parameterid>color</parameterid>
								<name>color</name>
								<value>
									<alpha>0</alpha>
									<red>0</red>
									<green>0</green>
									<blue>0</blue>
								</value>
							</parameter>
							<parameter>
								<parameterid>softness</parameterid>
								<name>softness</name>
								<valuemin>0</valuemin>
								<valuemax>100</valuemax>
								<value>10</value>
							</parameter>
							<parameter>
								<parameterid>opacity</parameterid>
								<name>opacity</name>
								<valuemin>0</valuemin>
								<valuemax>100</valuemax>
								<value>50</value>
							</parameter>
						</effect>
					</filter>
					<filter>
						<enabled>FALSE</enabled>
						<effect>
							<name>Motion Blur</name>
							<effectid>motionblur</effectid>
							<effectcategory>motion</effectcategory>
							<effecttype>motion</effecttype>
							<mediatype>video</mediatype>
							<parameter>
								<parameterid>duration</parameterid>
								<name>% Blur</name>
								<valuemin>0</valuemin>
								<valuemax>1000</valuemax>
								<value>500</value>
							</parameter>
							<parameter>
								<parameterid>samples</parameterid>
								<name>Samples</name>
								<valuemin>1</valuemin>
								<valuemax>16</valuemax>
								<value>4</value>
							</parameter>
						</effect>
					</filter>
					<filter>
						<effect>
							<name>Crop</name>
							<effectid>crop</effectid>
							<effectcategory>motion</effectcategory>
							<effecttype>motion</effecttype>
							<mediatype>video</mediatype>
							<parameter>
								<parameterid>left</parameterid>
								<name>left</name>
								<valuemin>0</valuemin>
								<valuemax>100</valuemax>
								<value>0</value>
							</parameter>
							<parameter>
								<parameterid>right</parameterid>
								<name>right</name>
								<valuemin>0</valuemin>
								<valuemax>100</valuemax>
								<value>0</value>
							</parameter>
							<parameter>
								<parameterid>top</parameterid>
								<name>top</name>
								<valuemin>0</valuemin>
								<valuemax>100</valuemax>
								<value>0</value>
							</parameter>
							<parameter>
								<parameterid>bottom</parameterid>
								<name>bottom</name>
								<valuemin>0</valuemin>
								<valuemax>100</valuemax>
								<value>0</value>
							</parameter>
							<parameter>
								<parameterid>edgefeather</parameterid>
								<name>edgefeather</name>
								<valuemin>0</valuemin>
								<valuemax>100</valuemax>
								<value>0</value>
							</parameter>
						</effect>
					</filter>
					<filter>
						<effect>
							<name>Distort</name>
							<effectid>deformation</effectid>
							<effectcategory>motion</effectcategory>
							<effecttype>motion</effecttype>
							<mediatype>video</mediatype>
							<parameter>
								<parameterid>ulcorner</parameterid>
								<name>Upper Left</name>
								<value>
									<horiz>-0.5</horiz>
									<vert>-0.5</vert>
								</value>
							</parameter>
							<parameter>
								<parameterid>urcorner</parameterid>
								<name>Upper Right</name>
								<value>
									<horiz>0.5</horiz>
									<vert>-0.5</vert>
								</value>
							</parameter>
							<parameter>
								<parameterid>lrcorner</parameterid>
								<name>Lower Right</name>
								<value>
									<horiz>0.5</horiz>
									<vert>0.5</vert>
								</value>
							</parameter>
							<parameter>
								<parameterid>llcorner</parameterid>
								<name>Lower Left</name>
								<value>
									<horiz>-0.5</horiz>
									<vert>0.5</vert>
								</value>
							</parameter>
							<parameter>
								<parameterid>aspect</parameterid>
								<name>Aspect</name>
								<valuemin>-10000</valuemin>
								<valuemax>10000</valuemax>
								<value>0</value>
							</parameter>
						</effect>
					</filter>
					<filter>
						<effect>
							<name>Opacity</name>
							<effectid>opacity</effectid>
							<effectcategory>motion</effectcategory>
							<effecttype>motion</effecttype>
							<mediatype>video</mediatype>
							<parameter>
								<parameterid>opacity</parameterid>
								<name>opacity</name>
								<valuemin>0</valuemin>
								<valuemax>100</valuemax>
								<value>100</value>
							</parameter>
						</effect>
					</filter>
					<sourcetrack>
						<mediatype>video</mediatype>
					</sourcetrack>
					<fielddominance>upper</fielddominance>
					<itemhistory>
						<uuid>2B0EBEA1-45E7-4E69-9756-5E871D411DD1</uuid>
					</itemhistory>
					<filter>
						<effect>
							<name>Time Remap</name>
							<effectid>timeremap</effectid>
							<effectcategory>motion</effectcategory>
							<effecttype>motion</effecttype>
							<mediatype>video</mediatype>
							<parameter>
								<parameterid>variablespeed</parameterid>
								<name>variablespeed</name>
								<valuemin>0</valuemin>
								<valuemax>1</valuemax>
								<value>0</value>
							</parameter>
							<parameter>
								<parameterid>mappedduration</parameterid>
								<name>mappedduration</name>
								<value>
									<timecode>
										<rate>
											<timebase>0</timebase>
										</rate>
										<string>0</string>
										<frame>0</frame>
										<displayformat>NDF</displayformat>
									</timecode>
								</value>
							</parameter>
							<parameter>
								<parameterid>speed</parameterid>
								<name>speed</name>
								<valuemin>-10000</valuemin>
								<valuemax>10000</valuemax>
								<value>60</value>
							</parameter>
							<parameter>
								<parameterid>reverse</parameterid>
								<name>reverse</name>
								<value>FALSE</value>
							</parameter>
							<parameter>
								<parameterid>frameblending</parameterid>
								<name>frameblending</name>
								<value>TRUE</value>
							</parameter>
							<parameter>
								<parameterid>graphdict</parameterid>
								<name>graphdict</name>
								<valuemin>0</valuemin>
								<valuemax>104</valuemax>
								<keyframe>
									<when>0</when>
									<value>0.104</value>
									<speedkfstart>TRUE</speedkfstart>
									<speedvirtualkf>TRUE</speedvirtualkf>
									<anchorOffset>0.104</anchorOffset>
								</keyframe>
								<keyframe>
									<when>83</when>
									<value>50</value>
									<speedkfin>TRUE</speedkfin>
									<speedvirtualkf>TRUE</speedvirtualkf>
								</keyframe>
								<keyframe>
									<when>136</when>
									<value>81.8612</value>
									<speedkfout>TRUE</speedkfout>
									<speedvirtualkf>TRUE</speedvirtualkf>
								</keyframe>
								<keyframe>
									<when>174</when>
									<value>105.104</value>
									<speedkfend>TRUE</speedkfend>
									<speedvirtualkf>TRUE</speedvirtualkf>
								</keyframe>
								<interpolation>
									<name>FCPCurve</name>
								</interpolation>
								<value>50</value>
							</parameter>
						</effect>
					</filter>
				</clipitem>
				<transitionitem>
					<rate>
						<ntsc>FALSE</ntsc>
						<timebase>25</timebase>
					</rate>
					<start>9503</start>
					<end>9548</end>
					<alignment>start</alignment>
					<effect>
						<name>Cross Dissolve</name>
						<effectid>Cross Dissolve</effectid>
						<effectcategory>Dissolve</effectcategory>
						<effecttype>transition</effecttype>
						<mediatype>video</mediatype>
						<wipecode>0</wipecode>
						<wipeaccuracy>100</wipeaccuracy>
						<startratio>0</startratio>
						<endratio>1</endratio>
						<reverse>FALSE</reverse>
					</effect>
				</transitionitem>
				<clipitem id="Oter aker AFX4">
					<name>Oter aker AFX</name>
					<duration>174</duration>
					<rate>
						<ntsc>FALSE</ntsc>
						<timebase>25</timebase>
					</rate>
					<in>91</in>
					<out>165</out>
					<start>-1</start>
					<end>-1</end>
					<pixelaspectratio>Square</pixelaspectratio>
					<enabled>TRUE</enabled>
					<anamorphic>FALSE</anamorphic>
					<alphatype>none</alphatype>
					<masterclipid>Oter aker AFX1</masterclipid>
					<logginginfo>
						<scene/>
						<shottake/>
						<lognote/>
						<good>FALSE</good>
					</logginginfo>
					<labels>
						<label2/>
					</labels>
					<comments>
						<mastercomment1/>
						<mastercomment2/>
						<mastercomment3/>
						<mastercomment4/>
					</comments>
					<file id="Oter aker AFX2"/>
					<filter>
						<enabled>TRUE</enabled>
						<start>-1</start>
						<end>-1</end>
						<effect>
							<name>Color Corrector 3-way</name>
							<effectid>Color Corrector 3-way</effectid>
							<effectcategory>Color Correction</effectcategory>
							<effecttype>filter</effecttype>
							<mediatype>video</mediatype>
							<parameter>
								<parameterid>dispmode</parameterid>
								<name>Display Mode</name>
								<valuemin>1</valuemin>
								<valuemax>3</valuemax>
								<valuelist>
									<valueentry>
										<name>Final</name>
										<value>1</value>
									</valueentry>
									<valueentry>
										<name>Matte</name>
										<value>2</value>
									</valueentry>
									<valueentry>
										<name>Source</name>
										<value>3</value>
									</valueentry>
								</valuelist>
								<value>1</value>
							</parameter>
							<parameter>
								<parameterid>label1</parameterid>
								<name>Blacks Controls</name>
								<value/>
							</parameter>
							<parameter>
								<parameterid>blacklevel</parameterid>
								<name>Level</name>
								<valuemin>-196</valuemin>
								<valuemax>254</valuemax>
								<value>41</value>
							</parameter>
							<parameter>
								<parameterid>b_hue</parameterid>
								<name>Angle</name>
								<valuemin>-180</valuemin>
								<valuemax>180</valuemax>
								<value>-33</value>
							</parameter>
							<parameter>
								<parameterid>b_mag</parameterid>
								<name>Magnitude</name>
								<valuemin>0</valuemin>
								<valuemax>200</valuemax>
								<value>0</value>
							</parameter>
							<parameter>
								<parameterid>label2</parameterid>
								<name>Midrange Controls</name>
								<value/>
							</parameter>
							<parameter>
								<parameterid>mids</parameterid>
								<name>Level</name>
								<valuemin>0</valuemin>
								<valuemax>200</valuemax>
								<value>120</value>
							</parameter>
							<parameter>
								<parameterid>m_hue</parameterid>
								<name>Angle</name>
								<valuemin>-180</valuemin>
								<valuemax>180</valuemax>
								<value>-33</value>
							</parameter>
							<parameter>
								<parameterid>m_mag</parameterid>
								<name>Magnitude</name>
								<valuemin>0</valuemin>
								<valuemax>200</valuemax>
								<value>0</value>
							</parameter>
							<parameter>
								<parameterid>label3</parameterid>
								<name>Highlight Controls</name>
								<value/>
							</parameter>
							<parameter>
								<parameterid>highlights</parameterid>
								<name>Level</name>
								<valuemin>64</valuemin>
								<valuemax>509</valuemax>
								<value>303</value>
							</parameter>
							<parameter>
								<parameterid>h_hue</parameterid>
								<name>Angle</name>
								<valuemin>-180</valuemin>
								<valuemax>180</valuemax>
								<value>-33</value>
							</parameter>
							<parameter>
								<parameterid>h_mag</parameterid>
								<name>Magnitude</name>
								<valuemin>0</valuemin>
								<valuemax>200</valuemax>
								<value>0</value>
							</parameter>
							<parameter>
								<parameterid>label4</parameterid>
								<name>Color Controls</name>
								<value/>
							</parameter>
							<parameter>
								<parameterid>chroma</parameterid>
								<name>Saturation</name>
								<valuemin>0</valuemin>
								<valuemax>200</valuemax>
								<value>100</value>
							</parameter>
							<parameter>
								<parameterid>label5</parameterid>
								<name>Limit Effect Controls</name>
								<value/>
							</parameter>
							<parameter>
								<parameterid>dochroma</parameterid>
								<name>Limit on Chroma</name>
								<value>FALSE</value>
							</parameter>
							<parameter>
								<parameterid>centerang</parameterid>
								<name>Chroma Center</name>
								<valuemin>-760</valuemin>
								<valuemax>760</valuemax>
								<value>-110</value>
							</parameter>
							<parameter>
								<parameterid>chromawidth</parameterid>
								<name>Chroma Width</name>
								<valuemin>0</valuemin>
								<valuemax>360</valuemax>
								<value>15</value>
							</parameter>
							<parameter>
								<parameterid>chromasoft</parameterid>
								<name>Chroma Softness</name>
								<valuemin>0</valuemin>
								<valuemax>180</valuemax>
								<value>10</value>
							</parameter>
							<parameter>
								<parameterid>dosat</parameterid>
								<name>Limit on Saturation</name>
								<value>FALSE</value>
							</parameter>
							<parameter>
								<parameterid>satmin</parameterid>
								<name>Sat. Minimum</name>
								<valuemin>0</valuemin>
								<valuemax>125</valuemax>
								<value>35</value>
							</parameter>
							<parameter>
								<parameterid>satwidth</parameterid>
								<name>Sat. Width</name>
								<valuemin>0</valuemin>
								<valuemax>125</valuemax>
								<value>40</value>
							</parameter>
							<parameter>
								<parameterid>satsoft</parameterid>
								<name>Sat. Softness</name>
								<valuemin>0</valuemin>
								<valuemax>125</valuemax>
								<value>20</value>
							</parameter>
							<parameter>
								<parameterid>doluma</parameterid>
								<name>Limit on Luma</name>
								<value>FALSE</value>
							</parameter>
							<parameter>
								<parameterid>lumamin</parameterid>
								<name>Luma Minimum</name>
								<valuemin>0</valuemin>
								<valuemax>120</valuemax>
								<value>0</value>
							</parameter>
							<parameter>
								<parameterid>lumawidth</parameterid>
								<name>Luma Width</name>
								<valuemin>0</valuemin>
								<valuemax>120</valuemax>
								<value>40</value>
							</parameter>
							<parameter>
								<parameterid>lumasoft</parameterid>
								<name>Luma Softness</name>
								<valuemin>0</valuemin>
								<valuemax>120</valuemax>
								<value>20</value>
							</parameter>
							<parameter>
								<parameterid>label6</parameterid>
								<name>Edge Control</name>
								<value/>
							</parameter>
							<parameter>
								<parameterid>edgethin</parameterid>
								<name>Thin/Spread</name>
								<valuemin>-100</valuemin>
								<valuemax>100</valuemax>
								<value>0</value>
							</parameter>
							<parameter>
								<parameterid>edgefeather</parameterid>
								<name>Softening</name>
								<valuemin>0</valuemin>
								<valuemax>100</valuemax>
								<value>0</value>
							</parameter>
							<parameter>
								<parameterid>label7</parameterid>
								<name>Mask Control</name>
								<value/>
							</parameter>
							<parameter>
								<parameterid>invertsel</parameterid>
								<name>Invert</name>
								<value>FALSE</value>
							</parameter>
							<parameter>
								<parameterid>debugshow</parameterid>
								<name>Show Stats</name>
								<value>FALSE</value>
							</parameter>
						</effect>
					</filter>
					<filter>
						<enabled>TRUE</enabled>
						<start>-1</start>
						<end>-1</end>
						<effect>
							<name>Gaussian Blur</name>
							<effectid>Gaussian Blur</effectid>
							<effectcategory>Blur</effectcategory>
							<effecttype>filter</effecttype>
							<mediatype>video</mediatype>
							<parameter>
								<parameterid>channel</parameterid>
								<name>Channel</name>
								<valuemin>1</valuemin>
								<valuemax>7</valuemax>
								<valuelist>
									<valueentry>
										<name>Alpha+RGB</name>
										<value>1</value>
									</valueentry>
									<valueentry>
										<name>Alpha</name>
										<value>2</value>
									</valueentry>
									<valueentry>
										<name>RGB</name>
										<value>3</value>
									</valueentry>
									<valueentry>
										<name>Red</name>
										<value>4</value>
									</valueentry>
									<valueentry>
										<name>Green</name>
										<value>5</value>
									</valueentry>
									<valueentry>
										<name>Blue</name>
										<value>6</value>
									</valueentry>
									<valueentry>
										<name>Luminance</name>
										<value>7</value>
									</valueentry>
								</valuelist>
								<value>1</value>
							</parameter>
							<parameter>
								<parameterid>radius</parameterid>
								<name>Radius</name>
								<valuemin>0</valuemin>
								<valuemax>100</valuemax>
								<value>10</value>
							</parameter>
						</effect>
					</filter>
					<filter>
						<effect>
							<name>Basic Motion</name>
							<effectid>basic</effectid>
							<effectcategory>motion</effectcategory>
							<effecttype>motion</effecttype>
							<mediatype>video</mediatype>
							<parameter>
								<parameterid>scale</parameterid>
								<name>Scale</name>
								<valuemin>0</valuemin>
								<valuemax>1000</valuemax>
								<keyframe>
									<when>88</when>
									<value>100</value>
									<outscale>0</outscale>
									<outbez>
										<horiz>16</horiz>
										<vert>0</vert>
									</outbez>
								</keyframe>
								<keyframe>
									<when>152</when>
									<value>119</value>
									<inscale>0</inscale>
									<inbez>
										<horiz>16</horiz>
										<vert>-3.14159</vert>
									</inbez>
								</keyframe>
								<interpolation>
									<name>FCPCurve</name>
								</interpolation>
								<value>100</value>
							</parameter>
							<parameter>
								<parameterid>rotation</parameterid>
								<name>Rotation</name>
								<valuemin>-8640</valuemin>
								<valuemax>8640</valuemax>
								<value>0</value>
							</parameter>
							<parameter>
								<parameterid>center</parameterid>
								<name>Center</name>
								<keyframe>
									<when>88</when>
									<value>
										<horiz>0</horiz>
										<vert>0</vert>
									</value>
								</keyframe>
								<keyframe>
									<when>152</when>
									<value>
										<horiz>0</horiz>
										<vert>0.0925926</vert>
									</value>
								</keyframe>
								<interpolation>
									<name>FCPCurve</name>
								</interpolation>
							</parameter>
							<parameter>
								<parameterid>centerOffset</parameterid>
								<name>Anchor Point</name>
								<value>
									<horiz>0</horiz>
									<vert>0</vert>
								</value>
							</parameter>
						</effect>
					</filter>
					<filter>
						<enabled>FALSE</enabled>
						<effect>
							<name>Drop Shadow</name>
							<effectid>dropshadow</effectid>
							<effectcategory>motion</effectcategory>
							<effecttype>motion</effecttype>
							<mediatype>video</mediatype>
							<parameter>
								<parameterid>offset</parameterid>
								<name>offset</name>
								<valuemin>-100</valuemin>
								<valuemax>100</valuemax>
								<value>2</value>
							</parameter>
							<parameter>
								<parameterid>angle</parameterid>
								<name>angle</name>
								<valuemin>-720</valuemin>
								<valuemax>720</valuemax>
								<value>135</value>
							</parameter>
							<parameter>
								<parameterid>color</parameterid>
								<name>color</name>
								<value>
									<alpha>0</alpha>
									<red>0</red>
									<green>0</green>
									<blue>0</blue>
								</value>
							</parameter>
							<parameter>
								<parameterid>softness</parameterid>
								<name>softness</name>
								<valuemin>0</valuemin>
								<valuemax>100</valuemax>
								<value>10</value>
							</parameter>
							<parameter>
								<parameterid>opacity</parameterid>
								<name>opacity</name>
								<valuemin>0</valuemin>
								<valuemax>100</valuemax>
								<value>50</value>
							</parameter>
						</effect>
					</filter>
					<filter>
						<enabled>FALSE</enabled>
						<effect>
							<name>Motion Blur</name>
							<effectid>motionblur</effectid>
							<effectcategory>motion</effectcategory>
							<effecttype>motion</effecttype>
							<mediatype>video</mediatype>
							<parameter>
								<parameterid>duration</parameterid>
								<name>% Blur</name>
								<valuemin>0</valuemin>
								<valuemax>1000</valuemax>
								<value>500</value>
							</parameter>
							<parameter>
								<parameterid>samples</parameterid>
								<name>Samples</name>
								<valuemin>1</valuemin>
								<valuemax>16</valuemax>
								<value>4</value>
							</parameter>
						</effect>
					</filter>
					<filter>
						<effect>
							<name>Crop</name>
							<effectid>crop</effectid>
							<effectcategory>motion</effectcategory>
							<effecttype>motion</effecttype>
							<mediatype>video</mediatype>
							<parameter>
								<parameterid>left</parameterid>
								<name>left</name>
								<valuemin>0</valuemin>
								<valuemax>100</valuemax>
								<value>0</value>
							</parameter>
							<parameter>
								<parameterid>right</parameterid>
								<name>right</name>
								<valuemin>0</valuemin>
								<valuemax>100</valuemax>
								<value>0</value>
							</parameter>
							<parameter>
								<parameterid>top</parameterid>
								<name>top</name>
								<valuemin>0</valuemin>
								<valuemax>100</valuemax>
								<value>0</value>
							</parameter>
							<parameter>
								<parameterid>bottom</parameterid>
								<name>bottom</name>
								<valuemin>0</valuemin>
								<valuemax>100</valuemax>
								<value>0</value>
							</parameter>
							<parameter>
								<parameterid>edgefeather</parameterid>
								<name>edgefeather</name>
								<valuemin>0</valuemin>
								<valuemax>100</valuemax>
								<value>0</value>
							</parameter>
						</effect>
					</filter>
					<filter>
						<effect>
							<name>Distort</name>
							<effectid>deformation</effectid>
							<effectcategory>motion</effectcategory>
							<effecttype>motion</effecttype>
							<mediatype>video</mediatype>
							<parameter>
								<parameterid>ulcorner</parameterid>
								<name>Upper Left</name>
								<value>
									<horiz>-0.5</horiz>
									<vert>-0.5</vert>
								</value>
							</parameter>
							<parameter>
								<parameterid>urcorner</parameterid>
								<name>Upper Right</name>
								<value>
									<horiz>0.5</horiz>
									<vert>-0.5</vert>
								</value>
							</parameter>
							<parameter>
								<parameterid>lrcorner</parameterid>
								<name>Lower Right</name>
								<value>
									<horiz>0.5</horiz>
									<vert>0.5</vert>
								</value>
							</parameter>
							<parameter>
								<parameterid>llcorner</parameterid>
								<name>Lower Left</name>
								<value>
									<horiz>-0.5</horiz>
									<vert>0.5</vert>
								</value>
							</parameter>
							<parameter>
								<parameterid>aspect</parameterid>
								<name>Aspect</name>
								<valuemin>-10000</valuemin>
								<valuemax>10000</valuemax>
								<value>0</value>
							</parameter>
						</effect>
					</filter>
					<filter>
						<effect>
							<name>Opacity</name>
							<effectid>opacity</effectid>
							<effectcategory>motion</effectcategory>
							<effecttype>motion</effecttype>
							<mediatype>video</mediatype>
							<parameter>
								<parameterid>opacity</parameterid>
								<name>opacity</name>
								<valuemin>0</valuemin>
								<valuemax>100</valuemax>
								<value>100</value>
							</parameter>
						</effect>
					</filter>
					<sourcetrack>
						<mediatype>video</mediatype>
					</sourcetrack>
					<fielddominance>upper</fielddominance>
					<itemhistory>
						<uuid>87F1D051-D23D-4C89-BE88-C936BF957190</uuid>
					</itemhistory>
					<filter>
						<effect>
							<name>Time Remap</name>
							<effectid>timeremap</effectid>
							<effectcategory>motion</effectcategory>
							<effecttype>motion</effecttype>
							<mediatype>video</mediatype>
							<parameter>
								<parameterid>variablespeed</parameterid>
								<name>variablespeed</name>
								<valuemin>0</valuemin>
								<valuemax>1</valuemax>
								<value>0</value>
							</parameter>
							<parameter>
								<parameterid>mappedduration</parameterid>
								<name>mappedduration</name>
								<value>
									<timecode>
										<rate>
											<timebase>0</timebase>
										</rate>
										<string>0</string>
										<frame>0</frame>
										<displayformat>NDF</displayformat>
									</timecode>
								</value>
							</parameter>
							<parameter>
								<parameterid>speed</parameterid>
								<name>speed</name>
								<valuemin>-10000</valuemin>
								<valuemax>10000</valuemax>
								<value>60</value>
							</parameter>
							<parameter>
								<parameterid>reverse</parameterid>
								<name>reverse</name>
								<value>FALSE</value>
							</parameter>
							<parameter>
								<parameterid>frameblending</parameterid>
								<name>frameblending</name>
								<value>TRUE</value>
							</parameter>
							<parameter>
								<parameterid>graphdict</parameterid>
								<name>graphdict</name>
								<valuemin>0</valuemin>
								<valuemax>104</valuemax>
								<keyframe>
									<when>0</when>
									<value>0.104</value>
									<speedkfstart>TRUE</speedkfstart>
									<speedvirtualkf>TRUE</speedvirtualkf>
									<anchorOffset>0.104</anchorOffset>
								</keyframe>
								<keyframe>
									<when>91</when>
									<value>54.8092</value>
									<speedkfin>TRUE</speedkfin>
									<speedvirtualkf>TRUE</speedvirtualkf>
								</keyframe>
								<keyframe>
									<when>165</when>
									<value>99.2947</value>
									<speedkfout>TRUE</speedkfout>
									<speedvirtualkf>TRUE</speedvirtualkf>
								</keyframe>
								<keyframe>
									<when>174</when>
									<value>105.104</value>
									<speedkfend>TRUE</speedkfend>
									<speedvirtualkf>TRUE</speedvirtualkf>
								</keyframe>
								<interpolation>
									<name>FCPCurve</name>
								</interpolation>
								<value>54.8092</value>
							</parameter>
						</effect>
					</filter>
				</clipitem>
				<transitionitem>
					<rate>
						<ntsc>FALSE</ntsc>
						<timebase>25</timebase>
					</rate>
					<start>9548</start>
					<end>9577</end>
					<alignment>center</alignment>
					<effect>
						<name>G Lens Flare Generell OPP</name>
						<effectcategory>Nattress Big Box Of Tricks</effectcategory>
						<effecttype>transition</effecttype>
						<mediatype>video</mediatype>
						<startratio>0</startratio>
						<endratio>1</endratio>
						<reverse>FALSE</reverse>
						<parameter>
							<parameterid>dispvar1</parameterid>
							<name>Display Settings</name>
							<value>string</value>
						</parameter>
						<parameter>
							<parameterid>inputvar1</parameterid>
							<name>Flare Position</name>
							<value>string</value>
						</parameter>
						<parameter>
							<parameterid>theangle</parameterid>
							<name>Transition Direction</name>
							<valuemin>-360</valuemin>
							<valuemax>360</valuemax>
							<value>0</value>
						</parameter>
						<parameter>
							<parameterid>transitionblendduration</parameterid>
							<name>Blend Duration</name>
							<valuemin>0</valuemin>
							<valuemax>100</valuemax>
							<value>50</value>
						</parameter>
						<parameter>
							<parameterid>settingsvar1</parameterid>
							<name>Flare Settings</name>
							<value>string</value>
						</parameter>
						<parameter>
							<parameterid>presets</parameterid>
							<name>Preset Select</name>
							<valuemin>1</valuemin>
							<valuemax>4</valuemax>
							<valuelist>
								<valueentry>
									<name>Custom Controls</name>
									<value>1</value>
								</valueentry>
								<valueentry>
									<name>Other End of the Rainbow</name>
									<value>2</value>
								</valueentry>
								<valueentry>
									<name>Photon</name>
									<value>3</value>
								</valueentry>
								<valueentry>
									<name>Gaudy</name>
									<value>4</value>
								</valueentry>
							</valuelist>
							<value>1</value>
						</parameter>
						<parameter>
							<parameterid>randomevolution</parameterid>
							<name>Randomness Evolution</name>
							<valuemin>0</valuemin>
							<valuemax>1</valuemax>
							<value>0.05</value>
						</parameter>
						<parameter>
							<parameterid>flareaspect</parameterid>
							<name>Aspect</name>
							<valuemin>0.1</valuemin>
							<valuemax>10</valuemax>
							<value>1</value>
						</parameter>
						<parameter>
							<parameterid>flareintensity</parameterid>
							<name>Overall Intensity</name>
							<valuemin>0</valuemin>
							<valuemax>400</valuemax>
							<value>300</value>
						</parameter>
						<parameter>
							<parameterid>therandomseed</parameterid>
							<name>Random Seed</name>
							<valuemin>0</valuemin>
							<valuemax>100</valuemax>
							<value>100</value>
						</parameter>
						<parameter>
							<parameterid>settingsvar2</parameterid>
							<name>   Bloom</name>
							<value>string</value>
						</parameter>
						<parameter>
							<parameterid>bloomon</parameterid>
							<name>Bloom On?</name>
							<value>TRUE</value>
						</parameter>
						<parameter>
							<parameterid>bloomcolour</parameterid>
							<name>Bloom Colour</name>
							<value>
								<alpha>255</alpha>
								<red>218</red>
								<green>224</green>
								<blue>254</blue>
							</value>
						</parameter>
						<parameter>
							<parameterid>bloomcolourfromimage</parameterid>
							<name>Use Image for Bloom Colour?</name>
							<value>FALSE</value>
						</parameter>
						<parameter>
							<parameterid>bloomintensity</parameterid>
							<name>Intensity</name>
							<valuemin>0</valuemin>
							<valuemax>100</valuemax>
							<value>90</value>
						</parameter>
						<parameter>
							<parameterid>bloomradius</parameterid>
							<name>Radius</name>
							<valuemin>0</valuemin>
							<valuemax>200</valuemax>
							<value>45</value>
						</parameter>
						<parameter>
							<parameterid>bloomfalloff</parameterid>
							<name>Fall Off</name>
							<valuemin>0</valuemin>
							<valuemax>100</valuemax>
							<value>75</value>
						</parameter>
						<parameter>
							<parameterid>bloomstarry</parameterid>
							<name>Starry</name>
							<valuemin>0</valuemin>
							<valuemax>100</valuemax>
							<value>10</value>
						</parameter>
						<parameter>
							<parameterid>bloomstarpoints</parameterid>
							<name>Star Points</name>
							<valuemin>0</valuemin>
							<valuemax>100</valuemax>
							<value>7</value>
						</parameter>
						<parameter>
							<parameterid>settingsvar3</parameterid>
							<name>   StarBurst</name>
							<value>string</value>
						</parameter>
						<parameter>
							<parameterid>starburston</parameterid>
							<name>StarBurst On?</name>
							<value>TRUE</value>
						</parameter>
						<parameter>
							<parameterid>starburstcolour</parameterid>
							<name>StarBurst Colour</name>
							<value>
								<alpha>255</alpha>
								<red>254</red>
								<green>224</green>
								<blue>218</blue>
							</value>
						</parameter>
						<parameter>
							<parameterid>starburstintensity</parameterid>
							<name>Intensity</name>
							<valuemin>0</valuemin>
							<valuemax>100</valuemax>
							<value>75</value>
						</parameter>
						<parameter>
							<parameterid>starburstradius</parameterid>
							<name>Radius</name>
							<valuemin>0</valuemin>
							<valuemax>150</valuemax>
							<value>75</value>
						</parameter>
						<parameter>
							<parameterid>starburststarpoints</parameterid>
							<name>Star Points</name>
							<valuemin>0</valuemin>
							<valuemax>200</valuemax>
							<value>90</value>
						</parameter>
						<parameter>
							<parameterid>starcentre</parameterid>
							<name>Centre Size</name>
							<valuemin>0</valuemin>
							<valuemax>100</valuemax>
							<value>75</value>
						</parameter>
						<parameter>
							<parameterid>starfalloff</parameterid>
							<name>Fall Off</name>
							<valuemin>0</valuemin>
							<valuemax>100</valuemax>
							<value>75</value>
						</parameter>
						<parameter>
							<parameterid>starburstrandom</parameterid>
							<name>Randomness</name>
							<valuemin>0</valuemin>
							<valuemax>4</valuemax>
							<value>0.4</value>
						</parameter>
						<parameter>
							<parameterid>settingsvar4</parameterid>
							<name>   Rainbow</name>
							<value>string</value>
						</parameter>
						<parameter>
							<parameterid>rainbowon</parameterid>
							<name>Rainbow On?</name>
							<value>TRUE</value>
						</parameter>
						<parameter>
							<parameterid>rainbowcolors</parameterid>
							<name>Colour Type</name>
							<valuemin>1</valuemin>
							<valuemax>2</valuemax>
							<valuelist>
								<valueentry>
									<name>Rainbow</name>
									<value>1</value>
								</valueentry>
								<valueentry>
									<name>User Colour</name>
									<value>2</value>
								</valueentry>
							</valuelist>
							<value>1</value>
						</parameter>
						<parameter>
							<parameterid>rainbowusercolor</parameterid>
							<name>User Colour</name>
							<value>
								<alpha>255</alpha>
								<red>230</red>
								<green>110</green>
								<blue>22</blue>
							</value>
						</parameter>
						<parameter>
							<parameterid>rainbowposition</parameterid>
							<name>Position</name>
							<valuemin>-200</valuemin>
							<valuemax>200</valuemax>
							<value>100</value>
						</parameter>
						<parameter>
							<parameterid>rainbowintensity</parameterid>
							<name>Intensity</name>
							<valuemin>0</valuemin>
							<valuemax>100</valuemax>
							<value>20</value>
						</parameter>
						<parameter>
							<parameterid>rainbowradius</parameterid>
							<name>Radius</name>
							<valuemin>0</valuemin>
							<valuemax>200</valuemax>
							<value>50</value>
						</parameter>
						<parameter>
							<parameterid>rainbowthickness</parameterid>
							<name>Thickness</name>
							<valuemin>0</valuemin>
							<valuemax>1</valuemax>
							<value>0.15</value>
						</parameter>
						<parameter>
							<parameterid>rainbowsharpness</parameterid>
							<name>Sharpness</name>
							<valuemin>0</valuemin>
							<valuemax>1</valuemax>
							<value>0.65</value>
						</parameter>
						<parameter>
							<parameterid>settingsvar5</parameterid>
							<name>   Spots</name>
							<value>string</value>
						</parameter>
						<parameter>
							<parameterid>spotson</parameterid>
							<name>Spots On?</name>
							<value>TRUE</value>
						</parameter>
						<parameter>
							<parameterid>spotsnumber</parameterid>
							<name>Number</name>
							<valuemin>0</valuemin>
							<valuemax>100</valuemax>
							<value>12</value>
						</parameter>
						<parameter>
							<parameterid>spotsintensity</parameterid>
							<name>Intensity</name>
							<valuemin>0</valuemin>
							<valuemax>100</valuemax>
							<value>80</value>
						</parameter>
						<parameter>
							<parameterid>spotsradius</parameterid>
							<name>Radius</name>
							<valuemin>0</valuemin>
							<valuemax>150</valuemax>
							<value>30</value>
						</parameter>
						<parameter>
							<parameterid>spotsdisky</parameterid>
							<name>Disky</name>
							<valuemin>0</valuemin>
							<valuemax>100</valuemax>
							<value>75</value>
						</parameter>
						<parameter>
							<parameterid>spotsringy</parameterid>
							<name>Ringy</name>
							<valuemin>0</valuemin>
							<valuemax>100</valuemax>
							<value>75</value>
						</parameter>
						<parameter>
							<parameterid>spotsblotty</parameterid>
							<name>Blotty</name>
							<valuemin>0</valuemin>
							<valuemax>100</valuemax>
							<value>75</value>
						</parameter>
						<parameter>
							<parameterid>spotsbloony</parameterid>
							<name>Bloony</name>
							<valuemin>0</valuemin>
							<valuemax>100</valuemax>
							<value>75</value>
						</parameter>
						<parameter>
							<parameterid>spotsvarycolour</parameterid>
							<name>Vary Colour</name>
							<valuemin>0</valuemin>
							<valuemax>100</valuemax>
							<value>31</value>
						</parameter>
						<parameter>
							<parameterid>spotsbasehue</parameterid>
							<name>Base Hue</name>
							<valuemin>0</valuemin>
							<valuemax>100</valuemax>
							<value>72</value>
						</parameter>
						<parameter>
							<parameterid>spotssaturation</parameterid>
							<name>Saturation</name>
							<valuemin>0</valuemin>
							<valuemax>100</valuemax>
							<value>20</value>
						</parameter>
						<parameter>
							<parameterid>copyright</parameterid>
							<name>©www.nattress.com</name>
							<value>string</value>
						</parameter>
					</effect>
				</transitionitem>
				<clipitem id="AA1419_01 ">
					<name>AA1419_01</name>
					<duration>1896</duration>
					<rate>
						<ntsc>FALSE</ntsc>
						<timebase>25</timebase>
					</rate>
					<in>466</in>
					<out>572</out>
					<start>-1</start>
					<end>9654</end>
					<pixelaspectratio>Square</pixelaspectratio>
					<enabled>TRUE</enabled>
					<anamorphic>FALSE</anamorphic>
					<alphatype>none</alphatype>
					<masterclipid>AA1419_01 1</masterclipid>
					<logginginfo>
						<scene/>
						<shottake/>
						<lognote/>
						<good>FALSE</good>
					</logginginfo>
					<labels>
						<label2/>
					</labels>
					<comments>
						<mastercomment1/>
						<mastercomment2/>
						<mastercomment3/>
						<mastercomment4/>
					</comments>
					<file id="AA1419_01 2">
						<name>AA1419_01.mov</name>
						<pathurl>file://localhost/Volumes/Askepott/Prosjekter/DNPR637010_Kra%CC%8Akeklubben_TEM_011212/Video/MELLOMSTIKK/S01E%20Spor%20i%20sn%C3%B8en/Canon%20XF/AA1419_01.mov</pathurl>
						<rate>
							<timebase>25</timebase>
						</rate>
						<duration>1896</duration>
						<metadata>
							<storage>QuickTime</storage>
							<key>com.apple.proapps.originalFormat</key>
							<size>14</size>
							<type>UTF8</type>
							<value>Canon XF MPEG2</value>
						</metadata>
						<metadata>
							<storage>QuickTime</storage>
							<key>com.apple.quicktime.creationdate</key>
							<size>24</size>
							<type>UTF8</type>
							<value>2012-02-22T12:03:11+0100</value>
						</metadata>
						<metadata>
							<storage>QuickTime</storage>
							<key>com.apple.proapps.isGood</key>
							<size>4</size>
							<type>unsigned</type>
							<value>0</value>
						</metadata>
						<metadata>
							<storage>QuickTime</storage>
							<key>com.apple.finalcutstudio.media.uuid</key>
							<size>36</size>
							<type>UTF8</type>
							<value>659899F4-7C52-418E-9F28-3C989E753CF3</value>
						</metadata>
						<metadata>
							<storage>QuickTime</storage>
							<key>com.apple.proapps.clipID</key>
							<size>36</size>
							<type>UTF8</type>
							<value>0A1E5BAE-7959-0580-0000-850001E01891</value>
						</metadata>
						<metadata>
							<storage>QuickTime</storage>
							<key>com.apple.proapps.reel</key>
							<size>8</size>
							<type>UTF8</type>
							<value>CANON XF</value>
						</metadata>
						<timecode>
							<rate>
								<timebase>25</timebase>
							</rate>
							<string>00:31:44:16</string>
							<frame>47616</frame>
							<displayformat>NDF</displayformat>
							<source>source</source>
							<reel>
								<name>CANON XF</name>
							</reel>
						</timecode>
						<media>
							<video>
								<duration>1896</duration>
								<samplecharacteristics>
									<width>1920</width>
									<height>1080</height>
								</samplecharacteristics>
							</video>
							<audio>
								<samplecharacteristics>
									<samplerate>48000</samplerate>
									<depth>16</depth>
								</samplecharacteristics>
								<channelcount>1</channelcount>
								<layout>mono</layout>
								<audiochannel>
									<sourcechannel>1</sourcechannel>
									<channellabel>discrete</channellabel>
								</audiochannel>
							</audio>
							<audio>
								<samplecharacteristics>
									<samplerate>48000</samplerate>
									<depth>16</depth>
								</samplecharacteristics>
								<channelcount>1</channelcount>
								<layout>mono</layout>
								<audiochannel>
									<sourcechannel>2</sourcechannel>
									<channellabel>discrete</channellabel>
								</audiochannel>
							</audio>
						</media>
					</file>
					<sourcetrack>
						<mediatype>video</mediatype>
					</sourcetrack>
					<fielddominance>upper</fielddominance>
					<itemhistory>
						<uuid>E0560F47-27F9-4927-B33D-813584EB0F94</uuid>
					</itemhistory>
				</clipitem>
				<clipitem id="DYR19739_01 3">
					<name>DYR19739_01</name>
					<duration>2566</duration>
					<rate>
						<ntsc>FALSE</ntsc>
						<timebase>25</timebase>
					</rate>
					<in>1889</in>
					<out>1924</out>
					<start>15239</start>
					<end>15274</end>
					<pixelaspectratio>Square</pixelaspectratio>
					<enabled>TRUE</enabled>
					<anamorphic>FALSE</anamorphic>
					<alphatype>none</alphatype>
					<masterclipid>DYR19739_01 1</masterclipid>
					<logginginfo>
						<scene/>
						<shottake/>
						<lognote/>
						<good>FALSE</good>
					</logginginfo>
					<labels>
						<label2/>
					</labels>
					<comments>
						<mastercomment1/>
						<mastercomment2/>
						<mastercomment3/>
						<mastercomment4/>
					</comments>
					<file id="DYR19739_01 2"/>
					<sourcetrack>
						<mediatype>video</mediatype>
					</sourcetrack>
					<fielddominance>upper</fielddominance>
					<itemhistory>
						<uuid>236E52B9-0D91-48E8-888D-CC6847CBA97B</uuid>
					</itemhistory>
				</clipitem>
				<clipitem id="DYR19739_01 4">
					<name>DYR19739_01</name>
					<duration>2566</duration>
					<rate>
						<ntsc>FALSE</ntsc>
						<timebase>25</timebase>
					</rate>
					<in>281</in>
					<out>394</out>
					<start>15303</start>
					<end>15416</end>
					<pixelaspectratio>Square</pixelaspectratio>
					<enabled>TRUE</enabled>
					<anamorphic>FALSE</anamorphic>
					<alphatype>none</alphatype>
					<masterclipid>DYR19739_01 1</masterclipid>
					<logginginfo>
						<scene/>
						<shottake/>
						<lognote/>
						<good>FALSE</good>
					</logginginfo>
					<labels>
						<label2/>
					</labels>
					<comments>
						<mastercomment1/>
						<mastercomment2/>
						<mastercomment3/>
						<mastercomment4/>
					</comments>
					<file id="DYR19739_01 2"/>
					<filter>
						<start>-1</start>
						<end>-1</end>
						<effect>
							<name>Shift Fields</name>
							<effectid>Shift Fields</effectid>
							<effectcategory>Video</effectcategory>
							<effecttype>filter</effecttype>
							<mediatype>video</mediatype>
							<parameter>
								<parameterid>dir</parameterid>
								<name>Shift Direction</name>
								<valuemin>1</valuemin>
								<valuemax>3</valuemax>
								<valuelist>
									<valueentry>
										<name> +1</name>
										<value>1</value>
									</valueentry>
									<valueentry>
										<name>none</name>
										<value>2</value>
									</valueentry>
									<valueentry>
										<name> -1</name>
										<value>3</value>
									</valueentry>
								</valuelist>
								<value>1</value>
							</parameter>
						</effect>
					</filter>
					<filter>
						<effect>
							<name>Opacity</name>
							<effectid>opacity</effectid>
							<effectcategory>motion</effectcategory>
							<effecttype>motion</effecttype>
							<mediatype>video</mediatype>
							<parameter>
								<parameterid>opacity</parameterid>
								<name>opacity</name>
								<valuemin>0</valuemin>
								<valuemax>100</valuemax>
								<value>100</value>
							</parameter>
						</effect>
					</filter>
					<filter>
						<effect>
							<name>Basic Motion</name>
							<effectid>basic</effectid>
							<effectcategory>motion</effectcategory>
							<effecttype>motion</effecttype>
							<mediatype>video</mediatype>
							<parameter>
								<parameterid>scale</parameterid>
								<name>Scale</name>
								<valuemin>0</valuemin>
								<valuemax>1000</valuemax>
								<value>120</value>
							</parameter>
							<parameter>
								<parameterid>rotation</parameterid>
								<name>Rotation</name>
								<valuemin>-8640</valuemin>
								<valuemax>8640</valuemax>
								<value>0</value>
							</parameter>
							<parameter>
								<parameterid>center</parameterid>
								<name>Center</name>
								<value>
									<horiz>0</horiz>
									<vert>0</vert>
								</value>
							</parameter>
							<parameter>
								<parameterid>centerOffset</parameterid>
								<name>Anchor Point</name>
								<value>
									<horiz>0</horiz>
									<vert>0</vert>
								</value>
							</parameter>
						</effect>
					</filter>
					<filter>
						<enabled>FALSE</enabled>
						<effect>
							<name>Drop Shadow</name>
							<effectid>dropshadow</effectid>
							<effectcategory>motion</effectcategory>
							<effecttype>motion</effecttype>
							<mediatype>video</mediatype>
							<parameter>
								<parameterid>offset</parameterid>
								<name>offset</name>
								<valuemin>-100</valuemin>
								<valuemax>100</valuemax>
								<value>2</value>
							</parameter>
							<parameter>
								<parameterid>angle</parameterid>
								<name>angle</name>
								<valuemin>-720</valuemin>
								<valuemax>720</valuemax>
								<value>135</value>
							</parameter>
							<parameter>
								<parameterid>color</parameterid>
								<name>color</name>
								<value>
									<alpha>0</alpha>
									<red>0</red>
									<green>0</green>
									<blue>0</blue>
								</value>
							</parameter>
							<parameter>
								<parameterid>softness</parameterid>
								<name>softness</name>
								<valuemin>0</valuemin>
								<valuemax>100</valuemax>
								<value>10</value>
							</parameter>
							<parameter>
								<parameterid>opacity</parameterid>
								<name>opacity</name>
								<valuemin>0</valuemin>
								<valuemax>100</valuemax>
								<value>50</value>
							</parameter>
						</effect>
					</filter>
					<filter>
						<enabled>FALSE</enabled>
						<effect>
							<name>Motion Blur</name>
							<effectid>motionblur</effectid>
							<effectcategory>motion</effectcategory>
							<effecttype>motion</effecttype>
							<mediatype>video</mediatype>
							<parameter>
								<parameterid>duration</parameterid>
								<name>% Blur</name>
								<valuemin>0</valuemin>
								<valuemax>1000</valuemax>
								<value>500</value>
							</parameter>
							<parameter>
								<parameterid>samples</parameterid>
								<name>Samples</name>
								<valuemin>1</valuemin>
								<valuemax>16</valuemax>
								<value>4</value>
							</parameter>
						</effect>
					</filter>
					<filter>
						<effect>
							<name>Crop</name>
							<effectid>crop</effectid>
							<effectcategory>motion</effectcategory>
							<effecttype>motion</effecttype>
							<mediatype>video</mediatype>
							<parameter>
								<parameterid>left</parameterid>
								<name>left</name>
								<valuemin>0</valuemin>
								<valuemax>100</valuemax>
								<value>0</value>
							</parameter>
							<parameter>
								<parameterid>right</parameterid>
								<name>right</name>
								<valuemin>0</valuemin>
								<valuemax>100</valuemax>
								<value>0</value>
							</parameter>
							<parameter>
								<parameterid>top</parameterid>
								<name>top</name>
								<valuemin>0</valuemin>
								<valuemax>100</valuemax>
								<value>0</value>
							</parameter>
							<parameter>
								<parameterid>bottom</parameterid>
								<name>bottom</name>
								<valuemin>0</valuemin>
								<valuemax>100</valuemax>
								<value>0</value>
							</parameter>
							<parameter>
								<parameterid>edgefeather</parameterid>
								<name>edgefeather</name>
								<valuemin>0</valuemin>
								<valuemax>100</valuemax>
								<value>0</value>
							</parameter>
						</effect>
					</filter>
					<filter>
						<effect>
							<name>Distort</name>
							<effectid>deformation</effectid>
							<effectcategory>motion</effectcategory>
							<effecttype>motion</effecttype>
							<mediatype>video</mediatype>
							<parameter>
								<parameterid>ulcorner</parameterid>
								<name>Upper Left</name>
								<value>
									<horiz>-0.5</horiz>
									<vert>-0.5</vert>
								</value>
							</parameter>
							<parameter>
								<parameterid>urcorner</parameterid>
								<name>Upper Right</name>
								<value>
									<horiz>0.5</horiz>
									<vert>-0.5</vert>
								</value>
							</parameter>
							<parameter>
								<parameterid>lrcorner</parameterid>
								<name>Lower Right</name>
								<value>
									<horiz>0.5</horiz>
									<vert>0.5</vert>
								</value>
							</parameter>
							<parameter>
								<parameterid>llcorner</parameterid>
								<name>Lower Left</name>
								<value>
									<horiz>-0.5</horiz>
									<vert>0.5</vert>
								</value>
							</parameter>
							<parameter>
								<parameterid>aspect</parameterid>
								<name>Aspect</name>
								<valuemin>-10000</valuemin>
								<valuemax>10000</valuemax>
								<value>0</value>
							</parameter>
						</effect>
					</filter>
					<sourcetrack>
						<mediatype>video</mediatype>
					</sourcetrack>
					<fielddominance>upper</fielddominance>
					<itemhistory>
						<uuid>F4ABB0C4-B7D7-4612-804C-0889BA429B90</uuid>
					</itemhistory>
					<filter>
						<effect>
							<name>Time Remap</name>
							<effectid>timeremap</effectid>
							<effectcategory>motion</effectcategory>
							<effecttype>motion</effecttype>
							<mediatype>video</mediatype>
							<parameter>
								<parameterid>variablespeed</parameterid>
								<name>variablespeed</name>
								<valuemin>0</valuemin>
								<valuemax>1</valuemax>
								<value>0</value>
							</parameter>
							<parameter>
								<parameterid>mappedduration</parameterid>
								<name>mappedduration</name>
								<value>
									<timecode>
										<rate>
											<timebase>0</timebase>
										</rate>
										<string>0</string>
										<frame>0</frame>
										<displayformat>NDF</displayformat>
									</timecode>
								</value>
							</parameter>
							<parameter>
								<parameterid>speed</parameterid>
								<name>speed</name>
								<valuemin>-10000</valuemin>
								<valuemax>10000</valuemax>
								<value>100</value>
							</parameter>
							<parameter>
								<parameterid>reverse</parameterid>
								<name>reverse</name>
								<value>TRUE</value>
							</parameter>
							<parameter>
								<parameterid>frameblending</parameterid>
								<name>frameblending</name>
								<value>TRUE</value>
							</parameter>
							<parameter>
								<parameterid>graphdict</parameterid>
								<name>graphdict</name>
								<valuemin>0</valuemin>
								<valuemax>2565</valuemax>
								<keyframe>
									<when>0</when>
									<value>2567</value>
									<speedkfstart>TRUE</speedkfstart>
									<speedvirtualkf>TRUE</speedvirtualkf>
								</keyframe>
								<keyframe>
									<when>281</when>
									<value>2285</value>
									<speedkfin>TRUE</speedkfin>
									<speedvirtualkf>TRUE</speedvirtualkf>
								</keyframe>
								<keyframe>
									<when>394</when>
									<value>2172</value>
									<speedkfout>TRUE</speedkfout>
									<speedvirtualkf>TRUE</speedvirtualkf>
								</keyframe>
								<keyframe>
									<when>2566</when>
									<value>1</value>
									<speedkfend>TRUE</speedkfend>
									<speedvirtualkf>TRUE</speedvirtualkf>
								</keyframe>
								<interpolation>
									<name>FCPCurve</name>
								</interpolation>
								<value>2284</value>
							</parameter>
						</effect>
					</filter>
				</clipitem>
				<clipitem id="DYR10516_01 5">
					<name>DYR10516_01</name>
					<duration>770</duration>
					<rate>
						<ntsc>FALSE</ntsc>
						<timebase>25</timebase>
					</rate>
					<in>413</in>
					<out>438</out>
					<start>25914</start>
					<end>25939</end>
					<pixelaspectratio>Square</pixelaspectratio>
					<enabled>TRUE</enabled>
					<anamorphic>FALSE</anamorphic>
					<alphatype>none</alphatype>
					<masterclipid>DYR10516_01 1</masterclipid>
					<logginginfo>
						<scene/>
						<shottake/>
						<lognote/>
						<good>FALSE</good>
					</logginginfo>
					<labels>
						<label2/>
					</labels>
					<comments>
						<mastercomment1/>
						<mastercomment2/>
						<mastercomment3/>
						<mastercomment4/>
					</comments>
					<file id="DYR10516_01 2"/>
					<filter>
						<enabled>TRUE</enabled>
						<start>-1</start>
						<end>-1</end>
						<effect>
							<name>Mask Shape</name>
							<effectid>Mask Shape</effectid>
							<effectcategory>Matte</effectcategory>
							<effecttype>filter</effecttype>
							<mediatype>video</mediatype>
							<parameter>
								<parameterid>shape</parameterid>
								<name>Shape</name>
								<valuemin>1</valuemin>
								<valuemax>4</valuemax>
								<valuelist>
									<valueentry>
										<name>Diamond</name>
										<value>1</value>
									</valueentry>
									<valueentry>
										<name>Oval</name>
										<value>2</value>
									</valueentry>
									<valueentry>
										<name>Rectangle</name>
										<value>3</value>
									</valueentry>
									<valueentry>
										<name>Round Rectangle</name>
										<value>4</value>
									</valueentry>
								</valuelist>
								<value>2</value>
							</parameter>
							<parameter>
								<parameterid>sx</parameterid>
								<name>Horizontal Scale</name>
								<valuemin>0</valuemin>
								<valuemax>200</valuemax>
								<keyframe>
									<when>417</when>
									<value>23</value>
								</keyframe>
								<interpolation>
									<name>FCPCurve</name>
								</interpolation>
								<value>23</value>
							</parameter>
							<parameter>
								<parameterid>sy</parameterid>
								<name>Vertical Scale</name>
								<valuemin>0</valuemin>
								<valuemax>200</valuemax>
								<keyframe>
									<when>417</when>
									<value>50</value>
								</keyframe>
								<interpolation>
									<name>FCPCurve</name>
								</interpolation>
								<value>50</value>
							</parameter>
							<parameter>
								<parameterid>center</parameterid>
								<name>Center</name>
								<keyframe>
									<when>417</when>
									<value>
										<horiz>0.430141</horiz>
										<vert>0.282123</vert>
									</value>
								</keyframe>
								<keyframe>
									<when>419</when>
									<value>
										<horiz>0.472527</horiz>
										<vert>0.312849</vert>
									</value>
								</keyframe>
								<keyframe>
									<when>420</when>
									<value>
										<horiz>0.477237</horiz>
										<vert>0.391061</vert>
									</value>
								</keyframe>
								<keyframe>
									<when>422</when>
									<value>
										<horiz>0.452119</horiz>
										<vert>0.405028</vert>
									</value>
								</keyframe>
								<keyframe>
									<when>429</when>
									<value>
										<horiz>0.434851</horiz>
										<vert>0.402235</vert>
									</value>
								</keyframe>
								<interpolation>
									<name>FCPCurve</name>
								</interpolation>
							</parameter>
							<parameter>
								<parameterid>invertalpha</parameterid>
								<name>Invert</name>
								<value>FALSE</value>
							</parameter>
						</effect>
					</filter>
					<filter>
						<effect>
							<name>Basic Motion</name>
							<effectid>basic</effectid>
							<effectcategory>motion</effectcategory>
							<effecttype>motion</effecttype>
							<mediatype>video</mediatype>
							<parameter>
								<parameterid>scale</parameterid>
								<name>Scale</name>
								<valuemin>0</valuemin>
								<valuemax>1000</valuemax>
								<value>100</value>
							</parameter>
							<parameter>
								<parameterid>rotation</parameterid>
								<name>Rotation</name>
								<valuemin>-8640</valuemin>
								<valuemax>8640</valuemax>
								<value>0</value>
							</parameter>
							<parameter>
								<parameterid>center</parameterid>
								<name>Center</name>
								<value>
									<horiz>0</horiz>
									<vert>0</vert>
								</value>
							</parameter>
							<parameter>
								<parameterid>centerOffset</parameterid>
								<name>Anchor Point</name>
								<value>
									<horiz>0</horiz>
									<vert>0</vert>
								</value>
							</parameter>
						</effect>
					</filter>
					<filter>
						<enabled>FALSE</enabled>
						<effect>
							<name>Drop Shadow</name>
							<effectid>dropshadow</effectid>
							<effectcategory>motion</effectcategory>
							<effecttype>motion</effecttype>
							<mediatype>video</mediatype>
							<parameter>
								<parameterid>offset</parameterid>
								<name>offset</name>
								<valuemin>-100</valuemin>
								<valuemax>100</valuemax>
								<value>2</value>
							</parameter>
							<parameter>
								<parameterid>angle</parameterid>
								<name>angle</name>
								<valuemin>-720</valuemin>
								<valuemax>720</valuemax>
								<value>135</value>
							</parameter>
							<parameter>
								<parameterid>color</parameterid>
								<name>color</name>
								<value>
									<alpha>0</alpha>
									<red>0</red>
									<green>0</green>
									<blue>0</blue>
								</value>
							</parameter>
							<parameter>
								<parameterid>softness</parameterid>
								<name>softness</name>
								<valuemin>0</valuemin>
								<valuemax>100</valuemax>
								<value>10</value>
							</parameter>
							<parameter>
								<parameterid>opacity</parameterid>
								<name>opacity</name>
								<valuemin>0</valuemin>
								<valuemax>100</valuemax>
								<value>50</value>
							</parameter>
						</effect>
					</filter>
					<filter>
						<enabled>FALSE</enabled>
						<effect>
							<name>Motion Blur</name>
							<effectid>motionblur</effectid>
							<effectcategory>motion</effectcategory>
							<effecttype>motion</effecttype>
							<mediatype>video</mediatype>
							<parameter>
								<parameterid>duration</parameterid>
								<name>% Blur</name>
								<valuemin>0</valuemin>
								<valuemax>1000</valuemax>
								<value>500</value>
							</parameter>
							<parameter>
								<parameterid>samples</parameterid>
								<name>Samples</name>
								<valuemin>1</valuemin>
								<valuemax>16</valuemax>
								<value>4</value>
							</parameter>
						</effect>
					</filter>
					<filter>
						<effect>
							<name>Crop</name>
							<effectid>crop</effectid>
							<effectcategory>motion</effectcategory>
							<effecttype>motion</effecttype>
							<mediatype>video</mediatype>
							<parameter>
								<parameterid>left</parameterid>
								<name>left</name>
								<valuemin>0</valuemin>
								<valuemax>100</valuemax>
								<value>0</value>
							</parameter>
							<parameter>
								<parameterid>right</parameterid>
								<name>right</name>
								<valuemin>0</valuemin>
								<valuemax>100</valuemax>
								<value>0</value>
							</parameter>
							<parameter>
								<parameterid>top</parameterid>
								<name>top</name>
								<valuemin>0</valuemin>
								<valuemax>100</valuemax>
								<value>0</value>
							</parameter>
							<parameter>
								<parameterid>bottom</parameterid>
								<name>bottom</name>
								<valuemin>0</valuemin>
								<valuemax>100</valuemax>
								<value>0</value>
							</parameter>
							<parameter>
								<parameterid>edgefeather</parameterid>
								<name>edgefeather</name>
								<valuemin>0</valuemin>
								<valuemax>100</valuemax>
								<value>0</value>
							</parameter>
						</effect>
					</filter>
					<filter>
						<effect>
							<name>Distort</name>
							<effectid>deformation</effectid>
							<effectcategory>motion</effectcategory>
							<effecttype>motion</effecttype>
							<mediatype>video</mediatype>
							<parameter>
								<parameterid>ulcorner</parameterid>
								<name>Upper Left</name>
								<value>
									<horiz>-0.5</horiz>
									<vert>-0.5</vert>
								</value>
							</parameter>
							<parameter>
								<parameterid>urcorner</parameterid>
								<name>Upper Right</name>
								<value>
									<horiz>0.5</horiz>
									<vert>-0.5</vert>
								</value>
							</parameter>
							<parameter>
								<parameterid>lrcorner</parameterid>
								<name>Lower Right</name>
								<value>
									<horiz>0.5</horiz>
									<vert>0.5</vert>
								</value>
							</parameter>
							<parameter>
								<parameterid>llcorner</parameterid>
								<name>Lower Left</name>
								<value>
									<horiz>-0.5</horiz>
									<vert>0.5</vert>
								</value>
							</parameter>
							<parameter>
								<parameterid>aspect</parameterid>
								<name>Aspect</name>
								<valuemin>-10000</valuemin>
								<valuemax>10000</valuemax>
								<value>0</value>
							</parameter>
						</effect>
					</filter>
					<filter>
						<effect>
							<name>Opacity</name>
							<effectid>opacity</effectid>
							<effectcategory>motion</effectcategory>
							<effecttype>motion</effecttype>
							<mediatype>video</mediatype>
							<parameter>
								<parameterid>opacity</parameterid>
								<name>opacity</name>
								<valuemin>0</valuemin>
								<valuemax>100</valuemax>
								<value>100</value>
							</parameter>
						</effect>
					</filter>
					<sourcetrack>
						<mediatype>video</mediatype>
					</sourcetrack>
					<link>
						<linkclipref>DYR10516_01 5</linkclipref>
						<mediatype>video</mediatype>
						<trackindex>2</trackindex>
						<clipindex>15</clipindex>
					</link>
					<fielddominance>upper</fielddominance>
					<itemhistory>
						<uuid>5DE94860-407E-438E-B7D8-C4AABD44F90E</uuid>
					</itemhistory>
				</clipitem>
				<generatoritem id="Scrolling Text">
					<name>Scrolling Text</name>
					<duration>3000</duration>
					<rate>
						<ntsc>FALSE</ntsc>
						<timebase>25</timebase>
					</rate>
					<in>1406</in>
					<out>1781</out>
					<start>28526</start>
					<end>28901</end>
					<enabled>TRUE</enabled>
					<anamorphic>FALSE</anamorphic>
					<alphatype>black</alphatype>
					<logginginfo>
						<scene/>
						<shottake/>
						<lognote/>
						<good>FALSE</good>
					</logginginfo>
					<labels>
						<label2/>
					</labels>
					<comments>
						<mastercomment1/>
						<mastercomment2/>
						<mastercomment3/>
						<mastercomment4/>
					</comments>
					<effect>
						<name>Scrolling Text</name>
						<effectid>Scrolling Text</effectid>
						<effectcategory>Text</effectcategory>
						<effecttype>generator</effecttype>
						<mediatype>video</mediatype>
						<parameter>
							<parameterid>s</parameterid>
							<name>Text</name>
							<value>Programleder:&#13;Carina Olset&#13;&#13;Kråka:&#13;Mari Bjørnsdatter Knudsen&#13;&#13;Medvirkende:&#13;Emma&#13;Mille&#13;Tord&#13;Helene&#13;Barn fra Prestvannet SFO&#13;&#13;Manus:&#13;Carina Olset&#13;Mari Bjørnsdatter Knudsen&#13;Ragnhild Giæver&#13;&#13;Vignettmusikk:&#13;Aggie E. Peterson&#13;&#13;&#13;Kor:&#13;Embla&#13;Irana&#13;Isak&#13;Kamilla&#13;&#13;Musikk:&#13;"Klubbsang" - Aggie E. Peterson&#13;Sonoton Recorded Music Library&#13;&#13;Vignett:&#13;Leif Henning Broch Johnsen&#13;Christian Mona&#13;Kurt Jarnes&#13;&#13;Scenograf:&#13;Britt Halvorsen&#13;&#13;Rekvisitør:&#13;Lill Birgitte Larsen&#13;&#13;Kostymer:&#13;Christin Jakobsen&#13;&#13;Dukkemaker:&#13;Christina Espedal&#13;&#13;Foto:&#13;Tor Even Mathisen&#13;&#13;Redigering:&#13;Kåre Johannes Inderberg&#13;Per Einar Grønmo&#13;Tor Even Mathisen&#13;&#13;Lydmix:&#13;Nils Petter Christensen&#13;&#13;Produksjonsleder:&#13;Cecilie Arder Skildheim&#13;&#13;Regi:&#13;Ragnhild Giæver&#13;&#13;Prosjektleder:&#13;Mari Bjørnsdatter Knudsen&#13;&#13;Redaktør NRK Super:&#13;Nils Stokke&#13;&#13;&#13;Produsert av:&#13;NRK Troms og Finnmark </value>
						</parameter>
						<parameter>
							<parameterid>font</parameterid>
							<name>Font</name>
							<value>Neo Sans Pro</value>
						</parameter>
						<parameter>
							<parameterid>size</parameterid>
							<name>Size</name>
							<valuemin>4</valuemin>
							<valuemax>100</valuemax>
							<value>18</value>
						</parameter>
						<parameter>
							<parameterid>style</parameterid>
							<name>Style</name>
							<valuemin>1</valuemin>
							<valuemax>4</valuemax>
							<valuelist>
								<valueentry>
									<name>Plain</name>
									<value>1</value>
								</valueentry>
								<valueentry>
									<name>Bold</name>
									<value>2</value>
								</valueentry>
								<valueentry>
									<name>Italic</name>
									<value>3</value>
								</valueentry>
								<valueentry>
									<name>Bold/Italic</name>
									<value>4</value>
								</valueentry>
							</valuelist>
							<value>1</value>
						</parameter>
						<parameter>
							<parameterid>align</parameterid>
							<name>Alignment</name>
							<valuemin>1</valuemin>
							<valuemax>3</valuemax>
							<valuelist>
								<valueentry>
									<name>Left</name>
									<value>1</value>
								</valueentry>
								<valueentry>
									<name>Center</name>
									<value>2</value>
								</valueentry>
								<valueentry>
									<name>Right</name>
									<value>3</value>
								</valueentry>
							</valuelist>
							<value>2</value>
						</parameter>
						<parameter>
							<parameterid>col</parameterid>
							<name>Color</name>
							<value>
								<alpha>255</alpha>
								<red>255</red>
								<green>150</green>
								<blue>0</blue>
							</value>
						</parameter>
						<parameter>
							<parameterid>spacing</parameterid>
							<name>Spacing</name>
							<valuemin>-5</valuemin>
							<valuemax>10</valuemax>
							<value>1</value>
						</parameter>
						<parameter>
							<parameterid>leading</parameterid>
							<name>Leading</name>
							<valuemin>-100</valuemin>
							<valuemax>200</valuemax>
							<value>0</value>
						</parameter>
						<parameter>
							<parameterid>indent</parameterid>
							<name>Indent</name>
							<valuemin>0</valuemin>
							<valuemax>100</valuemax>
							<value>10</value>
						</parameter>
						<parameter>
							<parameterid>gap</parameterid>
							<name>Gap Width</name>
							<valuemin>0</valuemin>
							<valuemax>30</valuemax>
							<value>5</value>
						</parameter>
						<parameter>
							<parameterid>fadesize</parameterid>
							<name>Fade Size</name>
							<valuemin>0</valuemin>
							<valuemax>50</valuemax>
							<value>0</value>
						</parameter>
						<parameter>
							<parameterid>direction</parameterid>
							<name>Direction</name>
							<valuemin>1</valuemin>
							<valuemax>2</valuemax>
							<valuelist>
								<valueentry>
									<name>Up</name>
									<value>1</value>
								</valueentry>
								<valueentry>
									<name>Down</name>
									<value>2</value>
								</valueentry>
							</valuelist>
							<value>1</value>
						</parameter>
						<parameter>
							<parameterid>autokern</parameterid>
							<name>Auto Kerning</name>
							<value>TRUE</value>
						</parameter>
					</effect>
					<filter>
						<effect>
							<name>Basic Motion</name>
							<effectid>basic</effectid>
							<effectcategory>motion</effectcategory>
							<effecttype>motion</effecttype>
							<mediatype>video</mediatype>
							<parameter>
								<parameterid>scale</parameterid>
								<name>Scale</name>
								<valuemin>0</valuemin>
								<valuemax>1000</valuemax>
								<keyframe>
									<when>1770</when>
									<value>100</value>
								</keyframe>
								<interpolation>
									<name>FCPCurve</name>
								</interpolation>
								<value>100</value>
							</parameter>
							<parameter>
								<parameterid>rotation</parameterid>
								<name>Rotation</name>
								<valuemin>-8640</valuemin>
								<valuemax>8640</valuemax>
								<keyframe>
									<when>1770</when>
									<value>0</value>
								</keyframe>
								<interpolation>
									<name>FCPCurve</name>
								</interpolation>
								<value>0</value>
							</parameter>
							<parameter>
								<parameterid>center</parameterid>
								<name>Center</name>
								<keyframe>
									<when>1770</when>
									<value>
										<horiz>0</horiz>
										<vert>0</vert>
									</value>
								</keyframe>
								<interpolation>
									<name>FCPCurve</name>
								</interpolation>
							</parameter>
							<parameter>
								<parameterid>centerOffset</parameterid>
								<name>Anchor Point</name>
								<keyframe>
									<when>1770</when>
									<value>
										<horiz>0</horiz>
										<vert>0</vert>
									</value>
								</keyframe>
								<interpolation>
									<name>FCPCurve</name>
								</interpolation>
							</parameter>
						</effect>
					</filter>
					<filter>
						<enabled>TRUE</enabled>
						<effect>
							<name>Drop Shadow</name>
							<effectid>dropshadow</effectid>
							<effectcategory>motion</effectcategory>
							<effecttype>motion</effecttype>
							<mediatype>video</mediatype>
							<parameter>
								<parameterid>offset</parameterid>
								<name>offset</name>
								<valuemin>-100</valuemin>
								<valuemax>100</valuemax>
								<value>0.8</value>
							</parameter>
							<parameter>
								<parameterid>angle</parameterid>
								<name>angle</name>
								<valuemin>-720</valuemin>
								<valuemax>720</valuemax>
								<value>135</value>
							</parameter>
							<parameter>
								<parameterid>color</parameterid>
								<name>color</name>
								<value>
									<alpha>0</alpha>
									<red>0</red>
									<green>0</green>
									<blue>0</blue>
								</value>
							</parameter>
							<parameter>
								<parameterid>softness</parameterid>
								<name>softness</name>
								<valuemin>0</valuemin>
								<valuemax>100</valuemax>
								<value>5</value>
							</parameter>
							<parameter>
								<parameterid>opacity</parameterid>
								<name>opacity</name>
								<valuemin>0</valuemin>
								<valuemax>100</valuemax>
								<value>75</value>
							</parameter>
						</effect>
					</filter>
					<filter>
						<enabled>FALSE</enabled>
						<effect>
							<name>Motion Blur</name>
							<effectid>motionblur</effectid>
							<effectcategory>motion</effectcategory>
							<effecttype>motion</effecttype>
							<mediatype>video</mediatype>
							<parameter>
								<parameterid>duration</parameterid>
								<name>% Blur</name>
								<valuemin>0</valuemin>
								<valuemax>1000</valuemax>
								<value>500</value>
							</parameter>
							<parameter>
								<parameterid>samples</parameterid>
								<name>Samples</name>
								<valuemin>1</valuemin>
								<valuemax>16</valuemax>
								<value>4</value>
							</parameter>
						</effect>
					</filter>
					<filter>
						<effect>
							<name>Crop</name>
							<effectid>crop</effectid>
							<effectcategory>motion</effectcategory>
							<effecttype>motion</effecttype>
							<mediatype>video</mediatype>
							<parameter>
								<parameterid>left</parameterid>
								<name>left</name>
								<valuemin>0</valuemin>
								<valuemax>100</valuemax>
								<keyframe>
									<when>1770</when>
									<value>0</value>
								</keyframe>
								<interpolation>
									<name>FCPCurve</name>
								</interpolation>
								<value>0</value>
							</parameter>
							<parameter>
								<parameterid>right</parameterid>
								<name>right</name>
								<valuemin>0</valuemin>
								<valuemax>100</valuemax>
								<keyframe>
									<when>1770</when>
									<value>0</value>
								</keyframe>
								<interpolation>
									<name>FCPCurve</name>
								</interpolation>
								<value>0</value>
							</parameter>
							<parameter>
								<parameterid>top</parameterid>
								<name>top</name>
								<valuemin>0</valuemin>
								<valuemax>100</valuemax>
								<keyframe>
									<when>1770</when>
									<value>0</value>
								</keyframe>
								<interpolation>
									<name>FCPCurve</name>
								</interpolation>
								<value>0</value>
							</parameter>
							<parameter>
								<parameterid>bottom</parameterid>
								<name>bottom</name>
								<valuemin>0</valuemin>
								<valuemax>100</valuemax>
								<keyframe>
									<when>1770</when>
									<value>0</value>
								</keyframe>
								<interpolation>
									<name>FCPCurve</name>
								</interpolation>
								<value>0</value>
							</parameter>
							<parameter>
								<parameterid>edgefeather</parameterid>
								<name>edgefeather</name>
								<valuemin>0</valuemin>
								<valuemax>100</valuemax>
								<keyframe>
									<when>1770</when>
									<value>0</value>
								</keyframe>
								<interpolation>
									<name>FCPCurve</name>
								</interpolation>
								<value>0</value>
							</parameter>
						</effect>
					</filter>
					<filter>
						<effect>
							<name>Distort</name>
							<effectid>deformation</effectid>
							<effectcategory>motion</effectcategory>
							<effecttype>motion</effecttype>
							<mediatype>video</mediatype>
							<parameter>
								<parameterid>ulcorner</parameterid>
								<name>Upper Left</name>
								<keyframe>
									<when>1770</when>
									<value>
										<horiz>-0.5</horiz>
										<vert>-0.5</vert>
									</value>
								</keyframe>
								<interpolation>
									<name>FCPCurve</name>
								</interpolation>
							</parameter>
							<parameter>
								<parameterid>urcorner</parameterid>
								<name>Upper Right</name>
								<keyframe>
									<when>1770</when>
									<value>
										<horiz>0.5</horiz>
										<vert>-0.5</vert>
									</value>
								</keyframe>
								<interpolation>
									<name>FCPCurve</name>
								</interpolation>
							</parameter>
							<parameter>
								<parameterid>lrcorner</parameterid>
								<name>Lower Right</name>
								<keyframe>
									<when>1770</when>
									<value>
										<horiz>0.5</horiz>
										<vert>0.5</vert>
									</value>
								</keyframe>
								<interpolation>
									<name>FCPCurve</name>
								</interpolation>
							</parameter>
							<parameter>
								<parameterid>llcorner</parameterid>
								<name>Lower Left</name>
								<keyframe>
									<when>1770</when>
									<value>
										<horiz>-0.5</horiz>
										<vert>0.5</vert>
									</value>
								</keyframe>
								<interpolation>
									<name>FCPCurve</name>
								</interpolation>
							</parameter>
							<parameter>
								<parameterid>aspect</parameterid>
								<name>Aspect</name>
								<valuemin>-10000</valuemin>
								<valuemax>10000</valuemax>
								<keyframe>
									<when>1770</when>
									<value>0</value>
								</keyframe>
								<interpolation>
									<name>FCPCurve</name>
								</interpolation>
								<value>0</value>
							</parameter>
						</effect>
					</filter>
					<filter>
						<effect>
							<name>Opacity</name>
							<effectid>opacity</effectid>
							<effectcategory>motion</effectcategory>
							<effecttype>motion</effecttype>
							<mediatype>video</mediatype>
							<parameter>
								<parameterid>opacity</parameterid>
								<name>opacity</name>
								<valuemin>0</valuemin>
								<valuemax>100</valuemax>
								<value>100</value>
							</parameter>
						</effect>
					</filter>
					<sourcetrack>
						<mediatype>video</mediatype>
					</sourcetrack>
					<itemhistory>
						<uuid>62EEB010-DA45-4B06-A286-9E3901A52E12</uuid>
					</itemhistory>
				</generatoritem>
				<enabled>TRUE</enabled>
				<locked>FALSE</locked>
			</track>
			<track>
				<clipitem id="DYR10516_01 6">
					<name>DYR10516_01</name>
					<duration>770</duration>
					<rate>
						<ntsc>FALSE</ntsc>
						<timebase>25</timebase>
					</rate>
					<in>411</in>
					<out>423</out>
					<start>25912</start>
					<end>25924</end>
					<pixelaspectratio>Square</pixelaspectratio>
					<enabled>TRUE</enabled>
					<anamorphic>FALSE</anamorphic>
					<alphatype>none</alphatype>
					<masterclipid>DYR10516_01 1</masterclipid>
					<logginginfo>
						<scene/>
						<shottake/>
						<lognote/>
						<good>FALSE</good>
					</logginginfo>
					<labels>
						<label2/>
					</labels>
					<comments>
						<mastercomment1/>
						<mastercomment2/>
						<mastercomment3/>
						<mastercomment4/>
					</comments>
					<file id="DYR10516_01 2"/>
					<filter>
						<effect>
							<name>Basic Motion</name>
							<effectid>basic</effectid>
							<effectcategory>motion</effectcategory>
							<effecttype>motion</effecttype>
							<mediatype>video</mediatype>
							<parameter>
								<parameterid>scale</parameterid>
								<name>Scale</name>
								<valuemin>0</valuemin>
								<valuemax>1000</valuemax>
								<value>100</value>
							</parameter>
							<parameter>
								<parameterid>rotation</parameterid>
								<name>Rotation</name>
								<valuemin>-8640</valuemin>
								<valuemax>8640</valuemax>
								<value>0</value>
							</parameter>
							<parameter>
								<parameterid>center</parameterid>
								<name>Center</name>
								<value>
									<horiz>0</horiz>
									<vert>0</vert>
								</value>
							</parameter>
							<parameter>
								<parameterid>centerOffset</parameterid>
								<name>Anchor Point</name>
								<value>
									<horiz>0</horiz>
									<vert>0</vert>
								</value>
							</parameter>
						</effect>
					</filter>
					<filter>
						<enabled>FALSE</enabled>
						<effect>
							<name>Drop Shadow</name>
							<effectid>dropshadow</effectid>
							<effectcategory>motion</effectcategory>
							<effecttype>motion</effecttype>
							<mediatype>video</mediatype>
							<parameter>
								<parameterid>offset</parameterid>
								<name>offset</name>
								<valuemin>-100</valuemin>
								<valuemax>100</valuemax>
								<value>2</value>
							</parameter>
							<parameter>
								<parameterid>angle</parameterid>
								<name>angle</name>
								<valuemin>-720</valuemin>
								<valuemax>720</valuemax>
								<value>135</value>
							</parameter>
							<parameter>
								<parameterid>color</parameterid>
								<name>color</name>
								<value>
									<alpha>0</alpha>
									<red>0</red>
									<green>0</green>
									<blue>0</blue>
								</value>
							</parameter>
							<parameter>
								<parameterid>softness</parameterid>
								<name>softness</name>
								<valuemin>0</valuemin>
								<valuemax>100</valuemax>
								<value>10</value>
							</parameter>
							<parameter>
								<parameterid>opacity</parameterid>
								<name>opacity</name>
								<valuemin>0</valuemin>
								<valuemax>100</valuemax>
								<value>50</value>
							</parameter>
						</effect>
					</filter>
					<filter>
						<enabled>FALSE</enabled>
						<effect>
							<name>Motion Blur</name>
							<effectid>motionblur</effectid>
							<effectcategory>motion</effectcategory>
							<effecttype>motion</effecttype>
							<mediatype>video</mediatype>
							<parameter>
								<parameterid>duration</parameterid>
								<name>% Blur</name>
								<valuemin>0</valuemin>
								<valuemax>1000</valuemax>
								<value>500</value>
							</parameter>
							<parameter>
								<parameterid>samples</parameterid>
								<name>Samples</name>
								<valuemin>1</valuemin>
								<valuemax>16</valuemax>
								<value>4</value>
							</parameter>
						</effect>
					</filter>
					<filter>
						<effect>
							<name>Crop</name>
							<effectid>crop</effectid>
							<effectcategory>motion</effectcategory>
							<effecttype>motion</effecttype>
							<mediatype>video</mediatype>
							<parameter>
								<parameterid>left</parameterid>
								<name>left</name>
								<valuemin>0</valuemin>
								<valuemax>100</valuemax>
								<value>0</value>
							</parameter>
							<parameter>
								<parameterid>right</parameterid>
								<name>right</name>
								<valuemin>0</valuemin>
								<valuemax>100</valuemax>
								<value>89</value>
							</parameter>
							<parameter>
								<parameterid>top</parameterid>
								<name>top</name>
								<valuemin>0</valuemin>
								<valuemax>100</valuemax>
								<value>55</value>
							</parameter>
							<parameter>
								<parameterid>bottom</parameterid>
								<name>bottom</name>
								<valuemin>0</valuemin>
								<valuemax>100</valuemax>
								<value>0</value>
							</parameter>
							<parameter>
								<parameterid>edgefeather</parameterid>
								<name>edgefeather</name>
								<valuemin>0</valuemin>
								<valuemax>100</valuemax>
								<value>4</value>
							</parameter>
						</effect>
					</filter>
					<filter>
						<effect>
							<name>Distort</name>
							<effectid>deformation</effectid>
							<effectcategory>motion</effectcategory>
							<effecttype>motion</effecttype>
							<mediatype>video</mediatype>
							<parameter>
								<parameterid>ulcorner</parameterid>
								<name>Upper Left</name>
								<value>
									<horiz>-0.5</horiz>
									<vert>-0.5</vert>
								</value>
							</parameter>
							<parameter>
								<parameterid>urcorner</parameterid>
								<name>Upper Right</name>
								<value>
									<horiz>0.5</horiz>
									<vert>-0.5</vert>
								</value>
							</parameter>
							<parameter>
								<parameterid>lrcorner</parameterid>
								<name>Lower Right</name>
								<value>
									<horiz>0.5</horiz>
									<vert>0.5</vert>
								</value>
							</parameter>
							<parameter>
								<parameterid>llcorner</parameterid>
								<name>Lower Left</name>
								<value>
									<horiz>-0.5</horiz>
									<vert>0.5</vert>
								</value>
							</parameter>
							<parameter>
								<parameterid>aspect</parameterid>
								<name>Aspect</name>
								<valuemin>-10000</valuemin>
								<valuemax>10000</valuemax>
								<value>0</value>
							</parameter>
						</effect>
					</filter>
					<filter>
						<effect>
							<name>Opacity</name>
							<effectid>opacity</effectid>
							<effectcategory>motion</effectcategory>
							<effecttype>motion</effecttype>
							<mediatype>video</mediatype>
							<parameter>
								<parameterid>opacity</parameterid>
								<name>opacity</name>
								<valuemin>0</valuemin>
								<valuemax>100</valuemax>
								<value>100</value>
							</parameter>
						</effect>
					</filter>
					<sourcetrack>
						<mediatype>video</mediatype>
					</sourcetrack>
					<fielddominance>upper</fielddominance>
					<itemhistory>
						<uuid>D917B898-4075-4A9F-B7AB-5CC4C259E117</uuid>
					</itemhistory>
				</clipitem>
				<enabled>TRUE</enabled>
				<locked>FALSE</locked>
			</track>
			<track>
				<enabled>TRUE</enabled>
				<locked>FALSE</locked>
			</track>
			<track>
				<enabled>TRUE</enabled>
				<locked>FALSE</locked>
			</track>
		</video>
		<audio>
			<format>
				<samplecharacteristics>
					<depth>24</depth>
					<samplerate>48000</samplerate>
				</samplecharacteristics>
			</format>
			<outputs>
				<group>
					<index>1</index>
					<numchannels>2</numchannels>
					<downmix>0</downmix>
					<channel>
						<index>1</index>
					</channel>
					<channel>
						<index>2</index>
					</channel>
				</group>
			</outputs>
			<in>0</in>
			<out>29029</out>
			<track>
				<clipitem id="525_1799_01 3">
					<name>525_1799_01</name>
					<duration>1779</duration>
					<rate>
						<ntsc>FALSE</ntsc>
						<timebase>25</timebase>
					</rate>
					<in>532</in>
					<out>636</out>
					<start>408</start>
					<end>512</end>
					<subframeoffset>0</subframeoffset>
					<masterclipid>525_1799_01 1</masterclipid>
					<logginginfo>
						<scene/>
						<shottake/>
						<lognote/>
						<good>FALSE</good>
					</logginginfo>
					<labels>
						<label2/>
					</labels>
					<comments>
						<mastercomment1/>
						<mastercomment2/>
						<mastercomment3/>
						<mastercomment4/>
					</comments>
					<file id="525_1799_01 2"/>
					<filter>
						<effect>
							<name>Audio Levels</name>
							<effectid>audiolevels</effectid>
							<effectcategory>audiolevels</effectcategory>
							<effecttype>audiolevels</effecttype>
							<mediatype>audio</mediatype>
							<parameter>
								<name>Level</name>
								<parameterid>level</parameterid>
								<valuemin>0</valuemin>
								<valuemax>3.98109</valuemax>
								<value>0</value>
							</parameter>
						</effect>
					</filter>
					<filter>
						<effect>
							<name>Audio Pan</name>
							<effectid>audiopan</effectid>
							<effectcategory>audiopan</effectcategory>
							<effecttype>audiopan</effecttype>
							<mediatype>audio</mediatype>
							<parameter>
								<name>Pan</name>
								<parameterid>pan</parameterid>
								<valuemin>-1</valuemin>
								<valuemax>1</valuemax>
								<value>0</value>
							</parameter>
						</effect>
					</filter>
					<sourcetrack>
						<mediatype>audio</mediatype>
						<trackindex>1</trackindex>
					</sourcetrack>
					<link>
						<linkclipref>525_1799_01 </linkclipref>
						<mediatype>video</mediatype>
						<trackindex>1</trackindex>
						<clipindex>1</clipindex>
					</link>
					<link>
						<linkclipref>525_1799_01 3</linkclipref>
						<mediatype>audio</mediatype>
						<trackindex>1</trackindex>
						<clipindex>1</clipindex>
					</link>
					<link>
						<linkclipref>525_1799_01 4</linkclipref>
						<mediatype>audio</mediatype>
						<trackindex>2</trackindex>
						<clipindex>1</clipindex>
					</link>
					<itemhistory>
						<uuid>410195A8-6F27-4428-BD38-1A6DA56649DC</uuid>
					</itemhistory>
				</clipitem>
				<clipitem id="DYR19729_01 3">
					<name>DYR19729_01</name>
					<duration>589</duration>
					<rate>
						<ntsc>FALSE</ntsc>
						<timebase>25</timebase>
					</rate>
					<in>318</in>
					<out>458</out>
					<start>512</start>
					<end>-1</end>
					<masterclipid>DYR19729_01 1</masterclipid>
					<logginginfo>
						<scene/>
						<shottake/>
						<lognote/>
						<good>FALSE</good>
					</logginginfo>
					<labels>
						<label2/>
					</labels>
					<comments>
						<mastercomment1/>
						<mastercomment2/>
						<mastercomment3/>
						<mastercomment4/>
					</comments>
					<file id="DYR19729_01 2"/>
					<filter>
						<effect>
							<name>Audio Levels</name>
							<effectid>audiolevels</effectid>
							<effectcategory>audiolevels</effectcategory>
							<effecttype>audiolevels</effecttype>
							<mediatype>audio</mediatype>
							<parameter>
								<name>Level</name>
								<parameterid>level</parameterid>
								<valuemin>0</valuemin>
								<valuemax>3.98109</valuemax>
								<value>0</value>
							</parameter>
						</effect>
					</filter>
					<filter>
						<effect>
							<name>Audio Pan</name>
							<effectid>audiopan</effectid>
							<effectcategory>audiopan</effectcategory>
							<effecttype>audiopan</effecttype>
							<mediatype>audio</mediatype>
							<parameter>
								<name>Pan</name>
								<parameterid>pan</parameterid>
								<valuemin>-1</valuemin>
								<valuemax>1</valuemax>
								<value>0</value>
							</parameter>
						</effect>
					</filter>
					<sourcetrack>
						<mediatype>audio</mediatype>
						<trackindex>1</trackindex>
					</sourcetrack>
					<link>
						<linkclipref>DYR19729_01 </linkclipref>
						<mediatype>video</mediatype>
						<trackindex>1</trackindex>
						<clipindex>3</clipindex>
					</link>
					<link>
						<linkclipref>DYR19729_01 3</linkclipref>
						<mediatype>audio</mediatype>
						<trackindex>1</trackindex>
						<clipindex>2</clipindex>
					</link>
					<link>
						<linkclipref>DYR19729_01 4</linkclipref>
						<mediatype>audio</mediatype>
						<trackindex>2</trackindex>
						<clipindex>2</clipindex>
					</link>
					<itemhistory>
						<uuid>B7B1488E-956D-4A3C-8F36-B88087556AF9</uuid>
					</itemhistory>
				</clipitem>
				<transitionitem>
					<rate>
						<ntsc>FALSE</ntsc>
						<timebase>25</timebase>
					</rate>
					<start>627</start>
					<end>652</end>
					<alignment>center</alignment>
					<effect>
						<name>Cross Fade (+3dB)</name>
						<effectid>KGAudioTransCrossFade3dB</effectid>
						<effecttype>transition</effecttype>
						<mediatype>audio</mediatype>
					</effect>
				</transitionitem>
				<clipitem id="AA1477_01 3">
					<name>AA1477_01</name>
					<duration>408</duration>
					<rate>
						<ntsc>FALSE</ntsc>
						<timebase>25</timebase>
					</rate>
					<in>196</in>
					<out>289</out>
					<start>-1</start>
					<end>720</end>
					<subframeoffset>0</subframeoffset>
					<masterclipid>AA1477_01 1</masterclipid>
					<logginginfo>
						<scene/>
						<shottake/>
						<lognote/>
						<good>FALSE</good>
					</logginginfo>
					<labels>
						<label2/>
					</labels>
					<comments>
						<mastercomment1/>
						<mastercomment2/>
						<mastercomment3/>
						<mastercomment4/>
					</comments>
					<file id="AA1477_01 2"/>
					<filter>
						<effect>
							<name>Audio Levels</name>
							<effectid>audiolevels</effectid>
							<effectcategory>audiolevels</effectcategory>
							<effecttype>audiolevels</effecttype>
							<mediatype>audio</mediatype>
							<parameter>
								<name>Level</name>
								<parameterid>level</parameterid>
								<valuemin>0</valuemin>
								<valuemax>3.98109</valuemax>
								<value>1</value>
							</parameter>
						</effect>
					</filter>
					<filter>
						<effect>
							<name>Audio Pan</name>
							<effectid>audiopan</effectid>
							<effectcategory>audiopan</effectcategory>
							<effecttype>audiopan</effecttype>
							<mediatype>audio</mediatype>
							<parameter>
								<name>Pan</name>
								<parameterid>pan</parameterid>
								<valuemin>-1</valuemin>
								<valuemax>1</valuemax>
								<value>0</value>
							</parameter>
						</effect>
					</filter>
					<sourcetrack>
						<mediatype>audio</mediatype>
						<trackindex>1</trackindex>
					</sourcetrack>
					<link>
						<linkclipref>AA1477_01 </linkclipref>
						<mediatype>video</mediatype>
						<trackindex>1</trackindex>
						<clipindex>5</clipindex>
					</link>
					<link>
						<linkclipref>AA1477_01 3</linkclipref>
						<mediatype>audio</mediatype>
						<trackindex>1</trackindex>
						<clipindex>4</clipindex>
					</link>
					<link>
						<linkclipref>AA1477_01 4</linkclipref>
						<mediatype>audio</mediatype>
						<trackindex>2</trackindex>
						<clipindex>4</clipindex>
					</link>
					<itemhistory>
						<uuid>F345FAA6-7413-445E-9F34-FC4054F7FC0D</uuid>
					</itemhistory>
				</clipitem>
				<clipitem id="Clip1ATK24 3">
					<name>Clip1ATK24</name>
					<duration>706</duration>
					<rate>
						<ntsc>FALSE</ntsc>
						<timebase>25</timebase>
					</rate>
					<in>23</in>
					<out>424</out>
					<start>848</start>
					<end>1249</end>
					<subframeoffset>0</subframeoffset>
					<masterclipid>Clip1ATK24 1</masterclipid>
					<logginginfo>
						<scene/>
						<shottake/>
						<lognote/>
						<good>FALSE</good>
					</logginginfo>
					<labels>
						<label2/>
					</labels>
					<comments>
						<mastercomment1/>
						<mastercomment2/>
						<mastercomment3/>
						<mastercomment4/>
					</comments>
					<file id="Clip1ATK24 2"/>
					<filter>
						<effect>
							<name>Audio Levels</name>
							<effectid>audiolevels</effectid>
							<effectcategory>audiolevels</effectcategory>
							<effecttype>audiolevels</effecttype>
							<mediatype>audio</mediatype>
							<parameter>
								<name>Level</name>
								<parameterid>level</parameterid>
								<valuemin>0</valuemin>
								<valuemax>3.98109</valuemax>
								<value>1</value>
							</parameter>
						</effect>
					</filter>
					<filter>
						<effect>
							<name>Audio Pan</name>
							<effectid>audiopan</effectid>
							<effectcategory>audiopan</effectcategory>
							<effecttype>audiopan</effecttype>
							<mediatype>audio</mediatype>
							<parameter>
								<name>Pan</name>
								<parameterid>pan</parameterid>
								<valuemin>-1</valuemin>
								<valuemax>1</valuemax>
								<value>0</value>
							</parameter>
						</effect>
					</filter>
					<sourcetrack>
						<mediatype>audio</mediatype>
						<trackindex>1</trackindex>
					</sourcetrack>
					<link>
						<linkclipref>Clip1ATK24 </linkclipref>
						<mediatype>video</mediatype>
						<trackindex>1</trackindex>
						<clipindex>8</clipindex>
					</link>
					<link>
						<linkclipref>Clip1ATK24 3</linkclipref>
						<mediatype>audio</mediatype>
						<trackindex>1</trackindex>
						<clipindex>5</clipindex>
					</link>
					<link>
						<linkclipref>Clip1ATK24 4</linkclipref>
						<mediatype>audio</mediatype>
						<trackindex>2</trackindex>
						<clipindex>5</clipindex>
					</link>
					<itemhistory>
						<uuid>59AA42EB-817D-430F-8CC4-0D6543D14119</uuid>
					</itemhistory>
				</clipitem>
				<clipitem id="Clip1ATK29 3">
					<name>Clip1ATK29</name>
					<duration>553</duration>
					<rate>
						<ntsc>FALSE</ntsc>
						<timebase>25</timebase>
					</rate>
					<in>230</in>
					<out>378</out>
					<start>1249</start>
					<end>1397</end>
					<subframeoffset>0</subframeoffset>
					<masterclipid>Clip1ATK29 1</masterclipid>
					<logginginfo>
						<scene/>
						<shottake/>
						<lognote/>
						<good>FALSE</good>
					</logginginfo>
					<labels>
						<label2/>
					</labels>
					<comments>
						<mastercomment1/>
						<mastercomment2/>
						<mastercomment3/>
						<mastercomment4/>
					</comments>
					<file id="Clip1ATK29 2"/>
					<filter>
						<effect>
							<name>Audio Levels</name>
							<effectid>audiolevels</effectid>
							<effectcategory>audiolevels</effectcategory>
							<effecttype>audiolevels</effecttype>
							<mediatype>audio</mediatype>
							<parameter>
								<name>Level</name>
								<parameterid>level</parameterid>
								<valuemin>0</valuemin>
								<valuemax>3.98109</valuemax>
								<value>1</value>
							</parameter>
						</effect>
					</filter>
					<filter>
						<effect>
							<name>Audio Pan</name>
							<effectid>audiopan</effectid>
							<effectcategory>audiopan</effectcategory>
							<effecttype>audiopan</effecttype>
							<mediatype>audio</mediatype>
							<parameter>
								<name>Pan</name>
								<parameterid>pan</parameterid>
								<valuemin>-1</valuemin>
								<valuemax>1</valuemax>
								<value>0</value>
							</parameter>
						</effect>
					</filter>
					<sourcetrack>
						<mediatype>audio</mediatype>
						<trackindex>1</trackindex>
					</sourcetrack>
					<link>
						<linkclipref>Clip1ATK29 </linkclipref>
						<mediatype>video</mediatype>
						<trackindex>1</trackindex>
						<clipindex>9</clipindex>
					</link>
					<link>
						<linkclipref>Clip1ATK29 3</linkclipref>
						<mediatype>audio</mediatype>
						<trackindex>1</trackindex>
						<clipindex>6</clipindex>
					</link>
					<link>
						<linkclipref>Clip1ATK29 4</linkclipref>
						<mediatype>audio</mediatype>
						<trackindex>2</trackindex>
						<clipindex>6</clipindex>
					</link>
					<itemhistory>
						<uuid>2FB0C6E4-C6D8-4D31-916D-C3D611F0224E</uuid>
					</itemhistory>
				</clipitem>
				<clipitem id="525_1784_01 3">
					<name>525_1784_01</name>
					<duration>1081</duration>
					<rate>
						<ntsc>FALSE</ntsc>
						<timebase>25</timebase>
					</rate>
					<in>333</in>
					<out>542</out>
					<start>1397</start>
					<end>1606</end>
					<subframeoffset>0</subframeoffset>
					<masterclipid>525_1784_01 1</masterclipid>
					<logginginfo>
						<scene/>
						<shottake/>
						<lognote/>
						<good>FALSE</good>
					</logginginfo>
					<labels>
						<label2/>
					</labels>
					<comments>
						<mastercomment1/>
						<mastercomment2/>
						<mastercomment3/>
						<mastercomment4/>
					</comments>
					<file id="525_1784_01 2"/>
					<filter>
						<effect>
							<name>Audio Levels</name>
							<effectid>audiolevels</effectid>
							<effectcategory>audiolevels</effectcategory>
							<effecttype>audiolevels</effecttype>
							<mediatype>audio</mediatype>
							<parameter>
								<name>Level</name>
								<parameterid>level</parameterid>
								<valuemin>0</valuemin>
								<valuemax>3.98109</valuemax>
								<value>1</value>
							</parameter>
						</effect>
					</filter>
					<filter>
						<effect>
							<name>Audio Pan</name>
							<effectid>audiopan</effectid>
							<effectcategory>audiopan</effectcategory>
							<effecttype>audiopan</effecttype>
							<mediatype>audio</mediatype>
							<parameter>
								<name>Pan</name>
								<parameterid>pan</parameterid>
								<valuemin>-1</valuemin>
								<valuemax>1</valuemax>
								<value>0</value>
							</parameter>
						</effect>
					</filter>
					<sourcetrack>
						<mediatype>audio</mediatype>
						<trackindex>1</trackindex>
					</sourcetrack>
					<link>
						<linkclipref>525_1784_01 </linkclipref>
						<mediatype>video</mediatype>
						<trackindex>1</trackindex>
						<clipindex>10</clipindex>
					</link>
					<link>
						<linkclipref>525_1784_01 3</linkclipref>
						<mediatype>audio</mediatype>
						<trackindex>1</trackindex>
						<clipindex>7</clipindex>
					</link>
					<link>
						<linkclipref>525_1784_01 4</linkclipref>
						<mediatype>audio</mediatype>
						<trackindex>2</trackindex>
						<clipindex>7</clipindex>
					</link>
					<itemhistory>
						<uuid>9860ED2D-BEFC-42A2-B273-E8409A57EE0D</uuid>
					</itemhistory>
				</clipitem>
				<clipitem id="525_1787_01 3">
					<name>525_1787_01</name>
					<duration>450</duration>
					<rate>
						<ntsc>FALSE</ntsc>
						<timebase>25</timebase>
					</rate>
					<in>247</in>
					<out>387</out>
					<start>1606</start>
					<end>1746</end>
					<subframeoffset>0</subframeoffset>
					<masterclipid>525_1787_01 1</masterclipid>
					<logginginfo>
						<scene/>
						<shottake/>
						<lognote/>
						<good>FALSE</good>
					</logginginfo>
					<labels>
						<label2/>
					</labels>
					<comments>
						<mastercomment1/>
						<mastercomment2/>
						<mastercomment3/>
						<mastercomment4/>
					</comments>
					<file id="525_1787_01 2"/>
					<filter>
						<effect>
							<name>Audio Levels</name>
							<effectid>audiolevels</effectid>
							<effectcategory>audiolevels</effectcategory>
							<effecttype>audiolevels</effecttype>
							<mediatype>audio</mediatype>
							<parameter>
								<name>Level</name>
								<parameterid>level</parameterid>
								<valuemin>0</valuemin>
								<valuemax>3.98109</valuemax>
								<value>1</value>
							</parameter>
						</effect>
					</filter>
					<filter>
						<effect>
							<name>Audio Pan</name>
							<effectid>audiopan</effectid>
							<effectcategory>audiopan</effectcategory>
							<effecttype>audiopan</effecttype>
							<mediatype>audio</mediatype>
							<parameter>
								<name>Pan</name>
								<parameterid>pan</parameterid>
								<valuemin>-1</valuemin>
								<valuemax>1</valuemax>
								<value>0</value>
							</parameter>
						</effect>
					</filter>
					<sourcetrack>
						<mediatype>audio</mediatype>
						<trackindex>1</trackindex>
					</sourcetrack>
					<link>
						<linkclipref>525_1787_01 </linkclipref>
						<mediatype>video</mediatype>
						<trackindex>1</trackindex>
						<clipindex>11</clipindex>
					</link>
					<link>
						<linkclipref>525_1787_01 3</linkclipref>
						<mediatype>audio</mediatype>
						<trackindex>1</trackindex>
						<clipindex>8</clipindex>
					</link>
					<link>
						<linkclipref>525_1787_01 4</linkclipref>
						<mediatype>audio</mediatype>
						<trackindex>2</trackindex>
						<clipindex>8</clipindex>
					</link>
					<itemhistory>
						<uuid>72179E0A-1ABE-4E45-B051-A933E8F2200C</uuid>
					</itemhistory>
				</clipitem>
				<clipitem id="525_1797_01 3">
					<name>525_1797_01</name>
					<duration>3463</duration>
					<rate>
						<ntsc>FALSE</ntsc>
						<timebase>25</timebase>
					</rate>
					<in>34</in>
					<out>132</out>
					<start>1746</start>
					<end>1844</end>
					<subframeoffset>0</subframeoffset>
					<masterclipid>525_1797_01 1</masterclipid>
					<logginginfo>
						<scene/>
						<shottake/>
						<lognote/>
						<good>FALSE</good>
					</logginginfo>
					<labels>
						<label2/>
					</labels>
					<comments>
						<mastercomment1/>
						<mastercomment2/>
						<mastercomment3/>
						<mastercomment4/>
					</comments>
					<file id="525_1797_01 2"/>
					<filter>
						<effect>
							<name>Audio Levels</name>
							<effectid>audiolevels</effectid>
							<effectcategory>audiolevels</effectcategory>
							<effecttype>audiolevels</effecttype>
							<mediatype>audio</mediatype>
							<parameter>
								<name>Level</name>
								<parameterid>level</parameterid>
								<valuemin>0</valuemin>
								<valuemax>3.98109</valuemax>
								<value>1</value>
							</parameter>
						</effect>
					</filter>
					<filter>
						<effect>
							<name>Audio Pan</name>
							<effectid>audiopan</effectid>
							<effectcategory>audiopan</effectcategory>
							<effecttype>audiopan</effecttype>
							<mediatype>audio</mediatype>
							<parameter>
								<name>Pan</name>
								<parameterid>pan</parameterid>
								<valuemin>-1</valuemin>
								<valuemax>1</valuemax>
								<value>0</value>
							</parameter>
						</effect>
					</filter>
					<sourcetrack>
						<mediatype>audio</mediatype>
						<trackindex>1</trackindex>
					</sourcetrack>
					<link>
						<linkclipref>525_1797_01 </linkclipref>
						<mediatype>video</mediatype>
						<trackindex>1</trackindex>
						<clipindex>12</clipindex>
					</link>
					<link>
						<linkclipref>525_1797_01 3</linkclipref>
						<mediatype>audio</mediatype>
						<trackindex>1</trackindex>
						<clipindex>9</clipindex>
					</link>
					<link>
						<linkclipref>525_1797_01 4</linkclipref>
						<mediatype>audio</mediatype>
						<trackindex>2</trackindex>
						<clipindex>9</clipindex>
					</link>
					<itemhistory>
						<uuid>232B847E-1276-40CB-BC13-DB915B692B65</uuid>
					</itemhistory>
				</clipitem>
				<clipitem id="525_1790_01 3">
					<name>525_1790_01</name>
					<duration>1245</duration>
					<rate>
						<ntsc>FALSE</ntsc>
						<timebase>25</timebase>
					</rate>
					<in>193</in>
					<out>269</out>
					<start>1844</start>
					<end>1920</end>
					<subframeoffset>0</subframeoffset>
					<masterclipid>525_1790_01 1</masterclipid>
					<logginginfo>
						<scene/>
						<shottake/>
						<lognote/>
						<good>FALSE</good>
					</logginginfo>
					<labels>
						<label2/>
					</labels>
					<comments>
						<mastercomment1/>
						<mastercomment2/>
						<mastercomment3/>
						<mastercomment4/>
					</comments>
					<file id="525_1790_01 2"/>
					<filter>
						<effect>
							<name>Audio Levels</name>
							<effectid>audiolevels</effectid>
							<effectcategory>audiolevels</effectcategory>
							<effecttype>audiolevels</effecttype>
							<mediatype>audio</mediatype>
							<parameter>
								<name>Level</name>
								<parameterid>level</parameterid>
								<valuemin>0</valuemin>
								<valuemax>3.98109</valuemax>
								<value>1</value>
							</parameter>
						</effect>
					</filter>
					<filter>
						<effect>
							<name>Audio Pan</name>
							<effectid>audiopan</effectid>
							<effectcategory>audiopan</effectcategory>
							<effecttype>audiopan</effecttype>
							<mediatype>audio</mediatype>
							<parameter>
								<name>Pan</name>
								<parameterid>pan</parameterid>
								<valuemin>-1</valuemin>
								<valuemax>1</valuemax>
								<value>0</value>
							</parameter>
						</effect>
					</filter>
					<sourcetrack>
						<mediatype>audio</mediatype>
						<trackindex>1</trackindex>
					</sourcetrack>
					<link>
						<linkclipref>525_1790_01 </linkclipref>
						<mediatype>video</mediatype>
						<trackindex>1</trackindex>
						<clipindex>13</clipindex>
					</link>
					<link>
						<linkclipref>525_1790_01 3</linkclipref>
						<mediatype>audio</mediatype>
						<trackindex>1</trackindex>
						<clipindex>10</clipindex>
					</link>
					<link>
						<linkclipref>525_1790_01 4</linkclipref>
						<mediatype>audio</mediatype>
						<trackindex>2</trackindex>
						<clipindex>10</clipindex>
					</link>
					<itemhistory>
						<uuid>50B1DB5F-6526-4F6F-9680-D26D50F2BCF4</uuid>
					</itemhistory>
				</clipitem>
				<clipitem id="525_1797_01 6">
					<name>525_1797_01</name>
					<duration>3463</duration>
					<rate>
						<ntsc>FALSE</ntsc>
						<timebase>25</timebase>
					</rate>
					<in>205</in>
					<out>290</out>
					<start>1920</start>
					<end>2005</end>
					<subframeoffset>0</subframeoffset>
					<masterclipid>525_1797_01 1</masterclipid>
					<logginginfo>
						<scene/>
						<shottake/>
						<lognote/>
						<good>FALSE</good>
					</logginginfo>
					<labels>
						<label2/>
					</labels>
					<comments>
						<mastercomment1/>
						<mastercomment2/>
						<mastercomment3/>
						<mastercomment4/>
					</comments>
					<file id="525_1797_01 2"/>
					<filter>
						<effect>
							<name>Audio Levels</name>
							<effectid>audiolevels</effectid>
							<effectcategory>audiolevels</effectcategory>
							<effecttype>audiolevels</effecttype>
							<mediatype>audio</mediatype>
							<parameter>
								<name>Level</name>
								<parameterid>level</parameterid>
								<valuemin>0</valuemin>
								<valuemax>3.98109</valuemax>
								<value>1</value>
							</parameter>
						</effect>
					</filter>
					<filter>
						<effect>
							<name>Audio Pan</name>
							<effectid>audiopan</effectid>
							<effectcategory>audiopan</effectcategory>
							<effecttype>audiopan</effecttype>
							<mediatype>audio</mediatype>
							<parameter>
								<name>Pan</name>
								<parameterid>pan</parameterid>
								<valuemin>-1</valuemin>
								<valuemax>1</valuemax>
								<value>0</value>
							</parameter>
						</effect>
					</filter>
					<sourcetrack>
						<mediatype>audio</mediatype>
						<trackindex>1</trackindex>
					</sourcetrack>
					<link>
						<linkclipref>525_1797_01 5</linkclipref>
						<mediatype>video</mediatype>
						<trackindex>1</trackindex>
						<clipindex>14</clipindex>
					</link>
					<link>
						<linkclipref>525_1797_01 6</linkclipref>
						<mediatype>audio</mediatype>
						<trackindex>1</trackindex>
						<clipindex>11</clipindex>
					</link>
					<link>
						<linkclipref>525_1797_01 7</linkclipref>
						<mediatype>audio</mediatype>
						<trackindex>2</trackindex>
						<clipindex>11</clipindex>
					</link>
					<itemhistory>
						<uuid>E0B7A2E3-10B0-42DB-B9DD-692F5E2D8AFB</uuid>
					</itemhistory>
				</clipitem>
				<clipitem id="525_1791_01 3">
					<name>525_1791_01</name>
					<duration>3026</duration>
					<rate>
						<ntsc>FALSE</ntsc>
						<timebase>25</timebase>
					</rate>
					<in>664</in>
					<out>770</out>
					<start>2005</start>
					<end>2111</end>
					<subframeoffset>0</subframeoffset>
					<masterclipid>525_1791_01 1</masterclipid>
					<logginginfo>
						<scene/>
						<shottake/>
						<lognote/>
						<good>FALSE</good>
					</logginginfo>
					<labels>
						<label2/>
					</labels>
					<comments>
						<mastercomment1/>
						<mastercomment2/>
						<mastercomment3/>
						<mastercomment4/>
					</comments>
					<file id="525_1791_01 2"/>
					<filter>
						<effect>
							<name>Audio Levels</name>
							<effectid>audiolevels</effectid>
							<effectcategory>audiolevels</effectcategory>
							<effecttype>audiolevels</effecttype>
							<mediatype>audio</mediatype>
							<parameter>
								<name>Level</name>
								<parameterid>level</parameterid>
								<valuemin>0</valuemin>
								<valuemax>3.98109</valuemax>
								<value>1</value>
							</parameter>
						</effect>
					</filter>
					<filter>
						<effect>
							<name>Audio Pan</name>
							<effectid>audiopan</effectid>
							<effectcategory>audiopan</effectcategory>
							<effecttype>audiopan</effecttype>
							<mediatype>audio</mediatype>
							<parameter>
								<name>Pan</name>
								<parameterid>pan</parameterid>
								<valuemin>-1</valuemin>
								<valuemax>1</valuemax>
								<value>0</value>
							</parameter>
						</effect>
					</filter>
					<sourcetrack>
						<mediatype>audio</mediatype>
						<trackindex>1</trackindex>
					</sourcetrack>
					<link>
						<linkclipref>525_1791_01 </linkclipref>
						<mediatype>video</mediatype>
						<trackindex>1</trackindex>
						<clipindex>15</clipindex>
					</link>
					<link>
						<linkclipref>525_1791_01 3</linkclipref>
						<mediatype>audio</mediatype>
						<trackindex>1</trackindex>
						<clipindex>12</clipindex>
					</link>
					<link>
						<linkclipref>525_1791_01 4</linkclipref>
						<mediatype>audio</mediatype>
						<trackindex>2</trackindex>
						<clipindex>12</clipindex>
					</link>
					<itemhistory>
						<uuid>CF09F673-843E-449F-A28C-35804500AA92</uuid>
					</itemhistory>
				</clipitem>
				<clipitem id="525_1797_01 9">
					<name>525_1797_01</name>
					<duration>3463</duration>
					<rate>
						<ntsc>FALSE</ntsc>
						<timebase>25</timebase>
					</rate>
					<in>419</in>
					<out>446</out>
					<start>2111</start>
					<end>2138</end>
					<subframeoffset>0</subframeoffset>
					<masterclipid>525_1797_01 1</masterclipid>
					<logginginfo>
						<scene/>
						<shottake/>
						<lognote/>
						<good>FALSE</good>
					</logginginfo>
					<labels>
						<label2/>
					</labels>
					<comments>
						<mastercomment1/>
						<mastercomment2/>
						<mastercomment3/>
						<mastercomment4/>
					</comments>
					<file id="525_1797_01 2"/>
					<filter>
						<effect>
							<name>Audio Levels</name>
							<effectid>audiolevels</effectid>
							<effectcategory>audiolevels</effectcategory>
							<effecttype>audiolevels</effecttype>
							<mediatype>audio</mediatype>
							<parameter>
								<name>Level</name>
								<parameterid>level</parameterid>
								<valuemin>0</valuemin>
								<valuemax>3.98109</valuemax>
								<value>1</value>
							</parameter>
						</effect>
					</filter>
					<filter>
						<effect>
							<name>Audio Pan</name>
							<effectid>audiopan</effectid>
							<effectcategory>audiopan</effectcategory>
							<effecttype>audiopan</effecttype>
							<mediatype>audio</mediatype>
							<parameter>
								<name>Pan</name>
								<parameterid>pan</parameterid>
								<valuemin>-1</valuemin>
								<valuemax>1</valuemax>
								<value>0</value>
							</parameter>
						</effect>
					</filter>
					<sourcetrack>
						<mediatype>audio</mediatype>
						<trackindex>1</trackindex>
					</sourcetrack>
					<link>
						<linkclipref>525_1797_01 8</linkclipref>
						<mediatype>video</mediatype>
						<trackindex>1</trackindex>
						<clipindex>16</clipindex>
					</link>
					<link>
						<linkclipref>525_1797_01 9</linkclipref>
						<mediatype>audio</mediatype>
						<trackindex>1</trackindex>
						<clipindex>13</clipindex>
					</link>
					<link>
						<linkclipref>525_1797_01 10</linkclipref>
						<mediatype>audio</mediatype>
						<trackindex>2</trackindex>
						<clipindex>13</clipindex>
					</link>
					<itemhistory>
						<uuid>676779FE-5055-4CB5-A455-DB1C1C7AEF00</uuid>
					</itemhistory>
				</clipitem>
				<clipitem id="525_1803_01 3">
					<name>525_1803_01</name>
					<duration>3142</duration>
					<rate>
						<ntsc>FALSE</ntsc>
						<timebase>25</timebase>
					</rate>
					<in>486</in>
					<out>545</out>
					<start>2138</start>
					<end>2197</end>
					<subframeoffset>0</subframeoffset>
					<masterclipid>525_1803_01 1</masterclipid>
					<logginginfo>
						<scene/>
						<shottake/>
						<lognote/>
						<good>FALSE</good>
					</logginginfo>
					<labels>
						<label2/>
					</labels>
					<comments>
						<mastercomment1/>
						<mastercomment2/>
						<mastercomment3/>
						<mastercomment4/>
					</comments>
					<file id="525_1803_01 2"/>
					<filter>
						<effect>
							<name>Audio Levels</name>
							<effectid>audiolevels</effectid>
							<effectcategory>audiolevels</effectcategory>
							<effecttype>audiolevels</effecttype>
							<mediatype>audio</mediatype>
							<parameter>
								<name>Level</name>
								<parameterid>level</parameterid>
								<valuemin>0</valuemin>
								<valuemax>3.98109</valuemax>
								<value>1</value>
							</parameter>
						</effect>
					</filter>
					<filter>
						<effect>
							<name>Audio Pan</name>
							<effectid>audiopan</effectid>
							<effectcategory>audiopan</effectcategory>
							<effecttype>audiopan</effecttype>
							<mediatype>audio</mediatype>
							<parameter>
								<name>Pan</name>
								<parameterid>pan</parameterid>
								<valuemin>-1</valuemin>
								<valuemax>1</valuemax>
								<value>0</value>
							</parameter>
						</effect>
					</filter>
					<sourcetrack>
						<mediatype>audio</mediatype>
						<trackindex>1</trackindex>
					</sourcetrack>
					<link>
						<linkclipref>525_1803_01 </linkclipref>
						<mediatype>video</mediatype>
						<trackindex>1</trackindex>
						<clipindex>17</clipindex>
					</link>
					<link>
						<linkclipref>525_1803_01 3</linkclipref>
						<mediatype>audio</mediatype>
						<trackindex>1</trackindex>
						<clipindex>14</clipindex>
					</link>
					<link>
						<linkclipref>525_1803_01 4</linkclipref>
						<mediatype>audio</mediatype>
						<trackindex>2</trackindex>
						<clipindex>14</clipindex>
					</link>
					<itemhistory>
						<uuid>8705C8ED-8FCE-4F7A-92D7-34F819CA2ECA</uuid>
					</itemhistory>
				</clipitem>
				<clipitem id="525_1797_01 12">
					<name>525_1797_01</name>
					<duration>3463</duration>
					<rate>
						<ntsc>FALSE</ntsc>
						<timebase>25</timebase>
					</rate>
					<in>512</in>
					<out>689</out>
					<start>2197</start>
					<end>2374</end>
					<subframeoffset>0</subframeoffset>
					<masterclipid>525_1797_01 1</masterclipid>
					<logginginfo>
						<scene/>
						<shottake/>
						<lognote/>
						<good>FALSE</good>
					</logginginfo>
					<labels>
						<label2/>
					</labels>
					<comments>
						<mastercomment1/>
						<mastercomment2/>
						<mastercomment3/>
						<mastercomment4/>
					</comments>
					<file id="525_1797_01 2"/>
					<filter>
						<effect>
							<name>Audio Levels</name>
							<effectid>audiolevels</effectid>
							<effectcategory>audiolevels</effectcategory>
							<effecttype>audiolevels</effecttype>
							<mediatype>audio</mediatype>
							<parameter>
								<name>Level</name>
								<parameterid>level</parameterid>
								<valuemin>0</valuemin>
								<valuemax>3.98109</valuemax>
								<value>1</value>
							</parameter>
						</effect>
					</filter>
					<filter>
						<effect>
							<name>Audio Pan</name>
							<effectid>audiopan</effectid>
							<effectcategory>audiopan</effectcategory>
							<effecttype>audiopan</effecttype>
							<mediatype>audio</mediatype>
							<parameter>
								<name>Pan</name>
								<parameterid>pan</parameterid>
								<valuemin>-1</valuemin>
								<valuemax>1</valuemax>
								<value>0</value>
							</parameter>
						</effect>
					</filter>
					<sourcetrack>
						<mediatype>audio</mediatype>
						<trackindex>1</trackindex>
					</sourcetrack>
					<link>
						<linkclipref>525_1797_01 11</linkclipref>
						<mediatype>video</mediatype>
						<trackindex>1</trackindex>
						<clipindex>18</clipindex>
					</link>
					<link>
						<linkclipref>525_1797_01 12</linkclipref>
						<mediatype>audio</mediatype>
						<trackindex>1</trackindex>
						<clipindex>15</clipindex>
					</link>
					<link>
						<linkclipref>525_1797_01 13</linkclipref>
						<mediatype>audio</mediatype>
						<trackindex>2</trackindex>
						<clipindex>15</clipindex>
					</link>
					<itemhistory>
						<uuid>E82DCE3C-6D40-421F-93F7-1BFD0547B66D</uuid>
					</itemhistory>
				</clipitem>
				<clipitem id="525_1791_01 6">
					<name>525_1791_01</name>
					<duration>3026</duration>
					<rate>
						<ntsc>FALSE</ntsc>
						<timebase>25</timebase>
					</rate>
					<in>977</in>
					<out>1168</out>
					<start>2374</start>
					<end>2565</end>
					<subframeoffset>0</subframeoffset>
					<masterclipid>525_1791_01 1</masterclipid>
					<logginginfo>
						<scene/>
						<shottake/>
						<lognote/>
						<good>FALSE</good>
					</logginginfo>
					<labels>
						<label2/>
					</labels>
					<comments>
						<mastercomment1/>
						<mastercomment2/>
						<mastercomment3/>
						<mastercomment4/>
					</comments>
					<file id="525_1791_01 2"/>
					<filter>
						<effect>
							<name>Audio Levels</name>
							<effectid>audiolevels</effectid>
							<effectcategory>audiolevels</effectcategory>
							<effecttype>audiolevels</effecttype>
							<mediatype>audio</mediatype>
							<parameter>
								<name>Level</name>
								<parameterid>level</parameterid>
								<valuemin>0</valuemin>
								<valuemax>3.98109</valuemax>
								<value>1</value>
							</parameter>
						</effect>
					</filter>
					<filter>
						<effect>
							<name>Audio Pan</name>
							<effectid>audiopan</effectid>
							<effectcategory>audiopan</effectcategory>
							<effecttype>audiopan</effecttype>
							<mediatype>audio</mediatype>
							<parameter>
								<name>Pan</name>
								<parameterid>pan</parameterid>
								<valuemin>-1</valuemin>
								<valuemax>1</valuemax>
								<value>0</value>
							</parameter>
						</effect>
					</filter>
					<sourcetrack>
						<mediatype>audio</mediatype>
						<trackindex>1</trackindex>
					</sourcetrack>
					<link>
						<linkclipref>525_1791_01 5</linkclipref>
						<mediatype>video</mediatype>
						<trackindex>1</trackindex>
						<clipindex>19</clipindex>
					</link>
					<link>
						<linkclipref>525_1791_01 6</linkclipref>
						<mediatype>audio</mediatype>
						<trackindex>1</trackindex>
						<clipindex>16</clipindex>
					</link>
					<link>
						<linkclipref>525_1791_01 7</linkclipref>
						<mediatype>audio</mediatype>
						<trackindex>2</trackindex>
						<clipindex>16</clipindex>
					</link>
					<itemhistory>
						<uuid>DD7B9160-BE2A-4DB6-B4CC-3B81DB92EF78</uuid>
					</itemhistory>
				</clipitem>
				<clipitem id="525_1797_01 15">
					<name>525_1797_01</name>
					<duration>3463</duration>
					<rate>
						<ntsc>FALSE</ntsc>
						<timebase>25</timebase>
					</rate>
					<in>834</in>
					<out>890</out>
					<start>2565</start>
					<end>2621</end>
					<subframeoffset>0</subframeoffset>
					<masterclipid>525_1797_01 1</masterclipid>
					<logginginfo>
						<scene/>
						<shottake/>
						<lognote/>
						<good>FALSE</good>
					</logginginfo>
					<labels>
						<label2/>
					</labels>
					<comments>
						<mastercomment1/>
						<mastercomment2/>
						<mastercomment3/>
						<mastercomment4/>
					</comments>
					<file id="525_1797_01 2"/>
					<filter>
						<effect>
							<name>Audio Levels</name>
							<effectid>audiolevels</effectid>
							<effectcategory>audiolevels</effectcategory>
							<effecttype>audiolevels</effecttype>
							<mediatype>audio</mediatype>
							<parameter>
								<name>Level</name>
								<parameterid>level</parameterid>
								<valuemin>0</valuemin>
								<valuemax>3.98109</valuemax>
								<value>1</value>
							</parameter>
						</effect>
					</filter>
					<filter>
						<effect>
							<name>Audio Pan</name>
							<effectid>audiopan</effectid>
							<effectcategory>audiopan</effectcategory>
							<effecttype>audiopan</effecttype>
							<mediatype>audio</mediatype>
							<parameter>
								<name>Pan</name>
								<parameterid>pan</parameterid>
								<valuemin>-1</valuemin>
								<valuemax>1</valuemax>
								<value>0</value>
							</parameter>
						</effect>
					</filter>
					<sourcetrack>
						<mediatype>audio</mediatype>
						<trackindex>1</trackindex>
					</sourcetrack>
					<link>
						<linkclipref>525_1797_01 14</linkclipref>
						<mediatype>video</mediatype>
						<trackindex>1</trackindex>
						<clipindex>20</clipindex>
					</link>
					<link>
						<linkclipref>525_1797_01 15</linkclipref>
						<mediatype>audio</mediatype>
						<trackindex>1</trackindex>
						<clipindex>17</clipindex>
					</link>
					<link>
						<linkclipref>525_1797_01 16</linkclipref>
						<mediatype>audio</mediatype>
						<trackindex>2</trackindex>
						<clipindex>17</clipindex>
					</link>
					<itemhistory>
						<uuid>46533086-1AC8-4868-8EEC-D7B94292A740</uuid>
					</itemhistory>
				</clipitem>
				<clipitem id="525_1791_01 9">
					<name>525_1791_01</name>
					<duration>3026</duration>
					<rate>
						<ntsc>FALSE</ntsc>
						<timebase>25</timebase>
					</rate>
					<in>1239</in>
					<out>1474</out>
					<start>2621</start>
					<end>2856</end>
					<subframeoffset>0</subframeoffset>
					<masterclipid>525_1791_01 1</masterclipid>
					<logginginfo>
						<scene/>
						<shottake/>
						<lognote/>
						<good>FALSE</good>
					</logginginfo>
					<labels>
						<label2/>
					</labels>
					<comments>
						<mastercomment1/>
						<mastercomment2/>
						<mastercomment3/>
						<mastercomment4/>
					</comments>
					<file id="525_1791_01 2"/>
					<filter>
						<effect>
							<name>Audio Levels</name>
							<effectid>audiolevels</effectid>
							<effectcategory>audiolevels</effectcategory>
							<effecttype>audiolevels</effecttype>
							<mediatype>audio</mediatype>
							<parameter>
								<name>Level</name>
								<parameterid>level</parameterid>
								<valuemin>0</valuemin>
								<valuemax>3.98109</valuemax>
								<value>1</value>
							</parameter>
						</effect>
					</filter>
					<filter>
						<effect>
							<name>Audio Pan</name>
							<effectid>audiopan</effectid>
							<effectcategory>audiopan</effectcategory>
							<effecttype>audiopan</effecttype>
							<mediatype>audio</mediatype>
							<parameter>
								<name>Pan</name>
								<parameterid>pan</parameterid>
								<valuemin>-1</valuemin>
								<valuemax>1</valuemax>
								<value>0</value>
							</parameter>
						</effect>
					</filter>
					<sourcetrack>
						<mediatype>audio</mediatype>
						<trackindex>1</trackindex>
					</sourcetrack>
					<link>
						<linkclipref>525_1791_01 8</linkclipref>
						<mediatype>video</mediatype>
						<trackindex>1</trackindex>
						<clipindex>21</clipindex>
					</link>
					<link>
						<linkclipref>525_1791_01 9</linkclipref>
						<mediatype>audio</mediatype>
						<trackindex>1</trackindex>
						<clipindex>18</clipindex>
					</link>
					<link>
						<linkclipref>525_1791_01 10</linkclipref>
						<mediatype>audio</mediatype>
						<trackindex>2</trackindex>
						<clipindex>18</clipindex>
					</link>
					<itemhistory>
						<uuid>D3FD8937-EB01-4233-B7BC-E9F0F0709E31</uuid>
					</itemhistory>
				</clipitem>
				<clipitem id="525_1791_01 12">
					<name>525_1791_01</name>
					<duration>3026</duration>
					<rate>
						<ntsc>FALSE</ntsc>
						<timebase>25</timebase>
					</rate>
					<in>1489</in>
					<out>1591</out>
					<start>2945</start>
					<end>3047</end>
					<subframeoffset>0</subframeoffset>
					<masterclipid>525_1791_01 1</masterclipid>
					<logginginfo>
						<scene/>
						<shottake/>
						<lognote/>
						<good>FALSE</good>
					</logginginfo>
					<labels>
						<label2/>
					</labels>
					<comments>
						<mastercomment1/>
						<mastercomment2/>
						<mastercomment3/>
						<mastercomment4/>
					</comments>
					<file id="525_1791_01 2"/>
					<filter>
						<effect>
							<name>Audio Levels</name>
							<effectid>audiolevels</effectid>
							<effectcategory>audiolevels</effectcategory>
							<effecttype>audiolevels</effecttype>
							<mediatype>audio</mediatype>
							<parameter>
								<name>Level</name>
								<parameterid>level</parameterid>
								<valuemin>0</valuemin>
								<valuemax>3.98109</valuemax>
								<value>1</value>
							</parameter>
						</effect>
					</filter>
					<filter>
						<effect>
							<name>Audio Pan</name>
							<effectid>audiopan</effectid>
							<effectcategory>audiopan</effectcategory>
							<effecttype>audiopan</effecttype>
							<mediatype>audio</mediatype>
							<parameter>
								<name>Pan</name>
								<parameterid>pan</parameterid>
								<valuemin>-1</valuemin>
								<valuemax>1</valuemax>
								<value>0</value>
							</parameter>
						</effect>
					</filter>
					<sourcetrack>
						<mediatype>audio</mediatype>
						<trackindex>1</trackindex>
					</sourcetrack>
					<link>
						<linkclipref>525_1791_01 11</linkclipref>
						<mediatype>video</mediatype>
						<trackindex>1</trackindex>
						<clipindex>24</clipindex>
					</link>
					<link>
						<linkclipref>525_1791_01 12</linkclipref>
						<mediatype>audio</mediatype>
						<trackindex>1</trackindex>
						<clipindex>19</clipindex>
					</link>
					<link>
						<linkclipref>525_1791_01 13</linkclipref>
						<mediatype>audio</mediatype>
						<trackindex>2</trackindex>
						<clipindex>19</clipindex>
					</link>
					<itemhistory>
						<uuid>86B823F6-2B2A-4440-9925-84263923BA5A</uuid>
					</itemhistory>
				</clipitem>
				<clipitem id="525_1791_01 15">
					<name>525_1791_01</name>
					<duration>3026</duration>
					<rate>
						<ntsc>FALSE</ntsc>
						<timebase>25</timebase>
					</rate>
					<in>1645</in>
					<out>1966</out>
					<start>3047</start>
					<end>3368</end>
					<subframeoffset>0</subframeoffset>
					<masterclipid>525_1791_01 1</masterclipid>
					<syncoffset>0</syncoffset>
					<logginginfo>
						<scene/>
						<shottake/>
						<lognote/>
						<good>FALSE</good>
					</logginginfo>
					<labels>
						<label2/>
					</labels>
					<comments>
						<mastercomment1/>
						<mastercomment2/>
						<mastercomment3/>
						<mastercomment4/>
					</comments>
					<file id="525_1791_01 2"/>
					<filter>
						<effect>
							<name>Audio Levels</name>
							<effectid>audiolevels</effectid>
							<effectcategory>audiolevels</effectcategory>
							<effecttype>audiolevels</effecttype>
							<mediatype>audio</mediatype>
							<parameter>
								<name>Level</name>
								<parameterid>level</parameterid>
								<valuemin>0</valuemin>
								<valuemax>3.98109</valuemax>
								<value>1</value>
							</parameter>
						</effect>
					</filter>
					<filter>
						<effect>
							<name>Audio Pan</name>
							<effectid>audiopan</effectid>
							<effectcategory>audiopan</effectcategory>
							<effecttype>audiopan</effecttype>
							<mediatype>audio</mediatype>
							<parameter>
								<name>Pan</name>
								<parameterid>pan</parameterid>
								<valuemin>-1</valuemin>
								<valuemax>1</valuemax>
								<value>0</value>
							</parameter>
						</effect>
					</filter>
					<sourcetrack>
						<mediatype>audio</mediatype>
						<trackindex>1</trackindex>
					</sourcetrack>
					<link>
						<linkclipref>525_1791_01 14</linkclipref>
						<mediatype>video</mediatype>
						<trackindex>1</trackindex>
						<clipindex>26</clipindex>
					</link>
					<link>
						<linkclipref>525_1791_01 15</linkclipref>
						<mediatype>audio</mediatype>
						<trackindex>1</trackindex>
						<clipindex>20</clipindex>
					</link>
					<link>
						<linkclipref>525_1791_01 16</linkclipref>
						<mediatype>audio</mediatype>
						<trackindex>2</trackindex>
						<clipindex>20</clipindex>
					</link>
					<itemhistory>
						<uuid>E3E140A8-3AA6-4336-9CBB-CE6BBE17998C</uuid>
					</itemhistory>
				</clipitem>
				<clipitem id="525_1803_01 6">
					<name>525_1803_01</name>
					<duration>3142</duration>
					<rate>
						<ntsc>FALSE</ntsc>
						<timebase>25</timebase>
					</rate>
					<in>1561</in>
					<out>1610</out>
					<start>3368</start>
					<end>3417</end>
					<subframeoffset>0</subframeoffset>
					<masterclipid>525_1803_01 1</masterclipid>
					<logginginfo>
						<scene/>
						<shottake/>
						<lognote/>
						<good>FALSE</good>
					</logginginfo>
					<labels>
						<label2/>
					</labels>
					<comments>
						<mastercomment1/>
						<mastercomment2/>
						<mastercomment3/>
						<mastercomment4/>
					</comments>
					<file id="525_1803_01 2"/>
					<filter>
						<effect>
							<name>Audio Levels</name>
							<effectid>audiolevels</effectid>
							<effectcategory>audiolevels</effectcategory>
							<effecttype>audiolevels</effecttype>
							<mediatype>audio</mediatype>
							<parameter>
								<name>Level</name>
								<parameterid>level</parameterid>
								<valuemin>0</valuemin>
								<valuemax>3.98109</valuemax>
								<value>1</value>
							</parameter>
						</effect>
					</filter>
					<filter>
						<effect>
							<name>Audio Pan</name>
							<effectid>audiopan</effectid>
							<effectcategory>audiopan</effectcategory>
							<effecttype>audiopan</effecttype>
							<mediatype>audio</mediatype>
							<parameter>
								<name>Pan</name>
								<parameterid>pan</parameterid>
								<valuemin>-1</valuemin>
								<valuemax>1</valuemax>
								<value>0</value>
							</parameter>
						</effect>
					</filter>
					<sourcetrack>
						<mediatype>audio</mediatype>
						<trackindex>1</trackindex>
					</sourcetrack>
					<link>
						<linkclipref>525_1803_01 5</linkclipref>
						<mediatype>video</mediatype>
						<trackindex>1</trackindex>
						<clipindex>30</clipindex>
					</link>
					<link>
						<linkclipref>525_1803_01 6</linkclipref>
						<mediatype>audio</mediatype>
						<trackindex>1</trackindex>
						<clipindex>21</clipindex>
					</link>
					<link>
						<linkclipref>525_1803_01 7</linkclipref>
						<mediatype>audio</mediatype>
						<trackindex>2</trackindex>
						<clipindex>21</clipindex>
					</link>
					<itemhistory>
						<uuid>FCEB3147-8DDE-4DD6-AFA1-B91AEA0C51BA</uuid>
					</itemhistory>
				</clipitem>
				<clipitem id="525_1799_01 7">
					<name>525_1799_01</name>
					<duration>1779</duration>
					<rate>
						<ntsc>FALSE</ntsc>
						<timebase>25</timebase>
					</rate>
					<in>340</in>
					<out>463</out>
					<start>3417</start>
					<end>3540</end>
					<subframeoffset>0</subframeoffset>
					<masterclipid>525_1799_01 1</masterclipid>
					<logginginfo>
						<scene/>
						<shottake/>
						<lognote/>
						<good>FALSE</good>
					</logginginfo>
					<labels>
						<label2/>
					</labels>
					<comments>
						<mastercomment1/>
						<mastercomment2/>
						<mastercomment3/>
						<mastercomment4/>
					</comments>
					<file id="525_1799_01 2"/>
					<filter>
						<effect>
							<name>Audio Levels</name>
							<effectid>audiolevels</effectid>
							<effectcategory>audiolevels</effectcategory>
							<effecttype>audiolevels</effecttype>
							<mediatype>audio</mediatype>
							<parameter>
								<name>Level</name>
								<parameterid>level</parameterid>
								<valuemin>0</valuemin>
								<valuemax>3.98109</valuemax>
								<value>1</value>
							</parameter>
						</effect>
					</filter>
					<filter>
						<effect>
							<name>Audio Pan</name>
							<effectid>audiopan</effectid>
							<effectcategory>audiopan</effectcategory>
							<effecttype>audiopan</effecttype>
							<mediatype>audio</mediatype>
							<parameter>
								<name>Pan</name>
								<parameterid>pan</parameterid>
								<valuemin>-1</valuemin>
								<valuemax>1</valuemax>
								<value>0</value>
							</parameter>
						</effect>
					</filter>
					<sourcetrack>
						<mediatype>audio</mediatype>
						<trackindex>1</trackindex>
					</sourcetrack>
					<link>
						<linkclipref>525_1799_01 6</linkclipref>
						<mediatype>video</mediatype>
						<trackindex>1</trackindex>
						<clipindex>31</clipindex>
					</link>
					<link>
						<linkclipref>525_1799_01 7</linkclipref>
						<mediatype>audio</mediatype>
						<trackindex>1</trackindex>
						<clipindex>22</clipindex>
					</link>
					<link>
						<linkclipref>525_1799_01 8</linkclipref>
						<mediatype>audio</mediatype>
						<trackindex>2</trackindex>
						<clipindex>22</clipindex>
					</link>
					<itemhistory>
						<uuid>ED295C6F-993E-4795-AF65-E813AD8C3A4C</uuid>
					</itemhistory>
				</clipitem>
				<clipitem id="525_1799_01 10">
					<name>525_1799_01</name>
					<duration>1779</duration>
					<rate>
						<ntsc>FALSE</ntsc>
						<timebase>25</timebase>
					</rate>
					<in>481</in>
					<out>531</out>
					<start>3540</start>
					<end>3590</end>
					<subframeoffset>0</subframeoffset>
					<masterclipid>525_1799_01 1</masterclipid>
					<logginginfo>
						<scene/>
						<shottake/>
						<lognote/>
						<good>FALSE</good>
					</logginginfo>
					<labels>
						<label2/>
					</labels>
					<comments>
						<mastercomment1/>
						<mastercomment2/>
						<mastercomment3/>
						<mastercomment4/>
					</comments>
					<file id="525_1799_01 2"/>
					<filter>
						<effect>
							<name>Audio Levels</name>
							<effectid>audiolevels</effectid>
							<effectcategory>audiolevels</effectcategory>
							<effecttype>audiolevels</effecttype>
							<mediatype>audio</mediatype>
							<parameter>
								<name>Level</name>
								<parameterid>level</parameterid>
								<valuemin>0</valuemin>
								<valuemax>3.98109</valuemax>
								<value>1</value>
							</parameter>
						</effect>
					</filter>
					<filter>
						<effect>
							<name>Audio Pan</name>
							<effectid>audiopan</effectid>
							<effectcategory>audiopan</effectcategory>
							<effecttype>audiopan</effecttype>
							<mediatype>audio</mediatype>
							<parameter>
								<name>Pan</name>
								<parameterid>pan</parameterid>
								<valuemin>-1</valuemin>
								<valuemax>1</valuemax>
								<value>0</value>
							</parameter>
						</effect>
					</filter>
					<sourcetrack>
						<mediatype>audio</mediatype>
						<trackindex>1</trackindex>
					</sourcetrack>
					<link>
						<linkclipref>525_1799_01 9</linkclipref>
						<mediatype>video</mediatype>
						<trackindex>1</trackindex>
						<clipindex>33</clipindex>
					</link>
					<link>
						<linkclipref>525_1799_01 10</linkclipref>
						<mediatype>audio</mediatype>
						<trackindex>1</trackindex>
						<clipindex>23</clipindex>
					</link>
					<link>
						<linkclipref>525_1799_01 11</linkclipref>
						<mediatype>audio</mediatype>
						<trackindex>2</trackindex>
						<clipindex>23</clipindex>
					</link>
					<itemhistory>
						<uuid>529CF0C3-1A3A-4414-AEEB-41A360883676</uuid>
					</itemhistory>
				</clipitem>
				<clipitem id="525_1791_01 19">
					<name>525_1791_01</name>
					<duration>3026</duration>
					<rate>
						<ntsc>FALSE</ntsc>
						<timebase>25</timebase>
					</rate>
					<in>2130</in>
					<out>2241</out>
					<start>3590</start>
					<end>3701</end>
					<subframeoffset>0</subframeoffset>
					<masterclipid>525_1791_01 1</masterclipid>
					<syncoffset>0</syncoffset>
					<logginginfo>
						<scene/>
						<shottake/>
						<lognote/>
						<good>FALSE</good>
					</logginginfo>
					<labels>
						<label2/>
					</labels>
					<comments>
						<mastercomment1/>
						<mastercomment2/>
						<mastercomment3/>
						<mastercomment4/>
					</comments>
					<file id="525_1791_01 2"/>
					<filter>
						<effect>
							<name>Audio Levels</name>
							<effectid>audiolevels</effectid>
							<effectcategory>audiolevels</effectcategory>
							<effecttype>audiolevels</effecttype>
							<mediatype>audio</mediatype>
							<parameter>
								<name>Level</name>
								<parameterid>level</parameterid>
								<valuemin>0</valuemin>
								<valuemax>3.98109</valuemax>
								<value>1</value>
							</parameter>
						</effect>
					</filter>
					<filter>
						<effect>
							<name>Audio Pan</name>
							<effectid>audiopan</effectid>
							<effectcategory>audiopan</effectcategory>
							<effecttype>audiopan</effecttype>
							<mediatype>audio</mediatype>
							<parameter>
								<name>Pan</name>
								<parameterid>pan</parameterid>
								<valuemin>-1</valuemin>
								<valuemax>1</valuemax>
								<value>0</value>
							</parameter>
						</effect>
					</filter>
					<sourcetrack>
						<mediatype>audio</mediatype>
						<trackindex>1</trackindex>
					</sourcetrack>
					<link>
						<linkclipref>525_1791_01 18</linkclipref>
						<mediatype>video</mediatype>
						<trackindex>1</trackindex>
						<clipindex>34</clipindex>
					</link>
					<link>
						<linkclipref>525_1791_01 19</linkclipref>
						<mediatype>audio</mediatype>
						<trackindex>1</trackindex>
						<clipindex>24</clipindex>
					</link>
					<link>
						<linkclipref>525_1791_01 20</linkclipref>
						<mediatype>audio</mediatype>
						<trackindex>2</trackindex>
						<clipindex>24</clipindex>
					</link>
					<itemhistory>
						<uuid>2D85FB19-5AA2-4CFB-A3F2-B268538FA0E0</uuid>
					</itemhistory>
				</clipitem>
				<clipitem id="525_1803_01 10">
					<name>525_1803_01</name>
					<duration>3142</duration>
					<rate>
						<ntsc>FALSE</ntsc>
						<timebase>25</timebase>
					</rate>
					<in>1792</in>
					<out>1880</out>
					<start>3701</start>
					<end>3789</end>
					<subframeoffset>0</subframeoffset>
					<masterclipid>525_1803_01 1</masterclipid>
					<logginginfo>
						<scene/>
						<shottake/>
						<lognote/>
						<good>FALSE</good>
					</logginginfo>
					<labels>
						<label2/>
					</labels>
					<comments>
						<mastercomment1/>
						<mastercomment2/>
						<mastercomment3/>
						<mastercomment4/>
					</comments>
					<file id="525_1803_01 2"/>
					<filter>
						<effect>
							<name>Audio Levels</name>
							<effectid>audiolevels</effectid>
							<effectcategory>audiolevels</effectcategory>
							<effecttype>audiolevels</effecttype>
							<mediatype>audio</mediatype>
							<parameter>
								<name>Level</name>
								<parameterid>level</parameterid>
								<valuemin>0</valuemin>
								<valuemax>3.98109</valuemax>
								<value>1</value>
							</parameter>
						</effect>
					</filter>
					<filter>
						<effect>
							<name>Audio Pan</name>
							<effectid>audiopan</effectid>
							<effectcategory>audiopan</effectcategory>
							<effecttype>audiopan</effecttype>
							<mediatype>audio</mediatype>
							<parameter>
								<name>Pan</name>
								<parameterid>pan</parameterid>
								<valuemin>-1</valuemin>
								<valuemax>1</valuemax>
								<value>0</value>
							</parameter>
						</effect>
					</filter>
					<sourcetrack>
						<mediatype>audio</mediatype>
						<trackindex>1</trackindex>
					</sourcetrack>
					<link>
						<linkclipref>525_1803_01 9</linkclipref>
						<mediatype>video</mediatype>
						<trackindex>1</trackindex>
						<clipindex>35</clipindex>
					</link>
					<link>
						<linkclipref>525_1803_01 10</linkclipref>
						<mediatype>audio</mediatype>
						<trackindex>1</trackindex>
						<clipindex>25</clipindex>
					</link>
					<link>
						<linkclipref>525_1803_01 11</linkclipref>
						<mediatype>audio</mediatype>
						<trackindex>2</trackindex>
						<clipindex>25</clipindex>
					</link>
					<itemhistory>
						<uuid>5E227E1E-4827-4AD8-B485-41B0B4CDE72F</uuid>
					</itemhistory>
				</clipitem>
				<clipitem id="525_1799_01 13">
					<name>525_1799_01</name>
					<duration>1779</duration>
					<rate>
						<ntsc>FALSE</ntsc>
						<timebase>25</timebase>
					</rate>
					<in>627</in>
					<out>771</out>
					<start>3789</start>
					<end>3933</end>
					<subframeoffset>0</subframeoffset>
					<masterclipid>525_1799_01 1</masterclipid>
					<logginginfo>
						<scene/>
						<shottake/>
						<lognote/>
						<good>FALSE</good>
					</logginginfo>
					<labels>
						<label2/>
					</labels>
					<comments>
						<mastercomment1/>
						<mastercomment2/>
						<mastercomment3/>
						<mastercomment4/>
					</comments>
					<file id="525_1799_01 2"/>
					<filter>
						<effect>
							<name>Audio Levels</name>
							<effectid>audiolevels</effectid>
							<effectcategory>audiolevels</effectcategory>
							<effecttype>audiolevels</effecttype>
							<mediatype>audio</mediatype>
							<parameter>
								<name>Level</name>
								<parameterid>level</parameterid>
								<valuemin>0</valuemin>
								<valuemax>3.98109</valuemax>
								<value>1</value>
							</parameter>
						</effect>
					</filter>
					<filter>
						<effect>
							<name>Audio Pan</name>
							<effectid>audiopan</effectid>
							<effectcategory>audiopan</effectcategory>
							<effecttype>audiopan</effecttype>
							<mediatype>audio</mediatype>
							<parameter>
								<name>Pan</name>
								<parameterid>pan</parameterid>
								<valuemin>-1</valuemin>
								<valuemax>1</valuemax>
								<value>0</value>
							</parameter>
						</effect>
					</filter>
					<sourcetrack>
						<mediatype>audio</mediatype>
						<trackindex>1</trackindex>
					</sourcetrack>
					<link>
						<linkclipref>525_1799_01 12</linkclipref>
						<mediatype>video</mediatype>
						<trackindex>1</trackindex>
						<clipindex>36</clipindex>
					</link>
					<link>
						<linkclipref>525_1799_01 13</linkclipref>
						<mediatype>audio</mediatype>
						<trackindex>1</trackindex>
						<clipindex>26</clipindex>
					</link>
					<link>
						<linkclipref>525_1799_01 14</linkclipref>
						<mediatype>audio</mediatype>
						<trackindex>2</trackindex>
						<clipindex>26</clipindex>
					</link>
					<itemhistory>
						<uuid>CFB50A52-5649-4D7E-A482-231220F62FB2</uuid>
					</itemhistory>
				</clipitem>
				<clipitem id="525_1803_01 13">
					<name>525_1803_01</name>
					<duration>3142</duration>
					<rate>
						<ntsc>FALSE</ntsc>
						<timebase>25</timebase>
					</rate>
					<in>2058</in>
					<out>2098</out>
					<start>3933</start>
					<end>3973</end>
					<subframeoffset>0</subframeoffset>
					<masterclipid>525_1803_01 1</masterclipid>
					<logginginfo>
						<scene/>
						<shottake/>
						<lognote/>
						<good>FALSE</good>
					</logginginfo>
					<labels>
						<label2/>
					</labels>
					<comments>
						<mastercomment1/>
						<mastercomment2/>
						<mastercomment3/>
						<mastercomment4/>
					</comments>
					<file id="525_1803_01 2"/>
					<filter>
						<effect>
							<name>Audio Levels</name>
							<effectid>audiolevels</effectid>
							<effectcategory>audiolevels</effectcategory>
							<effecttype>audiolevels</effecttype>
							<mediatype>audio</mediatype>
							<parameter>
								<name>Level</name>
								<parameterid>level</parameterid>
								<valuemin>0</valuemin>
								<valuemax>3.98109</valuemax>
								<value>1</value>
							</parameter>
						</effect>
					</filter>
					<filter>
						<effect>
							<name>Audio Pan</name>
							<effectid>audiopan</effectid>
							<effectcategory>audiopan</effectcategory>
							<effecttype>audiopan</effecttype>
							<mediatype>audio</mediatype>
							<parameter>
								<name>Pan</name>
								<parameterid>pan</parameterid>
								<valuemin>-1</valuemin>
								<valuemax>1</valuemax>
								<value>0</value>
							</parameter>
						</effect>
					</filter>
					<sourcetrack>
						<mediatype>audio</mediatype>
						<trackindex>1</trackindex>
					</sourcetrack>
					<link>
						<linkclipref>525_1803_01 12</linkclipref>
						<mediatype>video</mediatype>
						<trackindex>1</trackindex>
						<clipindex>37</clipindex>
					</link>
					<link>
						<linkclipref>525_1803_01 13</linkclipref>
						<mediatype>audio</mediatype>
						<trackindex>1</trackindex>
						<clipindex>27</clipindex>
					</link>
					<link>
						<linkclipref>525_1803_01 14</linkclipref>
						<mediatype>audio</mediatype>
						<trackindex>2</trackindex>
						<clipindex>27</clipindex>
					</link>
					<itemhistory>
						<uuid>12FE0D9D-C5EC-4EB1-BC96-8EE5369B35AA</uuid>
					</itemhistory>
				</clipitem>
				<clipitem id="525_1799_01 16">
					<name>525_1799_01</name>
					<duration>1779</duration>
					<rate>
						<ntsc>FALSE</ntsc>
						<timebase>25</timebase>
					</rate>
					<in>813</in>
					<out>851</out>
					<start>3973</start>
					<end>4011</end>
					<subframeoffset>0</subframeoffset>
					<masterclipid>525_1799_01 1</masterclipid>
					<logginginfo>
						<scene/>
						<shottake/>
						<lognote/>
						<good>FALSE</good>
					</logginginfo>
					<labels>
						<label2/>
					</labels>
					<comments>
						<mastercomment1/>
						<mastercomment2/>
						<mastercomment3/>
						<mastercomment4/>
					</comments>
					<file id="525_1799_01 2"/>
					<filter>
						<effect>
							<name>Audio Levels</name>
							<effectid>audiolevels</effectid>
							<effectcategory>audiolevels</effectcategory>
							<effecttype>audiolevels</effecttype>
							<mediatype>audio</mediatype>
							<parameter>
								<name>Level</name>
								<parameterid>level</parameterid>
								<valuemin>0</valuemin>
								<valuemax>3.98109</valuemax>
								<value>1</value>
							</parameter>
						</effect>
					</filter>
					<filter>
						<effect>
							<name>Audio Pan</name>
							<effectid>audiopan</effectid>
							<effectcategory>audiopan</effectcategory>
							<effecttype>audiopan</effecttype>
							<mediatype>audio</mediatype>
							<parameter>
								<name>Pan</name>
								<parameterid>pan</parameterid>
								<valuemin>-1</valuemin>
								<valuemax>1</valuemax>
								<value>0</value>
							</parameter>
						</effect>
					</filter>
					<sourcetrack>
						<mediatype>audio</mediatype>
						<trackindex>1</trackindex>
					</sourcetrack>
					<link>
						<linkclipref>525_1799_01 15</linkclipref>
						<mediatype>video</mediatype>
						<trackindex>1</trackindex>
						<clipindex>38</clipindex>
					</link>
					<link>
						<linkclipref>525_1799_01 16</linkclipref>
						<mediatype>audio</mediatype>
						<trackindex>1</trackindex>
						<clipindex>28</clipindex>
					</link>
					<link>
						<linkclipref>525_1799_01 17</linkclipref>
						<mediatype>audio</mediatype>
						<trackindex>2</trackindex>
						<clipindex>28</clipindex>
					</link>
					<itemhistory>
						<uuid>19870698-302D-46E1-9BFE-ACDEF74E6030</uuid>
					</itemhistory>
				</clipitem>
				<clipitem id="525_1803_01 16">
					<name>525_1803_01</name>
					<duration>3142</duration>
					<rate>
						<ntsc>FALSE</ntsc>
						<timebase>25</timebase>
					</rate>
					<in>2153</in>
					<out>2248</out>
					<start>4011</start>
					<end>4106</end>
					<subframeoffset>0</subframeoffset>
					<masterclipid>525_1803_01 1</masterclipid>
					<logginginfo>
						<scene/>
						<shottake/>
						<lognote/>
						<good>FALSE</good>
					</logginginfo>
					<labels>
						<label2/>
					</labels>
					<comments>
						<mastercomment1/>
						<mastercomment2/>
						<mastercomment3/>
						<mastercomment4/>
					</comments>
					<file id="525_1803_01 2"/>
					<filter>
						<effect>
							<name>Audio Levels</name>
							<effectid>audiolevels</effectid>
							<effectcategory>audiolevels</effectcategory>
							<effecttype>audiolevels</effecttype>
							<mediatype>audio</mediatype>
							<parameter>
								<name>Level</name>
								<parameterid>level</parameterid>
								<valuemin>0</valuemin>
								<valuemax>3.98109</valuemax>
								<value>1</value>
							</parameter>
						</effect>
					</filter>
					<filter>
						<effect>
							<name>Audio Pan</name>
							<effectid>audiopan</effectid>
							<effectcategory>audiopan</effectcategory>
							<effecttype>audiopan</effecttype>
							<mediatype>audio</mediatype>
							<parameter>
								<name>Pan</name>
								<parameterid>pan</parameterid>
								<valuemin>-1</valuemin>
								<valuemax>1</valuemax>
								<value>0</value>
							</parameter>
						</effect>
					</filter>
					<sourcetrack>
						<mediatype>audio</mediatype>
						<trackindex>1</trackindex>
					</sourcetrack>
					<link>
						<linkclipref>525_1803_01 15</linkclipref>
						<mediatype>video</mediatype>
						<trackindex>1</trackindex>
						<clipindex>39</clipindex>
					</link>
					<link>
						<linkclipref>525_1803_01 16</linkclipref>
						<mediatype>audio</mediatype>
						<trackindex>1</trackindex>
						<clipindex>29</clipindex>
					</link>
					<link>
						<linkclipref>525_1803_01 17</linkclipref>
						<mediatype>audio</mediatype>
						<trackindex>2</trackindex>
						<clipindex>29</clipindex>
					</link>
					<itemhistory>
						<uuid>FACA820A-E362-481F-A6F2-1C39F9FC9595</uuid>
					</itemhistory>
				</clipitem>
				<clipitem id="525_1799_01 19">
					<name>525_1799_01</name>
					<duration>1779</duration>
					<rate>
						<ntsc>FALSE</ntsc>
						<timebase>25</timebase>
					</rate>
					<in>961</in>
					<out>1082</out>
					<start>4106</start>
					<end>4227</end>
					<subframeoffset>0</subframeoffset>
					<masterclipid>525_1799_01 1</masterclipid>
					<logginginfo>
						<scene/>
						<shottake/>
						<lognote/>
						<good>FALSE</good>
					</logginginfo>
					<labels>
						<label2/>
					</labels>
					<comments>
						<mastercomment1/>
						<mastercomment2/>
						<mastercomment3/>
						<mastercomment4/>
					</comments>
					<file id="525_1799_01 2"/>
					<filter>
						<effect>
							<name>Audio Levels</name>
							<effectid>audiolevels</effectid>
							<effectcategory>audiolevels</effectcategory>
							<effecttype>audiolevels</effecttype>
							<mediatype>audio</mediatype>
							<parameter>
								<name>Level</name>
								<parameterid>level</parameterid>
								<valuemin>0</valuemin>
								<valuemax>3.98109</valuemax>
								<value>1</value>
							</parameter>
						</effect>
					</filter>
					<filter>
						<effect>
							<name>Audio Pan</name>
							<effectid>audiopan</effectid>
							<effectcategory>audiopan</effectcategory>
							<effecttype>audiopan</effecttype>
							<mediatype>audio</mediatype>
							<parameter>
								<name>Pan</name>
								<parameterid>pan</parameterid>
								<valuemin>-1</valuemin>
								<valuemax>1</valuemax>
								<value>0</value>
							</parameter>
						</effect>
					</filter>
					<sourcetrack>
						<mediatype>audio</mediatype>
						<trackindex>1</trackindex>
					</sourcetrack>
					<link>
						<linkclipref>525_1799_01 18</linkclipref>
						<mediatype>video</mediatype>
						<trackindex>1</trackindex>
						<clipindex>40</clipindex>
					</link>
					<link>
						<linkclipref>525_1799_01 19</linkclipref>
						<mediatype>audio</mediatype>
						<trackindex>1</trackindex>
						<clipindex>30</clipindex>
					</link>
					<link>
						<linkclipref>525_1799_01 20</linkclipref>
						<mediatype>audio</mediatype>
						<trackindex>2</trackindex>
						<clipindex>30</clipindex>
					</link>
					<itemhistory>
						<uuid>5C81C5D6-BF1F-40E3-9DB4-CE8F525199CE</uuid>
					</itemhistory>
				</clipitem>
				<clipitem id="525_1803_01 19">
					<name>525_1803_01</name>
					<duration>3142</duration>
					<rate>
						<ntsc>FALSE</ntsc>
						<timebase>25</timebase>
					</rate>
					<in>2297</in>
					<out>2420</out>
					<start>4227</start>
					<end>4350</end>
					<subframeoffset>0</subframeoffset>
					<masterclipid>525_1803_01 1</masterclipid>
					<logginginfo>
						<scene/>
						<shottake/>
						<lognote/>
						<good>FALSE</good>
					</logginginfo>
					<labels>
						<label2/>
					</labels>
					<comments>
						<mastercomment1/>
						<mastercomment2/>
						<mastercomment3/>
						<mastercomment4/>
					</comments>
					<file id="525_1803_01 2"/>
					<filter>
						<effect>
							<name>Audio Levels</name>
							<effectid>audiolevels</effectid>
							<effectcategory>audiolevels</effectcategory>
							<effecttype>audiolevels</effecttype>
							<mediatype>audio</mediatype>
							<parameter>
								<name>Level</name>
								<parameterid>level</parameterid>
								<valuemin>0</valuemin>
								<valuemax>3.98109</valuemax>
								<value>1</value>
							</parameter>
						</effect>
					</filter>
					<filter>
						<effect>
							<name>Audio Pan</name>
							<effectid>audiopan</effectid>
							<effectcategory>audiopan</effectcategory>
							<effecttype>audiopan</effecttype>
							<mediatype>audio</mediatype>
							<parameter>
								<name>Pan</name>
								<parameterid>pan</parameterid>
								<valuemin>-1</valuemin>
								<valuemax>1</valuemax>
								<value>0</value>
							</parameter>
						</effect>
					</filter>
					<sourcetrack>
						<mediatype>audio</mediatype>
						<trackindex>1</trackindex>
					</sourcetrack>
					<link>
						<linkclipref>525_1803_01 18</linkclipref>
						<mediatype>video</mediatype>
						<trackindex>1</trackindex>
						<clipindex>41</clipindex>
					</link>
					<link>
						<linkclipref>525_1803_01 19</linkclipref>
						<mediatype>audio</mediatype>
						<trackindex>1</trackindex>
						<clipindex>31</clipindex>
					</link>
					<link>
						<linkclipref>525_1803_01 20</linkclipref>
						<mediatype>audio</mediatype>
						<trackindex>2</trackindex>
						<clipindex>31</clipindex>
					</link>
					<itemhistory>
						<uuid>59C7A17F-B582-4CF7-B524-B4E8673DC774</uuid>
					</itemhistory>
				</clipitem>
				<clipitem id="525_1799_01 22">
					<name>525_1799_01</name>
					<duration>1779</duration>
					<rate>
						<ntsc>FALSE</ntsc>
						<timebase>25</timebase>
					</rate>
					<in>1225</in>
					<out>1303</out>
					<start>4350</start>
					<end>4428</end>
					<subframeoffset>0</subframeoffset>
					<masterclipid>525_1799_01 1</masterclipid>
					<logginginfo>
						<scene/>
						<shottake/>
						<lognote/>
						<good>FALSE</good>
					</logginginfo>
					<labels>
						<label2/>
					</labels>
					<comments>
						<mastercomment1/>
						<mastercomment2/>
						<mastercomment3/>
						<mastercomment4/>
					</comments>
					<file id="525_1799_01 2"/>
					<filter>
						<effect>
							<name>Audio Levels</name>
							<effectid>audiolevels</effectid>
							<effectcategory>audiolevels</effectcategory>
							<effecttype>audiolevels</effecttype>
							<mediatype>audio</mediatype>
							<parameter>
								<name>Level</name>
								<parameterid>level</parameterid>
								<valuemin>0</valuemin>
								<valuemax>3.98109</valuemax>
								<value>1</value>
							</parameter>
						</effect>
					</filter>
					<filter>
						<effect>
							<name>Audio Pan</name>
							<effectid>audiopan</effectid>
							<effectcategory>audiopan</effectcategory>
							<effecttype>audiopan</effecttype>
							<mediatype>audio</mediatype>
							<parameter>
								<name>Pan</name>
								<parameterid>pan</parameterid>
								<valuemin>-1</valuemin>
								<valuemax>1</valuemax>
								<value>0</value>
							</parameter>
						</effect>
					</filter>
					<sourcetrack>
						<mediatype>audio</mediatype>
						<trackindex>1</trackindex>
					</sourcetrack>
					<link>
						<linkclipref>525_1799_01 21</linkclipref>
						<mediatype>video</mediatype>
						<trackindex>1</trackindex>
						<clipindex>42</clipindex>
					</link>
					<link>
						<linkclipref>525_1799_01 22</linkclipref>
						<mediatype>audio</mediatype>
						<trackindex>1</trackindex>
						<clipindex>32</clipindex>
					</link>
					<link>
						<linkclipref>525_1799_01 23</linkclipref>
						<mediatype>audio</mediatype>
						<trackindex>2</trackindex>
						<clipindex>32</clipindex>
					</link>
					<itemhistory>
						<uuid>5DF09407-DA01-4260-9413-61FFCFB5612A</uuid>
					</itemhistory>
				</clipitem>
				<clipitem id="525_1791_01 22">
					<name>525_1791_01</name>
					<duration>3026</duration>
					<rate>
						<ntsc>FALSE</ntsc>
						<timebase>25</timebase>
					</rate>
					<in>2844</in>
					<out>2914</out>
					<start>4428</start>
					<end>4498</end>
					<subframeoffset>0</subframeoffset>
					<masterclipid>525_1791_01 1</masterclipid>
					<syncoffset>0</syncoffset>
					<logginginfo>
						<scene/>
						<shottake/>
						<lognote/>
						<good>FALSE</good>
					</logginginfo>
					<labels>
						<label2/>
					</labels>
					<comments>
						<mastercomment1/>
						<mastercomment2/>
						<mastercomment3/>
						<mastercomment4/>
					</comments>
					<file id="525_1791_01 2"/>
					<filter>
						<effect>
							<name>Audio Levels</name>
							<effectid>audiolevels</effectid>
							<effectcategory>audiolevels</effectcategory>
							<effecttype>audiolevels</effecttype>
							<mediatype>audio</mediatype>
							<parameter>
								<name>Level</name>
								<parameterid>level</parameterid>
								<valuemin>0</valuemin>
								<valuemax>3.98109</valuemax>
								<value>1</value>
							</parameter>
						</effect>
					</filter>
					<filter>
						<effect>
							<name>Audio Pan</name>
							<effectid>audiopan</effectid>
							<effectcategory>audiopan</effectcategory>
							<effecttype>audiopan</effecttype>
							<mediatype>audio</mediatype>
							<parameter>
								<name>Pan</name>
								<parameterid>pan</parameterid>
								<valuemin>-1</valuemin>
								<valuemax>1</valuemax>
								<value>0</value>
							</parameter>
						</effect>
					</filter>
					<sourcetrack>
						<mediatype>audio</mediatype>
						<trackindex>1</trackindex>
					</sourcetrack>
					<link>
						<linkclipref>525_1791_01 21</linkclipref>
						<mediatype>video</mediatype>
						<trackindex>1</trackindex>
						<clipindex>43</clipindex>
					</link>
					<link>
						<linkclipref>525_1791_01 22</linkclipref>
						<mediatype>audio</mediatype>
						<trackindex>1</trackindex>
						<clipindex>33</clipindex>
					</link>
					<link>
						<linkclipref>525_1791_01 23</linkclipref>
						<mediatype>audio</mediatype>
						<trackindex>2</trackindex>
						<clipindex>33</clipindex>
					</link>
					<itemhistory>
						<uuid>04C6385F-510F-4391-B4C1-1D72904A6F16</uuid>
					</itemhistory>
				</clipitem>
				<clipitem id="525_1808_01 3">
					<name>525_1808_01</name>
					<duration>313</duration>
					<rate>
						<ntsc>FALSE</ntsc>
						<timebase>25</timebase>
					</rate>
					<in>125</in>
					<out>179</out>
					<start>4498</start>
					<end>4552</end>
					<subframeoffset>0</subframeoffset>
					<masterclipid>525_1808_01 1</masterclipid>
					<logginginfo>
						<scene/>
						<shottake/>
						<lognote/>
						<good>FALSE</good>
					</logginginfo>
					<labels>
						<label2/>
					</labels>
					<comments>
						<mastercomment1/>
						<mastercomment2/>
						<mastercomment3/>
						<mastercomment4/>
					</comments>
					<file id="525_1808_01 2"/>
					<filter>
						<effect>
							<name>Audio Levels</name>
							<effectid>audiolevels</effectid>
							<effectcategory>audiolevels</effectcategory>
							<effecttype>audiolevels</effecttype>
							<mediatype>audio</mediatype>
							<parameter>
								<name>Level</name>
								<parameterid>level</parameterid>
								<valuemin>0</valuemin>
								<valuemax>3.98109</valuemax>
								<value>1</value>
							</parameter>
						</effect>
					</filter>
					<filter>
						<effect>
							<name>Audio Pan</name>
							<effectid>audiopan</effectid>
							<effectcategory>audiopan</effectcategory>
							<effecttype>audiopan</effecttype>
							<mediatype>audio</mediatype>
							<parameter>
								<name>Pan</name>
								<parameterid>pan</parameterid>
								<valuemin>-1</valuemin>
								<valuemax>1</valuemax>
								<value>0</value>
							</parameter>
						</effect>
					</filter>
					<sourcetrack>
						<mediatype>audio</mediatype>
						<trackindex>1</trackindex>
					</sourcetrack>
					<link>
						<linkclipref>525_1808_01 </linkclipref>
						<mediatype>video</mediatype>
						<trackindex>1</trackindex>
						<clipindex>44</clipindex>
					</link>
					<link>
						<linkclipref>525_1808_01 3</linkclipref>
						<mediatype>audio</mediatype>
						<trackindex>1</trackindex>
						<clipindex>34</clipindex>
					</link>
					<link>
						<linkclipref>525_1808_01 4</linkclipref>
						<mediatype>audio</mediatype>
						<trackindex>2</trackindex>
						<clipindex>34</clipindex>
					</link>
					<itemhistory>
						<uuid>0BF079CE-B698-401F-990D-CF1C637C4FAC</uuid>
					</itemhistory>
				</clipitem>
				<clipitem id="Clip1ATK75 3">
					<name>Clip1ATK75</name>
					<duration>1507</duration>
					<rate>
						<ntsc>FALSE</ntsc>
						<timebase>25</timebase>
					</rate>
					<in>199</in>
					<out>369</out>
					<start>4552</start>
					<end>4722</end>
					<subframeoffset>0</subframeoffset>
					<masterclipid>Clip1ATK75 1</masterclipid>
					<logginginfo>
						<scene/>
						<shottake/>
						<lognote/>
						<good>FALSE</good>
					</logginginfo>
					<labels>
						<label2/>
					</labels>
					<comments>
						<mastercomment1/>
						<mastercomment2/>
						<mastercomment3/>
						<mastercomment4/>
					</comments>
					<file id="Clip1ATK75 2"/>
					<filter>
						<effect>
							<name>Audio Levels</name>
							<effectid>audiolevels</effectid>
							<effectcategory>audiolevels</effectcategory>
							<effecttype>audiolevels</effecttype>
							<mediatype>audio</mediatype>
							<parameter>
								<name>Level</name>
								<parameterid>level</parameterid>
								<valuemin>0</valuemin>
								<valuemax>3.98109</valuemax>
								<value>1</value>
							</parameter>
						</effect>
					</filter>
					<filter>
						<effect>
							<name>Audio Pan</name>
							<effectid>audiopan</effectid>
							<effectcategory>audiopan</effectcategory>
							<effecttype>audiopan</effecttype>
							<mediatype>audio</mediatype>
							<parameter>
								<name>Pan</name>
								<parameterid>pan</parameterid>
								<valuemin>-1</valuemin>
								<valuemax>1</valuemax>
								<value>0</value>
							</parameter>
						</effect>
					</filter>
					<sourcetrack>
						<mediatype>audio</mediatype>
						<trackindex>1</trackindex>
					</sourcetrack>
					<link>
						<linkclipref>Clip1ATK75 </linkclipref>
						<mediatype>video</mediatype>
						<trackindex>1</trackindex>
						<clipindex>45</clipindex>
					</link>
					<link>
						<linkclipref>Clip1ATK75 3</linkclipref>
						<mediatype>audio</mediatype>
						<trackindex>1</trackindex>
						<clipindex>35</clipindex>
					</link>
					<link>
						<linkclipref>Clip1ATK75 4</linkclipref>
						<mediatype>audio</mediatype>
						<trackindex>2</trackindex>
						<clipindex>35</clipindex>
					</link>
					<itemhistory>
						<uuid>29FE0266-D852-4C14-87D2-F9D470C3B308</uuid>
					</itemhistory>
				</clipitem>
				<clipitem id="Clip1ATK75 6">
					<name>Clip1ATK75</name>
					<duration>1507</duration>
					<rate>
						<ntsc>FALSE</ntsc>
						<timebase>25</timebase>
					</rate>
					<in>466</in>
					<out>1461</out>
					<start>4821</start>
					<end>5816</end>
					<subframeoffset>0</subframeoffset>
					<masterclipid>Clip1ATK75 1</masterclipid>
					<logginginfo>
						<scene/>
						<shottake/>
						<lognote/>
						<good>FALSE</good>
					</logginginfo>
					<labels>
						<label2/>
					</labels>
					<comments>
						<mastercomment1/>
						<mastercomment2/>
						<mastercomment3/>
						<mastercomment4/>
					</comments>
					<file id="Clip1ATK75 2"/>
					<filter>
						<effect>
							<name>Audio Levels</name>
							<effectid>audiolevels</effectid>
							<effectcategory>audiolevels</effectcategory>
							<effecttype>audiolevels</effecttype>
							<mediatype>audio</mediatype>
							<parameter>
								<name>Level</name>
								<parameterid>level</parameterid>
								<valuemin>0</valuemin>
								<valuemax>3.98109</valuemax>
								<value>2.23872</value>
							</parameter>
						</effect>
					</filter>
					<filter>
						<effect>
							<name>Audio Pan</name>
							<effectid>audiopan</effectid>
							<effectcategory>audiopan</effectcategory>
							<effecttype>audiopan</effecttype>
							<mediatype>audio</mediatype>
							<parameter>
								<name>Pan</name>
								<parameterid>pan</parameterid>
								<valuemin>-1</valuemin>
								<valuemax>1</valuemax>
								<value>0</value>
							</parameter>
						</effect>
					</filter>
					<sourcetrack>
						<mediatype>audio</mediatype>
						<trackindex>1</trackindex>
					</sourcetrack>
					<link>
						<linkclipref>Clip1ATK75 5</linkclipref>
						<mediatype>video</mediatype>
						<trackindex>1</trackindex>
						<clipindex>47</clipindex>
					</link>
					<link>
						<linkclipref>Clip1ATK75 6</linkclipref>
						<mediatype>audio</mediatype>
						<trackindex>1</trackindex>
						<clipindex>36</clipindex>
					</link>
					<link>
						<linkclipref>Clip1ATK75 7</linkclipref>
						<mediatype>audio</mediatype>
						<trackindex>2</trackindex>
						<clipindex>37</clipindex>
					</link>
					<itemhistory>
						<uuid>F3059451-01FD-4314-A860-B6106C537F46</uuid>
					</itemhistory>
				</clipitem>
				<clipitem id="Clip1ATK91 3">
					<name>Clip1ATK91</name>
					<duration>548</duration>
					<rate>
						<ntsc>FALSE</ntsc>
						<timebase>25</timebase>
					</rate>
					<in>224</in>
					<out>352</out>
					<start>5969</start>
					<end>6097</end>
					<subframeoffset>0</subframeoffset>
					<enabled>TRUE</enabled>
					<masterclipid>Clip1ATK91 1</masterclipid>
					<logginginfo>
						<scene/>
						<shottake/>
						<lognote/>
						<good>FALSE</good>
					</logginginfo>
					<labels>
						<label2/>
					</labels>
					<comments>
						<mastercomment1/>
						<mastercomment2/>
						<mastercomment3/>
						<mastercomment4/>
					</comments>
					<file id="Clip1ATK91 2"/>
					<filter>
						<effect>
							<name>Audio Levels</name>
							<effectid>audiolevels</effectid>
							<effectcategory>audiolevels</effectcategory>
							<effecttype>audiolevels</effecttype>
							<mediatype>audio</mediatype>
							<parameter>
								<name>Level</name>
								<parameterid>level</parameterid>
								<valuemin>0</valuemin>
								<valuemax>3.98109</valuemax>
								<value>1</value>
							</parameter>
						</effect>
					</filter>
					<filter>
						<effect>
							<name>Audio Pan</name>
							<effectid>audiopan</effectid>
							<effectcategory>audiopan</effectcategory>
							<effecttype>audiopan</effecttype>
							<mediatype>audio</mediatype>
							<parameter>
								<name>Pan</name>
								<parameterid>pan</parameterid>
								<valuemin>-1</valuemin>
								<valuemax>1</valuemax>
								<value>0</value>
							</parameter>
						</effect>
					</filter>
					<sourcetrack>
						<mediatype>audio</mediatype>
						<trackindex>1</trackindex>
					</sourcetrack>
					<link>
						<linkclipref>Clip1ATK91 </linkclipref>
						<mediatype>video</mediatype>
						<trackindex>1</trackindex>
						<clipindex>55</clipindex>
					</link>
					<link>
						<linkclipref>Clip1ATK91 3</linkclipref>
						<mediatype>audio</mediatype>
						<trackindex>1</trackindex>
						<clipindex>37</clipindex>
					</link>
					<link>
						<linkclipref>Clip1ATK91 4</linkclipref>
						<mediatype>audio</mediatype>
						<trackindex>2</trackindex>
						<clipindex>39</clipindex>
					</link>
					<itemhistory>
						<uuid>5231C0E9-6AD7-41DE-9522-42FD4F102105</uuid>
					</itemhistory>
				</clipitem>
				<clipitem id="-01_0218_01 3">
					<name>-01_0218_01</name>
					<duration>767</duration>
					<rate>
						<ntsc>FALSE</ntsc>
						<timebase>25</timebase>
					</rate>
					<in>217</in>
					<out>682</out>
					<start>6097</start>
					<end>6562</end>
					<subframeoffset>0</subframeoffset>
					<masterclipid>-01_0218_01 1</masterclipid>
					<syncoffset>0</syncoffset>
					<logginginfo>
						<scene/>
						<shottake/>
						<lognote/>
						<good>FALSE</good>
					</logginginfo>
					<labels>
						<label2/>
					</labels>
					<comments>
						<mastercomment1/>
						<mastercomment2/>
						<mastercomment3/>
						<mastercomment4/>
					</comments>
					<file id="-01_0218_01 2"/>
					<filter>
						<effect>
							<name>Audio Levels</name>
							<effectid>audiolevels</effectid>
							<effectcategory>audiolevels</effectcategory>
							<effecttype>audiolevels</effecttype>
							<mediatype>audio</mediatype>
							<parameter>
								<name>Level</name>
								<parameterid>level</parameterid>
								<valuemin>0</valuemin>
								<valuemax>3.98109</valuemax>
								<value>3.98107</value>
							</parameter>
						</effect>
					</filter>
					<filter>
						<effect>
							<name>Audio Pan</name>
							<effectid>audiopan</effectid>
							<effectcategory>audiopan</effectcategory>
							<effecttype>audiopan</effecttype>
							<mediatype>audio</mediatype>
							<parameter>
								<name>Pan</name>
								<parameterid>pan</parameterid>
								<valuemin>-1</valuemin>
								<valuemax>1</valuemax>
								<value>0</value>
							</parameter>
						</effect>
					</filter>
					<sourcetrack>
						<mediatype>audio</mediatype>
						<trackindex>1</trackindex>
					</sourcetrack>
					<link>
						<linkclipref>-01_0218_01 </linkclipref>
						<mediatype>video</mediatype>
						<trackindex>1</trackindex>
						<clipindex>56</clipindex>
					</link>
					<link>
						<linkclipref>-01_0218_01 3</linkclipref>
						<mediatype>audio</mediatype>
						<trackindex>1</trackindex>
						<clipindex>38</clipindex>
					</link>
					<link>
						<linkclipref>-01_0218_01 4</linkclipref>
						<mediatype>audio</mediatype>
						<trackindex>2</trackindex>
						<clipindex>40</clipindex>
					</link>
					<itemhistory>
						<uuid>88959BBC-5C6B-4AD4-AD88-4CE0CF2E3C9E</uuid>
					</itemhistory>
				</clipitem>
				<clipitem id="Clip1ATK92 5">
					<name>Clip1ATK92</name>
					<duration>627</duration>
					<rate>
						<ntsc>FALSE</ntsc>
						<timebase>25</timebase>
					</rate>
					<in>417</in>
					<out>491</out>
					<start>6620</start>
					<end>6694</end>
					<subframeoffset>0</subframeoffset>
					<masterclipid>Clip1ATK92 1</masterclipid>
					<logginginfo>
						<scene/>
						<shottake/>
						<lognote/>
						<good>FALSE</good>
					</logginginfo>
					<labels>
						<label2/>
					</labels>
					<comments>
						<mastercomment1/>
						<mastercomment2/>
						<mastercomment3/>
						<mastercomment4/>
					</comments>
					<file id="Clip1ATK92 2"/>
					<filter>
						<effect>
							<name>Audio Levels</name>
							<effectid>audiolevels</effectid>
							<effectcategory>audiolevels</effectcategory>
							<effecttype>audiolevels</effecttype>
							<mediatype>audio</mediatype>
							<parameter>
								<name>Level</name>
								<parameterid>level</parameterid>
								<valuemin>0</valuemin>
								<valuemax>3.98109</valuemax>
								<value>1</value>
							</parameter>
						</effect>
					</filter>
					<filter>
						<effect>
							<name>Audio Pan</name>
							<effectid>audiopan</effectid>
							<effectcategory>audiopan</effectcategory>
							<effecttype>audiopan</effecttype>
							<mediatype>audio</mediatype>
							<parameter>
								<name>Pan</name>
								<parameterid>pan</parameterid>
								<valuemin>-1</valuemin>
								<valuemax>1</valuemax>
								<value>0</value>
							</parameter>
						</effect>
					</filter>
					<sourcetrack>
						<mediatype>audio</mediatype>
						<trackindex>1</trackindex>
					</sourcetrack>
					<link>
						<linkclipref>Clip1ATK92 4</linkclipref>
						<mediatype>video</mediatype>
						<trackindex>1</trackindex>
						<clipindex>58</clipindex>
					</link>
					<link>
						<linkclipref>Clip1ATK92 5</linkclipref>
						<mediatype>audio</mediatype>
						<trackindex>1</trackindex>
						<clipindex>39</clipindex>
					</link>
					<link>
						<linkclipref>Clip1ATK92 6</linkclipref>
						<mediatype>audio</mediatype>
						<trackindex>2</trackindex>
						<clipindex>42</clipindex>
					</link>
					<itemhistory>
						<uuid>AEC72841-6405-44D3-8ADA-CC8B2F21A317</uuid>
					</itemhistory>
				</clipitem>
				<clipitem id="Clip1ATK88 3">
					<name>Clip1ATK88</name>
					<duration>427</duration>
					<rate>
						<ntsc>FALSE</ntsc>
						<timebase>25</timebase>
					</rate>
					<in>157</in>
					<out>292</out>
					<start>6694</start>
					<end>6829</end>
					<subframeoffset>0</subframeoffset>
					<enabled>TRUE</enabled>
					<masterclipid>Clip1ATK88 1</masterclipid>
					<logginginfo>
						<scene/>
						<shottake/>
						<lognote/>
						<good>FALSE</good>
					</logginginfo>
					<labels>
						<label2/>
					</labels>
					<comments>
						<mastercomment1/>
						<mastercomment2/>
						<mastercomment3/>
						<mastercomment4/>
					</comments>
					<file id="Clip1ATK88 2"/>
					<filter>
						<effect>
							<name>Audio Levels</name>
							<effectid>audiolevels</effectid>
							<effectcategory>audiolevels</effectcategory>
							<effecttype>audiolevels</effecttype>
							<mediatype>audio</mediatype>
							<parameter>
								<name>Level</name>
								<parameterid>level</parameterid>
								<valuemin>0</valuemin>
								<valuemax>3.98109</valuemax>
								<value>3.98107</value>
							</parameter>
						</effect>
					</filter>
					<filter>
						<effect>
							<name>Audio Pan</name>
							<effectid>audiopan</effectid>
							<effectcategory>audiopan</effectcategory>
							<effecttype>audiopan</effecttype>
							<mediatype>audio</mediatype>
							<parameter>
								<name>Pan</name>
								<parameterid>pan</parameterid>
								<valuemin>-1</valuemin>
								<valuemax>1</valuemax>
								<value>0</value>
							</parameter>
						</effect>
					</filter>
					<sourcetrack>
						<mediatype>audio</mediatype>
						<trackindex>1</trackindex>
					</sourcetrack>
					<link>
						<linkclipref>Clip1ATK88 </linkclipref>
						<mediatype>video</mediatype>
						<trackindex>1</trackindex>
						<clipindex>59</clipindex>
					</link>
					<link>
						<linkclipref>Clip1ATK88 3</linkclipref>
						<mediatype>audio</mediatype>
						<trackindex>1</trackindex>
						<clipindex>40</clipindex>
					</link>
					<link>
						<linkclipref>Clip1ATK88 4</linkclipref>
						<mediatype>audio</mediatype>
						<trackindex>2</trackindex>
						<clipindex>43</clipindex>
					</link>
					<itemhistory>
						<uuid>05B2ED6D-52BA-4F00-9874-3798C1CFFB79</uuid>
					</itemhistory>
				</clipitem>
				<clipitem id="Clip1ATK86 3">
					<name>Clip1ATK86</name>
					<duration>343</duration>
					<rate>
						<ntsc>FALSE</ntsc>
						<timebase>25</timebase>
					</rate>
					<in>186</in>
					<out>240</out>
					<start>6829</start>
					<end>6883</end>
					<subframeoffset>0</subframeoffset>
					<masterclipid>Clip1ATK86 1</masterclipid>
					<logginginfo>
						<scene/>
						<shottake/>
						<lognote/>
						<good>FALSE</good>
					</logginginfo>
					<labels>
						<label2/>
					</labels>
					<comments>
						<mastercomment1/>
						<mastercomment2/>
						<mastercomment3/>
						<mastercomment4/>
					</comments>
					<file id="Clip1ATK86 2"/>
					<filter>
						<effect>
							<name>Audio Levels</name>
							<effectid>audiolevels</effectid>
							<effectcategory>audiolevels</effectcategory>
							<effecttype>audiolevels</effecttype>
							<mediatype>audio</mediatype>
							<parameter>
								<name>Level</name>
								<parameterid>level</parameterid>
								<valuemin>0</valuemin>
								<valuemax>3.98109</valuemax>
								<value>3.98107</value>
							</parameter>
						</effect>
					</filter>
					<filter>
						<effect>
							<name>Audio Pan</name>
							<effectid>audiopan</effectid>
							<effectcategory>audiopan</effectcategory>
							<effecttype>audiopan</effecttype>
							<mediatype>audio</mediatype>
							<parameter>
								<name>Pan</name>
								<parameterid>pan</parameterid>
								<valuemin>-1</valuemin>
								<valuemax>1</valuemax>
								<value>0</value>
							</parameter>
						</effect>
					</filter>
					<sourcetrack>
						<mediatype>audio</mediatype>
						<trackindex>1</trackindex>
					</sourcetrack>
					<link>
						<linkclipref>Clip1ATK86 </linkclipref>
						<mediatype>video</mediatype>
						<trackindex>1</trackindex>
						<clipindex>60</clipindex>
					</link>
					<link>
						<linkclipref>Clip1ATK86 3</linkclipref>
						<mediatype>audio</mediatype>
						<trackindex>1</trackindex>
						<clipindex>41</clipindex>
					</link>
					<link>
						<linkclipref>Clip1ATK86 4</linkclipref>
						<mediatype>audio</mediatype>
						<trackindex>2</trackindex>
						<clipindex>44</clipindex>
					</link>
					<itemhistory>
						<uuid>CA5C67D1-469F-4236-BD27-E6BFC140AF0F</uuid>
					</itemhistory>
				</clipitem>
				<clipitem id="Clip1ATK94 3">
					<name>Clip1ATK94</name>
					<duration>471</duration>
					<rate>
						<ntsc>FALSE</ntsc>
						<timebase>25</timebase>
					</rate>
					<in>184</in>
					<out>349</out>
					<start>6883</start>
					<end>7048</end>
					<subframeoffset>0</subframeoffset>
					<masterclipid>Clip1ATK94 1</masterclipid>
					<logginginfo>
						<scene/>
						<shottake/>
						<lognote/>
						<good>FALSE</good>
					</logginginfo>
					<labels>
						<label2/>
					</labels>
					<comments>
						<mastercomment1/>
						<mastercomment2/>
						<mastercomment3/>
						<mastercomment4/>
					</comments>
					<file id="Clip1ATK94 2"/>
					<filter>
						<effect>
							<name>Audio Levels</name>
							<effectid>audiolevels</effectid>
							<effectcategory>audiolevels</effectcategory>
							<effecttype>audiolevels</effecttype>
							<mediatype>audio</mediatype>
							<parameter>
								<name>Level</name>
								<parameterid>level</parameterid>
								<valuemin>0</valuemin>
								<valuemax>3.98109</valuemax>
								<value>1</value>
							</parameter>
						</effect>
					</filter>
					<filter>
						<effect>
							<name>Audio Pan</name>
							<effectid>audiopan</effectid>
							<effectcategory>audiopan</effectcategory>
							<effecttype>audiopan</effecttype>
							<mediatype>audio</mediatype>
							<parameter>
								<name>Pan</name>
								<parameterid>pan</parameterid>
								<valuemin>-1</valuemin>
								<valuemax>1</valuemax>
								<value>0</value>
							</parameter>
						</effect>
					</filter>
					<sourcetrack>
						<mediatype>audio</mediatype>
						<trackindex>1</trackindex>
					</sourcetrack>
					<link>
						<linkclipref>Clip1ATK94 </linkclipref>
						<mediatype>video</mediatype>
						<trackindex>1</trackindex>
						<clipindex>61</clipindex>
					</link>
					<link>
						<linkclipref>Clip1ATK94 3</linkclipref>
						<mediatype>audio</mediatype>
						<trackindex>1</trackindex>
						<clipindex>42</clipindex>
					</link>
					<link>
						<linkclipref>Clip1ATK94 4</linkclipref>
						<mediatype>audio</mediatype>
						<trackindex>2</trackindex>
						<clipindex>45</clipindex>
					</link>
					<itemhistory>
						<uuid>9FD40E30-F856-4EBC-9604-D90649815EBB</uuid>
					</itemhistory>
				</clipitem>
				<clipitem id="Clip1ATK90 3">
					<name>Clip1ATK90</name>
					<duration>481</duration>
					<rate>
						<ntsc>FALSE</ntsc>
						<timebase>25</timebase>
					</rate>
					<in>163</in>
					<out>225</out>
					<start>7048</start>
					<end>7110</end>
					<subframeoffset>0</subframeoffset>
					<masterclipid>Clip1ATK90 1</masterclipid>
					<logginginfo>
						<scene/>
						<shottake/>
						<lognote/>
						<good>FALSE</good>
					</logginginfo>
					<labels>
						<label2/>
					</labels>
					<comments>
						<mastercomment1/>
						<mastercomment2/>
						<mastercomment3/>
						<mastercomment4/>
					</comments>
					<file id="Clip1ATK90 2"/>
					<filter>
						<effect>
							<name>Audio Levels</name>
							<effectid>audiolevels</effectid>
							<effectcategory>audiolevels</effectcategory>
							<effecttype>audiolevels</effecttype>
							<mediatype>audio</mediatype>
							<parameter>
								<name>Level</name>
								<parameterid>level</parameterid>
								<valuemin>0</valuemin>
								<valuemax>3.98109</valuemax>
								<keyframe>
									<when>224.429</when>
									<value>3.98107</value>
								</keyframe>
								<keyframe>
									<when>228.429</when>
									<value>0</value>
								</keyframe>
								<keyframe>
									<when>249.571</when>
									<value>0</value>
								</keyframe>
								<keyframe>
									<when>258.429</when>
									<value>3.98107</value>
								</keyframe>
								<interpolation>
									<name>FCPCurve</name>
								</interpolation>
								<value>3.98107</value>
							</parameter>
						</effect>
					</filter>
					<filter>
						<effect>
							<name>Audio Pan</name>
							<effectid>audiopan</effectid>
							<effectcategory>audiopan</effectcategory>
							<effecttype>audiopan</effecttype>
							<mediatype>audio</mediatype>
							<parameter>
								<name>Pan</name>
								<parameterid>pan</parameterid>
								<valuemin>-1</valuemin>
								<valuemax>1</valuemax>
								<value>0</value>
							</parameter>
						</effect>
					</filter>
					<sourcetrack>
						<mediatype>audio</mediatype>
						<trackindex>1</trackindex>
					</sourcetrack>
					<link>
						<linkclipref>Clip1ATK90 </linkclipref>
						<mediatype>video</mediatype>
						<trackindex>1</trackindex>
						<clipindex>62</clipindex>
					</link>
					<link>
						<linkclipref>Clip1ATK90 3</linkclipref>
						<mediatype>audio</mediatype>
						<trackindex>1</trackindex>
						<clipindex>43</clipindex>
					</link>
					<link>
						<linkclipref>Clip1ATK90 4</linkclipref>
						<mediatype>audio</mediatype>
						<trackindex>2</trackindex>
						<clipindex>46</clipindex>
					</link>
					<itemhistory>
						<uuid>D94958D7-AAE5-4D92-B058-3F9E6D5BDD69</uuid>
					</itemhistory>
				</clipitem>
				<clipitem id="Clip1ATK90 5">
					<name>Clip1ATK90</name>
					<duration>481</duration>
					<rate>
						<ntsc>FALSE</ntsc>
						<timebase>25</timebase>
					</rate>
					<in>260</in>
					<out>300</out>
					<start>7110</start>
					<end>7150</end>
					<subframeoffset>0</subframeoffset>
					<masterclipid>Clip1ATK90 1</masterclipid>
					<logginginfo>
						<scene/>
						<shottake/>
						<lognote/>
						<good>FALSE</good>
					</logginginfo>
					<labels>
						<label2/>
					</labels>
					<comments>
						<mastercomment1/>
						<mastercomment2/>
						<mastercomment3/>
						<mastercomment4/>
					</comments>
					<file id="Clip1ATK90 2"/>
					<filter>
						<effect>
							<name>Audio Levels</name>
							<effectid>audiolevels</effectid>
							<effectcategory>audiolevels</effectcategory>
							<effecttype>audiolevels</effecttype>
							<mediatype>audio</mediatype>
							<parameter>
								<name>Level</name>
								<parameterid>level</parameterid>
								<valuemin>0</valuemin>
								<valuemax>3.98109</valuemax>
								<keyframe>
									<when>224.429</when>
									<value>3.98107</value>
								</keyframe>
								<keyframe>
									<when>228.429</when>
									<value>0</value>
								</keyframe>
								<keyframe>
									<when>249.571</when>
									<value>0</value>
								</keyframe>
								<keyframe>
									<when>258.429</when>
									<value>3.98107</value>
								</keyframe>
								<interpolation>
									<name>FCPCurve</name>
								</interpolation>
								<value>3.98107</value>
							</parameter>
						</effect>
					</filter>
					<filter>
						<effect>
							<name>Audio Pan</name>
							<effectid>audiopan</effectid>
							<effectcategory>audiopan</effectcategory>
							<effecttype>audiopan</effecttype>
							<mediatype>audio</mediatype>
							<parameter>
								<name>Pan</name>
								<parameterid>pan</parameterid>
								<valuemin>-1</valuemin>
								<valuemax>1</valuemax>
								<value>0</value>
							</parameter>
						</effect>
					</filter>
					<sourcetrack>
						<mediatype>audio</mediatype>
						<trackindex>1</trackindex>
					</sourcetrack>
					<link>
						<linkclipref>Clip1ATK90 5</linkclipref>
						<mediatype>audio</mediatype>
						<trackindex>1</trackindex>
						<clipindex>44</clipindex>
					</link>
					<link>
						<linkclipref>Clip1ATK90 6</linkclipref>
						<mediatype>audio</mediatype>
						<trackindex>2</trackindex>
						<clipindex>47</clipindex>
					</link>
					<itemhistory>
						<uuid>F0C47C94-09C2-498C-BCAD-EE9AEC3CC987</uuid>
					</itemhistory>
				</clipitem>
				<clipitem id="Clip1ATK91 6">
					<name>Clip1ATK91</name>
					<duration>548</duration>
					<rate>
						<ntsc>FALSE</ntsc>
						<timebase>25</timebase>
					</rate>
					<in>409</in>
					<out>451</out>
					<start>7185</start>
					<end>7227</end>
					<subframeoffset>0</subframeoffset>
					<masterclipid>Clip1ATK91 1</masterclipid>
					<logginginfo>
						<scene/>
						<shottake/>
						<lognote/>
						<good>FALSE</good>
					</logginginfo>
					<labels>
						<label2/>
					</labels>
					<comments>
						<mastercomment1/>
						<mastercomment2/>
						<mastercomment3/>
						<mastercomment4/>
					</comments>
					<file id="Clip1ATK91 2"/>
					<filter>
						<effect>
							<name>Audio Levels</name>
							<effectid>audiolevels</effectid>
							<effectcategory>audiolevels</effectcategory>
							<effecttype>audiolevels</effecttype>
							<mediatype>audio</mediatype>
							<parameter>
								<name>Level</name>
								<parameterid>level</parameterid>
								<valuemin>0</valuemin>
								<valuemax>3.98109</valuemax>
								<value>1</value>
							</parameter>
						</effect>
					</filter>
					<filter>
						<effect>
							<name>Audio Pan</name>
							<effectid>audiopan</effectid>
							<effectcategory>audiopan</effectcategory>
							<effecttype>audiopan</effecttype>
							<mediatype>audio</mediatype>
							<parameter>
								<name>Pan</name>
								<parameterid>pan</parameterid>
								<valuemin>-1</valuemin>
								<valuemax>1</valuemax>
								<value>0</value>
							</parameter>
						</effect>
					</filter>
					<sourcetrack>
						<mediatype>audio</mediatype>
						<trackindex>1</trackindex>
					</sourcetrack>
					<link>
						<linkclipref>Clip1ATK91 5</linkclipref>
						<mediatype>video</mediatype>
						<trackindex>1</trackindex>
						<clipindex>63</clipindex>
					</link>
					<link>
						<linkclipref>Clip1ATK91 6</linkclipref>
						<mediatype>audio</mediatype>
						<trackindex>1</trackindex>
						<clipindex>45</clipindex>
					</link>
					<link>
						<linkclipref>Clip1ATK91 7</linkclipref>
						<mediatype>audio</mediatype>
						<trackindex>2</trackindex>
						<clipindex>48</clipindex>
					</link>
					<itemhistory>
						<uuid>4F918969-4DC3-4A32-8D8C-216425B70B29</uuid>
					</itemhistory>
				</clipitem>
				<clipitem id="-01_0235_01 3">
					<name>-01_0235_01</name>
					<duration>1180</duration>
					<rate>
						<ntsc>FALSE</ntsc>
						<timebase>25</timebase>
					</rate>
					<in>585</in>
					<out>1095</out>
					<start>7227</start>
					<end>7737</end>
					<subframeoffset>0</subframeoffset>
					<enabled>TRUE</enabled>
					<masterclipid>-01_0235_01 1</masterclipid>
					<logginginfo>
						<scene/>
						<shottake/>
						<lognote/>
						<good>FALSE</good>
					</logginginfo>
					<labels>
						<label2/>
					</labels>
					<comments>
						<mastercomment1/>
						<mastercomment2/>
						<mastercomment3/>
						<mastercomment4/>
					</comments>
					<file id="-01_0235_01 2"/>
					<filter>
						<effect>
							<name>Audio Levels</name>
							<effectid>audiolevels</effectid>
							<effectcategory>audiolevels</effectcategory>
							<effecttype>audiolevels</effecttype>
							<mediatype>audio</mediatype>
							<parameter>
								<name>Level</name>
								<parameterid>level</parameterid>
								<valuemin>0</valuemin>
								<valuemax>3.98109</valuemax>
								<value>1</value>
							</parameter>
						</effect>
					</filter>
					<filter>
						<effect>
							<name>Audio Pan</name>
							<effectid>audiopan</effectid>
							<effectcategory>audiopan</effectcategory>
							<effecttype>audiopan</effecttype>
							<mediatype>audio</mediatype>
							<parameter>
								<name>Pan</name>
								<parameterid>pan</parameterid>
								<valuemin>-1</valuemin>
								<valuemax>1</valuemax>
								<value>0</value>
							</parameter>
						</effect>
					</filter>
					<sourcetrack>
						<mediatype>audio</mediatype>
						<trackindex>1</trackindex>
					</sourcetrack>
					<link>
						<linkclipref>-01_0235_01 </linkclipref>
						<mediatype>video</mediatype>
						<trackindex>1</trackindex>
						<clipindex>64</clipindex>
					</link>
					<link>
						<linkclipref>-01_0235_01 3</linkclipref>
						<mediatype>audio</mediatype>
						<trackindex>1</trackindex>
						<clipindex>46</clipindex>
					</link>
					<link>
						<linkclipref>-01_0235_01 4</linkclipref>
						<mediatype>audio</mediatype>
						<trackindex>2</trackindex>
						<clipindex>49</clipindex>
					</link>
					<itemhistory>
						<uuid>DA893E46-3D06-491D-99D1-351D59492232</uuid>
					</itemhistory>
				</clipitem>
				<clipitem id="AA1480_01 3">
					<name>AA1480_01</name>
					<duration>432</duration>
					<rate>
						<ntsc>FALSE</ntsc>
						<timebase>25</timebase>
					</rate>
					<in>120</in>
					<out>316</out>
					<start>7737</start>
					<end>7933</end>
					<subframeoffset>0</subframeoffset>
					<enabled>TRUE</enabled>
					<masterclipid>AA1480_01 1</masterclipid>
					<logginginfo>
						<scene/>
						<shottake/>
						<lognote/>
						<good>FALSE</good>
					</logginginfo>
					<labels>
						<label2/>
					</labels>
					<comments>
						<mastercomment1/>
						<mastercomment2/>
						<mastercomment3/>
						<mastercomment4/>
					</comments>
					<file id="AA1480_01 2"/>
					<filter>
						<effect>
							<name>Audio Levels</name>
							<effectid>audiolevels</effectid>
							<effectcategory>audiolevels</effectcategory>
							<effecttype>audiolevels</effecttype>
							<mediatype>audio</mediatype>
							<parameter>
								<name>Level</name>
								<parameterid>level</parameterid>
								<valuemin>0</valuemin>
								<valuemax>3.98109</valuemax>
								<keyframe>
									<when>299.286</when>
									<value>2.51189</value>
								</keyframe>
								<keyframe>
									<when>314.714</when>
									<value>0</value>
								</keyframe>
								<interpolation>
									<name>FCPCurve</name>
								</interpolation>
								<value>1.77828</value>
							</parameter>
						</effect>
					</filter>
					<filter>
						<effect>
							<name>Audio Pan</name>
							<effectid>audiopan</effectid>
							<effectcategory>audiopan</effectcategory>
							<effecttype>audiopan</effecttype>
							<mediatype>audio</mediatype>
							<parameter>
								<name>Pan</name>
								<parameterid>pan</parameterid>
								<valuemin>-1</valuemin>
								<valuemax>1</valuemax>
								<value>0</value>
							</parameter>
						</effect>
					</filter>
					<sourcetrack>
						<mediatype>audio</mediatype>
						<trackindex>2</trackindex>
					</sourcetrack>
					<link>
						<linkclipref>AA1480_01 </linkclipref>
						<mediatype>video</mediatype>
						<trackindex>1</trackindex>
						<clipindex>66</clipindex>
					</link>
					<link>
						<linkclipref>AA1480_01 3</linkclipref>
						<mediatype>audio</mediatype>
						<trackindex>1</trackindex>
						<clipindex>47</clipindex>
					</link>
					<itemhistory>
						<uuid>B3BF5183-0462-44B8-B724-9F0275B0A613</uuid>
					</itemhistory>
				</clipitem>
				<clipitem id="carinos pgm 18 Kraakeklubben.WAV">
					<name>carinos pgm 18 Kraakeklubben.WAV</name>
					<duration>8290</duration>
					<rate>
						<ntsc>FALSE</ntsc>
						<timebase>25</timebase>
					</rate>
					<in>4620</in>
					<out>4707</out>
					<start>7939</start>
					<end>8026</end>
					<subframeoffset>0</subframeoffset>
					<enabled>TRUE</enabled>
					<masterclipid>carinos pgm 18 Kraakeklubben.WAV1</masterclipid>
					<logginginfo>
						<scene/>
						<shottake/>
						<lognote/>
						<good>FALSE</good>
					</logginginfo>
					<labels>
						<label2/>
					</labels>
					<comments>
						<mastercomment1/>
						<mastercomment2/>
						<mastercomment3/>
						<mastercomment4/>
					</comments>
					<file id="carinos pgm 18 Kraakeklubben">
						<name>carinos pgm 18 Kraakeklubben.WAV</name>
						<pathurl>file://localhost/Volumes/Askepott/Prosjekter/DNPR637010_Kra%CC%8Akeklubben_TEM_011212/LYD/carinos%20pgm%2018%20Kraakeklubben.WAV</pathurl>
						<rate>
							<timebase>25</timebase>
						</rate>
						<duration>8290</duration>
						<media>
							<audio>
								<samplecharacteristics>
									<samplerate>48000</samplerate>
									<depth>16</depth>
								</samplecharacteristics>
								<channelcount>2</channelcount>
							</audio>
						</media>
					</file>
					<filter>
						<effect>
							<name>Audio Levels</name>
							<effectid>audiolevels</effectid>
							<effectcategory>audiolevels</effectcategory>
							<effecttype>audiolevels</effecttype>
							<mediatype>audio</mediatype>
							<parameter>
								<name>Level</name>
								<parameterid>level</parameterid>
								<valuemin>0</valuemin>
								<valuemax>3.98109</valuemax>
								<value>3.98107</value>
							</parameter>
						</effect>
					</filter>
					<filter>
						<effect>
							<name>Audio Pan</name>
							<effectid>audiopan</effectid>
							<effectcategory>audiopan</effectcategory>
							<effecttype>audiopan</effecttype>
							<mediatype>audio</mediatype>
							<parameter>
								<name>Pan</name>
								<parameterid>pan</parameterid>
								<valuemin>-1</valuemin>
								<valuemax>1</valuemax>
								<value>0</value>
							</parameter>
						</effect>
					</filter>
					<sourcetrack>
						<mediatype>audio</mediatype>
						<trackindex>1</trackindex>
					</sourcetrack>
					<itemhistory>
						<uuid>AF823BC9-9B5A-409D-8712-51130B60D107</uuid>
					</itemhistory>
				</clipitem>
				<clipitem id="carinos pgm 18 Kraakeklubben.WAV2">
					<name>carinos pgm 18 Kraakeklubben.WAV</name>
					<duration>8290</duration>
					<rate>
						<ntsc>FALSE</ntsc>
						<timebase>25</timebase>
					</rate>
					<in>4707</in>
					<out>4748</out>
					<start>8033</start>
					<end>8074</end>
					<subframeoffset>0</subframeoffset>
					<enabled>TRUE</enabled>
					<masterclipid>carinos pgm 18 Kraakeklubben.WAV1</masterclipid>
					<logginginfo>
						<scene/>
						<shottake/>
						<lognote/>
						<good>FALSE</good>
					</logginginfo>
					<labels>
						<label2/>
					</labels>
					<comments>
						<mastercomment1/>
						<mastercomment2/>
						<mastercomment3/>
						<mastercomment4/>
					</comments>
					<file id="carinos pgm 18 Kraakeklubben"/>
					<filter>
						<effect>
							<name>Audio Levels</name>
							<effectid>audiolevels</effectid>
							<effectcategory>audiolevels</effectcategory>
							<effecttype>audiolevels</effecttype>
							<mediatype>audio</mediatype>
							<parameter>
								<name>Level</name>
								<parameterid>level</parameterid>
								<valuemin>0</valuemin>
								<valuemax>3.98109</valuemax>
								<value>3.98107</value>
							</parameter>
						</effect>
					</filter>
					<filter>
						<effect>
							<name>Audio Pan</name>
							<effectid>audiopan</effectid>
							<effectcategory>audiopan</effectcategory>
							<effecttype>audiopan</effecttype>
							<mediatype>audio</mediatype>
							<parameter>
								<name>Pan</name>
								<parameterid>pan</parameterid>
								<valuemin>-1</valuemin>
								<valuemax>1</valuemax>
								<value>0</value>
							</parameter>
						</effect>
					</filter>
					<sourcetrack>
						<mediatype>audio</mediatype>
						<trackindex>1</trackindex>
					</sourcetrack>
					<itemhistory>
						<uuid>A614A690-9B72-4227-B3DE-9E109F1696B1</uuid>
					</itemhistory>
				</clipitem>
				<clipitem id="carinos pgm 18 Kraakeklubben.WAV3">
					<name>carinos pgm 18 Kraakeklubben.WAV</name>
					<duration>8290</duration>
					<rate>
						<ntsc>FALSE</ntsc>
						<timebase>25</timebase>
					</rate>
					<in>4759</in>
					<out>4863</out>
					<start>8095</start>
					<end>8199</end>
					<subframeoffset>0</subframeoffset>
					<enabled>TRUE</enabled>
					<masterclipid>carinos pgm 18 Kraakeklubben.WAV1</masterclipid>
					<logginginfo>
						<scene/>
						<shottake/>
						<lognote/>
						<good>FALSE</good>
					</logginginfo>
					<labels>
						<label2/>
					</labels>
					<comments>
						<mastercomment1/>
						<mastercomment2/>
						<mastercomment3/>
						<mastercomment4/>
					</comments>
					<file id="carinos pgm 18 Kraakeklubben"/>
					<filter>
						<effect>
							<name>Audio Levels</name>
							<effectid>audiolevels</effectid>
							<effectcategory>audiolevels</effectcategory>
							<effecttype>audiolevels</effecttype>
							<mediatype>audio</mediatype>
							<parameter>
								<name>Level</name>
								<parameterid>level</parameterid>
								<valuemin>0</valuemin>
								<valuemax>3.98109</valuemax>
								<keyframe>
									<when>4759.11</when>
									<value>0</value>
								</keyframe>
								<keyframe>
									<when>4759.54</when>
									<value>3.98107</value>
								</keyframe>
								<keyframe>
									<when>4859.86</when>
									<value>3.98107</value>
								</keyframe>
								<keyframe>
									<when>4860.54</when>
									<value>0</value>
								</keyframe>
								<interpolation>
									<name>FCPCurve</name>
								</interpolation>
								<value>2.51189</value>
							</parameter>
						</effect>
					</filter>
					<filter>
						<effect>
							<name>Audio Pan</name>
							<effectid>audiopan</effectid>
							<effectcategory>audiopan</effectcategory>
							<effecttype>audiopan</effecttype>
							<mediatype>audio</mediatype>
							<parameter>
								<name>Pan</name>
								<parameterid>pan</parameterid>
								<valuemin>-1</valuemin>
								<valuemax>1</valuemax>
								<value>0</value>
							</parameter>
						</effect>
					</filter>
					<sourcetrack>
						<mediatype>audio</mediatype>
						<trackindex>1</trackindex>
					</sourcetrack>
					<itemhistory>
						<uuid>2AF5A93D-67E6-4A90-A78E-D2742B355649</uuid>
					</itemhistory>
				</clipitem>
				<clipitem id="carinos pgm 18 Kraakeklubben.WAV4">
					<name>carinos pgm 18 Kraakeklubben.WAV</name>
					<duration>8290</duration>
					<rate>
						<ntsc>FALSE</ntsc>
						<timebase>25</timebase>
					</rate>
					<in>4863</in>
					<out>4908</out>
					<start>8202</start>
					<end>8247</end>
					<subframeoffset>0</subframeoffset>
					<enabled>TRUE</enabled>
					<masterclipid>carinos pgm 18 Kraakeklubben.WAV1</masterclipid>
					<logginginfo>
						<scene/>
						<shottake/>
						<lognote/>
						<good>FALSE</good>
					</logginginfo>
					<labels>
						<label2/>
					</labels>
					<comments>
						<mastercomment1/>
						<mastercomment2/>
						<mastercomment3/>
						<mastercomment4/>
					</comments>
					<file id="carinos pgm 18 Kraakeklubben"/>
					<filter>
						<effect>
							<name>Audio Levels</name>
							<effectid>audiolevels</effectid>
							<effectcategory>audiolevels</effectcategory>
							<effecttype>audiolevels</effecttype>
							<mediatype>audio</mediatype>
							<parameter>
								<name>Level</name>
								<parameterid>level</parameterid>
								<valuemin>0</valuemin>
								<valuemax>3.98109</valuemax>
								<keyframe>
									<when>4759.11</when>
									<value>0</value>
								</keyframe>
								<keyframe>
									<when>4759.54</when>
									<value>3.98107</value>
								</keyframe>
								<keyframe>
									<when>4863.07</when>
									<value>0</value>
								</keyframe>
								<keyframe>
									<when>4864.29</when>
									<value>3.98107</value>
								</keyframe>
								<interpolation>
									<name>FCPCurve</name>
								</interpolation>
								<value>2.51189</value>
							</parameter>
						</effect>
					</filter>
					<filter>
						<effect>
							<name>Audio Pan</name>
							<effectid>audiopan</effectid>
							<effectcategory>audiopan</effectcategory>
							<effecttype>audiopan</effecttype>
							<mediatype>audio</mediatype>
							<parameter>
								<name>Pan</name>
								<parameterid>pan</parameterid>
								<valuemin>-1</valuemin>
								<valuemax>1</valuemax>
								<value>0</value>
							</parameter>
						</effect>
					</filter>
					<sourcetrack>
						<mediatype>audio</mediatype>
						<trackindex>1</trackindex>
					</sourcetrack>
					<itemhistory>
						<uuid>027271C2-0FCE-408C-ACE9-F7FCB2C17027</uuid>
					</itemhistory>
				</clipitem>
				<clipitem id="AA1483_01 3">
					<name>AA1483_01</name>
					<duration>408</duration>
					<rate>
						<ntsc>FALSE</ntsc>
						<timebase>25</timebase>
					</rate>
					<in>100</in>
					<out>330</out>
					<start>8249</start>
					<end>8479</end>
					<subframeoffset>0</subframeoffset>
					<enabled>TRUE</enabled>
					<masterclipid>AA1483_01 1</masterclipid>
					<logginginfo>
						<scene/>
						<shottake/>
						<lognote/>
						<good>FALSE</good>
					</logginginfo>
					<labels>
						<label2/>
					</labels>
					<comments>
						<mastercomment1/>
						<mastercomment2/>
						<mastercomment3/>
						<mastercomment4/>
					</comments>
					<file id="AA1483_01 2"/>
					<filter>
						<effect>
							<name>Audio Levels</name>
							<effectid>audiolevels</effectid>
							<effectcategory>audiolevels</effectcategory>
							<effecttype>audiolevels</effecttype>
							<mediatype>audio</mediatype>
							<parameter>
								<name>Level</name>
								<parameterid>level</parameterid>
								<valuemin>0</valuemin>
								<valuemax>3.98109</valuemax>
								<value>2.51189</value>
							</parameter>
						</effect>
					</filter>
					<filter>
						<effect>
							<name>Audio Pan</name>
							<effectid>audiopan</effectid>
							<effectcategory>audiopan</effectcategory>
							<effecttype>audiopan</effecttype>
							<mediatype>audio</mediatype>
							<parameter>
								<name>Pan</name>
								<parameterid>pan</parameterid>
								<valuemin>-1</valuemin>
								<valuemax>1</valuemax>
								<value>0</value>
							</parameter>
						</effect>
					</filter>
					<sourcetrack>
						<mediatype>audio</mediatype>
						<trackindex>2</trackindex>
					</sourcetrack>
					<link>
						<linkclipref>AA1483_01 </linkclipref>
						<mediatype>video</mediatype>
						<trackindex>1</trackindex>
						<clipindex>72</clipindex>
					</link>
					<link>
						<linkclipref>AA1483_01 3</linkclipref>
						<mediatype>audio</mediatype>
						<trackindex>1</trackindex>
						<clipindex>52</clipindex>
					</link>
					<itemhistory>
						<uuid>80E5A842-B77D-410E-B0EB-13E56149B22B</uuid>
					</itemhistory>
				</clipitem>
				<clipitem id="carinos pgm 18 Kraakeklubben.WAV5">
					<name>carinos pgm 18 Kraakeklubben.WAV</name>
					<duration>8290</duration>
					<rate>
						<ntsc>FALSE</ntsc>
						<timebase>25</timebase>
					</rate>
					<in>6468</in>
					<out>6546</out>
					<start>8569</start>
					<end>8647</end>
					<subframeoffset>0</subframeoffset>
					<enabled>TRUE</enabled>
					<masterclipid>carinos pgm 18 Kraakeklubben.WAV1</masterclipid>
					<logginginfo>
						<scene/>
						<shottake/>
						<lognote/>
						<good>FALSE</good>
					</logginginfo>
					<labels>
						<label2/>
					</labels>
					<comments>
						<mastercomment1/>
						<mastercomment2/>
						<mastercomment3/>
						<mastercomment4/>
					</comments>
					<file id="carinos pgm 18 Kraakeklubben"/>
					<filter>
						<effect>
							<name>Audio Levels</name>
							<effectid>audiolevels</effectid>
							<effectcategory>audiolevels</effectcategory>
							<effecttype>audiolevels</effecttype>
							<mediatype>audio</mediatype>
							<parameter>
								<name>Level</name>
								<parameterid>level</parameterid>
								<valuemin>0</valuemin>
								<valuemax>3.98109</valuemax>
								<value>2.51189</value>
							</parameter>
						</effect>
					</filter>
					<filter>
						<effect>
							<name>Audio Pan</name>
							<effectid>audiopan</effectid>
							<effectcategory>audiopan</effectcategory>
							<effecttype>audiopan</effecttype>
							<mediatype>audio</mediatype>
							<parameter>
								<name>Pan</name>
								<parameterid>pan</parameterid>
								<valuemin>-1</valuemin>
								<valuemax>1</valuemax>
								<value>0</value>
							</parameter>
						</effect>
					</filter>
					<sourcetrack>
						<mediatype>audio</mediatype>
						<trackindex>1</trackindex>
					</sourcetrack>
					<itemhistory>
						<uuid>4A220EA9-D58A-4FF0-8BE0-E8E90EB493A3</uuid>
					</itemhistory>
				</clipitem>
				<clipitem id="carinos pgm 18 Kraakeklubben.WAV6">
					<name>carinos pgm 18 Kraakeklubben.WAV</name>
					<duration>8290</duration>
					<rate>
						<ntsc>FALSE</ntsc>
						<timebase>25</timebase>
					</rate>
					<in>6546</in>
					<out>6638</out>
					<start>8657</start>
					<end>8749</end>
					<subframeoffset>0</subframeoffset>
					<enabled>TRUE</enabled>
					<masterclipid>carinos pgm 18 Kraakeklubben.WAV1</masterclipid>
					<logginginfo>
						<scene/>
						<shottake/>
						<lognote/>
						<good>FALSE</good>
					</logginginfo>
					<labels>
						<label2/>
					</labels>
					<comments>
						<mastercomment1/>
						<mastercomment2/>
						<mastercomment3/>
						<mastercomment4/>
					</comments>
					<file id="carinos pgm 18 Kraakeklubben"/>
					<filter>
						<effect>
							<name>Audio Levels</name>
							<effectid>audiolevels</effectid>
							<effectcategory>audiolevels</effectcategory>
							<effecttype>audiolevels</effecttype>
							<mediatype>audio</mediatype>
							<parameter>
								<name>Level</name>
								<parameterid>level</parameterid>
								<valuemin>0</valuemin>
								<valuemax>3.98109</valuemax>
								<value>2.51189</value>
							</parameter>
						</effect>
					</filter>
					<filter>
						<effect>
							<name>Audio Pan</name>
							<effectid>audiopan</effectid>
							<effectcategory>audiopan</effectcategory>
							<effecttype>audiopan</effecttype>
							<mediatype>audio</mediatype>
							<parameter>
								<name>Pan</name>
								<parameterid>pan</parameterid>
								<valuemin>-1</valuemin>
								<valuemax>1</valuemax>
								<value>0</value>
							</parameter>
						</effect>
					</filter>
					<sourcetrack>
						<mediatype>audio</mediatype>
						<trackindex>1</trackindex>
					</sourcetrack>
					<itemhistory>
						<uuid>D8577788-99EA-4589-8485-0DA9FBE817BF</uuid>
					</itemhistory>
				</clipitem>
				<clipitem id="carinos pgm 18 Kraakeklubben.WAV7">
					<name>carinos pgm 18 Kraakeklubben.WAV</name>
					<duration>8290</duration>
					<rate>
						<ntsc>FALSE</ntsc>
						<timebase>25</timebase>
					</rate>
					<in>6638</in>
					<out>6839</out>
					<start>8759</start>
					<end>8960</end>
					<subframeoffset>0</subframeoffset>
					<enabled>TRUE</enabled>
					<masterclipid>carinos pgm 18 Kraakeklubben.WAV1</masterclipid>
					<logginginfo>
						<scene/>
						<shottake/>
						<lognote/>
						<good>FALSE</good>
					</logginginfo>
					<labels>
						<label2/>
					</labels>
					<comments>
						<mastercomment1/>
						<mastercomment2/>
						<mastercomment3/>
						<mastercomment4/>
					</comments>
					<file id="carinos pgm 18 Kraakeklubben"/>
					<filter>
						<effect>
							<name>Audio Levels</name>
							<effectid>audiolevels</effectid>
							<effectcategory>audiolevels</effectcategory>
							<effecttype>audiolevels</effecttype>
							<mediatype>audio</mediatype>
							<parameter>
								<name>Level</name>
								<parameterid>level</parameterid>
								<valuemin>0</valuemin>
								<valuemax>3.98109</valuemax>
								<value>2.51189</value>
							</parameter>
						</effect>
					</filter>
					<filter>
						<effect>
							<name>Audio Pan</name>
							<effectid>audiopan</effectid>
							<effectcategory>audiopan</effectcategory>
							<effecttype>audiopan</effecttype>
							<mediatype>audio</mediatype>
							<parameter>
								<name>Pan</name>
								<parameterid>pan</parameterid>
								<valuemin>-1</valuemin>
								<valuemax>1</valuemax>
								<value>0</value>
							</parameter>
						</effect>
					</filter>
					<sourcetrack>
						<mediatype>audio</mediatype>
						<trackindex>1</trackindex>
					</sourcetrack>
					<itemhistory>
						<uuid>65CBDC30-C405-433A-A262-F74998A089C7</uuid>
					</itemhistory>
				</clipitem>
				<clipitem id="AA1484_01 4">
					<name>AA1484_01</name>
					<duration>480</duration>
					<rate>
						<ntsc>FALSE</ntsc>
						<timebase>25</timebase>
					</rate>
					<in>209</in>
					<out>431</out>
					<start>9023</start>
					<end>9245</end>
					<subframeoffset>0</subframeoffset>
					<enabled>TRUE</enabled>
					<masterclipid>AA1484_01 1</masterclipid>
					<logginginfo>
						<scene/>
						<shottake/>
						<lognote/>
						<good>FALSE</good>
					</logginginfo>
					<labels>
						<label2/>
					</labels>
					<comments>
						<mastercomment1/>
						<mastercomment2/>
						<mastercomment3/>
						<mastercomment4/>
					</comments>
					<file id="AA1484_01 2"/>
					<filter>
						<effect>
							<name>Audio Levels</name>
							<effectid>audiolevels</effectid>
							<effectcategory>audiolevels</effectcategory>
							<effecttype>audiolevels</effecttype>
							<mediatype>audio</mediatype>
							<parameter>
								<name>Level</name>
								<parameterid>level</parameterid>
								<valuemin>0</valuemin>
								<valuemax>3.98109</valuemax>
								<keyframe>
									<when>403.143</when>
									<value>1.99526</value>
								</keyframe>
								<keyframe>
									<when>427.714</when>
									<value>0</value>
								</keyframe>
								<interpolation>
									<name>FCPCurve</name>
								</interpolation>
								<value>1.99526</value>
							</parameter>
						</effect>
					</filter>
					<filter>
						<effect>
							<name>Audio Pan</name>
							<effectid>audiopan</effectid>
							<effectcategory>audiopan</effectcategory>
							<effecttype>audiopan</effecttype>
							<mediatype>audio</mediatype>
							<parameter>
								<name>Pan</name>
								<parameterid>pan</parameterid>
								<valuemin>-1</valuemin>
								<valuemax>1</valuemax>
								<value>0</value>
							</parameter>
						</effect>
					</filter>
					<sourcetrack>
						<mediatype>audio</mediatype>
						<trackindex>2</trackindex>
					</sourcetrack>
					<itemhistory>
						<uuid>2484E1AB-8D69-415C-9763-45B7291E6405</uuid>
					</itemhistory>
				</clipitem>
				<clipitem id="AA1418_01 3">
					<name>AA1418_01</name>
					<duration>1872</duration>
					<rate>
						<ntsc>FALSE</ntsc>
						<timebase>25</timebase>
					</rate>
					<in>171</in>
					<out>1060</out>
					<start>9566</start>
					<end>10455</end>
					<subframeoffset>0</subframeoffset>
					<masterclipid>AA1418_01 1</masterclipid>
					<logginginfo>
						<scene/>
						<shottake/>
						<lognote/>
						<good>FALSE</good>
					</logginginfo>
					<labels>
						<label2/>
					</labels>
					<comments>
						<mastercomment1/>
						<mastercomment2/>
						<mastercomment3/>
						<mastercomment4/>
					</comments>
					<file id="AA1418_01 2"/>
					<filter>
						<effect>
							<name>Audio Levels</name>
							<effectid>audiolevels</effectid>
							<effectcategory>audiolevels</effectcategory>
							<effecttype>audiolevels</effecttype>
							<mediatype>audio</mediatype>
							<parameter>
								<name>Level</name>
								<parameterid>level</parameterid>
								<valuemin>0</valuemin>
								<valuemax>3.98109</valuemax>
								<value>1.99526</value>
							</parameter>
						</effect>
					</filter>
					<filter>
						<effect>
							<name>Audio Pan</name>
							<effectid>audiopan</effectid>
							<effectcategory>audiopan</effectcategory>
							<effecttype>audiopan</effecttype>
							<mediatype>audio</mediatype>
							<parameter>
								<name>Pan</name>
								<parameterid>pan</parameterid>
								<valuemin>-1</valuemin>
								<valuemax>1</valuemax>
								<value>0</value>
							</parameter>
						</effect>
					</filter>
					<sourcetrack>
						<mediatype>audio</mediatype>
						<trackindex>1</trackindex>
					</sourcetrack>
					<link>
						<linkclipref>AA1418_01 </linkclipref>
						<mediatype>video</mediatype>
						<trackindex>1</trackindex>
						<clipindex>91</clipindex>
					</link>
					<link>
						<linkclipref>AA1418_01 3</linkclipref>
						<mediatype>audio</mediatype>
						<trackindex>1</trackindex>
						<clipindex>57</clipindex>
					</link>
					<link>
						<linkclipref>AA1418_01 4</linkclipref>
						<mediatype>audio</mediatype>
						<trackindex>2</trackindex>
						<clipindex>52</clipindex>
					</link>
					<itemhistory>
						<uuid>4C74E65F-6D9D-4C4D-9947-69D4315473EF</uuid>
					</itemhistory>
				</clipitem>
				<clipitem id="AA1422_01 4">
					<name>AA1422_01</name>
					<duration>1188</duration>
					<rate>
						<ntsc>FALSE</ntsc>
						<timebase>25</timebase>
					</rate>
					<in>768</in>
					<out>831</out>
					<start>10455</start>
					<end>10518</end>
					<subframeoffset>0</subframeoffset>
					<masterclipid>AA1422_01 1</masterclipid>
					<logginginfo>
						<scene/>
						<shottake/>
						<lognote/>
						<good>FALSE</good>
					</logginginfo>
					<labels>
						<label2/>
					</labels>
					<comments>
						<mastercomment1/>
						<mastercomment2/>
						<mastercomment3/>
						<mastercomment4/>
					</comments>
					<file id="AA1422_01 2"/>
					<filter>
						<effect>
							<name>Audio Levels</name>
							<effectid>audiolevels</effectid>
							<effectcategory>audiolevels</effectcategory>
							<effecttype>audiolevels</effecttype>
							<mediatype>audio</mediatype>
							<parameter>
								<name>Level</name>
								<parameterid>level</parameterid>
								<valuemin>0</valuemin>
								<valuemax>3.98109</valuemax>
								<value>1</value>
							</parameter>
						</effect>
					</filter>
					<filter>
						<effect>
							<name>Audio Pan</name>
							<effectid>audiopan</effectid>
							<effectcategory>audiopan</effectcategory>
							<effecttype>audiopan</effecttype>
							<mediatype>audio</mediatype>
							<parameter>
								<name>Pan</name>
								<parameterid>pan</parameterid>
								<valuemin>-1</valuemin>
								<valuemax>1</valuemax>
								<value>0</value>
							</parameter>
						</effect>
					</filter>
					<sourcetrack>
						<mediatype>audio</mediatype>
						<trackindex>1</trackindex>
					</sourcetrack>
					<link>
						<linkclipref>AA1422_01 3</linkclipref>
						<mediatype>video</mediatype>
						<trackindex>1</trackindex>
						<clipindex>96</clipindex>
					</link>
					<link>
						<linkclipref>AA1422_01 4</linkclipref>
						<mediatype>audio</mediatype>
						<trackindex>1</trackindex>
						<clipindex>58</clipindex>
					</link>
					<link>
						<linkclipref>AA1422_01 5</linkclipref>
						<mediatype>audio</mediatype>
						<trackindex>2</trackindex>
						<clipindex>53</clipindex>
					</link>
					<itemhistory>
						<uuid>5373EED0-9E49-4D6F-8168-02EC7EAB906C</uuid>
					</itemhistory>
				</clipitem>
				<clipitem id="AA1418_01 11">
					<name>AA1418_01</name>
					<duration>1872</duration>
					<rate>
						<ntsc>FALSE</ntsc>
						<timebase>25</timebase>
					</rate>
					<in>1123</in>
					<out>1193</out>
					<start>10518</start>
					<end>10588</end>
					<subframeoffset>0</subframeoffset>
					<masterclipid>AA1418_01 1</masterclipid>
					<logginginfo>
						<scene/>
						<shottake/>
						<lognote/>
						<good>FALSE</good>
					</logginginfo>
					<labels>
						<label2/>
					</labels>
					<comments>
						<mastercomment1/>
						<mastercomment2/>
						<mastercomment3/>
						<mastercomment4/>
					</comments>
					<file id="AA1418_01 2"/>
					<filter>
						<effect>
							<name>Audio Levels</name>
							<effectid>audiolevels</effectid>
							<effectcategory>audiolevels</effectcategory>
							<effecttype>audiolevels</effecttype>
							<mediatype>audio</mediatype>
							<parameter>
								<name>Level</name>
								<parameterid>level</parameterid>
								<valuemin>0</valuemin>
								<valuemax>3.98109</valuemax>
								<value>1</value>
							</parameter>
						</effect>
					</filter>
					<filter>
						<effect>
							<name>Audio Pan</name>
							<effectid>audiopan</effectid>
							<effectcategory>audiopan</effectcategory>
							<effecttype>audiopan</effecttype>
							<mediatype>audio</mediatype>
							<parameter>
								<name>Pan</name>
								<parameterid>pan</parameterid>
								<valuemin>-1</valuemin>
								<valuemax>1</valuemax>
								<value>0</value>
							</parameter>
						</effect>
					</filter>
					<sourcetrack>
						<mediatype>audio</mediatype>
						<trackindex>1</trackindex>
					</sourcetrack>
					<link>
						<linkclipref>AA1418_01 11</linkclipref>
						<mediatype>audio</mediatype>
						<trackindex>1</trackindex>
						<clipindex>59</clipindex>
					</link>
					<link>
						<linkclipref>AA1418_01 12</linkclipref>
						<mediatype>audio</mediatype>
						<trackindex>2</trackindex>
						<clipindex>54</clipindex>
					</link>
					<itemhistory>
						<uuid>4C6FD7D5-A712-40F5-AF68-FA68ECC483CA</uuid>
					</itemhistory>
				</clipitem>
				<clipitem id="AA1425_01 4">
					<name>AA1425_01</name>
					<duration>1920</duration>
					<rate>
						<ntsc>FALSE</ntsc>
						<timebase>25</timebase>
					</rate>
					<in>1705</in>
					<out>1762</out>
					<start>10588</start>
					<end>10645</end>
					<subframeoffset>0</subframeoffset>
					<masterclipid>AA1425_01 1</masterclipid>
					<logginginfo>
						<scene/>
						<shottake/>
						<lognote/>
						<good>FALSE</good>
					</logginginfo>
					<labels>
						<label2/>
					</labels>
					<comments>
						<mastercomment1/>
						<mastercomment2/>
						<mastercomment3/>
						<mastercomment4/>
					</comments>
					<file id="AA1425_01 2"/>
					<filter>
						<effect>
							<name>Audio Levels</name>
							<effectid>audiolevels</effectid>
							<effectcategory>audiolevels</effectcategory>
							<effecttype>audiolevels</effecttype>
							<mediatype>audio</mediatype>
							<parameter>
								<name>Level</name>
								<parameterid>level</parameterid>
								<valuemin>0</valuemin>
								<valuemax>3.98109</valuemax>
								<value>1</value>
							</parameter>
						</effect>
					</filter>
					<filter>
						<effect>
							<name>Audio Pan</name>
							<effectid>audiopan</effectid>
							<effectcategory>audiopan</effectcategory>
							<effecttype>audiopan</effecttype>
							<mediatype>audio</mediatype>
							<parameter>
								<name>Pan</name>
								<parameterid>pan</parameterid>
								<valuemin>-1</valuemin>
								<valuemax>1</valuemax>
								<value>0</value>
							</parameter>
						</effect>
					</filter>
					<sourcetrack>
						<mediatype>audio</mediatype>
						<trackindex>1</trackindex>
					</sourcetrack>
					<link>
						<linkclipref>AA1425_01 3</linkclipref>
						<mediatype>video</mediatype>
						<trackindex>1</trackindex>
						<clipindex>98</clipindex>
					</link>
					<link>
						<linkclipref>AA1425_01 4</linkclipref>
						<mediatype>audio</mediatype>
						<trackindex>1</trackindex>
						<clipindex>60</clipindex>
					</link>
					<link>
						<linkclipref>AA1425_01 5</linkclipref>
						<mediatype>audio</mediatype>
						<trackindex>2</trackindex>
						<clipindex>55</clipindex>
					</link>
					<itemhistory>
						<uuid>42315B59-FFBE-4328-B827-C21B929A18D1</uuid>
					</itemhistory>
				</clipitem>
				<clipitem id="AA1418_01 9">
					<name>AA1418_01</name>
					<duration>1872</duration>
					<rate>
						<ntsc>FALSE</ntsc>
						<timebase>25</timebase>
					</rate>
					<in>1277</in>
					<out>1595</out>
					<start>10645</start>
					<end>10963</end>
					<subframeoffset>0</subframeoffset>
					<masterclipid>AA1418_01 1</masterclipid>
					<syncoffset>0</syncoffset>
					<logginginfo>
						<scene/>
						<shottake/>
						<lognote/>
						<good>FALSE</good>
					</logginginfo>
					<labels>
						<label2/>
					</labels>
					<comments>
						<mastercomment1/>
						<mastercomment2/>
						<mastercomment3/>
						<mastercomment4/>
					</comments>
					<file id="AA1418_01 2"/>
					<filter>
						<effect>
							<name>Audio Levels</name>
							<effectid>audiolevels</effectid>
							<effectcategory>audiolevels</effectcategory>
							<effecttype>audiolevels</effecttype>
							<mediatype>audio</mediatype>
							<parameter>
								<name>Level</name>
								<parameterid>level</parameterid>
								<valuemin>0</valuemin>
								<valuemax>3.98109</valuemax>
								<value>1</value>
							</parameter>
						</effect>
					</filter>
					<filter>
						<effect>
							<name>Audio Pan</name>
							<effectid>audiopan</effectid>
							<effectcategory>audiopan</effectcategory>
							<effecttype>audiopan</effecttype>
							<mediatype>audio</mediatype>
							<parameter>
								<name>Pan</name>
								<parameterid>pan</parameterid>
								<valuemin>-1</valuemin>
								<valuemax>1</valuemax>
								<value>0</value>
							</parameter>
						</effect>
					</filter>
					<sourcetrack>
						<mediatype>audio</mediatype>
						<trackindex>1</trackindex>
					</sourcetrack>
					<link>
						<linkclipref>AA1418_01 8</linkclipref>
						<mediatype>video</mediatype>
						<trackindex>1</trackindex>
						<clipindex>99</clipindex>
					</link>
					<link>
						<linkclipref>AA1418_01 9</linkclipref>
						<mediatype>audio</mediatype>
						<trackindex>1</trackindex>
						<clipindex>61</clipindex>
					</link>
					<link>
						<linkclipref>AA1418_01 10</linkclipref>
						<mediatype>audio</mediatype>
						<trackindex>2</trackindex>
						<clipindex>56</clipindex>
					</link>
					<itemhistory>
						<uuid>10A9E449-58A6-4E94-B68B-575C9D78177C</uuid>
					</itemhistory>
				</clipitem>
				<clipitem id="AA1423_01 3">
					<name>AA1423_01</name>
					<duration>840</duration>
					<rate>
						<ntsc>FALSE</ntsc>
						<timebase>25</timebase>
					</rate>
					<in>707</in>
					<out>741</out>
					<start>10963</start>
					<end>10997</end>
					<subframeoffset>0</subframeoffset>
					<masterclipid>AA1423_01 1</masterclipid>
					<logginginfo>
						<scene/>
						<shottake/>
						<lognote/>
						<good>FALSE</good>
					</logginginfo>
					<labels>
						<label2/>
					</labels>
					<comments>
						<mastercomment1/>
						<mastercomment2/>
						<mastercomment3/>
						<mastercomment4/>
					</comments>
					<file id="AA1423_01 2"/>
					<filter>
						<effect>
							<name>Audio Levels</name>
							<effectid>audiolevels</effectid>
							<effectcategory>audiolevels</effectcategory>
							<effecttype>audiolevels</effecttype>
							<mediatype>audio</mediatype>
							<parameter>
								<name>Level</name>
								<parameterid>level</parameterid>
								<valuemin>0</valuemin>
								<valuemax>3.98109</valuemax>
								<value>1</value>
							</parameter>
						</effect>
					</filter>
					<filter>
						<effect>
							<name>Audio Pan</name>
							<effectid>audiopan</effectid>
							<effectcategory>audiopan</effectcategory>
							<effecttype>audiopan</effecttype>
							<mediatype>audio</mediatype>
							<parameter>
								<name>Pan</name>
								<parameterid>pan</parameterid>
								<valuemin>-1</valuemin>
								<valuemax>1</valuemax>
								<value>0</value>
							</parameter>
						</effect>
					</filter>
					<sourcetrack>
						<mediatype>audio</mediatype>
						<trackindex>1</trackindex>
					</sourcetrack>
					<link>
						<linkclipref>AA1423_01 </linkclipref>
						<mediatype>video</mediatype>
						<trackindex>1</trackindex>
						<clipindex>100</clipindex>
					</link>
					<link>
						<linkclipref>AA1423_01 3</linkclipref>
						<mediatype>audio</mediatype>
						<trackindex>1</trackindex>
						<clipindex>62</clipindex>
					</link>
					<link>
						<linkclipref>AA1423_01 4</linkclipref>
						<mediatype>audio</mediatype>
						<trackindex>2</trackindex>
						<clipindex>57</clipindex>
					</link>
					<itemhistory>
						<uuid>653BD3E0-BE9B-4706-A8A1-5DA20992CDEE</uuid>
					</itemhistory>
				</clipitem>
				<clipitem id="AA1426_01 3">
					<name>AA1426_01</name>
					<duration>384</duration>
					<rate>
						<ntsc>FALSE</ntsc>
						<timebase>25</timebase>
					</rate>
					<in>212</in>
					<out>296</out>
					<start>10997</start>
					<end>11081</end>
					<subframeoffset>0</subframeoffset>
					<masterclipid>AA1426_01 1</masterclipid>
					<logginginfo>
						<scene/>
						<shottake/>
						<lognote/>
						<good>FALSE</good>
					</logginginfo>
					<labels>
						<label2/>
					</labels>
					<comments>
						<mastercomment1/>
						<mastercomment2/>
						<mastercomment3/>
						<mastercomment4/>
					</comments>
					<file id="AA1426_01 2"/>
					<filter>
						<effect>
							<name>Audio Levels</name>
							<effectid>audiolevels</effectid>
							<effectcategory>audiolevels</effectcategory>
							<effecttype>audiolevels</effecttype>
							<mediatype>audio</mediatype>
							<parameter>
								<name>Level</name>
								<parameterid>level</parameterid>
								<valuemin>0</valuemin>
								<valuemax>3.98109</valuemax>
								<value>1</value>
							</parameter>
						</effect>
					</filter>
					<filter>
						<effect>
							<name>Audio Pan</name>
							<effectid>audiopan</effectid>
							<effectcategory>audiopan</effectcategory>
							<effecttype>audiopan</effecttype>
							<mediatype>audio</mediatype>
							<parameter>
								<name>Pan</name>
								<parameterid>pan</parameterid>
								<valuemin>-1</valuemin>
								<valuemax>1</valuemax>
								<value>0</value>
							</parameter>
						</effect>
					</filter>
					<sourcetrack>
						<mediatype>audio</mediatype>
						<trackindex>1</trackindex>
					</sourcetrack>
					<link>
						<linkclipref>AA1426_01 </linkclipref>
						<mediatype>video</mediatype>
						<trackindex>1</trackindex>
						<clipindex>101</clipindex>
					</link>
					<link>
						<linkclipref>AA1426_01 3</linkclipref>
						<mediatype>audio</mediatype>
						<trackindex>1</trackindex>
						<clipindex>63</clipindex>
					</link>
					<link>
						<linkclipref>AA1426_01 4</linkclipref>
						<mediatype>audio</mediatype>
						<trackindex>2</trackindex>
						<clipindex>58</clipindex>
					</link>
					<itemhistory>
						<uuid>40D6DB8D-2A2D-426A-95FC-A494D873E7C6</uuid>
					</itemhistory>
				</clipitem>
				<clipitem id="AA1429_01 3">
					<name>AA1429_01</name>
					<duration>648</duration>
					<rate>
						<ntsc>FALSE</ntsc>
						<timebase>25</timebase>
					</rate>
					<in>228</in>
					<out>322</out>
					<start>11188</start>
					<end>11282</end>
					<subframeoffset>0</subframeoffset>
					<masterclipid>AA1429_01 1</masterclipid>
					<logginginfo>
						<scene/>
						<shottake/>
						<lognote/>
						<good>FALSE</good>
					</logginginfo>
					<labels>
						<label2/>
					</labels>
					<comments>
						<mastercomment1/>
						<mastercomment2/>
						<mastercomment3/>
						<mastercomment4/>
					</comments>
					<file id="AA1429_01 2"/>
					<filter>
						<effect>
							<name>Audio Levels</name>
							<effectid>audiolevels</effectid>
							<effectcategory>audiolevels</effectcategory>
							<effecttype>audiolevels</effecttype>
							<mediatype>audio</mediatype>
							<parameter>
								<name>Level</name>
								<parameterid>level</parameterid>
								<valuemin>0</valuemin>
								<valuemax>3.98109</valuemax>
								<value>1</value>
							</parameter>
						</effect>
					</filter>
					<filter>
						<effect>
							<name>Audio Pan</name>
							<effectid>audiopan</effectid>
							<effectcategory>audiopan</effectcategory>
							<effecttype>audiopan</effecttype>
							<mediatype>audio</mediatype>
							<parameter>
								<name>Pan</name>
								<parameterid>pan</parameterid>
								<valuemin>-1</valuemin>
								<valuemax>1</valuemax>
								<value>0</value>
							</parameter>
						</effect>
					</filter>
					<sourcetrack>
						<mediatype>audio</mediatype>
						<trackindex>1</trackindex>
					</sourcetrack>
					<link>
						<linkclipref>AA1429_01 </linkclipref>
						<mediatype>video</mediatype>
						<trackindex>1</trackindex>
						<clipindex>103</clipindex>
					</link>
					<link>
						<linkclipref>AA1429_01 3</linkclipref>
						<mediatype>audio</mediatype>
						<trackindex>1</trackindex>
						<clipindex>64</clipindex>
					</link>
					<link>
						<linkclipref>AA1429_01 4</linkclipref>
						<mediatype>audio</mediatype>
						<trackindex>2</trackindex>
						<clipindex>59</clipindex>
					</link>
					<itemhistory>
						<uuid>B1BBBCD3-0064-4B63-9EC7-D4516AC9E93E</uuid>
					</itemhistory>
				</clipitem>
				<clipitem id="AA1432_01 3">
					<name>AA1432_01</name>
					<duration>408</duration>
					<rate>
						<ntsc>FALSE</ntsc>
						<timebase>25</timebase>
					</rate>
					<in>80</in>
					<out>347</out>
					<start>11282</start>
					<end>11549</end>
					<subframeoffset>0</subframeoffset>
					<masterclipid>AA1432_01 1</masterclipid>
					<logginginfo>
						<scene/>
						<shottake/>
						<lognote/>
						<good>FALSE</good>
					</logginginfo>
					<labels>
						<label2/>
					</labels>
					<comments>
						<mastercomment1/>
						<mastercomment2/>
						<mastercomment3/>
						<mastercomment4/>
					</comments>
					<file id="AA1432_01 2"/>
					<filter>
						<effect>
							<name>Audio Levels</name>
							<effectid>audiolevels</effectid>
							<effectcategory>audiolevels</effectcategory>
							<effecttype>audiolevels</effecttype>
							<mediatype>audio</mediatype>
							<parameter>
								<name>Level</name>
								<parameterid>level</parameterid>
								<valuemin>0</valuemin>
								<valuemax>3.98109</valuemax>
								<value>1</value>
							</parameter>
						</effect>
					</filter>
					<filter>
						<effect>
							<name>Audio Pan</name>
							<effectid>audiopan</effectid>
							<effectcategory>audiopan</effectcategory>
							<effecttype>audiopan</effecttype>
							<mediatype>audio</mediatype>
							<parameter>
								<name>Pan</name>
								<parameterid>pan</parameterid>
								<valuemin>-1</valuemin>
								<valuemax>1</valuemax>
								<value>0</value>
							</parameter>
						</effect>
					</filter>
					<sourcetrack>
						<mediatype>audio</mediatype>
						<trackindex>1</trackindex>
					</sourcetrack>
					<link>
						<linkclipref>AA1432_01 </linkclipref>
						<mediatype>video</mediatype>
						<trackindex>1</trackindex>
						<clipindex>104</clipindex>
					</link>
					<link>
						<linkclipref>AA1432_01 3</linkclipref>
						<mediatype>audio</mediatype>
						<trackindex>1</trackindex>
						<clipindex>65</clipindex>
					</link>
					<link>
						<linkclipref>AA1432_01 4</linkclipref>
						<mediatype>audio</mediatype>
						<trackindex>2</trackindex>
						<clipindex>60</clipindex>
					</link>
					<itemhistory>
						<uuid>6693DABB-82D3-474D-81B9-9209923E5318</uuid>
					</itemhistory>
				</clipitem>
				<clipitem id="AA1427_01 3">
					<name>AA1427_01</name>
					<duration>408</duration>
					<rate>
						<ntsc>FALSE</ntsc>
						<timebase>25</timebase>
					</rate>
					<in>182</in>
					<out>293</out>
					<start>11549</start>
					<end>11660</end>
					<subframeoffset>0</subframeoffset>
					<enabled>TRUE</enabled>
					<masterclipid>AA1427_01 1</masterclipid>
					<logginginfo>
						<scene/>
						<shottake/>
						<lognote/>
						<good>FALSE</good>
					</logginginfo>
					<labels>
						<label2/>
					</labels>
					<comments>
						<mastercomment1/>
						<mastercomment2/>
						<mastercomment3/>
						<mastercomment4/>
					</comments>
					<file id="AA1427_01 2"/>
					<filter>
						<effect>
							<name>Audio Levels</name>
							<effectid>audiolevels</effectid>
							<effectcategory>audiolevels</effectcategory>
							<effecttype>audiolevels</effecttype>
							<mediatype>audio</mediatype>
							<parameter>
								<name>Level</name>
								<parameterid>level</parameterid>
								<valuemin>0</valuemin>
								<valuemax>3.98109</valuemax>
								<value>3.98107</value>
							</parameter>
						</effect>
					</filter>
					<filter>
						<effect>
							<name>Audio Pan</name>
							<effectid>audiopan</effectid>
							<effectcategory>audiopan</effectcategory>
							<effecttype>audiopan</effecttype>
							<mediatype>audio</mediatype>
							<parameter>
								<name>Pan</name>
								<parameterid>pan</parameterid>
								<valuemin>-1</valuemin>
								<valuemax>1</valuemax>
								<value>0</value>
							</parameter>
						</effect>
					</filter>
					<sourcetrack>
						<mediatype>audio</mediatype>
						<trackindex>1</trackindex>
					</sourcetrack>
					<link>
						<linkclipref>AA1427_01 </linkclipref>
						<mediatype>video</mediatype>
						<trackindex>1</trackindex>
						<clipindex>105</clipindex>
					</link>
					<link>
						<linkclipref>AA1427_01 3</linkclipref>
						<mediatype>audio</mediatype>
						<trackindex>1</trackindex>
						<clipindex>66</clipindex>
					</link>
					<link>
						<linkclipref>AA1427_01 4</linkclipref>
						<mediatype>audio</mediatype>
						<trackindex>2</trackindex>
						<clipindex>61</clipindex>
					</link>
					<itemhistory>
						<uuid>CAEC70D0-9CC3-4505-A121-385EDE6EF9B2</uuid>
					</itemhistory>
				</clipitem>
				<clipitem id="AA1435_01 3">
					<name>AA1435_01</name>
					<duration>3048</duration>
					<rate>
						<ntsc>FALSE</ntsc>
						<timebase>25</timebase>
					</rate>
					<in>141</in>
					<out>237</out>
					<start>11660</start>
					<end>11756</end>
					<subframeoffset>0</subframeoffset>
					<masterclipid>AA1435_01 1</masterclipid>
					<logginginfo>
						<scene/>
						<shottake/>
						<lognote/>
						<good>FALSE</good>
					</logginginfo>
					<labels>
						<label2/>
					</labels>
					<comments>
						<mastercomment1/>
						<mastercomment2/>
						<mastercomment3/>
						<mastercomment4/>
					</comments>
					<file id="AA1435_01 2"/>
					<filter>
						<effect>
							<name>Audio Levels</name>
							<effectid>audiolevels</effectid>
							<effectcategory>audiolevels</effectcategory>
							<effecttype>audiolevels</effecttype>
							<mediatype>audio</mediatype>
							<parameter>
								<name>Level</name>
								<parameterid>level</parameterid>
								<valuemin>0</valuemin>
								<valuemax>3.98109</valuemax>
								<value>1</value>
							</parameter>
						</effect>
					</filter>
					<filter>
						<effect>
							<name>Audio Pan</name>
							<effectid>audiopan</effectid>
							<effectcategory>audiopan</effectcategory>
							<effecttype>audiopan</effecttype>
							<mediatype>audio</mediatype>
							<parameter>
								<name>Pan</name>
								<parameterid>pan</parameterid>
								<valuemin>-1</valuemin>
								<valuemax>1</valuemax>
								<value>0</value>
							</parameter>
						</effect>
					</filter>
					<sourcetrack>
						<mediatype>audio</mediatype>
						<trackindex>1</trackindex>
					</sourcetrack>
					<link>
						<linkclipref>AA1435_01 </linkclipref>
						<mediatype>video</mediatype>
						<trackindex>1</trackindex>
						<clipindex>107</clipindex>
					</link>
					<link>
						<linkclipref>AA1435_01 3</linkclipref>
						<mediatype>audio</mediatype>
						<trackindex>1</trackindex>
						<clipindex>67</clipindex>
					</link>
					<link>
						<linkclipref>AA1435_01 4</linkclipref>
						<mediatype>audio</mediatype>
						<trackindex>2</trackindex>
						<clipindex>62</clipindex>
					</link>
					<itemhistory>
						<uuid>B61D0F63-B84F-466A-A647-89C3E9EE2B49</uuid>
					</itemhistory>
				</clipitem>
				<clipitem id="AA1435_01 7">
					<name>AA1435_01</name>
					<duration>3048</duration>
					<rate>
						<ntsc>FALSE</ntsc>
						<timebase>25</timebase>
					</rate>
					<in>229</in>
					<out>461</out>
					<start>11756</start>
					<end>11988</end>
					<subframeoffset>0</subframeoffset>
					<masterclipid>AA1435_01 1</masterclipid>
					<logginginfo>
						<scene/>
						<shottake/>
						<lognote/>
						<good>FALSE</good>
					</logginginfo>
					<labels>
						<label2/>
					</labels>
					<comments>
						<mastercomment1/>
						<mastercomment2/>
						<mastercomment3/>
						<mastercomment4/>
					</comments>
					<file id="AA1435_01 2"/>
					<filter>
						<effect>
							<name>Audio Levels</name>
							<effectid>audiolevels</effectid>
							<effectcategory>audiolevels</effectcategory>
							<effecttype>audiolevels</effecttype>
							<mediatype>audio</mediatype>
							<parameter>
								<name>Level</name>
								<parameterid>level</parameterid>
								<valuemin>0</valuemin>
								<valuemax>3.98109</valuemax>
								<value>1</value>
							</parameter>
						</effect>
					</filter>
					<filter>
						<effect>
							<name>Audio Pan</name>
							<effectid>audiopan</effectid>
							<effectcategory>audiopan</effectcategory>
							<effecttype>audiopan</effecttype>
							<mediatype>audio</mediatype>
							<parameter>
								<name>Pan</name>
								<parameterid>pan</parameterid>
								<valuemin>-1</valuemin>
								<valuemax>1</valuemax>
								<value>0</value>
							</parameter>
						</effect>
					</filter>
					<sourcetrack>
						<mediatype>audio</mediatype>
						<trackindex>1</trackindex>
					</sourcetrack>
					<link>
						<linkclipref>AA1435_01 6</linkclipref>
						<mediatype>video</mediatype>
						<trackindex>1</trackindex>
						<clipindex>109</clipindex>
					</link>
					<link>
						<linkclipref>AA1435_01 7</linkclipref>
						<mediatype>audio</mediatype>
						<trackindex>1</trackindex>
						<clipindex>68</clipindex>
					</link>
					<link>
						<linkclipref>AA1435_01 8</linkclipref>
						<mediatype>audio</mediatype>
						<trackindex>2</trackindex>
						<clipindex>63</clipindex>
					</link>
					<itemhistory>
						<uuid>ADE86715-E152-4B3C-B8FB-2B3DF6B21F81</uuid>
					</itemhistory>
				</clipitem>
				<clipitem id="AA1435_01 10">
					<name>AA1435_01</name>
					<duration>3048</duration>
					<rate>
						<ntsc>FALSE</ntsc>
						<timebase>25</timebase>
					</rate>
					<in>463</in>
					<out>615</out>
					<start>11988</start>
					<end>12140</end>
					<subframeoffset>0</subframeoffset>
					<masterclipid>AA1435_01 1</masterclipid>
					<logginginfo>
						<scene/>
						<shottake/>
						<lognote/>
						<good>FALSE</good>
					</logginginfo>
					<labels>
						<label2/>
					</labels>
					<comments>
						<mastercomment1/>
						<mastercomment2/>
						<mastercomment3/>
						<mastercomment4/>
					</comments>
					<file id="AA1435_01 2"/>
					<filter>
						<effect>
							<name>Audio Levels</name>
							<effectid>audiolevels</effectid>
							<effectcategory>audiolevels</effectcategory>
							<effecttype>audiolevels</effecttype>
							<mediatype>audio</mediatype>
							<parameter>
								<name>Level</name>
								<parameterid>level</parameterid>
								<valuemin>0</valuemin>
								<valuemax>3.98109</valuemax>
								<value>1</value>
							</parameter>
						</effect>
					</filter>
					<filter>
						<effect>
							<name>Audio Pan</name>
							<effectid>audiopan</effectid>
							<effectcategory>audiopan</effectcategory>
							<effecttype>audiopan</effecttype>
							<mediatype>audio</mediatype>
							<parameter>
								<name>Pan</name>
								<parameterid>pan</parameterid>
								<valuemin>-1</valuemin>
								<valuemax>1</valuemax>
								<value>0</value>
							</parameter>
						</effect>
					</filter>
					<sourcetrack>
						<mediatype>audio</mediatype>
						<trackindex>1</trackindex>
					</sourcetrack>
					<link>
						<linkclipref>AA1435_01 9</linkclipref>
						<mediatype>video</mediatype>
						<trackindex>1</trackindex>
						<clipindex>111</clipindex>
					</link>
					<link>
						<linkclipref>AA1435_01 10</linkclipref>
						<mediatype>audio</mediatype>
						<trackindex>1</trackindex>
						<clipindex>69</clipindex>
					</link>
					<link>
						<linkclipref>AA1435_01 11</linkclipref>
						<mediatype>audio</mediatype>
						<trackindex>2</trackindex>
						<clipindex>64</clipindex>
					</link>
					<itemhistory>
						<uuid>AC25D900-E93A-4C5B-B94A-A95C03542256</uuid>
					</itemhistory>
				</clipitem>
				<clipitem id="AA1437_01 4">
					<name>AA1437_01</name>
					<duration>2808</duration>
					<rate>
						<ntsc>FALSE</ntsc>
						<timebase>25</timebase>
					</rate>
					<in>807</in>
					<out>1133</out>
					<start>12140</start>
					<end>12466</end>
					<subframeoffset>0</subframeoffset>
					<masterclipid>AA1437_01 1</masterclipid>
					<logginginfo>
						<scene/>
						<shottake/>
						<lognote/>
						<good>FALSE</good>
					</logginginfo>
					<labels>
						<label2/>
					</labels>
					<comments>
						<mastercomment1/>
						<mastercomment2/>
						<mastercomment3/>
						<mastercomment4/>
					</comments>
					<file id="AA1437_01 2"/>
					<filter>
						<effect>
							<name>Audio Levels</name>
							<effectid>audiolevels</effectid>
							<effectcategory>audiolevels</effectcategory>
							<effecttype>audiolevels</effecttype>
							<mediatype>audio</mediatype>
							<parameter>
								<name>Level</name>
								<parameterid>level</parameterid>
								<valuemin>0</valuemin>
								<valuemax>3.98109</valuemax>
								<value>1</value>
							</parameter>
						</effect>
					</filter>
					<filter>
						<effect>
							<name>Audio Pan</name>
							<effectid>audiopan</effectid>
							<effectcategory>audiopan</effectcategory>
							<effecttype>audiopan</effecttype>
							<mediatype>audio</mediatype>
							<parameter>
								<name>Pan</name>
								<parameterid>pan</parameterid>
								<valuemin>-1</valuemin>
								<valuemax>1</valuemax>
								<value>0</value>
							</parameter>
						</effect>
					</filter>
					<sourcetrack>
						<mediatype>audio</mediatype>
						<trackindex>1</trackindex>
					</sourcetrack>
					<link>
						<linkclipref>AA1437_01 3</linkclipref>
						<mediatype>video</mediatype>
						<trackindex>1</trackindex>
						<clipindex>112</clipindex>
					</link>
					<link>
						<linkclipref>AA1437_01 4</linkclipref>
						<mediatype>audio</mediatype>
						<trackindex>1</trackindex>
						<clipindex>70</clipindex>
					</link>
					<link>
						<linkclipref>AA1437_01 5</linkclipref>
						<mediatype>audio</mediatype>
						<trackindex>2</trackindex>
						<clipindex>65</clipindex>
					</link>
					<itemhistory>
						<uuid>A3812988-230A-4CC5-A198-76910FE4DFCD</uuid>
					</itemhistory>
				</clipitem>
				<clipitem id="AA1435_01 14">
					<name>AA1435_01</name>
					<duration>3048</duration>
					<rate>
						<ntsc>FALSE</ntsc>
						<timebase>25</timebase>
					</rate>
					<in>895</in>
					<out>1229</out>
					<start>12466</start>
					<end>12800</end>
					<subframeoffset>0</subframeoffset>
					<masterclipid>AA1435_01 1</masterclipid>
					<logginginfo>
						<scene/>
						<shottake/>
						<lognote/>
						<good>FALSE</good>
					</logginginfo>
					<labels>
						<label2/>
					</labels>
					<comments>
						<mastercomment1/>
						<mastercomment2/>
						<mastercomment3/>
						<mastercomment4/>
					</comments>
					<file id="AA1435_01 2"/>
					<filter>
						<effect>
							<name>Audio Levels</name>
							<effectid>audiolevels</effectid>
							<effectcategory>audiolevels</effectcategory>
							<effecttype>audiolevels</effecttype>
							<mediatype>audio</mediatype>
							<parameter>
								<name>Level</name>
								<parameterid>level</parameterid>
								<valuemin>0</valuemin>
								<valuemax>3.98109</valuemax>
								<value>1</value>
							</parameter>
						</effect>
					</filter>
					<filter>
						<effect>
							<name>Audio Pan</name>
							<effectid>audiopan</effectid>
							<effectcategory>audiopan</effectcategory>
							<effecttype>audiopan</effecttype>
							<mediatype>audio</mediatype>
							<parameter>
								<name>Pan</name>
								<parameterid>pan</parameterid>
								<valuemin>-1</valuemin>
								<valuemax>1</valuemax>
								<value>0</value>
							</parameter>
						</effect>
					</filter>
					<sourcetrack>
						<mediatype>audio</mediatype>
						<trackindex>1</trackindex>
					</sourcetrack>
					<link>
						<linkclipref>AA1435_01 13</linkclipref>
						<mediatype>video</mediatype>
						<trackindex>1</trackindex>
						<clipindex>115</clipindex>
					</link>
					<link>
						<linkclipref>AA1435_01 14</linkclipref>
						<mediatype>audio</mediatype>
						<trackindex>1</trackindex>
						<clipindex>71</clipindex>
					</link>
					<link>
						<linkclipref>AA1435_01 15</linkclipref>
						<mediatype>audio</mediatype>
						<trackindex>2</trackindex>
						<clipindex>66</clipindex>
					</link>
					<itemhistory>
						<uuid>3C967258-315D-4E19-9D20-0F1F9C35AC5D</uuid>
					</itemhistory>
				</clipitem>
				<clipitem id="AA1435_01 26">
					<name>AA1435_01</name>
					<duration>3048</duration>
					<rate>
						<ntsc>FALSE</ntsc>
						<timebase>25</timebase>
					</rate>
					<in>1251</in>
					<out>1660</out>
					<start>12800</start>
					<end>13209</end>
					<subframeoffset>0</subframeoffset>
					<masterclipid>AA1435_01 1</masterclipid>
					<logginginfo>
						<scene/>
						<shottake/>
						<lognote/>
						<good>FALSE</good>
					</logginginfo>
					<labels>
						<label2/>
					</labels>
					<comments>
						<mastercomment1/>
						<mastercomment2/>
						<mastercomment3/>
						<mastercomment4/>
					</comments>
					<file id="AA1435_01 2"/>
					<filter>
						<effect>
							<name>Audio Levels</name>
							<effectid>audiolevels</effectid>
							<effectcategory>audiolevels</effectcategory>
							<effecttype>audiolevels</effecttype>
							<mediatype>audio</mediatype>
							<parameter>
								<name>Level</name>
								<parameterid>level</parameterid>
								<valuemin>0</valuemin>
								<valuemax>3.98109</valuemax>
								<value>1</value>
							</parameter>
						</effect>
					</filter>
					<filter>
						<effect>
							<name>Audio Pan</name>
							<effectid>audiopan</effectid>
							<effectcategory>audiopan</effectcategory>
							<effecttype>audiopan</effecttype>
							<mediatype>audio</mediatype>
							<parameter>
								<name>Pan</name>
								<parameterid>pan</parameterid>
								<valuemin>-1</valuemin>
								<valuemax>1</valuemax>
								<value>0</value>
							</parameter>
						</effect>
					</filter>
					<sourcetrack>
						<mediatype>audio</mediatype>
						<trackindex>1</trackindex>
					</sourcetrack>
					<link>
						<linkclipref>AA1435_01 26</linkclipref>
						<mediatype>audio</mediatype>
						<trackindex>1</trackindex>
						<clipindex>72</clipindex>
					</link>
					<link>
						<linkclipref>AA1435_01 27</linkclipref>
						<mediatype>audio</mediatype>
						<trackindex>2</trackindex>
						<clipindex>67</clipindex>
					</link>
					<itemhistory>
						<uuid>052BDAB8-7E67-4829-972B-28BBB9DC6702</uuid>
					</itemhistory>
				</clipitem>
				<clipitem id="AA1435_01 19">
					<name>AA1435_01</name>
					<duration>3048</duration>
					<rate>
						<ntsc>FALSE</ntsc>
						<timebase>25</timebase>
					</rate>
					<in>1694</in>
					<out>1829</out>
					<start>13209</start>
					<end>13344</end>
					<subframeoffset>0</subframeoffset>
					<masterclipid>AA1435_01 1</masterclipid>
					<syncoffset>0</syncoffset>
					<logginginfo>
						<scene/>
						<shottake/>
						<lognote/>
						<good>FALSE</good>
					</logginginfo>
					<labels>
						<label2/>
					</labels>
					<comments>
						<mastercomment1/>
						<mastercomment2/>
						<mastercomment3/>
						<mastercomment4/>
					</comments>
					<file id="AA1435_01 2"/>
					<filter>
						<effect>
							<name>Audio Levels</name>
							<effectid>audiolevels</effectid>
							<effectcategory>audiolevels</effectcategory>
							<effecttype>audiolevels</effecttype>
							<mediatype>audio</mediatype>
							<parameter>
								<name>Level</name>
								<parameterid>level</parameterid>
								<valuemin>0</valuemin>
								<valuemax>3.98109</valuemax>
								<value>1</value>
							</parameter>
						</effect>
					</filter>
					<filter>
						<effect>
							<name>Audio Pan</name>
							<effectid>audiopan</effectid>
							<effectcategory>audiopan</effectcategory>
							<effecttype>audiopan</effecttype>
							<mediatype>audio</mediatype>
							<parameter>
								<name>Pan</name>
								<parameterid>pan</parameterid>
								<valuemin>-1</valuemin>
								<valuemax>1</valuemax>
								<value>0</value>
							</parameter>
						</effect>
					</filter>
					<sourcetrack>
						<mediatype>audio</mediatype>
						<trackindex>1</trackindex>
					</sourcetrack>
					<link>
						<linkclipref>AA1435_01 18</linkclipref>
						<mediatype>video</mediatype>
						<trackindex>1</trackindex>
						<clipindex>121</clipindex>
					</link>
					<link>
						<linkclipref>AA1435_01 19</linkclipref>
						<mediatype>audio</mediatype>
						<trackindex>1</trackindex>
						<clipindex>73</clipindex>
					</link>
					<link>
						<linkclipref>AA1435_01 20</linkclipref>
						<mediatype>audio</mediatype>
						<trackindex>2</trackindex>
						<clipindex>68</clipindex>
					</link>
					<itemhistory>
						<uuid>4C1E5AC8-7EC1-48F2-B4C0-D5D6BE412391</uuid>
					</itemhistory>
				</clipitem>
				<clipitem id="AA1437_01 10">
					<name>AA1437_01</name>
					<duration>2808</duration>
					<rate>
						<ntsc>FALSE</ntsc>
						<timebase>25</timebase>
					</rate>
					<in>2088</in>
					<out>2181</out>
					<start>13344</start>
					<end>13437</end>
					<subframeoffset>0</subframeoffset>
					<masterclipid>AA1437_01 1</masterclipid>
					<logginginfo>
						<scene/>
						<shottake/>
						<lognote/>
						<good>FALSE</good>
					</logginginfo>
					<labels>
						<label2/>
					</labels>
					<comments>
						<mastercomment1/>
						<mastercomment2/>
						<mastercomment3/>
						<mastercomment4/>
					</comments>
					<file id="AA1437_01 2"/>
					<filter>
						<effect>
							<name>Audio Levels</name>
							<effectid>audiolevels</effectid>
							<effectcategory>audiolevels</effectcategory>
							<effecttype>audiolevels</effecttype>
							<mediatype>audio</mediatype>
							<parameter>
								<name>Level</name>
								<parameterid>level</parameterid>
								<valuemin>0</valuemin>
								<valuemax>3.98109</valuemax>
								<value>1</value>
							</parameter>
						</effect>
					</filter>
					<filter>
						<effect>
							<name>Audio Pan</name>
							<effectid>audiopan</effectid>
							<effectcategory>audiopan</effectcategory>
							<effecttype>audiopan</effecttype>
							<mediatype>audio</mediatype>
							<parameter>
								<name>Pan</name>
								<parameterid>pan</parameterid>
								<valuemin>-1</valuemin>
								<valuemax>1</valuemax>
								<value>0</value>
							</parameter>
						</effect>
					</filter>
					<sourcetrack>
						<mediatype>audio</mediatype>
						<trackindex>1</trackindex>
					</sourcetrack>
					<link>
						<linkclipref>AA1437_01 9</linkclipref>
						<mediatype>video</mediatype>
						<trackindex>1</trackindex>
						<clipindex>122</clipindex>
					</link>
					<link>
						<linkclipref>AA1437_01 10</linkclipref>
						<mediatype>audio</mediatype>
						<trackindex>1</trackindex>
						<clipindex>74</clipindex>
					</link>
					<link>
						<linkclipref>AA1437_01 11</linkclipref>
						<mediatype>audio</mediatype>
						<trackindex>2</trackindex>
						<clipindex>69</clipindex>
					</link>
					<itemhistory>
						<uuid>276B2768-3C5B-415E-A042-851CA551E751</uuid>
					</itemhistory>
				</clipitem>
				<clipitem id="AA1435_01 22">
					<name>AA1435_01</name>
					<duration>3048</duration>
					<rate>
						<ntsc>FALSE</ntsc>
						<timebase>25</timebase>
					</rate>
					<in>1965</in>
					<out>2363</out>
					<start>13437</start>
					<end>13835</end>
					<subframeoffset>0</subframeoffset>
					<masterclipid>AA1435_01 1</masterclipid>
					<syncoffset>0</syncoffset>
					<logginginfo>
						<scene/>
						<shottake/>
						<lognote/>
						<good>FALSE</good>
					</logginginfo>
					<labels>
						<label2/>
					</labels>
					<comments>
						<mastercomment1/>
						<mastercomment2/>
						<mastercomment3/>
						<mastercomment4/>
					</comments>
					<file id="AA1435_01 2"/>
					<filter>
						<effect>
							<name>Audio Levels</name>
							<effectid>audiolevels</effectid>
							<effectcategory>audiolevels</effectcategory>
							<effecttype>audiolevels</effecttype>
							<mediatype>audio</mediatype>
							<parameter>
								<name>Level</name>
								<parameterid>level</parameterid>
								<valuemin>0</valuemin>
								<valuemax>3.98109</valuemax>
								<value>1</value>
							</parameter>
						</effect>
					</filter>
					<filter>
						<effect>
							<name>Audio Pan</name>
							<effectid>audiopan</effectid>
							<effectcategory>audiopan</effectcategory>
							<effecttype>audiopan</effecttype>
							<mediatype>audio</mediatype>
							<parameter>
								<name>Pan</name>
								<parameterid>pan</parameterid>
								<valuemin>-1</valuemin>
								<valuemax>1</valuemax>
								<value>0</value>
							</parameter>
						</effect>
					</filter>
					<sourcetrack>
						<mediatype>audio</mediatype>
						<trackindex>1</trackindex>
					</sourcetrack>
					<link>
						<linkclipref>AA1435_01 21</linkclipref>
						<mediatype>video</mediatype>
						<trackindex>1</trackindex>
						<clipindex>123</clipindex>
					</link>
					<link>
						<linkclipref>AA1435_01 22</linkclipref>
						<mediatype>audio</mediatype>
						<trackindex>1</trackindex>
						<clipindex>75</clipindex>
					</link>
					<link>
						<linkclipref>AA1435_01 23</linkclipref>
						<mediatype>audio</mediatype>
						<trackindex>2</trackindex>
						<clipindex>70</clipindex>
					</link>
					<itemhistory>
						<uuid>01B201B3-9D35-40D5-AA1D-1B4E843785EB</uuid>
					</itemhistory>
				</clipitem>
				<clipitem id="AA1438_01 3">
					<name>AA1438_01</name>
					<duration>780</duration>
					<rate>
						<ntsc>FALSE</ntsc>
						<timebase>25</timebase>
					</rate>
					<in>169</in>
					<out>267</out>
					<start>13835</start>
					<end>13933</end>
					<subframeoffset>0</subframeoffset>
					<masterclipid>AA1438_01 1</masterclipid>
					<logginginfo>
						<scene/>
						<shottake/>
						<lognote/>
						<good>FALSE</good>
					</logginginfo>
					<labels>
						<label2/>
					</labels>
					<comments>
						<mastercomment1/>
						<mastercomment2/>
						<mastercomment3/>
						<mastercomment4/>
					</comments>
					<file id="AA1438_01 2"/>
					<filter>
						<effect>
							<name>Audio Levels</name>
							<effectid>audiolevels</effectid>
							<effectcategory>audiolevels</effectcategory>
							<effecttype>audiolevels</effecttype>
							<mediatype>audio</mediatype>
							<parameter>
								<name>Level</name>
								<parameterid>level</parameterid>
								<valuemin>0</valuemin>
								<valuemax>3.98109</valuemax>
								<value>1</value>
							</parameter>
						</effect>
					</filter>
					<filter>
						<effect>
							<name>Audio Pan</name>
							<effectid>audiopan</effectid>
							<effectcategory>audiopan</effectcategory>
							<effecttype>audiopan</effecttype>
							<mediatype>audio</mediatype>
							<parameter>
								<name>Pan</name>
								<parameterid>pan</parameterid>
								<valuemin>-1</valuemin>
								<valuemax>1</valuemax>
								<value>0</value>
							</parameter>
						</effect>
					</filter>
					<sourcetrack>
						<mediatype>audio</mediatype>
						<trackindex>1</trackindex>
					</sourcetrack>
					<link>
						<linkclipref>AA1438_01 </linkclipref>
						<mediatype>video</mediatype>
						<trackindex>1</trackindex>
						<clipindex>128</clipindex>
					</link>
					<link>
						<linkclipref>AA1438_01 3</linkclipref>
						<mediatype>audio</mediatype>
						<trackindex>1</trackindex>
						<clipindex>76</clipindex>
					</link>
					<link>
						<linkclipref>AA1438_01 4</linkclipref>
						<mediatype>audio</mediatype>
						<trackindex>2</trackindex>
						<clipindex>71</clipindex>
					</link>
					<itemhistory>
						<uuid>48353311-6DD1-4008-A92E-4E4ABC668E3B</uuid>
					</itemhistory>
				</clipitem>
				<clipitem id="AA1435_01 28">
					<name>AA1435_01</name>
					<duration>3048</duration>
					<rate>
						<ntsc>FALSE</ntsc>
						<timebase>25</timebase>
					</rate>
					<in>2457</in>
					<out>2470</out>
					<start>13933</start>
					<end>13946</end>
					<subframeoffset>0</subframeoffset>
					<masterclipid>AA1435_01 1</masterclipid>
					<logginginfo>
						<scene/>
						<shottake/>
						<lognote/>
						<good>FALSE</good>
					</logginginfo>
					<labels>
						<label2/>
					</labels>
					<comments>
						<mastercomment1/>
						<mastercomment2/>
						<mastercomment3/>
						<mastercomment4/>
					</comments>
					<file id="AA1435_01 2"/>
					<filter>
						<effect>
							<name>Audio Levels</name>
							<effectid>audiolevels</effectid>
							<effectcategory>audiolevels</effectcategory>
							<effecttype>audiolevels</effecttype>
							<mediatype>audio</mediatype>
							<parameter>
								<name>Level</name>
								<parameterid>level</parameterid>
								<valuemin>0</valuemin>
								<valuemax>3.98109</valuemax>
								<value>1</value>
							</parameter>
						</effect>
					</filter>
					<filter>
						<effect>
							<name>Audio Pan</name>
							<effectid>audiopan</effectid>
							<effectcategory>audiopan</effectcategory>
							<effecttype>audiopan</effecttype>
							<mediatype>audio</mediatype>
							<parameter>
								<name>Pan</name>
								<parameterid>pan</parameterid>
								<valuemin>-1</valuemin>
								<valuemax>1</valuemax>
								<value>0</value>
							</parameter>
						</effect>
					</filter>
					<sourcetrack>
						<mediatype>audio</mediatype>
						<trackindex>1</trackindex>
					</sourcetrack>
					<itemhistory>
						<uuid>8CF5A9B6-C7EC-46B0-8043-70760897B956</uuid>
					</itemhistory>
				</clipitem>
				<clipitem id="AA1439_01 3">
					<name>AA1439_01</name>
					<duration>1080</duration>
					<rate>
						<ntsc>FALSE</ntsc>
						<timebase>25</timebase>
					</rate>
					<in>533</in>
					<out>954</out>
					<start>13946</start>
					<end>14367</end>
					<subframeoffset>0</subframeoffset>
					<masterclipid>AA1439_01 1</masterclipid>
					<logginginfo>
						<scene/>
						<shottake/>
						<lognote/>
						<good>FALSE</good>
					</logginginfo>
					<labels>
						<label2/>
					</labels>
					<comments>
						<mastercomment1/>
						<mastercomment2/>
						<mastercomment3/>
						<mastercomment4/>
					</comments>
					<file id="AA1439_01 2"/>
					<filter>
						<effect>
							<name>Audio Levels</name>
							<effectid>audiolevels</effectid>
							<effectcategory>audiolevels</effectcategory>
							<effecttype>audiolevels</effecttype>
							<mediatype>audio</mediatype>
							<parameter>
								<name>Level</name>
								<parameterid>level</parameterid>
								<valuemin>0</valuemin>
								<valuemax>3.98109</valuemax>
								<value>1</value>
							</parameter>
						</effect>
					</filter>
					<filter>
						<effect>
							<name>Audio Pan</name>
							<effectid>audiopan</effectid>
							<effectcategory>audiopan</effectcategory>
							<effecttype>audiopan</effecttype>
							<mediatype>audio</mediatype>
							<parameter>
								<name>Pan</name>
								<parameterid>pan</parameterid>
								<valuemin>-1</valuemin>
								<valuemax>1</valuemax>
								<value>0</value>
							</parameter>
						</effect>
					</filter>
					<sourcetrack>
						<mediatype>audio</mediatype>
						<trackindex>1</trackindex>
					</sourcetrack>
					<link>
						<linkclipref>AA1439_01 </linkclipref>
						<mediatype>video</mediatype>
						<trackindex>1</trackindex>
						<clipindex>129</clipindex>
					</link>
					<link>
						<linkclipref>AA1439_01 3</linkclipref>
						<mediatype>audio</mediatype>
						<trackindex>1</trackindex>
						<clipindex>78</clipindex>
					</link>
					<link>
						<linkclipref>AA1439_01 4</linkclipref>
						<mediatype>audio</mediatype>
						<trackindex>2</trackindex>
						<clipindex>73</clipindex>
					</link>
					<itemhistory>
						<uuid>F7939C5B-59DB-442E-9794-55597687D598</uuid>
					</itemhistory>
				</clipitem>
				<clipitem id="Tords Garasje Vignett Bare Effektlyder.wav">
					<name>Tords Garasje Vignett Bare Effektlyder.wav</name>
					<duration>304</duration>
					<rate>
						<ntsc>FALSE</ntsc>
						<timebase>25</timebase>
					</rate>
					<in>0</in>
					<out>164</out>
					<start>14367</start>
					<end>14531</end>
					<subframeoffset>0</subframeoffset>
					<enabled>TRUE</enabled>
					<masterclipid>Tords Garasje Vignett Bare Effektlyder.wav1</masterclipid>
					<logginginfo>
						<scene/>
						<shottake/>
						<lognote/>
						<good>FALSE</good>
					</logginginfo>
					<labels>
						<label2/>
					</labels>
					<comments>
						<mastercomment1/>
						<mastercomment2/>
						<mastercomment3/>
						<mastercomment4/>
					</comments>
					<file id="Tords Garasje Vignett Bare Effektlyder">
						<name>Tords Garasje Vignett Bare Effektlyder.wav</name>
						<pathurl>file://localhost/Volumes/Askepott/Prosjekter/DNPR637010_Kra%CC%8Akeklubben_TEM_011212/LYD/Nedmiks%20Alle/Vignetter%20og%20Bumpere%20Diverse/Tords%20Garasje%20Vignett%20Bare%20Effektlyder.wav</pathurl>
						<rate>
							<timebase>25</timebase>
						</rate>
						<duration>304</duration>
						<timecode>
							<rate>
								<timebase>25</timebase>
							</rate>
							<string>00:00:51:06</string>
							<frame>1281</frame>
							<displayformat>NDF</displayformat>
							<source>source</source>
						</timecode>
						<media>
							<audio>
								<samplecharacteristics>
									<samplerate>48000</samplerate>
									<depth>24</depth>
								</samplecharacteristics>
								<channelcount>2</channelcount>
							</audio>
						</media>
					</file>
					<filter>
						<effect>
							<name>Audio Levels</name>
							<effectid>audiolevels</effectid>
							<effectcategory>audiolevels</effectcategory>
							<effecttype>audiolevels</effecttype>
							<mediatype>audio</mediatype>
							<parameter>
								<name>Level</name>
								<parameterid>level</parameterid>
								<valuemin>0</valuemin>
								<valuemax>3.98109</valuemax>
								<value>1</value>
							</parameter>
						</effect>
					</filter>
					<filter>
						<effect>
							<name>Audio Pan</name>
							<effectid>audiopan</effectid>
							<effectcategory>audiopan</effectcategory>
							<effecttype>audiopan</effecttype>
							<mediatype>audio</mediatype>
							<parameter>
								<name>Pan</name>
								<parameterid>pan</parameterid>
								<valuemin>-1</valuemin>
								<valuemax>1</valuemax>
								<value>-1</value>
							</parameter>
						</effect>
					</filter>
					<sourcetrack>
						<mediatype>audio</mediatype>
						<trackindex>1</trackindex>
					</sourcetrack>
					<link>
						<linkclipref>Tords Garasje Vignett Bare Effektlyder.wav</linkclipref>
						<mediatype>audio</mediatype>
						<trackindex>1</trackindex>
						<clipindex>79</clipindex>
						<groupindex>1</groupindex>
					</link>
					<link>
						<linkclipref>Tords Garasje Vignett Bare Effektlyder.wav2</linkclipref>
						<mediatype>audio</mediatype>
						<trackindex>2</trackindex>
						<clipindex>74</clipindex>
						<groupindex>1</groupindex>
					</link>
					<itemhistory>
						<uuid>635080BB-3610-448C-A555-DF85AE4D8B42</uuid>
					</itemhistory>
				</clipitem>
				<clipitem id="DYR19725_01 3">
					<name>DYR19725_01</name>
					<duration>2183</duration>
					<rate>
						<ntsc>FALSE</ntsc>
						<timebase>25</timebase>
					</rate>
					<in>1045</in>
					<out>1266</out>
					<start>14582</start>
					<end>14803</end>
					<masterclipid>DYR19725_01 1</masterclipid>
					<logginginfo>
						<scene/>
						<shottake/>
						<lognote/>
						<good>FALSE</good>
					</logginginfo>
					<labels>
						<label2/>
					</labels>
					<comments>
						<mastercomment1/>
						<mastercomment2/>
						<mastercomment3/>
						<mastercomment4/>
					</comments>
					<file id="DYR19725_01 2"/>
					<filter>
						<effect>
							<name>Audio Levels</name>
							<effectid>audiolevels</effectid>
							<effectcategory>audiolevels</effectcategory>
							<effecttype>audiolevels</effecttype>
							<mediatype>audio</mediatype>
							<parameter>
								<name>Level</name>
								<parameterid>level</parameterid>
								<valuemin>0</valuemin>
								<valuemax>3.98109</valuemax>
								<value>2.51189</value>
							</parameter>
						</effect>
					</filter>
					<filter>
						<effect>
							<name>Audio Pan</name>
							<effectid>audiopan</effectid>
							<effectcategory>audiopan</effectcategory>
							<effecttype>audiopan</effecttype>
							<mediatype>audio</mediatype>
							<parameter>
								<name>Pan</name>
								<parameterid>pan</parameterid>
								<valuemin>-1</valuemin>
								<valuemax>1</valuemax>
								<value>0</value>
							</parameter>
						</effect>
					</filter>
					<sourcetrack>
						<mediatype>audio</mediatype>
						<trackindex>1</trackindex>
					</sourcetrack>
					<link>
						<linkclipref>DYR19725_01 </linkclipref>
						<mediatype>video</mediatype>
						<trackindex>1</trackindex>
						<clipindex>133</clipindex>
					</link>
					<link>
						<linkclipref>DYR19725_01 3</linkclipref>
						<mediatype>audio</mediatype>
						<trackindex>1</trackindex>
						<clipindex>80</clipindex>
					</link>
					<link>
						<linkclipref>DYR19725_01 4</linkclipref>
						<mediatype>audio</mediatype>
						<trackindex>2</trackindex>
						<clipindex>75</clipindex>
					</link>
					<itemhistory>
						<uuid>5BE2994C-DFD4-4679-8D5C-39EB7D2C745C</uuid>
					</itemhistory>
				</clipitem>
				<clipitem id="DYR19728_01 3">
					<name>DYR19728_01</name>
					<duration>2140</duration>
					<rate>
						<ntsc>FALSE</ntsc>
						<timebase>25</timebase>
					</rate>
					<in>292</in>
					<out>430</out>
					<start>14803</start>
					<end>14941</end>
					<masterclipid>DYR19728_01 1</masterclipid>
					<logginginfo>
						<scene/>
						<shottake/>
						<lognote/>
						<good>FALSE</good>
					</logginginfo>
					<labels>
						<label2/>
					</labels>
					<comments>
						<mastercomment1/>
						<mastercomment2/>
						<mastercomment3/>
						<mastercomment4/>
					</comments>
					<file id="DYR19728_01 2"/>
					<filter>
						<effect>
							<name>Audio Levels</name>
							<effectid>audiolevels</effectid>
							<effectcategory>audiolevels</effectcategory>
							<effecttype>audiolevels</effecttype>
							<mediatype>audio</mediatype>
							<parameter>
								<name>Level</name>
								<parameterid>level</parameterid>
								<valuemin>0</valuemin>
								<valuemax>3.98109</valuemax>
								<value>1.99526</value>
							</parameter>
						</effect>
					</filter>
					<filter>
						<effect>
							<name>Audio Pan</name>
							<effectid>audiopan</effectid>
							<effectcategory>audiopan</effectcategory>
							<effecttype>audiopan</effecttype>
							<mediatype>audio</mediatype>
							<parameter>
								<name>Pan</name>
								<parameterid>pan</parameterid>
								<valuemin>-1</valuemin>
								<valuemax>1</valuemax>
								<value>0</value>
							</parameter>
						</effect>
					</filter>
					<sourcetrack>
						<mediatype>audio</mediatype>
						<trackindex>1</trackindex>
					</sourcetrack>
					<link>
						<linkclipref>DYR19728_01 </linkclipref>
						<mediatype>video</mediatype>
						<trackindex>1</trackindex>
						<clipindex>134</clipindex>
					</link>
					<link>
						<linkclipref>DYR19728_01 3</linkclipref>
						<mediatype>audio</mediatype>
						<trackindex>1</trackindex>
						<clipindex>81</clipindex>
					</link>
					<link>
						<linkclipref>DYR19728_01 4</linkclipref>
						<mediatype>audio</mediatype>
						<trackindex>2</trackindex>
						<clipindex>76</clipindex>
					</link>
					<itemhistory>
						<uuid>C11C70CB-F4E3-44E1-99AF-543CDACC6D81</uuid>
					</itemhistory>
				</clipitem>
				<clipitem id="MVI_6470 3">
					<name>MVI_6470</name>
					<duration>534</duration>
					<rate>
						<ntsc>FALSE</ntsc>
						<timebase>25</timebase>
					</rate>
					<in>215</in>
					<out>285</out>
					<start>14941</start>
					<end>15011</end>
					<masterclipid>MVI_6470 1</masterclipid>
					<logginginfo>
						<scene/>
						<shottake/>
						<lognote/>
						<good>FALSE</good>
					</logginginfo>
					<labels>
						<label2/>
					</labels>
					<comments>
						<mastercomment1/>
						<mastercomment2/>
						<mastercomment3/>
						<mastercomment4/>
					</comments>
					<file id="MVI_6470 2"/>
					<filter>
						<effect>
							<name>Audio Levels</name>
							<effectid>audiolevels</effectid>
							<effectcategory>audiolevels</effectcategory>
							<effecttype>audiolevels</effecttype>
							<mediatype>audio</mediatype>
							<parameter>
								<name>Level</name>
								<parameterid>level</parameterid>
								<valuemin>0</valuemin>
								<valuemax>3.98109</valuemax>
								<value>0</value>
							</parameter>
						</effect>
					</filter>
					<filter>
						<effect>
							<name>Audio Pan</name>
							<effectid>audiopan</effectid>
							<effectcategory>audiopan</effectcategory>
							<effecttype>audiopan</effecttype>
							<mediatype>audio</mediatype>
							<parameter>
								<name>Pan</name>
								<parameterid>pan</parameterid>
								<valuemin>-1</valuemin>
								<valuemax>1</valuemax>
								<value>-1</value>
							</parameter>
						</effect>
					</filter>
					<sourcetrack>
						<mediatype>audio</mediatype>
						<trackindex>1</trackindex>
					</sourcetrack>
					<link>
						<linkclipref>MVI_6470 </linkclipref>
						<mediatype>video</mediatype>
						<trackindex>1</trackindex>
						<clipindex>136</clipindex>
					</link>
					<link>
						<linkclipref>MVI_6470 3</linkclipref>
						<mediatype>audio</mediatype>
						<trackindex>1</trackindex>
						<clipindex>82</clipindex>
						<groupindex>1</groupindex>
					</link>
					<link>
						<linkclipref>MVI_6470 4</linkclipref>
						<mediatype>audio</mediatype>
						<trackindex>2</trackindex>
						<clipindex>77</clipindex>
						<groupindex>1</groupindex>
					</link>
					<itemhistory>
						<uuid>505511F3-AD05-402D-B06E-32595658A0E8</uuid>
					</itemhistory>
				</clipitem>
				<clipitem id="MVI_6473 3">
					<name>MVI_6473</name>
					<duration>903</duration>
					<rate>
						<ntsc>FALSE</ntsc>
						<timebase>25</timebase>
					</rate>
					<in>293</in>
					<out>358</out>
					<start>15011</start>
					<end>15076</end>
					<masterclipid>MVI_6473 1</masterclipid>
					<logginginfo>
						<scene/>
						<shottake/>
						<lognote/>
						<good>FALSE</good>
					</logginginfo>
					<labels>
						<label2/>
					</labels>
					<comments>
						<mastercomment1/>
						<mastercomment2/>
						<mastercomment3/>
						<mastercomment4/>
					</comments>
					<file id="MVI_6473 2"/>
					<filter>
						<effect>
							<name>Audio Levels</name>
							<effectid>audiolevels</effectid>
							<effectcategory>audiolevels</effectcategory>
							<effecttype>audiolevels</effecttype>
							<mediatype>audio</mediatype>
							<parameter>
								<name>Level</name>
								<parameterid>level</parameterid>
								<valuemin>0</valuemin>
								<valuemax>3.98109</valuemax>
								<value>0</value>
							</parameter>
						</effect>
					</filter>
					<filter>
						<effect>
							<name>Audio Pan</name>
							<effectid>audiopan</effectid>
							<effectcategory>audiopan</effectcategory>
							<effecttype>audiopan</effecttype>
							<mediatype>audio</mediatype>
							<parameter>
								<name>Pan</name>
								<parameterid>pan</parameterid>
								<valuemin>-1</valuemin>
								<valuemax>1</valuemax>
								<value>-1</value>
							</parameter>
						</effect>
					</filter>
					<sourcetrack>
						<mediatype>audio</mediatype>
						<trackindex>1</trackindex>
					</sourcetrack>
					<link>
						<linkclipref>MVI_6473 </linkclipref>
						<mediatype>video</mediatype>
						<trackindex>1</trackindex>
						<clipindex>138</clipindex>
					</link>
					<link>
						<linkclipref>MVI_6473 3</linkclipref>
						<mediatype>audio</mediatype>
						<trackindex>1</trackindex>
						<clipindex>83</clipindex>
						<groupindex>1</groupindex>
					</link>
					<link>
						<linkclipref>MVI_6473 4</linkclipref>
						<mediatype>audio</mediatype>
						<trackindex>2</trackindex>
						<clipindex>78</clipindex>
						<groupindex>1</groupindex>
					</link>
					<itemhistory>
						<uuid>925BCD73-CECA-48C6-8632-C15F5E8640F8</uuid>
					</itemhistory>
				</clipitem>
				<clipitem id="MVI_6481 3">
					<name>MVI_6481</name>
					<duration>483</duration>
					<rate>
						<ntsc>FALSE</ntsc>
						<timebase>25</timebase>
					</rate>
					<in>305</in>
					<out>397</out>
					<start>15076</start>
					<end>15168</end>
					<masterclipid>MVI_6481 1</masterclipid>
					<logginginfo>
						<scene/>
						<shottake/>
						<lognote/>
						<good>FALSE</good>
					</logginginfo>
					<labels>
						<label2/>
					</labels>
					<comments>
						<mastercomment1/>
						<mastercomment2/>
						<mastercomment3/>
						<mastercomment4/>
					</comments>
					<file id="MVI_6481 2"/>
					<filter>
						<effect>
							<name>Audio Levels</name>
							<effectid>audiolevels</effectid>
							<effectcategory>audiolevels</effectcategory>
							<effecttype>audiolevels</effecttype>
							<mediatype>audio</mediatype>
							<parameter>
								<name>Level</name>
								<parameterid>level</parameterid>
								<valuemin>0</valuemin>
								<valuemax>3.98109</valuemax>
								<value>0</value>
							</parameter>
						</effect>
					</filter>
					<filter>
						<effect>
							<name>Audio Pan</name>
							<effectid>audiopan</effectid>
							<effectcategory>audiopan</effectcategory>
							<effecttype>audiopan</effecttype>
							<mediatype>audio</mediatype>
							<parameter>
								<name>Pan</name>
								<parameterid>pan</parameterid>
								<valuemin>-1</valuemin>
								<valuemax>1</valuemax>
								<value>-1</value>
							</parameter>
						</effect>
					</filter>
					<sourcetrack>
						<mediatype>audio</mediatype>
						<trackindex>1</trackindex>
					</sourcetrack>
					<link>
						<linkclipref>MVI_6481 </linkclipref>
						<mediatype>video</mediatype>
						<trackindex>1</trackindex>
						<clipindex>140</clipindex>
					</link>
					<link>
						<linkclipref>MVI_6481 3</linkclipref>
						<mediatype>audio</mediatype>
						<trackindex>1</trackindex>
						<clipindex>84</clipindex>
						<groupindex>1</groupindex>
					</link>
					<link>
						<linkclipref>MVI_6481 4</linkclipref>
						<mediatype>audio</mediatype>
						<trackindex>2</trackindex>
						<clipindex>79</clipindex>
						<groupindex>1</groupindex>
					</link>
					<itemhistory>
						<uuid>8B3DE14D-6BDC-43E1-9BE9-EF8916563FD5</uuid>
					</itemhistory>
				</clipitem>
				<clipitem id="DYR19738_01 8">
					<name>DYR19738_01</name>
					<duration>946</duration>
					<rate>
						<ntsc>FALSE</ntsc>
						<timebase>25</timebase>
					</rate>
					<in>303</in>
					<out>357</out>
					<start>15168</start>
					<end>15222</end>
					<subframeoffset>0</subframeoffset>
					<masterclipid>DYR19738_01 1</masterclipid>
					<logginginfo>
						<scene/>
						<shottake/>
						<lognote/>
						<good>FALSE</good>
					</logginginfo>
					<labels>
						<label2/>
					</labels>
					<comments>
						<mastercomment1/>
						<mastercomment2/>
						<mastercomment3/>
						<mastercomment4/>
					</comments>
					<file id="DYR19738_01 2"/>
					<filter>
						<effect>
							<name>Audio Levels</name>
							<effectid>audiolevels</effectid>
							<effectcategory>audiolevels</effectcategory>
							<effecttype>audiolevels</effecttype>
							<mediatype>audio</mediatype>
							<parameter>
								<name>Level</name>
								<parameterid>level</parameterid>
								<valuemin>0</valuemin>
								<valuemax>3.98109</valuemax>
								<value>1.58489</value>
							</parameter>
						</effect>
					</filter>
					<filter>
						<effect>
							<name>Audio Pan</name>
							<effectid>audiopan</effectid>
							<effectcategory>audiopan</effectcategory>
							<effecttype>audiopan</effecttype>
							<mediatype>audio</mediatype>
							<parameter>
								<name>Pan</name>
								<parameterid>pan</parameterid>
								<valuemin>-1</valuemin>
								<valuemax>1</valuemax>
								<value>0</value>
							</parameter>
						</effect>
					</filter>
					<sourcetrack>
						<mediatype>audio</mediatype>
						<trackindex>1</trackindex>
					</sourcetrack>
					<itemhistory>
						<uuid>38D825C2-AF8A-4B58-8196-33400610B794</uuid>
					</itemhistory>
				</clipitem>
				<clipitem id="DYR19738_01 3">
					<name>DYR19738_01</name>
					<duration>946</duration>
					<rate>
						<ntsc>FALSE</ntsc>
						<timebase>25</timebase>
					</rate>
					<in>370</in>
					<out>564</out>
					<start>15222</start>
					<end>15416</end>
					<subframeoffset>0</subframeoffset>
					<masterclipid>DYR19738_01 1</masterclipid>
					<logginginfo>
						<scene/>
						<shottake/>
						<lognote/>
						<good>FALSE</good>
					</logginginfo>
					<labels>
						<label2/>
					</labels>
					<comments>
						<mastercomment1/>
						<mastercomment2/>
						<mastercomment3/>
						<mastercomment4/>
					</comments>
					<file id="DYR19738_01 2"/>
					<filter>
						<effect>
							<name>Audio Levels</name>
							<effectid>audiolevels</effectid>
							<effectcategory>audiolevels</effectcategory>
							<effecttype>audiolevels</effecttype>
							<mediatype>audio</mediatype>
							<parameter>
								<name>Level</name>
								<parameterid>level</parameterid>
								<valuemin>0</valuemin>
								<valuemax>3.98109</valuemax>
								<value>1.58489</value>
							</parameter>
						</effect>
					</filter>
					<filter>
						<effect>
							<name>Audio Pan</name>
							<effectid>audiopan</effectid>
							<effectcategory>audiopan</effectcategory>
							<effecttype>audiopan</effecttype>
							<mediatype>audio</mediatype>
							<parameter>
								<name>Pan</name>
								<parameterid>pan</parameterid>
								<valuemin>-1</valuemin>
								<valuemax>1</valuemax>
								<value>0</value>
							</parameter>
						</effect>
					</filter>
					<sourcetrack>
						<mediatype>audio</mediatype>
						<trackindex>1</trackindex>
					</sourcetrack>
					<link>
						<linkclipref>DYR19738_01 </linkclipref>
						<mediatype>video</mediatype>
						<trackindex>1</trackindex>
						<clipindex>143</clipindex>
					</link>
					<link>
						<linkclipref>DYR19738_01 3</linkclipref>
						<mediatype>audio</mediatype>
						<trackindex>1</trackindex>
						<clipindex>86</clipindex>
					</link>
					<link>
						<linkclipref>DYR19738_01 4</linkclipref>
						<mediatype>audio</mediatype>
						<trackindex>2</trackindex>
						<clipindex>81</clipindex>
					</link>
					<itemhistory>
						<uuid>B9184827-6EEA-4667-BD7A-958E1AC89C12</uuid>
					</itemhistory>
				</clipitem>
				<clipitem id="DYR19738_01 6">
					<name>DYR19738_01</name>
					<duration>946</duration>
					<rate>
						<ntsc>FALSE</ntsc>
						<timebase>25</timebase>
					</rate>
					<in>583</in>
					<out>710</out>
					<start>15416</start>
					<end>15543</end>
					<subframeoffset>0</subframeoffset>
					<masterclipid>DYR19738_01 1</masterclipid>
					<logginginfo>
						<scene/>
						<shottake/>
						<lognote/>
						<good>FALSE</good>
					</logginginfo>
					<labels>
						<label2/>
					</labels>
					<comments>
						<mastercomment1/>
						<mastercomment2/>
						<mastercomment3/>
						<mastercomment4/>
					</comments>
					<file id="DYR19738_01 2"/>
					<filter>
						<effect>
							<name>Audio Levels</name>
							<effectid>audiolevels</effectid>
							<effectcategory>audiolevels</effectcategory>
							<effecttype>audiolevels</effecttype>
							<mediatype>audio</mediatype>
							<parameter>
								<name>Level</name>
								<parameterid>level</parameterid>
								<valuemin>0</valuemin>
								<valuemax>3.98109</valuemax>
								<value>1.58489</value>
							</parameter>
						</effect>
					</filter>
					<filter>
						<effect>
							<name>Audio Pan</name>
							<effectid>audiopan</effectid>
							<effectcategory>audiopan</effectcategory>
							<effecttype>audiopan</effecttype>
							<mediatype>audio</mediatype>
							<parameter>
								<name>Pan</name>
								<parameterid>pan</parameterid>
								<valuemin>-1</valuemin>
								<valuemax>1</valuemax>
								<value>0</value>
							</parameter>
						</effect>
					</filter>
					<sourcetrack>
						<mediatype>audio</mediatype>
						<trackindex>1</trackindex>
					</sourcetrack>
					<link>
						<linkclipref>DYR19738_01 5</linkclipref>
						<mediatype>video</mediatype>
						<trackindex>1</trackindex>
						<clipindex>144</clipindex>
					</link>
					<link>
						<linkclipref>DYR19738_01 6</linkclipref>
						<mediatype>audio</mediatype>
						<trackindex>1</trackindex>
						<clipindex>87</clipindex>
					</link>
					<link>
						<linkclipref>DYR19738_01 7</linkclipref>
						<mediatype>audio</mediatype>
						<trackindex>2</trackindex>
						<clipindex>82</clipindex>
					</link>
					<itemhistory>
						<uuid>9B18D202-EEB4-45D3-92B1-3D3B9CE014CF</uuid>
					</itemhistory>
				</clipitem>
				<clipitem id="DYR19725_01 6">
					<name>DYR19725_01</name>
					<duration>2183</duration>
					<rate>
						<ntsc>FALSE</ntsc>
						<timebase>25</timebase>
					</rate>
					<in>1928</in>
					<out>2041</out>
					<start>15543</start>
					<end>15656</end>
					<masterclipid>DYR19725_01 1</masterclipid>
					<logginginfo>
						<scene/>
						<shottake/>
						<lognote/>
						<good>FALSE</good>
					</logginginfo>
					<labels>
						<label2/>
					</labels>
					<comments>
						<mastercomment1/>
						<mastercomment2/>
						<mastercomment3/>
						<mastercomment4/>
					</comments>
					<file id="DYR19725_01 2"/>
					<filter>
						<effect>
							<name>Audio Levels</name>
							<effectid>audiolevels</effectid>
							<effectcategory>audiolevels</effectcategory>
							<effecttype>audiolevels</effecttype>
							<mediatype>audio</mediatype>
							<parameter>
								<name>Level</name>
								<parameterid>level</parameterid>
								<valuemin>0</valuemin>
								<valuemax>3.98109</valuemax>
								<value>2.51189</value>
							</parameter>
						</effect>
					</filter>
					<filter>
						<effect>
							<name>Audio Pan</name>
							<effectid>audiopan</effectid>
							<effectcategory>audiopan</effectcategory>
							<effecttype>audiopan</effecttype>
							<mediatype>audio</mediatype>
							<parameter>
								<name>Pan</name>
								<parameterid>pan</parameterid>
								<valuemin>-1</valuemin>
								<valuemax>1</valuemax>
								<value>0</value>
							</parameter>
						</effect>
					</filter>
					<sourcetrack>
						<mediatype>audio</mediatype>
						<trackindex>1</trackindex>
					</sourcetrack>
					<link>
						<linkclipref>DYR19725_01 5</linkclipref>
						<mediatype>video</mediatype>
						<trackindex>1</trackindex>
						<clipindex>147</clipindex>
					</link>
					<link>
						<linkclipref>DYR19725_01 6</linkclipref>
						<mediatype>audio</mediatype>
						<trackindex>1</trackindex>
						<clipindex>88</clipindex>
					</link>
					<link>
						<linkclipref>DYR19725_01 7</linkclipref>
						<mediatype>audio</mediatype>
						<trackindex>2</trackindex>
						<clipindex>83</clipindex>
					</link>
					<itemhistory>
						<uuid>EB7CDF54-6A4E-4D21-B87A-B55EE11D8272</uuid>
					</itemhistory>
				</clipitem>
				<clipitem id="DYR19729_01 6">
					<name>DYR19729_01</name>
					<duration>589</duration>
					<rate>
						<ntsc>FALSE</ntsc>
						<timebase>25</timebase>
					</rate>
					<in>329</in>
					<out>414</out>
					<start>15741</start>
					<end>15826</end>
					<masterclipid>DYR19729_01 1</masterclipid>
					<logginginfo>
						<scene/>
						<shottake/>
						<lognote/>
						<good>FALSE</good>
					</logginginfo>
					<labels>
						<label2/>
					</labels>
					<comments>
						<mastercomment1/>
						<mastercomment2/>
						<mastercomment3/>
						<mastercomment4/>
					</comments>
					<file id="DYR19729_01 2"/>
					<filter>
						<effect>
							<name>Audio Levels</name>
							<effectid>audiolevels</effectid>
							<effectcategory>audiolevels</effectcategory>
							<effecttype>audiolevels</effecttype>
							<mediatype>audio</mediatype>
							<parameter>
								<name>Level</name>
								<parameterid>level</parameterid>
								<valuemin>0</valuemin>
								<valuemax>3.98109</valuemax>
								<value>2.51189</value>
							</parameter>
						</effect>
					</filter>
					<filter>
						<effect>
							<name>Audio Pan</name>
							<effectid>audiopan</effectid>
							<effectcategory>audiopan</effectcategory>
							<effecttype>audiopan</effecttype>
							<mediatype>audio</mediatype>
							<parameter>
								<name>Pan</name>
								<parameterid>pan</parameterid>
								<valuemin>-1</valuemin>
								<valuemax>1</valuemax>
								<value>0</value>
							</parameter>
						</effect>
					</filter>
					<sourcetrack>
						<mediatype>audio</mediatype>
						<trackindex>1</trackindex>
					</sourcetrack>
					<link>
						<linkclipref>DYR19729_01 5</linkclipref>
						<mediatype>video</mediatype>
						<trackindex>1</trackindex>
						<clipindex>150</clipindex>
					</link>
					<link>
						<linkclipref>DYR19729_01 6</linkclipref>
						<mediatype>audio</mediatype>
						<trackindex>1</trackindex>
						<clipindex>89</clipindex>
					</link>
					<link>
						<linkclipref>DYR19729_01 7</linkclipref>
						<mediatype>audio</mediatype>
						<trackindex>2</trackindex>
						<clipindex>84</clipindex>
					</link>
					<itemhistory>
						<uuid>CF1CFCE0-4C7A-4019-BA7A-279F195EE71C</uuid>
					</itemhistory>
				</clipitem>
				<clipitem id="DYR19730_01 3">
					<name>DYR19730_01</name>
					<duration>2083</duration>
					<rate>
						<ntsc>FALSE</ntsc>
						<timebase>25</timebase>
					</rate>
					<in>1099</in>
					<out>1197</out>
					<start>15826</start>
					<end>15924</end>
					<masterclipid>DYR19730_01 1</masterclipid>
					<logginginfo>
						<scene/>
						<shottake/>
						<lognote/>
						<good>FALSE</good>
					</logginginfo>
					<labels>
						<label2/>
					</labels>
					<comments>
						<mastercomment1/>
						<mastercomment2/>
						<mastercomment3/>
						<mastercomment4/>
					</comments>
					<file id="DYR19730_01 2"/>
					<filter>
						<effect>
							<name>Audio Levels</name>
							<effectid>audiolevels</effectid>
							<effectcategory>audiolevels</effectcategory>
							<effecttype>audiolevels</effecttype>
							<mediatype>audio</mediatype>
							<parameter>
								<name>Level</name>
								<parameterid>level</parameterid>
								<valuemin>0</valuemin>
								<valuemax>3.98109</valuemax>
								<value>1.99526</value>
							</parameter>
						</effect>
					</filter>
					<filter>
						<effect>
							<name>Audio Pan</name>
							<effectid>audiopan</effectid>
							<effectcategory>audiopan</effectcategory>
							<effecttype>audiopan</effecttype>
							<mediatype>audio</mediatype>
							<parameter>
								<name>Pan</name>
								<parameterid>pan</parameterid>
								<valuemin>-1</valuemin>
								<valuemax>1</valuemax>
								<value>0</value>
							</parameter>
						</effect>
					</filter>
					<sourcetrack>
						<mediatype>audio</mediatype>
						<trackindex>1</trackindex>
					</sourcetrack>
					<itemhistory>
						<uuid>D2E898F8-7660-4ADA-B9A6-BA6C68E6ED4D</uuid>
					</itemhistory>
				</clipitem>
				<clipitem id="DYR19767_01 3">
					<name>DYR19767_01</name>
					<duration>4277</duration>
					<rate>
						<ntsc>FALSE</ntsc>
						<timebase>25</timebase>
					</rate>
					<in>364</in>
					<out>425</out>
					<start>15924</start>
					<end>15985</end>
					<masterclipid>DYR19767_01 1</masterclipid>
					<logginginfo>
						<scene/>
						<shottake/>
						<lognote/>
						<good>FALSE</good>
					</logginginfo>
					<labels>
						<label2/>
					</labels>
					<comments>
						<mastercomment1/>
						<mastercomment2/>
						<mastercomment3/>
						<mastercomment4/>
					</comments>
					<file id="DYR19767_01 2"/>
					<filter>
						<effect>
							<name>Audio Levels</name>
							<effectid>audiolevels</effectid>
							<effectcategory>audiolevels</effectcategory>
							<effecttype>audiolevels</effecttype>
							<mediatype>audio</mediatype>
							<parameter>
								<name>Level</name>
								<parameterid>level</parameterid>
								<valuemin>0</valuemin>
								<valuemax>3.98109</valuemax>
								<value>0</value>
							</parameter>
						</effect>
					</filter>
					<filter>
						<effect>
							<name>Audio Pan</name>
							<effectid>audiopan</effectid>
							<effectcategory>audiopan</effectcategory>
							<effecttype>audiopan</effecttype>
							<mediatype>audio</mediatype>
							<parameter>
								<name>Pan</name>
								<parameterid>pan</parameterid>
								<valuemin>-1</valuemin>
								<valuemax>1</valuemax>
								<value>0</value>
							</parameter>
						</effect>
					</filter>
					<sourcetrack>
						<mediatype>audio</mediatype>
						<trackindex>1</trackindex>
					</sourcetrack>
					<link>
						<linkclipref>DYR19767_01 </linkclipref>
						<mediatype>video</mediatype>
						<trackindex>1</trackindex>
						<clipindex>156</clipindex>
					</link>
					<link>
						<linkclipref>DYR19767_01 3</linkclipref>
						<mediatype>audio</mediatype>
						<trackindex>1</trackindex>
						<clipindex>91</clipindex>
					</link>
					<link>
						<linkclipref>DYR19767_01 4</linkclipref>
						<mediatype>audio</mediatype>
						<trackindex>2</trackindex>
						<clipindex>86</clipindex>
					</link>
					<itemhistory>
						<uuid>334C209B-4206-41BF-A7D2-C253C73F119F</uuid>
					</itemhistory>
				</clipitem>
				<clipitem id="DYR19747_01 3">
					<name>DYR19747_01</name>
					<duration>1271</duration>
					<rate>
						<ntsc>FALSE</ntsc>
						<timebase>25</timebase>
					</rate>
					<in>579</in>
					<out>633</out>
					<start>15985</start>
					<end>16039</end>
					<masterclipid>DYR19747_01 1</masterclipid>
					<logginginfo>
						<scene/>
						<shottake/>
						<lognote/>
						<good>FALSE</good>
					</logginginfo>
					<labels>
						<label2/>
					</labels>
					<comments>
						<mastercomment1/>
						<mastercomment2/>
						<mastercomment3/>
						<mastercomment4/>
					</comments>
					<file id="DYR19747_01 2"/>
					<filter>
						<effect>
							<name>Audio Levels</name>
							<effectid>audiolevels</effectid>
							<effectcategory>audiolevels</effectcategory>
							<effecttype>audiolevels</effecttype>
							<mediatype>audio</mediatype>
							<parameter>
								<name>Level</name>
								<parameterid>level</parameterid>
								<valuemin>0</valuemin>
								<valuemax>3.98109</valuemax>
								<value>1.58489</value>
							</parameter>
						</effect>
					</filter>
					<filter>
						<effect>
							<name>Audio Pan</name>
							<effectid>audiopan</effectid>
							<effectcategory>audiopan</effectcategory>
							<effecttype>audiopan</effecttype>
							<mediatype>audio</mediatype>
							<parameter>
								<name>Pan</name>
								<parameterid>pan</parameterid>
								<valuemin>-1</valuemin>
								<valuemax>1</valuemax>
								<value>0</value>
							</parameter>
						</effect>
					</filter>
					<sourcetrack>
						<mediatype>audio</mediatype>
						<trackindex>1</trackindex>
					</sourcetrack>
					<link>
						<linkclipref>DYR19747_01 </linkclipref>
						<mediatype>video</mediatype>
						<trackindex>1</trackindex>
						<clipindex>157</clipindex>
					</link>
					<link>
						<linkclipref>DYR19747_01 3</linkclipref>
						<mediatype>audio</mediatype>
						<trackindex>1</trackindex>
						<clipindex>92</clipindex>
					</link>
					<link>
						<linkclipref>DYR19747_01 4</linkclipref>
						<mediatype>audio</mediatype>
						<trackindex>2</trackindex>
						<clipindex>87</clipindex>
					</link>
					<itemhistory>
						<uuid>0FB5BCDE-DB4F-49D1-BB16-DD666E49C480</uuid>
					</itemhistory>
				</clipitem>
				<clipitem id="DYR19747_01 5">
					<name>DYR19747_01</name>
					<duration>1271</duration>
					<rate>
						<ntsc>FALSE</ntsc>
						<timebase>25</timebase>
					</rate>
					<in>640</in>
					<out>702</out>
					<start>16039</start>
					<end>16101</end>
					<masterclipid>DYR19747_01 1</masterclipid>
					<logginginfo>
						<scene/>
						<shottake/>
						<lognote/>
						<good>FALSE</good>
					</logginginfo>
					<labels>
						<label2/>
					</labels>
					<comments>
						<mastercomment1/>
						<mastercomment2/>
						<mastercomment3/>
						<mastercomment4/>
					</comments>
					<file id="DYR19747_01 2"/>
					<filter>
						<effect>
							<name>Audio Levels</name>
							<effectid>audiolevels</effectid>
							<effectcategory>audiolevels</effectcategory>
							<effecttype>audiolevels</effecttype>
							<mediatype>audio</mediatype>
							<parameter>
								<name>Level</name>
								<parameterid>level</parameterid>
								<valuemin>0</valuemin>
								<valuemax>3.98109</valuemax>
								<value>1.58489</value>
							</parameter>
						</effect>
					</filter>
					<filter>
						<effect>
							<name>Audio Pan</name>
							<effectid>audiopan</effectid>
							<effectcategory>audiopan</effectcategory>
							<effecttype>audiopan</effecttype>
							<mediatype>audio</mediatype>
							<parameter>
								<name>Pan</name>
								<parameterid>pan</parameterid>
								<valuemin>-1</valuemin>
								<valuemax>1</valuemax>
								<value>0</value>
							</parameter>
						</effect>
					</filter>
					<sourcetrack>
						<mediatype>audio</mediatype>
						<trackindex>1</trackindex>
					</sourcetrack>
					<itemhistory>
						<uuid>C371AFBD-4403-410F-8FC5-70BF858A518B</uuid>
					</itemhistory>
				</clipitem>
				<clipitem id="DYR19747_01 6">
					<name>DYR19747_01</name>
					<duration>1271</duration>
					<rate>
						<ntsc>FALSE</ntsc>
						<timebase>25</timebase>
					</rate>
					<in>725</in>
					<out>756</out>
					<start>16101</start>
					<end>16132</end>
					<masterclipid>DYR19747_01 1</masterclipid>
					<logginginfo>
						<scene/>
						<shottake/>
						<lognote/>
						<good>FALSE</good>
					</logginginfo>
					<labels>
						<label2/>
					</labels>
					<comments>
						<mastercomment1/>
						<mastercomment2/>
						<mastercomment3/>
						<mastercomment4/>
					</comments>
					<file id="DYR19747_01 2"/>
					<filter>
						<effect>
							<name>Audio Levels</name>
							<effectid>audiolevels</effectid>
							<effectcategory>audiolevels</effectcategory>
							<effecttype>audiolevels</effecttype>
							<mediatype>audio</mediatype>
							<parameter>
								<name>Level</name>
								<parameterid>level</parameterid>
								<valuemin>0</valuemin>
								<valuemax>3.98109</valuemax>
								<value>1.58489</value>
							</parameter>
						</effect>
					</filter>
					<filter>
						<effect>
							<name>Audio Pan</name>
							<effectid>audiopan</effectid>
							<effectcategory>audiopan</effectcategory>
							<effecttype>audiopan</effecttype>
							<mediatype>audio</mediatype>
							<parameter>
								<name>Pan</name>
								<parameterid>pan</parameterid>
								<valuemin>-1</valuemin>
								<valuemax>1</valuemax>
								<value>0</value>
							</parameter>
						</effect>
					</filter>
					<sourcetrack>
						<mediatype>audio</mediatype>
						<trackindex>1</trackindex>
					</sourcetrack>
					<itemhistory>
						<uuid>3DC2F3C7-DABB-478B-9A1C-95A95F7C9F6F</uuid>
					</itemhistory>
				</clipitem>
				<clipitem id="DYR19747_01 7">
					<name>DYR19747_01</name>
					<duration>1271</duration>
					<rate>
						<ntsc>FALSE</ntsc>
						<timebase>25</timebase>
					</rate>
					<in>700</in>
					<out>726</out>
					<start>16132</start>
					<end>16158</end>
					<masterclipid>DYR19747_01 1</masterclipid>
					<logginginfo>
						<scene/>
						<shottake/>
						<lognote/>
						<good>FALSE</good>
					</logginginfo>
					<labels>
						<label2/>
					</labels>
					<comments>
						<mastercomment1/>
						<mastercomment2/>
						<mastercomment3/>
						<mastercomment4/>
					</comments>
					<file id="DYR19747_01 2"/>
					<filter>
						<effect>
							<name>Audio Levels</name>
							<effectid>audiolevels</effectid>
							<effectcategory>audiolevels</effectcategory>
							<effecttype>audiolevels</effecttype>
							<mediatype>audio</mediatype>
							<parameter>
								<name>Level</name>
								<parameterid>level</parameterid>
								<valuemin>0</valuemin>
								<valuemax>3.98109</valuemax>
								<value>1.58489</value>
							</parameter>
						</effect>
					</filter>
					<filter>
						<effect>
							<name>Audio Pan</name>
							<effectid>audiopan</effectid>
							<effectcategory>audiopan</effectcategory>
							<effecttype>audiopan</effecttype>
							<mediatype>audio</mediatype>
							<parameter>
								<name>Pan</name>
								<parameterid>pan</parameterid>
								<valuemin>-1</valuemin>
								<valuemax>1</valuemax>
								<value>0</value>
							</parameter>
						</effect>
					</filter>
					<sourcetrack>
						<mediatype>audio</mediatype>
						<trackindex>1</trackindex>
					</sourcetrack>
					<itemhistory>
						<uuid>EA751A36-C985-4418-BE5C-CDA7FA0521FF</uuid>
					</itemhistory>
				</clipitem>
				<clipitem id="DYR19747_01 8">
					<name>DYR19747_01</name>
					<duration>1271</duration>
					<rate>
						<ntsc>FALSE</ntsc>
						<timebase>25</timebase>
					</rate>
					<in>759</in>
					<out>931</out>
					<start>16158</start>
					<end>16330</end>
					<masterclipid>DYR19747_01 1</masterclipid>
					<logginginfo>
						<scene/>
						<shottake/>
						<lognote/>
						<good>FALSE</good>
					</logginginfo>
					<labels>
						<label2/>
					</labels>
					<comments>
						<mastercomment1/>
						<mastercomment2/>
						<mastercomment3/>
						<mastercomment4/>
					</comments>
					<file id="DYR19747_01 2"/>
					<filter>
						<effect>
							<name>Audio Levels</name>
							<effectid>audiolevels</effectid>
							<effectcategory>audiolevels</effectcategory>
							<effecttype>audiolevels</effecttype>
							<mediatype>audio</mediatype>
							<parameter>
								<name>Level</name>
								<parameterid>level</parameterid>
								<valuemin>0</valuemin>
								<valuemax>3.98109</valuemax>
								<value>1.58489</value>
							</parameter>
						</effect>
					</filter>
					<filter>
						<effect>
							<name>Audio Pan</name>
							<effectid>audiopan</effectid>
							<effectcategory>audiopan</effectcategory>
							<effecttype>audiopan</effecttype>
							<mediatype>audio</mediatype>
							<parameter>
								<name>Pan</name>
								<parameterid>pan</parameterid>
								<valuemin>-1</valuemin>
								<valuemax>1</valuemax>
								<value>0</value>
							</parameter>
						</effect>
					</filter>
					<sourcetrack>
						<mediatype>audio</mediatype>
						<trackindex>1</trackindex>
					</sourcetrack>
					<itemhistory>
						<uuid>0CA60B6F-3688-4197-A686-EB7EF148BBA8</uuid>
					</itemhistory>
				</clipitem>
				<clipitem id="MVI_6502 3">
					<name>MVI_6502</name>
					<duration>825</duration>
					<rate>
						<ntsc>FALSE</ntsc>
						<timebase>25</timebase>
					</rate>
					<in>29</in>
					<out>121</out>
					<start>16416</start>
					<end>16508</end>
					<masterclipid>MVI_6502 1</masterclipid>
					<logginginfo>
						<scene/>
						<shottake/>
						<lognote/>
						<good>FALSE</good>
					</logginginfo>
					<labels>
						<label2/>
					</labels>
					<comments>
						<mastercomment1/>
						<mastercomment2/>
						<mastercomment3/>
						<mastercomment4/>
					</comments>
					<file id="MVI_6502 2"/>
					<filter>
						<effect>
							<name>Audio Levels</name>
							<effectid>audiolevels</effectid>
							<effectcategory>audiolevels</effectcategory>
							<effecttype>audiolevels</effecttype>
							<mediatype>audio</mediatype>
							<parameter>
								<name>Level</name>
								<parameterid>level</parameterid>
								<valuemin>0</valuemin>
								<valuemax>3.98109</valuemax>
								<value>0</value>
							</parameter>
						</effect>
					</filter>
					<filter>
						<effect>
							<name>Audio Pan</name>
							<effectid>audiopan</effectid>
							<effectcategory>audiopan</effectcategory>
							<effecttype>audiopan</effecttype>
							<mediatype>audio</mediatype>
							<parameter>
								<name>Pan</name>
								<parameterid>pan</parameterid>
								<valuemin>-1</valuemin>
								<valuemax>1</valuemax>
								<value>-1</value>
							</parameter>
						</effect>
					</filter>
					<sourcetrack>
						<mediatype>audio</mediatype>
						<trackindex>1</trackindex>
					</sourcetrack>
					<link>
						<linkclipref>MVI_6502 </linkclipref>
						<mediatype>video</mediatype>
						<trackindex>1</trackindex>
						<clipindex>162</clipindex>
					</link>
					<link>
						<linkclipref>MVI_6502 3</linkclipref>
						<mediatype>audio</mediatype>
						<trackindex>1</trackindex>
						<clipindex>97</clipindex>
						<groupindex>1</groupindex>
					</link>
					<link>
						<linkclipref>MVI_6502 4</linkclipref>
						<mediatype>audio</mediatype>
						<trackindex>2</trackindex>
						<clipindex>92</clipindex>
						<groupindex>1</groupindex>
					</link>
					<itemhistory>
						<uuid>941C0A3A-7458-4F5D-AF71-0BBCDB35FDDE</uuid>
					</itemhistory>
				</clipitem>
				<clipitem id="DYR19797_01 ">
					<name>DYR19797_01</name>
					<duration>524</duration>
					<rate>
						<ntsc>FALSE</ntsc>
						<timebase>25</timebase>
					</rate>
					<in>250</in>
					<out>359</out>
					<start>16508</start>
					<end>-1</end>
					<subframeoffset>0</subframeoffset>
					<masterclipid>DYR19797_01 1</masterclipid>
					<logginginfo>
						<scene/>
						<shottake/>
						<lognote/>
						<good>FALSE</good>
					</logginginfo>
					<labels>
						<label2/>
					</labels>
					<comments>
						<mastercomment1/>
						<mastercomment2/>
						<mastercomment3/>
						<mastercomment4/>
					</comments>
					<file id="DYR19797_01 2">
						<name>DYR19797_01.mov</name>
						<pathurl>file://localhost/Volumes/Askepott/Prosjekter/DNPR637010_Kra%CC%8Akeklubben_TEM_011212/Video/TORDS%20GARASJE/SJ%C3%98DYR/Reke/DYR19797_01.mov</pathurl>
						<rate>
							<timebase>25</timebase>
						</rate>
						<duration>524</duration>
						<metadata>
							<storage>QuickTime</storage>
							<key>com.sony.bprl.xdcamtransfer.version</key>
							<size>10</size>
							<type>UTF8</type>
							<value>2.12.0.631</value>
						</metadata>
						<metadata>
							<storage>QuickTime</storage>
							<key>org.smpte.mxf.package.material.packageid</key>
							<size>66</size>
							<type>UTF8</type>
							<value>0x060a2b340101010501010d4313000000e7aff898885505c708004602022f05f5</value>
						</metadata>
						<metadata>
							<storage>QuickTime</storage>
							<key>com.sony.professionaldisc.nonrealtimemeta.lastupdate</key>
							<size>25</size>
							<type>UTF8</type>
							<value>2011-01-27 15:20:49 +0100</value>
						</metadata>
						<metadata>
							<storage>QuickTime</storage>
							<key>com.sony.bprl.mxf.umid</key>
							<size>64</size>
							<type>UTF8</type>
							<value>060a2b340101010501010d4313000000e7aff898885505c708004602022f05f5</value>
						</metadata>
						<metadata>
							<storage>QuickTime</storage>
							<key>com.sony.bprl.mxf.nrtmetadata</key>
							<size>1991</size>
							<type>UTF8</type>
							<value>&lt;?xml version="1.0" encoding="UTF-8"?>&lt;NonRealTimeMeta xmlns="urn:schemas-professionalDisc:nonRealTimeMeta:ver.1.20" xmlns:lib="urn:schemas-professionalDisc:lib:ver.1.20" xmlns:xsi="http://www.w3.org/2001/XMLSchema-instance" lastUpdate="2011-01-27T15:20:49+01:00">&lt;TargetMaterial umidRef="060A2B340101010501010D4313000000E7AFF898885505C708004602022F05F5">&lt;/TargetMaterial>&lt;Duration value="524">&lt;/Duration>&lt;LtcChangeTable tcFps="25" halfStep="false">&lt;LtcChange frameCount="0" value="03110903" status="increment">&lt;/LtcChange>&lt;LtcChange frameCount="523" value="01320903" status="end">&lt;/LtcChange>&lt;/LtcChangeTable>&lt;CreationDate value="2011-01-27T15:20:27+01:00">&lt;/CreationDate>&lt;TypicalUbit value="0000000017061020">&lt;/TypicalUbit>&lt;BodyUmidBasicChangeTable>&lt;BodyUmidBasicChange frameCount="0" value="060A2B340101010501010D4333000000E7AFF898885505C708004602022F05F5" status="start">&lt;/BodyUmidBasicChange>&lt;/BodyUmidBasicChangeTable>&lt;BodyUmidWhenChangeTable>&lt;BodyUmidWhenChange frameCount="0" value="C475EC04885505A5" status="increment">&lt;/BodyUmidWhenChange>&lt;BodyUmidWhenChange frameCount="523" value="84F8EC04885505A5" status="end">&lt;/BodyUmidWhenChange>&lt;/BodyUmidWhenChangeTable>&lt;KlvPacketTable>&lt;KlvPacket key="060E2B34010101050301020A02000000" frameCount="0" lengthValue="095F5265635374617274" status="spot">&lt;/KlvPacket>&lt;/KlvPacketTable>&lt;VideoFormat>&lt;VideoRecPort port="DIRECT">&lt;/VideoRecPort>&lt;VideoFrame videoCodec="MPEG2HD35_1920_1080_MP@HL" captureFps="50.00i" recFps="50.00" formatFps="50i">&lt;/VideoFrame>&lt;VideoLayout pixel="1920" numOfVerticalLine="1080" aspectRatio="16:9">&lt;/VideoLayout>&lt;/VideoFormat>&lt;AudioFormat numOfChannel="2">&lt;AudioRecPort port="ANALOG" audioCodec="LPCM16" trackDst="CH1">&lt;/AudioRecPort>&lt;AudioRecPort port="DIRECT" audioCodec="LPCM16" trackDst="CH2">&lt;/AudioRecPort>&lt;/AudioFormat>&lt;Device manufacturer="Sony" modelName="PMW-EX3" serialNo="0401525">&lt;/Device>&lt;Lens modelName="VCL-614B2X">&lt;/Lens>&lt;RecordingMode type="normal" cacheRec="false">&lt;/RecordingMode>&lt;/NonRealTimeMeta>
							</value>
						</metadata>
						<metadata>
							<storage>QuickTime</storage>
							<key>com.apple.proapps.reel</key>
							<size>8</size>
							<type>UTF8</type>
							<value>Untitled</value>
						</metadata>
						<metadata>
							<storage>QuickTime</storage>
							<key>com.apple.proapps.clipID</key>
							<size>64</size>
							<type>UTF8</type>
							<value>060A2B340101010501010D4313000000E7AFF898885505C708004602022F05F5</value>
						</metadata>
						<metadata>
							<storage>QuickTime</storage>
							<key>com.apple.quicktime.information</key>
							<size>64</size>
							<type>UTF8</type>
							<value>060a2b340101010501010d4313000000e7aff898885505c708004602022f05f5</value>
						</metadata>
						<metadata>
							<storage>QuickTime</storage>
							<key>com.apple.proapps.originalFormat</key>
							<size>36</size>
							<type>UTF8</type>
							<value>Apple XDCAM EX 1080i50 (35 Mb/s VBR)</value>
						</metadata>
						<timecode>
							<rate>
								<timebase>25</timebase>
							</rate>
							<string>03:09:11:03</string>
							<frame>283778</frame>
							<displayformat>NDF</displayformat>
							<source>source</source>
							<reel>
								<name>Untitled</name>
							</reel>
						</timecode>
						<media>
							<video>
								<duration>524</duration>
								<samplecharacteristics>
									<width>1920</width>
									<height>1080</height>
								</samplecharacteristics>
							</video>
							<audio>
								<samplecharacteristics>
									<samplerate>48000</samplerate>
									<depth>16</depth>
								</samplecharacteristics>
								<channelcount>1</channelcount>
								<layout>mono</layout>
								<audiochannel>
									<sourcechannel>1</sourcechannel>
									<channellabel>discrete</channellabel>
								</audiochannel>
							</audio>
							<audio>
								<samplecharacteristics>
									<samplerate>48000</samplerate>
									<depth>16</depth>
								</samplecharacteristics>
								<channelcount>1</channelcount>
								<layout>mono</layout>
								<audiochannel>
									<sourcechannel>2</sourcechannel>
									<channellabel>discrete</channellabel>
								</audiochannel>
							</audio>
						</media>
					</file>
					<filter>
						<effect>
							<name>Audio Levels</name>
							<effectid>audiolevels</effectid>
							<effectcategory>audiolevels</effectcategory>
							<effecttype>audiolevels</effecttype>
							<mediatype>audio</mediatype>
							<parameter>
								<name>Level</name>
								<parameterid>level</parameterid>
								<valuemin>0</valuemin>
								<valuemax>3.98109</valuemax>
								<value>2.51189</value>
							</parameter>
						</effect>
					</filter>
					<filter>
						<effect>
							<name>Audio Pan</name>
							<effectid>audiopan</effectid>
							<effectcategory>audiopan</effectcategory>
							<effecttype>audiopan</effecttype>
							<mediatype>audio</mediatype>
							<parameter>
								<name>Pan</name>
								<parameterid>pan</parameterid>
								<valuemin>-1</valuemin>
								<valuemax>1</valuemax>
								<value>0</value>
							</parameter>
						</effect>
					</filter>
					<sourcetrack>
						<mediatype>audio</mediatype>
						<trackindex>1</trackindex>
					</sourcetrack>
					<link>
						<linkclipref>DYR19797_01 </linkclipref>
						<mediatype>audio</mediatype>
						<trackindex>1</trackindex>
						<clipindex>98</clipindex>
					</link>
					<link>
						<linkclipref>DYR19797_01 3</linkclipref>
						<mediatype>audio</mediatype>
						<trackindex>2</trackindex>
						<clipindex>93</clipindex>
					</link>
					<itemhistory>
						<uuid>0B5400CA-804B-4B42-9918-041338E6953A</uuid>
					</itemhistory>
				</clipitem>
				<transitionitem>
					<rate>
						<ntsc>FALSE</ntsc>
						<timebase>25</timebase>
					</rate>
					<start>16592</start>
					<end>16617</end>
					<alignment>center</alignment>
					<effect>
						<name>Cross Fade (+3dB)</name>
						<effectid>KGAudioTransCrossFade3dB</effectid>
						<effecttype>transition</effecttype>
						<mediatype>audio</mediatype>
					</effect>
				</transitionitem>
				<clipitem id="MVI_6493 3">
					<name>MVI_6493</name>
					<duration>741</duration>
					<rate>
						<ntsc>FALSE</ntsc>
						<timebase>25</timebase>
					</rate>
					<in>503</in>
					<out>554</out>
					<start>-1</start>
					<end>16643</end>
					<masterclipid>MVI_6493 1</masterclipid>
					<logginginfo>
						<scene/>
						<shottake/>
						<lognote/>
						<good>FALSE</good>
					</logginginfo>
					<labels>
						<label2/>
					</labels>
					<comments>
						<mastercomment1/>
						<mastercomment2/>
						<mastercomment3/>
						<mastercomment4/>
					</comments>
					<file id="MVI_6493 2"/>
					<filter>
						<effect>
							<name>Audio Levels</name>
							<effectid>audiolevels</effectid>
							<effectcategory>audiolevels</effectcategory>
							<effecttype>audiolevels</effecttype>
							<mediatype>audio</mediatype>
							<parameter>
								<name>Level</name>
								<parameterid>level</parameterid>
								<valuemin>0</valuemin>
								<valuemax>3.98109</valuemax>
								<value>0</value>
							</parameter>
						</effect>
					</filter>
					<filter>
						<effect>
							<name>Audio Pan</name>
							<effectid>audiopan</effectid>
							<effectcategory>audiopan</effectcategory>
							<effecttype>audiopan</effecttype>
							<mediatype>audio</mediatype>
							<parameter>
								<name>Pan</name>
								<parameterid>pan</parameterid>
								<valuemin>-1</valuemin>
								<valuemax>1</valuemax>
								<value>-1</value>
							</parameter>
						</effect>
					</filter>
					<sourcetrack>
						<mediatype>audio</mediatype>
						<trackindex>1</trackindex>
					</sourcetrack>
					<link>
						<linkclipref>MVI_6493 </linkclipref>
						<mediatype>video</mediatype>
						<trackindex>1</trackindex>
						<clipindex>166</clipindex>
					</link>
					<link>
						<linkclipref>MVI_6493 3</linkclipref>
						<mediatype>audio</mediatype>
						<trackindex>1</trackindex>
						<clipindex>100</clipindex>
						<groupindex>1</groupindex>
					</link>
					<link>
						<linkclipref>MVI_6493 4</linkclipref>
						<mediatype>audio</mediatype>
						<trackindex>2</trackindex>
						<clipindex>95</clipindex>
						<groupindex>1</groupindex>
					</link>
					<itemhistory>
						<uuid>0BED9AD3-FD1C-47A8-BDB2-298F66AA2DB3</uuid>
					</itemhistory>
				</clipitem>
				<clipitem id="DYR19798_01 ">
					<name>DYR19798_01</name>
					<duration>1644</duration>
					<rate>
						<ntsc>FALSE</ntsc>
						<timebase>25</timebase>
					</rate>
					<in>1470</in>
					<out>1574</out>
					<start>16643</start>
					<end>16747</end>
					<subframeoffset>0</subframeoffset>
					<masterclipid>DYR19798_01 1</masterclipid>
					<logginginfo>
						<scene/>
						<shottake/>
						<lognote/>
						<good>FALSE</good>
					</logginginfo>
					<labels>
						<label2/>
					</labels>
					<comments>
						<mastercomment1/>
						<mastercomment2/>
						<mastercomment3/>
						<mastercomment4/>
					</comments>
					<file id="DYR19798_01 2">
						<name>DYR19798_01.mov</name>
						<pathurl>file://localhost/Volumes/Askepott/Prosjekter/DNPR637010_Kra%CC%8Akeklubben_TEM_011212/Video/TORDS%20GARASJE/SJ%C3%98DYR/Reke/DYR19798_01.mov</pathurl>
						<rate>
							<timebase>25</timebase>
						</rate>
						<duration>1644</duration>
						<metadata>
							<storage>QuickTime</storage>
							<key>com.sony.bprl.xdcamtransfer.version</key>
							<size>10</size>
							<type>UTF8</type>
							<value>2.12.0.631</value>
						</metadata>
						<metadata>
							<storage>QuickTime</storage>
							<key>org.smpte.mxf.package.material.packageid</key>
							<size>66</size>
							<type>UTF8</type>
							<value>0x060a2b340101010501010d431300000075711b99885505d408004602022f05f5</value>
						</metadata>
						<metadata>
							<storage>QuickTime</storage>
							<key>com.sony.professionaldisc.nonrealtimemeta.lastupdate</key>
							<size>25</size>
							<type>UTF8</type>
							<value>2011-01-27 15:22:20 +0100</value>
						</metadata>
						<metadata>
							<storage>QuickTime</storage>
							<key>com.sony.bprl.mxf.umid</key>
							<size>64</size>
							<type>UTF8</type>
							<value>060a2b340101010501010d431300000075711b99885505d408004602022f05f5</value>
						</metadata>
						<metadata>
							<storage>QuickTime</storage>
							<key>com.sony.bprl.mxf.nrtmetadata</key>
							<size>1994</size>
							<type>UTF8</type>
							<value>&lt;?xml version="1.0" encoding="UTF-8"?>&lt;NonRealTimeMeta xmlns="urn:schemas-professionalDisc:nonRealTimeMeta:ver.1.20" xmlns:lib="urn:schemas-professionalDisc:lib:ver.1.20" xmlns:xsi="http://www.w3.org/2001/XMLSchema-instance" lastUpdate="2011-01-27T15:22:20+01:00">&lt;TargetMaterial umidRef="060A2B340101010501010D431300000075711B99885505D408004602022F05F5">&lt;/TargetMaterial>&lt;Duration value="1644">&lt;/Duration>&lt;LtcChangeTable tcFps="25" halfStep="false">&lt;LtcChange frameCount="0" value="02320903" status="increment">&lt;/LtcChange>&lt;LtcChange frameCount="1643" value="20371003" status="end">&lt;/LtcChange>&lt;/LtcChangeTable>&lt;CreationDate value="2011-01-27T15:21:13+01:00">&lt;/CreationDate>&lt;TypicalUbit value="0000000017061020">&lt;/TypicalUbit>&lt;BodyUmidBasicChangeTable>&lt;BodyUmidBasicChange frameCount="0" value="060A2B340101010501010D433300000075711B99885505D408004602022F05F5" status="start">&lt;/BodyUmidBasicChange>&lt;/BodyUmidBasicChangeTable>&lt;BodyUmidWhenChangeTable>&lt;BodyUmidWhenChange frameCount="0" value="4494ED04885505A5" status="increment">&lt;/BodyUmidWhenChange>&lt;BodyUmidWhenChange frameCount="1643" value="042FEF04885505A5" status="end">&lt;/BodyUmidWhenChange>&lt;/BodyUmidWhenChangeTable>&lt;KlvPacketTable>&lt;KlvPacket key="060E2B34010101050301020A02000000" frameCount="0" lengthValue="095F5265635374617274" status="spot">&lt;/KlvPacket>&lt;/KlvPacketTable>&lt;VideoFormat>&lt;VideoRecPort port="DIRECT">&lt;/VideoRecPort>&lt;VideoFrame videoCodec="MPEG2HD35_1920_1080_MP@HL" captureFps="50.00i" recFps="50.00" formatFps="50i">&lt;/VideoFrame>&lt;VideoLayout pixel="1920" numOfVerticalLine="1080" aspectRatio="16:9">&lt;/VideoLayout>&lt;/VideoFormat>&lt;AudioFormat numOfChannel="2">&lt;AudioRecPort port="ANALOG" audioCodec="LPCM16" trackDst="CH1">&lt;/AudioRecPort>&lt;AudioRecPort port="DIRECT" audioCodec="LPCM16" trackDst="CH2">&lt;/AudioRecPort>&lt;/AudioFormat>&lt;Device manufacturer="Sony" modelName="PMW-EX3" serialNo="0401525">&lt;/Device>&lt;Lens modelName="VCL-614B2X">&lt;/Lens>&lt;RecordingMode type="normal" cacheRec="false">&lt;/RecordingMode>&lt;/NonRealTimeMeta>
							</value>
						</metadata>
						<metadata>
							<storage>QuickTime</storage>
							<key>com.apple.proapps.reel</key>
							<size>8</size>
							<type>UTF8</type>
							<value>Untitled</value>
						</metadata>
						<metadata>
							<storage>QuickTime</storage>
							<key>com.apple.proapps.clipID</key>
							<size>64</size>
							<type>UTF8</type>
							<value>060A2B340101010501010D431300000075711B99885505D408004602022F05F5</value>
						</metadata>
						<metadata>
							<storage>QuickTime</storage>
							<key>com.apple.quicktime.information</key>
							<size>64</size>
							<type>UTF8</type>
							<value>060a2b340101010501010d431300000075711b99885505d408004602022f05f5</value>
						</metadata>
						<metadata>
							<storage>QuickTime</storage>
							<key>com.apple.proapps.originalFormat</key>
							<size>36</size>
							<type>UTF8</type>
							<value>Apple XDCAM EX 1080i50 (35 Mb/s VBR)</value>
						</metadata>
						<timecode>
							<rate>
								<timebase>25</timebase>
							</rate>
							<string>03:09:32:02</string>
							<frame>284302</frame>
							<displayformat>NDF</displayformat>
							<source>source</source>
							<reel>
								<name>Untitled</name>
							</reel>
						</timecode>
						<media>
							<video>
								<duration>1644</duration>
								<samplecharacteristics>
									<width>1920</width>
									<height>1080</height>
								</samplecharacteristics>
							</video>
							<audio>
								<samplecharacteristics>
									<samplerate>48000</samplerate>
									<depth>16</depth>
								</samplecharacteristics>
								<channelcount>1</channelcount>
								<layout>mono</layout>
								<audiochannel>
									<sourcechannel>1</sourcechannel>
									<channellabel>discrete</channellabel>
								</audiochannel>
							</audio>
							<audio>
								<samplecharacteristics>
									<samplerate>48000</samplerate>
									<depth>16</depth>
								</samplecharacteristics>
								<channelcount>1</channelcount>
								<layout>mono</layout>
								<audiochannel>
									<sourcechannel>2</sourcechannel>
									<channellabel>discrete</channellabel>
								</audiochannel>
							</audio>
						</media>
					</file>
					<filter>
						<effect>
							<name>Audio Levels</name>
							<effectid>audiolevels</effectid>
							<effectcategory>audiolevels</effectcategory>
							<effecttype>audiolevels</effecttype>
							<mediatype>audio</mediatype>
							<parameter>
								<name>Level</name>
								<parameterid>level</parameterid>
								<valuemin>0</valuemin>
								<valuemax>3.98109</valuemax>
								<value>3.98107</value>
							</parameter>
						</effect>
					</filter>
					<filter>
						<effect>
							<name>Audio Pan</name>
							<effectid>audiopan</effectid>
							<effectcategory>audiopan</effectcategory>
							<effecttype>audiopan</effecttype>
							<mediatype>audio</mediatype>
							<parameter>
								<name>Pan</name>
								<parameterid>pan</parameterid>
								<valuemin>-1</valuemin>
								<valuemax>1</valuemax>
								<value>0</value>
							</parameter>
						</effect>
					</filter>
					<sourcetrack>
						<mediatype>audio</mediatype>
						<trackindex>1</trackindex>
					</sourcetrack>
					<link>
						<linkclipref>DYR19798_01 </linkclipref>
						<mediatype>audio</mediatype>
						<trackindex>1</trackindex>
						<clipindex>101</clipindex>
					</link>
					<link>
						<linkclipref>DYR19798_01 3</linkclipref>
						<mediatype>audio</mediatype>
						<trackindex>2</trackindex>
						<clipindex>96</clipindex>
					</link>
					<itemhistory>
						<uuid>C8AA7764-E4BC-4242-B9B3-805531195B13</uuid>
					</itemhistory>
				</clipitem>
				<clipitem id="DYR19767_01 9">
					<name>DYR19767_01</name>
					<duration>4277</duration>
					<rate>
						<ntsc>FALSE</ntsc>
						<timebase>25</timebase>
					</rate>
					<in>2703</in>
					<out>2792</out>
					<start>16835</start>
					<end>16924</end>
					<masterclipid>DYR19767_01 1</masterclipid>
					<logginginfo>
						<scene/>
						<shottake/>
						<lognote/>
						<good>FALSE</good>
					</logginginfo>
					<labels>
						<label2/>
					</labels>
					<comments>
						<mastercomment1/>
						<mastercomment2/>
						<mastercomment3/>
						<mastercomment4/>
					</comments>
					<file id="DYR19767_01 2"/>
					<filter>
						<effect>
							<name>Audio Levels</name>
							<effectid>audiolevels</effectid>
							<effectcategory>audiolevels</effectcategory>
							<effecttype>audiolevels</effecttype>
							<mediatype>audio</mediatype>
							<parameter>
								<name>Level</name>
								<parameterid>level</parameterid>
								<valuemin>0</valuemin>
								<valuemax>3.98109</valuemax>
								<value>2.23872</value>
							</parameter>
						</effect>
					</filter>
					<filter>
						<effect>
							<name>Audio Pan</name>
							<effectid>audiopan</effectid>
							<effectcategory>audiopan</effectcategory>
							<effecttype>audiopan</effecttype>
							<mediatype>audio</mediatype>
							<parameter>
								<name>Pan</name>
								<parameterid>pan</parameterid>
								<valuemin>-1</valuemin>
								<valuemax>1</valuemax>
								<value>0</value>
							</parameter>
						</effect>
					</filter>
					<sourcetrack>
						<mediatype>audio</mediatype>
						<trackindex>1</trackindex>
					</sourcetrack>
					<itemhistory>
						<uuid>25A19552-AD5B-4821-8C1E-C21C9523C70E</uuid>
					</itemhistory>
				</clipitem>
				<clipitem id="DYR19742_01 3">
					<name>DYR19742_01</name>
					<duration>3480</duration>
					<rate>
						<ntsc>FALSE</ntsc>
						<timebase>25</timebase>
					</rate>
					<in>441</in>
					<out>556</out>
					<start>17068</start>
					<end>17183</end>
					<masterclipid>DYR19742_01 1</masterclipid>
					<logginginfo>
						<scene/>
						<shottake/>
						<lognote/>
						<good>FALSE</good>
					</logginginfo>
					<labels>
						<label2/>
					</labels>
					<comments>
						<mastercomment1/>
						<mastercomment2/>
						<mastercomment3/>
						<mastercomment4/>
					</comments>
					<file id="DYR19742_01 2"/>
					<filter>
						<effect>
							<name>Audio Levels</name>
							<effectid>audiolevels</effectid>
							<effectcategory>audiolevels</effectcategory>
							<effecttype>audiolevels</effecttype>
							<mediatype>audio</mediatype>
							<parameter>
								<name>Level</name>
								<parameterid>level</parameterid>
								<valuemin>0</valuemin>
								<valuemax>3.98109</valuemax>
								<value>1.99526</value>
							</parameter>
						</effect>
					</filter>
					<filter>
						<effect>
							<name>Audio Pan</name>
							<effectid>audiopan</effectid>
							<effectcategory>audiopan</effectcategory>
							<effecttype>audiopan</effecttype>
							<mediatype>audio</mediatype>
							<parameter>
								<name>Pan</name>
								<parameterid>pan</parameterid>
								<valuemin>-1</valuemin>
								<valuemax>1</valuemax>
								<value>0</value>
							</parameter>
						</effect>
					</filter>
					<sourcetrack>
						<mediatype>audio</mediatype>
						<trackindex>1</trackindex>
					</sourcetrack>
					<link>
						<linkclipref>DYR19742_01 </linkclipref>
						<mediatype>video</mediatype>
						<trackindex>1</trackindex>
						<clipindex>176</clipindex>
					</link>
					<link>
						<linkclipref>DYR19742_01 3</linkclipref>
						<mediatype>audio</mediatype>
						<trackindex>1</trackindex>
						<clipindex>103</clipindex>
					</link>
					<itemhistory>
						<uuid>81271B27-6BAC-4E7C-981E-A179E165DAB9</uuid>
					</itemhistory>
				</clipitem>
				<clipitem id="DYR19742_01 6">
					<name>DYR19742_01</name>
					<duration>3480</duration>
					<rate>
						<ntsc>FALSE</ntsc>
						<timebase>25</timebase>
					</rate>
					<in>1436</in>
					<out>1496</out>
					<start>17183</start>
					<end>17243</end>
					<masterclipid>DYR19742_01 1</masterclipid>
					<logginginfo>
						<scene/>
						<shottake/>
						<lognote/>
						<good>FALSE</good>
					</logginginfo>
					<labels>
						<label2/>
					</labels>
					<comments>
						<mastercomment1/>
						<mastercomment2/>
						<mastercomment3/>
						<mastercomment4/>
					</comments>
					<file id="DYR19742_01 2"/>
					<filter>
						<effect>
							<name>Audio Levels</name>
							<effectid>audiolevels</effectid>
							<effectcategory>audiolevels</effectcategory>
							<effecttype>audiolevels</effecttype>
							<mediatype>audio</mediatype>
							<parameter>
								<name>Level</name>
								<parameterid>level</parameterid>
								<valuemin>0</valuemin>
								<valuemax>3.98109</valuemax>
								<value>1.58489</value>
							</parameter>
						</effect>
					</filter>
					<filter>
						<effect>
							<name>Audio Pan</name>
							<effectid>audiopan</effectid>
							<effectcategory>audiopan</effectcategory>
							<effecttype>audiopan</effecttype>
							<mediatype>audio</mediatype>
							<parameter>
								<name>Pan</name>
								<parameterid>pan</parameterid>
								<valuemin>-1</valuemin>
								<valuemax>1</valuemax>
								<value>0</value>
							</parameter>
						</effect>
					</filter>
					<sourcetrack>
						<mediatype>audio</mediatype>
						<trackindex>1</trackindex>
					</sourcetrack>
					<link>
						<linkclipref>DYR19742_01 6</linkclipref>
						<mediatype>audio</mediatype>
						<trackindex>1</trackindex>
						<clipindex>104</clipindex>
					</link>
					<itemhistory>
						<uuid>ACECA7C0-C4CD-4B61-812D-3C27CE103A43</uuid>
					</itemhistory>
				</clipitem>
				<clipitem id="DYR19742_01 5">
					<name>DYR19742_01</name>
					<duration>4338</duration>
					<rate>
						<ntsc>FALSE</ntsc>
						<timebase>25</timebase>
					</rate>
					<in>3804</in>
					<out>3894</out>
					<start>17272</start>
					<end>17362</end>
					<masterclipid>DYR19742_01 1</masterclipid>
					<logginginfo>
						<scene/>
						<shottake/>
						<lognote/>
						<good>FALSE</good>
					</logginginfo>
					<labels>
						<label2/>
					</labels>
					<comments>
						<mastercomment1/>
						<mastercomment2/>
						<mastercomment3/>
						<mastercomment4/>
					</comments>
					<file id="DYR19742_01 2"/>
					<filter>
						<effect>
							<name>Audio Levels</name>
							<effectid>audiolevels</effectid>
							<effectcategory>audiolevels</effectcategory>
							<effecttype>audiolevels</effecttype>
							<mediatype>audio</mediatype>
							<parameter>
								<name>Level</name>
								<parameterid>level</parameterid>
								<valuemin>0</valuemin>
								<valuemax>3.98109</valuemax>
								<value>1.58489</value>
							</parameter>
						</effect>
					</filter>
					<filter>
						<effect>
							<name>Audio Pan</name>
							<effectid>audiopan</effectid>
							<effectcategory>audiopan</effectcategory>
							<effecttype>audiopan</effecttype>
							<mediatype>audio</mediatype>
							<parameter>
								<name>Pan</name>
								<parameterid>pan</parameterid>
								<valuemin>-1</valuemin>
								<valuemax>1</valuemax>
								<value>0</value>
							</parameter>
						</effect>
					</filter>
					<sourcetrack>
						<mediatype>audio</mediatype>
						<trackindex>1</trackindex>
					</sourcetrack>
					<link>
						<linkclipref>DYR19742_01 4</linkclipref>
						<mediatype>video</mediatype>
						<trackindex>1</trackindex>
						<clipindex>180</clipindex>
					</link>
					<link>
						<linkclipref>DYR19742_01 5</linkclipref>
						<mediatype>audio</mediatype>
						<trackindex>1</trackindex>
						<clipindex>105</clipindex>
					</link>
					<itemhistory>
						<uuid>2C12AEFD-0FDD-47D7-B586-EA977D7A578B</uuid>
					</itemhistory>
					<filter>
						<effect>
							<name>Time Remap</name>
							<effectid>timeremap</effectid>
							<effectcategory>motion</effectcategory>
							<effecttype>motion</effecttype>
							<mediatype>audio</mediatype>
							<parameter>
								<parameterid>variablespeed</parameterid>
								<name>variablespeed</name>
								<valuemin>0</valuemin>
								<valuemax>1</valuemax>
								<value>0</value>
							</parameter>
							<parameter>
								<parameterid>mappedduration</parameterid>
								<name>mappedduration</name>
								<value>
									<timecode>
										<rate>
											<timebase>0</timebase>
										</rate>
										<string>0</string>
										<frame>0</frame>
										<displayformat>NDF</displayformat>
									</timecode>
								</value>
							</parameter>
							<parameter>
								<parameterid>speed</parameterid>
								<name>speed</name>
								<valuemin>-10000</valuemin>
								<valuemax>10000</valuemax>
								<value>80</value>
							</parameter>
							<parameter>
								<parameterid>reverse</parameterid>
								<name>reverse</name>
								<value>FALSE</value>
							</parameter>
							<parameter>
								<parameterid>frameblending</parameterid>
								<name>frameblending</name>
								<value>TRUE</value>
							</parameter>
							<parameter>
								<parameterid>graphdict</parameterid>
								<name>graphdict</name>
								<valuemin>0</valuemin>
								<valuemax>3479</valuemax>
								<keyframe>
									<when>0</when>
									<value>0.5551</value>
									<speedkfstart>TRUE</speedkfstart>
									<speedvirtualkf>TRUE</speedvirtualkf>
									<anchorOffset>0.5551</anchorOffset>
								</keyframe>
								<keyframe>
									<when>3804</when>
									<value>3052</value>
									<speedkfin>TRUE</speedkfin>
									<speedvirtualkf>TRUE</speedvirtualkf>
								</keyframe>
								<keyframe>
									<when>3894</when>
									<value>3124.2</value>
									<speedkfout>TRUE</speedkfout>
									<speedvirtualkf>TRUE</speedvirtualkf>
								</keyframe>
								<keyframe>
									<when>4338</when>
									<value>3480.56</value>
									<speedkfend>TRUE</speedkfend>
									<speedvirtualkf>TRUE</speedvirtualkf>
								</keyframe>
								<interpolation>
									<name>FCPCurve</name>
								</interpolation>
								<value>3052</value>
							</parameter>
						</effect>
					</filter>
				</clipitem>
				<clipitem id="DYR19742_01 7">
					<name>DYR19742_01</name>
					<duration>2883</duration>
					<rate>
						<ntsc>FALSE</ntsc>
						<timebase>25</timebase>
					</rate>
					<in>2599</in>
					<out>2649</out>
					<start>17362</start>
					<end>17412</end>
					<masterclipid>DYR19742_01 1</masterclipid>
					<logginginfo>
						<scene/>
						<shottake/>
						<lognote/>
						<good>FALSE</good>
					</logginginfo>
					<labels>
						<label2/>
					</labels>
					<comments>
						<mastercomment1/>
						<mastercomment2/>
						<mastercomment3/>
						<mastercomment4/>
					</comments>
					<file id="DYR19742_01 2"/>
					<filter>
						<effect>
							<name>Audio Levels</name>
							<effectid>audiolevels</effectid>
							<effectcategory>audiolevels</effectcategory>
							<effecttype>audiolevels</effecttype>
							<mediatype>audio</mediatype>
							<parameter>
								<name>Level</name>
								<parameterid>level</parameterid>
								<valuemin>0</valuemin>
								<valuemax>3.98109</valuemax>
								<value>1.58489</value>
							</parameter>
						</effect>
					</filter>
					<filter>
						<effect>
							<name>Audio Pan</name>
							<effectid>audiopan</effectid>
							<effectcategory>audiopan</effectcategory>
							<effecttype>audiopan</effecttype>
							<mediatype>audio</mediatype>
							<parameter>
								<name>Pan</name>
								<parameterid>pan</parameterid>
								<valuemin>-1</valuemin>
								<valuemax>1</valuemax>
								<value>0</value>
							</parameter>
						</effect>
					</filter>
					<sourcetrack>
						<mediatype>audio</mediatype>
						<trackindex>1</trackindex>
					</sourcetrack>
					<itemhistory>
						<uuid>234C5927-82F1-4E45-8415-093A50595375</uuid>
					</itemhistory>
					<filter>
						<effect>
							<name>Time Remap</name>
							<effectid>timeremap</effectid>
							<effectcategory>motion</effectcategory>
							<effecttype>motion</effecttype>
							<mediatype>audio</mediatype>
							<parameter>
								<parameterid>variablespeed</parameterid>
								<name>variablespeed</name>
								<valuemin>0</valuemin>
								<valuemax>1</valuemax>
								<value>0</value>
							</parameter>
							<parameter>
								<parameterid>mappedduration</parameterid>
								<name>mappedduration</name>
								<value>
									<timecode>
										<rate>
											<timebase>0</timebase>
										</rate>
										<string>0</string>
										<frame>0</frame>
										<displayformat>NDF</displayformat>
									</timecode>
								</value>
							</parameter>
							<parameter>
								<parameterid>speed</parameterid>
								<name>speed</name>
								<valuemin>-10000</valuemin>
								<valuemax>10000</valuemax>
								<value>120</value>
							</parameter>
							<parameter>
								<parameterid>reverse</parameterid>
								<name>reverse</name>
								<value>FALSE</value>
							</parameter>
							<parameter>
								<parameterid>frameblending</parameterid>
								<name>frameblending</name>
								<value>TRUE</value>
							</parameter>
							<parameter>
								<parameterid>graphdict</parameterid>
								<name>graphdict</name>
								<valuemin>0</valuemin>
								<valuemax>3479</valuemax>
								<keyframe>
									<when>0</when>
									<value>0.9063</value>
									<speedkfstart>TRUE</speedkfstart>
									<speedvirtualkf>TRUE</speedvirtualkf>
									<anchorOffset>0.9063</anchorOffset>
								</keyframe>
								<keyframe>
									<when>2599</when>
									<value>3138.28</value>
									<speedkfin>TRUE</speedkfin>
									<speedvirtualkf>TRUE</speedvirtualkf>
								</keyframe>
								<keyframe>
									<when>2649</when>
									<value>3198.64</value>
									<speedkfout>TRUE</speedkfout>
									<speedvirtualkf>TRUE</speedvirtualkf>
								</keyframe>
								<keyframe>
									<when>2883</when>
									<value>3480.91</value>
									<speedkfend>TRUE</speedkfend>
									<speedvirtualkf>TRUE</speedvirtualkf>
								</keyframe>
								<interpolation>
									<name>FCPCurve</name>
								</interpolation>
								<value>3138.28</value>
							</parameter>
						</effect>
					</filter>
				</clipitem>
				<clipitem id="DYR19770_01 8">
					<name>DYR19770_01</name>
					<duration>3992</duration>
					<rate>
						<ntsc>FALSE</ntsc>
						<timebase>25</timebase>
					</rate>
					<in>67</in>
					<out>124</out>
					<start>17504</start>
					<end>-1</end>
					<masterclipid>DYR19770_01 1</masterclipid>
					<logginginfo>
						<scene/>
						<shottake/>
						<lognote/>
						<good>FALSE</good>
					</logginginfo>
					<labels>
						<label2/>
					</labels>
					<comments>
						<mastercomment1/>
						<mastercomment2/>
						<mastercomment3/>
						<mastercomment4/>
					</comments>
					<file id="DYR19770_01 2"/>
					<filter>
						<effect>
							<name>Audio Levels</name>
							<effectid>audiolevels</effectid>
							<effectcategory>audiolevels</effectcategory>
							<effecttype>audiolevels</effecttype>
							<mediatype>audio</mediatype>
							<parameter>
								<name>Level</name>
								<parameterid>level</parameterid>
								<valuemin>0</valuemin>
								<valuemax>3.98109</valuemax>
								<value>1.58489</value>
							</parameter>
						</effect>
					</filter>
					<filter>
						<effect>
							<name>Audio Pan</name>
							<effectid>audiopan</effectid>
							<effectcategory>audiopan</effectcategory>
							<effecttype>audiopan</effecttype>
							<mediatype>audio</mediatype>
							<parameter>
								<name>Pan</name>
								<parameterid>pan</parameterid>
								<valuemin>-1</valuemin>
								<valuemax>1</valuemax>
								<value>0</value>
							</parameter>
						</effect>
					</filter>
					<sourcetrack>
						<mediatype>audio</mediatype>
						<trackindex>1</trackindex>
					</sourcetrack>
					<link>
						<linkclipref>DYR19770_01 8</linkclipref>
						<mediatype>audio</mediatype>
						<trackindex>1</trackindex>
						<clipindex>107</clipindex>
					</link>
					<itemhistory>
						<uuid>407924CF-810D-4BA4-964E-9D08B70CFCE1</uuid>
					</itemhistory>
				</clipitem>
				<transitionitem>
					<rate>
						<ntsc>FALSE</ntsc>
						<timebase>25</timebase>
					</rate>
					<start>17559</start>
					<end>17561</end>
					<alignment>center</alignment>
					<effect>
						<name>Cross Fade (+3dB)</name>
						<effectid>KGAudioTransCrossFade3dB</effectid>
						<effecttype>transition</effecttype>
						<mediatype>audio</mediatype>
					</effect>
				</transitionitem>
				<clipitem id="DYR19770_01 3">
					<name>DYR19770_01</name>
					<duration>3992</duration>
					<rate>
						<ntsc>FALSE</ntsc>
						<timebase>25</timebase>
					</rate>
					<in>219</in>
					<out>263</out>
					<start>-1</start>
					<end>-1</end>
					<masterclipid>DYR19770_01 1</masterclipid>
					<logginginfo>
						<scene/>
						<shottake/>
						<lognote/>
						<good>FALSE</good>
					</logginginfo>
					<labels>
						<label2/>
					</labels>
					<comments>
						<mastercomment1/>
						<mastercomment2/>
						<mastercomment3/>
						<mastercomment4/>
					</comments>
					<file id="DYR19770_01 2"/>
					<filter>
						<effect>
							<name>Audio Levels</name>
							<effectid>audiolevels</effectid>
							<effectcategory>audiolevels</effectcategory>
							<effecttype>audiolevels</effecttype>
							<mediatype>audio</mediatype>
							<parameter>
								<name>Level</name>
								<parameterid>level</parameterid>
								<valuemin>0</valuemin>
								<valuemax>3.98109</valuemax>
								<value>1.58489</value>
							</parameter>
						</effect>
					</filter>
					<filter>
						<effect>
							<name>Audio Pan</name>
							<effectid>audiopan</effectid>
							<effectcategory>audiopan</effectcategory>
							<effecttype>audiopan</effecttype>
							<mediatype>audio</mediatype>
							<parameter>
								<name>Pan</name>
								<parameterid>pan</parameterid>
								<valuemin>-1</valuemin>
								<valuemax>1</valuemax>
								<value>0</value>
							</parameter>
						</effect>
					</filter>
					<sourcetrack>
						<mediatype>audio</mediatype>
						<trackindex>1</trackindex>
					</sourcetrack>
					<link>
						<linkclipref>DYR19770_01 </linkclipref>
						<mediatype>video</mediatype>
						<trackindex>1</trackindex>
						<clipindex>185</clipindex>
					</link>
					<link>
						<linkclipref>DYR19770_01 3</linkclipref>
						<mediatype>audio</mediatype>
						<trackindex>1</trackindex>
						<clipindex>109</clipindex>
					</link>
					<itemhistory>
						<uuid>29F24446-6252-4890-98E4-E35348A068C0</uuid>
					</itemhistory>
				</clipitem>
				<transitionitem>
					<rate>
						<ntsc>FALSE</ntsc>
						<timebase>25</timebase>
					</rate>
					<start>17601</start>
					<end>17603</end>
					<alignment>center</alignment>
					<effect>
						<name>Cross Fade (+3dB)</name>
						<effectid>KGAudioTransCrossFade3dB</effectid>
						<effecttype>transition</effecttype>
						<mediatype>audio</mediatype>
					</effect>
				</transitionitem>
				<clipitem id="DYR19770_01 9">
					<name>DYR19770_01</name>
					<duration>3992</duration>
					<rate>
						<ntsc>FALSE</ntsc>
						<timebase>25</timebase>
					</rate>
					<in>769</in>
					<out>849</out>
					<start>-1</start>
					<end>17681</end>
					<masterclipid>DYR19770_01 1</masterclipid>
					<logginginfo>
						<scene/>
						<shottake/>
						<lognote/>
						<good>FALSE</good>
					</logginginfo>
					<labels>
						<label2/>
					</labels>
					<comments>
						<mastercomment1/>
						<mastercomment2/>
						<mastercomment3/>
						<mastercomment4/>
					</comments>
					<file id="DYR19770_01 2"/>
					<filter>
						<effect>
							<name>Audio Levels</name>
							<effectid>audiolevels</effectid>
							<effectcategory>audiolevels</effectcategory>
							<effecttype>audiolevels</effecttype>
							<mediatype>audio</mediatype>
							<parameter>
								<name>Level</name>
								<parameterid>level</parameterid>
								<valuemin>0</valuemin>
								<valuemax>3.98109</valuemax>
								<value>1</value>
							</parameter>
						</effect>
					</filter>
					<filter>
						<effect>
							<name>Audio Pan</name>
							<effectid>audiopan</effectid>
							<effectcategory>audiopan</effectcategory>
							<effecttype>audiopan</effecttype>
							<mediatype>audio</mediatype>
							<parameter>
								<name>Pan</name>
								<parameterid>pan</parameterid>
								<valuemin>-1</valuemin>
								<valuemax>1</valuemax>
								<value>0</value>
							</parameter>
						</effect>
					</filter>
					<sourcetrack>
						<mediatype>audio</mediatype>
						<trackindex>1</trackindex>
					</sourcetrack>
					<link>
						<linkclipref>DYR19770_01 9</linkclipref>
						<mediatype>audio</mediatype>
						<trackindex>1</trackindex>
						<clipindex>111</clipindex>
					</link>
					<itemhistory>
						<uuid>0C3BAB32-3009-4118-9969-F799EB0F4561</uuid>
					</itemhistory>
				</clipitem>
				<clipitem id="DYR19763_01 3">
					<name>DYR19763_01</name>
					<duration>1407</duration>
					<rate>
						<ntsc>FALSE</ntsc>
						<timebase>25</timebase>
					</rate>
					<in>597</in>
					<out>625</out>
					<start>17710</start>
					<end>-1</end>
					<masterclipid>DYR19763_01 1</masterclipid>
					<logginginfo>
						<scene/>
						<shottake/>
						<lognote/>
						<good>FALSE</good>
					</logginginfo>
					<labels>
						<label2/>
					</labels>
					<comments>
						<mastercomment1/>
						<mastercomment2/>
						<mastercomment3/>
						<mastercomment4/>
					</comments>
					<file id="DYR19763_01 2"/>
					<filter>
						<effect>
							<name>Audio Levels</name>
							<effectid>audiolevels</effectid>
							<effectcategory>audiolevels</effectcategory>
							<effecttype>audiolevels</effecttype>
							<mediatype>audio</mediatype>
							<parameter>
								<name>Level</name>
								<parameterid>level</parameterid>
								<valuemin>0</valuemin>
								<valuemax>3.98109</valuemax>
								<value>1</value>
							</parameter>
						</effect>
					</filter>
					<filter>
						<effect>
							<name>Audio Pan</name>
							<effectid>audiopan</effectid>
							<effectcategory>audiopan</effectcategory>
							<effecttype>audiopan</effecttype>
							<mediatype>audio</mediatype>
							<parameter>
								<name>Pan</name>
								<parameterid>pan</parameterid>
								<valuemin>-1</valuemin>
								<valuemax>1</valuemax>
								<value>0</value>
							</parameter>
						</effect>
					</filter>
					<sourcetrack>
						<mediatype>audio</mediatype>
						<trackindex>1</trackindex>
					</sourcetrack>
					<link>
						<linkclipref>DYR19763_01 3</linkclipref>
						<mediatype>audio</mediatype>
						<trackindex>1</trackindex>
						<clipindex>112</clipindex>
					</link>
					<itemhistory>
						<uuid>7A381452-FD61-4F67-AADB-7034E0CDD14B</uuid>
					</itemhistory>
				</clipitem>
				<transitionitem>
					<rate>
						<ntsc>FALSE</ntsc>
						<timebase>25</timebase>
					</rate>
					<start>17736</start>
					<end>17738</end>
					<alignment>center</alignment>
					<effect>
						<name>Cross Fade (+3dB)</name>
						<effectid>KGAudioTransCrossFade3dB</effectid>
						<effecttype>transition</effecttype>
						<mediatype>audio</mediatype>
					</effect>
				</transitionitem>
				<clipitem id="DYR19763_01 4">
					<name>DYR19763_01</name>
					<duration>1407</duration>
					<rate>
						<ntsc>FALSE</ntsc>
						<timebase>25</timebase>
					</rate>
					<in>639</in>
					<out>696</out>
					<start>-1</start>
					<end>17793</end>
					<masterclipid>DYR19763_01 1</masterclipid>
					<logginginfo>
						<scene/>
						<shottake/>
						<lognote/>
						<good>FALSE</good>
					</logginginfo>
					<labels>
						<label2/>
					</labels>
					<comments>
						<mastercomment1/>
						<mastercomment2/>
						<mastercomment3/>
						<mastercomment4/>
					</comments>
					<file id="DYR19763_01 2"/>
					<filter>
						<effect>
							<name>Audio Levels</name>
							<effectid>audiolevels</effectid>
							<effectcategory>audiolevels</effectcategory>
							<effecttype>audiolevels</effecttype>
							<mediatype>audio</mediatype>
							<parameter>
								<name>Level</name>
								<parameterid>level</parameterid>
								<valuemin>0</valuemin>
								<valuemax>3.98109</valuemax>
								<value>1</value>
							</parameter>
						</effect>
					</filter>
					<filter>
						<effect>
							<name>Audio Pan</name>
							<effectid>audiopan</effectid>
							<effectcategory>audiopan</effectcategory>
							<effecttype>audiopan</effecttype>
							<mediatype>audio</mediatype>
							<parameter>
								<name>Pan</name>
								<parameterid>pan</parameterid>
								<valuemin>-1</valuemin>
								<valuemax>1</valuemax>
								<value>0</value>
							</parameter>
						</effect>
					</filter>
					<sourcetrack>
						<mediatype>audio</mediatype>
						<trackindex>1</trackindex>
					</sourcetrack>
					<link>
						<linkclipref>DYR19763_01 4</linkclipref>
						<mediatype>audio</mediatype>
						<trackindex>1</trackindex>
						<clipindex>114</clipindex>
					</link>
					<itemhistory>
						<uuid>E7CDAF68-12F5-4AD0-8A92-F4C178A64C13</uuid>
					</itemhistory>
				</clipitem>
				<clipitem id="DYR19770_01 5">
					<name>DYR19770_01</name>
					<duration>3992</duration>
					<rate>
						<ntsc>FALSE</ntsc>
						<timebase>25</timebase>
					</rate>
					<in>2827</in>
					<out>2856</out>
					<start>17793</start>
					<end>17822</end>
					<masterclipid>DYR19770_01 1</masterclipid>
					<logginginfo>
						<scene/>
						<shottake/>
						<lognote/>
						<good>FALSE</good>
					</logginginfo>
					<labels>
						<label2/>
					</labels>
					<comments>
						<mastercomment1/>
						<mastercomment2/>
						<mastercomment3/>
						<mastercomment4/>
					</comments>
					<file id="DYR19770_01 2"/>
					<filter>
						<effect>
							<name>Audio Levels</name>
							<effectid>audiolevels</effectid>
							<effectcategory>audiolevels</effectcategory>
							<effecttype>audiolevels</effecttype>
							<mediatype>audio</mediatype>
							<parameter>
								<name>Level</name>
								<parameterid>level</parameterid>
								<valuemin>0</valuemin>
								<valuemax>3.98109</valuemax>
								<value>0</value>
							</parameter>
						</effect>
					</filter>
					<filter>
						<effect>
							<name>Audio Pan</name>
							<effectid>audiopan</effectid>
							<effectcategory>audiopan</effectcategory>
							<effecttype>audiopan</effecttype>
							<mediatype>audio</mediatype>
							<parameter>
								<name>Pan</name>
								<parameterid>pan</parameterid>
								<valuemin>-1</valuemin>
								<valuemax>1</valuemax>
								<value>0</value>
							</parameter>
						</effect>
					</filter>
					<sourcetrack>
						<mediatype>audio</mediatype>
						<trackindex>1</trackindex>
					</sourcetrack>
					<link>
						<linkclipref>DYR19770_01 4</linkclipref>
						<mediatype>video</mediatype>
						<trackindex>1</trackindex>
						<clipindex>191</clipindex>
					</link>
					<link>
						<linkclipref>DYR19770_01 5</linkclipref>
						<mediatype>audio</mediatype>
						<trackindex>1</trackindex>
						<clipindex>115</clipindex>
					</link>
					<itemhistory>
						<uuid>857543E8-6C02-4166-8B70-683F9E080B8F</uuid>
					</itemhistory>
				</clipitem>
				<clipitem id="DYR19761_01 4">
					<name>DYR19761_01</name>
					<duration>2643</duration>
					<rate>
						<ntsc>FALSE</ntsc>
						<timebase>25</timebase>
					</rate>
					<in>674</in>
					<out>805</out>
					<start>17822</start>
					<end>17953</end>
					<masterclipid>DYR19761_01 1</masterclipid>
					<logginginfo>
						<scene/>
						<shottake/>
						<lognote/>
						<good>FALSE</good>
					</logginginfo>
					<labels>
						<label2/>
					</labels>
					<comments>
						<mastercomment1/>
						<mastercomment2/>
						<mastercomment3/>
						<mastercomment4/>
					</comments>
					<file id="DYR19761_01 2"/>
					<filter>
						<effect>
							<name>Audio Levels</name>
							<effectid>audiolevels</effectid>
							<effectcategory>audiolevels</effectcategory>
							<effecttype>audiolevels</effecttype>
							<mediatype>audio</mediatype>
							<parameter>
								<name>Level</name>
								<parameterid>level</parameterid>
								<valuemin>0</valuemin>
								<valuemax>3.98109</valuemax>
								<value>3.98107</value>
							</parameter>
						</effect>
					</filter>
					<filter>
						<effect>
							<name>Audio Pan</name>
							<effectid>audiopan</effectid>
							<effectcategory>audiopan</effectcategory>
							<effecttype>audiopan</effecttype>
							<mediatype>audio</mediatype>
							<parameter>
								<name>Pan</name>
								<parameterid>pan</parameterid>
								<valuemin>-1</valuemin>
								<valuemax>1</valuemax>
								<value>0</value>
							</parameter>
						</effect>
					</filter>
					<sourcetrack>
						<mediatype>audio</mediatype>
						<trackindex>1</trackindex>
					</sourcetrack>
					<itemhistory>
						<uuid>5114F02D-6DA1-41C1-BC1A-D8120173F3F0</uuid>
					</itemhistory>
				</clipitem>
				<clipitem id="DYR19770_01 7">
					<name>DYR19770_01</name>
					<duration>3992</duration>
					<rate>
						<ntsc>FALSE</ntsc>
						<timebase>25</timebase>
					</rate>
					<in>1695</in>
					<out>1815</out>
					<start>17953</start>
					<end>18073</end>
					<masterclipid>DYR19770_01 1</masterclipid>
					<logginginfo>
						<scene/>
						<shottake/>
						<lognote/>
						<good>FALSE</good>
					</logginginfo>
					<labels>
						<label2/>
					</labels>
					<comments>
						<mastercomment1/>
						<mastercomment2/>
						<mastercomment3/>
						<mastercomment4/>
					</comments>
					<file id="DYR19770_01 2"/>
					<filter>
						<effect>
							<name>Audio Levels</name>
							<effectid>audiolevels</effectid>
							<effectcategory>audiolevels</effectcategory>
							<effecttype>audiolevels</effecttype>
							<mediatype>audio</mediatype>
							<parameter>
								<name>Level</name>
								<parameterid>level</parameterid>
								<valuemin>0</valuemin>
								<valuemax>3.98109</valuemax>
								<value>3.98107</value>
							</parameter>
						</effect>
					</filter>
					<filter>
						<effect>
							<name>Audio Pan</name>
							<effectid>audiopan</effectid>
							<effectcategory>audiopan</effectcategory>
							<effecttype>audiopan</effecttype>
							<mediatype>audio</mediatype>
							<parameter>
								<name>Pan</name>
								<parameterid>pan</parameterid>
								<valuemin>-1</valuemin>
								<valuemax>1</valuemax>
								<value>0</value>
							</parameter>
						</effect>
					</filter>
					<sourcetrack>
						<mediatype>audio</mediatype>
						<trackindex>1</trackindex>
					</sourcetrack>
					<link>
						<linkclipref>DYR19770_01 6</linkclipref>
						<mediatype>video</mediatype>
						<trackindex>1</trackindex>
						<clipindex>195</clipindex>
					</link>
					<link>
						<linkclipref>DYR19770_01 7</linkclipref>
						<mediatype>audio</mediatype>
						<trackindex>1</trackindex>
						<clipindex>117</clipindex>
					</link>
					<itemhistory>
						<uuid>3AF812B7-EDDC-4191-B645-37829DCF0CB7</uuid>
					</itemhistory>
				</clipitem>
				<clipitem id="DYR19768_01 6">
					<name>DYR19768_01</name>
					<duration>3048</duration>
					<rate>
						<ntsc>FALSE</ntsc>
						<timebase>25</timebase>
					</rate>
					<in>1248</in>
					<out>1470</out>
					<start>18394</start>
					<end>18616</end>
					<masterclipid>DYR19768_01 1</masterclipid>
					<logginginfo>
						<scene/>
						<shottake/>
						<lognote/>
						<good>FALSE</good>
					</logginginfo>
					<labels>
						<label2/>
					</labels>
					<comments>
						<mastercomment1/>
						<mastercomment2/>
						<mastercomment3/>
						<mastercomment4/>
					</comments>
					<file id="DYR19768_01 2"/>
					<filter>
						<effect>
							<name>Audio Levels</name>
							<effectid>audiolevels</effectid>
							<effectcategory>audiolevels</effectcategory>
							<effecttype>audiolevels</effecttype>
							<mediatype>audio</mediatype>
							<parameter>
								<name>Level</name>
								<parameterid>level</parameterid>
								<valuemin>0</valuemin>
								<valuemax>3.98109</valuemax>
								<value>3.54813</value>
							</parameter>
						</effect>
					</filter>
					<filter>
						<effect>
							<name>Audio Pan</name>
							<effectid>audiopan</effectid>
							<effectcategory>audiopan</effectcategory>
							<effecttype>audiopan</effecttype>
							<mediatype>audio</mediatype>
							<parameter>
								<name>Pan</name>
								<parameterid>pan</parameterid>
								<valuemin>-1</valuemin>
								<valuemax>1</valuemax>
								<value>0</value>
							</parameter>
						</effect>
					</filter>
					<sourcetrack>
						<mediatype>audio</mediatype>
						<trackindex>1</trackindex>
					</sourcetrack>
					<link>
						<linkclipref>DYR19768_01 6</linkclipref>
						<mediatype>audio</mediatype>
						<trackindex>1</trackindex>
						<clipindex>118</clipindex>
					</link>
					<link>
						<linkclipref>DYR19768_01 7</linkclipref>
						<mediatype>audio</mediatype>
						<trackindex>2</trackindex>
						<clipindex>97</clipindex>
					</link>
					<itemhistory>
						<uuid>0F96C13C-0A6E-43A8-A3FD-35DF5049450D</uuid>
					</itemhistory>
				</clipitem>
				<clipitem id="DYR19789_01 3">
					<name>DYR19789_01</name>
					<duration>4712</duration>
					<rate>
						<ntsc>FALSE</ntsc>
						<timebase>25</timebase>
					</rate>
					<in>774</in>
					<out>954</out>
					<start>18768</start>
					<end>18948</end>
					<masterclipid>DYR19789_01 1</masterclipid>
					<logginginfo>
						<scene/>
						<shottake/>
						<lognote/>
						<good>FALSE</good>
					</logginginfo>
					<labels>
						<label2/>
					</labels>
					<comments>
						<mastercomment1/>
						<mastercomment2/>
						<mastercomment3/>
						<mastercomment4/>
					</comments>
					<file id="DYR19789_01 2"/>
					<filter>
						<effect>
							<name>Audio Levels</name>
							<effectid>audiolevels</effectid>
							<effectcategory>audiolevels</effectcategory>
							<effecttype>audiolevels</effecttype>
							<mediatype>audio</mediatype>
							<parameter>
								<name>Level</name>
								<parameterid>level</parameterid>
								<valuemin>0</valuemin>
								<valuemax>3.98109</valuemax>
								<value>1.58489</value>
							</parameter>
						</effect>
					</filter>
					<filter>
						<effect>
							<name>Audio Pan</name>
							<effectid>audiopan</effectid>
							<effectcategory>audiopan</effectcategory>
							<effecttype>audiopan</effecttype>
							<mediatype>audio</mediatype>
							<parameter>
								<name>Pan</name>
								<parameterid>pan</parameterid>
								<valuemin>-1</valuemin>
								<valuemax>1</valuemax>
								<value>0</value>
							</parameter>
						</effect>
					</filter>
					<sourcetrack>
						<mediatype>audio</mediatype>
						<trackindex>1</trackindex>
					</sourcetrack>
					<link>
						<linkclipref>DYR19789_01 </linkclipref>
						<mediatype>video</mediatype>
						<trackindex>1</trackindex>
						<clipindex>206</clipindex>
					</link>
					<link>
						<linkclipref>DYR19789_01 3</linkclipref>
						<mediatype>audio</mediatype>
						<trackindex>1</trackindex>
						<clipindex>119</clipindex>
					</link>
					<link>
						<linkclipref>DYR19789_01 4</linkclipref>
						<mediatype>audio</mediatype>
						<trackindex>2</trackindex>
						<clipindex>98</clipindex>
					</link>
					<itemhistory>
						<uuid>30CBFBCF-3184-410D-BF9C-75710D4BBBD4</uuid>
					</itemhistory>
				</clipitem>
				<clipitem id="DYR19789_01 6">
					<name>DYR19789_01</name>
					<duration>4712</duration>
					<rate>
						<ntsc>FALSE</ntsc>
						<timebase>25</timebase>
					</rate>
					<in>1114</in>
					<out>1274</out>
					<start>18948</start>
					<end>19108</end>
					<subframeoffset>0</subframeoffset>
					<masterclipid>DYR19789_01 1</masterclipid>
					<logginginfo>
						<scene/>
						<shottake/>
						<lognote/>
						<good>FALSE</good>
					</logginginfo>
					<labels>
						<label2/>
					</labels>
					<comments>
						<mastercomment1/>
						<mastercomment2/>
						<mastercomment3/>
						<mastercomment4/>
					</comments>
					<file id="DYR19789_01 2"/>
					<filter>
						<effect>
							<name>Audio Levels</name>
							<effectid>audiolevels</effectid>
							<effectcategory>audiolevels</effectcategory>
							<effecttype>audiolevels</effecttype>
							<mediatype>audio</mediatype>
							<parameter>
								<name>Level</name>
								<parameterid>level</parameterid>
								<valuemin>0</valuemin>
								<valuemax>3.98109</valuemax>
								<value>1</value>
							</parameter>
						</effect>
					</filter>
					<filter>
						<effect>
							<name>Audio Pan</name>
							<effectid>audiopan</effectid>
							<effectcategory>audiopan</effectcategory>
							<effecttype>audiopan</effecttype>
							<mediatype>audio</mediatype>
							<parameter>
								<name>Pan</name>
								<parameterid>pan</parameterid>
								<valuemin>-1</valuemin>
								<valuemax>1</valuemax>
								<value>0</value>
							</parameter>
						</effect>
					</filter>
					<sourcetrack>
						<mediatype>audio</mediatype>
						<trackindex>1</trackindex>
					</sourcetrack>
					<link>
						<linkclipref>DYR19789_01 5</linkclipref>
						<mediatype>video</mediatype>
						<trackindex>1</trackindex>
						<clipindex>210</clipindex>
					</link>
					<link>
						<linkclipref>DYR19789_01 6</linkclipref>
						<mediatype>audio</mediatype>
						<trackindex>1</trackindex>
						<clipindex>120</clipindex>
					</link>
					<link>
						<linkclipref>DYR19789_01 7</linkclipref>
						<mediatype>audio</mediatype>
						<trackindex>2</trackindex>
						<clipindex>99</clipindex>
					</link>
					<itemhistory>
						<uuid>3E928F14-40C5-474D-BE4D-D3B9FB10ACA8</uuid>
					</itemhistory>
				</clipitem>
				<clipitem id="DYR19792_01 3">
					<name>DYR19792_01</name>
					<duration>526</duration>
					<rate>
						<ntsc>FALSE</ntsc>
						<timebase>25</timebase>
					</rate>
					<in>146</in>
					<out>280</out>
					<start>19194</start>
					<end>19328</end>
					<masterclipid>DYR19792_01 1</masterclipid>
					<logginginfo>
						<scene/>
						<shottake/>
						<lognote/>
						<good>FALSE</good>
					</logginginfo>
					<labels>
						<label2/>
					</labels>
					<comments>
						<mastercomment1/>
						<mastercomment2/>
						<mastercomment3/>
						<mastercomment4/>
					</comments>
					<file id="DYR19792_01 2"/>
					<filter>
						<effect>
							<name>Audio Levels</name>
							<effectid>audiolevels</effectid>
							<effectcategory>audiolevels</effectcategory>
							<effecttype>audiolevels</effecttype>
							<mediatype>audio</mediatype>
							<parameter>
								<name>Level</name>
								<parameterid>level</parameterid>
								<valuemin>0</valuemin>
								<valuemax>3.98109</valuemax>
								<value>1.77828</value>
							</parameter>
						</effect>
					</filter>
					<filter>
						<effect>
							<name>Audio Pan</name>
							<effectid>audiopan</effectid>
							<effectcategory>audiopan</effectcategory>
							<effecttype>audiopan</effecttype>
							<mediatype>audio</mediatype>
							<parameter>
								<name>Pan</name>
								<parameterid>pan</parameterid>
								<valuemin>-1</valuemin>
								<valuemax>1</valuemax>
								<value>0</value>
							</parameter>
						</effect>
					</filter>
					<sourcetrack>
						<mediatype>audio</mediatype>
						<trackindex>1</trackindex>
					</sourcetrack>
					<link>
						<linkclipref>DYR19792_01 </linkclipref>
						<mediatype>video</mediatype>
						<trackindex>1</trackindex>
						<clipindex>216</clipindex>
					</link>
					<link>
						<linkclipref>DYR19792_01 3</linkclipref>
						<mediatype>audio</mediatype>
						<trackindex>1</trackindex>
						<clipindex>121</clipindex>
					</link>
					<link>
						<linkclipref>DYR19792_01 4</linkclipref>
						<mediatype>audio</mediatype>
						<trackindex>2</trackindex>
						<clipindex>100</clipindex>
					</link>
					<itemhistory>
						<uuid>7FD9CDC3-ACF4-4D62-AEE8-F2E7ED9581D8</uuid>
					</itemhistory>
				</clipitem>
				<clipitem id="AA1447_01 3">
					<name>AA1447_01</name>
					<duration>1236</duration>
					<rate>
						<ntsc>FALSE</ntsc>
						<timebase>25</timebase>
					</rate>
					<in>47</in>
					<out>1086</out>
					<start>19328</start>
					<end>20367</end>
					<subframeoffset>0</subframeoffset>
					<masterclipid>AA1447_01 1</masterclipid>
					<logginginfo>
						<scene/>
						<shottake/>
						<lognote/>
						<good>FALSE</good>
					</logginginfo>
					<labels>
						<label2/>
					</labels>
					<comments>
						<mastercomment1/>
						<mastercomment2/>
						<mastercomment3/>
						<mastercomment4/>
					</comments>
					<file id="AA1447_01 2"/>
					<filter>
						<effect>
							<name>Audio Levels</name>
							<effectid>audiolevels</effectid>
							<effectcategory>audiolevels</effectcategory>
							<effecttype>audiolevels</effecttype>
							<mediatype>audio</mediatype>
							<parameter>
								<name>Level</name>
								<parameterid>level</parameterid>
								<valuemin>0</valuemin>
								<valuemax>3.98109</valuemax>
								<value>1.77828</value>
							</parameter>
						</effect>
					</filter>
					<filter>
						<effect>
							<name>Audio Pan</name>
							<effectid>audiopan</effectid>
							<effectcategory>audiopan</effectcategory>
							<effecttype>audiopan</effecttype>
							<mediatype>audio</mediatype>
							<parameter>
								<name>Pan</name>
								<parameterid>pan</parameterid>
								<valuemin>-1</valuemin>
								<valuemax>1</valuemax>
								<value>0</value>
							</parameter>
						</effect>
					</filter>
					<sourcetrack>
						<mediatype>audio</mediatype>
						<trackindex>1</trackindex>
					</sourcetrack>
					<link>
						<linkclipref>AA1447_01 </linkclipref>
						<mediatype>video</mediatype>
						<trackindex>1</trackindex>
						<clipindex>219</clipindex>
					</link>
					<link>
						<linkclipref>AA1447_01 3</linkclipref>
						<mediatype>audio</mediatype>
						<trackindex>1</trackindex>
						<clipindex>122</clipindex>
					</link>
					<link>
						<linkclipref>AA1447_01 4</linkclipref>
						<mediatype>audio</mediatype>
						<trackindex>2</trackindex>
						<clipindex>101</clipindex>
					</link>
					<itemhistory>
						<uuid>8B89E3B7-E5E6-4DCD-9C89-E265A0021A57</uuid>
					</itemhistory>
				</clipitem>
				<clipitem id="AA1448_01 3">
					<name>AA1448_01</name>
					<duration>456</duration>
					<rate>
						<ntsc>FALSE</ntsc>
						<timebase>25</timebase>
					</rate>
					<in>248</in>
					<out>307</out>
					<start>20367</start>
					<end>20426</end>
					<subframeoffset>0</subframeoffset>
					<enabled>TRUE</enabled>
					<masterclipid>AA1448_01 1</masterclipid>
					<logginginfo>
						<scene/>
						<shottake/>
						<lognote/>
						<good>FALSE</good>
					</logginginfo>
					<labels>
						<label2/>
					</labels>
					<comments>
						<mastercomment1/>
						<mastercomment2/>
						<mastercomment3/>
						<mastercomment4/>
					</comments>
					<file id="AA1448_01 2"/>
					<filter>
						<effect>
							<name>Audio Levels</name>
							<effectid>audiolevels</effectid>
							<effectcategory>audiolevels</effectcategory>
							<effecttype>audiolevels</effecttype>
							<mediatype>audio</mediatype>
							<parameter>
								<name>Level</name>
								<parameterid>level</parameterid>
								<valuemin>0</valuemin>
								<valuemax>3.98109</valuemax>
								<value>1.77828</value>
							</parameter>
						</effect>
					</filter>
					<filter>
						<effect>
							<name>Audio Pan</name>
							<effectid>audiopan</effectid>
							<effectcategory>audiopan</effectcategory>
							<effecttype>audiopan</effecttype>
							<mediatype>audio</mediatype>
							<parameter>
								<name>Pan</name>
								<parameterid>pan</parameterid>
								<valuemin>-1</valuemin>
								<valuemax>1</valuemax>
								<value>0</value>
							</parameter>
						</effect>
					</filter>
					<sourcetrack>
						<mediatype>audio</mediatype>
						<trackindex>1</trackindex>
					</sourcetrack>
					<link>
						<linkclipref>AA1448_01 </linkclipref>
						<mediatype>video</mediatype>
						<trackindex>1</trackindex>
						<clipindex>220</clipindex>
					</link>
					<link>
						<linkclipref>AA1448_01 3</linkclipref>
						<mediatype>audio</mediatype>
						<trackindex>1</trackindex>
						<clipindex>123</clipindex>
					</link>
					<link>
						<linkclipref>AA1448_01 4</linkclipref>
						<mediatype>audio</mediatype>
						<trackindex>2</trackindex>
						<clipindex>102</clipindex>
					</link>
					<itemhistory>
						<uuid>703A3A81-5C6A-43B5-A039-54C10502784E</uuid>
					</itemhistory>
				</clipitem>
				<clipitem id="AA1454_01 3">
					<name>AA1454_01</name>
					<duration>1152</duration>
					<rate>
						<ntsc>FALSE</ntsc>
						<timebase>25</timebase>
					</rate>
					<in>83</in>
					<out>318</out>
					<start>20426</start>
					<end>20661</end>
					<subframeoffset>0</subframeoffset>
					<enabled>TRUE</enabled>
					<masterclipid>AA1454_01 1</masterclipid>
					<logginginfo>
						<scene/>
						<shottake/>
						<lognote/>
						<good>FALSE</good>
					</logginginfo>
					<labels>
						<label2/>
					</labels>
					<comments>
						<mastercomment1/>
						<mastercomment2/>
						<mastercomment3/>
						<mastercomment4/>
					</comments>
					<file id="AA1454_01 2"/>
					<filter>
						<effect>
							<name>Audio Levels</name>
							<effectid>audiolevels</effectid>
							<effectcategory>audiolevels</effectcategory>
							<effecttype>audiolevels</effecttype>
							<mediatype>audio</mediatype>
							<parameter>
								<name>Level</name>
								<parameterid>level</parameterid>
								<valuemin>0</valuemin>
								<valuemax>3.98109</valuemax>
								<value>1.77828</value>
							</parameter>
						</effect>
					</filter>
					<filter>
						<effect>
							<name>Audio Pan</name>
							<effectid>audiopan</effectid>
							<effectcategory>audiopan</effectcategory>
							<effecttype>audiopan</effecttype>
							<mediatype>audio</mediatype>
							<parameter>
								<name>Pan</name>
								<parameterid>pan</parameterid>
								<valuemin>-1</valuemin>
								<valuemax>1</valuemax>
								<value>0</value>
							</parameter>
						</effect>
					</filter>
					<sourcetrack>
						<mediatype>audio</mediatype>
						<trackindex>1</trackindex>
					</sourcetrack>
					<link>
						<linkclipref>AA1454_01 </linkclipref>
						<mediatype>video</mediatype>
						<trackindex>1</trackindex>
						<clipindex>221</clipindex>
					</link>
					<link>
						<linkclipref>AA1454_01 3</linkclipref>
						<mediatype>audio</mediatype>
						<trackindex>1</trackindex>
						<clipindex>124</clipindex>
					</link>
					<link>
						<linkclipref>AA1454_01 4</linkclipref>
						<mediatype>audio</mediatype>
						<trackindex>2</trackindex>
						<clipindex>103</clipindex>
					</link>
					<itemhistory>
						<uuid>0239A5E7-8328-4EC3-B26C-DF37414FEB7C</uuid>
					</itemhistory>
				</clipitem>
				<clipitem id="AA1458_01 3">
					<name>AA1458_01</name>
					<duration>960</duration>
					<rate>
						<ntsc>FALSE</ntsc>
						<timebase>25</timebase>
					</rate>
					<in>126</in>
					<out>244</out>
					<start>20661</start>
					<end>20779</end>
					<subframeoffset>0</subframeoffset>
					<masterclipid>AA1458_01 1</masterclipid>
					<logginginfo>
						<scene/>
						<shottake/>
						<lognote/>
						<good>FALSE</good>
					</logginginfo>
					<labels>
						<label2/>
					</labels>
					<comments>
						<mastercomment1/>
						<mastercomment2/>
						<mastercomment3/>
						<mastercomment4/>
					</comments>
					<file id="AA1458_01 2"/>
					<filter>
						<effect>
							<name>Audio Levels</name>
							<effectid>audiolevels</effectid>
							<effectcategory>audiolevels</effectcategory>
							<effecttype>audiolevels</effecttype>
							<mediatype>audio</mediatype>
							<parameter>
								<name>Level</name>
								<parameterid>level</parameterid>
								<valuemin>0</valuemin>
								<valuemax>3.98109</valuemax>
								<value>1.77828</value>
							</parameter>
						</effect>
					</filter>
					<filter>
						<effect>
							<name>Audio Pan</name>
							<effectid>audiopan</effectid>
							<effectcategory>audiopan</effectcategory>
							<effecttype>audiopan</effecttype>
							<mediatype>audio</mediatype>
							<parameter>
								<name>Pan</name>
								<parameterid>pan</parameterid>
								<valuemin>-1</valuemin>
								<valuemax>1</valuemax>
								<value>0</value>
							</parameter>
						</effect>
					</filter>
					<sourcetrack>
						<mediatype>audio</mediatype>
						<trackindex>1</trackindex>
					</sourcetrack>
					<link>
						<linkclipref>AA1458_01 </linkclipref>
						<mediatype>video</mediatype>
						<trackindex>1</trackindex>
						<clipindex>222</clipindex>
					</link>
					<link>
						<linkclipref>AA1458_01 3</linkclipref>
						<mediatype>audio</mediatype>
						<trackindex>1</trackindex>
						<clipindex>125</clipindex>
					</link>
					<link>
						<linkclipref>AA1458_01 4</linkclipref>
						<mediatype>audio</mediatype>
						<trackindex>2</trackindex>
						<clipindex>104</clipindex>
					</link>
					<itemhistory>
						<uuid>59986142-45DE-4285-B46D-FDB2B009C2AB</uuid>
					</itemhistory>
				</clipitem>
				<clipitem id="AA1459_01 3">
					<name>AA1459_01</name>
					<duration>2304</duration>
					<rate>
						<ntsc>FALSE</ntsc>
						<timebase>25</timebase>
					</rate>
					<in>541</in>
					<out>739</out>
					<start>20779</start>
					<end>20977</end>
					<subframeoffset>0</subframeoffset>
					<masterclipid>AA1459_01 1</masterclipid>
					<logginginfo>
						<scene/>
						<shottake/>
						<lognote/>
						<good>FALSE</good>
					</logginginfo>
					<labels>
						<label2/>
					</labels>
					<comments>
						<mastercomment1/>
						<mastercomment2/>
						<mastercomment3/>
						<mastercomment4/>
					</comments>
					<file id="AA1459_01 2"/>
					<filter>
						<effect>
							<name>Audio Levels</name>
							<effectid>audiolevels</effectid>
							<effectcategory>audiolevels</effectcategory>
							<effecttype>audiolevels</effecttype>
							<mediatype>audio</mediatype>
							<parameter>
								<name>Level</name>
								<parameterid>level</parameterid>
								<valuemin>0</valuemin>
								<valuemax>3.98109</valuemax>
								<value>1.77828</value>
							</parameter>
						</effect>
					</filter>
					<filter>
						<effect>
							<name>Audio Pan</name>
							<effectid>audiopan</effectid>
							<effectcategory>audiopan</effectcategory>
							<effecttype>audiopan</effecttype>
							<mediatype>audio</mediatype>
							<parameter>
								<name>Pan</name>
								<parameterid>pan</parameterid>
								<valuemin>-1</valuemin>
								<valuemax>1</valuemax>
								<value>0</value>
							</parameter>
						</effect>
					</filter>
					<sourcetrack>
						<mediatype>audio</mediatype>
						<trackindex>1</trackindex>
					</sourcetrack>
					<link>
						<linkclipref>AA1459_01 </linkclipref>
						<mediatype>video</mediatype>
						<trackindex>1</trackindex>
						<clipindex>223</clipindex>
					</link>
					<link>
						<linkclipref>AA1459_01 3</linkclipref>
						<mediatype>audio</mediatype>
						<trackindex>1</trackindex>
						<clipindex>126</clipindex>
					</link>
					<link>
						<linkclipref>AA1459_01 4</linkclipref>
						<mediatype>audio</mediatype>
						<trackindex>2</trackindex>
						<clipindex>105</clipindex>
					</link>
					<itemhistory>
						<uuid>66AFED1B-D8BF-4FEE-A717-9B6914E2610E</uuid>
					</itemhistory>
				</clipitem>
				<clipitem id="AA1458_01 6">
					<name>AA1458_01</name>
					<duration>960</duration>
					<rate>
						<ntsc>FALSE</ntsc>
						<timebase>25</timebase>
					</rate>
					<in>427</in>
					<out>807</out>
					<start>20977</start>
					<end>21357</end>
					<subframeoffset>0</subframeoffset>
					<masterclipid>AA1458_01 1</masterclipid>
					<logginginfo>
						<scene/>
						<shottake/>
						<lognote/>
						<good>FALSE</good>
					</logginginfo>
					<labels>
						<label2/>
					</labels>
					<comments>
						<mastercomment1/>
						<mastercomment2/>
						<mastercomment3/>
						<mastercomment4/>
					</comments>
					<file id="AA1458_01 2"/>
					<filter>
						<effect>
							<name>Audio Levels</name>
							<effectid>audiolevels</effectid>
							<effectcategory>audiolevels</effectcategory>
							<effecttype>audiolevels</effecttype>
							<mediatype>audio</mediatype>
							<parameter>
								<name>Level</name>
								<parameterid>level</parameterid>
								<valuemin>0</valuemin>
								<valuemax>3.98109</valuemax>
								<value>1.77828</value>
							</parameter>
						</effect>
					</filter>
					<filter>
						<effect>
							<name>Audio Pan</name>
							<effectid>audiopan</effectid>
							<effectcategory>audiopan</effectcategory>
							<effecttype>audiopan</effecttype>
							<mediatype>audio</mediatype>
							<parameter>
								<name>Pan</name>
								<parameterid>pan</parameterid>
								<valuemin>-1</valuemin>
								<valuemax>1</valuemax>
								<value>0</value>
							</parameter>
						</effect>
					</filter>
					<sourcetrack>
						<mediatype>audio</mediatype>
						<trackindex>1</trackindex>
					</sourcetrack>
					<link>
						<linkclipref>AA1458_01 5</linkclipref>
						<mediatype>video</mediatype>
						<trackindex>1</trackindex>
						<clipindex>224</clipindex>
					</link>
					<link>
						<linkclipref>AA1458_01 6</linkclipref>
						<mediatype>audio</mediatype>
						<trackindex>1</trackindex>
						<clipindex>127</clipindex>
					</link>
					<link>
						<linkclipref>AA1458_01 7</linkclipref>
						<mediatype>audio</mediatype>
						<trackindex>2</trackindex>
						<clipindex>106</clipindex>
					</link>
					<itemhistory>
						<uuid>DC77C39E-B695-49D8-B72D-AAAE035359BA</uuid>
					</itemhistory>
				</clipitem>
				<clipitem id="AA1461_01 3">
					<name>AA1461_01</name>
					<duration>1452</duration>
					<rate>
						<ntsc>FALSE</ntsc>
						<timebase>25</timebase>
					</rate>
					<in>128</in>
					<out>378</out>
					<start>21357</start>
					<end>21607</end>
					<subframeoffset>0</subframeoffset>
					<masterclipid>AA1461_01 1</masterclipid>
					<logginginfo>
						<scene/>
						<shottake/>
						<lognote/>
						<good>FALSE</good>
					</logginginfo>
					<labels>
						<label2/>
					</labels>
					<comments>
						<mastercomment1/>
						<mastercomment2/>
						<mastercomment3/>
						<mastercomment4/>
					</comments>
					<file id="AA1461_01 2"/>
					<filter>
						<effect>
							<name>Audio Levels</name>
							<effectid>audiolevels</effectid>
							<effectcategory>audiolevels</effectcategory>
							<effecttype>audiolevels</effecttype>
							<mediatype>audio</mediatype>
							<parameter>
								<name>Level</name>
								<parameterid>level</parameterid>
								<valuemin>0</valuemin>
								<valuemax>3.98109</valuemax>
								<value>1.77828</value>
							</parameter>
						</effect>
					</filter>
					<filter>
						<effect>
							<name>Audio Pan</name>
							<effectid>audiopan</effectid>
							<effectcategory>audiopan</effectcategory>
							<effecttype>audiopan</effecttype>
							<mediatype>audio</mediatype>
							<parameter>
								<name>Pan</name>
								<parameterid>pan</parameterid>
								<valuemin>-1</valuemin>
								<valuemax>1</valuemax>
								<value>0</value>
							</parameter>
						</effect>
					</filter>
					<sourcetrack>
						<mediatype>audio</mediatype>
						<trackindex>1</trackindex>
					</sourcetrack>
					<link>
						<linkclipref>AA1461_01 </linkclipref>
						<mediatype>video</mediatype>
						<trackindex>1</trackindex>
						<clipindex>227</clipindex>
					</link>
					<link>
						<linkclipref>AA1461_01 3</linkclipref>
						<mediatype>audio</mediatype>
						<trackindex>1</trackindex>
						<clipindex>128</clipindex>
					</link>
					<link>
						<linkclipref>AA1461_01 4</linkclipref>
						<mediatype>audio</mediatype>
						<trackindex>2</trackindex>
						<clipindex>107</clipindex>
					</link>
					<itemhistory>
						<uuid>219DDDDB-9471-442E-BBC9-9A019FB778CB</uuid>
					</itemhistory>
				</clipitem>
				<clipitem id="AA1463_01 3">
					<name>AA1463_01</name>
					<duration>2856</duration>
					<rate>
						<ntsc>FALSE</ntsc>
						<timebase>25</timebase>
					</rate>
					<in>841</in>
					<out>1116</out>
					<start>21607</start>
					<end>21882</end>
					<subframeoffset>0</subframeoffset>
					<masterclipid>AA1463_01 1</masterclipid>
					<logginginfo>
						<scene/>
						<shottake/>
						<lognote/>
						<good>FALSE</good>
					</logginginfo>
					<labels>
						<label2/>
					</labels>
					<comments>
						<mastercomment1/>
						<mastercomment2/>
						<mastercomment3/>
						<mastercomment4/>
					</comments>
					<file id="AA1463_01 2"/>
					<filter>
						<effect>
							<name>Audio Levels</name>
							<effectid>audiolevels</effectid>
							<effectcategory>audiolevels</effectcategory>
							<effecttype>audiolevels</effecttype>
							<mediatype>audio</mediatype>
							<parameter>
								<name>Level</name>
								<parameterid>level</parameterid>
								<valuemin>0</valuemin>
								<valuemax>3.98109</valuemax>
								<value>1.77828</value>
							</parameter>
						</effect>
					</filter>
					<filter>
						<effect>
							<name>Audio Pan</name>
							<effectid>audiopan</effectid>
							<effectcategory>audiopan</effectcategory>
							<effecttype>audiopan</effecttype>
							<mediatype>audio</mediatype>
							<parameter>
								<name>Pan</name>
								<parameterid>pan</parameterid>
								<valuemin>-1</valuemin>
								<valuemax>1</valuemax>
								<value>0</value>
							</parameter>
						</effect>
					</filter>
					<sourcetrack>
						<mediatype>audio</mediatype>
						<trackindex>1</trackindex>
					</sourcetrack>
					<link>
						<linkclipref>AA1463_01 </linkclipref>
						<mediatype>video</mediatype>
						<trackindex>1</trackindex>
						<clipindex>228</clipindex>
					</link>
					<link>
						<linkclipref>AA1463_01 3</linkclipref>
						<mediatype>audio</mediatype>
						<trackindex>1</trackindex>
						<clipindex>129</clipindex>
					</link>
					<link>
						<linkclipref>AA1463_01 4</linkclipref>
						<mediatype>audio</mediatype>
						<trackindex>2</trackindex>
						<clipindex>108</clipindex>
					</link>
					<itemhistory>
						<uuid>FC1A695A-4F4C-4AED-93A2-AAAB13E93F5B</uuid>
					</itemhistory>
				</clipitem>
				<clipitem id="AA1468_01 3">
					<name>AA1468_01</name>
					<duration>1980</duration>
					<rate>
						<ntsc>FALSE</ntsc>
						<timebase>25</timebase>
					</rate>
					<in>366</in>
					<out>431</out>
					<start>21882</start>
					<end>21947</end>
					<subframeoffset>0</subframeoffset>
					<masterclipid>AA1468_01 1</masterclipid>
					<logginginfo>
						<scene/>
						<shottake/>
						<lognote/>
						<good>FALSE</good>
					</logginginfo>
					<labels>
						<label2/>
					</labels>
					<comments>
						<mastercomment1/>
						<mastercomment2/>
						<mastercomment3/>
						<mastercomment4/>
					</comments>
					<file id="AA1468_01 2"/>
					<filter>
						<effect>
							<name>Audio Levels</name>
							<effectid>audiolevels</effectid>
							<effectcategory>audiolevels</effectcategory>
							<effecttype>audiolevels</effecttype>
							<mediatype>audio</mediatype>
							<parameter>
								<name>Level</name>
								<parameterid>level</parameterid>
								<valuemin>0</valuemin>
								<valuemax>3.98109</valuemax>
								<value>1.77828</value>
							</parameter>
						</effect>
					</filter>
					<filter>
						<effect>
							<name>Audio Pan</name>
							<effectid>audiopan</effectid>
							<effectcategory>audiopan</effectcategory>
							<effecttype>audiopan</effecttype>
							<mediatype>audio</mediatype>
							<parameter>
								<name>Pan</name>
								<parameterid>pan</parameterid>
								<valuemin>-1</valuemin>
								<valuemax>1</valuemax>
								<value>0</value>
							</parameter>
						</effect>
					</filter>
					<sourcetrack>
						<mediatype>audio</mediatype>
						<trackindex>1</trackindex>
					</sourcetrack>
					<link>
						<linkclipref>AA1468_01 </linkclipref>
						<mediatype>video</mediatype>
						<trackindex>1</trackindex>
						<clipindex>229</clipindex>
					</link>
					<link>
						<linkclipref>AA1468_01 3</linkclipref>
						<mediatype>audio</mediatype>
						<trackindex>1</trackindex>
						<clipindex>130</clipindex>
					</link>
					<link>
						<linkclipref>AA1468_01 4</linkclipref>
						<mediatype>audio</mediatype>
						<trackindex>2</trackindex>
						<clipindex>109</clipindex>
					</link>
					<itemhistory>
						<uuid>20C5238B-3652-4D42-99B8-CAC7E3AB6D7C</uuid>
					</itemhistory>
				</clipitem>
				<clipitem id="AA1463_01 6">
					<name>AA1463_01</name>
					<duration>2856</duration>
					<rate>
						<ntsc>FALSE</ntsc>
						<timebase>25</timebase>
					</rate>
					<in>1172</in>
					<out>1290</out>
					<start>21947</start>
					<end>22065</end>
					<subframeoffset>0</subframeoffset>
					<masterclipid>AA1463_01 1</masterclipid>
					<logginginfo>
						<scene/>
						<shottake/>
						<lognote/>
						<good>FALSE</good>
					</logginginfo>
					<labels>
						<label2/>
					</labels>
					<comments>
						<mastercomment1/>
						<mastercomment2/>
						<mastercomment3/>
						<mastercomment4/>
					</comments>
					<file id="AA1463_01 2"/>
					<filter>
						<effect>
							<name>Audio Levels</name>
							<effectid>audiolevels</effectid>
							<effectcategory>audiolevels</effectcategory>
							<effecttype>audiolevels</effecttype>
							<mediatype>audio</mediatype>
							<parameter>
								<name>Level</name>
								<parameterid>level</parameterid>
								<valuemin>0</valuemin>
								<valuemax>3.98109</valuemax>
								<value>1.77828</value>
							</parameter>
						</effect>
					</filter>
					<filter>
						<effect>
							<name>Audio Pan</name>
							<effectid>audiopan</effectid>
							<effectcategory>audiopan</effectcategory>
							<effecttype>audiopan</effecttype>
							<mediatype>audio</mediatype>
							<parameter>
								<name>Pan</name>
								<parameterid>pan</parameterid>
								<valuemin>-1</valuemin>
								<valuemax>1</valuemax>
								<value>0</value>
							</parameter>
						</effect>
					</filter>
					<sourcetrack>
						<mediatype>audio</mediatype>
						<trackindex>1</trackindex>
					</sourcetrack>
					<link>
						<linkclipref>AA1463_01 5</linkclipref>
						<mediatype>video</mediatype>
						<trackindex>1</trackindex>
						<clipindex>230</clipindex>
					</link>
					<link>
						<linkclipref>AA1463_01 6</linkclipref>
						<mediatype>audio</mediatype>
						<trackindex>1</trackindex>
						<clipindex>131</clipindex>
					</link>
					<link>
						<linkclipref>AA1463_01 7</linkclipref>
						<mediatype>audio</mediatype>
						<trackindex>2</trackindex>
						<clipindex>110</clipindex>
					</link>
					<itemhistory>
						<uuid>43CB1565-A969-44EB-860A-566AA9B8C89F</uuid>
					</itemhistory>
				</clipitem>
				<clipitem id="AA1468_01 7">
					<name>AA1468_01</name>
					<duration>1980</duration>
					<rate>
						<ntsc>FALSE</ntsc>
						<timebase>25</timebase>
					</rate>
					<in>713</in>
					<out>729</out>
					<start>22098</start>
					<end>22114</end>
					<subframeoffset>0</subframeoffset>
					<enabled>TRUE</enabled>
					<masterclipid>AA1468_01 1</masterclipid>
					<syncoffset>0</syncoffset>
					<logginginfo>
						<scene/>
						<shottake/>
						<lognote/>
						<good>FALSE</good>
					</logginginfo>
					<labels>
						<label2/>
					</labels>
					<comments>
						<mastercomment1/>
						<mastercomment2/>
						<mastercomment3/>
						<mastercomment4/>
					</comments>
					<file id="AA1468_01 2"/>
					<filter>
						<effect>
							<name>Audio Levels</name>
							<effectid>audiolevels</effectid>
							<effectcategory>audiolevels</effectcategory>
							<effecttype>audiolevels</effecttype>
							<mediatype>audio</mediatype>
							<parameter>
								<name>Level</name>
								<parameterid>level</parameterid>
								<valuemin>0</valuemin>
								<valuemax>3.98109</valuemax>
								<value>1.58489</value>
							</parameter>
						</effect>
					</filter>
					<filter>
						<effect>
							<name>Audio Pan</name>
							<effectid>audiopan</effectid>
							<effectcategory>audiopan</effectcategory>
							<effecttype>audiopan</effecttype>
							<mediatype>audio</mediatype>
							<parameter>
								<name>Pan</name>
								<parameterid>pan</parameterid>
								<valuemin>-1</valuemin>
								<valuemax>1</valuemax>
								<value>0</value>
							</parameter>
						</effect>
					</filter>
					<sourcetrack>
						<mediatype>audio</mediatype>
						<trackindex>1</trackindex>
					</sourcetrack>
					<link>
						<linkclipref>AA1468_01 6</linkclipref>
						<mediatype>video</mediatype>
						<trackindex>1</trackindex>
						<clipindex>233</clipindex>
					</link>
					<link>
						<linkclipref>AA1468_01 7</linkclipref>
						<mediatype>audio</mediatype>
						<trackindex>1</trackindex>
						<clipindex>132</clipindex>
					</link>
					<itemhistory>
						<uuid>F0D50A48-C7E7-44B8-9AB1-C8B92E24385F</uuid>
					</itemhistory>
				</clipitem>
				<clipitem id="AA1468_01 11">
					<name>AA1468_01</name>
					<duration>1980</duration>
					<rate>
						<ntsc>FALSE</ntsc>
						<timebase>25</timebase>
					</rate>
					<in>1099</in>
					<out>1113</out>
					<start>22214</start>
					<end>22228</end>
					<subframeoffset>0</subframeoffset>
					<masterclipid>AA1468_01 1</masterclipid>
					<syncoffset>0</syncoffset>
					<logginginfo>
						<scene/>
						<shottake/>
						<lognote/>
						<good>FALSE</good>
					</logginginfo>
					<labels>
						<label2/>
					</labels>
					<comments>
						<mastercomment1/>
						<mastercomment2/>
						<mastercomment3/>
						<mastercomment4/>
					</comments>
					<file id="AA1468_01 2"/>
					<filter>
						<effect>
							<name>Audio Levels</name>
							<effectid>audiolevels</effectid>
							<effectcategory>audiolevels</effectcategory>
							<effecttype>audiolevels</effecttype>
							<mediatype>audio</mediatype>
							<parameter>
								<name>Level</name>
								<parameterid>level</parameterid>
								<valuemin>0</valuemin>
								<valuemax>3.98109</valuemax>
								<value>1.58489</value>
							</parameter>
						</effect>
					</filter>
					<filter>
						<effect>
							<name>Audio Pan</name>
							<effectid>audiopan</effectid>
							<effectcategory>audiopan</effectcategory>
							<effecttype>audiopan</effecttype>
							<mediatype>audio</mediatype>
							<parameter>
								<name>Pan</name>
								<parameterid>pan</parameterid>
								<valuemin>-1</valuemin>
								<valuemax>1</valuemax>
								<value>0</value>
							</parameter>
						</effect>
					</filter>
					<sourcetrack>
						<mediatype>audio</mediatype>
						<trackindex>1</trackindex>
					</sourcetrack>
					<itemhistory>
						<uuid>6AE32A25-B613-4EA9-B5B9-55DDEEB99522</uuid>
					</itemhistory>
				</clipitem>
				<clipitem id="AA1468_01 9">
					<name>AA1468_01</name>
					<duration>1980</duration>
					<rate>
						<ntsc>FALSE</ntsc>
						<timebase>25</timebase>
					</rate>
					<in>1166</in>
					<out>1297</out>
					<start>22228</start>
					<end>22359</end>
					<subframeoffset>0</subframeoffset>
					<masterclipid>AA1468_01 1</masterclipid>
					<syncoffset>0</syncoffset>
					<logginginfo>
						<scene/>
						<shottake/>
						<lognote/>
						<good>FALSE</good>
					</logginginfo>
					<labels>
						<label2/>
					</labels>
					<comments>
						<mastercomment1/>
						<mastercomment2/>
						<mastercomment3/>
						<mastercomment4/>
					</comments>
					<file id="AA1468_01 2"/>
					<filter>
						<effect>
							<name>Audio Levels</name>
							<effectid>audiolevels</effectid>
							<effectcategory>audiolevels</effectcategory>
							<effecttype>audiolevels</effecttype>
							<mediatype>audio</mediatype>
							<parameter>
								<name>Level</name>
								<parameterid>level</parameterid>
								<valuemin>0</valuemin>
								<valuemax>3.98109</valuemax>
								<value>1.58489</value>
							</parameter>
						</effect>
					</filter>
					<filter>
						<effect>
							<name>Audio Pan</name>
							<effectid>audiopan</effectid>
							<effectcategory>audiopan</effectcategory>
							<effecttype>audiopan</effecttype>
							<mediatype>audio</mediatype>
							<parameter>
								<name>Pan</name>
								<parameterid>pan</parameterid>
								<valuemin>-1</valuemin>
								<valuemax>1</valuemax>
								<value>0</value>
							</parameter>
						</effect>
					</filter>
					<sourcetrack>
						<mediatype>audio</mediatype>
						<trackindex>1</trackindex>
					</sourcetrack>
					<link>
						<linkclipref>AA1468_01 8</linkclipref>
						<mediatype>video</mediatype>
						<trackindex>1</trackindex>
						<clipindex>235</clipindex>
					</link>
					<link>
						<linkclipref>AA1468_01 9</linkclipref>
						<mediatype>audio</mediatype>
						<trackindex>1</trackindex>
						<clipindex>134</clipindex>
					</link>
					<link>
						<linkclipref>AA1468_01 10</linkclipref>
						<mediatype>audio</mediatype>
						<trackindex>2</trackindex>
						<clipindex>112</clipindex>
					</link>
					<itemhistory>
						<uuid>2E744D0F-0144-4E9B-A0A1-10F994E7BA5E</uuid>
					</itemhistory>
				</clipitem>
				<clipitem id="AA1467_01 6">
					<name>AA1467_01</name>
					<duration>1728</duration>
					<rate>
						<ntsc>FALSE</ntsc>
						<timebase>25</timebase>
					</rate>
					<in>886</in>
					<out>931</out>
					<start>22359</start>
					<end>22404</end>
					<subframeoffset>0</subframeoffset>
					<masterclipid>AA1467_01 1</masterclipid>
					<logginginfo>
						<scene/>
						<shottake/>
						<lognote/>
						<good>FALSE</good>
					</logginginfo>
					<labels>
						<label2/>
					</labels>
					<comments>
						<mastercomment1/>
						<mastercomment2/>
						<mastercomment3/>
						<mastercomment4/>
					</comments>
					<file id="AA1467_01 2"/>
					<filter>
						<effect>
							<name>Audio Levels</name>
							<effectid>audiolevels</effectid>
							<effectcategory>audiolevels</effectcategory>
							<effecttype>audiolevels</effecttype>
							<mediatype>audio</mediatype>
							<parameter>
								<name>Level</name>
								<parameterid>level</parameterid>
								<valuemin>0</valuemin>
								<valuemax>3.98109</valuemax>
								<value>1.77828</value>
							</parameter>
						</effect>
					</filter>
					<filter>
						<effect>
							<name>Audio Pan</name>
							<effectid>audiopan</effectid>
							<effectcategory>audiopan</effectcategory>
							<effecttype>audiopan</effecttype>
							<mediatype>audio</mediatype>
							<parameter>
								<name>Pan</name>
								<parameterid>pan</parameterid>
								<valuemin>-1</valuemin>
								<valuemax>1</valuemax>
								<value>0</value>
							</parameter>
						</effect>
					</filter>
					<sourcetrack>
						<mediatype>audio</mediatype>
						<trackindex>1</trackindex>
					</sourcetrack>
					<link>
						<linkclipref>AA1467_01 5</linkclipref>
						<mediatype>video</mediatype>
						<trackindex>1</trackindex>
						<clipindex>236</clipindex>
					</link>
					<link>
						<linkclipref>AA1467_01 6</linkclipref>
						<mediatype>audio</mediatype>
						<trackindex>1</trackindex>
						<clipindex>135</clipindex>
					</link>
					<link>
						<linkclipref>AA1467_01 7</linkclipref>
						<mediatype>audio</mediatype>
						<trackindex>2</trackindex>
						<clipindex>113</clipindex>
					</link>
					<itemhistory>
						<uuid>9CAB3DF9-5D5F-4C57-9F61-53E1D9E89201</uuid>
					</itemhistory>
				</clipitem>
				<clipitem id="AA1469_01 3">
					<name>AA1469_01</name>
					<duration>1848</duration>
					<rate>
						<ntsc>FALSE</ntsc>
						<timebase>25</timebase>
					</rate>
					<in>496</in>
					<out>579</out>
					<start>22404</start>
					<end>22487</end>
					<subframeoffset>0</subframeoffset>
					<masterclipid>AA1469_01 1</masterclipid>
					<logginginfo>
						<scene/>
						<shottake/>
						<lognote/>
						<good>FALSE</good>
					</logginginfo>
					<labels>
						<label2/>
					</labels>
					<comments>
						<mastercomment1/>
						<mastercomment2/>
						<mastercomment3/>
						<mastercomment4/>
					</comments>
					<file id="AA1469_01 2"/>
					<filter>
						<effect>
							<name>Audio Levels</name>
							<effectid>audiolevels</effectid>
							<effectcategory>audiolevels</effectcategory>
							<effecttype>audiolevels</effecttype>
							<mediatype>audio</mediatype>
							<parameter>
								<name>Level</name>
								<parameterid>level</parameterid>
								<valuemin>0</valuemin>
								<valuemax>3.98109</valuemax>
								<value>1.77828</value>
							</parameter>
						</effect>
					</filter>
					<filter>
						<effect>
							<name>Audio Pan</name>
							<effectid>audiopan</effectid>
							<effectcategory>audiopan</effectcategory>
							<effecttype>audiopan</effecttype>
							<mediatype>audio</mediatype>
							<parameter>
								<name>Pan</name>
								<parameterid>pan</parameterid>
								<valuemin>-1</valuemin>
								<valuemax>1</valuemax>
								<value>0</value>
							</parameter>
						</effect>
					</filter>
					<sourcetrack>
						<mediatype>audio</mediatype>
						<trackindex>1</trackindex>
					</sourcetrack>
					<link>
						<linkclipref>AA1469_01 </linkclipref>
						<mediatype>video</mediatype>
						<trackindex>1</trackindex>
						<clipindex>237</clipindex>
					</link>
					<link>
						<linkclipref>AA1469_01 3</linkclipref>
						<mediatype>audio</mediatype>
						<trackindex>1</trackindex>
						<clipindex>136</clipindex>
					</link>
					<link>
						<linkclipref>AA1469_01 4</linkclipref>
						<mediatype>audio</mediatype>
						<trackindex>2</trackindex>
						<clipindex>114</clipindex>
					</link>
					<itemhistory>
						<uuid>73C56992-6308-4D3B-9BCE-0592345E268E</uuid>
					</itemhistory>
				</clipitem>
				<clipitem id="AA1463_01 9">
					<name>AA1463_01</name>
					<duration>2856</duration>
					<rate>
						<ntsc>FALSE</ntsc>
						<timebase>25</timebase>
					</rate>
					<in>2041</in>
					<out>2193</out>
					<start>22487</start>
					<end>22639</end>
					<subframeoffset>0</subframeoffset>
					<masterclipid>AA1463_01 1</masterclipid>
					<logginginfo>
						<scene/>
						<shottake/>
						<lognote/>
						<good>FALSE</good>
					</logginginfo>
					<labels>
						<label2/>
					</labels>
					<comments>
						<mastercomment1/>
						<mastercomment2/>
						<mastercomment3/>
						<mastercomment4/>
					</comments>
					<file id="AA1463_01 2"/>
					<filter>
						<effect>
							<name>Audio Levels</name>
							<effectid>audiolevels</effectid>
							<effectcategory>audiolevels</effectcategory>
							<effecttype>audiolevels</effecttype>
							<mediatype>audio</mediatype>
							<parameter>
								<name>Level</name>
								<parameterid>level</parameterid>
								<valuemin>0</valuemin>
								<valuemax>3.98109</valuemax>
								<value>1.77828</value>
							</parameter>
						</effect>
					</filter>
					<filter>
						<effect>
							<name>Audio Pan</name>
							<effectid>audiopan</effectid>
							<effectcategory>audiopan</effectcategory>
							<effecttype>audiopan</effecttype>
							<mediatype>audio</mediatype>
							<parameter>
								<name>Pan</name>
								<parameterid>pan</parameterid>
								<valuemin>-1</valuemin>
								<valuemax>1</valuemax>
								<value>0</value>
							</parameter>
						</effect>
					</filter>
					<sourcetrack>
						<mediatype>audio</mediatype>
						<trackindex>1</trackindex>
					</sourcetrack>
					<link>
						<linkclipref>AA1463_01 8</linkclipref>
						<mediatype>video</mediatype>
						<trackindex>1</trackindex>
						<clipindex>238</clipindex>
					</link>
					<link>
						<linkclipref>AA1463_01 9</linkclipref>
						<mediatype>audio</mediatype>
						<trackindex>1</trackindex>
						<clipindex>137</clipindex>
					</link>
					<link>
						<linkclipref>AA1463_01 10</linkclipref>
						<mediatype>audio</mediatype>
						<trackindex>2</trackindex>
						<clipindex>115</clipindex>
					</link>
					<itemhistory>
						<uuid>FEBFC14D-21FA-47B7-84F2-64A00C0BF42A</uuid>
					</itemhistory>
				</clipitem>
				<clipitem id="AA1463_01 12">
					<name>AA1463_01</name>
					<duration>2856</duration>
					<rate>
						<ntsc>FALSE</ntsc>
						<timebase>25</timebase>
					</rate>
					<in>2195</in>
					<out>2328</out>
					<start>22639</start>
					<end>22772</end>
					<subframeoffset>0</subframeoffset>
					<masterclipid>AA1463_01 1</masterclipid>
					<logginginfo>
						<scene/>
						<shottake/>
						<lognote/>
						<good>FALSE</good>
					</logginginfo>
					<labels>
						<label2/>
					</labels>
					<comments>
						<mastercomment1/>
						<mastercomment2/>
						<mastercomment3/>
						<mastercomment4/>
					</comments>
					<file id="AA1463_01 2"/>
					<filter>
						<effect>
							<name>Audio Levels</name>
							<effectid>audiolevels</effectid>
							<effectcategory>audiolevels</effectcategory>
							<effecttype>audiolevels</effecttype>
							<mediatype>audio</mediatype>
							<parameter>
								<name>Level</name>
								<parameterid>level</parameterid>
								<valuemin>0</valuemin>
								<valuemax>3.98109</valuemax>
								<value>1.77828</value>
							</parameter>
						</effect>
					</filter>
					<filter>
						<effect>
							<name>Audio Pan</name>
							<effectid>audiopan</effectid>
							<effectcategory>audiopan</effectcategory>
							<effecttype>audiopan</effecttype>
							<mediatype>audio</mediatype>
							<parameter>
								<name>Pan</name>
								<parameterid>pan</parameterid>
								<valuemin>-1</valuemin>
								<valuemax>1</valuemax>
								<value>0</value>
							</parameter>
						</effect>
					</filter>
					<sourcetrack>
						<mediatype>audio</mediatype>
						<trackindex>1</trackindex>
					</sourcetrack>
					<link>
						<linkclipref>AA1463_01 11</linkclipref>
						<mediatype>video</mediatype>
						<trackindex>1</trackindex>
						<clipindex>240</clipindex>
					</link>
					<link>
						<linkclipref>AA1463_01 12</linkclipref>
						<mediatype>audio</mediatype>
						<trackindex>1</trackindex>
						<clipindex>138</clipindex>
					</link>
					<link>
						<linkclipref>AA1463_01 13</linkclipref>
						<mediatype>audio</mediatype>
						<trackindex>2</trackindex>
						<clipindex>116</clipindex>
					</link>
					<itemhistory>
						<uuid>2DC68099-E4F4-4EA9-8963-17BEE954A85E</uuid>
					</itemhistory>
				</clipitem>
				<clipitem id="AA1469_01 7">
					<name>AA1469_01</name>
					<duration>1848</duration>
					<rate>
						<ntsc>FALSE</ntsc>
						<timebase>25</timebase>
					</rate>
					<in>1321</in>
					<out>1427</out>
					<start>22772</start>
					<end>22878</end>
					<subframeoffset>0</subframeoffset>
					<masterclipid>AA1469_01 1</masterclipid>
					<logginginfo>
						<scene/>
						<shottake/>
						<lognote/>
						<good>FALSE</good>
					</logginginfo>
					<labels>
						<label2/>
					</labels>
					<comments>
						<mastercomment1/>
						<mastercomment2/>
						<mastercomment3/>
						<mastercomment4/>
					</comments>
					<file id="AA1469_01 2"/>
					<filter>
						<effect>
							<name>Audio Levels</name>
							<effectid>audiolevels</effectid>
							<effectcategory>audiolevels</effectcategory>
							<effecttype>audiolevels</effecttype>
							<mediatype>audio</mediatype>
							<parameter>
								<name>Level</name>
								<parameterid>level</parameterid>
								<valuemin>0</valuemin>
								<valuemax>3.98109</valuemax>
								<value>1</value>
							</parameter>
						</effect>
					</filter>
					<filter>
						<effect>
							<name>Audio Pan</name>
							<effectid>audiopan</effectid>
							<effectcategory>audiopan</effectcategory>
							<effecttype>audiopan</effecttype>
							<mediatype>audio</mediatype>
							<parameter>
								<name>Pan</name>
								<parameterid>pan</parameterid>
								<valuemin>-1</valuemin>
								<valuemax>1</valuemax>
								<value>0</value>
							</parameter>
						</effect>
					</filter>
					<sourcetrack>
						<mediatype>audio</mediatype>
						<trackindex>1</trackindex>
					</sourcetrack>
					<link>
						<linkclipref>AA1469_01 6</linkclipref>
						<mediatype>video</mediatype>
						<trackindex>1</trackindex>
						<clipindex>241</clipindex>
					</link>
					<link>
						<linkclipref>AA1469_01 7</linkclipref>
						<mediatype>audio</mediatype>
						<trackindex>1</trackindex>
						<clipindex>139</clipindex>
					</link>
					<link>
						<linkclipref>AA1469_01 8</linkclipref>
						<mediatype>audio</mediatype>
						<trackindex>2</trackindex>
						<clipindex>117</clipindex>
					</link>
					<itemhistory>
						<uuid>061A9315-6C19-493E-9E30-82D4BB11E5CD</uuid>
					</itemhistory>
				</clipitem>
				<clipitem id="AA1463_01 15">
					<name>AA1463_01</name>
					<duration>2856</duration>
					<rate>
						<ntsc>FALSE</ntsc>
						<timebase>25</timebase>
					</rate>
					<in>2447</in>
					<out>2752</out>
					<start>22878</start>
					<end>23183</end>
					<subframeoffset>0</subframeoffset>
					<masterclipid>AA1463_01 1</masterclipid>
					<logginginfo>
						<scene/>
						<shottake/>
						<lognote/>
						<good>FALSE</good>
					</logginginfo>
					<labels>
						<label2/>
					</labels>
					<comments>
						<mastercomment1/>
						<mastercomment2/>
						<mastercomment3/>
						<mastercomment4/>
					</comments>
					<file id="AA1463_01 2"/>
					<filter>
						<effect>
							<name>Audio Levels</name>
							<effectid>audiolevels</effectid>
							<effectcategory>audiolevels</effectcategory>
							<effecttype>audiolevels</effecttype>
							<mediatype>audio</mediatype>
							<parameter>
								<name>Level</name>
								<parameterid>level</parameterid>
								<valuemin>0</valuemin>
								<valuemax>3.98109</valuemax>
								<value>1.77828</value>
							</parameter>
						</effect>
					</filter>
					<filter>
						<effect>
							<name>Audio Pan</name>
							<effectid>audiopan</effectid>
							<effectcategory>audiopan</effectcategory>
							<effecttype>audiopan</effecttype>
							<mediatype>audio</mediatype>
							<parameter>
								<name>Pan</name>
								<parameterid>pan</parameterid>
								<valuemin>-1</valuemin>
								<valuemax>1</valuemax>
								<value>0</value>
							</parameter>
						</effect>
					</filter>
					<sourcetrack>
						<mediatype>audio</mediatype>
						<trackindex>1</trackindex>
					</sourcetrack>
					<link>
						<linkclipref>AA1463_01 14</linkclipref>
						<mediatype>video</mediatype>
						<trackindex>1</trackindex>
						<clipindex>242</clipindex>
					</link>
					<link>
						<linkclipref>AA1463_01 15</linkclipref>
						<mediatype>audio</mediatype>
						<trackindex>1</trackindex>
						<clipindex>140</clipindex>
					</link>
					<link>
						<linkclipref>AA1463_01 16</linkclipref>
						<mediatype>audio</mediatype>
						<trackindex>2</trackindex>
						<clipindex>118</clipindex>
					</link>
					<itemhistory>
						<uuid>DA607CE8-8CD7-4D06-827E-05E74110E2D6</uuid>
					</itemhistory>
				</clipitem>
				<clipitem id="AA1471_01 3">
					<name>AA1471_01</name>
					<duration>1032</duration>
					<rate>
						<ntsc>FALSE</ntsc>
						<timebase>25</timebase>
					</rate>
					<in>495</in>
					<out>583</out>
					<start>26246</start>
					<end>26334</end>
					<subframeoffset>0</subframeoffset>
					<masterclipid>AA1471_01 1</masterclipid>
					<logginginfo>
						<scene/>
						<shottake/>
						<lognote/>
						<good>FALSE</good>
					</logginginfo>
					<labels>
						<label2/>
					</labels>
					<comments>
						<mastercomment1/>
						<mastercomment2/>
						<mastercomment3/>
						<mastercomment4/>
					</comments>
					<file id="AA1471_01 2"/>
					<filter>
						<effect>
							<name>Audio Levels</name>
							<effectid>audiolevels</effectid>
							<effectcategory>audiolevels</effectcategory>
							<effecttype>audiolevels</effecttype>
							<mediatype>audio</mediatype>
							<parameter>
								<name>Level</name>
								<parameterid>level</parameterid>
								<valuemin>0</valuemin>
								<valuemax>3.98109</valuemax>
								<value>1</value>
							</parameter>
						</effect>
					</filter>
					<filter>
						<effect>
							<name>Audio Pan</name>
							<effectid>audiopan</effectid>
							<effectcategory>audiopan</effectcategory>
							<effecttype>audiopan</effecttype>
							<mediatype>audio</mediatype>
							<parameter>
								<name>Pan</name>
								<parameterid>pan</parameterid>
								<valuemin>-1</valuemin>
								<valuemax>1</valuemax>
								<value>0</value>
							</parameter>
						</effect>
					</filter>
					<sourcetrack>
						<mediatype>audio</mediatype>
						<trackindex>1</trackindex>
					</sourcetrack>
					<link>
						<linkclipref>AA1471_01 </linkclipref>
						<mediatype>video</mediatype>
						<trackindex>1</trackindex>
						<clipindex>333</clipindex>
					</link>
					<link>
						<linkclipref>AA1471_01 3</linkclipref>
						<mediatype>audio</mediatype>
						<trackindex>1</trackindex>
						<clipindex>141</clipindex>
					</link>
					<link>
						<linkclipref>AA1471_01 4</linkclipref>
						<mediatype>audio</mediatype>
						<trackindex>2</trackindex>
						<clipindex>119</clipindex>
					</link>
					<itemhistory>
						<uuid>16FB4D9C-7183-4363-9560-70592C575D7E</uuid>
					</itemhistory>
				</clipitem>
				<clipitem id="AA1473_01 3">
					<name>AA1473_01</name>
					<duration>2532</duration>
					<rate>
						<ntsc>FALSE</ntsc>
						<timebase>25</timebase>
					</rate>
					<in>280</in>
					<out>372</out>
					<start>26334</start>
					<end>26426</end>
					<subframeoffset>0</subframeoffset>
					<masterclipid>AA1473_01 1</masterclipid>
					<logginginfo>
						<scene/>
						<shottake/>
						<lognote/>
						<good>FALSE</good>
					</logginginfo>
					<labels>
						<label2/>
					</labels>
					<comments>
						<mastercomment1/>
						<mastercomment2/>
						<mastercomment3/>
						<mastercomment4/>
					</comments>
					<file id="AA1473_01 2"/>
					<filter>
						<effect>
							<name>Audio Levels</name>
							<effectid>audiolevels</effectid>
							<effectcategory>audiolevels</effectcategory>
							<effecttype>audiolevels</effecttype>
							<mediatype>audio</mediatype>
							<parameter>
								<name>Level</name>
								<parameterid>level</parameterid>
								<valuemin>0</valuemin>
								<valuemax>3.98109</valuemax>
								<value>1</value>
							</parameter>
						</effect>
					</filter>
					<filter>
						<effect>
							<name>Audio Pan</name>
							<effectid>audiopan</effectid>
							<effectcategory>audiopan</effectcategory>
							<effecttype>audiopan</effecttype>
							<mediatype>audio</mediatype>
							<parameter>
								<name>Pan</name>
								<parameterid>pan</parameterid>
								<valuemin>-1</valuemin>
								<valuemax>1</valuemax>
								<value>0</value>
							</parameter>
						</effect>
					</filter>
					<sourcetrack>
						<mediatype>audio</mediatype>
						<trackindex>1</trackindex>
					</sourcetrack>
					<link>
						<linkclipref>AA1473_01 </linkclipref>
						<mediatype>video</mediatype>
						<trackindex>1</trackindex>
						<clipindex>334</clipindex>
					</link>
					<link>
						<linkclipref>AA1473_01 3</linkclipref>
						<mediatype>audio</mediatype>
						<trackindex>1</trackindex>
						<clipindex>142</clipindex>
					</link>
					<link>
						<linkclipref>AA1473_01 4</linkclipref>
						<mediatype>audio</mediatype>
						<trackindex>2</trackindex>
						<clipindex>120</clipindex>
					</link>
					<itemhistory>
						<uuid>DECEDF26-3641-4DC8-913F-276D6753CA5D</uuid>
					</itemhistory>
				</clipitem>
				<clipitem id="AA1472_01 15">
					<name>AA1472_01</name>
					<duration>3252</duration>
					<rate>
						<ntsc>FALSE</ntsc>
						<timebase>25</timebase>
					</rate>
					<in>237</in>
					<out>256</out>
					<start>26426</start>
					<end>26445</end>
					<subframeoffset>0</subframeoffset>
					<masterclipid>AA1472_01 1</masterclipid>
					<logginginfo>
						<scene/>
						<shottake/>
						<lognote/>
						<good>FALSE</good>
					</logginginfo>
					<labels>
						<label2/>
					</labels>
					<comments>
						<mastercomment1/>
						<mastercomment2/>
						<mastercomment3/>
						<mastercomment4/>
					</comments>
					<file id="AA1472_01 2"/>
					<filter>
						<effect>
							<name>Audio Levels</name>
							<effectid>audiolevels</effectid>
							<effectcategory>audiolevels</effectcategory>
							<effecttype>audiolevels</effecttype>
							<mediatype>audio</mediatype>
							<parameter>
								<name>Level</name>
								<parameterid>level</parameterid>
								<valuemin>0</valuemin>
								<valuemax>3.98109</valuemax>
								<value>1</value>
							</parameter>
						</effect>
					</filter>
					<filter>
						<effect>
							<name>Audio Pan</name>
							<effectid>audiopan</effectid>
							<effectcategory>audiopan</effectcategory>
							<effecttype>audiopan</effecttype>
							<mediatype>audio</mediatype>
							<parameter>
								<name>Pan</name>
								<parameterid>pan</parameterid>
								<valuemin>-1</valuemin>
								<valuemax>1</valuemax>
								<value>0</value>
							</parameter>
						</effect>
					</filter>
					<sourcetrack>
						<mediatype>audio</mediatype>
						<trackindex>1</trackindex>
					</sourcetrack>
					<itemhistory>
						<uuid>7889E26B-3828-4EC8-9370-1C4EFFB622F8</uuid>
					</itemhistory>
				</clipitem>
				<clipitem id="AA1472_01 3">
					<name>AA1472_01</name>
					<duration>3252</duration>
					<rate>
						<ntsc>FALSE</ntsc>
						<timebase>25</timebase>
					</rate>
					<in>271</in>
					<out>890</out>
					<start>26445</start>
					<end>27064</end>
					<subframeoffset>0</subframeoffset>
					<masterclipid>AA1472_01 1</masterclipid>
					<logginginfo>
						<scene/>
						<shottake/>
						<lognote/>
						<good>FALSE</good>
					</logginginfo>
					<labels>
						<label2/>
					</labels>
					<comments>
						<mastercomment1/>
						<mastercomment2/>
						<mastercomment3/>
						<mastercomment4/>
					</comments>
					<file id="AA1472_01 2"/>
					<filter>
						<effect>
							<name>Audio Levels</name>
							<effectid>audiolevels</effectid>
							<effectcategory>audiolevels</effectcategory>
							<effecttype>audiolevels</effecttype>
							<mediatype>audio</mediatype>
							<parameter>
								<name>Level</name>
								<parameterid>level</parameterid>
								<valuemin>0</valuemin>
								<valuemax>3.98109</valuemax>
								<value>1</value>
							</parameter>
						</effect>
					</filter>
					<filter>
						<effect>
							<name>Audio Pan</name>
							<effectid>audiopan</effectid>
							<effectcategory>audiopan</effectcategory>
							<effecttype>audiopan</effecttype>
							<mediatype>audio</mediatype>
							<parameter>
								<name>Pan</name>
								<parameterid>pan</parameterid>
								<valuemin>-1</valuemin>
								<valuemax>1</valuemax>
								<value>0</value>
							</parameter>
						</effect>
					</filter>
					<sourcetrack>
						<mediatype>audio</mediatype>
						<trackindex>1</trackindex>
					</sourcetrack>
					<link>
						<linkclipref>AA1472_01 </linkclipref>
						<mediatype>video</mediatype>
						<trackindex>1</trackindex>
						<clipindex>336</clipindex>
					</link>
					<link>
						<linkclipref>AA1472_01 3</linkclipref>
						<mediatype>audio</mediatype>
						<trackindex>1</trackindex>
						<clipindex>144</clipindex>
					</link>
					<link>
						<linkclipref>AA1472_01 4</linkclipref>
						<mediatype>audio</mediatype>
						<trackindex>2</trackindex>
						<clipindex>122</clipindex>
					</link>
					<itemhistory>
						<uuid>58282356-157C-40A6-BF91-2EE12F3110D9</uuid>
					</itemhistory>
				</clipitem>
				<clipitem id="AA1474_01 4">
					<name>AA1474_01</name>
					<duration>636</duration>
					<rate>
						<ntsc>FALSE</ntsc>
						<timebase>25</timebase>
					</rate>
					<in>378</in>
					<out>435</out>
					<start>27064</start>
					<end>27121</end>
					<subframeoffset>0</subframeoffset>
					<masterclipid>AA1474_01 1</masterclipid>
					<syncoffset>0</syncoffset>
					<logginginfo>
						<scene/>
						<shottake/>
						<lognote/>
						<good>FALSE</good>
					</logginginfo>
					<labels>
						<label2/>
					</labels>
					<comments>
						<mastercomment1/>
						<mastercomment2/>
						<mastercomment3/>
						<mastercomment4/>
					</comments>
					<file id="AA1474_01 2"/>
					<filter>
						<effect>
							<name>Audio Levels</name>
							<effectid>audiolevels</effectid>
							<effectcategory>audiolevels</effectcategory>
							<effecttype>audiolevels</effecttype>
							<mediatype>audio</mediatype>
							<parameter>
								<name>Level</name>
								<parameterid>level</parameterid>
								<valuemin>0</valuemin>
								<valuemax>3.98109</valuemax>
								<value>1</value>
							</parameter>
						</effect>
					</filter>
					<filter>
						<effect>
							<name>Audio Pan</name>
							<effectid>audiopan</effectid>
							<effectcategory>audiopan</effectcategory>
							<effecttype>audiopan</effecttype>
							<mediatype>audio</mediatype>
							<parameter>
								<name>Pan</name>
								<parameterid>pan</parameterid>
								<valuemin>-1</valuemin>
								<valuemax>1</valuemax>
								<value>0</value>
							</parameter>
						</effect>
					</filter>
					<sourcetrack>
						<mediatype>audio</mediatype>
						<trackindex>1</trackindex>
					</sourcetrack>
					<link>
						<linkclipref>AA1474_01 3</linkclipref>
						<mediatype>video</mediatype>
						<trackindex>1</trackindex>
						<clipindex>339</clipindex>
					</link>
					<link>
						<linkclipref>AA1474_01 4</linkclipref>
						<mediatype>audio</mediatype>
						<trackindex>1</trackindex>
						<clipindex>145</clipindex>
					</link>
					<link>
						<linkclipref>AA1474_01 5</linkclipref>
						<mediatype>audio</mediatype>
						<trackindex>2</trackindex>
						<clipindex>123</clipindex>
					</link>
					<itemhistory>
						<uuid>2CF64C80-D724-4D1D-B061-5DF4AFB0CCDB</uuid>
					</itemhistory>
				</clipitem>
				<clipitem id="AA1472_01 7">
					<name>AA1472_01</name>
					<duration>3252</duration>
					<rate>
						<ntsc>FALSE</ntsc>
						<timebase>25</timebase>
					</rate>
					<in>889</in>
					<out>1138</out>
					<start>27121</start>
					<end>27370</end>
					<subframeoffset>0</subframeoffset>
					<masterclipid>AA1472_01 1</masterclipid>
					<syncoffset>0</syncoffset>
					<logginginfo>
						<scene/>
						<shottake/>
						<lognote/>
						<good>FALSE</good>
					</logginginfo>
					<labels>
						<label2/>
					</labels>
					<comments>
						<mastercomment1/>
						<mastercomment2/>
						<mastercomment3/>
						<mastercomment4/>
					</comments>
					<file id="AA1472_01 2"/>
					<filter>
						<effect>
							<name>Audio Levels</name>
							<effectid>audiolevels</effectid>
							<effectcategory>audiolevels</effectcategory>
							<effecttype>audiolevels</effecttype>
							<mediatype>audio</mediatype>
							<parameter>
								<name>Level</name>
								<parameterid>level</parameterid>
								<valuemin>0</valuemin>
								<valuemax>3.98109</valuemax>
								<value>1</value>
							</parameter>
						</effect>
					</filter>
					<filter>
						<effect>
							<name>Audio Pan</name>
							<effectid>audiopan</effectid>
							<effectcategory>audiopan</effectcategory>
							<effecttype>audiopan</effecttype>
							<mediatype>audio</mediatype>
							<parameter>
								<name>Pan</name>
								<parameterid>pan</parameterid>
								<valuemin>-1</valuemin>
								<valuemax>1</valuemax>
								<value>0</value>
							</parameter>
						</effect>
					</filter>
					<sourcetrack>
						<mediatype>audio</mediatype>
						<trackindex>1</trackindex>
					</sourcetrack>
					<link>
						<linkclipref>AA1472_01 6</linkclipref>
						<mediatype>video</mediatype>
						<trackindex>1</trackindex>
						<clipindex>340</clipindex>
					</link>
					<link>
						<linkclipref>AA1472_01 7</linkclipref>
						<mediatype>audio</mediatype>
						<trackindex>1</trackindex>
						<clipindex>146</clipindex>
					</link>
					<link>
						<linkclipref>AA1472_01 8</linkclipref>
						<mediatype>audio</mediatype>
						<trackindex>2</trackindex>
						<clipindex>124</clipindex>
					</link>
					<itemhistory>
						<uuid>58B90787-B745-4210-B145-8033926E98D0</uuid>
					</itemhistory>
				</clipitem>
				<clipitem id="AA1473_01 7">
					<name>AA1473_01</name>
					<duration>2532</duration>
					<rate>
						<ntsc>FALSE</ntsc>
						<timebase>25</timebase>
					</rate>
					<in>1286</in>
					<out>1554</out>
					<start>27370</start>
					<end>27638</end>
					<subframeoffset>0</subframeoffset>
					<masterclipid>AA1473_01 1</masterclipid>
					<logginginfo>
						<scene/>
						<shottake/>
						<lognote/>
						<good>FALSE</good>
					</logginginfo>
					<labels>
						<label2/>
					</labels>
					<comments>
						<mastercomment1/>
						<mastercomment2/>
						<mastercomment3/>
						<mastercomment4/>
					</comments>
					<file id="AA1473_01 2"/>
					<filter>
						<effect>
							<name>Audio Levels</name>
							<effectid>audiolevels</effectid>
							<effectcategory>audiolevels</effectcategory>
							<effecttype>audiolevels</effecttype>
							<mediatype>audio</mediatype>
							<parameter>
								<name>Level</name>
								<parameterid>level</parameterid>
								<valuemin>0</valuemin>
								<valuemax>3.98109</valuemax>
								<value>1</value>
							</parameter>
						</effect>
					</filter>
					<filter>
						<effect>
							<name>Audio Pan</name>
							<effectid>audiopan</effectid>
							<effectcategory>audiopan</effectcategory>
							<effecttype>audiopan</effecttype>
							<mediatype>audio</mediatype>
							<parameter>
								<name>Pan</name>
								<parameterid>pan</parameterid>
								<valuemin>-1</valuemin>
								<valuemax>1</valuemax>
								<value>0</value>
							</parameter>
						</effect>
					</filter>
					<sourcetrack>
						<mediatype>audio</mediatype>
						<trackindex>1</trackindex>
					</sourcetrack>
					<link>
						<linkclipref>AA1473_01 6</linkclipref>
						<mediatype>video</mediatype>
						<trackindex>1</trackindex>
						<clipindex>341</clipindex>
					</link>
					<link>
						<linkclipref>AA1473_01 7</linkclipref>
						<mediatype>audio</mediatype>
						<trackindex>1</trackindex>
						<clipindex>147</clipindex>
					</link>
					<link>
						<linkclipref>AA1473_01 8</linkclipref>
						<mediatype>audio</mediatype>
						<trackindex>2</trackindex>
						<clipindex>125</clipindex>
					</link>
					<itemhistory>
						<uuid>E330C0C4-7F8E-4815-BD45-1D0D747976A0</uuid>
					</itemhistory>
				</clipitem>
				<clipitem id="AA1472_01 10">
					<name>AA1472_01</name>
					<duration>3252</duration>
					<rate>
						<ntsc>FALSE</ntsc>
						<timebase>25</timebase>
					</rate>
					<in>1389</in>
					<out>1957</out>
					<start>27638</start>
					<end>-1</end>
					<subframeoffset>0</subframeoffset>
					<masterclipid>AA1472_01 1</masterclipid>
					<syncoffset>0</syncoffset>
					<logginginfo>
						<scene/>
						<shottake/>
						<lognote/>
						<good>FALSE</good>
					</logginginfo>
					<labels>
						<label2/>
					</labels>
					<comments>
						<mastercomment1/>
						<mastercomment2/>
						<mastercomment3/>
						<mastercomment4/>
					</comments>
					<file id="AA1472_01 2"/>
					<filter>
						<effect>
							<name>Audio Levels</name>
							<effectid>audiolevels</effectid>
							<effectcategory>audiolevels</effectcategory>
							<effecttype>audiolevels</effecttype>
							<mediatype>audio</mediatype>
							<parameter>
								<name>Level</name>
								<parameterid>level</parameterid>
								<valuemin>0</valuemin>
								<valuemax>3.98109</valuemax>
								<value>1.77828</value>
							</parameter>
						</effect>
					</filter>
					<filter>
						<effect>
							<name>Audio Pan</name>
							<effectid>audiopan</effectid>
							<effectcategory>audiopan</effectcategory>
							<effecttype>audiopan</effecttype>
							<mediatype>audio</mediatype>
							<parameter>
								<name>Pan</name>
								<parameterid>pan</parameterid>
								<valuemin>-1</valuemin>
								<valuemax>1</valuemax>
								<value>0</value>
							</parameter>
						</effect>
					</filter>
					<sourcetrack>
						<mediatype>audio</mediatype>
						<trackindex>1</trackindex>
					</sourcetrack>
					<link>
						<linkclipref>AA1472_01 9</linkclipref>
						<mediatype>video</mediatype>
						<trackindex>1</trackindex>
						<clipindex>342</clipindex>
					</link>
					<link>
						<linkclipref>AA1472_01 10</linkclipref>
						<mediatype>audio</mediatype>
						<trackindex>1</trackindex>
						<clipindex>148</clipindex>
					</link>
					<link>
						<linkclipref>AA1472_01 11</linkclipref>
						<mediatype>audio</mediatype>
						<trackindex>2</trackindex>
						<clipindex>126</clipindex>
					</link>
					<itemhistory>
						<uuid>DB9D4C0F-F1E9-44AA-90FB-E4761D32CA8A</uuid>
					</itemhistory>
				</clipitem>
				<transitionitem>
					<rate>
						<ntsc>FALSE</ntsc>
						<timebase>25</timebase>
					</rate>
					<start>28203</start>
					<end>28206</end>
					<alignment>center</alignment>
					<effect>
						<name>Cross Fade (+3dB)</name>
						<effectid>KGAudioTransCrossFade3dB</effectid>
						<effecttype>transition</effecttype>
						<mediatype>audio</mediatype>
					</effect>
				</transitionitem>
				<clipitem id="AA1473_01 10">
					<name>AA1473_01</name>
					<duration>2532</duration>
					<rate>
						<ntsc>FALSE</ntsc>
						<timebase>25</timebase>
					</rate>
					<in>2092</in>
					<out>2163</out>
					<start>-1</start>
					<end>28274</end>
					<subframeoffset>0</subframeoffset>
					<masterclipid>AA1473_01 1</masterclipid>
					<logginginfo>
						<scene/>
						<shottake/>
						<lognote/>
						<good>FALSE</good>
					</logginginfo>
					<labels>
						<label2/>
					</labels>
					<comments>
						<mastercomment1/>
						<mastercomment2/>
						<mastercomment3/>
						<mastercomment4/>
					</comments>
					<file id="AA1473_01 2"/>
					<filter>
						<effect>
							<name>Audio Levels</name>
							<effectid>audiolevels</effectid>
							<effectcategory>audiolevels</effectcategory>
							<effecttype>audiolevels</effecttype>
							<mediatype>audio</mediatype>
							<parameter>
								<name>Level</name>
								<parameterid>level</parameterid>
								<valuemin>0</valuemin>
								<valuemax>3.98109</valuemax>
								<value>1.77828</value>
							</parameter>
						</effect>
					</filter>
					<filter>
						<effect>
							<name>Audio Pan</name>
							<effectid>audiopan</effectid>
							<effectcategory>audiopan</effectcategory>
							<effecttype>audiopan</effecttype>
							<mediatype>audio</mediatype>
							<parameter>
								<name>Pan</name>
								<parameterid>pan</parameterid>
								<valuemin>-1</valuemin>
								<valuemax>1</valuemax>
								<value>0</value>
							</parameter>
						</effect>
					</filter>
					<sourcetrack>
						<mediatype>audio</mediatype>
						<trackindex>1</trackindex>
					</sourcetrack>
					<link>
						<linkclipref>AA1473_01 9</linkclipref>
						<mediatype>video</mediatype>
						<trackindex>1</trackindex>
						<clipindex>343</clipindex>
					</link>
					<link>
						<linkclipref>AA1473_01 10</linkclipref>
						<mediatype>audio</mediatype>
						<trackindex>1</trackindex>
						<clipindex>150</clipindex>
					</link>
					<link>
						<linkclipref>AA1473_01 11</linkclipref>
						<mediatype>audio</mediatype>
						<trackindex>2</trackindex>
						<clipindex>128</clipindex>
					</link>
					<itemhistory>
						<uuid>A412041E-D43E-4B2E-BC3F-5F2B3DE3A722</uuid>
					</itemhistory>
				</clipitem>
				<clipitem id="AA1472_01 13">
					<name>AA1472_01</name>
					<duration>3252</duration>
					<rate>
						<ntsc>FALSE</ntsc>
						<timebase>25</timebase>
					</rate>
					<in>2172</in>
					<out>2926</out>
					<start>28274</start>
					<end>29028</end>
					<subframeoffset>0</subframeoffset>
					<masterclipid>AA1472_01 1</masterclipid>
					<syncoffset>0</syncoffset>
					<logginginfo>
						<scene/>
						<shottake/>
						<lognote/>
						<good>FALSE</good>
					</logginginfo>
					<labels>
						<label2/>
					</labels>
					<comments>
						<mastercomment1/>
						<mastercomment2/>
						<mastercomment3/>
						<mastercomment4/>
					</comments>
					<file id="AA1472_01 2"/>
					<filter>
						<effect>
							<name>Audio Levels</name>
							<effectid>audiolevels</effectid>
							<effectcategory>audiolevels</effectcategory>
							<effecttype>audiolevels</effecttype>
							<mediatype>audio</mediatype>
							<parameter>
								<name>Level</name>
								<parameterid>level</parameterid>
								<valuemin>0</valuemin>
								<valuemax>3.98109</valuemax>
								<keyframe>
									<when>2781.86</when>
									<value>1</value>
								</keyframe>
								<keyframe>
									<when>2925</when>
									<value>0</value>
								</keyframe>
								<interpolation>
									<name>FCPCurve</name>
								</interpolation>
								<value>1</value>
							</parameter>
						</effect>
					</filter>
					<filter>
						<effect>
							<name>Audio Pan</name>
							<effectid>audiopan</effectid>
							<effectcategory>audiopan</effectcategory>
							<effecttype>audiopan</effecttype>
							<mediatype>audio</mediatype>
							<parameter>
								<name>Pan</name>
								<parameterid>pan</parameterid>
								<valuemin>-1</valuemin>
								<valuemax>1</valuemax>
								<value>0</value>
							</parameter>
						</effect>
					</filter>
					<sourcetrack>
						<mediatype>audio</mediatype>
						<trackindex>1</trackindex>
					</sourcetrack>
					<link>
						<linkclipref>AA1472_01 12</linkclipref>
						<mediatype>video</mediatype>
						<trackindex>1</trackindex>
						<clipindex>344</clipindex>
					</link>
					<link>
						<linkclipref>AA1472_01 13</linkclipref>
						<mediatype>audio</mediatype>
						<trackindex>1</trackindex>
						<clipindex>151</clipindex>
					</link>
					<link>
						<linkclipref>AA1472_01 14</linkclipref>
						<mediatype>audio</mediatype>
						<trackindex>2</trackindex>
						<clipindex>129</clipindex>
					</link>
					<itemhistory>
						<uuid>7568F587-833F-4397-9823-30B0B9DE6817</uuid>
					</itemhistory>
				</clipitem>
				<enabled>TRUE</enabled>
				<locked>FALSE</locked>
				<outputchannelindex>1</outputchannelindex>
			</track>
			<track>
				<clipitem id="525_1799_01 4">
					<name>525_1799_01</name>
					<duration>1779</duration>
					<rate>
						<ntsc>FALSE</ntsc>
						<timebase>25</timebase>
					</rate>
					<in>533</in>
					<out>636</out>
					<start>409</start>
					<end>512</end>
					<subframeoffset>0</subframeoffset>
					<masterclipid>525_1799_01 1</masterclipid>
					<logginginfo>
						<scene/>
						<shottake/>
						<lognote/>
						<good>FALSE</good>
					</logginginfo>
					<labels>
						<label2/>
					</labels>
					<comments>
						<mastercomment1/>
						<mastercomment2/>
						<mastercomment3/>
						<mastercomment4/>
					</comments>
					<file id="525_1799_01 2"/>
					<filter>
						<effect>
							<name>Audio Levels</name>
							<effectid>audiolevels</effectid>
							<effectcategory>audiolevels</effectcategory>
							<effecttype>audiolevels</effecttype>
							<mediatype>audio</mediatype>
							<parameter>
								<name>Level</name>
								<parameterid>level</parameterid>
								<valuemin>0</valuemin>
								<valuemax>3.98109</valuemax>
								<value>0</value>
							</parameter>
						</effect>
					</filter>
					<filter>
						<effect>
							<name>Audio Pan</name>
							<effectid>audiopan</effectid>
							<effectcategory>audiopan</effectcategory>
							<effecttype>audiopan</effecttype>
							<mediatype>audio</mediatype>
							<parameter>
								<name>Pan</name>
								<parameterid>pan</parameterid>
								<valuemin>-1</valuemin>
								<valuemax>1</valuemax>
								<value>0</value>
							</parameter>
						</effect>
					</filter>
					<sourcetrack>
						<mediatype>audio</mediatype>
						<trackindex>2</trackindex>
					</sourcetrack>
					<link>
						<linkclipref>525_1799_01 </linkclipref>
						<mediatype>video</mediatype>
						<trackindex>1</trackindex>
						<clipindex>1</clipindex>
					</link>
					<link>
						<linkclipref>525_1799_01 3</linkclipref>
						<mediatype>audio</mediatype>
						<trackindex>1</trackindex>
						<clipindex>1</clipindex>
					</link>
					<link>
						<linkclipref>525_1799_01 4</linkclipref>
						<mediatype>audio</mediatype>
						<trackindex>2</trackindex>
						<clipindex>1</clipindex>
					</link>
					<itemhistory>
						<uuid>BE695826-BA17-4B13-8F78-8D7E5AC55326</uuid>
					</itemhistory>
				</clipitem>
				<clipitem id="DYR19729_01 4">
					<name>DYR19729_01</name>
					<duration>589</duration>
					<rate>
						<ntsc>FALSE</ntsc>
						<timebase>25</timebase>
					</rate>
					<in>318</in>
					<out>458</out>
					<start>512</start>
					<end>-1</end>
					<masterclipid>DYR19729_01 1</masterclipid>
					<logginginfo>
						<scene/>
						<shottake/>
						<lognote/>
						<good>FALSE</good>
					</logginginfo>
					<labels>
						<label2/>
					</labels>
					<comments>
						<mastercomment1/>
						<mastercomment2/>
						<mastercomment3/>
						<mastercomment4/>
					</comments>
					<file id="DYR19729_01 2"/>
					<filter>
						<effect>
							<name>Audio Levels</name>
							<effectid>audiolevels</effectid>
							<effectcategory>audiolevels</effectcategory>
							<effecttype>audiolevels</effecttype>
							<mediatype>audio</mediatype>
							<parameter>
								<name>Level</name>
								<parameterid>level</parameterid>
								<valuemin>0</valuemin>
								<valuemax>3.98109</valuemax>
								<value>0</value>
							</parameter>
						</effect>
					</filter>
					<filter>
						<effect>
							<name>Audio Pan</name>
							<effectid>audiopan</effectid>
							<effectcategory>audiopan</effectcategory>
							<effecttype>audiopan</effecttype>
							<mediatype>audio</mediatype>
							<parameter>
								<name>Pan</name>
								<parameterid>pan</parameterid>
								<valuemin>-1</valuemin>
								<valuemax>1</valuemax>
								<value>0</value>
							</parameter>
						</effect>
					</filter>
					<sourcetrack>
						<mediatype>audio</mediatype>
						<trackindex>2</trackindex>
					</sourcetrack>
					<link>
						<linkclipref>DYR19729_01 </linkclipref>
						<mediatype>video</mediatype>
						<trackindex>1</trackindex>
						<clipindex>3</clipindex>
					</link>
					<link>
						<linkclipref>DYR19729_01 3</linkclipref>
						<mediatype>audio</mediatype>
						<trackindex>1</trackindex>
						<clipindex>2</clipindex>
					</link>
					<link>
						<linkclipref>DYR19729_01 4</linkclipref>
						<mediatype>audio</mediatype>
						<trackindex>2</trackindex>
						<clipindex>2</clipindex>
					</link>
					<itemhistory>
						<uuid>4B67A3B4-F027-4421-A594-F1CDF9F568B1</uuid>
					</itemhistory>
				</clipitem>
				<transitionitem>
					<rate>
						<ntsc>FALSE</ntsc>
						<timebase>25</timebase>
					</rate>
					<start>627</start>
					<end>652</end>
					<alignment>center</alignment>
					<effect>
						<name>Cross Fade (+3dB)</name>
						<effectid>KGAudioTransCrossFade3dB</effectid>
						<effecttype>transition</effecttype>
						<mediatype>audio</mediatype>
					</effect>
				</transitionitem>
				<clipitem id="AA1477_01 4">
					<name>AA1477_01</name>
					<duration>408</duration>
					<rate>
						<ntsc>FALSE</ntsc>
						<timebase>25</timebase>
					</rate>
					<in>196</in>
					<out>289</out>
					<start>-1</start>
					<end>720</end>
					<subframeoffset>0</subframeoffset>
					<masterclipid>AA1477_01 1</masterclipid>
					<logginginfo>
						<scene/>
						<shottake/>
						<lognote/>
						<good>FALSE</good>
					</logginginfo>
					<labels>
						<label2/>
					</labels>
					<comments>
						<mastercomment1/>
						<mastercomment2/>
						<mastercomment3/>
						<mastercomment4/>
					</comments>
					<file id="AA1477_01 2"/>
					<filter>
						<effect>
							<name>Audio Levels</name>
							<effectid>audiolevels</effectid>
							<effectcategory>audiolevels</effectcategory>
							<effecttype>audiolevels</effecttype>
							<mediatype>audio</mediatype>
							<parameter>
								<name>Level</name>
								<parameterid>level</parameterid>
								<valuemin>0</valuemin>
								<valuemax>3.98109</valuemax>
								<value>1</value>
							</parameter>
						</effect>
					</filter>
					<filter>
						<effect>
							<name>Audio Pan</name>
							<effectid>audiopan</effectid>
							<effectcategory>audiopan</effectcategory>
							<effecttype>audiopan</effecttype>
							<mediatype>audio</mediatype>
							<parameter>
								<name>Pan</name>
								<parameterid>pan</parameterid>
								<valuemin>-1</valuemin>
								<valuemax>1</valuemax>
								<value>0</value>
							</parameter>
						</effect>
					</filter>
					<sourcetrack>
						<mediatype>audio</mediatype>
						<trackindex>2</trackindex>
					</sourcetrack>
					<link>
						<linkclipref>AA1477_01 </linkclipref>
						<mediatype>video</mediatype>
						<trackindex>1</trackindex>
						<clipindex>5</clipindex>
					</link>
					<link>
						<linkclipref>AA1477_01 3</linkclipref>
						<mediatype>audio</mediatype>
						<trackindex>1</trackindex>
						<clipindex>4</clipindex>
					</link>
					<link>
						<linkclipref>AA1477_01 4</linkclipref>
						<mediatype>audio</mediatype>
						<trackindex>2</trackindex>
						<clipindex>4</clipindex>
					</link>
					<itemhistory>
						<uuid>BF50DB99-9E25-454D-A965-D519CD557000</uuid>
					</itemhistory>
				</clipitem>
				<clipitem id="Clip1ATK24 4">
					<name>Clip1ATK24</name>
					<duration>706</duration>
					<rate>
						<ntsc>FALSE</ntsc>
						<timebase>25</timebase>
					</rate>
					<in>23</in>
					<out>424</out>
					<start>848</start>
					<end>1249</end>
					<subframeoffset>0</subframeoffset>
					<masterclipid>Clip1ATK24 1</masterclipid>
					<logginginfo>
						<scene/>
						<shottake/>
						<lognote/>
						<good>FALSE</good>
					</logginginfo>
					<labels>
						<label2/>
					</labels>
					<comments>
						<mastercomment1/>
						<mastercomment2/>
						<mastercomment3/>
						<mastercomment4/>
					</comments>
					<file id="Clip1ATK24 2"/>
					<filter>
						<effect>
							<name>Audio Levels</name>
							<effectid>audiolevels</effectid>
							<effectcategory>audiolevels</effectcategory>
							<effecttype>audiolevels</effecttype>
							<mediatype>audio</mediatype>
							<parameter>
								<name>Level</name>
								<parameterid>level</parameterid>
								<valuemin>0</valuemin>
								<valuemax>3.98109</valuemax>
								<value>1</value>
							</parameter>
						</effect>
					</filter>
					<filter>
						<effect>
							<name>Audio Pan</name>
							<effectid>audiopan</effectid>
							<effectcategory>audiopan</effectcategory>
							<effecttype>audiopan</effecttype>
							<mediatype>audio</mediatype>
							<parameter>
								<name>Pan</name>
								<parameterid>pan</parameterid>
								<valuemin>-1</valuemin>
								<valuemax>1</valuemax>
								<value>0</value>
							</parameter>
						</effect>
					</filter>
					<sourcetrack>
						<mediatype>audio</mediatype>
						<trackindex>2</trackindex>
					</sourcetrack>
					<link>
						<linkclipref>Clip1ATK24 </linkclipref>
						<mediatype>video</mediatype>
						<trackindex>1</trackindex>
						<clipindex>8</clipindex>
					</link>
					<link>
						<linkclipref>Clip1ATK24 3</linkclipref>
						<mediatype>audio</mediatype>
						<trackindex>1</trackindex>
						<clipindex>5</clipindex>
					</link>
					<link>
						<linkclipref>Clip1ATK24 4</linkclipref>
						<mediatype>audio</mediatype>
						<trackindex>2</trackindex>
						<clipindex>5</clipindex>
					</link>
					<itemhistory>
						<uuid>14DB8A6A-2DEE-465F-A3C2-AACA0BBA7416</uuid>
					</itemhistory>
				</clipitem>
				<clipitem id="Clip1ATK29 4">
					<name>Clip1ATK29</name>
					<duration>553</duration>
					<rate>
						<ntsc>FALSE</ntsc>
						<timebase>25</timebase>
					</rate>
					<in>230</in>
					<out>378</out>
					<start>1249</start>
					<end>1397</end>
					<subframeoffset>0</subframeoffset>
					<masterclipid>Clip1ATK29 1</masterclipid>
					<logginginfo>
						<scene/>
						<shottake/>
						<lognote/>
						<good>FALSE</good>
					</logginginfo>
					<labels>
						<label2/>
					</labels>
					<comments>
						<mastercomment1/>
						<mastercomment2/>
						<mastercomment3/>
						<mastercomment4/>
					</comments>
					<file id="Clip1ATK29 2"/>
					<filter>
						<effect>
							<name>Audio Levels</name>
							<effectid>audiolevels</effectid>
							<effectcategory>audiolevels</effectcategory>
							<effecttype>audiolevels</effecttype>
							<mediatype>audio</mediatype>
							<parameter>
								<name>Level</name>
								<parameterid>level</parameterid>
								<valuemin>0</valuemin>
								<valuemax>3.98109</valuemax>
								<value>1</value>
							</parameter>
						</effect>
					</filter>
					<filter>
						<effect>
							<name>Audio Pan</name>
							<effectid>audiopan</effectid>
							<effectcategory>audiopan</effectcategory>
							<effecttype>audiopan</effecttype>
							<mediatype>audio</mediatype>
							<parameter>
								<name>Pan</name>
								<parameterid>pan</parameterid>
								<valuemin>-1</valuemin>
								<valuemax>1</valuemax>
								<value>0</value>
							</parameter>
						</effect>
					</filter>
					<sourcetrack>
						<mediatype>audio</mediatype>
						<trackindex>2</trackindex>
					</sourcetrack>
					<link>
						<linkclipref>Clip1ATK29 </linkclipref>
						<mediatype>video</mediatype>
						<trackindex>1</trackindex>
						<clipindex>9</clipindex>
					</link>
					<link>
						<linkclipref>Clip1ATK29 3</linkclipref>
						<mediatype>audio</mediatype>
						<trackindex>1</trackindex>
						<clipindex>6</clipindex>
					</link>
					<link>
						<linkclipref>Clip1ATK29 4</linkclipref>
						<mediatype>audio</mediatype>
						<trackindex>2</trackindex>
						<clipindex>6</clipindex>
					</link>
					<itemhistory>
						<uuid>68C21849-844E-4E16-A63C-9F21B48FD730</uuid>
					</itemhistory>
				</clipitem>
				<clipitem id="525_1784_01 4">
					<name>525_1784_01</name>
					<duration>1081</duration>
					<rate>
						<ntsc>FALSE</ntsc>
						<timebase>25</timebase>
					</rate>
					<in>333</in>
					<out>542</out>
					<start>1397</start>
					<end>1606</end>
					<subframeoffset>0</subframeoffset>
					<masterclipid>525_1784_01 1</masterclipid>
					<logginginfo>
						<scene/>
						<shottake/>
						<lognote/>
						<good>FALSE</good>
					</logginginfo>
					<labels>
						<label2/>
					</labels>
					<comments>
						<mastercomment1/>
						<mastercomment2/>
						<mastercomment3/>
						<mastercomment4/>
					</comments>
					<file id="525_1784_01 2"/>
					<filter>
						<effect>
							<name>Audio Levels</name>
							<effectid>audiolevels</effectid>
							<effectcategory>audiolevels</effectcategory>
							<effecttype>audiolevels</effecttype>
							<mediatype>audio</mediatype>
							<parameter>
								<name>Level</name>
								<parameterid>level</parameterid>
								<valuemin>0</valuemin>
								<valuemax>3.98109</valuemax>
								<value>1</value>
							</parameter>
						</effect>
					</filter>
					<filter>
						<effect>
							<name>Audio Pan</name>
							<effectid>audiopan</effectid>
							<effectcategory>audiopan</effectcategory>
							<effecttype>audiopan</effecttype>
							<mediatype>audio</mediatype>
							<parameter>
								<name>Pan</name>
								<parameterid>pan</parameterid>
								<valuemin>-1</valuemin>
								<valuemax>1</valuemax>
								<value>0</value>
							</parameter>
						</effect>
					</filter>
					<sourcetrack>
						<mediatype>audio</mediatype>
						<trackindex>2</trackindex>
					</sourcetrack>
					<link>
						<linkclipref>525_1784_01 </linkclipref>
						<mediatype>video</mediatype>
						<trackindex>1</trackindex>
						<clipindex>10</clipindex>
					</link>
					<link>
						<linkclipref>525_1784_01 3</linkclipref>
						<mediatype>audio</mediatype>
						<trackindex>1</trackindex>
						<clipindex>7</clipindex>
					</link>
					<link>
						<linkclipref>525_1784_01 4</linkclipref>
						<mediatype>audio</mediatype>
						<trackindex>2</trackindex>
						<clipindex>7</clipindex>
					</link>
					<itemhistory>
						<uuid>3B8509EF-B82C-4AFC-A517-462CA13FB77E</uuid>
					</itemhistory>
				</clipitem>
				<clipitem id="525_1787_01 4">
					<name>525_1787_01</name>
					<duration>450</duration>
					<rate>
						<ntsc>FALSE</ntsc>
						<timebase>25</timebase>
					</rate>
					<in>247</in>
					<out>387</out>
					<start>1606</start>
					<end>1746</end>
					<subframeoffset>0</subframeoffset>
					<masterclipid>525_1787_01 1</masterclipid>
					<logginginfo>
						<scene/>
						<shottake/>
						<lognote/>
						<good>FALSE</good>
					</logginginfo>
					<labels>
						<label2/>
					</labels>
					<comments>
						<mastercomment1/>
						<mastercomment2/>
						<mastercomment3/>
						<mastercomment4/>
					</comments>
					<file id="525_1787_01 2"/>
					<filter>
						<effect>
							<name>Audio Levels</name>
							<effectid>audiolevels</effectid>
							<effectcategory>audiolevels</effectcategory>
							<effecttype>audiolevels</effecttype>
							<mediatype>audio</mediatype>
							<parameter>
								<name>Level</name>
								<parameterid>level</parameterid>
								<valuemin>0</valuemin>
								<valuemax>3.98109</valuemax>
								<value>1</value>
							</parameter>
						</effect>
					</filter>
					<filter>
						<effect>
							<name>Audio Pan</name>
							<effectid>audiopan</effectid>
							<effectcategory>audiopan</effectcategory>
							<effecttype>audiopan</effecttype>
							<mediatype>audio</mediatype>
							<parameter>
								<name>Pan</name>
								<parameterid>pan</parameterid>
								<valuemin>-1</valuemin>
								<valuemax>1</valuemax>
								<value>0</value>
							</parameter>
						</effect>
					</filter>
					<sourcetrack>
						<mediatype>audio</mediatype>
						<trackindex>2</trackindex>
					</sourcetrack>
					<link>
						<linkclipref>525_1787_01 </linkclipref>
						<mediatype>video</mediatype>
						<trackindex>1</trackindex>
						<clipindex>11</clipindex>
					</link>
					<link>
						<linkclipref>525_1787_01 3</linkclipref>
						<mediatype>audio</mediatype>
						<trackindex>1</trackindex>
						<clipindex>8</clipindex>
					</link>
					<link>
						<linkclipref>525_1787_01 4</linkclipref>
						<mediatype>audio</mediatype>
						<trackindex>2</trackindex>
						<clipindex>8</clipindex>
					</link>
					<itemhistory>
						<uuid>E39DFD89-9086-4C8F-8329-14B745DE2AC2</uuid>
					</itemhistory>
				</clipitem>
				<clipitem id="525_1797_01 4">
					<name>525_1797_01</name>
					<duration>3463</duration>
					<rate>
						<ntsc>FALSE</ntsc>
						<timebase>25</timebase>
					</rate>
					<in>34</in>
					<out>132</out>
					<start>1746</start>
					<end>1844</end>
					<subframeoffset>0</subframeoffset>
					<masterclipid>525_1797_01 1</masterclipid>
					<logginginfo>
						<scene/>
						<shottake/>
						<lognote/>
						<good>FALSE</good>
					</logginginfo>
					<labels>
						<label2/>
					</labels>
					<comments>
						<mastercomment1/>
						<mastercomment2/>
						<mastercomment3/>
						<mastercomment4/>
					</comments>
					<file id="525_1797_01 2"/>
					<filter>
						<effect>
							<name>Audio Levels</name>
							<effectid>audiolevels</effectid>
							<effectcategory>audiolevels</effectcategory>
							<effecttype>audiolevels</effecttype>
							<mediatype>audio</mediatype>
							<parameter>
								<name>Level</name>
								<parameterid>level</parameterid>
								<valuemin>0</valuemin>
								<valuemax>3.98109</valuemax>
								<value>1</value>
							</parameter>
						</effect>
					</filter>
					<filter>
						<effect>
							<name>Audio Pan</name>
							<effectid>audiopan</effectid>
							<effectcategory>audiopan</effectcategory>
							<effecttype>audiopan</effecttype>
							<mediatype>audio</mediatype>
							<parameter>
								<name>Pan</name>
								<parameterid>pan</parameterid>
								<valuemin>-1</valuemin>
								<valuemax>1</valuemax>
								<value>0</value>
							</parameter>
						</effect>
					</filter>
					<sourcetrack>
						<mediatype>audio</mediatype>
						<trackindex>2</trackindex>
					</sourcetrack>
					<link>
						<linkclipref>525_1797_01 </linkclipref>
						<mediatype>video</mediatype>
						<trackindex>1</trackindex>
						<clipindex>12</clipindex>
					</link>
					<link>
						<linkclipref>525_1797_01 3</linkclipref>
						<mediatype>audio</mediatype>
						<trackindex>1</trackindex>
						<clipindex>9</clipindex>
					</link>
					<link>
						<linkclipref>525_1797_01 4</linkclipref>
						<mediatype>audio</mediatype>
						<trackindex>2</trackindex>
						<clipindex>9</clipindex>
					</link>
					<itemhistory>
						<uuid>AC0C071E-BB8D-4B45-9F6B-9C52C44CC138</uuid>
					</itemhistory>
				</clipitem>
				<clipitem id="525_1790_01 4">
					<name>525_1790_01</name>
					<duration>1245</duration>
					<rate>
						<ntsc>FALSE</ntsc>
						<timebase>25</timebase>
					</rate>
					<in>193</in>
					<out>269</out>
					<start>1844</start>
					<end>1920</end>
					<subframeoffset>0</subframeoffset>
					<masterclipid>525_1790_01 1</masterclipid>
					<logginginfo>
						<scene/>
						<shottake/>
						<lognote/>
						<good>FALSE</good>
					</logginginfo>
					<labels>
						<label2/>
					</labels>
					<comments>
						<mastercomment1/>
						<mastercomment2/>
						<mastercomment3/>
						<mastercomment4/>
					</comments>
					<file id="525_1790_01 2"/>
					<filter>
						<effect>
							<name>Audio Levels</name>
							<effectid>audiolevels</effectid>
							<effectcategory>audiolevels</effectcategory>
							<effecttype>audiolevels</effecttype>
							<mediatype>audio</mediatype>
							<parameter>
								<name>Level</name>
								<parameterid>level</parameterid>
								<valuemin>0</valuemin>
								<valuemax>3.98109</valuemax>
								<value>1.77828</value>
							</parameter>
						</effect>
					</filter>
					<filter>
						<effect>
							<name>Audio Pan</name>
							<effectid>audiopan</effectid>
							<effectcategory>audiopan</effectcategory>
							<effecttype>audiopan</effecttype>
							<mediatype>audio</mediatype>
							<parameter>
								<name>Pan</name>
								<parameterid>pan</parameterid>
								<valuemin>-1</valuemin>
								<valuemax>1</valuemax>
								<value>0</value>
							</parameter>
						</effect>
					</filter>
					<sourcetrack>
						<mediatype>audio</mediatype>
						<trackindex>2</trackindex>
					</sourcetrack>
					<link>
						<linkclipref>525_1790_01 </linkclipref>
						<mediatype>video</mediatype>
						<trackindex>1</trackindex>
						<clipindex>13</clipindex>
					</link>
					<link>
						<linkclipref>525_1790_01 3</linkclipref>
						<mediatype>audio</mediatype>
						<trackindex>1</trackindex>
						<clipindex>10</clipindex>
					</link>
					<link>
						<linkclipref>525_1790_01 4</linkclipref>
						<mediatype>audio</mediatype>
						<trackindex>2</trackindex>
						<clipindex>10</clipindex>
					</link>
					<itemhistory>
						<uuid>544FD0C1-2B06-4511-882D-579A96C8A98C</uuid>
					</itemhistory>
				</clipitem>
				<clipitem id="525_1797_01 7">
					<name>525_1797_01</name>
					<duration>3463</duration>
					<rate>
						<ntsc>FALSE</ntsc>
						<timebase>25</timebase>
					</rate>
					<in>205</in>
					<out>290</out>
					<start>1920</start>
					<end>2005</end>
					<subframeoffset>0</subframeoffset>
					<masterclipid>525_1797_01 1</masterclipid>
					<logginginfo>
						<scene/>
						<shottake/>
						<lognote/>
						<good>FALSE</good>
					</logginginfo>
					<labels>
						<label2/>
					</labels>
					<comments>
						<mastercomment1/>
						<mastercomment2/>
						<mastercomment3/>
						<mastercomment4/>
					</comments>
					<file id="525_1797_01 2"/>
					<filter>
						<effect>
							<name>Audio Levels</name>
							<effectid>audiolevels</effectid>
							<effectcategory>audiolevels</effectcategory>
							<effecttype>audiolevels</effecttype>
							<mediatype>audio</mediatype>
							<parameter>
								<name>Level</name>
								<parameterid>level</parameterid>
								<valuemin>0</valuemin>
								<valuemax>3.98109</valuemax>
								<value>1</value>
							</parameter>
						</effect>
					</filter>
					<filter>
						<effect>
							<name>Audio Pan</name>
							<effectid>audiopan</effectid>
							<effectcategory>audiopan</effectcategory>
							<effecttype>audiopan</effecttype>
							<mediatype>audio</mediatype>
							<parameter>
								<name>Pan</name>
								<parameterid>pan</parameterid>
								<valuemin>-1</valuemin>
								<valuemax>1</valuemax>
								<value>0</value>
							</parameter>
						</effect>
					</filter>
					<sourcetrack>
						<mediatype>audio</mediatype>
						<trackindex>2</trackindex>
					</sourcetrack>
					<link>
						<linkclipref>525_1797_01 5</linkclipref>
						<mediatype>video</mediatype>
						<trackindex>1</trackindex>
						<clipindex>14</clipindex>
					</link>
					<link>
						<linkclipref>525_1797_01 6</linkclipref>
						<mediatype>audio</mediatype>
						<trackindex>1</trackindex>
						<clipindex>11</clipindex>
					</link>
					<link>
						<linkclipref>525_1797_01 7</linkclipref>
						<mediatype>audio</mediatype>
						<trackindex>2</trackindex>
						<clipindex>11</clipindex>
					</link>
					<itemhistory>
						<uuid>80F5D566-2FF4-4351-A29B-03350E8AE49E</uuid>
					</itemhistory>
				</clipitem>
				<clipitem id="525_1791_01 4">
					<name>525_1791_01</name>
					<duration>3026</duration>
					<rate>
						<ntsc>FALSE</ntsc>
						<timebase>25</timebase>
					</rate>
					<in>664</in>
					<out>770</out>
					<start>2005</start>
					<end>2111</end>
					<subframeoffset>0</subframeoffset>
					<masterclipid>525_1791_01 1</masterclipid>
					<logginginfo>
						<scene/>
						<shottake/>
						<lognote/>
						<good>FALSE</good>
					</logginginfo>
					<labels>
						<label2/>
					</labels>
					<comments>
						<mastercomment1/>
						<mastercomment2/>
						<mastercomment3/>
						<mastercomment4/>
					</comments>
					<file id="525_1791_01 2"/>
					<filter>
						<effect>
							<name>Audio Levels</name>
							<effectid>audiolevels</effectid>
							<effectcategory>audiolevels</effectcategory>
							<effecttype>audiolevels</effecttype>
							<mediatype>audio</mediatype>
							<parameter>
								<name>Level</name>
								<parameterid>level</parameterid>
								<valuemin>0</valuemin>
								<valuemax>3.98109</valuemax>
								<value>1</value>
							</parameter>
						</effect>
					</filter>
					<filter>
						<effect>
							<name>Audio Pan</name>
							<effectid>audiopan</effectid>
							<effectcategory>audiopan</effectcategory>
							<effecttype>audiopan</effecttype>
							<mediatype>audio</mediatype>
							<parameter>
								<name>Pan</name>
								<parameterid>pan</parameterid>
								<valuemin>-1</valuemin>
								<valuemax>1</valuemax>
								<value>0</value>
							</parameter>
						</effect>
					</filter>
					<sourcetrack>
						<mediatype>audio</mediatype>
						<trackindex>2</trackindex>
					</sourcetrack>
					<link>
						<linkclipref>525_1791_01 </linkclipref>
						<mediatype>video</mediatype>
						<trackindex>1</trackindex>
						<clipindex>15</clipindex>
					</link>
					<link>
						<linkclipref>525_1791_01 3</linkclipref>
						<mediatype>audio</mediatype>
						<trackindex>1</trackindex>
						<clipindex>12</clipindex>
					</link>
					<link>
						<linkclipref>525_1791_01 4</linkclipref>
						<mediatype>audio</mediatype>
						<trackindex>2</trackindex>
						<clipindex>12</clipindex>
					</link>
					<itemhistory>
						<uuid>612DC79F-0A62-4A9E-95F9-5E6EFB0F65DF</uuid>
					</itemhistory>
				</clipitem>
				<clipitem id="525_1797_01 10">
					<name>525_1797_01</name>
					<duration>3463</duration>
					<rate>
						<ntsc>FALSE</ntsc>
						<timebase>25</timebase>
					</rate>
					<in>419</in>
					<out>432</out>
					<start>2111</start>
					<end>2124</end>
					<subframeoffset>0</subframeoffset>
					<masterclipid>525_1797_01 1</masterclipid>
					<logginginfo>
						<scene/>
						<shottake/>
						<lognote/>
						<good>FALSE</good>
					</logginginfo>
					<labels>
						<label2/>
					</labels>
					<comments>
						<mastercomment1/>
						<mastercomment2/>
						<mastercomment3/>
						<mastercomment4/>
					</comments>
					<file id="525_1797_01 2"/>
					<filter>
						<effect>
							<name>Audio Levels</name>
							<effectid>audiolevels</effectid>
							<effectcategory>audiolevels</effectcategory>
							<effecttype>audiolevels</effecttype>
							<mediatype>audio</mediatype>
							<parameter>
								<name>Level</name>
								<parameterid>level</parameterid>
								<valuemin>0</valuemin>
								<valuemax>3.98109</valuemax>
								<value>1</value>
							</parameter>
						</effect>
					</filter>
					<filter>
						<effect>
							<name>Audio Pan</name>
							<effectid>audiopan</effectid>
							<effectcategory>audiopan</effectcategory>
							<effecttype>audiopan</effecttype>
							<mediatype>audio</mediatype>
							<parameter>
								<name>Pan</name>
								<parameterid>pan</parameterid>
								<valuemin>-1</valuemin>
								<valuemax>1</valuemax>
								<value>0</value>
							</parameter>
						</effect>
					</filter>
					<sourcetrack>
						<mediatype>audio</mediatype>
						<trackindex>2</trackindex>
					</sourcetrack>
					<link>
						<linkclipref>525_1797_01 8</linkclipref>
						<mediatype>video</mediatype>
						<trackindex>1</trackindex>
						<clipindex>16</clipindex>
					</link>
					<link>
						<linkclipref>525_1797_01 9</linkclipref>
						<mediatype>audio</mediatype>
						<trackindex>1</trackindex>
						<clipindex>13</clipindex>
					</link>
					<link>
						<linkclipref>525_1797_01 10</linkclipref>
						<mediatype>audio</mediatype>
						<trackindex>2</trackindex>
						<clipindex>13</clipindex>
					</link>
					<itemhistory>
						<uuid>827D3013-E7BE-4D88-B991-9C74036EF02D</uuid>
					</itemhistory>
				</clipitem>
				<clipitem id="525_1803_01 4">
					<name>525_1803_01</name>
					<duration>3142</duration>
					<rate>
						<ntsc>FALSE</ntsc>
						<timebase>25</timebase>
					</rate>
					<in>472</in>
					<out>545</out>
					<start>2124</start>
					<end>2197</end>
					<subframeoffset>0</subframeoffset>
					<masterclipid>525_1803_01 1</masterclipid>
					<logginginfo>
						<scene/>
						<shottake/>
						<lognote/>
						<good>FALSE</good>
					</logginginfo>
					<labels>
						<label2/>
					</labels>
					<comments>
						<mastercomment1/>
						<mastercomment2/>
						<mastercomment3/>
						<mastercomment4/>
					</comments>
					<file id="525_1803_01 2"/>
					<filter>
						<effect>
							<name>Audio Levels</name>
							<effectid>audiolevels</effectid>
							<effectcategory>audiolevels</effectcategory>
							<effecttype>audiolevels</effecttype>
							<mediatype>audio</mediatype>
							<parameter>
								<name>Level</name>
								<parameterid>level</parameterid>
								<valuemin>0</valuemin>
								<valuemax>3.98109</valuemax>
								<value>1</value>
							</parameter>
						</effect>
					</filter>
					<filter>
						<effect>
							<name>Audio Pan</name>
							<effectid>audiopan</effectid>
							<effectcategory>audiopan</effectcategory>
							<effecttype>audiopan</effecttype>
							<mediatype>audio</mediatype>
							<parameter>
								<name>Pan</name>
								<parameterid>pan</parameterid>
								<valuemin>-1</valuemin>
								<valuemax>1</valuemax>
								<value>0</value>
							</parameter>
						</effect>
					</filter>
					<sourcetrack>
						<mediatype>audio</mediatype>
						<trackindex>2</trackindex>
					</sourcetrack>
					<link>
						<linkclipref>525_1803_01 </linkclipref>
						<mediatype>video</mediatype>
						<trackindex>1</trackindex>
						<clipindex>17</clipindex>
					</link>
					<link>
						<linkclipref>525_1803_01 3</linkclipref>
						<mediatype>audio</mediatype>
						<trackindex>1</trackindex>
						<clipindex>14</clipindex>
					</link>
					<link>
						<linkclipref>525_1803_01 4</linkclipref>
						<mediatype>audio</mediatype>
						<trackindex>2</trackindex>
						<clipindex>14</clipindex>
					</link>
					<itemhistory>
						<uuid>DEDC7EB7-57B0-41FA-AD04-F3D2FD099C1C</uuid>
					</itemhistory>
				</clipitem>
				<clipitem id="525_1797_01 13">
					<name>525_1797_01</name>
					<duration>3463</duration>
					<rate>
						<ntsc>FALSE</ntsc>
						<timebase>25</timebase>
					</rate>
					<in>512</in>
					<out>696</out>
					<start>2197</start>
					<end>2381</end>
					<subframeoffset>0</subframeoffset>
					<masterclipid>525_1797_01 1</masterclipid>
					<logginginfo>
						<scene/>
						<shottake/>
						<lognote/>
						<good>FALSE</good>
					</logginginfo>
					<labels>
						<label2/>
					</labels>
					<comments>
						<mastercomment1/>
						<mastercomment2/>
						<mastercomment3/>
						<mastercomment4/>
					</comments>
					<file id="525_1797_01 2"/>
					<filter>
						<effect>
							<name>Audio Levels</name>
							<effectid>audiolevels</effectid>
							<effectcategory>audiolevels</effectcategory>
							<effecttype>audiolevels</effecttype>
							<mediatype>audio</mediatype>
							<parameter>
								<name>Level</name>
								<parameterid>level</parameterid>
								<valuemin>0</valuemin>
								<valuemax>3.98109</valuemax>
								<value>1</value>
							</parameter>
						</effect>
					</filter>
					<filter>
						<effect>
							<name>Audio Pan</name>
							<effectid>audiopan</effectid>
							<effectcategory>audiopan</effectcategory>
							<effecttype>audiopan</effecttype>
							<mediatype>audio</mediatype>
							<parameter>
								<name>Pan</name>
								<parameterid>pan</parameterid>
								<valuemin>-1</valuemin>
								<valuemax>1</valuemax>
								<value>0</value>
							</parameter>
						</effect>
					</filter>
					<sourcetrack>
						<mediatype>audio</mediatype>
						<trackindex>2</trackindex>
					</sourcetrack>
					<link>
						<linkclipref>525_1797_01 11</linkclipref>
						<mediatype>video</mediatype>
						<trackindex>1</trackindex>
						<clipindex>18</clipindex>
					</link>
					<link>
						<linkclipref>525_1797_01 12</linkclipref>
						<mediatype>audio</mediatype>
						<trackindex>1</trackindex>
						<clipindex>15</clipindex>
					</link>
					<link>
						<linkclipref>525_1797_01 13</linkclipref>
						<mediatype>audio</mediatype>
						<trackindex>2</trackindex>
						<clipindex>15</clipindex>
					</link>
					<itemhistory>
						<uuid>311290B0-D406-4727-A335-F885576EB6C6</uuid>
					</itemhistory>
				</clipitem>
				<clipitem id="525_1791_01 7">
					<name>525_1791_01</name>
					<duration>3026</duration>
					<rate>
						<ntsc>FALSE</ntsc>
						<timebase>25</timebase>
					</rate>
					<in>984</in>
					<out>1168</out>
					<start>2381</start>
					<end>2565</end>
					<subframeoffset>0</subframeoffset>
					<masterclipid>525_1791_01 1</masterclipid>
					<logginginfo>
						<scene/>
						<shottake/>
						<lognote/>
						<good>FALSE</good>
					</logginginfo>
					<labels>
						<label2/>
					</labels>
					<comments>
						<mastercomment1/>
						<mastercomment2/>
						<mastercomment3/>
						<mastercomment4/>
					</comments>
					<file id="525_1791_01 2"/>
					<filter>
						<effect>
							<name>Audio Levels</name>
							<effectid>audiolevels</effectid>
							<effectcategory>audiolevels</effectcategory>
							<effecttype>audiolevels</effecttype>
							<mediatype>audio</mediatype>
							<parameter>
								<name>Level</name>
								<parameterid>level</parameterid>
								<valuemin>0</valuemin>
								<valuemax>3.98109</valuemax>
								<value>1</value>
							</parameter>
						</effect>
					</filter>
					<filter>
						<effect>
							<name>Audio Pan</name>
							<effectid>audiopan</effectid>
							<effectcategory>audiopan</effectcategory>
							<effecttype>audiopan</effecttype>
							<mediatype>audio</mediatype>
							<parameter>
								<name>Pan</name>
								<parameterid>pan</parameterid>
								<valuemin>-1</valuemin>
								<valuemax>1</valuemax>
								<value>0</value>
							</parameter>
						</effect>
					</filter>
					<sourcetrack>
						<mediatype>audio</mediatype>
						<trackindex>2</trackindex>
					</sourcetrack>
					<link>
						<linkclipref>525_1791_01 5</linkclipref>
						<mediatype>video</mediatype>
						<trackindex>1</trackindex>
						<clipindex>19</clipindex>
					</link>
					<link>
						<linkclipref>525_1791_01 6</linkclipref>
						<mediatype>audio</mediatype>
						<trackindex>1</trackindex>
						<clipindex>16</clipindex>
					</link>
					<link>
						<linkclipref>525_1791_01 7</linkclipref>
						<mediatype>audio</mediatype>
						<trackindex>2</trackindex>
						<clipindex>16</clipindex>
					</link>
					<itemhistory>
						<uuid>D8D4B28C-1A5F-4585-B03C-C7958901DCB4</uuid>
					</itemhistory>
				</clipitem>
				<clipitem id="525_1797_01 16">
					<name>525_1797_01</name>
					<duration>3463</duration>
					<rate>
						<ntsc>FALSE</ntsc>
						<timebase>25</timebase>
					</rate>
					<in>834</in>
					<out>887</out>
					<start>2565</start>
					<end>2618</end>
					<subframeoffset>0</subframeoffset>
					<masterclipid>525_1797_01 1</masterclipid>
					<logginginfo>
						<scene/>
						<shottake/>
						<lognote/>
						<good>FALSE</good>
					</logginginfo>
					<labels>
						<label2/>
					</labels>
					<comments>
						<mastercomment1/>
						<mastercomment2/>
						<mastercomment3/>
						<mastercomment4/>
					</comments>
					<file id="525_1797_01 2"/>
					<filter>
						<effect>
							<name>Audio Levels</name>
							<effectid>audiolevels</effectid>
							<effectcategory>audiolevels</effectcategory>
							<effecttype>audiolevels</effecttype>
							<mediatype>audio</mediatype>
							<parameter>
								<name>Level</name>
								<parameterid>level</parameterid>
								<valuemin>0</valuemin>
								<valuemax>3.98109</valuemax>
								<value>1</value>
							</parameter>
						</effect>
					</filter>
					<filter>
						<effect>
							<name>Audio Pan</name>
							<effectid>audiopan</effectid>
							<effectcategory>audiopan</effectcategory>
							<effecttype>audiopan</effecttype>
							<mediatype>audio</mediatype>
							<parameter>
								<name>Pan</name>
								<parameterid>pan</parameterid>
								<valuemin>-1</valuemin>
								<valuemax>1</valuemax>
								<value>0</value>
							</parameter>
						</effect>
					</filter>
					<sourcetrack>
						<mediatype>audio</mediatype>
						<trackindex>2</trackindex>
					</sourcetrack>
					<link>
						<linkclipref>525_1797_01 14</linkclipref>
						<mediatype>video</mediatype>
						<trackindex>1</trackindex>
						<clipindex>20</clipindex>
					</link>
					<link>
						<linkclipref>525_1797_01 15</linkclipref>
						<mediatype>audio</mediatype>
						<trackindex>1</trackindex>
						<clipindex>17</clipindex>
					</link>
					<link>
						<linkclipref>525_1797_01 16</linkclipref>
						<mediatype>audio</mediatype>
						<trackindex>2</trackindex>
						<clipindex>17</clipindex>
					</link>
					<itemhistory>
						<uuid>AE7AFAE6-8803-4D2B-9680-9BE4175EB046</uuid>
					</itemhistory>
				</clipitem>
				<clipitem id="525_1791_01 10">
					<name>525_1791_01</name>
					<duration>3026</duration>
					<rate>
						<ntsc>FALSE</ntsc>
						<timebase>25</timebase>
					</rate>
					<in>1236</in>
					<out>1474</out>
					<start>2618</start>
					<end>2856</end>
					<subframeoffset>0</subframeoffset>
					<masterclipid>525_1791_01 1</masterclipid>
					<logginginfo>
						<scene/>
						<shottake/>
						<lognote/>
						<good>FALSE</good>
					</logginginfo>
					<labels>
						<label2/>
					</labels>
					<comments>
						<mastercomment1/>
						<mastercomment2/>
						<mastercomment3/>
						<mastercomment4/>
					</comments>
					<file id="525_1791_01 2"/>
					<filter>
						<effect>
							<name>Audio Levels</name>
							<effectid>audiolevels</effectid>
							<effectcategory>audiolevels</effectcategory>
							<effecttype>audiolevels</effecttype>
							<mediatype>audio</mediatype>
							<parameter>
								<name>Level</name>
								<parameterid>level</parameterid>
								<valuemin>0</valuemin>
								<valuemax>3.98109</valuemax>
								<value>1</value>
							</parameter>
						</effect>
					</filter>
					<filter>
						<effect>
							<name>Audio Pan</name>
							<effectid>audiopan</effectid>
							<effectcategory>audiopan</effectcategory>
							<effecttype>audiopan</effecttype>
							<mediatype>audio</mediatype>
							<parameter>
								<name>Pan</name>
								<parameterid>pan</parameterid>
								<valuemin>-1</valuemin>
								<valuemax>1</valuemax>
								<value>0</value>
							</parameter>
						</effect>
					</filter>
					<sourcetrack>
						<mediatype>audio</mediatype>
						<trackindex>2</trackindex>
					</sourcetrack>
					<link>
						<linkclipref>525_1791_01 8</linkclipref>
						<mediatype>video</mediatype>
						<trackindex>1</trackindex>
						<clipindex>21</clipindex>
					</link>
					<link>
						<linkclipref>525_1791_01 9</linkclipref>
						<mediatype>audio</mediatype>
						<trackindex>1</trackindex>
						<clipindex>18</clipindex>
					</link>
					<link>
						<linkclipref>525_1791_01 10</linkclipref>
						<mediatype>audio</mediatype>
						<trackindex>2</trackindex>
						<clipindex>18</clipindex>
					</link>
					<itemhistory>
						<uuid>3A37C35A-95AD-46CE-9B6A-6C2F9FD31810</uuid>
					</itemhistory>
				</clipitem>
				<clipitem id="525_1791_01 13">
					<name>525_1791_01</name>
					<duration>3026</duration>
					<rate>
						<ntsc>FALSE</ntsc>
						<timebase>25</timebase>
					</rate>
					<in>1489</in>
					<out>1591</out>
					<start>2945</start>
					<end>3047</end>
					<subframeoffset>0</subframeoffset>
					<masterclipid>525_1791_01 1</masterclipid>
					<logginginfo>
						<scene/>
						<shottake/>
						<lognote/>
						<good>FALSE</good>
					</logginginfo>
					<labels>
						<label2/>
					</labels>
					<comments>
						<mastercomment1/>
						<mastercomment2/>
						<mastercomment3/>
						<mastercomment4/>
					</comments>
					<file id="525_1791_01 2"/>
					<filter>
						<effect>
							<name>Audio Levels</name>
							<effectid>audiolevels</effectid>
							<effectcategory>audiolevels</effectcategory>
							<effecttype>audiolevels</effecttype>
							<mediatype>audio</mediatype>
							<parameter>
								<name>Level</name>
								<parameterid>level</parameterid>
								<valuemin>0</valuemin>
								<valuemax>3.98109</valuemax>
								<value>1</value>
							</parameter>
						</effect>
					</filter>
					<filter>
						<effect>
							<name>Audio Pan</name>
							<effectid>audiopan</effectid>
							<effectcategory>audiopan</effectcategory>
							<effecttype>audiopan</effecttype>
							<mediatype>audio</mediatype>
							<parameter>
								<name>Pan</name>
								<parameterid>pan</parameterid>
								<valuemin>-1</valuemin>
								<valuemax>1</valuemax>
								<value>0</value>
							</parameter>
						</effect>
					</filter>
					<sourcetrack>
						<mediatype>audio</mediatype>
						<trackindex>2</trackindex>
					</sourcetrack>
					<link>
						<linkclipref>525_1791_01 11</linkclipref>
						<mediatype>video</mediatype>
						<trackindex>1</trackindex>
						<clipindex>24</clipindex>
					</link>
					<link>
						<linkclipref>525_1791_01 12</linkclipref>
						<mediatype>audio</mediatype>
						<trackindex>1</trackindex>
						<clipindex>19</clipindex>
					</link>
					<link>
						<linkclipref>525_1791_01 13</linkclipref>
						<mediatype>audio</mediatype>
						<trackindex>2</trackindex>
						<clipindex>19</clipindex>
					</link>
					<itemhistory>
						<uuid>0EDD2966-8407-483F-93AE-6427751FD3CF</uuid>
					</itemhistory>
				</clipitem>
				<clipitem id="525_1791_01 16">
					<name>525_1791_01</name>
					<duration>3026</duration>
					<rate>
						<ntsc>FALSE</ntsc>
						<timebase>25</timebase>
					</rate>
					<in>1645</in>
					<out>1966</out>
					<start>3047</start>
					<end>3368</end>
					<subframeoffset>0</subframeoffset>
					<masterclipid>525_1791_01 1</masterclipid>
					<syncoffset>0</syncoffset>
					<logginginfo>
						<scene/>
						<shottake/>
						<lognote/>
						<good>FALSE</good>
					</logginginfo>
					<labels>
						<label2/>
					</labels>
					<comments>
						<mastercomment1/>
						<mastercomment2/>
						<mastercomment3/>
						<mastercomment4/>
					</comments>
					<file id="525_1791_01 2"/>
					<filter>
						<effect>
							<name>Audio Levels</name>
							<effectid>audiolevels</effectid>
							<effectcategory>audiolevels</effectcategory>
							<effecttype>audiolevels</effecttype>
							<mediatype>audio</mediatype>
							<parameter>
								<name>Level</name>
								<parameterid>level</parameterid>
								<valuemin>0</valuemin>
								<valuemax>3.98109</valuemax>
								<value>1</value>
							</parameter>
						</effect>
					</filter>
					<filter>
						<effect>
							<name>Audio Pan</name>
							<effectid>audiopan</effectid>
							<effectcategory>audiopan</effectcategory>
							<effecttype>audiopan</effecttype>
							<mediatype>audio</mediatype>
							<parameter>
								<name>Pan</name>
								<parameterid>pan</parameterid>
								<valuemin>-1</valuemin>
								<valuemax>1</valuemax>
								<value>0</value>
							</parameter>
						</effect>
					</filter>
					<sourcetrack>
						<mediatype>audio</mediatype>
						<trackindex>2</trackindex>
					</sourcetrack>
					<link>
						<linkclipref>525_1791_01 14</linkclipref>
						<mediatype>video</mediatype>
						<trackindex>1</trackindex>
						<clipindex>26</clipindex>
					</link>
					<link>
						<linkclipref>525_1791_01 15</linkclipref>
						<mediatype>audio</mediatype>
						<trackindex>1</trackindex>
						<clipindex>20</clipindex>
					</link>
					<link>
						<linkclipref>525_1791_01 16</linkclipref>
						<mediatype>audio</mediatype>
						<trackindex>2</trackindex>
						<clipindex>20</clipindex>
					</link>
					<itemhistory>
						<uuid>D68FBDD9-5C85-4007-A21F-DA6953A228DA</uuid>
					</itemhistory>
				</clipitem>
				<clipitem id="525_1803_01 7">
					<name>525_1803_01</name>
					<duration>3142</duration>
					<rate>
						<ntsc>FALSE</ntsc>
						<timebase>25</timebase>
					</rate>
					<in>1561</in>
					<out>1610</out>
					<start>3368</start>
					<end>3417</end>
					<subframeoffset>0</subframeoffset>
					<masterclipid>525_1803_01 1</masterclipid>
					<logginginfo>
						<scene/>
						<shottake/>
						<lognote/>
						<good>FALSE</good>
					</logginginfo>
					<labels>
						<label2/>
					</labels>
					<comments>
						<mastercomment1/>
						<mastercomment2/>
						<mastercomment3/>
						<mastercomment4/>
					</comments>
					<file id="525_1803_01 2"/>
					<filter>
						<effect>
							<name>Audio Levels</name>
							<effectid>audiolevels</effectid>
							<effectcategory>audiolevels</effectcategory>
							<effecttype>audiolevels</effecttype>
							<mediatype>audio</mediatype>
							<parameter>
								<name>Level</name>
								<parameterid>level</parameterid>
								<valuemin>0</valuemin>
								<valuemax>3.98109</valuemax>
								<value>1</value>
							</parameter>
						</effect>
					</filter>
					<filter>
						<effect>
							<name>Audio Pan</name>
							<effectid>audiopan</effectid>
							<effectcategory>audiopan</effectcategory>
							<effecttype>audiopan</effecttype>
							<mediatype>audio</mediatype>
							<parameter>
								<name>Pan</name>
								<parameterid>pan</parameterid>
								<valuemin>-1</valuemin>
								<valuemax>1</valuemax>
								<value>0</value>
							</parameter>
						</effect>
					</filter>
					<sourcetrack>
						<mediatype>audio</mediatype>
						<trackindex>2</trackindex>
					</sourcetrack>
					<link>
						<linkclipref>525_1803_01 5</linkclipref>
						<mediatype>video</mediatype>
						<trackindex>1</trackindex>
						<clipindex>30</clipindex>
					</link>
					<link>
						<linkclipref>525_1803_01 6</linkclipref>
						<mediatype>audio</mediatype>
						<trackindex>1</trackindex>
						<clipindex>21</clipindex>
					</link>
					<link>
						<linkclipref>525_1803_01 7</linkclipref>
						<mediatype>audio</mediatype>
						<trackindex>2</trackindex>
						<clipindex>21</clipindex>
					</link>
					<itemhistory>
						<uuid>93202CCA-CDE8-43DD-9CCE-2AE5919712E4</uuid>
					</itemhistory>
				</clipitem>
				<clipitem id="525_1799_01 8">
					<name>525_1799_01</name>
					<duration>1779</duration>
					<rate>
						<ntsc>FALSE</ntsc>
						<timebase>25</timebase>
					</rate>
					<in>340</in>
					<out>463</out>
					<start>3417</start>
					<end>3540</end>
					<subframeoffset>0</subframeoffset>
					<masterclipid>525_1799_01 1</masterclipid>
					<logginginfo>
						<scene/>
						<shottake/>
						<lognote/>
						<good>FALSE</good>
					</logginginfo>
					<labels>
						<label2/>
					</labels>
					<comments>
						<mastercomment1/>
						<mastercomment2/>
						<mastercomment3/>
						<mastercomment4/>
					</comments>
					<file id="525_1799_01 2"/>
					<filter>
						<effect>
							<name>Audio Levels</name>
							<effectid>audiolevels</effectid>
							<effectcategory>audiolevels</effectcategory>
							<effecttype>audiolevels</effecttype>
							<mediatype>audio</mediatype>
							<parameter>
								<name>Level</name>
								<parameterid>level</parameterid>
								<valuemin>0</valuemin>
								<valuemax>3.98109</valuemax>
								<value>1</value>
							</parameter>
						</effect>
					</filter>
					<filter>
						<effect>
							<name>Audio Pan</name>
							<effectid>audiopan</effectid>
							<effectcategory>audiopan</effectcategory>
							<effecttype>audiopan</effecttype>
							<mediatype>audio</mediatype>
							<parameter>
								<name>Pan</name>
								<parameterid>pan</parameterid>
								<valuemin>-1</valuemin>
								<valuemax>1</valuemax>
								<value>0</value>
							</parameter>
						</effect>
					</filter>
					<sourcetrack>
						<mediatype>audio</mediatype>
						<trackindex>2</trackindex>
					</sourcetrack>
					<link>
						<linkclipref>525_1799_01 6</linkclipref>
						<mediatype>video</mediatype>
						<trackindex>1</trackindex>
						<clipindex>31</clipindex>
					</link>
					<link>
						<linkclipref>525_1799_01 7</linkclipref>
						<mediatype>audio</mediatype>
						<trackindex>1</trackindex>
						<clipindex>22</clipindex>
					</link>
					<link>
						<linkclipref>525_1799_01 8</linkclipref>
						<mediatype>audio</mediatype>
						<trackindex>2</trackindex>
						<clipindex>22</clipindex>
					</link>
					<itemhistory>
						<uuid>D5A66AF1-9704-4A7D-B941-52B5A9D80417</uuid>
					</itemhistory>
				</clipitem>
				<clipitem id="525_1799_01 11">
					<name>525_1799_01</name>
					<duration>1779</duration>
					<rate>
						<ntsc>FALSE</ntsc>
						<timebase>25</timebase>
					</rate>
					<in>481</in>
					<out>531</out>
					<start>3540</start>
					<end>3590</end>
					<subframeoffset>0</subframeoffset>
					<masterclipid>525_1799_01 1</masterclipid>
					<logginginfo>
						<scene/>
						<shottake/>
						<lognote/>
						<good>FALSE</good>
					</logginginfo>
					<labels>
						<label2/>
					</labels>
					<comments>
						<mastercomment1/>
						<mastercomment2/>
						<mastercomment3/>
						<mastercomment4/>
					</comments>
					<file id="525_1799_01 2"/>
					<filter>
						<effect>
							<name>Audio Levels</name>
							<effectid>audiolevels</effectid>
							<effectcategory>audiolevels</effectcategory>
							<effecttype>audiolevels</effecttype>
							<mediatype>audio</mediatype>
							<parameter>
								<name>Level</name>
								<parameterid>level</parameterid>
								<valuemin>0</valuemin>
								<valuemax>3.98109</valuemax>
								<value>1</value>
							</parameter>
						</effect>
					</filter>
					<filter>
						<effect>
							<name>Audio Pan</name>
							<effectid>audiopan</effectid>
							<effectcategory>audiopan</effectcategory>
							<effecttype>audiopan</effecttype>
							<mediatype>audio</mediatype>
							<parameter>
								<name>Pan</name>
								<parameterid>pan</parameterid>
								<valuemin>-1</valuemin>
								<valuemax>1</valuemax>
								<value>0</value>
							</parameter>
						</effect>
					</filter>
					<sourcetrack>
						<mediatype>audio</mediatype>
						<trackindex>2</trackindex>
					</sourcetrack>
					<link>
						<linkclipref>525_1799_01 9</linkclipref>
						<mediatype>video</mediatype>
						<trackindex>1</trackindex>
						<clipindex>33</clipindex>
					</link>
					<link>
						<linkclipref>525_1799_01 10</linkclipref>
						<mediatype>audio</mediatype>
						<trackindex>1</trackindex>
						<clipindex>23</clipindex>
					</link>
					<link>
						<linkclipref>525_1799_01 11</linkclipref>
						<mediatype>audio</mediatype>
						<trackindex>2</trackindex>
						<clipindex>23</clipindex>
					</link>
					<itemhistory>
						<uuid>3EF401CF-4B47-4F30-AAF6-24CB9129791D</uuid>
					</itemhistory>
				</clipitem>
				<clipitem id="525_1791_01 20">
					<name>525_1791_01</name>
					<duration>3026</duration>
					<rate>
						<ntsc>FALSE</ntsc>
						<timebase>25</timebase>
					</rate>
					<in>2130</in>
					<out>2241</out>
					<start>3590</start>
					<end>3701</end>
					<subframeoffset>0</subframeoffset>
					<masterclipid>525_1791_01 1</masterclipid>
					<syncoffset>0</syncoffset>
					<logginginfo>
						<scene/>
						<shottake/>
						<lognote/>
						<good>FALSE</good>
					</logginginfo>
					<labels>
						<label2/>
					</labels>
					<comments>
						<mastercomment1/>
						<mastercomment2/>
						<mastercomment3/>
						<mastercomment4/>
					</comments>
					<file id="525_1791_01 2"/>
					<filter>
						<effect>
							<name>Audio Levels</name>
							<effectid>audiolevels</effectid>
							<effectcategory>audiolevels</effectcategory>
							<effecttype>audiolevels</effecttype>
							<mediatype>audio</mediatype>
							<parameter>
								<name>Level</name>
								<parameterid>level</parameterid>
								<valuemin>0</valuemin>
								<valuemax>3.98109</valuemax>
								<value>1</value>
							</parameter>
						</effect>
					</filter>
					<filter>
						<effect>
							<name>Audio Pan</name>
							<effectid>audiopan</effectid>
							<effectcategory>audiopan</effectcategory>
							<effecttype>audiopan</effecttype>
							<mediatype>audio</mediatype>
							<parameter>
								<name>Pan</name>
								<parameterid>pan</parameterid>
								<valuemin>-1</valuemin>
								<valuemax>1</valuemax>
								<value>0</value>
							</parameter>
						</effect>
					</filter>
					<sourcetrack>
						<mediatype>audio</mediatype>
						<trackindex>2</trackindex>
					</sourcetrack>
					<link>
						<linkclipref>525_1791_01 18</linkclipref>
						<mediatype>video</mediatype>
						<trackindex>1</trackindex>
						<clipindex>34</clipindex>
					</link>
					<link>
						<linkclipref>525_1791_01 19</linkclipref>
						<mediatype>audio</mediatype>
						<trackindex>1</trackindex>
						<clipindex>24</clipindex>
					</link>
					<link>
						<linkclipref>525_1791_01 20</linkclipref>
						<mediatype>audio</mediatype>
						<trackindex>2</trackindex>
						<clipindex>24</clipindex>
					</link>
					<itemhistory>
						<uuid>B75DFBBB-F095-47DF-8FAB-7E6932802F51</uuid>
					</itemhistory>
				</clipitem>
				<clipitem id="525_1803_01 11">
					<name>525_1803_01</name>
					<duration>3142</duration>
					<rate>
						<ntsc>FALSE</ntsc>
						<timebase>25</timebase>
					</rate>
					<in>1792</in>
					<out>1880</out>
					<start>3701</start>
					<end>3789</end>
					<subframeoffset>0</subframeoffset>
					<masterclipid>525_1803_01 1</masterclipid>
					<logginginfo>
						<scene/>
						<shottake/>
						<lognote/>
						<good>FALSE</good>
					</logginginfo>
					<labels>
						<label2/>
					</labels>
					<comments>
						<mastercomment1/>
						<mastercomment2/>
						<mastercomment3/>
						<mastercomment4/>
					</comments>
					<file id="525_1803_01 2"/>
					<filter>
						<effect>
							<name>Audio Levels</name>
							<effectid>audiolevels</effectid>
							<effectcategory>audiolevels</effectcategory>
							<effecttype>audiolevels</effecttype>
							<mediatype>audio</mediatype>
							<parameter>
								<name>Level</name>
								<parameterid>level</parameterid>
								<valuemin>0</valuemin>
								<valuemax>3.98109</valuemax>
								<value>1</value>
							</parameter>
						</effect>
					</filter>
					<filter>
						<effect>
							<name>Audio Pan</name>
							<effectid>audiopan</effectid>
							<effectcategory>audiopan</effectcategory>
							<effecttype>audiopan</effecttype>
							<mediatype>audio</mediatype>
							<parameter>
								<name>Pan</name>
								<parameterid>pan</parameterid>
								<valuemin>-1</valuemin>
								<valuemax>1</valuemax>
								<value>0</value>
							</parameter>
						</effect>
					</filter>
					<sourcetrack>
						<mediatype>audio</mediatype>
						<trackindex>2</trackindex>
					</sourcetrack>
					<link>
						<linkclipref>525_1803_01 9</linkclipref>
						<mediatype>video</mediatype>
						<trackindex>1</trackindex>
						<clipindex>35</clipindex>
					</link>
					<link>
						<linkclipref>525_1803_01 10</linkclipref>
						<mediatype>audio</mediatype>
						<trackindex>1</trackindex>
						<clipindex>25</clipindex>
					</link>
					<link>
						<linkclipref>525_1803_01 11</linkclipref>
						<mediatype>audio</mediatype>
						<trackindex>2</trackindex>
						<clipindex>25</clipindex>
					</link>
					<itemhistory>
						<uuid>4E784B7E-84CE-40BA-9809-4434C4EAE9A7</uuid>
					</itemhistory>
				</clipitem>
				<clipitem id="525_1799_01 14">
					<name>525_1799_01</name>
					<duration>1779</duration>
					<rate>
						<ntsc>FALSE</ntsc>
						<timebase>25</timebase>
					</rate>
					<in>627</in>
					<out>756</out>
					<start>3789</start>
					<end>3918</end>
					<subframeoffset>0</subframeoffset>
					<masterclipid>525_1799_01 1</masterclipid>
					<logginginfo>
						<scene/>
						<shottake/>
						<lognote/>
						<good>FALSE</good>
					</logginginfo>
					<labels>
						<label2/>
					</labels>
					<comments>
						<mastercomment1/>
						<mastercomment2/>
						<mastercomment3/>
						<mastercomment4/>
					</comments>
					<file id="525_1799_01 2"/>
					<filter>
						<effect>
							<name>Audio Levels</name>
							<effectid>audiolevels</effectid>
							<effectcategory>audiolevels</effectcategory>
							<effecttype>audiolevels</effecttype>
							<mediatype>audio</mediatype>
							<parameter>
								<name>Level</name>
								<parameterid>level</parameterid>
								<valuemin>0</valuemin>
								<valuemax>3.98109</valuemax>
								<value>1</value>
							</parameter>
						</effect>
					</filter>
					<filter>
						<effect>
							<name>Audio Pan</name>
							<effectid>audiopan</effectid>
							<effectcategory>audiopan</effectcategory>
							<effecttype>audiopan</effecttype>
							<mediatype>audio</mediatype>
							<parameter>
								<name>Pan</name>
								<parameterid>pan</parameterid>
								<valuemin>-1</valuemin>
								<valuemax>1</valuemax>
								<value>0</value>
							</parameter>
						</effect>
					</filter>
					<sourcetrack>
						<mediatype>audio</mediatype>
						<trackindex>2</trackindex>
					</sourcetrack>
					<link>
						<linkclipref>525_1799_01 12</linkclipref>
						<mediatype>video</mediatype>
						<trackindex>1</trackindex>
						<clipindex>36</clipindex>
					</link>
					<link>
						<linkclipref>525_1799_01 13</linkclipref>
						<mediatype>audio</mediatype>
						<trackindex>1</trackindex>
						<clipindex>26</clipindex>
					</link>
					<link>
						<linkclipref>525_1799_01 14</linkclipref>
						<mediatype>audio</mediatype>
						<trackindex>2</trackindex>
						<clipindex>26</clipindex>
					</link>
					<itemhistory>
						<uuid>6C9E4B26-D4BE-49FE-990A-109521DF9D00</uuid>
					</itemhistory>
				</clipitem>
				<clipitem id="525_1803_01 14">
					<name>525_1803_01</name>
					<duration>3142</duration>
					<rate>
						<ntsc>FALSE</ntsc>
						<timebase>25</timebase>
					</rate>
					<in>2043</in>
					<out>2098</out>
					<start>3918</start>
					<end>3973</end>
					<subframeoffset>0</subframeoffset>
					<masterclipid>525_1803_01 1</masterclipid>
					<logginginfo>
						<scene/>
						<shottake/>
						<lognote/>
						<good>FALSE</good>
					</logginginfo>
					<labels>
						<label2/>
					</labels>
					<comments>
						<mastercomment1/>
						<mastercomment2/>
						<mastercomment3/>
						<mastercomment4/>
					</comments>
					<file id="525_1803_01 2"/>
					<filter>
						<effect>
							<name>Audio Levels</name>
							<effectid>audiolevels</effectid>
							<effectcategory>audiolevels</effectcategory>
							<effecttype>audiolevels</effecttype>
							<mediatype>audio</mediatype>
							<parameter>
								<name>Level</name>
								<parameterid>level</parameterid>
								<valuemin>0</valuemin>
								<valuemax>3.98109</valuemax>
								<value>1</value>
							</parameter>
						</effect>
					</filter>
					<filter>
						<effect>
							<name>Audio Pan</name>
							<effectid>audiopan</effectid>
							<effectcategory>audiopan</effectcategory>
							<effecttype>audiopan</effecttype>
							<mediatype>audio</mediatype>
							<parameter>
								<name>Pan</name>
								<parameterid>pan</parameterid>
								<valuemin>-1</valuemin>
								<valuemax>1</valuemax>
								<value>0</value>
							</parameter>
						</effect>
					</filter>
					<sourcetrack>
						<mediatype>audio</mediatype>
						<trackindex>2</trackindex>
					</sourcetrack>
					<link>
						<linkclipref>525_1803_01 12</linkclipref>
						<mediatype>video</mediatype>
						<trackindex>1</trackindex>
						<clipindex>37</clipindex>
					</link>
					<link>
						<linkclipref>525_1803_01 13</linkclipref>
						<mediatype>audio</mediatype>
						<trackindex>1</trackindex>
						<clipindex>27</clipindex>
					</link>
					<link>
						<linkclipref>525_1803_01 14</linkclipref>
						<mediatype>audio</mediatype>
						<trackindex>2</trackindex>
						<clipindex>27</clipindex>
					</link>
					<itemhistory>
						<uuid>9A20CDC6-879D-4D25-9A89-43B7BE6B991C</uuid>
					</itemhistory>
				</clipitem>
				<clipitem id="525_1799_01 17">
					<name>525_1799_01</name>
					<duration>1779</duration>
					<rate>
						<ntsc>FALSE</ntsc>
						<timebase>25</timebase>
					</rate>
					<in>813</in>
					<out>851</out>
					<start>3973</start>
					<end>4011</end>
					<subframeoffset>0</subframeoffset>
					<masterclipid>525_1799_01 1</masterclipid>
					<logginginfo>
						<scene/>
						<shottake/>
						<lognote/>
						<good>FALSE</good>
					</logginginfo>
					<labels>
						<label2/>
					</labels>
					<comments>
						<mastercomment1/>
						<mastercomment2/>
						<mastercomment3/>
						<mastercomment4/>
					</comments>
					<file id="525_1799_01 2"/>
					<filter>
						<effect>
							<name>Audio Levels</name>
							<effectid>audiolevels</effectid>
							<effectcategory>audiolevels</effectcategory>
							<effecttype>audiolevels</effecttype>
							<mediatype>audio</mediatype>
							<parameter>
								<name>Level</name>
								<parameterid>level</parameterid>
								<valuemin>0</valuemin>
								<valuemax>3.98109</valuemax>
								<value>1</value>
							</parameter>
						</effect>
					</filter>
					<filter>
						<effect>
							<name>Audio Pan</name>
							<effectid>audiopan</effectid>
							<effectcategory>audiopan</effectcategory>
							<effecttype>audiopan</effecttype>
							<mediatype>audio</mediatype>
							<parameter>
								<name>Pan</name>
								<parameterid>pan</parameterid>
								<valuemin>-1</valuemin>
								<valuemax>1</valuemax>
								<value>0</value>
							</parameter>
						</effect>
					</filter>
					<sourcetrack>
						<mediatype>audio</mediatype>
						<trackindex>2</trackindex>
					</sourcetrack>
					<link>
						<linkclipref>525_1799_01 15</linkclipref>
						<mediatype>video</mediatype>
						<trackindex>1</trackindex>
						<clipindex>38</clipindex>
					</link>
					<link>
						<linkclipref>525_1799_01 16</linkclipref>
						<mediatype>audio</mediatype>
						<trackindex>1</trackindex>
						<clipindex>28</clipindex>
					</link>
					<link>
						<linkclipref>525_1799_01 17</linkclipref>
						<mediatype>audio</mediatype>
						<trackindex>2</trackindex>
						<clipindex>28</clipindex>
					</link>
					<itemhistory>
						<uuid>9823791C-4A39-4549-B627-835DECF183FA</uuid>
					</itemhistory>
				</clipitem>
				<clipitem id="525_1803_01 17">
					<name>525_1803_01</name>
					<duration>3142</duration>
					<rate>
						<ntsc>FALSE</ntsc>
						<timebase>25</timebase>
					</rate>
					<in>2153</in>
					<out>2248</out>
					<start>4011</start>
					<end>4106</end>
					<subframeoffset>0</subframeoffset>
					<masterclipid>525_1803_01 1</masterclipid>
					<logginginfo>
						<scene/>
						<shottake/>
						<lognote/>
						<good>FALSE</good>
					</logginginfo>
					<labels>
						<label2/>
					</labels>
					<comments>
						<mastercomment1/>
						<mastercomment2/>
						<mastercomment3/>
						<mastercomment4/>
					</comments>
					<file id="525_1803_01 2"/>
					<filter>
						<effect>
							<name>Audio Levels</name>
							<effectid>audiolevels</effectid>
							<effectcategory>audiolevels</effectcategory>
							<effecttype>audiolevels</effecttype>
							<mediatype>audio</mediatype>
							<parameter>
								<name>Level</name>
								<parameterid>level</parameterid>
								<valuemin>0</valuemin>
								<valuemax>3.98109</valuemax>
								<value>1</value>
							</parameter>
						</effect>
					</filter>
					<filter>
						<effect>
							<name>Audio Pan</name>
							<effectid>audiopan</effectid>
							<effectcategory>audiopan</effectcategory>
							<effecttype>audiopan</effecttype>
							<mediatype>audio</mediatype>
							<parameter>
								<name>Pan</name>
								<parameterid>pan</parameterid>
								<valuemin>-1</valuemin>
								<valuemax>1</valuemax>
								<value>0</value>
							</parameter>
						</effect>
					</filter>
					<sourcetrack>
						<mediatype>audio</mediatype>
						<trackindex>2</trackindex>
					</sourcetrack>
					<link>
						<linkclipref>525_1803_01 15</linkclipref>
						<mediatype>video</mediatype>
						<trackindex>1</trackindex>
						<clipindex>39</clipindex>
					</link>
					<link>
						<linkclipref>525_1803_01 16</linkclipref>
						<mediatype>audio</mediatype>
						<trackindex>1</trackindex>
						<clipindex>29</clipindex>
					</link>
					<link>
						<linkclipref>525_1803_01 17</linkclipref>
						<mediatype>audio</mediatype>
						<trackindex>2</trackindex>
						<clipindex>29</clipindex>
					</link>
					<itemhistory>
						<uuid>0A7236FC-612A-48C1-AAC6-5C8D0F67D242</uuid>
					</itemhistory>
				</clipitem>
				<clipitem id="525_1799_01 20">
					<name>525_1799_01</name>
					<duration>1779</duration>
					<rate>
						<ntsc>FALSE</ntsc>
						<timebase>25</timebase>
					</rate>
					<in>961</in>
					<out>1080</out>
					<start>4106</start>
					<end>4225</end>
					<subframeoffset>0</subframeoffset>
					<masterclipid>525_1799_01 1</masterclipid>
					<logginginfo>
						<scene/>
						<shottake/>
						<lognote/>
						<good>FALSE</good>
					</logginginfo>
					<labels>
						<label2/>
					</labels>
					<comments>
						<mastercomment1/>
						<mastercomment2/>
						<mastercomment3/>
						<mastercomment4/>
					</comments>
					<file id="525_1799_01 2"/>
					<filter>
						<effect>
							<name>Audio Levels</name>
							<effectid>audiolevels</effectid>
							<effectcategory>audiolevels</effectcategory>
							<effecttype>audiolevels</effecttype>
							<mediatype>audio</mediatype>
							<parameter>
								<name>Level</name>
								<parameterid>level</parameterid>
								<valuemin>0</valuemin>
								<valuemax>3.98109</valuemax>
								<value>1</value>
							</parameter>
						</effect>
					</filter>
					<filter>
						<effect>
							<name>Audio Pan</name>
							<effectid>audiopan</effectid>
							<effectcategory>audiopan</effectcategory>
							<effecttype>audiopan</effecttype>
							<mediatype>audio</mediatype>
							<parameter>
								<name>Pan</name>
								<parameterid>pan</parameterid>
								<valuemin>-1</valuemin>
								<valuemax>1</valuemax>
								<value>0</value>
							</parameter>
						</effect>
					</filter>
					<sourcetrack>
						<mediatype>audio</mediatype>
						<trackindex>2</trackindex>
					</sourcetrack>
					<link>
						<linkclipref>525_1799_01 18</linkclipref>
						<mediatype>video</mediatype>
						<trackindex>1</trackindex>
						<clipindex>40</clipindex>
					</link>
					<link>
						<linkclipref>525_1799_01 19</linkclipref>
						<mediatype>audio</mediatype>
						<trackindex>1</trackindex>
						<clipindex>30</clipindex>
					</link>
					<link>
						<linkclipref>525_1799_01 20</linkclipref>
						<mediatype>audio</mediatype>
						<trackindex>2</trackindex>
						<clipindex>30</clipindex>
					</link>
					<itemhistory>
						<uuid>351F6A4D-4DFC-4248-AC7E-95A211BA3EDF</uuid>
					</itemhistory>
				</clipitem>
				<clipitem id="525_1803_01 20">
					<name>525_1803_01</name>
					<duration>3142</duration>
					<rate>
						<ntsc>FALSE</ntsc>
						<timebase>25</timebase>
					</rate>
					<in>2295</in>
					<out>2417</out>
					<start>4225</start>
					<end>4347</end>
					<subframeoffset>0</subframeoffset>
					<masterclipid>525_1803_01 1</masterclipid>
					<logginginfo>
						<scene/>
						<shottake/>
						<lognote/>
						<good>FALSE</good>
					</logginginfo>
					<labels>
						<label2/>
					</labels>
					<comments>
						<mastercomment1/>
						<mastercomment2/>
						<mastercomment3/>
						<mastercomment4/>
					</comments>
					<file id="525_1803_01 2"/>
					<filter>
						<effect>
							<name>Audio Levels</name>
							<effectid>audiolevels</effectid>
							<effectcategory>audiolevels</effectcategory>
							<effecttype>audiolevels</effecttype>
							<mediatype>audio</mediatype>
							<parameter>
								<name>Level</name>
								<parameterid>level</parameterid>
								<valuemin>0</valuemin>
								<valuemax>3.98109</valuemax>
								<value>1</value>
							</parameter>
						</effect>
					</filter>
					<filter>
						<effect>
							<name>Audio Pan</name>
							<effectid>audiopan</effectid>
							<effectcategory>audiopan</effectcategory>
							<effecttype>audiopan</effecttype>
							<mediatype>audio</mediatype>
							<parameter>
								<name>Pan</name>
								<parameterid>pan</parameterid>
								<valuemin>-1</valuemin>
								<valuemax>1</valuemax>
								<value>0</value>
							</parameter>
						</effect>
					</filter>
					<sourcetrack>
						<mediatype>audio</mediatype>
						<trackindex>2</trackindex>
					</sourcetrack>
					<link>
						<linkclipref>525_1803_01 18</linkclipref>
						<mediatype>video</mediatype>
						<trackindex>1</trackindex>
						<clipindex>41</clipindex>
					</link>
					<link>
						<linkclipref>525_1803_01 19</linkclipref>
						<mediatype>audio</mediatype>
						<trackindex>1</trackindex>
						<clipindex>31</clipindex>
					</link>
					<link>
						<linkclipref>525_1803_01 20</linkclipref>
						<mediatype>audio</mediatype>
						<trackindex>2</trackindex>
						<clipindex>31</clipindex>
					</link>
					<itemhistory>
						<uuid>BE0E97EC-EB23-44C8-9ADE-5819A6EE01B6</uuid>
					</itemhistory>
				</clipitem>
				<clipitem id="525_1799_01 23">
					<name>525_1799_01</name>
					<duration>1779</duration>
					<rate>
						<ntsc>FALSE</ntsc>
						<timebase>25</timebase>
					</rate>
					<in>1222</in>
					<out>1309</out>
					<start>4347</start>
					<end>4434</end>
					<subframeoffset>0</subframeoffset>
					<masterclipid>525_1799_01 1</masterclipid>
					<logginginfo>
						<scene/>
						<shottake/>
						<lognote/>
						<good>FALSE</good>
					</logginginfo>
					<labels>
						<label2/>
					</labels>
					<comments>
						<mastercomment1/>
						<mastercomment2/>
						<mastercomment3/>
						<mastercomment4/>
					</comments>
					<file id="525_1799_01 2"/>
					<filter>
						<effect>
							<name>Audio Levels</name>
							<effectid>audiolevels</effectid>
							<effectcategory>audiolevels</effectcategory>
							<effecttype>audiolevels</effecttype>
							<mediatype>audio</mediatype>
							<parameter>
								<name>Level</name>
								<parameterid>level</parameterid>
								<valuemin>0</valuemin>
								<valuemax>3.98109</valuemax>
								<value>1</value>
							</parameter>
						</effect>
					</filter>
					<filter>
						<effect>
							<name>Audio Pan</name>
							<effectid>audiopan</effectid>
							<effectcategory>audiopan</effectcategory>
							<effecttype>audiopan</effecttype>
							<mediatype>audio</mediatype>
							<parameter>
								<name>Pan</name>
								<parameterid>pan</parameterid>
								<valuemin>-1</valuemin>
								<valuemax>1</valuemax>
								<value>0</value>
							</parameter>
						</effect>
					</filter>
					<sourcetrack>
						<mediatype>audio</mediatype>
						<trackindex>2</trackindex>
					</sourcetrack>
					<link>
						<linkclipref>525_1799_01 21</linkclipref>
						<mediatype>video</mediatype>
						<trackindex>1</trackindex>
						<clipindex>42</clipindex>
					</link>
					<link>
						<linkclipref>525_1799_01 22</linkclipref>
						<mediatype>audio</mediatype>
						<trackindex>1</trackindex>
						<clipindex>32</clipindex>
					</link>
					<link>
						<linkclipref>525_1799_01 23</linkclipref>
						<mediatype>audio</mediatype>
						<trackindex>2</trackindex>
						<clipindex>32</clipindex>
					</link>
					<itemhistory>
						<uuid>AA2B3463-ECBE-4157-8994-E7BEA7C980FA</uuid>
					</itemhistory>
				</clipitem>
				<clipitem id="525_1791_01 23">
					<name>525_1791_01</name>
					<duration>3026</duration>
					<rate>
						<ntsc>FALSE</ntsc>
						<timebase>25</timebase>
					</rate>
					<in>2850</in>
					<out>2906</out>
					<start>4434</start>
					<end>4490</end>
					<subframeoffset>0</subframeoffset>
					<masterclipid>525_1791_01 1</masterclipid>
					<syncoffset>0</syncoffset>
					<logginginfo>
						<scene/>
						<shottake/>
						<lognote/>
						<good>FALSE</good>
					</logginginfo>
					<labels>
						<label2/>
					</labels>
					<comments>
						<mastercomment1/>
						<mastercomment2/>
						<mastercomment3/>
						<mastercomment4/>
					</comments>
					<file id="525_1791_01 2"/>
					<filter>
						<effect>
							<name>Audio Levels</name>
							<effectid>audiolevels</effectid>
							<effectcategory>audiolevels</effectcategory>
							<effecttype>audiolevels</effecttype>
							<mediatype>audio</mediatype>
							<parameter>
								<name>Level</name>
								<parameterid>level</parameterid>
								<valuemin>0</valuemin>
								<valuemax>3.98109</valuemax>
								<value>1</value>
							</parameter>
						</effect>
					</filter>
					<filter>
						<effect>
							<name>Audio Pan</name>
							<effectid>audiopan</effectid>
							<effectcategory>audiopan</effectcategory>
							<effecttype>audiopan</effecttype>
							<mediatype>audio</mediatype>
							<parameter>
								<name>Pan</name>
								<parameterid>pan</parameterid>
								<valuemin>-1</valuemin>
								<valuemax>1</valuemax>
								<value>0</value>
							</parameter>
						</effect>
					</filter>
					<sourcetrack>
						<mediatype>audio</mediatype>
						<trackindex>2</trackindex>
					</sourcetrack>
					<link>
						<linkclipref>525_1791_01 21</linkclipref>
						<mediatype>video</mediatype>
						<trackindex>1</trackindex>
						<clipindex>43</clipindex>
					</link>
					<link>
						<linkclipref>525_1791_01 22</linkclipref>
						<mediatype>audio</mediatype>
						<trackindex>1</trackindex>
						<clipindex>33</clipindex>
					</link>
					<link>
						<linkclipref>525_1791_01 23</linkclipref>
						<mediatype>audio</mediatype>
						<trackindex>2</trackindex>
						<clipindex>33</clipindex>
					</link>
					<itemhistory>
						<uuid>94C65C7F-E6EC-478C-8A4B-E63CE007C7AC</uuid>
					</itemhistory>
				</clipitem>
				<clipitem id="525_1808_01 4">
					<name>525_1808_01</name>
					<duration>313</duration>
					<rate>
						<ntsc>FALSE</ntsc>
						<timebase>25</timebase>
					</rate>
					<in>117</in>
					<out>179</out>
					<start>4490</start>
					<end>4552</end>
					<subframeoffset>0</subframeoffset>
					<masterclipid>525_1808_01 1</masterclipid>
					<logginginfo>
						<scene/>
						<shottake/>
						<lognote/>
						<good>FALSE</good>
					</logginginfo>
					<labels>
						<label2/>
					</labels>
					<comments>
						<mastercomment1/>
						<mastercomment2/>
						<mastercomment3/>
						<mastercomment4/>
					</comments>
					<file id="525_1808_01 2"/>
					<filter>
						<effect>
							<name>Audio Levels</name>
							<effectid>audiolevels</effectid>
							<effectcategory>audiolevels</effectcategory>
							<effecttype>audiolevels</effecttype>
							<mediatype>audio</mediatype>
							<parameter>
								<name>Level</name>
								<parameterid>level</parameterid>
								<valuemin>0</valuemin>
								<valuemax>3.98109</valuemax>
								<value>1</value>
							</parameter>
						</effect>
					</filter>
					<filter>
						<effect>
							<name>Audio Pan</name>
							<effectid>audiopan</effectid>
							<effectcategory>audiopan</effectcategory>
							<effecttype>audiopan</effecttype>
							<mediatype>audio</mediatype>
							<parameter>
								<name>Pan</name>
								<parameterid>pan</parameterid>
								<valuemin>-1</valuemin>
								<valuemax>1</valuemax>
								<value>0</value>
							</parameter>
						</effect>
					</filter>
					<sourcetrack>
						<mediatype>audio</mediatype>
						<trackindex>2</trackindex>
					</sourcetrack>
					<link>
						<linkclipref>525_1808_01 </linkclipref>
						<mediatype>video</mediatype>
						<trackindex>1</trackindex>
						<clipindex>44</clipindex>
					</link>
					<link>
						<linkclipref>525_1808_01 3</linkclipref>
						<mediatype>audio</mediatype>
						<trackindex>1</trackindex>
						<clipindex>34</clipindex>
					</link>
					<link>
						<linkclipref>525_1808_01 4</linkclipref>
						<mediatype>audio</mediatype>
						<trackindex>2</trackindex>
						<clipindex>34</clipindex>
					</link>
					<itemhistory>
						<uuid>947B3A8C-6C55-4C1F-BCEE-86974EE2AD90</uuid>
					</itemhistory>
				</clipitem>
				<clipitem id="Clip1ATK75 4">
					<name>Clip1ATK75</name>
					<duration>1507</duration>
					<rate>
						<ntsc>FALSE</ntsc>
						<timebase>25</timebase>
					</rate>
					<in>199</in>
					<out>369</out>
					<start>4552</start>
					<end>4722</end>
					<subframeoffset>0</subframeoffset>
					<masterclipid>Clip1ATK75 1</masterclipid>
					<logginginfo>
						<scene/>
						<shottake/>
						<lognote/>
						<good>FALSE</good>
					</logginginfo>
					<labels>
						<label2/>
					</labels>
					<comments>
						<mastercomment1/>
						<mastercomment2/>
						<mastercomment3/>
						<mastercomment4/>
					</comments>
					<file id="Clip1ATK75 2"/>
					<filter>
						<effect>
							<name>Audio Levels</name>
							<effectid>audiolevels</effectid>
							<effectcategory>audiolevels</effectcategory>
							<effecttype>audiolevels</effecttype>
							<mediatype>audio</mediatype>
							<parameter>
								<name>Level</name>
								<parameterid>level</parameterid>
								<valuemin>0</valuemin>
								<valuemax>3.98109</valuemax>
								<value>1</value>
							</parameter>
						</effect>
					</filter>
					<filter>
						<effect>
							<name>Audio Pan</name>
							<effectid>audiopan</effectid>
							<effectcategory>audiopan</effectcategory>
							<effecttype>audiopan</effecttype>
							<mediatype>audio</mediatype>
							<parameter>
								<name>Pan</name>
								<parameterid>pan</parameterid>
								<valuemin>-1</valuemin>
								<valuemax>1</valuemax>
								<value>0</value>
							</parameter>
						</effect>
					</filter>
					<sourcetrack>
						<mediatype>audio</mediatype>
						<trackindex>2</trackindex>
					</sourcetrack>
					<link>
						<linkclipref>Clip1ATK75 </linkclipref>
						<mediatype>video</mediatype>
						<trackindex>1</trackindex>
						<clipindex>45</clipindex>
					</link>
					<link>
						<linkclipref>Clip1ATK75 3</linkclipref>
						<mediatype>audio</mediatype>
						<trackindex>1</trackindex>
						<clipindex>35</clipindex>
					</link>
					<link>
						<linkclipref>Clip1ATK75 4</linkclipref>
						<mediatype>audio</mediatype>
						<trackindex>2</trackindex>
						<clipindex>35</clipindex>
					</link>
					<itemhistory>
						<uuid>74A0E764-C76A-4A62-AA04-B6F1B950E8C7</uuid>
					</itemhistory>
				</clipitem>
				<clipitem id="Clip1ATK68 3">
					<name>Clip1ATK68</name>
					<duration>1106</duration>
					<rate>
						<ntsc>FALSE</ntsc>
						<timebase>25</timebase>
					</rate>
					<in>936</in>
					<out>1047</out>
					<start>4722</start>
					<end>4833</end>
					<subframeoffset>0</subframeoffset>
					<masterclipid>Clip1ATK68 1</masterclipid>
					<syncoffset>0</syncoffset>
					<logginginfo>
						<scene/>
						<shottake/>
						<lognote/>
						<good>FALSE</good>
					</logginginfo>
					<labels>
						<label2/>
					</labels>
					<comments>
						<mastercomment1/>
						<mastercomment2/>
						<mastercomment3/>
						<mastercomment4/>
					</comments>
					<file id="Clip1ATK68 2"/>
					<filter>
						<effect>
							<name>Audio Levels</name>
							<effectid>audiolevels</effectid>
							<effectcategory>audiolevels</effectcategory>
							<effecttype>audiolevels</effecttype>
							<mediatype>audio</mediatype>
							<parameter>
								<name>Level</name>
								<parameterid>level</parameterid>
								<valuemin>0</valuemin>
								<valuemax>3.98109</valuemax>
								<value>1.99526</value>
							</parameter>
						</effect>
					</filter>
					<filter>
						<effect>
							<name>Audio Pan</name>
							<effectid>audiopan</effectid>
							<effectcategory>audiopan</effectcategory>
							<effecttype>audiopan</effecttype>
							<mediatype>audio</mediatype>
							<parameter>
								<name>Pan</name>
								<parameterid>pan</parameterid>
								<valuemin>-1</valuemin>
								<valuemax>1</valuemax>
								<value>0</value>
							</parameter>
						</effect>
					</filter>
					<sourcetrack>
						<mediatype>audio</mediatype>
						<trackindex>1</trackindex>
					</sourcetrack>
					<link>
						<linkclipref>Clip1ATK68 </linkclipref>
						<mediatype>video</mediatype>
						<trackindex>1</trackindex>
						<clipindex>46</clipindex>
					</link>
					<link>
						<linkclipref>Clip1ATK68 3</linkclipref>
						<mediatype>audio</mediatype>
						<trackindex>2</trackindex>
						<clipindex>36</clipindex>
					</link>
					<itemhistory>
						<uuid>394B6D8A-86E7-4983-B57C-A7FF712B8C61</uuid>
					</itemhistory>
				</clipitem>
				<clipitem id="Clip1ATK75 7">
					<name>Clip1ATK75</name>
					<duration>1507</duration>
					<rate>
						<ntsc>FALSE</ntsc>
						<timebase>25</timebase>
					</rate>
					<in>478</in>
					<out>1461</out>
					<start>4833</start>
					<end>5816</end>
					<subframeoffset>0</subframeoffset>
					<masterclipid>Clip1ATK75 1</masterclipid>
					<logginginfo>
						<scene/>
						<shottake/>
						<lognote/>
						<good>FALSE</good>
					</logginginfo>
					<labels>
						<label2/>
					</labels>
					<comments>
						<mastercomment1/>
						<mastercomment2/>
						<mastercomment3/>
						<mastercomment4/>
					</comments>
					<file id="Clip1ATK75 2"/>
					<filter>
						<effect>
							<name>Audio Levels</name>
							<effectid>audiolevels</effectid>
							<effectcategory>audiolevels</effectcategory>
							<effecttype>audiolevels</effecttype>
							<mediatype>audio</mediatype>
							<parameter>
								<name>Level</name>
								<parameterid>level</parameterid>
								<valuemin>0</valuemin>
								<valuemax>3.98109</valuemax>
								<value>1</value>
							</parameter>
						</effect>
					</filter>
					<filter>
						<effect>
							<name>Audio Pan</name>
							<effectid>audiopan</effectid>
							<effectcategory>audiopan</effectcategory>
							<effecttype>audiopan</effecttype>
							<mediatype>audio</mediatype>
							<parameter>
								<name>Pan</name>
								<parameterid>pan</parameterid>
								<valuemin>-1</valuemin>
								<valuemax>1</valuemax>
								<value>0</value>
							</parameter>
						</effect>
					</filter>
					<sourcetrack>
						<mediatype>audio</mediatype>
						<trackindex>2</trackindex>
					</sourcetrack>
					<link>
						<linkclipref>Clip1ATK75 5</linkclipref>
						<mediatype>video</mediatype>
						<trackindex>1</trackindex>
						<clipindex>47</clipindex>
					</link>
					<link>
						<linkclipref>Clip1ATK75 6</linkclipref>
						<mediatype>audio</mediatype>
						<trackindex>1</trackindex>
						<clipindex>36</clipindex>
					</link>
					<link>
						<linkclipref>Clip1ATK75 7</linkclipref>
						<mediatype>audio</mediatype>
						<trackindex>2</trackindex>
						<clipindex>37</clipindex>
					</link>
					<itemhistory>
						<uuid>428BC997-CD32-4261-B371-D4EB522D75D5</uuid>
					</itemhistory>
				</clipitem>
				<clipitem id="Clip1ATK92 7">
					<name>Clip1ATK92</name>
					<duration>627</duration>
					<rate>
						<ntsc>FALSE</ntsc>
						<timebase>25</timebase>
					</rate>
					<in>32</in>
					<out>156</out>
					<start>5816</start>
					<end>5940</end>
					<subframeoffset>0</subframeoffset>
					<masterclipid>Clip1ATK92 1</masterclipid>
					<logginginfo>
						<scene/>
						<shottake/>
						<lognote/>
						<good>FALSE</good>
					</logginginfo>
					<labels>
						<label2/>
					</labels>
					<comments>
						<mastercomment1/>
						<mastercomment2/>
						<mastercomment3/>
						<mastercomment4/>
					</comments>
					<file id="Clip1ATK92 2"/>
					<filter>
						<effect>
							<name>Audio Levels</name>
							<effectid>audiolevels</effectid>
							<effectcategory>audiolevels</effectcategory>
							<effecttype>audiolevels</effecttype>
							<mediatype>audio</mediatype>
							<parameter>
								<name>Level</name>
								<parameterid>level</parameterid>
								<valuemin>0</valuemin>
								<valuemax>3.98109</valuemax>
								<value>1</value>
							</parameter>
						</effect>
					</filter>
					<filter>
						<effect>
							<name>Audio Pan</name>
							<effectid>audiopan</effectid>
							<effectcategory>audiopan</effectcategory>
							<effecttype>audiopan</effecttype>
							<mediatype>audio</mediatype>
							<parameter>
								<name>Pan</name>
								<parameterid>pan</parameterid>
								<valuemin>-1</valuemin>
								<valuemax>1</valuemax>
								<value>0</value>
							</parameter>
						</effect>
					</filter>
					<sourcetrack>
						<mediatype>audio</mediatype>
						<trackindex>2</trackindex>
					</sourcetrack>
					<itemhistory>
						<uuid>2C22BEAB-E270-4B14-957D-141C21F8FD90</uuid>
					</itemhistory>
				</clipitem>
				<clipitem id="Clip1ATK91 4">
					<name>Clip1ATK91</name>
					<duration>548</duration>
					<rate>
						<ntsc>FALSE</ntsc>
						<timebase>25</timebase>
					</rate>
					<in>195</in>
					<out>352</out>
					<start>5940</start>
					<end>6097</end>
					<subframeoffset>0</subframeoffset>
					<enabled>TRUE</enabled>
					<masterclipid>Clip1ATK91 1</masterclipid>
					<logginginfo>
						<scene/>
						<shottake/>
						<lognote/>
						<good>FALSE</good>
					</logginginfo>
					<labels>
						<label2/>
					</labels>
					<comments>
						<mastercomment1/>
						<mastercomment2/>
						<mastercomment3/>
						<mastercomment4/>
					</comments>
					<file id="Clip1ATK91 2"/>
					<filter>
						<effect>
							<name>Audio Levels</name>
							<effectid>audiolevels</effectid>
							<effectcategory>audiolevels</effectcategory>
							<effecttype>audiolevels</effecttype>
							<mediatype>audio</mediatype>
							<parameter>
								<name>Level</name>
								<parameterid>level</parameterid>
								<valuemin>0</valuemin>
								<valuemax>3.98109</valuemax>
								<value>1</value>
							</parameter>
						</effect>
					</filter>
					<filter>
						<effect>
							<name>Audio Pan</name>
							<effectid>audiopan</effectid>
							<effectcategory>audiopan</effectcategory>
							<effecttype>audiopan</effecttype>
							<mediatype>audio</mediatype>
							<parameter>
								<name>Pan</name>
								<parameterid>pan</parameterid>
								<valuemin>-1</valuemin>
								<valuemax>1</valuemax>
								<value>0</value>
							</parameter>
						</effect>
					</filter>
					<sourcetrack>
						<mediatype>audio</mediatype>
						<trackindex>2</trackindex>
					</sourcetrack>
					<link>
						<linkclipref>Clip1ATK91 </linkclipref>
						<mediatype>video</mediatype>
						<trackindex>1</trackindex>
						<clipindex>55</clipindex>
					</link>
					<link>
						<linkclipref>Clip1ATK91 3</linkclipref>
						<mediatype>audio</mediatype>
						<trackindex>1</trackindex>
						<clipindex>37</clipindex>
					</link>
					<link>
						<linkclipref>Clip1ATK91 4</linkclipref>
						<mediatype>audio</mediatype>
						<trackindex>2</trackindex>
						<clipindex>39</clipindex>
					</link>
					<itemhistory>
						<uuid>62BA5C9F-AEBB-40E3-BA04-C00E265A03AA</uuid>
					</itemhistory>
				</clipitem>
				<clipitem id="-01_0218_01 4">
					<name>-01_0218_01</name>
					<duration>767</duration>
					<rate>
						<ntsc>FALSE</ntsc>
						<timebase>25</timebase>
					</rate>
					<in>217</in>
					<out>682</out>
					<start>6097</start>
					<end>6562</end>
					<subframeoffset>0</subframeoffset>
					<masterclipid>-01_0218_01 1</masterclipid>
					<syncoffset>0</syncoffset>
					<logginginfo>
						<scene/>
						<shottake/>
						<lognote/>
						<good>FALSE</good>
					</logginginfo>
					<labels>
						<label2/>
					</labels>
					<comments>
						<mastercomment1/>
						<mastercomment2/>
						<mastercomment3/>
						<mastercomment4/>
					</comments>
					<file id="-01_0218_01 2"/>
					<filter>
						<effect>
							<name>Audio Levels</name>
							<effectid>audiolevels</effectid>
							<effectcategory>audiolevels</effectcategory>
							<effecttype>audiolevels</effecttype>
							<mediatype>audio</mediatype>
							<parameter>
								<name>Level</name>
								<parameterid>level</parameterid>
								<valuemin>0</valuemin>
								<valuemax>3.98109</valuemax>
								<value>1</value>
							</parameter>
						</effect>
					</filter>
					<filter>
						<effect>
							<name>Audio Pan</name>
							<effectid>audiopan</effectid>
							<effectcategory>audiopan</effectcategory>
							<effecttype>audiopan</effecttype>
							<mediatype>audio</mediatype>
							<parameter>
								<name>Pan</name>
								<parameterid>pan</parameterid>
								<valuemin>-1</valuemin>
								<valuemax>1</valuemax>
								<value>0</value>
							</parameter>
						</effect>
					</filter>
					<sourcetrack>
						<mediatype>audio</mediatype>
						<trackindex>2</trackindex>
					</sourcetrack>
					<link>
						<linkclipref>-01_0218_01 </linkclipref>
						<mediatype>video</mediatype>
						<trackindex>1</trackindex>
						<clipindex>56</clipindex>
					</link>
					<link>
						<linkclipref>-01_0218_01 3</linkclipref>
						<mediatype>audio</mediatype>
						<trackindex>1</trackindex>
						<clipindex>38</clipindex>
					</link>
					<link>
						<linkclipref>-01_0218_01 4</linkclipref>
						<mediatype>audio</mediatype>
						<trackindex>2</trackindex>
						<clipindex>40</clipindex>
					</link>
					<itemhistory>
						<uuid>1DC70B0B-DEB1-4DBC-8D90-5807257457ED</uuid>
					</itemhistory>
				</clipitem>
				<clipitem id="Clip1ATK92 3">
					<name>Clip1ATK92</name>
					<duration>627</duration>
					<rate>
						<ntsc>FALSE</ntsc>
						<timebase>25</timebase>
					</rate>
					<in>186</in>
					<out>244</out>
					<start>6562</start>
					<end>6620</end>
					<subframeoffset>0</subframeoffset>
					<enabled>TRUE</enabled>
					<masterclipid>Clip1ATK92 1</masterclipid>
					<syncoffset>0</syncoffset>
					<logginginfo>
						<scene/>
						<shottake/>
						<lognote/>
						<good>FALSE</good>
					</logginginfo>
					<labels>
						<label2/>
					</labels>
					<comments>
						<mastercomment1/>
						<mastercomment2/>
						<mastercomment3/>
						<mastercomment4/>
					</comments>
					<file id="Clip1ATK92 2"/>
					<filter>
						<effect>
							<name>Audio Levels</name>
							<effectid>audiolevels</effectid>
							<effectcategory>audiolevels</effectcategory>
							<effecttype>audiolevels</effecttype>
							<mediatype>audio</mediatype>
							<parameter>
								<name>Level</name>
								<parameterid>level</parameterid>
								<valuemin>0</valuemin>
								<valuemax>3.98109</valuemax>
								<value>1</value>
							</parameter>
						</effect>
					</filter>
					<filter>
						<effect>
							<name>Audio Pan</name>
							<effectid>audiopan</effectid>
							<effectcategory>audiopan</effectcategory>
							<effecttype>audiopan</effecttype>
							<mediatype>audio</mediatype>
							<parameter>
								<name>Pan</name>
								<parameterid>pan</parameterid>
								<valuemin>-1</valuemin>
								<valuemax>1</valuemax>
								<value>0</value>
							</parameter>
						</effect>
					</filter>
					<sourcetrack>
						<mediatype>audio</mediatype>
						<trackindex>2</trackindex>
					</sourcetrack>
					<link>
						<linkclipref>Clip1ATK92 </linkclipref>
						<mediatype>video</mediatype>
						<trackindex>1</trackindex>
						<clipindex>57</clipindex>
					</link>
					<link>
						<linkclipref>Clip1ATK92 3</linkclipref>
						<mediatype>audio</mediatype>
						<trackindex>2</trackindex>
						<clipindex>41</clipindex>
					</link>
					<itemhistory>
						<uuid>7B525708-F4B3-4761-B64F-EEB5BF00DF02</uuid>
					</itemhistory>
				</clipitem>
				<clipitem id="Clip1ATK92 6">
					<name>Clip1ATK92</name>
					<duration>627</duration>
					<rate>
						<ntsc>FALSE</ntsc>
						<timebase>25</timebase>
					</rate>
					<in>417</in>
					<out>491</out>
					<start>6620</start>
					<end>6694</end>
					<subframeoffset>0</subframeoffset>
					<masterclipid>Clip1ATK92 1</masterclipid>
					<logginginfo>
						<scene/>
						<shottake/>
						<lognote/>
						<good>FALSE</good>
					</logginginfo>
					<labels>
						<label2/>
					</labels>
					<comments>
						<mastercomment1/>
						<mastercomment2/>
						<mastercomment3/>
						<mastercomment4/>
					</comments>
					<file id="Clip1ATK92 2"/>
					<filter>
						<effect>
							<name>Audio Levels</name>
							<effectid>audiolevels</effectid>
							<effectcategory>audiolevels</effectcategory>
							<effecttype>audiolevels</effecttype>
							<mediatype>audio</mediatype>
							<parameter>
								<name>Level</name>
								<parameterid>level</parameterid>
								<valuemin>0</valuemin>
								<valuemax>3.98109</valuemax>
								<value>1</value>
							</parameter>
						</effect>
					</filter>
					<filter>
						<effect>
							<name>Audio Pan</name>
							<effectid>audiopan</effectid>
							<effectcategory>audiopan</effectcategory>
							<effecttype>audiopan</effecttype>
							<mediatype>audio</mediatype>
							<parameter>
								<name>Pan</name>
								<parameterid>pan</parameterid>
								<valuemin>-1</valuemin>
								<valuemax>1</valuemax>
								<value>0</value>
							</parameter>
						</effect>
					</filter>
					<sourcetrack>
						<mediatype>audio</mediatype>
						<trackindex>2</trackindex>
					</sourcetrack>
					<link>
						<linkclipref>Clip1ATK92 4</linkclipref>
						<mediatype>video</mediatype>
						<trackindex>1</trackindex>
						<clipindex>58</clipindex>
					</link>
					<link>
						<linkclipref>Clip1ATK92 5</linkclipref>
						<mediatype>audio</mediatype>
						<trackindex>1</trackindex>
						<clipindex>39</clipindex>
					</link>
					<link>
						<linkclipref>Clip1ATK92 6</linkclipref>
						<mediatype>audio</mediatype>
						<trackindex>2</trackindex>
						<clipindex>42</clipindex>
					</link>
					<itemhistory>
						<uuid>873D4AA6-FED4-4316-98F6-C35BD2D3D13D</uuid>
					</itemhistory>
				</clipitem>
				<clipitem id="Clip1ATK88 4">
					<name>Clip1ATK88</name>
					<duration>427</duration>
					<rate>
						<ntsc>FALSE</ntsc>
						<timebase>25</timebase>
					</rate>
					<in>157</in>
					<out>292</out>
					<start>6694</start>
					<end>6829</end>
					<subframeoffset>0</subframeoffset>
					<enabled>TRUE</enabled>
					<masterclipid>Clip1ATK88 1</masterclipid>
					<logginginfo>
						<scene/>
						<shottake/>
						<lognote/>
						<good>FALSE</good>
					</logginginfo>
					<labels>
						<label2/>
					</labels>
					<comments>
						<mastercomment1/>
						<mastercomment2/>
						<mastercomment3/>
						<mastercomment4/>
					</comments>
					<file id="Clip1ATK88 2"/>
					<filter>
						<effect>
							<name>Audio Levels</name>
							<effectid>audiolevels</effectid>
							<effectcategory>audiolevels</effectcategory>
							<effecttype>audiolevels</effecttype>
							<mediatype>audio</mediatype>
							<parameter>
								<name>Level</name>
								<parameterid>level</parameterid>
								<valuemin>0</valuemin>
								<valuemax>3.98109</valuemax>
								<value>1</value>
							</parameter>
						</effect>
					</filter>
					<filter>
						<effect>
							<name>Audio Pan</name>
							<effectid>audiopan</effectid>
							<effectcategory>audiopan</effectcategory>
							<effecttype>audiopan</effecttype>
							<mediatype>audio</mediatype>
							<parameter>
								<name>Pan</name>
								<parameterid>pan</parameterid>
								<valuemin>-1</valuemin>
								<valuemax>1</valuemax>
								<value>0</value>
							</parameter>
						</effect>
					</filter>
					<sourcetrack>
						<mediatype>audio</mediatype>
						<trackindex>2</trackindex>
					</sourcetrack>
					<link>
						<linkclipref>Clip1ATK88 </linkclipref>
						<mediatype>video</mediatype>
						<trackindex>1</trackindex>
						<clipindex>59</clipindex>
					</link>
					<link>
						<linkclipref>Clip1ATK88 3</linkclipref>
						<mediatype>audio</mediatype>
						<trackindex>1</trackindex>
						<clipindex>40</clipindex>
					</link>
					<link>
						<linkclipref>Clip1ATK88 4</linkclipref>
						<mediatype>audio</mediatype>
						<trackindex>2</trackindex>
						<clipindex>43</clipindex>
					</link>
					<itemhistory>
						<uuid>4C8D27CD-76AD-4881-AB4C-B9BF95F3ADF3</uuid>
					</itemhistory>
				</clipitem>
				<clipitem id="Clip1ATK86 4">
					<name>Clip1ATK86</name>
					<duration>343</duration>
					<rate>
						<ntsc>FALSE</ntsc>
						<timebase>25</timebase>
					</rate>
					<in>186</in>
					<out>240</out>
					<start>6829</start>
					<end>6883</end>
					<subframeoffset>0</subframeoffset>
					<masterclipid>Clip1ATK86 1</masterclipid>
					<logginginfo>
						<scene/>
						<shottake/>
						<lognote/>
						<good>FALSE</good>
					</logginginfo>
					<labels>
						<label2/>
					</labels>
					<comments>
						<mastercomment1/>
						<mastercomment2/>
						<mastercomment3/>
						<mastercomment4/>
					</comments>
					<file id="Clip1ATK86 2"/>
					<filter>
						<effect>
							<name>Audio Levels</name>
							<effectid>audiolevels</effectid>
							<effectcategory>audiolevels</effectcategory>
							<effecttype>audiolevels</effecttype>
							<mediatype>audio</mediatype>
							<parameter>
								<name>Level</name>
								<parameterid>level</parameterid>
								<valuemin>0</valuemin>
								<valuemax>3.98109</valuemax>
								<value>1</value>
							</parameter>
						</effect>
					</filter>
					<filter>
						<effect>
							<name>Audio Pan</name>
							<effectid>audiopan</effectid>
							<effectcategory>audiopan</effectcategory>
							<effecttype>audiopan</effecttype>
							<mediatype>audio</mediatype>
							<parameter>
								<name>Pan</name>
								<parameterid>pan</parameterid>
								<valuemin>-1</valuemin>
								<valuemax>1</valuemax>
								<value>0</value>
							</parameter>
						</effect>
					</filter>
					<sourcetrack>
						<mediatype>audio</mediatype>
						<trackindex>2</trackindex>
					</sourcetrack>
					<link>
						<linkclipref>Clip1ATK86 </linkclipref>
						<mediatype>video</mediatype>
						<trackindex>1</trackindex>
						<clipindex>60</clipindex>
					</link>
					<link>
						<linkclipref>Clip1ATK86 3</linkclipref>
						<mediatype>audio</mediatype>
						<trackindex>1</trackindex>
						<clipindex>41</clipindex>
					</link>
					<link>
						<linkclipref>Clip1ATK86 4</linkclipref>
						<mediatype>audio</mediatype>
						<trackindex>2</trackindex>
						<clipindex>44</clipindex>
					</link>
					<itemhistory>
						<uuid>7D542A5C-0F14-419A-80B5-7D898AD37467</uuid>
					</itemhistory>
				</clipitem>
				<clipitem id="Clip1ATK94 4">
					<name>Clip1ATK94</name>
					<duration>471</duration>
					<rate>
						<ntsc>FALSE</ntsc>
						<timebase>25</timebase>
					</rate>
					<in>184</in>
					<out>349</out>
					<start>6883</start>
					<end>7048</end>
					<subframeoffset>0</subframeoffset>
					<masterclipid>Clip1ATK94 1</masterclipid>
					<logginginfo>
						<scene/>
						<shottake/>
						<lognote/>
						<good>FALSE</good>
					</logginginfo>
					<labels>
						<label2/>
					</labels>
					<comments>
						<mastercomment1/>
						<mastercomment2/>
						<mastercomment3/>
						<mastercomment4/>
					</comments>
					<file id="Clip1ATK94 2"/>
					<filter>
						<effect>
							<name>Audio Levels</name>
							<effectid>audiolevels</effectid>
							<effectcategory>audiolevels</effectcategory>
							<effecttype>audiolevels</effecttype>
							<mediatype>audio</mediatype>
							<parameter>
								<name>Level</name>
								<parameterid>level</parameterid>
								<valuemin>0</valuemin>
								<valuemax>3.98109</valuemax>
								<keyframe>
									<when>237.429</when>
									<value>0.199526</value>
								</keyframe>
								<keyframe>
									<when>252.857</when>
									<value>1.12202</value>
								</keyframe>
								<interpolation>
									<name>FCPCurve</name>
								</interpolation>
								<value>0.199526</value>
							</parameter>
						</effect>
					</filter>
					<filter>
						<effect>
							<name>Audio Pan</name>
							<effectid>audiopan</effectid>
							<effectcategory>audiopan</effectcategory>
							<effecttype>audiopan</effecttype>
							<mediatype>audio</mediatype>
							<parameter>
								<name>Pan</name>
								<parameterid>pan</parameterid>
								<valuemin>-1</valuemin>
								<valuemax>1</valuemax>
								<value>0</value>
							</parameter>
						</effect>
					</filter>
					<sourcetrack>
						<mediatype>audio</mediatype>
						<trackindex>2</trackindex>
					</sourcetrack>
					<link>
						<linkclipref>Clip1ATK94 </linkclipref>
						<mediatype>video</mediatype>
						<trackindex>1</trackindex>
						<clipindex>61</clipindex>
					</link>
					<link>
						<linkclipref>Clip1ATK94 3</linkclipref>
						<mediatype>audio</mediatype>
						<trackindex>1</trackindex>
						<clipindex>42</clipindex>
					</link>
					<link>
						<linkclipref>Clip1ATK94 4</linkclipref>
						<mediatype>audio</mediatype>
						<trackindex>2</trackindex>
						<clipindex>45</clipindex>
					</link>
					<itemhistory>
						<uuid>088CDD27-39E9-4BB3-9C7B-A4AC94BB9A4A</uuid>
					</itemhistory>
				</clipitem>
				<clipitem id="Clip1ATK90 4">
					<name>Clip1ATK90</name>
					<duration>481</duration>
					<rate>
						<ntsc>FALSE</ntsc>
						<timebase>25</timebase>
					</rate>
					<in>163</in>
					<out>225</out>
					<start>7048</start>
					<end>7110</end>
					<subframeoffset>0</subframeoffset>
					<masterclipid>Clip1ATK90 1</masterclipid>
					<logginginfo>
						<scene/>
						<shottake/>
						<lognote/>
						<good>FALSE</good>
					</logginginfo>
					<labels>
						<label2/>
					</labels>
					<comments>
						<mastercomment1/>
						<mastercomment2/>
						<mastercomment3/>
						<mastercomment4/>
					</comments>
					<file id="Clip1ATK90 2"/>
					<filter>
						<effect>
							<name>Audio Levels</name>
							<effectid>audiolevels</effectid>
							<effectcategory>audiolevels</effectcategory>
							<effecttype>audiolevels</effecttype>
							<mediatype>audio</mediatype>
							<parameter>
								<name>Level</name>
								<parameterid>level</parameterid>
								<valuemin>0</valuemin>
								<valuemax>3.98109</valuemax>
								<value>0</value>
							</parameter>
						</effect>
					</filter>
					<filter>
						<effect>
							<name>Audio Pan</name>
							<effectid>audiopan</effectid>
							<effectcategory>audiopan</effectcategory>
							<effecttype>audiopan</effecttype>
							<mediatype>audio</mediatype>
							<parameter>
								<name>Pan</name>
								<parameterid>pan</parameterid>
								<valuemin>-1</valuemin>
								<valuemax>1</valuemax>
								<value>0</value>
							</parameter>
						</effect>
					</filter>
					<sourcetrack>
						<mediatype>audio</mediatype>
						<trackindex>2</trackindex>
					</sourcetrack>
					<link>
						<linkclipref>Clip1ATK90 </linkclipref>
						<mediatype>video</mediatype>
						<trackindex>1</trackindex>
						<clipindex>62</clipindex>
					</link>
					<link>
						<linkclipref>Clip1ATK90 3</linkclipref>
						<mediatype>audio</mediatype>
						<trackindex>1</trackindex>
						<clipindex>43</clipindex>
					</link>
					<link>
						<linkclipref>Clip1ATK90 4</linkclipref>
						<mediatype>audio</mediatype>
						<trackindex>2</trackindex>
						<clipindex>46</clipindex>
					</link>
					<itemhistory>
						<uuid>920D120D-AC8D-43BC-84AD-909F68D6D219</uuid>
					</itemhistory>
				</clipitem>
				<clipitem id="Clip1ATK90 6">
					<name>Clip1ATK90</name>
					<duration>481</duration>
					<rate>
						<ntsc>FALSE</ntsc>
						<timebase>25</timebase>
					</rate>
					<in>260</in>
					<out>300</out>
					<start>7110</start>
					<end>7150</end>
					<subframeoffset>0</subframeoffset>
					<masterclipid>Clip1ATK90 1</masterclipid>
					<logginginfo>
						<scene/>
						<shottake/>
						<lognote/>
						<good>FALSE</good>
					</logginginfo>
					<labels>
						<label2/>
					</labels>
					<comments>
						<mastercomment1/>
						<mastercomment2/>
						<mastercomment3/>
						<mastercomment4/>
					</comments>
					<file id="Clip1ATK90 2"/>
					<filter>
						<effect>
							<name>Audio Levels</name>
							<effectid>audiolevels</effectid>
							<effectcategory>audiolevels</effectcategory>
							<effecttype>audiolevels</effecttype>
							<mediatype>audio</mediatype>
							<parameter>
								<name>Level</name>
								<parameterid>level</parameterid>
								<valuemin>0</valuemin>
								<valuemax>3.98109</valuemax>
								<value>0</value>
							</parameter>
						</effect>
					</filter>
					<filter>
						<effect>
							<name>Audio Pan</name>
							<effectid>audiopan</effectid>
							<effectcategory>audiopan</effectcategory>
							<effecttype>audiopan</effecttype>
							<mediatype>audio</mediatype>
							<parameter>
								<name>Pan</name>
								<parameterid>pan</parameterid>
								<valuemin>-1</valuemin>
								<valuemax>1</valuemax>
								<value>0</value>
							</parameter>
						</effect>
					</filter>
					<sourcetrack>
						<mediatype>audio</mediatype>
						<trackindex>2</trackindex>
					</sourcetrack>
					<link>
						<linkclipref>Clip1ATK90 5</linkclipref>
						<mediatype>audio</mediatype>
						<trackindex>1</trackindex>
						<clipindex>44</clipindex>
					</link>
					<link>
						<linkclipref>Clip1ATK90 6</linkclipref>
						<mediatype>audio</mediatype>
						<trackindex>2</trackindex>
						<clipindex>47</clipindex>
					</link>
					<itemhistory>
						<uuid>9C5D5BF8-1265-4745-86AA-307173188A14</uuid>
					</itemhistory>
				</clipitem>
				<clipitem id="Clip1ATK91 7">
					<name>Clip1ATK91</name>
					<duration>548</duration>
					<rate>
						<ntsc>FALSE</ntsc>
						<timebase>25</timebase>
					</rate>
					<in>409</in>
					<out>451</out>
					<start>7185</start>
					<end>7227</end>
					<subframeoffset>0</subframeoffset>
					<masterclipid>Clip1ATK91 1</masterclipid>
					<logginginfo>
						<scene/>
						<shottake/>
						<lognote/>
						<good>FALSE</good>
					</logginginfo>
					<labels>
						<label2/>
					</labels>
					<comments>
						<mastercomment1/>
						<mastercomment2/>
						<mastercomment3/>
						<mastercomment4/>
					</comments>
					<file id="Clip1ATK91 2"/>
					<filter>
						<effect>
							<name>Audio Levels</name>
							<effectid>audiolevels</effectid>
							<effectcategory>audiolevels</effectcategory>
							<effecttype>audiolevels</effecttype>
							<mediatype>audio</mediatype>
							<parameter>
								<name>Level</name>
								<parameterid>level</parameterid>
								<valuemin>0</valuemin>
								<valuemax>3.98109</valuemax>
								<value>1</value>
							</parameter>
						</effect>
					</filter>
					<filter>
						<effect>
							<name>Audio Pan</name>
							<effectid>audiopan</effectid>
							<effectcategory>audiopan</effectcategory>
							<effecttype>audiopan</effecttype>
							<mediatype>audio</mediatype>
							<parameter>
								<name>Pan</name>
								<parameterid>pan</parameterid>
								<valuemin>-1</valuemin>
								<valuemax>1</valuemax>
								<value>0</value>
							</parameter>
						</effect>
					</filter>
					<sourcetrack>
						<mediatype>audio</mediatype>
						<trackindex>2</trackindex>
					</sourcetrack>
					<link>
						<linkclipref>Clip1ATK91 5</linkclipref>
						<mediatype>video</mediatype>
						<trackindex>1</trackindex>
						<clipindex>63</clipindex>
					</link>
					<link>
						<linkclipref>Clip1ATK91 6</linkclipref>
						<mediatype>audio</mediatype>
						<trackindex>1</trackindex>
						<clipindex>45</clipindex>
					</link>
					<link>
						<linkclipref>Clip1ATK91 7</linkclipref>
						<mediatype>audio</mediatype>
						<trackindex>2</trackindex>
						<clipindex>48</clipindex>
					</link>
					<itemhistory>
						<uuid>71CE210B-5177-4B32-946B-FFAED8B54B61</uuid>
					</itemhistory>
				</clipitem>
				<clipitem id="-01_0235_01 4">
					<name>-01_0235_01</name>
					<duration>1180</duration>
					<rate>
						<ntsc>FALSE</ntsc>
						<timebase>25</timebase>
					</rate>
					<in>585</in>
					<out>1095</out>
					<start>7227</start>
					<end>7737</end>
					<subframeoffset>0</subframeoffset>
					<enabled>TRUE</enabled>
					<masterclipid>-01_0235_01 1</masterclipid>
					<logginginfo>
						<scene/>
						<shottake/>
						<lognote/>
						<good>FALSE</good>
					</logginginfo>
					<labels>
						<label2/>
					</labels>
					<comments>
						<mastercomment1/>
						<mastercomment2/>
						<mastercomment3/>
						<mastercomment4/>
					</comments>
					<file id="-01_0235_01 2"/>
					<filter>
						<effect>
							<name>Audio Levels</name>
							<effectid>audiolevels</effectid>
							<effectcategory>audiolevels</effectcategory>
							<effecttype>audiolevels</effecttype>
							<mediatype>audio</mediatype>
							<parameter>
								<name>Level</name>
								<parameterid>level</parameterid>
								<valuemin>0</valuemin>
								<valuemax>3.98109</valuemax>
								<value>1</value>
							</parameter>
						</effect>
					</filter>
					<filter>
						<effect>
							<name>Audio Pan</name>
							<effectid>audiopan</effectid>
							<effectcategory>audiopan</effectcategory>
							<effecttype>audiopan</effecttype>
							<mediatype>audio</mediatype>
							<parameter>
								<name>Pan</name>
								<parameterid>pan</parameterid>
								<valuemin>-1</valuemin>
								<valuemax>1</valuemax>
								<value>0</value>
							</parameter>
						</effect>
					</filter>
					<sourcetrack>
						<mediatype>audio</mediatype>
						<trackindex>2</trackindex>
					</sourcetrack>
					<link>
						<linkclipref>-01_0235_01 </linkclipref>
						<mediatype>video</mediatype>
						<trackindex>1</trackindex>
						<clipindex>64</clipindex>
					</link>
					<link>
						<linkclipref>-01_0235_01 3</linkclipref>
						<mediatype>audio</mediatype>
						<trackindex>1</trackindex>
						<clipindex>46</clipindex>
					</link>
					<link>
						<linkclipref>-01_0235_01 4</linkclipref>
						<mediatype>audio</mediatype>
						<trackindex>2</trackindex>
						<clipindex>49</clipindex>
					</link>
					<itemhistory>
						<uuid>6CFF115C-8D0D-4FCC-8FDE-54ED6D2DCCDE</uuid>
					</itemhistory>
				</clipitem>
				<clipitem id="carinos pgm 18 Kraakeklubben.WAV8">
					<name>carinos pgm 18 Kraakeklubben.WAV</name>
					<duration>8290</duration>
					<rate>
						<ntsc>FALSE</ntsc>
						<timebase>25</timebase>
					</rate>
					<in>4039</in>
					<out>4048</out>
					<start>8195</start>
					<end>8204</end>
					<subframeoffset>0</subframeoffset>
					<enabled>TRUE</enabled>
					<masterclipid>carinos pgm 18 Kraakeklubben.WAV1</masterclipid>
					<logginginfo>
						<scene/>
						<shottake/>
						<lognote/>
						<good>FALSE</good>
					</logginginfo>
					<labels>
						<label2/>
					</labels>
					<comments>
						<mastercomment1/>
						<mastercomment2/>
						<mastercomment3/>
						<mastercomment4/>
					</comments>
					<file id="carinos pgm 18 Kraakeklubben"/>
					<filter>
						<effect>
							<name>Audio Levels</name>
							<effectid>audiolevels</effectid>
							<effectcategory>audiolevels</effectcategory>
							<effecttype>audiolevels</effecttype>
							<mediatype>audio</mediatype>
							<parameter>
								<name>Level</name>
								<parameterid>level</parameterid>
								<valuemin>0</valuemin>
								<valuemax>3.98109</valuemax>
								<keyframe>
									<when>4039.29</when>
									<value>0</value>
								</keyframe>
								<keyframe>
									<when>4039.93</when>
									<value>3.98107</value>
								</keyframe>
								<keyframe>
									<when>4046.46</when>
									<value>3.98107</value>
								</keyframe>
								<keyframe>
									<when>4047.07</when>
									<value>0</value>
								</keyframe>
								<interpolation>
									<name>FCPCurve</name>
								</interpolation>
								<value>3.98107</value>
							</parameter>
						</effect>
					</filter>
					<filter>
						<effect>
							<name>Audio Pan</name>
							<effectid>audiopan</effectid>
							<effectcategory>audiopan</effectcategory>
							<effecttype>audiopan</effecttype>
							<mediatype>audio</mediatype>
							<parameter>
								<name>Pan</name>
								<parameterid>pan</parameterid>
								<valuemin>-1</valuemin>
								<valuemax>1</valuemax>
								<value>0</value>
							</parameter>
						</effect>
					</filter>
					<sourcetrack>
						<mediatype>audio</mediatype>
						<trackindex>1</trackindex>
					</sourcetrack>
					<itemhistory>
						<uuid>9CEECAF3-9B49-43D7-A5B4-5E7E52A0A7FC</uuid>
					</itemhistory>
				</clipitem>
				<clipitem id="carinos pgm 18 Kraakeklubben.WAV9">
					<name>carinos pgm 18 Kraakeklubben.WAV</name>
					<duration>8290</duration>
					<rate>
						<ntsc>FALSE</ntsc>
						<timebase>25</timebase>
					</rate>
					<in>7859</in>
					<out>8133</out>
					<start>9232</start>
					<end>9506</end>
					<subframeoffset>0</subframeoffset>
					<enabled>TRUE</enabled>
					<masterclipid>carinos pgm 18 Kraakeklubben.WAV1</masterclipid>
					<logginginfo>
						<scene/>
						<shottake/>
						<lognote/>
						<good>FALSE</good>
					</logginginfo>
					<labels>
						<label2/>
					</labels>
					<comments>
						<mastercomment1/>
						<mastercomment2/>
						<mastercomment3/>
						<mastercomment4/>
					</comments>
					<file id="carinos pgm 18 Kraakeklubben"/>
					<filter>
						<effect>
							<name>Audio Levels</name>
							<effectid>audiolevels</effectid>
							<effectcategory>audiolevels</effectcategory>
							<effecttype>audiolevels</effecttype>
							<mediatype>audio</mediatype>
							<parameter>
								<name>Level</name>
								<parameterid>level</parameterid>
								<valuemin>0</valuemin>
								<valuemax>3.98109</valuemax>
								<value>2.51189</value>
							</parameter>
						</effect>
					</filter>
					<filter>
						<effect>
							<name>Audio Pan</name>
							<effectid>audiopan</effectid>
							<effectcategory>audiopan</effectcategory>
							<effecttype>audiopan</effecttype>
							<mediatype>audio</mediatype>
							<parameter>
								<name>Pan</name>
								<parameterid>pan</parameterid>
								<valuemin>-1</valuemin>
								<valuemax>1</valuemax>
								<value>0</value>
							</parameter>
						</effect>
					</filter>
					<sourcetrack>
						<mediatype>audio</mediatype>
						<trackindex>1</trackindex>
					</sourcetrack>
					<itemhistory>
						<uuid>540BE0CB-357B-4880-95BC-6550C1B082E4</uuid>
					</itemhistory>
				</clipitem>
				<clipitem id="AA1418_01 4">
					<name>AA1418_01</name>
					<duration>1872</duration>
					<rate>
						<ntsc>FALSE</ntsc>
						<timebase>25</timebase>
					</rate>
					<in>171</in>
					<out>1060</out>
					<start>9566</start>
					<end>10455</end>
					<subframeoffset>0</subframeoffset>
					<masterclipid>AA1418_01 1</masterclipid>
					<logginginfo>
						<scene/>
						<shottake/>
						<lognote/>
						<good>FALSE</good>
					</logginginfo>
					<labels>
						<label2/>
					</labels>
					<comments>
						<mastercomment1/>
						<mastercomment2/>
						<mastercomment3/>
						<mastercomment4/>
					</comments>
					<file id="AA1418_01 2"/>
					<filter>
						<effect>
							<name>Audio Levels</name>
							<effectid>audiolevels</effectid>
							<effectcategory>audiolevels</effectcategory>
							<effecttype>audiolevels</effecttype>
							<mediatype>audio</mediatype>
							<parameter>
								<name>Level</name>
								<parameterid>level</parameterid>
								<valuemin>0</valuemin>
								<valuemax>3.98109</valuemax>
								<value>1</value>
							</parameter>
						</effect>
					</filter>
					<filter>
						<effect>
							<name>Audio Pan</name>
							<effectid>audiopan</effectid>
							<effectcategory>audiopan</effectcategory>
							<effecttype>audiopan</effecttype>
							<mediatype>audio</mediatype>
							<parameter>
								<name>Pan</name>
								<parameterid>pan</parameterid>
								<valuemin>-1</valuemin>
								<valuemax>1</valuemax>
								<value>0</value>
							</parameter>
						</effect>
					</filter>
					<sourcetrack>
						<mediatype>audio</mediatype>
						<trackindex>2</trackindex>
					</sourcetrack>
					<link>
						<linkclipref>AA1418_01 </linkclipref>
						<mediatype>video</mediatype>
						<trackindex>1</trackindex>
						<clipindex>91</clipindex>
					</link>
					<link>
						<linkclipref>AA1418_01 3</linkclipref>
						<mediatype>audio</mediatype>
						<trackindex>1</trackindex>
						<clipindex>57</clipindex>
					</link>
					<link>
						<linkclipref>AA1418_01 4</linkclipref>
						<mediatype>audio</mediatype>
						<trackindex>2</trackindex>
						<clipindex>52</clipindex>
					</link>
					<itemhistory>
						<uuid>AD36A2E2-675D-4F21-B288-F306C4DFE390</uuid>
					</itemhistory>
				</clipitem>
				<clipitem id="AA1422_01 5">
					<name>AA1422_01</name>
					<duration>1188</duration>
					<rate>
						<ntsc>FALSE</ntsc>
						<timebase>25</timebase>
					</rate>
					<in>768</in>
					<out>811</out>
					<start>10455</start>
					<end>10498</end>
					<subframeoffset>0</subframeoffset>
					<masterclipid>AA1422_01 1</masterclipid>
					<logginginfo>
						<scene/>
						<shottake/>
						<lognote/>
						<good>FALSE</good>
					</logginginfo>
					<labels>
						<label2/>
					</labels>
					<comments>
						<mastercomment1/>
						<mastercomment2/>
						<mastercomment3/>
						<mastercomment4/>
					</comments>
					<file id="AA1422_01 2"/>
					<filter>
						<effect>
							<name>Audio Levels</name>
							<effectid>audiolevels</effectid>
							<effectcategory>audiolevels</effectcategory>
							<effecttype>audiolevels</effecttype>
							<mediatype>audio</mediatype>
							<parameter>
								<name>Level</name>
								<parameterid>level</parameterid>
								<valuemin>0</valuemin>
								<valuemax>3.98109</valuemax>
								<value>1</value>
							</parameter>
						</effect>
					</filter>
					<filter>
						<effect>
							<name>Audio Pan</name>
							<effectid>audiopan</effectid>
							<effectcategory>audiopan</effectcategory>
							<effecttype>audiopan</effecttype>
							<mediatype>audio</mediatype>
							<parameter>
								<name>Pan</name>
								<parameterid>pan</parameterid>
								<valuemin>-1</valuemin>
								<valuemax>1</valuemax>
								<value>0</value>
							</parameter>
						</effect>
					</filter>
					<sourcetrack>
						<mediatype>audio</mediatype>
						<trackindex>2</trackindex>
					</sourcetrack>
					<link>
						<linkclipref>AA1422_01 3</linkclipref>
						<mediatype>video</mediatype>
						<trackindex>1</trackindex>
						<clipindex>96</clipindex>
					</link>
					<link>
						<linkclipref>AA1422_01 4</linkclipref>
						<mediatype>audio</mediatype>
						<trackindex>1</trackindex>
						<clipindex>58</clipindex>
					</link>
					<link>
						<linkclipref>AA1422_01 5</linkclipref>
						<mediatype>audio</mediatype>
						<trackindex>2</trackindex>
						<clipindex>53</clipindex>
					</link>
					<itemhistory>
						<uuid>E6EE5A01-F485-4E06-B6ED-F016D193D065</uuid>
					</itemhistory>
				</clipitem>
				<clipitem id="AA1418_01 12">
					<name>AA1418_01</name>
					<duration>1872</duration>
					<rate>
						<ntsc>FALSE</ntsc>
						<timebase>25</timebase>
					</rate>
					<in>1103</in>
					<out>1193</out>
					<start>10498</start>
					<end>10588</end>
					<subframeoffset>0</subframeoffset>
					<masterclipid>AA1418_01 1</masterclipid>
					<logginginfo>
						<scene/>
						<shottake/>
						<lognote/>
						<good>FALSE</good>
					</logginginfo>
					<labels>
						<label2/>
					</labels>
					<comments>
						<mastercomment1/>
						<mastercomment2/>
						<mastercomment3/>
						<mastercomment4/>
					</comments>
					<file id="AA1418_01 2"/>
					<filter>
						<effect>
							<name>Audio Levels</name>
							<effectid>audiolevels</effectid>
							<effectcategory>audiolevels</effectcategory>
							<effecttype>audiolevels</effecttype>
							<mediatype>audio</mediatype>
							<parameter>
								<name>Level</name>
								<parameterid>level</parameterid>
								<valuemin>0</valuemin>
								<valuemax>3.98109</valuemax>
								<value>1</value>
							</parameter>
						</effect>
					</filter>
					<filter>
						<effect>
							<name>Audio Pan</name>
							<effectid>audiopan</effectid>
							<effectcategory>audiopan</effectcategory>
							<effecttype>audiopan</effecttype>
							<mediatype>audio</mediatype>
							<parameter>
								<name>Pan</name>
								<parameterid>pan</parameterid>
								<valuemin>-1</valuemin>
								<valuemax>1</valuemax>
								<value>0</value>
							</parameter>
						</effect>
					</filter>
					<sourcetrack>
						<mediatype>audio</mediatype>
						<trackindex>2</trackindex>
					</sourcetrack>
					<link>
						<linkclipref>AA1418_01 11</linkclipref>
						<mediatype>audio</mediatype>
						<trackindex>1</trackindex>
						<clipindex>59</clipindex>
					</link>
					<link>
						<linkclipref>AA1418_01 12</linkclipref>
						<mediatype>audio</mediatype>
						<trackindex>2</trackindex>
						<clipindex>54</clipindex>
					</link>
					<itemhistory>
						<uuid>0C4AC578-8FA4-4419-ADD2-17272B3D6FDC</uuid>
					</itemhistory>
				</clipitem>
				<clipitem id="AA1425_01 5">
					<name>AA1425_01</name>
					<duration>1920</duration>
					<rate>
						<ntsc>FALSE</ntsc>
						<timebase>25</timebase>
					</rate>
					<in>1705</in>
					<out>1762</out>
					<start>10588</start>
					<end>10645</end>
					<subframeoffset>0</subframeoffset>
					<masterclipid>AA1425_01 1</masterclipid>
					<logginginfo>
						<scene/>
						<shottake/>
						<lognote/>
						<good>FALSE</good>
					</logginginfo>
					<labels>
						<label2/>
					</labels>
					<comments>
						<mastercomment1/>
						<mastercomment2/>
						<mastercomment3/>
						<mastercomment4/>
					</comments>
					<file id="AA1425_01 2"/>
					<filter>
						<effect>
							<name>Audio Levels</name>
							<effectid>audiolevels</effectid>
							<effectcategory>audiolevels</effectcategory>
							<effecttype>audiolevels</effecttype>
							<mediatype>audio</mediatype>
							<parameter>
								<name>Level</name>
								<parameterid>level</parameterid>
								<valuemin>0</valuemin>
								<valuemax>3.98109</valuemax>
								<value>2.23872</value>
							</parameter>
						</effect>
					</filter>
					<filter>
						<effect>
							<name>Audio Pan</name>
							<effectid>audiopan</effectid>
							<effectcategory>audiopan</effectcategory>
							<effecttype>audiopan</effecttype>
							<mediatype>audio</mediatype>
							<parameter>
								<name>Pan</name>
								<parameterid>pan</parameterid>
								<valuemin>-1</valuemin>
								<valuemax>1</valuemax>
								<value>0</value>
							</parameter>
						</effect>
					</filter>
					<sourcetrack>
						<mediatype>audio</mediatype>
						<trackindex>2</trackindex>
					</sourcetrack>
					<link>
						<linkclipref>AA1425_01 3</linkclipref>
						<mediatype>video</mediatype>
						<trackindex>1</trackindex>
						<clipindex>98</clipindex>
					</link>
					<link>
						<linkclipref>AA1425_01 4</linkclipref>
						<mediatype>audio</mediatype>
						<trackindex>1</trackindex>
						<clipindex>60</clipindex>
					</link>
					<link>
						<linkclipref>AA1425_01 5</linkclipref>
						<mediatype>audio</mediatype>
						<trackindex>2</trackindex>
						<clipindex>55</clipindex>
					</link>
					<itemhistory>
						<uuid>B30DFEC0-6F87-4C5A-A0D6-A051E21D8C53</uuid>
					</itemhistory>
				</clipitem>
				<clipitem id="AA1418_01 10">
					<name>AA1418_01</name>
					<duration>1872</duration>
					<rate>
						<ntsc>FALSE</ntsc>
						<timebase>25</timebase>
					</rate>
					<in>1277</in>
					<out>1595</out>
					<start>10645</start>
					<end>10963</end>
					<subframeoffset>0</subframeoffset>
					<masterclipid>AA1418_01 1</masterclipid>
					<syncoffset>0</syncoffset>
					<logginginfo>
						<scene/>
						<shottake/>
						<lognote/>
						<good>FALSE</good>
					</logginginfo>
					<labels>
						<label2/>
					</labels>
					<comments>
						<mastercomment1/>
						<mastercomment2/>
						<mastercomment3/>
						<mastercomment4/>
					</comments>
					<file id="AA1418_01 2"/>
					<filter>
						<effect>
							<name>Audio Levels</name>
							<effectid>audiolevels</effectid>
							<effectcategory>audiolevels</effectcategory>
							<effecttype>audiolevels</effecttype>
							<mediatype>audio</mediatype>
							<parameter>
								<name>Level</name>
								<parameterid>level</parameterid>
								<valuemin>0</valuemin>
								<valuemax>3.98109</valuemax>
								<value>1</value>
							</parameter>
						</effect>
					</filter>
					<filter>
						<effect>
							<name>Audio Pan</name>
							<effectid>audiopan</effectid>
							<effectcategory>audiopan</effectcategory>
							<effecttype>audiopan</effecttype>
							<mediatype>audio</mediatype>
							<parameter>
								<name>Pan</name>
								<parameterid>pan</parameterid>
								<valuemin>-1</valuemin>
								<valuemax>1</valuemax>
								<value>0</value>
							</parameter>
						</effect>
					</filter>
					<sourcetrack>
						<mediatype>audio</mediatype>
						<trackindex>2</trackindex>
					</sourcetrack>
					<link>
						<linkclipref>AA1418_01 8</linkclipref>
						<mediatype>video</mediatype>
						<trackindex>1</trackindex>
						<clipindex>99</clipindex>
					</link>
					<link>
						<linkclipref>AA1418_01 9</linkclipref>
						<mediatype>audio</mediatype>
						<trackindex>1</trackindex>
						<clipindex>61</clipindex>
					</link>
					<link>
						<linkclipref>AA1418_01 10</linkclipref>
						<mediatype>audio</mediatype>
						<trackindex>2</trackindex>
						<clipindex>56</clipindex>
					</link>
					<itemhistory>
						<uuid>2143FF31-BA13-444A-83E7-DC1D29E305FF</uuid>
					</itemhistory>
				</clipitem>
				<clipitem id="AA1423_01 4">
					<name>AA1423_01</name>
					<duration>840</duration>
					<rate>
						<ntsc>FALSE</ntsc>
						<timebase>25</timebase>
					</rate>
					<in>707</in>
					<out>741</out>
					<start>10963</start>
					<end>10997</end>
					<subframeoffset>0</subframeoffset>
					<masterclipid>AA1423_01 1</masterclipid>
					<logginginfo>
						<scene/>
						<shottake/>
						<lognote/>
						<good>FALSE</good>
					</logginginfo>
					<labels>
						<label2/>
					</labels>
					<comments>
						<mastercomment1/>
						<mastercomment2/>
						<mastercomment3/>
						<mastercomment4/>
					</comments>
					<file id="AA1423_01 2"/>
					<filter>
						<effect>
							<name>Audio Levels</name>
							<effectid>audiolevels</effectid>
							<effectcategory>audiolevels</effectcategory>
							<effecttype>audiolevels</effecttype>
							<mediatype>audio</mediatype>
							<parameter>
								<name>Level</name>
								<parameterid>level</parameterid>
								<valuemin>0</valuemin>
								<valuemax>3.98109</valuemax>
								<value>1</value>
							</parameter>
						</effect>
					</filter>
					<filter>
						<effect>
							<name>Audio Pan</name>
							<effectid>audiopan</effectid>
							<effectcategory>audiopan</effectcategory>
							<effecttype>audiopan</effecttype>
							<mediatype>audio</mediatype>
							<parameter>
								<name>Pan</name>
								<parameterid>pan</parameterid>
								<valuemin>-1</valuemin>
								<valuemax>1</valuemax>
								<value>0</value>
							</parameter>
						</effect>
					</filter>
					<sourcetrack>
						<mediatype>audio</mediatype>
						<trackindex>2</trackindex>
					</sourcetrack>
					<link>
						<linkclipref>AA1423_01 </linkclipref>
						<mediatype>video</mediatype>
						<trackindex>1</trackindex>
						<clipindex>100</clipindex>
					</link>
					<link>
						<linkclipref>AA1423_01 3</linkclipref>
						<mediatype>audio</mediatype>
						<trackindex>1</trackindex>
						<clipindex>62</clipindex>
					</link>
					<link>
						<linkclipref>AA1423_01 4</linkclipref>
						<mediatype>audio</mediatype>
						<trackindex>2</trackindex>
						<clipindex>57</clipindex>
					</link>
					<itemhistory>
						<uuid>3A60BC28-3826-4948-8ED6-D9B2A842B3B9</uuid>
					</itemhistory>
				</clipitem>
				<clipitem id="AA1426_01 4">
					<name>AA1426_01</name>
					<duration>384</duration>
					<rate>
						<ntsc>FALSE</ntsc>
						<timebase>25</timebase>
					</rate>
					<in>212</in>
					<out>296</out>
					<start>10997</start>
					<end>11081</end>
					<subframeoffset>0</subframeoffset>
					<masterclipid>AA1426_01 1</masterclipid>
					<logginginfo>
						<scene/>
						<shottake/>
						<lognote/>
						<good>FALSE</good>
					</logginginfo>
					<labels>
						<label2/>
					</labels>
					<comments>
						<mastercomment1/>
						<mastercomment2/>
						<mastercomment3/>
						<mastercomment4/>
					</comments>
					<file id="AA1426_01 2"/>
					<filter>
						<effect>
							<name>Audio Levels</name>
							<effectid>audiolevels</effectid>
							<effectcategory>audiolevels</effectcategory>
							<effecttype>audiolevels</effecttype>
							<mediatype>audio</mediatype>
							<parameter>
								<name>Level</name>
								<parameterid>level</parameterid>
								<valuemin>0</valuemin>
								<valuemax>3.98109</valuemax>
								<value>1</value>
							</parameter>
						</effect>
					</filter>
					<filter>
						<effect>
							<name>Audio Pan</name>
							<effectid>audiopan</effectid>
							<effectcategory>audiopan</effectcategory>
							<effecttype>audiopan</effecttype>
							<mediatype>audio</mediatype>
							<parameter>
								<name>Pan</name>
								<parameterid>pan</parameterid>
								<valuemin>-1</valuemin>
								<valuemax>1</valuemax>
								<value>0</value>
							</parameter>
						</effect>
					</filter>
					<sourcetrack>
						<mediatype>audio</mediatype>
						<trackindex>2</trackindex>
					</sourcetrack>
					<link>
						<linkclipref>AA1426_01 </linkclipref>
						<mediatype>video</mediatype>
						<trackindex>1</trackindex>
						<clipindex>101</clipindex>
					</link>
					<link>
						<linkclipref>AA1426_01 3</linkclipref>
						<mediatype>audio</mediatype>
						<trackindex>1</trackindex>
						<clipindex>63</clipindex>
					</link>
					<link>
						<linkclipref>AA1426_01 4</linkclipref>
						<mediatype>audio</mediatype>
						<trackindex>2</trackindex>
						<clipindex>58</clipindex>
					</link>
					<itemhistory>
						<uuid>54A8D07B-AD75-4108-B271-21D5B3B71CD9</uuid>
					</itemhistory>
				</clipitem>
				<clipitem id="AA1429_01 4">
					<name>AA1429_01</name>
					<duration>648</duration>
					<rate>
						<ntsc>FALSE</ntsc>
						<timebase>25</timebase>
					</rate>
					<in>228</in>
					<out>322</out>
					<start>11188</start>
					<end>11282</end>
					<subframeoffset>0</subframeoffset>
					<masterclipid>AA1429_01 1</masterclipid>
					<logginginfo>
						<scene/>
						<shottake/>
						<lognote/>
						<good>FALSE</good>
					</logginginfo>
					<labels>
						<label2/>
					</labels>
					<comments>
						<mastercomment1/>
						<mastercomment2/>
						<mastercomment3/>
						<mastercomment4/>
					</comments>
					<file id="AA1429_01 2"/>
					<filter>
						<effect>
							<name>Audio Levels</name>
							<effectid>audiolevels</effectid>
							<effectcategory>audiolevels</effectcategory>
							<effecttype>audiolevels</effecttype>
							<mediatype>audio</mediatype>
							<parameter>
								<name>Level</name>
								<parameterid>level</parameterid>
								<valuemin>0</valuemin>
								<valuemax>3.98109</valuemax>
								<value>1</value>
							</parameter>
						</effect>
					</filter>
					<filter>
						<effect>
							<name>Audio Pan</name>
							<effectid>audiopan</effectid>
							<effectcategory>audiopan</effectcategory>
							<effecttype>audiopan</effecttype>
							<mediatype>audio</mediatype>
							<parameter>
								<name>Pan</name>
								<parameterid>pan</parameterid>
								<valuemin>-1</valuemin>
								<valuemax>1</valuemax>
								<value>0</value>
							</parameter>
						</effect>
					</filter>
					<sourcetrack>
						<mediatype>audio</mediatype>
						<trackindex>2</trackindex>
					</sourcetrack>
					<link>
						<linkclipref>AA1429_01 </linkclipref>
						<mediatype>video</mediatype>
						<trackindex>1</trackindex>
						<clipindex>103</clipindex>
					</link>
					<link>
						<linkclipref>AA1429_01 3</linkclipref>
						<mediatype>audio</mediatype>
						<trackindex>1</trackindex>
						<clipindex>64</clipindex>
					</link>
					<link>
						<linkclipref>AA1429_01 4</linkclipref>
						<mediatype>audio</mediatype>
						<trackindex>2</trackindex>
						<clipindex>59</clipindex>
					</link>
					<itemhistory>
						<uuid>93FDF69D-8CC3-4821-82F0-101DCB8E6C3D</uuid>
					</itemhistory>
				</clipitem>
				<clipitem id="AA1432_01 4">
					<name>AA1432_01</name>
					<duration>408</duration>
					<rate>
						<ntsc>FALSE</ntsc>
						<timebase>25</timebase>
					</rate>
					<in>80</in>
					<out>347</out>
					<start>11282</start>
					<end>11549</end>
					<subframeoffset>0</subframeoffset>
					<masterclipid>AA1432_01 1</masterclipid>
					<logginginfo>
						<scene/>
						<shottake/>
						<lognote/>
						<good>FALSE</good>
					</logginginfo>
					<labels>
						<label2/>
					</labels>
					<comments>
						<mastercomment1/>
						<mastercomment2/>
						<mastercomment3/>
						<mastercomment4/>
					</comments>
					<file id="AA1432_01 2"/>
					<filter>
						<effect>
							<name>Audio Levels</name>
							<effectid>audiolevels</effectid>
							<effectcategory>audiolevels</effectcategory>
							<effecttype>audiolevels</effecttype>
							<mediatype>audio</mediatype>
							<parameter>
								<name>Level</name>
								<parameterid>level</parameterid>
								<valuemin>0</valuemin>
								<valuemax>3.98109</valuemax>
								<value>1</value>
							</parameter>
						</effect>
					</filter>
					<filter>
						<effect>
							<name>Audio Pan</name>
							<effectid>audiopan</effectid>
							<effectcategory>audiopan</effectcategory>
							<effecttype>audiopan</effecttype>
							<mediatype>audio</mediatype>
							<parameter>
								<name>Pan</name>
								<parameterid>pan</parameterid>
								<valuemin>-1</valuemin>
								<valuemax>1</valuemax>
								<value>0</value>
							</parameter>
						</effect>
					</filter>
					<sourcetrack>
						<mediatype>audio</mediatype>
						<trackindex>2</trackindex>
					</sourcetrack>
					<link>
						<linkclipref>AA1432_01 </linkclipref>
						<mediatype>video</mediatype>
						<trackindex>1</trackindex>
						<clipindex>104</clipindex>
					</link>
					<link>
						<linkclipref>AA1432_01 3</linkclipref>
						<mediatype>audio</mediatype>
						<trackindex>1</trackindex>
						<clipindex>65</clipindex>
					</link>
					<link>
						<linkclipref>AA1432_01 4</linkclipref>
						<mediatype>audio</mediatype>
						<trackindex>2</trackindex>
						<clipindex>60</clipindex>
					</link>
					<itemhistory>
						<uuid>0BE15EC9-A9A0-49D2-8107-DA5D7345CA08</uuid>
					</itemhistory>
				</clipitem>
				<clipitem id="AA1427_01 4">
					<name>AA1427_01</name>
					<duration>408</duration>
					<rate>
						<ntsc>FALSE</ntsc>
						<timebase>25</timebase>
					</rate>
					<in>182</in>
					<out>293</out>
					<start>11549</start>
					<end>11660</end>
					<subframeoffset>0</subframeoffset>
					<enabled>TRUE</enabled>
					<masterclipid>AA1427_01 1</masterclipid>
					<logginginfo>
						<scene/>
						<shottake/>
						<lognote/>
						<good>FALSE</good>
					</logginginfo>
					<labels>
						<label2/>
					</labels>
					<comments>
						<mastercomment1/>
						<mastercomment2/>
						<mastercomment3/>
						<mastercomment4/>
					</comments>
					<file id="AA1427_01 2"/>
					<filter>
						<effect>
							<name>Audio Levels</name>
							<effectid>audiolevels</effectid>
							<effectcategory>audiolevels</effectcategory>
							<effecttype>audiolevels</effecttype>
							<mediatype>audio</mediatype>
							<parameter>
								<name>Level</name>
								<parameterid>level</parameterid>
								<valuemin>0</valuemin>
								<valuemax>3.98109</valuemax>
								<value>1</value>
							</parameter>
						</effect>
					</filter>
					<filter>
						<effect>
							<name>Audio Pan</name>
							<effectid>audiopan</effectid>
							<effectcategory>audiopan</effectcategory>
							<effecttype>audiopan</effecttype>
							<mediatype>audio</mediatype>
							<parameter>
								<name>Pan</name>
								<parameterid>pan</parameterid>
								<valuemin>-1</valuemin>
								<valuemax>1</valuemax>
								<value>0</value>
							</parameter>
						</effect>
					</filter>
					<sourcetrack>
						<mediatype>audio</mediatype>
						<trackindex>2</trackindex>
					</sourcetrack>
					<link>
						<linkclipref>AA1427_01 </linkclipref>
						<mediatype>video</mediatype>
						<trackindex>1</trackindex>
						<clipindex>105</clipindex>
					</link>
					<link>
						<linkclipref>AA1427_01 3</linkclipref>
						<mediatype>audio</mediatype>
						<trackindex>1</trackindex>
						<clipindex>66</clipindex>
					</link>
					<link>
						<linkclipref>AA1427_01 4</linkclipref>
						<mediatype>audio</mediatype>
						<trackindex>2</trackindex>
						<clipindex>61</clipindex>
					</link>
					<itemhistory>
						<uuid>61098AB0-B637-4C33-B66E-19BADDE3D900</uuid>
					</itemhistory>
				</clipitem>
				<clipitem id="AA1435_01 4">
					<name>AA1435_01</name>
					<duration>3048</duration>
					<rate>
						<ntsc>FALSE</ntsc>
						<timebase>25</timebase>
					</rate>
					<in>141</in>
					<out>237</out>
					<start>11660</start>
					<end>11756</end>
					<subframeoffset>0</subframeoffset>
					<masterclipid>AA1435_01 1</masterclipid>
					<logginginfo>
						<scene/>
						<shottake/>
						<lognote/>
						<good>FALSE</good>
					</logginginfo>
					<labels>
						<label2/>
					</labels>
					<comments>
						<mastercomment1/>
						<mastercomment2/>
						<mastercomment3/>
						<mastercomment4/>
					</comments>
					<file id="AA1435_01 2"/>
					<filter>
						<effect>
							<name>Audio Levels</name>
							<effectid>audiolevels</effectid>
							<effectcategory>audiolevels</effectcategory>
							<effecttype>audiolevels</effecttype>
							<mediatype>audio</mediatype>
							<parameter>
								<name>Level</name>
								<parameterid>level</parameterid>
								<valuemin>0</valuemin>
								<valuemax>3.98109</valuemax>
								<value>1</value>
							</parameter>
						</effect>
					</filter>
					<filter>
						<effect>
							<name>Audio Pan</name>
							<effectid>audiopan</effectid>
							<effectcategory>audiopan</effectcategory>
							<effecttype>audiopan</effecttype>
							<mediatype>audio</mediatype>
							<parameter>
								<name>Pan</name>
								<parameterid>pan</parameterid>
								<valuemin>-1</valuemin>
								<valuemax>1</valuemax>
								<value>0</value>
							</parameter>
						</effect>
					</filter>
					<sourcetrack>
						<mediatype>audio</mediatype>
						<trackindex>2</trackindex>
					</sourcetrack>
					<link>
						<linkclipref>AA1435_01 </linkclipref>
						<mediatype>video</mediatype>
						<trackindex>1</trackindex>
						<clipindex>107</clipindex>
					</link>
					<link>
						<linkclipref>AA1435_01 3</linkclipref>
						<mediatype>audio</mediatype>
						<trackindex>1</trackindex>
						<clipindex>67</clipindex>
					</link>
					<link>
						<linkclipref>AA1435_01 4</linkclipref>
						<mediatype>audio</mediatype>
						<trackindex>2</trackindex>
						<clipindex>62</clipindex>
					</link>
					<itemhistory>
						<uuid>64EE09B2-2962-4A68-8250-E3DF93DCC682</uuid>
					</itemhistory>
				</clipitem>
				<clipitem id="AA1435_01 8">
					<name>AA1435_01</name>
					<duration>3048</duration>
					<rate>
						<ntsc>FALSE</ntsc>
						<timebase>25</timebase>
					</rate>
					<in>229</in>
					<out>488</out>
					<start>11756</start>
					<end>12015</end>
					<subframeoffset>0</subframeoffset>
					<masterclipid>AA1435_01 1</masterclipid>
					<logginginfo>
						<scene/>
						<shottake/>
						<lognote/>
						<good>FALSE</good>
					</logginginfo>
					<labels>
						<label2/>
					</labels>
					<comments>
						<mastercomment1/>
						<mastercomment2/>
						<mastercomment3/>
						<mastercomment4/>
					</comments>
					<file id="AA1435_01 2"/>
					<filter>
						<effect>
							<name>Audio Levels</name>
							<effectid>audiolevels</effectid>
							<effectcategory>audiolevels</effectcategory>
							<effecttype>audiolevels</effecttype>
							<mediatype>audio</mediatype>
							<parameter>
								<name>Level</name>
								<parameterid>level</parameterid>
								<valuemin>0</valuemin>
								<valuemax>3.98109</valuemax>
								<value>1</value>
							</parameter>
						</effect>
					</filter>
					<filter>
						<effect>
							<name>Audio Pan</name>
							<effectid>audiopan</effectid>
							<effectcategory>audiopan</effectcategory>
							<effecttype>audiopan</effecttype>
							<mediatype>audio</mediatype>
							<parameter>
								<name>Pan</name>
								<parameterid>pan</parameterid>
								<valuemin>-1</valuemin>
								<valuemax>1</valuemax>
								<value>0</value>
							</parameter>
						</effect>
					</filter>
					<sourcetrack>
						<mediatype>audio</mediatype>
						<trackindex>2</trackindex>
					</sourcetrack>
					<link>
						<linkclipref>AA1435_01 6</linkclipref>
						<mediatype>video</mediatype>
						<trackindex>1</trackindex>
						<clipindex>109</clipindex>
					</link>
					<link>
						<linkclipref>AA1435_01 7</linkclipref>
						<mediatype>audio</mediatype>
						<trackindex>1</trackindex>
						<clipindex>68</clipindex>
					</link>
					<link>
						<linkclipref>AA1435_01 8</linkclipref>
						<mediatype>audio</mediatype>
						<trackindex>2</trackindex>
						<clipindex>63</clipindex>
					</link>
					<itemhistory>
						<uuid>49068F46-90C8-4815-AC36-31487ADEF5C6</uuid>
					</itemhistory>
				</clipitem>
				<clipitem id="AA1435_01 11">
					<name>AA1435_01</name>
					<duration>3048</duration>
					<rate>
						<ntsc>FALSE</ntsc>
						<timebase>25</timebase>
					</rate>
					<in>490</in>
					<out>615</out>
					<start>12015</start>
					<end>12140</end>
					<subframeoffset>0</subframeoffset>
					<masterclipid>AA1435_01 1</masterclipid>
					<logginginfo>
						<scene/>
						<shottake/>
						<lognote/>
						<good>FALSE</good>
					</logginginfo>
					<labels>
						<label2/>
					</labels>
					<comments>
						<mastercomment1/>
						<mastercomment2/>
						<mastercomment3/>
						<mastercomment4/>
					</comments>
					<file id="AA1435_01 2"/>
					<filter>
						<effect>
							<name>Audio Levels</name>
							<effectid>audiolevels</effectid>
							<effectcategory>audiolevels</effectcategory>
							<effecttype>audiolevels</effecttype>
							<mediatype>audio</mediatype>
							<parameter>
								<name>Level</name>
								<parameterid>level</parameterid>
								<valuemin>0</valuemin>
								<valuemax>3.98109</valuemax>
								<value>1</value>
							</parameter>
						</effect>
					</filter>
					<filter>
						<effect>
							<name>Audio Pan</name>
							<effectid>audiopan</effectid>
							<effectcategory>audiopan</effectcategory>
							<effecttype>audiopan</effecttype>
							<mediatype>audio</mediatype>
							<parameter>
								<name>Pan</name>
								<parameterid>pan</parameterid>
								<valuemin>-1</valuemin>
								<valuemax>1</valuemax>
								<value>0</value>
							</parameter>
						</effect>
					</filter>
					<sourcetrack>
						<mediatype>audio</mediatype>
						<trackindex>2</trackindex>
					</sourcetrack>
					<link>
						<linkclipref>AA1435_01 9</linkclipref>
						<mediatype>video</mediatype>
						<trackindex>1</trackindex>
						<clipindex>111</clipindex>
					</link>
					<link>
						<linkclipref>AA1435_01 10</linkclipref>
						<mediatype>audio</mediatype>
						<trackindex>1</trackindex>
						<clipindex>69</clipindex>
					</link>
					<link>
						<linkclipref>AA1435_01 11</linkclipref>
						<mediatype>audio</mediatype>
						<trackindex>2</trackindex>
						<clipindex>64</clipindex>
					</link>
					<itemhistory>
						<uuid>4E1AF693-DFCA-4142-971D-73C9FECA8E75</uuid>
					</itemhistory>
				</clipitem>
				<clipitem id="AA1437_01 5">
					<name>AA1437_01</name>
					<duration>2808</duration>
					<rate>
						<ntsc>FALSE</ntsc>
						<timebase>25</timebase>
					</rate>
					<in>807</in>
					<out>1133</out>
					<start>12140</start>
					<end>12466</end>
					<subframeoffset>0</subframeoffset>
					<masterclipid>AA1437_01 1</masterclipid>
					<logginginfo>
						<scene/>
						<shottake/>
						<lognote/>
						<good>FALSE</good>
					</logginginfo>
					<labels>
						<label2/>
					</labels>
					<comments>
						<mastercomment1/>
						<mastercomment2/>
						<mastercomment3/>
						<mastercomment4/>
					</comments>
					<file id="AA1437_01 2"/>
					<filter>
						<effect>
							<name>Audio Levels</name>
							<effectid>audiolevels</effectid>
							<effectcategory>audiolevels</effectcategory>
							<effecttype>audiolevels</effecttype>
							<mediatype>audio</mediatype>
							<parameter>
								<name>Level</name>
								<parameterid>level</parameterid>
								<valuemin>0</valuemin>
								<valuemax>3.98109</valuemax>
								<value>1</value>
							</parameter>
						</effect>
					</filter>
					<filter>
						<effect>
							<name>Audio Pan</name>
							<effectid>audiopan</effectid>
							<effectcategory>audiopan</effectcategory>
							<effecttype>audiopan</effecttype>
							<mediatype>audio</mediatype>
							<parameter>
								<name>Pan</name>
								<parameterid>pan</parameterid>
								<valuemin>-1</valuemin>
								<valuemax>1</valuemax>
								<value>0</value>
							</parameter>
						</effect>
					</filter>
					<sourcetrack>
						<mediatype>audio</mediatype>
						<trackindex>2</trackindex>
					</sourcetrack>
					<link>
						<linkclipref>AA1437_01 3</linkclipref>
						<mediatype>video</mediatype>
						<trackindex>1</trackindex>
						<clipindex>112</clipindex>
					</link>
					<link>
						<linkclipref>AA1437_01 4</linkclipref>
						<mediatype>audio</mediatype>
						<trackindex>1</trackindex>
						<clipindex>70</clipindex>
					</link>
					<link>
						<linkclipref>AA1437_01 5</linkclipref>
						<mediatype>audio</mediatype>
						<trackindex>2</trackindex>
						<clipindex>65</clipindex>
					</link>
					<itemhistory>
						<uuid>8C9A50D7-AB70-457A-89E0-0D817ABE9CA7</uuid>
					</itemhistory>
				</clipitem>
				<clipitem id="AA1435_01 15">
					<name>AA1435_01</name>
					<duration>3048</duration>
					<rate>
						<ntsc>FALSE</ntsc>
						<timebase>25</timebase>
					</rate>
					<in>895</in>
					<out>1227</out>
					<start>12466</start>
					<end>12798</end>
					<subframeoffset>0</subframeoffset>
					<masterclipid>AA1435_01 1</masterclipid>
					<logginginfo>
						<scene/>
						<shottake/>
						<lognote/>
						<good>FALSE</good>
					</logginginfo>
					<labels>
						<label2/>
					</labels>
					<comments>
						<mastercomment1/>
						<mastercomment2/>
						<mastercomment3/>
						<mastercomment4/>
					</comments>
					<file id="AA1435_01 2"/>
					<filter>
						<effect>
							<name>Audio Levels</name>
							<effectid>audiolevels</effectid>
							<effectcategory>audiolevels</effectcategory>
							<effecttype>audiolevels</effecttype>
							<mediatype>audio</mediatype>
							<parameter>
								<name>Level</name>
								<parameterid>level</parameterid>
								<valuemin>0</valuemin>
								<valuemax>3.98109</valuemax>
								<value>1</value>
							</parameter>
						</effect>
					</filter>
					<filter>
						<effect>
							<name>Audio Pan</name>
							<effectid>audiopan</effectid>
							<effectcategory>audiopan</effectcategory>
							<effecttype>audiopan</effecttype>
							<mediatype>audio</mediatype>
							<parameter>
								<name>Pan</name>
								<parameterid>pan</parameterid>
								<valuemin>-1</valuemin>
								<valuemax>1</valuemax>
								<value>0</value>
							</parameter>
						</effect>
					</filter>
					<sourcetrack>
						<mediatype>audio</mediatype>
						<trackindex>2</trackindex>
					</sourcetrack>
					<link>
						<linkclipref>AA1435_01 13</linkclipref>
						<mediatype>video</mediatype>
						<trackindex>1</trackindex>
						<clipindex>115</clipindex>
					</link>
					<link>
						<linkclipref>AA1435_01 14</linkclipref>
						<mediatype>audio</mediatype>
						<trackindex>1</trackindex>
						<clipindex>71</clipindex>
					</link>
					<link>
						<linkclipref>AA1435_01 15</linkclipref>
						<mediatype>audio</mediatype>
						<trackindex>2</trackindex>
						<clipindex>66</clipindex>
					</link>
					<itemhistory>
						<uuid>2C696A48-A714-4472-8A31-D355538EF6A7</uuid>
					</itemhistory>
				</clipitem>
				<clipitem id="AA1435_01 27">
					<name>AA1435_01</name>
					<duration>3048</duration>
					<rate>
						<ntsc>FALSE</ntsc>
						<timebase>25</timebase>
					</rate>
					<in>1249</in>
					<out>1668</out>
					<start>12798</start>
					<end>13217</end>
					<subframeoffset>0</subframeoffset>
					<masterclipid>AA1435_01 1</masterclipid>
					<logginginfo>
						<scene/>
						<shottake/>
						<lognote/>
						<good>FALSE</good>
					</logginginfo>
					<labels>
						<label2/>
					</labels>
					<comments>
						<mastercomment1/>
						<mastercomment2/>
						<mastercomment3/>
						<mastercomment4/>
					</comments>
					<file id="AA1435_01 2"/>
					<filter>
						<effect>
							<name>Audio Levels</name>
							<effectid>audiolevels</effectid>
							<effectcategory>audiolevels</effectcategory>
							<effecttype>audiolevels</effecttype>
							<mediatype>audio</mediatype>
							<parameter>
								<name>Level</name>
								<parameterid>level</parameterid>
								<valuemin>0</valuemin>
								<valuemax>3.98109</valuemax>
								<value>1</value>
							</parameter>
						</effect>
					</filter>
					<filter>
						<effect>
							<name>Audio Pan</name>
							<effectid>audiopan</effectid>
							<effectcategory>audiopan</effectcategory>
							<effecttype>audiopan</effecttype>
							<mediatype>audio</mediatype>
							<parameter>
								<name>Pan</name>
								<parameterid>pan</parameterid>
								<valuemin>-1</valuemin>
								<valuemax>1</valuemax>
								<value>0</value>
							</parameter>
						</effect>
					</filter>
					<sourcetrack>
						<mediatype>audio</mediatype>
						<trackindex>2</trackindex>
					</sourcetrack>
					<link>
						<linkclipref>AA1435_01 26</linkclipref>
						<mediatype>audio</mediatype>
						<trackindex>1</trackindex>
						<clipindex>72</clipindex>
					</link>
					<link>
						<linkclipref>AA1435_01 27</linkclipref>
						<mediatype>audio</mediatype>
						<trackindex>2</trackindex>
						<clipindex>67</clipindex>
					</link>
					<itemhistory>
						<uuid>B4F42B46-2358-4184-A57E-052C557B9F55</uuid>
					</itemhistory>
				</clipitem>
				<clipitem id="AA1435_01 20">
					<name>AA1435_01</name>
					<duration>3048</duration>
					<rate>
						<ntsc>FALSE</ntsc>
						<timebase>25</timebase>
					</rate>
					<in>1702</in>
					<out>1829</out>
					<start>13217</start>
					<end>13344</end>
					<subframeoffset>0</subframeoffset>
					<masterclipid>AA1435_01 1</masterclipid>
					<syncoffset>0</syncoffset>
					<logginginfo>
						<scene/>
						<shottake/>
						<lognote/>
						<good>FALSE</good>
					</logginginfo>
					<labels>
						<label2/>
					</labels>
					<comments>
						<mastercomment1/>
						<mastercomment2/>
						<mastercomment3/>
						<mastercomment4/>
					</comments>
					<file id="AA1435_01 2"/>
					<filter>
						<effect>
							<name>Audio Levels</name>
							<effectid>audiolevels</effectid>
							<effectcategory>audiolevels</effectcategory>
							<effecttype>audiolevels</effecttype>
							<mediatype>audio</mediatype>
							<parameter>
								<name>Level</name>
								<parameterid>level</parameterid>
								<valuemin>0</valuemin>
								<valuemax>3.98109</valuemax>
								<value>1</value>
							</parameter>
						</effect>
					</filter>
					<filter>
						<effect>
							<name>Audio Pan</name>
							<effectid>audiopan</effectid>
							<effectcategory>audiopan</effectcategory>
							<effecttype>audiopan</effecttype>
							<mediatype>audio</mediatype>
							<parameter>
								<name>Pan</name>
								<parameterid>pan</parameterid>
								<valuemin>-1</valuemin>
								<valuemax>1</valuemax>
								<value>0</value>
							</parameter>
						</effect>
					</filter>
					<sourcetrack>
						<mediatype>audio</mediatype>
						<trackindex>2</trackindex>
					</sourcetrack>
					<link>
						<linkclipref>AA1435_01 18</linkclipref>
						<mediatype>video</mediatype>
						<trackindex>1</trackindex>
						<clipindex>121</clipindex>
					</link>
					<link>
						<linkclipref>AA1435_01 19</linkclipref>
						<mediatype>audio</mediatype>
						<trackindex>1</trackindex>
						<clipindex>73</clipindex>
					</link>
					<link>
						<linkclipref>AA1435_01 20</linkclipref>
						<mediatype>audio</mediatype>
						<trackindex>2</trackindex>
						<clipindex>68</clipindex>
					</link>
					<itemhistory>
						<uuid>2B4B6200-3C69-402B-A508-6CB64C4C23DD</uuid>
					</itemhistory>
				</clipitem>
				<clipitem id="AA1437_01 11">
					<name>AA1437_01</name>
					<duration>2808</duration>
					<rate>
						<ntsc>FALSE</ntsc>
						<timebase>25</timebase>
					</rate>
					<in>2088</in>
					<out>2169</out>
					<start>13344</start>
					<end>13425</end>
					<subframeoffset>0</subframeoffset>
					<masterclipid>AA1437_01 1</masterclipid>
					<logginginfo>
						<scene/>
						<shottake/>
						<lognote/>
						<good>FALSE</good>
					</logginginfo>
					<labels>
						<label2/>
					</labels>
					<comments>
						<mastercomment1/>
						<mastercomment2/>
						<mastercomment3/>
						<mastercomment4/>
					</comments>
					<file id="AA1437_01 2"/>
					<filter>
						<effect>
							<name>Audio Levels</name>
							<effectid>audiolevels</effectid>
							<effectcategory>audiolevels</effectcategory>
							<effecttype>audiolevels</effecttype>
							<mediatype>audio</mediatype>
							<parameter>
								<name>Level</name>
								<parameterid>level</parameterid>
								<valuemin>0</valuemin>
								<valuemax>3.98109</valuemax>
								<value>1</value>
							</parameter>
						</effect>
					</filter>
					<filter>
						<effect>
							<name>Audio Pan</name>
							<effectid>audiopan</effectid>
							<effectcategory>audiopan</effectcategory>
							<effecttype>audiopan</effecttype>
							<mediatype>audio</mediatype>
							<parameter>
								<name>Pan</name>
								<parameterid>pan</parameterid>
								<valuemin>-1</valuemin>
								<valuemax>1</valuemax>
								<value>0</value>
							</parameter>
						</effect>
					</filter>
					<sourcetrack>
						<mediatype>audio</mediatype>
						<trackindex>2</trackindex>
					</sourcetrack>
					<link>
						<linkclipref>AA1437_01 9</linkclipref>
						<mediatype>video</mediatype>
						<trackindex>1</trackindex>
						<clipindex>122</clipindex>
					</link>
					<link>
						<linkclipref>AA1437_01 10</linkclipref>
						<mediatype>audio</mediatype>
						<trackindex>1</trackindex>
						<clipindex>74</clipindex>
					</link>
					<link>
						<linkclipref>AA1437_01 11</linkclipref>
						<mediatype>audio</mediatype>
						<trackindex>2</trackindex>
						<clipindex>69</clipindex>
					</link>
					<itemhistory>
						<uuid>D10B7594-130C-4143-A798-3F712D2C9F27</uuid>
					</itemhistory>
				</clipitem>
				<clipitem id="AA1435_01 23">
					<name>AA1435_01</name>
					<duration>3048</duration>
					<rate>
						<ntsc>FALSE</ntsc>
						<timebase>25</timebase>
					</rate>
					<in>1953</in>
					<out>2363</out>
					<start>13425</start>
					<end>13835</end>
					<subframeoffset>0</subframeoffset>
					<masterclipid>AA1435_01 1</masterclipid>
					<syncoffset>0</syncoffset>
					<logginginfo>
						<scene/>
						<shottake/>
						<lognote/>
						<good>FALSE</good>
					</logginginfo>
					<labels>
						<label2/>
					</labels>
					<comments>
						<mastercomment1/>
						<mastercomment2/>
						<mastercomment3/>
						<mastercomment4/>
					</comments>
					<file id="AA1435_01 2"/>
					<filter>
						<effect>
							<name>Audio Levels</name>
							<effectid>audiolevels</effectid>
							<effectcategory>audiolevels</effectcategory>
							<effecttype>audiolevels</effecttype>
							<mediatype>audio</mediatype>
							<parameter>
								<name>Level</name>
								<parameterid>level</parameterid>
								<valuemin>0</valuemin>
								<valuemax>3.98109</valuemax>
								<value>1</value>
							</parameter>
						</effect>
					</filter>
					<filter>
						<effect>
							<name>Audio Pan</name>
							<effectid>audiopan</effectid>
							<effectcategory>audiopan</effectcategory>
							<effecttype>audiopan</effecttype>
							<mediatype>audio</mediatype>
							<parameter>
								<name>Pan</name>
								<parameterid>pan</parameterid>
								<valuemin>-1</valuemin>
								<valuemax>1</valuemax>
								<value>0</value>
							</parameter>
						</effect>
					</filter>
					<sourcetrack>
						<mediatype>audio</mediatype>
						<trackindex>2</trackindex>
					</sourcetrack>
					<link>
						<linkclipref>AA1435_01 21</linkclipref>
						<mediatype>video</mediatype>
						<trackindex>1</trackindex>
						<clipindex>123</clipindex>
					</link>
					<link>
						<linkclipref>AA1435_01 22</linkclipref>
						<mediatype>audio</mediatype>
						<trackindex>1</trackindex>
						<clipindex>75</clipindex>
					</link>
					<link>
						<linkclipref>AA1435_01 23</linkclipref>
						<mediatype>audio</mediatype>
						<trackindex>2</trackindex>
						<clipindex>70</clipindex>
					</link>
					<itemhistory>
						<uuid>7139635F-1CEE-47E2-9F92-7AC163115415</uuid>
					</itemhistory>
				</clipitem>
				<clipitem id="AA1438_01 4">
					<name>AA1438_01</name>
					<duration>780</duration>
					<rate>
						<ntsc>FALSE</ntsc>
						<timebase>25</timebase>
					</rate>
					<in>169</in>
					<out>267</out>
					<start>13835</start>
					<end>13933</end>
					<subframeoffset>0</subframeoffset>
					<masterclipid>AA1438_01 1</masterclipid>
					<logginginfo>
						<scene/>
						<shottake/>
						<lognote/>
						<good>FALSE</good>
					</logginginfo>
					<labels>
						<label2/>
					</labels>
					<comments>
						<mastercomment1/>
						<mastercomment2/>
						<mastercomment3/>
						<mastercomment4/>
					</comments>
					<file id="AA1438_01 2"/>
					<filter>
						<effect>
							<name>Audio Levels</name>
							<effectid>audiolevels</effectid>
							<effectcategory>audiolevels</effectcategory>
							<effecttype>audiolevels</effecttype>
							<mediatype>audio</mediatype>
							<parameter>
								<name>Level</name>
								<parameterid>level</parameterid>
								<valuemin>0</valuemin>
								<valuemax>3.98109</valuemax>
								<value>1</value>
							</parameter>
						</effect>
					</filter>
					<filter>
						<effect>
							<name>Audio Pan</name>
							<effectid>audiopan</effectid>
							<effectcategory>audiopan</effectcategory>
							<effecttype>audiopan</effecttype>
							<mediatype>audio</mediatype>
							<parameter>
								<name>Pan</name>
								<parameterid>pan</parameterid>
								<valuemin>-1</valuemin>
								<valuemax>1</valuemax>
								<value>0</value>
							</parameter>
						</effect>
					</filter>
					<sourcetrack>
						<mediatype>audio</mediatype>
						<trackindex>2</trackindex>
					</sourcetrack>
					<link>
						<linkclipref>AA1438_01 </linkclipref>
						<mediatype>video</mediatype>
						<trackindex>1</trackindex>
						<clipindex>128</clipindex>
					</link>
					<link>
						<linkclipref>AA1438_01 3</linkclipref>
						<mediatype>audio</mediatype>
						<trackindex>1</trackindex>
						<clipindex>76</clipindex>
					</link>
					<link>
						<linkclipref>AA1438_01 4</linkclipref>
						<mediatype>audio</mediatype>
						<trackindex>2</trackindex>
						<clipindex>71</clipindex>
					</link>
					<itemhistory>
						<uuid>2A553517-8D74-4E46-A0C9-0FA07ED7B24D</uuid>
					</itemhistory>
				</clipitem>
				<clipitem id="AA1435_01 29">
					<name>AA1435_01</name>
					<duration>3048</duration>
					<rate>
						<ntsc>FALSE</ntsc>
						<timebase>25</timebase>
					</rate>
					<in>2457</in>
					<out>2470</out>
					<start>13933</start>
					<end>13946</end>
					<subframeoffset>0</subframeoffset>
					<masterclipid>AA1435_01 1</masterclipid>
					<logginginfo>
						<scene/>
						<shottake/>
						<lognote/>
						<good>FALSE</good>
					</logginginfo>
					<labels>
						<label2/>
					</labels>
					<comments>
						<mastercomment1/>
						<mastercomment2/>
						<mastercomment3/>
						<mastercomment4/>
					</comments>
					<file id="AA1435_01 2"/>
					<filter>
						<effect>
							<name>Audio Levels</name>
							<effectid>audiolevels</effectid>
							<effectcategory>audiolevels</effectcategory>
							<effecttype>audiolevels</effecttype>
							<mediatype>audio</mediatype>
							<parameter>
								<name>Level</name>
								<parameterid>level</parameterid>
								<valuemin>0</valuemin>
								<valuemax>3.98109</valuemax>
								<value>1</value>
							</parameter>
						</effect>
					</filter>
					<filter>
						<effect>
							<name>Audio Pan</name>
							<effectid>audiopan</effectid>
							<effectcategory>audiopan</effectcategory>
							<effecttype>audiopan</effecttype>
							<mediatype>audio</mediatype>
							<parameter>
								<name>Pan</name>
								<parameterid>pan</parameterid>
								<valuemin>-1</valuemin>
								<valuemax>1</valuemax>
								<value>0</value>
							</parameter>
						</effect>
					</filter>
					<sourcetrack>
						<mediatype>audio</mediatype>
						<trackindex>2</trackindex>
					</sourcetrack>
					<itemhistory>
						<uuid>03852A76-F1FA-43D7-8DB5-6392F38A730F</uuid>
					</itemhistory>
				</clipitem>
				<clipitem id="AA1439_01 4">
					<name>AA1439_01</name>
					<duration>1080</duration>
					<rate>
						<ntsc>FALSE</ntsc>
						<timebase>25</timebase>
					</rate>
					<in>533</in>
					<out>954</out>
					<start>13946</start>
					<end>14367</end>
					<subframeoffset>0</subframeoffset>
					<masterclipid>AA1439_01 1</masterclipid>
					<logginginfo>
						<scene/>
						<shottake/>
						<lognote/>
						<good>FALSE</good>
					</logginginfo>
					<labels>
						<label2/>
					</labels>
					<comments>
						<mastercomment1/>
						<mastercomment2/>
						<mastercomment3/>
						<mastercomment4/>
					</comments>
					<file id="AA1439_01 2"/>
					<filter>
						<effect>
							<name>Audio Levels</name>
							<effectid>audiolevels</effectid>
							<effectcategory>audiolevels</effectcategory>
							<effecttype>audiolevels</effecttype>
							<mediatype>audio</mediatype>
							<parameter>
								<name>Level</name>
								<parameterid>level</parameterid>
								<valuemin>0</valuemin>
								<valuemax>3.98109</valuemax>
								<value>1</value>
							</parameter>
						</effect>
					</filter>
					<filter>
						<effect>
							<name>Audio Pan</name>
							<effectid>audiopan</effectid>
							<effectcategory>audiopan</effectcategory>
							<effecttype>audiopan</effecttype>
							<mediatype>audio</mediatype>
							<parameter>
								<name>Pan</name>
								<parameterid>pan</parameterid>
								<valuemin>-1</valuemin>
								<valuemax>1</valuemax>
								<value>0</value>
							</parameter>
						</effect>
					</filter>
					<sourcetrack>
						<mediatype>audio</mediatype>
						<trackindex>2</trackindex>
					</sourcetrack>
					<link>
						<linkclipref>AA1439_01 </linkclipref>
						<mediatype>video</mediatype>
						<trackindex>1</trackindex>
						<clipindex>129</clipindex>
					</link>
					<link>
						<linkclipref>AA1439_01 3</linkclipref>
						<mediatype>audio</mediatype>
						<trackindex>1</trackindex>
						<clipindex>78</clipindex>
					</link>
					<link>
						<linkclipref>AA1439_01 4</linkclipref>
						<mediatype>audio</mediatype>
						<trackindex>2</trackindex>
						<clipindex>73</clipindex>
					</link>
					<itemhistory>
						<uuid>BAD59792-B690-44D3-AD23-F8A2A8D257B0</uuid>
					</itemhistory>
				</clipitem>
				<clipitem id="Tords Garasje Vignett Bare Effektlyder.wav2">
					<name>Tords Garasje Vignett Bare Effektlyder.wav</name>
					<duration>304</duration>
					<rate>
						<ntsc>FALSE</ntsc>
						<timebase>25</timebase>
					</rate>
					<in>0</in>
					<out>164</out>
					<start>14367</start>
					<end>14531</end>
					<subframeoffset>0</subframeoffset>
					<enabled>TRUE</enabled>
					<masterclipid>Tords Garasje Vignett Bare Effektlyder.wav1</masterclipid>
					<logginginfo>
						<scene/>
						<shottake/>
						<lognote/>
						<good>FALSE</good>
					</logginginfo>
					<labels>
						<label2/>
					</labels>
					<comments>
						<mastercomment1/>
						<mastercomment2/>
						<mastercomment3/>
						<mastercomment4/>
					</comments>
					<file id="Tords Garasje Vignett Bare Effektlyder"/>
					<filter>
						<effect>
							<name>Audio Levels</name>
							<effectid>audiolevels</effectid>
							<effectcategory>audiolevels</effectcategory>
							<effecttype>audiolevels</effecttype>
							<mediatype>audio</mediatype>
							<parameter>
								<name>Level</name>
								<parameterid>level</parameterid>
								<valuemin>0</valuemin>
								<valuemax>3.98109</valuemax>
								<value>1</value>
							</parameter>
						</effect>
					</filter>
					<filter>
						<effect>
							<name>Audio Pan</name>
							<effectid>audiopan</effectid>
							<effectcategory>audiopan</effectcategory>
							<effecttype>audiopan</effecttype>
							<mediatype>audio</mediatype>
							<parameter>
								<name>Pan</name>
								<parameterid>pan</parameterid>
								<valuemin>-1</valuemin>
								<valuemax>1</valuemax>
								<value>1</value>
							</parameter>
						</effect>
					</filter>
					<sourcetrack>
						<mediatype>audio</mediatype>
						<trackindex>2</trackindex>
					</sourcetrack>
					<link>
						<linkclipref>Tords Garasje Vignett Bare Effektlyder.wav</linkclipref>
						<mediatype>audio</mediatype>
						<trackindex>1</trackindex>
						<clipindex>79</clipindex>
						<groupindex>1</groupindex>
					</link>
					<link>
						<linkclipref>Tords Garasje Vignett Bare Effektlyder.wav2</linkclipref>
						<mediatype>audio</mediatype>
						<trackindex>2</trackindex>
						<clipindex>74</clipindex>
						<groupindex>1</groupindex>
					</link>
					<itemhistory>
						<uuid>DF7F1F32-88B1-4316-88B7-6A035D784CE0</uuid>
					</itemhistory>
				</clipitem>
				<clipitem id="DYR19725_01 4">
					<name>DYR19725_01</name>
					<duration>2183</duration>
					<rate>
						<ntsc>FALSE</ntsc>
						<timebase>25</timebase>
					</rate>
					<in>1045</in>
					<out>1266</out>
					<start>14582</start>
					<end>14803</end>
					<masterclipid>DYR19725_01 1</masterclipid>
					<logginginfo>
						<scene/>
						<shottake/>
						<lognote/>
						<good>FALSE</good>
					</logginginfo>
					<labels>
						<label2/>
					</labels>
					<comments>
						<mastercomment1/>
						<mastercomment2/>
						<mastercomment3/>
						<mastercomment4/>
					</comments>
					<file id="DYR19725_01 2"/>
					<filter>
						<effect>
							<name>Audio Levels</name>
							<effectid>audiolevels</effectid>
							<effectcategory>audiolevels</effectcategory>
							<effecttype>audiolevels</effecttype>
							<mediatype>audio</mediatype>
							<parameter>
								<name>Level</name>
								<parameterid>level</parameterid>
								<valuemin>0</valuemin>
								<valuemax>3.98109</valuemax>
								<value>1</value>
							</parameter>
						</effect>
					</filter>
					<filter>
						<effect>
							<name>Audio Pan</name>
							<effectid>audiopan</effectid>
							<effectcategory>audiopan</effectcategory>
							<effecttype>audiopan</effecttype>
							<mediatype>audio</mediatype>
							<parameter>
								<name>Pan</name>
								<parameterid>pan</parameterid>
								<valuemin>-1</valuemin>
								<valuemax>1</valuemax>
								<value>0</value>
							</parameter>
						</effect>
					</filter>
					<sourcetrack>
						<mediatype>audio</mediatype>
						<trackindex>2</trackindex>
					</sourcetrack>
					<link>
						<linkclipref>DYR19725_01 </linkclipref>
						<mediatype>video</mediatype>
						<trackindex>1</trackindex>
						<clipindex>133</clipindex>
					</link>
					<link>
						<linkclipref>DYR19725_01 3</linkclipref>
						<mediatype>audio</mediatype>
						<trackindex>1</trackindex>
						<clipindex>80</clipindex>
					</link>
					<link>
						<linkclipref>DYR19725_01 4</linkclipref>
						<mediatype>audio</mediatype>
						<trackindex>2</trackindex>
						<clipindex>75</clipindex>
					</link>
					<itemhistory>
						<uuid>F2A406F5-7601-49B3-A950-805E4CFB79F0</uuid>
					</itemhistory>
				</clipitem>
				<clipitem id="DYR19728_01 4">
					<name>DYR19728_01</name>
					<duration>2140</duration>
					<rate>
						<ntsc>FALSE</ntsc>
						<timebase>25</timebase>
					</rate>
					<in>292</in>
					<out>430</out>
					<start>14803</start>
					<end>14941</end>
					<masterclipid>DYR19728_01 1</masterclipid>
					<logginginfo>
						<scene/>
						<shottake/>
						<lognote/>
						<good>FALSE</good>
					</logginginfo>
					<labels>
						<label2/>
					</labels>
					<comments>
						<mastercomment1/>
						<mastercomment2/>
						<mastercomment3/>
						<mastercomment4/>
					</comments>
					<file id="DYR19728_01 2"/>
					<filter>
						<effect>
							<name>Audio Levels</name>
							<effectid>audiolevels</effectid>
							<effectcategory>audiolevels</effectcategory>
							<effecttype>audiolevels</effecttype>
							<mediatype>audio</mediatype>
							<parameter>
								<name>Level</name>
								<parameterid>level</parameterid>
								<valuemin>0</valuemin>
								<valuemax>3.98109</valuemax>
								<value>1</value>
							</parameter>
						</effect>
					</filter>
					<filter>
						<effect>
							<name>Audio Pan</name>
							<effectid>audiopan</effectid>
							<effectcategory>audiopan</effectcategory>
							<effecttype>audiopan</effecttype>
							<mediatype>audio</mediatype>
							<parameter>
								<name>Pan</name>
								<parameterid>pan</parameterid>
								<valuemin>-1</valuemin>
								<valuemax>1</valuemax>
								<value>0</value>
							</parameter>
						</effect>
					</filter>
					<sourcetrack>
						<mediatype>audio</mediatype>
						<trackindex>2</trackindex>
					</sourcetrack>
					<link>
						<linkclipref>DYR19728_01 </linkclipref>
						<mediatype>video</mediatype>
						<trackindex>1</trackindex>
						<clipindex>134</clipindex>
					</link>
					<link>
						<linkclipref>DYR19728_01 3</linkclipref>
						<mediatype>audio</mediatype>
						<trackindex>1</trackindex>
						<clipindex>81</clipindex>
					</link>
					<link>
						<linkclipref>DYR19728_01 4</linkclipref>
						<mediatype>audio</mediatype>
						<trackindex>2</trackindex>
						<clipindex>76</clipindex>
					</link>
					<itemhistory>
						<uuid>0855599F-A543-4827-A896-BDE4D6C85CFB</uuid>
					</itemhistory>
				</clipitem>
				<clipitem id="MVI_6470 4">
					<name>MVI_6470</name>
					<duration>534</duration>
					<rate>
						<ntsc>FALSE</ntsc>
						<timebase>25</timebase>
					</rate>
					<in>215</in>
					<out>285</out>
					<start>14941</start>
					<end>15011</end>
					<masterclipid>MVI_6470 1</masterclipid>
					<logginginfo>
						<scene/>
						<shottake/>
						<lognote/>
						<good>FALSE</good>
					</logginginfo>
					<labels>
						<label2/>
					</labels>
					<comments>
						<mastercomment1/>
						<mastercomment2/>
						<mastercomment3/>
						<mastercomment4/>
					</comments>
					<file id="MVI_6470 2"/>
					<filter>
						<effect>
							<name>Audio Levels</name>
							<effectid>audiolevels</effectid>
							<effectcategory>audiolevels</effectcategory>
							<effecttype>audiolevels</effecttype>
							<mediatype>audio</mediatype>
							<parameter>
								<name>Level</name>
								<parameterid>level</parameterid>
								<valuemin>0</valuemin>
								<valuemax>3.98109</valuemax>
								<value>0</value>
							</parameter>
						</effect>
					</filter>
					<filter>
						<effect>
							<name>Audio Pan</name>
							<effectid>audiopan</effectid>
							<effectcategory>audiopan</effectcategory>
							<effecttype>audiopan</effecttype>
							<mediatype>audio</mediatype>
							<parameter>
								<name>Pan</name>
								<parameterid>pan</parameterid>
								<valuemin>-1</valuemin>
								<valuemax>1</valuemax>
								<value>1</value>
							</parameter>
						</effect>
					</filter>
					<sourcetrack>
						<mediatype>audio</mediatype>
						<trackindex>2</trackindex>
					</sourcetrack>
					<link>
						<linkclipref>MVI_6470 </linkclipref>
						<mediatype>video</mediatype>
						<trackindex>1</trackindex>
						<clipindex>136</clipindex>
					</link>
					<link>
						<linkclipref>MVI_6470 3</linkclipref>
						<mediatype>audio</mediatype>
						<trackindex>1</trackindex>
						<clipindex>82</clipindex>
						<groupindex>1</groupindex>
					</link>
					<link>
						<linkclipref>MVI_6470 4</linkclipref>
						<mediatype>audio</mediatype>
						<trackindex>2</trackindex>
						<clipindex>77</clipindex>
						<groupindex>1</groupindex>
					</link>
					<itemhistory>
						<uuid>51906B41-52E8-43FF-B0CB-51F9543454F3</uuid>
					</itemhistory>
				</clipitem>
				<clipitem id="MVI_6473 4">
					<name>MVI_6473</name>
					<duration>903</duration>
					<rate>
						<ntsc>FALSE</ntsc>
						<timebase>25</timebase>
					</rate>
					<in>293</in>
					<out>358</out>
					<start>15011</start>
					<end>15076</end>
					<masterclipid>MVI_6473 1</masterclipid>
					<logginginfo>
						<scene/>
						<shottake/>
						<lognote/>
						<good>FALSE</good>
					</logginginfo>
					<labels>
						<label2/>
					</labels>
					<comments>
						<mastercomment1/>
						<mastercomment2/>
						<mastercomment3/>
						<mastercomment4/>
					</comments>
					<file id="MVI_6473 2"/>
					<filter>
						<effect>
							<name>Audio Levels</name>
							<effectid>audiolevels</effectid>
							<effectcategory>audiolevels</effectcategory>
							<effecttype>audiolevels</effecttype>
							<mediatype>audio</mediatype>
							<parameter>
								<name>Level</name>
								<parameterid>level</parameterid>
								<valuemin>0</valuemin>
								<valuemax>3.98109</valuemax>
								<value>0</value>
							</parameter>
						</effect>
					</filter>
					<filter>
						<effect>
							<name>Audio Pan</name>
							<effectid>audiopan</effectid>
							<effectcategory>audiopan</effectcategory>
							<effecttype>audiopan</effecttype>
							<mediatype>audio</mediatype>
							<parameter>
								<name>Pan</name>
								<parameterid>pan</parameterid>
								<valuemin>-1</valuemin>
								<valuemax>1</valuemax>
								<value>1</value>
							</parameter>
						</effect>
					</filter>
					<sourcetrack>
						<mediatype>audio</mediatype>
						<trackindex>2</trackindex>
					</sourcetrack>
					<link>
						<linkclipref>MVI_6473 </linkclipref>
						<mediatype>video</mediatype>
						<trackindex>1</trackindex>
						<clipindex>138</clipindex>
					</link>
					<link>
						<linkclipref>MVI_6473 3</linkclipref>
						<mediatype>audio</mediatype>
						<trackindex>1</trackindex>
						<clipindex>83</clipindex>
						<groupindex>1</groupindex>
					</link>
					<link>
						<linkclipref>MVI_6473 4</linkclipref>
						<mediatype>audio</mediatype>
						<trackindex>2</trackindex>
						<clipindex>78</clipindex>
						<groupindex>1</groupindex>
					</link>
					<itemhistory>
						<uuid>F149BE4F-2E1C-4E9E-B064-D860E3A4CED2</uuid>
					</itemhistory>
				</clipitem>
				<clipitem id="MVI_6481 4">
					<name>MVI_6481</name>
					<duration>483</duration>
					<rate>
						<ntsc>FALSE</ntsc>
						<timebase>25</timebase>
					</rate>
					<in>305</in>
					<out>397</out>
					<start>15076</start>
					<end>15168</end>
					<masterclipid>MVI_6481 1</masterclipid>
					<logginginfo>
						<scene/>
						<shottake/>
						<lognote/>
						<good>FALSE</good>
					</logginginfo>
					<labels>
						<label2/>
					</labels>
					<comments>
						<mastercomment1/>
						<mastercomment2/>
						<mastercomment3/>
						<mastercomment4/>
					</comments>
					<file id="MVI_6481 2"/>
					<filter>
						<effect>
							<name>Audio Levels</name>
							<effectid>audiolevels</effectid>
							<effectcategory>audiolevels</effectcategory>
							<effecttype>audiolevels</effecttype>
							<mediatype>audio</mediatype>
							<parameter>
								<name>Level</name>
								<parameterid>level</parameterid>
								<valuemin>0</valuemin>
								<valuemax>3.98109</valuemax>
								<value>0</value>
							</parameter>
						</effect>
					</filter>
					<filter>
						<effect>
							<name>Audio Pan</name>
							<effectid>audiopan</effectid>
							<effectcategory>audiopan</effectcategory>
							<effecttype>audiopan</effecttype>
							<mediatype>audio</mediatype>
							<parameter>
								<name>Pan</name>
								<parameterid>pan</parameterid>
								<valuemin>-1</valuemin>
								<valuemax>1</valuemax>
								<value>1</value>
							</parameter>
						</effect>
					</filter>
					<sourcetrack>
						<mediatype>audio</mediatype>
						<trackindex>2</trackindex>
					</sourcetrack>
					<link>
						<linkclipref>MVI_6481 </linkclipref>
						<mediatype>video</mediatype>
						<trackindex>1</trackindex>
						<clipindex>140</clipindex>
					</link>
					<link>
						<linkclipref>MVI_6481 3</linkclipref>
						<mediatype>audio</mediatype>
						<trackindex>1</trackindex>
						<clipindex>84</clipindex>
						<groupindex>1</groupindex>
					</link>
					<link>
						<linkclipref>MVI_6481 4</linkclipref>
						<mediatype>audio</mediatype>
						<trackindex>2</trackindex>
						<clipindex>79</clipindex>
						<groupindex>1</groupindex>
					</link>
					<itemhistory>
						<uuid>6D0EC03E-E049-40F9-8495-5C0D32079AF7</uuid>
					</itemhistory>
				</clipitem>
				<clipitem id="DYR19738_01 9">
					<name>DYR19738_01</name>
					<duration>946</duration>
					<rate>
						<ntsc>FALSE</ntsc>
						<timebase>25</timebase>
					</rate>
					<in>303</in>
					<out>357</out>
					<start>15168</start>
					<end>15222</end>
					<subframeoffset>0</subframeoffset>
					<masterclipid>DYR19738_01 1</masterclipid>
					<logginginfo>
						<scene/>
						<shottake/>
						<lognote/>
						<good>FALSE</good>
					</logginginfo>
					<labels>
						<label2/>
					</labels>
					<comments>
						<mastercomment1/>
						<mastercomment2/>
						<mastercomment3/>
						<mastercomment4/>
					</comments>
					<file id="DYR19738_01 2"/>
					<filter>
						<effect>
							<name>Audio Levels</name>
							<effectid>audiolevels</effectid>
							<effectcategory>audiolevels</effectcategory>
							<effecttype>audiolevels</effecttype>
							<mediatype>audio</mediatype>
							<parameter>
								<name>Level</name>
								<parameterid>level</parameterid>
								<valuemin>0</valuemin>
								<valuemax>3.98109</valuemax>
								<value>1</value>
							</parameter>
						</effect>
					</filter>
					<filter>
						<effect>
							<name>Audio Pan</name>
							<effectid>audiopan</effectid>
							<effectcategory>audiopan</effectcategory>
							<effecttype>audiopan</effecttype>
							<mediatype>audio</mediatype>
							<parameter>
								<name>Pan</name>
								<parameterid>pan</parameterid>
								<valuemin>-1</valuemin>
								<valuemax>1</valuemax>
								<value>0</value>
							</parameter>
						</effect>
					</filter>
					<sourcetrack>
						<mediatype>audio</mediatype>
						<trackindex>2</trackindex>
					</sourcetrack>
					<itemhistory>
						<uuid>BC0A8961-5B24-4971-A5F8-7387882EA715</uuid>
					</itemhistory>
				</clipitem>
				<clipitem id="DYR19738_01 4">
					<name>DYR19738_01</name>
					<duration>946</duration>
					<rate>
						<ntsc>FALSE</ntsc>
						<timebase>25</timebase>
					</rate>
					<in>370</in>
					<out>564</out>
					<start>15222</start>
					<end>15416</end>
					<subframeoffset>0</subframeoffset>
					<masterclipid>DYR19738_01 1</masterclipid>
					<logginginfo>
						<scene/>
						<shottake/>
						<lognote/>
						<good>FALSE</good>
					</logginginfo>
					<labels>
						<label2/>
					</labels>
					<comments>
						<mastercomment1/>
						<mastercomment2/>
						<mastercomment3/>
						<mastercomment4/>
					</comments>
					<file id="DYR19738_01 2"/>
					<filter>
						<effect>
							<name>Audio Levels</name>
							<effectid>audiolevels</effectid>
							<effectcategory>audiolevels</effectcategory>
							<effecttype>audiolevels</effecttype>
							<mediatype>audio</mediatype>
							<parameter>
								<name>Level</name>
								<parameterid>level</parameterid>
								<valuemin>0</valuemin>
								<valuemax>3.98109</valuemax>
								<value>1</value>
							</parameter>
						</effect>
					</filter>
					<filter>
						<effect>
							<name>Audio Pan</name>
							<effectid>audiopan</effectid>
							<effectcategory>audiopan</effectcategory>
							<effecttype>audiopan</effecttype>
							<mediatype>audio</mediatype>
							<parameter>
								<name>Pan</name>
								<parameterid>pan</parameterid>
								<valuemin>-1</valuemin>
								<valuemax>1</valuemax>
								<value>0</value>
							</parameter>
						</effect>
					</filter>
					<sourcetrack>
						<mediatype>audio</mediatype>
						<trackindex>2</trackindex>
					</sourcetrack>
					<link>
						<linkclipref>DYR19738_01 </linkclipref>
						<mediatype>video</mediatype>
						<trackindex>1</trackindex>
						<clipindex>143</clipindex>
					</link>
					<link>
						<linkclipref>DYR19738_01 3</linkclipref>
						<mediatype>audio</mediatype>
						<trackindex>1</trackindex>
						<clipindex>86</clipindex>
					</link>
					<link>
						<linkclipref>DYR19738_01 4</linkclipref>
						<mediatype>audio</mediatype>
						<trackindex>2</trackindex>
						<clipindex>81</clipindex>
					</link>
					<itemhistory>
						<uuid>94CC35B2-EABB-40B8-A882-12055C167F84</uuid>
					</itemhistory>
				</clipitem>
				<clipitem id="DYR19738_01 7">
					<name>DYR19738_01</name>
					<duration>946</duration>
					<rate>
						<ntsc>FALSE</ntsc>
						<timebase>25</timebase>
					</rate>
					<in>583</in>
					<out>710</out>
					<start>15416</start>
					<end>15543</end>
					<subframeoffset>0</subframeoffset>
					<masterclipid>DYR19738_01 1</masterclipid>
					<logginginfo>
						<scene/>
						<shottake/>
						<lognote/>
						<good>FALSE</good>
					</logginginfo>
					<labels>
						<label2/>
					</labels>
					<comments>
						<mastercomment1/>
						<mastercomment2/>
						<mastercomment3/>
						<mastercomment4/>
					</comments>
					<file id="DYR19738_01 2"/>
					<filter>
						<effect>
							<name>Audio Levels</name>
							<effectid>audiolevels</effectid>
							<effectcategory>audiolevels</effectcategory>
							<effecttype>audiolevels</effecttype>
							<mediatype>audio</mediatype>
							<parameter>
								<name>Level</name>
								<parameterid>level</parameterid>
								<valuemin>0</valuemin>
								<valuemax>3.98109</valuemax>
								<value>1</value>
							</parameter>
						</effect>
					</filter>
					<filter>
						<effect>
							<name>Audio Pan</name>
							<effectid>audiopan</effectid>
							<effectcategory>audiopan</effectcategory>
							<effecttype>audiopan</effecttype>
							<mediatype>audio</mediatype>
							<parameter>
								<name>Pan</name>
								<parameterid>pan</parameterid>
								<valuemin>-1</valuemin>
								<valuemax>1</valuemax>
								<value>0</value>
							</parameter>
						</effect>
					</filter>
					<sourcetrack>
						<mediatype>audio</mediatype>
						<trackindex>2</trackindex>
					</sourcetrack>
					<link>
						<linkclipref>DYR19738_01 5</linkclipref>
						<mediatype>video</mediatype>
						<trackindex>1</trackindex>
						<clipindex>144</clipindex>
					</link>
					<link>
						<linkclipref>DYR19738_01 6</linkclipref>
						<mediatype>audio</mediatype>
						<trackindex>1</trackindex>
						<clipindex>87</clipindex>
					</link>
					<link>
						<linkclipref>DYR19738_01 7</linkclipref>
						<mediatype>audio</mediatype>
						<trackindex>2</trackindex>
						<clipindex>82</clipindex>
					</link>
					<itemhistory>
						<uuid>5BB83940-721B-4A2B-AF7B-36AAF741B958</uuid>
					</itemhistory>
				</clipitem>
				<clipitem id="DYR19725_01 7">
					<name>DYR19725_01</name>
					<duration>2183</duration>
					<rate>
						<ntsc>FALSE</ntsc>
						<timebase>25</timebase>
					</rate>
					<in>1928</in>
					<out>2041</out>
					<start>15543</start>
					<end>15656</end>
					<masterclipid>DYR19725_01 1</masterclipid>
					<logginginfo>
						<scene/>
						<shottake/>
						<lognote/>
						<good>FALSE</good>
					</logginginfo>
					<labels>
						<label2/>
					</labels>
					<comments>
						<mastercomment1/>
						<mastercomment2/>
						<mastercomment3/>
						<mastercomment4/>
					</comments>
					<file id="DYR19725_01 2"/>
					<filter>
						<effect>
							<name>Audio Levels</name>
							<effectid>audiolevels</effectid>
							<effectcategory>audiolevels</effectcategory>
							<effecttype>audiolevels</effecttype>
							<mediatype>audio</mediatype>
							<parameter>
								<name>Level</name>
								<parameterid>level</parameterid>
								<valuemin>0</valuemin>
								<valuemax>3.98109</valuemax>
								<value>1</value>
							</parameter>
						</effect>
					</filter>
					<filter>
						<effect>
							<name>Audio Pan</name>
							<effectid>audiopan</effectid>
							<effectcategory>audiopan</effectcategory>
							<effecttype>audiopan</effecttype>
							<mediatype>audio</mediatype>
							<parameter>
								<name>Pan</name>
								<parameterid>pan</parameterid>
								<valuemin>-1</valuemin>
								<valuemax>1</valuemax>
								<value>0</value>
							</parameter>
						</effect>
					</filter>
					<sourcetrack>
						<mediatype>audio</mediatype>
						<trackindex>2</trackindex>
					</sourcetrack>
					<link>
						<linkclipref>DYR19725_01 5</linkclipref>
						<mediatype>video</mediatype>
						<trackindex>1</trackindex>
						<clipindex>147</clipindex>
					</link>
					<link>
						<linkclipref>DYR19725_01 6</linkclipref>
						<mediatype>audio</mediatype>
						<trackindex>1</trackindex>
						<clipindex>88</clipindex>
					</link>
					<link>
						<linkclipref>DYR19725_01 7</linkclipref>
						<mediatype>audio</mediatype>
						<trackindex>2</trackindex>
						<clipindex>83</clipindex>
					</link>
					<itemhistory>
						<uuid>653E48C1-2EA9-4465-8485-BA26E998ABA7</uuid>
					</itemhistory>
				</clipitem>
				<clipitem id="DYR19729_01 7">
					<name>DYR19729_01</name>
					<duration>589</duration>
					<rate>
						<ntsc>FALSE</ntsc>
						<timebase>25</timebase>
					</rate>
					<in>329</in>
					<out>414</out>
					<start>15741</start>
					<end>15826</end>
					<masterclipid>DYR19729_01 1</masterclipid>
					<logginginfo>
						<scene/>
						<shottake/>
						<lognote/>
						<good>FALSE</good>
					</logginginfo>
					<labels>
						<label2/>
					</labels>
					<comments>
						<mastercomment1/>
						<mastercomment2/>
						<mastercomment3/>
						<mastercomment4/>
					</comments>
					<file id="DYR19729_01 2"/>
					<filter>
						<effect>
							<name>Audio Levels</name>
							<effectid>audiolevels</effectid>
							<effectcategory>audiolevels</effectcategory>
							<effecttype>audiolevels</effecttype>
							<mediatype>audio</mediatype>
							<parameter>
								<name>Level</name>
								<parameterid>level</parameterid>
								<valuemin>0</valuemin>
								<valuemax>3.98109</valuemax>
								<value>1</value>
							</parameter>
						</effect>
					</filter>
					<filter>
						<effect>
							<name>Audio Pan</name>
							<effectid>audiopan</effectid>
							<effectcategory>audiopan</effectcategory>
							<effecttype>audiopan</effecttype>
							<mediatype>audio</mediatype>
							<parameter>
								<name>Pan</name>
								<parameterid>pan</parameterid>
								<valuemin>-1</valuemin>
								<valuemax>1</valuemax>
								<value>0</value>
							</parameter>
						</effect>
					</filter>
					<sourcetrack>
						<mediatype>audio</mediatype>
						<trackindex>2</trackindex>
					</sourcetrack>
					<link>
						<linkclipref>DYR19729_01 5</linkclipref>
						<mediatype>video</mediatype>
						<trackindex>1</trackindex>
						<clipindex>150</clipindex>
					</link>
					<link>
						<linkclipref>DYR19729_01 6</linkclipref>
						<mediatype>audio</mediatype>
						<trackindex>1</trackindex>
						<clipindex>89</clipindex>
					</link>
					<link>
						<linkclipref>DYR19729_01 7</linkclipref>
						<mediatype>audio</mediatype>
						<trackindex>2</trackindex>
						<clipindex>84</clipindex>
					</link>
					<itemhistory>
						<uuid>D2087A3D-20B0-4D45-81B1-DA1FA68738D9</uuid>
					</itemhistory>
				</clipitem>
				<clipitem id="DYR19730_01 4">
					<name>DYR19730_01</name>
					<duration>2083</duration>
					<rate>
						<ntsc>FALSE</ntsc>
						<timebase>25</timebase>
					</rate>
					<in>1099</in>
					<out>1197</out>
					<start>15826</start>
					<end>15924</end>
					<masterclipid>DYR19730_01 1</masterclipid>
					<logginginfo>
						<scene/>
						<shottake/>
						<lognote/>
						<good>FALSE</good>
					</logginginfo>
					<labels>
						<label2/>
					</labels>
					<comments>
						<mastercomment1/>
						<mastercomment2/>
						<mastercomment3/>
						<mastercomment4/>
					</comments>
					<file id="DYR19730_01 2"/>
					<filter>
						<effect>
							<name>Audio Levels</name>
							<effectid>audiolevels</effectid>
							<effectcategory>audiolevels</effectcategory>
							<effecttype>audiolevels</effecttype>
							<mediatype>audio</mediatype>
							<parameter>
								<name>Level</name>
								<parameterid>level</parameterid>
								<valuemin>0</valuemin>
								<valuemax>3.98109</valuemax>
								<value>1</value>
							</parameter>
						</effect>
					</filter>
					<filter>
						<effect>
							<name>Audio Pan</name>
							<effectid>audiopan</effectid>
							<effectcategory>audiopan</effectcategory>
							<effecttype>audiopan</effecttype>
							<mediatype>audio</mediatype>
							<parameter>
								<name>Pan</name>
								<parameterid>pan</parameterid>
								<valuemin>-1</valuemin>
								<valuemax>1</valuemax>
								<value>0</value>
							</parameter>
						</effect>
					</filter>
					<sourcetrack>
						<mediatype>audio</mediatype>
						<trackindex>2</trackindex>
					</sourcetrack>
					<itemhistory>
						<uuid>C7C78C04-817F-49BD-B097-A058B7587BD7</uuid>
					</itemhistory>
				</clipitem>
				<clipitem id="DYR19767_01 4">
					<name>DYR19767_01</name>
					<duration>4277</duration>
					<rate>
						<ntsc>FALSE</ntsc>
						<timebase>25</timebase>
					</rate>
					<in>364</in>
					<out>425</out>
					<start>15924</start>
					<end>15985</end>
					<masterclipid>DYR19767_01 1</masterclipid>
					<logginginfo>
						<scene/>
						<shottake/>
						<lognote/>
						<good>FALSE</good>
					</logginginfo>
					<labels>
						<label2/>
					</labels>
					<comments>
						<mastercomment1/>
						<mastercomment2/>
						<mastercomment3/>
						<mastercomment4/>
					</comments>
					<file id="DYR19767_01 2"/>
					<filter>
						<effect>
							<name>Audio Levels</name>
							<effectid>audiolevels</effectid>
							<effectcategory>audiolevels</effectcategory>
							<effecttype>audiolevels</effecttype>
							<mediatype>audio</mediatype>
							<parameter>
								<name>Level</name>
								<parameterid>level</parameterid>
								<valuemin>0</valuemin>
								<valuemax>3.98109</valuemax>
								<value>0</value>
							</parameter>
						</effect>
					</filter>
					<filter>
						<effect>
							<name>Audio Pan</name>
							<effectid>audiopan</effectid>
							<effectcategory>audiopan</effectcategory>
							<effecttype>audiopan</effecttype>
							<mediatype>audio</mediatype>
							<parameter>
								<name>Pan</name>
								<parameterid>pan</parameterid>
								<valuemin>-1</valuemin>
								<valuemax>1</valuemax>
								<value>0</value>
							</parameter>
						</effect>
					</filter>
					<sourcetrack>
						<mediatype>audio</mediatype>
						<trackindex>2</trackindex>
					</sourcetrack>
					<link>
						<linkclipref>DYR19767_01 </linkclipref>
						<mediatype>video</mediatype>
						<trackindex>1</trackindex>
						<clipindex>156</clipindex>
					</link>
					<link>
						<linkclipref>DYR19767_01 3</linkclipref>
						<mediatype>audio</mediatype>
						<trackindex>1</trackindex>
						<clipindex>91</clipindex>
					</link>
					<link>
						<linkclipref>DYR19767_01 4</linkclipref>
						<mediatype>audio</mediatype>
						<trackindex>2</trackindex>
						<clipindex>86</clipindex>
					</link>
					<itemhistory>
						<uuid>1C7F8F14-F1A9-4188-93A9-19DDB63AEB1C</uuid>
					</itemhistory>
				</clipitem>
				<clipitem id="DYR19747_01 4">
					<name>DYR19747_01</name>
					<duration>1271</duration>
					<rate>
						<ntsc>FALSE</ntsc>
						<timebase>25</timebase>
					</rate>
					<in>579</in>
					<out>633</out>
					<start>15985</start>
					<end>16039</end>
					<masterclipid>DYR19747_01 1</masterclipid>
					<logginginfo>
						<scene/>
						<shottake/>
						<lognote/>
						<good>FALSE</good>
					</logginginfo>
					<labels>
						<label2/>
					</labels>
					<comments>
						<mastercomment1/>
						<mastercomment2/>
						<mastercomment3/>
						<mastercomment4/>
					</comments>
					<file id="DYR19747_01 2"/>
					<filter>
						<effect>
							<name>Audio Levels</name>
							<effectid>audiolevels</effectid>
							<effectcategory>audiolevels</effectcategory>
							<effecttype>audiolevels</effecttype>
							<mediatype>audio</mediatype>
							<parameter>
								<name>Level</name>
								<parameterid>level</parameterid>
								<valuemin>0</valuemin>
								<valuemax>3.98109</valuemax>
								<value>0</value>
							</parameter>
						</effect>
					</filter>
					<filter>
						<effect>
							<name>Audio Pan</name>
							<effectid>audiopan</effectid>
							<effectcategory>audiopan</effectcategory>
							<effecttype>audiopan</effecttype>
							<mediatype>audio</mediatype>
							<parameter>
								<name>Pan</name>
								<parameterid>pan</parameterid>
								<valuemin>-1</valuemin>
								<valuemax>1</valuemax>
								<value>0</value>
							</parameter>
						</effect>
					</filter>
					<sourcetrack>
						<mediatype>audio</mediatype>
						<trackindex>2</trackindex>
					</sourcetrack>
					<link>
						<linkclipref>DYR19747_01 </linkclipref>
						<mediatype>video</mediatype>
						<trackindex>1</trackindex>
						<clipindex>157</clipindex>
					</link>
					<link>
						<linkclipref>DYR19747_01 3</linkclipref>
						<mediatype>audio</mediatype>
						<trackindex>1</trackindex>
						<clipindex>92</clipindex>
					</link>
					<link>
						<linkclipref>DYR19747_01 4</linkclipref>
						<mediatype>audio</mediatype>
						<trackindex>2</trackindex>
						<clipindex>87</clipindex>
					</link>
					<itemhistory>
						<uuid>4B31DE68-C2A5-4661-85A5-BF6D07A3E987</uuid>
					</itemhistory>
				</clipitem>
				<clipitem id="DYR19747_01 9">
					<name>DYR19747_01</name>
					<duration>1271</duration>
					<rate>
						<ntsc>FALSE</ntsc>
						<timebase>25</timebase>
					</rate>
					<in>640</in>
					<out>702</out>
					<start>16039</start>
					<end>16101</end>
					<masterclipid>DYR19747_01 1</masterclipid>
					<logginginfo>
						<scene/>
						<shottake/>
						<lognote/>
						<good>FALSE</good>
					</logginginfo>
					<labels>
						<label2/>
					</labels>
					<comments>
						<mastercomment1/>
						<mastercomment2/>
						<mastercomment3/>
						<mastercomment4/>
					</comments>
					<file id="DYR19747_01 2"/>
					<filter>
						<effect>
							<name>Audio Levels</name>
							<effectid>audiolevels</effectid>
							<effectcategory>audiolevels</effectcategory>
							<effecttype>audiolevels</effecttype>
							<mediatype>audio</mediatype>
							<parameter>
								<name>Level</name>
								<parameterid>level</parameterid>
								<valuemin>0</valuemin>
								<valuemax>3.98109</valuemax>
								<value>0</value>
							</parameter>
						</effect>
					</filter>
					<filter>
						<effect>
							<name>Audio Pan</name>
							<effectid>audiopan</effectid>
							<effectcategory>audiopan</effectcategory>
							<effecttype>audiopan</effecttype>
							<mediatype>audio</mediatype>
							<parameter>
								<name>Pan</name>
								<parameterid>pan</parameterid>
								<valuemin>-1</valuemin>
								<valuemax>1</valuemax>
								<value>0</value>
							</parameter>
						</effect>
					</filter>
					<sourcetrack>
						<mediatype>audio</mediatype>
						<trackindex>2</trackindex>
					</sourcetrack>
					<itemhistory>
						<uuid>5C4FB0A0-E068-4675-9AC9-BD77768CAD17</uuid>
					</itemhistory>
				</clipitem>
				<clipitem id="DYR19747_01 10">
					<name>DYR19747_01</name>
					<duration>1271</duration>
					<rate>
						<ntsc>FALSE</ntsc>
						<timebase>25</timebase>
					</rate>
					<in>725</in>
					<out>756</out>
					<start>16101</start>
					<end>16132</end>
					<masterclipid>DYR19747_01 1</masterclipid>
					<logginginfo>
						<scene/>
						<shottake/>
						<lognote/>
						<good>FALSE</good>
					</logginginfo>
					<labels>
						<label2/>
					</labels>
					<comments>
						<mastercomment1/>
						<mastercomment2/>
						<mastercomment3/>
						<mastercomment4/>
					</comments>
					<file id="DYR19747_01 2"/>
					<filter>
						<effect>
							<name>Audio Levels</name>
							<effectid>audiolevels</effectid>
							<effectcategory>audiolevels</effectcategory>
							<effecttype>audiolevels</effecttype>
							<mediatype>audio</mediatype>
							<parameter>
								<name>Level</name>
								<parameterid>level</parameterid>
								<valuemin>0</valuemin>
								<valuemax>3.98109</valuemax>
								<value>0</value>
							</parameter>
						</effect>
					</filter>
					<filter>
						<effect>
							<name>Audio Pan</name>
							<effectid>audiopan</effectid>
							<effectcategory>audiopan</effectcategory>
							<effecttype>audiopan</effecttype>
							<mediatype>audio</mediatype>
							<parameter>
								<name>Pan</name>
								<parameterid>pan</parameterid>
								<valuemin>-1</valuemin>
								<valuemax>1</valuemax>
								<value>0</value>
							</parameter>
						</effect>
					</filter>
					<sourcetrack>
						<mediatype>audio</mediatype>
						<trackindex>2</trackindex>
					</sourcetrack>
					<itemhistory>
						<uuid>E51301E1-0EBC-45A6-A802-3DEB35177290</uuid>
					</itemhistory>
				</clipitem>
				<clipitem id="DYR19747_01 11">
					<name>DYR19747_01</name>
					<duration>1271</duration>
					<rate>
						<ntsc>FALSE</ntsc>
						<timebase>25</timebase>
					</rate>
					<in>700</in>
					<out>726</out>
					<start>16132</start>
					<end>16158</end>
					<masterclipid>DYR19747_01 1</masterclipid>
					<logginginfo>
						<scene/>
						<shottake/>
						<lognote/>
						<good>FALSE</good>
					</logginginfo>
					<labels>
						<label2/>
					</labels>
					<comments>
						<mastercomment1/>
						<mastercomment2/>
						<mastercomment3/>
						<mastercomment4/>
					</comments>
					<file id="DYR19747_01 2"/>
					<filter>
						<effect>
							<name>Audio Levels</name>
							<effectid>audiolevels</effectid>
							<effectcategory>audiolevels</effectcategory>
							<effecttype>audiolevels</effecttype>
							<mediatype>audio</mediatype>
							<parameter>
								<name>Level</name>
								<parameterid>level</parameterid>
								<valuemin>0</valuemin>
								<valuemax>3.98109</valuemax>
								<value>0</value>
							</parameter>
						</effect>
					</filter>
					<filter>
						<effect>
							<name>Audio Pan</name>
							<effectid>audiopan</effectid>
							<effectcategory>audiopan</effectcategory>
							<effecttype>audiopan</effecttype>
							<mediatype>audio</mediatype>
							<parameter>
								<name>Pan</name>
								<parameterid>pan</parameterid>
								<valuemin>-1</valuemin>
								<valuemax>1</valuemax>
								<value>0</value>
							</parameter>
						</effect>
					</filter>
					<sourcetrack>
						<mediatype>audio</mediatype>
						<trackindex>2</trackindex>
					</sourcetrack>
					<itemhistory>
						<uuid>5C2A5D72-3870-4EB9-9F35-57924E9E7617</uuid>
					</itemhistory>
				</clipitem>
				<clipitem id="DYR19747_01 12">
					<name>DYR19747_01</name>
					<duration>1271</duration>
					<rate>
						<ntsc>FALSE</ntsc>
						<timebase>25</timebase>
					</rate>
					<in>759</in>
					<out>931</out>
					<start>16158</start>
					<end>16330</end>
					<masterclipid>DYR19747_01 1</masterclipid>
					<logginginfo>
						<scene/>
						<shottake/>
						<lognote/>
						<good>FALSE</good>
					</logginginfo>
					<labels>
						<label2/>
					</labels>
					<comments>
						<mastercomment1/>
						<mastercomment2/>
						<mastercomment3/>
						<mastercomment4/>
					</comments>
					<file id="DYR19747_01 2"/>
					<filter>
						<effect>
							<name>Audio Levels</name>
							<effectid>audiolevels</effectid>
							<effectcategory>audiolevels</effectcategory>
							<effecttype>audiolevels</effecttype>
							<mediatype>audio</mediatype>
							<parameter>
								<name>Level</name>
								<parameterid>level</parameterid>
								<valuemin>0</valuemin>
								<valuemax>3.98109</valuemax>
								<value>0</value>
							</parameter>
						</effect>
					</filter>
					<filter>
						<effect>
							<name>Audio Pan</name>
							<effectid>audiopan</effectid>
							<effectcategory>audiopan</effectcategory>
							<effecttype>audiopan</effecttype>
							<mediatype>audio</mediatype>
							<parameter>
								<name>Pan</name>
								<parameterid>pan</parameterid>
								<valuemin>-1</valuemin>
								<valuemax>1</valuemax>
								<value>0</value>
							</parameter>
						</effect>
					</filter>
					<sourcetrack>
						<mediatype>audio</mediatype>
						<trackindex>2</trackindex>
					</sourcetrack>
					<itemhistory>
						<uuid>A80E01E9-BD20-4C84-838D-6841987DBB0C</uuid>
					</itemhistory>
				</clipitem>
				<clipitem id="MVI_6502 4">
					<name>MVI_6502</name>
					<duration>825</duration>
					<rate>
						<ntsc>FALSE</ntsc>
						<timebase>25</timebase>
					</rate>
					<in>29</in>
					<out>121</out>
					<start>16416</start>
					<end>16508</end>
					<masterclipid>MVI_6502 1</masterclipid>
					<logginginfo>
						<scene/>
						<shottake/>
						<lognote/>
						<good>FALSE</good>
					</logginginfo>
					<labels>
						<label2/>
					</labels>
					<comments>
						<mastercomment1/>
						<mastercomment2/>
						<mastercomment3/>
						<mastercomment4/>
					</comments>
					<file id="MVI_6502 2"/>
					<filter>
						<effect>
							<name>Audio Levels</name>
							<effectid>audiolevels</effectid>
							<effectcategory>audiolevels</effectcategory>
							<effecttype>audiolevels</effecttype>
							<mediatype>audio</mediatype>
							<parameter>
								<name>Level</name>
								<parameterid>level</parameterid>
								<valuemin>0</valuemin>
								<valuemax>3.98109</valuemax>
								<value>0</value>
							</parameter>
						</effect>
					</filter>
					<filter>
						<effect>
							<name>Audio Pan</name>
							<effectid>audiopan</effectid>
							<effectcategory>audiopan</effectcategory>
							<effecttype>audiopan</effecttype>
							<mediatype>audio</mediatype>
							<parameter>
								<name>Pan</name>
								<parameterid>pan</parameterid>
								<valuemin>-1</valuemin>
								<valuemax>1</valuemax>
								<value>1</value>
							</parameter>
						</effect>
					</filter>
					<sourcetrack>
						<mediatype>audio</mediatype>
						<trackindex>2</trackindex>
					</sourcetrack>
					<link>
						<linkclipref>MVI_6502 </linkclipref>
						<mediatype>video</mediatype>
						<trackindex>1</trackindex>
						<clipindex>162</clipindex>
					</link>
					<link>
						<linkclipref>MVI_6502 3</linkclipref>
						<mediatype>audio</mediatype>
						<trackindex>1</trackindex>
						<clipindex>97</clipindex>
						<groupindex>1</groupindex>
					</link>
					<link>
						<linkclipref>MVI_6502 4</linkclipref>
						<mediatype>audio</mediatype>
						<trackindex>2</trackindex>
						<clipindex>92</clipindex>
						<groupindex>1</groupindex>
					</link>
					<itemhistory>
						<uuid>28787557-8CC3-4BFE-B2D9-AE2BE02B57B6</uuid>
					</itemhistory>
				</clipitem>
				<clipitem id="DYR19797_01 3">
					<name>DYR19797_01</name>
					<duration>524</duration>
					<rate>
						<ntsc>FALSE</ntsc>
						<timebase>25</timebase>
					</rate>
					<in>250</in>
					<out>359</out>
					<start>16508</start>
					<end>-1</end>
					<subframeoffset>0</subframeoffset>
					<masterclipid>DYR19797_01 1</masterclipid>
					<logginginfo>
						<scene/>
						<shottake/>
						<lognote/>
						<good>FALSE</good>
					</logginginfo>
					<labels>
						<label2/>
					</labels>
					<comments>
						<mastercomment1/>
						<mastercomment2/>
						<mastercomment3/>
						<mastercomment4/>
					</comments>
					<file id="DYR19797_01 2"/>
					<filter>
						<effect>
							<name>Audio Levels</name>
							<effectid>audiolevels</effectid>
							<effectcategory>audiolevels</effectcategory>
							<effecttype>audiolevels</effecttype>
							<mediatype>audio</mediatype>
							<parameter>
								<name>Level</name>
								<parameterid>level</parameterid>
								<valuemin>0</valuemin>
								<valuemax>3.98109</valuemax>
								<value>0</value>
							</parameter>
						</effect>
					</filter>
					<filter>
						<effect>
							<name>Audio Pan</name>
							<effectid>audiopan</effectid>
							<effectcategory>audiopan</effectcategory>
							<effecttype>audiopan</effecttype>
							<mediatype>audio</mediatype>
							<parameter>
								<name>Pan</name>
								<parameterid>pan</parameterid>
								<valuemin>-1</valuemin>
								<valuemax>1</valuemax>
								<value>0</value>
							</parameter>
						</effect>
					</filter>
					<sourcetrack>
						<mediatype>audio</mediatype>
						<trackindex>2</trackindex>
					</sourcetrack>
					<link>
						<linkclipref>DYR19797_01 </linkclipref>
						<mediatype>audio</mediatype>
						<trackindex>1</trackindex>
						<clipindex>98</clipindex>
					</link>
					<link>
						<linkclipref>DYR19797_01 3</linkclipref>
						<mediatype>audio</mediatype>
						<trackindex>2</trackindex>
						<clipindex>93</clipindex>
					</link>
					<itemhistory>
						<uuid>852C720F-1077-47F8-A6FC-2D8944183B24</uuid>
					</itemhistory>
				</clipitem>
				<transitionitem>
					<rate>
						<ntsc>FALSE</ntsc>
						<timebase>25</timebase>
					</rate>
					<start>16592</start>
					<end>16617</end>
					<alignment>center</alignment>
					<effect>
						<name>Cross Fade (+3dB)</name>
						<effectid>KGAudioTransCrossFade3dB</effectid>
						<effecttype>transition</effecttype>
						<mediatype>audio</mediatype>
					</effect>
				</transitionitem>
				<clipitem id="MVI_6493 4">
					<name>MVI_6493</name>
					<duration>741</duration>
					<rate>
						<ntsc>FALSE</ntsc>
						<timebase>25</timebase>
					</rate>
					<in>503</in>
					<out>554</out>
					<start>-1</start>
					<end>16643</end>
					<masterclipid>MVI_6493 1</masterclipid>
					<logginginfo>
						<scene/>
						<shottake/>
						<lognote/>
						<good>FALSE</good>
					</logginginfo>
					<labels>
						<label2/>
					</labels>
					<comments>
						<mastercomment1/>
						<mastercomment2/>
						<mastercomment3/>
						<mastercomment4/>
					</comments>
					<file id="MVI_6493 2"/>
					<filter>
						<effect>
							<name>Audio Levels</name>
							<effectid>audiolevels</effectid>
							<effectcategory>audiolevels</effectcategory>
							<effecttype>audiolevels</effecttype>
							<mediatype>audio</mediatype>
							<parameter>
								<name>Level</name>
								<parameterid>level</parameterid>
								<valuemin>0</valuemin>
								<valuemax>3.98109</valuemax>
								<value>0</value>
							</parameter>
						</effect>
					</filter>
					<filter>
						<effect>
							<name>Audio Pan</name>
							<effectid>audiopan</effectid>
							<effectcategory>audiopan</effectcategory>
							<effecttype>audiopan</effecttype>
							<mediatype>audio</mediatype>
							<parameter>
								<name>Pan</name>
								<parameterid>pan</parameterid>
								<valuemin>-1</valuemin>
								<valuemax>1</valuemax>
								<value>1</value>
							</parameter>
						</effect>
					</filter>
					<sourcetrack>
						<mediatype>audio</mediatype>
						<trackindex>2</trackindex>
					</sourcetrack>
					<link>
						<linkclipref>MVI_6493 </linkclipref>
						<mediatype>video</mediatype>
						<trackindex>1</trackindex>
						<clipindex>166</clipindex>
					</link>
					<link>
						<linkclipref>MVI_6493 3</linkclipref>
						<mediatype>audio</mediatype>
						<trackindex>1</trackindex>
						<clipindex>100</clipindex>
						<groupindex>1</groupindex>
					</link>
					<link>
						<linkclipref>MVI_6493 4</linkclipref>
						<mediatype>audio</mediatype>
						<trackindex>2</trackindex>
						<clipindex>95</clipindex>
						<groupindex>1</groupindex>
					</link>
					<itemhistory>
						<uuid>1102556D-8BC1-4759-91D6-AEF54878A627</uuid>
					</itemhistory>
				</clipitem>
				<clipitem id="DYR19798_01 3">
					<name>DYR19798_01</name>
					<duration>1644</duration>
					<rate>
						<ntsc>FALSE</ntsc>
						<timebase>25</timebase>
					</rate>
					<in>1470</in>
					<out>1574</out>
					<start>16643</start>
					<end>16747</end>
					<subframeoffset>0</subframeoffset>
					<masterclipid>DYR19798_01 1</masterclipid>
					<logginginfo>
						<scene/>
						<shottake/>
						<lognote/>
						<good>FALSE</good>
					</logginginfo>
					<labels>
						<label2/>
					</labels>
					<comments>
						<mastercomment1/>
						<mastercomment2/>
						<mastercomment3/>
						<mastercomment4/>
					</comments>
					<file id="DYR19798_01 2"/>
					<filter>
						<effect>
							<name>Audio Levels</name>
							<effectid>audiolevels</effectid>
							<effectcategory>audiolevels</effectcategory>
							<effecttype>audiolevels</effecttype>
							<mediatype>audio</mediatype>
							<parameter>
								<name>Level</name>
								<parameterid>level</parameterid>
								<valuemin>0</valuemin>
								<valuemax>3.98109</valuemax>
								<value>0</value>
							</parameter>
						</effect>
					</filter>
					<filter>
						<effect>
							<name>Audio Pan</name>
							<effectid>audiopan</effectid>
							<effectcategory>audiopan</effectcategory>
							<effecttype>audiopan</effecttype>
							<mediatype>audio</mediatype>
							<parameter>
								<name>Pan</name>
								<parameterid>pan</parameterid>
								<valuemin>-1</valuemin>
								<valuemax>1</valuemax>
								<value>0</value>
							</parameter>
						</effect>
					</filter>
					<sourcetrack>
						<mediatype>audio</mediatype>
						<trackindex>2</trackindex>
					</sourcetrack>
					<link>
						<linkclipref>DYR19798_01 </linkclipref>
						<mediatype>audio</mediatype>
						<trackindex>1</trackindex>
						<clipindex>101</clipindex>
					</link>
					<link>
						<linkclipref>DYR19798_01 3</linkclipref>
						<mediatype>audio</mediatype>
						<trackindex>2</trackindex>
						<clipindex>96</clipindex>
					</link>
					<itemhistory>
						<uuid>0C59C307-A8BA-4E77-BA01-854220172EAA</uuid>
					</itemhistory>
				</clipitem>
				<clipitem id="DYR19768_01 7">
					<name>DYR19768_01</name>
					<duration>3048</duration>
					<rate>
						<ntsc>FALSE</ntsc>
						<timebase>25</timebase>
					</rate>
					<in>1248</in>
					<out>1470</out>
					<start>18394</start>
					<end>18616</end>
					<masterclipid>DYR19768_01 1</masterclipid>
					<logginginfo>
						<scene/>
						<shottake/>
						<lognote/>
						<good>FALSE</good>
					</logginginfo>
					<labels>
						<label2/>
					</labels>
					<comments>
						<mastercomment1/>
						<mastercomment2/>
						<mastercomment3/>
						<mastercomment4/>
					</comments>
					<file id="DYR19768_01 2"/>
					<filter>
						<effect>
							<name>Audio Levels</name>
							<effectid>audiolevels</effectid>
							<effectcategory>audiolevels</effectcategory>
							<effecttype>audiolevels</effecttype>
							<mediatype>audio</mediatype>
							<parameter>
								<name>Level</name>
								<parameterid>level</parameterid>
								<valuemin>0</valuemin>
								<valuemax>3.98109</valuemax>
								<value>0</value>
							</parameter>
						</effect>
					</filter>
					<filter>
						<effect>
							<name>Audio Pan</name>
							<effectid>audiopan</effectid>
							<effectcategory>audiopan</effectcategory>
							<effecttype>audiopan</effecttype>
							<mediatype>audio</mediatype>
							<parameter>
								<name>Pan</name>
								<parameterid>pan</parameterid>
								<valuemin>-1</valuemin>
								<valuemax>1</valuemax>
								<value>0</value>
							</parameter>
						</effect>
					</filter>
					<sourcetrack>
						<mediatype>audio</mediatype>
						<trackindex>2</trackindex>
					</sourcetrack>
					<link>
						<linkclipref>DYR19768_01 6</linkclipref>
						<mediatype>audio</mediatype>
						<trackindex>1</trackindex>
						<clipindex>118</clipindex>
					</link>
					<link>
						<linkclipref>DYR19768_01 7</linkclipref>
						<mediatype>audio</mediatype>
						<trackindex>2</trackindex>
						<clipindex>97</clipindex>
					</link>
					<itemhistory>
						<uuid>C28583AD-D6E3-42DC-9545-E2530BEE2A99</uuid>
					</itemhistory>
				</clipitem>
				<clipitem id="DYR19789_01 4">
					<name>DYR19789_01</name>
					<duration>4712</duration>
					<rate>
						<ntsc>FALSE</ntsc>
						<timebase>25</timebase>
					</rate>
					<in>774</in>
					<out>954</out>
					<start>18768</start>
					<end>18948</end>
					<masterclipid>DYR19789_01 1</masterclipid>
					<logginginfo>
						<scene/>
						<shottake/>
						<lognote/>
						<good>FALSE</good>
					</logginginfo>
					<labels>
						<label2/>
					</labels>
					<comments>
						<mastercomment1/>
						<mastercomment2/>
						<mastercomment3/>
						<mastercomment4/>
					</comments>
					<file id="DYR19789_01 2"/>
					<filter>
						<effect>
							<name>Audio Levels</name>
							<effectid>audiolevels</effectid>
							<effectcategory>audiolevels</effectcategory>
							<effecttype>audiolevels</effecttype>
							<mediatype>audio</mediatype>
							<parameter>
								<name>Level</name>
								<parameterid>level</parameterid>
								<valuemin>0</valuemin>
								<valuemax>3.98109</valuemax>
								<value>0</value>
							</parameter>
						</effect>
					</filter>
					<filter>
						<effect>
							<name>Audio Pan</name>
							<effectid>audiopan</effectid>
							<effectcategory>audiopan</effectcategory>
							<effecttype>audiopan</effecttype>
							<mediatype>audio</mediatype>
							<parameter>
								<name>Pan</name>
								<parameterid>pan</parameterid>
								<valuemin>-1</valuemin>
								<valuemax>1</valuemax>
								<value>0</value>
							</parameter>
						</effect>
					</filter>
					<sourcetrack>
						<mediatype>audio</mediatype>
						<trackindex>2</trackindex>
					</sourcetrack>
					<link>
						<linkclipref>DYR19789_01 </linkclipref>
						<mediatype>video</mediatype>
						<trackindex>1</trackindex>
						<clipindex>206</clipindex>
					</link>
					<link>
						<linkclipref>DYR19789_01 3</linkclipref>
						<mediatype>audio</mediatype>
						<trackindex>1</trackindex>
						<clipindex>119</clipindex>
					</link>
					<link>
						<linkclipref>DYR19789_01 4</linkclipref>
						<mediatype>audio</mediatype>
						<trackindex>2</trackindex>
						<clipindex>98</clipindex>
					</link>
					<itemhistory>
						<uuid>03FAB377-1B1B-41CC-92D0-765F63416B15</uuid>
					</itemhistory>
				</clipitem>
				<clipitem id="DYR19789_01 7">
					<name>DYR19789_01</name>
					<duration>4712</duration>
					<rate>
						<ntsc>FALSE</ntsc>
						<timebase>25</timebase>
					</rate>
					<in>1114</in>
					<out>1274</out>
					<start>18948</start>
					<end>19108</end>
					<subframeoffset>0</subframeoffset>
					<masterclipid>DYR19789_01 1</masterclipid>
					<logginginfo>
						<scene/>
						<shottake/>
						<lognote/>
						<good>FALSE</good>
					</logginginfo>
					<labels>
						<label2/>
					</labels>
					<comments>
						<mastercomment1/>
						<mastercomment2/>
						<mastercomment3/>
						<mastercomment4/>
					</comments>
					<file id="DYR19789_01 2"/>
					<filter>
						<effect>
							<name>Audio Levels</name>
							<effectid>audiolevels</effectid>
							<effectcategory>audiolevels</effectcategory>
							<effecttype>audiolevels</effecttype>
							<mediatype>audio</mediatype>
							<parameter>
								<name>Level</name>
								<parameterid>level</parameterid>
								<valuemin>0</valuemin>
								<valuemax>3.98109</valuemax>
								<value>1</value>
							</parameter>
						</effect>
					</filter>
					<filter>
						<effect>
							<name>Audio Pan</name>
							<effectid>audiopan</effectid>
							<effectcategory>audiopan</effectcategory>
							<effecttype>audiopan</effecttype>
							<mediatype>audio</mediatype>
							<parameter>
								<name>Pan</name>
								<parameterid>pan</parameterid>
								<valuemin>-1</valuemin>
								<valuemax>1</valuemax>
								<value>0</value>
							</parameter>
						</effect>
					</filter>
					<sourcetrack>
						<mediatype>audio</mediatype>
						<trackindex>2</trackindex>
					</sourcetrack>
					<link>
						<linkclipref>DYR19789_01 5</linkclipref>
						<mediatype>video</mediatype>
						<trackindex>1</trackindex>
						<clipindex>210</clipindex>
					</link>
					<link>
						<linkclipref>DYR19789_01 6</linkclipref>
						<mediatype>audio</mediatype>
						<trackindex>1</trackindex>
						<clipindex>120</clipindex>
					</link>
					<link>
						<linkclipref>DYR19789_01 7</linkclipref>
						<mediatype>audio</mediatype>
						<trackindex>2</trackindex>
						<clipindex>99</clipindex>
					</link>
					<itemhistory>
						<uuid>E258C925-2497-483B-8ED2-93B1756D4ECD</uuid>
					</itemhistory>
				</clipitem>
				<clipitem id="DYR19792_01 4">
					<name>DYR19792_01</name>
					<duration>526</duration>
					<rate>
						<ntsc>FALSE</ntsc>
						<timebase>25</timebase>
					</rate>
					<in>146</in>
					<out>280</out>
					<start>19194</start>
					<end>19328</end>
					<masterclipid>DYR19792_01 1</masterclipid>
					<logginginfo>
						<scene/>
						<shottake/>
						<lognote/>
						<good>FALSE</good>
					</logginginfo>
					<labels>
						<label2/>
					</labels>
					<comments>
						<mastercomment1/>
						<mastercomment2/>
						<mastercomment3/>
						<mastercomment4/>
					</comments>
					<file id="DYR19792_01 2"/>
					<filter>
						<effect>
							<name>Audio Levels</name>
							<effectid>audiolevels</effectid>
							<effectcategory>audiolevels</effectcategory>
							<effecttype>audiolevels</effecttype>
							<mediatype>audio</mediatype>
							<parameter>
								<name>Level</name>
								<parameterid>level</parameterid>
								<valuemin>0</valuemin>
								<valuemax>3.98109</valuemax>
								<value>1.77828</value>
							</parameter>
						</effect>
					</filter>
					<filter>
						<effect>
							<name>Audio Pan</name>
							<effectid>audiopan</effectid>
							<effectcategory>audiopan</effectcategory>
							<effecttype>audiopan</effecttype>
							<mediatype>audio</mediatype>
							<parameter>
								<name>Pan</name>
								<parameterid>pan</parameterid>
								<valuemin>-1</valuemin>
								<valuemax>1</valuemax>
								<value>0</value>
							</parameter>
						</effect>
					</filter>
					<sourcetrack>
						<mediatype>audio</mediatype>
						<trackindex>2</trackindex>
					</sourcetrack>
					<link>
						<linkclipref>DYR19792_01 </linkclipref>
						<mediatype>video</mediatype>
						<trackindex>1</trackindex>
						<clipindex>216</clipindex>
					</link>
					<link>
						<linkclipref>DYR19792_01 3</linkclipref>
						<mediatype>audio</mediatype>
						<trackindex>1</trackindex>
						<clipindex>121</clipindex>
					</link>
					<link>
						<linkclipref>DYR19792_01 4</linkclipref>
						<mediatype>audio</mediatype>
						<trackindex>2</trackindex>
						<clipindex>100</clipindex>
					</link>
					<itemhistory>
						<uuid>DA0E108A-A7D7-4FAF-82CC-65C69216FE4C</uuid>
					</itemhistory>
				</clipitem>
				<clipitem id="AA1447_01 4">
					<name>AA1447_01</name>
					<duration>1236</duration>
					<rate>
						<ntsc>FALSE</ntsc>
						<timebase>25</timebase>
					</rate>
					<in>47</in>
					<out>1086</out>
					<start>19328</start>
					<end>20367</end>
					<subframeoffset>0</subframeoffset>
					<masterclipid>AA1447_01 1</masterclipid>
					<logginginfo>
						<scene/>
						<shottake/>
						<lognote/>
						<good>FALSE</good>
					</logginginfo>
					<labels>
						<label2/>
					</labels>
					<comments>
						<mastercomment1/>
						<mastercomment2/>
						<mastercomment3/>
						<mastercomment4/>
					</comments>
					<file id="AA1447_01 2"/>
					<filter>
						<effect>
							<name>Audio Levels</name>
							<effectid>audiolevels</effectid>
							<effectcategory>audiolevels</effectcategory>
							<effecttype>audiolevels</effecttype>
							<mediatype>audio</mediatype>
							<parameter>
								<name>Level</name>
								<parameterid>level</parameterid>
								<valuemin>0</valuemin>
								<valuemax>3.98109</valuemax>
								<value>1.77828</value>
							</parameter>
						</effect>
					</filter>
					<filter>
						<effect>
							<name>Audio Pan</name>
							<effectid>audiopan</effectid>
							<effectcategory>audiopan</effectcategory>
							<effecttype>audiopan</effecttype>
							<mediatype>audio</mediatype>
							<parameter>
								<name>Pan</name>
								<parameterid>pan</parameterid>
								<valuemin>-1</valuemin>
								<valuemax>1</valuemax>
								<value>0</value>
							</parameter>
						</effect>
					</filter>
					<sourcetrack>
						<mediatype>audio</mediatype>
						<trackindex>2</trackindex>
					</sourcetrack>
					<link>
						<linkclipref>AA1447_01 </linkclipref>
						<mediatype>video</mediatype>
						<trackindex>1</trackindex>
						<clipindex>219</clipindex>
					</link>
					<link>
						<linkclipref>AA1447_01 3</linkclipref>
						<mediatype>audio</mediatype>
						<trackindex>1</trackindex>
						<clipindex>122</clipindex>
					</link>
					<link>
						<linkclipref>AA1447_01 4</linkclipref>
						<mediatype>audio</mediatype>
						<trackindex>2</trackindex>
						<clipindex>101</clipindex>
					</link>
					<itemhistory>
						<uuid>BAD40523-9A6B-4E61-8930-AEE626030BD0</uuid>
					</itemhistory>
				</clipitem>
				<clipitem id="AA1448_01 4">
					<name>AA1448_01</name>
					<duration>456</duration>
					<rate>
						<ntsc>FALSE</ntsc>
						<timebase>25</timebase>
					</rate>
					<in>248</in>
					<out>307</out>
					<start>20367</start>
					<end>20426</end>
					<subframeoffset>0</subframeoffset>
					<enabled>TRUE</enabled>
					<masterclipid>AA1448_01 1</masterclipid>
					<logginginfo>
						<scene/>
						<shottake/>
						<lognote/>
						<good>FALSE</good>
					</logginginfo>
					<labels>
						<label2/>
					</labels>
					<comments>
						<mastercomment1/>
						<mastercomment2/>
						<mastercomment3/>
						<mastercomment4/>
					</comments>
					<file id="AA1448_01 2"/>
					<filter>
						<effect>
							<name>Audio Levels</name>
							<effectid>audiolevels</effectid>
							<effectcategory>audiolevels</effectcategory>
							<effecttype>audiolevels</effecttype>
							<mediatype>audio</mediatype>
							<parameter>
								<name>Level</name>
								<parameterid>level</parameterid>
								<valuemin>0</valuemin>
								<valuemax>3.98109</valuemax>
								<value>1.77828</value>
							</parameter>
						</effect>
					</filter>
					<filter>
						<effect>
							<name>Audio Pan</name>
							<effectid>audiopan</effectid>
							<effectcategory>audiopan</effectcategory>
							<effecttype>audiopan</effecttype>
							<mediatype>audio</mediatype>
							<parameter>
								<name>Pan</name>
								<parameterid>pan</parameterid>
								<valuemin>-1</valuemin>
								<valuemax>1</valuemax>
								<value>0</value>
							</parameter>
						</effect>
					</filter>
					<sourcetrack>
						<mediatype>audio</mediatype>
						<trackindex>2</trackindex>
					</sourcetrack>
					<link>
						<linkclipref>AA1448_01 </linkclipref>
						<mediatype>video</mediatype>
						<trackindex>1</trackindex>
						<clipindex>220</clipindex>
					</link>
					<link>
						<linkclipref>AA1448_01 3</linkclipref>
						<mediatype>audio</mediatype>
						<trackindex>1</trackindex>
						<clipindex>123</clipindex>
					</link>
					<link>
						<linkclipref>AA1448_01 4</linkclipref>
						<mediatype>audio</mediatype>
						<trackindex>2</trackindex>
						<clipindex>102</clipindex>
					</link>
					<itemhistory>
						<uuid>0156CC69-9F1A-4CD4-AA43-AFB42918DAB1</uuid>
					</itemhistory>
				</clipitem>
				<clipitem id="AA1454_01 4">
					<name>AA1454_01</name>
					<duration>1152</duration>
					<rate>
						<ntsc>FALSE</ntsc>
						<timebase>25</timebase>
					</rate>
					<in>83</in>
					<out>297</out>
					<start>20426</start>
					<end>20640</end>
					<subframeoffset>0</subframeoffset>
					<enabled>TRUE</enabled>
					<masterclipid>AA1454_01 1</masterclipid>
					<logginginfo>
						<scene/>
						<shottake/>
						<lognote/>
						<good>FALSE</good>
					</logginginfo>
					<labels>
						<label2/>
					</labels>
					<comments>
						<mastercomment1/>
						<mastercomment2/>
						<mastercomment3/>
						<mastercomment4/>
					</comments>
					<file id="AA1454_01 2"/>
					<filter>
						<effect>
							<name>Audio Levels</name>
							<effectid>audiolevels</effectid>
							<effectcategory>audiolevels</effectcategory>
							<effecttype>audiolevels</effecttype>
							<mediatype>audio</mediatype>
							<parameter>
								<name>Level</name>
								<parameterid>level</parameterid>
								<valuemin>0</valuemin>
								<valuemax>3.98109</valuemax>
								<value>1.77828</value>
							</parameter>
						</effect>
					</filter>
					<filter>
						<effect>
							<name>Audio Pan</name>
							<effectid>audiopan</effectid>
							<effectcategory>audiopan</effectcategory>
							<effecttype>audiopan</effecttype>
							<mediatype>audio</mediatype>
							<parameter>
								<name>Pan</name>
								<parameterid>pan</parameterid>
								<valuemin>-1</valuemin>
								<valuemax>1</valuemax>
								<value>0</value>
							</parameter>
						</effect>
					</filter>
					<sourcetrack>
						<mediatype>audio</mediatype>
						<trackindex>2</trackindex>
					</sourcetrack>
					<link>
						<linkclipref>AA1454_01 </linkclipref>
						<mediatype>video</mediatype>
						<trackindex>1</trackindex>
						<clipindex>221</clipindex>
					</link>
					<link>
						<linkclipref>AA1454_01 3</linkclipref>
						<mediatype>audio</mediatype>
						<trackindex>1</trackindex>
						<clipindex>124</clipindex>
					</link>
					<link>
						<linkclipref>AA1454_01 4</linkclipref>
						<mediatype>audio</mediatype>
						<trackindex>2</trackindex>
						<clipindex>103</clipindex>
					</link>
					<itemhistory>
						<uuid>DEE526B4-ADB0-445E-8D8D-7F0663D0FAB1</uuid>
					</itemhistory>
				</clipitem>
				<clipitem id="AA1458_01 4">
					<name>AA1458_01</name>
					<duration>960</duration>
					<rate>
						<ntsc>FALSE</ntsc>
						<timebase>25</timebase>
					</rate>
					<in>105</in>
					<out>252</out>
					<start>20640</start>
					<end>20787</end>
					<subframeoffset>0</subframeoffset>
					<masterclipid>AA1458_01 1</masterclipid>
					<logginginfo>
						<scene/>
						<shottake/>
						<lognote/>
						<good>FALSE</good>
					</logginginfo>
					<labels>
						<label2/>
					</labels>
					<comments>
						<mastercomment1/>
						<mastercomment2/>
						<mastercomment3/>
						<mastercomment4/>
					</comments>
					<file id="AA1458_01 2"/>
					<filter>
						<effect>
							<name>Audio Levels</name>
							<effectid>audiolevels</effectid>
							<effectcategory>audiolevels</effectcategory>
							<effecttype>audiolevels</effecttype>
							<mediatype>audio</mediatype>
							<parameter>
								<name>Level</name>
								<parameterid>level</parameterid>
								<valuemin>0</valuemin>
								<valuemax>3.98109</valuemax>
								<value>1.77828</value>
							</parameter>
						</effect>
					</filter>
					<filter>
						<effect>
							<name>Audio Pan</name>
							<effectid>audiopan</effectid>
							<effectcategory>audiopan</effectcategory>
							<effecttype>audiopan</effecttype>
							<mediatype>audio</mediatype>
							<parameter>
								<name>Pan</name>
								<parameterid>pan</parameterid>
								<valuemin>-1</valuemin>
								<valuemax>1</valuemax>
								<value>0</value>
							</parameter>
						</effect>
					</filter>
					<sourcetrack>
						<mediatype>audio</mediatype>
						<trackindex>2</trackindex>
					</sourcetrack>
					<link>
						<linkclipref>AA1458_01 </linkclipref>
						<mediatype>video</mediatype>
						<trackindex>1</trackindex>
						<clipindex>222</clipindex>
					</link>
					<link>
						<linkclipref>AA1458_01 3</linkclipref>
						<mediatype>audio</mediatype>
						<trackindex>1</trackindex>
						<clipindex>125</clipindex>
					</link>
					<link>
						<linkclipref>AA1458_01 4</linkclipref>
						<mediatype>audio</mediatype>
						<trackindex>2</trackindex>
						<clipindex>104</clipindex>
					</link>
					<itemhistory>
						<uuid>1578401C-6A01-40B7-8980-7BDF1FA4FB33</uuid>
					</itemhistory>
				</clipitem>
				<clipitem id="AA1459_01 4">
					<name>AA1459_01</name>
					<duration>2304</duration>
					<rate>
						<ntsc>FALSE</ntsc>
						<timebase>25</timebase>
					</rate>
					<in>549</in>
					<out>739</out>
					<start>20787</start>
					<end>20977</end>
					<subframeoffset>0</subframeoffset>
					<masterclipid>AA1459_01 1</masterclipid>
					<logginginfo>
						<scene/>
						<shottake/>
						<lognote/>
						<good>FALSE</good>
					</logginginfo>
					<labels>
						<label2/>
					</labels>
					<comments>
						<mastercomment1/>
						<mastercomment2/>
						<mastercomment3/>
						<mastercomment4/>
					</comments>
					<file id="AA1459_01 2"/>
					<filter>
						<effect>
							<name>Audio Levels</name>
							<effectid>audiolevels</effectid>
							<effectcategory>audiolevels</effectcategory>
							<effecttype>audiolevels</effecttype>
							<mediatype>audio</mediatype>
							<parameter>
								<name>Level</name>
								<parameterid>level</parameterid>
								<valuemin>0</valuemin>
								<valuemax>3.98109</valuemax>
								<value>1.77828</value>
							</parameter>
						</effect>
					</filter>
					<filter>
						<effect>
							<name>Audio Pan</name>
							<effectid>audiopan</effectid>
							<effectcategory>audiopan</effectcategory>
							<effecttype>audiopan</effecttype>
							<mediatype>audio</mediatype>
							<parameter>
								<name>Pan</name>
								<parameterid>pan</parameterid>
								<valuemin>-1</valuemin>
								<valuemax>1</valuemax>
								<value>0</value>
							</parameter>
						</effect>
					</filter>
					<sourcetrack>
						<mediatype>audio</mediatype>
						<trackindex>2</trackindex>
					</sourcetrack>
					<link>
						<linkclipref>AA1459_01 </linkclipref>
						<mediatype>video</mediatype>
						<trackindex>1</trackindex>
						<clipindex>223</clipindex>
					</link>
					<link>
						<linkclipref>AA1459_01 3</linkclipref>
						<mediatype>audio</mediatype>
						<trackindex>1</trackindex>
						<clipindex>126</clipindex>
					</link>
					<link>
						<linkclipref>AA1459_01 4</linkclipref>
						<mediatype>audio</mediatype>
						<trackindex>2</trackindex>
						<clipindex>105</clipindex>
					</link>
					<itemhistory>
						<uuid>11ADBA7B-9803-40DB-A472-B7907357F070</uuid>
					</itemhistory>
				</clipitem>
				<clipitem id="AA1458_01 7">
					<name>AA1458_01</name>
					<duration>960</duration>
					<rate>
						<ntsc>FALSE</ntsc>
						<timebase>25</timebase>
					</rate>
					<in>427</in>
					<out>807</out>
					<start>20977</start>
					<end>21357</end>
					<subframeoffset>0</subframeoffset>
					<masterclipid>AA1458_01 1</masterclipid>
					<logginginfo>
						<scene/>
						<shottake/>
						<lognote/>
						<good>FALSE</good>
					</logginginfo>
					<labels>
						<label2/>
					</labels>
					<comments>
						<mastercomment1/>
						<mastercomment2/>
						<mastercomment3/>
						<mastercomment4/>
					</comments>
					<file id="AA1458_01 2"/>
					<filter>
						<effect>
							<name>Audio Levels</name>
							<effectid>audiolevels</effectid>
							<effectcategory>audiolevels</effectcategory>
							<effecttype>audiolevels</effecttype>
							<mediatype>audio</mediatype>
							<parameter>
								<name>Level</name>
								<parameterid>level</parameterid>
								<valuemin>0</valuemin>
								<valuemax>3.98109</valuemax>
								<value>1.77828</value>
							</parameter>
						</effect>
					</filter>
					<filter>
						<effect>
							<name>Audio Pan</name>
							<effectid>audiopan</effectid>
							<effectcategory>audiopan</effectcategory>
							<effecttype>audiopan</effecttype>
							<mediatype>audio</mediatype>
							<parameter>
								<name>Pan</name>
								<parameterid>pan</parameterid>
								<valuemin>-1</valuemin>
								<valuemax>1</valuemax>
								<value>0</value>
							</parameter>
						</effect>
					</filter>
					<sourcetrack>
						<mediatype>audio</mediatype>
						<trackindex>2</trackindex>
					</sourcetrack>
					<link>
						<linkclipref>AA1458_01 5</linkclipref>
						<mediatype>video</mediatype>
						<trackindex>1</trackindex>
						<clipindex>224</clipindex>
					</link>
					<link>
						<linkclipref>AA1458_01 6</linkclipref>
						<mediatype>audio</mediatype>
						<trackindex>1</trackindex>
						<clipindex>127</clipindex>
					</link>
					<link>
						<linkclipref>AA1458_01 7</linkclipref>
						<mediatype>audio</mediatype>
						<trackindex>2</trackindex>
						<clipindex>106</clipindex>
					</link>
					<itemhistory>
						<uuid>A7C5D1C7-BD34-4306-8B2C-4060D67436BE</uuid>
					</itemhistory>
				</clipitem>
				<clipitem id="AA1461_01 4">
					<name>AA1461_01</name>
					<duration>1452</duration>
					<rate>
						<ntsc>FALSE</ntsc>
						<timebase>25</timebase>
					</rate>
					<in>128</in>
					<out>391</out>
					<start>21357</start>
					<end>21620</end>
					<subframeoffset>0</subframeoffset>
					<masterclipid>AA1461_01 1</masterclipid>
					<logginginfo>
						<scene/>
						<shottake/>
						<lognote/>
						<good>FALSE</good>
					</logginginfo>
					<labels>
						<label2/>
					</labels>
					<comments>
						<mastercomment1/>
						<mastercomment2/>
						<mastercomment3/>
						<mastercomment4/>
					</comments>
					<file id="AA1461_01 2"/>
					<filter>
						<effect>
							<name>Audio Levels</name>
							<effectid>audiolevels</effectid>
							<effectcategory>audiolevels</effectcategory>
							<effecttype>audiolevels</effecttype>
							<mediatype>audio</mediatype>
							<parameter>
								<name>Level</name>
								<parameterid>level</parameterid>
								<valuemin>0</valuemin>
								<valuemax>3.98109</valuemax>
								<value>1.77828</value>
							</parameter>
						</effect>
					</filter>
					<filter>
						<effect>
							<name>Audio Pan</name>
							<effectid>audiopan</effectid>
							<effectcategory>audiopan</effectcategory>
							<effecttype>audiopan</effecttype>
							<mediatype>audio</mediatype>
							<parameter>
								<name>Pan</name>
								<parameterid>pan</parameterid>
								<valuemin>-1</valuemin>
								<valuemax>1</valuemax>
								<value>0</value>
							</parameter>
						</effect>
					</filter>
					<sourcetrack>
						<mediatype>audio</mediatype>
						<trackindex>2</trackindex>
					</sourcetrack>
					<link>
						<linkclipref>AA1461_01 </linkclipref>
						<mediatype>video</mediatype>
						<trackindex>1</trackindex>
						<clipindex>227</clipindex>
					</link>
					<link>
						<linkclipref>AA1461_01 3</linkclipref>
						<mediatype>audio</mediatype>
						<trackindex>1</trackindex>
						<clipindex>128</clipindex>
					</link>
					<link>
						<linkclipref>AA1461_01 4</linkclipref>
						<mediatype>audio</mediatype>
						<trackindex>2</trackindex>
						<clipindex>107</clipindex>
					</link>
					<itemhistory>
						<uuid>3D076679-1030-4892-B31D-B852C26D373D</uuid>
					</itemhistory>
				</clipitem>
				<clipitem id="AA1463_01 4">
					<name>AA1463_01</name>
					<duration>2856</duration>
					<rate>
						<ntsc>FALSE</ntsc>
						<timebase>25</timebase>
					</rate>
					<in>854</in>
					<out>1116</out>
					<start>21620</start>
					<end>21882</end>
					<subframeoffset>0</subframeoffset>
					<masterclipid>AA1463_01 1</masterclipid>
					<logginginfo>
						<scene/>
						<shottake/>
						<lognote/>
						<good>FALSE</good>
					</logginginfo>
					<labels>
						<label2/>
					</labels>
					<comments>
						<mastercomment1/>
						<mastercomment2/>
						<mastercomment3/>
						<mastercomment4/>
					</comments>
					<file id="AA1463_01 2"/>
					<filter>
						<effect>
							<name>Audio Levels</name>
							<effectid>audiolevels</effectid>
							<effectcategory>audiolevels</effectcategory>
							<effecttype>audiolevels</effecttype>
							<mediatype>audio</mediatype>
							<parameter>
								<name>Level</name>
								<parameterid>level</parameterid>
								<valuemin>0</valuemin>
								<valuemax>3.98109</valuemax>
								<value>1.77828</value>
							</parameter>
						</effect>
					</filter>
					<filter>
						<effect>
							<name>Audio Pan</name>
							<effectid>audiopan</effectid>
							<effectcategory>audiopan</effectcategory>
							<effecttype>audiopan</effecttype>
							<mediatype>audio</mediatype>
							<parameter>
								<name>Pan</name>
								<parameterid>pan</parameterid>
								<valuemin>-1</valuemin>
								<valuemax>1</valuemax>
								<value>0</value>
							</parameter>
						</effect>
					</filter>
					<sourcetrack>
						<mediatype>audio</mediatype>
						<trackindex>2</trackindex>
					</sourcetrack>
					<link>
						<linkclipref>AA1463_01 </linkclipref>
						<mediatype>video</mediatype>
						<trackindex>1</trackindex>
						<clipindex>228</clipindex>
					</link>
					<link>
						<linkclipref>AA1463_01 3</linkclipref>
						<mediatype>audio</mediatype>
						<trackindex>1</trackindex>
						<clipindex>129</clipindex>
					</link>
					<link>
						<linkclipref>AA1463_01 4</linkclipref>
						<mediatype>audio</mediatype>
						<trackindex>2</trackindex>
						<clipindex>108</clipindex>
					</link>
					<itemhistory>
						<uuid>670641C5-EF7B-46CE-87FA-CD4A86DB521F</uuid>
					</itemhistory>
				</clipitem>
				<clipitem id="AA1468_01 4">
					<name>AA1468_01</name>
					<duration>1980</duration>
					<rate>
						<ntsc>FALSE</ntsc>
						<timebase>25</timebase>
					</rate>
					<in>366</in>
					<out>432</out>
					<start>21882</start>
					<end>21948</end>
					<subframeoffset>0</subframeoffset>
					<masterclipid>AA1468_01 1</masterclipid>
					<logginginfo>
						<scene/>
						<shottake/>
						<lognote/>
						<good>FALSE</good>
					</logginginfo>
					<labels>
						<label2/>
					</labels>
					<comments>
						<mastercomment1/>
						<mastercomment2/>
						<mastercomment3/>
						<mastercomment4/>
					</comments>
					<file id="AA1468_01 2"/>
					<filter>
						<effect>
							<name>Audio Levels</name>
							<effectid>audiolevels</effectid>
							<effectcategory>audiolevels</effectcategory>
							<effecttype>audiolevels</effecttype>
							<mediatype>audio</mediatype>
							<parameter>
								<name>Level</name>
								<parameterid>level</parameterid>
								<valuemin>0</valuemin>
								<valuemax>3.98109</valuemax>
								<value>1.77828</value>
							</parameter>
						</effect>
					</filter>
					<filter>
						<effect>
							<name>Audio Pan</name>
							<effectid>audiopan</effectid>
							<effectcategory>audiopan</effectcategory>
							<effecttype>audiopan</effecttype>
							<mediatype>audio</mediatype>
							<parameter>
								<name>Pan</name>
								<parameterid>pan</parameterid>
								<valuemin>-1</valuemin>
								<valuemax>1</valuemax>
								<value>0</value>
							</parameter>
						</effect>
					</filter>
					<sourcetrack>
						<mediatype>audio</mediatype>
						<trackindex>2</trackindex>
					</sourcetrack>
					<link>
						<linkclipref>AA1468_01 </linkclipref>
						<mediatype>video</mediatype>
						<trackindex>1</trackindex>
						<clipindex>229</clipindex>
					</link>
					<link>
						<linkclipref>AA1468_01 3</linkclipref>
						<mediatype>audio</mediatype>
						<trackindex>1</trackindex>
						<clipindex>130</clipindex>
					</link>
					<link>
						<linkclipref>AA1468_01 4</linkclipref>
						<mediatype>audio</mediatype>
						<trackindex>2</trackindex>
						<clipindex>109</clipindex>
					</link>
					<itemhistory>
						<uuid>0357265C-11D1-447A-AF63-118A3C7ED2C8</uuid>
					</itemhistory>
				</clipitem>
				<clipitem id="AA1463_01 7">
					<name>AA1463_01</name>
					<duration>2856</duration>
					<rate>
						<ntsc>FALSE</ntsc>
						<timebase>25</timebase>
					</rate>
					<in>1173</in>
					<out>1286</out>
					<start>21948</start>
					<end>22061</end>
					<subframeoffset>0</subframeoffset>
					<masterclipid>AA1463_01 1</masterclipid>
					<logginginfo>
						<scene/>
						<shottake/>
						<lognote/>
						<good>FALSE</good>
					</logginginfo>
					<labels>
						<label2/>
					</labels>
					<comments>
						<mastercomment1/>
						<mastercomment2/>
						<mastercomment3/>
						<mastercomment4/>
					</comments>
					<file id="AA1463_01 2"/>
					<filter>
						<effect>
							<name>Audio Levels</name>
							<effectid>audiolevels</effectid>
							<effectcategory>audiolevels</effectcategory>
							<effecttype>audiolevels</effecttype>
							<mediatype>audio</mediatype>
							<parameter>
								<name>Level</name>
								<parameterid>level</parameterid>
								<valuemin>0</valuemin>
								<valuemax>3.98109</valuemax>
								<value>1.77828</value>
							</parameter>
						</effect>
					</filter>
					<filter>
						<effect>
							<name>Audio Pan</name>
							<effectid>audiopan</effectid>
							<effectcategory>audiopan</effectcategory>
							<effecttype>audiopan</effecttype>
							<mediatype>audio</mediatype>
							<parameter>
								<name>Pan</name>
								<parameterid>pan</parameterid>
								<valuemin>-1</valuemin>
								<valuemax>1</valuemax>
								<value>0</value>
							</parameter>
						</effect>
					</filter>
					<sourcetrack>
						<mediatype>audio</mediatype>
						<trackindex>2</trackindex>
					</sourcetrack>
					<link>
						<linkclipref>AA1463_01 5</linkclipref>
						<mediatype>video</mediatype>
						<trackindex>1</trackindex>
						<clipindex>230</clipindex>
					</link>
					<link>
						<linkclipref>AA1463_01 6</linkclipref>
						<mediatype>audio</mediatype>
						<trackindex>1</trackindex>
						<clipindex>131</clipindex>
					</link>
					<link>
						<linkclipref>AA1463_01 7</linkclipref>
						<mediatype>audio</mediatype>
						<trackindex>2</trackindex>
						<clipindex>110</clipindex>
					</link>
					<itemhistory>
						<uuid>F5882A30-8D18-494C-8CC6-DE8363058158</uuid>
					</itemhistory>
				</clipitem>
				<clipitem id="AA1467_01 3">
					<name>AA1467_01</name>
					<duration>1728</duration>
					<rate>
						<ntsc>FALSE</ntsc>
						<timebase>25</timebase>
					</rate>
					<in>222</in>
					<out>379</out>
					<start>22061</start>
					<end>22218</end>
					<subframeoffset>0</subframeoffset>
					<masterclipid>AA1467_01 1</masterclipid>
					<logginginfo>
						<scene/>
						<shottake/>
						<lognote/>
						<good>FALSE</good>
					</logginginfo>
					<labels>
						<label2/>
					</labels>
					<comments>
						<mastercomment1/>
						<mastercomment2/>
						<mastercomment3/>
						<mastercomment4/>
					</comments>
					<file id="AA1467_01 2"/>
					<filter>
						<effect>
							<name>Audio Levels</name>
							<effectid>audiolevels</effectid>
							<effectcategory>audiolevels</effectcategory>
							<effecttype>audiolevels</effecttype>
							<mediatype>audio</mediatype>
							<parameter>
								<name>Level</name>
								<parameterid>level</parameterid>
								<valuemin>0</valuemin>
								<valuemax>3.98109</valuemax>
								<value>1.77828</value>
							</parameter>
						</effect>
					</filter>
					<filter>
						<effect>
							<name>Audio Pan</name>
							<effectid>audiopan</effectid>
							<effectcategory>audiopan</effectcategory>
							<effecttype>audiopan</effecttype>
							<mediatype>audio</mediatype>
							<parameter>
								<name>Pan</name>
								<parameterid>pan</parameterid>
								<valuemin>-1</valuemin>
								<valuemax>1</valuemax>
								<value>0</value>
							</parameter>
						</effect>
					</filter>
					<sourcetrack>
						<mediatype>audio</mediatype>
						<trackindex>2</trackindex>
					</sourcetrack>
					<link>
						<linkclipref>AA1467_01 </linkclipref>
						<mediatype>video</mediatype>
						<trackindex>1</trackindex>
						<clipindex>232</clipindex>
					</link>
					<link>
						<linkclipref>AA1467_01 3</linkclipref>
						<mediatype>audio</mediatype>
						<trackindex>2</trackindex>
						<clipindex>111</clipindex>
					</link>
					<itemhistory>
						<uuid>1CBB823B-193A-4E65-80F1-649A6A1A27A4</uuid>
					</itemhistory>
				</clipitem>
				<clipitem id="AA1468_01 10">
					<name>AA1468_01</name>
					<duration>1980</duration>
					<rate>
						<ntsc>FALSE</ntsc>
						<timebase>25</timebase>
					</rate>
					<in>1156</in>
					<out>1297</out>
					<start>22218</start>
					<end>22359</end>
					<subframeoffset>0</subframeoffset>
					<masterclipid>AA1468_01 1</masterclipid>
					<syncoffset>0</syncoffset>
					<logginginfo>
						<scene/>
						<shottake/>
						<lognote/>
						<good>FALSE</good>
					</logginginfo>
					<labels>
						<label2/>
					</labels>
					<comments>
						<mastercomment1/>
						<mastercomment2/>
						<mastercomment3/>
						<mastercomment4/>
					</comments>
					<file id="AA1468_01 2"/>
					<filter>
						<effect>
							<name>Audio Levels</name>
							<effectid>audiolevels</effectid>
							<effectcategory>audiolevels</effectcategory>
							<effecttype>audiolevels</effecttype>
							<mediatype>audio</mediatype>
							<parameter>
								<name>Level</name>
								<parameterid>level</parameterid>
								<valuemin>0</valuemin>
								<valuemax>3.98109</valuemax>
								<value>1.99526</value>
							</parameter>
						</effect>
					</filter>
					<filter>
						<effect>
							<name>Audio Pan</name>
							<effectid>audiopan</effectid>
							<effectcategory>audiopan</effectcategory>
							<effecttype>audiopan</effecttype>
							<mediatype>audio</mediatype>
							<parameter>
								<name>Pan</name>
								<parameterid>pan</parameterid>
								<valuemin>-1</valuemin>
								<valuemax>1</valuemax>
								<value>0</value>
							</parameter>
						</effect>
					</filter>
					<sourcetrack>
						<mediatype>audio</mediatype>
						<trackindex>2</trackindex>
					</sourcetrack>
					<link>
						<linkclipref>AA1468_01 8</linkclipref>
						<mediatype>video</mediatype>
						<trackindex>1</trackindex>
						<clipindex>235</clipindex>
					</link>
					<link>
						<linkclipref>AA1468_01 9</linkclipref>
						<mediatype>audio</mediatype>
						<trackindex>1</trackindex>
						<clipindex>134</clipindex>
					</link>
					<link>
						<linkclipref>AA1468_01 10</linkclipref>
						<mediatype>audio</mediatype>
						<trackindex>2</trackindex>
						<clipindex>112</clipindex>
					</link>
					<itemhistory>
						<uuid>6F77DDC2-C392-433C-B7B0-C7F959DA8C3A</uuid>
					</itemhistory>
				</clipitem>
				<clipitem id="AA1467_01 7">
					<name>AA1467_01</name>
					<duration>1728</duration>
					<rate>
						<ntsc>FALSE</ntsc>
						<timebase>25</timebase>
					</rate>
					<in>886</in>
					<out>938</out>
					<start>22359</start>
					<end>22411</end>
					<subframeoffset>0</subframeoffset>
					<masterclipid>AA1467_01 1</masterclipid>
					<logginginfo>
						<scene/>
						<shottake/>
						<lognote/>
						<good>FALSE</good>
					</logginginfo>
					<labels>
						<label2/>
					</labels>
					<comments>
						<mastercomment1/>
						<mastercomment2/>
						<mastercomment3/>
						<mastercomment4/>
					</comments>
					<file id="AA1467_01 2"/>
					<filter>
						<effect>
							<name>Audio Levels</name>
							<effectid>audiolevels</effectid>
							<effectcategory>audiolevels</effectcategory>
							<effecttype>audiolevels</effecttype>
							<mediatype>audio</mediatype>
							<parameter>
								<name>Level</name>
								<parameterid>level</parameterid>
								<valuemin>0</valuemin>
								<valuemax>3.98109</valuemax>
								<value>1.77828</value>
							</parameter>
						</effect>
					</filter>
					<filter>
						<effect>
							<name>Audio Pan</name>
							<effectid>audiopan</effectid>
							<effectcategory>audiopan</effectcategory>
							<effecttype>audiopan</effecttype>
							<mediatype>audio</mediatype>
							<parameter>
								<name>Pan</name>
								<parameterid>pan</parameterid>
								<valuemin>-1</valuemin>
								<valuemax>1</valuemax>
								<value>0</value>
							</parameter>
						</effect>
					</filter>
					<sourcetrack>
						<mediatype>audio</mediatype>
						<trackindex>2</trackindex>
					</sourcetrack>
					<link>
						<linkclipref>AA1467_01 5</linkclipref>
						<mediatype>video</mediatype>
						<trackindex>1</trackindex>
						<clipindex>236</clipindex>
					</link>
					<link>
						<linkclipref>AA1467_01 6</linkclipref>
						<mediatype>audio</mediatype>
						<trackindex>1</trackindex>
						<clipindex>135</clipindex>
					</link>
					<link>
						<linkclipref>AA1467_01 7</linkclipref>
						<mediatype>audio</mediatype>
						<trackindex>2</trackindex>
						<clipindex>113</clipindex>
					</link>
					<itemhistory>
						<uuid>74723012-479B-4A9D-99C3-A2489EE739BF</uuid>
					</itemhistory>
				</clipitem>
				<clipitem id="AA1469_01 4">
					<name>AA1469_01</name>
					<duration>1848</duration>
					<rate>
						<ntsc>FALSE</ntsc>
						<timebase>25</timebase>
					</rate>
					<in>503</in>
					<out>579</out>
					<start>22411</start>
					<end>22487</end>
					<subframeoffset>0</subframeoffset>
					<masterclipid>AA1469_01 1</masterclipid>
					<logginginfo>
						<scene/>
						<shottake/>
						<lognote/>
						<good>FALSE</good>
					</logginginfo>
					<labels>
						<label2/>
					</labels>
					<comments>
						<mastercomment1/>
						<mastercomment2/>
						<mastercomment3/>
						<mastercomment4/>
					</comments>
					<file id="AA1469_01 2"/>
					<filter>
						<effect>
							<name>Audio Levels</name>
							<effectid>audiolevels</effectid>
							<effectcategory>audiolevels</effectcategory>
							<effecttype>audiolevels</effecttype>
							<mediatype>audio</mediatype>
							<parameter>
								<name>Level</name>
								<parameterid>level</parameterid>
								<valuemin>0</valuemin>
								<valuemax>3.98109</valuemax>
								<keyframe>
									<when>449.857</when>
									<value>0.891251</value>
								</keyframe>
								<keyframe>
									<when>451.857</when>
									<value>1.77828</value>
								</keyframe>
								<interpolation>
									<name>FCPCurve</name>
								</interpolation>
								<value>0.891251</value>
							</parameter>
						</effect>
					</filter>
					<filter>
						<effect>
							<name>Audio Pan</name>
							<effectid>audiopan</effectid>
							<effectcategory>audiopan</effectcategory>
							<effecttype>audiopan</effecttype>
							<mediatype>audio</mediatype>
							<parameter>
								<name>Pan</name>
								<parameterid>pan</parameterid>
								<valuemin>-1</valuemin>
								<valuemax>1</valuemax>
								<value>0</value>
							</parameter>
						</effect>
					</filter>
					<sourcetrack>
						<mediatype>audio</mediatype>
						<trackindex>2</trackindex>
					</sourcetrack>
					<link>
						<linkclipref>AA1469_01 </linkclipref>
						<mediatype>video</mediatype>
						<trackindex>1</trackindex>
						<clipindex>237</clipindex>
					</link>
					<link>
						<linkclipref>AA1469_01 3</linkclipref>
						<mediatype>audio</mediatype>
						<trackindex>1</trackindex>
						<clipindex>136</clipindex>
					</link>
					<link>
						<linkclipref>AA1469_01 4</linkclipref>
						<mediatype>audio</mediatype>
						<trackindex>2</trackindex>
						<clipindex>114</clipindex>
					</link>
					<itemhistory>
						<uuid>6F9F55AD-FDA1-44F0-AA35-32B513A3619A</uuid>
					</itemhistory>
				</clipitem>
				<clipitem id="AA1463_01 10">
					<name>AA1463_01</name>
					<duration>2856</duration>
					<rate>
						<ntsc>FALSE</ntsc>
						<timebase>25</timebase>
					</rate>
					<in>2041</in>
					<out>2193</out>
					<start>22487</start>
					<end>22639</end>
					<subframeoffset>0</subframeoffset>
					<masterclipid>AA1463_01 1</masterclipid>
					<logginginfo>
						<scene/>
						<shottake/>
						<lognote/>
						<good>FALSE</good>
					</logginginfo>
					<labels>
						<label2/>
					</labels>
					<comments>
						<mastercomment1/>
						<mastercomment2/>
						<mastercomment3/>
						<mastercomment4/>
					</comments>
					<file id="AA1463_01 2"/>
					<filter>
						<effect>
							<name>Audio Levels</name>
							<effectid>audiolevels</effectid>
							<effectcategory>audiolevels</effectcategory>
							<effecttype>audiolevels</effecttype>
							<mediatype>audio</mediatype>
							<parameter>
								<name>Level</name>
								<parameterid>level</parameterid>
								<valuemin>0</valuemin>
								<valuemax>3.98109</valuemax>
								<value>1.77828</value>
							</parameter>
						</effect>
					</filter>
					<filter>
						<effect>
							<name>Audio Pan</name>
							<effectid>audiopan</effectid>
							<effectcategory>audiopan</effectcategory>
							<effecttype>audiopan</effecttype>
							<mediatype>audio</mediatype>
							<parameter>
								<name>Pan</name>
								<parameterid>pan</parameterid>
								<valuemin>-1</valuemin>
								<valuemax>1</valuemax>
								<value>0</value>
							</parameter>
						</effect>
					</filter>
					<sourcetrack>
						<mediatype>audio</mediatype>
						<trackindex>2</trackindex>
					</sourcetrack>
					<link>
						<linkclipref>AA1463_01 8</linkclipref>
						<mediatype>video</mediatype>
						<trackindex>1</trackindex>
						<clipindex>238</clipindex>
					</link>
					<link>
						<linkclipref>AA1463_01 9</linkclipref>
						<mediatype>audio</mediatype>
						<trackindex>1</trackindex>
						<clipindex>137</clipindex>
					</link>
					<link>
						<linkclipref>AA1463_01 10</linkclipref>
						<mediatype>audio</mediatype>
						<trackindex>2</trackindex>
						<clipindex>115</clipindex>
					</link>
					<itemhistory>
						<uuid>61DE5051-D053-45B2-8512-E2FF285E426C</uuid>
					</itemhistory>
				</clipitem>
				<clipitem id="AA1463_01 13">
					<name>AA1463_01</name>
					<duration>2856</duration>
					<rate>
						<ntsc>FALSE</ntsc>
						<timebase>25</timebase>
					</rate>
					<in>2195</in>
					<out>2340</out>
					<start>22639</start>
					<end>22784</end>
					<subframeoffset>0</subframeoffset>
					<masterclipid>AA1463_01 1</masterclipid>
					<logginginfo>
						<scene/>
						<shottake/>
						<lognote/>
						<good>FALSE</good>
					</logginginfo>
					<labels>
						<label2/>
					</labels>
					<comments>
						<mastercomment1/>
						<mastercomment2/>
						<mastercomment3/>
						<mastercomment4/>
					</comments>
					<file id="AA1463_01 2"/>
					<filter>
						<effect>
							<name>Audio Levels</name>
							<effectid>audiolevels</effectid>
							<effectcategory>audiolevels</effectcategory>
							<effecttype>audiolevels</effecttype>
							<mediatype>audio</mediatype>
							<parameter>
								<name>Level</name>
								<parameterid>level</parameterid>
								<valuemin>0</valuemin>
								<valuemax>3.98109</valuemax>
								<value>1.77828</value>
							</parameter>
						</effect>
					</filter>
					<filter>
						<effect>
							<name>Audio Pan</name>
							<effectid>audiopan</effectid>
							<effectcategory>audiopan</effectcategory>
							<effecttype>audiopan</effecttype>
							<mediatype>audio</mediatype>
							<parameter>
								<name>Pan</name>
								<parameterid>pan</parameterid>
								<valuemin>-1</valuemin>
								<valuemax>1</valuemax>
								<value>0</value>
							</parameter>
						</effect>
					</filter>
					<sourcetrack>
						<mediatype>audio</mediatype>
						<trackindex>2</trackindex>
					</sourcetrack>
					<link>
						<linkclipref>AA1463_01 11</linkclipref>
						<mediatype>video</mediatype>
						<trackindex>1</trackindex>
						<clipindex>240</clipindex>
					</link>
					<link>
						<linkclipref>AA1463_01 12</linkclipref>
						<mediatype>audio</mediatype>
						<trackindex>1</trackindex>
						<clipindex>138</clipindex>
					</link>
					<link>
						<linkclipref>AA1463_01 13</linkclipref>
						<mediatype>audio</mediatype>
						<trackindex>2</trackindex>
						<clipindex>116</clipindex>
					</link>
					<itemhistory>
						<uuid>6B2D2A59-F646-4A40-BF4D-F7A5487B92BA</uuid>
					</itemhistory>
				</clipitem>
				<clipitem id="AA1469_01 8">
					<name>AA1469_01</name>
					<duration>1848</duration>
					<rate>
						<ntsc>FALSE</ntsc>
						<timebase>25</timebase>
					</rate>
					<in>1333</in>
					<out>1427</out>
					<start>22784</start>
					<end>22878</end>
					<subframeoffset>0</subframeoffset>
					<masterclipid>AA1469_01 1</masterclipid>
					<logginginfo>
						<scene/>
						<shottake/>
						<lognote/>
						<good>FALSE</good>
					</logginginfo>
					<labels>
						<label2/>
					</labels>
					<comments>
						<mastercomment1/>
						<mastercomment2/>
						<mastercomment3/>
						<mastercomment4/>
					</comments>
					<file id="AA1469_01 2"/>
					<filter>
						<effect>
							<name>Audio Levels</name>
							<effectid>audiolevels</effectid>
							<effectcategory>audiolevels</effectcategory>
							<effecttype>audiolevels</effecttype>
							<mediatype>audio</mediatype>
							<parameter>
								<name>Level</name>
								<parameterid>level</parameterid>
								<valuemin>0</valuemin>
								<valuemax>3.98109</valuemax>
								<value>1.99526</value>
							</parameter>
						</effect>
					</filter>
					<filter>
						<effect>
							<name>Audio Pan</name>
							<effectid>audiopan</effectid>
							<effectcategory>audiopan</effectcategory>
							<effecttype>audiopan</effecttype>
							<mediatype>audio</mediatype>
							<parameter>
								<name>Pan</name>
								<parameterid>pan</parameterid>
								<valuemin>-1</valuemin>
								<valuemax>1</valuemax>
								<value>0</value>
							</parameter>
						</effect>
					</filter>
					<sourcetrack>
						<mediatype>audio</mediatype>
						<trackindex>2</trackindex>
					</sourcetrack>
					<link>
						<linkclipref>AA1469_01 6</linkclipref>
						<mediatype>video</mediatype>
						<trackindex>1</trackindex>
						<clipindex>241</clipindex>
					</link>
					<link>
						<linkclipref>AA1469_01 7</linkclipref>
						<mediatype>audio</mediatype>
						<trackindex>1</trackindex>
						<clipindex>139</clipindex>
					</link>
					<link>
						<linkclipref>AA1469_01 8</linkclipref>
						<mediatype>audio</mediatype>
						<trackindex>2</trackindex>
						<clipindex>117</clipindex>
					</link>
					<itemhistory>
						<uuid>684DDB07-F296-485E-B7B2-BDBABEDD81DF</uuid>
					</itemhistory>
				</clipitem>
				<clipitem id="AA1463_01 16">
					<name>AA1463_01</name>
					<duration>2856</duration>
					<rate>
						<ntsc>FALSE</ntsc>
						<timebase>25</timebase>
					</rate>
					<in>2447</in>
					<out>2752</out>
					<start>22878</start>
					<end>23183</end>
					<subframeoffset>0</subframeoffset>
					<masterclipid>AA1463_01 1</masterclipid>
					<logginginfo>
						<scene/>
						<shottake/>
						<lognote/>
						<good>FALSE</good>
					</logginginfo>
					<labels>
						<label2/>
					</labels>
					<comments>
						<mastercomment1/>
						<mastercomment2/>
						<mastercomment3/>
						<mastercomment4/>
					</comments>
					<file id="AA1463_01 2"/>
					<filter>
						<effect>
							<name>Audio Levels</name>
							<effectid>audiolevels</effectid>
							<effectcategory>audiolevels</effectcategory>
							<effecttype>audiolevels</effecttype>
							<mediatype>audio</mediatype>
							<parameter>
								<name>Level</name>
								<parameterid>level</parameterid>
								<valuemin>0</valuemin>
								<valuemax>3.98109</valuemax>
								<keyframe>
									<when>2684.86</when>
									<value>1.77828</value>
								</keyframe>
								<keyframe>
									<when>2699.71</when>
									<value>1</value>
								</keyframe>
								<interpolation>
									<name>FCPCurve</name>
								</interpolation>
								<value>1.77828</value>
							</parameter>
						</effect>
					</filter>
					<filter>
						<effect>
							<name>Audio Pan</name>
							<effectid>audiopan</effectid>
							<effectcategory>audiopan</effectcategory>
							<effecttype>audiopan</effecttype>
							<mediatype>audio</mediatype>
							<parameter>
								<name>Pan</name>
								<parameterid>pan</parameterid>
								<valuemin>-1</valuemin>
								<valuemax>1</valuemax>
								<value>0</value>
							</parameter>
						</effect>
					</filter>
					<sourcetrack>
						<mediatype>audio</mediatype>
						<trackindex>2</trackindex>
					</sourcetrack>
					<link>
						<linkclipref>AA1463_01 14</linkclipref>
						<mediatype>video</mediatype>
						<trackindex>1</trackindex>
						<clipindex>242</clipindex>
					</link>
					<link>
						<linkclipref>AA1463_01 15</linkclipref>
						<mediatype>audio</mediatype>
						<trackindex>1</trackindex>
						<clipindex>140</clipindex>
					</link>
					<link>
						<linkclipref>AA1463_01 16</linkclipref>
						<mediatype>audio</mediatype>
						<trackindex>2</trackindex>
						<clipindex>118</clipindex>
					</link>
					<itemhistory>
						<uuid>FCF770D2-3BFD-45D6-B28E-42CA1A6AC507</uuid>
					</itemhistory>
				</clipitem>
				<clipitem id="AA1471_01 4">
					<name>AA1471_01</name>
					<duration>1032</duration>
					<rate>
						<ntsc>FALSE</ntsc>
						<timebase>25</timebase>
					</rate>
					<in>495</in>
					<out>583</out>
					<start>26246</start>
					<end>26334</end>
					<subframeoffset>0</subframeoffset>
					<masterclipid>AA1471_01 1</masterclipid>
					<logginginfo>
						<scene/>
						<shottake/>
						<lognote/>
						<good>FALSE</good>
					</logginginfo>
					<labels>
						<label2/>
					</labels>
					<comments>
						<mastercomment1/>
						<mastercomment2/>
						<mastercomment3/>
						<mastercomment4/>
					</comments>
					<file id="AA1471_01 2"/>
					<filter>
						<effect>
							<name>Audio Levels</name>
							<effectid>audiolevels</effectid>
							<effectcategory>audiolevels</effectcategory>
							<effecttype>audiolevels</effecttype>
							<mediatype>audio</mediatype>
							<parameter>
								<name>Level</name>
								<parameterid>level</parameterid>
								<valuemin>0</valuemin>
								<valuemax>3.98109</valuemax>
								<value>1</value>
							</parameter>
						</effect>
					</filter>
					<filter>
						<effect>
							<name>Audio Pan</name>
							<effectid>audiopan</effectid>
							<effectcategory>audiopan</effectcategory>
							<effecttype>audiopan</effecttype>
							<mediatype>audio</mediatype>
							<parameter>
								<name>Pan</name>
								<parameterid>pan</parameterid>
								<valuemin>-1</valuemin>
								<valuemax>1</valuemax>
								<value>0</value>
							</parameter>
						</effect>
					</filter>
					<sourcetrack>
						<mediatype>audio</mediatype>
						<trackindex>2</trackindex>
					</sourcetrack>
					<link>
						<linkclipref>AA1471_01 </linkclipref>
						<mediatype>video</mediatype>
						<trackindex>1</trackindex>
						<clipindex>333</clipindex>
					</link>
					<link>
						<linkclipref>AA1471_01 3</linkclipref>
						<mediatype>audio</mediatype>
						<trackindex>1</trackindex>
						<clipindex>141</clipindex>
					</link>
					<link>
						<linkclipref>AA1471_01 4</linkclipref>
						<mediatype>audio</mediatype>
						<trackindex>2</trackindex>
						<clipindex>119</clipindex>
					</link>
					<itemhistory>
						<uuid>6B93C627-1B51-415B-AD7A-E628212ADE50</uuid>
					</itemhistory>
				</clipitem>
				<clipitem id="AA1473_01 4">
					<name>AA1473_01</name>
					<duration>2532</duration>
					<rate>
						<ntsc>FALSE</ntsc>
						<timebase>25</timebase>
					</rate>
					<in>280</in>
					<out>362</out>
					<start>26334</start>
					<end>26416</end>
					<subframeoffset>0</subframeoffset>
					<masterclipid>AA1473_01 1</masterclipid>
					<logginginfo>
						<scene/>
						<shottake/>
						<lognote/>
						<good>FALSE</good>
					</logginginfo>
					<labels>
						<label2/>
					</labels>
					<comments>
						<mastercomment1/>
						<mastercomment2/>
						<mastercomment3/>
						<mastercomment4/>
					</comments>
					<file id="AA1473_01 2"/>
					<filter>
						<effect>
							<name>Audio Levels</name>
							<effectid>audiolevels</effectid>
							<effectcategory>audiolevels</effectcategory>
							<effecttype>audiolevels</effecttype>
							<mediatype>audio</mediatype>
							<parameter>
								<name>Level</name>
								<parameterid>level</parameterid>
								<valuemin>0</valuemin>
								<valuemax>3.98109</valuemax>
								<value>1</value>
							</parameter>
						</effect>
					</filter>
					<filter>
						<effect>
							<name>Audio Pan</name>
							<effectid>audiopan</effectid>
							<effectcategory>audiopan</effectcategory>
							<effecttype>audiopan</effecttype>
							<mediatype>audio</mediatype>
							<parameter>
								<name>Pan</name>
								<parameterid>pan</parameterid>
								<valuemin>-1</valuemin>
								<valuemax>1</valuemax>
								<value>0</value>
							</parameter>
						</effect>
					</filter>
					<sourcetrack>
						<mediatype>audio</mediatype>
						<trackindex>2</trackindex>
					</sourcetrack>
					<link>
						<linkclipref>AA1473_01 </linkclipref>
						<mediatype>video</mediatype>
						<trackindex>1</trackindex>
						<clipindex>334</clipindex>
					</link>
					<link>
						<linkclipref>AA1473_01 3</linkclipref>
						<mediatype>audio</mediatype>
						<trackindex>1</trackindex>
						<clipindex>142</clipindex>
					</link>
					<link>
						<linkclipref>AA1473_01 4</linkclipref>
						<mediatype>audio</mediatype>
						<trackindex>2</trackindex>
						<clipindex>120</clipindex>
					</link>
					<itemhistory>
						<uuid>1A65B240-7F62-4F73-941F-ACEC96231E90</uuid>
					</itemhistory>
				</clipitem>
				<clipitem id="AA1472_01 16">
					<name>AA1472_01</name>
					<duration>3252</duration>
					<rate>
						<ntsc>FALSE</ntsc>
						<timebase>25</timebase>
					</rate>
					<in>227</in>
					<out>256</out>
					<start>26416</start>
					<end>26445</end>
					<subframeoffset>0</subframeoffset>
					<masterclipid>AA1472_01 1</masterclipid>
					<logginginfo>
						<scene/>
						<shottake/>
						<lognote/>
						<good>FALSE</good>
					</logginginfo>
					<labels>
						<label2/>
					</labels>
					<comments>
						<mastercomment1/>
						<mastercomment2/>
						<mastercomment3/>
						<mastercomment4/>
					</comments>
					<file id="AA1472_01 2"/>
					<filter>
						<effect>
							<name>Audio Levels</name>
							<effectid>audiolevels</effectid>
							<effectcategory>audiolevels</effectcategory>
							<effecttype>audiolevels</effecttype>
							<mediatype>audio</mediatype>
							<parameter>
								<name>Level</name>
								<parameterid>level</parameterid>
								<valuemin>0</valuemin>
								<valuemax>3.98109</valuemax>
								<value>1</value>
							</parameter>
						</effect>
					</filter>
					<filter>
						<effect>
							<name>Audio Pan</name>
							<effectid>audiopan</effectid>
							<effectcategory>audiopan</effectcategory>
							<effecttype>audiopan</effecttype>
							<mediatype>audio</mediatype>
							<parameter>
								<name>Pan</name>
								<parameterid>pan</parameterid>
								<valuemin>-1</valuemin>
								<valuemax>1</valuemax>
								<value>0</value>
							</parameter>
						</effect>
					</filter>
					<sourcetrack>
						<mediatype>audio</mediatype>
						<trackindex>2</trackindex>
					</sourcetrack>
					<itemhistory>
						<uuid>273EF07B-C9F1-4723-BD9E-EF92855E0284</uuid>
					</itemhistory>
				</clipitem>
				<clipitem id="AA1472_01 4">
					<name>AA1472_01</name>
					<duration>3252</duration>
					<rate>
						<ntsc>FALSE</ntsc>
						<timebase>25</timebase>
					</rate>
					<in>271</in>
					<out>890</out>
					<start>26445</start>
					<end>27064</end>
					<subframeoffset>0</subframeoffset>
					<masterclipid>AA1472_01 1</masterclipid>
					<logginginfo>
						<scene/>
						<shottake/>
						<lognote/>
						<good>FALSE</good>
					</logginginfo>
					<labels>
						<label2/>
					</labels>
					<comments>
						<mastercomment1/>
						<mastercomment2/>
						<mastercomment3/>
						<mastercomment4/>
					</comments>
					<file id="AA1472_01 2"/>
					<filter>
						<effect>
							<name>Audio Levels</name>
							<effectid>audiolevels</effectid>
							<effectcategory>audiolevels</effectcategory>
							<effecttype>audiolevels</effecttype>
							<mediatype>audio</mediatype>
							<parameter>
								<name>Level</name>
								<parameterid>level</parameterid>
								<valuemin>0</valuemin>
								<valuemax>3.98109</valuemax>
								<value>1</value>
							</parameter>
						</effect>
					</filter>
					<filter>
						<effect>
							<name>Audio Pan</name>
							<effectid>audiopan</effectid>
							<effectcategory>audiopan</effectcategory>
							<effecttype>audiopan</effecttype>
							<mediatype>audio</mediatype>
							<parameter>
								<name>Pan</name>
								<parameterid>pan</parameterid>
								<valuemin>-1</valuemin>
								<valuemax>1</valuemax>
								<value>0</value>
							</parameter>
						</effect>
					</filter>
					<sourcetrack>
						<mediatype>audio</mediatype>
						<trackindex>2</trackindex>
					</sourcetrack>
					<link>
						<linkclipref>AA1472_01 </linkclipref>
						<mediatype>video</mediatype>
						<trackindex>1</trackindex>
						<clipindex>336</clipindex>
					</link>
					<link>
						<linkclipref>AA1472_01 3</linkclipref>
						<mediatype>audio</mediatype>
						<trackindex>1</trackindex>
						<clipindex>144</clipindex>
					</link>
					<link>
						<linkclipref>AA1472_01 4</linkclipref>
						<mediatype>audio</mediatype>
						<trackindex>2</trackindex>
						<clipindex>122</clipindex>
					</link>
					<itemhistory>
						<uuid>F27B920E-7043-42DC-9C82-E9C37EAB6365</uuid>
					</itemhistory>
				</clipitem>
				<clipitem id="AA1474_01 5">
					<name>AA1474_01</name>
					<duration>636</duration>
					<rate>
						<ntsc>FALSE</ntsc>
						<timebase>25</timebase>
					</rate>
					<in>378</in>
					<out>435</out>
					<start>27064</start>
					<end>27121</end>
					<subframeoffset>0</subframeoffset>
					<masterclipid>AA1474_01 1</masterclipid>
					<syncoffset>0</syncoffset>
					<logginginfo>
						<scene/>
						<shottake/>
						<lognote/>
						<good>FALSE</good>
					</logginginfo>
					<labels>
						<label2/>
					</labels>
					<comments>
						<mastercomment1/>
						<mastercomment2/>
						<mastercomment3/>
						<mastercomment4/>
					</comments>
					<file id="AA1474_01 2"/>
					<filter>
						<effect>
							<name>Audio Levels</name>
							<effectid>audiolevels</effectid>
							<effectcategory>audiolevels</effectcategory>
							<effecttype>audiolevels</effecttype>
							<mediatype>audio</mediatype>
							<parameter>
								<name>Level</name>
								<parameterid>level</parameterid>
								<valuemin>0</valuemin>
								<valuemax>3.98109</valuemax>
								<value>1</value>
							</parameter>
						</effect>
					</filter>
					<filter>
						<effect>
							<name>Audio Pan</name>
							<effectid>audiopan</effectid>
							<effectcategory>audiopan</effectcategory>
							<effecttype>audiopan</effecttype>
							<mediatype>audio</mediatype>
							<parameter>
								<name>Pan</name>
								<parameterid>pan</parameterid>
								<valuemin>-1</valuemin>
								<valuemax>1</valuemax>
								<value>0</value>
							</parameter>
						</effect>
					</filter>
					<sourcetrack>
						<mediatype>audio</mediatype>
						<trackindex>2</trackindex>
					</sourcetrack>
					<link>
						<linkclipref>AA1474_01 3</linkclipref>
						<mediatype>video</mediatype>
						<trackindex>1</trackindex>
						<clipindex>339</clipindex>
					</link>
					<link>
						<linkclipref>AA1474_01 4</linkclipref>
						<mediatype>audio</mediatype>
						<trackindex>1</trackindex>
						<clipindex>145</clipindex>
					</link>
					<link>
						<linkclipref>AA1474_01 5</linkclipref>
						<mediatype>audio</mediatype>
						<trackindex>2</trackindex>
						<clipindex>123</clipindex>
					</link>
					<itemhistory>
						<uuid>7C8A4D7D-022F-41C8-971E-13EACE256B41</uuid>
					</itemhistory>
				</clipitem>
				<clipitem id="AA1472_01 8">
					<name>AA1472_01</name>
					<duration>3252</duration>
					<rate>
						<ntsc>FALSE</ntsc>
						<timebase>25</timebase>
					</rate>
					<in>889</in>
					<out>1138</out>
					<start>27121</start>
					<end>27370</end>
					<subframeoffset>0</subframeoffset>
					<masterclipid>AA1472_01 1</masterclipid>
					<syncoffset>0</syncoffset>
					<logginginfo>
						<scene/>
						<shottake/>
						<lognote/>
						<good>FALSE</good>
					</logginginfo>
					<labels>
						<label2/>
					</labels>
					<comments>
						<mastercomment1/>
						<mastercomment2/>
						<mastercomment3/>
						<mastercomment4/>
					</comments>
					<file id="AA1472_01 2"/>
					<filter>
						<effect>
							<name>Audio Levels</name>
							<effectid>audiolevels</effectid>
							<effectcategory>audiolevels</effectcategory>
							<effecttype>audiolevels</effecttype>
							<mediatype>audio</mediatype>
							<parameter>
								<name>Level</name>
								<parameterid>level</parameterid>
								<valuemin>0</valuemin>
								<valuemax>3.98109</valuemax>
								<value>1</value>
							</parameter>
						</effect>
					</filter>
					<filter>
						<effect>
							<name>Audio Pan</name>
							<effectid>audiopan</effectid>
							<effectcategory>audiopan</effectcategory>
							<effecttype>audiopan</effecttype>
							<mediatype>audio</mediatype>
							<parameter>
								<name>Pan</name>
								<parameterid>pan</parameterid>
								<valuemin>-1</valuemin>
								<valuemax>1</valuemax>
								<value>0</value>
							</parameter>
						</effect>
					</filter>
					<sourcetrack>
						<mediatype>audio</mediatype>
						<trackindex>2</trackindex>
					</sourcetrack>
					<link>
						<linkclipref>AA1472_01 6</linkclipref>
						<mediatype>video</mediatype>
						<trackindex>1</trackindex>
						<clipindex>340</clipindex>
					</link>
					<link>
						<linkclipref>AA1472_01 7</linkclipref>
						<mediatype>audio</mediatype>
						<trackindex>1</trackindex>
						<clipindex>146</clipindex>
					</link>
					<link>
						<linkclipref>AA1472_01 8</linkclipref>
						<mediatype>audio</mediatype>
						<trackindex>2</trackindex>
						<clipindex>124</clipindex>
					</link>
					<itemhistory>
						<uuid>D5EE3E78-95B6-4D4B-BBC5-4267F7D37B16</uuid>
					</itemhistory>
				</clipitem>
				<clipitem id="AA1473_01 8">
					<name>AA1473_01</name>
					<duration>2532</duration>
					<rate>
						<ntsc>FALSE</ntsc>
						<timebase>25</timebase>
					</rate>
					<in>1286</in>
					<out>1554</out>
					<start>27370</start>
					<end>27638</end>
					<subframeoffset>0</subframeoffset>
					<masterclipid>AA1473_01 1</masterclipid>
					<logginginfo>
						<scene/>
						<shottake/>
						<lognote/>
						<good>FALSE</good>
					</logginginfo>
					<labels>
						<label2/>
					</labels>
					<comments>
						<mastercomment1/>
						<mastercomment2/>
						<mastercomment3/>
						<mastercomment4/>
					</comments>
					<file id="AA1473_01 2"/>
					<filter>
						<effect>
							<name>Audio Levels</name>
							<effectid>audiolevels</effectid>
							<effectcategory>audiolevels</effectcategory>
							<effecttype>audiolevels</effecttype>
							<mediatype>audio</mediatype>
							<parameter>
								<name>Level</name>
								<parameterid>level</parameterid>
								<valuemin>0</valuemin>
								<valuemax>3.98109</valuemax>
								<value>1</value>
							</parameter>
						</effect>
					</filter>
					<filter>
						<effect>
							<name>Audio Pan</name>
							<effectid>audiopan</effectid>
							<effectcategory>audiopan</effectcategory>
							<effecttype>audiopan</effecttype>
							<mediatype>audio</mediatype>
							<parameter>
								<name>Pan</name>
								<parameterid>pan</parameterid>
								<valuemin>-1</valuemin>
								<valuemax>1</valuemax>
								<value>0</value>
							</parameter>
						</effect>
					</filter>
					<sourcetrack>
						<mediatype>audio</mediatype>
						<trackindex>2</trackindex>
					</sourcetrack>
					<link>
						<linkclipref>AA1473_01 6</linkclipref>
						<mediatype>video</mediatype>
						<trackindex>1</trackindex>
						<clipindex>341</clipindex>
					</link>
					<link>
						<linkclipref>AA1473_01 7</linkclipref>
						<mediatype>audio</mediatype>
						<trackindex>1</trackindex>
						<clipindex>147</clipindex>
					</link>
					<link>
						<linkclipref>AA1473_01 8</linkclipref>
						<mediatype>audio</mediatype>
						<trackindex>2</trackindex>
						<clipindex>125</clipindex>
					</link>
					<itemhistory>
						<uuid>D37EDEB6-589F-41C6-BA16-B7BFA052CF8F</uuid>
					</itemhistory>
				</clipitem>
				<clipitem id="AA1472_01 11">
					<name>AA1472_01</name>
					<duration>3252</duration>
					<rate>
						<ntsc>FALSE</ntsc>
						<timebase>25</timebase>
					</rate>
					<in>1389</in>
					<out>1958</out>
					<start>27638</start>
					<end>-1</end>
					<subframeoffset>0</subframeoffset>
					<masterclipid>AA1472_01 1</masterclipid>
					<syncoffset>0</syncoffset>
					<logginginfo>
						<scene/>
						<shottake/>
						<lognote/>
						<good>FALSE</good>
					</logginginfo>
					<labels>
						<label2/>
					</labels>
					<comments>
						<mastercomment1/>
						<mastercomment2/>
						<mastercomment3/>
						<mastercomment4/>
					</comments>
					<file id="AA1472_01 2"/>
					<filter>
						<effect>
							<name>Audio Levels</name>
							<effectid>audiolevels</effectid>
							<effectcategory>audiolevels</effectcategory>
							<effecttype>audiolevels</effecttype>
							<mediatype>audio</mediatype>
							<parameter>
								<name>Level</name>
								<parameterid>level</parameterid>
								<valuemin>0</valuemin>
								<valuemax>3.98109</valuemax>
								<value>1</value>
							</parameter>
						</effect>
					</filter>
					<filter>
						<effect>
							<name>Audio Pan</name>
							<effectid>audiopan</effectid>
							<effectcategory>audiopan</effectcategory>
							<effecttype>audiopan</effecttype>
							<mediatype>audio</mediatype>
							<parameter>
								<name>Pan</name>
								<parameterid>pan</parameterid>
								<valuemin>-1</valuemin>
								<valuemax>1</valuemax>
								<value>0</value>
							</parameter>
						</effect>
					</filter>
					<sourcetrack>
						<mediatype>audio</mediatype>
						<trackindex>2</trackindex>
					</sourcetrack>
					<link>
						<linkclipref>AA1472_01 9</linkclipref>
						<mediatype>video</mediatype>
						<trackindex>1</trackindex>
						<clipindex>342</clipindex>
					</link>
					<link>
						<linkclipref>AA1472_01 10</linkclipref>
						<mediatype>audio</mediatype>
						<trackindex>1</trackindex>
						<clipindex>148</clipindex>
					</link>
					<link>
						<linkclipref>AA1472_01 11</linkclipref>
						<mediatype>audio</mediatype>
						<trackindex>2</trackindex>
						<clipindex>126</clipindex>
					</link>
					<itemhistory>
						<uuid>371D3225-54F4-4CC5-8C93-8419D8B15F69</uuid>
					</itemhistory>
				</clipitem>
				<transitionitem>
					<rate>
						<ntsc>FALSE</ntsc>
						<timebase>25</timebase>
					</rate>
					<start>28204</start>
					<end>28207</end>
					<alignment>center</alignment>
					<effect>
						<name>Cross Fade (+3dB)</name>
						<effectid>KGAudioTransCrossFade3dB</effectid>
						<effecttype>transition</effecttype>
						<mediatype>audio</mediatype>
					</effect>
				</transitionitem>
				<clipitem id="AA1473_01 11">
					<name>AA1473_01</name>
					<duration>2532</duration>
					<rate>
						<ntsc>FALSE</ntsc>
						<timebase>25</timebase>
					</rate>
					<in>2093</in>
					<out>2163</out>
					<start>-1</start>
					<end>28274</end>
					<subframeoffset>0</subframeoffset>
					<masterclipid>AA1473_01 1</masterclipid>
					<logginginfo>
						<scene/>
						<shottake/>
						<lognote/>
						<good>FALSE</good>
					</logginginfo>
					<labels>
						<label2/>
					</labels>
					<comments>
						<mastercomment1/>
						<mastercomment2/>
						<mastercomment3/>
						<mastercomment4/>
					</comments>
					<file id="AA1473_01 2"/>
					<filter>
						<effect>
							<name>Audio Levels</name>
							<effectid>audiolevels</effectid>
							<effectcategory>audiolevels</effectcategory>
							<effecttype>audiolevels</effecttype>
							<mediatype>audio</mediatype>
							<parameter>
								<name>Level</name>
								<parameterid>level</parameterid>
								<valuemin>0</valuemin>
								<valuemax>3.98109</valuemax>
								<value>1.77828</value>
							</parameter>
						</effect>
					</filter>
					<filter>
						<effect>
							<name>Audio Pan</name>
							<effectid>audiopan</effectid>
							<effectcategory>audiopan</effectcategory>
							<effecttype>audiopan</effecttype>
							<mediatype>audio</mediatype>
							<parameter>
								<name>Pan</name>
								<parameterid>pan</parameterid>
								<valuemin>-1</valuemin>
								<valuemax>1</valuemax>
								<value>0</value>
							</parameter>
						</effect>
					</filter>
					<sourcetrack>
						<mediatype>audio</mediatype>
						<trackindex>2</trackindex>
					</sourcetrack>
					<link>
						<linkclipref>AA1473_01 9</linkclipref>
						<mediatype>video</mediatype>
						<trackindex>1</trackindex>
						<clipindex>343</clipindex>
					</link>
					<link>
						<linkclipref>AA1473_01 10</linkclipref>
						<mediatype>audio</mediatype>
						<trackindex>1</trackindex>
						<clipindex>150</clipindex>
					</link>
					<link>
						<linkclipref>AA1473_01 11</linkclipref>
						<mediatype>audio</mediatype>
						<trackindex>2</trackindex>
						<clipindex>128</clipindex>
					</link>
					<itemhistory>
						<uuid>8374A29F-C7E4-4B97-A198-C59AD173D76E</uuid>
					</itemhistory>
				</clipitem>
				<clipitem id="AA1472_01 14">
					<name>AA1472_01</name>
					<duration>3252</duration>
					<rate>
						<ntsc>FALSE</ntsc>
						<timebase>25</timebase>
					</rate>
					<in>2172</in>
					<out>2926</out>
					<start>28274</start>
					<end>29028</end>
					<subframeoffset>0</subframeoffset>
					<masterclipid>AA1472_01 1</masterclipid>
					<syncoffset>0</syncoffset>
					<logginginfo>
						<scene/>
						<shottake/>
						<lognote/>
						<good>FALSE</good>
					</logginginfo>
					<labels>
						<label2/>
					</labels>
					<comments>
						<mastercomment1/>
						<mastercomment2/>
						<mastercomment3/>
						<mastercomment4/>
					</comments>
					<file id="AA1472_01 2"/>
					<filter>
						<effect>
							<name>Audio Levels</name>
							<effectid>audiolevels</effectid>
							<effectcategory>audiolevels</effectcategory>
							<effecttype>audiolevels</effecttype>
							<mediatype>audio</mediatype>
							<parameter>
								<name>Level</name>
								<parameterid>level</parameterid>
								<valuemin>0</valuemin>
								<valuemax>3.98109</valuemax>
								<keyframe>
									<when>2783</when>
									<value>1</value>
								</keyframe>
								<keyframe>
									<when>2925.43</when>
									<value>0</value>
								</keyframe>
								<interpolation>
									<name>FCPCurve</name>
								</interpolation>
								<value>1</value>
							</parameter>
						</effect>
					</filter>
					<filter>
						<effect>
							<name>Audio Pan</name>
							<effectid>audiopan</effectid>
							<effectcategory>audiopan</effectcategory>
							<effecttype>audiopan</effecttype>
							<mediatype>audio</mediatype>
							<parameter>
								<name>Pan</name>
								<parameterid>pan</parameterid>
								<valuemin>-1</valuemin>
								<valuemax>1</valuemax>
								<value>0</value>
							</parameter>
						</effect>
					</filter>
					<sourcetrack>
						<mediatype>audio</mediatype>
						<trackindex>2</trackindex>
					</sourcetrack>
					<link>
						<linkclipref>AA1472_01 12</linkclipref>
						<mediatype>video</mediatype>
						<trackindex>1</trackindex>
						<clipindex>344</clipindex>
					</link>
					<link>
						<linkclipref>AA1472_01 13</linkclipref>
						<mediatype>audio</mediatype>
						<trackindex>1</trackindex>
						<clipindex>151</clipindex>
					</link>
					<link>
						<linkclipref>AA1472_01 14</linkclipref>
						<mediatype>audio</mediatype>
						<trackindex>2</trackindex>
						<clipindex>129</clipindex>
					</link>
					<itemhistory>
						<uuid>2BAE9E74-AB70-45E3-8BAA-E0B159507AAF</uuid>
					</itemhistory>
				</clipitem>
				<enabled>TRUE</enabled>
				<locked>FALSE</locked>
				<outputchannelindex>2</outputchannelindex>
			</track>
			<track>
				<clipitem id="Kraakeklubben Teasere sesong 2.WAV">
					<name>Kraakeklubben Teasere sesong 2.WAV</name>
					<duration>15317</duration>
					<rate>
						<ntsc>FALSE</ntsc>
						<timebase>25</timebase>
					</rate>
					<in>2334</in>
					<out>2438</out>
					<start>407</start>
					<end>511</end>
					<subframeoffset>0</subframeoffset>
					<masterclipid>Kraakeklubben Teasere sesong 2.WAV1</masterclipid>
					<logginginfo>
						<scene/>
						<shottake/>
						<lognote/>
						<good>FALSE</good>
					</logginginfo>
					<labels>
						<label2/>
					</labels>
					<comments>
						<mastercomment1/>
						<mastercomment2/>
						<mastercomment3/>
						<mastercomment4/>
					</comments>
					<file id="Kraakeklubben Teasere sesong 2 ">
						<name>Kraakeklubben Teasere sesong 2.WAV</name>
						<pathurl>file://localhost/Volumes/Askepott/Prosjekter/DNPR637010_Kra%CC%8Akeklubben_TEM_011212/LYD/Kraakeklubben%20Teasere%20sesong%202.WAV</pathurl>
						<rate>
							<timebase>25</timebase>
						</rate>
						<duration>15317</duration>
						<media>
							<audio>
								<samplecharacteristics>
									<samplerate>48000</samplerate>
									<depth>16</depth>
								</samplecharacteristics>
								<channelcount>2</channelcount>
							</audio>
						</media>
					</file>
					<filter>
						<effect>
							<name>Audio Levels</name>
							<effectid>audiolevels</effectid>
							<effectcategory>audiolevels</effectcategory>
							<effecttype>audiolevels</effecttype>
							<mediatype>audio</mediatype>
							<parameter>
								<name>Level</name>
								<parameterid>level</parameterid>
								<valuemin>0</valuemin>
								<valuemax>3.98109</valuemax>
								<value>1</value>
							</parameter>
						</effect>
					</filter>
					<filter>
						<effect>
							<name>Audio Pan</name>
							<effectid>audiopan</effectid>
							<effectcategory>audiopan</effectcategory>
							<effecttype>audiopan</effecttype>
							<mediatype>audio</mediatype>
							<parameter>
								<name>Pan</name>
								<parameterid>pan</parameterid>
								<valuemin>-1</valuemin>
								<valuemax>1</valuemax>
								<value>-1</value>
							</parameter>
						</effect>
					</filter>
					<sourcetrack>
						<mediatype>audio</mediatype>
						<trackindex>1</trackindex>
					</sourcetrack>
					<link>
						<linkclipref>Kraakeklubben Teasere sesong 2.WAV</linkclipref>
						<mediatype>audio</mediatype>
						<trackindex>3</trackindex>
						<clipindex>1</clipindex>
						<groupindex>1</groupindex>
					</link>
					<link>
						<linkclipref>Kraakeklubben Teasere sesong 2.WAV2</linkclipref>
						<mediatype>audio</mediatype>
						<trackindex>4</trackindex>
						<clipindex>1</clipindex>
						<groupindex>1</groupindex>
					</link>
					<itemhistory>
						<uuid>782728D0-9F16-49D2-A434-9D32CB05B93B</uuid>
					</itemhistory>
				</clipitem>
				<clipitem id="Kraakeklubben Teasere sesong 2.WAV3">
					<name>Kraakeklubben Teasere sesong 2.WAV</name>
					<duration>15317</duration>
					<rate>
						<ntsc>FALSE</ntsc>
						<timebase>25</timebase>
					</rate>
					<in>2451</in>
					<out>2578</out>
					<start>511</start>
					<end>638</end>
					<subframeoffset>0</subframeoffset>
					<masterclipid>Kraakeklubben Teasere sesong 2.WAV1</masterclipid>
					<logginginfo>
						<scene/>
						<shottake/>
						<lognote/>
						<good>FALSE</good>
					</logginginfo>
					<labels>
						<label2/>
					</labels>
					<comments>
						<mastercomment1/>
						<mastercomment2/>
						<mastercomment3/>
						<mastercomment4/>
					</comments>
					<file id="Kraakeklubben Teasere sesong 2 "/>
					<filter>
						<effect>
							<name>Audio Levels</name>
							<effectid>audiolevels</effectid>
							<effectcategory>audiolevels</effectcategory>
							<effecttype>audiolevels</effecttype>
							<mediatype>audio</mediatype>
							<parameter>
								<name>Level</name>
								<parameterid>level</parameterid>
								<valuemin>0</valuemin>
								<valuemax>3.98109</valuemax>
								<value>1</value>
							</parameter>
						</effect>
					</filter>
					<filter>
						<effect>
							<name>Audio Pan</name>
							<effectid>audiopan</effectid>
							<effectcategory>audiopan</effectcategory>
							<effecttype>audiopan</effecttype>
							<mediatype>audio</mediatype>
							<parameter>
								<name>Pan</name>
								<parameterid>pan</parameterid>
								<valuemin>-1</valuemin>
								<valuemax>1</valuemax>
								<value>-1</value>
							</parameter>
						</effect>
					</filter>
					<sourcetrack>
						<mediatype>audio</mediatype>
						<trackindex>1</trackindex>
					</sourcetrack>
					<link>
						<linkclipref>Kraakeklubben Teasere sesong 2.WAV3</linkclipref>
						<mediatype>audio</mediatype>
						<trackindex>3</trackindex>
						<clipindex>2</clipindex>
						<groupindex>1</groupindex>
					</link>
					<link>
						<linkclipref>Kraakeklubben Teasere sesong 2.WAV4</linkclipref>
						<mediatype>audio</mediatype>
						<trackindex>4</trackindex>
						<clipindex>2</clipindex>
						<groupindex>1</groupindex>
					</link>
					<itemhistory>
						<uuid>60FA48FC-1E07-4D8B-A721-E1C85AF41651</uuid>
					</itemhistory>
				</clipitem>
				<clipitem id="Kraakeklubben Teasere sesong 2.WAV5">
					<name>Kraakeklubben Teasere sesong 2.WAV</name>
					<duration>15317</duration>
					<rate>
						<ntsc>FALSE</ntsc>
						<timebase>25</timebase>
					</rate>
					<in>2581</in>
					<out>2599</out>
					<start>638</start>
					<end>656</end>
					<subframeoffset>0</subframeoffset>
					<masterclipid>Kraakeklubben Teasere sesong 2.WAV1</masterclipid>
					<logginginfo>
						<scene/>
						<shottake/>
						<lognote/>
						<good>FALSE</good>
					</logginginfo>
					<labels>
						<label2/>
					</labels>
					<comments>
						<mastercomment1/>
						<mastercomment2/>
						<mastercomment3/>
						<mastercomment4/>
					</comments>
					<file id="Kraakeklubben Teasere sesong 2 "/>
					<filter>
						<effect>
							<name>Audio Levels</name>
							<effectid>audiolevels</effectid>
							<effectcategory>audiolevels</effectcategory>
							<effecttype>audiolevels</effecttype>
							<mediatype>audio</mediatype>
							<parameter>
								<name>Level</name>
								<parameterid>level</parameterid>
								<valuemin>0</valuemin>
								<valuemax>3.98109</valuemax>
								<value>1</value>
							</parameter>
						</effect>
					</filter>
					<filter>
						<effect>
							<name>Audio Pan</name>
							<effectid>audiopan</effectid>
							<effectcategory>audiopan</effectcategory>
							<effecttype>audiopan</effecttype>
							<mediatype>audio</mediatype>
							<parameter>
								<name>Pan</name>
								<parameterid>pan</parameterid>
								<valuemin>-1</valuemin>
								<valuemax>1</valuemax>
								<value>-1</value>
							</parameter>
						</effect>
					</filter>
					<sourcetrack>
						<mediatype>audio</mediatype>
						<trackindex>1</trackindex>
					</sourcetrack>
					<link>
						<linkclipref>Kraakeklubben Teasere sesong 2.WAV5</linkclipref>
						<mediatype>audio</mediatype>
						<trackindex>3</trackindex>
						<clipindex>3</clipindex>
						<groupindex>1</groupindex>
					</link>
					<link>
						<linkclipref>Kraakeklubben Teasere sesong 2.WAV6</linkclipref>
						<mediatype>audio</mediatype>
						<trackindex>4</trackindex>
						<clipindex>3</clipindex>
						<groupindex>1</groupindex>
					</link>
					<itemhistory>
						<uuid>D8E85BFE-CE9A-4FCE-A40F-09D4C4A6FC65</uuid>
					</itemhistory>
				</clipitem>
				<clipitem id="Kraakeklubben Teasere sesong 2.WAV7">
					<name>Kraakeklubben Teasere sesong 2.WAV</name>
					<duration>15317</duration>
					<rate>
						<ntsc>FALSE</ntsc>
						<timebase>25</timebase>
					</rate>
					<in>2617</in>
					<out>2683</out>
					<start>656</start>
					<end>722</end>
					<subframeoffset>0</subframeoffset>
					<masterclipid>Kraakeklubben Teasere sesong 2.WAV1</masterclipid>
					<logginginfo>
						<scene/>
						<shottake/>
						<lognote/>
						<good>FALSE</good>
					</logginginfo>
					<labels>
						<label2/>
					</labels>
					<comments>
						<mastercomment1/>
						<mastercomment2/>
						<mastercomment3/>
						<mastercomment4/>
					</comments>
					<file id="Kraakeklubben Teasere sesong 2 "/>
					<filter>
						<effect>
							<name>Audio Levels</name>
							<effectid>audiolevels</effectid>
							<effectcategory>audiolevels</effectcategory>
							<effecttype>audiolevels</effecttype>
							<mediatype>audio</mediatype>
							<parameter>
								<name>Level</name>
								<parameterid>level</parameterid>
								<valuemin>0</valuemin>
								<valuemax>3.98109</valuemax>
								<value>1</value>
							</parameter>
						</effect>
					</filter>
					<filter>
						<effect>
							<name>Audio Pan</name>
							<effectid>audiopan</effectid>
							<effectcategory>audiopan</effectcategory>
							<effecttype>audiopan</effecttype>
							<mediatype>audio</mediatype>
							<parameter>
								<name>Pan</name>
								<parameterid>pan</parameterid>
								<valuemin>-1</valuemin>
								<valuemax>1</valuemax>
								<value>-1</value>
							</parameter>
						</effect>
					</filter>
					<sourcetrack>
						<mediatype>audio</mediatype>
						<trackindex>1</trackindex>
					</sourcetrack>
					<link>
						<linkclipref>Kraakeklubben Teasere sesong 2.WAV7</linkclipref>
						<mediatype>audio</mediatype>
						<trackindex>3</trackindex>
						<clipindex>4</clipindex>
						<groupindex>1</groupindex>
					</link>
					<link>
						<linkclipref>Kraakeklubben Teasere sesong 2.WAV8</linkclipref>
						<mediatype>audio</mediatype>
						<trackindex>4</trackindex>
						<clipindex>4</clipindex>
						<groupindex>1</groupindex>
					</link>
					<itemhistory>
						<uuid>C672B433-4472-4A65-8F4E-80B5B76DF592</uuid>
					</itemhistory>
				</clipitem>
				<clipitem id="KongleWipe start -2 frames før første bilde.wav">
					<name>KongleWipe start -2 frames før første bilde.wav</name>
					<duration>60</duration>
					<rate>
						<ntsc>FALSE</ntsc>
						<timebase>25</timebase>
					</rate>
					<in>0</in>
					<out>48</out>
					<start>831</start>
					<end>-1</end>
					<subframeoffset>0</subframeoffset>
					<enabled>TRUE</enabled>
					<masterclipid>KongleWipe start -2 frames før første bilde.wav1</masterclipid>
					<logginginfo>
						<scene/>
						<shottake/>
						<lognote/>
						<good>FALSE</good>
					</logginginfo>
					<labels>
						<label2/>
					</labels>
					<comments>
						<mastercomment1/>
						<mastercomment2/>
						<mastercomment3/>
						<mastercomment4/>
					</comments>
					<file id="KongleWipe start -2 frames før første bilde">
						<name>KongleWipe start -2 frames før første bilde.wav</name>
						<pathurl>file://localhost/Volumes/Askepott/Prosjekter/DNPR637010_Kra%CC%8Akeklubben_TEM_011212/Lydeffekter/KongleWipe%20start%20-2%20frames%20f%C3%B8r%20f%C3%B8rste%20bilde.wav</pathurl>
						<rate>
							<timebase>25</timebase>
						</rate>
						<duration>60</duration>
						<timecode>
							<rate>
								<timebase>25</timebase>
							</rate>
							<string>00:01:01:09</string>
							<frame>1534</frame>
							<displayformat>NDF</displayformat>
							<source>source</source>
						</timecode>
						<media>
							<audio>
								<samplecharacteristics>
									<samplerate>48000</samplerate>
									<depth>24</depth>
								</samplecharacteristics>
								<channelcount>2</channelcount>
							</audio>
						</media>
					</file>
					<filter>
						<enabled>TRUE</enabled>
						<start>-1</start>
						<end>-1</end>
						<effect>
							<name>3 Band Equalizer</name>
							<effectid>{61756678, 33426e64, 4b657947}</effectid>
							<effecttype>filter</effecttype>
							<mediatype>audio</mediatype>
							<parameter>
								<parameterid>Low Frequency</parameterid>
								<parameterspecifier>0:0:0</parameterspecifier>
								<name>Low Frequency</name>
								<valuemin>80</valuemin>
								<valuemax>2000</valuemax>
								<value>500</value>
							</parameter>
							<parameter>
								<parameterid>Low Gain(dB)</parameterid>
								<parameterspecifier>1:0:0</parameterspecifier>
								<name>Low Gain(dB)</name>
								<valuemin>-20</valuemin>
								<valuemax>20</valuemax>
								<value>11</value>
							</parameter>
							<parameter>
								<parameterid>Mid Frequency</parameterid>
								<parameterspecifier>2:0:0</parameterspecifier>
								<name>Mid Frequency</name>
								<valuemin>400</valuemin>
								<valuemax>8000</valuemax>
								<value>2200</value>
							</parameter>
							<parameter>
								<parameterid>Mid Gain(dB)</parameterid>
								<parameterspecifier>3:0:0</parameterspecifier>
								<name>Mid Gain(dB)</name>
								<valuemin>-20</valuemin>
								<valuemax>20</valuemax>
								<value>-10</value>
							</parameter>
							<parameter>
								<parameterid>High Frequency</parameterid>
								<parameterspecifier>4:0:0</parameterspecifier>
								<name>High Frequency</name>
								<valuemin>5000</valuemin>
								<valuemax>20000</valuemax>
								<value>5000</value>
							</parameter>
							<parameter>
								<parameterid>High Gain(dB)</parameterid>
								<parameterspecifier>5:0:0</parameterspecifier>
								<name>High Gain(dB)</name>
								<valuemin>-20</valuemin>
								<valuemax>20</valuemax>
								<value>-13</value>
							</parameter>
						</effect>
					</filter>
					<filter>
						<effect>
							<name>Audio Levels</name>
							<effectid>audiolevels</effectid>
							<effectcategory>audiolevels</effectcategory>
							<effecttype>audiolevels</effecttype>
							<mediatype>audio</mediatype>
							<parameter>
								<name>Level</name>
								<parameterid>level</parameterid>
								<valuemin>0</valuemin>
								<valuemax>3.98109</valuemax>
								<value>0.398107</value>
							</parameter>
						</effect>
					</filter>
					<filter>
						<effect>
							<name>Audio Pan</name>
							<effectid>audiopan</effectid>
							<effectcategory>audiopan</effectcategory>
							<effecttype>audiopan</effecttype>
							<mediatype>audio</mediatype>
							<parameter>
								<name>Pan</name>
								<parameterid>pan</parameterid>
								<valuemin>-1</valuemin>
								<valuemax>1</valuemax>
								<value>-1</value>
							</parameter>
						</effect>
					</filter>
					<sourcetrack>
						<mediatype>audio</mediatype>
						<trackindex>1</trackindex>
					</sourcetrack>
					<link>
						<linkclipref>KongleWipe start -2 frames før første bilde.wav</linkclipref>
						<mediatype>audio</mediatype>
						<trackindex>3</trackindex>
						<clipindex>5</clipindex>
						<groupindex>1</groupindex>
					</link>
					<link>
						<linkclipref>KongleWipe start -2 frames før første bilde.wav2</linkclipref>
						<mediatype>audio</mediatype>
						<trackindex>4</trackindex>
						<clipindex>5</clipindex>
						<groupindex>1</groupindex>
					</link>
					<itemhistory>
						<uuid>842BB61F-55E4-4C5F-8B42-75961FA31914</uuid>
					</itemhistory>
				</clipitem>
				<transitionitem>
					<rate>
						<ntsc>FALSE</ntsc>
						<timebase>25</timebase>
					</rate>
					<start>846</start>
					<end>879</end>
					<alignment>end-black</alignment>
					<effect>
						<name>Cross Fade (+3dB)</name>
						<effectid>KGAudioTransCrossFade3dB</effectid>
						<effecttype>transition</effecttype>
						<mediatype>audio</mediatype>
					</effect>
				</transitionitem>
				<clipitem id="Clip1ATK34 3">
					<name>Clip1ATK34</name>
					<duration>666</duration>
					<rate>
						<ntsc>FALSE</ntsc>
						<timebase>25</timebase>
					</rate>
					<in>285</in>
					<out>440</out>
					<start>1095</start>
					<end>1250</end>
					<subframeoffset>0</subframeoffset>
					<masterclipid>Clip1ATK34 1</masterclipid>
					<logginginfo>
						<scene/>
						<shottake/>
						<lognote/>
						<good>FALSE</good>
					</logginginfo>
					<labels>
						<label2/>
					</labels>
					<comments>
						<mastercomment1/>
						<mastercomment2/>
						<mastercomment3/>
						<mastercomment4/>
					</comments>
					<file id="Clip1ATK34 2"/>
					<filter>
						<effect>
							<name>Audio Levels</name>
							<effectid>audiolevels</effectid>
							<effectcategory>audiolevels</effectcategory>
							<effecttype>audiolevels</effecttype>
							<mediatype>audio</mediatype>
							<parameter>
								<name>Level</name>
								<parameterid>level</parameterid>
								<valuemin>0</valuemin>
								<valuemax>3.98109</valuemax>
								<value>1.77828</value>
							</parameter>
						</effect>
					</filter>
					<filter>
						<effect>
							<name>Audio Pan</name>
							<effectid>audiopan</effectid>
							<effectcategory>audiopan</effectcategory>
							<effecttype>audiopan</effecttype>
							<mediatype>audio</mediatype>
							<parameter>
								<name>Pan</name>
								<parameterid>pan</parameterid>
								<valuemin>-1</valuemin>
								<valuemax>1</valuemax>
								<value>0</value>
							</parameter>
						</effect>
					</filter>
					<sourcetrack>
						<mediatype>audio</mediatype>
						<trackindex>2</trackindex>
					</sourcetrack>
					<link>
						<linkclipref>Clip1ATK34 </linkclipref>
						<mediatype>video</mediatype>
						<trackindex>2</trackindex>
						<clipindex>3</clipindex>
					</link>
					<link>
						<linkclipref>Clip1ATK34 3</linkclipref>
						<mediatype>audio</mediatype>
						<trackindex>3</trackindex>
						<clipindex>7</clipindex>
					</link>
					<itemhistory>
						<uuid>5A8F8493-530B-44FA-8F98-1E4271101CDA</uuid>
					</itemhistory>
				</clipitem>
				<clipitem id="SPACEWHOO…HOOSHBYSI60404904.WAV">
					<name>SPACEWHOO…HOOSHBYSI60404904.WAV</name>
					<duration>127</duration>
					<rate>
						<ntsc>FALSE</ntsc>
						<timebase>25</timebase>
					</rate>
					<in>8</in>
					<out>61</out>
					<start>2926</start>
					<end>2979</end>
					<subframeoffset>0</subframeoffset>
					<enabled>TRUE</enabled>
					<masterclipid>SPACEWHOO…HOOSHBYSI60404904.WAV1</masterclipid>
					<logginginfo>
						<scene/>
						<shottake/>
						<lognote/>
						<good>FALSE</good>
					</logginginfo>
					<labels>
						<label2/>
					</labels>
					<comments>
						<mastercomment1/>
						<mastercomment2/>
						<mastercomment3/>
						<mastercomment4/>
					</comments>
					<file id="SPACEWHOO…HOOSHBYSI60404904 ">
						<name>SPACEWHOO…HOOSHBYSI60404904.WAV</name>
						<pathurl>file://localhost/Volumes/Askepott/Prosjekter/DNPR630011_Dyrevenn_sesong_7_KAL_010612/Lydeffekter/Svosj/SPACEWHOO%E2%80%A6HOOSHBYSI60404904.WAV</pathurl>
						<rate>
							<timebase>25</timebase>
						</rate>
						<duration>127</duration>
						<timecode>
							<rate>
								<timebase>25</timebase>
							</rate>
							<string>00:00:00:00</string>
							<frame>0</frame>
							<displayformat>NDF</displayformat>
							<source>source</source>
						</timecode>
						<media>
							<audio>
								<samplecharacteristics>
									<samplerate>44100</samplerate>
									<depth>16</depth>
								</samplecharacteristics>
								<channelcount>2</channelcount>
							</audio>
						</media>
					</file>
					<filter>
						<effect>
							<name>Audio Levels</name>
							<effectid>audiolevels</effectid>
							<effectcategory>audiolevels</effectcategory>
							<effecttype>audiolevels</effecttype>
							<mediatype>audio</mediatype>
							<parameter>
								<name>Level</name>
								<parameterid>level</parameterid>
								<valuemin>0</valuemin>
								<valuemax>3.98109</valuemax>
								<value>0.251189</value>
							</parameter>
						</effect>
					</filter>
					<filter>
						<effect>
							<name>Audio Pan</name>
							<effectid>audiopan</effectid>
							<effectcategory>audiopan</effectcategory>
							<effecttype>audiopan</effecttype>
							<mediatype>audio</mediatype>
							<parameter>
								<name>Pan</name>
								<parameterid>pan</parameterid>
								<valuemin>-1</valuemin>
								<valuemax>1</valuemax>
								<value>-1</value>
							</parameter>
						</effect>
					</filter>
					<sourcetrack>
						<mediatype>audio</mediatype>
						<trackindex>1</trackindex>
					</sourcetrack>
					<link>
						<linkclipref>SPACEWHOO…HOOSHBYSI60404904.WAV</linkclipref>
						<mediatype>audio</mediatype>
						<trackindex>3</trackindex>
						<clipindex>8</clipindex>
						<groupindex>1</groupindex>
					</link>
					<link>
						<linkclipref>SPACEWHOO…HOOSHBYSI60404904.WAV2</linkclipref>
						<mediatype>audio</mediatype>
						<trackindex>4</trackindex>
						<clipindex>7</clipindex>
						<groupindex>1</groupindex>
					</link>
					<itemhistory>
						<uuid>56C468AB-C17D-48C2-8A48-DCB11FE85B10</uuid>
					</itemhistory>
				</clipitem>
				<clipitem id="Cartoon Timpani.caf">
					<name>Cartoon Timpani.caf</name>
					<duration>41</duration>
					<rate>
						<ntsc>FALSE</ntsc>
						<timebase>25</timebase>
					</rate>
					<in>17</in>
					<out>41</out>
					<start>3019</start>
					<end>-1</end>
					<subframeoffset>0</subframeoffset>
					<masterclipid>Cartoon Timpani.caf1</masterclipid>
					<logginginfo>
						<scene/>
						<shottake/>
						<lognote/>
						<good>FALSE</good>
					</logginginfo>
					<labels>
						<label2/>
					</labels>
					<comments>
						<mastercomment1/>
						<mastercomment2/>
						<mastercomment3/>
						<mastercomment4/>
					</comments>
					<file id="Cartoon Timpani">
						<name>Cartoon Timpani.caf</name>
						<pathurl>file://localhost/Volumes/Askepott/Prosjekter/DNPR637010_Kra%CC%8Akeklubben_TEM_011212/MUSIKK/NATURLEK/Cartoon%20Timpani.caf</pathurl>
						<rate>
							<timebase>25</timebase>
						</rate>
						<duration>41</duration>
						<media>
							<audio>
								<samplecharacteristics>
									<samplerate>44100</samplerate>
									<depth>32</depth>
								</samplecharacteristics>
								<channelcount>2</channelcount>
							</audio>
						</media>
					</file>
					<filter>
						<effect>
							<name>Audio Levels</name>
							<effectid>audiolevels</effectid>
							<effectcategory>audiolevels</effectcategory>
							<effecttype>audiolevels</effecttype>
							<mediatype>audio</mediatype>
							<parameter>
								<name>Level</name>
								<parameterid>level</parameterid>
								<valuemin>0</valuemin>
								<valuemax>3.98109</valuemax>
								<keyframe>
									<when>29.8571</when>
									<value>0</value>
								</keyframe>
								<keyframe>
									<when>38.7143</when>
									<value>0.446684</value>
								</keyframe>
								<interpolation>
									<name>FCPCurve</name>
								</interpolation>
								<value>1</value>
							</parameter>
						</effect>
					</filter>
					<filter>
						<effect>
							<name>Audio Pan</name>
							<effectid>audiopan</effectid>
							<effectcategory>audiopan</effectcategory>
							<effecttype>audiopan</effecttype>
							<mediatype>audio</mediatype>
							<parameter>
								<name>Pan</name>
								<parameterid>pan</parameterid>
								<valuemin>-1</valuemin>
								<valuemax>1</valuemax>
								<value>-1</value>
							</parameter>
						</effect>
					</filter>
					<sourcetrack>
						<mediatype>audio</mediatype>
						<trackindex>1</trackindex>
					</sourcetrack>
					<link>
						<linkclipref>Cartoon Timpani.caf</linkclipref>
						<mediatype>audio</mediatype>
						<trackindex>3</trackindex>
						<clipindex>9</clipindex>
						<groupindex>1</groupindex>
					</link>
					<link>
						<linkclipref>Cartoon Timpani.caf2</linkclipref>
						<mediatype>audio</mediatype>
						<trackindex>4</trackindex>
						<clipindex>8</clipindex>
						<groupindex>1</groupindex>
					</link>
					<itemhistory>
						<uuid>8B316356-4126-49F2-9D4A-4CD3F4C1E84F</uuid>
					</itemhistory>
					<filter>
						<effect>
							<name>Time Remap</name>
							<effectid>timeremap</effectid>
							<effectcategory>motion</effectcategory>
							<effecttype>motion</effecttype>
							<mediatype>audio</mediatype>
							<parameter>
								<parameterid>variablespeed</parameterid>
								<name>variablespeed</name>
								<valuemin>0</valuemin>
								<valuemax>1</valuemax>
								<value>0</value>
							</parameter>
							<parameter>
								<parameterid>mappedduration</parameterid>
								<name>mappedduration</name>
								<value>
									<timecode>
										<rate>
											<timebase>0</timebase>
										</rate>
										<string>0</string>
										<frame>0</frame>
										<displayformat>NDF</displayformat>
									</timecode>
								</value>
							</parameter>
							<parameter>
								<parameterid>speed</parameterid>
								<name>speed</name>
								<valuemin>-10000</valuemin>
								<valuemax>10000</valuemax>
								<value>100</value>
							</parameter>
							<parameter>
								<parameterid>reverse</parameterid>
								<name>reverse</name>
								<value>TRUE</value>
							</parameter>
							<parameter>
								<parameterid>frameblending</parameterid>
								<name>frameblending</name>
								<value>TRUE</value>
							</parameter>
							<parameter>
								<parameterid>graphdict</parameterid>
								<name>graphdict</name>
								<valuemin>0</valuemin>
								<valuemax>40</valuemax>
								<keyframe>
									<when>0</when>
									<value>42</value>
									<speedkfstart>TRUE</speedkfstart>
									<speedvirtualkf>TRUE</speedvirtualkf>
								</keyframe>
								<keyframe>
									<when>17</when>
									<value>24</value>
									<speedkfin>TRUE</speedkfin>
									<speedvirtualkf>TRUE</speedvirtualkf>
								</keyframe>
								<keyframe>
									<when>41</when>
									<value>1</value>
									<speedkfout>TRUE</speedkfout>
									<speedvirtualkf>TRUE</speedvirtualkf>
								</keyframe>
								<interpolation>
									<name>FCPCurve</name>
								</interpolation>
								<value>23</value>
							</parameter>
						</effect>
					</filter>
				</clipitem>
				<transitionitem>
					<rate>
						<ntsc>FALSE</ntsc>
						<timebase>25</timebase>
					</rate>
					<start>3041</start>
					<end>3043</end>
					<alignment>center</alignment>
					<effect>
						<name>Cross Fade (+3dB)</name>
						<effectid>KGAudioTransCrossFade3dB</effectid>
						<effecttype>transition</effecttype>
						<mediatype>audio</mediatype>
					</effect>
				</transitionitem>
				<clipitem id="Cartoon Timpani.caf3">
					<name>Cartoon Timpani.caf</name>
					<duration>41</duration>
					<rate>
						<ntsc>FALSE</ntsc>
						<timebase>25</timebase>
					</rate>
					<in>0</in>
					<out>41</out>
					<start>-1</start>
					<end>3082</end>
					<subframeoffset>0</subframeoffset>
					<masterclipid>Cartoon Timpani.caf1</masterclipid>
					<logginginfo>
						<scene/>
						<shottake/>
						<lognote/>
						<good>FALSE</good>
					</logginginfo>
					<labels>
						<label2/>
					</labels>
					<comments>
						<mastercomment1/>
						<mastercomment2/>
						<mastercomment3/>
						<mastercomment4/>
					</comments>
					<file id="Cartoon Timpani"/>
					<filter>
						<effect>
							<name>Audio Levels</name>
							<effectid>audiolevels</effectid>
							<effectcategory>audiolevels</effectcategory>
							<effecttype>audiolevels</effecttype>
							<mediatype>audio</mediatype>
							<parameter>
								<name>Level</name>
								<parameterid>level</parameterid>
								<valuemin>0</valuemin>
								<valuemax>3.98109</valuemax>
								<keyframe>
									<when>9.42857</when>
									<value>0.446684</value>
								</keyframe>
								<keyframe>
									<when>40.1429</when>
									<value>0</value>
								</keyframe>
								<interpolation>
									<name>FCPCurve</name>
								</interpolation>
								<value>0.446684</value>
							</parameter>
						</effect>
					</filter>
					<filter>
						<effect>
							<name>Audio Pan</name>
							<effectid>audiopan</effectid>
							<effectcategory>audiopan</effectcategory>
							<effecttype>audiopan</effecttype>
							<mediatype>audio</mediatype>
							<parameter>
								<name>Pan</name>
								<parameterid>pan</parameterid>
								<valuemin>-1</valuemin>
								<valuemax>1</valuemax>
								<value>-1</value>
							</parameter>
						</effect>
					</filter>
					<sourcetrack>
						<mediatype>audio</mediatype>
						<trackindex>1</trackindex>
					</sourcetrack>
					<link>
						<linkclipref>Cartoon Timpani.caf3</linkclipref>
						<mediatype>audio</mediatype>
						<trackindex>3</trackindex>
						<clipindex>11</clipindex>
						<groupindex>1</groupindex>
					</link>
					<link>
						<linkclipref>Cartoon Timpani.caf4</linkclipref>
						<mediatype>audio</mediatype>
						<trackindex>4</trackindex>
						<clipindex>10</clipindex>
						<groupindex>1</groupindex>
					</link>
					<itemhistory>
						<uuid>0F02FD04-613A-4894-B0D7-38AE3B281823</uuid>
					</itemhistory>
				</clipitem>
				<clipitem id="525_1808_01 5">
					<name>525_1808_01</name>
					<duration>313</duration>
					<rate>
						<ntsc>FALSE</ntsc>
						<timebase>25</timebase>
					</rate>
					<in>200</in>
					<out>223</out>
					<start>4573</start>
					<end>4596</end>
					<subframeoffset>0</subframeoffset>
					<enabled>TRUE</enabled>
					<masterclipid>525_1808_01 1</masterclipid>
					<logginginfo>
						<scene/>
						<shottake/>
						<lognote/>
						<good>FALSE</good>
					</logginginfo>
					<labels>
						<label2/>
					</labels>
					<comments>
						<mastercomment1/>
						<mastercomment2/>
						<mastercomment3/>
						<mastercomment4/>
					</comments>
					<file id="525_1808_01 2"/>
					<filter>
						<effect>
							<name>Audio Levels</name>
							<effectid>audiolevels</effectid>
							<effectcategory>audiolevels</effectcategory>
							<effecttype>audiolevels</effecttype>
							<mediatype>audio</mediatype>
							<parameter>
								<name>Level</name>
								<parameterid>level</parameterid>
								<valuemin>0</valuemin>
								<valuemax>3.98109</valuemax>
								<value>1</value>
							</parameter>
						</effect>
					</filter>
					<filter>
						<effect>
							<name>Audio Pan</name>
							<effectid>audiopan</effectid>
							<effectcategory>audiopan</effectcategory>
							<effecttype>audiopan</effecttype>
							<mediatype>audio</mediatype>
							<parameter>
								<name>Pan</name>
								<parameterid>pan</parameterid>
								<valuemin>-1</valuemin>
								<valuemax>1</valuemax>
								<value>0</value>
							</parameter>
						</effect>
					</filter>
					<sourcetrack>
						<mediatype>audio</mediatype>
						<trackindex>2</trackindex>
					</sourcetrack>
					<itemhistory>
						<uuid>854AA5AA-F506-4F8F-A207-86227036CE6D</uuid>
					</itemhistory>
				</clipitem>
				<clipitem id="SCD078432.wav">
					<name>SCD078432.wav</name>
					<duration>1960</duration>
					<rate>
						<ntsc>FALSE</ntsc>
						<timebase>25</timebase>
					</rate>
					<in>1887</in>
					<out>1922</out>
					<start>11746</start>
					<end>11781</end>
					<subframeoffset>0</subframeoffset>
					<masterclipid>SCD078432.wav1</masterclipid>
					<logginginfo>
						<scene/>
						<shottake/>
						<lognote/>
						<good>FALSE</good>
					</logginginfo>
					<labels>
						<label2/>
					</labels>
					<comments>
						<mastercomment1/>
						<mastercomment2/>
						<mastercomment3/>
						<mastercomment4/>
					</comments>
					<file id="SCD078432 ">
						<name>SCD078432.wav</name>
						<pathurl>file://localhost/Volumes/Askepott/Prosjekter/DNPR637010_Kra%CC%8Akeklubben_TEM_011212/MUSIKK/INSEKT/Snegle/SCD078432.wav</pathurl>
						<rate>
							<timebase>25</timebase>
						</rate>
						<duration>1960</duration>
						<timecode>
							<rate>
								<timebase>25</timebase>
							</rate>
							<string>00:50:46:01</string>
							<frame>76151</frame>
							<displayformat>NDF</displayformat>
							<source>source</source>
						</timecode>
						<media>
							<audio>
								<samplecharacteristics>
									<samplerate>48000</samplerate>
									<depth>16</depth>
								</samplecharacteristics>
								<channelcount>2</channelcount>
							</audio>
						</media>
					</file>
					<filter>
						<effect>
							<name>Audio Levels</name>
							<effectid>audiolevels</effectid>
							<effectcategory>audiolevels</effectcategory>
							<effecttype>audiolevels</effecttype>
							<mediatype>audio</mediatype>
							<parameter>
								<name>Level</name>
								<parameterid>level</parameterid>
								<valuemin>0</valuemin>
								<valuemax>3.98109</valuemax>
								<keyframe>
									<when>1887.29</when>
									<value>0</value>
								</keyframe>
								<keyframe>
									<when>1888.14</when>
									<value>0.199526</value>
								</keyframe>
								<interpolation>
									<name>FCPCurve</name>
								</interpolation>
								<value>0.199526</value>
							</parameter>
						</effect>
					</filter>
					<filter>
						<effect>
							<name>Audio Pan</name>
							<effectid>audiopan</effectid>
							<effectcategory>audiopan</effectcategory>
							<effecttype>audiopan</effecttype>
							<mediatype>audio</mediatype>
							<parameter>
								<name>Pan</name>
								<parameterid>pan</parameterid>
								<valuemin>-1</valuemin>
								<valuemax>1</valuemax>
								<value>-1</value>
							</parameter>
						</effect>
					</filter>
					<sourcetrack>
						<mediatype>audio</mediatype>
						<trackindex>1</trackindex>
					</sourcetrack>
					<link>
						<linkclipref>SCD078432.wav</linkclipref>
						<mediatype>audio</mediatype>
						<trackindex>3</trackindex>
						<clipindex>13</clipindex>
						<groupindex>1</groupindex>
					</link>
					<link>
						<linkclipref>SCD078432.wav2</linkclipref>
						<mediatype>audio</mediatype>
						<trackindex>4</trackindex>
						<clipindex>11</clipindex>
						<groupindex>1</groupindex>
					</link>
					<itemhistory>
						<uuid>CA507661-EF49-41FD-8062-9D6A095A970D</uuid>
					</itemhistory>
				</clipitem>
				<clipitem id="WHOOSHLARG…WHOOSHBYFS105302.WAV">
					<name>WHOOSHLARG…WHOOSHBYFS105302.WAV</name>
					<duration>183</duration>
					<rate>
						<ntsc>FALSE</ntsc>
						<timebase>25</timebase>
					</rate>
					<in>19</in>
					<out>55</out>
					<start>14361</start>
					<end>14397</end>
					<subframeoffset>0</subframeoffset>
					<masterclipid>WHOOSHLARG…WHOOSHBYFS105302.WAV1</masterclipid>
					<logginginfo>
						<scene/>
						<shottake/>
						<lognote/>
						<good>FALSE</good>
					</logginginfo>
					<labels>
						<label2/>
					</labels>
					<comments>
						<mastercomment1/>
						<mastercomment2/>
						<mastercomment3/>
						<mastercomment4/>
					</comments>
					<file id="WHOOSHLARG…WHOOSHBYFS105302 ">
						<name>WHOOSHLARG…WHOOSHBYFS105302.WAV</name>
						<pathurl>file://localhost/Volumes/Askepott/Prosjekter/DNPR630011_Dyrevenn_sesong_7_KAL_010612/Lydeffekter/Svosj/WHOOSHLARG%E2%80%A6WHOOSHBYFS105302.WAV</pathurl>
						<rate>
							<timebase>25</timebase>
						</rate>
						<duration>92</duration>
						<timecode>
							<rate>
								<timebase>25</timebase>
							</rate>
							<string>00:00:00:00</string>
							<frame>0</frame>
							<displayformat>NDF</displayformat>
							<source>source</source>
						</timecode>
						<media>
							<audio>
								<samplecharacteristics>
									<samplerate>44100</samplerate>
									<depth>16</depth>
								</samplecharacteristics>
								<channelcount>2</channelcount>
							</audio>
						</media>
					</file>
					<filter>
						<effect>
							<name>Audio Levels</name>
							<effectid>audiolevels</effectid>
							<effectcategory>audiolevels</effectcategory>
							<effecttype>audiolevels</effecttype>
							<mediatype>audio</mediatype>
							<parameter>
								<name>Level</name>
								<parameterid>level</parameterid>
								<valuemin>0</valuemin>
								<valuemax>3.98109</valuemax>
								<value>0.251189</value>
							</parameter>
						</effect>
					</filter>
					<filter>
						<effect>
							<name>Audio Pan</name>
							<effectid>audiopan</effectid>
							<effectcategory>audiopan</effectcategory>
							<effecttype>audiopan</effecttype>
							<mediatype>audio</mediatype>
							<parameter>
								<name>Pan</name>
								<parameterid>pan</parameterid>
								<valuemin>-1</valuemin>
								<valuemax>1</valuemax>
								<value>-1</value>
							</parameter>
						</effect>
					</filter>
					<sourcetrack>
						<mediatype>audio</mediatype>
						<trackindex>1</trackindex>
					</sourcetrack>
					<link>
						<linkclipref>WHOOSHLARG…WHOOSHBYFS105302.WAV</linkclipref>
						<mediatype>audio</mediatype>
						<trackindex>3</trackindex>
						<clipindex>14</clipindex>
						<groupindex>1</groupindex>
					</link>
					<link>
						<linkclipref>WHOOSHLARG…WHOOSHBYFS105302.WAV2</linkclipref>
						<mediatype>audio</mediatype>
						<trackindex>4</trackindex>
						<clipindex>12</clipindex>
						<groupindex>1</groupindex>
					</link>
					<itemhistory>
						<uuid>F2A896E7-A8F0-478D-8F0A-55213E741B02</uuid>
						<uuid>D1219752-0F3C-47C2-BEB0-CFA7F8310A44</uuid>
						<uuid>301CDA3A-FFC8-4FD2-82AD-68A0F0B1C07D</uuid>
					</itemhistory>
					<filter>
						<effect>
							<name>Time Remap</name>
							<effectid>timeremap</effectid>
							<effectcategory>motion</effectcategory>
							<effecttype>motion</effecttype>
							<mediatype>audio</mediatype>
							<parameter>
								<parameterid>variablespeed</parameterid>
								<name>variablespeed</name>
								<valuemin>0</valuemin>
								<valuemax>1</valuemax>
								<value>0</value>
							</parameter>
							<parameter>
								<parameterid>mappedduration</parameterid>
								<name>mappedduration</name>
								<value>
									<timecode>
										<rate>
											<timebase>0</timebase>
										</rate>
										<string>0</string>
										<frame>0</frame>
										<displayformat>NDF</displayformat>
									</timecode>
								</value>
							</parameter>
							<parameter>
								<parameterid>speed</parameterid>
								<name>speed</name>
								<valuemin>-10000</valuemin>
								<valuemax>10000</valuemax>
								<value>50</value>
							</parameter>
							<parameter>
								<parameterid>reverse</parameterid>
								<name>reverse</name>
								<value>FALSE</value>
							</parameter>
							<parameter>
								<parameterid>frameblending</parameterid>
								<name>frameblending</name>
								<value>TRUE</value>
							</parameter>
							<parameter>
								<parameterid>graphdict</parameterid>
								<name>graphdict</name>
								<valuemin>0</valuemin>
								<valuemax>91</valuemax>
								<keyframe>
									<when>0</when>
									<value>0.4999</value>
									<speedkfstart>TRUE</speedkfstart>
									<speedvirtualkf>TRUE</speedvirtualkf>
									<anchorOffset>0.4999</anchorOffset>
								</keyframe>
								<keyframe>
									<when>19</when>
									<value>9.9999</value>
									<speedkfin>TRUE</speedkfin>
									<speedvirtualkf>TRUE</speedvirtualkf>
								</keyframe>
								<keyframe>
									<when>55</when>
									<value>27.9999</value>
									<speedkfout>TRUE</speedkfout>
									<speedvirtualkf>TRUE</speedvirtualkf>
								</keyframe>
								<keyframe>
									<when>183</when>
									<value>92.4999</value>
									<speedkfend>TRUE</speedkfend>
									<speedvirtualkf>TRUE</speedvirtualkf>
								</keyframe>
								<interpolation>
									<name>FCPCurve</name>
								</interpolation>
								<value>9.9999</value>
							</parameter>
						</effect>
					</filter>
				</clipitem>
				<clipitem id="Kråkeklubben Pgm 14 Ny voice Mari.WAV">
					<name>Kråkeklubben Pgm 14 Ny voice Mari.WAV</name>
					<duration>8963</duration>
					<rate>
						<ntsc>FALSE</ntsc>
						<timebase>25</timebase>
					</rate>
					<in>8621</in>
					<out>8642</out>
					<start>14506</start>
					<end>14527</end>
					<subframeoffset>0</subframeoffset>
					<enabled>TRUE</enabled>
					<masterclipid>Kråkeklubben Pgm 14 Ny voice Mari.WAV1</masterclipid>
					<logginginfo>
						<scene/>
						<shottake/>
						<lognote/>
						<good>FALSE</good>
					</logginginfo>
					<labels>
						<label2/>
					</labels>
					<comments>
						<mastercomment1/>
						<mastercomment2/>
						<mastercomment3/>
						<mastercomment4/>
					</comments>
					<file id="Kråkeklubben Pgm 14 Ny voice Mari">
						<name>Kråkeklubben Pgm 14 Ny voice Mari.WAV</name>
						<pathurl>file://localhost/Volumes/Askepott/Prosjekter/DNPR637010_Kra%CC%8Akeklubben_TEM_011212/LYD/Kra%CC%8Akeklubben%20Pgm%2014%20Ny%20voice%20Mari.WAV</pathurl>
						<rate>
							<timebase>25</timebase>
						</rate>
						<duration>8963</duration>
						<media>
							<audio>
								<samplecharacteristics>
									<samplerate>48000</samplerate>
									<depth>16</depth>
								</samplecharacteristics>
								<channelcount>2</channelcount>
							</audio>
						</media>
					</file>
					<filter>
						<effect>
							<name>Audio Levels</name>
							<effectid>audiolevels</effectid>
							<effectcategory>audiolevels</effectcategory>
							<effecttype>audiolevels</effecttype>
							<mediatype>audio</mediatype>
							<parameter>
								<name>Level</name>
								<parameterid>level</parameterid>
								<valuemin>0</valuemin>
								<valuemax>3.98109</valuemax>
								<keyframe>
									<when>5084.85</when>
									<value>1.99526</value>
								</keyframe>
								<interpolation>
									<name>FCPCurve</name>
								</interpolation>
								<value>3.98107</value>
							</parameter>
						</effect>
					</filter>
					<filter>
						<effect>
							<name>Audio Pan</name>
							<effectid>audiopan</effectid>
							<effectcategory>audiopan</effectcategory>
							<effecttype>audiopan</effecttype>
							<mediatype>audio</mediatype>
							<parameter>
								<name>Pan</name>
								<parameterid>pan</parameterid>
								<valuemin>-1</valuemin>
								<valuemax>1</valuemax>
								<value>0</value>
							</parameter>
						</effect>
					</filter>
					<sourcetrack>
						<mediatype>audio</mediatype>
						<trackindex>1</trackindex>
					</sourcetrack>
					<link>
						<linkclipref>Kråkeklubben Pgm 14 Ny voice Mari.WAV</linkclipref>
						<mediatype>audio</mediatype>
						<trackindex>3</trackindex>
						<clipindex>15</clipindex>
						<groupindex>1</groupindex>
					</link>
					<link>
						<linkclipref>Kråkeklubben Pgm 14 Ny voice Mari.WAV2</linkclipref>
						<mediatype>audio</mediatype>
						<trackindex>4</trackindex>
						<clipindex>13</clipindex>
						<groupindex>1</groupindex>
					</link>
					<itemhistory>
						<uuid>0ED4D464-B0E4-4511-AF97-158BCF79ABCA</uuid>
					</itemhistory>
				</clipitem>
				<clipitem id="Kråkeklubben Pgm 14 Ny voice Mari.WAV3">
					<name>Kråkeklubben Pgm 14 Ny voice Mari.WAV</name>
					<duration>8963</duration>
					<rate>
						<ntsc>FALSE</ntsc>
						<timebase>25</timebase>
					</rate>
					<in>8642</in>
					<out>8670</out>
					<start>14532</start>
					<end>14560</end>
					<subframeoffset>0</subframeoffset>
					<masterclipid>Kråkeklubben Pgm 14 Ny voice Mari.WAV1</masterclipid>
					<logginginfo>
						<scene/>
						<shottake/>
						<lognote/>
						<good>FALSE</good>
					</logginginfo>
					<labels>
						<label2/>
					</labels>
					<comments>
						<mastercomment1/>
						<mastercomment2/>
						<mastercomment3/>
						<mastercomment4/>
					</comments>
					<file id="Kråkeklubben Pgm 14 Ny voice Mari"/>
					<filter>
						<effect>
							<name>Audio Levels</name>
							<effectid>audiolevels</effectid>
							<effectcategory>audiolevels</effectcategory>
							<effecttype>audiolevels</effecttype>
							<mediatype>audio</mediatype>
							<parameter>
								<name>Level</name>
								<parameterid>level</parameterid>
								<valuemin>0</valuemin>
								<valuemax>3.98109</valuemax>
								<keyframe>
									<when>5084.85</when>
									<value>1.99526</value>
								</keyframe>
								<interpolation>
									<name>FCPCurve</name>
								</interpolation>
								<value>3.98107</value>
							</parameter>
						</effect>
					</filter>
					<filter>
						<effect>
							<name>Audio Pan</name>
							<effectid>audiopan</effectid>
							<effectcategory>audiopan</effectcategory>
							<effecttype>audiopan</effecttype>
							<mediatype>audio</mediatype>
							<parameter>
								<name>Pan</name>
								<parameterid>pan</parameterid>
								<valuemin>-1</valuemin>
								<valuemax>1</valuemax>
								<value>0</value>
							</parameter>
						</effect>
					</filter>
					<sourcetrack>
						<mediatype>audio</mediatype>
						<trackindex>1</trackindex>
					</sourcetrack>
					<link>
						<linkclipref>Kråkeklubben Pgm 14 Ny voice Mari.WAV3</linkclipref>
						<mediatype>audio</mediatype>
						<trackindex>3</trackindex>
						<clipindex>16</clipindex>
						<groupindex>1</groupindex>
					</link>
					<link>
						<linkclipref>Kråkeklubben Pgm 14 Ny voice Mari.WAV4</linkclipref>
						<mediatype>audio</mediatype>
						<trackindex>4</trackindex>
						<clipindex>14</clipindex>
						<groupindex>1</groupindex>
					</link>
					<itemhistory>
						<uuid>815D76E9-80C5-4803-A94C-4455BE87DE92</uuid>
					</itemhistory>
				</clipitem>
				<clipitem id="WHOOSHLARG…WHOOSHBYFS105302.WAV3">
					<name>WHOOSHLARG…WHOOSHBYFS105302.WAV</name>
					<duration>454</duration>
					<rate>
						<ntsc>FALSE</ntsc>
						<timebase>25</timebase>
					</rate>
					<in>51</in>
					<out>126</out>
					<start>14560</start>
					<end>14635</end>
					<subframeoffset>0</subframeoffset>
					<masterclipid>WHOOSHLARG…WHOOSHBYFS105302.WAV1</masterclipid>
					<logginginfo>
						<scene/>
						<shottake/>
						<lognote/>
						<good>FALSE</good>
					</logginginfo>
					<labels>
						<label2/>
					</labels>
					<comments>
						<mastercomment1/>
						<mastercomment2/>
						<mastercomment3/>
						<mastercomment4/>
					</comments>
					<file id="WHOOSHLARG…WHOOSHBYFS105302 "/>
					<filter>
						<effect>
							<name>Audio Levels</name>
							<effectid>audiolevels</effectid>
							<effectcategory>audiolevels</effectcategory>
							<effecttype>audiolevels</effecttype>
							<mediatype>audio</mediatype>
							<parameter>
								<name>Level</name>
								<parameterid>level</parameterid>
								<valuemin>0</valuemin>
								<valuemax>3.98109</valuemax>
								<keyframe>
									<when>84</when>
									<value>0.281838</value>
								</keyframe>
								<interpolation>
									<name>FCPCurve</name>
								</interpolation>
								<value>0.281838</value>
							</parameter>
						</effect>
					</filter>
					<filter>
						<effect>
							<name>Audio Pan</name>
							<effectid>audiopan</effectid>
							<effectcategory>audiopan</effectcategory>
							<effecttype>audiopan</effecttype>
							<mediatype>audio</mediatype>
							<parameter>
								<name>Pan</name>
								<parameterid>pan</parameterid>
								<valuemin>-1</valuemin>
								<valuemax>1</valuemax>
								<value>-1</value>
							</parameter>
						</effect>
					</filter>
					<sourcetrack>
						<mediatype>audio</mediatype>
						<trackindex>1</trackindex>
					</sourcetrack>
					<link>
						<linkclipref>WHOOSHLARG…WHOOSHBYFS105302.WAV3</linkclipref>
						<mediatype>audio</mediatype>
						<trackindex>3</trackindex>
						<clipindex>17</clipindex>
						<groupindex>1</groupindex>
					</link>
					<link>
						<linkclipref>WHOOSHLARG…WHOOSHBYFS105302.WAV4</linkclipref>
						<mediatype>audio</mediatype>
						<trackindex>4</trackindex>
						<clipindex>15</clipindex>
						<groupindex>1</groupindex>
					</link>
					<itemhistory>
						<uuid>F4805BEA-4EDF-4734-AD0E-AA38B6F9BB29</uuid>
						<uuid>65A050B0-AD2E-4036-B64B-00FDDC246999</uuid>
						<uuid>301CDA3A-FFC8-4FD2-82AD-68A0F0B1C07D</uuid>
					</itemhistory>
					<filter>
						<effect>
							<name>Time Remap</name>
							<effectid>timeremap</effectid>
							<effectcategory>motion</effectcategory>
							<effecttype>motion</effecttype>
							<mediatype>audio</mediatype>
							<parameter>
								<parameterid>variablespeed</parameterid>
								<name>variablespeed</name>
								<valuemin>0</valuemin>
								<valuemax>1</valuemax>
								<value>0</value>
							</parameter>
							<parameter>
								<parameterid>mappedduration</parameterid>
								<name>mappedduration</name>
								<value>
									<timecode>
										<rate>
											<timebase>0</timebase>
										</rate>
										<string>0</string>
										<frame>0</frame>
										<displayformat>NDF</displayformat>
									</timecode>
								</value>
							</parameter>
							<parameter>
								<parameterid>speed</parameterid>
								<name>speed</name>
								<valuemin>-10000</valuemin>
								<valuemax>10000</valuemax>
								<value>20</value>
							</parameter>
							<parameter>
								<parameterid>reverse</parameterid>
								<name>reverse</name>
								<value>FALSE</value>
							</parameter>
							<parameter>
								<parameterid>frameblending</parameterid>
								<name>frameblending</name>
								<value>TRUE</value>
							</parameter>
							<parameter>
								<parameterid>graphdict</parameterid>
								<name>graphdict</name>
								<valuemin>0</valuemin>
								<valuemax>91</valuemax>
								<keyframe>
									<when>0</when>
									<value>0.0981</value>
									<speedkfstart>TRUE</speedkfstart>
									<speedvirtualkf>TRUE</speedvirtualkf>
									<anchorOffset>0.0981</anchorOffset>
								</keyframe>
								<keyframe>
									<when>51</when>
									<value>10.3431</value>
									<speedkfin>TRUE</speedkfin>
									<speedvirtualkf>TRUE</speedvirtualkf>
								</keyframe>
								<keyframe>
									<when>126</when>
									<value>25.4094</value>
									<speedkfout>TRUE</speedkfout>
									<speedvirtualkf>TRUE</speedvirtualkf>
								</keyframe>
								<keyframe>
									<when>454</when>
									<value>92.0981</value>
									<speedkfend>TRUE</speedkfend>
									<speedvirtualkf>TRUE</speedvirtualkf>
								</keyframe>
								<interpolation>
									<name>FCPCurve</name>
								</interpolation>
								<value>10.3431</value>
							</parameter>
						</effect>
					</filter>
				</clipitem>
				<clipitem id="DYR19728_01 7">
					<name>DYR19728_01</name>
					<duration>2140</duration>
					<rate>
						<ntsc>FALSE</ntsc>
						<timebase>25</timebase>
					</rate>
					<in>449</in>
					<out>503</out>
					<start>15092</start>
					<end>15146</end>
					<masterclipid>DYR19728_01 1</masterclipid>
					<logginginfo>
						<scene/>
						<shottake/>
						<lognote/>
						<good>FALSE</good>
					</logginginfo>
					<labels>
						<label2/>
					</labels>
					<comments>
						<mastercomment1/>
						<mastercomment2/>
						<mastercomment3/>
						<mastercomment4/>
					</comments>
					<file id="DYR19728_01 2"/>
					<filter>
						<effect>
							<name>Audio Levels</name>
							<effectid>audiolevels</effectid>
							<effectcategory>audiolevels</effectcategory>
							<effecttype>audiolevels</effecttype>
							<mediatype>audio</mediatype>
							<parameter>
								<name>Level</name>
								<parameterid>level</parameterid>
								<valuemin>0</valuemin>
								<valuemax>3.98109</valuemax>
								<keyframe>
									<when>452.857</when>
									<value>0</value>
								</keyframe>
								<keyframe>
									<when>454</when>
									<value>1.77828</value>
								</keyframe>
								<interpolation>
									<name>FCPCurve</name>
								</interpolation>
								<value>1.77828</value>
							</parameter>
						</effect>
					</filter>
					<filter>
						<effect>
							<name>Audio Pan</name>
							<effectid>audiopan</effectid>
							<effectcategory>audiopan</effectcategory>
							<effecttype>audiopan</effecttype>
							<mediatype>audio</mediatype>
							<parameter>
								<name>Pan</name>
								<parameterid>pan</parameterid>
								<valuemin>-1</valuemin>
								<valuemax>1</valuemax>
								<value>0</value>
							</parameter>
						</effect>
					</filter>
					<sourcetrack>
						<mediatype>audio</mediatype>
						<trackindex>1</trackindex>
					</sourcetrack>
					<itemhistory>
						<uuid>C482263E-828D-41B2-9D52-6C2FB2A5011C</uuid>
					</itemhistory>
				</clipitem>
				<clipitem id="DYR19738_01 10">
					<name>DYR19738_01</name>
					<duration>946</duration>
					<rate>
						<ntsc>FALSE</ntsc>
						<timebase>25</timebase>
					</rate>
					<in>713</in>
					<out>743</out>
					<start>15256</start>
					<end>15286</end>
					<subframeoffset>0</subframeoffset>
					<masterclipid>DYR19738_01 1</masterclipid>
					<logginginfo>
						<scene/>
						<shottake/>
						<lognote/>
						<good>FALSE</good>
					</logginginfo>
					<labels>
						<label2/>
					</labels>
					<comments>
						<mastercomment1/>
						<mastercomment2/>
						<mastercomment3/>
						<mastercomment4/>
					</comments>
					<file id="DYR19738_01 2"/>
					<filter>
						<effect>
							<name>Audio Levels</name>
							<effectid>audiolevels</effectid>
							<effectcategory>audiolevels</effectcategory>
							<effecttype>audiolevels</effecttype>
							<mediatype>audio</mediatype>
							<parameter>
								<name>Level</name>
								<parameterid>level</parameterid>
								<valuemin>0</valuemin>
								<valuemax>3.98109</valuemax>
								<value>1.58489</value>
							</parameter>
						</effect>
					</filter>
					<filter>
						<effect>
							<name>Audio Pan</name>
							<effectid>audiopan</effectid>
							<effectcategory>audiopan</effectcategory>
							<effecttype>audiopan</effecttype>
							<mediatype>audio</mediatype>
							<parameter>
								<name>Pan</name>
								<parameterid>pan</parameterid>
								<valuemin>-1</valuemin>
								<valuemax>1</valuemax>
								<value>0</value>
							</parameter>
						</effect>
					</filter>
					<sourcetrack>
						<mediatype>audio</mediatype>
						<trackindex>1</trackindex>
					</sourcetrack>
					<link>
						<linkclipref>DYR19738_01 10</linkclipref>
						<mediatype>audio</mediatype>
						<trackindex>3</trackindex>
						<clipindex>19</clipindex>
					</link>
					<link>
						<linkclipref>DYR19738_01 11</linkclipref>
						<mediatype>audio</mediatype>
						<trackindex>4</trackindex>
						<clipindex>16</clipindex>
					</link>
					<itemhistory>
						<uuid>8CDEFE5C-DA38-4539-A8A5-1574C9EA0672</uuid>
					</itemhistory>
				</clipitem>
				<clipitem id="WHOOSHLARG…WHOOSHBYFS105302.WAV5">
					<name>WHOOSHLARG…WHOOSHBYFS105302.WAV</name>
					<duration>454</duration>
					<rate>
						<ntsc>FALSE</ntsc>
						<timebase>25</timebase>
					</rate>
					<in>51</in>
					<out>126</out>
					<start>19282</start>
					<end>19357</end>
					<subframeoffset>0</subframeoffset>
					<masterclipid>WHOOSHLARG…WHOOSHBYFS105302.WAV1</masterclipid>
					<logginginfo>
						<scene/>
						<shottake/>
						<lognote/>
						<good>FALSE</good>
					</logginginfo>
					<labels>
						<label2/>
					</labels>
					<comments>
						<mastercomment1/>
						<mastercomment2/>
						<mastercomment3/>
						<mastercomment4/>
					</comments>
					<file id="WHOOSHLARG…WHOOSHBYFS105302 "/>
					<filter>
						<effect>
							<name>Audio Levels</name>
							<effectid>audiolevels</effectid>
							<effectcategory>audiolevels</effectcategory>
							<effecttype>audiolevels</effecttype>
							<mediatype>audio</mediatype>
							<parameter>
								<name>Level</name>
								<parameterid>level</parameterid>
								<valuemin>0</valuemin>
								<valuemax>3.98109</valuemax>
								<keyframe>
									<when>84</when>
									<value>0.281838</value>
								</keyframe>
								<interpolation>
									<name>FCPCurve</name>
								</interpolation>
								<value>0.281838</value>
							</parameter>
						</effect>
					</filter>
					<filter>
						<effect>
							<name>Audio Pan</name>
							<effectid>audiopan</effectid>
							<effectcategory>audiopan</effectcategory>
							<effecttype>audiopan</effecttype>
							<mediatype>audio</mediatype>
							<parameter>
								<name>Pan</name>
								<parameterid>pan</parameterid>
								<valuemin>-1</valuemin>
								<valuemax>1</valuemax>
								<value>-1</value>
							</parameter>
						</effect>
					</filter>
					<sourcetrack>
						<mediatype>audio</mediatype>
						<trackindex>1</trackindex>
					</sourcetrack>
					<link>
						<linkclipref>WHOOSHLARG…WHOOSHBYFS105302.WAV5</linkclipref>
						<mediatype>audio</mediatype>
						<trackindex>3</trackindex>
						<clipindex>20</clipindex>
						<groupindex>1</groupindex>
					</link>
					<link>
						<linkclipref>WHOOSHLARG…WHOOSHBYFS105302.WAV6</linkclipref>
						<mediatype>audio</mediatype>
						<trackindex>4</trackindex>
						<clipindex>17</clipindex>
						<groupindex>1</groupindex>
					</link>
					<itemhistory>
						<uuid>6D8C492E-3C18-4ED7-A79B-BA0CC53F4A27</uuid>
						<uuid>65A050B0-AD2E-4036-B64B-00FDDC246999</uuid>
						<uuid>301CDA3A-FFC8-4FD2-82AD-68A0F0B1C07D</uuid>
					</itemhistory>
					<filter>
						<effect>
							<name>Time Remap</name>
							<effectid>timeremap</effectid>
							<effectcategory>motion</effectcategory>
							<effecttype>motion</effecttype>
							<mediatype>audio</mediatype>
							<parameter>
								<parameterid>variablespeed</parameterid>
								<name>variablespeed</name>
								<valuemin>0</valuemin>
								<valuemax>1</valuemax>
								<value>0</value>
							</parameter>
							<parameter>
								<parameterid>mappedduration</parameterid>
								<name>mappedduration</name>
								<value>
									<timecode>
										<rate>
											<timebase>0</timebase>
										</rate>
										<string>0</string>
										<frame>0</frame>
										<displayformat>NDF</displayformat>
									</timecode>
								</value>
							</parameter>
							<parameter>
								<parameterid>speed</parameterid>
								<name>speed</name>
								<valuemin>-10000</valuemin>
								<valuemax>10000</valuemax>
								<value>20</value>
							</parameter>
							<parameter>
								<parameterid>reverse</parameterid>
								<name>reverse</name>
								<value>FALSE</value>
							</parameter>
							<parameter>
								<parameterid>frameblending</parameterid>
								<name>frameblending</name>
								<value>TRUE</value>
							</parameter>
							<parameter>
								<parameterid>graphdict</parameterid>
								<name>graphdict</name>
								<valuemin>0</valuemin>
								<valuemax>91</valuemax>
								<keyframe>
									<when>0</when>
									<value>0.0981</value>
									<speedkfstart>TRUE</speedkfstart>
									<speedvirtualkf>TRUE</speedvirtualkf>
									<anchorOffset>0.0981</anchorOffset>
								</keyframe>
								<keyframe>
									<when>51</when>
									<value>10.3431</value>
									<speedkfin>TRUE</speedkfin>
									<speedvirtualkf>TRUE</speedvirtualkf>
								</keyframe>
								<keyframe>
									<when>126</when>
									<value>25.4094</value>
									<speedkfout>TRUE</speedkfout>
									<speedvirtualkf>TRUE</speedvirtualkf>
								</keyframe>
								<keyframe>
									<when>454</when>
									<value>92.0981</value>
									<speedkfend>TRUE</speedkfend>
									<speedvirtualkf>TRUE</speedvirtualkf>
								</keyframe>
								<interpolation>
									<name>FCPCurve</name>
								</interpolation>
								<value>10.3431</value>
							</parameter>
						</effect>
					</filter>
				</clipitem>
				<clipitem id="Kråkekblubben S01E10 MIX.01_01.wav">
					<name>Kråkekblubben S01E10 MIX.01_01.wav</name>
					<duration>29118</duration>
					<rate>
						<ntsc>FALSE</ntsc>
						<timebase>25</timebase>
					</rate>
					<in>23648</in>
					<out>26739</out>
					<start>23167</start>
					<end>26258</end>
					<subframeoffset>0</subframeoffset>
					<masterclipid>Kråkekblubben S01E10 MIX.01_01.wav1</masterclipid>
					<logginginfo>
						<scene/>
						<shottake/>
						<lognote/>
						<good>FALSE</good>
					</logginginfo>
					<labels>
						<label2/>
					</labels>
					<comments>
						<mastercomment1/>
						<mastercomment2/>
						<mastercomment3/>
						<mastercomment4/>
					</comments>
					<file id="Kråkekblubben S01E10 MIX.01_01 ">
						<name>Kråkekblubben S01E10 MIX.01_01.wav</name>
						<pathurl>file://localhost/Volumes/Askepott/Prosjekter/DNPR637010_Kra%CC%8Akeklubben_TEM_011212/LYD/Kra%CC%8Akekblubben%20S01E10%20MIX.01_01.wav</pathurl>
						<rate>
							<timebase>25</timebase>
						</rate>
						<duration>29118</duration>
						<timecode>
							<rate>
								<timebase>25</timebase>
							</rate>
							<string>00:00:00:00</string>
							<frame>0</frame>
							<displayformat>NDF</displayformat>
							<source>source</source>
						</timecode>
						<media>
							<audio>
								<samplecharacteristics>
									<samplerate>48000</samplerate>
									<depth>24</depth>
								</samplecharacteristics>
								<channelcount>2</channelcount>
							</audio>
						</media>
					</file>
					<filter>
						<effect>
							<name>Audio Levels</name>
							<effectid>audiolevels</effectid>
							<effectcategory>audiolevels</effectcategory>
							<effecttype>audiolevels</effecttype>
							<mediatype>audio</mediatype>
							<parameter>
								<name>Level</name>
								<parameterid>level</parameterid>
								<valuemin>0</valuemin>
								<valuemax>3.98109</valuemax>
								<keyframe>
									<when>23648.3</when>
									<value>0</value>
								</keyframe>
								<keyframe>
									<when>23653.6</when>
									<value>1</value>
								</keyframe>
								<keyframe>
									<when>26715.9</when>
									<value>1</value>
								</keyframe>
								<keyframe>
									<when>26738</when>
									<value>0</value>
								</keyframe>
								<interpolation>
									<name>FCPCurve</name>
								</interpolation>
								<value>1</value>
							</parameter>
						</effect>
					</filter>
					<filter>
						<effect>
							<name>Audio Pan</name>
							<effectid>audiopan</effectid>
							<effectcategory>audiopan</effectcategory>
							<effecttype>audiopan</effecttype>
							<mediatype>audio</mediatype>
							<parameter>
								<name>Pan</name>
								<parameterid>pan</parameterid>
								<valuemin>-1</valuemin>
								<valuemax>1</valuemax>
								<value>-1</value>
							</parameter>
						</effect>
					</filter>
					<sourcetrack>
						<mediatype>audio</mediatype>
						<trackindex>1</trackindex>
					</sourcetrack>
					<link>
						<linkclipref>Kråkekblubben S01E10 MIX.01_01.wav</linkclipref>
						<mediatype>audio</mediatype>
						<trackindex>3</trackindex>
						<clipindex>21</clipindex>
						<groupindex>1</groupindex>
					</link>
					<link>
						<linkclipref>Kråkekblubben S01E10 MIX.01_01.wav2</linkclipref>
						<mediatype>audio</mediatype>
						<trackindex>4</trackindex>
						<clipindex>18</clipindex>
						<groupindex>1</groupindex>
					</link>
					<itemhistory>
						<uuid>27B72D28-438C-4D61-B6C0-EA94996510B8</uuid>
					</itemhistory>
				</clipitem>
				<enabled>TRUE</enabled>
				<locked>FALSE</locked>
				<outputchannelindex>1</outputchannelindex>
			</track>
			<track>
				<clipitem id="Kraakeklubben Teasere sesong 2.WAV2">
					<name>Kraakeklubben Teasere sesong 2.WAV</name>
					<duration>15317</duration>
					<rate>
						<ntsc>FALSE</ntsc>
						<timebase>25</timebase>
					</rate>
					<in>2334</in>
					<out>2438</out>
					<start>407</start>
					<end>511</end>
					<subframeoffset>0</subframeoffset>
					<masterclipid>Kraakeklubben Teasere sesong 2.WAV1</masterclipid>
					<logginginfo>
						<scene/>
						<shottake/>
						<lognote/>
						<good>FALSE</good>
					</logginginfo>
					<labels>
						<label2/>
					</labels>
					<comments>
						<mastercomment1/>
						<mastercomment2/>
						<mastercomment3/>
						<mastercomment4/>
					</comments>
					<file id="Kraakeklubben Teasere sesong 2 "/>
					<filter>
						<effect>
							<name>Audio Levels</name>
							<effectid>audiolevels</effectid>
							<effectcategory>audiolevels</effectcategory>
							<effecttype>audiolevels</effecttype>
							<mediatype>audio</mediatype>
							<parameter>
								<name>Level</name>
								<parameterid>level</parameterid>
								<valuemin>0</valuemin>
								<valuemax>3.98109</valuemax>
								<value>1</value>
							</parameter>
						</effect>
					</filter>
					<filter>
						<effect>
							<name>Audio Pan</name>
							<effectid>audiopan</effectid>
							<effectcategory>audiopan</effectcategory>
							<effecttype>audiopan</effecttype>
							<mediatype>audio</mediatype>
							<parameter>
								<name>Pan</name>
								<parameterid>pan</parameterid>
								<valuemin>-1</valuemin>
								<valuemax>1</valuemax>
								<value>1</value>
							</parameter>
						</effect>
					</filter>
					<sourcetrack>
						<mediatype>audio</mediatype>
						<trackindex>2</trackindex>
					</sourcetrack>
					<link>
						<linkclipref>Kraakeklubben Teasere sesong 2.WAV</linkclipref>
						<mediatype>audio</mediatype>
						<trackindex>3</trackindex>
						<clipindex>1</clipindex>
						<groupindex>1</groupindex>
					</link>
					<link>
						<linkclipref>Kraakeklubben Teasere sesong 2.WAV2</linkclipref>
						<mediatype>audio</mediatype>
						<trackindex>4</trackindex>
						<clipindex>1</clipindex>
						<groupindex>1</groupindex>
					</link>
					<itemhistory>
						<uuid>1E051E39-1BD8-457B-851E-EAECE3E4B932</uuid>
					</itemhistory>
				</clipitem>
				<clipitem id="Kraakeklubben Teasere sesong 2.WAV4">
					<name>Kraakeklubben Teasere sesong 2.WAV</name>
					<duration>15317</duration>
					<rate>
						<ntsc>FALSE</ntsc>
						<timebase>25</timebase>
					</rate>
					<in>2451</in>
					<out>2578</out>
					<start>511</start>
					<end>638</end>
					<subframeoffset>0</subframeoffset>
					<masterclipid>Kraakeklubben Teasere sesong 2.WAV1</masterclipid>
					<logginginfo>
						<scene/>
						<shottake/>
						<lognote/>
						<good>FALSE</good>
					</logginginfo>
					<labels>
						<label2/>
					</labels>
					<comments>
						<mastercomment1/>
						<mastercomment2/>
						<mastercomment3/>
						<mastercomment4/>
					</comments>
					<file id="Kraakeklubben Teasere sesong 2 "/>
					<filter>
						<effect>
							<name>Audio Levels</name>
							<effectid>audiolevels</effectid>
							<effectcategory>audiolevels</effectcategory>
							<effecttype>audiolevels</effecttype>
							<mediatype>audio</mediatype>
							<parameter>
								<name>Level</name>
								<parameterid>level</parameterid>
								<valuemin>0</valuemin>
								<valuemax>3.98109</valuemax>
								<value>1</value>
							</parameter>
						</effect>
					</filter>
					<filter>
						<effect>
							<name>Audio Pan</name>
							<effectid>audiopan</effectid>
							<effectcategory>audiopan</effectcategory>
							<effecttype>audiopan</effecttype>
							<mediatype>audio</mediatype>
							<parameter>
								<name>Pan</name>
								<parameterid>pan</parameterid>
								<valuemin>-1</valuemin>
								<valuemax>1</valuemax>
								<value>1</value>
							</parameter>
						</effect>
					</filter>
					<sourcetrack>
						<mediatype>audio</mediatype>
						<trackindex>2</trackindex>
					</sourcetrack>
					<link>
						<linkclipref>Kraakeklubben Teasere sesong 2.WAV3</linkclipref>
						<mediatype>audio</mediatype>
						<trackindex>3</trackindex>
						<clipindex>2</clipindex>
						<groupindex>1</groupindex>
					</link>
					<link>
						<linkclipref>Kraakeklubben Teasere sesong 2.WAV4</linkclipref>
						<mediatype>audio</mediatype>
						<trackindex>4</trackindex>
						<clipindex>2</clipindex>
						<groupindex>1</groupindex>
					</link>
					<itemhistory>
						<uuid>1B71D1F3-7B30-4845-B793-02BC710BAA11</uuid>
					</itemhistory>
				</clipitem>
				<clipitem id="Kraakeklubben Teasere sesong 2.WAV6">
					<name>Kraakeklubben Teasere sesong 2.WAV</name>
					<duration>15317</duration>
					<rate>
						<ntsc>FALSE</ntsc>
						<timebase>25</timebase>
					</rate>
					<in>2581</in>
					<out>2599</out>
					<start>638</start>
					<end>656</end>
					<subframeoffset>0</subframeoffset>
					<masterclipid>Kraakeklubben Teasere sesong 2.WAV1</masterclipid>
					<logginginfo>
						<scene/>
						<shottake/>
						<lognote/>
						<good>FALSE</good>
					</logginginfo>
					<labels>
						<label2/>
					</labels>
					<comments>
						<mastercomment1/>
						<mastercomment2/>
						<mastercomment3/>
						<mastercomment4/>
					</comments>
					<file id="Kraakeklubben Teasere sesong 2 "/>
					<filter>
						<effect>
							<name>Audio Levels</name>
							<effectid>audiolevels</effectid>
							<effectcategory>audiolevels</effectcategory>
							<effecttype>audiolevels</effecttype>
							<mediatype>audio</mediatype>
							<parameter>
								<name>Level</name>
								<parameterid>level</parameterid>
								<valuemin>0</valuemin>
								<valuemax>3.98109</valuemax>
								<value>1</value>
							</parameter>
						</effect>
					</filter>
					<filter>
						<effect>
							<name>Audio Pan</name>
							<effectid>audiopan</effectid>
							<effectcategory>audiopan</effectcategory>
							<effecttype>audiopan</effecttype>
							<mediatype>audio</mediatype>
							<parameter>
								<name>Pan</name>
								<parameterid>pan</parameterid>
								<valuemin>-1</valuemin>
								<valuemax>1</valuemax>
								<value>1</value>
							</parameter>
						</effect>
					</filter>
					<sourcetrack>
						<mediatype>audio</mediatype>
						<trackindex>2</trackindex>
					</sourcetrack>
					<link>
						<linkclipref>Kraakeklubben Teasere sesong 2.WAV5</linkclipref>
						<mediatype>audio</mediatype>
						<trackindex>3</trackindex>
						<clipindex>3</clipindex>
						<groupindex>1</groupindex>
					</link>
					<link>
						<linkclipref>Kraakeklubben Teasere sesong 2.WAV6</linkclipref>
						<mediatype>audio</mediatype>
						<trackindex>4</trackindex>
						<clipindex>3</clipindex>
						<groupindex>1</groupindex>
					</link>
					<itemhistory>
						<uuid>FFDEE67D-2D1B-47BC-9F9F-EF49B36B3795</uuid>
					</itemhistory>
				</clipitem>
				<clipitem id="Kraakeklubben Teasere sesong 2.WAV8">
					<name>Kraakeklubben Teasere sesong 2.WAV</name>
					<duration>15317</duration>
					<rate>
						<ntsc>FALSE</ntsc>
						<timebase>25</timebase>
					</rate>
					<in>2617</in>
					<out>2683</out>
					<start>656</start>
					<end>722</end>
					<subframeoffset>0</subframeoffset>
					<masterclipid>Kraakeklubben Teasere sesong 2.WAV1</masterclipid>
					<logginginfo>
						<scene/>
						<shottake/>
						<lognote/>
						<good>FALSE</good>
					</logginginfo>
					<labels>
						<label2/>
					</labels>
					<comments>
						<mastercomment1/>
						<mastercomment2/>
						<mastercomment3/>
						<mastercomment4/>
					</comments>
					<file id="Kraakeklubben Teasere sesong 2 "/>
					<filter>
						<effect>
							<name>Audio Levels</name>
							<effectid>audiolevels</effectid>
							<effectcategory>audiolevels</effectcategory>
							<effecttype>audiolevels</effecttype>
							<mediatype>audio</mediatype>
							<parameter>
								<name>Level</name>
								<parameterid>level</parameterid>
								<valuemin>0</valuemin>
								<valuemax>3.98109</valuemax>
								<value>1</value>
							</parameter>
						</effect>
					</filter>
					<filter>
						<effect>
							<name>Audio Pan</name>
							<effectid>audiopan</effectid>
							<effectcategory>audiopan</effectcategory>
							<effecttype>audiopan</effecttype>
							<mediatype>audio</mediatype>
							<parameter>
								<name>Pan</name>
								<parameterid>pan</parameterid>
								<valuemin>-1</valuemin>
								<valuemax>1</valuemax>
								<value>1</value>
							</parameter>
						</effect>
					</filter>
					<sourcetrack>
						<mediatype>audio</mediatype>
						<trackindex>2</trackindex>
					</sourcetrack>
					<link>
						<linkclipref>Kraakeklubben Teasere sesong 2.WAV7</linkclipref>
						<mediatype>audio</mediatype>
						<trackindex>3</trackindex>
						<clipindex>4</clipindex>
						<groupindex>1</groupindex>
					</link>
					<link>
						<linkclipref>Kraakeklubben Teasere sesong 2.WAV8</linkclipref>
						<mediatype>audio</mediatype>
						<trackindex>4</trackindex>
						<clipindex>4</clipindex>
						<groupindex>1</groupindex>
					</link>
					<itemhistory>
						<uuid>5B6622E2-AE0F-4092-AFE1-7BC377064DED</uuid>
					</itemhistory>
				</clipitem>
				<clipitem id="KongleWipe start -2 frames før første bilde.wav2">
					<name>KongleWipe start -2 frames før første bilde.wav</name>
					<duration>60</duration>
					<rate>
						<ntsc>FALSE</ntsc>
						<timebase>25</timebase>
					</rate>
					<in>0</in>
					<out>48</out>
					<start>831</start>
					<end>-1</end>
					<subframeoffset>0</subframeoffset>
					<enabled>TRUE</enabled>
					<masterclipid>KongleWipe start -2 frames før første bilde.wav1</masterclipid>
					<logginginfo>
						<scene/>
						<shottake/>
						<lognote/>
						<good>FALSE</good>
					</logginginfo>
					<labels>
						<label2/>
					</labels>
					<comments>
						<mastercomment1/>
						<mastercomment2/>
						<mastercomment3/>
						<mastercomment4/>
					</comments>
					<file id="KongleWipe start -2 frames før første bilde"/>
					<filter>
						<enabled>TRUE</enabled>
						<start>-1</start>
						<end>-1</end>
						<effect>
							<name>3 Band Equalizer</name>
							<effectid>{61756678, 33426e64, 4b657947}</effectid>
							<effecttype>filter</effecttype>
							<mediatype>audio</mediatype>
							<parameter>
								<parameterid>Low Frequency</parameterid>
								<parameterspecifier>0:0:0</parameterspecifier>
								<name>Low Frequency</name>
								<valuemin>80</valuemin>
								<valuemax>2000</valuemax>
								<value>500</value>
							</parameter>
							<parameter>
								<parameterid>Low Gain(dB)</parameterid>
								<parameterspecifier>1:0:0</parameterspecifier>
								<name>Low Gain(dB)</name>
								<valuemin>-20</valuemin>
								<valuemax>20</valuemax>
								<value>11</value>
							</parameter>
							<parameter>
								<parameterid>Mid Frequency</parameterid>
								<parameterspecifier>2:0:0</parameterspecifier>
								<name>Mid Frequency</name>
								<valuemin>400</valuemin>
								<valuemax>8000</valuemax>
								<value>2200</value>
							</parameter>
							<parameter>
								<parameterid>Mid Gain(dB)</parameterid>
								<parameterspecifier>3:0:0</parameterspecifier>
								<name>Mid Gain(dB)</name>
								<valuemin>-20</valuemin>
								<valuemax>20</valuemax>
								<value>-10</value>
							</parameter>
							<parameter>
								<parameterid>High Frequency</parameterid>
								<parameterspecifier>4:0:0</parameterspecifier>
								<name>High Frequency</name>
								<valuemin>5000</valuemin>
								<valuemax>20000</valuemax>
								<value>5000</value>
							</parameter>
							<parameter>
								<parameterid>High Gain(dB)</parameterid>
								<parameterspecifier>5:0:0</parameterspecifier>
								<name>High Gain(dB)</name>
								<valuemin>-20</valuemin>
								<valuemax>20</valuemax>
								<value>-13</value>
							</parameter>
						</effect>
					</filter>
					<filter>
						<effect>
							<name>Audio Levels</name>
							<effectid>audiolevels</effectid>
							<effectcategory>audiolevels</effectcategory>
							<effecttype>audiolevels</effecttype>
							<mediatype>audio</mediatype>
							<parameter>
								<name>Level</name>
								<parameterid>level</parameterid>
								<valuemin>0</valuemin>
								<valuemax>3.98109</valuemax>
								<value>0.398107</value>
							</parameter>
						</effect>
					</filter>
					<filter>
						<effect>
							<name>Audio Pan</name>
							<effectid>audiopan</effectid>
							<effectcategory>audiopan</effectcategory>
							<effecttype>audiopan</effecttype>
							<mediatype>audio</mediatype>
							<parameter>
								<name>Pan</name>
								<parameterid>pan</parameterid>
								<valuemin>-1</valuemin>
								<valuemax>1</valuemax>
								<value>1</value>
							</parameter>
						</effect>
					</filter>
					<sourcetrack>
						<mediatype>audio</mediatype>
						<trackindex>2</trackindex>
					</sourcetrack>
					<link>
						<linkclipref>KongleWipe start -2 frames før første bilde.wav</linkclipref>
						<mediatype>audio</mediatype>
						<trackindex>3</trackindex>
						<clipindex>5</clipindex>
						<groupindex>1</groupindex>
					</link>
					<link>
						<linkclipref>KongleWipe start -2 frames før første bilde.wav2</linkclipref>
						<mediatype>audio</mediatype>
						<trackindex>4</trackindex>
						<clipindex>5</clipindex>
						<groupindex>1</groupindex>
					</link>
					<itemhistory>
						<uuid>325E2471-A84C-4EC3-8232-1E532735A9CA</uuid>
					</itemhistory>
				</clipitem>
				<transitionitem>
					<rate>
						<ntsc>FALSE</ntsc>
						<timebase>25</timebase>
					</rate>
					<start>846</start>
					<end>879</end>
					<alignment>end-black</alignment>
					<effect>
						<name>Cross Fade (+3dB)</name>
						<effectid>KGAudioTransCrossFade3dB</effectid>
						<effecttype>transition</effecttype>
						<mediatype>audio</mediatype>
					</effect>
				</transitionitem>
				<clipitem id="SPACEWHOO…HOOSHBYSI60404904.WAV2">
					<name>SPACEWHOO…HOOSHBYSI60404904.WAV</name>
					<duration>127</duration>
					<rate>
						<ntsc>FALSE</ntsc>
						<timebase>25</timebase>
					</rate>
					<in>8</in>
					<out>61</out>
					<start>2926</start>
					<end>2979</end>
					<subframeoffset>0</subframeoffset>
					<enabled>TRUE</enabled>
					<masterclipid>SPACEWHOO…HOOSHBYSI60404904.WAV1</masterclipid>
					<logginginfo>
						<scene/>
						<shottake/>
						<lognote/>
						<good>FALSE</good>
					</logginginfo>
					<labels>
						<label2/>
					</labels>
					<comments>
						<mastercomment1/>
						<mastercomment2/>
						<mastercomment3/>
						<mastercomment4/>
					</comments>
					<file id="SPACEWHOO…HOOSHBYSI60404904 "/>
					<filter>
						<effect>
							<name>Audio Levels</name>
							<effectid>audiolevels</effectid>
							<effectcategory>audiolevels</effectcategory>
							<effecttype>audiolevels</effecttype>
							<mediatype>audio</mediatype>
							<parameter>
								<name>Level</name>
								<parameterid>level</parameterid>
								<valuemin>0</valuemin>
								<valuemax>3.98109</valuemax>
								<value>0.251189</value>
							</parameter>
						</effect>
					</filter>
					<filter>
						<effect>
							<name>Audio Pan</name>
							<effectid>audiopan</effectid>
							<effectcategory>audiopan</effectcategory>
							<effecttype>audiopan</effecttype>
							<mediatype>audio</mediatype>
							<parameter>
								<name>Pan</name>
								<parameterid>pan</parameterid>
								<valuemin>-1</valuemin>
								<valuemax>1</valuemax>
								<value>1</value>
							</parameter>
						</effect>
					</filter>
					<sourcetrack>
						<mediatype>audio</mediatype>
						<trackindex>2</trackindex>
					</sourcetrack>
					<link>
						<linkclipref>SPACEWHOO…HOOSHBYSI60404904.WAV</linkclipref>
						<mediatype>audio</mediatype>
						<trackindex>3</trackindex>
						<clipindex>8</clipindex>
						<groupindex>1</groupindex>
					</link>
					<link>
						<linkclipref>SPACEWHOO…HOOSHBYSI60404904.WAV2</linkclipref>
						<mediatype>audio</mediatype>
						<trackindex>4</trackindex>
						<clipindex>7</clipindex>
						<groupindex>1</groupindex>
					</link>
					<itemhistory>
						<uuid>A950B841-9A62-4C4E-AC20-E475B8C0A22C</uuid>
					</itemhistory>
				</clipitem>
				<clipitem id="Cartoon Timpani.caf2">
					<name>Cartoon Timpani.caf</name>
					<duration>41</duration>
					<rate>
						<ntsc>FALSE</ntsc>
						<timebase>25</timebase>
					</rate>
					<in>17</in>
					<out>41</out>
					<start>3019</start>
					<end>-1</end>
					<subframeoffset>0</subframeoffset>
					<masterclipid>Cartoon Timpani.caf1</masterclipid>
					<logginginfo>
						<scene/>
						<shottake/>
						<lognote/>
						<good>FALSE</good>
					</logginginfo>
					<labels>
						<label2/>
					</labels>
					<comments>
						<mastercomment1/>
						<mastercomment2/>
						<mastercomment3/>
						<mastercomment4/>
					</comments>
					<file id="Cartoon Timpani"/>
					<filter>
						<effect>
							<name>Audio Levels</name>
							<effectid>audiolevels</effectid>
							<effectcategory>audiolevels</effectcategory>
							<effecttype>audiolevels</effecttype>
							<mediatype>audio</mediatype>
							<parameter>
								<name>Level</name>
								<parameterid>level</parameterid>
								<valuemin>0</valuemin>
								<valuemax>3.98109</valuemax>
								<keyframe>
									<when>29.8571</when>
									<value>0</value>
								</keyframe>
								<keyframe>
									<when>38.7143</when>
									<value>0.446684</value>
								</keyframe>
								<interpolation>
									<name>FCPCurve</name>
								</interpolation>
								<value>1</value>
							</parameter>
						</effect>
					</filter>
					<filter>
						<effect>
							<name>Audio Pan</name>
							<effectid>audiopan</effectid>
							<effectcategory>audiopan</effectcategory>
							<effecttype>audiopan</effecttype>
							<mediatype>audio</mediatype>
							<parameter>
								<name>Pan</name>
								<parameterid>pan</parameterid>
								<valuemin>-1</valuemin>
								<valuemax>1</valuemax>
								<value>1</value>
							</parameter>
						</effect>
					</filter>
					<sourcetrack>
						<mediatype>audio</mediatype>
						<trackindex>2</trackindex>
					</sourcetrack>
					<link>
						<linkclipref>Cartoon Timpani.caf</linkclipref>
						<mediatype>audio</mediatype>
						<trackindex>3</trackindex>
						<clipindex>9</clipindex>
						<groupindex>1</groupindex>
					</link>
					<link>
						<linkclipref>Cartoon Timpani.caf2</linkclipref>
						<mediatype>audio</mediatype>
						<trackindex>4</trackindex>
						<clipindex>8</clipindex>
						<groupindex>1</groupindex>
					</link>
					<itemhistory>
						<uuid>45DA345A-457D-4CEF-9060-41708C350716</uuid>
					</itemhistory>
					<filter>
						<effect>
							<name>Time Remap</name>
							<effectid>timeremap</effectid>
							<effectcategory>motion</effectcategory>
							<effecttype>motion</effecttype>
							<mediatype>audio</mediatype>
							<parameter>
								<parameterid>variablespeed</parameterid>
								<name>variablespeed</name>
								<valuemin>0</valuemin>
								<valuemax>1</valuemax>
								<value>0</value>
							</parameter>
							<parameter>
								<parameterid>mappedduration</parameterid>
								<name>mappedduration</name>
								<value>
									<timecode>
										<rate>
											<timebase>0</timebase>
										</rate>
										<string>0</string>
										<frame>0</frame>
										<displayformat>NDF</displayformat>
									</timecode>
								</value>
							</parameter>
							<parameter>
								<parameterid>speed</parameterid>
								<name>speed</name>
								<valuemin>-10000</valuemin>
								<valuemax>10000</valuemax>
								<value>100</value>
							</parameter>
							<parameter>
								<parameterid>reverse</parameterid>
								<name>reverse</name>
								<value>TRUE</value>
							</parameter>
							<parameter>
								<parameterid>frameblending</parameterid>
								<name>frameblending</name>
								<value>TRUE</value>
							</parameter>
							<parameter>
								<parameterid>graphdict</parameterid>
								<name>graphdict</name>
								<valuemin>0</valuemin>
								<valuemax>40</valuemax>
								<keyframe>
									<when>0</when>
									<value>42</value>
									<speedkfstart>TRUE</speedkfstart>
									<speedvirtualkf>TRUE</speedvirtualkf>
								</keyframe>
								<keyframe>
									<when>17</when>
									<value>24</value>
									<speedkfin>TRUE</speedkfin>
									<speedvirtualkf>TRUE</speedvirtualkf>
								</keyframe>
								<keyframe>
									<when>41</when>
									<value>1</value>
									<speedkfout>TRUE</speedkfout>
									<speedvirtualkf>TRUE</speedvirtualkf>
								</keyframe>
								<interpolation>
									<name>FCPCurve</name>
								</interpolation>
								<value>23</value>
							</parameter>
						</effect>
					</filter>
				</clipitem>
				<transitionitem>
					<rate>
						<ntsc>FALSE</ntsc>
						<timebase>25</timebase>
					</rate>
					<start>3041</start>
					<end>3043</end>
					<alignment>center</alignment>
					<effect>
						<name>Cross Fade (+3dB)</name>
						<effectid>KGAudioTransCrossFade3dB</effectid>
						<effecttype>transition</effecttype>
						<mediatype>audio</mediatype>
					</effect>
				</transitionitem>
				<clipitem id="Cartoon Timpani.caf4">
					<name>Cartoon Timpani.caf</name>
					<duration>41</duration>
					<rate>
						<ntsc>FALSE</ntsc>
						<timebase>25</timebase>
					</rate>
					<in>0</in>
					<out>41</out>
					<start>-1</start>
					<end>3082</end>
					<subframeoffset>0</subframeoffset>
					<masterclipid>Cartoon Timpani.caf1</masterclipid>
					<logginginfo>
						<scene/>
						<shottake/>
						<lognote/>
						<good>FALSE</good>
					</logginginfo>
					<labels>
						<label2/>
					</labels>
					<comments>
						<mastercomment1/>
						<mastercomment2/>
						<mastercomment3/>
						<mastercomment4/>
					</comments>
					<file id="Cartoon Timpani"/>
					<filter>
						<effect>
							<name>Audio Levels</name>
							<effectid>audiolevels</effectid>
							<effectcategory>audiolevels</effectcategory>
							<effecttype>audiolevels</effecttype>
							<mediatype>audio</mediatype>
							<parameter>
								<name>Level</name>
								<parameterid>level</parameterid>
								<valuemin>0</valuemin>
								<valuemax>3.98109</valuemax>
								<keyframe>
									<when>9.42857</when>
									<value>0.446684</value>
								</keyframe>
								<keyframe>
									<when>40.1429</when>
									<value>0</value>
								</keyframe>
								<interpolation>
									<name>FCPCurve</name>
								</interpolation>
								<value>0.446684</value>
							</parameter>
						</effect>
					</filter>
					<filter>
						<effect>
							<name>Audio Pan</name>
							<effectid>audiopan</effectid>
							<effectcategory>audiopan</effectcategory>
							<effecttype>audiopan</effecttype>
							<mediatype>audio</mediatype>
							<parameter>
								<name>Pan</name>
								<parameterid>pan</parameterid>
								<valuemin>-1</valuemin>
								<valuemax>1</valuemax>
								<value>1</value>
							</parameter>
						</effect>
					</filter>
					<sourcetrack>
						<mediatype>audio</mediatype>
						<trackindex>2</trackindex>
					</sourcetrack>
					<link>
						<linkclipref>Cartoon Timpani.caf3</linkclipref>
						<mediatype>audio</mediatype>
						<trackindex>3</trackindex>
						<clipindex>11</clipindex>
						<groupindex>1</groupindex>
					</link>
					<link>
						<linkclipref>Cartoon Timpani.caf4</linkclipref>
						<mediatype>audio</mediatype>
						<trackindex>4</trackindex>
						<clipindex>10</clipindex>
						<groupindex>1</groupindex>
					</link>
					<itemhistory>
						<uuid>7942C82B-A983-4251-99D8-A1FA94BB6520</uuid>
					</itemhistory>
				</clipitem>
				<clipitem id="SCD078432.wav2">
					<name>SCD078432.wav</name>
					<duration>1960</duration>
					<rate>
						<ntsc>FALSE</ntsc>
						<timebase>25</timebase>
					</rate>
					<in>1887</in>
					<out>1922</out>
					<start>11746</start>
					<end>11781</end>
					<subframeoffset>0</subframeoffset>
					<masterclipid>SCD078432.wav1</masterclipid>
					<logginginfo>
						<scene/>
						<shottake/>
						<lognote/>
						<good>FALSE</good>
					</logginginfo>
					<labels>
						<label2/>
					</labels>
					<comments>
						<mastercomment1/>
						<mastercomment2/>
						<mastercomment3/>
						<mastercomment4/>
					</comments>
					<file id="SCD078432 "/>
					<filter>
						<effect>
							<name>Audio Levels</name>
							<effectid>audiolevels</effectid>
							<effectcategory>audiolevels</effectcategory>
							<effecttype>audiolevels</effecttype>
							<mediatype>audio</mediatype>
							<parameter>
								<name>Level</name>
								<parameterid>level</parameterid>
								<valuemin>0</valuemin>
								<valuemax>3.98109</valuemax>
								<keyframe>
									<when>1887.29</when>
									<value>0</value>
								</keyframe>
								<keyframe>
									<when>1888.14</when>
									<value>0.199526</value>
								</keyframe>
								<interpolation>
									<name>FCPCurve</name>
								</interpolation>
								<value>0.199526</value>
							</parameter>
						</effect>
					</filter>
					<filter>
						<effect>
							<name>Audio Pan</name>
							<effectid>audiopan</effectid>
							<effectcategory>audiopan</effectcategory>
							<effecttype>audiopan</effecttype>
							<mediatype>audio</mediatype>
							<parameter>
								<name>Pan</name>
								<parameterid>pan</parameterid>
								<valuemin>-1</valuemin>
								<valuemax>1</valuemax>
								<value>1</value>
							</parameter>
						</effect>
					</filter>
					<sourcetrack>
						<mediatype>audio</mediatype>
						<trackindex>2</trackindex>
					</sourcetrack>
					<link>
						<linkclipref>SCD078432.wav</linkclipref>
						<mediatype>audio</mediatype>
						<trackindex>3</trackindex>
						<clipindex>13</clipindex>
						<groupindex>1</groupindex>
					</link>
					<link>
						<linkclipref>SCD078432.wav2</linkclipref>
						<mediatype>audio</mediatype>
						<trackindex>4</trackindex>
						<clipindex>11</clipindex>
						<groupindex>1</groupindex>
					</link>
					<itemhistory>
						<uuid>2984EC8E-E614-41DB-80F8-BBAF9E1B6EAD</uuid>
					</itemhistory>
				</clipitem>
				<clipitem id="WHOOSHLARG…WHOOSHBYFS105302.WAV2">
					<name>WHOOSHLARG…WHOOSHBYFS105302.WAV</name>
					<duration>183</duration>
					<rate>
						<ntsc>FALSE</ntsc>
						<timebase>25</timebase>
					</rate>
					<in>19</in>
					<out>55</out>
					<start>14361</start>
					<end>14397</end>
					<subframeoffset>0</subframeoffset>
					<masterclipid>WHOOSHLARG…WHOOSHBYFS105302.WAV1</masterclipid>
					<logginginfo>
						<scene/>
						<shottake/>
						<lognote/>
						<good>FALSE</good>
					</logginginfo>
					<labels>
						<label2/>
					</labels>
					<comments>
						<mastercomment1/>
						<mastercomment2/>
						<mastercomment3/>
						<mastercomment4/>
					</comments>
					<file id="WHOOSHLARG…WHOOSHBYFS105302 "/>
					<filter>
						<effect>
							<name>Audio Levels</name>
							<effectid>audiolevels</effectid>
							<effectcategory>audiolevels</effectcategory>
							<effecttype>audiolevels</effecttype>
							<mediatype>audio</mediatype>
							<parameter>
								<name>Level</name>
								<parameterid>level</parameterid>
								<valuemin>0</valuemin>
								<valuemax>3.98109</valuemax>
								<value>0.251189</value>
							</parameter>
						</effect>
					</filter>
					<filter>
						<effect>
							<name>Audio Pan</name>
							<effectid>audiopan</effectid>
							<effectcategory>audiopan</effectcategory>
							<effecttype>audiopan</effecttype>
							<mediatype>audio</mediatype>
							<parameter>
								<name>Pan</name>
								<parameterid>pan</parameterid>
								<valuemin>-1</valuemin>
								<valuemax>1</valuemax>
								<value>1</value>
							</parameter>
						</effect>
					</filter>
					<sourcetrack>
						<mediatype>audio</mediatype>
						<trackindex>2</trackindex>
					</sourcetrack>
					<link>
						<linkclipref>WHOOSHLARG…WHOOSHBYFS105302.WAV</linkclipref>
						<mediatype>audio</mediatype>
						<trackindex>3</trackindex>
						<clipindex>14</clipindex>
						<groupindex>1</groupindex>
					</link>
					<link>
						<linkclipref>WHOOSHLARG…WHOOSHBYFS105302.WAV2</linkclipref>
						<mediatype>audio</mediatype>
						<trackindex>4</trackindex>
						<clipindex>12</clipindex>
						<groupindex>1</groupindex>
					</link>
					<itemhistory>
						<uuid>E72BE54A-1B3A-413F-B520-C67D1BC4FD9A</uuid>
						<uuid>9C3A1F87-73D3-4109-BC45-A1133EB5085C</uuid>
						<uuid>174378A4-A8B3-4654-A915-D87C74D86DEB</uuid>
					</itemhistory>
					<filter>
						<effect>
							<name>Time Remap</name>
							<effectid>timeremap</effectid>
							<effectcategory>motion</effectcategory>
							<effecttype>motion</effecttype>
							<mediatype>audio</mediatype>
							<parameter>
								<parameterid>variablespeed</parameterid>
								<name>variablespeed</name>
								<valuemin>0</valuemin>
								<valuemax>1</valuemax>
								<value>0</value>
							</parameter>
							<parameter>
								<parameterid>mappedduration</parameterid>
								<name>mappedduration</name>
								<value>
									<timecode>
										<rate>
											<timebase>0</timebase>
										</rate>
										<string>0</string>
										<frame>0</frame>
										<displayformat>NDF</displayformat>
									</timecode>
								</value>
							</parameter>
							<parameter>
								<parameterid>speed</parameterid>
								<name>speed</name>
								<valuemin>-10000</valuemin>
								<valuemax>10000</valuemax>
								<value>50</value>
							</parameter>
							<parameter>
								<parameterid>reverse</parameterid>
								<name>reverse</name>
								<value>FALSE</value>
							</parameter>
							<parameter>
								<parameterid>frameblending</parameterid>
								<name>frameblending</name>
								<value>TRUE</value>
							</parameter>
							<parameter>
								<parameterid>graphdict</parameterid>
								<name>graphdict</name>
								<valuemin>0</valuemin>
								<valuemax>91</valuemax>
								<keyframe>
									<when>0</when>
									<value>0.4999</value>
									<speedkfstart>TRUE</speedkfstart>
									<speedvirtualkf>TRUE</speedvirtualkf>
									<anchorOffset>0.4999</anchorOffset>
								</keyframe>
								<keyframe>
									<when>19</when>
									<value>9.9999</value>
									<speedkfin>TRUE</speedkfin>
									<speedvirtualkf>TRUE</speedvirtualkf>
								</keyframe>
								<keyframe>
									<when>55</when>
									<value>27.9999</value>
									<speedkfout>TRUE</speedkfout>
									<speedvirtualkf>TRUE</speedvirtualkf>
								</keyframe>
								<keyframe>
									<when>183</when>
									<value>92.4999</value>
									<speedkfend>TRUE</speedkfend>
									<speedvirtualkf>TRUE</speedvirtualkf>
								</keyframe>
								<interpolation>
									<name>FCPCurve</name>
								</interpolation>
								<value>9.9999</value>
							</parameter>
						</effect>
					</filter>
				</clipitem>
				<clipitem id="Kråkeklubben Pgm 14 Ny voice Mari.WAV2">
					<name>Kråkeklubben Pgm 14 Ny voice Mari.WAV</name>
					<duration>8963</duration>
					<rate>
						<ntsc>FALSE</ntsc>
						<timebase>25</timebase>
					</rate>
					<in>8621</in>
					<out>8642</out>
					<start>14506</start>
					<end>14527</end>
					<subframeoffset>0</subframeoffset>
					<enabled>TRUE</enabled>
					<masterclipid>Kråkeklubben Pgm 14 Ny voice Mari.WAV1</masterclipid>
					<logginginfo>
						<scene/>
						<shottake/>
						<lognote/>
						<good>FALSE</good>
					</logginginfo>
					<labels>
						<label2/>
					</labels>
					<comments>
						<mastercomment1/>
						<mastercomment2/>
						<mastercomment3/>
						<mastercomment4/>
					</comments>
					<file id="Kråkeklubben Pgm 14 Ny voice Mari"/>
					<filter>
						<effect>
							<name>Audio Levels</name>
							<effectid>audiolevels</effectid>
							<effectcategory>audiolevels</effectcategory>
							<effecttype>audiolevels</effecttype>
							<mediatype>audio</mediatype>
							<parameter>
								<name>Level</name>
								<parameterid>level</parameterid>
								<valuemin>0</valuemin>
								<valuemax>3.98109</valuemax>
								<keyframe>
									<when>5084.85</when>
									<value>1.99526</value>
								</keyframe>
								<interpolation>
									<name>FCPCurve</name>
								</interpolation>
								<value>3.98107</value>
							</parameter>
						</effect>
					</filter>
					<filter>
						<effect>
							<name>Audio Pan</name>
							<effectid>audiopan</effectid>
							<effectcategory>audiopan</effectcategory>
							<effecttype>audiopan</effecttype>
							<mediatype>audio</mediatype>
							<parameter>
								<name>Pan</name>
								<parameterid>pan</parameterid>
								<valuemin>-1</valuemin>
								<valuemax>1</valuemax>
								<value>-0</value>
							</parameter>
						</effect>
					</filter>
					<sourcetrack>
						<mediatype>audio</mediatype>
						<trackindex>2</trackindex>
					</sourcetrack>
					<link>
						<linkclipref>Kråkeklubben Pgm 14 Ny voice Mari.WAV</linkclipref>
						<mediatype>audio</mediatype>
						<trackindex>3</trackindex>
						<clipindex>15</clipindex>
						<groupindex>1</groupindex>
					</link>
					<link>
						<linkclipref>Kråkeklubben Pgm 14 Ny voice Mari.WAV2</linkclipref>
						<mediatype>audio</mediatype>
						<trackindex>4</trackindex>
						<clipindex>13</clipindex>
						<groupindex>1</groupindex>
					</link>
					<itemhistory>
						<uuid>CCE2BEF5-0C4F-44B7-91BD-A6C3EA0E9A70</uuid>
					</itemhistory>
				</clipitem>
				<clipitem id="Kråkeklubben Pgm 14 Ny voice Mari.WAV4">
					<name>Kråkeklubben Pgm 14 Ny voice Mari.WAV</name>
					<duration>8963</duration>
					<rate>
						<ntsc>FALSE</ntsc>
						<timebase>25</timebase>
					</rate>
					<in>8642</in>
					<out>8670</out>
					<start>14532</start>
					<end>14560</end>
					<subframeoffset>0</subframeoffset>
					<masterclipid>Kråkeklubben Pgm 14 Ny voice Mari.WAV1</masterclipid>
					<logginginfo>
						<scene/>
						<shottake/>
						<lognote/>
						<good>FALSE</good>
					</logginginfo>
					<labels>
						<label2/>
					</labels>
					<comments>
						<mastercomment1/>
						<mastercomment2/>
						<mastercomment3/>
						<mastercomment4/>
					</comments>
					<file id="Kråkeklubben Pgm 14 Ny voice Mari"/>
					<filter>
						<effect>
							<name>Audio Levels</name>
							<effectid>audiolevels</effectid>
							<effectcategory>audiolevels</effectcategory>
							<effecttype>audiolevels</effecttype>
							<mediatype>audio</mediatype>
							<parameter>
								<name>Level</name>
								<parameterid>level</parameterid>
								<valuemin>0</valuemin>
								<valuemax>3.98109</valuemax>
								<keyframe>
									<when>5084.85</when>
									<value>1.99526</value>
								</keyframe>
								<interpolation>
									<name>FCPCurve</name>
								</interpolation>
								<value>3.98107</value>
							</parameter>
						</effect>
					</filter>
					<filter>
						<effect>
							<name>Audio Pan</name>
							<effectid>audiopan</effectid>
							<effectcategory>audiopan</effectcategory>
							<effecttype>audiopan</effecttype>
							<mediatype>audio</mediatype>
							<parameter>
								<name>Pan</name>
								<parameterid>pan</parameterid>
								<valuemin>-1</valuemin>
								<valuemax>1</valuemax>
								<value>-0</value>
							</parameter>
						</effect>
					</filter>
					<sourcetrack>
						<mediatype>audio</mediatype>
						<trackindex>2</trackindex>
					</sourcetrack>
					<link>
						<linkclipref>Kråkeklubben Pgm 14 Ny voice Mari.WAV3</linkclipref>
						<mediatype>audio</mediatype>
						<trackindex>3</trackindex>
						<clipindex>16</clipindex>
						<groupindex>1</groupindex>
					</link>
					<link>
						<linkclipref>Kråkeklubben Pgm 14 Ny voice Mari.WAV4</linkclipref>
						<mediatype>audio</mediatype>
						<trackindex>4</trackindex>
						<clipindex>14</clipindex>
						<groupindex>1</groupindex>
					</link>
					<itemhistory>
						<uuid>B32C6514-4635-43BD-AF62-C3E528880B75</uuid>
					</itemhistory>
				</clipitem>
				<clipitem id="WHOOSHLARG…WHOOSHBYFS105302.WAV4">
					<name>WHOOSHLARG…WHOOSHBYFS105302.WAV</name>
					<duration>454</duration>
					<rate>
						<ntsc>FALSE</ntsc>
						<timebase>25</timebase>
					</rate>
					<in>51</in>
					<out>126</out>
					<start>14560</start>
					<end>14635</end>
					<subframeoffset>0</subframeoffset>
					<masterclipid>WHOOSHLARG…WHOOSHBYFS105302.WAV1</masterclipid>
					<logginginfo>
						<scene/>
						<shottake/>
						<lognote/>
						<good>FALSE</good>
					</logginginfo>
					<labels>
						<label2/>
					</labels>
					<comments>
						<mastercomment1/>
						<mastercomment2/>
						<mastercomment3/>
						<mastercomment4/>
					</comments>
					<file id="WHOOSHLARG…WHOOSHBYFS105302 "/>
					<filter>
						<effect>
							<name>Audio Levels</name>
							<effectid>audiolevels</effectid>
							<effectcategory>audiolevels</effectcategory>
							<effecttype>audiolevels</effecttype>
							<mediatype>audio</mediatype>
							<parameter>
								<name>Level</name>
								<parameterid>level</parameterid>
								<valuemin>0</valuemin>
								<valuemax>3.98109</valuemax>
								<keyframe>
									<when>84</when>
									<value>0.281838</value>
								</keyframe>
								<interpolation>
									<name>FCPCurve</name>
								</interpolation>
								<value>0.281838</value>
							</parameter>
						</effect>
					</filter>
					<filter>
						<effect>
							<name>Audio Pan</name>
							<effectid>audiopan</effectid>
							<effectcategory>audiopan</effectcategory>
							<effecttype>audiopan</effecttype>
							<mediatype>audio</mediatype>
							<parameter>
								<name>Pan</name>
								<parameterid>pan</parameterid>
								<valuemin>-1</valuemin>
								<valuemax>1</valuemax>
								<value>1</value>
							</parameter>
						</effect>
					</filter>
					<sourcetrack>
						<mediatype>audio</mediatype>
						<trackindex>2</trackindex>
					</sourcetrack>
					<link>
						<linkclipref>WHOOSHLARG…WHOOSHBYFS105302.WAV3</linkclipref>
						<mediatype>audio</mediatype>
						<trackindex>3</trackindex>
						<clipindex>17</clipindex>
						<groupindex>1</groupindex>
					</link>
					<link>
						<linkclipref>WHOOSHLARG…WHOOSHBYFS105302.WAV4</linkclipref>
						<mediatype>audio</mediatype>
						<trackindex>4</trackindex>
						<clipindex>15</clipindex>
						<groupindex>1</groupindex>
					</link>
					<itemhistory>
						<uuid>3DC346B2-AA14-45C7-A3D0-BF429463EB86</uuid>
						<uuid>652FDDCF-F535-4A8B-92B9-BB16591DBB7A</uuid>
						<uuid>174378A4-A8B3-4654-A915-D87C74D86DEB</uuid>
					</itemhistory>
					<filter>
						<effect>
							<name>Time Remap</name>
							<effectid>timeremap</effectid>
							<effectcategory>motion</effectcategory>
							<effecttype>motion</effecttype>
							<mediatype>audio</mediatype>
							<parameter>
								<parameterid>variablespeed</parameterid>
								<name>variablespeed</name>
								<valuemin>0</valuemin>
								<valuemax>1</valuemax>
								<value>0</value>
							</parameter>
							<parameter>
								<parameterid>mappedduration</parameterid>
								<name>mappedduration</name>
								<value>
									<timecode>
										<rate>
											<timebase>0</timebase>
										</rate>
										<string>0</string>
										<frame>0</frame>
										<displayformat>NDF</displayformat>
									</timecode>
								</value>
							</parameter>
							<parameter>
								<parameterid>speed</parameterid>
								<name>speed</name>
								<valuemin>-10000</valuemin>
								<valuemax>10000</valuemax>
								<value>20</value>
							</parameter>
							<parameter>
								<parameterid>reverse</parameterid>
								<name>reverse</name>
								<value>FALSE</value>
							</parameter>
							<parameter>
								<parameterid>frameblending</parameterid>
								<name>frameblending</name>
								<value>TRUE</value>
							</parameter>
							<parameter>
								<parameterid>graphdict</parameterid>
								<name>graphdict</name>
								<valuemin>0</valuemin>
								<valuemax>91</valuemax>
								<keyframe>
									<when>0</when>
									<value>0.0981</value>
									<speedkfstart>TRUE</speedkfstart>
									<speedvirtualkf>TRUE</speedvirtualkf>
									<anchorOffset>0.0981</anchorOffset>
								</keyframe>
								<keyframe>
									<when>51</when>
									<value>10.3431</value>
									<speedkfin>TRUE</speedkfin>
									<speedvirtualkf>TRUE</speedvirtualkf>
								</keyframe>
								<keyframe>
									<when>126</when>
									<value>25.4094</value>
									<speedkfout>TRUE</speedkfout>
									<speedvirtualkf>TRUE</speedvirtualkf>
								</keyframe>
								<keyframe>
									<when>454</when>
									<value>92.0981</value>
									<speedkfend>TRUE</speedkfend>
									<speedvirtualkf>TRUE</speedvirtualkf>
								</keyframe>
								<interpolation>
									<name>FCPCurve</name>
								</interpolation>
								<value>10.3431</value>
							</parameter>
						</effect>
					</filter>
				</clipitem>
				<clipitem id="DYR19738_01 11">
					<name>DYR19738_01</name>
					<duration>946</duration>
					<rate>
						<ntsc>FALSE</ntsc>
						<timebase>25</timebase>
					</rate>
					<in>713</in>
					<out>743</out>
					<start>15256</start>
					<end>15286</end>
					<subframeoffset>0</subframeoffset>
					<masterclipid>DYR19738_01 1</masterclipid>
					<logginginfo>
						<scene/>
						<shottake/>
						<lognote/>
						<good>FALSE</good>
					</logginginfo>
					<labels>
						<label2/>
					</labels>
					<comments>
						<mastercomment1/>
						<mastercomment2/>
						<mastercomment3/>
						<mastercomment4/>
					</comments>
					<file id="DYR19738_01 2"/>
					<filter>
						<effect>
							<name>Audio Levels</name>
							<effectid>audiolevels</effectid>
							<effectcategory>audiolevels</effectcategory>
							<effecttype>audiolevels</effecttype>
							<mediatype>audio</mediatype>
							<parameter>
								<name>Level</name>
								<parameterid>level</parameterid>
								<valuemin>0</valuemin>
								<valuemax>3.98109</valuemax>
								<value>1</value>
							</parameter>
						</effect>
					</filter>
					<filter>
						<effect>
							<name>Audio Pan</name>
							<effectid>audiopan</effectid>
							<effectcategory>audiopan</effectcategory>
							<effecttype>audiopan</effecttype>
							<mediatype>audio</mediatype>
							<parameter>
								<name>Pan</name>
								<parameterid>pan</parameterid>
								<valuemin>-1</valuemin>
								<valuemax>1</valuemax>
								<value>0</value>
							</parameter>
						</effect>
					</filter>
					<sourcetrack>
						<mediatype>audio</mediatype>
						<trackindex>2</trackindex>
					</sourcetrack>
					<link>
						<linkclipref>DYR19738_01 10</linkclipref>
						<mediatype>audio</mediatype>
						<trackindex>3</trackindex>
						<clipindex>19</clipindex>
					</link>
					<link>
						<linkclipref>DYR19738_01 11</linkclipref>
						<mediatype>audio</mediatype>
						<trackindex>4</trackindex>
						<clipindex>16</clipindex>
					</link>
					<itemhistory>
						<uuid>709BE03B-A1A0-4656-8B01-2D2A4A310F46</uuid>
					</itemhistory>
				</clipitem>
				<clipitem id="WHOOSHLARG…WHOOSHBYFS105302.WAV6">
					<name>WHOOSHLARG…WHOOSHBYFS105302.WAV</name>
					<duration>454</duration>
					<rate>
						<ntsc>FALSE</ntsc>
						<timebase>25</timebase>
					</rate>
					<in>51</in>
					<out>126</out>
					<start>19282</start>
					<end>19357</end>
					<subframeoffset>0</subframeoffset>
					<masterclipid>WHOOSHLARG…WHOOSHBYFS105302.WAV1</masterclipid>
					<logginginfo>
						<scene/>
						<shottake/>
						<lognote/>
						<good>FALSE</good>
					</logginginfo>
					<labels>
						<label2/>
					</labels>
					<comments>
						<mastercomment1/>
						<mastercomment2/>
						<mastercomment3/>
						<mastercomment4/>
					</comments>
					<file id="WHOOSHLARG…WHOOSHBYFS105302 "/>
					<filter>
						<effect>
							<name>Audio Levels</name>
							<effectid>audiolevels</effectid>
							<effectcategory>audiolevels</effectcategory>
							<effecttype>audiolevels</effecttype>
							<mediatype>audio</mediatype>
							<parameter>
								<name>Level</name>
								<parameterid>level</parameterid>
								<valuemin>0</valuemin>
								<valuemax>3.98109</valuemax>
								<keyframe>
									<when>84</when>
									<value>0.281838</value>
								</keyframe>
								<interpolation>
									<name>FCPCurve</name>
								</interpolation>
								<value>0.281838</value>
							</parameter>
						</effect>
					</filter>
					<filter>
						<effect>
							<name>Audio Pan</name>
							<effectid>audiopan</effectid>
							<effectcategory>audiopan</effectcategory>
							<effecttype>audiopan</effecttype>
							<mediatype>audio</mediatype>
							<parameter>
								<name>Pan</name>
								<parameterid>pan</parameterid>
								<valuemin>-1</valuemin>
								<valuemax>1</valuemax>
								<value>1</value>
							</parameter>
						</effect>
					</filter>
					<sourcetrack>
						<mediatype>audio</mediatype>
						<trackindex>2</trackindex>
					</sourcetrack>
					<link>
						<linkclipref>WHOOSHLARG…WHOOSHBYFS105302.WAV5</linkclipref>
						<mediatype>audio</mediatype>
						<trackindex>3</trackindex>
						<clipindex>20</clipindex>
						<groupindex>1</groupindex>
					</link>
					<link>
						<linkclipref>WHOOSHLARG…WHOOSHBYFS105302.WAV6</linkclipref>
						<mediatype>audio</mediatype>
						<trackindex>4</trackindex>
						<clipindex>17</clipindex>
						<groupindex>1</groupindex>
					</link>
					<itemhistory>
						<uuid>CA610D65-7F58-487E-A233-20C6CF97B075</uuid>
						<uuid>652FDDCF-F535-4A8B-92B9-BB16591DBB7A</uuid>
						<uuid>174378A4-A8B3-4654-A915-D87C74D86DEB</uuid>
					</itemhistory>
					<filter>
						<effect>
							<name>Time Remap</name>
							<effectid>timeremap</effectid>
							<effectcategory>motion</effectcategory>
							<effecttype>motion</effecttype>
							<mediatype>audio</mediatype>
							<parameter>
								<parameterid>variablespeed</parameterid>
								<name>variablespeed</name>
								<valuemin>0</valuemin>
								<valuemax>1</valuemax>
								<value>0</value>
							</parameter>
							<parameter>
								<parameterid>mappedduration</parameterid>
								<name>mappedduration</name>
								<value>
									<timecode>
										<rate>
											<timebase>0</timebase>
										</rate>
										<string>0</string>
										<frame>0</frame>
										<displayformat>NDF</displayformat>
									</timecode>
								</value>
							</parameter>
							<parameter>
								<parameterid>speed</parameterid>
								<name>speed</name>
								<valuemin>-10000</valuemin>
								<valuemax>10000</valuemax>
								<value>20</value>
							</parameter>
							<parameter>
								<parameterid>reverse</parameterid>
								<name>reverse</name>
								<value>FALSE</value>
							</parameter>
							<parameter>
								<parameterid>frameblending</parameterid>
								<name>frameblending</name>
								<value>TRUE</value>
							</parameter>
							<parameter>
								<parameterid>graphdict</parameterid>
								<name>graphdict</name>
								<valuemin>0</valuemin>
								<valuemax>91</valuemax>
								<keyframe>
									<when>0</when>
									<value>0.0981</value>
									<speedkfstart>TRUE</speedkfstart>
									<speedvirtualkf>TRUE</speedvirtualkf>
									<anchorOffset>0.0981</anchorOffset>
								</keyframe>
								<keyframe>
									<when>51</when>
									<value>10.3431</value>
									<speedkfin>TRUE</speedkfin>
									<speedvirtualkf>TRUE</speedvirtualkf>
								</keyframe>
								<keyframe>
									<when>126</when>
									<value>25.4094</value>
									<speedkfout>TRUE</speedkfout>
									<speedvirtualkf>TRUE</speedvirtualkf>
								</keyframe>
								<keyframe>
									<when>454</when>
									<value>92.0981</value>
									<speedkfend>TRUE</speedkfend>
									<speedvirtualkf>TRUE</speedvirtualkf>
								</keyframe>
								<interpolation>
									<name>FCPCurve</name>
								</interpolation>
								<value>10.3431</value>
							</parameter>
						</effect>
					</filter>
				</clipitem>
				<clipitem id="Kråkekblubben S01E10 MIX.01_01.wav2">
					<name>Kråkekblubben S01E10 MIX.01_01.wav</name>
					<duration>29118</duration>
					<rate>
						<ntsc>FALSE</ntsc>
						<timebase>25</timebase>
					</rate>
					<in>23648</in>
					<out>26739</out>
					<start>23167</start>
					<end>26258</end>
					<subframeoffset>0</subframeoffset>
					<masterclipid>Kråkekblubben S01E10 MIX.01_01.wav1</masterclipid>
					<logginginfo>
						<scene/>
						<shottake/>
						<lognote/>
						<good>FALSE</good>
					</logginginfo>
					<labels>
						<label2/>
					</labels>
					<comments>
						<mastercomment1/>
						<mastercomment2/>
						<mastercomment3/>
						<mastercomment4/>
					</comments>
					<file id="Kråkekblubben S01E10 MIX.01_01 "/>
					<filter>
						<effect>
							<name>Audio Levels</name>
							<effectid>audiolevels</effectid>
							<effectcategory>audiolevels</effectcategory>
							<effecttype>audiolevels</effecttype>
							<mediatype>audio</mediatype>
							<parameter>
								<name>Level</name>
								<parameterid>level</parameterid>
								<valuemin>0</valuemin>
								<valuemax>3.98109</valuemax>
								<keyframe>
									<when>23648.3</when>
									<value>0</value>
								</keyframe>
								<keyframe>
									<when>23653.6</when>
									<value>1</value>
								</keyframe>
								<keyframe>
									<when>26715.9</when>
									<value>1</value>
								</keyframe>
								<keyframe>
									<when>26738</when>
									<value>0</value>
								</keyframe>
								<interpolation>
									<name>FCPCurve</name>
								</interpolation>
								<value>1</value>
							</parameter>
						</effect>
					</filter>
					<filter>
						<effect>
							<name>Audio Pan</name>
							<effectid>audiopan</effectid>
							<effectcategory>audiopan</effectcategory>
							<effecttype>audiopan</effecttype>
							<mediatype>audio</mediatype>
							<parameter>
								<name>Pan</name>
								<parameterid>pan</parameterid>
								<valuemin>-1</valuemin>
								<valuemax>1</valuemax>
								<value>1</value>
							</parameter>
						</effect>
					</filter>
					<sourcetrack>
						<mediatype>audio</mediatype>
						<trackindex>2</trackindex>
					</sourcetrack>
					<link>
						<linkclipref>Kråkekblubben S01E10 MIX.01_01.wav</linkclipref>
						<mediatype>audio</mediatype>
						<trackindex>3</trackindex>
						<clipindex>21</clipindex>
						<groupindex>1</groupindex>
					</link>
					<link>
						<linkclipref>Kråkekblubben S01E10 MIX.01_01.wav2</linkclipref>
						<mediatype>audio</mediatype>
						<trackindex>4</trackindex>
						<clipindex>18</clipindex>
						<groupindex>1</groupindex>
					</link>
					<itemhistory>
						<uuid>6E5D6A50-4F3A-4D36-8AE2-D5C50A7BC31B</uuid>
					</itemhistory>
				</clipitem>
				<enabled>TRUE</enabled>
				<locked>FALSE</locked>
				<outputchannelindex>2</outputchannelindex>
			</track>
			<track>
				<clipitem id="Vignett Ferdigmiks.wav">
					<name>Vignett Ferdigmiks.wav</name>
					<duration>1604</duration>
					<rate>
						<ntsc>FALSE</ntsc>
						<timebase>25</timebase>
					</rate>
					<in>0</in>
					<out>884</out>
					<start>0</start>
					<end>884</end>
					<subframeoffset>0</subframeoffset>
					<masterclipid>Vignett Ferdigmiks.wav1</masterclipid>
					<logginginfo>
						<scene/>
						<shottake/>
						<lognote/>
						<good>FALSE</good>
					</logginginfo>
					<labels>
						<label2/>
					</labels>
					<comments>
						<mastercomment1/>
						<mastercomment2/>
						<mastercomment3/>
						<mastercomment4/>
					</comments>
					<file id="Vignett Ferdigmiks">
						<name>Vignett Ferdigmiks.wav</name>
						<pathurl>file://localhost/Volumes/Askepott/Prosjekter/DNPR637010_Kra%CC%8Akeklubben_TEM_011212/MUSIKK/Vignett%20Ferdigmiks.wav</pathurl>
						<rate>
							<timebase>25</timebase>
						</rate>
						<duration>1604</duration>
						<timecode>
							<rate>
								<timebase>25</timebase>
							</rate>
							<string>00:07:20:04</string>
							<frame>11004</frame>
							<displayformat>NDF</displayformat>
							<source>source</source>
						</timecode>
						<media>
							<audio>
								<samplecharacteristics>
									<samplerate>48000</samplerate>
									<depth>24</depth>
								</samplecharacteristics>
								<channelcount>2</channelcount>
							</audio>
						</media>
					</file>
					<filter>
						<effect>
							<name>Audio Levels</name>
							<effectid>audiolevels</effectid>
							<effectcategory>audiolevels</effectcategory>
							<effecttype>audiolevels</effecttype>
							<mediatype>audio</mediatype>
							<parameter>
								<name>Level</name>
								<parameterid>level</parameterid>
								<valuemin>0</valuemin>
								<valuemax>3.98109</valuemax>
								<value>1</value>
							</parameter>
						</effect>
					</filter>
					<filter>
						<effect>
							<name>Audio Pan</name>
							<effectid>audiopan</effectid>
							<effectcategory>audiopan</effectcategory>
							<effecttype>audiopan</effecttype>
							<mediatype>audio</mediatype>
							<parameter>
								<name>Pan</name>
								<parameterid>pan</parameterid>
								<valuemin>-1</valuemin>
								<valuemax>1</valuemax>
								<value>-1</value>
							</parameter>
						</effect>
					</filter>
					<sourcetrack>
						<mediatype>audio</mediatype>
						<trackindex>1</trackindex>
					</sourcetrack>
					<link>
						<linkclipref>Vignett Ferdigmiks.wav</linkclipref>
						<mediatype>audio</mediatype>
						<trackindex>5</trackindex>
						<clipindex>1</clipindex>
						<groupindex>1</groupindex>
					</link>
					<link>
						<linkclipref>Vignett Ferdigmiks.wav2</linkclipref>
						<mediatype>audio</mediatype>
						<trackindex>6</trackindex>
						<clipindex>1</clipindex>
						<groupindex>1</groupindex>
					</link>
					<itemhistory>
						<uuid>96A82870-73C4-4D74-85A7-FA63327A6E1E</uuid>
					</itemhistory>
				</clipitem>
				<clipitem id="StarsIn…tronicDIGIFXJ027401.WAV">
					<name>StarsIn…tronicDIGIFXJ027401.WAV</name>
					<duration>822</duration>
					<rate>
						<ntsc>FALSE</ntsc>
						<timebase>25</timebase>
					</rate>
					<in>16</in>
					<out>153</out>
					<start>2823</start>
					<end>-1</end>
					<subframeoffset>0</subframeoffset>
					<masterclipid>StarsIn…tronicDIGIFXJ027401.WAV1</masterclipid>
					<logginginfo>
						<scene/>
						<shottake/>
						<lognote/>
						<good>FALSE</good>
					</logginginfo>
					<labels>
						<label2/>
					</labels>
					<comments>
						<mastercomment1/>
						<mastercomment2/>
						<mastercomment3/>
						<mastercomment4/>
					</comments>
					<file id="StarsIn…tronicDIGIFXJ027401 ">
						<name>StarsIn…tronicDIGIFXJ027401.WAV</name>
						<pathurl>file://localhost/Volumes/Askepott/Prosjekter/DNPR630011_Dyrevenn_sesong_7_KAL_010612/Lydeffekter/Natur/StarsIn%E2%80%A6tronicDIGIFXJ027401.WAV</pathurl>
						<rate>
							<timebase>25</timebase>
						</rate>
						<duration>822</duration>
						<timecode>
							<rate>
								<timebase>25</timebase>
							</rate>
							<string>00:00:00:00</string>
							<frame>0</frame>
							<displayformat>NDF</displayformat>
							<source>source</source>
						</timecode>
						<media>
							<audio>
								<samplecharacteristics>
									<samplerate>44100</samplerate>
									<depth>16</depth>
								</samplecharacteristics>
								<channelcount>2</channelcount>
							</audio>
						</media>
					</file>
					<filter>
						<effect>
							<name>Audio Levels</name>
							<effectid>audiolevels</effectid>
							<effectcategory>audiolevels</effectcategory>
							<effecttype>audiolevels</effecttype>
							<mediatype>audio</mediatype>
							<parameter>
								<name>Level</name>
								<parameterid>level</parameterid>
								<valuemin>0</valuemin>
								<valuemax>3.98109</valuemax>
								<keyframe>
									<when>16.7143</when>
									<value>0</value>
								</keyframe>
								<keyframe>
									<when>45</when>
									<value>0.251189</value>
								</keyframe>
								<interpolation>
									<name>FCPCurve</name>
								</interpolation>
								<value>0.0630957</value>
							</parameter>
						</effect>
					</filter>
					<filter>
						<effect>
							<name>Audio Pan</name>
							<effectid>audiopan</effectid>
							<effectcategory>audiopan</effectcategory>
							<effecttype>audiopan</effecttype>
							<mediatype>audio</mediatype>
							<parameter>
								<name>Pan</name>
								<parameterid>pan</parameterid>
								<valuemin>-1</valuemin>
								<valuemax>1</valuemax>
								<value>-1</value>
							</parameter>
						</effect>
					</filter>
					<sourcetrack>
						<mediatype>audio</mediatype>
						<trackindex>1</trackindex>
					</sourcetrack>
					<link>
						<linkclipref>StarsIn…tronicDIGIFXJ027401.WAV</linkclipref>
						<mediatype>audio</mediatype>
						<trackindex>5</trackindex>
						<clipindex>2</clipindex>
						<groupindex>1</groupindex>
					</link>
					<link>
						<linkclipref>StarsIn…tronicDIGIFXJ027401.WAV2</linkclipref>
						<mediatype>audio</mediatype>
						<trackindex>6</trackindex>
						<clipindex>2</clipindex>
						<groupindex>1</groupindex>
					</link>
					<itemhistory>
						<uuid>96258829-4CBC-4514-A6FB-93E03E64BEAA</uuid>
					</itemhistory>
				</clipitem>
				<transitionitem>
					<rate>
						<ntsc>FALSE</ntsc>
						<timebase>25</timebase>
					</rate>
					<start>2935</start>
					<end>2960</end>
					<alignment>center</alignment>
					<effect>
						<name>Cross Fade (+3dB)</name>
						<effectid>KGAudioTransCrossFade3dB</effectid>
						<effecttype>transition</effecttype>
						<mediatype>audio</mediatype>
					</effect>
				</transitionitem>
				<clipitem id="Gong-DeepDIGIFXJ013601.WAV">
					<name>Gong-DeepDIGIFXJ013601.WAV</name>
					<duration>1049</duration>
					<rate>
						<ntsc>FALSE</ntsc>
						<timebase>25</timebase>
					</rate>
					<in>7</in>
					<out>152</out>
					<start>-1</start>
					<end>3080</end>
					<subframeoffset>0</subframeoffset>
					<masterclipid>Gong-DeepDIGIFXJ013601.WAV1</masterclipid>
					<logginginfo>
						<scene/>
						<shottake/>
						<lognote/>
						<good>FALSE</good>
					</logginginfo>
					<labels>
						<label2/>
					</labels>
					<comments>
						<mastercomment1/>
						<mastercomment2/>
						<mastercomment3/>
						<mastercomment4/>
					</comments>
					<file id="Gong-DeepDIGIFXJ013601 ">
						<name>Gong-DeepDIGIFXJ013601.WAV</name>
						<pathurl>file://localhost/Volumes/Askepott/Prosjekter/DNPR630011_Dyrevenn_sesong_7_KAL_010612/Lydeffekter/Korte%20lyder/Gong-DeepDIGIFXJ013601.WAV</pathurl>
						<rate>
							<timebase>25</timebase>
						</rate>
						<duration>1049</duration>
						<timecode>
							<rate>
								<timebase>25</timebase>
							</rate>
							<string>00:00:00:00</string>
							<frame>0</frame>
							<displayformat>NDF</displayformat>
							<source>source</source>
						</timecode>
						<media>
							<audio>
								<samplecharacteristics>
									<samplerate>44100</samplerate>
									<depth>16</depth>
								</samplecharacteristics>
								<channelcount>2</channelcount>
							</audio>
						</media>
					</file>
					<filter>
						<effect>
							<name>Audio Levels</name>
							<effectid>audiolevels</effectid>
							<effectcategory>audiolevels</effectcategory>
							<effecttype>audiolevels</effecttype>
							<mediatype>audio</mediatype>
							<parameter>
								<name>Level</name>
								<parameterid>level</parameterid>
								<valuemin>0</valuemin>
								<valuemax>3.98109</valuemax>
								<keyframe>
									<when>98.7143</when>
									<value>0.158489</value>
								</keyframe>
								<keyframe>
									<when>129.857</when>
									<value>0</value>
								</keyframe>
								<interpolation>
									<name>FCPCurve</name>
								</interpolation>
								<value>1</value>
							</parameter>
						</effect>
					</filter>
					<filter>
						<effect>
							<name>Audio Pan</name>
							<effectid>audiopan</effectid>
							<effectcategory>audiopan</effectcategory>
							<effecttype>audiopan</effecttype>
							<mediatype>audio</mediatype>
							<parameter>
								<name>Pan</name>
								<parameterid>pan</parameterid>
								<valuemin>-1</valuemin>
								<valuemax>1</valuemax>
								<value>-1</value>
							</parameter>
						</effect>
					</filter>
					<sourcetrack>
						<mediatype>audio</mediatype>
						<trackindex>1</trackindex>
					</sourcetrack>
					<link>
						<linkclipref>Gong-DeepDIGIFXJ013601.WAV</linkclipref>
						<mediatype>audio</mediatype>
						<trackindex>5</trackindex>
						<clipindex>4</clipindex>
						<groupindex>1</groupindex>
					</link>
					<link>
						<linkclipref>Gong-DeepDIGIFXJ013601.WAV2</linkclipref>
						<mediatype>audio</mediatype>
						<trackindex>6</trackindex>
						<clipindex>4</clipindex>
						<groupindex>1</groupindex>
					</link>
					<itemhistory>
						<uuid>C2A591C4-C729-46BA-A654-BF31795CA380</uuid>
					</itemhistory>
				</clipitem>
				<clipitem id="SCD072839.wav">
					<name>SCD072839.wav</name>
					<duration>2853</duration>
					<rate>
						<ntsc>FALSE</ntsc>
						<timebase>25</timebase>
					</rate>
					<in>0</in>
					<out>1335</out>
					<start>5793</start>
					<end>-1</end>
					<subframeoffset>0</subframeoffset>
					<masterclipid>SCD072839.wav1</masterclipid>
					<logginginfo>
						<scene/>
						<shottake/>
						<lognote/>
						<good>FALSE</good>
					</logginginfo>
					<labels>
						<label2/>
					</labels>
					<comments>
						<mastercomment1/>
						<mastercomment2/>
						<mastercomment3/>
						<mastercomment4/>
					</comments>
					<file id="SCD072839 ">
						<name>SCD072839.wav</name>
						<pathurl>file://localhost/Volumes/Askepott/Prosjekter/DNPR637010_Kra%CC%8Akeklubben_TEM_011212/MUSIKK/INSEKT/SCD072839.wav</pathurl>
						<rate>
							<timebase>25</timebase>
						</rate>
						<duration>2853</duration>
						<media>
							<audio>
								<samplecharacteristics>
									<samplerate>48000</samplerate>
									<depth>16</depth>
								</samplecharacteristics>
								<channelcount>2</channelcount>
							</audio>
						</media>
					</file>
					<filter>
						<effect>
							<name>Audio Levels</name>
							<effectid>audiolevels</effectid>
							<effectcategory>audiolevels</effectcategory>
							<effecttype>audiolevels</effecttype>
							<mediatype>audio</mediatype>
							<parameter>
								<name>Level</name>
								<parameterid>level</parameterid>
								<valuemin>0</valuemin>
								<valuemax>3.98109</valuemax>
								<keyframe>
									<when>65.2857</when>
									<value>0.251189</value>
								</keyframe>
								<keyframe>
									<when>155</when>
									<value>0.112202</value>
								</keyframe>
								<keyframe>
									<when>1689</when>
									<value>0.0891251</value>
								</keyframe>
								<interpolation>
									<name>FCPCurve</name>
								</interpolation>
								<value>0.251189</value>
							</parameter>
						</effect>
					</filter>
					<filter>
						<effect>
							<name>Audio Pan</name>
							<effectid>audiopan</effectid>
							<effectcategory>audiopan</effectcategory>
							<effecttype>audiopan</effecttype>
							<mediatype>audio</mediatype>
							<parameter>
								<name>Pan</name>
								<parameterid>pan</parameterid>
								<valuemin>-1</valuemin>
								<valuemax>1</valuemax>
								<value>-1</value>
							</parameter>
						</effect>
					</filter>
					<sourcetrack>
						<mediatype>audio</mediatype>
						<trackindex>1</trackindex>
					</sourcetrack>
					<link>
						<linkclipref>SCD072839.wav</linkclipref>
						<mediatype>audio</mediatype>
						<trackindex>5</trackindex>
						<clipindex>5</clipindex>
						<groupindex>1</groupindex>
					</link>
					<link>
						<linkclipref>SCD072839.wav2</linkclipref>
						<mediatype>audio</mediatype>
						<trackindex>6</trackindex>
						<clipindex>5</clipindex>
						<groupindex>1</groupindex>
					</link>
					<itemhistory>
						<uuid>F299E9B0-8C93-4D6D-9773-CA9F0E72C4D4</uuid>
					</itemhistory>
				</clipitem>
				<transitionitem>
					<rate>
						<ntsc>FALSE</ntsc>
						<timebase>25</timebase>
					</rate>
					<start>7083</start>
					<end>7128</end>
					<alignment>center</alignment>
					<effect>
						<name>Cross Fade (+3dB)</name>
						<effectid>KGAudioTransCrossFade3dB</effectid>
						<effecttype>transition</effecttype>
						<mediatype>audio</mediatype>
					</effect>
				</transitionitem>
				<clipitem id="SCD072839.wav3">
					<name>SCD072839.wav</name>
					<duration>2853</duration>
					<rate>
						<ntsc>FALSE</ntsc>
						<timebase>25</timebase>
					</rate>
					<in>2540</in>
					<out>2853</out>
					<start>-1</start>
					<end>7396</end>
					<subframeoffset>0</subframeoffset>
					<enabled>TRUE</enabled>
					<masterclipid>SCD072839.wav1</masterclipid>
					<logginginfo>
						<scene/>
						<shottake/>
						<lognote/>
						<good>FALSE</good>
					</logginginfo>
					<labels>
						<label2/>
					</labels>
					<comments>
						<mastercomment1/>
						<mastercomment2/>
						<mastercomment3/>
						<mastercomment4/>
					</comments>
					<file id="SCD072839 "/>
					<filter>
						<effect>
							<name>Audio Levels</name>
							<effectid>audiolevels</effectid>
							<effectcategory>audiolevels</effectcategory>
							<effecttype>audiolevels</effecttype>
							<mediatype>audio</mediatype>
							<parameter>
								<name>Level</name>
								<parameterid>level</parameterid>
								<valuemin>0</valuemin>
								<valuemax>3.98109</valuemax>
								<keyframe>
									<when>65.2857</when>
									<value>0.251189</value>
								</keyframe>
								<keyframe>
									<when>155</when>
									<value>0.112202</value>
								</keyframe>
								<keyframe>
									<when>1689</when>
									<value>0.0891251</value>
								</keyframe>
								<interpolation>
									<name>FCPCurve</name>
								</interpolation>
								<value>0.251189</value>
							</parameter>
						</effect>
					</filter>
					<filter>
						<effect>
							<name>Audio Pan</name>
							<effectid>audiopan</effectid>
							<effectcategory>audiopan</effectcategory>
							<effecttype>audiopan</effecttype>
							<mediatype>audio</mediatype>
							<parameter>
								<name>Pan</name>
								<parameterid>pan</parameterid>
								<valuemin>-1</valuemin>
								<valuemax>1</valuemax>
								<value>-1</value>
							</parameter>
						</effect>
					</filter>
					<sourcetrack>
						<mediatype>audio</mediatype>
						<trackindex>1</trackindex>
					</sourcetrack>
					<link>
						<linkclipref>SCD072839.wav3</linkclipref>
						<mediatype>audio</mediatype>
						<trackindex>5</trackindex>
						<clipindex>7</clipindex>
						<groupindex>1</groupindex>
					</link>
					<link>
						<linkclipref>SCD072839.wav4</linkclipref>
						<mediatype>audio</mediatype>
						<trackindex>6</trackindex>
						<clipindex>7</clipindex>
						<groupindex>1</groupindex>
					</link>
					<itemhistory>
						<uuid>727FCB97-C977-4805-968A-35B11B76D52F</uuid>
					</itemhistory>
				</clipitem>
				<clipitem id="WHOOSHLARG…WHOOSHBYFS105302.WAV7">
					<name>WHOOSHLARG…WHOOSHBYFS105302.WAV</name>
					<duration>183</duration>
					<rate>
						<ntsc>FALSE</ntsc>
						<timebase>25</timebase>
					</rate>
					<in>0</in>
					<out>82</out>
					<start>7705</start>
					<end>7787</end>
					<subframeoffset>0</subframeoffset>
					<masterclipid>WHOOSHLARG…WHOOSHBYFS105302.WAV1</masterclipid>
					<logginginfo>
						<scene/>
						<shottake/>
						<lognote/>
						<good>FALSE</good>
					</logginginfo>
					<labels>
						<label2/>
					</labels>
					<comments>
						<mastercomment1/>
						<mastercomment2/>
						<mastercomment3/>
						<mastercomment4/>
					</comments>
					<file id="WHOOSHLARG…WHOOSHBYFS105302 "/>
					<filter>
						<effect>
							<name>Audio Levels</name>
							<effectid>audiolevels</effectid>
							<effectcategory>audiolevels</effectcategory>
							<effecttype>audiolevels</effecttype>
							<mediatype>audio</mediatype>
							<parameter>
								<name>Level</name>
								<parameterid>level</parameterid>
								<valuemin>0</valuemin>
								<valuemax>3.98109</valuemax>
								<value>0.251189</value>
							</parameter>
						</effect>
					</filter>
					<filter>
						<effect>
							<name>Audio Pan</name>
							<effectid>audiopan</effectid>
							<effectcategory>audiopan</effectcategory>
							<effecttype>audiopan</effecttype>
							<mediatype>audio</mediatype>
							<parameter>
								<name>Pan</name>
								<parameterid>pan</parameterid>
								<valuemin>-1</valuemin>
								<valuemax>1</valuemax>
								<value>-1</value>
							</parameter>
						</effect>
					</filter>
					<sourcetrack>
						<mediatype>audio</mediatype>
						<trackindex>1</trackindex>
					</sourcetrack>
					<link>
						<linkclipref>WHOOSHLARG…WHOOSHBYFS105302.WAV7</linkclipref>
						<mediatype>audio</mediatype>
						<trackindex>5</trackindex>
						<clipindex>8</clipindex>
						<groupindex>1</groupindex>
					</link>
					<link>
						<linkclipref>WHOOSHLARG…WHOOSHBYFS105302.WAV8</linkclipref>
						<mediatype>audio</mediatype>
						<trackindex>6</trackindex>
						<clipindex>8</clipindex>
						<groupindex>1</groupindex>
					</link>
					<itemhistory>
						<uuid>CBBB4CBF-4A20-4B2D-B546-900EDB9CF8B4</uuid>
						<uuid>D1219752-0F3C-47C2-BEB0-CFA7F8310A44</uuid>
						<uuid>301CDA3A-FFC8-4FD2-82AD-68A0F0B1C07D</uuid>
					</itemhistory>
					<filter>
						<effect>
							<name>Time Remap</name>
							<effectid>timeremap</effectid>
							<effectcategory>motion</effectcategory>
							<effecttype>motion</effecttype>
							<mediatype>audio</mediatype>
							<parameter>
								<parameterid>variablespeed</parameterid>
								<name>variablespeed</name>
								<valuemin>0</valuemin>
								<valuemax>1</valuemax>
								<value>0</value>
							</parameter>
							<parameter>
								<parameterid>mappedduration</parameterid>
								<name>mappedduration</name>
								<value>
									<timecode>
										<rate>
											<timebase>0</timebase>
										</rate>
										<string>0</string>
										<frame>0</frame>
										<displayformat>NDF</displayformat>
									</timecode>
								</value>
							</parameter>
							<parameter>
								<parameterid>speed</parameterid>
								<name>speed</name>
								<valuemin>-10000</valuemin>
								<valuemax>10000</valuemax>
								<value>50</value>
							</parameter>
							<parameter>
								<parameterid>reverse</parameterid>
								<name>reverse</name>
								<value>FALSE</value>
							</parameter>
							<parameter>
								<parameterid>frameblending</parameterid>
								<name>frameblending</name>
								<value>TRUE</value>
							</parameter>
							<parameter>
								<parameterid>graphdict</parameterid>
								<name>graphdict</name>
								<valuemin>0</valuemin>
								<valuemax>91</valuemax>
								<keyframe>
									<when>0</when>
									<value>0.4999</value>
									<speedkfin>TRUE</speedkfin>
									<anchorOffset>0.4999</anchorOffset>
								</keyframe>
								<keyframe>
									<when>82</when>
									<value>41.4999</value>
									<speedkfout>TRUE</speedkfout>
									<speedvirtualkf>TRUE</speedvirtualkf>
								</keyframe>
								<keyframe>
									<when>183</when>
									<value>92.4999</value>
									<speedkfend>TRUE</speedkfend>
									<speedvirtualkf>TRUE</speedvirtualkf>
								</keyframe>
								<interpolation>
									<name>FCPCurve</name>
								</interpolation>
								<value>0.4999</value>
							</parameter>
						</effect>
					</filter>
				</clipitem>
				<clipitem id="WHOOSHLARG…WHOOSHBYFS105302.WAV9">
					<name>WHOOSHLARG…WHOOSHBYFS105302.WAV</name>
					<duration>454</duration>
					<rate>
						<ntsc>FALSE</ntsc>
						<timebase>25</timebase>
					</rate>
					<in>40</in>
					<out>110</out>
					<start>7875</start>
					<end>7945</end>
					<subframeoffset>0</subframeoffset>
					<masterclipid>WHOOSHLARG…WHOOSHBYFS105302.WAV1</masterclipid>
					<logginginfo>
						<scene/>
						<shottake/>
						<lognote/>
						<good>FALSE</good>
					</logginginfo>
					<labels>
						<label2/>
					</labels>
					<comments>
						<mastercomment1/>
						<mastercomment2/>
						<mastercomment3/>
						<mastercomment4/>
					</comments>
					<file id="WHOOSHLARG…WHOOSHBYFS105302 "/>
					<filter>
						<effect>
							<name>Audio Levels</name>
							<effectid>audiolevels</effectid>
							<effectcategory>audiolevels</effectcategory>
							<effecttype>audiolevels</effecttype>
							<mediatype>audio</mediatype>
							<parameter>
								<name>Level</name>
								<parameterid>level</parameterid>
								<valuemin>0</valuemin>
								<valuemax>3.98109</valuemax>
								<value>0.354813</value>
							</parameter>
						</effect>
					</filter>
					<filter>
						<effect>
							<name>Audio Pan</name>
							<effectid>audiopan</effectid>
							<effectcategory>audiopan</effectcategory>
							<effecttype>audiopan</effecttype>
							<mediatype>audio</mediatype>
							<parameter>
								<name>Pan</name>
								<parameterid>pan</parameterid>
								<valuemin>-1</valuemin>
								<valuemax>1</valuemax>
								<value>-1</value>
							</parameter>
						</effect>
					</filter>
					<sourcetrack>
						<mediatype>audio</mediatype>
						<trackindex>1</trackindex>
					</sourcetrack>
					<link>
						<linkclipref>WHOOSHLARG…WHOOSHBYFS105302.WAV9</linkclipref>
						<mediatype>audio</mediatype>
						<trackindex>5</trackindex>
						<clipindex>9</clipindex>
						<groupindex>1</groupindex>
					</link>
					<link>
						<linkclipref>WHOOSHLARG…WHOOSHBYFS105302.WAV10</linkclipref>
						<mediatype>audio</mediatype>
						<trackindex>6</trackindex>
						<clipindex>9</clipindex>
						<groupindex>1</groupindex>
					</link>
					<itemhistory>
						<uuid>E44F1A37-E4BF-4770-BDFA-4997040C01C5</uuid>
						<uuid>65A050B0-AD2E-4036-B64B-00FDDC246999</uuid>
						<uuid>301CDA3A-FFC8-4FD2-82AD-68A0F0B1C07D</uuid>
					</itemhistory>
					<filter>
						<effect>
							<name>Time Remap</name>
							<effectid>timeremap</effectid>
							<effectcategory>motion</effectcategory>
							<effecttype>motion</effecttype>
							<mediatype>audio</mediatype>
							<parameter>
								<parameterid>variablespeed</parameterid>
								<name>variablespeed</name>
								<valuemin>0</valuemin>
								<valuemax>1</valuemax>
								<value>0</value>
							</parameter>
							<parameter>
								<parameterid>mappedduration</parameterid>
								<name>mappedduration</name>
								<value>
									<timecode>
										<rate>
											<timebase>0</timebase>
										</rate>
										<string>0</string>
										<frame>0</frame>
										<displayformat>NDF</displayformat>
									</timecode>
								</value>
							</parameter>
							<parameter>
								<parameterid>speed</parameterid>
								<name>speed</name>
								<valuemin>-10000</valuemin>
								<valuemax>10000</valuemax>
								<value>20</value>
							</parameter>
							<parameter>
								<parameterid>reverse</parameterid>
								<name>reverse</name>
								<value>FALSE</value>
							</parameter>
							<parameter>
								<parameterid>frameblending</parameterid>
								<name>frameblending</name>
								<value>TRUE</value>
							</parameter>
							<parameter>
								<parameterid>graphdict</parameterid>
								<name>graphdict</name>
								<valuemin>0</valuemin>
								<valuemax>91</valuemax>
								<keyframe>
									<when>0</when>
									<value>0.0981</value>
									<speedkfstart>TRUE</speedkfstart>
									<speedvirtualkf>TRUE</speedvirtualkf>
									<anchorOffset>0.0981</anchorOffset>
								</keyframe>
								<keyframe>
									<when>40</when>
									<value>8.13342</value>
									<speedkfin>TRUE</speedkfin>
									<speedvirtualkf>TRUE</speedvirtualkf>
								</keyframe>
								<keyframe>
									<when>110</when>
									<value>22.1952</value>
									<speedkfout>TRUE</speedkfout>
									<speedvirtualkf>TRUE</speedvirtualkf>
								</keyframe>
								<keyframe>
									<when>454</when>
									<value>92.0981</value>
									<speedkfend>TRUE</speedkfend>
									<speedvirtualkf>TRUE</speedvirtualkf>
								</keyframe>
								<interpolation>
									<name>FCPCurve</name>
								</interpolation>
								<value>8.13342</value>
							</parameter>
						</effect>
					</filter>
				</clipitem>
				<clipitem id="WHOOSHLARG…WHOOSHBYFS105302.WAV11">
					<name>WHOOSHLARG…WHOOSHBYFS105302.WAV</name>
					<duration>183</duration>
					<rate>
						<ntsc>FALSE</ntsc>
						<timebase>25</timebase>
					</rate>
					<in>0</in>
					<out>82</out>
					<start>8218</start>
					<end>8300</end>
					<subframeoffset>0</subframeoffset>
					<masterclipid>WHOOSHLARG…WHOOSHBYFS105302.WAV1</masterclipid>
					<logginginfo>
						<scene/>
						<shottake/>
						<lognote/>
						<good>FALSE</good>
					</logginginfo>
					<labels>
						<label2/>
					</labels>
					<comments>
						<mastercomment1/>
						<mastercomment2/>
						<mastercomment3/>
						<mastercomment4/>
					</comments>
					<file id="WHOOSHLARG…WHOOSHBYFS105302 "/>
					<filter>
						<effect>
							<name>Audio Levels</name>
							<effectid>audiolevels</effectid>
							<effectcategory>audiolevels</effectcategory>
							<effecttype>audiolevels</effecttype>
							<mediatype>audio</mediatype>
							<parameter>
								<name>Level</name>
								<parameterid>level</parameterid>
								<valuemin>0</valuemin>
								<valuemax>3.98109</valuemax>
								<value>0.251189</value>
							</parameter>
						</effect>
					</filter>
					<filter>
						<effect>
							<name>Audio Pan</name>
							<effectid>audiopan</effectid>
							<effectcategory>audiopan</effectcategory>
							<effecttype>audiopan</effecttype>
							<mediatype>audio</mediatype>
							<parameter>
								<name>Pan</name>
								<parameterid>pan</parameterid>
								<valuemin>-1</valuemin>
								<valuemax>1</valuemax>
								<value>-1</value>
							</parameter>
						</effect>
					</filter>
					<sourcetrack>
						<mediatype>audio</mediatype>
						<trackindex>1</trackindex>
					</sourcetrack>
					<link>
						<linkclipref>WHOOSHLARG…WHOOSHBYFS105302.WAV11</linkclipref>
						<mediatype>audio</mediatype>
						<trackindex>5</trackindex>
						<clipindex>10</clipindex>
						<groupindex>1</groupindex>
					</link>
					<link>
						<linkclipref>WHOOSHLARG…WHOOSHBYFS105302.WAV12</linkclipref>
						<mediatype>audio</mediatype>
						<trackindex>6</trackindex>
						<clipindex>10</clipindex>
						<groupindex>1</groupindex>
					</link>
					<itemhistory>
						<uuid>D76A7CF6-5868-408B-AF57-B9A0B533E17A</uuid>
						<uuid>D1219752-0F3C-47C2-BEB0-CFA7F8310A44</uuid>
						<uuid>301CDA3A-FFC8-4FD2-82AD-68A0F0B1C07D</uuid>
					</itemhistory>
					<filter>
						<effect>
							<name>Time Remap</name>
							<effectid>timeremap</effectid>
							<effectcategory>motion</effectcategory>
							<effecttype>motion</effecttype>
							<mediatype>audio</mediatype>
							<parameter>
								<parameterid>variablespeed</parameterid>
								<name>variablespeed</name>
								<valuemin>0</valuemin>
								<valuemax>1</valuemax>
								<value>0</value>
							</parameter>
							<parameter>
								<parameterid>mappedduration</parameterid>
								<name>mappedduration</name>
								<value>
									<timecode>
										<rate>
											<timebase>0</timebase>
										</rate>
										<string>0</string>
										<frame>0</frame>
										<displayformat>NDF</displayformat>
									</timecode>
								</value>
							</parameter>
							<parameter>
								<parameterid>speed</parameterid>
								<name>speed</name>
								<valuemin>-10000</valuemin>
								<valuemax>10000</valuemax>
								<value>50</value>
							</parameter>
							<parameter>
								<parameterid>reverse</parameterid>
								<name>reverse</name>
								<value>FALSE</value>
							</parameter>
							<parameter>
								<parameterid>frameblending</parameterid>
								<name>frameblending</name>
								<value>TRUE</value>
							</parameter>
							<parameter>
								<parameterid>graphdict</parameterid>
								<name>graphdict</name>
								<valuemin>0</valuemin>
								<valuemax>91</valuemax>
								<keyframe>
									<when>0</when>
									<value>0.4999</value>
									<speedkfin>TRUE</speedkfin>
									<anchorOffset>0.4999</anchorOffset>
								</keyframe>
								<keyframe>
									<when>82</when>
									<value>41.4999</value>
									<speedkfout>TRUE</speedkfout>
									<speedvirtualkf>TRUE</speedvirtualkf>
								</keyframe>
								<keyframe>
									<when>183</when>
									<value>92.4999</value>
									<speedkfend>TRUE</speedkfend>
									<speedvirtualkf>TRUE</speedvirtualkf>
								</keyframe>
								<interpolation>
									<name>FCPCurve</name>
								</interpolation>
								<value>0.4999</value>
							</parameter>
						</effect>
					</filter>
				</clipitem>
				<clipitem id="WHOOSHLARG…WHOOSHBYFS105302.WAV13">
					<name>WHOOSHLARG…WHOOSHBYFS105302.WAV</name>
					<duration>454</duration>
					<rate>
						<ntsc>FALSE</ntsc>
						<timebase>25</timebase>
					</rate>
					<in>2</in>
					<out>158</out>
					<start>8395</start>
					<end>8551</end>
					<subframeoffset>0</subframeoffset>
					<masterclipid>WHOOSHLARG…WHOOSHBYFS105302.WAV1</masterclipid>
					<logginginfo>
						<scene/>
						<shottake/>
						<lognote/>
						<good>FALSE</good>
					</logginginfo>
					<labels>
						<label2/>
					</labels>
					<comments>
						<mastercomment1/>
						<mastercomment2/>
						<mastercomment3/>
						<mastercomment4/>
					</comments>
					<file id="WHOOSHLARG…WHOOSHBYFS105302 "/>
					<filter>
						<effect>
							<name>Audio Levels</name>
							<effectid>audiolevels</effectid>
							<effectcategory>audiolevels</effectcategory>
							<effecttype>audiolevels</effecttype>
							<mediatype>audio</mediatype>
							<parameter>
								<name>Level</name>
								<parameterid>level</parameterid>
								<valuemin>0</valuemin>
								<valuemax>3.98109</valuemax>
								<value>0.281838</value>
							</parameter>
						</effect>
					</filter>
					<filter>
						<effect>
							<name>Audio Pan</name>
							<effectid>audiopan</effectid>
							<effectcategory>audiopan</effectcategory>
							<effecttype>audiopan</effecttype>
							<mediatype>audio</mediatype>
							<parameter>
								<name>Pan</name>
								<parameterid>pan</parameterid>
								<valuemin>-1</valuemin>
								<valuemax>1</valuemax>
								<value>-1</value>
							</parameter>
						</effect>
					</filter>
					<sourcetrack>
						<mediatype>audio</mediatype>
						<trackindex>1</trackindex>
					</sourcetrack>
					<link>
						<linkclipref>WHOOSHLARG…WHOOSHBYFS105302.WAV13</linkclipref>
						<mediatype>audio</mediatype>
						<trackindex>5</trackindex>
						<clipindex>11</clipindex>
						<groupindex>1</groupindex>
					</link>
					<link>
						<linkclipref>WHOOSHLARG…WHOOSHBYFS105302.WAV14</linkclipref>
						<mediatype>audio</mediatype>
						<trackindex>6</trackindex>
						<clipindex>11</clipindex>
						<groupindex>1</groupindex>
					</link>
					<itemhistory>
						<uuid>83D86598-47F5-41BB-B90B-FB7F9933AAB0</uuid>
						<uuid>65A050B0-AD2E-4036-B64B-00FDDC246999</uuid>
						<uuid>301CDA3A-FFC8-4FD2-82AD-68A0F0B1C07D</uuid>
					</itemhistory>
					<filter>
						<effect>
							<name>Time Remap</name>
							<effectid>timeremap</effectid>
							<effectcategory>motion</effectcategory>
							<effecttype>motion</effecttype>
							<mediatype>audio</mediatype>
							<parameter>
								<parameterid>variablespeed</parameterid>
								<name>variablespeed</name>
								<valuemin>0</valuemin>
								<valuemax>1</valuemax>
								<value>0</value>
							</parameter>
							<parameter>
								<parameterid>mappedduration</parameterid>
								<name>mappedduration</name>
								<value>
									<timecode>
										<rate>
											<timebase>0</timebase>
										</rate>
										<string>0</string>
										<frame>0</frame>
										<displayformat>NDF</displayformat>
									</timecode>
								</value>
							</parameter>
							<parameter>
								<parameterid>speed</parameterid>
								<name>speed</name>
								<valuemin>-10000</valuemin>
								<valuemax>10000</valuemax>
								<value>20</value>
							</parameter>
							<parameter>
								<parameterid>reverse</parameterid>
								<name>reverse</name>
								<value>FALSE</value>
							</parameter>
							<parameter>
								<parameterid>frameblending</parameterid>
								<name>frameblending</name>
								<value>TRUE</value>
							</parameter>
							<parameter>
								<parameterid>graphdict</parameterid>
								<name>graphdict</name>
								<valuemin>0</valuemin>
								<valuemax>91</valuemax>
								<keyframe>
									<when>0</when>
									<value>0.0981</value>
									<speedkfstart>TRUE</speedkfstart>
									<speedvirtualkf>TRUE</speedvirtualkf>
									<anchorOffset>0.0981</anchorOffset>
								</keyframe>
								<keyframe>
									<when>2</when>
									<value>0.499866</value>
									<speedkfin>TRUE</speedkfin>
									<speedvirtualkf>TRUE</speedvirtualkf>
								</keyframe>
								<keyframe>
									<when>158</when>
									<value>31.8376</value>
									<speedkfout>TRUE</speedkfout>
									<speedvirtualkf>TRUE</speedvirtualkf>
								</keyframe>
								<keyframe>
									<when>454</when>
									<value>92.0981</value>
									<speedkfend>TRUE</speedkfend>
									<speedvirtualkf>TRUE</speedvirtualkf>
								</keyframe>
								<interpolation>
									<name>FCPCurve</name>
								</interpolation>
								<value>0.499866</value>
							</parameter>
						</effect>
					</filter>
				</clipitem>
				<clipitem id="WHOOSHLARG…WHOOSHBYFS105302.WAV15">
					<name>WHOOSHLARG…WHOOSHBYFS105302.WAV</name>
					<duration>183</duration>
					<rate>
						<ntsc>FALSE</ntsc>
						<timebase>25</timebase>
					</rate>
					<in>0</in>
					<out>82</out>
					<start>8993</start>
					<end>9075</end>
					<subframeoffset>0</subframeoffset>
					<masterclipid>WHOOSHLARG…WHOOSHBYFS105302.WAV1</masterclipid>
					<logginginfo>
						<scene/>
						<shottake/>
						<lognote/>
						<good>FALSE</good>
					</logginginfo>
					<labels>
						<label2/>
					</labels>
					<comments>
						<mastercomment1/>
						<mastercomment2/>
						<mastercomment3/>
						<mastercomment4/>
					</comments>
					<file id="WHOOSHLARG…WHOOSHBYFS105302 "/>
					<filter>
						<effect>
							<name>Audio Levels</name>
							<effectid>audiolevels</effectid>
							<effectcategory>audiolevels</effectcategory>
							<effecttype>audiolevels</effecttype>
							<mediatype>audio</mediatype>
							<parameter>
								<name>Level</name>
								<parameterid>level</parameterid>
								<valuemin>0</valuemin>
								<valuemax>3.98109</valuemax>
								<value>0.251189</value>
							</parameter>
						</effect>
					</filter>
					<filter>
						<effect>
							<name>Audio Pan</name>
							<effectid>audiopan</effectid>
							<effectcategory>audiopan</effectcategory>
							<effecttype>audiopan</effecttype>
							<mediatype>audio</mediatype>
							<parameter>
								<name>Pan</name>
								<parameterid>pan</parameterid>
								<valuemin>-1</valuemin>
								<valuemax>1</valuemax>
								<value>-1</value>
							</parameter>
						</effect>
					</filter>
					<sourcetrack>
						<mediatype>audio</mediatype>
						<trackindex>1</trackindex>
					</sourcetrack>
					<link>
						<linkclipref>WHOOSHLARG…WHOOSHBYFS105302.WAV15</linkclipref>
						<mediatype>audio</mediatype>
						<trackindex>5</trackindex>
						<clipindex>12</clipindex>
						<groupindex>1</groupindex>
					</link>
					<link>
						<linkclipref>WHOOSHLARG…WHOOSHBYFS105302.WAV16</linkclipref>
						<mediatype>audio</mediatype>
						<trackindex>6</trackindex>
						<clipindex>12</clipindex>
						<groupindex>1</groupindex>
					</link>
					<itemhistory>
						<uuid>1C32FB80-48B4-438E-B827-A711592A6CE4</uuid>
						<uuid>D1219752-0F3C-47C2-BEB0-CFA7F8310A44</uuid>
						<uuid>301CDA3A-FFC8-4FD2-82AD-68A0F0B1C07D</uuid>
					</itemhistory>
					<filter>
						<effect>
							<name>Time Remap</name>
							<effectid>timeremap</effectid>
							<effectcategory>motion</effectcategory>
							<effecttype>motion</effecttype>
							<mediatype>audio</mediatype>
							<parameter>
								<parameterid>variablespeed</parameterid>
								<name>variablespeed</name>
								<valuemin>0</valuemin>
								<valuemax>1</valuemax>
								<value>0</value>
							</parameter>
							<parameter>
								<parameterid>mappedduration</parameterid>
								<name>mappedduration</name>
								<value>
									<timecode>
										<rate>
											<timebase>0</timebase>
										</rate>
										<string>0</string>
										<frame>0</frame>
										<displayformat>NDF</displayformat>
									</timecode>
								</value>
							</parameter>
							<parameter>
								<parameterid>speed</parameterid>
								<name>speed</name>
								<valuemin>-10000</valuemin>
								<valuemax>10000</valuemax>
								<value>50</value>
							</parameter>
							<parameter>
								<parameterid>reverse</parameterid>
								<name>reverse</name>
								<value>FALSE</value>
							</parameter>
							<parameter>
								<parameterid>frameblending</parameterid>
								<name>frameblending</name>
								<value>TRUE</value>
							</parameter>
							<parameter>
								<parameterid>graphdict</parameterid>
								<name>graphdict</name>
								<valuemin>0</valuemin>
								<valuemax>91</valuemax>
								<keyframe>
									<when>0</when>
									<value>0.4999</value>
									<speedkfin>TRUE</speedkfin>
									<anchorOffset>0.4999</anchorOffset>
								</keyframe>
								<keyframe>
									<when>82</when>
									<value>41.4999</value>
									<speedkfout>TRUE</speedkfout>
									<speedvirtualkf>TRUE</speedvirtualkf>
								</keyframe>
								<keyframe>
									<when>183</when>
									<value>92.4999</value>
									<speedkfend>TRUE</speedkfend>
									<speedvirtualkf>TRUE</speedvirtualkf>
								</keyframe>
								<interpolation>
									<name>FCPCurve</name>
								</interpolation>
								<value>0.4999</value>
							</parameter>
						</effect>
					</filter>
				</clipitem>
				<clipitem id="WHOOSHLARG…WHOOSHBYFS105302.WAV17">
					<name>WHOOSHLARG…WHOOSHBYFS105302.WAV</name>
					<duration>454</duration>
					<rate>
						<ntsc>FALSE</ntsc>
						<timebase>25</timebase>
					</rate>
					<in>2</in>
					<out>158</out>
					<start>9131</start>
					<end>9287</end>
					<subframeoffset>0</subframeoffset>
					<masterclipid>WHOOSHLARG…WHOOSHBYFS105302.WAV1</masterclipid>
					<logginginfo>
						<scene/>
						<shottake/>
						<lognote/>
						<good>FALSE</good>
					</logginginfo>
					<labels>
						<label2/>
					</labels>
					<comments>
						<mastercomment1/>
						<mastercomment2/>
						<mastercomment3/>
						<mastercomment4/>
					</comments>
					<file id="WHOOSHLARG…WHOOSHBYFS105302 "/>
					<filter>
						<effect>
							<name>Audio Levels</name>
							<effectid>audiolevels</effectid>
							<effectcategory>audiolevels</effectcategory>
							<effecttype>audiolevels</effecttype>
							<mediatype>audio</mediatype>
							<parameter>
								<name>Level</name>
								<parameterid>level</parameterid>
								<valuemin>0</valuemin>
								<valuemax>3.98109</valuemax>
								<value>0.281838</value>
							</parameter>
						</effect>
					</filter>
					<filter>
						<effect>
							<name>Audio Pan</name>
							<effectid>audiopan</effectid>
							<effectcategory>audiopan</effectcategory>
							<effecttype>audiopan</effecttype>
							<mediatype>audio</mediatype>
							<parameter>
								<name>Pan</name>
								<parameterid>pan</parameterid>
								<valuemin>-1</valuemin>
								<valuemax>1</valuemax>
								<value>-1</value>
							</parameter>
						</effect>
					</filter>
					<sourcetrack>
						<mediatype>audio</mediatype>
						<trackindex>1</trackindex>
					</sourcetrack>
					<link>
						<linkclipref>WHOOSHLARG…WHOOSHBYFS105302.WAV17</linkclipref>
						<mediatype>audio</mediatype>
						<trackindex>5</trackindex>
						<clipindex>13</clipindex>
						<groupindex>1</groupindex>
					</link>
					<link>
						<linkclipref>WHOOSHLARG…WHOOSHBYFS105302.WAV18</linkclipref>
						<mediatype>audio</mediatype>
						<trackindex>6</trackindex>
						<clipindex>13</clipindex>
						<groupindex>1</groupindex>
					</link>
					<itemhistory>
						<uuid>69613B60-F96F-4470-A90C-D5DF649C8B12</uuid>
						<uuid>65A050B0-AD2E-4036-B64B-00FDDC246999</uuid>
						<uuid>301CDA3A-FFC8-4FD2-82AD-68A0F0B1C07D</uuid>
					</itemhistory>
					<filter>
						<effect>
							<name>Time Remap</name>
							<effectid>timeremap</effectid>
							<effectcategory>motion</effectcategory>
							<effecttype>motion</effecttype>
							<mediatype>audio</mediatype>
							<parameter>
								<parameterid>variablespeed</parameterid>
								<name>variablespeed</name>
								<valuemin>0</valuemin>
								<valuemax>1</valuemax>
								<value>0</value>
							</parameter>
							<parameter>
								<parameterid>mappedduration</parameterid>
								<name>mappedduration</name>
								<value>
									<timecode>
										<rate>
											<timebase>0</timebase>
										</rate>
										<string>0</string>
										<frame>0</frame>
										<displayformat>NDF</displayformat>
									</timecode>
								</value>
							</parameter>
							<parameter>
								<parameterid>speed</parameterid>
								<name>speed</name>
								<valuemin>-10000</valuemin>
								<valuemax>10000</valuemax>
								<value>20</value>
							</parameter>
							<parameter>
								<parameterid>reverse</parameterid>
								<name>reverse</name>
								<value>FALSE</value>
							</parameter>
							<parameter>
								<parameterid>frameblending</parameterid>
								<name>frameblending</name>
								<value>TRUE</value>
							</parameter>
							<parameter>
								<parameterid>graphdict</parameterid>
								<name>graphdict</name>
								<valuemin>0</valuemin>
								<valuemax>91</valuemax>
								<keyframe>
									<when>0</when>
									<value>0.0981</value>
									<speedkfstart>TRUE</speedkfstart>
									<speedvirtualkf>TRUE</speedvirtualkf>
									<anchorOffset>0.0981</anchorOffset>
								</keyframe>
								<keyframe>
									<when>2</when>
									<value>0.499866</value>
									<speedkfin>TRUE</speedkfin>
									<speedvirtualkf>TRUE</speedvirtualkf>
								</keyframe>
								<keyframe>
									<when>158</when>
									<value>31.8376</value>
									<speedkfout>TRUE</speedkfout>
									<speedvirtualkf>TRUE</speedvirtualkf>
								</keyframe>
								<keyframe>
									<when>454</when>
									<value>92.0981</value>
									<speedkfend>TRUE</speedkfend>
									<speedvirtualkf>TRUE</speedvirtualkf>
								</keyframe>
								<interpolation>
									<name>FCPCurve</name>
								</interpolation>
								<value>0.499866</value>
							</parameter>
						</effect>
					</filter>
				</clipitem>
				<clipitem id="WHOOSHLARG…WHOOSHBYFS105302.WAV19">
					<name>WHOOSHLARG…WHOOSHBYFS105302.WAV</name>
					<duration>454</duration>
					<rate>
						<ntsc>FALSE</ntsc>
						<timebase>25</timebase>
					</rate>
					<in>30</in>
					<out>145</out>
					<start>9511</start>
					<end>9626</end>
					<subframeoffset>0</subframeoffset>
					<masterclipid>WHOOSHLARG…WHOOSHBYFS105302.WAV1</masterclipid>
					<logginginfo>
						<scene/>
						<shottake/>
						<lognote/>
						<good>FALSE</good>
					</logginginfo>
					<labels>
						<label2/>
					</labels>
					<comments>
						<mastercomment1/>
						<mastercomment2/>
						<mastercomment3/>
						<mastercomment4/>
					</comments>
					<file id="WHOOSHLARG…WHOOSHBYFS105302 "/>
					<filter>
						<effect>
							<name>Audio Levels</name>
							<effectid>audiolevels</effectid>
							<effectcategory>audiolevels</effectcategory>
							<effecttype>audiolevels</effecttype>
							<mediatype>audio</mediatype>
							<parameter>
								<name>Level</name>
								<parameterid>level</parameterid>
								<valuemin>0</valuemin>
								<valuemax>3.98109</valuemax>
								<value>0.281838</value>
							</parameter>
						</effect>
					</filter>
					<filter>
						<effect>
							<name>Audio Pan</name>
							<effectid>audiopan</effectid>
							<effectcategory>audiopan</effectcategory>
							<effecttype>audiopan</effecttype>
							<mediatype>audio</mediatype>
							<parameter>
								<name>Pan</name>
								<parameterid>pan</parameterid>
								<valuemin>-1</valuemin>
								<valuemax>1</valuemax>
								<value>-1</value>
							</parameter>
						</effect>
					</filter>
					<sourcetrack>
						<mediatype>audio</mediatype>
						<trackindex>1</trackindex>
					</sourcetrack>
					<link>
						<linkclipref>WHOOSHLARG…WHOOSHBYFS105302.WAV19</linkclipref>
						<mediatype>audio</mediatype>
						<trackindex>5</trackindex>
						<clipindex>14</clipindex>
						<groupindex>1</groupindex>
					</link>
					<link>
						<linkclipref>WHOOSHLARG…WHOOSHBYFS105302.WAV20</linkclipref>
						<mediatype>audio</mediatype>
						<trackindex>6</trackindex>
						<clipindex>14</clipindex>
						<groupindex>1</groupindex>
					</link>
					<itemhistory>
						<uuid>0EEA501D-C448-4B67-8A27-01E5E1629E20</uuid>
						<uuid>65A050B0-AD2E-4036-B64B-00FDDC246999</uuid>
						<uuid>301CDA3A-FFC8-4FD2-82AD-68A0F0B1C07D</uuid>
					</itemhistory>
					<filter>
						<effect>
							<name>Time Remap</name>
							<effectid>timeremap</effectid>
							<effectcategory>motion</effectcategory>
							<effecttype>motion</effecttype>
							<mediatype>audio</mediatype>
							<parameter>
								<parameterid>variablespeed</parameterid>
								<name>variablespeed</name>
								<valuemin>0</valuemin>
								<valuemax>1</valuemax>
								<value>0</value>
							</parameter>
							<parameter>
								<parameterid>mappedduration</parameterid>
								<name>mappedduration</name>
								<value>
									<timecode>
										<rate>
											<timebase>0</timebase>
										</rate>
										<string>0</string>
										<frame>0</frame>
										<displayformat>NDF</displayformat>
									</timecode>
								</value>
							</parameter>
							<parameter>
								<parameterid>speed</parameterid>
								<name>speed</name>
								<valuemin>-10000</valuemin>
								<valuemax>10000</valuemax>
								<value>20</value>
							</parameter>
							<parameter>
								<parameterid>reverse</parameterid>
								<name>reverse</name>
								<value>FALSE</value>
							</parameter>
							<parameter>
								<parameterid>frameblending</parameterid>
								<name>frameblending</name>
								<value>TRUE</value>
							</parameter>
							<parameter>
								<parameterid>graphdict</parameterid>
								<name>graphdict</name>
								<valuemin>0</valuemin>
								<valuemax>91</valuemax>
								<keyframe>
									<when>0</when>
									<value>0.0981</value>
									<speedkfstart>TRUE</speedkfstart>
									<speedvirtualkf>TRUE</speedvirtualkf>
									<anchorOffset>0.0981</anchorOffset>
								</keyframe>
								<keyframe>
									<when>30</when>
									<value>6.12459</value>
									<speedkfin>TRUE</speedkfin>
									<speedvirtualkf>TRUE</speedvirtualkf>
								</keyframe>
								<keyframe>
									<when>145</when>
									<value>29.2261</value>
									<speedkfout>TRUE</speedkfout>
									<speedvirtualkf>TRUE</speedvirtualkf>
								</keyframe>
								<keyframe>
									<when>454</when>
									<value>92.0981</value>
									<speedkfend>TRUE</speedkfend>
									<speedvirtualkf>TRUE</speedvirtualkf>
								</keyframe>
								<interpolation>
									<name>FCPCurve</name>
								</interpolation>
								<value>6.12459</value>
							</parameter>
						</effect>
					</filter>
				</clipitem>
				<clipitem id="SCD078432.wav3">
					<name>SCD078432.wav</name>
					<duration>1960</duration>
					<rate>
						<ntsc>FALSE</ntsc>
						<timebase>25</timebase>
					</rate>
					<in>0</in>
					<out>694</out>
					<start>11060</start>
					<end>11754</end>
					<subframeoffset>0</subframeoffset>
					<masterclipid>SCD078432.wav1</masterclipid>
					<logginginfo>
						<scene/>
						<shottake/>
						<lognote/>
						<good>FALSE</good>
					</logginginfo>
					<labels>
						<label2/>
					</labels>
					<comments>
						<mastercomment1/>
						<mastercomment2/>
						<mastercomment3/>
						<mastercomment4/>
					</comments>
					<file id="SCD078432 "/>
					<filter>
						<effect>
							<name>Audio Levels</name>
							<effectid>audiolevels</effectid>
							<effectcategory>audiolevels</effectcategory>
							<effecttype>audiolevels</effecttype>
							<mediatype>audio</mediatype>
							<parameter>
								<name>Level</name>
								<parameterid>level</parameterid>
								<valuemin>0</valuemin>
								<valuemax>3.98109</valuemax>
								<keyframe>
									<when>688.929</when>
									<value>0.199526</value>
								</keyframe>
								<keyframe>
									<when>693.429</when>
									<value>0</value>
								</keyframe>
								<interpolation>
									<name>FCPCurve</name>
								</interpolation>
								<value>0.199526</value>
							</parameter>
						</effect>
					</filter>
					<filter>
						<effect>
							<name>Audio Pan</name>
							<effectid>audiopan</effectid>
							<effectcategory>audiopan</effectcategory>
							<effecttype>audiopan</effecttype>
							<mediatype>audio</mediatype>
							<parameter>
								<name>Pan</name>
								<parameterid>pan</parameterid>
								<valuemin>-1</valuemin>
								<valuemax>1</valuemax>
								<value>-1</value>
							</parameter>
						</effect>
					</filter>
					<sourcetrack>
						<mediatype>audio</mediatype>
						<trackindex>1</trackindex>
					</sourcetrack>
					<link>
						<linkclipref>SCD078432.wav3</linkclipref>
						<mediatype>audio</mediatype>
						<trackindex>5</trackindex>
						<clipindex>15</clipindex>
						<groupindex>1</groupindex>
					</link>
					<link>
						<linkclipref>SCD078432.wav4</linkclipref>
						<mediatype>audio</mediatype>
						<trackindex>6</trackindex>
						<clipindex>15</clipindex>
						<groupindex>1</groupindex>
					</link>
					<itemhistory>
						<uuid>CB1B3A22-4DA3-41FF-99AD-557140392123</uuid>
					</itemhistory>
				</clipitem>
				<clipitem id="SCD083314.wav">
					<name>SCD083314.wav</name>
					<duration>2741</duration>
					<rate>
						<ntsc>FALSE</ntsc>
						<timebase>25</timebase>
					</rate>
					<in>135</in>
					<out>348</out>
					<start>14367</start>
					<end>-1</end>
					<subframeoffset>0</subframeoffset>
					<masterclipid>SCD083314.wav1</masterclipid>
					<logginginfo>
						<scene/>
						<shottake/>
						<lognote/>
						<good>FALSE</good>
					</logginginfo>
					<labels>
						<label2/>
					</labels>
					<comments>
						<mastercomment1/>
						<mastercomment2/>
						<mastercomment3/>
						<mastercomment4/>
					</comments>
					<file id="SCD083314 ">
						<name>SCD083314.wav</name>
						<pathurl>file://localhost/Volumes/Askepott/Prosjekter/DNPR637010_Kra%CC%8Akeklubben_TEM_011212/MUSIKK/NATURLEK/Eventyrskog/SCD083314.wav</pathurl>
						<rate>
							<timebase>25</timebase>
						</rate>
						<duration>2741</duration>
						<timecode>
							<rate>
								<timebase>25</timebase>
							</rate>
							<string>00:40:28:01</string>
							<frame>60701</frame>
							<displayformat>NDF</displayformat>
							<source>source</source>
						</timecode>
						<media>
							<audio>
								<samplecharacteristics>
									<samplerate>48000</samplerate>
									<depth>16</depth>
								</samplecharacteristics>
								<channelcount>2</channelcount>
							</audio>
						</media>
					</file>
					<filter>
						<effect>
							<name>Audio Levels</name>
							<effectid>audiolevels</effectid>
							<effectcategory>audiolevels</effectcategory>
							<effecttype>audiolevels</effecttype>
							<mediatype>audio</mediatype>
							<parameter>
								<name>Level</name>
								<parameterid>level</parameterid>
								<valuemin>0</valuemin>
								<valuemax>3.98109</valuemax>
								<keyframe>
									<when>140.143</when>
									<value>0</value>
								</keyframe>
								<keyframe>
									<when>154.857</when>
									<value>1</value>
								</keyframe>
								<interpolation>
									<name>FCPCurve</name>
								</interpolation>
								<value>1</value>
							</parameter>
						</effect>
					</filter>
					<filter>
						<effect>
							<name>Audio Pan</name>
							<effectid>audiopan</effectid>
							<effectcategory>audiopan</effectcategory>
							<effecttype>audiopan</effecttype>
							<mediatype>audio</mediatype>
							<parameter>
								<name>Pan</name>
								<parameterid>pan</parameterid>
								<valuemin>-1</valuemin>
								<valuemax>1</valuemax>
								<value>-1</value>
							</parameter>
						</effect>
					</filter>
					<sourcetrack>
						<mediatype>audio</mediatype>
						<trackindex>1</trackindex>
					</sourcetrack>
					<link>
						<linkclipref>SCD083314.wav</linkclipref>
						<mediatype>audio</mediatype>
						<trackindex>5</trackindex>
						<clipindex>16</clipindex>
						<groupindex>1</groupindex>
					</link>
					<link>
						<linkclipref>SCD083314.wav2</linkclipref>
						<mediatype>audio</mediatype>
						<trackindex>6</trackindex>
						<clipindex>16</clipindex>
						<groupindex>1</groupindex>
					</link>
					<itemhistory>
						<uuid>9BC7BBFF-6552-424A-849B-EAAE2E764CD9</uuid>
					</itemhistory>
				</clipitem>
				<transitionitem>
					<rate>
						<ntsc>FALSE</ntsc>
						<timebase>25</timebase>
					</rate>
					<start>14554</start>
					<end>14580</end>
					<alignment>start</alignment>
					<effect>
						<name>Cross Fade (+3dB)</name>
						<effectid>KGAudioTransCrossFade3dB</effectid>
						<effecttype>transition</effecttype>
						<mediatype>audio</mediatype>
					</effect>
				</transitionitem>
				<clipitem id="SCD083314.wav3">
					<name>SCD083314.wav</name>
					<duration>2741</duration>
					<rate>
						<ntsc>FALSE</ntsc>
						<timebase>25</timebase>
					</rate>
					<in>2624</in>
					<out>2705</out>
					<start>-1</start>
					<end>14635</end>
					<subframeoffset>0</subframeoffset>
					<masterclipid>SCD083314.wav1</masterclipid>
					<logginginfo>
						<scene/>
						<shottake/>
						<lognote/>
						<good>FALSE</good>
					</logginginfo>
					<labels>
						<label2/>
					</labels>
					<comments>
						<mastercomment1/>
						<mastercomment2/>
						<mastercomment3/>
						<mastercomment4/>
					</comments>
					<file id="SCD083314 "/>
					<filter>
						<effect>
							<name>Audio Levels</name>
							<effectid>audiolevels</effectid>
							<effectcategory>audiolevels</effectcategory>
							<effecttype>audiolevels</effecttype>
							<mediatype>audio</mediatype>
							<parameter>
								<name>Level</name>
								<parameterid>level</parameterid>
								<valuemin>0</valuemin>
								<valuemax>3.98109</valuemax>
								<value>1</value>
							</parameter>
						</effect>
					</filter>
					<filter>
						<effect>
							<name>Audio Pan</name>
							<effectid>audiopan</effectid>
							<effectcategory>audiopan</effectcategory>
							<effecttype>audiopan</effecttype>
							<mediatype>audio</mediatype>
							<parameter>
								<name>Pan</name>
								<parameterid>pan</parameterid>
								<valuemin>-1</valuemin>
								<valuemax>1</valuemax>
								<value>-1</value>
							</parameter>
						</effect>
					</filter>
					<sourcetrack>
						<mediatype>audio</mediatype>
						<trackindex>1</trackindex>
					</sourcetrack>
					<link>
						<linkclipref>SCD083314.wav3</linkclipref>
						<mediatype>audio</mediatype>
						<trackindex>5</trackindex>
						<clipindex>18</clipindex>
						<groupindex>1</groupindex>
					</link>
					<link>
						<linkclipref>SCD083314.wav4</linkclipref>
						<mediatype>audio</mediatype>
						<trackindex>6</trackindex>
						<clipindex>18</clipindex>
						<groupindex>1</groupindex>
					</link>
					<itemhistory>
						<uuid>ECDB92F2-34C8-4475-8E09-56F733D98E5F</uuid>
					</itemhistory>
				</clipitem>
				<clipitem id="SCD078015 ">
					<name>SCD078015</name>
					<duration>4813</duration>
					<rate>
						<ntsc>FALSE</ntsc>
						<timebase>25</timebase>
					</rate>
					<in>0</in>
					<out>266</out>
					<start>14716</start>
					<end>14982</end>
					<masterclipid>SCD078015 1</masterclipid>
					<logginginfo>
						<scene/>
						<shottake/>
						<lognote/>
						<good>FALSE</good>
					</logginginfo>
					<labels>
						<label2/>
					</labels>
					<comments>
						<mastercomment1/>
						<mastercomment2/>
						<mastercomment3/>
						<mastercomment4/>
					</comments>
					<file id="SCD078015 2">
						<name>SCD078015.wav</name>
						<pathurl>file://localhost/Volumes/Askepott/Prosjekter/DNPR637010_Kra%CC%8Akeklubben_TEM_011212/MUSIKK/INSEKT/Reke/SCD078015.wav</pathurl>
						<rate>
							<timebase>25</timebase>
						</rate>
						<duration>4813</duration>
						<timecode>
							<rate>
								<timebase>25</timebase>
							</rate>
							<string>00:32:57:09</string>
							<frame>49434</frame>
							<displayformat>NDF</displayformat>
							<source>source</source>
						</timecode>
						<media>
							<audio>
								<samplecharacteristics>
									<samplerate>48000</samplerate>
									<depth>16</depth>
								</samplecharacteristics>
								<channelcount>2</channelcount>
							</audio>
						</media>
					</file>
					<filter>
						<effect>
							<name>Audio Levels</name>
							<effectid>audiolevels</effectid>
							<effectcategory>audiolevels</effectcategory>
							<effecttype>audiolevels</effecttype>
							<mediatype>audio</mediatype>
							<parameter>
								<name>Level</name>
								<parameterid>level</parameterid>
								<valuemin>0</valuemin>
								<valuemax>3.98109</valuemax>
								<keyframe>
									<when>155.268</when>
									<value>0.141254</value>
								</keyframe>
								<keyframe>
									<when>265</when>
									<value>0</value>
								</keyframe>
								<interpolation>
									<name>FCPCurve</name>
								</interpolation>
								<value>0.0891251</value>
							</parameter>
						</effect>
					</filter>
					<filter>
						<effect>
							<name>Audio Pan</name>
							<effectid>audiopan</effectid>
							<effectcategory>audiopan</effectcategory>
							<effecttype>audiopan</effecttype>
							<mediatype>audio</mediatype>
							<parameter>
								<name>Pan</name>
								<parameterid>pan</parameterid>
								<valuemin>-1</valuemin>
								<valuemax>1</valuemax>
								<value>-1</value>
							</parameter>
						</effect>
					</filter>
					<sourcetrack>
						<mediatype>audio</mediatype>
						<trackindex>1</trackindex>
					</sourcetrack>
					<link>
						<linkclipref>SCD078015 </linkclipref>
						<mediatype>audio</mediatype>
						<trackindex>5</trackindex>
						<clipindex>19</clipindex>
						<groupindex>1</groupindex>
					</link>
					<link>
						<linkclipref>SCD078015 3</linkclipref>
						<mediatype>audio</mediatype>
						<trackindex>6</trackindex>
						<clipindex>19</clipindex>
						<groupindex>1</groupindex>
					</link>
					<itemhistory>
						<uuid>9312D7F8-6933-40B9-99A8-8B13DCA062D7</uuid>
					</itemhistory>
				</clipitem>
				<clipitem id="SCD083922.wav">
					<name>SCD083922.wav</name>
					<duration>3298</duration>
					<rate>
						<ntsc>FALSE</ntsc>
						<timebase>25</timebase>
					</rate>
					<in>0</in>
					<out>2232</out>
					<start>15519</start>
					<end>-1</end>
					<masterclipid>SCD083922.wav1</masterclipid>
					<logginginfo>
						<scene/>
						<shottake/>
						<lognote/>
						<good>FALSE</good>
					</logginginfo>
					<labels>
						<label2/>
					</labels>
					<comments>
						<mastercomment1/>
						<mastercomment2/>
						<mastercomment3/>
						<mastercomment4/>
					</comments>
					<file id="SCD083922 ">
						<name>SCD083922.wav</name>
						<pathurl>file://localhost/Volumes/Askepott/Prosjekter/DNPR637010_Kra%CC%8Akeklubben_TEM_011212/MUSIKK/INSEKT/Reke/SCD083922.wav</pathurl>
						<rate>
							<timebase>25</timebase>
						</rate>
						<duration>3298</duration>
						<timecode>
							<rate>
								<timebase>25</timebase>
							</rate>
							<string>01:10:22:22</string>
							<frame>105572</frame>
							<displayformat>NDF</displayformat>
							<source>source</source>
						</timecode>
						<media>
							<audio>
								<samplecharacteristics>
									<samplerate>48000</samplerate>
									<depth>16</depth>
								</samplecharacteristics>
								<channelcount>2</channelcount>
							</audio>
						</media>
					</file>
					<filter>
						<effect>
							<name>Audio Levels</name>
							<effectid>audiolevels</effectid>
							<effectcategory>audiolevels</effectcategory>
							<effecttype>audiolevels</effecttype>
							<mediatype>audio</mediatype>
							<parameter>
								<name>Level</name>
								<parameterid>level</parameterid>
								<valuemin>0</valuemin>
								<valuemax>3.98109</valuemax>
								<value>0.354813</value>
							</parameter>
						</effect>
					</filter>
					<filter>
						<effect>
							<name>Audio Pan</name>
							<effectid>audiopan</effectid>
							<effectcategory>audiopan</effectcategory>
							<effecttype>audiopan</effecttype>
							<mediatype>audio</mediatype>
							<parameter>
								<name>Pan</name>
								<parameterid>pan</parameterid>
								<valuemin>-1</valuemin>
								<valuemax>1</valuemax>
								<value>-1</value>
							</parameter>
						</effect>
					</filter>
					<sourcetrack>
						<mediatype>audio</mediatype>
						<trackindex>1</trackindex>
					</sourcetrack>
					<link>
						<linkclipref>SCD083922.wav</linkclipref>
						<mediatype>audio</mediatype>
						<trackindex>5</trackindex>
						<clipindex>20</clipindex>
						<groupindex>1</groupindex>
					</link>
					<link>
						<linkclipref>SCD083922.wav2</linkclipref>
						<mediatype>audio</mediatype>
						<trackindex>6</trackindex>
						<clipindex>20</clipindex>
						<groupindex>1</groupindex>
					</link>
					<itemhistory>
						<uuid>B0B10891-7240-4799-B9A2-2C5EF71E9DB5</uuid>
					</itemhistory>
				</clipitem>
				<transitionitem>
					<rate>
						<ntsc>FALSE</ntsc>
						<timebase>25</timebase>
					</rate>
					<start>17687</start>
					<end>17751</end>
					<alignment>end</alignment>
					<effect>
						<name>Cross Fade (+3dB)</name>
						<effectid>KGAudioTransCrossFade3dB</effectid>
						<effecttype>transition</effecttype>
						<mediatype>audio</mediatype>
					</effect>
				</transitionitem>
				<clipitem id="SCD083922.wav3">
					<name>SCD083922.wav</name>
					<duration>3298</duration>
					<rate>
						<ntsc>FALSE</ntsc>
						<timebase>25</timebase>
					</rate>
					<in>2691</in>
					<out>3298</out>
					<start>-1</start>
					<end>18294</end>
					<masterclipid>SCD083922.wav1</masterclipid>
					<logginginfo>
						<scene/>
						<shottake/>
						<lognote/>
						<good>FALSE</good>
					</logginginfo>
					<labels>
						<label2/>
					</labels>
					<comments>
						<mastercomment1/>
						<mastercomment2/>
						<mastercomment3/>
						<mastercomment4/>
					</comments>
					<file id="SCD083922 "/>
					<filter>
						<effect>
							<name>Audio Levels</name>
							<effectid>audiolevels</effectid>
							<effectcategory>audiolevels</effectcategory>
							<effecttype>audiolevels</effecttype>
							<mediatype>audio</mediatype>
							<parameter>
								<name>Level</name>
								<parameterid>level</parameterid>
								<valuemin>0</valuemin>
								<valuemax>3.98109</valuemax>
								<value>0.354813</value>
							</parameter>
						</effect>
					</filter>
					<filter>
						<effect>
							<name>Audio Pan</name>
							<effectid>audiopan</effectid>
							<effectcategory>audiopan</effectcategory>
							<effecttype>audiopan</effecttype>
							<mediatype>audio</mediatype>
							<parameter>
								<name>Pan</name>
								<parameterid>pan</parameterid>
								<valuemin>-1</valuemin>
								<valuemax>1</valuemax>
								<value>-1</value>
							</parameter>
						</effect>
					</filter>
					<sourcetrack>
						<mediatype>audio</mediatype>
						<trackindex>1</trackindex>
					</sourcetrack>
					<link>
						<linkclipref>SCD083922.wav3</linkclipref>
						<mediatype>audio</mediatype>
						<trackindex>5</trackindex>
						<clipindex>22</clipindex>
						<groupindex>1</groupindex>
					</link>
					<link>
						<linkclipref>SCD083922.wav4</linkclipref>
						<mediatype>audio</mediatype>
						<trackindex>6</trackindex>
						<clipindex>22</clipindex>
						<groupindex>1</groupindex>
					</link>
					<itemhistory>
						<uuid>41F18A0A-147B-4B37-824B-B99800344B65</uuid>
					</itemhistory>
				</clipitem>
				<clipitem id="WHOOSHLARG…WHOOSHBYFS105302.WAV21">
					<name>WHOOSHLARG…WHOOSHBYFS105302.WAV</name>
					<duration>183</duration>
					<rate>
						<ntsc>FALSE</ntsc>
						<timebase>25</timebase>
					</rate>
					<in>19</in>
					<out>55</out>
					<start>19318</start>
					<end>19354</end>
					<subframeoffset>0</subframeoffset>
					<enabled>TRUE</enabled>
					<masterclipid>WHOOSHLARG…WHOOSHBYFS105302.WAV1</masterclipid>
					<logginginfo>
						<scene/>
						<shottake/>
						<lognote/>
						<good>FALSE</good>
					</logginginfo>
					<labels>
						<label2/>
					</labels>
					<comments>
						<mastercomment1/>
						<mastercomment2/>
						<mastercomment3/>
						<mastercomment4/>
					</comments>
					<file id="WHOOSHLARG…WHOOSHBYFS105302 "/>
					<filter>
						<effect>
							<name>Audio Levels</name>
							<effectid>audiolevels</effectid>
							<effectcategory>audiolevels</effectcategory>
							<effecttype>audiolevels</effecttype>
							<mediatype>audio</mediatype>
							<parameter>
								<name>Level</name>
								<parameterid>level</parameterid>
								<valuemin>0</valuemin>
								<valuemax>3.98109</valuemax>
								<value>0.251189</value>
							</parameter>
						</effect>
					</filter>
					<filter>
						<effect>
							<name>Audio Pan</name>
							<effectid>audiopan</effectid>
							<effectcategory>audiopan</effectcategory>
							<effecttype>audiopan</effecttype>
							<mediatype>audio</mediatype>
							<parameter>
								<name>Pan</name>
								<parameterid>pan</parameterid>
								<valuemin>-1</valuemin>
								<valuemax>1</valuemax>
								<value>-1</value>
							</parameter>
						</effect>
					</filter>
					<sourcetrack>
						<mediatype>audio</mediatype>
						<trackindex>1</trackindex>
					</sourcetrack>
					<link>
						<linkclipref>WHOOSHLARG…WHOOSHBYFS105302.WAV21</linkclipref>
						<mediatype>audio</mediatype>
						<trackindex>5</trackindex>
						<clipindex>23</clipindex>
						<groupindex>1</groupindex>
					</link>
					<link>
						<linkclipref>WHOOSHLARG…WHOOSHBYFS105302.WAV22</linkclipref>
						<mediatype>audio</mediatype>
						<trackindex>6</trackindex>
						<clipindex>23</clipindex>
						<groupindex>1</groupindex>
					</link>
					<itemhistory>
						<uuid>3B263A67-E442-4D97-B653-AA48B621BBA6</uuid>
						<uuid>D1219752-0F3C-47C2-BEB0-CFA7F8310A44</uuid>
						<uuid>301CDA3A-FFC8-4FD2-82AD-68A0F0B1C07D</uuid>
					</itemhistory>
					<filter>
						<effect>
							<name>Time Remap</name>
							<effectid>timeremap</effectid>
							<effectcategory>motion</effectcategory>
							<effecttype>motion</effecttype>
							<mediatype>audio</mediatype>
							<parameter>
								<parameterid>variablespeed</parameterid>
								<name>variablespeed</name>
								<valuemin>0</valuemin>
								<valuemax>1</valuemax>
								<value>0</value>
							</parameter>
							<parameter>
								<parameterid>mappedduration</parameterid>
								<name>mappedduration</name>
								<value>
									<timecode>
										<rate>
											<timebase>0</timebase>
										</rate>
										<string>0</string>
										<frame>0</frame>
										<displayformat>NDF</displayformat>
									</timecode>
								</value>
							</parameter>
							<parameter>
								<parameterid>speed</parameterid>
								<name>speed</name>
								<valuemin>-10000</valuemin>
								<valuemax>10000</valuemax>
								<value>50</value>
							</parameter>
							<parameter>
								<parameterid>reverse</parameterid>
								<name>reverse</name>
								<value>FALSE</value>
							</parameter>
							<parameter>
								<parameterid>frameblending</parameterid>
								<name>frameblending</name>
								<value>TRUE</value>
							</parameter>
							<parameter>
								<parameterid>graphdict</parameterid>
								<name>graphdict</name>
								<valuemin>0</valuemin>
								<valuemax>91</valuemax>
								<keyframe>
									<when>0</when>
									<value>0.4999</value>
									<speedkfstart>TRUE</speedkfstart>
									<speedvirtualkf>TRUE</speedvirtualkf>
									<anchorOffset>0.4999</anchorOffset>
								</keyframe>
								<keyframe>
									<when>19</when>
									<value>9.9999</value>
									<speedkfin>TRUE</speedkfin>
									<speedvirtualkf>TRUE</speedvirtualkf>
								</keyframe>
								<keyframe>
									<when>55</when>
									<value>27.9999</value>
									<speedkfout>TRUE</speedkfout>
									<speedvirtualkf>TRUE</speedvirtualkf>
								</keyframe>
								<keyframe>
									<when>183</when>
									<value>92.4999</value>
									<speedkfend>TRUE</speedkfend>
									<speedvirtualkf>TRUE</speedvirtualkf>
								</keyframe>
								<interpolation>
									<name>FCPCurve</name>
								</interpolation>
								<value>9.9999</value>
							</parameter>
						</effect>
					</filter>
				</clipitem>
				<clipitem id="SCD072839.wav5">
					<name>SCD072839.wav</name>
					<duration>2853</duration>
					<rate>
						<ntsc>FALSE</ntsc>
						<timebase>25</timebase>
					</rate>
					<in>0</in>
					<out>175</out>
					<start>20413</start>
					<end>20588</end>
					<subframeoffset>0</subframeoffset>
					<masterclipid>SCD072839.wav1</masterclipid>
					<logginginfo>
						<scene/>
						<shottake/>
						<lognote/>
						<good>FALSE</good>
					</logginginfo>
					<labels>
						<label2/>
					</labels>
					<comments>
						<mastercomment1/>
						<mastercomment2/>
						<mastercomment3/>
						<mastercomment4/>
					</comments>
					<file id="SCD072839 "/>
					<filter>
						<effect>
							<name>Audio Levels</name>
							<effectid>audiolevels</effectid>
							<effectcategory>audiolevels</effectcategory>
							<effecttype>audiolevels</effecttype>
							<mediatype>audio</mediatype>
							<parameter>
								<name>Level</name>
								<parameterid>level</parameterid>
								<valuemin>0</valuemin>
								<valuemax>3.98109</valuemax>
								<keyframe>
									<when>65.2857</when>
									<value>0.251189</value>
								</keyframe>
								<keyframe>
									<when>155</when>
									<value>0.112202</value>
								</keyframe>
								<keyframe>
									<when>211</when>
									<value>0.112202</value>
								</keyframe>
								<keyframe>
									<when>1689</when>
									<value>0.0891251</value>
								</keyframe>
								<interpolation>
									<name>FCPCurve</name>
								</interpolation>
								<value>0.251189</value>
							</parameter>
						</effect>
					</filter>
					<filter>
						<effect>
							<name>Audio Pan</name>
							<effectid>audiopan</effectid>
							<effectcategory>audiopan</effectcategory>
							<effecttype>audiopan</effecttype>
							<mediatype>audio</mediatype>
							<parameter>
								<name>Pan</name>
								<parameterid>pan</parameterid>
								<valuemin>-1</valuemin>
								<valuemax>1</valuemax>
								<value>-1</value>
							</parameter>
						</effect>
					</filter>
					<sourcetrack>
						<mediatype>audio</mediatype>
						<trackindex>1</trackindex>
					</sourcetrack>
					<link>
						<linkclipref>SCD072839.wav5</linkclipref>
						<mediatype>audio</mediatype>
						<trackindex>5</trackindex>
						<clipindex>24</clipindex>
						<groupindex>1</groupindex>
					</link>
					<link>
						<linkclipref>SCD072839.wav6</linkclipref>
						<mediatype>audio</mediatype>
						<trackindex>6</trackindex>
						<clipindex>24</clipindex>
						<groupindex>1</groupindex>
					</link>
					<itemhistory>
						<uuid>FC8A21F7-0B35-438E-ADF0-461ED3100B72</uuid>
					</itemhistory>
				</clipitem>
				<clipitem id="SCD072839.wav7">
					<name>SCD072839.wav</name>
					<duration>2853</duration>
					<rate>
						<ntsc>FALSE</ntsc>
						<timebase>25</timebase>
					</rate>
					<in>2784</in>
					<out>2853</out>
					<start>20588</start>
					<end>20657</end>
					<subframeoffset>0</subframeoffset>
					<enabled>TRUE</enabled>
					<masterclipid>SCD072839.wav1</masterclipid>
					<logginginfo>
						<scene/>
						<shottake/>
						<lognote/>
						<good>FALSE</good>
					</logginginfo>
					<labels>
						<label2/>
					</labels>
					<comments>
						<mastercomment1/>
						<mastercomment2/>
						<mastercomment3/>
						<mastercomment4/>
					</comments>
					<file id="SCD072839 "/>
					<filter>
						<effect>
							<name>Audio Levels</name>
							<effectid>audiolevels</effectid>
							<effectcategory>audiolevels</effectcategory>
							<effecttype>audiolevels</effecttype>
							<mediatype>audio</mediatype>
							<parameter>
								<name>Level</name>
								<parameterid>level</parameterid>
								<valuemin>0</valuemin>
								<valuemax>3.98109</valuemax>
								<keyframe>
									<when>65.2857</when>
									<value>0.251189</value>
								</keyframe>
								<keyframe>
									<when>155</when>
									<value>0.112202</value>
								</keyframe>
								<keyframe>
									<when>1689</when>
									<value>0.0891251</value>
								</keyframe>
								<interpolation>
									<name>FCPCurve</name>
								</interpolation>
								<value>0.251189</value>
							</parameter>
						</effect>
					</filter>
					<filter>
						<effect>
							<name>Audio Pan</name>
							<effectid>audiopan</effectid>
							<effectcategory>audiopan</effectcategory>
							<effecttype>audiopan</effecttype>
							<mediatype>audio</mediatype>
							<parameter>
								<name>Pan</name>
								<parameterid>pan</parameterid>
								<valuemin>-1</valuemin>
								<valuemax>1</valuemax>
								<value>-1</value>
							</parameter>
						</effect>
					</filter>
					<sourcetrack>
						<mediatype>audio</mediatype>
						<trackindex>1</trackindex>
					</sourcetrack>
					<link>
						<linkclipref>SCD072839.wav7</linkclipref>
						<mediatype>audio</mediatype>
						<trackindex>5</trackindex>
						<clipindex>25</clipindex>
						<groupindex>1</groupindex>
					</link>
					<link>
						<linkclipref>SCD072839.wav8</linkclipref>
						<mediatype>audio</mediatype>
						<trackindex>6</trackindex>
						<clipindex>25</clipindex>
						<groupindex>1</groupindex>
					</link>
					<itemhistory>
						<uuid>636C56D5-7AA7-4460-B9FA-B93E4E7B4B1C</uuid>
					</itemhistory>
				</clipitem>
				<clipitem id="WHOOSHLARG…WHOOSHBYFS105302.WAV23">
					<name>WHOOSHLARG…WHOOSHBYFS105302.WAV</name>
					<duration>454</duration>
					<rate>
						<ntsc>FALSE</ntsc>
						<timebase>25</timebase>
					</rate>
					<in>48</in>
					<out>126</out>
					<start>23154</start>
					<end>23232</end>
					<subframeoffset>0</subframeoffset>
					<masterclipid>WHOOSHLARG…WHOOSHBYFS105302.WAV1</masterclipid>
					<logginginfo>
						<scene/>
						<shottake/>
						<lognote/>
						<good>FALSE</good>
					</logginginfo>
					<labels>
						<label2/>
					</labels>
					<comments>
						<mastercomment1/>
						<mastercomment2/>
						<mastercomment3/>
						<mastercomment4/>
					</comments>
					<file id="WHOOSHLARG…WHOOSHBYFS105302 "/>
					<filter>
						<effect>
							<name>Audio Levels</name>
							<effectid>audiolevels</effectid>
							<effectcategory>audiolevels</effectcategory>
							<effecttype>audiolevels</effecttype>
							<mediatype>audio</mediatype>
							<parameter>
								<name>Level</name>
								<parameterid>level</parameterid>
								<valuemin>0</valuemin>
								<valuemax>3.98109</valuemax>
								<keyframe>
									<when>84</when>
									<value>0.501187</value>
								</keyframe>
								<interpolation>
									<name>FCPCurve</name>
								</interpolation>
								<value>0.281838</value>
							</parameter>
						</effect>
					</filter>
					<filter>
						<effect>
							<name>Audio Pan</name>
							<effectid>audiopan</effectid>
							<effectcategory>audiopan</effectcategory>
							<effecttype>audiopan</effecttype>
							<mediatype>audio</mediatype>
							<parameter>
								<name>Pan</name>
								<parameterid>pan</parameterid>
								<valuemin>-1</valuemin>
								<valuemax>1</valuemax>
								<value>-1</value>
							</parameter>
						</effect>
					</filter>
					<sourcetrack>
						<mediatype>audio</mediatype>
						<trackindex>1</trackindex>
					</sourcetrack>
					<link>
						<linkclipref>WHOOSHLARG…WHOOSHBYFS105302.WAV23</linkclipref>
						<mediatype>audio</mediatype>
						<trackindex>5</trackindex>
						<clipindex>26</clipindex>
						<groupindex>1</groupindex>
					</link>
					<link>
						<linkclipref>WHOOSHLARG…WHOOSHBYFS105302.WAV24</linkclipref>
						<mediatype>audio</mediatype>
						<trackindex>6</trackindex>
						<clipindex>26</clipindex>
						<groupindex>1</groupindex>
					</link>
					<itemhistory>
						<uuid>8A1264C4-4752-4C96-B672-FE7807700871</uuid>
						<uuid>65A050B0-AD2E-4036-B64B-00FDDC246999</uuid>
						<uuid>301CDA3A-FFC8-4FD2-82AD-68A0F0B1C07D</uuid>
					</itemhistory>
					<filter>
						<effect>
							<name>Time Remap</name>
							<effectid>timeremap</effectid>
							<effectcategory>motion</effectcategory>
							<effecttype>motion</effecttype>
							<mediatype>audio</mediatype>
							<parameter>
								<parameterid>variablespeed</parameterid>
								<name>variablespeed</name>
								<valuemin>0</valuemin>
								<valuemax>1</valuemax>
								<value>0</value>
							</parameter>
							<parameter>
								<parameterid>mappedduration</parameterid>
								<name>mappedduration</name>
								<value>
									<timecode>
										<rate>
											<timebase>0</timebase>
										</rate>
										<string>0</string>
										<frame>0</frame>
										<displayformat>NDF</displayformat>
									</timecode>
								</value>
							</parameter>
							<parameter>
								<parameterid>speed</parameterid>
								<name>speed</name>
								<valuemin>-10000</valuemin>
								<valuemax>10000</valuemax>
								<value>20</value>
							</parameter>
							<parameter>
								<parameterid>reverse</parameterid>
								<name>reverse</name>
								<value>FALSE</value>
							</parameter>
							<parameter>
								<parameterid>frameblending</parameterid>
								<name>frameblending</name>
								<value>TRUE</value>
							</parameter>
							<parameter>
								<parameterid>graphdict</parameterid>
								<name>graphdict</name>
								<valuemin>0</valuemin>
								<valuemax>91</valuemax>
								<keyframe>
									<when>0</when>
									<value>0.0981</value>
									<speedkfstart>TRUE</speedkfstart>
									<speedvirtualkf>TRUE</speedvirtualkf>
									<anchorOffset>0.0981</anchorOffset>
								</keyframe>
								<keyframe>
									<when>48</when>
									<value>9.74048</value>
									<speedkfin>TRUE</speedkfin>
									<speedvirtualkf>TRUE</speedvirtualkf>
								</keyframe>
								<keyframe>
									<when>126</when>
									<value>25.4094</value>
									<speedkfout>TRUE</speedkfout>
									<speedvirtualkf>TRUE</speedvirtualkf>
								</keyframe>
								<keyframe>
									<when>454</when>
									<value>92.0981</value>
									<speedkfend>TRUE</speedkfend>
									<speedvirtualkf>TRUE</speedvirtualkf>
								</keyframe>
								<interpolation>
									<name>FCPCurve</name>
								</interpolation>
								<value>9.74048</value>
							</parameter>
						</effect>
					</filter>
				</clipitem>
				<clipitem id="WHOOSHLARG…WHOOSHBYFS105302.WAV25">
					<name>WHOOSHLARG…WHOOSHBYFS105302.WAV</name>
					<duration>454</duration>
					<rate>
						<ntsc>FALSE</ntsc>
						<timebase>25</timebase>
					</rate>
					<in>48</in>
					<out>126</out>
					<start>26215</start>
					<end>26293</end>
					<subframeoffset>0</subframeoffset>
					<masterclipid>WHOOSHLARG…WHOOSHBYFS105302.WAV1</masterclipid>
					<logginginfo>
						<scene/>
						<shottake/>
						<lognote/>
						<good>FALSE</good>
					</logginginfo>
					<labels>
						<label2/>
					</labels>
					<comments>
						<mastercomment1/>
						<mastercomment2/>
						<mastercomment3/>
						<mastercomment4/>
					</comments>
					<file id="WHOOSHLARG…WHOOSHBYFS105302 "/>
					<filter>
						<effect>
							<name>Audio Levels</name>
							<effectid>audiolevels</effectid>
							<effectcategory>audiolevels</effectcategory>
							<effecttype>audiolevels</effecttype>
							<mediatype>audio</mediatype>
							<parameter>
								<name>Level</name>
								<parameterid>level</parameterid>
								<valuemin>0</valuemin>
								<valuemax>3.98109</valuemax>
								<keyframe>
									<when>84</when>
									<value>0.501187</value>
								</keyframe>
								<interpolation>
									<name>FCPCurve</name>
								</interpolation>
								<value>0.281838</value>
							</parameter>
						</effect>
					</filter>
					<filter>
						<effect>
							<name>Audio Pan</name>
							<effectid>audiopan</effectid>
							<effectcategory>audiopan</effectcategory>
							<effecttype>audiopan</effecttype>
							<mediatype>audio</mediatype>
							<parameter>
								<name>Pan</name>
								<parameterid>pan</parameterid>
								<valuemin>-1</valuemin>
								<valuemax>1</valuemax>
								<value>-1</value>
							</parameter>
						</effect>
					</filter>
					<sourcetrack>
						<mediatype>audio</mediatype>
						<trackindex>1</trackindex>
					</sourcetrack>
					<link>
						<linkclipref>WHOOSHLARG…WHOOSHBYFS105302.WAV25</linkclipref>
						<mediatype>audio</mediatype>
						<trackindex>5</trackindex>
						<clipindex>27</clipindex>
						<groupindex>1</groupindex>
					</link>
					<link>
						<linkclipref>WHOOSHLARG…WHOOSHBYFS105302.WAV26</linkclipref>
						<mediatype>audio</mediatype>
						<trackindex>6</trackindex>
						<clipindex>27</clipindex>
						<groupindex>1</groupindex>
					</link>
					<itemhistory>
						<uuid>6CBB91D5-A8BC-4CFE-A0F2-5A414399F22B</uuid>
						<uuid>65A050B0-AD2E-4036-B64B-00FDDC246999</uuid>
						<uuid>301CDA3A-FFC8-4FD2-82AD-68A0F0B1C07D</uuid>
					</itemhistory>
					<filter>
						<effect>
							<name>Time Remap</name>
							<effectid>timeremap</effectid>
							<effectcategory>motion</effectcategory>
							<effecttype>motion</effecttype>
							<mediatype>audio</mediatype>
							<parameter>
								<parameterid>variablespeed</parameterid>
								<name>variablespeed</name>
								<valuemin>0</valuemin>
								<valuemax>1</valuemax>
								<value>0</value>
							</parameter>
							<parameter>
								<parameterid>mappedduration</parameterid>
								<name>mappedduration</name>
								<value>
									<timecode>
										<rate>
											<timebase>0</timebase>
										</rate>
										<string>0</string>
										<frame>0</frame>
										<displayformat>NDF</displayformat>
									</timecode>
								</value>
							</parameter>
							<parameter>
								<parameterid>speed</parameterid>
								<name>speed</name>
								<valuemin>-10000</valuemin>
								<valuemax>10000</valuemax>
								<value>20</value>
							</parameter>
							<parameter>
								<parameterid>reverse</parameterid>
								<name>reverse</name>
								<value>FALSE</value>
							</parameter>
							<parameter>
								<parameterid>frameblending</parameterid>
								<name>frameblending</name>
								<value>TRUE</value>
							</parameter>
							<parameter>
								<parameterid>graphdict</parameterid>
								<name>graphdict</name>
								<valuemin>0</valuemin>
								<valuemax>91</valuemax>
								<keyframe>
									<when>0</when>
									<value>0.0981</value>
									<speedkfstart>TRUE</speedkfstart>
									<speedvirtualkf>TRUE</speedvirtualkf>
									<anchorOffset>0.0981</anchorOffset>
								</keyframe>
								<keyframe>
									<when>48</when>
									<value>9.74048</value>
									<speedkfin>TRUE</speedkfin>
									<speedvirtualkf>TRUE</speedvirtualkf>
								</keyframe>
								<keyframe>
									<when>126</when>
									<value>25.4094</value>
									<speedkfout>TRUE</speedkfout>
									<speedvirtualkf>TRUE</speedvirtualkf>
								</keyframe>
								<keyframe>
									<when>454</when>
									<value>92.0981</value>
									<speedkfend>TRUE</speedkfend>
									<speedvirtualkf>TRUE</speedvirtualkf>
								</keyframe>
								<interpolation>
									<name>FCPCurve</name>
								</interpolation>
								<value>9.74048</value>
							</parameter>
						</effect>
					</filter>
				</clipitem>
				<clipitem id="SCD048720.wav">
					<name>SCD048720.wav</name>
					<duration>2137</duration>
					<rate>
						<ntsc>FALSE</ntsc>
						<timebase>25</timebase>
					</rate>
					<in>0</in>
					<out>529</out>
					<start>28499</start>
					<end>29028</end>
					<subframeoffset>0</subframeoffset>
					<enabled>TRUE</enabled>
					<masterclipid>SCD048720.wav1</masterclipid>
					<logginginfo>
						<scene/>
						<shottake/>
						<lognote/>
						<good>FALSE</good>
					</logginginfo>
					<labels>
						<label2/>
					</labels>
					<comments>
						<mastercomment1>Swingende vispetakt Rulletekst</mastercomment1>
						<mastercomment2/>
						<mastercomment3/>
						<mastercomment4/>
					</comments>
					<file id="SCD048720 ">
						<name>SCD048720.wav</name>
						<pathurl>file://localhost/Volumes/Askepott/Prosjekter/DNPR637010_Kra%CC%8Akeklubben_TEM_011212/MUSIKK/NATURLEK/SCD048720.wav</pathurl>
						<rate>
							<timebase>25</timebase>
						</rate>
						<duration>2137</duration>
						<media>
							<audio>
								<samplecharacteristics>
									<samplerate>48000</samplerate>
									<depth>16</depth>
								</samplecharacteristics>
								<channelcount>2</channelcount>
							</audio>
						</media>
					</file>
					<filter>
						<effect>
							<name>Audio Levels</name>
							<effectid>audiolevels</effectid>
							<effectcategory>audiolevels</effectcategory>
							<effecttype>audiolevels</effecttype>
							<mediatype>audio</mediatype>
							<parameter>
								<name>Level</name>
								<parameterid>level</parameterid>
								<valuemin>0</valuemin>
								<valuemax>3.98109</valuemax>
								<keyframe>
									<when>408.429</when>
									<value>0.141254</value>
								</keyframe>
								<keyframe>
									<when>528.571</when>
									<value>0</value>
								</keyframe>
								<keyframe>
									<when>776.857</when>
									<value>0</value>
								</keyframe>
								<keyframe>
									<when>820.857</when>
									<value>0.141254</value>
								</keyframe>
								<keyframe>
									<when>922.571</when>
									<value>0</value>
								</keyframe>
								<interpolation>
									<name>FCPCurve</name>
								</interpolation>
								<value>0.0307218</value>
							</parameter>
						</effect>
					</filter>
					<filter>
						<effect>
							<name>Audio Pan</name>
							<effectid>audiopan</effectid>
							<effectcategory>audiopan</effectcategory>
							<effecttype>audiopan</effecttype>
							<mediatype>audio</mediatype>
							<parameter>
								<name>Pan</name>
								<parameterid>pan</parameterid>
								<valuemin>-1</valuemin>
								<valuemax>1</valuemax>
								<value>-1</value>
							</parameter>
						</effect>
					</filter>
					<sourcetrack>
						<mediatype>audio</mediatype>
						<trackindex>1</trackindex>
					</sourcetrack>
					<link>
						<linkclipref>SCD048720.wav</linkclipref>
						<mediatype>audio</mediatype>
						<trackindex>5</trackindex>
						<clipindex>28</clipindex>
						<groupindex>1</groupindex>
					</link>
					<link>
						<linkclipref>SCD048720.wav2</linkclipref>
						<mediatype>audio</mediatype>
						<trackindex>6</trackindex>
						<clipindex>28</clipindex>
						<groupindex>1</groupindex>
					</link>
					<itemhistory>
						<uuid>A42EC5C3-E797-43F5-BF99-96C8DEB8173C</uuid>
					</itemhistory>
				</clipitem>
				<enabled>TRUE</enabled>
				<locked>FALSE</locked>
				<outputchannelindex>1</outputchannelindex>
			</track>
			<track>
				<clipitem id="Vignett Ferdigmiks.wav2">
					<name>Vignett Ferdigmiks.wav</name>
					<duration>1604</duration>
					<rate>
						<ntsc>FALSE</ntsc>
						<timebase>25</timebase>
					</rate>
					<in>0</in>
					<out>884</out>
					<start>0</start>
					<end>884</end>
					<subframeoffset>0</subframeoffset>
					<masterclipid>Vignett Ferdigmiks.wav1</masterclipid>
					<logginginfo>
						<scene/>
						<shottake/>
						<lognote/>
						<good>FALSE</good>
					</logginginfo>
					<labels>
						<label2/>
					</labels>
					<comments>
						<mastercomment1/>
						<mastercomment2/>
						<mastercomment3/>
						<mastercomment4/>
					</comments>
					<file id="Vignett Ferdigmiks"/>
					<filter>
						<effect>
							<name>Audio Levels</name>
							<effectid>audiolevels</effectid>
							<effectcategory>audiolevels</effectcategory>
							<effecttype>audiolevels</effecttype>
							<mediatype>audio</mediatype>
							<parameter>
								<name>Level</name>
								<parameterid>level</parameterid>
								<valuemin>0</valuemin>
								<valuemax>3.98109</valuemax>
								<value>1</value>
							</parameter>
						</effect>
					</filter>
					<filter>
						<effect>
							<name>Audio Pan</name>
							<effectid>audiopan</effectid>
							<effectcategory>audiopan</effectcategory>
							<effecttype>audiopan</effecttype>
							<mediatype>audio</mediatype>
							<parameter>
								<name>Pan</name>
								<parameterid>pan</parameterid>
								<valuemin>-1</valuemin>
								<valuemax>1</valuemax>
								<value>1</value>
							</parameter>
						</effect>
					</filter>
					<sourcetrack>
						<mediatype>audio</mediatype>
						<trackindex>2</trackindex>
					</sourcetrack>
					<link>
						<linkclipref>Vignett Ferdigmiks.wav</linkclipref>
						<mediatype>audio</mediatype>
						<trackindex>5</trackindex>
						<clipindex>1</clipindex>
						<groupindex>1</groupindex>
					</link>
					<link>
						<linkclipref>Vignett Ferdigmiks.wav2</linkclipref>
						<mediatype>audio</mediatype>
						<trackindex>6</trackindex>
						<clipindex>1</clipindex>
						<groupindex>1</groupindex>
					</link>
					<itemhistory>
						<uuid>5BEEB91F-CD4B-48E3-8C50-C9CB3337452F</uuid>
					</itemhistory>
				</clipitem>
				<clipitem id="StarsIn…tronicDIGIFXJ027401.WAV2">
					<name>StarsIn…tronicDIGIFXJ027401.WAV</name>
					<duration>822</duration>
					<rate>
						<ntsc>FALSE</ntsc>
						<timebase>25</timebase>
					</rate>
					<in>16</in>
					<out>153</out>
					<start>2823</start>
					<end>-1</end>
					<subframeoffset>0</subframeoffset>
					<masterclipid>StarsIn…tronicDIGIFXJ027401.WAV3</masterclipid>
					<logginginfo>
						<scene/>
						<shottake/>
						<lognote/>
						<good>FALSE</good>
					</logginginfo>
					<labels>
						<label2/>
					</labels>
					<comments>
						<mastercomment1/>
						<mastercomment2/>
						<mastercomment3/>
						<mastercomment4/>
					</comments>
					<file id="StarsIn…tronicDIGIFXJ027401 "/>
					<filter>
						<effect>
							<name>Audio Levels</name>
							<effectid>audiolevels</effectid>
							<effectcategory>audiolevels</effectcategory>
							<effecttype>audiolevels</effecttype>
							<mediatype>audio</mediatype>
							<parameter>
								<name>Level</name>
								<parameterid>level</parameterid>
								<valuemin>0</valuemin>
								<valuemax>3.98109</valuemax>
								<keyframe>
									<when>16.7143</when>
									<value>0</value>
								</keyframe>
								<keyframe>
									<when>45</when>
									<value>0.251189</value>
								</keyframe>
								<interpolation>
									<name>FCPCurve</name>
								</interpolation>
								<value>0.0630957</value>
							</parameter>
						</effect>
					</filter>
					<filter>
						<effect>
							<name>Audio Pan</name>
							<effectid>audiopan</effectid>
							<effectcategory>audiopan</effectcategory>
							<effecttype>audiopan</effecttype>
							<mediatype>audio</mediatype>
							<parameter>
								<name>Pan</name>
								<parameterid>pan</parameterid>
								<valuemin>-1</valuemin>
								<valuemax>1</valuemax>
								<value>1</value>
							</parameter>
						</effect>
					</filter>
					<sourcetrack>
						<mediatype>audio</mediatype>
						<trackindex>2</trackindex>
					</sourcetrack>
					<link>
						<linkclipref>StarsIn…tronicDIGIFXJ027401.WAV</linkclipref>
						<mediatype>audio</mediatype>
						<trackindex>5</trackindex>
						<clipindex>2</clipindex>
						<groupindex>1</groupindex>
					</link>
					<link>
						<linkclipref>StarsIn…tronicDIGIFXJ027401.WAV2</linkclipref>
						<mediatype>audio</mediatype>
						<trackindex>6</trackindex>
						<clipindex>2</clipindex>
						<groupindex>1</groupindex>
					</link>
					<itemhistory>
						<uuid>4E97FF92-4148-480B-8893-CF2C77927255</uuid>
					</itemhistory>
				</clipitem>
				<transitionitem>
					<rate>
						<ntsc>FALSE</ntsc>
						<timebase>25</timebase>
					</rate>
					<start>2935</start>
					<end>2960</end>
					<alignment>center</alignment>
					<effect>
						<name>Cross Fade (+3dB)</name>
						<effectid>KGAudioTransCrossFade3dB</effectid>
						<effecttype>transition</effecttype>
						<mediatype>audio</mediatype>
					</effect>
				</transitionitem>
				<clipitem id="Gong-DeepDIGIFXJ013601.WAV2">
					<name>Gong-DeepDIGIFXJ013601.WAV</name>
					<duration>1049</duration>
					<rate>
						<ntsc>FALSE</ntsc>
						<timebase>25</timebase>
					</rate>
					<in>7</in>
					<out>152</out>
					<start>-1</start>
					<end>3080</end>
					<subframeoffset>0</subframeoffset>
					<masterclipid>Gong-DeepDIGIFXJ013601.WAV3</masterclipid>
					<logginginfo>
						<scene/>
						<shottake/>
						<lognote/>
						<good>FALSE</good>
					</logginginfo>
					<labels>
						<label2/>
					</labels>
					<comments>
						<mastercomment1/>
						<mastercomment2/>
						<mastercomment3/>
						<mastercomment4/>
					</comments>
					<file id="Gong-DeepDIGIFXJ013601 "/>
					<filter>
						<effect>
							<name>Audio Levels</name>
							<effectid>audiolevels</effectid>
							<effectcategory>audiolevels</effectcategory>
							<effecttype>audiolevels</effecttype>
							<mediatype>audio</mediatype>
							<parameter>
								<name>Level</name>
								<parameterid>level</parameterid>
								<valuemin>0</valuemin>
								<valuemax>3.98109</valuemax>
								<keyframe>
									<when>98.7143</when>
									<value>0.158489</value>
								</keyframe>
								<keyframe>
									<when>129.857</when>
									<value>0</value>
								</keyframe>
								<interpolation>
									<name>FCPCurve</name>
								</interpolation>
								<value>1</value>
							</parameter>
						</effect>
					</filter>
					<filter>
						<effect>
							<name>Audio Pan</name>
							<effectid>audiopan</effectid>
							<effectcategory>audiopan</effectcategory>
							<effecttype>audiopan</effecttype>
							<mediatype>audio</mediatype>
							<parameter>
								<name>Pan</name>
								<parameterid>pan</parameterid>
								<valuemin>-1</valuemin>
								<valuemax>1</valuemax>
								<value>1</value>
							</parameter>
						</effect>
					</filter>
					<sourcetrack>
						<mediatype>audio</mediatype>
						<trackindex>2</trackindex>
					</sourcetrack>
					<link>
						<linkclipref>Gong-DeepDIGIFXJ013601.WAV</linkclipref>
						<mediatype>audio</mediatype>
						<trackindex>5</trackindex>
						<clipindex>4</clipindex>
						<groupindex>1</groupindex>
					</link>
					<link>
						<linkclipref>Gong-DeepDIGIFXJ013601.WAV2</linkclipref>
						<mediatype>audio</mediatype>
						<trackindex>6</trackindex>
						<clipindex>4</clipindex>
						<groupindex>1</groupindex>
					</link>
					<itemhistory>
						<uuid>56FB74C2-E9E8-4055-8804-4655064C8AEF</uuid>
					</itemhistory>
				</clipitem>
				<clipitem id="SCD072839.wav2">
					<name>SCD072839.wav</name>
					<duration>2853</duration>
					<rate>
						<ntsc>FALSE</ntsc>
						<timebase>25</timebase>
					</rate>
					<in>0</in>
					<out>1335</out>
					<start>5793</start>
					<end>-1</end>
					<subframeoffset>0</subframeoffset>
					<masterclipid>SCD072839.wav1</masterclipid>
					<logginginfo>
						<scene/>
						<shottake/>
						<lognote/>
						<good>FALSE</good>
					</logginginfo>
					<labels>
						<label2/>
					</labels>
					<comments>
						<mastercomment1/>
						<mastercomment2/>
						<mastercomment3/>
						<mastercomment4/>
					</comments>
					<file id="SCD072839 "/>
					<filter>
						<effect>
							<name>Audio Levels</name>
							<effectid>audiolevels</effectid>
							<effectcategory>audiolevels</effectcategory>
							<effecttype>audiolevels</effecttype>
							<mediatype>audio</mediatype>
							<parameter>
								<name>Level</name>
								<parameterid>level</parameterid>
								<valuemin>0</valuemin>
								<valuemax>3.98109</valuemax>
								<keyframe>
									<when>65.2857</when>
									<value>0.251189</value>
								</keyframe>
								<keyframe>
									<when>155</when>
									<value>0.112202</value>
								</keyframe>
								<keyframe>
									<when>1689</when>
									<value>0.0891251</value>
								</keyframe>
								<interpolation>
									<name>FCPCurve</name>
								</interpolation>
								<value>0.251189</value>
							</parameter>
						</effect>
					</filter>
					<filter>
						<effect>
							<name>Audio Pan</name>
							<effectid>audiopan</effectid>
							<effectcategory>audiopan</effectcategory>
							<effecttype>audiopan</effecttype>
							<mediatype>audio</mediatype>
							<parameter>
								<name>Pan</name>
								<parameterid>pan</parameterid>
								<valuemin>-1</valuemin>
								<valuemax>1</valuemax>
								<value>1</value>
							</parameter>
						</effect>
					</filter>
					<sourcetrack>
						<mediatype>audio</mediatype>
						<trackindex>2</trackindex>
					</sourcetrack>
					<link>
						<linkclipref>SCD072839.wav</linkclipref>
						<mediatype>audio</mediatype>
						<trackindex>5</trackindex>
						<clipindex>5</clipindex>
						<groupindex>1</groupindex>
					</link>
					<link>
						<linkclipref>SCD072839.wav2</linkclipref>
						<mediatype>audio</mediatype>
						<trackindex>6</trackindex>
						<clipindex>5</clipindex>
						<groupindex>1</groupindex>
					</link>
					<itemhistory>
						<uuid>10A0DC88-84CA-40D3-8784-FA38349E65AC</uuid>
					</itemhistory>
				</clipitem>
				<transitionitem>
					<rate>
						<ntsc>FALSE</ntsc>
						<timebase>25</timebase>
					</rate>
					<start>7083</start>
					<end>7128</end>
					<alignment>center</alignment>
					<effect>
						<name>Cross Fade (+3dB)</name>
						<effectid>KGAudioTransCrossFade3dB</effectid>
						<effecttype>transition</effecttype>
						<mediatype>audio</mediatype>
					</effect>
				</transitionitem>
				<clipitem id="SCD072839.wav4">
					<name>SCD072839.wav</name>
					<duration>2853</duration>
					<rate>
						<ntsc>FALSE</ntsc>
						<timebase>25</timebase>
					</rate>
					<in>2540</in>
					<out>2853</out>
					<start>-1</start>
					<end>7396</end>
					<subframeoffset>0</subframeoffset>
					<enabled>TRUE</enabled>
					<masterclipid>SCD072839.wav1</masterclipid>
					<logginginfo>
						<scene/>
						<shottake/>
						<lognote/>
						<good>FALSE</good>
					</logginginfo>
					<labels>
						<label2/>
					</labels>
					<comments>
						<mastercomment1/>
						<mastercomment2/>
						<mastercomment3/>
						<mastercomment4/>
					</comments>
					<file id="SCD072839 "/>
					<filter>
						<effect>
							<name>Audio Levels</name>
							<effectid>audiolevels</effectid>
							<effectcategory>audiolevels</effectcategory>
							<effecttype>audiolevels</effecttype>
							<mediatype>audio</mediatype>
							<parameter>
								<name>Level</name>
								<parameterid>level</parameterid>
								<valuemin>0</valuemin>
								<valuemax>3.98109</valuemax>
								<keyframe>
									<when>65.2857</when>
									<value>0.251189</value>
								</keyframe>
								<keyframe>
									<when>155</when>
									<value>0.112202</value>
								</keyframe>
								<keyframe>
									<when>1689</when>
									<value>0.0891251</value>
								</keyframe>
								<interpolation>
									<name>FCPCurve</name>
								</interpolation>
								<value>0.251189</value>
							</parameter>
						</effect>
					</filter>
					<filter>
						<effect>
							<name>Audio Pan</name>
							<effectid>audiopan</effectid>
							<effectcategory>audiopan</effectcategory>
							<effecttype>audiopan</effecttype>
							<mediatype>audio</mediatype>
							<parameter>
								<name>Pan</name>
								<parameterid>pan</parameterid>
								<valuemin>-1</valuemin>
								<valuemax>1</valuemax>
								<value>1</value>
							</parameter>
						</effect>
					</filter>
					<sourcetrack>
						<mediatype>audio</mediatype>
						<trackindex>2</trackindex>
					</sourcetrack>
					<link>
						<linkclipref>SCD072839.wav3</linkclipref>
						<mediatype>audio</mediatype>
						<trackindex>5</trackindex>
						<clipindex>7</clipindex>
						<groupindex>1</groupindex>
					</link>
					<link>
						<linkclipref>SCD072839.wav4</linkclipref>
						<mediatype>audio</mediatype>
						<trackindex>6</trackindex>
						<clipindex>7</clipindex>
						<groupindex>1</groupindex>
					</link>
					<itemhistory>
						<uuid>D8EEF59B-EF42-4BE5-A9C6-D4C0C3CEB0C2</uuid>
					</itemhistory>
				</clipitem>
				<clipitem id="WHOOSHLARG…WHOOSHBYFS105302.WAV8">
					<name>WHOOSHLARG…WHOOSHBYFS105302.WAV</name>
					<duration>183</duration>
					<rate>
						<ntsc>FALSE</ntsc>
						<timebase>25</timebase>
					</rate>
					<in>0</in>
					<out>82</out>
					<start>7705</start>
					<end>7787</end>
					<subframeoffset>0</subframeoffset>
					<masterclipid>WHOOSHLARG…WHOOSHBYFS105302.WAV1</masterclipid>
					<logginginfo>
						<scene/>
						<shottake/>
						<lognote/>
						<good>FALSE</good>
					</logginginfo>
					<labels>
						<label2/>
					</labels>
					<comments>
						<mastercomment1/>
						<mastercomment2/>
						<mastercomment3/>
						<mastercomment4/>
					</comments>
					<file id="WHOOSHLARG…WHOOSHBYFS105302 "/>
					<filter>
						<effect>
							<name>Audio Levels</name>
							<effectid>audiolevels</effectid>
							<effectcategory>audiolevels</effectcategory>
							<effecttype>audiolevels</effecttype>
							<mediatype>audio</mediatype>
							<parameter>
								<name>Level</name>
								<parameterid>level</parameterid>
								<valuemin>0</valuemin>
								<valuemax>3.98109</valuemax>
								<value>0.251189</value>
							</parameter>
						</effect>
					</filter>
					<filter>
						<effect>
							<name>Audio Pan</name>
							<effectid>audiopan</effectid>
							<effectcategory>audiopan</effectcategory>
							<effecttype>audiopan</effecttype>
							<mediatype>audio</mediatype>
							<parameter>
								<name>Pan</name>
								<parameterid>pan</parameterid>
								<valuemin>-1</valuemin>
								<valuemax>1</valuemax>
								<value>1</value>
							</parameter>
						</effect>
					</filter>
					<sourcetrack>
						<mediatype>audio</mediatype>
						<trackindex>2</trackindex>
					</sourcetrack>
					<link>
						<linkclipref>WHOOSHLARG…WHOOSHBYFS105302.WAV7</linkclipref>
						<mediatype>audio</mediatype>
						<trackindex>5</trackindex>
						<clipindex>8</clipindex>
						<groupindex>1</groupindex>
					</link>
					<link>
						<linkclipref>WHOOSHLARG…WHOOSHBYFS105302.WAV8</linkclipref>
						<mediatype>audio</mediatype>
						<trackindex>6</trackindex>
						<clipindex>8</clipindex>
						<groupindex>1</groupindex>
					</link>
					<itemhistory>
						<uuid>E2BA742F-B88C-452F-A485-89C4FE41F97A</uuid>
						<uuid>9C3A1F87-73D3-4109-BC45-A1133EB5085C</uuid>
						<uuid>174378A4-A8B3-4654-A915-D87C74D86DEB</uuid>
					</itemhistory>
					<filter>
						<effect>
							<name>Time Remap</name>
							<effectid>timeremap</effectid>
							<effectcategory>motion</effectcategory>
							<effecttype>motion</effecttype>
							<mediatype>audio</mediatype>
							<parameter>
								<parameterid>variablespeed</parameterid>
								<name>variablespeed</name>
								<valuemin>0</valuemin>
								<valuemax>1</valuemax>
								<value>0</value>
							</parameter>
							<parameter>
								<parameterid>mappedduration</parameterid>
								<name>mappedduration</name>
								<value>
									<timecode>
										<rate>
											<timebase>0</timebase>
										</rate>
										<string>0</string>
										<frame>0</frame>
										<displayformat>NDF</displayformat>
									</timecode>
								</value>
							</parameter>
							<parameter>
								<parameterid>speed</parameterid>
								<name>speed</name>
								<valuemin>-10000</valuemin>
								<valuemax>10000</valuemax>
								<value>50</value>
							</parameter>
							<parameter>
								<parameterid>reverse</parameterid>
								<name>reverse</name>
								<value>FALSE</value>
							</parameter>
							<parameter>
								<parameterid>frameblending</parameterid>
								<name>frameblending</name>
								<value>TRUE</value>
							</parameter>
							<parameter>
								<parameterid>graphdict</parameterid>
								<name>graphdict</name>
								<valuemin>0</valuemin>
								<valuemax>91</valuemax>
								<keyframe>
									<when>0</when>
									<value>0.4999</value>
									<speedkfin>TRUE</speedkfin>
									<anchorOffset>0.4999</anchorOffset>
								</keyframe>
								<keyframe>
									<when>82</when>
									<value>41.4999</value>
									<speedkfout>TRUE</speedkfout>
									<speedvirtualkf>TRUE</speedvirtualkf>
								</keyframe>
								<keyframe>
									<when>183</when>
									<value>92.4999</value>
									<speedkfend>TRUE</speedkfend>
									<speedvirtualkf>TRUE</speedvirtualkf>
								</keyframe>
								<interpolation>
									<name>FCPCurve</name>
								</interpolation>
								<value>0.4999</value>
							</parameter>
						</effect>
					</filter>
				</clipitem>
				<clipitem id="WHOOSHLARG…WHOOSHBYFS105302.WAV10">
					<name>WHOOSHLARG…WHOOSHBYFS105302.WAV</name>
					<duration>454</duration>
					<rate>
						<ntsc>FALSE</ntsc>
						<timebase>25</timebase>
					</rate>
					<in>40</in>
					<out>110</out>
					<start>7875</start>
					<end>7945</end>
					<subframeoffset>0</subframeoffset>
					<masterclipid>WHOOSHLARG…WHOOSHBYFS105302.WAV1</masterclipid>
					<logginginfo>
						<scene/>
						<shottake/>
						<lognote/>
						<good>FALSE</good>
					</logginginfo>
					<labels>
						<label2/>
					</labels>
					<comments>
						<mastercomment1/>
						<mastercomment2/>
						<mastercomment3/>
						<mastercomment4/>
					</comments>
					<file id="WHOOSHLARG…WHOOSHBYFS105302 "/>
					<filter>
						<effect>
							<name>Audio Levels</name>
							<effectid>audiolevels</effectid>
							<effectcategory>audiolevels</effectcategory>
							<effecttype>audiolevels</effecttype>
							<mediatype>audio</mediatype>
							<parameter>
								<name>Level</name>
								<parameterid>level</parameterid>
								<valuemin>0</valuemin>
								<valuemax>3.98109</valuemax>
								<value>0.354813</value>
							</parameter>
						</effect>
					</filter>
					<filter>
						<effect>
							<name>Audio Pan</name>
							<effectid>audiopan</effectid>
							<effectcategory>audiopan</effectcategory>
							<effecttype>audiopan</effecttype>
							<mediatype>audio</mediatype>
							<parameter>
								<name>Pan</name>
								<parameterid>pan</parameterid>
								<valuemin>-1</valuemin>
								<valuemax>1</valuemax>
								<value>1</value>
							</parameter>
						</effect>
					</filter>
					<sourcetrack>
						<mediatype>audio</mediatype>
						<trackindex>2</trackindex>
					</sourcetrack>
					<link>
						<linkclipref>WHOOSHLARG…WHOOSHBYFS105302.WAV9</linkclipref>
						<mediatype>audio</mediatype>
						<trackindex>5</trackindex>
						<clipindex>9</clipindex>
						<groupindex>1</groupindex>
					</link>
					<link>
						<linkclipref>WHOOSHLARG…WHOOSHBYFS105302.WAV10</linkclipref>
						<mediatype>audio</mediatype>
						<trackindex>6</trackindex>
						<clipindex>9</clipindex>
						<groupindex>1</groupindex>
					</link>
					<itemhistory>
						<uuid>39BE1014-52D1-4C78-8A2D-E3E198C893BD</uuid>
						<uuid>652FDDCF-F535-4A8B-92B9-BB16591DBB7A</uuid>
						<uuid>174378A4-A8B3-4654-A915-D87C74D86DEB</uuid>
					</itemhistory>
					<filter>
						<effect>
							<name>Time Remap</name>
							<effectid>timeremap</effectid>
							<effectcategory>motion</effectcategory>
							<effecttype>motion</effecttype>
							<mediatype>audio</mediatype>
							<parameter>
								<parameterid>variablespeed</parameterid>
								<name>variablespeed</name>
								<valuemin>0</valuemin>
								<valuemax>1</valuemax>
								<value>0</value>
							</parameter>
							<parameter>
								<parameterid>mappedduration</parameterid>
								<name>mappedduration</name>
								<value>
									<timecode>
										<rate>
											<timebase>0</timebase>
										</rate>
										<string>0</string>
										<frame>0</frame>
										<displayformat>NDF</displayformat>
									</timecode>
								</value>
							</parameter>
							<parameter>
								<parameterid>speed</parameterid>
								<name>speed</name>
								<valuemin>-10000</valuemin>
								<valuemax>10000</valuemax>
								<value>20</value>
							</parameter>
							<parameter>
								<parameterid>reverse</parameterid>
								<name>reverse</name>
								<value>FALSE</value>
							</parameter>
							<parameter>
								<parameterid>frameblending</parameterid>
								<name>frameblending</name>
								<value>TRUE</value>
							</parameter>
							<parameter>
								<parameterid>graphdict</parameterid>
								<name>graphdict</name>
								<valuemin>0</valuemin>
								<valuemax>91</valuemax>
								<keyframe>
									<when>0</when>
									<value>0.0981</value>
									<speedkfstart>TRUE</speedkfstart>
									<speedvirtualkf>TRUE</speedvirtualkf>
									<anchorOffset>0.0981</anchorOffset>
								</keyframe>
								<keyframe>
									<when>40</when>
									<value>8.13342</value>
									<speedkfin>TRUE</speedkfin>
									<speedvirtualkf>TRUE</speedvirtualkf>
								</keyframe>
								<keyframe>
									<when>110</when>
									<value>22.1952</value>
									<speedkfout>TRUE</speedkfout>
									<speedvirtualkf>TRUE</speedvirtualkf>
								</keyframe>
								<keyframe>
									<when>454</when>
									<value>92.0981</value>
									<speedkfend>TRUE</speedkfend>
									<speedvirtualkf>TRUE</speedvirtualkf>
								</keyframe>
								<interpolation>
									<name>FCPCurve</name>
								</interpolation>
								<value>8.13342</value>
							</parameter>
						</effect>
					</filter>
				</clipitem>
				<clipitem id="WHOOSHLARG…WHOOSHBYFS105302.WAV12">
					<name>WHOOSHLARG…WHOOSHBYFS105302.WAV</name>
					<duration>183</duration>
					<rate>
						<ntsc>FALSE</ntsc>
						<timebase>25</timebase>
					</rate>
					<in>0</in>
					<out>82</out>
					<start>8218</start>
					<end>8300</end>
					<subframeoffset>0</subframeoffset>
					<masterclipid>WHOOSHLARG…WHOOSHBYFS105302.WAV1</masterclipid>
					<logginginfo>
						<scene/>
						<shottake/>
						<lognote/>
						<good>FALSE</good>
					</logginginfo>
					<labels>
						<label2/>
					</labels>
					<comments>
						<mastercomment1/>
						<mastercomment2/>
						<mastercomment3/>
						<mastercomment4/>
					</comments>
					<file id="WHOOSHLARG…WHOOSHBYFS105302 "/>
					<filter>
						<effect>
							<name>Audio Levels</name>
							<effectid>audiolevels</effectid>
							<effectcategory>audiolevels</effectcategory>
							<effecttype>audiolevels</effecttype>
							<mediatype>audio</mediatype>
							<parameter>
								<name>Level</name>
								<parameterid>level</parameterid>
								<valuemin>0</valuemin>
								<valuemax>3.98109</valuemax>
								<value>0.251189</value>
							</parameter>
						</effect>
					</filter>
					<filter>
						<effect>
							<name>Audio Pan</name>
							<effectid>audiopan</effectid>
							<effectcategory>audiopan</effectcategory>
							<effecttype>audiopan</effecttype>
							<mediatype>audio</mediatype>
							<parameter>
								<name>Pan</name>
								<parameterid>pan</parameterid>
								<valuemin>-1</valuemin>
								<valuemax>1</valuemax>
								<value>1</value>
							</parameter>
						</effect>
					</filter>
					<sourcetrack>
						<mediatype>audio</mediatype>
						<trackindex>2</trackindex>
					</sourcetrack>
					<link>
						<linkclipref>WHOOSHLARG…WHOOSHBYFS105302.WAV11</linkclipref>
						<mediatype>audio</mediatype>
						<trackindex>5</trackindex>
						<clipindex>10</clipindex>
						<groupindex>1</groupindex>
					</link>
					<link>
						<linkclipref>WHOOSHLARG…WHOOSHBYFS105302.WAV12</linkclipref>
						<mediatype>audio</mediatype>
						<trackindex>6</trackindex>
						<clipindex>10</clipindex>
						<groupindex>1</groupindex>
					</link>
					<itemhistory>
						<uuid>91CEEA6C-2064-40A3-BDD3-0ACBC05B789B</uuid>
						<uuid>9C3A1F87-73D3-4109-BC45-A1133EB5085C</uuid>
						<uuid>174378A4-A8B3-4654-A915-D87C74D86DEB</uuid>
					</itemhistory>
					<filter>
						<effect>
							<name>Time Remap</name>
							<effectid>timeremap</effectid>
							<effectcategory>motion</effectcategory>
							<effecttype>motion</effecttype>
							<mediatype>audio</mediatype>
							<parameter>
								<parameterid>variablespeed</parameterid>
								<name>variablespeed</name>
								<valuemin>0</valuemin>
								<valuemax>1</valuemax>
								<value>0</value>
							</parameter>
							<parameter>
								<parameterid>mappedduration</parameterid>
								<name>mappedduration</name>
								<value>
									<timecode>
										<rate>
											<timebase>0</timebase>
										</rate>
										<string>0</string>
										<frame>0</frame>
										<displayformat>NDF</displayformat>
									</timecode>
								</value>
							</parameter>
							<parameter>
								<parameterid>speed</parameterid>
								<name>speed</name>
								<valuemin>-10000</valuemin>
								<valuemax>10000</valuemax>
								<value>50</value>
							</parameter>
							<parameter>
								<parameterid>reverse</parameterid>
								<name>reverse</name>
								<value>FALSE</value>
							</parameter>
							<parameter>
								<parameterid>frameblending</parameterid>
								<name>frameblending</name>
								<value>TRUE</value>
							</parameter>
							<parameter>
								<parameterid>graphdict</parameterid>
								<name>graphdict</name>
								<valuemin>0</valuemin>
								<valuemax>91</valuemax>
								<keyframe>
									<when>0</when>
									<value>0.4999</value>
									<speedkfin>TRUE</speedkfin>
									<anchorOffset>0.4999</anchorOffset>
								</keyframe>
								<keyframe>
									<when>82</when>
									<value>41.4999</value>
									<speedkfout>TRUE</speedkfout>
									<speedvirtualkf>TRUE</speedvirtualkf>
								</keyframe>
								<keyframe>
									<when>183</when>
									<value>92.4999</value>
									<speedkfend>TRUE</speedkfend>
									<speedvirtualkf>TRUE</speedvirtualkf>
								</keyframe>
								<interpolation>
									<name>FCPCurve</name>
								</interpolation>
								<value>0.4999</value>
							</parameter>
						</effect>
					</filter>
				</clipitem>
				<clipitem id="WHOOSHLARG…WHOOSHBYFS105302.WAV14">
					<name>WHOOSHLARG…WHOOSHBYFS105302.WAV</name>
					<duration>454</duration>
					<rate>
						<ntsc>FALSE</ntsc>
						<timebase>25</timebase>
					</rate>
					<in>2</in>
					<out>158</out>
					<start>8395</start>
					<end>8551</end>
					<subframeoffset>0</subframeoffset>
					<masterclipid>WHOOSHLARG…WHOOSHBYFS105302.WAV1</masterclipid>
					<logginginfo>
						<scene/>
						<shottake/>
						<lognote/>
						<good>FALSE</good>
					</logginginfo>
					<labels>
						<label2/>
					</labels>
					<comments>
						<mastercomment1/>
						<mastercomment2/>
						<mastercomment3/>
						<mastercomment4/>
					</comments>
					<file id="WHOOSHLARG…WHOOSHBYFS105302 "/>
					<filter>
						<effect>
							<name>Audio Levels</name>
							<effectid>audiolevels</effectid>
							<effectcategory>audiolevels</effectcategory>
							<effecttype>audiolevels</effecttype>
							<mediatype>audio</mediatype>
							<parameter>
								<name>Level</name>
								<parameterid>level</parameterid>
								<valuemin>0</valuemin>
								<valuemax>3.98109</valuemax>
								<value>0.281838</value>
							</parameter>
						</effect>
					</filter>
					<filter>
						<effect>
							<name>Audio Pan</name>
							<effectid>audiopan</effectid>
							<effectcategory>audiopan</effectcategory>
							<effecttype>audiopan</effecttype>
							<mediatype>audio</mediatype>
							<parameter>
								<name>Pan</name>
								<parameterid>pan</parameterid>
								<valuemin>-1</valuemin>
								<valuemax>1</valuemax>
								<value>1</value>
							</parameter>
						</effect>
					</filter>
					<sourcetrack>
						<mediatype>audio</mediatype>
						<trackindex>2</trackindex>
					</sourcetrack>
					<link>
						<linkclipref>WHOOSHLARG…WHOOSHBYFS105302.WAV13</linkclipref>
						<mediatype>audio</mediatype>
						<trackindex>5</trackindex>
						<clipindex>11</clipindex>
						<groupindex>1</groupindex>
					</link>
					<link>
						<linkclipref>WHOOSHLARG…WHOOSHBYFS105302.WAV14</linkclipref>
						<mediatype>audio</mediatype>
						<trackindex>6</trackindex>
						<clipindex>11</clipindex>
						<groupindex>1</groupindex>
					</link>
					<itemhistory>
						<uuid>2CA20139-D155-42D3-A5AE-799871BDA61B</uuid>
						<uuid>652FDDCF-F535-4A8B-92B9-BB16591DBB7A</uuid>
						<uuid>174378A4-A8B3-4654-A915-D87C74D86DEB</uuid>
					</itemhistory>
					<filter>
						<effect>
							<name>Time Remap</name>
							<effectid>timeremap</effectid>
							<effectcategory>motion</effectcategory>
							<effecttype>motion</effecttype>
							<mediatype>audio</mediatype>
							<parameter>
								<parameterid>variablespeed</parameterid>
								<name>variablespeed</name>
								<valuemin>0</valuemin>
								<valuemax>1</valuemax>
								<value>0</value>
							</parameter>
							<parameter>
								<parameterid>mappedduration</parameterid>
								<name>mappedduration</name>
								<value>
									<timecode>
										<rate>
											<timebase>0</timebase>
										</rate>
										<string>0</string>
										<frame>0</frame>
										<displayformat>NDF</displayformat>
									</timecode>
								</value>
							</parameter>
							<parameter>
								<parameterid>speed</parameterid>
								<name>speed</name>
								<valuemin>-10000</valuemin>
								<valuemax>10000</valuemax>
								<value>20</value>
							</parameter>
							<parameter>
								<parameterid>reverse</parameterid>
								<name>reverse</name>
								<value>FALSE</value>
							</parameter>
							<parameter>
								<parameterid>frameblending</parameterid>
								<name>frameblending</name>
								<value>TRUE</value>
							</parameter>
							<parameter>
								<parameterid>graphdict</parameterid>
								<name>graphdict</name>
								<valuemin>0</valuemin>
								<valuemax>91</valuemax>
								<keyframe>
									<when>0</when>
									<value>0.0981</value>
									<speedkfstart>TRUE</speedkfstart>
									<speedvirtualkf>TRUE</speedvirtualkf>
									<anchorOffset>0.0981</anchorOffset>
								</keyframe>
								<keyframe>
									<when>2</when>
									<value>0.499866</value>
									<speedkfin>TRUE</speedkfin>
									<speedvirtualkf>TRUE</speedvirtualkf>
								</keyframe>
								<keyframe>
									<when>158</when>
									<value>31.8376</value>
									<speedkfout>TRUE</speedkfout>
									<speedvirtualkf>TRUE</speedvirtualkf>
								</keyframe>
								<keyframe>
									<when>454</when>
									<value>92.0981</value>
									<speedkfend>TRUE</speedkfend>
									<speedvirtualkf>TRUE</speedvirtualkf>
								</keyframe>
								<interpolation>
									<name>FCPCurve</name>
								</interpolation>
								<value>0.499866</value>
							</parameter>
						</effect>
					</filter>
				</clipitem>
				<clipitem id="WHOOSHLARG…WHOOSHBYFS105302.WAV16">
					<name>WHOOSHLARG…WHOOSHBYFS105302.WAV</name>
					<duration>183</duration>
					<rate>
						<ntsc>FALSE</ntsc>
						<timebase>25</timebase>
					</rate>
					<in>0</in>
					<out>82</out>
					<start>8993</start>
					<end>9075</end>
					<subframeoffset>0</subframeoffset>
					<masterclipid>WHOOSHLARG…WHOOSHBYFS105302.WAV1</masterclipid>
					<logginginfo>
						<scene/>
						<shottake/>
						<lognote/>
						<good>FALSE</good>
					</logginginfo>
					<labels>
						<label2/>
					</labels>
					<comments>
						<mastercomment1/>
						<mastercomment2/>
						<mastercomment3/>
						<mastercomment4/>
					</comments>
					<file id="WHOOSHLARG…WHOOSHBYFS105302 "/>
					<filter>
						<effect>
							<name>Audio Levels</name>
							<effectid>audiolevels</effectid>
							<effectcategory>audiolevels</effectcategory>
							<effecttype>audiolevels</effecttype>
							<mediatype>audio</mediatype>
							<parameter>
								<name>Level</name>
								<parameterid>level</parameterid>
								<valuemin>0</valuemin>
								<valuemax>3.98109</valuemax>
								<value>0.251189</value>
							</parameter>
						</effect>
					</filter>
					<filter>
						<effect>
							<name>Audio Pan</name>
							<effectid>audiopan</effectid>
							<effectcategory>audiopan</effectcategory>
							<effecttype>audiopan</effecttype>
							<mediatype>audio</mediatype>
							<parameter>
								<name>Pan</name>
								<parameterid>pan</parameterid>
								<valuemin>-1</valuemin>
								<valuemax>1</valuemax>
								<value>1</value>
							</parameter>
						</effect>
					</filter>
					<sourcetrack>
						<mediatype>audio</mediatype>
						<trackindex>2</trackindex>
					</sourcetrack>
					<link>
						<linkclipref>WHOOSHLARG…WHOOSHBYFS105302.WAV15</linkclipref>
						<mediatype>audio</mediatype>
						<trackindex>5</trackindex>
						<clipindex>12</clipindex>
						<groupindex>1</groupindex>
					</link>
					<link>
						<linkclipref>WHOOSHLARG…WHOOSHBYFS105302.WAV16</linkclipref>
						<mediatype>audio</mediatype>
						<trackindex>6</trackindex>
						<clipindex>12</clipindex>
						<groupindex>1</groupindex>
					</link>
					<itemhistory>
						<uuid>EA010581-05E8-4E8D-8EC4-FFE3795DB2DF</uuid>
						<uuid>9C3A1F87-73D3-4109-BC45-A1133EB5085C</uuid>
						<uuid>174378A4-A8B3-4654-A915-D87C74D86DEB</uuid>
					</itemhistory>
					<filter>
						<effect>
							<name>Time Remap</name>
							<effectid>timeremap</effectid>
							<effectcategory>motion</effectcategory>
							<effecttype>motion</effecttype>
							<mediatype>audio</mediatype>
							<parameter>
								<parameterid>variablespeed</parameterid>
								<name>variablespeed</name>
								<valuemin>0</valuemin>
								<valuemax>1</valuemax>
								<value>0</value>
							</parameter>
							<parameter>
								<parameterid>mappedduration</parameterid>
								<name>mappedduration</name>
								<value>
									<timecode>
										<rate>
											<timebase>0</timebase>
										</rate>
										<string>0</string>
										<frame>0</frame>
										<displayformat>NDF</displayformat>
									</timecode>
								</value>
							</parameter>
							<parameter>
								<parameterid>speed</parameterid>
								<name>speed</name>
								<valuemin>-10000</valuemin>
								<valuemax>10000</valuemax>
								<value>50</value>
							</parameter>
							<parameter>
								<parameterid>reverse</parameterid>
								<name>reverse</name>
								<value>FALSE</value>
							</parameter>
							<parameter>
								<parameterid>frameblending</parameterid>
								<name>frameblending</name>
								<value>TRUE</value>
							</parameter>
							<parameter>
								<parameterid>graphdict</parameterid>
								<name>graphdict</name>
								<valuemin>0</valuemin>
								<valuemax>91</valuemax>
								<keyframe>
									<when>0</when>
									<value>0.4999</value>
									<speedkfin>TRUE</speedkfin>
									<anchorOffset>0.4999</anchorOffset>
								</keyframe>
								<keyframe>
									<when>82</when>
									<value>41.4999</value>
									<speedkfout>TRUE</speedkfout>
									<speedvirtualkf>TRUE</speedvirtualkf>
								</keyframe>
								<keyframe>
									<when>183</when>
									<value>92.4999</value>
									<speedkfend>TRUE</speedkfend>
									<speedvirtualkf>TRUE</speedvirtualkf>
								</keyframe>
								<interpolation>
									<name>FCPCurve</name>
								</interpolation>
								<value>0.4999</value>
							</parameter>
						</effect>
					</filter>
				</clipitem>
				<clipitem id="WHOOSHLARG…WHOOSHBYFS105302.WAV18">
					<name>WHOOSHLARG…WHOOSHBYFS105302.WAV</name>
					<duration>454</duration>
					<rate>
						<ntsc>FALSE</ntsc>
						<timebase>25</timebase>
					</rate>
					<in>2</in>
					<out>158</out>
					<start>9131</start>
					<end>9287</end>
					<subframeoffset>0</subframeoffset>
					<masterclipid>WHOOSHLARG…WHOOSHBYFS105302.WAV1</masterclipid>
					<logginginfo>
						<scene/>
						<shottake/>
						<lognote/>
						<good>FALSE</good>
					</logginginfo>
					<labels>
						<label2/>
					</labels>
					<comments>
						<mastercomment1/>
						<mastercomment2/>
						<mastercomment3/>
						<mastercomment4/>
					</comments>
					<file id="WHOOSHLARG…WHOOSHBYFS105302 "/>
					<filter>
						<effect>
							<name>Audio Levels</name>
							<effectid>audiolevels</effectid>
							<effectcategory>audiolevels</effectcategory>
							<effecttype>audiolevels</effecttype>
							<mediatype>audio</mediatype>
							<parameter>
								<name>Level</name>
								<parameterid>level</parameterid>
								<valuemin>0</valuemin>
								<valuemax>3.98109</valuemax>
								<value>0.281838</value>
							</parameter>
						</effect>
					</filter>
					<filter>
						<effect>
							<name>Audio Pan</name>
							<effectid>audiopan</effectid>
							<effectcategory>audiopan</effectcategory>
							<effecttype>audiopan</effecttype>
							<mediatype>audio</mediatype>
							<parameter>
								<name>Pan</name>
								<parameterid>pan</parameterid>
								<valuemin>-1</valuemin>
								<valuemax>1</valuemax>
								<value>1</value>
							</parameter>
						</effect>
					</filter>
					<sourcetrack>
						<mediatype>audio</mediatype>
						<trackindex>2</trackindex>
					</sourcetrack>
					<link>
						<linkclipref>WHOOSHLARG…WHOOSHBYFS105302.WAV17</linkclipref>
						<mediatype>audio</mediatype>
						<trackindex>5</trackindex>
						<clipindex>13</clipindex>
						<groupindex>1</groupindex>
					</link>
					<link>
						<linkclipref>WHOOSHLARG…WHOOSHBYFS105302.WAV18</linkclipref>
						<mediatype>audio</mediatype>
						<trackindex>6</trackindex>
						<clipindex>13</clipindex>
						<groupindex>1</groupindex>
					</link>
					<itemhistory>
						<uuid>3C14D3A1-FD96-4B17-A76F-277C42529D46</uuid>
						<uuid>652FDDCF-F535-4A8B-92B9-BB16591DBB7A</uuid>
						<uuid>174378A4-A8B3-4654-A915-D87C74D86DEB</uuid>
					</itemhistory>
					<filter>
						<effect>
							<name>Time Remap</name>
							<effectid>timeremap</effectid>
							<effectcategory>motion</effectcategory>
							<effecttype>motion</effecttype>
							<mediatype>audio</mediatype>
							<parameter>
								<parameterid>variablespeed</parameterid>
								<name>variablespeed</name>
								<valuemin>0</valuemin>
								<valuemax>1</valuemax>
								<value>0</value>
							</parameter>
							<parameter>
								<parameterid>mappedduration</parameterid>
								<name>mappedduration</name>
								<value>
									<timecode>
										<rate>
											<timebase>0</timebase>
										</rate>
										<string>0</string>
										<frame>0</frame>
										<displayformat>NDF</displayformat>
									</timecode>
								</value>
							</parameter>
							<parameter>
								<parameterid>speed</parameterid>
								<name>speed</name>
								<valuemin>-10000</valuemin>
								<valuemax>10000</valuemax>
								<value>20</value>
							</parameter>
							<parameter>
								<parameterid>reverse</parameterid>
								<name>reverse</name>
								<value>FALSE</value>
							</parameter>
							<parameter>
								<parameterid>frameblending</parameterid>
								<name>frameblending</name>
								<value>TRUE</value>
							</parameter>
							<parameter>
								<parameterid>graphdict</parameterid>
								<name>graphdict</name>
								<valuemin>0</valuemin>
								<valuemax>91</valuemax>
								<keyframe>
									<when>0</when>
									<value>0.0981</value>
									<speedkfstart>TRUE</speedkfstart>
									<speedvirtualkf>TRUE</speedvirtualkf>
									<anchorOffset>0.0981</anchorOffset>
								</keyframe>
								<keyframe>
									<when>2</when>
									<value>0.499866</value>
									<speedkfin>TRUE</speedkfin>
									<speedvirtualkf>TRUE</speedvirtualkf>
								</keyframe>
								<keyframe>
									<when>158</when>
									<value>31.8376</value>
									<speedkfout>TRUE</speedkfout>
									<speedvirtualkf>TRUE</speedvirtualkf>
								</keyframe>
								<keyframe>
									<when>454</when>
									<value>92.0981</value>
									<speedkfend>TRUE</speedkfend>
									<speedvirtualkf>TRUE</speedvirtualkf>
								</keyframe>
								<interpolation>
									<name>FCPCurve</name>
								</interpolation>
								<value>0.499866</value>
							</parameter>
						</effect>
					</filter>
				</clipitem>
				<clipitem id="WHOOSHLARG…WHOOSHBYFS105302.WAV20">
					<name>WHOOSHLARG…WHOOSHBYFS105302.WAV</name>
					<duration>454</duration>
					<rate>
						<ntsc>FALSE</ntsc>
						<timebase>25</timebase>
					</rate>
					<in>30</in>
					<out>145</out>
					<start>9511</start>
					<end>9626</end>
					<subframeoffset>0</subframeoffset>
					<masterclipid>WHOOSHLARG…WHOOSHBYFS105302.WAV1</masterclipid>
					<logginginfo>
						<scene/>
						<shottake/>
						<lognote/>
						<good>FALSE</good>
					</logginginfo>
					<labels>
						<label2/>
					</labels>
					<comments>
						<mastercomment1/>
						<mastercomment2/>
						<mastercomment3/>
						<mastercomment4/>
					</comments>
					<file id="WHOOSHLARG…WHOOSHBYFS105302 "/>
					<filter>
						<effect>
							<name>Audio Levels</name>
							<effectid>audiolevels</effectid>
							<effectcategory>audiolevels</effectcategory>
							<effecttype>audiolevels</effecttype>
							<mediatype>audio</mediatype>
							<parameter>
								<name>Level</name>
								<parameterid>level</parameterid>
								<valuemin>0</valuemin>
								<valuemax>3.98109</valuemax>
								<value>0.281838</value>
							</parameter>
						</effect>
					</filter>
					<filter>
						<effect>
							<name>Audio Pan</name>
							<effectid>audiopan</effectid>
							<effectcategory>audiopan</effectcategory>
							<effecttype>audiopan</effecttype>
							<mediatype>audio</mediatype>
							<parameter>
								<name>Pan</name>
								<parameterid>pan</parameterid>
								<valuemin>-1</valuemin>
								<valuemax>1</valuemax>
								<value>1</value>
							</parameter>
						</effect>
					</filter>
					<sourcetrack>
						<mediatype>audio</mediatype>
						<trackindex>2</trackindex>
					</sourcetrack>
					<link>
						<linkclipref>WHOOSHLARG…WHOOSHBYFS105302.WAV19</linkclipref>
						<mediatype>audio</mediatype>
						<trackindex>5</trackindex>
						<clipindex>14</clipindex>
						<groupindex>1</groupindex>
					</link>
					<link>
						<linkclipref>WHOOSHLARG…WHOOSHBYFS105302.WAV20</linkclipref>
						<mediatype>audio</mediatype>
						<trackindex>6</trackindex>
						<clipindex>14</clipindex>
						<groupindex>1</groupindex>
					</link>
					<itemhistory>
						<uuid>8C6C3722-A539-409C-A5C9-8FEFD3575ABE</uuid>
						<uuid>652FDDCF-F535-4A8B-92B9-BB16591DBB7A</uuid>
						<uuid>174378A4-A8B3-4654-A915-D87C74D86DEB</uuid>
					</itemhistory>
					<filter>
						<effect>
							<name>Time Remap</name>
							<effectid>timeremap</effectid>
							<effectcategory>motion</effectcategory>
							<effecttype>motion</effecttype>
							<mediatype>audio</mediatype>
							<parameter>
								<parameterid>variablespeed</parameterid>
								<name>variablespeed</name>
								<valuemin>0</valuemin>
								<valuemax>1</valuemax>
								<value>0</value>
							</parameter>
							<parameter>
								<parameterid>mappedduration</parameterid>
								<name>mappedduration</name>
								<value>
									<timecode>
										<rate>
											<timebase>0</timebase>
										</rate>
										<string>0</string>
										<frame>0</frame>
										<displayformat>NDF</displayformat>
									</timecode>
								</value>
							</parameter>
							<parameter>
								<parameterid>speed</parameterid>
								<name>speed</name>
								<valuemin>-10000</valuemin>
								<valuemax>10000</valuemax>
								<value>20</value>
							</parameter>
							<parameter>
								<parameterid>reverse</parameterid>
								<name>reverse</name>
								<value>FALSE</value>
							</parameter>
							<parameter>
								<parameterid>frameblending</parameterid>
								<name>frameblending</name>
								<value>TRUE</value>
							</parameter>
							<parameter>
								<parameterid>graphdict</parameterid>
								<name>graphdict</name>
								<valuemin>0</valuemin>
								<valuemax>91</valuemax>
								<keyframe>
									<when>0</when>
									<value>0.0981</value>
									<speedkfstart>TRUE</speedkfstart>
									<speedvirtualkf>TRUE</speedvirtualkf>
									<anchorOffset>0.0981</anchorOffset>
								</keyframe>
								<keyframe>
									<when>30</when>
									<value>6.12459</value>
									<speedkfin>TRUE</speedkfin>
									<speedvirtualkf>TRUE</speedvirtualkf>
								</keyframe>
								<keyframe>
									<when>145</when>
									<value>29.2261</value>
									<speedkfout>TRUE</speedkfout>
									<speedvirtualkf>TRUE</speedvirtualkf>
								</keyframe>
								<keyframe>
									<when>454</when>
									<value>92.0981</value>
									<speedkfend>TRUE</speedkfend>
									<speedvirtualkf>TRUE</speedvirtualkf>
								</keyframe>
								<interpolation>
									<name>FCPCurve</name>
								</interpolation>
								<value>6.12459</value>
							</parameter>
						</effect>
					</filter>
				</clipitem>
				<clipitem id="SCD078432.wav4">
					<name>SCD078432.wav</name>
					<duration>1960</duration>
					<rate>
						<ntsc>FALSE</ntsc>
						<timebase>25</timebase>
					</rate>
					<in>0</in>
					<out>694</out>
					<start>11060</start>
					<end>11754</end>
					<subframeoffset>0</subframeoffset>
					<masterclipid>SCD078432.wav1</masterclipid>
					<logginginfo>
						<scene/>
						<shottake/>
						<lognote/>
						<good>FALSE</good>
					</logginginfo>
					<labels>
						<label2/>
					</labels>
					<comments>
						<mastercomment1/>
						<mastercomment2/>
						<mastercomment3/>
						<mastercomment4/>
					</comments>
					<file id="SCD078432 "/>
					<filter>
						<effect>
							<name>Audio Levels</name>
							<effectid>audiolevels</effectid>
							<effectcategory>audiolevels</effectcategory>
							<effecttype>audiolevels</effecttype>
							<mediatype>audio</mediatype>
							<parameter>
								<name>Level</name>
								<parameterid>level</parameterid>
								<valuemin>0</valuemin>
								<valuemax>3.98109</valuemax>
								<keyframe>
									<when>688.929</when>
									<value>0.199526</value>
								</keyframe>
								<keyframe>
									<when>693.429</when>
									<value>0</value>
								</keyframe>
								<interpolation>
									<name>FCPCurve</name>
								</interpolation>
								<value>0.199526</value>
							</parameter>
						</effect>
					</filter>
					<filter>
						<effect>
							<name>Audio Pan</name>
							<effectid>audiopan</effectid>
							<effectcategory>audiopan</effectcategory>
							<effecttype>audiopan</effecttype>
							<mediatype>audio</mediatype>
							<parameter>
								<name>Pan</name>
								<parameterid>pan</parameterid>
								<valuemin>-1</valuemin>
								<valuemax>1</valuemax>
								<value>1</value>
							</parameter>
						</effect>
					</filter>
					<sourcetrack>
						<mediatype>audio</mediatype>
						<trackindex>2</trackindex>
					</sourcetrack>
					<link>
						<linkclipref>SCD078432.wav3</linkclipref>
						<mediatype>audio</mediatype>
						<trackindex>5</trackindex>
						<clipindex>15</clipindex>
						<groupindex>1</groupindex>
					</link>
					<link>
						<linkclipref>SCD078432.wav4</linkclipref>
						<mediatype>audio</mediatype>
						<trackindex>6</trackindex>
						<clipindex>15</clipindex>
						<groupindex>1</groupindex>
					</link>
					<itemhistory>
						<uuid>4392D8D4-9288-4E69-B578-2C2C3C376D5F</uuid>
					</itemhistory>
				</clipitem>
				<clipitem id="SCD083314.wav2">
					<name>SCD083314.wav</name>
					<duration>2741</duration>
					<rate>
						<ntsc>FALSE</ntsc>
						<timebase>25</timebase>
					</rate>
					<in>135</in>
					<out>348</out>
					<start>14367</start>
					<end>-1</end>
					<subframeoffset>0</subframeoffset>
					<masterclipid>SCD083314.wav1</masterclipid>
					<logginginfo>
						<scene/>
						<shottake/>
						<lognote/>
						<good>FALSE</good>
					</logginginfo>
					<labels>
						<label2/>
					</labels>
					<comments>
						<mastercomment1/>
						<mastercomment2/>
						<mastercomment3/>
						<mastercomment4/>
					</comments>
					<file id="SCD083314 "/>
					<filter>
						<effect>
							<name>Audio Levels</name>
							<effectid>audiolevels</effectid>
							<effectcategory>audiolevels</effectcategory>
							<effecttype>audiolevels</effecttype>
							<mediatype>audio</mediatype>
							<parameter>
								<name>Level</name>
								<parameterid>level</parameterid>
								<valuemin>0</valuemin>
								<valuemax>3.98109</valuemax>
								<keyframe>
									<when>140.143</when>
									<value>0</value>
								</keyframe>
								<keyframe>
									<when>154.857</when>
									<value>1</value>
								</keyframe>
								<interpolation>
									<name>FCPCurve</name>
								</interpolation>
								<value>1</value>
							</parameter>
						</effect>
					</filter>
					<filter>
						<effect>
							<name>Audio Pan</name>
							<effectid>audiopan</effectid>
							<effectcategory>audiopan</effectcategory>
							<effecttype>audiopan</effecttype>
							<mediatype>audio</mediatype>
							<parameter>
								<name>Pan</name>
								<parameterid>pan</parameterid>
								<valuemin>-1</valuemin>
								<valuemax>1</valuemax>
								<value>1</value>
							</parameter>
						</effect>
					</filter>
					<sourcetrack>
						<mediatype>audio</mediatype>
						<trackindex>2</trackindex>
					</sourcetrack>
					<link>
						<linkclipref>SCD083314.wav</linkclipref>
						<mediatype>audio</mediatype>
						<trackindex>5</trackindex>
						<clipindex>16</clipindex>
						<groupindex>1</groupindex>
					</link>
					<link>
						<linkclipref>SCD083314.wav2</linkclipref>
						<mediatype>audio</mediatype>
						<trackindex>6</trackindex>
						<clipindex>16</clipindex>
						<groupindex>1</groupindex>
					</link>
					<itemhistory>
						<uuid>91C13A1D-408F-4D62-9A31-EAC1EE8AADF1</uuid>
					</itemhistory>
				</clipitem>
				<transitionitem>
					<rate>
						<ntsc>FALSE</ntsc>
						<timebase>25</timebase>
					</rate>
					<start>14554</start>
					<end>14580</end>
					<alignment>start</alignment>
					<effect>
						<name>Cross Fade (+3dB)</name>
						<effectid>KGAudioTransCrossFade3dB</effectid>
						<effecttype>transition</effecttype>
						<mediatype>audio</mediatype>
					</effect>
				</transitionitem>
				<clipitem id="SCD083314.wav4">
					<name>SCD083314.wav</name>
					<duration>2741</duration>
					<rate>
						<ntsc>FALSE</ntsc>
						<timebase>25</timebase>
					</rate>
					<in>2624</in>
					<out>2705</out>
					<start>-1</start>
					<end>14635</end>
					<subframeoffset>0</subframeoffset>
					<masterclipid>SCD083314.wav1</masterclipid>
					<logginginfo>
						<scene/>
						<shottake/>
						<lognote/>
						<good>FALSE</good>
					</logginginfo>
					<labels>
						<label2/>
					</labels>
					<comments>
						<mastercomment1/>
						<mastercomment2/>
						<mastercomment3/>
						<mastercomment4/>
					</comments>
					<file id="SCD083314 "/>
					<filter>
						<effect>
							<name>Audio Levels</name>
							<effectid>audiolevels</effectid>
							<effectcategory>audiolevels</effectcategory>
							<effecttype>audiolevels</effecttype>
							<mediatype>audio</mediatype>
							<parameter>
								<name>Level</name>
								<parameterid>level</parameterid>
								<valuemin>0</valuemin>
								<valuemax>3.98109</valuemax>
								<value>1</value>
							</parameter>
						</effect>
					</filter>
					<filter>
						<effect>
							<name>Audio Pan</name>
							<effectid>audiopan</effectid>
							<effectcategory>audiopan</effectcategory>
							<effecttype>audiopan</effecttype>
							<mediatype>audio</mediatype>
							<parameter>
								<name>Pan</name>
								<parameterid>pan</parameterid>
								<valuemin>-1</valuemin>
								<valuemax>1</valuemax>
								<value>1</value>
							</parameter>
						</effect>
					</filter>
					<sourcetrack>
						<mediatype>audio</mediatype>
						<trackindex>2</trackindex>
					</sourcetrack>
					<link>
						<linkclipref>SCD083314.wav3</linkclipref>
						<mediatype>audio</mediatype>
						<trackindex>5</trackindex>
						<clipindex>18</clipindex>
						<groupindex>1</groupindex>
					</link>
					<link>
						<linkclipref>SCD083314.wav4</linkclipref>
						<mediatype>audio</mediatype>
						<trackindex>6</trackindex>
						<clipindex>18</clipindex>
						<groupindex>1</groupindex>
					</link>
					<itemhistory>
						<uuid>EF87DA29-FA6C-4B32-AEAF-A9D0A09CD717</uuid>
					</itemhistory>
				</clipitem>
				<clipitem id="SCD078015 3">
					<name>SCD078015</name>
					<duration>4813</duration>
					<rate>
						<ntsc>FALSE</ntsc>
						<timebase>25</timebase>
					</rate>
					<in>0</in>
					<out>266</out>
					<start>14716</start>
					<end>14982</end>
					<masterclipid>SCD078015 1</masterclipid>
					<logginginfo>
						<scene/>
						<shottake/>
						<lognote/>
						<good>FALSE</good>
					</logginginfo>
					<labels>
						<label2/>
					</labels>
					<comments>
						<mastercomment1/>
						<mastercomment2/>
						<mastercomment3/>
						<mastercomment4/>
					</comments>
					<file id="SCD078015 2"/>
					<filter>
						<effect>
							<name>Audio Levels</name>
							<effectid>audiolevels</effectid>
							<effectcategory>audiolevels</effectcategory>
							<effecttype>audiolevels</effecttype>
							<mediatype>audio</mediatype>
							<parameter>
								<name>Level</name>
								<parameterid>level</parameterid>
								<valuemin>0</valuemin>
								<valuemax>3.98109</valuemax>
								<keyframe>
									<when>155.268</when>
									<value>0.141254</value>
								</keyframe>
								<keyframe>
									<when>265</when>
									<value>0</value>
								</keyframe>
								<interpolation>
									<name>FCPCurve</name>
								</interpolation>
								<value>0.0891251</value>
							</parameter>
						</effect>
					</filter>
					<filter>
						<effect>
							<name>Audio Pan</name>
							<effectid>audiopan</effectid>
							<effectcategory>audiopan</effectcategory>
							<effecttype>audiopan</effecttype>
							<mediatype>audio</mediatype>
							<parameter>
								<name>Pan</name>
								<parameterid>pan</parameterid>
								<valuemin>-1</valuemin>
								<valuemax>1</valuemax>
								<value>1</value>
							</parameter>
						</effect>
					</filter>
					<sourcetrack>
						<mediatype>audio</mediatype>
						<trackindex>2</trackindex>
					</sourcetrack>
					<link>
						<linkclipref>SCD078015 </linkclipref>
						<mediatype>audio</mediatype>
						<trackindex>5</trackindex>
						<clipindex>19</clipindex>
						<groupindex>1</groupindex>
					</link>
					<link>
						<linkclipref>SCD078015 3</linkclipref>
						<mediatype>audio</mediatype>
						<trackindex>6</trackindex>
						<clipindex>19</clipindex>
						<groupindex>1</groupindex>
					</link>
					<itemhistory>
						<uuid>FF1B5EDF-55D2-4824-964D-1F5FF30C5FDA</uuid>
					</itemhistory>
				</clipitem>
				<clipitem id="SCD083922.wav2">
					<name>SCD083922.wav</name>
					<duration>3298</duration>
					<rate>
						<ntsc>FALSE</ntsc>
						<timebase>25</timebase>
					</rate>
					<in>0</in>
					<out>2232</out>
					<start>15519</start>
					<end>-1</end>
					<masterclipid>SCD083922.wav1</masterclipid>
					<logginginfo>
						<scene/>
						<shottake/>
						<lognote/>
						<good>FALSE</good>
					</logginginfo>
					<labels>
						<label2/>
					</labels>
					<comments>
						<mastercomment1/>
						<mastercomment2/>
						<mastercomment3/>
						<mastercomment4/>
					</comments>
					<file id="SCD083922 "/>
					<filter>
						<effect>
							<name>Audio Levels</name>
							<effectid>audiolevels</effectid>
							<effectcategory>audiolevels</effectcategory>
							<effecttype>audiolevels</effecttype>
							<mediatype>audio</mediatype>
							<parameter>
								<name>Level</name>
								<parameterid>level</parameterid>
								<valuemin>0</valuemin>
								<valuemax>3.98109</valuemax>
								<value>0.354813</value>
							</parameter>
						</effect>
					</filter>
					<filter>
						<effect>
							<name>Audio Pan</name>
							<effectid>audiopan</effectid>
							<effectcategory>audiopan</effectcategory>
							<effecttype>audiopan</effecttype>
							<mediatype>audio</mediatype>
							<parameter>
								<name>Pan</name>
								<parameterid>pan</parameterid>
								<valuemin>-1</valuemin>
								<valuemax>1</valuemax>
								<value>1</value>
							</parameter>
						</effect>
					</filter>
					<sourcetrack>
						<mediatype>audio</mediatype>
						<trackindex>2</trackindex>
					</sourcetrack>
					<link>
						<linkclipref>SCD083922.wav</linkclipref>
						<mediatype>audio</mediatype>
						<trackindex>5</trackindex>
						<clipindex>20</clipindex>
						<groupindex>1</groupindex>
					</link>
					<link>
						<linkclipref>SCD083922.wav2</linkclipref>
						<mediatype>audio</mediatype>
						<trackindex>6</trackindex>
						<clipindex>20</clipindex>
						<groupindex>1</groupindex>
					</link>
					<itemhistory>
						<uuid>848589E7-3209-49D8-B2C5-D281988F0324</uuid>
					</itemhistory>
				</clipitem>
				<transitionitem>
					<rate>
						<ntsc>FALSE</ntsc>
						<timebase>25</timebase>
					</rate>
					<start>17687</start>
					<end>17751</end>
					<alignment>end</alignment>
					<effect>
						<name>Cross Fade (+3dB)</name>
						<effectid>KGAudioTransCrossFade3dB</effectid>
						<effecttype>transition</effecttype>
						<mediatype>audio</mediatype>
					</effect>
				</transitionitem>
				<clipitem id="SCD083922.wav4">
					<name>SCD083922.wav</name>
					<duration>3298</duration>
					<rate>
						<ntsc>FALSE</ntsc>
						<timebase>25</timebase>
					</rate>
					<in>2691</in>
					<out>3298</out>
					<start>-1</start>
					<end>18294</end>
					<masterclipid>SCD083922.wav1</masterclipid>
					<logginginfo>
						<scene/>
						<shottake/>
						<lognote/>
						<good>FALSE</good>
					</logginginfo>
					<labels>
						<label2/>
					</labels>
					<comments>
						<mastercomment1/>
						<mastercomment2/>
						<mastercomment3/>
						<mastercomment4/>
					</comments>
					<file id="SCD083922 "/>
					<filter>
						<effect>
							<name>Audio Levels</name>
							<effectid>audiolevels</effectid>
							<effectcategory>audiolevels</effectcategory>
							<effecttype>audiolevels</effecttype>
							<mediatype>audio</mediatype>
							<parameter>
								<name>Level</name>
								<parameterid>level</parameterid>
								<valuemin>0</valuemin>
								<valuemax>3.98109</valuemax>
								<value>0.354813</value>
							</parameter>
						</effect>
					</filter>
					<filter>
						<effect>
							<name>Audio Pan</name>
							<effectid>audiopan</effectid>
							<effectcategory>audiopan</effectcategory>
							<effecttype>audiopan</effecttype>
							<mediatype>audio</mediatype>
							<parameter>
								<name>Pan</name>
								<parameterid>pan</parameterid>
								<valuemin>-1</valuemin>
								<valuemax>1</valuemax>
								<value>1</value>
							</parameter>
						</effect>
					</filter>
					<sourcetrack>
						<mediatype>audio</mediatype>
						<trackindex>2</trackindex>
					</sourcetrack>
					<link>
						<linkclipref>SCD083922.wav3</linkclipref>
						<mediatype>audio</mediatype>
						<trackindex>5</trackindex>
						<clipindex>22</clipindex>
						<groupindex>1</groupindex>
					</link>
					<link>
						<linkclipref>SCD083922.wav4</linkclipref>
						<mediatype>audio</mediatype>
						<trackindex>6</trackindex>
						<clipindex>22</clipindex>
						<groupindex>1</groupindex>
					</link>
					<itemhistory>
						<uuid>41507187-48AA-49C5-9C8C-EA41B758A4DB</uuid>
					</itemhistory>
				</clipitem>
				<clipitem id="WHOOSHLARG…WHOOSHBYFS105302.WAV22">
					<name>WHOOSHLARG…WHOOSHBYFS105302.WAV</name>
					<duration>183</duration>
					<rate>
						<ntsc>FALSE</ntsc>
						<timebase>25</timebase>
					</rate>
					<in>19</in>
					<out>55</out>
					<start>19318</start>
					<end>19354</end>
					<subframeoffset>0</subframeoffset>
					<enabled>TRUE</enabled>
					<masterclipid>WHOOSHLARG…WHOOSHBYFS105302.WAV1</masterclipid>
					<logginginfo>
						<scene/>
						<shottake/>
						<lognote/>
						<good>FALSE</good>
					</logginginfo>
					<labels>
						<label2/>
					</labels>
					<comments>
						<mastercomment1/>
						<mastercomment2/>
						<mastercomment3/>
						<mastercomment4/>
					</comments>
					<file id="WHOOSHLARG…WHOOSHBYFS105302 "/>
					<filter>
						<effect>
							<name>Audio Levels</name>
							<effectid>audiolevels</effectid>
							<effectcategory>audiolevels</effectcategory>
							<effecttype>audiolevels</effecttype>
							<mediatype>audio</mediatype>
							<parameter>
								<name>Level</name>
								<parameterid>level</parameterid>
								<valuemin>0</valuemin>
								<valuemax>3.98109</valuemax>
								<value>0.251189</value>
							</parameter>
						</effect>
					</filter>
					<filter>
						<effect>
							<name>Audio Pan</name>
							<effectid>audiopan</effectid>
							<effectcategory>audiopan</effectcategory>
							<effecttype>audiopan</effecttype>
							<mediatype>audio</mediatype>
							<parameter>
								<name>Pan</name>
								<parameterid>pan</parameterid>
								<valuemin>-1</valuemin>
								<valuemax>1</valuemax>
								<value>1</value>
							</parameter>
						</effect>
					</filter>
					<sourcetrack>
						<mediatype>audio</mediatype>
						<trackindex>2</trackindex>
					</sourcetrack>
					<link>
						<linkclipref>WHOOSHLARG…WHOOSHBYFS105302.WAV21</linkclipref>
						<mediatype>audio</mediatype>
						<trackindex>5</trackindex>
						<clipindex>23</clipindex>
						<groupindex>1</groupindex>
					</link>
					<link>
						<linkclipref>WHOOSHLARG…WHOOSHBYFS105302.WAV22</linkclipref>
						<mediatype>audio</mediatype>
						<trackindex>6</trackindex>
						<clipindex>23</clipindex>
						<groupindex>1</groupindex>
					</link>
					<itemhistory>
						<uuid>2F4741D2-7466-46C2-8F2A-6E847B539D5E</uuid>
						<uuid>9C3A1F87-73D3-4109-BC45-A1133EB5085C</uuid>
						<uuid>174378A4-A8B3-4654-A915-D87C74D86DEB</uuid>
					</itemhistory>
					<filter>
						<effect>
							<name>Time Remap</name>
							<effectid>timeremap</effectid>
							<effectcategory>motion</effectcategory>
							<effecttype>motion</effecttype>
							<mediatype>audio</mediatype>
							<parameter>
								<parameterid>variablespeed</parameterid>
								<name>variablespeed</name>
								<valuemin>0</valuemin>
								<valuemax>1</valuemax>
								<value>0</value>
							</parameter>
							<parameter>
								<parameterid>mappedduration</parameterid>
								<name>mappedduration</name>
								<value>
									<timecode>
										<rate>
											<timebase>0</timebase>
										</rate>
										<string>0</string>
										<frame>0</frame>
										<displayformat>NDF</displayformat>
									</timecode>
								</value>
							</parameter>
							<parameter>
								<parameterid>speed</parameterid>
								<name>speed</name>
								<valuemin>-10000</valuemin>
								<valuemax>10000</valuemax>
								<value>50</value>
							</parameter>
							<parameter>
								<parameterid>reverse</parameterid>
								<name>reverse</name>
								<value>FALSE</value>
							</parameter>
							<parameter>
								<parameterid>frameblending</parameterid>
								<name>frameblending</name>
								<value>TRUE</value>
							</parameter>
							<parameter>
								<parameterid>graphdict</parameterid>
								<name>graphdict</name>
								<valuemin>0</valuemin>
								<valuemax>91</valuemax>
								<keyframe>
									<when>0</when>
									<value>0.4999</value>
									<speedkfstart>TRUE</speedkfstart>
									<speedvirtualkf>TRUE</speedvirtualkf>
									<anchorOffset>0.4999</anchorOffset>
								</keyframe>
								<keyframe>
									<when>19</when>
									<value>9.9999</value>
									<speedkfin>TRUE</speedkfin>
									<speedvirtualkf>TRUE</speedvirtualkf>
								</keyframe>
								<keyframe>
									<when>55</when>
									<value>27.9999</value>
									<speedkfout>TRUE</speedkfout>
									<speedvirtualkf>TRUE</speedvirtualkf>
								</keyframe>
								<keyframe>
									<when>183</when>
									<value>92.4999</value>
									<speedkfend>TRUE</speedkfend>
									<speedvirtualkf>TRUE</speedvirtualkf>
								</keyframe>
								<interpolation>
									<name>FCPCurve</name>
								</interpolation>
								<value>9.9999</value>
							</parameter>
						</effect>
					</filter>
				</clipitem>
				<clipitem id="SCD072839.wav6">
					<name>SCD072839.wav</name>
					<duration>2853</duration>
					<rate>
						<ntsc>FALSE</ntsc>
						<timebase>25</timebase>
					</rate>
					<in>0</in>
					<out>175</out>
					<start>20413</start>
					<end>20588</end>
					<subframeoffset>0</subframeoffset>
					<masterclipid>SCD072839.wav1</masterclipid>
					<logginginfo>
						<scene/>
						<shottake/>
						<lognote/>
						<good>FALSE</good>
					</logginginfo>
					<labels>
						<label2/>
					</labels>
					<comments>
						<mastercomment1/>
						<mastercomment2/>
						<mastercomment3/>
						<mastercomment4/>
					</comments>
					<file id="SCD072839 "/>
					<filter>
						<effect>
							<name>Audio Levels</name>
							<effectid>audiolevels</effectid>
							<effectcategory>audiolevels</effectcategory>
							<effecttype>audiolevels</effecttype>
							<mediatype>audio</mediatype>
							<parameter>
								<name>Level</name>
								<parameterid>level</parameterid>
								<valuemin>0</valuemin>
								<valuemax>3.98109</valuemax>
								<keyframe>
									<when>65.2857</when>
									<value>0.251189</value>
								</keyframe>
								<keyframe>
									<when>155</when>
									<value>0.112202</value>
								</keyframe>
								<keyframe>
									<when>211</when>
									<value>0.112202</value>
								</keyframe>
								<keyframe>
									<when>1689</when>
									<value>0.0891251</value>
								</keyframe>
								<interpolation>
									<name>FCPCurve</name>
								</interpolation>
								<value>0.251189</value>
							</parameter>
						</effect>
					</filter>
					<filter>
						<effect>
							<name>Audio Pan</name>
							<effectid>audiopan</effectid>
							<effectcategory>audiopan</effectcategory>
							<effecttype>audiopan</effecttype>
							<mediatype>audio</mediatype>
							<parameter>
								<name>Pan</name>
								<parameterid>pan</parameterid>
								<valuemin>-1</valuemin>
								<valuemax>1</valuemax>
								<value>1</value>
							</parameter>
						</effect>
					</filter>
					<sourcetrack>
						<mediatype>audio</mediatype>
						<trackindex>2</trackindex>
					</sourcetrack>
					<link>
						<linkclipref>SCD072839.wav5</linkclipref>
						<mediatype>audio</mediatype>
						<trackindex>5</trackindex>
						<clipindex>24</clipindex>
						<groupindex>1</groupindex>
					</link>
					<link>
						<linkclipref>SCD072839.wav6</linkclipref>
						<mediatype>audio</mediatype>
						<trackindex>6</trackindex>
						<clipindex>24</clipindex>
						<groupindex>1</groupindex>
					</link>
					<itemhistory>
						<uuid>0E5B1982-945A-4C4C-AB0C-71A57DA86C4A</uuid>
					</itemhistory>
				</clipitem>
				<clipitem id="SCD072839.wav8">
					<name>SCD072839.wav</name>
					<duration>2853</duration>
					<rate>
						<ntsc>FALSE</ntsc>
						<timebase>25</timebase>
					</rate>
					<in>2784</in>
					<out>2853</out>
					<start>20588</start>
					<end>20657</end>
					<subframeoffset>0</subframeoffset>
					<enabled>TRUE</enabled>
					<masterclipid>SCD072839.wav1</masterclipid>
					<logginginfo>
						<scene/>
						<shottake/>
						<lognote/>
						<good>FALSE</good>
					</logginginfo>
					<labels>
						<label2/>
					</labels>
					<comments>
						<mastercomment1/>
						<mastercomment2/>
						<mastercomment3/>
						<mastercomment4/>
					</comments>
					<file id="SCD072839 "/>
					<filter>
						<effect>
							<name>Audio Levels</name>
							<effectid>audiolevels</effectid>
							<effectcategory>audiolevels</effectcategory>
							<effecttype>audiolevels</effecttype>
							<mediatype>audio</mediatype>
							<parameter>
								<name>Level</name>
								<parameterid>level</parameterid>
								<valuemin>0</valuemin>
								<valuemax>3.98109</valuemax>
								<keyframe>
									<when>65.2857</when>
									<value>0.251189</value>
								</keyframe>
								<keyframe>
									<when>155</when>
									<value>0.112202</value>
								</keyframe>
								<keyframe>
									<when>1689</when>
									<value>0.0891251</value>
								</keyframe>
								<interpolation>
									<name>FCPCurve</name>
								</interpolation>
								<value>0.251189</value>
							</parameter>
						</effect>
					</filter>
					<filter>
						<effect>
							<name>Audio Pan</name>
							<effectid>audiopan</effectid>
							<effectcategory>audiopan</effectcategory>
							<effecttype>audiopan</effecttype>
							<mediatype>audio</mediatype>
							<parameter>
								<name>Pan</name>
								<parameterid>pan</parameterid>
								<valuemin>-1</valuemin>
								<valuemax>1</valuemax>
								<value>1</value>
							</parameter>
						</effect>
					</filter>
					<sourcetrack>
						<mediatype>audio</mediatype>
						<trackindex>2</trackindex>
					</sourcetrack>
					<link>
						<linkclipref>SCD072839.wav7</linkclipref>
						<mediatype>audio</mediatype>
						<trackindex>5</trackindex>
						<clipindex>25</clipindex>
						<groupindex>1</groupindex>
					</link>
					<link>
						<linkclipref>SCD072839.wav8</linkclipref>
						<mediatype>audio</mediatype>
						<trackindex>6</trackindex>
						<clipindex>25</clipindex>
						<groupindex>1</groupindex>
					</link>
					<itemhistory>
						<uuid>C17AACE8-CAB3-49C3-BABB-56FC98D25931</uuid>
					</itemhistory>
				</clipitem>
				<clipitem id="WHOOSHLARG…WHOOSHBYFS105302.WAV24">
					<name>WHOOSHLARG…WHOOSHBYFS105302.WAV</name>
					<duration>454</duration>
					<rate>
						<ntsc>FALSE</ntsc>
						<timebase>25</timebase>
					</rate>
					<in>48</in>
					<out>126</out>
					<start>23154</start>
					<end>23232</end>
					<subframeoffset>0</subframeoffset>
					<masterclipid>WHOOSHLARG…WHOOSHBYFS105302.WAV1</masterclipid>
					<logginginfo>
						<scene/>
						<shottake/>
						<lognote/>
						<good>FALSE</good>
					</logginginfo>
					<labels>
						<label2/>
					</labels>
					<comments>
						<mastercomment1/>
						<mastercomment2/>
						<mastercomment3/>
						<mastercomment4/>
					</comments>
					<file id="WHOOSHLARG…WHOOSHBYFS105302 "/>
					<filter>
						<effect>
							<name>Audio Levels</name>
							<effectid>audiolevels</effectid>
							<effectcategory>audiolevels</effectcategory>
							<effecttype>audiolevels</effecttype>
							<mediatype>audio</mediatype>
							<parameter>
								<name>Level</name>
								<parameterid>level</parameterid>
								<valuemin>0</valuemin>
								<valuemax>3.98109</valuemax>
								<keyframe>
									<when>84</when>
									<value>0.501187</value>
								</keyframe>
								<interpolation>
									<name>FCPCurve</name>
								</interpolation>
								<value>0.281838</value>
							</parameter>
						</effect>
					</filter>
					<filter>
						<effect>
							<name>Audio Pan</name>
							<effectid>audiopan</effectid>
							<effectcategory>audiopan</effectcategory>
							<effecttype>audiopan</effecttype>
							<mediatype>audio</mediatype>
							<parameter>
								<name>Pan</name>
								<parameterid>pan</parameterid>
								<valuemin>-1</valuemin>
								<valuemax>1</valuemax>
								<value>1</value>
							</parameter>
						</effect>
					</filter>
					<sourcetrack>
						<mediatype>audio</mediatype>
						<trackindex>2</trackindex>
					</sourcetrack>
					<link>
						<linkclipref>WHOOSHLARG…WHOOSHBYFS105302.WAV23</linkclipref>
						<mediatype>audio</mediatype>
						<trackindex>5</trackindex>
						<clipindex>26</clipindex>
						<groupindex>1</groupindex>
					</link>
					<link>
						<linkclipref>WHOOSHLARG…WHOOSHBYFS105302.WAV24</linkclipref>
						<mediatype>audio</mediatype>
						<trackindex>6</trackindex>
						<clipindex>26</clipindex>
						<groupindex>1</groupindex>
					</link>
					<itemhistory>
						<uuid>6F9101E9-451D-4E1F-9BA5-66BF59382BD7</uuid>
						<uuid>652FDDCF-F535-4A8B-92B9-BB16591DBB7A</uuid>
						<uuid>174378A4-A8B3-4654-A915-D87C74D86DEB</uuid>
					</itemhistory>
					<filter>
						<effect>
							<name>Time Remap</name>
							<effectid>timeremap</effectid>
							<effectcategory>motion</effectcategory>
							<effecttype>motion</effecttype>
							<mediatype>audio</mediatype>
							<parameter>
								<parameterid>variablespeed</parameterid>
								<name>variablespeed</name>
								<valuemin>0</valuemin>
								<valuemax>1</valuemax>
								<value>0</value>
							</parameter>
							<parameter>
								<parameterid>mappedduration</parameterid>
								<name>mappedduration</name>
								<value>
									<timecode>
										<rate>
											<timebase>0</timebase>
										</rate>
										<string>0</string>
										<frame>0</frame>
										<displayformat>NDF</displayformat>
									</timecode>
								</value>
							</parameter>
							<parameter>
								<parameterid>speed</parameterid>
								<name>speed</name>
								<valuemin>-10000</valuemin>
								<valuemax>10000</valuemax>
								<value>20</value>
							</parameter>
							<parameter>
								<parameterid>reverse</parameterid>
								<name>reverse</name>
								<value>FALSE</value>
							</parameter>
							<parameter>
								<parameterid>frameblending</parameterid>
								<name>frameblending</name>
								<value>TRUE</value>
							</parameter>
							<parameter>
								<parameterid>graphdict</parameterid>
								<name>graphdict</name>
								<valuemin>0</valuemin>
								<valuemax>91</valuemax>
								<keyframe>
									<when>0</when>
									<value>0.0981</value>
									<speedkfstart>TRUE</speedkfstart>
									<speedvirtualkf>TRUE</speedvirtualkf>
									<anchorOffset>0.0981</anchorOffset>
								</keyframe>
								<keyframe>
									<when>48</when>
									<value>9.74048</value>
									<speedkfin>TRUE</speedkfin>
									<speedvirtualkf>TRUE</speedvirtualkf>
								</keyframe>
								<keyframe>
									<when>126</when>
									<value>25.4094</value>
									<speedkfout>TRUE</speedkfout>
									<speedvirtualkf>TRUE</speedvirtualkf>
								</keyframe>
								<keyframe>
									<when>454</when>
									<value>92.0981</value>
									<speedkfend>TRUE</speedkfend>
									<speedvirtualkf>TRUE</speedvirtualkf>
								</keyframe>
								<interpolation>
									<name>FCPCurve</name>
								</interpolation>
								<value>9.74048</value>
							</parameter>
						</effect>
					</filter>
				</clipitem>
				<clipitem id="WHOOSHLARG…WHOOSHBYFS105302.WAV26">
					<name>WHOOSHLARG…WHOOSHBYFS105302.WAV</name>
					<duration>454</duration>
					<rate>
						<ntsc>FALSE</ntsc>
						<timebase>25</timebase>
					</rate>
					<in>48</in>
					<out>126</out>
					<start>26215</start>
					<end>26293</end>
					<subframeoffset>0</subframeoffset>
					<masterclipid>WHOOSHLARG…WHOOSHBYFS105302.WAV1</masterclipid>
					<logginginfo>
						<scene/>
						<shottake/>
						<lognote/>
						<good>FALSE</good>
					</logginginfo>
					<labels>
						<label2/>
					</labels>
					<comments>
						<mastercomment1/>
						<mastercomment2/>
						<mastercomment3/>
						<mastercomment4/>
					</comments>
					<file id="WHOOSHLARG…WHOOSHBYFS105302 "/>
					<filter>
						<effect>
							<name>Audio Levels</name>
							<effectid>audiolevels</effectid>
							<effectcategory>audiolevels</effectcategory>
							<effecttype>audiolevels</effecttype>
							<mediatype>audio</mediatype>
							<parameter>
								<name>Level</name>
								<parameterid>level</parameterid>
								<valuemin>0</valuemin>
								<valuemax>3.98109</valuemax>
								<keyframe>
									<when>84</when>
									<value>0.501187</value>
								</keyframe>
								<interpolation>
									<name>FCPCurve</name>
								</interpolation>
								<value>0.281838</value>
							</parameter>
						</effect>
					</filter>
					<filter>
						<effect>
							<name>Audio Pan</name>
							<effectid>audiopan</effectid>
							<effectcategory>audiopan</effectcategory>
							<effecttype>audiopan</effecttype>
							<mediatype>audio</mediatype>
							<parameter>
								<name>Pan</name>
								<parameterid>pan</parameterid>
								<valuemin>-1</valuemin>
								<valuemax>1</valuemax>
								<value>1</value>
							</parameter>
						</effect>
					</filter>
					<sourcetrack>
						<mediatype>audio</mediatype>
						<trackindex>2</trackindex>
					</sourcetrack>
					<link>
						<linkclipref>WHOOSHLARG…WHOOSHBYFS105302.WAV25</linkclipref>
						<mediatype>audio</mediatype>
						<trackindex>5</trackindex>
						<clipindex>27</clipindex>
						<groupindex>1</groupindex>
					</link>
					<link>
						<linkclipref>WHOOSHLARG…WHOOSHBYFS105302.WAV26</linkclipref>
						<mediatype>audio</mediatype>
						<trackindex>6</trackindex>
						<clipindex>27</clipindex>
						<groupindex>1</groupindex>
					</link>
					<itemhistory>
						<uuid>28A5E361-2A9D-4FB6-8F46-523E288B213B</uuid>
						<uuid>652FDDCF-F535-4A8B-92B9-BB16591DBB7A</uuid>
						<uuid>174378A4-A8B3-4654-A915-D87C74D86DEB</uuid>
					</itemhistory>
					<filter>
						<effect>
							<name>Time Remap</name>
							<effectid>timeremap</effectid>
							<effectcategory>motion</effectcategory>
							<effecttype>motion</effecttype>
							<mediatype>audio</mediatype>
							<parameter>
								<parameterid>variablespeed</parameterid>
								<name>variablespeed</name>
								<valuemin>0</valuemin>
								<valuemax>1</valuemax>
								<value>0</value>
							</parameter>
							<parameter>
								<parameterid>mappedduration</parameterid>
								<name>mappedduration</name>
								<value>
									<timecode>
										<rate>
											<timebase>0</timebase>
										</rate>
										<string>0</string>
										<frame>0</frame>
										<displayformat>NDF</displayformat>
									</timecode>
								</value>
							</parameter>
							<parameter>
								<parameterid>speed</parameterid>
								<name>speed</name>
								<valuemin>-10000</valuemin>
								<valuemax>10000</valuemax>
								<value>20</value>
							</parameter>
							<parameter>
								<parameterid>reverse</parameterid>
								<name>reverse</name>
								<value>FALSE</value>
							</parameter>
							<parameter>
								<parameterid>frameblending</parameterid>
								<name>frameblending</name>
								<value>TRUE</value>
							</parameter>
							<parameter>
								<parameterid>graphdict</parameterid>
								<name>graphdict</name>
								<valuemin>0</valuemin>
								<valuemax>91</valuemax>
								<keyframe>
									<when>0</when>
									<value>0.0981</value>
									<speedkfstart>TRUE</speedkfstart>
									<speedvirtualkf>TRUE</speedvirtualkf>
									<anchorOffset>0.0981</anchorOffset>
								</keyframe>
								<keyframe>
									<when>48</when>
									<value>9.74048</value>
									<speedkfin>TRUE</speedkfin>
									<speedvirtualkf>TRUE</speedvirtualkf>
								</keyframe>
								<keyframe>
									<when>126</when>
									<value>25.4094</value>
									<speedkfout>TRUE</speedkfout>
									<speedvirtualkf>TRUE</speedvirtualkf>
								</keyframe>
								<keyframe>
									<when>454</when>
									<value>92.0981</value>
									<speedkfend>TRUE</speedkfend>
									<speedvirtualkf>TRUE</speedvirtualkf>
								</keyframe>
								<interpolation>
									<name>FCPCurve</name>
								</interpolation>
								<value>9.74048</value>
							</parameter>
						</effect>
					</filter>
				</clipitem>
				<clipitem id="SCD048720.wav2">
					<name>SCD048720.wav</name>
					<duration>2137</duration>
					<rate>
						<ntsc>FALSE</ntsc>
						<timebase>25</timebase>
					</rate>
					<in>0</in>
					<out>529</out>
					<start>28499</start>
					<end>29028</end>
					<subframeoffset>0</subframeoffset>
					<enabled>TRUE</enabled>
					<masterclipid>SCD048720.wav1</masterclipid>
					<logginginfo>
						<scene/>
						<shottake/>
						<lognote/>
						<good>FALSE</good>
					</logginginfo>
					<labels>
						<label2/>
					</labels>
					<comments>
						<mastercomment1>Swingende vispetakt Rulletekst</mastercomment1>
						<mastercomment2/>
						<mastercomment3/>
						<mastercomment4/>
					</comments>
					<file id="SCD048720 "/>
					<filter>
						<effect>
							<name>Audio Levels</name>
							<effectid>audiolevels</effectid>
							<effectcategory>audiolevels</effectcategory>
							<effecttype>audiolevels</effecttype>
							<mediatype>audio</mediatype>
							<parameter>
								<name>Level</name>
								<parameterid>level</parameterid>
								<valuemin>0</valuemin>
								<valuemax>3.98109</valuemax>
								<keyframe>
									<when>408.429</when>
									<value>0.141254</value>
								</keyframe>
								<keyframe>
									<when>528.571</when>
									<value>0</value>
								</keyframe>
								<keyframe>
									<when>776.857</when>
									<value>0</value>
								</keyframe>
								<keyframe>
									<when>820.857</when>
									<value>0.141254</value>
								</keyframe>
								<keyframe>
									<when>922.571</when>
									<value>0</value>
								</keyframe>
								<interpolation>
									<name>FCPCurve</name>
								</interpolation>
								<value>0.0307218</value>
							</parameter>
						</effect>
					</filter>
					<filter>
						<effect>
							<name>Audio Pan</name>
							<effectid>audiopan</effectid>
							<effectcategory>audiopan</effectcategory>
							<effecttype>audiopan</effecttype>
							<mediatype>audio</mediatype>
							<parameter>
								<name>Pan</name>
								<parameterid>pan</parameterid>
								<valuemin>-1</valuemin>
								<valuemax>1</valuemax>
								<value>1</value>
							</parameter>
						</effect>
					</filter>
					<sourcetrack>
						<mediatype>audio</mediatype>
						<trackindex>2</trackindex>
					</sourcetrack>
					<link>
						<linkclipref>SCD048720.wav</linkclipref>
						<mediatype>audio</mediatype>
						<trackindex>5</trackindex>
						<clipindex>28</clipindex>
						<groupindex>1</groupindex>
					</link>
					<link>
						<linkclipref>SCD048720.wav2</linkclipref>
						<mediatype>audio</mediatype>
						<trackindex>6</trackindex>
						<clipindex>28</clipindex>
						<groupindex>1</groupindex>
					</link>
					<itemhistory>
						<uuid>AE4785B8-8A7C-43AC-90A1-D3713C4CA6F8</uuid>
					</itemhistory>
				</clipitem>
				<enabled>TRUE</enabled>
				<locked>FALSE</locked>
				<outputchannelindex>2</outputchannelindex>
			</track>
			<track>
				<clipitem id="SPACEWHOO…HOOSHBYSI60404904.WAV3">
					<name>SPACEWHOO…HOOSHBYSI60404904.WAV</name>
					<duration>127</duration>
					<rate>
						<ntsc>FALSE</ntsc>
						<timebase>25</timebase>
					</rate>
					<in>8</in>
					<out>61</out>
					<start>492</start>
					<end>545</end>
					<subframeoffset>0</subframeoffset>
					<masterclipid>SPACEWHOO…HOOSHBYSI60404904.WAV1</masterclipid>
					<logginginfo>
						<scene/>
						<shottake/>
						<lognote/>
						<good>FALSE</good>
					</logginginfo>
					<labels>
						<label2/>
					</labels>
					<comments>
						<mastercomment1/>
						<mastercomment2/>
						<mastercomment3/>
						<mastercomment4/>
					</comments>
					<file id="SPACEWHOO…HOOSHBYSI60404904 "/>
					<filter>
						<effect>
							<name>Audio Levels</name>
							<effectid>audiolevels</effectid>
							<effectcategory>audiolevels</effectcategory>
							<effecttype>audiolevels</effecttype>
							<mediatype>audio</mediatype>
							<parameter>
								<name>Level</name>
								<parameterid>level</parameterid>
								<valuemin>0</valuemin>
								<valuemax>3.98109</valuemax>
								<value>0.446684</value>
							</parameter>
						</effect>
					</filter>
					<filter>
						<effect>
							<name>Audio Pan</name>
							<effectid>audiopan</effectid>
							<effectcategory>audiopan</effectcategory>
							<effecttype>audiopan</effecttype>
							<mediatype>audio</mediatype>
							<parameter>
								<name>Pan</name>
								<parameterid>pan</parameterid>
								<valuemin>-1</valuemin>
								<valuemax>1</valuemax>
								<value>-1</value>
							</parameter>
						</effect>
					</filter>
					<sourcetrack>
						<mediatype>audio</mediatype>
						<trackindex>1</trackindex>
					</sourcetrack>
					<link>
						<linkclipref>SPACEWHOO…HOOSHBYSI60404904.WAV3</linkclipref>
						<mediatype>audio</mediatype>
						<trackindex>7</trackindex>
						<clipindex>1</clipindex>
						<groupindex>1</groupindex>
					</link>
					<link>
						<linkclipref>SPACEWHOO…HOOSHBYSI60404904.WAV4</linkclipref>
						<mediatype>audio</mediatype>
						<trackindex>8</trackindex>
						<clipindex>1</clipindex>
						<groupindex>1</groupindex>
					</link>
					<itemhistory>
						<uuid>6EDF0AB3-5EEE-4ABA-BBAC-E8940C2C69EF</uuid>
					</itemhistory>
				</clipitem>
				<clipitem id="SPACEWHOO…HOOSHBYSI60404904.WAV5">
					<name>SPACEWHOO…HOOSHBYSI60404904.WAV</name>
					<duration>127</duration>
					<rate>
						<ntsc>FALSE</ntsc>
						<timebase>25</timebase>
					</rate>
					<in>8</in>
					<out>61</out>
					<start>619</start>
					<end>672</end>
					<subframeoffset>0</subframeoffset>
					<masterclipid>SPACEWHOO…HOOSHBYSI60404904.WAV1</masterclipid>
					<logginginfo>
						<scene/>
						<shottake/>
						<lognote/>
						<good>FALSE</good>
					</logginginfo>
					<labels>
						<label2/>
					</labels>
					<comments>
						<mastercomment1/>
						<mastercomment2/>
						<mastercomment3/>
						<mastercomment4/>
					</comments>
					<file id="SPACEWHOO…HOOSHBYSI60404904 "/>
					<filter>
						<effect>
							<name>Audio Levels</name>
							<effectid>audiolevels</effectid>
							<effectcategory>audiolevels</effectcategory>
							<effecttype>audiolevels</effecttype>
							<mediatype>audio</mediatype>
							<parameter>
								<name>Level</name>
								<parameterid>level</parameterid>
								<valuemin>0</valuemin>
								<valuemax>3.98109</valuemax>
								<value>0.630957</value>
							</parameter>
						</effect>
					</filter>
					<filter>
						<effect>
							<name>Audio Pan</name>
							<effectid>audiopan</effectid>
							<effectcategory>audiopan</effectcategory>
							<effecttype>audiopan</effecttype>
							<mediatype>audio</mediatype>
							<parameter>
								<name>Pan</name>
								<parameterid>pan</parameterid>
								<valuemin>-1</valuemin>
								<valuemax>1</valuemax>
								<value>-1</value>
							</parameter>
						</effect>
					</filter>
					<sourcetrack>
						<mediatype>audio</mediatype>
						<trackindex>1</trackindex>
					</sourcetrack>
					<link>
						<linkclipref>SPACEWHOO…HOOSHBYSI60404904.WAV5</linkclipref>
						<mediatype>audio</mediatype>
						<trackindex>7</trackindex>
						<clipindex>2</clipindex>
						<groupindex>1</groupindex>
					</link>
					<link>
						<linkclipref>SPACEWHOO…HOOSHBYSI60404904.WAV6</linkclipref>
						<mediatype>audio</mediatype>
						<trackindex>8</trackindex>
						<clipindex>2</clipindex>
						<groupindex>1</groupindex>
					</link>
					<itemhistory>
						<uuid>8DC9EE80-FB9D-4362-AB3B-D4EECC161693</uuid>
					</itemhistory>
				</clipitem>
				<clipitem id="SPACEWHOO…HOOSHBYSI60404904.WAV7">
					<name>SPACEWHOO…HOOSHBYSI60404904.WAV</name>
					<duration>127</duration>
					<rate>
						<ntsc>FALSE</ntsc>
						<timebase>25</timebase>
					</rate>
					<in>8</in>
					<out>61</out>
					<start>703</start>
					<end>756</end>
					<subframeoffset>0</subframeoffset>
					<masterclipid>SPACEWHOO…HOOSHBYSI60404904.WAV1</masterclipid>
					<logginginfo>
						<scene/>
						<shottake/>
						<lognote/>
						<good>FALSE</good>
					</logginginfo>
					<labels>
						<label2/>
					</labels>
					<comments>
						<mastercomment1/>
						<mastercomment2/>
						<mastercomment3/>
						<mastercomment4/>
					</comments>
					<file id="SPACEWHOO…HOOSHBYSI60404904 "/>
					<filter>
						<effect>
							<name>Audio Levels</name>
							<effectid>audiolevels</effectid>
							<effectcategory>audiolevels</effectcategory>
							<effecttype>audiolevels</effecttype>
							<mediatype>audio</mediatype>
							<parameter>
								<name>Level</name>
								<parameterid>level</parameterid>
								<valuemin>0</valuemin>
								<valuemax>3.98109</valuemax>
								<value>0.446684</value>
							</parameter>
						</effect>
					</filter>
					<filter>
						<effect>
							<name>Audio Pan</name>
							<effectid>audiopan</effectid>
							<effectcategory>audiopan</effectcategory>
							<effecttype>audiopan</effecttype>
							<mediatype>audio</mediatype>
							<parameter>
								<name>Pan</name>
								<parameterid>pan</parameterid>
								<valuemin>-1</valuemin>
								<valuemax>1</valuemax>
								<value>-1</value>
							</parameter>
						</effect>
					</filter>
					<sourcetrack>
						<mediatype>audio</mediatype>
						<trackindex>1</trackindex>
					</sourcetrack>
					<link>
						<linkclipref>SPACEWHOO…HOOSHBYSI60404904.WAV7</linkclipref>
						<mediatype>audio</mediatype>
						<trackindex>7</trackindex>
						<clipindex>3</clipindex>
						<groupindex>1</groupindex>
					</link>
					<link>
						<linkclipref>SPACEWHOO…HOOSHBYSI60404904.WAV8</linkclipref>
						<mediatype>audio</mediatype>
						<trackindex>8</trackindex>
						<clipindex>3</clipindex>
						<groupindex>1</groupindex>
					</link>
					<itemhistory>
						<uuid>832B719E-034A-451F-B7A7-4C1101EAFE0C</uuid>
					</itemhistory>
				</clipitem>
				<clipitem id="SCD078019.wav">
					<name>SCD078019.wav</name>
					<duration>3133</duration>
					<rate>
						<ntsc>FALSE</ntsc>
						<timebase>25</timebase>
					</rate>
					<in>0</in>
					<out>751</out>
					<start>7734</start>
					<end>-1</end>
					<subframeoffset>0</subframeoffset>
					<masterclipid>SCD078019.wav1</masterclipid>
					<logginginfo>
						<scene/>
						<shottake/>
						<lognote/>
						<good>FALSE</good>
					</logginginfo>
					<labels>
						<label2/>
					</labels>
					<comments>
						<mastercomment1/>
						<mastercomment2/>
						<mastercomment3/>
						<mastercomment4/>
					</comments>
					<file id="SCD078019 ">
						<name>SCD078019.wav</name>
						<pathurl>file://localhost/Volumes/Askepott/Prosjekter/DNPR637010_Kra%CC%8Akeklubben_TEM_011212/MUSIKK/Underlag/SCD078019.wav</pathurl>
						<rate>
							<timebase>25</timebase>
						</rate>
						<duration>3133</duration>
						<timecode>
							<rate>
								<timebase>25</timebase>
							</rate>
							<string>00:45:04:15</string>
							<frame>67615</frame>
							<displayformat>NDF</displayformat>
							<source>source</source>
						</timecode>
						<media>
							<audio>
								<samplecharacteristics>
									<samplerate>48000</samplerate>
									<depth>16</depth>
								</samplecharacteristics>
								<channelcount>2</channelcount>
							</audio>
						</media>
					</file>
					<filter>
						<effect>
							<name>Audio Levels</name>
							<effectid>audiolevels</effectid>
							<effectcategory>audiolevels</effectcategory>
							<effecttype>audiolevels</effecttype>
							<mediatype>audio</mediatype>
							<parameter>
								<name>Level</name>
								<parameterid>level</parameterid>
								<valuemin>0</valuemin>
								<valuemax>3.98109</valuemax>
								<keyframe>
									<when>0.142857</when>
									<value>0</value>
								</keyframe>
								<keyframe>
									<when>11</when>
									<value>0.199526</value>
								</keyframe>
								<keyframe>
									<when>1740.14</when>
									<value>0.199526</value>
								</keyframe>
								<interpolation>
									<name>FCPCurve</name>
								</interpolation>
								<value>0.199526</value>
							</parameter>
						</effect>
					</filter>
					<filter>
						<effect>
							<name>Audio Pan</name>
							<effectid>audiopan</effectid>
							<effectcategory>audiopan</effectcategory>
							<effecttype>audiopan</effecttype>
							<mediatype>audio</mediatype>
							<parameter>
								<name>Pan</name>
								<parameterid>pan</parameterid>
								<valuemin>-1</valuemin>
								<valuemax>1</valuemax>
								<value>-0.99</value>
							</parameter>
						</effect>
					</filter>
					<sourcetrack>
						<mediatype>audio</mediatype>
						<trackindex>1</trackindex>
					</sourcetrack>
					<link>
						<linkclipref>SCD078019.wav</linkclipref>
						<mediatype>audio</mediatype>
						<trackindex>7</trackindex>
						<clipindex>4</clipindex>
						<groupindex>1</groupindex>
					</link>
					<link>
						<linkclipref>SCD078019.wav2</linkclipref>
						<mediatype>audio</mediatype>
						<trackindex>8</trackindex>
						<clipindex>4</clipindex>
						<groupindex>1</groupindex>
					</link>
					<itemhistory>
						<uuid>78FF0C73-01A6-421F-A089-1FD08FBB6B75</uuid>
						<uuid>B4DAE22B-C694-43FB-AB0A-8F1D8CCB0A2F</uuid>
					</itemhistory>
				</clipitem>
				<transitionitem>
					<rate>
						<ntsc>FALSE</ntsc>
						<timebase>25</timebase>
					</rate>
					<start>8460</start>
					<end>8485</end>
					<alignment>center</alignment>
					<effect>
						<name>Cross Fade (+3dB)</name>
						<effectid>KGAudioTransCrossFade3dB</effectid>
						<effecttype>transition</effecttype>
						<mediatype>audio</mediatype>
					</effect>
				</transitionitem>
				<clipitem id="SCD078019.wav3">
					<name>SCD078019.wav</name>
					<duration>3133</duration>
					<rate>
						<ntsc>FALSE</ntsc>
						<timebase>25</timebase>
					</rate>
					<in>1976</in>
					<out>3106</out>
					<start>-1</start>
					<end>9590</end>
					<subframeoffset>0</subframeoffset>
					<masterclipid>SCD078019.wav1</masterclipid>
					<logginginfo>
						<scene/>
						<shottake/>
						<lognote/>
						<good>FALSE</good>
					</logginginfo>
					<labels>
						<label2/>
					</labels>
					<comments>
						<mastercomment1/>
						<mastercomment2/>
						<mastercomment3/>
						<mastercomment4/>
					</comments>
					<file id="SCD078019 "/>
					<filter>
						<effect>
							<name>Audio Levels</name>
							<effectid>audiolevels</effectid>
							<effectcategory>audiolevels</effectcategory>
							<effecttype>audiolevels</effecttype>
							<mediatype>audio</mediatype>
							<parameter>
								<name>Level</name>
								<parameterid>level</parameterid>
								<valuemin>0</valuemin>
								<valuemax>3.98109</valuemax>
								<keyframe>
									<when>0.142857</when>
									<value>0</value>
								</keyframe>
								<keyframe>
									<when>11</when>
									<value>0.398107</value>
								</keyframe>
								<keyframe>
									<when>1740.14</when>
									<value>0.199526</value>
								</keyframe>
								<interpolation>
									<name>FCPCurve</name>
								</interpolation>
								<value>0.199526</value>
							</parameter>
						</effect>
					</filter>
					<filter>
						<effect>
							<name>Audio Pan</name>
							<effectid>audiopan</effectid>
							<effectcategory>audiopan</effectcategory>
							<effecttype>audiopan</effecttype>
							<mediatype>audio</mediatype>
							<parameter>
								<name>Pan</name>
								<parameterid>pan</parameterid>
								<valuemin>-1</valuemin>
								<valuemax>1</valuemax>
								<value>-0.99</value>
							</parameter>
						</effect>
					</filter>
					<sourcetrack>
						<mediatype>audio</mediatype>
						<trackindex>1</trackindex>
					</sourcetrack>
					<link>
						<linkclipref>SCD078019.wav3</linkclipref>
						<mediatype>audio</mediatype>
						<trackindex>7</trackindex>
						<clipindex>6</clipindex>
						<groupindex>1</groupindex>
					</link>
					<link>
						<linkclipref>SCD078019.wav4</linkclipref>
						<mediatype>audio</mediatype>
						<trackindex>8</trackindex>
						<clipindex>6</clipindex>
						<groupindex>1</groupindex>
					</link>
					<itemhistory>
						<uuid>72B2013D-0A66-416E-BE17-843856584272</uuid>
						<uuid>B4DAE22B-C694-43FB-AB0A-8F1D8CCB0A2F</uuid>
					</itemhistory>
				</clipitem>
				<clipitem id="SCD047307.wav">
					<name>SCD047307.wav</name>
					<duration>4432</duration>
					<rate>
						<ntsc>FALSE</ntsc>
						<timebase>25</timebase>
					</rate>
					<in>0</in>
					<out>258</out>
					<start>14854</start>
					<end>15112</end>
					<masterclipid>SCD047307.wav1</masterclipid>
					<logginginfo>
						<scene/>
						<shottake/>
						<lognote/>
						<good>FALSE</good>
					</logginginfo>
					<labels>
						<label2/>
					</labels>
					<comments>
						<mastercomment1/>
						<mastercomment2/>
						<mastercomment3/>
						<mastercomment4/>
					</comments>
					<file id="SCD047307 ">
						<name>SCD047307.wav</name>
						<pathurl>file://localhost/Volumes/Askepott/Prosjekter/DNPR637010_Kra%CC%8Akeklubben_TEM_011212/MUSIKK/INSEKT/Reke/SCD047307.wav</pathurl>
						<rate>
							<timebase>25</timebase>
						</rate>
						<duration>4432</duration>
						<media>
							<audio>
								<samplecharacteristics>
									<samplerate>48000</samplerate>
									<depth>16</depth>
								</samplecharacteristics>
								<channelcount>2</channelcount>
							</audio>
						</media>
					</file>
					<filter>
						<effect>
							<name>Audio Levels</name>
							<effectid>audiolevels</effectid>
							<effectcategory>audiolevels</effectcategory>
							<effecttype>audiolevels</effecttype>
							<mediatype>audio</mediatype>
							<parameter>
								<name>Level</name>
								<parameterid>level</parameterid>
								<valuemin>0</valuemin>
								<valuemax>3.98109</valuemax>
								<keyframe>
									<when>5.85714</when>
									<value>0.112202</value>
								</keyframe>
								<keyframe>
									<when>98.4286</when>
									<value>0.199526</value>
								</keyframe>
								<keyframe>
									<when>163</when>
									<value>0.199526</value>
								</keyframe>
								<keyframe>
									<when>258</when>
									<value>0.112202</value>
								</keyframe>
								<keyframe>
									<when>335.857</when>
									<value>0.199526</value>
								</keyframe>
								<interpolation>
									<name>FCPCurve</name>
								</interpolation>
								<value>0.199526</value>
							</parameter>
						</effect>
					</filter>
					<filter>
						<effect>
							<name>Audio Pan</name>
							<effectid>audiopan</effectid>
							<effectcategory>audiopan</effectcategory>
							<effecttype>audiopan</effecttype>
							<mediatype>audio</mediatype>
							<parameter>
								<name>Pan</name>
								<parameterid>pan</parameterid>
								<valuemin>-1</valuemin>
								<valuemax>1</valuemax>
								<value>-1</value>
							</parameter>
						</effect>
					</filter>
					<sourcetrack>
						<mediatype>audio</mediatype>
						<trackindex>1</trackindex>
					</sourcetrack>
					<link>
						<linkclipref>SCD047307.wav</linkclipref>
						<mediatype>audio</mediatype>
						<trackindex>7</trackindex>
						<clipindex>7</clipindex>
						<groupindex>1</groupindex>
					</link>
					<link>
						<linkclipref>SCD047307.wav2</linkclipref>
						<mediatype>audio</mediatype>
						<trackindex>8</trackindex>
						<clipindex>7</clipindex>
						<groupindex>1</groupindex>
					</link>
					<itemhistory>
						<uuid>648DB4B1-C2CB-4F57-B7C8-B737B34B0F96</uuid>
					</itemhistory>
				</clipitem>
				<clipitem id="SCD047307.wav3">
					<name>SCD047307.wav</name>
					<duration>4432</duration>
					<rate>
						<ntsc>FALSE</ntsc>
						<timebase>25</timebase>
					</rate>
					<in>3963</in>
					<out>4337</out>
					<start>15176</start>
					<end>15550</end>
					<subframeoffset>0</subframeoffset>
					<masterclipid>SCD047307.wav1</masterclipid>
					<logginginfo>
						<scene/>
						<shottake/>
						<lognote/>
						<good>FALSE</good>
					</logginginfo>
					<labels>
						<label2/>
					</labels>
					<comments>
						<mastercomment1/>
						<mastercomment2/>
						<mastercomment3/>
						<mastercomment4/>
					</comments>
					<file id="SCD047307 "/>
					<filter>
						<effect>
							<name>Audio Levels</name>
							<effectid>audiolevels</effectid>
							<effectcategory>audiolevels</effectcategory>
							<effecttype>audiolevels</effecttype>
							<mediatype>audio</mediatype>
							<parameter>
								<name>Level</name>
								<parameterid>level</parameterid>
								<valuemin>0</valuemin>
								<valuemax>3.98109</valuemax>
								<value>0.141254</value>
							</parameter>
						</effect>
					</filter>
					<filter>
						<effect>
							<name>Audio Pan</name>
							<effectid>audiopan</effectid>
							<effectcategory>audiopan</effectcategory>
							<effecttype>audiopan</effecttype>
							<mediatype>audio</mediatype>
							<parameter>
								<name>Pan</name>
								<parameterid>pan</parameterid>
								<valuemin>-1</valuemin>
								<valuemax>1</valuemax>
								<value>-1</value>
							</parameter>
						</effect>
					</filter>
					<sourcetrack>
						<mediatype>audio</mediatype>
						<trackindex>1</trackindex>
					</sourcetrack>
					<link>
						<linkclipref>SCD047307.wav3</linkclipref>
						<mediatype>audio</mediatype>
						<trackindex>7</trackindex>
						<clipindex>8</clipindex>
						<groupindex>1</groupindex>
					</link>
					<link>
						<linkclipref>SCD047307.wav4</linkclipref>
						<mediatype>audio</mediatype>
						<trackindex>8</trackindex>
						<clipindex>8</clipindex>
						<groupindex>1</groupindex>
					</link>
					<itemhistory>
						<uuid>AE965B1C-26D3-4898-9574-31C60B87E55E</uuid>
					</itemhistory>
				</clipitem>
				<clipitem id="SCD083907.wav">
					<name>SCD083907.wav</name>
					<duration>3522</duration>
					<rate>
						<ntsc>FALSE</ntsc>
						<timebase>25</timebase>
					</rate>
					<in>0</in>
					<out>941</out>
					<start>18131</start>
					<end>-1</end>
					<masterclipid>SCD083907.wav1</masterclipid>
					<logginginfo>
						<scene/>
						<shottake/>
						<lognote/>
						<good>FALSE</good>
					</logginginfo>
					<labels>
						<label2/>
					</labels>
					<comments>
						<mastercomment1/>
						<mastercomment2/>
						<mastercomment3/>
						<mastercomment4/>
					</comments>
					<file id="SCD083907 ">
						<name>SCD083907.wav</name>
						<pathurl>file://localhost/Volumes/Askepott/Prosjekter/DNPR637010_Kra%CC%8Akeklubben_TEM_011212/MUSIKK/INSEKT/Reke/SCD083907.wav</pathurl>
						<rate>
							<timebase>25</timebase>
						</rate>
						<duration>3522</duration>
						<timecode>
							<rate>
								<timebase>25</timebase>
							</rate>
							<string>00:23:49:14</string>
							<frame>35739</frame>
							<displayformat>NDF</displayformat>
							<source>source</source>
						</timecode>
						<media>
							<audio>
								<samplecharacteristics>
									<samplerate>48000</samplerate>
									<depth>16</depth>
								</samplecharacteristics>
								<channelcount>2</channelcount>
							</audio>
						</media>
					</file>
					<filter>
						<effect>
							<name>Audio Levels</name>
							<effectid>audiolevels</effectid>
							<effectcategory>audiolevels</effectcategory>
							<effecttype>audiolevels</effecttype>
							<mediatype>audio</mediatype>
							<parameter>
								<name>Level</name>
								<parameterid>level</parameterid>
								<valuemin>0</valuemin>
								<valuemax>3.98109</valuemax>
								<keyframe>
									<when>287.286</when>
									<value>0.281838</value>
								</keyframe>
								<keyframe>
									<when>340.893</when>
									<value>0.0891251</value>
								</keyframe>
								<interpolation>
									<name>FCPCurve</name>
								</interpolation>
								<value>0.281838</value>
							</parameter>
						</effect>
					</filter>
					<filter>
						<effect>
							<name>Audio Pan</name>
							<effectid>audiopan</effectid>
							<effectcategory>audiopan</effectcategory>
							<effecttype>audiopan</effecttype>
							<mediatype>audio</mediatype>
							<parameter>
								<name>Pan</name>
								<parameterid>pan</parameterid>
								<valuemin>-1</valuemin>
								<valuemax>1</valuemax>
								<value>-1</value>
							</parameter>
						</effect>
					</filter>
					<sourcetrack>
						<mediatype>audio</mediatype>
						<trackindex>1</trackindex>
					</sourcetrack>
					<link>
						<linkclipref>SCD083907.wav</linkclipref>
						<mediatype>audio</mediatype>
						<trackindex>7</trackindex>
						<clipindex>9</clipindex>
						<groupindex>1</groupindex>
					</link>
					<link>
						<linkclipref>SCD083907.wav2</linkclipref>
						<mediatype>audio</mediatype>
						<trackindex>8</trackindex>
						<clipindex>9</clipindex>
						<groupindex>1</groupindex>
					</link>
					<itemhistory>
						<uuid>3C528B2F-0D6F-4BE7-A4B0-92A36DDD5FBC</uuid>
					</itemhistory>
				</clipitem>
				<transitionitem>
					<rate>
						<ntsc>FALSE</ntsc>
						<timebase>25</timebase>
					</rate>
					<start>19047</start>
					<end>19072</end>
					<alignment>center</alignment>
					<effect>
						<name>Cross Fade (+3dB)</name>
						<effectid>KGAudioTransCrossFade3dB</effectid>
						<effecttype>transition</effecttype>
						<mediatype>audio</mediatype>
					</effect>
				</transitionitem>
				<clipitem id="SCD083907.wav3">
					<name>SCD083907.wav</name>
					<duration>3522</duration>
					<rate>
						<ntsc>FALSE</ntsc>
						<timebase>25</timebase>
					</rate>
					<in>3171</in>
					<out>3522</out>
					<start>-1</start>
					<end>19398</end>
					<subframeoffset>0</subframeoffset>
					<masterclipid>SCD083907.wav1</masterclipid>
					<logginginfo>
						<scene/>
						<shottake/>
						<lognote/>
						<good>FALSE</good>
					</logginginfo>
					<labels>
						<label2/>
					</labels>
					<comments>
						<mastercomment1/>
						<mastercomment2/>
						<mastercomment3/>
						<mastercomment4/>
					</comments>
					<file id="SCD083907 "/>
					<filter>
						<effect>
							<name>Audio Levels</name>
							<effectid>audiolevels</effectid>
							<effectcategory>audiolevels</effectcategory>
							<effecttype>audiolevels</effecttype>
							<mediatype>audio</mediatype>
							<parameter>
								<name>Level</name>
								<parameterid>level</parameterid>
								<valuemin>0</valuemin>
								<valuemax>3.98109</valuemax>
								<value>0.112202</value>
							</parameter>
						</effect>
					</filter>
					<filter>
						<effect>
							<name>Audio Pan</name>
							<effectid>audiopan</effectid>
							<effectcategory>audiopan</effectcategory>
							<effecttype>audiopan</effecttype>
							<mediatype>audio</mediatype>
							<parameter>
								<name>Pan</name>
								<parameterid>pan</parameterid>
								<valuemin>-1</valuemin>
								<valuemax>1</valuemax>
								<value>-1</value>
							</parameter>
						</effect>
					</filter>
					<sourcetrack>
						<mediatype>audio</mediatype>
						<trackindex>1</trackindex>
					</sourcetrack>
					<link>
						<linkclipref>SCD083907.wav3</linkclipref>
						<mediatype>audio</mediatype>
						<trackindex>7</trackindex>
						<clipindex>11</clipindex>
						<groupindex>1</groupindex>
					</link>
					<link>
						<linkclipref>SCD083907.wav4</linkclipref>
						<mediatype>audio</mediatype>
						<trackindex>8</trackindex>
						<clipindex>11</clipindex>
						<groupindex>1</groupindex>
					</link>
					<itemhistory>
						<uuid>67F37863-0DA9-4B92-967B-BADDDEBBC9FC</uuid>
					</itemhistory>
				</clipitem>
				<enabled>TRUE</enabled>
				<locked>FALSE</locked>
				<outputchannelindex>1</outputchannelindex>
			</track>
			<track>
				<clipitem id="SPACEWHOO…HOOSHBYSI60404904.WAV4">
					<name>SPACEWHOO…HOOSHBYSI60404904.WAV</name>
					<duration>127</duration>
					<rate>
						<ntsc>FALSE</ntsc>
						<timebase>25</timebase>
					</rate>
					<in>8</in>
					<out>61</out>
					<start>492</start>
					<end>545</end>
					<subframeoffset>0</subframeoffset>
					<masterclipid>SPACEWHOO…HOOSHBYSI60404904.WAV1</masterclipid>
					<logginginfo>
						<scene/>
						<shottake/>
						<lognote/>
						<good>FALSE</good>
					</logginginfo>
					<labels>
						<label2/>
					</labels>
					<comments>
						<mastercomment1/>
						<mastercomment2/>
						<mastercomment3/>
						<mastercomment4/>
					</comments>
					<file id="SPACEWHOO…HOOSHBYSI60404904 "/>
					<filter>
						<effect>
							<name>Audio Levels</name>
							<effectid>audiolevels</effectid>
							<effectcategory>audiolevels</effectcategory>
							<effecttype>audiolevels</effecttype>
							<mediatype>audio</mediatype>
							<parameter>
								<name>Level</name>
								<parameterid>level</parameterid>
								<valuemin>0</valuemin>
								<valuemax>3.98109</valuemax>
								<value>0.446684</value>
							</parameter>
						</effect>
					</filter>
					<filter>
						<effect>
							<name>Audio Pan</name>
							<effectid>audiopan</effectid>
							<effectcategory>audiopan</effectcategory>
							<effecttype>audiopan</effecttype>
							<mediatype>audio</mediatype>
							<parameter>
								<name>Pan</name>
								<parameterid>pan</parameterid>
								<valuemin>-1</valuemin>
								<valuemax>1</valuemax>
								<value>1</value>
							</parameter>
						</effect>
					</filter>
					<sourcetrack>
						<mediatype>audio</mediatype>
						<trackindex>2</trackindex>
					</sourcetrack>
					<link>
						<linkclipref>SPACEWHOO…HOOSHBYSI60404904.WAV3</linkclipref>
						<mediatype>audio</mediatype>
						<trackindex>7</trackindex>
						<clipindex>1</clipindex>
						<groupindex>1</groupindex>
					</link>
					<link>
						<linkclipref>SPACEWHOO…HOOSHBYSI60404904.WAV4</linkclipref>
						<mediatype>audio</mediatype>
						<trackindex>8</trackindex>
						<clipindex>1</clipindex>
						<groupindex>1</groupindex>
					</link>
					<itemhistory>
						<uuid>7C75A44D-3FFC-4A98-82D0-10C987E28E83</uuid>
					</itemhistory>
				</clipitem>
				<clipitem id="SPACEWHOO…HOOSHBYSI60404904.WAV6">
					<name>SPACEWHOO…HOOSHBYSI60404904.WAV</name>
					<duration>127</duration>
					<rate>
						<ntsc>FALSE</ntsc>
						<timebase>25</timebase>
					</rate>
					<in>8</in>
					<out>61</out>
					<start>619</start>
					<end>672</end>
					<subframeoffset>0</subframeoffset>
					<masterclipid>SPACEWHOO…HOOSHBYSI60404904.WAV1</masterclipid>
					<logginginfo>
						<scene/>
						<shottake/>
						<lognote/>
						<good>FALSE</good>
					</logginginfo>
					<labels>
						<label2/>
					</labels>
					<comments>
						<mastercomment1/>
						<mastercomment2/>
						<mastercomment3/>
						<mastercomment4/>
					</comments>
					<file id="SPACEWHOO…HOOSHBYSI60404904 "/>
					<filter>
						<effect>
							<name>Audio Levels</name>
							<effectid>audiolevels</effectid>
							<effectcategory>audiolevels</effectcategory>
							<effecttype>audiolevels</effecttype>
							<mediatype>audio</mediatype>
							<parameter>
								<name>Level</name>
								<parameterid>level</parameterid>
								<valuemin>0</valuemin>
								<valuemax>3.98109</valuemax>
								<value>0.630957</value>
							</parameter>
						</effect>
					</filter>
					<filter>
						<effect>
							<name>Audio Pan</name>
							<effectid>audiopan</effectid>
							<effectcategory>audiopan</effectcategory>
							<effecttype>audiopan</effecttype>
							<mediatype>audio</mediatype>
							<parameter>
								<name>Pan</name>
								<parameterid>pan</parameterid>
								<valuemin>-1</valuemin>
								<valuemax>1</valuemax>
								<value>1</value>
							</parameter>
						</effect>
					</filter>
					<sourcetrack>
						<mediatype>audio</mediatype>
						<trackindex>2</trackindex>
					</sourcetrack>
					<link>
						<linkclipref>SPACEWHOO…HOOSHBYSI60404904.WAV5</linkclipref>
						<mediatype>audio</mediatype>
						<trackindex>7</trackindex>
						<clipindex>2</clipindex>
						<groupindex>1</groupindex>
					</link>
					<link>
						<linkclipref>SPACEWHOO…HOOSHBYSI60404904.WAV6</linkclipref>
						<mediatype>audio</mediatype>
						<trackindex>8</trackindex>
						<clipindex>2</clipindex>
						<groupindex>1</groupindex>
					</link>
					<itemhistory>
						<uuid>B0C280A3-547C-444E-8CA3-3DBEAE4CF2E1</uuid>
					</itemhistory>
				</clipitem>
				<clipitem id="SPACEWHOO…HOOSHBYSI60404904.WAV8">
					<name>SPACEWHOO…HOOSHBYSI60404904.WAV</name>
					<duration>127</duration>
					<rate>
						<ntsc>FALSE</ntsc>
						<timebase>25</timebase>
					</rate>
					<in>8</in>
					<out>61</out>
					<start>703</start>
					<end>756</end>
					<subframeoffset>0</subframeoffset>
					<masterclipid>SPACEWHOO…HOOSHBYSI60404904.WAV1</masterclipid>
					<logginginfo>
						<scene/>
						<shottake/>
						<lognote/>
						<good>FALSE</good>
					</logginginfo>
					<labels>
						<label2/>
					</labels>
					<comments>
						<mastercomment1/>
						<mastercomment2/>
						<mastercomment3/>
						<mastercomment4/>
					</comments>
					<file id="SPACEWHOO…HOOSHBYSI60404904 "/>
					<filter>
						<effect>
							<name>Audio Levels</name>
							<effectid>audiolevels</effectid>
							<effectcategory>audiolevels</effectcategory>
							<effecttype>audiolevels</effecttype>
							<mediatype>audio</mediatype>
							<parameter>
								<name>Level</name>
								<parameterid>level</parameterid>
								<valuemin>0</valuemin>
								<valuemax>3.98109</valuemax>
								<value>0.446684</value>
							</parameter>
						</effect>
					</filter>
					<filter>
						<effect>
							<name>Audio Pan</name>
							<effectid>audiopan</effectid>
							<effectcategory>audiopan</effectcategory>
							<effecttype>audiopan</effecttype>
							<mediatype>audio</mediatype>
							<parameter>
								<name>Pan</name>
								<parameterid>pan</parameterid>
								<valuemin>-1</valuemin>
								<valuemax>1</valuemax>
								<value>1</value>
							</parameter>
						</effect>
					</filter>
					<sourcetrack>
						<mediatype>audio</mediatype>
						<trackindex>2</trackindex>
					</sourcetrack>
					<link>
						<linkclipref>SPACEWHOO…HOOSHBYSI60404904.WAV7</linkclipref>
						<mediatype>audio</mediatype>
						<trackindex>7</trackindex>
						<clipindex>3</clipindex>
						<groupindex>1</groupindex>
					</link>
					<link>
						<linkclipref>SPACEWHOO…HOOSHBYSI60404904.WAV8</linkclipref>
						<mediatype>audio</mediatype>
						<trackindex>8</trackindex>
						<clipindex>3</clipindex>
						<groupindex>1</groupindex>
					</link>
					<itemhistory>
						<uuid>5DC1E215-10F7-4285-B5F1-E3C0D407C200</uuid>
					</itemhistory>
				</clipitem>
				<clipitem id="SCD078019.wav2">
					<name>SCD078019.wav</name>
					<duration>3133</duration>
					<rate>
						<ntsc>FALSE</ntsc>
						<timebase>25</timebase>
					</rate>
					<in>0</in>
					<out>751</out>
					<start>7734</start>
					<end>-1</end>
					<subframeoffset>0</subframeoffset>
					<masterclipid>SCD078019.wav1</masterclipid>
					<logginginfo>
						<scene/>
						<shottake/>
						<lognote/>
						<good>FALSE</good>
					</logginginfo>
					<labels>
						<label2/>
					</labels>
					<comments>
						<mastercomment1/>
						<mastercomment2/>
						<mastercomment3/>
						<mastercomment4/>
					</comments>
					<file id="SCD078019 "/>
					<filter>
						<effect>
							<name>Audio Levels</name>
							<effectid>audiolevels</effectid>
							<effectcategory>audiolevels</effectcategory>
							<effecttype>audiolevels</effecttype>
							<mediatype>audio</mediatype>
							<parameter>
								<name>Level</name>
								<parameterid>level</parameterid>
								<valuemin>0</valuemin>
								<valuemax>3.98109</valuemax>
								<keyframe>
									<when>0.142857</when>
									<value>0</value>
								</keyframe>
								<keyframe>
									<when>11</when>
									<value>0.199526</value>
								</keyframe>
								<keyframe>
									<when>1740.14</when>
									<value>0.199526</value>
								</keyframe>
								<interpolation>
									<name>FCPCurve</name>
								</interpolation>
								<value>0.199526</value>
							</parameter>
						</effect>
					</filter>
					<filter>
						<effect>
							<name>Audio Pan</name>
							<effectid>audiopan</effectid>
							<effectcategory>audiopan</effectcategory>
							<effecttype>audiopan</effecttype>
							<mediatype>audio</mediatype>
							<parameter>
								<name>Pan</name>
								<parameterid>pan</parameterid>
								<valuemin>-1</valuemin>
								<valuemax>1</valuemax>
								<value>0.99</value>
							</parameter>
						</effect>
					</filter>
					<sourcetrack>
						<mediatype>audio</mediatype>
						<trackindex>2</trackindex>
					</sourcetrack>
					<link>
						<linkclipref>SCD078019.wav</linkclipref>
						<mediatype>audio</mediatype>
						<trackindex>7</trackindex>
						<clipindex>4</clipindex>
						<groupindex>1</groupindex>
					</link>
					<link>
						<linkclipref>SCD078019.wav2</linkclipref>
						<mediatype>audio</mediatype>
						<trackindex>8</trackindex>
						<clipindex>4</clipindex>
						<groupindex>1</groupindex>
					</link>
					<itemhistory>
						<uuid>E3836F41-FFFE-408F-A536-5CE954CF6A87</uuid>
						<uuid>ECA2EEF1-8FDB-4C56-AA6B-246A1AF6B43B</uuid>
					</itemhistory>
				</clipitem>
				<transitionitem>
					<rate>
						<ntsc>FALSE</ntsc>
						<timebase>25</timebase>
					</rate>
					<start>8460</start>
					<end>8485</end>
					<alignment>center</alignment>
					<effect>
						<name>Cross Fade (+3dB)</name>
						<effectid>KGAudioTransCrossFade3dB</effectid>
						<effecttype>transition</effecttype>
						<mediatype>audio</mediatype>
					</effect>
				</transitionitem>
				<clipitem id="SCD078019.wav4">
					<name>SCD078019.wav</name>
					<duration>3133</duration>
					<rate>
						<ntsc>FALSE</ntsc>
						<timebase>25</timebase>
					</rate>
					<in>1976</in>
					<out>3106</out>
					<start>-1</start>
					<end>9590</end>
					<subframeoffset>0</subframeoffset>
					<masterclipid>SCD078019.wav1</masterclipid>
					<logginginfo>
						<scene/>
						<shottake/>
						<lognote/>
						<good>FALSE</good>
					</logginginfo>
					<labels>
						<label2/>
					</labels>
					<comments>
						<mastercomment1/>
						<mastercomment2/>
						<mastercomment3/>
						<mastercomment4/>
					</comments>
					<file id="SCD078019 "/>
					<filter>
						<effect>
							<name>Audio Levels</name>
							<effectid>audiolevels</effectid>
							<effectcategory>audiolevels</effectcategory>
							<effecttype>audiolevels</effecttype>
							<mediatype>audio</mediatype>
							<parameter>
								<name>Level</name>
								<parameterid>level</parameterid>
								<valuemin>0</valuemin>
								<valuemax>3.98109</valuemax>
								<keyframe>
									<when>0.142857</when>
									<value>0</value>
								</keyframe>
								<keyframe>
									<when>11</when>
									<value>0.398107</value>
								</keyframe>
								<keyframe>
									<when>1740.14</when>
									<value>0.199526</value>
								</keyframe>
								<interpolation>
									<name>FCPCurve</name>
								</interpolation>
								<value>0.199526</value>
							</parameter>
						</effect>
					</filter>
					<filter>
						<effect>
							<name>Audio Pan</name>
							<effectid>audiopan</effectid>
							<effectcategory>audiopan</effectcategory>
							<effecttype>audiopan</effecttype>
							<mediatype>audio</mediatype>
							<parameter>
								<name>Pan</name>
								<parameterid>pan</parameterid>
								<valuemin>-1</valuemin>
								<valuemax>1</valuemax>
								<value>0.99</value>
							</parameter>
						</effect>
					</filter>
					<sourcetrack>
						<mediatype>audio</mediatype>
						<trackindex>2</trackindex>
					</sourcetrack>
					<link>
						<linkclipref>SCD078019.wav3</linkclipref>
						<mediatype>audio</mediatype>
						<trackindex>7</trackindex>
						<clipindex>6</clipindex>
						<groupindex>1</groupindex>
					</link>
					<link>
						<linkclipref>SCD078019.wav4</linkclipref>
						<mediatype>audio</mediatype>
						<trackindex>8</trackindex>
						<clipindex>6</clipindex>
						<groupindex>1</groupindex>
					</link>
					<itemhistory>
						<uuid>DFBA38C7-C288-48E4-A929-3AEA411D074F</uuid>
						<uuid>ECA2EEF1-8FDB-4C56-AA6B-246A1AF6B43B</uuid>
					</itemhistory>
				</clipitem>
				<clipitem id="SCD047307.wav2">
					<name>SCD047307.wav</name>
					<duration>4432</duration>
					<rate>
						<ntsc>FALSE</ntsc>
						<timebase>25</timebase>
					</rate>
					<in>0</in>
					<out>258</out>
					<start>14854</start>
					<end>15112</end>
					<masterclipid>SCD047307.wav1</masterclipid>
					<logginginfo>
						<scene/>
						<shottake/>
						<lognote/>
						<good>FALSE</good>
					</logginginfo>
					<labels>
						<label2/>
					</labels>
					<comments>
						<mastercomment1/>
						<mastercomment2/>
						<mastercomment3/>
						<mastercomment4/>
					</comments>
					<file id="SCD047307 "/>
					<filter>
						<effect>
							<name>Audio Levels</name>
							<effectid>audiolevels</effectid>
							<effectcategory>audiolevels</effectcategory>
							<effecttype>audiolevels</effecttype>
							<mediatype>audio</mediatype>
							<parameter>
								<name>Level</name>
								<parameterid>level</parameterid>
								<valuemin>0</valuemin>
								<valuemax>3.98109</valuemax>
								<keyframe>
									<when>5.85714</when>
									<value>0.112202</value>
								</keyframe>
								<keyframe>
									<when>98.4286</when>
									<value>0.199526</value>
								</keyframe>
								<keyframe>
									<when>163</when>
									<value>0.199526</value>
								</keyframe>
								<keyframe>
									<when>258</when>
									<value>0.112202</value>
								</keyframe>
								<keyframe>
									<when>335.857</when>
									<value>0.199526</value>
								</keyframe>
								<interpolation>
									<name>FCPCurve</name>
								</interpolation>
								<value>0.199526</value>
							</parameter>
						</effect>
					</filter>
					<filter>
						<effect>
							<name>Audio Pan</name>
							<effectid>audiopan</effectid>
							<effectcategory>audiopan</effectcategory>
							<effecttype>audiopan</effecttype>
							<mediatype>audio</mediatype>
							<parameter>
								<name>Pan</name>
								<parameterid>pan</parameterid>
								<valuemin>-1</valuemin>
								<valuemax>1</valuemax>
								<value>1</value>
							</parameter>
						</effect>
					</filter>
					<sourcetrack>
						<mediatype>audio</mediatype>
						<trackindex>2</trackindex>
					</sourcetrack>
					<link>
						<linkclipref>SCD047307.wav</linkclipref>
						<mediatype>audio</mediatype>
						<trackindex>7</trackindex>
						<clipindex>7</clipindex>
						<groupindex>1</groupindex>
					</link>
					<link>
						<linkclipref>SCD047307.wav2</linkclipref>
						<mediatype>audio</mediatype>
						<trackindex>8</trackindex>
						<clipindex>7</clipindex>
						<groupindex>1</groupindex>
					</link>
					<itemhistory>
						<uuid>A8CF99F2-BE61-48F1-BBD4-9FC083BCFC3D</uuid>
					</itemhistory>
				</clipitem>
				<clipitem id="SCD047307.wav4">
					<name>SCD047307.wav</name>
					<duration>4432</duration>
					<rate>
						<ntsc>FALSE</ntsc>
						<timebase>25</timebase>
					</rate>
					<in>3963</in>
					<out>4337</out>
					<start>15176</start>
					<end>15550</end>
					<subframeoffset>0</subframeoffset>
					<masterclipid>SCD047307.wav1</masterclipid>
					<logginginfo>
						<scene/>
						<shottake/>
						<lognote/>
						<good>FALSE</good>
					</logginginfo>
					<labels>
						<label2/>
					</labels>
					<comments>
						<mastercomment1/>
						<mastercomment2/>
						<mastercomment3/>
						<mastercomment4/>
					</comments>
					<file id="SCD047307 "/>
					<filter>
						<effect>
							<name>Audio Levels</name>
							<effectid>audiolevels</effectid>
							<effectcategory>audiolevels</effectcategory>
							<effecttype>audiolevels</effecttype>
							<mediatype>audio</mediatype>
							<parameter>
								<name>Level</name>
								<parameterid>level</parameterid>
								<valuemin>0</valuemin>
								<valuemax>3.98109</valuemax>
								<value>0.141254</value>
							</parameter>
						</effect>
					</filter>
					<filter>
						<effect>
							<name>Audio Pan</name>
							<effectid>audiopan</effectid>
							<effectcategory>audiopan</effectcategory>
							<effecttype>audiopan</effecttype>
							<mediatype>audio</mediatype>
							<parameter>
								<name>Pan</name>
								<parameterid>pan</parameterid>
								<valuemin>-1</valuemin>
								<valuemax>1</valuemax>
								<value>1</value>
							</parameter>
						</effect>
					</filter>
					<sourcetrack>
						<mediatype>audio</mediatype>
						<trackindex>2</trackindex>
					</sourcetrack>
					<link>
						<linkclipref>SCD047307.wav3</linkclipref>
						<mediatype>audio</mediatype>
						<trackindex>7</trackindex>
						<clipindex>8</clipindex>
						<groupindex>1</groupindex>
					</link>
					<link>
						<linkclipref>SCD047307.wav4</linkclipref>
						<mediatype>audio</mediatype>
						<trackindex>8</trackindex>
						<clipindex>8</clipindex>
						<groupindex>1</groupindex>
					</link>
					<itemhistory>
						<uuid>528F2BBF-132D-43D7-A456-3A62492A5123</uuid>
					</itemhistory>
				</clipitem>
				<clipitem id="SCD083907.wav2">
					<name>SCD083907.wav</name>
					<duration>3522</duration>
					<rate>
						<ntsc>FALSE</ntsc>
						<timebase>25</timebase>
					</rate>
					<in>0</in>
					<out>941</out>
					<start>18131</start>
					<end>-1</end>
					<masterclipid>SCD083907.wav1</masterclipid>
					<logginginfo>
						<scene/>
						<shottake/>
						<lognote/>
						<good>FALSE</good>
					</logginginfo>
					<labels>
						<label2/>
					</labels>
					<comments>
						<mastercomment1/>
						<mastercomment2/>
						<mastercomment3/>
						<mastercomment4/>
					</comments>
					<file id="SCD083907 "/>
					<filter>
						<effect>
							<name>Audio Levels</name>
							<effectid>audiolevels</effectid>
							<effectcategory>audiolevels</effectcategory>
							<effecttype>audiolevels</effecttype>
							<mediatype>audio</mediatype>
							<parameter>
								<name>Level</name>
								<parameterid>level</parameterid>
								<valuemin>0</valuemin>
								<valuemax>3.98109</valuemax>
								<keyframe>
									<when>287.286</when>
									<value>0.281838</value>
								</keyframe>
								<keyframe>
									<when>340.893</when>
									<value>0.0891251</value>
								</keyframe>
								<interpolation>
									<name>FCPCurve</name>
								</interpolation>
								<value>0.281838</value>
							</parameter>
						</effect>
					</filter>
					<filter>
						<effect>
							<name>Audio Pan</name>
							<effectid>audiopan</effectid>
							<effectcategory>audiopan</effectcategory>
							<effecttype>audiopan</effecttype>
							<mediatype>audio</mediatype>
							<parameter>
								<name>Pan</name>
								<parameterid>pan</parameterid>
								<valuemin>-1</valuemin>
								<valuemax>1</valuemax>
								<value>1</value>
							</parameter>
						</effect>
					</filter>
					<sourcetrack>
						<mediatype>audio</mediatype>
						<trackindex>2</trackindex>
					</sourcetrack>
					<link>
						<linkclipref>SCD083907.wav</linkclipref>
						<mediatype>audio</mediatype>
						<trackindex>7</trackindex>
						<clipindex>9</clipindex>
						<groupindex>1</groupindex>
					</link>
					<link>
						<linkclipref>SCD083907.wav2</linkclipref>
						<mediatype>audio</mediatype>
						<trackindex>8</trackindex>
						<clipindex>9</clipindex>
						<groupindex>1</groupindex>
					</link>
					<itemhistory>
						<uuid>B1518634-9D83-414F-A89A-3568DD90EA2C</uuid>
					</itemhistory>
				</clipitem>
				<transitionitem>
					<rate>
						<ntsc>FALSE</ntsc>
						<timebase>25</timebase>
					</rate>
					<start>19047</start>
					<end>19072</end>
					<alignment>center</alignment>
					<effect>
						<name>Cross Fade (+3dB)</name>
						<effectid>KGAudioTransCrossFade3dB</effectid>
						<effecttype>transition</effecttype>
						<mediatype>audio</mediatype>
					</effect>
				</transitionitem>
				<clipitem id="SCD083907.wav4">
					<name>SCD083907.wav</name>
					<duration>3522</duration>
					<rate>
						<ntsc>FALSE</ntsc>
						<timebase>25</timebase>
					</rate>
					<in>3171</in>
					<out>3522</out>
					<start>-1</start>
					<end>19398</end>
					<subframeoffset>0</subframeoffset>
					<masterclipid>SCD083907.wav1</masterclipid>
					<logginginfo>
						<scene/>
						<shottake/>
						<lognote/>
						<good>FALSE</good>
					</logginginfo>
					<labels>
						<label2/>
					</labels>
					<comments>
						<mastercomment1/>
						<mastercomment2/>
						<mastercomment3/>
						<mastercomment4/>
					</comments>
					<file id="SCD083907 "/>
					<filter>
						<effect>
							<name>Audio Levels</name>
							<effectid>audiolevels</effectid>
							<effectcategory>audiolevels</effectcategory>
							<effecttype>audiolevels</effecttype>
							<mediatype>audio</mediatype>
							<parameter>
								<name>Level</name>
								<parameterid>level</parameterid>
								<valuemin>0</valuemin>
								<valuemax>3.98109</valuemax>
								<value>0.112202</value>
							</parameter>
						</effect>
					</filter>
					<filter>
						<effect>
							<name>Audio Pan</name>
							<effectid>audiopan</effectid>
							<effectcategory>audiopan</effectcategory>
							<effecttype>audiopan</effecttype>
							<mediatype>audio</mediatype>
							<parameter>
								<name>Pan</name>
								<parameterid>pan</parameterid>
								<valuemin>-1</valuemin>
								<valuemax>1</valuemax>
								<value>1</value>
							</parameter>
						</effect>
					</filter>
					<sourcetrack>
						<mediatype>audio</mediatype>
						<trackindex>2</trackindex>
					</sourcetrack>
					<link>
						<linkclipref>SCD083907.wav3</linkclipref>
						<mediatype>audio</mediatype>
						<trackindex>7</trackindex>
						<clipindex>11</clipindex>
						<groupindex>1</groupindex>
					</link>
					<link>
						<linkclipref>SCD083907.wav4</linkclipref>
						<mediatype>audio</mediatype>
						<trackindex>8</trackindex>
						<clipindex>11</clipindex>
						<groupindex>1</groupindex>
					</link>
					<itemhistory>
						<uuid>AD6001B1-16BC-40FF-865D-98651CF83D52</uuid>
					</itemhistory>
				</clipitem>
				<enabled>TRUE</enabled>
				<locked>FALSE</locked>
				<outputchannelindex>2</outputchannelindex>
			</track>
			<track>
				<enabled>TRUE</enabled>
				<locked>FALSE</locked>
				<outputchannelindex>1</outputchannelindex>
			</track>
			<filter>
				<effect>
					<name>Audio Levels</name>
					<effectid>audiolevels</effectid>
					<effectcategory>audiolevels</effectcategory>
					<effecttype>audiolevels</effecttype>
					<mediatype>audio</mediatype>
					<parameter>
						<name>Level</name>
						<parameterid>level</parameterid>
						<valuemin>0</valuemin>
						<valuemax>3.98109</valuemax>
						<value>1</value>
					</parameter>
				</effect>
			</filter>
		</audio>
	</media>
	<ismasterclip>FALSE</ismasterclip>
	<labels>
		<label>Best Take</label>
	</labels>
</sequence>
</xmeml>


