<?xml version="1.0" encoding="UTF-8"?>
<!DOCTYPE xmeml>
<xmeml version="4">
	<sequence id="sequence-1" TL.SQAudioVisibleBase="184" TL.SQVideoVisibleBase="0" TL.SQVisibleBaseTime="0" TL.SQAVDividerPosition="0.364055305719" TL.SQHideShyTracks="0" TL.SQHeaderWidth="184" Monitor.ProgramZoomOut="1051585597440000" Monitor.ProgramZoomIn="0" TL.SQTimePerPixel="1.4816370041037255" AM.TrackVScrollPosition="0" AM.TrackScrollPosition="0" MZ.EditLine="0" MZ.Sequence.PreviewFrameSizeHeight="1080" MZ.Sequence.PreviewFrameSizeWidth="1920" MZ.Sequence.AudioTimeDisplayFormat="200" MZ.Sequence.PreviewRenderingClassID="1480868673" MZ.Sequence.PreviewRenderingPresetCodec="2019833187" MZ.Sequence.PreviewRenderingPresetPath="EncoderPresets/SequencePreview/44cf6a27-e791-427a-a544-97439b366abf/XDCAMHD 50 PAL.epr" MZ.Sequence.PreviewUseMaxRenderQuality="false" MZ.Sequence.PreviewUseMaxBitDepth="false" MZ.Sequence.EditingModeGUID="44cf6a27-e791-427a-a544-97439b366abf" MZ.Sequence.VideoTimeDisplayFormat="101" MZ.WorkOutPoint="1051585597440000" MZ.WorkInPoint="0" explodedTracks="true">
		<uuid>e1e98c59-e5a2-4b47-9885-af52fd5b1e17</uuid>
		<duration>103496</duration>
		<rate>
			<timebase>25</timebase>
			<ntsc>FALSE</ntsc>
		</rate>
		<in>0</in>
		<name>Helaften_del-1-MASTER-v3</name>
		<media>
			<video>
				<format>
					<samplecharacteristics>
						<rate>
							<timebase>25</timebase>
							<ntsc>FALSE</ntsc>
						</rate>
						<codec>
							<name>Apple ProRes 422</name>
							<appspecificdata>
								<appname>Final Cut Pro</appname>
								<appmanufacturer>Apple Inc.</appmanufacturer>
								<appversion>7.0</appversion>
								<data>
									<qtcodec>
										<codecname>Apple ProRes 422</codecname>
										<codectypename>Apple ProRes 422</codectypename>
										<codectypecode>apcn</codectypecode>
										<codecvendorcode>appl</codecvendorcode>
										<spatialquality>1024</spatialquality>
										<temporalquality>0</temporalquality>
										<keyframerate>0</keyframerate>
										<datarate>0</datarate>
									</qtcodec>
								</data>
							</appspecificdata>
						</codec>
						<width>1920</width>
						<height>1080</height>
						<anamorphic>FALSE</anamorphic>
						<pixelaspectratio>square</pixelaspectratio>
						<fielddominance>upper</fielddominance>
						<colordepth>24</colordepth>
					</samplecharacteristics>
				</format>
				<track TL.SQTrackShy="0" TL.SQTrackExpandedHeight="25" TL.SQTrackExpanded="1" MZ.TrackTargeted="1">
					<clipitem id="clipitem-1">
						<masterclipid>masterclip-1</masterclipid>
						<name>AA265201.MXF</name>
						<enabled>TRUE</enabled>
						<duration>384</duration>
						<rate>
							<timebase>25</timebase>
							<ntsc>FALSE</ntsc>
						</rate>
						<start>0</start>
						<end>109</end>
						<in>125</in>
						<out>234</out>
						<pproTicksIn>1270080000000</pproTicksIn>
						<pproTicksOut>2377589760000</pproTicksOut>
						<alphatype>none</alphatype>
						<pixelaspectratio>square</pixelaspectratio>
						<anamorphic>FALSE</anamorphic>
						<file id="file-1">
							<name>AA265201.MXF</name>
							<pathurl>file://localhost/Volumes/Vaagen/Utveksling/Natur/Naturlig%20helaften%20fra%20Oslo/Copied_Copy%20of%20En%20Helaften%20MASTER_003/AA265201.MXF</pathurl>
							<rate>
								<timebase>25</timebase>
								<ntsc>FALSE</ntsc>
							</rate>
							<duration>384</duration>
							<timecode>
								<rate>
									<timebase>25</timebase>
									<ntsc>FALSE</ntsc>
								</rate>
								<string>16:03:18:06</string>
								<frame>1444956</frame>
								<displayformat>NDF</displayformat>
								<reel>
									<name></name>
								</reel>
							</timecode>
							<media>
								<video>
									<samplecharacteristics>
										<rate>
											<timebase>25</timebase>
											<ntsc>FALSE</ntsc>
										</rate>
										<width>1920</width>
										<height>1080</height>
										<anamorphic>FALSE</anamorphic>
										<pixelaspectratio>square</pixelaspectratio>
										<fielddominance>none</fielddominance>
									</samplecharacteristics>
								</video>
								<audio>
									<samplecharacteristics>
										<depth>16</depth>
										<samplerate>48000</samplerate>
									</samplecharacteristics>
									<channelcount>2</channelcount>
								</audio>
							</media>
						</file>
						<link>
							<linkclipref>clipitem-1</linkclipref>
							<mediatype>video</mediatype>
							<trackindex>1</trackindex>
							<clipindex>1</clipindex>
						</link>
						<link>
							<linkclipref>clipitem-505</linkclipref>
							<mediatype>audio</mediatype>
							<trackindex>1</trackindex>
							<clipindex>1</clipindex>
							<groupindex>1</groupindex>
						</link>
						<link>
							<linkclipref>clipitem-586</linkclipref>
							<mediatype>audio</mediatype>
							<trackindex>2</trackindex>
							<clipindex>1</clipindex>
							<groupindex>1</groupindex>
						</link>
						<logginginfo>
							<description></description>
							<scene></scene>
							<shottake></shottake>
							<lognote></lognote>
						</logginginfo>
						<labels>
							<label2>Iris</label2>
						</labels>
					</clipitem>
					<clipitem id="clipitem-2">
						<masterclipid>masterclip-2</masterclipid>
						<name>AA265301.MXF</name>
						<enabled>TRUE</enabled>
						<duration>840</duration>
						<rate>
							<timebase>25</timebase>
							<ntsc>FALSE</ntsc>
						</rate>
						<start>109</start>
						<end>134</end>
						<in>0</in>
						<out>25</out>
						<pproTicksIn>0</pproTicksIn>
						<pproTicksOut>254016000000</pproTicksOut>
						<alphatype>none</alphatype>
						<pixelaspectratio>square</pixelaspectratio>
						<anamorphic>FALSE</anamorphic>
						<file id="file-2">
							<name>AA265301.MXF</name>
							<pathurl>file://localhost/Volumes/Vaagen/Utveksling/Natur/Naturlig%20helaften%20fra%20Oslo/Copied_Copy%20of%20En%20Helaften%20MASTER_003/AA265301.MXF</pathurl>
							<rate>
								<timebase>25</timebase>
								<ntsc>FALSE</ntsc>
							</rate>
							<duration>840</duration>
							<timecode>
								<rate>
									<timebase>25</timebase>
									<ntsc>FALSE</ntsc>
								</rate>
								<string>16:04:27:17</string>
								<frame>1446692</frame>
								<displayformat>NDF</displayformat>
								<reel>
									<name></name>
								</reel>
							</timecode>
							<media>
								<video>
									<samplecharacteristics>
										<rate>
											<timebase>25</timebase>
											<ntsc>FALSE</ntsc>
										</rate>
										<width>1920</width>
										<height>1080</height>
										<anamorphic>FALSE</anamorphic>
										<pixelaspectratio>square</pixelaspectratio>
										<fielddominance>none</fielddominance>
									</samplecharacteristics>
								</video>
								<audio>
									<samplecharacteristics>
										<depth>16</depth>
										<samplerate>48000</samplerate>
									</samplecharacteristics>
									<channelcount>2</channelcount>
								</audio>
							</media>
						</file>
						<link>
							<linkclipref>clipitem-2</linkclipref>
							<mediatype>video</mediatype>
							<trackindex>1</trackindex>
							<clipindex>2</clipindex>
						</link>
						<link>
							<linkclipref>clipitem-506</linkclipref>
							<mediatype>audio</mediatype>
							<trackindex>1</trackindex>
							<clipindex>2</clipindex>
							<groupindex>1</groupindex>
						</link>
						<link>
							<linkclipref>clipitem-587</linkclipref>
							<mediatype>audio</mediatype>
							<trackindex>2</trackindex>
							<clipindex>2</clipindex>
							<groupindex>1</groupindex>
						</link>
						<logginginfo>
							<description></description>
							<scene></scene>
							<shottake></shottake>
							<lognote></lognote>
						</logginginfo>
						<labels>
							<label2>Iris</label2>
						</labels>
					</clipitem>
					<clipitem id="clipitem-3">
						<masterclipid>masterclip-3</masterclipid>
						<name>AA264901.MXF</name>
						<enabled>TRUE</enabled>
						<duration>780</duration>
						<rate>
							<timebase>25</timebase>
							<ntsc>FALSE</ntsc>
						</rate>
						<start>134</start>
						<end>159</end>
						<in>0</in>
						<out>25</out>
						<pproTicksIn>0</pproTicksIn>
						<pproTicksOut>254016000000</pproTicksOut>
						<alphatype>none</alphatype>
						<pixelaspectratio>square</pixelaspectratio>
						<anamorphic>FALSE</anamorphic>
						<file id="file-3">
							<name>AA264901.MXF</name>
							<pathurl>file://localhost/Volumes/Vaagen/Utveksling/Natur/Naturlig%20helaften%20fra%20Oslo/Copied_Copy%20of%20En%20Helaften%20MASTER_003/AA264901.MXF</pathurl>
							<rate>
								<timebase>25</timebase>
								<ntsc>FALSE</ntsc>
							</rate>
							<duration>780</duration>
							<timecode>
								<rate>
									<timebase>25</timebase>
									<ntsc>FALSE</ntsc>
								</rate>
								<string>16:01:18:18</string>
								<frame>1441968</frame>
								<displayformat>NDF</displayformat>
								<reel>
									<name></name>
								</reel>
							</timecode>
							<media>
								<video>
									<samplecharacteristics>
										<rate>
											<timebase>25</timebase>
											<ntsc>FALSE</ntsc>
										</rate>
										<width>1920</width>
										<height>1080</height>
										<anamorphic>FALSE</anamorphic>
										<pixelaspectratio>square</pixelaspectratio>
										<fielddominance>none</fielddominance>
									</samplecharacteristics>
								</video>
								<audio>
									<samplecharacteristics>
										<depth>16</depth>
										<samplerate>48000</samplerate>
									</samplecharacteristics>
									<channelcount>2</channelcount>
								</audio>
							</media>
						</file>
						<link>
							<linkclipref>clipitem-3</linkclipref>
							<mediatype>video</mediatype>
							<trackindex>1</trackindex>
							<clipindex>3</clipindex>
						</link>
						<link>
							<linkclipref>clipitem-507</linkclipref>
							<mediatype>audio</mediatype>
							<trackindex>1</trackindex>
							<clipindex>3</clipindex>
							<groupindex>1</groupindex>
						</link>
						<link>
							<linkclipref>clipitem-588</linkclipref>
							<mediatype>audio</mediatype>
							<trackindex>2</trackindex>
							<clipindex>3</clipindex>
							<groupindex>1</groupindex>
						</link>
						<logginginfo>
							<description></description>
							<scene></scene>
							<shottake></shottake>
							<lognote></lognote>
						</logginginfo>
						<labels>
							<label2>Iris</label2>
						</labels>
					</clipitem>
					<clipitem id="clipitem-4">
						<masterclipid>masterclip-4</masterclipid>
						<name>AA264401.MXF</name>
						<enabled>TRUE</enabled>
						<duration>756</duration>
						<rate>
							<timebase>25</timebase>
							<ntsc>FALSE</ntsc>
						</rate>
						<start>159</start>
						<end>188</end>
						<in>355</in>
						<out>384</out>
						<pproTicksIn>3607027200000</pproTicksIn>
						<pproTicksOut>3901685760000</pproTicksOut>
						<alphatype>none</alphatype>
						<pixelaspectratio>square</pixelaspectratio>
						<anamorphic>FALSE</anamorphic>
						<file id="file-4">
							<name>AA264401.MXF</name>
							<pathurl>file://localhost/Volumes/Vaagen/Utveksling/Natur/Naturlig%20helaften%20fra%20Oslo/Copied_Copy%20of%20En%20Helaften%20MASTER_003/AA264401.MXF</pathurl>
							<rate>
								<timebase>25</timebase>
								<ntsc>FALSE</ntsc>
							</rate>
							<duration>756</duration>
							<timecode>
								<rate>
									<timebase>25</timebase>
									<ntsc>FALSE</ntsc>
								</rate>
								<string>15:14:16:23</string>
								<frame>1371423</frame>
								<displayformat>NDF</displayformat>
								<reel>
									<name></name>
								</reel>
							</timecode>
							<media>
								<video>
									<samplecharacteristics>
										<rate>
											<timebase>25</timebase>
											<ntsc>FALSE</ntsc>
										</rate>
										<width>1920</width>
										<height>1080</height>
										<anamorphic>FALSE</anamorphic>
										<pixelaspectratio>square</pixelaspectratio>
										<fielddominance>none</fielddominance>
									</samplecharacteristics>
								</video>
								<audio>
									<samplecharacteristics>
										<depth>16</depth>
										<samplerate>48000</samplerate>
									</samplecharacteristics>
									<channelcount>2</channelcount>
								</audio>
							</media>
						</file>
						<link>
							<linkclipref>clipitem-4</linkclipref>
							<mediatype>video</mediatype>
							<trackindex>1</trackindex>
							<clipindex>4</clipindex>
						</link>
						<link>
							<linkclipref>clipitem-508</linkclipref>
							<mediatype>audio</mediatype>
							<trackindex>1</trackindex>
							<clipindex>4</clipindex>
							<groupindex>1</groupindex>
						</link>
						<link>
							<linkclipref>clipitem-589</linkclipref>
							<mediatype>audio</mediatype>
							<trackindex>2</trackindex>
							<clipindex>4</clipindex>
							<groupindex>1</groupindex>
						</link>
						<logginginfo>
							<description></description>
							<scene></scene>
							<shottake></shottake>
							<lognote></lognote>
						</logginginfo>
						<labels>
							<label2>Iris</label2>
						</labels>
					</clipitem>
					<clipitem id="clipitem-5">
						<masterclipid>masterclip-5</masterclipid>
						<name>AA259301.MXF</name>
						<enabled>TRUE</enabled>
						<duration>2340</duration>
						<rate>
							<timebase>25</timebase>
							<ntsc>FALSE</ntsc>
						</rate>
						<start>188</start>
						<end>218</end>
						<in>490</in>
						<out>520</out>
						<pproTicksIn>4978713600000</pproTicksIn>
						<pproTicksOut>5283532800000</pproTicksOut>
						<alphatype>none</alphatype>
						<pixelaspectratio>square</pixelaspectratio>
						<anamorphic>FALSE</anamorphic>
						<file id="file-5">
							<name>AA259301.MXF</name>
							<pathurl>file://localhost/Volumes/Vaagen/Utveksling/Natur/Naturlig%20helaften%20fra%20Oslo/Copied_Copy%20of%20En%20Helaften%20MASTER_003/AA259301.MXF</pathurl>
							<rate>
								<timebase>25</timebase>
								<ntsc>FALSE</ntsc>
							</rate>
							<duration>2340</duration>
							<timecode>
								<rate>
									<timebase>25</timebase>
									<ntsc>FALSE</ntsc>
								</rate>
								<string>12:30:24:18</string>
								<frame>1125618</frame>
								<displayformat>NDF</displayformat>
								<reel>
									<name></name>
								</reel>
							</timecode>
							<media>
								<video>
									<samplecharacteristics>
										<rate>
											<timebase>25</timebase>
											<ntsc>FALSE</ntsc>
										</rate>
										<width>1920</width>
										<height>1080</height>
										<anamorphic>FALSE</anamorphic>
										<pixelaspectratio>square</pixelaspectratio>
										<fielddominance>none</fielddominance>
									</samplecharacteristics>
								</video>
								<audio>
									<samplecharacteristics>
										<depth>16</depth>
										<samplerate>48000</samplerate>
									</samplecharacteristics>
									<channelcount>2</channelcount>
								</audio>
							</media>
						</file>
						<link>
							<linkclipref>clipitem-5</linkclipref>
							<mediatype>video</mediatype>
							<trackindex>1</trackindex>
							<clipindex>5</clipindex>
						</link>
						<link>
							<linkclipref>clipitem-509</linkclipref>
							<mediatype>audio</mediatype>
							<trackindex>1</trackindex>
							<clipindex>5</clipindex>
							<groupindex>1</groupindex>
						</link>
						<link>
							<linkclipref>clipitem-590</linkclipref>
							<mediatype>audio</mediatype>
							<trackindex>2</trackindex>
							<clipindex>5</clipindex>
							<groupindex>1</groupindex>
						</link>
						<logginginfo>
							<description></description>
							<scene></scene>
							<shottake></shottake>
							<lognote></lognote>
						</logginginfo>
						<labels>
							<label2>Iris</label2>
						</labels>
					</clipitem>
					<clipitem id="clipitem-6">
						<masterclipid>masterclip-1</masterclipid>
						<name>AA265201.MXF</name>
						<enabled>TRUE</enabled>
						<duration>384</duration>
						<rate>
							<timebase>25</timebase>
							<ntsc>FALSE</ntsc>
						</rate>
						<start>218</start>
						<end>243</end>
						<in>304</in>
						<out>329</out>
						<pproTicksIn>3088834560000</pproTicksIn>
						<pproTicksOut>3342850560000</pproTicksOut>
						<alphatype>none</alphatype>
						<file id="file-1"/>
						<link>
							<linkclipref>clipitem-6</linkclipref>
							<mediatype>video</mediatype>
							<trackindex>1</trackindex>
							<clipindex>6</clipindex>
						</link>
						<link>
							<linkclipref>clipitem-510</linkclipref>
							<mediatype>audio</mediatype>
							<trackindex>1</trackindex>
							<clipindex>6</clipindex>
							<groupindex>1</groupindex>
						</link>
						<link>
							<linkclipref>clipitem-591</linkclipref>
							<mediatype>audio</mediatype>
							<trackindex>2</trackindex>
							<clipindex>6</clipindex>
							<groupindex>1</groupindex>
						</link>
						<logginginfo>
							<description></description>
							<scene></scene>
							<shottake></shottake>
							<lognote></lognote>
						</logginginfo>
						<labels>
							<label2>Iris</label2>
						</labels>
					</clipitem>
					<clipitem id="clipitem-7">
						<masterclipid>masterclip-6</masterclipid>
						<name>AA259401.MXF</name>
						<enabled>TRUE</enabled>
						<duration>708</duration>
						<rate>
							<timebase>25</timebase>
							<ntsc>FALSE</ntsc>
						</rate>
						<start>243</start>
						<end>272</end>
						<in>24</in>
						<out>53</out>
						<pproTicksIn>243855360000</pproTicksIn>
						<pproTicksOut>538513920000</pproTicksOut>
						<alphatype>none</alphatype>
						<pixelaspectratio>square</pixelaspectratio>
						<anamorphic>FALSE</anamorphic>
						<file id="file-6">
							<name>AA259401.MXF</name>
							<pathurl>file://localhost/Volumes/Vaagen/Utveksling/Natur/Naturlig%20helaften%20fra%20Oslo/Copied_Copy%20of%20En%20Helaften%20MASTER_003/AA259401.MXF</pathurl>
							<rate>
								<timebase>25</timebase>
								<ntsc>FALSE</ntsc>
							</rate>
							<duration>708</duration>
							<timecode>
								<rate>
									<timebase>25</timebase>
									<ntsc>FALSE</ntsc>
								</rate>
								<string>12:52:19:08</string>
								<frame>1158483</frame>
								<displayformat>NDF</displayformat>
								<reel>
									<name></name>
								</reel>
							</timecode>
							<media>
								<video>
									<samplecharacteristics>
										<rate>
											<timebase>25</timebase>
											<ntsc>FALSE</ntsc>
										</rate>
										<width>1920</width>
										<height>1080</height>
										<anamorphic>FALSE</anamorphic>
										<pixelaspectratio>square</pixelaspectratio>
										<fielddominance>none</fielddominance>
									</samplecharacteristics>
								</video>
								<audio>
									<samplecharacteristics>
										<depth>16</depth>
										<samplerate>48000</samplerate>
									</samplecharacteristics>
									<channelcount>2</channelcount>
								</audio>
							</media>
						</file>
						<link>
							<linkclipref>clipitem-7</linkclipref>
							<mediatype>video</mediatype>
							<trackindex>1</trackindex>
							<clipindex>7</clipindex>
						</link>
						<link>
							<linkclipref>clipitem-511</linkclipref>
							<mediatype>audio</mediatype>
							<trackindex>1</trackindex>
							<clipindex>7</clipindex>
							<groupindex>1</groupindex>
						</link>
						<link>
							<linkclipref>clipitem-592</linkclipref>
							<mediatype>audio</mediatype>
							<trackindex>2</trackindex>
							<clipindex>7</clipindex>
							<groupindex>1</groupindex>
						</link>
						<logginginfo>
							<description></description>
							<scene></scene>
							<shottake></shottake>
							<lognote></lognote>
						</logginginfo>
						<labels>
							<label2>Iris</label2>
						</labels>
					</clipitem>
					<clipitem id="clipitem-8">
						<masterclipid>masterclip-7</masterclipid>
						<name>AA264301.MXF</name>
						<enabled>TRUE</enabled>
						<duration>648</duration>
						<rate>
							<timebase>25</timebase>
							<ntsc>FALSE</ntsc>
						</rate>
						<start>272</start>
						<end>301</end>
						<in>0</in>
						<out>29</out>
						<pproTicksIn>0</pproTicksIn>
						<pproTicksOut>294658560000</pproTicksOut>
						<alphatype>none</alphatype>
						<pixelaspectratio>square</pixelaspectratio>
						<anamorphic>FALSE</anamorphic>
						<file id="file-7">
							<name>AA264301.MXF</name>
							<pathurl>file://localhost/Volumes/Vaagen/Utveksling/Natur/Naturlig%20helaften%20fra%20Oslo/Copied_Copy%20of%20En%20Helaften%20MASTER_003/AA264301.MXF</pathurl>
							<rate>
								<timebase>25</timebase>
								<ntsc>FALSE</ntsc>
							</rate>
							<duration>648</duration>
							<timecode>
								<rate>
									<timebase>25</timebase>
									<ntsc>FALSE</ntsc>
								</rate>
								<string>15:12:14:18</string>
								<frame>1368368</frame>
								<displayformat>NDF</displayformat>
								<reel>
									<name></name>
								</reel>
							</timecode>
							<media>
								<video>
									<samplecharacteristics>
										<rate>
											<timebase>25</timebase>
											<ntsc>FALSE</ntsc>
										</rate>
										<width>1920</width>
										<height>1080</height>
										<anamorphic>FALSE</anamorphic>
										<pixelaspectratio>square</pixelaspectratio>
										<fielddominance>none</fielddominance>
									</samplecharacteristics>
								</video>
								<audio>
									<samplecharacteristics>
										<depth>16</depth>
										<samplerate>48000</samplerate>
									</samplecharacteristics>
									<channelcount>2</channelcount>
								</audio>
							</media>
						</file>
						<link>
							<linkclipref>clipitem-8</linkclipref>
							<mediatype>video</mediatype>
							<trackindex>1</trackindex>
							<clipindex>8</clipindex>
						</link>
						<link>
							<linkclipref>clipitem-512</linkclipref>
							<mediatype>audio</mediatype>
							<trackindex>1</trackindex>
							<clipindex>8</clipindex>
							<groupindex>1</groupindex>
						</link>
						<link>
							<linkclipref>clipitem-593</linkclipref>
							<mediatype>audio</mediatype>
							<trackindex>2</trackindex>
							<clipindex>8</clipindex>
							<groupindex>1</groupindex>
						</link>
						<logginginfo>
							<description></description>
							<scene></scene>
							<shottake></shottake>
							<lognote></lognote>
						</logginginfo>
						<labels>
							<label2>Iris</label2>
						</labels>
					</clipitem>
					<clipitem id="clipitem-9">
						<masterclipid>masterclip-8</masterclipid>
						<name>AA259701.MXF</name>
						<enabled>TRUE</enabled>
						<duration>300</duration>
						<rate>
							<timebase>25</timebase>
							<ntsc>FALSE</ntsc>
						</rate>
						<start>301</start>
						<end>409</end>
						<in>29</in>
						<out>137</out>
						<pproTicksIn>294658560000</pproTicksIn>
						<pproTicksOut>1392007680000</pproTicksOut>
						<alphatype>none</alphatype>
						<pixelaspectratio>square</pixelaspectratio>
						<anamorphic>FALSE</anamorphic>
						<file id="file-8">
							<name>AA259701.MXF</name>
							<pathurl>file://localhost/Volumes/Vaagen/Utveksling/Natur/Naturlig%20helaften%20fra%20Oslo/Copied_Copy%20of%20En%20Helaften%20MASTER_003/AA259701.MXF</pathurl>
							<rate>
								<timebase>25</timebase>
								<ntsc>FALSE</ntsc>
							</rate>
							<duration>300</duration>
							<timecode>
								<rate>
									<timebase>25</timebase>
									<ntsc>FALSE</ntsc>
								</rate>
								<string>12:55:11:18</string>
								<frame>1162793</frame>
								<displayformat>NDF</displayformat>
								<reel>
									<name></name>
								</reel>
							</timecode>
							<media>
								<video>
									<samplecharacteristics>
										<rate>
											<timebase>25</timebase>
											<ntsc>FALSE</ntsc>
										</rate>
										<width>1920</width>
										<height>1080</height>
										<anamorphic>FALSE</anamorphic>
										<pixelaspectratio>square</pixelaspectratio>
										<fielddominance>none</fielddominance>
									</samplecharacteristics>
								</video>
								<audio>
									<samplecharacteristics>
										<depth>16</depth>
										<samplerate>48000</samplerate>
									</samplecharacteristics>
									<channelcount>2</channelcount>
								</audio>
							</media>
						</file>
						<link>
							<linkclipref>clipitem-9</linkclipref>
							<mediatype>video</mediatype>
							<trackindex>1</trackindex>
							<clipindex>9</clipindex>
						</link>
						<link>
							<linkclipref>clipitem-513</linkclipref>
							<mediatype>audio</mediatype>
							<trackindex>1</trackindex>
							<clipindex>9</clipindex>
							<groupindex>1</groupindex>
						</link>
						<link>
							<linkclipref>clipitem-594</linkclipref>
							<mediatype>audio</mediatype>
							<trackindex>2</trackindex>
							<clipindex>9</clipindex>
							<groupindex>1</groupindex>
						</link>
						<logginginfo>
							<description></description>
							<scene></scene>
							<shottake></shottake>
							<lognote></lognote>
						</logginginfo>
						<labels>
							<label2>Iris</label2>
						</labels>
					</clipitem>
					<clipitem id="clipitem-10">
						<masterclipid>masterclip-9</masterclipid>
						<name>GOPR9723.MP4</name>
						<enabled>TRUE</enabled>
						<duration>397</duration>
						<rate>
							<timebase>25</timebase>
							<ntsc>FALSE</ntsc>
						</rate>
						<start>409</start>
						<end>435</end>
						<in>25</in>
						<out>51</out>
						<pproTicksIn>772208640000</pproTicksIn>
						<pproTicksOut>1564738560000</pproTicksOut>
						<alphatype>black</alphatype>
						<pixelaspectratio>square</pixelaspectratio>
						<anamorphic>FALSE</anamorphic>
						<file id="file-9">
							<name>GOPR9723.MP4</name>
							<pathurl>file://localhost/Volumes/Vaagen/Utveksling/Natur/Naturlig%20helaften%20fra%20Oslo/Copied_Copy%20of%20En%20Helaften%20MASTER_003/GOPR9723.MP4</pathurl>
							<rate>
								<timebase>25</timebase>
								<ntsc>FALSE</ntsc>
							</rate>
							<duration>1191</duration>
							<timecode>
								<rate>
									<timebase>25</timebase>
									<ntsc>FALSE</ntsc>
								</rate>
								<string>19:14:08:06</string>
								<frame>1731206</frame>
								<displayformat>NDF</displayformat>
								<reel>
									<name></name>
								</reel>
							</timecode>
							<media>
								<video>
									<samplecharacteristics>
										<rate>
											<timebase>25</timebase>
											<ntsc>FALSE</ntsc>
										</rate>
										<width>1920</width>
										<height>1080</height>
										<anamorphic>FALSE</anamorphic>
										<pixelaspectratio>square</pixelaspectratio>
										<fielddominance>none</fielddominance>
									</samplecharacteristics>
								</video>
								<audio>
									<samplecharacteristics>
										<depth>16</depth>
										<samplerate>48000</samplerate>
									</samplecharacteristics>
									<channelcount>2</channelcount>
								</audio>
							</media>
						</file>
							<filter>
								<effect>
									<name>Time Remap</name>
									<effectid>timeremap</effectid>
									<effectcategory>motion</effectcategory>
									<effecttype>motion</effecttype>
									<mediatype>video</mediatype>
									<parameter authoringApp="PremierePro">
										<parameterid>variablespeed</parameterid>
										<name>variablespeed</name>
										<valuemin>0</valuemin>
										<valuemax>1</valuemax>
										<value>0</value>
									</parameter>
									<parameter authoringApp="PremierePro">
										<parameterid>speed</parameterid>
										<name>speed</name>
										<valuemin>-100000</valuemin>
										<valuemax>100000</valuemax>
										<value>300</value>
									</parameter>
									<parameter authoringApp="PremierePro">
										<parameterid>reverse</parameterid>
										<name>reverse</name>
										<value>FALSE</value>
									</parameter>
									<parameter authoringApp="PremierePro">
										<parameterid>frameblending</parameterid>
										<name>frameblending</name>
										<value>FALSE</value>
									</parameter>
									<parameter authoringApp="PremierePro">
										<parameterid>graphdict</parameterid>
										<name>graphdict</name>
										<valuemin>0</valuemin>
										<valuemax>1191</valuemax>
										<value>0</value>
										<keyframe>
											<when>0</when>
											<value>0</value>
											<speedvirtualkf>TRUE</speedvirtualkf>
											<speedkfstart>TRUE</speedkfstart>
										</keyframe>
										<keyframe>
											<when>25</when>
											<value>75</value>
											<speedvirtualkf>TRUE</speedvirtualkf>
											<speedkfin>TRUE</speedkfin>
										</keyframe>
										<keyframe>
											<when>51</when>
											<value>153</value>
											<speedvirtualkf>TRUE</speedvirtualkf>
											<speedkfout>TRUE</speedkfout>
										</keyframe>
										<keyframe>
											<when>397</when>
											<value>1191</value>
											<speedvirtualkf>TRUE</speedvirtualkf>
											<speedkfend>TRUE</speedkfend>
										</keyframe>
										<interpolation>
											<name>FCPCurve</name>
										</interpolation>
									</parameter>
								</effect>
							</filter>
						<link>
							<linkclipref>clipitem-10</linkclipref>
							<mediatype>video</mediatype>
							<trackindex>1</trackindex>
							<clipindex>10</clipindex>
						</link>
						<link>
							<linkclipref>clipitem-514</linkclipref>
							<mediatype>audio</mediatype>
							<trackindex>1</trackindex>
							<clipindex>10</clipindex>
							<groupindex>1</groupindex>
						</link>
						<link>
							<linkclipref>clipitem-595</linkclipref>
							<mediatype>audio</mediatype>
							<trackindex>2</trackindex>
							<clipindex>10</clipindex>
							<groupindex>1</groupindex>
						</link>
						<logginginfo>
							<description></description>
							<scene></scene>
							<shottake></shottake>
							<lognote></lognote>
						</logginginfo>
						<labels>
							<label2>Iris</label2>
						</labels>
					</clipitem>
					<clipitem id="clipitem-11">
						<masterclipid>masterclip-10</masterclipid>
						<name>AA260901.MXF</name>
						<enabled>TRUE</enabled>
						<duration>1164</duration>
						<rate>
							<timebase>25</timebase>
							<ntsc>FALSE</ntsc>
						</rate>
						<start>435</start>
						<end>486</end>
						<in>144</in>
						<out>195</out>
						<pproTicksIn>1463132160000</pproTicksIn>
						<pproTicksOut>1981324800000</pproTicksOut>
						<alphatype>none</alphatype>
						<pixelaspectratio>square</pixelaspectratio>
						<anamorphic>FALSE</anamorphic>
						<file id="file-10">
							<name>AA260901.MXF</name>
							<pathurl>file://localhost/Volumes/Vaagen/Utveksling/Natur/Naturlig%20helaften%20fra%20Oslo/Copied_Copy%20of%20En%20Helaften%20MASTER_003/AA260901.MXF</pathurl>
							<rate>
								<timebase>25</timebase>
								<ntsc>FALSE</ntsc>
							</rate>
							<duration>1164</duration>
							<timecode>
								<rate>
									<timebase>25</timebase>
									<ntsc>FALSE</ntsc>
								</rate>
								<string>13:30:42:01</string>
								<frame>1216051</frame>
								<displayformat>NDF</displayformat>
								<reel>
									<name></name>
								</reel>
							</timecode>
							<media>
								<video>
									<samplecharacteristics>
										<rate>
											<timebase>25</timebase>
											<ntsc>FALSE</ntsc>
										</rate>
										<width>1920</width>
										<height>1080</height>
										<anamorphic>FALSE</anamorphic>
										<pixelaspectratio>square</pixelaspectratio>
										<fielddominance>none</fielddominance>
									</samplecharacteristics>
								</video>
								<audio>
									<samplecharacteristics>
										<depth>16</depth>
										<samplerate>48000</samplerate>
									</samplecharacteristics>
									<channelcount>2</channelcount>
								</audio>
							</media>
						</file>
						<link>
							<linkclipref>clipitem-11</linkclipref>
							<mediatype>video</mediatype>
							<trackindex>1</trackindex>
							<clipindex>11</clipindex>
						</link>
						<link>
							<linkclipref>clipitem-721</linkclipref>
							<mediatype>audio</mediatype>
							<trackindex>8</trackindex>
							<clipindex>1</clipindex>
							<groupindex>1</groupindex>
						</link>
						<link>
							<linkclipref>clipitem-817</linkclipref>
							<mediatype>audio</mediatype>
							<trackindex>9</trackindex>
							<clipindex>1</clipindex>
							<groupindex>1</groupindex>
						</link>
						<logginginfo>
							<description></description>
							<scene></scene>
							<shottake></shottake>
							<lognote></lognote>
						</logginginfo>
						<labels>
							<label2>Iris</label2>
						</labels>
					</clipitem>
					<clipitem id="clipitem-12">
						<masterclipid>masterclip-10</masterclipid>
						<name>AA260901.MXF</name>
						<enabled>TRUE</enabled>
						<duration>1164</duration>
						<rate>
							<timebase>25</timebase>
							<ntsc>FALSE</ntsc>
						</rate>
						<start>557</start>
						<end>854</end>
						<in>195</in>
						<out>492</out>
						<pproTicksIn>1981324800000</pproTicksIn>
						<pproTicksOut>4999034880000</pproTicksOut>
						<alphatype>none</alphatype>
						<file id="file-10"/>
						<logginginfo>
							<description></description>
							<scene></scene>
							<shottake></shottake>
							<lognote></lognote>
						</logginginfo>
						<labels>
							<label2>Iris</label2>
						</labels>
					</clipitem>
					<clipitem id="clipitem-13">
						<masterclipid>masterclip-10</masterclipid>
						<name>AA260901.MXF</name>
						<enabled>TRUE</enabled>
						<duration>1164</duration>
						<rate>
							<timebase>25</timebase>
							<ntsc>FALSE</ntsc>
						</rate>
						<start>854</start>
						<end>1203</end>
						<in>659</in>
						<out>1008</out>
						<pproTicksIn>6695861760000</pproTicksIn>
						<pproTicksOut>10241925120000</pproTicksOut>
						<alphatype>none</alphatype>
						<file id="file-10"/>
						<logginginfo>
							<description></description>
							<scene></scene>
							<shottake></shottake>
							<lognote></lognote>
						</logginginfo>
						<labels>
							<label2>Iris</label2>
						</labels>
					</clipitem>
					<clipitem id="clipitem-14">
						<masterclipid>masterclip-11</masterclipid>
						<name>OWH Master 161123_.mov</name>
						<enabled>TRUE</enabled>
						<duration>86750</duration>
						<rate>
							<timebase>25</timebase>
							<ntsc>FALSE</ntsc>
						</rate>
						<start>1203</start>
						<end>1608</end>
						<in>24456</in>
						<out>24861</out>
						<pproTicksIn>248488611840000</pproTicksIn>
						<pproTicksOut>252603671040000</pproTicksOut>
						<alphatype>none</alphatype>
						<pixelaspectratio>square</pixelaspectratio>
						<anamorphic>FALSE</anamorphic>
						<file id="file-11">
							<name>OWH Master 161123_.mov</name>
							<pathurl>file://localhost/Volumes/Svartediket/Prosjekter/DVNA600216_HELAFTEN2016_FAL_010217/Video/OWH%20Master%20161123_.mov</pathurl>
							<rate>
								<timebase>25</timebase>
								<ntsc>FALSE</ntsc>
							</rate>
							<duration>86750</duration>
							<timecode>
								<rate>
									<timebase>25</timebase>
									<ntsc>FALSE</ntsc>
								</rate>
								<string>00:00:00:00</string>
								<frame>0</frame>
								<displayformat>NDF</displayformat>
								<reel>
									<name>City</name>
								</reel>
							</timecode>
							<media>
								<video>
									<samplecharacteristics>
										<rate>
											<timebase>25</timebase>
											<ntsc>FALSE</ntsc>
										</rate>
										<width>1920</width>
										<height>1080</height>
										<anamorphic>FALSE</anamorphic>
										<pixelaspectratio>square</pixelaspectratio>
										<fielddominance>none</fielddominance>
									</samplecharacteristics>
								</video>
								<audio>
									<samplecharacteristics>
										<depth>16</depth>
										<samplerate>48000</samplerate>
									</samplecharacteristics>
									<channelcount>2</channelcount>
								</audio>
							</media>
						</file>
						<link>
							<linkclipref>clipitem-14</linkclipref>
							<mediatype>video</mediatype>
							<trackindex>1</trackindex>
							<clipindex>14</clipindex>
						</link>
						<link>
							<linkclipref>clipitem-1420</linkclipref>
							<mediatype>audio</mediatype>
							<trackindex>16</trackindex>
							<clipindex>1</clipindex>
							<groupindex>1</groupindex>
						</link>
						<link>
							<linkclipref>clipitem-1448</linkclipref>
							<mediatype>audio</mediatype>
							<trackindex>17</trackindex>
							<clipindex>1</clipindex>
							<groupindex>1</groupindex>
						</link>
						<logginginfo>
							<description></description>
							<scene></scene>
							<shottake></shottake>
							<lognote></lognote>
						</logginginfo>
						<labels>
							<label2>Iris</label2>
						</labels>
					</clipitem>
					<clipitem id="clipitem-15">
						<masterclipid>masterclip-11</masterclipid>
						<name>OWH Master 161123_.mov</name>
						<enabled>TRUE</enabled>
						<duration>86750</duration>
						<rate>
							<timebase>25</timebase>
							<ntsc>FALSE</ntsc>
						</rate>
						<start>1630</start>
						<end>1811</end>
						<in>25031</in>
						<out>25212</out>
						<pproTicksIn>254330979840000</pproTicksIn>
						<pproTicksOut>256170055680000</pproTicksOut>
						<alphatype>none</alphatype>
						<file id="file-11"/>
						<link>
							<linkclipref>clipitem-15</linkclipref>
							<mediatype>video</mediatype>
							<trackindex>1</trackindex>
							<clipindex>15</clipindex>
						</link>
						<link>
							<linkclipref>clipitem-1357</linkclipref>
							<mediatype>audio</mediatype>
							<trackindex>14</trackindex>
							<clipindex>2</clipindex>
							<groupindex>1</groupindex>
						</link>
						<link>
							<linkclipref>clipitem-1389</linkclipref>
							<mediatype>audio</mediatype>
							<trackindex>15</trackindex>
							<clipindex>2</clipindex>
							<groupindex>1</groupindex>
						</link>
						<logginginfo>
							<description></description>
							<scene></scene>
							<shottake></shottake>
							<lognote></lognote>
						</logginginfo>
						<labels>
							<label2>Iris</label2>
						</labels>
					</clipitem>
					<clipitem id="clipitem-16">
						<masterclipid>masterclip-12</masterclipid>
						<name>NRK2-300616 (1).mxf</name>
						<enabled>TRUE</enabled>
						<duration>183000</duration>
						<rate>
							<timebase>25</timebase>
							<ntsc>FALSE</ntsc>
						</rate>
						<start>1935</start>
						<end>2006</end>
						<in>76525</in>
						<out>76596</out>
						<pproTicksIn>777542976000000</pproTicksIn>
						<pproTicksOut>778264381440000</pproTicksOut>
						<alphatype>none</alphatype>
						<pixelaspectratio>square</pixelaspectratio>
						<anamorphic>FALSE</anamorphic>
						<file id="file-12">
							<name>DVNA25001316AU.mxf</name>
							<pathurl>file://localhost/Volumes/Vaagen/Prosjekter/DVNA210116_Horn%c3%b8ya_Nordvisjonen_010317_TGP/Horn%c3%b8ya%20Trond/NRK2sendinger/DVNA25001316AU.mxf</pathurl>
							<rate>
								<timebase>25</timebase>
								<ntsc>FALSE</ntsc>
							</rate>
							<duration>183000</duration>
							<timecode>
								<rate>
									<timebase>25</timebase>
									<ntsc>FALSE</ntsc>
								</rate>
								<string>21:59:00:00</string>
								<frame>1978500</frame>
								<displayformat>NDF</displayformat>
								<reel>
									<name></name>
								</reel>
							</timecode>
							<media>
								<video>
									<samplecharacteristics>
										<rate>
											<timebase>25</timebase>
											<ntsc>FALSE</ntsc>
										</rate>
										<width>1920</width>
										<height>1080</height>
										<anamorphic>FALSE</anamorphic>
										<pixelaspectratio>square</pixelaspectratio>
										<fielddominance>upper</fielddominance>
									</samplecharacteristics>
								</video>
								<audio>
									<samplecharacteristics>
										<depth>16</depth>
										<samplerate>48000</samplerate>
									</samplecharacteristics>
									<channelcount>2</channelcount>
								</audio>
								<audio>
									<samplecharacteristics>
										<depth>16</depth>
										<samplerate>48000</samplerate>
									</samplecharacteristics>
									<channelcount>2</channelcount>
								</audio>
								<audio>
									<samplecharacteristics>
										<depth>16</depth>
										<samplerate>48000</samplerate>
									</samplecharacteristics>
									<channelcount>2</channelcount>
								</audio>
							</media>
						</file>
						<logginginfo>
							<description>Program 13</description>
							<scene></scene>
							<shottake></shottake>
							<lognote></lognote>
						</logginginfo>
						<labels>
							<label2>Iris</label2>
						</labels>
					</clipitem>
					<clipitem id="clipitem-17">
						<masterclipid>masterclip-13</masterclipid>
						<name>Nordvisjon3MASTER i-lyd.mxf</name>
						<enabled>TRUE</enabled>
						<duration>712</duration>
						<rate>
							<timebase>25</timebase>
							<ntsc>FALSE</ntsc>
						</rate>
						<start>2006</start>
						<end>2122</end>
						<in>251</in>
						<out>367</out>
						<pproTicksIn>2550320640000</pproTicksIn>
						<pproTicksOut>3728954880000</pproTicksOut>
						<alphatype>none</alphatype>
						<pixelaspectratio>square</pixelaspectratio>
						<anamorphic>FALSE</anamorphic>
						<file id="file-13">
							<name>Nordvisjon3MASTER i-lyd_010.mxf</name>
							<pathurl>file://localhost/Volumes/Vaagen/Utveksling/Natur/Naturlig%20helaften%20fra%20Oslo/Transcoded_Nedklipp%20helaften/Nordvisjon3MASTER%20i-lyd_010.mxf</pathurl>
							<rate>
								<timebase>25</timebase>
								<ntsc>FALSE</ntsc>
							</rate>
							<duration>712</duration>
							<timecode>
								<rate>
									<timebase>25</timebase>
									<ntsc>FALSE</ntsc>
								</rate>
								<string>00:27:11:24</string>
								<frame>40799</frame>
								<displayformat>NDF</displayformat>
								<reel>
									<name></name>
								</reel>
							</timecode>
							<media>
								<video>
									<samplecharacteristics>
										<rate>
											<timebase>25</timebase>
											<ntsc>FALSE</ntsc>
										</rate>
										<width>1920</width>
										<height>1080</height>
										<anamorphic>FALSE</anamorphic>
										<pixelaspectratio>square</pixelaspectratio>
										<fielddominance>upper</fielddominance>
									</samplecharacteristics>
								</video>
								<audio>
									<samplecharacteristics>
										<depth>16</depth>
										<samplerate>48000</samplerate>
									</samplecharacteristics>
									<channelcount>2</channelcount>
								</audio>
							</media>
						</file>
						<logginginfo>
							<description></description>
							<scene></scene>
							<shottake></shottake>
							<lognote></lognote>
						</logginginfo>
						<labels>
							<label2>Iris</label2>
						</labels>
					</clipitem>
					<clipitem id="clipitem-18">
						<masterclipid>masterclip-14</masterclipid>
						<name>dvna60001113b-p01-211116r</name>
						<enabled>TRUE</enabled>
						<duration>2868</duration>
						<rate>
							<timebase>25</timebase>
							<ntsc>FALSE</ntsc>
						</rate>
						<start>2211</start>
						<end>2285</end>
						<in>2189</in>
						<out>2263</out>
						<pproTicksIn>22241640960000</pproTicksIn>
						<pproTicksOut>22993528320000</pproTicksOut>
						<alphatype>none</alphatype>
						<pixelaspectratio>square</pixelaspectratio>
						<anamorphic>FALSE</anamorphic>
						<file id="file-14">
							<name>dvna60001113b-p01-211116r.mxf</name>
							<pathurl>file://localhost/Volumes/omfs/clip.dir/MXF/1080i/dvna60001113b-p01-211116r.mxf</pathurl>
							<rate>
								<timebase>25</timebase>
								<ntsc>FALSE</ntsc>
							</rate>
							<duration>2868</duration>
							<timecode>
								<rate>
									<timebase>25</timebase>
									<ntsc>FALSE</ntsc>
								</rate>
								<string>03:25:50:17</string>
								<frame>308767</frame>
								<displayformat>NDF</displayformat>
								<reel>
									<name>\\NDHO\Omn\E\L\03\71</name>
								</reel>
							</timecode>
							<media>
								<video>
									<samplecharacteristics>
										<rate>
											<timebase>25</timebase>
											<ntsc>FALSE</ntsc>
										</rate>
										<width>1920</width>
										<height>1080</height>
										<anamorphic>FALSE</anamorphic>
										<pixelaspectratio>square</pixelaspectratio>
										<fielddominance>upper</fielddominance>
									</samplecharacteristics>
								</video>
								<audio>
									<samplecharacteristics>
										<depth>16</depth>
										<samplerate>48000</samplerate>
									</samplecharacteristics>
									<channelcount>2</channelcount>
								</audio>
								<audio>
									<samplecharacteristics>
										<depth>16</depth>
										<samplerate>48000</samplerate>
									</samplecharacteristics>
									<channelcount>2</channelcount>
								</audio>
								<audio>
									<samplecharacteristics>
										<depth>16</depth>
										<samplerate>48000</samplerate>
									</samplecharacteristics>
									<channelcount>2</channelcount>
								</audio>
							</media>
						</file>
						<logginginfo>
							<description>dvna60001113b-p01-211116r</description>
							<scene></scene>
							<shottake></shottake>
							<lognote></lognote>
						</logginginfo>
						<labels>
							<label2>Iris</label2>
						</labels>
					</clipitem>
					<clipitem id="clipitem-19">
						<masterclipid>masterclip-14</masterclipid>
						<name>dvna60001113b-p01-211116r</name>
						<enabled>TRUE</enabled>
						<duration>2868</duration>
						<rate>
							<timebase>25</timebase>
							<ntsc>FALSE</ntsc>
						</rate>
						<start>2285</start>
						<end>2451</end>
						<in>2483</in>
						<out>2649</out>
						<pproTicksIn>25228869120000</pproTicksIn>
						<pproTicksOut>26915535360000</pproTicksOut>
						<alphatype>none</alphatype>
						<file id="file-14"/>
						<logginginfo>
							<description>dvna60001113b-p01-211116r</description>
							<scene></scene>
							<shottake></shottake>
							<lognote></lognote>
						</logginginfo>
						<labels>
							<label2>Iris</label2>
						</labels>
					</clipitem>
					<clipitem id="clipitem-20">
						<masterclipid>masterclip-15</masterclipid>
						<name>AA261301.MXF</name>
						<enabled>TRUE</enabled>
						<duration>1020</duration>
						<rate>
							<timebase>25</timebase>
							<ntsc>FALSE</ntsc>
						</rate>
						<start>2451</start>
						<end>2658</end>
						<in>367</in>
						<out>574</out>
						<pproTicksIn>3728954880000</pproTicksIn>
						<pproTicksOut>5832207360000</pproTicksOut>
						<alphatype>none</alphatype>
						<pixelaspectratio>square</pixelaspectratio>
						<anamorphic>FALSE</anamorphic>
						<file id="file-15">
							<name>AA261301.MXF</name>
							<pathurl>file://localhost/Volumes/Vaagen/Utveksling/Natur/Naturlig%20helaften%20fra%20Oslo/Copied_Copy%20of%20En%20Helaften%20MASTER_003/AA261301.MXF</pathurl>
							<rate>
								<timebase>25</timebase>
								<ntsc>FALSE</ntsc>
							</rate>
							<duration>1020</duration>
							<timecode>
								<rate>
									<timebase>25</timebase>
									<ntsc>FALSE</ntsc>
								</rate>
								<string>13:39:50:22</string>
								<frame>1229772</frame>
								<displayformat>NDF</displayformat>
								<reel>
									<name></name>
								</reel>
							</timecode>
							<media>
								<video>
									<samplecharacteristics>
										<rate>
											<timebase>25</timebase>
											<ntsc>FALSE</ntsc>
										</rate>
										<width>1920</width>
										<height>1080</height>
										<anamorphic>FALSE</anamorphic>
										<pixelaspectratio>square</pixelaspectratio>
										<fielddominance>none</fielddominance>
									</samplecharacteristics>
								</video>
								<audio>
									<samplecharacteristics>
										<depth>16</depth>
										<samplerate>48000</samplerate>
									</samplecharacteristics>
									<channelcount>2</channelcount>
								</audio>
							</media>
						</file>
						<logginginfo>
							<description></description>
							<scene></scene>
							<shottake></shottake>
							<lognote></lognote>
						</logginginfo>
						<labels>
							<label2>Iris</label2>
						</labels>
					</clipitem>
					<clipitem id="clipitem-21">
						<masterclipid>masterclip-16</masterclipid>
						<name>DVNA21002215AA</name>
						<enabled>TRUE</enabled>
						<duration>57688</duration>
						<rate>
							<timebase>25</timebase>
							<ntsc>FALSE</ntsc>
						</rate>
						<start>2770</start>
						<end>2854</end>
						<in>7351</in>
						<out>7435</out>
						<pproTicksIn>74690864640000</pproTicksIn>
						<pproTicksOut>75544358400000</pproTicksOut>
						<alphatype>none</alphatype>
						<pixelaspectratio>square</pixelaspectratio>
						<anamorphic>FALSE</anamorphic>
						<file id="file-16">
							<name>DVNA21002215AA.mxf</name>
							<pathurl>file://localhost/Volumes/omfs/clip.dir/MXF/1080i/DVNA21002215AA.mxf</pathurl>
							<rate>
								<timebase>25</timebase>
								<ntsc>FALSE</ntsc>
							</rate>
							<duration>57688</duration>
							<timecode>
								<rate>
									<timebase>25</timebase>
									<ntsc>FALSE</ntsc>
								</rate>
								<string>00:00:00:00</string>
								<frame>0</frame>
								<displayformat>NDF</displayformat>
								<reel>
									<name>\\NDHO\Omn\E\K\15\02</name>
								</reel>
							</timecode>
							<media>
								<video>
									<samplecharacteristics>
										<rate>
											<timebase>25</timebase>
											<ntsc>FALSE</ntsc>
										</rate>
										<width>1920</width>
										<height>1080</height>
										<anamorphic>FALSE</anamorphic>
										<pixelaspectratio>square</pixelaspectratio>
										<fielddominance>upper</fielddominance>
									</samplecharacteristics>
								</video>
								<audio>
									<samplecharacteristics>
										<depth>16</depth>
										<samplerate>48000</samplerate>
									</samplecharacteristics>
									<channelcount>2</channelcount>
								</audio>
								<audio>
									<samplecharacteristics>
										<depth>16</depth>
										<samplerate>48000</samplerate>
									</samplecharacteristics>
									<channelcount>2</channelcount>
								</audio>
								<audio>
									<samplecharacteristics>
										<depth>16</depth>
										<samplerate>48000</samplerate>
									</samplecharacteristics>
									<channelcount>2</channelcount>
								</audio>
								<audio>
									<samplecharacteristics>
										<depth>16</depth>
										<samplerate>48000</samplerate>
									</samplecharacteristics>
									<channelcount>2</channelcount>
								</audio>
							</media>
						</file>
						<logginginfo>
							<description>Ut i naturen - Fysikk (4:6 @ Ut i naturen)</description>
							<scene></scene>
							<shottake></shottake>
							<lognote></lognote>
						</logginginfo>
						<labels>
							<label2>Iris</label2>
						</labels>
					</clipitem>
					<clipitem id="clipitem-22">
						<masterclipid>masterclip-17</masterclipid>
						<name>dvna60000116aa-p1-270916r</name>
						<enabled>TRUE</enabled>
						<duration>4111</duration>
						<rate>
							<timebase>25</timebase>
							<ntsc>FALSE</ntsc>
						</rate>
						<start>2854</start>
						<end>2900</end>
						<in>1056</in>
						<out>1102</out>
						<pproTicksIn>10729635840000</pproTicksIn>
						<pproTicksOut>11197025280000</pproTicksOut>
						<alphatype>none</alphatype>
						<pixelaspectratio>square</pixelaspectratio>
						<anamorphic>FALSE</anamorphic>
						<file id="file-17">
							<name>dvna60000116aa-p1-270916r.mxf</name>
							<pathurl>file://localhost/Volumes/omfs/clip.dir/MXF/1080i/dvna60000116aa-p1-270916r.mxf</pathurl>
							<rate>
								<timebase>25</timebase>
								<ntsc>FALSE</ntsc>
							</rate>
							<duration>4111</duration>
							<timecode>
								<rate>
									<timebase>25</timebase>
									<ntsc>FALSE</ntsc>
								</rate>
								<string>00:23:33:07</string>
								<frame>35332</frame>
								<displayformat>NDF</displayformat>
								<reel>
									<name>\\NDHO\Omn\E\J\46\07</name>
								</reel>
							</timecode>
							<media>
								<video>
									<samplecharacteristics>
										<rate>
											<timebase>25</timebase>
											<ntsc>FALSE</ntsc>
										</rate>
										<width>1920</width>
										<height>1080</height>
										<anamorphic>FALSE</anamorphic>
										<pixelaspectratio>square</pixelaspectratio>
										<fielddominance>upper</fielddominance>
									</samplecharacteristics>
								</video>
								<audio>
									<samplecharacteristics>
										<depth>16</depth>
										<samplerate>48000</samplerate>
									</samplecharacteristics>
									<channelcount>2</channelcount>
								</audio>
								<audio>
									<samplecharacteristics>
										<depth>16</depth>
										<samplerate>48000</samplerate>
									</samplecharacteristics>
									<channelcount>2</channelcount>
								</audio>
								<audio>
									<samplecharacteristics>
										<depth>16</depth>
										<samplerate>48000</samplerate>
									</samplecharacteristics>
									<channelcount>2</channelcount>
								</audio>
								<audio>
									<samplecharacteristics>
										<depth>16</depth>
										<samplerate>48000</samplerate>
									</samplecharacteristics>
									<channelcount>2</channelcount>
								</audio>
							</media>
						</file>
						<logginginfo>
							<description>dvna60000116aa-p1-270916r</description>
							<scene></scene>
							<shottake></shottake>
							<lognote></lognote>
						</logginginfo>
						<labels>
							<label2>Iris</label2>
						</labels>
					</clipitem>
					<clipitem id="clipitem-23">
						<masterclipid>masterclip-18</masterclipid>
						<name>Sanser.mov</name>
						<enabled>TRUE</enabled>
						<duration>58716</duration>
						<rate>
							<timebase>25</timebase>
							<ntsc>FALSE</ntsc>
						</rate>
						<start>2900</start>
						<end>2972</end>
						<in>53051</in>
						<out>53123</out>
						<pproTicksIn>539032112640000</pproTicksIn>
						<pproTicksOut>539763678720000</pproTicksOut>
						<alphatype>none</alphatype>
						<pixelaspectratio>square</pixelaspectratio>
						<anamorphic>FALSE</anamorphic>
						<file id="file-18">
							<name>Sanser.mov</name>
							<pathurl>file://localhost/Volumes/Svartediket/Prosjekter/DVNA201815_Ut%20i%20naturen_FAL_010117/Eksport/TK/2-Sanser/Sanser.mov</pathurl>
							<rate>
								<timebase>25</timebase>
								<ntsc>FALSE</ntsc>
							</rate>
							<duration>58716</duration>
							<timecode>
								<rate>
									<timebase>25</timebase>
									<ntsc>FALSE</ntsc>
								</rate>
								<string>00:00:00:00</string>
								<frame>0</frame>
								<displayformat>NDF</displayformat>
								<reel>
									<name>AX</name>
								</reel>
							</timecode>
							<media>
								<video>
									<samplecharacteristics>
										<rate>
											<timebase>25</timebase>
											<ntsc>FALSE</ntsc>
										</rate>
										<width>1920</width>
										<height>1080</height>
										<anamorphic>FALSE</anamorphic>
										<pixelaspectratio>square</pixelaspectratio>
										<fielddominance>upper</fielddominance>
									</samplecharacteristics>
								</video>
								<audio>
									<samplecharacteristics>
										<depth>16</depth>
										<samplerate>48000</samplerate>
									</samplecharacteristics>
									<channelcount>2</channelcount>
								</audio>
							</media>
						</file>
						<logginginfo>
							<description></description>
							<scene></scene>
							<shottake></shottake>
							<lognote></lognote>
						</logginginfo>
						<labels>
							<label2>Iris</label2>
						</labels>
					</clipitem>
					<clipitem id="clipitem-24">
						<masterclipid>masterclip-19</masterclipid>
						<name>20160515_184145.mp4</name>
						<enabled>TRUE</enabled>
						<duration>1485</duration>
						<rate>
							<timebase>25</timebase>
							<ntsc>FALSE</ntsc>
						</rate>
						<start>2972</start>
						<end>3086</end>
						<in>247</in>
						<out>361</out>
						<pproTicksIn>2509678080000</pproTicksIn>
						<pproTicksOut>3667991040000</pproTicksOut>
						<alphatype>black</alphatype>
						<pixelaspectratio>square</pixelaspectratio>
						<anamorphic>FALSE</anamorphic>
						<file id="file-19">
							<name>20160515_184145.mp4</name>
							<pathurl>file://localhost/Volumes/Vaagen/Utveksling/Natur/Naturlig%20helaften%20fra%20Oslo/Copied_Copy%20of%20En%20Helaften%20MASTER_002/20160515_184145.mp4</pathurl>
							<rate>
								<timebase>29</timebase>
								<ntsc>FALSE</ntsc>
							</rate>
							<duration>1783</duration>
							<timecode>
								<rate>
									<timebase>29</timebase>
									<ntsc>FALSE</ntsc>
								</rate>
								<string>00:00:00:00</string>
								<frame>0</frame>
								<displayformat>NDF</displayformat>
								<reel>
									<name></name>
								</reel>
							</timecode>
							<media>
								<video>
									<samplecharacteristics>
										<rate>
											<timebase>29</timebase>
											<ntsc>FALSE</ntsc>
										</rate>
										<width>1080</width>
										<height>1920</height>
										<anamorphic>FALSE</anamorphic>
										<pixelaspectratio>square</pixelaspectratio>
										<fielddominance>none</fielddominance>
									</samplecharacteristics>
								</video>
								<audio>
									<samplecharacteristics>
										<depth>16</depth>
										<samplerate>48000</samplerate>
									</samplecharacteristics>
									<channelcount>2</channelcount>
								</audio>
							</media>
						</file>
							<filter>
								<effect>
									<name>Basic Motion</name>
									<effectid>basic</effectid>
									<effectcategory>motion</effectcategory>
									<effecttype>motion</effecttype>
									<mediatype>video</mediatype>
									<parameter authoringApp="PremierePro">
										<parameterid>scale</parameterid>
										<name>Scale</name>
										<valuemin>0</valuemin>
										<valuemax>1000</valuemax>
										<value>317</value>
									</parameter>
									<parameter authoringApp="PremierePro">
										<parameterid>rotation</parameterid>
										<name>Rotation</name>
										<valuemin>-8640</valuemin>
										<valuemax>8640</valuemax>
										<value>0</value>
									</parameter>
									<parameter authoringApp="PremierePro">
										<parameterid>center</parameterid>
										<name>Center</name>
										<value>
											<horiz>0</horiz>
											<vert>0.196875</vert>
										</value>
									</parameter>
									<parameter authoringApp="PremierePro">
										<parameterid>centerOffset</parameterid>
										<name>Anchor Point</name>
										<value>
											<horiz>0</horiz>
											<vert>0</vert>
										</value>
									</parameter>
								</effect>
							</filter>
						<logginginfo>
							<description></description>
							<scene></scene>
							<shottake></shottake>
							<lognote></lognote>
						</logginginfo>
						<labels>
							<label2>Iris</label2>
						</labels>
					</clipitem>
					<clipitem id="clipitem-25">
						<masterclipid>masterclip-20</masterclipid>
						<name>finalister2016-280916r-na</name>
						<enabled>TRUE</enabled>
						<duration>28573</duration>
						<rate>
							<timebase>25</timebase>
							<ntsc>FALSE</ntsc>
						</rate>
						<start>3086</start>
						<end>3183</end>
						<in>3391</in>
						<out>3488</out>
						<pproTicksIn>34454730240000</pproTicksIn>
						<pproTicksOut>35440312320000</pproTicksOut>
						<alphatype>none</alphatype>
						<pixelaspectratio>square</pixelaspectratio>
						<anamorphic>FALSE</anamorphic>
						<file id="file-20">
							<name>finalister2016-280916r-na.mxf</name>
							<pathurl>file://localhost/Volumes/omfs/clip.dir/MXF/1080i/finalister2016-280916r-na.mxf</pathurl>
							<rate>
								<timebase>25</timebase>
								<ntsc>FALSE</ntsc>
							</rate>
							<duration>28573</duration>
							<timecode>
								<rate>
									<timebase>25</timebase>
									<ntsc>FALSE</ntsc>
								</rate>
								<string>00:00:00:00</string>
								<frame>0</frame>
								<displayformat>NDF</displayformat>
								<reel>
									<name>\\NDHO\Omn\E\J\48\70</name>
								</reel>
							</timecode>
							<media>
								<video>
									<samplecharacteristics>
										<rate>
											<timebase>25</timebase>
											<ntsc>FALSE</ntsc>
										</rate>
										<width>1920</width>
										<height>1080</height>
										<anamorphic>FALSE</anamorphic>
										<pixelaspectratio>square</pixelaspectratio>
										<fielddominance>upper</fielddominance>
									</samplecharacteristics>
								</video>
								<audio>
									<samplecharacteristics>
										<depth>16</depth>
										<samplerate>48000</samplerate>
									</samplecharacteristics>
									<channelcount>2</channelcount>
								</audio>
								<audio>
									<samplecharacteristics>
										<depth>16</depth>
										<samplerate>48000</samplerate>
									</samplecharacteristics>
									<channelcount>2</channelcount>
								</audio>
								<audio>
									<samplecharacteristics>
										<depth>16</depth>
										<samplerate>48000</samplerate>
									</samplecharacteristics>
									<channelcount>2</channelcount>
								</audio>
								<audio>
									<samplecharacteristics>
										<depth>16</depth>
										<samplerate>48000</samplerate>
									</samplecharacteristics>
									<channelcount>2</channelcount>
								</audio>
							</media>
						</file>
						<link>
							<linkclipref>clipitem-25</linkclipref>
							<mediatype>video</mediatype>
							<trackindex>1</trackindex>
							<clipindex>25</clipindex>
						</link>
						<link>
							<linkclipref>clipitem-1194</linkclipref>
							<mediatype>audio</mediatype>
							<trackindex>12</trackindex>
							<clipindex>16</clipindex>
							<groupindex>1</groupindex>
						</link>
						<link>
							<linkclipref>clipitem-1279</linkclipref>
							<mediatype>audio</mediatype>
							<trackindex>13</trackindex>
							<clipindex>16</clipindex>
							<groupindex>1</groupindex>
						</link>
						<logginginfo>
							<description>finalister2016-280916r-na</description>
							<scene></scene>
							<shottake></shottake>
							<lognote></lognote>
						</logginginfo>
						<labels>
							<label2>Iris</label2>
						</labels>
					</clipitem>
					<clipitem id="clipitem-26">
						<masterclipid>masterclip-21</masterclipid>
						<name>Hegrefangst.mov</name>
						<enabled>TRUE</enabled>
						<duration>2677</duration>
						<rate>
							<timebase>25</timebase>
							<ntsc>FALSE</ntsc>
						</rate>
						<start>3183</start>
						<end>3263</end>
						<in>2109</in>
						<out>2189</out>
						<pproTicksIn>21428789760000</pproTicksIn>
						<pproTicksOut>22241640960000</pproTicksOut>
						<alphatype>black</alphatype>
						<pixelaspectratio>square</pixelaspectratio>
						<anamorphic>FALSE</anamorphic>
						<file id="file-21">
							<name>Hegrefangst.mov</name>
							<pathurl>file://localhost/Volumes/Svartediket/Prosjekter/DVNA201815_Ut%20i%20naturen_FAL_010117/Video/Tilpasninger/Del%201/Hegrefangst.mov</pathurl>
							<rate>
								<timebase>25</timebase>
								<ntsc>FALSE</ntsc>
							</rate>
							<duration>2677</duration>
							<timecode>
								<rate>
									<timebase>25</timebase>
									<ntsc>FALSE</ntsc>
								</rate>
								<string>00:00:00:00</string>
								<frame>0</frame>
								<displayformat>NDF</displayformat>
								<reel>
									<name></name>
								</reel>
							</timecode>
							<media>
								<video>
									<samplecharacteristics>
										<rate>
											<timebase>25</timebase>
											<ntsc>FALSE</ntsc>
										</rate>
										<width>1920</width>
										<height>1080</height>
										<anamorphic>FALSE</anamorphic>
										<pixelaspectratio>square</pixelaspectratio>
										<fielddominance>upper</fielddominance>
									</samplecharacteristics>
								</video>
								<audio>
									<samplecharacteristics>
										<depth>16</depth>
										<samplerate>48000</samplerate>
									</samplecharacteristics>
									<channelcount>2</channelcount>
								</audio>
							</media>
						</file>
							<marker>
								<comment></comment>
								<name></name>
								<in>963</in>
								<out>-1</out>
							</marker>
						<logginginfo>
							<description></description>
							<scene></scene>
							<shottake></shottake>
							<lognote></lognote>
						</logginginfo>
						<labels>
							<label2>Iris</label2>
						</labels>
					</clipitem>
					<clipitem id="clipitem-27">
						<masterclipid>masterclip-22</masterclipid>
						<name>DVNA21001915AA</name>
						<enabled>TRUE</enabled>
						<duration>58403</duration>
						<rate>
							<timebase>25</timebase>
							<ntsc>FALSE</ntsc>
						</rate>
						<start>3263</start>
						<end>3350</end>
						<in>13952</in>
						<out>14039</out>
						<pproTicksIn>141761249280000</pproTicksIn>
						<pproTicksOut>142645224960000</pproTicksOut>
						<alphatype>none</alphatype>
						<pixelaspectratio>square</pixelaspectratio>
						<anamorphic>FALSE</anamorphic>
						<file id="file-22">
							<name>DVNA21001915AA.mxf</name>
							<pathurl>file://localhost/Volumes/omfs/clip.dir/MXF/1080i/DVNA21001915AA.mxf</pathurl>
							<rate>
								<timebase>25</timebase>
								<ntsc>FALSE</ntsc>
							</rate>
							<duration>58403</duration>
							<timecode>
								<rate>
									<timebase>25</timebase>
									<ntsc>FALSE</ntsc>
								</rate>
								<string>00:00:00:00</string>
								<frame>0</frame>
								<displayformat>NDF</displayformat>
								<reel>
									<name>\\NDHO\Omn\E\K\14\74</name>
								</reel>
							</timecode>
							<media>
								<video>
									<samplecharacteristics>
										<rate>
											<timebase>25</timebase>
											<ntsc>FALSE</ntsc>
										</rate>
										<width>1920</width>
										<height>1080</height>
										<anamorphic>FALSE</anamorphic>
										<pixelaspectratio>square</pixelaspectratio>
										<fielddominance>upper</fielddominance>
									</samplecharacteristics>
								</video>
								<audio>
									<samplecharacteristics>
										<depth>16</depth>
										<samplerate>48000</samplerate>
									</samplecharacteristics>
									<channelcount>2</channelcount>
								</audio>
								<audio>
									<samplecharacteristics>
										<depth>16</depth>
										<samplerate>48000</samplerate>
									</samplecharacteristics>
									<channelcount>2</channelcount>
								</audio>
								<audio>
									<samplecharacteristics>
										<depth>16</depth>
										<samplerate>48000</samplerate>
									</samplecharacteristics>
									<channelcount>2</channelcount>
								</audio>
								<audio>
									<samplecharacteristics>
										<depth>16</depth>
										<samplerate>48000</samplerate>
									</samplecharacteristics>
									<channelcount>2</channelcount>
								</audio>
							</media>
						</file>
						<link>
							<linkclipref>clipitem-27</linkclipref>
							<mediatype>video</mediatype>
							<trackindex>1</trackindex>
							<clipindex>27</clipindex>
						</link>
						<link>
							<linkclipref>clipitem-1196</linkclipref>
							<mediatype>audio</mediatype>
							<trackindex>12</trackindex>
							<clipindex>20</clipindex>
							<groupindex>1</groupindex>
						</link>
						<link>
							<linkclipref>clipitem-1281</linkclipref>
							<mediatype>audio</mediatype>
							<trackindex>13</trackindex>
							<clipindex>20</clipindex>
							<groupindex>1</groupindex>
						</link>
						<logginginfo>
							<description>Ut i naturen - Drifter (1:6 @ Ut i naturen)</description>
							<scene></scene>
							<shottake></shottake>
							<lognote></lognote>
						</logginginfo>
						<labels>
							<label2>Iris</label2>
						</labels>
					</clipitem>
					<clipitem id="clipitem-28">
						<masterclipid>masterclip-22</masterclipid>
						<name>DVNA21001915AA</name>
						<enabled>TRUE</enabled>
						<duration>58403</duration>
						<rate>
							<timebase>25</timebase>
							<ntsc>FALSE</ntsc>
						</rate>
						<start>3350</start>
						<end>3428</end>
						<in>14200</in>
						<out>14278</out>
						<pproTicksIn>144281088000000</pproTicksIn>
						<pproTicksOut>145073617920000</pproTicksOut>
						<alphatype>none</alphatype>
						<file id="file-22"/>
						<link>
							<linkclipref>clipitem-28</linkclipref>
							<mediatype>video</mediatype>
							<trackindex>1</trackindex>
							<clipindex>28</clipindex>
						</link>
						<link>
							<linkclipref>clipitem-1197</linkclipref>
							<mediatype>audio</mediatype>
							<trackindex>12</trackindex>
							<clipindex>22</clipindex>
							<groupindex>1</groupindex>
						</link>
						<link>
							<linkclipref>clipitem-1282</linkclipref>
							<mediatype>audio</mediatype>
							<trackindex>13</trackindex>
							<clipindex>22</clipindex>
							<groupindex>1</groupindex>
						</link>
						<logginginfo>
							<description>Ut i naturen - Drifter (1:6 @ Ut i naturen)</description>
							<scene></scene>
							<shottake></shottake>
							<lognote></lognote>
						</logginginfo>
						<labels>
							<label2>Iris</label2>
						</labels>
					</clipitem>
					<clipitem id="clipitem-29">
						<masterclipid>masterclip-23</masterclipid>
						<name>AA262501.MXF</name>
						<enabled>TRUE</enabled>
						<duration>1800</duration>
						<rate>
							<timebase>25</timebase>
							<ntsc>FALSE</ntsc>
						</rate>
						<start>3428</start>
						<end>3576</end>
						<in>491</in>
						<out>639</out>
						<pproTicksIn>4988874240000</pproTicksIn>
						<pproTicksOut>6492648960000</pproTicksOut>
						<alphatype>none</alphatype>
						<pixelaspectratio>square</pixelaspectratio>
						<anamorphic>FALSE</anamorphic>
						<file id="file-23">
							<name>AA262501.MXF</name>
							<pathurl>file://localhost/Volumes/Vaagen/Utveksling/Natur/Naturlig%20helaften%20fra%20Oslo/Copied_Copy%20of%20En%20Helaften%20MASTER_003/AA262501.MXF</pathurl>
							<rate>
								<timebase>25</timebase>
								<ntsc>FALSE</ntsc>
							</rate>
							<duration>1800</duration>
							<timecode>
								<rate>
									<timebase>25</timebase>
									<ntsc>FALSE</ntsc>
								</rate>
								<string>13:59:24:23</string>
								<frame>1259123</frame>
								<displayformat>NDF</displayformat>
								<reel>
									<name></name>
								</reel>
							</timecode>
							<media>
								<video>
									<samplecharacteristics>
										<rate>
											<timebase>25</timebase>
											<ntsc>FALSE</ntsc>
										</rate>
										<width>1920</width>
										<height>1080</height>
										<anamorphic>FALSE</anamorphic>
										<pixelaspectratio>square</pixelaspectratio>
										<fielddominance>none</fielddominance>
									</samplecharacteristics>
								</video>
								<audio>
									<samplecharacteristics>
										<depth>16</depth>
										<samplerate>48000</samplerate>
									</samplecharacteristics>
									<channelcount>1</channelcount>
									<layout>stereo</layout>
									<audiochannel>
										<sourcechannel>1</sourcechannel>
										<channellabel>left</channellabel>
									</audiochannel>
								</audio>
								<audio>
									<samplecharacteristics>
										<depth>16</depth>
										<samplerate>48000</samplerate>
									</samplecharacteristics>
									<channelcount>1</channelcount>
									<layout>stereo</layout>
									<audiochannel>
										<sourcechannel>2</sourcechannel>
										<channellabel>right</channellabel>
									</audiochannel>
								</audio>
							</media>
						</file>
						<link>
							<linkclipref>clipitem-29</linkclipref>
							<mediatype>video</mediatype>
							<trackindex>1</trackindex>
							<clipindex>29</clipindex>
						</link>
						<link>
							<linkclipref>clipitem-724</linkclipref>
							<mediatype>audio</mediatype>
							<trackindex>8</trackindex>
							<clipindex>5</clipindex>
							<groupindex>1</groupindex>
						</link>
						<link>
							<linkclipref>clipitem-820</linkclipref>
							<mediatype>audio</mediatype>
							<trackindex>9</trackindex>
							<clipindex>5</clipindex>
							<groupindex>1</groupindex>
						</link>
						<logginginfo>
							<description></description>
							<scene></scene>
							<shottake></shottake>
							<lognote></lognote>
						</logginginfo>
						<labels>
							<label2>Iris</label2>
						</labels>
					</clipitem>
					<clipitem id="clipitem-30">
						<masterclipid>masterclip-24</masterclipid>
						<name>20160325171754.m2ts</name>
						<enabled>TRUE</enabled>
						<duration>4550</duration>
						<rate>
							<timebase>25</timebase>
							<ntsc>FALSE</ntsc>
						</rate>
						<start>3612</start>
						<end>4095</end>
						<in>3779</in>
						<out>4262</out>
						<pproTicksIn>38397058560000</pproTicksIn>
						<pproTicksOut>43304647680000</pproTicksOut>
						<alphatype>black</alphatype>
						<pixelaspectratio>HD-(1440x1080)</pixelaspectratio>
						<anamorphic>FALSE</anamorphic>
						<file id="file-24">
							<name>20160325171754.m2ts</name>
							<pathurl>file://localhost/Volumes/Vaagen/Utveksling/Natur/Naturlig%20helaften%20fra%20Oslo/Copied_Copy%20of%20En%20Helaften%20MASTER_003/20160325171754.m2tsBDMV/STREAM/20160325171754.m2ts</pathurl>
							<rate>
								<timebase>25</timebase>
								<ntsc>FALSE</ntsc>
							</rate>
							<duration>4550</duration>
							<timecode>
								<rate>
									<timebase>25</timebase>
									<ntsc>FALSE</ntsc>
								</rate>
								<string>00:00:00:00</string>
								<frame>0</frame>
								<displayformat>NDF</displayformat>
								<reel>
									<name></name>
								</reel>
							</timecode>
							<media>
								<video>
									<samplecharacteristics>
										<rate>
											<timebase>25</timebase>
											<ntsc>FALSE</ntsc>
										</rate>
										<width>1440</width>
										<height>1080</height>
										<anamorphic>FALSE</anamorphic>
										<pixelaspectratio>HD-(1440x1080)</pixelaspectratio>
										<fielddominance>upper</fielddominance>
									</samplecharacteristics>
								</video>
								<audio>
									<samplecharacteristics>
										<depth>16</depth>
										<samplerate>48000</samplerate>
									</samplecharacteristics>
									<channelcount>2</channelcount>
								</audio>
							</media>
						</file>
							<filter>
								<effect>
									<name>Distort</name>
									<effectid>deformation</effectid>
									<effectcategory>motion</effectcategory>
									<effecttype>motion</effecttype>
									<mediatype>video</mediatype>
									<parameter authoringApp="PremierePro">
										<parameterid>aspect</parameterid>
										<name>Aspect</name>
										<valuemin>-10000</valuemin>
										<valuemax>10000</valuemax>
										<value>-33.3333</value>
									</parameter>
								</effect>
							</filter>
							<filter>
								<effect>
									<name>Basic Motion</name>
									<effectid>basic</effectid>
									<effectcategory>motion</effectcategory>
									<effecttype>motion</effecttype>
									<mediatype>video</mediatype>
									<parameter authoringApp="PremierePro">
										<parameterid>scale</parameterid>
										<name>Scale</name>
										<value>133.333</value>
									</parameter>
								</effect>
							</filter>
						<link>
							<linkclipref>clipitem-30</linkclipref>
							<mediatype>video</mediatype>
							<trackindex>1</trackindex>
							<clipindex>30</clipindex>
						</link>
						<link>
							<linkclipref>clipitem-725</linkclipref>
							<mediatype>audio</mediatype>
							<trackindex>8</trackindex>
							<clipindex>7</clipindex>
							<groupindex>1</groupindex>
						</link>
						<link>
							<linkclipref>clipitem-821</linkclipref>
							<mediatype>audio</mediatype>
							<trackindex>9</trackindex>
							<clipindex>7</clipindex>
							<groupindex>1</groupindex>
						</link>
						<logginginfo>
							<description></description>
							<scene></scene>
							<shottake></shottake>
							<lognote></lognote>
						</logginginfo>
						<labels>
							<label2>Iris</label2>
						</labels>
					</clipitem>
					<clipitem id="clipitem-31">
						<masterclipid>masterclip-25</masterclipid>
						<name>AA262801.MXF</name>
						<enabled>TRUE</enabled>
						<duration>3660</duration>
						<rate>
							<timebase>25</timebase>
							<ntsc>FALSE</ntsc>
						</rate>
						<start>4326</start>
						<end>4450</end>
						<in>434</in>
						<out>558</out>
						<pproTicksIn>4409717760000</pproTicksIn>
						<pproTicksOut>5669637120000</pproTicksOut>
						<alphatype>none</alphatype>
						<pixelaspectratio>square</pixelaspectratio>
						<anamorphic>FALSE</anamorphic>
						<file id="file-25">
							<name>AA262801.MXF</name>
							<pathurl>file://localhost/Volumes/Vaagen/Utveksling/Natur/Naturlig%20helaften%20fra%20Oslo/Copied_Copy%20of%20En%20Helaften%20MASTER_003/AA262801.MXF</pathurl>
							<rate>
								<timebase>25</timebase>
								<ntsc>FALSE</ntsc>
							</rate>
							<duration>3660</duration>
							<timecode>
								<rate>
									<timebase>25</timebase>
									<ntsc>FALSE</ntsc>
								</rate>
								<string>14:11:34:13</string>
								<frame>1277363</frame>
								<displayformat>NDF</displayformat>
								<reel>
									<name></name>
								</reel>
							</timecode>
							<media>
								<video>
									<samplecharacteristics>
										<rate>
											<timebase>25</timebase>
											<ntsc>FALSE</ntsc>
										</rate>
										<width>1920</width>
										<height>1080</height>
										<anamorphic>FALSE</anamorphic>
										<pixelaspectratio>square</pixelaspectratio>
										<fielddominance>none</fielddominance>
									</samplecharacteristics>
								</video>
								<audio>
									<samplecharacteristics>
										<depth>16</depth>
										<samplerate>48000</samplerate>
									</samplecharacteristics>
									<channelcount>2</channelcount>
								</audio>
							</media>
						</file>
						<link>
							<linkclipref>clipitem-31</linkclipref>
							<mediatype>video</mediatype>
							<trackindex>1</trackindex>
							<clipindex>31</clipindex>
						</link>
						<link>
							<linkclipref>clipitem-916</linkclipref>
							<mediatype>audio</mediatype>
							<trackindex>10</trackindex>
							<clipindex>10</clipindex>
							<groupindex>1</groupindex>
						</link>
						<link>
							<linkclipref>clipitem-1056</linkclipref>
							<mediatype>audio</mediatype>
							<trackindex>11</trackindex>
							<clipindex>10</clipindex>
							<groupindex>1</groupindex>
						</link>
						<logginginfo>
							<description></description>
							<scene></scene>
							<shottake></shottake>
							<lognote></lognote>
						</logginginfo>
						<labels>
							<label2>Iris</label2>
						</labels>
					</clipitem>
					<clipitem id="clipitem-32">
						<masterclipid>masterclip-25</masterclipid>
						<name>AA262801.MXF</name>
						<enabled>TRUE</enabled>
						<duration>3660</duration>
						<rate>
							<timebase>25</timebase>
							<ntsc>FALSE</ntsc>
						</rate>
						<start>4450</start>
						<end>4688</end>
						<in>937</in>
						<out>1175</out>
						<pproTicksIn>9520519680000</pproTicksIn>
						<pproTicksOut>11938752000000</pproTicksOut>
						<alphatype>none</alphatype>
						<file id="file-25"/>
						<link>
							<linkclipref>clipitem-32</linkclipref>
							<mediatype>video</mediatype>
							<trackindex>1</trackindex>
							<clipindex>32</clipindex>
						</link>
						<link>
							<linkclipref>clipitem-917</linkclipref>
							<mediatype>audio</mediatype>
							<trackindex>10</trackindex>
							<clipindex>11</clipindex>
							<groupindex>1</groupindex>
						</link>
						<link>
							<linkclipref>clipitem-1057</linkclipref>
							<mediatype>audio</mediatype>
							<trackindex>11</trackindex>
							<clipindex>11</clipindex>
							<groupindex>1</groupindex>
						</link>
						<logginginfo>
							<description></description>
							<scene></scene>
							<shottake></shottake>
							<lognote></lognote>
						</logginginfo>
						<labels>
							<label2>Iris</label2>
						</labels>
					</clipitem>
					<clipitem id="clipitem-33">
						<masterclipid>masterclip-25</masterclipid>
						<name>AA262801.MXF</name>
						<enabled>TRUE</enabled>
						<duration>3660</duration>
						<rate>
							<timebase>25</timebase>
							<ntsc>FALSE</ntsc>
						</rate>
						<start>4805</start>
						<end>4948</end>
						<in>3288</in>
						<out>3431</out>
						<pproTicksIn>33408184320000</pproTicksIn>
						<pproTicksOut>34861155840000</pproTicksOut>
						<alphatype>none</alphatype>
						<file id="file-25"/>
						<link>
							<linkclipref>clipitem-33</linkclipref>
							<mediatype>video</mediatype>
							<trackindex>1</trackindex>
							<clipindex>33</clipindex>
						</link>
						<link>
							<linkclipref>clipitem-918</linkclipref>
							<mediatype>audio</mediatype>
							<trackindex>10</trackindex>
							<clipindex>13</clipindex>
							<groupindex>1</groupindex>
						</link>
						<link>
							<linkclipref>clipitem-1058</linkclipref>
							<mediatype>audio</mediatype>
							<trackindex>11</trackindex>
							<clipindex>13</clipindex>
							<groupindex>1</groupindex>
						</link>
						<logginginfo>
							<description></description>
							<scene></scene>
							<shottake></shottake>
							<lognote></lognote>
						</logginginfo>
						<labels>
							<label2>Iris</label2>
						</labels>
					</clipitem>
					<clipitem id="clipitem-34">
						<masterclipid>masterclip-26</masterclipid>
						<name>AA263101.MXF</name>
						<enabled>TRUE</enabled>
						<duration>3336</duration>
						<rate>
							<timebase>25</timebase>
							<ntsc>FALSE</ntsc>
						</rate>
						<start>4948</start>
						<end>5463</end>
						<in>175</in>
						<out>690</out>
						<pproTicksIn>1778112000000</pproTicksIn>
						<pproTicksOut>7010841600000</pproTicksOut>
						<alphatype>none</alphatype>
						<pixelaspectratio>square</pixelaspectratio>
						<anamorphic>FALSE</anamorphic>
						<file id="file-26">
							<name>AA263101.MXF</name>
							<pathurl>file://localhost/Volumes/Vaagen/Utveksling/Natur/Naturlig%20helaften%20fra%20Oslo/Copied_Copy%20of%20En%20Helaften%20MASTER_003/AA263101.MXF</pathurl>
							<rate>
								<timebase>25</timebase>
								<ntsc>FALSE</ntsc>
							</rate>
							<duration>3336</duration>
							<timecode>
								<rate>
									<timebase>25</timebase>
									<ntsc>FALSE</ntsc>
								</rate>
								<string>14:25:29:00</string>
								<frame>1298225</frame>
								<displayformat>NDF</displayformat>
								<reel>
									<name></name>
								</reel>
							</timecode>
							<media>
								<video>
									<samplecharacteristics>
										<rate>
											<timebase>25</timebase>
											<ntsc>FALSE</ntsc>
										</rate>
										<width>1920</width>
										<height>1080</height>
										<anamorphic>FALSE</anamorphic>
										<pixelaspectratio>square</pixelaspectratio>
										<fielddominance>none</fielddominance>
									</samplecharacteristics>
								</video>
								<audio>
									<samplecharacteristics>
										<depth>16</depth>
										<samplerate>48000</samplerate>
									</samplecharacteristics>
									<channelcount>2</channelcount>
								</audio>
							</media>
						</file>
						<link>
							<linkclipref>clipitem-34</linkclipref>
							<mediatype>video</mediatype>
							<trackindex>1</trackindex>
							<clipindex>34</clipindex>
						</link>
						<link>
							<linkclipref>clipitem-919</linkclipref>
							<mediatype>audio</mediatype>
							<trackindex>10</trackindex>
							<clipindex>14</clipindex>
							<groupindex>1</groupindex>
						</link>
						<link>
							<linkclipref>clipitem-1059</linkclipref>
							<mediatype>audio</mediatype>
							<trackindex>11</trackindex>
							<clipindex>14</clipindex>
							<groupindex>1</groupindex>
						</link>
						<logginginfo>
							<description></description>
							<scene></scene>
							<shottake></shottake>
							<lognote></lognote>
						</logginginfo>
						<labels>
							<label2>Iris</label2>
						</labels>
					</clipitem>
					<clipitem id="clipitem-35">
						<masterclipid>masterclip-26</masterclipid>
						<name>AA263101.MXF</name>
						<enabled>TRUE</enabled>
						<duration>3336</duration>
						<rate>
							<timebase>25</timebase>
							<ntsc>FALSE</ntsc>
						</rate>
						<start>5463</start>
						<end>5962</end>
						<in>1499</in>
						<out>1998</out>
						<pproTicksIn>15230799360000</pproTicksIn>
						<pproTicksOut>20300958720000</pproTicksOut>
						<alphatype>none</alphatype>
						<file id="file-26"/>
						<link>
							<linkclipref>clipitem-35</linkclipref>
							<mediatype>video</mediatype>
							<trackindex>1</trackindex>
							<clipindex>35</clipindex>
						</link>
						<link>
							<linkclipref>clipitem-920</linkclipref>
							<mediatype>audio</mediatype>
							<trackindex>10</trackindex>
							<clipindex>15</clipindex>
							<groupindex>1</groupindex>
						</link>
						<link>
							<linkclipref>clipitem-1060</linkclipref>
							<mediatype>audio</mediatype>
							<trackindex>11</trackindex>
							<clipindex>15</clipindex>
							<groupindex>1</groupindex>
						</link>
						<logginginfo>
							<description></description>
							<scene></scene>
							<shottake></shottake>
							<lognote></lognote>
						</logginginfo>
						<labels>
							<label2>Iris</label2>
						</labels>
					</clipitem>
					<clipitem id="clipitem-36">
						<masterclipid>masterclip-27</masterclipid>
						<name>Drifter.mov</name>
						<enabled>TRUE</enabled>
						<duration>58403</duration>
						<rate>
							<timebase>25</timebase>
							<ntsc>FALSE</ntsc>
						</rate>
						<start>7153</start>
						<end>7223</end>
						<in>26621</in>
						<out>26691</out>
						<pproTicksIn>270486397440000</pproTicksIn>
						<pproTicksOut>271197642240000</pproTicksOut>
						<alphatype>none</alphatype>
						<pixelaspectratio>square</pixelaspectratio>
						<anamorphic>FALSE</anamorphic>
						<file id="file-27">
							<name>Drifter-FRA_TK.mov</name>
							<pathurl>file://localhost/Volumes/Svartediket/Prosjekter/DVNA201815_Ut%20i%20naturen_FAL_010117/Eksport/TK/1-Drifter/Drifter-FRA_TK.mov</pathurl>
							<rate>
								<timebase>25</timebase>
								<ntsc>FALSE</ntsc>
							</rate>
							<duration>58403</duration>
							<timecode>
								<rate>
									<timebase>25</timebase>
									<ntsc>FALSE</ntsc>
								</rate>
								<string>00:00:00:00</string>
								<frame>0</frame>
								<displayformat>NDF</displayformat>
								<reel>
									<name>AX</name>
								</reel>
							</timecode>
							<media>
								<video>
									<samplecharacteristics>
										<rate>
											<timebase>25</timebase>
											<ntsc>FALSE</ntsc>
										</rate>
										<width>1920</width>
										<height>1080</height>
										<anamorphic>FALSE</anamorphic>
										<pixelaspectratio>square</pixelaspectratio>
										<fielddominance>none</fielddominance>
									</samplecharacteristics>
								</video>
								<audio>
									<samplecharacteristics>
										<depth>16</depth>
										<samplerate>48000</samplerate>
									</samplecharacteristics>
									<channelcount>2</channelcount>
								</audio>
							</media>
						</file>
						<logginginfo>
							<description></description>
							<scene></scene>
							<shottake></shottake>
							<lognote></lognote>
						</logginginfo>
						<labels>
							<label2>Caribbean</label2>
						</labels>
					</clipitem>
					<clipitem id="clipitem-37">
						<masterclipid>masterclip-27</masterclipid>
						<name>Drifter.mov</name>
						<enabled>TRUE</enabled>
						<duration>58403</duration>
						<rate>
							<timebase>25</timebase>
							<ntsc>FALSE</ntsc>
						</rate>
						<start>7223</start>
						<end>8910</end>
						<in>26812</in>
						<out>28499</out>
						<pproTicksIn>272427079680000</pproTicksIn>
						<pproTicksOut>289568079360000</pproTicksOut>
						<alphatype>none</alphatype>
						<file id="file-27"/>
						<logginginfo>
							<description></description>
							<scene></scene>
							<shottake></shottake>
							<lognote></lognote>
						</logginginfo>
						<labels>
							<label2>Caribbean</label2>
						</labels>
					</clipitem>
					<clipitem id="clipitem-38">
						<masterclipid>masterclip-28</masterclipid>
						<name>MVI_3628_1.mov</name>
						<enabled>TRUE</enabled>
						<duration>1153</duration>
						<rate>
							<timebase>25</timebase>
							<ntsc>FALSE</ntsc>
						</rate>
						<start>8910</start>
						<end>9211</end>
						<in>384</in>
						<out>685</out>
						<pproTicksIn>3901685760000</pproTicksIn>
						<pproTicksOut>6960038400000</pproTicksOut>
						<alphatype>none</alphatype>
						<pixelaspectratio>square</pixelaspectratio>
						<anamorphic>FALSE</anamorphic>
						<file id="file-28">
							<name>MVI_3628_1.mov</name>
							<pathurl>file://localhost/Volumes/Svartediket/Prosjekter/DVNA600316_Horn%c3%b8ya-magasin_FAL_010816/Video/Seervideoer%20Mag%201%202016/MVI_3628_1.mov</pathurl>
							<rate>
								<timebase>25</timebase>
								<ntsc>FALSE</ntsc>
							</rate>
							<duration>1153</duration>
							<timecode>
								<rate>
									<timebase>25</timebase>
									<ntsc>FALSE</ntsc>
								</rate>
								<string>00:00:00:00</string>
								<frame>0</frame>
								<displayformat>NDF</displayformat>
								<reel>
									<name></name>
								</reel>
							</timecode>
							<media>
								<video>
									<samplecharacteristics>
										<rate>
											<timebase>25</timebase>
											<ntsc>FALSE</ntsc>
										</rate>
										<width>1920</width>
										<height>1080</height>
										<anamorphic>FALSE</anamorphic>
										<pixelaspectratio>square</pixelaspectratio>
										<fielddominance>upper</fielddominance>
									</samplecharacteristics>
								</video>
								<audio>
									<samplecharacteristics>
										<depth>16</depth>
										<samplerate>48000</samplerate>
									</samplecharacteristics>
									<channelcount>2</channelcount>
								</audio>
							</media>
						</file>
							<filter>
								<effect>
									<name>Basic Motion</name>
									<effectid>basic</effectid>
									<effectcategory>motion</effectcategory>
									<effecttype>motion</effecttype>
									<mediatype>video</mediatype>
									<parameter authoringApp="PremierePro">
										<parameterid>scale</parameterid>
										<name>Scale</name>
										<valuemin>0</valuemin>
										<valuemax>1000</valuemax>
										<value>200</value>
									</parameter>
									<parameter authoringApp="PremierePro">
										<parameterid>rotation</parameterid>
										<name>Rotation</name>
										<valuemin>-8640</valuemin>
										<valuemax>8640</valuemax>
										<value>0</value>
									</parameter>
									<parameter authoringApp="PremierePro">
										<parameterid>center</parameterid>
										<name>Center</name>
										<value>
											<horiz>0</horiz>
											<vert>0</vert>
										</value>
									</parameter>
									<parameter authoringApp="PremierePro">
										<parameterid>centerOffset</parameterid>
										<name>Anchor Point</name>
										<value>
											<horiz>0</horiz>
											<vert>0</vert>
										</value>
									</parameter>
								</effect>
							</filter>
						<logginginfo>
							<description></description>
							<scene></scene>
							<shottake></shottake>
							<lognote></lognote>
						</logginginfo>
						<labels>
							<label2>Iris</label2>
						</labels>
					</clipitem>
					<clipitem id="clipitem-39">
						<masterclipid>masterclip-29</masterclipid>
						<name>DVNA60000316AA</name>
						<enabled>TRUE</enabled>
						<duration>58641</duration>
						<rate>
							<timebase>25</timebase>
							<ntsc>FALSE</ntsc>
						</rate>
						<start>9211</start>
						<end>10500</end>
						<in>31408</in>
						<out>32697</out>
						<pproTicksIn>319125381120000</pproTicksIn>
						<pproTicksOut>332222446080000</pproTicksOut>
						<alphatype>none</alphatype>
						<pixelaspectratio>square</pixelaspectratio>
						<anamorphic>FALSE</anamorphic>
						<file id="file-29">
							<name>DVNA60000316AA.mxf</name>
							<pathurl>file://localhost/Volumes/omfs/clip.dir/MXF/1080i/DVNA60000316AA.mxf</pathurl>
							<rate>
								<timebase>25</timebase>
								<ntsc>FALSE</ntsc>
							</rate>
							<duration>58641</duration>
							<timecode>
								<rate>
									<timebase>25</timebase>
									<ntsc>FALSE</ntsc>
								</rate>
								<string>00:00:00:00</string>
								<frame>0</frame>
								<displayformat>NDF</displayformat>
								<reel>
									<name>\\NDHO\Omn\E\F\26\29</name>
								</reel>
							</timecode>
							<media>
								<video>
									<samplecharacteristics>
										<rate>
											<timebase>25</timebase>
											<ntsc>FALSE</ntsc>
										</rate>
										<width>1920</width>
										<height>1080</height>
										<anamorphic>FALSE</anamorphic>
										<pixelaspectratio>square</pixelaspectratio>
										<fielddominance>upper</fielddominance>
									</samplecharacteristics>
								</video>
								<audio>
									<samplecharacteristics>
										<depth>16</depth>
										<samplerate>48000</samplerate>
									</samplecharacteristics>
									<channelcount>2</channelcount>
								</audio>
								<audio>
									<samplecharacteristics>
										<depth>16</depth>
										<samplerate>48000</samplerate>
									</samplecharacteristics>
									<channelcount>2</channelcount>
								</audio>
								<audio>
									<samplecharacteristics>
										<depth>16</depth>
										<samplerate>48000</samplerate>
									</samplecharacteristics>
									<channelcount>2</channelcount>
								</audio>
							</media>
						</file>
						<link>
							<linkclipref>clipitem-39</linkclipref>
							<mediatype>video</mediatype>
							<trackindex>1</trackindex>
							<clipindex>39</clipindex>
						</link>
						<link>
							<linkclipref>clipitem-731</linkclipref>
							<mediatype>audio</mediatype>
							<trackindex>8</trackindex>
							<clipindex>17</clipindex>
							<groupindex>1</groupindex>
						</link>
						<link>
							<linkclipref>clipitem-827</linkclipref>
							<mediatype>audio</mediatype>
							<trackindex>9</trackindex>
							<clipindex>17</clipindex>
							<groupindex>1</groupindex>
						</link>
						<logginginfo>
							<description>Ut i naturen - Hornøya</description>
							<scene></scene>
							<shottake></shottake>
							<lognote></lognote>
						</logginginfo>
						<labels>
							<label2>Caribbean</label2>
						</labels>
					</clipitem>
					<clipitem id="clipitem-40">
						<masterclipid>masterclip-30</masterclipid>
						<name>2015-12-19 11.39.19.mp4</name>
						<enabled>TRUE</enabled>
						<duration>2636</duration>
						<rate>
							<timebase>25</timebase>
							<ntsc>FALSE</ntsc>
						</rate>
						<start>10500</start>
						<end>11196</end>
						<in>9</in>
						<out>705</out>
						<pproTicksIn>91445760000</pproTicksIn>
						<pproTicksOut>7163251200000</pproTicksOut>
						<alphatype>black</alphatype>
						<pixelaspectratio>square</pixelaspectratio>
						<anamorphic>FALSE</anamorphic>
						<file id="file-30">
							<name>2015-12-19 11.39.19.mp4</name>
							<pathurl>file://localhost/Volumes/Vaagen/Utveksling/Natur/Naturlig%20helaften%20fra%20Oslo/Transcoded_Copy%20of%20En%20Helaften%20MASTER/2015-12-19%2011.39.19.mp4</pathurl>
							<rate>
								<timebase>30</timebase>
								<ntsc>FALSE</ntsc>
							</rate>
							<duration>3201</duration>
							<timecode>
								<rate>
									<timebase>30</timebase>
									<ntsc>FALSE</ntsc>
								</rate>
								<string>00:00:00:00</string>
								<frame>0</frame>
								<displayformat>NDF</displayformat>
								<reel>
									<name></name>
								</reel>
							</timecode>
							<media>
								<video>
									<samplecharacteristics>
										<rate>
											<timebase>30</timebase>
											<ntsc>FALSE</ntsc>
										</rate>
										<width>1080</width>
										<height>1920</height>
										<anamorphic>FALSE</anamorphic>
										<pixelaspectratio>square</pixelaspectratio>
										<fielddominance>none</fielddominance>
									</samplecharacteristics>
								</video>
								<audio>
									<samplecharacteristics>
										<depth>16</depth>
										<samplerate>48000</samplerate>
									</samplecharacteristics>
									<channelcount>2</channelcount>
								</audio>
							</media>
						</file>
							<filter>
								<effect>
									<name>Basic Motion</name>
									<effectid>basic</effectid>
									<effectcategory>motion</effectcategory>
									<effecttype>motion</effecttype>
									<mediatype>video</mediatype>
									<parameter authoringApp="PremierePro">
										<parameterid>scale</parameterid>
										<name>Scale</name>
										<valuemin>0</valuemin>
										<valuemax>1000</valuemax>
										<value>325</value>
									</parameter>
									<parameter authoringApp="PremierePro">
										<parameterid>rotation</parameterid>
										<name>Rotation</name>
										<valuemin>-8640</valuemin>
										<valuemax>8640</valuemax>
										<value>0</value>
									</parameter>
									<parameter authoringApp="PremierePro">
										<parameterid>center</parameterid>
										<name>Center</name>
										<value>
											<horiz>0</horiz>
											<vert>0</vert>
										</value>
									</parameter>
									<parameter authoringApp="PremierePro">
										<parameterid>centerOffset</parameterid>
										<name>Anchor Point</name>
										<value>
											<horiz>0</horiz>
											<vert>0</vert>
										</value>
									</parameter>
								</effect>
							</filter>
							<filter>
								<effect>
									<name>Opacity</name>
									<effectid>opacity</effectid>
									<effectcategory>motion</effectcategory>
									<effecttype>motion</effecttype>
									<mediatype>video</mediatype>
									<parameter authoringApp="PremierePro">
										<parameterid>opacity</parameterid>
										<name>opacity</name>
										<valuemin>0</valuemin>
										<valuemax>100</valuemax>
										<value>100</value>
										<keyframe>
											<when>-78277</when>
											<value>60</value>
										</keyframe>
										<keyframe>
											<when>57</when>
											<value>25</value>
										</keyframe>
									</parameter>
								</effect>
							</filter>
							<filter>
								<effect>
									<name>Gaussian Blur</name>
									<effectid>Gaussian Blur</effectid>
									<effectcategory>Blur</effectcategory>
									<effecttype>motion</effecttype>
									<mediatype>video</mediatype>
									<parameter authoringApp="PremierePro">
										<parameterid>radius</parameterid>
										<name>Radius</name>
										<valuemin>0</valuemin>
										<valuemax>100</valuemax>
										<value>0</value>
									</parameter>
								</effect>
							</filter>
							<marker>
								<comment></comment>
								<name></name>
								<in>1131</in>
								<out>-1</out>
							</marker>
							<marker>
								<comment></comment>
								<name></name>
								<in>667</in>
								<out>-1</out>
							</marker>
						<link>
							<linkclipref>clipitem-40</linkclipref>
							<mediatype>video</mediatype>
							<trackindex>1</trackindex>
							<clipindex>40</clipindex>
						</link>
						<link>
							<linkclipref>clipitem-732</linkclipref>
							<mediatype>audio</mediatype>
							<trackindex>8</trackindex>
							<clipindex>19</clipindex>
							<groupindex>1</groupindex>
						</link>
						<link>
							<linkclipref>clipitem-828</linkclipref>
							<mediatype>audio</mediatype>
							<trackindex>9</trackindex>
							<clipindex>19</clipindex>
							<groupindex>1</groupindex>
						</link>
						<logginginfo>
							<description></description>
							<scene></scene>
							<shottake></shottake>
							<lognote></lognote>
						</logginginfo>
						<labels>
							<label2>Iris</label2>
						</labels>
					</clipitem>
					<clipitem id="clipitem-41">
						<masterclipid>masterclip-31</masterclipid>
						<name>delfin-191016-2006.mxf</name>
						<enabled>TRUE</enabled>
						<duration>1160</duration>
						<rate>
							<timebase>25</timebase>
							<ntsc>FALSE</ntsc>
						</rate>
						<start>11316</start>
						<end>12420</end>
						<in>31</in>
						<out>1135</out>
						<pproTicksIn>314979840000</pproTicksIn>
						<pproTicksOut>11532326400000</pproTicksOut>
						<alphatype>none</alphatype>
						<pixelaspectratio>square</pixelaspectratio>
						<anamorphic>FALSE</anamorphic>
						<file id="file-31">
							<name>delfin-191016-2006.mxf</name>
							<pathurl>file://localhost/Volumes/Vaagen/Utveksling/Natur/Naturlig%20helaften%20fra%20Oslo/Transcoded_Copy%20of%20En%20Helaften%20MASTER/delfin-191016-2006.mxf</pathurl>
							<rate>
								<timebase>25</timebase>
								<ntsc>FALSE</ntsc>
							</rate>
							<duration>1160</duration>
							<timecode>
								<rate>
									<timebase>25</timebase>
									<ntsc>FALSE</ntsc>
								</rate>
								<string>10:29:54:09</string>
								<frame>944859</frame>
								<displayformat>NDF</displayformat>
								<reel>
									<name></name>
								</reel>
							</timecode>
							<media>
								<video>
									<samplecharacteristics>
										<rate>
											<timebase>25</timebase>
											<ntsc>FALSE</ntsc>
										</rate>
										<width>1920</width>
										<height>1080</height>
										<anamorphic>FALSE</anamorphic>
										<pixelaspectratio>square</pixelaspectratio>
										<fielddominance>upper</fielddominance>
									</samplecharacteristics>
								</video>
								<audio>
									<samplecharacteristics>
										<depth>16</depth>
										<samplerate>48000</samplerate>
									</samplecharacteristics>
									<channelcount>8</channelcount>
								</audio>
							</media>
						</file>
						<link>
							<linkclipref>clipitem-41</linkclipref>
							<mediatype>video</mediatype>
							<trackindex>1</trackindex>
							<clipindex>41</clipindex>
						</link>
						<link>
							<linkclipref>clipitem-516</linkclipref>
							<mediatype>audio</mediatype>
							<trackindex>1</trackindex>
							<clipindex>13</clipindex>
							<groupindex>1</groupindex>
						</link>
						<link>
							<linkclipref>clipitem-609</linkclipref>
							<mediatype>audio</mediatype>
							<trackindex>3</trackindex>
							<clipindex>13</clipindex>
							<groupindex>1</groupindex>
						</link>
						<logginginfo>
							<description></description>
							<scene></scene>
							<shottake></shottake>
							<lognote></lognote>
						</logginginfo>
						<labels>
							<label2>Iris</label2>
						</labels>
					</clipitem>
					<clipitem id="clipitem-42">
						<masterclipid>masterclip-32</masterclipid>
						<name>delfin-191016-2008.mxf</name>
						<enabled>TRUE</enabled>
						<duration>123</duration>
						<rate>
							<timebase>25</timebase>
							<ntsc>FALSE</ntsc>
						</rate>
						<start>12420</start>
						<end>12493</end>
						<in>25</in>
						<out>98</out>
						<pproTicksIn>254016000000</pproTicksIn>
						<pproTicksOut>995742720000</pproTicksOut>
						<alphatype>none</alphatype>
						<pixelaspectratio>square</pixelaspectratio>
						<anamorphic>FALSE</anamorphic>
						<file id="file-32">
							<name>delfin-191016-2008.mxf</name>
							<pathurl>file://localhost/Volumes/Vaagen/Utveksling/Natur/Naturlig%20helaften%20fra%20Oslo/Transcoded_Copy%20of%20En%20Helaften%20MASTER/delfin-191016-2008.mxf</pathurl>
							<rate>
								<timebase>25</timebase>
								<ntsc>FALSE</ntsc>
							</rate>
							<duration>123</duration>
							<timecode>
								<rate>
									<timebase>25</timebase>
									<ntsc>FALSE</ntsc>
								</rate>
								<string>10:40:01:11</string>
								<frame>960036</frame>
								<displayformat>NDF</displayformat>
								<reel>
									<name></name>
								</reel>
							</timecode>
							<media>
								<video>
									<samplecharacteristics>
										<rate>
											<timebase>25</timebase>
											<ntsc>FALSE</ntsc>
										</rate>
										<width>1920</width>
										<height>1080</height>
										<anamorphic>FALSE</anamorphic>
										<pixelaspectratio>square</pixelaspectratio>
										<fielddominance>upper</fielddominance>
									</samplecharacteristics>
								</video>
								<audio>
									<samplecharacteristics>
										<depth>16</depth>
										<samplerate>48000</samplerate>
									</samplecharacteristics>
									<channelcount>8</channelcount>
								</audio>
							</media>
						</file>
						<link>
							<linkclipref>clipitem-42</linkclipref>
							<mediatype>video</mediatype>
							<trackindex>1</trackindex>
							<clipindex>42</clipindex>
						</link>
						<link>
							<linkclipref>clipitem-517</linkclipref>
							<mediatype>audio</mediatype>
							<trackindex>1</trackindex>
							<clipindex>14</clipindex>
							<groupindex>1</groupindex>
						</link>
						<link>
							<linkclipref>clipitem-610</linkclipref>
							<mediatype>audio</mediatype>
							<trackindex>3</trackindex>
							<clipindex>14</clipindex>
							<groupindex>1</groupindex>
						</link>
						<link>
							<linkclipref>clipitem-667</linkclipref>
							<mediatype>audio</mediatype>
							<trackindex>5</trackindex>
							<clipindex>5</clipindex>
							<groupindex>1</groupindex>
						</link>
						<link>
							<linkclipref>clipitem-696</linkclipref>
							<mediatype>audio</mediatype>
							<trackindex>7</trackindex>
							<clipindex>2</clipindex>
							<groupindex>1</groupindex>
						</link>
						<logginginfo>
							<description></description>
							<scene></scene>
							<shottake></shottake>
							<lognote></lognote>
						</logginginfo>
						<labels>
							<label2>Iris</label2>
						</labels>
					</clipitem>
					<clipitem id="clipitem-43">
						<masterclipid>masterclip-33</masterclipid>
						<name>delfin-191016-2013.mxf</name>
						<enabled>TRUE</enabled>
						<duration>106</duration>
						<rate>
							<timebase>25</timebase>
							<ntsc>FALSE</ntsc>
						</rate>
						<start>12493</start>
						<end>12549</end>
						<in>25</in>
						<out>81</out>
						<pproTicksIn>254016000000</pproTicksIn>
						<pproTicksOut>823011840000</pproTicksOut>
						<alphatype>none</alphatype>
						<pixelaspectratio>square</pixelaspectratio>
						<anamorphic>FALSE</anamorphic>
						<file id="file-33">
							<name>delfin-191016-2013.mxf</name>
							<pathurl>file://localhost/Volumes/Vaagen/Utveksling/Natur/Naturlig%20helaften%20fra%20Oslo/Transcoded_Copy%20of%20En%20Helaften%20MASTER/delfin-191016-2013.mxf</pathurl>
							<rate>
								<timebase>25</timebase>
								<ntsc>FALSE</ntsc>
							</rate>
							<duration>106</duration>
							<timecode>
								<rate>
									<timebase>25</timebase>
									<ntsc>FALSE</ntsc>
								</rate>
								<string>10:46:36:21</string>
								<frame>969921</frame>
								<displayformat>NDF</displayformat>
								<reel>
									<name></name>
								</reel>
							</timecode>
							<media>
								<video>
									<samplecharacteristics>
										<rate>
											<timebase>25</timebase>
											<ntsc>FALSE</ntsc>
										</rate>
										<width>1920</width>
										<height>1080</height>
										<anamorphic>FALSE</anamorphic>
										<pixelaspectratio>square</pixelaspectratio>
										<fielddominance>upper</fielddominance>
									</samplecharacteristics>
								</video>
								<audio>
									<samplecharacteristics>
										<depth>16</depth>
										<samplerate>48000</samplerate>
									</samplecharacteristics>
									<channelcount>8</channelcount>
								</audio>
							</media>
						</file>
						<link>
							<linkclipref>clipitem-43</linkclipref>
							<mediatype>video</mediatype>
							<trackindex>1</trackindex>
							<clipindex>43</clipindex>
						</link>
						<link>
							<linkclipref>clipitem-518</linkclipref>
							<mediatype>audio</mediatype>
							<trackindex>1</trackindex>
							<clipindex>15</clipindex>
							<groupindex>1</groupindex>
						</link>
						<link>
							<linkclipref>clipitem-611</linkclipref>
							<mediatype>audio</mediatype>
							<trackindex>3</trackindex>
							<clipindex>15</clipindex>
							<groupindex>1</groupindex>
						</link>
						<link>
							<linkclipref>clipitem-668</linkclipref>
							<mediatype>audio</mediatype>
							<trackindex>5</trackindex>
							<clipindex>6</clipindex>
							<groupindex>1</groupindex>
						</link>
						<link>
							<linkclipref>clipitem-697</linkclipref>
							<mediatype>audio</mediatype>
							<trackindex>7</trackindex>
							<clipindex>3</clipindex>
							<groupindex>1</groupindex>
						</link>
						<logginginfo>
							<description></description>
							<scene></scene>
							<shottake></shottake>
							<lognote></lognote>
						</logginginfo>
						<labels>
							<label2>Iris</label2>
						</labels>
					</clipitem>
					<clipitem id="clipitem-44">
						<masterclipid>masterclip-34</masterclipid>
						<name>delfin-191016-2014.mxf</name>
						<enabled>TRUE</enabled>
						<duration>100</duration>
						<rate>
							<timebase>25</timebase>
							<ntsc>FALSE</ntsc>
						</rate>
						<start>12549</start>
						<end>12599</end>
						<in>25</in>
						<out>75</out>
						<pproTicksIn>254016000000</pproTicksIn>
						<pproTicksOut>762048000000</pproTicksOut>
						<alphatype>none</alphatype>
						<pixelaspectratio>square</pixelaspectratio>
						<anamorphic>FALSE</anamorphic>
						<file id="file-34">
							<name>delfin-191016-2014.mxf</name>
							<pathurl>file://localhost/Volumes/Vaagen/Utveksling/Natur/Naturlig%20helaften%20fra%20Oslo/Transcoded_Copy%20of%20En%20Helaften%20MASTER/delfin-191016-2014.mxf</pathurl>
							<rate>
								<timebase>25</timebase>
								<ntsc>FALSE</ntsc>
							</rate>
							<duration>100</duration>
							<timecode>
								<rate>
									<timebase>25</timebase>
									<ntsc>FALSE</ntsc>
								</rate>
								<string>10:47:18:06</string>
								<frame>970956</frame>
								<displayformat>NDF</displayformat>
								<reel>
									<name></name>
								</reel>
							</timecode>
							<media>
								<video>
									<samplecharacteristics>
										<rate>
											<timebase>25</timebase>
											<ntsc>FALSE</ntsc>
										</rate>
										<width>1920</width>
										<height>1080</height>
										<anamorphic>FALSE</anamorphic>
										<pixelaspectratio>square</pixelaspectratio>
										<fielddominance>upper</fielddominance>
									</samplecharacteristics>
								</video>
								<audio>
									<samplecharacteristics>
										<depth>16</depth>
										<samplerate>48000</samplerate>
									</samplecharacteristics>
									<channelcount>8</channelcount>
								</audio>
							</media>
						</file>
						<link>
							<linkclipref>clipitem-44</linkclipref>
							<mediatype>video</mediatype>
							<trackindex>1</trackindex>
							<clipindex>44</clipindex>
						</link>
						<link>
							<linkclipref>clipitem-519</linkclipref>
							<mediatype>audio</mediatype>
							<trackindex>1</trackindex>
							<clipindex>16</clipindex>
							<groupindex>1</groupindex>
						</link>
						<link>
							<linkclipref>clipitem-612</linkclipref>
							<mediatype>audio</mediatype>
							<trackindex>3</trackindex>
							<clipindex>16</clipindex>
							<groupindex>1</groupindex>
						</link>
						<link>
							<linkclipref>clipitem-669</linkclipref>
							<mediatype>audio</mediatype>
							<trackindex>5</trackindex>
							<clipindex>7</clipindex>
							<groupindex>1</groupindex>
						</link>
						<link>
							<linkclipref>clipitem-698</linkclipref>
							<mediatype>audio</mediatype>
							<trackindex>7</trackindex>
							<clipindex>4</clipindex>
							<groupindex>1</groupindex>
						</link>
						<logginginfo>
							<description></description>
							<scene></scene>
							<shottake></shottake>
							<lognote></lognote>
						</logginginfo>
						<labels>
							<label2>Iris</label2>
						</labels>
					</clipitem>
					<clipitem id="clipitem-45">
						<masterclipid>masterclip-35</masterclipid>
						<name>delfin-191016-2012.mxf</name>
						<enabled>TRUE</enabled>
						<duration>126</duration>
						<rate>
							<timebase>25</timebase>
							<ntsc>FALSE</ntsc>
						</rate>
						<start>12599</start>
						<end>12668</end>
						<in>25</in>
						<out>94</out>
						<pproTicksIn>254016000000</pproTicksIn>
						<pproTicksOut>955100160000</pproTicksOut>
						<alphatype>none</alphatype>
						<pixelaspectratio>square</pixelaspectratio>
						<anamorphic>FALSE</anamorphic>
						<file id="file-35">
							<name>delfin-191016-2012.mxf</name>
							<pathurl>file://localhost/Volumes/Vaagen/Utveksling/Natur/Naturlig%20helaften%20fra%20Oslo/Transcoded_Copy%20of%20En%20Helaften%20MASTER/delfin-191016-2012.mxf</pathurl>
							<rate>
								<timebase>25</timebase>
								<ntsc>FALSE</ntsc>
							</rate>
							<duration>126</duration>
							<timecode>
								<rate>
									<timebase>25</timebase>
									<ntsc>FALSE</ntsc>
								</rate>
								<string>10:44:54:24</string>
								<frame>967374</frame>
								<displayformat>NDF</displayformat>
								<reel>
									<name></name>
								</reel>
							</timecode>
							<media>
								<video>
									<samplecharacteristics>
										<rate>
											<timebase>25</timebase>
											<ntsc>FALSE</ntsc>
										</rate>
										<width>1920</width>
										<height>1080</height>
										<anamorphic>FALSE</anamorphic>
										<pixelaspectratio>square</pixelaspectratio>
										<fielddominance>upper</fielddominance>
									</samplecharacteristics>
								</video>
								<audio>
									<samplecharacteristics>
										<depth>16</depth>
										<samplerate>48000</samplerate>
									</samplecharacteristics>
									<channelcount>8</channelcount>
								</audio>
							</media>
						</file>
						<link>
							<linkclipref>clipitem-45</linkclipref>
							<mediatype>video</mediatype>
							<trackindex>1</trackindex>
							<clipindex>45</clipindex>
						</link>
						<link>
							<linkclipref>clipitem-520</linkclipref>
							<mediatype>audio</mediatype>
							<trackindex>1</trackindex>
							<clipindex>17</clipindex>
							<groupindex>1</groupindex>
						</link>
						<link>
							<linkclipref>clipitem-613</linkclipref>
							<mediatype>audio</mediatype>
							<trackindex>3</trackindex>
							<clipindex>17</clipindex>
							<groupindex>1</groupindex>
						</link>
						<link>
							<linkclipref>clipitem-670</linkclipref>
							<mediatype>audio</mediatype>
							<trackindex>5</trackindex>
							<clipindex>8</clipindex>
							<groupindex>1</groupindex>
						</link>
						<link>
							<linkclipref>clipitem-699</linkclipref>
							<mediatype>audio</mediatype>
							<trackindex>7</trackindex>
							<clipindex>5</clipindex>
							<groupindex>1</groupindex>
						</link>
						<logginginfo>
							<description></description>
							<scene></scene>
							<shottake></shottake>
							<lognote></lognote>
						</logginginfo>
						<labels>
							<label2>Iris</label2>
						</labels>
					</clipitem>
					<clipitem id="clipitem-46">
						<masterclipid>masterclip-36</masterclipid>
						<name>delfin-191016-2016.mxf</name>
						<enabled>TRUE</enabled>
						<duration>804</duration>
						<rate>
							<timebase>25</timebase>
							<ntsc>FALSE</ntsc>
						</rate>
						<start>12668</start>
						<end>13256</end>
						<in>31</in>
						<out>619</out>
						<pproTicksIn>314979840000</pproTicksIn>
						<pproTicksOut>6289436160000</pproTicksOut>
						<alphatype>none</alphatype>
						<pixelaspectratio>square</pixelaspectratio>
						<anamorphic>FALSE</anamorphic>
						<file id="file-36">
							<name>delfin-191016-2016.mxf</name>
							<pathurl>file://localhost/Volumes/Vaagen/Utveksling/Natur/Naturlig%20helaften%20fra%20Oslo/Transcoded_Copy%20of%20En%20Helaften%20MASTER/delfin-191016-2016.mxf</pathurl>
							<rate>
								<timebase>25</timebase>
								<ntsc>FALSE</ntsc>
							</rate>
							<duration>804</duration>
							<timecode>
								<rate>
									<timebase>25</timebase>
									<ntsc>FALSE</ntsc>
								</rate>
								<string>10:52:00:19</string>
								<frame>978019</frame>
								<displayformat>NDF</displayformat>
								<reel>
									<name></name>
								</reel>
							</timecode>
							<media>
								<video>
									<samplecharacteristics>
										<rate>
											<timebase>25</timebase>
											<ntsc>FALSE</ntsc>
										</rate>
										<width>1920</width>
										<height>1080</height>
										<anamorphic>FALSE</anamorphic>
										<pixelaspectratio>square</pixelaspectratio>
										<fielddominance>upper</fielddominance>
									</samplecharacteristics>
								</video>
								<audio>
									<samplecharacteristics>
										<depth>16</depth>
										<samplerate>48000</samplerate>
									</samplecharacteristics>
									<channelcount>8</channelcount>
								</audio>
							</media>
						</file>
						<link>
							<linkclipref>clipitem-46</linkclipref>
							<mediatype>video</mediatype>
							<trackindex>1</trackindex>
							<clipindex>46</clipindex>
						</link>
						<link>
							<linkclipref>clipitem-521</linkclipref>
							<mediatype>audio</mediatype>
							<trackindex>1</trackindex>
							<clipindex>19</clipindex>
							<groupindex>1</groupindex>
						</link>
						<link>
							<linkclipref>clipitem-614</linkclipref>
							<mediatype>audio</mediatype>
							<trackindex>3</trackindex>
							<clipindex>19</clipindex>
							<groupindex>1</groupindex>
						</link>
						<link>
							<linkclipref>clipitem-671</linkclipref>
							<mediatype>audio</mediatype>
							<trackindex>5</trackindex>
							<clipindex>10</clipindex>
							<groupindex>1</groupindex>
						</link>
						<logginginfo>
							<description></description>
							<scene></scene>
							<shottake></shottake>
							<lognote></lognote>
						</logginginfo>
						<labels>
							<label2>Iris</label2>
						</labels>
					</clipitem>
					<clipitem id="clipitem-47">
						<masterclipid>masterclip-36</masterclipid>
						<name>delfin-191016-2016.mxf</name>
						<enabled>TRUE</enabled>
						<duration>804</duration>
						<rate>
							<timebase>25</timebase>
							<ntsc>FALSE</ntsc>
						</rate>
						<start>13256</start>
						<end>13337</end>
						<in>619</in>
						<out>700</out>
						<pproTicksIn>6289436160000</pproTicksIn>
						<pproTicksOut>7112448000000</pproTicksOut>
						<alphatype>none</alphatype>
						<file id="file-36"/>
						<logginginfo>
							<description></description>
							<scene></scene>
							<shottake></shottake>
							<lognote></lognote>
						</logginginfo>
						<labels>
							<label2>Iris</label2>
						</labels>
					</clipitem>
					<clipitem id="clipitem-48">
						<masterclipid>masterclip-37</masterclipid>
						<name>delfin-191016-2016.mxf</name>
						<enabled>TRUE</enabled>
						<duration>248</duration>
						<rate>
							<timebase>25</timebase>
							<ntsc>FALSE</ntsc>
						</rate>
						<start>13517</start>
						<end>13707</end>
						<in>33</in>
						<out>223</out>
						<pproTicksIn>335301120000</pproTicksIn>
						<pproTicksOut>2265822720000</pproTicksOut>
						<alphatype>none</alphatype>
						<pixelaspectratio>square</pixelaspectratio>
						<anamorphic>FALSE</anamorphic>
						<file id="file-37">
							<name>delfin-191016-2016_001.mxf</name>
							<pathurl>file://localhost/Volumes/Vaagen/Utveksling/Natur/Naturlig%20helaften%20fra%20Oslo/Transcoded_Copy%20of%20En%20Helaften%20MASTER/delfin-191016-2016_001.mxf</pathurl>
							<rate>
								<timebase>25</timebase>
								<ntsc>FALSE</ntsc>
							</rate>
							<duration>248</duration>
							<timecode>
								<rate>
									<timebase>25</timebase>
									<ntsc>FALSE</ntsc>
								</rate>
								<string>10:53:55:02</string>
								<frame>980877</frame>
								<displayformat>NDF</displayformat>
								<reel>
									<name></name>
								</reel>
							</timecode>
							<media>
								<video>
									<samplecharacteristics>
										<rate>
											<timebase>25</timebase>
											<ntsc>FALSE</ntsc>
										</rate>
										<width>1920</width>
										<height>1080</height>
										<anamorphic>FALSE</anamorphic>
										<pixelaspectratio>square</pixelaspectratio>
										<fielddominance>upper</fielddominance>
									</samplecharacteristics>
								</video>
								<audio>
									<samplecharacteristics>
										<depth>16</depth>
										<samplerate>48000</samplerate>
									</samplecharacteristics>
									<channelcount>8</channelcount>
								</audio>
							</media>
						</file>
						<link>
							<linkclipref>clipitem-48</linkclipref>
							<mediatype>video</mediatype>
							<trackindex>1</trackindex>
							<clipindex>48</clipindex>
						</link>
						<link>
							<linkclipref>clipitem-522</linkclipref>
							<mediatype>audio</mediatype>
							<trackindex>1</trackindex>
							<clipindex>21</clipindex>
							<groupindex>1</groupindex>
						</link>
						<link>
							<linkclipref>clipitem-615</linkclipref>
							<mediatype>audio</mediatype>
							<trackindex>3</trackindex>
							<clipindex>21</clipindex>
							<groupindex>1</groupindex>
						</link>
						<link>
							<linkclipref>clipitem-672</linkclipref>
							<mediatype>audio</mediatype>
							<trackindex>5</trackindex>
							<clipindex>12</clipindex>
							<groupindex>1</groupindex>
						</link>
						<logginginfo>
							<description></description>
							<scene></scene>
							<shottake></shottake>
							<lognote></lognote>
						</logginginfo>
						<labels>
							<label2>Iris</label2>
						</labels>
					</clipitem>
					<clipitem id="clipitem-49">
						<masterclipid>masterclip-38</masterclipid>
						<name>delfin-191016-2016.mxf</name>
						<enabled>TRUE</enabled>
						<duration>513</duration>
						<rate>
							<timebase>25</timebase>
							<ntsc>FALSE</ntsc>
						</rate>
						<start>13707</start>
						<end>14170</end>
						<in>25</in>
						<out>488</out>
						<pproTicksIn>254016000000</pproTicksIn>
						<pproTicksOut>4958392320000</pproTicksOut>
						<alphatype>none</alphatype>
						<pixelaspectratio>square</pixelaspectratio>
						<anamorphic>FALSE</anamorphic>
						<file id="file-38">
							<name>delfin-191016-2016_002.mxf</name>
							<pathurl>file://localhost/Volumes/Vaagen/Utveksling/Natur/Naturlig%20helaften%20fra%20Oslo/Transcoded_Copy%20of%20En%20Helaften%20MASTER/delfin-191016-2016_002.mxf</pathurl>
							<rate>
								<timebase>25</timebase>
								<ntsc>FALSE</ntsc>
							</rate>
							<duration>513</duration>
							<timecode>
								<rate>
									<timebase>25</timebase>
									<ntsc>FALSE</ntsc>
								</rate>
								<string>10:54:47:08</string>
								<frame>982183</frame>
								<displayformat>NDF</displayformat>
								<reel>
									<name></name>
								</reel>
							</timecode>
							<media>
								<video>
									<samplecharacteristics>
										<rate>
											<timebase>25</timebase>
											<ntsc>FALSE</ntsc>
										</rate>
										<width>1920</width>
										<height>1080</height>
										<anamorphic>FALSE</anamorphic>
										<pixelaspectratio>square</pixelaspectratio>
										<fielddominance>upper</fielddominance>
									</samplecharacteristics>
								</video>
								<audio>
									<samplecharacteristics>
										<depth>16</depth>
										<samplerate>48000</samplerate>
									</samplecharacteristics>
									<channelcount>8</channelcount>
								</audio>
							</media>
						</file>
						<link>
							<linkclipref>clipitem-49</linkclipref>
							<mediatype>video</mediatype>
							<trackindex>1</trackindex>
							<clipindex>49</clipindex>
						</link>
						<link>
							<linkclipref>clipitem-523</linkclipref>
							<mediatype>audio</mediatype>
							<trackindex>1</trackindex>
							<clipindex>22</clipindex>
							<groupindex>1</groupindex>
						</link>
						<link>
							<linkclipref>clipitem-616</linkclipref>
							<mediatype>audio</mediatype>
							<trackindex>3</trackindex>
							<clipindex>22</clipindex>
							<groupindex>1</groupindex>
						</link>
						<link>
							<linkclipref>clipitem-673</linkclipref>
							<mediatype>audio</mediatype>
							<trackindex>5</trackindex>
							<clipindex>14</clipindex>
							<groupindex>1</groupindex>
						</link>
						<logginginfo>
							<description></description>
							<scene></scene>
							<shottake></shottake>
							<lognote></lognote>
						</logginginfo>
						<labels>
							<label2>Iris</label2>
						</labels>
					</clipitem>
					<clipitem id="clipitem-50">
						<masterclipid>masterclip-39</masterclipid>
						<name>delfin-191016-2017.mxf</name>
						<enabled>TRUE</enabled>
						<duration>130</duration>
						<rate>
							<timebase>25</timebase>
							<ntsc>FALSE</ntsc>
						</rate>
						<start>14170</start>
						<end>14250</end>
						<in>25</in>
						<out>105</out>
						<pproTicksIn>254016000000</pproTicksIn>
						<pproTicksOut>1066867200000</pproTicksOut>
						<alphatype>none</alphatype>
						<pixelaspectratio>square</pixelaspectratio>
						<anamorphic>FALSE</anamorphic>
						<file id="file-39">
							<name>delfin-191016-2017.mxf</name>
							<pathurl>file://localhost/Volumes/Vaagen/Utveksling/Natur/Naturlig%20helaften%20fra%20Oslo/Transcoded_Copy%20of%20En%20Helaften%20MASTER/delfin-191016-2017.mxf</pathurl>
							<rate>
								<timebase>25</timebase>
								<ntsc>FALSE</ntsc>
							</rate>
							<duration>130</duration>
							<timecode>
								<rate>
									<timebase>25</timebase>
									<ntsc>FALSE</ntsc>
								</rate>
								<string>11:03:09:06</string>
								<frame>994731</frame>
								<displayformat>NDF</displayformat>
								<reel>
									<name></name>
								</reel>
							</timecode>
							<media>
								<video>
									<samplecharacteristics>
										<rate>
											<timebase>25</timebase>
											<ntsc>FALSE</ntsc>
										</rate>
										<width>1920</width>
										<height>1080</height>
										<anamorphic>FALSE</anamorphic>
										<pixelaspectratio>square</pixelaspectratio>
										<fielddominance>upper</fielddominance>
									</samplecharacteristics>
								</video>
								<audio>
									<samplecharacteristics>
										<depth>16</depth>
										<samplerate>48000</samplerate>
									</samplecharacteristics>
									<channelcount>8</channelcount>
								</audio>
							</media>
						</file>
						<link>
							<linkclipref>clipitem-50</linkclipref>
							<mediatype>video</mediatype>
							<trackindex>1</trackindex>
							<clipindex>50</clipindex>
						</link>
						<link>
							<linkclipref>clipitem-524</linkclipref>
							<mediatype>audio</mediatype>
							<trackindex>1</trackindex>
							<clipindex>23</clipindex>
							<groupindex>1</groupindex>
						</link>
						<link>
							<linkclipref>clipitem-617</linkclipref>
							<mediatype>audio</mediatype>
							<trackindex>3</trackindex>
							<clipindex>23</clipindex>
							<groupindex>1</groupindex>
						</link>
						<link>
							<linkclipref>clipitem-674</linkclipref>
							<mediatype>audio</mediatype>
							<trackindex>5</trackindex>
							<clipindex>15</clipindex>
							<groupindex>1</groupindex>
						</link>
						<link>
							<linkclipref>clipitem-700</linkclipref>
							<mediatype>audio</mediatype>
							<trackindex>7</trackindex>
							<clipindex>6</clipindex>
							<groupindex>1</groupindex>
						</link>
						<logginginfo>
							<description></description>
							<scene></scene>
							<shottake></shottake>
							<lognote></lognote>
						</logginginfo>
						<labels>
							<label2>Iris</label2>
						</labels>
					</clipitem>
					<clipitem id="clipitem-51">
						<masterclipid>masterclip-40</masterclipid>
						<name>delfin-191016-2017.mxf</name>
						<enabled>TRUE</enabled>
						<duration>128</duration>
						<rate>
							<timebase>25</timebase>
							<ntsc>FALSE</ntsc>
						</rate>
						<start>14250</start>
						<end>14328</end>
						<in>25</in>
						<out>103</out>
						<pproTicksIn>254016000000</pproTicksIn>
						<pproTicksOut>1046545920000</pproTicksOut>
						<alphatype>none</alphatype>
						<pixelaspectratio>square</pixelaspectratio>
						<anamorphic>FALSE</anamorphic>
						<file id="file-40">
							<name>delfin-191016-2017_002.mxf</name>
							<pathurl>file://localhost/Volumes/Vaagen/Utveksling/Natur/Naturlig%20helaften%20fra%20Oslo/Transcoded_Copy%20of%20En%20Helaften%20MASTER/delfin-191016-2017_002.mxf</pathurl>
							<rate>
								<timebase>25</timebase>
								<ntsc>FALSE</ntsc>
							</rate>
							<duration>128</duration>
							<timecode>
								<rate>
									<timebase>25</timebase>
									<ntsc>FALSE</ntsc>
								</rate>
								<string>11:03:41:11</string>
								<frame>995536</frame>
								<displayformat>NDF</displayformat>
								<reel>
									<name></name>
								</reel>
							</timecode>
							<media>
								<video>
									<samplecharacteristics>
										<rate>
											<timebase>25</timebase>
											<ntsc>FALSE</ntsc>
										</rate>
										<width>1920</width>
										<height>1080</height>
										<anamorphic>FALSE</anamorphic>
										<pixelaspectratio>square</pixelaspectratio>
										<fielddominance>upper</fielddominance>
									</samplecharacteristics>
								</video>
								<audio>
									<samplecharacteristics>
										<depth>16</depth>
										<samplerate>48000</samplerate>
									</samplecharacteristics>
									<channelcount>8</channelcount>
								</audio>
							</media>
						</file>
						<link>
							<linkclipref>clipitem-51</linkclipref>
							<mediatype>video</mediatype>
							<trackindex>1</trackindex>
							<clipindex>51</clipindex>
						</link>
						<link>
							<linkclipref>clipitem-525</linkclipref>
							<mediatype>audio</mediatype>
							<trackindex>1</trackindex>
							<clipindex>24</clipindex>
							<groupindex>1</groupindex>
						</link>
						<link>
							<linkclipref>clipitem-618</linkclipref>
							<mediatype>audio</mediatype>
							<trackindex>3</trackindex>
							<clipindex>24</clipindex>
							<groupindex>1</groupindex>
						</link>
						<link>
							<linkclipref>clipitem-675</linkclipref>
							<mediatype>audio</mediatype>
							<trackindex>5</trackindex>
							<clipindex>16</clipindex>
							<groupindex>1</groupindex>
						</link>
						<link>
							<linkclipref>clipitem-701</linkclipref>
							<mediatype>audio</mediatype>
							<trackindex>7</trackindex>
							<clipindex>7</clipindex>
							<groupindex>1</groupindex>
						</link>
						<logginginfo>
							<description></description>
							<scene></scene>
							<shottake></shottake>
							<lognote></lognote>
						</logginginfo>
						<labels>
							<label2>Iris</label2>
						</labels>
					</clipitem>
					<clipitem id="clipitem-52">
						<masterclipid>masterclip-41</masterclipid>
						<name>delfin-191016-2017.mxf</name>
						<enabled>TRUE</enabled>
						<duration>200</duration>
						<rate>
							<timebase>25</timebase>
							<ntsc>FALSE</ntsc>
						</rate>
						<start>14328</start>
						<end>14478</end>
						<in>25</in>
						<out>175</out>
						<pproTicksIn>254016000000</pproTicksIn>
						<pproTicksOut>1778112000000</pproTicksOut>
						<alphatype>none</alphatype>
						<pixelaspectratio>square</pixelaspectratio>
						<anamorphic>FALSE</anamorphic>
						<file id="file-41">
							<name>delfin-191016-2017_004.mxf</name>
							<pathurl>file://localhost/Volumes/Vaagen/Utveksling/Natur/Naturlig%20helaften%20fra%20Oslo/Transcoded_Copy%20of%20En%20Helaften%20MASTER/delfin-191016-2017_004.mxf</pathurl>
							<rate>
								<timebase>25</timebase>
								<ntsc>FALSE</ntsc>
							</rate>
							<duration>200</duration>
							<timecode>
								<rate>
									<timebase>25</timebase>
									<ntsc>FALSE</ntsc>
								</rate>
								<string>11:04:03:10</string>
								<frame>996085</frame>
								<displayformat>NDF</displayformat>
								<reel>
									<name></name>
								</reel>
							</timecode>
							<media>
								<video>
									<samplecharacteristics>
										<rate>
											<timebase>25</timebase>
											<ntsc>FALSE</ntsc>
										</rate>
										<width>1920</width>
										<height>1080</height>
										<anamorphic>FALSE</anamorphic>
										<pixelaspectratio>square</pixelaspectratio>
										<fielddominance>upper</fielddominance>
									</samplecharacteristics>
								</video>
								<audio>
									<samplecharacteristics>
										<depth>16</depth>
										<samplerate>48000</samplerate>
									</samplecharacteristics>
									<channelcount>8</channelcount>
								</audio>
							</media>
						</file>
						<link>
							<linkclipref>clipitem-52</linkclipref>
							<mediatype>video</mediatype>
							<trackindex>1</trackindex>
							<clipindex>52</clipindex>
						</link>
						<link>
							<linkclipref>clipitem-526</linkclipref>
							<mediatype>audio</mediatype>
							<trackindex>1</trackindex>
							<clipindex>25</clipindex>
							<groupindex>1</groupindex>
						</link>
						<link>
							<linkclipref>clipitem-619</linkclipref>
							<mediatype>audio</mediatype>
							<trackindex>3</trackindex>
							<clipindex>25</clipindex>
							<groupindex>1</groupindex>
						</link>
						<link>
							<linkclipref>clipitem-676</linkclipref>
							<mediatype>audio</mediatype>
							<trackindex>5</trackindex>
							<clipindex>17</clipindex>
							<groupindex>1</groupindex>
						</link>
						<link>
							<linkclipref>clipitem-702</linkclipref>
							<mediatype>audio</mediatype>
							<trackindex>7</trackindex>
							<clipindex>8</clipindex>
							<groupindex>1</groupindex>
						</link>
						<logginginfo>
							<description></description>
							<scene></scene>
							<shottake></shottake>
							<lognote></lognote>
						</logginginfo>
						<labels>
							<label2>Iris</label2>
						</labels>
					</clipitem>
					<clipitem id="clipitem-53">
						<masterclipid>masterclip-42</masterclipid>
						<name>delfin-191016-2017.mxf</name>
						<enabled>TRUE</enabled>
						<duration>146</duration>
						<rate>
							<timebase>25</timebase>
							<ntsc>FALSE</ntsc>
						</rate>
						<start>14478</start>
						<end>14574</end>
						<in>25</in>
						<out>121</out>
						<pproTicksIn>254016000000</pproTicksIn>
						<pproTicksOut>1229437440000</pproTicksOut>
						<alphatype>none</alphatype>
						<pixelaspectratio>square</pixelaspectratio>
						<anamorphic>FALSE</anamorphic>
						<file id="file-42">
							<name>delfin-191016-2017_003.mxf</name>
							<pathurl>file://localhost/Volumes/Vaagen/Utveksling/Natur/Naturlig%20helaften%20fra%20Oslo/Transcoded_Copy%20of%20En%20Helaften%20MASTER/delfin-191016-2017_003.mxf</pathurl>
							<rate>
								<timebase>25</timebase>
								<ntsc>FALSE</ntsc>
							</rate>
							<duration>146</duration>
							<timecode>
								<rate>
									<timebase>25</timebase>
									<ntsc>FALSE</ntsc>
								</rate>
								<string>11:04:14:19</string>
								<frame>996369</frame>
								<displayformat>NDF</displayformat>
								<reel>
									<name></name>
								</reel>
							</timecode>
							<media>
								<video>
									<samplecharacteristics>
										<rate>
											<timebase>25</timebase>
											<ntsc>FALSE</ntsc>
										</rate>
										<width>1920</width>
										<height>1080</height>
										<anamorphic>FALSE</anamorphic>
										<pixelaspectratio>square</pixelaspectratio>
										<fielddominance>upper</fielddominance>
									</samplecharacteristics>
								</video>
								<audio>
									<samplecharacteristics>
										<depth>16</depth>
										<samplerate>48000</samplerate>
									</samplecharacteristics>
									<channelcount>8</channelcount>
								</audio>
							</media>
						</file>
						<link>
							<linkclipref>clipitem-53</linkclipref>
							<mediatype>video</mediatype>
							<trackindex>1</trackindex>
							<clipindex>53</clipindex>
						</link>
						<link>
							<linkclipref>clipitem-527</linkclipref>
							<mediatype>audio</mediatype>
							<trackindex>1</trackindex>
							<clipindex>26</clipindex>
							<groupindex>1</groupindex>
						</link>
						<link>
							<linkclipref>clipitem-620</linkclipref>
							<mediatype>audio</mediatype>
							<trackindex>3</trackindex>
							<clipindex>26</clipindex>
							<groupindex>1</groupindex>
						</link>
						<link>
							<linkclipref>clipitem-677</linkclipref>
							<mediatype>audio</mediatype>
							<trackindex>5</trackindex>
							<clipindex>18</clipindex>
							<groupindex>1</groupindex>
						</link>
						<link>
							<linkclipref>clipitem-703</linkclipref>
							<mediatype>audio</mediatype>
							<trackindex>7</trackindex>
							<clipindex>9</clipindex>
							<groupindex>1</groupindex>
						</link>
						<logginginfo>
							<description></description>
							<scene></scene>
							<shottake></shottake>
							<lognote></lognote>
						</logginginfo>
						<labels>
							<label2>Iris</label2>
						</labels>
					</clipitem>
					<clipitem id="clipitem-54">
						<masterclipid>masterclip-43</masterclipid>
						<name>delfin-191016-2017.mxf</name>
						<enabled>TRUE</enabled>
						<duration>233</duration>
						<rate>
							<timebase>25</timebase>
							<ntsc>FALSE</ntsc>
						</rate>
						<start>14574</start>
						<end>14656</end>
						<in>25</in>
						<out>107</out>
						<pproTicksIn>254016000000</pproTicksIn>
						<pproTicksOut>1087188480000</pproTicksOut>
						<alphatype>none</alphatype>
						<pixelaspectratio>square</pixelaspectratio>
						<anamorphic>FALSE</anamorphic>
						<file id="file-43">
							<name>delfin-191016-2017_001.mxf</name>
							<pathurl>file://localhost/Volumes/Vaagen/Utveksling/Natur/Naturlig%20helaften%20fra%20Oslo/Transcoded_Copy%20of%20En%20Helaften%20MASTER/delfin-191016-2017_001.mxf</pathurl>
							<rate>
								<timebase>25</timebase>
								<ntsc>FALSE</ntsc>
							</rate>
							<duration>233</duration>
							<timecode>
								<rate>
									<timebase>25</timebase>
									<ntsc>FALSE</ntsc>
								</rate>
								<string>11:04:29:09</string>
								<frame>996734</frame>
								<displayformat>NDF</displayformat>
								<reel>
									<name></name>
								</reel>
							</timecode>
							<media>
								<video>
									<samplecharacteristics>
										<rate>
											<timebase>25</timebase>
											<ntsc>FALSE</ntsc>
										</rate>
										<width>1920</width>
										<height>1080</height>
										<anamorphic>FALSE</anamorphic>
										<pixelaspectratio>square</pixelaspectratio>
										<fielddominance>upper</fielddominance>
									</samplecharacteristics>
								</video>
								<audio>
									<samplecharacteristics>
										<depth>16</depth>
										<samplerate>48000</samplerate>
									</samplecharacteristics>
									<channelcount>8</channelcount>
								</audio>
							</media>
						</file>
						<link>
							<linkclipref>clipitem-54</linkclipref>
							<mediatype>video</mediatype>
							<trackindex>1</trackindex>
							<clipindex>54</clipindex>
						</link>
						<link>
							<linkclipref>clipitem-528</linkclipref>
							<mediatype>audio</mediatype>
							<trackindex>1</trackindex>
							<clipindex>27</clipindex>
							<groupindex>1</groupindex>
						</link>
						<link>
							<linkclipref>clipitem-621</linkclipref>
							<mediatype>audio</mediatype>
							<trackindex>3</trackindex>
							<clipindex>27</clipindex>
							<groupindex>1</groupindex>
						</link>
						<link>
							<linkclipref>clipitem-678</linkclipref>
							<mediatype>audio</mediatype>
							<trackindex>5</trackindex>
							<clipindex>19</clipindex>
							<groupindex>1</groupindex>
						</link>
						<link>
							<linkclipref>clipitem-704</linkclipref>
							<mediatype>audio</mediatype>
							<trackindex>7</trackindex>
							<clipindex>10</clipindex>
							<groupindex>1</groupindex>
						</link>
						<logginginfo>
							<description></description>
							<scene></scene>
							<shottake></shottake>
							<lognote></lognote>
						</logginginfo>
						<labels>
							<label2>Iris</label2>
						</labels>
					</clipitem>
					<clipitem id="clipitem-55">
						<masterclipid>masterclip-43</masterclipid>
						<name>delfin-191016-2017.mxf</name>
						<enabled>TRUE</enabled>
						<duration>233</duration>
						<rate>
							<timebase>25</timebase>
							<ntsc>FALSE</ntsc>
						</rate>
						<start>14663</start>
						<end>14722</end>
						<in>149</in>
						<out>208</out>
						<pproTicksIn>1513935360000</pproTicksIn>
						<pproTicksOut>2113413120000</pproTicksOut>
						<alphatype>none</alphatype>
						<file id="file-43"/>
						<logginginfo>
							<description></description>
							<scene></scene>
							<shottake></shottake>
							<lognote></lognote>
						</logginginfo>
						<labels>
							<label2>Iris</label2>
						</labels>
					</clipitem>
					<clipitem id="clipitem-56">
						<masterclipid>masterclip-44</masterclipid>
						<name>delfin-191016-2021.mxf</name>
						<enabled>TRUE</enabled>
						<duration>346</duration>
						<rate>
							<timebase>25</timebase>
							<ntsc>FALSE</ntsc>
						</rate>
						<start>15155</start>
						<end>15465</end>
						<in>11</in>
						<out>321</out>
						<pproTicksIn>111767040000</pproTicksIn>
						<pproTicksOut>3261565440000</pproTicksOut>
						<alphatype>none</alphatype>
						<pixelaspectratio>square</pixelaspectratio>
						<anamorphic>FALSE</anamorphic>
						<file id="file-44">
							<name>delfin-191016-2021_001.mxf</name>
							<pathurl>file://localhost/Volumes/Vaagen/Utveksling/Natur/Naturlig%20helaften%20fra%20Oslo/Transcoded_Copy%20of%20En%20Helaften%20MASTER/delfin-191016-2021_001.mxf</pathurl>
							<rate>
								<timebase>25</timebase>
								<ntsc>FALSE</ntsc>
							</rate>
							<duration>346</duration>
							<timecode>
								<rate>
									<timebase>25</timebase>
									<ntsc>FALSE</ntsc>
								</rate>
								<string>11:26:23:07</string>
								<frame>1029582</frame>
								<displayformat>NDF</displayformat>
								<reel>
									<name></name>
								</reel>
							</timecode>
							<media>
								<video>
									<samplecharacteristics>
										<rate>
											<timebase>25</timebase>
											<ntsc>FALSE</ntsc>
										</rate>
										<width>1920</width>
										<height>1080</height>
										<anamorphic>FALSE</anamorphic>
										<pixelaspectratio>square</pixelaspectratio>
										<fielddominance>upper</fielddominance>
									</samplecharacteristics>
								</video>
								<audio>
									<samplecharacteristics>
										<depth>16</depth>
										<samplerate>48000</samplerate>
									</samplecharacteristics>
									<channelcount>8</channelcount>
								</audio>
							</media>
						</file>
						<link>
							<linkclipref>clipitem-56</linkclipref>
							<mediatype>video</mediatype>
							<trackindex>1</trackindex>
							<clipindex>56</clipindex>
						</link>
						<link>
							<linkclipref>clipitem-531</linkclipref>
							<mediatype>audio</mediatype>
							<trackindex>1</trackindex>
							<clipindex>32</clipindex>
							<groupindex>1</groupindex>
						</link>
						<link>
							<linkclipref>clipitem-624</linkclipref>
							<mediatype>audio</mediatype>
							<trackindex>3</trackindex>
							<clipindex>32</clipindex>
							<groupindex>1</groupindex>
						</link>
						<link>
							<linkclipref>clipitem-681</linkclipref>
							<mediatype>audio</mediatype>
							<trackindex>5</trackindex>
							<clipindex>24</clipindex>
							<groupindex>1</groupindex>
						</link>
						<link>
							<linkclipref>clipitem-707</linkclipref>
							<mediatype>audio</mediatype>
							<trackindex>7</trackindex>
							<clipindex>16</clipindex>
							<groupindex>1</groupindex>
						</link>
						<logginginfo>
							<description></description>
							<scene></scene>
							<shottake></shottake>
							<lognote></lognote>
						</logginginfo>
						<labels>
							<label2>Iris</label2>
						</labels>
					</clipitem>
					<clipitem id="clipitem-57">
						<masterclipid>masterclip-45</masterclipid>
						<name>delfin-191016-2021.mxf</name>
						<enabled>TRUE</enabled>
						<duration>290</duration>
						<rate>
							<timebase>25</timebase>
							<ntsc>FALSE</ntsc>
						</rate>
						<start>15465</start>
						<end>15710</end>
						<in>25</in>
						<out>270</out>
						<pproTicksIn>254016000000</pproTicksIn>
						<pproTicksOut>2743372800000</pproTicksOut>
						<alphatype>none</alphatype>
						<pixelaspectratio>square</pixelaspectratio>
						<anamorphic>FALSE</anamorphic>
						<file id="file-45">
							<name>delfin-191016-2021_002.mxf</name>
							<pathurl>file://localhost/Volumes/Vaagen/Utveksling/Natur/Naturlig%20helaften%20fra%20Oslo/Transcoded_Copy%20of%20En%20Helaften%20MASTER/delfin-191016-2021_002.mxf</pathurl>
							<rate>
								<timebase>25</timebase>
								<ntsc>FALSE</ntsc>
							</rate>
							<duration>290</duration>
							<timecode>
								<rate>
									<timebase>25</timebase>
									<ntsc>FALSE</ntsc>
								</rate>
								<string>11:26:52:10</string>
								<frame>1030310</frame>
								<displayformat>NDF</displayformat>
								<reel>
									<name></name>
								</reel>
							</timecode>
							<media>
								<video>
									<samplecharacteristics>
										<rate>
											<timebase>25</timebase>
											<ntsc>FALSE</ntsc>
										</rate>
										<width>1920</width>
										<height>1080</height>
										<anamorphic>FALSE</anamorphic>
										<pixelaspectratio>square</pixelaspectratio>
										<fielddominance>upper</fielddominance>
									</samplecharacteristics>
								</video>
								<audio>
									<samplecharacteristics>
										<depth>16</depth>
										<samplerate>48000</samplerate>
									</samplecharacteristics>
									<channelcount>8</channelcount>
								</audio>
							</media>
						</file>
						<link>
							<linkclipref>clipitem-57</linkclipref>
							<mediatype>video</mediatype>
							<trackindex>1</trackindex>
							<clipindex>57</clipindex>
						</link>
						<link>
							<linkclipref>clipitem-532</linkclipref>
							<mediatype>audio</mediatype>
							<trackindex>1</trackindex>
							<clipindex>34</clipindex>
							<groupindex>1</groupindex>
						</link>
						<link>
							<linkclipref>clipitem-625</linkclipref>
							<mediatype>audio</mediatype>
							<trackindex>3</trackindex>
							<clipindex>33</clipindex>
							<groupindex>1</groupindex>
						</link>
						<link>
							<linkclipref>clipitem-682</linkclipref>
							<mediatype>audio</mediatype>
							<trackindex>5</trackindex>
							<clipindex>25</clipindex>
							<groupindex>1</groupindex>
						</link>
						<link>
							<linkclipref>clipitem-708</linkclipref>
							<mediatype>audio</mediatype>
							<trackindex>7</trackindex>
							<clipindex>18</clipindex>
							<groupindex>1</groupindex>
						</link>
						<logginginfo>
							<description></description>
							<scene></scene>
							<shottake></shottake>
							<lognote></lognote>
						</logginginfo>
						<labels>
							<label2>Iris</label2>
						</labels>
					</clipitem>
					<clipitem id="clipitem-58">
						<masterclipid>masterclip-46</masterclipid>
						<name>delfin-191016-1008.mxf</name>
						<enabled>TRUE</enabled>
						<duration>575</duration>
						<rate>
							<timebase>25</timebase>
							<ntsc>FALSE</ntsc>
						</rate>
						<start>15710</start>
						<end>16230</end>
						<in>30</in>
						<out>550</out>
						<pproTicksIn>304819200000</pproTicksIn>
						<pproTicksOut>5588352000000</pproTicksOut>
						<alphatype>none</alphatype>
						<pixelaspectratio>square</pixelaspectratio>
						<anamorphic>FALSE</anamorphic>
						<file id="file-46">
							<name>delfin-191016-1008.mxf</name>
							<pathurl>file://localhost/Volumes/Vaagen/Utveksling/Natur/Naturlig%20helaften%20fra%20Oslo/Transcoded_Copy%20of%20En%20Helaften%20MASTER/delfin-191016-1008.mxf</pathurl>
							<rate>
								<timebase>25</timebase>
								<ntsc>FALSE</ntsc>
							</rate>
							<duration>575</duration>
							<timecode>
								<rate>
									<timebase>25</timebase>
									<ntsc>FALSE</ntsc>
								</rate>
								<string>12:06:13:12</string>
								<frame>1089337</frame>
								<displayformat>NDF</displayformat>
								<reel>
									<name></name>
								</reel>
							</timecode>
							<media>
								<video>
									<samplecharacteristics>
										<rate>
											<timebase>25</timebase>
											<ntsc>FALSE</ntsc>
										</rate>
										<width>1920</width>
										<height>1080</height>
										<anamorphic>FALSE</anamorphic>
										<pixelaspectratio>square</pixelaspectratio>
										<fielddominance>upper</fielddominance>
									</samplecharacteristics>
								</video>
								<audio>
									<samplecharacteristics>
										<depth>16</depth>
										<samplerate>48000</samplerate>
									</samplecharacteristics>
									<channelcount>8</channelcount>
								</audio>
							</media>
						</file>
						<logginginfo>
							<description></description>
							<scene></scene>
							<shottake></shottake>
							<lognote></lognote>
						</logginginfo>
						<labels>
							<label2>Iris</label2>
						</labels>
					</clipitem>
					<clipitem id="clipitem-59">
						<masterclipid>masterclip-30</masterclipid>
						<name>2015-12-19 11.39.19.mp4</name>
						<enabled>TRUE</enabled>
						<duration>2636</duration>
						<rate>
							<timebase>25</timebase>
							<ntsc>FALSE</ntsc>
						</rate>
						<start>16230</start>
						<end>16449</end>
						<in>1905</in>
						<out>2124</out>
						<pproTicksIn>19356019200000</pproTicksIn>
						<pproTicksOut>21581199360000</pproTicksOut>
						<alphatype>black</alphatype>
						<file id="file-30"/>
							<filter>
								<effect>
									<name>Basic Motion</name>
									<effectid>basic</effectid>
									<effectcategory>motion</effectcategory>
									<effecttype>motion</effecttype>
									<mediatype>video</mediatype>
									<parameter authoringApp="PremierePro">
										<parameterid>scale</parameterid>
										<name>Scale</name>
										<valuemin>0</valuemin>
										<valuemax>1000</valuemax>
										<value>325</value>
									</parameter>
									<parameter authoringApp="PremierePro">
										<parameterid>rotation</parameterid>
										<name>Rotation</name>
										<valuemin>-8640</valuemin>
										<valuemax>8640</valuemax>
										<value>0</value>
									</parameter>
									<parameter authoringApp="PremierePro">
										<parameterid>center</parameterid>
										<name>Center</name>
										<value>
											<horiz>0</horiz>
											<vert>0</vert>
										</value>
									</parameter>
									<parameter authoringApp="PremierePro">
										<parameterid>centerOffset</parameterid>
										<name>Anchor Point</name>
										<value>
											<horiz>0</horiz>
											<vert>0</vert>
										</value>
									</parameter>
								</effect>
							</filter>
							<filter>
								<effect>
									<name>Opacity</name>
									<effectid>opacity</effectid>
									<effectcategory>motion</effectcategory>
									<effecttype>motion</effecttype>
									<mediatype>video</mediatype>
									<parameter authoringApp="PremierePro">
										<parameterid>opacity</parameterid>
										<name>opacity</name>
										<valuemin>0</valuemin>
										<valuemax>100</valuemax>
										<value>100</value>
										<keyframe>
											<when>-36900</when>
											<value>60</value>
										</keyframe>
										<keyframe>
											<when>1928</when>
											<value>25</value>
										</keyframe>
									</parameter>
								</effect>
							</filter>
							<filter>
								<effect>
									<name>Gaussian Blur</name>
									<effectid>Gaussian Blur</effectid>
									<effectcategory>Blur</effectcategory>
									<effecttype>motion</effecttype>
									<mediatype>video</mediatype>
									<parameter authoringApp="PremierePro">
										<parameterid>radius</parameterid>
										<name>Radius</name>
										<valuemin>0</valuemin>
										<valuemax>100</valuemax>
										<value>0</value>
									</parameter>
								</effect>
							</filter>
							<marker>
								<comment></comment>
								<name></name>
								<in>1131</in>
								<out>-1</out>
							</marker>
							<marker>
								<comment></comment>
								<name></name>
								<in>667</in>
								<out>-1</out>
							</marker>
						<link>
							<linkclipref>clipitem-59</linkclipref>
							<mediatype>video</mediatype>
							<trackindex>1</trackindex>
							<clipindex>59</clipindex>
						</link>
						<link>
							<linkclipref>clipitem-927</linkclipref>
							<mediatype>audio</mediatype>
							<trackindex>10</trackindex>
							<clipindex>25</clipindex>
							<groupindex>1</groupindex>
						</link>
						<link>
							<linkclipref>clipitem-1067</linkclipref>
							<mediatype>audio</mediatype>
							<trackindex>11</trackindex>
							<clipindex>25</clipindex>
							<groupindex>1</groupindex>
						</link>
						<logginginfo>
							<description></description>
							<scene></scene>
							<shottake></shottake>
							<lognote></lognote>
						</logginginfo>
						<labels>
							<label2>Iris</label2>
						</labels>
					</clipitem>
					<clipitem id="clipitem-60">
						<masterclipid>masterclip-47</masterclipid>
						<name>IMG_4222.mp4</name>
						<enabled>TRUE</enabled>
						<duration>222</duration>
						<rate>
							<timebase>25</timebase>
							<ntsc>FALSE</ntsc>
						</rate>
						<start>19614</start>
						<end>19748</end>
						<in>0</in>
						<out>134</out>
						<pproTicksIn>0</pproTicksIn>
						<pproTicksOut>1361525760000</pproTicksOut>
						<alphatype>black</alphatype>
						<pixelaspectratio>square</pixelaspectratio>
						<anamorphic>FALSE</anamorphic>
						<file id="file-47">
							<name>IMG_4222.mp4</name>
							<pathurl>file://localhost/Volumes/Vaagen/Utveksling/Natur/Naturlig%20helaften%20fra%20Oslo/Copied_Copy%20of%20En%20Helaften%20MASTER_002/IMG_4222.mp4</pathurl>
							<rate>
								<timebase>30</timebase>
								<ntsc>FALSE</ntsc>
							</rate>
							<duration>267</duration>
							<timecode>
								<rate>
									<timebase>30</timebase>
									<ntsc>FALSE</ntsc>
								</rate>
								<string>00:00:00:00</string>
								<frame>0</frame>
								<displayformat>NDF</displayformat>
								<reel>
									<name></name>
								</reel>
							</timecode>
							<media>
								<video>
									<samplecharacteristics>
										<rate>
											<timebase>30</timebase>
											<ntsc>FALSE</ntsc>
										</rate>
										<width>720</width>
										<height>1280</height>
										<anamorphic>FALSE</anamorphic>
										<pixelaspectratio>square</pixelaspectratio>
										<fielddominance>none</fielddominance>
									</samplecharacteristics>
								</video>
								<audio>
									<samplecharacteristics>
										<depth>16</depth>
										<samplerate>44100</samplerate>
									</samplecharacteristics>
									<channelcount>1</channelcount>
									<audiochannel>
										<sourcechannel>1</sourcechannel>
									</audiochannel>
								</audio>
							</media>
						</file>
							<filter>
								<effect>
									<name>Basic Motion</name>
									<effectid>basic</effectid>
									<effectcategory>motion</effectcategory>
									<effecttype>motion</effecttype>
									<mediatype>video</mediatype>
									<parameter authoringApp="PremierePro">
										<parameterid>scale</parameterid>
										<name>Scale</name>
										<valuemin>0</valuemin>
										<valuemax>1000</valuemax>
										<value>325</value>
									</parameter>
									<parameter authoringApp="PremierePro">
										<parameterid>rotation</parameterid>
										<name>Rotation</name>
										<valuemin>-8640</valuemin>
										<valuemax>8640</valuemax>
										<value>0</value>
									</parameter>
									<parameter authoringApp="PremierePro">
										<parameterid>center</parameterid>
										<name>Center</name>
										<value>
											<horiz>0</horiz>
											<vert>0</vert>
										</value>
									</parameter>
									<parameter authoringApp="PremierePro">
										<parameterid>centerOffset</parameterid>
										<name>Anchor Point</name>
										<value>
											<horiz>0</horiz>
											<vert>0</vert>
										</value>
									</parameter>
								</effect>
							</filter>
							<filter>
								<effect>
									<name>Opacity</name>
									<effectid>opacity</effectid>
									<effectcategory>motion</effectcategory>
									<effecttype>motion</effecttype>
									<mediatype>video</mediatype>
									<parameter authoringApp="PremierePro">
										<parameterid>opacity</parameterid>
										<name>opacity</name>
										<valuemin>0</valuemin>
										<valuemax>100</valuemax>
										<value>100</value>
										<keyframe>
											<when>-15072</when>
											<value>60</value>
										</keyframe>
										<keyframe>
											<when>9</when>
											<value>25</value>
										</keyframe>
									</parameter>
								</effect>
							</filter>
							<filter>
								<effect>
									<name>Gaussian Blur</name>
									<effectid>Gaussian Blur</effectid>
									<effectcategory>Blur</effectcategory>
									<effecttype>motion</effecttype>
									<mediatype>video</mediatype>
									<parameter authoringApp="PremierePro">
										<parameterid>radius</parameterid>
										<name>Radius</name>
										<valuemin>0</valuemin>
										<valuemax>100</valuemax>
										<value>0</value>
									</parameter>
								</effect>
							</filter>
						<link>
							<linkclipref>clipitem-60</linkclipref>
							<mediatype>video</mediatype>
							<trackindex>1</trackindex>
							<clipindex>60</clipindex>
						</link>
						<link>
							<linkclipref>clipitem-535</linkclipref>
							<mediatype>audio</mediatype>
							<trackindex>1</trackindex>
							<clipindex>37</clipindex>
							<groupindex>1</groupindex>
						</link>
						<logginginfo>
							<description></description>
							<scene></scene>
							<shottake></shottake>
							<lognote></lognote>
						</logginginfo>
						<labels>
							<label2>Iris</label2>
						</labels>
					</clipitem>
					<clipitem id="clipitem-61">
						<masterclipid>masterclip-48</masterclipid>
						<name>IMG_4223.mp4</name>
						<enabled>TRUE</enabled>
						<duration>250</duration>
						<rate>
							<timebase>25</timebase>
							<ntsc>FALSE</ntsc>
						</rate>
						<start>19748</start>
						<end>19978</end>
						<in>0</in>
						<out>230</out>
						<pproTicksIn>0</pproTicksIn>
						<pproTicksOut>2336947200000</pproTicksOut>
						<alphatype>black</alphatype>
						<pixelaspectratio>square</pixelaspectratio>
						<anamorphic>FALSE</anamorphic>
						<file id="file-48">
							<name>IMG_4223.mp4</name>
							<pathurl>file://localhost/Volumes/Vaagen/Utveksling/Natur/Naturlig%20helaften%20fra%20Oslo/Copied_Copy%20of%20En%20Helaften%20MASTER_002/IMG_4223.mp4</pathurl>
							<rate>
								<timebase>30</timebase>
								<ntsc>FALSE</ntsc>
							</rate>
							<duration>301</duration>
							<timecode>
								<rate>
									<timebase>30</timebase>
									<ntsc>FALSE</ntsc>
								</rate>
								<string>00:00:00:00</string>
								<frame>0</frame>
								<displayformat>NDF</displayformat>
								<reel>
									<name></name>
								</reel>
							</timecode>
							<media>
								<video>
									<samplecharacteristics>
										<rate>
											<timebase>30</timebase>
											<ntsc>FALSE</ntsc>
										</rate>
										<width>1280</width>
										<height>720</height>
										<anamorphic>FALSE</anamorphic>
										<pixelaspectratio>square</pixelaspectratio>
										<fielddominance>none</fielddominance>
									</samplecharacteristics>
								</video>
								<audio>
									<samplecharacteristics>
										<depth>16</depth>
										<samplerate>44100</samplerate>
									</samplecharacteristics>
									<channelcount>1</channelcount>
									<audiochannel>
										<sourcechannel>1</sourcechannel>
									</audiochannel>
								</audio>
							</media>
						</file>
						<link>
							<linkclipref>clipitem-61</linkclipref>
							<mediatype>video</mediatype>
							<trackindex>1</trackindex>
							<clipindex>61</clipindex>
						</link>
						<link>
							<linkclipref>clipitem-536</linkclipref>
							<mediatype>audio</mediatype>
							<trackindex>1</trackindex>
							<clipindex>38</clipindex>
							<groupindex>1</groupindex>
						</link>
						<logginginfo>
							<description></description>
							<scene></scene>
							<shottake></shottake>
							<lognote></lognote>
						</logginginfo>
						<labels>
							<label2>Iris</label2>
						</labels>
					</clipitem>
					<clipitem id="clipitem-62">
						<masterclipid>masterclip-49</masterclipid>
						<name>20160520_075448.mp4</name>
						<enabled>TRUE</enabled>
						<duration>5580</duration>
						<rate>
							<timebase>25</timebase>
							<ntsc>FALSE</ntsc>
						</rate>
						<start>19978</start>
						<end>20156</end>
						<in>1955</in>
						<out>2133</out>
						<pproTicksIn>19864051200000</pproTicksIn>
						<pproTicksOut>21672645120000</pproTicksOut>
						<alphatype>black</alphatype>
						<pixelaspectratio>square</pixelaspectratio>
						<anamorphic>FALSE</anamorphic>
						<file id="file-49">
							<name>20160520_075448.mp4</name>
							<pathurl>file://localhost/Volumes/Vaagen/Utveksling/Natur/Naturlig%20helaften%20fra%20Oslo/Copied_Copy%20of%20En%20Helaften%20MASTER_002/20160520_075448.mp4</pathurl>
							<rate>
								<timebase>30</timebase>
								<ntsc>FALSE</ntsc>
							</rate>
							<duration>6698</duration>
							<timecode>
								<rate>
									<timebase>30</timebase>
									<ntsc>FALSE</ntsc>
								</rate>
								<string>00:00:00:00</string>
								<frame>0</frame>
								<displayformat>NDF</displayformat>
								<reel>
									<name></name>
								</reel>
							</timecode>
							<media>
								<video>
									<samplecharacteristics>
										<rate>
											<timebase>30</timebase>
											<ntsc>FALSE</ntsc>
										</rate>
										<width>1080</width>
										<height>1920</height>
										<anamorphic>FALSE</anamorphic>
										<pixelaspectratio>square</pixelaspectratio>
										<fielddominance>none</fielddominance>
									</samplecharacteristics>
								</video>
								<audio>
									<samplecharacteristics>
										<depth>16</depth>
										<samplerate>48000</samplerate>
									</samplecharacteristics>
									<channelcount>2</channelcount>
								</audio>
							</media>
						</file>
							<filter>
								<effect>
									<name>Basic Motion</name>
									<effectid>basic</effectid>
									<effectcategory>motion</effectcategory>
									<effecttype>motion</effecttype>
									<mediatype>video</mediatype>
									<parameter authoringApp="PremierePro">
										<parameterid>scale</parameterid>
										<name>Scale</name>
										<valuemin>0</valuemin>
										<valuemax>1000</valuemax>
										<value>325</value>
									</parameter>
									<parameter authoringApp="PremierePro">
										<parameterid>rotation</parameterid>
										<name>Rotation</name>
										<valuemin>-8640</valuemin>
										<valuemax>8640</valuemax>
										<value>0</value>
									</parameter>
									<parameter authoringApp="PremierePro">
										<parameterid>center</parameterid>
										<name>Center</name>
										<value>
											<horiz>0</horiz>
											<vert>0</vert>
										</value>
									</parameter>
									<parameter authoringApp="PremierePro">
										<parameterid>centerOffset</parameterid>
										<name>Anchor Point</name>
										<value>
											<horiz>0</horiz>
											<vert>0</vert>
										</value>
									</parameter>
								</effect>
							</filter>
							<filter>
								<effect>
									<name>Opacity</name>
									<effectid>opacity</effectid>
									<effectcategory>motion</effectcategory>
									<effecttype>motion</effecttype>
									<mediatype>video</mediatype>
									<parameter authoringApp="PremierePro">
										<parameterid>opacity</parameterid>
										<name>opacity</name>
										<valuemin>0</valuemin>
										<valuemax>100</valuemax>
										<value>100</value>
										<keyframe>
											<when>-18066</when>
											<value>60</value>
										</keyframe>
										<keyframe>
											<when>1967</when>
											<value>25</value>
										</keyframe>
									</parameter>
								</effect>
							</filter>
							<filter>
								<effect>
									<name>Gaussian Blur</name>
									<effectid>Gaussian Blur</effectid>
									<effectcategory>Blur</effectcategory>
									<effecttype>motion</effecttype>
									<mediatype>video</mediatype>
									<parameter authoringApp="PremierePro">
										<parameterid>radius</parameterid>
										<name>Radius</name>
										<valuemin>0</valuemin>
										<valuemax>100</valuemax>
										<value>0</value>
									</parameter>
								</effect>
							</filter>
							<marker>
								<comment></comment>
								<name></name>
								<in>5251</in>
								<out>-1</out>
							</marker>
						<link>
							<linkclipref>clipitem-62</linkclipref>
							<mediatype>video</mediatype>
							<trackindex>1</trackindex>
							<clipindex>62</clipindex>
						</link>
						<link>
							<linkclipref>clipitem-928</linkclipref>
							<mediatype>audio</mediatype>
							<trackindex>10</trackindex>
							<clipindex>26</clipindex>
							<groupindex>1</groupindex>
						</link>
						<link>
							<linkclipref>clipitem-1068</linkclipref>
							<mediatype>audio</mediatype>
							<trackindex>11</trackindex>
							<clipindex>26</clipindex>
							<groupindex>1</groupindex>
						</link>
						<logginginfo>
							<description></description>
							<scene></scene>
							<shottake></shottake>
							<lognote></lognote>
						</logginginfo>
						<labels>
							<label2>Iris</label2>
						</labels>
					</clipitem>
					<clipitem id="clipitem-63">
						<masterclipid>masterclip-50</masterclipid>
						<name>20160523_223257.mp4</name>
						<enabled>TRUE</enabled>
						<duration>1072</duration>
						<rate>
							<timebase>25</timebase>
							<ntsc>FALSE</ntsc>
						</rate>
						<start>20156</start>
						<end>20431</end>
						<in>13</in>
						<out>288</out>
						<pproTicksIn>132088320000</pproTicksIn>
						<pproTicksOut>2926264320000</pproTicksOut>
						<alphatype>black</alphatype>
						<pixelaspectratio>square</pixelaspectratio>
						<anamorphic>FALSE</anamorphic>
						<file id="file-50">
							<name>20160523_223257.mp4</name>
							<pathurl>file://localhost/Volumes/Vaagen/Utveksling/Natur/Naturlig%20helaften%20fra%20Oslo/Copied_Copy%20of%20En%20Helaften%20MASTER_002/20160523_223257.mp4</pathurl>
							<rate>
								<timebase>29</timebase>
								<ntsc>FALSE</ntsc>
							</rate>
							<duration>1287</duration>
							<timecode>
								<rate>
									<timebase>29</timebase>
									<ntsc>FALSE</ntsc>
								</rate>
								<string>00:00:00:00</string>
								<frame>0</frame>
								<displayformat>NDF</displayformat>
								<reel>
									<name></name>
								</reel>
							</timecode>
							<media>
								<video>
									<samplecharacteristics>
										<rate>
											<timebase>29</timebase>
											<ntsc>FALSE</ntsc>
										</rate>
										<width>1080</width>
										<height>1920</height>
										<anamorphic>FALSE</anamorphic>
										<pixelaspectratio>square</pixelaspectratio>
										<fielddominance>none</fielddominance>
									</samplecharacteristics>
								</video>
								<audio>
									<samplecharacteristics>
										<depth>16</depth>
										<samplerate>48000</samplerate>
									</samplecharacteristics>
									<channelcount>2</channelcount>
								</audio>
							</media>
						</file>
							<filter>
								<effect>
									<name>Basic Motion</name>
									<effectid>basic</effectid>
									<effectcategory>motion</effectcategory>
									<effecttype>motion</effecttype>
									<mediatype>video</mediatype>
									<parameter authoringApp="PremierePro">
										<parameterid>scale</parameterid>
										<name>Scale</name>
										<valuemin>0</valuemin>
										<valuemax>1000</valuemax>
										<value>325</value>
									</parameter>
									<parameter authoringApp="PremierePro">
										<parameterid>rotation</parameterid>
										<name>Rotation</name>
										<valuemin>-8640</valuemin>
										<valuemax>8640</valuemax>
										<value>0</value>
									</parameter>
									<parameter authoringApp="PremierePro">
										<parameterid>center</parameterid>
										<name>Center</name>
										<value>
											<horiz>0</horiz>
											<vert>0</vert>
										</value>
									</parameter>
									<parameter authoringApp="PremierePro">
										<parameterid>centerOffset</parameterid>
										<name>Anchor Point</name>
										<value>
											<horiz>0</horiz>
											<vert>0</vert>
										</value>
									</parameter>
								</effect>
							</filter>
							<filter>
								<effect>
									<name>Opacity</name>
									<effectid>opacity</effectid>
									<effectcategory>motion</effectcategory>
									<effecttype>motion</effecttype>
									<mediatype>video</mediatype>
									<parameter authoringApp="PremierePro">
										<parameterid>opacity</parameterid>
										<name>opacity</name>
										<valuemin>0</valuemin>
										<valuemax>100</valuemax>
										<value>100</value>
										<keyframe>
											<when>-30919</when>
											<value>60</value>
										</keyframe>
										<keyframe>
											<when>32</when>
											<value>25</value>
										</keyframe>
									</parameter>
								</effect>
							</filter>
							<filter>
								<effect>
									<name>Gaussian Blur</name>
									<effectid>Gaussian Blur</effectid>
									<effectcategory>Blur</effectcategory>
									<effecttype>motion</effecttype>
									<mediatype>video</mediatype>
									<parameter authoringApp="PremierePro">
										<parameterid>radius</parameterid>
										<name>Radius</name>
										<valuemin>0</valuemin>
										<valuemax>100</valuemax>
										<value>0</value>
									</parameter>
								</effect>
							</filter>
						<link>
							<linkclipref>clipitem-63</linkclipref>
							<mediatype>video</mediatype>
							<trackindex>1</trackindex>
							<clipindex>63</clipindex>
						</link>
						<link>
							<linkclipref>clipitem-929</linkclipref>
							<mediatype>audio</mediatype>
							<trackindex>10</trackindex>
							<clipindex>27</clipindex>
							<groupindex>1</groupindex>
						</link>
						<link>
							<linkclipref>clipitem-1069</linkclipref>
							<mediatype>audio</mediatype>
							<trackindex>11</trackindex>
							<clipindex>27</clipindex>
							<groupindex>1</groupindex>
						</link>
						<logginginfo>
							<description></description>
							<scene></scene>
							<shottake></shottake>
							<lognote></lognote>
						</logginginfo>
						<labels>
							<label2>Iris</label2>
						</labels>
					</clipitem>
					<clipitem id="clipitem-64">
						<masterclipid>masterclip-51</masterclipid>
						<name>AA274501.MXF</name>
						<enabled>TRUE</enabled>
						<duration>1212</duration>
						<rate>
							<timebase>25</timebase>
							<ntsc>FALSE</ntsc>
						</rate>
						<start>20431</start>
						<end>20760</end>
						<in>642</in>
						<out>971</out>
						<pproTicksIn>6523130880000</pproTicksIn>
						<pproTicksOut>9865981440000</pproTicksOut>
						<alphatype>none</alphatype>
						<pixelaspectratio>square</pixelaspectratio>
						<anamorphic>FALSE</anamorphic>
						<file id="file-51">
							<name>AA274501.MXF</name>
							<pathurl>file://localhost/Volumes/Vaagen/Utveksling/Natur/Naturlig%20helaften%20fra%20Oslo/Copied_Copy%20of%20En%20Helaften%20MASTER_002/AA274501.MXF</pathurl>
							<rate>
								<timebase>25</timebase>
								<ntsc>FALSE</ntsc>
							</rate>
							<duration>1212</duration>
							<timecode>
								<rate>
									<timebase>25</timebase>
									<ntsc>FALSE</ntsc>
								</rate>
								<string>12:24:38:05</string>
								<frame>1116955</frame>
								<displayformat>NDF</displayformat>
								<reel>
									<name></name>
								</reel>
							</timecode>
							<media>
								<video>
									<samplecharacteristics>
										<rate>
											<timebase>25</timebase>
											<ntsc>FALSE</ntsc>
										</rate>
										<width>1920</width>
										<height>1080</height>
										<anamorphic>FALSE</anamorphic>
										<pixelaspectratio>square</pixelaspectratio>
										<fielddominance>none</fielddominance>
									</samplecharacteristics>
								</video>
								<audio>
									<samplecharacteristics>
										<depth>16</depth>
										<samplerate>48000</samplerate>
									</samplecharacteristics>
									<channelcount>2</channelcount>
								</audio>
							</media>
						</file>
						<link>
							<linkclipref>clipitem-64</linkclipref>
							<mediatype>video</mediatype>
							<trackindex>1</trackindex>
							<clipindex>64</clipindex>
						</link>
						<link>
							<linkclipref>clipitem-538</linkclipref>
							<mediatype>audio</mediatype>
							<trackindex>1</trackindex>
							<clipindex>40</clipindex>
							<groupindex>1</groupindex>
						</link>
						<link>
							<linkclipref>clipitem-596</linkclipref>
							<mediatype>audio</mediatype>
							<trackindex>2</trackindex>
							<clipindex>11</clipindex>
							<groupindex>1</groupindex>
						</link>
						<link>
							<linkclipref>clipitem-930</linkclipref>
							<mediatype>audio</mediatype>
							<trackindex>10</trackindex>
							<clipindex>28</clipindex>
							<groupindex>1</groupindex>
						</link>
						<link>
							<linkclipref>clipitem-1070</linkclipref>
							<mediatype>audio</mediatype>
							<trackindex>11</trackindex>
							<clipindex>28</clipindex>
							<groupindex>1</groupindex>
						</link>
						<logginginfo>
							<description></description>
							<scene></scene>
							<shottake></shottake>
							<lognote></lognote>
						</logginginfo>
						<labels>
							<label2>Iris</label2>
						</labels>
					</clipitem>
					<clipitem id="clipitem-65">
						<masterclipid>masterclip-52</masterclipid>
						<name>AA275401.MXF</name>
						<enabled>TRUE</enabled>
						<duration>7896</duration>
						<rate>
							<timebase>25</timebase>
							<ntsc>FALSE</ntsc>
						</rate>
						<start>20760</start>
						<end>21241</end>
						<in>320</in>
						<out>801</out>
						<pproTicksIn>3251404800000</pproTicksIn>
						<pproTicksOut>8138672640000</pproTicksOut>
						<alphatype>none</alphatype>
						<pixelaspectratio>square</pixelaspectratio>
						<anamorphic>FALSE</anamorphic>
						<file id="file-52">
							<name>AA275401.MXF</name>
							<pathurl>file://localhost/Volumes/Vaagen/Utveksling/Natur/Naturlig%20helaften%20fra%20Oslo/Copied_Copy%20of%20En%20Helaften%20MASTER_002/AA275401.MXF</pathurl>
							<rate>
								<timebase>25</timebase>
								<ntsc>FALSE</ntsc>
							</rate>
							<duration>7896</duration>
							<timecode>
								<rate>
									<timebase>25</timebase>
									<ntsc>FALSE</ntsc>
								</rate>
								<string>12:53:19:02</string>
								<frame>1159977</frame>
								<displayformat>NDF</displayformat>
								<reel>
									<name></name>
								</reel>
							</timecode>
							<media>
								<video>
									<samplecharacteristics>
										<rate>
											<timebase>25</timebase>
											<ntsc>FALSE</ntsc>
										</rate>
										<width>1920</width>
										<height>1080</height>
										<anamorphic>FALSE</anamorphic>
										<pixelaspectratio>square</pixelaspectratio>
										<fielddominance>none</fielddominance>
									</samplecharacteristics>
								</video>
								<audio>
									<samplecharacteristics>
										<depth>16</depth>
										<samplerate>48000</samplerate>
									</samplecharacteristics>
									<channelcount>2</channelcount>
								</audio>
							</media>
						</file>
						<logginginfo>
							<description></description>
							<scene></scene>
							<shottake></shottake>
							<lognote></lognote>
						</logginginfo>
						<labels>
							<label2>Iris</label2>
						</labels>
					</clipitem>
					<clipitem id="clipitem-66">
						<masterclipid>masterclip-49</masterclipid>
						<name>20160520_075448.mp4</name>
						<enabled>TRUE</enabled>
						<duration>5580</duration>
						<rate>
							<timebase>25</timebase>
							<ntsc>FALSE</ntsc>
						</rate>
						<start>21241</start>
						<end>21454</end>
						<in>0</in>
						<out>213</out>
						<pproTicksIn>0</pproTicksIn>
						<pproTicksOut>2164216320000</pproTicksOut>
						<alphatype>black</alphatype>
						<file id="file-49"/>
							<filter>
								<effect>
									<name>Basic Motion</name>
									<effectid>basic</effectid>
									<effectcategory>motion</effectcategory>
									<effecttype>motion</effecttype>
									<mediatype>video</mediatype>
									<parameter authoringApp="PremierePro">
										<parameterid>scale</parameterid>
										<name>Scale</name>
										<valuemin>0</valuemin>
										<valuemax>1000</valuemax>
										<value>325</value>
									</parameter>
									<parameter authoringApp="PremierePro">
										<parameterid>rotation</parameterid>
										<name>Rotation</name>
										<valuemin>-8640</valuemin>
										<valuemax>8640</valuemax>
										<value>0</value>
									</parameter>
									<parameter authoringApp="PremierePro">
										<parameterid>center</parameterid>
										<name>Center</name>
										<value>
											<horiz>0</horiz>
											<vert>0</vert>
										</value>
									</parameter>
									<parameter authoringApp="PremierePro">
										<parameterid>centerOffset</parameterid>
										<name>Anchor Point</name>
										<value>
											<horiz>0</horiz>
											<vert>0</vert>
										</value>
									</parameter>
								</effect>
							</filter>
							<filter>
								<effect>
									<name>Opacity</name>
									<effectid>opacity</effectid>
									<effectcategory>motion</effectcategory>
									<effecttype>motion</effecttype>
									<mediatype>video</mediatype>
									<parameter authoringApp="PremierePro">
										<parameterid>opacity</parameterid>
										<name>opacity</name>
										<valuemin>0</valuemin>
										<valuemax>100</valuemax>
										<value>100</value>
										<keyframe>
											<when>-23958</when>
											<value>60</value>
										</keyframe>
										<keyframe>
											<when>14</when>
											<value>25</value>
										</keyframe>
									</parameter>
								</effect>
							</filter>
							<filter>
								<effect>
									<name>Gaussian Blur</name>
									<effectid>Gaussian Blur</effectid>
									<effectcategory>Blur</effectcategory>
									<effecttype>motion</effecttype>
									<mediatype>video</mediatype>
									<parameter authoringApp="PremierePro">
										<parameterid>radius</parameterid>
										<name>Radius</name>
										<valuemin>0</valuemin>
										<valuemax>100</valuemax>
										<value>0</value>
									</parameter>
								</effect>
							</filter>
							<marker>
								<comment></comment>
								<name></name>
								<in>5251</in>
								<out>-1</out>
							</marker>
						<logginginfo>
							<description></description>
							<scene></scene>
							<shottake></shottake>
							<lognote></lognote>
						</logginginfo>
						<labels>
							<label2>Iris</label2>
						</labels>
					</clipitem>
					<clipitem id="clipitem-67">
						<masterclipid>masterclip-53</masterclipid>
						<name>AA274901.MXF</name>
						<enabled>TRUE</enabled>
						<duration>7896</duration>
						<rate>
							<timebase>25</timebase>
							<ntsc>FALSE</ntsc>
						</rate>
						<start>21454</start>
						<end>21581</end>
						<in>3810</in>
						<out>3937</out>
						<pproTicksIn>38712038400000</pproTicksIn>
						<pproTicksOut>40002439680000</pproTicksOut>
						<alphatype>none</alphatype>
						<pixelaspectratio>square</pixelaspectratio>
						<anamorphic>FALSE</anamorphic>
						<file id="file-53">
							<name>AA274901.MXF</name>
							<pathurl>file://localhost/Volumes/Vaagen/Utveksling/Natur/Naturlig%20helaften%20fra%20Oslo/Copied_Copy%20of%20En%20Helaften%20MASTER_002/AA274901.MXF</pathurl>
							<rate>
								<timebase>25</timebase>
								<ntsc>FALSE</ntsc>
							</rate>
							<duration>7896</duration>
							<timecode>
								<rate>
									<timebase>25</timebase>
									<ntsc>FALSE</ntsc>
								</rate>
								<string>12:36:35:02</string>
								<frame>1134877</frame>
								<displayformat>NDF</displayformat>
								<reel>
									<name></name>
								</reel>
							</timecode>
							<media>
								<video>
									<samplecharacteristics>
										<rate>
											<timebase>25</timebase>
											<ntsc>FALSE</ntsc>
										</rate>
										<width>1920</width>
										<height>1080</height>
										<anamorphic>FALSE</anamorphic>
										<pixelaspectratio>square</pixelaspectratio>
										<fielddominance>none</fielddominance>
									</samplecharacteristics>
								</video>
								<audio>
									<samplecharacteristics>
										<depth>16</depth>
										<samplerate>48000</samplerate>
									</samplecharacteristics>
									<channelcount>2</channelcount>
								</audio>
							</media>
						</file>
						<link>
							<linkclipref>clipitem-67</linkclipref>
							<mediatype>video</mediatype>
							<trackindex>1</trackindex>
							<clipindex>67</clipindex>
						</link>
						<link>
							<linkclipref>clipitem-739</linkclipref>
							<mediatype>audio</mediatype>
							<trackindex>8</trackindex>
							<clipindex>28</clipindex>
							<groupindex>1</groupindex>
						</link>
						<link>
							<linkclipref>clipitem-835</linkclipref>
							<mediatype>audio</mediatype>
							<trackindex>9</trackindex>
							<clipindex>28</clipindex>
							<groupindex>1</groupindex>
						</link>
						<logginginfo>
							<description></description>
							<scene></scene>
							<shottake></shottake>
							<lognote></lognote>
						</logginginfo>
						<labels>
							<label2>Iris</label2>
						</labels>
					</clipitem>
					<clipitem id="clipitem-68">
						<masterclipid>masterclip-54</masterclipid>
						<name>20160522_190802.mp4</name>
						<enabled>TRUE</enabled>
						<duration>736</duration>
						<rate>
							<timebase>25</timebase>
							<ntsc>FALSE</ntsc>
						</rate>
						<start>21581</start>
						<end>21845</end>
						<in>37</in>
						<out>301</out>
						<pproTicksIn>375943680000</pproTicksIn>
						<pproTicksOut>3058352640000</pproTicksOut>
						<alphatype>black</alphatype>
						<pixelaspectratio>square</pixelaspectratio>
						<anamorphic>FALSE</anamorphic>
						<file id="file-54">
							<name>20160522_190802.mp4</name>
							<pathurl>file://localhost/Volumes/Vaagen/Utveksling/Natur/Naturlig%20helaften%20fra%20Oslo/Copied_Copy%20of%20En%20Helaften%20MASTER_002/20160522_190802.mp4</pathurl>
							<rate>
								<timebase>30</timebase>
								<ntsc>FALSE</ntsc>
							</rate>
							<duration>884</duration>
							<timecode>
								<rate>
									<timebase>30</timebase>
									<ntsc>FALSE</ntsc>
								</rate>
								<string>00:00:00:00</string>
								<frame>0</frame>
								<displayformat>NDF</displayformat>
								<reel>
									<name></name>
								</reel>
							</timecode>
							<media>
								<video>
									<samplecharacteristics>
										<rate>
											<timebase>30</timebase>
											<ntsc>FALSE</ntsc>
										</rate>
										<width>1080</width>
										<height>1920</height>
										<anamorphic>FALSE</anamorphic>
										<pixelaspectratio>square</pixelaspectratio>
										<fielddominance>none</fielddominance>
									</samplecharacteristics>
								</video>
								<audio>
									<samplecharacteristics>
										<depth>16</depth>
										<samplerate>48000</samplerate>
									</samplecharacteristics>
									<channelcount>2</channelcount>
								</audio>
							</media>
						</file>
							<filter>
								<effect>
									<name>Basic Motion</name>
									<effectid>basic</effectid>
									<effectcategory>motion</effectcategory>
									<effecttype>motion</effecttype>
									<mediatype>video</mediatype>
									<parameter authoringApp="PremierePro">
										<parameterid>scale</parameterid>
										<name>Scale</name>
										<valuemin>0</valuemin>
										<valuemax>1000</valuemax>
										<value>325</value>
									</parameter>
									<parameter authoringApp="PremierePro">
										<parameterid>rotation</parameterid>
										<name>Rotation</name>
										<valuemin>-8640</valuemin>
										<valuemax>8640</valuemax>
										<value>0</value>
									</parameter>
									<parameter authoringApp="PremierePro">
										<parameterid>center</parameterid>
										<name>Center</name>
										<value>
											<horiz>0</horiz>
											<vert>0</vert>
										</value>
									</parameter>
									<parameter authoringApp="PremierePro">
										<parameterid>centerOffset</parameterid>
										<name>Anchor Point</name>
										<value>
											<horiz>0</horiz>
											<vert>0</vert>
										</value>
									</parameter>
								</effect>
							</filter>
							<filter>
								<effect>
									<name>Opacity</name>
									<effectid>opacity</effectid>
									<effectcategory>motion</effectcategory>
									<effecttype>motion</effecttype>
									<mediatype>video</mediatype>
									<parameter authoringApp="PremierePro">
										<parameterid>opacity</parameterid>
										<name>opacity</name>
										<valuemin>0</valuemin>
										<valuemax>100</valuemax>
										<value>100</value>
										<keyframe>
											<when>-29657</when>
											<value>60</value>
										</keyframe>
										<keyframe>
											<when>55</when>
											<value>25</value>
										</keyframe>
									</parameter>
								</effect>
							</filter>
							<filter>
								<effect>
									<name>Gaussian Blur</name>
									<effectid>Gaussian Blur</effectid>
									<effectcategory>Blur</effectcategory>
									<effecttype>motion</effecttype>
									<mediatype>video</mediatype>
									<parameter authoringApp="PremierePro">
										<parameterid>radius</parameterid>
										<name>Radius</name>
										<valuemin>0</valuemin>
										<valuemax>100</valuemax>
										<value>0</value>
									</parameter>
								</effect>
							</filter>
						<link>
							<linkclipref>clipitem-68</linkclipref>
							<mediatype>video</mediatype>
							<trackindex>1</trackindex>
							<clipindex>68</clipindex>
						</link>
						<link>
							<linkclipref>clipitem-740</linkclipref>
							<mediatype>audio</mediatype>
							<trackindex>8</trackindex>
							<clipindex>29</clipindex>
							<groupindex>1</groupindex>
						</link>
						<link>
							<linkclipref>clipitem-836</linkclipref>
							<mediatype>audio</mediatype>
							<trackindex>9</trackindex>
							<clipindex>29</clipindex>
							<groupindex>1</groupindex>
						</link>
						<logginginfo>
							<description></description>
							<scene></scene>
							<shottake></shottake>
							<lognote></lognote>
						</logginginfo>
						<labels>
							<label2>Iris</label2>
						</labels>
					</clipitem>
					<clipitem id="clipitem-69">
						<masterclipid>masterclip-55</masterclipid>
						<name>20160516_113449.mp4</name>
						<enabled>TRUE</enabled>
						<duration>1056</duration>
						<rate>
							<timebase>25</timebase>
							<ntsc>FALSE</ntsc>
						</rate>
						<start>21845</start>
						<end>22124</end>
						<in>67</in>
						<out>346</out>
						<pproTicksIn>680762880000</pproTicksIn>
						<pproTicksOut>3515581440000</pproTicksOut>
						<alphatype>black</alphatype>
						<pixelaspectratio>square</pixelaspectratio>
						<anamorphic>FALSE</anamorphic>
						<file id="file-55">
							<name>20160516_113449.mp4</name>
							<pathurl>file://localhost/Volumes/Vaagen/Utveksling/Natur/Naturlig%20helaften%20fra%20Oslo/Copied_Copy%20of%20En%20Helaften%20MASTER_002/20160516_113449.mp4</pathurl>
							<rate>
								<timebase>30</timebase>
								<ntsc>FALSE</ntsc>
							</rate>
							<duration>1268</duration>
							<timecode>
								<rate>
									<timebase>30</timebase>
									<ntsc>FALSE</ntsc>
								</rate>
								<string>00:00:00:00</string>
								<frame>0</frame>
								<displayformat>NDF</displayformat>
								<reel>
									<name></name>
								</reel>
							</timecode>
							<media>
								<video>
									<samplecharacteristics>
										<rate>
											<timebase>30</timebase>
											<ntsc>FALSE</ntsc>
										</rate>
										<width>1080</width>
										<height>1920</height>
										<anamorphic>FALSE</anamorphic>
										<pixelaspectratio>square</pixelaspectratio>
										<fielddominance>none</fielddominance>
									</samplecharacteristics>
								</video>
								<audio>
									<samplecharacteristics>
										<depth>16</depth>
										<samplerate>48000</samplerate>
									</samplecharacteristics>
									<channelcount>2</channelcount>
								</audio>
							</media>
						</file>
							<filter>
								<effect>
									<name>Basic Motion</name>
									<effectid>basic</effectid>
									<effectcategory>motion</effectcategory>
									<effecttype>motion</effecttype>
									<mediatype>video</mediatype>
									<parameter authoringApp="PremierePro">
										<parameterid>scale</parameterid>
										<name>Scale</name>
										<valuemin>0</valuemin>
										<valuemax>1000</valuemax>
										<value>325</value>
									</parameter>
									<parameter authoringApp="PremierePro">
										<parameterid>rotation</parameterid>
										<name>Rotation</name>
										<valuemin>-8640</valuemin>
										<valuemax>8640</valuemax>
										<value>0</value>
									</parameter>
									<parameter authoringApp="PremierePro">
										<parameterid>center</parameterid>
										<name>Center</name>
										<value>
											<horiz>0</horiz>
											<vert>0</vert>
										</value>
									</parameter>
									<parameter authoringApp="PremierePro">
										<parameterid>centerOffset</parameterid>
										<name>Anchor Point</name>
										<value>
											<horiz>0</horiz>
											<vert>0</vert>
										</value>
									</parameter>
								</effect>
							</filter>
							<filter>
								<effect>
									<name>Opacity</name>
									<effectid>opacity</effectid>
									<effectcategory>motion</effectcategory>
									<effecttype>motion</effecttype>
									<mediatype>video</mediatype>
									<parameter authoringApp="PremierePro">
										<parameterid>opacity</parameterid>
										<name>opacity</name>
										<valuemin>0</valuemin>
										<valuemax>100</valuemax>
										<value>100</value>
										<keyframe>
											<when>-31315</when>
											<value>60</value>
										</keyframe>
										<keyframe>
											<when>86</when>
											<value>25</value>
										</keyframe>
									</parameter>
								</effect>
							</filter>
							<filter>
								<effect>
									<name>Gaussian Blur</name>
									<effectid>Gaussian Blur</effectid>
									<effectcategory>Blur</effectcategory>
									<effecttype>motion</effecttype>
									<mediatype>video</mediatype>
									<parameter authoringApp="PremierePro">
										<parameterid>radius</parameterid>
										<name>Radius</name>
										<valuemin>0</valuemin>
										<valuemax>100</valuemax>
										<value>0</value>
									</parameter>
								</effect>
							</filter>
						<link>
							<linkclipref>clipitem-69</linkclipref>
							<mediatype>video</mediatype>
							<trackindex>1</trackindex>
							<clipindex>69</clipindex>
						</link>
						<link>
							<linkclipref>clipitem-1364</linkclipref>
							<mediatype>audio</mediatype>
							<trackindex>14</trackindex>
							<clipindex>9</clipindex>
							<groupindex>1</groupindex>
						</link>
						<link>
							<linkclipref>clipitem-1396</linkclipref>
							<mediatype>audio</mediatype>
							<trackindex>15</trackindex>
							<clipindex>9</clipindex>
							<groupindex>1</groupindex>
						</link>
						<logginginfo>
							<description></description>
							<scene></scene>
							<shottake></shottake>
							<lognote></lognote>
						</logginginfo>
						<labels>
							<label2>Iris</label2>
						</labels>
					</clipitem>
					<clipitem id="clipitem-70">
						<masterclipid>masterclip-56</masterclipid>
						<name>20160514_185459.mp4</name>
						<enabled>TRUE</enabled>
						<duration>908</duration>
						<rate>
							<timebase>25</timebase>
							<ntsc>FALSE</ntsc>
						</rate>
						<start>22124</start>
						<end>22453</end>
						<in>25</in>
						<out>354</out>
						<pproTicksIn>254016000000</pproTicksIn>
						<pproTicksOut>3596866560000</pproTicksOut>
						<alphatype>black</alphatype>
						<pixelaspectratio>square</pixelaspectratio>
						<anamorphic>FALSE</anamorphic>
						<file id="file-56">
							<name>20160514_185459.mp4</name>
							<pathurl>file://localhost/Volumes/Vaagen/Utveksling/Natur/Naturlig%20helaften%20fra%20Oslo/Copied_Copy%20of%20En%20Helaften%20MASTER_002/20160514_185459.mp4</pathurl>
							<rate>
								<timebase>30</timebase>
								<ntsc>FALSE</ntsc>
							</rate>
							<duration>1090</duration>
							<timecode>
								<rate>
									<timebase>30</timebase>
									<ntsc>FALSE</ntsc>
								</rate>
								<string>00:00:00:00</string>
								<frame>0</frame>
								<displayformat>NDF</displayformat>
								<reel>
									<name></name>
								</reel>
							</timecode>
							<media>
								<video>
									<samplecharacteristics>
										<rate>
											<timebase>30</timebase>
											<ntsc>FALSE</ntsc>
										</rate>
										<width>1080</width>
										<height>1920</height>
										<anamorphic>FALSE</anamorphic>
										<pixelaspectratio>square</pixelaspectratio>
										<fielddominance>none</fielddominance>
									</samplecharacteristics>
								</video>
								<audio>
									<samplecharacteristics>
										<depth>16</depth>
										<samplerate>48000</samplerate>
									</samplecharacteristics>
									<channelcount>2</channelcount>
								</audio>
							</media>
						</file>
							<filter>
								<effect>
									<name>Basic Motion</name>
									<effectid>basic</effectid>
									<effectcategory>motion</effectcategory>
									<effecttype>motion</effecttype>
									<mediatype>video</mediatype>
									<parameter authoringApp="PremierePro">
										<parameterid>scale</parameterid>
										<name>Scale</name>
										<valuemin>0</valuemin>
										<valuemax>1000</valuemax>
										<value>325</value>
									</parameter>
									<parameter authoringApp="PremierePro">
										<parameterid>rotation</parameterid>
										<name>Rotation</name>
										<valuemin>-8640</valuemin>
										<valuemax>8640</valuemax>
										<value>0</value>
									</parameter>
									<parameter authoringApp="PremierePro">
										<parameterid>center</parameterid>
										<name>Center</name>
										<value>
											<horiz>0</horiz>
											<vert>0</vert>
										</value>
									</parameter>
									<parameter authoringApp="PremierePro">
										<parameterid>centerOffset</parameterid>
										<name>Anchor Point</name>
										<value>
											<horiz>0</horiz>
											<vert>0</vert>
										</value>
									</parameter>
								</effect>
							</filter>
							<filter>
								<effect>
									<name>Opacity</name>
									<effectid>opacity</effectid>
									<effectcategory>motion</effectcategory>
									<effecttype>motion</effecttype>
									<mediatype>video</mediatype>
									<parameter authoringApp="PremierePro">
										<parameterid>opacity</parameterid>
										<name>opacity</name>
										<valuemin>0</valuemin>
										<valuemax>100</valuemax>
										<value>100</value>
										<keyframe>
											<when>-36981</when>
											<value>60</value>
										</keyframe>
										<keyframe>
											<when>47</when>
											<value>25</value>
										</keyframe>
									</parameter>
								</effect>
							</filter>
							<filter>
								<effect>
									<name>Gaussian Blur</name>
									<effectid>Gaussian Blur</effectid>
									<effectcategory>Blur</effectcategory>
									<effecttype>motion</effecttype>
									<mediatype>video</mediatype>
									<parameter authoringApp="PremierePro">
										<parameterid>radius</parameterid>
										<name>Radius</name>
										<valuemin>0</valuemin>
										<valuemax>100</valuemax>
										<value>0</value>
									</parameter>
								</effect>
							</filter>
						<link>
							<linkclipref>clipitem-70</linkclipref>
							<mediatype>video</mediatype>
							<trackindex>1</trackindex>
							<clipindex>70</clipindex>
						</link>
						<link>
							<linkclipref>clipitem-1213</linkclipref>
							<mediatype>audio</mediatype>
							<trackindex>12</trackindex>
							<clipindex>43</clipindex>
							<groupindex>1</groupindex>
						</link>
						<link>
							<linkclipref>clipitem-1298</linkclipref>
							<mediatype>audio</mediatype>
							<trackindex>13</trackindex>
							<clipindex>43</clipindex>
							<groupindex>1</groupindex>
						</link>
						<logginginfo>
							<description></description>
							<scene></scene>
							<shottake></shottake>
							<lognote></lognote>
						</logginginfo>
						<labels>
							<label2>Iris</label2>
						</labels>
					</clipitem>
					<clipitem id="clipitem-71">
						<masterclipid>masterclip-57</masterclipid>
						<name>20160514_185543.mp4</name>
						<enabled>TRUE</enabled>
						<duration>834</duration>
						<rate>
							<timebase>25</timebase>
							<ntsc>FALSE</ntsc>
						</rate>
						<start>22453</start>
						<end>22633</end>
						<in>15</in>
						<out>195</out>
						<pproTicksIn>152409600000</pproTicksIn>
						<pproTicksOut>1981324800000</pproTicksOut>
						<alphatype>black</alphatype>
						<pixelaspectratio>square</pixelaspectratio>
						<anamorphic>FALSE</anamorphic>
						<file id="file-57">
							<name>20160514_185543.mp4</name>
							<pathurl>file://localhost/Volumes/Vaagen/Utveksling/Natur/Naturlig%20helaften%20fra%20Oslo/Copied_Copy%20of%20En%20Helaften%20MASTER_002/20160514_185543.mp4</pathurl>
							<rate>
								<timebase>29</timebase>
								<ntsc>FALSE</ntsc>
							</rate>
							<duration>1001</duration>
							<timecode>
								<rate>
									<timebase>29</timebase>
									<ntsc>FALSE</ntsc>
								</rate>
								<string>00:00:00:00</string>
								<frame>0</frame>
								<displayformat>NDF</displayformat>
								<reel>
									<name></name>
								</reel>
							</timecode>
							<media>
								<video>
									<samplecharacteristics>
										<rate>
											<timebase>29</timebase>
											<ntsc>FALSE</ntsc>
										</rate>
										<width>1080</width>
										<height>1920</height>
										<anamorphic>FALSE</anamorphic>
										<pixelaspectratio>square</pixelaspectratio>
										<fielddominance>none</fielddominance>
									</samplecharacteristics>
								</video>
								<audio>
									<samplecharacteristics>
										<depth>16</depth>
										<samplerate>48000</samplerate>
									</samplecharacteristics>
									<channelcount>2</channelcount>
								</audio>
							</media>
						</file>
							<filter>
								<effect>
									<name>Basic Motion</name>
									<effectid>basic</effectid>
									<effectcategory>motion</effectcategory>
									<effecttype>motion</effecttype>
									<mediatype>video</mediatype>
									<parameter authoringApp="PremierePro">
										<parameterid>scale</parameterid>
										<name>Scale</name>
										<valuemin>0</valuemin>
										<valuemax>1000</valuemax>
										<value>325</value>
									</parameter>
									<parameter authoringApp="PremierePro">
										<parameterid>rotation</parameterid>
										<name>Rotation</name>
										<valuemin>-8640</valuemin>
										<valuemax>8640</valuemax>
										<value>0</value>
									</parameter>
									<parameter authoringApp="PremierePro">
										<parameterid>center</parameterid>
										<name>Center</name>
										<value>
											<horiz>0</horiz>
											<vert>0</vert>
										</value>
									</parameter>
									<parameter authoringApp="PremierePro">
										<parameterid>centerOffset</parameterid>
										<name>Anchor Point</name>
										<value>
											<horiz>0</horiz>
											<vert>0</vert>
										</value>
									</parameter>
								</effect>
							</filter>
							<filter>
								<effect>
									<name>Opacity</name>
									<effectid>opacity</effectid>
									<effectcategory>motion</effectcategory>
									<effecttype>motion</effecttype>
									<mediatype>video</mediatype>
									<parameter authoringApp="PremierePro">
										<parameterid>opacity</parameterid>
										<name>opacity</name>
										<valuemin>0</valuemin>
										<valuemax>100</valuemax>
										<value>100</value>
										<keyframe>
											<when>-20231</when>
											<value>60</value>
										</keyframe>
										<keyframe>
											<when>27</when>
											<value>25</value>
										</keyframe>
									</parameter>
								</effect>
							</filter>
							<filter>
								<effect>
									<name>Gaussian Blur</name>
									<effectid>Gaussian Blur</effectid>
									<effectcategory>Blur</effectcategory>
									<effecttype>motion</effecttype>
									<mediatype>video</mediatype>
									<parameter authoringApp="PremierePro">
										<parameterid>radius</parameterid>
										<name>Radius</name>
										<valuemin>0</valuemin>
										<valuemax>100</valuemax>
										<value>0</value>
									</parameter>
								</effect>
							</filter>
						<link>
							<linkclipref>clipitem-71</linkclipref>
							<mediatype>video</mediatype>
							<trackindex>1</trackindex>
							<clipindex>71</clipindex>
						</link>
						<link>
							<linkclipref>clipitem-1215</linkclipref>
							<mediatype>audio</mediatype>
							<trackindex>12</trackindex>
							<clipindex>45</clipindex>
							<groupindex>1</groupindex>
						</link>
						<link>
							<linkclipref>clipitem-1300</linkclipref>
							<mediatype>audio</mediatype>
							<trackindex>13</trackindex>
							<clipindex>45</clipindex>
							<groupindex>1</groupindex>
						</link>
						<logginginfo>
							<description></description>
							<scene></scene>
							<shottake></shottake>
							<lognote></lognote>
						</logginginfo>
						<labels>
							<label2>Iris</label2>
						</labels>
					</clipitem>
					<clipitem id="clipitem-72">
						<masterclipid>masterclip-57</masterclipid>
						<name>20160514_185543.mp4</name>
						<enabled>TRUE</enabled>
						<duration>834</duration>
						<rate>
							<timebase>25</timebase>
							<ntsc>FALSE</ntsc>
						</rate>
						<start>22633</start>
						<end>22827</end>
						<in>626</in>
						<out>820</out>
						<pproTicksIn>6360560640000</pproTicksIn>
						<pproTicksOut>8331724800000</pproTicksOut>
						<alphatype>black</alphatype>
						<file id="file-57"/>
							<filter>
								<effect>
									<name>Basic Motion</name>
									<effectid>basic</effectid>
									<effectcategory>motion</effectcategory>
									<effecttype>motion</effecttype>
									<mediatype>video</mediatype>
									<parameter authoringApp="PremierePro">
										<parameterid>scale</parameterid>
										<name>Scale</name>
										<valuemin>0</valuemin>
										<valuemax>1000</valuemax>
										<value>325</value>
									</parameter>
									<parameter authoringApp="PremierePro">
										<parameterid>rotation</parameterid>
										<name>Rotation</name>
										<valuemin>-8640</valuemin>
										<valuemax>8640</valuemax>
										<value>0</value>
									</parameter>
									<parameter authoringApp="PremierePro">
										<parameterid>center</parameterid>
										<name>Center</name>
										<value>
											<horiz>0</horiz>
											<vert>0</vert>
										</value>
									</parameter>
									<parameter authoringApp="PremierePro">
										<parameterid>centerOffset</parameterid>
										<name>Anchor Point</name>
										<value>
											<horiz>0</horiz>
											<vert>0</vert>
										</value>
									</parameter>
								</effect>
							</filter>
							<filter>
								<effect>
									<name>Opacity</name>
									<effectid>opacity</effectid>
									<effectcategory>motion</effectcategory>
									<effecttype>motion</effecttype>
									<mediatype>video</mediatype>
									<parameter authoringApp="PremierePro">
										<parameterid>opacity</parameterid>
										<name>opacity</name>
										<valuemin>0</valuemin>
										<valuemax>100</valuemax>
										<value>100</value>
										<keyframe>
											<when>-21195</when>
											<value>60</value>
										</keyframe>
										<keyframe>
											<when>639</when>
											<value>25</value>
										</keyframe>
									</parameter>
								</effect>
							</filter>
							<filter>
								<effect>
									<name>Gaussian Blur</name>
									<effectid>Gaussian Blur</effectid>
									<effectcategory>Blur</effectcategory>
									<effecttype>motion</effecttype>
									<mediatype>video</mediatype>
									<parameter authoringApp="PremierePro">
										<parameterid>radius</parameterid>
										<name>Radius</name>
										<valuemin>0</valuemin>
										<valuemax>100</valuemax>
										<value>0</value>
									</parameter>
								</effect>
							</filter>
						<logginginfo>
							<description></description>
							<scene></scene>
							<shottake></shottake>
							<lognote></lognote>
						</logginginfo>
						<labels>
							<label2>Iris</label2>
						</labels>
					</clipitem>
					<clipitem id="clipitem-73">
						<masterclipid>masterclip-53</masterclipid>
						<name>AA274901.MXF</name>
						<enabled>TRUE</enabled>
						<duration>7896</duration>
						<rate>
							<timebase>25</timebase>
							<ntsc>FALSE</ntsc>
						</rate>
						<start>22827</start>
						<end>23338</end>
						<in>7369</in>
						<out>7880</out>
						<pproTicksIn>74873756160000</pproTicksIn>
						<pproTicksOut>80065843200000</pproTicksOut>
						<alphatype>none</alphatype>
						<file id="file-53"/>
						<logginginfo>
							<description></description>
							<scene></scene>
							<shottake></shottake>
							<lognote></lognote>
						</logginginfo>
						<labels>
							<label2>Iris</label2>
						</labels>
					</clipitem>
					<clipitem id="clipitem-74">
						<masterclipid>masterclip-52</masterclipid>
						<name>AA275401.MXF</name>
						<enabled>TRUE</enabled>
						<duration>7896</duration>
						<rate>
							<timebase>25</timebase>
							<ntsc>FALSE</ntsc>
						</rate>
						<start>23338</start>
						<end>23622</end>
						<in>1558</in>
						<out>1842</out>
						<pproTicksIn>15830277120000</pproTicksIn>
						<pproTicksOut>18715898880000</pproTicksOut>
						<alphatype>none</alphatype>
						<file id="file-52"/>
						<link>
							<linkclipref>clipitem-74</linkclipref>
							<mediatype>video</mediatype>
							<trackindex>1</trackindex>
							<clipindex>74</clipindex>
						</link>
						<link>
							<linkclipref>clipitem-746</linkclipref>
							<mediatype>audio</mediatype>
							<trackindex>8</trackindex>
							<clipindex>35</clipindex>
							<groupindex>1</groupindex>
						</link>
						<link>
							<linkclipref>clipitem-842</linkclipref>
							<mediatype>audio</mediatype>
							<trackindex>9</trackindex>
							<clipindex>35</clipindex>
							<groupindex>1</groupindex>
						</link>
						<logginginfo>
							<description></description>
							<scene></scene>
							<shottake></shottake>
							<lognote></lognote>
						</logginginfo>
						<labels>
							<label2>Iris</label2>
						</labels>
					</clipitem>
					<clipitem id="clipitem-75">
						<masterclipid>masterclip-58</masterclipid>
						<name>AA275601.MXF</name>
						<enabled>TRUE</enabled>
						<duration>1404</duration>
						<rate>
							<timebase>25</timebase>
							<ntsc>FALSE</ntsc>
						</rate>
						<start>23622</start>
						<end>23704</end>
						<in>190</in>
						<out>272</out>
						<pproTicksIn>1930521600000</pproTicksIn>
						<pproTicksOut>2763694080000</pproTicksOut>
						<alphatype>none</alphatype>
						<pixelaspectratio>square</pixelaspectratio>
						<anamorphic>FALSE</anamorphic>
						<file id="file-58">
							<name>AA275601.MXF</name>
							<pathurl>file://localhost/Volumes/Vaagen/Utveksling/Natur/Naturlig%20helaften%20fra%20Oslo/Copied_Copy%20of%20En%20Helaften%20MASTER_002/AA275601.MXF</pathurl>
							<rate>
								<timebase>25</timebase>
								<ntsc>FALSE</ntsc>
							</rate>
							<duration>1404</duration>
							<timecode>
								<rate>
									<timebase>25</timebase>
									<ntsc>FALSE</ntsc>
								</rate>
								<string>13:04:13:09</string>
								<frame>1176334</frame>
								<displayformat>NDF</displayformat>
								<reel>
									<name></name>
								</reel>
							</timecode>
							<media>
								<video>
									<samplecharacteristics>
										<rate>
											<timebase>25</timebase>
											<ntsc>FALSE</ntsc>
										</rate>
										<width>1920</width>
										<height>1080</height>
										<anamorphic>FALSE</anamorphic>
										<pixelaspectratio>square</pixelaspectratio>
										<fielddominance>none</fielddominance>
									</samplecharacteristics>
								</video>
								<audio>
									<samplecharacteristics>
										<depth>16</depth>
										<samplerate>48000</samplerate>
									</samplecharacteristics>
									<channelcount>2</channelcount>
								</audio>
							</media>
						</file>
						<logginginfo>
							<description></description>
							<scene></scene>
							<shottake></shottake>
							<lognote></lognote>
						</logginginfo>
						<labels>
							<label2>Iris</label2>
						</labels>
					</clipitem>
					<clipitem id="clipitem-76">
						<masterclipid>masterclip-59</masterclipid>
						<name>IMG_4373.MOV</name>
						<enabled>TRUE</enabled>
						<duration>2626</duration>
						<rate>
							<timebase>25</timebase>
							<ntsc>FALSE</ntsc>
						</rate>
						<start>23704</start>
						<end>23837</end>
						<in>174</in>
						<out>307</out>
						<pproTicksIn>1767951360000</pproTicksIn>
						<pproTicksOut>3119316480000</pproTicksOut>
						<alphatype>black</alphatype>
						<pixelaspectratio>square</pixelaspectratio>
						<anamorphic>FALSE</anamorphic>
						<file id="file-59">
							<name>IMG_4373.MOV</name>
							<pathurl>file://localhost/Volumes/Vaagen/Utveksling/Natur/Naturlig%20helaften%20fra%20Oslo/Copied_Copy%20of%20En%20Helaften%20MASTER_002/IMG_4373.MOV</pathurl>
							<rate>
								<timebase>30</timebase>
								<ntsc>FALSE</ntsc>
							</rate>
							<duration>3152</duration>
							<timecode>
								<rate>
									<timebase>30</timebase>
									<ntsc>FALSE</ntsc>
								</rate>
								<string>00:00:00:00</string>
								<frame>0</frame>
								<displayformat>NDF</displayformat>
								<reel>
									<name></name>
								</reel>
							</timecode>
							<media>
								<video>
									<samplecharacteristics>
										<rate>
											<timebase>30</timebase>
											<ntsc>FALSE</ntsc>
										</rate>
										<width>1080</width>
										<height>1920</height>
										<anamorphic>FALSE</anamorphic>
										<pixelaspectratio>square</pixelaspectratio>
										<fielddominance>none</fielddominance>
									</samplecharacteristics>
								</video>
								<audio>
									<samplecharacteristics>
										<depth>16</depth>
										<samplerate>44100</samplerate>
									</samplecharacteristics>
									<channelcount>1</channelcount>
									<audiochannel>
										<sourcechannel>1</sourcechannel>
									</audiochannel>
								</audio>
							</media>
						</file>
							<filter>
								<effect>
									<name>Basic Motion</name>
									<effectid>basic</effectid>
									<effectcategory>motion</effectcategory>
									<effecttype>motion</effecttype>
									<mediatype>video</mediatype>
									<parameter authoringApp="PremierePro">
										<parameterid>scale</parameterid>
										<name>Scale</name>
										<valuemin>0</valuemin>
										<valuemax>1000</valuemax>
										<value>325</value>
									</parameter>
									<parameter authoringApp="PremierePro">
										<parameterid>rotation</parameterid>
										<name>Rotation</name>
										<valuemin>-8640</valuemin>
										<valuemax>8640</valuemax>
										<value>0</value>
									</parameter>
									<parameter authoringApp="PremierePro">
										<parameterid>center</parameterid>
										<name>Center</name>
										<value>
											<horiz>0</horiz>
											<vert>0</vert>
										</value>
									</parameter>
									<parameter authoringApp="PremierePro">
										<parameterid>centerOffset</parameterid>
										<name>Anchor Point</name>
										<value>
											<horiz>0</horiz>
											<vert>0</vert>
										</value>
									</parameter>
								</effect>
							</filter>
							<filter>
								<effect>
									<name>Opacity</name>
									<effectid>opacity</effectid>
									<effectcategory>motion</effectcategory>
									<effecttype>motion</effecttype>
									<mediatype>video</mediatype>
									<parameter authoringApp="PremierePro">
										<parameterid>opacity</parameterid>
										<name>opacity</name>
										<valuemin>0</valuemin>
										<valuemax>100</valuemax>
										<value>100</value>
										<keyframe>
											<when>-14785</when>
											<value>60</value>
										</keyframe>
										<keyframe>
											<when>183</when>
											<value>25</value>
										</keyframe>
									</parameter>
								</effect>
							</filter>
							<filter>
								<effect>
									<name>Gaussian Blur</name>
									<effectid>Gaussian Blur</effectid>
									<effectcategory>Blur</effectcategory>
									<effecttype>motion</effecttype>
									<mediatype>video</mediatype>
									<parameter authoringApp="PremierePro">
										<parameterid>radius</parameterid>
										<name>Radius</name>
										<valuemin>0</valuemin>
										<valuemax>100</valuemax>
										<value>0</value>
									</parameter>
								</effect>
							</filter>
						<link>
							<linkclipref>clipitem-76</linkclipref>
							<mediatype>video</mediatype>
							<trackindex>1</trackindex>
							<clipindex>76</clipindex>
						</link>
						<link>
							<linkclipref>clipitem-685</linkclipref>
							<mediatype>audio</mediatype>
							<trackindex>5</trackindex>
							<clipindex>28</clipindex>
							<groupindex>1</groupindex>
						</link>
						<logginginfo>
							<description></description>
							<scene></scene>
							<shottake></shottake>
							<lognote></lognote>
						</logginginfo>
						<labels>
							<label2>Iris</label2>
						</labels>
					</clipitem>
					<clipitem id="clipitem-77">
						<masterclipid>masterclip-59</masterclipid>
						<name>IMG_4373.MOV</name>
						<enabled>TRUE</enabled>
						<duration>2626</duration>
						<rate>
							<timebase>25</timebase>
							<ntsc>FALSE</ntsc>
						</rate>
						<start>23837</start>
						<end>24241</end>
						<in>549</in>
						<out>953</out>
						<pproTicksIn>5578191360000</pproTicksIn>
						<pproTicksOut>9683089920000</pproTicksOut>
						<alphatype>black</alphatype>
						<file id="file-59"/>
							<filter>
								<effect>
									<name>Basic Motion</name>
									<effectid>basic</effectid>
									<effectcategory>motion</effectcategory>
									<effecttype>motion</effecttype>
									<mediatype>video</mediatype>
									<parameter authoringApp="PremierePro">
										<parameterid>scale</parameterid>
										<name>Scale</name>
										<valuemin>0</valuemin>
										<valuemax>1000</valuemax>
										<value>325</value>
									</parameter>
									<parameter authoringApp="PremierePro">
										<parameterid>rotation</parameterid>
										<name>Rotation</name>
										<valuemin>-8640</valuemin>
										<valuemax>8640</valuemax>
										<value>0</value>
									</parameter>
									<parameter authoringApp="PremierePro">
										<parameterid>center</parameterid>
										<name>Center</name>
										<value>
											<horiz>0</horiz>
											<vert>0</vert>
										</value>
									</parameter>
									<parameter authoringApp="PremierePro">
										<parameterid>centerOffset</parameterid>
										<name>Anchor Point</name>
										<value>
											<horiz>0</horiz>
											<vert>0</vert>
										</value>
									</parameter>
								</effect>
							</filter>
							<filter>
								<effect>
									<name>Opacity</name>
									<effectid>opacity</effectid>
									<effectcategory>motion</effectcategory>
									<effecttype>motion</effecttype>
									<mediatype>video</mediatype>
									<parameter authoringApp="PremierePro">
										<parameterid>opacity</parameterid>
										<name>opacity</name>
										<valuemin>0</valuemin>
										<valuemax>100</valuemax>
										<value>100</value>
										<keyframe>
											<when>-13736</when>
											<value>60</value>
										</keyframe>
										<keyframe>
											<when>557</when>
											<value>25</value>
										</keyframe>
									</parameter>
								</effect>
							</filter>
							<filter>
								<effect>
									<name>Gaussian Blur</name>
									<effectid>Gaussian Blur</effectid>
									<effectcategory>Blur</effectcategory>
									<effecttype>motion</effecttype>
									<mediatype>video</mediatype>
									<parameter authoringApp="PremierePro">
										<parameterid>radius</parameterid>
										<name>Radius</name>
										<valuemin>0</valuemin>
										<valuemax>100</valuemax>
										<value>0</value>
									</parameter>
								</effect>
							</filter>
						<link>
							<linkclipref>clipitem-77</linkclipref>
							<mediatype>video</mediatype>
							<trackindex>1</trackindex>
							<clipindex>77</clipindex>
						</link>
						<link>
							<linkclipref>clipitem-686</linkclipref>
							<mediatype>audio</mediatype>
							<trackindex>5</trackindex>
							<clipindex>29</clipindex>
							<groupindex>1</groupindex>
						</link>
						<logginginfo>
							<description></description>
							<scene></scene>
							<shottake></shottake>
							<lognote></lognote>
						</logginginfo>
						<labels>
							<label2>Iris</label2>
						</labels>
					</clipitem>
					<clipitem id="clipitem-78">
						<masterclipid>masterclip-60</masterclipid>
						<name>AA275501.MXF</name>
						<enabled>TRUE</enabled>
						<duration>6756</duration>
						<rate>
							<timebase>25</timebase>
							<ntsc>FALSE</ntsc>
						</rate>
						<start>24241</start>
						<end>24558</end>
						<in>5924</in>
						<out>6241</out>
						<pproTicksIn>60191631360000</pproTicksIn>
						<pproTicksOut>63412554240000</pproTicksOut>
						<alphatype>none</alphatype>
						<pixelaspectratio>square</pixelaspectratio>
						<anamorphic>FALSE</anamorphic>
						<file id="file-60">
							<name>AA275501.MXF</name>
							<pathurl>file://localhost/Volumes/Vaagen/Utveksling/Natur/Naturlig%20helaften%20fra%20Oslo/Copied_Copy%20of%20En%20Helaften%20MASTER_002/AA275501.MXF</pathurl>
							<rate>
								<timebase>25</timebase>
								<ntsc>FALSE</ntsc>
							</rate>
							<duration>6756</duration>
							<timecode>
								<rate>
									<timebase>25</timebase>
									<ntsc>FALSE</ntsc>
								</rate>
								<string>12:59:28:01</string>
								<frame>1169201</frame>
								<displayformat>NDF</displayformat>
								<reel>
									<name></name>
								</reel>
							</timecode>
							<media>
								<video>
									<samplecharacteristics>
										<rate>
											<timebase>25</timebase>
											<ntsc>FALSE</ntsc>
										</rate>
										<width>1920</width>
										<height>1080</height>
										<anamorphic>FALSE</anamorphic>
										<pixelaspectratio>square</pixelaspectratio>
										<fielddominance>none</fielddominance>
									</samplecharacteristics>
								</video>
								<audio>
									<samplecharacteristics>
										<depth>16</depth>
										<samplerate>48000</samplerate>
									</samplecharacteristics>
									<channelcount>2</channelcount>
								</audio>
							</media>
						</file>
						<logginginfo>
							<description></description>
							<scene></scene>
							<shottake></shottake>
							<lognote></lognote>
						</logginginfo>
						<labels>
							<label2>Iris</label2>
						</labels>
					</clipitem>
					<clipitem id="clipitem-79">
						<masterclipid>masterclip-61</masterclipid>
						<name>AA276001.MXF</name>
						<enabled>TRUE</enabled>
						<duration>1260</duration>
						<rate>
							<timebase>25</timebase>
							<ntsc>FALSE</ntsc>
						</rate>
						<start>24558</start>
						<end>24687</end>
						<in>460</in>
						<out>589</out>
						<pproTicksIn>4673894400000</pproTicksIn>
						<pproTicksOut>5984616960000</pproTicksOut>
						<alphatype>none</alphatype>
						<pixelaspectratio>square</pixelaspectratio>
						<anamorphic>FALSE</anamorphic>
						<file id="file-61">
							<name>AA276001.MXF</name>
							<pathurl>file://localhost/Volumes/Vaagen/Utveksling/Natur/Naturlig%20helaften%20fra%20Oslo/Copied_Copy%20of%20En%20Helaften%20MASTER_002/AA276001.MXF</pathurl>
							<rate>
								<timebase>25</timebase>
								<ntsc>FALSE</ntsc>
							</rate>
							<duration>1260</duration>
							<timecode>
								<rate>
									<timebase>25</timebase>
									<ntsc>FALSE</ntsc>
								</rate>
								<string>15:08:23:16</string>
								<frame>1362591</frame>
								<displayformat>NDF</displayformat>
								<reel>
									<name></name>
								</reel>
							</timecode>
							<media>
								<video>
									<samplecharacteristics>
										<rate>
											<timebase>25</timebase>
											<ntsc>FALSE</ntsc>
										</rate>
										<width>1920</width>
										<height>1080</height>
										<anamorphic>FALSE</anamorphic>
										<pixelaspectratio>square</pixelaspectratio>
										<fielddominance>none</fielddominance>
									</samplecharacteristics>
								</video>
								<audio>
									<samplecharacteristics>
										<depth>16</depth>
										<samplerate>48000</samplerate>
									</samplecharacteristics>
									<channelcount>2</channelcount>
								</audio>
							</media>
						</file>
						<link>
							<linkclipref>clipitem-79</linkclipref>
							<mediatype>video</mediatype>
							<trackindex>1</trackindex>
							<clipindex>79</clipindex>
						</link>
						<link>
							<linkclipref>clipitem-750</linkclipref>
							<mediatype>audio</mediatype>
							<trackindex>8</trackindex>
							<clipindex>40</clipindex>
							<groupindex>1</groupindex>
						</link>
						<link>
							<linkclipref>clipitem-846</linkclipref>
							<mediatype>audio</mediatype>
							<trackindex>9</trackindex>
							<clipindex>40</clipindex>
							<groupindex>1</groupindex>
						</link>
						<link>
							<linkclipref>clipitem-941</linkclipref>
							<mediatype>audio</mediatype>
							<trackindex>10</trackindex>
							<clipindex>40</clipindex>
							<groupindex>1</groupindex>
						</link>
						<link>
							<linkclipref>clipitem-1081</linkclipref>
							<mediatype>audio</mediatype>
							<trackindex>11</trackindex>
							<clipindex>40</clipindex>
							<groupindex>1</groupindex>
						</link>
						<logginginfo>
							<description></description>
							<scene></scene>
							<shottake></shottake>
							<lognote></lognote>
						</logginginfo>
						<labels>
							<label2>Iris</label2>
						</labels>
					</clipitem>
					<clipitem id="clipitem-80">
						<masterclipid>masterclip-62</masterclipid>
						<name>AA276101.MXF</name>
						<enabled>TRUE</enabled>
						<duration>564</duration>
						<rate>
							<timebase>25</timebase>
							<ntsc>FALSE</ntsc>
						</rate>
						<start>24687</start>
						<end>24756</end>
						<in>99</in>
						<out>168</out>
						<pproTicksIn>1005903360000</pproTicksIn>
						<pproTicksOut>1706987520000</pproTicksOut>
						<alphatype>none</alphatype>
						<pixelaspectratio>square</pixelaspectratio>
						<anamorphic>FALSE</anamorphic>
						<file id="file-62">
							<name>AA276101.MXF</name>
							<pathurl>file://localhost/Volumes/Vaagen/Utveksling/Natur/Naturlig%20helaften%20fra%20Oslo/Copied_Copy%20of%20En%20Helaften%20MASTER_002/AA276101.MXF</pathurl>
							<rate>
								<timebase>25</timebase>
								<ntsc>FALSE</ntsc>
							</rate>
							<duration>564</duration>
							<timecode>
								<rate>
									<timebase>25</timebase>
									<ntsc>FALSE</ntsc>
								</rate>
								<string>15:10:00:13</string>
								<frame>1365013</frame>
								<displayformat>NDF</displayformat>
								<reel>
									<name></name>
								</reel>
							</timecode>
							<media>
								<video>
									<samplecharacteristics>
										<rate>
											<timebase>25</timebase>
											<ntsc>FALSE</ntsc>
										</rate>
										<width>1920</width>
										<height>1080</height>
										<anamorphic>FALSE</anamorphic>
										<pixelaspectratio>square</pixelaspectratio>
										<fielddominance>none</fielddominance>
									</samplecharacteristics>
								</video>
								<audio>
									<samplecharacteristics>
										<depth>16</depth>
										<samplerate>48000</samplerate>
									</samplecharacteristics>
									<channelcount>2</channelcount>
								</audio>
							</media>
						</file>
						<link>
							<linkclipref>clipitem-80</linkclipref>
							<mediatype>video</mediatype>
							<trackindex>1</trackindex>
							<clipindex>80</clipindex>
						</link>
						<link>
							<linkclipref>clipitem-751</linkclipref>
							<mediatype>audio</mediatype>
							<trackindex>8</trackindex>
							<clipindex>41</clipindex>
							<groupindex>1</groupindex>
						</link>
						<link>
							<linkclipref>clipitem-847</linkclipref>
							<mediatype>audio</mediatype>
							<trackindex>9</trackindex>
							<clipindex>41</clipindex>
							<groupindex>1</groupindex>
						</link>
						<link>
							<linkclipref>clipitem-942</linkclipref>
							<mediatype>audio</mediatype>
							<trackindex>10</trackindex>
							<clipindex>41</clipindex>
							<groupindex>1</groupindex>
						</link>
						<link>
							<linkclipref>clipitem-1082</linkclipref>
							<mediatype>audio</mediatype>
							<trackindex>11</trackindex>
							<clipindex>41</clipindex>
							<groupindex>1</groupindex>
						</link>
						<logginginfo>
							<description></description>
							<scene></scene>
							<shottake></shottake>
							<lognote></lognote>
						</logginginfo>
						<labels>
							<label2>Iris</label2>
						</labels>
					</clipitem>
					<clipitem id="clipitem-81">
						<masterclipid>masterclip-63</masterclipid>
						<name>AA277101.MXF</name>
						<enabled>TRUE</enabled>
						<duration>5604</duration>
						<rate>
							<timebase>25</timebase>
							<ntsc>FALSE</ntsc>
						</rate>
						<start>24756</start>
						<end>25306</end>
						<in>2324</in>
						<out>2874</out>
						<pproTicksIn>23613327360000</pproTicksIn>
						<pproTicksOut>29201679360000</pproTicksOut>
						<alphatype>none</alphatype>
						<pixelaspectratio>square</pixelaspectratio>
						<anamorphic>FALSE</anamorphic>
						<file id="file-63">
							<name>AA277101.MXF</name>
							<pathurl>file://localhost/Volumes/Vaagen/Utveksling/Natur/Naturlig%20helaften%20fra%20Oslo/Copied_Copy%20of%20En%20Helaften%20MASTER_002/AA277101.MXF</pathurl>
							<rate>
								<timebase>25</timebase>
								<ntsc>FALSE</ntsc>
							</rate>
							<duration>5604</duration>
							<timecode>
								<rate>
									<timebase>25</timebase>
									<ntsc>FALSE</ntsc>
								</rate>
								<string>15:27:37:03</string>
								<frame>1391428</frame>
								<displayformat>NDF</displayformat>
								<reel>
									<name></name>
								</reel>
							</timecode>
							<media>
								<video>
									<samplecharacteristics>
										<rate>
											<timebase>25</timebase>
											<ntsc>FALSE</ntsc>
										</rate>
										<width>1920</width>
										<height>1080</height>
										<anamorphic>FALSE</anamorphic>
										<pixelaspectratio>square</pixelaspectratio>
										<fielddominance>none</fielddominance>
									</samplecharacteristics>
								</video>
								<audio>
									<samplecharacteristics>
										<depth>16</depth>
										<samplerate>48000</samplerate>
									</samplecharacteristics>
									<channelcount>2</channelcount>
								</audio>
							</media>
						</file>
						<link>
							<linkclipref>clipitem-81</linkclipref>
							<mediatype>video</mediatype>
							<trackindex>1</trackindex>
							<clipindex>81</clipindex>
						</link>
						<link>
							<linkclipref>clipitem-752</linkclipref>
							<mediatype>audio</mediatype>
							<trackindex>8</trackindex>
							<clipindex>42</clipindex>
							<groupindex>1</groupindex>
						</link>
						<link>
							<linkclipref>clipitem-848</linkclipref>
							<mediatype>audio</mediatype>
							<trackindex>9</trackindex>
							<clipindex>42</clipindex>
							<groupindex>1</groupindex>
						</link>
						<link>
							<linkclipref>clipitem-943</linkclipref>
							<mediatype>audio</mediatype>
							<trackindex>10</trackindex>
							<clipindex>42</clipindex>
							<groupindex>1</groupindex>
						</link>
						<link>
							<linkclipref>clipitem-1083</linkclipref>
							<mediatype>audio</mediatype>
							<trackindex>11</trackindex>
							<clipindex>42</clipindex>
							<groupindex>1</groupindex>
						</link>
						<logginginfo>
							<description></description>
							<scene></scene>
							<shottake></shottake>
							<lognote></lognote>
						</logginginfo>
						<labels>
							<label2>Iris</label2>
						</labels>
					</clipitem>
					<clipitem id="clipitem-82">
						<masterclipid>masterclip-64</masterclipid>
						<name>IMG_4486.MOV</name>
						<enabled>TRUE</enabled>
						<duration>978</duration>
						<rate>
							<timebase>25</timebase>
							<ntsc>FALSE</ntsc>
						</rate>
						<start>25306</start>
						<end>25422</end>
						<in>0</in>
						<out>116</out>
						<pproTicksIn>0</pproTicksIn>
						<pproTicksOut>1178634240000</pproTicksOut>
						<alphatype>black</alphatype>
						<pixelaspectratio>square</pixelaspectratio>
						<anamorphic>FALSE</anamorphic>
						<file id="file-64">
							<name>IMG_4486.MOV</name>
							<pathurl>file://localhost/Volumes/Vaagen/Utveksling/Natur/Naturlig%20helaften%20fra%20Oslo/Copied_Copy%20of%20En%20Helaften%20MASTER_002/IMG_4486.MOV</pathurl>
							<rate>
								<timebase>30</timebase>
								<ntsc>FALSE</ntsc>
							</rate>
							<duration>1174</duration>
							<timecode>
								<rate>
									<timebase>30</timebase>
									<ntsc>FALSE</ntsc>
								</rate>
								<string>00:00:00:00</string>
								<frame>0</frame>
								<displayformat>NDF</displayformat>
								<reel>
									<name></name>
								</reel>
							</timecode>
							<media>
								<video>
									<samplecharacteristics>
										<rate>
											<timebase>30</timebase>
											<ntsc>FALSE</ntsc>
										</rate>
										<width>1080</width>
										<height>1920</height>
										<anamorphic>FALSE</anamorphic>
										<pixelaspectratio>square</pixelaspectratio>
										<fielddominance>none</fielddominance>
									</samplecharacteristics>
								</video>
								<audio>
									<samplecharacteristics>
										<depth>16</depth>
										<samplerate>44100</samplerate>
									</samplecharacteristics>
									<channelcount>1</channelcount>
									<audiochannel>
										<sourcechannel>1</sourcechannel>
									</audiochannel>
								</audio>
							</media>
						</file>
							<filter>
								<effect>
									<name>Basic Motion</name>
									<effectid>basic</effectid>
									<effectcategory>motion</effectcategory>
									<effecttype>motion</effecttype>
									<mediatype>video</mediatype>
									<parameter authoringApp="PremierePro">
										<parameterid>scale</parameterid>
										<name>Scale</name>
										<valuemin>0</valuemin>
										<valuemax>1000</valuemax>
										<value>325</value>
									</parameter>
									<parameter authoringApp="PremierePro">
										<parameterid>rotation</parameterid>
										<name>Rotation</name>
										<valuemin>-8640</valuemin>
										<valuemax>8640</valuemax>
										<value>0</value>
									</parameter>
									<parameter authoringApp="PremierePro">
										<parameterid>center</parameterid>
										<name>Center</name>
										<value>
											<horiz>0</horiz>
											<vert>0</vert>
										</value>
									</parameter>
									<parameter authoringApp="PremierePro">
										<parameterid>centerOffset</parameterid>
										<name>Anchor Point</name>
										<value>
											<horiz>0</horiz>
											<vert>0</vert>
										</value>
									</parameter>
								</effect>
							</filter>
							<filter>
								<effect>
									<name>Opacity</name>
									<effectid>opacity</effectid>
									<effectcategory>motion</effectcategory>
									<effecttype>motion</effecttype>
									<mediatype>video</mediatype>
									<parameter authoringApp="PremierePro">
										<parameterid>opacity</parameterid>
										<name>opacity</name>
										<valuemin>0</valuemin>
										<valuemax>100</valuemax>
										<value>100</value>
										<keyframe>
											<when>-14060</when>
											<value>60</value>
										</keyframe>
										<keyframe>
											<when>8</when>
											<value>25</value>
										</keyframe>
									</parameter>
								</effect>
							</filter>
							<filter>
								<effect>
									<name>Gaussian Blur</name>
									<effectid>Gaussian Blur</effectid>
									<effectcategory>Blur</effectcategory>
									<effecttype>motion</effecttype>
									<mediatype>video</mediatype>
									<parameter authoringApp="PremierePro">
										<parameterid>radius</parameterid>
										<name>Radius</name>
										<valuemin>0</valuemin>
										<valuemax>100</valuemax>
										<value>0</value>
									</parameter>
								</effect>
							</filter>
						<link>
							<linkclipref>clipitem-82</linkclipref>
							<mediatype>video</mediatype>
							<trackindex>1</trackindex>
							<clipindex>82</clipindex>
						</link>
						<link>
							<linkclipref>clipitem-688</linkclipref>
							<mediatype>audio</mediatype>
							<trackindex>5</trackindex>
							<clipindex>31</clipindex>
							<groupindex>1</groupindex>
						</link>
						<logginginfo>
							<description></description>
							<scene></scene>
							<shottake></shottake>
							<lognote></lognote>
						</logginginfo>
						<labels>
							<label2>Iris</label2>
						</labels>
					</clipitem>
					<clipitem id="clipitem-83">
						<masterclipid>masterclip-63</masterclipid>
						<name>AA277101.MXF</name>
						<enabled>TRUE</enabled>
						<duration>5604</duration>
						<rate>
							<timebase>25</timebase>
							<ntsc>FALSE</ntsc>
						</rate>
						<start>25422</start>
						<end>25763</end>
						<in>2990</in>
						<out>3331</out>
						<pproTicksIn>30380313600000</pproTicksIn>
						<pproTicksOut>33845091840000</pproTicksOut>
						<alphatype>none</alphatype>
						<file id="file-63"/>
						<link>
							<linkclipref>clipitem-83</linkclipref>
							<mediatype>video</mediatype>
							<trackindex>1</trackindex>
							<clipindex>83</clipindex>
						</link>
						<link>
							<linkclipref>clipitem-754</linkclipref>
							<mediatype>audio</mediatype>
							<trackindex>8</trackindex>
							<clipindex>44</clipindex>
							<groupindex>1</groupindex>
						</link>
						<link>
							<linkclipref>clipitem-850</linkclipref>
							<mediatype>audio</mediatype>
							<trackindex>9</trackindex>
							<clipindex>44</clipindex>
							<groupindex>1</groupindex>
						</link>
						<link>
							<linkclipref>clipitem-945</linkclipref>
							<mediatype>audio</mediatype>
							<trackindex>10</trackindex>
							<clipindex>44</clipindex>
							<groupindex>1</groupindex>
						</link>
						<link>
							<linkclipref>clipitem-1085</linkclipref>
							<mediatype>audio</mediatype>
							<trackindex>11</trackindex>
							<clipindex>44</clipindex>
							<groupindex>1</groupindex>
						</link>
						<logginginfo>
							<description></description>
							<scene></scene>
							<shottake></shottake>
							<lognote></lognote>
						</logginginfo>
						<labels>
							<label2>Iris</label2>
						</labels>
					</clipitem>
					<clipitem id="clipitem-84">
						<masterclipid>masterclip-65</masterclipid>
						<name>IMG_4487.MOV</name>
						<enabled>TRUE</enabled>
						<duration>775</duration>
						<rate>
							<timebase>25</timebase>
							<ntsc>FALSE</ntsc>
						</rate>
						<start>25763</start>
						<end>25968</end>
						<in>294</in>
						<out>499</out>
						<pproTicksIn>2987228160000</pproTicksIn>
						<pproTicksOut>5070159360000</pproTicksOut>
						<alphatype>black</alphatype>
						<pixelaspectratio>square</pixelaspectratio>
						<anamorphic>FALSE</anamorphic>
						<file id="file-65">
							<name>IMG_4487.MOV</name>
							<pathurl>file://localhost/Volumes/Vaagen/Utveksling/Natur/Naturlig%20helaften%20fra%20Oslo/Copied_Copy%20of%20En%20Helaften%20MASTER_002/IMG_4487.MOV</pathurl>
							<rate>
								<timebase>30</timebase>
								<ntsc>FALSE</ntsc>
							</rate>
							<duration>930</duration>
							<timecode>
								<rate>
									<timebase>30</timebase>
									<ntsc>FALSE</ntsc>
								</rate>
								<string>00:00:00:00</string>
								<frame>0</frame>
								<displayformat>NDF</displayformat>
								<reel>
									<name></name>
								</reel>
							</timecode>
							<media>
								<video>
									<samplecharacteristics>
										<rate>
											<timebase>30</timebase>
											<ntsc>FALSE</ntsc>
										</rate>
										<width>1080</width>
										<height>1920</height>
										<anamorphic>FALSE</anamorphic>
										<pixelaspectratio>square</pixelaspectratio>
										<fielddominance>none</fielddominance>
									</samplecharacteristics>
								</video>
								<audio>
									<samplecharacteristics>
										<depth>16</depth>
										<samplerate>44100</samplerate>
									</samplecharacteristics>
									<channelcount>1</channelcount>
									<audiochannel>
										<sourcechannel>1</sourcechannel>
									</audiochannel>
								</audio>
							</media>
						</file>
							<filter>
								<effect>
									<name>Basic Motion</name>
									<effectid>basic</effectid>
									<effectcategory>motion</effectcategory>
									<effecttype>motion</effecttype>
									<mediatype>video</mediatype>
									<parameter authoringApp="PremierePro">
										<parameterid>scale</parameterid>
										<name>Scale</name>
										<valuemin>0</valuemin>
										<valuemax>1000</valuemax>
										<value>325</value>
									</parameter>
									<parameter authoringApp="PremierePro">
										<parameterid>rotation</parameterid>
										<name>Rotation</name>
										<valuemin>-8640</valuemin>
										<valuemax>8640</valuemax>
										<value>0</value>
									</parameter>
									<parameter authoringApp="PremierePro">
										<parameterid>center</parameterid>
										<name>Center</name>
										<value>
											<horiz>0</horiz>
											<vert>0</vert>
										</value>
									</parameter>
									<parameter authoringApp="PremierePro">
										<parameterid>centerOffset</parameterid>
										<name>Anchor Point</name>
										<value>
											<horiz>0</horiz>
											<vert>0</vert>
										</value>
									</parameter>
								</effect>
							</filter>
							<filter>
								<effect>
									<name>Opacity</name>
									<effectid>opacity</effectid>
									<effectcategory>motion</effectcategory>
									<effecttype>motion</effecttype>
									<mediatype>video</mediatype>
									<parameter authoringApp="PremierePro">
										<parameterid>opacity</parameterid>
										<name>opacity</name>
										<valuemin>0</valuemin>
										<valuemax>100</valuemax>
										<value>100</value>
										<keyframe>
											<when>-22764</when>
											<value>60</value>
										</keyframe>
										<keyframe>
											<when>308</when>
											<value>25</value>
										</keyframe>
									</parameter>
								</effect>
							</filter>
							<filter>
								<effect>
									<name>Gaussian Blur</name>
									<effectid>Gaussian Blur</effectid>
									<effectcategory>Blur</effectcategory>
									<effecttype>motion</effecttype>
									<mediatype>video</mediatype>
									<parameter authoringApp="PremierePro">
										<parameterid>radius</parameterid>
										<name>Radius</name>
										<valuemin>0</valuemin>
										<valuemax>100</valuemax>
										<value>0</value>
									</parameter>
								</effect>
							</filter>
						<link>
							<linkclipref>clipitem-84</linkclipref>
							<mediatype>video</mediatype>
							<trackindex>1</trackindex>
							<clipindex>84</clipindex>
						</link>
						<link>
							<linkclipref>clipitem-689</linkclipref>
							<mediatype>audio</mediatype>
							<trackindex>5</trackindex>
							<clipindex>32</clipindex>
							<groupindex>1</groupindex>
						</link>
						<logginginfo>
							<description></description>
							<scene></scene>
							<shottake></shottake>
							<lognote></lognote>
						</logginginfo>
						<labels>
							<label2>Iris</label2>
						</labels>
					</clipitem>
					<clipitem id="clipitem-85">
						<masterclipid>masterclip-63</masterclipid>
						<name>AA277101.MXF</name>
						<enabled>TRUE</enabled>
						<duration>5604</duration>
						<rate>
							<timebase>25</timebase>
							<ntsc>FALSE</ntsc>
						</rate>
						<start>25968</start>
						<end>26270</end>
						<in>3536</in>
						<out>3838</out>
						<pproTicksIn>35928023040000</pproTicksIn>
						<pproTicksOut>38996536320000</pproTicksOut>
						<alphatype>none</alphatype>
						<file id="file-63"/>
						<logginginfo>
							<description></description>
							<scene></scene>
							<shottake></shottake>
							<lognote></lognote>
						</logginginfo>
						<labels>
							<label2>Iris</label2>
						</labels>
					</clipitem>
					<clipitem id="clipitem-86">
						<masterclipid>masterclip-19</masterclipid>
						<name>20160515_184145.mp4</name>
						<enabled>TRUE</enabled>
						<duration>1485</duration>
						<rate>
							<timebase>25</timebase>
							<ntsc>FALSE</ntsc>
						</rate>
						<start>26270</start>
						<end>26436</end>
						<in>0</in>
						<out>166</out>
						<pproTicksIn>0</pproTicksIn>
						<pproTicksOut>1686666240000</pproTicksOut>
						<alphatype>black</alphatype>
						<file id="file-19"/>
							<filter>
								<effect>
									<name>Basic Motion</name>
									<effectid>basic</effectid>
									<effectcategory>motion</effectcategory>
									<effecttype>motion</effecttype>
									<mediatype>video</mediatype>
									<parameter authoringApp="PremierePro">
										<parameterid>scale</parameterid>
										<name>Scale</name>
										<valuemin>0</valuemin>
										<valuemax>1000</valuemax>
										<value>325</value>
									</parameter>
									<parameter authoringApp="PremierePro">
										<parameterid>rotation</parameterid>
										<name>Rotation</name>
										<valuemin>-8640</valuemin>
										<valuemax>8640</valuemax>
										<value>0</value>
									</parameter>
									<parameter authoringApp="PremierePro">
										<parameterid>center</parameterid>
										<name>Center</name>
										<value>
											<horiz>0</horiz>
											<vert>0</vert>
										</value>
									</parameter>
									<parameter authoringApp="PremierePro">
										<parameterid>centerOffset</parameterid>
										<name>Anchor Point</name>
										<value>
											<horiz>0</horiz>
											<vert>0</vert>
										</value>
									</parameter>
								</effect>
							</filter>
							<filter>
								<effect>
									<name>Opacity</name>
									<effectid>opacity</effectid>
									<effectcategory>motion</effectcategory>
									<effecttype>motion</effecttype>
									<mediatype>video</mediatype>
									<parameter authoringApp="PremierePro">
										<parameterid>opacity</parameterid>
										<name>opacity</name>
										<valuemin>0</valuemin>
										<valuemax>100</valuemax>
										<value>100</value>
										<keyframe>
											<when>-18671</when>
											<value>60</value>
										</keyframe>
										<keyframe>
											<when>11</when>
											<value>25</value>
										</keyframe>
									</parameter>
								</effect>
							</filter>
							<filter>
								<effect>
									<name>Gaussian Blur</name>
									<effectid>Gaussian Blur</effectid>
									<effectcategory>Blur</effectcategory>
									<effecttype>motion</effecttype>
									<mediatype>video</mediatype>
									<parameter authoringApp="PremierePro">
										<parameterid>radius</parameterid>
										<name>Radius</name>
										<valuemin>0</valuemin>
										<valuemax>100</valuemax>
										<value>0</value>
									</parameter>
								</effect>
							</filter>
						<link>
							<linkclipref>clipitem-86</linkclipref>
							<mediatype>video</mediatype>
							<trackindex>1</trackindex>
							<clipindex>86</clipindex>
						</link>
						<link>
							<linkclipref>clipitem-755</linkclipref>
							<mediatype>audio</mediatype>
							<trackindex>8</trackindex>
							<clipindex>45</clipindex>
							<groupindex>1</groupindex>
						</link>
						<link>
							<linkclipref>clipitem-851</linkclipref>
							<mediatype>audio</mediatype>
							<trackindex>9</trackindex>
							<clipindex>45</clipindex>
							<groupindex>1</groupindex>
						</link>
						<logginginfo>
							<description></description>
							<scene></scene>
							<shottake></shottake>
							<lognote></lognote>
						</logginginfo>
						<labels>
							<label2>Iris</label2>
						</labels>
					</clipitem>
					<clipitem id="clipitem-87">
						<masterclipid>masterclip-19</masterclipid>
						<name>20160515_184145.mp4</name>
						<enabled>TRUE</enabled>
						<duration>1485</duration>
						<rate>
							<timebase>25</timebase>
							<ntsc>FALSE</ntsc>
						</rate>
						<start>26436</start>
						<end>26665</end>
						<in>292</in>
						<out>521</out>
						<pproTicksIn>2966906880000</pproTicksIn>
						<pproTicksOut>5293693440000</pproTicksOut>
						<alphatype>black</alphatype>
						<file id="file-19"/>
							<filter>
								<effect>
									<name>Basic Motion</name>
									<effectid>basic</effectid>
									<effectcategory>motion</effectcategory>
									<effecttype>motion</effecttype>
									<mediatype>video</mediatype>
									<parameter authoringApp="PremierePro">
										<parameterid>scale</parameterid>
										<name>Scale</name>
										<valuemin>0</valuemin>
										<valuemax>1000</valuemax>
										<value>325</value>
									</parameter>
									<parameter authoringApp="PremierePro">
										<parameterid>rotation</parameterid>
										<name>Rotation</name>
										<valuemin>-8640</valuemin>
										<valuemax>8640</valuemax>
										<value>0</value>
									</parameter>
									<parameter authoringApp="PremierePro">
										<parameterid>center</parameterid>
										<name>Center</name>
										<value>
											<horiz>0</horiz>
											<vert>0</vert>
										</value>
									</parameter>
									<parameter authoringApp="PremierePro">
										<parameterid>centerOffset</parameterid>
										<name>Anchor Point</name>
										<value>
											<horiz>0</horiz>
											<vert>0</vert>
										</value>
									</parameter>
								</effect>
							</filter>
							<filter>
								<effect>
									<name>Opacity</name>
									<effectid>opacity</effectid>
									<effectcategory>motion</effectcategory>
									<effecttype>motion</effecttype>
									<mediatype>video</mediatype>
									<parameter authoringApp="PremierePro">
										<parameterid>opacity</parameterid>
										<name>opacity</name>
										<valuemin>0</valuemin>
										<valuemax>100</valuemax>
										<value>100</value>
										<keyframe>
											<when>-27828</when>
											<value>60</value>
										</keyframe>
										<keyframe>
											<when>309</when>
											<value>25</value>
										</keyframe>
									</parameter>
								</effect>
							</filter>
							<filter>
								<effect>
									<name>Gaussian Blur</name>
									<effectid>Gaussian Blur</effectid>
									<effectcategory>Blur</effectcategory>
									<effecttype>motion</effecttype>
									<mediatype>video</mediatype>
									<parameter authoringApp="PremierePro">
										<parameterid>radius</parameterid>
										<name>Radius</name>
										<valuemin>0</valuemin>
										<valuemax>100</valuemax>
										<value>0</value>
									</parameter>
								</effect>
							</filter>
						<logginginfo>
							<description></description>
							<scene></scene>
							<shottake></shottake>
							<lognote></lognote>
						</logginginfo>
						<labels>
							<label2>Iris</label2>
						</labels>
					</clipitem>
					<clipitem id="clipitem-88">
						<masterclipid>masterclip-66</masterclipid>
						<name>AA277301.MXF</name>
						<enabled>TRUE</enabled>
						<duration>960</duration>
						<rate>
							<timebase>25</timebase>
							<ntsc>FALSE</ntsc>
						</rate>
						<start>26665</start>
						<end>27140</end>
						<in>371</in>
						<out>846</out>
						<pproTicksIn>3769597440000</pproTicksIn>
						<pproTicksOut>8595901440000</pproTicksOut>
						<alphatype>none</alphatype>
						<pixelaspectratio>square</pixelaspectratio>
						<anamorphic>FALSE</anamorphic>
						<file id="file-66">
							<name>AA277301.MXF</name>
							<pathurl>file://localhost/Volumes/Vaagen/Utveksling/Natur/Naturlig%20helaften%20fra%20Oslo/Copied_Copy%20of%20En%20Helaften%20MASTER_002/AA277301.MXF</pathurl>
							<rate>
								<timebase>25</timebase>
								<ntsc>FALSE</ntsc>
							</rate>
							<duration>960</duration>
							<timecode>
								<rate>
									<timebase>25</timebase>
									<ntsc>FALSE</ntsc>
								</rate>
								<string>15:40:39:22</string>
								<frame>1410997</frame>
								<displayformat>NDF</displayformat>
								<reel>
									<name></name>
								</reel>
							</timecode>
							<media>
								<video>
									<samplecharacteristics>
										<rate>
											<timebase>25</timebase>
											<ntsc>FALSE</ntsc>
										</rate>
										<width>1920</width>
										<height>1080</height>
										<anamorphic>FALSE</anamorphic>
										<pixelaspectratio>square</pixelaspectratio>
										<fielddominance>none</fielddominance>
									</samplecharacteristics>
								</video>
								<audio>
									<samplecharacteristics>
										<depth>16</depth>
										<samplerate>48000</samplerate>
									</samplecharacteristics>
									<channelcount>2</channelcount>
								</audio>
							</media>
						</file>
						<link>
							<linkclipref>clipitem-88</linkclipref>
							<mediatype>video</mediatype>
							<trackindex>1</trackindex>
							<clipindex>88</clipindex>
						</link>
						<link>
							<linkclipref>clipitem-757</linkclipref>
							<mediatype>audio</mediatype>
							<trackindex>8</trackindex>
							<clipindex>47</clipindex>
							<groupindex>1</groupindex>
						</link>
						<link>
							<linkclipref>clipitem-853</linkclipref>
							<mediatype>audio</mediatype>
							<trackindex>9</trackindex>
							<clipindex>47</clipindex>
							<groupindex>1</groupindex>
						</link>
						<logginginfo>
							<description></description>
							<scene></scene>
							<shottake></shottake>
							<lognote></lognote>
						</logginginfo>
						<labels>
							<label2>Iris</label2>
						</labels>
					</clipitem>
					<clipitem id="clipitem-89">
						<masterclipid>masterclip-67</masterclipid>
						<name>DVNA21000514BA.mxf</name>
						<enabled>TRUE</enabled>
						<duration>397</duration>
						<rate>
							<timebase>25</timebase>
							<ntsc>FALSE</ntsc>
						</rate>
						<start>27140</start>
						<end>27408</end>
						<in>0</in>
						<out>268</out>
						<pproTicksIn>0</pproTicksIn>
						<pproTicksOut>2723051520000</pproTicksOut>
						<alphatype>none</alphatype>
						<pixelaspectratio>square</pixelaspectratio>
						<anamorphic>FALSE</anamorphic>
						<file id="file-67">
							<name>DVNA21000514BA.mxf</name>
							<pathurl>file://localhost/Volumes/Svartediket/Prosjekter/DVNA600216_HELAFTEN2016_FAL_010217/Video/Transcoded_vv%20naturlig%20helaften/DVNA21000514BA.mxf</pathurl>
							<rate>
								<timebase>25</timebase>
								<ntsc>FALSE</ntsc>
							</rate>
							<duration>397</duration>
							<timecode>
								<rate>
									<timebase>25</timebase>
									<ntsc>FALSE</ntsc>
								</rate>
								<string>00:00:00:00</string>
								<frame>0</frame>
								<displayformat>NDF</displayformat>
								<reel>
									<name>\\NDHO\Omn\E\C\36\73</name>
								</reel>
							</timecode>
							<media>
								<video>
									<samplecharacteristics>
										<rate>
											<timebase>25</timebase>
											<ntsc>FALSE</ntsc>
										</rate>
										<width>1920</width>
										<height>1080</height>
										<anamorphic>FALSE</anamorphic>
										<pixelaspectratio>square</pixelaspectratio>
										<fielddominance>upper</fielddominance>
									</samplecharacteristics>
								</video>
								<audio>
									<samplecharacteristics>
										<depth>16</depth>
										<samplerate>48000</samplerate>
									</samplecharacteristics>
									<channelcount>2</channelcount>
								</audio>
								<audio>
									<samplecharacteristics>
										<depth>16</depth>
										<samplerate>48000</samplerate>
									</samplecharacteristics>
									<channelcount>2</channelcount>
								</audio>
								<audio>
									<samplecharacteristics>
										<depth>16</depth>
										<samplerate>48000</samplerate>
									</samplecharacteristics>
									<channelcount>2</channelcount>
								</audio>
								<audio>
									<samplecharacteristics>
										<depth>16</depth>
										<samplerate>48000</samplerate>
									</samplecharacteristics>
									<channelcount>2</channelcount>
								</audio>
							</media>
						</file>
						<logginginfo>
							<description>Villmarkas voktere (5:8 @ Villmarkas voktere)</description>
							<scene></scene>
							<shottake></shottake>
							<lognote></lognote>
						</logginginfo>
						<labels>
							<label2>Iris</label2>
						</labels>
					</clipitem>
					<clipitem id="clipitem-90">
						<masterclipid>masterclip-68</masterclipid>
						<name>DVNA21000514BA.mxf</name>
						<enabled>TRUE</enabled>
						<duration>200</duration>
						<rate>
							<timebase>25</timebase>
							<ntsc>FALSE</ntsc>
						</rate>
						<start>27408</start>
						<end>27543</end>
						<in>40</in>
						<out>175</out>
						<pproTicksIn>406425600000</pproTicksIn>
						<pproTicksOut>1778112000000</pproTicksOut>
						<alphatype>none</alphatype>
						<pixelaspectratio>square</pixelaspectratio>
						<anamorphic>FALSE</anamorphic>
						<file id="file-68">
							<name>DVNA21000514BA_001.mxf</name>
							<pathurl>file://localhost/Volumes/Svartediket/Prosjekter/DVNA600216_HELAFTEN2016_FAL_010217/Video/Transcoded_vv%20naturlig%20helaften/DVNA21000514BA_001.mxf</pathurl>
							<rate>
								<timebase>25</timebase>
								<ntsc>FALSE</ntsc>
							</rate>
							<duration>200</duration>
							<timecode>
								<rate>
									<timebase>25</timebase>
									<ntsc>FALSE</ntsc>
								</rate>
								<string>00:10:42:19</string>
								<frame>16069</frame>
								<displayformat>NDF</displayformat>
								<reel>
									<name></name>
								</reel>
							</timecode>
							<media>
								<video>
									<samplecharacteristics>
										<rate>
											<timebase>25</timebase>
											<ntsc>FALSE</ntsc>
										</rate>
										<width>1920</width>
										<height>1080</height>
										<anamorphic>FALSE</anamorphic>
										<pixelaspectratio>square</pixelaspectratio>
										<fielddominance>upper</fielddominance>
									</samplecharacteristics>
								</video>
								<audio>
									<samplecharacteristics>
										<depth>16</depth>
										<samplerate>48000</samplerate>
									</samplecharacteristics>
									<channelcount>2</channelcount>
								</audio>
								<audio>
									<samplecharacteristics>
										<depth>16</depth>
										<samplerate>48000</samplerate>
									</samplecharacteristics>
									<channelcount>2</channelcount>
								</audio>
								<audio>
									<samplecharacteristics>
										<depth>16</depth>
										<samplerate>48000</samplerate>
									</samplecharacteristics>
									<channelcount>2</channelcount>
								</audio>
								<audio>
									<samplecharacteristics>
										<depth>16</depth>
										<samplerate>48000</samplerate>
									</samplecharacteristics>
									<channelcount>2</channelcount>
								</audio>
							</media>
						</file>
						<logginginfo>
							<description></description>
							<scene></scene>
							<shottake></shottake>
							<lognote></lognote>
						</logginginfo>
						<labels>
							<label2>Iris</label2>
						</labels>
					</clipitem>
					<clipitem id="clipitem-91">
						<masterclipid>masterclip-69</masterclipid>
						<name>DVNA21000514BA.mxf</name>
						<enabled>TRUE</enabled>
						<duration>464</duration>
						<rate>
							<timebase>25</timebase>
							<ntsc>FALSE</ntsc>
						</rate>
						<start>27543</start>
						<end>27891</end>
						<in>91</in>
						<out>439</out>
						<pproTicksIn>924618240000</pproTicksIn>
						<pproTicksOut>4460520960000</pproTicksOut>
						<alphatype>none</alphatype>
						<pixelaspectratio>square</pixelaspectratio>
						<anamorphic>FALSE</anamorphic>
						<file id="file-69">
							<name>DVNA21000514BA_002.mxf</name>
							<pathurl>file://localhost/Volumes/Svartediket/Prosjekter/DVNA600216_HELAFTEN2016_FAL_010217/Video/Transcoded_vv%20naturlig%20helaften/DVNA21000514BA_002.mxf</pathurl>
							<rate>
								<timebase>25</timebase>
								<ntsc>FALSE</ntsc>
							</rate>
							<duration>464</duration>
							<timecode>
								<rate>
									<timebase>25</timebase>
									<ntsc>FALSE</ntsc>
								</rate>
								<string>00:10:50:22</string>
								<frame>16272</frame>
								<displayformat>NDF</displayformat>
								<reel>
									<name></name>
								</reel>
							</timecode>
							<media>
								<video>
									<samplecharacteristics>
										<rate>
											<timebase>25</timebase>
											<ntsc>FALSE</ntsc>
										</rate>
										<width>1920</width>
										<height>1080</height>
										<anamorphic>FALSE</anamorphic>
										<pixelaspectratio>square</pixelaspectratio>
										<fielddominance>upper</fielddominance>
									</samplecharacteristics>
								</video>
								<audio>
									<samplecharacteristics>
										<depth>16</depth>
										<samplerate>48000</samplerate>
									</samplecharacteristics>
									<channelcount>2</channelcount>
								</audio>
								<audio>
									<samplecharacteristics>
										<depth>16</depth>
										<samplerate>48000</samplerate>
									</samplecharacteristics>
									<channelcount>2</channelcount>
								</audio>
								<audio>
									<samplecharacteristics>
										<depth>16</depth>
										<samplerate>48000</samplerate>
									</samplecharacteristics>
									<channelcount>2</channelcount>
								</audio>
								<audio>
									<samplecharacteristics>
										<depth>16</depth>
										<samplerate>48000</samplerate>
									</samplecharacteristics>
									<channelcount>2</channelcount>
								</audio>
							</media>
						</file>
						<logginginfo>
							<description></description>
							<scene></scene>
							<shottake></shottake>
							<lognote></lognote>
						</logginginfo>
						<labels>
							<label2>Iris</label2>
						</labels>
					</clipitem>
					<clipitem id="clipitem-92">
						<masterclipid>masterclip-70</masterclipid>
						<name>DVNA21000514BA.mxf</name>
						<enabled>TRUE</enabled>
						<duration>172</duration>
						<rate>
							<timebase>25</timebase>
							<ntsc>FALSE</ntsc>
						</rate>
						<start>27891</start>
						<end>27951</end>
						<in>25</in>
						<out>85</out>
						<pproTicksIn>254016000000</pproTicksIn>
						<pproTicksOut>863654400000</pproTicksOut>
						<alphatype>none</alphatype>
						<pixelaspectratio>square</pixelaspectratio>
						<anamorphic>FALSE</anamorphic>
						<file id="file-70">
							<name>DVNA21000514BA_004.mxf</name>
							<pathurl>file://localhost/Volumes/Svartediket/Prosjekter/DVNA600216_HELAFTEN2016_FAL_010217/Video/Transcoded_vv%20naturlig%20helaften/DVNA21000514BA_004.mxf</pathurl>
							<rate>
								<timebase>25</timebase>
								<ntsc>FALSE</ntsc>
							</rate>
							<duration>172</duration>
							<timecode>
								<rate>
									<timebase>25</timebase>
									<ntsc>FALSE</ntsc>
								</rate>
								<string>00:11:09:14</string>
								<frame>16739</frame>
								<displayformat>NDF</displayformat>
								<reel>
									<name></name>
								</reel>
							</timecode>
							<media>
								<video>
									<samplecharacteristics>
										<rate>
											<timebase>25</timebase>
											<ntsc>FALSE</ntsc>
										</rate>
										<width>1920</width>
										<height>1080</height>
										<anamorphic>FALSE</anamorphic>
										<pixelaspectratio>square</pixelaspectratio>
										<fielddominance>upper</fielddominance>
									</samplecharacteristics>
								</video>
								<audio>
									<samplecharacteristics>
										<depth>16</depth>
										<samplerate>48000</samplerate>
									</samplecharacteristics>
									<channelcount>2</channelcount>
								</audio>
								<audio>
									<samplecharacteristics>
										<depth>16</depth>
										<samplerate>48000</samplerate>
									</samplecharacteristics>
									<channelcount>2</channelcount>
								</audio>
								<audio>
									<samplecharacteristics>
										<depth>16</depth>
										<samplerate>48000</samplerate>
									</samplecharacteristics>
									<channelcount>2</channelcount>
								</audio>
								<audio>
									<samplecharacteristics>
										<depth>16</depth>
										<samplerate>48000</samplerate>
									</samplecharacteristics>
									<channelcount>2</channelcount>
								</audio>
							</media>
						</file>
						<logginginfo>
							<description></description>
							<scene></scene>
							<shottake></shottake>
							<lognote></lognote>
						</logginginfo>
						<labels>
							<label2>Iris</label2>
						</labels>
					</clipitem>
					<clipitem id="clipitem-93">
						<masterclipid>masterclip-67</masterclipid>
						<name>DVNA21000514BA.mxf</name>
						<enabled>TRUE</enabled>
						<duration>397</duration>
						<rate>
							<timebase>25</timebase>
							<ntsc>FALSE</ntsc>
						</rate>
						<start>27951</start>
						<end>28013</end>
						<in>310</in>
						<out>372</out>
						<pproTicksIn>3149798400000</pproTicksIn>
						<pproTicksOut>3779758080000</pproTicksOut>
						<alphatype>none</alphatype>
						<file id="file-67"/>
						<logginginfo>
							<description>Villmarkas voktere (5:8 @ Villmarkas voktere)</description>
							<scene></scene>
							<shottake></shottake>
							<lognote></lognote>
						</logginginfo>
						<labels>
							<label2>Iris</label2>
						</labels>
					</clipitem>
					<clipitem id="clipitem-94">
						<masterclipid>masterclip-71</masterclipid>
						<name>DVNA21000514BA.mxf</name>
						<enabled>TRUE</enabled>
						<duration>167</duration>
						<rate>
							<timebase>25</timebase>
							<ntsc>FALSE</ntsc>
						</rate>
						<start>28013</start>
						<end>-1</end>
						<in>25</in>
						<out>87</out>
						<pproTicksIn>254016000000</pproTicksIn>
						<pproTicksOut>883975680000</pproTicksOut>
						<alphatype>none</alphatype>
						<pixelaspectratio>square</pixelaspectratio>
						<anamorphic>FALSE</anamorphic>
						<file id="file-71">
							<name>DVNA21000514BA_003.mxf</name>
							<pathurl>file://localhost/Volumes/Svartediket/Prosjekter/DVNA600216_HELAFTEN2016_FAL_010217/Video/Transcoded_vv%20naturlig%20helaften/DVNA21000514BA_003.mxf</pathurl>
							<rate>
								<timebase>25</timebase>
								<ntsc>FALSE</ntsc>
							</rate>
							<duration>167</duration>
							<timecode>
								<rate>
									<timebase>25</timebase>
									<ntsc>FALSE</ntsc>
								</rate>
								<string>00:12:48:03</string>
								<frame>19203</frame>
								<displayformat>NDF</displayformat>
								<reel>
									<name></name>
								</reel>
							</timecode>
							<media>
								<video>
									<samplecharacteristics>
										<rate>
											<timebase>25</timebase>
											<ntsc>FALSE</ntsc>
										</rate>
										<width>1920</width>
										<height>1080</height>
										<anamorphic>FALSE</anamorphic>
										<pixelaspectratio>square</pixelaspectratio>
										<fielddominance>upper</fielddominance>
									</samplecharacteristics>
								</video>
							</media>
						</file>
						<logginginfo>
							<description></description>
							<scene></scene>
							<shottake></shottake>
							<lognote></lognote>
						</logginginfo>
						<labels>
							<label2>Iris</label2>
						</labels>
					</clipitem>
					<transitionitem>
						<start>28065</start>
						<end>28075</end>
						<alignment>end</alignment>
						<cutPointTicks>101606400000</cutPointTicks>
						<rate>
							<timebase>25</timebase>
							<ntsc>FALSE</ntsc>
						</rate>
						<effect>
							<name>Cross Dissolve</name>
							<effectid>Cross Dissolve</effectid>
							<effectcategory>Dissolve</effectcategory>
							<effecttype>transition</effecttype>
							<mediatype>video</mediatype>
							<wipecode>0</wipecode>
							<wipeaccuracy>100</wipeaccuracy>
							<startratio>0</startratio>
							<endratio>1</endratio>
							<reverse>FALSE</reverse>
						</effect>
					</transitionitem>
					<clipitem id="clipitem-95">
						<masterclipid>masterclip-72</masterclipid>
						<name>DNPR65008515AA</name>
						<enabled>TRUE</enabled>
						<duration>89053</duration>
						<rate>
							<timebase>25</timebase>
							<ntsc>FALSE</ntsc>
						</rate>
						<start>-1</start>
						<end>28184</end>
						<in>47312</in>
						<out>47431</out>
						<pproTicksIn>480720199680000</pproTicksIn>
						<pproTicksOut>481929315840000</pproTicksOut>
						<alphatype>none</alphatype>
						<pixelaspectratio>square</pixelaspectratio>
						<anamorphic>FALSE</anamorphic>
						<file id="file-72">
							<name>DNPR65008515AA.mxf</name>
							<pathurl>file://localhost/Volumes/omfs/clip.dir/MXF/1080i/DNPR65008515AA.mxf</pathurl>
							<rate>
								<timebase>25</timebase>
								<ntsc>FALSE</ntsc>
							</rate>
							<duration>89053</duration>
							<timecode>
								<rate>
									<timebase>25</timebase>
									<ntsc>FALSE</ntsc>
								</rate>
								<string>00:00:00:00</string>
								<frame>0</frame>
								<displayformat>NDF</displayformat>
								<reel>
									<name>\\NDHO\Omn\E\I\41\66</name>
								</reel>
							</timecode>
							<media>
								<video>
									<samplecharacteristics>
										<rate>
											<timebase>25</timebase>
											<ntsc>FALSE</ntsc>
										</rate>
										<width>1920</width>
										<height>1080</height>
										<anamorphic>FALSE</anamorphic>
										<pixelaspectratio>square</pixelaspectratio>
										<fielddominance>upper</fielddominance>
									</samplecharacteristics>
								</video>
								<audio>
									<samplecharacteristics>
										<depth>16</depth>
										<samplerate>48000</samplerate>
									</samplecharacteristics>
									<channelcount>2</channelcount>
								</audio>
								<audio>
									<samplecharacteristics>
										<depth>16</depth>
										<samplerate>48000</samplerate>
									</samplecharacteristics>
									<channelcount>2</channelcount>
								</audio>
								<audio>
									<samplecharacteristics>
										<depth>16</depth>
										<samplerate>48000</samplerate>
									</samplecharacteristics>
									<channelcount>2</channelcount>
								</audio>
								<audio>
									<samplecharacteristics>
										<depth>16</depth>
										<samplerate>48000</samplerate>
									</samplecharacteristics>
									<channelcount>2</channelcount>
								</audio>
							</media>
						</file>
						<link>
							<linkclipref>clipitem-95</linkclipref>
							<mediatype>video</mediatype>
							<trackindex>1</trackindex>
							<clipindex>96</clipindex>
						</link>
						<link>
							<linkclipref>clipitem-1219</linkclipref>
							<mediatype>audio</mediatype>
							<trackindex>12</trackindex>
							<clipindex>51</clipindex>
							<groupindex>1</groupindex>
						</link>
						<link>
							<linkclipref>clipitem-1304</linkclipref>
							<mediatype>audio</mediatype>
							<trackindex>13</trackindex>
							<clipindex>51</clipindex>
							<groupindex>1</groupindex>
						</link>
						<logginginfo>
							<description>Et eventyr gjennom linsa</description>
							<scene></scene>
							<shottake></shottake>
							<lognote></lognote>
						</logginginfo>
						<labels>
							<label2>Caribbean</label2>
						</labels>
					</clipitem>
					<clipitem id="clipitem-96">
						<masterclipid>masterclip-72</masterclipid>
						<name>DNPR65008515AA</name>
						<enabled>TRUE</enabled>
						<duration>89053</duration>
						<rate>
							<timebase>25</timebase>
							<ntsc>FALSE</ntsc>
						</rate>
						<start>28184</start>
						<end>28350</end>
						<in>51873</in>
						<out>52039</out>
						<pproTicksIn>527062878720000</pproTicksIn>
						<pproTicksOut>528749544960000</pproTicksOut>
						<alphatype>none</alphatype>
						<file id="file-72"/>
						<logginginfo>
							<description>Et eventyr gjennom linsa</description>
							<scene></scene>
							<shottake></shottake>
							<lognote></lognote>
						</logginginfo>
						<labels>
							<label2>Caribbean</label2>
						</labels>
					</clipitem>
					<clipitem id="clipitem-97">
						<masterclipid>masterclip-72</masterclipid>
						<name>DNPR65008515AA</name>
						<enabled>TRUE</enabled>
						<duration>89053</duration>
						<rate>
							<timebase>25</timebase>
							<ntsc>FALSE</ntsc>
						</rate>
						<start>28350</start>
						<end>-1</end>
						<in>52358</in>
						<out>52540</out>
						<pproTicksIn>531990789120000</pproTicksIn>
						<pproTicksOut>533840025600000</pproTicksOut>
						<alphatype>none</alphatype>
						<file id="file-72"/>
						<logginginfo>
							<description>Et eventyr gjennom linsa</description>
							<scene></scene>
							<shottake></shottake>
							<lognote></lognote>
						</logginginfo>
						<labels>
							<label2>Caribbean</label2>
						</labels>
					</clipitem>
					<transitionitem>
						<start>28522</start>
						<end>28532</end>
						<alignment>end</alignment>
						<cutPointTicks>101606400000</cutPointTicks>
						<rate>
							<timebase>25</timebase>
							<ntsc>FALSE</ntsc>
						</rate>
						<effect>
							<name>Cross Dissolve</name>
							<effectid>Cross Dissolve</effectid>
							<effectcategory>Dissolve</effectcategory>
							<effecttype>transition</effecttype>
							<mediatype>video</mediatype>
							<wipecode>0</wipecode>
							<wipeaccuracy>100</wipeaccuracy>
							<startratio>0</startratio>
							<endratio>1</endratio>
							<reverse>FALSE</reverse>
						</effect>
					</transitionitem>
					<clipitem id="clipitem-98">
						<masterclipid>masterclip-73</masterclipid>
						<name>uin-seervideo-111116-h_p1</name>
						<enabled>TRUE</enabled>
						<duration>5247</duration>
						<rate>
							<timebase>25</timebase>
							<ntsc>FALSE</ntsc>
						</rate>
						<start>-1</start>
						<end>28634</end>
						<in>756</in>
						<out>868</out>
						<pproTicksIn>7681443840000</pproTicksIn>
						<pproTicksOut>8819435520000</pproTicksOut>
						<alphatype>none</alphatype>
						<pixelaspectratio>square</pixelaspectratio>
						<anamorphic>FALSE</anamorphic>
						<file id="file-73">
							<name>uin-seervideo-111116-h_p1.mxf</name>
							<pathurl>file://localhost/Volumes/omfs/clip.dir/MXF/1080i/uin-seervideo-111116-h_p1.mxf</pathurl>
							<rate>
								<timebase>25</timebase>
								<ntsc>FALSE</ntsc>
							</rate>
							<duration>5247</duration>
							<timecode>
								<rate>
									<timebase>25</timebase>
									<ntsc>FALSE</ntsc>
								</rate>
								<string>00:33:16:23</string>
								<frame>49923</frame>
								<displayformat>NDF</displayformat>
								<reel>
									<name>\\NDHO\Omn\E\K\64\51</name>
								</reel>
							</timecode>
							<media>
								<video>
									<samplecharacteristics>
										<rate>
											<timebase>25</timebase>
											<ntsc>FALSE</ntsc>
										</rate>
										<width>1920</width>
										<height>1080</height>
										<anamorphic>FALSE</anamorphic>
										<pixelaspectratio>square</pixelaspectratio>
										<fielddominance>upper</fielddominance>
									</samplecharacteristics>
								</video>
								<audio>
									<samplecharacteristics>
										<depth>16</depth>
										<samplerate>48000</samplerate>
									</samplecharacteristics>
									<channelcount>2</channelcount>
								</audio>
								<audio>
									<samplecharacteristics>
										<depth>16</depth>
										<samplerate>48000</samplerate>
									</samplecharacteristics>
									<channelcount>2</channelcount>
								</audio>
								<audio>
									<samplecharacteristics>
										<depth>16</depth>
										<samplerate>48000</samplerate>
									</samplecharacteristics>
									<channelcount>2</channelcount>
								</audio>
								<audio>
									<samplecharacteristics>
										<depth>16</depth>
										<samplerate>48000</samplerate>
									</samplecharacteristics>
									<channelcount>2</channelcount>
								</audio>
							</media>
						</file>
						<logginginfo>
							<description>DVNA60000116AA</description>
							<scene></scene>
							<shottake></shottake>
							<lognote></lognote>
						</logginginfo>
						<labels>
							<label2>Caribbean</label2>
						</labels>
					</clipitem>
					<clipitem id="clipitem-99">
						<masterclipid>masterclip-73</masterclipid>
						<name>uin-seervideo-111116-h_p1</name>
						<enabled>TRUE</enabled>
						<duration>5247</duration>
						<rate>
							<timebase>25</timebase>
							<ntsc>FALSE</ntsc>
						</rate>
						<start>28634</start>
						<end>28702</end>
						<in>1017</in>
						<out>1085</out>
						<pproTicksIn>10333370880000</pproTicksIn>
						<pproTicksOut>11024294400000</pproTicksOut>
						<alphatype>none</alphatype>
						<file id="file-73"/>
						<logginginfo>
							<description>DVNA60000116AA</description>
							<scene></scene>
							<shottake></shottake>
							<lognote></lognote>
						</logginginfo>
						<labels>
							<label2>Caribbean</label2>
						</labels>
					</clipitem>
					<clipitem id="clipitem-100">
						<masterclipid>masterclip-73</masterclipid>
						<name>uin-seervideo-111116-h_p1</name>
						<enabled>TRUE</enabled>
						<duration>5247</duration>
						<rate>
							<timebase>25</timebase>
							<ntsc>FALSE</ntsc>
						</rate>
						<start>28702</start>
						<end>28878</end>
						<in>1893</in>
						<out>2069</out>
						<pproTicksIn>19234091520000</pproTicksIn>
						<pproTicksOut>21022364160000</pproTicksOut>
						<alphatype>none</alphatype>
						<file id="file-73"/>
						<link>
							<linkclipref>clipitem-100</linkclipref>
							<mediatype>video</mediatype>
							<trackindex>1</trackindex>
							<clipindex>102</clipindex>
						</link>
						<link>
							<linkclipref>clipitem-762</linkclipref>
							<mediatype>audio</mediatype>
							<trackindex>8</trackindex>
							<clipindex>53</clipindex>
							<groupindex>1</groupindex>
						</link>
						<link>
							<linkclipref>clipitem-858</linkclipref>
							<mediatype>audio</mediatype>
							<trackindex>9</trackindex>
							<clipindex>53</clipindex>
							<groupindex>1</groupindex>
						</link>
						<logginginfo>
							<description>DVNA60000116AA</description>
							<scene></scene>
							<shottake></shottake>
							<lognote></lognote>
						</logginginfo>
						<labels>
							<label2>Caribbean</label2>
						</labels>
					</clipitem>
					<clipitem id="clipitem-101">
						<masterclipid>masterclip-73</masterclipid>
						<name>uin-seervideo-111116-h_p1</name>
						<enabled>TRUE</enabled>
						<duration>5247</duration>
						<rate>
							<timebase>25</timebase>
							<ntsc>FALSE</ntsc>
						</rate>
						<start>28878</start>
						<end>29106</end>
						<in>3254</in>
						<out>3482</out>
						<pproTicksIn>33062722560000</pproTicksIn>
						<pproTicksOut>35379348480000</pproTicksOut>
						<alphatype>none</alphatype>
						<file id="file-73"/>
						<link>
							<linkclipref>clipitem-101</linkclipref>
							<mediatype>video</mediatype>
							<trackindex>1</trackindex>
							<clipindex>103</clipindex>
						</link>
						<link>
							<linkclipref>clipitem-948</linkclipref>
							<mediatype>audio</mediatype>
							<trackindex>10</trackindex>
							<clipindex>47</clipindex>
							<groupindex>1</groupindex>
						</link>
						<link>
							<linkclipref>clipitem-1088</linkclipref>
							<mediatype>audio</mediatype>
							<trackindex>11</trackindex>
							<clipindex>47</clipindex>
							<groupindex>1</groupindex>
						</link>
						<logginginfo>
							<description>DVNA60000116AA</description>
							<scene></scene>
							<shottake></shottake>
							<lognote></lognote>
						</logginginfo>
						<labels>
							<label2>Caribbean</label2>
						</labels>
					</clipitem>
					<clipitem id="clipitem-102">
						<masterclipid>masterclip-73</masterclipid>
						<name>uin-seervideo-111116-h_p1</name>
						<enabled>TRUE</enabled>
						<duration>5247</duration>
						<rate>
							<timebase>25</timebase>
							<ntsc>FALSE</ntsc>
						</rate>
						<start>29106</start>
						<end>-1</end>
						<in>4200</in>
						<out>4277</out>
						<pproTicksIn>42674688000000</pproTicksIn>
						<pproTicksOut>43457057280000</pproTicksOut>
						<alphatype>none</alphatype>
						<file id="file-73"/>
						<logginginfo>
							<description>DVNA60000116AA</description>
							<scene></scene>
							<shottake></shottake>
							<lognote></lognote>
						</logginginfo>
						<labels>
							<label2>Caribbean</label2>
						</labels>
					</clipitem>
					<transitionitem>
						<start>29173</start>
						<end>29183</end>
						<alignment>center</alignment>
						<cutPointTicks>60963840000</cutPointTicks>
						<rate>
							<timebase>25</timebase>
							<ntsc>FALSE</ntsc>
						</rate>
						<effect>
							<name>Cross Dissolve</name>
							<effectid>Cross Dissolve</effectid>
							<effectcategory>Dissolve</effectcategory>
							<effecttype>transition</effecttype>
							<mediatype>video</mediatype>
							<wipecode>0</wipecode>
							<wipeaccuracy>100</wipeaccuracy>
							<startratio>0</startratio>
							<endratio>1</endratio>
							<reverse>FALSE</reverse>
						</effect>
					</transitionitem>
					<clipitem id="clipitem-103">
						<masterclipid>masterclip-74</masterclipid>
						<name>eventyr-hel-041117-st</name>
						<enabled>TRUE</enabled>
						<duration>822</duration>
						<rate>
							<timebase>25</timebase>
							<ntsc>FALSE</ntsc>
						</rate>
						<start>-1</start>
						<end>29213</end>
						<in>0</in>
						<out>40</out>
						<pproTicksIn>0</pproTicksIn>
						<pproTicksOut>406425600000</pproTicksOut>
						<alphatype>none</alphatype>
						<pixelaspectratio>square</pixelaspectratio>
						<anamorphic>FALSE</anamorphic>
						<file id="file-74">
							<name>eventyr-hel-041117-st.mxf</name>
							<pathurl>file://localhost/Volumes/omfs/clip.dir/MXF/1080i/eventyr-hel-041117-st.mxf</pathurl>
							<rate>
								<timebase>25</timebase>
								<ntsc>FALSE</ntsc>
							</rate>
							<duration>822</duration>
							<timecode>
								<rate>
									<timebase>25</timebase>
									<ntsc>FALSE</ntsc>
								</rate>
								<string>00:00:00:00</string>
								<frame>0</frame>
								<displayformat>NDF</displayformat>
								<reel>
									<name>\\NDHO\Omn\E\K\52\62</name>
								</reel>
							</timecode>
							<media>
								<video>
									<samplecharacteristics>
										<rate>
											<timebase>25</timebase>
											<ntsc>FALSE</ntsc>
										</rate>
										<width>1920</width>
										<height>1080</height>
										<anamorphic>FALSE</anamorphic>
										<pixelaspectratio>square</pixelaspectratio>
										<fielddominance>upper</fielddominance>
									</samplecharacteristics>
								</video>
								<audio>
									<samplecharacteristics>
										<depth>16</depth>
										<samplerate>48000</samplerate>
									</samplecharacteristics>
									<channelcount>2</channelcount>
								</audio>
								<audio>
									<samplecharacteristics>
										<depth>16</depth>
										<samplerate>48000</samplerate>
									</samplecharacteristics>
									<channelcount>2</channelcount>
								</audio>
								<audio>
									<samplecharacteristics>
										<depth>16</depth>
										<samplerate>48000</samplerate>
									</samplecharacteristics>
									<channelcount>2</channelcount>
								</audio>
								<audio>
									<samplecharacteristics>
										<depth>16</depth>
										<samplerate>48000</samplerate>
									</samplecharacteristics>
									<channelcount>2</channelcount>
								</audio>
							</media>
						</file>
						<logginginfo>
							<description>eventyr-hel-041117-st</description>
							<scene></scene>
							<shottake></shottake>
							<lognote></lognote>
						</logginginfo>
						<labels>
							<label2>Caribbean</label2>
						</labels>
					</clipitem>
					<clipitem id="clipitem-104">
						<masterclipid>masterclip-74</masterclipid>
						<name>eventyr-hel-041117-st</name>
						<enabled>TRUE</enabled>
						<duration>822</duration>
						<rate>
							<timebase>25</timebase>
							<ntsc>FALSE</ntsc>
						</rate>
						<start>29213</start>
						<end>29365</end>
						<in>58</in>
						<out>210</out>
						<pproTicksIn>589317120000</pproTicksIn>
						<pproTicksOut>2133734400000</pproTicksOut>
						<alphatype>none</alphatype>
						<file id="file-74"/>
						<link>
							<linkclipref>clipitem-104</linkclipref>
							<mediatype>video</mediatype>
							<trackindex>1</trackindex>
							<clipindex>107</clipindex>
						</link>
						<link>
							<linkclipref>clipitem-765</linkclipref>
							<mediatype>audio</mediatype>
							<trackindex>8</trackindex>
							<clipindex>57</clipindex>
							<groupindex>1</groupindex>
						</link>
						<link>
							<linkclipref>clipitem-861</linkclipref>
							<mediatype>audio</mediatype>
							<trackindex>9</trackindex>
							<clipindex>57</clipindex>
							<groupindex>1</groupindex>
						</link>
						<logginginfo>
							<description>eventyr-hel-041117-st</description>
							<scene></scene>
							<shottake></shottake>
							<lognote></lognote>
						</logginginfo>
						<labels>
							<label2>Caribbean</label2>
						</labels>
					</clipitem>
					<clipitem id="clipitem-105">
						<masterclipid>masterclip-74</masterclipid>
						<name>eventyr-hel-041117-st</name>
						<enabled>TRUE</enabled>
						<duration>822</duration>
						<rate>
							<timebase>25</timebase>
							<ntsc>FALSE</ntsc>
						</rate>
						<start>29365</start>
						<end>-1</end>
						<in>256</in>
						<out>563</out>
						<pproTicksIn>2601123840000</pproTicksIn>
						<pproTicksOut>5720440320000</pproTicksOut>
						<alphatype>none</alphatype>
						<file id="file-74"/>
						<link>
							<linkclipref>clipitem-105</linkclipref>
							<mediatype>video</mediatype>
							<trackindex>1</trackindex>
							<clipindex>108</clipindex>
						</link>
						<link>
							<linkclipref>clipitem-766</linkclipref>
							<mediatype>audio</mediatype>
							<trackindex>8</trackindex>
							<clipindex>58</clipindex>
							<groupindex>1</groupindex>
						</link>
						<link>
							<linkclipref>clipitem-862</linkclipref>
							<mediatype>audio</mediatype>
							<trackindex>9</trackindex>
							<clipindex>58</clipindex>
							<groupindex>1</groupindex>
						</link>
						<logginginfo>
							<description>eventyr-hel-041117-st</description>
							<scene></scene>
							<shottake></shottake>
							<lognote></lognote>
						</logginginfo>
						<labels>
							<label2>Caribbean</label2>
						</labels>
					</clipitem>
					<transitionitem>
						<start>29662</start>
						<end>29672</end>
						<alignment>end</alignment>
						<cutPointTicks>101606400000</cutPointTicks>
						<rate>
							<timebase>25</timebase>
							<ntsc>FALSE</ntsc>
						</rate>
						<effect>
							<name>Cross Dissolve</name>
							<effectid>Cross Dissolve</effectid>
							<effectcategory>Dissolve</effectcategory>
							<effecttype>transition</effecttype>
							<mediatype>video</mediatype>
							<wipecode>0</wipecode>
							<wipeaccuracy>100</wipeaccuracy>
							<startratio>0</startratio>
							<endratio>1</endratio>
							<reverse>FALSE</reverse>
						</effect>
					</transitionitem>
					<clipitem id="clipitem-106">
						<masterclipid>masterclip-75</masterclipid>
						<name>naturligvis-111116-ho_p0</name>
						<enabled>TRUE</enabled>
						<duration>5914</duration>
						<rate>
							<timebase>25</timebase>
							<ntsc>FALSE</ntsc>
						</rate>
						<start>-1</start>
						<end>29920</end>
						<in>43</in>
						<out>301</out>
						<pproTicksIn>436907520000</pproTicksIn>
						<pproTicksOut>3058352640000</pproTicksOut>
						<alphatype>none</alphatype>
						<pixelaspectratio>square</pixelaspectratio>
						<anamorphic>FALSE</anamorphic>
						<file id="file-75">
							<name>naturligvis-111116-ho_p0.mxf</name>
							<pathurl>file://localhost/Volumes/omfs/clip.dir/MXF/1080i/naturligvis-111116-ho_p0.mxf</pathurl>
							<rate>
								<timebase>25</timebase>
								<ntsc>FALSE</ntsc>
							</rate>
							<duration>5914</duration>
							<timecode>
								<rate>
									<timebase>25</timebase>
									<ntsc>FALSE</ntsc>
								</rate>
								<string>00:06:12:20</string>
								<frame>9320</frame>
								<displayformat>NDF</displayformat>
								<reel>
									<name>\\NDHO\Omn\E\K\65\24</name>
								</reel>
							</timecode>
							<media>
								<video>
									<samplecharacteristics>
										<rate>
											<timebase>25</timebase>
											<ntsc>FALSE</ntsc>
										</rate>
										<width>1920</width>
										<height>1080</height>
										<anamorphic>FALSE</anamorphic>
										<pixelaspectratio>square</pixelaspectratio>
										<fielddominance>upper</fielddominance>
									</samplecharacteristics>
								</video>
								<audio>
									<samplecharacteristics>
										<depth>16</depth>
										<samplerate>48000</samplerate>
									</samplecharacteristics>
									<channelcount>2</channelcount>
								</audio>
								<audio>
									<samplecharacteristics>
										<depth>16</depth>
										<samplerate>48000</samplerate>
									</samplecharacteristics>
									<channelcount>2</channelcount>
								</audio>
								<audio>
									<samplecharacteristics>
										<depth>16</depth>
										<samplerate>48000</samplerate>
									</samplecharacteristics>
									<channelcount>2</channelcount>
								</audio>
								<audio>
									<samplecharacteristics>
										<depth>16</depth>
										<samplerate>48000</samplerate>
									</samplecharacteristics>
									<channelcount>2</channelcount>
								</audio>
							</media>
						</file>
						<link>
							<linkclipref>clipitem-106</linkclipref>
							<mediatype>video</mediatype>
							<trackindex>1</trackindex>
							<clipindex>110</clipindex>
						</link>
						<link>
							<linkclipref>clipitem-767</linkclipref>
							<mediatype>audio</mediatype>
							<trackindex>8</trackindex>
							<clipindex>60</clipindex>
							<groupindex>1</groupindex>
						</link>
						<link>
							<linkclipref>clipitem-863</linkclipref>
							<mediatype>audio</mediatype>
							<trackindex>9</trackindex>
							<clipindex>60</clipindex>
							<groupindex>1</groupindex>
						</link>
						<logginginfo>
							<description>DVNA21001615AA</description>
							<scene></scene>
							<shottake></shottake>
							<lognote></lognote>
						</logginginfo>
						<labels>
							<label2>Caribbean</label2>
						</labels>
					</clipitem>
					<clipitem id="clipitem-107">
						<masterclipid>masterclip-75</masterclipid>
						<name>naturligvis-111116-ho_p0</name>
						<enabled>TRUE</enabled>
						<duration>5914</duration>
						<rate>
							<timebase>25</timebase>
							<ntsc>FALSE</ntsc>
						</rate>
						<start>29920</start>
						<end>30244</end>
						<in>531</in>
						<out>855</out>
						<pproTicksIn>5395299840000</pproTicksIn>
						<pproTicksOut>8687347200000</pproTicksOut>
						<alphatype>none</alphatype>
						<file id="file-75"/>
						<link>
							<linkclipref>clipitem-107</linkclipref>
							<mediatype>video</mediatype>
							<trackindex>1</trackindex>
							<clipindex>111</clipindex>
						</link>
						<link>
							<linkclipref>clipitem-768</linkclipref>
							<mediatype>audio</mediatype>
							<trackindex>8</trackindex>
							<clipindex>61</clipindex>
							<groupindex>1</groupindex>
						</link>
						<link>
							<linkclipref>clipitem-864</linkclipref>
							<mediatype>audio</mediatype>
							<trackindex>9</trackindex>
							<clipindex>61</clipindex>
							<groupindex>1</groupindex>
						</link>
						<logginginfo>
							<description>DVNA21001615AA</description>
							<scene></scene>
							<shottake></shottake>
							<lognote></lognote>
						</logginginfo>
						<labels>
							<label2>Caribbean</label2>
						</labels>
					</clipitem>
					<clipitem id="clipitem-108">
						<masterclipid>masterclip-75</masterclipid>
						<name>naturligvis-111116-ho_p0</name>
						<enabled>TRUE</enabled>
						<duration>5914</duration>
						<rate>
							<timebase>25</timebase>
							<ntsc>FALSE</ntsc>
						</rate>
						<start>30244</start>
						<end>-1</end>
						<in>2466</in>
						<out>2650</out>
						<pproTicksIn>25056138240000</pproTicksIn>
						<pproTicksOut>26925696000000</pproTicksOut>
						<alphatype>none</alphatype>
						<file id="file-75"/>
						<link>
							<linkclipref>clipitem-108</linkclipref>
							<mediatype>video</mediatype>
							<trackindex>1</trackindex>
							<clipindex>112</clipindex>
						</link>
						<link>
							<linkclipref>clipitem-769</linkclipref>
							<mediatype>audio</mediatype>
							<trackindex>8</trackindex>
							<clipindex>62</clipindex>
							<groupindex>1</groupindex>
						</link>
						<link>
							<linkclipref>clipitem-865</linkclipref>
							<mediatype>audio</mediatype>
							<trackindex>9</trackindex>
							<clipindex>62</clipindex>
							<groupindex>1</groupindex>
						</link>
						<logginginfo>
							<description>DVNA21001615AA</description>
							<scene></scene>
							<shottake></shottake>
							<lognote></lognote>
						</logginginfo>
						<labels>
							<label2>Caribbean</label2>
						</labels>
					</clipitem>
					<transitionitem>
						<start>30418</start>
						<end>30428</end>
						<alignment>start</alignment>
						<cutPointTicks>0</cutPointTicks>
						<rate>
							<timebase>25</timebase>
							<ntsc>FALSE</ntsc>
						</rate>
						<effect>
							<name>Cross Dissolve</name>
							<effectid>Cross Dissolve</effectid>
							<effectcategory>Dissolve</effectcategory>
							<effecttype>transition</effecttype>
							<mediatype>video</mediatype>
							<wipecode>0</wipecode>
							<wipeaccuracy>100</wipeaccuracy>
							<startratio>0</startratio>
							<endratio>1</endratio>
							<reverse>FALSE</reverse>
						</effect>
					</transitionitem>
					<clipitem id="clipitem-109">
						<masterclipid>masterclip-76</masterclipid>
						<name>DVNA21002015AA</name>
						<enabled>TRUE</enabled>
						<duration>58716</duration>
						<rate>
							<timebase>25</timebase>
							<ntsc>FALSE</ntsc>
						</rate>
						<start>-1</start>
						<end>30953</end>
						<in>25431</in>
						<out>25966</out>
						<pproTicksIn>258395235840000</pproTicksIn>
						<pproTicksOut>263831178240000</pproTicksOut>
						<alphatype>none</alphatype>
						<pixelaspectratio>square</pixelaspectratio>
						<anamorphic>FALSE</anamorphic>
						<file id="file-76">
							<name>DVNA21002015AA.mxf</name>
							<pathurl>file://localhost/Volumes/omfs/clip.dir/MXF/1080i/DVNA21002015AA.mxf</pathurl>
							<rate>
								<timebase>25</timebase>
								<ntsc>FALSE</ntsc>
							</rate>
							<duration>58716</duration>
							<timecode>
								<rate>
									<timebase>25</timebase>
									<ntsc>FALSE</ntsc>
								</rate>
								<string>00:00:00:00</string>
								<frame>0</frame>
								<displayformat>NDF</displayformat>
								<reel>
									<name>\\NDHO\Omn\E\K\14\75</name>
								</reel>
							</timecode>
							<media>
								<video>
									<samplecharacteristics>
										<rate>
											<timebase>25</timebase>
											<ntsc>FALSE</ntsc>
										</rate>
										<width>1920</width>
										<height>1080</height>
										<anamorphic>FALSE</anamorphic>
										<pixelaspectratio>square</pixelaspectratio>
										<fielddominance>upper</fielddominance>
									</samplecharacteristics>
								</video>
								<audio>
									<samplecharacteristics>
										<depth>16</depth>
										<samplerate>48000</samplerate>
									</samplecharacteristics>
									<channelcount>2</channelcount>
								</audio>
								<audio>
									<samplecharacteristics>
										<depth>16</depth>
										<samplerate>48000</samplerate>
									</samplecharacteristics>
									<channelcount>2</channelcount>
								</audio>
								<audio>
									<samplecharacteristics>
										<depth>16</depth>
										<samplerate>48000</samplerate>
									</samplecharacteristics>
									<channelcount>2</channelcount>
								</audio>
								<audio>
									<samplecharacteristics>
										<depth>16</depth>
										<samplerate>48000</samplerate>
									</samplecharacteristics>
									<channelcount>2</channelcount>
								</audio>
							</media>
						</file>
						<logginginfo>
							<description>Ut i naturen - Sanser (2:6 @ Ut i naturen)</description>
							<scene></scene>
							<shottake></shottake>
							<lognote></lognote>
						</logginginfo>
						<labels>
							<label2>Caribbean</label2>
						</labels>
					</clipitem>
					<clipitem id="clipitem-110">
						<masterclipid>masterclip-77</masterclipid>
						<name>AA277601.MXF</name>
						<enabled>TRUE</enabled>
						<duration>4476</duration>
						<rate>
							<timebase>25</timebase>
							<ntsc>FALSE</ntsc>
						</rate>
						<start>30953</start>
						<end>31152</end>
						<in>4186</in>
						<out>4385</out>
						<pproTicksIn>42532439040000</pproTicksIn>
						<pproTicksOut>44554406400000</pproTicksOut>
						<alphatype>none</alphatype>
						<pixelaspectratio>square</pixelaspectratio>
						<anamorphic>FALSE</anamorphic>
						<file id="file-77">
							<name>AA277601.MXF</name>
							<pathurl>file://localhost/Volumes/Vaagen/Utveksling/Natur/Naturlig%20helaften%20fra%20Oslo/Copied_Copy%20of%20En%20Helaften%20MASTER_002/AA277601.MXF</pathurl>
							<rate>
								<timebase>25</timebase>
								<ntsc>FALSE</ntsc>
							</rate>
							<duration>4476</duration>
							<timecode>
								<rate>
									<timebase>25</timebase>
									<ntsc>FALSE</ntsc>
								</rate>
								<string>15:47:28:18</string>
								<frame>1421218</frame>
								<displayformat>NDF</displayformat>
								<reel>
									<name></name>
								</reel>
							</timecode>
							<media>
								<video>
									<samplecharacteristics>
										<rate>
											<timebase>25</timebase>
											<ntsc>FALSE</ntsc>
										</rate>
										<width>1920</width>
										<height>1080</height>
										<anamorphic>FALSE</anamorphic>
										<pixelaspectratio>square</pixelaspectratio>
										<fielddominance>none</fielddominance>
									</samplecharacteristics>
								</video>
								<audio>
									<samplecharacteristics>
										<depth>16</depth>
										<samplerate>48000</samplerate>
									</samplecharacteristics>
									<channelcount>2</channelcount>
								</audio>
							</media>
						</file>
						<logginginfo>
							<description></description>
							<scene></scene>
							<shottake></shottake>
							<lognote></lognote>
						</logginginfo>
						<labels>
							<label2>Iris</label2>
						</labels>
					</clipitem>
					<clipitem id="clipitem-111">
						<masterclipid>masterclip-78</masterclipid>
						<name>AA383301.mov</name>
						<enabled>TRUE</enabled>
						<duration>1416</duration>
						<rate>
							<timebase>25</timebase>
							<ntsc>FALSE</ntsc>
						</rate>
						<start>31152</start>
						<end>31214</end>
						<in>152</in>
						<out>214</out>
						<pproTicksIn>1544417280000</pproTicksIn>
						<pproTicksOut>2174376960000</pproTicksOut>
						<alphatype>none</alphatype>
						<pixelaspectratio>square</pixelaspectratio>
						<anamorphic>FALSE</anamorphic>
						<file id="file-78">
							<name>AA383301.mov</name>
							<pathurl>file://localhost/Volumes/Svartediket/Prosjekter/DVNA600216_HELAFTEN2016_FAL_010217/Video/Trailere2017/Copied_hb%20Molla2_1AA/AA383301.mov</pathurl>
							<rate>
								<timebase>25</timebase>
								<ntsc>FALSE</ntsc>
							</rate>
							<duration>1416</duration>
							<timecode>
								<rate>
									<timebase>25</timebase>
									<ntsc>FALSE</ntsc>
								</rate>
								<string>18:52:12:20</string>
								<frame>1698320</frame>
								<displayformat>NDF</displayformat>
								<reel>
									<name></name>
								</reel>
							</timecode>
							<media>
								<video>
									<samplecharacteristics>
										<rate>
											<timebase>25</timebase>
											<ntsc>FALSE</ntsc>
										</rate>
										<width>1920</width>
										<height>1080</height>
										<anamorphic>FALSE</anamorphic>
										<pixelaspectratio>square</pixelaspectratio>
										<fielddominance>none</fielddominance>
									</samplecharacteristics>
								</video>
								<audio>
									<samplecharacteristics>
										<depth>16</depth>
										<samplerate>48000</samplerate>
									</samplecharacteristics>
									<channelcount>2</channelcount>
								</audio>
							</media>
						</file>
						<logginginfo>
							<description></description>
							<scene></scene>
							<shottake>AA3833</shottake>
							<lognote></lognote>
						</logginginfo>
						<labels>
							<label2>Violet</label2>
						</labels>
					</clipitem>
					<clipitem id="clipitem-112">
						<masterclipid>masterclip-79</masterclipid>
						<name>GOPR9087.mov</name>
						<enabled>TRUE</enabled>
						<duration>4532</duration>
						<rate>
							<timebase>25</timebase>
							<ntsc>FALSE</ntsc>
						</rate>
						<start>31214</start>
						<end>31269</end>
						<in>3307</in>
						<out>3362</out>
						<pproTicksIn>33601236480000</pproTicksIn>
						<pproTicksOut>34160071680000</pproTicksOut>
						<alphatype>none</alphatype>
						<pixelaspectratio>square</pixelaspectratio>
						<anamorphic>FALSE</anamorphic>
						<file id="file-79">
							<name>GOPR9087.mov</name>
							<pathurl>file://localhost/Volumes/Svartediket/Prosjekter/DVNA600216_HELAFTEN2016_FAL_010217/Video/Trailere2017/Copied_hb%20Molla2_1AA/GOPR9087.mov</pathurl>
							<rate>
								<timebase>25</timebase>
								<ntsc>FALSE</ntsc>
							</rate>
							<duration>4532</duration>
							<timecode>
								<rate>
									<timebase>25</timebase>
									<ntsc>FALSE</ntsc>
								</rate>
								<string>14:56:16:23</string>
								<frame>1344423</frame>
								<displayformat>NDF</displayformat>
								<reel>
									<name></name>
								</reel>
							</timecode>
							<media>
								<video>
									<samplecharacteristics>
										<rate>
											<timebase>25</timebase>
											<ntsc>FALSE</ntsc>
										</rate>
										<width>1920</width>
										<height>1080</height>
										<anamorphic>FALSE</anamorphic>
										<pixelaspectratio>square</pixelaspectratio>
										<fielddominance>none</fielddominance>
									</samplecharacteristics>
								</video>
								<audio>
									<samplecharacteristics>
										<depth>16</depth>
										<samplerate>48000</samplerate>
									</samplecharacteristics>
									<channelcount>2</channelcount>
								</audio>
							</media>
						</file>
						<logginginfo>
							<description></description>
							<scene></scene>
							<shottake></shottake>
							<lognote></lognote>
						</logginginfo>
						<labels>
							<label2>Violet</label2>
						</labels>
					</clipitem>
					<clipitem id="clipitem-113">
						<masterclipid>masterclip-80</masterclipid>
						<name>AA030101.mov</name>
						<enabled>TRUE</enabled>
						<duration>4032</duration>
						<rate>
							<timebase>25</timebase>
							<ntsc>FALSE</ntsc>
						</rate>
						<start>31432</start>
						<end>31452</end>
						<in>3478</in>
						<out>3498</out>
						<pproTicksIn>35338705920000</pproTicksIn>
						<pproTicksOut>35541918720000</pproTicksOut>
						<alphatype>none</alphatype>
						<pixelaspectratio>square</pixelaspectratio>
						<anamorphic>FALSE</anamorphic>
						<file id="file-80">
							<name>AA030101.mov</name>
							<pathurl>file://localhost/Volumes/Svartediket/Prosjekter/DVNA600216_HELAFTEN2016_FAL_010217/Video/Trailere2017/Copied_hb%20Molla2_1AA/AA030101.mov</pathurl>
							<rate>
								<timebase>25</timebase>
								<ntsc>FALSE</ntsc>
							</rate>
							<duration>4032</duration>
							<timecode>
								<rate>
									<timebase>25</timebase>
									<ntsc>FALSE</ntsc>
								</rate>
								<string>19:29:03:07</string>
								<frame>1753582</frame>
								<displayformat>NDF</displayformat>
								<reel>
									<name></name>
								</reel>
							</timecode>
							<media>
								<video>
									<samplecharacteristics>
										<rate>
											<timebase>25</timebase>
											<ntsc>FALSE</ntsc>
										</rate>
										<width>1920</width>
										<height>1080</height>
										<anamorphic>FALSE</anamorphic>
										<pixelaspectratio>square</pixelaspectratio>
										<fielddominance>none</fielddominance>
									</samplecharacteristics>
								</video>
								<audio>
									<samplecharacteristics>
										<depth>16</depth>
										<samplerate>48000</samplerate>
									</samplecharacteristics>
									<channelcount>2</channelcount>
								</audio>
							</media>
						</file>
						<logginginfo>
							<description></description>
							<scene></scene>
							<shottake>AA0301</shottake>
							<lognote></lognote>
						</logginginfo>
						<labels>
							<label2>Violet</label2>
						</labels>
					</clipitem>
					<clipitem id="clipitem-114">
						<masterclipid>masterclip-80</masterclipid>
						<name>AA030101.mov</name>
						<enabled>TRUE</enabled>
						<duration>4032</duration>
						<rate>
							<timebase>25</timebase>
							<ntsc>FALSE</ntsc>
						</rate>
						<start>31452</start>
						<end>31489</end>
						<in>3517</in>
						<out>3554</out>
						<pproTicksIn>35734970880000</pproTicksIn>
						<pproTicksOut>36110914560000</pproTicksOut>
						<alphatype>none</alphatype>
						<file id="file-80"/>
						<logginginfo>
							<description></description>
							<scene></scene>
							<shottake>AA0301</shottake>
							<lognote></lognote>
						</logginginfo>
						<labels>
							<label2>Violet</label2>
						</labels>
					</clipitem>
					<clipitem id="clipitem-115">
						<masterclipid>masterclip-81</masterclipid>
						<name>AA385201.mov</name>
						<enabled>TRUE</enabled>
						<duration>5712</duration>
						<rate>
							<timebase>25</timebase>
							<ntsc>FALSE</ntsc>
						</rate>
						<start>31489</start>
						<end>31542</end>
						<in>2328</in>
						<out>2381</out>
						<pproTicksIn>23653969920000</pproTicksIn>
						<pproTicksOut>24192483840000</pproTicksOut>
						<alphatype>none</alphatype>
						<pixelaspectratio>square</pixelaspectratio>
						<anamorphic>FALSE</anamorphic>
						<file id="file-81">
							<name>AA385201.mov</name>
							<pathurl>file://localhost/Volumes/Svartediket/Prosjekter/DVNA600216_HELAFTEN2016_FAL_010217/Video/Trailere2017/Copied_hb%20Molla2_1AA/AA385201.mov</pathurl>
							<rate>
								<timebase>25</timebase>
								<ntsc>FALSE</ntsc>
							</rate>
							<duration>5712</duration>
							<timecode>
								<rate>
									<timebase>25</timebase>
									<ntsc>FALSE</ntsc>
								</rate>
								<string>19:50:04:10</string>
								<frame>1785110</frame>
								<displayformat>NDF</displayformat>
								<reel>
									<name></name>
								</reel>
							</timecode>
							<media>
								<video>
									<samplecharacteristics>
										<rate>
											<timebase>25</timebase>
											<ntsc>FALSE</ntsc>
										</rate>
										<width>1920</width>
										<height>1080</height>
										<anamorphic>FALSE</anamorphic>
										<pixelaspectratio>square</pixelaspectratio>
										<fielddominance>none</fielddominance>
									</samplecharacteristics>
								</video>
								<audio>
									<samplecharacteristics>
										<depth>16</depth>
										<samplerate>48000</samplerate>
									</samplecharacteristics>
									<channelcount>2</channelcount>
								</audio>
							</media>
						</file>
						<logginginfo>
							<description></description>
							<scene></scene>
							<shottake>AA3852</shottake>
							<lognote></lognote>
						</logginginfo>
						<labels>
							<label2>Violet</label2>
						</labels>
					</clipitem>
					<clipitem id="clipitem-116">
						<masterclipid>masterclip-82</masterclipid>
						<name>AA395101.mov</name>
						<enabled>TRUE</enabled>
						<duration>5400</duration>
						<rate>
							<timebase>25</timebase>
							<ntsc>FALSE</ntsc>
						</rate>
						<start>31548</start>
						<end>31640</end>
						<in>4728</in>
						<out>4820</out>
						<pproTicksIn>48039505920000</pproTicksIn>
						<pproTicksOut>48974284800000</pproTicksOut>
						<alphatype>none</alphatype>
						<pixelaspectratio>square</pixelaspectratio>
						<anamorphic>FALSE</anamorphic>
						<file id="file-82">
							<name>AA395101.mov</name>
							<pathurl>file://localhost/Volumes/Svartediket/Prosjekter/DVNA600216_HELAFTEN2016_FAL_010217/Video/Trailere2017/Copied_hb%20Molla2_1AA/AA395101.mov</pathurl>
							<rate>
								<timebase>25</timebase>
								<ntsc>FALSE</ntsc>
							</rate>
							<duration>5400</duration>
							<timecode>
								<rate>
									<timebase>25</timebase>
									<ntsc>FALSE</ntsc>
								</rate>
								<string>12:10:17:04</string>
								<frame>1095429</frame>
								<displayformat>NDF</displayformat>
								<reel>
									<name></name>
								</reel>
							</timecode>
							<media>
								<video>
									<samplecharacteristics>
										<rate>
											<timebase>25</timebase>
											<ntsc>FALSE</ntsc>
										</rate>
										<width>1920</width>
										<height>1080</height>
										<anamorphic>FALSE</anamorphic>
										<pixelaspectratio>square</pixelaspectratio>
										<fielddominance>none</fielddominance>
									</samplecharacteristics>
								</video>
								<audio>
									<samplecharacteristics>
										<depth>16</depth>
										<samplerate>48000</samplerate>
									</samplecharacteristics>
									<channelcount>2</channelcount>
								</audio>
							</media>
						</file>
						<logginginfo>
							<description></description>
							<scene></scene>
							<shottake>AA3951</shottake>
							<lognote></lognote>
						</logginginfo>
						<labels>
							<label2>Violet</label2>
						</labels>
					</clipitem>
					<clipitem id="clipitem-117">
						<masterclipid>masterclip-83</masterclipid>
						<name>DJI_0011.MOV</name>
						<enabled>TRUE</enabled>
						<duration>22044</duration>
						<rate>
							<timebase>25</timebase>
							<ntsc>FALSE</ntsc>
						</rate>
						<start>31640</start>
						<end>-1</end>
						<in>15569</in>
						<out>15628</out>
						<pproTicksIn>158191004160000</pproTicksIn>
						<pproTicksOut>158790481920000</pproTicksOut>
						<alphatype>none</alphatype>
						<pixelaspectratio>square</pixelaspectratio>
						<anamorphic>FALSE</anamorphic>
						<file id="file-83">
							<name>DJI_0011.MOV</name>
							<pathurl>file://localhost/Volumes/Svartediket/Prosjekter/DVNA600216_HELAFTEN2016_FAL_010217/Video/Trailere2017/Copied_hb%20Molla2_1AA/DJI_0011.MOV</pathurl>
							<rate>
								<timebase>25</timebase>
								<ntsc>FALSE</ntsc>
							</rate>
							<duration>22044</duration>
							<timecode>
								<rate>
									<timebase>25</timebase>
									<ntsc>FALSE</ntsc>
								</rate>
								<string>00:00:00:00</string>
								<frame>0</frame>
								<displayformat>NDF</displayformat>
								<reel>
									<name></name>
								</reel>
							</timecode>
							<media>
								<video>
									<samplecharacteristics>
										<rate>
											<timebase>25</timebase>
											<ntsc>FALSE</ntsc>
										</rate>
										<width>1920</width>
										<height>1080</height>
										<anamorphic>FALSE</anamorphic>
										<pixelaspectratio>square</pixelaspectratio>
										<fielddominance>none</fielddominance>
									</samplecharacteristics>
								</video>
								<audio>
									<samplecharacteristics>
										<depth>16</depth>
										<samplerate>48000</samplerate>
									</samplecharacteristics>
									<channelcount>2</channelcount>
								</audio>
							</media>
						</file>
						<logginginfo>
							<description></description>
							<scene></scene>
							<shottake></shottake>
							<lognote>0.9.138</lognote>
						</logginginfo>
						<labels>
							<label2>Violet</label2>
						</labels>
					</clipitem>
					<transitionitem>
						<start>31689</start>
						<end>31699</end>
						<alignment>center</alignment>
						<cutPointTicks>50803200000</cutPointTicks>
						<rate>
							<timebase>25</timebase>
							<ntsc>FALSE</ntsc>
						</rate>
						<effect>
							<name>Cross Dissolve</name>
							<effectid>Cross Dissolve</effectid>
							<effectcategory>Dissolve</effectcategory>
							<effecttype>transition</effecttype>
							<mediatype>video</mediatype>
							<wipecode>0</wipecode>
							<wipeaccuracy>100</wipeaccuracy>
							<startratio>0</startratio>
							<endratio>1</endratio>
							<reverse>FALSE</reverse>
						</effect>
					</transitionitem>
					<clipitem id="clipitem-118">
						<masterclipid>masterclip-84</masterclipid>
						<name>isfiskeroye-3-210415r-029.mxf</name>
						<enabled>TRUE</enabled>
						<duration>8654</duration>
						<rate>
							<timebase>25</timebase>
							<ntsc>FALSE</ntsc>
						</rate>
						<start>-1</start>
						<end>31823</end>
						<in>6163</in>
						<out>6297</out>
						<pproTicksIn>62620024320000</pproTicksIn>
						<pproTicksOut>63981550080000</pproTicksOut>
						<alphatype>none</alphatype>
						<pixelaspectratio>square</pixelaspectratio>
						<anamorphic>FALSE</anamorphic>
						<file id="file-84">
							<name>isfiskeroye-3-210415r-029.mxf</name>
							<pathurl>file://localhost/Volumes/Svartediket/Prosjekter/DVNA600216_HELAFTEN2016_FAL_010217/Video/Trailere2017/Taser%20Fiskeserie%20%202017/isfiskeroye-3-210415r-029.mxf</pathurl>
							<rate>
								<timebase>25</timebase>
								<ntsc>FALSE</ntsc>
							</rate>
							<duration>8654</duration>
							<timecode>
								<rate>
									<timebase>25</timebase>
									<ntsc>FALSE</ntsc>
								</rate>
								<string>14:03:51:06</string>
								<frame>1265781</frame>
								<displayformat>NDF</displayformat>
								<reel>
									<name></name>
								</reel>
							</timecode>
							<media>
								<video>
									<samplecharacteristics>
										<rate>
											<timebase>25</timebase>
											<ntsc>FALSE</ntsc>
										</rate>
										<width>1920</width>
										<height>1080</height>
										<anamorphic>FALSE</anamorphic>
										<pixelaspectratio>square</pixelaspectratio>
										<fielddominance>upper</fielddominance>
									</samplecharacteristics>
								</video>
								<audio>
									<samplecharacteristics>
										<depth>16</depth>
										<samplerate>48000</samplerate>
									</samplecharacteristics>
									<channelcount>8</channelcount>
								</audio>
							</media>
						</file>
						<link>
							<linkclipref>clipitem-118</linkclipref>
							<mediatype>video</mediatype>
							<trackindex>1</trackindex>
							<clipindex>124</clipindex>
						</link>
						<link>
							<linkclipref>clipitem-950</linkclipref>
							<mediatype>audio</mediatype>
							<trackindex>10</trackindex>
							<clipindex>50</clipindex>
							<groupindex>1</groupindex>
						</link>
						<link>
							<linkclipref>clipitem-1090</linkclipref>
							<mediatype>audio</mediatype>
							<trackindex>11</trackindex>
							<clipindex>50</clipindex>
							<groupindex>1</groupindex>
						</link>
						<logginginfo>
							<description></description>
							<scene></scene>
							<shottake></shottake>
							<lognote></lognote>
						</logginginfo>
						<labels>
							<label2>Cerulean</label2>
						</labels>
					</clipitem>
					<clipitem id="clipitem-119">
						<masterclipid>masterclip-84</masterclipid>
						<name>isfiskeroye-3-210415r-029.mxf</name>
						<enabled>TRUE</enabled>
						<duration>8654</duration>
						<rate>
							<timebase>25</timebase>
							<ntsc>FALSE</ntsc>
						</rate>
						<start>31823</start>
						<end>32002</end>
						<in>7245</in>
						<out>7424</out>
						<pproTicksIn>73613836800000</pproTicksIn>
						<pproTicksOut>75432591360000</pproTicksOut>
						<alphatype>none</alphatype>
						<file id="file-84"/>
						<link>
							<linkclipref>clipitem-119</linkclipref>
							<mediatype>video</mediatype>
							<trackindex>1</trackindex>
							<clipindex>125</clipindex>
						</link>
						<link>
							<linkclipref>clipitem-951</linkclipref>
							<mediatype>audio</mediatype>
							<trackindex>10</trackindex>
							<clipindex>51</clipindex>
							<groupindex>1</groupindex>
						</link>
						<link>
							<linkclipref>clipitem-1091</linkclipref>
							<mediatype>audio</mediatype>
							<trackindex>11</trackindex>
							<clipindex>51</clipindex>
							<groupindex>1</groupindex>
						</link>
						<logginginfo>
							<description></description>
							<scene></scene>
							<shottake></shottake>
							<lognote></lognote>
						</logginginfo>
						<labels>
							<label2>Cerulean</label2>
						</labels>
					</clipitem>
					<clipitem id="clipitem-120">
						<masterclipid>masterclip-84</masterclipid>
						<name>isfiskeroye-3-210415r-029.mxf</name>
						<enabled>TRUE</enabled>
						<duration>8654</duration>
						<rate>
							<timebase>25</timebase>
							<ntsc>FALSE</ntsc>
						</rate>
						<start>32027</start>
						<end>32106</end>
						<in>7533</in>
						<out>7612</out>
						<pproTicksIn>76540101120000</pproTicksIn>
						<pproTicksOut>77342791680000</pproTicksOut>
						<alphatype>none</alphatype>
						<file id="file-84"/>
						<logginginfo>
							<description></description>
							<scene></scene>
							<shottake></shottake>
							<lognote></lognote>
						</logginginfo>
						<labels>
							<label2>Cerulean</label2>
						</labels>
					</clipitem>
					<clipitem id="clipitem-121">
						<masterclipid>masterclip-85</masterclipid>
						<name>isfiskeroye-3-210415r-033.mxf</name>
						<enabled>TRUE</enabled>
						<duration>3106</duration>
						<rate>
							<timebase>25</timebase>
							<ntsc>FALSE</ntsc>
						</rate>
						<start>32116</start>
						<end>32458</end>
						<in>284</in>
						<out>626</out>
						<pproTicksIn>2885621760000</pproTicksIn>
						<pproTicksOut>6360560640000</pproTicksOut>
						<alphatype>none</alphatype>
						<pixelaspectratio>square</pixelaspectratio>
						<anamorphic>FALSE</anamorphic>
						<file id="file-85">
							<name>isfiskeroye-3-210415r-033.mxf</name>
							<pathurl>file://localhost/Volumes/Svartediket/Prosjekter/DVNA600216_HELAFTEN2016_FAL_010217/Video/Trailere2017/Taser%20Fiskeserie%20%202017/isfiskeroye-3-210415r-033.mxf</pathurl>
							<rate>
								<timebase>25</timebase>
								<ntsc>FALSE</ntsc>
							</rate>
							<duration>3106</duration>
							<timecode>
								<rate>
									<timebase>25</timebase>
									<ntsc>FALSE</ntsc>
								</rate>
								<string>14:12:54:09</string>
								<frame>1279359</frame>
								<displayformat>NDF</displayformat>
								<reel>
									<name></name>
								</reel>
							</timecode>
							<media>
								<video>
									<samplecharacteristics>
										<rate>
											<timebase>25</timebase>
											<ntsc>FALSE</ntsc>
										</rate>
										<width>1920</width>
										<height>1080</height>
										<anamorphic>FALSE</anamorphic>
										<pixelaspectratio>square</pixelaspectratio>
										<fielddominance>upper</fielddominance>
									</samplecharacteristics>
								</video>
								<audio>
									<samplecharacteristics>
										<depth>16</depth>
										<samplerate>48000</samplerate>
									</samplecharacteristics>
									<channelcount>8</channelcount>
								</audio>
							</media>
						</file>
						<link>
							<linkclipref>clipitem-121</linkclipref>
							<mediatype>video</mediatype>
							<trackindex>1</trackindex>
							<clipindex>127</clipindex>
						</link>
						<link>
							<linkclipref>clipitem-955</linkclipref>
							<mediatype>audio</mediatype>
							<trackindex>10</trackindex>
							<clipindex>55</clipindex>
							<groupindex>1</groupindex>
						</link>
						<link>
							<linkclipref>clipitem-1095</linkclipref>
							<mediatype>audio</mediatype>
							<trackindex>11</trackindex>
							<clipindex>55</clipindex>
							<groupindex>1</groupindex>
						</link>
						<logginginfo>
							<description></description>
							<scene></scene>
							<shottake></shottake>
							<lognote></lognote>
						</logginginfo>
						<labels>
							<label2>Cerulean</label2>
						</labels>
					</clipitem>
					<clipitem id="clipitem-122">
						<masterclipid>masterclip-84</masterclipid>
						<name>isfiskeroye-3-210415r-029.mxf</name>
						<enabled>TRUE</enabled>
						<duration>8654</duration>
						<rate>
							<timebase>25</timebase>
							<ntsc>FALSE</ntsc>
						</rate>
						<start>32458</start>
						<end>-1</end>
						<in>8066</in>
						<out>8320</out>
						<pproTicksIn>81955722240000</pproTicksIn>
						<pproTicksOut>84536524800000</pproTicksOut>
						<alphatype>none</alphatype>
						<file id="file-84"/>
						<logginginfo>
							<description></description>
							<scene></scene>
							<shottake></shottake>
							<lognote></lognote>
						</logginginfo>
						<labels>
							<label2>Cerulean</label2>
						</labels>
					</clipitem>
					<transitionitem>
						<start>32702</start>
						<end>32712</end>
						<alignment>start</alignment>
						<cutPointTicks>0</cutPointTicks>
						<rate>
							<timebase>25</timebase>
							<ntsc>FALSE</ntsc>
						</rate>
						<effect>
							<name>Cross Dissolve</name>
							<effectid>Cross Dissolve</effectid>
							<effectcategory>Dissolve</effectcategory>
							<effecttype>transition</effecttype>
							<mediatype>video</mediatype>
							<wipecode>0</wipecode>
							<wipeaccuracy>100</wipeaccuracy>
							<startratio>0</startratio>
							<endratio>1</endratio>
							<reverse>FALSE</reverse>
						</effect>
					</transitionitem>
					<clipitem id="clipitem-123">
						<masterclipid>masterclip-86</masterclipid>
						<name>ANSLAGUllf22nov.mxf</name>
						<enabled>TRUE</enabled>
						<duration>1662</duration>
						<rate>
							<timebase>25</timebase>
							<ntsc>FALSE</ntsc>
						</rate>
						<start>-1</start>
						<end>33040</end>
						<in>0</in>
						<out>338</out>
						<pproTicksIn>0</pproTicksIn>
						<pproTicksOut>3434296320000</pproTicksOut>
						<alphatype>none</alphatype>
						<pixelaspectratio>square</pixelaspectratio>
						<anamorphic>FALSE</anamorphic>
						<file id="file-86">
							<name>ANSLAGUllf22nov.mxf</name>
							<pathurl>file://localhost/Volumes/Svartediket/Prosjekter/DVNA600216_HELAFTEN2016_FAL_010217/Video/Trailere2017/Teaser%20rewilding/ANSLAGUllf22nov.mxf</pathurl>
							<rate>
								<timebase>25</timebase>
								<ntsc>FALSE</ntsc>
							</rate>
							<duration>1662</duration>
							<timecode>
								<rate>
									<timebase>25</timebase>
									<ntsc>FALSE</ntsc>
								</rate>
								<string>00:00:40:22</string>
								<frame>1022</frame>
								<displayformat>NDF</displayformat>
								<reel>
									<name></name>
								</reel>
							</timecode>
							<media>
								<video>
									<samplecharacteristics>
										<rate>
											<timebase>25</timebase>
											<ntsc>FALSE</ntsc>
										</rate>
										<width>1920</width>
										<height>1080</height>
										<anamorphic>FALSE</anamorphic>
										<pixelaspectratio>square</pixelaspectratio>
										<fielddominance>upper</fielddominance>
									</samplecharacteristics>
								</video>
								<audio>
									<samplecharacteristics>
										<depth>16</depth>
										<samplerate>48000</samplerate>
									</samplecharacteristics>
									<channelcount>2</channelcount>
								</audio>
							</media>
						</file>
						<link>
							<linkclipref>clipitem-123</linkclipref>
							<mediatype>video</mediatype>
							<trackindex>1</trackindex>
							<clipindex>130</clipindex>
						</link>
						<link>
							<linkclipref>clipitem-1221</linkclipref>
							<mediatype>audio</mediatype>
							<trackindex>12</trackindex>
							<clipindex>53</clipindex>
							<groupindex>1</groupindex>
						</link>
						<link>
							<linkclipref>clipitem-1306</linkclipref>
							<mediatype>audio</mediatype>
							<trackindex>13</trackindex>
							<clipindex>53</clipindex>
							<groupindex>1</groupindex>
						</link>
						<logginginfo>
							<description></description>
							<scene></scene>
							<shottake></shottake>
							<lognote></lognote>
						</logginginfo>
						<labels>
							<label2>Iris</label2>
						</labels>
					</clipitem>
					<clipitem id="clipitem-124">
						<masterclipid>masterclip-86</masterclipid>
						<name>ANSLAGUllf22nov.mxf</name>
						<enabled>TRUE</enabled>
						<duration>1662</duration>
						<rate>
							<timebase>25</timebase>
							<ntsc>FALSE</ntsc>
						</rate>
						<start>33040</start>
						<end>33426</end>
						<in>554</in>
						<out>940</out>
						<pproTicksIn>5628994560000</pproTicksIn>
						<pproTicksOut>9551001600000</pproTicksOut>
						<alphatype>none</alphatype>
						<file id="file-86"/>
						<link>
							<linkclipref>clipitem-124</linkclipref>
							<mediatype>video</mediatype>
							<trackindex>1</trackindex>
							<clipindex>131</clipindex>
						</link>
						<link>
							<linkclipref>clipitem-1222</linkclipref>
							<mediatype>audio</mediatype>
							<trackindex>12</trackindex>
							<clipindex>54</clipindex>
							<groupindex>1</groupindex>
						</link>
						<link>
							<linkclipref>clipitem-1307</linkclipref>
							<mediatype>audio</mediatype>
							<trackindex>13</trackindex>
							<clipindex>54</clipindex>
							<groupindex>1</groupindex>
						</link>
						<logginginfo>
							<description></description>
							<scene></scene>
							<shottake></shottake>
							<lognote></lognote>
						</logginginfo>
						<labels>
							<label2>Iris</label2>
						</labels>
					</clipitem>
					<clipitem id="clipitem-125">
						<masterclipid>masterclip-86</masterclipid>
						<name>ANSLAGUllf22nov.mxf</name>
						<enabled>TRUE</enabled>
						<duration>1662</duration>
						<rate>
							<timebase>25</timebase>
							<ntsc>FALSE</ntsc>
						</rate>
						<start>33426</start>
						<end>-1</end>
						<in>1484</in>
						<out>1600</out>
						<pproTicksIn>15078389760000</pproTicksIn>
						<pproTicksOut>16257024000000</pproTicksOut>
						<alphatype>none</alphatype>
						<file id="file-86"/>
						<logginginfo>
							<description></description>
							<scene></scene>
							<shottake></shottake>
							<lognote></lognote>
						</logginginfo>
						<labels>
							<label2>Iris</label2>
						</labels>
					</clipitem>
					<transitionitem>
						<start>33532</start>
						<end>33542</end>
						<alignment>start</alignment>
						<cutPointTicks>0</cutPointTicks>
						<rate>
							<timebase>25</timebase>
							<ntsc>FALSE</ntsc>
						</rate>
						<effect>
							<name>Cross Dissolve</name>
							<effectid>Cross Dissolve</effectid>
							<effectcategory>Dissolve</effectcategory>
							<effecttype>transition</effecttype>
							<mediatype>video</mediatype>
							<wipecode>0</wipecode>
							<wipeaccuracy>100</wipeaccuracy>
							<startratio>0</startratio>
							<endratio>1</endratio>
							<reverse>FALSE</reverse>
						</effect>
					</transitionitem>
					<clipitem id="clipitem-126">
						<masterclipid>masterclip-87</masterclipid>
						<name>HM-HELAFTEN</name>
						<enabled>TRUE</enabled>
						<duration>1424</duration>
						<rate>
							<timebase>25</timebase>
							<ntsc>FALSE</ntsc>
						</rate>
						<start>-1</start>
						<end>34348</end>
						<in>0</in>
						<out>816</out>
						<pproTicksIn>0</pproTicksIn>
						<pproTicksOut>8291082240000</pproTicksOut>
						<alphatype>none</alphatype>
						<pixelaspectratio>square</pixelaspectratio>
						<anamorphic>FALSE</anamorphic>
						<file id="file-87">
							<name>HM-HELAFTEN.mxf</name>
							<pathurl>file://localhost/Volumes/omfs/clip.dir/MXF/1080i/HM-HELAFTEN.mxf</pathurl>
							<rate>
								<timebase>25</timebase>
								<ntsc>FALSE</ntsc>
							</rate>
							<duration>1424</duration>
							<timecode>
								<rate>
									<timebase>25</timebase>
									<ntsc>FALSE</ntsc>
								</rate>
								<string>00:00:00:00</string>
								<frame>0</frame>
								<displayformat>NDF</displayformat>
								<reel>
									<name>\\NDHO\Omn\E\L\16\55</name>
								</reel>
							</timecode>
							<media>
								<video>
									<samplecharacteristics>
										<rate>
											<timebase>25</timebase>
											<ntsc>FALSE</ntsc>
										</rate>
										<width>1920</width>
										<height>1080</height>
										<anamorphic>FALSE</anamorphic>
										<pixelaspectratio>square</pixelaspectratio>
										<fielddominance>upper</fielddominance>
									</samplecharacteristics>
								</video>
								<audio>
									<samplecharacteristics>
										<depth>16</depth>
										<samplerate>48000</samplerate>
									</samplecharacteristics>
									<channelcount>2</channelcount>
								</audio>
								<audio>
									<samplecharacteristics>
										<depth>16</depth>
										<samplerate>48000</samplerate>
									</samplecharacteristics>
									<channelcount>2</channelcount>
								</audio>
								<audio>
									<samplecharacteristics>
										<depth>16</depth>
										<samplerate>48000</samplerate>
									</samplecharacteristics>
									<channelcount>2</channelcount>
								</audio>
								<audio>
									<samplecharacteristics>
										<depth>16</depth>
										<samplerate>48000</samplerate>
									</samplecharacteristics>
									<channelcount>2</channelcount>
								</audio>
							</media>
						</file>
						<link>
							<linkclipref>clipitem-126</linkclipref>
							<mediatype>video</mediatype>
							<trackindex>1</trackindex>
							<clipindex>134</clipindex>
						</link>
						<link>
							<linkclipref>clipitem-771</linkclipref>
							<mediatype>audio</mediatype>
							<trackindex>8</trackindex>
							<clipindex>65</clipindex>
							<groupindex>1</groupindex>
						</link>
						<link>
							<linkclipref>clipitem-867</linkclipref>
							<mediatype>audio</mediatype>
							<trackindex>9</trackindex>
							<clipindex>65</clipindex>
							<groupindex>1</groupindex>
						</link>
						<logginginfo>
							<description>HM-HELAFTEN</description>
							<scene></scene>
							<shottake></shottake>
							<lognote></lognote>
						</logginginfo>
						<labels>
							<label2>Iris</label2>
						</labels>
					</clipitem>
					<clipitem id="clipitem-127">
						<masterclipid>masterclip-87</masterclipid>
						<name>HM-HELAFTEN</name>
						<enabled>TRUE</enabled>
						<duration>1424</duration>
						<rate>
							<timebase>25</timebase>
							<ntsc>FALSE</ntsc>
						</rate>
						<start>34348</start>
						<end>-1</end>
						<in>1193</in>
						<out>1291</out>
						<pproTicksIn>12121643520000</pproTicksIn>
						<pproTicksOut>13117386240000</pproTicksOut>
						<alphatype>none</alphatype>
						<file id="file-87"/>
						<logginginfo>
							<description>HM-HELAFTEN</description>
							<scene></scene>
							<shottake></shottake>
							<lognote></lognote>
						</logginginfo>
						<labels>
							<label2>Iris</label2>
						</labels>
					</clipitem>
					<transitionitem>
						<start>34436</start>
						<end>34446</end>
						<alignment>center</alignment>
						<cutPointTicks>50803200000</cutPointTicks>
						<rate>
							<timebase>25</timebase>
							<ntsc>FALSE</ntsc>
						</rate>
						<effect>
							<name>Cross Dissolve</name>
							<effectid>Cross Dissolve</effectid>
							<effectcategory>Dissolve</effectcategory>
							<effecttype>transition</effecttype>
							<mediatype>video</mediatype>
							<wipecode>0</wipecode>
							<wipeaccuracy>100</wipeaccuracy>
							<startratio>0</startratio>
							<endratio>1</endratio>
							<reverse>FALSE</reverse>
						</effect>
					</transitionitem>
					<clipitem id="clipitem-128">
						<masterclipid>masterclip-88</masterclipid>
						<name>Aashild-august-Clip0331.MXF</name>
						<enabled>TRUE</enabled>
						<duration>2604</duration>
						<rate>
							<timebase>25</timebase>
							<ntsc>FALSE</ntsc>
						</rate>
						<start>-1</start>
						<end>34510</end>
						<in>940</in>
						<out>1014</out>
						<pproTicksIn>9551001600000</pproTicksIn>
						<pproTicksOut>10302888960000</pproTicksOut>
						<alphatype>none</alphatype>
						<pixelaspectratio>square</pixelaspectratio>
						<anamorphic>FALSE</anamorphic>
						<file id="file-88">
							<name>Aashild-august-Clip0331.MXF</name>
							<pathurl>file://localhost/Volumes/Vaagen/Prosjekter/DVNA200216_OAO_Naturforskere_010118_OAO/Ra%cc%8astoff/A%cc%8ashild%20Pedersen/Svalbard%20august/Fs5/Aashild-august-Clip0331.MXF</pathurl>
							<rate>
								<timebase>50</timebase>
								<ntsc>FALSE</ntsc>
							</rate>
							<duration>5208</duration>
							<timecode>
								<rate>
									<timebase>50</timebase>
									<ntsc>FALSE</ntsc>
								</rate>
								<string>03:49:06:12</string>
								<frame>687312</frame>
								<displayformat>NDF</displayformat>
								<reel>
									<name></name>
								</reel>
							</timecode>
							<media>
								<video>
									<samplecharacteristics>
										<rate>
											<timebase>50</timebase>
											<ntsc>FALSE</ntsc>
										</rate>
										<width>1920</width>
										<height>1080</height>
										<anamorphic>FALSE</anamorphic>
										<pixelaspectratio>square</pixelaspectratio>
										<fielddominance>none</fielddominance>
									</samplecharacteristics>
								</video>
								<audio>
									<samplecharacteristics>
										<depth>16</depth>
										<samplerate>48000</samplerate>
									</samplecharacteristics>
									<channelcount>4</channelcount>
								</audio>
							</media>
						</file>
							<filter>
								<effect>
									<name></name>
									<effectid>Lumetri</effectid>
									<effecttype>filter</effecttype>
									<mediatype>video</mediatype>
									<parameter authoringApp="PremierePro">
										<parameterid>1</parameterid>
										<name>File Path</name>
										<hash>63866a15-9327-e4cb-ff31-c9ea0000000e</hash>
										<value>/v4=</value>
									</parameter>
									<parameter authoringApp="PremierePro">
										<parameterid>3</parameterid>
										<name> </name>
										<IsTimeVarying>false</IsTimeVarying>
										<ParameterControlType>4</ParameterControlType>
										<LowerBound>false</LowerBound>
										<UpperBound>true</UpperBound>
										<value>-91445760000000000,true,0,0,0,0,0,0</value>
									</parameter>
									<parameter authoringApp="PremierePro">
										<parameterid>4</parameterid>
										<name> </name>
										<hash>63866a15-9327-e4cb-ff31-c9ea0000000e</hash>
									</parameter>
									<parameter authoringApp="PremierePro">
										<parameterid>5</parameterid>
										<name>Input LUT</name>
										<IsTimeVarying>false</IsTimeVarying>
										<ParameterControlType>7</ParameterControlType>
										<LowerBound>0</LowerBound>
										<UpperBound>998</UpperBound>
										<value>-91445760000000000,0,0,0,0,0,0,0</value>
									</parameter>
									<parameter authoringApp="PremierePro">
										<parameterid>7</parameterid>
										<name>Temperature</name>
										<IsTimeVarying>false</IsTimeVarying>
										<ParameterControlType>8</ParameterControlType>
										<LowerBound>-150</LowerBound>
										<UpperBound>150</UpperBound>
										<LowerUIBound>-100</LowerUIBound>
										<UpperUIBound>100</UpperUIBound>
										<value>-91445760000000000,0.,0,0,0,0,0,0</value>
									</parameter>
									<parameter authoringApp="PremierePro">
										<parameterid>8</parameterid>
										<name>Tint</name>
										<IsTimeVarying>false</IsTimeVarying>
										<ParameterControlType>8</ParameterControlType>
										<LowerBound>-150</LowerBound>
										<UpperBound>150</UpperBound>
										<LowerUIBound>-100</LowerUIBound>
										<UpperUIBound>100</UpperUIBound>
										<value>-91445760000000000,0.,0,0,0,0,0,0</value>
									</parameter>
									<parameter authoringApp="PremierePro">
										<parameterid>11</parameterid>
										<name>Exposure</name>
										<IsTimeVarying>false</IsTimeVarying>
										<ParameterControlType>8</ParameterControlType>
										<LowerBound>-7</LowerBound>
										<UpperBound>7</UpperBound>
										<LowerUIBound>-5</LowerUIBound>
										<UpperUIBound>5</UpperUIBound>
										<value>-91445760000000000,0.60000002384185791015625,0,0,0,0,0,0</value>
									</parameter>
									<parameter authoringApp="PremierePro">
										<parameterid>12</parameterid>
										<name>Contrast</name>
										<IsTimeVarying>false</IsTimeVarying>
										<ParameterControlType>8</ParameterControlType>
										<LowerBound>-150</LowerBound>
										<UpperBound>150</UpperBound>
										<LowerUIBound>-100</LowerUIBound>
										<UpperUIBound>100</UpperUIBound>
										<value>-91445760000000000,59.975616455078125,0,0,0,0,0,0</value>
									</parameter>
									<parameter authoringApp="PremierePro">
										<parameterid>13</parameterid>
										<name>Highlights</name>
										<IsTimeVarying>false</IsTimeVarying>
										<ParameterControlType>8</ParameterControlType>
										<LowerBound>-150</LowerBound>
										<UpperBound>150</UpperBound>
										<LowerUIBound>-100</LowerUIBound>
										<UpperUIBound>100</UpperUIBound>
										<value>-91445760000000000,-51.,0,0,0,0,0,0</value>
									</parameter>
									<parameter authoringApp="PremierePro">
										<parameterid>14</parameterid>
										<name>Shadows</name>
										<IsTimeVarying>false</IsTimeVarying>
										<ParameterControlType>8</ParameterControlType>
										<LowerBound>-150</LowerBound>
										<UpperBound>150</UpperBound>
										<LowerUIBound>-100</LowerUIBound>
										<UpperUIBound>100</UpperUIBound>
										<value>-91445760000000000,-9.,0,0,0,0,0,0</value>
									</parameter>
									<parameter authoringApp="PremierePro">
										<parameterid>15</parameterid>
										<name>Whites</name>
										<IsTimeVarying>false</IsTimeVarying>
										<ParameterControlType>8</ParameterControlType>
										<LowerBound>-150</LowerBound>
										<UpperBound>150</UpperBound>
										<LowerUIBound>-100</LowerUIBound>
										<UpperUIBound>100</UpperUIBound>
										<value>-91445760000000000,-150.,0,0,0,0,0,0</value>
									</parameter>
									<parameter authoringApp="PremierePro">
										<parameterid>16</parameterid>
										<name>Blacks</name>
										<IsTimeVarying>false</IsTimeVarying>
										<ParameterControlType>8</ParameterControlType>
										<LowerBound>-150</LowerBound>
										<UpperBound>150</UpperBound>
										<LowerUIBound>-100</LowerUIBound>
										<UpperUIBound>100</UpperUIBound>
										<value>-91445760000000000,-82.95122528076171875,0,0,0,0,0,0</value>
									</parameter>
									<parameter authoringApp="PremierePro">
										<parameterid>20</parameterid>
										<name>Saturation</name>
										<IsTimeVarying>false</IsTimeVarying>
										<ParameterControlType>8</ParameterControlType>
										<LowerBound>0</LowerBound>
										<UpperBound>300</UpperBound>
										<UpperUIBound>200</UpperUIBound>
										<value>-91445760000000000,190.,0,0,0,0,0,0</value>
									</parameter>
									<parameter authoringApp="PremierePro">
										<parameterid>23</parameterid>
										<name> </name>
										<IsTimeVarying>false</IsTimeVarying>
										<ParameterControlType>4</ParameterControlType>
										<LowerBound>false</LowerBound>
										<UpperBound>true</UpperBound>
										<value>-91445760000000000,true,0,0,0,0,0,0</value>
									</parameter>
									<parameter authoringApp="PremierePro">
										<parameterid>24</parameterid>
										<name> </name>
										<hash>63866a15-9327-e4cb-ff31-c9ea0000000e</hash>
									</parameter>
									<parameter authoringApp="PremierePro">
										<parameterid>25</parameterid>
										<name>Look</name>
										<IsTimeVarying>false</IsTimeVarying>
										<ParameterControlType>7</ParameterControlType>
										<LowerBound>0</LowerBound>
										<UpperBound>998</UpperBound>
										<value>-91445760000000000,0,0,0,0,0,0,0</value>
									</parameter>
									<parameter authoringApp="PremierePro">
										<parameterid>26</parameterid>
										<name>Intensity</name>
										<IsTimeVarying>false</IsTimeVarying>
										<ParameterControlType>8</ParameterControlType>
										<LowerBound>0</LowerBound>
										<UpperBound>200</UpperBound>
										<value>-91445760000000000,100.,0,0,0,0,0,0</value>
									</parameter>
									<parameter authoringApp="PremierePro">
										<parameterid>28</parameterid>
										<name>Faded Film</name>
										<IsTimeVarying>false</IsTimeVarying>
										<ParameterControlType>8</ParameterControlType>
										<LowerBound>0</LowerBound>
										<UpperBound>150</UpperBound>
										<UpperUIBound>100</UpperUIBound>
										<value>-91445760000000000,0.,0,0,0,0,0,0</value>
									</parameter>
									<parameter authoringApp="PremierePro">
										<parameterid>29</parameterid>
										<name>Sharpen</name>
										<IsTimeVarying>false</IsTimeVarying>
										<ParameterControlType>8</ParameterControlType>
										<LowerBound>-100</LowerBound>
										<UpperBound>100</UpperBound>
										<value>-91445760000000000,0.,0,0,0,0,0,0</value>
									</parameter>
									<parameter authoringApp="PremierePro">
										<parameterid>30</parameterid>
										<name>Vibrance</name>
										<IsTimeVarying>false</IsTimeVarying>
										<ParameterControlType>8</ParameterControlType>
										<LowerBound>-100</LowerBound>
										<UpperBound>100</UpperBound>
										<value>-91445760000000000,0.,0,0,0,0,0,0</value>
									</parameter>
									<parameter authoringApp="PremierePro">
										<parameterid>31</parameterid>
										<name>Saturation</name>
										<IsTimeVarying>false</IsTimeVarying>
										<ParameterControlType>8</ParameterControlType>
										<LowerBound>0</LowerBound>
										<UpperBound>300</UpperBound>
										<UpperUIBound>200</UpperUIBound>
										<value>-91445760000000000,100.,0,0,0,0,0,0</value>
									</parameter>
									<parameter authoringApp="PremierePro">
										<parameterid>32</parameterid>
										<name></name>
										<hash>49d2fca5-ddd1-a393-0544-f6d80000002c</hash>
										<value>AAAAAAAAAAAAAAAAAAAAAAAAAAAAAAAAAAAAAAAAAAA=</value>
									</parameter>
									<parameter authoringApp="PremierePro">
										<parameterid>33</parameterid>
										<name>Tint Balance</name>
										<IsTimeVarying>false</IsTimeVarying>
										<ParameterControlType>8</ParameterControlType>
										<LowerBound>-150</LowerBound>
										<UpperBound>150</UpperBound>
										<LowerUIBound>-100</LowerUIBound>
										<UpperUIBound>100</UpperUIBound>
										<value>-91445760000000000,0.,0,0,0,0,0,0</value>
									</parameter>
									<parameter authoringApp="PremierePro">
										<parameterid>37</parameterid>
										<name> </name>
										<IsTimeVarying>false</IsTimeVarying>
										<ParameterControlType>4</ParameterControlType>
										<LowerBound>false</LowerBound>
										<UpperBound>true</UpperBound>
										<value>-91445760000000000,true,0,0,0,0,0,0</value>
									</parameter>
									<parameter authoringApp="PremierePro">
										<parameterid>39</parameterid>
										<name> </name>
										<hash>261f3840-e8cf-a8cd-fa5e-bac10000082c</hash>
										<value>AAAAAAIAAAAAAAAAAAAAAAAAAAAAAAAAAAAAAAAA8D8AAAAAAADwPwAAAAAAAAAAAAAAAAAAAAAAAAAAAAAAAAAAAAAAAAAAAAAAAAAAAAAAAAAAAAAAAAAAAAAAAAAAAAAAAAAAAAAAAAAAAAAAAAAAAAAAAAAAAAAAAAAAAAAAAAAAAAAAAAAAAAAAAAAAAAAAAAAAAAAAAAAAAAAAAAAAAAAAAAAAAAAAAAAAAAAAAAAAAAAAAAAAAAAAAAAAAAAAAAAAAAAAAAAAAAAAAAAAAAAAAAAAAAAAAAAAAAAAAAAAAAAAAAAAAAAAAAAAAAAAAAAAAAAAAAAAAAAAAAAAAAAAAAAAAAAAAAAAAAAAAAAAAAAAAAAAAAAAAAAAAAAAAAAAAAAAAAAAAAAAAAAAAAAAAAAAAAAAAAAAAAAAAAAAAAAAAAAAAAAAAAAAAAAAAAAAAAAAAAAAAAAAAAAAAAAAAAAAAAAAAAAAAAAAAAAAAAAAAAAAAAAAAAAAAAAAAAAAAAAAAAAAAAAAAAAAAAAAAAAAAAAAAAAAAAAAAAAAAAAAAAAAAAAAAAAAAAAAAAAAAAAAAAAAAAAAAAAAAAAAAAAAAAAAAAAAAAAAAAAAAAAAAAAAAAAAAAAAAAAAAAAAAAAAAAAAAAAAAAAAAAAAAAAAAAAAAAAAAAAAAAAAAAAAAAAAAAACAAAAAAAAAAAAAAAAAAAAAAAAAAAAAAAAAPA/AAAAAAAA8D8AAAAAAAAAAAAAAAAAAAAAAAAAAAAAAAAAAAAAAAAAAAAAAAAAAAAAAAAAAAAAAAAAAAAAAAAAAAAAAAAAAAAAAAAAAAAAAAAAAAAAAAAAAAAAAAAAAAAAAAAAAAAAAAAAAAAAAAAAAAAAAAAAAAAAAAAAAAAAAAAAAAAAAAAAAAAAAAAAAAAAAAAAAAAAAAAAAAAAAAAAAAAAAAAAAAAAAAAAAAAAAAAAAAAAAAAAAAAAAAAAAAAAAAAAAAAAAAAAAAAAAAAAAAAAAAAAAAAAAAAAAAAAAAAAAAAAAAAAAAAAAAAAAAAAAAAAAAAAAAAAAAAAAAAAAAAAAAAAAAAAAAAAAAAAAAAAAAAAAAAAAAAAAAAAAAAAAAAAAAAAAAAAAAAAAAAAAAAAAAAAAAAAAAAAAAAAAAAAAAAAAAAAAAAAAAAAAAAAAAAAAAAAAAAAAAAAAAAAAAAAAAAAAAAAAAAAAAAAAAAAAAAAAAAAAAAAAAAAAAAAAAAAAAAAAAAAAAAAAAAAAAAAAAAAAAAAAAAAAAAAAAAAAAAAAAAAAAAAAAAAAAAAAAAAAAAAAAAAAAAAAAAAAAAAAAAAAAAAAAAAAAAAAAAAAAAAAAAAAAAAAAAAAAAAAAAAAAAAAAAAAAAAAgAAAAAAAAAAAAAAAAAAAAAAAAAAAAAAAADwPwAAAAAAAPA/AAAAAAAAAAAAAAAAAAAAAAAAAAAAAAAAAAAAAAAAAAAAAAAAAAAAAAAAAAAAAAAAAAAAAAAAAAAAAAAAAAAAAAAAAAAAAAAAAAAAAAAAAAAAAAAAAAAAAAAAAAAAAAAAAAAAAAAAAAAAAAAAAAAAAAAAAAAAAAAAAAAAAAAAAAAAAAAAAAAAAAAAAAAAAAAAAAAAAAAAAAAAAAAAAAAAAAAAAAAAAAAAAAAAAAAAAAAAAAAAAAAAAAAAAAAAAAAAAAAAAAAAAAAAAAAAAAAAAAAAAAAAAAAAAAAAAAAAAAAAAAAAAAAAAAAAAAAAAAAAAAAAAAAAAAAAAAAAAAAAAAAAAAAAAAAAAAAAAAAAAAAAAAAAAAAAAAAAAAAAAAAAAAAAAAAAAAAAAAAAAAAAAAAAAAAAAAAAAAAAAAAAAAAAAAAAAAAAAAAAAAAAAAAAAAAAAAAAAAAAAAAAAAAAAAAAAAAAAAAAAAAAAAAAAAAAAAAAAAAAAAAAAAAAAAAAAAAAAAAAAAAAAAAAAAAAAAAAAAAAAAAAAAAAAAAAAAAAAAAAAAAAAAAAAAAAAAAAAAAAAAAAAAAAAAAAAAAAAAAAAAAAAAAAAAAAAAAAAAAAAAAAAAAAAAAAAAAAAAAAAAAAAAIAAAAAAAAAAAAAAAAAAAAAAAAAAAAAAAAA8D8AAAAAAADwPwAAAAAAAAAAAAAAAAAAAAAAAAAAAAAAAAAAAAAAAAAAAAAAAAAAAAAAAAAAAAAAAAAAAAAAAAAAAAAAAAAAAAAAAAAAAAAAAAAAAAAAAAAAAAAAAAAAAAAAAAAAAAAAAAAAAAAAAAAAAAAAAAAAAAAAAAAAAAAAAAAAAAAAAAAAAAAAAAAAAAAAAAAAAAAAAAAAAAAAAAAAAAAAAAAAAAAAAAAAAAAAAAAAAAAAAAAAAAAAAAAAAAAAAAAAAAAAAAAAAAAAAAAAAAAAAAAAAAAAAAAAAAAAAAAAAAAAAAAAAAAAAAAAAAAAAAAAAAAAAAAAAAAAAAAAAAAAAAAAAAAAAAAAAAAAAAAAAAAAAAAAAAAAAAAAAAAAAAAAAAAAAAAAAAAAAAAAAAAAAAAAAAAAAAAAAAAAAAAAAAAAAAAAAAAAAAAAAAAAAAAAAAAAAAAAAAAAAAAAAAAAAAAAAAAAAAAAAAAAAAAAAAAAAAAAAAAAAAAAAAAAAAAAAAAAAAAAAAAAAAAAAAAAAAAAAAAAAAAAAAAAAAAAAAAAAAAAAAAAAAAAAAAAAAAAAAAAAAAAAAAAAAAAAAAAAAAAAAAAAAAAAAAAAAAAAAAAAAAAAAAAAAAAAAAAAAAAAAAAAA==</value>
									</parameter>
									<parameter authoringApp="PremierePro">
										<parameterid>42</parameterid>
										<name> </name>
										<hash>ccfaa4df-d630-7661-76dd-3e4900000214</hash>
										<value>AQAAAAAAAAAAAAAAAAAAAAAAAAAAAAAAAAAAAAAA8D8AAAAAAADwPwAAAAAAAAAAAAAAAAAAAAAAAAAAAAAAAAAAAAAAAAAAAAAAAAAAAAAAAAAAAAAAAAAAAAAAAAAAAAAAAAAAAAAAAAAAAAAAAAAAAAAAAAAAAAAAAAAAAAAAAAAAAAAAAAAAAAAAAAAAAAAAAAAAAAAAAAAAAAAAAAAAAAAAAAAAAAAAAAAAAAAAAAAAAAAAAAAAAAAAAAAAAAAAAAAAAAAAAAAAAAAAAAAAAAAAAAAAAAAAAAAAAAAAAAAAAAAAAAAAAAAAAAAAAAAAAAAAAAAAAAAAAAAAAAAAAAAAAAAAAAAAAAAAAAAAAAAAAAAAAAAAAAAAAAAAAAAAAAAAAAAAAAAAAAAAAAAAAAAAAAAAAAAAAAAAAAAAAAAAAAAAAAAAAAAAAAAAAAAAAAAAAAAAAAAAAAAAAAAAAAAAAAAAAAAAAAAAAAAAAAAAAAAAAAAAAAAAAAAAAAAAAAAAAAAAAAAAAAAAAAAAAAAAAAAAAAAAAAAAAAAAAAAAAAAAAAAAAAAAAAAAAAAAAAAAAAAAAAAAAAAAAAAAAAAAAAAAAAAAAAAAAAAAAAAAAAAAAAAAAAAAAAAAAAAAAAAAAAAAAAAAAAAAAAAAAAAAAAAAAAAAAAAAAAAAAAAAAAAAAA==</value>
									</parameter>
									<parameter authoringApp="PremierePro">
										<parameterid>46</parameterid>
										<name> </name>
										<IsTimeVarying>false</IsTimeVarying>
										<ParameterControlType>4</ParameterControlType>
										<LowerBound>false</LowerBound>
										<UpperBound>true</UpperBound>
										<value>-91445760000000000,true,0,0,0,0,0,0</value>
									</parameter>
									<parameter authoringApp="PremierePro">
										<parameterid>47</parameterid>
										<name> </name>
										<hash>0b5436c4-bae0-bb64-a2f6-c8c40000006c</hash>
										<value>AAAAAAAAAAAAAAAAAADgPwAAAAAAAAAAAAAAAAAAAAAAAAAAAADgPwAAAAAAAAAAAAAAAAAAAAAAAAAAAADgPwAAAAAAAAAAAAAAAAAAAAAAAAAAAADgPwAAAAAAAAAA</value>
									</parameter>
									<parameter authoringApp="PremierePro">
										<parameterid>50</parameterid>
										<name> </name>
										<IsTimeVarying>false</IsTimeVarying>
										<ParameterControlType>4</ParameterControlType>
										<LowerBound>false</LowerBound>
										<UpperBound>true</UpperBound>
										<value>-91445760000000000,true,0,0,0,0,0,0</value>
									</parameter>
									<parameter authoringApp="PremierePro">
										<parameterid>51</parameterid>
										<name>Amount</name>
										<IsTimeVarying>false</IsTimeVarying>
										<ParameterControlType>8</ParameterControlType>
										<LowerBound>-5</LowerBound>
										<UpperBound>5</UpperBound>
										<LowerUIBound>-3</LowerUIBound>
										<UpperUIBound>3</UpperUIBound>
										<value>-91445760000000000,0.,0,0,0,0,0,0</value>
									</parameter>
									<parameter authoringApp="PremierePro">
										<parameterid>52</parameterid>
										<name>Midpoint</name>
										<IsTimeVarying>false</IsTimeVarying>
										<ParameterControlType>8</ParameterControlType>
										<LowerBound>0</LowerBound>
										<UpperBound>100</UpperBound>
										<value>-91445760000000000,50.,0,0,0,0,0,0</value>
									</parameter>
									<parameter authoringApp="PremierePro">
										<parameterid>53</parameterid>
										<name>Roundness</name>
										<IsTimeVarying>false</IsTimeVarying>
										<ParameterControlType>8</ParameterControlType>
										<LowerBound>-100</LowerBound>
										<UpperBound>100</UpperBound>
										<value>-91445760000000000,0.,0,0,0,0,0,0</value>
									</parameter>
									<parameter authoringApp="PremierePro">
										<parameterid>54</parameterid>
										<name>Feather</name>
										<IsTimeVarying>false</IsTimeVarying>
										<ParameterControlType>8</ParameterControlType>
										<LowerBound>0</LowerBound>
										<UpperBound>100</UpperBound>
										<value>-91445760000000000,50.,0,0,0,0,0,0</value>
									</parameter>
								</effect>
							</filter>
						<link>
							<linkclipref>clipitem-128</linkclipref>
							<mediatype>video</mediatype>
							<trackindex>1</trackindex>
							<clipindex>137</clipindex>
						</link>
						<link>
							<linkclipref>clipitem-557</linkclipref>
							<mediatype>audio</mediatype>
							<trackindex>1</trackindex>
							<clipindex>67</clipindex>
							<groupindex>1</groupindex>
						</link>
						<link>
							<linkclipref>clipitem-639</linkclipref>
							<mediatype>audio</mediatype>
							<trackindex>3</trackindex>
							<clipindex>51</clipindex>
							<groupindex>1</groupindex>
						</link>
						<logginginfo>
							<description></description>
							<scene></scene>
							<shottake></shottake>
							<lognote></lognote>
						</logginginfo>
						<labels>
							<label2>Caribbean</label2>
						</labels>
					</clipitem>
					<clipitem id="clipitem-129">
						<masterclipid>masterclip-89</masterclipid>
						<name>Aashild-august-Clip0347.MXF</name>
						<enabled>TRUE</enabled>
						<duration>1092</duration>
						<rate>
							<timebase>25</timebase>
							<ntsc>FALSE</ntsc>
						</rate>
						<start>34510</start>
						<end>34625</end>
						<in>661</in>
						<out>776</out>
						<pproTicksIn>6716183040000</pproTicksIn>
						<pproTicksOut>7884656640000</pproTicksOut>
						<alphatype>none</alphatype>
						<pixelaspectratio>square</pixelaspectratio>
						<anamorphic>FALSE</anamorphic>
						<file id="file-89">
							<name>Aashild-august-Clip0347.MXF</name>
							<pathurl>file://localhost/Volumes/Vaagen/Prosjekter/DVNA200216_OAO_Naturforskere_010118_OAO/Ra%cc%8astoff/A%cc%8ashild%20Pedersen/Svalbard%20august/Fs5/Aashild-august-Clip0347.MXF</pathurl>
							<rate>
								<timebase>50</timebase>
								<ntsc>FALSE</ntsc>
							</rate>
							<duration>2184</duration>
							<timecode>
								<rate>
									<timebase>50</timebase>
									<ntsc>FALSE</ntsc>
								</rate>
								<string>04:01:07:10</string>
								<frame>723360</frame>
								<displayformat>NDF</displayformat>
								<reel>
									<name></name>
								</reel>
							</timecode>
							<media>
								<video>
									<samplecharacteristics>
										<rate>
											<timebase>50</timebase>
											<ntsc>FALSE</ntsc>
										</rate>
										<width>1920</width>
										<height>1080</height>
										<anamorphic>FALSE</anamorphic>
										<pixelaspectratio>square</pixelaspectratio>
										<fielddominance>none</fielddominance>
									</samplecharacteristics>
								</video>
								<audio>
									<samplecharacteristics>
										<depth>16</depth>
										<samplerate>48000</samplerate>
									</samplecharacteristics>
									<channelcount>4</channelcount>
								</audio>
							</media>
						</file>
							<filter>
								<effect>
									<name></name>
									<effectid>Lumetri</effectid>
									<effecttype>filter</effecttype>
									<mediatype>video</mediatype>
									<parameter authoringApp="PremierePro">
										<parameterid>1</parameterid>
										<name>File Path</name>
										<hash>63866a15-9327-e4cb-ff31-c9ea0000000e</hash>
									</parameter>
									<parameter authoringApp="PremierePro">
										<parameterid>3</parameterid>
										<name> </name>
										<IsTimeVarying>false</IsTimeVarying>
										<ParameterControlType>4</ParameterControlType>
										<LowerBound>false</LowerBound>
										<UpperBound>true</UpperBound>
										<value>-91445760000000000,true,0,0,0,0,0,0</value>
									</parameter>
									<parameter authoringApp="PremierePro">
										<parameterid>4</parameterid>
										<name> </name>
										<hash>63866a15-9327-e4cb-ff31-c9ea0000000e</hash>
									</parameter>
									<parameter authoringApp="PremierePro">
										<parameterid>5</parameterid>
										<name>Input LUT</name>
										<IsTimeVarying>false</IsTimeVarying>
										<ParameterControlType>7</ParameterControlType>
										<LowerBound>0</LowerBound>
										<UpperBound>998</UpperBound>
										<value>-91445760000000000,0,0,0,0,0,0,0</value>
									</parameter>
									<parameter authoringApp="PremierePro">
										<parameterid>7</parameterid>
										<name>Temperature</name>
										<IsTimeVarying>false</IsTimeVarying>
										<ParameterControlType>8</ParameterControlType>
										<LowerBound>-150</LowerBound>
										<UpperBound>150</UpperBound>
										<LowerUIBound>-100</LowerUIBound>
										<UpperUIBound>100</UpperUIBound>
										<value>-91445760000000000,0.,0,0,0,0,0,0</value>
									</parameter>
									<parameter authoringApp="PremierePro">
										<parameterid>8</parameterid>
										<name>Tint</name>
										<IsTimeVarying>false</IsTimeVarying>
										<ParameterControlType>8</ParameterControlType>
										<LowerBound>-150</LowerBound>
										<UpperBound>150</UpperBound>
										<LowerUIBound>-100</LowerUIBound>
										<UpperUIBound>100</UpperUIBound>
										<value>-91445760000000000,0.,0,0,0,0,0,0</value>
									</parameter>
									<parameter authoringApp="PremierePro">
										<parameterid>11</parameterid>
										<name>Exposure</name>
										<IsTimeVarying>false</IsTimeVarying>
										<ParameterControlType>8</ParameterControlType>
										<LowerBound>-7</LowerBound>
										<UpperBound>7</UpperBound>
										<LowerUIBound>-5</LowerUIBound>
										<UpperUIBound>5</UpperUIBound>
										<value>-91445760000000000,0.60000002384185791015625,0,0,0,0,0,0</value>
									</parameter>
									<parameter authoringApp="PremierePro">
										<parameterid>12</parameterid>
										<name>Contrast</name>
										<IsTimeVarying>false</IsTimeVarying>
										<ParameterControlType>8</ParameterControlType>
										<LowerBound>-150</LowerBound>
										<UpperBound>150</UpperBound>
										<LowerUIBound>-100</LowerUIBound>
										<UpperUIBound>100</UpperUIBound>
										<value>-91445760000000000,59.975616455078125,0,0,0,0,0,0</value>
									</parameter>
									<parameter authoringApp="PremierePro">
										<parameterid>13</parameterid>
										<name>Highlights</name>
										<IsTimeVarying>false</IsTimeVarying>
										<ParameterControlType>8</ParameterControlType>
										<LowerBound>-150</LowerBound>
										<UpperBound>150</UpperBound>
										<LowerUIBound>-100</LowerUIBound>
										<UpperUIBound>100</UpperUIBound>
										<value>-91445760000000000,-51.,0,0,0,0,0,0</value>
									</parameter>
									<parameter authoringApp="PremierePro">
										<parameterid>14</parameterid>
										<name>Shadows</name>
										<IsTimeVarying>false</IsTimeVarying>
										<ParameterControlType>8</ParameterControlType>
										<LowerBound>-150</LowerBound>
										<UpperBound>150</UpperBound>
										<LowerUIBound>-100</LowerUIBound>
										<UpperUIBound>100</UpperUIBound>
										<value>-91445760000000000,-9.,0,0,0,0,0,0</value>
									</parameter>
									<parameter authoringApp="PremierePro">
										<parameterid>15</parameterid>
										<name>Whites</name>
										<IsTimeVarying>false</IsTimeVarying>
										<ParameterControlType>8</ParameterControlType>
										<LowerBound>-150</LowerBound>
										<UpperBound>150</UpperBound>
										<LowerUIBound>-100</LowerUIBound>
										<UpperUIBound>100</UpperUIBound>
										<value>-91445760000000000,-150.,0,0,0,0,0,0</value>
									</parameter>
									<parameter authoringApp="PremierePro">
										<parameterid>16</parameterid>
										<name>Blacks</name>
										<IsTimeVarying>false</IsTimeVarying>
										<ParameterControlType>8</ParameterControlType>
										<LowerBound>-150</LowerBound>
										<UpperBound>150</UpperBound>
										<LowerUIBound>-100</LowerUIBound>
										<UpperUIBound>100</UpperUIBound>
										<value>-91445760000000000,-82.95122528076171875,0,0,0,0,0,0</value>
									</parameter>
									<parameter authoringApp="PremierePro">
										<parameterid>20</parameterid>
										<name>Saturation</name>
										<IsTimeVarying>false</IsTimeVarying>
										<ParameterControlType>8</ParameterControlType>
										<LowerBound>0</LowerBound>
										<UpperBound>300</UpperBound>
										<UpperUIBound>200</UpperUIBound>
										<value>-91445760000000000,190.,0,0,0,0,0,0</value>
									</parameter>
									<parameter authoringApp="PremierePro">
										<parameterid>23</parameterid>
										<name> </name>
										<IsTimeVarying>false</IsTimeVarying>
										<ParameterControlType>4</ParameterControlType>
										<LowerBound>false</LowerBound>
										<UpperBound>true</UpperBound>
										<value>-91445760000000000,true,0,0,0,0,0,0</value>
									</parameter>
									<parameter authoringApp="PremierePro">
										<parameterid>24</parameterid>
										<name> </name>
										<hash>63866a15-9327-e4cb-ff31-c9ea0000000e</hash>
									</parameter>
									<parameter authoringApp="PremierePro">
										<parameterid>25</parameterid>
										<name>Look</name>
										<IsTimeVarying>false</IsTimeVarying>
										<ParameterControlType>7</ParameterControlType>
										<LowerBound>0</LowerBound>
										<UpperBound>998</UpperBound>
										<value>-91445760000000000,0,0,0,0,0,0,0</value>
									</parameter>
									<parameter authoringApp="PremierePro">
										<parameterid>26</parameterid>
										<name>Intensity</name>
										<IsTimeVarying>false</IsTimeVarying>
										<ParameterControlType>8</ParameterControlType>
										<LowerBound>0</LowerBound>
										<UpperBound>200</UpperBound>
										<value>-91445760000000000,100.,0,0,0,0,0,0</value>
									</parameter>
									<parameter authoringApp="PremierePro">
										<parameterid>28</parameterid>
										<name>Faded Film</name>
										<IsTimeVarying>false</IsTimeVarying>
										<ParameterControlType>8</ParameterControlType>
										<LowerBound>0</LowerBound>
										<UpperBound>150</UpperBound>
										<UpperUIBound>100</UpperUIBound>
										<value>-91445760000000000,0.,0,0,0,0,0,0</value>
									</parameter>
									<parameter authoringApp="PremierePro">
										<parameterid>29</parameterid>
										<name>Sharpen</name>
										<IsTimeVarying>false</IsTimeVarying>
										<ParameterControlType>8</ParameterControlType>
										<LowerBound>-100</LowerBound>
										<UpperBound>100</UpperBound>
										<value>-91445760000000000,0.,0,0,0,0,0,0</value>
									</parameter>
									<parameter authoringApp="PremierePro">
										<parameterid>30</parameterid>
										<name>Vibrance</name>
										<IsTimeVarying>false</IsTimeVarying>
										<ParameterControlType>8</ParameterControlType>
										<LowerBound>-100</LowerBound>
										<UpperBound>100</UpperBound>
										<value>-91445760000000000,0.,0,0,0,0,0,0</value>
									</parameter>
									<parameter authoringApp="PremierePro">
										<parameterid>31</parameterid>
										<name>Saturation</name>
										<IsTimeVarying>false</IsTimeVarying>
										<ParameterControlType>8</ParameterControlType>
										<LowerBound>0</LowerBound>
										<UpperBound>300</UpperBound>
										<UpperUIBound>200</UpperUIBound>
										<value>-91445760000000000,100.,0,0,0,0,0,0</value>
									</parameter>
									<parameter authoringApp="PremierePro">
										<parameterid>32</parameterid>
										<name></name>
										<hash>49d2fca5-ddd1-a393-0544-f6d80000002c</hash>
									</parameter>
									<parameter authoringApp="PremierePro">
										<parameterid>33</parameterid>
										<name>Tint Balance</name>
										<IsTimeVarying>false</IsTimeVarying>
										<ParameterControlType>8</ParameterControlType>
										<LowerBound>-150</LowerBound>
										<UpperBound>150</UpperBound>
										<LowerUIBound>-100</LowerUIBound>
										<UpperUIBound>100</UpperUIBound>
										<value>-91445760000000000,0.,0,0,0,0,0,0</value>
									</parameter>
									<parameter authoringApp="PremierePro">
										<parameterid>37</parameterid>
										<name> </name>
										<IsTimeVarying>false</IsTimeVarying>
										<ParameterControlType>4</ParameterControlType>
										<LowerBound>false</LowerBound>
										<UpperBound>true</UpperBound>
										<value>-91445760000000000,true,0,0,0,0,0,0</value>
									</parameter>
									<parameter authoringApp="PremierePro">
										<parameterid>39</parameterid>
										<name> </name>
										<hash>261f3840-e8cf-a8cd-fa5e-bac10000082c</hash>
									</parameter>
									<parameter authoringApp="PremierePro">
										<parameterid>42</parameterid>
										<name> </name>
										<hash>ccfaa4df-d630-7661-76dd-3e4900000214</hash>
									</parameter>
									<parameter authoringApp="PremierePro">
										<parameterid>46</parameterid>
										<name> </name>
										<IsTimeVarying>false</IsTimeVarying>
										<ParameterControlType>4</ParameterControlType>
										<LowerBound>false</LowerBound>
										<UpperBound>true</UpperBound>
										<value>-91445760000000000,true,0,0,0,0,0,0</value>
									</parameter>
									<parameter authoringApp="PremierePro">
										<parameterid>47</parameterid>
										<name> </name>
										<hash>0b5436c4-bae0-bb64-a2f6-c8c40000006c</hash>
									</parameter>
									<parameter authoringApp="PremierePro">
										<parameterid>50</parameterid>
										<name> </name>
										<IsTimeVarying>false</IsTimeVarying>
										<ParameterControlType>4</ParameterControlType>
										<LowerBound>false</LowerBound>
										<UpperBound>true</UpperBound>
										<value>-91445760000000000,true,0,0,0,0,0,0</value>
									</parameter>
									<parameter authoringApp="PremierePro">
										<parameterid>51</parameterid>
										<name>Amount</name>
										<IsTimeVarying>false</IsTimeVarying>
										<ParameterControlType>8</ParameterControlType>
										<LowerBound>-5</LowerBound>
										<UpperBound>5</UpperBound>
										<LowerUIBound>-3</LowerUIBound>
										<UpperUIBound>3</UpperUIBound>
										<value>-91445760000000000,0.,0,0,0,0,0,0</value>
									</parameter>
									<parameter authoringApp="PremierePro">
										<parameterid>52</parameterid>
										<name>Midpoint</name>
										<IsTimeVarying>false</IsTimeVarying>
										<ParameterControlType>8</ParameterControlType>
										<LowerBound>0</LowerBound>
										<UpperBound>100</UpperBound>
										<value>-91445760000000000,50.,0,0,0,0,0,0</value>
									</parameter>
									<parameter authoringApp="PremierePro">
										<parameterid>53</parameterid>
										<name>Roundness</name>
										<IsTimeVarying>false</IsTimeVarying>
										<ParameterControlType>8</ParameterControlType>
										<LowerBound>-100</LowerBound>
										<UpperBound>100</UpperBound>
										<value>-91445760000000000,0.,0,0,0,0,0,0</value>
									</parameter>
									<parameter authoringApp="PremierePro">
										<parameterid>54</parameterid>
										<name>Feather</name>
										<IsTimeVarying>false</IsTimeVarying>
										<ParameterControlType>8</ParameterControlType>
										<LowerBound>0</LowerBound>
										<UpperBound>100</UpperBound>
										<value>-91445760000000000,50.,0,0,0,0,0,0</value>
									</parameter>
								</effect>
							</filter>
						<link>
							<linkclipref>clipitem-129</linkclipref>
							<mediatype>video</mediatype>
							<trackindex>1</trackindex>
							<clipindex>138</clipindex>
						</link>
						<link>
							<linkclipref>clipitem-640</linkclipref>
							<mediatype>audio</mediatype>
							<trackindex>3</trackindex>
							<clipindex>52</clipindex>
							<groupindex>1</groupindex>
						</link>
						<link>
							<linkclipref>clipitem-690</linkclipref>
							<mediatype>audio</mediatype>
							<trackindex>5</trackindex>
							<clipindex>33</clipindex>
							<groupindex>1</groupindex>
						</link>
						<logginginfo>
							<description></description>
							<scene></scene>
							<shottake></shottake>
							<lognote></lognote>
						</logginginfo>
						<labels>
							<label2>Caribbean</label2>
						</labels>
					</clipitem>
					<clipitem id="clipitem-130">
						<masterclipid>masterclip-90</masterclipid>
						<name>Aashild-august-Clip0576.MXF</name>
						<enabled>TRUE</enabled>
						<duration>552</duration>
						<rate>
							<timebase>25</timebase>
							<ntsc>FALSE</ntsc>
						</rate>
						<start>34625</start>
						<end>34662</end>
						<in>86</in>
						<out>123</out>
						<pproTicksIn>873815040000</pproTicksIn>
						<pproTicksOut>1249758720000</pproTicksOut>
						<alphatype>none</alphatype>
						<pixelaspectratio>square</pixelaspectratio>
						<anamorphic>FALSE</anamorphic>
						<file id="file-90">
							<name>Aashild-august-Clip0576.MXF</name>
							<pathurl>file://localhost/Volumes/Vaagen/Prosjekter/DVNA200216_OAO_Naturforskere_010118_OAO/Ra%cc%8astoff/A%cc%8ashild%20Pedersen/Svalbard%20august/Fs5/Aashild-august-Clip0576.MXF</pathurl>
							<rate>
								<timebase>50</timebase>
								<ntsc>FALSE</ntsc>
							</rate>
							<duration>1104</duration>
							<timecode>
								<rate>
									<timebase>50</timebase>
									<ntsc>FALSE</ntsc>
								</rate>
								<string>06:56:55:10</string>
								<frame>1250760</frame>
								<displayformat>NDF</displayformat>
								<reel>
									<name></name>
								</reel>
							</timecode>
							<media>
								<video>
									<samplecharacteristics>
										<rate>
											<timebase>50</timebase>
											<ntsc>FALSE</ntsc>
										</rate>
										<width>1920</width>
										<height>1080</height>
										<anamorphic>FALSE</anamorphic>
										<pixelaspectratio>square</pixelaspectratio>
										<fielddominance>none</fielddominance>
									</samplecharacteristics>
								</video>
								<audio>
									<samplecharacteristics>
										<depth>16</depth>
										<samplerate>48000</samplerate>
									</samplecharacteristics>
									<channelcount>4</channelcount>
								</audio>
							</media>
						</file>
							<filter>
								<effect>
									<name></name>
									<effectid>Lumetri</effectid>
									<effecttype>filter</effecttype>
									<mediatype>video</mediatype>
									<parameter authoringApp="PremierePro">
										<parameterid>1</parameterid>
										<name>File Path</name>
										<hash>63866a15-9327-e4cb-ff31-c9ea0000000e</hash>
									</parameter>
									<parameter authoringApp="PremierePro">
										<parameterid>3</parameterid>
										<name> </name>
										<IsTimeVarying>false</IsTimeVarying>
										<ParameterControlType>4</ParameterControlType>
										<LowerBound>false</LowerBound>
										<UpperBound>true</UpperBound>
										<value>-91445760000000000,true,0,0,0,0,0,0</value>
									</parameter>
									<parameter authoringApp="PremierePro">
										<parameterid>4</parameterid>
										<name> </name>
										<hash>63866a15-9327-e4cb-ff31-c9ea0000000e</hash>
									</parameter>
									<parameter authoringApp="PremierePro">
										<parameterid>5</parameterid>
										<name>Input LUT</name>
										<IsTimeVarying>false</IsTimeVarying>
										<ParameterControlType>7</ParameterControlType>
										<LowerBound>0</LowerBound>
										<UpperBound>998</UpperBound>
										<value>-91445760000000000,0,0,0,0,0,0,0</value>
									</parameter>
									<parameter authoringApp="PremierePro">
										<parameterid>7</parameterid>
										<name>Temperature</name>
										<IsTimeVarying>false</IsTimeVarying>
										<ParameterControlType>8</ParameterControlType>
										<LowerBound>-150</LowerBound>
										<UpperBound>150</UpperBound>
										<LowerUIBound>-100</LowerUIBound>
										<UpperUIBound>100</UpperUIBound>
										<value>-91445760000000000,0.,0,0,0,0,0,0</value>
									</parameter>
									<parameter authoringApp="PremierePro">
										<parameterid>8</parameterid>
										<name>Tint</name>
										<IsTimeVarying>false</IsTimeVarying>
										<ParameterControlType>8</ParameterControlType>
										<LowerBound>-150</LowerBound>
										<UpperBound>150</UpperBound>
										<LowerUIBound>-100</LowerUIBound>
										<UpperUIBound>100</UpperUIBound>
										<value>-91445760000000000,0.,0,0,0,0,0,0</value>
									</parameter>
									<parameter authoringApp="PremierePro">
										<parameterid>11</parameterid>
										<name>Exposure</name>
										<IsTimeVarying>false</IsTimeVarying>
										<ParameterControlType>8</ParameterControlType>
										<LowerBound>-7</LowerBound>
										<UpperBound>7</UpperBound>
										<LowerUIBound>-5</LowerUIBound>
										<UpperUIBound>5</UpperUIBound>
										<value>-91445760000000000,0.60000002384185791015625,0,0,0,0,0,0</value>
									</parameter>
									<parameter authoringApp="PremierePro">
										<parameterid>12</parameterid>
										<name>Contrast</name>
										<IsTimeVarying>false</IsTimeVarying>
										<ParameterControlType>8</ParameterControlType>
										<LowerBound>-150</LowerBound>
										<UpperBound>150</UpperBound>
										<LowerUIBound>-100</LowerUIBound>
										<UpperUIBound>100</UpperUIBound>
										<value>-91445760000000000,59.975616455078125,0,0,0,0,0,0</value>
									</parameter>
									<parameter authoringApp="PremierePro">
										<parameterid>13</parameterid>
										<name>Highlights</name>
										<IsTimeVarying>false</IsTimeVarying>
										<ParameterControlType>8</ParameterControlType>
										<LowerBound>-150</LowerBound>
										<UpperBound>150</UpperBound>
										<LowerUIBound>-100</LowerUIBound>
										<UpperUIBound>100</UpperUIBound>
										<value>-91445760000000000,-51.,0,0,0,0,0,0</value>
									</parameter>
									<parameter authoringApp="PremierePro">
										<parameterid>14</parameterid>
										<name>Shadows</name>
										<IsTimeVarying>false</IsTimeVarying>
										<ParameterControlType>8</ParameterControlType>
										<LowerBound>-150</LowerBound>
										<UpperBound>150</UpperBound>
										<LowerUIBound>-100</LowerUIBound>
										<UpperUIBound>100</UpperUIBound>
										<value>-91445760000000000,-9.,0,0,0,0,0,0</value>
									</parameter>
									<parameter authoringApp="PremierePro">
										<parameterid>15</parameterid>
										<name>Whites</name>
										<IsTimeVarying>false</IsTimeVarying>
										<ParameterControlType>8</ParameterControlType>
										<LowerBound>-150</LowerBound>
										<UpperBound>150</UpperBound>
										<LowerUIBound>-100</LowerUIBound>
										<UpperUIBound>100</UpperUIBound>
										<value>-91445760000000000,-150.,0,0,0,0,0,0</value>
									</parameter>
									<parameter authoringApp="PremierePro">
										<parameterid>16</parameterid>
										<name>Blacks</name>
										<IsTimeVarying>false</IsTimeVarying>
										<ParameterControlType>8</ParameterControlType>
										<LowerBound>-150</LowerBound>
										<UpperBound>150</UpperBound>
										<LowerUIBound>-100</LowerUIBound>
										<UpperUIBound>100</UpperUIBound>
										<value>-91445760000000000,-82.95122528076171875,0,0,0,0,0,0</value>
									</parameter>
									<parameter authoringApp="PremierePro">
										<parameterid>20</parameterid>
										<name>Saturation</name>
										<IsTimeVarying>false</IsTimeVarying>
										<ParameterControlType>8</ParameterControlType>
										<LowerBound>0</LowerBound>
										<UpperBound>300</UpperBound>
										<UpperUIBound>200</UpperUIBound>
										<value>-91445760000000000,190.,0,0,0,0,0,0</value>
									</parameter>
									<parameter authoringApp="PremierePro">
										<parameterid>23</parameterid>
										<name> </name>
										<IsTimeVarying>false</IsTimeVarying>
										<ParameterControlType>4</ParameterControlType>
										<LowerBound>false</LowerBound>
										<UpperBound>true</UpperBound>
										<value>-91445760000000000,true,0,0,0,0,0,0</value>
									</parameter>
									<parameter authoringApp="PremierePro">
										<parameterid>24</parameterid>
										<name> </name>
										<hash>63866a15-9327-e4cb-ff31-c9ea0000000e</hash>
									</parameter>
									<parameter authoringApp="PremierePro">
										<parameterid>25</parameterid>
										<name>Look</name>
										<IsTimeVarying>false</IsTimeVarying>
										<ParameterControlType>7</ParameterControlType>
										<LowerBound>0</LowerBound>
										<UpperBound>998</UpperBound>
										<value>-91445760000000000,0,0,0,0,0,0,0</value>
									</parameter>
									<parameter authoringApp="PremierePro">
										<parameterid>26</parameterid>
										<name>Intensity</name>
										<IsTimeVarying>false</IsTimeVarying>
										<ParameterControlType>8</ParameterControlType>
										<LowerBound>0</LowerBound>
										<UpperBound>200</UpperBound>
										<value>-91445760000000000,100.,0,0,0,0,0,0</value>
									</parameter>
									<parameter authoringApp="PremierePro">
										<parameterid>28</parameterid>
										<name>Faded Film</name>
										<IsTimeVarying>false</IsTimeVarying>
										<ParameterControlType>8</ParameterControlType>
										<LowerBound>0</LowerBound>
										<UpperBound>150</UpperBound>
										<UpperUIBound>100</UpperUIBound>
										<value>-91445760000000000,0.,0,0,0,0,0,0</value>
									</parameter>
									<parameter authoringApp="PremierePro">
										<parameterid>29</parameterid>
										<name>Sharpen</name>
										<IsTimeVarying>false</IsTimeVarying>
										<ParameterControlType>8</ParameterControlType>
										<LowerBound>-100</LowerBound>
										<UpperBound>100</UpperBound>
										<value>-91445760000000000,0.,0,0,0,0,0,0</value>
									</parameter>
									<parameter authoringApp="PremierePro">
										<parameterid>30</parameterid>
										<name>Vibrance</name>
										<IsTimeVarying>false</IsTimeVarying>
										<ParameterControlType>8</ParameterControlType>
										<LowerBound>-100</LowerBound>
										<UpperBound>100</UpperBound>
										<value>-91445760000000000,0.,0,0,0,0,0,0</value>
									</parameter>
									<parameter authoringApp="PremierePro">
										<parameterid>31</parameterid>
										<name>Saturation</name>
										<IsTimeVarying>false</IsTimeVarying>
										<ParameterControlType>8</ParameterControlType>
										<LowerBound>0</LowerBound>
										<UpperBound>300</UpperBound>
										<UpperUIBound>200</UpperUIBound>
										<value>-91445760000000000,100.,0,0,0,0,0,0</value>
									</parameter>
									<parameter authoringApp="PremierePro">
										<parameterid>32</parameterid>
										<name></name>
										<hash>49d2fca5-ddd1-a393-0544-f6d80000002c</hash>
									</parameter>
									<parameter authoringApp="PremierePro">
										<parameterid>33</parameterid>
										<name>Tint Balance</name>
										<IsTimeVarying>false</IsTimeVarying>
										<ParameterControlType>8</ParameterControlType>
										<LowerBound>-150</LowerBound>
										<UpperBound>150</UpperBound>
										<LowerUIBound>-100</LowerUIBound>
										<UpperUIBound>100</UpperUIBound>
										<value>-91445760000000000,0.,0,0,0,0,0,0</value>
									</parameter>
									<parameter authoringApp="PremierePro">
										<parameterid>37</parameterid>
										<name> </name>
										<IsTimeVarying>false</IsTimeVarying>
										<ParameterControlType>4</ParameterControlType>
										<LowerBound>false</LowerBound>
										<UpperBound>true</UpperBound>
										<value>-91445760000000000,true,0,0,0,0,0,0</value>
									</parameter>
									<parameter authoringApp="PremierePro">
										<parameterid>39</parameterid>
										<name> </name>
										<hash>261f3840-e8cf-a8cd-fa5e-bac10000082c</hash>
									</parameter>
									<parameter authoringApp="PremierePro">
										<parameterid>42</parameterid>
										<name> </name>
										<hash>ccfaa4df-d630-7661-76dd-3e4900000214</hash>
									</parameter>
									<parameter authoringApp="PremierePro">
										<parameterid>46</parameterid>
										<name> </name>
										<IsTimeVarying>false</IsTimeVarying>
										<ParameterControlType>4</ParameterControlType>
										<LowerBound>false</LowerBound>
										<UpperBound>true</UpperBound>
										<value>-91445760000000000,true,0,0,0,0,0,0</value>
									</parameter>
									<parameter authoringApp="PremierePro">
										<parameterid>47</parameterid>
										<name> </name>
										<hash>0b5436c4-bae0-bb64-a2f6-c8c40000006c</hash>
									</parameter>
									<parameter authoringApp="PremierePro">
										<parameterid>50</parameterid>
										<name> </name>
										<IsTimeVarying>false</IsTimeVarying>
										<ParameterControlType>4</ParameterControlType>
										<LowerBound>false</LowerBound>
										<UpperBound>true</UpperBound>
										<value>-91445760000000000,true,0,0,0,0,0,0</value>
									</parameter>
									<parameter authoringApp="PremierePro">
										<parameterid>51</parameterid>
										<name>Amount</name>
										<IsTimeVarying>false</IsTimeVarying>
										<ParameterControlType>8</ParameterControlType>
										<LowerBound>-5</LowerBound>
										<UpperBound>5</UpperBound>
										<LowerUIBound>-3</LowerUIBound>
										<UpperUIBound>3</UpperUIBound>
										<value>-91445760000000000,0.,0,0,0,0,0,0</value>
									</parameter>
									<parameter authoringApp="PremierePro">
										<parameterid>52</parameterid>
										<name>Midpoint</name>
										<IsTimeVarying>false</IsTimeVarying>
										<ParameterControlType>8</ParameterControlType>
										<LowerBound>0</LowerBound>
										<UpperBound>100</UpperBound>
										<value>-91445760000000000,50.,0,0,0,0,0,0</value>
									</parameter>
									<parameter authoringApp="PremierePro">
										<parameterid>53</parameterid>
										<name>Roundness</name>
										<IsTimeVarying>false</IsTimeVarying>
										<ParameterControlType>8</ParameterControlType>
										<LowerBound>-100</LowerBound>
										<UpperBound>100</UpperBound>
										<value>-91445760000000000,0.,0,0,0,0,0,0</value>
									</parameter>
									<parameter authoringApp="PremierePro">
										<parameterid>54</parameterid>
										<name>Feather</name>
										<IsTimeVarying>false</IsTimeVarying>
										<ParameterControlType>8</ParameterControlType>
										<LowerBound>0</LowerBound>
										<UpperBound>100</UpperBound>
										<value>-91445760000000000,50.,0,0,0,0,0,0</value>
									</parameter>
								</effect>
							</filter>
						<link>
							<linkclipref>clipitem-130</linkclipref>
							<mediatype>video</mediatype>
							<trackindex>1</trackindex>
							<clipindex>139</clipindex>
						</link>
						<link>
							<linkclipref>clipitem-559</linkclipref>
							<mediatype>audio</mediatype>
							<trackindex>1</trackindex>
							<clipindex>69</clipindex>
							<groupindex>1</groupindex>
						</link>
						<link>
							<linkclipref>clipitem-641</linkclipref>
							<mediatype>audio</mediatype>
							<trackindex>3</trackindex>
							<clipindex>53</clipindex>
							<groupindex>1</groupindex>
						</link>
						<logginginfo>
							<description></description>
							<scene></scene>
							<shottake></shottake>
							<lognote></lognote>
						</logginginfo>
						<labels>
							<label2>Caribbean</label2>
						</labels>
					</clipitem>
					<clipitem id="clipitem-131">
						<masterclipid>masterclip-91</masterclipid>
						<name>Aashild-august-Clip0236.MXF</name>
						<enabled>TRUE</enabled>
						<duration>528</duration>
						<rate>
							<timebase>25</timebase>
							<ntsc>FALSE</ntsc>
						</rate>
						<start>34662</start>
						<end>34712</end>
						<in>78</in>
						<out>129</out>
						<pproTicksIn>792529920000</pproTicksIn>
						<pproTicksOut>1310722560000</pproTicksOut>
						<alphatype>none</alphatype>
						<pixelaspectratio>square</pixelaspectratio>
						<anamorphic>FALSE</anamorphic>
						<file id="file-91">
							<name>Aashild-august-Clip0236.MXF</name>
							<pathurl>file://localhost/Volumes/Vaagen/Prosjekter/DVNA200216_OAO_Naturforskere_010118_OAO/Ra%cc%8astoff/A%cc%8ashild%20Pedersen/Svalbard%20august/Fs5/Aashild-august-Clip0236.MXF</pathurl>
							<rate>
								<timebase>50</timebase>
								<ntsc>FALSE</ntsc>
							</rate>
							<duration>1056</duration>
							<timecode>
								<rate>
									<timebase>50</timebase>
									<ntsc>FALSE</ntsc>
								</rate>
								<string>02:27:30:12</string>
								<frame>442512</frame>
								<displayformat>NDF</displayformat>
								<reel>
									<name></name>
								</reel>
							</timecode>
							<media>
								<video>
									<samplecharacteristics>
										<rate>
											<timebase>50</timebase>
											<ntsc>FALSE</ntsc>
										</rate>
										<width>1920</width>
										<height>1080</height>
										<anamorphic>FALSE</anamorphic>
										<pixelaspectratio>square</pixelaspectratio>
										<fielddominance>none</fielddominance>
									</samplecharacteristics>
								</video>
								<audio>
									<samplecharacteristics>
										<depth>16</depth>
										<samplerate>48000</samplerate>
									</samplecharacteristics>
									<channelcount>4</channelcount>
								</audio>
							</media>
						</file>
							<filter>
								<effect>
									<name></name>
									<effectid>Lumetri</effectid>
									<effecttype>filter</effecttype>
									<mediatype>video</mediatype>
									<parameter authoringApp="PremierePro">
										<parameterid>1</parameterid>
										<name>File Path</name>
										<hash>63866a15-9327-e4cb-ff31-c9ea0000000e</hash>
									</parameter>
									<parameter authoringApp="PremierePro">
										<parameterid>3</parameterid>
										<name> </name>
										<IsTimeVarying>false</IsTimeVarying>
										<ParameterControlType>4</ParameterControlType>
										<LowerBound>false</LowerBound>
										<UpperBound>true</UpperBound>
										<value>-91445760000000000,true,0,0,0,0,0,0</value>
									</parameter>
									<parameter authoringApp="PremierePro">
										<parameterid>4</parameterid>
										<name> </name>
										<hash>63866a15-9327-e4cb-ff31-c9ea0000000e</hash>
									</parameter>
									<parameter authoringApp="PremierePro">
										<parameterid>5</parameterid>
										<name>Input LUT</name>
										<IsTimeVarying>false</IsTimeVarying>
										<ParameterControlType>7</ParameterControlType>
										<LowerBound>0</LowerBound>
										<UpperBound>998</UpperBound>
										<value>-91445760000000000,0,0,0,0,0,0,0</value>
									</parameter>
									<parameter authoringApp="PremierePro">
										<parameterid>7</parameterid>
										<name>Temperature</name>
										<IsTimeVarying>false</IsTimeVarying>
										<ParameterControlType>8</ParameterControlType>
										<LowerBound>-150</LowerBound>
										<UpperBound>150</UpperBound>
										<LowerUIBound>-100</LowerUIBound>
										<UpperUIBound>100</UpperUIBound>
										<value>-91445760000000000,0.,0,0,0,0,0,0</value>
									</parameter>
									<parameter authoringApp="PremierePro">
										<parameterid>8</parameterid>
										<name>Tint</name>
										<IsTimeVarying>false</IsTimeVarying>
										<ParameterControlType>8</ParameterControlType>
										<LowerBound>-150</LowerBound>
										<UpperBound>150</UpperBound>
										<LowerUIBound>-100</LowerUIBound>
										<UpperUIBound>100</UpperUIBound>
										<value>-91445760000000000,0.,0,0,0,0,0,0</value>
									</parameter>
									<parameter authoringApp="PremierePro">
										<parameterid>11</parameterid>
										<name>Exposure</name>
										<IsTimeVarying>false</IsTimeVarying>
										<ParameterControlType>8</ParameterControlType>
										<LowerBound>-7</LowerBound>
										<UpperBound>7</UpperBound>
										<LowerUIBound>-5</LowerUIBound>
										<UpperUIBound>5</UpperUIBound>
										<value>-91445760000000000,0.60000002384185791015625,0,0,0,0,0,0</value>
									</parameter>
									<parameter authoringApp="PremierePro">
										<parameterid>12</parameterid>
										<name>Contrast</name>
										<IsTimeVarying>false</IsTimeVarying>
										<ParameterControlType>8</ParameterControlType>
										<LowerBound>-150</LowerBound>
										<UpperBound>150</UpperBound>
										<LowerUIBound>-100</LowerUIBound>
										<UpperUIBound>100</UpperUIBound>
										<value>-91445760000000000,59.975616455078125,0,0,0,0,0,0</value>
									</parameter>
									<parameter authoringApp="PremierePro">
										<parameterid>13</parameterid>
										<name>Highlights</name>
										<IsTimeVarying>false</IsTimeVarying>
										<ParameterControlType>8</ParameterControlType>
										<LowerBound>-150</LowerBound>
										<UpperBound>150</UpperBound>
										<LowerUIBound>-100</LowerUIBound>
										<UpperUIBound>100</UpperUIBound>
										<value>-91445760000000000,-51.,0,0,0,0,0,0</value>
									</parameter>
									<parameter authoringApp="PremierePro">
										<parameterid>14</parameterid>
										<name>Shadows</name>
										<IsTimeVarying>false</IsTimeVarying>
										<ParameterControlType>8</ParameterControlType>
										<LowerBound>-150</LowerBound>
										<UpperBound>150</UpperBound>
										<LowerUIBound>-100</LowerUIBound>
										<UpperUIBound>100</UpperUIBound>
										<value>-91445760000000000,-9.,0,0,0,0,0,0</value>
									</parameter>
									<parameter authoringApp="PremierePro">
										<parameterid>15</parameterid>
										<name>Whites</name>
										<IsTimeVarying>false</IsTimeVarying>
										<ParameterControlType>8</ParameterControlType>
										<LowerBound>-150</LowerBound>
										<UpperBound>150</UpperBound>
										<LowerUIBound>-100</LowerUIBound>
										<UpperUIBound>100</UpperUIBound>
										<value>-91445760000000000,-150.,0,0,0,0,0,0</value>
									</parameter>
									<parameter authoringApp="PremierePro">
										<parameterid>16</parameterid>
										<name>Blacks</name>
										<IsTimeVarying>false</IsTimeVarying>
										<ParameterControlType>8</ParameterControlType>
										<LowerBound>-150</LowerBound>
										<UpperBound>150</UpperBound>
										<LowerUIBound>-100</LowerUIBound>
										<UpperUIBound>100</UpperUIBound>
										<value>-91445760000000000,-82.95122528076171875,0,0,0,0,0,0</value>
									</parameter>
									<parameter authoringApp="PremierePro">
										<parameterid>20</parameterid>
										<name>Saturation</name>
										<IsTimeVarying>false</IsTimeVarying>
										<ParameterControlType>8</ParameterControlType>
										<LowerBound>0</LowerBound>
										<UpperBound>300</UpperBound>
										<UpperUIBound>200</UpperUIBound>
										<value>-91445760000000000,190.,0,0,0,0,0,0</value>
									</parameter>
									<parameter authoringApp="PremierePro">
										<parameterid>23</parameterid>
										<name> </name>
										<IsTimeVarying>false</IsTimeVarying>
										<ParameterControlType>4</ParameterControlType>
										<LowerBound>false</LowerBound>
										<UpperBound>true</UpperBound>
										<value>-91445760000000000,true,0,0,0,0,0,0</value>
									</parameter>
									<parameter authoringApp="PremierePro">
										<parameterid>24</parameterid>
										<name> </name>
										<hash>63866a15-9327-e4cb-ff31-c9ea0000000e</hash>
									</parameter>
									<parameter authoringApp="PremierePro">
										<parameterid>25</parameterid>
										<name>Look</name>
										<IsTimeVarying>false</IsTimeVarying>
										<ParameterControlType>7</ParameterControlType>
										<LowerBound>0</LowerBound>
										<UpperBound>998</UpperBound>
										<value>-91445760000000000,0,0,0,0,0,0,0</value>
									</parameter>
									<parameter authoringApp="PremierePro">
										<parameterid>26</parameterid>
										<name>Intensity</name>
										<IsTimeVarying>false</IsTimeVarying>
										<ParameterControlType>8</ParameterControlType>
										<LowerBound>0</LowerBound>
										<UpperBound>200</UpperBound>
										<value>-91445760000000000,100.,0,0,0,0,0,0</value>
									</parameter>
									<parameter authoringApp="PremierePro">
										<parameterid>28</parameterid>
										<name>Faded Film</name>
										<IsTimeVarying>false</IsTimeVarying>
										<ParameterControlType>8</ParameterControlType>
										<LowerBound>0</LowerBound>
										<UpperBound>150</UpperBound>
										<UpperUIBound>100</UpperUIBound>
										<value>-91445760000000000,0.,0,0,0,0,0,0</value>
									</parameter>
									<parameter authoringApp="PremierePro">
										<parameterid>29</parameterid>
										<name>Sharpen</name>
										<IsTimeVarying>false</IsTimeVarying>
										<ParameterControlType>8</ParameterControlType>
										<LowerBound>-100</LowerBound>
										<UpperBound>100</UpperBound>
										<value>-91445760000000000,0.,0,0,0,0,0,0</value>
									</parameter>
									<parameter authoringApp="PremierePro">
										<parameterid>30</parameterid>
										<name>Vibrance</name>
										<IsTimeVarying>false</IsTimeVarying>
										<ParameterControlType>8</ParameterControlType>
										<LowerBound>-100</LowerBound>
										<UpperBound>100</UpperBound>
										<value>-91445760000000000,0.,0,0,0,0,0,0</value>
									</parameter>
									<parameter authoringApp="PremierePro">
										<parameterid>31</parameterid>
										<name>Saturation</name>
										<IsTimeVarying>false</IsTimeVarying>
										<ParameterControlType>8</ParameterControlType>
										<LowerBound>0</LowerBound>
										<UpperBound>300</UpperBound>
										<UpperUIBound>200</UpperUIBound>
										<value>-91445760000000000,100.,0,0,0,0,0,0</value>
									</parameter>
									<parameter authoringApp="PremierePro">
										<parameterid>32</parameterid>
										<name></name>
										<hash>49d2fca5-ddd1-a393-0544-f6d80000002c</hash>
									</parameter>
									<parameter authoringApp="PremierePro">
										<parameterid>33</parameterid>
										<name>Tint Balance</name>
										<IsTimeVarying>false</IsTimeVarying>
										<ParameterControlType>8</ParameterControlType>
										<LowerBound>-150</LowerBound>
										<UpperBound>150</UpperBound>
										<LowerUIBound>-100</LowerUIBound>
										<UpperUIBound>100</UpperUIBound>
										<value>-91445760000000000,0.,0,0,0,0,0,0</value>
									</parameter>
									<parameter authoringApp="PremierePro">
										<parameterid>37</parameterid>
										<name> </name>
										<IsTimeVarying>false</IsTimeVarying>
										<ParameterControlType>4</ParameterControlType>
										<LowerBound>false</LowerBound>
										<UpperBound>true</UpperBound>
										<value>-91445760000000000,true,0,0,0,0,0,0</value>
									</parameter>
									<parameter authoringApp="PremierePro">
										<parameterid>39</parameterid>
										<name> </name>
										<hash>261f3840-e8cf-a8cd-fa5e-bac10000082c</hash>
									</parameter>
									<parameter authoringApp="PremierePro">
										<parameterid>42</parameterid>
										<name> </name>
										<hash>ccfaa4df-d630-7661-76dd-3e4900000214</hash>
									</parameter>
									<parameter authoringApp="PremierePro">
										<parameterid>46</parameterid>
										<name> </name>
										<IsTimeVarying>false</IsTimeVarying>
										<ParameterControlType>4</ParameterControlType>
										<LowerBound>false</LowerBound>
										<UpperBound>true</UpperBound>
										<value>-91445760000000000,true,0,0,0,0,0,0</value>
									</parameter>
									<parameter authoringApp="PremierePro">
										<parameterid>47</parameterid>
										<name> </name>
										<hash>0b5436c4-bae0-bb64-a2f6-c8c40000006c</hash>
									</parameter>
									<parameter authoringApp="PremierePro">
										<parameterid>50</parameterid>
										<name> </name>
										<IsTimeVarying>false</IsTimeVarying>
										<ParameterControlType>4</ParameterControlType>
										<LowerBound>false</LowerBound>
										<UpperBound>true</UpperBound>
										<value>-91445760000000000,true,0,0,0,0,0,0</value>
									</parameter>
									<parameter authoringApp="PremierePro">
										<parameterid>51</parameterid>
										<name>Amount</name>
										<IsTimeVarying>false</IsTimeVarying>
										<ParameterControlType>8</ParameterControlType>
										<LowerBound>-5</LowerBound>
										<UpperBound>5</UpperBound>
										<LowerUIBound>-3</LowerUIBound>
										<UpperUIBound>3</UpperUIBound>
										<value>-91445760000000000,0.,0,0,0,0,0,0</value>
									</parameter>
									<parameter authoringApp="PremierePro">
										<parameterid>52</parameterid>
										<name>Midpoint</name>
										<IsTimeVarying>false</IsTimeVarying>
										<ParameterControlType>8</ParameterControlType>
										<LowerBound>0</LowerBound>
										<UpperBound>100</UpperBound>
										<value>-91445760000000000,50.,0,0,0,0,0,0</value>
									</parameter>
									<parameter authoringApp="PremierePro">
										<parameterid>53</parameterid>
										<name>Roundness</name>
										<IsTimeVarying>false</IsTimeVarying>
										<ParameterControlType>8</ParameterControlType>
										<LowerBound>-100</LowerBound>
										<UpperBound>100</UpperBound>
										<value>-91445760000000000,0.,0,0,0,0,0,0</value>
									</parameter>
									<parameter authoringApp="PremierePro">
										<parameterid>54</parameterid>
										<name>Feather</name>
										<IsTimeVarying>false</IsTimeVarying>
										<ParameterControlType>8</ParameterControlType>
										<LowerBound>0</LowerBound>
										<UpperBound>100</UpperBound>
										<value>-91445760000000000,50.,0,0,0,0,0,0</value>
									</parameter>
								</effect>
							</filter>
						<link>
							<linkclipref>clipitem-131</linkclipref>
							<mediatype>video</mediatype>
							<trackindex>1</trackindex>
							<clipindex>140</clipindex>
						</link>
						<link>
							<linkclipref>clipitem-560</linkclipref>
							<mediatype>audio</mediatype>
							<trackindex>1</trackindex>
							<clipindex>70</clipindex>
							<groupindex>1</groupindex>
						</link>
						<link>
							<linkclipref>clipitem-642</linkclipref>
							<mediatype>audio</mediatype>
							<trackindex>3</trackindex>
							<clipindex>54</clipindex>
							<groupindex>1</groupindex>
						</link>
						<logginginfo>
							<description></description>
							<scene></scene>
							<shottake></shottake>
							<lognote></lognote>
						</logginginfo>
						<labels>
							<label2>Caribbean</label2>
						</labels>
					</clipitem>
					<clipitem id="clipitem-132">
						<masterclipid>masterclip-92</masterclipid>
						<name>Aashild-august-Clip0264.MXF</name>
						<enabled>TRUE</enabled>
						<duration>876</duration>
						<rate>
							<timebase>25</timebase>
							<ntsc>FALSE</ntsc>
						</rate>
						<start>34712</start>
						<end>34745</end>
						<in>25</in>
						<out>58</out>
						<pproTicksIn>254016000000</pproTicksIn>
						<pproTicksOut>589317120000</pproTicksOut>
						<alphatype>none</alphatype>
						<pixelaspectratio>square</pixelaspectratio>
						<anamorphic>FALSE</anamorphic>
						<file id="file-92">
							<name>Aashild-august-Clip0264.MXF</name>
							<pathurl>file://localhost/Volumes/Vaagen/Prosjekter/DVNA200216_OAO_Naturforskere_010118_OAO/Ra%cc%8astoff/A%cc%8ashild%20Pedersen/Svalbard%20august/Fs5/Aashild-august-Clip0264.MXF</pathurl>
							<rate>
								<timebase>50</timebase>
								<ntsc>FALSE</ntsc>
							</rate>
							<duration>1752</duration>
							<timecode>
								<rate>
									<timebase>50</timebase>
									<ntsc>FALSE</ntsc>
								</rate>
								<string>02:51:16:40</string>
								<frame>513840</frame>
								<displayformat>NDF</displayformat>
								<reel>
									<name></name>
								</reel>
							</timecode>
							<media>
								<video>
									<samplecharacteristics>
										<rate>
											<timebase>50</timebase>
											<ntsc>FALSE</ntsc>
										</rate>
										<width>1920</width>
										<height>1080</height>
										<anamorphic>FALSE</anamorphic>
										<pixelaspectratio>square</pixelaspectratio>
										<fielddominance>none</fielddominance>
									</samplecharacteristics>
								</video>
								<audio>
									<samplecharacteristics>
										<depth>16</depth>
										<samplerate>48000</samplerate>
									</samplecharacteristics>
									<channelcount>4</channelcount>
								</audio>
							</media>
						</file>
							<filter>
								<effect>
									<name></name>
									<effectid>Lumetri</effectid>
									<effecttype>filter</effecttype>
									<mediatype>video</mediatype>
									<parameter authoringApp="PremierePro">
										<parameterid>1</parameterid>
										<name>File Path</name>
										<hash>63866a15-9327-e4cb-ff31-c9ea0000000e</hash>
									</parameter>
									<parameter authoringApp="PremierePro">
										<parameterid>3</parameterid>
										<name> </name>
										<IsTimeVarying>false</IsTimeVarying>
										<ParameterControlType>4</ParameterControlType>
										<LowerBound>false</LowerBound>
										<UpperBound>true</UpperBound>
										<value>-91445760000000000,true,0,0,0,0,0,0</value>
									</parameter>
									<parameter authoringApp="PremierePro">
										<parameterid>4</parameterid>
										<name> </name>
										<hash>63866a15-9327-e4cb-ff31-c9ea0000000e</hash>
									</parameter>
									<parameter authoringApp="PremierePro">
										<parameterid>5</parameterid>
										<name>Input LUT</name>
										<IsTimeVarying>false</IsTimeVarying>
										<ParameterControlType>7</ParameterControlType>
										<LowerBound>0</LowerBound>
										<UpperBound>998</UpperBound>
										<value>-91445760000000000,0,0,0,0,0,0,0</value>
									</parameter>
									<parameter authoringApp="PremierePro">
										<parameterid>7</parameterid>
										<name>Temperature</name>
										<IsTimeVarying>false</IsTimeVarying>
										<ParameterControlType>8</ParameterControlType>
										<LowerBound>-150</LowerBound>
										<UpperBound>150</UpperBound>
										<LowerUIBound>-100</LowerUIBound>
										<UpperUIBound>100</UpperUIBound>
										<value>-91445760000000000,0.,0,0,0,0,0,0</value>
									</parameter>
									<parameter authoringApp="PremierePro">
										<parameterid>8</parameterid>
										<name>Tint</name>
										<IsTimeVarying>false</IsTimeVarying>
										<ParameterControlType>8</ParameterControlType>
										<LowerBound>-150</LowerBound>
										<UpperBound>150</UpperBound>
										<LowerUIBound>-100</LowerUIBound>
										<UpperUIBound>100</UpperUIBound>
										<value>-91445760000000000,0.,0,0,0,0,0,0</value>
									</parameter>
									<parameter authoringApp="PremierePro">
										<parameterid>11</parameterid>
										<name>Exposure</name>
										<IsTimeVarying>false</IsTimeVarying>
										<ParameterControlType>8</ParameterControlType>
										<LowerBound>-7</LowerBound>
										<UpperBound>7</UpperBound>
										<LowerUIBound>-5</LowerUIBound>
										<UpperUIBound>5</UpperUIBound>
										<value>-91445760000000000,0.60000002384185791015625,0,0,0,0,0,0</value>
									</parameter>
									<parameter authoringApp="PremierePro">
										<parameterid>12</parameterid>
										<name>Contrast</name>
										<IsTimeVarying>false</IsTimeVarying>
										<ParameterControlType>8</ParameterControlType>
										<LowerBound>-150</LowerBound>
										<UpperBound>150</UpperBound>
										<LowerUIBound>-100</LowerUIBound>
										<UpperUIBound>100</UpperUIBound>
										<value>-91445760000000000,59.975616455078125,0,0,0,0,0,0</value>
									</parameter>
									<parameter authoringApp="PremierePro">
										<parameterid>13</parameterid>
										<name>Highlights</name>
										<IsTimeVarying>false</IsTimeVarying>
										<ParameterControlType>8</ParameterControlType>
										<LowerBound>-150</LowerBound>
										<UpperBound>150</UpperBound>
										<LowerUIBound>-100</LowerUIBound>
										<UpperUIBound>100</UpperUIBound>
										<value>-91445760000000000,-51.,0,0,0,0,0,0</value>
									</parameter>
									<parameter authoringApp="PremierePro">
										<parameterid>14</parameterid>
										<name>Shadows</name>
										<IsTimeVarying>false</IsTimeVarying>
										<ParameterControlType>8</ParameterControlType>
										<LowerBound>-150</LowerBound>
										<UpperBound>150</UpperBound>
										<LowerUIBound>-100</LowerUIBound>
										<UpperUIBound>100</UpperUIBound>
										<value>-91445760000000000,-9.,0,0,0,0,0,0</value>
									</parameter>
									<parameter authoringApp="PremierePro">
										<parameterid>15</parameterid>
										<name>Whites</name>
										<IsTimeVarying>false</IsTimeVarying>
										<ParameterControlType>8</ParameterControlType>
										<LowerBound>-150</LowerBound>
										<UpperBound>150</UpperBound>
										<LowerUIBound>-100</LowerUIBound>
										<UpperUIBound>100</UpperUIBound>
										<value>-91445760000000000,-150.,0,0,0,0,0,0</value>
									</parameter>
									<parameter authoringApp="PremierePro">
										<parameterid>16</parameterid>
										<name>Blacks</name>
										<IsTimeVarying>false</IsTimeVarying>
										<ParameterControlType>8</ParameterControlType>
										<LowerBound>-150</LowerBound>
										<UpperBound>150</UpperBound>
										<LowerUIBound>-100</LowerUIBound>
										<UpperUIBound>100</UpperUIBound>
										<value>-91445760000000000,-82.95122528076171875,0,0,0,0,0,0</value>
									</parameter>
									<parameter authoringApp="PremierePro">
										<parameterid>20</parameterid>
										<name>Saturation</name>
										<IsTimeVarying>false</IsTimeVarying>
										<ParameterControlType>8</ParameterControlType>
										<LowerBound>0</LowerBound>
										<UpperBound>300</UpperBound>
										<UpperUIBound>200</UpperUIBound>
										<value>-91445760000000000,190.,0,0,0,0,0,0</value>
									</parameter>
									<parameter authoringApp="PremierePro">
										<parameterid>23</parameterid>
										<name> </name>
										<IsTimeVarying>false</IsTimeVarying>
										<ParameterControlType>4</ParameterControlType>
										<LowerBound>false</LowerBound>
										<UpperBound>true</UpperBound>
										<value>-91445760000000000,true,0,0,0,0,0,0</value>
									</parameter>
									<parameter authoringApp="PremierePro">
										<parameterid>24</parameterid>
										<name> </name>
										<hash>63866a15-9327-e4cb-ff31-c9ea0000000e</hash>
									</parameter>
									<parameter authoringApp="PremierePro">
										<parameterid>25</parameterid>
										<name>Look</name>
										<IsTimeVarying>false</IsTimeVarying>
										<ParameterControlType>7</ParameterControlType>
										<LowerBound>0</LowerBound>
										<UpperBound>998</UpperBound>
										<value>-91445760000000000,0,0,0,0,0,0,0</value>
									</parameter>
									<parameter authoringApp="PremierePro">
										<parameterid>26</parameterid>
										<name>Intensity</name>
										<IsTimeVarying>false</IsTimeVarying>
										<ParameterControlType>8</ParameterControlType>
										<LowerBound>0</LowerBound>
										<UpperBound>200</UpperBound>
										<value>-91445760000000000,100.,0,0,0,0,0,0</value>
									</parameter>
									<parameter authoringApp="PremierePro">
										<parameterid>28</parameterid>
										<name>Faded Film</name>
										<IsTimeVarying>false</IsTimeVarying>
										<ParameterControlType>8</ParameterControlType>
										<LowerBound>0</LowerBound>
										<UpperBound>150</UpperBound>
										<UpperUIBound>100</UpperUIBound>
										<value>-91445760000000000,0.,0,0,0,0,0,0</value>
									</parameter>
									<parameter authoringApp="PremierePro">
										<parameterid>29</parameterid>
										<name>Sharpen</name>
										<IsTimeVarying>false</IsTimeVarying>
										<ParameterControlType>8</ParameterControlType>
										<LowerBound>-100</LowerBound>
										<UpperBound>100</UpperBound>
										<value>-91445760000000000,0.,0,0,0,0,0,0</value>
									</parameter>
									<parameter authoringApp="PremierePro">
										<parameterid>30</parameterid>
										<name>Vibrance</name>
										<IsTimeVarying>false</IsTimeVarying>
										<ParameterControlType>8</ParameterControlType>
										<LowerBound>-100</LowerBound>
										<UpperBound>100</UpperBound>
										<value>-91445760000000000,0.,0,0,0,0,0,0</value>
									</parameter>
									<parameter authoringApp="PremierePro">
										<parameterid>31</parameterid>
										<name>Saturation</name>
										<IsTimeVarying>false</IsTimeVarying>
										<ParameterControlType>8</ParameterControlType>
										<LowerBound>0</LowerBound>
										<UpperBound>300</UpperBound>
										<UpperUIBound>200</UpperUIBound>
										<value>-91445760000000000,100.,0,0,0,0,0,0</value>
									</parameter>
									<parameter authoringApp="PremierePro">
										<parameterid>32</parameterid>
										<name></name>
										<hash>49d2fca5-ddd1-a393-0544-f6d80000002c</hash>
									</parameter>
									<parameter authoringApp="PremierePro">
										<parameterid>33</parameterid>
										<name>Tint Balance</name>
										<IsTimeVarying>false</IsTimeVarying>
										<ParameterControlType>8</ParameterControlType>
										<LowerBound>-150</LowerBound>
										<UpperBound>150</UpperBound>
										<LowerUIBound>-100</LowerUIBound>
										<UpperUIBound>100</UpperUIBound>
										<value>-91445760000000000,0.,0,0,0,0,0,0</value>
									</parameter>
									<parameter authoringApp="PremierePro">
										<parameterid>37</parameterid>
										<name> </name>
										<IsTimeVarying>false</IsTimeVarying>
										<ParameterControlType>4</ParameterControlType>
										<LowerBound>false</LowerBound>
										<UpperBound>true</UpperBound>
										<value>-91445760000000000,true,0,0,0,0,0,0</value>
									</parameter>
									<parameter authoringApp="PremierePro">
										<parameterid>39</parameterid>
										<name> </name>
										<hash>261f3840-e8cf-a8cd-fa5e-bac10000082c</hash>
									</parameter>
									<parameter authoringApp="PremierePro">
										<parameterid>42</parameterid>
										<name> </name>
										<hash>ccfaa4df-d630-7661-76dd-3e4900000214</hash>
									</parameter>
									<parameter authoringApp="PremierePro">
										<parameterid>46</parameterid>
										<name> </name>
										<IsTimeVarying>false</IsTimeVarying>
										<ParameterControlType>4</ParameterControlType>
										<LowerBound>false</LowerBound>
										<UpperBound>true</UpperBound>
										<value>-91445760000000000,true,0,0,0,0,0,0</value>
									</parameter>
									<parameter authoringApp="PremierePro">
										<parameterid>47</parameterid>
										<name> </name>
										<hash>0b5436c4-bae0-bb64-a2f6-c8c40000006c</hash>
									</parameter>
									<parameter authoringApp="PremierePro">
										<parameterid>50</parameterid>
										<name> </name>
										<IsTimeVarying>false</IsTimeVarying>
										<ParameterControlType>4</ParameterControlType>
										<LowerBound>false</LowerBound>
										<UpperBound>true</UpperBound>
										<value>-91445760000000000,true,0,0,0,0,0,0</value>
									</parameter>
									<parameter authoringApp="PremierePro">
										<parameterid>51</parameterid>
										<name>Amount</name>
										<IsTimeVarying>false</IsTimeVarying>
										<ParameterControlType>8</ParameterControlType>
										<LowerBound>-5</LowerBound>
										<UpperBound>5</UpperBound>
										<LowerUIBound>-3</LowerUIBound>
										<UpperUIBound>3</UpperUIBound>
										<value>-91445760000000000,0.,0,0,0,0,0,0</value>
									</parameter>
									<parameter authoringApp="PremierePro">
										<parameterid>52</parameterid>
										<name>Midpoint</name>
										<IsTimeVarying>false</IsTimeVarying>
										<ParameterControlType>8</ParameterControlType>
										<LowerBound>0</LowerBound>
										<UpperBound>100</UpperBound>
										<value>-91445760000000000,50.,0,0,0,0,0,0</value>
									</parameter>
									<parameter authoringApp="PremierePro">
										<parameterid>53</parameterid>
										<name>Roundness</name>
										<IsTimeVarying>false</IsTimeVarying>
										<ParameterControlType>8</ParameterControlType>
										<LowerBound>-100</LowerBound>
										<UpperBound>100</UpperBound>
										<value>-91445760000000000,0.,0,0,0,0,0,0</value>
									</parameter>
									<parameter authoringApp="PremierePro">
										<parameterid>54</parameterid>
										<name>Feather</name>
										<IsTimeVarying>false</IsTimeVarying>
										<ParameterControlType>8</ParameterControlType>
										<LowerBound>0</LowerBound>
										<UpperBound>100</UpperBound>
										<value>-91445760000000000,50.,0,0,0,0,0,0</value>
									</parameter>
								</effect>
							</filter>
						<link>
							<linkclipref>clipitem-132</linkclipref>
							<mediatype>video</mediatype>
							<trackindex>1</trackindex>
							<clipindex>141</clipindex>
						</link>
						<link>
							<linkclipref>clipitem-561</linkclipref>
							<mediatype>audio</mediatype>
							<trackindex>1</trackindex>
							<clipindex>71</clipindex>
							<groupindex>1</groupindex>
						</link>
						<link>
							<linkclipref>clipitem-643</linkclipref>
							<mediatype>audio</mediatype>
							<trackindex>3</trackindex>
							<clipindex>55</clipindex>
							<groupindex>1</groupindex>
						</link>
						<logginginfo>
							<description></description>
							<scene></scene>
							<shottake></shottake>
							<lognote></lognote>
						</logginginfo>
						<labels>
							<label2>Caribbean</label2>
						</labels>
					</clipitem>
					<clipitem id="clipitem-133">
						<masterclipid>masterclip-93</masterclipid>
						<name>Aashild-august-Clip0760.MXF</name>
						<enabled>TRUE</enabled>
						<duration>1128</duration>
						<rate>
							<timebase>25</timebase>
							<ntsc>FALSE</ntsc>
						</rate>
						<start>35145</start>
						<end>35219</end>
						<in>403</in>
						<out>477</out>
						<pproTicksIn>4094737920000</pproTicksIn>
						<pproTicksOut>4846625280000</pproTicksOut>
						<alphatype>none</alphatype>
						<pixelaspectratio>square</pixelaspectratio>
						<anamorphic>FALSE</anamorphic>
						<file id="file-93">
							<name>Aashild-august-Clip0760.MXF</name>
							<pathurl>file://localhost/Volumes/Vaagen/Prosjekter/DVNA200216_OAO_Naturforskere_010118_OAO/Ra%cc%8astoff/A%cc%8ashild%20Pedersen/Svalbard%20august/Fs5/Aashild-august-Clip0760.MXF</pathurl>
							<rate>
								<timebase>50</timebase>
								<ntsc>FALSE</ntsc>
							</rate>
							<duration>2256</duration>
							<timecode>
								<rate>
									<timebase>50</timebase>
									<ntsc>FALSE</ntsc>
								</rate>
								<string>08:59:26:20</string>
								<frame>1618320</frame>
								<displayformat>NDF</displayformat>
								<reel>
									<name></name>
								</reel>
							</timecode>
							<media>
								<video>
									<samplecharacteristics>
										<rate>
											<timebase>50</timebase>
											<ntsc>FALSE</ntsc>
										</rate>
										<width>1920</width>
										<height>1080</height>
										<anamorphic>FALSE</anamorphic>
										<pixelaspectratio>square</pixelaspectratio>
										<fielddominance>none</fielddominance>
									</samplecharacteristics>
								</video>
								<audio>
									<samplecharacteristics>
										<depth>16</depth>
										<samplerate>48000</samplerate>
									</samplecharacteristics>
									<channelcount>4</channelcount>
								</audio>
							</media>
						</file>
							<filter>
								<effect>
									<name></name>
									<effectid>Lumetri</effectid>
									<effecttype>filter</effecttype>
									<mediatype>video</mediatype>
									<parameter authoringApp="PremierePro">
										<parameterid>1</parameterid>
										<name>File Path</name>
										<hash>63866a15-9327-e4cb-ff31-c9ea0000000e</hash>
									</parameter>
									<parameter authoringApp="PremierePro">
										<parameterid>3</parameterid>
										<name> </name>
										<IsTimeVarying>false</IsTimeVarying>
										<ParameterControlType>4</ParameterControlType>
										<LowerBound>false</LowerBound>
										<UpperBound>true</UpperBound>
										<value>-91445760000000000,true,0,0,0,0,0,0</value>
									</parameter>
									<parameter authoringApp="PremierePro">
										<parameterid>4</parameterid>
										<name> </name>
										<hash>63866a15-9327-e4cb-ff31-c9ea0000000e</hash>
									</parameter>
									<parameter authoringApp="PremierePro">
										<parameterid>5</parameterid>
										<name>Input LUT</name>
										<IsTimeVarying>false</IsTimeVarying>
										<ParameterControlType>7</ParameterControlType>
										<LowerBound>0</LowerBound>
										<UpperBound>998</UpperBound>
										<value>-91445760000000000,0,0,0,0,0,0,0</value>
									</parameter>
									<parameter authoringApp="PremierePro">
										<parameterid>7</parameterid>
										<name>Temperature</name>
										<IsTimeVarying>false</IsTimeVarying>
										<ParameterControlType>8</ParameterControlType>
										<LowerBound>-150</LowerBound>
										<UpperBound>150</UpperBound>
										<LowerUIBound>-100</LowerUIBound>
										<UpperUIBound>100</UpperUIBound>
										<value>-91445760000000000,0.,0,0,0,0,0,0</value>
									</parameter>
									<parameter authoringApp="PremierePro">
										<parameterid>8</parameterid>
										<name>Tint</name>
										<IsTimeVarying>false</IsTimeVarying>
										<ParameterControlType>8</ParameterControlType>
										<LowerBound>-150</LowerBound>
										<UpperBound>150</UpperBound>
										<LowerUIBound>-100</LowerUIBound>
										<UpperUIBound>100</UpperUIBound>
										<value>-91445760000000000,0.,0,0,0,0,0,0</value>
									</parameter>
									<parameter authoringApp="PremierePro">
										<parameterid>11</parameterid>
										<name>Exposure</name>
										<IsTimeVarying>false</IsTimeVarying>
										<ParameterControlType>8</ParameterControlType>
										<LowerBound>-7</LowerBound>
										<UpperBound>7</UpperBound>
										<LowerUIBound>-5</LowerUIBound>
										<UpperUIBound>5</UpperUIBound>
										<value>-91445760000000000,0.60000002384185791015625,0,0,0,0,0,0</value>
									</parameter>
									<parameter authoringApp="PremierePro">
										<parameterid>12</parameterid>
										<name>Contrast</name>
										<IsTimeVarying>false</IsTimeVarying>
										<ParameterControlType>8</ParameterControlType>
										<LowerBound>-150</LowerBound>
										<UpperBound>150</UpperBound>
										<LowerUIBound>-100</LowerUIBound>
										<UpperUIBound>100</UpperUIBound>
										<value>-91445760000000000,59.975616455078125,0,0,0,0,0,0</value>
									</parameter>
									<parameter authoringApp="PremierePro">
										<parameterid>13</parameterid>
										<name>Highlights</name>
										<IsTimeVarying>false</IsTimeVarying>
										<ParameterControlType>8</ParameterControlType>
										<LowerBound>-150</LowerBound>
										<UpperBound>150</UpperBound>
										<LowerUIBound>-100</LowerUIBound>
										<UpperUIBound>100</UpperUIBound>
										<value>-91445760000000000,-51.,0,0,0,0,0,0</value>
									</parameter>
									<parameter authoringApp="PremierePro">
										<parameterid>14</parameterid>
										<name>Shadows</name>
										<IsTimeVarying>false</IsTimeVarying>
										<ParameterControlType>8</ParameterControlType>
										<LowerBound>-150</LowerBound>
										<UpperBound>150</UpperBound>
										<LowerUIBound>-100</LowerUIBound>
										<UpperUIBound>100</UpperUIBound>
										<value>-91445760000000000,-9.,0,0,0,0,0,0</value>
									</parameter>
									<parameter authoringApp="PremierePro">
										<parameterid>15</parameterid>
										<name>Whites</name>
										<IsTimeVarying>false</IsTimeVarying>
										<ParameterControlType>8</ParameterControlType>
										<LowerBound>-150</LowerBound>
										<UpperBound>150</UpperBound>
										<LowerUIBound>-100</LowerUIBound>
										<UpperUIBound>100</UpperUIBound>
										<value>-91445760000000000,-150.,0,0,0,0,0,0</value>
									</parameter>
									<parameter authoringApp="PremierePro">
										<parameterid>16</parameterid>
										<name>Blacks</name>
										<IsTimeVarying>false</IsTimeVarying>
										<ParameterControlType>8</ParameterControlType>
										<LowerBound>-150</LowerBound>
										<UpperBound>150</UpperBound>
										<LowerUIBound>-100</LowerUIBound>
										<UpperUIBound>100</UpperUIBound>
										<value>-91445760000000000,-82.95122528076171875,0,0,0,0,0,0</value>
									</parameter>
									<parameter authoringApp="PremierePro">
										<parameterid>20</parameterid>
										<name>Saturation</name>
										<IsTimeVarying>false</IsTimeVarying>
										<ParameterControlType>8</ParameterControlType>
										<LowerBound>0</LowerBound>
										<UpperBound>300</UpperBound>
										<UpperUIBound>200</UpperUIBound>
										<value>-91445760000000000,190.,0,0,0,0,0,0</value>
									</parameter>
									<parameter authoringApp="PremierePro">
										<parameterid>23</parameterid>
										<name> </name>
										<IsTimeVarying>false</IsTimeVarying>
										<ParameterControlType>4</ParameterControlType>
										<LowerBound>false</LowerBound>
										<UpperBound>true</UpperBound>
										<value>-91445760000000000,true,0,0,0,0,0,0</value>
									</parameter>
									<parameter authoringApp="PremierePro">
										<parameterid>24</parameterid>
										<name> </name>
										<hash>63866a15-9327-e4cb-ff31-c9ea0000000e</hash>
									</parameter>
									<parameter authoringApp="PremierePro">
										<parameterid>25</parameterid>
										<name>Look</name>
										<IsTimeVarying>false</IsTimeVarying>
										<ParameterControlType>7</ParameterControlType>
										<LowerBound>0</LowerBound>
										<UpperBound>998</UpperBound>
										<value>-91445760000000000,0,0,0,0,0,0,0</value>
									</parameter>
									<parameter authoringApp="PremierePro">
										<parameterid>26</parameterid>
										<name>Intensity</name>
										<IsTimeVarying>false</IsTimeVarying>
										<ParameterControlType>8</ParameterControlType>
										<LowerBound>0</LowerBound>
										<UpperBound>200</UpperBound>
										<value>-91445760000000000,100.,0,0,0,0,0,0</value>
									</parameter>
									<parameter authoringApp="PremierePro">
										<parameterid>28</parameterid>
										<name>Faded Film</name>
										<IsTimeVarying>false</IsTimeVarying>
										<ParameterControlType>8</ParameterControlType>
										<LowerBound>0</LowerBound>
										<UpperBound>150</UpperBound>
										<UpperUIBound>100</UpperUIBound>
										<value>-91445760000000000,0.,0,0,0,0,0,0</value>
									</parameter>
									<parameter authoringApp="PremierePro">
										<parameterid>29</parameterid>
										<name>Sharpen</name>
										<IsTimeVarying>false</IsTimeVarying>
										<ParameterControlType>8</ParameterControlType>
										<LowerBound>-100</LowerBound>
										<UpperBound>100</UpperBound>
										<value>-91445760000000000,0.,0,0,0,0,0,0</value>
									</parameter>
									<parameter authoringApp="PremierePro">
										<parameterid>30</parameterid>
										<name>Vibrance</name>
										<IsTimeVarying>false</IsTimeVarying>
										<ParameterControlType>8</ParameterControlType>
										<LowerBound>-100</LowerBound>
										<UpperBound>100</UpperBound>
										<value>-91445760000000000,0.,0,0,0,0,0,0</value>
									</parameter>
									<parameter authoringApp="PremierePro">
										<parameterid>31</parameterid>
										<name>Saturation</name>
										<IsTimeVarying>false</IsTimeVarying>
										<ParameterControlType>8</ParameterControlType>
										<LowerBound>0</LowerBound>
										<UpperBound>300</UpperBound>
										<UpperUIBound>200</UpperUIBound>
										<value>-91445760000000000,100.,0,0,0,0,0,0</value>
									</parameter>
									<parameter authoringApp="PremierePro">
										<parameterid>32</parameterid>
										<name></name>
										<hash>49d2fca5-ddd1-a393-0544-f6d80000002c</hash>
									</parameter>
									<parameter authoringApp="PremierePro">
										<parameterid>33</parameterid>
										<name>Tint Balance</name>
										<IsTimeVarying>false</IsTimeVarying>
										<ParameterControlType>8</ParameterControlType>
										<LowerBound>-150</LowerBound>
										<UpperBound>150</UpperBound>
										<LowerUIBound>-100</LowerUIBound>
										<UpperUIBound>100</UpperUIBound>
										<value>-91445760000000000,0.,0,0,0,0,0,0</value>
									</parameter>
									<parameter authoringApp="PremierePro">
										<parameterid>37</parameterid>
										<name> </name>
										<IsTimeVarying>false</IsTimeVarying>
										<ParameterControlType>4</ParameterControlType>
										<LowerBound>false</LowerBound>
										<UpperBound>true</UpperBound>
										<value>-91445760000000000,true,0,0,0,0,0,0</value>
									</parameter>
									<parameter authoringApp="PremierePro">
										<parameterid>39</parameterid>
										<name> </name>
										<hash>261f3840-e8cf-a8cd-fa5e-bac10000082c</hash>
									</parameter>
									<parameter authoringApp="PremierePro">
										<parameterid>42</parameterid>
										<name> </name>
										<hash>ccfaa4df-d630-7661-76dd-3e4900000214</hash>
									</parameter>
									<parameter authoringApp="PremierePro">
										<parameterid>46</parameterid>
										<name> </name>
										<IsTimeVarying>false</IsTimeVarying>
										<ParameterControlType>4</ParameterControlType>
										<LowerBound>false</LowerBound>
										<UpperBound>true</UpperBound>
										<value>-91445760000000000,true,0,0,0,0,0,0</value>
									</parameter>
									<parameter authoringApp="PremierePro">
										<parameterid>47</parameterid>
										<name> </name>
										<hash>0b5436c4-bae0-bb64-a2f6-c8c40000006c</hash>
									</parameter>
									<parameter authoringApp="PremierePro">
										<parameterid>50</parameterid>
										<name> </name>
										<IsTimeVarying>false</IsTimeVarying>
										<ParameterControlType>4</ParameterControlType>
										<LowerBound>false</LowerBound>
										<UpperBound>true</UpperBound>
										<value>-91445760000000000,true,0,0,0,0,0,0</value>
									</parameter>
									<parameter authoringApp="PremierePro">
										<parameterid>51</parameterid>
										<name>Amount</name>
										<IsTimeVarying>false</IsTimeVarying>
										<ParameterControlType>8</ParameterControlType>
										<LowerBound>-5</LowerBound>
										<UpperBound>5</UpperBound>
										<LowerUIBound>-3</LowerUIBound>
										<UpperUIBound>3</UpperUIBound>
										<value>-91445760000000000,0.,0,0,0,0,0,0</value>
									</parameter>
									<parameter authoringApp="PremierePro">
										<parameterid>52</parameterid>
										<name>Midpoint</name>
										<IsTimeVarying>false</IsTimeVarying>
										<ParameterControlType>8</ParameterControlType>
										<LowerBound>0</LowerBound>
										<UpperBound>100</UpperBound>
										<value>-91445760000000000,50.,0,0,0,0,0,0</value>
									</parameter>
									<parameter authoringApp="PremierePro">
										<parameterid>53</parameterid>
										<name>Roundness</name>
										<IsTimeVarying>false</IsTimeVarying>
										<ParameterControlType>8</ParameterControlType>
										<LowerBound>-100</LowerBound>
										<UpperBound>100</UpperBound>
										<value>-91445760000000000,0.,0,0,0,0,0,0</value>
									</parameter>
									<parameter authoringApp="PremierePro">
										<parameterid>54</parameterid>
										<name>Feather</name>
										<IsTimeVarying>false</IsTimeVarying>
										<ParameterControlType>8</ParameterControlType>
										<LowerBound>0</LowerBound>
										<UpperBound>100</UpperBound>
										<value>-91445760000000000,50.,0,0,0,0,0,0</value>
									</parameter>
								</effect>
							</filter>
						<link>
							<linkclipref>clipitem-133</linkclipref>
							<mediatype>video</mediatype>
							<trackindex>1</trackindex>
							<clipindex>142</clipindex>
						</link>
						<link>
							<linkclipref>clipitem-564</linkclipref>
							<mediatype>audio</mediatype>
							<trackindex>1</trackindex>
							<clipindex>75</clipindex>
							<groupindex>1</groupindex>
						</link>
						<link>
							<linkclipref>clipitem-647</linkclipref>
							<mediatype>audio</mediatype>
							<trackindex>3</trackindex>
							<clipindex>60</clipindex>
							<groupindex>1</groupindex>
						</link>
						<logginginfo>
							<description></description>
							<scene></scene>
							<shottake></shottake>
							<lognote></lognote>
						</logginginfo>
						<labels>
							<label2>Caribbean</label2>
						</labels>
					</clipitem>
					<clipitem id="clipitem-134">
						<masterclipid>masterclip-93</masterclipid>
						<name>Aashild-august-Clip0760.MXF</name>
						<enabled>TRUE</enabled>
						<duration>1128</duration>
						<rate>
							<timebase>25</timebase>
							<ntsc>FALSE</ntsc>
						</rate>
						<start>35219</start>
						<end>35300</end>
						<in>668</in>
						<out>749</out>
						<pproTicksIn>6787307520000</pproTicksIn>
						<pproTicksOut>7610319360000</pproTicksOut>
						<alphatype>none</alphatype>
						<file id="file-93"/>
							<filter>
								<effect>
									<name></name>
									<effectid>Lumetri</effectid>
									<effecttype>filter</effecttype>
									<mediatype>video</mediatype>
									<parameter authoringApp="PremierePro">
										<parameterid>1</parameterid>
										<name>File Path</name>
										<hash>63866a15-9327-e4cb-ff31-c9ea0000000e</hash>
									</parameter>
									<parameter authoringApp="PremierePro">
										<parameterid>3</parameterid>
										<name> </name>
										<IsTimeVarying>false</IsTimeVarying>
										<ParameterControlType>4</ParameterControlType>
										<LowerBound>false</LowerBound>
										<UpperBound>true</UpperBound>
										<value>-91445760000000000,true,0,0,0,0,0,0</value>
									</parameter>
									<parameter authoringApp="PremierePro">
										<parameterid>4</parameterid>
										<name> </name>
										<hash>63866a15-9327-e4cb-ff31-c9ea0000000e</hash>
									</parameter>
									<parameter authoringApp="PremierePro">
										<parameterid>5</parameterid>
										<name>Input LUT</name>
										<IsTimeVarying>false</IsTimeVarying>
										<ParameterControlType>7</ParameterControlType>
										<LowerBound>0</LowerBound>
										<UpperBound>998</UpperBound>
										<value>-91445760000000000,0,0,0,0,0,0,0</value>
									</parameter>
									<parameter authoringApp="PremierePro">
										<parameterid>7</parameterid>
										<name>Temperature</name>
										<IsTimeVarying>false</IsTimeVarying>
										<ParameterControlType>8</ParameterControlType>
										<LowerBound>-150</LowerBound>
										<UpperBound>150</UpperBound>
										<LowerUIBound>-100</LowerUIBound>
										<UpperUIBound>100</UpperUIBound>
										<value>-91445760000000000,0.,0,0,0,0,0,0</value>
									</parameter>
									<parameter authoringApp="PremierePro">
										<parameterid>8</parameterid>
										<name>Tint</name>
										<IsTimeVarying>false</IsTimeVarying>
										<ParameterControlType>8</ParameterControlType>
										<LowerBound>-150</LowerBound>
										<UpperBound>150</UpperBound>
										<LowerUIBound>-100</LowerUIBound>
										<UpperUIBound>100</UpperUIBound>
										<value>-91445760000000000,0.,0,0,0,0,0,0</value>
									</parameter>
									<parameter authoringApp="PremierePro">
										<parameterid>11</parameterid>
										<name>Exposure</name>
										<IsTimeVarying>false</IsTimeVarying>
										<ParameterControlType>8</ParameterControlType>
										<LowerBound>-7</LowerBound>
										<UpperBound>7</UpperBound>
										<LowerUIBound>-5</LowerUIBound>
										<UpperUIBound>5</UpperUIBound>
										<value>-91445760000000000,0.60000002384185791015625,0,0,0,0,0,0</value>
									</parameter>
									<parameter authoringApp="PremierePro">
										<parameterid>12</parameterid>
										<name>Contrast</name>
										<IsTimeVarying>false</IsTimeVarying>
										<ParameterControlType>8</ParameterControlType>
										<LowerBound>-150</LowerBound>
										<UpperBound>150</UpperBound>
										<LowerUIBound>-100</LowerUIBound>
										<UpperUIBound>100</UpperUIBound>
										<value>-91445760000000000,59.975616455078125,0,0,0,0,0,0</value>
									</parameter>
									<parameter authoringApp="PremierePro">
										<parameterid>13</parameterid>
										<name>Highlights</name>
										<IsTimeVarying>false</IsTimeVarying>
										<ParameterControlType>8</ParameterControlType>
										<LowerBound>-150</LowerBound>
										<UpperBound>150</UpperBound>
										<LowerUIBound>-100</LowerUIBound>
										<UpperUIBound>100</UpperUIBound>
										<value>-91445760000000000,-51.,0,0,0,0,0,0</value>
									</parameter>
									<parameter authoringApp="PremierePro">
										<parameterid>14</parameterid>
										<name>Shadows</name>
										<IsTimeVarying>false</IsTimeVarying>
										<ParameterControlType>8</ParameterControlType>
										<LowerBound>-150</LowerBound>
										<UpperBound>150</UpperBound>
										<LowerUIBound>-100</LowerUIBound>
										<UpperUIBound>100</UpperUIBound>
										<value>-91445760000000000,-9.,0,0,0,0,0,0</value>
									</parameter>
									<parameter authoringApp="PremierePro">
										<parameterid>15</parameterid>
										<name>Whites</name>
										<IsTimeVarying>false</IsTimeVarying>
										<ParameterControlType>8</ParameterControlType>
										<LowerBound>-150</LowerBound>
										<UpperBound>150</UpperBound>
										<LowerUIBound>-100</LowerUIBound>
										<UpperUIBound>100</UpperUIBound>
										<value>-91445760000000000,-150.,0,0,0,0,0,0</value>
									</parameter>
									<parameter authoringApp="PremierePro">
										<parameterid>16</parameterid>
										<name>Blacks</name>
										<IsTimeVarying>false</IsTimeVarying>
										<ParameterControlType>8</ParameterControlType>
										<LowerBound>-150</LowerBound>
										<UpperBound>150</UpperBound>
										<LowerUIBound>-100</LowerUIBound>
										<UpperUIBound>100</UpperUIBound>
										<value>-91445760000000000,-82.95122528076171875,0,0,0,0,0,0</value>
									</parameter>
									<parameter authoringApp="PremierePro">
										<parameterid>20</parameterid>
										<name>Saturation</name>
										<IsTimeVarying>false</IsTimeVarying>
										<ParameterControlType>8</ParameterControlType>
										<LowerBound>0</LowerBound>
										<UpperBound>300</UpperBound>
										<UpperUIBound>200</UpperUIBound>
										<value>-91445760000000000,190.,0,0,0,0,0,0</value>
									</parameter>
									<parameter authoringApp="PremierePro">
										<parameterid>23</parameterid>
										<name> </name>
										<IsTimeVarying>false</IsTimeVarying>
										<ParameterControlType>4</ParameterControlType>
										<LowerBound>false</LowerBound>
										<UpperBound>true</UpperBound>
										<value>-91445760000000000,true,0,0,0,0,0,0</value>
									</parameter>
									<parameter authoringApp="PremierePro">
										<parameterid>24</parameterid>
										<name> </name>
										<hash>63866a15-9327-e4cb-ff31-c9ea0000000e</hash>
									</parameter>
									<parameter authoringApp="PremierePro">
										<parameterid>25</parameterid>
										<name>Look</name>
										<IsTimeVarying>false</IsTimeVarying>
										<ParameterControlType>7</ParameterControlType>
										<LowerBound>0</LowerBound>
										<UpperBound>998</UpperBound>
										<value>-91445760000000000,0,0,0,0,0,0,0</value>
									</parameter>
									<parameter authoringApp="PremierePro">
										<parameterid>26</parameterid>
										<name>Intensity</name>
										<IsTimeVarying>false</IsTimeVarying>
										<ParameterControlType>8</ParameterControlType>
										<LowerBound>0</LowerBound>
										<UpperBound>200</UpperBound>
										<value>-91445760000000000,100.,0,0,0,0,0,0</value>
									</parameter>
									<parameter authoringApp="PremierePro">
										<parameterid>28</parameterid>
										<name>Faded Film</name>
										<IsTimeVarying>false</IsTimeVarying>
										<ParameterControlType>8</ParameterControlType>
										<LowerBound>0</LowerBound>
										<UpperBound>150</UpperBound>
										<UpperUIBound>100</UpperUIBound>
										<value>-91445760000000000,0.,0,0,0,0,0,0</value>
									</parameter>
									<parameter authoringApp="PremierePro">
										<parameterid>29</parameterid>
										<name>Sharpen</name>
										<IsTimeVarying>false</IsTimeVarying>
										<ParameterControlType>8</ParameterControlType>
										<LowerBound>-100</LowerBound>
										<UpperBound>100</UpperBound>
										<value>-91445760000000000,0.,0,0,0,0,0,0</value>
									</parameter>
									<parameter authoringApp="PremierePro">
										<parameterid>30</parameterid>
										<name>Vibrance</name>
										<IsTimeVarying>false</IsTimeVarying>
										<ParameterControlType>8</ParameterControlType>
										<LowerBound>-100</LowerBound>
										<UpperBound>100</UpperBound>
										<value>-91445760000000000,0.,0,0,0,0,0,0</value>
									</parameter>
									<parameter authoringApp="PremierePro">
										<parameterid>31</parameterid>
										<name>Saturation</name>
										<IsTimeVarying>false</IsTimeVarying>
										<ParameterControlType>8</ParameterControlType>
										<LowerBound>0</LowerBound>
										<UpperBound>300</UpperBound>
										<UpperUIBound>200</UpperUIBound>
										<value>-91445760000000000,100.,0,0,0,0,0,0</value>
									</parameter>
									<parameter authoringApp="PremierePro">
										<parameterid>32</parameterid>
										<name></name>
										<hash>49d2fca5-ddd1-a393-0544-f6d80000002c</hash>
									</parameter>
									<parameter authoringApp="PremierePro">
										<parameterid>33</parameterid>
										<name>Tint Balance</name>
										<IsTimeVarying>false</IsTimeVarying>
										<ParameterControlType>8</ParameterControlType>
										<LowerBound>-150</LowerBound>
										<UpperBound>150</UpperBound>
										<LowerUIBound>-100</LowerUIBound>
										<UpperUIBound>100</UpperUIBound>
										<value>-91445760000000000,0.,0,0,0,0,0,0</value>
									</parameter>
									<parameter authoringApp="PremierePro">
										<parameterid>37</parameterid>
										<name> </name>
										<IsTimeVarying>false</IsTimeVarying>
										<ParameterControlType>4</ParameterControlType>
										<LowerBound>false</LowerBound>
										<UpperBound>true</UpperBound>
										<value>-91445760000000000,true,0,0,0,0,0,0</value>
									</parameter>
									<parameter authoringApp="PremierePro">
										<parameterid>39</parameterid>
										<name> </name>
										<hash>261f3840-e8cf-a8cd-fa5e-bac10000082c</hash>
									</parameter>
									<parameter authoringApp="PremierePro">
										<parameterid>42</parameterid>
										<name> </name>
										<hash>ccfaa4df-d630-7661-76dd-3e4900000214</hash>
									</parameter>
									<parameter authoringApp="PremierePro">
										<parameterid>46</parameterid>
										<name> </name>
										<IsTimeVarying>false</IsTimeVarying>
										<ParameterControlType>4</ParameterControlType>
										<LowerBound>false</LowerBound>
										<UpperBound>true</UpperBound>
										<value>-91445760000000000,true,0,0,0,0,0,0</value>
									</parameter>
									<parameter authoringApp="PremierePro">
										<parameterid>47</parameterid>
										<name> </name>
										<hash>0b5436c4-bae0-bb64-a2f6-c8c40000006c</hash>
									</parameter>
									<parameter authoringApp="PremierePro">
										<parameterid>50</parameterid>
										<name> </name>
										<IsTimeVarying>false</IsTimeVarying>
										<ParameterControlType>4</ParameterControlType>
										<LowerBound>false</LowerBound>
										<UpperBound>true</UpperBound>
										<value>-91445760000000000,true,0,0,0,0,0,0</value>
									</parameter>
									<parameter authoringApp="PremierePro">
										<parameterid>51</parameterid>
										<name>Amount</name>
										<IsTimeVarying>false</IsTimeVarying>
										<ParameterControlType>8</ParameterControlType>
										<LowerBound>-5</LowerBound>
										<UpperBound>5</UpperBound>
										<LowerUIBound>-3</LowerUIBound>
										<UpperUIBound>3</UpperUIBound>
										<value>-91445760000000000,0.,0,0,0,0,0,0</value>
									</parameter>
									<parameter authoringApp="PremierePro">
										<parameterid>52</parameterid>
										<name>Midpoint</name>
										<IsTimeVarying>false</IsTimeVarying>
										<ParameterControlType>8</ParameterControlType>
										<LowerBound>0</LowerBound>
										<UpperBound>100</UpperBound>
										<value>-91445760000000000,50.,0,0,0,0,0,0</value>
									</parameter>
									<parameter authoringApp="PremierePro">
										<parameterid>53</parameterid>
										<name>Roundness</name>
										<IsTimeVarying>false</IsTimeVarying>
										<ParameterControlType>8</ParameterControlType>
										<LowerBound>-100</LowerBound>
										<UpperBound>100</UpperBound>
										<value>-91445760000000000,0.,0,0,0,0,0,0</value>
									</parameter>
									<parameter authoringApp="PremierePro">
										<parameterid>54</parameterid>
										<name>Feather</name>
										<IsTimeVarying>false</IsTimeVarying>
										<ParameterControlType>8</ParameterControlType>
										<LowerBound>0</LowerBound>
										<UpperBound>100</UpperBound>
										<value>-91445760000000000,50.,0,0,0,0,0,0</value>
									</parameter>
								</effect>
							</filter>
						<link>
							<linkclipref>clipitem-134</linkclipref>
							<mediatype>video</mediatype>
							<trackindex>1</trackindex>
							<clipindex>143</clipindex>
						</link>
						<link>
							<linkclipref>clipitem-565</linkclipref>
							<mediatype>audio</mediatype>
							<trackindex>1</trackindex>
							<clipindex>76</clipindex>
							<groupindex>1</groupindex>
						</link>
						<link>
							<linkclipref>clipitem-648</linkclipref>
							<mediatype>audio</mediatype>
							<trackindex>3</trackindex>
							<clipindex>61</clipindex>
							<groupindex>1</groupindex>
						</link>
						<logginginfo>
							<description></description>
							<scene></scene>
							<shottake></shottake>
							<lognote></lognote>
						</logginginfo>
						<labels>
							<label2>Caribbean</label2>
						</labels>
					</clipitem>
					<clipitem id="clipitem-135">
						<masterclipid>masterclip-94</masterclipid>
						<name>Teaser NRK_1.mov</name>
						<enabled>TRUE</enabled>
						<duration>753</duration>
						<rate>
							<timebase>25</timebase>
							<ntsc>FALSE</ntsc>
						</rate>
						<start>35379</start>
						<end>36042</end>
						<in>1</in>
						<out>664</out>
						<pproTicksIn>10160640000</pproTicksIn>
						<pproTicksOut>6746664960000</pproTicksOut>
						<alphatype>none</alphatype>
						<pixelaspectratio>square</pixelaspectratio>
						<anamorphic>FALSE</anamorphic>
						<file id="file-94">
							<name>Teaser NRK_1.mov</name>
							<pathurl>file://localhost/Volumes/Svartediket/Prosjekter/DVNA600216_HELAFTEN2016_FAL_010217/Video/Trailere2017/Asgeir-Isbre/Teaser%20NRK_1.mov</pathurl>
							<rate>
								<timebase>25</timebase>
								<ntsc>FALSE</ntsc>
							</rate>
							<duration>753</duration>
							<timecode>
								<rate>
									<timebase>25</timebase>
									<ntsc>FALSE</ntsc>
								</rate>
								<string>00:01:54:18</string>
								<frame>2868</frame>
								<displayformat>NDF</displayformat>
								<reel>
									<name></name>
								</reel>
							</timecode>
							<media>
								<video>
									<samplecharacteristics>
										<rate>
											<timebase>25</timebase>
											<ntsc>FALSE</ntsc>
										</rate>
										<width>1920</width>
										<height>1080</height>
										<anamorphic>FALSE</anamorphic>
										<pixelaspectratio>square</pixelaspectratio>
										<fielddominance>none</fielddominance>
									</samplecharacteristics>
								</video>
								<audio>
									<samplecharacteristics>
										<depth>16</depth>
										<samplerate>48000</samplerate>
									</samplecharacteristics>
									<channelcount>2</channelcount>
								</audio>
							</media>
						</file>
						<logginginfo>
							<description></description>
							<scene></scene>
							<shottake></shottake>
							<lognote></lognote>
						</logginginfo>
						<labels>
							<label2>Lavender</label2>
						</labels>
					</clipitem>
					<clipitem id="clipitem-136">
						<masterclipid>masterclip-95</masterclipid>
						<name>Nordvisjon-MASTER-vr3-201016-ny-m-komm.mxf</name>
						<enabled>TRUE</enabled>
						<duration>2352</duration>
						<rate>
							<timebase>25</timebase>
							<ntsc>FALSE</ntsc>
						</rate>
						<start>36067</start>
						<end>36638</end>
						<in>55</in>
						<out>626</out>
						<pproTicksIn>558835200000</pproTicksIn>
						<pproTicksOut>6360560640000</pproTicksOut>
						<alphatype>none</alphatype>
						<pixelaspectratio>square</pixelaspectratio>
						<anamorphic>FALSE</anamorphic>
						<file id="file-95">
							<name>Nordvisjon-MASTER-vr3-201016-ny-m-komm.mxf</name>
							<pathurl>file://localhost/Volumes/Vaagen/Utveksling/Natur/Naturlig%20helaften%20fra%20Oslo/Transcoded_Nedklipp%20helaften/Nordvisjon-MASTER-vr3-201016-ny-m-komm.mxf</pathurl>
							<rate>
								<timebase>25</timebase>
								<ntsc>FALSE</ntsc>
							</rate>
							<duration>2352</duration>
							<timecode>
								<rate>
									<timebase>25</timebase>
									<ntsc>FALSE</ntsc>
								</rate>
								<string>00:00:31:22</string>
								<frame>797</frame>
								<displayformat>NDF</displayformat>
								<reel>
									<name></name>
								</reel>
							</timecode>
							<media>
								<video>
									<samplecharacteristics>
										<rate>
											<timebase>25</timebase>
											<ntsc>FALSE</ntsc>
										</rate>
										<width>1920</width>
										<height>1080</height>
										<anamorphic>FALSE</anamorphic>
										<pixelaspectratio>square</pixelaspectratio>
										<fielddominance>upper</fielddominance>
									</samplecharacteristics>
								</video>
							</media>
						</file>
						<logginginfo>
							<description></description>
							<scene></scene>
							<shottake></shottake>
							<lognote></lognote>
						</logginginfo>
						<labels>
							<label2>Iris</label2>
						</labels>
					</clipitem>
					<clipitem id="clipitem-137">
						<masterclipid>masterclip-96</masterclipid>
						<name>AA278402.MXF</name>
						<enabled>TRUE</enabled>
						<duration>816</duration>
						<rate>
							<timebase>25</timebase>
							<ntsc>FALSE</ntsc>
						</rate>
						<start>36638</start>
						<end>36883</end>
						<in>482</in>
						<out>727</out>
						<pproTicksIn>4897428480000</pproTicksIn>
						<pproTicksOut>7386785280000</pproTicksOut>
						<alphatype>none</alphatype>
						<pixelaspectratio>square</pixelaspectratio>
						<anamorphic>FALSE</anamorphic>
						<file id="file-96">
							<name>AA278402.MXF</name>
							<pathurl>file://localhost/Volumes/Vaagen/Utveksling/Natur/Naturlig%20helaften%20fra%20Oslo/Copied_Copy%20of%20En%20Helaften%20MASTER_002/AA278402.MXF</pathurl>
							<rate>
								<timebase>25</timebase>
								<ntsc>FALSE</ntsc>
							</rate>
							<duration>816</duration>
							<timecode>
								<rate>
									<timebase>25</timebase>
									<ntsc>FALSE</ntsc>
								</rate>
								<string>16:00:34:21</string>
								<frame>1440871</frame>
								<displayformat>NDF</displayformat>
								<reel>
									<name></name>
								</reel>
							</timecode>
							<media>
								<video>
									<samplecharacteristics>
										<rate>
											<timebase>25</timebase>
											<ntsc>FALSE</ntsc>
										</rate>
										<width>1920</width>
										<height>1080</height>
										<anamorphic>FALSE</anamorphic>
										<pixelaspectratio>square</pixelaspectratio>
										<fielddominance>none</fielddominance>
									</samplecharacteristics>
								</video>
								<audio>
									<samplecharacteristics>
										<depth>16</depth>
										<samplerate>48000</samplerate>
									</samplecharacteristics>
									<channelcount>2</channelcount>
								</audio>
							</media>
						</file>
						<logginginfo>
							<description></description>
							<scene></scene>
							<shottake></shottake>
							<lognote></lognote>
						</logginginfo>
						<labels>
							<label2>Iris</label2>
						</labels>
					</clipitem>
					<clipitem id="clipitem-138">
						<masterclipid>masterclip-97</masterclipid>
						<name>AA011001.MXF</name>
						<enabled>TRUE</enabled>
						<duration>2088</duration>
						<rate>
							<timebase>25</timebase>
							<ntsc>FALSE</ntsc>
						</rate>
						<start>36883</start>
						<end>37102</end>
						<in>930</in>
						<out>1149</out>
						<pproTicksIn>9449395200000</pproTicksIn>
						<pproTicksOut>11674575360000</pproTicksOut>
						<alphatype>none</alphatype>
						<pixelaspectratio>square</pixelaspectratio>
						<anamorphic>FALSE</anamorphic>
						<file id="file-97">
							<name>AA011001.MXF</name>
							<pathurl>file://localhost/Volumes/Vaagen/Prosjekter/DVNA210116_Horn%c3%b8ya_Nordvisjonen_010317_TGP/Bakomfilm/05%20Rigging%20Horn%c3%b8ya%2025.%20april%20til%204.%20mai%202016/Video%20-%20foto%20Sindre%20Skrede/AA0110/AA011001.MXF</pathurl>
							<rate>
								<timebase>25</timebase>
								<ntsc>FALSE</ntsc>
							</rate>
							<duration>2088</duration>
							<timecode>
								<rate>
									<timebase>25</timebase>
									<ntsc>FALSE</ntsc>
								</rate>
								<string>01:04:25:23</string>
								<frame>96648</frame>
								<displayformat>NDF</displayformat>
								<reel>
									<name></name>
								</reel>
							</timecode>
							<media>
								<video>
									<samplecharacteristics>
										<rate>
											<timebase>25</timebase>
											<ntsc>FALSE</ntsc>
										</rate>
										<width>1920</width>
										<height>1080</height>
										<anamorphic>FALSE</anamorphic>
										<pixelaspectratio>square</pixelaspectratio>
										<fielddominance>none</fielddominance>
									</samplecharacteristics>
								</video>
								<audio>
									<samplecharacteristics>
										<depth>16</depth>
										<samplerate>48000</samplerate>
									</samplecharacteristics>
									<channelcount>2</channelcount>
								</audio>
								<audio>
									<samplecharacteristics>
										<depth>16</depth>
										<samplerate>48000</samplerate>
									</samplecharacteristics>
									<channelcount>2</channelcount>
								</audio>
							</media>
						</file>
						<link>
							<linkclipref>clipitem-138</linkclipref>
							<mediatype>video</mediatype>
							<trackindex>1</trackindex>
							<clipindex>147</clipindex>
						</link>
						<link>
							<linkclipref>clipitem-957</linkclipref>
							<mediatype>audio</mediatype>
							<trackindex>10</trackindex>
							<clipindex>58</clipindex>
							<groupindex>1</groupindex>
						</link>
						<link>
							<linkclipref>clipitem-1097</linkclipref>
							<mediatype>audio</mediatype>
							<trackindex>11</trackindex>
							<clipindex>58</clipindex>
							<groupindex>1</groupindex>
						</link>
						<logginginfo>
							<description></description>
							<scene></scene>
							<shottake></shottake>
							<lognote></lognote>
						</logginginfo>
						<labels>
							<label2>Iris</label2>
						</labels>
					</clipitem>
					<clipitem id="clipitem-139">
						<masterclipid>masterclip-98</masterclipid>
						<name>DVNA60000316AA</name>
						<enabled>TRUE</enabled>
						<duration>58641</duration>
						<rate>
							<timebase>25</timebase>
							<ntsc>FALSE</ntsc>
						</rate>
						<start>37102</start>
						<end>37188</end>
						<in>15320</in>
						<out>15406</out>
						<pproTicksIn>155661004800000</pproTicksIn>
						<pproTicksOut>156534819840000</pproTicksOut>
						<alphatype>none</alphatype>
						<pixelaspectratio>square</pixelaspectratio>
						<anamorphic>FALSE</anamorphic>
						<file id="file-98">
							<name>DVNA60000316AA.mxf</name>
							<pathurl>file://localhost/Volumes/omfs/clip.dir/MXF/1080i/DVNA60000316AA.mxf</pathurl>
							<rate>
								<timebase>25</timebase>
								<ntsc>FALSE</ntsc>
							</rate>
							<duration>58641</duration>
							<timecode>
								<rate>
									<timebase>25</timebase>
									<ntsc>FALSE</ntsc>
								</rate>
								<string>00:00:00:00</string>
								<frame>0</frame>
								<displayformat>NDF</displayformat>
								<reel>
									<name>\\NDHO\Omn\E\F\26\29</name>
								</reel>
							</timecode>
							<media>
								<video>
									<samplecharacteristics>
										<rate>
											<timebase>25</timebase>
											<ntsc>FALSE</ntsc>
										</rate>
										<width>1920</width>
										<height>1080</height>
										<anamorphic>FALSE</anamorphic>
										<pixelaspectratio>square</pixelaspectratio>
										<fielddominance>upper</fielddominance>
									</samplecharacteristics>
								</video>
								<audio>
									<samplecharacteristics>
										<depth>16</depth>
										<samplerate>48000</samplerate>
									</samplecharacteristics>
									<channelcount>2</channelcount>
								</audio>
								<audio>
									<samplecharacteristics>
										<depth>16</depth>
										<samplerate>48000</samplerate>
									</samplecharacteristics>
									<channelcount>2</channelcount>
								</audio>
								<audio>
									<samplecharacteristics>
										<depth>16</depth>
										<samplerate>48000</samplerate>
									</samplecharacteristics>
									<channelcount>2</channelcount>
								</audio>
							</media>
						</file>
						<link>
							<linkclipref>clipitem-139</linkclipref>
							<mediatype>video</mediatype>
							<trackindex>1</trackindex>
							<clipindex>148</clipindex>
						</link>
						<link>
							<linkclipref>clipitem-774</linkclipref>
							<mediatype>audio</mediatype>
							<trackindex>8</trackindex>
							<clipindex>68</clipindex>
							<groupindex>1</groupindex>
						</link>
						<link>
							<linkclipref>clipitem-869</linkclipref>
							<mediatype>audio</mediatype>
							<trackindex>9</trackindex>
							<clipindex>67</clipindex>
							<groupindex>1</groupindex>
						</link>
						<logginginfo>
							<description>Ut i naturen - Hornøya</description>
							<scene></scene>
							<shottake></shottake>
							<lognote></lognote>
						</logginginfo>
						<labels>
							<label2>Iris</label2>
						</labels>
					</clipitem>
					<clipitem id="clipitem-140">
						<masterclipid>masterclip-99</masterclipid>
						<name>hoya-paoya2-150316-016.MXF</name>
						<enabled>TRUE</enabled>
						<duration>2199</duration>
						<rate>
							<timebase>25</timebase>
							<ntsc>FALSE</ntsc>
						</rate>
						<start>37188</start>
						<end>37390</end>
						<in>1494</in>
						<out>1697</out>
						<pproTicksIn>15179996160000</pproTicksIn>
						<pproTicksOut>17242606080000</pproTicksOut>
						<alphatype>none</alphatype>
						<pixelaspectratio>square</pixelaspectratio>
						<anamorphic>FALSE</anamorphic>
						<file id="file-99">
							<name>hoya-paoya2-150316-016.MXF</name>
							<pathurl>file://localhost/Volumes/omfs/clip.dir/MXF/1080i/hoya-paoya2-150316-016.MXF</pathurl>
							<rate>
								<timebase>25</timebase>
								<ntsc>FALSE</ntsc>
							</rate>
							<duration>2199</duration>
							<timecode>
								<rate>
									<timebase>25</timebase>
									<ntsc>FALSE</ntsc>
								</rate>
								<string>00:08:59:17</string>
								<frame>13492</frame>
								<displayformat>NDF</displayformat>
								<reel>
									<name></name>
								</reel>
							</timecode>
							<media>
								<video>
									<samplecharacteristics>
										<rate>
											<timebase>25</timebase>
											<ntsc>FALSE</ntsc>
										</rate>
										<width>1920</width>
										<height>1080</height>
										<anamorphic>FALSE</anamorphic>
										<pixelaspectratio>square</pixelaspectratio>
										<fielddominance>upper</fielddominance>
									</samplecharacteristics>
								</video>
								<audio>
									<samplecharacteristics>
										<depth>16</depth>
										<samplerate>48000</samplerate>
									</samplecharacteristics>
									<channelcount>8</channelcount>
								</audio>
							</media>
						</file>
						<logginginfo>
							<description></description>
							<scene></scene>
							<shottake></shottake>
							<lognote></lognote>
						</logginginfo>
						<labels>
							<label2>Iris</label2>
						</labels>
					</clipitem>
					<clipitem id="clipitem-141">
						<masterclipid>masterclip-100</masterclipid>
						<name>drone2-30juni-korrigert.mxf</name>
						<enabled>TRUE</enabled>
						<duration>15614</duration>
						<rate>
							<timebase>25</timebase>
							<ntsc>FALSE</ntsc>
						</rate>
						<start>37390</start>
						<end>37477</end>
						<in>14200</in>
						<out>14287</out>
						<pproTicksIn>144281088000000</pproTicksIn>
						<pproTicksOut>145165063680000</pproTicksOut>
						<alphatype>none</alphatype>
						<pixelaspectratio>square</pixelaspectratio>
						<anamorphic>FALSE</anamorphic>
						<file id="file-100">
							<name>drone2-30juni-korrigert.mxf</name>
							<pathurl>file://localhost/Volumes/Vaagen/Prosjekter/DVNA210116_Horn%c3%b8ya_Nordvisjonen_010317_TGP/DRONE%20ALRIK/drone2-30juni-korrigert.mxf</pathurl>
							<rate>
								<timebase>25</timebase>
								<ntsc>FALSE</ntsc>
							</rate>
							<duration>15614</duration>
							<timecode>
								<rate>
									<timebase>25</timebase>
									<ntsc>FALSE</ntsc>
								</rate>
								<string>00:00:00:00</string>
								<frame>0</frame>
								<displayformat>NDF</displayformat>
								<reel>
									<name></name>
								</reel>
							</timecode>
							<media>
								<video>
									<samplecharacteristics>
										<rate>
											<timebase>25</timebase>
											<ntsc>FALSE</ntsc>
										</rate>
										<width>1920</width>
										<height>1080</height>
										<anamorphic>FALSE</anamorphic>
										<pixelaspectratio>square</pixelaspectratio>
										<fielddominance>upper</fielddominance>
									</samplecharacteristics>
								</video>
								<audio>
									<samplecharacteristics>
										<depth>16</depth>
										<samplerate>48000</samplerate>
									</samplecharacteristics>
									<channelcount>8</channelcount>
								</audio>
							</media>
						</file>
						<logginginfo>
							<description></description>
							<scene></scene>
							<shottake></shottake>
							<lognote></lognote>
						</logginginfo>
						<labels>
							<label2>Iris</label2>
						</labels>
					</clipitem>
					<clipitem id="clipitem-142">
						<masterclipid>masterclip-101</masterclipid>
						<name>cineflex kompilering 23 juni.mxf</name>
						<enabled>TRUE</enabled>
						<duration>1181</duration>
						<rate>
							<timebase>25</timebase>
							<ntsc>FALSE</ntsc>
						</rate>
						<start>37477</start>
						<end>37582</end>
						<in>285</in>
						<out>390</out>
						<pproTicksIn>2895782400000</pproTicksIn>
						<pproTicksOut>3962649600000</pproTicksOut>
						<alphatype>none</alphatype>
						<pixelaspectratio>square</pixelaspectratio>
						<anamorphic>FALSE</anamorphic>
						<file id="file-101">
							<name>cineflex kompilering 23 juni.mxf</name>
							<pathurl>file://localhost/Volumes/Vaagen/Prosjekter/DVNA210116_Horn%c3%b8ya_Nordvisjonen_010317_TGP/Bakomfilm/cineflex%20kompilering%2023%20juni.mxf</pathurl>
							<rate>
								<timebase>25</timebase>
								<ntsc>FALSE</ntsc>
							</rate>
							<duration>1181</duration>
							<timecode>
								<rate>
									<timebase>25</timebase>
									<ntsc>FALSE</ntsc>
								</rate>
								<string>01:56:00:15</string>
								<frame>174015</frame>
								<displayformat>NDF</displayformat>
								<reel>
									<name></name>
								</reel>
							</timecode>
							<media>
								<video>
									<samplecharacteristics>
										<rate>
											<timebase>25</timebase>
											<ntsc>FALSE</ntsc>
										</rate>
										<width>1920</width>
										<height>1080</height>
										<anamorphic>FALSE</anamorphic>
										<pixelaspectratio>square</pixelaspectratio>
										<fielddominance>upper</fielddominance>
									</samplecharacteristics>
								</video>
								<audio>
									<samplecharacteristics>
										<depth>16</depth>
										<samplerate>48000</samplerate>
									</samplecharacteristics>
									<channelcount>2</channelcount>
								</audio>
							</media>
						</file>
						<logginginfo>
							<description></description>
							<scene></scene>
							<shottake></shottake>
							<lognote></lognote>
						</logginginfo>
						<labels>
							<label2>Iris</label2>
						</labels>
					</clipitem>
					<clipitem id="clipitem-143">
						<masterclipid>masterclip-102</masterclipid>
						<name>NRK2-180616.mxf</name>
						<enabled>TRUE</enabled>
						<duration>183000</duration>
						<rate>
							<timebase>25</timebase>
							<ntsc>FALSE</ntsc>
						</rate>
						<start>37582</start>
						<end>37685</end>
						<in>23144</in>
						<out>23247</out>
						<pproTicksIn>235157852160000</pproTicksIn>
						<pproTicksOut>236204398080000</pproTicksOut>
						<alphatype>none</alphatype>
						<pixelaspectratio>square</pixelaspectratio>
						<anamorphic>FALSE</anamorphic>
						<file id="file-102">
							<name>DVNA25000516AU.mxf</name>
							<pathurl>file://localhost/Volumes/Vaagen/Prosjekter/DVNA210116_Horn%c3%b8ya_Nordvisjonen_010317_TGP/Horn%c3%b8ya%20Trond/NRK2sendinger/DVNA25000516AU.mxf</pathurl>
							<rate>
								<timebase>25</timebase>
								<ntsc>FALSE</ntsc>
							</rate>
							<duration>183000</duration>
							<timecode>
								<rate>
									<timebase>25</timebase>
									<ntsc>FALSE</ntsc>
								</rate>
								<string>21:59:00:00</string>
								<frame>1978500</frame>
								<displayformat>NDF</displayformat>
								<reel>
									<name></name>
								</reel>
							</timecode>
							<media>
								<video>
									<samplecharacteristics>
										<rate>
											<timebase>25</timebase>
											<ntsc>FALSE</ntsc>
										</rate>
										<width>1920</width>
										<height>1080</height>
										<anamorphic>FALSE</anamorphic>
										<pixelaspectratio>square</pixelaspectratio>
										<fielddominance>upper</fielddominance>
									</samplecharacteristics>
								</video>
								<audio>
									<samplecharacteristics>
										<depth>16</depth>
										<samplerate>48000</samplerate>
									</samplecharacteristics>
									<channelcount>8</channelcount>
								</audio>
							</media>
						</file>
						<link>
							<linkclipref>clipitem-143</linkclipref>
							<mediatype>video</mediatype>
							<trackindex>1</trackindex>
							<clipindex>152</clipindex>
						</link>
						<link>
							<linkclipref>clipitem-777</linkclipref>
							<mediatype>audio</mediatype>
							<trackindex>8</trackindex>
							<clipindex>72</clipindex>
							<groupindex>1</groupindex>
						</link>
						<link>
							<linkclipref>clipitem-872</linkclipref>
							<mediatype>audio</mediatype>
							<trackindex>9</trackindex>
							<clipindex>71</clipindex>
							<groupindex>1</groupindex>
						</link>
						<logginginfo>
							<description>Program 5</description>
							<scene></scene>
							<shottake></shottake>
							<lognote></lognote>
						</logginginfo>
						<labels>
							<label2>Iris</label2>
						</labels>
					</clipitem>
					<clipitem id="clipitem-144">
						<masterclipid>masterclip-103</masterclipid>
						<name>DVNA25000116AU.mxf</name>
						<enabled>TRUE</enabled>
						<duration>192000</duration>
						<rate>
							<timebase>25</timebase>
							<ntsc>FALSE</ntsc>
						</rate>
						<start>37724</start>
						<end>37788</end>
						<in>66194</in>
						<out>66258</out>
						<pproTicksIn>672573404160000</pproTicksIn>
						<pproTicksOut>673223685120000</pproTicksOut>
						<alphatype>none</alphatype>
						<pixelaspectratio>square</pixelaspectratio>
						<anamorphic>FALSE</anamorphic>
						<file id="file-103">
							<name>DVNA25000116AU.mxf</name>
							<pathurl>file://localhost/Volumes/Vaagen/Prosjekter/DVNA210116_Horn%c3%b8ya_Nordvisjonen_010317_TGP/Horn%c3%b8ya%20Trond/NRK2sendinger/DVNA25000116AU.mxf</pathurl>
							<rate>
								<timebase>25</timebase>
								<ntsc>FALSE</ntsc>
							</rate>
							<duration>192000</duration>
							<timecode>
								<rate>
									<timebase>25</timebase>
									<ntsc>FALSE</ntsc>
								</rate>
								<string>20:53:00:00</string>
								<frame>1879500</frame>
								<displayformat>NDF</displayformat>
								<reel>
									<name></name>
								</reel>
							</timecode>
							<media>
								<video>
									<samplecharacteristics>
										<rate>
											<timebase>25</timebase>
											<ntsc>FALSE</ntsc>
										</rate>
										<width>1920</width>
										<height>1080</height>
										<anamorphic>FALSE</anamorphic>
										<pixelaspectratio>square</pixelaspectratio>
										<fielddominance>upper</fielddominance>
									</samplecharacteristics>
								</video>
								<audio>
									<samplecharacteristics>
										<depth>16</depth>
										<samplerate>48000</samplerate>
									</samplecharacteristics>
									<channelcount>2</channelcount>
								</audio>
								<audio>
									<samplecharacteristics>
										<depth>16</depth>
										<samplerate>48000</samplerate>
									</samplecharacteristics>
									<channelcount>2</channelcount>
								</audio>
								<audio>
									<samplecharacteristics>
										<depth>16</depth>
										<samplerate>48000</samplerate>
									</samplecharacteristics>
									<channelcount>2</channelcount>
								</audio>
							</media>
						</file>
						<link>
							<linkclipref>clipitem-144</linkclipref>
							<mediatype>video</mediatype>
							<trackindex>1</trackindex>
							<clipindex>153</clipindex>
						</link>
						<link>
							<linkclipref>clipitem-778</linkclipref>
							<mediatype>audio</mediatype>
							<trackindex>8</trackindex>
							<clipindex>73</clipindex>
							<groupindex>1</groupindex>
						</link>
						<link>
							<linkclipref>clipitem-873</linkclipref>
							<mediatype>audio</mediatype>
							<trackindex>9</trackindex>
							<clipindex>72</clipindex>
							<groupindex>1</groupindex>
						</link>
						<logginginfo>
							<description>Program 1</description>
							<scene></scene>
							<shottake></shottake>
							<lognote></lognote>
						</logginginfo>
						<labels>
							<label2>Iris</label2>
						</labels>
					</clipitem>
					<clipitem id="clipitem-145">
						<masterclipid>masterclip-104</masterclipid>
						<name>NRK2-210616.mxf</name>
						<enabled>TRUE</enabled>
						<duration>198000</duration>
						<rate>
							<timebase>25</timebase>
							<ntsc>FALSE</ntsc>
						</rate>
						<start>37788</start>
						<end>37860</end>
						<in>194087</in>
						<out>194160</out>
						<pproTicksIn>1972048135680000</pproTicksIn>
						<pproTicksOut>1972789862400000</pproTicksOut>
						<alphatype>none</alphatype>
						<pixelaspectratio>square</pixelaspectratio>
						<anamorphic>FALSE</anamorphic>
						<file id="file-104">
							<name>DVNA25000616AU.mxf</name>
							<pathurl>file://localhost/Volumes/Vaagen/Prosjekter/DVNA210116_Horn%c3%b8ya_Nordvisjonen_010317_TGP/Horn%c3%b8ya%20Trond/NRK2sendinger/DVNA25000616AU.mxf</pathurl>
							<rate>
								<timebase>25</timebase>
								<ntsc>FALSE</ntsc>
							</rate>
							<duration>198000</duration>
							<timecode>
								<rate>
									<timebase>25</timebase>
									<ntsc>FALSE</ntsc>
								</rate>
								<string>21:49:00:00</string>
								<frame>1963500</frame>
								<displayformat>NDF</displayformat>
								<reel>
									<name></name>
								</reel>
							</timecode>
							<media>
								<video>
									<samplecharacteristics>
										<rate>
											<timebase>25</timebase>
											<ntsc>FALSE</ntsc>
										</rate>
										<width>1920</width>
										<height>1080</height>
										<anamorphic>FALSE</anamorphic>
										<pixelaspectratio>square</pixelaspectratio>
										<fielddominance>upper</fielddominance>
									</samplecharacteristics>
								</video>
								<audio>
									<samplecharacteristics>
										<depth>16</depth>
										<samplerate>48000</samplerate>
									</samplecharacteristics>
									<channelcount>2</channelcount>
								</audio>
								<audio>
									<samplecharacteristics>
										<depth>16</depth>
										<samplerate>48000</samplerate>
									</samplecharacteristics>
									<channelcount>2</channelcount>
								</audio>
								<audio>
									<samplecharacteristics>
										<depth>16</depth>
										<samplerate>48000</samplerate>
									</samplecharacteristics>
									<channelcount>2</channelcount>
								</audio>
							</media>
						</file>
						<link>
							<linkclipref>clipitem-145</linkclipref>
							<mediatype>video</mediatype>
							<trackindex>1</trackindex>
							<clipindex>154</clipindex>
						</link>
						<link>
							<linkclipref>clipitem-958</linkclipref>
							<mediatype>audio</mediatype>
							<trackindex>10</trackindex>
							<clipindex>59</clipindex>
							<groupindex>1</groupindex>
						</link>
						<link>
							<linkclipref>clipitem-1098</linkclipref>
							<mediatype>audio</mediatype>
							<trackindex>11</trackindex>
							<clipindex>59</clipindex>
							<groupindex>1</groupindex>
						</link>
						<logginginfo>
							<description>Program 6</description>
							<scene></scene>
							<shottake></shottake>
							<lognote></lognote>
						</logginginfo>
						<labels>
							<label2>Iris</label2>
						</labels>
					</clipitem>
					<clipitem id="clipitem-146">
						<masterclipid>masterclip-12</masterclipid>
						<name>NRK2-300616 (1).mxf</name>
						<enabled>TRUE</enabled>
						<duration>183000</duration>
						<rate>
							<timebase>25</timebase>
							<ntsc>FALSE</ntsc>
						</rate>
						<start>37860</start>
						<end>37930</end>
						<in>76525</in>
						<out>76595</out>
						<pproTicksIn>777542976000000</pproTicksIn>
						<pproTicksOut>778254220800000</pproTicksOut>
						<alphatype>none</alphatype>
						<file id="file-12"/>
						<logginginfo>
							<description>Program 13</description>
							<scene></scene>
							<shottake></shottake>
							<lognote></lognote>
						</logginginfo>
						<labels>
							<label2>Iris</label2>
						</labels>
					</clipitem>
					<clipitem id="clipitem-147">
						<masterclipid>masterclip-105</masterclipid>
						<name>DVNA60000512AA</name>
						<enabled>TRUE</enabled>
						<duration>43804</duration>
						<rate>
							<timebase>25</timebase>
							<ntsc>FALSE</ntsc>
						</rate>
						<start>37930</start>
						<end>38150</end>
						<in>22729</in>
						<out>22949</out>
						<pproTicksIn>230941186560000</pproTicksIn>
						<pproTicksOut>233176527360000</pproTicksOut>
						<alphatype>none</alphatype>
						<pixelaspectratio>square</pixelaspectratio>
						<anamorphic>FALSE</anamorphic>
						<file id="file-105">
							<name>DVNA60000512AA.mxf</name>
							<pathurl>file://localhost/Volumes/omfs/clip.dir/MXF/1080i/DVNA60000512AA.mxf</pathurl>
							<rate>
								<timebase>25</timebase>
								<ntsc>FALSE</ntsc>
							</rate>
							<duration>43804</duration>
							<timecode>
								<rate>
									<timebase>25</timebase>
									<ntsc>FALSE</ntsc>
								</rate>
								<string>00:00:00:00</string>
								<frame>0</frame>
								<displayformat>NDF</displayformat>
								<reel>
									<name>\\NDHO\Omn\E\G\08\73</name>
								</reel>
							</timecode>
							<media>
								<video>
									<samplecharacteristics>
										<rate>
											<timebase>25</timebase>
											<ntsc>FALSE</ntsc>
										</rate>
										<width>1920</width>
										<height>1080</height>
										<anamorphic>FALSE</anamorphic>
										<pixelaspectratio>square</pixelaspectratio>
										<fielddominance>upper</fielddominance>
									</samplecharacteristics>
								</video>
								<audio>
									<samplecharacteristics>
										<depth>16</depth>
										<samplerate>48000</samplerate>
									</samplecharacteristics>
									<channelcount>8</channelcount>
								</audio>
							</media>
						</file>
							<marker>
								<comment></comment>
								<name>Fugleturisme - del 4</name>
								<in>32246</in>
								<out>33673</out>
							</marker>
							<marker>
								<comment></comment>
								<name>Frankmotunet - del 1</name>
								<in>5947</in>
								<out>12861</out>
							</marker>
							<marker>
								<comment></comment>
								<name>Fugleturisme - del 2</name>
								<in>12862</in>
								<out>16789</out>
							</marker>
							<marker>
								<comment></comment>
								<name>Seervideo - Hareunge</name>
								<in>41155</in>
								<out>41680</out>
							</marker>
							<marker>
								<comment></comment>
								<name>Fugleturisme - del 5</name>
								<in>41682</in>
								<out>43802</out>
							</marker>
							<marker>
								<comment></comment>
								<name>Mat fra Naturen - strutseving</name>
								<in>33675</in>
								<out>36872</out>
							</marker>
							<marker>
								<comment></comment>
								<name>Fugleturisme</name>
								<in>27</in>
								<out>5946</out>
							</marker>
							<marker>
								<comment></comment>
								<name>Seervideo - Snømus</name>
								<in>39066</in>
								<out>40295</out>
							</marker>
							<marker>
								<comment></comment>
								<name>Fugleturisme - del 3</name>
								<in>22630</in>
								<out>25483</out>
							</marker>
							<marker>
								<comment></comment>
								<name>Seervideo - Ekornmor</name>
								<in>36873</in>
								<out>38171</out>
							</marker>
							<marker>
								<comment></comment>
								<name>Seervideo - Havørn</name>
								<in>40296</in>
								<out>41153</out>
							</marker>
							<marker>
								<comment></comment>
								<name>Frankmotunet - del 2</name>
								<in>25484</in>
								<out>32244</out>
							</marker>
							<marker>
								<comment></comment>
								<name>Seervideo - Spurveugle</name>
								<in>38172</in>
								<out>39065</out>
							</marker>
							<marker>
								<comment></comment>
								<name>Bever</name>
								<in>16790</in>
								<out>22629</out>
							</marker>
						<link>
							<linkclipref>clipitem-147</linkclipref>
							<mediatype>video</mediatype>
							<trackindex>1</trackindex>
							<clipindex>156</clipindex>
						</link>
						<link>
							<linkclipref>clipitem-780</linkclipref>
							<mediatype>audio</mediatype>
							<trackindex>8</trackindex>
							<clipindex>76</clipindex>
							<groupindex>1</groupindex>
						</link>
						<logginginfo>
							<description>Ut i naturen (5:12 @ Ut i naturen)</description>
							<scene></scene>
							<shottake></shottake>
							<lognote></lognote>
						</logginginfo>
						<labels>
							<label2>Iris</label2>
						</labels>
					</clipitem>
					<clipitem id="clipitem-148">
						<masterclipid>masterclip-106</masterclipid>
						<name>620_0749.MXF</name>
						<enabled>TRUE</enabled>
						<duration>1670</duration>
						<rate>
							<timebase>25</timebase>
							<ntsc>FALSE</ntsc>
						</rate>
						<start>38666</start>
						<end>38829</end>
						<in>1385</in>
						<out>1548</out>
						<pproTicksIn>14072486400000</pproTicksIn>
						<pproTicksOut>15728670720000</pproTicksOut>
						<alphatype>none</alphatype>
						<pixelaspectratio>square</pixelaspectratio>
						<anamorphic>FALSE</anamorphic>
						<file id="file-106">
							<name>620_0749.MXF</name>
							<pathurl>file://localhost/Volumes/Vaagen/Prosjekter/DVNA210116_Horn%c3%b8ya_Nordvisjonen_010317_TGP/Bakomfilm/Intervju%20Nils%20Arne/620_0749.MXF</pathurl>
							<rate>
								<timebase>50</timebase>
								<ntsc>FALSE</ntsc>
							</rate>
							<duration>3340</duration>
							<timecode>
								<rate>
									<timebase>50</timebase>
									<ntsc>FALSE</ntsc>
								</rate>
								<string>16:33:48:04</string>
								<frame>2981404</frame>
								<displayformat>NDF</displayformat>
								<reel>
									<name></name>
								</reel>
							</timecode>
							<media>
								<video>
									<samplecharacteristics>
										<rate>
											<timebase>50</timebase>
											<ntsc>FALSE</ntsc>
										</rate>
										<width>1920</width>
										<height>1080</height>
										<anamorphic>FALSE</anamorphic>
										<pixelaspectratio>square</pixelaspectratio>
										<fielddominance>none</fielddominance>
									</samplecharacteristics>
								</video>
								<audio>
									<samplecharacteristics>
										<depth>16</depth>
										<samplerate>48000</samplerate>
									</samplecharacteristics>
									<channelcount>8</channelcount>
								</audio>
							</media>
						</file>
						<logginginfo>
							<description></description>
							<scene></scene>
							<shottake></shottake>
							<lognote></lognote>
						</logginginfo>
						<labels>
							<label2>Iris</label2>
						</labels>
					</clipitem>
					<clipitem id="clipitem-149">
						<masterclipid>masterclip-107</masterclipid>
						<name>620_0739.MXF</name>
						<enabled>TRUE</enabled>
						<duration>6562</duration>
						<rate>
							<timebase>25</timebase>
							<ntsc>FALSE</ntsc>
						</rate>
						<start>39363</start>
						<end>39736</end>
						<in>804</in>
						<out>1177</out>
						<pproTicksIn>8169154560000</pproTicksIn>
						<pproTicksOut>11959073280000</pproTicksOut>
						<alphatype>none</alphatype>
						<pixelaspectratio>square</pixelaspectratio>
						<anamorphic>FALSE</anamorphic>
						<file id="file-107">
							<name>620_0739.MXF</name>
							<pathurl>file://localhost/Volumes/Vaagen/Prosjekter/DVNA210116_Horn%c3%b8ya_Nordvisjonen_010317_TGP/Bakomfilm/Intervju%20Nils%20Arne/620_0739.MXF</pathurl>
							<rate>
								<timebase>50</timebase>
								<ntsc>FALSE</ntsc>
							</rate>
							<duration>13124</duration>
							<timecode>
								<rate>
									<timebase>50</timebase>
									<ntsc>FALSE</ntsc>
								</rate>
								<string>16:11:42:42</string>
								<frame>2915142</frame>
								<displayformat>NDF</displayformat>
								<reel>
									<name></name>
								</reel>
							</timecode>
							<media>
								<video>
									<samplecharacteristics>
										<rate>
											<timebase>50</timebase>
											<ntsc>FALSE</ntsc>
										</rate>
										<width>1920</width>
										<height>1080</height>
										<anamorphic>FALSE</anamorphic>
										<pixelaspectratio>square</pixelaspectratio>
										<fielddominance>none</fielddominance>
									</samplecharacteristics>
								</video>
								<audio>
									<samplecharacteristics>
										<depth>16</depth>
										<samplerate>48000</samplerate>
									</samplecharacteristics>
									<channelcount>8</channelcount>
								</audio>
							</media>
						</file>
						<link>
							<linkclipref>clipitem-149</linkclipref>
							<mediatype>video</mediatype>
							<trackindex>1</trackindex>
							<clipindex>158</clipindex>
						</link>
						<link>
							<linkclipref>clipitem-568</linkclipref>
							<mediatype>audio</mediatype>
							<trackindex>1</trackindex>
							<clipindex>79</clipindex>
							<groupindex>1</groupindex>
						</link>
						<logginginfo>
							<description></description>
							<scene></scene>
							<shottake></shottake>
							<lognote></lognote>
						</logginginfo>
						<labels>
							<label2>Iris</label2>
						</labels>
					</clipitem>
					<clipitem id="clipitem-150">
						<masterclipid>masterclip-108</masterclipid>
						<name>00067.MTS</name>
						<enabled>TRUE</enabled>
						<duration>858</duration>
						<rate>
							<timebase>25</timebase>
							<ntsc>FALSE</ntsc>
						</rate>
						<start>39823</start>
						<end>40134</end>
						<in>124</in>
						<out>435</out>
						<pproTicksIn>1259919360000</pproTicksIn>
						<pproTicksOut>4419878400000</pproTicksOut>
						<alphatype>black</alphatype>
						<pixelaspectratio>square</pixelaspectratio>
						<anamorphic>FALSE</anamorphic>
						<file id="file-108">
							<name>00067.MTS</name>
							<pathurl>file://localhost/Volumes/Vaagen/Prosjekter/DVNA210116_Horn%c3%b8ya_Nordvisjonen_010317_TGP/Bakomfilm/rigging%20april%2015/00067.MTS</pathurl>
							<rate>
								<timebase>25</timebase>
								<ntsc>FALSE</ntsc>
							</rate>
							<duration>858</duration>
							<timecode>
								<rate>
									<timebase>25</timebase>
									<ntsc>FALSE</ntsc>
								</rate>
								<string>00:00:00:00</string>
								<frame>0</frame>
								<displayformat>NDF</displayformat>
								<reel>
									<name></name>
								</reel>
							</timecode>
							<media>
								<video>
									<samplecharacteristics>
										<rate>
											<timebase>25</timebase>
											<ntsc>FALSE</ntsc>
										</rate>
										<width>1920</width>
										<height>1080</height>
										<anamorphic>FALSE</anamorphic>
										<pixelaspectratio>square</pixelaspectratio>
										<fielddominance>upper</fielddominance>
									</samplecharacteristics>
								</video>
								<audio>
									<samplecharacteristics>
										<depth>16</depth>
										<samplerate>48000</samplerate>
									</samplecharacteristics>
									<channelcount>2</channelcount>
								</audio>
							</media>
						</file>
						<logginginfo>
							<description></description>
							<scene></scene>
							<shottake></shottake>
							<lognote></lognote>
						</logginginfo>
						<labels>
							<label2>Iris</label2>
						</labels>
					</clipitem>
					<clipitem id="clipitem-151">
						<masterclipid>masterclip-107</masterclipid>
						<name>620_0739.MXF</name>
						<enabled>TRUE</enabled>
						<duration>6562</duration>
						<rate>
							<timebase>25</timebase>
							<ntsc>FALSE</ntsc>
						</rate>
						<start>40176</start>
						<end>40420</end>
						<in>2314</in>
						<out>2558</out>
						<pproTicksIn>23511720960000</pproTicksIn>
						<pproTicksOut>25990917120000</pproTicksOut>
						<alphatype>none</alphatype>
						<file id="file-107"/>
						<logginginfo>
							<description></description>
							<scene></scene>
							<shottake></shottake>
							<lognote></lognote>
						</logginginfo>
						<labels>
							<label2>Iris</label2>
						</labels>
					</clipitem>
					<clipitem id="clipitem-152">
						<masterclipid>masterclip-107</masterclipid>
						<name>620_0739.MXF</name>
						<enabled>TRUE</enabled>
						<duration>6562</duration>
						<rate>
							<timebase>25</timebase>
							<ntsc>FALSE</ntsc>
						</rate>
						<start>40489</start>
						<end>40558</end>
						<in>2627</in>
						<out>2696</out>
						<pproTicksIn>26692001280000</pproTicksIn>
						<pproTicksOut>27393085440000</pproTicksOut>
						<alphatype>none</alphatype>
						<file id="file-107"/>
						<logginginfo>
							<description></description>
							<scene></scene>
							<shottake></shottake>
							<lognote></lognote>
						</logginginfo>
						<labels>
							<label2>Iris</label2>
						</labels>
					</clipitem>
					<clipitem id="clipitem-153">
						<masterclipid>masterclip-107</masterclipid>
						<name>620_0739.MXF</name>
						<enabled>TRUE</enabled>
						<duration>6562</duration>
						<rate>
							<timebase>25</timebase>
							<ntsc>FALSE</ntsc>
						</rate>
						<start>40990</start>
						<end>41251</end>
						<in>3059</in>
						<out>3320</out>
						<pproTicksIn>31081397760000</pproTicksIn>
						<pproTicksOut>33733324800000</pproTicksOut>
						<alphatype>none</alphatype>
						<file id="file-107"/>
						<link>
							<linkclipref>clipitem-153</linkclipref>
							<mediatype>video</mediatype>
							<trackindex>1</trackindex>
							<clipindex>162</clipindex>
						</link>
						<link>
							<linkclipref>clipitem-570</linkclipref>
							<mediatype>audio</mediatype>
							<trackindex>1</trackindex>
							<clipindex>81</clipindex>
							<groupindex>1</groupindex>
						</link>
						<logginginfo>
							<description></description>
							<scene></scene>
							<shottake></shottake>
							<lognote></lognote>
						</logginginfo>
						<labels>
							<label2>Iris</label2>
						</labels>
					</clipitem>
					<clipitem id="clipitem-154">
						<masterclipid>masterclip-107</masterclipid>
						<name>620_0739.MXF</name>
						<enabled>TRUE</enabled>
						<duration>6562</duration>
						<rate>
							<timebase>25</timebase>
							<ntsc>FALSE</ntsc>
						</rate>
						<start>41580</start>
						<end>42128</end>
						<in>4026</in>
						<out>4574</out>
						<pproTicksIn>40906736640000</pproTicksIn>
						<pproTicksOut>46474767360000</pproTicksOut>
						<alphatype>none</alphatype>
						<file id="file-107"/>
						<link>
							<linkclipref>clipitem-154</linkclipref>
							<mediatype>video</mediatype>
							<trackindex>1</trackindex>
							<clipindex>163</clipindex>
						</link>
						<link>
							<linkclipref>clipitem-571</linkclipref>
							<mediatype>audio</mediatype>
							<trackindex>1</trackindex>
							<clipindex>82</clipindex>
							<groupindex>1</groupindex>
						</link>
						<logginginfo>
							<description></description>
							<scene></scene>
							<shottake></shottake>
							<lognote></lognote>
						</logginginfo>
						<labels>
							<label2>Iris</label2>
						</labels>
					</clipitem>
					<clipitem id="clipitem-155">
						<masterclipid>masterclip-107</masterclipid>
						<name>620_0739.MXF</name>
						<enabled>TRUE</enabled>
						<duration>6562</duration>
						<rate>
							<timebase>25</timebase>
							<ntsc>FALSE</ntsc>
						</rate>
						<start>42580</start>
						<end>43486</end>
						<in>5103</in>
						<out>6009</out>
						<pproTicksIn>51849745920000</pproTicksIn>
						<pproTicksOut>61055285760000</pproTicksOut>
						<alphatype>none</alphatype>
						<file id="file-107"/>
						<link>
							<linkclipref>clipitem-155</linkclipref>
							<mediatype>video</mediatype>
							<trackindex>1</trackindex>
							<clipindex>164</clipindex>
						</link>
						<link>
							<linkclipref>clipitem-572</linkclipref>
							<mediatype>audio</mediatype>
							<trackindex>1</trackindex>
							<clipindex>83</clipindex>
							<groupindex>1</groupindex>
						</link>
						<logginginfo>
							<description></description>
							<scene></scene>
							<shottake></shottake>
							<lognote></lognote>
						</logginginfo>
						<labels>
							<label2>Iris</label2>
						</labels>
					</clipitem>
					<clipitem id="clipitem-156">
						<masterclipid>masterclip-109</masterclipid>
						<name>620_0740.MXF</name>
						<enabled>TRUE</enabled>
						<duration>8287</duration>
						<rate>
							<timebase>25</timebase>
							<ntsc>FALSE</ntsc>
						</rate>
						<start>44480</start>
						<end>44700</end>
						<in>1223</in>
						<out>1443</out>
						<pproTicksIn>12426462720000</pproTicksIn>
						<pproTicksOut>14661803520000</pproTicksOut>
						<alphatype>none</alphatype>
						<pixelaspectratio>square</pixelaspectratio>
						<anamorphic>FALSE</anamorphic>
						<file id="file-109">
							<name>620_0740.MXF</name>
							<pathurl>file://localhost/Volumes/Vaagen/Prosjekter/DVNA210116_Horn%c3%b8ya_Nordvisjonen_010317_TGP/Bakomfilm/Intervju%20Nils%20Arne/620_0740.MXF</pathurl>
							<rate>
								<timebase>50</timebase>
								<ntsc>FALSE</ntsc>
							</rate>
							<duration>16574</duration>
							<timecode>
								<rate>
									<timebase>50</timebase>
									<ntsc>FALSE</ntsc>
								</rate>
								<string>16:16:05:16</string>
								<frame>2928266</frame>
								<displayformat>NDF</displayformat>
								<reel>
									<name></name>
								</reel>
							</timecode>
							<media>
								<video>
									<samplecharacteristics>
										<rate>
											<timebase>50</timebase>
											<ntsc>FALSE</ntsc>
										</rate>
										<width>1920</width>
										<height>1080</height>
										<anamorphic>FALSE</anamorphic>
										<pixelaspectratio>square</pixelaspectratio>
										<fielddominance>none</fielddominance>
									</samplecharacteristics>
								</video>
								<audio>
									<samplecharacteristics>
										<depth>16</depth>
										<samplerate>48000</samplerate>
									</samplecharacteristics>
									<channelcount>8</channelcount>
								</audio>
							</media>
						</file>
						<logginginfo>
							<description></description>
							<scene></scene>
							<shottake></shottake>
							<lognote></lognote>
						</logginginfo>
						<labels>
							<label2>Iris</label2>
						</labels>
					</clipitem>
					<clipitem id="clipitem-157">
						<masterclipid>masterclip-109</masterclipid>
						<name>620_0740.MXF</name>
						<enabled>TRUE</enabled>
						<duration>8287</duration>
						<rate>
							<timebase>25</timebase>
							<ntsc>FALSE</ntsc>
						</rate>
						<start>45222</start>
						<end>45772</end>
						<in>1710</in>
						<out>2260</out>
						<pproTicksIn>17374694400000</pproTicksIn>
						<pproTicksOut>22963046400000</pproTicksOut>
						<alphatype>none</alphatype>
						<file id="file-109"/>
						<link>
							<linkclipref>clipitem-157</linkclipref>
							<mediatype>video</mediatype>
							<trackindex>1</trackindex>
							<clipindex>166</clipindex>
						</link>
						<link>
							<linkclipref>clipitem-573</linkclipref>
							<mediatype>audio</mediatype>
							<trackindex>1</trackindex>
							<clipindex>84</clipindex>
							<groupindex>1</groupindex>
						</link>
						<logginginfo>
							<description></description>
							<scene></scene>
							<shottake></shottake>
							<lognote></lognote>
						</logginginfo>
						<labels>
							<label2>Iris</label2>
						</labels>
					</clipitem>
					<clipitem id="clipitem-158">
						<masterclipid>masterclip-109</masterclipid>
						<name>620_0740.MXF</name>
						<enabled>TRUE</enabled>
						<duration>8287</duration>
						<rate>
							<timebase>25</timebase>
							<ntsc>FALSE</ntsc>
						</rate>
						<start>45780</start>
						<end>45843</end>
						<in>2455</in>
						<out>2518</out>
						<pproTicksIn>24944371200000</pproTicksIn>
						<pproTicksOut>25584491520000</pproTicksOut>
						<alphatype>none</alphatype>
						<file id="file-109"/>
						<link>
							<linkclipref>clipitem-158</linkclipref>
							<mediatype>video</mediatype>
							<trackindex>1</trackindex>
							<clipindex>167</clipindex>
						</link>
						<link>
							<linkclipref>clipitem-575</linkclipref>
							<mediatype>audio</mediatype>
							<trackindex>1</trackindex>
							<clipindex>86</clipindex>
							<groupindex>1</groupindex>
						</link>
						<logginginfo>
							<description></description>
							<scene></scene>
							<shottake></shottake>
							<lognote></lognote>
						</logginginfo>
						<labels>
							<label2>Iris</label2>
						</labels>
					</clipitem>
					<clipitem id="clipitem-159">
						<masterclipid>masterclip-110</masterclipid>
						<name>NRK2-250616.mxf</name>
						<enabled>TRUE</enabled>
						<duration>186000</duration>
						<rate>
							<timebase>25</timebase>
							<ntsc>FALSE</ntsc>
						</rate>
						<start>45843</start>
						<end>-1</end>
						<in>67714</in>
						<out>67827</out>
						<pproTicksIn>688017576960000</pproTicksIn>
						<pproTicksOut>689165729280000</pproTicksOut>
						<alphatype>none</alphatype>
						<pixelaspectratio>square</pixelaspectratio>
						<anamorphic>FALSE</anamorphic>
						<file id="file-110">
							<name>DVNA25001016AU.mxf</name>
							<pathurl>file://localhost/Volumes/Vaagen/Prosjekter/DVNA210116_Horn%c3%b8ya_Nordvisjonen_010317_TGP/Horn%c3%b8ya%20Trond/NRK2sendinger/DVNA25001016AU.mxf</pathurl>
							<rate>
								<timebase>25</timebase>
								<ntsc>FALSE</ntsc>
							</rate>
							<duration>186000</duration>
							<timecode>
								<rate>
									<timebase>25</timebase>
									<ntsc>FALSE</ntsc>
								</rate>
								<string>21:55:00:00</string>
								<frame>1972500</frame>
								<displayformat>NDF</displayformat>
								<reel>
									<name></name>
								</reel>
							</timecode>
							<media>
								<video>
									<samplecharacteristics>
										<rate>
											<timebase>25</timebase>
											<ntsc>FALSE</ntsc>
										</rate>
										<width>1920</width>
										<height>1080</height>
										<anamorphic>FALSE</anamorphic>
										<pixelaspectratio>square</pixelaspectratio>
										<fielddominance>upper</fielddominance>
									</samplecharacteristics>
								</video>
								<audio>
									<samplecharacteristics>
										<depth>16</depth>
										<samplerate>48000</samplerate>
									</samplecharacteristics>
									<channelcount>2</channelcount>
								</audio>
								<audio>
									<samplecharacteristics>
										<depth>16</depth>
										<samplerate>48000</samplerate>
									</samplecharacteristics>
									<channelcount>2</channelcount>
								</audio>
								<audio>
									<samplecharacteristics>
										<depth>16</depth>
										<samplerate>48000</samplerate>
									</samplecharacteristics>
									<channelcount>2</channelcount>
								</audio>
							</media>
						</file>
						<link>
							<linkclipref>clipitem-159</linkclipref>
							<mediatype>video</mediatype>
							<trackindex>1</trackindex>
							<clipindex>168</clipindex>
						</link>
						<link>
							<linkclipref>clipitem-1233</linkclipref>
							<mediatype>audio</mediatype>
							<trackindex>12</trackindex>
							<clipindex>67</clipindex>
							<groupindex>1</groupindex>
						</link>
						<link>
							<linkclipref>clipitem-1318</linkclipref>
							<mediatype>audio</mediatype>
							<trackindex>13</trackindex>
							<clipindex>67</clipindex>
							<groupindex>1</groupindex>
						</link>
						<logginginfo>
							<description>Program 10</description>
							<scene></scene>
							<shottake></shottake>
							<lognote></lognote>
						</logginginfo>
						<labels>
							<label2>Iris</label2>
						</labels>
					</clipitem>
					<transitionitem>
						<start>45939</start>
						<end>45956</end>
						<alignment>center</alignment>
						<cutPointTicks>81285120000</cutPointTicks>
						<rate>
							<timebase>25</timebase>
							<ntsc>FALSE</ntsc>
						</rate>
						<effect>
							<name>Cross Dissolve</name>
							<effectid>Cross Dissolve</effectid>
							<effectcategory>Dissolve</effectcategory>
							<effecttype>transition</effecttype>
							<mediatype>video</mediatype>
							<wipecode>0</wipecode>
							<wipeaccuracy>100</wipeaccuracy>
							<startratio>0</startratio>
							<endratio>1</endratio>
							<reverse>FALSE</reverse>
						</effect>
					</transitionitem>
					<clipitem id="clipitem-160">
						<masterclipid>masterclip-111</masterclipid>
						<name>NRK1-PGM-120716.mxf</name>
						<enabled>TRUE</enabled>
						<duration>81000</duration>
						<rate>
							<timebase>25</timebase>
							<ntsc>FALSE</ntsc>
						</rate>
						<start>-1</start>
						<end>46028</end>
						<in>29942</in>
						<out>30031</out>
						<pproTicksIn>304229882880000</pproTicksIn>
						<pproTicksOut>305134179840000</pproTicksOut>
						<alphatype>none</alphatype>
						<pixelaspectratio>square</pixelaspectratio>
						<anamorphic>FALSE</anamorphic>
						<file id="file-111">
							<name>DVNA20000916AU.mxf</name>
							<pathurl>file://localhost/Volumes/Vaagen/Prosjekter/DVNA210116_Horn%c3%b8ya_Nordvisjonen_010317_TGP/NRK1sendinger/DVNA20000916AU.mxf</pathurl>
							<rate>
								<timebase>25</timebase>
								<ntsc>FALSE</ntsc>
							</rate>
							<duration>81000</duration>
							<timecode>
								<rate>
									<timebase>25</timebase>
									<ntsc>FALSE</ntsc>
								</rate>
								<string>16:04:55:00</string>
								<frame>1447375</frame>
								<displayformat>NDF</displayformat>
								<reel>
									<name></name>
								</reel>
							</timecode>
							<media>
								<video>
									<samplecharacteristics>
										<rate>
											<timebase>25</timebase>
											<ntsc>FALSE</ntsc>
										</rate>
										<width>1920</width>
										<height>1080</height>
										<anamorphic>FALSE</anamorphic>
										<pixelaspectratio>square</pixelaspectratio>
										<fielddominance>upper</fielddominance>
									</samplecharacteristics>
								</video>
								<audio>
									<samplecharacteristics>
										<depth>16</depth>
										<samplerate>48000</samplerate>
									</samplecharacteristics>
									<channelcount>8</channelcount>
								</audio>
							</media>
						</file>
						<logginginfo>
							<description>DVNA20000916</description>
							<scene></scene>
							<shottake></shottake>
							<lognote></lognote>
						</logginginfo>
						<labels>
							<label2>Iris</label2>
						</labels>
					</clipitem>
					<clipitem id="clipitem-161">
						<masterclipid>masterclip-109</masterclipid>
						<name>620_0740.MXF</name>
						<enabled>TRUE</enabled>
						<duration>8287</duration>
						<rate>
							<timebase>25</timebase>
							<ntsc>FALSE</ntsc>
						</rate>
						<start>47518</start>
						<end>47762</end>
						<in>3443</in>
						<out>3687</out>
						<pproTicksIn>34983083520000</pproTicksIn>
						<pproTicksOut>37462279680000</pproTicksOut>
						<alphatype>none</alphatype>
						<file id="file-109"/>
						<link>
							<linkclipref>clipitem-161</linkclipref>
							<mediatype>video</mediatype>
							<trackindex>1</trackindex>
							<clipindex>171</clipindex>
						</link>
						<link>
							<linkclipref>clipitem-576</linkclipref>
							<mediatype>audio</mediatype>
							<trackindex>1</trackindex>
							<clipindex>87</clipindex>
							<groupindex>1</groupindex>
						</link>
						<logginginfo>
							<description></description>
							<scene></scene>
							<shottake></shottake>
							<lognote></lognote>
						</logginginfo>
						<labels>
							<label2>Iris</label2>
						</labels>
					</clipitem>
					<clipitem id="clipitem-162">
						<masterclipid>masterclip-109</masterclipid>
						<name>620_0740.MXF</name>
						<enabled>TRUE</enabled>
						<duration>8287</duration>
						<rate>
							<timebase>25</timebase>
							<ntsc>FALSE</ntsc>
						</rate>
						<start>48032</start>
						<end>48908</end>
						<in>3687</in>
						<out>4563</out>
						<pproTicksIn>37462279680000</pproTicksIn>
						<pproTicksOut>46363000320000</pproTicksOut>
						<alphatype>none</alphatype>
						<file id="file-109"/>
						<logginginfo>
							<description></description>
							<scene></scene>
							<shottake></shottake>
							<lognote></lognote>
						</logginginfo>
						<labels>
							<label2>Iris</label2>
						</labels>
					</clipitem>
					<clipitem id="clipitem-163">
						<masterclipid>masterclip-109</masterclipid>
						<name>620_0740.MXF</name>
						<enabled>TRUE</enabled>
						<duration>8287</duration>
						<rate>
							<timebase>25</timebase>
							<ntsc>FALSE</ntsc>
						</rate>
						<start>49358</start>
						<end>49821</end>
						<in>4764</in>
						<out>5227</out>
						<pproTicksIn>48405288960000</pproTicksIn>
						<pproTicksOut>53109665280000</pproTicksOut>
						<alphatype>none</alphatype>
						<file id="file-109"/>
						<link>
							<linkclipref>clipitem-163</linkclipref>
							<mediatype>video</mediatype>
							<trackindex>1</trackindex>
							<clipindex>173</clipindex>
						</link>
						<link>
							<linkclipref>clipitem-578</linkclipref>
							<mediatype>audio</mediatype>
							<trackindex>1</trackindex>
							<clipindex>89</clipindex>
							<groupindex>1</groupindex>
						</link>
						<logginginfo>
							<description></description>
							<scene></scene>
							<shottake></shottake>
							<lognote></lognote>
						</logginginfo>
						<labels>
							<label2>Iris</label2>
						</labels>
					</clipitem>
					<clipitem id="clipitem-164">
						<masterclipid>masterclip-109</masterclipid>
						<name>620_0740.MXF</name>
						<enabled>TRUE</enabled>
						<duration>8287</duration>
						<rate>
							<timebase>25</timebase>
							<ntsc>FALSE</ntsc>
						</rate>
						<start>49821</start>
						<end>50438</end>
						<in>5246</in>
						<out>5864</out>
						<pproTicksIn>53302717440000</pproTicksIn>
						<pproTicksOut>59581992960000</pproTicksOut>
						<alphatype>none</alphatype>
						<file id="file-109"/>
						<link>
							<linkclipref>clipitem-164</linkclipref>
							<mediatype>video</mediatype>
							<trackindex>1</trackindex>
							<clipindex>174</clipindex>
						</link>
						<link>
							<linkclipref>clipitem-579</linkclipref>
							<mediatype>audio</mediatype>
							<trackindex>1</trackindex>
							<clipindex>90</clipindex>
							<groupindex>1</groupindex>
						</link>
						<logginginfo>
							<description></description>
							<scene></scene>
							<shottake></shottake>
							<lognote></lognote>
						</logginginfo>
						<labels>
							<label2>Iris</label2>
						</labels>
					</clipitem>
					<clipitem id="clipitem-165">
						<masterclipid>masterclip-109</masterclipid>
						<name>620_0740.MXF</name>
						<enabled>TRUE</enabled>
						<duration>8287</duration>
						<rate>
							<timebase>25</timebase>
							<ntsc>FALSE</ntsc>
						</rate>
						<start>50438</start>
						<end>50439</end>
						<in>5871</in>
						<out>5872</out>
						<pproTicksIn>59653117440000</pproTicksIn>
						<pproTicksOut>59663278080000</pproTicksOut>
						<alphatype>none</alphatype>
						<file id="file-109"/>
						<logginginfo>
							<description></description>
							<scene></scene>
							<shottake></shottake>
							<lognote></lognote>
						</logginginfo>
						<labels>
							<label2>Iris</label2>
						</labels>
					</clipitem>
					<clipitem id="clipitem-166">
						<masterclipid>masterclip-112</masterclipid>
						<name>620_0741.MXF</name>
						<enabled>TRUE</enabled>
						<duration>3451</duration>
						<rate>
							<timebase>25</timebase>
							<ntsc>FALSE</ntsc>
						</rate>
						<start>50564</start>
						<end>51020</end>
						<in>90</in>
						<out>546</out>
						<pproTicksIn>914457600000</pproTicksIn>
						<pproTicksOut>5547709440000</pproTicksOut>
						<alphatype>none</alphatype>
						<pixelaspectratio>square</pixelaspectratio>
						<anamorphic>FALSE</anamorphic>
						<file id="file-112">
							<name>620_0741.MXF</name>
							<pathurl>file://localhost/Volumes/Vaagen/Prosjekter/DVNA210116_Horn%c3%b8ya_Nordvisjonen_010317_TGP/Bakomfilm/Intervju%20Nils%20Arne/620_0741.MXF</pathurl>
							<rate>
								<timebase>50</timebase>
								<ntsc>FALSE</ntsc>
							</rate>
							<duration>6902</duration>
							<timecode>
								<rate>
									<timebase>50</timebase>
									<ntsc>FALSE</ntsc>
								</rate>
								<string>16:21:36:40</string>
								<frame>2944840</frame>
								<displayformat>NDF</displayformat>
								<reel>
									<name></name>
								</reel>
							</timecode>
							<media>
								<video>
									<samplecharacteristics>
										<rate>
											<timebase>50</timebase>
											<ntsc>FALSE</ntsc>
										</rate>
										<width>1920</width>
										<height>1080</height>
										<anamorphic>FALSE</anamorphic>
										<pixelaspectratio>square</pixelaspectratio>
										<fielddominance>none</fielddominance>
									</samplecharacteristics>
								</video>
								<audio>
									<samplecharacteristics>
										<depth>16</depth>
										<samplerate>48000</samplerate>
									</samplecharacteristics>
									<channelcount>8</channelcount>
								</audio>
							</media>
						</file>
						<link>
							<linkclipref>clipitem-166</linkclipref>
							<mediatype>video</mediatype>
							<trackindex>1</trackindex>
							<clipindex>176</clipindex>
						</link>
						<link>
							<linkclipref>clipitem-580</linkclipref>
							<mediatype>audio</mediatype>
							<trackindex>1</trackindex>
							<clipindex>91</clipindex>
							<groupindex>1</groupindex>
						</link>
						<logginginfo>
							<description></description>
							<scene></scene>
							<shottake></shottake>
							<lognote></lognote>
						</logginginfo>
						<labels>
							<label2>Iris</label2>
						</labels>
					</clipitem>
					<clipitem id="clipitem-167">
						<masterclipid>masterclip-113</masterclipid>
						<name>620_0743.MXF</name>
						<enabled>TRUE</enabled>
						<duration>3499</duration>
						<rate>
							<timebase>25</timebase>
							<ntsc>FALSE</ntsc>
						</rate>
						<start>52020</start>
						<end>52427</end>
						<in>1867</in>
						<out>2275</out>
						<pproTicksIn>18969914880000</pproTicksIn>
						<pproTicksOut>23115456000000</pproTicksOut>
						<alphatype>none</alphatype>
						<pixelaspectratio>square</pixelaspectratio>
						<anamorphic>FALSE</anamorphic>
						<file id="file-113">
							<name>620_0743.MXF</name>
							<pathurl>file://localhost/Volumes/Vaagen/Prosjekter/DVNA210116_Horn%c3%b8ya_Nordvisjonen_010317_TGP/Bakomfilm/Intervju%20Nils%20Arne/620_0743.MXF</pathurl>
							<rate>
								<timebase>50</timebase>
								<ntsc>FALSE</ntsc>
							</rate>
							<duration>6998</duration>
							<timecode>
								<rate>
									<timebase>50</timebase>
									<ntsc>FALSE</ntsc>
								</rate>
								<string>16:25:28:40</string>
								<frame>2956440</frame>
								<displayformat>NDF</displayformat>
								<reel>
									<name></name>
								</reel>
							</timecode>
							<media>
								<video>
									<samplecharacteristics>
										<rate>
											<timebase>50</timebase>
											<ntsc>FALSE</ntsc>
										</rate>
										<width>1920</width>
										<height>1080</height>
										<anamorphic>FALSE</anamorphic>
										<pixelaspectratio>square</pixelaspectratio>
										<fielddominance>none</fielddominance>
									</samplecharacteristics>
								</video>
								<audio>
									<samplecharacteristics>
										<depth>16</depth>
										<samplerate>48000</samplerate>
									</samplecharacteristics>
									<channelcount>8</channelcount>
								</audio>
							</media>
						</file>
						<link>
							<linkclipref>clipitem-167</linkclipref>
							<mediatype>video</mediatype>
							<trackindex>1</trackindex>
							<clipindex>177</clipindex>
						</link>
						<link>
							<linkclipref>clipitem-581</linkclipref>
							<mediatype>audio</mediatype>
							<trackindex>1</trackindex>
							<clipindex>92</clipindex>
							<groupindex>1</groupindex>
						</link>
						<logginginfo>
							<description></description>
							<scene></scene>
							<shottake></shottake>
							<lognote></lognote>
						</logginginfo>
						<labels>
							<label2>Iris</label2>
						</labels>
					</clipitem>
					<clipitem id="clipitem-168">
						<masterclipid>masterclip-114</masterclipid>
						<name>620_0750.MXF</name>
						<enabled>TRUE</enabled>
						<duration>883</duration>
						<rate>
							<timebase>25</timebase>
							<ntsc>FALSE</ntsc>
						</rate>
						<start>54335</start>
						<end>54848</end>
						<in>244</in>
						<out>757</out>
						<pproTicksIn>2479196160000</pproTicksIn>
						<pproTicksOut>7691604480000</pproTicksOut>
						<alphatype>none</alphatype>
						<pixelaspectratio>square</pixelaspectratio>
						<anamorphic>FALSE</anamorphic>
						<file id="file-114">
							<name>620_0750.MXF</name>
							<pathurl>file://localhost/Volumes/Vaagen/Prosjekter/DVNA210116_Horn%c3%b8ya_Nordvisjonen_010317_TGP/Bakomfilm/Intervju%20Nils%20Arne/620_0750.MXF</pathurl>
							<rate>
								<timebase>50</timebase>
								<ntsc>FALSE</ntsc>
							</rate>
							<duration>1766</duration>
							<timecode>
								<rate>
									<timebase>50</timebase>
									<ntsc>FALSE</ntsc>
								</rate>
								<string>16:34:54:44</string>
								<frame>2984744</frame>
								<displayformat>NDF</displayformat>
								<reel>
									<name></name>
								</reel>
							</timecode>
							<media>
								<video>
									<samplecharacteristics>
										<rate>
											<timebase>50</timebase>
											<ntsc>FALSE</ntsc>
										</rate>
										<width>1920</width>
										<height>1080</height>
										<anamorphic>FALSE</anamorphic>
										<pixelaspectratio>square</pixelaspectratio>
										<fielddominance>none</fielddominance>
									</samplecharacteristics>
								</video>
								<audio>
									<samplecharacteristics>
										<depth>16</depth>
										<samplerate>48000</samplerate>
									</samplecharacteristics>
									<channelcount>8</channelcount>
								</audio>
							</media>
						</file>
						<link>
							<linkclipref>clipitem-168</linkclipref>
							<mediatype>video</mediatype>
							<trackindex>1</trackindex>
							<clipindex>178</clipindex>
						</link>
						<link>
							<linkclipref>clipitem-582</linkclipref>
							<mediatype>audio</mediatype>
							<trackindex>1</trackindex>
							<clipindex>93</clipindex>
							<groupindex>1</groupindex>
						</link>
						<logginginfo>
							<description></description>
							<scene></scene>
							<shottake></shottake>
							<lognote></lognote>
						</logginginfo>
						<labels>
							<label2>Iris</label2>
						</labels>
					</clipitem>
					<clipitem id="clipitem-169">
						<masterclipid>masterclip-115</masterclipid>
						<name>ENG19-2771.MXF</name>
						<enabled>TRUE</enabled>
						<duration>975</duration>
						<rate>
							<timebase>25</timebase>
							<ntsc>FALSE</ntsc>
						</rate>
						<start>54941</start>
						<end>55205</end>
						<in>621</in>
						<out>885</out>
						<pproTicksIn>6309757440000</pproTicksIn>
						<pproTicksOut>8992166400000</pproTicksOut>
						<alphatype>none</alphatype>
						<pixelaspectratio>square</pixelaspectratio>
						<anamorphic>FALSE</anamorphic>
						<file id="file-115">
							<name>ENG19-2771.MXF</name>
							<pathurl>file://localhost/Volumes/Vaagen/Prosjekter/DVNA210116_Horn%c3%b8ya_Nordvisjonen_010317_TGP/Vasking%20av%20kamera/ENG19-2771.MXF</pathurl>
							<rate>
								<timebase>25</timebase>
								<ntsc>FALSE</ntsc>
							</rate>
							<duration>975</duration>
							<timecode>
								<rate>
									<timebase>25</timebase>
									<ntsc>FALSE</ntsc>
								</rate>
								<string>19:24:16:23</string>
								<frame>1746423</frame>
								<displayformat>NDF</displayformat>
								<reel>
									<name></name>
								</reel>
							</timecode>
							<media>
								<video>
									<samplecharacteristics>
										<rate>
											<timebase>25</timebase>
											<ntsc>FALSE</ntsc>
										</rate>
										<width>1920</width>
										<height>1080</height>
										<anamorphic>FALSE</anamorphic>
										<pixelaspectratio>square</pixelaspectratio>
										<fielddominance>upper</fielddominance>
									</samplecharacteristics>
								</video>
								<audio>
									<samplecharacteristics>
										<depth>16</depth>
										<samplerate>48000</samplerate>
									</samplecharacteristics>
									<channelcount>2</channelcount>
								</audio>
								<audio>
									<samplecharacteristics>
										<depth>16</depth>
										<samplerate>48000</samplerate>
									</samplecharacteristics>
									<channelcount>2</channelcount>
								</audio>
								<audio>
									<samplecharacteristics>
										<depth>16</depth>
										<samplerate>48000</samplerate>
									</samplecharacteristics>
									<channelcount>2</channelcount>
								</audio>
								<audio>
									<samplecharacteristics>
										<depth>16</depth>
										<samplerate>48000</samplerate>
									</samplecharacteristics>
									<channelcount>2</channelcount>
								</audio>
							</media>
						</file>
						<logginginfo>
							<description></description>
							<scene></scene>
							<shottake></shottake>
							<lognote></lognote>
						</logginginfo>
						<labels>
							<label2>Iris</label2>
						</labels>
					</clipitem>
					<clipitem id="clipitem-170">
						<masterclipid>masterclip-110</masterclipid>
						<name>NRK2-250616.mxf</name>
						<enabled>TRUE</enabled>
						<duration>186000</duration>
						<rate>
							<timebase>25</timebase>
							<ntsc>FALSE</ntsc>
						</rate>
						<start>55259</start>
						<end>55371</end>
						<in>172485</in>
						<out>172596</out>
						<pproTicksIn>1752557990400000</pproTicksIn>
						<pproTicksOut>1753685821440000</pproTicksOut>
						<alphatype>none</alphatype>
						<file id="file-110"/>
						<logginginfo>
							<description>Program 10</description>
							<scene></scene>
							<shottake></shottake>
							<lognote></lognote>
						</logginginfo>
						<labels>
							<label2>Iris</label2>
						</labels>
					</clipitem>
					<clipitem id="clipitem-171">
						<masterclipid>masterclip-113</masterclipid>
						<name>620_0743.MXF</name>
						<enabled>TRUE</enabled>
						<duration>3499</duration>
						<rate>
							<timebase>25</timebase>
							<ntsc>FALSE</ntsc>
						</rate>
						<start>55371</start>
						<end>56081</end>
						<in>277</in>
						<out>987</out>
						<pproTicksIn>2814497280000</pproTicksIn>
						<pproTicksOut>10028551680000</pproTicksOut>
						<alphatype>none</alphatype>
						<file id="file-113"/>
						<logginginfo>
							<description></description>
							<scene></scene>
							<shottake></shottake>
							<lognote></lognote>
						</logginginfo>
						<labels>
							<label2>Iris</label2>
						</labels>
					</clipitem>
					<clipitem id="clipitem-172">
						<masterclipid>masterclip-12</masterclipid>
						<name>NRK2-300616 (1).mxf</name>
						<enabled>TRUE</enabled>
						<duration>183000</duration>
						<rate>
							<timebase>25</timebase>
							<ntsc>FALSE</ntsc>
						</rate>
						<start>56108</start>
						<end>56144</end>
						<in>46358</in>
						<out>46394</out>
						<pproTicksIn>471026949120000</pproTicksIn>
						<pproTicksOut>471392732160000</pproTicksOut>
						<alphatype>none</alphatype>
						<file id="file-12"/>
						<logginginfo>
							<description>Program 13</description>
							<scene></scene>
							<shottake></shottake>
							<lognote></lognote>
						</logginginfo>
						<labels>
							<label2>Iris</label2>
						</labels>
					</clipitem>
					<clipitem id="clipitem-173">
						<masterclipid>masterclip-12</masterclipid>
						<name>NRK2-300616 (1).mxf</name>
						<enabled>TRUE</enabled>
						<duration>183000</duration>
						<rate>
							<timebase>25</timebase>
							<ntsc>FALSE</ntsc>
						</rate>
						<start>56144</start>
						<end>56148</end>
						<in>44915</in>
						<out>44919</out>
						<pproTicksIn>456365145600000</pproTicksIn>
						<pproTicksOut>456405788160000</pproTicksOut>
						<alphatype>none</alphatype>
						<file id="file-12"/>
						<logginginfo>
							<description>Program 13</description>
							<scene></scene>
							<shottake></shottake>
							<lognote></lognote>
						</logginginfo>
						<labels>
							<label2>Iris</label2>
						</labels>
					</clipitem>
					<clipitem id="clipitem-174">
						<masterclipid>masterclip-12</masterclipid>
						<name>NRK2-300616 (1).mxf</name>
						<enabled>TRUE</enabled>
						<duration>183000</duration>
						<rate>
							<timebase>25</timebase>
							<ntsc>FALSE</ntsc>
						</rate>
						<start>56148</start>
						<end>56622</end>
						<in>46591</in>
						<out>47066</out>
						<pproTicksIn>473394378240000</pproTicksIn>
						<pproTicksOut>478220682240000</pproTicksOut>
						<alphatype>none</alphatype>
						<file id="file-12"/>
						<logginginfo>
							<description>Program 13</description>
							<scene></scene>
							<shottake></shottake>
							<lognote></lognote>
						</logginginfo>
						<labels>
							<label2>Iris</label2>
						</labels>
					</clipitem>
					<clipitem id="clipitem-175">
						<masterclipid>masterclip-116</masterclipid>
						<name>NRK2-010716.mxf</name>
						<enabled>TRUE</enabled>
						<duration>183000</duration>
						<rate>
							<timebase>25</timebase>
							<ntsc>FALSE</ntsc>
						</rate>
						<start>56622</start>
						<end>56755</end>
						<in>36782</in>
						<out>36914</out>
						<pproTicksIn>373728660480000</pproTicksIn>
						<pproTicksOut>375069864960000</pproTicksOut>
						<alphatype>none</alphatype>
						<pixelaspectratio>square</pixelaspectratio>
						<anamorphic>FALSE</anamorphic>
						<file id="file-116">
							<name>DVNA25001416AU.mxf</name>
							<pathurl>file://localhost/Volumes/Vaagen/Prosjekter/DVNA210116_Horn%c3%b8ya_Nordvisjonen_010317_TGP/Horn%c3%b8ya%20Trond/NRK2sendinger/DVNA25001416AU.mxf</pathurl>
							<rate>
								<timebase>25</timebase>
								<ntsc>FALSE</ntsc>
							</rate>
							<duration>183000</duration>
							<timecode>
								<rate>
									<timebase>25</timebase>
									<ntsc>FALSE</ntsc>
								</rate>
								<string>21:59:00:00</string>
								<frame>1978500</frame>
								<displayformat>NDF</displayformat>
								<reel>
									<name></name>
								</reel>
							</timecode>
							<media>
								<video>
									<samplecharacteristics>
										<rate>
											<timebase>25</timebase>
											<ntsc>FALSE</ntsc>
										</rate>
										<width>1920</width>
										<height>1080</height>
										<anamorphic>FALSE</anamorphic>
										<pixelaspectratio>square</pixelaspectratio>
										<fielddominance>upper</fielddominance>
									</samplecharacteristics>
								</video>
								<audio>
									<samplecharacteristics>
										<depth>16</depth>
										<samplerate>48000</samplerate>
									</samplecharacteristics>
									<channelcount>8</channelcount>
								</audio>
							</media>
						</file>
						<logginginfo>
							<description>Program 14</description>
							<scene></scene>
							<shottake></shottake>
							<lognote></lognote>
						</logginginfo>
						<labels>
							<label2>Iris</label2>
						</labels>
					</clipitem>
					<clipitem id="clipitem-176">
						<masterclipid>masterclip-116</masterclipid>
						<name>NRK2-010716.mxf</name>
						<enabled>TRUE</enabled>
						<duration>183000</duration>
						<rate>
							<timebase>25</timebase>
							<ntsc>FALSE</ntsc>
						</rate>
						<start>56755</start>
						<end>56901</end>
						<in>37090</in>
						<out>37236</out>
						<pproTicksIn>376858137600000</pproTicksIn>
						<pproTicksOut>378341591040000</pproTicksOut>
						<alphatype>none</alphatype>
						<file id="file-116"/>
						<logginginfo>
							<description>Program 14</description>
							<scene></scene>
							<shottake></shottake>
							<lognote></lognote>
						</logginginfo>
						<labels>
							<label2>Iris</label2>
						</labels>
					</clipitem>
					<clipitem id="clipitem-177">
						<masterclipid>masterclip-117</masterclipid>
						<name>620_0745.MXF</name>
						<enabled>TRUE</enabled>
						<duration>1850</duration>
						<rate>
							<timebase>25</timebase>
							<ntsc>FALSE</ntsc>
						</rate>
						<start>56901</start>
						<end>58296</end>
						<in>244</in>
						<out>1639</out>
						<pproTicksIn>2479196160000</pproTicksIn>
						<pproTicksOut>16653288960000</pproTicksOut>
						<alphatype>none</alphatype>
						<pixelaspectratio>square</pixelaspectratio>
						<anamorphic>FALSE</anamorphic>
						<file id="file-117">
							<name>620_0745.MXF</name>
							<pathurl>file://localhost/Volumes/Vaagen/Prosjekter/DVNA210116_Horn%c3%b8ya_Nordvisjonen_010317_TGP/Bakomfilm/Intervju%20Nils%20Arne/620_0745.MXF</pathurl>
							<rate>
								<timebase>50</timebase>
								<ntsc>FALSE</ntsc>
							</rate>
							<duration>3700</duration>
							<timecode>
								<rate>
									<timebase>50</timebase>
									<ntsc>FALSE</ntsc>
								</rate>
								<string>16:29:14:08</string>
								<frame>2967708</frame>
								<displayformat>NDF</displayformat>
								<reel>
									<name></name>
								</reel>
							</timecode>
							<media>
								<video>
									<samplecharacteristics>
										<rate>
											<timebase>50</timebase>
											<ntsc>FALSE</ntsc>
										</rate>
										<width>1920</width>
										<height>1080</height>
										<anamorphic>FALSE</anamorphic>
										<pixelaspectratio>square</pixelaspectratio>
										<fielddominance>none</fielddominance>
									</samplecharacteristics>
								</video>
								<audio>
									<samplecharacteristics>
										<depth>16</depth>
										<samplerate>48000</samplerate>
									</samplecharacteristics>
									<channelcount>8</channelcount>
								</audio>
							</media>
						</file>
						<link>
							<linkclipref>clipitem-177</linkclipref>
							<mediatype>video</mediatype>
							<trackindex>1</trackindex>
							<clipindex>187</clipindex>
						</link>
						<link>
							<linkclipref>clipitem-584</linkclipref>
							<mediatype>audio</mediatype>
							<trackindex>1</trackindex>
							<clipindex>95</clipindex>
							<groupindex>1</groupindex>
						</link>
						<logginginfo>
							<description></description>
							<scene></scene>
							<shottake></shottake>
							<lognote></lognote>
						</logginginfo>
						<labels>
							<label2>Iris</label2>
						</labels>
					</clipitem>
					<clipitem id="clipitem-178">
						<masterclipid>masterclip-118</masterclipid>
						<name>AA278501.MXF</name>
						<enabled>TRUE</enabled>
						<duration>876</duration>
						<rate>
							<timebase>25</timebase>
							<ntsc>FALSE</ntsc>
						</rate>
						<start>58572</start>
						<end>58891</end>
						<in>500</in>
						<out>819</out>
						<pproTicksIn>5080320000000</pproTicksIn>
						<pproTicksOut>8321564160000</pproTicksOut>
						<alphatype>none</alphatype>
						<pixelaspectratio>square</pixelaspectratio>
						<anamorphic>FALSE</anamorphic>
						<file id="file-118">
							<name>AA278501.MXF</name>
							<pathurl>file://localhost/Volumes/Vaagen/Utveksling/Natur/Naturlig%20helaften%20fra%20Oslo/Copied_Copy%20of%20En%20Helaften%20MASTER_002/AA278501.MXF</pathurl>
							<rate>
								<timebase>25</timebase>
								<ntsc>FALSE</ntsc>
							</rate>
							<duration>876</duration>
							<timecode>
								<rate>
									<timebase>25</timebase>
									<ntsc>FALSE</ntsc>
								</rate>
								<string>16:01:56:23</string>
								<frame>1442923</frame>
								<displayformat>NDF</displayformat>
								<reel>
									<name></name>
								</reel>
							</timecode>
							<media>
								<video>
									<samplecharacteristics>
										<rate>
											<timebase>25</timebase>
											<ntsc>FALSE</ntsc>
										</rate>
										<width>1920</width>
										<height>1080</height>
										<anamorphic>FALSE</anamorphic>
										<pixelaspectratio>square</pixelaspectratio>
										<fielddominance>none</fielddominance>
									</samplecharacteristics>
								</video>
								<audio>
									<samplecharacteristics>
										<depth>16</depth>
										<samplerate>48000</samplerate>
									</samplecharacteristics>
									<channelcount>2</channelcount>
								</audio>
							</media>
						</file>
						<link>
							<linkclipref>clipitem-178</linkclipref>
							<mediatype>video</mediatype>
							<trackindex>1</trackindex>
							<clipindex>188</clipindex>
						</link>
						<link>
							<linkclipref>clipitem-585</linkclipref>
							<mediatype>audio</mediatype>
							<trackindex>1</trackindex>
							<clipindex>96</clipindex>
							<groupindex>1</groupindex>
						</link>
						<link>
							<linkclipref>clipitem-597</linkclipref>
							<mediatype>audio</mediatype>
							<trackindex>2</trackindex>
							<clipindex>12</clipindex>
							<groupindex>1</groupindex>
						</link>
						<logginginfo>
							<description></description>
							<scene></scene>
							<shottake></shottake>
							<lognote></lognote>
						</logginginfo>
						<labels>
							<label2>Iris</label2>
						</labels>
					</clipitem>
					<clipitem id="clipitem-179">
						<masterclipid>masterclip-18</masterclipid>
						<name>Sanser.mov</name>
						<enabled>TRUE</enabled>
						<duration>58716</duration>
						<rate>
							<timebase>25</timebase>
							<ntsc>FALSE</ntsc>
						</rate>
						<start>58934</start>
						<end>59908</end>
						<in>32636</in>
						<out>33610</out>
						<pproTicksIn>331602647040000</pproTicksIn>
						<pproTicksOut>341499110400000</pproTicksOut>
						<alphatype>none</alphatype>
						<file id="file-18"/>
						<logginginfo>
							<description></description>
							<scene></scene>
							<shottake></shottake>
							<lognote></lognote>
						</logginginfo>
						<labels>
							<label2>Caribbean</label2>
						</labels>
					</clipitem>
					<clipitem id="clipitem-180">
						<masterclipid>masterclip-119</masterclipid>
						<name>DVNA201815_5_Intelligens_fkorr.mov</name>
						<enabled>TRUE</enabled>
						<duration>57928</duration>
						<rate>
							<timebase>25</timebase>
							<ntsc>FALSE</ntsc>
						</rate>
						<start>59961</start>
						<end>60933</end>
						<in>49373</in>
						<out>50345</out>
						<pproTicksIn>501661278720000</pproTicksIn>
						<pproTicksOut>511537420800000</pproTicksOut>
						<alphatype>none</alphatype>
						<pixelaspectratio>square</pixelaspectratio>
						<anamorphic>FALSE</anamorphic>
						<file id="file-119">
							<name>DVNA201815_5_Intelligens_fkorr.mov</name>
							<pathurl>file://localhost/Volumes/Svartediket/Prosjekter/DVNA201815_Ut%20i%20naturen_FAL_010117/Eksport/TK/DVNA201815-5-Intelligens/DVNA201815_5_Intelligens_fkorr.mov</pathurl>
							<rate>
								<timebase>25</timebase>
								<ntsc>FALSE</ntsc>
							</rate>
							<duration>57928</duration>
							<timecode>
								<rate>
									<timebase>25</timebase>
									<ntsc>FALSE</ntsc>
								</rate>
								<string>00:00:00:00</string>
								<frame>0</frame>
								<displayformat>NDF</displayformat>
								<reel>
									<name></name>
								</reel>
							</timecode>
							<media>
								<video>
									<samplecharacteristics>
										<rate>
											<timebase>25</timebase>
											<ntsc>FALSE</ntsc>
										</rate>
										<width>1920</width>
										<height>1080</height>
										<anamorphic>FALSE</anamorphic>
										<pixelaspectratio>square</pixelaspectratio>
										<fielddominance>upper</fielddominance>
									</samplecharacteristics>
								</video>
							</media>
						</file>
							<marker>
								<comment></comment>
								<name></name>
								<in>49532</in>
								<out>-1</out>
							</marker>
						<logginginfo>
							<description></description>
							<scene></scene>
							<shottake></shottake>
							<lognote></lognote>
						</logginginfo>
						<labels>
							<label2>Caribbean</label2>
						</labels>
					</clipitem>
					<clipitem id="clipitem-181">
						<masterclipid>masterclip-17</masterclipid>
						<name>dvna60000116aa-p1-270916r</name>
						<enabled>TRUE</enabled>
						<duration>4111</duration>
						<rate>
							<timebase>25</timebase>
							<ntsc>FALSE</ntsc>
						</rate>
						<start>60971</start>
						<end>62360</end>
						<in>114</in>
						<out>1503</out>
						<pproTicksIn>1158312960000</pproTicksIn>
						<pproTicksOut>15271441920000</pproTicksOut>
						<alphatype>none</alphatype>
						<file id="file-17"/>
						<link>
							<linkclipref>clipitem-181</linkclipref>
							<mediatype>video</mediatype>
							<trackindex>1</trackindex>
							<clipindex>191</clipindex>
						</link>
						<link>
							<linkclipref>clipitem-798</linkclipref>
							<mediatype>audio</mediatype>
							<trackindex>8</trackindex>
							<clipindex>98</clipindex>
							<groupindex>1</groupindex>
						</link>
						<link>
							<linkclipref>clipitem-892</linkclipref>
							<mediatype>audio</mediatype>
							<trackindex>9</trackindex>
							<clipindex>96</clipindex>
							<groupindex>1</groupindex>
						</link>
						<logginginfo>
							<description>dvna60000116aa-p1-270916r</description>
							<scene></scene>
							<shottake></shottake>
							<lognote></lognote>
						</logginginfo>
						<labels>
							<label2>Caribbean</label2>
						</labels>
					</clipitem>
					<clipitem id="clipitem-182">
						<masterclipid>masterclip-120</masterclipid>
						<name>DVNA201815_4_FYSIKK_fkorr.mov</name>
						<enabled>TRUE</enabled>
						<duration>58672</duration>
						<rate>
							<timebase>25</timebase>
							<ntsc>FALSE</ntsc>
						</rate>
						<start>62360</start>
						<end>64005</end>
						<in>33646</in>
						<out>35291</out>
						<pproTicksIn>341864893440000</pproTicksIn>
						<pproTicksOut>358579146240000</pproTicksOut>
						<alphatype>none</alphatype>
						<pixelaspectratio>square</pixelaspectratio>
						<anamorphic>FALSE</anamorphic>
						<file id="file-120">
							<name>DVNA201815_4_FYSIKK_fkorr.mov</name>
							<pathurl>file://localhost/Volumes/Svartediket/Prosjekter/DVNA201815_Ut%20i%20naturen_FAL_010117/Eksport/TK/DVNA201815_4_FYSIKK_fkorr.mov</pathurl>
							<rate>
								<timebase>25</timebase>
								<ntsc>FALSE</ntsc>
							</rate>
							<duration>58672</duration>
							<timecode>
								<rate>
									<timebase>25</timebase>
									<ntsc>FALSE</ntsc>
								</rate>
								<string>00:00:00:00</string>
								<frame>0</frame>
								<displayformat>NDF</displayformat>
								<reel>
									<name></name>
								</reel>
							</timecode>
							<media>
								<video>
									<samplecharacteristics>
										<rate>
											<timebase>25</timebase>
											<ntsc>FALSE</ntsc>
										</rate>
										<width>1920</width>
										<height>1080</height>
										<anamorphic>FALSE</anamorphic>
										<pixelaspectratio>square</pixelaspectratio>
										<fielddominance>none</fielddominance>
									</samplecharacteristics>
								</video>
							</media>
						</file>
							<marker>
								<comment></comment>
								<name></name>
								<in>34689</in>
								<out>-1</out>
							</marker>
						<logginginfo>
							<description></description>
							<scene></scene>
							<shottake></shottake>
							<lognote></lognote>
						</logginginfo>
						<labels>
							<label2>Caribbean</label2>
						</labels>
					</clipitem>
					<clipitem id="clipitem-183">
						<masterclipid>masterclip-121</masterclipid>
						<name>AA282801.MXF</name>
						<enabled>TRUE</enabled>
						<duration>4944</duration>
						<rate>
							<timebase>25</timebase>
							<ntsc>FALSE</ntsc>
						</rate>
						<start>64005</start>
						<end>64140</end>
						<in>2664</in>
						<out>2799</out>
						<pproTicksIn>27067944960000</pproTicksIn>
						<pproTicksOut>28439631360000</pproTicksOut>
						<alphatype>none</alphatype>
						<pixelaspectratio>square</pixelaspectratio>
						<anamorphic>FALSE</anamorphic>
						<file id="file-121">
							<name>AA282801.MXF</name>
							<pathurl>file://localhost/Volumes/Vaagen/Utveksling/Natur/Naturlig%20helaften%20fra%20Oslo/Copied_Copy%20of%20En%20Helaften%20MASTER_001/AA282801.MXF</pathurl>
							<rate>
								<timebase>25</timebase>
								<ntsc>FALSE</ntsc>
							</rate>
							<duration>4944</duration>
							<timecode>
								<rate>
									<timebase>25</timebase>
									<ntsc>FALSE</ntsc>
								</rate>
								<string>09:39:16:01</string>
								<frame>868901</frame>
								<displayformat>NDF</displayformat>
								<reel>
									<name></name>
								</reel>
							</timecode>
							<media>
								<video>
									<samplecharacteristics>
										<rate>
											<timebase>25</timebase>
											<ntsc>FALSE</ntsc>
										</rate>
										<width>1920</width>
										<height>1080</height>
										<anamorphic>FALSE</anamorphic>
										<pixelaspectratio>square</pixelaspectratio>
										<fielddominance>none</fielddominance>
									</samplecharacteristics>
								</video>
								<audio>
									<samplecharacteristics>
										<depth>16</depth>
										<samplerate>48000</samplerate>
									</samplecharacteristics>
									<channelcount>2</channelcount>
								</audio>
							</media>
						</file>
						<link>
							<linkclipref>clipitem-183</linkclipref>
							<mediatype>video</mediatype>
							<trackindex>1</trackindex>
							<clipindex>193</clipindex>
						</link>
						<link>
							<linkclipref>clipitem-799</linkclipref>
							<mediatype>audio</mediatype>
							<trackindex>8</trackindex>
							<clipindex>99</clipindex>
							<groupindex>1</groupindex>
						</link>
						<link>
							<linkclipref>clipitem-893</linkclipref>
							<mediatype>audio</mediatype>
							<trackindex>9</trackindex>
							<clipindex>97</clipindex>
							<groupindex>1</groupindex>
						</link>
						<link>
							<linkclipref>clipitem-1245</linkclipref>
							<mediatype>audio</mediatype>
							<trackindex>12</trackindex>
							<clipindex>87</clipindex>
							<groupindex>1</groupindex>
						</link>
						<link>
							<linkclipref>clipitem-1330</linkclipref>
							<mediatype>audio</mediatype>
							<trackindex>13</trackindex>
							<clipindex>87</clipindex>
							<groupindex>1</groupindex>
						</link>
						<logginginfo>
							<description></description>
							<scene></scene>
							<shottake></shottake>
							<lognote></lognote>
						</logginginfo>
						<labels>
							<label2>Iris</label2>
						</labels>
					</clipitem>
					<clipitem id="clipitem-184">
						<masterclipid>masterclip-122</masterclipid>
						<name>AA281501.MXF</name>
						<enabled>TRUE</enabled>
						<duration>732</duration>
						<rate>
							<timebase>25</timebase>
							<ntsc>FALSE</ntsc>
						</rate>
						<start>64140</start>
						<end>64170</end>
						<in>303</in>
						<out>333</out>
						<pproTicksIn>3078673920000</pproTicksIn>
						<pproTicksOut>3383493120000</pproTicksOut>
						<alphatype>none</alphatype>
						<pixelaspectratio>square</pixelaspectratio>
						<anamorphic>FALSE</anamorphic>
						<file id="file-122">
							<name>AA281501.MXF</name>
							<pathurl>file://localhost/Volumes/Vaagen/Utveksling/Natur/Naturlig%20helaften%20fra%20Oslo/Copied_Copy%20of%20En%20Helaften%20MASTER_001/AA281501.MXF</pathurl>
							<rate>
								<timebase>25</timebase>
								<ntsc>FALSE</ntsc>
							</rate>
							<duration>732</duration>
							<timecode>
								<rate>
									<timebase>25</timebase>
									<ntsc>FALSE</ntsc>
								</rate>
								<string>08:59:25:01</string>
								<frame>809126</frame>
								<displayformat>NDF</displayformat>
								<reel>
									<name></name>
								</reel>
							</timecode>
							<media>
								<video>
									<samplecharacteristics>
										<rate>
											<timebase>25</timebase>
											<ntsc>FALSE</ntsc>
										</rate>
										<width>1920</width>
										<height>1080</height>
										<anamorphic>FALSE</anamorphic>
										<pixelaspectratio>square</pixelaspectratio>
										<fielddominance>none</fielddominance>
									</samplecharacteristics>
								</video>
								<audio>
									<samplecharacteristics>
										<depth>16</depth>
										<samplerate>48000</samplerate>
									</samplecharacteristics>
									<channelcount>2</channelcount>
								</audio>
							</media>
						</file>
						<link>
							<linkclipref>clipitem-184</linkclipref>
							<mediatype>video</mediatype>
							<trackindex>1</trackindex>
							<clipindex>194</clipindex>
						</link>
						<link>
							<linkclipref>clipitem-800</linkclipref>
							<mediatype>audio</mediatype>
							<trackindex>8</trackindex>
							<clipindex>100</clipindex>
							<groupindex>1</groupindex>
						</link>
						<link>
							<linkclipref>clipitem-894</linkclipref>
							<mediatype>audio</mediatype>
							<trackindex>9</trackindex>
							<clipindex>98</clipindex>
							<groupindex>1</groupindex>
						</link>
						<logginginfo>
							<description></description>
							<scene></scene>
							<shottake></shottake>
							<lognote></lognote>
						</logginginfo>
						<labels>
							<label2>Iris</label2>
						</labels>
					</clipitem>
					<clipitem id="clipitem-185">
						<masterclipid>masterclip-122</masterclipid>
						<name>AA281501.MXF</name>
						<enabled>TRUE</enabled>
						<duration>732</duration>
						<rate>
							<timebase>25</timebase>
							<ntsc>FALSE</ntsc>
						</rate>
						<start>64170</start>
						<end>64241</end>
						<in>109</in>
						<out>180</out>
						<pproTicksIn>1107509760000</pproTicksIn>
						<pproTicksOut>1828915200000</pproTicksOut>
						<alphatype>none</alphatype>
						<file id="file-122"/>
						<link>
							<linkclipref>clipitem-185</linkclipref>
							<mediatype>video</mediatype>
							<trackindex>1</trackindex>
							<clipindex>195</clipindex>
						</link>
						<link>
							<linkclipref>clipitem-801</linkclipref>
							<mediatype>audio</mediatype>
							<trackindex>8</trackindex>
							<clipindex>101</clipindex>
							<groupindex>1</groupindex>
						</link>
						<link>
							<linkclipref>clipitem-895</linkclipref>
							<mediatype>audio</mediatype>
							<trackindex>9</trackindex>
							<clipindex>99</clipindex>
							<groupindex>1</groupindex>
						</link>
						<logginginfo>
							<description></description>
							<scene></scene>
							<shottake></shottake>
							<lognote></lognote>
						</logginginfo>
						<labels>
							<label2>Iris</label2>
						</labels>
					</clipitem>
					<clipitem id="clipitem-186">
						<masterclipid>masterclip-123</masterclipid>
						<name>AA281701.MXF</name>
						<enabled>TRUE</enabled>
						<duration>1392</duration>
						<rate>
							<timebase>25</timebase>
							<ntsc>FALSE</ntsc>
						</rate>
						<start>64241</start>
						<end>64311</end>
						<in>1265</in>
						<out>1335</out>
						<pproTicksIn>12853209600000</pproTicksIn>
						<pproTicksOut>13564454400000</pproTicksOut>
						<alphatype>none</alphatype>
						<pixelaspectratio>square</pixelaspectratio>
						<anamorphic>FALSE</anamorphic>
						<file id="file-123">
							<name>AA281701.MXF</name>
							<pathurl>file://localhost/Volumes/Vaagen/Utveksling/Natur/Naturlig%20helaften%20fra%20Oslo/Copied_Copy%20of%20En%20Helaften%20MASTER_001/AA281701.MXF</pathurl>
							<rate>
								<timebase>25</timebase>
								<ntsc>FALSE</ntsc>
							</rate>
							<duration>1392</duration>
							<timecode>
								<rate>
									<timebase>25</timebase>
									<ntsc>FALSE</ntsc>
								</rate>
								<string>09:05:25:17</string>
								<frame>818142</frame>
								<displayformat>NDF</displayformat>
								<reel>
									<name></name>
								</reel>
							</timecode>
							<media>
								<video>
									<samplecharacteristics>
										<rate>
											<timebase>25</timebase>
											<ntsc>FALSE</ntsc>
										</rate>
										<width>1920</width>
										<height>1080</height>
										<anamorphic>FALSE</anamorphic>
										<pixelaspectratio>square</pixelaspectratio>
										<fielddominance>none</fielddominance>
									</samplecharacteristics>
								</video>
								<audio>
									<samplecharacteristics>
										<depth>16</depth>
										<samplerate>48000</samplerate>
									</samplecharacteristics>
									<channelcount>2</channelcount>
								</audio>
							</media>
						</file>
						<link>
							<linkclipref>clipitem-186</linkclipref>
							<mediatype>video</mediatype>
							<trackindex>1</trackindex>
							<clipindex>196</clipindex>
						</link>
						<link>
							<linkclipref>clipitem-802</linkclipref>
							<mediatype>audio</mediatype>
							<trackindex>8</trackindex>
							<clipindex>102</clipindex>
							<groupindex>1</groupindex>
						</link>
						<link>
							<linkclipref>clipitem-896</linkclipref>
							<mediatype>audio</mediatype>
							<trackindex>9</trackindex>
							<clipindex>100</clipindex>
							<groupindex>1</groupindex>
						</link>
						<logginginfo>
							<description></description>
							<scene></scene>
							<shottake></shottake>
							<lognote></lognote>
						</logginginfo>
						<labels>
							<label2>Iris</label2>
						</labels>
					</clipitem>
					<clipitem id="clipitem-187">
						<masterclipid>masterclip-124</masterclipid>
						<name>AA282301.MXF</name>
						<enabled>TRUE</enabled>
						<duration>2904</duration>
						<rate>
							<timebase>25</timebase>
							<ntsc>FALSE</ntsc>
						</rate>
						<start>64311</start>
						<end>64604</end>
						<in>1824</in>
						<out>2117</out>
						<pproTicksIn>18533007360000</pproTicksIn>
						<pproTicksOut>21510074880000</pproTicksOut>
						<alphatype>none</alphatype>
						<pixelaspectratio>square</pixelaspectratio>
						<anamorphic>FALSE</anamorphic>
						<file id="file-124">
							<name>AA282301.MXF</name>
							<pathurl>file://localhost/Volumes/Vaagen/Utveksling/Natur/Naturlig%20helaften%20fra%20Oslo/Copied_Copy%20of%20En%20Helaften%20MASTER_001/AA282301.MXF</pathurl>
							<rate>
								<timebase>25</timebase>
								<ntsc>FALSE</ntsc>
							</rate>
							<duration>2904</duration>
							<timecode>
								<rate>
									<timebase>25</timebase>
									<ntsc>FALSE</ntsc>
								</rate>
								<string>09:23:59:02</string>
								<frame>845977</frame>
								<displayformat>NDF</displayformat>
								<reel>
									<name></name>
								</reel>
							</timecode>
							<media>
								<video>
									<samplecharacteristics>
										<rate>
											<timebase>25</timebase>
											<ntsc>FALSE</ntsc>
										</rate>
										<width>1920</width>
										<height>1080</height>
										<anamorphic>FALSE</anamorphic>
										<pixelaspectratio>square</pixelaspectratio>
										<fielddominance>none</fielddominance>
									</samplecharacteristics>
								</video>
								<audio>
									<samplecharacteristics>
										<depth>16</depth>
										<samplerate>48000</samplerate>
									</samplecharacteristics>
									<channelcount>2</channelcount>
								</audio>
							</media>
						</file>
						<link>
							<linkclipref>clipitem-187</linkclipref>
							<mediatype>video</mediatype>
							<trackindex>1</trackindex>
							<clipindex>197</clipindex>
						</link>
						<link>
							<linkclipref>clipitem-803</linkclipref>
							<mediatype>audio</mediatype>
							<trackindex>8</trackindex>
							<clipindex>103</clipindex>
							<groupindex>1</groupindex>
						</link>
						<link>
							<linkclipref>clipitem-897</linkclipref>
							<mediatype>audio</mediatype>
							<trackindex>9</trackindex>
							<clipindex>101</clipindex>
							<groupindex>1</groupindex>
						</link>
						<logginginfo>
							<description></description>
							<scene></scene>
							<shottake></shottake>
							<lognote></lognote>
						</logginginfo>
						<labels>
							<label2>Iris</label2>
						</labels>
					</clipitem>
					<clipitem id="clipitem-188">
						<masterclipid>masterclip-124</masterclipid>
						<name>AA282301.MXF</name>
						<enabled>TRUE</enabled>
						<duration>2904</duration>
						<rate>
							<timebase>25</timebase>
							<ntsc>FALSE</ntsc>
						</rate>
						<start>64604</start>
						<end>64746</end>
						<in>2117</in>
						<out>2259</out>
						<pproTicksIn>21510074880000</pproTicksIn>
						<pproTicksOut>22952885760000</pproTicksOut>
						<alphatype>none</alphatype>
						<file id="file-124"/>
						<link>
							<linkclipref>clipitem-188</linkclipref>
							<mediatype>video</mediatype>
							<trackindex>1</trackindex>
							<clipindex>198</clipindex>
						</link>
						<link>
							<linkclipref>clipitem-804</linkclipref>
							<mediatype>audio</mediatype>
							<trackindex>8</trackindex>
							<clipindex>104</clipindex>
							<groupindex>1</groupindex>
						</link>
						<link>
							<linkclipref>clipitem-898</linkclipref>
							<mediatype>audio</mediatype>
							<trackindex>9</trackindex>
							<clipindex>102</clipindex>
							<groupindex>1</groupindex>
						</link>
						<logginginfo>
							<description></description>
							<scene></scene>
							<shottake></shottake>
							<lognote></lognote>
						</logginginfo>
						<labels>
							<label2>Iris</label2>
						</labels>
					</clipitem>
					<clipitem id="clipitem-189">
						<masterclipid>masterclip-125</masterclipid>
						<name>AA282501.MXF</name>
						<enabled>TRUE</enabled>
						<duration>2676</duration>
						<rate>
							<timebase>25</timebase>
							<ntsc>FALSE</ntsc>
						</rate>
						<start>64746</start>
						<end>64836</end>
						<in>246</in>
						<out>336</out>
						<pproTicksIn>2499517440000</pproTicksIn>
						<pproTicksOut>3413975040000</pproTicksOut>
						<alphatype>none</alphatype>
						<pixelaspectratio>square</pixelaspectratio>
						<anamorphic>FALSE</anamorphic>
						<file id="file-125">
							<name>AA282501.MXF</name>
							<pathurl>file://localhost/Volumes/Vaagen/Utveksling/Natur/Naturlig%20helaften%20fra%20Oslo/Copied_Copy%20of%20En%20Helaften%20MASTER_001/AA282501.MXF</pathurl>
							<rate>
								<timebase>25</timebase>
								<ntsc>FALSE</ntsc>
							</rate>
							<duration>2676</duration>
							<timecode>
								<rate>
									<timebase>25</timebase>
									<ntsc>FALSE</ntsc>
								</rate>
								<string>09:26:47:21</string>
								<frame>850196</frame>
								<displayformat>NDF</displayformat>
								<reel>
									<name></name>
								</reel>
							</timecode>
							<media>
								<video>
									<samplecharacteristics>
										<rate>
											<timebase>25</timebase>
											<ntsc>FALSE</ntsc>
										</rate>
										<width>1920</width>
										<height>1080</height>
										<anamorphic>FALSE</anamorphic>
										<pixelaspectratio>square</pixelaspectratio>
										<fielddominance>none</fielddominance>
									</samplecharacteristics>
								</video>
								<audio>
									<samplecharacteristics>
										<depth>16</depth>
										<samplerate>48000</samplerate>
									</samplecharacteristics>
									<channelcount>2</channelcount>
								</audio>
							</media>
						</file>
						<link>
							<linkclipref>clipitem-189</linkclipref>
							<mediatype>video</mediatype>
							<trackindex>1</trackindex>
							<clipindex>199</clipindex>
						</link>
						<link>
							<linkclipref>clipitem-805</linkclipref>
							<mediatype>audio</mediatype>
							<trackindex>8</trackindex>
							<clipindex>105</clipindex>
							<groupindex>1</groupindex>
						</link>
						<link>
							<linkclipref>clipitem-899</linkclipref>
							<mediatype>audio</mediatype>
							<trackindex>9</trackindex>
							<clipindex>103</clipindex>
							<groupindex>1</groupindex>
						</link>
						<link>
							<linkclipref>clipitem-1246</linkclipref>
							<mediatype>audio</mediatype>
							<trackindex>12</trackindex>
							<clipindex>88</clipindex>
							<groupindex>1</groupindex>
						</link>
						<link>
							<linkclipref>clipitem-1331</linkclipref>
							<mediatype>audio</mediatype>
							<trackindex>13</trackindex>
							<clipindex>88</clipindex>
							<groupindex>1</groupindex>
						</link>
						<logginginfo>
							<description></description>
							<scene></scene>
							<shottake></shottake>
							<lognote></lognote>
						</logginginfo>
						<labels>
							<label2>Iris</label2>
						</labels>
					</clipitem>
					<clipitem id="clipitem-190">
						<masterclipid>masterclip-124</masterclipid>
						<name>AA282301.MXF</name>
						<enabled>TRUE</enabled>
						<duration>2904</duration>
						<rate>
							<timebase>25</timebase>
							<ntsc>FALSE</ntsc>
						</rate>
						<start>64892</start>
						<end>65071</end>
						<in>2259</in>
						<out>2438</out>
						<pproTicksIn>22952885760000</pproTicksIn>
						<pproTicksOut>24771640320000</pproTicksOut>
						<alphatype>none</alphatype>
						<file id="file-124"/>
						<link>
							<linkclipref>clipitem-190</linkclipref>
							<mediatype>video</mediatype>
							<trackindex>1</trackindex>
							<clipindex>200</clipindex>
						</link>
						<link>
							<linkclipref>clipitem-807</linkclipref>
							<mediatype>audio</mediatype>
							<trackindex>8</trackindex>
							<clipindex>108</clipindex>
							<groupindex>1</groupindex>
						</link>
						<link>
							<linkclipref>clipitem-901</linkclipref>
							<mediatype>audio</mediatype>
							<trackindex>9</trackindex>
							<clipindex>106</clipindex>
							<groupindex>1</groupindex>
						</link>
						<logginginfo>
							<description></description>
							<scene></scene>
							<shottake></shottake>
							<lognote></lognote>
						</logginginfo>
						<labels>
							<label2>Iris</label2>
						</labels>
					</clipitem>
					<clipitem id="clipitem-191">
						<masterclipid>masterclip-126</masterclipid>
						<name>AA282201.MXF</name>
						<enabled>TRUE</enabled>
						<duration>228</duration>
						<rate>
							<timebase>25</timebase>
							<ntsc>FALSE</ntsc>
						</rate>
						<start>65071</start>
						<end>65203</end>
						<in>64</in>
						<out>196</out>
						<pproTicksIn>650280960000</pproTicksIn>
						<pproTicksOut>1991485440000</pproTicksOut>
						<alphatype>none</alphatype>
						<pixelaspectratio>square</pixelaspectratio>
						<anamorphic>FALSE</anamorphic>
						<file id="file-126">
							<name>AA282201.MXF</name>
							<pathurl>file://localhost/Volumes/Vaagen/Utveksling/Natur/Naturlig%20helaften%20fra%20Oslo/Copied_Copy%20of%20En%20Helaften%20MASTER_001/AA282201.MXF</pathurl>
							<rate>
								<timebase>25</timebase>
								<ntsc>FALSE</ntsc>
							</rate>
							<duration>228</duration>
							<timecode>
								<rate>
									<timebase>25</timebase>
									<ntsc>FALSE</ntsc>
								</rate>
								<string>09:21:45:24</string>
								<frame>842649</frame>
								<displayformat>NDF</displayformat>
								<reel>
									<name></name>
								</reel>
							</timecode>
							<media>
								<video>
									<samplecharacteristics>
										<rate>
											<timebase>25</timebase>
											<ntsc>FALSE</ntsc>
										</rate>
										<width>1920</width>
										<height>1080</height>
										<anamorphic>FALSE</anamorphic>
										<pixelaspectratio>square</pixelaspectratio>
										<fielddominance>none</fielddominance>
									</samplecharacteristics>
								</video>
								<audio>
									<samplecharacteristics>
										<depth>16</depth>
										<samplerate>48000</samplerate>
									</samplecharacteristics>
									<channelcount>2</channelcount>
								</audio>
							</media>
						</file>
						<link>
							<linkclipref>clipitem-191</linkclipref>
							<mediatype>video</mediatype>
							<trackindex>1</trackindex>
							<clipindex>201</clipindex>
						</link>
						<link>
							<linkclipref>clipitem-808</linkclipref>
							<mediatype>audio</mediatype>
							<trackindex>8</trackindex>
							<clipindex>109</clipindex>
							<groupindex>1</groupindex>
						</link>
						<link>
							<linkclipref>clipitem-902</linkclipref>
							<mediatype>audio</mediatype>
							<trackindex>9</trackindex>
							<clipindex>107</clipindex>
							<groupindex>1</groupindex>
						</link>
						<link>
							<linkclipref>clipitem-1248</linkclipref>
							<mediatype>audio</mediatype>
							<trackindex>12</trackindex>
							<clipindex>91</clipindex>
							<groupindex>1</groupindex>
						</link>
						<link>
							<linkclipref>clipitem-1333</linkclipref>
							<mediatype>audio</mediatype>
							<trackindex>13</trackindex>
							<clipindex>91</clipindex>
							<groupindex>1</groupindex>
						</link>
						<logginginfo>
							<description></description>
							<scene></scene>
							<shottake></shottake>
							<lognote></lognote>
						</logginginfo>
						<labels>
							<label2>Iris</label2>
						</labels>
					</clipitem>
					<clipitem id="clipitem-192">
						<masterclipid>masterclip-124</masterclipid>
						<name>AA282301.MXF</name>
						<enabled>TRUE</enabled>
						<duration>2904</duration>
						<rate>
							<timebase>25</timebase>
							<ntsc>FALSE</ntsc>
						</rate>
						<start>65203</start>
						<end>65508</end>
						<in>2524</in>
						<out>2829</out>
						<pproTicksIn>25645455360000</pproTicksIn>
						<pproTicksOut>28744450560000</pproTicksOut>
						<alphatype>none</alphatype>
						<file id="file-124"/>
						<link>
							<linkclipref>clipitem-192</linkclipref>
							<mediatype>video</mediatype>
							<trackindex>1</trackindex>
							<clipindex>202</clipindex>
						</link>
						<link>
							<linkclipref>clipitem-809</linkclipref>
							<mediatype>audio</mediatype>
							<trackindex>8</trackindex>
							<clipindex>110</clipindex>
							<groupindex>1</groupindex>
						</link>
						<link>
							<linkclipref>clipitem-903</linkclipref>
							<mediatype>audio</mediatype>
							<trackindex>9</trackindex>
							<clipindex>108</clipindex>
							<groupindex>1</groupindex>
						</link>
						<logginginfo>
							<description></description>
							<scene></scene>
							<shottake></shottake>
							<lognote></lognote>
						</logginginfo>
						<labels>
							<label2>Iris</label2>
						</labels>
					</clipitem>
					<clipitem id="clipitem-193">
						<masterclipid>masterclip-95</masterclipid>
						<name>Nordvisjon-MASTER-vr3-201016-ny-m-komm.mxf</name>
						<enabled>TRUE</enabled>
						<duration>2352</duration>
						<rate>
							<timebase>25</timebase>
							<ntsc>FALSE</ntsc>
						</rate>
						<start>65508</start>
						<end>66554</end>
						<in>806</in>
						<out>1852</out>
						<pproTicksIn>8189475840000</pproTicksIn>
						<pproTicksOut>18817505280000</pproTicksOut>
						<alphatype>none</alphatype>
						<file id="file-95"/>
						<logginginfo>
							<description></description>
							<scene></scene>
							<shottake></shottake>
							<lognote></lognote>
						</logginginfo>
						<labels>
							<label2>Iris</label2>
						</labels>
					</clipitem>
					<clipitem id="clipitem-194">
						<masterclipid>masterclip-100</masterclipid>
						<name>drone2-30juni-korrigert.mxf</name>
						<enabled>TRUE</enabled>
						<duration>15614</duration>
						<rate>
							<timebase>25</timebase>
							<ntsc>FALSE</ntsc>
						</rate>
						<start>66554</start>
						<end>66862</end>
						<in>12869</in>
						<out>13177</out>
						<pproTicksIn>130757276160000</pproTicksIn>
						<pproTicksOut>133886753280000</pproTicksOut>
						<alphatype>none</alphatype>
						<file id="file-100"/>
						<logginginfo>
							<description></description>
							<scene></scene>
							<shottake></shottake>
							<lognote></lognote>
						</logginginfo>
						<labels>
							<label2>Iris</label2>
						</labels>
					</clipitem>
					<clipitem id="clipitem-195">
						<masterclipid>masterclip-95</masterclipid>
						<name>Nordvisjon-MASTER-vr3-201016-ny-m-komm.mxf</name>
						<enabled>TRUE</enabled>
						<duration>2352</duration>
						<rate>
							<timebase>25</timebase>
							<ntsc>FALSE</ntsc>
						</rate>
						<start>66862</start>
						<end>67029</end>
						<in>2160</in>
						<out>2327</out>
						<pproTicksIn>21946982400000</pproTicksIn>
						<pproTicksOut>23643809280000</pproTicksOut>
						<alphatype>none</alphatype>
						<file id="file-95"/>
						<logginginfo>
							<description></description>
							<scene></scene>
							<shottake></shottake>
							<lognote></lognote>
						</logginginfo>
						<labels>
							<label2>Iris</label2>
						</labels>
					</clipitem>
					<clipitem id="clipitem-196">
						<masterclipid>masterclip-127</masterclipid>
						<name>Nordvisjon-MASTER-vr3-201016-ny-m-komm.mxf</name>
						<enabled>TRUE</enabled>
						<duration>461</duration>
						<rate>
							<timebase>25</timebase>
							<ntsc>FALSE</ntsc>
						</rate>
						<start>67029</start>
						<end>67440</end>
						<in>25</in>
						<out>436</out>
						<pproTicksIn>254016000000</pproTicksIn>
						<pproTicksOut>4430039040000</pproTicksOut>
						<alphatype>none</alphatype>
						<pixelaspectratio>square</pixelaspectratio>
						<anamorphic>FALSE</anamorphic>
						<file id="file-127">
							<name>Nordvisjon-MASTER-vr3-201016-ny-m-komm_002.mxf</name>
							<pathurl>file://localhost/Volumes/Vaagen/Utveksling/Natur/Naturlig%20helaften%20fra%20Oslo/Transcoded_Nedklipp%20helaften/Nordvisjon-MASTER-vr3-201016-ny-m-komm_002.mxf</pathurl>
							<rate>
								<timebase>25</timebase>
								<ntsc>FALSE</ntsc>
							</rate>
							<duration>461</duration>
							<timecode>
								<rate>
									<timebase>25</timebase>
									<ntsc>FALSE</ntsc>
								</rate>
								<string>00:02:42:13</string>
								<frame>4063</frame>
								<displayformat>NDF</displayformat>
								<reel>
									<name></name>
								</reel>
							</timecode>
							<media>
								<video>
									<samplecharacteristics>
										<rate>
											<timebase>25</timebase>
											<ntsc>FALSE</ntsc>
										</rate>
										<width>1920</width>
										<height>1080</height>
										<anamorphic>FALSE</anamorphic>
										<pixelaspectratio>square</pixelaspectratio>
										<fielddominance>upper</fielddominance>
									</samplecharacteristics>
								</video>
							</media>
						</file>
						<logginginfo>
							<description></description>
							<scene></scene>
							<shottake></shottake>
							<lognote></lognote>
						</logginginfo>
						<labels>
							<label2>Iris</label2>
						</labels>
					</clipitem>
					<clipitem id="clipitem-197">
						<masterclipid>masterclip-128</masterclipid>
						<name>Nordvisjon-MASTER-vr3-201016-ny-m-komm.mxf</name>
						<enabled>TRUE</enabled>
						<duration>632</duration>
						<rate>
							<timebase>25</timebase>
							<ntsc>FALSE</ntsc>
						</rate>
						<start>67440</start>
						<end>68022</end>
						<in>25</in>
						<out>607</out>
						<pproTicksIn>254016000000</pproTicksIn>
						<pproTicksOut>6167508480000</pproTicksOut>
						<alphatype>none</alphatype>
						<pixelaspectratio>square</pixelaspectratio>
						<anamorphic>FALSE</anamorphic>
						<file id="file-128">
							<name>Nordvisjon-MASTER-vr3-201016-ny-m-komm_004.mxf</name>
							<pathurl>file://localhost/Volumes/Vaagen/Utveksling/Natur/Naturlig%20helaften%20fra%20Oslo/Transcoded_Nedklipp%20helaften/Nordvisjon-MASTER-vr3-201016-ny-m-komm_004.mxf</pathurl>
							<rate>
								<timebase>25</timebase>
								<ntsc>FALSE</ntsc>
							</rate>
							<duration>632</duration>
							<timecode>
								<rate>
									<timebase>25</timebase>
									<ntsc>FALSE</ntsc>
								</rate>
								<string>00:03:05:08</string>
								<frame>4633</frame>
								<displayformat>NDF</displayformat>
								<reel>
									<name></name>
								</reel>
							</timecode>
							<media>
								<video>
									<samplecharacteristics>
										<rate>
											<timebase>25</timebase>
											<ntsc>FALSE</ntsc>
										</rate>
										<width>1920</width>
										<height>1080</height>
										<anamorphic>FALSE</anamorphic>
										<pixelaspectratio>square</pixelaspectratio>
										<fielddominance>upper</fielddominance>
									</samplecharacteristics>
								</video>
							</media>
						</file>
						<logginginfo>
							<description></description>
							<scene></scene>
							<shottake></shottake>
							<lognote></lognote>
						</logginginfo>
						<labels>
							<label2>Iris</label2>
						</labels>
					</clipitem>
					<clipitem id="clipitem-198">
						<masterclipid>masterclip-129</masterclipid>
						<name>Nordvisjon-MASTER-vr3-201016-ny-m-komm.mxf</name>
						<enabled>TRUE</enabled>
						<duration>3340</duration>
						<rate>
							<timebase>25</timebase>
							<ntsc>FALSE</ntsc>
						</rate>
						<start>68022</start>
						<end>70690</end>
						<in>25</in>
						<out>2693</out>
						<pproTicksIn>254016000000</pproTicksIn>
						<pproTicksOut>27362603520000</pproTicksOut>
						<alphatype>none</alphatype>
						<pixelaspectratio>square</pixelaspectratio>
						<anamorphic>FALSE</anamorphic>
						<file id="file-129">
							<name>Nordvisjon-MASTER-vr3-201016-ny-m-komm_003.mxf</name>
							<pathurl>file://localhost/Volumes/Vaagen/Utveksling/Natur/Naturlig%20helaften%20fra%20Oslo/Transcoded_Nedklipp%20helaften/Nordvisjon-MASTER-vr3-201016-ny-m-komm_003.mxf</pathurl>
							<rate>
								<timebase>25</timebase>
								<ntsc>FALSE</ntsc>
							</rate>
							<duration>3340</duration>
							<timecode>
								<rate>
									<timebase>25</timebase>
									<ntsc>FALSE</ntsc>
								</rate>
								<string>00:03:37:22</string>
								<frame>5447</frame>
								<displayformat>NDF</displayformat>
								<reel>
									<name></name>
								</reel>
							</timecode>
							<media>
								<video>
									<samplecharacteristics>
										<rate>
											<timebase>25</timebase>
											<ntsc>FALSE</ntsc>
										</rate>
										<width>1920</width>
										<height>1080</height>
										<anamorphic>FALSE</anamorphic>
										<pixelaspectratio>square</pixelaspectratio>
										<fielddominance>upper</fielddominance>
									</samplecharacteristics>
								</video>
							</media>
						</file>
						<logginginfo>
							<description></description>
							<scene></scene>
							<shottake></shottake>
							<lognote></lognote>
						</logginginfo>
						<labels>
							<label2>Iris</label2>
						</labels>
					</clipitem>
					<clipitem id="clipitem-199">
						<masterclipid>masterclip-129</masterclipid>
						<name>Nordvisjon-MASTER-vr3-201016-ny-m-komm.mxf</name>
						<enabled>TRUE</enabled>
						<duration>3340</duration>
						<rate>
							<timebase>25</timebase>
							<ntsc>FALSE</ntsc>
						</rate>
						<start>70690</start>
						<end>71312</end>
						<in>2693</in>
						<out>3315</out>
						<pproTicksIn>27362603520000</pproTicksIn>
						<pproTicksOut>33682521600000</pproTicksOut>
						<alphatype>none</alphatype>
						<file id="file-129"/>
						<logginginfo>
							<description></description>
							<scene></scene>
							<shottake></shottake>
							<lognote></lognote>
						</logginginfo>
						<labels>
							<label2>Iris</label2>
						</labels>
					</clipitem>
					<clipitem id="clipitem-200">
						<masterclipid>masterclip-130</masterclipid>
						<name>Nordvisjon-MASTER-vr3-201016-ny-m-komm.mxf</name>
						<enabled>TRUE</enabled>
						<duration>1507</duration>
						<rate>
							<timebase>25</timebase>
							<ntsc>FALSE</ntsc>
						</rate>
						<start>71312</start>
						<end>72769</end>
						<in>25</in>
						<out>1482</out>
						<pproTicksIn>254016000000</pproTicksIn>
						<pproTicksOut>15058068480000</pproTicksOut>
						<alphatype>none</alphatype>
						<pixelaspectratio>square</pixelaspectratio>
						<anamorphic>FALSE</anamorphic>
						<file id="file-130">
							<name>Nordvisjon-MASTER-vr3-201016-ny-m-komm_005.mxf</name>
							<pathurl>file://localhost/Volumes/Vaagen/Utveksling/Natur/Naturlig%20helaften%20fra%20Oslo/Transcoded_Nedklipp%20helaften/Nordvisjon-MASTER-vr3-201016-ny-m-komm_005.mxf</pathurl>
							<rate>
								<timebase>25</timebase>
								<ntsc>FALSE</ntsc>
							</rate>
							<duration>1507</duration>
							<timecode>
								<rate>
									<timebase>25</timebase>
									<ntsc>FALSE</ntsc>
								</rate>
								<string>00:07:26:17</string>
								<frame>11167</frame>
								<displayformat>NDF</displayformat>
								<reel>
									<name></name>
								</reel>
							</timecode>
							<media>
								<video>
									<samplecharacteristics>
										<rate>
											<timebase>25</timebase>
											<ntsc>FALSE</ntsc>
										</rate>
										<width>1920</width>
										<height>1080</height>
										<anamorphic>FALSE</anamorphic>
										<pixelaspectratio>square</pixelaspectratio>
										<fielddominance>upper</fielddominance>
									</samplecharacteristics>
								</video>
							</media>
						</file>
						<logginginfo>
							<description></description>
							<scene></scene>
							<shottake></shottake>
							<lognote></lognote>
						</logginginfo>
						<labels>
							<label2>Iris</label2>
						</labels>
					</clipitem>
					<clipitem id="clipitem-201">
						<masterclipid>masterclip-131</masterclipid>
						<name>Nordvisjon-MASTER-vr3-201016-ny-m-komm.mxf</name>
						<enabled>TRUE</enabled>
						<duration>856</duration>
						<rate>
							<timebase>25</timebase>
							<ntsc>FALSE</ntsc>
						</rate>
						<start>72769</start>
						<end>73575</end>
						<in>25</in>
						<out>831</out>
						<pproTicksIn>254016000000</pproTicksIn>
						<pproTicksOut>8443491840000</pproTicksOut>
						<alphatype>none</alphatype>
						<pixelaspectratio>square</pixelaspectratio>
						<anamorphic>FALSE</anamorphic>
						<file id="file-131">
							<name>Nordvisjon-MASTER-vr3-201016-ny-m-komm_006.mxf</name>
							<pathurl>file://localhost/Volumes/Vaagen/Utveksling/Natur/Naturlig%20helaften%20fra%20Oslo/Transcoded_Nedklipp%20helaften/Nordvisjon-MASTER-vr3-201016-ny-m-komm_006.mxf</pathurl>
							<rate>
								<timebase>25</timebase>
								<ntsc>FALSE</ntsc>
							</rate>
							<duration>856</duration>
							<timecode>
								<rate>
									<timebase>25</timebase>
									<ntsc>FALSE</ntsc>
								</rate>
								<string>00:09:23:24</string>
								<frame>14099</frame>
								<displayformat>NDF</displayformat>
								<reel>
									<name></name>
								</reel>
							</timecode>
							<media>
								<video>
									<samplecharacteristics>
										<rate>
											<timebase>25</timebase>
											<ntsc>FALSE</ntsc>
										</rate>
										<width>1920</width>
										<height>1080</height>
										<anamorphic>FALSE</anamorphic>
										<pixelaspectratio>square</pixelaspectratio>
										<fielddominance>upper</fielddominance>
									</samplecharacteristics>
								</video>
							</media>
						</file>
						<logginginfo>
							<description></description>
							<scene></scene>
							<shottake></shottake>
							<lognote></lognote>
						</logginginfo>
						<labels>
							<label2>Iris</label2>
						</labels>
					</clipitem>
					<clipitem id="clipitem-202">
						<masterclipid>masterclip-132</masterclipid>
						<name>Nordvisjon-MASTER-vr3-201016-ny-m-komm.mxf</name>
						<enabled>TRUE</enabled>
						<duration>831</duration>
						<rate>
							<timebase>25</timebase>
							<ntsc>FALSE</ntsc>
						</rate>
						<start>73575</start>
						<end>74356</end>
						<in>25</in>
						<out>806</out>
						<pproTicksIn>254016000000</pproTicksIn>
						<pproTicksOut>8189475840000</pproTicksOut>
						<alphatype>none</alphatype>
						<pixelaspectratio>square</pixelaspectratio>
						<anamorphic>FALSE</anamorphic>
						<file id="file-132">
							<name>Nordvisjon-MASTER-vr3-201016-ny-m-komm_007.mxf</name>
							<pathurl>file://localhost/Volumes/Vaagen/Utveksling/Natur/Naturlig%20helaften%20fra%20Oslo/Transcoded_Nedklipp%20helaften/Nordvisjon-MASTER-vr3-201016-ny-m-komm_007.mxf</pathurl>
							<rate>
								<timebase>25</timebase>
								<ntsc>FALSE</ntsc>
							</rate>
							<duration>831</duration>
							<timecode>
								<rate>
									<timebase>25</timebase>
									<ntsc>FALSE</ntsc>
								</rate>
								<string>00:10:17:03</string>
								<frame>15428</frame>
								<displayformat>NDF</displayformat>
								<reel>
									<name></name>
								</reel>
							</timecode>
							<media>
								<video>
									<samplecharacteristics>
										<rate>
											<timebase>25</timebase>
											<ntsc>FALSE</ntsc>
										</rate>
										<width>1920</width>
										<height>1080</height>
										<anamorphic>FALSE</anamorphic>
										<pixelaspectratio>square</pixelaspectratio>
										<fielddominance>upper</fielddominance>
									</samplecharacteristics>
								</video>
							</media>
						</file>
						<logginginfo>
							<description></description>
							<scene></scene>
							<shottake></shottake>
							<lognote></lognote>
						</logginginfo>
						<labels>
							<label2>Iris</label2>
						</labels>
					</clipitem>
					<clipitem id="clipitem-203">
						<masterclipid>masterclip-133</masterclipid>
						<name>Nordvisjon-MASTER-vr3-201016-ny-m-komm.mxf</name>
						<enabled>TRUE</enabled>
						<duration>773</duration>
						<rate>
							<timebase>25</timebase>
							<ntsc>FALSE</ntsc>
						</rate>
						<start>74356</start>
						<end>75079</end>
						<in>25</in>
						<out>748</out>
						<pproTicksIn>254016000000</pproTicksIn>
						<pproTicksOut>7600158720000</pproTicksOut>
						<alphatype>none</alphatype>
						<pixelaspectratio>square</pixelaspectratio>
						<anamorphic>FALSE</anamorphic>
						<file id="file-133">
							<name>Nordvisjon-MASTER-vr3-201016-ny-m-komm_001.mxf</name>
							<pathurl>file://localhost/Volumes/Vaagen/Utveksling/Natur/Naturlig%20helaften%20fra%20Oslo/Transcoded_Nedklipp%20helaften/Nordvisjon-MASTER-vr3-201016-ny-m-komm_001.mxf</pathurl>
							<rate>
								<timebase>25</timebase>
								<ntsc>FALSE</ntsc>
							</rate>
							<duration>773</duration>
							<timecode>
								<rate>
									<timebase>25</timebase>
									<ntsc>FALSE</ntsc>
								</rate>
								<string>00:13:26:07</string>
								<frame>20157</frame>
								<displayformat>NDF</displayformat>
								<reel>
									<name></name>
								</reel>
							</timecode>
							<media>
								<video>
									<samplecharacteristics>
										<rate>
											<timebase>25</timebase>
											<ntsc>FALSE</ntsc>
										</rate>
										<width>1920</width>
										<height>1080</height>
										<anamorphic>FALSE</anamorphic>
										<pixelaspectratio>square</pixelaspectratio>
										<fielddominance>upper</fielddominance>
									</samplecharacteristics>
								</video>
							</media>
						</file>
						<logginginfo>
							<description></description>
							<scene></scene>
							<shottake></shottake>
							<lognote></lognote>
						</logginginfo>
						<labels>
							<label2>Iris</label2>
						</labels>
					</clipitem>
					<clipitem id="clipitem-204">
						<masterclipid>masterclip-134</masterclipid>
						<name>Nordvisjon-MASTER-vr3-201016-ny-m-komm.mxf</name>
						<enabled>TRUE</enabled>
						<duration>345</duration>
						<rate>
							<timebase>25</timebase>
							<ntsc>FALSE</ntsc>
						</rate>
						<start>75079</start>
						<end>75374</end>
						<in>25</in>
						<out>320</out>
						<pproTicksIn>254016000000</pproTicksIn>
						<pproTicksOut>3251404800000</pproTicksOut>
						<alphatype>none</alphatype>
						<pixelaspectratio>square</pixelaspectratio>
						<anamorphic>FALSE</anamorphic>
						<file id="file-134">
							<name>Nordvisjon-MASTER-vr3-201016-ny-m-komm_010.mxf</name>
							<pathurl>file://localhost/Volumes/Vaagen/Utveksling/Natur/Naturlig%20helaften%20fra%20Oslo/Transcoded_Nedklipp%20helaften/Nordvisjon-MASTER-vr3-201016-ny-m-komm_010.mxf</pathurl>
							<rate>
								<timebase>25</timebase>
								<ntsc>FALSE</ntsc>
							</rate>
							<duration>345</duration>
							<timecode>
								<rate>
									<timebase>25</timebase>
									<ntsc>FALSE</ntsc>
								</rate>
								<string>00:14:35:07</string>
								<frame>21882</frame>
								<displayformat>NDF</displayformat>
								<reel>
									<name></name>
								</reel>
							</timecode>
							<media>
								<video>
									<samplecharacteristics>
										<rate>
											<timebase>25</timebase>
											<ntsc>FALSE</ntsc>
										</rate>
										<width>1920</width>
										<height>1080</height>
										<anamorphic>FALSE</anamorphic>
										<pixelaspectratio>square</pixelaspectratio>
										<fielddominance>upper</fielddominance>
									</samplecharacteristics>
								</video>
							</media>
						</file>
						<logginginfo>
							<description></description>
							<scene></scene>
							<shottake></shottake>
							<lognote></lognote>
						</logginginfo>
						<labels>
							<label2>Iris</label2>
						</labels>
					</clipitem>
					<clipitem id="clipitem-205">
						<masterclipid>masterclip-135</masterclipid>
						<name>Nordvisjon2MASTER_i-lyd.mxf</name>
						<enabled>TRUE</enabled>
						<duration>2125</duration>
						<rate>
							<timebase>25</timebase>
							<ntsc>FALSE</ntsc>
						</rate>
						<start>75374</start>
						<end>77442</end>
						<in>25</in>
						<out>2093</out>
						<pproTicksIn>254016000000</pproTicksIn>
						<pproTicksOut>21266219520000</pproTicksOut>
						<alphatype>none</alphatype>
						<pixelaspectratio>square</pixelaspectratio>
						<anamorphic>FALSE</anamorphic>
						<file id="file-135">
							<name>Nordvisjon2MASTER_i-lyd_001.mxf</name>
							<pathurl>file://localhost/Volumes/Vaagen/Utveksling/Natur/Naturlig%20helaften%20fra%20Oslo/Transcoded_Nedklipp%20helaften/Nordvisjon2MASTER_i-lyd_001.mxf</pathurl>
							<rate>
								<timebase>25</timebase>
								<ntsc>FALSE</ntsc>
							</rate>
							<duration>2125</duration>
							<timecode>
								<rate>
									<timebase>25</timebase>
									<ntsc>FALSE</ntsc>
								</rate>
								<string>00:09:04:22</string>
								<frame>13622</frame>
								<displayformat>NDF</displayformat>
								<reel>
									<name></name>
								</reel>
							</timecode>
							<media>
								<video>
									<samplecharacteristics>
										<rate>
											<timebase>25</timebase>
											<ntsc>FALSE</ntsc>
										</rate>
										<width>1920</width>
										<height>1080</height>
										<anamorphic>FALSE</anamorphic>
										<pixelaspectratio>square</pixelaspectratio>
										<fielddominance>upper</fielddominance>
									</samplecharacteristics>
								</video>
								<audio>
									<samplecharacteristics>
										<depth>16</depth>
										<samplerate>48000</samplerate>
									</samplecharacteristics>
									<channelcount>2</channelcount>
								</audio>
								<audio>
									<samplecharacteristics>
										<depth>16</depth>
										<samplerate>48000</samplerate>
									</samplecharacteristics>
									<channelcount>2</channelcount>
								</audio>
								<audio>
									<samplecharacteristics>
										<depth>16</depth>
										<samplerate>48000</samplerate>
									</samplecharacteristics>
									<channelcount>2</channelcount>
								</audio>
								<audio>
									<samplecharacteristics>
										<depth>16</depth>
										<samplerate>48000</samplerate>
									</samplecharacteristics>
									<channelcount>2</channelcount>
								</audio>
							</media>
						</file>
						<logginginfo>
							<description></description>
							<scene></scene>
							<shottake></shottake>
							<lognote></lognote>
						</logginginfo>
						<labels>
							<label2>Iris</label2>
						</labels>
					</clipitem>
					<clipitem id="clipitem-206">
						<masterclipid>masterclip-136</masterclipid>
						<name>Nordvisjon2MASTER_i-lyd.mxf</name>
						<enabled>TRUE</enabled>
						<duration>1386</duration>
						<rate>
							<timebase>25</timebase>
							<ntsc>FALSE</ntsc>
						</rate>
						<start>77442</start>
						<end>78228</end>
						<in>31</in>
						<out>817</out>
						<pproTicksIn>314979840000</pproTicksIn>
						<pproTicksOut>8301242880000</pproTicksOut>
						<alphatype>none</alphatype>
						<pixelaspectratio>square</pixelaspectratio>
						<anamorphic>FALSE</anamorphic>
						<file id="file-136">
							<name>Nordvisjon2MASTER_i-lyd_011.mxf</name>
							<pathurl>file://localhost/Volumes/Vaagen/Utveksling/Natur/Naturlig%20helaften%20fra%20Oslo/Transcoded_Nedklipp%20helaften/Nordvisjon2MASTER_i-lyd_011.mxf</pathurl>
							<rate>
								<timebase>25</timebase>
								<ntsc>FALSE</ntsc>
							</rate>
							<duration>1386</duration>
							<timecode>
								<rate>
									<timebase>25</timebase>
									<ntsc>FALSE</ntsc>
								</rate>
								<string>00:25:13:09</string>
								<frame>37834</frame>
								<displayformat>NDF</displayformat>
								<reel>
									<name></name>
								</reel>
							</timecode>
							<media>
								<video>
									<samplecharacteristics>
										<rate>
											<timebase>25</timebase>
											<ntsc>FALSE</ntsc>
										</rate>
										<width>1920</width>
										<height>1080</height>
										<anamorphic>FALSE</anamorphic>
										<pixelaspectratio>square</pixelaspectratio>
										<fielddominance>upper</fielddominance>
									</samplecharacteristics>
								</video>
								<audio>
									<samplecharacteristics>
										<depth>16</depth>
										<samplerate>48000</samplerate>
									</samplecharacteristics>
									<channelcount>2</channelcount>
								</audio>
								<audio>
									<samplecharacteristics>
										<depth>16</depth>
										<samplerate>48000</samplerate>
									</samplecharacteristics>
									<channelcount>2</channelcount>
								</audio>
								<audio>
									<samplecharacteristics>
										<depth>16</depth>
										<samplerate>48000</samplerate>
									</samplecharacteristics>
									<channelcount>2</channelcount>
								</audio>
								<audio>
									<samplecharacteristics>
										<depth>16</depth>
										<samplerate>48000</samplerate>
									</samplecharacteristics>
									<channelcount>2</channelcount>
								</audio>
							</media>
						</file>
						<logginginfo>
							<description></description>
							<scene></scene>
							<shottake></shottake>
							<lognote></lognote>
						</logginginfo>
						<labels>
							<label2>Iris</label2>
						</labels>
					</clipitem>
					<clipitem id="clipitem-207">
						<masterclipid>masterclip-137</masterclipid>
						<name>Nordvisjon2MASTER_i-lyd.mxf</name>
						<enabled>TRUE</enabled>
						<duration>859</duration>
						<rate>
							<timebase>25</timebase>
							<ntsc>FALSE</ntsc>
						</rate>
						<start>78228</start>
						<end>79019</end>
						<in>36</in>
						<out>827</out>
						<pproTicksIn>365783040000</pproTicksIn>
						<pproTicksOut>8402849280000</pproTicksOut>
						<alphatype>none</alphatype>
						<pixelaspectratio>square</pixelaspectratio>
						<anamorphic>FALSE</anamorphic>
						<file id="file-137">
							<name>Nordvisjon2MASTER_i-lyd_002.mxf</name>
							<pathurl>file://localhost/Volumes/Vaagen/Utveksling/Natur/Naturlig%20helaften%20fra%20Oslo/Transcoded_Nedklipp%20helaften/Nordvisjon2MASTER_i-lyd_002.mxf</pathurl>
							<rate>
								<timebase>25</timebase>
								<ntsc>FALSE</ntsc>
							</rate>
							<duration>859</duration>
							<timecode>
								<rate>
									<timebase>25</timebase>
									<ntsc>FALSE</ntsc>
								</rate>
								<string>00:16:00:00</string>
								<frame>24000</frame>
								<displayformat>NDF</displayformat>
								<reel>
									<name></name>
								</reel>
							</timecode>
							<media>
								<video>
									<samplecharacteristics>
										<rate>
											<timebase>25</timebase>
											<ntsc>FALSE</ntsc>
										</rate>
										<width>1920</width>
										<height>1080</height>
										<anamorphic>FALSE</anamorphic>
										<pixelaspectratio>square</pixelaspectratio>
										<fielddominance>upper</fielddominance>
									</samplecharacteristics>
								</video>
								<audio>
									<samplecharacteristics>
										<depth>16</depth>
										<samplerate>48000</samplerate>
									</samplecharacteristics>
									<channelcount>2</channelcount>
								</audio>
								<audio>
									<samplecharacteristics>
										<depth>16</depth>
										<samplerate>48000</samplerate>
									</samplecharacteristics>
									<channelcount>2</channelcount>
								</audio>
								<audio>
									<samplecharacteristics>
										<depth>16</depth>
										<samplerate>48000</samplerate>
									</samplecharacteristics>
									<channelcount>2</channelcount>
								</audio>
								<audio>
									<samplecharacteristics>
										<depth>16</depth>
										<samplerate>48000</samplerate>
									</samplecharacteristics>
									<channelcount>2</channelcount>
								</audio>
							</media>
						</file>
						<logginginfo>
							<description></description>
							<scene></scene>
							<shottake></shottake>
							<lognote></lognote>
						</logginginfo>
						<labels>
							<label2>Iris</label2>
						</labels>
					</clipitem>
					<clipitem id="clipitem-208">
						<masterclipid>masterclip-138</masterclipid>
						<name>Nordvisjon2MASTER_i-lyd.mxf</name>
						<enabled>TRUE</enabled>
						<duration>656</duration>
						<rate>
							<timebase>25</timebase>
							<ntsc>FALSE</ntsc>
						</rate>
						<start>79019</start>
						<end>79612</end>
						<in>31</in>
						<out>624</out>
						<pproTicksIn>314979840000</pproTicksIn>
						<pproTicksOut>6340239360000</pproTicksOut>
						<alphatype>none</alphatype>
						<pixelaspectratio>square</pixelaspectratio>
						<anamorphic>FALSE</anamorphic>
						<file id="file-138">
							<name>Nordvisjon2MASTER_i-lyd_006.mxf</name>
							<pathurl>file://localhost/Volumes/Vaagen/Utveksling/Natur/Naturlig%20helaften%20fra%20Oslo/Transcoded_Nedklipp%20helaften/Nordvisjon2MASTER_i-lyd_006.mxf</pathurl>
							<rate>
								<timebase>25</timebase>
								<ntsc>FALSE</ntsc>
							</rate>
							<duration>656</duration>
							<timecode>
								<rate>
									<timebase>25</timebase>
									<ntsc>FALSE</ntsc>
								</rate>
								<string>00:17:18:15</string>
								<frame>25965</frame>
								<displayformat>NDF</displayformat>
								<reel>
									<name></name>
								</reel>
							</timecode>
							<media>
								<video>
									<samplecharacteristics>
										<rate>
											<timebase>25</timebase>
											<ntsc>FALSE</ntsc>
										</rate>
										<width>1920</width>
										<height>1080</height>
										<anamorphic>FALSE</anamorphic>
										<pixelaspectratio>square</pixelaspectratio>
										<fielddominance>upper</fielddominance>
									</samplecharacteristics>
								</video>
								<audio>
									<samplecharacteristics>
										<depth>16</depth>
										<samplerate>48000</samplerate>
									</samplecharacteristics>
									<channelcount>2</channelcount>
								</audio>
								<audio>
									<samplecharacteristics>
										<depth>16</depth>
										<samplerate>48000</samplerate>
									</samplecharacteristics>
									<channelcount>2</channelcount>
								</audio>
								<audio>
									<samplecharacteristics>
										<depth>16</depth>
										<samplerate>48000</samplerate>
									</samplecharacteristics>
									<channelcount>2</channelcount>
								</audio>
								<audio>
									<samplecharacteristics>
										<depth>16</depth>
										<samplerate>48000</samplerate>
									</samplecharacteristics>
									<channelcount>2</channelcount>
								</audio>
							</media>
						</file>
						<logginginfo>
							<description></description>
							<scene></scene>
							<shottake></shottake>
							<lognote></lognote>
						</logginginfo>
						<labels>
							<label2>Iris</label2>
						</labels>
					</clipitem>
					<clipitem id="clipitem-209">
						<masterclipid>masterclip-139</masterclipid>
						<name>Nordvisjon2MASTER_i-lyd.mxf</name>
						<enabled>TRUE</enabled>
						<duration>985</duration>
						<rate>
							<timebase>25</timebase>
							<ntsc>FALSE</ntsc>
						</rate>
						<start>79612</start>
						<end>80534</end>
						<in>31</in>
						<out>953</out>
						<pproTicksIn>314979840000</pproTicksIn>
						<pproTicksOut>9683089920000</pproTicksOut>
						<alphatype>none</alphatype>
						<pixelaspectratio>square</pixelaspectratio>
						<anamorphic>FALSE</anamorphic>
						<file id="file-139">
							<name>Nordvisjon2MASTER_i-lyd_003.mxf</name>
							<pathurl>file://localhost/Volumes/Vaagen/Utveksling/Natur/Naturlig%20helaften%20fra%20Oslo/Transcoded_Nedklipp%20helaften/Nordvisjon2MASTER_i-lyd_003.mxf</pathurl>
							<rate>
								<timebase>25</timebase>
								<ntsc>FALSE</ntsc>
							</rate>
							<duration>985</duration>
							<timecode>
								<rate>
									<timebase>25</timebase>
									<ntsc>FALSE</ntsc>
								</rate>
								<string>00:17:58:00</string>
								<frame>26950</frame>
								<displayformat>NDF</displayformat>
								<reel>
									<name></name>
								</reel>
							</timecode>
							<media>
								<video>
									<samplecharacteristics>
										<rate>
											<timebase>25</timebase>
											<ntsc>FALSE</ntsc>
										</rate>
										<width>1920</width>
										<height>1080</height>
										<anamorphic>FALSE</anamorphic>
										<pixelaspectratio>square</pixelaspectratio>
										<fielddominance>upper</fielddominance>
									</samplecharacteristics>
								</video>
								<audio>
									<samplecharacteristics>
										<depth>16</depth>
										<samplerate>48000</samplerate>
									</samplecharacteristics>
									<channelcount>2</channelcount>
								</audio>
								<audio>
									<samplecharacteristics>
										<depth>16</depth>
										<samplerate>48000</samplerate>
									</samplecharacteristics>
									<channelcount>2</channelcount>
								</audio>
								<audio>
									<samplecharacteristics>
										<depth>16</depth>
										<samplerate>48000</samplerate>
									</samplecharacteristics>
									<channelcount>2</channelcount>
								</audio>
								<audio>
									<samplecharacteristics>
										<depth>16</depth>
										<samplerate>48000</samplerate>
									</samplecharacteristics>
									<channelcount>2</channelcount>
								</audio>
							</media>
						</file>
						<logginginfo>
							<description></description>
							<scene></scene>
							<shottake></shottake>
							<lognote></lognote>
						</logginginfo>
						<labels>
							<label2>Iris</label2>
						</labels>
					</clipitem>
					<clipitem id="clipitem-210">
						<masterclipid>masterclip-140</masterclipid>
						<name>Nordvisjon2MASTER_i-lyd.mxf</name>
						<enabled>TRUE</enabled>
						<duration>1678</duration>
						<rate>
							<timebase>25</timebase>
							<ntsc>FALSE</ntsc>
						</rate>
						<start>80534</start>
						<end>82149</end>
						<in>31</in>
						<out>1646</out>
						<pproTicksIn>314979840000</pproTicksIn>
						<pproTicksOut>16724413440000</pproTicksOut>
						<alphatype>none</alphatype>
						<pixelaspectratio>square</pixelaspectratio>
						<anamorphic>FALSE</anamorphic>
						<file id="file-140">
							<name>Nordvisjon2MASTER_i-lyd_004.mxf</name>
							<pathurl>file://localhost/Volumes/Vaagen/Utveksling/Natur/Naturlig%20helaften%20fra%20Oslo/Transcoded_Nedklipp%20helaften/Nordvisjon2MASTER_i-lyd_004.mxf</pathurl>
							<rate>
								<timebase>25</timebase>
								<ntsc>FALSE</ntsc>
							</rate>
							<duration>1678</duration>
							<timecode>
								<rate>
									<timebase>25</timebase>
									<ntsc>FALSE</ntsc>
								</rate>
								<string>00:19:11:12</string>
								<frame>28787</frame>
								<displayformat>NDF</displayformat>
								<reel>
									<name></name>
								</reel>
							</timecode>
							<media>
								<video>
									<samplecharacteristics>
										<rate>
											<timebase>25</timebase>
											<ntsc>FALSE</ntsc>
										</rate>
										<width>1920</width>
										<height>1080</height>
										<anamorphic>FALSE</anamorphic>
										<pixelaspectratio>square</pixelaspectratio>
										<fielddominance>upper</fielddominance>
									</samplecharacteristics>
								</video>
								<audio>
									<samplecharacteristics>
										<depth>16</depth>
										<samplerate>48000</samplerate>
									</samplecharacteristics>
									<channelcount>2</channelcount>
								</audio>
								<audio>
									<samplecharacteristics>
										<depth>16</depth>
										<samplerate>48000</samplerate>
									</samplecharacteristics>
									<channelcount>2</channelcount>
								</audio>
								<audio>
									<samplecharacteristics>
										<depth>16</depth>
										<samplerate>48000</samplerate>
									</samplecharacteristics>
									<channelcount>2</channelcount>
								</audio>
								<audio>
									<samplecharacteristics>
										<depth>16</depth>
										<samplerate>48000</samplerate>
									</samplecharacteristics>
									<channelcount>2</channelcount>
								</audio>
							</media>
						</file>
						<logginginfo>
							<description></description>
							<scene></scene>
							<shottake></shottake>
							<lognote></lognote>
						</logginginfo>
						<labels>
							<label2>Iris</label2>
						</labels>
					</clipitem>
					<clipitem id="clipitem-211">
						<masterclipid>masterclip-141</masterclipid>
						<name>Nordvisjon2MASTER_i-lyd.mxf</name>
						<enabled>TRUE</enabled>
						<duration>3202</duration>
						<rate>
							<timebase>25</timebase>
							<ntsc>FALSE</ntsc>
						</rate>
						<start>82149</start>
						<end>85288</end>
						<in>31</in>
						<out>3170</out>
						<pproTicksIn>314979840000</pproTicksIn>
						<pproTicksOut>32209228800000</pproTicksOut>
						<alphatype>none</alphatype>
						<pixelaspectratio>square</pixelaspectratio>
						<anamorphic>FALSE</anamorphic>
						<file id="file-141">
							<name>Nordvisjon2MASTER_i-lyd_005.mxf</name>
							<pathurl>file://localhost/Volumes/Vaagen/Utveksling/Natur/Naturlig%20helaften%20fra%20Oslo/Transcoded_Nedklipp%20helaften/Nordvisjon2MASTER_i-lyd_005.mxf</pathurl>
							<rate>
								<timebase>25</timebase>
								<ntsc>FALSE</ntsc>
							</rate>
							<duration>3202</duration>
							<timecode>
								<rate>
									<timebase>25</timebase>
									<ntsc>FALSE</ntsc>
								</rate>
								<string>00:20:39:07</string>
								<frame>30982</frame>
								<displayformat>NDF</displayformat>
								<reel>
									<name></name>
								</reel>
							</timecode>
							<media>
								<video>
									<samplecharacteristics>
										<rate>
											<timebase>25</timebase>
											<ntsc>FALSE</ntsc>
										</rate>
										<width>1920</width>
										<height>1080</height>
										<anamorphic>FALSE</anamorphic>
										<pixelaspectratio>square</pixelaspectratio>
										<fielddominance>upper</fielddominance>
									</samplecharacteristics>
								</video>
								<audio>
									<samplecharacteristics>
										<depth>16</depth>
										<samplerate>48000</samplerate>
									</samplecharacteristics>
									<channelcount>2</channelcount>
								</audio>
								<audio>
									<samplecharacteristics>
										<depth>16</depth>
										<samplerate>48000</samplerate>
									</samplecharacteristics>
									<channelcount>2</channelcount>
								</audio>
								<audio>
									<samplecharacteristics>
										<depth>16</depth>
										<samplerate>48000</samplerate>
									</samplecharacteristics>
									<channelcount>2</channelcount>
								</audio>
								<audio>
									<samplecharacteristics>
										<depth>16</depth>
										<samplerate>48000</samplerate>
									</samplecharacteristics>
									<channelcount>2</channelcount>
								</audio>
							</media>
						</file>
						<logginginfo>
							<description></description>
							<scene></scene>
							<shottake></shottake>
							<lognote></lognote>
						</logginginfo>
						<labels>
							<label2>Iris</label2>
						</labels>
					</clipitem>
					<clipitem id="clipitem-212">
						<masterclipid>masterclip-142</masterclipid>
						<name>Nordvisjon2MASTER_i-lyd.mxf</name>
						<enabled>TRUE</enabled>
						<duration>363</duration>
						<rate>
							<timebase>25</timebase>
							<ntsc>FALSE</ntsc>
						</rate>
						<start>85288</start>
						<end>85588</end>
						<in>31</in>
						<out>331</out>
						<pproTicksIn>314979840000</pproTicksIn>
						<pproTicksOut>3363171840000</pproTicksOut>
						<alphatype>none</alphatype>
						<pixelaspectratio>square</pixelaspectratio>
						<anamorphic>FALSE</anamorphic>
						<file id="file-142">
							<name>Nordvisjon2MASTER_i-lyd_008.mxf</name>
							<pathurl>file://localhost/Volumes/Vaagen/Utveksling/Natur/Naturlig%20helaften%20fra%20Oslo/Transcoded_Nedklipp%20helaften/Nordvisjon2MASTER_i-lyd_008.mxf</pathurl>
							<rate>
								<timebase>25</timebase>
								<ntsc>FALSE</ntsc>
							</rate>
							<duration>363</duration>
							<timecode>
								<rate>
									<timebase>25</timebase>
									<ntsc>FALSE</ntsc>
								</rate>
								<string>00:23:14:22</string>
								<frame>34872</frame>
								<displayformat>NDF</displayformat>
								<reel>
									<name></name>
								</reel>
							</timecode>
							<media>
								<video>
									<samplecharacteristics>
										<rate>
											<timebase>25</timebase>
											<ntsc>FALSE</ntsc>
										</rate>
										<width>1920</width>
										<height>1080</height>
										<anamorphic>FALSE</anamorphic>
										<pixelaspectratio>square</pixelaspectratio>
										<fielddominance>upper</fielddominance>
									</samplecharacteristics>
								</video>
								<audio>
									<samplecharacteristics>
										<depth>16</depth>
										<samplerate>48000</samplerate>
									</samplecharacteristics>
									<channelcount>2</channelcount>
								</audio>
								<audio>
									<samplecharacteristics>
										<depth>16</depth>
										<samplerate>48000</samplerate>
									</samplecharacteristics>
									<channelcount>2</channelcount>
								</audio>
								<audio>
									<samplecharacteristics>
										<depth>16</depth>
										<samplerate>48000</samplerate>
									</samplecharacteristics>
									<channelcount>2</channelcount>
								</audio>
								<audio>
									<samplecharacteristics>
										<depth>16</depth>
										<samplerate>48000</samplerate>
									</samplecharacteristics>
									<channelcount>2</channelcount>
								</audio>
							</media>
						</file>
						<logginginfo>
							<description></description>
							<scene></scene>
							<shottake></shottake>
							<lognote></lognote>
						</logginginfo>
						<labels>
							<label2>Iris</label2>
						</labels>
					</clipitem>
					<clipitem id="clipitem-213">
						<masterclipid>masterclip-136</masterclipid>
						<name>Nordvisjon2MASTER_i-lyd.mxf</name>
						<enabled>TRUE</enabled>
						<duration>1386</duration>
						<rate>
							<timebase>25</timebase>
							<ntsc>FALSE</ntsc>
						</rate>
						<start>85588</start>
						<end>85727</end>
						<in>977</in>
						<out>1116</out>
						<pproTicksIn>9926945280000</pproTicksIn>
						<pproTicksOut>11339274240000</pproTicksOut>
						<alphatype>none</alphatype>
						<file id="file-136"/>
						<logginginfo>
							<description></description>
							<scene></scene>
							<shottake></shottake>
							<lognote></lognote>
						</logginginfo>
						<labels>
							<label2>Iris</label2>
						</labels>
					</clipitem>
					<clipitem id="clipitem-214">
						<masterclipid>masterclip-143</masterclipid>
						<name>Nordvisjon2MASTER_i-lyd.mxf</name>
						<enabled>TRUE</enabled>
						<duration>289</duration>
						<rate>
							<timebase>25</timebase>
							<ntsc>FALSE</ntsc>
						</rate>
						<start>85727</start>
						<end>85911</end>
						<in>31</in>
						<out>215</out>
						<pproTicksIn>314979840000</pproTicksIn>
						<pproTicksOut>2184537600000</pproTicksOut>
						<alphatype>none</alphatype>
						<pixelaspectratio>square</pixelaspectratio>
						<anamorphic>FALSE</anamorphic>
						<file id="file-143">
							<name>Nordvisjon2MASTER_i-lyd_010.mxf</name>
							<pathurl>file://localhost/Volumes/Vaagen/Utveksling/Natur/Naturlig%20helaften%20fra%20Oslo/Transcoded_Nedklipp%20helaften/Nordvisjon2MASTER_i-lyd_010.mxf</pathurl>
							<rate>
								<timebase>25</timebase>
								<ntsc>FALSE</ntsc>
							</rate>
							<duration>289</duration>
							<timecode>
								<rate>
									<timebase>25</timebase>
									<ntsc>FALSE</ntsc>
								</rate>
								<string>00:26:40:09</string>
								<frame>40009</frame>
								<displayformat>NDF</displayformat>
								<reel>
									<name></name>
								</reel>
							</timecode>
							<media>
								<video>
									<samplecharacteristics>
										<rate>
											<timebase>25</timebase>
											<ntsc>FALSE</ntsc>
										</rate>
										<width>1920</width>
										<height>1080</height>
										<anamorphic>FALSE</anamorphic>
										<pixelaspectratio>square</pixelaspectratio>
										<fielddominance>upper</fielddominance>
									</samplecharacteristics>
								</video>
								<audio>
									<samplecharacteristics>
										<depth>16</depth>
										<samplerate>48000</samplerate>
									</samplecharacteristics>
									<channelcount>2</channelcount>
								</audio>
								<audio>
									<samplecharacteristics>
										<depth>16</depth>
										<samplerate>48000</samplerate>
									</samplecharacteristics>
									<channelcount>2</channelcount>
								</audio>
								<audio>
									<samplecharacteristics>
										<depth>16</depth>
										<samplerate>48000</samplerate>
									</samplecharacteristics>
									<channelcount>2</channelcount>
								</audio>
								<audio>
									<samplecharacteristics>
										<depth>16</depth>
										<samplerate>48000</samplerate>
									</samplecharacteristics>
									<channelcount>2</channelcount>
								</audio>
							</media>
						</file>
						<logginginfo>
							<description></description>
							<scene></scene>
							<shottake></shottake>
							<lognote></lognote>
						</logginginfo>
						<labels>
							<label2>Iris</label2>
						</labels>
					</clipitem>
					<clipitem id="clipitem-215">
						<masterclipid>masterclip-144</masterclipid>
						<name>Nordvisjon2MASTER_i-lyd.mxf</name>
						<enabled>TRUE</enabled>
						<duration>2723</duration>
						<rate>
							<timebase>25</timebase>
							<ntsc>FALSE</ntsc>
						</rate>
						<start>85911</start>
						<end>88577</end>
						<in>25</in>
						<out>2691</out>
						<pproTicksIn>254016000000</pproTicksIn>
						<pproTicksOut>27342282240000</pproTicksOut>
						<alphatype>none</alphatype>
						<pixelaspectratio>square</pixelaspectratio>
						<anamorphic>FALSE</anamorphic>
						<file id="file-144">
							<name>Nordvisjon2MASTER_i-lyd_007.mxf</name>
							<pathurl>file://localhost/Volumes/Vaagen/Utveksling/Natur/Naturlig%20helaften%20fra%20Oslo/Transcoded_Nedklipp%20helaften/Nordvisjon2MASTER_i-lyd_007.mxf</pathurl>
							<rate>
								<timebase>25</timebase>
								<ntsc>FALSE</ntsc>
							</rate>
							<duration>2723</duration>
							<timecode>
								<rate>
									<timebase>25</timebase>
									<ntsc>FALSE</ntsc>
								</rate>
								<string>00:26:51:13</string>
								<frame>40288</frame>
								<displayformat>NDF</displayformat>
								<reel>
									<name></name>
								</reel>
							</timecode>
							<media>
								<video>
									<samplecharacteristics>
										<rate>
											<timebase>25</timebase>
											<ntsc>FALSE</ntsc>
										</rate>
										<width>1920</width>
										<height>1080</height>
										<anamorphic>FALSE</anamorphic>
										<pixelaspectratio>square</pixelaspectratio>
										<fielddominance>upper</fielddominance>
									</samplecharacteristics>
								</video>
								<audio>
									<samplecharacteristics>
										<depth>16</depth>
										<samplerate>48000</samplerate>
									</samplecharacteristics>
									<channelcount>2</channelcount>
								</audio>
								<audio>
									<samplecharacteristics>
										<depth>16</depth>
										<samplerate>48000</samplerate>
									</samplecharacteristics>
									<channelcount>2</channelcount>
								</audio>
								<audio>
									<samplecharacteristics>
										<depth>16</depth>
										<samplerate>48000</samplerate>
									</samplecharacteristics>
									<channelcount>2</channelcount>
								</audio>
								<audio>
									<samplecharacteristics>
										<depth>16</depth>
										<samplerate>48000</samplerate>
									</samplecharacteristics>
									<channelcount>2</channelcount>
								</audio>
							</media>
						</file>
						<logginginfo>
							<description></description>
							<scene></scene>
							<shottake></shottake>
							<lognote></lognote>
						</logginginfo>
						<labels>
							<label2>Iris</label2>
						</labels>
					</clipitem>
					<clipitem id="clipitem-216">
						<masterclipid>masterclip-145</masterclipid>
						<name>Nordvisjon2MASTER_i-lyd.mxf</name>
						<enabled>TRUE</enabled>
						<duration>380</duration>
						<rate>
							<timebase>25</timebase>
							<ntsc>FALSE</ntsc>
						</rate>
						<start>88577</start>
						<end>88901</end>
						<in>31</in>
						<out>355</out>
						<pproTicksIn>314979840000</pproTicksIn>
						<pproTicksOut>3607027200000</pproTicksOut>
						<alphatype>none</alphatype>
						<pixelaspectratio>square</pixelaspectratio>
						<anamorphic>FALSE</anamorphic>
						<file id="file-145">
							<name>Nordvisjon2MASTER_i-lyd_009.mxf</name>
							<pathurl>file://localhost/Volumes/Vaagen/Utveksling/Natur/Naturlig%20helaften%20fra%20Oslo/Transcoded_Nedklipp%20helaften/Nordvisjon2MASTER_i-lyd_009.mxf</pathurl>
							<rate>
								<timebase>25</timebase>
								<ntsc>FALSE</ntsc>
							</rate>
							<duration>380</duration>
							<timecode>
								<rate>
									<timebase>25</timebase>
									<ntsc>FALSE</ntsc>
								</rate>
								<string>00:28:52:09</string>
								<frame>43309</frame>
								<displayformat>NDF</displayformat>
								<reel>
									<name></name>
								</reel>
							</timecode>
							<media>
								<video>
									<samplecharacteristics>
										<rate>
											<timebase>25</timebase>
											<ntsc>FALSE</ntsc>
										</rate>
										<width>1920</width>
										<height>1080</height>
										<anamorphic>FALSE</anamorphic>
										<pixelaspectratio>square</pixelaspectratio>
										<fielddominance>upper</fielddominance>
									</samplecharacteristics>
								</video>
								<audio>
									<samplecharacteristics>
										<depth>16</depth>
										<samplerate>48000</samplerate>
									</samplecharacteristics>
									<channelcount>2</channelcount>
								</audio>
								<audio>
									<samplecharacteristics>
										<depth>16</depth>
										<samplerate>48000</samplerate>
									</samplecharacteristics>
									<channelcount>2</channelcount>
								</audio>
								<audio>
									<samplecharacteristics>
										<depth>16</depth>
										<samplerate>48000</samplerate>
									</samplecharacteristics>
									<channelcount>2</channelcount>
								</audio>
								<audio>
									<samplecharacteristics>
										<depth>16</depth>
										<samplerate>48000</samplerate>
									</samplecharacteristics>
									<channelcount>2</channelcount>
								</audio>
							</media>
						</file>
						<logginginfo>
							<description></description>
							<scene></scene>
							<shottake></shottake>
							<lognote></lognote>
						</logginginfo>
						<labels>
							<label2>Iris</label2>
						</labels>
					</clipitem>
					<clipitem id="clipitem-217">
						<masterclipid>masterclip-146</masterclipid>
						<name>Nordvisjon2MASTER_i-lyd.mxf</name>
						<enabled>TRUE</enabled>
						<duration>479</duration>
						<rate>
							<timebase>25</timebase>
							<ntsc>FALSE</ntsc>
						</rate>
						<start>88901</start>
						<end>89330</end>
						<in>25</in>
						<out>454</out>
						<pproTicksIn>254016000000</pproTicksIn>
						<pproTicksOut>4612930560000</pproTicksOut>
						<alphatype>none</alphatype>
						<pixelaspectratio>square</pixelaspectratio>
						<anamorphic>FALSE</anamorphic>
						<file id="file-146">
							<name>Nordvisjon2MASTER_i-lyd.mxf</name>
							<pathurl>file://localhost/Volumes/Vaagen/Utveksling/Natur/Naturlig%20helaften%20fra%20Oslo/Transcoded_Nedklipp%20helaften/Nordvisjon2MASTER_i-lyd.mxf</pathurl>
							<rate>
								<timebase>25</timebase>
								<ntsc>FALSE</ntsc>
							</rate>
							<duration>479</duration>
							<timecode>
								<rate>
									<timebase>25</timebase>
									<ntsc>FALSE</ntsc>
								</rate>
								<string>00:01:20:02</string>
								<frame>2002</frame>
								<displayformat>NDF</displayformat>
								<reel>
									<name></name>
								</reel>
							</timecode>
							<media>
								<video>
									<samplecharacteristics>
										<rate>
											<timebase>25</timebase>
											<ntsc>FALSE</ntsc>
										</rate>
										<width>1920</width>
										<height>1080</height>
										<anamorphic>FALSE</anamorphic>
										<pixelaspectratio>square</pixelaspectratio>
										<fielddominance>upper</fielddominance>
									</samplecharacteristics>
								</video>
							</media>
						</file>
						<logginginfo>
							<description></description>
							<scene></scene>
							<shottake></shottake>
							<lognote></lognote>
						</logginginfo>
						<labels>
							<label2>Iris</label2>
						</labels>
					</clipitem>
					<clipitem id="clipitem-218">
						<masterclipid>masterclip-147</masterclipid>
						<name>Nordvisjon3MASTER i-lyd.mxf</name>
						<enabled>TRUE</enabled>
						<duration>1551</duration>
						<rate>
							<timebase>25</timebase>
							<ntsc>FALSE</ntsc>
						</rate>
						<start>89330</start>
						<end>90813</end>
						<in>43</in>
						<out>1526</out>
						<pproTicksIn>436907520000</pproTicksIn>
						<pproTicksOut>15505136640000</pproTicksOut>
						<alphatype>none</alphatype>
						<pixelaspectratio>square</pixelaspectratio>
						<anamorphic>FALSE</anamorphic>
						<file id="file-147">
							<name>Nordvisjon3MASTER i-lyd.mxf</name>
							<pathurl>file://localhost/Volumes/Vaagen/Utveksling/Natur/Naturlig%20helaften%20fra%20Oslo/Transcoded_Nedklipp%20helaften/Nordvisjon3MASTER%20i-lyd.mxf</pathurl>
							<rate>
								<timebase>25</timebase>
								<ntsc>FALSE</ntsc>
							</rate>
							<duration>1551</duration>
							<timecode>
								<rate>
									<timebase>25</timebase>
									<ntsc>FALSE</ntsc>
								</rate>
								<string>00:02:14:08</string>
								<frame>3358</frame>
								<displayformat>NDF</displayformat>
								<reel>
									<name></name>
								</reel>
							</timecode>
							<media>
								<video>
									<samplecharacteristics>
										<rate>
											<timebase>25</timebase>
											<ntsc>FALSE</ntsc>
										</rate>
										<width>1920</width>
										<height>1080</height>
										<anamorphic>FALSE</anamorphic>
										<pixelaspectratio>square</pixelaspectratio>
										<fielddominance>upper</fielddominance>
									</samplecharacteristics>
								</video>
								<audio>
									<samplecharacteristics>
										<depth>16</depth>
										<samplerate>48000</samplerate>
									</samplecharacteristics>
									<channelcount>2</channelcount>
								</audio>
							</media>
						</file>
						<logginginfo>
							<description></description>
							<scene></scene>
							<shottake></shottake>
							<lognote></lognote>
						</logginginfo>
						<labels>
							<label2>Iris</label2>
						</labels>
					</clipitem>
					<clipitem id="clipitem-219">
						<masterclipid>masterclip-148</masterclipid>
						<name>Nordvisjon3MASTER i-lyd.mxf</name>
						<enabled>TRUE</enabled>
						<duration>1375</duration>
						<rate>
							<timebase>25</timebase>
							<ntsc>FALSE</ntsc>
						</rate>
						<start>90813</start>
						<end>91782</end>
						<in>37</in>
						<out>1006</out>
						<pproTicksIn>375943680000</pproTicksIn>
						<pproTicksOut>10221603840000</pproTicksOut>
						<alphatype>none</alphatype>
						<pixelaspectratio>square</pixelaspectratio>
						<anamorphic>FALSE</anamorphic>
						<file id="file-148">
							<name>Nordvisjon3MASTER i-lyd_006.mxf</name>
							<pathurl>file://localhost/Volumes/Vaagen/Utveksling/Natur/Naturlig%20helaften%20fra%20Oslo/Transcoded_Nedklipp%20helaften/Nordvisjon3MASTER%20i-lyd_006.mxf</pathurl>
							<rate>
								<timebase>25</timebase>
								<ntsc>FALSE</ntsc>
							</rate>
							<duration>1375</duration>
							<timecode>
								<rate>
									<timebase>25</timebase>
									<ntsc>FALSE</ntsc>
								</rate>
								<string>00:13:46:09</string>
								<frame>20659</frame>
								<displayformat>NDF</displayformat>
								<reel>
									<name></name>
								</reel>
							</timecode>
							<media>
								<video>
									<samplecharacteristics>
										<rate>
											<timebase>25</timebase>
											<ntsc>FALSE</ntsc>
										</rate>
										<width>1920</width>
										<height>1080</height>
										<anamorphic>FALSE</anamorphic>
										<pixelaspectratio>square</pixelaspectratio>
										<fielddominance>upper</fielddominance>
									</samplecharacteristics>
								</video>
								<audio>
									<samplecharacteristics>
										<depth>16</depth>
										<samplerate>48000</samplerate>
									</samplecharacteristics>
									<channelcount>2</channelcount>
								</audio>
							</media>
						</file>
						<logginginfo>
							<description></description>
							<scene></scene>
							<shottake></shottake>
							<lognote></lognote>
						</logginginfo>
						<labels>
							<label2>Iris</label2>
						</labels>
					</clipitem>
					<clipitem id="clipitem-220">
						<masterclipid>masterclip-148</masterclipid>
						<name>Nordvisjon3MASTER i-lyd.mxf</name>
						<enabled>TRUE</enabled>
						<duration>1375</duration>
						<rate>
							<timebase>25</timebase>
							<ntsc>FALSE</ntsc>
						</rate>
						<start>91782</start>
						<end>91951</end>
						<in>1181</in>
						<out>1350</out>
						<pproTicksIn>11999715840000</pproTicksIn>
						<pproTicksOut>13716864000000</pproTicksOut>
						<alphatype>none</alphatype>
						<file id="file-148"/>
						<logginginfo>
							<description></description>
							<scene></scene>
							<shottake></shottake>
							<lognote></lognote>
						</logginginfo>
						<labels>
							<label2>Iris</label2>
						</labels>
					</clipitem>
					<clipitem id="clipitem-221">
						<masterclipid>masterclip-148</masterclipid>
						<name>Nordvisjon3MASTER i-lyd.mxf</name>
						<enabled>TRUE</enabled>
						<duration>1375</duration>
						<rate>
							<timebase>25</timebase>
							<ntsc>FALSE</ntsc>
						</rate>
						<start>91951</start>
						<end>92088</end>
						<in>1044</in>
						<out>1181</out>
						<pproTicksIn>10607708160000</pproTicksIn>
						<pproTicksOut>11999715840000</pproTicksOut>
						<alphatype>none</alphatype>
						<file id="file-148"/>
						<logginginfo>
							<description></description>
							<scene></scene>
							<shottake></shottake>
							<lognote></lognote>
						</logginginfo>
						<labels>
							<label2>Iris</label2>
						</labels>
					</clipitem>
					<clipitem id="clipitem-222">
						<masterclipid>masterclip-149</masterclipid>
						<name>Nordvisjon-MASTER-vr3-201016-ny-m-komm.mxf</name>
						<enabled>TRUE</enabled>
						<duration>722</duration>
						<rate>
							<timebase>25</timebase>
							<ntsc>FALSE</ntsc>
						</rate>
						<start>92088</start>
						<end>92760</end>
						<in>25</in>
						<out>697</out>
						<pproTicksIn>254016000000</pproTicksIn>
						<pproTicksOut>7081966080000</pproTicksOut>
						<alphatype>none</alphatype>
						<pixelaspectratio>square</pixelaspectratio>
						<anamorphic>FALSE</anamorphic>
						<file id="file-149">
							<name>Nordvisjon-MASTER-vr3-201016-ny-m-komm_013.mxf</name>
							<pathurl>file://localhost/Volumes/Vaagen/Utveksling/Natur/Naturlig%20helaften%20fra%20Oslo/Transcoded_Nedklipp%20helaften/Nordvisjon-MASTER-vr3-201016-ny-m-komm_013.mxf</pathurl>
							<rate>
								<timebase>25</timebase>
								<ntsc>FALSE</ntsc>
							</rate>
							<duration>722</duration>
							<timecode>
								<rate>
									<timebase>25</timebase>
									<ntsc>FALSE</ntsc>
								</rate>
								<string>00:25:16:08</string>
								<frame>37908</frame>
								<displayformat>NDF</displayformat>
								<reel>
									<name></name>
								</reel>
							</timecode>
							<media>
								<video>
									<samplecharacteristics>
										<rate>
											<timebase>25</timebase>
											<ntsc>FALSE</ntsc>
										</rate>
										<width>1920</width>
										<height>1080</height>
										<anamorphic>FALSE</anamorphic>
										<pixelaspectratio>square</pixelaspectratio>
										<fielddominance>upper</fielddominance>
									</samplecharacteristics>
								</video>
							</media>
						</file>
						<logginginfo>
							<description></description>
							<scene></scene>
							<shottake></shottake>
							<lognote></lognote>
						</logginginfo>
						<labels>
							<label2>Iris</label2>
						</labels>
					</clipitem>
					<clipitem id="clipitem-223">
						<masterclipid>masterclip-150</masterclipid>
						<name>Nordvisjon-MASTER-vr3-201016-ny-m-komm.mxf</name>
						<enabled>TRUE</enabled>
						<duration>399</duration>
						<rate>
							<timebase>25</timebase>
							<ntsc>FALSE</ntsc>
						</rate>
						<start>92760</start>
						<end>93109</end>
						<in>25</in>
						<out>374</out>
						<pproTicksIn>254016000000</pproTicksIn>
						<pproTicksOut>3800079360000</pproTicksOut>
						<alphatype>none</alphatype>
						<pixelaspectratio>square</pixelaspectratio>
						<anamorphic>FALSE</anamorphic>
						<file id="file-150">
							<name>Nordvisjon-MASTER-vr3-201016-ny-m-komm_011.mxf</name>
							<pathurl>file://localhost/Volumes/Vaagen/Utveksling/Natur/Naturlig%20helaften%20fra%20Oslo/Transcoded_Nedklipp%20helaften/Nordvisjon-MASTER-vr3-201016-ny-m-komm_011.mxf</pathurl>
							<rate>
								<timebase>25</timebase>
								<ntsc>FALSE</ntsc>
							</rate>
							<duration>399</duration>
							<timecode>
								<rate>
									<timebase>25</timebase>
									<ntsc>FALSE</ntsc>
								</rate>
								<string>00:26:24:04</string>
								<frame>39604</frame>
								<displayformat>NDF</displayformat>
								<reel>
									<name></name>
								</reel>
							</timecode>
							<media>
								<video>
									<samplecharacteristics>
										<rate>
											<timebase>25</timebase>
											<ntsc>FALSE</ntsc>
										</rate>
										<width>1920</width>
										<height>1080</height>
										<anamorphic>FALSE</anamorphic>
										<pixelaspectratio>square</pixelaspectratio>
										<fielddominance>upper</fielddominance>
									</samplecharacteristics>
								</video>
							</media>
						</file>
						<logginginfo>
							<description></description>
							<scene></scene>
							<shottake></shottake>
							<lognote></lognote>
						</logginginfo>
						<labels>
							<label2>Iris</label2>
						</labels>
					</clipitem>
					<clipitem id="clipitem-224">
						<masterclipid>masterclip-151</masterclipid>
						<name>Nordvisjon-MASTER-vr3-201016-ny-m-komm.mxf</name>
						<enabled>TRUE</enabled>
						<duration>115</duration>
						<rate>
							<timebase>25</timebase>
							<ntsc>FALSE</ntsc>
						</rate>
						<start>93109</start>
						<end>93174</end>
						<in>25</in>
						<out>90</out>
						<pproTicksIn>254016000000</pproTicksIn>
						<pproTicksOut>914457600000</pproTicksOut>
						<alphatype>none</alphatype>
						<pixelaspectratio>square</pixelaspectratio>
						<anamorphic>FALSE</anamorphic>
						<file id="file-151">
							<name>Nordvisjon-MASTER-vr3-201016-ny-m-komm_009.mxf</name>
							<pathurl>file://localhost/Volumes/Vaagen/Utveksling/Natur/Naturlig%20helaften%20fra%20Oslo/Transcoded_Nedklipp%20helaften/Nordvisjon-MASTER-vr3-201016-ny-m-komm_009.mxf</pathurl>
							<rate>
								<timebase>25</timebase>
								<ntsc>FALSE</ntsc>
							</rate>
							<duration>115</duration>
							<timecode>
								<rate>
									<timebase>25</timebase>
									<ntsc>FALSE</ntsc>
								</rate>
								<string>00:26:54:24</string>
								<frame>40374</frame>
								<displayformat>NDF</displayformat>
								<reel>
									<name></name>
								</reel>
							</timecode>
							<media>
								<video>
									<samplecharacteristics>
										<rate>
											<timebase>25</timebase>
											<ntsc>FALSE</ntsc>
										</rate>
										<width>1920</width>
										<height>1080</height>
										<anamorphic>FALSE</anamorphic>
										<pixelaspectratio>square</pixelaspectratio>
										<fielddominance>upper</fielddominance>
									</samplecharacteristics>
								</video>
							</media>
						</file>
						<logginginfo>
							<description></description>
							<scene></scene>
							<shottake></shottake>
							<lognote></lognote>
						</logginginfo>
						<labels>
							<label2>Iris</label2>
						</labels>
					</clipitem>
					<clipitem id="clipitem-225">
						<masterclipid>masterclip-152</masterclipid>
						<name>Nordvisjon-MASTER-vr3-201016-ny-m-komm.mxf</name>
						<enabled>TRUE</enabled>
						<duration>129</duration>
						<rate>
							<timebase>25</timebase>
							<ntsc>FALSE</ntsc>
						</rate>
						<start>93174</start>
						<end>93253</end>
						<in>25</in>
						<out>104</out>
						<pproTicksIn>254016000000</pproTicksIn>
						<pproTicksOut>1056706560000</pproTicksOut>
						<alphatype>none</alphatype>
						<pixelaspectratio>square</pixelaspectratio>
						<anamorphic>FALSE</anamorphic>
						<file id="file-152">
							<name>Nordvisjon-MASTER-vr3-201016-ny-m-komm_008.mxf</name>
							<pathurl>file://localhost/Volumes/Vaagen/Utveksling/Natur/Naturlig%20helaften%20fra%20Oslo/Transcoded_Nedklipp%20helaften/Nordvisjon-MASTER-vr3-201016-ny-m-komm_008.mxf</pathurl>
							<rate>
								<timebase>25</timebase>
								<ntsc>FALSE</ntsc>
							</rate>
							<duration>129</duration>
							<timecode>
								<rate>
									<timebase>25</timebase>
									<ntsc>FALSE</ntsc>
								</rate>
								<string>00:26:41:07</string>
								<frame>40032</frame>
								<displayformat>NDF</displayformat>
								<reel>
									<name></name>
								</reel>
							</timecode>
							<media>
								<video>
									<samplecharacteristics>
										<rate>
											<timebase>25</timebase>
											<ntsc>FALSE</ntsc>
										</rate>
										<width>1920</width>
										<height>1080</height>
										<anamorphic>FALSE</anamorphic>
										<pixelaspectratio>square</pixelaspectratio>
										<fielddominance>upper</fielddominance>
									</samplecharacteristics>
								</video>
							</media>
						</file>
						<logginginfo>
							<description></description>
							<scene></scene>
							<shottake></shottake>
							<lognote></lognote>
						</logginginfo>
						<labels>
							<label2>Iris</label2>
						</labels>
					</clipitem>
					<clipitem id="clipitem-226">
						<masterclipid>masterclip-153</masterclipid>
						<name>Nordvisjon-MASTER-vr3-201016-ny-m-komm.mxf</name>
						<enabled>TRUE</enabled>
						<duration>1320</duration>
						<rate>
							<timebase>25</timebase>
							<ntsc>FALSE</ntsc>
						</rate>
						<start>93253</start>
						<end>94523</end>
						<in>25</in>
						<out>1295</out>
						<pproTicksIn>254016000000</pproTicksIn>
						<pproTicksOut>13158028800000</pproTicksOut>
						<alphatype>none</alphatype>
						<pixelaspectratio>square</pixelaspectratio>
						<anamorphic>FALSE</anamorphic>
						<file id="file-153">
							<name>Nordvisjon-MASTER-vr3-201016-ny-m-komm_014.mxf</name>
							<pathurl>file://localhost/Volumes/Vaagen/Utveksling/Natur/Naturlig%20helaften%20fra%20Oslo/Transcoded_Nedklipp%20helaften/Nordvisjon-MASTER-vr3-201016-ny-m-komm_014.mxf</pathurl>
							<rate>
								<timebase>25</timebase>
								<ntsc>FALSE</ntsc>
							</rate>
							<duration>1320</duration>
							<timecode>
								<rate>
									<timebase>25</timebase>
									<ntsc>FALSE</ntsc>
								</rate>
								<string>00:27:12:24</string>
								<frame>40824</frame>
								<displayformat>NDF</displayformat>
								<reel>
									<name></name>
								</reel>
							</timecode>
							<media>
								<video>
									<samplecharacteristics>
										<rate>
											<timebase>25</timebase>
											<ntsc>FALSE</ntsc>
										</rate>
										<width>1920</width>
										<height>1080</height>
										<anamorphic>FALSE</anamorphic>
										<pixelaspectratio>square</pixelaspectratio>
										<fielddominance>upper</fielddominance>
									</samplecharacteristics>
								</video>
							</media>
						</file>
						<logginginfo>
							<description></description>
							<scene></scene>
							<shottake></shottake>
							<lognote></lognote>
						</logginginfo>
						<labels>
							<label2>Iris</label2>
						</labels>
					</clipitem>
					<clipitem id="clipitem-227">
						<masterclipid>masterclip-154</masterclipid>
						<name>Nordvisjon3MASTER i-lyd.mxf</name>
						<enabled>TRUE</enabled>
						<duration>789</duration>
						<rate>
							<timebase>25</timebase>
							<ntsc>FALSE</ntsc>
						</rate>
						<start>94523</start>
						<end>95251</end>
						<in>36</in>
						<out>764</out>
						<pproTicksIn>365783040000</pproTicksIn>
						<pproTicksOut>7762728960000</pproTicksOut>
						<alphatype>none</alphatype>
						<pixelaspectratio>square</pixelaspectratio>
						<anamorphic>FALSE</anamorphic>
						<file id="file-154">
							<name>Nordvisjon3MASTER i-lyd_007.mxf</name>
							<pathurl>file://localhost/Volumes/Vaagen/Utveksling/Natur/Naturlig%20helaften%20fra%20Oslo/Transcoded_Nedklipp%20helaften/Nordvisjon3MASTER%20i-lyd_007.mxf</pathurl>
							<rate>
								<timebase>25</timebase>
								<ntsc>FALSE</ntsc>
							</rate>
							<duration>789</duration>
							<timecode>
								<rate>
									<timebase>25</timebase>
									<ntsc>FALSE</ntsc>
								</rate>
								<string>00:14:43:13</string>
								<frame>22088</frame>
								<displayformat>NDF</displayformat>
								<reel>
									<name></name>
								</reel>
							</timecode>
							<media>
								<video>
									<samplecharacteristics>
										<rate>
											<timebase>25</timebase>
											<ntsc>FALSE</ntsc>
										</rate>
										<width>1920</width>
										<height>1080</height>
										<anamorphic>FALSE</anamorphic>
										<pixelaspectratio>square</pixelaspectratio>
										<fielddominance>upper</fielddominance>
									</samplecharacteristics>
								</video>
								<audio>
									<samplecharacteristics>
										<depth>16</depth>
										<samplerate>48000</samplerate>
									</samplecharacteristics>
									<channelcount>2</channelcount>
								</audio>
							</media>
						</file>
						<logginginfo>
							<description></description>
							<scene></scene>
							<shottake></shottake>
							<lognote></lognote>
						</logginginfo>
						<labels>
							<label2>Iris</label2>
						</labels>
					</clipitem>
					<clipitem id="clipitem-228">
						<masterclipid>masterclip-155</masterclipid>
						<name>Nordvisjon3MASTER i-lyd.mxf</name>
						<enabled>TRUE</enabled>
						<duration>778</duration>
						<rate>
							<timebase>25</timebase>
							<ntsc>FALSE</ntsc>
						</rate>
						<start>95251</start>
						<end>95962</end>
						<in>42</in>
						<out>753</out>
						<pproTicksIn>426746880000</pproTicksIn>
						<pproTicksOut>7650961920000</pproTicksOut>
						<alphatype>none</alphatype>
						<pixelaspectratio>square</pixelaspectratio>
						<anamorphic>FALSE</anamorphic>
						<file id="file-155">
							<name>Nordvisjon3MASTER i-lyd_001.mxf</name>
							<pathurl>file://localhost/Volumes/Vaagen/Utveksling/Natur/Naturlig%20helaften%20fra%20Oslo/Transcoded_Nedklipp%20helaften/Nordvisjon3MASTER%20i-lyd_001.mxf</pathurl>
							<rate>
								<timebase>25</timebase>
								<ntsc>FALSE</ntsc>
							</rate>
							<duration>778</duration>
							<timecode>
								<rate>
									<timebase>25</timebase>
									<ntsc>FALSE</ntsc>
								</rate>
								<string>00:04:48:01</string>
								<frame>7201</frame>
								<displayformat>NDF</displayformat>
								<reel>
									<name></name>
								</reel>
							</timecode>
							<media>
								<video>
									<samplecharacteristics>
										<rate>
											<timebase>25</timebase>
											<ntsc>FALSE</ntsc>
										</rate>
										<width>1920</width>
										<height>1080</height>
										<anamorphic>FALSE</anamorphic>
										<pixelaspectratio>square</pixelaspectratio>
										<fielddominance>upper</fielddominance>
									</samplecharacteristics>
								</video>
								<audio>
									<samplecharacteristics>
										<depth>16</depth>
										<samplerate>48000</samplerate>
									</samplecharacteristics>
									<channelcount>2</channelcount>
								</audio>
							</media>
						</file>
						<logginginfo>
							<description></description>
							<scene></scene>
							<shottake></shottake>
							<lognote></lognote>
						</logginginfo>
						<labels>
							<label2>Iris</label2>
						</labels>
					</clipitem>
					<clipitem id="clipitem-229">
						<masterclipid>masterclip-156</masterclipid>
						<name>Nordvisjon-MASTER-vr3-201016-ny-m-komm.mxf</name>
						<enabled>TRUE</enabled>
						<duration>794</duration>
						<rate>
							<timebase>25</timebase>
							<ntsc>FALSE</ntsc>
						</rate>
						<start>95962</start>
						<end>96706</end>
						<in>25</in>
						<out>769</out>
						<pproTicksIn>254016000000</pproTicksIn>
						<pproTicksOut>7813532160000</pproTicksOut>
						<alphatype>none</alphatype>
						<pixelaspectratio>square</pixelaspectratio>
						<anamorphic>FALSE</anamorphic>
						<file id="file-156">
							<name>Nordvisjon-MASTER-vr3-201016-ny-m-komm_012.mxf</name>
							<pathurl>file://localhost/Volumes/Vaagen/Utveksling/Natur/Naturlig%20helaften%20fra%20Oslo/Transcoded_Nedklipp%20helaften/Nordvisjon-MASTER-vr3-201016-ny-m-komm_012.mxf</pathurl>
							<rate>
								<timebase>25</timebase>
								<ntsc>FALSE</ntsc>
							</rate>
							<duration>794</duration>
							<timecode>
								<rate>
									<timebase>25</timebase>
									<ntsc>FALSE</ntsc>
								</rate>
								<string>00:15:53:11</string>
								<frame>23836</frame>
								<displayformat>NDF</displayformat>
								<reel>
									<name></name>
								</reel>
							</timecode>
							<media>
								<video>
									<samplecharacteristics>
										<rate>
											<timebase>25</timebase>
											<ntsc>FALSE</ntsc>
										</rate>
										<width>1920</width>
										<height>1080</height>
										<anamorphic>FALSE</anamorphic>
										<pixelaspectratio>square</pixelaspectratio>
										<fielddominance>upper</fielddominance>
									</samplecharacteristics>
								</video>
							</media>
						</file>
						<logginginfo>
							<description></description>
							<scene></scene>
							<shottake></shottake>
							<lognote></lognote>
						</logginginfo>
						<labels>
							<label2>Iris</label2>
						</labels>
					</clipitem>
					<clipitem id="clipitem-230">
						<masterclipid>masterclip-157</masterclipid>
						<name>Nordvisjon3MASTER i-lyd.mxf</name>
						<enabled>TRUE</enabled>
						<duration>491</duration>
						<rate>
							<timebase>25</timebase>
							<ntsc>FALSE</ntsc>
						</rate>
						<start>96706</start>
						<end>97130</end>
						<in>42</in>
						<out>466</out>
						<pproTicksIn>426746880000</pproTicksIn>
						<pproTicksOut>4734858240000</pproTicksOut>
						<alphatype>none</alphatype>
						<pixelaspectratio>square</pixelaspectratio>
						<anamorphic>FALSE</anamorphic>
						<file id="file-157">
							<name>Nordvisjon3MASTER i-lyd_002.mxf</name>
							<pathurl>file://localhost/Volumes/Vaagen/Utveksling/Natur/Naturlig%20helaften%20fra%20Oslo/Transcoded_Nedklipp%20helaften/Nordvisjon3MASTER%20i-lyd_002.mxf</pathurl>
							<rate>
								<timebase>25</timebase>
								<ntsc>FALSE</ntsc>
							</rate>
							<duration>491</duration>
							<timecode>
								<rate>
									<timebase>25</timebase>
									<ntsc>FALSE</ntsc>
								</rate>
								<string>00:05:39:21</string>
								<frame>8496</frame>
								<displayformat>NDF</displayformat>
								<reel>
									<name></name>
								</reel>
							</timecode>
							<media>
								<video>
									<samplecharacteristics>
										<rate>
											<timebase>25</timebase>
											<ntsc>FALSE</ntsc>
										</rate>
										<width>1920</width>
										<height>1080</height>
										<anamorphic>FALSE</anamorphic>
										<pixelaspectratio>square</pixelaspectratio>
										<fielddominance>upper</fielddominance>
									</samplecharacteristics>
								</video>
								<audio>
									<samplecharacteristics>
										<depth>16</depth>
										<samplerate>48000</samplerate>
									</samplecharacteristics>
									<channelcount>2</channelcount>
								</audio>
							</media>
						</file>
						<logginginfo>
							<description></description>
							<scene></scene>
							<shottake></shottake>
							<lognote></lognote>
						</logginginfo>
						<labels>
							<label2>Iris</label2>
						</labels>
					</clipitem>
					<clipitem id="clipitem-231">
						<masterclipid>masterclip-158</masterclipid>
						<name>Nordvisjon3MASTER i-lyd.mxf</name>
						<enabled>TRUE</enabled>
						<duration>458</duration>
						<rate>
							<timebase>25</timebase>
							<ntsc>FALSE</ntsc>
						</rate>
						<start>97130</start>
						<end>97521</end>
						<in>42</in>
						<out>433</out>
						<pproTicksIn>426746880000</pproTicksIn>
						<pproTicksOut>4399557120000</pproTicksOut>
						<alphatype>none</alphatype>
						<pixelaspectratio>square</pixelaspectratio>
						<anamorphic>FALSE</anamorphic>
						<file id="file-158">
							<name>Nordvisjon3MASTER i-lyd_003.mxf</name>
							<pathurl>file://localhost/Volumes/Vaagen/Utveksling/Natur/Naturlig%20helaften%20fra%20Oslo/Transcoded_Nedklipp%20helaften/Nordvisjon3MASTER%20i-lyd_003.mxf</pathurl>
							<rate>
								<timebase>25</timebase>
								<ntsc>FALSE</ntsc>
							</rate>
							<duration>458</duration>
							<timecode>
								<rate>
									<timebase>25</timebase>
									<ntsc>FALSE</ntsc>
								</rate>
								<string>00:06:37:17</string>
								<frame>9942</frame>
								<displayformat>NDF</displayformat>
								<reel>
									<name></name>
								</reel>
							</timecode>
							<media>
								<video>
									<samplecharacteristics>
										<rate>
											<timebase>25</timebase>
											<ntsc>FALSE</ntsc>
										</rate>
										<width>1920</width>
										<height>1080</height>
										<anamorphic>FALSE</anamorphic>
										<pixelaspectratio>square</pixelaspectratio>
										<fielddominance>upper</fielddominance>
									</samplecharacteristics>
								</video>
								<audio>
									<samplecharacteristics>
										<depth>16</depth>
										<samplerate>48000</samplerate>
									</samplecharacteristics>
									<channelcount>2</channelcount>
								</audio>
							</media>
						</file>
						<logginginfo>
							<description></description>
							<scene></scene>
							<shottake></shottake>
							<lognote></lognote>
						</logginginfo>
						<labels>
							<label2>Iris</label2>
						</labels>
					</clipitem>
					<clipitem id="clipitem-232">
						<masterclipid>masterclip-159</masterclipid>
						<name>Nordvisjon3MASTER i-lyd.mxf</name>
						<enabled>TRUE</enabled>
						<duration>348</duration>
						<rate>
							<timebase>25</timebase>
							<ntsc>FALSE</ntsc>
						</rate>
						<start>97521</start>
						<end>97802</end>
						<in>42</in>
						<out>323</out>
						<pproTicksIn>426746880000</pproTicksIn>
						<pproTicksOut>3281886720000</pproTicksOut>
						<alphatype>none</alphatype>
						<pixelaspectratio>square</pixelaspectratio>
						<anamorphic>FALSE</anamorphic>
						<file id="file-159">
							<name>Nordvisjon3MASTER i-lyd_004.mxf</name>
							<pathurl>file://localhost/Volumes/Vaagen/Utveksling/Natur/Naturlig%20helaften%20fra%20Oslo/Transcoded_Nedklipp%20helaften/Nordvisjon3MASTER%20i-lyd_004.mxf</pathurl>
							<rate>
								<timebase>25</timebase>
								<ntsc>FALSE</ntsc>
							</rate>
							<duration>348</duration>
							<timecode>
								<rate>
									<timebase>25</timebase>
									<ntsc>FALSE</ntsc>
								</rate>
								<string>00:07:14:19</string>
								<frame>10869</frame>
								<displayformat>NDF</displayformat>
								<reel>
									<name></name>
								</reel>
							</timecode>
							<media>
								<video>
									<samplecharacteristics>
										<rate>
											<timebase>25</timebase>
											<ntsc>FALSE</ntsc>
										</rate>
										<width>1920</width>
										<height>1080</height>
										<anamorphic>FALSE</anamorphic>
										<pixelaspectratio>square</pixelaspectratio>
										<fielddominance>upper</fielddominance>
									</samplecharacteristics>
								</video>
								<audio>
									<samplecharacteristics>
										<depth>16</depth>
										<samplerate>48000</samplerate>
									</samplecharacteristics>
									<channelcount>2</channelcount>
								</audio>
							</media>
						</file>
						<logginginfo>
							<description></description>
							<scene></scene>
							<shottake></shottake>
							<lognote></lognote>
						</logginginfo>
						<labels>
							<label2>Iris</label2>
						</labels>
					</clipitem>
					<clipitem id="clipitem-233">
						<masterclipid>masterclip-160</masterclipid>
						<name>Nordvisjon3MASTER i-lyd.mxf</name>
						<enabled>TRUE</enabled>
						<duration>480</duration>
						<rate>
							<timebase>25</timebase>
							<ntsc>FALSE</ntsc>
						</rate>
						<start>97802</start>
						<end>98215</end>
						<in>42</in>
						<out>455</out>
						<pproTicksIn>426746880000</pproTicksIn>
						<pproTicksOut>4623091200000</pproTicksOut>
						<alphatype>none</alphatype>
						<pixelaspectratio>square</pixelaspectratio>
						<anamorphic>FALSE</anamorphic>
						<file id="file-160">
							<name>Nordvisjon3MASTER i-lyd_005.mxf</name>
							<pathurl>file://localhost/Volumes/Vaagen/Utveksling/Natur/Naturlig%20helaften%20fra%20Oslo/Transcoded_Nedklipp%20helaften/Nordvisjon3MASTER%20i-lyd_005.mxf</pathurl>
							<rate>
								<timebase>25</timebase>
								<ntsc>FALSE</ntsc>
							</rate>
							<duration>480</duration>
							<timecode>
								<rate>
									<timebase>25</timebase>
									<ntsc>FALSE</ntsc>
								</rate>
								<string>00:09:06:06</string>
								<frame>13656</frame>
								<displayformat>NDF</displayformat>
								<reel>
									<name></name>
								</reel>
							</timecode>
							<media>
								<video>
									<samplecharacteristics>
										<rate>
											<timebase>25</timebase>
											<ntsc>FALSE</ntsc>
										</rate>
										<width>1920</width>
										<height>1080</height>
										<anamorphic>FALSE</anamorphic>
										<pixelaspectratio>square</pixelaspectratio>
										<fielddominance>upper</fielddominance>
									</samplecharacteristics>
								</video>
								<audio>
									<samplecharacteristics>
										<depth>16</depth>
										<samplerate>48000</samplerate>
									</samplecharacteristics>
									<channelcount>2</channelcount>
								</audio>
							</media>
						</file>
						<logginginfo>
							<description></description>
							<scene></scene>
							<shottake></shottake>
							<lognote></lognote>
						</logginginfo>
						<labels>
							<label2>Iris</label2>
						</labels>
					</clipitem>
					<clipitem id="clipitem-234">
						<masterclipid>masterclip-161</masterclipid>
						<name>Nordvisjon3MASTER i-lyd.mxf</name>
						<enabled>TRUE</enabled>
						<duration>449</duration>
						<rate>
							<timebase>25</timebase>
							<ntsc>FALSE</ntsc>
						</rate>
						<start>98215</start>
						<end>98597</end>
						<in>42</in>
						<out>424</out>
						<pproTicksIn>426746880000</pproTicksIn>
						<pproTicksOut>4308111360000</pproTicksOut>
						<alphatype>none</alphatype>
						<pixelaspectratio>square</pixelaspectratio>
						<anamorphic>FALSE</anamorphic>
						<file id="file-161">
							<name>Nordvisjon3MASTER i-lyd_008.mxf</name>
							<pathurl>file://localhost/Volumes/Vaagen/Utveksling/Natur/Naturlig%20helaften%20fra%20Oslo/Transcoded_Nedklipp%20helaften/Nordvisjon3MASTER%20i-lyd_008.mxf</pathurl>
							<rate>
								<timebase>25</timebase>
								<ntsc>FALSE</ntsc>
							</rate>
							<duration>449</duration>
							<timecode>
								<rate>
									<timebase>25</timebase>
									<ntsc>FALSE</ntsc>
								</rate>
								<string>00:25:47:01</string>
								<frame>38676</frame>
								<displayformat>NDF</displayformat>
								<reel>
									<name></name>
								</reel>
							</timecode>
							<media>
								<video>
									<samplecharacteristics>
										<rate>
											<timebase>25</timebase>
											<ntsc>FALSE</ntsc>
										</rate>
										<width>1920</width>
										<height>1080</height>
										<anamorphic>FALSE</anamorphic>
										<pixelaspectratio>square</pixelaspectratio>
										<fielddominance>upper</fielddominance>
									</samplecharacteristics>
								</video>
								<audio>
									<samplecharacteristics>
										<depth>16</depth>
										<samplerate>48000</samplerate>
									</samplecharacteristics>
									<channelcount>2</channelcount>
								</audio>
							</media>
						</file>
						<logginginfo>
							<description></description>
							<scene></scene>
							<shottake></shottake>
							<lognote></lognote>
						</logginginfo>
						<labels>
							<label2>Iris</label2>
						</labels>
					</clipitem>
					<clipitem id="clipitem-235">
						<masterclipid>masterclip-162</masterclipid>
						<name>Nordvisjon3MASTER i-lyd.mxf</name>
						<enabled>TRUE</enabled>
						<duration>244</duration>
						<rate>
							<timebase>25</timebase>
							<ntsc>FALSE</ntsc>
						</rate>
						<start>98597</start>
						<end>98774</end>
						<in>42</in>
						<out>219</out>
						<pproTicksIn>426746880000</pproTicksIn>
						<pproTicksOut>2225180160000</pproTicksOut>
						<alphatype>none</alphatype>
						<pixelaspectratio>square</pixelaspectratio>
						<anamorphic>FALSE</anamorphic>
						<file id="file-162">
							<name>Nordvisjon3MASTER i-lyd_009.mxf</name>
							<pathurl>file://localhost/Volumes/Vaagen/Utveksling/Natur/Naturlig%20helaften%20fra%20Oslo/Transcoded_Nedklipp%20helaften/Nordvisjon3MASTER%20i-lyd_009.mxf</pathurl>
							<rate>
								<timebase>25</timebase>
								<ntsc>FALSE</ntsc>
							</rate>
							<duration>244</duration>
							<timecode>
								<rate>
									<timebase>25</timebase>
									<ntsc>FALSE</ntsc>
								</rate>
								<string>00:26:55:01</string>
								<frame>40376</frame>
								<displayformat>NDF</displayformat>
								<reel>
									<name></name>
								</reel>
							</timecode>
							<media>
								<video>
									<samplecharacteristics>
										<rate>
											<timebase>25</timebase>
											<ntsc>FALSE</ntsc>
										</rate>
										<width>1920</width>
										<height>1080</height>
										<anamorphic>FALSE</anamorphic>
										<pixelaspectratio>square</pixelaspectratio>
										<fielddominance>upper</fielddominance>
									</samplecharacteristics>
								</video>
								<audio>
									<samplecharacteristics>
										<depth>16</depth>
										<samplerate>48000</samplerate>
									</samplecharacteristics>
									<channelcount>2</channelcount>
								</audio>
							</media>
						</file>
						<logginginfo>
							<description></description>
							<scene></scene>
							<shottake></shottake>
							<lognote></lognote>
						</logginginfo>
						<labels>
							<label2>Iris</label2>
						</labels>
					</clipitem>
					<clipitem id="clipitem-236">
						<masterclipid>masterclip-13</masterclipid>
						<name>Nordvisjon3MASTER i-lyd.mxf</name>
						<enabled>TRUE</enabled>
						<duration>712</duration>
						<rate>
							<timebase>25</timebase>
							<ntsc>FALSE</ntsc>
						</rate>
						<start>98774</start>
						<end>99425</end>
						<in>36</in>
						<out>687</out>
						<pproTicksIn>365783040000</pproTicksIn>
						<pproTicksOut>6980359680000</pproTicksOut>
						<alphatype>none</alphatype>
						<file id="file-13"/>
						<logginginfo>
							<description></description>
							<scene></scene>
							<shottake></shottake>
							<lognote></lognote>
						</logginginfo>
						<labels>
							<label2>Iris</label2>
						</labels>
					</clipitem>
					<clipitem id="clipitem-237">
						<masterclipid>masterclip-163</masterclipid>
						<name>Nordvisjon3MASTER i-lyd.mxf</name>
						<enabled>TRUE</enabled>
						<duration>154</duration>
						<rate>
							<timebase>25</timebase>
							<ntsc>FALSE</ntsc>
						</rate>
						<start>99425</start>
						<end>99518</end>
						<in>36</in>
						<out>129</out>
						<pproTicksIn>365783040000</pproTicksIn>
						<pproTicksOut>1310722560000</pproTicksOut>
						<alphatype>none</alphatype>
						<pixelaspectratio>square</pixelaspectratio>
						<anamorphic>FALSE</anamorphic>
						<file id="file-163">
							<name>Nordvisjon3MASTER i-lyd_011.mxf</name>
							<pathurl>file://localhost/Volumes/Vaagen/Utveksling/Natur/Naturlig%20helaften%20fra%20Oslo/Transcoded_Nedklipp%20helaften/Nordvisjon3MASTER%20i-lyd_011.mxf</pathurl>
							<rate>
								<timebase>25</timebase>
								<ntsc>FALSE</ntsc>
							</rate>
							<duration>154</duration>
							<timecode>
								<rate>
									<timebase>25</timebase>
									<ntsc>FALSE</ntsc>
								</rate>
								<string>00:27:44:09</string>
								<frame>41609</frame>
								<displayformat>NDF</displayformat>
								<reel>
									<name></name>
								</reel>
							</timecode>
							<media>
								<video>
									<samplecharacteristics>
										<rate>
											<timebase>25</timebase>
											<ntsc>FALSE</ntsc>
										</rate>
										<width>1920</width>
										<height>1080</height>
										<anamorphic>FALSE</anamorphic>
										<pixelaspectratio>square</pixelaspectratio>
										<fielddominance>upper</fielddominance>
									</samplecharacteristics>
								</video>
								<audio>
									<samplecharacteristics>
										<depth>16</depth>
										<samplerate>48000</samplerate>
									</samplecharacteristics>
									<channelcount>2</channelcount>
								</audio>
							</media>
						</file>
						<logginginfo>
							<description></description>
							<scene></scene>
							<shottake></shottake>
							<lognote></lognote>
						</logginginfo>
						<labels>
							<label2>Iris</label2>
						</labels>
					</clipitem>
					<clipitem id="clipitem-238">
						<masterclipid>masterclip-164</masterclipid>
						<name>Nordvisjon3MASTER i-lyd.mxf</name>
						<enabled>TRUE</enabled>
						<duration>175</duration>
						<rate>
							<timebase>25</timebase>
							<ntsc>FALSE</ntsc>
						</rate>
						<start>99518</start>
						<end>99632</end>
						<in>36</in>
						<out>150</out>
						<pproTicksIn>365783040000</pproTicksIn>
						<pproTicksOut>1524096000000</pproTicksOut>
						<alphatype>none</alphatype>
						<pixelaspectratio>square</pixelaspectratio>
						<anamorphic>FALSE</anamorphic>
						<file id="file-164">
							<name>Nordvisjon3MASTER i-lyd_012.mxf</name>
							<pathurl>file://localhost/Volumes/Vaagen/Utveksling/Natur/Naturlig%20helaften%20fra%20Oslo/Transcoded_Nedklipp%20helaften/Nordvisjon3MASTER%20i-lyd_012.mxf</pathurl>
							<rate>
								<timebase>25</timebase>
								<ntsc>FALSE</ntsc>
							</rate>
							<duration>175</duration>
							<timecode>
								<rate>
									<timebase>25</timebase>
									<ntsc>FALSE</ntsc>
								</rate>
								<string>00:27:57:23</string>
								<frame>41948</frame>
								<displayformat>NDF</displayformat>
								<reel>
									<name></name>
								</reel>
							</timecode>
							<media>
								<video>
									<samplecharacteristics>
										<rate>
											<timebase>25</timebase>
											<ntsc>FALSE</ntsc>
										</rate>
										<width>1920</width>
										<height>1080</height>
										<anamorphic>FALSE</anamorphic>
										<pixelaspectratio>square</pixelaspectratio>
										<fielddominance>upper</fielddominance>
									</samplecharacteristics>
								</video>
								<audio>
									<samplecharacteristics>
										<depth>16</depth>
										<samplerate>48000</samplerate>
									</samplecharacteristics>
									<channelcount>2</channelcount>
								</audio>
							</media>
						</file>
						<logginginfo>
							<description></description>
							<scene></scene>
							<shottake></shottake>
							<lognote></lognote>
						</logginginfo>
						<labels>
							<label2>Iris</label2>
						</labels>
					</clipitem>
					<clipitem id="clipitem-239">
						<masterclipid>masterclip-165</masterclipid>
						<name>Nordvisjon3MASTER i-lyd.mxf</name>
						<enabled>TRUE</enabled>
						<duration>890</duration>
						<rate>
							<timebase>25</timebase>
							<ntsc>FALSE</ntsc>
						</rate>
						<start>99632</start>
						<end>99744</end>
						<in>36</in>
						<out>148</out>
						<pproTicksIn>365783040000</pproTicksIn>
						<pproTicksOut>1503774720000</pproTicksOut>
						<alphatype>none</alphatype>
						<pixelaspectratio>square</pixelaspectratio>
						<anamorphic>FALSE</anamorphic>
						<file id="file-165">
							<name>Nordvisjon3MASTER i-lyd_013.mxf</name>
							<pathurl>file://localhost/Volumes/Vaagen/Utveksling/Natur/Naturlig%20helaften%20fra%20Oslo/Transcoded_Nedklipp%20helaften/Nordvisjon3MASTER%20i-lyd_013.mxf</pathurl>
							<rate>
								<timebase>25</timebase>
								<ntsc>FALSE</ntsc>
							</rate>
							<duration>890</duration>
							<timecode>
								<rate>
									<timebase>25</timebase>
									<ntsc>FALSE</ntsc>
								</rate>
								<string>00:28:12:06</string>
								<frame>42306</frame>
								<displayformat>NDF</displayformat>
								<reel>
									<name></name>
								</reel>
							</timecode>
							<media>
								<video>
									<samplecharacteristics>
										<rate>
											<timebase>25</timebase>
											<ntsc>FALSE</ntsc>
										</rate>
										<width>1920</width>
										<height>1080</height>
										<anamorphic>FALSE</anamorphic>
										<pixelaspectratio>square</pixelaspectratio>
										<fielddominance>upper</fielddominance>
									</samplecharacteristics>
								</video>
								<audio>
									<samplecharacteristics>
										<depth>16</depth>
										<samplerate>48000</samplerate>
									</samplecharacteristics>
									<channelcount>2</channelcount>
								</audio>
							</media>
						</file>
						<logginginfo>
							<description></description>
							<scene></scene>
							<shottake></shottake>
							<lognote></lognote>
						</logginginfo>
						<labels>
							<label2>Iris</label2>
						</labels>
					</clipitem>
					<clipitem id="clipitem-240">
						<masterclipid>masterclip-166</masterclipid>
						<name>Nordvisjon3MASTER i-lyd.mxf</name>
						<enabled>TRUE</enabled>
						<duration>497</duration>
						<rate>
							<timebase>25</timebase>
							<ntsc>FALSE</ntsc>
						</rate>
						<start>99744</start>
						<end>100025</end>
						<in>25</in>
						<out>306</out>
						<pproTicksIn>254016000000</pproTicksIn>
						<pproTicksOut>3109155840000</pproTicksOut>
						<alphatype>none</alphatype>
						<pixelaspectratio>square</pixelaspectratio>
						<anamorphic>FALSE</anamorphic>
						<file id="file-166">
							<name>Nordvisjon3MASTER i-lyd_014.mxf</name>
							<pathurl>file://localhost/Volumes/Vaagen/Utveksling/Natur/Naturlig%20helaften%20fra%20Oslo/Transcoded_Nedklipp%20helaften/Nordvisjon3MASTER%20i-lyd_014.mxf</pathurl>
							<rate>
								<timebase>25</timebase>
								<ntsc>FALSE</ntsc>
							</rate>
							<duration>497</duration>
							<timecode>
								<rate>
									<timebase>25</timebase>
									<ntsc>FALSE</ntsc>
								</rate>
								<string>00:28:27:24</string>
								<frame>42699</frame>
								<displayformat>NDF</displayformat>
								<reel>
									<name></name>
								</reel>
							</timecode>
							<media>
								<video>
									<samplecharacteristics>
										<rate>
											<timebase>25</timebase>
											<ntsc>FALSE</ntsc>
										</rate>
										<width>1920</width>
										<height>1080</height>
										<anamorphic>FALSE</anamorphic>
										<pixelaspectratio>square</pixelaspectratio>
										<fielddominance>upper</fielddominance>
									</samplecharacteristics>
								</video>
							</media>
						</file>
						<logginginfo>
							<description></description>
							<scene></scene>
							<shottake></shottake>
							<lognote></lognote>
						</logginginfo>
						<labels>
							<label2>Iris</label2>
						</labels>
					</clipitem>
					<clipitem id="clipitem-241">
						<masterclipid>masterclip-167</masterclipid>
						<name>AA280201.MXF</name>
						<enabled>TRUE</enabled>
						<duration>432</duration>
						<rate>
							<timebase>25</timebase>
							<ntsc>FALSE</ntsc>
						</rate>
						<start>100025</start>
						<end>100148</end>
						<in>201</in>
						<out>324</out>
						<pproTicksIn>2042288640000</pproTicksIn>
						<pproTicksOut>3292047360000</pproTicksOut>
						<alphatype>none</alphatype>
						<pixelaspectratio>square</pixelaspectratio>
						<anamorphic>FALSE</anamorphic>
						<file id="file-167">
							<name>AA280201.MXF</name>
							<pathurl>file://localhost/Volumes/Vaagen/Utveksling/Natur/Naturlig%20helaften%20fra%20Oslo/Copied_Copy%20of%20En%20Helaften%20MASTER_001/AA280201.MXF</pathurl>
							<rate>
								<timebase>25</timebase>
								<ntsc>FALSE</ntsc>
							</rate>
							<duration>432</duration>
							<timecode>
								<rate>
									<timebase>25</timebase>
									<ntsc>FALSE</ntsc>
								</rate>
								<string>13:51:56:01</string>
								<frame>1247901</frame>
								<displayformat>NDF</displayformat>
								<reel>
									<name></name>
								</reel>
							</timecode>
							<media>
								<video>
									<samplecharacteristics>
										<rate>
											<timebase>25</timebase>
											<ntsc>FALSE</ntsc>
										</rate>
										<width>1920</width>
										<height>1080</height>
										<anamorphic>FALSE</anamorphic>
										<pixelaspectratio>square</pixelaspectratio>
										<fielddominance>none</fielddominance>
									</samplecharacteristics>
								</video>
								<audio>
									<samplecharacteristics>
										<depth>16</depth>
										<samplerate>48000</samplerate>
									</samplecharacteristics>
									<channelcount>2</channelcount>
								</audio>
							</media>
						</file>
						<link>
							<linkclipref>clipitem-241</linkclipref>
							<mediatype>video</mediatype>
							<trackindex>1</trackindex>
							<clipindex>251</clipindex>
						</link>
						<link>
							<linkclipref>clipitem-812</linkclipref>
							<mediatype>audio</mediatype>
							<trackindex>8</trackindex>
							<clipindex>117</clipindex>
							<groupindex>1</groupindex>
						</link>
						<link>
							<linkclipref>clipitem-906</linkclipref>
							<mediatype>audio</mediatype>
							<trackindex>9</trackindex>
							<clipindex>115</clipindex>
							<groupindex>1</groupindex>
						</link>
						<logginginfo>
							<description></description>
							<scene></scene>
							<shottake></shottake>
							<lognote></lognote>
						</logginginfo>
						<labels>
							<label2>Iris</label2>
						</labels>
					</clipitem>
					<clipitem id="clipitem-242">
						<masterclipid>masterclip-168</masterclipid>
						<name>AA282601.MXF</name>
						<enabled>TRUE</enabled>
						<duration>2568</duration>
						<rate>
							<timebase>25</timebase>
							<ntsc>FALSE</ntsc>
						</rate>
						<start>100148</start>
						<end>100216</end>
						<in>1625</in>
						<out>1693</out>
						<pproTicksIn>16511040000000</pproTicksIn>
						<pproTicksOut>17201963520000</pproTicksOut>
						<alphatype>none</alphatype>
						<pixelaspectratio>square</pixelaspectratio>
						<anamorphic>FALSE</anamorphic>
						<file id="file-168">
							<name>AA282601.MXF</name>
							<pathurl>file://localhost/Volumes/Vaagen/Utveksling/Natur/Naturlig%20helaften%20fra%20Oslo/Copied_Copy%20of%20En%20Helaften%20MASTER_001/AA282601.MXF</pathurl>
							<rate>
								<timebase>25</timebase>
								<ntsc>FALSE</ntsc>
							</rate>
							<duration>2568</duration>
							<timecode>
								<rate>
									<timebase>25</timebase>
									<ntsc>FALSE</ntsc>
								</rate>
								<string>09:35:10:23</string>
								<frame>862773</frame>
								<displayformat>NDF</displayformat>
								<reel>
									<name></name>
								</reel>
							</timecode>
							<media>
								<video>
									<samplecharacteristics>
										<rate>
											<timebase>25</timebase>
											<ntsc>FALSE</ntsc>
										</rate>
										<width>1920</width>
										<height>1080</height>
										<anamorphic>FALSE</anamorphic>
										<pixelaspectratio>square</pixelaspectratio>
										<fielddominance>none</fielddominance>
									</samplecharacteristics>
								</video>
								<audio>
									<samplecharacteristics>
										<depth>16</depth>
										<samplerate>48000</samplerate>
									</samplecharacteristics>
									<channelcount>2</channelcount>
								</audio>
							</media>
						</file>
						<link>
							<linkclipref>clipitem-242</linkclipref>
							<mediatype>video</mediatype>
							<trackindex>1</trackindex>
							<clipindex>252</clipindex>
						</link>
						<link>
							<linkclipref>clipitem-813</linkclipref>
							<mediatype>audio</mediatype>
							<trackindex>8</trackindex>
							<clipindex>119</clipindex>
							<groupindex>1</groupindex>
						</link>
						<link>
							<linkclipref>clipitem-907</linkclipref>
							<mediatype>audio</mediatype>
							<trackindex>9</trackindex>
							<clipindex>117</clipindex>
							<groupindex>1</groupindex>
						</link>
						<link>
							<linkclipref>clipitem-1270</linkclipref>
							<mediatype>audio</mediatype>
							<trackindex>12</trackindex>
							<clipindex>137</clipindex>
							<groupindex>1</groupindex>
						</link>
						<link>
							<linkclipref>clipitem-1355</linkclipref>
							<mediatype>audio</mediatype>
							<trackindex>13</trackindex>
							<clipindex>137</clipindex>
							<groupindex>1</groupindex>
						</link>
						<logginginfo>
							<description></description>
							<scene></scene>
							<shottake></shottake>
							<lognote></lognote>
						</logginginfo>
						<labels>
							<label2>Iris</label2>
						</labels>
					</clipitem>
					<clipitem id="clipitem-243">
						<masterclipid>masterclip-169</masterclipid>
						<name>AA279001.MXF</name>
						<enabled>TRUE</enabled>
						<duration>132</duration>
						<rate>
							<timebase>25</timebase>
							<ntsc>FALSE</ntsc>
						</rate>
						<start>100216</start>
						<end>100295</end>
						<in>0</in>
						<out>79</out>
						<pproTicksIn>0</pproTicksIn>
						<pproTicksOut>802690560000</pproTicksOut>
						<alphatype>none</alphatype>
						<pixelaspectratio>square</pixelaspectratio>
						<anamorphic>FALSE</anamorphic>
						<file id="file-169">
							<name>AA279001.MXF</name>
							<pathurl>file://localhost/Volumes/Vaagen/Utveksling/Natur/Naturlig%20helaften%20fra%20Oslo/Copied_Copy%20of%20En%20Helaften%20MASTER_001/AA279001.MXF</pathurl>
							<rate>
								<timebase>25</timebase>
								<ntsc>FALSE</ntsc>
							</rate>
							<duration>132</duration>
							<timecode>
								<rate>
									<timebase>25</timebase>
									<ntsc>FALSE</ntsc>
								</rate>
								<string>13:31:14:21</string>
								<frame>1216871</frame>
								<displayformat>NDF</displayformat>
								<reel>
									<name></name>
								</reel>
							</timecode>
							<media>
								<video>
									<samplecharacteristics>
										<rate>
											<timebase>25</timebase>
											<ntsc>FALSE</ntsc>
										</rate>
										<width>1920</width>
										<height>1080</height>
										<anamorphic>FALSE</anamorphic>
										<pixelaspectratio>square</pixelaspectratio>
										<fielddominance>none</fielddominance>
									</samplecharacteristics>
								</video>
								<audio>
									<samplecharacteristics>
										<depth>16</depth>
										<samplerate>48000</samplerate>
									</samplecharacteristics>
									<channelcount>2</channelcount>
								</audio>
							</media>
						</file>
						<link>
							<linkclipref>clipitem-243</linkclipref>
							<mediatype>video</mediatype>
							<trackindex>1</trackindex>
							<clipindex>253</clipindex>
						</link>
						<link>
							<linkclipref>clipitem-814</linkclipref>
							<mediatype>audio</mediatype>
							<trackindex>8</trackindex>
							<clipindex>121</clipindex>
							<groupindex>1</groupindex>
						</link>
						<link>
							<linkclipref>clipitem-908</linkclipref>
							<mediatype>audio</mediatype>
							<trackindex>9</trackindex>
							<clipindex>119</clipindex>
							<groupindex>1</groupindex>
						</link>
						<logginginfo>
							<description></description>
							<scene></scene>
							<shottake></shottake>
							<lognote></lognote>
						</logginginfo>
						<labels>
							<label2>Iris</label2>
						</labels>
					</clipitem>
					<clipitem id="clipitem-244">
						<masterclipid>masterclip-170</masterclipid>
						<name>AA280001.MXF</name>
						<enabled>TRUE</enabled>
						<duration>1248</duration>
						<rate>
							<timebase>25</timebase>
							<ntsc>FALSE</ntsc>
						</rate>
						<start>100295</start>
						<end>101024</end>
						<in>458</in>
						<out>1187</out>
						<pproTicksIn>4653573120000</pproTicksIn>
						<pproTicksOut>12060679680000</pproTicksOut>
						<alphatype>none</alphatype>
						<pixelaspectratio>square</pixelaspectratio>
						<anamorphic>FALSE</anamorphic>
						<file id="file-170">
							<name>AA280001.MXF</name>
							<pathurl>file://localhost/Volumes/Vaagen/Utveksling/Natur/Naturlig%20helaften%20fra%20Oslo/Copied_Copy%20of%20En%20Helaften%20MASTER_001/AA280001.MXF</pathurl>
							<rate>
								<timebase>25</timebase>
								<ntsc>FALSE</ntsc>
							</rate>
							<duration>1248</duration>
							<timecode>
								<rate>
									<timebase>25</timebase>
									<ntsc>FALSE</ntsc>
								</rate>
								<string>13:47:54:03</string>
								<frame>1241853</frame>
								<displayformat>NDF</displayformat>
								<reel>
									<name></name>
								</reel>
							</timecode>
							<media>
								<video>
									<samplecharacteristics>
										<rate>
											<timebase>25</timebase>
											<ntsc>FALSE</ntsc>
										</rate>
										<width>1920</width>
										<height>1080</height>
										<anamorphic>FALSE</anamorphic>
										<pixelaspectratio>square</pixelaspectratio>
										<fielddominance>none</fielddominance>
									</samplecharacteristics>
								</video>
								<audio>
									<samplecharacteristics>
										<depth>16</depth>
										<samplerate>48000</samplerate>
									</samplecharacteristics>
									<channelcount>2</channelcount>
								</audio>
							</media>
						</file>
						<link>
							<linkclipref>clipitem-244</linkclipref>
							<mediatype>video</mediatype>
							<trackindex>1</trackindex>
							<clipindex>254</clipindex>
						</link>
						<link>
							<linkclipref>clipitem-815</linkclipref>
							<mediatype>audio</mediatype>
							<trackindex>8</trackindex>
							<clipindex>122</clipindex>
							<groupindex>1</groupindex>
						</link>
						<link>
							<linkclipref>clipitem-909</linkclipref>
							<mediatype>audio</mediatype>
							<trackindex>9</trackindex>
							<clipindex>120</clipindex>
							<groupindex>1</groupindex>
						</link>
						<logginginfo>
							<description></description>
							<scene></scene>
							<shottake></shottake>
							<lognote></lognote>
						</logginginfo>
						<labels>
							<label2>Iris</label2>
						</labels>
					</clipitem>
					<clipitem id="clipitem-245">
						<masterclipid>masterclip-11</masterclipid>
						<name>OWH Master 161123_.mov</name>
						<enabled>TRUE</enabled>
						<duration>86750</duration>
						<rate>
							<timebase>25</timebase>
							<ntsc>FALSE</ntsc>
						</rate>
						<start>101024</start>
						<end>101897</end>
						<in>61739</in>
						<out>62612</out>
						<pproTicksIn>627307752960000</pproTicksIn>
						<pproTicksOut>636177991680000</pproTicksOut>
						<alphatype>none</alphatype>
						<file id="file-11"/>
						<link>
							<linkclipref>clipitem-245</linkclipref>
							<mediatype>video</mediatype>
							<trackindex>1</trackindex>
							<clipindex>255</clipindex>
						</link>
						<link>
							<linkclipref>clipitem-1387</linkclipref>
							<mediatype>audio</mediatype>
							<trackindex>14</trackindex>
							<clipindex>34</clipindex>
							<groupindex>1</groupindex>
						</link>
						<link>
							<linkclipref>clipitem-1419</linkclipref>
							<mediatype>audio</mediatype>
							<trackindex>15</trackindex>
							<clipindex>34</clipindex>
							<groupindex>1</groupindex>
						</link>
						<logginginfo>
							<description></description>
							<scene></scene>
							<shottake></shottake>
							<lognote></lognote>
						</logginginfo>
						<labels>
							<label2>Iris</label2>
						</labels>
					</clipitem>
					<clipitem id="clipitem-246">
						<masterclipid>masterclip-171</masterclipid>
						<name>2011-08-04 at 16_58_00</name>
						<enabled>TRUE</enabled>
						<duration>387</duration>
						<rate>
							<timebase>25</timebase>
							<ntsc>FALSE</ntsc>
						</rate>
						<start>101897</start>
						<end>102096</end>
						<in>60</in>
						<out>259</out>
						<pproTicksIn>609638400000</pproTicksIn>
						<pproTicksOut>2631605760000</pproTicksOut>
						<alphatype>none</alphatype>
						<pixelaspectratio>square</pixelaspectratio>
						<anamorphic>FALSE</anamorphic>
						<file id="file-171">
							<name>2011-08-04 at 16_58_00_001.mxf</name>
							<pathurl>file://localhost/Volumes/Svartediket/Prosjekter/DVNA600216_HELAFTEN2016_FAL_010217/Video/Lyden%20av%20natur%20Trailer%20x2/Transcoded_%20Lyden%20av%20natur%20-161121/2011-08-04%20at%2016_58_00_001.mxf</pathurl>
							<rate>
								<timebase>25</timebase>
								<ntsc>FALSE</ntsc>
							</rate>
							<duration>387</duration>
							<timecode>
								<rate>
									<timebase>25</timebase>
									<ntsc>FALSE</ntsc>
								</rate>
								<string>11:04:05:13</string>
								<frame>996138</frame>
								<displayformat>NDF</displayformat>
								<reel>
									<name>NO NAME</name>
								</reel>
							</timecode>
							<media>
								<video>
									<samplecharacteristics>
										<rate>
											<timebase>25</timebase>
											<ntsc>FALSE</ntsc>
										</rate>
										<width>1920</width>
										<height>1080</height>
										<anamorphic>FALSE</anamorphic>
										<pixelaspectratio>square</pixelaspectratio>
										<fielddominance>upper</fielddominance>
									</samplecharacteristics>
								</video>
							</media>
						</file>
						<logginginfo>
							<description></description>
							<scene></scene>
							<shottake></shottake>
							<lognote></lognote>
						</logginginfo>
						<labels>
							<label2>Iris</label2>
						</labels>
					</clipitem>
					<clipitem id="clipitem-247">
						<masterclipid>masterclip-172</masterclipid>
						<name>2011-08-03 at 17_09_37</name>
						<enabled>TRUE</enabled>
						<duration>220</duration>
						<rate>
							<timebase>25</timebase>
							<ntsc>FALSE</ntsc>
						</rate>
						<start>102096</start>
						<end>102192</end>
						<in>50</in>
						<out>146</out>
						<pproTicksIn>508032000000</pproTicksIn>
						<pproTicksOut>1483453440000</pproTicksOut>
						<alphatype>none</alphatype>
						<pixelaspectratio>square</pixelaspectratio>
						<anamorphic>FALSE</anamorphic>
						<file id="file-172">
							<name>2011-08-03 at 17_09_37.mxf</name>
							<pathurl>file://localhost/Volumes/Svartediket/Prosjekter/DVNA600216_HELAFTEN2016_FAL_010217/Video/Lyden%20av%20natur%20Trailer%20x2/Transcoded_%20Lyden%20av%20natur%20-161121/2011-08-03%20at%2017_09_37.mxf</pathurl>
							<rate>
								<timebase>25</timebase>
								<ntsc>FALSE</ntsc>
							</rate>
							<duration>220</duration>
							<timecode>
								<rate>
									<timebase>25</timebase>
									<ntsc>FALSE</ntsc>
								</rate>
								<string>10:04:44:23</string>
								<frame>907123</frame>
								<displayformat>NDF</displayformat>
								<reel>
									<name>NO NAME</name>
								</reel>
							</timecode>
							<media>
								<video>
									<samplecharacteristics>
										<rate>
											<timebase>25</timebase>
											<ntsc>FALSE</ntsc>
										</rate>
										<width>1920</width>
										<height>1080</height>
										<anamorphic>FALSE</anamorphic>
										<pixelaspectratio>square</pixelaspectratio>
										<fielddominance>upper</fielddominance>
									</samplecharacteristics>
								</video>
							</media>
						</file>
						<logginginfo>
							<description></description>
							<scene></scene>
							<shottake></shottake>
							<lognote></lognote>
						</logginginfo>
						<labels>
							<label2>Iris</label2>
						</labels>
					</clipitem>
					<clipitem id="clipitem-248">
						<masterclipid>masterclip-172</masterclipid>
						<name>2011-08-03 at 17_09_37</name>
						<enabled>TRUE</enabled>
						<duration>220</duration>
						<rate>
							<timebase>25</timebase>
							<ntsc>FALSE</ntsc>
						</rate>
						<start>102192</start>
						<end>102216</end>
						<in>146</in>
						<out>170</out>
						<pproTicksIn>1483453440000</pproTicksIn>
						<pproTicksOut>1727308800000</pproTicksOut>
						<alphatype>none</alphatype>
						<file id="file-172"/>
							<filter>
								<effect>
									<name>Opacity</name>
									<effectid>opacity</effectid>
									<effectcategory>motion</effectcategory>
									<effecttype>motion</effecttype>
									<mediatype>video</mediatype>
									<parameter authoringApp="PremierePro">
										<parameterid>opacity</parameterid>
										<name>opacity</name>
										<valuemin>0</valuemin>
										<valuemax>100</valuemax>
										<value>100</value>
										<keyframe>
											<when>-3616</when>
											<value>100</value>
										</keyframe>
									</parameter>
								</effect>
							</filter>
						<logginginfo>
							<description></description>
							<scene></scene>
							<shottake></shottake>
							<lognote></lognote>
						</logginginfo>
						<labels>
							<label2>Iris</label2>
						</labels>
					</clipitem>
					<clipitem id="clipitem-249">
						<masterclipid>masterclip-171</masterclipid>
						<name>2011-08-04 at 16_58_00</name>
						<enabled>TRUE</enabled>
						<duration>387</duration>
						<rate>
							<timebase>25</timebase>
							<ntsc>FALSE</ntsc>
						</rate>
						<start>102216</start>
						<end>102301</end>
						<in>252</in>
						<out>337</out>
						<pproTicksIn>2560481280000</pproTicksIn>
						<pproTicksOut>3424135680000</pproTicksOut>
						<alphatype>none</alphatype>
						<file id="file-171"/>
						<logginginfo>
							<description></description>
							<scene></scene>
							<shottake></shottake>
							<lognote></lognote>
						</logginginfo>
						<labels>
							<label2>Iris</label2>
						</labels>
					</clipitem>
					<clipitem id="clipitem-250">
						<masterclipid>masterclip-173</masterclipid>
						<name>2011-08-02 at 21_00_06</name>
						<enabled>TRUE</enabled>
						<duration>477</duration>
						<rate>
							<timebase>25</timebase>
							<ntsc>FALSE</ntsc>
						</rate>
						<start>102301</start>
						<end>102678</end>
						<in>50</in>
						<out>427</out>
						<pproTicksIn>508032000000</pproTicksIn>
						<pproTicksOut>4338593280000</pproTicksOut>
						<alphatype>none</alphatype>
						<pixelaspectratio>square</pixelaspectratio>
						<anamorphic>FALSE</anamorphic>
						<file id="file-173">
							<name>2011-08-02 at 21_00_06.mxf</name>
							<pathurl>file://localhost/Volumes/Svartediket/Prosjekter/DVNA600216_HELAFTEN2016_FAL_010217/Video/Lyden%20av%20natur%20Trailer%20x2/Transcoded_%20Lyden%20av%20natur%20-161121/2011-08-02%20at%2021_00_06.mxf</pathurl>
							<rate>
								<timebase>25</timebase>
								<ntsc>FALSE</ntsc>
							</rate>
							<duration>477</duration>
							<timecode>
								<rate>
									<timebase>25</timebase>
									<ntsc>FALSE</ntsc>
								</rate>
								<string>11:39:35:01</string>
								<frame>1049376</frame>
								<displayformat>NDF</displayformat>
								<reel>
									<name>NO NAME</name>
								</reel>
							</timecode>
							<media>
								<video>
									<samplecharacteristics>
										<rate>
											<timebase>25</timebase>
											<ntsc>FALSE</ntsc>
										</rate>
										<width>1920</width>
										<height>1080</height>
										<anamorphic>FALSE</anamorphic>
										<pixelaspectratio>square</pixelaspectratio>
										<fielddominance>upper</fielddominance>
									</samplecharacteristics>
								</video>
								<audio>
									<samplecharacteristics>
										<depth>16</depth>
										<samplerate>48000</samplerate>
									</samplecharacteristics>
									<channelcount>4</channelcount>
								</audio>
							</media>
						</file>
						<logginginfo>
							<description></description>
							<scene></scene>
							<shottake></shottake>
							<lognote></lognote>
						</logginginfo>
						<labels>
							<label2>Iris</label2>
						</labels>
					</clipitem>
					<clipitem id="clipitem-251">
						<masterclipid>masterclip-174</masterclipid>
						<name>2011-08-04 at 19_19_19</name>
						<enabled>TRUE</enabled>
						<duration>219</duration>
						<rate>
							<timebase>25</timebase>
							<ntsc>FALSE</ntsc>
						</rate>
						<start>102678</start>
						<end>102797</end>
						<in>50</in>
						<out>169</out>
						<pproTicksIn>508032000000</pproTicksIn>
						<pproTicksOut>1717148160000</pproTicksOut>
						<alphatype>none</alphatype>
						<pixelaspectratio>square</pixelaspectratio>
						<anamorphic>FALSE</anamorphic>
						<file id="file-174">
							<name>2011-08-04 at 19_19_19_002.mxf</name>
							<pathurl>file://localhost/Volumes/Svartediket/Prosjekter/DVNA600216_HELAFTEN2016_FAL_010217/Video/Lyden%20av%20natur%20Trailer%20x2/Transcoded_%20Lyden%20av%20natur%20-161121/2011-08-04%20at%2019_19_19_002.mxf</pathurl>
							<rate>
								<timebase>25</timebase>
								<ntsc>FALSE</ntsc>
							</rate>
							<duration>219</duration>
							<timecode>
								<rate>
									<timebase>25</timebase>
									<ntsc>FALSE</ntsc>
								</rate>
								<string>11:27:47:03</string>
								<frame>1031678</frame>
								<displayformat>NDF</displayformat>
								<reel>
									<name>NO NAME, NO NAME 1</name>
								</reel>
							</timecode>
							<media>
								<video>
									<samplecharacteristics>
										<rate>
											<timebase>25</timebase>
											<ntsc>FALSE</ntsc>
										</rate>
										<width>1920</width>
										<height>1080</height>
										<anamorphic>FALSE</anamorphic>
										<pixelaspectratio>square</pixelaspectratio>
										<fielddominance>upper</fielddominance>
									</samplecharacteristics>
								</video>
							</media>
						</file>
						<logginginfo>
							<description></description>
							<scene></scene>
							<shottake></shottake>
							<lognote></lognote>
						</logginginfo>
						<labels>
							<label2>Iris</label2>
						</labels>
					</clipitem>
					<clipitem id="clipitem-252">
						<masterclipid>masterclip-175</masterclipid>
						<name>2011-08-02 at 21_00_06</name>
						<enabled>TRUE</enabled>
						<duration>348</duration>
						<rate>
							<timebase>25</timebase>
							<ntsc>FALSE</ntsc>
						</rate>
						<start>102797</start>
						<end>103045</end>
						<in>50</in>
						<out>298</out>
						<pproTicksIn>508032000000</pproTicksIn>
						<pproTicksOut>3027870720000</pproTicksOut>
						<alphatype>none</alphatype>
						<pixelaspectratio>square</pixelaspectratio>
						<anamorphic>FALSE</anamorphic>
						<file id="file-175">
							<name>2011-08-02 at 21_00_06_001.mxf</name>
							<pathurl>file://localhost/Volumes/Svartediket/Prosjekter/DVNA600216_HELAFTEN2016_FAL_010217/Video/Lyden%20av%20natur%20Trailer%20x2/Transcoded_%20Lyden%20av%20natur%20-161121/2011-08-02%20at%2021_00_06_001.mxf</pathurl>
							<rate>
								<timebase>25</timebase>
								<ntsc>FALSE</ntsc>
							</rate>
							<duration>348</duration>
							<timecode>
								<rate>
									<timebase>25</timebase>
									<ntsc>FALSE</ntsc>
								</rate>
								<string>11:40:05:12</string>
								<frame>1050137</frame>
								<displayformat>NDF</displayformat>
								<reel>
									<name>NO NAME</name>
								</reel>
							</timecode>
							<media>
								<video>
									<samplecharacteristics>
										<rate>
											<timebase>25</timebase>
											<ntsc>FALSE</ntsc>
										</rate>
										<width>1920</width>
										<height>1080</height>
										<anamorphic>FALSE</anamorphic>
										<pixelaspectratio>square</pixelaspectratio>
										<fielddominance>upper</fielddominance>
									</samplecharacteristics>
								</video>
							</media>
						</file>
						<logginginfo>
							<description></description>
							<scene></scene>
							<shottake></shottake>
							<lognote></lognote>
						</logginginfo>
						<labels>
							<label2>Iris</label2>
						</labels>
					</clipitem>
					<clipitem id="clipitem-253">
						<masterclipid>masterclip-176</masterclipid>
						<name>2011-08-04 at 16_58_00</name>
						<enabled>TRUE</enabled>
						<duration>143</duration>
						<rate>
							<timebase>25</timebase>
							<ntsc>FALSE</ntsc>
						</rate>
						<start>103045</start>
						<end>103088</end>
						<in>50</in>
						<out>93</out>
						<pproTicksIn>508032000000</pproTicksIn>
						<pproTicksOut>944939520000</pproTicksOut>
						<alphatype>none</alphatype>
						<pixelaspectratio>square</pixelaspectratio>
						<anamorphic>FALSE</anamorphic>
						<file id="file-176">
							<name>2011-08-04 at 16_58_00.mxf</name>
							<pathurl>file://localhost/Volumes/Svartediket/Prosjekter/DVNA600216_HELAFTEN2016_FAL_010217/Video/Lyden%20av%20natur%20Trailer%20x2/Transcoded_%20Lyden%20av%20natur%20-161121/2011-08-04%20at%2016_58_00.mxf</pathurl>
							<rate>
								<timebase>25</timebase>
								<ntsc>FALSE</ntsc>
							</rate>
							<duration>143</duration>
							<timecode>
								<rate>
									<timebase>25</timebase>
									<ntsc>FALSE</ntsc>
								</rate>
								<string>10:59:24:17</string>
								<frame>989117</frame>
								<displayformat>NDF</displayformat>
								<reel>
									<name>NO NAME</name>
								</reel>
							</timecode>
							<media>
								<video>
									<samplecharacteristics>
										<rate>
											<timebase>25</timebase>
											<ntsc>FALSE</ntsc>
										</rate>
										<width>1920</width>
										<height>1080</height>
										<anamorphic>FALSE</anamorphic>
										<pixelaspectratio>square</pixelaspectratio>
										<fielddominance>upper</fielddominance>
									</samplecharacteristics>
								</video>
							</media>
						</file>
						<logginginfo>
							<description></description>
							<scene></scene>
							<shottake></shottake>
							<lognote></lognote>
						</logginginfo>
						<labels>
							<label2>Iris</label2>
						</labels>
					</clipitem>
					<clipitem id="clipitem-254">
						<masterclipid>masterclip-177</masterclipid>
						<name>2011-08-02 at 21_00_06</name>
						<enabled>TRUE</enabled>
						<duration>193</duration>
						<rate>
							<timebase>25</timebase>
							<ntsc>FALSE</ntsc>
						</rate>
						<start>103088</start>
						<end>103181</end>
						<in>50</in>
						<out>143</out>
						<pproTicksIn>508032000000</pproTicksIn>
						<pproTicksOut>1452971520000</pproTicksOut>
						<alphatype>none</alphatype>
						<pixelaspectratio>square</pixelaspectratio>
						<anamorphic>FALSE</anamorphic>
						<file id="file-177">
							<name>2011-08-02 at 21_00_06_002.mxf</name>
							<pathurl>file://localhost/Volumes/Svartediket/Prosjekter/DVNA600216_HELAFTEN2016_FAL_010217/Video/Lyden%20av%20natur%20Trailer%20x2/Transcoded_%20Lyden%20av%20natur%20-161121/2011-08-02%20at%2021_00_06_002.mxf</pathurl>
							<rate>
								<timebase>25</timebase>
								<ntsc>FALSE</ntsc>
							</rate>
							<duration>193</duration>
							<timecode>
								<rate>
									<timebase>25</timebase>
									<ntsc>FALSE</ntsc>
								</rate>
								<string>11:41:15:23</string>
								<frame>1051898</frame>
								<displayformat>NDF</displayformat>
								<reel>
									<name>NO NAME</name>
								</reel>
							</timecode>
							<media>
								<video>
									<samplecharacteristics>
										<rate>
											<timebase>25</timebase>
											<ntsc>FALSE</ntsc>
										</rate>
										<width>1920</width>
										<height>1080</height>
										<anamorphic>FALSE</anamorphic>
										<pixelaspectratio>square</pixelaspectratio>
										<fielddominance>upper</fielddominance>
									</samplecharacteristics>
								</video>
							</media>
						</file>
						<logginginfo>
							<description></description>
							<scene></scene>
							<shottake></shottake>
							<lognote></lognote>
						</logginginfo>
						<labels>
							<label2>Iris</label2>
						</labels>
					</clipitem>
					<clipitem id="clipitem-255">
						<masterclipid>masterclip-178</masterclipid>
						<name>2011-08-04 at 19_19_19</name>
						<enabled>TRUE</enabled>
						<duration>290</duration>
						<rate>
							<timebase>25</timebase>
							<ntsc>FALSE</ntsc>
						</rate>
						<start>103181</start>
						<end>103371</end>
						<in>50</in>
						<out>240</out>
						<pproTicksIn>508032000000</pproTicksIn>
						<pproTicksOut>2438553600000</pproTicksOut>
						<alphatype>none</alphatype>
						<pixelaspectratio>square</pixelaspectratio>
						<anamorphic>FALSE</anamorphic>
						<file id="file-178">
							<name>2011-08-04 at 19_19_19.mxf</name>
							<pathurl>file://localhost/Volumes/Svartediket/Prosjekter/DVNA600216_HELAFTEN2016_FAL_010217/Video/Lyden%20av%20natur%20Trailer%20x2/Transcoded_%20Lyden%20av%20natur%20-161121/2011-08-04%20at%2019_19_19.mxf</pathurl>
							<rate>
								<timebase>25</timebase>
								<ntsc>FALSE</ntsc>
							</rate>
							<duration>290</duration>
							<timecode>
								<rate>
									<timebase>25</timebase>
									<ntsc>FALSE</ntsc>
								</rate>
								<string>11:20:44:21</string>
								<frame>1021121</frame>
								<displayformat>NDF</displayformat>
								<reel>
									<name>NO NAME, NO NAME 1</name>
								</reel>
							</timecode>
							<media>
								<video>
									<samplecharacteristics>
										<rate>
											<timebase>25</timebase>
											<ntsc>FALSE</ntsc>
										</rate>
										<width>1920</width>
										<height>1080</height>
										<anamorphic>FALSE</anamorphic>
										<pixelaspectratio>square</pixelaspectratio>
										<fielddominance>upper</fielddominance>
									</samplecharacteristics>
								</video>
							</media>
						</file>
						<logginginfo>
							<description></description>
							<scene></scene>
							<shottake></shottake>
							<lognote></lognote>
						</logginginfo>
						<labels>
							<label2>Iris</label2>
						</labels>
					</clipitem>
					<clipitem id="clipitem-256">
						<masterclipid>masterclip-179</masterclipid>
						<name>NRK_sluttplakat_2016.mov</name>
						<enabled>TRUE</enabled>
						<duration>125</duration>
						<rate>
							<timebase>25</timebase>
							<ntsc>FALSE</ntsc>
						</rate>
						<start>103371</start>
						<end>103496</end>
						<in>0</in>
						<out>125</out>
						<pproTicksIn>0</pproTicksIn>
						<pproTicksOut>1270080000000</pproTicksOut>
						<alphatype>none</alphatype>
						<pixelaspectratio>square</pixelaspectratio>
						<anamorphic>FALSE</anamorphic>
						<file id="file-179">
							<name>NRK_sluttplakat_2016.mov.mxf</name>
							<pathurl>file://localhost/Volumes/Svartediket/FCPutveksling/NATUR/_UIN-NY_GRAFIKK2015_PremierePro-mal/Rastoff/NRK_sluttplakat_2016.mov.mxf</pathurl>
							<rate>
								<timebase>25</timebase>
								<ntsc>FALSE</ntsc>
							</rate>
							<duration>125</duration>
							<timecode>
								<rate>
									<timebase>25</timebase>
									<ntsc>FALSE</ntsc>
								</rate>
								<string>00:00:00:00</string>
								<frame>0</frame>
								<displayformat>NDF</displayformat>
								<reel>
									<name></name>
								</reel>
							</timecode>
							<media>
								<video>
									<samplecharacteristics>
										<rate>
											<timebase>25</timebase>
											<ntsc>FALSE</ntsc>
										</rate>
										<width>1920</width>
										<height>1080</height>
										<anamorphic>FALSE</anamorphic>
										<pixelaspectratio>square</pixelaspectratio>
										<fielddominance>none</fielddominance>
									</samplecharacteristics>
								</video>
							</media>
						</file>
						<logginginfo>
							<description></description>
							<scene></scene>
							<shottake></shottake>
							<lognote></lognote>
						</logginginfo>
						<labels>
							<label2>Violet</label2>
						</labels>
					</clipitem>
					<enabled>TRUE</enabled>
					<locked>FALSE</locked>
				</track>
				<track TL.SQTrackShy="0" TL.SQTrackExpandedHeight="25" TL.SQTrackExpanded="1" MZ.TrackTargeted="0">
					<clipitem id="clipitem-257">
						<masterclipid>masterclip-9</masterclipid>
						<name>GOPR9723.MP4</name>
						<enabled>TRUE</enabled>
						<duration>1191</duration>
						<rate>
							<timebase>25</timebase>
							<ntsc>FALSE</ntsc>
						</rate>
						<start>435</start>
						<end>486</end>
						<in>153</in>
						<out>204</out>
						<pproTicksIn>1554577920000</pproTicksIn>
						<pproTicksOut>2072770560000</pproTicksOut>
						<alphatype>black</alphatype>
						<file id="file-9"/>
						<link>
							<linkclipref>clipitem-257</linkclipref>
							<mediatype>video</mediatype>
							<trackindex>2</trackindex>
							<clipindex>1</clipindex>
						</link>
						<link>
							<linkclipref>clipitem-664</linkclipref>
							<mediatype>audio</mediatype>
							<trackindex>5</trackindex>
							<clipindex>1</clipindex>
							<groupindex>1</groupindex>
						</link>
						<link>
							<linkclipref>clipitem-694</linkclipref>
							<mediatype>audio</mediatype>
							<trackindex>6</trackindex>
							<clipindex>1</clipindex>
							<groupindex>1</groupindex>
						</link>
						<logginginfo>
							<description></description>
							<scene></scene>
							<shottake></shottake>
							<lognote></lognote>
						</logginginfo>
						<labels>
							<label2>Iris</label2>
						</labels>
					</clipitem>
					<clipitem id="clipitem-258">
						<masterclipid>masterclip-180</masterclipid>
						<name>AA259801.MXF</name>
						<enabled>TRUE</enabled>
						<duration>1752</duration>
						<rate>
							<timebase>25</timebase>
							<ntsc>FALSE</ntsc>
						</rate>
						<start>841</start>
						<end>912</end>
						<in>842</in>
						<out>913</out>
						<pproTicksIn>8555258880000</pproTicksIn>
						<pproTicksOut>9276664320000</pproTicksOut>
						<alphatype>none</alphatype>
						<pixelaspectratio>square</pixelaspectratio>
						<anamorphic>FALSE</anamorphic>
						<file id="file-180">
							<name>AA259801.MXF</name>
							<pathurl>file://localhost/Volumes/Vaagen/Utveksling/Natur/Naturlig%20helaften%20fra%20Oslo/Copied_Copy%20of%20En%20Helaften%20MASTER_003/AA259801.MXF</pathurl>
							<rate>
								<timebase>25</timebase>
								<ntsc>FALSE</ntsc>
							</rate>
							<duration>1752</duration>
							<timecode>
								<rate>
									<timebase>25</timebase>
									<ntsc>FALSE</ntsc>
								</rate>
								<string>13:04:13:08</string>
								<frame>1176333</frame>
								<displayformat>NDF</displayformat>
								<reel>
									<name></name>
								</reel>
							</timecode>
							<media>
								<video>
									<samplecharacteristics>
										<rate>
											<timebase>25</timebase>
											<ntsc>FALSE</ntsc>
										</rate>
										<width>1920</width>
										<height>1080</height>
										<anamorphic>FALSE</anamorphic>
										<pixelaspectratio>square</pixelaspectratio>
										<fielddominance>none</fielddominance>
									</samplecharacteristics>
								</video>
								<audio>
									<samplecharacteristics>
										<depth>16</depth>
										<samplerate>48000</samplerate>
									</samplecharacteristics>
									<channelcount>2</channelcount>
								</audio>
							</media>
						</file>
						<logginginfo>
							<description></description>
							<scene></scene>
							<shottake></shottake>
							<lognote></lognote>
						</logginginfo>
						<labels>
							<label2>Iris</label2>
						</labels>
					</clipitem>
					<clipitem id="clipitem-259">
						<masterclipid>masterclip-11</masterclipid>
						<name>OWH Master 161123_.mov</name>
						<enabled>TRUE</enabled>
						<duration>86750</duration>
						<rate>
							<timebase>25</timebase>
							<ntsc>FALSE</ntsc>
						</rate>
						<start>1203</start>
						<end>1284</end>
						<in>42376</in>
						<out>42457</out>
						<pproTicksIn>430567280640000</pproTicksIn>
						<pproTicksOut>431390292480000</pproTicksOut>
						<alphatype>none</alphatype>
						<file id="file-11"/>
						<logginginfo>
							<description></description>
							<scene></scene>
							<shottake></shottake>
							<lognote></lognote>
						</logginginfo>
						<labels>
							<label2>Iris</label2>
						</labels>
					</clipitem>
					<clipitem id="clipitem-260">
						<masterclipid>masterclip-11</masterclipid>
						<name>OWH Master 161123_.mov</name>
						<enabled>TRUE</enabled>
						<duration>86750</duration>
						<rate>
							<timebase>25</timebase>
							<ntsc>FALSE</ntsc>
						</rate>
						<start>1284</start>
						<end>1360</end>
						<in>16331</in>
						<out>16407</out>
						<pproTicksIn>165933411840000</pproTicksIn>
						<pproTicksOut>166705620480000</pproTicksOut>
						<alphatype>none</alphatype>
						<file id="file-11"/>
						<logginginfo>
							<description></description>
							<scene></scene>
							<shottake></shottake>
							<lognote></lognote>
						</logginginfo>
						<labels>
							<label2>Iris</label2>
						</labels>
					</clipitem>
					<clipitem id="clipitem-261">
						<masterclipid>masterclip-11</masterclipid>
						<name>OWH Master 161123_.mov</name>
						<enabled>TRUE</enabled>
						<duration>86750</duration>
						<rate>
							<timebase>25</timebase>
							<ntsc>FALSE</ntsc>
						</rate>
						<start>1360</start>
						<end>1442</end>
						<in>6863</in>
						<out>6945</out>
						<pproTicksIn>69732472320000</pproTicksIn>
						<pproTicksOut>70565644800000</pproTicksOut>
						<alphatype>none</alphatype>
						<file id="file-11"/>
						<logginginfo>
							<description></description>
							<scene></scene>
							<shottake></shottake>
							<lognote></lognote>
						</logginginfo>
						<labels>
							<label2>Iris</label2>
						</labels>
					</clipitem>
					<clipitem id="clipitem-262">
						<masterclipid>masterclip-11</masterclipid>
						<name>OWH Master 161123_.mov</name>
						<enabled>TRUE</enabled>
						<duration>86750</duration>
						<rate>
							<timebase>25</timebase>
							<ntsc>FALSE</ntsc>
						</rate>
						<start>1442</start>
						<end>1502</end>
						<in>36618</in>
						<out>36678</out>
						<pproTicksIn>372062315520000</pproTicksIn>
						<pproTicksOut>372671953920000</pproTicksOut>
						<alphatype>none</alphatype>
						<file id="file-11"/>
						<logginginfo>
							<description></description>
							<scene></scene>
							<shottake></shottake>
							<lognote></lognote>
						</logginginfo>
						<labels>
							<label2>Iris</label2>
						</labels>
					</clipitem>
					<clipitem id="clipitem-263">
						<masterclipid>masterclip-11</masterclipid>
						<name>OWH Master 161123_.mov</name>
						<enabled>TRUE</enabled>
						<duration>86750</duration>
						<rate>
							<timebase>25</timebase>
							<ntsc>FALSE</ntsc>
						</rate>
						<start>1502</start>
						<end>1639</end>
						<in>43338</in>
						<out>43475</out>
						<pproTicksIn>440341816320000</pproTicksIn>
						<pproTicksOut>441733824000000</pproTicksOut>
						<alphatype>none</alphatype>
						<file id="file-11"/>
						<logginginfo>
							<description></description>
							<scene></scene>
							<shottake></shottake>
							<lognote></lognote>
						</logginginfo>
						<labels>
							<label2>Iris</label2>
						</labels>
					</clipitem>
					<clipitem id="clipitem-264">
						<masterclipid>masterclip-146</masterclipid>
						<name>Nordvisjon2MASTER_i-lyd.mxf</name>
						<enabled>TRUE</enabled>
						<duration>479</duration>
						<rate>
							<timebase>25</timebase>
							<ntsc>FALSE</ntsc>
						</rate>
						<start>1787</start>
						<end>1854</end>
						<in>172</in>
						<out>239</out>
						<pproTicksIn>1747630080000</pproTicksIn>
						<pproTicksOut>2428392960000</pproTicksOut>
						<alphatype>none</alphatype>
						<file id="file-146"/>
						<logginginfo>
							<description></description>
							<scene></scene>
							<shottake></shottake>
							<lognote></lognote>
						</logginginfo>
						<labels>
							<label2>Iris</label2>
						</labels>
					</clipitem>
					<clipitem id="clipitem-265">
						<masterclipid>masterclip-161</masterclipid>
						<name>Nordvisjon3MASTER i-lyd.mxf</name>
						<enabled>TRUE</enabled>
						<duration>449</duration>
						<rate>
							<timebase>25</timebase>
							<ntsc>FALSE</ntsc>
						</rate>
						<start>1854</start>
						<end>1935</end>
						<in>170</in>
						<out>251</out>
						<pproTicksIn>1727308800000</pproTicksIn>
						<pproTicksOut>2550320640000</pproTicksOut>
						<alphatype>none</alphatype>
						<file id="file-161"/>
						<logginginfo>
							<description></description>
							<scene></scene>
							<shottake></shottake>
							<lognote></lognote>
						</logginginfo>
						<labels>
							<label2>Iris</label2>
						</labels>
					</clipitem>
					<clipitem id="clipitem-266">
						<masterclipid>masterclip-27</masterclipid>
						<name>Drifter.mov</name>
						<enabled>TRUE</enabled>
						<duration>58403</duration>
						<rate>
							<timebase>25</timebase>
							<ntsc>FALSE</ntsc>
						</rate>
						<start>2643</start>
						<end>2770</end>
						<in>11823</in>
						<out>11950</out>
						<pproTicksIn>120129246720000</pproTicksIn>
						<pproTicksOut>121419648000000</pproTicksOut>
						<alphatype>none</alphatype>
						<file id="file-27"/>
						<link>
							<linkclipref>clipitem-266</linkclipref>
							<mediatype>video</mediatype>
							<trackindex>2</trackindex>
							<clipindex>10</clipindex>
						</link>
						<link>
							<linkclipref>clipitem-1189</linkclipref>
							<mediatype>audio</mediatype>
							<trackindex>12</trackindex>
							<clipindex>6</clipindex>
							<groupindex>1</groupindex>
						</link>
						<link>
							<linkclipref>clipitem-1274</linkclipref>
							<mediatype>audio</mediatype>
							<trackindex>13</trackindex>
							<clipindex>6</clipindex>
							<groupindex>1</groupindex>
						</link>
						<logginginfo>
							<description></description>
							<scene></scene>
							<shottake></shottake>
							<lognote></lognote>
						</logginginfo>
						<labels>
							<label2>Iris</label2>
						</labels>
					</clipitem>
					<clipitem id="clipitem-267">
						<masterclipid>masterclip-181</masterclipid>
						<name>012.mov</name>
						<enabled>TRUE</enabled>
						<duration>126</duration>
						<rate>
							<timebase>25</timebase>
							<ntsc>FALSE</ntsc>
						</rate>
						<start>3544</start>
						<end>3612</end>
						<in>0</in>
						<out>68</out>
						<pproTicksIn>0</pproTicksIn>
						<pproTicksOut>690923520000</pproTicksOut>
						<alphatype>none</alphatype>
						<pixelaspectratio>square</pixelaspectratio>
						<anamorphic>FALSE</anamorphic>
						<file id="file-181">
							<name>012.mov.mxf</name>
							<pathurl>file://localhost/Volumes/Svartediket/FCPutveksling/NATUR/_UIN-NY_GRAFIKK2015_PremierePro-mal/Rastoff/012.mov.mxf</pathurl>
							<rate>
								<timebase>25</timebase>
								<ntsc>FALSE</ntsc>
							</rate>
							<duration>126</duration>
							<timecode>
								<rate>
									<timebase>25</timebase>
									<ntsc>FALSE</ntsc>
								</rate>
								<string>00:00:00:00</string>
								<frame>0</frame>
								<displayformat>NDF</displayformat>
								<reel>
									<name></name>
								</reel>
							</timecode>
							<media>
								<video>
									<samplecharacteristics>
										<rate>
											<timebase>25</timebase>
											<ntsc>FALSE</ntsc>
										</rate>
										<width>1920</width>
										<height>1080</height>
										<anamorphic>FALSE</anamorphic>
										<pixelaspectratio>square</pixelaspectratio>
										<fielddominance>none</fielddominance>
									</samplecharacteristics>
								</video>
							</media>
						</file>
						<logginginfo>
							<description></description>
							<scene></scene>
							<shottake></shottake>
							<lognote></lognote>
						</logginginfo>
						<labels>
							<label2>Iris</label2>
						</labels>
					</clipitem>
					<clipitem id="clipitem-268">
						<masterclipid>masterclip-25</masterclipid>
						<name>AA262801.MXF</name>
						<enabled>TRUE</enabled>
						<duration>3660</duration>
						<rate>
							<timebase>25</timebase>
							<ntsc>FALSE</ntsc>
						</rate>
						<start>4090</start>
						<end>4202</end>
						<in>322</in>
						<out>434</out>
						<pproTicksIn>3271726080000</pproTicksIn>
						<pproTicksOut>4409717760000</pproTicksOut>
						<alphatype>none</alphatype>
						<file id="file-25"/>
						<link>
							<linkclipref>clipitem-268</linkclipref>
							<mediatype>video</mediatype>
							<trackindex>2</trackindex>
							<clipindex>12</clipindex>
						</link>
						<link>
							<linkclipref>clipitem-914</linkclipref>
							<mediatype>audio</mediatype>
							<trackindex>10</trackindex>
							<clipindex>7</clipindex>
							<groupindex>1</groupindex>
						</link>
						<link>
							<linkclipref>clipitem-1054</linkclipref>
							<mediatype>audio</mediatype>
							<trackindex>11</trackindex>
							<clipindex>7</clipindex>
							<groupindex>1</groupindex>
						</link>
						<logginginfo>
							<description></description>
							<scene></scene>
							<shottake></shottake>
							<lognote></lognote>
						</logginginfo>
						<labels>
							<label2>Iris</label2>
						</labels>
					</clipitem>
					<clipitem id="clipitem-269">
						<masterclipid>masterclip-182</masterclipid>
						<name>AA262601.MXF</name>
						<enabled>TRUE</enabled>
						<duration>2076</duration>
						<rate>
							<timebase>25</timebase>
							<ntsc>FALSE</ntsc>
						</rate>
						<start>4202</start>
						<end>4326</end>
						<in>256</in>
						<out>380</out>
						<pproTicksIn>2601123840000</pproTicksIn>
						<pproTicksOut>3861043200000</pproTicksOut>
						<alphatype>none</alphatype>
						<pixelaspectratio>square</pixelaspectratio>
						<anamorphic>FALSE</anamorphic>
						<file id="file-182">
							<name>AA262601.MXF</name>
							<pathurl>file://localhost/Volumes/Vaagen/Utveksling/Natur/Naturlig%20helaften%20fra%20Oslo/Copied_Copy%20of%20En%20Helaften%20MASTER_003/AA262601.MXF</pathurl>
							<rate>
								<timebase>25</timebase>
								<ntsc>FALSE</ntsc>
							</rate>
							<duration>2076</duration>
							<timecode>
								<rate>
									<timebase>25</timebase>
									<ntsc>FALSE</ntsc>
								</rate>
								<string>14:07:14:09</string>
								<frame>1270859</frame>
								<displayformat>NDF</displayformat>
								<reel>
									<name></name>
								</reel>
							</timecode>
							<media>
								<video>
									<samplecharacteristics>
										<rate>
											<timebase>25</timebase>
											<ntsc>FALSE</ntsc>
										</rate>
										<width>1920</width>
										<height>1080</height>
										<anamorphic>FALSE</anamorphic>
										<pixelaspectratio>square</pixelaspectratio>
										<fielddominance>none</fielddominance>
									</samplecharacteristics>
								</video>
								<audio>
									<samplecharacteristics>
										<depth>16</depth>
										<samplerate>48000</samplerate>
									</samplecharacteristics>
									<channelcount>2</channelcount>
								</audio>
							</media>
						</file>
						<link>
							<linkclipref>clipitem-269</linkclipref>
							<mediatype>video</mediatype>
							<trackindex>2</trackindex>
							<clipindex>13</clipindex>
						</link>
						<link>
							<linkclipref>clipitem-915</linkclipref>
							<mediatype>audio</mediatype>
							<trackindex>10</trackindex>
							<clipindex>8</clipindex>
							<groupindex>1</groupindex>
						</link>
						<link>
							<linkclipref>clipitem-1055</linkclipref>
							<mediatype>audio</mediatype>
							<trackindex>11</trackindex>
							<clipindex>8</clipindex>
							<groupindex>1</groupindex>
						</link>
						<logginginfo>
							<description></description>
							<scene></scene>
							<shottake></shottake>
							<lognote></lognote>
						</logginginfo>
						<labels>
							<label2>Iris</label2>
						</labels>
					</clipitem>
					<clipitem id="clipitem-270">
						<masterclipid>masterclip-24</masterclipid>
						<name>20160325171754.m2ts</name>
						<enabled>TRUE</enabled>
						<duration>4550</duration>
						<rate>
							<timebase>25</timebase>
							<ntsc>FALSE</ntsc>
						</rate>
						<start>4326</start>
						<end>4450</end>
						<in>2904</in>
						<out>3028</out>
						<pproTicksIn>29506498560000</pproTicksIn>
						<pproTicksOut>30766417920000</pproTicksOut>
						<alphatype>black</alphatype>
						<file id="file-24"/>
							<filter>
								<effect>
									<name>Distort</name>
									<effectid>deformation</effectid>
									<effectcategory>motion</effectcategory>
									<effecttype>motion</effecttype>
									<mediatype>video</mediatype>
									<parameter authoringApp="PremierePro">
										<parameterid>aspect</parameterid>
										<name>Aspect</name>
										<valuemin>-10000</valuemin>
										<valuemax>10000</valuemax>
										<value>-33.3333</value>
									</parameter>
								</effect>
							</filter>
							<filter>
								<effect>
									<name>Basic Motion</name>
									<effectid>basic</effectid>
									<effectcategory>motion</effectcategory>
									<effecttype>motion</effecttype>
									<mediatype>video</mediatype>
									<parameter authoringApp="PremierePro">
										<parameterid>scale</parameterid>
										<name>Scale</name>
										<value>133.333</value>
									</parameter>
								</effect>
							</filter>
						<link>
							<linkclipref>clipitem-270</linkclipref>
							<mediatype>video</mediatype>
							<trackindex>2</trackindex>
							<clipindex>14</clipindex>
						</link>
						<link>
							<linkclipref>clipitem-1359</linkclipref>
							<mediatype>audio</mediatype>
							<trackindex>14</trackindex>
							<clipindex>4</clipindex>
							<groupindex>1</groupindex>
						</link>
						<link>
							<linkclipref>clipitem-1391</linkclipref>
							<mediatype>audio</mediatype>
							<trackindex>15</trackindex>
							<clipindex>4</clipindex>
							<groupindex>1</groupindex>
						</link>
						<logginginfo>
							<description></description>
							<scene></scene>
							<shottake></shottake>
							<lognote></lognote>
						</logginginfo>
						<labels>
							<label2>Iris</label2>
						</labels>
					</clipitem>
					<clipitem id="clipitem-271">
						<masterclipid>masterclip-24</masterclipid>
						<name>20160325171754.m2ts</name>
						<enabled>TRUE</enabled>
						<duration>4550</duration>
						<rate>
							<timebase>25</timebase>
							<ntsc>FALSE</ntsc>
						</rate>
						<start>4654</start>
						<end>4820</end>
						<in>4262</in>
						<out>4428</out>
						<pproTicksIn>43304647680000</pproTicksIn>
						<pproTicksOut>44991313920000</pproTicksOut>
						<alphatype>black</alphatype>
						<file id="file-24"/>
							<filter>
								<effect>
									<name>Distort</name>
									<effectid>deformation</effectid>
									<effectcategory>motion</effectcategory>
									<effecttype>motion</effecttype>
									<mediatype>video</mediatype>
									<parameter authoringApp="PremierePro">
										<parameterid>aspect</parameterid>
										<name>Aspect</name>
										<valuemin>-10000</valuemin>
										<valuemax>10000</valuemax>
										<value>-33.3333</value>
									</parameter>
								</effect>
							</filter>
							<filter>
								<effect>
									<name>Basic Motion</name>
									<effectid>basic</effectid>
									<effectcategory>motion</effectcategory>
									<effecttype>motion</effecttype>
									<mediatype>video</mediatype>
									<parameter authoringApp="PremierePro">
										<parameterid>scale</parameterid>
										<name>Scale</name>
										<value>133.333</value>
									</parameter>
								</effect>
							</filter>
						<link>
							<linkclipref>clipitem-271</linkclipref>
							<mediatype>video</mediatype>
							<trackindex>2</trackindex>
							<clipindex>15</clipindex>
						</link>
						<link>
							<linkclipref>clipitem-1360</linkclipref>
							<mediatype>audio</mediatype>
							<trackindex>14</trackindex>
							<clipindex>5</clipindex>
							<groupindex>1</groupindex>
						</link>
						<link>
							<linkclipref>clipitem-1392</linkclipref>
							<mediatype>audio</mediatype>
							<trackindex>15</trackindex>
							<clipindex>5</clipindex>
							<groupindex>1</groupindex>
						</link>
						<logginginfo>
							<description></description>
							<scene></scene>
							<shottake></shottake>
							<lognote></lognote>
						</logginginfo>
						<labels>
							<label2>Iris</label2>
						</labels>
					</clipitem>
					<clipitem id="clipitem-272">
						<masterclipid>masterclip-183</masterclipid>
						<name>AA264001.MXF</name>
						<enabled>TRUE</enabled>
						<duration>1956</duration>
						<rate>
							<timebase>25</timebase>
							<ntsc>FALSE</ntsc>
						</rate>
						<start>5441</start>
						<end>5550</end>
						<in>535</in>
						<out>644</out>
						<pproTicksIn>5435942400000</pproTicksIn>
						<pproTicksOut>6543452160000</pproTicksOut>
						<alphatype>none</alphatype>
						<pixelaspectratio>square</pixelaspectratio>
						<anamorphic>FALSE</anamorphic>
						<file id="file-183">
							<name>AA264001.MXF</name>
							<pathurl>file://localhost/Volumes/Vaagen/Utveksling/Natur/Naturlig%20helaften%20fra%20Oslo/Copied_Copy%20of%20En%20Helaften%20MASTER_003/AA264001.MXF</pathurl>
							<rate>
								<timebase>25</timebase>
								<ntsc>FALSE</ntsc>
							</rate>
							<duration>1956</duration>
							<timecode>
								<rate>
									<timebase>25</timebase>
									<ntsc>FALSE</ntsc>
								</rate>
								<string>15:01:37:09</string>
								<frame>1352434</frame>
								<displayformat>NDF</displayformat>
								<reel>
									<name></name>
								</reel>
							</timecode>
							<media>
								<video>
									<samplecharacteristics>
										<rate>
											<timebase>25</timebase>
											<ntsc>FALSE</ntsc>
										</rate>
										<width>1920</width>
										<height>1080</height>
										<anamorphic>FALSE</anamorphic>
										<pixelaspectratio>square</pixelaspectratio>
										<fielddominance>none</fielddominance>
									</samplecharacteristics>
								</video>
								<audio>
									<samplecharacteristics>
										<depth>16</depth>
										<samplerate>48000</samplerate>
									</samplecharacteristics>
									<channelcount>2</channelcount>
								</audio>
							</media>
						</file>
						<logginginfo>
							<description></description>
							<scene></scene>
							<shottake></shottake>
							<lognote></lognote>
						</logginginfo>
						<labels>
							<label2>Iris</label2>
						</labels>
					</clipitem>
					<clipitem id="clipitem-273">
						<masterclipid>masterclip-184</masterclipid>
						<name>4 Mår vil ta dorullen på utedoen.mp4</name>
						<enabled>TRUE</enabled>
						<duration>778</duration>
						<rate>
							<timebase>25</timebase>
							<ntsc>FALSE</ntsc>
						</rate>
						<start>5962</start>
						<end>6181</end>
						<in>223</in>
						<out>442</out>
						<pproTicksIn>2265822720000</pproTicksIn>
						<pproTicksOut>4491002880000</pproTicksOut>
						<alphatype>black</alphatype>
						<pixelaspectratio>square</pixelaspectratio>
						<anamorphic>FALSE</anamorphic>
						<file id="file-184">
							<name>4 Mår vil ta dorullen på utedoen.mp4</name>
							<pathurl>file://localhost/Volumes/Vaagen/Utveksling/Natur/Naturlig%20helaften%20fra%20Oslo/Copied_Copy%20of%20En%20Helaften%20MASTER_003/4%20Ma%cc%8ar%20vil%20ta%20dorullen%20pa%cc%8a%20utedoen.mp4</pathurl>
							<rate>
								<timebase>30</timebase>
								<ntsc>TRUE</ntsc>
							</rate>
							<duration>933</duration>
							<timecode>
								<rate>
									<timebase>30</timebase>
									<ntsc>TRUE</ntsc>
								</rate>
								<string>00:00:00:00</string>
								<frame>0</frame>
								<displayformat>NDF</displayformat>
								<reel>
									<name></name>
								</reel>
							</timecode>
							<media>
								<video>
									<samplecharacteristics>
										<rate>
											<timebase>30</timebase>
											<ntsc>TRUE</ntsc>
										</rate>
										<width>960</width>
										<height>720</height>
										<anamorphic>FALSE</anamorphic>
										<pixelaspectratio>square</pixelaspectratio>
										<fielddominance>none</fielddominance>
									</samplecharacteristics>
								</video>
								<audio>
									<samplecharacteristics>
										<depth>16</depth>
										<samplerate>48000</samplerate>
									</samplecharacteristics>
									<channelcount>2</channelcount>
								</audio>
							</media>
						</file>
							<filter>
								<effect>
									<name>Basic Motion</name>
									<effectid>basic</effectid>
									<effectcategory>motion</effectcategory>
									<effecttype>motion</effecttype>
									<mediatype>video</mediatype>
									<parameter authoringApp="PremierePro">
										<parameterid>scale</parameterid>
										<name>Scale</name>
										<valuemin>0</valuemin>
										<valuemax>1000</valuemax>
										<value>136</value>
									</parameter>
									<parameter authoringApp="PremierePro">
										<parameterid>rotation</parameterid>
										<name>Rotation</name>
										<valuemin>-8640</valuemin>
										<valuemax>8640</valuemax>
										<value>0</value>
									</parameter>
									<parameter authoringApp="PremierePro">
										<parameterid>center</parameterid>
										<name>Center</name>
										<value>
											<horiz>0</horiz>
											<vert>0</vert>
										</value>
									</parameter>
									<parameter authoringApp="PremierePro">
										<parameterid>centerOffset</parameterid>
										<name>Anchor Point</name>
										<value>
											<horiz>0</horiz>
											<vert>0</vert>
										</value>
									</parameter>
								</effect>
							</filter>
						<link>
							<linkclipref>clipitem-273</linkclipref>
							<mediatype>video</mediatype>
							<trackindex>2</trackindex>
							<clipindex>17</clipindex>
						</link>
						<link>
							<linkclipref>clipitem-1206</linkclipref>
							<mediatype>audio</mediatype>
							<trackindex>12</trackindex>
							<clipindex>33</clipindex>
							<groupindex>1</groupindex>
						</link>
						<link>
							<linkclipref>clipitem-1291</linkclipref>
							<mediatype>audio</mediatype>
							<trackindex>13</trackindex>
							<clipindex>33</clipindex>
							<groupindex>1</groupindex>
						</link>
						<logginginfo>
							<description></description>
							<scene></scene>
							<shottake></shottake>
							<lognote></lognote>
						</logginginfo>
						<labels>
							<label2>Iris</label2>
						</labels>
					</clipitem>
					<clipitem id="clipitem-274">
						<masterclipid>masterclip-185</masterclipid>
						<name>AA263201.MXF</name>
						<enabled>TRUE</enabled>
						<duration>4740</duration>
						<rate>
							<timebase>25</timebase>
							<ntsc>FALSE</ntsc>
						</rate>
						<start>6181</start>
						<end>6318</end>
						<in>2513</in>
						<out>2650</out>
						<pproTicksIn>25533688320000</pproTicksIn>
						<pproTicksOut>26925696000000</pproTicksOut>
						<alphatype>none</alphatype>
						<pixelaspectratio>square</pixelaspectratio>
						<anamorphic>FALSE</anamorphic>
						<file id="file-185">
							<name>AA263201.MXF</name>
							<pathurl>file://localhost/Volumes/Vaagen/Utveksling/Natur/Naturlig%20helaften%20fra%20Oslo/Copied_Copy%20of%20En%20Helaften%20MASTER_003/AA263201.MXF</pathurl>
							<rate>
								<timebase>25</timebase>
								<ntsc>FALSE</ntsc>
							</rate>
							<duration>4740</duration>
							<timecode>
								<rate>
									<timebase>25</timebase>
									<ntsc>FALSE</ntsc>
								</rate>
								<string>14:35:15:16</string>
								<frame>1312891</frame>
								<displayformat>NDF</displayformat>
								<reel>
									<name></name>
								</reel>
							</timecode>
							<media>
								<video>
									<samplecharacteristics>
										<rate>
											<timebase>25</timebase>
											<ntsc>FALSE</ntsc>
										</rate>
										<width>1920</width>
										<height>1080</height>
										<anamorphic>FALSE</anamorphic>
										<pixelaspectratio>square</pixelaspectratio>
										<fielddominance>none</fielddominance>
									</samplecharacteristics>
								</video>
								<audio>
									<samplecharacteristics>
										<depth>16</depth>
										<samplerate>48000</samplerate>
									</samplecharacteristics>
									<channelcount>2</channelcount>
								</audio>
							</media>
						</file>
						<link>
							<linkclipref>clipitem-274</linkclipref>
							<mediatype>video</mediatype>
							<trackindex>2</trackindex>
							<clipindex>18</clipindex>
						</link>
						<link>
							<linkclipref>clipitem-922</linkclipref>
							<mediatype>audio</mediatype>
							<trackindex>10</trackindex>
							<clipindex>17</clipindex>
							<groupindex>1</groupindex>
						</link>
						<link>
							<linkclipref>clipitem-1062</linkclipref>
							<mediatype>audio</mediatype>
							<trackindex>11</trackindex>
							<clipindex>17</clipindex>
							<groupindex>1</groupindex>
						</link>
						<logginginfo>
							<description></description>
							<scene></scene>
							<shottake></shottake>
							<lognote></lognote>
						</logginginfo>
						<labels>
							<label2>Iris</label2>
						</labels>
					</clipitem>
					<clipitem id="clipitem-275">
						<masterclipid>masterclip-186</masterclipid>
						<name>AA263501.MXF</name>
						<enabled>TRUE</enabled>
						<duration>2556</duration>
						<rate>
							<timebase>25</timebase>
							<ntsc>FALSE</ntsc>
						</rate>
						<start>6318</start>
						<end>6495</end>
						<in>507</in>
						<out>684</out>
						<pproTicksIn>5151444480000</pproTicksIn>
						<pproTicksOut>6949877760000</pproTicksOut>
						<alphatype>none</alphatype>
						<pixelaspectratio>square</pixelaspectratio>
						<anamorphic>FALSE</anamorphic>
						<file id="file-186">
							<name>AA263501.MXF</name>
							<pathurl>file://localhost/Volumes/Vaagen/Utveksling/Natur/Naturlig%20helaften%20fra%20Oslo/Copied_Copy%20of%20En%20Helaften%20MASTER_003/AA263501.MXF</pathurl>
							<rate>
								<timebase>25</timebase>
								<ntsc>FALSE</ntsc>
							</rate>
							<duration>2556</duration>
							<timecode>
								<rate>
									<timebase>25</timebase>
									<ntsc>FALSE</ntsc>
								</rate>
								<string>14:46:34:02</string>
								<frame>1329852</frame>
								<displayformat>NDF</displayformat>
								<reel>
									<name></name>
								</reel>
							</timecode>
							<media>
								<video>
									<samplecharacteristics>
										<rate>
											<timebase>25</timebase>
											<ntsc>FALSE</ntsc>
										</rate>
										<width>1920</width>
										<height>1080</height>
										<anamorphic>FALSE</anamorphic>
										<pixelaspectratio>square</pixelaspectratio>
										<fielddominance>none</fielddominance>
									</samplecharacteristics>
								</video>
								<audio>
									<samplecharacteristics>
										<depth>16</depth>
										<samplerate>48000</samplerate>
									</samplecharacteristics>
									<channelcount>2</channelcount>
								</audio>
							</media>
						</file>
						<link>
							<linkclipref>clipitem-275</linkclipref>
							<mediatype>video</mediatype>
							<trackindex>2</trackindex>
							<clipindex>19</clipindex>
						</link>
						<link>
							<linkclipref>clipitem-923</linkclipref>
							<mediatype>audio</mediatype>
							<trackindex>10</trackindex>
							<clipindex>19</clipindex>
							<groupindex>1</groupindex>
						</link>
						<link>
							<linkclipref>clipitem-1063</linkclipref>
							<mediatype>audio</mediatype>
							<trackindex>11</trackindex>
							<clipindex>19</clipindex>
							<groupindex>1</groupindex>
						</link>
						<logginginfo>
							<description></description>
							<scene></scene>
							<shottake></shottake>
							<lognote></lognote>
						</logginginfo>
						<labels>
							<label2>Iris</label2>
						</labels>
					</clipitem>
					<clipitem id="clipitem-276">
						<masterclipid>masterclip-185</masterclipid>
						<name>AA263201.MXF</name>
						<enabled>TRUE</enabled>
						<duration>4740</duration>
						<rate>
							<timebase>25</timebase>
							<ntsc>FALSE</ntsc>
						</rate>
						<start>6495</start>
						<end>6767</end>
						<in>3116</in>
						<out>3388</out>
						<pproTicksIn>31660554240000</pproTicksIn>
						<pproTicksOut>34424248320000</pproTicksOut>
						<alphatype>none</alphatype>
						<file id="file-185"/>
						<link>
							<linkclipref>clipitem-276</linkclipref>
							<mediatype>video</mediatype>
							<trackindex>2</trackindex>
							<clipindex>20</clipindex>
						</link>
						<link>
							<linkclipref>clipitem-924</linkclipref>
							<mediatype>audio</mediatype>
							<trackindex>10</trackindex>
							<clipindex>20</clipindex>
							<groupindex>1</groupindex>
						</link>
						<link>
							<linkclipref>clipitem-1064</linkclipref>
							<mediatype>audio</mediatype>
							<trackindex>11</trackindex>
							<clipindex>20</clipindex>
							<groupindex>1</groupindex>
						</link>
						<logginginfo>
							<description></description>
							<scene></scene>
							<shottake></shottake>
							<lognote></lognote>
						</logginginfo>
						<labels>
							<label2>Iris</label2>
						</labels>
					</clipitem>
					<clipitem id="clipitem-277">
						<masterclipid>masterclip-185</masterclipid>
						<name>AA263201.MXF</name>
						<enabled>TRUE</enabled>
						<duration>4740</duration>
						<rate>
							<timebase>25</timebase>
							<ntsc>FALSE</ntsc>
						</rate>
						<start>6767</start>
						<end>6954</end>
						<in>4275</in>
						<out>4462</out>
						<pproTicksIn>43436736000000</pproTicksIn>
						<pproTicksOut>45336775680000</pproTicksOut>
						<alphatype>none</alphatype>
						<file id="file-185"/>
						<logginginfo>
							<description></description>
							<scene></scene>
							<shottake></shottake>
							<lognote></lognote>
						</logginginfo>
						<labels>
							<label2>Iris</label2>
						</labels>
					</clipitem>
					<clipitem id="clipitem-278">
						<masterclipid>masterclip-187</masterclipid>
						<name>Måren vil ut av vedboden rediget.mp4</name>
						<enabled>TRUE</enabled>
						<duration>2600</duration>
						<rate>
							<timebase>25</timebase>
							<ntsc>FALSE</ntsc>
						</rate>
						<start>6954</start>
						<end>7146</end>
						<in>2058</in>
						<out>2250</out>
						<pproTicksIn>20910597120000</pproTicksIn>
						<pproTicksOut>22861440000000</pproTicksOut>
						<alphatype>black</alphatype>
						<pixelaspectratio>square</pixelaspectratio>
						<anamorphic>FALSE</anamorphic>
						<file id="file-187">
							<name>Måren vil ut av vedboden rediget.mp4</name>
							<pathurl>file://localhost/Volumes/Vaagen/Utveksling/Natur/Naturlig%20helaften%20fra%20Oslo/Copied_Copy%20of%20En%20Helaften%20MASTER_003/Ma%cc%8aren%20vil%20ut%20av%20vedboden%20rediget.mp4</pathurl>
							<rate>
								<timebase>30</timebase>
								<ntsc>TRUE</ntsc>
							</rate>
							<duration>3118</duration>
							<timecode>
								<rate>
									<timebase>30</timebase>
									<ntsc>TRUE</ntsc>
								</rate>
								<string>00:00:00:00</string>
								<frame>0</frame>
								<displayformat>NDF</displayformat>
								<reel>
									<name></name>
								</reel>
							</timecode>
							<media>
								<video>
									<samplecharacteristics>
										<rate>
											<timebase>30</timebase>
											<ntsc>TRUE</ntsc>
										</rate>
										<width>960</width>
										<height>720</height>
										<anamorphic>FALSE</anamorphic>
										<pixelaspectratio>square</pixelaspectratio>
										<fielddominance>none</fielddominance>
									</samplecharacteristics>
								</video>
								<audio>
									<samplecharacteristics>
										<depth>16</depth>
										<samplerate>48000</samplerate>
									</samplecharacteristics>
									<channelcount>2</channelcount>
								</audio>
							</media>
						</file>
							<filter>
								<effect>
									<name>Basic Motion</name>
									<effectid>basic</effectid>
									<effectcategory>motion</effectcategory>
									<effecttype>motion</effecttype>
									<mediatype>video</mediatype>
									<parameter authoringApp="PremierePro">
										<parameterid>scale</parameterid>
										<name>Scale</name>
										<valuemin>0</valuemin>
										<valuemax>1000</valuemax>
										<value>137</value>
									</parameter>
									<parameter authoringApp="PremierePro">
										<parameterid>rotation</parameterid>
										<name>Rotation</name>
										<valuemin>-8640</valuemin>
										<valuemax>8640</valuemax>
										<value>0</value>
									</parameter>
									<parameter authoringApp="PremierePro">
										<parameterid>center</parameterid>
										<name>Center</name>
										<value>
											<horiz>0</horiz>
											<vert>0</vert>
										</value>
									</parameter>
									<parameter authoringApp="PremierePro">
										<parameterid>centerOffset</parameterid>
										<name>Anchor Point</name>
										<value>
											<horiz>0</horiz>
											<vert>0</vert>
										</value>
									</parameter>
								</effect>
							</filter>
						<link>
							<linkclipref>clipitem-278</linkclipref>
							<mediatype>video</mediatype>
							<trackindex>2</trackindex>
							<clipindex>22</clipindex>
						</link>
						<link>
							<linkclipref>clipitem-1363</linkclipref>
							<mediatype>audio</mediatype>
							<trackindex>14</trackindex>
							<clipindex>8</clipindex>
							<groupindex>1</groupindex>
						</link>
						<link>
							<linkclipref>clipitem-1395</linkclipref>
							<mediatype>audio</mediatype>
							<trackindex>15</trackindex>
							<clipindex>8</clipindex>
							<groupindex>1</groupindex>
						</link>
						<logginginfo>
							<description></description>
							<scene></scene>
							<shottake></shottake>
							<lognote></lognote>
						</logginginfo>
						<labels>
							<label2>Iris</label2>
						</labels>
					</clipitem>
					<clipitem id="clipitem-279">
						<masterclipid>masterclip-28</masterclipid>
						<name>MVI_3628_1.mov</name>
						<enabled>TRUE</enabled>
						<duration>1153</duration>
						<rate>
							<timebase>25</timebase>
							<ntsc>FALSE</ntsc>
						</rate>
						<start>8964</start>
						<end>9211</end>
						<in>438</in>
						<out>685</out>
						<pproTicksIn>4450360320000</pproTicksIn>
						<pproTicksOut>6960038400000</pproTicksOut>
						<alphatype>none</alphatype>
						<file id="file-28"/>
							<filter>
								<effect>
									<name>Crop</name>
									<effectid>crop</effectid>
									<effectcategory>motion</effectcategory>
									<effecttype>motion</effecttype>
									<mediatype>video</mediatype>
									<parameter authoringApp="PremierePro">
										<parameterid>left</parameterid>
										<name>left</name>
										<valuemin>0</valuemin>
										<valuemax>100</valuemax>
										<value>12.616</value>
									</parameter>
									<parameter authoringApp="PremierePro">
										<parameterid>right</parameterid>
										<name>right</name>
										<valuemin>0</valuemin>
										<valuemax>100</valuemax>
										<value>12.616</value>
									</parameter>
									<parameter authoringApp="PremierePro">
										<parameterid>top</parameterid>
										<name>top</name>
										<valuemin>0</valuemin>
										<valuemax>100</valuemax>
										<value>0</value>
									</parameter>
									<parameter authoringApp="PremierePro">
										<parameterid>bottom</parameterid>
										<name>bottom</name>
										<valuemin>0</valuemin>
										<valuemax>100</valuemax>
										<value>0</value>
									</parameter>
								</effect>
							</filter>
						<logginginfo>
							<description></description>
							<scene></scene>
							<shottake></shottake>
							<lognote></lognote>
						</logginginfo>
						<labels>
							<label2>Iris</label2>
						</labels>
					</clipitem>
					<clipitem id="clipitem-280">
						<masterclipid>masterclip-30</masterclipid>
						<name>2015-12-19 11.39.19.mp4</name>
						<enabled>TRUE</enabled>
						<duration>2636</duration>
						<rate>
							<timebase>25</timebase>
							<ntsc>FALSE</ntsc>
						</rate>
						<start>10500</start>
						<end>11196</end>
						<in>9</in>
						<out>705</out>
						<pproTicksIn>91445760000</pproTicksIn>
						<pproTicksOut>7163251200000</pproTicksOut>
						<alphatype>black</alphatype>
						<file id="file-30"/>
							<filter>
								<effect>
									<name>Basic Motion</name>
									<effectid>basic</effectid>
									<effectcategory>motion</effectcategory>
									<effecttype>motion</effecttype>
									<mediatype>video</mediatype>
									<parameter authoringApp="PremierePro">
										<parameterid>scale</parameterid>
										<name>Scale</name>
										<valuemin>0</valuemin>
										<valuemax>1000</valuemax>
										<value>163</value>
									</parameter>
									<parameter authoringApp="PremierePro">
										<parameterid>rotation</parameterid>
										<name>Rotation</name>
										<valuemin>-8640</valuemin>
										<valuemax>8640</valuemax>
										<value>0</value>
									</parameter>
									<parameter authoringApp="PremierePro">
										<parameterid>center</parameterid>
										<name>Center</name>
										<value>
											<horiz>0</horiz>
											<vert>0.0270833</vert>
										</value>
									</parameter>
									<parameter authoringApp="PremierePro">
										<parameterid>centerOffset</parameterid>
										<name>Anchor Point</name>
										<value>
											<horiz>0</horiz>
											<vert>0</vert>
										</value>
									</parameter>
								</effect>
							</filter>
							<filter>
								<effect>
									<name>Gaussian Blur</name>
									<effectid>Gaussian Blur</effectid>
									<effectcategory>Blur</effectcategory>
									<effecttype>motion</effecttype>
									<mediatype>video</mediatype>
									<parameter authoringApp="PremierePro">
										<parameterid>radius</parameterid>
										<name>Radius</name>
										<valuemin>0</valuemin>
										<valuemax>100</valuemax>
										<value>0</value>
									</parameter>
								</effect>
							</filter>
							<marker>
								<comment></comment>
								<name></name>
								<in>1131</in>
								<out>-1</out>
							</marker>
							<marker>
								<comment></comment>
								<name></name>
								<in>667</in>
								<out>-1</out>
							</marker>
						<logginginfo>
							<description></description>
							<scene></scene>
							<shottake></shottake>
							<lognote></lognote>
						</logginginfo>
						<labels>
							<label2>Iris</label2>
						</labels>
					</clipitem>
					<clipitem id="clipitem-281">
						<masterclipid>masterclip-188</masterclipid>
						<name>delfin-191016-2004.mxf</name>
						<enabled>TRUE</enabled>
						<duration>241</duration>
						<rate>
							<timebase>25</timebase>
							<ntsc>FALSE</ntsc>
						</rate>
						<start>11196</start>
						<end>11357</end>
						<in>25</in>
						<out>186</out>
						<pproTicksIn>254016000000</pproTicksIn>
						<pproTicksOut>1889879040000</pproTicksOut>
						<alphatype>none</alphatype>
						<pixelaspectratio>square</pixelaspectratio>
						<anamorphic>FALSE</anamorphic>
						<file id="file-188">
							<name>delfin-191016-2004.mxf</name>
							<pathurl>file://localhost/Volumes/Vaagen/Utveksling/Natur/Naturlig%20helaften%20fra%20Oslo/Transcoded_Copy%20of%20En%20Helaften%20MASTER/delfin-191016-2004.mxf</pathurl>
							<rate>
								<timebase>25</timebase>
								<ntsc>FALSE</ntsc>
							</rate>
							<duration>241</duration>
							<timecode>
								<rate>
									<timebase>25</timebase>
									<ntsc>FALSE</ntsc>
								</rate>
								<string>09:29:42:13</string>
								<frame>854563</frame>
								<displayformat>NDF</displayformat>
								<reel>
									<name></name>
								</reel>
							</timecode>
							<media>
								<video>
									<samplecharacteristics>
										<rate>
											<timebase>25</timebase>
											<ntsc>FALSE</ntsc>
										</rate>
										<width>1920</width>
										<height>1080</height>
										<anamorphic>FALSE</anamorphic>
										<pixelaspectratio>square</pixelaspectratio>
										<fielddominance>upper</fielddominance>
									</samplecharacteristics>
								</video>
								<audio>
									<samplecharacteristics>
										<depth>16</depth>
										<samplerate>48000</samplerate>
									</samplecharacteristics>
									<channelcount>8</channelcount>
								</audio>
							</media>
						</file>
						<link>
							<linkclipref>clipitem-281</linkclipref>
							<mediatype>video</mediatype>
							<trackindex>2</trackindex>
							<clipindex>25</clipindex>
						</link>
						<link>
							<linkclipref>clipitem-515</linkclipref>
							<mediatype>audio</mediatype>
							<trackindex>1</trackindex>
							<clipindex>11</clipindex>
							<groupindex>1</groupindex>
						</link>
						<link>
							<linkclipref>clipitem-608</linkclipref>
							<mediatype>audio</mediatype>
							<trackindex>3</trackindex>
							<clipindex>11</clipindex>
							<groupindex>1</groupindex>
						</link>
						<link>
							<linkclipref>clipitem-665</linkclipref>
							<mediatype>audio</mediatype>
							<trackindex>5</trackindex>
							<clipindex>2</clipindex>
							<groupindex>1</groupindex>
						</link>
						<link>
							<linkclipref>clipitem-695</linkclipref>
							<mediatype>audio</mediatype>
							<trackindex>7</trackindex>
							<clipindex>1</clipindex>
							<groupindex>1</groupindex>
						</link>
						<logginginfo>
							<description></description>
							<scene></scene>
							<shottake></shottake>
							<lognote></lognote>
						</logginginfo>
						<labels>
							<label2>Iris</label2>
						</labels>
					</clipitem>
					<clipitem id="clipitem-282">
						<masterclipid>masterclip-30</masterclipid>
						<name>2015-12-19 11.39.19.mp4</name>
						<enabled>TRUE</enabled>
						<duration>2636</duration>
						<rate>
							<timebase>25</timebase>
							<ntsc>FALSE</ntsc>
						</rate>
						<start>13337</start>
						<end>13517</end>
						<in>1238</in>
						<out>1418</out>
						<pproTicksIn>12578872320000</pproTicksIn>
						<pproTicksOut>14407787520000</pproTicksOut>
						<alphatype>black</alphatype>
						<file id="file-30"/>
							<filter>
								<effect>
									<name>Basic Motion</name>
									<effectid>basic</effectid>
									<effectcategory>motion</effectcategory>
									<effecttype>motion</effecttype>
									<mediatype>video</mediatype>
									<parameter authoringApp="PremierePro">
										<parameterid>scale</parameterid>
										<name>Scale</name>
										<valuemin>0</valuemin>
										<valuemax>1000</valuemax>
										<value>325</value>
									</parameter>
									<parameter authoringApp="PremierePro">
										<parameterid>rotation</parameterid>
										<name>Rotation</name>
										<valuemin>-8640</valuemin>
										<valuemax>8640</valuemax>
										<value>0</value>
									</parameter>
									<parameter authoringApp="PremierePro">
										<parameterid>center</parameterid>
										<name>Center</name>
										<value>
											<horiz>0</horiz>
											<vert>0</vert>
										</value>
									</parameter>
									<parameter authoringApp="PremierePro">
										<parameterid>centerOffset</parameterid>
										<name>Anchor Point</name>
										<value>
											<horiz>0</horiz>
											<vert>0</vert>
										</value>
									</parameter>
								</effect>
							</filter>
							<filter>
								<effect>
									<name>Opacity</name>
									<effectid>opacity</effectid>
									<effectcategory>motion</effectcategory>
									<effecttype>motion</effecttype>
									<mediatype>video</mediatype>
									<parameter authoringApp="PremierePro">
										<parameterid>opacity</parameterid>
										<name>opacity</name>
										<valuemin>0</valuemin>
										<valuemax>100</valuemax>
										<value>100</value>
										<keyframe>
											<when>-28456</when>
											<value>60</value>
										</keyframe>
										<keyframe>
											<when>1256</when>
											<value>25</value>
										</keyframe>
									</parameter>
								</effect>
							</filter>
							<filter>
								<effect>
									<name>Gaussian Blur</name>
									<effectid>Gaussian Blur</effectid>
									<effectcategory>Blur</effectcategory>
									<effecttype>motion</effecttype>
									<mediatype>video</mediatype>
									<parameter authoringApp="PremierePro">
										<parameterid>radius</parameterid>
										<name>Radius</name>
										<valuemin>0</valuemin>
										<valuemax>100</valuemax>
										<value>0</value>
									</parameter>
								</effect>
							</filter>
							<marker>
								<comment></comment>
								<name></name>
								<in>1131</in>
								<out>-1</out>
							</marker>
							<marker>
								<comment></comment>
								<name></name>
								<in>667</in>
								<out>-1</out>
							</marker>
						<link>
							<linkclipref>clipitem-282</linkclipref>
							<mediatype>video</mediatype>
							<trackindex>2</trackindex>
							<clipindex>26</clipindex>
						</link>
						<link>
							<linkclipref>clipitem-733</linkclipref>
							<mediatype>audio</mediatype>
							<trackindex>8</trackindex>
							<clipindex>20</clipindex>
							<groupindex>1</groupindex>
						</link>
						<link>
							<linkclipref>clipitem-829</linkclipref>
							<mediatype>audio</mediatype>
							<trackindex>9</trackindex>
							<clipindex>20</clipindex>
							<groupindex>1</groupindex>
						</link>
						<logginginfo>
							<description></description>
							<scene></scene>
							<shottake></shottake>
							<lognote></lognote>
						</logginginfo>
						<labels>
							<label2>Iris</label2>
						</labels>
					</clipitem>
					<clipitem id="clipitem-283">
						<masterclipid>masterclip-189</masterclipid>
						<name>delfin-191016-2016.mxf</name>
						<enabled>TRUE</enabled>
						<duration>102</duration>
						<rate>
							<timebase>25</timebase>
							<ntsc>FALSE</ntsc>
						</rate>
						<start>13661</start>
						<end>13719</end>
						<in>25</in>
						<out>83</out>
						<pproTicksIn>254016000000</pproTicksIn>
						<pproTicksOut>843333120000</pproTicksOut>
						<alphatype>none</alphatype>
						<pixelaspectratio>square</pixelaspectratio>
						<anamorphic>FALSE</anamorphic>
						<file id="file-189">
							<name>delfin-191016-2016_003.mxf</name>
							<pathurl>file://localhost/Volumes/Vaagen/Utveksling/Natur/Naturlig%20helaften%20fra%20Oslo/Transcoded_Copy%20of%20En%20Helaften%20MASTER/delfin-191016-2016_003.mxf</pathurl>
							<rate>
								<timebase>25</timebase>
								<ntsc>FALSE</ntsc>
							</rate>
							<duration>102</duration>
							<timecode>
								<rate>
									<timebase>25</timebase>
									<ntsc>FALSE</ntsc>
								</rate>
								<string>10:54:29:07</string>
								<frame>981732</frame>
								<displayformat>NDF</displayformat>
								<reel>
									<name></name>
								</reel>
							</timecode>
							<media>
								<video>
									<samplecharacteristics>
										<rate>
											<timebase>25</timebase>
											<ntsc>FALSE</ntsc>
										</rate>
										<width>1920</width>
										<height>1080</height>
										<anamorphic>FALSE</anamorphic>
										<pixelaspectratio>square</pixelaspectratio>
										<fielddominance>upper</fielddominance>
									</samplecharacteristics>
								</video>
							</media>
						</file>
						<logginginfo>
							<description></description>
							<scene></scene>
							<shottake></shottake>
							<lognote></lognote>
						</logginginfo>
						<labels>
							<label2>Iris</label2>
						</labels>
					</clipitem>
					<clipitem id="clipitem-284">
						<masterclipid>masterclip-190</masterclipid>
						<name>delfin-191016-2017.mxf</name>
						<enabled>TRUE</enabled>
						<duration>116</duration>
						<rate>
							<timebase>25</timebase>
							<ntsc>FALSE</ntsc>
						</rate>
						<start>14656</start>
						<end>14722</end>
						<in>25</in>
						<out>91</out>
						<pproTicksIn>254016000000</pproTicksIn>
						<pproTicksOut>924618240000</pproTicksOut>
						<alphatype>none</alphatype>
						<pixelaspectratio>square</pixelaspectratio>
						<anamorphic>FALSE</anamorphic>
						<file id="file-190">
							<name>delfin-191016-2017_005.mxf</name>
							<pathurl>file://localhost/Volumes/Vaagen/Utveksling/Natur/Naturlig%20helaften%20fra%20Oslo/Transcoded_Copy%20of%20En%20Helaften%20MASTER/delfin-191016-2017_005.mxf</pathurl>
							<rate>
								<timebase>25</timebase>
								<ntsc>FALSE</ntsc>
							</rate>
							<duration>116</duration>
							<timecode>
								<rate>
									<timebase>25</timebase>
									<ntsc>FALSE</ntsc>
								</rate>
								<string>11:04:43:09</string>
								<frame>997084</frame>
								<displayformat>NDF</displayformat>
								<reel>
									<name></name>
								</reel>
							</timecode>
							<media>
								<video>
									<samplecharacteristics>
										<rate>
											<timebase>25</timebase>
											<ntsc>FALSE</ntsc>
										</rate>
										<width>1920</width>
										<height>1080</height>
										<anamorphic>FALSE</anamorphic>
										<pixelaspectratio>square</pixelaspectratio>
										<fielddominance>upper</fielddominance>
									</samplecharacteristics>
								</video>
							</media>
						</file>
						<logginginfo>
							<description></description>
							<scene></scene>
							<shottake></shottake>
							<lognote></lognote>
						</logginginfo>
						<labels>
							<label2>Iris</label2>
						</labels>
					</clipitem>
					<clipitem id="clipitem-285">
						<masterclipid>masterclip-30</masterclipid>
						<name>2015-12-19 11.39.19.mp4</name>
						<enabled>TRUE</enabled>
						<duration>2636</duration>
						<rate>
							<timebase>25</timebase>
							<ntsc>FALSE</ntsc>
						</rate>
						<start>14722</start>
						<end>15155</end>
						<in>2090</in>
						<out>2523</out>
						<pproTicksIn>21235737600000</pproTicksIn>
						<pproTicksOut>25635294720000</pproTicksOut>
						<alphatype>black</alphatype>
						<file id="file-30"/>
							<filter>
								<effect>
									<name>Basic Motion</name>
									<effectid>basic</effectid>
									<effectcategory>motion</effectcategory>
									<effecttype>motion</effecttype>
									<mediatype>video</mediatype>
									<parameter authoringApp="PremierePro">
										<parameterid>scale</parameterid>
										<name>Scale</name>
										<valuemin>0</valuemin>
										<valuemax>1000</valuemax>
										<value>325</value>
									</parameter>
									<parameter authoringApp="PremierePro">
										<parameterid>rotation</parameterid>
										<name>Rotation</name>
										<valuemin>-8640</valuemin>
										<valuemax>8640</valuemax>
										<value>0</value>
									</parameter>
									<parameter authoringApp="PremierePro">
										<parameterid>center</parameterid>
										<name>Center</name>
										<value>
											<horiz>0</horiz>
											<vert>0</vert>
										</value>
									</parameter>
									<parameter authoringApp="PremierePro">
										<parameterid>centerOffset</parameterid>
										<name>Anchor Point</name>
										<value>
											<horiz>0</horiz>
											<vert>0</vert>
										</value>
									</parameter>
								</effect>
							</filter>
							<filter>
								<effect>
									<name>Opacity</name>
									<effectid>opacity</effectid>
									<effectcategory>motion</effectcategory>
									<effecttype>motion</effecttype>
									<mediatype>video</mediatype>
									<parameter authoringApp="PremierePro">
										<parameterid>opacity</parameterid>
										<name>opacity</name>
										<valuemin>0</valuemin>
										<valuemax>100</valuemax>
										<value>100</value>
										<keyframe>
											<when>-59324</when>
											<value>60</value>
										</keyframe>
										<keyframe>
											<when>2127</when>
											<value>25</value>
										</keyframe>
									</parameter>
								</effect>
							</filter>
							<filter>
								<effect>
									<name>Gaussian Blur</name>
									<effectid>Gaussian Blur</effectid>
									<effectcategory>Blur</effectcategory>
									<effecttype>motion</effecttype>
									<mediatype>video</mediatype>
									<parameter authoringApp="PremierePro">
										<parameterid>radius</parameterid>
										<name>Radius</name>
										<valuemin>0</valuemin>
										<valuemax>100</valuemax>
										<value>0</value>
									</parameter>
								</effect>
							</filter>
							<marker>
								<comment></comment>
								<name></name>
								<in>1131</in>
								<out>-1</out>
							</marker>
							<marker>
								<comment></comment>
								<name></name>
								<in>667</in>
								<out>-1</out>
							</marker>
						<link>
							<linkclipref>clipitem-285</linkclipref>
							<mediatype>video</mediatype>
							<trackindex>2</trackindex>
							<clipindex>29</clipindex>
						</link>
						<link>
							<linkclipref>clipitem-734</linkclipref>
							<mediatype>audio</mediatype>
							<trackindex>8</trackindex>
							<clipindex>22</clipindex>
							<groupindex>1</groupindex>
						</link>
						<link>
							<linkclipref>clipitem-830</linkclipref>
							<mediatype>audio</mediatype>
							<trackindex>9</trackindex>
							<clipindex>22</clipindex>
							<groupindex>1</groupindex>
						</link>
						<logginginfo>
							<description></description>
							<scene></scene>
							<shottake></shottake>
							<lognote></lognote>
						</logginginfo>
						<labels>
							<label2>Iris</label2>
						</labels>
					</clipitem>
					<clipitem id="clipitem-286">
						<masterclipid>masterclip-30</masterclipid>
						<name>2015-12-19 11.39.19.mp4</name>
						<enabled>TRUE</enabled>
						<duration>2636</duration>
						<rate>
							<timebase>25</timebase>
							<ntsc>FALSE</ntsc>
						</rate>
						<start>16230</start>
						<end>16449</end>
						<in>1905</in>
						<out>2124</out>
						<pproTicksIn>19356019200000</pproTicksIn>
						<pproTicksOut>21581199360000</pproTicksOut>
						<alphatype>black</alphatype>
						<file id="file-30"/>
							<filter>
								<effect>
									<name>Basic Motion</name>
									<effectid>basic</effectid>
									<effectcategory>motion</effectcategory>
									<effecttype>motion</effecttype>
									<mediatype>video</mediatype>
									<parameter authoringApp="PremierePro">
										<parameterid>scale</parameterid>
										<name>Scale</name>
										<valuemin>0</valuemin>
										<valuemax>1000</valuemax>
										<value>163</value>
									</parameter>
									<parameter authoringApp="PremierePro">
										<parameterid>rotation</parameterid>
										<name>Rotation</name>
										<valuemin>-8640</valuemin>
										<valuemax>8640</valuemax>
										<value>0</value>
									</parameter>
									<parameter authoringApp="PremierePro">
										<parameterid>center</parameterid>
										<name>Center</name>
										<value>
											<horiz>0</horiz>
											<vert>0.0270833</vert>
										</value>
									</parameter>
									<parameter authoringApp="PremierePro">
										<parameterid>centerOffset</parameterid>
										<name>Anchor Point</name>
										<value>
											<horiz>0</horiz>
											<vert>0</vert>
										</value>
									</parameter>
								</effect>
							</filter>
							<filter>
								<effect>
									<name>Gaussian Blur</name>
									<effectid>Gaussian Blur</effectid>
									<effectcategory>Blur</effectcategory>
									<effecttype>motion</effecttype>
									<mediatype>video</mediatype>
									<parameter authoringApp="PremierePro">
										<parameterid>radius</parameterid>
										<name>Radius</name>
										<valuemin>0</valuemin>
										<valuemax>100</valuemax>
										<value>0</value>
									</parameter>
								</effect>
							</filter>
							<marker>
								<comment></comment>
								<name></name>
								<in>1131</in>
								<out>-1</out>
							</marker>
							<marker>
								<comment></comment>
								<name></name>
								<in>667</in>
								<out>-1</out>
							</marker>
						<logginginfo>
							<description></description>
							<scene></scene>
							<shottake></shottake>
							<lognote></lognote>
						</logginginfo>
						<labels>
							<label2>Iris</label2>
						</labels>
					</clipitem>
					<clipitem id="clipitem-287">
						<masterclipid>masterclip-18</masterclipid>
						<name>Sanser.mov</name>
						<enabled>TRUE</enabled>
						<duration>58716</duration>
						<rate>
							<timebase>25</timebase>
							<ntsc>FALSE</ntsc>
						</rate>
						<start>16475</start>
						<end>18048</end>
						<in>7363</in>
						<out>8936</out>
						<pproTicksIn>74812792320000</pproTicksIn>
						<pproTicksOut>90795479040000</pproTicksOut>
						<alphatype>none</alphatype>
						<file id="file-18"/>
						<logginginfo>
							<description></description>
							<scene></scene>
							<shottake></shottake>
							<lognote></lognote>
						</logginginfo>
						<labels>
							<label2>Caribbean</label2>
						</labels>
					</clipitem>
					<clipitem id="clipitem-288">
						<masterclipid>masterclip-18</masterclipid>
						<name>Sanser.mov</name>
						<enabled>TRUE</enabled>
						<duration>58716</duration>
						<rate>
							<timebase>25</timebase>
							<ntsc>FALSE</ntsc>
						</rate>
						<start>18090</start>
						<end>19577</end>
						<in>31148</in>
						<out>32635</out>
						<pproTicksIn>316483614720000</pproTicksIn>
						<pproTicksOut>331592486400000</pproTicksOut>
						<alphatype>none</alphatype>
						<file id="file-18"/>
						<logginginfo>
							<description></description>
							<scene></scene>
							<shottake></shottake>
							<lognote></lognote>
						</logginginfo>
						<labels>
							<label2>Caribbean</label2>
						</labels>
					</clipitem>
					<clipitem id="clipitem-289">
						<masterclipid>masterclip-47</masterclipid>
						<name>IMG_4222.mp4</name>
						<enabled>TRUE</enabled>
						<duration>222</duration>
						<rate>
							<timebase>25</timebase>
							<ntsc>FALSE</ntsc>
						</rate>
						<start>19614</start>
						<end>19748</end>
						<in>0</in>
						<out>134</out>
						<pproTicksIn>0</pproTicksIn>
						<pproTicksOut>1361525760000</pproTicksOut>
						<alphatype>black</alphatype>
						<file id="file-47"/>
							<filter>
								<effect>
									<name>Basic Motion</name>
									<effectid>basic</effectid>
									<effectcategory>motion</effectcategory>
									<effecttype>motion</effecttype>
									<mediatype>video</mediatype>
									<parameter authoringApp="PremierePro">
										<parameterid>scale</parameterid>
										<name>Scale</name>
										<valuemin>0</valuemin>
										<valuemax>1000</valuemax>
										<value>163</value>
									</parameter>
									<parameter authoringApp="PremierePro">
										<parameterid>rotation</parameterid>
										<name>Rotation</name>
										<valuemin>-8640</valuemin>
										<valuemax>8640</valuemax>
										<value>0</value>
									</parameter>
									<parameter authoringApp="PremierePro">
										<parameterid>center</parameterid>
										<name>Center</name>
										<value>
											<horiz>0</horiz>
											<vert>0.23125</vert>
										</value>
									</parameter>
									<parameter authoringApp="PremierePro">
										<parameterid>centerOffset</parameterid>
										<name>Anchor Point</name>
										<value>
											<horiz>0</horiz>
											<vert>0</vert>
										</value>
									</parameter>
								</effect>
							</filter>
							<filter>
								<effect>
									<name>Gaussian Blur</name>
									<effectid>Gaussian Blur</effectid>
									<effectcategory>Blur</effectcategory>
									<effecttype>motion</effecttype>
									<mediatype>video</mediatype>
									<parameter authoringApp="PremierePro">
										<parameterid>radius</parameterid>
										<name>Radius</name>
										<valuemin>0</valuemin>
										<valuemax>100</valuemax>
										<value>0</value>
									</parameter>
								</effect>
							</filter>
						<logginginfo>
							<description></description>
							<scene></scene>
							<shottake></shottake>
							<lognote></lognote>
						</logginginfo>
						<labels>
							<label2>Iris</label2>
						</labels>
					</clipitem>
					<clipitem id="clipitem-290">
						<masterclipid>masterclip-49</masterclipid>
						<name>20160520_075448.mp4</name>
						<enabled>TRUE</enabled>
						<duration>5580</duration>
						<rate>
							<timebase>25</timebase>
							<ntsc>FALSE</ntsc>
						</rate>
						<start>19978</start>
						<end>20156</end>
						<in>1955</in>
						<out>2133</out>
						<pproTicksIn>19864051200000</pproTicksIn>
						<pproTicksOut>21672645120000</pproTicksOut>
						<alphatype>black</alphatype>
						<file id="file-49"/>
							<filter>
								<effect>
									<name>Basic Motion</name>
									<effectid>basic</effectid>
									<effectcategory>motion</effectcategory>
									<effecttype>motion</effecttype>
									<mediatype>video</mediatype>
									<parameter authoringApp="PremierePro">
										<parameterid>scale</parameterid>
										<name>Scale</name>
										<valuemin>0</valuemin>
										<valuemax>1000</valuemax>
										<value>163</value>
									</parameter>
									<parameter authoringApp="PremierePro">
										<parameterid>rotation</parameterid>
										<name>Rotation</name>
										<valuemin>-8640</valuemin>
										<valuemax>8640</valuemax>
										<value>0</value>
									</parameter>
									<parameter authoringApp="PremierePro">
										<parameterid>center</parameterid>
										<name>Center</name>
										<value>
											<horiz>0</horiz>
											<vert>0.0270833</vert>
										</value>
										<keyframe>
											<when>1962</when>
											<value>
												<horiz>0</horiz>
												<vert>0.0270833</vert>
											</value>
										</keyframe>
										<keyframe>
											<when>2053</when>
											<value>
												<horiz>0</horiz>
												<vert>0.0239583</vert>
											</value>
										</keyframe>
										<keyframe>
											<when>2132</when>
											<value>
												<horiz>0</horiz>
												<vert>0.164583</vert>
											</value>
										</keyframe>
									</parameter>
									<parameter authoringApp="PremierePro">
										<parameterid>centerOffset</parameterid>
										<name>Anchor Point</name>
										<value>
											<horiz>0</horiz>
											<vert>0</vert>
										</value>
									</parameter>
								</effect>
							</filter>
							<filter>
								<effect>
									<name>Gaussian Blur</name>
									<effectid>Gaussian Blur</effectid>
									<effectcategory>Blur</effectcategory>
									<effecttype>motion</effecttype>
									<mediatype>video</mediatype>
									<parameter authoringApp="PremierePro">
										<parameterid>radius</parameterid>
										<name>Radius</name>
										<valuemin>0</valuemin>
										<valuemax>100</valuemax>
										<value>0</value>
									</parameter>
								</effect>
							</filter>
							<marker>
								<comment></comment>
								<name></name>
								<in>5251</in>
								<out>-1</out>
							</marker>
						<logginginfo>
							<description></description>
							<scene></scene>
							<shottake></shottake>
							<lognote></lognote>
						</logginginfo>
						<labels>
							<label2>Iris</label2>
						</labels>
					</clipitem>
					<clipitem id="clipitem-291">
						<masterclipid>masterclip-50</masterclipid>
						<name>20160523_223257.mp4</name>
						<enabled>TRUE</enabled>
						<duration>1072</duration>
						<rate>
							<timebase>25</timebase>
							<ntsc>FALSE</ntsc>
						</rate>
						<start>20156</start>
						<end>20431</end>
						<in>13</in>
						<out>288</out>
						<pproTicksIn>132088320000</pproTicksIn>
						<pproTicksOut>2926264320000</pproTicksOut>
						<alphatype>black</alphatype>
						<file id="file-50"/>
							<filter>
								<effect>
									<name>Basic Motion</name>
									<effectid>basic</effectid>
									<effectcategory>motion</effectcategory>
									<effecttype>motion</effecttype>
									<mediatype>video</mediatype>
									<parameter authoringApp="PremierePro">
										<parameterid>scale</parameterid>
										<name>Scale</name>
										<valuemin>0</valuemin>
										<valuemax>1000</valuemax>
										<value>163</value>
									</parameter>
									<parameter authoringApp="PremierePro">
										<parameterid>rotation</parameterid>
										<name>Rotation</name>
										<valuemin>-8640</valuemin>
										<valuemax>8640</valuemax>
										<value>0</value>
									</parameter>
									<parameter authoringApp="PremierePro">
										<parameterid>center</parameterid>
										<name>Center</name>
										<value>
											<horiz>0</horiz>
											<vert>0.0270833</vert>
										</value>
										<keyframe>
											<when>13</when>
											<value>
												<horiz>0</horiz>
												<vert>0.0369792</vert>
											</value>
										</keyframe>
										<keyframe>
											<when>39</when>
											<value>
												<horiz>0</horiz>
												<vert>0.167708</vert>
											</value>
										</keyframe>
										<keyframe>
											<when>91</when>
											<value>
												<horiz>0</horiz>
												<vert>0.096875</vert>
											</value>
										</keyframe>
										<keyframe>
											<when>287</when>
											<value>
												<horiz>0</horiz>
												<vert>0.165625</vert>
											</value>
										</keyframe>
									</parameter>
									<parameter authoringApp="PremierePro">
										<parameterid>centerOffset</parameterid>
										<name>Anchor Point</name>
										<value>
											<horiz>0</horiz>
											<vert>0</vert>
										</value>
									</parameter>
								</effect>
							</filter>
							<filter>
								<effect>
									<name>Gaussian Blur</name>
									<effectid>Gaussian Blur</effectid>
									<effectcategory>Blur</effectcategory>
									<effecttype>motion</effecttype>
									<mediatype>video</mediatype>
									<parameter authoringApp="PremierePro">
										<parameterid>radius</parameterid>
										<name>Radius</name>
										<valuemin>0</valuemin>
										<valuemax>100</valuemax>
										<value>0</value>
									</parameter>
								</effect>
							</filter>
						<logginginfo>
							<description></description>
							<scene></scene>
							<shottake></shottake>
							<lognote></lognote>
						</logginginfo>
						<labels>
							<label2>Iris</label2>
						</labels>
					</clipitem>
					<clipitem id="clipitem-292">
						<masterclipid>masterclip-49</masterclipid>
						<name>20160520_075448.mp4</name>
						<enabled>TRUE</enabled>
						<duration>5580</duration>
						<rate>
							<timebase>25</timebase>
							<ntsc>FALSE</ntsc>
						</rate>
						<start>21241</start>
						<end>21454</end>
						<in>0</in>
						<out>213</out>
						<pproTicksIn>0</pproTicksIn>
						<pproTicksOut>2164216320000</pproTicksOut>
						<alphatype>black</alphatype>
						<file id="file-49"/>
							<filter>
								<effect>
									<name>Basic Motion</name>
									<effectid>basic</effectid>
									<effectcategory>motion</effectcategory>
									<effecttype>motion</effecttype>
									<mediatype>video</mediatype>
									<parameter authoringApp="PremierePro">
										<parameterid>scale</parameterid>
										<name>Scale</name>
										<valuemin>0</valuemin>
										<valuemax>1000</valuemax>
										<value>163</value>
									</parameter>
									<parameter authoringApp="PremierePro">
										<parameterid>rotation</parameterid>
										<name>Rotation</name>
										<valuemin>-8640</valuemin>
										<valuemax>8640</valuemax>
										<value>0</value>
									</parameter>
									<parameter authoringApp="PremierePro">
										<parameterid>center</parameterid>
										<name>Center</name>
										<value>
											<horiz>0</horiz>
											<vert>0.0270833</vert>
										</value>
									</parameter>
									<parameter authoringApp="PremierePro">
										<parameterid>centerOffset</parameterid>
										<name>Anchor Point</name>
										<value>
											<horiz>0</horiz>
											<vert>0</vert>
										</value>
									</parameter>
								</effect>
							</filter>
							<filter>
								<effect>
									<name>Gaussian Blur</name>
									<effectid>Gaussian Blur</effectid>
									<effectcategory>Blur</effectcategory>
									<effecttype>motion</effecttype>
									<mediatype>video</mediatype>
									<parameter authoringApp="PremierePro">
										<parameterid>radius</parameterid>
										<name>Radius</name>
										<valuemin>0</valuemin>
										<valuemax>100</valuemax>
										<value>0</value>
									</parameter>
								</effect>
							</filter>
							<marker>
								<comment></comment>
								<name></name>
								<in>5251</in>
								<out>-1</out>
							</marker>
						<logginginfo>
							<description></description>
							<scene></scene>
							<shottake></shottake>
							<lognote></lognote>
						</logginginfo>
						<labels>
							<label2>Iris</label2>
						</labels>
					</clipitem>
					<clipitem id="clipitem-293">
						<masterclipid>masterclip-54</masterclipid>
						<name>20160522_190802.mp4</name>
						<enabled>TRUE</enabled>
						<duration>736</duration>
						<rate>
							<timebase>25</timebase>
							<ntsc>FALSE</ntsc>
						</rate>
						<start>21581</start>
						<end>21845</end>
						<in>37</in>
						<out>301</out>
						<pproTicksIn>375943680000</pproTicksIn>
						<pproTicksOut>3058352640000</pproTicksOut>
						<alphatype>black</alphatype>
						<file id="file-54"/>
							<filter>
								<effect>
									<name>Basic Motion</name>
									<effectid>basic</effectid>
									<effectcategory>motion</effectcategory>
									<effecttype>motion</effecttype>
									<mediatype>video</mediatype>
									<parameter authoringApp="PremierePro">
										<parameterid>scale</parameterid>
										<name>Scale</name>
										<valuemin>0</valuemin>
										<valuemax>1000</valuemax>
										<value>163</value>
									</parameter>
									<parameter authoringApp="PremierePro">
										<parameterid>rotation</parameterid>
										<name>Rotation</name>
										<valuemin>-8640</valuemin>
										<valuemax>8640</valuemax>
										<value>0</value>
									</parameter>
									<parameter authoringApp="PremierePro">
										<parameterid>center</parameterid>
										<name>Center</name>
										<value>
											<horiz>0</horiz>
											<vert>0.0270833</vert>
										</value>
									</parameter>
									<parameter authoringApp="PremierePro">
										<parameterid>centerOffset</parameterid>
										<name>Anchor Point</name>
										<value>
											<horiz>0</horiz>
											<vert>0</vert>
										</value>
									</parameter>
								</effect>
							</filter>
							<filter>
								<effect>
									<name>Gaussian Blur</name>
									<effectid>Gaussian Blur</effectid>
									<effectcategory>Blur</effectcategory>
									<effecttype>motion</effecttype>
									<mediatype>video</mediatype>
									<parameter authoringApp="PremierePro">
										<parameterid>radius</parameterid>
										<name>Radius</name>
										<valuemin>0</valuemin>
										<valuemax>100</valuemax>
										<value>0</value>
									</parameter>
								</effect>
							</filter>
						<logginginfo>
							<description></description>
							<scene></scene>
							<shottake></shottake>
							<lognote></lognote>
						</logginginfo>
						<labels>
							<label2>Iris</label2>
						</labels>
					</clipitem>
					<clipitem id="clipitem-294">
						<masterclipid>masterclip-55</masterclipid>
						<name>20160516_113449.mp4</name>
						<enabled>TRUE</enabled>
						<duration>1056</duration>
						<rate>
							<timebase>25</timebase>
							<ntsc>FALSE</ntsc>
						</rate>
						<start>21845</start>
						<end>22124</end>
						<in>67</in>
						<out>346</out>
						<pproTicksIn>680762880000</pproTicksIn>
						<pproTicksOut>3515581440000</pproTicksOut>
						<alphatype>black</alphatype>
						<file id="file-55"/>
							<filter>
								<effect>
									<name>Basic Motion</name>
									<effectid>basic</effectid>
									<effectcategory>motion</effectcategory>
									<effecttype>motion</effecttype>
									<mediatype>video</mediatype>
									<parameter authoringApp="PremierePro">
										<parameterid>scale</parameterid>
										<name>Scale</name>
										<valuemin>0</valuemin>
										<valuemax>1000</valuemax>
										<value>163</value>
									</parameter>
									<parameter authoringApp="PremierePro">
										<parameterid>rotation</parameterid>
										<name>Rotation</name>
										<valuemin>-8640</valuemin>
										<valuemax>8640</valuemax>
										<value>0</value>
									</parameter>
									<parameter authoringApp="PremierePro">
										<parameterid>center</parameterid>
										<name>Center</name>
										<value>
											<horiz>0</horiz>
											<vert>0.0270833</vert>
										</value>
										<keyframe>
											<when>67</when>
											<value>
												<horiz>0</horiz>
												<vert>0.169792</vert>
											</value>
										</keyframe>
									</parameter>
									<parameter authoringApp="PremierePro">
										<parameterid>centerOffset</parameterid>
										<name>Anchor Point</name>
										<value>
											<horiz>0</horiz>
											<vert>0</vert>
										</value>
									</parameter>
								</effect>
							</filter>
							<filter>
								<effect>
									<name>Gaussian Blur</name>
									<effectid>Gaussian Blur</effectid>
									<effectcategory>Blur</effectcategory>
									<effecttype>motion</effecttype>
									<mediatype>video</mediatype>
									<parameter authoringApp="PremierePro">
										<parameterid>radius</parameterid>
										<name>Radius</name>
										<valuemin>0</valuemin>
										<valuemax>100</valuemax>
										<value>0</value>
									</parameter>
								</effect>
							</filter>
						<logginginfo>
							<description></description>
							<scene></scene>
							<shottake></shottake>
							<lognote></lognote>
						</logginginfo>
						<labels>
							<label2>Iris</label2>
						</labels>
					</clipitem>
					<clipitem id="clipitem-295">
						<masterclipid>masterclip-56</masterclipid>
						<name>20160514_185459.mp4</name>
						<enabled>TRUE</enabled>
						<duration>908</duration>
						<rate>
							<timebase>25</timebase>
							<ntsc>FALSE</ntsc>
						</rate>
						<start>22124</start>
						<end>22453</end>
						<in>25</in>
						<out>354</out>
						<pproTicksIn>254016000000</pproTicksIn>
						<pproTicksOut>3596866560000</pproTicksOut>
						<alphatype>black</alphatype>
						<file id="file-56"/>
							<filter>
								<effect>
									<name>Basic Motion</name>
									<effectid>basic</effectid>
									<effectcategory>motion</effectcategory>
									<effecttype>motion</effecttype>
									<mediatype>video</mediatype>
									<parameter authoringApp="PremierePro">
										<parameterid>scale</parameterid>
										<name>Scale</name>
										<valuemin>0</valuemin>
										<valuemax>1000</valuemax>
										<value>163</value>
									</parameter>
									<parameter authoringApp="PremierePro">
										<parameterid>rotation</parameterid>
										<name>Rotation</name>
										<valuemin>-8640</valuemin>
										<valuemax>8640</valuemax>
										<value>0</value>
									</parameter>
									<parameter authoringApp="PremierePro">
										<parameterid>center</parameterid>
										<name>Center</name>
										<value>
											<horiz>0</horiz>
											<vert>0.0270833</vert>
										</value>
										<keyframe>
											<when>25</when>
											<value>
												<horiz>0</horiz>
												<vert>0.00208334</vert>
											</value>
										</keyframe>
										<keyframe>
											<when>119</when>
											<value>
												<horiz>0</horiz>
												<vert>0.105208</vert>
											</value>
										</keyframe>
										<keyframe>
											<when>139</when>
											<value>
												<horiz>0</horiz>
												<vert>0.173958</vert>
											</value>
										</keyframe>
									</parameter>
									<parameter authoringApp="PremierePro">
										<parameterid>centerOffset</parameterid>
										<name>Anchor Point</name>
										<value>
											<horiz>0</horiz>
											<vert>0</vert>
										</value>
									</parameter>
								</effect>
							</filter>
							<filter>
								<effect>
									<name>Gaussian Blur</name>
									<effectid>Gaussian Blur</effectid>
									<effectcategory>Blur</effectcategory>
									<effecttype>motion</effecttype>
									<mediatype>video</mediatype>
									<parameter authoringApp="PremierePro">
										<parameterid>radius</parameterid>
										<name>Radius</name>
										<valuemin>0</valuemin>
										<valuemax>100</valuemax>
										<value>0</value>
									</parameter>
								</effect>
							</filter>
						<logginginfo>
							<description></description>
							<scene></scene>
							<shottake></shottake>
							<lognote></lognote>
						</logginginfo>
						<labels>
							<label2>Iris</label2>
						</labels>
					</clipitem>
					<clipitem id="clipitem-296">
						<masterclipid>masterclip-57</masterclipid>
						<name>20160514_185543.mp4</name>
						<enabled>TRUE</enabled>
						<duration>834</duration>
						<rate>
							<timebase>25</timebase>
							<ntsc>FALSE</ntsc>
						</rate>
						<start>22453</start>
						<end>22633</end>
						<in>15</in>
						<out>195</out>
						<pproTicksIn>152409600000</pproTicksIn>
						<pproTicksOut>1981324800000</pproTicksOut>
						<alphatype>black</alphatype>
						<file id="file-57"/>
							<filter>
								<effect>
									<name>Basic Motion</name>
									<effectid>basic</effectid>
									<effectcategory>motion</effectcategory>
									<effecttype>motion</effecttype>
									<mediatype>video</mediatype>
									<parameter authoringApp="PremierePro">
										<parameterid>scale</parameterid>
										<name>Scale</name>
										<valuemin>0</valuemin>
										<valuemax>1000</valuemax>
										<value>163</value>
									</parameter>
									<parameter authoringApp="PremierePro">
										<parameterid>rotation</parameterid>
										<name>Rotation</name>
										<valuemin>-8640</valuemin>
										<valuemax>8640</valuemax>
										<value>0</value>
									</parameter>
									<parameter authoringApp="PremierePro">
										<parameterid>center</parameterid>
										<name>Center</name>
										<value>
											<horiz>0</horiz>
											<vert>0.0270833</vert>
										</value>
									</parameter>
									<parameter authoringApp="PremierePro">
										<parameterid>centerOffset</parameterid>
										<name>Anchor Point</name>
										<value>
											<horiz>0</horiz>
											<vert>0</vert>
										</value>
									</parameter>
								</effect>
							</filter>
							<filter>
								<effect>
									<name>Gaussian Blur</name>
									<effectid>Gaussian Blur</effectid>
									<effectcategory>Blur</effectcategory>
									<effecttype>motion</effecttype>
									<mediatype>video</mediatype>
									<parameter authoringApp="PremierePro">
										<parameterid>radius</parameterid>
										<name>Radius</name>
										<valuemin>0</valuemin>
										<valuemax>100</valuemax>
										<value>0</value>
									</parameter>
								</effect>
							</filter>
						<logginginfo>
							<description></description>
							<scene></scene>
							<shottake></shottake>
							<lognote></lognote>
						</logginginfo>
						<labels>
							<label2>Iris</label2>
						</labels>
					</clipitem>
					<clipitem id="clipitem-297">
						<masterclipid>masterclip-57</masterclipid>
						<name>20160514_185543.mp4</name>
						<enabled>TRUE</enabled>
						<duration>834</duration>
						<rate>
							<timebase>25</timebase>
							<ntsc>FALSE</ntsc>
						</rate>
						<start>22633</start>
						<end>22827</end>
						<in>626</in>
						<out>820</out>
						<pproTicksIn>6360560640000</pproTicksIn>
						<pproTicksOut>8331724800000</pproTicksOut>
						<alphatype>black</alphatype>
						<file id="file-57"/>
							<filter>
								<effect>
									<name>Basic Motion</name>
									<effectid>basic</effectid>
									<effectcategory>motion</effectcategory>
									<effecttype>motion</effecttype>
									<mediatype>video</mediatype>
									<parameter authoringApp="PremierePro">
										<parameterid>scale</parameterid>
										<name>Scale</name>
										<valuemin>0</valuemin>
										<valuemax>1000</valuemax>
										<value>163</value>
									</parameter>
									<parameter authoringApp="PremierePro">
										<parameterid>rotation</parameterid>
										<name>Rotation</name>
										<valuemin>-8640</valuemin>
										<valuemax>8640</valuemax>
										<value>0</value>
									</parameter>
									<parameter authoringApp="PremierePro">
										<parameterid>center</parameterid>
										<name>Center</name>
										<value>
											<horiz>0</horiz>
											<vert>0.0552083</vert>
										</value>
									</parameter>
									<parameter authoringApp="PremierePro">
										<parameterid>centerOffset</parameterid>
										<name>Anchor Point</name>
										<value>
											<horiz>0</horiz>
											<vert>0</vert>
										</value>
									</parameter>
								</effect>
							</filter>
							<filter>
								<effect>
									<name>Gaussian Blur</name>
									<effectid>Gaussian Blur</effectid>
									<effectcategory>Blur</effectcategory>
									<effecttype>motion</effecttype>
									<mediatype>video</mediatype>
									<parameter authoringApp="PremierePro">
										<parameterid>radius</parameterid>
										<name>Radius</name>
										<valuemin>0</valuemin>
										<valuemax>100</valuemax>
										<value>0</value>
									</parameter>
								</effect>
							</filter>
						<logginginfo>
							<description></description>
							<scene></scene>
							<shottake></shottake>
							<lognote></lognote>
						</logginginfo>
						<labels>
							<label2>Iris</label2>
						</labels>
					</clipitem>
					<clipitem id="clipitem-298">
						<masterclipid>masterclip-191</masterclipid>
						<name>AA275101.MXF</name>
						<enabled>TRUE</enabled>
						<duration>732</duration>
						<rate>
							<timebase>25</timebase>
							<ntsc>FALSE</ntsc>
						</rate>
						<start>23338</start>
						<end>23512</end>
						<in>44</in>
						<out>218</out>
						<pproTicksIn>447068160000</pproTicksIn>
						<pproTicksOut>2215019520000</pproTicksOut>
						<alphatype>none</alphatype>
						<pixelaspectratio>square</pixelaspectratio>
						<anamorphic>FALSE</anamorphic>
						<file id="file-191">
							<name>AA275101.MXF</name>
							<pathurl>file://localhost/Volumes/Vaagen/Utveksling/Natur/Naturlig%20helaften%20fra%20Oslo/Copied_Copy%20of%20En%20Helaften%20MASTER_002/AA275101.MXF</pathurl>
							<rate>
								<timebase>25</timebase>
								<ntsc>FALSE</ntsc>
							</rate>
							<duration>732</duration>
							<timecode>
								<rate>
									<timebase>25</timebase>
									<ntsc>FALSE</ntsc>
								</rate>
								<string>12:44:43:13</string>
								<frame>1147088</frame>
								<displayformat>NDF</displayformat>
								<reel>
									<name></name>
								</reel>
							</timecode>
							<media>
								<video>
									<samplecharacteristics>
										<rate>
											<timebase>25</timebase>
											<ntsc>FALSE</ntsc>
										</rate>
										<width>1920</width>
										<height>1080</height>
										<anamorphic>FALSE</anamorphic>
										<pixelaspectratio>square</pixelaspectratio>
										<fielddominance>none</fielddominance>
									</samplecharacteristics>
								</video>
								<audio>
									<samplecharacteristics>
										<depth>16</depth>
										<samplerate>48000</samplerate>
									</samplecharacteristics>
									<channelcount>2</channelcount>
								</audio>
							</media>
						</file>
						<logginginfo>
							<description></description>
							<scene></scene>
							<shottake></shottake>
							<lognote></lognote>
						</logginginfo>
						<labels>
							<label2>Iris</label2>
						</labels>
					</clipitem>
					<clipitem id="clipitem-299">
						<masterclipid>masterclip-59</masterclipid>
						<name>IMG_4373.MOV</name>
						<enabled>TRUE</enabled>
						<duration>2626</duration>
						<rate>
							<timebase>25</timebase>
							<ntsc>FALSE</ntsc>
						</rate>
						<start>23704</start>
						<end>23837</end>
						<in>174</in>
						<out>307</out>
						<pproTicksIn>1767951360000</pproTicksIn>
						<pproTicksOut>3119316480000</pproTicksOut>
						<alphatype>black</alphatype>
						<file id="file-59"/>
							<filter>
								<effect>
									<name>Basic Motion</name>
									<effectid>basic</effectid>
									<effectcategory>motion</effectcategory>
									<effecttype>motion</effecttype>
									<mediatype>video</mediatype>
									<parameter authoringApp="PremierePro">
										<parameterid>scale</parameterid>
										<name>Scale</name>
										<valuemin>0</valuemin>
										<valuemax>1000</valuemax>
										<value>163</value>
									</parameter>
									<parameter authoringApp="PremierePro">
										<parameterid>rotation</parameterid>
										<name>Rotation</name>
										<valuemin>-8640</valuemin>
										<valuemax>8640</valuemax>
										<value>0</value>
									</parameter>
									<parameter authoringApp="PremierePro">
										<parameterid>center</parameterid>
										<name>Center</name>
										<value>
											<horiz>0</horiz>
											<vert>-0.0421875</vert>
										</value>
									</parameter>
									<parameter authoringApp="PremierePro">
										<parameterid>centerOffset</parameterid>
										<name>Anchor Point</name>
										<value>
											<horiz>0</horiz>
											<vert>0</vert>
										</value>
									</parameter>
								</effect>
							</filter>
							<filter>
								<effect>
									<name>Gaussian Blur</name>
									<effectid>Gaussian Blur</effectid>
									<effectcategory>Blur</effectcategory>
									<effecttype>motion</effecttype>
									<mediatype>video</mediatype>
									<parameter authoringApp="PremierePro">
										<parameterid>radius</parameterid>
										<name>Radius</name>
										<valuemin>0</valuemin>
										<valuemax>100</valuemax>
										<value>0</value>
									</parameter>
								</effect>
							</filter>
						<logginginfo>
							<description></description>
							<scene></scene>
							<shottake></shottake>
							<lognote></lognote>
						</logginginfo>
						<labels>
							<label2>Iris</label2>
						</labels>
					</clipitem>
					<clipitem id="clipitem-300">
						<masterclipid>masterclip-59</masterclipid>
						<name>IMG_4373.MOV</name>
						<enabled>TRUE</enabled>
						<duration>2626</duration>
						<rate>
							<timebase>25</timebase>
							<ntsc>FALSE</ntsc>
						</rate>
						<start>23837</start>
						<end>24241</end>
						<in>549</in>
						<out>953</out>
						<pproTicksIn>5578191360000</pproTicksIn>
						<pproTicksOut>9683089920000</pproTicksOut>
						<alphatype>black</alphatype>
						<file id="file-59"/>
							<filter>
								<effect>
									<name>Basic Motion</name>
									<effectid>basic</effectid>
									<effectcategory>motion</effectcategory>
									<effecttype>motion</effecttype>
									<mediatype>video</mediatype>
									<parameter authoringApp="PremierePro">
										<parameterid>scale</parameterid>
										<name>Scale</name>
										<valuemin>0</valuemin>
										<valuemax>1000</valuemax>
										<value>163</value>
									</parameter>
									<parameter authoringApp="PremierePro">
										<parameterid>rotation</parameterid>
										<name>Rotation</name>
										<valuemin>-8640</valuemin>
										<valuemax>8640</valuemax>
										<value>0</value>
									</parameter>
									<parameter authoringApp="PremierePro">
										<parameterid>center</parameterid>
										<name>Center</name>
										<value>
											<horiz>0</horiz>
											<vert>0.152604</vert>
										</value>
									</parameter>
									<parameter authoringApp="PremierePro">
										<parameterid>centerOffset</parameterid>
										<name>Anchor Point</name>
										<value>
											<horiz>0</horiz>
											<vert>0</vert>
										</value>
									</parameter>
								</effect>
							</filter>
							<filter>
								<effect>
									<name>Gaussian Blur</name>
									<effectid>Gaussian Blur</effectid>
									<effectcategory>Blur</effectcategory>
									<effecttype>motion</effecttype>
									<mediatype>video</mediatype>
									<parameter authoringApp="PremierePro">
										<parameterid>radius</parameterid>
										<name>Radius</name>
										<valuemin>0</valuemin>
										<valuemax>100</valuemax>
										<value>0</value>
									</parameter>
								</effect>
							</filter>
						<logginginfo>
							<description></description>
							<scene></scene>
							<shottake></shottake>
							<lognote></lognote>
						</logginginfo>
						<labels>
							<label2>Iris</label2>
						</labels>
					</clipitem>
					<clipitem id="clipitem-301">
						<masterclipid>masterclip-64</masterclipid>
						<name>IMG_4486.MOV</name>
						<enabled>TRUE</enabled>
						<duration>978</duration>
						<rate>
							<timebase>25</timebase>
							<ntsc>FALSE</ntsc>
						</rate>
						<start>25306</start>
						<end>25422</end>
						<in>0</in>
						<out>116</out>
						<pproTicksIn>0</pproTicksIn>
						<pproTicksOut>1178634240000</pproTicksOut>
						<alphatype>black</alphatype>
						<file id="file-64"/>
							<filter>
								<effect>
									<name>Basic Motion</name>
									<effectid>basic</effectid>
									<effectcategory>motion</effectcategory>
									<effecttype>motion</effecttype>
									<mediatype>video</mediatype>
									<parameter authoringApp="PremierePro">
										<parameterid>scale</parameterid>
										<name>Scale</name>
										<valuemin>0</valuemin>
										<valuemax>1000</valuemax>
										<value>163</value>
									</parameter>
									<parameter authoringApp="PremierePro">
										<parameterid>rotation</parameterid>
										<name>Rotation</name>
										<valuemin>-8640</valuemin>
										<valuemax>8640</valuemax>
										<value>0</value>
									</parameter>
									<parameter authoringApp="PremierePro">
										<parameterid>center</parameterid>
										<name>Center</name>
										<value>
											<horiz>0</horiz>
											<vert>0.163542</vert>
										</value>
									</parameter>
									<parameter authoringApp="PremierePro">
										<parameterid>centerOffset</parameterid>
										<name>Anchor Point</name>
										<value>
											<horiz>0</horiz>
											<vert>0</vert>
										</value>
									</parameter>
								</effect>
							</filter>
							<filter>
								<effect>
									<name>Gaussian Blur</name>
									<effectid>Gaussian Blur</effectid>
									<effectcategory>Blur</effectcategory>
									<effecttype>motion</effecttype>
									<mediatype>video</mediatype>
									<parameter authoringApp="PremierePro">
										<parameterid>radius</parameterid>
										<name>Radius</name>
										<valuemin>0</valuemin>
										<valuemax>100</valuemax>
										<value>0</value>
									</parameter>
								</effect>
							</filter>
						<logginginfo>
							<description></description>
							<scene></scene>
							<shottake></shottake>
							<lognote></lognote>
						</logginginfo>
						<labels>
							<label2>Iris</label2>
						</labels>
					</clipitem>
					<clipitem id="clipitem-302">
						<masterclipid>masterclip-65</masterclipid>
						<name>IMG_4487.MOV</name>
						<enabled>TRUE</enabled>
						<duration>775</duration>
						<rate>
							<timebase>25</timebase>
							<ntsc>FALSE</ntsc>
						</rate>
						<start>25763</start>
						<end>25968</end>
						<in>294</in>
						<out>499</out>
						<pproTicksIn>2987228160000</pproTicksIn>
						<pproTicksOut>5070159360000</pproTicksOut>
						<alphatype>black</alphatype>
						<file id="file-65"/>
							<filter>
								<effect>
									<name>Basic Motion</name>
									<effectid>basic</effectid>
									<effectcategory>motion</effectcategory>
									<effecttype>motion</effecttype>
									<mediatype>video</mediatype>
									<parameter authoringApp="PremierePro">
										<parameterid>scale</parameterid>
										<name>Scale</name>
										<valuemin>0</valuemin>
										<valuemax>1000</valuemax>
										<value>163</value>
									</parameter>
									<parameter authoringApp="PremierePro">
										<parameterid>rotation</parameterid>
										<name>Rotation</name>
										<valuemin>-8640</valuemin>
										<valuemax>8640</valuemax>
										<value>0</value>
									</parameter>
									<parameter authoringApp="PremierePro">
										<parameterid>center</parameterid>
										<name>Center</name>
										<value>
											<horiz>0</horiz>
											<vert>-0.146354</vert>
										</value>
										<keyframe>
											<when>294</when>
											<value>
												<horiz>0</horiz>
												<vert>-0.0510417</vert>
											</value>
										</keyframe>
										<keyframe>
											<when>387</when>
											<value>
												<horiz>0</horiz>
												<vert>-0.05625</vert>
											</value>
										</keyframe>
										<keyframe>
											<when>418</when>
											<value>
												<horiz>0</horiz>
												<vert>-0.160938</vert>
											</value>
										</keyframe>
									</parameter>
									<parameter authoringApp="PremierePro">
										<parameterid>centerOffset</parameterid>
										<name>Anchor Point</name>
										<value>
											<horiz>0</horiz>
											<vert>0</vert>
										</value>
									</parameter>
								</effect>
							</filter>
							<filter>
								<effect>
									<name>Gaussian Blur</name>
									<effectid>Gaussian Blur</effectid>
									<effectcategory>Blur</effectcategory>
									<effecttype>motion</effecttype>
									<mediatype>video</mediatype>
									<parameter authoringApp="PremierePro">
										<parameterid>radius</parameterid>
										<name>Radius</name>
										<valuemin>0</valuemin>
										<valuemax>100</valuemax>
										<value>0</value>
									</parameter>
								</effect>
							</filter>
						<logginginfo>
							<description></description>
							<scene></scene>
							<shottake></shottake>
							<lognote></lognote>
						</logginginfo>
						<labels>
							<label2>Iris</label2>
						</labels>
					</clipitem>
					<clipitem id="clipitem-303">
						<masterclipid>masterclip-19</masterclipid>
						<name>20160515_184145.mp4</name>
						<enabled>TRUE</enabled>
						<duration>1485</duration>
						<rate>
							<timebase>25</timebase>
							<ntsc>FALSE</ntsc>
						</rate>
						<start>26270</start>
						<end>26436</end>
						<in>0</in>
						<out>166</out>
						<pproTicksIn>0</pproTicksIn>
						<pproTicksOut>1686666240000</pproTicksOut>
						<alphatype>black</alphatype>
						<file id="file-19"/>
							<filter>
								<effect>
									<name>Basic Motion</name>
									<effectid>basic</effectid>
									<effectcategory>motion</effectcategory>
									<effecttype>motion</effecttype>
									<mediatype>video</mediatype>
									<parameter authoringApp="PremierePro">
										<parameterid>scale</parameterid>
										<name>Scale</name>
										<valuemin>0</valuemin>
										<valuemax>1000</valuemax>
										<value>163</value>
									</parameter>
									<parameter authoringApp="PremierePro">
										<parameterid>rotation</parameterid>
										<name>Rotation</name>
										<valuemin>-8640</valuemin>
										<valuemax>8640</valuemax>
										<value>0</value>
									</parameter>
									<parameter authoringApp="PremierePro">
										<parameterid>center</parameterid>
										<name>Center</name>
										<value>
											<horiz>0</horiz>
											<vert>0.0270833</vert>
										</value>
										<keyframe>
											<when>0</when>
											<value>
												<horiz>0</horiz>
												<vert>0.028125</vert>
											</value>
										</keyframe>
										<keyframe>
											<when>33</when>
											<value>
												<horiz>0</horiz>
												<vert>-0.165625</vert>
											</value>
										</keyframe>
									</parameter>
									<parameter authoringApp="PremierePro">
										<parameterid>centerOffset</parameterid>
										<name>Anchor Point</name>
										<value>
											<horiz>0</horiz>
											<vert>0</vert>
										</value>
									</parameter>
								</effect>
							</filter>
							<filter>
								<effect>
									<name>Gaussian Blur</name>
									<effectid>Gaussian Blur</effectid>
									<effectcategory>Blur</effectcategory>
									<effecttype>motion</effecttype>
									<mediatype>video</mediatype>
									<parameter authoringApp="PremierePro">
										<parameterid>radius</parameterid>
										<name>Radius</name>
										<valuemin>0</valuemin>
										<valuemax>100</valuemax>
										<value>0</value>
									</parameter>
								</effect>
							</filter>
						<logginginfo>
							<description></description>
							<scene></scene>
							<shottake></shottake>
							<lognote></lognote>
						</logginginfo>
						<labels>
							<label2>Iris</label2>
						</labels>
					</clipitem>
					<clipitem id="clipitem-304">
						<masterclipid>masterclip-19</masterclipid>
						<name>20160515_184145.mp4</name>
						<enabled>TRUE</enabled>
						<duration>1485</duration>
						<rate>
							<timebase>25</timebase>
							<ntsc>FALSE</ntsc>
						</rate>
						<start>26436</start>
						<end>26665</end>
						<in>292</in>
						<out>521</out>
						<pproTicksIn>2966906880000</pproTicksIn>
						<pproTicksOut>5293693440000</pproTicksOut>
						<alphatype>black</alphatype>
						<file id="file-19"/>
							<filter>
								<effect>
									<name>Basic Motion</name>
									<effectid>basic</effectid>
									<effectcategory>motion</effectcategory>
									<effecttype>motion</effecttype>
									<mediatype>video</mediatype>
									<parameter authoringApp="PremierePro">
										<parameterid>scale</parameterid>
										<name>Scale</name>
										<valuemin>0</valuemin>
										<valuemax>1000</valuemax>
										<value>163</value>
									</parameter>
									<parameter authoringApp="PremierePro">
										<parameterid>rotation</parameterid>
										<name>Rotation</name>
										<valuemin>-8640</valuemin>
										<valuemax>8640</valuemax>
										<value>0</value>
									</parameter>
									<parameter authoringApp="PremierePro">
										<parameterid>center</parameterid>
										<name>Center</name>
										<value>
											<horiz>0</horiz>
											<vert>0.0270833</vert>
										</value>
									</parameter>
									<parameter authoringApp="PremierePro">
										<parameterid>centerOffset</parameterid>
										<name>Anchor Point</name>
										<value>
											<horiz>0</horiz>
											<vert>0</vert>
										</value>
									</parameter>
								</effect>
							</filter>
							<filter>
								<effect>
									<name>Gaussian Blur</name>
									<effectid>Gaussian Blur</effectid>
									<effectcategory>Blur</effectcategory>
									<effecttype>motion</effecttype>
									<mediatype>video</mediatype>
									<parameter authoringApp="PremierePro">
										<parameterid>radius</parameterid>
										<name>Radius</name>
										<valuemin>0</valuemin>
										<valuemax>100</valuemax>
										<value>0</value>
									</parameter>
								</effect>
							</filter>
						<logginginfo>
							<description></description>
							<scene></scene>
							<shottake></shottake>
							<lognote></lognote>
						</logginginfo>
						<labels>
							<label2>Iris</label2>
						</labels>
					</clipitem>
					<clipitem id="clipitem-305">
						<masterclipid>masterclip-192</masterclipid>
						<name>AA030201.mov</name>
						<enabled>TRUE</enabled>
						<duration>1416</duration>
						<rate>
							<timebase>25</timebase>
							<ntsc>FALSE</ntsc>
						</rate>
						<start>31263</start>
						<end>31390</end>
						<in>96</in>
						<out>223</out>
						<pproTicksIn>975421440000</pproTicksIn>
						<pproTicksOut>2265822720000</pproTicksOut>
						<alphatype>none</alphatype>
						<pixelaspectratio>square</pixelaspectratio>
						<anamorphic>FALSE</anamorphic>
						<file id="file-192">
							<name>AA030201.mov</name>
							<pathurl>file://localhost/Volumes/Svartediket/Prosjekter/DVNA600216_HELAFTEN2016_FAL_010217/Video/Trailere2017/Copied_hb%20Molla2_1AA/AA030201.mov</pathurl>
							<rate>
								<timebase>25</timebase>
								<ntsc>FALSE</ntsc>
							</rate>
							<duration>1416</duration>
							<timecode>
								<rate>
									<timebase>25</timebase>
									<ntsc>FALSE</ntsc>
								</rate>
								<string>19:32:16:05</string>
								<frame>1758405</frame>
								<displayformat>NDF</displayformat>
								<reel>
									<name></name>
								</reel>
							</timecode>
							<media>
								<video>
									<samplecharacteristics>
										<rate>
											<timebase>25</timebase>
											<ntsc>FALSE</ntsc>
										</rate>
										<width>1920</width>
										<height>1080</height>
										<anamorphic>FALSE</anamorphic>
										<pixelaspectratio>square</pixelaspectratio>
										<fielddominance>none</fielddominance>
									</samplecharacteristics>
								</video>
								<audio>
									<samplecharacteristics>
										<depth>16</depth>
										<samplerate>48000</samplerate>
									</samplecharacteristics>
									<channelcount>2</channelcount>
								</audio>
							</media>
						</file>
						<logginginfo>
							<description></description>
							<scene></scene>
							<shottake>AA0302</shottake>
							<lognote></lognote>
						</logginginfo>
						<labels>
							<label2>Violet</label2>
						</labels>
					</clipitem>
					<clipitem id="clipitem-306">
						<masterclipid>masterclip-193</masterclipid>
						<name>AA029901.mov</name>
						<enabled>TRUE</enabled>
						<duration>660</duration>
						<rate>
							<timebase>25</timebase>
							<ntsc>FALSE</ntsc>
						</rate>
						<start>31390</start>
						<end>31452</end>
						<in>60</in>
						<out>122</out>
						<pproTicksIn>609638400000</pproTicksIn>
						<pproTicksOut>1239598080000</pproTicksOut>
						<alphatype>none</alphatype>
						<pixelaspectratio>square</pixelaspectratio>
						<anamorphic>FALSE</anamorphic>
						<file id="file-193">
							<name>AA029901.mov</name>
							<pathurl>file://localhost/Volumes/Svartediket/Prosjekter/DVNA600216_HELAFTEN2016_FAL_010217/Video/Trailere2017/Copied_hb%20Molla2_1AA/AA029901.mov</pathurl>
							<rate>
								<timebase>25</timebase>
								<ntsc>FALSE</ntsc>
							</rate>
							<duration>660</duration>
							<timecode>
								<rate>
									<timebase>25</timebase>
									<ntsc>FALSE</ntsc>
								</rate>
								<string>19:24:25:00</string>
								<frame>1746625</frame>
								<displayformat>NDF</displayformat>
								<reel>
									<name></name>
								</reel>
							</timecode>
							<media>
								<video>
									<samplecharacteristics>
										<rate>
											<timebase>25</timebase>
											<ntsc>FALSE</ntsc>
										</rate>
										<width>1920</width>
										<height>1080</height>
										<anamorphic>FALSE</anamorphic>
										<pixelaspectratio>square</pixelaspectratio>
										<fielddominance>none</fielddominance>
									</samplecharacteristics>
								</video>
								<audio>
									<samplecharacteristics>
										<depth>16</depth>
										<samplerate>48000</samplerate>
									</samplecharacteristics>
									<channelcount>2</channelcount>
								</audio>
							</media>
						</file>
						<logginginfo>
							<description></description>
							<scene></scene>
							<shottake>AA0299</shottake>
							<lognote></lognote>
						</logginginfo>
						<labels>
							<label2>Violet</label2>
						</labels>
					</clipitem>
					<clipitem id="clipitem-307">
						<masterclipid>masterclip-194</masterclipid>
						<name>AA395501.mov</name>
						<enabled>TRUE</enabled>
						<duration>384</duration>
						<rate>
							<timebase>25</timebase>
							<ntsc>FALSE</ntsc>
						</rate>
						<start>31542</start>
						<end>31588</end>
						<in>130</in>
						<out>176</out>
						<pproTicksIn>1320883200000</pproTicksIn>
						<pproTicksOut>1788272640000</pproTicksOut>
						<alphatype>none</alphatype>
						<pixelaspectratio>square</pixelaspectratio>
						<anamorphic>FALSE</anamorphic>
						<file id="file-194">
							<name>AA395501.mov</name>
							<pathurl>file://localhost/Volumes/Svartediket/Prosjekter/DVNA600216_HELAFTEN2016_FAL_010217/Video/Trailere2017/Copied_hb%20Molla2_1AA/AA395501.mov</pathurl>
							<rate>
								<timebase>25</timebase>
								<ntsc>FALSE</ntsc>
							</rate>
							<duration>384</duration>
							<timecode>
								<rate>
									<timebase>25</timebase>
									<ntsc>FALSE</ntsc>
								</rate>
								<string>12:17:58:08</string>
								<frame>1106958</frame>
								<displayformat>NDF</displayformat>
								<reel>
									<name></name>
								</reel>
							</timecode>
							<media>
								<video>
									<samplecharacteristics>
										<rate>
											<timebase>25</timebase>
											<ntsc>FALSE</ntsc>
										</rate>
										<width>1920</width>
										<height>1080</height>
										<anamorphic>FALSE</anamorphic>
										<pixelaspectratio>square</pixelaspectratio>
										<fielddominance>none</fielddominance>
									</samplecharacteristics>
								</video>
								<audio>
									<samplecharacteristics>
										<depth>16</depth>
										<samplerate>48000</samplerate>
									</samplecharacteristics>
									<channelcount>2</channelcount>
								</audio>
							</media>
						</file>
						<logginginfo>
							<description></description>
							<scene></scene>
							<shottake>AA3955</shottake>
							<lognote></lognote>
						</logginginfo>
						<labels>
							<label2>Violet</label2>
						</labels>
					</clipitem>
					<clipitem id="clipitem-308">
						<masterclipid>masterclip-82</masterclipid>
						<name>AA395101.mov</name>
						<enabled>TRUE</enabled>
						<duration>5400</duration>
						<rate>
							<timebase>25</timebase>
							<ntsc>FALSE</ntsc>
						</rate>
						<start>31588</start>
						<end>31640</end>
						<in>4796</in>
						<out>4848</out>
						<pproTicksIn>48730429440000</pproTicksIn>
						<pproTicksOut>49258782720000</pproTicksOut>
						<alphatype>none</alphatype>
						<file id="file-82"/>
						<logginginfo>
							<description></description>
							<scene></scene>
							<shottake>AA3951</shottake>
							<lognote></lognote>
						</logginginfo>
						<labels>
							<label2>Violet</label2>
						</labels>
					</clipitem>
					<clipitem id="clipitem-309">
						<masterclipid>masterclip-85</masterclipid>
						<name>isfiskeroye-3-210415r-033.mxf</name>
						<enabled>TRUE</enabled>
						<duration>3106</duration>
						<rate>
							<timebase>25</timebase>
							<ntsc>FALSE</ntsc>
						</rate>
						<start>32002</start>
						<end>32152</end>
						<in>159</in>
						<out>309</out>
						<pproTicksIn>1615541760000</pproTicksIn>
						<pproTicksOut>3139637760000</pproTicksOut>
						<alphatype>none</alphatype>
						<file id="file-85"/>
						<logginginfo>
							<description></description>
							<scene></scene>
							<shottake></shottake>
							<lognote></lognote>
						</logginginfo>
						<labels>
							<label2>Cerulean</label2>
						</labels>
					</clipitem>
					<clipitem id="clipitem-310">
						<masterclipid>masterclip-195</masterclipid>
						<name>00159F.MXF</name>
						<enabled>TRUE</enabled>
						<duration>3229</duration>
						<rate>
							<timebase>25</timebase>
							<ntsc>FALSE</ntsc>
						</rate>
						<start>32152</start>
						<end>32218</end>
						<in>413</in>
						<out>479</out>
						<pproTicksIn>4196344320000</pproTicksIn>
						<pproTicksOut>4866946560000</pproTicksOut>
						<alphatype>none</alphatype>
						<pixelaspectratio>square</pixelaspectratio>
						<anamorphic>FALSE</anamorphic>
						<file id="file-195">
							<name>00159F.MXF</name>
							<pathurl>file://localhost/Volumes/Svartediket/Prosjekter/DVNA600216_HELAFTEN2016_FAL_010217/Video/Trailere2017/Taser%20Fiskeserie%20%202017/00159F.MXF</pathurl>
							<rate>
								<timebase>25</timebase>
								<ntsc>FALSE</ntsc>
							</rate>
							<duration>3229</duration>
							<timecode>
								<rate>
									<timebase>25</timebase>
									<ntsc>FALSE</ntsc>
								</rate>
								<string>14:12:50:24</string>
								<frame>1279274</frame>
								<displayformat>NDF</displayformat>
								<reel>
									<name></name>
								</reel>
							</timecode>
							<media>
								<video>
									<samplecharacteristics>
										<rate>
											<timebase>25</timebase>
											<ntsc>FALSE</ntsc>
										</rate>
										<width>1920</width>
										<height>1080</height>
										<anamorphic>FALSE</anamorphic>
										<pixelaspectratio>square</pixelaspectratio>
										<fielddominance>upper</fielddominance>
									</samplecharacteristics>
								</video>
								<audio>
									<samplecharacteristics>
										<depth>16</depth>
										<samplerate>48000</samplerate>
									</samplecharacteristics>
									<channelcount>8</channelcount>
								</audio>
							</media>
						</file>
						<logginginfo>
							<description></description>
							<scene></scene>
							<shottake></shottake>
							<lognote></lognote>
						</logginginfo>
						<labels>
							<label2>Cerulean</label2>
						</labels>
					</clipitem>
					<clipitem id="clipitem-311">
						<masterclipid>masterclip-195</masterclipid>
						<name>00159F.MXF</name>
						<enabled>TRUE</enabled>
						<duration>3229</duration>
						<rate>
							<timebase>25</timebase>
							<ntsc>FALSE</ntsc>
						</rate>
						<start>32307</start>
						<end>32335</end>
						<in>568</in>
						<out>596</out>
						<pproTicksIn>5771243520000</pproTicksIn>
						<pproTicksOut>6055741440000</pproTicksOut>
						<alphatype>none</alphatype>
						<file id="file-195"/>
						<logginginfo>
							<description></description>
							<scene></scene>
							<shottake></shottake>
							<lognote></lognote>
						</logginginfo>
						<labels>
							<label2>Cerulean</label2>
						</labels>
					</clipitem>
					<clipitem id="clipitem-312">
						<masterclipid>masterclip-195</masterclipid>
						<name>00159F.MXF</name>
						<enabled>TRUE</enabled>
						<duration>3229</duration>
						<rate>
							<timebase>25</timebase>
							<ntsc>FALSE</ntsc>
						</rate>
						<start>32419</start>
						<end>32458</end>
						<in>680</in>
						<out>719</out>
						<pproTicksIn>6909235200000</pproTicksIn>
						<pproTicksOut>7305500160000</pproTicksOut>
						<alphatype>none</alphatype>
						<file id="file-195"/>
						<logginginfo>
							<description></description>
							<scene></scene>
							<shottake></shottake>
							<lognote></lognote>
						</logginginfo>
						<labels>
							<label2>Cerulean</label2>
						</labels>
					</clipitem>
					<clipitem id="clipitem-313">
						<masterclipid>masterclip-196</masterclipid>
						<name>Aashild-august-Clip0207.MXF</name>
						<enabled>TRUE</enabled>
						<duration>3972</duration>
						<rate>
							<timebase>25</timebase>
							<ntsc>FALSE</ntsc>
						</rate>
						<start>34745</start>
						<end>34769</end>
						<in>147</in>
						<out>171</out>
						<pproTicksIn>1493614080000</pproTicksIn>
						<pproTicksOut>1737469440000</pproTicksOut>
						<alphatype>none</alphatype>
						<pixelaspectratio>square</pixelaspectratio>
						<anamorphic>FALSE</anamorphic>
						<file id="file-196">
							<name>Aashild-august-Clip0207.MXF</name>
							<pathurl>file://localhost/Volumes/Vaagen/Prosjekter/DVNA200216_OAO_Naturforskere_010118_OAO/Ra%cc%8astoff/A%cc%8ashild%20Pedersen/Svalbard%20august/Fs5/Aashild-august-Clip0207.MXF</pathurl>
							<rate>
								<timebase>50</timebase>
								<ntsc>FALSE</ntsc>
							</rate>
							<duration>7944</duration>
							<timecode>
								<rate>
									<timebase>50</timebase>
									<ntsc>FALSE</ntsc>
								</rate>
								<string>02:11:44:08</string>
								<frame>395208</frame>
								<displayformat>NDF</displayformat>
								<reel>
									<name></name>
								</reel>
							</timecode>
							<media>
								<video>
									<samplecharacteristics>
										<rate>
											<timebase>50</timebase>
											<ntsc>FALSE</ntsc>
										</rate>
										<width>1920</width>
										<height>1080</height>
										<anamorphic>FALSE</anamorphic>
										<pixelaspectratio>square</pixelaspectratio>
										<fielddominance>none</fielddominance>
									</samplecharacteristics>
								</video>
								<audio>
									<samplecharacteristics>
										<depth>16</depth>
										<samplerate>48000</samplerate>
									</samplecharacteristics>
									<channelcount>4</channelcount>
								</audio>
							</media>
						</file>
							<filter>
								<effect>
									<name></name>
									<effectid>Lumetri</effectid>
									<effecttype>filter</effecttype>
									<mediatype>video</mediatype>
									<parameter authoringApp="PremierePro">
										<parameterid>1</parameterid>
										<name>File Path</name>
										<hash>63866a15-9327-e4cb-ff31-c9ea0000000e</hash>
									</parameter>
									<parameter authoringApp="PremierePro">
										<parameterid>3</parameterid>
										<name> </name>
										<IsTimeVarying>false</IsTimeVarying>
										<ParameterControlType>4</ParameterControlType>
										<LowerBound>false</LowerBound>
										<UpperBound>true</UpperBound>
										<value>-91445760000000000,true,0,0,0,0,0,0</value>
									</parameter>
									<parameter authoringApp="PremierePro">
										<parameterid>4</parameterid>
										<name> </name>
										<hash>63866a15-9327-e4cb-ff31-c9ea0000000e</hash>
									</parameter>
									<parameter authoringApp="PremierePro">
										<parameterid>5</parameterid>
										<name>Input LUT</name>
										<IsTimeVarying>false</IsTimeVarying>
										<ParameterControlType>7</ParameterControlType>
										<LowerBound>0</LowerBound>
										<UpperBound>998</UpperBound>
										<value>-91445760000000000,0,0,0,0,0,0,0</value>
									</parameter>
									<parameter authoringApp="PremierePro">
										<parameterid>7</parameterid>
										<name>Temperature</name>
										<IsTimeVarying>false</IsTimeVarying>
										<ParameterControlType>8</ParameterControlType>
										<LowerBound>-150</LowerBound>
										<UpperBound>150</UpperBound>
										<LowerUIBound>-100</LowerUIBound>
										<UpperUIBound>100</UpperUIBound>
										<value>-91445760000000000,0.,0,0,0,0,0,0</value>
									</parameter>
									<parameter authoringApp="PremierePro">
										<parameterid>8</parameterid>
										<name>Tint</name>
										<IsTimeVarying>false</IsTimeVarying>
										<ParameterControlType>8</ParameterControlType>
										<LowerBound>-150</LowerBound>
										<UpperBound>150</UpperBound>
										<LowerUIBound>-100</LowerUIBound>
										<UpperUIBound>100</UpperUIBound>
										<value>-91445760000000000,0.,0,0,0,0,0,0</value>
									</parameter>
									<parameter authoringApp="PremierePro">
										<parameterid>11</parameterid>
										<name>Exposure</name>
										<IsTimeVarying>false</IsTimeVarying>
										<ParameterControlType>8</ParameterControlType>
										<LowerBound>-7</LowerBound>
										<UpperBound>7</UpperBound>
										<LowerUIBound>-5</LowerUIBound>
										<UpperUIBound>5</UpperUIBound>
										<value>-91445760000000000,0.60000002384185791015625,0,0,0,0,0,0</value>
									</parameter>
									<parameter authoringApp="PremierePro">
										<parameterid>12</parameterid>
										<name>Contrast</name>
										<IsTimeVarying>false</IsTimeVarying>
										<ParameterControlType>8</ParameterControlType>
										<LowerBound>-150</LowerBound>
										<UpperBound>150</UpperBound>
										<LowerUIBound>-100</LowerUIBound>
										<UpperUIBound>100</UpperUIBound>
										<value>-91445760000000000,59.975616455078125,0,0,0,0,0,0</value>
									</parameter>
									<parameter authoringApp="PremierePro">
										<parameterid>13</parameterid>
										<name>Highlights</name>
										<IsTimeVarying>false</IsTimeVarying>
										<ParameterControlType>8</ParameterControlType>
										<LowerBound>-150</LowerBound>
										<UpperBound>150</UpperBound>
										<LowerUIBound>-100</LowerUIBound>
										<UpperUIBound>100</UpperUIBound>
										<value>-91445760000000000,-51.,0,0,0,0,0,0</value>
									</parameter>
									<parameter authoringApp="PremierePro">
										<parameterid>14</parameterid>
										<name>Shadows</name>
										<IsTimeVarying>false</IsTimeVarying>
										<ParameterControlType>8</ParameterControlType>
										<LowerBound>-150</LowerBound>
										<UpperBound>150</UpperBound>
										<LowerUIBound>-100</LowerUIBound>
										<UpperUIBound>100</UpperUIBound>
										<value>-91445760000000000,-9.,0,0,0,0,0,0</value>
									</parameter>
									<parameter authoringApp="PremierePro">
										<parameterid>15</parameterid>
										<name>Whites</name>
										<IsTimeVarying>false</IsTimeVarying>
										<ParameterControlType>8</ParameterControlType>
										<LowerBound>-150</LowerBound>
										<UpperBound>150</UpperBound>
										<LowerUIBound>-100</LowerUIBound>
										<UpperUIBound>100</UpperUIBound>
										<value>-91445760000000000,-150.,0,0,0,0,0,0</value>
									</parameter>
									<parameter authoringApp="PremierePro">
										<parameterid>16</parameterid>
										<name>Blacks</name>
										<IsTimeVarying>false</IsTimeVarying>
										<ParameterControlType>8</ParameterControlType>
										<LowerBound>-150</LowerBound>
										<UpperBound>150</UpperBound>
										<LowerUIBound>-100</LowerUIBound>
										<UpperUIBound>100</UpperUIBound>
										<value>-91445760000000000,-82.95122528076171875,0,0,0,0,0,0</value>
									</parameter>
									<parameter authoringApp="PremierePro">
										<parameterid>20</parameterid>
										<name>Saturation</name>
										<IsTimeVarying>false</IsTimeVarying>
										<ParameterControlType>8</ParameterControlType>
										<LowerBound>0</LowerBound>
										<UpperBound>300</UpperBound>
										<UpperUIBound>200</UpperUIBound>
										<value>-91445760000000000,190.,0,0,0,0,0,0</value>
									</parameter>
									<parameter authoringApp="PremierePro">
										<parameterid>23</parameterid>
										<name> </name>
										<IsTimeVarying>false</IsTimeVarying>
										<ParameterControlType>4</ParameterControlType>
										<LowerBound>false</LowerBound>
										<UpperBound>true</UpperBound>
										<value>-91445760000000000,true,0,0,0,0,0,0</value>
									</parameter>
									<parameter authoringApp="PremierePro">
										<parameterid>24</parameterid>
										<name> </name>
										<hash>63866a15-9327-e4cb-ff31-c9ea0000000e</hash>
									</parameter>
									<parameter authoringApp="PremierePro">
										<parameterid>25</parameterid>
										<name>Look</name>
										<IsTimeVarying>false</IsTimeVarying>
										<ParameterControlType>7</ParameterControlType>
										<LowerBound>0</LowerBound>
										<UpperBound>998</UpperBound>
										<value>-91445760000000000,0,0,0,0,0,0,0</value>
									</parameter>
									<parameter authoringApp="PremierePro">
										<parameterid>26</parameterid>
										<name>Intensity</name>
										<IsTimeVarying>false</IsTimeVarying>
										<ParameterControlType>8</ParameterControlType>
										<LowerBound>0</LowerBound>
										<UpperBound>200</UpperBound>
										<value>-91445760000000000,100.,0,0,0,0,0,0</value>
									</parameter>
									<parameter authoringApp="PremierePro">
										<parameterid>28</parameterid>
										<name>Faded Film</name>
										<IsTimeVarying>false</IsTimeVarying>
										<ParameterControlType>8</ParameterControlType>
										<LowerBound>0</LowerBound>
										<UpperBound>150</UpperBound>
										<UpperUIBound>100</UpperUIBound>
										<value>-91445760000000000,0.,0,0,0,0,0,0</value>
									</parameter>
									<parameter authoringApp="PremierePro">
										<parameterid>29</parameterid>
										<name>Sharpen</name>
										<IsTimeVarying>false</IsTimeVarying>
										<ParameterControlType>8</ParameterControlType>
										<LowerBound>-100</LowerBound>
										<UpperBound>100</UpperBound>
										<value>-91445760000000000,0.,0,0,0,0,0,0</value>
									</parameter>
									<parameter authoringApp="PremierePro">
										<parameterid>30</parameterid>
										<name>Vibrance</name>
										<IsTimeVarying>false</IsTimeVarying>
										<ParameterControlType>8</ParameterControlType>
										<LowerBound>-100</LowerBound>
										<UpperBound>100</UpperBound>
										<value>-91445760000000000,0.,0,0,0,0,0,0</value>
									</parameter>
									<parameter authoringApp="PremierePro">
										<parameterid>31</parameterid>
										<name>Saturation</name>
										<IsTimeVarying>false</IsTimeVarying>
										<ParameterControlType>8</ParameterControlType>
										<LowerBound>0</LowerBound>
										<UpperBound>300</UpperBound>
										<UpperUIBound>200</UpperUIBound>
										<value>-91445760000000000,100.,0,0,0,0,0,0</value>
									</parameter>
									<parameter authoringApp="PremierePro">
										<parameterid>32</parameterid>
										<name></name>
										<hash>49d2fca5-ddd1-a393-0544-f6d80000002c</hash>
									</parameter>
									<parameter authoringApp="PremierePro">
										<parameterid>33</parameterid>
										<name>Tint Balance</name>
										<IsTimeVarying>false</IsTimeVarying>
										<ParameterControlType>8</ParameterControlType>
										<LowerBound>-150</LowerBound>
										<UpperBound>150</UpperBound>
										<LowerUIBound>-100</LowerUIBound>
										<UpperUIBound>100</UpperUIBound>
										<value>-91445760000000000,0.,0,0,0,0,0,0</value>
									</parameter>
									<parameter authoringApp="PremierePro">
										<parameterid>37</parameterid>
										<name> </name>
										<IsTimeVarying>false</IsTimeVarying>
										<ParameterControlType>4</ParameterControlType>
										<LowerBound>false</LowerBound>
										<UpperBound>true</UpperBound>
										<value>-91445760000000000,true,0,0,0,0,0,0</value>
									</parameter>
									<parameter authoringApp="PremierePro">
										<parameterid>39</parameterid>
										<name> </name>
										<hash>261f3840-e8cf-a8cd-fa5e-bac10000082c</hash>
									</parameter>
									<parameter authoringApp="PremierePro">
										<parameterid>42</parameterid>
										<name> </name>
										<hash>ccfaa4df-d630-7661-76dd-3e4900000214</hash>
									</parameter>
									<parameter authoringApp="PremierePro">
										<parameterid>46</parameterid>
										<name> </name>
										<IsTimeVarying>false</IsTimeVarying>
										<ParameterControlType>4</ParameterControlType>
										<LowerBound>false</LowerBound>
										<UpperBound>true</UpperBound>
										<value>-91445760000000000,true,0,0,0,0,0,0</value>
									</parameter>
									<parameter authoringApp="PremierePro">
										<parameterid>47</parameterid>
										<name> </name>
										<hash>0b5436c4-bae0-bb64-a2f6-c8c40000006c</hash>
									</parameter>
									<parameter authoringApp="PremierePro">
										<parameterid>50</parameterid>
										<name> </name>
										<IsTimeVarying>false</IsTimeVarying>
										<ParameterControlType>4</ParameterControlType>
										<LowerBound>false</LowerBound>
										<UpperBound>true</UpperBound>
										<value>-91445760000000000,true,0,0,0,0,0,0</value>
									</parameter>
									<parameter authoringApp="PremierePro">
										<parameterid>51</parameterid>
										<name>Amount</name>
										<IsTimeVarying>false</IsTimeVarying>
										<ParameterControlType>8</ParameterControlType>
										<LowerBound>-5</LowerBound>
										<UpperBound>5</UpperBound>
										<LowerUIBound>-3</LowerUIBound>
										<UpperUIBound>3</UpperUIBound>
										<value>-91445760000000000,0.,0,0,0,0,0,0</value>
									</parameter>
									<parameter authoringApp="PremierePro">
										<parameterid>52</parameterid>
										<name>Midpoint</name>
										<IsTimeVarying>false</IsTimeVarying>
										<ParameterControlType>8</ParameterControlType>
										<LowerBound>0</LowerBound>
										<UpperBound>100</UpperBound>
										<value>-91445760000000000,50.,0,0,0,0,0,0</value>
									</parameter>
									<parameter authoringApp="PremierePro">
										<parameterid>53</parameterid>
										<name>Roundness</name>
										<IsTimeVarying>false</IsTimeVarying>
										<ParameterControlType>8</ParameterControlType>
										<LowerBound>-100</LowerBound>
										<UpperBound>100</UpperBound>
										<value>-91445760000000000,0.,0,0,0,0,0,0</value>
									</parameter>
									<parameter authoringApp="PremierePro">
										<parameterid>54</parameterid>
										<name>Feather</name>
										<IsTimeVarying>false</IsTimeVarying>
										<ParameterControlType>8</ParameterControlType>
										<LowerBound>0</LowerBound>
										<UpperBound>100</UpperBound>
										<value>-91445760000000000,50.,0,0,0,0,0,0</value>
									</parameter>
								</effect>
							</filter>
						<link>
							<linkclipref>clipitem-313</linkclipref>
							<mediatype>video</mediatype>
							<trackindex>2</trackindex>
							<clipindex>57</clipindex>
						</link>
						<link>
							<linkclipref>clipitem-562</linkclipref>
							<mediatype>audio</mediatype>
							<trackindex>1</trackindex>
							<clipindex>72</clipindex>
							<groupindex>1</groupindex>
						</link>
						<link>
							<linkclipref>clipitem-644</linkclipref>
							<mediatype>audio</mediatype>
							<trackindex>3</trackindex>
							<clipindex>56</clipindex>
							<groupindex>1</groupindex>
						</link>
						<logginginfo>
							<description></description>
							<scene></scene>
							<shottake></shottake>
							<lognote></lognote>
						</logginginfo>
						<labels>
							<label2>Caribbean</label2>
						</labels>
					</clipitem>
					<clipitem id="clipitem-314">
						<masterclipid>masterclip-196</masterclipid>
						<name>Aashild-august-Clip0207.MXF</name>
						<enabled>TRUE</enabled>
						<duration>3972</duration>
						<rate>
							<timebase>25</timebase>
							<ntsc>FALSE</ntsc>
						</rate>
						<start>34769</start>
						<end>34803</end>
						<in>415</in>
						<out>450</out>
						<pproTicksIn>4216665600000</pproTicksIn>
						<pproTicksOut>4572288000000</pproTicksOut>
						<alphatype>none</alphatype>
						<file id="file-196"/>
							<filter>
								<effect>
									<name></name>
									<effectid>Lumetri</effectid>
									<effecttype>filter</effecttype>
									<mediatype>video</mediatype>
									<parameter authoringApp="PremierePro">
										<parameterid>1</parameterid>
										<name>File Path</name>
										<hash>63866a15-9327-e4cb-ff31-c9ea0000000e</hash>
									</parameter>
									<parameter authoringApp="PremierePro">
										<parameterid>3</parameterid>
										<name> </name>
										<IsTimeVarying>false</IsTimeVarying>
										<ParameterControlType>4</ParameterControlType>
										<LowerBound>false</LowerBound>
										<UpperBound>true</UpperBound>
										<value>-91445760000000000,true,0,0,0,0,0,0</value>
									</parameter>
									<parameter authoringApp="PremierePro">
										<parameterid>4</parameterid>
										<name> </name>
										<hash>63866a15-9327-e4cb-ff31-c9ea0000000e</hash>
									</parameter>
									<parameter authoringApp="PremierePro">
										<parameterid>5</parameterid>
										<name>Input LUT</name>
										<IsTimeVarying>false</IsTimeVarying>
										<ParameterControlType>7</ParameterControlType>
										<LowerBound>0</LowerBound>
										<UpperBound>998</UpperBound>
										<value>-91445760000000000,0,0,0,0,0,0,0</value>
									</parameter>
									<parameter authoringApp="PremierePro">
										<parameterid>7</parameterid>
										<name>Temperature</name>
										<IsTimeVarying>false</IsTimeVarying>
										<ParameterControlType>8</ParameterControlType>
										<LowerBound>-150</LowerBound>
										<UpperBound>150</UpperBound>
										<LowerUIBound>-100</LowerUIBound>
										<UpperUIBound>100</UpperUIBound>
										<value>-91445760000000000,0.,0,0,0,0,0,0</value>
									</parameter>
									<parameter authoringApp="PremierePro">
										<parameterid>8</parameterid>
										<name>Tint</name>
										<IsTimeVarying>false</IsTimeVarying>
										<ParameterControlType>8</ParameterControlType>
										<LowerBound>-150</LowerBound>
										<UpperBound>150</UpperBound>
										<LowerUIBound>-100</LowerUIBound>
										<UpperUIBound>100</UpperUIBound>
										<value>-91445760000000000,0.,0,0,0,0,0,0</value>
									</parameter>
									<parameter authoringApp="PremierePro">
										<parameterid>11</parameterid>
										<name>Exposure</name>
										<IsTimeVarying>false</IsTimeVarying>
										<ParameterControlType>8</ParameterControlType>
										<LowerBound>-7</LowerBound>
										<UpperBound>7</UpperBound>
										<LowerUIBound>-5</LowerUIBound>
										<UpperUIBound>5</UpperUIBound>
										<value>-91445760000000000,0.60000002384185791015625,0,0,0,0,0,0</value>
									</parameter>
									<parameter authoringApp="PremierePro">
										<parameterid>12</parameterid>
										<name>Contrast</name>
										<IsTimeVarying>false</IsTimeVarying>
										<ParameterControlType>8</ParameterControlType>
										<LowerBound>-150</LowerBound>
										<UpperBound>150</UpperBound>
										<LowerUIBound>-100</LowerUIBound>
										<UpperUIBound>100</UpperUIBound>
										<value>-91445760000000000,59.975616455078125,0,0,0,0,0,0</value>
									</parameter>
									<parameter authoringApp="PremierePro">
										<parameterid>13</parameterid>
										<name>Highlights</name>
										<IsTimeVarying>false</IsTimeVarying>
										<ParameterControlType>8</ParameterControlType>
										<LowerBound>-150</LowerBound>
										<UpperBound>150</UpperBound>
										<LowerUIBound>-100</LowerUIBound>
										<UpperUIBound>100</UpperUIBound>
										<value>-91445760000000000,-51.,0,0,0,0,0,0</value>
									</parameter>
									<parameter authoringApp="PremierePro">
										<parameterid>14</parameterid>
										<name>Shadows</name>
										<IsTimeVarying>false</IsTimeVarying>
										<ParameterControlType>8</ParameterControlType>
										<LowerBound>-150</LowerBound>
										<UpperBound>150</UpperBound>
										<LowerUIBound>-100</LowerUIBound>
										<UpperUIBound>100</UpperUIBound>
										<value>-91445760000000000,-9.,0,0,0,0,0,0</value>
									</parameter>
									<parameter authoringApp="PremierePro">
										<parameterid>15</parameterid>
										<name>Whites</name>
										<IsTimeVarying>false</IsTimeVarying>
										<ParameterControlType>8</ParameterControlType>
										<LowerBound>-150</LowerBound>
										<UpperBound>150</UpperBound>
										<LowerUIBound>-100</LowerUIBound>
										<UpperUIBound>100</UpperUIBound>
										<value>-91445760000000000,-150.,0,0,0,0,0,0</value>
									</parameter>
									<parameter authoringApp="PremierePro">
										<parameterid>16</parameterid>
										<name>Blacks</name>
										<IsTimeVarying>false</IsTimeVarying>
										<ParameterControlType>8</ParameterControlType>
										<LowerBound>-150</LowerBound>
										<UpperBound>150</UpperBound>
										<LowerUIBound>-100</LowerUIBound>
										<UpperUIBound>100</UpperUIBound>
										<value>-91445760000000000,-82.95122528076171875,0,0,0,0,0,0</value>
									</parameter>
									<parameter authoringApp="PremierePro">
										<parameterid>20</parameterid>
										<name>Saturation</name>
										<IsTimeVarying>false</IsTimeVarying>
										<ParameterControlType>8</ParameterControlType>
										<LowerBound>0</LowerBound>
										<UpperBound>300</UpperBound>
										<UpperUIBound>200</UpperUIBound>
										<value>-91445760000000000,190.,0,0,0,0,0,0</value>
									</parameter>
									<parameter authoringApp="PremierePro">
										<parameterid>23</parameterid>
										<name> </name>
										<IsTimeVarying>false</IsTimeVarying>
										<ParameterControlType>4</ParameterControlType>
										<LowerBound>false</LowerBound>
										<UpperBound>true</UpperBound>
										<value>-91445760000000000,true,0,0,0,0,0,0</value>
									</parameter>
									<parameter authoringApp="PremierePro">
										<parameterid>24</parameterid>
										<name> </name>
										<hash>63866a15-9327-e4cb-ff31-c9ea0000000e</hash>
									</parameter>
									<parameter authoringApp="PremierePro">
										<parameterid>25</parameterid>
										<name>Look</name>
										<IsTimeVarying>false</IsTimeVarying>
										<ParameterControlType>7</ParameterControlType>
										<LowerBound>0</LowerBound>
										<UpperBound>998</UpperBound>
										<value>-91445760000000000,0,0,0,0,0,0,0</value>
									</parameter>
									<parameter authoringApp="PremierePro">
										<parameterid>26</parameterid>
										<name>Intensity</name>
										<IsTimeVarying>false</IsTimeVarying>
										<ParameterControlType>8</ParameterControlType>
										<LowerBound>0</LowerBound>
										<UpperBound>200</UpperBound>
										<value>-91445760000000000,100.,0,0,0,0,0,0</value>
									</parameter>
									<parameter authoringApp="PremierePro">
										<parameterid>28</parameterid>
										<name>Faded Film</name>
										<IsTimeVarying>false</IsTimeVarying>
										<ParameterControlType>8</ParameterControlType>
										<LowerBound>0</LowerBound>
										<UpperBound>150</UpperBound>
										<UpperUIBound>100</UpperUIBound>
										<value>-91445760000000000,0.,0,0,0,0,0,0</value>
									</parameter>
									<parameter authoringApp="PremierePro">
										<parameterid>29</parameterid>
										<name>Sharpen</name>
										<IsTimeVarying>false</IsTimeVarying>
										<ParameterControlType>8</ParameterControlType>
										<LowerBound>-100</LowerBound>
										<UpperBound>100</UpperBound>
										<value>-91445760000000000,0.,0,0,0,0,0,0</value>
									</parameter>
									<parameter authoringApp="PremierePro">
										<parameterid>30</parameterid>
										<name>Vibrance</name>
										<IsTimeVarying>false</IsTimeVarying>
										<ParameterControlType>8</ParameterControlType>
										<LowerBound>-100</LowerBound>
										<UpperBound>100</UpperBound>
										<value>-91445760000000000,0.,0,0,0,0,0,0</value>
									</parameter>
									<parameter authoringApp="PremierePro">
										<parameterid>31</parameterid>
										<name>Saturation</name>
										<IsTimeVarying>false</IsTimeVarying>
										<ParameterControlType>8</ParameterControlType>
										<LowerBound>0</LowerBound>
										<UpperBound>300</UpperBound>
										<UpperUIBound>200</UpperUIBound>
										<value>-91445760000000000,100.,0,0,0,0,0,0</value>
									</parameter>
									<parameter authoringApp="PremierePro">
										<parameterid>32</parameterid>
										<name></name>
										<hash>49d2fca5-ddd1-a393-0544-f6d80000002c</hash>
									</parameter>
									<parameter authoringApp="PremierePro">
										<parameterid>33</parameterid>
										<name>Tint Balance</name>
										<IsTimeVarying>false</IsTimeVarying>
										<ParameterControlType>8</ParameterControlType>
										<LowerBound>-150</LowerBound>
										<UpperBound>150</UpperBound>
										<LowerUIBound>-100</LowerUIBound>
										<UpperUIBound>100</UpperUIBound>
										<value>-91445760000000000,0.,0,0,0,0,0,0</value>
									</parameter>
									<parameter authoringApp="PremierePro">
										<parameterid>37</parameterid>
										<name> </name>
										<IsTimeVarying>false</IsTimeVarying>
										<ParameterControlType>4</ParameterControlType>
										<LowerBound>false</LowerBound>
										<UpperBound>true</UpperBound>
										<value>-91445760000000000,true,0,0,0,0,0,0</value>
									</parameter>
									<parameter authoringApp="PremierePro">
										<parameterid>39</parameterid>
										<name> </name>
										<hash>261f3840-e8cf-a8cd-fa5e-bac10000082c</hash>
									</parameter>
									<parameter authoringApp="PremierePro">
										<parameterid>42</parameterid>
										<name> </name>
										<hash>ccfaa4df-d630-7661-76dd-3e4900000214</hash>
									</parameter>
									<parameter authoringApp="PremierePro">
										<parameterid>46</parameterid>
										<name> </name>
										<IsTimeVarying>false</IsTimeVarying>
										<ParameterControlType>4</ParameterControlType>
										<LowerBound>false</LowerBound>
										<UpperBound>true</UpperBound>
										<value>-91445760000000000,true,0,0,0,0,0,0</value>
									</parameter>
									<parameter authoringApp="PremierePro">
										<parameterid>47</parameterid>
										<name> </name>
										<hash>0b5436c4-bae0-bb64-a2f6-c8c40000006c</hash>
									</parameter>
									<parameter authoringApp="PremierePro">
										<parameterid>50</parameterid>
										<name> </name>
										<IsTimeVarying>false</IsTimeVarying>
										<ParameterControlType>4</ParameterControlType>
										<LowerBound>false</LowerBound>
										<UpperBound>true</UpperBound>
										<value>-91445760000000000,true,0,0,0,0,0,0</value>
									</parameter>
									<parameter authoringApp="PremierePro">
										<parameterid>51</parameterid>
										<name>Amount</name>
										<IsTimeVarying>false</IsTimeVarying>
										<ParameterControlType>8</ParameterControlType>
										<LowerBound>-5</LowerBound>
										<UpperBound>5</UpperBound>
										<LowerUIBound>-3</LowerUIBound>
										<UpperUIBound>3</UpperUIBound>
										<value>-91445760000000000,0.,0,0,0,0,0,0</value>
									</parameter>
									<parameter authoringApp="PremierePro">
										<parameterid>52</parameterid>
										<name>Midpoint</name>
										<IsTimeVarying>false</IsTimeVarying>
										<ParameterControlType>8</ParameterControlType>
										<LowerBound>0</LowerBound>
										<UpperBound>100</UpperBound>
										<value>-91445760000000000,50.,0,0,0,0,0,0</value>
									</parameter>
									<parameter authoringApp="PremierePro">
										<parameterid>53</parameterid>
										<name>Roundness</name>
										<IsTimeVarying>false</IsTimeVarying>
										<ParameterControlType>8</ParameterControlType>
										<LowerBound>-100</LowerBound>
										<UpperBound>100</UpperBound>
										<value>-91445760000000000,0.,0,0,0,0,0,0</value>
									</parameter>
									<parameter authoringApp="PremierePro">
										<parameterid>54</parameterid>
										<name>Feather</name>
										<IsTimeVarying>false</IsTimeVarying>
										<ParameterControlType>8</ParameterControlType>
										<LowerBound>0</LowerBound>
										<UpperBound>100</UpperBound>
										<value>-91445760000000000,50.,0,0,0,0,0,0</value>
									</parameter>
								</effect>
							</filter>
						<link>
							<linkclipref>clipitem-314</linkclipref>
							<mediatype>video</mediatype>
							<trackindex>2</trackindex>
							<clipindex>58</clipindex>
						</link>
						<link>
							<linkclipref>clipitem-563</linkclipref>
							<mediatype>audio</mediatype>
							<trackindex>1</trackindex>
							<clipindex>73</clipindex>
							<groupindex>1</groupindex>
						</link>
						<link>
							<linkclipref>clipitem-645</linkclipref>
							<mediatype>audio</mediatype>
							<trackindex>3</trackindex>
							<clipindex>57</clipindex>
							<groupindex>1</groupindex>
						</link>
						<logginginfo>
							<description></description>
							<scene></scene>
							<shottake></shottake>
							<lognote></lognote>
						</logginginfo>
						<labels>
							<label2>Caribbean</label2>
						</labels>
					</clipitem>
					<clipitem id="clipitem-315">
						<masterclipid>masterclip-197</masterclipid>
						<name>Aashild-august-Clip0756.MXF</name>
						<enabled>TRUE</enabled>
						<duration>192</duration>
						<rate>
							<timebase>25</timebase>
							<ntsc>FALSE</ntsc>
						</rate>
						<start>34861</start>
						<end>34915</end>
						<in>2</in>
						<out>55</out>
						<pproTicksIn>20321280000</pproTicksIn>
						<pproTicksOut>558835200000</pproTicksOut>
						<alphatype>none</alphatype>
						<pixelaspectratio>square</pixelaspectratio>
						<anamorphic>FALSE</anamorphic>
						<file id="file-197">
							<name>Aashild-august-Clip0756.MXF</name>
							<pathurl>file://localhost/Volumes/Vaagen/Prosjekter/DVNA200216_OAO_Naturforskere_010118_OAO/Ra%cc%8astoff/A%cc%8ashild%20Pedersen/Svalbard%20august/Fs5/Aashild-august-Clip0756.MXF</pathurl>
							<rate>
								<timebase>50</timebase>
								<ntsc>FALSE</ntsc>
							</rate>
							<duration>384</duration>
							<timecode>
								<rate>
									<timebase>50</timebase>
									<ntsc>FALSE</ntsc>
								</rate>
								<string>08:56:20:32</string>
								<frame>1609032</frame>
								<displayformat>NDF</displayformat>
								<reel>
									<name></name>
								</reel>
							</timecode>
							<media>
								<video>
									<samplecharacteristics>
										<rate>
											<timebase>50</timebase>
											<ntsc>FALSE</ntsc>
										</rate>
										<width>1920</width>
										<height>1080</height>
										<anamorphic>FALSE</anamorphic>
										<pixelaspectratio>square</pixelaspectratio>
										<fielddominance>none</fielddominance>
									</samplecharacteristics>
								</video>
								<audio>
									<samplecharacteristics>
										<depth>16</depth>
										<samplerate>48000</samplerate>
									</samplecharacteristics>
									<channelcount>4</channelcount>
								</audio>
							</media>
						</file>
							<filter>
								<effect>
									<name></name>
									<effectid>Lumetri</effectid>
									<effecttype>filter</effecttype>
									<mediatype>video</mediatype>
									<parameter authoringApp="PremierePro">
										<parameterid>1</parameterid>
										<name>File Path</name>
										<hash>63866a15-9327-e4cb-ff31-c9ea0000000e</hash>
									</parameter>
									<parameter authoringApp="PremierePro">
										<parameterid>3</parameterid>
										<name> </name>
										<IsTimeVarying>false</IsTimeVarying>
										<ParameterControlType>4</ParameterControlType>
										<LowerBound>false</LowerBound>
										<UpperBound>true</UpperBound>
										<value>-91445760000000000,true,0,0,0,0,0,0</value>
									</parameter>
									<parameter authoringApp="PremierePro">
										<parameterid>4</parameterid>
										<name> </name>
										<hash>63866a15-9327-e4cb-ff31-c9ea0000000e</hash>
									</parameter>
									<parameter authoringApp="PremierePro">
										<parameterid>5</parameterid>
										<name>Input LUT</name>
										<IsTimeVarying>false</IsTimeVarying>
										<ParameterControlType>7</ParameterControlType>
										<LowerBound>0</LowerBound>
										<UpperBound>998</UpperBound>
										<value>-91445760000000000,0,0,0,0,0,0,0</value>
									</parameter>
									<parameter authoringApp="PremierePro">
										<parameterid>7</parameterid>
										<name>Temperature</name>
										<IsTimeVarying>false</IsTimeVarying>
										<ParameterControlType>8</ParameterControlType>
										<LowerBound>-150</LowerBound>
										<UpperBound>150</UpperBound>
										<LowerUIBound>-100</LowerUIBound>
										<UpperUIBound>100</UpperUIBound>
										<value>-91445760000000000,0.,0,0,0,0,0,0</value>
									</parameter>
									<parameter authoringApp="PremierePro">
										<parameterid>8</parameterid>
										<name>Tint</name>
										<IsTimeVarying>false</IsTimeVarying>
										<ParameterControlType>8</ParameterControlType>
										<LowerBound>-150</LowerBound>
										<UpperBound>150</UpperBound>
										<LowerUIBound>-100</LowerUIBound>
										<UpperUIBound>100</UpperUIBound>
										<value>-91445760000000000,0.,0,0,0,0,0,0</value>
									</parameter>
									<parameter authoringApp="PremierePro">
										<parameterid>11</parameterid>
										<name>Exposure</name>
										<IsTimeVarying>false</IsTimeVarying>
										<ParameterControlType>8</ParameterControlType>
										<LowerBound>-7</LowerBound>
										<UpperBound>7</UpperBound>
										<LowerUIBound>-5</LowerUIBound>
										<UpperUIBound>5</UpperUIBound>
										<value>-91445760000000000,0.60000002384185791015625,0,0,0,0,0,0</value>
									</parameter>
									<parameter authoringApp="PremierePro">
										<parameterid>12</parameterid>
										<name>Contrast</name>
										<IsTimeVarying>false</IsTimeVarying>
										<ParameterControlType>8</ParameterControlType>
										<LowerBound>-150</LowerBound>
										<UpperBound>150</UpperBound>
										<LowerUIBound>-100</LowerUIBound>
										<UpperUIBound>100</UpperUIBound>
										<value>-91445760000000000,59.975616455078125,0,0,0,0,0,0</value>
									</parameter>
									<parameter authoringApp="PremierePro">
										<parameterid>13</parameterid>
										<name>Highlights</name>
										<IsTimeVarying>false</IsTimeVarying>
										<ParameterControlType>8</ParameterControlType>
										<LowerBound>-150</LowerBound>
										<UpperBound>150</UpperBound>
										<LowerUIBound>-100</LowerUIBound>
										<UpperUIBound>100</UpperUIBound>
										<value>-91445760000000000,-51.,0,0,0,0,0,0</value>
									</parameter>
									<parameter authoringApp="PremierePro">
										<parameterid>14</parameterid>
										<name>Shadows</name>
										<IsTimeVarying>false</IsTimeVarying>
										<ParameterControlType>8</ParameterControlType>
										<LowerBound>-150</LowerBound>
										<UpperBound>150</UpperBound>
										<LowerUIBound>-100</LowerUIBound>
										<UpperUIBound>100</UpperUIBound>
										<value>-91445760000000000,-9.,0,0,0,0,0,0</value>
									</parameter>
									<parameter authoringApp="PremierePro">
										<parameterid>15</parameterid>
										<name>Whites</name>
										<IsTimeVarying>false</IsTimeVarying>
										<ParameterControlType>8</ParameterControlType>
										<LowerBound>-150</LowerBound>
										<UpperBound>150</UpperBound>
										<LowerUIBound>-100</LowerUIBound>
										<UpperUIBound>100</UpperUIBound>
										<value>-91445760000000000,-150.,0,0,0,0,0,0</value>
									</parameter>
									<parameter authoringApp="PremierePro">
										<parameterid>16</parameterid>
										<name>Blacks</name>
										<IsTimeVarying>false</IsTimeVarying>
										<ParameterControlType>8</ParameterControlType>
										<LowerBound>-150</LowerBound>
										<UpperBound>150</UpperBound>
										<LowerUIBound>-100</LowerUIBound>
										<UpperUIBound>100</UpperUIBound>
										<value>-91445760000000000,-82.95122528076171875,0,0,0,0,0,0</value>
									</parameter>
									<parameter authoringApp="PremierePro">
										<parameterid>20</parameterid>
										<name>Saturation</name>
										<IsTimeVarying>false</IsTimeVarying>
										<ParameterControlType>8</ParameterControlType>
										<LowerBound>0</LowerBound>
										<UpperBound>300</UpperBound>
										<UpperUIBound>200</UpperUIBound>
										<value>-91445760000000000,190.,0,0,0,0,0,0</value>
									</parameter>
									<parameter authoringApp="PremierePro">
										<parameterid>23</parameterid>
										<name> </name>
										<IsTimeVarying>false</IsTimeVarying>
										<ParameterControlType>4</ParameterControlType>
										<LowerBound>false</LowerBound>
										<UpperBound>true</UpperBound>
										<value>-91445760000000000,true,0,0,0,0,0,0</value>
									</parameter>
									<parameter authoringApp="PremierePro">
										<parameterid>24</parameterid>
										<name> </name>
										<hash>63866a15-9327-e4cb-ff31-c9ea0000000e</hash>
									</parameter>
									<parameter authoringApp="PremierePro">
										<parameterid>25</parameterid>
										<name>Look</name>
										<IsTimeVarying>false</IsTimeVarying>
										<ParameterControlType>7</ParameterControlType>
										<LowerBound>0</LowerBound>
										<UpperBound>998</UpperBound>
										<value>-91445760000000000,0,0,0,0,0,0,0</value>
									</parameter>
									<parameter authoringApp="PremierePro">
										<parameterid>26</parameterid>
										<name>Intensity</name>
										<IsTimeVarying>false</IsTimeVarying>
										<ParameterControlType>8</ParameterControlType>
										<LowerBound>0</LowerBound>
										<UpperBound>200</UpperBound>
										<value>-91445760000000000,100.,0,0,0,0,0,0</value>
									</parameter>
									<parameter authoringApp="PremierePro">
										<parameterid>28</parameterid>
										<name>Faded Film</name>
										<IsTimeVarying>false</IsTimeVarying>
										<ParameterControlType>8</ParameterControlType>
										<LowerBound>0</LowerBound>
										<UpperBound>150</UpperBound>
										<UpperUIBound>100</UpperUIBound>
										<value>-91445760000000000,0.,0,0,0,0,0,0</value>
									</parameter>
									<parameter authoringApp="PremierePro">
										<parameterid>29</parameterid>
										<name>Sharpen</name>
										<IsTimeVarying>false</IsTimeVarying>
										<ParameterControlType>8</ParameterControlType>
										<LowerBound>-100</LowerBound>
										<UpperBound>100</UpperBound>
										<value>-91445760000000000,0.,0,0,0,0,0,0</value>
									</parameter>
									<parameter authoringApp="PremierePro">
										<parameterid>30</parameterid>
										<name>Vibrance</name>
										<IsTimeVarying>false</IsTimeVarying>
										<ParameterControlType>8</ParameterControlType>
										<LowerBound>-100</LowerBound>
										<UpperBound>100</UpperBound>
										<value>-91445760000000000,0.,0,0,0,0,0,0</value>
									</parameter>
									<parameter authoringApp="PremierePro">
										<parameterid>31</parameterid>
										<name>Saturation</name>
										<IsTimeVarying>false</IsTimeVarying>
										<ParameterControlType>8</ParameterControlType>
										<LowerBound>0</LowerBound>
										<UpperBound>300</UpperBound>
										<UpperUIBound>200</UpperUIBound>
										<value>-91445760000000000,100.,0,0,0,0,0,0</value>
									</parameter>
									<parameter authoringApp="PremierePro">
										<parameterid>32</parameterid>
										<name></name>
										<hash>49d2fca5-ddd1-a393-0544-f6d80000002c</hash>
									</parameter>
									<parameter authoringApp="PremierePro">
										<parameterid>33</parameterid>
										<name>Tint Balance</name>
										<IsTimeVarying>false</IsTimeVarying>
										<ParameterControlType>8</ParameterControlType>
										<LowerBound>-150</LowerBound>
										<UpperBound>150</UpperBound>
										<LowerUIBound>-100</LowerUIBound>
										<UpperUIBound>100</UpperUIBound>
										<value>-91445760000000000,0.,0,0,0,0,0,0</value>
									</parameter>
									<parameter authoringApp="PremierePro">
										<parameterid>37</parameterid>
										<name> </name>
										<IsTimeVarying>false</IsTimeVarying>
										<ParameterControlType>4</ParameterControlType>
										<LowerBound>false</LowerBound>
										<UpperBound>true</UpperBound>
										<value>-91445760000000000,true,0,0,0,0,0,0</value>
									</parameter>
									<parameter authoringApp="PremierePro">
										<parameterid>39</parameterid>
										<name> </name>
										<hash>261f3840-e8cf-a8cd-fa5e-bac10000082c</hash>
									</parameter>
									<parameter authoringApp="PremierePro">
										<parameterid>42</parameterid>
										<name> </name>
										<hash>ccfaa4df-d630-7661-76dd-3e4900000214</hash>
									</parameter>
									<parameter authoringApp="PremierePro">
										<parameterid>46</parameterid>
										<name> </name>
										<IsTimeVarying>false</IsTimeVarying>
										<ParameterControlType>4</ParameterControlType>
										<LowerBound>false</LowerBound>
										<UpperBound>true</UpperBound>
										<value>-91445760000000000,true,0,0,0,0,0,0</value>
									</parameter>
									<parameter authoringApp="PremierePro">
										<parameterid>47</parameterid>
										<name> </name>
										<hash>0b5436c4-bae0-bb64-a2f6-c8c40000006c</hash>
									</parameter>
									<parameter authoringApp="PremierePro">
										<parameterid>50</parameterid>
										<name> </name>
										<IsTimeVarying>false</IsTimeVarying>
										<ParameterControlType>4</ParameterControlType>
										<LowerBound>false</LowerBound>
										<UpperBound>true</UpperBound>
										<value>-91445760000000000,true,0,0,0,0,0,0</value>
									</parameter>
									<parameter authoringApp="PremierePro">
										<parameterid>51</parameterid>
										<name>Amount</name>
										<IsTimeVarying>false</IsTimeVarying>
										<ParameterControlType>8</ParameterControlType>
										<LowerBound>-5</LowerBound>
										<UpperBound>5</UpperBound>
										<LowerUIBound>-3</LowerUIBound>
										<UpperUIBound>3</UpperUIBound>
										<value>-91445760000000000,0.,0,0,0,0,0,0</value>
									</parameter>
									<parameter authoringApp="PremierePro">
										<parameterid>52</parameterid>
										<name>Midpoint</name>
										<IsTimeVarying>false</IsTimeVarying>
										<ParameterControlType>8</ParameterControlType>
										<LowerBound>0</LowerBound>
										<UpperBound>100</UpperBound>
										<value>-91445760000000000,50.,0,0,0,0,0,0</value>
									</parameter>
									<parameter authoringApp="PremierePro">
										<parameterid>53</parameterid>
										<name>Roundness</name>
										<IsTimeVarying>false</IsTimeVarying>
										<ParameterControlType>8</ParameterControlType>
										<LowerBound>-100</LowerBound>
										<UpperBound>100</UpperBound>
										<value>-91445760000000000,0.,0,0,0,0,0,0</value>
									</parameter>
									<parameter authoringApp="PremierePro">
										<parameterid>54</parameterid>
										<name>Feather</name>
										<IsTimeVarying>false</IsTimeVarying>
										<ParameterControlType>8</ParameterControlType>
										<LowerBound>0</LowerBound>
										<UpperBound>100</UpperBound>
										<value>-91445760000000000,50.,0,0,0,0,0,0</value>
									</parameter>
								</effect>
							</filter>
						<link>
							<linkclipref>clipitem-315</linkclipref>
							<mediatype>video</mediatype>
							<trackindex>2</trackindex>
							<clipindex>59</clipindex>
						</link>
						<link>
							<linkclipref>clipitem-712</linkclipref>
							<mediatype>audio</mediatype>
							<trackindex>7</trackindex>
							<clipindex>23</clipindex>
							<groupindex>1</groupindex>
						</link>
						<logginginfo>
							<description></description>
							<scene></scene>
							<shottake></shottake>
							<lognote></lognote>
						</logginginfo>
						<labels>
							<label2>Caribbean</label2>
						</labels>
					</clipitem>
					<clipitem id="clipitem-316">
						<masterclipid>masterclip-198</masterclipid>
						<name>Aashild-august-Clip0753.MXF</name>
						<enabled>TRUE</enabled>
						<duration>1308</duration>
						<rate>
							<timebase>25</timebase>
							<ntsc>FALSE</ntsc>
						</rate>
						<start>34915</start>
						<end>34969</end>
						<in>127</in>
						<out>181</out>
						<pproTicksIn>1290401280000</pproTicksIn>
						<pproTicksOut>1839075840000</pproTicksOut>
						<alphatype>none</alphatype>
						<pixelaspectratio>square</pixelaspectratio>
						<anamorphic>FALSE</anamorphic>
						<file id="file-198">
							<name>Aashild-august-Clip0753.MXF</name>
							<pathurl>file://localhost/Volumes/Vaagen/Prosjekter/DVNA200216_OAO_Naturforskere_010118_OAO/Ra%cc%8astoff/A%cc%8ashild%20Pedersen/Svalbard%20august/Fs5/Aashild-august-Clip0753.MXF</pathurl>
							<rate>
								<timebase>50</timebase>
								<ntsc>FALSE</ntsc>
							</rate>
							<duration>2616</duration>
							<timecode>
								<rate>
									<timebase>50</timebase>
									<ntsc>FALSE</ntsc>
								</rate>
								<string>08:48:13:46</string>
								<frame>1584696</frame>
								<displayformat>NDF</displayformat>
								<reel>
									<name></name>
								</reel>
							</timecode>
							<media>
								<video>
									<samplecharacteristics>
										<rate>
											<timebase>50</timebase>
											<ntsc>FALSE</ntsc>
										</rate>
										<width>1920</width>
										<height>1080</height>
										<anamorphic>FALSE</anamorphic>
										<pixelaspectratio>square</pixelaspectratio>
										<fielddominance>none</fielddominance>
									</samplecharacteristics>
								</video>
								<audio>
									<samplecharacteristics>
										<depth>16</depth>
										<samplerate>48000</samplerate>
									</samplecharacteristics>
									<channelcount>4</channelcount>
								</audio>
							</media>
						</file>
							<filter>
								<effect>
									<name></name>
									<effectid>Lumetri</effectid>
									<effecttype>filter</effecttype>
									<mediatype>video</mediatype>
									<parameter authoringApp="PremierePro">
										<parameterid>1</parameterid>
										<name>File Path</name>
										<hash>63866a15-9327-e4cb-ff31-c9ea0000000e</hash>
									</parameter>
									<parameter authoringApp="PremierePro">
										<parameterid>3</parameterid>
										<name> </name>
										<IsTimeVarying>false</IsTimeVarying>
										<ParameterControlType>4</ParameterControlType>
										<LowerBound>false</LowerBound>
										<UpperBound>true</UpperBound>
										<value>-91445760000000000,true,0,0,0,0,0,0</value>
									</parameter>
									<parameter authoringApp="PremierePro">
										<parameterid>4</parameterid>
										<name> </name>
										<hash>63866a15-9327-e4cb-ff31-c9ea0000000e</hash>
									</parameter>
									<parameter authoringApp="PremierePro">
										<parameterid>5</parameterid>
										<name>Input LUT</name>
										<IsTimeVarying>false</IsTimeVarying>
										<ParameterControlType>7</ParameterControlType>
										<LowerBound>0</LowerBound>
										<UpperBound>998</UpperBound>
										<value>-91445760000000000,0,0,0,0,0,0,0</value>
									</parameter>
									<parameter authoringApp="PremierePro">
										<parameterid>7</parameterid>
										<name>Temperature</name>
										<IsTimeVarying>false</IsTimeVarying>
										<ParameterControlType>8</ParameterControlType>
										<LowerBound>-150</LowerBound>
										<UpperBound>150</UpperBound>
										<LowerUIBound>-100</LowerUIBound>
										<UpperUIBound>100</UpperUIBound>
										<value>-91445760000000000,0.,0,0,0,0,0,0</value>
									</parameter>
									<parameter authoringApp="PremierePro">
										<parameterid>8</parameterid>
										<name>Tint</name>
										<IsTimeVarying>false</IsTimeVarying>
										<ParameterControlType>8</ParameterControlType>
										<LowerBound>-150</LowerBound>
										<UpperBound>150</UpperBound>
										<LowerUIBound>-100</LowerUIBound>
										<UpperUIBound>100</UpperUIBound>
										<value>-91445760000000000,0.,0,0,0,0,0,0</value>
									</parameter>
									<parameter authoringApp="PremierePro">
										<parameterid>11</parameterid>
										<name>Exposure</name>
										<IsTimeVarying>false</IsTimeVarying>
										<ParameterControlType>8</ParameterControlType>
										<LowerBound>-7</LowerBound>
										<UpperBound>7</UpperBound>
										<LowerUIBound>-5</LowerUIBound>
										<UpperUIBound>5</UpperUIBound>
										<value>-91445760000000000,0.60000002384185791015625,0,0,0,0,0,0</value>
									</parameter>
									<parameter authoringApp="PremierePro">
										<parameterid>12</parameterid>
										<name>Contrast</name>
										<IsTimeVarying>false</IsTimeVarying>
										<ParameterControlType>8</ParameterControlType>
										<LowerBound>-150</LowerBound>
										<UpperBound>150</UpperBound>
										<LowerUIBound>-100</LowerUIBound>
										<UpperUIBound>100</UpperUIBound>
										<value>-91445760000000000,59.975616455078125,0,0,0,0,0,0</value>
									</parameter>
									<parameter authoringApp="PremierePro">
										<parameterid>13</parameterid>
										<name>Highlights</name>
										<IsTimeVarying>false</IsTimeVarying>
										<ParameterControlType>8</ParameterControlType>
										<LowerBound>-150</LowerBound>
										<UpperBound>150</UpperBound>
										<LowerUIBound>-100</LowerUIBound>
										<UpperUIBound>100</UpperUIBound>
										<value>-91445760000000000,-51.,0,0,0,0,0,0</value>
									</parameter>
									<parameter authoringApp="PremierePro">
										<parameterid>14</parameterid>
										<name>Shadows</name>
										<IsTimeVarying>false</IsTimeVarying>
										<ParameterControlType>8</ParameterControlType>
										<LowerBound>-150</LowerBound>
										<UpperBound>150</UpperBound>
										<LowerUIBound>-100</LowerUIBound>
										<UpperUIBound>100</UpperUIBound>
										<value>-91445760000000000,-9.,0,0,0,0,0,0</value>
									</parameter>
									<parameter authoringApp="PremierePro">
										<parameterid>15</parameterid>
										<name>Whites</name>
										<IsTimeVarying>false</IsTimeVarying>
										<ParameterControlType>8</ParameterControlType>
										<LowerBound>-150</LowerBound>
										<UpperBound>150</UpperBound>
										<LowerUIBound>-100</LowerUIBound>
										<UpperUIBound>100</UpperUIBound>
										<value>-91445760000000000,-150.,0,0,0,0,0,0</value>
									</parameter>
									<parameter authoringApp="PremierePro">
										<parameterid>16</parameterid>
										<name>Blacks</name>
										<IsTimeVarying>false</IsTimeVarying>
										<ParameterControlType>8</ParameterControlType>
										<LowerBound>-150</LowerBound>
										<UpperBound>150</UpperBound>
										<LowerUIBound>-100</LowerUIBound>
										<UpperUIBound>100</UpperUIBound>
										<value>-91445760000000000,-82.95122528076171875,0,0,0,0,0,0</value>
									</parameter>
									<parameter authoringApp="PremierePro">
										<parameterid>20</parameterid>
										<name>Saturation</name>
										<IsTimeVarying>false</IsTimeVarying>
										<ParameterControlType>8</ParameterControlType>
										<LowerBound>0</LowerBound>
										<UpperBound>300</UpperBound>
										<UpperUIBound>200</UpperUIBound>
										<value>-91445760000000000,190.,0,0,0,0,0,0</value>
									</parameter>
									<parameter authoringApp="PremierePro">
										<parameterid>23</parameterid>
										<name> </name>
										<IsTimeVarying>false</IsTimeVarying>
										<ParameterControlType>4</ParameterControlType>
										<LowerBound>false</LowerBound>
										<UpperBound>true</UpperBound>
										<value>-91445760000000000,true,0,0,0,0,0,0</value>
									</parameter>
									<parameter authoringApp="PremierePro">
										<parameterid>24</parameterid>
										<name> </name>
										<hash>63866a15-9327-e4cb-ff31-c9ea0000000e</hash>
									</parameter>
									<parameter authoringApp="PremierePro">
										<parameterid>25</parameterid>
										<name>Look</name>
										<IsTimeVarying>false</IsTimeVarying>
										<ParameterControlType>7</ParameterControlType>
										<LowerBound>0</LowerBound>
										<UpperBound>998</UpperBound>
										<value>-91445760000000000,0,0,0,0,0,0,0</value>
									</parameter>
									<parameter authoringApp="PremierePro">
										<parameterid>26</parameterid>
										<name>Intensity</name>
										<IsTimeVarying>false</IsTimeVarying>
										<ParameterControlType>8</ParameterControlType>
										<LowerBound>0</LowerBound>
										<UpperBound>200</UpperBound>
										<value>-91445760000000000,100.,0,0,0,0,0,0</value>
									</parameter>
									<parameter authoringApp="PremierePro">
										<parameterid>28</parameterid>
										<name>Faded Film</name>
										<IsTimeVarying>false</IsTimeVarying>
										<ParameterControlType>8</ParameterControlType>
										<LowerBound>0</LowerBound>
										<UpperBound>150</UpperBound>
										<UpperUIBound>100</UpperUIBound>
										<value>-91445760000000000,0.,0,0,0,0,0,0</value>
									</parameter>
									<parameter authoringApp="PremierePro">
										<parameterid>29</parameterid>
										<name>Sharpen</name>
										<IsTimeVarying>false</IsTimeVarying>
										<ParameterControlType>8</ParameterControlType>
										<LowerBound>-100</LowerBound>
										<UpperBound>100</UpperBound>
										<value>-91445760000000000,0.,0,0,0,0,0,0</value>
									</parameter>
									<parameter authoringApp="PremierePro">
										<parameterid>30</parameterid>
										<name>Vibrance</name>
										<IsTimeVarying>false</IsTimeVarying>
										<ParameterControlType>8</ParameterControlType>
										<LowerBound>-100</LowerBound>
										<UpperBound>100</UpperBound>
										<value>-91445760000000000,0.,0,0,0,0,0,0</value>
									</parameter>
									<parameter authoringApp="PremierePro">
										<parameterid>31</parameterid>
										<name>Saturation</name>
										<IsTimeVarying>false</IsTimeVarying>
										<ParameterControlType>8</ParameterControlType>
										<LowerBound>0</LowerBound>
										<UpperBound>300</UpperBound>
										<UpperUIBound>200</UpperUIBound>
										<value>-91445760000000000,100.,0,0,0,0,0,0</value>
									</parameter>
									<parameter authoringApp="PremierePro">
										<parameterid>32</parameterid>
										<name></name>
										<hash>49d2fca5-ddd1-a393-0544-f6d80000002c</hash>
									</parameter>
									<parameter authoringApp="PremierePro">
										<parameterid>33</parameterid>
										<name>Tint Balance</name>
										<IsTimeVarying>false</IsTimeVarying>
										<ParameterControlType>8</ParameterControlType>
										<LowerBound>-150</LowerBound>
										<UpperBound>150</UpperBound>
										<LowerUIBound>-100</LowerUIBound>
										<UpperUIBound>100</UpperUIBound>
										<value>-91445760000000000,0.,0,0,0,0,0,0</value>
									</parameter>
									<parameter authoringApp="PremierePro">
										<parameterid>37</parameterid>
										<name> </name>
										<IsTimeVarying>false</IsTimeVarying>
										<ParameterControlType>4</ParameterControlType>
										<LowerBound>false</LowerBound>
										<UpperBound>true</UpperBound>
										<value>-91445760000000000,true,0,0,0,0,0,0</value>
									</parameter>
									<parameter authoringApp="PremierePro">
										<parameterid>39</parameterid>
										<name> </name>
										<hash>261f3840-e8cf-a8cd-fa5e-bac10000082c</hash>
									</parameter>
									<parameter authoringApp="PremierePro">
										<parameterid>42</parameterid>
										<name> </name>
										<hash>ccfaa4df-d630-7661-76dd-3e4900000214</hash>
									</parameter>
									<parameter authoringApp="PremierePro">
										<parameterid>46</parameterid>
										<name> </name>
										<IsTimeVarying>false</IsTimeVarying>
										<ParameterControlType>4</ParameterControlType>
										<LowerBound>false</LowerBound>
										<UpperBound>true</UpperBound>
										<value>-91445760000000000,true,0,0,0,0,0,0</value>
									</parameter>
									<parameter authoringApp="PremierePro">
										<parameterid>47</parameterid>
										<name> </name>
										<hash>0b5436c4-bae0-bb64-a2f6-c8c40000006c</hash>
									</parameter>
									<parameter authoringApp="PremierePro">
										<parameterid>50</parameterid>
										<name> </name>
										<IsTimeVarying>false</IsTimeVarying>
										<ParameterControlType>4</ParameterControlType>
										<LowerBound>false</LowerBound>
										<UpperBound>true</UpperBound>
										<value>-91445760000000000,true,0,0,0,0,0,0</value>
									</parameter>
									<parameter authoringApp="PremierePro">
										<parameterid>51</parameterid>
										<name>Amount</name>
										<IsTimeVarying>false</IsTimeVarying>
										<ParameterControlType>8</ParameterControlType>
										<LowerBound>-5</LowerBound>
										<UpperBound>5</UpperBound>
										<LowerUIBound>-3</LowerUIBound>
										<UpperUIBound>3</UpperUIBound>
										<value>-91445760000000000,0.,0,0,0,0,0,0</value>
									</parameter>
									<parameter authoringApp="PremierePro">
										<parameterid>52</parameterid>
										<name>Midpoint</name>
										<IsTimeVarying>false</IsTimeVarying>
										<ParameterControlType>8</ParameterControlType>
										<LowerBound>0</LowerBound>
										<UpperBound>100</UpperBound>
										<value>-91445760000000000,50.,0,0,0,0,0,0</value>
									</parameter>
									<parameter authoringApp="PremierePro">
										<parameterid>53</parameterid>
										<name>Roundness</name>
										<IsTimeVarying>false</IsTimeVarying>
										<ParameterControlType>8</ParameterControlType>
										<LowerBound>-100</LowerBound>
										<UpperBound>100</UpperBound>
										<value>-91445760000000000,0.,0,0,0,0,0,0</value>
									</parameter>
									<parameter authoringApp="PremierePro">
										<parameterid>54</parameterid>
										<name>Feather</name>
										<IsTimeVarying>false</IsTimeVarying>
										<ParameterControlType>8</ParameterControlType>
										<LowerBound>0</LowerBound>
										<UpperBound>100</UpperBound>
										<value>-91445760000000000,50.,0,0,0,0,0,0</value>
									</parameter>
								</effect>
							</filter>
						<link>
							<linkclipref>clipitem-316</linkclipref>
							<mediatype>video</mediatype>
							<trackindex>2</trackindex>
							<clipindex>60</clipindex>
						</link>
						<link>
							<linkclipref>clipitem-713</linkclipref>
							<mediatype>audio</mediatype>
							<trackindex>7</trackindex>
							<clipindex>24</clipindex>
							<groupindex>1</groupindex>
						</link>
						<logginginfo>
							<description></description>
							<scene></scene>
							<shottake></shottake>
							<lognote></lognote>
						</logginginfo>
						<labels>
							<label2>Caribbean</label2>
						</labels>
					</clipitem>
					<clipitem id="clipitem-317">
						<masterclipid>masterclip-199</masterclipid>
						<name>Aashild-august-Clip0754.MXF</name>
						<enabled>TRUE</enabled>
						<duration>4668</duration>
						<rate>
							<timebase>25</timebase>
							<ntsc>FALSE</ntsc>
						</rate>
						<start>34969</start>
						<end>34998</end>
						<in>283</in>
						<out>312</out>
						<pproTicksIn>2875461120000</pproTicksIn>
						<pproTicksOut>3170119680000</pproTicksOut>
						<alphatype>none</alphatype>
						<pixelaspectratio>square</pixelaspectratio>
						<anamorphic>FALSE</anamorphic>
						<file id="file-199">
							<name>Aashild-august-Clip0754.MXF</name>
							<pathurl>file://localhost/Volumes/Vaagen/Prosjekter/DVNA200216_OAO_Naturforskere_010118_OAO/Ra%cc%8astoff/A%cc%8ashild%20Pedersen/Svalbard%20august/Fs5/Aashild-august-Clip0754.MXF</pathurl>
							<rate>
								<timebase>50</timebase>
								<ntsc>FALSE</ntsc>
							</rate>
							<duration>9336</duration>
							<timecode>
								<rate>
									<timebase>50</timebase>
									<ntsc>FALSE</ntsc>
								</rate>
								<string>08:49:06:12</string>
								<frame>1587312</frame>
								<displayformat>NDF</displayformat>
								<reel>
									<name></name>
								</reel>
							</timecode>
							<media>
								<video>
									<samplecharacteristics>
										<rate>
											<timebase>50</timebase>
											<ntsc>FALSE</ntsc>
										</rate>
										<width>1920</width>
										<height>1080</height>
										<anamorphic>FALSE</anamorphic>
										<pixelaspectratio>square</pixelaspectratio>
										<fielddominance>none</fielddominance>
									</samplecharacteristics>
								</video>
								<audio>
									<samplecharacteristics>
										<depth>16</depth>
										<samplerate>48000</samplerate>
									</samplecharacteristics>
									<channelcount>4</channelcount>
								</audio>
							</media>
						</file>
							<filter>
								<effect>
									<name></name>
									<effectid>Lumetri</effectid>
									<effecttype>filter</effecttype>
									<mediatype>video</mediatype>
									<parameter authoringApp="PremierePro">
										<parameterid>1</parameterid>
										<name>File Path</name>
										<hash>63866a15-9327-e4cb-ff31-c9ea0000000e</hash>
									</parameter>
									<parameter authoringApp="PremierePro">
										<parameterid>3</parameterid>
										<name> </name>
										<IsTimeVarying>false</IsTimeVarying>
										<ParameterControlType>4</ParameterControlType>
										<LowerBound>false</LowerBound>
										<UpperBound>true</UpperBound>
										<value>-91445760000000000,true,0,0,0,0,0,0</value>
									</parameter>
									<parameter authoringApp="PremierePro">
										<parameterid>4</parameterid>
										<name> </name>
										<hash>63866a15-9327-e4cb-ff31-c9ea0000000e</hash>
									</parameter>
									<parameter authoringApp="PremierePro">
										<parameterid>5</parameterid>
										<name>Input LUT</name>
										<IsTimeVarying>false</IsTimeVarying>
										<ParameterControlType>7</ParameterControlType>
										<LowerBound>0</LowerBound>
										<UpperBound>998</UpperBound>
										<value>-91445760000000000,0,0,0,0,0,0,0</value>
									</parameter>
									<parameter authoringApp="PremierePro">
										<parameterid>7</parameterid>
										<name>Temperature</name>
										<IsTimeVarying>false</IsTimeVarying>
										<ParameterControlType>8</ParameterControlType>
										<LowerBound>-150</LowerBound>
										<UpperBound>150</UpperBound>
										<LowerUIBound>-100</LowerUIBound>
										<UpperUIBound>100</UpperUIBound>
										<value>-91445760000000000,0.,0,0,0,0,0,0</value>
									</parameter>
									<parameter authoringApp="PremierePro">
										<parameterid>8</parameterid>
										<name>Tint</name>
										<IsTimeVarying>false</IsTimeVarying>
										<ParameterControlType>8</ParameterControlType>
										<LowerBound>-150</LowerBound>
										<UpperBound>150</UpperBound>
										<LowerUIBound>-100</LowerUIBound>
										<UpperUIBound>100</UpperUIBound>
										<value>-91445760000000000,0.,0,0,0,0,0,0</value>
									</parameter>
									<parameter authoringApp="PremierePro">
										<parameterid>11</parameterid>
										<name>Exposure</name>
										<IsTimeVarying>false</IsTimeVarying>
										<ParameterControlType>8</ParameterControlType>
										<LowerBound>-7</LowerBound>
										<UpperBound>7</UpperBound>
										<LowerUIBound>-5</LowerUIBound>
										<UpperUIBound>5</UpperUIBound>
										<value>-91445760000000000,0.60000002384185791015625,0,0,0,0,0,0</value>
									</parameter>
									<parameter authoringApp="PremierePro">
										<parameterid>12</parameterid>
										<name>Contrast</name>
										<IsTimeVarying>false</IsTimeVarying>
										<ParameterControlType>8</ParameterControlType>
										<LowerBound>-150</LowerBound>
										<UpperBound>150</UpperBound>
										<LowerUIBound>-100</LowerUIBound>
										<UpperUIBound>100</UpperUIBound>
										<value>-91445760000000000,59.975616455078125,0,0,0,0,0,0</value>
									</parameter>
									<parameter authoringApp="PremierePro">
										<parameterid>13</parameterid>
										<name>Highlights</name>
										<IsTimeVarying>false</IsTimeVarying>
										<ParameterControlType>8</ParameterControlType>
										<LowerBound>-150</LowerBound>
										<UpperBound>150</UpperBound>
										<LowerUIBound>-100</LowerUIBound>
										<UpperUIBound>100</UpperUIBound>
										<value>-91445760000000000,-51.,0,0,0,0,0,0</value>
									</parameter>
									<parameter authoringApp="PremierePro">
										<parameterid>14</parameterid>
										<name>Shadows</name>
										<IsTimeVarying>false</IsTimeVarying>
										<ParameterControlType>8</ParameterControlType>
										<LowerBound>-150</LowerBound>
										<UpperBound>150</UpperBound>
										<LowerUIBound>-100</LowerUIBound>
										<UpperUIBound>100</UpperUIBound>
										<value>-91445760000000000,-9.,0,0,0,0,0,0</value>
									</parameter>
									<parameter authoringApp="PremierePro">
										<parameterid>15</parameterid>
										<name>Whites</name>
										<IsTimeVarying>false</IsTimeVarying>
										<ParameterControlType>8</ParameterControlType>
										<LowerBound>-150</LowerBound>
										<UpperBound>150</UpperBound>
										<LowerUIBound>-100</LowerUIBound>
										<UpperUIBound>100</UpperUIBound>
										<value>-91445760000000000,-150.,0,0,0,0,0,0</value>
									</parameter>
									<parameter authoringApp="PremierePro">
										<parameterid>16</parameterid>
										<name>Blacks</name>
										<IsTimeVarying>false</IsTimeVarying>
										<ParameterControlType>8</ParameterControlType>
										<LowerBound>-150</LowerBound>
										<UpperBound>150</UpperBound>
										<LowerUIBound>-100</LowerUIBound>
										<UpperUIBound>100</UpperUIBound>
										<value>-91445760000000000,-82.95122528076171875,0,0,0,0,0,0</value>
									</parameter>
									<parameter authoringApp="PremierePro">
										<parameterid>20</parameterid>
										<name>Saturation</name>
										<IsTimeVarying>false</IsTimeVarying>
										<ParameterControlType>8</ParameterControlType>
										<LowerBound>0</LowerBound>
										<UpperBound>300</UpperBound>
										<UpperUIBound>200</UpperUIBound>
										<value>-91445760000000000,190.,0,0,0,0,0,0</value>
									</parameter>
									<parameter authoringApp="PremierePro">
										<parameterid>23</parameterid>
										<name> </name>
										<IsTimeVarying>false</IsTimeVarying>
										<ParameterControlType>4</ParameterControlType>
										<LowerBound>false</LowerBound>
										<UpperBound>true</UpperBound>
										<value>-91445760000000000,true,0,0,0,0,0,0</value>
									</parameter>
									<parameter authoringApp="PremierePro">
										<parameterid>24</parameterid>
										<name> </name>
										<hash>63866a15-9327-e4cb-ff31-c9ea0000000e</hash>
									</parameter>
									<parameter authoringApp="PremierePro">
										<parameterid>25</parameterid>
										<name>Look</name>
										<IsTimeVarying>false</IsTimeVarying>
										<ParameterControlType>7</ParameterControlType>
										<LowerBound>0</LowerBound>
										<UpperBound>998</UpperBound>
										<value>-91445760000000000,0,0,0,0,0,0,0</value>
									</parameter>
									<parameter authoringApp="PremierePro">
										<parameterid>26</parameterid>
										<name>Intensity</name>
										<IsTimeVarying>false</IsTimeVarying>
										<ParameterControlType>8</ParameterControlType>
										<LowerBound>0</LowerBound>
										<UpperBound>200</UpperBound>
										<value>-91445760000000000,100.,0,0,0,0,0,0</value>
									</parameter>
									<parameter authoringApp="PremierePro">
										<parameterid>28</parameterid>
										<name>Faded Film</name>
										<IsTimeVarying>false</IsTimeVarying>
										<ParameterControlType>8</ParameterControlType>
										<LowerBound>0</LowerBound>
										<UpperBound>150</UpperBound>
										<UpperUIBound>100</UpperUIBound>
										<value>-91445760000000000,0.,0,0,0,0,0,0</value>
									</parameter>
									<parameter authoringApp="PremierePro">
										<parameterid>29</parameterid>
										<name>Sharpen</name>
										<IsTimeVarying>false</IsTimeVarying>
										<ParameterControlType>8</ParameterControlType>
										<LowerBound>-100</LowerBound>
										<UpperBound>100</UpperBound>
										<value>-91445760000000000,0.,0,0,0,0,0,0</value>
									</parameter>
									<parameter authoringApp="PremierePro">
										<parameterid>30</parameterid>
										<name>Vibrance</name>
										<IsTimeVarying>false</IsTimeVarying>
										<ParameterControlType>8</ParameterControlType>
										<LowerBound>-100</LowerBound>
										<UpperBound>100</UpperBound>
										<value>-91445760000000000,0.,0,0,0,0,0,0</value>
									</parameter>
									<parameter authoringApp="PremierePro">
										<parameterid>31</parameterid>
										<name>Saturation</name>
										<IsTimeVarying>false</IsTimeVarying>
										<ParameterControlType>8</ParameterControlType>
										<LowerBound>0</LowerBound>
										<UpperBound>300</UpperBound>
										<UpperUIBound>200</UpperUIBound>
										<value>-91445760000000000,100.,0,0,0,0,0,0</value>
									</parameter>
									<parameter authoringApp="PremierePro">
										<parameterid>32</parameterid>
										<name></name>
										<hash>49d2fca5-ddd1-a393-0544-f6d80000002c</hash>
									</parameter>
									<parameter authoringApp="PremierePro">
										<parameterid>33</parameterid>
										<name>Tint Balance</name>
										<IsTimeVarying>false</IsTimeVarying>
										<ParameterControlType>8</ParameterControlType>
										<LowerBound>-150</LowerBound>
										<UpperBound>150</UpperBound>
										<LowerUIBound>-100</LowerUIBound>
										<UpperUIBound>100</UpperUIBound>
										<value>-91445760000000000,0.,0,0,0,0,0,0</value>
									</parameter>
									<parameter authoringApp="PremierePro">
										<parameterid>37</parameterid>
										<name> </name>
										<IsTimeVarying>false</IsTimeVarying>
										<ParameterControlType>4</ParameterControlType>
										<LowerBound>false</LowerBound>
										<UpperBound>true</UpperBound>
										<value>-91445760000000000,true,0,0,0,0,0,0</value>
									</parameter>
									<parameter authoringApp="PremierePro">
										<parameterid>39</parameterid>
										<name> </name>
										<hash>261f3840-e8cf-a8cd-fa5e-bac10000082c</hash>
									</parameter>
									<parameter authoringApp="PremierePro">
										<parameterid>42</parameterid>
										<name> </name>
										<hash>ccfaa4df-d630-7661-76dd-3e4900000214</hash>
									</parameter>
									<parameter authoringApp="PremierePro">
										<parameterid>46</parameterid>
										<name> </name>
										<IsTimeVarying>false</IsTimeVarying>
										<ParameterControlType>4</ParameterControlType>
										<LowerBound>false</LowerBound>
										<UpperBound>true</UpperBound>
										<value>-91445760000000000,true,0,0,0,0,0,0</value>
									</parameter>
									<parameter authoringApp="PremierePro">
										<parameterid>47</parameterid>
										<name> </name>
										<hash>0b5436c4-bae0-bb64-a2f6-c8c40000006c</hash>
									</parameter>
									<parameter authoringApp="PremierePro">
										<parameterid>50</parameterid>
										<name> </name>
										<IsTimeVarying>false</IsTimeVarying>
										<ParameterControlType>4</ParameterControlType>
										<LowerBound>false</LowerBound>
										<UpperBound>true</UpperBound>
										<value>-91445760000000000,true,0,0,0,0,0,0</value>
									</parameter>
									<parameter authoringApp="PremierePro">
										<parameterid>51</parameterid>
										<name>Amount</name>
										<IsTimeVarying>false</IsTimeVarying>
										<ParameterControlType>8</ParameterControlType>
										<LowerBound>-5</LowerBound>
										<UpperBound>5</UpperBound>
										<LowerUIBound>-3</LowerUIBound>
										<UpperUIBound>3</UpperUIBound>
										<value>-91445760000000000,0.,0,0,0,0,0,0</value>
									</parameter>
									<parameter authoringApp="PremierePro">
										<parameterid>52</parameterid>
										<name>Midpoint</name>
										<IsTimeVarying>false</IsTimeVarying>
										<ParameterControlType>8</ParameterControlType>
										<LowerBound>0</LowerBound>
										<UpperBound>100</UpperBound>
										<value>-91445760000000000,50.,0,0,0,0,0,0</value>
									</parameter>
									<parameter authoringApp="PremierePro">
										<parameterid>53</parameterid>
										<name>Roundness</name>
										<IsTimeVarying>false</IsTimeVarying>
										<ParameterControlType>8</ParameterControlType>
										<LowerBound>-100</LowerBound>
										<UpperBound>100</UpperBound>
										<value>-91445760000000000,0.,0,0,0,0,0,0</value>
									</parameter>
									<parameter authoringApp="PremierePro">
										<parameterid>54</parameterid>
										<name>Feather</name>
										<IsTimeVarying>false</IsTimeVarying>
										<ParameterControlType>8</ParameterControlType>
										<LowerBound>0</LowerBound>
										<UpperBound>100</UpperBound>
										<value>-91445760000000000,50.,0,0,0,0,0,0</value>
									</parameter>
								</effect>
							</filter>
						<link>
							<linkclipref>clipitem-317</linkclipref>
							<mediatype>video</mediatype>
							<trackindex>2</trackindex>
							<clipindex>61</clipindex>
						</link>
						<link>
							<linkclipref>clipitem-714</linkclipref>
							<mediatype>audio</mediatype>
							<trackindex>7</trackindex>
							<clipindex>25</clipindex>
							<groupindex>1</groupindex>
						</link>
						<logginginfo>
							<description></description>
							<scene></scene>
							<shottake></shottake>
							<lognote></lognote>
						</logginginfo>
						<labels>
							<label2>Caribbean</label2>
						</labels>
					</clipitem>
					<clipitem id="clipitem-318">
						<masterclipid>masterclip-199</masterclipid>
						<name>Aashild-august-Clip0754.MXF</name>
						<enabled>TRUE</enabled>
						<duration>4668</duration>
						<rate>
							<timebase>25</timebase>
							<ntsc>FALSE</ntsc>
						</rate>
						<start>34998</start>
						<end>35027</end>
						<in>410</in>
						<out>439</out>
						<pproTicksIn>4165862400000</pproTicksIn>
						<pproTicksOut>4460520960000</pproTicksOut>
						<alphatype>none</alphatype>
						<file id="file-199"/>
							<filter>
								<effect>
									<name></name>
									<effectid>Lumetri</effectid>
									<effecttype>filter</effecttype>
									<mediatype>video</mediatype>
									<parameter authoringApp="PremierePro">
										<parameterid>1</parameterid>
										<name>File Path</name>
										<hash>63866a15-9327-e4cb-ff31-c9ea0000000e</hash>
									</parameter>
									<parameter authoringApp="PremierePro">
										<parameterid>3</parameterid>
										<name> </name>
										<IsTimeVarying>false</IsTimeVarying>
										<ParameterControlType>4</ParameterControlType>
										<LowerBound>false</LowerBound>
										<UpperBound>true</UpperBound>
										<value>-91445760000000000,true,0,0,0,0,0,0</value>
									</parameter>
									<parameter authoringApp="PremierePro">
										<parameterid>4</parameterid>
										<name> </name>
										<hash>63866a15-9327-e4cb-ff31-c9ea0000000e</hash>
									</parameter>
									<parameter authoringApp="PremierePro">
										<parameterid>5</parameterid>
										<name>Input LUT</name>
										<IsTimeVarying>false</IsTimeVarying>
										<ParameterControlType>7</ParameterControlType>
										<LowerBound>0</LowerBound>
										<UpperBound>998</UpperBound>
										<value>-91445760000000000,0,0,0,0,0,0,0</value>
									</parameter>
									<parameter authoringApp="PremierePro">
										<parameterid>7</parameterid>
										<name>Temperature</name>
										<IsTimeVarying>false</IsTimeVarying>
										<ParameterControlType>8</ParameterControlType>
										<LowerBound>-150</LowerBound>
										<UpperBound>150</UpperBound>
										<LowerUIBound>-100</LowerUIBound>
										<UpperUIBound>100</UpperUIBound>
										<value>-91445760000000000,0.,0,0,0,0,0,0</value>
									</parameter>
									<parameter authoringApp="PremierePro">
										<parameterid>8</parameterid>
										<name>Tint</name>
										<IsTimeVarying>false</IsTimeVarying>
										<ParameterControlType>8</ParameterControlType>
										<LowerBound>-150</LowerBound>
										<UpperBound>150</UpperBound>
										<LowerUIBound>-100</LowerUIBound>
										<UpperUIBound>100</UpperUIBound>
										<value>-91445760000000000,0.,0,0,0,0,0,0</value>
									</parameter>
									<parameter authoringApp="PremierePro">
										<parameterid>11</parameterid>
										<name>Exposure</name>
										<IsTimeVarying>false</IsTimeVarying>
										<ParameterControlType>8</ParameterControlType>
										<LowerBound>-7</LowerBound>
										<UpperBound>7</UpperBound>
										<LowerUIBound>-5</LowerUIBound>
										<UpperUIBound>5</UpperUIBound>
										<value>-91445760000000000,0.,0,0,0,0,0,0</value>
									</parameter>
									<parameter authoringApp="PremierePro">
										<parameterid>12</parameterid>
										<name>Contrast</name>
										<IsTimeVarying>false</IsTimeVarying>
										<ParameterControlType>8</ParameterControlType>
										<LowerBound>-150</LowerBound>
										<UpperBound>150</UpperBound>
										<LowerUIBound>-100</LowerUIBound>
										<UpperUIBound>100</UpperUIBound>
										<value>-91445760000000000,59.975616455078125,0,0,0,0,0,0</value>
									</parameter>
									<parameter authoringApp="PremierePro">
										<parameterid>13</parameterid>
										<name>Highlights</name>
										<IsTimeVarying>false</IsTimeVarying>
										<ParameterControlType>8</ParameterControlType>
										<LowerBound>-150</LowerBound>
										<UpperBound>150</UpperBound>
										<LowerUIBound>-100</LowerUIBound>
										<UpperUIBound>100</UpperUIBound>
										<value>-91445760000000000,-51.,0,0,0,0,0,0</value>
									</parameter>
									<parameter authoringApp="PremierePro">
										<parameterid>14</parameterid>
										<name>Shadows</name>
										<IsTimeVarying>false</IsTimeVarying>
										<ParameterControlType>8</ParameterControlType>
										<LowerBound>-150</LowerBound>
										<UpperBound>150</UpperBound>
										<LowerUIBound>-100</LowerUIBound>
										<UpperUIBound>100</UpperUIBound>
										<value>-91445760000000000,-9.,0,0,0,0,0,0</value>
									</parameter>
									<parameter authoringApp="PremierePro">
										<parameterid>15</parameterid>
										<name>Whites</name>
										<IsTimeVarying>false</IsTimeVarying>
										<ParameterControlType>8</ParameterControlType>
										<LowerBound>-150</LowerBound>
										<UpperBound>150</UpperBound>
										<LowerUIBound>-100</LowerUIBound>
										<UpperUIBound>100</UpperUIBound>
										<value>-91445760000000000,-150.,0,0,0,0,0,0</value>
									</parameter>
									<parameter authoringApp="PremierePro">
										<parameterid>16</parameterid>
										<name>Blacks</name>
										<IsTimeVarying>false</IsTimeVarying>
										<ParameterControlType>8</ParameterControlType>
										<LowerBound>-150</LowerBound>
										<UpperBound>150</UpperBound>
										<LowerUIBound>-100</LowerUIBound>
										<UpperUIBound>100</UpperUIBound>
										<value>-91445760000000000,-82.95122528076171875,0,0,0,0,0,0</value>
									</parameter>
									<parameter authoringApp="PremierePro">
										<parameterid>20</parameterid>
										<name>Saturation</name>
										<IsTimeVarying>false</IsTimeVarying>
										<ParameterControlType>8</ParameterControlType>
										<LowerBound>0</LowerBound>
										<UpperBound>300</UpperBound>
										<UpperUIBound>200</UpperUIBound>
										<value>-91445760000000000,190.,0,0,0,0,0,0</value>
									</parameter>
									<parameter authoringApp="PremierePro">
										<parameterid>23</parameterid>
										<name> </name>
										<IsTimeVarying>false</IsTimeVarying>
										<ParameterControlType>4</ParameterControlType>
										<LowerBound>false</LowerBound>
										<UpperBound>true</UpperBound>
										<value>-91445760000000000,true,0,0,0,0,0,0</value>
									</parameter>
									<parameter authoringApp="PremierePro">
										<parameterid>24</parameterid>
										<name> </name>
										<hash>63866a15-9327-e4cb-ff31-c9ea0000000e</hash>
									</parameter>
									<parameter authoringApp="PremierePro">
										<parameterid>25</parameterid>
										<name>Look</name>
										<IsTimeVarying>false</IsTimeVarying>
										<ParameterControlType>7</ParameterControlType>
										<LowerBound>0</LowerBound>
										<UpperBound>998</UpperBound>
										<value>-91445760000000000,0,0,0,0,0,0,0</value>
									</parameter>
									<parameter authoringApp="PremierePro">
										<parameterid>26</parameterid>
										<name>Intensity</name>
										<IsTimeVarying>false</IsTimeVarying>
										<ParameterControlType>8</ParameterControlType>
										<LowerBound>0</LowerBound>
										<UpperBound>200</UpperBound>
										<value>-91445760000000000,100.,0,0,0,0,0,0</value>
									</parameter>
									<parameter authoringApp="PremierePro">
										<parameterid>28</parameterid>
										<name>Faded Film</name>
										<IsTimeVarying>false</IsTimeVarying>
										<ParameterControlType>8</ParameterControlType>
										<LowerBound>0</LowerBound>
										<UpperBound>150</UpperBound>
										<UpperUIBound>100</UpperUIBound>
										<value>-91445760000000000,0.,0,0,0,0,0,0</value>
									</parameter>
									<parameter authoringApp="PremierePro">
										<parameterid>29</parameterid>
										<name>Sharpen</name>
										<IsTimeVarying>false</IsTimeVarying>
										<ParameterControlType>8</ParameterControlType>
										<LowerBound>-100</LowerBound>
										<UpperBound>100</UpperBound>
										<value>-91445760000000000,0.,0,0,0,0,0,0</value>
									</parameter>
									<parameter authoringApp="PremierePro">
										<parameterid>30</parameterid>
										<name>Vibrance</name>
										<IsTimeVarying>false</IsTimeVarying>
										<ParameterControlType>8</ParameterControlType>
										<LowerBound>-100</LowerBound>
										<UpperBound>100</UpperBound>
										<value>-91445760000000000,0.,0,0,0,0,0,0</value>
									</parameter>
									<parameter authoringApp="PremierePro">
										<parameterid>31</parameterid>
										<name>Saturation</name>
										<IsTimeVarying>false</IsTimeVarying>
										<ParameterControlType>8</ParameterControlType>
										<LowerBound>0</LowerBound>
										<UpperBound>300</UpperBound>
										<UpperUIBound>200</UpperUIBound>
										<value>-91445760000000000,100.,0,0,0,0,0,0</value>
									</parameter>
									<parameter authoringApp="PremierePro">
										<parameterid>32</parameterid>
										<name></name>
										<hash>49d2fca5-ddd1-a393-0544-f6d80000002c</hash>
									</parameter>
									<parameter authoringApp="PremierePro">
										<parameterid>33</parameterid>
										<name>Tint Balance</name>
										<IsTimeVarying>false</IsTimeVarying>
										<ParameterControlType>8</ParameterControlType>
										<LowerBound>-150</LowerBound>
										<UpperBound>150</UpperBound>
										<LowerUIBound>-100</LowerUIBound>
										<UpperUIBound>100</UpperUIBound>
										<value>-91445760000000000,0.,0,0,0,0,0,0</value>
									</parameter>
									<parameter authoringApp="PremierePro">
										<parameterid>37</parameterid>
										<name> </name>
										<IsTimeVarying>false</IsTimeVarying>
										<ParameterControlType>4</ParameterControlType>
										<LowerBound>false</LowerBound>
										<UpperBound>true</UpperBound>
										<value>-91445760000000000,true,0,0,0,0,0,0</value>
									</parameter>
									<parameter authoringApp="PremierePro">
										<parameterid>39</parameterid>
										<name> </name>
										<hash>261f3840-e8cf-a8cd-fa5e-bac10000082c</hash>
									</parameter>
									<parameter authoringApp="PremierePro">
										<parameterid>42</parameterid>
										<name> </name>
										<hash>ccfaa4df-d630-7661-76dd-3e4900000214</hash>
									</parameter>
									<parameter authoringApp="PremierePro">
										<parameterid>46</parameterid>
										<name> </name>
										<IsTimeVarying>false</IsTimeVarying>
										<ParameterControlType>4</ParameterControlType>
										<LowerBound>false</LowerBound>
										<UpperBound>true</UpperBound>
										<value>-91445760000000000,true,0,0,0,0,0,0</value>
									</parameter>
									<parameter authoringApp="PremierePro">
										<parameterid>47</parameterid>
										<name> </name>
										<hash>0b5436c4-bae0-bb64-a2f6-c8c40000006c</hash>
									</parameter>
									<parameter authoringApp="PremierePro">
										<parameterid>50</parameterid>
										<name> </name>
										<IsTimeVarying>false</IsTimeVarying>
										<ParameterControlType>4</ParameterControlType>
										<LowerBound>false</LowerBound>
										<UpperBound>true</UpperBound>
										<value>-91445760000000000,true,0,0,0,0,0,0</value>
									</parameter>
									<parameter authoringApp="PremierePro">
										<parameterid>51</parameterid>
										<name>Amount</name>
										<IsTimeVarying>false</IsTimeVarying>
										<ParameterControlType>8</ParameterControlType>
										<LowerBound>-5</LowerBound>
										<UpperBound>5</UpperBound>
										<LowerUIBound>-3</LowerUIBound>
										<UpperUIBound>3</UpperUIBound>
										<value>-91445760000000000,0.,0,0,0,0,0,0</value>
									</parameter>
									<parameter authoringApp="PremierePro">
										<parameterid>52</parameterid>
										<name>Midpoint</name>
										<IsTimeVarying>false</IsTimeVarying>
										<ParameterControlType>8</ParameterControlType>
										<LowerBound>0</LowerBound>
										<UpperBound>100</UpperBound>
										<value>-91445760000000000,50.,0,0,0,0,0,0</value>
									</parameter>
									<parameter authoringApp="PremierePro">
										<parameterid>53</parameterid>
										<name>Roundness</name>
										<IsTimeVarying>false</IsTimeVarying>
										<ParameterControlType>8</ParameterControlType>
										<LowerBound>-100</LowerBound>
										<UpperBound>100</UpperBound>
										<value>-91445760000000000,0.,0,0,0,0,0,0</value>
									</parameter>
									<parameter authoringApp="PremierePro">
										<parameterid>54</parameterid>
										<name>Feather</name>
										<IsTimeVarying>false</IsTimeVarying>
										<ParameterControlType>8</ParameterControlType>
										<LowerBound>0</LowerBound>
										<UpperBound>100</UpperBound>
										<value>-91445760000000000,50.,0,0,0,0,0,0</value>
									</parameter>
								</effect>
							</filter>
						<link>
							<linkclipref>clipitem-318</linkclipref>
							<mediatype>video</mediatype>
							<trackindex>2</trackindex>
							<clipindex>62</clipindex>
						</link>
						<link>
							<linkclipref>clipitem-715</linkclipref>
							<mediatype>audio</mediatype>
							<trackindex>7</trackindex>
							<clipindex>26</clipindex>
							<groupindex>1</groupindex>
						</link>
						<logginginfo>
							<description></description>
							<scene></scene>
							<shottake></shottake>
							<lognote></lognote>
						</logginginfo>
						<labels>
							<label2>Caribbean</label2>
						</labels>
					</clipitem>
					<clipitem id="clipitem-319">
						<masterclipid>masterclip-199</masterclipid>
						<name>Aashild-august-Clip0754.MXF</name>
						<enabled>TRUE</enabled>
						<duration>4668</duration>
						<rate>
							<timebase>25</timebase>
							<ntsc>FALSE</ntsc>
						</rate>
						<start>35027</start>
						<end>35061</end>
						<in>3694</in>
						<out>3728</out>
						<pproTicksIn>37533404160000</pproTicksIn>
						<pproTicksOut>37878865920000</pproTicksOut>
						<alphatype>none</alphatype>
						<file id="file-199"/>
							<filter>
								<effect>
									<name></name>
									<effectid>Lumetri</effectid>
									<effecttype>filter</effecttype>
									<mediatype>video</mediatype>
									<parameter authoringApp="PremierePro">
										<parameterid>1</parameterid>
										<name>File Path</name>
										<hash>63866a15-9327-e4cb-ff31-c9ea0000000e</hash>
									</parameter>
									<parameter authoringApp="PremierePro">
										<parameterid>3</parameterid>
										<name> </name>
										<IsTimeVarying>false</IsTimeVarying>
										<ParameterControlType>4</ParameterControlType>
										<LowerBound>false</LowerBound>
										<UpperBound>true</UpperBound>
										<value>-91445760000000000,true,0,0,0,0,0,0</value>
									</parameter>
									<parameter authoringApp="PremierePro">
										<parameterid>4</parameterid>
										<name> </name>
										<hash>63866a15-9327-e4cb-ff31-c9ea0000000e</hash>
									</parameter>
									<parameter authoringApp="PremierePro">
										<parameterid>5</parameterid>
										<name>Input LUT</name>
										<IsTimeVarying>false</IsTimeVarying>
										<ParameterControlType>7</ParameterControlType>
										<LowerBound>0</LowerBound>
										<UpperBound>998</UpperBound>
										<value>-91445760000000000,0,0,0,0,0,0,0</value>
									</parameter>
									<parameter authoringApp="PremierePro">
										<parameterid>7</parameterid>
										<name>Temperature</name>
										<IsTimeVarying>false</IsTimeVarying>
										<ParameterControlType>8</ParameterControlType>
										<LowerBound>-150</LowerBound>
										<UpperBound>150</UpperBound>
										<LowerUIBound>-100</LowerUIBound>
										<UpperUIBound>100</UpperUIBound>
										<value>-91445760000000000,0.,0,0,0,0,0,0</value>
									</parameter>
									<parameter authoringApp="PremierePro">
										<parameterid>8</parameterid>
										<name>Tint</name>
										<IsTimeVarying>false</IsTimeVarying>
										<ParameterControlType>8</ParameterControlType>
										<LowerBound>-150</LowerBound>
										<UpperBound>150</UpperBound>
										<LowerUIBound>-100</LowerUIBound>
										<UpperUIBound>100</UpperUIBound>
										<value>-91445760000000000,0.,0,0,0,0,0,0</value>
									</parameter>
									<parameter authoringApp="PremierePro">
										<parameterid>11</parameterid>
										<name>Exposure</name>
										<IsTimeVarying>false</IsTimeVarying>
										<ParameterControlType>8</ParameterControlType>
										<LowerBound>-7</LowerBound>
										<UpperBound>7</UpperBound>
										<LowerUIBound>-5</LowerUIBound>
										<UpperUIBound>5</UpperUIBound>
										<value>-91445760000000000,0.,0,0,0,0,0,0</value>
									</parameter>
									<parameter authoringApp="PremierePro">
										<parameterid>12</parameterid>
										<name>Contrast</name>
										<IsTimeVarying>false</IsTimeVarying>
										<ParameterControlType>8</ParameterControlType>
										<LowerBound>-150</LowerBound>
										<UpperBound>150</UpperBound>
										<LowerUIBound>-100</LowerUIBound>
										<UpperUIBound>100</UpperUIBound>
										<value>-91445760000000000,59.975616455078125,0,0,0,0,0,0</value>
									</parameter>
									<parameter authoringApp="PremierePro">
										<parameterid>13</parameterid>
										<name>Highlights</name>
										<IsTimeVarying>false</IsTimeVarying>
										<ParameterControlType>8</ParameterControlType>
										<LowerBound>-150</LowerBound>
										<UpperBound>150</UpperBound>
										<LowerUIBound>-100</LowerUIBound>
										<UpperUIBound>100</UpperUIBound>
										<value>-91445760000000000,-51.,0,0,0,0,0,0</value>
									</parameter>
									<parameter authoringApp="PremierePro">
										<parameterid>14</parameterid>
										<name>Shadows</name>
										<IsTimeVarying>false</IsTimeVarying>
										<ParameterControlType>8</ParameterControlType>
										<LowerBound>-150</LowerBound>
										<UpperBound>150</UpperBound>
										<LowerUIBound>-100</LowerUIBound>
										<UpperUIBound>100</UpperUIBound>
										<value>-91445760000000000,-9.,0,0,0,0,0,0</value>
									</parameter>
									<parameter authoringApp="PremierePro">
										<parameterid>15</parameterid>
										<name>Whites</name>
										<IsTimeVarying>false</IsTimeVarying>
										<ParameterControlType>8</ParameterControlType>
										<LowerBound>-150</LowerBound>
										<UpperBound>150</UpperBound>
										<LowerUIBound>-100</LowerUIBound>
										<UpperUIBound>100</UpperUIBound>
										<value>-91445760000000000,-150.,0,0,0,0,0,0</value>
									</parameter>
									<parameter authoringApp="PremierePro">
										<parameterid>16</parameterid>
										<name>Blacks</name>
										<IsTimeVarying>false</IsTimeVarying>
										<ParameterControlType>8</ParameterControlType>
										<LowerBound>-150</LowerBound>
										<UpperBound>150</UpperBound>
										<LowerUIBound>-100</LowerUIBound>
										<UpperUIBound>100</UpperUIBound>
										<value>-91445760000000000,-82.95122528076171875,0,0,0,0,0,0</value>
									</parameter>
									<parameter authoringApp="PremierePro">
										<parameterid>20</parameterid>
										<name>Saturation</name>
										<IsTimeVarying>false</IsTimeVarying>
										<ParameterControlType>8</ParameterControlType>
										<LowerBound>0</LowerBound>
										<UpperBound>300</UpperBound>
										<UpperUIBound>200</UpperUIBound>
										<value>-91445760000000000,190.,0,0,0,0,0,0</value>
									</parameter>
									<parameter authoringApp="PremierePro">
										<parameterid>23</parameterid>
										<name> </name>
										<IsTimeVarying>false</IsTimeVarying>
										<ParameterControlType>4</ParameterControlType>
										<LowerBound>false</LowerBound>
										<UpperBound>true</UpperBound>
										<value>-91445760000000000,true,0,0,0,0,0,0</value>
									</parameter>
									<parameter authoringApp="PremierePro">
										<parameterid>24</parameterid>
										<name> </name>
										<hash>63866a15-9327-e4cb-ff31-c9ea0000000e</hash>
									</parameter>
									<parameter authoringApp="PremierePro">
										<parameterid>25</parameterid>
										<name>Look</name>
										<IsTimeVarying>false</IsTimeVarying>
										<ParameterControlType>7</ParameterControlType>
										<LowerBound>0</LowerBound>
										<UpperBound>998</UpperBound>
										<value>-91445760000000000,0,0,0,0,0,0,0</value>
									</parameter>
									<parameter authoringApp="PremierePro">
										<parameterid>26</parameterid>
										<name>Intensity</name>
										<IsTimeVarying>false</IsTimeVarying>
										<ParameterControlType>8</ParameterControlType>
										<LowerBound>0</LowerBound>
										<UpperBound>200</UpperBound>
										<value>-91445760000000000,100.,0,0,0,0,0,0</value>
									</parameter>
									<parameter authoringApp="PremierePro">
										<parameterid>28</parameterid>
										<name>Faded Film</name>
										<IsTimeVarying>false</IsTimeVarying>
										<ParameterControlType>8</ParameterControlType>
										<LowerBound>0</LowerBound>
										<UpperBound>150</UpperBound>
										<UpperUIBound>100</UpperUIBound>
										<value>-91445760000000000,0.,0,0,0,0,0,0</value>
									</parameter>
									<parameter authoringApp="PremierePro">
										<parameterid>29</parameterid>
										<name>Sharpen</name>
										<IsTimeVarying>false</IsTimeVarying>
										<ParameterControlType>8</ParameterControlType>
										<LowerBound>-100</LowerBound>
										<UpperBound>100</UpperBound>
										<value>-91445760000000000,0.,0,0,0,0,0,0</value>
									</parameter>
									<parameter authoringApp="PremierePro">
										<parameterid>30</parameterid>
										<name>Vibrance</name>
										<IsTimeVarying>false</IsTimeVarying>
										<ParameterControlType>8</ParameterControlType>
										<LowerBound>-100</LowerBound>
										<UpperBound>100</UpperBound>
										<value>-91445760000000000,0.,0,0,0,0,0,0</value>
									</parameter>
									<parameter authoringApp="PremierePro">
										<parameterid>31</parameterid>
										<name>Saturation</name>
										<IsTimeVarying>false</IsTimeVarying>
										<ParameterControlType>8</ParameterControlType>
										<LowerBound>0</LowerBound>
										<UpperBound>300</UpperBound>
										<UpperUIBound>200</UpperUIBound>
										<value>-91445760000000000,100.,0,0,0,0,0,0</value>
									</parameter>
									<parameter authoringApp="PremierePro">
										<parameterid>32</parameterid>
										<name></name>
										<hash>49d2fca5-ddd1-a393-0544-f6d80000002c</hash>
									</parameter>
									<parameter authoringApp="PremierePro">
										<parameterid>33</parameterid>
										<name>Tint Balance</name>
										<IsTimeVarying>false</IsTimeVarying>
										<ParameterControlType>8</ParameterControlType>
										<LowerBound>-150</LowerBound>
										<UpperBound>150</UpperBound>
										<LowerUIBound>-100</LowerUIBound>
										<UpperUIBound>100</UpperUIBound>
										<value>-91445760000000000,0.,0,0,0,0,0,0</value>
									</parameter>
									<parameter authoringApp="PremierePro">
										<parameterid>37</parameterid>
										<name> </name>
										<IsTimeVarying>false</IsTimeVarying>
										<ParameterControlType>4</ParameterControlType>
										<LowerBound>false</LowerBound>
										<UpperBound>true</UpperBound>
										<value>-91445760000000000,true,0,0,0,0,0,0</value>
									</parameter>
									<parameter authoringApp="PremierePro">
										<parameterid>39</parameterid>
										<name> </name>
										<hash>261f3840-e8cf-a8cd-fa5e-bac10000082c</hash>
									</parameter>
									<parameter authoringApp="PremierePro">
										<parameterid>42</parameterid>
										<name> </name>
										<hash>ccfaa4df-d630-7661-76dd-3e4900000214</hash>
									</parameter>
									<parameter authoringApp="PremierePro">
										<parameterid>46</parameterid>
										<name> </name>
										<IsTimeVarying>false</IsTimeVarying>
										<ParameterControlType>4</ParameterControlType>
										<LowerBound>false</LowerBound>
										<UpperBound>true</UpperBound>
										<value>-91445760000000000,true,0,0,0,0,0,0</value>
									</parameter>
									<parameter authoringApp="PremierePro">
										<parameterid>47</parameterid>
										<name> </name>
										<hash>0b5436c4-bae0-bb64-a2f6-c8c40000006c</hash>
									</parameter>
									<parameter authoringApp="PremierePro">
										<parameterid>50</parameterid>
										<name> </name>
										<IsTimeVarying>false</IsTimeVarying>
										<ParameterControlType>4</ParameterControlType>
										<LowerBound>false</LowerBound>
										<UpperBound>true</UpperBound>
										<value>-91445760000000000,true,0,0,0,0,0,0</value>
									</parameter>
									<parameter authoringApp="PremierePro">
										<parameterid>51</parameterid>
										<name>Amount</name>
										<IsTimeVarying>false</IsTimeVarying>
										<ParameterControlType>8</ParameterControlType>
										<LowerBound>-5</LowerBound>
										<UpperBound>5</UpperBound>
										<LowerUIBound>-3</LowerUIBound>
										<UpperUIBound>3</UpperUIBound>
										<value>-91445760000000000,0.,0,0,0,0,0,0</value>
									</parameter>
									<parameter authoringApp="PremierePro">
										<parameterid>52</parameterid>
										<name>Midpoint</name>
										<IsTimeVarying>false</IsTimeVarying>
										<ParameterControlType>8</ParameterControlType>
										<LowerBound>0</LowerBound>
										<UpperBound>100</UpperBound>
										<value>-91445760000000000,50.,0,0,0,0,0,0</value>
									</parameter>
									<parameter authoringApp="PremierePro">
										<parameterid>53</parameterid>
										<name>Roundness</name>
										<IsTimeVarying>false</IsTimeVarying>
										<ParameterControlType>8</ParameterControlType>
										<LowerBound>-100</LowerBound>
										<UpperBound>100</UpperBound>
										<value>-91445760000000000,0.,0,0,0,0,0,0</value>
									</parameter>
									<parameter authoringApp="PremierePro">
										<parameterid>54</parameterid>
										<name>Feather</name>
										<IsTimeVarying>false</IsTimeVarying>
										<ParameterControlType>8</ParameterControlType>
										<LowerBound>0</LowerBound>
										<UpperBound>100</UpperBound>
										<value>-91445760000000000,50.,0,0,0,0,0,0</value>
									</parameter>
								</effect>
							</filter>
						<link>
							<linkclipref>clipitem-319</linkclipref>
							<mediatype>video</mediatype>
							<trackindex>2</trackindex>
							<clipindex>63</clipindex>
						</link>
						<link>
							<linkclipref>clipitem-716</linkclipref>
							<mediatype>audio</mediatype>
							<trackindex>7</trackindex>
							<clipindex>27</clipindex>
							<groupindex>1</groupindex>
						</link>
						<logginginfo>
							<description></description>
							<scene></scene>
							<shottake></shottake>
							<lognote></lognote>
						</logginginfo>
						<labels>
							<label2>Caribbean</label2>
						</labels>
					</clipitem>
					<clipitem id="clipitem-320">
						<masterclipid>masterclip-200</masterclipid>
						<name>Aashild-august-Clip0755.MXF</name>
						<enabled>TRUE</enabled>
						<duration>6192</duration>
						<rate>
							<timebase>25</timebase>
							<ntsc>FALSE</ntsc>
						</rate>
						<start>35061</start>
						<end>35104</end>
						<in>4125</in>
						<out>4168</out>
						<pproTicksIn>41912640000000</pproTicksIn>
						<pproTicksOut>42349547520000</pproTicksOut>
						<alphatype>none</alphatype>
						<pixelaspectratio>square</pixelaspectratio>
						<anamorphic>FALSE</anamorphic>
						<file id="file-200">
							<name>Aashild-august-Clip0755.MXF</name>
							<pathurl>file://localhost/Volumes/Vaagen/Prosjekter/DVNA200216_OAO_Naturforskere_010118_OAO/Ra%cc%8astoff/A%cc%8ashild%20Pedersen/Svalbard%20august/Fs5/Aashild-august-Clip0755.MXF</pathurl>
							<rate>
								<timebase>50</timebase>
								<ntsc>FALSE</ntsc>
							</rate>
							<duration>12384</duration>
							<timecode>
								<rate>
									<timebase>50</timebase>
									<ntsc>FALSE</ntsc>
								</rate>
								<string>08:52:12:48</string>
								<frame>1596648</frame>
								<displayformat>NDF</displayformat>
								<reel>
									<name></name>
								</reel>
							</timecode>
							<media>
								<video>
									<samplecharacteristics>
										<rate>
											<timebase>50</timebase>
											<ntsc>FALSE</ntsc>
										</rate>
										<width>1920</width>
										<height>1080</height>
										<anamorphic>FALSE</anamorphic>
										<pixelaspectratio>square</pixelaspectratio>
										<fielddominance>none</fielddominance>
									</samplecharacteristics>
								</video>
								<audio>
									<samplecharacteristics>
										<depth>16</depth>
										<samplerate>48000</samplerate>
									</samplecharacteristics>
									<channelcount>4</channelcount>
								</audio>
							</media>
						</file>
							<filter>
								<effect>
									<name></name>
									<effectid>Lumetri</effectid>
									<effecttype>filter</effecttype>
									<mediatype>video</mediatype>
									<parameter authoringApp="PremierePro">
										<parameterid>1</parameterid>
										<name>File Path</name>
										<hash>63866a15-9327-e4cb-ff31-c9ea0000000e</hash>
									</parameter>
									<parameter authoringApp="PremierePro">
										<parameterid>3</parameterid>
										<name> </name>
										<IsTimeVarying>false</IsTimeVarying>
										<ParameterControlType>4</ParameterControlType>
										<LowerBound>false</LowerBound>
										<UpperBound>true</UpperBound>
										<value>-91445760000000000,true,0,0,0,0,0,0</value>
									</parameter>
									<parameter authoringApp="PremierePro">
										<parameterid>4</parameterid>
										<name> </name>
										<hash>63866a15-9327-e4cb-ff31-c9ea0000000e</hash>
									</parameter>
									<parameter authoringApp="PremierePro">
										<parameterid>5</parameterid>
										<name>Input LUT</name>
										<IsTimeVarying>false</IsTimeVarying>
										<ParameterControlType>7</ParameterControlType>
										<LowerBound>0</LowerBound>
										<UpperBound>998</UpperBound>
										<value>-91445760000000000,0,0,0,0,0,0,0</value>
									</parameter>
									<parameter authoringApp="PremierePro">
										<parameterid>7</parameterid>
										<name>Temperature</name>
										<IsTimeVarying>false</IsTimeVarying>
										<ParameterControlType>8</ParameterControlType>
										<LowerBound>-150</LowerBound>
										<UpperBound>150</UpperBound>
										<LowerUIBound>-100</LowerUIBound>
										<UpperUIBound>100</UpperUIBound>
										<value>-91445760000000000,0.,0,0,0,0,0,0</value>
									</parameter>
									<parameter authoringApp="PremierePro">
										<parameterid>8</parameterid>
										<name>Tint</name>
										<IsTimeVarying>false</IsTimeVarying>
										<ParameterControlType>8</ParameterControlType>
										<LowerBound>-150</LowerBound>
										<UpperBound>150</UpperBound>
										<LowerUIBound>-100</LowerUIBound>
										<UpperUIBound>100</UpperUIBound>
										<value>-91445760000000000,0.,0,0,0,0,0,0</value>
									</parameter>
									<parameter authoringApp="PremierePro">
										<parameterid>11</parameterid>
										<name>Exposure</name>
										<IsTimeVarying>false</IsTimeVarying>
										<ParameterControlType>8</ParameterControlType>
										<LowerBound>-7</LowerBound>
										<UpperBound>7</UpperBound>
										<LowerUIBound>-5</LowerUIBound>
										<UpperUIBound>5</UpperUIBound>
										<value>-91445760000000000,0.,0,0,0,0,0,0</value>
									</parameter>
									<parameter authoringApp="PremierePro">
										<parameterid>12</parameterid>
										<name>Contrast</name>
										<IsTimeVarying>false</IsTimeVarying>
										<ParameterControlType>8</ParameterControlType>
										<LowerBound>-150</LowerBound>
										<UpperBound>150</UpperBound>
										<LowerUIBound>-100</LowerUIBound>
										<UpperUIBound>100</UpperUIBound>
										<value>-91445760000000000,59.975616455078125,0,0,0,0,0,0</value>
									</parameter>
									<parameter authoringApp="PremierePro">
										<parameterid>13</parameterid>
										<name>Highlights</name>
										<IsTimeVarying>false</IsTimeVarying>
										<ParameterControlType>8</ParameterControlType>
										<LowerBound>-150</LowerBound>
										<UpperBound>150</UpperBound>
										<LowerUIBound>-100</LowerUIBound>
										<UpperUIBound>100</UpperUIBound>
										<value>-91445760000000000,-51.,0,0,0,0,0,0</value>
									</parameter>
									<parameter authoringApp="PremierePro">
										<parameterid>14</parameterid>
										<name>Shadows</name>
										<IsTimeVarying>false</IsTimeVarying>
										<ParameterControlType>8</ParameterControlType>
										<LowerBound>-150</LowerBound>
										<UpperBound>150</UpperBound>
										<LowerUIBound>-100</LowerUIBound>
										<UpperUIBound>100</UpperUIBound>
										<value>-91445760000000000,-9.,0,0,0,0,0,0</value>
									</parameter>
									<parameter authoringApp="PremierePro">
										<parameterid>15</parameterid>
										<name>Whites</name>
										<IsTimeVarying>false</IsTimeVarying>
										<ParameterControlType>8</ParameterControlType>
										<LowerBound>-150</LowerBound>
										<UpperBound>150</UpperBound>
										<LowerUIBound>-100</LowerUIBound>
										<UpperUIBound>100</UpperUIBound>
										<value>-91445760000000000,-150.,0,0,0,0,0,0</value>
									</parameter>
									<parameter authoringApp="PremierePro">
										<parameterid>16</parameterid>
										<name>Blacks</name>
										<IsTimeVarying>false</IsTimeVarying>
										<ParameterControlType>8</ParameterControlType>
										<LowerBound>-150</LowerBound>
										<UpperBound>150</UpperBound>
										<LowerUIBound>-100</LowerUIBound>
										<UpperUIBound>100</UpperUIBound>
										<value>-91445760000000000,-82.95122528076171875,0,0,0,0,0,0</value>
									</parameter>
									<parameter authoringApp="PremierePro">
										<parameterid>20</parameterid>
										<name>Saturation</name>
										<IsTimeVarying>false</IsTimeVarying>
										<ParameterControlType>8</ParameterControlType>
										<LowerBound>0</LowerBound>
										<UpperBound>300</UpperBound>
										<UpperUIBound>200</UpperUIBound>
										<value>-91445760000000000,190.,0,0,0,0,0,0</value>
									</parameter>
									<parameter authoringApp="PremierePro">
										<parameterid>23</parameterid>
										<name> </name>
										<IsTimeVarying>false</IsTimeVarying>
										<ParameterControlType>4</ParameterControlType>
										<LowerBound>false</LowerBound>
										<UpperBound>true</UpperBound>
										<value>-91445760000000000,true,0,0,0,0,0,0</value>
									</parameter>
									<parameter authoringApp="PremierePro">
										<parameterid>24</parameterid>
										<name> </name>
										<hash>63866a15-9327-e4cb-ff31-c9ea0000000e</hash>
									</parameter>
									<parameter authoringApp="PremierePro">
										<parameterid>25</parameterid>
										<name>Look</name>
										<IsTimeVarying>false</IsTimeVarying>
										<ParameterControlType>7</ParameterControlType>
										<LowerBound>0</LowerBound>
										<UpperBound>998</UpperBound>
										<value>-91445760000000000,0,0,0,0,0,0,0</value>
									</parameter>
									<parameter authoringApp="PremierePro">
										<parameterid>26</parameterid>
										<name>Intensity</name>
										<IsTimeVarying>false</IsTimeVarying>
										<ParameterControlType>8</ParameterControlType>
										<LowerBound>0</LowerBound>
										<UpperBound>200</UpperBound>
										<value>-91445760000000000,100.,0,0,0,0,0,0</value>
									</parameter>
									<parameter authoringApp="PremierePro">
										<parameterid>28</parameterid>
										<name>Faded Film</name>
										<IsTimeVarying>false</IsTimeVarying>
										<ParameterControlType>8</ParameterControlType>
										<LowerBound>0</LowerBound>
										<UpperBound>150</UpperBound>
										<UpperUIBound>100</UpperUIBound>
										<value>-91445760000000000,0.,0,0,0,0,0,0</value>
									</parameter>
									<parameter authoringApp="PremierePro">
										<parameterid>29</parameterid>
										<name>Sharpen</name>
										<IsTimeVarying>false</IsTimeVarying>
										<ParameterControlType>8</ParameterControlType>
										<LowerBound>-100</LowerBound>
										<UpperBound>100</UpperBound>
										<value>-91445760000000000,0.,0,0,0,0,0,0</value>
									</parameter>
									<parameter authoringApp="PremierePro">
										<parameterid>30</parameterid>
										<name>Vibrance</name>
										<IsTimeVarying>false</IsTimeVarying>
										<ParameterControlType>8</ParameterControlType>
										<LowerBound>-100</LowerBound>
										<UpperBound>100</UpperBound>
										<value>-91445760000000000,0.,0,0,0,0,0,0</value>
									</parameter>
									<parameter authoringApp="PremierePro">
										<parameterid>31</parameterid>
										<name>Saturation</name>
										<IsTimeVarying>false</IsTimeVarying>
										<ParameterControlType>8</ParameterControlType>
										<LowerBound>0</LowerBound>
										<UpperBound>300</UpperBound>
										<UpperUIBound>200</UpperUIBound>
										<value>-91445760000000000,100.,0,0,0,0,0,0</value>
									</parameter>
									<parameter authoringApp="PremierePro">
										<parameterid>32</parameterid>
										<name></name>
										<hash>49d2fca5-ddd1-a393-0544-f6d80000002c</hash>
									</parameter>
									<parameter authoringApp="PremierePro">
										<parameterid>33</parameterid>
										<name>Tint Balance</name>
										<IsTimeVarying>false</IsTimeVarying>
										<ParameterControlType>8</ParameterControlType>
										<LowerBound>-150</LowerBound>
										<UpperBound>150</UpperBound>
										<LowerUIBound>-100</LowerUIBound>
										<UpperUIBound>100</UpperUIBound>
										<value>-91445760000000000,0.,0,0,0,0,0,0</value>
									</parameter>
									<parameter authoringApp="PremierePro">
										<parameterid>37</parameterid>
										<name> </name>
										<IsTimeVarying>false</IsTimeVarying>
										<ParameterControlType>4</ParameterControlType>
										<LowerBound>false</LowerBound>
										<UpperBound>true</UpperBound>
										<value>-91445760000000000,true,0,0,0,0,0,0</value>
									</parameter>
									<parameter authoringApp="PremierePro">
										<parameterid>39</parameterid>
										<name> </name>
										<hash>261f3840-e8cf-a8cd-fa5e-bac10000082c</hash>
									</parameter>
									<parameter authoringApp="PremierePro">
										<parameterid>42</parameterid>
										<name> </name>
										<hash>ccfaa4df-d630-7661-76dd-3e4900000214</hash>
									</parameter>
									<parameter authoringApp="PremierePro">
										<parameterid>46</parameterid>
										<name> </name>
										<IsTimeVarying>false</IsTimeVarying>
										<ParameterControlType>4</ParameterControlType>
										<LowerBound>false</LowerBound>
										<UpperBound>true</UpperBound>
										<value>-91445760000000000,true,0,0,0,0,0,0</value>
									</parameter>
									<parameter authoringApp="PremierePro">
										<parameterid>47</parameterid>
										<name> </name>
										<hash>0b5436c4-bae0-bb64-a2f6-c8c40000006c</hash>
									</parameter>
									<parameter authoringApp="PremierePro">
										<parameterid>50</parameterid>
										<name> </name>
										<IsTimeVarying>false</IsTimeVarying>
										<ParameterControlType>4</ParameterControlType>
										<LowerBound>false</LowerBound>
										<UpperBound>true</UpperBound>
										<value>-91445760000000000,true,0,0,0,0,0,0</value>
									</parameter>
									<parameter authoringApp="PremierePro">
										<parameterid>51</parameterid>
										<name>Amount</name>
										<IsTimeVarying>false</IsTimeVarying>
										<ParameterControlType>8</ParameterControlType>
										<LowerBound>-5</LowerBound>
										<UpperBound>5</UpperBound>
										<LowerUIBound>-3</LowerUIBound>
										<UpperUIBound>3</UpperUIBound>
										<value>-91445760000000000,0.,0,0,0,0,0,0</value>
									</parameter>
									<parameter authoringApp="PremierePro">
										<parameterid>52</parameterid>
										<name>Midpoint</name>
										<IsTimeVarying>false</IsTimeVarying>
										<ParameterControlType>8</ParameterControlType>
										<LowerBound>0</LowerBound>
										<UpperBound>100</UpperBound>
										<value>-91445760000000000,50.,0,0,0,0,0,0</value>
									</parameter>
									<parameter authoringApp="PremierePro">
										<parameterid>53</parameterid>
										<name>Roundness</name>
										<IsTimeVarying>false</IsTimeVarying>
										<ParameterControlType>8</ParameterControlType>
										<LowerBound>-100</LowerBound>
										<UpperBound>100</UpperBound>
										<value>-91445760000000000,0.,0,0,0,0,0,0</value>
									</parameter>
									<parameter authoringApp="PremierePro">
										<parameterid>54</parameterid>
										<name>Feather</name>
										<IsTimeVarying>false</IsTimeVarying>
										<ParameterControlType>8</ParameterControlType>
										<LowerBound>0</LowerBound>
										<UpperBound>100</UpperBound>
										<value>-91445760000000000,50.,0,0,0,0,0,0</value>
									</parameter>
								</effect>
							</filter>
						<link>
							<linkclipref>clipitem-320</linkclipref>
							<mediatype>video</mediatype>
							<trackindex>2</trackindex>
							<clipindex>64</clipindex>
						</link>
						<link>
							<linkclipref>clipitem-717</linkclipref>
							<mediatype>audio</mediatype>
							<trackindex>7</trackindex>
							<clipindex>28</clipindex>
							<groupindex>1</groupindex>
						</link>
						<logginginfo>
							<description></description>
							<scene></scene>
							<shottake></shottake>
							<lognote></lognote>
						</logginginfo>
						<labels>
							<label2>Caribbean</label2>
						</labels>
					</clipitem>
					<clipitem id="clipitem-321">
						<masterclipid>masterclip-93</masterclipid>
						<name>Aashild-august-Clip0760.MXF</name>
						<enabled>TRUE</enabled>
						<duration>1128</duration>
						<rate>
							<timebase>25</timebase>
							<ntsc>FALSE</ntsc>
						</rate>
						<start>35104</start>
						<end>35161</end>
						<in>201</in>
						<out>258</out>
						<pproTicksIn>2042288640000</pproTicksIn>
						<pproTicksOut>2621445120000</pproTicksOut>
						<alphatype>none</alphatype>
						<file id="file-93"/>
							<filter>
								<effect>
									<name></name>
									<effectid>Lumetri</effectid>
									<effecttype>filter</effecttype>
									<mediatype>video</mediatype>
									<parameter authoringApp="PremierePro">
										<parameterid>1</parameterid>
										<name>File Path</name>
										<hash>63866a15-9327-e4cb-ff31-c9ea0000000e</hash>
									</parameter>
									<parameter authoringApp="PremierePro">
										<parameterid>3</parameterid>
										<name> </name>
										<IsTimeVarying>false</IsTimeVarying>
										<ParameterControlType>4</ParameterControlType>
										<LowerBound>false</LowerBound>
										<UpperBound>true</UpperBound>
										<value>-91445760000000000,true,0,0,0,0,0,0</value>
									</parameter>
									<parameter authoringApp="PremierePro">
										<parameterid>4</parameterid>
										<name> </name>
										<hash>63866a15-9327-e4cb-ff31-c9ea0000000e</hash>
									</parameter>
									<parameter authoringApp="PremierePro">
										<parameterid>5</parameterid>
										<name>Input LUT</name>
										<IsTimeVarying>false</IsTimeVarying>
										<ParameterControlType>7</ParameterControlType>
										<LowerBound>0</LowerBound>
										<UpperBound>998</UpperBound>
										<value>-91445760000000000,0,0,0,0,0,0,0</value>
									</parameter>
									<parameter authoringApp="PremierePro">
										<parameterid>7</parameterid>
										<name>Temperature</name>
										<IsTimeVarying>false</IsTimeVarying>
										<ParameterControlType>8</ParameterControlType>
										<LowerBound>-150</LowerBound>
										<UpperBound>150</UpperBound>
										<LowerUIBound>-100</LowerUIBound>
										<UpperUIBound>100</UpperUIBound>
										<value>-91445760000000000,0.,0,0,0,0,0,0</value>
									</parameter>
									<parameter authoringApp="PremierePro">
										<parameterid>8</parameterid>
										<name>Tint</name>
										<IsTimeVarying>false</IsTimeVarying>
										<ParameterControlType>8</ParameterControlType>
										<LowerBound>-150</LowerBound>
										<UpperBound>150</UpperBound>
										<LowerUIBound>-100</LowerUIBound>
										<UpperUIBound>100</UpperUIBound>
										<value>-91445760000000000,0.,0,0,0,0,0,0</value>
									</parameter>
									<parameter authoringApp="PremierePro">
										<parameterid>11</parameterid>
										<name>Exposure</name>
										<IsTimeVarying>false</IsTimeVarying>
										<ParameterControlType>8</ParameterControlType>
										<LowerBound>-7</LowerBound>
										<UpperBound>7</UpperBound>
										<LowerUIBound>-5</LowerUIBound>
										<UpperUIBound>5</UpperUIBound>
										<value>-91445760000000000,0.60000002384185791015625,0,0,0,0,0,0</value>
									</parameter>
									<parameter authoringApp="PremierePro">
										<parameterid>12</parameterid>
										<name>Contrast</name>
										<IsTimeVarying>false</IsTimeVarying>
										<ParameterControlType>8</ParameterControlType>
										<LowerBound>-150</LowerBound>
										<UpperBound>150</UpperBound>
										<LowerUIBound>-100</LowerUIBound>
										<UpperUIBound>100</UpperUIBound>
										<value>-91445760000000000,59.975616455078125,0,0,0,0,0,0</value>
									</parameter>
									<parameter authoringApp="PremierePro">
										<parameterid>13</parameterid>
										<name>Highlights</name>
										<IsTimeVarying>false</IsTimeVarying>
										<ParameterControlType>8</ParameterControlType>
										<LowerBound>-150</LowerBound>
										<UpperBound>150</UpperBound>
										<LowerUIBound>-100</LowerUIBound>
										<UpperUIBound>100</UpperUIBound>
										<value>-91445760000000000,-51.,0,0,0,0,0,0</value>
									</parameter>
									<parameter authoringApp="PremierePro">
										<parameterid>14</parameterid>
										<name>Shadows</name>
										<IsTimeVarying>false</IsTimeVarying>
										<ParameterControlType>8</ParameterControlType>
										<LowerBound>-150</LowerBound>
										<UpperBound>150</UpperBound>
										<LowerUIBound>-100</LowerUIBound>
										<UpperUIBound>100</UpperUIBound>
										<value>-91445760000000000,-9.,0,0,0,0,0,0</value>
									</parameter>
									<parameter authoringApp="PremierePro">
										<parameterid>15</parameterid>
										<name>Whites</name>
										<IsTimeVarying>false</IsTimeVarying>
										<ParameterControlType>8</ParameterControlType>
										<LowerBound>-150</LowerBound>
										<UpperBound>150</UpperBound>
										<LowerUIBound>-100</LowerUIBound>
										<UpperUIBound>100</UpperUIBound>
										<value>-91445760000000000,-150.,0,0,0,0,0,0</value>
									</parameter>
									<parameter authoringApp="PremierePro">
										<parameterid>16</parameterid>
										<name>Blacks</name>
										<IsTimeVarying>false</IsTimeVarying>
										<ParameterControlType>8</ParameterControlType>
										<LowerBound>-150</LowerBound>
										<UpperBound>150</UpperBound>
										<LowerUIBound>-100</LowerUIBound>
										<UpperUIBound>100</UpperUIBound>
										<value>-91445760000000000,-82.95122528076171875,0,0,0,0,0,0</value>
									</parameter>
									<parameter authoringApp="PremierePro">
										<parameterid>20</parameterid>
										<name>Saturation</name>
										<IsTimeVarying>false</IsTimeVarying>
										<ParameterControlType>8</ParameterControlType>
										<LowerBound>0</LowerBound>
										<UpperBound>300</UpperBound>
										<UpperUIBound>200</UpperUIBound>
										<value>-91445760000000000,190.,0,0,0,0,0,0</value>
									</parameter>
									<parameter authoringApp="PremierePro">
										<parameterid>23</parameterid>
										<name> </name>
										<IsTimeVarying>false</IsTimeVarying>
										<ParameterControlType>4</ParameterControlType>
										<LowerBound>false</LowerBound>
										<UpperBound>true</UpperBound>
										<value>-91445760000000000,true,0,0,0,0,0,0</value>
									</parameter>
									<parameter authoringApp="PremierePro">
										<parameterid>24</parameterid>
										<name> </name>
										<hash>63866a15-9327-e4cb-ff31-c9ea0000000e</hash>
									</parameter>
									<parameter authoringApp="PremierePro">
										<parameterid>25</parameterid>
										<name>Look</name>
										<IsTimeVarying>false</IsTimeVarying>
										<ParameterControlType>7</ParameterControlType>
										<LowerBound>0</LowerBound>
										<UpperBound>998</UpperBound>
										<value>-91445760000000000,0,0,0,0,0,0,0</value>
									</parameter>
									<parameter authoringApp="PremierePro">
										<parameterid>26</parameterid>
										<name>Intensity</name>
										<IsTimeVarying>false</IsTimeVarying>
										<ParameterControlType>8</ParameterControlType>
										<LowerBound>0</LowerBound>
										<UpperBound>200</UpperBound>
										<value>-91445760000000000,100.,0,0,0,0,0,0</value>
									</parameter>
									<parameter authoringApp="PremierePro">
										<parameterid>28</parameterid>
										<name>Faded Film</name>
										<IsTimeVarying>false</IsTimeVarying>
										<ParameterControlType>8</ParameterControlType>
										<LowerBound>0</LowerBound>
										<UpperBound>150</UpperBound>
										<UpperUIBound>100</UpperUIBound>
										<value>-91445760000000000,0.,0,0,0,0,0,0</value>
									</parameter>
									<parameter authoringApp="PremierePro">
										<parameterid>29</parameterid>
										<name>Sharpen</name>
										<IsTimeVarying>false</IsTimeVarying>
										<ParameterControlType>8</ParameterControlType>
										<LowerBound>-100</LowerBound>
										<UpperBound>100</UpperBound>
										<value>-91445760000000000,0.,0,0,0,0,0,0</value>
									</parameter>
									<parameter authoringApp="PremierePro">
										<parameterid>30</parameterid>
										<name>Vibrance</name>
										<IsTimeVarying>false</IsTimeVarying>
										<ParameterControlType>8</ParameterControlType>
										<LowerBound>-100</LowerBound>
										<UpperBound>100</UpperBound>
										<value>-91445760000000000,0.,0,0,0,0,0,0</value>
									</parameter>
									<parameter authoringApp="PremierePro">
										<parameterid>31</parameterid>
										<name>Saturation</name>
										<IsTimeVarying>false</IsTimeVarying>
										<ParameterControlType>8</ParameterControlType>
										<LowerBound>0</LowerBound>
										<UpperBound>300</UpperBound>
										<UpperUIBound>200</UpperUIBound>
										<value>-91445760000000000,100.,0,0,0,0,0,0</value>
									</parameter>
									<parameter authoringApp="PremierePro">
										<parameterid>32</parameterid>
										<name></name>
										<hash>49d2fca5-ddd1-a393-0544-f6d80000002c</hash>
									</parameter>
									<parameter authoringApp="PremierePro">
										<parameterid>33</parameterid>
										<name>Tint Balance</name>
										<IsTimeVarying>false</IsTimeVarying>
										<ParameterControlType>8</ParameterControlType>
										<LowerBound>-150</LowerBound>
										<UpperBound>150</UpperBound>
										<LowerUIBound>-100</LowerUIBound>
										<UpperUIBound>100</UpperUIBound>
										<value>-91445760000000000,0.,0,0,0,0,0,0</value>
									</parameter>
									<parameter authoringApp="PremierePro">
										<parameterid>37</parameterid>
										<name> </name>
										<IsTimeVarying>false</IsTimeVarying>
										<ParameterControlType>4</ParameterControlType>
										<LowerBound>false</LowerBound>
										<UpperBound>true</UpperBound>
										<value>-91445760000000000,true,0,0,0,0,0,0</value>
									</parameter>
									<parameter authoringApp="PremierePro">
										<parameterid>39</parameterid>
										<name> </name>
										<hash>261f3840-e8cf-a8cd-fa5e-bac10000082c</hash>
									</parameter>
									<parameter authoringApp="PremierePro">
										<parameterid>42</parameterid>
										<name> </name>
										<hash>ccfaa4df-d630-7661-76dd-3e4900000214</hash>
									</parameter>
									<parameter authoringApp="PremierePro">
										<parameterid>46</parameterid>
										<name> </name>
										<IsTimeVarying>false</IsTimeVarying>
										<ParameterControlType>4</ParameterControlType>
										<LowerBound>false</LowerBound>
										<UpperBound>true</UpperBound>
										<value>-91445760000000000,true,0,0,0,0,0,0</value>
									</parameter>
									<parameter authoringApp="PremierePro">
										<parameterid>47</parameterid>
										<name> </name>
										<hash>0b5436c4-bae0-bb64-a2f6-c8c40000006c</hash>
									</parameter>
									<parameter authoringApp="PremierePro">
										<parameterid>50</parameterid>
										<name> </name>
										<IsTimeVarying>false</IsTimeVarying>
										<ParameterControlType>4</ParameterControlType>
										<LowerBound>false</LowerBound>
										<UpperBound>true</UpperBound>
										<value>-91445760000000000,true,0,0,0,0,0,0</value>
									</parameter>
									<parameter authoringApp="PremierePro">
										<parameterid>51</parameterid>
										<name>Amount</name>
										<IsTimeVarying>false</IsTimeVarying>
										<ParameterControlType>8</ParameterControlType>
										<LowerBound>-5</LowerBound>
										<UpperBound>5</UpperBound>
										<LowerUIBound>-3</LowerUIBound>
										<UpperUIBound>3</UpperUIBound>
										<value>-91445760000000000,0.,0,0,0,0,0,0</value>
									</parameter>
									<parameter authoringApp="PremierePro">
										<parameterid>52</parameterid>
										<name>Midpoint</name>
										<IsTimeVarying>false</IsTimeVarying>
										<ParameterControlType>8</ParameterControlType>
										<LowerBound>0</LowerBound>
										<UpperBound>100</UpperBound>
										<value>-91445760000000000,50.,0,0,0,0,0,0</value>
									</parameter>
									<parameter authoringApp="PremierePro">
										<parameterid>53</parameterid>
										<name>Roundness</name>
										<IsTimeVarying>false</IsTimeVarying>
										<ParameterControlType>8</ParameterControlType>
										<LowerBound>-100</LowerBound>
										<UpperBound>100</UpperBound>
										<value>-91445760000000000,0.,0,0,0,0,0,0</value>
									</parameter>
									<parameter authoringApp="PremierePro">
										<parameterid>54</parameterid>
										<name>Feather</name>
										<IsTimeVarying>false</IsTimeVarying>
										<ParameterControlType>8</ParameterControlType>
										<LowerBound>0</LowerBound>
										<UpperBound>100</UpperBound>
										<value>-91445760000000000,50.,0,0,0,0,0,0</value>
									</parameter>
								</effect>
							</filter>
						<link>
							<linkclipref>clipitem-321</linkclipref>
							<mediatype>video</mediatype>
							<trackindex>2</trackindex>
							<clipindex>65</clipindex>
						</link>
						<link>
							<linkclipref>clipitem-646</linkclipref>
							<mediatype>audio</mediatype>
							<trackindex>3</trackindex>
							<clipindex>59</clipindex>
							<groupindex>1</groupindex>
						</link>
						<link>
							<linkclipref>clipitem-691</linkclipref>
							<mediatype>audio</mediatype>
							<trackindex>5</trackindex>
							<clipindex>34</clipindex>
							<groupindex>1</groupindex>
						</link>
						<link>
							<linkclipref>clipitem-718</linkclipref>
							<mediatype>audio</mediatype>
							<trackindex>7</trackindex>
							<clipindex>29</clipindex>
							<groupindex>1</groupindex>
						</link>
						<link>
							<linkclipref>clipitem-772</linkclipref>
							<mediatype>audio</mediatype>
							<trackindex>8</trackindex>
							<clipindex>66</clipindex>
							<groupindex>1</groupindex>
						</link>
						<logginginfo>
							<description></description>
							<scene></scene>
							<shottake></shottake>
							<lognote></lognote>
						</logginginfo>
						<labels>
							<label2>Caribbean</label2>
						</labels>
					</clipitem>
					<clipitem id="clipitem-322">
						<masterclipid>masterclip-93</masterclipid>
						<name>Aashild-august-Clip0760.MXF</name>
						<enabled>TRUE</enabled>
						<duration>1128</duration>
						<rate>
							<timebase>25</timebase>
							<ntsc>FALSE</ntsc>
						</rate>
						<start>35216</start>
						<end>35300</end>
						<in>752</in>
						<out>836</out>
						<pproTicksIn>7640801280000</pproTicksIn>
						<pproTicksOut>8494295040000</pproTicksOut>
						<alphatype>none</alphatype>
						<file id="file-93"/>
							<filter>
								<effect>
									<name></name>
									<effectid>Lumetri</effectid>
									<effecttype>filter</effecttype>
									<mediatype>video</mediatype>
									<parameter authoringApp="PremierePro">
										<parameterid>1</parameterid>
										<name>File Path</name>
										<hash>63866a15-9327-e4cb-ff31-c9ea0000000e</hash>
									</parameter>
									<parameter authoringApp="PremierePro">
										<parameterid>3</parameterid>
										<name> </name>
										<IsTimeVarying>false</IsTimeVarying>
										<ParameterControlType>4</ParameterControlType>
										<LowerBound>false</LowerBound>
										<UpperBound>true</UpperBound>
										<value>-91445760000000000,true,0,0,0,0,0,0</value>
									</parameter>
									<parameter authoringApp="PremierePro">
										<parameterid>4</parameterid>
										<name> </name>
										<hash>63866a15-9327-e4cb-ff31-c9ea0000000e</hash>
									</parameter>
									<parameter authoringApp="PremierePro">
										<parameterid>5</parameterid>
										<name>Input LUT</name>
										<IsTimeVarying>false</IsTimeVarying>
										<ParameterControlType>7</ParameterControlType>
										<LowerBound>0</LowerBound>
										<UpperBound>998</UpperBound>
										<value>-91445760000000000,0,0,0,0,0,0,0</value>
									</parameter>
									<parameter authoringApp="PremierePro">
										<parameterid>7</parameterid>
										<name>Temperature</name>
										<IsTimeVarying>false</IsTimeVarying>
										<ParameterControlType>8</ParameterControlType>
										<LowerBound>-150</LowerBound>
										<UpperBound>150</UpperBound>
										<LowerUIBound>-100</LowerUIBound>
										<UpperUIBound>100</UpperUIBound>
										<value>-91445760000000000,0.,0,0,0,0,0,0</value>
									</parameter>
									<parameter authoringApp="PremierePro">
										<parameterid>8</parameterid>
										<name>Tint</name>
										<IsTimeVarying>false</IsTimeVarying>
										<ParameterControlType>8</ParameterControlType>
										<LowerBound>-150</LowerBound>
										<UpperBound>150</UpperBound>
										<LowerUIBound>-100</LowerUIBound>
										<UpperUIBound>100</UpperUIBound>
										<value>-91445760000000000,0.,0,0,0,0,0,0</value>
									</parameter>
									<parameter authoringApp="PremierePro">
										<parameterid>11</parameterid>
										<name>Exposure</name>
										<IsTimeVarying>false</IsTimeVarying>
										<ParameterControlType>8</ParameterControlType>
										<LowerBound>-7</LowerBound>
										<UpperBound>7</UpperBound>
										<LowerUIBound>-5</LowerUIBound>
										<UpperUIBound>5</UpperUIBound>
										<value>-91445760000000000,0.60000002384185791015625,0,0,0,0,0,0</value>
									</parameter>
									<parameter authoringApp="PremierePro">
										<parameterid>12</parameterid>
										<name>Contrast</name>
										<IsTimeVarying>false</IsTimeVarying>
										<ParameterControlType>8</ParameterControlType>
										<LowerBound>-150</LowerBound>
										<UpperBound>150</UpperBound>
										<LowerUIBound>-100</LowerUIBound>
										<UpperUIBound>100</UpperUIBound>
										<value>-91445760000000000,59.975616455078125,0,0,0,0,0,0</value>
									</parameter>
									<parameter authoringApp="PremierePro">
										<parameterid>13</parameterid>
										<name>Highlights</name>
										<IsTimeVarying>false</IsTimeVarying>
										<ParameterControlType>8</ParameterControlType>
										<LowerBound>-150</LowerBound>
										<UpperBound>150</UpperBound>
										<LowerUIBound>-100</LowerUIBound>
										<UpperUIBound>100</UpperUIBound>
										<value>-91445760000000000,-51.,0,0,0,0,0,0</value>
									</parameter>
									<parameter authoringApp="PremierePro">
										<parameterid>14</parameterid>
										<name>Shadows</name>
										<IsTimeVarying>false</IsTimeVarying>
										<ParameterControlType>8</ParameterControlType>
										<LowerBound>-150</LowerBound>
										<UpperBound>150</UpperBound>
										<LowerUIBound>-100</LowerUIBound>
										<UpperUIBound>100</UpperUIBound>
										<value>-91445760000000000,-9.,0,0,0,0,0,0</value>
									</parameter>
									<parameter authoringApp="PremierePro">
										<parameterid>15</parameterid>
										<name>Whites</name>
										<IsTimeVarying>false</IsTimeVarying>
										<ParameterControlType>8</ParameterControlType>
										<LowerBound>-150</LowerBound>
										<UpperBound>150</UpperBound>
										<LowerUIBound>-100</LowerUIBound>
										<UpperUIBound>100</UpperUIBound>
										<value>-91445760000000000,-150.,0,0,0,0,0,0</value>
									</parameter>
									<parameter authoringApp="PremierePro">
										<parameterid>16</parameterid>
										<name>Blacks</name>
										<IsTimeVarying>false</IsTimeVarying>
										<ParameterControlType>8</ParameterControlType>
										<LowerBound>-150</LowerBound>
										<UpperBound>150</UpperBound>
										<LowerUIBound>-100</LowerUIBound>
										<UpperUIBound>100</UpperUIBound>
										<value>-91445760000000000,-82.95122528076171875,0,0,0,0,0,0</value>
									</parameter>
									<parameter authoringApp="PremierePro">
										<parameterid>20</parameterid>
										<name>Saturation</name>
										<IsTimeVarying>false</IsTimeVarying>
										<ParameterControlType>8</ParameterControlType>
										<LowerBound>0</LowerBound>
										<UpperBound>300</UpperBound>
										<UpperUIBound>200</UpperUIBound>
										<value>-91445760000000000,190.,0,0,0,0,0,0</value>
									</parameter>
									<parameter authoringApp="PremierePro">
										<parameterid>23</parameterid>
										<name> </name>
										<IsTimeVarying>false</IsTimeVarying>
										<ParameterControlType>4</ParameterControlType>
										<LowerBound>false</LowerBound>
										<UpperBound>true</UpperBound>
										<value>-91445760000000000,true,0,0,0,0,0,0</value>
									</parameter>
									<parameter authoringApp="PremierePro">
										<parameterid>24</parameterid>
										<name> </name>
										<hash>63866a15-9327-e4cb-ff31-c9ea0000000e</hash>
									</parameter>
									<parameter authoringApp="PremierePro">
										<parameterid>25</parameterid>
										<name>Look</name>
										<IsTimeVarying>false</IsTimeVarying>
										<ParameterControlType>7</ParameterControlType>
										<LowerBound>0</LowerBound>
										<UpperBound>998</UpperBound>
										<value>-91445760000000000,0,0,0,0,0,0,0</value>
									</parameter>
									<parameter authoringApp="PremierePro">
										<parameterid>26</parameterid>
										<name>Intensity</name>
										<IsTimeVarying>false</IsTimeVarying>
										<ParameterControlType>8</ParameterControlType>
										<LowerBound>0</LowerBound>
										<UpperBound>200</UpperBound>
										<value>-91445760000000000,100.,0,0,0,0,0,0</value>
									</parameter>
									<parameter authoringApp="PremierePro">
										<parameterid>28</parameterid>
										<name>Faded Film</name>
										<IsTimeVarying>false</IsTimeVarying>
										<ParameterControlType>8</ParameterControlType>
										<LowerBound>0</LowerBound>
										<UpperBound>150</UpperBound>
										<UpperUIBound>100</UpperUIBound>
										<value>-91445760000000000,0.,0,0,0,0,0,0</value>
									</parameter>
									<parameter authoringApp="PremierePro">
										<parameterid>29</parameterid>
										<name>Sharpen</name>
										<IsTimeVarying>false</IsTimeVarying>
										<ParameterControlType>8</ParameterControlType>
										<LowerBound>-100</LowerBound>
										<UpperBound>100</UpperBound>
										<value>-91445760000000000,0.,0,0,0,0,0,0</value>
									</parameter>
									<parameter authoringApp="PremierePro">
										<parameterid>30</parameterid>
										<name>Vibrance</name>
										<IsTimeVarying>false</IsTimeVarying>
										<ParameterControlType>8</ParameterControlType>
										<LowerBound>-100</LowerBound>
										<UpperBound>100</UpperBound>
										<value>-91445760000000000,0.,0,0,0,0,0,0</value>
									</parameter>
									<parameter authoringApp="PremierePro">
										<parameterid>31</parameterid>
										<name>Saturation</name>
										<IsTimeVarying>false</IsTimeVarying>
										<ParameterControlType>8</ParameterControlType>
										<LowerBound>0</LowerBound>
										<UpperBound>300</UpperBound>
										<UpperUIBound>200</UpperUIBound>
										<value>-91445760000000000,100.,0,0,0,0,0,0</value>
									</parameter>
									<parameter authoringApp="PremierePro">
										<parameterid>32</parameterid>
										<name></name>
										<hash>49d2fca5-ddd1-a393-0544-f6d80000002c</hash>
									</parameter>
									<parameter authoringApp="PremierePro">
										<parameterid>33</parameterid>
										<name>Tint Balance</name>
										<IsTimeVarying>false</IsTimeVarying>
										<ParameterControlType>8</ParameterControlType>
										<LowerBound>-150</LowerBound>
										<UpperBound>150</UpperBound>
										<LowerUIBound>-100</LowerUIBound>
										<UpperUIBound>100</UpperUIBound>
										<value>-91445760000000000,0.,0,0,0,0,0,0</value>
									</parameter>
									<parameter authoringApp="PremierePro">
										<parameterid>37</parameterid>
										<name> </name>
										<IsTimeVarying>false</IsTimeVarying>
										<ParameterControlType>4</ParameterControlType>
										<LowerBound>false</LowerBound>
										<UpperBound>true</UpperBound>
										<value>-91445760000000000,true,0,0,0,0,0,0</value>
									</parameter>
									<parameter authoringApp="PremierePro">
										<parameterid>39</parameterid>
										<name> </name>
										<hash>261f3840-e8cf-a8cd-fa5e-bac10000082c</hash>
									</parameter>
									<parameter authoringApp="PremierePro">
										<parameterid>42</parameterid>
										<name> </name>
										<hash>ccfaa4df-d630-7661-76dd-3e4900000214</hash>
									</parameter>
									<parameter authoringApp="PremierePro">
										<parameterid>46</parameterid>
										<name> </name>
										<IsTimeVarying>false</IsTimeVarying>
										<ParameterControlType>4</ParameterControlType>
										<LowerBound>false</LowerBound>
										<UpperBound>true</UpperBound>
										<value>-91445760000000000,true,0,0,0,0,0,0</value>
									</parameter>
									<parameter authoringApp="PremierePro">
										<parameterid>47</parameterid>
										<name> </name>
										<hash>0b5436c4-bae0-bb64-a2f6-c8c40000006c</hash>
									</parameter>
									<parameter authoringApp="PremierePro">
										<parameterid>50</parameterid>
										<name> </name>
										<IsTimeVarying>false</IsTimeVarying>
										<ParameterControlType>4</ParameterControlType>
										<LowerBound>false</LowerBound>
										<UpperBound>true</UpperBound>
										<value>-91445760000000000,true,0,0,0,0,0,0</value>
									</parameter>
									<parameter authoringApp="PremierePro">
										<parameterid>51</parameterid>
										<name>Amount</name>
										<IsTimeVarying>false</IsTimeVarying>
										<ParameterControlType>8</ParameterControlType>
										<LowerBound>-5</LowerBound>
										<UpperBound>5</UpperBound>
										<LowerUIBound>-3</LowerUIBound>
										<UpperUIBound>3</UpperUIBound>
										<value>-91445760000000000,0.,0,0,0,0,0,0</value>
									</parameter>
									<parameter authoringApp="PremierePro">
										<parameterid>52</parameterid>
										<name>Midpoint</name>
										<IsTimeVarying>false</IsTimeVarying>
										<ParameterControlType>8</ParameterControlType>
										<LowerBound>0</LowerBound>
										<UpperBound>100</UpperBound>
										<value>-91445760000000000,50.,0,0,0,0,0,0</value>
									</parameter>
									<parameter authoringApp="PremierePro">
										<parameterid>53</parameterid>
										<name>Roundness</name>
										<IsTimeVarying>false</IsTimeVarying>
										<ParameterControlType>8</ParameterControlType>
										<LowerBound>-100</LowerBound>
										<UpperBound>100</UpperBound>
										<value>-91445760000000000,0.,0,0,0,0,0,0</value>
									</parameter>
									<parameter authoringApp="PremierePro">
										<parameterid>54</parameterid>
										<name>Feather</name>
										<IsTimeVarying>false</IsTimeVarying>
										<ParameterControlType>8</ParameterControlType>
										<LowerBound>0</LowerBound>
										<UpperBound>100</UpperBound>
										<value>-91445760000000000,50.,0,0,0,0,0,0</value>
									</parameter>
								</effect>
							</filter>
						<logginginfo>
							<description></description>
							<scene></scene>
							<shottake></shottake>
							<lognote></lognote>
						</logginginfo>
						<labels>
							<label2>Caribbean</label2>
						</labels>
					</clipitem>
					<clipitem id="clipitem-323">
						<masterclipid>masterclip-201</masterclipid>
						<name>Aashild-august-Clip0757.MXF</name>
						<enabled>TRUE</enabled>
						<duration>3204</duration>
						<rate>
							<timebase>25</timebase>
							<ntsc>FALSE</ntsc>
						</rate>
						<start>35300</start>
						<end>35379</end>
						<in>2075</in>
						<out>2154</out>
						<pproTicksIn>21083328000000</pproTicksIn>
						<pproTicksOut>21886018560000</pproTicksOut>
						<alphatype>none</alphatype>
						<pixelaspectratio>square</pixelaspectratio>
						<anamorphic>FALSE</anamorphic>
						<file id="file-201">
							<name>Aashild-august-Clip0757.MXF</name>
							<pathurl>file://localhost/Volumes/Vaagen/Prosjekter/DVNA200216_OAO_Naturforskere_010118_OAO/Ra%cc%8astoff/A%cc%8ashild%20Pedersen/Svalbard%20august/Fs5/Aashild-august-Clip0757.MXF</pathurl>
							<rate>
								<timebase>50</timebase>
								<ntsc>FALSE</ntsc>
							</rate>
							<duration>6408</duration>
							<timecode>
								<rate>
									<timebase>50</timebase>
									<ntsc>FALSE</ntsc>
								</rate>
								<string>08:56:28:16</string>
								<frame>1609416</frame>
								<displayformat>NDF</displayformat>
								<reel>
									<name></name>
								</reel>
							</timecode>
							<media>
								<video>
									<samplecharacteristics>
										<rate>
											<timebase>50</timebase>
											<ntsc>FALSE</ntsc>
										</rate>
										<width>1920</width>
										<height>1080</height>
										<anamorphic>FALSE</anamorphic>
										<pixelaspectratio>square</pixelaspectratio>
										<fielddominance>none</fielddominance>
									</samplecharacteristics>
								</video>
								<audio>
									<samplecharacteristics>
										<depth>16</depth>
										<samplerate>48000</samplerate>
									</samplecharacteristics>
									<channelcount>4</channelcount>
								</audio>
							</media>
						</file>
							<filter>
								<effect>
									<name></name>
									<effectid>Lumetri</effectid>
									<effecttype>filter</effecttype>
									<mediatype>video</mediatype>
									<parameter authoringApp="PremierePro">
										<parameterid>1</parameterid>
										<name>File Path</name>
										<hash>63866a15-9327-e4cb-ff31-c9ea0000000e</hash>
									</parameter>
									<parameter authoringApp="PremierePro">
										<parameterid>3</parameterid>
										<name> </name>
										<IsTimeVarying>false</IsTimeVarying>
										<ParameterControlType>4</ParameterControlType>
										<LowerBound>false</LowerBound>
										<UpperBound>true</UpperBound>
										<value>-91445760000000000,true,0,0,0,0,0,0</value>
									</parameter>
									<parameter authoringApp="PremierePro">
										<parameterid>4</parameterid>
										<name> </name>
										<hash>63866a15-9327-e4cb-ff31-c9ea0000000e</hash>
									</parameter>
									<parameter authoringApp="PremierePro">
										<parameterid>5</parameterid>
										<name>Input LUT</name>
										<IsTimeVarying>false</IsTimeVarying>
										<ParameterControlType>7</ParameterControlType>
										<LowerBound>0</LowerBound>
										<UpperBound>998</UpperBound>
										<value>-91445760000000000,0,0,0,0,0,0,0</value>
									</parameter>
									<parameter authoringApp="PremierePro">
										<parameterid>7</parameterid>
										<name>Temperature</name>
										<IsTimeVarying>false</IsTimeVarying>
										<ParameterControlType>8</ParameterControlType>
										<LowerBound>-150</LowerBound>
										<UpperBound>150</UpperBound>
										<LowerUIBound>-100</LowerUIBound>
										<UpperUIBound>100</UpperUIBound>
										<value>-91445760000000000,0.,0,0,0,0,0,0</value>
									</parameter>
									<parameter authoringApp="PremierePro">
										<parameterid>8</parameterid>
										<name>Tint</name>
										<IsTimeVarying>false</IsTimeVarying>
										<ParameterControlType>8</ParameterControlType>
										<LowerBound>-150</LowerBound>
										<UpperBound>150</UpperBound>
										<LowerUIBound>-100</LowerUIBound>
										<UpperUIBound>100</UpperUIBound>
										<value>-91445760000000000,0.,0,0,0,0,0,0</value>
									</parameter>
									<parameter authoringApp="PremierePro">
										<parameterid>11</parameterid>
										<name>Exposure</name>
										<IsTimeVarying>false</IsTimeVarying>
										<ParameterControlType>8</ParameterControlType>
										<LowerBound>-7</LowerBound>
										<UpperBound>7</UpperBound>
										<LowerUIBound>-5</LowerUIBound>
										<UpperUIBound>5</UpperUIBound>
										<value>-91445760000000000,0.60000002384185791015625,0,0,0,0,0,0</value>
									</parameter>
									<parameter authoringApp="PremierePro">
										<parameterid>12</parameterid>
										<name>Contrast</name>
										<IsTimeVarying>false</IsTimeVarying>
										<ParameterControlType>8</ParameterControlType>
										<LowerBound>-150</LowerBound>
										<UpperBound>150</UpperBound>
										<LowerUIBound>-100</LowerUIBound>
										<UpperUIBound>100</UpperUIBound>
										<value>-91445760000000000,59.975616455078125,0,0,0,0,0,0</value>
									</parameter>
									<parameter authoringApp="PremierePro">
										<parameterid>13</parameterid>
										<name>Highlights</name>
										<IsTimeVarying>false</IsTimeVarying>
										<ParameterControlType>8</ParameterControlType>
										<LowerBound>-150</LowerBound>
										<UpperBound>150</UpperBound>
										<LowerUIBound>-100</LowerUIBound>
										<UpperUIBound>100</UpperUIBound>
										<value>-91445760000000000,-51.,0,0,0,0,0,0</value>
									</parameter>
									<parameter authoringApp="PremierePro">
										<parameterid>14</parameterid>
										<name>Shadows</name>
										<IsTimeVarying>false</IsTimeVarying>
										<ParameterControlType>8</ParameterControlType>
										<LowerBound>-150</LowerBound>
										<UpperBound>150</UpperBound>
										<LowerUIBound>-100</LowerUIBound>
										<UpperUIBound>100</UpperUIBound>
										<value>-91445760000000000,-9.,0,0,0,0,0,0</value>
									</parameter>
									<parameter authoringApp="PremierePro">
										<parameterid>15</parameterid>
										<name>Whites</name>
										<IsTimeVarying>false</IsTimeVarying>
										<ParameterControlType>8</ParameterControlType>
										<LowerBound>-150</LowerBound>
										<UpperBound>150</UpperBound>
										<LowerUIBound>-100</LowerUIBound>
										<UpperUIBound>100</UpperUIBound>
										<value>-91445760000000000,-150.,0,0,0,0,0,0</value>
									</parameter>
									<parameter authoringApp="PremierePro">
										<parameterid>16</parameterid>
										<name>Blacks</name>
										<IsTimeVarying>false</IsTimeVarying>
										<ParameterControlType>8</ParameterControlType>
										<LowerBound>-150</LowerBound>
										<UpperBound>150</UpperBound>
										<LowerUIBound>-100</LowerUIBound>
										<UpperUIBound>100</UpperUIBound>
										<value>-91445760000000000,-82.95122528076171875,0,0,0,0,0,0</value>
									</parameter>
									<parameter authoringApp="PremierePro">
										<parameterid>20</parameterid>
										<name>Saturation</name>
										<IsTimeVarying>false</IsTimeVarying>
										<ParameterControlType>8</ParameterControlType>
										<LowerBound>0</LowerBound>
										<UpperBound>300</UpperBound>
										<UpperUIBound>200</UpperUIBound>
										<value>-91445760000000000,190.,0,0,0,0,0,0</value>
									</parameter>
									<parameter authoringApp="PremierePro">
										<parameterid>23</parameterid>
										<name> </name>
										<IsTimeVarying>false</IsTimeVarying>
										<ParameterControlType>4</ParameterControlType>
										<LowerBound>false</LowerBound>
										<UpperBound>true</UpperBound>
										<value>-91445760000000000,true,0,0,0,0,0,0</value>
									</parameter>
									<parameter authoringApp="PremierePro">
										<parameterid>24</parameterid>
										<name> </name>
										<hash>63866a15-9327-e4cb-ff31-c9ea0000000e</hash>
									</parameter>
									<parameter authoringApp="PremierePro">
										<parameterid>25</parameterid>
										<name>Look</name>
										<IsTimeVarying>false</IsTimeVarying>
										<ParameterControlType>7</ParameterControlType>
										<LowerBound>0</LowerBound>
										<UpperBound>998</UpperBound>
										<value>-91445760000000000,0,0,0,0,0,0,0</value>
									</parameter>
									<parameter authoringApp="PremierePro">
										<parameterid>26</parameterid>
										<name>Intensity</name>
										<IsTimeVarying>false</IsTimeVarying>
										<ParameterControlType>8</ParameterControlType>
										<LowerBound>0</LowerBound>
										<UpperBound>200</UpperBound>
										<value>-91445760000000000,100.,0,0,0,0,0,0</value>
									</parameter>
									<parameter authoringApp="PremierePro">
										<parameterid>28</parameterid>
										<name>Faded Film</name>
										<IsTimeVarying>false</IsTimeVarying>
										<ParameterControlType>8</ParameterControlType>
										<LowerBound>0</LowerBound>
										<UpperBound>150</UpperBound>
										<UpperUIBound>100</UpperUIBound>
										<value>-91445760000000000,0.,0,0,0,0,0,0</value>
									</parameter>
									<parameter authoringApp="PremierePro">
										<parameterid>29</parameterid>
										<name>Sharpen</name>
										<IsTimeVarying>false</IsTimeVarying>
										<ParameterControlType>8</ParameterControlType>
										<LowerBound>-100</LowerBound>
										<UpperBound>100</UpperBound>
										<value>-91445760000000000,0.,0,0,0,0,0,0</value>
									</parameter>
									<parameter authoringApp="PremierePro">
										<parameterid>30</parameterid>
										<name>Vibrance</name>
										<IsTimeVarying>false</IsTimeVarying>
										<ParameterControlType>8</ParameterControlType>
										<LowerBound>-100</LowerBound>
										<UpperBound>100</UpperBound>
										<value>-91445760000000000,0.,0,0,0,0,0,0</value>
									</parameter>
									<parameter authoringApp="PremierePro">
										<parameterid>31</parameterid>
										<name>Saturation</name>
										<IsTimeVarying>false</IsTimeVarying>
										<ParameterControlType>8</ParameterControlType>
										<LowerBound>0</LowerBound>
										<UpperBound>300</UpperBound>
										<UpperUIBound>200</UpperUIBound>
										<value>-91445760000000000,100.,0,0,0,0,0,0</value>
									</parameter>
									<parameter authoringApp="PremierePro">
										<parameterid>32</parameterid>
										<name></name>
										<hash>49d2fca5-ddd1-a393-0544-f6d80000002c</hash>
									</parameter>
									<parameter authoringApp="PremierePro">
										<parameterid>33</parameterid>
										<name>Tint Balance</name>
										<IsTimeVarying>false</IsTimeVarying>
										<ParameterControlType>8</ParameterControlType>
										<LowerBound>-150</LowerBound>
										<UpperBound>150</UpperBound>
										<LowerUIBound>-100</LowerUIBound>
										<UpperUIBound>100</UpperUIBound>
										<value>-91445760000000000,0.,0,0,0,0,0,0</value>
									</parameter>
									<parameter authoringApp="PremierePro">
										<parameterid>37</parameterid>
										<name> </name>
										<IsTimeVarying>false</IsTimeVarying>
										<ParameterControlType>4</ParameterControlType>
										<LowerBound>false</LowerBound>
										<UpperBound>true</UpperBound>
										<value>-91445760000000000,true,0,0,0,0,0,0</value>
									</parameter>
									<parameter authoringApp="PremierePro">
										<parameterid>39</parameterid>
										<name> </name>
										<hash>261f3840-e8cf-a8cd-fa5e-bac10000082c</hash>
									</parameter>
									<parameter authoringApp="PremierePro">
										<parameterid>42</parameterid>
										<name> </name>
										<hash>ccfaa4df-d630-7661-76dd-3e4900000214</hash>
									</parameter>
									<parameter authoringApp="PremierePro">
										<parameterid>46</parameterid>
										<name> </name>
										<IsTimeVarying>false</IsTimeVarying>
										<ParameterControlType>4</ParameterControlType>
										<LowerBound>false</LowerBound>
										<UpperBound>true</UpperBound>
										<value>-91445760000000000,true,0,0,0,0,0,0</value>
									</parameter>
									<parameter authoringApp="PremierePro">
										<parameterid>47</parameterid>
										<name> </name>
										<hash>0b5436c4-bae0-bb64-a2f6-c8c40000006c</hash>
									</parameter>
									<parameter authoringApp="PremierePro">
										<parameterid>50</parameterid>
										<name> </name>
										<IsTimeVarying>false</IsTimeVarying>
										<ParameterControlType>4</ParameterControlType>
										<LowerBound>false</LowerBound>
										<UpperBound>true</UpperBound>
										<value>-91445760000000000,true,0,0,0,0,0,0</value>
									</parameter>
									<parameter authoringApp="PremierePro">
										<parameterid>51</parameterid>
										<name>Amount</name>
										<IsTimeVarying>false</IsTimeVarying>
										<ParameterControlType>8</ParameterControlType>
										<LowerBound>-5</LowerBound>
										<UpperBound>5</UpperBound>
										<LowerUIBound>-3</LowerUIBound>
										<UpperUIBound>3</UpperUIBound>
										<value>-91445760000000000,0.,0,0,0,0,0,0</value>
									</parameter>
									<parameter authoringApp="PremierePro">
										<parameterid>52</parameterid>
										<name>Midpoint</name>
										<IsTimeVarying>false</IsTimeVarying>
										<ParameterControlType>8</ParameterControlType>
										<LowerBound>0</LowerBound>
										<UpperBound>100</UpperBound>
										<value>-91445760000000000,50.,0,0,0,0,0,0</value>
									</parameter>
									<parameter authoringApp="PremierePro">
										<parameterid>53</parameterid>
										<name>Roundness</name>
										<IsTimeVarying>false</IsTimeVarying>
										<ParameterControlType>8</ParameterControlType>
										<LowerBound>-100</LowerBound>
										<UpperBound>100</UpperBound>
										<value>-91445760000000000,0.,0,0,0,0,0,0</value>
									</parameter>
									<parameter authoringApp="PremierePro">
										<parameterid>54</parameterid>
										<name>Feather</name>
										<IsTimeVarying>false</IsTimeVarying>
										<ParameterControlType>8</ParameterControlType>
										<LowerBound>0</LowerBound>
										<UpperBound>100</UpperBound>
										<value>-91445760000000000,50.,0,0,0,0,0,0</value>
									</parameter>
								</effect>
							</filter>
						<link>
							<linkclipref>clipitem-323</linkclipref>
							<mediatype>video</mediatype>
							<trackindex>2</trackindex>
							<clipindex>67</clipindex>
						</link>
						<link>
							<linkclipref>clipitem-720</linkclipref>
							<mediatype>audio</mediatype>
							<trackindex>7</trackindex>
							<clipindex>31</clipindex>
							<groupindex>1</groupindex>
						</link>
						<logginginfo>
							<description></description>
							<scene></scene>
							<shottake></shottake>
							<lognote></lognote>
						</logginginfo>
						<labels>
							<label2>Caribbean</label2>
						</labels>
					</clipitem>
					<clipitem id="clipitem-324">
						<masterclipid>masterclip-95</masterclipid>
						<name>Nordvisjon-MASTER-vr3-201016-ny-m-komm.mxf</name>
						<enabled>TRUE</enabled>
						<duration>2352</duration>
						<rate>
							<timebase>25</timebase>
							<ntsc>FALSE</ntsc>
						</rate>
						<start>36013</start>
						<end>36067</end>
						<in>1</in>
						<out>55</out>
						<pproTicksIn>10160640000</pproTicksIn>
						<pproTicksOut>558835200000</pproTicksOut>
						<alphatype>none</alphatype>
						<file id="file-95"/>
						<logginginfo>
							<description></description>
							<scene></scene>
							<shottake></shottake>
							<lognote></lognote>
						</logginginfo>
						<labels>
							<label2>Iris</label2>
						</labels>
					</clipitem>
					<clipitem id="clipitem-325">
						<masterclipid>masterclip-98</masterclipid>
						<name>DVNA60000316AA</name>
						<enabled>TRUE</enabled>
						<duration>58641</duration>
						<rate>
							<timebase>25</timebase>
							<ntsc>FALSE</ntsc>
						</rate>
						<start>37655</start>
						<end>37724</end>
						<in>17838</in>
						<out>17908</out>
						<pproTicksIn>181245496320000</pproTicksIn>
						<pproTicksOut>181956741120000</pproTicksOut>
						<alphatype>none</alphatype>
						<file id="file-98"/>
						<link>
							<linkclipref>clipitem-325</linkclipref>
							<mediatype>video</mediatype>
							<trackindex>2</trackindex>
							<clipindex>69</clipindex>
						</link>
						<link>
							<linkclipref>clipitem-959</linkclipref>
							<mediatype>audio</mediatype>
							<trackindex>10</trackindex>
							<clipindex>61</clipindex>
							<groupindex>1</groupindex>
						</link>
						<link>
							<linkclipref>clipitem-1099</linkclipref>
							<mediatype>audio</mediatype>
							<trackindex>11</trackindex>
							<clipindex>61</clipindex>
							<groupindex>1</groupindex>
						</link>
						<logginginfo>
							<description>Ut i naturen - Hornøya</description>
							<scene></scene>
							<shottake></shottake>
							<lognote></lognote>
						</logginginfo>
						<labels>
							<label2>Iris</label2>
						</labels>
					</clipitem>
					<clipitem id="clipitem-326">
						<masterclipid>masterclip-106</masterclipid>
						<name>620_0749.MXF</name>
						<enabled>TRUE</enabled>
						<duration>1670</duration>
						<rate>
							<timebase>25</timebase>
							<ntsc>FALSE</ntsc>
						</rate>
						<start>38143</start>
						<end>38284</end>
						<in>974</in>
						<out>1115</out>
						<pproTicksIn>9896463360000</pproTicksIn>
						<pproTicksOut>11329113600000</pproTicksOut>
						<alphatype>none</alphatype>
						<file id="file-106"/>
						<link>
							<linkclipref>clipitem-326</linkclipref>
							<mediatype>video</mediatype>
							<trackindex>2</trackindex>
							<clipindex>70</clipindex>
						</link>
						<link>
							<linkclipref>clipitem-566</linkclipref>
							<mediatype>audio</mediatype>
							<trackindex>1</trackindex>
							<clipindex>77</clipindex>
							<groupindex>1</groupindex>
						</link>
						<logginginfo>
							<description></description>
							<scene></scene>
							<shottake></shottake>
							<lognote></lognote>
						</logginginfo>
						<labels>
							<label2>Iris</label2>
						</labels>
					</clipitem>
					<clipitem id="clipitem-327">
						<masterclipid>masterclip-202</masterclipid>
						<name>00066.MTS</name>
						<enabled>TRUE</enabled>
						<duration>819</duration>
						<rate>
							<timebase>25</timebase>
							<ntsc>FALSE</ntsc>
						</rate>
						<start>38369</start>
						<end>38538</end>
						<in>491</in>
						<out>660</out>
						<pproTicksIn>4988874240000</pproTicksIn>
						<pproTicksOut>6706022400000</pproTicksOut>
						<alphatype>black</alphatype>
						<pixelaspectratio>square</pixelaspectratio>
						<anamorphic>FALSE</anamorphic>
						<file id="file-202">
							<name>00066.MTS</name>
							<pathurl>file://localhost/Volumes/Vaagen/Prosjekter/DVNA210116_Horn%c3%b8ya_Nordvisjonen_010317_TGP/Bakomfilm/Horn%c3%b8ya%20rigging%201/00066.MTS</pathurl>
							<rate>
								<timebase>25</timebase>
								<ntsc>FALSE</ntsc>
							</rate>
							<duration>819</duration>
							<timecode>
								<rate>
									<timebase>25</timebase>
									<ntsc>FALSE</ntsc>
								</rate>
								<string>00:00:00:00</string>
								<frame>0</frame>
								<displayformat>NDF</displayformat>
								<reel>
									<name></name>
								</reel>
							</timecode>
							<media>
								<video>
									<samplecharacteristics>
										<rate>
											<timebase>25</timebase>
											<ntsc>FALSE</ntsc>
										</rate>
										<width>1920</width>
										<height>1080</height>
										<anamorphic>FALSE</anamorphic>
										<pixelaspectratio>square</pixelaspectratio>
										<fielddominance>upper</fielddominance>
									</samplecharacteristics>
								</video>
								<audio>
									<samplecharacteristics>
										<depth>16</depth>
										<samplerate>48000</samplerate>
									</samplecharacteristics>
									<channelcount>2</channelcount>
								</audio>
							</media>
						</file>
						<link>
							<linkclipref>clipitem-327</linkclipref>
							<mediatype>video</mediatype>
							<trackindex>2</trackindex>
							<clipindex>71</clipindex>
						</link>
						<link>
							<linkclipref>clipitem-781</linkclipref>
							<mediatype>audio</mediatype>
							<trackindex>8</trackindex>
							<clipindex>77</clipindex>
							<groupindex>1</groupindex>
						</link>
						<link>
							<linkclipref>clipitem-875</linkclipref>
							<mediatype>audio</mediatype>
							<trackindex>9</trackindex>
							<clipindex>75</clipindex>
							<groupindex>1</groupindex>
						</link>
						<logginginfo>
							<description></description>
							<scene></scene>
							<shottake></shottake>
							<lognote></lognote>
						</logginginfo>
						<labels>
							<label2>Iris</label2>
						</labels>
					</clipitem>
					<clipitem id="clipitem-328">
						<masterclipid>masterclip-203</masterclipid>
						<name>ENG19-2785.MXF</name>
						<enabled>TRUE</enabled>
						<duration>539</duration>
						<rate>
							<timebase>25</timebase>
							<ntsc>FALSE</ntsc>
						</rate>
						<start>38538</start>
						<end>38729</end>
						<in>253</in>
						<out>443</out>
						<pproTicksIn>2570641920000</pproTicksIn>
						<pproTicksOut>4501163520000</pproTicksOut>
						<alphatype>none</alphatype>
						<pixelaspectratio>square</pixelaspectratio>
						<anamorphic>FALSE</anamorphic>
						<file id="file-203">
							<name>ENG19-2785.MXF</name>
							<pathurl>file://localhost/Volumes/Vaagen/Prosjekter/DVNA210116_Horn%c3%b8ya_Nordvisjonen_010317_TGP/Vasking%20av%20kamera/ENG19-2785.MXF</pathurl>
							<rate>
								<timebase>25</timebase>
								<ntsc>FALSE</ntsc>
							</rate>
							<duration>539</duration>
							<timecode>
								<rate>
									<timebase>25</timebase>
									<ntsc>FALSE</ntsc>
								</rate>
								<string>19:35:50:09</string>
								<frame>1763759</frame>
								<displayformat>NDF</displayformat>
								<reel>
									<name></name>
								</reel>
							</timecode>
							<media>
								<video>
									<samplecharacteristics>
										<rate>
											<timebase>25</timebase>
											<ntsc>FALSE</ntsc>
										</rate>
										<width>1920</width>
										<height>1080</height>
										<anamorphic>FALSE</anamorphic>
										<pixelaspectratio>square</pixelaspectratio>
										<fielddominance>upper</fielddominance>
									</samplecharacteristics>
								</video>
								<audio>
									<samplecharacteristics>
										<depth>16</depth>
										<samplerate>48000</samplerate>
									</samplecharacteristics>
									<channelcount>2</channelcount>
								</audio>
								<audio>
									<samplecharacteristics>
										<depth>16</depth>
										<samplerate>48000</samplerate>
									</samplecharacteristics>
									<channelcount>2</channelcount>
								</audio>
								<audio>
									<samplecharacteristics>
										<depth>16</depth>
										<samplerate>48000</samplerate>
									</samplecharacteristics>
									<channelcount>2</channelcount>
								</audio>
								<audio>
									<samplecharacteristics>
										<depth>16</depth>
										<samplerate>48000</samplerate>
									</samplecharacteristics>
									<channelcount>2</channelcount>
								</audio>
							</media>
						</file>
						<logginginfo>
							<description></description>
							<scene></scene>
							<shottake></shottake>
							<lognote></lognote>
						</logginginfo>
						<labels>
							<label2>Iris</label2>
						</labels>
					</clipitem>
					<clipitem id="clipitem-329">
						<masterclipid>masterclip-204</masterclipid>
						<name>ENG19-2779.MXF</name>
						<enabled>TRUE</enabled>
						<duration>934</duration>
						<rate>
							<timebase>25</timebase>
							<ntsc>FALSE</ntsc>
						</rate>
						<start>38729</start>
						<end>38847</end>
						<in>458</in>
						<out>576</out>
						<pproTicksIn>4653573120000</pproTicksIn>
						<pproTicksOut>5852528640000</pproTicksOut>
						<alphatype>none</alphatype>
						<pixelaspectratio>square</pixelaspectratio>
						<anamorphic>FALSE</anamorphic>
						<file id="file-204">
							<name>ENG19-2779.MXF</name>
							<pathurl>file://localhost/Volumes/Vaagen/Prosjekter/DVNA210116_Horn%c3%b8ya_Nordvisjonen_010317_TGP/Vasking%20av%20kamera/ENG19-2779.MXF</pathurl>
							<rate>
								<timebase>25</timebase>
								<ntsc>FALSE</ntsc>
							</rate>
							<duration>934</duration>
							<timecode>
								<rate>
									<timebase>25</timebase>
									<ntsc>FALSE</ntsc>
								</rate>
								<string>19:29:05:14</string>
								<frame>1753639</frame>
								<displayformat>NDF</displayformat>
								<reel>
									<name></name>
								</reel>
							</timecode>
							<media>
								<video>
									<samplecharacteristics>
										<rate>
											<timebase>25</timebase>
											<ntsc>FALSE</ntsc>
										</rate>
										<width>1920</width>
										<height>1080</height>
										<anamorphic>FALSE</anamorphic>
										<pixelaspectratio>square</pixelaspectratio>
										<fielddominance>upper</fielddominance>
									</samplecharacteristics>
								</video>
								<audio>
									<samplecharacteristics>
										<depth>16</depth>
										<samplerate>48000</samplerate>
									</samplecharacteristics>
									<channelcount>2</channelcount>
								</audio>
								<audio>
									<samplecharacteristics>
										<depth>16</depth>
										<samplerate>48000</samplerate>
									</samplecharacteristics>
									<channelcount>2</channelcount>
								</audio>
								<audio>
									<samplecharacteristics>
										<depth>16</depth>
										<samplerate>48000</samplerate>
									</samplecharacteristics>
									<channelcount>2</channelcount>
								</audio>
								<audio>
									<samplecharacteristics>
										<depth>16</depth>
										<samplerate>48000</samplerate>
									</samplecharacteristics>
									<channelcount>2</channelcount>
								</audio>
							</media>
						</file>
						<logginginfo>
							<description></description>
							<scene></scene>
							<shottake></shottake>
							<lognote></lognote>
						</logginginfo>
						<labels>
							<label2>Iris</label2>
						</labels>
					</clipitem>
					<clipitem id="clipitem-330">
						<masterclipid>masterclip-205</masterclipid>
						<name>NRK1-210616.mxf</name>
						<enabled>TRUE</enabled>
						<duration>81914</duration>
						<rate>
							<timebase>25</timebase>
							<ntsc>FALSE</ntsc>
						</rate>
						<start>38847</start>
						<end>38880</end>
						<in>1285</in>
						<out>1318</out>
						<pproTicksIn>13056422400000</pproTicksIn>
						<pproTicksOut>13391723520000</pproTicksOut>
						<alphatype>none</alphatype>
						<pixelaspectratio>square</pixelaspectratio>
						<anamorphic>FALSE</anamorphic>
						<file id="file-205">
							<name>DVNA20000616AH.mxf</name>
							<pathurl>file://localhost/Volumes/Vaagen/Prosjekter/DVNA210116_Horn%c3%b8ya_Nordvisjonen_010317_TGP/NRK1sendinger/DVNA20000616AH.mxf</pathurl>
							<rate>
								<timebase>25</timebase>
								<ntsc>FALSE</ntsc>
							</rate>
							<duration>81914</duration>
							<timecode>
								<rate>
									<timebase>25</timebase>
									<ntsc>FALSE</ntsc>
								</rate>
								<string>20:55:18:10</string>
								<frame>1882960</frame>
								<displayformat>NDF</displayformat>
								<reel>
									<name></name>
								</reel>
							</timecode>
							<media>
								<video>
									<samplecharacteristics>
										<rate>
											<timebase>25</timebase>
											<ntsc>FALSE</ntsc>
										</rate>
										<width>1920</width>
										<height>1080</height>
										<anamorphic>FALSE</anamorphic>
										<pixelaspectratio>square</pixelaspectratio>
										<fielddominance>upper</fielddominance>
									</samplecharacteristics>
								</video>
								<audio>
									<samplecharacteristics>
										<depth>16</depth>
										<samplerate>48000</samplerate>
									</samplecharacteristics>
									<channelcount>2</channelcount>
								</audio>
								<audio>
									<samplecharacteristics>
										<depth>16</depth>
										<samplerate>48000</samplerate>
									</samplecharacteristics>
									<channelcount>2</channelcount>
								</audio>
								<audio>
									<samplecharacteristics>
										<depth>16</depth>
										<samplerate>48000</samplerate>
									</samplecharacteristics>
									<channelcount>2</channelcount>
								</audio>
							</media>
						</file>
						<logginginfo>
							<description>DVNA20000616</description>
							<scene></scene>
							<shottake></shottake>
							<lognote></lognote>
						</logginginfo>
						<labels>
							<label2>Iris</label2>
						</labels>
					</clipitem>
					<clipitem id="clipitem-331">
						<masterclipid>masterclip-205</masterclipid>
						<name>NRK1-210616.mxf</name>
						<enabled>TRUE</enabled>
						<duration>81914</duration>
						<rate>
							<timebase>25</timebase>
							<ntsc>FALSE</ntsc>
						</rate>
						<start>38880</start>
						<end>38949</end>
						<in>1400</in>
						<out>1469</out>
						<pproTicksIn>14224896000000</pproTicksIn>
						<pproTicksOut>14925980160000</pproTicksOut>
						<alphatype>none</alphatype>
						<file id="file-205"/>
						<logginginfo>
							<description>DVNA20000616</description>
							<scene></scene>
							<shottake></shottake>
							<lognote></lognote>
						</logginginfo>
						<labels>
							<label2>Iris</label2>
						</labels>
					</clipitem>
					<clipitem id="clipitem-332">
						<masterclipid>masterclip-205</masterclipid>
						<name>NRK1-210616.mxf</name>
						<enabled>TRUE</enabled>
						<duration>81914</duration>
						<rate>
							<timebase>25</timebase>
							<ntsc>FALSE</ntsc>
						</rate>
						<start>38949</start>
						<end>39363</end>
						<in>1497</in>
						<out>1912</out>
						<pproTicksIn>15210478080000</pproTicksIn>
						<pproTicksOut>19427143680000</pproTicksOut>
						<alphatype>none</alphatype>
						<file id="file-205"/>
						<logginginfo>
							<description>DVNA20000616</description>
							<scene></scene>
							<shottake></shottake>
							<lognote></lognote>
						</logginginfo>
						<labels>
							<label2>Iris</label2>
						</labels>
					</clipitem>
					<clipitem id="clipitem-333">
						<masterclipid>masterclip-206</masterclipid>
						<name>AA017401.MXF</name>
						<enabled>TRUE</enabled>
						<duration>1104</duration>
						<rate>
							<timebase>25</timebase>
							<ntsc>FALSE</ntsc>
						</rate>
						<start>39589</start>
						<end>39662</end>
						<in>874</in>
						<out>947</out>
						<pproTicksIn>8880399360000</pproTicksIn>
						<pproTicksOut>9622126080000</pproTicksOut>
						<alphatype>none</alphatype>
						<pixelaspectratio>square</pixelaspectratio>
						<anamorphic>FALSE</anamorphic>
						<file id="file-206">
							<name>AA017401.MXF</name>
							<pathurl>file://localhost/Volumes/Vaagen/Prosjekter/DVNA210116_Horn%c3%b8ya_Nordvisjonen_010317_TGP/Bakomfilm/05%20Rigging%20Horn%c3%b8ya%2025.%20april%20til%204.%20mai%202016/Video%20-%20foto%20Sindre%20Skrede/AA0174/AA017401.MXF</pathurl>
							<rate>
								<timebase>25</timebase>
								<ntsc>FALSE</ntsc>
							</rate>
							<duration>1104</duration>
							<timecode>
								<rate>
									<timebase>25</timebase>
									<ntsc>FALSE</ntsc>
								</rate>
								<string>01:28:39:21</string>
								<frame>132996</frame>
								<displayformat>NDF</displayformat>
								<reel>
									<name></name>
								</reel>
							</timecode>
							<media>
								<video>
									<samplecharacteristics>
										<rate>
											<timebase>25</timebase>
											<ntsc>FALSE</ntsc>
										</rate>
										<width>1920</width>
										<height>1080</height>
										<anamorphic>FALSE</anamorphic>
										<pixelaspectratio>square</pixelaspectratio>
										<fielddominance>none</fielddominance>
									</samplecharacteristics>
								</video>
								<audio>
									<samplecharacteristics>
										<depth>16</depth>
										<samplerate>48000</samplerate>
									</samplecharacteristics>
									<channelcount>2</channelcount>
								</audio>
								<audio>
									<samplecharacteristics>
										<depth>16</depth>
										<samplerate>48000</samplerate>
									</samplecharacteristics>
									<channelcount>2</channelcount>
								</audio>
							</media>
						</file>
						<link>
							<linkclipref>clipitem-333</linkclipref>
							<mediatype>video</mediatype>
							<trackindex>2</trackindex>
							<clipindex>77</clipindex>
						</link>
						<link>
							<linkclipref>clipitem-783</linkclipref>
							<mediatype>audio</mediatype>
							<trackindex>8</trackindex>
							<clipindex>79</clipindex>
							<groupindex>1</groupindex>
						</link>
						<link>
							<linkclipref>clipitem-877</linkclipref>
							<mediatype>audio</mediatype>
							<trackindex>9</trackindex>
							<clipindex>77</clipindex>
							<groupindex>1</groupindex>
						</link>
						<link>
							<linkclipref>clipitem-963</linkclipref>
							<mediatype>audio</mediatype>
							<trackindex>10</trackindex>
							<clipindex>65</clipindex>
							<groupindex>1</groupindex>
						</link>
						<link>
							<linkclipref>clipitem-1103</linkclipref>
							<mediatype>audio</mediatype>
							<trackindex>11</trackindex>
							<clipindex>65</clipindex>
							<groupindex>1</groupindex>
						</link>
						<logginginfo>
							<description></description>
							<scene></scene>
							<shottake></shottake>
							<lognote></lognote>
						</logginginfo>
						<labels>
							<label2>Iris</label2>
						</labels>
					</clipitem>
					<clipitem id="clipitem-334">
						<masterclipid>masterclip-207</masterclipid>
						<name>AA018201.MXF</name>
						<enabled>TRUE</enabled>
						<duration>1152</duration>
						<rate>
							<timebase>25</timebase>
							<ntsc>FALSE</ntsc>
						</rate>
						<start>39662</start>
						<end>39774</end>
						<in>192</in>
						<out>304</out>
						<pproTicksIn>1950842880000</pproTicksIn>
						<pproTicksOut>3088834560000</pproTicksOut>
						<alphatype>none</alphatype>
						<pixelaspectratio>square</pixelaspectratio>
						<anamorphic>FALSE</anamorphic>
						<file id="file-207">
							<name>AA018201.MXF</name>
							<pathurl>file://localhost/Volumes/Vaagen/Prosjekter/DVNA210116_Horn%c3%b8ya_Nordvisjonen_010317_TGP/Bakomfilm/05%20Rigging%20Horn%c3%b8ya%2025.%20april%20til%204.%20mai%202016/Video%20-%20foto%20Sindre%20Skrede/AA0182/AA018201.MXF</pathurl>
							<rate>
								<timebase>25</timebase>
								<ntsc>FALSE</ntsc>
							</rate>
							<duration>1152</duration>
							<timecode>
								<rate>
									<timebase>25</timebase>
									<ntsc>FALSE</ntsc>
								</rate>
								<string>01:32:28:08</string>
								<frame>138708</frame>
								<displayformat>NDF</displayformat>
								<reel>
									<name></name>
								</reel>
							</timecode>
							<media>
								<video>
									<samplecharacteristics>
										<rate>
											<timebase>25</timebase>
											<ntsc>FALSE</ntsc>
										</rate>
										<width>1920</width>
										<height>1080</height>
										<anamorphic>FALSE</anamorphic>
										<pixelaspectratio>square</pixelaspectratio>
										<fielddominance>none</fielddominance>
									</samplecharacteristics>
								</video>
								<audio>
									<samplecharacteristics>
										<depth>16</depth>
										<samplerate>48000</samplerate>
									</samplecharacteristics>
									<channelcount>2</channelcount>
								</audio>
								<audio>
									<samplecharacteristics>
										<depth>16</depth>
										<samplerate>48000</samplerate>
									</samplecharacteristics>
									<channelcount>2</channelcount>
								</audio>
							</media>
						</file>
						<link>
							<linkclipref>clipitem-334</linkclipref>
							<mediatype>video</mediatype>
							<trackindex>2</trackindex>
							<clipindex>78</clipindex>
						</link>
						<link>
							<linkclipref>clipitem-784</linkclipref>
							<mediatype>audio</mediatype>
							<trackindex>8</trackindex>
							<clipindex>80</clipindex>
							<groupindex>1</groupindex>
						</link>
						<link>
							<linkclipref>clipitem-878</linkclipref>
							<mediatype>audio</mediatype>
							<trackindex>9</trackindex>
							<clipindex>78</clipindex>
							<groupindex>1</groupindex>
						</link>
						<link>
							<linkclipref>clipitem-964</linkclipref>
							<mediatype>audio</mediatype>
							<trackindex>10</trackindex>
							<clipindex>66</clipindex>
							<groupindex>1</groupindex>
						</link>
						<link>
							<linkclipref>clipitem-1104</linkclipref>
							<mediatype>audio</mediatype>
							<trackindex>11</trackindex>
							<clipindex>66</clipindex>
							<groupindex>1</groupindex>
						</link>
						<logginginfo>
							<description></description>
							<scene></scene>
							<shottake></shottake>
							<lognote></lognote>
						</logginginfo>
						<labels>
							<label2>Iris</label2>
						</labels>
					</clipitem>
					<clipitem id="clipitem-335">
						<masterclipid>masterclip-108</masterclipid>
						<name>00067.MTS</name>
						<enabled>TRUE</enabled>
						<duration>858</duration>
						<rate>
							<timebase>25</timebase>
							<ntsc>FALSE</ntsc>
						</rate>
						<start>39774</start>
						<end>39863</end>
						<in>688</in>
						<out>777</out>
						<pproTicksIn>6990520320000</pproTicksIn>
						<pproTicksOut>7894817280000</pproTicksOut>
						<alphatype>black</alphatype>
						<file id="file-108"/>
						<logginginfo>
							<description></description>
							<scene></scene>
							<shottake></shottake>
							<lognote></lognote>
						</logginginfo>
						<labels>
							<label2>Iris</label2>
						</labels>
					</clipitem>
					<clipitem id="clipitem-336">
						<masterclipid>masterclip-208</masterclipid>
						<name>00003.MTS</name>
						<enabled>TRUE</enabled>
						<duration>660</duration>
						<rate>
							<timebase>25</timebase>
							<ntsc>FALSE</ntsc>
						</rate>
						<start>40118</start>
						<end>40272</end>
						<in>187</in>
						<out>342</out>
						<pproTicksIn>1900039680000</pproTicksIn>
						<pproTicksOut>3474938880000</pproTicksOut>
						<alphatype>black</alphatype>
						<pixelaspectratio>square</pixelaspectratio>
						<anamorphic>FALSE</anamorphic>
						<file id="file-208">
							<name>00003.MTS</name>
							<pathurl>file://localhost/Volumes/Vaagen/Prosjekter/DVNA210116_Horn%c3%b8ya_Nordvisjonen_010317_TGP/Bakomfilm/Rigging%20oktober%2015/BDMV/STREAM/00003.MTS</pathurl>
							<rate>
								<timebase>50</timebase>
								<ntsc>FALSE</ntsc>
							</rate>
							<duration>1320</duration>
							<timecode>
								<rate>
									<timebase>50</timebase>
									<ntsc>FALSE</ntsc>
								</rate>
								<string>19:00:19:42</string>
								<frame>3420992</frame>
								<displayformat>NDF</displayformat>
								<reel>
									<name></name>
								</reel>
							</timecode>
							<media>
								<video>
									<samplecharacteristics>
										<rate>
											<timebase>50</timebase>
											<ntsc>FALSE</ntsc>
										</rate>
										<width>1920</width>
										<height>1080</height>
										<anamorphic>FALSE</anamorphic>
										<pixelaspectratio>square</pixelaspectratio>
										<fielddominance>none</fielddominance>
									</samplecharacteristics>
								</video>
								<audio>
									<samplecharacteristics>
										<depth>16</depth>
										<samplerate>48000</samplerate>
									</samplecharacteristics>
									<channelcount>2</channelcount>
								</audio>
							</media>
						</file>
						<link>
							<linkclipref>clipitem-336</linkclipref>
							<mediatype>video</mediatype>
							<trackindex>2</trackindex>
							<clipindex>80</clipindex>
						</link>
						<link>
							<linkclipref>clipitem-785</linkclipref>
							<mediatype>audio</mediatype>
							<trackindex>8</trackindex>
							<clipindex>81</clipindex>
							<groupindex>1</groupindex>
						</link>
						<link>
							<linkclipref>clipitem-879</linkclipref>
							<mediatype>audio</mediatype>
							<trackindex>9</trackindex>
							<clipindex>79</clipindex>
							<groupindex>1</groupindex>
						</link>
						<logginginfo>
							<description></description>
							<scene></scene>
							<shottake></shottake>
							<lognote></lognote>
						</logginginfo>
						<labels>
							<label2>Iris</label2>
						</labels>
					</clipitem>
					<clipitem id="clipitem-337">
						<masterclipid>masterclip-209</masterclipid>
						<name>bakomstoff fra iphone og fotoapp.mxf</name>
						<enabled>TRUE</enabled>
						<duration>25210</duration>
						<rate>
							<timebase>25</timebase>
							<ntsc>FALSE</ntsc>
						</rate>
						<start>40272</start>
						<end>40332</end>
						<in>15628</in>
						<out>15688</out>
						<pproTicksIn>158790481920000</pproTicksIn>
						<pproTicksOut>159400120320000</pproTicksOut>
						<alphatype>none</alphatype>
						<pixelaspectratio>square</pixelaspectratio>
						<anamorphic>FALSE</anamorphic>
						<file id="file-209">
							<name>bakomstoff fra iphone og fotoapp.mxf</name>
							<pathurl>file://localhost/Volumes/Vaagen/Prosjekter/DVNA210116_Horn%c3%b8ya_Nordvisjonen_010317_TGP/Bakomfilm/bakomstoff%20fra%20iphone%20og%20fotoapp.mxf</pathurl>
							<rate>
								<timebase>25</timebase>
								<ntsc>FALSE</ntsc>
							</rate>
							<duration>25210</duration>
							<timecode>
								<rate>
									<timebase>25</timebase>
									<ntsc>FALSE</ntsc>
								</rate>
								<string>00:00:00:00</string>
								<frame>0</frame>
								<displayformat>NDF</displayformat>
								<reel>
									<name></name>
								</reel>
							</timecode>
							<media>
								<video>
									<samplecharacteristics>
										<rate>
											<timebase>25</timebase>
											<ntsc>FALSE</ntsc>
										</rate>
										<width>1920</width>
										<height>1080</height>
										<anamorphic>FALSE</anamorphic>
										<pixelaspectratio>square</pixelaspectratio>
										<fielddominance>upper</fielddominance>
									</samplecharacteristics>
								</video>
								<audio>
									<samplecharacteristics>
										<depth>16</depth>
										<samplerate>48000</samplerate>
									</samplecharacteristics>
									<channelcount>2</channelcount>
								</audio>
								<audio>
									<samplecharacteristics>
										<depth>16</depth>
										<samplerate>48000</samplerate>
									</samplecharacteristics>
									<channelcount>2</channelcount>
								</audio>
							</media>
						</file>
						<link>
							<linkclipref>clipitem-337</linkclipref>
							<mediatype>video</mediatype>
							<trackindex>2</trackindex>
							<clipindex>81</clipindex>
						</link>
						<link>
							<linkclipref>clipitem-786</linkclipref>
							<mediatype>audio</mediatype>
							<trackindex>8</trackindex>
							<clipindex>82</clipindex>
							<groupindex>1</groupindex>
						</link>
						<link>
							<linkclipref>clipitem-880</linkclipref>
							<mediatype>audio</mediatype>
							<trackindex>9</trackindex>
							<clipindex>80</clipindex>
							<groupindex>1</groupindex>
						</link>
						<logginginfo>
							<description></description>
							<scene></scene>
							<shottake></shottake>
							<lognote></lognote>
						</logginginfo>
						<labels>
							<label2>Iris</label2>
						</labels>
					</clipitem>
					<clipitem id="clipitem-338">
						<masterclipid>masterclip-209</masterclipid>
						<name>bakomstoff fra iphone og fotoapp.mxf</name>
						<enabled>TRUE</enabled>
						<duration>25210</duration>
						<rate>
							<timebase>25</timebase>
							<ntsc>FALSE</ntsc>
						</rate>
						<start>40332</start>
						<end>40420</end>
						<in>16050</in>
						<out>16138</out>
						<pproTicksIn>163078272000000</pproTicksIn>
						<pproTicksOut>163972408320000</pproTicksOut>
						<alphatype>none</alphatype>
						<file id="file-209"/>
						<link>
							<linkclipref>clipitem-338</linkclipref>
							<mediatype>video</mediatype>
							<trackindex>2</trackindex>
							<clipindex>82</clipindex>
						</link>
						<link>
							<linkclipref>clipitem-787</linkclipref>
							<mediatype>audio</mediatype>
							<trackindex>8</trackindex>
							<clipindex>83</clipindex>
							<groupindex>1</groupindex>
						</link>
						<link>
							<linkclipref>clipitem-881</linkclipref>
							<mediatype>audio</mediatype>
							<trackindex>9</trackindex>
							<clipindex>81</clipindex>
							<groupindex>1</groupindex>
						</link>
						<logginginfo>
							<description></description>
							<scene></scene>
							<shottake></shottake>
							<lognote></lognote>
						</logginginfo>
						<labels>
							<label2>Iris</label2>
						</labels>
					</clipitem>
					<clipitem id="clipitem-339">
						<masterclipid>masterclip-210</masterclipid>
						<name>DVNA25000416AU.mxf</name>
						<enabled>TRUE</enabled>
						<duration>181792</duration>
						<rate>
							<timebase>25</timebase>
							<ntsc>FALSE</ntsc>
						</rate>
						<start>40420</start>
						<end>40532</end>
						<in>160572</in>
						<out>160684</out>
						<pproTicksIn>1631514286080000</pproTicksIn>
						<pproTicksOut>1632652277760000</pproTicksOut>
						<alphatype>none</alphatype>
						<pixelaspectratio>square</pixelaspectratio>
						<anamorphic>FALSE</anamorphic>
						<file id="file-210">
							<name>DVNA25000416AU.mxf</name>
							<pathurl>file://localhost/Volumes/Vaagen/Prosjekter/DVNA210116_Horn%c3%b8ya_Nordvisjonen_010317_TGP/Horn%c3%b8ya%20Trond/NRK2sendinger/DVNA25000416AU.mxf</pathurl>
							<rate>
								<timebase>25</timebase>
								<ntsc>FALSE</ntsc>
							</rate>
							<duration>181792</duration>
							<timecode>
								<rate>
									<timebase>25</timebase>
									<ntsc>FALSE</ntsc>
								</rate>
								<string>21:59:00:00</string>
								<frame>1978500</frame>
								<displayformat>NDF</displayformat>
								<reel>
									<name></name>
								</reel>
							</timecode>
							<media>
								<video>
									<samplecharacteristics>
										<rate>
											<timebase>25</timebase>
											<ntsc>FALSE</ntsc>
										</rate>
										<width>1920</width>
										<height>1080</height>
										<anamorphic>FALSE</anamorphic>
										<pixelaspectratio>square</pixelaspectratio>
										<fielddominance>upper</fielddominance>
									</samplecharacteristics>
								</video>
								<audio>
									<samplecharacteristics>
										<depth>16</depth>
										<samplerate>48000</samplerate>
									</samplecharacteristics>
									<channelcount>2</channelcount>
								</audio>
								<audio>
									<samplecharacteristics>
										<depth>16</depth>
										<samplerate>48000</samplerate>
									</samplecharacteristics>
									<channelcount>2</channelcount>
								</audio>
								<audio>
									<samplecharacteristics>
										<depth>16</depth>
										<samplerate>48000</samplerate>
									</samplecharacteristics>
									<channelcount>2</channelcount>
								</audio>
							</media>
						</file>
						<link>
							<linkclipref>clipitem-339</linkclipref>
							<mediatype>video</mediatype>
							<trackindex>2</trackindex>
							<clipindex>83</clipindex>
						</link>
						<link>
							<linkclipref>clipitem-965</linkclipref>
							<mediatype>audio</mediatype>
							<trackindex>10</trackindex>
							<clipindex>67</clipindex>
							<groupindex>1</groupindex>
						</link>
						<link>
							<linkclipref>clipitem-1105</linkclipref>
							<mediatype>audio</mediatype>
							<trackindex>11</trackindex>
							<clipindex>67</clipindex>
							<groupindex>1</groupindex>
						</link>
						<logginginfo>
							<description>Program 4</description>
							<scene></scene>
							<shottake></shottake>
							<lognote></lognote>
						</logginginfo>
						<labels>
							<label2>Iris</label2>
						</labels>
					</clipitem>
					<clipitem id="clipitem-340">
						<masterclipid>masterclip-211</masterclipid>
						<name>5E4A0180.MOV</name>
						<enabled>TRUE</enabled>
						<duration>585</duration>
						<rate>
							<timebase>25</timebase>
							<ntsc>FALSE</ntsc>
						</rate>
						<start>40532</start>
						<end>41031</end>
						<in>40</in>
						<out>539</out>
						<pproTicksIn>406425600000</pproTicksIn>
						<pproTicksOut>5476584960000</pproTicksOut>
						<alphatype>black</alphatype>
						<pixelaspectratio>square</pixelaspectratio>
						<anamorphic>FALSE</anamorphic>
						<file id="file-211">
							<name>5E4A0180.MOV</name>
							<pathurl>file://localhost/Volumes/Vaagen/Prosjekter/DVNA210116_Horn%c3%b8ya_Nordvisjonen_010317_TGP/Bakomfilm/Bilder%20fra%20Sindre%20Skrede/Skarv%20har%20stja%cc%8alet%20ledning/5E4A0180.MOV</pathurl>
							<rate>
								<timebase>25</timebase>
								<ntsc>FALSE</ntsc>
							</rate>
							<duration>585</duration>
							<timecode>
								<rate>
									<timebase>25</timebase>
									<ntsc>FALSE</ntsc>
								</rate>
								<string>00:24:51:19</string>
								<frame>37294</frame>
								<displayformat>NDF</displayformat>
								<reel>
									<name></name>
								</reel>
							</timecode>
							<media>
								<video>
									<samplecharacteristics>
										<rate>
											<timebase>25</timebase>
											<ntsc>FALSE</ntsc>
										</rate>
										<width>1920</width>
										<height>1080</height>
										<anamorphic>FALSE</anamorphic>
										<pixelaspectratio>square</pixelaspectratio>
										<fielddominance>none</fielddominance>
									</samplecharacteristics>
								</video>
								<audio>
									<samplecharacteristics>
										<depth>16</depth>
										<samplerate>48000</samplerate>
									</samplecharacteristics>
									<channelcount>2</channelcount>
								</audio>
							</media>
						</file>
						<link>
							<linkclipref>clipitem-340</linkclipref>
							<mediatype>video</mediatype>
							<trackindex>2</trackindex>
							<clipindex>84</clipindex>
						</link>
						<link>
							<linkclipref>clipitem-1230</linkclipref>
							<mediatype>audio</mediatype>
							<trackindex>12</trackindex>
							<clipindex>64</clipindex>
							<groupindex>1</groupindex>
						</link>
						<link>
							<linkclipref>clipitem-1315</linkclipref>
							<mediatype>audio</mediatype>
							<trackindex>13</trackindex>
							<clipindex>64</clipindex>
							<groupindex>1</groupindex>
						</link>
						<logginginfo>
							<description>Skarv har lagt reir under kamerafeste</description>
							<scene></scene>
							<shottake></shottake>
							<lognote></lognote>
						</logginginfo>
						<labels>
							<label2>Iris</label2>
						</labels>
					</clipitem>
					<clipitem id="clipitem-341">
						<masterclipid>masterclip-212</masterclipid>
						<name>Video 28.04.2016, 11.52.12.mov</name>
						<enabled>TRUE</enabled>
						<duration>403</duration>
						<rate>
							<timebase>25</timebase>
							<ntsc>FALSE</ntsc>
						</rate>
						<start>41031</start>
						<end>41272</end>
						<in>155</in>
						<out>396</out>
						<pproTicksIn>1574899200000</pproTicksIn>
						<pproTicksOut>4023613440000</pproTicksOut>
						<alphatype>black</alphatype>
						<pixelaspectratio>square</pixelaspectratio>
						<anamorphic>FALSE</anamorphic>
						<file id="file-212">
							<name>Video 28.04.2016, 11.52.12.mov</name>
							<pathurl>file://localhost/Volumes/Vaagen/Prosjekter/DVNA210116_Horn%c3%b8ya_Nordvisjonen_010317_TGP/Bakomfilm/Bilder%20fra%20Sindre%20Skrede/Skarv%20ha%20stja%cc%8alet%20stropp/Video%2028.04.2016,%2011.52.12.mov</pathurl>
							<rate>
								<timebase>30</timebase>
								<ntsc>FALSE</ntsc>
							</rate>
							<duration>484</duration>
							<timecode>
								<rate>
									<timebase>30</timebase>
									<ntsc>FALSE</ntsc>
								</rate>
								<string>00:00:00:00</string>
								<frame>0</frame>
								<displayformat>NDF</displayformat>
								<reel>
									<name></name>
								</reel>
							</timecode>
							<media>
								<video>
									<samplecharacteristics>
										<rate>
											<timebase>30</timebase>
											<ntsc>FALSE</ntsc>
										</rate>
										<width>1920</width>
										<height>1080</height>
										<anamorphic>FALSE</anamorphic>
										<pixelaspectratio>square</pixelaspectratio>
										<fielddominance>none</fielddominance>
									</samplecharacteristics>
								</video>
								<audio>
									<samplecharacteristics>
										<depth>16</depth>
										<samplerate>44100</samplerate>
									</samplecharacteristics>
									<channelcount>1</channelcount>
									<audiochannel>
										<sourcechannel>1</sourcechannel>
									</audiochannel>
								</audio>
							</media>
						</file>
						<logginginfo>
							<description></description>
							<scene></scene>
							<shottake></shottake>
							<lognote></lognote>
						</logginginfo>
						<labels>
							<label2>Iris</label2>
						</labels>
					</clipitem>
					<clipitem id="clipitem-342">
						<masterclipid>masterclip-98</masterclipid>
						<name>DVNA60000316AA</name>
						<enabled>TRUE</enabled>
						<duration>58641</duration>
						<rate>
							<timebase>25</timebase>
							<ntsc>FALSE</ntsc>
						</rate>
						<start>41272</start>
						<end>41476</end>
						<in>17549</in>
						<out>17753</out>
						<pproTicksIn>178309071360000</pproTicksIn>
						<pproTicksOut>180381841920000</pproTicksOut>
						<alphatype>none</alphatype>
						<file id="file-98"/>
						<logginginfo>
							<description>Ut i naturen - Hornøya</description>
							<scene></scene>
							<shottake></shottake>
							<lognote></lognote>
						</logginginfo>
						<labels>
							<label2>Iris</label2>
						</labels>
					</clipitem>
					<clipitem id="clipitem-343">
						<masterclipid>masterclip-213</masterclipid>
						<name>AA011201.MXF</name>
						<enabled>TRUE</enabled>
						<duration>1428</duration>
						<rate>
							<timebase>25</timebase>
							<ntsc>FALSE</ntsc>
						</rate>
						<start>41476</start>
						<end>41571</end>
						<in>789</in>
						<out>884</out>
						<pproTicksIn>8016744960000</pproTicksIn>
						<pproTicksOut>8982005760000</pproTicksOut>
						<alphatype>none</alphatype>
						<pixelaspectratio>square</pixelaspectratio>
						<anamorphic>FALSE</anamorphic>
						<file id="file-213">
							<name>AA011201.MXF</name>
							<pathurl>file://localhost/Volumes/Vaagen/Prosjekter/DVNA210116_Horn%c3%b8ya_Nordvisjonen_010317_TGP/Bakomfilm/05%20Rigging%20Horn%c3%b8ya%2025.%20april%20til%204.%20mai%202016/Video%20-%20foto%20Sindre%20Skrede/AA0112/AA011201.MXF</pathurl>
							<rate>
								<timebase>25</timebase>
								<ntsc>FALSE</ntsc>
							</rate>
							<duration>1428</duration>
							<timecode>
								<rate>
									<timebase>25</timebase>
									<ntsc>FALSE</ntsc>
								</rate>
								<string>01:06:08:16</string>
								<frame>99216</frame>
								<displayformat>NDF</displayformat>
								<reel>
									<name></name>
								</reel>
							</timecode>
							<media>
								<video>
									<samplecharacteristics>
										<rate>
											<timebase>25</timebase>
											<ntsc>FALSE</ntsc>
										</rate>
										<width>1920</width>
										<height>1080</height>
										<anamorphic>FALSE</anamorphic>
										<pixelaspectratio>square</pixelaspectratio>
										<fielddominance>none</fielddominance>
									</samplecharacteristics>
								</video>
								<audio>
									<samplecharacteristics>
										<depth>16</depth>
										<samplerate>48000</samplerate>
									</samplecharacteristics>
									<channelcount>2</channelcount>
								</audio>
								<audio>
									<samplecharacteristics>
										<depth>16</depth>
										<samplerate>48000</samplerate>
									</samplecharacteristics>
									<channelcount>2</channelcount>
								</audio>
							</media>
						</file>
						<logginginfo>
							<description></description>
							<scene></scene>
							<shottake></shottake>
							<lognote></lognote>
						</logginginfo>
						<labels>
							<label2>Iris</label2>
						</labels>
					</clipitem>
					<clipitem id="clipitem-344">
						<masterclipid>masterclip-97</masterclipid>
						<name>AA011001.MXF</name>
						<enabled>TRUE</enabled>
						<duration>2088</duration>
						<rate>
							<timebase>25</timebase>
							<ntsc>FALSE</ntsc>
						</rate>
						<start>41571</start>
						<end>41753</end>
						<in>545</in>
						<out>727</out>
						<pproTicksIn>5537548800000</pproTicksIn>
						<pproTicksOut>7386785280000</pproTicksOut>
						<alphatype>none</alphatype>
						<file id="file-97"/>
						<link>
							<linkclipref>clipitem-344</linkclipref>
							<mediatype>video</mediatype>
							<trackindex>2</trackindex>
							<clipindex>88</clipindex>
						</link>
						<link>
							<linkclipref>clipitem-968</linkclipref>
							<mediatype>audio</mediatype>
							<trackindex>10</trackindex>
							<clipindex>70</clipindex>
							<groupindex>1</groupindex>
						</link>
						<link>
							<linkclipref>clipitem-1108</linkclipref>
							<mediatype>audio</mediatype>
							<trackindex>11</trackindex>
							<clipindex>70</clipindex>
							<groupindex>1</groupindex>
						</link>
						<logginginfo>
							<description></description>
							<scene></scene>
							<shottake></shottake>
							<lognote></lognote>
						</logginginfo>
						<labels>
							<label2>Iris</label2>
						</labels>
					</clipitem>
					<clipitem id="clipitem-345">
						<masterclipid>masterclip-214</masterclipid>
						<name>AA014401.MXF</name>
						<enabled>TRUE</enabled>
						<duration>588</duration>
						<rate>
							<timebase>25</timebase>
							<ntsc>FALSE</ntsc>
						</rate>
						<start>41753</start>
						<end>42128</end>
						<in>180</in>
						<out>555</out>
						<pproTicksIn>1828915200000</pproTicksIn>
						<pproTicksOut>5639155200000</pproTicksOut>
						<alphatype>none</alphatype>
						<pixelaspectratio>square</pixelaspectratio>
						<anamorphic>FALSE</anamorphic>
						<file id="file-214">
							<name>AA014401.MXF</name>
							<pathurl>file://localhost/Volumes/Vaagen/Prosjekter/DVNA210116_Horn%c3%b8ya_Nordvisjonen_010317_TGP/Bakomfilm/05%20Rigging%20Horn%c3%b8ya%2025.%20april%20til%204.%20mai%202016/Video%20-%20foto%20Sindre%20Skrede/AA0144/AA014401.MXF</pathurl>
							<rate>
								<timebase>25</timebase>
								<ntsc>FALSE</ntsc>
							</rate>
							<duration>588</duration>
							<timecode>
								<rate>
									<timebase>25</timebase>
									<ntsc>FALSE</ntsc>
								</rate>
								<string>01:15:58:14</string>
								<frame>113964</frame>
								<displayformat>NDF</displayformat>
								<reel>
									<name></name>
								</reel>
							</timecode>
							<media>
								<video>
									<samplecharacteristics>
										<rate>
											<timebase>25</timebase>
											<ntsc>FALSE</ntsc>
										</rate>
										<width>1920</width>
										<height>1080</height>
										<anamorphic>FALSE</anamorphic>
										<pixelaspectratio>square</pixelaspectratio>
										<fielddominance>none</fielddominance>
									</samplecharacteristics>
								</video>
								<audio>
									<samplecharacteristics>
										<depth>16</depth>
										<samplerate>48000</samplerate>
									</samplecharacteristics>
									<channelcount>2</channelcount>
								</audio>
								<audio>
									<samplecharacteristics>
										<depth>16</depth>
										<samplerate>48000</samplerate>
									</samplecharacteristics>
									<channelcount>2</channelcount>
								</audio>
							</media>
						</file>
						<link>
							<linkclipref>clipitem-345</linkclipref>
							<mediatype>video</mediatype>
							<trackindex>2</trackindex>
							<clipindex>89</clipindex>
						</link>
						<link>
							<linkclipref>clipitem-969</linkclipref>
							<mediatype>audio</mediatype>
							<trackindex>10</trackindex>
							<clipindex>71</clipindex>
							<groupindex>1</groupindex>
						</link>
						<link>
							<linkclipref>clipitem-1109</linkclipref>
							<mediatype>audio</mediatype>
							<trackindex>11</trackindex>
							<clipindex>71</clipindex>
							<groupindex>1</groupindex>
						</link>
						<logginginfo>
							<description></description>
							<scene></scene>
							<shottake></shottake>
							<lognote></lognote>
						</logginginfo>
						<labels>
							<label2>Iris</label2>
						</labels>
					</clipitem>
					<clipitem id="clipitem-346">
						<masterclipid>masterclip-215</masterclipid>
						<name>AA018401.MXF</name>
						<enabled>TRUE</enabled>
						<duration>1632</duration>
						<rate>
							<timebase>25</timebase>
							<ntsc>FALSE</ntsc>
						</rate>
						<start>42128</start>
						<end>42199</end>
						<in>773</in>
						<out>844</out>
						<pproTicksIn>7854174720000</pproTicksIn>
						<pproTicksOut>8575580160000</pproTicksOut>
						<alphatype>none</alphatype>
						<pixelaspectratio>square</pixelaspectratio>
						<anamorphic>FALSE</anamorphic>
						<file id="file-215">
							<name>AA018401.MXF</name>
							<pathurl>file://localhost/Volumes/Vaagen/Prosjekter/DVNA210116_Horn%c3%b8ya_Nordvisjonen_010317_TGP/Bakomfilm/05%20Rigging%20Horn%c3%b8ya%2025.%20april%20til%204.%20mai%202016/Video%20-%20foto%20Sindre%20Skrede/AA0184/AA018401.MXF</pathurl>
							<rate>
								<timebase>25</timebase>
								<ntsc>FALSE</ntsc>
							</rate>
							<duration>1632</duration>
							<timecode>
								<rate>
									<timebase>25</timebase>
									<ntsc>FALSE</ntsc>
								</rate>
								<string>01:35:32:16</string>
								<frame>143316</frame>
								<displayformat>NDF</displayformat>
								<reel>
									<name></name>
								</reel>
							</timecode>
							<media>
								<video>
									<samplecharacteristics>
										<rate>
											<timebase>25</timebase>
											<ntsc>FALSE</ntsc>
										</rate>
										<width>1920</width>
										<height>1080</height>
										<anamorphic>FALSE</anamorphic>
										<pixelaspectratio>square</pixelaspectratio>
										<fielddominance>none</fielddominance>
									</samplecharacteristics>
								</video>
								<audio>
									<samplecharacteristics>
										<depth>16</depth>
										<samplerate>48000</samplerate>
									</samplecharacteristics>
									<channelcount>2</channelcount>
								</audio>
								<audio>
									<samplecharacteristics>
										<depth>16</depth>
										<samplerate>48000</samplerate>
									</samplecharacteristics>
									<channelcount>2</channelcount>
								</audio>
							</media>
						</file>
						<logginginfo>
							<description></description>
							<scene></scene>
							<shottake></shottake>
							<lognote></lognote>
						</logginginfo>
						<labels>
							<label2>Iris</label2>
						</labels>
					</clipitem>
					<clipitem id="clipitem-347">
						<masterclipid>masterclip-215</masterclipid>
						<name>AA018401.MXF</name>
						<enabled>TRUE</enabled>
						<duration>1632</duration>
						<rate>
							<timebase>25</timebase>
							<ntsc>FALSE</ntsc>
						</rate>
						<start>42199</start>
						<end>42309</end>
						<in>1009</in>
						<out>1119</out>
						<pproTicksIn>10252085760000</pproTicksIn>
						<pproTicksOut>11369756160000</pproTicksOut>
						<alphatype>none</alphatype>
						<file id="file-215"/>
						<link>
							<linkclipref>clipitem-347</linkclipref>
							<mediatype>video</mediatype>
							<trackindex>2</trackindex>
							<clipindex>91</clipindex>
						</link>
						<link>
							<linkclipref>clipitem-971</linkclipref>
							<mediatype>audio</mediatype>
							<trackindex>10</trackindex>
							<clipindex>73</clipindex>
							<groupindex>1</groupindex>
						</link>
						<link>
							<linkclipref>clipitem-1111</linkclipref>
							<mediatype>audio</mediatype>
							<trackindex>11</trackindex>
							<clipindex>73</clipindex>
							<groupindex>1</groupindex>
						</link>
						<logginginfo>
							<description></description>
							<scene></scene>
							<shottake></shottake>
							<lognote></lognote>
						</logginginfo>
						<labels>
							<label2>Iris</label2>
						</labels>
					</clipitem>
					<clipitem id="clipitem-348">
						<masterclipid>masterclip-216</masterclipid>
						<name>AA018301.MXF</name>
						<enabled>TRUE</enabled>
						<duration>3456</duration>
						<rate>
							<timebase>25</timebase>
							<ntsc>FALSE</ntsc>
						</rate>
						<start>42309</start>
						<end>42434</end>
						<in>173</in>
						<out>298</out>
						<pproTicksIn>1757790720000</pproTicksIn>
						<pproTicksOut>3027870720000</pproTicksOut>
						<alphatype>none</alphatype>
						<pixelaspectratio>square</pixelaspectratio>
						<anamorphic>FALSE</anamorphic>
						<file id="file-216">
							<name>AA018301.MXF</name>
							<pathurl>file://localhost/Volumes/Vaagen/Prosjekter/DVNA210116_Horn%c3%b8ya_Nordvisjonen_010317_TGP/Bakomfilm/05%20Rigging%20Horn%c3%b8ya%2025.%20april%20til%204.%20mai%202016/Video%20-%20foto%20Sindre%20Skrede/AA0183/AA018301.MXF</pathurl>
							<rate>
								<timebase>25</timebase>
								<ntsc>FALSE</ntsc>
							</rate>
							<duration>3456</duration>
							<timecode>
								<rate>
									<timebase>25</timebase>
									<ntsc>FALSE</ntsc>
								</rate>
								<string>01:33:14:10</string>
								<frame>139860</frame>
								<displayformat>NDF</displayformat>
								<reel>
									<name></name>
								</reel>
							</timecode>
							<media>
								<video>
									<samplecharacteristics>
										<rate>
											<timebase>25</timebase>
											<ntsc>FALSE</ntsc>
										</rate>
										<width>1920</width>
										<height>1080</height>
										<anamorphic>FALSE</anamorphic>
										<pixelaspectratio>square</pixelaspectratio>
										<fielddominance>none</fielddominance>
									</samplecharacteristics>
								</video>
								<audio>
									<samplecharacteristics>
										<depth>16</depth>
										<samplerate>48000</samplerate>
									</samplecharacteristics>
									<channelcount>2</channelcount>
								</audio>
								<audio>
									<samplecharacteristics>
										<depth>16</depth>
										<samplerate>48000</samplerate>
									</samplecharacteristics>
									<channelcount>2</channelcount>
								</audio>
							</media>
						</file>
						<link>
							<linkclipref>clipitem-348</linkclipref>
							<mediatype>video</mediatype>
							<trackindex>2</trackindex>
							<clipindex>92</clipindex>
						</link>
						<link>
							<linkclipref>clipitem-972</linkclipref>
							<mediatype>audio</mediatype>
							<trackindex>10</trackindex>
							<clipindex>74</clipindex>
							<groupindex>1</groupindex>
						</link>
						<link>
							<linkclipref>clipitem-1112</linkclipref>
							<mediatype>audio</mediatype>
							<trackindex>11</trackindex>
							<clipindex>74</clipindex>
							<groupindex>1</groupindex>
						</link>
						<logginginfo>
							<description></description>
							<scene></scene>
							<shottake></shottake>
							<lognote></lognote>
						</logginginfo>
						<labels>
							<label2>Iris</label2>
						</labels>
					</clipitem>
					<clipitem id="clipitem-349">
						<masterclipid>masterclip-216</masterclipid>
						<name>AA018301.MXF</name>
						<enabled>TRUE</enabled>
						<duration>3456</duration>
						<rate>
							<timebase>25</timebase>
							<ntsc>FALSE</ntsc>
						</rate>
						<start>42434</start>
						<end>42520</end>
						<in>1244</in>
						<out>1330</out>
						<pproTicksIn>12639836160000</pproTicksIn>
						<pproTicksOut>13513651200000</pproTicksOut>
						<alphatype>none</alphatype>
						<file id="file-216"/>
						<logginginfo>
							<description></description>
							<scene></scene>
							<shottake></shottake>
							<lognote></lognote>
						</logginginfo>
						<labels>
							<label2>Iris</label2>
						</labels>
					</clipitem>
					<clipitem id="clipitem-350">
						<masterclipid>masterclip-216</masterclipid>
						<name>AA018301.MXF</name>
						<enabled>TRUE</enabled>
						<duration>3456</duration>
						<rate>
							<timebase>25</timebase>
							<ntsc>FALSE</ntsc>
						</rate>
						<start>42520</start>
						<end>42580</end>
						<in>1871</in>
						<out>1931</out>
						<pproTicksIn>19010557440000</pproTicksIn>
						<pproTicksOut>19620195840000</pproTicksOut>
						<alphatype>none</alphatype>
						<file id="file-216"/>
						<link>
							<linkclipref>clipitem-350</linkclipref>
							<mediatype>video</mediatype>
							<trackindex>2</trackindex>
							<clipindex>94</clipindex>
						</link>
						<link>
							<linkclipref>clipitem-974</linkclipref>
							<mediatype>audio</mediatype>
							<trackindex>10</trackindex>
							<clipindex>76</clipindex>
							<groupindex>1</groupindex>
						</link>
						<link>
							<linkclipref>clipitem-1114</linkclipref>
							<mediatype>audio</mediatype>
							<trackindex>11</trackindex>
							<clipindex>76</clipindex>
							<groupindex>1</groupindex>
						</link>
						<logginginfo>
							<description></description>
							<scene></scene>
							<shottake></shottake>
							<lognote></lognote>
						</logginginfo>
						<labels>
							<label2>Iris</label2>
						</labels>
					</clipitem>
					<clipitem id="clipitem-351">
						<masterclipid>masterclip-216</masterclipid>
						<name>AA018301.MXF</name>
						<enabled>TRUE</enabled>
						<duration>3456</duration>
						<rate>
							<timebase>25</timebase>
							<ntsc>FALSE</ntsc>
						</rate>
						<start>42580</start>
						<end>42690</end>
						<in>2008</in>
						<out>2118</out>
						<pproTicksIn>20402565120000</pproTicksIn>
						<pproTicksOut>21520235520000</pproTicksOut>
						<alphatype>none</alphatype>
						<file id="file-216"/>
						<link>
							<linkclipref>clipitem-351</linkclipref>
							<mediatype>video</mediatype>
							<trackindex>2</trackindex>
							<clipindex>95</clipindex>
						</link>
						<link>
							<linkclipref>clipitem-975</linkclipref>
							<mediatype>audio</mediatype>
							<trackindex>10</trackindex>
							<clipindex>78</clipindex>
							<groupindex>1</groupindex>
						</link>
						<link>
							<linkclipref>clipitem-1115</linkclipref>
							<mediatype>audio</mediatype>
							<trackindex>11</trackindex>
							<clipindex>78</clipindex>
							<groupindex>1</groupindex>
						</link>
						<logginginfo>
							<description></description>
							<scene></scene>
							<shottake></shottake>
							<lognote></lognote>
						</logginginfo>
						<labels>
							<label2>Iris</label2>
						</labels>
					</clipitem>
					<clipitem id="clipitem-352">
						<masterclipid>masterclip-217</masterclipid>
						<name>00001.mxf</name>
						<enabled>TRUE</enabled>
						<duration>456</duration>
						<rate>
							<timebase>25</timebase>
							<ntsc>FALSE</ntsc>
						</rate>
						<start>42690</start>
						<end>42786</end>
						<in>45</in>
						<out>141</out>
						<pproTicksIn>457228800000</pproTicksIn>
						<pproTicksOut>1432650240000</pproTicksOut>
						<alphatype>none</alphatype>
						<pixelaspectratio>square</pixelaspectratio>
						<anamorphic>FALSE</anamorphic>
						<file id="file-217">
							<name>00001.mxf</name>
							<pathurl>file://localhost/Volumes/Vaagen/Prosjekter/DVNA210116_Horn%c3%b8ya_Nordvisjonen_010317_TGP/Bakomfilm/Rigging%20oktober%2015/BDMV/STREAM/00001.mxf</pathurl>
							<rate>
								<timebase>25</timebase>
								<ntsc>FALSE</ntsc>
							</rate>
							<duration>456</duration>
							<timecode>
								<rate>
									<timebase>25</timebase>
									<ntsc>FALSE</ntsc>
								</rate>
								<string>18:59:44:08</string>
								<frame>1709608</frame>
								<displayformat>NDF</displayformat>
								<reel>
									<name></name>
								</reel>
							</timecode>
							<media>
								<video>
									<samplecharacteristics>
										<rate>
											<timebase>25</timebase>
											<ntsc>FALSE</ntsc>
										</rate>
										<width>1920</width>
										<height>1080</height>
										<anamorphic>FALSE</anamorphic>
										<pixelaspectratio>square</pixelaspectratio>
										<fielddominance>upper</fielddominance>
									</samplecharacteristics>
								</video>
								<audio>
									<samplecharacteristics>
										<depth>16</depth>
										<samplerate>48000</samplerate>
									</samplecharacteristics>
									<channelcount>2</channelcount>
								</audio>
							</media>
						</file>
						<link>
							<linkclipref>clipitem-352</linkclipref>
							<mediatype>video</mediatype>
							<trackindex>2</trackindex>
							<clipindex>96</clipindex>
						</link>
						<link>
							<linkclipref>clipitem-976</linkclipref>
							<mediatype>audio</mediatype>
							<trackindex>10</trackindex>
							<clipindex>79</clipindex>
							<groupindex>1</groupindex>
						</link>
						<link>
							<linkclipref>clipitem-1116</linkclipref>
							<mediatype>audio</mediatype>
							<trackindex>11</trackindex>
							<clipindex>79</clipindex>
							<groupindex>1</groupindex>
						</link>
						<logginginfo>
							<description></description>
							<scene></scene>
							<shottake></shottake>
							<lognote></lognote>
						</logginginfo>
						<labels>
							<label2>Iris</label2>
						</labels>
					</clipitem>
					<clipitem id="clipitem-353">
						<masterclipid>masterclip-218</masterclipid>
						<name>00002.mxf</name>
						<enabled>TRUE</enabled>
						<duration>432</duration>
						<rate>
							<timebase>25</timebase>
							<ntsc>FALSE</ntsc>
						</rate>
						<start>42786</start>
						<end>42882</end>
						<in>48</in>
						<out>144</out>
						<pproTicksIn>487710720000</pproTicksIn>
						<pproTicksOut>1463132160000</pproTicksOut>
						<alphatype>none</alphatype>
						<pixelaspectratio>square</pixelaspectratio>
						<anamorphic>FALSE</anamorphic>
						<file id="file-218">
							<name>00002.mxf</name>
							<pathurl>file://localhost/Volumes/Vaagen/Prosjekter/DVNA210116_Horn%c3%b8ya_Nordvisjonen_010317_TGP/Bakomfilm/Rigging%20oktober%2015/BDMV/STREAM/00002.mxf</pathurl>
							<rate>
								<timebase>25</timebase>
								<ntsc>FALSE</ntsc>
							</rate>
							<duration>432</duration>
							<timecode>
								<rate>
									<timebase>25</timebase>
									<ntsc>FALSE</ntsc>
								</rate>
								<string>19:00:02:14</string>
								<frame>1710064</frame>
								<displayformat>NDF</displayformat>
								<reel>
									<name></name>
								</reel>
							</timecode>
							<media>
								<video>
									<samplecharacteristics>
										<rate>
											<timebase>25</timebase>
											<ntsc>FALSE</ntsc>
										</rate>
										<width>1920</width>
										<height>1080</height>
										<anamorphic>FALSE</anamorphic>
										<pixelaspectratio>square</pixelaspectratio>
										<fielddominance>upper</fielddominance>
									</samplecharacteristics>
								</video>
								<audio>
									<samplecharacteristics>
										<depth>16</depth>
										<samplerate>48000</samplerate>
									</samplecharacteristics>
									<channelcount>2</channelcount>
								</audio>
							</media>
						</file>
						<link>
							<linkclipref>clipitem-353</linkclipref>
							<mediatype>video</mediatype>
							<trackindex>2</trackindex>
							<clipindex>97</clipindex>
						</link>
						<link>
							<linkclipref>clipitem-977</linkclipref>
							<mediatype>audio</mediatype>
							<trackindex>10</trackindex>
							<clipindex>80</clipindex>
							<groupindex>1</groupindex>
						</link>
						<link>
							<linkclipref>clipitem-1117</linkclipref>
							<mediatype>audio</mediatype>
							<trackindex>11</trackindex>
							<clipindex>80</clipindex>
							<groupindex>1</groupindex>
						</link>
						<logginginfo>
							<description></description>
							<scene></scene>
							<shottake></shottake>
							<lognote></lognote>
						</logginginfo>
						<labels>
							<label2>Iris</label2>
						</labels>
					</clipitem>
					<clipitem id="clipitem-354">
						<masterclipid>masterclip-219</masterclipid>
						<name>620_0752.MXF</name>
						<enabled>TRUE</enabled>
						<duration>2631</duration>
						<rate>
							<timebase>25</timebase>
							<ntsc>FALSE</ntsc>
						</rate>
						<start>43157</start>
						<end>43345</end>
						<in>428</in>
						<out>616</out>
						<pproTicksIn>4348753920000</pproTicksIn>
						<pproTicksOut>6258954240000</pproTicksOut>
						<alphatype>none</alphatype>
						<pixelaspectratio>square</pixelaspectratio>
						<anamorphic>FALSE</anamorphic>
						<file id="file-219">
							<name>620_0752.MXF</name>
							<pathurl>file://localhost/Volumes/Vaagen/Prosjekter/DVNA210116_Horn%c3%b8ya_Nordvisjonen_010317_TGP/Bakomfilm/Intervju%20Nils%20Arne/620_0752.MXF</pathurl>
							<rate>
								<timebase>50</timebase>
								<ntsc>FALSE</ntsc>
							</rate>
							<duration>5262</duration>
							<timecode>
								<rate>
									<timebase>50</timebase>
									<ntsc>FALSE</ntsc>
								</rate>
								<string>16:36:13:08</string>
								<frame>2988658</frame>
								<displayformat>NDF</displayformat>
								<reel>
									<name></name>
								</reel>
							</timecode>
							<media>
								<video>
									<samplecharacteristics>
										<rate>
											<timebase>50</timebase>
											<ntsc>FALSE</ntsc>
										</rate>
										<width>1920</width>
										<height>1080</height>
										<anamorphic>FALSE</anamorphic>
										<pixelaspectratio>square</pixelaspectratio>
										<fielddominance>none</fielddominance>
									</samplecharacteristics>
								</video>
								<audio>
									<samplecharacteristics>
										<depth>16</depth>
										<samplerate>48000</samplerate>
									</samplecharacteristics>
									<channelcount>8</channelcount>
								</audio>
							</media>
						</file>
						<logginginfo>
							<description></description>
							<scene></scene>
							<shottake></shottake>
							<lognote></lognote>
						</logginginfo>
						<labels>
							<label2>Iris</label2>
						</labels>
					</clipitem>
					<clipitem id="clipitem-355">
						<masterclipid>masterclip-220</masterclipid>
						<name>00060.MTS</name>
						<enabled>TRUE</enabled>
						<duration>1274</duration>
						<rate>
							<timebase>25</timebase>
							<ntsc>FALSE</ntsc>
						</rate>
						<start>43473</start>
						<end>43926</end>
						<in>415</in>
						<out>868</out>
						<pproTicksIn>4216665600000</pproTicksIn>
						<pproTicksOut>8819435520000</pproTicksOut>
						<alphatype>black</alphatype>
						<pixelaspectratio>square</pixelaspectratio>
						<anamorphic>FALSE</anamorphic>
						<file id="file-220">
							<name>00060.MTS</name>
							<pathurl>file://localhost/Volumes/Vaagen/Prosjekter/DVNA210116_Horn%c3%b8ya_Nordvisjonen_010317_TGP/Bakomfilm/Horn%c3%b8ya%20rigging%201/00060.MTS</pathurl>
							<rate>
								<timebase>25</timebase>
								<ntsc>FALSE</ntsc>
							</rate>
							<duration>1274</duration>
							<timecode>
								<rate>
									<timebase>25</timebase>
									<ntsc>FALSE</ntsc>
								</rate>
								<string>00:00:00:00</string>
								<frame>0</frame>
								<displayformat>NDF</displayformat>
								<reel>
									<name></name>
								</reel>
							</timecode>
							<media>
								<video>
									<samplecharacteristics>
										<rate>
											<timebase>25</timebase>
											<ntsc>FALSE</ntsc>
										</rate>
										<width>1920</width>
										<height>1080</height>
										<anamorphic>FALSE</anamorphic>
										<pixelaspectratio>square</pixelaspectratio>
										<fielddominance>upper</fielddominance>
									</samplecharacteristics>
								</video>
								<audio>
									<samplecharacteristics>
										<depth>16</depth>
										<samplerate>48000</samplerate>
									</samplecharacteristics>
									<channelcount>2</channelcount>
								</audio>
							</media>
						</file>
						<link>
							<linkclipref>clipitem-355</linkclipref>
							<mediatype>video</mediatype>
							<trackindex>2</trackindex>
							<clipindex>99</clipindex>
						</link>
						<link>
							<linkclipref>clipitem-978</linkclipref>
							<mediatype>audio</mediatype>
							<trackindex>10</trackindex>
							<clipindex>81</clipindex>
							<groupindex>1</groupindex>
						</link>
						<link>
							<linkclipref>clipitem-1118</linkclipref>
							<mediatype>audio</mediatype>
							<trackindex>11</trackindex>
							<clipindex>81</clipindex>
							<groupindex>1</groupindex>
						</link>
						<logginginfo>
							<description></description>
							<scene></scene>
							<shottake></shottake>
							<lognote></lognote>
						</logginginfo>
						<labels>
							<label2>Iris</label2>
						</labels>
					</clipitem>
					<clipitem id="clipitem-356">
						<masterclipid>masterclip-221</masterclipid>
						<name>00040.mxf</name>
						<enabled>TRUE</enabled>
						<duration>1812</duration>
						<rate>
							<timebase>25</timebase>
							<ntsc>FALSE</ntsc>
						</rate>
						<start>43984</start>
						<end>44367</end>
						<in>282</in>
						<out>665</out>
						<pproTicksIn>2865300480000</pproTicksIn>
						<pproTicksOut>6756825600000</pproTicksOut>
						<alphatype>none</alphatype>
						<pixelaspectratio>square</pixelaspectratio>
						<anamorphic>FALSE</anamorphic>
						<file id="file-221">
							<name>00040.mxf</name>
							<pathurl>file://localhost/Volumes/Vaagen/Prosjekter/DVNA210116_Horn%c3%b8ya_Nordvisjonen_010317_TGP/Bakomfilm/Rigging%20oktober%2015/BDMV/STREAM/00040.mxf</pathurl>
							<rate>
								<timebase>25</timebase>
								<ntsc>FALSE</ntsc>
							</rate>
							<duration>1812</duration>
							<timecode>
								<rate>
									<timebase>25</timebase>
									<ntsc>FALSE</ntsc>
								</rate>
								<string>19:12:25:15</string>
								<frame>1728640</frame>
								<displayformat>NDF</displayformat>
								<reel>
									<name></name>
								</reel>
							</timecode>
							<media>
								<video>
									<samplecharacteristics>
										<rate>
											<timebase>25</timebase>
											<ntsc>FALSE</ntsc>
										</rate>
										<width>1920</width>
										<height>1080</height>
										<anamorphic>FALSE</anamorphic>
										<pixelaspectratio>square</pixelaspectratio>
										<fielddominance>upper</fielddominance>
									</samplecharacteristics>
								</video>
								<audio>
									<samplecharacteristics>
										<depth>16</depth>
										<samplerate>48000</samplerate>
									</samplecharacteristics>
									<channelcount>2</channelcount>
								</audio>
							</media>
						</file>
						<logginginfo>
							<description></description>
							<scene></scene>
							<shottake></shottake>
							<lognote></lognote>
						</logginginfo>
						<labels>
							<label2>Iris</label2>
						</labels>
					</clipitem>
					<clipitem id="clipitem-357">
						<masterclipid>masterclip-222</masterclipid>
						<name>00064.mxf</name>
						<enabled>TRUE</enabled>
						<duration>1032</duration>
						<rate>
							<timebase>25</timebase>
							<ntsc>FALSE</ntsc>
						</rate>
						<start>44367</start>
						<end>44473</end>
						<in>596</in>
						<out>702</out>
						<pproTicksIn>6055741440000</pproTicksIn>
						<pproTicksOut>7132769280000</pproTicksOut>
						<alphatype>none</alphatype>
						<pixelaspectratio>square</pixelaspectratio>
						<anamorphic>FALSE</anamorphic>
						<file id="file-222">
							<name>00064.mxf</name>
							<pathurl>file://localhost/Volumes/Vaagen/Prosjekter/DVNA210116_Horn%c3%b8ya_Nordvisjonen_010317_TGP/Bakomfilm/Rigging%20oktober%2015/BDMV/STREAM/00064.mxf</pathurl>
							<rate>
								<timebase>25</timebase>
								<ntsc>FALSE</ntsc>
							</rate>
							<duration>1032</duration>
							<timecode>
								<rate>
									<timebase>25</timebase>
									<ntsc>FALSE</ntsc>
								</rate>
								<string>19:25:14:14</string>
								<frame>1747864</frame>
								<displayformat>NDF</displayformat>
								<reel>
									<name></name>
								</reel>
							</timecode>
							<media>
								<video>
									<samplecharacteristics>
										<rate>
											<timebase>25</timebase>
											<ntsc>FALSE</ntsc>
										</rate>
										<width>1920</width>
										<height>1080</height>
										<anamorphic>FALSE</anamorphic>
										<pixelaspectratio>square</pixelaspectratio>
										<fielddominance>upper</fielddominance>
									</samplecharacteristics>
								</video>
								<audio>
									<samplecharacteristics>
										<depth>16</depth>
										<samplerate>48000</samplerate>
									</samplecharacteristics>
									<channelcount>2</channelcount>
								</audio>
							</media>
						</file>
						<link>
							<linkclipref>clipitem-357</linkclipref>
							<mediatype>video</mediatype>
							<trackindex>2</trackindex>
							<clipindex>101</clipindex>
						</link>
						<link>
							<linkclipref>clipitem-979</linkclipref>
							<mediatype>audio</mediatype>
							<trackindex>10</trackindex>
							<clipindex>82</clipindex>
							<groupindex>1</groupindex>
						</link>
						<link>
							<linkclipref>clipitem-1119</linkclipref>
							<mediatype>audio</mediatype>
							<trackindex>11</trackindex>
							<clipindex>82</clipindex>
							<groupindex>1</groupindex>
						</link>
						<logginginfo>
							<description></description>
							<scene></scene>
							<shottake></shottake>
							<lognote></lognote>
						</logginginfo>
						<labels>
							<label2>Iris</label2>
						</labels>
					</clipitem>
					<clipitem id="clipitem-358">
						<masterclipid>masterclip-223</masterclipid>
						<name>00070.MTS</name>
						<enabled>TRUE</enabled>
						<duration>403</duration>
						<rate>
							<timebase>25</timebase>
							<ntsc>FALSE</ntsc>
						</rate>
						<start>44473</start>
						<end>44650</end>
						<in>112</in>
						<out>288</out>
						<pproTicksIn>1137991680000</pproTicksIn>
						<pproTicksOut>2926264320000</pproTicksOut>
						<alphatype>black</alphatype>
						<pixelaspectratio>square</pixelaspectratio>
						<anamorphic>FALSE</anamorphic>
						<file id="file-223">
							<name>00070.MTS</name>
							<pathurl>file://localhost/Volumes/Vaagen/Prosjekter/DVNA210116_Horn%c3%b8ya_Nordvisjonen_010317_TGP/Bakomfilm/Horn%c3%b8ya%20rigging%201/00070.MTS</pathurl>
							<rate>
								<timebase>25</timebase>
								<ntsc>FALSE</ntsc>
							</rate>
							<duration>403</duration>
							<timecode>
								<rate>
									<timebase>25</timebase>
									<ntsc>FALSE</ntsc>
								</rate>
								<string>00:00:00:00</string>
								<frame>0</frame>
								<displayformat>NDF</displayformat>
								<reel>
									<name></name>
								</reel>
							</timecode>
							<media>
								<video>
									<samplecharacteristics>
										<rate>
											<timebase>25</timebase>
											<ntsc>FALSE</ntsc>
										</rate>
										<width>1920</width>
										<height>1080</height>
										<anamorphic>FALSE</anamorphic>
										<pixelaspectratio>square</pixelaspectratio>
										<fielddominance>upper</fielddominance>
									</samplecharacteristics>
								</video>
								<audio>
									<samplecharacteristics>
										<depth>16</depth>
										<samplerate>48000</samplerate>
									</samplecharacteristics>
									<channelcount>2</channelcount>
								</audio>
							</media>
						</file>
						<link>
							<linkclipref>clipitem-358</linkclipref>
							<mediatype>video</mediatype>
							<trackindex>2</trackindex>
							<clipindex>102</clipindex>
						</link>
						<link>
							<linkclipref>clipitem-788</linkclipref>
							<mediatype>audio</mediatype>
							<trackindex>8</trackindex>
							<clipindex>84</clipindex>
							<groupindex>1</groupindex>
						</link>
						<link>
							<linkclipref>clipitem-882</linkclipref>
							<mediatype>audio</mediatype>
							<trackindex>9</trackindex>
							<clipindex>82</clipindex>
							<groupindex>1</groupindex>
						</link>
						<logginginfo>
							<description>KOMM Rune sier at nå har de bilde på det første kamera</description>
							<scene></scene>
							<shottake></shottake>
							<lognote></lognote>
						</logginginfo>
						<labels>
							<label2>Iris</label2>
						</labels>
					</clipitem>
					<clipitem id="clipitem-359">
						<masterclipid>masterclip-224</masterclipid>
						<name>IMG_1256.MOV</name>
						<enabled>TRUE</enabled>
						<duration>346</duration>
						<rate>
							<timebase>25</timebase>
							<ntsc>FALSE</ntsc>
						</rate>
						<start>44650</start>
						<end>44694</end>
						<in>114</in>
						<out>158</out>
						<pproTicksIn>1158312960000</pproTicksIn>
						<pproTicksOut>1605381120000</pproTicksOut>
						<alphatype>black</alphatype>
						<pixelaspectratio>square</pixelaspectratio>
						<anamorphic>FALSE</anamorphic>
						<file id="file-224">
							<name>IMG_1256.MOV</name>
							<pathurl>file://localhost/Volumes/Vaagen/Prosjekter/DVNA210116_Horn%c3%b8ya_Nordvisjonen_010317_TGP/Bakomfilm/Bakom%20fra%20iphone/IMG_1256.MOV</pathurl>
							<rate>
								<timebase>30</timebase>
								<ntsc>FALSE</ntsc>
							</rate>
							<duration>416</duration>
							<timecode>
								<rate>
									<timebase>30</timebase>
									<ntsc>FALSE</ntsc>
								</rate>
								<string>00:00:00:00</string>
								<frame>0</frame>
								<displayformat>NDF</displayformat>
								<reel>
									<name></name>
								</reel>
							</timecode>
							<media>
								<video>
									<samplecharacteristics>
										<rate>
											<timebase>30</timebase>
											<ntsc>FALSE</ntsc>
										</rate>
										<width>1920</width>
										<height>1080</height>
										<anamorphic>FALSE</anamorphic>
										<pixelaspectratio>square</pixelaspectratio>
										<fielddominance>none</fielddominance>
									</samplecharacteristics>
								</video>
								<audio>
									<samplecharacteristics>
										<depth>16</depth>
										<samplerate>44100</samplerate>
									</samplecharacteristics>
									<channelcount>1</channelcount>
									<audiochannel>
										<sourcechannel>1</sourcechannel>
									</audiochannel>
								</audio>
							</media>
						</file>
						<link>
							<linkclipref>clipitem-359</linkclipref>
							<mediatype>video</mediatype>
							<trackindex>2</trackindex>
							<clipindex>103</clipindex>
						</link>
						<link>
							<linkclipref>clipitem-981</linkclipref>
							<mediatype>audio</mediatype>
							<trackindex>10</trackindex>
							<clipindex>85</clipindex>
							<groupindex>1</groupindex>
						</link>
						<logginginfo>
							<description>Kamera og måker</description>
							<scene></scene>
							<shottake></shottake>
							<lognote></lognote>
						</logginginfo>
						<labels>
							<label2>Iris</label2>
						</labels>
					</clipitem>
					<clipitem id="clipitem-360">
						<masterclipid>masterclip-205</masterclipid>
						<name>NRK1-210616.mxf</name>
						<enabled>TRUE</enabled>
						<duration>81914</duration>
						<rate>
							<timebase>25</timebase>
							<ntsc>FALSE</ntsc>
						</rate>
						<start>44694</start>
						<end>44736</end>
						<in>16022</in>
						<out>16064</out>
						<pproTicksIn>162793774080000</pproTicksIn>
						<pproTicksOut>163220520960000</pproTicksOut>
						<alphatype>none</alphatype>
						<file id="file-205"/>
						<logginginfo>
							<description>DVNA20000616</description>
							<scene></scene>
							<shottake></shottake>
							<lognote></lognote>
						</logginginfo>
						<labels>
							<label2>Iris</label2>
						</labels>
					</clipitem>
					<clipitem id="clipitem-361">
						<masterclipid>masterclip-225</masterclipid>
						<name>IMG_1324.MOV</name>
						<enabled>TRUE</enabled>
						<duration>564</duration>
						<rate>
							<timebase>25</timebase>
							<ntsc>FALSE</ntsc>
						</rate>
						<start>44736</start>
						<end>44779</end>
						<in>129</in>
						<out>173</out>
						<pproTicksIn>1310722560000</pproTicksIn>
						<pproTicksOut>1757790720000</pproTicksOut>
						<alphatype>black</alphatype>
						<pixelaspectratio>square</pixelaspectratio>
						<anamorphic>FALSE</anamorphic>
						<file id="file-225">
							<name>IMG_1324.MOV</name>
							<pathurl>file://localhost/Volumes/Vaagen/Prosjekter/DVNA210116_Horn%c3%b8ya_Nordvisjonen_010317_TGP/Bakomfilm/Bakom%20fra%20iphone/IMG_1324.MOV</pathurl>
							<rate>
								<timebase>30</timebase>
								<ntsc>FALSE</ntsc>
							</rate>
							<duration>677</duration>
							<timecode>
								<rate>
									<timebase>30</timebase>
									<ntsc>FALSE</ntsc>
								</rate>
								<string>00:00:00:00</string>
								<frame>0</frame>
								<displayformat>NDF</displayformat>
								<reel>
									<name></name>
								</reel>
							</timecode>
							<media>
								<video>
									<samplecharacteristics>
										<rate>
											<timebase>30</timebase>
											<ntsc>FALSE</ntsc>
										</rate>
										<width>1920</width>
										<height>1080</height>
										<anamorphic>FALSE</anamorphic>
										<pixelaspectratio>square</pixelaspectratio>
										<fielddominance>none</fielddominance>
									</samplecharacteristics>
								</video>
								<audio>
									<samplecharacteristics>
										<depth>16</depth>
										<samplerate>44100</samplerate>
									</samplecharacteristics>
									<channelcount>1</channelcount>
									<audiochannel>
										<sourcechannel>1</sourcechannel>
									</audiochannel>
								</audio>
							</media>
						</file>
						<logginginfo>
							<description>Kamera, mikrofon og fugler</description>
							<scene></scene>
							<shottake></shottake>
							<lognote></lognote>
						</logginginfo>
						<labels>
							<label2>Iris</label2>
						</labels>
					</clipitem>
					<clipitem id="clipitem-362">
						<masterclipid>masterclip-102</masterclipid>
						<name>NRK2-180616.mxf</name>
						<enabled>TRUE</enabled>
						<duration>183000</duration>
						<rate>
							<timebase>25</timebase>
							<ntsc>FALSE</ntsc>
						</rate>
						<start>44779</start>
						<end>44837</end>
						<in>24188</in>
						<out>24246</out>
						<pproTicksIn>245765560320000</pproTicksIn>
						<pproTicksOut>246354877440000</pproTicksOut>
						<alphatype>none</alphatype>
						<file id="file-102"/>
						<link>
							<linkclipref>clipitem-362</linkclipref>
							<mediatype>video</mediatype>
							<trackindex>2</trackindex>
							<clipindex>106</clipindex>
						</link>
						<link>
							<linkclipref>clipitem-982</linkclipref>
							<mediatype>audio</mediatype>
							<trackindex>10</trackindex>
							<clipindex>86</clipindex>
							<groupindex>1</groupindex>
						</link>
						<link>
							<linkclipref>clipitem-1121</linkclipref>
							<mediatype>audio</mediatype>
							<trackindex>11</trackindex>
							<clipindex>85</clipindex>
							<groupindex>1</groupindex>
						</link>
						<logginginfo>
							<description>Program 5</description>
							<scene></scene>
							<shottake></shottake>
							<lognote></lognote>
						</logginginfo>
						<labels>
							<label2>Iris</label2>
						</labels>
					</clipitem>
					<clipitem id="clipitem-363">
						<masterclipid>masterclip-226</masterclipid>
						<name>Video 03.05.2016, 12.02.20.mov</name>
						<enabled>TRUE</enabled>
						<duration>482</duration>
						<rate>
							<timebase>25</timebase>
							<ntsc>FALSE</ntsc>
						</rate>
						<start>44837</start>
						<end>44960</end>
						<in>41</in>
						<out>164</out>
						<pproTicksIn>416586240000</pproTicksIn>
						<pproTicksOut>1666344960000</pproTicksOut>
						<alphatype>black</alphatype>
						<pixelaspectratio>square</pixelaspectratio>
						<anamorphic>FALSE</anamorphic>
						<file id="file-226">
							<name>Video 03.05.2016, 12.02.20.mov</name>
							<pathurl>file://localhost/Volumes/Vaagen/Prosjekter/DVNA210116_Horn%c3%b8ya_Nordvisjonen_010317_TGP/Bakomfilm/Bilder%20fra%20Sindre%20Skrede/Video%205D%20mark%20III%20og%20iPhone/Video%2003.05.2016,%2012.02.20.mov</pathurl>
							<rate>
								<timebase>30</timebase>
								<ntsc>FALSE</ntsc>
							</rate>
							<duration>579</duration>
							<timecode>
								<rate>
									<timebase>30</timebase>
									<ntsc>FALSE</ntsc>
								</rate>
								<string>00:00:00:00</string>
								<frame>0</frame>
								<displayformat>NDF</displayformat>
								<reel>
									<name></name>
								</reel>
							</timecode>
							<media>
								<video>
									<samplecharacteristics>
										<rate>
											<timebase>30</timebase>
											<ntsc>FALSE</ntsc>
										</rate>
										<width>1920</width>
										<height>1080</height>
										<anamorphic>FALSE</anamorphic>
										<pixelaspectratio>square</pixelaspectratio>
										<fielddominance>none</fielddominance>
									</samplecharacteristics>
								</video>
								<audio>
									<samplecharacteristics>
										<depth>16</depth>
										<samplerate>44100</samplerate>
									</samplecharacteristics>
									<channelcount>1</channelcount>
									<audiochannel>
										<sourcechannel>1</sourcechannel>
									</audiochannel>
								</audio>
							</media>
						</file>
						<logginginfo>
							<description>Nils Arne monterer kamera</description>
							<scene></scene>
							<shottake></shottake>
							<lognote></lognote>
						</logginginfo>
						<labels>
							<label2>Iris</label2>
						</labels>
					</clipitem>
					<clipitem id="clipitem-364">
						<masterclipid>masterclip-227</masterclipid>
						<name>K10-LOMVI-lomvi skiter på lomvi-rister seg.mxf</name>
						<enabled>TRUE</enabled>
						<duration>2279</duration>
						<rate>
							<timebase>25</timebase>
							<ntsc>FALSE</ntsc>
						</rate>
						<start>44960</start>
						<end>45024</end>
						<in>505</in>
						<out>570</out>
						<pproTicksIn>5131123200000</pproTicksIn>
						<pproTicksOut>5791564800000</pproTicksOut>
						<alphatype>none</alphatype>
						<pixelaspectratio>square</pixelaspectratio>
						<anamorphic>FALSE</anamorphic>
						<file id="file-227">
							<name>K10-LOMVI-lomvi skiter på lomvi-rister seg.mxf</name>
							<pathurl>file://localhost/Volumes/Vaagen/Prosjekter/DVNA210116_Horn%c3%b8ya_Nordvisjonen_010317_TGP/Opptak_reir/K10-LOMVI-lomvi%20skiter%20pa%cc%8a%20lomvi-rister%20seg.mxf</pathurl>
							<rate>
								<timebase>25</timebase>
								<ntsc>FALSE</ntsc>
							</rate>
							<duration>2279</duration>
							<timecode>
								<rate>
									<timebase>25</timebase>
									<ntsc>FALSE</ntsc>
								</rate>
								<string>00:00:00:00</string>
								<frame>0</frame>
								<displayformat>NDF</displayformat>
								<reel>
									<name></name>
								</reel>
							</timecode>
							<media>
								<video>
									<samplecharacteristics>
										<rate>
											<timebase>25</timebase>
											<ntsc>FALSE</ntsc>
										</rate>
										<width>1920</width>
										<height>1080</height>
										<anamorphic>FALSE</anamorphic>
										<pixelaspectratio>square</pixelaspectratio>
										<fielddominance>upper</fielddominance>
									</samplecharacteristics>
								</video>
								<audio>
									<samplecharacteristics>
										<depth>16</depth>
										<samplerate>48000</samplerate>
									</samplecharacteristics>
									<channelcount>8</channelcount>
								</audio>
							</media>
						</file>
						<logginginfo>
							<description></description>
							<scene></scene>
							<shottake></shottake>
							<lognote></lognote>
						</logginginfo>
						<labels>
							<label2>Iris</label2>
						</labels>
					</clipitem>
					<clipitem id="clipitem-365">
						<masterclipid>masterclip-228</masterclipid>
						<name>Clip0015.MXF</name>
						<enabled>TRUE</enabled>
						<duration>432</duration>
						<rate>
							<timebase>25</timebase>
							<ntsc>FALSE</ntsc>
						</rate>
						<start>45024</start>
						<end>45058</end>
						<in>183</in>
						<out>216</out>
						<pproTicksIn>1859397120000</pproTicksIn>
						<pproTicksOut>2194698240000</pproTicksOut>
						<alphatype>none</alphatype>
						<pixelaspectratio>square</pixelaspectratio>
						<anamorphic>FALSE</anamorphic>
						<file id="file-228">
							<name>Clip0015.MXF</name>
							<pathurl>file://localhost/Volumes/Vaagen/Prosjekter/DVNA210116_Horn%c3%b8ya_Nordvisjonen_010317_TGP/Bakomfilm/bakomstoff%20juli16/XDROOT/Clip/Clip0015.MXF</pathurl>
							<rate>
								<timebase>50</timebase>
								<ntsc>FALSE</ntsc>
							</rate>
							<duration>864</duration>
							<timecode>
								<rate>
									<timebase>50</timebase>
									<ntsc>FALSE</ntsc>
								</rate>
								<string>14:50:18:12</string>
								<frame>2670912</frame>
								<displayformat>NDF</displayformat>
								<reel>
									<name></name>
								</reel>
							</timecode>
							<media>
								<video>
									<samplecharacteristics>
										<rate>
											<timebase>50</timebase>
											<ntsc>FALSE</ntsc>
										</rate>
										<width>1920</width>
										<height>1080</height>
										<anamorphic>FALSE</anamorphic>
										<pixelaspectratio>square</pixelaspectratio>
										<fielddominance>none</fielddominance>
									</samplecharacteristics>
								</video>
								<audio>
									<samplecharacteristics>
										<depth>16</depth>
										<samplerate>48000</samplerate>
									</samplecharacteristics>
									<channelcount>4</channelcount>
								</audio>
							</media>
						</file>
						<link>
							<linkclipref>clipitem-365</linkclipref>
							<mediatype>video</mediatype>
							<trackindex>2</trackindex>
							<clipindex>109</clipindex>
						</link>
						<link>
							<linkclipref>clipitem-984</linkclipref>
							<mediatype>audio</mediatype>
							<trackindex>10</trackindex>
							<clipindex>88</clipindex>
							<groupindex>1</groupindex>
						</link>
						<logginginfo>
							<description></description>
							<scene></scene>
							<shottake></shottake>
							<lognote></lognote>
						</logginginfo>
						<labels>
							<label2>Iris</label2>
						</labels>
					</clipitem>
					<clipitem id="clipitem-366">
						<masterclipid>masterclip-205</masterclipid>
						<name>NRK1-210616.mxf</name>
						<enabled>TRUE</enabled>
						<duration>81914</duration>
						<rate>
							<timebase>25</timebase>
							<ntsc>FALSE</ntsc>
						</rate>
						<start>45058</start>
						<end>45124</end>
						<in>8244</in>
						<out>8311</out>
						<pproTicksIn>83764316160000</pproTicksIn>
						<pproTicksOut>84445079040000</pproTicksOut>
						<alphatype>none</alphatype>
						<file id="file-205"/>
						<link>
							<linkclipref>clipitem-366</linkclipref>
							<mediatype>video</mediatype>
							<trackindex>2</trackindex>
							<clipindex>110</clipindex>
						</link>
						<link>
							<linkclipref>clipitem-985</linkclipref>
							<mediatype>audio</mediatype>
							<trackindex>10</trackindex>
							<clipindex>89</clipindex>
							<groupindex>1</groupindex>
						</link>
						<link>
							<linkclipref>clipitem-1123</linkclipref>
							<mediatype>audio</mediatype>
							<trackindex>11</trackindex>
							<clipindex>87</clipindex>
							<groupindex>1</groupindex>
						</link>
						<logginginfo>
							<description>DVNA20000616</description>
							<scene></scene>
							<shottake></shottake>
							<lognote></lognote>
						</logginginfo>
						<labels>
							<label2>Iris</label2>
						</labels>
					</clipitem>
					<clipitem id="clipitem-367">
						<masterclipid>masterclip-229</masterclipid>
						<name>Clip0010.MXF</name>
						<enabled>TRUE</enabled>
						<duration>540</duration>
						<rate>
							<timebase>25</timebase>
							<ntsc>FALSE</ntsc>
						</rate>
						<start>45124</start>
						<end>45165</end>
						<in>152</in>
						<out>193</out>
						<pproTicksIn>1544417280000</pproTicksIn>
						<pproTicksOut>1961003520000</pproTicksOut>
						<alphatype>none</alphatype>
						<pixelaspectratio>square</pixelaspectratio>
						<anamorphic>FALSE</anamorphic>
						<file id="file-229">
							<name>Clip0010.MXF</name>
							<pathurl>file://localhost/Volumes/Vaagen/Prosjekter/DVNA210116_Horn%c3%b8ya_Nordvisjonen_010317_TGP/Bakomfilm/bakomstoff%20juli16/XDROOT/Clip/Clip0010.MXF</pathurl>
							<rate>
								<timebase>50</timebase>
								<ntsc>FALSE</ntsc>
							</rate>
							<duration>1080</duration>
							<timecode>
								<rate>
									<timebase>50</timebase>
									<ntsc>FALSE</ntsc>
								</rate>
								<string>14:48:33:06</string>
								<frame>2665656</frame>
								<displayformat>NDF</displayformat>
								<reel>
									<name></name>
								</reel>
							</timecode>
							<media>
								<video>
									<samplecharacteristics>
										<rate>
											<timebase>50</timebase>
											<ntsc>FALSE</ntsc>
										</rate>
										<width>1920</width>
										<height>1080</height>
										<anamorphic>FALSE</anamorphic>
										<pixelaspectratio>square</pixelaspectratio>
										<fielddominance>none</fielddominance>
									</samplecharacteristics>
								</video>
								<audio>
									<samplecharacteristics>
										<depth>16</depth>
										<samplerate>48000</samplerate>
									</samplecharacteristics>
									<channelcount>4</channelcount>
								</audio>
							</media>
						</file>
						<link>
							<linkclipref>clipitem-367</linkclipref>
							<mediatype>video</mediatype>
							<trackindex>2</trackindex>
							<clipindex>111</clipindex>
						</link>
						<link>
							<linkclipref>clipitem-986</linkclipref>
							<mediatype>audio</mediatype>
							<trackindex>10</trackindex>
							<clipindex>90</clipindex>
							<groupindex>1</groupindex>
						</link>
						<logginginfo>
							<description>Lundefugl sitter på kamera</description>
							<scene></scene>
							<shottake></shottake>
							<lognote></lognote>
						</logginginfo>
						<labels>
							<label2>Iris</label2>
						</labels>
					</clipitem>
					<clipitem id="clipitem-368">
						<masterclipid>masterclip-116</masterclipid>
						<name>NRK2-010716.mxf</name>
						<enabled>TRUE</enabled>
						<duration>183000</duration>
						<rate>
							<timebase>25</timebase>
							<ntsc>FALSE</ntsc>
						</rate>
						<start>45165</start>
						<end>45283</end>
						<in>32037</in>
						<out>32156</out>
						<pproTicksIn>325516423680000</pproTicksIn>
						<pproTicksOut>326725539840000</pproTicksOut>
						<alphatype>none</alphatype>
						<file id="file-116"/>
						<logginginfo>
							<description>Program 14</description>
							<scene></scene>
							<shottake></shottake>
							<lognote></lognote>
						</logginginfo>
						<labels>
							<label2>Iris</label2>
						</labels>
					</clipitem>
					<clipitem id="clipitem-369">
						<masterclipid>masterclip-230</masterclipid>
						<name>DVNA25000216AU.mxf</name>
						<enabled>TRUE</enabled>
						<duration>184500</duration>
						<rate>
							<timebase>25</timebase>
							<ntsc>FALSE</ntsc>
						</rate>
						<start>45382</start>
						<end>45540</end>
						<in>54180</in>
						<out>54338</out>
						<pproTicksIn>550503475200000</pproTicksIn>
						<pproTicksOut>552108856320000</pproTicksOut>
						<alphatype>none</alphatype>
						<pixelaspectratio>square</pixelaspectratio>
						<anamorphic>FALSE</anamorphic>
						<file id="file-230">
							<name>DVNA25000216AU.mxf</name>
							<pathurl>file://localhost/Volumes/Vaagen/Prosjekter/DVNA210116_Horn%c3%b8ya_Nordvisjonen_010317_TGP/Horn%c3%b8ya%20Trond/NRK2sendinger/DVNA25000216AU.mxf</pathurl>
							<rate>
								<timebase>25</timebase>
								<ntsc>FALSE</ntsc>
							</rate>
							<duration>184500</duration>
							<timecode>
								<rate>
									<timebase>25</timebase>
									<ntsc>FALSE</ntsc>
								</rate>
								<string>21:58:00:00</string>
								<frame>1977000</frame>
								<displayformat>NDF</displayformat>
								<reel>
									<name></name>
								</reel>
							</timecode>
							<media>
								<video>
									<samplecharacteristics>
										<rate>
											<timebase>25</timebase>
											<ntsc>FALSE</ntsc>
										</rate>
										<width>1920</width>
										<height>1080</height>
										<anamorphic>FALSE</anamorphic>
										<pixelaspectratio>square</pixelaspectratio>
										<fielddominance>upper</fielddominance>
									</samplecharacteristics>
								</video>
								<audio>
									<samplecharacteristics>
										<depth>16</depth>
										<samplerate>48000</samplerate>
									</samplecharacteristics>
									<channelcount>2</channelcount>
								</audio>
								<audio>
									<samplecharacteristics>
										<depth>16</depth>
										<samplerate>48000</samplerate>
									</samplecharacteristics>
									<channelcount>2</channelcount>
								</audio>
								<audio>
									<samplecharacteristics>
										<depth>16</depth>
										<samplerate>48000</samplerate>
									</samplecharacteristics>
									<channelcount>2</channelcount>
								</audio>
							</media>
						</file>
						<link>
							<linkclipref>clipitem-369</linkclipref>
							<mediatype>video</mediatype>
							<trackindex>2</trackindex>
							<clipindex>113</clipindex>
						</link>
						<link>
							<linkclipref>clipitem-988</linkclipref>
							<mediatype>audio</mediatype>
							<trackindex>10</trackindex>
							<clipindex>92</clipindex>
							<groupindex>1</groupindex>
						</link>
						<link>
							<linkclipref>clipitem-1125</linkclipref>
							<mediatype>audio</mediatype>
							<trackindex>11</trackindex>
							<clipindex>89</clipindex>
							<groupindex>1</groupindex>
						</link>
						<logginginfo>
							<description>Program 2</description>
							<scene></scene>
							<shottake></shottake>
							<lognote></lognote>
						</logginginfo>
						<labels>
							<label2>Iris</label2>
						</labels>
					</clipitem>
					<clipitem id="clipitem-370">
						<masterclipid>masterclip-230</masterclipid>
						<name>DVNA25000216AU.mxf</name>
						<enabled>TRUE</enabled>
						<duration>184500</duration>
						<rate>
							<timebase>25</timebase>
							<ntsc>FALSE</ntsc>
						</rate>
						<start>45540</start>
						<end>45732</end>
						<in>56193</in>
						<out>56385</out>
						<pproTicksIn>570956843520000</pproTicksIn>
						<pproTicksOut>572907686400000</pproTicksOut>
						<alphatype>none</alphatype>
						<file id="file-230"/>
						<logginginfo>
							<description>Program 2</description>
							<scene></scene>
							<shottake></shottake>
							<lognote></lognote>
						</logginginfo>
						<labels>
							<label2>Iris</label2>
						</labels>
					</clipitem>
					<clipitem id="clipitem-371">
						<masterclipid>masterclip-230</masterclipid>
						<name>DVNA25000216AU.mxf</name>
						<enabled>TRUE</enabled>
						<duration>184500</duration>
						<rate>
							<timebase>25</timebase>
							<ntsc>FALSE</ntsc>
						</rate>
						<start>45732</start>
						<end>45844</end>
						<in>51484</in>
						<out>51596</out>
						<pproTicksIn>523110389760000</pproTicksIn>
						<pproTicksOut>524248381440000</pproTicksOut>
						<alphatype>none</alphatype>
						<file id="file-230"/>
						<logginginfo>
							<description>Program 2</description>
							<scene></scene>
							<shottake></shottake>
							<lognote></lognote>
						</logginginfo>
						<labels>
							<label2>Iris</label2>
						</labels>
					</clipitem>
					<clipitem id="clipitem-372">
						<masterclipid>masterclip-111</masterclipid>
						<name>NRK1-PGM-120716.mxf</name>
						<enabled>TRUE</enabled>
						<duration>81000</duration>
						<rate>
							<timebase>25</timebase>
							<ntsc>FALSE</ntsc>
						</rate>
						<start>46026</start>
						<end>46252</end>
						<in>29290</in>
						<out>29516</out>
						<pproTicksIn>297605145600000</pproTicksIn>
						<pproTicksOut>299901450240000</pproTicksOut>
						<alphatype>none</alphatype>
						<file id="file-111"/>
						<logginginfo>
							<description>DVNA20000916</description>
							<scene></scene>
							<shottake></shottake>
							<lognote></lognote>
						</logginginfo>
						<labels>
							<label2>Iris</label2>
						</labels>
					</clipitem>
					<clipitem id="clipitem-373">
						<masterclipid>masterclip-111</masterclipid>
						<name>NRK1-PGM-120716.mxf</name>
						<enabled>TRUE</enabled>
						<duration>81000</duration>
						<rate>
							<timebase>25</timebase>
							<ntsc>FALSE</ntsc>
						</rate>
						<start>46252</start>
						<end>46600</end>
						<in>30856</in>
						<out>31204</out>
						<pproTicksIn>313516707840000</pproTicksIn>
						<pproTicksOut>317052610560000</pproTicksOut>
						<alphatype>none</alphatype>
						<file id="file-111"/>
						<link>
							<linkclipref>clipitem-373</linkclipref>
							<mediatype>video</mediatype>
							<trackindex>2</trackindex>
							<clipindex>117</clipindex>
						</link>
						<link>
							<linkclipref>clipitem-1234</linkclipref>
							<mediatype>audio</mediatype>
							<trackindex>12</trackindex>
							<clipindex>68</clipindex>
							<groupindex>1</groupindex>
						</link>
						<link>
							<linkclipref>clipitem-1319</linkclipref>
							<mediatype>audio</mediatype>
							<trackindex>13</trackindex>
							<clipindex>68</clipindex>
							<groupindex>1</groupindex>
						</link>
						<logginginfo>
							<description>DVNA20000916</description>
							<scene></scene>
							<shottake></shottake>
							<lognote></lognote>
						</logginginfo>
						<labels>
							<label2>Iris</label2>
						</labels>
					</clipitem>
					<clipitem id="clipitem-374">
						<masterclipid>masterclip-231</masterclipid>
						<name>NRK1-CF-120716.mxf</name>
						<enabled>TRUE</enabled>
						<duration>81000</duration>
						<rate>
							<timebase>25</timebase>
							<ntsc>FALSE</ntsc>
						</rate>
						<start>46600</start>
						<end>46691</end>
						<in>31636</in>
						<out>31727</out>
						<pproTicksIn>321442007040000</pproTicksIn>
						<pproTicksOut>322366625280000</pproTicksOut>
						<alphatype>none</alphatype>
						<pixelaspectratio>square</pixelaspectratio>
						<anamorphic>FALSE</anamorphic>
						<file id="file-231">
							<name>DVNA20000916AU.mxf</name>
							<pathurl>file://localhost/Volumes/Vaagen/Prosjekter/DVNA210116_Horn%c3%b8ya_Nordvisjonen_010317_TGP/NRK1sendinger/DVNA20000916AU.mxf</pathurl>
							<rate>
								<timebase>25</timebase>
								<ntsc>FALSE</ntsc>
							</rate>
							<duration>81000</duration>
							<timecode>
								<rate>
									<timebase>25</timebase>
									<ntsc>FALSE</ntsc>
								</rate>
								<string>16:04:55:00</string>
								<frame>1447375</frame>
								<displayformat>NDF</displayformat>
								<reel>
									<name></name>
								</reel>
							</timecode>
							<media>
								<video>
									<samplecharacteristics>
										<rate>
											<timebase>25</timebase>
											<ntsc>FALSE</ntsc>
										</rate>
										<width>1920</width>
										<height>1080</height>
										<anamorphic>FALSE</anamorphic>
										<pixelaspectratio>square</pixelaspectratio>
										<fielddominance>upper</fielddominance>
									</samplecharacteristics>
								</video>
								<audio>
									<samplecharacteristics>
										<depth>16</depth>
										<samplerate>48000</samplerate>
									</samplecharacteristics>
									<channelcount>2</channelcount>
								</audio>
								<audio>
									<samplecharacteristics>
										<depth>16</depth>
										<samplerate>48000</samplerate>
									</samplecharacteristics>
									<channelcount>2</channelcount>
								</audio>
								<audio>
									<samplecharacteristics>
										<depth>16</depth>
										<samplerate>48000</samplerate>
									</samplecharacteristics>
									<channelcount>2</channelcount>
								</audio>
								<audio>
									<samplecharacteristics>
										<depth>16</depth>
										<samplerate>48000</samplerate>
									</samplecharacteristics>
									<channelcount>2</channelcount>
								</audio>
							</media>
						</file>
						<link>
							<linkclipref>clipitem-374</linkclipref>
							<mediatype>video</mediatype>
							<trackindex>2</trackindex>
							<clipindex>118</clipindex>
						</link>
						<link>
							<linkclipref>clipitem-991</linkclipref>
							<mediatype>audio</mediatype>
							<trackindex>10</trackindex>
							<clipindex>95</clipindex>
							<groupindex>1</groupindex>
						</link>
						<link>
							<linkclipref>clipitem-1128</linkclipref>
							<mediatype>audio</mediatype>
							<trackindex>11</trackindex>
							<clipindex>92</clipindex>
							<groupindex>1</groupindex>
						</link>
						<logginginfo>
							<description>DVNA20000916</description>
							<scene></scene>
							<shottake></shottake>
							<lognote></lognote>
						</logginginfo>
						<labels>
							<label2>Iris</label2>
						</labels>
					</clipitem>
					<clipitem id="clipitem-375">
						<masterclipid>masterclip-231</masterclipid>
						<name>NRK1-CF-120716.mxf</name>
						<enabled>TRUE</enabled>
						<duration>81000</duration>
						<rate>
							<timebase>25</timebase>
							<ntsc>FALSE</ntsc>
						</rate>
						<start>46691</start>
						<end>47085</end>
						<in>31964</in>
						<out>32359</out>
						<pproTicksIn>324774696960000</pproTicksIn>
						<pproTicksOut>328788149760000</pproTicksOut>
						<alphatype>none</alphatype>
						<file id="file-231"/>
						<link>
							<linkclipref>clipitem-375</linkclipref>
							<mediatype>video</mediatype>
							<trackindex>2</trackindex>
							<clipindex>119</clipindex>
						</link>
						<link>
							<linkclipref>clipitem-1235</linkclipref>
							<mediatype>audio</mediatype>
							<trackindex>12</trackindex>
							<clipindex>69</clipindex>
							<groupindex>1</groupindex>
						</link>
						<link>
							<linkclipref>clipitem-1320</linkclipref>
							<mediatype>audio</mediatype>
							<trackindex>13</trackindex>
							<clipindex>69</clipindex>
							<groupindex>1</groupindex>
						</link>
						<logginginfo>
							<description>DVNA20000916</description>
							<scene></scene>
							<shottake></shottake>
							<lognote></lognote>
						</logginginfo>
						<labels>
							<label2>Iris</label2>
						</labels>
					</clipitem>
					<clipitem id="clipitem-376">
						<masterclipid>masterclip-231</masterclipid>
						<name>NRK1-CF-120716.mxf</name>
						<enabled>TRUE</enabled>
						<duration>81000</duration>
						<rate>
							<timebase>25</timebase>
							<ntsc>FALSE</ntsc>
						</rate>
						<start>47085</start>
						<end>47157</end>
						<in>33165</in>
						<out>33236</out>
						<pproTicksIn>336977625600000</pproTicksIn>
						<pproTicksOut>337699031040000</pproTicksOut>
						<alphatype>none</alphatype>
						<file id="file-231"/>
						<logginginfo>
							<description>DVNA20000916</description>
							<scene></scene>
							<shottake></shottake>
							<lognote></lognote>
						</logginginfo>
						<labels>
							<label2>Iris</label2>
						</labels>
					</clipitem>
					<clipitem id="clipitem-377">
						<masterclipid>masterclip-231</masterclipid>
						<name>NRK1-CF-120716.mxf</name>
						<enabled>TRUE</enabled>
						<duration>81000</duration>
						<rate>
							<timebase>25</timebase>
							<ntsc>FALSE</ntsc>
						</rate>
						<start>47157</start>
						<end>47292</end>
						<in>33394</in>
						<out>33529</out>
						<pproTicksIn>339304412160000</pproTicksIn>
						<pproTicksOut>340676098560000</pproTicksOut>
						<alphatype>none</alphatype>
						<file id="file-231"/>
						<link>
							<linkclipref>clipitem-377</linkclipref>
							<mediatype>video</mediatype>
							<trackindex>2</trackindex>
							<clipindex>121</clipindex>
						</link>
						<link>
							<linkclipref>clipitem-992</linkclipref>
							<mediatype>audio</mediatype>
							<trackindex>10</trackindex>
							<clipindex>96</clipindex>
							<groupindex>1</groupindex>
						</link>
						<link>
							<linkclipref>clipitem-1129</linkclipref>
							<mediatype>audio</mediatype>
							<trackindex>11</trackindex>
							<clipindex>93</clipindex>
							<groupindex>1</groupindex>
						</link>
						<logginginfo>
							<description>DVNA20000916</description>
							<scene></scene>
							<shottake></shottake>
							<lognote></lognote>
						</logginginfo>
						<labels>
							<label2>Iris</label2>
						</labels>
					</clipitem>
					<clipitem id="clipitem-378">
						<masterclipid>masterclip-209</masterclipid>
						<name>bakomstoff fra iphone og fotoapp.mxf</name>
						<enabled>TRUE</enabled>
						<duration>25210</duration>
						<rate>
							<timebase>25</timebase>
							<ntsc>FALSE</ntsc>
						</rate>
						<start>47292</start>
						<end>47399</end>
						<in>1436</in>
						<out>1543</out>
						<pproTicksIn>14590679040000</pproTicksIn>
						<pproTicksOut>15677867520000</pproTicksOut>
						<alphatype>none</alphatype>
						<file id="file-209"/>
						<link>
							<linkclipref>clipitem-378</linkclipref>
							<mediatype>video</mediatype>
							<trackindex>2</trackindex>
							<clipindex>122</clipindex>
						</link>
						<link>
							<linkclipref>clipitem-789</linkclipref>
							<mediatype>audio</mediatype>
							<trackindex>8</trackindex>
							<clipindex>86</clipindex>
							<groupindex>1</groupindex>
						</link>
						<link>
							<linkclipref>clipitem-883</linkclipref>
							<mediatype>audio</mediatype>
							<trackindex>9</trackindex>
							<clipindex>84</clipindex>
							<groupindex>1</groupindex>
						</link>
						<logginginfo>
							<description></description>
							<scene></scene>
							<shottake></shottake>
							<lognote></lognote>
						</logginginfo>
						<labels>
							<label2>Iris</label2>
						</labels>
					</clipitem>
					<clipitem id="clipitem-379">
						<masterclipid>masterclip-209</masterclipid>
						<name>bakomstoff fra iphone og fotoapp.mxf</name>
						<enabled>TRUE</enabled>
						<duration>25210</duration>
						<rate>
							<timebase>25</timebase>
							<ntsc>FALSE</ntsc>
						</rate>
						<start>47399</start>
						<end>47551</end>
						<in>2191</in>
						<out>2343</out>
						<pproTicksIn>22261962240000</pproTicksIn>
						<pproTicksOut>23806379520000</pproTicksOut>
						<alphatype>none</alphatype>
						<file id="file-209"/>
						<link>
							<linkclipref>clipitem-379</linkclipref>
							<mediatype>video</mediatype>
							<trackindex>2</trackindex>
							<clipindex>123</clipindex>
						</link>
						<link>
							<linkclipref>clipitem-790</linkclipref>
							<mediatype>audio</mediatype>
							<trackindex>8</trackindex>
							<clipindex>87</clipindex>
							<groupindex>1</groupindex>
						</link>
						<link>
							<linkclipref>clipitem-884</linkclipref>
							<mediatype>audio</mediatype>
							<trackindex>9</trackindex>
							<clipindex>85</clipindex>
							<groupindex>1</groupindex>
						</link>
						<logginginfo>
							<description></description>
							<scene></scene>
							<shottake></shottake>
							<lognote></lognote>
						</logginginfo>
						<labels>
							<label2>Iris</label2>
						</labels>
					</clipitem>
					<clipitem id="clipitem-380">
						<masterclipid>masterclip-209</masterclipid>
						<name>bakomstoff fra iphone og fotoapp.mxf</name>
						<enabled>TRUE</enabled>
						<duration>25210</duration>
						<rate>
							<timebase>25</timebase>
							<ntsc>FALSE</ntsc>
						</rate>
						<start>47619</start>
						<end>47720</end>
						<in>6934</in>
						<out>7035</out>
						<pproTicksIn>70453877760000</pproTicksIn>
						<pproTicksOut>71480102400000</pproTicksOut>
						<alphatype>none</alphatype>
						<file id="file-209"/>
						<logginginfo>
							<description></description>
							<scene></scene>
							<shottake></shottake>
							<lognote></lognote>
						</logginginfo>
						<labels>
							<label2>Iris</label2>
						</labels>
					</clipitem>
					<clipitem id="clipitem-381">
						<masterclipid>masterclip-209</masterclipid>
						<name>bakomstoff fra iphone og fotoapp.mxf</name>
						<enabled>TRUE</enabled>
						<duration>25210</duration>
						<rate>
							<timebase>25</timebase>
							<ntsc>FALSE</ntsc>
						</rate>
						<start>47720</start>
						<end>47851</end>
						<in>7190</in>
						<out>7321</out>
						<pproTicksIn>73055001600000</pproTicksIn>
						<pproTicksOut>74386045440000</pproTicksOut>
						<alphatype>none</alphatype>
						<file id="file-209"/>
						<link>
							<linkclipref>clipitem-381</linkclipref>
							<mediatype>video</mediatype>
							<trackindex>2</trackindex>
							<clipindex>125</clipindex>
						</link>
						<link>
							<linkclipref>clipitem-791</linkclipref>
							<mediatype>audio</mediatype>
							<trackindex>8</trackindex>
							<clipindex>89</clipindex>
							<groupindex>1</groupindex>
						</link>
						<link>
							<linkclipref>clipitem-885</linkclipref>
							<mediatype>audio</mediatype>
							<trackindex>9</trackindex>
							<clipindex>87</clipindex>
							<groupindex>1</groupindex>
						</link>
						<logginginfo>
							<description></description>
							<scene></scene>
							<shottake></shottake>
							<lognote></lognote>
						</logginginfo>
						<labels>
							<label2>Iris</label2>
						</labels>
					</clipitem>
					<clipitem id="clipitem-382">
						<masterclipid>masterclip-209</masterclipid>
						<name>bakomstoff fra iphone og fotoapp.mxf</name>
						<enabled>TRUE</enabled>
						<duration>25210</duration>
						<rate>
							<timebase>25</timebase>
							<ntsc>FALSE</ntsc>
						</rate>
						<start>47851</start>
						<end>48052</end>
						<in>10209</in>
						<out>10410</out>
						<pproTicksIn>103729973760000</pproTicksIn>
						<pproTicksOut>105772262400000</pproTicksOut>
						<alphatype>none</alphatype>
						<file id="file-209"/>
						<link>
							<linkclipref>clipitem-382</linkclipref>
							<mediatype>video</mediatype>
							<trackindex>2</trackindex>
							<clipindex>126</clipindex>
						</link>
						<link>
							<linkclipref>clipitem-994</linkclipref>
							<mediatype>audio</mediatype>
							<trackindex>10</trackindex>
							<clipindex>99</clipindex>
							<groupindex>1</groupindex>
						</link>
						<link>
							<linkclipref>clipitem-1131</linkclipref>
							<mediatype>audio</mediatype>
							<trackindex>11</trackindex>
							<clipindex>96</clipindex>
							<groupindex>1</groupindex>
						</link>
						<logginginfo>
							<description></description>
							<scene></scene>
							<shottake></shottake>
							<lognote></lognote>
						</logginginfo>
						<labels>
							<label2>Iris</label2>
						</labels>
					</clipitem>
					<clipitem id="clipitem-383">
						<masterclipid>masterclip-209</masterclipid>
						<name>bakomstoff fra iphone og fotoapp.mxf</name>
						<enabled>TRUE</enabled>
						<duration>25210</duration>
						<rate>
							<timebase>25</timebase>
							<ntsc>FALSE</ntsc>
						</rate>
						<start>48052</start>
						<end>48358</end>
						<in>10703</in>
						<out>11009</out>
						<pproTicksIn>108749329920000</pproTicksIn>
						<pproTicksOut>111858485760000</pproTicksOut>
						<alphatype>none</alphatype>
						<file id="file-209"/>
						<link>
							<linkclipref>clipitem-383</linkclipref>
							<mediatype>video</mediatype>
							<trackindex>2</trackindex>
							<clipindex>127</clipindex>
						</link>
						<link>
							<linkclipref>clipitem-995</linkclipref>
							<mediatype>audio</mediatype>
							<trackindex>10</trackindex>
							<clipindex>101</clipindex>
							<groupindex>1</groupindex>
						</link>
						<link>
							<linkclipref>clipitem-1132</linkclipref>
							<mediatype>audio</mediatype>
							<trackindex>11</trackindex>
							<clipindex>98</clipindex>
							<groupindex>1</groupindex>
						</link>
						<logginginfo>
							<description></description>
							<scene></scene>
							<shottake></shottake>
							<lognote></lognote>
						</logginginfo>
						<labels>
							<label2>Iris</label2>
						</labels>
					</clipitem>
					<clipitem id="clipitem-384">
						<masterclipid>masterclip-232</masterclipid>
						<name>AA012301.MXF</name>
						<enabled>TRUE</enabled>
						<duration>216</duration>
						<rate>
							<timebase>25</timebase>
							<ntsc>FALSE</ntsc>
						</rate>
						<start>48358</start>
						<end>48493</end>
						<in>35</in>
						<out>170</out>
						<pproTicksIn>355622400000</pproTicksIn>
						<pproTicksOut>1727308800000</pproTicksOut>
						<alphatype>none</alphatype>
						<pixelaspectratio>square</pixelaspectratio>
						<anamorphic>FALSE</anamorphic>
						<file id="file-232">
							<name>AA012301.MXF</name>
							<pathurl>file://localhost/Volumes/Vaagen/Prosjekter/DVNA210116_Horn%c3%b8ya_Nordvisjonen_010317_TGP/Bakomfilm/05%20Rigging%20Horn%c3%b8ya%2025.%20april%20til%204.%20mai%202016/Video%20-%20foto%20Sindre%20Skrede/AA0123/AA012301.MXF</pathurl>
							<rate>
								<timebase>25</timebase>
								<ntsc>FALSE</ntsc>
							</rate>
							<duration>216</duration>
							<timecode>
								<rate>
									<timebase>25</timebase>
									<ntsc>FALSE</ntsc>
								</rate>
								<string>01:09:59:13</string>
								<frame>104988</frame>
								<displayformat>NDF</displayformat>
								<reel>
									<name></name>
								</reel>
							</timecode>
							<media>
								<video>
									<samplecharacteristics>
										<rate>
											<timebase>25</timebase>
											<ntsc>FALSE</ntsc>
										</rate>
										<width>1920</width>
										<height>1080</height>
										<anamorphic>FALSE</anamorphic>
										<pixelaspectratio>square</pixelaspectratio>
										<fielddominance>none</fielddominance>
									</samplecharacteristics>
								</video>
								<audio>
									<samplecharacteristics>
										<depth>16</depth>
										<samplerate>48000</samplerate>
									</samplecharacteristics>
									<channelcount>2</channelcount>
								</audio>
								<audio>
									<samplecharacteristics>
										<depth>16</depth>
										<samplerate>48000</samplerate>
									</samplecharacteristics>
									<channelcount>2</channelcount>
								</audio>
							</media>
						</file>
						<link>
							<linkclipref>clipitem-384</linkclipref>
							<mediatype>video</mediatype>
							<trackindex>2</trackindex>
							<clipindex>128</clipindex>
						</link>
						<link>
							<linkclipref>clipitem-996</linkclipref>
							<mediatype>audio</mediatype>
							<trackindex>10</trackindex>
							<clipindex>102</clipindex>
							<groupindex>1</groupindex>
						</link>
						<link>
							<linkclipref>clipitem-1133</linkclipref>
							<mediatype>audio</mediatype>
							<trackindex>11</trackindex>
							<clipindex>99</clipindex>
							<groupindex>1</groupindex>
						</link>
						<logginginfo>
							<description></description>
							<scene></scene>
							<shottake></shottake>
							<lognote></lognote>
						</logginginfo>
						<labels>
							<label2>Iris</label2>
						</labels>
					</clipitem>
					<clipitem id="clipitem-385">
						<masterclipid>masterclip-209</masterclipid>
						<name>bakomstoff fra iphone og fotoapp.mxf</name>
						<enabled>TRUE</enabled>
						<duration>25210</duration>
						<rate>
							<timebase>25</timebase>
							<ntsc>FALSE</ntsc>
						</rate>
						<start>48493</start>
						<end>48716</end>
						<in>7955</in>
						<out>8178</out>
						<pproTicksIn>80827891200000</pproTicksIn>
						<pproTicksOut>83093713920000</pproTicksOut>
						<alphatype>none</alphatype>
						<file id="file-209"/>
						<link>
							<linkclipref>clipitem-385</linkclipref>
							<mediatype>video</mediatype>
							<trackindex>2</trackindex>
							<clipindex>129</clipindex>
						</link>
						<link>
							<linkclipref>clipitem-997</linkclipref>
							<mediatype>audio</mediatype>
							<trackindex>10</trackindex>
							<clipindex>103</clipindex>
							<groupindex>1</groupindex>
						</link>
						<link>
							<linkclipref>clipitem-1134</linkclipref>
							<mediatype>audio</mediatype>
							<trackindex>11</trackindex>
							<clipindex>100</clipindex>
							<groupindex>1</groupindex>
						</link>
						<logginginfo>
							<description></description>
							<scene></scene>
							<shottake></shottake>
							<lognote></lognote>
						</logginginfo>
						<labels>
							<label2>Iris</label2>
						</labels>
					</clipitem>
					<clipitem id="clipitem-386">
						<masterclipid>masterclip-209</masterclipid>
						<name>bakomstoff fra iphone og fotoapp.mxf</name>
						<enabled>TRUE</enabled>
						<duration>25210</duration>
						<rate>
							<timebase>25</timebase>
							<ntsc>FALSE</ntsc>
						</rate>
						<start>48716</start>
						<end>48790</end>
						<in>9002</in>
						<out>9076</out>
						<pproTicksIn>91466081280000</pproTicksIn>
						<pproTicksOut>92217968640000</pproTicksOut>
						<alphatype>none</alphatype>
						<file id="file-209"/>
						<link>
							<linkclipref>clipitem-386</linkclipref>
							<mediatype>video</mediatype>
							<trackindex>2</trackindex>
							<clipindex>130</clipindex>
						</link>
						<link>
							<linkclipref>clipitem-998</linkclipref>
							<mediatype>audio</mediatype>
							<trackindex>10</trackindex>
							<clipindex>104</clipindex>
							<groupindex>1</groupindex>
						</link>
						<link>
							<linkclipref>clipitem-1135</linkclipref>
							<mediatype>audio</mediatype>
							<trackindex>11</trackindex>
							<clipindex>101</clipindex>
							<groupindex>1</groupindex>
						</link>
						<logginginfo>
							<description></description>
							<scene></scene>
							<shottake></shottake>
							<lognote></lognote>
						</logginginfo>
						<labels>
							<label2>Iris</label2>
						</labels>
					</clipitem>
					<clipitem id="clipitem-387">
						<masterclipid>masterclip-209</masterclipid>
						<name>bakomstoff fra iphone og fotoapp.mxf</name>
						<enabled>TRUE</enabled>
						<duration>25210</duration>
						<rate>
							<timebase>25</timebase>
							<ntsc>FALSE</ntsc>
						</rate>
						<start>48790</start>
						<end>48910</end>
						<in>14548</in>
						<out>14668</out>
						<pproTicksIn>147816990720000</pproTicksIn>
						<pproTicksOut>149036267520000</pproTicksOut>
						<alphatype>none</alphatype>
						<file id="file-209"/>
						<link>
							<linkclipref>clipitem-387</linkclipref>
							<mediatype>video</mediatype>
							<trackindex>2</trackindex>
							<clipindex>131</clipindex>
						</link>
						<link>
							<linkclipref>clipitem-792</linkclipref>
							<mediatype>audio</mediatype>
							<trackindex>8</trackindex>
							<clipindex>90</clipindex>
							<groupindex>1</groupindex>
						</link>
						<link>
							<linkclipref>clipitem-886</linkclipref>
							<mediatype>audio</mediatype>
							<trackindex>9</trackindex>
							<clipindex>88</clipindex>
							<groupindex>1</groupindex>
						</link>
						<logginginfo>
							<description></description>
							<scene></scene>
							<shottake></shottake>
							<lognote></lognote>
						</logginginfo>
						<labels>
							<label2>Iris</label2>
						</labels>
					</clipitem>
					<clipitem id="clipitem-388">
						<masterclipid>masterclip-233</masterclipid>
						<name>Clip0026.MXF</name>
						<enabled>TRUE</enabled>
						<duration>2052</duration>
						<rate>
							<timebase>25</timebase>
							<ntsc>FALSE</ntsc>
						</rate>
						<start>48910</start>
						<end>49074</end>
						<in>191</in>
						<out>355</out>
						<pproTicksIn>1940682240000</pproTicksIn>
						<pproTicksOut>3607027200000</pproTicksOut>
						<alphatype>none</alphatype>
						<pixelaspectratio>square</pixelaspectratio>
						<anamorphic>FALSE</anamorphic>
						<file id="file-233">
							<name>Clip0026.MXF</name>
							<pathurl>file://localhost/Volumes/Vaagen/Prosjekter/DVNA210116_Horn%c3%b8ya_Nordvisjonen_010317_TGP/Bakomfilm/bakomstoff%20juli16/XDROOT/XDCAM%2025%20p/Clip0026.MXF</pathurl>
							<rate>
								<timebase>25</timebase>
								<ntsc>FALSE</ntsc>
							</rate>
							<duration>2052</duration>
							<timecode>
								<rate>
									<timebase>25</timebase>
									<ntsc>FALSE</ntsc>
								</rate>
								<string>14:56:19:05</string>
								<frame>1344480</frame>
								<displayformat>NDF</displayformat>
								<reel>
									<name></name>
								</reel>
							</timecode>
							<media>
								<video>
									<samplecharacteristics>
										<rate>
											<timebase>25</timebase>
											<ntsc>FALSE</ntsc>
										</rate>
										<width>1920</width>
										<height>1080</height>
										<anamorphic>FALSE</anamorphic>
										<pixelaspectratio>square</pixelaspectratio>
										<fielddominance>upper</fielddominance>
									</samplecharacteristics>
								</video>
								<audio>
									<samplecharacteristics>
										<depth>16</depth>
										<samplerate>48000</samplerate>
									</samplecharacteristics>
									<channelcount>4</channelcount>
								</audio>
							</media>
						</file>
						<link>
							<linkclipref>clipitem-388</linkclipref>
							<mediatype>video</mediatype>
							<trackindex>2</trackindex>
							<clipindex>132</clipindex>
						</link>
						<link>
							<linkclipref>clipitem-649</linkclipref>
							<mediatype>audio</mediatype>
							<trackindex>3</trackindex>
							<clipindex>63</clipindex>
							<groupindex>1</groupindex>
						</link>
						<logginginfo>
							<description></description>
							<scene></scene>
							<shottake></shottake>
							<lognote></lognote>
						</logginginfo>
						<labels>
							<label2>Iris</label2>
						</labels>
					</clipitem>
					<clipitem id="clipitem-389">
						<masterclipid>masterclip-234</masterclipid>
						<name>Clip0023.MXF</name>
						<enabled>TRUE</enabled>
						<duration>1308</duration>
						<rate>
							<timebase>25</timebase>
							<ntsc>FALSE</ntsc>
						</rate>
						<start>49074</start>
						<end>49177</end>
						<in>266</in>
						<out>369</out>
						<pproTicksIn>2702730240000</pproTicksIn>
						<pproTicksOut>3749276160000</pproTicksOut>
						<alphatype>none</alphatype>
						<pixelaspectratio>square</pixelaspectratio>
						<anamorphic>FALSE</anamorphic>
						<file id="file-234">
							<name>Clip0023.MXF</name>
							<pathurl>file://localhost/Volumes/Vaagen/Prosjekter/DVNA210116_Horn%c3%b8ya_Nordvisjonen_010317_TGP/Bakomfilm/bakomstoff%20juli16/XDROOT/XDCAM%2025%20p/Clip0023.MXF</pathurl>
							<rate>
								<timebase>25</timebase>
								<ntsc>FALSE</ntsc>
							</rate>
							<duration>1308</duration>
							<timecode>
								<rate>
									<timebase>25</timebase>
									<ntsc>FALSE</ntsc>
								</rate>
								<string>14:53:51:21</string>
								<frame>1340796</frame>
								<displayformat>NDF</displayformat>
								<reel>
									<name></name>
								</reel>
							</timecode>
							<media>
								<video>
									<samplecharacteristics>
										<rate>
											<timebase>25</timebase>
											<ntsc>FALSE</ntsc>
										</rate>
										<width>1920</width>
										<height>1080</height>
										<anamorphic>FALSE</anamorphic>
										<pixelaspectratio>square</pixelaspectratio>
										<fielddominance>upper</fielddominance>
									</samplecharacteristics>
								</video>
								<audio>
									<samplecharacteristics>
										<depth>16</depth>
										<samplerate>48000</samplerate>
									</samplecharacteristics>
									<channelcount>4</channelcount>
								</audio>
							</media>
						</file>
						<logginginfo>
							<description></description>
							<scene></scene>
							<shottake></shottake>
							<lognote></lognote>
						</logginginfo>
						<labels>
							<label2>Iris</label2>
						</labels>
					</clipitem>
					<clipitem id="clipitem-390">
						<masterclipid>masterclip-235</masterclipid>
						<name>Clip0022.MXF</name>
						<enabled>TRUE</enabled>
						<duration>1536</duration>
						<rate>
							<timebase>25</timebase>
							<ntsc>FALSE</ntsc>
						</rate>
						<start>49177</start>
						<end>49235</end>
						<in>228</in>
						<out>286</out>
						<pproTicksIn>2316625920000</pproTicksIn>
						<pproTicksOut>2905943040000</pproTicksOut>
						<alphatype>none</alphatype>
						<pixelaspectratio>square</pixelaspectratio>
						<anamorphic>FALSE</anamorphic>
						<file id="file-235">
							<name>Clip0022.MXF</name>
							<pathurl>file://localhost/Volumes/Vaagen/Prosjekter/DVNA210116_Horn%c3%b8ya_Nordvisjonen_010317_TGP/Bakomfilm/bakomstoff%20juli16/XDROOT/XDCAM%2025%20p/Clip0022.MXF</pathurl>
							<rate>
								<timebase>25</timebase>
								<ntsc>FALSE</ntsc>
							</rate>
							<duration>1536</duration>
							<timecode>
								<rate>
									<timebase>25</timebase>
									<ntsc>FALSE</ntsc>
								</rate>
								<string>14:52:50:10</string>
								<frame>1339260</frame>
								<displayformat>NDF</displayformat>
								<reel>
									<name></name>
								</reel>
							</timecode>
							<media>
								<video>
									<samplecharacteristics>
										<rate>
											<timebase>25</timebase>
											<ntsc>FALSE</ntsc>
										</rate>
										<width>1920</width>
										<height>1080</height>
										<anamorphic>FALSE</anamorphic>
										<pixelaspectratio>square</pixelaspectratio>
										<fielddominance>upper</fielddominance>
									</samplecharacteristics>
								</video>
								<audio>
									<samplecharacteristics>
										<depth>16</depth>
										<samplerate>48000</samplerate>
									</samplecharacteristics>
									<channelcount>4</channelcount>
								</audio>
							</media>
						</file>
						<logginginfo>
							<description></description>
							<scene></scene>
							<shottake></shottake>
							<lognote></lognote>
						</logginginfo>
						<labels>
							<label2>Iris</label2>
						</labels>
					</clipitem>
					<clipitem id="clipitem-391">
						<masterclipid>masterclip-236</masterclipid>
						<name>Clip0028.MXF</name>
						<enabled>TRUE</enabled>
						<duration>252</duration>
						<rate>
							<timebase>25</timebase>
							<ntsc>FALSE</ntsc>
						</rate>
						<start>49235</start>
						<end>49414</end>
						<in>47</in>
						<out>227</out>
						<pproTicksIn>477550080000</pproTicksIn>
						<pproTicksOut>2306465280000</pproTicksOut>
						<alphatype>none</alphatype>
						<pixelaspectratio>square</pixelaspectratio>
						<anamorphic>FALSE</anamorphic>
						<file id="file-236">
							<name>Clip0028.MXF</name>
							<pathurl>file://localhost/Volumes/Vaagen/Prosjekter/DVNA210116_Horn%c3%b8ya_Nordvisjonen_010317_TGP/Bakomfilm/bakomstoff%20juli16/XDROOT/XDCAM%2025%20p/Clip0028.MXF</pathurl>
							<rate>
								<timebase>25</timebase>
								<ntsc>FALSE</ntsc>
							</rate>
							<duration>252</duration>
							<timecode>
								<rate>
									<timebase>25</timebase>
									<ntsc>FALSE</ntsc>
								</rate>
								<string>14:57:50:10</string>
								<frame>1346760</frame>
								<displayformat>NDF</displayformat>
								<reel>
									<name></name>
								</reel>
							</timecode>
							<media>
								<video>
									<samplecharacteristics>
										<rate>
											<timebase>25</timebase>
											<ntsc>FALSE</ntsc>
										</rate>
										<width>1920</width>
										<height>1080</height>
										<anamorphic>FALSE</anamorphic>
										<pixelaspectratio>square</pixelaspectratio>
										<fielddominance>upper</fielddominance>
									</samplecharacteristics>
								</video>
								<audio>
									<samplecharacteristics>
										<depth>16</depth>
										<samplerate>48000</samplerate>
									</samplecharacteristics>
									<channelcount>4</channelcount>
								</audio>
							</media>
						</file>
						<logginginfo>
							<description></description>
							<scene></scene>
							<shottake></shottake>
							<lognote></lognote>
						</logginginfo>
						<labels>
							<label2>Iris</label2>
						</labels>
					</clipitem>
					<clipitem id="clipitem-392">
						<masterclipid>masterclip-237</masterclipid>
						<name>Clip0019.MXF</name>
						<enabled>TRUE</enabled>
						<duration>264</duration>
						<rate>
							<timebase>25</timebase>
							<ntsc>FALSE</ntsc>
						</rate>
						<start>49414</start>
						<end>49463</end>
						<in>72</in>
						<out>121</out>
						<pproTicksIn>731566080000</pproTicksIn>
						<pproTicksOut>1229437440000</pproTicksOut>
						<alphatype>none</alphatype>
						<pixelaspectratio>square</pixelaspectratio>
						<anamorphic>FALSE</anamorphic>
						<file id="file-237">
							<name>Clip0019.MXF</name>
							<pathurl>file://localhost/Volumes/Vaagen/Prosjekter/DVNA210116_Horn%c3%b8ya_Nordvisjonen_010317_TGP/Bakomfilm/bakomstoff%20juli16/XDROOT/XDCAM%2025%20p/Clip0019.MXF</pathurl>
							<rate>
								<timebase>25</timebase>
								<ntsc>FALSE</ntsc>
							</rate>
							<duration>264</duration>
							<timecode>
								<rate>
									<timebase>25</timebase>
									<ntsc>FALSE</ntsc>
								</rate>
								<string>14:51:57:03</string>
								<frame>1337928</frame>
								<displayformat>NDF</displayformat>
								<reel>
									<name></name>
								</reel>
							</timecode>
							<media>
								<video>
									<samplecharacteristics>
										<rate>
											<timebase>25</timebase>
											<ntsc>FALSE</ntsc>
										</rate>
										<width>1920</width>
										<height>1080</height>
										<anamorphic>FALSE</anamorphic>
										<pixelaspectratio>square</pixelaspectratio>
										<fielddominance>upper</fielddominance>
									</samplecharacteristics>
								</video>
								<audio>
									<samplecharacteristics>
										<depth>16</depth>
										<samplerate>48000</samplerate>
									</samplecharacteristics>
									<channelcount>4</channelcount>
								</audio>
							</media>
						</file>
						<logginginfo>
							<description></description>
							<scene></scene>
							<shottake></shottake>
							<lognote></lognote>
						</logginginfo>
						<labels>
							<label2>Iris</label2>
						</labels>
					</clipitem>
					<clipitem id="clipitem-393">
						<masterclipid>masterclip-238</masterclipid>
						<name>Clip0024.MXF</name>
						<enabled>TRUE</enabled>
						<duration>672</duration>
						<rate>
							<timebase>25</timebase>
							<ntsc>FALSE</ntsc>
						</rate>
						<start>49463</start>
						<end>49576</end>
						<in>147</in>
						<out>260</out>
						<pproTicksIn>1493614080000</pproTicksIn>
						<pproTicksOut>2641766400000</pproTicksOut>
						<alphatype>none</alphatype>
						<pixelaspectratio>square</pixelaspectratio>
						<anamorphic>FALSE</anamorphic>
						<file id="file-238">
							<name>Clip0024.MXF</name>
							<pathurl>file://localhost/Volumes/Vaagen/Prosjekter/DVNA210116_Horn%c3%b8ya_Nordvisjonen_010317_TGP/Bakomfilm/bakomstoff%20juli16/XDROOT/XDCAM%2025%20p/Clip0024.MXF</pathurl>
							<rate>
								<timebase>25</timebase>
								<ntsc>FALSE</ntsc>
							</rate>
							<duration>672</duration>
							<timecode>
								<rate>
									<timebase>25</timebase>
									<ntsc>FALSE</ntsc>
								</rate>
								<string>14:54:44:04</string>
								<frame>1342104</frame>
								<displayformat>NDF</displayformat>
								<reel>
									<name></name>
								</reel>
							</timecode>
							<media>
								<video>
									<samplecharacteristics>
										<rate>
											<timebase>25</timebase>
											<ntsc>FALSE</ntsc>
										</rate>
										<width>1920</width>
										<height>1080</height>
										<anamorphic>FALSE</anamorphic>
										<pixelaspectratio>square</pixelaspectratio>
										<fielddominance>upper</fielddominance>
									</samplecharacteristics>
								</video>
								<audio>
									<samplecharacteristics>
										<depth>16</depth>
										<samplerate>48000</samplerate>
									</samplecharacteristics>
									<channelcount>4</channelcount>
								</audio>
							</media>
						</file>
						<logginginfo>
							<description></description>
							<scene></scene>
							<shottake></shottake>
							<lognote></lognote>
						</logginginfo>
						<labels>
							<label2>Iris</label2>
						</labels>
					</clipitem>
					<clipitem id="clipitem-394">
						<masterclipid>masterclip-239</masterclipid>
						<name>Clip0017.MXF</name>
						<enabled>TRUE</enabled>
						<duration>1152</duration>
						<rate>
							<timebase>25</timebase>
							<ntsc>FALSE</ntsc>
						</rate>
						<start>49576</start>
						<end>49671</end>
						<in>292</in>
						<out>387</out>
						<pproTicksIn>2966906880000</pproTicksIn>
						<pproTicksOut>3932167680000</pproTicksOut>
						<alphatype>none</alphatype>
						<pixelaspectratio>square</pixelaspectratio>
						<anamorphic>FALSE</anamorphic>
						<file id="file-239">
							<name>Clip0017.MXF</name>
							<pathurl>file://localhost/Volumes/Vaagen/Prosjekter/DVNA210116_Horn%c3%b8ya_Nordvisjonen_010317_TGP/Bakomfilm/bakomstoff%20juli16/XDROOT/XDCAM%2025%20p/Clip0017.MXF</pathurl>
							<rate>
								<timebase>25</timebase>
								<ntsc>FALSE</ntsc>
							</rate>
							<duration>1152</duration>
							<timecode>
								<rate>
									<timebase>25</timebase>
									<ntsc>FALSE</ntsc>
								</rate>
								<string>14:50:59:13</string>
								<frame>1336488</frame>
								<displayformat>NDF</displayformat>
								<reel>
									<name></name>
								</reel>
							</timecode>
							<media>
								<video>
									<samplecharacteristics>
										<rate>
											<timebase>25</timebase>
											<ntsc>FALSE</ntsc>
										</rate>
										<width>1920</width>
										<height>1080</height>
										<anamorphic>FALSE</anamorphic>
										<pixelaspectratio>square</pixelaspectratio>
										<fielddominance>upper</fielddominance>
									</samplecharacteristics>
								</video>
								<audio>
									<samplecharacteristics>
										<depth>16</depth>
										<samplerate>48000</samplerate>
									</samplecharacteristics>
									<channelcount>4</channelcount>
								</audio>
							</media>
						</file>
						<logginginfo>
							<description></description>
							<scene></scene>
							<shottake></shottake>
							<lognote></lognote>
						</logginginfo>
						<labels>
							<label2>Iris</label2>
						</labels>
					</clipitem>
					<clipitem id="clipitem-395">
						<masterclipid>masterclip-239</masterclipid>
						<name>Clip0017.MXF</name>
						<enabled>TRUE</enabled>
						<duration>1152</duration>
						<rate>
							<timebase>25</timebase>
							<ntsc>FALSE</ntsc>
						</rate>
						<start>49671</start>
						<end>49761</end>
						<in>793</in>
						<out>882</out>
						<pproTicksIn>8057387520000</pproTicksIn>
						<pproTicksOut>8961684480000</pproTicksOut>
						<alphatype>none</alphatype>
						<file id="file-239"/>
						<logginginfo>
							<description></description>
							<scene></scene>
							<shottake></shottake>
							<lognote></lognote>
						</logginginfo>
						<labels>
							<label2>Iris</label2>
						</labels>
					</clipitem>
					<clipitem id="clipitem-396">
						<masterclipid>masterclip-233</masterclipid>
						<name>Clip0026.MXF</name>
						<enabled>TRUE</enabled>
						<duration>2052</duration>
						<rate>
							<timebase>25</timebase>
							<ntsc>FALSE</ntsc>
						</rate>
						<start>49761</start>
						<end>49975</end>
						<in>1711</in>
						<out>1925</out>
						<pproTicksIn>17384855040000</pproTicksIn>
						<pproTicksOut>19559232000000</pproTicksOut>
						<alphatype>none</alphatype>
						<file id="file-233"/>
						<logginginfo>
							<description></description>
							<scene></scene>
							<shottake></shottake>
							<lognote></lognote>
						</logginginfo>
						<labels>
							<label2>Iris</label2>
						</labels>
					</clipitem>
					<clipitem id="clipitem-397">
						<masterclipid>masterclip-240</masterclipid>
						<name>Clip0029.MXF</name>
						<enabled>TRUE</enabled>
						<duration>348</duration>
						<rate>
							<timebase>25</timebase>
							<ntsc>FALSE</ntsc>
						</rate>
						<start>49975</start>
						<end>50045</end>
						<in>168</in>
						<out>238</out>
						<pproTicksIn>1706987520000</pproTicksIn>
						<pproTicksOut>2418232320000</pproTicksOut>
						<alphatype>none</alphatype>
						<pixelaspectratio>square</pixelaspectratio>
						<anamorphic>FALSE</anamorphic>
						<file id="file-240">
							<name>Clip0029.MXF</name>
							<pathurl>file://localhost/Volumes/Vaagen/Prosjekter/DVNA210116_Horn%c3%b8ya_Nordvisjonen_010317_TGP/Bakomfilm/bakomstoff%20juli16/XDROOT/XDCAM%2025%20p/Clip0029.MXF</pathurl>
							<rate>
								<timebase>25</timebase>
								<ntsc>FALSE</ntsc>
							</rate>
							<duration>348</duration>
							<timecode>
								<rate>
									<timebase>25</timebase>
									<ntsc>FALSE</ntsc>
								</rate>
								<string>14:58:00:12</string>
								<frame>1347012</frame>
								<displayformat>NDF</displayformat>
								<reel>
									<name></name>
								</reel>
							</timecode>
							<media>
								<video>
									<samplecharacteristics>
										<rate>
											<timebase>25</timebase>
											<ntsc>FALSE</ntsc>
										</rate>
										<width>1920</width>
										<height>1080</height>
										<anamorphic>FALSE</anamorphic>
										<pixelaspectratio>square</pixelaspectratio>
										<fielddominance>upper</fielddominance>
									</samplecharacteristics>
								</video>
								<audio>
									<samplecharacteristics>
										<depth>16</depth>
										<samplerate>48000</samplerate>
									</samplecharacteristics>
									<channelcount>4</channelcount>
								</audio>
							</media>
						</file>
						<logginginfo>
							<description></description>
							<scene></scene>
							<shottake></shottake>
							<lognote></lognote>
						</logginginfo>
						<labels>
							<label2>Iris</label2>
						</labels>
					</clipitem>
					<clipitem id="clipitem-398">
						<masterclipid>masterclip-241</masterclipid>
						<name>DVNA25000316AU.mxf</name>
						<enabled>TRUE</enabled>
						<duration>181500</duration>
						<rate>
							<timebase>25</timebase>
							<ntsc>FALSE</ntsc>
						</rate>
						<start>50438</start>
						<end>50598</end>
						<in>51013</in>
						<out>51173</out>
						<pproTicksIn>518324728320000</pproTicksIn>
						<pproTicksOut>519950430720000</pproTicksOut>
						<alphatype>none</alphatype>
						<pixelaspectratio>square</pixelaspectratio>
						<anamorphic>FALSE</anamorphic>
						<file id="file-241">
							<name>DVNA25000316AU.mxf</name>
							<pathurl>file://localhost/Volumes/Vaagen/Prosjekter/DVNA210116_Horn%c3%b8ya_Nordvisjonen_010317_TGP/Horn%c3%b8ya%20Trond/NRK2sendinger/DVNA25000316AU.mxf</pathurl>
							<rate>
								<timebase>25</timebase>
								<ntsc>FALSE</ntsc>
							</rate>
							<duration>181500</duration>
							<timecode>
								<rate>
									<timebase>25</timebase>
									<ntsc>FALSE</ntsc>
								</rate>
								<string>22:00:00:00</string>
								<frame>1980000</frame>
								<displayformat>NDF</displayformat>
								<reel>
									<name></name>
								</reel>
							</timecode>
							<media>
								<video>
									<samplecharacteristics>
										<rate>
											<timebase>25</timebase>
											<ntsc>FALSE</ntsc>
										</rate>
										<width>1920</width>
										<height>1080</height>
										<anamorphic>FALSE</anamorphic>
										<pixelaspectratio>square</pixelaspectratio>
										<fielddominance>upper</fielddominance>
									</samplecharacteristics>
								</video>
								<audio>
									<samplecharacteristics>
										<depth>16</depth>
										<samplerate>48000</samplerate>
									</samplecharacteristics>
									<channelcount>2</channelcount>
								</audio>
								<audio>
									<samplecharacteristics>
										<depth>16</depth>
										<samplerate>48000</samplerate>
									</samplecharacteristics>
									<channelcount>2</channelcount>
								</audio>
								<audio>
									<samplecharacteristics>
										<depth>16</depth>
										<samplerate>48000</samplerate>
									</samplecharacteristics>
									<channelcount>2</channelcount>
								</audio>
							</media>
						</file>
						<logginginfo>
							<description>Program 3</description>
							<scene></scene>
							<shottake></shottake>
							<lognote></lognote>
						</logginginfo>
						<labels>
							<label2>Iris</label2>
						</labels>
					</clipitem>
					<clipitem id="clipitem-399">
						<masterclipid>masterclip-231</masterclipid>
						<name>NRK1-CF-120716.mxf</name>
						<enabled>TRUE</enabled>
						<duration>81000</duration>
						<rate>
							<timebase>25</timebase>
							<ntsc>FALSE</ntsc>
						</rate>
						<start>50598</start>
						<end>50793</end>
						<in>7355</in>
						<out>7551</out>
						<pproTicksIn>74731507200000</pproTicksIn>
						<pproTicksOut>76722992640000</pproTicksOut>
						<alphatype>none</alphatype>
						<file id="file-231"/>
						<logginginfo>
							<description>DVNA20000916</description>
							<scene></scene>
							<shottake></shottake>
							<lognote></lognote>
						</logginginfo>
						<labels>
							<label2>Iris</label2>
						</labels>
					</clipitem>
					<clipitem id="clipitem-400">
						<masterclipid>masterclip-231</masterclipid>
						<name>NRK1-CF-120716.mxf</name>
						<enabled>TRUE</enabled>
						<duration>81000</duration>
						<rate>
							<timebase>25</timebase>
							<ntsc>FALSE</ntsc>
						</rate>
						<start>50793</start>
						<end>51020</end>
						<in>6165</in>
						<out>6392</out>
						<pproTicksIn>62640345600000</pproTicksIn>
						<pproTicksOut>64946810880000</pproTicksOut>
						<alphatype>none</alphatype>
						<file id="file-231"/>
						<logginginfo>
							<description>DVNA20000916</description>
							<scene></scene>
							<shottake></shottake>
							<lognote></lognote>
						</logginginfo>
						<labels>
							<label2>Iris</label2>
						</labels>
					</clipitem>
					<clipitem id="clipitem-401">
						<masterclipid>masterclip-231</masterclipid>
						<name>NRK1-CF-120716.mxf</name>
						<enabled>TRUE</enabled>
						<duration>81000</duration>
						<rate>
							<timebase>25</timebase>
							<ntsc>FALSE</ntsc>
						</rate>
						<start>51020</start>
						<end>51826</end>
						<in>6419</in>
						<out>7225</out>
						<pproTicksIn>65221148160000</pproTicksIn>
						<pproTicksOut>73410624000000</pproTicksOut>
						<alphatype>none</alphatype>
						<file id="file-231"/>
						<link>
							<linkclipref>clipitem-401</linkclipref>
							<mediatype>video</mediatype>
							<trackindex>2</trackindex>
							<clipindex>145</clipindex>
						</link>
						<link>
							<linkclipref>clipitem-999</linkclipref>
							<mediatype>audio</mediatype>
							<trackindex>10</trackindex>
							<clipindex>105</clipindex>
							<groupindex>1</groupindex>
						</link>
						<link>
							<linkclipref>clipitem-1136</linkclipref>
							<mediatype>audio</mediatype>
							<trackindex>11</trackindex>
							<clipindex>102</clipindex>
							<groupindex>1</groupindex>
						</link>
						<logginginfo>
							<description>DVNA20000916</description>
							<scene></scene>
							<shottake></shottake>
							<lognote></lognote>
						</logginginfo>
						<labels>
							<label2>Iris</label2>
						</labels>
					</clipitem>
					<clipitem id="clipitem-402">
						<masterclipid>masterclip-242</masterclipid>
						<name>VR-0676.MXF</name>
						<enabled>TRUE</enabled>
						<duration>3946</duration>
						<rate>
							<timebase>25</timebase>
							<ntsc>FALSE</ntsc>
						</rate>
						<start>51826</start>
						<end>51943</end>
						<in>2140</in>
						<out>2257</out>
						<pproTicksIn>21743769600000</pproTicksIn>
						<pproTicksOut>22932564480000</pproTicksOut>
						<alphatype>none</alphatype>
						<pixelaspectratio>square</pixelaspectratio>
						<anamorphic>FALSE</anamorphic>
						<file id="file-242">
							<name>VR-0676.MXF</name>
							<pathurl>file://localhost/Volumes/Vaagen/Prosjekter/DVNA210116_Horn%c3%b8ya_Nordvisjonen_010317_TGP/Bakomfilm/BakomfilmBBCNRK-NilsArne/XDROOT/Clip/VR-0676.MXF</pathurl>
							<rate>
								<timebase>50</timebase>
								<ntsc>FALSE</ntsc>
							</rate>
							<duration>7892</duration>
							<timecode>
								<rate>
									<timebase>50</timebase>
									<ntsc>FALSE</ntsc>
								</rate>
								<string>20:28:03:34</string>
								<frame>3684184</frame>
								<displayformat>NDF</displayformat>
								<reel>
									<name></name>
								</reel>
							</timecode>
							<media>
								<video>
									<samplecharacteristics>
										<rate>
											<timebase>50</timebase>
											<ntsc>FALSE</ntsc>
										</rate>
										<width>1920</width>
										<height>1080</height>
										<anamorphic>FALSE</anamorphic>
										<pixelaspectratio>square</pixelaspectratio>
										<fielddominance>none</fielddominance>
									</samplecharacteristics>
								</video>
								<audio>
									<samplecharacteristics>
										<depth>16</depth>
										<samplerate>48000</samplerate>
									</samplecharacteristics>
									<channelcount>2</channelcount>
								</audio>
								<audio>
									<samplecharacteristics>
										<depth>16</depth>
										<samplerate>48000</samplerate>
									</samplecharacteristics>
									<channelcount>2</channelcount>
								</audio>
								<audio>
									<samplecharacteristics>
										<depth>16</depth>
										<samplerate>48000</samplerate>
									</samplecharacteristics>
									<channelcount>2</channelcount>
								</audio>
								<audio>
									<samplecharacteristics>
										<depth>16</depth>
										<samplerate>48000</samplerate>
									</samplecharacteristics>
									<channelcount>2</channelcount>
								</audio>
							</media>
						</file>
						<link>
							<linkclipref>clipitem-402</linkclipref>
							<mediatype>video</mediatype>
							<trackindex>2</trackindex>
							<clipindex>146</clipindex>
						</link>
						<link>
							<linkclipref>clipitem-1239</linkclipref>
							<mediatype>audio</mediatype>
							<trackindex>12</trackindex>
							<clipindex>76</clipindex>
							<groupindex>1</groupindex>
						</link>
						<link>
							<linkclipref>clipitem-1324</linkclipref>
							<mediatype>audio</mediatype>
							<trackindex>13</trackindex>
							<clipindex>76</clipindex>
							<groupindex>1</groupindex>
						</link>
						<logginginfo>
							<description></description>
							<scene></scene>
							<shottake></shottake>
							<lognote></lognote>
						</logginginfo>
						<labels>
							<label2>Iris</label2>
						</labels>
					</clipitem>
					<clipitem id="clipitem-403">
						<masterclipid>masterclip-243</masterclipid>
						<name>VR-0677.MXF</name>
						<enabled>TRUE</enabled>
						<duration>1203</duration>
						<rate>
							<timebase>25</timebase>
							<ntsc>FALSE</ntsc>
						</rate>
						<start>51943</start>
						<end>52153</end>
						<in>181</in>
						<out>391</out>
						<pproTicksIn>1839075840000</pproTicksIn>
						<pproTicksOut>3972810240000</pproTicksOut>
						<alphatype>none</alphatype>
						<pixelaspectratio>square</pixelaspectratio>
						<anamorphic>FALSE</anamorphic>
						<file id="file-243">
							<name>VR-0677.MXF</name>
							<pathurl>file://localhost/Volumes/Vaagen/Prosjekter/DVNA210116_Horn%c3%b8ya_Nordvisjonen_010317_TGP/Bakomfilm/BakomfilmBBCNRK-NilsArne/XDROOT/Clip/VR-0677.MXF</pathurl>
							<rate>
								<timebase>50</timebase>
								<ntsc>FALSE</ntsc>
							</rate>
							<duration>2406</duration>
							<timecode>
								<rate>
									<timebase>50</timebase>
									<ntsc>FALSE</ntsc>
								</rate>
								<string>20:35:35:04</string>
								<frame>3706754</frame>
								<displayformat>NDF</displayformat>
								<reel>
									<name></name>
								</reel>
							</timecode>
							<media>
								<video>
									<samplecharacteristics>
										<rate>
											<timebase>50</timebase>
											<ntsc>FALSE</ntsc>
										</rate>
										<width>1920</width>
										<height>1080</height>
										<anamorphic>FALSE</anamorphic>
										<pixelaspectratio>square</pixelaspectratio>
										<fielddominance>none</fielddominance>
									</samplecharacteristics>
								</video>
								<audio>
									<samplecharacteristics>
										<depth>16</depth>
										<samplerate>48000</samplerate>
									</samplecharacteristics>
									<channelcount>2</channelcount>
								</audio>
								<audio>
									<samplecharacteristics>
										<depth>16</depth>
										<samplerate>48000</samplerate>
									</samplecharacteristics>
									<channelcount>2</channelcount>
								</audio>
								<audio>
									<samplecharacteristics>
										<depth>16</depth>
										<samplerate>48000</samplerate>
									</samplecharacteristics>
									<channelcount>2</channelcount>
								</audio>
								<audio>
									<samplecharacteristics>
										<depth>16</depth>
										<samplerate>48000</samplerate>
									</samplecharacteristics>
									<channelcount>2</channelcount>
								</audio>
							</media>
						</file>
						<link>
							<linkclipref>clipitem-403</linkclipref>
							<mediatype>video</mediatype>
							<trackindex>2</trackindex>
							<clipindex>147</clipindex>
						</link>
						<link>
							<linkclipref>clipitem-1000</linkclipref>
							<mediatype>audio</mediatype>
							<trackindex>10</trackindex>
							<clipindex>106</clipindex>
							<groupindex>1</groupindex>
						</link>
						<link>
							<linkclipref>clipitem-1137</linkclipref>
							<mediatype>audio</mediatype>
							<trackindex>11</trackindex>
							<clipindex>103</clipindex>
							<groupindex>1</groupindex>
						</link>
						<logginginfo>
							<description>Dykkerne går i vannet og tester utstyr</description>
							<scene></scene>
							<shottake></shottake>
							<lognote></lognote>
						</logginginfo>
						<labels>
							<label2>Iris</label2>
						</labels>
					</clipitem>
					<clipitem id="clipitem-404">
						<masterclipid>masterclip-244</masterclipid>
						<name>GOPR9300.MP4</name>
						<enabled>TRUE</enabled>
						<duration>568</duration>
						<rate>
							<timebase>25</timebase>
							<ntsc>FALSE</ntsc>
						</rate>
						<start>52153</start>
						<end>52275</end>
						<in>169</in>
						<out>291</out>
						<pproTicksIn>1717148160000</pproTicksIn>
						<pproTicksOut>2956746240000</pproTicksOut>
						<alphatype>black</alphatype>
						<pixelaspectratio>square</pixelaspectratio>
						<anamorphic>FALSE</anamorphic>
						<file id="file-244">
							<name>GOPR9300.MP4</name>
							<pathurl>file://localhost/Volumes/Vaagen/Prosjekter/DVNA210116_Horn%c3%b8ya_Nordvisjonen_010317_TGP/Bakomfilm/Robert%20Staven%20bakomfilm/GoProHero3Black/2015-07-04%20Hornoeya/GOPR9300.MP4</pathurl>
							<rate>
								<timebase>25</timebase>
								<ntsc>FALSE</ntsc>
							</rate>
							<duration>568</duration>
							<timecode>
								<rate>
									<timebase>25</timebase>
									<ntsc>FALSE</ntsc>
								</rate>
								<string>00:00:00:00</string>
								<frame>0</frame>
								<displayformat>NDF</displayformat>
								<reel>
									<name></name>
								</reel>
							</timecode>
							<media>
								<video>
									<samplecharacteristics>
										<rate>
											<timebase>25</timebase>
											<ntsc>FALSE</ntsc>
										</rate>
										<width>1920</width>
										<height>1080</height>
										<anamorphic>FALSE</anamorphic>
										<pixelaspectratio>square</pixelaspectratio>
										<fielddominance>none</fielddominance>
									</samplecharacteristics>
								</video>
								<audio>
									<samplecharacteristics>
										<depth>16</depth>
										<samplerate>48000</samplerate>
									</samplecharacteristics>
									<channelcount>2</channelcount>
								</audio>
							</media>
						</file>
						<link>
							<linkclipref>clipitem-404</linkclipref>
							<mediatype>video</mediatype>
							<trackindex>2</trackindex>
							<clipindex>148</clipindex>
						</link>
						<link>
							<linkclipref>clipitem-793</linkclipref>
							<mediatype>audio</mediatype>
							<trackindex>8</trackindex>
							<clipindex>91</clipindex>
							<groupindex>1</groupindex>
						</link>
						<link>
							<linkclipref>clipitem-887</linkclipref>
							<mediatype>audio</mediatype>
							<trackindex>9</trackindex>
							<clipindex>89</clipindex>
							<groupindex>1</groupindex>
						</link>
						<logginginfo>
							<description></description>
							<scene></scene>
							<shottake></shottake>
							<lognote></lognote>
						</logginginfo>
						<labels>
							<label2>Iris</label2>
						</labels>
					</clipitem>
					<clipitem id="clipitem-405">
						<masterclipid>masterclip-245</masterclipid>
						<name>GOPR9301.MP4</name>
						<enabled>TRUE</enabled>
						<duration>14095</duration>
						<rate>
							<timebase>25</timebase>
							<ntsc>FALSE</ntsc>
						</rate>
						<start>52275</start>
						<end>52427</end>
						<in>4872</in>
						<out>5024</out>
						<pproTicksIn>49502638080000</pproTicksIn>
						<pproTicksOut>51047055360000</pproTicksOut>
						<alphatype>black</alphatype>
						<pixelaspectratio>square</pixelaspectratio>
						<anamorphic>FALSE</anamorphic>
						<file id="file-245">
							<name>GOPR9301.MP4</name>
							<pathurl>file://localhost/Volumes/Vaagen/Prosjekter/DVNA210116_Horn%c3%b8ya_Nordvisjonen_010317_TGP/Bakomfilm/Robert%20Staven%20bakomfilm/GoProHero3Black/2015-07-04%20Hornoeya/GOPR9301.MP4</pathurl>
							<rate>
								<timebase>25</timebase>
								<ntsc>FALSE</ntsc>
							</rate>
							<duration>14095</duration>
							<timecode>
								<rate>
									<timebase>25</timebase>
									<ntsc>FALSE</ntsc>
								</rate>
								<string>00:00:00:00</string>
								<frame>0</frame>
								<displayformat>NDF</displayformat>
								<reel>
									<name></name>
								</reel>
							</timecode>
							<media>
								<video>
									<samplecharacteristics>
										<rate>
											<timebase>25</timebase>
											<ntsc>FALSE</ntsc>
										</rate>
										<width>1920</width>
										<height>1080</height>
										<anamorphic>FALSE</anamorphic>
										<pixelaspectratio>square</pixelaspectratio>
										<fielddominance>none</fielddominance>
									</samplecharacteristics>
								</video>
								<audio>
									<samplecharacteristics>
										<depth>16</depth>
										<samplerate>48000</samplerate>
									</samplecharacteristics>
									<channelcount>2</channelcount>
								</audio>
							</media>
						</file>
						<link>
							<linkclipref>clipitem-405</linkclipref>
							<mediatype>video</mediatype>
							<trackindex>2</trackindex>
							<clipindex>149</clipindex>
						</link>
						<link>
							<linkclipref>clipitem-794</linkclipref>
							<mediatype>audio</mediatype>
							<trackindex>8</trackindex>
							<clipindex>92</clipindex>
							<groupindex>1</groupindex>
						</link>
						<link>
							<linkclipref>clipitem-888</linkclipref>
							<mediatype>audio</mediatype>
							<trackindex>9</trackindex>
							<clipindex>90</clipindex>
							<groupindex>1</groupindex>
						</link>
						<logginginfo>
							<description></description>
							<scene></scene>
							<shottake></shottake>
							<lognote></lognote>
						</logginginfo>
						<labels>
							<label2>Iris</label2>
						</labels>
					</clipitem>
					<clipitem id="clipitem-406">
						<masterclipid>masterclip-205</masterclipid>
						<name>NRK1-210616.mxf</name>
						<enabled>TRUE</enabled>
						<duration>81914</duration>
						<rate>
							<timebase>25</timebase>
							<ntsc>FALSE</ntsc>
						</rate>
						<start>52427</start>
						<end>52602</end>
						<in>36223</in>
						<out>36398</out>
						<pproTicksIn>368048862720000</pproTicksIn>
						<pproTicksOut>369826974720000</pproTicksOut>
						<alphatype>none</alphatype>
						<file id="file-205"/>
						<link>
							<linkclipref>clipitem-406</linkclipref>
							<mediatype>video</mediatype>
							<trackindex>2</trackindex>
							<clipindex>150</clipindex>
						</link>
						<link>
							<linkclipref>clipitem-1001</linkclipref>
							<mediatype>audio</mediatype>
							<trackindex>10</trackindex>
							<clipindex>108</clipindex>
							<groupindex>1</groupindex>
						</link>
						<link>
							<linkclipref>clipitem-1138</linkclipref>
							<mediatype>audio</mediatype>
							<trackindex>11</trackindex>
							<clipindex>105</clipindex>
							<groupindex>1</groupindex>
						</link>
						<logginginfo>
							<description>DVNA20000616</description>
							<scene></scene>
							<shottake></shottake>
							<lognote></lognote>
						</logginginfo>
						<labels>
							<label2>Iris</label2>
						</labels>
					</clipitem>
					<clipitem id="clipitem-407">
						<masterclipid>masterclip-205</masterclipid>
						<name>NRK1-210616.mxf</name>
						<enabled>TRUE</enabled>
						<duration>81914</duration>
						<rate>
							<timebase>25</timebase>
							<ntsc>FALSE</ntsc>
						</rate>
						<start>52602</start>
						<end>52698</end>
						<in>36446</in>
						<out>36542</out>
						<pproTicksIn>370314685440000</pproTicksIn>
						<pproTicksOut>371290106880000</pproTicksOut>
						<alphatype>none</alphatype>
						<file id="file-205"/>
						<logginginfo>
							<description>DVNA20000616</description>
							<scene></scene>
							<shottake></shottake>
							<lognote></lognote>
						</logginginfo>
						<labels>
							<label2>Iris</label2>
						</labels>
					</clipitem>
					<clipitem id="clipitem-408">
						<masterclipid>masterclip-205</masterclipid>
						<name>NRK1-210616.mxf</name>
						<enabled>TRUE</enabled>
						<duration>81914</duration>
						<rate>
							<timebase>25</timebase>
							<ntsc>FALSE</ntsc>
						</rate>
						<start>52698</start>
						<end>52854</end>
						<in>36653</in>
						<out>36809</out>
						<pproTicksIn>372417937920000</pproTicksIn>
						<pproTicksOut>374002997760000</pproTicksOut>
						<alphatype>none</alphatype>
						<file id="file-205"/>
						<logginginfo>
							<description>DVNA20000616</description>
							<scene></scene>
							<shottake></shottake>
							<lognote></lognote>
						</logginginfo>
						<labels>
							<label2>Iris</label2>
						</labels>
					</clipitem>
					<clipitem id="clipitem-409">
						<masterclipid>masterclip-205</masterclipid>
						<name>NRK1-210616.mxf</name>
						<enabled>TRUE</enabled>
						<duration>81914</duration>
						<rate>
							<timebase>25</timebase>
							<ntsc>FALSE</ntsc>
						</rate>
						<start>52854</start>
						<end>-1</end>
						<in>36911</in>
						<out>37015</out>
						<pproTicksIn>375039383040000</pproTicksIn>
						<pproTicksOut>376096089600000</pproTicksOut>
						<alphatype>none</alphatype>
						<file id="file-205"/>
						<logginginfo>
							<description>DVNA20000616</description>
							<scene></scene>
							<shottake></shottake>
							<lognote></lognote>
						</logginginfo>
						<labels>
							<label2>Iris</label2>
						</labels>
					</clipitem>
					<transitionitem>
						<start>52941</start>
						<end>52958</end>
						<alignment>center</alignment>
						<cutPointTicks>81285120000</cutPointTicks>
						<rate>
							<timebase>25</timebase>
							<ntsc>FALSE</ntsc>
						</rate>
						<effect>
							<name>Cross Dissolve</name>
							<effectid>Cross Dissolve</effectid>
							<effectcategory>Dissolve</effectcategory>
							<effecttype>transition</effecttype>
							<mediatype>video</mediatype>
							<wipecode>0</wipecode>
							<wipeaccuracy>100</wipeaccuracy>
							<startratio>0</startratio>
							<endratio>1</endratio>
							<reverse>FALSE</reverse>
						</effect>
					</transitionitem>
					<clipitem id="clipitem-410">
						<masterclipid>masterclip-246</masterclipid>
						<name>NRK1-280616-CF.mxf</name>
						<enabled>TRUE</enabled>
						<duration>81975</duration>
						<rate>
							<timebase>25</timebase>
							<ntsc>FALSE</ntsc>
						</rate>
						<start>-1</start>
						<end>53307</end>
						<in>42292</in>
						<out>42658</out>
						<pproTicksIn>429713786880000</pproTicksIn>
						<pproTicksOut>433432581120000</pproTicksOut>
						<alphatype>none</alphatype>
						<pixelaspectratio>square</pixelaspectratio>
						<anamorphic>FALSE</anamorphic>
						<file id="file-246">
							<name>DVNA20000716AU.mxf</name>
							<pathurl>file://localhost/Volumes/Vaagen/Prosjekter/DVNA210116_Horn%c3%b8ya_Nordvisjonen_010317_TGP/NRK1sendinger/DVNA20000716AU.mxf</pathurl>
							<rate>
								<timebase>25</timebase>
								<ntsc>FALSE</ntsc>
							</rate>
							<duration>81975</duration>
							<timecode>
								<rate>
									<timebase>25</timebase>
									<ntsc>FALSE</ntsc>
								</rate>
								<string>19:29:34:07</string>
								<frame>1754357</frame>
								<displayformat>NDF</displayformat>
								<reel>
									<name></name>
								</reel>
							</timecode>
							<media>
								<video>
									<samplecharacteristics>
										<rate>
											<timebase>25</timebase>
											<ntsc>FALSE</ntsc>
										</rate>
										<width>1920</width>
										<height>1080</height>
										<anamorphic>FALSE</anamorphic>
										<pixelaspectratio>square</pixelaspectratio>
										<fielddominance>upper</fielddominance>
									</samplecharacteristics>
								</video>
								<audio>
									<samplecharacteristics>
										<depth>16</depth>
										<samplerate>48000</samplerate>
									</samplecharacteristics>
									<channelcount>2</channelcount>
								</audio>
								<audio>
									<samplecharacteristics>
										<depth>16</depth>
										<samplerate>48000</samplerate>
									</samplecharacteristics>
									<channelcount>2</channelcount>
								</audio>
								<audio>
									<samplecharacteristics>
										<depth>16</depth>
										<samplerate>48000</samplerate>
									</samplecharacteristics>
									<channelcount>2</channelcount>
								</audio>
								<audio>
									<samplecharacteristics>
										<depth>16</depth>
										<samplerate>48000</samplerate>
									</samplecharacteristics>
									<channelcount>2</channelcount>
								</audio>
							</media>
						</file>
						<logginginfo>
							<description>DVNA20000716</description>
							<scene></scene>
							<shottake></shottake>
							<lognote></lognote>
						</logginginfo>
						<labels>
							<label2>Iris</label2>
						</labels>
					</clipitem>
					<clipitem id="clipitem-411">
						<masterclipid>masterclip-246</masterclipid>
						<name>NRK1-280616-CF.mxf</name>
						<enabled>TRUE</enabled>
						<duration>81975</duration>
						<rate>
							<timebase>25</timebase>
							<ntsc>FALSE</ntsc>
						</rate>
						<start>53307</start>
						<end>53414</end>
						<in>42930</in>
						<out>43037</out>
						<pproTicksIn>436196275200000</pproTicksIn>
						<pproTicksOut>437283463680000</pproTicksOut>
						<alphatype>none</alphatype>
						<file id="file-246"/>
						<logginginfo>
							<description>DVNA20000716</description>
							<scene></scene>
							<shottake></shottake>
							<lognote></lognote>
						</logginginfo>
						<labels>
							<label2>Iris</label2>
						</labels>
					</clipitem>
					<clipitem id="clipitem-412">
						<masterclipid>masterclip-246</masterclipid>
						<name>NRK1-280616-CF.mxf</name>
						<enabled>TRUE</enabled>
						<duration>81975</duration>
						<rate>
							<timebase>25</timebase>
							<ntsc>FALSE</ntsc>
						</rate>
						<start>53414</start>
						<end>53647</end>
						<in>43140</in>
						<out>43373</out>
						<pproTicksIn>438330009600000</pproTicksIn>
						<pproTicksOut>440697438720000</pproTicksOut>
						<alphatype>none</alphatype>
						<file id="file-246"/>
						<logginginfo>
							<description>DVNA20000716</description>
							<scene></scene>
							<shottake></shottake>
							<lognote></lognote>
						</logginginfo>
						<labels>
							<label2>Iris</label2>
						</labels>
					</clipitem>
					<clipitem id="clipitem-413">
						<masterclipid>masterclip-246</masterclipid>
						<name>NRK1-280616-CF.mxf</name>
						<enabled>TRUE</enabled>
						<duration>81975</duration>
						<rate>
							<timebase>25</timebase>
							<ntsc>FALSE</ntsc>
						</rate>
						<start>53705</start>
						<end>53853</end>
						<in>45460</in>
						<out>45608</out>
						<pproTicksIn>461902694400000</pproTicksIn>
						<pproTicksOut>463406469120000</pproTicksOut>
						<alphatype>none</alphatype>
						<file id="file-246"/>
						<link>
							<linkclipref>clipitem-413</linkclipref>
							<mediatype>video</mediatype>
							<trackindex>2</trackindex>
							<clipindex>158</clipindex>
						</link>
						<link>
							<linkclipref>clipitem-1005</linkclipref>
							<mediatype>audio</mediatype>
							<trackindex>10</trackindex>
							<clipindex>112</clipindex>
							<groupindex>1</groupindex>
						</link>
						<logginginfo>
							<description>DVNA20000716</description>
							<scene></scene>
							<shottake></shottake>
							<lognote></lognote>
						</logginginfo>
						<labels>
							<label2>Iris</label2>
						</labels>
					</clipitem>
					<clipitem id="clipitem-414">
						<masterclipid>masterclip-246</masterclipid>
						<name>NRK1-280616-CF.mxf</name>
						<enabled>TRUE</enabled>
						<duration>81975</duration>
						<rate>
							<timebase>25</timebase>
							<ntsc>FALSE</ntsc>
						</rate>
						<start>53853</start>
						<end>53967</end>
						<in>45989</in>
						<out>46103</out>
						<pproTicksIn>467277672960000</pproTicksIn>
						<pproTicksOut>468435985920000</pproTicksOut>
						<alphatype>none</alphatype>
						<file id="file-246"/>
						<logginginfo>
							<description>DVNA20000716</description>
							<scene></scene>
							<shottake></shottake>
							<lognote></lognote>
						</logginginfo>
						<labels>
							<label2>Iris</label2>
						</labels>
					</clipitem>
					<clipitem id="clipitem-415">
						<masterclipid>masterclip-246</masterclipid>
						<name>NRK1-280616-CF.mxf</name>
						<enabled>TRUE</enabled>
						<duration>81975</duration>
						<rate>
							<timebase>25</timebase>
							<ntsc>FALSE</ntsc>
						</rate>
						<start>53967</start>
						<end>-1</end>
						<in>46183</in>
						<out>46357</out>
						<pproTicksIn>469248837120000</pproTicksIn>
						<pproTicksOut>471016788480000</pproTicksOut>
						<alphatype>none</alphatype>
						<file id="file-246"/>
						<logginginfo>
							<description>DVNA20000716</description>
							<scene></scene>
							<shottake></shottake>
							<lognote></lognote>
						</logginginfo>
						<labels>
							<label2>Iris</label2>
						</labels>
					</clipitem>
					<transitionitem>
						<start>54120</start>
						<end>54141</end>
						<alignment>center</alignment>
						<cutPointTicks>101606400000</cutPointTicks>
						<rate>
							<timebase>25</timebase>
							<ntsc>FALSE</ntsc>
						</rate>
						<effect>
							<name>Cross Dissolve</name>
							<effectid>Cross Dissolve</effectid>
							<effectcategory>Dissolve</effectcategory>
							<effecttype>transition</effecttype>
							<mediatype>video</mediatype>
							<wipecode>0</wipecode>
							<wipeaccuracy>100</wipeaccuracy>
							<startratio>0</startratio>
							<endratio>1</endratio>
							<reverse>FALSE</reverse>
						</effect>
					</transitionitem>
					<clipitem id="clipitem-416">
						<masterclipid>masterclip-102</masterclipid>
						<name>NRK2-180616.mxf</name>
						<enabled>TRUE</enabled>
						<duration>183000</duration>
						<rate>
							<timebase>25</timebase>
							<ntsc>FALSE</ntsc>
						</rate>
						<start>-1</start>
						<end>54559</end>
						<in>33115</in>
						<out>33554</out>
						<pproTicksIn>336469593600000</pproTicksIn>
						<pproTicksOut>340930114560000</pproTicksOut>
						<alphatype>none</alphatype>
						<file id="file-102"/>
						<link>
							<linkclipref>clipitem-416</linkclipref>
							<mediatype>video</mediatype>
							<trackindex>2</trackindex>
							<clipindex>162</clipindex>
						</link>
						<link>
							<linkclipref>clipitem-1009</linkclipref>
							<mediatype>audio</mediatype>
							<trackindex>10</trackindex>
							<clipindex>117</clipindex>
							<groupindex>1</groupindex>
						</link>
						<link>
							<linkclipref>clipitem-1145</linkclipref>
							<mediatype>audio</mediatype>
							<trackindex>11</trackindex>
							<clipindex>113</clipindex>
							<groupindex>1</groupindex>
						</link>
						<logginginfo>
							<description>Program 5</description>
							<scene></scene>
							<shottake></shottake>
							<lognote></lognote>
						</logginginfo>
						<labels>
							<label2>Iris</label2>
						</labels>
					</clipitem>
					<clipitem id="clipitem-417">
						<masterclipid>masterclip-110</masterclipid>
						<name>NRK2-250616.mxf</name>
						<enabled>TRUE</enabled>
						<duration>186000</duration>
						<rate>
							<timebase>25</timebase>
							<ntsc>FALSE</ntsc>
						</rate>
						<start>54559</start>
						<end>54804</end>
						<in>50899</in>
						<out>51144</out>
						<pproTicksIn>517166415360000</pproTicksIn>
						<pproTicksOut>519655772160000</pproTicksOut>
						<alphatype>none</alphatype>
						<file id="file-110"/>
						<link>
							<linkclipref>clipitem-417</linkclipref>
							<mediatype>video</mediatype>
							<trackindex>2</trackindex>
							<clipindex>163</clipindex>
						</link>
						<link>
							<linkclipref>clipitem-1011</linkclipref>
							<mediatype>audio</mediatype>
							<trackindex>10</trackindex>
							<clipindex>119</clipindex>
							<groupindex>1</groupindex>
						</link>
						<link>
							<linkclipref>clipitem-1147</linkclipref>
							<mediatype>audio</mediatype>
							<trackindex>11</trackindex>
							<clipindex>115</clipindex>
							<groupindex>1</groupindex>
						</link>
						<logginginfo>
							<description>Program 10</description>
							<scene></scene>
							<shottake></shottake>
							<lognote></lognote>
						</logginginfo>
						<labels>
							<label2>Iris</label2>
						</labels>
					</clipitem>
					<clipitem id="clipitem-418">
						<masterclipid>masterclip-115</masterclipid>
						<name>ENG19-2771.MXF</name>
						<enabled>TRUE</enabled>
						<duration>975</duration>
						<rate>
							<timebase>25</timebase>
							<ntsc>FALSE</ntsc>
						</rate>
						<start>54804</start>
						<end>54911</end>
						<in>200</in>
						<out>307</out>
						<pproTicksIn>2032128000000</pproTicksIn>
						<pproTicksOut>3119316480000</pproTicksOut>
						<alphatype>none</alphatype>
						<file id="file-115"/>
						<logginginfo>
							<description></description>
							<scene></scene>
							<shottake></shottake>
							<lognote></lognote>
						</logginginfo>
						<labels>
							<label2>Iris</label2>
						</labels>
					</clipitem>
					<clipitem id="clipitem-419">
						<masterclipid>masterclip-203</masterclipid>
						<name>ENG19-2785.MXF</name>
						<enabled>TRUE</enabled>
						<duration>539</duration>
						<rate>
							<timebase>25</timebase>
							<ntsc>FALSE</ntsc>
						</rate>
						<start>55204</start>
						<end>55260</end>
						<in>247</in>
						<out>303</out>
						<pproTicksIn>2509678080000</pproTicksIn>
						<pproTicksOut>3078673920000</pproTicksOut>
						<alphatype>none</alphatype>
						<file id="file-203"/>
						<logginginfo>
							<description></description>
							<scene></scene>
							<shottake></shottake>
							<lognote></lognote>
						</logginginfo>
						<labels>
							<label2>Iris</label2>
						</labels>
					</clipitem>
					<clipitem id="clipitem-420">
						<masterclipid>masterclip-247</masterclipid>
						<name>NRK2-220616.mxf</name>
						<enabled>TRUE</enabled>
						<duration>183000</duration>
						<rate>
							<timebase>25</timebase>
							<ntsc>FALSE</ntsc>
						</rate>
						<start>55371</start>
						<end>55451</end>
						<in>110060</in>
						<out>110140</out>
						<pproTicksIn>1118280038400000</pproTicksIn>
						<pproTicksOut>1119092889600000</pproTicksOut>
						<alphatype>none</alphatype>
						<pixelaspectratio>square</pixelaspectratio>
						<anamorphic>FALSE</anamorphic>
						<file id="file-247">
							<name>DVNA25000716AU.mxf</name>
							<pathurl>file://localhost/Volumes/Vaagen/Prosjekter/DVNA210116_Horn%c3%b8ya_Nordvisjonen_010317_TGP/Horn%c3%b8ya%20Trond/NRK2sendinger/DVNA25000716AU.mxf</pathurl>
							<rate>
								<timebase>25</timebase>
								<ntsc>FALSE</ntsc>
							</rate>
							<duration>183000</duration>
							<timecode>
								<rate>
									<timebase>25</timebase>
									<ntsc>FALSE</ntsc>
								</rate>
								<string>21:59:00:00</string>
								<frame>1978500</frame>
								<displayformat>NDF</displayformat>
								<reel>
									<name></name>
								</reel>
							</timecode>
							<media>
								<video>
									<samplecharacteristics>
										<rate>
											<timebase>25</timebase>
											<ntsc>FALSE</ntsc>
										</rate>
										<width>1920</width>
										<height>1080</height>
										<anamorphic>FALSE</anamorphic>
										<pixelaspectratio>square</pixelaspectratio>
										<fielddominance>upper</fielddominance>
									</samplecharacteristics>
								</video>
								<audio>
									<samplecharacteristics>
										<depth>16</depth>
										<samplerate>48000</samplerate>
									</samplecharacteristics>
									<channelcount>8</channelcount>
								</audio>
							</media>
						</file>
						<logginginfo>
							<description>Program 7</description>
							<scene></scene>
							<shottake></shottake>
							<lognote></lognote>
						</logginginfo>
						<labels>
							<label2>Iris</label2>
						</labels>
					</clipitem>
					<clipitem id="clipitem-421">
						<masterclipid>masterclip-247</masterclipid>
						<name>NRK2-220616.mxf</name>
						<enabled>TRUE</enabled>
						<duration>183000</duration>
						<rate>
							<timebase>25</timebase>
							<ntsc>FALSE</ntsc>
						</rate>
						<start>55451</start>
						<end>55542</end>
						<in>110416</in>
						<out>110507</out>
						<pproTicksIn>1121897226240000</pproTicksIn>
						<pproTicksOut>1122821844480000</pproTicksOut>
						<alphatype>none</alphatype>
						<file id="file-247"/>
						<logginginfo>
							<description>Program 7</description>
							<scene></scene>
							<shottake></shottake>
							<lognote></lognote>
						</logginginfo>
						<labels>
							<label2>Iris</label2>
						</labels>
					</clipitem>
					<clipitem id="clipitem-422">
						<masterclipid>masterclip-248</masterclipid>
						<name>NRK2-290616.mxf</name>
						<enabled>TRUE</enabled>
						<duration>183000</duration>
						<rate>
							<timebase>25</timebase>
							<ntsc>FALSE</ntsc>
						</rate>
						<start>55542</start>
						<end>55689</end>
						<in>119909</in>
						<out>120056</out>
						<pproTicksIn>1218352181760000</pproTicksIn>
						<pproTicksOut>1219845795840000</pproTicksOut>
						<alphatype>none</alphatype>
						<pixelaspectratio>square</pixelaspectratio>
						<anamorphic>FALSE</anamorphic>
						<file id="file-248">
							<name>DVNA25001216AU.mxf</name>
							<pathurl>file://localhost/Volumes/Vaagen/Prosjekter/DVNA210116_Horn%c3%b8ya_Nordvisjonen_010317_TGP/Horn%c3%b8ya%20Trond/NRK2sendinger/DVNA25001216AU.mxf</pathurl>
							<rate>
								<timebase>25</timebase>
								<ntsc>FALSE</ntsc>
							</rate>
							<duration>183000</duration>
							<timecode>
								<rate>
									<timebase>25</timebase>
									<ntsc>FALSE</ntsc>
								</rate>
								<string>21:59:00:00</string>
								<frame>1978500</frame>
								<displayformat>NDF</displayformat>
								<reel>
									<name></name>
								</reel>
							</timecode>
							<media>
								<video>
									<samplecharacteristics>
										<rate>
											<timebase>25</timebase>
											<ntsc>FALSE</ntsc>
										</rate>
										<width>1920</width>
										<height>1080</height>
										<anamorphic>FALSE</anamorphic>
										<pixelaspectratio>square</pixelaspectratio>
										<fielddominance>upper</fielddominance>
									</samplecharacteristics>
								</video>
								<audio>
									<samplecharacteristics>
										<depth>16</depth>
										<samplerate>48000</samplerate>
									</samplecharacteristics>
									<channelcount>2</channelcount>
								</audio>
								<audio>
									<samplecharacteristics>
										<depth>16</depth>
										<samplerate>48000</samplerate>
									</samplecharacteristics>
									<channelcount>2</channelcount>
								</audio>
								<audio>
									<samplecharacteristics>
										<depth>16</depth>
										<samplerate>48000</samplerate>
									</samplecharacteristics>
									<channelcount>2</channelcount>
								</audio>
							</media>
						</file>
						<logginginfo>
							<description>Program 12</description>
							<scene></scene>
							<shottake></shottake>
							<lognote></lognote>
						</logginginfo>
						<labels>
							<label2>Iris</label2>
						</labels>
					</clipitem>
					<clipitem id="clipitem-423">
						<masterclipid>masterclip-12</masterclipid>
						<name>NRK2-300616 (1).mxf</name>
						<enabled>TRUE</enabled>
						<duration>183000</duration>
						<rate>
							<timebase>25</timebase>
							<ntsc>FALSE</ntsc>
						</rate>
						<start>55923</start>
						<end>56162</end>
						<in>45390</in>
						<out>45629</out>
						<pproTicksIn>461191449600000</pproTicksIn>
						<pproTicksOut>463619842560000</pproTicksOut>
						<alphatype>none</alphatype>
						<file id="file-12"/>
						<link>
							<linkclipref>clipitem-423</linkclipref>
							<mediatype>video</mediatype>
							<trackindex>2</trackindex>
							<clipindex>169</clipindex>
						</link>
						<link>
							<linkclipref>clipitem-1014</linkclipref>
							<mediatype>audio</mediatype>
							<trackindex>10</trackindex>
							<clipindex>124</clipindex>
							<groupindex>1</groupindex>
						</link>
						<link>
							<linkclipref>clipitem-1150</linkclipref>
							<mediatype>audio</mediatype>
							<trackindex>11</trackindex>
							<clipindex>120</clipindex>
							<groupindex>1</groupindex>
						</link>
						<logginginfo>
							<description>Program 13</description>
							<scene></scene>
							<shottake></shottake>
							<lognote></lognote>
						</logginginfo>
						<labels>
							<label2>Iris</label2>
						</labels>
					</clipitem>
					<clipitem id="clipitem-424">
						<masterclipid>masterclip-12</masterclipid>
						<name>NRK2-300616 (1).mxf</name>
						<enabled>TRUE</enabled>
						<duration>183000</duration>
						<rate>
							<timebase>25</timebase>
							<ntsc>FALSE</ntsc>
						</rate>
						<start>57002</start>
						<end>57484</end>
						<in>45889</in>
						<out>46371</out>
						<pproTicksIn>466261608960000</pproTicksIn>
						<pproTicksOut>471159037440000</pproTicksOut>
						<alphatype>none</alphatype>
						<file id="file-12"/>
						<logginginfo>
							<description>Program 13</description>
							<scene></scene>
							<shottake></shottake>
							<lognote></lognote>
						</logginginfo>
						<labels>
							<label2>Iris</label2>
						</labels>
					</clipitem>
					<clipitem id="clipitem-425">
						<masterclipid>masterclip-219</masterclipid>
						<name>620_0752.MXF</name>
						<enabled>TRUE</enabled>
						<duration>2631</duration>
						<rate>
							<timebase>25</timebase>
							<ntsc>FALSE</ntsc>
						</rate>
						<start>57720</start>
						<end>57824</end>
						<in>2323</in>
						<out>2427</out>
						<pproTicksIn>23603166720000</pproTicksIn>
						<pproTicksOut>24659873280000</pproTicksOut>
						<alphatype>none</alphatype>
						<file id="file-219"/>
						<logginginfo>
							<description></description>
							<scene></scene>
							<shottake></shottake>
							<lognote></lognote>
						</logginginfo>
						<labels>
							<label2>Iris</label2>
						</labels>
					</clipitem>
					<clipitem id="clipitem-426">
						<masterclipid>masterclip-12</masterclipid>
						<name>NRK2-300616 (1).mxf</name>
						<enabled>TRUE</enabled>
						<duration>183000</duration>
						<rate>
							<timebase>25</timebase>
							<ntsc>FALSE</ntsc>
						</rate>
						<start>57824</start>
						<end>57920</end>
						<in>46506</in>
						<out>46602</out>
						<pproTicksIn>472530723840000</pproTicksIn>
						<pproTicksOut>473506145280000</pproTicksOut>
						<alphatype>none</alphatype>
						<file id="file-12"/>
						<logginginfo>
							<description>Program 13</description>
							<scene></scene>
							<shottake></shottake>
							<lognote></lognote>
						</logginginfo>
						<labels>
							<label2>Iris</label2>
						</labels>
					</clipitem>
					<clipitem id="clipitem-427">
						<masterclipid>masterclip-249</masterclipid>
						<name>NRK2-090716.mxf</name>
						<enabled>TRUE</enabled>
						<duration>183000</duration>
						<rate>
							<timebase>25</timebase>
							<ntsc>FALSE</ntsc>
						</rate>
						<start>57920</start>
						<end>58603</end>
						<in>81070</in>
						<out>81753</out>
						<pproTicksIn>823723084800000</pproTicksIn>
						<pproTicksOut>830662801920000</pproTicksOut>
						<alphatype>none</alphatype>
						<pixelaspectratio>square</pixelaspectratio>
						<anamorphic>FALSE</anamorphic>
						<file id="file-249">
							<name>DVNA25002016AU.mxf</name>
							<pathurl>file://localhost/Volumes/Vaagen/Prosjekter/DVNA210116_Horn%c3%b8ya_Nordvisjonen_010317_TGP/Horn%c3%b8ya%20Trond/NRK2sendinger/DVNA25002016AU.mxf</pathurl>
							<rate>
								<timebase>25</timebase>
								<ntsc>FALSE</ntsc>
							</rate>
							<duration>183000</duration>
							<timecode>
								<rate>
									<timebase>25</timebase>
									<ntsc>FALSE</ntsc>
								</rate>
								<string>21:59:00:00</string>
								<frame>1978500</frame>
								<displayformat>NDF</displayformat>
								<reel>
									<name></name>
								</reel>
							</timecode>
							<media>
								<video>
									<samplecharacteristics>
										<rate>
											<timebase>25</timebase>
											<ntsc>FALSE</ntsc>
										</rate>
										<width>1920</width>
										<height>1080</height>
										<anamorphic>FALSE</anamorphic>
										<pixelaspectratio>square</pixelaspectratio>
										<fielddominance>upper</fielddominance>
									</samplecharacteristics>
								</video>
								<audio>
									<samplecharacteristics>
										<depth>16</depth>
										<samplerate>48000</samplerate>
									</samplecharacteristics>
									<channelcount>8</channelcount>
								</audio>
							</media>
						</file>
						<link>
							<linkclipref>clipitem-427</linkclipref>
							<mediatype>video</mediatype>
							<trackindex>2</trackindex>
							<clipindex>173</clipindex>
						</link>
						<link>
							<linkclipref>clipitem-1017</linkclipref>
							<mediatype>audio</mediatype>
							<trackindex>10</trackindex>
							<clipindex>127</clipindex>
							<groupindex>1</groupindex>
						</link>
						<link>
							<linkclipref>clipitem-1153</linkclipref>
							<mediatype>audio</mediatype>
							<trackindex>11</trackindex>
							<clipindex>123</clipindex>
							<groupindex>1</groupindex>
						</link>
						<logginginfo>
							<description>Program 20</description>
							<scene></scene>
							<shottake></shottake>
							<lognote></lognote>
						</logginginfo>
						<labels>
							<label2>Iris</label2>
						</labels>
					</clipitem>
					<clipitem id="clipitem-428">
						<masterclipid>masterclip-250</masterclipid>
						<name>05.mov</name>
						<enabled>TRUE</enabled>
						<duration>101</duration>
						<rate>
							<timebase>25</timebase>
							<ntsc>FALSE</ntsc>
						</rate>
						<start>58869</start>
						<end>58934</end>
						<in>0</in>
						<out>65</out>
						<pproTicksIn>0</pproTicksIn>
						<pproTicksOut>660441600000</pproTicksOut>
						<alphatype>none</alphatype>
						<pixelaspectratio>square</pixelaspectratio>
						<anamorphic>FALSE</anamorphic>
						<file id="file-250">
							<name>05.mov.mxf</name>
							<pathurl>file://localhost/Volumes/Svartediket/FCPutveksling/NATUR/_UIN-NY_GRAFIKK2015_PremierePro-mal/Rastoff/05.mov.mxf</pathurl>
							<rate>
								<timebase>25</timebase>
								<ntsc>FALSE</ntsc>
							</rate>
							<duration>101</duration>
							<timecode>
								<rate>
									<timebase>25</timebase>
									<ntsc>FALSE</ntsc>
								</rate>
								<string>00:00:00:00</string>
								<frame>0</frame>
								<displayformat>NDF</displayformat>
								<reel>
									<name></name>
								</reel>
							</timecode>
							<media>
								<video>
									<samplecharacteristics>
										<rate>
											<timebase>25</timebase>
											<ntsc>FALSE</ntsc>
										</rate>
										<width>1920</width>
										<height>1080</height>
										<anamorphic>FALSE</anamorphic>
										<pixelaspectratio>square</pixelaspectratio>
										<fielddominance>none</fielddominance>
									</samplecharacteristics>
								</video>
							</media>
						</file>
						<logginginfo>
							<description></description>
							<scene></scene>
							<shottake></shottake>
							<lognote></lognote>
						</logginginfo>
						<labels>
							<label2>Iris</label2>
						</labels>
					</clipitem>
					<clipitem id="clipitem-429">
						<masterclipid>masterclip-251</masterclipid>
						<name>04_1.mov</name>
						<enabled>TRUE</enabled>
						<duration>126</duration>
						<rate>
							<timebase>25</timebase>
							<ntsc>FALSE</ntsc>
						</rate>
						<start>59891</start>
						<end>59961</end>
						<in>0</in>
						<out>70</out>
						<pproTicksIn>0</pproTicksIn>
						<pproTicksOut>711244800000</pproTicksOut>
						<alphatype>none</alphatype>
						<pixelaspectratio>square</pixelaspectratio>
						<anamorphic>FALSE</anamorphic>
						<file id="file-251">
							<name>04_1.mov.mxf</name>
							<pathurl>file://localhost/Volumes/Svartediket/FCPutveksling/NATUR/_UIN-NY_GRAFIKK2015_PremierePro-mal/Rastoff/04_1.mov.mxf</pathurl>
							<rate>
								<timebase>25</timebase>
								<ntsc>FALSE</ntsc>
							</rate>
							<duration>126</duration>
							<timecode>
								<rate>
									<timebase>25</timebase>
									<ntsc>FALSE</ntsc>
								</rate>
								<string>00:00:00:00</string>
								<frame>0</frame>
								<displayformat>NDF</displayformat>
								<reel>
									<name></name>
								</reel>
							</timecode>
							<media>
								<video>
									<samplecharacteristics>
										<rate>
											<timebase>25</timebase>
											<ntsc>FALSE</ntsc>
										</rate>
										<width>1920</width>
										<height>1080</height>
										<anamorphic>FALSE</anamorphic>
										<pixelaspectratio>square</pixelaspectratio>
										<fielddominance>none</fielddominance>
									</samplecharacteristics>
								</video>
							</media>
						</file>
						<logginginfo>
							<description></description>
							<scene></scene>
							<shottake></shottake>
							<lognote></lognote>
						</logginginfo>
						<labels>
							<label2>Iris</label2>
						</labels>
					</clipitem>
					<clipitem id="clipitem-430">
						<masterclipid>masterclip-252</masterclipid>
						<name>03.mov</name>
						<enabled>TRUE</enabled>
						<duration>126</duration>
						<rate>
							<timebase>25</timebase>
							<ntsc>FALSE</ntsc>
						</rate>
						<start>60908</start>
						<end>60973</end>
						<in>0</in>
						<out>65</out>
						<pproTicksIn>0</pproTicksIn>
						<pproTicksOut>660441600000</pproTicksOut>
						<alphatype>none</alphatype>
						<pixelaspectratio>square</pixelaspectratio>
						<anamorphic>FALSE</anamorphic>
						<file id="file-252">
							<name>03.mov.mxf</name>
							<pathurl>file://localhost/Volumes/Svartediket/FCPutveksling/NATUR/_UIN-NY_GRAFIKK2015_PremierePro-mal/Rastoff/03.mov.mxf</pathurl>
							<rate>
								<timebase>25</timebase>
								<ntsc>FALSE</ntsc>
							</rate>
							<duration>126</duration>
							<timecode>
								<rate>
									<timebase>25</timebase>
									<ntsc>FALSE</ntsc>
								</rate>
								<string>00:00:00:00</string>
								<frame>0</frame>
								<displayformat>NDF</displayformat>
								<reel>
									<name></name>
								</reel>
							</timecode>
							<media>
								<video>
									<samplecharacteristics>
										<rate>
											<timebase>25</timebase>
											<ntsc>FALSE</ntsc>
										</rate>
										<width>1920</width>
										<height>1080</height>
										<anamorphic>FALSE</anamorphic>
										<pixelaspectratio>square</pixelaspectratio>
										<fielddominance>none</fielddominance>
									</samplecharacteristics>
								</video>
							</media>
						</file>
						<logginginfo>
							<description></description>
							<scene></scene>
							<shottake></shottake>
							<lognote></lognote>
						</logginginfo>
						<labels>
							<label2>Iris</label2>
						</labels>
					</clipitem>
					<clipitem id="clipitem-431">
						<masterclipid>masterclip-253</masterclipid>
						<name>02.mov.mxf</name>
						<enabled>TRUE</enabled>
						<duration>126</duration>
						<rate>
							<timebase>25</timebase>
							<ntsc>FALSE</ntsc>
						</rate>
						<start>62320</start>
						<end>62391</end>
						<in>0</in>
						<out>71</out>
						<pproTicksIn>0</pproTicksIn>
						<pproTicksOut>721405440000</pproTicksOut>
						<alphatype>none</alphatype>
						<pixelaspectratio>square</pixelaspectratio>
						<anamorphic>FALSE</anamorphic>
						<file id="file-253">
							<name>02.mov.mxf</name>
							<pathurl>file://localhost/Volumes/Svartediket/FCPutveksling/NATUR/_UIN-NY_GRAFIKK2015_PremierePro-mal/Rastoff/02.mov.mxf</pathurl>
							<rate>
								<timebase>25</timebase>
								<ntsc>FALSE</ntsc>
							</rate>
							<duration>126</duration>
							<timecode>
								<rate>
									<timebase>25</timebase>
									<ntsc>FALSE</ntsc>
								</rate>
								<string>00:00:00:00</string>
								<frame>0</frame>
								<displayformat>NDF</displayformat>
								<reel>
									<name></name>
								</reel>
							</timecode>
							<media>
								<video>
									<samplecharacteristics>
										<rate>
											<timebase>25</timebase>
											<ntsc>FALSE</ntsc>
										</rate>
										<width>1920</width>
										<height>1080</height>
										<anamorphic>FALSE</anamorphic>
										<pixelaspectratio>square</pixelaspectratio>
										<fielddominance>none</fielddominance>
									</samplecharacteristics>
								</video>
							</media>
						</file>
						<logginginfo>
							<description></description>
							<scene></scene>
							<shottake></shottake>
							<lognote></lognote>
						</logginginfo>
						<labels>
							<label2>Iris</label2>
						</labels>
					</clipitem>
					<clipitem id="clipitem-432">
						<masterclipid>masterclip-254</masterclipid>
						<name>AA282401.MXF</name>
						<enabled>TRUE</enabled>
						<duration>456</duration>
						<rate>
							<timebase>25</timebase>
							<ntsc>FALSE</ntsc>
						</rate>
						<start>64298</start>
						<end>64372</end>
						<in>61</in>
						<out>135</out>
						<pproTicksIn>619799040000</pproTicksIn>
						<pproTicksOut>1371686400000</pproTicksOut>
						<alphatype>none</alphatype>
						<pixelaspectratio>square</pixelaspectratio>
						<anamorphic>FALSE</anamorphic>
						<file id="file-254">
							<name>AA282401.MXF</name>
							<pathurl>file://localhost/Volumes/Vaagen/Utveksling/Natur/Naturlig%20helaften%20fra%20Oslo/Copied_Copy%20of%20En%20Helaften%20MASTER_001/AA282401.MXF</pathurl>
							<rate>
								<timebase>25</timebase>
								<ntsc>FALSE</ntsc>
							</rate>
							<duration>456</duration>
							<timecode>
								<rate>
									<timebase>25</timebase>
									<ntsc>FALSE</ntsc>
								</rate>
								<string>09:26:16:04</string>
								<frame>849404</frame>
								<displayformat>NDF</displayformat>
								<reel>
									<name></name>
								</reel>
							</timecode>
							<media>
								<video>
									<samplecharacteristics>
										<rate>
											<timebase>25</timebase>
											<ntsc>FALSE</ntsc>
										</rate>
										<width>1920</width>
										<height>1080</height>
										<anamorphic>FALSE</anamorphic>
										<pixelaspectratio>square</pixelaspectratio>
										<fielddominance>none</fielddominance>
									</samplecharacteristics>
								</video>
								<audio>
									<samplecharacteristics>
										<depth>16</depth>
										<samplerate>48000</samplerate>
									</samplecharacteristics>
									<channelcount>2</channelcount>
								</audio>
							</media>
						</file>
						<logginginfo>
							<description></description>
							<scene></scene>
							<shottake></shottake>
							<lognote></lognote>
						</logginginfo>
						<labels>
							<label2>Iris</label2>
						</labels>
					</clipitem>
					<clipitem id="clipitem-433">
						<masterclipid>masterclip-255</masterclipid>
						<name>AA282101.MXF</name>
						<enabled>TRUE</enabled>
						<duration>3708</duration>
						<rate>
							<timebase>25</timebase>
							<ntsc>FALSE</ntsc>
						</rate>
						<start>64836</start>
						<end>64892</end>
						<in>2079</in>
						<out>2135</out>
						<pproTicksIn>21123970560000</pproTicksIn>
						<pproTicksOut>21692966400000</pproTicksOut>
						<alphatype>none</alphatype>
						<pixelaspectratio>square</pixelaspectratio>
						<anamorphic>FALSE</anamorphic>
						<file id="file-255">
							<name>AA282101.MXF</name>
							<pathurl>file://localhost/Volumes/Vaagen/Utveksling/Natur/Naturlig%20helaften%20fra%20Oslo/Copied_Copy%20of%20En%20Helaften%20MASTER_001/AA282101.MXF</pathurl>
							<rate>
								<timebase>25</timebase>
								<ntsc>FALSE</ntsc>
							</rate>
							<duration>3708</duration>
							<timecode>
								<rate>
									<timebase>25</timebase>
									<ntsc>FALSE</ntsc>
								</rate>
								<string>09:18:21:08</string>
								<frame>837533</frame>
								<displayformat>NDF</displayformat>
								<reel>
									<name></name>
								</reel>
							</timecode>
							<media>
								<video>
									<samplecharacteristics>
										<rate>
											<timebase>25</timebase>
											<ntsc>FALSE</ntsc>
										</rate>
										<width>1920</width>
										<height>1080</height>
										<anamorphic>FALSE</anamorphic>
										<pixelaspectratio>square</pixelaspectratio>
										<fielddominance>none</fielddominance>
									</samplecharacteristics>
								</video>
								<audio>
									<samplecharacteristics>
										<depth>16</depth>
										<samplerate>48000</samplerate>
									</samplecharacteristics>
									<channelcount>2</channelcount>
								</audio>
							</media>
						</file>
						<link>
							<linkclipref>clipitem-433</linkclipref>
							<mediatype>video</mediatype>
							<trackindex>2</trackindex>
							<clipindex>179</clipindex>
						</link>
						<link>
							<linkclipref>clipitem-806</linkclipref>
							<mediatype>audio</mediatype>
							<trackindex>8</trackindex>
							<clipindex>106</clipindex>
							<groupindex>1</groupindex>
						</link>
						<link>
							<linkclipref>clipitem-900</linkclipref>
							<mediatype>audio</mediatype>
							<trackindex>9</trackindex>
							<clipindex>104</clipindex>
							<groupindex>1</groupindex>
						</link>
						<link>
							<linkclipref>clipitem-1247</linkclipref>
							<mediatype>audio</mediatype>
							<trackindex>12</trackindex>
							<clipindex>89</clipindex>
							<groupindex>1</groupindex>
						</link>
						<link>
							<linkclipref>clipitem-1332</linkclipref>
							<mediatype>audio</mediatype>
							<trackindex>13</trackindex>
							<clipindex>89</clipindex>
							<groupindex>1</groupindex>
						</link>
						<logginginfo>
							<description></description>
							<scene></scene>
							<shottake></shottake>
							<lognote></lognote>
						</logginginfo>
						<labels>
							<label2>Iris</label2>
						</labels>
					</clipitem>
					<enabled>TRUE</enabled>
					<locked>FALSE</locked>
				</track>
				<track TL.SQTrackShy="0" TL.SQTrackExpandedHeight="52" TL.SQTrackExpanded="1" MZ.TrackTargeted="0">
					<clipitem id="clipitem-434">
						<masterclipid>masterclip-256</masterclipid>
						<name>Skagastølstind.mov</name>
						<enabled>TRUE</enabled>
						<duration>151</duration>
						<rate>
							<timebase>25</timebase>
							<ntsc>FALSE</ntsc>
						</rate>
						<start>453</start>
						<end>557</end>
						<in>0</in>
						<out>104</out>
						<pproTicksIn>0</pproTicksIn>
						<pproTicksOut>1056706560000</pproTicksOut>
						<alphatype>none</alphatype>
						<pixelaspectratio>square</pixelaspectratio>
						<anamorphic>FALSE</anamorphic>
						<file id="file-256">
							<name>Skagastølstind.mov.mxf</name>
							<pathurl>file://localhost/Volumes/Svartediket/FCPutveksling/NATUR/_UIN-NY_GRAFIKK2015_PremierePro-mal/Rastoff/Skagast%c3%b8lstind.mov.mxf</pathurl>
							<rate>
								<timebase>25</timebase>
								<ntsc>FALSE</ntsc>
							</rate>
							<duration>151</duration>
							<timecode>
								<rate>
									<timebase>25</timebase>
									<ntsc>FALSE</ntsc>
								</rate>
								<string>00:00:00:00</string>
								<frame>0</frame>
								<displayformat>NDF</displayformat>
								<reel>
									<name></name>
								</reel>
							</timecode>
							<media>
								<video>
									<samplecharacteristics>
										<rate>
											<timebase>25</timebase>
											<ntsc>FALSE</ntsc>
										</rate>
										<width>1920</width>
										<height>1080</height>
										<anamorphic>FALSE</anamorphic>
										<pixelaspectratio>square</pixelaspectratio>
										<fielddominance>none</fielddominance>
									</samplecharacteristics>
								</video>
							</media>
						</file>
						<logginginfo>
							<description></description>
							<scene></scene>
							<shottake></shottake>
							<lognote></lognote>
						</logginginfo>
						<labels>
							<label2>Iris</label2>
						</labels>
					</clipitem>
					<clipitem id="clipitem-435">
						<masterclipid>masterclip-14</masterclipid>
						<name>dvna60001113b-p01-211116r</name>
						<enabled>TRUE</enabled>
						<duration>2868</duration>
						<rate>
							<timebase>25</timebase>
							<ntsc>FALSE</ntsc>
						</rate>
						<start>2088</start>
						<end>2211</end>
						<in>1992</in>
						<out>2115</out>
						<pproTicksIn>20239994880000</pproTicksIn>
						<pproTicksOut>21489753600000</pproTicksOut>
						<alphatype>none</alphatype>
						<file id="file-14"/>
						<link>
							<linkclipref>clipitem-435</linkclipref>
							<mediatype>video</mediatype>
							<trackindex>3</trackindex>
							<clipindex>2</clipindex>
						</link>
						<link>
							<linkclipref>clipitem-1188</linkclipref>
							<mediatype>audio</mediatype>
							<trackindex>12</trackindex>
							<clipindex>4</clipindex>
							<groupindex>1</groupindex>
						</link>
						<link>
							<linkclipref>clipitem-1273</linkclipref>
							<mediatype>audio</mediatype>
							<trackindex>13</trackindex>
							<clipindex>4</clipindex>
							<groupindex>1</groupindex>
						</link>
						<logginginfo>
							<description>dvna60001113b-p01-211116r</description>
							<scene></scene>
							<shottake></shottake>
							<lognote></lognote>
						</logginginfo>
						<labels>
							<label2>Iris</label2>
						</labels>
					</clipitem>
					<clipitem id="clipitem-436">
						<masterclipid>masterclip-257</masterclipid>
						<name>AA263901.MXF</name>
						<enabled>TRUE</enabled>
						<duration>1788</duration>
						<rate>
							<timebase>25</timebase>
							<ntsc>FALSE</ntsc>
						</rate>
						<start>6181</start>
						<end>6264</end>
						<in>1553</in>
						<out>1636</out>
						<pproTicksIn>15779473920000</pproTicksIn>
						<pproTicksOut>16622807040000</pproTicksOut>
						<alphatype>none</alphatype>
						<pixelaspectratio>square</pixelaspectratio>
						<anamorphic>FALSE</anamorphic>
						<file id="file-257">
							<name>AA263901.MXF</name>
							<pathurl>file://localhost/Volumes/Vaagen/Utveksling/Natur/Naturlig%20helaften%20fra%20Oslo/Copied_Copy%20of%20En%20Helaften%20MASTER_003/AA263901.MXF</pathurl>
							<rate>
								<timebase>25</timebase>
								<ntsc>FALSE</ntsc>
							</rate>
							<duration>1788</duration>
							<timecode>
								<rate>
									<timebase>25</timebase>
									<ntsc>FALSE</ntsc>
								</rate>
								<string>15:00:15:07</string>
								<frame>1350382</frame>
								<displayformat>NDF</displayformat>
								<reel>
									<name></name>
								</reel>
							</timecode>
							<media>
								<video>
									<samplecharacteristics>
										<rate>
											<timebase>25</timebase>
											<ntsc>FALSE</ntsc>
										</rate>
										<width>1920</width>
										<height>1080</height>
										<anamorphic>FALSE</anamorphic>
										<pixelaspectratio>square</pixelaspectratio>
										<fielddominance>none</fielddominance>
									</samplecharacteristics>
								</video>
								<audio>
									<samplecharacteristics>
										<depth>16</depth>
										<samplerate>48000</samplerate>
									</samplecharacteristics>
									<channelcount>2</channelcount>
								</audio>
							</media>
						</file>
						<logginginfo>
							<description></description>
							<scene></scene>
							<shottake></shottake>
							<lognote></lognote>
						</logginginfo>
						<labels>
							<label2>Iris</label2>
						</labels>
					</clipitem>
					<clipitem id="clipitem-437">
						<masterclipid>masterclip-180</masterclipid>
						<name>AA259801.MXF</name>
						<enabled>TRUE</enabled>
						<duration>1752</duration>
						<rate>
							<timebase>25</timebase>
							<ntsc>FALSE</ntsc>
						</rate>
						<start>6759</start>
						<end>6813</end>
						<in>1025</in>
						<out>1079</out>
						<pproTicksIn>10414656000000</pproTicksIn>
						<pproTicksOut>10963330560000</pproTicksOut>
						<alphatype>none</alphatype>
						<file id="file-180"/>
						<logginginfo>
							<description></description>
							<scene></scene>
							<shottake></shottake>
							<lognote></lognote>
						</logginginfo>
						<labels>
							<label2>Iris</label2>
						</labels>
					</clipitem>
					<clipitem id="clipitem-438">
						<masterclipid>masterclip-258</masterclipid>
						<name>011.mov.mxf</name>
						<enabled>TRUE</enabled>
						<duration>126</duration>
						<rate>
							<timebase>25</timebase>
							<ntsc>FALSE</ntsc>
						</rate>
						<start>7097</start>
						<end>7166</end>
						<in>52</in>
						<out>121</out>
						<pproTicksIn>528353280000</pproTicksIn>
						<pproTicksOut>1229437440000</pproTicksOut>
						<alphatype>none</alphatype>
						<pixelaspectratio>square</pixelaspectratio>
						<anamorphic>FALSE</anamorphic>
						<file id="file-258">
							<name>011.mov.mxf</name>
							<pathurl>file://localhost/Volumes/Svartediket/FCPutveksling/NATUR/_UIN-NY_GRAFIKK2015_PremierePro-mal/Rastoff/011.mov.mxf</pathurl>
							<rate>
								<timebase>25</timebase>
								<ntsc>FALSE</ntsc>
							</rate>
							<duration>126</duration>
							<timecode>
								<rate>
									<timebase>25</timebase>
									<ntsc>FALSE</ntsc>
								</rate>
								<string>00:00:00:00</string>
								<frame>0</frame>
								<displayformat>NDF</displayformat>
								<reel>
									<name></name>
								</reel>
							</timecode>
							<media>
								<video>
									<samplecharacteristics>
										<rate>
											<timebase>25</timebase>
											<ntsc>FALSE</ntsc>
										</rate>
										<width>1920</width>
										<height>1080</height>
										<anamorphic>FALSE</anamorphic>
										<pixelaspectratio>square</pixelaspectratio>
										<fielddominance>none</fielddominance>
									</samplecharacteristics>
								</video>
							</media>
						</file>
						<logginginfo>
							<description></description>
							<scene></scene>
							<shottake></shottake>
							<lognote></lognote>
						</logginginfo>
						<labels>
							<label2>Iris</label2>
						</labels>
					</clipitem>
					<clipitem id="clipitem-439">
						<masterclipid>masterclip-259</masterclipid>
						<name>010.mov.mxf</name>
						<enabled>TRUE</enabled>
						<duration>126</duration>
						<rate>
							<timebase>25</timebase>
							<ntsc>FALSE</ntsc>
						</rate>
						<start>8884</start>
						<end>8964</end>
						<in>42</in>
						<out>122</out>
						<pproTicksIn>426746880000</pproTicksIn>
						<pproTicksOut>1239598080000</pproTicksOut>
						<alphatype>none</alphatype>
						<pixelaspectratio>square</pixelaspectratio>
						<anamorphic>FALSE</anamorphic>
						<file id="file-259">
							<name>010.mov.mxf</name>
							<pathurl>file://localhost/Volumes/Svartediket/FCPutveksling/NATUR/_UIN-NY_GRAFIKK2015_PremierePro-mal/Rastoff/010.mov.mxf</pathurl>
							<rate>
								<timebase>25</timebase>
								<ntsc>FALSE</ntsc>
							</rate>
							<duration>126</duration>
							<timecode>
								<rate>
									<timebase>25</timebase>
									<ntsc>FALSE</ntsc>
								</rate>
								<string>00:00:00:00</string>
								<frame>0</frame>
								<displayformat>NDF</displayformat>
								<reel>
									<name></name>
								</reel>
							</timecode>
							<media>
								<video>
									<samplecharacteristics>
										<rate>
											<timebase>25</timebase>
											<ntsc>FALSE</ntsc>
										</rate>
										<width>1920</width>
										<height>1080</height>
										<anamorphic>FALSE</anamorphic>
										<pixelaspectratio>square</pixelaspectratio>
										<fielddominance>none</fielddominance>
									</samplecharacteristics>
								</video>
							</media>
						</file>
						<logginginfo>
							<description></description>
							<scene></scene>
							<shottake></shottake>
							<lognote></lognote>
						</logginginfo>
						<labels>
							<label2>Iris</label2>
						</labels>
					</clipitem>
					<clipitem id="clipitem-440">
						<masterclipid>masterclip-260</masterclipid>
						<name>09.mov</name>
						<enabled>TRUE</enabled>
						<duration>126</duration>
						<rate>
							<timebase>25</timebase>
							<ntsc>FALSE</ntsc>
						</rate>
						<start>10475</start>
						<end>10590</end>
						<in>0</in>
						<out>115</out>
						<pproTicksIn>0</pproTicksIn>
						<pproTicksOut>1168473600000</pproTicksOut>
						<alphatype>none</alphatype>
						<pixelaspectratio>square</pixelaspectratio>
						<anamorphic>FALSE</anamorphic>
						<file id="file-260">
							<name>09.mov.mxf</name>
							<pathurl>file://localhost/Volumes/Svartediket/FCPutveksling/NATUR/_UIN-NY_GRAFIKK2015_PremierePro-mal/Rastoff/09.mov.mxf</pathurl>
							<rate>
								<timebase>25</timebase>
								<ntsc>FALSE</ntsc>
							</rate>
							<duration>126</duration>
							<timecode>
								<rate>
									<timebase>25</timebase>
									<ntsc>FALSE</ntsc>
								</rate>
								<string>00:00:00:00</string>
								<frame>0</frame>
								<displayformat>NDF</displayformat>
								<reel>
									<name></name>
								</reel>
							</timecode>
							<media>
								<video>
									<samplecharacteristics>
										<rate>
											<timebase>25</timebase>
											<ntsc>FALSE</ntsc>
										</rate>
										<width>1920</width>
										<height>1080</height>
										<anamorphic>FALSE</anamorphic>
										<pixelaspectratio>square</pixelaspectratio>
										<fielddominance>none</fielddominance>
									</samplecharacteristics>
								</video>
							</media>
						</file>
						<logginginfo>
							<description></description>
							<scene></scene>
							<shottake></shottake>
							<lognote></lognote>
						</logginginfo>
						<labels>
							<label2>Iris</label2>
						</labels>
					</clipitem>
					<clipitem id="clipitem-441">
						<masterclipid>masterclip-30</masterclipid>
						<name>2015-12-19 11.39.19.mp4</name>
						<enabled>TRUE</enabled>
						<duration>2636</duration>
						<rate>
							<timebase>25</timebase>
							<ntsc>FALSE</ntsc>
						</rate>
						<start>13337</start>
						<end>13517</end>
						<in>1238</in>
						<out>1418</out>
						<pproTicksIn>12578872320000</pproTicksIn>
						<pproTicksOut>14407787520000</pproTicksOut>
						<alphatype>black</alphatype>
						<file id="file-30"/>
							<filter>
								<effect>
									<name>Basic Motion</name>
									<effectid>basic</effectid>
									<effectcategory>motion</effectcategory>
									<effecttype>motion</effecttype>
									<mediatype>video</mediatype>
									<parameter authoringApp="PremierePro">
										<parameterid>scale</parameterid>
										<name>Scale</name>
										<valuemin>0</valuemin>
										<valuemax>1000</valuemax>
										<value>163</value>
									</parameter>
									<parameter authoringApp="PremierePro">
										<parameterid>rotation</parameterid>
										<name>Rotation</name>
										<valuemin>-8640</valuemin>
										<valuemax>8640</valuemax>
										<value>0</value>
									</parameter>
									<parameter authoringApp="PremierePro">
										<parameterid>center</parameterid>
										<name>Center</name>
										<value>
											<horiz>0</horiz>
											<vert>0.0270833</vert>
										</value>
									</parameter>
									<parameter authoringApp="PremierePro">
										<parameterid>centerOffset</parameterid>
										<name>Anchor Point</name>
										<value>
											<horiz>0</horiz>
											<vert>0</vert>
										</value>
									</parameter>
								</effect>
							</filter>
							<filter>
								<effect>
									<name>Gaussian Blur</name>
									<effectid>Gaussian Blur</effectid>
									<effectcategory>Blur</effectcategory>
									<effecttype>motion</effecttype>
									<mediatype>video</mediatype>
									<parameter authoringApp="PremierePro">
										<parameterid>radius</parameterid>
										<name>Radius</name>
										<valuemin>0</valuemin>
										<valuemax>100</valuemax>
										<value>0</value>
									</parameter>
								</effect>
							</filter>
							<marker>
								<comment></comment>
								<name></name>
								<in>1131</in>
								<out>-1</out>
							</marker>
							<marker>
								<comment></comment>
								<name></name>
								<in>667</in>
								<out>-1</out>
							</marker>
						<logginginfo>
							<description></description>
							<scene></scene>
							<shottake></shottake>
							<lognote></lognote>
						</logginginfo>
						<labels>
							<label2>Iris</label2>
						</labels>
					</clipitem>
					<clipitem id="clipitem-442">
						<masterclipid>masterclip-30</masterclipid>
						<name>2015-12-19 11.39.19.mp4</name>
						<enabled>TRUE</enabled>
						<duration>2636</duration>
						<rate>
							<timebase>25</timebase>
							<ntsc>FALSE</ntsc>
						</rate>
						<start>14722</start>
						<end>15155</end>
						<in>2090</in>
						<out>2523</out>
						<pproTicksIn>21235737600000</pproTicksIn>
						<pproTicksOut>25635294720000</pproTicksOut>
						<alphatype>black</alphatype>
						<file id="file-30"/>
							<filter>
								<effect>
									<name>Basic Motion</name>
									<effectid>basic</effectid>
									<effectcategory>motion</effectcategory>
									<effecttype>motion</effecttype>
									<mediatype>video</mediatype>
									<parameter authoringApp="PremierePro">
										<parameterid>scale</parameterid>
										<name>Scale</name>
										<valuemin>0</valuemin>
										<valuemax>1000</valuemax>
										<value>163</value>
									</parameter>
									<parameter authoringApp="PremierePro">
										<parameterid>rotation</parameterid>
										<name>Rotation</name>
										<valuemin>-8640</valuemin>
										<valuemax>8640</valuemax>
										<value>0</value>
									</parameter>
									<parameter authoringApp="PremierePro">
										<parameterid>center</parameterid>
										<name>Center</name>
										<value>
											<horiz>0</horiz>
											<vert>-0.165104</vert>
										</value>
										<keyframe>
											<when>2090</when>
											<value>
												<horiz>0</horiz>
												<vert>-0.165104</vert>
											</value>
										</keyframe>
										<keyframe>
											<when>2310</when>
											<value>
												<horiz>0</horiz>
												<vert>-0.171354</vert>
											</value>
										</keyframe>
										<keyframe>
											<when>2395</when>
											<value>
												<horiz>0</horiz>
												<vert>-0.0260417</vert>
											</value>
										</keyframe>
										<keyframe>
											<when>2470</when>
											<value>
												<horiz>0</horiz>
												<vert>0.0395833</vert>
											</value>
										</keyframe>
									</parameter>
									<parameter authoringApp="PremierePro">
										<parameterid>centerOffset</parameterid>
										<name>Anchor Point</name>
										<value>
											<horiz>0</horiz>
											<vert>0</vert>
										</value>
									</parameter>
								</effect>
							</filter>
							<filter>
								<effect>
									<name>Gaussian Blur</name>
									<effectid>Gaussian Blur</effectid>
									<effectcategory>Blur</effectcategory>
									<effecttype>motion</effecttype>
									<mediatype>video</mediatype>
									<parameter authoringApp="PremierePro">
										<parameterid>radius</parameterid>
										<name>Radius</name>
										<valuemin>0</valuemin>
										<valuemax>100</valuemax>
										<value>0</value>
									</parameter>
								</effect>
							</filter>
							<marker>
								<comment></comment>
								<name></name>
								<in>1131</in>
								<out>-1</out>
							</marker>
							<marker>
								<comment></comment>
								<name></name>
								<in>667</in>
								<out>-1</out>
							</marker>
						<logginginfo>
							<description></description>
							<scene></scene>
							<shottake></shottake>
							<lognote></lognote>
						</logginginfo>
						<labels>
							<label2>Iris</label2>
						</labels>
					</clipitem>
					<clipitem id="clipitem-443">
						<masterclipid>masterclip-261</masterclipid>
						<name>08.mov</name>
						<enabled>TRUE</enabled>
						<duration>126</duration>
						<rate>
							<timebase>25</timebase>
							<ntsc>FALSE</ntsc>
						</rate>
						<start>16403</start>
						<end>16488</end>
						<in>0</in>
						<out>85</out>
						<pproTicksIn>0</pproTicksIn>
						<pproTicksOut>863654400000</pproTicksOut>
						<alphatype>none</alphatype>
						<pixelaspectratio>square</pixelaspectratio>
						<anamorphic>FALSE</anamorphic>
						<file id="file-261">
							<name>08.mov.mxf</name>
							<pathurl>file://localhost/Volumes/Svartediket/FCPutveksling/NATUR/_UIN-NY_GRAFIKK2015_PremierePro-mal/Rastoff/08.mov.mxf</pathurl>
							<rate>
								<timebase>25</timebase>
								<ntsc>FALSE</ntsc>
							</rate>
							<duration>126</duration>
							<timecode>
								<rate>
									<timebase>25</timebase>
									<ntsc>FALSE</ntsc>
								</rate>
								<string>00:00:00:00</string>
								<frame>0</frame>
								<displayformat>NDF</displayformat>
								<reel>
									<name></name>
								</reel>
							</timecode>
							<media>
								<video>
									<samplecharacteristics>
										<rate>
											<timebase>25</timebase>
											<ntsc>FALSE</ntsc>
										</rate>
										<width>1920</width>
										<height>1080</height>
										<anamorphic>FALSE</anamorphic>
										<pixelaspectratio>square</pixelaspectratio>
										<fielddominance>none</fielddominance>
									</samplecharacteristics>
								</video>
							</media>
						</file>
						<logginginfo>
							<description></description>
							<scene></scene>
							<shottake></shottake>
							<lognote></lognote>
						</logginginfo>
						<labels>
							<label2>Iris</label2>
						</labels>
					</clipitem>
					<clipitem id="clipitem-444">
						<masterclipid>masterclip-262</masterclipid>
						<name>07.mov</name>
						<enabled>TRUE</enabled>
						<duration>126</duration>
						<rate>
							<timebase>25</timebase>
							<ntsc>FALSE</ntsc>
						</rate>
						<start>18023</start>
						<end>18090</end>
						<in>37</in>
						<out>104</out>
						<pproTicksIn>375943680000</pproTicksIn>
						<pproTicksOut>1056706560000</pproTicksOut>
						<alphatype>none</alphatype>
						<pixelaspectratio>square</pixelaspectratio>
						<anamorphic>FALSE</anamorphic>
						<file id="file-262">
							<name>07.mov.mxf</name>
							<pathurl>file://localhost/Volumes/Svartediket/FCPutveksling/NATUR/_UIN-NY_GRAFIKK2015_PremierePro-mal/Rastoff/07.mov.mxf</pathurl>
							<rate>
								<timebase>25</timebase>
								<ntsc>FALSE</ntsc>
							</rate>
							<duration>126</duration>
							<timecode>
								<rate>
									<timebase>25</timebase>
									<ntsc>FALSE</ntsc>
								</rate>
								<string>00:00:00:00</string>
								<frame>0</frame>
								<displayformat>NDF</displayformat>
								<reel>
									<name></name>
								</reel>
							</timecode>
							<media>
								<video>
									<samplecharacteristics>
										<rate>
											<timebase>25</timebase>
											<ntsc>FALSE</ntsc>
										</rate>
										<width>1920</width>
										<height>1080</height>
										<anamorphic>FALSE</anamorphic>
										<pixelaspectratio>square</pixelaspectratio>
										<fielddominance>none</fielddominance>
									</samplecharacteristics>
								</video>
							</media>
						</file>
						<logginginfo>
							<description></description>
							<scene></scene>
							<shottake></shottake>
							<lognote></lognote>
						</logginginfo>
						<labels>
							<label2>Iris</label2>
						</labels>
					</clipitem>
					<clipitem id="clipitem-445">
						<masterclipid>masterclip-263</masterclipid>
						<name>06.mov</name>
						<enabled>TRUE</enabled>
						<duration>126</duration>
						<rate>
							<timebase>25</timebase>
							<ntsc>FALSE</ntsc>
						</rate>
						<start>19552</start>
						<end>19628</end>
						<in>0</in>
						<out>76</out>
						<pproTicksIn>0</pproTicksIn>
						<pproTicksOut>772208640000</pproTicksOut>
						<alphatype>none</alphatype>
						<pixelaspectratio>square</pixelaspectratio>
						<anamorphic>FALSE</anamorphic>
						<file id="file-263">
							<name>06.mov.mxf</name>
							<pathurl>file://localhost/Volumes/Svartediket/FCPutveksling/NATUR/_UIN-NY_GRAFIKK2015_PremierePro-mal/Rastoff/06.mov.mxf</pathurl>
							<rate>
								<timebase>25</timebase>
								<ntsc>FALSE</ntsc>
							</rate>
							<duration>126</duration>
							<timecode>
								<rate>
									<timebase>25</timebase>
									<ntsc>FALSE</ntsc>
								</rate>
								<string>00:00:00:00</string>
								<frame>0</frame>
								<displayformat>NDF</displayformat>
								<reel>
									<name></name>
								</reel>
							</timecode>
							<media>
								<video>
									<samplecharacteristics>
										<rate>
											<timebase>25</timebase>
											<ntsc>FALSE</ntsc>
										</rate>
										<width>1920</width>
										<height>1080</height>
										<anamorphic>FALSE</anamorphic>
										<pixelaspectratio>square</pixelaspectratio>
										<fielddominance>none</fielddominance>
									</samplecharacteristics>
								</video>
							</media>
						</file>
						<logginginfo>
							<description></description>
							<scene></scene>
							<shottake></shottake>
							<lognote></lognote>
						</logginginfo>
						<labels>
							<label2>Iris</label2>
						</labels>
					</clipitem>
					<clipitem id="clipitem-446">
						<masterclipid>masterclip-264</masterclipid>
						<name>DJI_0002.MOV</name>
						<enabled>TRUE</enabled>
						<duration>26021</duration>
						<rate>
							<timebase>25</timebase>
							<ntsc>FALSE</ntsc>
						</rate>
						<start>31263</start>
						<end>31334</end>
						<in>15571</in>
						<out>15642</out>
						<pproTicksIn>126569060352000</pproTicksIn>
						<pproTicksOut>127146184704000</pproTicksOut>
						<alphatype>none</alphatype>
						<pixelaspectratio>square</pixelaspectratio>
						<anamorphic>FALSE</anamorphic>
						<file id="file-264">
							<name>DJI_0002.MOV</name>
							<pathurl>file://localhost/Volumes/Svartediket/Prosjekter/DVNA600216_HELAFTEN2016_FAL_010217/Video/Trailere2017/Copied_hb%20Molla2_1AA/DJI_0002.MOV</pathurl>
							<rate>
								<timebase>25</timebase>
								<ntsc>FALSE</ntsc>
							</rate>
							<duration>20817</duration>
							<timecode>
								<rate>
									<timebase>25</timebase>
									<ntsc>FALSE</ntsc>
								</rate>
								<string>00:00:00:00</string>
								<frame>0</frame>
								<displayformat>NDF</displayformat>
								<reel>
									<name></name>
								</reel>
							</timecode>
							<media>
								<video>
									<samplecharacteristics>
										<rate>
											<timebase>25</timebase>
											<ntsc>FALSE</ntsc>
										</rate>
										<width>1920</width>
										<height>1080</height>
										<anamorphic>FALSE</anamorphic>
										<pixelaspectratio>square</pixelaspectratio>
										<fielddominance>none</fielddominance>
									</samplecharacteristics>
								</video>
								<audio>
									<samplecharacteristics>
										<depth>16</depth>
										<samplerate>48000</samplerate>
									</samplecharacteristics>
									<channelcount>2</channelcount>
								</audio>
							</media>
						</file>
							<filter>
								<effect>
									<name>Time Remap</name>
									<effectid>timeremap</effectid>
									<effectcategory>motion</effectcategory>
									<effecttype>motion</effecttype>
									<mediatype>video</mediatype>
									<parameter authoringApp="PremierePro">
										<parameterid>variablespeed</parameterid>
										<name>variablespeed</name>
										<valuemin>0</valuemin>
										<valuemax>1</valuemax>
										<value>0</value>
									</parameter>
									<parameter authoringApp="PremierePro">
										<parameterid>speed</parameterid>
										<name>speed</name>
										<valuemin>-100000</valuemin>
										<valuemax>100000</valuemax>
										<value>80.0008</value>
									</parameter>
									<parameter authoringApp="PremierePro">
										<parameterid>reverse</parameterid>
										<name>reverse</name>
										<value>FALSE</value>
									</parameter>
									<parameter authoringApp="PremierePro">
										<parameterid>frameblending</parameterid>
										<name>frameblending</name>
										<value>FALSE</value>
									</parameter>
									<parameter authoringApp="PremierePro">
										<parameterid>graphdict</parameterid>
										<name>graphdict</name>
										<valuemin>0</valuemin>
										<valuemax>20817</valuemax>
										<value>0</value>
										<keyframe>
											<when>0</when>
											<value>0</value>
											<speedvirtualkf>TRUE</speedvirtualkf>
											<speedkfstart>TRUE</speedkfstart>
										</keyframe>
										<keyframe>
											<when>15571</when>
											<value>12456</value>
											<speedvirtualkf>TRUE</speedvirtualkf>
											<speedkfin>TRUE</speedkfin>
										</keyframe>
										<keyframe>
											<when>15642</when>
											<value>12513</value>
											<speedvirtualkf>TRUE</speedvirtualkf>
											<speedkfout>TRUE</speedkfout>
										</keyframe>
										<keyframe>
											<when>26021</when>
											<value>20817</value>
											<speedvirtualkf>TRUE</speedvirtualkf>
											<speedkfend>TRUE</speedkfend>
										</keyframe>
										<interpolation>
											<name>FCPCurve</name>
										</interpolation>
									</parameter>
								</effect>
							</filter>
						<logginginfo>
							<description></description>
							<scene></scene>
							<shottake></shottake>
							<lognote>0.9.138</lognote>
						</logginginfo>
						<labels>
							<label2>Violet</label2>
						</labels>
					</clipitem>
					<clipitem id="clipitem-447">
						<masterclipid>masterclip-265</masterclipid>
						<name>DJI_0012.MOV</name>
						<enabled>TRUE</enabled>
						<duration>14766</duration>
						<rate>
							<timebase>25</timebase>
							<ntsc>FALSE</ntsc>
						</rate>
						<start>31390</start>
						<end>31455</end>
						<in>13001</in>
						<out>13066</out>
						<pproTicksIn>132098480640000</pproTicksIn>
						<pproTicksOut>132758922240000</pproTicksOut>
						<alphatype>none</alphatype>
						<pixelaspectratio>square</pixelaspectratio>
						<anamorphic>FALSE</anamorphic>
						<file id="file-265">
							<name>DJI_0012.MOV</name>
							<pathurl>file://localhost/Volumes/Svartediket/Prosjekter/DVNA600216_HELAFTEN2016_FAL_010217/Video/Trailere2017/Copied_hb%20Molla2_1AA/DJI_0012.MOV</pathurl>
							<rate>
								<timebase>25</timebase>
								<ntsc>FALSE</ntsc>
							</rate>
							<duration>14766</duration>
							<timecode>
								<rate>
									<timebase>25</timebase>
									<ntsc>FALSE</ntsc>
								</rate>
								<string>00:00:00:00</string>
								<frame>0</frame>
								<displayformat>NDF</displayformat>
								<reel>
									<name></name>
								</reel>
							</timecode>
							<media>
								<video>
									<samplecharacteristics>
										<rate>
											<timebase>25</timebase>
											<ntsc>FALSE</ntsc>
										</rate>
										<width>1920</width>
										<height>1080</height>
										<anamorphic>FALSE</anamorphic>
										<pixelaspectratio>square</pixelaspectratio>
										<fielddominance>none</fielddominance>
									</samplecharacteristics>
								</video>
								<audio>
									<samplecharacteristics>
										<depth>16</depth>
										<samplerate>48000</samplerate>
									</samplecharacteristics>
									<channelcount>2</channelcount>
								</audio>
							</media>
						</file>
						<logginginfo>
							<description></description>
							<scene></scene>
							<shottake></shottake>
							<lognote>0.9.138</lognote>
						</logginginfo>
						<labels>
							<label2>Violet</label2>
						</labels>
					</clipitem>
					<clipitem id="clipitem-448">
						<masterclipid>masterclip-266</masterclipid>
						<name>Aashild-august-Clip0593.MXF</name>
						<enabled>TRUE</enabled>
						<duration>2736</duration>
						<rate>
							<timebase>25</timebase>
							<ntsc>FALSE</ntsc>
						</rate>
						<start>34801</start>
						<end>34870</end>
						<in>1492</in>
						<out>1561</out>
						<pproTicksIn>15159674880000</pproTicksIn>
						<pproTicksOut>15860759040000</pproTicksOut>
						<alphatype>none</alphatype>
						<pixelaspectratio>square</pixelaspectratio>
						<anamorphic>FALSE</anamorphic>
						<file id="file-266">
							<name>Aashild-august-Clip0593.MXF</name>
							<pathurl>file://localhost/Volumes/Vaagen/Prosjekter/DVNA200216_OAO_Naturforskere_010118_OAO/Ra%cc%8astoff/A%cc%8ashild%20Pedersen/Svalbard%20august/Fs5/Aashild-august-Clip0593.MXF</pathurl>
							<rate>
								<timebase>50</timebase>
								<ntsc>FALSE</ntsc>
							</rate>
							<duration>5472</duration>
							<timecode>
								<rate>
									<timebase>50</timebase>
									<ntsc>FALSE</ntsc>
								</rate>
								<string>07:05:03:42</string>
								<frame>1275192</frame>
								<displayformat>NDF</displayformat>
								<reel>
									<name></name>
								</reel>
							</timecode>
							<media>
								<video>
									<samplecharacteristics>
										<rate>
											<timebase>50</timebase>
											<ntsc>FALSE</ntsc>
										</rate>
										<width>1920</width>
										<height>1080</height>
										<anamorphic>FALSE</anamorphic>
										<pixelaspectratio>square</pixelaspectratio>
										<fielddominance>none</fielddominance>
									</samplecharacteristics>
								</video>
								<audio>
									<samplecharacteristics>
										<depth>16</depth>
										<samplerate>48000</samplerate>
									</samplecharacteristics>
									<channelcount>4</channelcount>
								</audio>
							</media>
						</file>
							<filter>
								<effect>
									<name></name>
									<effectid>Lumetri</effectid>
									<effecttype>filter</effecttype>
									<mediatype>video</mediatype>
									<parameter authoringApp="PremierePro">
										<parameterid>1</parameterid>
										<name>File Path</name>
										<hash>63866a15-9327-e4cb-ff31-c9ea0000000e</hash>
									</parameter>
									<parameter authoringApp="PremierePro">
										<parameterid>3</parameterid>
										<name> </name>
										<IsTimeVarying>false</IsTimeVarying>
										<ParameterControlType>4</ParameterControlType>
										<LowerBound>false</LowerBound>
										<UpperBound>true</UpperBound>
										<value>-91445760000000000,true,0,0,0,0,0,0</value>
									</parameter>
									<parameter authoringApp="PremierePro">
										<parameterid>4</parameterid>
										<name> </name>
										<hash>63866a15-9327-e4cb-ff31-c9ea0000000e</hash>
									</parameter>
									<parameter authoringApp="PremierePro">
										<parameterid>5</parameterid>
										<name>Input LUT</name>
										<IsTimeVarying>false</IsTimeVarying>
										<ParameterControlType>7</ParameterControlType>
										<LowerBound>0</LowerBound>
										<UpperBound>998</UpperBound>
										<value>-91445760000000000,0,0,0,0,0,0,0</value>
									</parameter>
									<parameter authoringApp="PremierePro">
										<parameterid>7</parameterid>
										<name>Temperature</name>
										<IsTimeVarying>false</IsTimeVarying>
										<ParameterControlType>8</ParameterControlType>
										<LowerBound>-150</LowerBound>
										<UpperBound>150</UpperBound>
										<LowerUIBound>-100</LowerUIBound>
										<UpperUIBound>100</UpperUIBound>
										<value>-91445760000000000,0.,0,0,0,0,0,0</value>
									</parameter>
									<parameter authoringApp="PremierePro">
										<parameterid>8</parameterid>
										<name>Tint</name>
										<IsTimeVarying>false</IsTimeVarying>
										<ParameterControlType>8</ParameterControlType>
										<LowerBound>-150</LowerBound>
										<UpperBound>150</UpperBound>
										<LowerUIBound>-100</LowerUIBound>
										<UpperUIBound>100</UpperUIBound>
										<value>-91445760000000000,0.,0,0,0,0,0,0</value>
									</parameter>
									<parameter authoringApp="PremierePro">
										<parameterid>11</parameterid>
										<name>Exposure</name>
										<IsTimeVarying>false</IsTimeVarying>
										<ParameterControlType>8</ParameterControlType>
										<LowerBound>-7</LowerBound>
										<UpperBound>7</UpperBound>
										<LowerUIBound>-5</LowerUIBound>
										<UpperUIBound>5</UpperUIBound>
										<value>-91445760000000000,0.60000002384185791015625,0,0,0,0,0,0</value>
									</parameter>
									<parameter authoringApp="PremierePro">
										<parameterid>12</parameterid>
										<name>Contrast</name>
										<IsTimeVarying>false</IsTimeVarying>
										<ParameterControlType>8</ParameterControlType>
										<LowerBound>-150</LowerBound>
										<UpperBound>150</UpperBound>
										<LowerUIBound>-100</LowerUIBound>
										<UpperUIBound>100</UpperUIBound>
										<value>-91445760000000000,59.975616455078125,0,0,0,0,0,0</value>
									</parameter>
									<parameter authoringApp="PremierePro">
										<parameterid>13</parameterid>
										<name>Highlights</name>
										<IsTimeVarying>false</IsTimeVarying>
										<ParameterControlType>8</ParameterControlType>
										<LowerBound>-150</LowerBound>
										<UpperBound>150</UpperBound>
										<LowerUIBound>-100</LowerUIBound>
										<UpperUIBound>100</UpperUIBound>
										<value>-91445760000000000,-51.,0,0,0,0,0,0</value>
									</parameter>
									<parameter authoringApp="PremierePro">
										<parameterid>14</parameterid>
										<name>Shadows</name>
										<IsTimeVarying>false</IsTimeVarying>
										<ParameterControlType>8</ParameterControlType>
										<LowerBound>-150</LowerBound>
										<UpperBound>150</UpperBound>
										<LowerUIBound>-100</LowerUIBound>
										<UpperUIBound>100</UpperUIBound>
										<value>-91445760000000000,-9.,0,0,0,0,0,0</value>
									</parameter>
									<parameter authoringApp="PremierePro">
										<parameterid>15</parameterid>
										<name>Whites</name>
										<IsTimeVarying>false</IsTimeVarying>
										<ParameterControlType>8</ParameterControlType>
										<LowerBound>-150</LowerBound>
										<UpperBound>150</UpperBound>
										<LowerUIBound>-100</LowerUIBound>
										<UpperUIBound>100</UpperUIBound>
										<value>-91445760000000000,-150.,0,0,0,0,0,0</value>
									</parameter>
									<parameter authoringApp="PremierePro">
										<parameterid>16</parameterid>
										<name>Blacks</name>
										<IsTimeVarying>false</IsTimeVarying>
										<ParameterControlType>8</ParameterControlType>
										<LowerBound>-150</LowerBound>
										<UpperBound>150</UpperBound>
										<LowerUIBound>-100</LowerUIBound>
										<UpperUIBound>100</UpperUIBound>
										<value>-91445760000000000,-82.95122528076171875,0,0,0,0,0,0</value>
									</parameter>
									<parameter authoringApp="PremierePro">
										<parameterid>20</parameterid>
										<name>Saturation</name>
										<IsTimeVarying>false</IsTimeVarying>
										<ParameterControlType>8</ParameterControlType>
										<LowerBound>0</LowerBound>
										<UpperBound>300</UpperBound>
										<UpperUIBound>200</UpperUIBound>
										<value>-91445760000000000,190.,0,0,0,0,0,0</value>
									</parameter>
									<parameter authoringApp="PremierePro">
										<parameterid>23</parameterid>
										<name> </name>
										<IsTimeVarying>false</IsTimeVarying>
										<ParameterControlType>4</ParameterControlType>
										<LowerBound>false</LowerBound>
										<UpperBound>true</UpperBound>
										<value>-91445760000000000,true,0,0,0,0,0,0</value>
									</parameter>
									<parameter authoringApp="PremierePro">
										<parameterid>24</parameterid>
										<name> </name>
										<hash>63866a15-9327-e4cb-ff31-c9ea0000000e</hash>
									</parameter>
									<parameter authoringApp="PremierePro">
										<parameterid>25</parameterid>
										<name>Look</name>
										<IsTimeVarying>false</IsTimeVarying>
										<ParameterControlType>7</ParameterControlType>
										<LowerBound>0</LowerBound>
										<UpperBound>998</UpperBound>
										<value>-91445760000000000,0,0,0,0,0,0,0</value>
									</parameter>
									<parameter authoringApp="PremierePro">
										<parameterid>26</parameterid>
										<name>Intensity</name>
										<IsTimeVarying>false</IsTimeVarying>
										<ParameterControlType>8</ParameterControlType>
										<LowerBound>0</LowerBound>
										<UpperBound>200</UpperBound>
										<value>-91445760000000000,100.,0,0,0,0,0,0</value>
									</parameter>
									<parameter authoringApp="PremierePro">
										<parameterid>28</parameterid>
										<name>Faded Film</name>
										<IsTimeVarying>false</IsTimeVarying>
										<ParameterControlType>8</ParameterControlType>
										<LowerBound>0</LowerBound>
										<UpperBound>150</UpperBound>
										<UpperUIBound>100</UpperUIBound>
										<value>-91445760000000000,0.,0,0,0,0,0,0</value>
									</parameter>
									<parameter authoringApp="PremierePro">
										<parameterid>29</parameterid>
										<name>Sharpen</name>
										<IsTimeVarying>false</IsTimeVarying>
										<ParameterControlType>8</ParameterControlType>
										<LowerBound>-100</LowerBound>
										<UpperBound>100</UpperBound>
										<value>-91445760000000000,0.,0,0,0,0,0,0</value>
									</parameter>
									<parameter authoringApp="PremierePro">
										<parameterid>30</parameterid>
										<name>Vibrance</name>
										<IsTimeVarying>false</IsTimeVarying>
										<ParameterControlType>8</ParameterControlType>
										<LowerBound>-100</LowerBound>
										<UpperBound>100</UpperBound>
										<value>-91445760000000000,0.,0,0,0,0,0,0</value>
									</parameter>
									<parameter authoringApp="PremierePro">
										<parameterid>31</parameterid>
										<name>Saturation</name>
										<IsTimeVarying>false</IsTimeVarying>
										<ParameterControlType>8</ParameterControlType>
										<LowerBound>0</LowerBound>
										<UpperBound>300</UpperBound>
										<UpperUIBound>200</UpperUIBound>
										<value>-91445760000000000,100.,0,0,0,0,0,0</value>
									</parameter>
									<parameter authoringApp="PremierePro">
										<parameterid>32</parameterid>
										<name></name>
										<hash>49d2fca5-ddd1-a393-0544-f6d80000002c</hash>
									</parameter>
									<parameter authoringApp="PremierePro">
										<parameterid>33</parameterid>
										<name>Tint Balance</name>
										<IsTimeVarying>false</IsTimeVarying>
										<ParameterControlType>8</ParameterControlType>
										<LowerBound>-150</LowerBound>
										<UpperBound>150</UpperBound>
										<LowerUIBound>-100</LowerUIBound>
										<UpperUIBound>100</UpperUIBound>
										<value>-91445760000000000,0.,0,0,0,0,0,0</value>
									</parameter>
									<parameter authoringApp="PremierePro">
										<parameterid>37</parameterid>
										<name> </name>
										<IsTimeVarying>false</IsTimeVarying>
										<ParameterControlType>4</ParameterControlType>
										<LowerBound>false</LowerBound>
										<UpperBound>true</UpperBound>
										<value>-91445760000000000,true,0,0,0,0,0,0</value>
									</parameter>
									<parameter authoringApp="PremierePro">
										<parameterid>39</parameterid>
										<name> </name>
										<hash>261f3840-e8cf-a8cd-fa5e-bac10000082c</hash>
									</parameter>
									<parameter authoringApp="PremierePro">
										<parameterid>42</parameterid>
										<name> </name>
										<hash>ccfaa4df-d630-7661-76dd-3e4900000214</hash>
									</parameter>
									<parameter authoringApp="PremierePro">
										<parameterid>46</parameterid>
										<name> </name>
										<IsTimeVarying>false</IsTimeVarying>
										<ParameterControlType>4</ParameterControlType>
										<LowerBound>false</LowerBound>
										<UpperBound>true</UpperBound>
										<value>-91445760000000000,true,0,0,0,0,0,0</value>
									</parameter>
									<parameter authoringApp="PremierePro">
										<parameterid>47</parameterid>
										<name> </name>
										<hash>0b5436c4-bae0-bb64-a2f6-c8c40000006c</hash>
									</parameter>
									<parameter authoringApp="PremierePro">
										<parameterid>50</parameterid>
										<name> </name>
										<IsTimeVarying>false</IsTimeVarying>
										<ParameterControlType>4</ParameterControlType>
										<LowerBound>false</LowerBound>
										<UpperBound>true</UpperBound>
										<value>-91445760000000000,true,0,0,0,0,0,0</value>
									</parameter>
									<parameter authoringApp="PremierePro">
										<parameterid>51</parameterid>
										<name>Amount</name>
										<IsTimeVarying>false</IsTimeVarying>
										<ParameterControlType>8</ParameterControlType>
										<LowerBound>-5</LowerBound>
										<UpperBound>5</UpperBound>
										<LowerUIBound>-3</LowerUIBound>
										<UpperUIBound>3</UpperUIBound>
										<value>-91445760000000000,0.,0,0,0,0,0,0</value>
									</parameter>
									<parameter authoringApp="PremierePro">
										<parameterid>52</parameterid>
										<name>Midpoint</name>
										<IsTimeVarying>false</IsTimeVarying>
										<ParameterControlType>8</ParameterControlType>
										<LowerBound>0</LowerBound>
										<UpperBound>100</UpperBound>
										<value>-91445760000000000,50.,0,0,0,0,0,0</value>
									</parameter>
									<parameter authoringApp="PremierePro">
										<parameterid>53</parameterid>
										<name>Roundness</name>
										<IsTimeVarying>false</IsTimeVarying>
										<ParameterControlType>8</ParameterControlType>
										<LowerBound>-100</LowerBound>
										<UpperBound>100</UpperBound>
										<value>-91445760000000000,0.,0,0,0,0,0,0</value>
									</parameter>
									<parameter authoringApp="PremierePro">
										<parameterid>54</parameterid>
										<name>Feather</name>
										<IsTimeVarying>false</IsTimeVarying>
										<ParameterControlType>8</ParameterControlType>
										<LowerBound>0</LowerBound>
										<UpperBound>100</UpperBound>
										<value>-91445760000000000,50.,0,0,0,0,0,0</value>
									</parameter>
								</effect>
							</filter>
						<logginginfo>
							<description></description>
							<scene></scene>
							<shottake></shottake>
							<lognote></lognote>
						</logginginfo>
						<labels>
							<label2>Caribbean</label2>
						</labels>
					</clipitem>
					<clipitem id="clipitem-449">
						<masterclipid>masterclip-228</masterclipid>
						<name>Clip0015.MXF</name>
						<enabled>TRUE</enabled>
						<duration>432</duration>
						<rate>
							<timebase>25</timebase>
							<ntsc>FALSE</ntsc>
						</rate>
						<start>38281</start>
						<end>38378</end>
						<in>277</in>
						<out>374</out>
						<pproTicksIn>2814497280000</pproTicksIn>
						<pproTicksOut>3800079360000</pproTicksOut>
						<alphatype>none</alphatype>
						<file id="file-228"/>
						<logginginfo>
							<description></description>
							<scene></scene>
							<shottake></shottake>
							<lognote></lognote>
						</logginginfo>
						<labels>
							<label2>Iris</label2>
						</labels>
					</clipitem>
					<clipitem id="clipitem-450">
						<masterclipid>masterclip-267</masterclipid>
						<name>DRONE--FJELLSIDE_FYR_SOL_30s 2.mxf</name>
						<enabled>TRUE</enabled>
						<duration>750</duration>
						<rate>
							<timebase>25</timebase>
							<ntsc>FALSE</ntsc>
						</rate>
						<start>38934</start>
						<end>39117</end>
						<in>263</in>
						<out>446</out>
						<pproTicksIn>2672248320000</pproTicksIn>
						<pproTicksOut>4531645440000</pproTicksOut>
						<alphatype>none</alphatype>
						<pixelaspectratio>square</pixelaspectratio>
						<anamorphic>FALSE</anamorphic>
						<file id="file-267">
							<name>DRONE--FJELLSIDE_FYR_SOL_30s 2.mxf</name>
							<pathurl>file://localhost/Volumes/Vaagen/Prosjekter/DVNA210116_Horn%c3%b8ya_Nordvisjonen_010317_TGP/DRONE%20ALRIK/DRONE--FJELLSIDE_FYR_SOL_30s%202.mxf</pathurl>
							<rate>
								<timebase>25</timebase>
								<ntsc>FALSE</ntsc>
							</rate>
							<duration>750</duration>
							<timecode>
								<rate>
									<timebase>25</timebase>
									<ntsc>FALSE</ntsc>
								</rate>
								<string>00:00:00:00</string>
								<frame>0</frame>
								<displayformat>NDF</displayformat>
								<reel>
									<name></name>
								</reel>
							</timecode>
							<media>
								<video>
									<samplecharacteristics>
										<rate>
											<timebase>25</timebase>
											<ntsc>FALSE</ntsc>
										</rate>
										<width>1920</width>
										<height>1080</height>
										<anamorphic>FALSE</anamorphic>
										<pixelaspectratio>square</pixelaspectratio>
										<fielddominance>upper</fielddominance>
									</samplecharacteristics>
								</video>
								<audio>
									<samplecharacteristics>
										<depth>16</depth>
										<samplerate>48000</samplerate>
									</samplecharacteristics>
									<channelcount>8</channelcount>
								</audio>
							</media>
						</file>
						<logginginfo>
							<description></description>
							<scene></scene>
							<shottake></shottake>
							<lognote></lognote>
						</logginginfo>
						<labels>
							<label2>Iris</label2>
						</labels>
					</clipitem>
					<clipitem id="clipitem-451">
						<masterclipid>masterclip-216</masterclipid>
						<name>AA018301.MXF</name>
						<enabled>TRUE</enabled>
						<duration>3456</duration>
						<rate>
							<timebase>25</timebase>
							<ntsc>FALSE</ntsc>
						</rate>
						<start>42491</start>
						<end>42580</end>
						<in>3230</in>
						<out>3319</out>
						<pproTicksIn>32818867200000</pproTicksIn>
						<pproTicksOut>33723164160000</pproTicksOut>
						<alphatype>none</alphatype>
						<file id="file-216"/>
						<logginginfo>
							<description></description>
							<scene></scene>
							<shottake></shottake>
							<lognote></lognote>
						</logginginfo>
						<labels>
							<label2>Iris</label2>
						</labels>
					</clipitem>
					<clipitem id="clipitem-452">
						<masterclipid>masterclip-268</masterclipid>
						<name>00007.mxf</name>
						<enabled>TRUE</enabled>
						<duration>216</duration>
						<rate>
							<timebase>25</timebase>
							<ntsc>FALSE</ntsc>
						</rate>
						<start>43926</start>
						<end>44005</end>
						<in>96</in>
						<out>174</out>
						<pproTicksIn>975421440000</pproTicksIn>
						<pproTicksOut>1767951360000</pproTicksOut>
						<alphatype>none</alphatype>
						<pixelaspectratio>square</pixelaspectratio>
						<anamorphic>FALSE</anamorphic>
						<file id="file-268">
							<name>00007.mxf</name>
							<pathurl>file://localhost/Volumes/Vaagen/Prosjekter/DVNA210116_Horn%c3%b8ya_Nordvisjonen_010317_TGP/Bakomfilm/Rigging%20oktober%2015/BDMV/STREAM/00007.mxf</pathurl>
							<rate>
								<timebase>25</timebase>
								<ntsc>FALSE</ntsc>
							</rate>
							<duration>216</duration>
							<timecode>
								<rate>
									<timebase>25</timebase>
									<ntsc>FALSE</ntsc>
								</rate>
								<string>19:01:28:24</string>
								<frame>1712224</frame>
								<displayformat>NDF</displayformat>
								<reel>
									<name></name>
								</reel>
							</timecode>
							<media>
								<video>
									<samplecharacteristics>
										<rate>
											<timebase>25</timebase>
											<ntsc>FALSE</ntsc>
										</rate>
										<width>1920</width>
										<height>1080</height>
										<anamorphic>FALSE</anamorphic>
										<pixelaspectratio>square</pixelaspectratio>
										<fielddominance>upper</fielddominance>
									</samplecharacteristics>
								</video>
								<audio>
									<samplecharacteristics>
										<depth>16</depth>
										<samplerate>48000</samplerate>
									</samplecharacteristics>
									<channelcount>2</channelcount>
								</audio>
							</media>
						</file>
						<logginginfo>
							<description></description>
							<scene></scene>
							<shottake></shottake>
							<lognote></lognote>
						</logginginfo>
						<labels>
							<label2>Iris</label2>
						</labels>
					</clipitem>
					<clipitem id="clipitem-453">
						<masterclipid>masterclip-221</masterclipid>
						<name>00040.mxf</name>
						<enabled>TRUE</enabled>
						<duration>1812</duration>
						<rate>
							<timebase>25</timebase>
							<ntsc>FALSE</ntsc>
						</rate>
						<start>44170</start>
						<end>44260</end>
						<in>1320</in>
						<out>1410</out>
						<pproTicksIn>13412044800000</pproTicksIn>
						<pproTicksOut>14326502400000</pproTicksOut>
						<alphatype>none</alphatype>
						<file id="file-221"/>
							<filter>
								<effect>
									<name>Basic Motion</name>
									<effectid>basic</effectid>
									<effectcategory>motion</effectcategory>
									<effecttype>motion</effecttype>
									<mediatype>video</mediatype>
									<parameter authoringApp="PremierePro">
										<parameterid>scale</parameterid>
										<name>Scale</name>
										<valuemin>0</valuemin>
										<valuemax>1000</valuemax>
										<value>109</value>
									</parameter>
									<parameter authoringApp="PremierePro">
										<parameterid>rotation</parameterid>
										<name>Rotation</name>
										<valuemin>-8640</valuemin>
										<valuemax>8640</valuemax>
										<value>0</value>
									</parameter>
									<parameter authoringApp="PremierePro">
										<parameterid>center</parameterid>
										<name>Center</name>
										<value>
											<horiz>0</horiz>
											<vert>-0.0416667</vert>
										</value>
									</parameter>
									<parameter authoringApp="PremierePro">
										<parameterid>centerOffset</parameterid>
										<name>Anchor Point</name>
										<value>
											<horiz>0</horiz>
											<vert>0</vert>
										</value>
									</parameter>
								</effect>
							</filter>
						<logginginfo>
							<description></description>
							<scene></scene>
							<shottake></shottake>
							<lognote></lognote>
						</logginginfo>
						<labels>
							<label2>Iris</label2>
						</labels>
					</clipitem>
					<clipitem id="clipitem-454">
						<masterclipid>masterclip-269</masterclipid>
						<name>DJI_0015.MOV</name>
						<enabled>TRUE</enabled>
						<duration>2217</duration>
						<rate>
							<timebase>25</timebase>
							<ntsc>FALSE</ntsc>
						</rate>
						<start>47518</start>
						<end>47721</end>
						<in>1335</in>
						<out>1538</out>
						<pproTicksIn>13564454400000</pproTicksIn>
						<pproTicksOut>15627064320000</pproTicksOut>
						<alphatype>black</alphatype>
						<pixelaspectratio>square</pixelaspectratio>
						<anamorphic>FALSE</anamorphic>
						<file id="file-269">
							<name>DJI_0015.MOV</name>
							<pathurl>file://localhost/Volumes/Vaagen/Prosjekter/DVNA210116_Horn%c3%b8ya_Nordvisjonen_010317_TGP/Horn%c3%b8ya%20Trond/Droneopptak%20Horn%c3%b8ya/150622%20Ut%20i%20Naturen,%20Vard%c3%b8/Kort%202/NO%20NAME/DCIM/100MEDIA/DJI_0015.MOV</pathurl>
							<rate>
								<timebase>50</timebase>
								<ntsc>FALSE</ntsc>
							</rate>
							<duration>4434</duration>
							<timecode>
								<rate>
									<timebase>50</timebase>
									<ntsc>FALSE</ntsc>
								</rate>
								<string>00:00:00:00</string>
								<frame>0</frame>
								<displayformat>NDF</displayformat>
								<reel>
									<name></name>
								</reel>
							</timecode>
							<media>
								<video>
									<samplecharacteristics>
										<rate>
											<timebase>50</timebase>
											<ntsc>FALSE</ntsc>
										</rate>
										<width>1920</width>
										<height>1080</height>
										<anamorphic>FALSE</anamorphic>
										<pixelaspectratio>square</pixelaspectratio>
										<fielddominance>none</fielddominance>
									</samplecharacteristics>
								</video>
							</media>
						</file>
						<logginginfo>
							<description></description>
							<scene></scene>
							<shottake></shottake>
							<lognote>0.9.126M</lognote>
						</logginginfo>
						<labels>
							<label2>Iris</label2>
						</labels>
					</clipitem>
					<clipitem id="clipitem-455">
						<masterclipid>masterclip-246</masterclipid>
						<name>NRK1-280616-CF.mxf</name>
						<enabled>TRUE</enabled>
						<duration>81975</duration>
						<rate>
							<timebase>25</timebase>
							<ntsc>FALSE</ntsc>
						</rate>
						<start>53290</start>
						<end>53729</end>
						<in>44329</in>
						<out>44769</out>
						<pproTicksIn>450411010560000</pproTicksIn>
						<pproTicksOut>454881692160000</pproTicksOut>
						<alphatype>none</alphatype>
						<file id="file-246"/>
						<logginginfo>
							<description>DVNA20000716</description>
							<scene></scene>
							<shottake></shottake>
							<lognote></lognote>
						</logginginfo>
						<labels>
							<label2>Iris</label2>
						</labels>
					</clipitem>
					<clipitem id="clipitem-456">
						<masterclipid>masterclip-270</masterclipid>
						<name>ENG19-2772.MXF</name>
						<enabled>TRUE</enabled>
						<duration>157</duration>
						<rate>
							<timebase>25</timebase>
							<ntsc>FALSE</ntsc>
						</rate>
						<start>54911</start>
						<end>54993</end>
						<in>72</in>
						<out>154</out>
						<pproTicksIn>731566080000</pproTicksIn>
						<pproTicksOut>1564738560000</pproTicksOut>
						<alphatype>none</alphatype>
						<pixelaspectratio>square</pixelaspectratio>
						<anamorphic>FALSE</anamorphic>
						<file id="file-270">
							<name>ENG19-2772.MXF</name>
							<pathurl>file://localhost/Volumes/Vaagen/Prosjekter/DVNA210116_Horn%c3%b8ya_Nordvisjonen_010317_TGP/Vasking%20av%20kamera/ENG19-2772.MXF</pathurl>
							<rate>
								<timebase>25</timebase>
								<ntsc>FALSE</ntsc>
							</rate>
							<duration>157</duration>
							<timecode>
								<rate>
									<timebase>25</timebase>
									<ntsc>FALSE</ntsc>
								</rate>
								<string>19:25:04:02</string>
								<frame>1747602</frame>
								<displayformat>NDF</displayformat>
								<reel>
									<name></name>
								</reel>
							</timecode>
							<media>
								<video>
									<samplecharacteristics>
										<rate>
											<timebase>25</timebase>
											<ntsc>FALSE</ntsc>
										</rate>
										<width>1920</width>
										<height>1080</height>
										<anamorphic>FALSE</anamorphic>
										<pixelaspectratio>square</pixelaspectratio>
										<fielddominance>upper</fielddominance>
									</samplecharacteristics>
								</video>
								<audio>
									<samplecharacteristics>
										<depth>16</depth>
										<samplerate>48000</samplerate>
									</samplecharacteristics>
									<channelcount>2</channelcount>
								</audio>
								<audio>
									<samplecharacteristics>
										<depth>16</depth>
										<samplerate>48000</samplerate>
									</samplecharacteristics>
									<channelcount>2</channelcount>
								</audio>
								<audio>
									<samplecharacteristics>
										<depth>16</depth>
										<samplerate>48000</samplerate>
									</samplecharacteristics>
									<channelcount>2</channelcount>
								</audio>
								<audio>
									<samplecharacteristics>
										<depth>16</depth>
										<samplerate>48000</samplerate>
									</samplecharacteristics>
									<channelcount>2</channelcount>
								</audio>
							</media>
						</file>
						<logginginfo>
							<description></description>
							<scene></scene>
							<shottake></shottake>
							<lognote></lognote>
						</logginginfo>
						<labels>
							<label2>Iris</label2>
						</labels>
					</clipitem>
					<clipitem id="clipitem-457">
						<masterclipid>masterclip-271</masterclipid>
						<name>Lundekamera.jpg</name>
						<enabled>TRUE</enabled>
						<duration>1080000</duration>
						<rate>
							<timebase>25</timebase>
							<ntsc>FALSE</ntsc>
						</rate>
						<start>55798</start>
						<end>55947</end>
						<in>90000</in>
						<out>90149</out>
						<pproTicksIn>914457600000000</pproTicksIn>
						<pproTicksOut>915971535360000</pproTicksOut>
						<alphatype>none</alphatype>
						<pixelaspectratio>square</pixelaspectratio>
						<anamorphic>FALSE</anamorphic>
						<file id="file-271">
							<name>Lundekamera.jpg</name>
							<pathurl>file://localhost/Volumes/Vaagen/Prosjekter/DVNA210116_Horn%c3%b8ya_Nordvisjonen_010317_TGP/Bakomfilm/Lundekamera.jpg</pathurl>
							<rate>
								<timebase>30</timebase>
								<ntsc>TRUE</ntsc>
							</rate>
							<timecode>
								<rate>
									<timebase>30</timebase>
									<ntsc>TRUE</ntsc>
								</rate>
								<string>00;00;00;00</string>
								<frame>0</frame>
								<displayformat>DF</displayformat>
								<reel>
									<name></name>
								</reel>
							</timecode>
							<media>
								<video>
									<samplecharacteristics>
										<rate>
											<timebase>30</timebase>
											<ntsc>TRUE</ntsc>
										</rate>
										<width>3264</width>
										<height>2448</height>
										<anamorphic>FALSE</anamorphic>
										<pixelaspectratio>square</pixelaspectratio>
										<fielddominance>none</fielddominance>
									</samplecharacteristics>
								</video>
							</media>
						</file>
							<filter>
								<effect>
									<name>Basic Motion</name>
									<effectid>basic</effectid>
									<effectcategory>motion</effectcategory>
									<effecttype>motion</effecttype>
									<mediatype>video</mediatype>
									<parameter authoringApp="PremierePro">
										<parameterid>scale</parameterid>
										<name>Scale</name>
										<valuemin>0</valuemin>
										<valuemax>1000</valuemax>
										<value>150</value>
										<keyframe>
											<when>90000</when>
											<value>140</value>
										</keyframe>
										<keyframe>
											<when>90148</when>
											<value>150</value>
										</keyframe>
									</parameter>
									<parameter authoringApp="PremierePro">
										<parameterid>rotation</parameterid>
										<name>Rotation</name>
										<valuemin>-8640</valuemin>
										<valuemax>8640</valuemax>
										<value>0</value>
									</parameter>
									<parameter authoringApp="PremierePro">
										<parameterid>center</parameterid>
										<name>Center</name>
										<value>
											<horiz>0.0119485</horiz>
											<vert>-0.0277778</vert>
										</value>
										<keyframe>
											<when>90000</when>
											<value>
												<horiz>0.0119485</horiz>
												<vert>-0.0277778</vert>
											</value>
										</keyframe>
										<keyframe>
											<when>90148</when>
											<value>
												<horiz>0.0119485</horiz>
												<vert>-0.0518791</vert>
											</value>
										</keyframe>
									</parameter>
									<parameter authoringApp="PremierePro">
										<parameterid>centerOffset</parameterid>
										<name>Anchor Point</name>
										<value>
											<horiz>0</horiz>
											<vert>0</vert>
										</value>
									</parameter>
								</effect>
							</filter>
						<logginginfo>
							<description></description>
							<scene></scene>
							<shottake></shottake>
							<lognote></lognote>
						</logginginfo>
						<labels>
							<label2>Iris</label2>
						</labels>
					</clipitem>
					<clipitem id="clipitem-458">
						<masterclipid>masterclip-272</masterclipid>
						<name>NRK2-070716.mxf</name>
						<enabled>TRUE</enabled>
						<duration>183000</duration>
						<rate>
							<timebase>25</timebase>
							<ntsc>FALSE</ntsc>
						</rate>
						<start>58294</start>
						<end>58621</end>
						<in>33350</in>
						<out>33677</out>
						<pproTicksIn>338857344000000</pproTicksIn>
						<pproTicksOut>342179873280000</pproTicksOut>
						<alphatype>none</alphatype>
						<pixelaspectratio>square</pixelaspectratio>
						<anamorphic>FALSE</anamorphic>
						<file id="file-272">
							<name>DVNA25001816AU.mxf</name>
							<pathurl>file://localhost/Volumes/Vaagen/Prosjekter/DVNA210116_Horn%c3%b8ya_Nordvisjonen_010317_TGP/Horn%c3%b8ya%20Trond/NRK2sendinger/DVNA25001816AU.mxf</pathurl>
							<rate>
								<timebase>25</timebase>
								<ntsc>FALSE</ntsc>
							</rate>
							<duration>183000</duration>
							<timecode>
								<rate>
									<timebase>25</timebase>
									<ntsc>FALSE</ntsc>
								</rate>
								<string>21:59:00:00</string>
								<frame>1978500</frame>
								<displayformat>NDF</displayformat>
								<reel>
									<name></name>
								</reel>
							</timecode>
							<media>
								<video>
									<samplecharacteristics>
										<rate>
											<timebase>25</timebase>
											<ntsc>FALSE</ntsc>
										</rate>
										<width>1920</width>
										<height>1080</height>
										<anamorphic>FALSE</anamorphic>
										<pixelaspectratio>square</pixelaspectratio>
										<fielddominance>upper</fielddominance>
									</samplecharacteristics>
								</video>
								<audio>
									<samplecharacteristics>
										<depth>16</depth>
										<samplerate>48000</samplerate>
									</samplecharacteristics>
									<channelcount>8</channelcount>
								</audio>
							</media>
						</file>
						<logginginfo>
							<description>Program 18</description>
							<scene></scene>
							<shottake></shottake>
							<lognote></lognote>
						</logginginfo>
						<labels>
							<label2>Iris</label2>
						</labels>
					</clipitem>
					<enabled>TRUE</enabled>
					<locked>FALSE</locked>
				</track>
				<track TL.SQTrackShy="0" TL.SQTrackExpandedHeight="25" TL.SQTrackExpanded="1" MZ.TrackTargeted="0">
					<clipitem id="clipitem-459">
						<masterclipid>masterclip-273</masterclipid>
						<name>2_Titler_mal/Tittelsystem_2.aep</name>
						<enabled>TRUE</enabled>
						<duration>309</duration>
						<rate>
							<timebase>25</timebase>
							<ntsc>FALSE</ntsc>
						</rate>
						<start>440</start>
						<end>557</end>
						<in>2</in>
						<out>119</out>
						<pproTicksIn>20321280000</pproTicksIn>
						<pproTicksOut>1209116160000</pproTicksOut>
						<alphatype>straight</alphatype>
						<pixelaspectratio>square</pixelaspectratio>
						<anamorphic>FALSE</anamorphic>
						<file id="file-273">
							<name>2_Titler_mal/Tittelsystem_2_001.aep</name>
							<pathurl>file://localhost/Volumes/Svartediket/FCPutveksling/NATUR/_UIN-NY_GRAFIKK2015_PremierePro-mal/Rastoff/Tittelsystem_2_001.aep</pathurl>
							<rate>
								<timebase>25</timebase>
								<ntsc>FALSE</ntsc>
							</rate>
							<duration>309</duration>
							<timecode>
								<rate>
									<timebase>25</timebase>
									<ntsc>FALSE</ntsc>
								</rate>
								<string>00:00:00:00</string>
								<frame>0</frame>
								<displayformat>NDF</displayformat>
								<reel>
									<name></name>
								</reel>
							</timecode>
							<media>
								<video>
									<samplecharacteristics>
										<rate>
											<timebase>25</timebase>
											<ntsc>FALSE</ntsc>
										</rate>
										<width>1920</width>
										<height>1080</height>
										<anamorphic>FALSE</anamorphic>
										<pixelaspectratio>square</pixelaspectratio>
										<fielddominance>lower</fielddominance>
									</samplecharacteristics>
								</video>
								<audio>
									<samplecharacteristics>
										<depth>16</depth>
										<samplerate>48000</samplerate>
									</samplecharacteristics>
									<channelcount>2</channelcount>
								</audio>
							</media>
						</file>
						<logginginfo>
							<description></description>
							<scene></scene>
							<shottake></shottake>
							<lognote></lognote>
						</logginginfo>
						<labels>
							<label2>Iris</label2>
						</labels>
					</clipitem>
					<clipitem id="clipitem-460">
						<masterclipid>masterclip-274</masterclipid>
						<name>Wipe_01.mov</name>
						<enabled>TRUE</enabled>
						<duration>177</duration>
						<rate>
							<timebase>25</timebase>
							<ntsc>FALSE</ntsc>
						</rate>
						<start>1787</start>
						<end>1817</end>
						<in>11</in>
						<out>41</out>
						<pproTicksIn>111767040000</pproTicksIn>
						<pproTicksOut>416586240000</pproTicksOut>
						<alphatype>none</alphatype>
						<pixelaspectratio>square</pixelaspectratio>
						<anamorphic>FALSE</anamorphic>
						<file id="file-274">
							<name>Wipe_01.mov</name>
							<pathurl>file://localhost/Volumes/Svartediket/FCPutveksling/NATUR/_UIN-NY_GRAFIKK2015_PremierePro-mal/Rastoff/Wipe_01.mov</pathurl>
							<rate>
								<timebase>25</timebase>
								<ntsc>FALSE</ntsc>
							</rate>
							<duration>177</duration>
							<timecode>
								<rate>
									<timebase>25</timebase>
									<ntsc>FALSE</ntsc>
								</rate>
								<string>00:00:02:18</string>
								<frame>68</frame>
								<displayformat>NDF</displayformat>
								<reel>
									<name></name>
								</reel>
							</timecode>
							<media>
								<video>
									<samplecharacteristics>
										<rate>
											<timebase>25</timebase>
											<ntsc>FALSE</ntsc>
										</rate>
										<width>1920</width>
										<height>1080</height>
										<anamorphic>FALSE</anamorphic>
										<pixelaspectratio>square</pixelaspectratio>
										<fielddominance>none</fielddominance>
									</samplecharacteristics>
								</video>
							</media>
						</file>
							<marker>
								<comment></comment>
								<name></name>
								<in>36</in>
								<out>-1</out>
							</marker>
							<marker>
								<comment></comment>
								<name>m</name>
								<in>31</in>
								<out>-1</out>
							</marker>
						<logginginfo>
							<description></description>
							<scene></scene>
							<shottake></shottake>
							<lognote></lognote>
						</logginginfo>
						<labels>
							<label2>Iris</label2>
						</labels>
					</clipitem>
					<clipitem id="clipitem-461">
						<masterclipid>masterclip-274</masterclipid>
						<name>Wipe_01.mov</name>
						<enabled>TRUE</enabled>
						<duration>177</duration>
						<rate>
							<timebase>25</timebase>
							<ntsc>FALSE</ntsc>
						</rate>
						<start>2088</start>
						<end>2118</end>
						<in>11</in>
						<out>41</out>
						<pproTicksIn>111767040000</pproTicksIn>
						<pproTicksOut>416586240000</pproTicksOut>
						<alphatype>none</alphatype>
						<file id="file-274"/>
							<marker>
								<comment></comment>
								<name></name>
								<in>36</in>
								<out>-1</out>
							</marker>
							<marker>
								<comment></comment>
								<name>m</name>
								<in>31</in>
								<out>-1</out>
							</marker>
						<logginginfo>
							<description></description>
							<scene></scene>
							<shottake></shottake>
							<lognote></lognote>
						</logginginfo>
						<labels>
							<label2>Iris</label2>
						</labels>
					</clipitem>
					<clipitem id="clipitem-462">
						<masterclipid>masterclip-274</masterclipid>
						<name>Wipe_01.mov</name>
						<enabled>TRUE</enabled>
						<duration>177</duration>
						<rate>
							<timebase>25</timebase>
							<ntsc>FALSE</ntsc>
						</rate>
						<start>3544</start>
						<end>3579</end>
						<in>11</in>
						<out>46</out>
						<pproTicksIn>111767040000</pproTicksIn>
						<pproTicksOut>467389440000</pproTicksOut>
						<alphatype>none</alphatype>
						<file id="file-274"/>
							<marker>
								<comment></comment>
								<name></name>
								<in>36</in>
								<out>-1</out>
							</marker>
							<marker>
								<comment></comment>
								<name>m</name>
								<in>31</in>
								<out>-1</out>
							</marker>
						<logginginfo>
							<description></description>
							<scene></scene>
							<shottake></shottake>
							<lognote></lognote>
						</logginginfo>
						<labels>
							<label2>Iris</label2>
						</labels>
					</clipitem>
					<clipitem id="clipitem-463">
						<masterclipid>masterclip-274</masterclipid>
						<name>Wipe_01.mov</name>
						<enabled>TRUE</enabled>
						<duration>177</duration>
						<rate>
							<timebase>25</timebase>
							<ntsc>FALSE</ntsc>
						</rate>
						<start>7097</start>
						<end>7127</end>
						<in>11</in>
						<out>41</out>
						<pproTicksIn>111767040000</pproTicksIn>
						<pproTicksOut>416586240000</pproTicksOut>
						<alphatype>none</alphatype>
						<file id="file-274"/>
							<marker>
								<comment></comment>
								<name></name>
								<in>36</in>
								<out>-1</out>
							</marker>
							<marker>
								<comment></comment>
								<name>m</name>
								<in>31</in>
								<out>-1</out>
							</marker>
						<logginginfo>
							<description></description>
							<scene></scene>
							<shottake></shottake>
							<lognote></lognote>
						</logginginfo>
						<labels>
							<label2>Violet</label2>
						</labels>
					</clipitem>
					<clipitem id="clipitem-464">
						<masterclipid>masterclip-274</masterclipid>
						<name>Wipe_01.mov</name>
						<enabled>TRUE</enabled>
						<duration>177</duration>
						<rate>
							<timebase>25</timebase>
							<ntsc>FALSE</ntsc>
						</rate>
						<start>8884</start>
						<end>8914</end>
						<in>11</in>
						<out>41</out>
						<pproTicksIn>111767040000</pproTicksIn>
						<pproTicksOut>416586240000</pproTicksOut>
						<alphatype>none</alphatype>
						<file id="file-274"/>
							<marker>
								<comment></comment>
								<name></name>
								<in>36</in>
								<out>-1</out>
							</marker>
							<marker>
								<comment></comment>
								<name>m</name>
								<in>31</in>
								<out>-1</out>
							</marker>
						<logginginfo>
							<description></description>
							<scene></scene>
							<shottake></shottake>
							<lognote></lognote>
						</logginginfo>
						<labels>
							<label2>Iris</label2>
						</labels>
					</clipitem>
					<clipitem id="clipitem-465">
						<masterclipid>masterclip-274</masterclipid>
						<name>Wipe_01.mov</name>
						<enabled>TRUE</enabled>
						<duration>177</duration>
						<rate>
							<timebase>25</timebase>
							<ntsc>FALSE</ntsc>
						</rate>
						<start>10475</start>
						<end>10505</end>
						<in>11</in>
						<out>41</out>
						<pproTicksIn>111767040000</pproTicksIn>
						<pproTicksOut>416586240000</pproTicksOut>
						<alphatype>none</alphatype>
						<file id="file-274"/>
							<marker>
								<comment></comment>
								<name></name>
								<in>36</in>
								<out>-1</out>
							</marker>
							<marker>
								<comment></comment>
								<name>m</name>
								<in>31</in>
								<out>-1</out>
							</marker>
						<logginginfo>
							<description></description>
							<scene></scene>
							<shottake></shottake>
							<lognote></lognote>
						</logginginfo>
						<labels>
							<label2>Iris</label2>
						</labels>
					</clipitem>
					<clipitem id="clipitem-466">
						<masterclipid>masterclip-274</masterclipid>
						<name>Wipe_01.mov</name>
						<enabled>TRUE</enabled>
						<duration>177</duration>
						<rate>
							<timebase>25</timebase>
							<ntsc>FALSE</ntsc>
						</rate>
						<start>16403</start>
						<end>16433</end>
						<in>11</in>
						<out>41</out>
						<pproTicksIn>111767040000</pproTicksIn>
						<pproTicksOut>416586240000</pproTicksOut>
						<alphatype>none</alphatype>
						<file id="file-274"/>
							<marker>
								<comment></comment>
								<name></name>
								<in>36</in>
								<out>-1</out>
							</marker>
							<marker>
								<comment></comment>
								<name>m</name>
								<in>31</in>
								<out>-1</out>
							</marker>
						<logginginfo>
							<description></description>
							<scene></scene>
							<shottake></shottake>
							<lognote></lognote>
						</logginginfo>
						<labels>
							<label2>Iris</label2>
						</labels>
					</clipitem>
					<clipitem id="clipitem-467">
						<masterclipid>masterclip-274</masterclipid>
						<name>Wipe_01.mov</name>
						<enabled>TRUE</enabled>
						<duration>177</duration>
						<rate>
							<timebase>25</timebase>
							<ntsc>FALSE</ntsc>
						</rate>
						<start>18023</start>
						<end>18053</end>
						<in>11</in>
						<out>41</out>
						<pproTicksIn>111767040000</pproTicksIn>
						<pproTicksOut>416586240000</pproTicksOut>
						<alphatype>none</alphatype>
						<file id="file-274"/>
							<marker>
								<comment></comment>
								<name></name>
								<in>36</in>
								<out>-1</out>
							</marker>
							<marker>
								<comment></comment>
								<name>m</name>
								<in>31</in>
								<out>-1</out>
							</marker>
						<logginginfo>
							<description></description>
							<scene></scene>
							<shottake></shottake>
							<lognote></lognote>
						</logginginfo>
						<labels>
							<label2>Iris</label2>
						</labels>
					</clipitem>
					<clipitem id="clipitem-468">
						<masterclipid>masterclip-274</masterclipid>
						<name>Wipe_01.mov</name>
						<enabled>TRUE</enabled>
						<duration>177</duration>
						<rate>
							<timebase>25</timebase>
							<ntsc>FALSE</ntsc>
						</rate>
						<start>19552</start>
						<end>19582</end>
						<in>11</in>
						<out>41</out>
						<pproTicksIn>111767040000</pproTicksIn>
						<pproTicksOut>416586240000</pproTicksOut>
						<alphatype>none</alphatype>
						<file id="file-274"/>
							<marker>
								<comment></comment>
								<name></name>
								<in>36</in>
								<out>-1</out>
							</marker>
							<marker>
								<comment></comment>
								<name>m</name>
								<in>31</in>
								<out>-1</out>
							</marker>
						<logginginfo>
							<description></description>
							<scene></scene>
							<shottake></shottake>
							<lognote></lognote>
						</logginginfo>
						<labels>
							<label2>Iris</label2>
						</labels>
					</clipitem>
					<clipitem id="clipitem-469">
						<masterclipid>masterclip-274</masterclipid>
						<name>Wipe_01.mov</name>
						<enabled>TRUE</enabled>
						<duration>177</duration>
						<rate>
							<timebase>25</timebase>
							<ntsc>FALSE</ntsc>
						</rate>
						<start>36013</start>
						<end>36043</end>
						<in>11</in>
						<out>41</out>
						<pproTicksIn>111767040000</pproTicksIn>
						<pproTicksOut>416586240000</pproTicksOut>
						<alphatype>none</alphatype>
						<file id="file-274"/>
							<marker>
								<comment></comment>
								<name></name>
								<in>36</in>
								<out>-1</out>
							</marker>
							<marker>
								<comment></comment>
								<name>m</name>
								<in>31</in>
								<out>-1</out>
							</marker>
						<logginginfo>
							<description></description>
							<scene></scene>
							<shottake></shottake>
							<lognote></lognote>
						</logginginfo>
						<labels>
							<label2>Iris</label2>
						</labels>
					</clipitem>
					<clipitem id="clipitem-470">
						<masterclipid>masterclip-274</masterclipid>
						<name>Wipe_01.mov</name>
						<enabled>TRUE</enabled>
						<duration>177</duration>
						<rate>
							<timebase>25</timebase>
							<ntsc>FALSE</ntsc>
						</rate>
						<start>58869</start>
						<end>58899</end>
						<in>11</in>
						<out>41</out>
						<pproTicksIn>111767040000</pproTicksIn>
						<pproTicksOut>416586240000</pproTicksOut>
						<alphatype>none</alphatype>
						<file id="file-274"/>
							<marker>
								<comment></comment>
								<name></name>
								<in>36</in>
								<out>-1</out>
							</marker>
							<marker>
								<comment></comment>
								<name>m</name>
								<in>31</in>
								<out>-1</out>
							</marker>
						<logginginfo>
							<description></description>
							<scene></scene>
							<shottake></shottake>
							<lognote></lognote>
						</logginginfo>
						<labels>
							<label2>Iris</label2>
						</labels>
					</clipitem>
					<clipitem id="clipitem-471">
						<masterclipid>masterclip-274</masterclipid>
						<name>Wipe_01.mov</name>
						<enabled>TRUE</enabled>
						<duration>177</duration>
						<rate>
							<timebase>25</timebase>
							<ntsc>FALSE</ntsc>
						</rate>
						<start>59891</start>
						<end>59921</end>
						<in>11</in>
						<out>41</out>
						<pproTicksIn>111767040000</pproTicksIn>
						<pproTicksOut>416586240000</pproTicksOut>
						<alphatype>none</alphatype>
						<file id="file-274"/>
							<marker>
								<comment></comment>
								<name></name>
								<in>36</in>
								<out>-1</out>
							</marker>
							<marker>
								<comment></comment>
								<name>m</name>
								<in>31</in>
								<out>-1</out>
							</marker>
						<logginginfo>
							<description></description>
							<scene></scene>
							<shottake></shottake>
							<lognote></lognote>
						</logginginfo>
						<labels>
							<label2>Iris</label2>
						</labels>
					</clipitem>
					<clipitem id="clipitem-472">
						<masterclipid>masterclip-274</masterclipid>
						<name>Wipe_01.mov</name>
						<enabled>TRUE</enabled>
						<duration>177</duration>
						<rate>
							<timebase>25</timebase>
							<ntsc>FALSE</ntsc>
						</rate>
						<start>60908</start>
						<end>60938</end>
						<in>11</in>
						<out>41</out>
						<pproTicksIn>111767040000</pproTicksIn>
						<pproTicksOut>416586240000</pproTicksOut>
						<alphatype>none</alphatype>
						<file id="file-274"/>
							<marker>
								<comment></comment>
								<name></name>
								<in>36</in>
								<out>-1</out>
							</marker>
							<marker>
								<comment></comment>
								<name>m</name>
								<in>31</in>
								<out>-1</out>
							</marker>
						<logginginfo>
							<description></description>
							<scene></scene>
							<shottake></shottake>
							<lognote></lognote>
						</logginginfo>
						<labels>
							<label2>Iris</label2>
						</labels>
					</clipitem>
					<clipitem id="clipitem-473">
						<masterclipid>masterclip-274</masterclipid>
						<name>Wipe_01.mov</name>
						<enabled>TRUE</enabled>
						<duration>177</duration>
						<rate>
							<timebase>25</timebase>
							<ntsc>FALSE</ntsc>
						</rate>
						<start>62320</start>
						<end>62350</end>
						<in>11</in>
						<out>41</out>
						<pproTicksIn>111767040000</pproTicksIn>
						<pproTicksOut>416586240000</pproTicksOut>
						<alphatype>none</alphatype>
						<file id="file-274"/>
							<marker>
								<comment></comment>
								<name></name>
								<in>36</in>
								<out>-1</out>
							</marker>
							<marker>
								<comment></comment>
								<name>m</name>
								<in>31</in>
								<out>-1</out>
							</marker>
						<logginginfo>
							<description></description>
							<scene></scene>
							<shottake></shottake>
							<lognote></lognote>
						</logginginfo>
						<labels>
							<label2>Iris</label2>
						</labels>
					</clipitem>
					<enabled>TRUE</enabled>
					<locked>FALSE</locked>
				</track>
				<track TL.SQTrackShy="0" TL.SQTrackExpandedHeight="25" TL.SQTrackExpanded="1" MZ.TrackTargeted="0">
					<transitionitem>
						<start>5</start>
						<end>15</end>
						<alignment>start-black</alignment>
						<cutPointTicks>0</cutPointTicks>
						<rate>
							<timebase>25</timebase>
							<ntsc>FALSE</ntsc>
						</rate>
						<effect>
							<name>Cross Dissolve</name>
							<effectid>Cross Dissolve</effectid>
							<effectcategory>Dissolve</effectcategory>
							<effecttype>transition</effecttype>
							<mediatype>video</mediatype>
							<wipecode>0</wipecode>
							<wipeaccuracy>100</wipeaccuracy>
							<startratio>0</startratio>
							<endratio>1</endratio>
							<reverse>FALSE</reverse>
						</effect>
					</transitionitem>
					<clipitem id="clipitem-474">
						<masterclipid>masterclip-275</masterclipid>
						<name>NRK-logo-nedeHD.psd</name>
						<enabled>TRUE</enabled>
						<duration>1080000</duration>
						<rate>
							<timebase>25</timebase>
							<ntsc>FALSE</ntsc>
						</rate>
						<start>-1</start>
						<end>-1</end>
						<in>90022</in>
						<out>90124</out>
						<pproTicksIn>914681134080000</pproTicksIn>
						<pproTicksOut>915717519360000</pproTicksOut>
						<alphatype>straight</alphatype>
						<pixelaspectratio>square</pixelaspectratio>
						<anamorphic>FALSE</anamorphic>
						<file id="file-275">
							<name>NRK-logo-nedeHD.psd</name>
							<pathurl>file://localhost/Volumes/Svartediket/FCPutveksling/NATUR/_UIN-NY_GRAFIKK2015_PremierePro-mal/Rastoff/NRK-logo-nedeHD.psd</pathurl>
							<rate>
								<timebase>30</timebase>
								<ntsc>TRUE</ntsc>
							</rate>
							<timecode>
								<rate>
									<timebase>30</timebase>
									<ntsc>TRUE</ntsc>
								</rate>
								<string>00;00;00;00</string>
								<frame>0</frame>
								<displayformat>DF</displayformat>
								<reel>
									<name></name>
								</reel>
							</timecode>
							<media>
								<video>
									<samplecharacteristics>
										<rate>
											<timebase>30</timebase>
											<ntsc>TRUE</ntsc>
										</rate>
										<width>1920</width>
										<height>1080</height>
										<anamorphic>FALSE</anamorphic>
										<pixelaspectratio>square</pixelaspectratio>
										<fielddominance>none</fielddominance>
									</samplecharacteristics>
								</video>
							</media>
						</file>
						<logginginfo>
							<description></description>
							<scene></scene>
							<shottake></shottake>
							<lognote></lognote>
						</logginginfo>
						<labels>
							<label2>Lavender</label2>
						</labels>
					</clipitem>
					<transitionitem>
						<start>97</start>
						<end>107</end>
						<alignment>end-black</alignment>
						<cutPointTicks>101606400000</cutPointTicks>
						<rate>
							<timebase>25</timebase>
							<ntsc>FALSE</ntsc>
						</rate>
						<effect>
							<name>Cross Dissolve</name>
							<effectid>Cross Dissolve</effectid>
							<effectcategory>Dissolve</effectcategory>
							<effecttype>transition</effecttype>
							<mediatype>video</mediatype>
							<wipecode>0</wipecode>
							<wipeaccuracy>100</wipeaccuracy>
							<startratio>0</startratio>
							<endratio>1</endratio>
							<reverse>FALSE</reverse>
						</effect>
					</transitionitem>
					<enabled>TRUE</enabled>
					<locked>FALSE</locked>
				</track>
				<track TL.SQTrackShy="0" TL.SQTrackExpandedHeight="25" TL.SQTrackExpanded="1" MZ.TrackTargeted="0">
					<transitionitem>
						<start>7166</start>
						<end>7176</end>
						<alignment>start-black</alignment>
						<cutPointTicks>0</cutPointTicks>
						<rate>
							<timebase>25</timebase>
							<ntsc>FALSE</ntsc>
						</rate>
						<effect>
							<name>Cross Dissolve</name>
							<effectid>Cross Dissolve</effectid>
							<effectcategory>Dissolve</effectcategory>
							<effecttype>transition</effecttype>
							<mediatype>video</mediatype>
							<wipecode>0</wipecode>
							<wipeaccuracy>100</wipeaccuracy>
							<startratio>0</startratio>
							<endratio>1</endratio>
							<reverse>FALSE</reverse>
						</effect>
					</transitionitem>
					<clipitem id="clipitem-475">
						<masterclipid>masterclip-276</masterclipid>
						<name>2a-1</name>
						<enabled>TRUE</enabled>
						<duration>1080000</duration>
						<rate>
							<timebase>25</timebase>
							<ntsc>FALSE</ntsc>
						</rate>
						<start>-1</start>
						<end>-1</end>
						<in>90083</in>
						<out>90125</out>
						<pproTicksIn>915300933120000</pproTicksIn>
						<pproTicksOut>915727680000000</pproTicksOut>
						<alphatype>straight</alphatype>
						<pixelaspectratio>square</pixelaspectratio>
						<anamorphic>FALSE</anamorphic>
						<file id="file-276">
							<name>1a-1</name>
							<mediaSource>Slug</mediaSource>
							<rate>
								<timebase>30</timebase>
								<ntsc>TRUE</ntsc>
							</rate>
							<timecode>
								<rate>
									<timebase>30</timebase>
									<ntsc>TRUE</ntsc>
								</rate>
								<string>00;00;00;00</string>
								<frame>0</frame>
								<displayformat>DF</displayformat>
								<reel>
									<name></name>
								</reel>
							</timecode>
							<media>
								<video>
									<samplecharacteristics>
										<rate>
											<timebase>30</timebase>
											<ntsc>TRUE</ntsc>
										</rate>
										<width>1920</width>
										<height>1080</height>
										<anamorphic>FALSE</anamorphic>
										<pixelaspectratio>square</pixelaspectratio>
										<fielddominance>none</fielddominance>
									</samplecharacteristics>
								</video>
							</media>
						</file>
						<logginginfo>
							<description></description>
							<scene></scene>
							<shottake></shottake>
							<lognote></lognote>
						</logginginfo>
						<labels>
							<label2>Lavender</label2>
						</labels>
					</clipitem>
					<transitionitem>
						<start>7198</start>
						<end>7208</end>
						<alignment>end-black</alignment>
						<cutPointTicks>101606400000</cutPointTicks>
						<rate>
							<timebase>25</timebase>
							<ntsc>FALSE</ntsc>
						</rate>
						<effect>
							<name>Cross Dissolve</name>
							<effectid>Cross Dissolve</effectid>
							<effectcategory>Dissolve</effectcategory>
							<effecttype>transition</effecttype>
							<mediatype>video</mediatype>
							<wipecode>0</wipecode>
							<wipeaccuracy>100</wipeaccuracy>
							<startratio>0</startratio>
							<endratio>1</endratio>
							<reverse>FALSE</reverse>
						</effect>
					</transitionitem>
					<transitionitem>
						<start>16488</start>
						<end>16497</end>
						<alignment>start-black</alignment>
						<cutPointTicks>0</cutPointTicks>
						<rate>
							<timebase>25</timebase>
							<ntsc>FALSE</ntsc>
						</rate>
						<effect>
							<name>Cross Dissolve</name>
							<effectid>Cross Dissolve</effectid>
							<effectcategory>Dissolve</effectcategory>
							<effecttype>transition</effecttype>
							<mediatype>video</mediatype>
							<wipecode>0</wipecode>
							<wipeaccuracy>100</wipeaccuracy>
							<startratio>0</startratio>
							<endratio>1</endratio>
							<reverse>FALSE</reverse>
						</effect>
					</transitionitem>
					<clipitem id="clipitem-476">
						<masterclipid>masterclip-277</masterclipid>
						<name>Sanser  1a</name>
						<enabled>TRUE</enabled>
						<duration>1080000</duration>
						<rate>
							<timebase>25</timebase>
							<ntsc>FALSE</ntsc>
						</rate>
						<start>-1</start>
						<end>-1</end>
						<in>90001</in>
						<out>90125</out>
						<pproTicksIn>914467760640000</pproTicksIn>
						<pproTicksOut>915727680000000</pproTicksOut>
						<alphatype>straight</alphatype>
						<pixelaspectratio>square</pixelaspectratio>
						<anamorphic>FALSE</anamorphic>
						<file id="file-277">
							<name>1a-1</name>
							<mediaSource>Slug</mediaSource>
							<rate>
								<timebase>30</timebase>
								<ntsc>TRUE</ntsc>
							</rate>
							<timecode>
								<rate>
									<timebase>30</timebase>
									<ntsc>TRUE</ntsc>
								</rate>
								<string>00;00;00;00</string>
								<frame>0</frame>
								<displayformat>DF</displayformat>
								<reel>
									<name></name>
								</reel>
							</timecode>
							<media>
								<video>
									<samplecharacteristics>
										<rate>
											<timebase>30</timebase>
											<ntsc>TRUE</ntsc>
										</rate>
										<width>1920</width>
										<height>1080</height>
										<anamorphic>FALSE</anamorphic>
										<pixelaspectratio>square</pixelaspectratio>
										<fielddominance>none</fielddominance>
									</samplecharacteristics>
								</video>
							</media>
						</file>
						<logginginfo>
							<description></description>
							<scene></scene>
							<shottake></shottake>
							<lognote></lognote>
						</logginginfo>
						<labels>
							<label2>Lavender</label2>
						</labels>
					</clipitem>
					<transitionitem>
						<start>16602</start>
						<end>16612</end>
						<alignment>end-black</alignment>
						<cutPointTicks>101606400000</cutPointTicks>
						<rate>
							<timebase>25</timebase>
							<ntsc>FALSE</ntsc>
						</rate>
						<effect>
							<name>Cross Dissolve</name>
							<effectid>Cross Dissolve</effectid>
							<effectcategory>Dissolve</effectcategory>
							<effecttype>transition</effecttype>
							<mediatype>video</mediatype>
							<wipecode>0</wipecode>
							<wipeaccuracy>100</wipeaccuracy>
							<startratio>0</startratio>
							<endratio>1</endratio>
							<reverse>FALSE</reverse>
						</effect>
					</transitionitem>
					<transitionitem>
						<start>18090</start>
						<end>18100</end>
						<alignment>start-black</alignment>
						<cutPointTicks>0</cutPointTicks>
						<rate>
							<timebase>25</timebase>
							<ntsc>FALSE</ntsc>
						</rate>
						<effect>
							<name>Cross Dissolve</name>
							<effectid>Cross Dissolve</effectid>
							<effectcategory>Dissolve</effectcategory>
							<effecttype>transition</effecttype>
							<mediatype>video</mediatype>
							<wipecode>0</wipecode>
							<wipeaccuracy>100</wipeaccuracy>
							<startratio>0</startratio>
							<endratio>1</endratio>
							<reverse>FALSE</reverse>
						</effect>
					</transitionitem>
					<clipitem id="clipitem-477">
						<masterclipid>masterclip-278</masterclipid>
						<name>Sanser  2b</name>
						<enabled>TRUE</enabled>
						<duration>1080000</duration>
						<rate>
							<timebase>25</timebase>
							<ntsc>FALSE</ntsc>
						</rate>
						<start>-1</start>
						<end>-1</end>
						<in>90000</in>
						<out>90125</out>
						<pproTicksIn>914457600000000</pproTicksIn>
						<pproTicksOut>915727680000000</pproTicksOut>
						<alphatype>straight</alphatype>
						<pixelaspectratio>square</pixelaspectratio>
						<anamorphic>FALSE</anamorphic>
						<file id="file-278">
							<name>1a-1</name>
							<mediaSource>Slug</mediaSource>
							<rate>
								<timebase>30</timebase>
								<ntsc>TRUE</ntsc>
							</rate>
							<timecode>
								<rate>
									<timebase>30</timebase>
									<ntsc>TRUE</ntsc>
								</rate>
								<string>00;00;00;00</string>
								<frame>0</frame>
								<displayformat>DF</displayformat>
								<reel>
									<name></name>
								</reel>
							</timecode>
							<media>
								<video>
									<samplecharacteristics>
										<rate>
											<timebase>30</timebase>
											<ntsc>TRUE</ntsc>
										</rate>
										<width>1920</width>
										<height>1080</height>
										<anamorphic>FALSE</anamorphic>
										<pixelaspectratio>square</pixelaspectratio>
										<fielddominance>none</fielddominance>
									</samplecharacteristics>
								</video>
							</media>
						</file>
						<logginginfo>
							<description></description>
							<scene></scene>
							<shottake></shottake>
							<lognote></lognote>
						</logginginfo>
						<labels>
							<label2>Lavender</label2>
						</labels>
					</clipitem>
					<transitionitem>
						<start>18205</start>
						<end>18215</end>
						<alignment>end-black</alignment>
						<cutPointTicks>101606400000</cutPointTicks>
						<rate>
							<timebase>25</timebase>
							<ntsc>FALSE</ntsc>
						</rate>
						<effect>
							<name>Cross Dissolve</name>
							<effectid>Cross Dissolve</effectid>
							<effectcategory>Dissolve</effectcategory>
							<effecttype>transition</effecttype>
							<mediatype>video</mediatype>
							<wipecode>0</wipecode>
							<wipeaccuracy>100</wipeaccuracy>
							<startratio>0</startratio>
							<endratio>1</endratio>
							<reverse>FALSE</reverse>
						</effect>
					</transitionitem>
					<clipitem id="clipitem-478">
						<masterclipid>masterclip-279</masterclipid>
						<name>Highlights2016</name>
						<enabled>TRUE</enabled>
						<duration>1080000</duration>
						<rate>
							<timebase>25</timebase>
							<ntsc>FALSE</ntsc>
						</rate>
						<start>27140</start>
						<end>-1</end>
						<in>90000</in>
						<out>90935</out>
						<pproTicksIn>914457600000000</pproTicksIn>
						<pproTicksOut>923957798400000</pproTicksOut>
						<alphatype>straight</alphatype>
						<pixelaspectratio>square</pixelaspectratio>
						<anamorphic>FALSE</anamorphic>
						<file id="file-279">
							<name>Info om sekvensene</name>
							<mediaSource>Slug</mediaSource>
							<rate>
								<timebase>30</timebase>
								<ntsc>TRUE</ntsc>
							</rate>
							<timecode>
								<rate>
									<timebase>30</timebase>
									<ntsc>TRUE</ntsc>
								</rate>
								<string>00;00;00;00</string>
								<frame>0</frame>
								<displayformat>DF</displayformat>
								<reel>
									<name></name>
								</reel>
							</timecode>
							<media>
								<video>
									<samplecharacteristics>
										<rate>
											<timebase>30</timebase>
											<ntsc>TRUE</ntsc>
										</rate>
										<width>1920</width>
										<height>1080</height>
										<anamorphic>FALSE</anamorphic>
										<pixelaspectratio>square</pixelaspectratio>
										<fielddominance>none</fielddominance>
									</samplecharacteristics>
								</video>
							</media>
						</file>
						<logginginfo>
							<description></description>
							<scene></scene>
							<shottake></shottake>
							<lognote></lognote>
						</logginginfo>
						<labels>
							<label2>Lavender</label2>
						</labels>
					</clipitem>
					<transitionitem>
						<start>28065</start>
						<end>28075</end>
						<alignment>end</alignment>
						<cutPointTicks>101606400000</cutPointTicks>
						<rate>
							<timebase>25</timebase>
							<ntsc>FALSE</ntsc>
						</rate>
						<effect>
							<name>Cross Dissolve</name>
							<effectid>Cross Dissolve</effectid>
							<effectcategory>Dissolve</effectcategory>
							<effecttype>transition</effecttype>
							<mediatype>video</mediatype>
							<wipecode>0</wipecode>
							<wipeaccuracy>100</wipeaccuracy>
							<startratio>0</startratio>
							<endratio>1</endratio>
							<reverse>FALSE</reverse>
						</effect>
					</transitionitem>
					<clipitem id="clipitem-479">
						<masterclipid>masterclip-280</masterclipid>
						<name>Highlights2016 Copy 01</name>
						<enabled>TRUE</enabled>
						<duration>1080000</duration>
						<rate>
							<timebase>25</timebase>
							<ntsc>FALSE</ntsc>
						</rate>
						<start>-1</start>
						<end>-1</end>
						<in>90006</in>
						<out>90473</out>
						<pproTicksIn>914518563840000</pproTicksIn>
						<pproTicksOut>919263582720000</pproTicksOut>
						<alphatype>straight</alphatype>
						<pixelaspectratio>square</pixelaspectratio>
						<anamorphic>FALSE</anamorphic>
						<file id="file-280">
							<name>Info om sekvensene</name>
							<mediaSource>Slug</mediaSource>
							<rate>
								<timebase>30</timebase>
								<ntsc>TRUE</ntsc>
							</rate>
							<timecode>
								<rate>
									<timebase>30</timebase>
									<ntsc>TRUE</ntsc>
								</rate>
								<string>00;00;00;00</string>
								<frame>0</frame>
								<displayformat>DF</displayformat>
								<reel>
									<name></name>
								</reel>
							</timecode>
							<media>
								<video>
									<samplecharacteristics>
										<rate>
											<timebase>30</timebase>
											<ntsc>TRUE</ntsc>
										</rate>
										<width>1920</width>
										<height>1080</height>
										<anamorphic>FALSE</anamorphic>
										<pixelaspectratio>square</pixelaspectratio>
										<fielddominance>none</fielddominance>
									</samplecharacteristics>
								</video>
							</media>
						</file>
						<logginginfo>
							<description></description>
							<scene></scene>
							<shottake></shottake>
							<lognote></lognote>
						</logginginfo>
						<labels>
							<label2>Lavender</label2>
						</labels>
					</clipitem>
					<transitionitem>
						<start>28522</start>
						<end>28532</end>
						<alignment>end</alignment>
						<cutPointTicks>101606400000</cutPointTicks>
						<rate>
							<timebase>25</timebase>
							<ntsc>FALSE</ntsc>
						</rate>
						<effect>
							<name>Cross Dissolve</name>
							<effectid>Cross Dissolve</effectid>
							<effectcategory>Dissolve</effectcategory>
							<effecttype>transition</effecttype>
							<mediatype>video</mediatype>
							<wipecode>0</wipecode>
							<wipeaccuracy>100</wipeaccuracy>
							<startratio>0</startratio>
							<endratio>1</endratio>
							<reverse>FALSE</reverse>
						</effect>
					</transitionitem>
					<clipitem id="clipitem-480">
						<masterclipid>masterclip-281</masterclipid>
						<name>Highlights2016 Copy 02</name>
						<enabled>TRUE</enabled>
						<duration>1080000</duration>
						<rate>
							<timebase>25</timebase>
							<ntsc>FALSE</ntsc>
						</rate>
						<start>-1</start>
						<end>-1</end>
						<in>89996</in>
						<out>90658</out>
						<pproTicksIn>914416957440000</pproTicksIn>
						<pproTicksOut>921143301120000</pproTicksOut>
						<alphatype>straight</alphatype>
						<pixelaspectratio>square</pixelaspectratio>
						<anamorphic>FALSE</anamorphic>
						<file id="file-281">
							<name>Info om sekvensene</name>
							<mediaSource>Slug</mediaSource>
							<rate>
								<timebase>30</timebase>
								<ntsc>TRUE</ntsc>
							</rate>
							<timecode>
								<rate>
									<timebase>30</timebase>
									<ntsc>TRUE</ntsc>
								</rate>
								<string>00;00;00;00</string>
								<frame>0</frame>
								<displayformat>DF</displayformat>
								<reel>
									<name></name>
								</reel>
							</timecode>
							<media>
								<video>
									<samplecharacteristics>
										<rate>
											<timebase>30</timebase>
											<ntsc>TRUE</ntsc>
										</rate>
										<width>1920</width>
										<height>1080</height>
										<anamorphic>FALSE</anamorphic>
										<pixelaspectratio>square</pixelaspectratio>
										<fielddominance>none</fielddominance>
									</samplecharacteristics>
								</video>
							</media>
						</file>
						<logginginfo>
							<description></description>
							<scene></scene>
							<shottake></shottake>
							<lognote></lognote>
						</logginginfo>
						<labels>
							<label2>Lavender</label2>
						</labels>
					</clipitem>
					<transitionitem>
						<start>29174</start>
						<end>29184</end>
						<alignment>center</alignment>
						<cutPointTicks>50803200000</cutPointTicks>
						<rate>
							<timebase>25</timebase>
							<ntsc>FALSE</ntsc>
						</rate>
						<effect>
							<name>Cross Dissolve</name>
							<effectid>Cross Dissolve</effectid>
							<effectcategory>Dissolve</effectcategory>
							<effecttype>transition</effecttype>
							<mediatype>video</mediatype>
							<wipecode>0</wipecode>
							<wipeaccuracy>100</wipeaccuracy>
							<startratio>0</startratio>
							<endratio>1</endratio>
							<reverse>FALSE</reverse>
						</effect>
					</transitionitem>
					<clipitem id="clipitem-481">
						<masterclipid>masterclip-282</masterclipid>
						<name>Highlights2016 Copy 03</name>
						<enabled>TRUE</enabled>
						<duration>1080000</duration>
						<rate>
							<timebase>25</timebase>
							<ntsc>FALSE</ntsc>
						</rate>
						<start>-1</start>
						<end>-1</end>
						<in>89991</in>
						<out>90489</out>
						<pproTicksIn>914366154240000</pproTicksIn>
						<pproTicksOut>919426152960000</pproTicksOut>
						<alphatype>straight</alphatype>
						<pixelaspectratio>square</pixelaspectratio>
						<anamorphic>FALSE</anamorphic>
						<file id="file-282">
							<name>Info om sekvensene</name>
							<mediaSource>Slug</mediaSource>
							<rate>
								<timebase>30</timebase>
								<ntsc>TRUE</ntsc>
							</rate>
							<timecode>
								<rate>
									<timebase>30</timebase>
									<ntsc>TRUE</ntsc>
								</rate>
								<string>00;00;00;00</string>
								<frame>0</frame>
								<displayformat>DF</displayformat>
								<reel>
									<name></name>
								</reel>
							</timecode>
							<media>
								<video>
									<samplecharacteristics>
										<rate>
											<timebase>30</timebase>
											<ntsc>TRUE</ntsc>
										</rate>
										<width>1920</width>
										<height>1080</height>
										<anamorphic>FALSE</anamorphic>
										<pixelaspectratio>square</pixelaspectratio>
										<fielddominance>none</fielddominance>
									</samplecharacteristics>
								</video>
							</media>
						</file>
						<logginginfo>
							<description></description>
							<scene></scene>
							<shottake></shottake>
							<lognote></lognote>
						</logginginfo>
						<labels>
							<label2>Lavender</label2>
						</labels>
					</clipitem>
					<transitionitem>
						<start>29662</start>
						<end>29672</end>
						<alignment>end</alignment>
						<cutPointTicks>101606400000</cutPointTicks>
						<rate>
							<timebase>25</timebase>
							<ntsc>FALSE</ntsc>
						</rate>
						<effect>
							<name>Cross Dissolve</name>
							<effectid>Cross Dissolve</effectid>
							<effectcategory>Dissolve</effectcategory>
							<effecttype>transition</effecttype>
							<mediatype>video</mediatype>
							<wipecode>0</wipecode>
							<wipeaccuracy>100</wipeaccuracy>
							<startratio>0</startratio>
							<endratio>1</endratio>
							<reverse>FALSE</reverse>
						</effect>
					</transitionitem>
					<clipitem id="clipitem-482">
						<masterclipid>masterclip-283</masterclipid>
						<name>Highlights2016 Copy 04</name>
						<enabled>TRUE</enabled>
						<duration>1080000</duration>
						<rate>
							<timebase>25</timebase>
							<ntsc>FALSE</ntsc>
						</rate>
						<start>-1</start>
						<end>-1</end>
						<in>90000</in>
						<out>90766</out>
						<pproTicksIn>914457600000000</pproTicksIn>
						<pproTicksOut>922240650240000</pproTicksOut>
						<alphatype>straight</alphatype>
						<pixelaspectratio>square</pixelaspectratio>
						<anamorphic>FALSE</anamorphic>
						<file id="file-283">
							<name>Info om sekvensene</name>
							<mediaSource>Slug</mediaSource>
							<rate>
								<timebase>30</timebase>
								<ntsc>TRUE</ntsc>
							</rate>
							<timecode>
								<rate>
									<timebase>30</timebase>
									<ntsc>TRUE</ntsc>
								</rate>
								<string>00;00;00;00</string>
								<frame>0</frame>
								<displayformat>DF</displayformat>
								<reel>
									<name></name>
								</reel>
							</timecode>
							<media>
								<video>
									<samplecharacteristics>
										<rate>
											<timebase>30</timebase>
											<ntsc>TRUE</ntsc>
										</rate>
										<width>1920</width>
										<height>1080</height>
										<anamorphic>FALSE</anamorphic>
										<pixelaspectratio>square</pixelaspectratio>
										<fielddominance>none</fielddominance>
									</samplecharacteristics>
								</video>
							</media>
						</file>
						<logginginfo>
							<description></description>
							<scene></scene>
							<shottake></shottake>
							<lognote></lognote>
						</logginginfo>
						<labels>
							<label2>Lavender</label2>
						</labels>
					</clipitem>
					<transitionitem>
						<start>30418</start>
						<end>30428</end>
						<alignment>start</alignment>
						<cutPointTicks>0</cutPointTicks>
						<rate>
							<timebase>25</timebase>
							<ntsc>FALSE</ntsc>
						</rate>
						<effect>
							<name>Cross Dissolve</name>
							<effectid>Cross Dissolve</effectid>
							<effectcategory>Dissolve</effectcategory>
							<effecttype>transition</effecttype>
							<mediatype>video</mediatype>
							<wipecode>0</wipecode>
							<wipeaccuracy>100</wipeaccuracy>
							<startratio>0</startratio>
							<endratio>1</endratio>
							<reverse>FALSE</reverse>
						</effect>
					</transitionitem>
					<clipitem id="clipitem-483">
						<masterclipid>masterclip-284</masterclipid>
						<name>Highlights2016 Copy 05</name>
						<enabled>TRUE</enabled>
						<duration>1080000</duration>
						<rate>
							<timebase>25</timebase>
							<ntsc>FALSE</ntsc>
						</rate>
						<start>-1</start>
						<end>30953</end>
						<in>90000</in>
						<out>90535</out>
						<pproTicksIn>914457600000000</pproTicksIn>
						<pproTicksOut>919893542400000</pproTicksOut>
						<alphatype>straight</alphatype>
						<pixelaspectratio>square</pixelaspectratio>
						<anamorphic>FALSE</anamorphic>
						<file id="file-284">
							<name>Info om sekvensene</name>
							<mediaSource>Slug</mediaSource>
							<rate>
								<timebase>30</timebase>
								<ntsc>TRUE</ntsc>
							</rate>
							<timecode>
								<rate>
									<timebase>30</timebase>
									<ntsc>TRUE</ntsc>
								</rate>
								<string>00;00;00;00</string>
								<frame>0</frame>
								<displayformat>DF</displayformat>
								<reel>
									<name></name>
								</reel>
							</timecode>
							<media>
								<video>
									<samplecharacteristics>
										<rate>
											<timebase>30</timebase>
											<ntsc>TRUE</ntsc>
										</rate>
										<width>1920</width>
										<height>1080</height>
										<anamorphic>FALSE</anamorphic>
										<pixelaspectratio>square</pixelaspectratio>
										<fielddominance>none</fielddominance>
									</samplecharacteristics>
								</video>
							</media>
						</file>
						<logginginfo>
							<description></description>
							<scene></scene>
							<shottake></shottake>
							<lognote></lognote>
						</logginginfo>
						<labels>
							<label2>Lavender</label2>
						</labels>
					</clipitem>
					<clipitem id="clipitem-484">
						<masterclipid>masterclip-285</masterclipid>
						<name>Nils Arne</name>
						<enabled>TRUE</enabled>
						<duration>250</duration>
						<rate>
							<timebase>25</timebase>
							<ntsc>FALSE</ntsc>
						</rate>
						<start>38129</start>
						<end>-1</end>
						<in>0</in>
						<out>152</out>
						<pproTicksIn>0</pproTicksIn>
						<pproTicksOut>1544417280000</pproTicksOut>
						<alphatype>straight</alphatype>
						<pixelaspectratio>square</pixelaspectratio>
						<anamorphic>FALSE</anamorphic>
						<file id="file-285">
							<name>B_Super_V/B_Super_VNatur_Super2.aep</name>
							<pathurl>file://localhost/Volumes/Svartediket/FCPutveksling/NATUR/_UIN-NY_GRAFIKK2015_PremierePro-mal/Rastoff/B_Super_VNatur_Super2.aep</pathurl>
							<rate>
								<timebase>25</timebase>
								<ntsc>FALSE</ntsc>
							</rate>
							<duration>250</duration>
							<timecode>
								<rate>
									<timebase>25</timebase>
									<ntsc>FALSE</ntsc>
								</rate>
								<string>00:00:00:00</string>
								<frame>0</frame>
								<displayformat>NDF</displayformat>
								<reel>
									<name></name>
								</reel>
							</timecode>
							<media>
								<video>
									<samplecharacteristics>
										<rate>
											<timebase>25</timebase>
											<ntsc>FALSE</ntsc>
										</rate>
										<width>1920</width>
										<height>1080</height>
										<anamorphic>FALSE</anamorphic>
										<pixelaspectratio>square</pixelaspectratio>
										<fielddominance>lower</fielddominance>
									</samplecharacteristics>
								</video>
								<audio>
									<samplecharacteristics>
										<depth>16</depth>
										<samplerate>48000</samplerate>
									</samplecharacteristics>
									<channelcount>2</channelcount>
								</audio>
							</media>
						</file>
							<filter>
								<effect>
									<name>Basic Motion</name>
									<effectid>basic</effectid>
									<effectcategory>motion</effectcategory>
									<effecttype>motion</effecttype>
									<mediatype>video</mediatype>
									<parameter authoringApp="PremierePro">
										<parameterid>scale</parameterid>
										<name>Scale</name>
										<valuemin>0</valuemin>
										<valuemax>1000</valuemax>
										<value>100</value>
									</parameter>
									<parameter authoringApp="PremierePro">
										<parameterid>rotation</parameterid>
										<name>Rotation</name>
										<valuemin>-8640</valuemin>
										<valuemax>8640</valuemax>
										<value>0</value>
									</parameter>
									<parameter authoringApp="PremierePro">
										<parameterid>center</parameterid>
										<name>Center</name>
										<value>
											<horiz>0</horiz>
											<vert>-0.165741</vert>
										</value>
									</parameter>
									<parameter authoringApp="PremierePro">
										<parameterid>centerOffset</parameterid>
										<name>Anchor Point</name>
										<value>
											<horiz>0</horiz>
											<vert>0</vert>
										</value>
									</parameter>
								</effect>
							</filter>
							<marker>
								<comment></comment>
								<name></name>
								<in>13</in>
								<out>-1</out>
							</marker>
						<logginginfo>
							<description></description>
							<scene></scene>
							<shottake></shottake>
							<lognote></lognote>
						</logginginfo>
						<labels>
							<label2>Rose</label2>
						</labels>
					</clipitem>
					<transitionitem>
						<start>38271</start>
						<end>38281</end>
						<alignment>end-black</alignment>
						<cutPointTicks>101606400000</cutPointTicks>
						<rate>
							<timebase>25</timebase>
							<ntsc>FALSE</ntsc>
						</rate>
						<effect>
							<name>Cross Dissolve</name>
							<effectid>Cross Dissolve</effectid>
							<effectcategory>Dissolve</effectcategory>
							<effecttype>transition</effecttype>
							<mediatype>video</mediatype>
							<wipecode>0</wipecode>
							<wipeaccuracy>100</wipeaccuracy>
							<startratio>0</startratio>
							<endratio>1</endratio>
							<reverse>FALSE</reverse>
						</effect>
					</transitionitem>
					<transitionitem>
						<start>38955</start>
						<end>38965</end>
						<alignment>start-black</alignment>
						<cutPointTicks>0</cutPointTicks>
						<rate>
							<timebase>25</timebase>
							<ntsc>FALSE</ntsc>
						</rate>
						<effect>
							<name>Cross Dissolve</name>
							<effectid>Cross Dissolve</effectid>
							<effectcategory>Dissolve</effectcategory>
							<effecttype>transition</effecttype>
							<mediatype>video</mediatype>
							<wipecode>0</wipecode>
							<wipeaccuracy>100</wipeaccuracy>
							<startratio>0</startratio>
							<endratio>1</endratio>
							<reverse>FALSE</reverse>
						</effect>
					</transitionitem>
					<clipitem id="clipitem-485">
						<masterclipid>masterclip-286</masterclipid>
						<name>Info om sekvensene Copy 24</name>
						<enabled>TRUE</enabled>
						<duration>1080000</duration>
						<rate>
							<timebase>25</timebase>
							<ntsc>FALSE</ntsc>
						</rate>
						<start>-1</start>
						<end>-1</end>
						<in>90017</in>
						<out>90147</out>
						<pproTicksIn>914630330880000</pproTicksIn>
						<pproTicksOut>915951214080000</pproTicksOut>
						<alphatype>straight</alphatype>
						<pixelaspectratio>square</pixelaspectratio>
						<anamorphic>FALSE</anamorphic>
						<file id="file-286">
							<name>Info om sekvensene</name>
							<mediaSource>Slug</mediaSource>
							<rate>
								<timebase>30</timebase>
								<ntsc>TRUE</ntsc>
							</rate>
							<timecode>
								<rate>
									<timebase>30</timebase>
									<ntsc>TRUE</ntsc>
								</rate>
								<string>00;00;00;00</string>
								<frame>0</frame>
								<displayformat>DF</displayformat>
								<reel>
									<name></name>
								</reel>
							</timecode>
							<media>
								<video>
									<samplecharacteristics>
										<rate>
											<timebase>30</timebase>
											<ntsc>TRUE</ntsc>
										</rate>
										<width>1920</width>
										<height>1080</height>
										<anamorphic>FALSE</anamorphic>
										<pixelaspectratio>square</pixelaspectratio>
										<fielddominance>none</fielddominance>
									</samplecharacteristics>
								</video>
							</media>
						</file>
							<filter>
								<effect>
									<name>Basic Motion</name>
									<effectid>basic</effectid>
									<effectcategory>motion</effectcategory>
									<effecttype>motion</effecttype>
									<mediatype>video</mediatype>
									<parameter authoringApp="PremierePro">
										<parameterid>scale</parameterid>
										<name>Scale</name>
										<valuemin>0</valuemin>
										<valuemax>1000</valuemax>
										<value>100</value>
									</parameter>
									<parameter authoringApp="PremierePro">
										<parameterid>rotation</parameterid>
										<name>Rotation</name>
										<valuemin>-8640</valuemin>
										<valuemax>8640</valuemax>
										<value>0</value>
									</parameter>
									<parameter authoringApp="PremierePro">
										<parameterid>center</parameterid>
										<name>Center</name>
										<value>
											<horiz>-0.0114583</horiz>
											<vert>0.00185186</vert>
										</value>
									</parameter>
									<parameter authoringApp="PremierePro">
										<parameterid>centerOffset</parameterid>
										<name>Anchor Point</name>
										<value>
											<horiz>0</horiz>
											<vert>0</vert>
										</value>
									</parameter>
								</effect>
							</filter>
						<logginginfo>
							<description></description>
							<scene></scene>
							<shottake></shottake>
							<lognote></lognote>
						</logginginfo>
						<labels>
							<label2>Lavender</label2>
						</labels>
					</clipitem>
					<transitionitem>
						<start>39073</start>
						<end>39085</end>
						<alignment>end-black</alignment>
						<cutPointTicks>121927680000</cutPointTicks>
						<rate>
							<timebase>25</timebase>
							<ntsc>FALSE</ntsc>
						</rate>
						<effect>
							<name>Cross Dissolve</name>
							<effectid>Cross Dissolve</effectid>
							<effectcategory>Dissolve</effectcategory>
							<effecttype>transition</effecttype>
							<mediatype>video</mediatype>
							<wipecode>0</wipecode>
							<wipeaccuracy>100</wipeaccuracy>
							<startratio>0</startratio>
							<endratio>1</endratio>
							<reverse>FALSE</reverse>
						</effect>
					</transitionitem>
					<clipitem id="clipitem-486">
						<masterclipid>masterclip-287</masterclipid>
						<name>Ivar</name>
						<enabled>TRUE</enabled>
						<duration>250</duration>
						<rate>
							<timebase>25</timebase>
							<ntsc>FALSE</ntsc>
						</rate>
						<start>39863</start>
						<end>-1</end>
						<in>0</in>
						<out>150</out>
						<pproTicksIn>0</pproTicksIn>
						<pproTicksOut>1524096000000</pproTicksOut>
						<alphatype>straight</alphatype>
						<pixelaspectratio>square</pixelaspectratio>
						<anamorphic>FALSE</anamorphic>
						<file id="file-287">
							<name>B_Super_V/B_Super_VNatur_Super2.aep</name>
							<pathurl>file://localhost/Volumes/Svartediket/FCPutveksling/NATUR/_UIN-NY_GRAFIKK2015_PremierePro-mal/Rastoff/B_Super_VNatur_Super2.aep</pathurl>
							<rate>
								<timebase>25</timebase>
								<ntsc>FALSE</ntsc>
							</rate>
							<duration>250</duration>
							<timecode>
								<rate>
									<timebase>25</timebase>
									<ntsc>FALSE</ntsc>
								</rate>
								<string>00:00:00:00</string>
								<frame>0</frame>
								<displayformat>NDF</displayformat>
								<reel>
									<name></name>
								</reel>
							</timecode>
							<media>
								<video>
									<samplecharacteristics>
										<rate>
											<timebase>25</timebase>
											<ntsc>FALSE</ntsc>
										</rate>
										<width>1920</width>
										<height>1080</height>
										<anamorphic>FALSE</anamorphic>
										<pixelaspectratio>square</pixelaspectratio>
										<fielddominance>lower</fielddominance>
									</samplecharacteristics>
								</video>
								<audio>
									<samplecharacteristics>
										<depth>16</depth>
										<samplerate>48000</samplerate>
									</samplecharacteristics>
									<channelcount>2</channelcount>
								</audio>
							</media>
						</file>
							<filter>
								<effect>
									<name>Basic Motion</name>
									<effectid>basic</effectid>
									<effectcategory>motion</effectcategory>
									<effecttype>motion</effecttype>
									<mediatype>video</mediatype>
									<parameter authoringApp="PremierePro">
										<parameterid>scale</parameterid>
										<name>Scale</name>
										<valuemin>0</valuemin>
										<valuemax>1000</valuemax>
										<value>100</value>
									</parameter>
									<parameter authoringApp="PremierePro">
										<parameterid>rotation</parameterid>
										<name>Rotation</name>
										<valuemin>-8640</valuemin>
										<valuemax>8640</valuemax>
										<value>0</value>
									</parameter>
									<parameter authoringApp="PremierePro">
										<parameterid>center</parameterid>
										<name>Center</name>
										<value>
											<horiz>0</horiz>
											<vert>-0.134259</vert>
										</value>
									</parameter>
									<parameter authoringApp="PremierePro">
										<parameterid>centerOffset</parameterid>
										<name>Anchor Point</name>
										<value>
											<horiz>0</horiz>
											<vert>0</vert>
										</value>
									</parameter>
								</effect>
							</filter>
						<logginginfo>
							<description></description>
							<scene></scene>
							<shottake></shottake>
							<lognote></lognote>
						</logginginfo>
						<labels>
							<label2>Rose</label2>
						</labels>
					</clipitem>
					<transitionitem>
						<start>40003</start>
						<end>40013</end>
						<alignment>end-black</alignment>
						<cutPointTicks>101606400000</cutPointTicks>
						<rate>
							<timebase>25</timebase>
							<ntsc>FALSE</ntsc>
						</rate>
						<effect>
							<name>Cross Dissolve</name>
							<effectid>Cross Dissolve</effectid>
							<effectcategory>Dissolve</effectcategory>
							<effecttype>transition</effecttype>
							<mediatype>video</mediatype>
							<wipecode>0</wipecode>
							<wipeaccuracy>100</wipeaccuracy>
							<startratio>0</startratio>
							<endratio>1</endratio>
							<reverse>FALSE</reverse>
						</effect>
					</transitionitem>
					<transitionitem>
						<start>46041</start>
						<end>46051</end>
						<alignment>start-black</alignment>
						<cutPointTicks>0</cutPointTicks>
						<rate>
							<timebase>25</timebase>
							<ntsc>FALSE</ntsc>
						</rate>
						<effect>
							<name>Cross Dissolve</name>
							<effectid>Cross Dissolve</effectid>
							<effectcategory>Dissolve</effectcategory>
							<effecttype>transition</effecttype>
							<mediatype>video</mediatype>
							<wipecode>0</wipecode>
							<wipeaccuracy>100</wipeaccuracy>
							<startratio>0</startratio>
							<endratio>1</endratio>
							<reverse>FALSE</reverse>
						</effect>
					</transitionitem>
					<clipitem id="clipitem-487">
						<masterclipid>masterclip-288</masterclipid>
						<name>Info om sekvensene Copy 23</name>
						<enabled>TRUE</enabled>
						<duration>1080000</duration>
						<rate>
							<timebase>25</timebase>
							<ntsc>FALSE</ntsc>
						</rate>
						<start>-1</start>
						<end>-1</end>
						<in>90017</in>
						<out>90147</out>
						<pproTicksIn>914630330880000</pproTicksIn>
						<pproTicksOut>915951214080000</pproTicksOut>
						<alphatype>straight</alphatype>
						<pixelaspectratio>square</pixelaspectratio>
						<anamorphic>FALSE</anamorphic>
						<file id="file-288">
							<name>Info om sekvensene</name>
							<mediaSource>Slug</mediaSource>
							<rate>
								<timebase>30</timebase>
								<ntsc>TRUE</ntsc>
							</rate>
							<timecode>
								<rate>
									<timebase>30</timebase>
									<ntsc>TRUE</ntsc>
								</rate>
								<string>00;00;00;00</string>
								<frame>0</frame>
								<displayformat>DF</displayformat>
								<reel>
									<name></name>
								</reel>
							</timecode>
							<media>
								<video>
									<samplecharacteristics>
										<rate>
											<timebase>30</timebase>
											<ntsc>TRUE</ntsc>
										</rate>
										<width>1920</width>
										<height>1080</height>
										<anamorphic>FALSE</anamorphic>
										<pixelaspectratio>square</pixelaspectratio>
										<fielddominance>none</fielddominance>
									</samplecharacteristics>
								</video>
							</media>
						</file>
							<filter>
								<effect>
									<name>Basic Motion</name>
									<effectid>basic</effectid>
									<effectcategory>motion</effectcategory>
									<effecttype>motion</effecttype>
									<mediatype>video</mediatype>
									<parameter authoringApp="PremierePro">
										<parameterid>scale</parameterid>
										<name>Scale</name>
										<valuemin>0</valuemin>
										<valuemax>1000</valuemax>
										<value>100</value>
									</parameter>
									<parameter authoringApp="PremierePro">
										<parameterid>rotation</parameterid>
										<name>Rotation</name>
										<valuemin>-8640</valuemin>
										<valuemax>8640</valuemax>
										<value>0</value>
									</parameter>
									<parameter authoringApp="PremierePro">
										<parameterid>center</parameterid>
										<name>Center</name>
										<value>
											<horiz>-0.0145833</horiz>
											<vert>0</vert>
										</value>
									</parameter>
									<parameter authoringApp="PremierePro">
										<parameterid>centerOffset</parameterid>
										<name>Anchor Point</name>
										<value>
											<horiz>0</horiz>
											<vert>0</vert>
										</value>
									</parameter>
								</effect>
							</filter>
						<logginginfo>
							<description></description>
							<scene></scene>
							<shottake></shottake>
							<lognote></lognote>
						</logginginfo>
						<labels>
							<label2>Lavender</label2>
						</labels>
					</clipitem>
					<transitionitem>
						<start>46159</start>
						<end>46171</end>
						<alignment>end-black</alignment>
						<cutPointTicks>121927680000</cutPointTicks>
						<rate>
							<timebase>25</timebase>
							<ntsc>FALSE</ntsc>
						</rate>
						<effect>
							<name>Cross Dissolve</name>
							<effectid>Cross Dissolve</effectid>
							<effectcategory>Dissolve</effectcategory>
							<effecttype>transition</effecttype>
							<mediatype>video</mediatype>
							<wipecode>0</wipecode>
							<wipeaccuracy>100</wipeaccuracy>
							<startratio>0</startratio>
							<endratio>1</endratio>
							<reverse>FALSE</reverse>
						</effect>
					</transitionitem>
					<transitionitem>
						<start>51029</start>
						<end>51039</end>
						<alignment>start-black</alignment>
						<cutPointTicks>0</cutPointTicks>
						<rate>
							<timebase>25</timebase>
							<ntsc>FALSE</ntsc>
						</rate>
						<effect>
							<name>Cross Dissolve</name>
							<effectid>Cross Dissolve</effectid>
							<effectcategory>Dissolve</effectcategory>
							<effecttype>transition</effecttype>
							<mediatype>video</mediatype>
							<wipecode>0</wipecode>
							<wipeaccuracy>100</wipeaccuracy>
							<startratio>0</startratio>
							<endratio>1</endratio>
							<reverse>FALSE</reverse>
						</effect>
					</transitionitem>
					<clipitem id="clipitem-488">
						<masterclipid>masterclip-289</masterclipid>
						<name>Info om sekvensene Copy 27</name>
						<enabled>TRUE</enabled>
						<duration>1080000</duration>
						<rate>
							<timebase>25</timebase>
							<ntsc>FALSE</ntsc>
						</rate>
						<start>-1</start>
						<end>-1</end>
						<in>90017</in>
						<out>90147</out>
						<pproTicksIn>914630330880000</pproTicksIn>
						<pproTicksOut>915951214080000</pproTicksOut>
						<alphatype>straight</alphatype>
						<pixelaspectratio>square</pixelaspectratio>
						<anamorphic>FALSE</anamorphic>
						<file id="file-289">
							<name>Info om sekvensene</name>
							<mediaSource>Slug</mediaSource>
							<rate>
								<timebase>30</timebase>
								<ntsc>TRUE</ntsc>
							</rate>
							<timecode>
								<rate>
									<timebase>30</timebase>
									<ntsc>TRUE</ntsc>
								</rate>
								<string>00;00;00;00</string>
								<frame>0</frame>
								<displayformat>DF</displayformat>
								<reel>
									<name></name>
								</reel>
							</timecode>
							<media>
								<video>
									<samplecharacteristics>
										<rate>
											<timebase>30</timebase>
											<ntsc>TRUE</ntsc>
										</rate>
										<width>1920</width>
										<height>1080</height>
										<anamorphic>FALSE</anamorphic>
										<pixelaspectratio>square</pixelaspectratio>
										<fielddominance>none</fielddominance>
									</samplecharacteristics>
								</video>
							</media>
						</file>
						<logginginfo>
							<description></description>
							<scene></scene>
							<shottake></shottake>
							<lognote></lognote>
						</logginginfo>
						<labels>
							<label2>Lavender</label2>
						</labels>
					</clipitem>
					<transitionitem>
						<start>51147</start>
						<end>51159</end>
						<alignment>end-black</alignment>
						<cutPointTicks>121927680000</cutPointTicks>
						<rate>
							<timebase>25</timebase>
							<ntsc>FALSE</ntsc>
						</rate>
						<effect>
							<name>Cross Dissolve</name>
							<effectid>Cross Dissolve</effectid>
							<effectcategory>Dissolve</effectcategory>
							<effecttype>transition</effecttype>
							<mediatype>video</mediatype>
							<wipecode>0</wipecode>
							<wipeaccuracy>100</wipeaccuracy>
							<startratio>0</startratio>
							<endratio>1</endratio>
							<reverse>FALSE</reverse>
						</effect>
					</transitionitem>
					<transitionitem>
						<start>53048</start>
						<end>53058</end>
						<alignment>start-black</alignment>
						<cutPointTicks>0</cutPointTicks>
						<rate>
							<timebase>25</timebase>
							<ntsc>FALSE</ntsc>
						</rate>
						<effect>
							<name>Cross Dissolve</name>
							<effectid>Cross Dissolve</effectid>
							<effectcategory>Dissolve</effectcategory>
							<effecttype>transition</effecttype>
							<mediatype>video</mediatype>
							<wipecode>0</wipecode>
							<wipeaccuracy>100</wipeaccuracy>
							<startratio>0</startratio>
							<endratio>1</endratio>
							<reverse>FALSE</reverse>
						</effect>
					</transitionitem>
					<clipitem id="clipitem-489">
						<masterclipid>masterclip-290</masterclipid>
						<name>Info om sekvensene Copy 22</name>
						<enabled>TRUE</enabled>
						<duration>1080000</duration>
						<rate>
							<timebase>25</timebase>
							<ntsc>FALSE</ntsc>
						</rate>
						<start>-1</start>
						<end>-1</end>
						<in>90017</in>
						<out>90147</out>
						<pproTicksIn>914630330880000</pproTicksIn>
						<pproTicksOut>915951214080000</pproTicksOut>
						<alphatype>straight</alphatype>
						<pixelaspectratio>square</pixelaspectratio>
						<anamorphic>FALSE</anamorphic>
						<file id="file-290">
							<name>Info om sekvensene</name>
							<mediaSource>Slug</mediaSource>
							<rate>
								<timebase>30</timebase>
								<ntsc>TRUE</ntsc>
							</rate>
							<timecode>
								<rate>
									<timebase>30</timebase>
									<ntsc>TRUE</ntsc>
								</rate>
								<string>00;00;00;00</string>
								<frame>0</frame>
								<displayformat>DF</displayformat>
								<reel>
									<name></name>
								</reel>
							</timecode>
							<media>
								<video>
									<samplecharacteristics>
										<rate>
											<timebase>30</timebase>
											<ntsc>TRUE</ntsc>
										</rate>
										<width>1920</width>
										<height>1080</height>
										<anamorphic>FALSE</anamorphic>
										<pixelaspectratio>square</pixelaspectratio>
										<fielddominance>none</fielddominance>
									</samplecharacteristics>
								</video>
							</media>
						</file>
						<logginginfo>
							<description></description>
							<scene></scene>
							<shottake></shottake>
							<lognote></lognote>
						</logginginfo>
						<labels>
							<label2>Lavender</label2>
						</labels>
					</clipitem>
					<transitionitem>
						<start>53166</start>
						<end>53178</end>
						<alignment>end-black</alignment>
						<cutPointTicks>121927680000</cutPointTicks>
						<rate>
							<timebase>25</timebase>
							<ntsc>FALSE</ntsc>
						</rate>
						<effect>
							<name>Cross Dissolve</name>
							<effectid>Cross Dissolve</effectid>
							<effectcategory>Dissolve</effectcategory>
							<effecttype>transition</effecttype>
							<mediatype>video</mediatype>
							<wipecode>0</wipecode>
							<wipeaccuracy>100</wipeaccuracy>
							<startratio>0</startratio>
							<endratio>1</endratio>
							<reverse>FALSE</reverse>
						</effect>
					</transitionitem>
					<transitionitem>
						<start>54214</start>
						<end>54224</end>
						<alignment>start-black</alignment>
						<cutPointTicks>0</cutPointTicks>
						<rate>
							<timebase>25</timebase>
							<ntsc>FALSE</ntsc>
						</rate>
						<effect>
							<name>Cross Dissolve</name>
							<effectid>Cross Dissolve</effectid>
							<effectcategory>Dissolve</effectcategory>
							<effecttype>transition</effecttype>
							<mediatype>video</mediatype>
							<wipecode>0</wipecode>
							<wipeaccuracy>100</wipeaccuracy>
							<startratio>0</startratio>
							<endratio>1</endratio>
							<reverse>FALSE</reverse>
						</effect>
					</transitionitem>
					<clipitem id="clipitem-490">
						<masterclipid>masterclip-291</masterclipid>
						<name>Info om sekvensene Copy 07</name>
						<enabled>TRUE</enabled>
						<duration>1080000</duration>
						<rate>
							<timebase>25</timebase>
							<ntsc>FALSE</ntsc>
						</rate>
						<start>-1</start>
						<end>-1</end>
						<in>90017</in>
						<out>90147</out>
						<pproTicksIn>914630330880000</pproTicksIn>
						<pproTicksOut>915951214080000</pproTicksOut>
						<alphatype>straight</alphatype>
						<pixelaspectratio>square</pixelaspectratio>
						<anamorphic>FALSE</anamorphic>
						<file id="file-291">
							<name>Info om sekvensene</name>
							<mediaSource>Slug</mediaSource>
							<rate>
								<timebase>30</timebase>
								<ntsc>TRUE</ntsc>
							</rate>
							<timecode>
								<rate>
									<timebase>30</timebase>
									<ntsc>TRUE</ntsc>
								</rate>
								<string>00;00;00;00</string>
								<frame>0</frame>
								<displayformat>DF</displayformat>
								<reel>
									<name></name>
								</reel>
							</timecode>
							<media>
								<video>
									<samplecharacteristics>
										<rate>
											<timebase>30</timebase>
											<ntsc>TRUE</ntsc>
										</rate>
										<width>1920</width>
										<height>1080</height>
										<anamorphic>FALSE</anamorphic>
										<pixelaspectratio>square</pixelaspectratio>
										<fielddominance>none</fielddominance>
									</samplecharacteristics>
								</video>
							</media>
						</file>
						<logginginfo>
							<description></description>
							<scene></scene>
							<shottake></shottake>
							<lognote></lognote>
						</logginginfo>
						<labels>
							<label2>Lavender</label2>
						</labels>
					</clipitem>
					<transitionitem>
						<start>54332</start>
						<end>54344</end>
						<alignment>end-black</alignment>
						<cutPointTicks>121927680000</cutPointTicks>
						<rate>
							<timebase>25</timebase>
							<ntsc>FALSE</ntsc>
						</rate>
						<effect>
							<name>Cross Dissolve</name>
							<effectid>Cross Dissolve</effectid>
							<effectcategory>Dissolve</effectcategory>
							<effecttype>transition</effecttype>
							<mediatype>video</mediatype>
							<wipecode>0</wipecode>
							<wipeaccuracy>100</wipeaccuracy>
							<startratio>0</startratio>
							<endratio>1</endratio>
							<reverse>FALSE</reverse>
						</effect>
					</transitionitem>
					<transitionitem>
						<start>56090</start>
						<end>56104</end>
						<alignment>start-black</alignment>
						<cutPointTicks>0</cutPointTicks>
						<rate>
							<timebase>25</timebase>
							<ntsc>FALSE</ntsc>
						</rate>
						<effect>
							<name>Cross Dissolve</name>
							<effectid>Cross Dissolve</effectid>
							<effectcategory>Dissolve</effectcategory>
							<effecttype>transition</effecttype>
							<mediatype>video</mediatype>
							<wipecode>0</wipecode>
							<wipeaccuracy>100</wipeaccuracy>
							<startratio>0</startratio>
							<endratio>1</endratio>
							<reverse>FALSE</reverse>
						</effect>
					</transitionitem>
					<clipitem id="clipitem-491">
						<masterclipid>masterclip-292</masterclipid>
						<name>Info om sekvensene Copy 21</name>
						<enabled>TRUE</enabled>
						<duration>1080000</duration>
						<rate>
							<timebase>25</timebase>
							<ntsc>FALSE</ntsc>
						</rate>
						<start>-1</start>
						<end>-1</end>
						<in>90023</in>
						<out>90147</out>
						<pproTicksIn>914691294720000</pproTicksIn>
						<pproTicksOut>915951214080000</pproTicksOut>
						<alphatype>straight</alphatype>
						<pixelaspectratio>square</pixelaspectratio>
						<anamorphic>FALSE</anamorphic>
						<file id="file-292">
							<name>Info om sekvensene</name>
							<mediaSource>Slug</mediaSource>
							<rate>
								<timebase>30</timebase>
								<ntsc>TRUE</ntsc>
							</rate>
							<timecode>
								<rate>
									<timebase>30</timebase>
									<ntsc>TRUE</ntsc>
								</rate>
								<string>00;00;00;00</string>
								<frame>0</frame>
								<displayformat>DF</displayformat>
								<reel>
									<name></name>
								</reel>
							</timecode>
							<media>
								<video>
									<samplecharacteristics>
										<rate>
											<timebase>30</timebase>
											<ntsc>TRUE</ntsc>
										</rate>
										<width>1920</width>
										<height>1080</height>
										<anamorphic>FALSE</anamorphic>
										<pixelaspectratio>square</pixelaspectratio>
										<fielddominance>none</fielddominance>
									</samplecharacteristics>
								</video>
							</media>
						</file>
						<logginginfo>
							<description></description>
							<scene></scene>
							<shottake></shottake>
							<lognote></lognote>
						</logginginfo>
						<labels>
							<label2>Lavender</label2>
						</labels>
					</clipitem>
					<transitionitem>
						<start>56203</start>
						<end>56215</end>
						<alignment>end-black</alignment>
						<cutPointTicks>121927680000</cutPointTicks>
						<rate>
							<timebase>25</timebase>
							<ntsc>FALSE</ntsc>
						</rate>
						<effect>
							<name>Cross Dissolve</name>
							<effectid>Cross Dissolve</effectid>
							<effectcategory>Dissolve</effectcategory>
							<effecttype>transition</effecttype>
							<mediatype>video</mediatype>
							<wipecode>0</wipecode>
							<wipeaccuracy>100</wipeaccuracy>
							<startratio>0</startratio>
							<endratio>1</endratio>
							<reverse>FALSE</reverse>
						</effect>
					</transitionitem>
					<transitionitem>
						<start>58934</start>
						<end>58944</end>
						<alignment>start-black</alignment>
						<cutPointTicks>0</cutPointTicks>
						<rate>
							<timebase>25</timebase>
							<ntsc>FALSE</ntsc>
						</rate>
						<effect>
							<name>Cross Dissolve</name>
							<effectid>Cross Dissolve</effectid>
							<effectcategory>Dissolve</effectcategory>
							<effecttype>transition</effecttype>
							<mediatype>video</mediatype>
							<wipecode>0</wipecode>
							<wipeaccuracy>100</wipeaccuracy>
							<startratio>0</startratio>
							<endratio>1</endratio>
							<reverse>FALSE</reverse>
						</effect>
					</transitionitem>
					<clipitem id="clipitem-492">
						<masterclipid>masterclip-293</masterclipid>
						<name>Sanser  2c</name>
						<enabled>TRUE</enabled>
						<duration>1080000</duration>
						<rate>
							<timebase>25</timebase>
							<ntsc>FALSE</ntsc>
						</rate>
						<start>-1</start>
						<end>-1</end>
						<in>90000</in>
						<out>90125</out>
						<pproTicksIn>914457600000000</pproTicksIn>
						<pproTicksOut>915727680000000</pproTicksOut>
						<alphatype>straight</alphatype>
						<pixelaspectratio>square</pixelaspectratio>
						<anamorphic>FALSE</anamorphic>
						<file id="file-293">
							<name>1a-1</name>
							<mediaSource>Slug</mediaSource>
							<rate>
								<timebase>30</timebase>
								<ntsc>TRUE</ntsc>
							</rate>
							<timecode>
								<rate>
									<timebase>30</timebase>
									<ntsc>TRUE</ntsc>
								</rate>
								<string>00;00;00;00</string>
								<frame>0</frame>
								<displayformat>DF</displayformat>
								<reel>
									<name></name>
								</reel>
							</timecode>
							<media>
								<video>
									<samplecharacteristics>
										<rate>
											<timebase>30</timebase>
											<ntsc>TRUE</ntsc>
										</rate>
										<width>1920</width>
										<height>1080</height>
										<anamorphic>FALSE</anamorphic>
										<pixelaspectratio>square</pixelaspectratio>
										<fielddominance>none</fielddominance>
									</samplecharacteristics>
								</video>
							</media>
						</file>
						<logginginfo>
							<description></description>
							<scene></scene>
							<shottake></shottake>
							<lognote></lognote>
						</logginginfo>
						<labels>
							<label2>Lavender</label2>
						</labels>
					</clipitem>
					<transitionitem>
						<start>59049</start>
						<end>59059</end>
						<alignment>end-black</alignment>
						<cutPointTicks>101606400000</cutPointTicks>
						<rate>
							<timebase>25</timebase>
							<ntsc>FALSE</ntsc>
						</rate>
						<effect>
							<name>Cross Dissolve</name>
							<effectid>Cross Dissolve</effectid>
							<effectcategory>Dissolve</effectcategory>
							<effecttype>transition</effecttype>
							<mediatype>video</mediatype>
							<wipecode>0</wipecode>
							<wipeaccuracy>100</wipeaccuracy>
							<startratio>0</startratio>
							<endratio>1</endratio>
							<reverse>FALSE</reverse>
						</effect>
					</transitionitem>
					<transitionitem>
						<start>59961</start>
						<end>59971</end>
						<alignment>start-black</alignment>
						<cutPointTicks>0</cutPointTicks>
						<rate>
							<timebase>25</timebase>
							<ntsc>FALSE</ntsc>
						</rate>
						<effect>
							<name>Cross Dissolve</name>
							<effectid>Cross Dissolve</effectid>
							<effectcategory>Dissolve</effectcategory>
							<effecttype>transition</effecttype>
							<mediatype>video</mediatype>
							<wipecode>0</wipecode>
							<wipeaccuracy>100</wipeaccuracy>
							<startratio>0</startratio>
							<endratio>1</endratio>
							<reverse>FALSE</reverse>
						</effect>
					</transitionitem>
					<clipitem id="clipitem-493">
						<masterclipid>masterclip-294</masterclipid>
						<name>int-3a</name>
						<enabled>TRUE</enabled>
						<duration>1080000</duration>
						<rate>
							<timebase>25</timebase>
							<ntsc>FALSE</ntsc>
						</rate>
						<start>-1</start>
						<end>-1</end>
						<in>90000</in>
						<out>90125</out>
						<pproTicksIn>914457600000000</pproTicksIn>
						<pproTicksOut>915727680000000</pproTicksOut>
						<alphatype>straight</alphatype>
						<pixelaspectratio>square</pixelaspectratio>
						<anamorphic>FALSE</anamorphic>
						<file id="file-294">
							<name>1a-1</name>
							<mediaSource>Slug</mediaSource>
							<rate>
								<timebase>30</timebase>
								<ntsc>TRUE</ntsc>
							</rate>
							<timecode>
								<rate>
									<timebase>30</timebase>
									<ntsc>TRUE</ntsc>
								</rate>
								<string>00;00;00;00</string>
								<frame>0</frame>
								<displayformat>DF</displayformat>
								<reel>
									<name></name>
								</reel>
							</timecode>
							<media>
								<video>
									<samplecharacteristics>
										<rate>
											<timebase>30</timebase>
											<ntsc>TRUE</ntsc>
										</rate>
										<width>1920</width>
										<height>1080</height>
										<anamorphic>FALSE</anamorphic>
										<pixelaspectratio>square</pixelaspectratio>
										<fielddominance>none</fielddominance>
									</samplecharacteristics>
								</video>
							</media>
						</file>
						<logginginfo>
							<description></description>
							<scene></scene>
							<shottake></shottake>
							<lognote></lognote>
						</logginginfo>
						<labels>
							<label2>Lavender</label2>
						</labels>
					</clipitem>
					<transitionitem>
						<start>60076</start>
						<end>60086</end>
						<alignment>end-black</alignment>
						<cutPointTicks>101606400000</cutPointTicks>
						<rate>
							<timebase>25</timebase>
							<ntsc>FALSE</ntsc>
						</rate>
						<effect>
							<name>Cross Dissolve</name>
							<effectid>Cross Dissolve</effectid>
							<effectcategory>Dissolve</effectcategory>
							<effecttype>transition</effecttype>
							<mediatype>video</mediatype>
							<wipecode>0</wipecode>
							<wipeaccuracy>100</wipeaccuracy>
							<startratio>0</startratio>
							<endratio>1</endratio>
							<reverse>FALSE</reverse>
						</effect>
					</transitionitem>
					<transitionitem>
						<start>62391</start>
						<end>62401</end>
						<alignment>start-black</alignment>
						<cutPointTicks>0</cutPointTicks>
						<rate>
							<timebase>25</timebase>
							<ntsc>FALSE</ntsc>
						</rate>
						<effect>
							<name>Cross Dissolve</name>
							<effectid>Cross Dissolve</effectid>
							<effectcategory>Dissolve</effectcategory>
							<effecttype>transition</effecttype>
							<mediatype>video</mediatype>
							<wipecode>0</wipecode>
							<wipeaccuracy>100</wipeaccuracy>
							<startratio>0</startratio>
							<endratio>1</endratio>
							<reverse>FALSE</reverse>
						</effect>
					</transitionitem>
					<clipitem id="clipitem-494">
						<masterclipid>masterclip-295</masterclipid>
						<name>Tilpasning 1c</name>
						<enabled>TRUE</enabled>
						<duration>1080000</duration>
						<rate>
							<timebase>25</timebase>
							<ntsc>FALSE</ntsc>
						</rate>
						<start>-1</start>
						<end>-1</end>
						<in>90000</in>
						<out>90125</out>
						<pproTicksIn>914457600000000</pproTicksIn>
						<pproTicksOut>915727680000000</pproTicksOut>
						<alphatype>straight</alphatype>
						<pixelaspectratio>square</pixelaspectratio>
						<anamorphic>FALSE</anamorphic>
						<file id="file-295">
							<name>1a-1</name>
							<mediaSource>Slug</mediaSource>
							<rate>
								<timebase>30</timebase>
								<ntsc>TRUE</ntsc>
							</rate>
							<timecode>
								<rate>
									<timebase>30</timebase>
									<ntsc>TRUE</ntsc>
								</rate>
								<string>00;00;00;00</string>
								<frame>0</frame>
								<displayformat>DF</displayformat>
								<reel>
									<name></name>
								</reel>
							</timecode>
							<media>
								<video>
									<samplecharacteristics>
										<rate>
											<timebase>30</timebase>
											<ntsc>TRUE</ntsc>
										</rate>
										<width>1920</width>
										<height>1080</height>
										<anamorphic>FALSE</anamorphic>
										<pixelaspectratio>square</pixelaspectratio>
										<fielddominance>none</fielddominance>
									</samplecharacteristics>
								</video>
							</media>
						</file>
						<logginginfo>
							<description></description>
							<scene></scene>
							<shottake></shottake>
							<lognote></lognote>
						</logginginfo>
						<labels>
							<label2>Lavender</label2>
						</labels>
					</clipitem>
					<transitionitem>
						<start>62506</start>
						<end>62516</end>
						<alignment>end-black</alignment>
						<cutPointTicks>101606400000</cutPointTicks>
						<rate>
							<timebase>25</timebase>
							<ntsc>FALSE</ntsc>
						</rate>
						<effect>
							<name>Cross Dissolve</name>
							<effectid>Cross Dissolve</effectid>
							<effectcategory>Dissolve</effectcategory>
							<effecttype>transition</effecttype>
							<mediatype>video</mediatype>
							<wipecode>0</wipecode>
							<wipeaccuracy>100</wipeaccuracy>
							<startratio>0</startratio>
							<endratio>1</endratio>
							<reverse>FALSE</reverse>
						</effect>
					</transitionitem>
					<enabled>TRUE</enabled>
					<locked>FALSE</locked>
				</track>
				<track TL.SQTrackShy="0" TL.SQTrackExpandedHeight="25" TL.SQTrackExpanded="1" MZ.TrackTargeted="0">
					<clipitem id="clipitem-495">
						<masterclipid>masterclip-296</masterclipid>
						<name>Highlights2016 Copy 06</name>
						<enabled>TRUE</enabled>
						<duration>1080000</duration>
						<rate>
							<timebase>25</timebase>
							<ntsc>FALSE</ntsc>
						</rate>
						<start>27140</start>
						<end>30953</end>
						<in>90007</in>
						<out>93820</out>
						<pproTicksIn>914528724480000</pproTicksIn>
						<pproTicksOut>953271244800000</pproTicksOut>
						<alphatype>straight</alphatype>
						<pixelaspectratio>square</pixelaspectratio>
						<anamorphic>FALSE</anamorphic>
						<file id="file-296">
							<name>Info om sekvensene</name>
							<mediaSource>Slug</mediaSource>
							<rate>
								<timebase>30</timebase>
								<ntsc>TRUE</ntsc>
							</rate>
							<timecode>
								<rate>
									<timebase>30</timebase>
									<ntsc>TRUE</ntsc>
								</rate>
								<string>00;00;00;00</string>
								<frame>0</frame>
								<displayformat>DF</displayformat>
								<reel>
									<name></name>
								</reel>
							</timecode>
							<media>
								<video>
									<samplecharacteristics>
										<rate>
											<timebase>30</timebase>
											<ntsc>TRUE</ntsc>
										</rate>
										<width>1920</width>
										<height>1080</height>
										<anamorphic>FALSE</anamorphic>
										<pixelaspectratio>square</pixelaspectratio>
										<fielddominance>none</fielddominance>
									</samplecharacteristics>
								</video>
							</media>
						</file>
							<filter>
								<effect>
									<name>Basic Motion</name>
									<effectid>basic</effectid>
									<effectcategory>motion</effectcategory>
									<effecttype>motion</effecttype>
									<mediatype>video</mediatype>
									<parameter authoringApp="PremierePro">
										<parameterid>scale</parameterid>
										<name>Scale</name>
										<valuemin>0</valuemin>
										<valuemax>1000</valuemax>
										<value>100</value>
									</parameter>
									<parameter authoringApp="PremierePro">
										<parameterid>rotation</parameterid>
										<name>Rotation</name>
										<valuemin>-8640</valuemin>
										<valuemax>8640</valuemax>
										<value>0</value>
									</parameter>
									<parameter authoringApp="PremierePro">
										<parameterid>center</parameterid>
										<name>Center</name>
										<value>
											<horiz>0</horiz>
											<vert>0.0435185</vert>
										</value>
									</parameter>
									<parameter authoringApp="PremierePro">
										<parameterid>centerOffset</parameterid>
										<name>Anchor Point</name>
										<value>
											<horiz>0</horiz>
											<vert>0</vert>
										</value>
									</parameter>
								</effect>
							</filter>
						<logginginfo>
							<description></description>
							<scene></scene>
							<shottake></shottake>
							<lognote></lognote>
						</logginginfo>
						<labels>
							<label2>Lavender</label2>
						</labels>
					</clipitem>
					<transitionitem>
						<start>101024</start>
						<end>101034</end>
						<alignment>start-black</alignment>
						<cutPointTicks>0</cutPointTicks>
						<rate>
							<timebase>25</timebase>
							<ntsc>FALSE</ntsc>
						</rate>
						<effect>
							<name>Cross Dissolve</name>
							<effectid>Cross Dissolve</effectid>
							<effectcategory>Dissolve</effectcategory>
							<effecttype>transition</effecttype>
							<mediatype>video</mediatype>
							<wipecode>0</wipecode>
							<wipeaccuracy>100</wipeaccuracy>
							<startratio>0</startratio>
							<endratio>1</endratio>
							<reverse>FALSE</reverse>
						</effect>
					</transitionitem>
					<clipitem id="clipitem-496">
						<masterclipid>masterclip-297</masterclipid>
						<name>Oslos ville hjerte</name>
						<enabled>TRUE</enabled>
						<duration>1080000</duration>
						<rate>
							<timebase>25</timebase>
							<ntsc>FALSE</ntsc>
						</rate>
						<start>-1</start>
						<end>-1</end>
						<in>90000</in>
						<out>90195</out>
						<pproTicksIn>914457600000000</pproTicksIn>
						<pproTicksOut>916438924800000</pproTicksOut>
						<alphatype>straight</alphatype>
						<pixelaspectratio>square</pixelaspectratio>
						<anamorphic>FALSE</anamorphic>
						<file id="file-297">
							<name>Info om sekvensene</name>
							<mediaSource>Slug</mediaSource>
							<rate>
								<timebase>30</timebase>
								<ntsc>TRUE</ntsc>
							</rate>
							<timecode>
								<rate>
									<timebase>30</timebase>
									<ntsc>TRUE</ntsc>
								</rate>
								<string>00;00;00;00</string>
								<frame>0</frame>
								<displayformat>DF</displayformat>
								<reel>
									<name></name>
								</reel>
							</timecode>
							<media>
								<video>
									<samplecharacteristics>
										<rate>
											<timebase>30</timebase>
											<ntsc>TRUE</ntsc>
										</rate>
										<width>1920</width>
										<height>1080</height>
										<anamorphic>FALSE</anamorphic>
										<pixelaspectratio>square</pixelaspectratio>
										<fielddominance>none</fielddominance>
									</samplecharacteristics>
								</video>
							</media>
						</file>
						<logginginfo>
							<description></description>
							<scene></scene>
							<shottake></shottake>
							<lognote></lognote>
						</logginginfo>
						<labels>
							<label2>Lavender</label2>
						</labels>
					</clipitem>
					<transitionitem>
						<start>101209</start>
						<end>101219</end>
						<alignment>end-black</alignment>
						<cutPointTicks>101606400000</cutPointTicks>
						<rate>
							<timebase>25</timebase>
							<ntsc>FALSE</ntsc>
						</rate>
						<effect>
							<name>Cross Dissolve</name>
							<effectid>Cross Dissolve</effectid>
							<effectcategory>Dissolve</effectcategory>
							<effecttype>transition</effecttype>
							<mediatype>video</mediatype>
							<wipecode>0</wipecode>
							<wipeaccuracy>100</wipeaccuracy>
							<startratio>0</startratio>
							<endratio>1</endratio>
							<reverse>FALSE</reverse>
						</effect>
					</transitionitem>
					<transitionitem>
						<start>101897</start>
						<end>101907</end>
						<alignment>start-black</alignment>
						<cutPointTicks>0</cutPointTicks>
						<rate>
							<timebase>25</timebase>
							<ntsc>FALSE</ntsc>
						</rate>
						<effect>
							<name>Cross Dissolve</name>
							<effectid>Cross Dissolve</effectid>
							<effectcategory>Dissolve</effectcategory>
							<effecttype>transition</effecttype>
							<mediatype>video</mediatype>
							<wipecode>0</wipecode>
							<wipeaccuracy>100</wipeaccuracy>
							<startratio>0</startratio>
							<endratio>1</endratio>
							<reverse>FALSE</reverse>
						</effect>
					</transitionitem>
					<clipitem id="clipitem-497">
						<masterclipid>masterclip-298</masterclipid>
						<name>Lyden av natur</name>
						<enabled>TRUE</enabled>
						<duration>1080000</duration>
						<rate>
							<timebase>25</timebase>
							<ntsc>FALSE</ntsc>
						</rate>
						<start>-1</start>
						<end>-1</end>
						<in>90000</in>
						<out>90164</out>
						<pproTicksIn>914457600000000</pproTicksIn>
						<pproTicksOut>916123944960000</pproTicksOut>
						<alphatype>straight</alphatype>
						<pixelaspectratio>square</pixelaspectratio>
						<anamorphic>FALSE</anamorphic>
						<file id="file-298">
							<name>Info om sekvensene</name>
							<mediaSource>Slug</mediaSource>
							<rate>
								<timebase>30</timebase>
								<ntsc>TRUE</ntsc>
							</rate>
							<timecode>
								<rate>
									<timebase>30</timebase>
									<ntsc>TRUE</ntsc>
								</rate>
								<string>00;00;00;00</string>
								<frame>0</frame>
								<displayformat>DF</displayformat>
								<reel>
									<name></name>
								</reel>
							</timecode>
							<media>
								<video>
									<samplecharacteristics>
										<rate>
											<timebase>30</timebase>
											<ntsc>TRUE</ntsc>
										</rate>
										<width>1920</width>
										<height>1080</height>
										<anamorphic>FALSE</anamorphic>
										<pixelaspectratio>square</pixelaspectratio>
										<fielddominance>none</fielddominance>
									</samplecharacteristics>
								</video>
							</media>
						</file>
						<logginginfo>
							<description></description>
							<scene></scene>
							<shottake></shottake>
							<lognote></lognote>
						</logginginfo>
						<labels>
							<label2>Lavender</label2>
						</labels>
					</clipitem>
					<transitionitem>
						<start>102051</start>
						<end>102061</end>
						<alignment>end-black</alignment>
						<cutPointTicks>101606400000</cutPointTicks>
						<rate>
							<timebase>25</timebase>
							<ntsc>FALSE</ntsc>
						</rate>
						<effect>
							<name>Cross Dissolve</name>
							<effectid>Cross Dissolve</effectid>
							<effectcategory>Dissolve</effectcategory>
							<effecttype>transition</effecttype>
							<mediatype>video</mediatype>
							<wipecode>0</wipecode>
							<wipeaccuracy>100</wipeaccuracy>
							<startratio>0</startratio>
							<endratio>1</endratio>
							<reverse>FALSE</reverse>
						</effect>
					</transitionitem>
					<enabled>TRUE</enabled>
					<locked>FALSE</locked>
				</track>
				<track TL.SQTrackShy="0" TL.SQTrackExpandedHeight="25" TL.SQTrackExpanded="1" MZ.TrackTargeted="0">
					<clipitem id="clipitem-498">
						<masterclipid>masterclip-299</masterclipid>
						<name>nrktv.png</name>
						<enabled>TRUE</enabled>
						<duration>1080000</duration>
						<rate>
							<timebase>25</timebase>
							<ntsc>FALSE</ntsc>
						</rate>
						<start>27140</start>
						<end>30953</end>
						<in>90006</in>
						<out>93819</out>
						<pproTicksIn>914518563840000</pproTicksIn>
						<pproTicksOut>953261084160000</pproTicksOut>
						<alphatype>straight</alphatype>
						<pixelaspectratio>square</pixelaspectratio>
						<anamorphic>FALSE</anamorphic>
						<file id="file-299">
							<name>nrktv.png</name>
							<pathurl>file://localhost/Volumes/Svartediket/Prosjekter/DVNA201815_Ut%20i%20naturen_FAL_010117/Grafikk/nrktv.png</pathurl>
							<rate>
								<timebase>30</timebase>
								<ntsc>TRUE</ntsc>
							</rate>
							<timecode>
								<rate>
									<timebase>30</timebase>
									<ntsc>TRUE</ntsc>
								</rate>
								<string>00;00;00;00</string>
								<frame>0</frame>
								<displayformat>DF</displayformat>
								<reel>
									<name></name>
								</reel>
							</timecode>
							<media>
								<video>
									<samplecharacteristics>
										<rate>
											<timebase>30</timebase>
											<ntsc>TRUE</ntsc>
										</rate>
										<width>1024</width>
										<height>1024</height>
										<anamorphic>FALSE</anamorphic>
										<pixelaspectratio>square</pixelaspectratio>
										<fielddominance>none</fielddominance>
									</samplecharacteristics>
								</video>
							</media>
						</file>
							<filter>
								<effect>
									<name>Basic Motion</name>
									<effectid>basic</effectid>
									<effectcategory>motion</effectcategory>
									<effecttype>motion</effecttype>
									<mediatype>video</mediatype>
									<parameter authoringApp="PremierePro">
										<parameterid>scale</parameterid>
										<name>Scale</name>
										<valuemin>0</valuemin>
										<valuemax>1000</valuemax>
										<value>15</value>
									</parameter>
									<parameter authoringApp="PremierePro">
										<parameterid>rotation</parameterid>
										<name>Rotation</name>
										<valuemin>-8640</valuemin>
										<valuemax>8640</valuemax>
										<value>0</value>
									</parameter>
									<parameter authoringApp="PremierePro">
										<parameterid>center</parameterid>
										<name>Center</name>
										<value>
											<horiz>-0.785156</horiz>
											<vert>0.337891</vert>
										</value>
									</parameter>
									<parameter authoringApp="PremierePro">
										<parameterid>centerOffset</parameterid>
										<name>Anchor Point</name>
										<value>
											<horiz>0</horiz>
											<vert>0</vert>
										</value>
									</parameter>
								</effect>
							</filter>
							<filter>
								<effect>
									<name>Opacity</name>
									<effectid>opacity</effectid>
									<effectcategory>motion</effectcategory>
									<effecttype>motion</effecttype>
									<mediatype>video</mediatype>
									<parameter authoringApp="PremierePro">
										<parameterid>opacity</parameterid>
										<name>opacity</name>
										<valuemin>0</valuemin>
										<valuemax>100</valuemax>
										<value>93.3333</value>
									</parameter>
								</effect>
							</filter>
						<logginginfo>
							<description></description>
							<scene></scene>
							<shottake></shottake>
							<lognote></lognote>
						</logginginfo>
						<labels>
							<label2>Lavender</label2>
						</labels>
					</clipitem>
					<transitionitem>
						<start>31152</start>
						<end>31162</end>
						<alignment>start-black</alignment>
						<cutPointTicks>0</cutPointTicks>
						<rate>
							<timebase>25</timebase>
							<ntsc>FALSE</ntsc>
						</rate>
						<effect>
							<name>Cross Dissolve</name>
							<effectid>Cross Dissolve</effectid>
							<effectcategory>Dissolve</effectcategory>
							<effecttype>transition</effecttype>
							<mediatype>video</mediatype>
							<wipecode>0</wipecode>
							<wipeaccuracy>100</wipeaccuracy>
							<startratio>0</startratio>
							<endratio>1</endratio>
							<reverse>FALSE</reverse>
						</effect>
					</transitionitem>
					<clipitem id="clipitem-499">
						<masterclipid>masterclip-300</masterclipid>
						<name>2017-1</name>
						<enabled>TRUE</enabled>
						<duration>1080000</duration>
						<rate>
							<timebase>25</timebase>
							<ntsc>FALSE</ntsc>
						</rate>
						<start>-1</start>
						<end>-1</end>
						<in>90000</in>
						<out>90547</out>
						<pproTicksIn>914457600000000</pproTicksIn>
						<pproTicksOut>920015470080000</pproTicksOut>
						<alphatype>straight</alphatype>
						<pixelaspectratio>square</pixelaspectratio>
						<anamorphic>FALSE</anamorphic>
						<file id="file-300">
							<name>Info om sekvensene</name>
							<mediaSource>Slug</mediaSource>
							<rate>
								<timebase>30</timebase>
								<ntsc>TRUE</ntsc>
							</rate>
							<timecode>
								<rate>
									<timebase>30</timebase>
									<ntsc>TRUE</ntsc>
								</rate>
								<string>00;00;00;00</string>
								<frame>0</frame>
								<displayformat>DF</displayformat>
								<reel>
									<name></name>
								</reel>
							</timecode>
							<media>
								<video>
									<samplecharacteristics>
										<rate>
											<timebase>30</timebase>
											<ntsc>TRUE</ntsc>
										</rate>
										<width>1920</width>
										<height>1080</height>
										<anamorphic>FALSE</anamorphic>
										<pixelaspectratio>square</pixelaspectratio>
										<fielddominance>none</fielddominance>
									</samplecharacteristics>
								</video>
							</media>
						</file>
						<logginginfo>
							<description></description>
							<scene></scene>
							<shottake></shottake>
							<lognote></lognote>
						</logginginfo>
						<labels>
							<label2>Lavender</label2>
						</labels>
					</clipitem>
					<transitionitem>
						<start>31689</start>
						<end>31699</end>
						<alignment>center</alignment>
						<cutPointTicks>50803200000</cutPointTicks>
						<rate>
							<timebase>25</timebase>
							<ntsc>FALSE</ntsc>
						</rate>
						<effect>
							<name>Cross Dissolve</name>
							<effectid>Cross Dissolve</effectid>
							<effectcategory>Dissolve</effectcategory>
							<effecttype>transition</effecttype>
							<mediatype>video</mediatype>
							<wipecode>0</wipecode>
							<wipeaccuracy>100</wipeaccuracy>
							<startratio>0</startratio>
							<endratio>1</endratio>
							<reverse>FALSE</reverse>
						</effect>
					</transitionitem>
					<clipitem id="clipitem-500">
						<masterclipid>masterclip-301</masterclipid>
						<name>2017-2</name>
						<enabled>TRUE</enabled>
						<duration>1080000</duration>
						<rate>
							<timebase>25</timebase>
							<ntsc>FALSE</ntsc>
						</rate>
						<start>-1</start>
						<end>-1</end>
						<in>89995</in>
						<out>91018</out>
						<pproTicksIn>914406796800000</pproTicksIn>
						<pproTicksOut>924801131520000</pproTicksOut>
						<alphatype>straight</alphatype>
						<pixelaspectratio>square</pixelaspectratio>
						<anamorphic>FALSE</anamorphic>
						<file id="file-301">
							<name>Info om sekvensene</name>
							<mediaSource>Slug</mediaSource>
							<rate>
								<timebase>30</timebase>
								<ntsc>TRUE</ntsc>
							</rate>
							<timecode>
								<rate>
									<timebase>30</timebase>
									<ntsc>TRUE</ntsc>
								</rate>
								<string>00;00;00;00</string>
								<frame>0</frame>
								<displayformat>DF</displayformat>
								<reel>
									<name></name>
								</reel>
							</timecode>
							<media>
								<video>
									<samplecharacteristics>
										<rate>
											<timebase>30</timebase>
											<ntsc>TRUE</ntsc>
										</rate>
										<width>1920</width>
										<height>1080</height>
										<anamorphic>FALSE</anamorphic>
										<pixelaspectratio>square</pixelaspectratio>
										<fielddominance>none</fielddominance>
									</samplecharacteristics>
								</video>
							</media>
						</file>
						<logginginfo>
							<description></description>
							<scene></scene>
							<shottake></shottake>
							<lognote></lognote>
						</logginginfo>
						<labels>
							<label2>Lavender</label2>
						</labels>
					</clipitem>
					<transitionitem>
						<start>32702</start>
						<end>32712</end>
						<alignment>start</alignment>
						<cutPointTicks>0</cutPointTicks>
						<rate>
							<timebase>25</timebase>
							<ntsc>FALSE</ntsc>
						</rate>
						<effect>
							<name>Cross Dissolve</name>
							<effectid>Cross Dissolve</effectid>
							<effectcategory>Dissolve</effectcategory>
							<effecttype>transition</effecttype>
							<mediatype>video</mediatype>
							<wipecode>0</wipecode>
							<wipeaccuracy>100</wipeaccuracy>
							<startratio>0</startratio>
							<endratio>1</endratio>
							<reverse>FALSE</reverse>
						</effect>
					</transitionitem>
					<clipitem id="clipitem-501">
						<masterclipid>masterclip-302</masterclipid>
						<name>2017-3</name>
						<enabled>TRUE</enabled>
						<duration>1080000</duration>
						<rate>
							<timebase>25</timebase>
							<ntsc>FALSE</ntsc>
						</rate>
						<start>-1</start>
						<end>-1</end>
						<in>90000</in>
						<out>90840</out>
						<pproTicksIn>914457600000000</pproTicksIn>
						<pproTicksOut>922992537600000</pproTicksOut>
						<alphatype>straight</alphatype>
						<pixelaspectratio>square</pixelaspectratio>
						<anamorphic>FALSE</anamorphic>
						<file id="file-302">
							<name>Info om sekvensene</name>
							<mediaSource>Slug</mediaSource>
							<rate>
								<timebase>30</timebase>
								<ntsc>TRUE</ntsc>
							</rate>
							<timecode>
								<rate>
									<timebase>30</timebase>
									<ntsc>TRUE</ntsc>
								</rate>
								<string>00;00;00;00</string>
								<frame>0</frame>
								<displayformat>DF</displayformat>
								<reel>
									<name></name>
								</reel>
							</timecode>
							<media>
								<video>
									<samplecharacteristics>
										<rate>
											<timebase>30</timebase>
											<ntsc>TRUE</ntsc>
										</rate>
										<width>1920</width>
										<height>1080</height>
										<anamorphic>FALSE</anamorphic>
										<pixelaspectratio>square</pixelaspectratio>
										<fielddominance>none</fielddominance>
									</samplecharacteristics>
								</video>
							</media>
						</file>
						<logginginfo>
							<description></description>
							<scene></scene>
							<shottake></shottake>
							<lognote></lognote>
						</logginginfo>
						<labels>
							<label2>Lavender</label2>
						</labels>
					</clipitem>
					<transitionitem>
						<start>33532</start>
						<end>33542</end>
						<alignment>start</alignment>
						<cutPointTicks>0</cutPointTicks>
						<rate>
							<timebase>25</timebase>
							<ntsc>FALSE</ntsc>
						</rate>
						<effect>
							<name>Cross Dissolve</name>
							<effectid>Cross Dissolve</effectid>
							<effectcategory>Dissolve</effectcategory>
							<effecttype>transition</effecttype>
							<mediatype>video</mediatype>
							<wipecode>0</wipecode>
							<wipeaccuracy>100</wipeaccuracy>
							<startratio>0</startratio>
							<endratio>1</endratio>
							<reverse>FALSE</reverse>
						</effect>
					</transitionitem>
					<clipitem id="clipitem-502">
						<masterclipid>masterclip-303</masterclipid>
						<name>2017-4</name>
						<enabled>TRUE</enabled>
						<duration>1080000</duration>
						<rate>
							<timebase>25</timebase>
							<ntsc>FALSE</ntsc>
						</rate>
						<start>-1</start>
						<end>-1</end>
						<in>89994</in>
						<out>90908</out>
						<pproTicksIn>914396636160000</pproTicksIn>
						<pproTicksOut>923683461120000</pproTicksOut>
						<alphatype>straight</alphatype>
						<pixelaspectratio>square</pixelaspectratio>
						<anamorphic>FALSE</anamorphic>
						<file id="file-303">
							<name>Info om sekvensene</name>
							<mediaSource>Slug</mediaSource>
							<rate>
								<timebase>30</timebase>
								<ntsc>TRUE</ntsc>
							</rate>
							<timecode>
								<rate>
									<timebase>30</timebase>
									<ntsc>TRUE</ntsc>
								</rate>
								<string>00;00;00;00</string>
								<frame>0</frame>
								<displayformat>DF</displayformat>
								<reel>
									<name></name>
								</reel>
							</timecode>
							<media>
								<video>
									<samplecharacteristics>
										<rate>
											<timebase>30</timebase>
											<ntsc>TRUE</ntsc>
										</rate>
										<width>1920</width>
										<height>1080</height>
										<anamorphic>FALSE</anamorphic>
										<pixelaspectratio>square</pixelaspectratio>
										<fielddominance>none</fielddominance>
									</samplecharacteristics>
								</video>
							</media>
						</file>
						<logginginfo>
							<description></description>
							<scene></scene>
							<shottake></shottake>
							<lognote></lognote>
						</logginginfo>
						<labels>
							<label2>Lavender</label2>
						</labels>
					</clipitem>
					<transitionitem>
						<start>34436</start>
						<end>34446</end>
						<alignment>start</alignment>
						<cutPointTicks>0</cutPointTicks>
						<rate>
							<timebase>25</timebase>
							<ntsc>FALSE</ntsc>
						</rate>
						<effect>
							<name>Cross Dissolve</name>
							<effectid>Cross Dissolve</effectid>
							<effectcategory>Dissolve</effectcategory>
							<effecttype>transition</effecttype>
							<mediatype>video</mediatype>
							<wipecode>0</wipecode>
							<wipeaccuracy>100</wipeaccuracy>
							<startratio>0</startratio>
							<endratio>1</endratio>
							<reverse>FALSE</reverse>
						</effect>
					</transitionitem>
					<clipitem id="clipitem-503">
						<masterclipid>masterclip-304</masterclipid>
						<name>2017-5</name>
						<enabled>TRUE</enabled>
						<duration>1080000</duration>
						<rate>
							<timebase>25</timebase>
							<ntsc>FALSE</ntsc>
						</rate>
						<start>-1</start>
						<end>35378</end>
						<in>89995</in>
						<out>90937</out>
						<pproTicksIn>914406796800000</pproTicksIn>
						<pproTicksOut>923978119680000</pproTicksOut>
						<alphatype>straight</alphatype>
						<pixelaspectratio>square</pixelaspectratio>
						<anamorphic>FALSE</anamorphic>
						<file id="file-304">
							<name>Info om sekvensene</name>
							<mediaSource>Slug</mediaSource>
							<rate>
								<timebase>30</timebase>
								<ntsc>TRUE</ntsc>
							</rate>
							<timecode>
								<rate>
									<timebase>30</timebase>
									<ntsc>TRUE</ntsc>
								</rate>
								<string>00;00;00;00</string>
								<frame>0</frame>
								<displayformat>DF</displayformat>
								<reel>
									<name></name>
								</reel>
							</timecode>
							<media>
								<video>
									<samplecharacteristics>
										<rate>
											<timebase>30</timebase>
											<ntsc>TRUE</ntsc>
										</rate>
										<width>1920</width>
										<height>1080</height>
										<anamorphic>FALSE</anamorphic>
										<pixelaspectratio>square</pixelaspectratio>
										<fielddominance>none</fielddominance>
									</samplecharacteristics>
								</video>
							</media>
						</file>
						<logginginfo>
							<description></description>
							<scene></scene>
							<shottake></shottake>
							<lognote></lognote>
						</logginginfo>
						<labels>
							<label2>Lavender</label2>
						</labels>
					</clipitem>
					<transitionitem>
						<start>35378</start>
						<end>35384</end>
						<alignment>start-black</alignment>
						<cutPointTicks>0</cutPointTicks>
						<rate>
							<timebase>25</timebase>
							<ntsc>FALSE</ntsc>
						</rate>
						<effect>
							<name>Cross Dissolve</name>
							<effectid>Cross Dissolve</effectid>
							<effectcategory>Dissolve</effectcategory>
							<effecttype>transition</effecttype>
							<mediatype>video</mediatype>
							<wipecode>0</wipecode>
							<wipeaccuracy>100</wipeaccuracy>
							<startratio>0</startratio>
							<endratio>1</endratio>
							<reverse>FALSE</reverse>
						</effect>
					</transitionitem>
					<clipitem id="clipitem-504">
						<masterclipid>masterclip-305</masterclipid>
						<name>2017-6</name>
						<enabled>TRUE</enabled>
						<duration>1080000</duration>
						<rate>
							<timebase>25</timebase>
							<ntsc>FALSE</ntsc>
						</rate>
						<start>-1</start>
						<end>-1</end>
						<in>90000</in>
						<out>90635</out>
						<pproTicksIn>914457600000000</pproTicksIn>
						<pproTicksOut>920909606400000</pproTicksOut>
						<alphatype>straight</alphatype>
						<pixelaspectratio>square</pixelaspectratio>
						<anamorphic>FALSE</anamorphic>
						<file id="file-305">
							<name>Info om sekvensene</name>
							<mediaSource>Slug</mediaSource>
							<rate>
								<timebase>30</timebase>
								<ntsc>TRUE</ntsc>
							</rate>
							<timecode>
								<rate>
									<timebase>30</timebase>
									<ntsc>TRUE</ntsc>
								</rate>
								<string>00;00;00;00</string>
								<frame>0</frame>
								<displayformat>DF</displayformat>
								<reel>
									<name></name>
								</reel>
							</timecode>
							<media>
								<video>
									<samplecharacteristics>
										<rate>
											<timebase>30</timebase>
											<ntsc>TRUE</ntsc>
										</rate>
										<width>1920</width>
										<height>1080</height>
										<anamorphic>FALSE</anamorphic>
										<pixelaspectratio>square</pixelaspectratio>
										<fielddominance>none</fielddominance>
									</samplecharacteristics>
								</video>
							</media>
						</file>
						<logginginfo>
							<description></description>
							<scene></scene>
							<shottake></shottake>
							<lognote></lognote>
						</logginginfo>
						<labels>
							<label2>Lavender</label2>
						</labels>
					</clipitem>
					<transitionitem>
						<start>36003</start>
						<end>36013</end>
						<alignment>end-black</alignment>
						<cutPointTicks>101606400000</cutPointTicks>
						<rate>
							<timebase>25</timebase>
							<ntsc>FALSE</ntsc>
						</rate>
						<effect>
							<name>Cross Dissolve</name>
							<effectid>Cross Dissolve</effectid>
							<effectcategory>Dissolve</effectcategory>
							<effecttype>transition</effecttype>
							<mediatype>video</mediatype>
							<wipecode>0</wipecode>
							<wipeaccuracy>100</wipeaccuracy>
							<startratio>0</startratio>
							<endratio>1</endratio>
							<reverse>FALSE</reverse>
						</effect>
					</transitionitem>
					<enabled>TRUE</enabled>
					<locked>FALSE</locked>
				</track>
			</video>
			<audio>
				<numOutputChannels>2</numOutputChannels>
				<format>
					<samplecharacteristics>
						<depth>16</depth>
						<samplerate>48000</samplerate>
					</samplecharacteristics>
				</format>
				<outputs>
					<group>
						<index>1</index>
						<numchannels>1</numchannels>
						<downmix>0</downmix>
						<channel>
							<index>1</index>
						</channel>
					</group>
					<group>
						<index>2</index>
						<numchannels>1</numchannels>
						<downmix>0</downmix>
						<channel>
							<index>2</index>
						</channel>
					</group>
				</outputs>
				<track TL.SQTrackAudioKeyframeStyle="0" TL.SQTrackShy="0" TL.SQTrackExpandedHeight="58" TL.SQTrackExpanded="1" MZ.TrackTargeted="0" PannerCurrentValue="0.5" PannerIsInverted="true" PannerStartKeyframe="-91445760000000000,0.5,0,0,0,0,0,0" PannerName="Balance" currentExplodedTrackIndex="0" totalExplodedTrackCount="2" premiereTrackType="Stereo">
					<clipitem id="clipitem-505" premiereChannelType="stereo">
						<masterclipid>masterclip-1</masterclipid>
						<name>AA265201.MXF</name>
						<enabled>TRUE</enabled>
						<duration>384</duration>
						<rate>
							<timebase>25</timebase>
							<ntsc>FALSE</ntsc>
						</rate>
						<start>0</start>
						<end>109</end>
						<in>125</in>
						<out>234</out>
						<pproTicksIn>1270080000000</pproTicksIn>
						<pproTicksOut>2377589760000</pproTicksOut>
						<file id="file-1"/>
						<sourcetrack>
							<mediatype>audio</mediatype>
							<trackindex>1</trackindex>
						</sourcetrack>
						<link>
							<linkclipref>clipitem-1</linkclipref>
							<mediatype>video</mediatype>
							<trackindex>1</trackindex>
							<clipindex>1</clipindex>
						</link>
						<link>
							<linkclipref>clipitem-505</linkclipref>
							<mediatype>audio</mediatype>
							<trackindex>1</trackindex>
							<clipindex>1</clipindex>
							<groupindex>1</groupindex>
						</link>
						<link>
							<linkclipref>clipitem-586</linkclipref>
							<mediatype>audio</mediatype>
							<trackindex>2</trackindex>
							<clipindex>1</clipindex>
							<groupindex>1</groupindex>
						</link>
						<logginginfo>
							<description></description>
							<scene></scene>
							<shottake></shottake>
							<lognote></lognote>
						</logginginfo>
						<labels>
							<label2>Iris</label2>
						</labels>
					</clipitem>
					<clipitem id="clipitem-506" premiereChannelType="stereo">
						<masterclipid>masterclip-2</masterclipid>
						<name>AA265301.MXF</name>
						<enabled>TRUE</enabled>
						<duration>840</duration>
						<rate>
							<timebase>25</timebase>
							<ntsc>FALSE</ntsc>
						</rate>
						<start>109</start>
						<end>134</end>
						<in>0</in>
						<out>25</out>
						<pproTicksIn>0</pproTicksIn>
						<pproTicksOut>254016000000</pproTicksOut>
						<file id="file-2"/>
						<sourcetrack>
							<mediatype>audio</mediatype>
							<trackindex>1</trackindex>
						</sourcetrack>
						<link>
							<linkclipref>clipitem-2</linkclipref>
							<mediatype>video</mediatype>
							<trackindex>1</trackindex>
							<clipindex>2</clipindex>
						</link>
						<link>
							<linkclipref>clipitem-506</linkclipref>
							<mediatype>audio</mediatype>
							<trackindex>1</trackindex>
							<clipindex>2</clipindex>
							<groupindex>1</groupindex>
						</link>
						<link>
							<linkclipref>clipitem-587</linkclipref>
							<mediatype>audio</mediatype>
							<trackindex>2</trackindex>
							<clipindex>2</clipindex>
							<groupindex>1</groupindex>
						</link>
						<logginginfo>
							<description></description>
							<scene></scene>
							<shottake></shottake>
							<lognote></lognote>
						</logginginfo>
						<labels>
							<label2>Iris</label2>
						</labels>
					</clipitem>
					<clipitem id="clipitem-507" premiereChannelType="stereo">
						<masterclipid>masterclip-3</masterclipid>
						<name>AA264901.MXF</name>
						<enabled>TRUE</enabled>
						<duration>780</duration>
						<rate>
							<timebase>25</timebase>
							<ntsc>FALSE</ntsc>
						</rate>
						<start>134</start>
						<end>159</end>
						<in>0</in>
						<out>25</out>
						<pproTicksIn>0</pproTicksIn>
						<pproTicksOut>254016000000</pproTicksOut>
						<file id="file-3"/>
						<sourcetrack>
							<mediatype>audio</mediatype>
							<trackindex>1</trackindex>
						</sourcetrack>
						<link>
							<linkclipref>clipitem-3</linkclipref>
							<mediatype>video</mediatype>
							<trackindex>1</trackindex>
							<clipindex>3</clipindex>
						</link>
						<link>
							<linkclipref>clipitem-507</linkclipref>
							<mediatype>audio</mediatype>
							<trackindex>1</trackindex>
							<clipindex>3</clipindex>
							<groupindex>1</groupindex>
						</link>
						<link>
							<linkclipref>clipitem-588</linkclipref>
							<mediatype>audio</mediatype>
							<trackindex>2</trackindex>
							<clipindex>3</clipindex>
							<groupindex>1</groupindex>
						</link>
						<logginginfo>
							<description></description>
							<scene></scene>
							<shottake></shottake>
							<lognote></lognote>
						</logginginfo>
						<labels>
							<label2>Iris</label2>
						</labels>
					</clipitem>
					<clipitem id="clipitem-508" premiereChannelType="stereo">
						<masterclipid>masterclip-4</masterclipid>
						<name>AA264401.MXF</name>
						<enabled>TRUE</enabled>
						<duration>756</duration>
						<rate>
							<timebase>25</timebase>
							<ntsc>FALSE</ntsc>
						</rate>
						<start>159</start>
						<end>188</end>
						<in>355</in>
						<out>384</out>
						<pproTicksIn>3607027200000</pproTicksIn>
						<pproTicksOut>3901685760000</pproTicksOut>
						<file id="file-4"/>
						<sourcetrack>
							<mediatype>audio</mediatype>
							<trackindex>1</trackindex>
						</sourcetrack>
						<link>
							<linkclipref>clipitem-4</linkclipref>
							<mediatype>video</mediatype>
							<trackindex>1</trackindex>
							<clipindex>4</clipindex>
						</link>
						<link>
							<linkclipref>clipitem-508</linkclipref>
							<mediatype>audio</mediatype>
							<trackindex>1</trackindex>
							<clipindex>4</clipindex>
							<groupindex>1</groupindex>
						</link>
						<link>
							<linkclipref>clipitem-589</linkclipref>
							<mediatype>audio</mediatype>
							<trackindex>2</trackindex>
							<clipindex>4</clipindex>
							<groupindex>1</groupindex>
						</link>
						<logginginfo>
							<description></description>
							<scene></scene>
							<shottake></shottake>
							<lognote></lognote>
						</logginginfo>
						<labels>
							<label2>Iris</label2>
						</labels>
					</clipitem>
					<clipitem id="clipitem-509" premiereChannelType="stereo">
						<masterclipid>masterclip-5</masterclipid>
						<name>AA259301.MXF</name>
						<enabled>TRUE</enabled>
						<duration>2340</duration>
						<rate>
							<timebase>25</timebase>
							<ntsc>FALSE</ntsc>
						</rate>
						<start>188</start>
						<end>218</end>
						<in>490</in>
						<out>520</out>
						<pproTicksIn>4978713600000</pproTicksIn>
						<pproTicksOut>5283532800000</pproTicksOut>
						<file id="file-5"/>
						<sourcetrack>
							<mediatype>audio</mediatype>
							<trackindex>1</trackindex>
						</sourcetrack>
						<link>
							<linkclipref>clipitem-5</linkclipref>
							<mediatype>video</mediatype>
							<trackindex>1</trackindex>
							<clipindex>5</clipindex>
						</link>
						<link>
							<linkclipref>clipitem-509</linkclipref>
							<mediatype>audio</mediatype>
							<trackindex>1</trackindex>
							<clipindex>5</clipindex>
							<groupindex>1</groupindex>
						</link>
						<link>
							<linkclipref>clipitem-590</linkclipref>
							<mediatype>audio</mediatype>
							<trackindex>2</trackindex>
							<clipindex>5</clipindex>
							<groupindex>1</groupindex>
						</link>
						<logginginfo>
							<description></description>
							<scene></scene>
							<shottake></shottake>
							<lognote></lognote>
						</logginginfo>
						<labels>
							<label2>Iris</label2>
						</labels>
					</clipitem>
					<clipitem id="clipitem-510" premiereChannelType="stereo">
						<masterclipid>masterclip-1</masterclipid>
						<name>AA265201.MXF</name>
						<enabled>TRUE</enabled>
						<duration>384</duration>
						<rate>
							<timebase>25</timebase>
							<ntsc>FALSE</ntsc>
						</rate>
						<start>218</start>
						<end>243</end>
						<in>304</in>
						<out>329</out>
						<pproTicksIn>3088834560000</pproTicksIn>
						<pproTicksOut>3342850560000</pproTicksOut>
						<file id="file-1"/>
						<sourcetrack>
							<mediatype>audio</mediatype>
							<trackindex>1</trackindex>
						</sourcetrack>
						<link>
							<linkclipref>clipitem-6</linkclipref>
							<mediatype>video</mediatype>
							<trackindex>1</trackindex>
							<clipindex>6</clipindex>
						</link>
						<link>
							<linkclipref>clipitem-510</linkclipref>
							<mediatype>audio</mediatype>
							<trackindex>1</trackindex>
							<clipindex>6</clipindex>
							<groupindex>1</groupindex>
						</link>
						<link>
							<linkclipref>clipitem-591</linkclipref>
							<mediatype>audio</mediatype>
							<trackindex>2</trackindex>
							<clipindex>6</clipindex>
							<groupindex>1</groupindex>
						</link>
						<logginginfo>
							<description></description>
							<scene></scene>
							<shottake></shottake>
							<lognote></lognote>
						</logginginfo>
						<labels>
							<label2>Iris</label2>
						</labels>
					</clipitem>
					<clipitem id="clipitem-511" premiereChannelType="stereo">
						<masterclipid>masterclip-6</masterclipid>
						<name>AA259401.MXF</name>
						<enabled>TRUE</enabled>
						<duration>708</duration>
						<rate>
							<timebase>25</timebase>
							<ntsc>FALSE</ntsc>
						</rate>
						<start>243</start>
						<end>272</end>
						<in>24</in>
						<out>53</out>
						<pproTicksIn>243855360000</pproTicksIn>
						<pproTicksOut>538513920000</pproTicksOut>
						<file id="file-6"/>
						<sourcetrack>
							<mediatype>audio</mediatype>
							<trackindex>1</trackindex>
						</sourcetrack>
						<link>
							<linkclipref>clipitem-7</linkclipref>
							<mediatype>video</mediatype>
							<trackindex>1</trackindex>
							<clipindex>7</clipindex>
						</link>
						<link>
							<linkclipref>clipitem-511</linkclipref>
							<mediatype>audio</mediatype>
							<trackindex>1</trackindex>
							<clipindex>7</clipindex>
							<groupindex>1</groupindex>
						</link>
						<link>
							<linkclipref>clipitem-592</linkclipref>
							<mediatype>audio</mediatype>
							<trackindex>2</trackindex>
							<clipindex>7</clipindex>
							<groupindex>1</groupindex>
						</link>
						<logginginfo>
							<description></description>
							<scene></scene>
							<shottake></shottake>
							<lognote></lognote>
						</logginginfo>
						<labels>
							<label2>Iris</label2>
						</labels>
					</clipitem>
					<clipitem id="clipitem-512" premiereChannelType="stereo">
						<masterclipid>masterclip-7</masterclipid>
						<name>AA264301.MXF</name>
						<enabled>TRUE</enabled>
						<duration>648</duration>
						<rate>
							<timebase>25</timebase>
							<ntsc>FALSE</ntsc>
						</rate>
						<start>272</start>
						<end>301</end>
						<in>0</in>
						<out>29</out>
						<pproTicksIn>0</pproTicksIn>
						<pproTicksOut>294658560000</pproTicksOut>
						<file id="file-7"/>
						<sourcetrack>
							<mediatype>audio</mediatype>
							<trackindex>1</trackindex>
						</sourcetrack>
						<link>
							<linkclipref>clipitem-8</linkclipref>
							<mediatype>video</mediatype>
							<trackindex>1</trackindex>
							<clipindex>8</clipindex>
						</link>
						<link>
							<linkclipref>clipitem-512</linkclipref>
							<mediatype>audio</mediatype>
							<trackindex>1</trackindex>
							<clipindex>8</clipindex>
							<groupindex>1</groupindex>
						</link>
						<link>
							<linkclipref>clipitem-593</linkclipref>
							<mediatype>audio</mediatype>
							<trackindex>2</trackindex>
							<clipindex>8</clipindex>
							<groupindex>1</groupindex>
						</link>
						<logginginfo>
							<description></description>
							<scene></scene>
							<shottake></shottake>
							<lognote></lognote>
						</logginginfo>
						<labels>
							<label2>Iris</label2>
						</labels>
					</clipitem>
					<clipitem id="clipitem-513" premiereChannelType="stereo">
						<masterclipid>masterclip-8</masterclipid>
						<name>AA259701.MXF</name>
						<enabled>TRUE</enabled>
						<duration>300</duration>
						<rate>
							<timebase>25</timebase>
							<ntsc>FALSE</ntsc>
						</rate>
						<start>301</start>
						<end>409</end>
						<in>29</in>
						<out>137</out>
						<pproTicksIn>294658560000</pproTicksIn>
						<pproTicksOut>1392007680000</pproTicksOut>
						<file id="file-8"/>
						<sourcetrack>
							<mediatype>audio</mediatype>
							<trackindex>1</trackindex>
						</sourcetrack>
						<link>
							<linkclipref>clipitem-9</linkclipref>
							<mediatype>video</mediatype>
							<trackindex>1</trackindex>
							<clipindex>9</clipindex>
						</link>
						<link>
							<linkclipref>clipitem-513</linkclipref>
							<mediatype>audio</mediatype>
							<trackindex>1</trackindex>
							<clipindex>9</clipindex>
							<groupindex>1</groupindex>
						</link>
						<link>
							<linkclipref>clipitem-594</linkclipref>
							<mediatype>audio</mediatype>
							<trackindex>2</trackindex>
							<clipindex>9</clipindex>
							<groupindex>1</groupindex>
						</link>
						<logginginfo>
							<description></description>
							<scene></scene>
							<shottake></shottake>
							<lognote></lognote>
						</logginginfo>
						<labels>
							<label2>Iris</label2>
						</labels>
					</clipitem>
					<clipitem id="clipitem-514" premiereChannelType="stereo">
						<masterclipid>masterclip-9</masterclipid>
						<name>GOPR9723.MP4</name>
						<enabled>TRUE</enabled>
						<duration>397</duration>
						<rate>
							<timebase>25</timebase>
							<ntsc>FALSE</ntsc>
						</rate>
						<start>409</start>
						<end>435</end>
						<in>25</in>
						<out>51</out>
						<pproTicksIn>772208640000</pproTicksIn>
						<pproTicksOut>1564738560000</pproTicksOut>
						<file id="file-9"/>
						<sourcetrack>
							<mediatype>audio</mediatype>
							<trackindex>1</trackindex>
						</sourcetrack>
							<filter>
								<effect>
									<name>Time Remap</name>
									<effectid>timeremap</effectid>
									<effectcategory>motion</effectcategory>
									<effecttype>motion</effecttype>
									<mediatype>audio</mediatype>
									<parameter authoringApp="PremierePro">
										<parameterid>variablespeed</parameterid>
										<name>variablespeed</name>
										<valuemin>0</valuemin>
										<valuemax>1</valuemax>
										<value>0</value>
									</parameter>
									<parameter authoringApp="PremierePro">
										<parameterid>speed</parameterid>
										<name>speed</name>
										<valuemin>-100000</valuemin>
										<valuemax>100000</valuemax>
										<value>300</value>
									</parameter>
									<parameter authoringApp="PremierePro">
										<parameterid>reverse</parameterid>
										<name>reverse</name>
										<value>FALSE</value>
									</parameter>
									<parameter authoringApp="PremierePro">
										<parameterid>frameblending</parameterid>
										<name>frameblending</name>
										<value>FALSE</value>
									</parameter>
									<parameter authoringApp="PremierePro">
										<parameterid>graphdict</parameterid>
										<name>graphdict</name>
										<valuemin>0</valuemin>
										<valuemax>1191</valuemax>
										<value>0</value>
										<keyframe>
											<when>0</when>
											<value>0</value>
											<speedvirtualkf>TRUE</speedvirtualkf>
											<speedkfstart>TRUE</speedkfstart>
										</keyframe>
										<keyframe>
											<when>25</when>
											<value>75</value>
											<speedvirtualkf>TRUE</speedvirtualkf>
											<speedkfin>TRUE</speedkfin>
										</keyframe>
										<keyframe>
											<when>51</when>
											<value>153</value>
											<speedvirtualkf>TRUE</speedvirtualkf>
											<speedkfout>TRUE</speedkfout>
										</keyframe>
										<keyframe>
											<when>397</when>
											<value>1191</value>
											<speedvirtualkf>TRUE</speedvirtualkf>
											<speedkfend>TRUE</speedkfend>
										</keyframe>
										<interpolation>
											<name>FCPCurve</name>
										</interpolation>
									</parameter>
								</effect>
							</filter>
						<link>
							<linkclipref>clipitem-10</linkclipref>
							<mediatype>video</mediatype>
							<trackindex>1</trackindex>
							<clipindex>10</clipindex>
						</link>
						<link>
							<linkclipref>clipitem-514</linkclipref>
							<mediatype>audio</mediatype>
							<trackindex>1</trackindex>
							<clipindex>10</clipindex>
							<groupindex>1</groupindex>
						</link>
						<link>
							<linkclipref>clipitem-595</linkclipref>
							<mediatype>audio</mediatype>
							<trackindex>2</trackindex>
							<clipindex>10</clipindex>
							<groupindex>1</groupindex>
						</link>
						<logginginfo>
							<description></description>
							<scene></scene>
							<shottake></shottake>
							<lognote></lognote>
						</logginginfo>
						<labels>
							<label2>Iris</label2>
						</labels>
					</clipitem>
					<clipitem id="clipitem-515" premiereChannelType="mono">
						<masterclipid>masterclip-188</masterclipid>
						<name>delfin-191016-2004.mxf</name>
						<enabled>TRUE</enabled>
						<duration>241</duration>
						<rate>
							<timebase>25</timebase>
							<ntsc>FALSE</ntsc>
						</rate>
						<start>11196</start>
						<end>-1</end>
						<in>25</in>
						<out>152</out>
						<pproTicksIn>254016000000</pproTicksIn>
						<pproTicksOut>1544417280000</pproTicksOut>
						<file id="file-188"/>
						<sourcetrack>
							<mediatype>audio</mediatype>
							<trackindex>1</trackindex>
						</sourcetrack>
						<link>
							<linkclipref>clipitem-281</linkclipref>
							<mediatype>video</mediatype>
							<trackindex>2</trackindex>
							<clipindex>25</clipindex>
						</link>
						<link>
							<linkclipref>clipitem-515</linkclipref>
							<mediatype>audio</mediatype>
							<trackindex>1</trackindex>
							<clipindex>11</clipindex>
							<groupindex>1</groupindex>
						</link>
						<link>
							<linkclipref>clipitem-608</linkclipref>
							<mediatype>audio</mediatype>
							<trackindex>3</trackindex>
							<clipindex>11</clipindex>
							<groupindex>1</groupindex>
						</link>
						<link>
							<linkclipref>clipitem-665</linkclipref>
							<mediatype>audio</mediatype>
							<trackindex>5</trackindex>
							<clipindex>2</clipindex>
							<groupindex>1</groupindex>
						</link>
						<link>
							<linkclipref>clipitem-695</linkclipref>
							<mediatype>audio</mediatype>
							<trackindex>7</trackindex>
							<clipindex>1</clipindex>
							<groupindex>1</groupindex>
						</link>
						<logginginfo>
							<description></description>
							<scene></scene>
							<shottake></shottake>
							<lognote></lognote>
						</logginginfo>
						<labels>
							<label2>Iris</label2>
						</labels>
					</clipitem>
					<transitionitem>
						<start>11310</start>
						<end>11323</end>
						<alignment>center</alignment>
						<cutPointTicks>60963840000</cutPointTicks>
						<rate>
							<timebase>25</timebase>
							<ntsc>FALSE</ntsc>
						</rate>
						<effect>
							<name>Cross Fade (+3dB)</name>
							<effectid>KGAudioTransCrossFade3dB</effectid>
							<effecttype>transition</effecttype>
							<mediatype>audio</mediatype>
							<wipecode>0</wipecode>
							<wipeaccuracy>100</wipeaccuracy>
							<startratio>0</startratio>
							<endratio>1</endratio>
							<reverse>FALSE</reverse>
						</effect>
					</transitionitem>
					<clipitem id="clipitem-516" premiereChannelType="mono">
						<masterclipid>masterclip-31</masterclipid>
						<name>delfin-191016-2006.mxf</name>
						<enabled>TRUE</enabled>
						<duration>1160</duration>
						<rate>
							<timebase>25</timebase>
							<ntsc>FALSE</ntsc>
						</rate>
						<start>-1</start>
						<end>12420</end>
						<in>25</in>
						<out>1135</out>
						<pproTicksIn>254016000000</pproTicksIn>
						<pproTicksOut>11532326400000</pproTicksOut>
						<file id="file-31"/>
						<sourcetrack>
							<mediatype>audio</mediatype>
							<trackindex>1</trackindex>
						</sourcetrack>
							<filter>
								<effect>
									<name>Audio Levels</name>
									<effectid>audiolevels</effectid>
									<effectcategory>audiolevels</effectcategory>
									<effecttype>audiolevels</effecttype>
									<mediatype>audio</mediatype>
									<parameter authoringApp="PremierePro">
										<parameterid>level</parameterid>
										<name>Level</name>
										<valuemin>0</valuemin>
										<valuemax>3.98109</valuemax>
										<value>0</value>
										<keyframe>
											<when>131</when>
											<value>0</value>
										</keyframe>
										<keyframe>
											<when>141</when>
											<value>1.83348</value>
										</keyframe>
										<keyframe>
											<when>279</when>
											<value>1.83348</value>
										</keyframe>
										<keyframe>
											<when>293</when>
											<value>0</value>
										</keyframe>
										<keyframe>
											<when>585</when>
											<value>0</value>
										</keyframe>
										<keyframe>
											<when>609</when>
											<value>1.72563</value>
										</keyframe>
										<keyframe>
											<when>822</when>
											<value>1.72563</value>
										</keyframe>
										<keyframe>
											<when>834</when>
											<value>0</value>
										</keyframe>
									</parameter>
								</effect>
							</filter>
						<link>
							<linkclipref>clipitem-41</linkclipref>
							<mediatype>video</mediatype>
							<trackindex>1</trackindex>
							<clipindex>41</clipindex>
						</link>
						<link>
							<linkclipref>clipitem-516</linkclipref>
							<mediatype>audio</mediatype>
							<trackindex>1</trackindex>
							<clipindex>13</clipindex>
							<groupindex>1</groupindex>
						</link>
						<link>
							<linkclipref>clipitem-609</linkclipref>
							<mediatype>audio</mediatype>
							<trackindex>3</trackindex>
							<clipindex>13</clipindex>
							<groupindex>1</groupindex>
						</link>
						<logginginfo>
							<description></description>
							<scene></scene>
							<shottake></shottake>
							<lognote></lognote>
						</logginginfo>
						<labels>
							<label2>Iris</label2>
						</labels>
					</clipitem>
					<clipitem id="clipitem-517" premiereChannelType="mono">
						<masterclipid>masterclip-32</masterclipid>
						<name>delfin-191016-2008.mxf</name>
						<enabled>TRUE</enabled>
						<duration>123</duration>
						<rate>
							<timebase>25</timebase>
							<ntsc>FALSE</ntsc>
						</rate>
						<start>12420</start>
						<end>12493</end>
						<in>25</in>
						<out>98</out>
						<pproTicksIn>254016000000</pproTicksIn>
						<pproTicksOut>995742720000</pproTicksOut>
						<file id="file-32"/>
						<sourcetrack>
							<mediatype>audio</mediatype>
							<trackindex>1</trackindex>
						</sourcetrack>
							<filter>
								<effect>
									<name>Audio Levels</name>
									<effectid>audiolevels</effectid>
									<effectcategory>audiolevels</effectcategory>
									<effecttype>audiolevels</effecttype>
									<mediatype>audio</mediatype>
									<parameter authoringApp="PremierePro">
										<parameterid>level</parameterid>
										<name>Level</name>
										<valuemin>0</valuemin>
										<valuemax>3.98109</valuemax>
										<value>0.026963</value>
										<keyframe>
											<when>-10</when>
											<value>0.99763</value>
										</keyframe>
										<keyframe>
											<when>24</when>
											<value>0.026963</value>
										</keyframe>
									</parameter>
								</effect>
							</filter>
						<link>
							<linkclipref>clipitem-42</linkclipref>
							<mediatype>video</mediatype>
							<trackindex>1</trackindex>
							<clipindex>42</clipindex>
						</link>
						<link>
							<linkclipref>clipitem-517</linkclipref>
							<mediatype>audio</mediatype>
							<trackindex>1</trackindex>
							<clipindex>14</clipindex>
							<groupindex>1</groupindex>
						</link>
						<link>
							<linkclipref>clipitem-610</linkclipref>
							<mediatype>audio</mediatype>
							<trackindex>3</trackindex>
							<clipindex>14</clipindex>
							<groupindex>1</groupindex>
						</link>
						<link>
							<linkclipref>clipitem-667</linkclipref>
							<mediatype>audio</mediatype>
							<trackindex>5</trackindex>
							<clipindex>5</clipindex>
							<groupindex>1</groupindex>
						</link>
						<link>
							<linkclipref>clipitem-696</linkclipref>
							<mediatype>audio</mediatype>
							<trackindex>7</trackindex>
							<clipindex>2</clipindex>
							<groupindex>1</groupindex>
						</link>
						<logginginfo>
							<description></description>
							<scene></scene>
							<shottake></shottake>
							<lognote></lognote>
						</logginginfo>
						<labels>
							<label2>Iris</label2>
						</labels>
					</clipitem>
					<clipitem id="clipitem-518" premiereChannelType="mono">
						<masterclipid>masterclip-33</masterclipid>
						<name>delfin-191016-2013.mxf</name>
						<enabled>TRUE</enabled>
						<duration>106</duration>
						<rate>
							<timebase>25</timebase>
							<ntsc>FALSE</ntsc>
						</rate>
						<start>12493</start>
						<end>12549</end>
						<in>25</in>
						<out>81</out>
						<pproTicksIn>254016000000</pproTicksIn>
						<pproTicksOut>823011840000</pproTicksOut>
						<file id="file-33"/>
						<sourcetrack>
							<mediatype>audio</mediatype>
							<trackindex>1</trackindex>
						</sourcetrack>
							<filter>
								<effect>
									<name>Audio Levels</name>
									<effectid>audiolevels</effectid>
									<effectcategory>audiolevels</effectcategory>
									<effecttype>audiolevels</effecttype>
									<mediatype>audio</mediatype>
									<parameter authoringApp="PremierePro">
										<parameterid>level</parameterid>
										<name>Level</name>
										<valuemin>0</valuemin>
										<valuemax>3.98109</valuemax>
										<value>0.0808889</value>
									</parameter>
								</effect>
							</filter>
						<link>
							<linkclipref>clipitem-43</linkclipref>
							<mediatype>video</mediatype>
							<trackindex>1</trackindex>
							<clipindex>43</clipindex>
						</link>
						<link>
							<linkclipref>clipitem-518</linkclipref>
							<mediatype>audio</mediatype>
							<trackindex>1</trackindex>
							<clipindex>15</clipindex>
							<groupindex>1</groupindex>
						</link>
						<link>
							<linkclipref>clipitem-611</linkclipref>
							<mediatype>audio</mediatype>
							<trackindex>3</trackindex>
							<clipindex>15</clipindex>
							<groupindex>1</groupindex>
						</link>
						<link>
							<linkclipref>clipitem-668</linkclipref>
							<mediatype>audio</mediatype>
							<trackindex>5</trackindex>
							<clipindex>6</clipindex>
							<groupindex>1</groupindex>
						</link>
						<link>
							<linkclipref>clipitem-697</linkclipref>
							<mediatype>audio</mediatype>
							<trackindex>7</trackindex>
							<clipindex>3</clipindex>
							<groupindex>1</groupindex>
						</link>
						<logginginfo>
							<description></description>
							<scene></scene>
							<shottake></shottake>
							<lognote></lognote>
						</logginginfo>
						<labels>
							<label2>Iris</label2>
						</labels>
					</clipitem>
					<clipitem id="clipitem-519" premiereChannelType="mono">
						<masterclipid>masterclip-34</masterclipid>
						<name>delfin-191016-2014.mxf</name>
						<enabled>TRUE</enabled>
						<duration>100</duration>
						<rate>
							<timebase>25</timebase>
							<ntsc>FALSE</ntsc>
						</rate>
						<start>12549</start>
						<end>12599</end>
						<in>25</in>
						<out>75</out>
						<pproTicksIn>254016000000</pproTicksIn>
						<pproTicksOut>762048000000</pproTicksOut>
						<file id="file-34"/>
						<sourcetrack>
							<mediatype>audio</mediatype>
							<trackindex>1</trackindex>
						</sourcetrack>
							<filter>
								<effect>
									<name>Audio Levels</name>
									<effectid>audiolevels</effectid>
									<effectcategory>audiolevels</effectcategory>
									<effecttype>audiolevels</effecttype>
									<mediatype>audio</mediatype>
									<parameter authoringApp="PremierePro">
										<parameterid>level</parameterid>
										<name>Level</name>
										<valuemin>0</valuemin>
										<valuemax>3.98109</valuemax>
										<value>0.0808889</value>
									</parameter>
								</effect>
							</filter>
						<link>
							<linkclipref>clipitem-44</linkclipref>
							<mediatype>video</mediatype>
							<trackindex>1</trackindex>
							<clipindex>44</clipindex>
						</link>
						<link>
							<linkclipref>clipitem-519</linkclipref>
							<mediatype>audio</mediatype>
							<trackindex>1</trackindex>
							<clipindex>16</clipindex>
							<groupindex>1</groupindex>
						</link>
						<link>
							<linkclipref>clipitem-612</linkclipref>
							<mediatype>audio</mediatype>
							<trackindex>3</trackindex>
							<clipindex>16</clipindex>
							<groupindex>1</groupindex>
						</link>
						<link>
							<linkclipref>clipitem-669</linkclipref>
							<mediatype>audio</mediatype>
							<trackindex>5</trackindex>
							<clipindex>7</clipindex>
							<groupindex>1</groupindex>
						</link>
						<link>
							<linkclipref>clipitem-698</linkclipref>
							<mediatype>audio</mediatype>
							<trackindex>7</trackindex>
							<clipindex>4</clipindex>
							<groupindex>1</groupindex>
						</link>
						<logginginfo>
							<description></description>
							<scene></scene>
							<shottake></shottake>
							<lognote></lognote>
						</logginginfo>
						<labels>
							<label2>Iris</label2>
						</labels>
					</clipitem>
					<clipitem id="clipitem-520" premiereChannelType="mono">
						<masterclipid>masterclip-35</masterclipid>
						<name>delfin-191016-2012.mxf</name>
						<enabled>TRUE</enabled>
						<duration>126</duration>
						<rate>
							<timebase>25</timebase>
							<ntsc>FALSE</ntsc>
						</rate>
						<start>12599</start>
						<end>-1</end>
						<in>25</in>
						<out>101</out>
						<pproTicksIn>254016000000</pproTicksIn>
						<pproTicksOut>1026224640000</pproTicksOut>
						<file id="file-35"/>
						<sourcetrack>
							<mediatype>audio</mediatype>
							<trackindex>1</trackindex>
						</sourcetrack>
						<link>
							<linkclipref>clipitem-45</linkclipref>
							<mediatype>video</mediatype>
							<trackindex>1</trackindex>
							<clipindex>45</clipindex>
						</link>
						<link>
							<linkclipref>clipitem-520</linkclipref>
							<mediatype>audio</mediatype>
							<trackindex>1</trackindex>
							<clipindex>17</clipindex>
							<groupindex>1</groupindex>
						</link>
						<link>
							<linkclipref>clipitem-613</linkclipref>
							<mediatype>audio</mediatype>
							<trackindex>3</trackindex>
							<clipindex>17</clipindex>
							<groupindex>1</groupindex>
						</link>
						<link>
							<linkclipref>clipitem-670</linkclipref>
							<mediatype>audio</mediatype>
							<trackindex>5</trackindex>
							<clipindex>8</clipindex>
							<groupindex>1</groupindex>
						</link>
						<link>
							<linkclipref>clipitem-699</linkclipref>
							<mediatype>audio</mediatype>
							<trackindex>7</trackindex>
							<clipindex>5</clipindex>
							<groupindex>1</groupindex>
						</link>
						<logginginfo>
							<description></description>
							<scene></scene>
							<shottake></shottake>
							<lognote></lognote>
						</logginginfo>
						<labels>
							<label2>Iris</label2>
						</labels>
					</clipitem>
					<transitionitem>
						<start>12662</start>
						<end>12675</end>
						<alignment>center</alignment>
						<cutPointTicks>60963840000</cutPointTicks>
						<rate>
							<timebase>25</timebase>
							<ntsc>FALSE</ntsc>
						</rate>
						<effect>
							<name>Cross Fade (+3dB)</name>
							<effectid>KGAudioTransCrossFade3dB</effectid>
							<effecttype>transition</effecttype>
							<mediatype>audio</mediatype>
							<wipecode>0</wipecode>
							<wipeaccuracy>100</wipeaccuracy>
							<startratio>0</startratio>
							<endratio>1</endratio>
							<reverse>FALSE</reverse>
						</effect>
					</transitionitem>
					<clipitem id="clipitem-521" premiereChannelType="mono">
						<masterclipid>masterclip-36</masterclipid>
						<name>delfin-191016-2016.mxf</name>
						<enabled>TRUE</enabled>
						<duration>804</duration>
						<rate>
							<timebase>25</timebase>
							<ntsc>FALSE</ntsc>
						</rate>
						<start>-1</start>
						<end>13416</end>
						<in>25</in>
						<out>779</out>
						<pproTicksIn>254016000000</pproTicksIn>
						<pproTicksOut>7915138560000</pproTicksOut>
						<file id="file-36"/>
						<sourcetrack>
							<mediatype>audio</mediatype>
							<trackindex>1</trackindex>
						</sourcetrack>
							<filter>
								<effect>
									<name>Audio Levels</name>
									<effectid>audiolevels</effectid>
									<effectcategory>audiolevels</effectcategory>
									<effecttype>audiolevels</effecttype>
									<mediatype>audio</mediatype>
									<parameter authoringApp="PremierePro">
										<parameterid>level</parameterid>
										<name>Level</name>
										<valuemin>0</valuemin>
										<valuemax>3.98109</valuemax>
										<value>1.29422</value>
										<keyframe>
											<when>109</when>
											<value>0</value>
										</keyframe>
										<keyframe>
											<when>204</when>
											<value>0</value>
										</keyframe>
										<keyframe>
											<when>211</when>
											<value>1.61778</value>
										</keyframe>
										<keyframe>
											<when>228</when>
											<value>1.61778</value>
										</keyframe>
										<keyframe>
											<when>233</when>
											<value>0</value>
										</keyframe>
										<keyframe>
											<when>253</when>
											<value>0</value>
										</keyframe>
										<keyframe>
											<when>259</when>
											<value>1.40207</value>
										</keyframe>
										<keyframe>
											<when>277</when>
											<value>1.40207</value>
										</keyframe>
										<keyframe>
											<when>284</when>
											<value>0</value>
										</keyframe>
										<keyframe>
											<when>316</when>
											<value>0</value>
										</keyframe>
										<keyframe>
											<when>324</when>
											<value>1.02459</value>
										</keyframe>
										<keyframe>
											<when>372</when>
											<value>1.02459</value>
										</keyframe>
										<keyframe>
											<when>385</when>
											<value>0</value>
										</keyframe>
										<keyframe>
											<when>414</when>
											<value>0</value>
										</keyframe>
										<keyframe>
											<when>418</when>
											<value>1.02459</value>
										</keyframe>
										<keyframe>
											<when>564</when>
											<value>1.02459</value>
										</keyframe>
										<keyframe>
											<when>578</when>
											<value>0</value>
										</keyframe>
										<keyframe>
											<when>671</when>
											<value>0</value>
										</keyframe>
										<keyframe>
											<when>686</when>
											<value>1.29422</value>
										</keyframe>
									</parameter>
								</effect>
							</filter>
						<link>
							<linkclipref>clipitem-46</linkclipref>
							<mediatype>video</mediatype>
							<trackindex>1</trackindex>
							<clipindex>46</clipindex>
						</link>
						<link>
							<linkclipref>clipitem-521</linkclipref>
							<mediatype>audio</mediatype>
							<trackindex>1</trackindex>
							<clipindex>19</clipindex>
							<groupindex>1</groupindex>
						</link>
						<link>
							<linkclipref>clipitem-614</linkclipref>
							<mediatype>audio</mediatype>
							<trackindex>3</trackindex>
							<clipindex>19</clipindex>
							<groupindex>1</groupindex>
						</link>
						<link>
							<linkclipref>clipitem-671</linkclipref>
							<mediatype>audio</mediatype>
							<trackindex>5</trackindex>
							<clipindex>10</clipindex>
							<groupindex>1</groupindex>
						</link>
						<logginginfo>
							<description></description>
							<scene></scene>
							<shottake></shottake>
							<lognote></lognote>
						</logginginfo>
						<labels>
							<label2>Iris</label2>
						</labels>
					</clipitem>
					<transitionitem>
						<start>13509</start>
						<end>13522</end>
						<alignment>start-black</alignment>
						<cutPointTicks>0</cutPointTicks>
						<rate>
							<timebase>25</timebase>
							<ntsc>FALSE</ntsc>
						</rate>
						<effect>
							<name>Cross Fade (+3dB)</name>
							<effectid>KGAudioTransCrossFade3dB</effectid>
							<effecttype>transition</effecttype>
							<mediatype>audio</mediatype>
							<wipecode>0</wipecode>
							<wipeaccuracy>100</wipeaccuracy>
							<startratio>0</startratio>
							<endratio>1</endratio>
							<reverse>FALSE</reverse>
						</effect>
					</transitionitem>
					<clipitem id="clipitem-522" premiereChannelType="mono">
						<masterclipid>masterclip-37</masterclipid>
						<name>delfin-191016-2016.mxf</name>
						<enabled>TRUE</enabled>
						<duration>248</duration>
						<rate>
							<timebase>25</timebase>
							<ntsc>FALSE</ntsc>
						</rate>
						<start>-1</start>
						<end>13707</end>
						<in>25</in>
						<out>223</out>
						<pproTicksIn>254016000000</pproTicksIn>
						<pproTicksOut>2265822720000</pproTicksOut>
						<file id="file-37"/>
						<sourcetrack>
							<mediatype>audio</mediatype>
							<trackindex>1</trackindex>
						</sourcetrack>
							<filter>
								<effect>
									<name>Audio Levels</name>
									<effectid>audiolevels</effectid>
									<effectcategory>audiolevels</effectcategory>
									<effecttype>audiolevels</effecttype>
									<mediatype>audio</mediatype>
									<parameter authoringApp="PremierePro">
										<parameterid>level</parameterid>
										<name>Level</name>
										<valuemin>0</valuemin>
										<valuemax>3.98109</valuemax>
										<value>1.07852</value>
										<keyframe>
											<when>45</when>
											<value>0</value>
										</keyframe>
										<keyframe>
											<when>81</when>
											<value>0</value>
										</keyframe>
										<keyframe>
											<when>84</when>
											<value>1.07852</value>
										</keyframe>
										<keyframe>
											<when>95</when>
											<value>1.07852</value>
										</keyframe>
										<keyframe>
											<when>101</when>
											<value>0</value>
										</keyframe>
										<keyframe>
											<when>174</when>
											<value>0</value>
										</keyframe>
										<keyframe>
											<when>179</when>
											<value>1.07852</value>
										</keyframe>
									</parameter>
								</effect>
							</filter>
						<link>
							<linkclipref>clipitem-48</linkclipref>
							<mediatype>video</mediatype>
							<trackindex>1</trackindex>
							<clipindex>48</clipindex>
						</link>
						<link>
							<linkclipref>clipitem-522</linkclipref>
							<mediatype>audio</mediatype>
							<trackindex>1</trackindex>
							<clipindex>21</clipindex>
							<groupindex>1</groupindex>
						</link>
						<link>
							<linkclipref>clipitem-615</linkclipref>
							<mediatype>audio</mediatype>
							<trackindex>3</trackindex>
							<clipindex>21</clipindex>
							<groupindex>1</groupindex>
						</link>
						<link>
							<linkclipref>clipitem-672</linkclipref>
							<mediatype>audio</mediatype>
							<trackindex>5</trackindex>
							<clipindex>12</clipindex>
							<groupindex>1</groupindex>
						</link>
						<logginginfo>
							<description></description>
							<scene></scene>
							<shottake></shottake>
							<lognote></lognote>
						</logginginfo>
						<labels>
							<label2>Iris</label2>
						</labels>
					</clipitem>
					<clipitem id="clipitem-523" premiereChannelType="mono">
						<masterclipid>masterclip-38</masterclipid>
						<name>delfin-191016-2016.mxf</name>
						<enabled>TRUE</enabled>
						<duration>513</duration>
						<rate>
							<timebase>25</timebase>
							<ntsc>FALSE</ntsc>
						</rate>
						<start>13707</start>
						<end>14170</end>
						<in>25</in>
						<out>488</out>
						<pproTicksIn>254016000000</pproTicksIn>
						<pproTicksOut>4958392320000</pproTicksOut>
						<file id="file-38"/>
						<sourcetrack>
							<mediatype>audio</mediatype>
							<trackindex>1</trackindex>
						</sourcetrack>
							<filter>
								<effect>
									<name>Audio Levels</name>
									<effectid>audiolevels</effectid>
									<effectcategory>audiolevels</effectcategory>
									<effecttype>audiolevels</effecttype>
									<mediatype>audio</mediatype>
									<parameter authoringApp="PremierePro">
										<parameterid>level</parameterid>
										<name>Level</name>
										<valuemin>0</valuemin>
										<valuemax>3.98109</valuemax>
										<value>1.13244</value>
										<keyframe>
											<when>132</when>
											<value>0.970667</value>
										</keyframe>
										<keyframe>
											<when>151</when>
											<value>0</value>
										</keyframe>
										<keyframe>
											<when>187</when>
											<value>0</value>
										</keyframe>
										<keyframe>
											<when>200</when>
											<value>0.862815</value>
										</keyframe>
										<keyframe>
											<when>228</when>
											<value>0.862815</value>
										</keyframe>
										<keyframe>
											<when>241</when>
											<value>0</value>
										</keyframe>
										<keyframe>
											<when>286</when>
											<value>0</value>
										</keyframe>
										<keyframe>
											<when>307</when>
											<value>1.13244</value>
										</keyframe>
									</parameter>
								</effect>
							</filter>
						<link>
							<linkclipref>clipitem-49</linkclipref>
							<mediatype>video</mediatype>
							<trackindex>1</trackindex>
							<clipindex>49</clipindex>
						</link>
						<link>
							<linkclipref>clipitem-523</linkclipref>
							<mediatype>audio</mediatype>
							<trackindex>1</trackindex>
							<clipindex>22</clipindex>
							<groupindex>1</groupindex>
						</link>
						<link>
							<linkclipref>clipitem-616</linkclipref>
							<mediatype>audio</mediatype>
							<trackindex>3</trackindex>
							<clipindex>22</clipindex>
							<groupindex>1</groupindex>
						</link>
						<link>
							<linkclipref>clipitem-673</linkclipref>
							<mediatype>audio</mediatype>
							<trackindex>5</trackindex>
							<clipindex>14</clipindex>
							<groupindex>1</groupindex>
						</link>
						<logginginfo>
							<description></description>
							<scene></scene>
							<shottake></shottake>
							<lognote></lognote>
						</logginginfo>
						<labels>
							<label2>Iris</label2>
						</labels>
					</clipitem>
					<clipitem id="clipitem-524" premiereChannelType="mono">
						<masterclipid>masterclip-39</masterclipid>
						<name>delfin-191016-2017.mxf</name>
						<enabled>TRUE</enabled>
						<duration>130</duration>
						<rate>
							<timebase>25</timebase>
							<ntsc>FALSE</ntsc>
						</rate>
						<start>14170</start>
						<end>14250</end>
						<in>25</in>
						<out>105</out>
						<pproTicksIn>254016000000</pproTicksIn>
						<pproTicksOut>1066867200000</pproTicksOut>
						<file id="file-39"/>
						<sourcetrack>
							<mediatype>audio</mediatype>
							<trackindex>1</trackindex>
						</sourcetrack>
							<filter>
								<effect>
									<name>Audio Levels</name>
									<effectid>audiolevels</effectid>
									<effectcategory>audiolevels</effectcategory>
									<effecttype>audiolevels</effecttype>
									<mediatype>audio</mediatype>
									<parameter authoringApp="PremierePro">
										<parameterid>level</parameterid>
										<name>Level</name>
										<valuemin>0</valuemin>
										<valuemax>3.98109</valuemax>
										<value>0</value>
									</parameter>
								</effect>
							</filter>
						<link>
							<linkclipref>clipitem-50</linkclipref>
							<mediatype>video</mediatype>
							<trackindex>1</trackindex>
							<clipindex>50</clipindex>
						</link>
						<link>
							<linkclipref>clipitem-524</linkclipref>
							<mediatype>audio</mediatype>
							<trackindex>1</trackindex>
							<clipindex>23</clipindex>
							<groupindex>1</groupindex>
						</link>
						<link>
							<linkclipref>clipitem-617</linkclipref>
							<mediatype>audio</mediatype>
							<trackindex>3</trackindex>
							<clipindex>23</clipindex>
							<groupindex>1</groupindex>
						</link>
						<link>
							<linkclipref>clipitem-674</linkclipref>
							<mediatype>audio</mediatype>
							<trackindex>5</trackindex>
							<clipindex>15</clipindex>
							<groupindex>1</groupindex>
						</link>
						<link>
							<linkclipref>clipitem-700</linkclipref>
							<mediatype>audio</mediatype>
							<trackindex>7</trackindex>
							<clipindex>6</clipindex>
							<groupindex>1</groupindex>
						</link>
						<logginginfo>
							<description></description>
							<scene></scene>
							<shottake></shottake>
							<lognote></lognote>
						</logginginfo>
						<labels>
							<label2>Iris</label2>
						</labels>
					</clipitem>
					<clipitem id="clipitem-525" premiereChannelType="mono">
						<masterclipid>masterclip-40</masterclipid>
						<name>delfin-191016-2017.mxf</name>
						<enabled>TRUE</enabled>
						<duration>128</duration>
						<rate>
							<timebase>25</timebase>
							<ntsc>FALSE</ntsc>
						</rate>
						<start>14250</start>
						<end>14328</end>
						<in>25</in>
						<out>103</out>
						<pproTicksIn>254016000000</pproTicksIn>
						<pproTicksOut>1046545920000</pproTicksOut>
						<file id="file-40"/>
						<sourcetrack>
							<mediatype>audio</mediatype>
							<trackindex>1</trackindex>
						</sourcetrack>
							<filter>
								<effect>
									<name>Audio Levels</name>
									<effectid>audiolevels</effectid>
									<effectcategory>audiolevels</effectcategory>
									<effecttype>audiolevels</effecttype>
									<mediatype>audio</mediatype>
									<parameter authoringApp="PremierePro">
										<parameterid>level</parameterid>
										<name>Level</name>
										<valuemin>0</valuemin>
										<valuemax>3.98109</valuemax>
										<value>0</value>
									</parameter>
								</effect>
							</filter>
						<link>
							<linkclipref>clipitem-51</linkclipref>
							<mediatype>video</mediatype>
							<trackindex>1</trackindex>
							<clipindex>51</clipindex>
						</link>
						<link>
							<linkclipref>clipitem-525</linkclipref>
							<mediatype>audio</mediatype>
							<trackindex>1</trackindex>
							<clipindex>24</clipindex>
							<groupindex>1</groupindex>
						</link>
						<link>
							<linkclipref>clipitem-618</linkclipref>
							<mediatype>audio</mediatype>
							<trackindex>3</trackindex>
							<clipindex>24</clipindex>
							<groupindex>1</groupindex>
						</link>
						<link>
							<linkclipref>clipitem-675</linkclipref>
							<mediatype>audio</mediatype>
							<trackindex>5</trackindex>
							<clipindex>16</clipindex>
							<groupindex>1</groupindex>
						</link>
						<link>
							<linkclipref>clipitem-701</linkclipref>
							<mediatype>audio</mediatype>
							<trackindex>7</trackindex>
							<clipindex>7</clipindex>
							<groupindex>1</groupindex>
						</link>
						<logginginfo>
							<description></description>
							<scene></scene>
							<shottake></shottake>
							<lognote></lognote>
						</logginginfo>
						<labels>
							<label2>Iris</label2>
						</labels>
					</clipitem>
					<clipitem id="clipitem-526" premiereChannelType="mono">
						<masterclipid>masterclip-41</masterclipid>
						<name>delfin-191016-2017.mxf</name>
						<enabled>TRUE</enabled>
						<duration>200</duration>
						<rate>
							<timebase>25</timebase>
							<ntsc>FALSE</ntsc>
						</rate>
						<start>14328</start>
						<end>14478</end>
						<in>25</in>
						<out>175</out>
						<pproTicksIn>254016000000</pproTicksIn>
						<pproTicksOut>1778112000000</pproTicksOut>
						<file id="file-41"/>
						<sourcetrack>
							<mediatype>audio</mediatype>
							<trackindex>1</trackindex>
						</sourcetrack>
						<link>
							<linkclipref>clipitem-52</linkclipref>
							<mediatype>video</mediatype>
							<trackindex>1</trackindex>
							<clipindex>52</clipindex>
						</link>
						<link>
							<linkclipref>clipitem-526</linkclipref>
							<mediatype>audio</mediatype>
							<trackindex>1</trackindex>
							<clipindex>25</clipindex>
							<groupindex>1</groupindex>
						</link>
						<link>
							<linkclipref>clipitem-619</linkclipref>
							<mediatype>audio</mediatype>
							<trackindex>3</trackindex>
							<clipindex>25</clipindex>
							<groupindex>1</groupindex>
						</link>
						<link>
							<linkclipref>clipitem-676</linkclipref>
							<mediatype>audio</mediatype>
							<trackindex>5</trackindex>
							<clipindex>17</clipindex>
							<groupindex>1</groupindex>
						</link>
						<link>
							<linkclipref>clipitem-702</linkclipref>
							<mediatype>audio</mediatype>
							<trackindex>7</trackindex>
							<clipindex>8</clipindex>
							<groupindex>1</groupindex>
						</link>
						<logginginfo>
							<description></description>
							<scene></scene>
							<shottake></shottake>
							<lognote></lognote>
						</logginginfo>
						<labels>
							<label2>Iris</label2>
						</labels>
					</clipitem>
					<clipitem id="clipitem-527" premiereChannelType="mono">
						<masterclipid>masterclip-42</masterclipid>
						<name>delfin-191016-2017.mxf</name>
						<enabled>TRUE</enabled>
						<duration>146</duration>
						<rate>
							<timebase>25</timebase>
							<ntsc>FALSE</ntsc>
						</rate>
						<start>14478</start>
						<end>14574</end>
						<in>25</in>
						<out>121</out>
						<pproTicksIn>254016000000</pproTicksIn>
						<pproTicksOut>1229437440000</pproTicksOut>
						<file id="file-42"/>
						<sourcetrack>
							<mediatype>audio</mediatype>
							<trackindex>1</trackindex>
						</sourcetrack>
						<link>
							<linkclipref>clipitem-53</linkclipref>
							<mediatype>video</mediatype>
							<trackindex>1</trackindex>
							<clipindex>53</clipindex>
						</link>
						<link>
							<linkclipref>clipitem-527</linkclipref>
							<mediatype>audio</mediatype>
							<trackindex>1</trackindex>
							<clipindex>26</clipindex>
							<groupindex>1</groupindex>
						</link>
						<link>
							<linkclipref>clipitem-620</linkclipref>
							<mediatype>audio</mediatype>
							<trackindex>3</trackindex>
							<clipindex>26</clipindex>
							<groupindex>1</groupindex>
						</link>
						<link>
							<linkclipref>clipitem-677</linkclipref>
							<mediatype>audio</mediatype>
							<trackindex>5</trackindex>
							<clipindex>18</clipindex>
							<groupindex>1</groupindex>
						</link>
						<link>
							<linkclipref>clipitem-703</linkclipref>
							<mediatype>audio</mediatype>
							<trackindex>7</trackindex>
							<clipindex>9</clipindex>
							<groupindex>1</groupindex>
						</link>
						<logginginfo>
							<description></description>
							<scene></scene>
							<shottake></shottake>
							<lognote></lognote>
						</logginginfo>
						<labels>
							<label2>Iris</label2>
						</labels>
					</clipitem>
					<clipitem id="clipitem-528" premiereChannelType="mono">
						<masterclipid>masterclip-43</masterclipid>
						<name>delfin-191016-2017.mxf</name>
						<enabled>TRUE</enabled>
						<duration>233</duration>
						<rate>
							<timebase>25</timebase>
							<ntsc>FALSE</ntsc>
						</rate>
						<start>14574</start>
						<end>14656</end>
						<in>25</in>
						<out>107</out>
						<pproTicksIn>254016000000</pproTicksIn>
						<pproTicksOut>1087188480000</pproTicksOut>
						<file id="file-43"/>
						<sourcetrack>
							<mediatype>audio</mediatype>
							<trackindex>1</trackindex>
						</sourcetrack>
						<link>
							<linkclipref>clipitem-54</linkclipref>
							<mediatype>video</mediatype>
							<trackindex>1</trackindex>
							<clipindex>54</clipindex>
						</link>
						<link>
							<linkclipref>clipitem-528</linkclipref>
							<mediatype>audio</mediatype>
							<trackindex>1</trackindex>
							<clipindex>27</clipindex>
							<groupindex>1</groupindex>
						</link>
						<link>
							<linkclipref>clipitem-621</linkclipref>
							<mediatype>audio</mediatype>
							<trackindex>3</trackindex>
							<clipindex>27</clipindex>
							<groupindex>1</groupindex>
						</link>
						<link>
							<linkclipref>clipitem-678</linkclipref>
							<mediatype>audio</mediatype>
							<trackindex>5</trackindex>
							<clipindex>19</clipindex>
							<groupindex>1</groupindex>
						</link>
						<link>
							<linkclipref>clipitem-704</linkclipref>
							<mediatype>audio</mediatype>
							<trackindex>7</trackindex>
							<clipindex>10</clipindex>
							<groupindex>1</groupindex>
						</link>
						<logginginfo>
							<description></description>
							<scene></scene>
							<shottake></shottake>
							<lognote></lognote>
						</logginginfo>
						<labels>
							<label2>Iris</label2>
						</labels>
					</clipitem>
					<clipitem id="clipitem-529" premiereChannelType="mono">
						<masterclipid>masterclip-43</masterclipid>
						<name>delfin-191016-2017.mxf</name>
						<enabled>TRUE</enabled>
						<duration>233</duration>
						<rate>
							<timebase>25</timebase>
							<ntsc>FALSE</ntsc>
						</rate>
						<start>14656</start>
						<end>-1</end>
						<in>142</in>
						<out>208</out>
						<pproTicksIn>1442810880000</pproTicksIn>
						<pproTicksOut>2113413120000</pproTicksOut>
						<file id="file-43"/>
						<sourcetrack>
							<mediatype>audio</mediatype>
							<trackindex>1</trackindex>
						</sourcetrack>
							<filter>
								<effect>
									<name>Audio Levels</name>
									<effectid>audiolevels</effectid>
									<effectcategory>audiolevels</effectcategory>
									<effecttype>audiolevels</effecttype>
									<mediatype>audio</mediatype>
									<parameter authoringApp="PremierePro">
										<parameterid>level</parameterid>
										<name>Level</name>
										<valuemin>0</valuemin>
										<valuemax>3.98109</valuemax>
										<value>0</value>
									</parameter>
								</effect>
							</filter>
						<logginginfo>
							<description></description>
							<scene></scene>
							<shottake></shottake>
							<lognote></lognote>
						</logginginfo>
						<labels>
							<label2>Iris</label2>
						</labels>
					</clipitem>
					<transitionitem>
						<start>14709</start>
						<end>14722</end>
						<alignment>end-black</alignment>
						<cutPointTicks>132088320000</cutPointTicks>
						<rate>
							<timebase>25</timebase>
							<ntsc>FALSE</ntsc>
						</rate>
						<effect>
							<name>Cross Fade (+3dB)</name>
							<effectid>KGAudioTransCrossFade3dB</effectid>
							<effecttype>transition</effecttype>
							<mediatype>audio</mediatype>
							<wipecode>0</wipecode>
							<wipeaccuracy>100</wipeaccuracy>
							<startratio>0</startratio>
							<endratio>1</endratio>
							<reverse>FALSE</reverse>
						</effect>
					</transitionitem>
					<clipitem id="clipitem-530" premiereChannelType="mono">
						<masterclipid>masterclip-306</masterclipid>
						<name>delfin-191016-2021.mxf</name>
						<enabled>TRUE</enabled>
						<duration>116</duration>
						<rate>
							<timebase>25</timebase>
							<ntsc>FALSE</ntsc>
						</rate>
						<start>15144</start>
						<end>-1</end>
						<in>0</in>
						<out>91</out>
						<pproTicksIn>0</pproTicksIn>
						<pproTicksOut>924618240000</pproTicksOut>
						<pixelaspectratio>square</pixelaspectratio>
						<anamorphic>FALSE</anamorphic>
						<file id="file-306">
							<name>delfin-191016-2021.mxf</name>
							<pathurl>file://localhost/Volumes/Vaagen/Utveksling/Natur/Naturlig%20helaften%20fra%20Oslo/Transcoded_Copy%20of%20En%20Helaften%20MASTER/delfin-191016-2021.mxf</pathurl>
							<rate>
								<timebase>25</timebase>
								<ntsc>FALSE</ntsc>
							</rate>
							<duration>116</duration>
							<timecode>
								<rate>
									<timebase>25</timebase>
									<ntsc>FALSE</ntsc>
								</rate>
								<string>11:25:19:18</string>
								<frame>1027993</frame>
								<displayformat>NDF</displayformat>
								<reel>
									<name></name>
								</reel>
							</timecode>
							<media>
								<video>
									<samplecharacteristics>
										<rate>
											<timebase>25</timebase>
											<ntsc>FALSE</ntsc>
										</rate>
										<width>1920</width>
										<height>1080</height>
										<anamorphic>FALSE</anamorphic>
										<pixelaspectratio>square</pixelaspectratio>
										<fielddominance>upper</fielddominance>
									</samplecharacteristics>
								</video>
								<audio>
									<samplecharacteristics>
										<depth>16</depth>
										<samplerate>48000</samplerate>
									</samplecharacteristics>
									<channelcount>8</channelcount>
								</audio>
							</media>
						</file>
						<sourcetrack>
							<mediatype>audio</mediatype>
							<trackindex>1</trackindex>
						</sourcetrack>
							<filter>
								<effect>
									<name>Audio Levels</name>
									<effectid>audiolevels</effectid>
									<effectcategory>audiolevels</effectcategory>
									<effecttype>audiolevels</effecttype>
									<mediatype>audio</mediatype>
									<parameter authoringApp="PremierePro">
										<parameterid>level</parameterid>
										<name>Level</name>
										<valuemin>0</valuemin>
										<valuemax>3.98109</valuemax>
										<value>0</value>
									</parameter>
								</effect>
							</filter>
						<link>
							<linkclipref>clipitem-530</linkclipref>
							<mediatype>audio</mediatype>
							<trackindex>1</trackindex>
							<clipindex>30</clipindex>
							<groupindex>1</groupindex>
						</link>
						<link>
							<linkclipref>clipitem-623</linkclipref>
							<mediatype>audio</mediatype>
							<trackindex>3</trackindex>
							<clipindex>30</clipindex>
							<groupindex>1</groupindex>
						</link>
						<link>
							<linkclipref>clipitem-680</linkclipref>
							<mediatype>audio</mediatype>
							<trackindex>5</trackindex>
							<clipindex>22</clipindex>
							<groupindex>1</groupindex>
						</link>
						<link>
							<linkclipref>clipitem-706</linkclipref>
							<mediatype>audio</mediatype>
							<trackindex>7</trackindex>
							<clipindex>14</clipindex>
							<groupindex>1</groupindex>
						</link>
						<logginginfo>
							<description></description>
							<scene></scene>
							<shottake></shottake>
							<lognote></lognote>
						</logginginfo>
						<labels>
							<label2>Iris</label2>
						</labels>
					</clipitem>
					<transitionitem>
						<start>15222</start>
						<end>15235</end>
						<alignment>center</alignment>
						<cutPointTicks>60963840000</cutPointTicks>
						<rate>
							<timebase>25</timebase>
							<ntsc>FALSE</ntsc>
						</rate>
						<effect>
							<name>Cross Fade (+3dB)</name>
							<effectid>KGAudioTransCrossFade3dB</effectid>
							<effecttype>transition</effecttype>
							<mediatype>audio</mediatype>
							<wipecode>0</wipecode>
							<wipeaccuracy>100</wipeaccuracy>
							<startratio>0</startratio>
							<endratio>1</endratio>
							<reverse>FALSE</reverse>
						</effect>
					</transitionitem>
					<clipitem id="clipitem-531" premiereChannelType="mono">
						<masterclipid>masterclip-44</masterclipid>
						<name>delfin-191016-2021.mxf</name>
						<enabled>TRUE</enabled>
						<duration>346</duration>
						<rate>
							<timebase>25</timebase>
							<ntsc>FALSE</ntsc>
						</rate>
						<start>-1</start>
						<end>-1</end>
						<in>78</in>
						<out>328</out>
						<pproTicksIn>792529920000</pproTicksIn>
						<pproTicksOut>3332689920000</pproTicksOut>
						<file id="file-44"/>
						<sourcetrack>
							<mediatype>audio</mediatype>
							<trackindex>1</trackindex>
						</sourcetrack>
							<filter>
								<effect>
									<name>Audio Levels</name>
									<effectid>audiolevels</effectid>
									<effectcategory>audiolevels</effectcategory>
									<effecttype>audiolevels</effecttype>
									<mediatype>audio</mediatype>
									<parameter authoringApp="PremierePro">
										<parameterid>level</parameterid>
										<name>Level</name>
										<valuemin>0</valuemin>
										<valuemax>3.98109</valuemax>
										<value>0</value>
										<keyframe>
											<when>136</when>
											<value>0</value>
										</keyframe>
									</parameter>
								</effect>
							</filter>
						<link>
							<linkclipref>clipitem-56</linkclipref>
							<mediatype>video</mediatype>
							<trackindex>1</trackindex>
							<clipindex>56</clipindex>
						</link>
						<link>
							<linkclipref>clipitem-531</linkclipref>
							<mediatype>audio</mediatype>
							<trackindex>1</trackindex>
							<clipindex>32</clipindex>
							<groupindex>1</groupindex>
						</link>
						<link>
							<linkclipref>clipitem-624</linkclipref>
							<mediatype>audio</mediatype>
							<trackindex>3</trackindex>
							<clipindex>32</clipindex>
							<groupindex>1</groupindex>
						</link>
						<link>
							<linkclipref>clipitem-681</linkclipref>
							<mediatype>audio</mediatype>
							<trackindex>5</trackindex>
							<clipindex>24</clipindex>
							<groupindex>1</groupindex>
						</link>
						<link>
							<linkclipref>clipitem-707</linkclipref>
							<mediatype>audio</mediatype>
							<trackindex>7</trackindex>
							<clipindex>16</clipindex>
							<groupindex>1</groupindex>
						</link>
						<logginginfo>
							<description></description>
							<scene></scene>
							<shottake></shottake>
							<lognote></lognote>
						</logginginfo>
						<labels>
							<label2>Iris</label2>
						</labels>
					</clipitem>
					<transitionitem>
						<start>15459</start>
						<end>15472</end>
						<alignment>center</alignment>
						<cutPointTicks>60963840000</cutPointTicks>
						<rate>
							<timebase>25</timebase>
							<ntsc>FALSE</ntsc>
						</rate>
						<effect>
							<name>Cross Fade (+3dB)</name>
							<effectid>KGAudioTransCrossFade3dB</effectid>
							<effecttype>transition</effecttype>
							<mediatype>audio</mediatype>
							<wipecode>0</wipecode>
							<wipeaccuracy>100</wipeaccuracy>
							<startratio>0</startratio>
							<endratio>1</endratio>
							<reverse>FALSE</reverse>
						</effect>
					</transitionitem>
					<clipitem id="clipitem-532" premiereChannelType="mono">
						<masterclipid>masterclip-45</masterclipid>
						<name>delfin-191016-2021.mxf</name>
						<enabled>TRUE</enabled>
						<duration>290</duration>
						<rate>
							<timebase>25</timebase>
							<ntsc>FALSE</ntsc>
						</rate>
						<start>-1</start>
						<end>15705</end>
						<in>19</in>
						<out>265</out>
						<pproTicksIn>193052160000</pproTicksIn>
						<pproTicksOut>2692569600000</pproTicksOut>
						<file id="file-45"/>
						<sourcetrack>
							<mediatype>audio</mediatype>
							<trackindex>1</trackindex>
						</sourcetrack>
							<filter>
								<effect>
									<name>Audio Levels</name>
									<effectid>audiolevels</effectid>
									<effectcategory>audiolevels</effectcategory>
									<effecttype>audiolevels</effecttype>
									<mediatype>audio</mediatype>
									<parameter authoringApp="PremierePro">
										<parameterid>level</parameterid>
										<name>Level</name>
										<valuemin>0</valuemin>
										<valuemax>3.98109</valuemax>
										<value>0</value>
										<keyframe>
											<when>82</when>
											<value>0.99763</value>
										</keyframe>
										<keyframe>
											<when>97</when>
											<value>0</value>
										</keyframe>
									</parameter>
								</effect>
							</filter>
						<link>
							<linkclipref>clipitem-57</linkclipref>
							<mediatype>video</mediatype>
							<trackindex>1</trackindex>
							<clipindex>57</clipindex>
						</link>
						<link>
							<linkclipref>clipitem-532</linkclipref>
							<mediatype>audio</mediatype>
							<trackindex>1</trackindex>
							<clipindex>34</clipindex>
							<groupindex>1</groupindex>
						</link>
						<link>
							<linkclipref>clipitem-625</linkclipref>
							<mediatype>audio</mediatype>
							<trackindex>3</trackindex>
							<clipindex>33</clipindex>
							<groupindex>1</groupindex>
						</link>
						<link>
							<linkclipref>clipitem-682</linkclipref>
							<mediatype>audio</mediatype>
							<trackindex>5</trackindex>
							<clipindex>25</clipindex>
							<groupindex>1</groupindex>
						</link>
						<link>
							<linkclipref>clipitem-708</linkclipref>
							<mediatype>audio</mediatype>
							<trackindex>7</trackindex>
							<clipindex>18</clipindex>
							<groupindex>1</groupindex>
						</link>
						<logginginfo>
							<description></description>
							<scene></scene>
							<shottake></shottake>
							<lognote></lognote>
						</logginginfo>
						<labels>
							<label2>Iris</label2>
						</labels>
					</clipitem>
					<clipitem id="clipitem-533" premiereChannelType="mono">
						<masterclipid>masterclip-46</masterclipid>
						<name>delfin-191016-1008.mxf</name>
						<enabled>TRUE</enabled>
						<duration>575</duration>
						<rate>
							<timebase>25</timebase>
							<ntsc>FALSE</ntsc>
						</rate>
						<start>15705</start>
						<end>16230</end>
						<in>25</in>
						<out>550</out>
						<pproTicksIn>254016000000</pproTicksIn>
						<pproTicksOut>5588352000000</pproTicksOut>
						<file id="file-46"/>
						<sourcetrack>
							<mediatype>audio</mediatype>
							<trackindex>1</trackindex>
						</sourcetrack>
							<filter>
								<effect>
									<name>Audio Levels</name>
									<effectid>audiolevels</effectid>
									<effectcategory>audiolevels</effectcategory>
									<effecttype>audiolevels</effecttype>
									<mediatype>audio</mediatype>
									<parameter authoringApp="PremierePro">
										<parameterid>level</parameterid>
										<name>Level</name>
										<valuemin>0</valuemin>
										<valuemax>3.98109</valuemax>
										<value>0</value>
										<keyframe>
											<when>84</when>
											<value>0</value>
										</keyframe>
										<keyframe>
											<when>148</when>
											<value>0</value>
										</keyframe>
										<keyframe>
											<when>155</when>
											<value>1.02459</value>
										</keyframe>
										<keyframe>
											<when>167</when>
											<value>1.02459</value>
										</keyframe>
										<keyframe>
											<when>173</when>
											<value>0</value>
										</keyframe>
										<keyframe>
											<when>349</when>
											<value>0</value>
										</keyframe>
										<keyframe>
											<when>360</when>
											<value>1.07852</value>
										</keyframe>
										<keyframe>
											<when>375</when>
											<value>1.07852</value>
										</keyframe>
										<keyframe>
											<when>386</when>
											<value>0</value>
										</keyframe>
									</parameter>
								</effect>
							</filter>
						<logginginfo>
							<description></description>
							<scene></scene>
							<shottake></shottake>
							<lognote></lognote>
						</logginginfo>
						<labels>
							<label2>Iris</label2>
						</labels>
					</clipitem>
					<clipitem id="clipitem-534" premiereChannelType="mono">
						<masterclipid>masterclip-307</masterclipid>
						<name>delfin-191016-1008.mxf</name>
						<enabled>TRUE</enabled>
						<duration>147</duration>
						<rate>
							<timebase>25</timebase>
							<ntsc>FALSE</ntsc>
						</rate>
						<start>16230</start>
						<end>16327</end>
						<in>25</in>
						<out>122</out>
						<pproTicksIn>254016000000</pproTicksIn>
						<pproTicksOut>1239598080000</pproTicksOut>
						<pixelaspectratio>square</pixelaspectratio>
						<anamorphic>FALSE</anamorphic>
						<file id="file-307">
							<name>delfin-191016-1008_001.mxf</name>
							<pathurl>file://localhost/Volumes/Vaagen/Utveksling/Natur/Naturlig%20helaften%20fra%20Oslo/Transcoded_Copy%20of%20En%20Helaften%20MASTER/delfin-191016-1008_001.mxf</pathurl>
							<rate>
								<timebase>25</timebase>
								<ntsc>FALSE</ntsc>
							</rate>
							<duration>147</duration>
							<timecode>
								<rate>
									<timebase>25</timebase>
									<ntsc>FALSE</ntsc>
								</rate>
								<string>12:06:47:18</string>
								<frame>1090193</frame>
								<displayformat>NDF</displayformat>
								<reel>
									<name></name>
								</reel>
							</timecode>
							<media>
								<video>
									<samplecharacteristics>
										<rate>
											<timebase>25</timebase>
											<ntsc>FALSE</ntsc>
										</rate>
										<width>1920</width>
										<height>1080</height>
										<anamorphic>FALSE</anamorphic>
										<pixelaspectratio>square</pixelaspectratio>
										<fielddominance>upper</fielddominance>
									</samplecharacteristics>
								</video>
								<audio>
									<samplecharacteristics>
										<depth>16</depth>
										<samplerate>48000</samplerate>
									</samplecharacteristics>
									<channelcount>8</channelcount>
								</audio>
							</media>
						</file>
						<sourcetrack>
							<mediatype>audio</mediatype>
							<trackindex>1</trackindex>
						</sourcetrack>
							<filter>
								<effect>
									<name>Audio Levels</name>
									<effectid>audiolevels</effectid>
									<effectcategory>audiolevels</effectcategory>
									<effecttype>audiolevels</effecttype>
									<mediatype>audio</mediatype>
									<parameter authoringApp="PremierePro">
										<parameterid>level</parameterid>
										<name>Level</name>
										<valuemin>0</valuemin>
										<valuemax>3.98109</valuemax>
										<value>0</value>
									</parameter>
								</effect>
							</filter>
						<logginginfo>
							<description></description>
							<scene></scene>
							<shottake></shottake>
							<lognote></lognote>
						</logginginfo>
						<labels>
							<label2>Iris</label2>
						</labels>
					</clipitem>
					<clipitem id="clipitem-535" premiereChannelType="mono">
						<masterclipid>masterclip-47</masterclipid>
						<name>IMG_4222.mp4</name>
						<enabled>TRUE</enabled>
						<duration>222</duration>
						<rate>
							<timebase>25</timebase>
							<ntsc>FALSE</ntsc>
						</rate>
						<start>19614</start>
						<end>19748</end>
						<in>0</in>
						<out>134</out>
						<pproTicksIn>0</pproTicksIn>
						<pproTicksOut>1361525760000</pproTicksOut>
						<file id="file-47"/>
						<sourcetrack>
							<mediatype>audio</mediatype>
							<trackindex>1</trackindex>
						</sourcetrack>
						<link>
							<linkclipref>clipitem-60</linkclipref>
							<mediatype>video</mediatype>
							<trackindex>1</trackindex>
							<clipindex>60</clipindex>
						</link>
						<link>
							<linkclipref>clipitem-535</linkclipref>
							<mediatype>audio</mediatype>
							<trackindex>1</trackindex>
							<clipindex>37</clipindex>
							<groupindex>1</groupindex>
						</link>
						<logginginfo>
							<description></description>
							<scene></scene>
							<shottake></shottake>
							<lognote></lognote>
						</logginginfo>
						<labels>
							<label2>Iris</label2>
						</labels>
					</clipitem>
					<clipitem id="clipitem-536" premiereChannelType="mono">
						<masterclipid>masterclip-48</masterclipid>
						<name>IMG_4223.mp4</name>
						<enabled>TRUE</enabled>
						<duration>250</duration>
						<rate>
							<timebase>25</timebase>
							<ntsc>FALSE</ntsc>
						</rate>
						<start>19748</start>
						<end>19978</end>
						<in>0</in>
						<out>230</out>
						<pproTicksIn>0</pproTicksIn>
						<pproTicksOut>2336947200000</pproTicksOut>
						<file id="file-48"/>
						<sourcetrack>
							<mediatype>audio</mediatype>
							<trackindex>1</trackindex>
						</sourcetrack>
						<link>
							<linkclipref>clipitem-61</linkclipref>
							<mediatype>video</mediatype>
							<trackindex>1</trackindex>
							<clipindex>61</clipindex>
						</link>
						<link>
							<linkclipref>clipitem-536</linkclipref>
							<mediatype>audio</mediatype>
							<trackindex>1</trackindex>
							<clipindex>38</clipindex>
							<groupindex>1</groupindex>
						</link>
						<logginginfo>
							<description></description>
							<scene></scene>
							<shottake></shottake>
							<lognote></lognote>
						</logginginfo>
						<labels>
							<label2>Iris</label2>
						</labels>
					</clipitem>
					<clipitem id="clipitem-537" premiereChannelType="mono">
						<masterclipid>masterclip-308</masterclipid>
						<name>IMG_4376.MOV</name>
						<enabled>TRUE</enabled>
						<duration>705</duration>
						<rate>
							<timebase>25</timebase>
							<ntsc>FALSE</ntsc>
						</rate>
						<start>20156</start>
						<end>20431</end>
						<in>401</in>
						<out>676</out>
						<pproTicksIn>4074416640000</pproTicksIn>
						<pproTicksOut>6868592640000</pproTicksOut>
						<pixelaspectratio>square</pixelaspectratio>
						<anamorphic>FALSE</anamorphic>
						<file id="file-308">
							<name>IMG_4376.MOV</name>
							<pathurl>file://localhost/Volumes/Vaagen/Utveksling/Natur/Naturlig%20helaften%20fra%20Oslo/Copied_Copy%20of%20En%20Helaften%20MASTER_002/IMG_4376.MOV</pathurl>
							<rate>
								<timebase>30</timebase>
								<ntsc>FALSE</ntsc>
							</rate>
							<duration>847</duration>
							<timecode>
								<rate>
									<timebase>30</timebase>
									<ntsc>FALSE</ntsc>
								</rate>
								<string>00:00:00:00</string>
								<frame>0</frame>
								<displayformat>NDF</displayformat>
								<reel>
									<name></name>
								</reel>
							</timecode>
							<media>
								<video>
									<samplecharacteristics>
										<rate>
											<timebase>30</timebase>
											<ntsc>FALSE</ntsc>
										</rate>
										<width>1080</width>
										<height>1920</height>
										<anamorphic>FALSE</anamorphic>
										<pixelaspectratio>square</pixelaspectratio>
										<fielddominance>none</fielddominance>
									</samplecharacteristics>
								</video>
								<audio>
									<samplecharacteristics>
										<depth>16</depth>
										<samplerate>44100</samplerate>
									</samplecharacteristics>
									<channelcount>1</channelcount>
									<audiochannel>
										<sourcechannel>1</sourcechannel>
									</audiochannel>
								</audio>
							</media>
						</file>
						<sourcetrack>
							<mediatype>audio</mediatype>
							<trackindex>1</trackindex>
						</sourcetrack>
							<filter>
								<effect>
									<name>Audio Levels</name>
									<effectid>audiolevels</effectid>
									<effectcategory>audiolevels</effectcategory>
									<effecttype>audiolevels</effecttype>
									<mediatype>audio</mediatype>
									<parameter authoringApp="PremierePro">
										<parameterid>level</parameterid>
										<name>Level</name>
										<valuemin>0</valuemin>
										<valuemax>3.98109</valuemax>
										<value>0.99763</value>
										<keyframe>
											<when>502</when>
											<value>1.99526</value>
										</keyframe>
									</parameter>
								</effect>
							</filter>
						<logginginfo>
							<description></description>
							<scene></scene>
							<shottake></shottake>
							<lognote></lognote>
						</logginginfo>
						<labels>
							<label2>Iris</label2>
						</labels>
					</clipitem>
					<clipitem id="clipitem-538" premiereChannelType="stereo">
						<masterclipid>masterclip-51</masterclipid>
						<name>AA274501.MXF</name>
						<enabled>TRUE</enabled>
						<duration>1212</duration>
						<rate>
							<timebase>25</timebase>
							<ntsc>FALSE</ntsc>
						</rate>
						<start>20431</start>
						<end>20760</end>
						<in>642</in>
						<out>971</out>
						<pproTicksIn>6523130880000</pproTicksIn>
						<pproTicksOut>9865981440000</pproTicksOut>
						<file id="file-51"/>
						<sourcetrack>
							<mediatype>audio</mediatype>
							<trackindex>2</trackindex>
						</sourcetrack>
							<filter>
								<effect>
									<name>Audio Levels</name>
									<effectid>audiolevels</effectid>
									<effectcategory>audiolevels</effectcategory>
									<effecttype>audiolevels</effecttype>
									<mediatype>audio</mediatype>
									<parameter authoringApp="PremierePro">
										<parameterid>level</parameterid>
										<name>Level</name>
										<valuemin>0</valuemin>
										<valuemax>3.98109</valuemax>
										<value>0</value>
									</parameter>
								</effect>
							</filter>
						<link>
							<linkclipref>clipitem-64</linkclipref>
							<mediatype>video</mediatype>
							<trackindex>1</trackindex>
							<clipindex>64</clipindex>
						</link>
						<link>
							<linkclipref>clipitem-538</linkclipref>
							<mediatype>audio</mediatype>
							<trackindex>1</trackindex>
							<clipindex>40</clipindex>
							<groupindex>1</groupindex>
						</link>
						<link>
							<linkclipref>clipitem-596</linkclipref>
							<mediatype>audio</mediatype>
							<trackindex>2</trackindex>
							<clipindex>11</clipindex>
							<groupindex>1</groupindex>
						</link>
						<link>
							<linkclipref>clipitem-930</linkclipref>
							<mediatype>audio</mediatype>
							<trackindex>10</trackindex>
							<clipindex>28</clipindex>
							<groupindex>1</groupindex>
						</link>
						<link>
							<linkclipref>clipitem-1070</linkclipref>
							<mediatype>audio</mediatype>
							<trackindex>11</trackindex>
							<clipindex>28</clipindex>
							<groupindex>1</groupindex>
						</link>
						<logginginfo>
							<description></description>
							<scene></scene>
							<shottake></shottake>
							<lognote></lognote>
						</logginginfo>
						<labels>
							<label2>Iris</label2>
						</labels>
					</clipitem>
					<transitionitem>
						<start>31147</start>
						<end>31160</end>
						<alignment>start-black</alignment>
						<cutPointTicks>0</cutPointTicks>
						<rate>
							<timebase>25</timebase>
							<ntsc>FALSE</ntsc>
						</rate>
						<effect>
							<name>Cross Fade (+3dB)</name>
							<effectid>KGAudioTransCrossFade3dB</effectid>
							<effecttype>transition</effecttype>
							<mediatype>audio</mediatype>
							<wipecode>0</wipecode>
							<wipeaccuracy>100</wipeaccuracy>
							<startratio>0</startratio>
							<endratio>1</endratio>
							<reverse>FALSE</reverse>
						</effect>
					</transitionitem>
					<clipitem id="clipitem-539" premiereChannelType="mono">
						<masterclipid>masterclip-78</masterclipid>
						<name>AA383301.mov</name>
						<enabled>TRUE</enabled>
						<duration>1416</duration>
						<rate>
							<timebase>25</timebase>
							<ntsc>FALSE</ntsc>
						</rate>
						<start>-1</start>
						<end>31214</end>
						<in>147</in>
						<out>214</out>
						<pproTicksIn>1493614080000</pproTicksIn>
						<pproTicksOut>2174376960000</pproTicksOut>
						<file id="file-78"/>
						<sourcetrack>
							<mediatype>audio</mediatype>
							<trackindex>1</trackindex>
						</sourcetrack>
							<filter>
								<effect>
									<name>Audio Levels</name>
									<effectid>audiolevels</effectid>
									<effectcategory>audiolevels</effectcategory>
									<effecttype>audiolevels</effecttype>
									<mediatype>audio</mediatype>
									<parameter authoringApp="PremierePro">
										<parameterid>level</parameterid>
										<name>Level</name>
										<valuemin>0</valuemin>
										<valuemax>3.98109</valuemax>
										<value>1.00362</value>
									</parameter>
								</effect>
							</filter>
						<logginginfo>
							<description></description>
							<scene></scene>
							<shottake>AA3833</shottake>
							<lognote></lognote>
						</logginginfo>
						<labels>
							<label2>Violet</label2>
						</labels>
					</clipitem>
					<clipitem id="clipitem-540" premiereChannelType="mono">
						<masterclipid>masterclip-78</masterclipid>
						<name>AA383301.mov</name>
						<enabled>TRUE</enabled>
						<duration>1416</duration>
						<rate>
							<timebase>25</timebase>
							<ntsc>FALSE</ntsc>
						</rate>
						<start>31214</start>
						<end>-1</end>
						<in>240</in>
						<out>259</out>
						<pproTicksIn>2438553600000</pproTicksIn>
						<pproTicksOut>2631605760000</pproTicksOut>
						<file id="file-78"/>
						<sourcetrack>
							<mediatype>audio</mediatype>
							<trackindex>1</trackindex>
						</sourcetrack>
							<filter>
								<effect>
									<name>Audio Levels</name>
									<effectid>audiolevels</effectid>
									<effectcategory>audiolevels</effectcategory>
									<effecttype>audiolevels</effecttype>
									<mediatype>audio</mediatype>
									<parameter authoringApp="PremierePro">
										<parameterid>level</parameterid>
										<name>Level</name>
										<valuemin>0</valuemin>
										<valuemax>3.98109</valuemax>
										<value>0.781926</value>
									</parameter>
								</effect>
							</filter>
						<logginginfo>
							<description></description>
							<scene></scene>
							<shottake>AA3833</shottake>
							<lognote></lognote>
						</logginginfo>
						<labels>
							<label2>Violet</label2>
						</labels>
					</clipitem>
					<transitionitem>
						<start>31214</start>
						<end>31233</end>
						<alignment>end-black</alignment>
						<cutPointTicks>193052160000</cutPointTicks>
						<rate>
							<timebase>25</timebase>
							<ntsc>FALSE</ntsc>
						</rate>
						<effect>
							<name>Cross Fade (+3dB)</name>
							<effectid>KGAudioTransCrossFade3dB</effectid>
							<effecttype>transition</effecttype>
							<mediatype>audio</mediatype>
							<wipecode>0</wipecode>
							<wipeaccuracy>100</wipeaccuracy>
							<startratio>0</startratio>
							<endratio>1</endratio>
							<reverse>FALSE</reverse>
						</effect>
					</transitionitem>
					<clipitem id="clipitem-541" premiereChannelType="mono">
						<masterclipid>masterclip-192</masterclipid>
						<name>AA030201.mov</name>
						<enabled>TRUE</enabled>
						<duration>1416</duration>
						<rate>
							<timebase>25</timebase>
							<ntsc>FALSE</ntsc>
						</rate>
						<start>31233</start>
						<end>-1</end>
						<in>46</in>
						<out>58</out>
						<pproTicksIn>467389440000</pproTicksIn>
						<pproTicksOut>594789048000</pproTicksOut>
						<file id="file-192"/>
						<sourcetrack>
							<mediatype>audio</mediatype>
							<trackindex>1</trackindex>
						</sourcetrack>
							<filter>
								<effect>
									<name>Audio Levels</name>
									<effectid>audiolevels</effectid>
									<effectcategory>audiolevels</effectcategory>
									<effecttype>audiolevels</effecttype>
									<mediatype>audio</mediatype>
									<parameter authoringApp="PremierePro">
										<parameterid>level</parameterid>
										<name>Level</name>
										<valuemin>0</valuemin>
										<valuemax>3.98109</valuemax>
										<value>1.58114</value>
									</parameter>
								</effect>
							</filter>
						<logginginfo>
							<description></description>
							<scene></scene>
							<shottake>AA0302</shottake>
							<lognote></lognote>
						</logginginfo>
						<labels>
							<label2>Violet</label2>
						</labels>
					</clipitem>
					<transitionitem>
						<start>31244</start>
						<end>31245</end>
						<alignment>center</alignment>
						<cutPointTicks>4688712000</cutPointTicks>
						<rate>
							<timebase>25</timebase>
							<ntsc>FALSE</ntsc>
						</rate>
						<effect>
							<name>Cross Fade (+3dB)</name>
							<effectid>KGAudioTransCrossFade3dB</effectid>
							<effecttype>transition</effecttype>
							<mediatype>audio</mediatype>
							<wipecode>0</wipecode>
							<wipeaccuracy>100</wipeaccuracy>
							<startratio>0</startratio>
							<endratio>1</endratio>
							<reverse>FALSE</reverse>
						</effect>
					</transitionitem>
					<clipitem id="clipitem-542" premiereChannelType="mono">
						<masterclipid>masterclip-192</masterclipid>
						<name>AA030201.mov</name>
						<enabled>TRUE</enabled>
						<duration>1416</duration>
						<rate>
							<timebase>25</timebase>
							<ntsc>FALSE</ntsc>
						</rate>
						<start>-1</start>
						<end>31269</end>
						<in>82</in>
						<out>107</out>
						<pproTicksIn>838644408000</pproTicksIn>
						<pproTicksOut>1087188480000</pproTicksOut>
						<file id="file-192"/>
						<sourcetrack>
							<mediatype>audio</mediatype>
							<trackindex>1</trackindex>
						</sourcetrack>
							<filter>
								<effect>
									<name>Gain</name>
									<effectid>{61756678, 4761696e, 4b657947}</effectid>
									<effecttype>filter</effecttype>
									<mediatype>audio</mediatype>
									<parameter authoringApp="PremierePro">
										<parameterid>Gain(dB)</parameterid>
										<name>Gain(dB)</name>
										<valuemin>-96</valuemin>
										<valuemax>96</valuemax>
										<value>6</value>
									</parameter>
								</effect>
							</filter>
							<filter>
								<effect>
									<name>Audio Levels</name>
									<effectid>audiolevels</effectid>
									<effectcategory>audiolevels</effectcategory>
									<effecttype>audiolevels</effecttype>
									<mediatype>audio</mediatype>
									<parameter authoringApp="PremierePro">
										<parameterid>level</parameterid>
										<name>Level</name>
										<valuemin>0</valuemin>
										<valuemax>3.98109</valuemax>
										<value>1.68022</value>
									</parameter>
								</effect>
							</filter>
						<logginginfo>
							<description></description>
							<scene></scene>
							<shottake>AA0302</shottake>
							<lognote></lognote>
						</logginginfo>
						<labels>
							<label2>Violet</label2>
						</labels>
					</clipitem>
					<clipitem id="clipitem-543" premiereChannelType="mono">
						<masterclipid>masterclip-192</masterclipid>
						<name>AA030201.mov</name>
						<enabled>TRUE</enabled>
						<duration>1416</duration>
						<rate>
							<timebase>25</timebase>
							<ntsc>FALSE</ntsc>
						</rate>
						<start>31269</start>
						<end>31411</end>
						<in>102</in>
						<out>244</out>
						<pproTicksIn>1036385280000</pproTicksIn>
						<pproTicksOut>2479196160000</pproTicksOut>
						<file id="file-192"/>
						<sourcetrack>
							<mediatype>audio</mediatype>
							<trackindex>1</trackindex>
						</sourcetrack>
							<filter>
								<effect>
									<name>Gain</name>
									<effectid>{61756678, 4761696e, 4b657947}</effectid>
									<effecttype>filter</effecttype>
									<mediatype>audio</mediatype>
									<parameter authoringApp="PremierePro">
										<parameterid>Gain(dB)</parameterid>
										<name>Gain(dB)</name>
										<valuemin>-96</valuemin>
										<valuemax>96</valuemax>
										<value>6</value>
									</parameter>
								</effect>
							</filter>
							<filter>
								<effect>
									<name>Audio Levels</name>
									<effectid>audiolevels</effectid>
									<effectcategory>audiolevels</effectcategory>
									<effecttype>audiolevels</effecttype>
									<mediatype>audio</mediatype>
									<parameter authoringApp="PremierePro">
										<parameterid>level</parameterid>
										<name>Level</name>
										<valuemin>0</valuemin>
										<valuemax>3.98109</valuemax>
										<value>1.07153</value>
									</parameter>
								</effect>
							</filter>
						<logginginfo>
							<description></description>
							<scene></scene>
							<shottake>AA0302</shottake>
							<lognote></lognote>
						</logginginfo>
						<labels>
							<label2>Violet</label2>
						</labels>
					</clipitem>
					<clipitem id="clipitem-544" premiereChannelType="mono">
						<masterclipid>masterclip-192</masterclipid>
						<name>AA030201.mov</name>
						<enabled>TRUE</enabled>
						<duration>1416</duration>
						<rate>
							<timebase>25</timebase>
							<ntsc>FALSE</ntsc>
						</rate>
						<start>31411</start>
						<end>-1</end>
						<in>286</in>
						<out>330</out>
						<pproTicksIn>2905943040000</pproTicksIn>
						<pproTicksOut>3353011200000</pproTicksOut>
						<file id="file-192"/>
						<sourcetrack>
							<mediatype>audio</mediatype>
							<trackindex>1</trackindex>
						</sourcetrack>
							<filter>
								<effect>
									<name>Gain</name>
									<effectid>{61756678, 4761696e, 4b657947}</effectid>
									<effecttype>filter</effecttype>
									<mediatype>audio</mediatype>
									<parameter authoringApp="PremierePro">
										<parameterid>Gain(dB)</parameterid>
										<name>Gain(dB)</name>
										<valuemin>-96</valuemin>
										<valuemax>96</valuemax>
										<value>6</value>
									</parameter>
								</effect>
							</filter>
							<filter>
								<effect>
									<name>Audio Levels</name>
									<effectid>audiolevels</effectid>
									<effectcategory>audiolevels</effectcategory>
									<effecttype>audiolevels</effecttype>
									<mediatype>audio</mediatype>
									<parameter authoringApp="PremierePro">
										<parameterid>level</parameterid>
										<name>Level</name>
										<valuemin>0</valuemin>
										<valuemax>3.98109</valuemax>
										<value>1.07153</value>
									</parameter>
								</effect>
							</filter>
						<logginginfo>
							<description></description>
							<scene></scene>
							<shottake>AA0302</shottake>
							<lognote></lognote>
						</logginginfo>
						<labels>
							<label2>Violet</label2>
						</labels>
					</clipitem>
					<transitionitem>
						<start>31450</start>
						<end>31455</end>
						<alignment>center</alignment>
						<cutPointTicks>20321280000</cutPointTicks>
						<rate>
							<timebase>25</timebase>
							<ntsc>FALSE</ntsc>
						</rate>
						<effect>
							<name>Cross Fade (+3dB)</name>
							<effectid>KGAudioTransCrossFade3dB</effectid>
							<effecttype>transition</effecttype>
							<mediatype>audio</mediatype>
							<wipecode>0</wipecode>
							<wipeaccuracy>100</wipeaccuracy>
							<startratio>0</startratio>
							<endratio>1</endratio>
							<reverse>FALSE</reverse>
						</effect>
					</transitionitem>
					<clipitem id="clipitem-545" premiereChannelType="mono">
						<masterclipid>masterclip-80</masterclipid>
						<name>AA030101.mov</name>
						<enabled>TRUE</enabled>
						<duration>4032</duration>
						<rate>
							<timebase>25</timebase>
							<ntsc>FALSE</ntsc>
						</rate>
						<start>-1</start>
						<end>-1</end>
						<in>3515</in>
						<out>3562</out>
						<pproTicksIn>35714649600000</pproTicksIn>
						<pproTicksOut>36192199680000</pproTicksOut>
						<file id="file-80"/>
						<sourcetrack>
							<mediatype>audio</mediatype>
							<trackindex>1</trackindex>
						</sourcetrack>
							<filter>
								<effect>
									<name>Gain</name>
									<effectid>{61756678, 4761696e, 4b657947}</effectid>
									<effecttype>filter</effecttype>
									<mediatype>audio</mediatype>
									<parameter authoringApp="PremierePro">
										<parameterid>Gain(dB)</parameterid>
										<name>Gain(dB)</name>
										<valuemin>-96</valuemin>
										<valuemax>96</valuemax>
										<value>6</value>
									</parameter>
								</effect>
							</filter>
							<filter>
								<effect>
									<name>Audio Levels</name>
									<effectid>audiolevels</effectid>
									<effectcategory>audiolevels</effectcategory>
									<effecttype>audiolevels</effecttype>
									<mediatype>audio</mediatype>
									<parameter authoringApp="PremierePro">
										<parameterid>level</parameterid>
										<name>Level</name>
										<valuemin>0</valuemin>
										<valuemax>3.98109</valuemax>
										<value>0.99763</value>
									</parameter>
								</effect>
							</filter>
						<logginginfo>
							<description></description>
							<scene></scene>
							<shottake>AA0301</shottake>
							<lognote></lognote>
						</logginginfo>
						<labels>
							<label2>Violet</label2>
						</labels>
					</clipitem>
					<transitionitem>
						<start>31484</start>
						<end>31497</end>
						<alignment>center</alignment>
						<cutPointTicks>60963840000</cutPointTicks>
						<rate>
							<timebase>25</timebase>
							<ntsc>FALSE</ntsc>
						</rate>
						<effect>
							<name>Cross Fade (+3dB)</name>
							<effectid>KGAudioTransCrossFade3dB</effectid>
							<effecttype>transition</effecttype>
							<mediatype>audio</mediatype>
							<wipecode>0</wipecode>
							<wipeaccuracy>100</wipeaccuracy>
							<startratio>0</startratio>
							<endratio>1</endratio>
							<reverse>FALSE</reverse>
						</effect>
					</transitionitem>
					<clipitem id="clipitem-546" premiereChannelType="mono">
						<masterclipid>masterclip-81</masterclipid>
						<name>AA385201.mov</name>
						<enabled>TRUE</enabled>
						<duration>5712</duration>
						<rate>
							<timebase>25</timebase>
							<ntsc>FALSE</ntsc>
						</rate>
						<start>-1</start>
						<end>-1</end>
						<in>2323</in>
						<out>2385</out>
						<pproTicksIn>23603166720000</pproTicksIn>
						<pproTicksOut>24233126400000</pproTicksOut>
						<file id="file-81"/>
						<sourcetrack>
							<mediatype>audio</mediatype>
							<trackindex>1</trackindex>
						</sourcetrack>
							<filter>
								<effect>
									<name>Audio Levels</name>
									<effectid>audiolevels</effectid>
									<effectcategory>audiolevels</effectcategory>
									<effecttype>audiolevels</effecttype>
									<mediatype>audio</mediatype>
									<parameter authoringApp="PremierePro">
										<parameterid>level</parameterid>
										<name>Level</name>
										<valuemin>0</valuemin>
										<valuemax>3.98109</valuemax>
										<value>0.561009</value>
										<keyframe>
											<when>2625</when>
											<value>0.561009</value>
										</keyframe>
									</parameter>
								</effect>
							</filter>
						<logginginfo>
							<description></description>
							<scene></scene>
							<shottake>AA3852</shottake>
							<lognote></lognote>
						</logginginfo>
						<labels>
							<label2>Violet</label2>
						</labels>
					</clipitem>
					<transitionitem>
						<start>31539</start>
						<end>31546</end>
						<alignment>center</alignment>
						<cutPointTicks>30481920000</cutPointTicks>
						<rate>
							<timebase>25</timebase>
							<ntsc>FALSE</ntsc>
						</rate>
						<effect>
							<name>Cross Fade (+3dB)</name>
							<effectid>KGAudioTransCrossFade3dB</effectid>
							<effecttype>transition</effecttype>
							<mediatype>audio</mediatype>
							<wipecode>0</wipecode>
							<wipeaccuracy>100</wipeaccuracy>
							<startratio>0</startratio>
							<endratio>1</endratio>
							<reverse>FALSE</reverse>
						</effect>
					</transitionitem>
					<clipitem id="clipitem-547" premiereChannelType="mono">
						<masterclipid>masterclip-82</masterclipid>
						<name>AA395101.mov</name>
						<enabled>TRUE</enabled>
						<duration>5400</duration>
						<rate>
							<timebase>25</timebase>
							<ntsc>FALSE</ntsc>
						</rate>
						<start>-1</start>
						<end>31622</end>
						<in>4719</in>
						<out>4802</out>
						<pproTicksIn>47948060160000</pproTicksIn>
						<pproTicksOut>48791393280000</pproTicksOut>
						<file id="file-82"/>
						<sourcetrack>
							<mediatype>audio</mediatype>
							<trackindex>1</trackindex>
						</sourcetrack>
							<filter>
								<effect>
									<name>Gain</name>
									<effectid>{61756678, 4761696e, 4b657947}</effectid>
									<effecttype>filter</effecttype>
									<mediatype>audio</mediatype>
									<parameter authoringApp="PremierePro">
										<parameterid>Gain(dB)</parameterid>
										<name>Gain(dB)</name>
										<valuemin>-96</valuemin>
										<valuemax>96</valuemax>
										<value>6</value>
									</parameter>
								</effect>
							</filter>
							<filter>
								<effect>
									<name>Audio Levels</name>
									<effectid>audiolevels</effectid>
									<effectcategory>audiolevels</effectcategory>
									<effecttype>audiolevels</effecttype>
									<mediatype>audio</mediatype>
									<parameter authoringApp="PremierePro">
										<parameterid>level</parameterid>
										<name>Level</name>
										<valuemin>0</valuemin>
										<valuemax>3.98109</valuemax>
										<value>0</value>
									</parameter>
								</effect>
							</filter>
						<logginginfo>
							<description></description>
							<scene></scene>
							<shottake>AA3951</shottake>
							<lognote></lognote>
						</logginginfo>
						<labels>
							<label2>Violet</label2>
						</labels>
					</clipitem>
					<clipitem id="clipitem-548" premiereChannelType="mono">
						<masterclipid>masterclip-82</masterclipid>
						<name>AA395101.mov</name>
						<enabled>TRUE</enabled>
						<duration>5400</duration>
						<rate>
							<timebase>25</timebase>
							<ntsc>FALSE</ntsc>
						</rate>
						<start>31622</start>
						<end>31665</end>
						<in>4829</in>
						<out>4872</out>
						<pproTicksIn>49065730560000</pproTicksIn>
						<pproTicksOut>49502638080000</pproTicksOut>
						<file id="file-82"/>
						<sourcetrack>
							<mediatype>audio</mediatype>
							<trackindex>1</trackindex>
						</sourcetrack>
							<filter>
								<effect>
									<name>Gain</name>
									<effectid>{61756678, 4761696e, 4b657947}</effectid>
									<effecttype>filter</effecttype>
									<mediatype>audio</mediatype>
									<parameter authoringApp="PremierePro">
										<parameterid>Gain(dB)</parameterid>
										<name>Gain(dB)</name>
										<valuemin>-96</valuemin>
										<valuemax>96</valuemax>
										<value>6</value>
									</parameter>
								</effect>
							</filter>
							<filter>
								<effect>
									<name>Audio Levels</name>
									<effectid>audiolevels</effectid>
									<effectcategory>audiolevels</effectcategory>
									<effecttype>audiolevels</effecttype>
									<mediatype>audio</mediatype>
									<parameter authoringApp="PremierePro">
										<parameterid>level</parameterid>
										<name>Level</name>
										<valuemin>0</valuemin>
										<valuemax>3.98109</valuemax>
										<value>0</value>
									</parameter>
								</effect>
							</filter>
						<logginginfo>
							<description></description>
							<scene></scene>
							<shottake>AA3951</shottake>
							<lognote></lognote>
						</logginginfo>
						<labels>
							<label2>Violet</label2>
						</labels>
					</clipitem>
					<clipitem id="clipitem-549" premiereChannelType="mono">
						<masterclipid>masterclip-82</masterclipid>
						<name>AA395101.mov</name>
						<enabled>TRUE</enabled>
						<duration>5400</duration>
						<rate>
							<timebase>25</timebase>
							<ntsc>FALSE</ntsc>
						</rate>
						<start>31665</start>
						<end>-1</end>
						<in>4877</in>
						<out>4906</out>
						<pproTicksIn>49553441280000</pproTicksIn>
						<pproTicksOut>49848099840000</pproTicksOut>
						<file id="file-82"/>
						<sourcetrack>
							<mediatype>audio</mediatype>
							<trackindex>1</trackindex>
						</sourcetrack>
							<filter>
								<effect>
									<name>Gain</name>
									<effectid>{61756678, 4761696e, 4b657947}</effectid>
									<effecttype>filter</effecttype>
									<mediatype>audio</mediatype>
									<parameter authoringApp="PremierePro">
										<parameterid>Gain(dB)</parameterid>
										<name>Gain(dB)</name>
										<valuemin>-96</valuemin>
										<valuemax>96</valuemax>
										<value>6</value>
									</parameter>
								</effect>
							</filter>
							<filter>
								<effect>
									<name>Audio Levels</name>
									<effectid>audiolevels</effectid>
									<effectcategory>audiolevels</effectcategory>
									<effecttype>audiolevels</effecttype>
									<mediatype>audio</mediatype>
									<parameter authoringApp="PremierePro">
										<parameterid>level</parameterid>
										<name>Level</name>
										<valuemin>0</valuemin>
										<valuemax>3.98109</valuemax>
										<value>0</value>
									</parameter>
								</effect>
							</filter>
						<logginginfo>
							<description></description>
							<scene></scene>
							<shottake>AA3951</shottake>
							<lognote></lognote>
						</logginginfo>
						<labels>
							<label2>Violet</label2>
						</labels>
					</clipitem>
					<transitionitem>
						<start>31681</start>
						<end>31694</end>
						<alignment>center</alignment>
						<cutPointTicks>60963840000</cutPointTicks>
						<rate>
							<timebase>25</timebase>
							<ntsc>FALSE</ntsc>
						</rate>
						<effect>
							<name>Cross Fade (+3dB)</name>
							<effectid>KGAudioTransCrossFade3dB</effectid>
							<effecttype>transition</effecttype>
							<mediatype>audio</mediatype>
							<wipecode>0</wipecode>
							<wipeaccuracy>100</wipeaccuracy>
							<startratio>0</startratio>
							<endratio>1</endratio>
							<reverse>FALSE</reverse>
						</effect>
					</transitionitem>
					<clipitem id="clipitem-550" premiereChannelType="mono">
						<masterclipid>masterclip-84</masterclipid>
						<name>isfiskeroye-3-210415r-029.mxf</name>
						<enabled>TRUE</enabled>
						<duration>8654</duration>
						<rate>
							<timebase>25</timebase>
							<ntsc>FALSE</ntsc>
						</rate>
						<start>-1</start>
						<end>31823</end>
						<in>6155</in>
						<out>6297</out>
						<pproTicksIn>62538739200000</pproTicksIn>
						<pproTicksOut>63981550080000</pproTicksOut>
						<file id="file-84"/>
						<sourcetrack>
							<mediatype>audio</mediatype>
							<trackindex>1</trackindex>
						</sourcetrack>
						<link>
							<linkclipref>clipitem-550</linkclipref>
							<mediatype>audio</mediatype>
							<trackindex>1</trackindex>
							<clipindex>59</clipindex>
							<groupindex>1</groupindex>
						</link>
						<link>
							<linkclipref>clipitem-632</linkclipref>
							<mediatype>audio</mediatype>
							<trackindex>3</trackindex>
							<clipindex>43</clipindex>
							<groupindex>1</groupindex>
						</link>
						<logginginfo>
							<description></description>
							<scene></scene>
							<shottake></shottake>
							<lognote></lognote>
						</logginginfo>
						<labels>
							<label2>Cerulean</label2>
						</labels>
					</clipitem>
					<clipitem id="clipitem-551" premiereChannelType="mono">
						<masterclipid>masterclip-84</masterclipid>
						<name>isfiskeroye-3-210415r-029.mxf</name>
						<enabled>TRUE</enabled>
						<duration>8654</duration>
						<rate>
							<timebase>25</timebase>
							<ntsc>FALSE</ntsc>
						</rate>
						<start>31823</start>
						<end>32002</end>
						<in>7245</in>
						<out>7424</out>
						<pproTicksIn>73613836800000</pproTicksIn>
						<pproTicksOut>75432591360000</pproTicksOut>
						<file id="file-84"/>
						<sourcetrack>
							<mediatype>audio</mediatype>
							<trackindex>1</trackindex>
						</sourcetrack>
						<link>
							<linkclipref>clipitem-551</linkclipref>
							<mediatype>audio</mediatype>
							<trackindex>1</trackindex>
							<clipindex>60</clipindex>
							<groupindex>1</groupindex>
						</link>
						<link>
							<linkclipref>clipitem-633</linkclipref>
							<mediatype>audio</mediatype>
							<trackindex>3</trackindex>
							<clipindex>44</clipindex>
							<groupindex>1</groupindex>
						</link>
						<logginginfo>
							<description></description>
							<scene></scene>
							<shottake></shottake>
							<lognote></lognote>
						</logginginfo>
						<labels>
							<label2>Cerulean</label2>
						</labels>
					</clipitem>
					<clipitem id="clipitem-552" premiereChannelType="mono">
						<masterclipid>masterclip-84</masterclipid>
						<name>isfiskeroye-3-210415r-029.mxf</name>
						<enabled>TRUE</enabled>
						<duration>8654</duration>
						<rate>
							<timebase>25</timebase>
							<ntsc>FALSE</ntsc>
						</rate>
						<start>32021</start>
						<end>32073</end>
						<in>7497</in>
						<out>7549</out>
						<pproTicksIn>76174318080000</pproTicksIn>
						<pproTicksOut>76702671360000</pproTicksOut>
						<file id="file-84"/>
						<sourcetrack>
							<mediatype>audio</mediatype>
							<trackindex>1</trackindex>
						</sourcetrack>
						<link>
							<linkclipref>clipitem-552</linkclipref>
							<mediatype>audio</mediatype>
							<trackindex>1</trackindex>
							<clipindex>61</clipindex>
							<groupindex>1</groupindex>
						</link>
						<link>
							<linkclipref>clipitem-634</linkclipref>
							<mediatype>audio</mediatype>
							<trackindex>3</trackindex>
							<clipindex>45</clipindex>
							<groupindex>1</groupindex>
						</link>
						<logginginfo>
							<description></description>
							<scene></scene>
							<shottake></shottake>
							<lognote></lognote>
						</logginginfo>
						<labels>
							<label2>Cerulean</label2>
						</labels>
					</clipitem>
					<clipitem id="clipitem-553" premiereChannelType="mono">
						<masterclipid>masterclip-84</masterclipid>
						<name>isfiskeroye-3-210415r-029.mxf</name>
						<enabled>TRUE</enabled>
						<duration>8654</duration>
						<rate>
							<timebase>25</timebase>
							<ntsc>FALSE</ntsc>
						</rate>
						<start>32073</start>
						<end>32091</end>
						<in>7579</in>
						<out>7597</out>
						<pproTicksIn>77007490560000</pproTicksIn>
						<pproTicksOut>77190382080000</pproTicksOut>
						<file id="file-84"/>
						<sourcetrack>
							<mediatype>audio</mediatype>
							<trackindex>1</trackindex>
						</sourcetrack>
						<link>
							<linkclipref>clipitem-553</linkclipref>
							<mediatype>audio</mediatype>
							<trackindex>1</trackindex>
							<clipindex>62</clipindex>
							<groupindex>1</groupindex>
						</link>
						<link>
							<linkclipref>clipitem-635</linkclipref>
							<mediatype>audio</mediatype>
							<trackindex>3</trackindex>
							<clipindex>46</clipindex>
							<groupindex>1</groupindex>
						</link>
						<logginginfo>
							<description></description>
							<scene></scene>
							<shottake></shottake>
							<lognote></lognote>
						</logginginfo>
						<labels>
							<label2>Cerulean</label2>
						</labels>
					</clipitem>
					<clipitem id="clipitem-554" premiereChannelType="mono">
						<masterclipid>masterclip-84</masterclipid>
						<name>isfiskeroye-3-210415r-029.mxf</name>
						<enabled>TRUE</enabled>
						<duration>8654</duration>
						<rate>
							<timebase>25</timebase>
							<ntsc>FALSE</ntsc>
						</rate>
						<start>32091</start>
						<end>32116</end>
						<in>7628</in>
						<out>7653</out>
						<pproTicksIn>77505361920000</pproTicksIn>
						<pproTicksOut>77759377920000</pproTicksOut>
						<file id="file-84"/>
						<sourcetrack>
							<mediatype>audio</mediatype>
							<trackindex>1</trackindex>
						</sourcetrack>
						<link>
							<linkclipref>clipitem-554</linkclipref>
							<mediatype>audio</mediatype>
							<trackindex>1</trackindex>
							<clipindex>63</clipindex>
							<groupindex>1</groupindex>
						</link>
						<link>
							<linkclipref>clipitem-636</linkclipref>
							<mediatype>audio</mediatype>
							<trackindex>3</trackindex>
							<clipindex>47</clipindex>
							<groupindex>1</groupindex>
						</link>
						<logginginfo>
							<description></description>
							<scene></scene>
							<shottake></shottake>
							<lognote></lognote>
						</logginginfo>
						<labels>
							<label2>Cerulean</label2>
						</labels>
					</clipitem>
					<clipitem id="clipitem-555" premiereChannelType="mono">
						<masterclipid>masterclip-85</masterclipid>
						<name>isfiskeroye-3-210415r-033.mxf</name>
						<enabled>TRUE</enabled>
						<duration>3106</duration>
						<rate>
							<timebase>25</timebase>
							<ntsc>FALSE</ntsc>
						</rate>
						<start>32116</start>
						<end>32702</end>
						<in>284</in>
						<out>870</out>
						<pproTicksIn>2885621760000</pproTicksIn>
						<pproTicksOut>8839756800000</pproTicksOut>
						<file id="file-85"/>
						<sourcetrack>
							<mediatype>audio</mediatype>
							<trackindex>1</trackindex>
						</sourcetrack>
						<link>
							<linkclipref>clipitem-555</linkclipref>
							<mediatype>audio</mediatype>
							<trackindex>1</trackindex>
							<clipindex>64</clipindex>
							<groupindex>1</groupindex>
						</link>
						<link>
							<linkclipref>clipitem-637</linkclipref>
							<mediatype>audio</mediatype>
							<trackindex>3</trackindex>
							<clipindex>48</clipindex>
							<groupindex>1</groupindex>
						</link>
						<logginginfo>
							<description></description>
							<scene></scene>
							<shottake></shottake>
							<lognote></lognote>
						</logginginfo>
						<labels>
							<label2>Cerulean</label2>
						</labels>
					</clipitem>
					<transitionitem>
						<start>34434</start>
						<end>34447</end>
						<alignment>start-black</alignment>
						<cutPointTicks>0</cutPointTicks>
						<rate>
							<timebase>25</timebase>
							<ntsc>FALSE</ntsc>
						</rate>
						<effect>
							<name>Cross Fade (+3dB)</name>
							<effectid>KGAudioTransCrossFade3dB</effectid>
							<effecttype>transition</effecttype>
							<mediatype>audio</mediatype>
							<wipecode>0</wipecode>
							<wipeaccuracy>100</wipeaccuracy>
							<startratio>0</startratio>
							<endratio>1</endratio>
							<reverse>FALSE</reverse>
						</effect>
					</transitionitem>
					<clipitem id="clipitem-556" premiereChannelType="mono">
						<masterclipid>masterclip-88</masterclipid>
						<name>Aashild-august-Clip0331.MXF</name>
						<enabled>TRUE</enabled>
						<duration>2604</duration>
						<rate>
							<timebase>25</timebase>
							<ntsc>FALSE</ntsc>
						</rate>
						<start>-1</start>
						<end>34476</end>
						<in>832</in>
						<out>874</out>
						<pproTicksIn>8453652480000</pproTicksIn>
						<pproTicksOut>8880399360000</pproTicksOut>
						<file id="file-88"/>
						<sourcetrack>
							<mediatype>audio</mediatype>
							<trackindex>1</trackindex>
						</sourcetrack>
						<link>
							<linkclipref>clipitem-556</linkclipref>
							<mediatype>audio</mediatype>
							<trackindex>1</trackindex>
							<clipindex>66</clipindex>
							<groupindex>1</groupindex>
						</link>
						<link>
							<linkclipref>clipitem-638</linkclipref>
							<mediatype>audio</mediatype>
							<trackindex>3</trackindex>
							<clipindex>50</clipindex>
							<groupindex>1</groupindex>
						</link>
						<logginginfo>
							<description></description>
							<scene></scene>
							<shottake></shottake>
							<lognote></lognote>
						</logginginfo>
						<labels>
							<label2>Caribbean</label2>
						</labels>
					</clipitem>
					<clipitem id="clipitem-557" premiereChannelType="mono">
						<masterclipid>masterclip-88</masterclipid>
						<name>Aashild-august-Clip0331.MXF</name>
						<enabled>TRUE</enabled>
						<duration>2604</duration>
						<rate>
							<timebase>25</timebase>
							<ntsc>FALSE</ntsc>
						</rate>
						<start>34476</start>
						<end>34521</end>
						<in>980</in>
						<out>1025</out>
						<pproTicksIn>9957427200000</pproTicksIn>
						<pproTicksOut>10414656000000</pproTicksOut>
						<file id="file-88"/>
						<sourcetrack>
							<mediatype>audio</mediatype>
							<trackindex>1</trackindex>
						</sourcetrack>
						<link>
							<linkclipref>clipitem-128</linkclipref>
							<mediatype>video</mediatype>
							<trackindex>1</trackindex>
							<clipindex>137</clipindex>
						</link>
						<link>
							<linkclipref>clipitem-557</linkclipref>
							<mediatype>audio</mediatype>
							<trackindex>1</trackindex>
							<clipindex>67</clipindex>
							<groupindex>1</groupindex>
						</link>
						<link>
							<linkclipref>clipitem-639</linkclipref>
							<mediatype>audio</mediatype>
							<trackindex>3</trackindex>
							<clipindex>51</clipindex>
							<groupindex>1</groupindex>
						</link>
						<logginginfo>
							<description></description>
							<scene></scene>
							<shottake></shottake>
							<lognote></lognote>
						</logginginfo>
						<labels>
							<label2>Caribbean</label2>
						</labels>
					</clipitem>
					<clipitem id="clipitem-558" premiereChannelType="mono">
						<masterclipid>masterclip-309</masterclipid>
						<name>Aashild-august-Clip0328.MXF</name>
						<enabled>TRUE</enabled>
						<duration>768</duration>
						<rate>
							<timebase>25</timebase>
							<ntsc>FALSE</ntsc>
						</rate>
						<start>34522</start>
						<end>34613</end>
						<in>465</in>
						<out>556</out>
						<pproTicksIn>4724697600000</pproTicksIn>
						<pproTicksOut>5649315840000</pproTicksOut>
						<pixelaspectratio>square</pixelaspectratio>
						<anamorphic>FALSE</anamorphic>
						<file id="file-309">
							<name>Aashild-august-Clip0328.MXF</name>
							<pathurl>file://localhost/Volumes/Vaagen/Prosjekter/DVNA200216_OAO_Naturforskere_010118_OAO/Ra%cc%8astoff/A%cc%8ashild%20Pedersen/Svalbard%20august/Fs5/Aashild-august-Clip0328.MXF</pathurl>
							<rate>
								<timebase>50</timebase>
								<ntsc>FALSE</ntsc>
							</rate>
							<duration>1536</duration>
							<timecode>
								<rate>
									<timebase>50</timebase>
									<ntsc>FALSE</ntsc>
								</rate>
								<string>03:47:24:00</string>
								<frame>682200</frame>
								<displayformat>NDF</displayformat>
								<reel>
									<name></name>
								</reel>
							</timecode>
							<media>
								<video>
									<samplecharacteristics>
										<rate>
											<timebase>50</timebase>
											<ntsc>FALSE</ntsc>
										</rate>
										<width>1920</width>
										<height>1080</height>
										<anamorphic>FALSE</anamorphic>
										<pixelaspectratio>square</pixelaspectratio>
										<fielddominance>none</fielddominance>
									</samplecharacteristics>
								</video>
								<audio>
									<samplecharacteristics>
										<depth>16</depth>
										<samplerate>48000</samplerate>
									</samplecharacteristics>
									<channelcount>4</channelcount>
								</audio>
							</media>
						</file>
						<sourcetrack>
							<mediatype>audio</mediatype>
							<trackindex>1</trackindex>
						</sourcetrack>
							<filter>
								<effect>
									<name>Audio Levels</name>
									<effectid>audiolevels</effectid>
									<effectcategory>audiolevels</effectcategory>
									<effecttype>audiolevels</effecttype>
									<mediatype>audio</mediatype>
									<parameter authoringApp="PremierePro">
										<parameterid>level</parameterid>
										<name>Level</name>
										<valuemin>0</valuemin>
										<valuemax>3.98109</valuemax>
										<value>1.39874</value>
									</parameter>
								</effect>
							</filter>
						<logginginfo>
							<description></description>
							<scene></scene>
							<shottake></shottake>
							<lognote></lognote>
						</logginginfo>
						<labels>
							<label2>Caribbean</label2>
						</labels>
					</clipitem>
					<clipitem id="clipitem-559" premiereChannelType="mono">
						<masterclipid>masterclip-90</masterclipid>
						<name>Aashild-august-Clip0576.MXF</name>
						<enabled>TRUE</enabled>
						<duration>552</duration>
						<rate>
							<timebase>25</timebase>
							<ntsc>FALSE</ntsc>
						</rate>
						<start>34625</start>
						<end>34662</end>
						<in>86</in>
						<out>123</out>
						<pproTicksIn>873815040000</pproTicksIn>
						<pproTicksOut>1249758720000</pproTicksOut>
						<file id="file-90"/>
						<sourcetrack>
							<mediatype>audio</mediatype>
							<trackindex>1</trackindex>
						</sourcetrack>
						<link>
							<linkclipref>clipitem-130</linkclipref>
							<mediatype>video</mediatype>
							<trackindex>1</trackindex>
							<clipindex>139</clipindex>
						</link>
						<link>
							<linkclipref>clipitem-559</linkclipref>
							<mediatype>audio</mediatype>
							<trackindex>1</trackindex>
							<clipindex>69</clipindex>
							<groupindex>1</groupindex>
						</link>
						<link>
							<linkclipref>clipitem-641</linkclipref>
							<mediatype>audio</mediatype>
							<trackindex>3</trackindex>
							<clipindex>53</clipindex>
							<groupindex>1</groupindex>
						</link>
						<logginginfo>
							<description></description>
							<scene></scene>
							<shottake></shottake>
							<lognote></lognote>
						</logginginfo>
						<labels>
							<label2>Caribbean</label2>
						</labels>
					</clipitem>
					<clipitem id="clipitem-560" premiereChannelType="mono">
						<masterclipid>masterclip-91</masterclipid>
						<name>Aashild-august-Clip0236.MXF</name>
						<enabled>TRUE</enabled>
						<duration>528</duration>
						<rate>
							<timebase>25</timebase>
							<ntsc>FALSE</ntsc>
						</rate>
						<start>34662</start>
						<end>34712</end>
						<in>78</in>
						<out>129</out>
						<pproTicksIn>792529920000</pproTicksIn>
						<pproTicksOut>1310722560000</pproTicksOut>
						<file id="file-91"/>
						<sourcetrack>
							<mediatype>audio</mediatype>
							<trackindex>1</trackindex>
						</sourcetrack>
						<link>
							<linkclipref>clipitem-131</linkclipref>
							<mediatype>video</mediatype>
							<trackindex>1</trackindex>
							<clipindex>140</clipindex>
						</link>
						<link>
							<linkclipref>clipitem-560</linkclipref>
							<mediatype>audio</mediatype>
							<trackindex>1</trackindex>
							<clipindex>70</clipindex>
							<groupindex>1</groupindex>
						</link>
						<link>
							<linkclipref>clipitem-642</linkclipref>
							<mediatype>audio</mediatype>
							<trackindex>3</trackindex>
							<clipindex>54</clipindex>
							<groupindex>1</groupindex>
						</link>
						<logginginfo>
							<description></description>
							<scene></scene>
							<shottake></shottake>
							<lognote></lognote>
						</logginginfo>
						<labels>
							<label2>Caribbean</label2>
						</labels>
					</clipitem>
					<clipitem id="clipitem-561" premiereChannelType="mono">
						<masterclipid>masterclip-92</masterclipid>
						<name>Aashild-august-Clip0264.MXF</name>
						<enabled>TRUE</enabled>
						<duration>876</duration>
						<rate>
							<timebase>25</timebase>
							<ntsc>FALSE</ntsc>
						</rate>
						<start>34712</start>
						<end>34745</end>
						<in>25</in>
						<out>58</out>
						<pproTicksIn>254016000000</pproTicksIn>
						<pproTicksOut>589317120000</pproTicksOut>
						<file id="file-92"/>
						<sourcetrack>
							<mediatype>audio</mediatype>
							<trackindex>1</trackindex>
						</sourcetrack>
						<link>
							<linkclipref>clipitem-132</linkclipref>
							<mediatype>video</mediatype>
							<trackindex>1</trackindex>
							<clipindex>141</clipindex>
						</link>
						<link>
							<linkclipref>clipitem-561</linkclipref>
							<mediatype>audio</mediatype>
							<trackindex>1</trackindex>
							<clipindex>71</clipindex>
							<groupindex>1</groupindex>
						</link>
						<link>
							<linkclipref>clipitem-643</linkclipref>
							<mediatype>audio</mediatype>
							<trackindex>3</trackindex>
							<clipindex>55</clipindex>
							<groupindex>1</groupindex>
						</link>
						<logginginfo>
							<description></description>
							<scene></scene>
							<shottake></shottake>
							<lognote></lognote>
						</logginginfo>
						<labels>
							<label2>Caribbean</label2>
						</labels>
					</clipitem>
					<clipitem id="clipitem-562" premiereChannelType="mono">
						<masterclipid>masterclip-196</masterclipid>
						<name>Aashild-august-Clip0207.MXF</name>
						<enabled>TRUE</enabled>
						<duration>3972</duration>
						<rate>
							<timebase>25</timebase>
							<ntsc>FALSE</ntsc>
						</rate>
						<start>34745</start>
						<end>34769</end>
						<in>147</in>
						<out>171</out>
						<pproTicksIn>1493614080000</pproTicksIn>
						<pproTicksOut>1737469440000</pproTicksOut>
						<file id="file-196"/>
						<sourcetrack>
							<mediatype>audio</mediatype>
							<trackindex>1</trackindex>
						</sourcetrack>
						<link>
							<linkclipref>clipitem-313</linkclipref>
							<mediatype>video</mediatype>
							<trackindex>2</trackindex>
							<clipindex>57</clipindex>
						</link>
						<link>
							<linkclipref>clipitem-562</linkclipref>
							<mediatype>audio</mediatype>
							<trackindex>1</trackindex>
							<clipindex>72</clipindex>
							<groupindex>1</groupindex>
						</link>
						<link>
							<linkclipref>clipitem-644</linkclipref>
							<mediatype>audio</mediatype>
							<trackindex>3</trackindex>
							<clipindex>56</clipindex>
							<groupindex>1</groupindex>
						</link>
						<logginginfo>
							<description></description>
							<scene></scene>
							<shottake></shottake>
							<lognote></lognote>
						</logginginfo>
						<labels>
							<label2>Caribbean</label2>
						</labels>
					</clipitem>
					<clipitem id="clipitem-563" premiereChannelType="mono">
						<masterclipid>masterclip-196</masterclipid>
						<name>Aashild-august-Clip0207.MXF</name>
						<enabled>TRUE</enabled>
						<duration>3972</duration>
						<rate>
							<timebase>25</timebase>
							<ntsc>FALSE</ntsc>
						</rate>
						<start>34769</start>
						<end>-1</end>
						<in>415</in>
						<out>515</out>
						<pproTicksIn>4216665600000</pproTicksIn>
						<pproTicksOut>5232729600000</pproTicksOut>
						<file id="file-196"/>
						<sourcetrack>
							<mediatype>audio</mediatype>
							<trackindex>1</trackindex>
						</sourcetrack>
						<link>
							<linkclipref>clipitem-314</linkclipref>
							<mediatype>video</mediatype>
							<trackindex>2</trackindex>
							<clipindex>58</clipindex>
						</link>
						<link>
							<linkclipref>clipitem-563</linkclipref>
							<mediatype>audio</mediatype>
							<trackindex>1</trackindex>
							<clipindex>73</clipindex>
							<groupindex>1</groupindex>
						</link>
						<link>
							<linkclipref>clipitem-645</linkclipref>
							<mediatype>audio</mediatype>
							<trackindex>3</trackindex>
							<clipindex>57</clipindex>
							<groupindex>1</groupindex>
						</link>
						<logginginfo>
							<description></description>
							<scene></scene>
							<shottake></shottake>
							<lognote></lognote>
						</logginginfo>
						<labels>
							<label2>Caribbean</label2>
						</labels>
					</clipitem>
					<transitionitem>
						<start>34856</start>
						<end>34869</end>
						<alignment>end-black</alignment>
						<cutPointTicks>132088320000</cutPointTicks>
						<rate>
							<timebase>25</timebase>
							<ntsc>FALSE</ntsc>
						</rate>
						<effect>
							<name>Cross Fade (+3dB)</name>
							<effectid>KGAudioTransCrossFade3dB</effectid>
							<effecttype>transition</effecttype>
							<mediatype>audio</mediatype>
							<wipecode>0</wipecode>
							<wipeaccuracy>100</wipeaccuracy>
							<startratio>0</startratio>
							<endratio>1</endratio>
							<reverse>FALSE</reverse>
						</effect>
					</transitionitem>
					<clipitem id="clipitem-564" premiereChannelType="mono">
						<masterclipid>masterclip-93</masterclipid>
						<name>Aashild-august-Clip0760.MXF</name>
						<enabled>TRUE</enabled>
						<duration>1128</duration>
						<rate>
							<timebase>25</timebase>
							<ntsc>FALSE</ntsc>
						</rate>
						<start>35145</start>
						<end>35219</end>
						<in>403</in>
						<out>477</out>
						<pproTicksIn>4094737920000</pproTicksIn>
						<pproTicksOut>4846625280000</pproTicksOut>
						<file id="file-93"/>
						<sourcetrack>
							<mediatype>audio</mediatype>
							<trackindex>1</trackindex>
						</sourcetrack>
						<link>
							<linkclipref>clipitem-133</linkclipref>
							<mediatype>video</mediatype>
							<trackindex>1</trackindex>
							<clipindex>142</clipindex>
						</link>
						<link>
							<linkclipref>clipitem-564</linkclipref>
							<mediatype>audio</mediatype>
							<trackindex>1</trackindex>
							<clipindex>75</clipindex>
							<groupindex>1</groupindex>
						</link>
						<link>
							<linkclipref>clipitem-647</linkclipref>
							<mediatype>audio</mediatype>
							<trackindex>3</trackindex>
							<clipindex>60</clipindex>
							<groupindex>1</groupindex>
						</link>
						<logginginfo>
							<description></description>
							<scene></scene>
							<shottake></shottake>
							<lognote></lognote>
						</logginginfo>
						<labels>
							<label2>Caribbean</label2>
						</labels>
					</clipitem>
					<clipitem id="clipitem-565" premiereChannelType="mono">
						<masterclipid>masterclip-93</masterclipid>
						<name>Aashild-august-Clip0760.MXF</name>
						<enabled>TRUE</enabled>
						<duration>1128</duration>
						<rate>
							<timebase>25</timebase>
							<ntsc>FALSE</ntsc>
						</rate>
						<start>35219</start>
						<end>35297</end>
						<in>668</in>
						<out>746</out>
						<pproTicksIn>6787307520000</pproTicksIn>
						<pproTicksOut>7579837440000</pproTicksOut>
						<file id="file-93"/>
						<sourcetrack>
							<mediatype>audio</mediatype>
							<trackindex>1</trackindex>
						</sourcetrack>
						<link>
							<linkclipref>clipitem-134</linkclipref>
							<mediatype>video</mediatype>
							<trackindex>1</trackindex>
							<clipindex>143</clipindex>
						</link>
						<link>
							<linkclipref>clipitem-565</linkclipref>
							<mediatype>audio</mediatype>
							<trackindex>1</trackindex>
							<clipindex>76</clipindex>
							<groupindex>1</groupindex>
						</link>
						<link>
							<linkclipref>clipitem-648</linkclipref>
							<mediatype>audio</mediatype>
							<trackindex>3</trackindex>
							<clipindex>61</clipindex>
							<groupindex>1</groupindex>
						</link>
						<logginginfo>
							<description></description>
							<scene></scene>
							<shottake></shottake>
							<lognote></lognote>
						</logginginfo>
						<labels>
							<label2>Caribbean</label2>
						</labels>
					</clipitem>
					<clipitem id="clipitem-566" premiereChannelType="mono">
						<masterclipid>masterclip-106</masterclipid>
						<name>620_0749.MXF</name>
						<enabled>TRUE</enabled>
						<duration>1670</duration>
						<rate>
							<timebase>25</timebase>
							<ntsc>FALSE</ntsc>
						</rate>
						<start>38029</start>
						<end>38402</end>
						<in>860</in>
						<out>1234</out>
						<pproTicksIn>8738150400000</pproTicksIn>
						<pproTicksOut>12538229760000</pproTicksOut>
						<file id="file-106"/>
						<sourcetrack>
							<mediatype>audio</mediatype>
							<trackindex>1</trackindex>
						</sourcetrack>
							<filter>
								<effect>
									<name>Gain</name>
									<effectid>{61756678, 4761696e, 4b657947}</effectid>
									<effecttype>filter</effecttype>
									<mediatype>audio</mediatype>
									<parameter authoringApp="PremierePro">
										<parameterid>Gain(dB)</parameterid>
										<name>Gain(dB)</name>
										<valuemin>-96</valuemin>
										<valuemax>96</valuemax>
										<value>5</value>
									</parameter>
								</effect>
							</filter>
						<link>
							<linkclipref>clipitem-326</linkclipref>
							<mediatype>video</mediatype>
							<trackindex>2</trackindex>
							<clipindex>70</clipindex>
						</link>
						<link>
							<linkclipref>clipitem-566</linkclipref>
							<mediatype>audio</mediatype>
							<trackindex>1</trackindex>
							<clipindex>77</clipindex>
							<groupindex>1</groupindex>
						</link>
						<logginginfo>
							<description></description>
							<scene></scene>
							<shottake></shottake>
							<lognote></lognote>
						</logginginfo>
						<labels>
							<label2>Iris</label2>
						</labels>
					</clipitem>
					<clipitem id="clipitem-567" premiereChannelType="mono">
						<masterclipid>masterclip-106</masterclipid>
						<name>620_0749.MXF</name>
						<enabled>TRUE</enabled>
						<duration>1670</duration>
						<rate>
							<timebase>25</timebase>
							<ntsc>FALSE</ntsc>
						</rate>
						<start>38514</start>
						<end>38843</end>
						<in>1233</in>
						<out>1562</out>
						<pproTicksIn>12528069120000</pproTicksIn>
						<pproTicksOut>15870919680000</pproTicksOut>
						<file id="file-106"/>
						<sourcetrack>
							<mediatype>audio</mediatype>
							<trackindex>1</trackindex>
						</sourcetrack>
							<filter>
								<effect>
									<name>Gain</name>
									<effectid>{61756678, 4761696e, 4b657947}</effectid>
									<effecttype>filter</effecttype>
									<mediatype>audio</mediatype>
									<parameter authoringApp="PremierePro">
										<parameterid>Gain(dB)</parameterid>
										<name>Gain(dB)</name>
										<valuemin>-96</valuemin>
										<valuemax>96</valuemax>
										<value>5</value>
									</parameter>
								</effect>
							</filter>
						<logginginfo>
							<description></description>
							<scene></scene>
							<shottake></shottake>
							<lognote></lognote>
						</logginginfo>
						<labels>
							<label2>Iris</label2>
						</labels>
					</clipitem>
					<clipitem id="clipitem-568" premiereChannelType="mono">
						<masterclipid>masterclip-107</masterclipid>
						<name>620_0739.MXF</name>
						<enabled>TRUE</enabled>
						<duration>6562</duration>
						<rate>
							<timebase>25</timebase>
							<ntsc>FALSE</ntsc>
						</rate>
						<start>39371</start>
						<end>39763</end>
						<in>812</in>
						<out>1204</out>
						<pproTicksIn>8250439680000</pproTicksIn>
						<pproTicksOut>12233410560000</pproTicksOut>
						<file id="file-107"/>
						<sourcetrack>
							<mediatype>audio</mediatype>
							<trackindex>1</trackindex>
						</sourcetrack>
							<filter>
								<effect>
									<name>Audio Levels</name>
									<effectid>audiolevels</effectid>
									<effectcategory>audiolevels</effectcategory>
									<effecttype>audiolevels</effecttype>
									<mediatype>audio</mediatype>
									<parameter authoringApp="PremierePro">
										<parameterid>level</parameterid>
										<name>Level</name>
										<valuemin>0</valuemin>
										<valuemax>3.98109</valuemax>
										<value>1.42215</value>
									</parameter>
								</effect>
							</filter>
						<link>
							<linkclipref>clipitem-149</linkclipref>
							<mediatype>video</mediatype>
							<trackindex>1</trackindex>
							<clipindex>158</clipindex>
						</link>
						<link>
							<linkclipref>clipitem-568</linkclipref>
							<mediatype>audio</mediatype>
							<trackindex>1</trackindex>
							<clipindex>79</clipindex>
							<groupindex>1</groupindex>
						</link>
						<logginginfo>
							<description></description>
							<scene></scene>
							<shottake></shottake>
							<lognote></lognote>
						</logginginfo>
						<labels>
							<label2>Iris</label2>
						</labels>
					</clipitem>
					<clipitem id="clipitem-569" premiereChannelType="mono">
						<masterclipid>masterclip-107</masterclipid>
						<name>620_0739.MXF</name>
						<enabled>TRUE</enabled>
						<duration>6562</duration>
						<rate>
							<timebase>25</timebase>
							<ntsc>FALSE</ntsc>
						</rate>
						<start>40176</start>
						<end>40558</end>
						<in>2314</in>
						<out>2696</out>
						<pproTicksIn>23511720960000</pproTicksIn>
						<pproTicksOut>27393085440000</pproTicksOut>
						<file id="file-107"/>
						<sourcetrack>
							<mediatype>audio</mediatype>
							<trackindex>1</trackindex>
						</sourcetrack>
							<filter>
								<effect>
									<name>Gain</name>
									<effectid>{61756678, 4761696e, 4b657947}</effectid>
									<effecttype>filter</effecttype>
									<mediatype>audio</mediatype>
									<parameter authoringApp="PremierePro">
										<parameterid>Gain(dB)</parameterid>
										<name>Gain(dB)</name>
										<valuemin>-96</valuemin>
										<valuemax>96</valuemax>
										<value>5</value>
									</parameter>
								</effect>
							</filter>
						<logginginfo>
							<description></description>
							<scene></scene>
							<shottake></shottake>
							<lognote></lognote>
						</logginginfo>
						<labels>
							<label2>Iris</label2>
						</labels>
					</clipitem>
					<clipitem id="clipitem-570" premiereChannelType="mono">
						<masterclipid>masterclip-107</masterclipid>
						<name>620_0739.MXF</name>
						<enabled>TRUE</enabled>
						<duration>6562</duration>
						<rate>
							<timebase>25</timebase>
							<ntsc>FALSE</ntsc>
						</rate>
						<start>40990</start>
						<end>41273</end>
						<in>3059</in>
						<out>3342</out>
						<pproTicksIn>31081397760000</pproTicksIn>
						<pproTicksOut>33956858880000</pproTicksOut>
						<file id="file-107"/>
						<sourcetrack>
							<mediatype>audio</mediatype>
							<trackindex>1</trackindex>
						</sourcetrack>
							<filter>
								<effect>
									<name>Gain</name>
									<effectid>{61756678, 4761696e, 4b657947}</effectid>
									<effecttype>filter</effecttype>
									<mediatype>audio</mediatype>
									<parameter authoringApp="PremierePro">
										<parameterid>Gain(dB)</parameterid>
										<name>Gain(dB)</name>
										<valuemin>-96</valuemin>
										<valuemax>96</valuemax>
										<value>5</value>
									</parameter>
								</effect>
							</filter>
						<link>
							<linkclipref>clipitem-153</linkclipref>
							<mediatype>video</mediatype>
							<trackindex>1</trackindex>
							<clipindex>162</clipindex>
						</link>
						<link>
							<linkclipref>clipitem-570</linkclipref>
							<mediatype>audio</mediatype>
							<trackindex>1</trackindex>
							<clipindex>81</clipindex>
							<groupindex>1</groupindex>
						</link>
						<logginginfo>
							<description></description>
							<scene></scene>
							<shottake></shottake>
							<lognote></lognote>
						</logginginfo>
						<labels>
							<label2>Iris</label2>
						</labels>
					</clipitem>
					<clipitem id="clipitem-571" premiereChannelType="mono">
						<masterclipid>masterclip-107</masterclipid>
						<name>620_0739.MXF</name>
						<enabled>TRUE</enabled>
						<duration>6562</duration>
						<rate>
							<timebase>25</timebase>
							<ntsc>FALSE</ntsc>
						</rate>
						<start>41556</start>
						<end>42127</end>
						<in>4002</in>
						<out>4573</out>
						<pproTicksIn>40662881280000</pproTicksIn>
						<pproTicksOut>46464606720000</pproTicksOut>
						<file id="file-107"/>
						<sourcetrack>
							<mediatype>audio</mediatype>
							<trackindex>1</trackindex>
						</sourcetrack>
							<filter>
								<effect>
									<name>Gain</name>
									<effectid>{61756678, 4761696e, 4b657947}</effectid>
									<effecttype>filter</effecttype>
									<mediatype>audio</mediatype>
									<parameter authoringApp="PremierePro">
										<parameterid>Gain(dB)</parameterid>
										<name>Gain(dB)</name>
										<valuemin>-96</valuemin>
										<valuemax>96</valuemax>
										<value>5</value>
									</parameter>
								</effect>
							</filter>
						<link>
							<linkclipref>clipitem-154</linkclipref>
							<mediatype>video</mediatype>
							<trackindex>1</trackindex>
							<clipindex>163</clipindex>
						</link>
						<link>
							<linkclipref>clipitem-571</linkclipref>
							<mediatype>audio</mediatype>
							<trackindex>1</trackindex>
							<clipindex>82</clipindex>
							<groupindex>1</groupindex>
						</link>
						<logginginfo>
							<description></description>
							<scene></scene>
							<shottake></shottake>
							<lognote></lognote>
						</logginginfo>
						<labels>
							<label2>Iris</label2>
						</labels>
					</clipitem>
					<clipitem id="clipitem-572" premiereChannelType="mono">
						<masterclipid>masterclip-107</masterclipid>
						<name>620_0739.MXF</name>
						<enabled>TRUE</enabled>
						<duration>6562</duration>
						<rate>
							<timebase>25</timebase>
							<ntsc>FALSE</ntsc>
						</rate>
						<start>42580</start>
						<end>43486</end>
						<in>5103</in>
						<out>6009</out>
						<pproTicksIn>51849745920000</pproTicksIn>
						<pproTicksOut>61055285760000</pproTicksOut>
						<file id="file-107"/>
						<sourcetrack>
							<mediatype>audio</mediatype>
							<trackindex>1</trackindex>
						</sourcetrack>
							<filter>
								<effect>
									<name>Gain</name>
									<effectid>{61756678, 4761696e, 4b657947}</effectid>
									<effecttype>filter</effecttype>
									<mediatype>audio</mediatype>
									<parameter authoringApp="PremierePro">
										<parameterid>Gain(dB)</parameterid>
										<name>Gain(dB)</name>
										<valuemin>-96</valuemin>
										<valuemax>96</valuemax>
										<value>5</value>
									</parameter>
								</effect>
							</filter>
						<link>
							<linkclipref>clipitem-155</linkclipref>
							<mediatype>video</mediatype>
							<trackindex>1</trackindex>
							<clipindex>164</clipindex>
						</link>
						<link>
							<linkclipref>clipitem-572</linkclipref>
							<mediatype>audio</mediatype>
							<trackindex>1</trackindex>
							<clipindex>83</clipindex>
							<groupindex>1</groupindex>
						</link>
						<logginginfo>
							<description></description>
							<scene></scene>
							<shottake></shottake>
							<lognote></lognote>
						</logginginfo>
						<labels>
							<label2>Iris</label2>
						</labels>
					</clipitem>
					<clipitem id="clipitem-573" premiereChannelType="mono">
						<masterclipid>masterclip-109</masterclipid>
						<name>620_0740.MXF</name>
						<enabled>TRUE</enabled>
						<duration>8287</duration>
						<rate>
							<timebase>25</timebase>
							<ntsc>FALSE</ntsc>
						</rate>
						<start>45215</start>
						<end>45772</end>
						<in>1703</in>
						<out>2260</out>
						<pproTicksIn>17303569920000</pproTicksIn>
						<pproTicksOut>22963046400000</pproTicksOut>
						<file id="file-109"/>
						<sourcetrack>
							<mediatype>audio</mediatype>
							<trackindex>1</trackindex>
						</sourcetrack>
							<filter>
								<effect>
									<name>Gain</name>
									<effectid>{61756678, 4761696e, 4b657947}</effectid>
									<effecttype>filter</effecttype>
									<mediatype>audio</mediatype>
									<parameter authoringApp="PremierePro">
										<parameterid>Gain(dB)</parameterid>
										<name>Gain(dB)</name>
										<valuemin>-96</valuemin>
										<valuemax>96</valuemax>
										<value>5</value>
									</parameter>
								</effect>
							</filter>
						<link>
							<linkclipref>clipitem-157</linkclipref>
							<mediatype>video</mediatype>
							<trackindex>1</trackindex>
							<clipindex>166</clipindex>
						</link>
						<link>
							<linkclipref>clipitem-573</linkclipref>
							<mediatype>audio</mediatype>
							<trackindex>1</trackindex>
							<clipindex>84</clipindex>
							<groupindex>1</groupindex>
						</link>
						<logginginfo>
							<description></description>
							<scene></scene>
							<shottake></shottake>
							<lognote></lognote>
						</logginginfo>
						<labels>
							<label2>Iris</label2>
						</labels>
					</clipitem>
					<clipitem id="clipitem-574" premiereChannelType="mono">
						<masterclipid>masterclip-109</masterclipid>
						<name>620_0740.MXF</name>
						<enabled>TRUE</enabled>
						<duration>8287</duration>
						<rate>
							<timebase>25</timebase>
							<ntsc>FALSE</ntsc>
						</rate>
						<start>45772</start>
						<end>45777</end>
						<in>2612</in>
						<out>2617</out>
						<pproTicksIn>26539591680000</pproTicksIn>
						<pproTicksOut>26590394880000</pproTicksOut>
						<file id="file-109"/>
						<sourcetrack>
							<mediatype>audio</mediatype>
							<trackindex>1</trackindex>
						</sourcetrack>
							<filter>
								<effect>
									<name>Gain</name>
									<effectid>{61756678, 4761696e, 4b657947}</effectid>
									<effecttype>filter</effecttype>
									<mediatype>audio</mediatype>
									<parameter authoringApp="PremierePro">
										<parameterid>Gain(dB)</parameterid>
										<name>Gain(dB)</name>
										<valuemin>-96</valuemin>
										<valuemax>96</valuemax>
										<value>5</value>
									</parameter>
								</effect>
							</filter>
						<logginginfo>
							<description></description>
							<scene></scene>
							<shottake></shottake>
							<lognote></lognote>
						</logginginfo>
						<labels>
							<label2>Iris</label2>
						</labels>
					</clipitem>
					<clipitem id="clipitem-575" premiereChannelType="mono">
						<masterclipid>masterclip-109</masterclipid>
						<name>620_0740.MXF</name>
						<enabled>TRUE</enabled>
						<duration>8287</duration>
						<rate>
							<timebase>25</timebase>
							<ntsc>FALSE</ntsc>
						</rate>
						<start>45777</start>
						<end>45937</end>
						<in>2452</in>
						<out>2612</out>
						<pproTicksIn>24913889280000</pproTicksIn>
						<pproTicksOut>26539591680000</pproTicksOut>
						<file id="file-109"/>
						<sourcetrack>
							<mediatype>audio</mediatype>
							<trackindex>1</trackindex>
						</sourcetrack>
							<filter>
								<effect>
									<name>Gain</name>
									<effectid>{61756678, 4761696e, 4b657947}</effectid>
									<effecttype>filter</effecttype>
									<mediatype>audio</mediatype>
									<parameter authoringApp="PremierePro">
										<parameterid>Gain(dB)</parameterid>
										<name>Gain(dB)</name>
										<valuemin>-96</valuemin>
										<valuemax>96</valuemax>
										<value>5</value>
									</parameter>
								</effect>
							</filter>
						<link>
							<linkclipref>clipitem-158</linkclipref>
							<mediatype>video</mediatype>
							<trackindex>1</trackindex>
							<clipindex>167</clipindex>
						</link>
						<link>
							<linkclipref>clipitem-575</linkclipref>
							<mediatype>audio</mediatype>
							<trackindex>1</trackindex>
							<clipindex>86</clipindex>
							<groupindex>1</groupindex>
						</link>
						<logginginfo>
							<description></description>
							<scene></scene>
							<shottake></shottake>
							<lognote></lognote>
						</logginginfo>
						<labels>
							<label2>Iris</label2>
						</labels>
					</clipitem>
					<clipitem id="clipitem-576" premiereChannelType="mono">
						<masterclipid>masterclip-109</masterclipid>
						<name>620_0740.MXF</name>
						<enabled>TRUE</enabled>
						<duration>8287</duration>
						<rate>
							<timebase>25</timebase>
							<ntsc>FALSE</ntsc>
						</rate>
						<start>47518</start>
						<end>47762</end>
						<in>3443</in>
						<out>3687</out>
						<pproTicksIn>34983083520000</pproTicksIn>
						<pproTicksOut>37462279680000</pproTicksOut>
						<file id="file-109"/>
						<sourcetrack>
							<mediatype>audio</mediatype>
							<trackindex>1</trackindex>
						</sourcetrack>
							<filter>
								<effect>
									<name>Gain</name>
									<effectid>{61756678, 4761696e, 4b657947}</effectid>
									<effecttype>filter</effecttype>
									<mediatype>audio</mediatype>
									<parameter authoringApp="PremierePro">
										<parameterid>Gain(dB)</parameterid>
										<name>Gain(dB)</name>
										<valuemin>-96</valuemin>
										<valuemax>96</valuemax>
										<value>5</value>
									</parameter>
								</effect>
							</filter>
						<link>
							<linkclipref>clipitem-161</linkclipref>
							<mediatype>video</mediatype>
							<trackindex>1</trackindex>
							<clipindex>171</clipindex>
						</link>
						<link>
							<linkclipref>clipitem-576</linkclipref>
							<mediatype>audio</mediatype>
							<trackindex>1</trackindex>
							<clipindex>87</clipindex>
							<groupindex>1</groupindex>
						</link>
						<logginginfo>
							<description></description>
							<scene></scene>
							<shottake></shottake>
							<lognote></lognote>
						</logginginfo>
						<labels>
							<label2>Iris</label2>
						</labels>
					</clipitem>
					<clipitem id="clipitem-577" premiereChannelType="mono">
						<masterclipid>masterclip-109</masterclipid>
						<name>620_0740.MXF</name>
						<enabled>TRUE</enabled>
						<duration>8287</duration>
						<rate>
							<timebase>25</timebase>
							<ntsc>FALSE</ntsc>
						</rate>
						<start>48032</start>
						<end>48908</end>
						<in>3687</in>
						<out>4563</out>
						<pproTicksIn>37462279680000</pproTicksIn>
						<pproTicksOut>46363000320000</pproTicksOut>
						<file id="file-109"/>
						<sourcetrack>
							<mediatype>audio</mediatype>
							<trackindex>1</trackindex>
						</sourcetrack>
							<filter>
								<effect>
									<name>Gain</name>
									<effectid>{61756678, 4761696e, 4b657947}</effectid>
									<effecttype>filter</effecttype>
									<mediatype>audio</mediatype>
									<parameter authoringApp="PremierePro">
										<parameterid>Gain(dB)</parameterid>
										<name>Gain(dB)</name>
										<valuemin>-96</valuemin>
										<valuemax>96</valuemax>
										<value>5</value>
									</parameter>
								</effect>
							</filter>
						<logginginfo>
							<description></description>
							<scene></scene>
							<shottake></shottake>
							<lognote></lognote>
						</logginginfo>
						<labels>
							<label2>Iris</label2>
						</labels>
					</clipitem>
					<clipitem id="clipitem-578" premiereChannelType="mono">
						<masterclipid>masterclip-109</masterclipid>
						<name>620_0740.MXF</name>
						<enabled>TRUE</enabled>
						<duration>8287</duration>
						<rate>
							<timebase>25</timebase>
							<ntsc>FALSE</ntsc>
						</rate>
						<start>49358</start>
						<end>49821</end>
						<in>4764</in>
						<out>5227</out>
						<pproTicksIn>48405288960000</pproTicksIn>
						<pproTicksOut>53109665280000</pproTicksOut>
						<file id="file-109"/>
						<sourcetrack>
							<mediatype>audio</mediatype>
							<trackindex>1</trackindex>
						</sourcetrack>
							<filter>
								<effect>
									<name>Audio Levels</name>
									<effectid>audiolevels</effectid>
									<effectcategory>audiolevels</effectcategory>
									<effecttype>audiolevels</effecttype>
									<mediatype>audio</mediatype>
									<parameter authoringApp="PremierePro">
										<parameterid>level</parameterid>
										<name>Level</name>
										<valuemin>0</valuemin>
										<valuemax>3.98109</valuemax>
										<value>1.59196</value>
									</parameter>
								</effect>
							</filter>
						<link>
							<linkclipref>clipitem-163</linkclipref>
							<mediatype>video</mediatype>
							<trackindex>1</trackindex>
							<clipindex>173</clipindex>
						</link>
						<link>
							<linkclipref>clipitem-578</linkclipref>
							<mediatype>audio</mediatype>
							<trackindex>1</trackindex>
							<clipindex>89</clipindex>
							<groupindex>1</groupindex>
						</link>
						<logginginfo>
							<description></description>
							<scene></scene>
							<shottake></shottake>
							<lognote></lognote>
						</logginginfo>
						<labels>
							<label2>Iris</label2>
						</labels>
					</clipitem>
					<clipitem id="clipitem-579" premiereChannelType="mono">
						<masterclipid>masterclip-109</masterclipid>
						<name>620_0740.MXF</name>
						<enabled>TRUE</enabled>
						<duration>8287</duration>
						<rate>
							<timebase>25</timebase>
							<ntsc>FALSE</ntsc>
						</rate>
						<start>49821</start>
						<end>50427</end>
						<in>5246</in>
						<out>5853</out>
						<pproTicksIn>53302717440000</pproTicksIn>
						<pproTicksOut>59470225920000</pproTicksOut>
						<file id="file-109"/>
						<sourcetrack>
							<mediatype>audio</mediatype>
							<trackindex>1</trackindex>
						</sourcetrack>
							<filter>
								<effect>
									<name>Audio Levels</name>
									<effectid>audiolevels</effectid>
									<effectcategory>audiolevels</effectcategory>
									<effecttype>audiolevels</effecttype>
									<mediatype>audio</mediatype>
									<parameter authoringApp="PremierePro">
										<parameterid>level</parameterid>
										<name>Level</name>
										<valuemin>0</valuemin>
										<valuemax>3.98109</valuemax>
										<value>1.59196</value>
									</parameter>
								</effect>
							</filter>
						<link>
							<linkclipref>clipitem-164</linkclipref>
							<mediatype>video</mediatype>
							<trackindex>1</trackindex>
							<clipindex>174</clipindex>
						</link>
						<link>
							<linkclipref>clipitem-579</linkclipref>
							<mediatype>audio</mediatype>
							<trackindex>1</trackindex>
							<clipindex>90</clipindex>
							<groupindex>1</groupindex>
						</link>
						<logginginfo>
							<description></description>
							<scene></scene>
							<shottake></shottake>
							<lognote></lognote>
						</logginginfo>
						<labels>
							<label2>Iris</label2>
						</labels>
					</clipitem>
					<clipitem id="clipitem-580" premiereChannelType="mono">
						<masterclipid>masterclip-112</masterclipid>
						<name>620_0741.MXF</name>
						<enabled>TRUE</enabled>
						<duration>3451</duration>
						<rate>
							<timebase>25</timebase>
							<ntsc>FALSE</ntsc>
						</rate>
						<start>50564</start>
						<end>51020</end>
						<in>90</in>
						<out>546</out>
						<pproTicksIn>914457600000</pproTicksIn>
						<pproTicksOut>5547709440000</pproTicksOut>
						<file id="file-112"/>
						<sourcetrack>
							<mediatype>audio</mediatype>
							<trackindex>1</trackindex>
						</sourcetrack>
							<filter>
								<effect>
									<name>Audio Levels</name>
									<effectid>audiolevels</effectid>
									<effectcategory>audiolevels</effectcategory>
									<effecttype>audiolevels</effecttype>
									<mediatype>audio</mediatype>
									<parameter authoringApp="PremierePro">
										<parameterid>level</parameterid>
										<name>Level</name>
										<valuemin>0</valuemin>
										<valuemax>3.98109</valuemax>
										<value>1.54951</value>
									</parameter>
								</effect>
							</filter>
						<link>
							<linkclipref>clipitem-166</linkclipref>
							<mediatype>video</mediatype>
							<trackindex>1</trackindex>
							<clipindex>176</clipindex>
						</link>
						<link>
							<linkclipref>clipitem-580</linkclipref>
							<mediatype>audio</mediatype>
							<trackindex>1</trackindex>
							<clipindex>91</clipindex>
							<groupindex>1</groupindex>
						</link>
						<logginginfo>
							<description></description>
							<scene></scene>
							<shottake></shottake>
							<lognote></lognote>
						</logginginfo>
						<labels>
							<label2>Iris</label2>
						</labels>
					</clipitem>
					<clipitem id="clipitem-581" premiereChannelType="mono">
						<masterclipid>masterclip-113</masterclipid>
						<name>620_0743.MXF</name>
						<enabled>TRUE</enabled>
						<duration>3499</duration>
						<rate>
							<timebase>25</timebase>
							<ntsc>FALSE</ntsc>
						</rate>
						<start>51960</start>
						<end>52533</end>
						<in>1807</in>
						<out>2380</out>
						<pproTicksIn>18360276480000</pproTicksIn>
						<pproTicksOut>24182323200000</pproTicksOut>
						<file id="file-113"/>
						<sourcetrack>
							<mediatype>audio</mediatype>
							<trackindex>1</trackindex>
						</sourcetrack>
							<filter>
								<effect>
									<name>Audio Levels</name>
									<effectid>audiolevels</effectid>
									<effectcategory>audiolevels</effectcategory>
									<effecttype>audiolevels</effecttype>
									<mediatype>audio</mediatype>
									<parameter authoringApp="PremierePro">
										<parameterid>level</parameterid>
										<name>Level</name>
										<valuemin>0</valuemin>
										<valuemax>3.98109</valuemax>
										<value>1.20989</value>
									</parameter>
								</effect>
							</filter>
						<link>
							<linkclipref>clipitem-167</linkclipref>
							<mediatype>video</mediatype>
							<trackindex>1</trackindex>
							<clipindex>177</clipindex>
						</link>
						<link>
							<linkclipref>clipitem-581</linkclipref>
							<mediatype>audio</mediatype>
							<trackindex>1</trackindex>
							<clipindex>92</clipindex>
							<groupindex>1</groupindex>
						</link>
						<logginginfo>
							<description></description>
							<scene></scene>
							<shottake></shottake>
							<lognote></lognote>
						</logginginfo>
						<labels>
							<label2>Iris</label2>
						</labels>
					</clipitem>
					<clipitem id="clipitem-582" premiereChannelType="mono">
						<masterclipid>masterclip-114</masterclipid>
						<name>620_0750.MXF</name>
						<enabled>TRUE</enabled>
						<duration>883</duration>
						<rate>
							<timebase>25</timebase>
							<ntsc>FALSE</ntsc>
						</rate>
						<start>54335</start>
						<end>54864</end>
						<in>244</in>
						<out>773</out>
						<pproTicksIn>2479196160000</pproTicksIn>
						<pproTicksOut>7854174720000</pproTicksOut>
						<file id="file-114"/>
						<sourcetrack>
							<mediatype>audio</mediatype>
							<trackindex>1</trackindex>
						</sourcetrack>
							<filter>
								<effect>
									<name>Audio Levels</name>
									<effectid>audiolevels</effectid>
									<effectcategory>audiolevels</effectcategory>
									<effecttype>audiolevels</effecttype>
									<mediatype>audio</mediatype>
									<parameter authoringApp="PremierePro">
										<parameterid>level</parameterid>
										<name>Level</name>
										<valuemin>0</valuemin>
										<valuemax>3.98109</valuemax>
										<value>1.46461</value>
									</parameter>
								</effect>
							</filter>
						<link>
							<linkclipref>clipitem-168</linkclipref>
							<mediatype>video</mediatype>
							<trackindex>1</trackindex>
							<clipindex>178</clipindex>
						</link>
						<link>
							<linkclipref>clipitem-582</linkclipref>
							<mediatype>audio</mediatype>
							<trackindex>1</trackindex>
							<clipindex>93</clipindex>
							<groupindex>1</groupindex>
						</link>
						<logginginfo>
							<description></description>
							<scene></scene>
							<shottake></shottake>
							<lognote></lognote>
						</logginginfo>
						<labels>
							<label2>Iris</label2>
						</labels>
					</clipitem>
					<clipitem id="clipitem-583" premiereChannelType="mono">
						<masterclipid>masterclip-113</masterclipid>
						<name>620_0743.MXF</name>
						<enabled>TRUE</enabled>
						<duration>3499</duration>
						<rate>
							<timebase>25</timebase>
							<ntsc>FALSE</ntsc>
						</rate>
						<start>55360</start>
						<end>56081</end>
						<in>266</in>
						<out>987</out>
						<pproTicksIn>2702730240000</pproTicksIn>
						<pproTicksOut>10028551680000</pproTicksOut>
						<file id="file-113"/>
						<sourcetrack>
							<mediatype>audio</mediatype>
							<trackindex>1</trackindex>
						</sourcetrack>
							<filter>
								<effect>
									<name>Audio Levels</name>
									<effectid>audiolevels</effectid>
									<effectcategory>audiolevels</effectcategory>
									<effecttype>audiolevels</effecttype>
									<mediatype>audio</mediatype>
									<parameter authoringApp="PremierePro">
										<parameterid>level</parameterid>
										<name>Level</name>
										<valuemin>0</valuemin>
										<valuemax>3.98109</valuemax>
										<value>1.46461</value>
									</parameter>
								</effect>
							</filter>
						<logginginfo>
							<description></description>
							<scene></scene>
							<shottake></shottake>
							<lognote></lognote>
						</logginginfo>
						<labels>
							<label2>Iris</label2>
						</labels>
					</clipitem>
					<clipitem id="clipitem-584" premiereChannelType="mono">
						<masterclipid>masterclip-117</masterclipid>
						<name>620_0745.MXF</name>
						<enabled>TRUE</enabled>
						<duration>1850</duration>
						<rate>
							<timebase>25</timebase>
							<ntsc>FALSE</ntsc>
						</rate>
						<start>56865</start>
						<end>58296</end>
						<in>208</in>
						<out>1639</out>
						<pproTicksIn>2113413120000</pproTicksIn>
						<pproTicksOut>16653288960000</pproTicksOut>
						<file id="file-117"/>
						<sourcetrack>
							<mediatype>audio</mediatype>
							<trackindex>1</trackindex>
						</sourcetrack>
							<filter>
								<effect>
									<name>Audio Levels</name>
									<effectid>audiolevels</effectid>
									<effectcategory>audiolevels</effectcategory>
									<effecttype>audiolevels</effecttype>
									<mediatype>audio</mediatype>
									<parameter authoringApp="PremierePro">
										<parameterid>level</parameterid>
										<name>Level</name>
										<valuemin>0</valuemin>
										<valuemax>3.98109</valuemax>
										<value>1.20989</value>
										<keyframe>
											<when>1495</when>
											<value>1.20989</value>
										</keyframe>
										<keyframe>
											<when>1639</when>
											<value>1.99526</value>
										</keyframe>
									</parameter>
								</effect>
							</filter>
						<link>
							<linkclipref>clipitem-177</linkclipref>
							<mediatype>video</mediatype>
							<trackindex>1</trackindex>
							<clipindex>187</clipindex>
						</link>
						<link>
							<linkclipref>clipitem-584</linkclipref>
							<mediatype>audio</mediatype>
							<trackindex>1</trackindex>
							<clipindex>95</clipindex>
							<groupindex>1</groupindex>
						</link>
						<logginginfo>
							<description></description>
							<scene></scene>
							<shottake></shottake>
							<lognote></lognote>
						</logginginfo>
						<labels>
							<label2>Iris</label2>
						</labels>
					</clipitem>
					<clipitem id="clipitem-585" premiereChannelType="stereo">
						<masterclipid>masterclip-118</masterclipid>
						<name>AA278501.MXF</name>
						<enabled>TRUE</enabled>
						<duration>876</duration>
						<rate>
							<timebase>25</timebase>
							<ntsc>FALSE</ntsc>
						</rate>
						<start>58572</start>
						<end>58880</end>
						<in>500</in>
						<out>808</out>
						<pproTicksIn>5080320000000</pproTicksIn>
						<pproTicksOut>8209797120000</pproTicksOut>
						<file id="file-118"/>
						<sourcetrack>
							<mediatype>audio</mediatype>
							<trackindex>1</trackindex>
						</sourcetrack>
						<link>
							<linkclipref>clipitem-178</linkclipref>
							<mediatype>video</mediatype>
							<trackindex>1</trackindex>
							<clipindex>188</clipindex>
						</link>
						<link>
							<linkclipref>clipitem-585</linkclipref>
							<mediatype>audio</mediatype>
							<trackindex>1</trackindex>
							<clipindex>96</clipindex>
							<groupindex>1</groupindex>
						</link>
						<link>
							<linkclipref>clipitem-597</linkclipref>
							<mediatype>audio</mediatype>
							<trackindex>2</trackindex>
							<clipindex>12</clipindex>
							<groupindex>1</groupindex>
						</link>
						<logginginfo>
							<description></description>
							<scene></scene>
							<shottake></shottake>
							<lognote></lognote>
						</logginginfo>
						<labels>
							<label2>Iris</label2>
						</labels>
					</clipitem>
					<enabled>TRUE</enabled>
					<locked>FALSE</locked>
					<outputchannelindex>1</outputchannelindex>
				</track>
				<track TL.SQTrackAudioKeyframeStyle="0" TL.SQTrackShy="0" TL.SQTrackExpandedHeight="58" TL.SQTrackExpanded="1" MZ.TrackTargeted="0" PannerCurrentValue="0.5" PannerIsInverted="true" PannerStartKeyframe="-91445760000000000,0.5,0,0,0,0,0,0" PannerName="Balance" currentExplodedTrackIndex="1" totalExplodedTrackCount="2" premiereTrackType="Stereo">
					<clipitem id="clipitem-586" premiereChannelType="stereo">
						<masterclipid>masterclip-1</masterclipid>
						<name>AA265201.MXF</name>
						<enabled>TRUE</enabled>
						<duration>384</duration>
						<rate>
							<timebase>25</timebase>
							<ntsc>FALSE</ntsc>
						</rate>
						<start>0</start>
						<end>109</end>
						<in>125</in>
						<out>234</out>
						<pproTicksIn>1270080000000</pproTicksIn>
						<pproTicksOut>2377589760000</pproTicksOut>
						<file id="file-1"/>
						<sourcetrack>
							<mediatype>audio</mediatype>
							<trackindex>1</trackindex>
						</sourcetrack>
						<link>
							<linkclipref>clipitem-1</linkclipref>
							<mediatype>video</mediatype>
							<trackindex>1</trackindex>
							<clipindex>1</clipindex>
						</link>
						<link>
							<linkclipref>clipitem-505</linkclipref>
							<mediatype>audio</mediatype>
							<trackindex>1</trackindex>
							<clipindex>1</clipindex>
							<groupindex>1</groupindex>
						</link>
						<link>
							<linkclipref>clipitem-586</linkclipref>
							<mediatype>audio</mediatype>
							<trackindex>2</trackindex>
							<clipindex>1</clipindex>
							<groupindex>1</groupindex>
						</link>
						<logginginfo>
							<description></description>
							<scene></scene>
							<shottake></shottake>
							<lognote></lognote>
						</logginginfo>
						<labels>
							<label2>Iris</label2>
						</labels>
					</clipitem>
					<clipitem id="clipitem-587" premiereChannelType="stereo">
						<masterclipid>masterclip-2</masterclipid>
						<name>AA265301.MXF</name>
						<enabled>TRUE</enabled>
						<duration>840</duration>
						<rate>
							<timebase>25</timebase>
							<ntsc>FALSE</ntsc>
						</rate>
						<start>109</start>
						<end>134</end>
						<in>0</in>
						<out>25</out>
						<pproTicksIn>0</pproTicksIn>
						<pproTicksOut>254016000000</pproTicksOut>
						<file id="file-2"/>
						<sourcetrack>
							<mediatype>audio</mediatype>
							<trackindex>1</trackindex>
						</sourcetrack>
						<link>
							<linkclipref>clipitem-2</linkclipref>
							<mediatype>video</mediatype>
							<trackindex>1</trackindex>
							<clipindex>2</clipindex>
						</link>
						<link>
							<linkclipref>clipitem-506</linkclipref>
							<mediatype>audio</mediatype>
							<trackindex>1</trackindex>
							<clipindex>2</clipindex>
							<groupindex>1</groupindex>
						</link>
						<link>
							<linkclipref>clipitem-587</linkclipref>
							<mediatype>audio</mediatype>
							<trackindex>2</trackindex>
							<clipindex>2</clipindex>
							<groupindex>1</groupindex>
						</link>
						<logginginfo>
							<description></description>
							<scene></scene>
							<shottake></shottake>
							<lognote></lognote>
						</logginginfo>
						<labels>
							<label2>Iris</label2>
						</labels>
					</clipitem>
					<clipitem id="clipitem-588" premiereChannelType="stereo">
						<masterclipid>masterclip-3</masterclipid>
						<name>AA264901.MXF</name>
						<enabled>TRUE</enabled>
						<duration>780</duration>
						<rate>
							<timebase>25</timebase>
							<ntsc>FALSE</ntsc>
						</rate>
						<start>134</start>
						<end>159</end>
						<in>0</in>
						<out>25</out>
						<pproTicksIn>0</pproTicksIn>
						<pproTicksOut>254016000000</pproTicksOut>
						<file id="file-3"/>
						<sourcetrack>
							<mediatype>audio</mediatype>
							<trackindex>1</trackindex>
						</sourcetrack>
						<link>
							<linkclipref>clipitem-3</linkclipref>
							<mediatype>video</mediatype>
							<trackindex>1</trackindex>
							<clipindex>3</clipindex>
						</link>
						<link>
							<linkclipref>clipitem-507</linkclipref>
							<mediatype>audio</mediatype>
							<trackindex>1</trackindex>
							<clipindex>3</clipindex>
							<groupindex>1</groupindex>
						</link>
						<link>
							<linkclipref>clipitem-588</linkclipref>
							<mediatype>audio</mediatype>
							<trackindex>2</trackindex>
							<clipindex>3</clipindex>
							<groupindex>1</groupindex>
						</link>
						<logginginfo>
							<description></description>
							<scene></scene>
							<shottake></shottake>
							<lognote></lognote>
						</logginginfo>
						<labels>
							<label2>Iris</label2>
						</labels>
					</clipitem>
					<clipitem id="clipitem-589" premiereChannelType="stereo">
						<masterclipid>masterclip-4</masterclipid>
						<name>AA264401.MXF</name>
						<enabled>TRUE</enabled>
						<duration>756</duration>
						<rate>
							<timebase>25</timebase>
							<ntsc>FALSE</ntsc>
						</rate>
						<start>159</start>
						<end>188</end>
						<in>355</in>
						<out>384</out>
						<pproTicksIn>3607027200000</pproTicksIn>
						<pproTicksOut>3901685760000</pproTicksOut>
						<file id="file-4"/>
						<sourcetrack>
							<mediatype>audio</mediatype>
							<trackindex>1</trackindex>
						</sourcetrack>
						<link>
							<linkclipref>clipitem-4</linkclipref>
							<mediatype>video</mediatype>
							<trackindex>1</trackindex>
							<clipindex>4</clipindex>
						</link>
						<link>
							<linkclipref>clipitem-508</linkclipref>
							<mediatype>audio</mediatype>
							<trackindex>1</trackindex>
							<clipindex>4</clipindex>
							<groupindex>1</groupindex>
						</link>
						<link>
							<linkclipref>clipitem-589</linkclipref>
							<mediatype>audio</mediatype>
							<trackindex>2</trackindex>
							<clipindex>4</clipindex>
							<groupindex>1</groupindex>
						</link>
						<logginginfo>
							<description></description>
							<scene></scene>
							<shottake></shottake>
							<lognote></lognote>
						</logginginfo>
						<labels>
							<label2>Iris</label2>
						</labels>
					</clipitem>
					<clipitem id="clipitem-590" premiereChannelType="stereo">
						<masterclipid>masterclip-5</masterclipid>
						<name>AA259301.MXF</name>
						<enabled>TRUE</enabled>
						<duration>2340</duration>
						<rate>
							<timebase>25</timebase>
							<ntsc>FALSE</ntsc>
						</rate>
						<start>188</start>
						<end>218</end>
						<in>490</in>
						<out>520</out>
						<pproTicksIn>4978713600000</pproTicksIn>
						<pproTicksOut>5283532800000</pproTicksOut>
						<file id="file-5"/>
						<sourcetrack>
							<mediatype>audio</mediatype>
							<trackindex>1</trackindex>
						</sourcetrack>
						<link>
							<linkclipref>clipitem-5</linkclipref>
							<mediatype>video</mediatype>
							<trackindex>1</trackindex>
							<clipindex>5</clipindex>
						</link>
						<link>
							<linkclipref>clipitem-509</linkclipref>
							<mediatype>audio</mediatype>
							<trackindex>1</trackindex>
							<clipindex>5</clipindex>
							<groupindex>1</groupindex>
						</link>
						<link>
							<linkclipref>clipitem-590</linkclipref>
							<mediatype>audio</mediatype>
							<trackindex>2</trackindex>
							<clipindex>5</clipindex>
							<groupindex>1</groupindex>
						</link>
						<logginginfo>
							<description></description>
							<scene></scene>
							<shottake></shottake>
							<lognote></lognote>
						</logginginfo>
						<labels>
							<label2>Iris</label2>
						</labels>
					</clipitem>
					<clipitem id="clipitem-591" premiereChannelType="stereo">
						<masterclipid>masterclip-1</masterclipid>
						<name>AA265201.MXF</name>
						<enabled>TRUE</enabled>
						<duration>384</duration>
						<rate>
							<timebase>25</timebase>
							<ntsc>FALSE</ntsc>
						</rate>
						<start>218</start>
						<end>243</end>
						<in>304</in>
						<out>329</out>
						<pproTicksIn>3088834560000</pproTicksIn>
						<pproTicksOut>3342850560000</pproTicksOut>
						<file id="file-1"/>
						<sourcetrack>
							<mediatype>audio</mediatype>
							<trackindex>1</trackindex>
						</sourcetrack>
						<link>
							<linkclipref>clipitem-6</linkclipref>
							<mediatype>video</mediatype>
							<trackindex>1</trackindex>
							<clipindex>6</clipindex>
						</link>
						<link>
							<linkclipref>clipitem-510</linkclipref>
							<mediatype>audio</mediatype>
							<trackindex>1</trackindex>
							<clipindex>6</clipindex>
							<groupindex>1</groupindex>
						</link>
						<link>
							<linkclipref>clipitem-591</linkclipref>
							<mediatype>audio</mediatype>
							<trackindex>2</trackindex>
							<clipindex>6</clipindex>
							<groupindex>1</groupindex>
						</link>
						<logginginfo>
							<description></description>
							<scene></scene>
							<shottake></shottake>
							<lognote></lognote>
						</logginginfo>
						<labels>
							<label2>Iris</label2>
						</labels>
					</clipitem>
					<clipitem id="clipitem-592" premiereChannelType="stereo">
						<masterclipid>masterclip-6</masterclipid>
						<name>AA259401.MXF</name>
						<enabled>TRUE</enabled>
						<duration>708</duration>
						<rate>
							<timebase>25</timebase>
							<ntsc>FALSE</ntsc>
						</rate>
						<start>243</start>
						<end>272</end>
						<in>24</in>
						<out>53</out>
						<pproTicksIn>243855360000</pproTicksIn>
						<pproTicksOut>538513920000</pproTicksOut>
						<file id="file-6"/>
						<sourcetrack>
							<mediatype>audio</mediatype>
							<trackindex>1</trackindex>
						</sourcetrack>
						<link>
							<linkclipref>clipitem-7</linkclipref>
							<mediatype>video</mediatype>
							<trackindex>1</trackindex>
							<clipindex>7</clipindex>
						</link>
						<link>
							<linkclipref>clipitem-511</linkclipref>
							<mediatype>audio</mediatype>
							<trackindex>1</trackindex>
							<clipindex>7</clipindex>
							<groupindex>1</groupindex>
						</link>
						<link>
							<linkclipref>clipitem-592</linkclipref>
							<mediatype>audio</mediatype>
							<trackindex>2</trackindex>
							<clipindex>7</clipindex>
							<groupindex>1</groupindex>
						</link>
						<logginginfo>
							<description></description>
							<scene></scene>
							<shottake></shottake>
							<lognote></lognote>
						</logginginfo>
						<labels>
							<label2>Iris</label2>
						</labels>
					</clipitem>
					<clipitem id="clipitem-593" premiereChannelType="stereo">
						<masterclipid>masterclip-7</masterclipid>
						<name>AA264301.MXF</name>
						<enabled>TRUE</enabled>
						<duration>648</duration>
						<rate>
							<timebase>25</timebase>
							<ntsc>FALSE</ntsc>
						</rate>
						<start>272</start>
						<end>301</end>
						<in>0</in>
						<out>29</out>
						<pproTicksIn>0</pproTicksIn>
						<pproTicksOut>294658560000</pproTicksOut>
						<file id="file-7"/>
						<sourcetrack>
							<mediatype>audio</mediatype>
							<trackindex>1</trackindex>
						</sourcetrack>
						<link>
							<linkclipref>clipitem-8</linkclipref>
							<mediatype>video</mediatype>
							<trackindex>1</trackindex>
							<clipindex>8</clipindex>
						</link>
						<link>
							<linkclipref>clipitem-512</linkclipref>
							<mediatype>audio</mediatype>
							<trackindex>1</trackindex>
							<clipindex>8</clipindex>
							<groupindex>1</groupindex>
						</link>
						<link>
							<linkclipref>clipitem-593</linkclipref>
							<mediatype>audio</mediatype>
							<trackindex>2</trackindex>
							<clipindex>8</clipindex>
							<groupindex>1</groupindex>
						</link>
						<logginginfo>
							<description></description>
							<scene></scene>
							<shottake></shottake>
							<lognote></lognote>
						</logginginfo>
						<labels>
							<label2>Iris</label2>
						</labels>
					</clipitem>
					<clipitem id="clipitem-594" premiereChannelType="stereo">
						<masterclipid>masterclip-8</masterclipid>
						<name>AA259701.MXF</name>
						<enabled>TRUE</enabled>
						<duration>300</duration>
						<rate>
							<timebase>25</timebase>
							<ntsc>FALSE</ntsc>
						</rate>
						<start>301</start>
						<end>409</end>
						<in>29</in>
						<out>137</out>
						<pproTicksIn>294658560000</pproTicksIn>
						<pproTicksOut>1392007680000</pproTicksOut>
						<file id="file-8"/>
						<sourcetrack>
							<mediatype>audio</mediatype>
							<trackindex>1</trackindex>
						</sourcetrack>
						<link>
							<linkclipref>clipitem-9</linkclipref>
							<mediatype>video</mediatype>
							<trackindex>1</trackindex>
							<clipindex>9</clipindex>
						</link>
						<link>
							<linkclipref>clipitem-513</linkclipref>
							<mediatype>audio</mediatype>
							<trackindex>1</trackindex>
							<clipindex>9</clipindex>
							<groupindex>1</groupindex>
						</link>
						<link>
							<linkclipref>clipitem-594</linkclipref>
							<mediatype>audio</mediatype>
							<trackindex>2</trackindex>
							<clipindex>9</clipindex>
							<groupindex>1</groupindex>
						</link>
						<logginginfo>
							<description></description>
							<scene></scene>
							<shottake></shottake>
							<lognote></lognote>
						</logginginfo>
						<labels>
							<label2>Iris</label2>
						</labels>
					</clipitem>
					<clipitem id="clipitem-595" premiereChannelType="stereo">
						<masterclipid>masterclip-9</masterclipid>
						<name>GOPR9723.MP4</name>
						<enabled>TRUE</enabled>
						<duration>397</duration>
						<rate>
							<timebase>25</timebase>
							<ntsc>FALSE</ntsc>
						</rate>
						<start>409</start>
						<end>435</end>
						<in>25</in>
						<out>51</out>
						<pproTicksIn>772208640000</pproTicksIn>
						<pproTicksOut>1564738560000</pproTicksOut>
						<file id="file-9"/>
						<sourcetrack>
							<mediatype>audio</mediatype>
							<trackindex>1</trackindex>
						</sourcetrack>
							<filter>
								<effect>
									<name>Time Remap</name>
									<effectid>timeremap</effectid>
									<effectcategory>motion</effectcategory>
									<effecttype>motion</effecttype>
									<mediatype>audio</mediatype>
									<parameter authoringApp="PremierePro">
										<parameterid>variablespeed</parameterid>
										<name>variablespeed</name>
										<valuemin>0</valuemin>
										<valuemax>1</valuemax>
										<value>0</value>
									</parameter>
									<parameter authoringApp="PremierePro">
										<parameterid>speed</parameterid>
										<name>speed</name>
										<valuemin>-100000</valuemin>
										<valuemax>100000</valuemax>
										<value>300</value>
									</parameter>
									<parameter authoringApp="PremierePro">
										<parameterid>reverse</parameterid>
										<name>reverse</name>
										<value>FALSE</value>
									</parameter>
									<parameter authoringApp="PremierePro">
										<parameterid>frameblending</parameterid>
										<name>frameblending</name>
										<value>FALSE</value>
									</parameter>
									<parameter authoringApp="PremierePro">
										<parameterid>graphdict</parameterid>
										<name>graphdict</name>
										<valuemin>0</valuemin>
										<valuemax>1191</valuemax>
										<value>0</value>
										<keyframe>
											<when>0</when>
											<value>0</value>
											<speedvirtualkf>TRUE</speedvirtualkf>
											<speedkfstart>TRUE</speedkfstart>
										</keyframe>
										<keyframe>
											<when>25</when>
											<value>75</value>
											<speedvirtualkf>TRUE</speedvirtualkf>
											<speedkfin>TRUE</speedkfin>
										</keyframe>
										<keyframe>
											<when>51</when>
											<value>153</value>
											<speedvirtualkf>TRUE</speedvirtualkf>
											<speedkfout>TRUE</speedkfout>
										</keyframe>
										<keyframe>
											<when>397</when>
											<value>1191</value>
											<speedvirtualkf>TRUE</speedvirtualkf>
											<speedkfend>TRUE</speedkfend>
										</keyframe>
										<interpolation>
											<name>FCPCurve</name>
										</interpolation>
									</parameter>
								</effect>
							</filter>
						<link>
							<linkclipref>clipitem-10</linkclipref>
							<mediatype>video</mediatype>
							<trackindex>1</trackindex>
							<clipindex>10</clipindex>
						</link>
						<link>
							<linkclipref>clipitem-514</linkclipref>
							<mediatype>audio</mediatype>
							<trackindex>1</trackindex>
							<clipindex>10</clipindex>
							<groupindex>1</groupindex>
						</link>
						<link>
							<linkclipref>clipitem-595</linkclipref>
							<mediatype>audio</mediatype>
							<trackindex>2</trackindex>
							<clipindex>10</clipindex>
							<groupindex>1</groupindex>
						</link>
						<logginginfo>
							<description></description>
							<scene></scene>
							<shottake></shottake>
							<lognote></lognote>
						</logginginfo>
						<labels>
							<label2>Iris</label2>
						</labels>
					</clipitem>
					<clipitem id="clipitem-596" premiereChannelType="stereo">
						<masterclipid>masterclip-51</masterclipid>
						<name>AA274501.MXF</name>
						<enabled>TRUE</enabled>
						<duration>1212</duration>
						<rate>
							<timebase>25</timebase>
							<ntsc>FALSE</ntsc>
						</rate>
						<start>20431</start>
						<end>20760</end>
						<in>642</in>
						<out>971</out>
						<pproTicksIn>6523130880000</pproTicksIn>
						<pproTicksOut>9865981440000</pproTicksOut>
						<file id="file-51"/>
						<sourcetrack>
							<mediatype>audio</mediatype>
							<trackindex>2</trackindex>
						</sourcetrack>
							<filter>
								<effect>
									<name>Audio Levels</name>
									<effectid>audiolevels</effectid>
									<effectcategory>audiolevels</effectcategory>
									<effecttype>audiolevels</effecttype>
									<mediatype>audio</mediatype>
									<parameter authoringApp="PremierePro">
										<parameterid>level</parameterid>
										<name>Level</name>
										<valuemin>0</valuemin>
										<valuemax>3.98109</valuemax>
										<value>0</value>
									</parameter>
								</effect>
							</filter>
						<link>
							<linkclipref>clipitem-64</linkclipref>
							<mediatype>video</mediatype>
							<trackindex>1</trackindex>
							<clipindex>64</clipindex>
						</link>
						<link>
							<linkclipref>clipitem-538</linkclipref>
							<mediatype>audio</mediatype>
							<trackindex>1</trackindex>
							<clipindex>40</clipindex>
							<groupindex>1</groupindex>
						</link>
						<link>
							<linkclipref>clipitem-596</linkclipref>
							<mediatype>audio</mediatype>
							<trackindex>2</trackindex>
							<clipindex>11</clipindex>
							<groupindex>1</groupindex>
						</link>
						<link>
							<linkclipref>clipitem-930</linkclipref>
							<mediatype>audio</mediatype>
							<trackindex>10</trackindex>
							<clipindex>28</clipindex>
							<groupindex>1</groupindex>
						</link>
						<link>
							<linkclipref>clipitem-1070</linkclipref>
							<mediatype>audio</mediatype>
							<trackindex>11</trackindex>
							<clipindex>28</clipindex>
							<groupindex>1</groupindex>
						</link>
						<logginginfo>
							<description></description>
							<scene></scene>
							<shottake></shottake>
							<lognote></lognote>
						</logginginfo>
						<labels>
							<label2>Iris</label2>
						</labels>
					</clipitem>
					<clipitem id="clipitem-597" premiereChannelType="stereo">
						<masterclipid>masterclip-118</masterclipid>
						<name>AA278501.MXF</name>
						<enabled>TRUE</enabled>
						<duration>876</duration>
						<rate>
							<timebase>25</timebase>
							<ntsc>FALSE</ntsc>
						</rate>
						<start>58572</start>
						<end>58880</end>
						<in>500</in>
						<out>808</out>
						<pproTicksIn>5080320000000</pproTicksIn>
						<pproTicksOut>8209797120000</pproTicksOut>
						<file id="file-118"/>
						<sourcetrack>
							<mediatype>audio</mediatype>
							<trackindex>1</trackindex>
						</sourcetrack>
						<link>
							<linkclipref>clipitem-178</linkclipref>
							<mediatype>video</mediatype>
							<trackindex>1</trackindex>
							<clipindex>188</clipindex>
						</link>
						<link>
							<linkclipref>clipitem-585</linkclipref>
							<mediatype>audio</mediatype>
							<trackindex>1</trackindex>
							<clipindex>96</clipindex>
							<groupindex>1</groupindex>
						</link>
						<link>
							<linkclipref>clipitem-597</linkclipref>
							<mediatype>audio</mediatype>
							<trackindex>2</trackindex>
							<clipindex>12</clipindex>
							<groupindex>1</groupindex>
						</link>
						<logginginfo>
							<description></description>
							<scene></scene>
							<shottake></shottake>
							<lognote></lognote>
						</logginginfo>
						<labels>
							<label2>Iris</label2>
						</labels>
					</clipitem>
					<enabled>TRUE</enabled>
					<locked>FALSE</locked>
					<outputchannelindex>2</outputchannelindex>
				</track>
				<track TL.SQTrackAudioKeyframeStyle="0" TL.SQTrackShy="0" TL.SQTrackExpandedHeight="58" TL.SQTrackExpanded="1" MZ.TrackTargeted="0" PannerCurrentValue="0.5" PannerIsInverted="true" PannerStartKeyframe="-91445760000000000,0.5,0,0,0,0,0,0" PannerName="Balance" currentExplodedTrackIndex="0" totalExplodedTrackCount="2" premiereTrackType="Stereo">
					<clipitem id="clipitem-598" premiereChannelType="stereo">
						<masterclipid>masterclip-1</masterclipid>
						<name>AA265201.MXF</name>
						<enabled>TRUE</enabled>
						<duration>384</duration>
						<rate>
							<timebase>25</timebase>
							<ntsc>FALSE</ntsc>
						</rate>
						<start>0</start>
						<end>109</end>
						<in>125</in>
						<out>234</out>
						<pproTicksIn>1270080000000</pproTicksIn>
						<pproTicksOut>2377589760000</pproTicksOut>
						<file id="file-1"/>
						<sourcetrack>
							<mediatype>audio</mediatype>
							<trackindex>2</trackindex>
						</sourcetrack>
						<link>
							<linkclipref>clipitem-598</linkclipref>
							<mediatype>audio</mediatype>
							<trackindex>3</trackindex>
							<clipindex>1</clipindex>
							<groupindex>1</groupindex>
						</link>
						<link>
							<linkclipref>clipitem-654</linkclipref>
							<mediatype>audio</mediatype>
							<trackindex>4</trackindex>
							<clipindex>1</clipindex>
							<groupindex>1</groupindex>
						</link>
						<logginginfo>
							<description></description>
							<scene></scene>
							<shottake></shottake>
							<lognote></lognote>
						</logginginfo>
						<labels>
							<label2>Iris</label2>
						</labels>
					</clipitem>
					<clipitem id="clipitem-599" premiereChannelType="stereo">
						<masterclipid>masterclip-2</masterclipid>
						<name>AA265301.MXF</name>
						<enabled>TRUE</enabled>
						<duration>840</duration>
						<rate>
							<timebase>25</timebase>
							<ntsc>FALSE</ntsc>
						</rate>
						<start>109</start>
						<end>134</end>
						<in>0</in>
						<out>25</out>
						<pproTicksIn>0</pproTicksIn>
						<pproTicksOut>254016000000</pproTicksOut>
						<file id="file-2"/>
						<sourcetrack>
							<mediatype>audio</mediatype>
							<trackindex>2</trackindex>
						</sourcetrack>
						<link>
							<linkclipref>clipitem-599</linkclipref>
							<mediatype>audio</mediatype>
							<trackindex>3</trackindex>
							<clipindex>2</clipindex>
							<groupindex>1</groupindex>
						</link>
						<link>
							<linkclipref>clipitem-655</linkclipref>
							<mediatype>audio</mediatype>
							<trackindex>4</trackindex>
							<clipindex>2</clipindex>
							<groupindex>1</groupindex>
						</link>
						<logginginfo>
							<description></description>
							<scene></scene>
							<shottake></shottake>
							<lognote></lognote>
						</logginginfo>
						<labels>
							<label2>Iris</label2>
						</labels>
					</clipitem>
					<clipitem id="clipitem-600" premiereChannelType="stereo">
						<masterclipid>masterclip-3</masterclipid>
						<name>AA264901.MXF</name>
						<enabled>TRUE</enabled>
						<duration>780</duration>
						<rate>
							<timebase>25</timebase>
							<ntsc>FALSE</ntsc>
						</rate>
						<start>134</start>
						<end>159</end>
						<in>0</in>
						<out>25</out>
						<pproTicksIn>0</pproTicksIn>
						<pproTicksOut>254016000000</pproTicksOut>
						<file id="file-3"/>
						<sourcetrack>
							<mediatype>audio</mediatype>
							<trackindex>2</trackindex>
						</sourcetrack>
						<link>
							<linkclipref>clipitem-600</linkclipref>
							<mediatype>audio</mediatype>
							<trackindex>3</trackindex>
							<clipindex>3</clipindex>
							<groupindex>1</groupindex>
						</link>
						<link>
							<linkclipref>clipitem-656</linkclipref>
							<mediatype>audio</mediatype>
							<trackindex>4</trackindex>
							<clipindex>3</clipindex>
							<groupindex>1</groupindex>
						</link>
						<logginginfo>
							<description></description>
							<scene></scene>
							<shottake></shottake>
							<lognote></lognote>
						</logginginfo>
						<labels>
							<label2>Iris</label2>
						</labels>
					</clipitem>
					<clipitem id="clipitem-601" premiereChannelType="stereo">
						<masterclipid>masterclip-4</masterclipid>
						<name>AA264401.MXF</name>
						<enabled>TRUE</enabled>
						<duration>756</duration>
						<rate>
							<timebase>25</timebase>
							<ntsc>FALSE</ntsc>
						</rate>
						<start>159</start>
						<end>188</end>
						<in>355</in>
						<out>384</out>
						<pproTicksIn>3607027200000</pproTicksIn>
						<pproTicksOut>3901685760000</pproTicksOut>
						<file id="file-4"/>
						<sourcetrack>
							<mediatype>audio</mediatype>
							<trackindex>2</trackindex>
						</sourcetrack>
						<link>
							<linkclipref>clipitem-601</linkclipref>
							<mediatype>audio</mediatype>
							<trackindex>3</trackindex>
							<clipindex>4</clipindex>
							<groupindex>1</groupindex>
						</link>
						<link>
							<linkclipref>clipitem-657</linkclipref>
							<mediatype>audio</mediatype>
							<trackindex>4</trackindex>
							<clipindex>4</clipindex>
							<groupindex>1</groupindex>
						</link>
						<logginginfo>
							<description></description>
							<scene></scene>
							<shottake></shottake>
							<lognote></lognote>
						</logginginfo>
						<labels>
							<label2>Iris</label2>
						</labels>
					</clipitem>
					<clipitem id="clipitem-602" premiereChannelType="stereo">
						<masterclipid>masterclip-5</masterclipid>
						<name>AA259301.MXF</name>
						<enabled>TRUE</enabled>
						<duration>2340</duration>
						<rate>
							<timebase>25</timebase>
							<ntsc>FALSE</ntsc>
						</rate>
						<start>188</start>
						<end>218</end>
						<in>490</in>
						<out>520</out>
						<pproTicksIn>4978713600000</pproTicksIn>
						<pproTicksOut>5283532800000</pproTicksOut>
						<file id="file-5"/>
						<sourcetrack>
							<mediatype>audio</mediatype>
							<trackindex>2</trackindex>
						</sourcetrack>
						<link>
							<linkclipref>clipitem-602</linkclipref>
							<mediatype>audio</mediatype>
							<trackindex>3</trackindex>
							<clipindex>5</clipindex>
							<groupindex>1</groupindex>
						</link>
						<link>
							<linkclipref>clipitem-658</linkclipref>
							<mediatype>audio</mediatype>
							<trackindex>4</trackindex>
							<clipindex>5</clipindex>
							<groupindex>1</groupindex>
						</link>
						<logginginfo>
							<description></description>
							<scene></scene>
							<shottake></shottake>
							<lognote></lognote>
						</logginginfo>
						<labels>
							<label2>Iris</label2>
						</labels>
					</clipitem>
					<clipitem id="clipitem-603" premiereChannelType="stereo">
						<masterclipid>masterclip-1</masterclipid>
						<name>AA265201.MXF</name>
						<enabled>TRUE</enabled>
						<duration>384</duration>
						<rate>
							<timebase>25</timebase>
							<ntsc>FALSE</ntsc>
						</rate>
						<start>218</start>
						<end>243</end>
						<in>304</in>
						<out>329</out>
						<pproTicksIn>3088834560000</pproTicksIn>
						<pproTicksOut>3342850560000</pproTicksOut>
						<file id="file-1"/>
						<sourcetrack>
							<mediatype>audio</mediatype>
							<trackindex>2</trackindex>
						</sourcetrack>
						<link>
							<linkclipref>clipitem-603</linkclipref>
							<mediatype>audio</mediatype>
							<trackindex>3</trackindex>
							<clipindex>6</clipindex>
							<groupindex>1</groupindex>
						</link>
						<link>
							<linkclipref>clipitem-659</linkclipref>
							<mediatype>audio</mediatype>
							<trackindex>4</trackindex>
							<clipindex>6</clipindex>
							<groupindex>1</groupindex>
						</link>
						<logginginfo>
							<description></description>
							<scene></scene>
							<shottake></shottake>
							<lognote></lognote>
						</logginginfo>
						<labels>
							<label2>Iris</label2>
						</labels>
					</clipitem>
					<clipitem id="clipitem-604" premiereChannelType="stereo">
						<masterclipid>masterclip-6</masterclipid>
						<name>AA259401.MXF</name>
						<enabled>TRUE</enabled>
						<duration>708</duration>
						<rate>
							<timebase>25</timebase>
							<ntsc>FALSE</ntsc>
						</rate>
						<start>243</start>
						<end>272</end>
						<in>24</in>
						<out>53</out>
						<pproTicksIn>243855360000</pproTicksIn>
						<pproTicksOut>538513920000</pproTicksOut>
						<file id="file-6"/>
						<sourcetrack>
							<mediatype>audio</mediatype>
							<trackindex>2</trackindex>
						</sourcetrack>
						<link>
							<linkclipref>clipitem-604</linkclipref>
							<mediatype>audio</mediatype>
							<trackindex>3</trackindex>
							<clipindex>7</clipindex>
							<groupindex>1</groupindex>
						</link>
						<link>
							<linkclipref>clipitem-660</linkclipref>
							<mediatype>audio</mediatype>
							<trackindex>4</trackindex>
							<clipindex>7</clipindex>
							<groupindex>1</groupindex>
						</link>
						<logginginfo>
							<description></description>
							<scene></scene>
							<shottake></shottake>
							<lognote></lognote>
						</logginginfo>
						<labels>
							<label2>Iris</label2>
						</labels>
					</clipitem>
					<clipitem id="clipitem-605" premiereChannelType="stereo">
						<masterclipid>masterclip-7</masterclipid>
						<name>AA264301.MXF</name>
						<enabled>TRUE</enabled>
						<duration>648</duration>
						<rate>
							<timebase>25</timebase>
							<ntsc>FALSE</ntsc>
						</rate>
						<start>272</start>
						<end>301</end>
						<in>0</in>
						<out>29</out>
						<pproTicksIn>0</pproTicksIn>
						<pproTicksOut>294658560000</pproTicksOut>
						<file id="file-7"/>
						<sourcetrack>
							<mediatype>audio</mediatype>
							<trackindex>2</trackindex>
						</sourcetrack>
						<link>
							<linkclipref>clipitem-605</linkclipref>
							<mediatype>audio</mediatype>
							<trackindex>3</trackindex>
							<clipindex>8</clipindex>
							<groupindex>1</groupindex>
						</link>
						<link>
							<linkclipref>clipitem-661</linkclipref>
							<mediatype>audio</mediatype>
							<trackindex>4</trackindex>
							<clipindex>8</clipindex>
							<groupindex>1</groupindex>
						</link>
						<logginginfo>
							<description></description>
							<scene></scene>
							<shottake></shottake>
							<lognote></lognote>
						</logginginfo>
						<labels>
							<label2>Iris</label2>
						</labels>
					</clipitem>
					<clipitem id="clipitem-606" premiereChannelType="stereo">
						<masterclipid>masterclip-8</masterclipid>
						<name>AA259701.MXF</name>
						<enabled>TRUE</enabled>
						<duration>300</duration>
						<rate>
							<timebase>25</timebase>
							<ntsc>FALSE</ntsc>
						</rate>
						<start>301</start>
						<end>409</end>
						<in>29</in>
						<out>137</out>
						<pproTicksIn>294658560000</pproTicksIn>
						<pproTicksOut>1392007680000</pproTicksOut>
						<file id="file-8"/>
						<sourcetrack>
							<mediatype>audio</mediatype>
							<trackindex>2</trackindex>
						</sourcetrack>
						<link>
							<linkclipref>clipitem-606</linkclipref>
							<mediatype>audio</mediatype>
							<trackindex>3</trackindex>
							<clipindex>9</clipindex>
							<groupindex>1</groupindex>
						</link>
						<link>
							<linkclipref>clipitem-662</linkclipref>
							<mediatype>audio</mediatype>
							<trackindex>4</trackindex>
							<clipindex>9</clipindex>
							<groupindex>1</groupindex>
						</link>
						<logginginfo>
							<description></description>
							<scene></scene>
							<shottake></shottake>
							<lognote></lognote>
						</logginginfo>
						<labels>
							<label2>Iris</label2>
						</labels>
					</clipitem>
					<clipitem id="clipitem-607" premiereChannelType="stereo">
						<masterclipid>masterclip-9</masterclipid>
						<name>GOPR9723.MP4</name>
						<enabled>TRUE</enabled>
						<duration>397</duration>
						<rate>
							<timebase>25</timebase>
							<ntsc>FALSE</ntsc>
						</rate>
						<start>409</start>
						<end>435</end>
						<in>25</in>
						<out>51</out>
						<pproTicksIn>772208640000</pproTicksIn>
						<pproTicksOut>1564738560000</pproTicksOut>
						<file id="file-9"/>
						<sourcetrack>
							<mediatype>audio</mediatype>
							<trackindex>2</trackindex>
						</sourcetrack>
							<filter>
								<effect>
									<name>Time Remap</name>
									<effectid>timeremap</effectid>
									<effectcategory>motion</effectcategory>
									<effecttype>motion</effecttype>
									<mediatype>audio</mediatype>
									<parameter authoringApp="PremierePro">
										<parameterid>variablespeed</parameterid>
										<name>variablespeed</name>
										<valuemin>0</valuemin>
										<valuemax>1</valuemax>
										<value>0</value>
									</parameter>
									<parameter authoringApp="PremierePro">
										<parameterid>speed</parameterid>
										<name>speed</name>
										<valuemin>-100000</valuemin>
										<valuemax>100000</valuemax>
										<value>300</value>
									</parameter>
									<parameter authoringApp="PremierePro">
										<parameterid>reverse</parameterid>
										<name>reverse</name>
										<value>FALSE</value>
									</parameter>
									<parameter authoringApp="PremierePro">
										<parameterid>frameblending</parameterid>
										<name>frameblending</name>
										<value>FALSE</value>
									</parameter>
									<parameter authoringApp="PremierePro">
										<parameterid>graphdict</parameterid>
										<name>graphdict</name>
										<valuemin>0</valuemin>
										<valuemax>1191</valuemax>
										<value>0</value>
										<keyframe>
											<when>0</when>
											<value>0</value>
											<speedvirtualkf>TRUE</speedvirtualkf>
											<speedkfstart>TRUE</speedkfstart>
										</keyframe>
										<keyframe>
											<when>25</when>
											<value>75</value>
											<speedvirtualkf>TRUE</speedvirtualkf>
											<speedkfin>TRUE</speedkfin>
										</keyframe>
										<keyframe>
											<when>51</when>
											<value>153</value>
											<speedvirtualkf>TRUE</speedvirtualkf>
											<speedkfout>TRUE</speedkfout>
										</keyframe>
										<keyframe>
											<when>397</when>
											<value>1191</value>
											<speedvirtualkf>TRUE</speedvirtualkf>
											<speedkfend>TRUE</speedkfend>
										</keyframe>
										<interpolation>
											<name>FCPCurve</name>
										</interpolation>
									</parameter>
								</effect>
							</filter>
						<link>
							<linkclipref>clipitem-607</linkclipref>
							<mediatype>audio</mediatype>
							<trackindex>3</trackindex>
							<clipindex>10</clipindex>
							<groupindex>1</groupindex>
						</link>
						<link>
							<linkclipref>clipitem-663</linkclipref>
							<mediatype>audio</mediatype>
							<trackindex>4</trackindex>
							<clipindex>10</clipindex>
							<groupindex>1</groupindex>
						</link>
						<logginginfo>
							<description></description>
							<scene></scene>
							<shottake></shottake>
							<lognote></lognote>
						</logginginfo>
						<labels>
							<label2>Iris</label2>
						</labels>
					</clipitem>
					<clipitem id="clipitem-608" premiereChannelType="mono">
						<masterclipid>masterclip-188</masterclipid>
						<name>delfin-191016-2004.mxf</name>
						<enabled>TRUE</enabled>
						<duration>241</duration>
						<rate>
							<timebase>25</timebase>
							<ntsc>FALSE</ntsc>
						</rate>
						<start>11196</start>
						<end>-1</end>
						<in>25</in>
						<out>152</out>
						<pproTicksIn>254016000000</pproTicksIn>
						<pproTicksOut>1544417280000</pproTicksOut>
						<file id="file-188"/>
						<sourcetrack>
							<mediatype>audio</mediatype>
							<trackindex>2</trackindex>
						</sourcetrack>
						<link>
							<linkclipref>clipitem-281</linkclipref>
							<mediatype>video</mediatype>
							<trackindex>2</trackindex>
							<clipindex>25</clipindex>
						</link>
						<link>
							<linkclipref>clipitem-515</linkclipref>
							<mediatype>audio</mediatype>
							<trackindex>1</trackindex>
							<clipindex>11</clipindex>
							<groupindex>1</groupindex>
						</link>
						<link>
							<linkclipref>clipitem-608</linkclipref>
							<mediatype>audio</mediatype>
							<trackindex>3</trackindex>
							<clipindex>11</clipindex>
							<groupindex>1</groupindex>
						</link>
						<link>
							<linkclipref>clipitem-665</linkclipref>
							<mediatype>audio</mediatype>
							<trackindex>5</trackindex>
							<clipindex>2</clipindex>
							<groupindex>1</groupindex>
						</link>
						<link>
							<linkclipref>clipitem-695</linkclipref>
							<mediatype>audio</mediatype>
							<trackindex>7</trackindex>
							<clipindex>1</clipindex>
							<groupindex>1</groupindex>
						</link>
						<logginginfo>
							<description></description>
							<scene></scene>
							<shottake></shottake>
							<lognote></lognote>
						</logginginfo>
						<labels>
							<label2>Iris</label2>
						</labels>
					</clipitem>
					<transitionitem>
						<start>11310</start>
						<end>11323</end>
						<alignment>center</alignment>
						<cutPointTicks>60963840000</cutPointTicks>
						<rate>
							<timebase>25</timebase>
							<ntsc>FALSE</ntsc>
						</rate>
						<effect>
							<name>Cross Fade (+3dB)</name>
							<effectid>KGAudioTransCrossFade3dB</effectid>
							<effecttype>transition</effecttype>
							<mediatype>audio</mediatype>
							<wipecode>0</wipecode>
							<wipeaccuracy>100</wipeaccuracy>
							<startratio>0</startratio>
							<endratio>1</endratio>
							<reverse>FALSE</reverse>
						</effect>
					</transitionitem>
					<clipitem id="clipitem-609" premiereChannelType="mono">
						<masterclipid>masterclip-31</masterclipid>
						<name>delfin-191016-2006.mxf</name>
						<enabled>TRUE</enabled>
						<duration>1160</duration>
						<rate>
							<timebase>25</timebase>
							<ntsc>FALSE</ntsc>
						</rate>
						<start>-1</start>
						<end>12420</end>
						<in>25</in>
						<out>1135</out>
						<pproTicksIn>254016000000</pproTicksIn>
						<pproTicksOut>11532326400000</pproTicksOut>
						<file id="file-31"/>
						<sourcetrack>
							<mediatype>audio</mediatype>
							<trackindex>2</trackindex>
						</sourcetrack>
							<filter>
								<effect>
									<name>Audio Levels</name>
									<effectid>audiolevels</effectid>
									<effectcategory>audiolevels</effectcategory>
									<effecttype>audiolevels</effecttype>
									<mediatype>audio</mediatype>
									<parameter authoringApp="PremierePro">
										<parameterid>level</parameterid>
										<name>Level</name>
										<valuemin>0</valuemin>
										<valuemax>3.98109</valuemax>
										<value>0</value>
										<keyframe>
											<when>49</when>
											<value>0</value>
										</keyframe>
										<keyframe>
											<when>54</when>
											<value>1.48296</value>
										</keyframe>
										<keyframe>
											<when>68</when>
											<value>1.48296</value>
										</keyframe>
										<keyframe>
											<when>72</when>
											<value>1.48296</value>
										</keyframe>
										<keyframe>
											<when>126</when>
											<value>1.48296</value>
										</keyframe>
										<keyframe>
											<when>145</when>
											<value>0</value>
										</keyframe>
										<keyframe>
											<when>199</when>
											<value>0</value>
										</keyframe>
										<keyframe>
											<when>209</when>
											<value>1.50993</value>
										</keyframe>
										<keyframe>
											<when>284</when>
											<value>1.50993</value>
										</keyframe>
										<keyframe>
											<when>294</when>
											<value>0</value>
										</keyframe>
										<keyframe>
											<when>540</when>
											<value>0</value>
										</keyframe>
										<keyframe>
											<when>548</when>
											<value>1.99526</value>
										</keyframe>
										<keyframe>
											<when>592</when>
											<value>1.99526</value>
										</keyframe>
										<keyframe>
											<when>607</when>
											<value>0</value>
										</keyframe>
										<keyframe>
											<when>811</when>
											<value>0</value>
										</keyframe>
										<keyframe>
											<when>833</when>
											<value>1.07852</value>
										</keyframe>
										<keyframe>
											<when>871</when>
											<value>1.07852</value>
										</keyframe>
										<keyframe>
											<when>879</when>
											<value>0</value>
										</keyframe>
										<keyframe>
											<when>908</when>
											<value>0</value>
										</keyframe>
										<keyframe>
											<when>916</when>
											<value>1.99526</value>
										</keyframe>
										<keyframe>
											<when>1086</when>
											<value>1.99526</value>
										</keyframe>
										<keyframe>
											<when>1096</when>
											<value>0</value>
										</keyframe>
									</parameter>
								</effect>
							</filter>
						<link>
							<linkclipref>clipitem-41</linkclipref>
							<mediatype>video</mediatype>
							<trackindex>1</trackindex>
							<clipindex>41</clipindex>
						</link>
						<link>
							<linkclipref>clipitem-516</linkclipref>
							<mediatype>audio</mediatype>
							<trackindex>1</trackindex>
							<clipindex>13</clipindex>
							<groupindex>1</groupindex>
						</link>
						<link>
							<linkclipref>clipitem-609</linkclipref>
							<mediatype>audio</mediatype>
							<trackindex>3</trackindex>
							<clipindex>13</clipindex>
							<groupindex>1</groupindex>
						</link>
						<logginginfo>
							<description></description>
							<scene></scene>
							<shottake></shottake>
							<lognote></lognote>
						</logginginfo>
						<labels>
							<label2>Iris</label2>
						</labels>
					</clipitem>
					<clipitem id="clipitem-610" premiereChannelType="mono">
						<masterclipid>masterclip-32</masterclipid>
						<name>delfin-191016-2008.mxf</name>
						<enabled>TRUE</enabled>
						<duration>123</duration>
						<rate>
							<timebase>25</timebase>
							<ntsc>FALSE</ntsc>
						</rate>
						<start>12420</start>
						<end>12493</end>
						<in>25</in>
						<out>98</out>
						<pproTicksIn>254016000000</pproTicksIn>
						<pproTicksOut>995742720000</pproTicksOut>
						<file id="file-32"/>
						<sourcetrack>
							<mediatype>audio</mediatype>
							<trackindex>2</trackindex>
						</sourcetrack>
							<filter>
								<effect>
									<name>Audio Levels</name>
									<effectid>audiolevels</effectid>
									<effectcategory>audiolevels</effectcategory>
									<effecttype>audiolevels</effecttype>
									<mediatype>audio</mediatype>
									<parameter authoringApp="PremierePro">
										<parameterid>level</parameterid>
										<name>Level</name>
										<valuemin>0</valuemin>
										<valuemax>3.98109</valuemax>
										<value>0.0369492</value>
										<keyframe>
											<when>-4</when>
											<value>0.99763</value>
										</keyframe>
										<keyframe>
											<when>18</when>
											<value>0.0369492</value>
										</keyframe>
									</parameter>
								</effect>
							</filter>
						<link>
							<linkclipref>clipitem-42</linkclipref>
							<mediatype>video</mediatype>
							<trackindex>1</trackindex>
							<clipindex>42</clipindex>
						</link>
						<link>
							<linkclipref>clipitem-517</linkclipref>
							<mediatype>audio</mediatype>
							<trackindex>1</trackindex>
							<clipindex>14</clipindex>
							<groupindex>1</groupindex>
						</link>
						<link>
							<linkclipref>clipitem-610</linkclipref>
							<mediatype>audio</mediatype>
							<trackindex>3</trackindex>
							<clipindex>14</clipindex>
							<groupindex>1</groupindex>
						</link>
						<link>
							<linkclipref>clipitem-667</linkclipref>
							<mediatype>audio</mediatype>
							<trackindex>5</trackindex>
							<clipindex>5</clipindex>
							<groupindex>1</groupindex>
						</link>
						<link>
							<linkclipref>clipitem-696</linkclipref>
							<mediatype>audio</mediatype>
							<trackindex>7</trackindex>
							<clipindex>2</clipindex>
							<groupindex>1</groupindex>
						</link>
						<logginginfo>
							<description></description>
							<scene></scene>
							<shottake></shottake>
							<lognote></lognote>
						</logginginfo>
						<labels>
							<label2>Iris</label2>
						</labels>
					</clipitem>
					<clipitem id="clipitem-611" premiereChannelType="mono">
						<masterclipid>masterclip-33</masterclipid>
						<name>delfin-191016-2013.mxf</name>
						<enabled>TRUE</enabled>
						<duration>106</duration>
						<rate>
							<timebase>25</timebase>
							<ntsc>FALSE</ntsc>
						</rate>
						<start>12493</start>
						<end>12549</end>
						<in>25</in>
						<out>81</out>
						<pproTicksIn>254016000000</pproTicksIn>
						<pproTicksOut>823011840000</pproTicksOut>
						<file id="file-33"/>
						<sourcetrack>
							<mediatype>audio</mediatype>
							<trackindex>2</trackindex>
						</sourcetrack>
							<filter>
								<effect>
									<name>Audio Levels</name>
									<effectid>audiolevels</effectid>
									<effectcategory>audiolevels</effectcategory>
									<effecttype>audiolevels</effecttype>
									<mediatype>audio</mediatype>
									<parameter authoringApp="PremierePro">
										<parameterid>level</parameterid>
										<name>Level</name>
										<valuemin>0</valuemin>
										<valuemax>3.98109</valuemax>
										<value>0.026963</value>
									</parameter>
								</effect>
							</filter>
						<link>
							<linkclipref>clipitem-43</linkclipref>
							<mediatype>video</mediatype>
							<trackindex>1</trackindex>
							<clipindex>43</clipindex>
						</link>
						<link>
							<linkclipref>clipitem-518</linkclipref>
							<mediatype>audio</mediatype>
							<trackindex>1</trackindex>
							<clipindex>15</clipindex>
							<groupindex>1</groupindex>
						</link>
						<link>
							<linkclipref>clipitem-611</linkclipref>
							<mediatype>audio</mediatype>
							<trackindex>3</trackindex>
							<clipindex>15</clipindex>
							<groupindex>1</groupindex>
						</link>
						<link>
							<linkclipref>clipitem-668</linkclipref>
							<mediatype>audio</mediatype>
							<trackindex>5</trackindex>
							<clipindex>6</clipindex>
							<groupindex>1</groupindex>
						</link>
						<link>
							<linkclipref>clipitem-697</linkclipref>
							<mediatype>audio</mediatype>
							<trackindex>7</trackindex>
							<clipindex>3</clipindex>
							<groupindex>1</groupindex>
						</link>
						<logginginfo>
							<description></description>
							<scene></scene>
							<shottake></shottake>
							<lognote></lognote>
						</logginginfo>
						<labels>
							<label2>Iris</label2>
						</labels>
					</clipitem>
					<clipitem id="clipitem-612" premiereChannelType="mono">
						<masterclipid>masterclip-34</masterclipid>
						<name>delfin-191016-2014.mxf</name>
						<enabled>TRUE</enabled>
						<duration>100</duration>
						<rate>
							<timebase>25</timebase>
							<ntsc>FALSE</ntsc>
						</rate>
						<start>12549</start>
						<end>12599</end>
						<in>25</in>
						<out>75</out>
						<pproTicksIn>254016000000</pproTicksIn>
						<pproTicksOut>762048000000</pproTicksOut>
						<file id="file-34"/>
						<sourcetrack>
							<mediatype>audio</mediatype>
							<trackindex>2</trackindex>
						</sourcetrack>
							<filter>
								<effect>
									<name>Audio Levels</name>
									<effectid>audiolevels</effectid>
									<effectcategory>audiolevels</effectcategory>
									<effecttype>audiolevels</effecttype>
									<mediatype>audio</mediatype>
									<parameter authoringApp="PremierePro">
										<parameterid>level</parameterid>
										<name>Level</name>
										<valuemin>0</valuemin>
										<valuemax>3.98109</valuemax>
										<value>0.242667</value>
									</parameter>
								</effect>
							</filter>
						<link>
							<linkclipref>clipitem-44</linkclipref>
							<mediatype>video</mediatype>
							<trackindex>1</trackindex>
							<clipindex>44</clipindex>
						</link>
						<link>
							<linkclipref>clipitem-519</linkclipref>
							<mediatype>audio</mediatype>
							<trackindex>1</trackindex>
							<clipindex>16</clipindex>
							<groupindex>1</groupindex>
						</link>
						<link>
							<linkclipref>clipitem-612</linkclipref>
							<mediatype>audio</mediatype>
							<trackindex>3</trackindex>
							<clipindex>16</clipindex>
							<groupindex>1</groupindex>
						</link>
						<link>
							<linkclipref>clipitem-669</linkclipref>
							<mediatype>audio</mediatype>
							<trackindex>5</trackindex>
							<clipindex>7</clipindex>
							<groupindex>1</groupindex>
						</link>
						<link>
							<linkclipref>clipitem-698</linkclipref>
							<mediatype>audio</mediatype>
							<trackindex>7</trackindex>
							<clipindex>4</clipindex>
							<groupindex>1</groupindex>
						</link>
						<logginginfo>
							<description></description>
							<scene></scene>
							<shottake></shottake>
							<lognote></lognote>
						</logginginfo>
						<labels>
							<label2>Iris</label2>
						</labels>
					</clipitem>
					<clipitem id="clipitem-613" premiereChannelType="mono">
						<masterclipid>masterclip-35</masterclipid>
						<name>delfin-191016-2012.mxf</name>
						<enabled>TRUE</enabled>
						<duration>126</duration>
						<rate>
							<timebase>25</timebase>
							<ntsc>FALSE</ntsc>
						</rate>
						<start>12599</start>
						<end>-1</end>
						<in>25</in>
						<out>101</out>
						<pproTicksIn>254016000000</pproTicksIn>
						<pproTicksOut>1026224640000</pproTicksOut>
						<file id="file-35"/>
						<sourcetrack>
							<mediatype>audio</mediatype>
							<trackindex>2</trackindex>
						</sourcetrack>
						<link>
							<linkclipref>clipitem-45</linkclipref>
							<mediatype>video</mediatype>
							<trackindex>1</trackindex>
							<clipindex>45</clipindex>
						</link>
						<link>
							<linkclipref>clipitem-520</linkclipref>
							<mediatype>audio</mediatype>
							<trackindex>1</trackindex>
							<clipindex>17</clipindex>
							<groupindex>1</groupindex>
						</link>
						<link>
							<linkclipref>clipitem-613</linkclipref>
							<mediatype>audio</mediatype>
							<trackindex>3</trackindex>
							<clipindex>17</clipindex>
							<groupindex>1</groupindex>
						</link>
						<link>
							<linkclipref>clipitem-670</linkclipref>
							<mediatype>audio</mediatype>
							<trackindex>5</trackindex>
							<clipindex>8</clipindex>
							<groupindex>1</groupindex>
						</link>
						<link>
							<linkclipref>clipitem-699</linkclipref>
							<mediatype>audio</mediatype>
							<trackindex>7</trackindex>
							<clipindex>5</clipindex>
							<groupindex>1</groupindex>
						</link>
						<logginginfo>
							<description></description>
							<scene></scene>
							<shottake></shottake>
							<lognote></lognote>
						</logginginfo>
						<labels>
							<label2>Iris</label2>
						</labels>
					</clipitem>
					<transitionitem>
						<start>12662</start>
						<end>12675</end>
						<alignment>center</alignment>
						<cutPointTicks>60963840000</cutPointTicks>
						<rate>
							<timebase>25</timebase>
							<ntsc>FALSE</ntsc>
						</rate>
						<effect>
							<name>Cross Fade (+3dB)</name>
							<effectid>KGAudioTransCrossFade3dB</effectid>
							<effecttype>transition</effecttype>
							<mediatype>audio</mediatype>
							<wipecode>0</wipecode>
							<wipeaccuracy>100</wipeaccuracy>
							<startratio>0</startratio>
							<endratio>1</endratio>
							<reverse>FALSE</reverse>
						</effect>
					</transitionitem>
					<clipitem id="clipitem-614" premiereChannelType="mono">
						<masterclipid>masterclip-36</masterclipid>
						<name>delfin-191016-2016.mxf</name>
						<enabled>TRUE</enabled>
						<duration>804</duration>
						<rate>
							<timebase>25</timebase>
							<ntsc>FALSE</ntsc>
						</rate>
						<start>-1</start>
						<end>13416</end>
						<in>25</in>
						<out>779</out>
						<pproTicksIn>254016000000</pproTicksIn>
						<pproTicksOut>7915138560000</pproTicksOut>
						<file id="file-36"/>
						<sourcetrack>
							<mediatype>audio</mediatype>
							<trackindex>2</trackindex>
						</sourcetrack>
							<filter>
								<effect>
									<name>Audio Levels</name>
									<effectid>audiolevels</effectid>
									<effectcategory>audiolevels</effectcategory>
									<effecttype>audiolevels</effecttype>
									<mediatype>audio</mediatype>
									<parameter authoringApp="PremierePro">
										<parameterid>level</parameterid>
										<name>Level</name>
										<valuemin>0</valuemin>
										<valuemax>3.98109</valuemax>
										<value>0</value>
										<keyframe>
											<when>105</when>
											<value>0</value>
										</keyframe>
										<keyframe>
											<when>112</when>
											<value>0.99763</value>
										</keyframe>
										<keyframe>
											<when>209</when>
											<value>0.99763</value>
										</keyframe>
										<keyframe>
											<when>214</when>
											<value>0</value>
										</keyframe>
										<keyframe>
											<when>240</when>
											<value>0</value>
										</keyframe>
										<keyframe>
											<when>244</when>
											<value>1.07852</value>
										</keyframe>
										<keyframe>
											<when>313</when>
											<value>1.07852</value>
										</keyframe>
										<keyframe>
											<when>322</when>
											<value>0</value>
										</keyframe>
										<keyframe>
											<when>375</when>
											<value>0</value>
										</keyframe>
										<keyframe>
											<when>383</when>
											<value>1.07852</value>
										</keyframe>
										<keyframe>
											<when>418</when>
											<value>1.07852</value>
										</keyframe>
										<keyframe>
											<when>428</when>
											<value>0</value>
										</keyframe>
										<keyframe>
											<when>563</when>
											<value>0</value>
										</keyframe>
										<keyframe>
											<when>573</when>
											<value>1.2403</value>
										</keyframe>
										<keyframe>
											<when>609</when>
											<value>1.2403</value>
										</keyframe>
										<keyframe>
											<when>619</when>
											<value>0</value>
										</keyframe>
									</parameter>
								</effect>
							</filter>
						<link>
							<linkclipref>clipitem-46</linkclipref>
							<mediatype>video</mediatype>
							<trackindex>1</trackindex>
							<clipindex>46</clipindex>
						</link>
						<link>
							<linkclipref>clipitem-521</linkclipref>
							<mediatype>audio</mediatype>
							<trackindex>1</trackindex>
							<clipindex>19</clipindex>
							<groupindex>1</groupindex>
						</link>
						<link>
							<linkclipref>clipitem-614</linkclipref>
							<mediatype>audio</mediatype>
							<trackindex>3</trackindex>
							<clipindex>19</clipindex>
							<groupindex>1</groupindex>
						</link>
						<link>
							<linkclipref>clipitem-671</linkclipref>
							<mediatype>audio</mediatype>
							<trackindex>5</trackindex>
							<clipindex>10</clipindex>
							<groupindex>1</groupindex>
						</link>
						<logginginfo>
							<description></description>
							<scene></scene>
							<shottake></shottake>
							<lognote></lognote>
						</logginginfo>
						<labels>
							<label2>Iris</label2>
						</labels>
					</clipitem>
					<transitionitem>
						<start>13509</start>
						<end>13522</end>
						<alignment>start-black</alignment>
						<cutPointTicks>0</cutPointTicks>
						<rate>
							<timebase>25</timebase>
							<ntsc>FALSE</ntsc>
						</rate>
						<effect>
							<name>Cross Fade (+3dB)</name>
							<effectid>KGAudioTransCrossFade3dB</effectid>
							<effecttype>transition</effecttype>
							<mediatype>audio</mediatype>
							<wipecode>0</wipecode>
							<wipeaccuracy>100</wipeaccuracy>
							<startratio>0</startratio>
							<endratio>1</endratio>
							<reverse>FALSE</reverse>
						</effect>
					</transitionitem>
					<clipitem id="clipitem-615" premiereChannelType="mono">
						<masterclipid>masterclip-37</masterclipid>
						<name>delfin-191016-2016.mxf</name>
						<enabled>TRUE</enabled>
						<duration>248</duration>
						<rate>
							<timebase>25</timebase>
							<ntsc>FALSE</ntsc>
						</rate>
						<start>-1</start>
						<end>13707</end>
						<in>25</in>
						<out>223</out>
						<pproTicksIn>254016000000</pproTicksIn>
						<pproTicksOut>2265822720000</pproTicksOut>
						<file id="file-37"/>
						<sourcetrack>
							<mediatype>audio</mediatype>
							<trackindex>2</trackindex>
						</sourcetrack>
							<filter>
								<effect>
									<name>Audio Levels</name>
									<effectid>audiolevels</effectid>
									<effectcategory>audiolevels</effectcategory>
									<effecttype>audiolevels</effecttype>
									<mediatype>audio</mediatype>
									<parameter authoringApp="PremierePro">
										<parameterid>level</parameterid>
										<name>Level</name>
										<valuemin>0</valuemin>
										<valuemax>3.98109</valuemax>
										<value>0</value>
										<keyframe>
											<when>46</when>
											<value>0</value>
										</keyframe>
										<keyframe>
											<when>97</when>
											<value>0</value>
										</keyframe>
										<keyframe>
											<when>102</when>
											<value>1.07852</value>
										</keyframe>
										<keyframe>
											<when>114</when>
											<value>1.07852</value>
										</keyframe>
										<keyframe>
											<when>119</when>
											<value>0</value>
										</keyframe>
									</parameter>
								</effect>
							</filter>
						<link>
							<linkclipref>clipitem-48</linkclipref>
							<mediatype>video</mediatype>
							<trackindex>1</trackindex>
							<clipindex>48</clipindex>
						</link>
						<link>
							<linkclipref>clipitem-522</linkclipref>
							<mediatype>audio</mediatype>
							<trackindex>1</trackindex>
							<clipindex>21</clipindex>
							<groupindex>1</groupindex>
						</link>
						<link>
							<linkclipref>clipitem-615</linkclipref>
							<mediatype>audio</mediatype>
							<trackindex>3</trackindex>
							<clipindex>21</clipindex>
							<groupindex>1</groupindex>
						</link>
						<link>
							<linkclipref>clipitem-672</linkclipref>
							<mediatype>audio</mediatype>
							<trackindex>5</trackindex>
							<clipindex>12</clipindex>
							<groupindex>1</groupindex>
						</link>
						<logginginfo>
							<description></description>
							<scene></scene>
							<shottake></shottake>
							<lognote></lognote>
						</logginginfo>
						<labels>
							<label2>Iris</label2>
						</labels>
					</clipitem>
					<clipitem id="clipitem-616" premiereChannelType="mono">
						<masterclipid>masterclip-38</masterclipid>
						<name>delfin-191016-2016.mxf</name>
						<enabled>TRUE</enabled>
						<duration>513</duration>
						<rate>
							<timebase>25</timebase>
							<ntsc>FALSE</ntsc>
						</rate>
						<start>13707</start>
						<end>14170</end>
						<in>25</in>
						<out>488</out>
						<pproTicksIn>254016000000</pproTicksIn>
						<pproTicksOut>4958392320000</pproTicksOut>
						<file id="file-38"/>
						<sourcetrack>
							<mediatype>audio</mediatype>
							<trackindex>2</trackindex>
						</sourcetrack>
							<filter>
								<effect>
									<name>Audio Levels</name>
									<effectid>audiolevels</effectid>
									<effectcategory>audiolevels</effectcategory>
									<effecttype>audiolevels</effecttype>
									<mediatype>audio</mediatype>
									<parameter authoringApp="PremierePro">
										<parameterid>level</parameterid>
										<name>Level</name>
										<valuemin>0</valuemin>
										<valuemax>3.98109</valuemax>
										<value>0.976404</value>
										<keyframe>
											<when>106</when>
											<value>0</value>
										</keyframe>
										<keyframe>
											<when>129</when>
											<value>0</value>
										</keyframe>
										<keyframe>
											<when>144</when>
											<value>0.976404</value>
										</keyframe>
										<keyframe>
											<when>292</when>
											<value>0.976404</value>
										</keyframe>
										<keyframe>
											<when>326</when>
											<value>0</value>
										</keyframe>
										<keyframe>
											<when>439</when>
											<value>0</value>
										</keyframe>
										<keyframe>
											<when>454</when>
											<value>0.976404</value>
										</keyframe>
									</parameter>
								</effect>
							</filter>
						<link>
							<linkclipref>clipitem-49</linkclipref>
							<mediatype>video</mediatype>
							<trackindex>1</trackindex>
							<clipindex>49</clipindex>
						</link>
						<link>
							<linkclipref>clipitem-523</linkclipref>
							<mediatype>audio</mediatype>
							<trackindex>1</trackindex>
							<clipindex>22</clipindex>
							<groupindex>1</groupindex>
						</link>
						<link>
							<linkclipref>clipitem-616</linkclipref>
							<mediatype>audio</mediatype>
							<trackindex>3</trackindex>
							<clipindex>22</clipindex>
							<groupindex>1</groupindex>
						</link>
						<link>
							<linkclipref>clipitem-673</linkclipref>
							<mediatype>audio</mediatype>
							<trackindex>5</trackindex>
							<clipindex>14</clipindex>
							<groupindex>1</groupindex>
						</link>
						<logginginfo>
							<description></description>
							<scene></scene>
							<shottake></shottake>
							<lognote></lognote>
						</logginginfo>
						<labels>
							<label2>Iris</label2>
						</labels>
					</clipitem>
					<clipitem id="clipitem-617" premiereChannelType="mono">
						<masterclipid>masterclip-39</masterclipid>
						<name>delfin-191016-2017.mxf</name>
						<enabled>TRUE</enabled>
						<duration>130</duration>
						<rate>
							<timebase>25</timebase>
							<ntsc>FALSE</ntsc>
						</rate>
						<start>14170</start>
						<end>14250</end>
						<in>25</in>
						<out>105</out>
						<pproTicksIn>254016000000</pproTicksIn>
						<pproTicksOut>1066867200000</pproTicksOut>
						<file id="file-39"/>
						<sourcetrack>
							<mediatype>audio</mediatype>
							<trackindex>2</trackindex>
						</sourcetrack>
							<filter>
								<effect>
									<name>Audio Levels</name>
									<effectid>audiolevels</effectid>
									<effectcategory>audiolevels</effectcategory>
									<effecttype>audiolevels</effecttype>
									<mediatype>audio</mediatype>
									<parameter authoringApp="PremierePro">
										<parameterid>level</parameterid>
										<name>Level</name>
										<valuemin>0</valuemin>
										<valuemax>3.98109</valuemax>
										<value>0</value>
									</parameter>
								</effect>
							</filter>
						<link>
							<linkclipref>clipitem-50</linkclipref>
							<mediatype>video</mediatype>
							<trackindex>1</trackindex>
							<clipindex>50</clipindex>
						</link>
						<link>
							<linkclipref>clipitem-524</linkclipref>
							<mediatype>audio</mediatype>
							<trackindex>1</trackindex>
							<clipindex>23</clipindex>
							<groupindex>1</groupindex>
						</link>
						<link>
							<linkclipref>clipitem-617</linkclipref>
							<mediatype>audio</mediatype>
							<trackindex>3</trackindex>
							<clipindex>23</clipindex>
							<groupindex>1</groupindex>
						</link>
						<link>
							<linkclipref>clipitem-674</linkclipref>
							<mediatype>audio</mediatype>
							<trackindex>5</trackindex>
							<clipindex>15</clipindex>
							<groupindex>1</groupindex>
						</link>
						<link>
							<linkclipref>clipitem-700</linkclipref>
							<mediatype>audio</mediatype>
							<trackindex>7</trackindex>
							<clipindex>6</clipindex>
							<groupindex>1</groupindex>
						</link>
						<logginginfo>
							<description></description>
							<scene></scene>
							<shottake></shottake>
							<lognote></lognote>
						</logginginfo>
						<labels>
							<label2>Iris</label2>
						</labels>
					</clipitem>
					<clipitem id="clipitem-618" premiereChannelType="mono">
						<masterclipid>masterclip-40</masterclipid>
						<name>delfin-191016-2017.mxf</name>
						<enabled>TRUE</enabled>
						<duration>128</duration>
						<rate>
							<timebase>25</timebase>
							<ntsc>FALSE</ntsc>
						</rate>
						<start>14250</start>
						<end>14328</end>
						<in>25</in>
						<out>103</out>
						<pproTicksIn>254016000000</pproTicksIn>
						<pproTicksOut>1046545920000</pproTicksOut>
						<file id="file-40"/>
						<sourcetrack>
							<mediatype>audio</mediatype>
							<trackindex>2</trackindex>
						</sourcetrack>
							<filter>
								<effect>
									<name>Audio Levels</name>
									<effectid>audiolevels</effectid>
									<effectcategory>audiolevels</effectcategory>
									<effecttype>audiolevels</effecttype>
									<mediatype>audio</mediatype>
									<parameter authoringApp="PremierePro">
										<parameterid>level</parameterid>
										<name>Level</name>
										<valuemin>0</valuemin>
										<valuemax>3.98109</valuemax>
										<value>0</value>
									</parameter>
								</effect>
							</filter>
						<link>
							<linkclipref>clipitem-51</linkclipref>
							<mediatype>video</mediatype>
							<trackindex>1</trackindex>
							<clipindex>51</clipindex>
						</link>
						<link>
							<linkclipref>clipitem-525</linkclipref>
							<mediatype>audio</mediatype>
							<trackindex>1</trackindex>
							<clipindex>24</clipindex>
							<groupindex>1</groupindex>
						</link>
						<link>
							<linkclipref>clipitem-618</linkclipref>
							<mediatype>audio</mediatype>
							<trackindex>3</trackindex>
							<clipindex>24</clipindex>
							<groupindex>1</groupindex>
						</link>
						<link>
							<linkclipref>clipitem-675</linkclipref>
							<mediatype>audio</mediatype>
							<trackindex>5</trackindex>
							<clipindex>16</clipindex>
							<groupindex>1</groupindex>
						</link>
						<link>
							<linkclipref>clipitem-701</linkclipref>
							<mediatype>audio</mediatype>
							<trackindex>7</trackindex>
							<clipindex>7</clipindex>
							<groupindex>1</groupindex>
						</link>
						<logginginfo>
							<description></description>
							<scene></scene>
							<shottake></shottake>
							<lognote></lognote>
						</logginginfo>
						<labels>
							<label2>Iris</label2>
						</labels>
					</clipitem>
					<clipitem id="clipitem-619" premiereChannelType="mono">
						<masterclipid>masterclip-41</masterclipid>
						<name>delfin-191016-2017.mxf</name>
						<enabled>TRUE</enabled>
						<duration>200</duration>
						<rate>
							<timebase>25</timebase>
							<ntsc>FALSE</ntsc>
						</rate>
						<start>14328</start>
						<end>14478</end>
						<in>25</in>
						<out>175</out>
						<pproTicksIn>254016000000</pproTicksIn>
						<pproTicksOut>1778112000000</pproTicksOut>
						<file id="file-41"/>
						<sourcetrack>
							<mediatype>audio</mediatype>
							<trackindex>2</trackindex>
						</sourcetrack>
						<link>
							<linkclipref>clipitem-52</linkclipref>
							<mediatype>video</mediatype>
							<trackindex>1</trackindex>
							<clipindex>52</clipindex>
						</link>
						<link>
							<linkclipref>clipitem-526</linkclipref>
							<mediatype>audio</mediatype>
							<trackindex>1</trackindex>
							<clipindex>25</clipindex>
							<groupindex>1</groupindex>
						</link>
						<link>
							<linkclipref>clipitem-619</linkclipref>
							<mediatype>audio</mediatype>
							<trackindex>3</trackindex>
							<clipindex>25</clipindex>
							<groupindex>1</groupindex>
						</link>
						<link>
							<linkclipref>clipitem-676</linkclipref>
							<mediatype>audio</mediatype>
							<trackindex>5</trackindex>
							<clipindex>17</clipindex>
							<groupindex>1</groupindex>
						</link>
						<link>
							<linkclipref>clipitem-702</linkclipref>
							<mediatype>audio</mediatype>
							<trackindex>7</trackindex>
							<clipindex>8</clipindex>
							<groupindex>1</groupindex>
						</link>
						<logginginfo>
							<description></description>
							<scene></scene>
							<shottake></shottake>
							<lognote></lognote>
						</logginginfo>
						<labels>
							<label2>Iris</label2>
						</labels>
					</clipitem>
					<clipitem id="clipitem-620" premiereChannelType="mono">
						<masterclipid>masterclip-42</masterclipid>
						<name>delfin-191016-2017.mxf</name>
						<enabled>TRUE</enabled>
						<duration>146</duration>
						<rate>
							<timebase>25</timebase>
							<ntsc>FALSE</ntsc>
						</rate>
						<start>14478</start>
						<end>14574</end>
						<in>25</in>
						<out>121</out>
						<pproTicksIn>254016000000</pproTicksIn>
						<pproTicksOut>1229437440000</pproTicksOut>
						<file id="file-42"/>
						<sourcetrack>
							<mediatype>audio</mediatype>
							<trackindex>2</trackindex>
						</sourcetrack>
						<link>
							<linkclipref>clipitem-53</linkclipref>
							<mediatype>video</mediatype>
							<trackindex>1</trackindex>
							<clipindex>53</clipindex>
						</link>
						<link>
							<linkclipref>clipitem-527</linkclipref>
							<mediatype>audio</mediatype>
							<trackindex>1</trackindex>
							<clipindex>26</clipindex>
							<groupindex>1</groupindex>
						</link>
						<link>
							<linkclipref>clipitem-620</linkclipref>
							<mediatype>audio</mediatype>
							<trackindex>3</trackindex>
							<clipindex>26</clipindex>
							<groupindex>1</groupindex>
						</link>
						<link>
							<linkclipref>clipitem-677</linkclipref>
							<mediatype>audio</mediatype>
							<trackindex>5</trackindex>
							<clipindex>18</clipindex>
							<groupindex>1</groupindex>
						</link>
						<link>
							<linkclipref>clipitem-703</linkclipref>
							<mediatype>audio</mediatype>
							<trackindex>7</trackindex>
							<clipindex>9</clipindex>
							<groupindex>1</groupindex>
						</link>
						<logginginfo>
							<description></description>
							<scene></scene>
							<shottake></shottake>
							<lognote></lognote>
						</logginginfo>
						<labels>
							<label2>Iris</label2>
						</labels>
					</clipitem>
					<clipitem id="clipitem-621" premiereChannelType="mono">
						<masterclipid>masterclip-43</masterclipid>
						<name>delfin-191016-2017.mxf</name>
						<enabled>TRUE</enabled>
						<duration>233</duration>
						<rate>
							<timebase>25</timebase>
							<ntsc>FALSE</ntsc>
						</rate>
						<start>14574</start>
						<end>14656</end>
						<in>25</in>
						<out>107</out>
						<pproTicksIn>254016000000</pproTicksIn>
						<pproTicksOut>1087188480000</pproTicksOut>
						<file id="file-43"/>
						<sourcetrack>
							<mediatype>audio</mediatype>
							<trackindex>2</trackindex>
						</sourcetrack>
						<link>
							<linkclipref>clipitem-54</linkclipref>
							<mediatype>video</mediatype>
							<trackindex>1</trackindex>
							<clipindex>54</clipindex>
						</link>
						<link>
							<linkclipref>clipitem-528</linkclipref>
							<mediatype>audio</mediatype>
							<trackindex>1</trackindex>
							<clipindex>27</clipindex>
							<groupindex>1</groupindex>
						</link>
						<link>
							<linkclipref>clipitem-621</linkclipref>
							<mediatype>audio</mediatype>
							<trackindex>3</trackindex>
							<clipindex>27</clipindex>
							<groupindex>1</groupindex>
						</link>
						<link>
							<linkclipref>clipitem-678</linkclipref>
							<mediatype>audio</mediatype>
							<trackindex>5</trackindex>
							<clipindex>19</clipindex>
							<groupindex>1</groupindex>
						</link>
						<link>
							<linkclipref>clipitem-704</linkclipref>
							<mediatype>audio</mediatype>
							<trackindex>7</trackindex>
							<clipindex>10</clipindex>
							<groupindex>1</groupindex>
						</link>
						<logginginfo>
							<description></description>
							<scene></scene>
							<shottake></shottake>
							<lognote></lognote>
						</logginginfo>
						<labels>
							<label2>Iris</label2>
						</labels>
					</clipitem>
					<clipitem id="clipitem-622" premiereChannelType="mono">
						<masterclipid>masterclip-43</masterclipid>
						<name>delfin-191016-2017.mxf</name>
						<enabled>TRUE</enabled>
						<duration>233</duration>
						<rate>
							<timebase>25</timebase>
							<ntsc>FALSE</ntsc>
						</rate>
						<start>14656</start>
						<end>-1</end>
						<in>142</in>
						<out>208</out>
						<pproTicksIn>1442810880000</pproTicksIn>
						<pproTicksOut>2113413120000</pproTicksOut>
						<file id="file-43"/>
						<sourcetrack>
							<mediatype>audio</mediatype>
							<trackindex>2</trackindex>
						</sourcetrack>
						<logginginfo>
							<description></description>
							<scene></scene>
							<shottake></shottake>
							<lognote></lognote>
						</logginginfo>
						<labels>
							<label2>Iris</label2>
						</labels>
					</clipitem>
					<transitionitem>
						<start>14709</start>
						<end>14722</end>
						<alignment>end-black</alignment>
						<cutPointTicks>132088320000</cutPointTicks>
						<rate>
							<timebase>25</timebase>
							<ntsc>FALSE</ntsc>
						</rate>
						<effect>
							<name>Cross Fade (+3dB)</name>
							<effectid>KGAudioTransCrossFade3dB</effectid>
							<effecttype>transition</effecttype>
							<mediatype>audio</mediatype>
							<wipecode>0</wipecode>
							<wipeaccuracy>100</wipeaccuracy>
							<startratio>0</startratio>
							<endratio>1</endratio>
							<reverse>FALSE</reverse>
						</effect>
					</transitionitem>
					<clipitem id="clipitem-623" premiereChannelType="mono">
						<masterclipid>masterclip-306</masterclipid>
						<name>delfin-191016-2021.mxf</name>
						<enabled>TRUE</enabled>
						<duration>116</duration>
						<rate>
							<timebase>25</timebase>
							<ntsc>FALSE</ntsc>
						</rate>
						<start>15144</start>
						<end>-1</end>
						<in>0</in>
						<out>91</out>
						<pproTicksIn>0</pproTicksIn>
						<pproTicksOut>924618240000</pproTicksOut>
						<file id="file-306"/>
						<sourcetrack>
							<mediatype>audio</mediatype>
							<trackindex>2</trackindex>
						</sourcetrack>
							<filter>
								<effect>
									<name>Audio Levels</name>
									<effectid>audiolevels</effectid>
									<effectcategory>audiolevels</effectcategory>
									<effecttype>audiolevels</effecttype>
									<mediatype>audio</mediatype>
									<parameter authoringApp="PremierePro">
										<parameterid>level</parameterid>
										<name>Level</name>
										<valuemin>0</valuemin>
										<valuemax>3.98109</valuemax>
										<value>0.99763</value>
										<keyframe>
											<when>44</when>
											<value>0</value>
										</keyframe>
										<keyframe>
											<when>51</when>
											<value>0.99763</value>
										</keyframe>
									</parameter>
								</effect>
							</filter>
						<link>
							<linkclipref>clipitem-530</linkclipref>
							<mediatype>audio</mediatype>
							<trackindex>1</trackindex>
							<clipindex>30</clipindex>
							<groupindex>1</groupindex>
						</link>
						<link>
							<linkclipref>clipitem-623</linkclipref>
							<mediatype>audio</mediatype>
							<trackindex>3</trackindex>
							<clipindex>30</clipindex>
							<groupindex>1</groupindex>
						</link>
						<link>
							<linkclipref>clipitem-680</linkclipref>
							<mediatype>audio</mediatype>
							<trackindex>5</trackindex>
							<clipindex>22</clipindex>
							<groupindex>1</groupindex>
						</link>
						<link>
							<linkclipref>clipitem-706</linkclipref>
							<mediatype>audio</mediatype>
							<trackindex>7</trackindex>
							<clipindex>14</clipindex>
							<groupindex>1</groupindex>
						</link>
						<logginginfo>
							<description></description>
							<scene></scene>
							<shottake></shottake>
							<lognote></lognote>
						</logginginfo>
						<labels>
							<label2>Iris</label2>
						</labels>
					</clipitem>
					<transitionitem>
						<start>15222</start>
						<end>15235</end>
						<alignment>center</alignment>
						<cutPointTicks>60963840000</cutPointTicks>
						<rate>
							<timebase>25</timebase>
							<ntsc>FALSE</ntsc>
						</rate>
						<effect>
							<name>Cross Fade (+3dB)</name>
							<effectid>KGAudioTransCrossFade3dB</effectid>
							<effecttype>transition</effecttype>
							<mediatype>audio</mediatype>
							<wipecode>0</wipecode>
							<wipeaccuracy>100</wipeaccuracy>
							<startratio>0</startratio>
							<endratio>1</endratio>
							<reverse>FALSE</reverse>
						</effect>
					</transitionitem>
					<clipitem id="clipitem-624" premiereChannelType="mono">
						<masterclipid>masterclip-44</masterclipid>
						<name>delfin-191016-2021.mxf</name>
						<enabled>TRUE</enabled>
						<duration>346</duration>
						<rate>
							<timebase>25</timebase>
							<ntsc>FALSE</ntsc>
						</rate>
						<start>-1</start>
						<end>15465</end>
						<in>78</in>
						<out>321</out>
						<pproTicksIn>792529920000</pproTicksIn>
						<pproTicksOut>3261565440000</pproTicksOut>
						<file id="file-44"/>
						<sourcetrack>
							<mediatype>audio</mediatype>
							<trackindex>2</trackindex>
						</sourcetrack>
							<filter>
								<effect>
									<name>Audio Levels</name>
									<effectid>audiolevels</effectid>
									<effectcategory>audiolevels</effectcategory>
									<effecttype>audiolevels</effecttype>
									<mediatype>audio</mediatype>
									<parameter authoringApp="PremierePro">
										<parameterid>level</parameterid>
										<name>Level</name>
										<valuemin>0</valuemin>
										<valuemax>3.98109</valuemax>
										<value>0</value>
										<keyframe>
											<when>141</when>
											<value>0</value>
										</keyframe>
										<keyframe>
											<when>146</when>
											<value>0.99763</value>
										</keyframe>
										<keyframe>
											<when>176</when>
											<value>0.99763</value>
										</keyframe>
										<keyframe>
											<when>184</when>
											<value>0</value>
										</keyframe>
									</parameter>
								</effect>
							</filter>
						<link>
							<linkclipref>clipitem-56</linkclipref>
							<mediatype>video</mediatype>
							<trackindex>1</trackindex>
							<clipindex>56</clipindex>
						</link>
						<link>
							<linkclipref>clipitem-531</linkclipref>
							<mediatype>audio</mediatype>
							<trackindex>1</trackindex>
							<clipindex>32</clipindex>
							<groupindex>1</groupindex>
						</link>
						<link>
							<linkclipref>clipitem-624</linkclipref>
							<mediatype>audio</mediatype>
							<trackindex>3</trackindex>
							<clipindex>32</clipindex>
							<groupindex>1</groupindex>
						</link>
						<link>
							<linkclipref>clipitem-681</linkclipref>
							<mediatype>audio</mediatype>
							<trackindex>5</trackindex>
							<clipindex>24</clipindex>
							<groupindex>1</groupindex>
						</link>
						<link>
							<linkclipref>clipitem-707</linkclipref>
							<mediatype>audio</mediatype>
							<trackindex>7</trackindex>
							<clipindex>16</clipindex>
							<groupindex>1</groupindex>
						</link>
						<logginginfo>
							<description></description>
							<scene></scene>
							<shottake></shottake>
							<lognote></lognote>
						</logginginfo>
						<labels>
							<label2>Iris</label2>
						</labels>
					</clipitem>
					<clipitem id="clipitem-625" premiereChannelType="mono">
						<masterclipid>masterclip-45</masterclipid>
						<name>delfin-191016-2021.mxf</name>
						<enabled>TRUE</enabled>
						<duration>290</duration>
						<rate>
							<timebase>25</timebase>
							<ntsc>FALSE</ntsc>
						</rate>
						<start>15465</start>
						<end>15705</end>
						<in>25</in>
						<out>265</out>
						<pproTicksIn>254016000000</pproTicksIn>
						<pproTicksOut>2692569600000</pproTicksOut>
						<file id="file-45"/>
						<sourcetrack>
							<mediatype>audio</mediatype>
							<trackindex>2</trackindex>
						</sourcetrack>
							<filter>
								<effect>
									<name>Audio Levels</name>
									<effectid>audiolevels</effectid>
									<effectcategory>audiolevels</effectcategory>
									<effecttype>audiolevels</effecttype>
									<mediatype>audio</mediatype>
									<parameter authoringApp="PremierePro">
										<parameterid>level</parameterid>
										<name>Level</name>
										<valuemin>0</valuemin>
										<valuemax>3.98109</valuemax>
										<value>1.01886</value>
										<keyframe>
											<when>74</when>
											<value>0</value>
										</keyframe>
										<keyframe>
											<when>85</when>
											<value>1.01886</value>
										</keyframe>
									</parameter>
								</effect>
							</filter>
						<link>
							<linkclipref>clipitem-57</linkclipref>
							<mediatype>video</mediatype>
							<trackindex>1</trackindex>
							<clipindex>57</clipindex>
						</link>
						<link>
							<linkclipref>clipitem-532</linkclipref>
							<mediatype>audio</mediatype>
							<trackindex>1</trackindex>
							<clipindex>34</clipindex>
							<groupindex>1</groupindex>
						</link>
						<link>
							<linkclipref>clipitem-625</linkclipref>
							<mediatype>audio</mediatype>
							<trackindex>3</trackindex>
							<clipindex>33</clipindex>
							<groupindex>1</groupindex>
						</link>
						<link>
							<linkclipref>clipitem-682</linkclipref>
							<mediatype>audio</mediatype>
							<trackindex>5</trackindex>
							<clipindex>25</clipindex>
							<groupindex>1</groupindex>
						</link>
						<link>
							<linkclipref>clipitem-708</linkclipref>
							<mediatype>audio</mediatype>
							<trackindex>7</trackindex>
							<clipindex>18</clipindex>
							<groupindex>1</groupindex>
						</link>
						<logginginfo>
							<description></description>
							<scene></scene>
							<shottake></shottake>
							<lognote></lognote>
						</logginginfo>
						<labels>
							<label2>Iris</label2>
						</labels>
					</clipitem>
					<clipitem id="clipitem-626" premiereChannelType="mono">
						<masterclipid>masterclip-46</masterclipid>
						<name>delfin-191016-1008.mxf</name>
						<enabled>TRUE</enabled>
						<duration>575</duration>
						<rate>
							<timebase>25</timebase>
							<ntsc>FALSE</ntsc>
						</rate>
						<start>15705</start>
						<end>16230</end>
						<in>25</in>
						<out>550</out>
						<pproTicksIn>254016000000</pproTicksIn>
						<pproTicksOut>5588352000000</pproTicksOut>
						<file id="file-46"/>
						<sourcetrack>
							<mediatype>audio</mediatype>
							<trackindex>2</trackindex>
						</sourcetrack>
							<filter>
								<effect>
									<name>Audio Levels</name>
									<effectid>audiolevels</effectid>
									<effectcategory>audiolevels</effectcategory>
									<effecttype>audiolevels</effecttype>
									<mediatype>audio</mediatype>
									<parameter authoringApp="PremierePro">
										<parameterid>level</parameterid>
										<name>Level</name>
										<valuemin>0</valuemin>
										<valuemax>3.98109</valuemax>
										<value>1.67687</value>
									</parameter>
								</effect>
							</filter>
						<logginginfo>
							<description></description>
							<scene></scene>
							<shottake></shottake>
							<lognote></lognote>
						</logginginfo>
						<labels>
							<label2>Iris</label2>
						</labels>
					</clipitem>
					<clipitem id="clipitem-627" premiereChannelType="mono">
						<masterclipid>masterclip-307</masterclipid>
						<name>delfin-191016-1008.mxf</name>
						<enabled>TRUE</enabled>
						<duration>147</duration>
						<rate>
							<timebase>25</timebase>
							<ntsc>FALSE</ntsc>
						</rate>
						<start>16230</start>
						<end>16327</end>
						<in>25</in>
						<out>122</out>
						<pproTicksIn>254016000000</pproTicksIn>
						<pproTicksOut>1239598080000</pproTicksOut>
						<file id="file-307"/>
						<sourcetrack>
							<mediatype>audio</mediatype>
							<trackindex>2</trackindex>
						</sourcetrack>
							<filter>
								<effect>
									<name>Audio Levels</name>
									<effectid>audiolevels</effectid>
									<effectcategory>audiolevels</effectcategory>
									<effecttype>audiolevels</effecttype>
									<mediatype>audio</mediatype>
									<parameter authoringApp="PremierePro">
										<parameterid>level</parameterid>
										<name>Level</name>
										<valuemin>0</valuemin>
										<valuemax>3.98109</valuemax>
										<value>0</value>
										<keyframe>
											<when>80</when>
											<value>1.76177</value>
										</keyframe>
										<keyframe>
											<when>98</when>
											<value>1.76177</value>
										</keyframe>
										<keyframe>
											<when>118</when>
											<value>0</value>
										</keyframe>
									</parameter>
								</effect>
							</filter>
						<logginginfo>
							<description></description>
							<scene></scene>
							<shottake></shottake>
							<lognote></lognote>
						</logginginfo>
						<labels>
							<label2>Iris</label2>
						</labels>
					</clipitem>
					<transitionitem>
						<start>31490</start>
						<end>31503</end>
						<alignment>start-black</alignment>
						<cutPointTicks>0</cutPointTicks>
						<rate>
							<timebase>25</timebase>
							<ntsc>FALSE</ntsc>
						</rate>
						<effect>
							<name>Cross Fade (+3dB)</name>
							<effectid>KGAudioTransCrossFade3dB</effectid>
							<effecttype>transition</effecttype>
							<mediatype>audio</mediatype>
							<wipecode>0</wipecode>
							<wipeaccuracy>100</wipeaccuracy>
							<startratio>0</startratio>
							<endratio>1</endratio>
							<reverse>FALSE</reverse>
						</effect>
					</transitionitem>
					<clipitem id="clipitem-628" premiereChannelType="mono">
						<masterclipid>masterclip-81</masterclipid>
						<name>AA385201.mov</name>
						<enabled>TRUE</enabled>
						<duration>5712</duration>
						<rate>
							<timebase>25</timebase>
							<ntsc>FALSE</ntsc>
						</rate>
						<start>-1</start>
						<end>-1</end>
						<in>2329</in>
						<out>2385</out>
						<pproTicksIn>23664130560000</pproTicksIn>
						<pproTicksOut>24233126400000</pproTicksOut>
						<file id="file-81"/>
						<sourcetrack>
							<mediatype>audio</mediatype>
							<trackindex>2</trackindex>
						</sourcetrack>
							<filter>
								<effect>
									<name>Audio Levels</name>
									<effectid>audiolevels</effectid>
									<effectcategory>audiolevels</effectcategory>
									<effecttype>audiolevels</effecttype>
									<mediatype>audio</mediatype>
									<parameter authoringApp="PremierePro">
										<parameterid>level</parameterid>
										<name>Level</name>
										<valuemin>0</valuemin>
										<valuemax>3.98109</valuemax>
										<value>0.561009</value>
										<keyframe>
											<when>2355</when>
											<value>0.561009</value>
										</keyframe>
										<keyframe>
											<when>2367</when>
											<value>0.348747</value>
										</keyframe>
										<keyframe>
											<when>2625</when>
											<value>0.561009</value>
										</keyframe>
									</parameter>
								</effect>
							</filter>
						<logginginfo>
							<description></description>
							<scene></scene>
							<shottake>AA3852</shottake>
							<lognote></lognote>
						</logginginfo>
						<labels>
							<label2>Violet</label2>
						</labels>
					</clipitem>
					<transitionitem>
						<start>31539</start>
						<end>31546</end>
						<alignment>center</alignment>
						<cutPointTicks>30481920000</cutPointTicks>
						<rate>
							<timebase>25</timebase>
							<ntsc>FALSE</ntsc>
						</rate>
						<effect>
							<name>Cross Fade (+3dB)</name>
							<effectid>KGAudioTransCrossFade3dB</effectid>
							<effecttype>transition</effecttype>
							<mediatype>audio</mediatype>
							<wipecode>0</wipecode>
							<wipeaccuracy>100</wipeaccuracy>
							<startratio>0</startratio>
							<endratio>1</endratio>
							<reverse>FALSE</reverse>
						</effect>
					</transitionitem>
					<clipitem id="clipitem-629" premiereChannelType="mono">
						<masterclipid>masterclip-82</masterclipid>
						<name>AA395101.mov</name>
						<enabled>TRUE</enabled>
						<duration>5400</duration>
						<rate>
							<timebase>25</timebase>
							<ntsc>FALSE</ntsc>
						</rate>
						<start>-1</start>
						<end>31622</end>
						<in>4719</in>
						<out>4802</out>
						<pproTicksIn>47948060160000</pproTicksIn>
						<pproTicksOut>48791393280000</pproTicksOut>
						<file id="file-82"/>
						<sourcetrack>
							<mediatype>audio</mediatype>
							<trackindex>2</trackindex>
						</sourcetrack>
							<filter>
								<effect>
									<name>Gain</name>
									<effectid>{61756678, 4761696e, 4b657947}</effectid>
									<effecttype>filter</effecttype>
									<mediatype>audio</mediatype>
									<parameter authoringApp="PremierePro">
										<parameterid>Gain(dB)</parameterid>
										<name>Gain(dB)</name>
										<valuemin>-96</valuemin>
										<valuemax>96</valuemax>
										<value>12</value>
									</parameter>
								</effect>
							</filter>
							<filter>
								<effect>
									<name>Audio Levels</name>
									<effectid>audiolevels</effectid>
									<effectcategory>audiolevels</effectcategory>
									<effecttype>audiolevels</effecttype>
									<mediatype>audio</mediatype>
									<parameter authoringApp="PremierePro">
										<parameterid>level</parameterid>
										<name>Level</name>
										<valuemin>0</valuemin>
										<valuemax>3.98109</valuemax>
										<value>0.424523</value>
									</parameter>
								</effect>
							</filter>
						<logginginfo>
							<description></description>
							<scene></scene>
							<shottake>AA3951</shottake>
							<lognote></lognote>
						</logginginfo>
						<labels>
							<label2>Violet</label2>
						</labels>
					</clipitem>
					<clipitem id="clipitem-630" premiereChannelType="mono">
						<masterclipid>masterclip-82</masterclipid>
						<name>AA395101.mov</name>
						<enabled>TRUE</enabled>
						<duration>5400</duration>
						<rate>
							<timebase>25</timebase>
							<ntsc>FALSE</ntsc>
						</rate>
						<start>31622</start>
						<end>31665</end>
						<in>4829</in>
						<out>4872</out>
						<pproTicksIn>49065730560000</pproTicksIn>
						<pproTicksOut>49502638080000</pproTicksOut>
						<file id="file-82"/>
						<sourcetrack>
							<mediatype>audio</mediatype>
							<trackindex>2</trackindex>
						</sourcetrack>
							<filter>
								<effect>
									<name>Gain</name>
									<effectid>{61756678, 4761696e, 4b657947}</effectid>
									<effecttype>filter</effecttype>
									<mediatype>audio</mediatype>
									<parameter authoringApp="PremierePro">
										<parameterid>Gain(dB)</parameterid>
										<name>Gain(dB)</name>
										<valuemin>-96</valuemin>
										<valuemax>96</valuemax>
										<value>12</value>
									</parameter>
								</effect>
							</filter>
							<filter>
								<effect>
									<name>Audio Levels</name>
									<effectid>audiolevels</effectid>
									<effectcategory>audiolevels</effectcategory>
									<effecttype>audiolevels</effecttype>
									<mediatype>audio</mediatype>
									<parameter authoringApp="PremierePro">
										<parameterid>level</parameterid>
										<name>Level</name>
										<valuemin>0</valuemin>
										<valuemax>3.98109</valuemax>
										<value>1.23112</value>
									</parameter>
								</effect>
							</filter>
						<logginginfo>
							<description></description>
							<scene></scene>
							<shottake>AA3951</shottake>
							<lognote></lognote>
						</logginginfo>
						<labels>
							<label2>Violet</label2>
						</labels>
					</clipitem>
					<clipitem id="clipitem-631" premiereChannelType="mono">
						<masterclipid>masterclip-82</masterclipid>
						<name>AA395101.mov</name>
						<enabled>TRUE</enabled>
						<duration>5400</duration>
						<rate>
							<timebase>25</timebase>
							<ntsc>FALSE</ntsc>
						</rate>
						<start>31665</start>
						<end>-1</end>
						<in>4877</in>
						<out>4906</out>
						<pproTicksIn>49553441280000</pproTicksIn>
						<pproTicksOut>49848099840000</pproTicksOut>
						<file id="file-82"/>
						<sourcetrack>
							<mediatype>audio</mediatype>
							<trackindex>2</trackindex>
						</sourcetrack>
							<filter>
								<effect>
									<name>Gain</name>
									<effectid>{61756678, 4761696e, 4b657947}</effectid>
									<effecttype>filter</effecttype>
									<mediatype>audio</mediatype>
									<parameter authoringApp="PremierePro">
										<parameterid>Gain(dB)</parameterid>
										<name>Gain(dB)</name>
										<valuemin>-96</valuemin>
										<valuemax>96</valuemax>
										<value>12</value>
									</parameter>
								</effect>
							</filter>
							<filter>
								<effect>
									<name>Audio Levels</name>
									<effectid>audiolevels</effectid>
									<effectcategory>audiolevels</effectcategory>
									<effecttype>audiolevels</effecttype>
									<mediatype>audio</mediatype>
									<parameter authoringApp="PremierePro">
										<parameterid>level</parameterid>
										<name>Level</name>
										<valuemin>0</valuemin>
										<valuemax>3.98109</valuemax>
										<value>1.27357</value>
									</parameter>
								</effect>
							</filter>
						<logginginfo>
							<description></description>
							<scene></scene>
							<shottake>AA3951</shottake>
							<lognote></lognote>
						</logginginfo>
						<labels>
							<label2>Violet</label2>
						</labels>
					</clipitem>
					<transitionitem>
						<start>31681</start>
						<end>31694</end>
						<alignment>center</alignment>
						<cutPointTicks>60963840000</cutPointTicks>
						<rate>
							<timebase>25</timebase>
							<ntsc>FALSE</ntsc>
						</rate>
						<effect>
							<name>Cross Fade (+3dB)</name>
							<effectid>KGAudioTransCrossFade3dB</effectid>
							<effecttype>transition</effecttype>
							<mediatype>audio</mediatype>
							<wipecode>0</wipecode>
							<wipeaccuracy>100</wipeaccuracy>
							<startratio>0</startratio>
							<endratio>1</endratio>
							<reverse>FALSE</reverse>
						</effect>
					</transitionitem>
					<clipitem id="clipitem-632" premiereChannelType="mono">
						<masterclipid>masterclip-84</masterclipid>
						<name>isfiskeroye-3-210415r-029.mxf</name>
						<enabled>TRUE</enabled>
						<duration>8654</duration>
						<rate>
							<timebase>25</timebase>
							<ntsc>FALSE</ntsc>
						</rate>
						<start>-1</start>
						<end>31823</end>
						<in>6155</in>
						<out>6297</out>
						<pproTicksIn>62538739200000</pproTicksIn>
						<pproTicksOut>63981550080000</pproTicksOut>
						<file id="file-84"/>
						<sourcetrack>
							<mediatype>audio</mediatype>
							<trackindex>2</trackindex>
						</sourcetrack>
						<link>
							<linkclipref>clipitem-550</linkclipref>
							<mediatype>audio</mediatype>
							<trackindex>1</trackindex>
							<clipindex>59</clipindex>
							<groupindex>1</groupindex>
						</link>
						<link>
							<linkclipref>clipitem-632</linkclipref>
							<mediatype>audio</mediatype>
							<trackindex>3</trackindex>
							<clipindex>43</clipindex>
							<groupindex>1</groupindex>
						</link>
						<logginginfo>
							<description></description>
							<scene></scene>
							<shottake></shottake>
							<lognote></lognote>
						</logginginfo>
						<labels>
							<label2>Cerulean</label2>
						</labels>
					</clipitem>
					<clipitem id="clipitem-633" premiereChannelType="mono">
						<masterclipid>masterclip-84</masterclipid>
						<name>isfiskeroye-3-210415r-029.mxf</name>
						<enabled>TRUE</enabled>
						<duration>8654</duration>
						<rate>
							<timebase>25</timebase>
							<ntsc>FALSE</ntsc>
						</rate>
						<start>31823</start>
						<end>32002</end>
						<in>7245</in>
						<out>7424</out>
						<pproTicksIn>73613836800000</pproTicksIn>
						<pproTicksOut>75432591360000</pproTicksOut>
						<file id="file-84"/>
						<sourcetrack>
							<mediatype>audio</mediatype>
							<trackindex>2</trackindex>
						</sourcetrack>
						<link>
							<linkclipref>clipitem-551</linkclipref>
							<mediatype>audio</mediatype>
							<trackindex>1</trackindex>
							<clipindex>60</clipindex>
							<groupindex>1</groupindex>
						</link>
						<link>
							<linkclipref>clipitem-633</linkclipref>
							<mediatype>audio</mediatype>
							<trackindex>3</trackindex>
							<clipindex>44</clipindex>
							<groupindex>1</groupindex>
						</link>
						<logginginfo>
							<description></description>
							<scene></scene>
							<shottake></shottake>
							<lognote></lognote>
						</logginginfo>
						<labels>
							<label2>Cerulean</label2>
						</labels>
					</clipitem>
					<clipitem id="clipitem-634" premiereChannelType="mono">
						<masterclipid>masterclip-84</masterclipid>
						<name>isfiskeroye-3-210415r-029.mxf</name>
						<enabled>TRUE</enabled>
						<duration>8654</duration>
						<rate>
							<timebase>25</timebase>
							<ntsc>FALSE</ntsc>
						</rate>
						<start>32021</start>
						<end>32073</end>
						<in>7497</in>
						<out>7549</out>
						<pproTicksIn>76174318080000</pproTicksIn>
						<pproTicksOut>76702671360000</pproTicksOut>
						<file id="file-84"/>
						<sourcetrack>
							<mediatype>audio</mediatype>
							<trackindex>2</trackindex>
						</sourcetrack>
						<link>
							<linkclipref>clipitem-552</linkclipref>
							<mediatype>audio</mediatype>
							<trackindex>1</trackindex>
							<clipindex>61</clipindex>
							<groupindex>1</groupindex>
						</link>
						<link>
							<linkclipref>clipitem-634</linkclipref>
							<mediatype>audio</mediatype>
							<trackindex>3</trackindex>
							<clipindex>45</clipindex>
							<groupindex>1</groupindex>
						</link>
						<logginginfo>
							<description></description>
							<scene></scene>
							<shottake></shottake>
							<lognote></lognote>
						</logginginfo>
						<labels>
							<label2>Cerulean</label2>
						</labels>
					</clipitem>
					<clipitem id="clipitem-635" premiereChannelType="mono">
						<masterclipid>masterclip-84</masterclipid>
						<name>isfiskeroye-3-210415r-029.mxf</name>
						<enabled>TRUE</enabled>
						<duration>8654</duration>
						<rate>
							<timebase>25</timebase>
							<ntsc>FALSE</ntsc>
						</rate>
						<start>32073</start>
						<end>32091</end>
						<in>7579</in>
						<out>7597</out>
						<pproTicksIn>77007490560000</pproTicksIn>
						<pproTicksOut>77190382080000</pproTicksOut>
						<file id="file-84"/>
						<sourcetrack>
							<mediatype>audio</mediatype>
							<trackindex>2</trackindex>
						</sourcetrack>
						<link>
							<linkclipref>clipitem-553</linkclipref>
							<mediatype>audio</mediatype>
							<trackindex>1</trackindex>
							<clipindex>62</clipindex>
							<groupindex>1</groupindex>
						</link>
						<link>
							<linkclipref>clipitem-635</linkclipref>
							<mediatype>audio</mediatype>
							<trackindex>3</trackindex>
							<clipindex>46</clipindex>
							<groupindex>1</groupindex>
						</link>
						<logginginfo>
							<description></description>
							<scene></scene>
							<shottake></shottake>
							<lognote></lognote>
						</logginginfo>
						<labels>
							<label2>Cerulean</label2>
						</labels>
					</clipitem>
					<clipitem id="clipitem-636" premiereChannelType="mono">
						<masterclipid>masterclip-84</masterclipid>
						<name>isfiskeroye-3-210415r-029.mxf</name>
						<enabled>TRUE</enabled>
						<duration>8654</duration>
						<rate>
							<timebase>25</timebase>
							<ntsc>FALSE</ntsc>
						</rate>
						<start>32091</start>
						<end>32116</end>
						<in>7628</in>
						<out>7653</out>
						<pproTicksIn>77505361920000</pproTicksIn>
						<pproTicksOut>77759377920000</pproTicksOut>
						<file id="file-84"/>
						<sourcetrack>
							<mediatype>audio</mediatype>
							<trackindex>2</trackindex>
						</sourcetrack>
						<link>
							<linkclipref>clipitem-554</linkclipref>
							<mediatype>audio</mediatype>
							<trackindex>1</trackindex>
							<clipindex>63</clipindex>
							<groupindex>1</groupindex>
						</link>
						<link>
							<linkclipref>clipitem-636</linkclipref>
							<mediatype>audio</mediatype>
							<trackindex>3</trackindex>
							<clipindex>47</clipindex>
							<groupindex>1</groupindex>
						</link>
						<logginginfo>
							<description></description>
							<scene></scene>
							<shottake></shottake>
							<lognote></lognote>
						</logginginfo>
						<labels>
							<label2>Cerulean</label2>
						</labels>
					</clipitem>
					<clipitem id="clipitem-637" premiereChannelType="mono">
						<masterclipid>masterclip-85</masterclipid>
						<name>isfiskeroye-3-210415r-033.mxf</name>
						<enabled>TRUE</enabled>
						<duration>3106</duration>
						<rate>
							<timebase>25</timebase>
							<ntsc>FALSE</ntsc>
						</rate>
						<start>32116</start>
						<end>32702</end>
						<in>284</in>
						<out>870</out>
						<pproTicksIn>2885621760000</pproTicksIn>
						<pproTicksOut>8839756800000</pproTicksOut>
						<file id="file-85"/>
						<sourcetrack>
							<mediatype>audio</mediatype>
							<trackindex>2</trackindex>
						</sourcetrack>
						<link>
							<linkclipref>clipitem-555</linkclipref>
							<mediatype>audio</mediatype>
							<trackindex>1</trackindex>
							<clipindex>64</clipindex>
							<groupindex>1</groupindex>
						</link>
						<link>
							<linkclipref>clipitem-637</linkclipref>
							<mediatype>audio</mediatype>
							<trackindex>3</trackindex>
							<clipindex>48</clipindex>
							<groupindex>1</groupindex>
						</link>
						<logginginfo>
							<description></description>
							<scene></scene>
							<shottake></shottake>
							<lognote></lognote>
						</logginginfo>
						<labels>
							<label2>Cerulean</label2>
						</labels>
					</clipitem>
					<transitionitem>
						<start>34434</start>
						<end>34447</end>
						<alignment>start-black</alignment>
						<cutPointTicks>0</cutPointTicks>
						<rate>
							<timebase>25</timebase>
							<ntsc>FALSE</ntsc>
						</rate>
						<effect>
							<name>Cross Fade (+3dB)</name>
							<effectid>KGAudioTransCrossFade3dB</effectid>
							<effecttype>transition</effecttype>
							<mediatype>audio</mediatype>
							<wipecode>0</wipecode>
							<wipeaccuracy>100</wipeaccuracy>
							<startratio>0</startratio>
							<endratio>1</endratio>
							<reverse>FALSE</reverse>
						</effect>
					</transitionitem>
					<clipitem id="clipitem-638" premiereChannelType="mono">
						<masterclipid>masterclip-88</masterclipid>
						<name>Aashild-august-Clip0331.MXF</name>
						<enabled>TRUE</enabled>
						<duration>2604</duration>
						<rate>
							<timebase>25</timebase>
							<ntsc>FALSE</ntsc>
						</rate>
						<start>-1</start>
						<end>34476</end>
						<in>832</in>
						<out>874</out>
						<pproTicksIn>8453652480000</pproTicksIn>
						<pproTicksOut>8880399360000</pproTicksOut>
						<file id="file-88"/>
						<sourcetrack>
							<mediatype>audio</mediatype>
							<trackindex>2</trackindex>
						</sourcetrack>
						<link>
							<linkclipref>clipitem-556</linkclipref>
							<mediatype>audio</mediatype>
							<trackindex>1</trackindex>
							<clipindex>66</clipindex>
							<groupindex>1</groupindex>
						</link>
						<link>
							<linkclipref>clipitem-638</linkclipref>
							<mediatype>audio</mediatype>
							<trackindex>3</trackindex>
							<clipindex>50</clipindex>
							<groupindex>1</groupindex>
						</link>
						<logginginfo>
							<description></description>
							<scene></scene>
							<shottake></shottake>
							<lognote></lognote>
						</logginginfo>
						<labels>
							<label2>Caribbean</label2>
						</labels>
					</clipitem>
					<clipitem id="clipitem-639" premiereChannelType="mono">
						<masterclipid>masterclip-88</masterclipid>
						<name>Aashild-august-Clip0331.MXF</name>
						<enabled>TRUE</enabled>
						<duration>2604</duration>
						<rate>
							<timebase>25</timebase>
							<ntsc>FALSE</ntsc>
						</rate>
						<start>34476</start>
						<end>34510</end>
						<in>980</in>
						<out>1014</out>
						<pproTicksIn>9957427200000</pproTicksIn>
						<pproTicksOut>10302888960000</pproTicksOut>
						<file id="file-88"/>
						<sourcetrack>
							<mediatype>audio</mediatype>
							<trackindex>2</trackindex>
						</sourcetrack>
						<link>
							<linkclipref>clipitem-128</linkclipref>
							<mediatype>video</mediatype>
							<trackindex>1</trackindex>
							<clipindex>137</clipindex>
						</link>
						<link>
							<linkclipref>clipitem-557</linkclipref>
							<mediatype>audio</mediatype>
							<trackindex>1</trackindex>
							<clipindex>67</clipindex>
							<groupindex>1</groupindex>
						</link>
						<link>
							<linkclipref>clipitem-639</linkclipref>
							<mediatype>audio</mediatype>
							<trackindex>3</trackindex>
							<clipindex>51</clipindex>
							<groupindex>1</groupindex>
						</link>
						<logginginfo>
							<description></description>
							<scene></scene>
							<shottake></shottake>
							<lognote></lognote>
						</logginginfo>
						<labels>
							<label2>Caribbean</label2>
						</labels>
					</clipitem>
					<clipitem id="clipitem-640" premiereChannelType="mono">
						<masterclipid>masterclip-89</masterclipid>
						<name>Aashild-august-Clip0347.MXF</name>
						<enabled>TRUE</enabled>
						<duration>1092</duration>
						<rate>
							<timebase>25</timebase>
							<ntsc>FALSE</ntsc>
						</rate>
						<start>34510</start>
						<end>34625</end>
						<in>662</in>
						<out>776</out>
						<pproTicksIn>6726343680000</pproTicksIn>
						<pproTicksOut>7884656640000</pproTicksOut>
						<file id="file-89"/>
						<sourcetrack>
							<mediatype>audio</mediatype>
							<trackindex>1</trackindex>
						</sourcetrack>
						<link>
							<linkclipref>clipitem-129</linkclipref>
							<mediatype>video</mediatype>
							<trackindex>1</trackindex>
							<clipindex>138</clipindex>
						</link>
						<link>
							<linkclipref>clipitem-640</linkclipref>
							<mediatype>audio</mediatype>
							<trackindex>3</trackindex>
							<clipindex>52</clipindex>
							<groupindex>1</groupindex>
						</link>
						<link>
							<linkclipref>clipitem-690</linkclipref>
							<mediatype>audio</mediatype>
							<trackindex>5</trackindex>
							<clipindex>33</clipindex>
							<groupindex>1</groupindex>
						</link>
						<logginginfo>
							<description></description>
							<scene></scene>
							<shottake></shottake>
							<lognote></lognote>
						</logginginfo>
						<labels>
							<label2>Caribbean</label2>
						</labels>
					</clipitem>
					<clipitem id="clipitem-641" premiereChannelType="mono">
						<masterclipid>masterclip-90</masterclipid>
						<name>Aashild-august-Clip0576.MXF</name>
						<enabled>TRUE</enabled>
						<duration>552</duration>
						<rate>
							<timebase>25</timebase>
							<ntsc>FALSE</ntsc>
						</rate>
						<start>34625</start>
						<end>34662</end>
						<in>86</in>
						<out>123</out>
						<pproTicksIn>873815040000</pproTicksIn>
						<pproTicksOut>1249758720000</pproTicksOut>
						<file id="file-90"/>
						<sourcetrack>
							<mediatype>audio</mediatype>
							<trackindex>2</trackindex>
						</sourcetrack>
						<link>
							<linkclipref>clipitem-130</linkclipref>
							<mediatype>video</mediatype>
							<trackindex>1</trackindex>
							<clipindex>139</clipindex>
						</link>
						<link>
							<linkclipref>clipitem-559</linkclipref>
							<mediatype>audio</mediatype>
							<trackindex>1</trackindex>
							<clipindex>69</clipindex>
							<groupindex>1</groupindex>
						</link>
						<link>
							<linkclipref>clipitem-641</linkclipref>
							<mediatype>audio</mediatype>
							<trackindex>3</trackindex>
							<clipindex>53</clipindex>
							<groupindex>1</groupindex>
						</link>
						<logginginfo>
							<description></description>
							<scene></scene>
							<shottake></shottake>
							<lognote></lognote>
						</logginginfo>
						<labels>
							<label2>Caribbean</label2>
						</labels>
					</clipitem>
					<clipitem id="clipitem-642" premiereChannelType="mono">
						<masterclipid>masterclip-91</masterclipid>
						<name>Aashild-august-Clip0236.MXF</name>
						<enabled>TRUE</enabled>
						<duration>528</duration>
						<rate>
							<timebase>25</timebase>
							<ntsc>FALSE</ntsc>
						</rate>
						<start>34662</start>
						<end>34712</end>
						<in>78</in>
						<out>129</out>
						<pproTicksIn>792529920000</pproTicksIn>
						<pproTicksOut>1310722560000</pproTicksOut>
						<file id="file-91"/>
						<sourcetrack>
							<mediatype>audio</mediatype>
							<trackindex>2</trackindex>
						</sourcetrack>
						<link>
							<linkclipref>clipitem-131</linkclipref>
							<mediatype>video</mediatype>
							<trackindex>1</trackindex>
							<clipindex>140</clipindex>
						</link>
						<link>
							<linkclipref>clipitem-560</linkclipref>
							<mediatype>audio</mediatype>
							<trackindex>1</trackindex>
							<clipindex>70</clipindex>
							<groupindex>1</groupindex>
						</link>
						<link>
							<linkclipref>clipitem-642</linkclipref>
							<mediatype>audio</mediatype>
							<trackindex>3</trackindex>
							<clipindex>54</clipindex>
							<groupindex>1</groupindex>
						</link>
						<logginginfo>
							<description></description>
							<scene></scene>
							<shottake></shottake>
							<lognote></lognote>
						</logginginfo>
						<labels>
							<label2>Caribbean</label2>
						</labels>
					</clipitem>
					<clipitem id="clipitem-643" premiereChannelType="mono">
						<masterclipid>masterclip-92</masterclipid>
						<name>Aashild-august-Clip0264.MXF</name>
						<enabled>TRUE</enabled>
						<duration>876</duration>
						<rate>
							<timebase>25</timebase>
							<ntsc>FALSE</ntsc>
						</rate>
						<start>34712</start>
						<end>34745</end>
						<in>25</in>
						<out>58</out>
						<pproTicksIn>254016000000</pproTicksIn>
						<pproTicksOut>589317120000</pproTicksOut>
						<file id="file-92"/>
						<sourcetrack>
							<mediatype>audio</mediatype>
							<trackindex>2</trackindex>
						</sourcetrack>
						<link>
							<linkclipref>clipitem-132</linkclipref>
							<mediatype>video</mediatype>
							<trackindex>1</trackindex>
							<clipindex>141</clipindex>
						</link>
						<link>
							<linkclipref>clipitem-561</linkclipref>
							<mediatype>audio</mediatype>
							<trackindex>1</trackindex>
							<clipindex>71</clipindex>
							<groupindex>1</groupindex>
						</link>
						<link>
							<linkclipref>clipitem-643</linkclipref>
							<mediatype>audio</mediatype>
							<trackindex>3</trackindex>
							<clipindex>55</clipindex>
							<groupindex>1</groupindex>
						</link>
						<logginginfo>
							<description></description>
							<scene></scene>
							<shottake></shottake>
							<lognote></lognote>
						</logginginfo>
						<labels>
							<label2>Caribbean</label2>
						</labels>
					</clipitem>
					<clipitem id="clipitem-644" premiereChannelType="mono">
						<masterclipid>masterclip-196</masterclipid>
						<name>Aashild-august-Clip0207.MXF</name>
						<enabled>TRUE</enabled>
						<duration>3972</duration>
						<rate>
							<timebase>25</timebase>
							<ntsc>FALSE</ntsc>
						</rate>
						<start>34745</start>
						<end>34769</end>
						<in>147</in>
						<out>171</out>
						<pproTicksIn>1493614080000</pproTicksIn>
						<pproTicksOut>1737469440000</pproTicksOut>
						<file id="file-196"/>
						<sourcetrack>
							<mediatype>audio</mediatype>
							<trackindex>2</trackindex>
						</sourcetrack>
						<link>
							<linkclipref>clipitem-313</linkclipref>
							<mediatype>video</mediatype>
							<trackindex>2</trackindex>
							<clipindex>57</clipindex>
						</link>
						<link>
							<linkclipref>clipitem-562</linkclipref>
							<mediatype>audio</mediatype>
							<trackindex>1</trackindex>
							<clipindex>72</clipindex>
							<groupindex>1</groupindex>
						</link>
						<link>
							<linkclipref>clipitem-644</linkclipref>
							<mediatype>audio</mediatype>
							<trackindex>3</trackindex>
							<clipindex>56</clipindex>
							<groupindex>1</groupindex>
						</link>
						<logginginfo>
							<description></description>
							<scene></scene>
							<shottake></shottake>
							<lognote></lognote>
						</logginginfo>
						<labels>
							<label2>Caribbean</label2>
						</labels>
					</clipitem>
					<clipitem id="clipitem-645" premiereChannelType="mono">
						<masterclipid>masterclip-196</masterclipid>
						<name>Aashild-august-Clip0207.MXF</name>
						<enabled>TRUE</enabled>
						<duration>3972</duration>
						<rate>
							<timebase>25</timebase>
							<ntsc>FALSE</ntsc>
						</rate>
						<start>34769</start>
						<end>-1</end>
						<in>415</in>
						<out>515</out>
						<pproTicksIn>4216665600000</pproTicksIn>
						<pproTicksOut>5232729600000</pproTicksOut>
						<file id="file-196"/>
						<sourcetrack>
							<mediatype>audio</mediatype>
							<trackindex>2</trackindex>
						</sourcetrack>
						<link>
							<linkclipref>clipitem-314</linkclipref>
							<mediatype>video</mediatype>
							<trackindex>2</trackindex>
							<clipindex>58</clipindex>
						</link>
						<link>
							<linkclipref>clipitem-563</linkclipref>
							<mediatype>audio</mediatype>
							<trackindex>1</trackindex>
							<clipindex>73</clipindex>
							<groupindex>1</groupindex>
						</link>
						<link>
							<linkclipref>clipitem-645</linkclipref>
							<mediatype>audio</mediatype>
							<trackindex>3</trackindex>
							<clipindex>57</clipindex>
							<groupindex>1</groupindex>
						</link>
						<logginginfo>
							<description></description>
							<scene></scene>
							<shottake></shottake>
							<lognote></lognote>
						</logginginfo>
						<labels>
							<label2>Caribbean</label2>
						</labels>
					</clipitem>
					<transitionitem>
						<start>34856</start>
						<end>34869</end>
						<alignment>end-black</alignment>
						<cutPointTicks>132088320000</cutPointTicks>
						<rate>
							<timebase>25</timebase>
							<ntsc>FALSE</ntsc>
						</rate>
						<effect>
							<name>Cross Fade (+3dB)</name>
							<effectid>KGAudioTransCrossFade3dB</effectid>
							<effecttype>transition</effecttype>
							<mediatype>audio</mediatype>
							<wipecode>0</wipecode>
							<wipeaccuracy>100</wipeaccuracy>
							<startratio>0</startratio>
							<endratio>1</endratio>
							<reverse>FALSE</reverse>
						</effect>
					</transitionitem>
					<clipitem id="clipitem-646" premiereChannelType="mono">
						<masterclipid>masterclip-93</masterclipid>
						<name>Aashild-august-Clip0760.MXF</name>
						<enabled>TRUE</enabled>
						<duration>1128</duration>
						<rate>
							<timebase>25</timebase>
							<ntsc>FALSE</ntsc>
						</rate>
						<start>35104</start>
						<end>35161</end>
						<in>201</in>
						<out>258</out>
						<pproTicksIn>2042288640000</pproTicksIn>
						<pproTicksOut>2621445120000</pproTicksOut>
						<file id="file-93"/>
						<sourcetrack>
							<mediatype>audio</mediatype>
							<trackindex>1</trackindex>
						</sourcetrack>
						<link>
							<linkclipref>clipitem-321</linkclipref>
							<mediatype>video</mediatype>
							<trackindex>2</trackindex>
							<clipindex>65</clipindex>
						</link>
						<link>
							<linkclipref>clipitem-646</linkclipref>
							<mediatype>audio</mediatype>
							<trackindex>3</trackindex>
							<clipindex>59</clipindex>
							<groupindex>1</groupindex>
						</link>
						<link>
							<linkclipref>clipitem-691</linkclipref>
							<mediatype>audio</mediatype>
							<trackindex>5</trackindex>
							<clipindex>34</clipindex>
							<groupindex>1</groupindex>
						</link>
						<link>
							<linkclipref>clipitem-718</linkclipref>
							<mediatype>audio</mediatype>
							<trackindex>7</trackindex>
							<clipindex>29</clipindex>
							<groupindex>1</groupindex>
						</link>
						<link>
							<linkclipref>clipitem-772</linkclipref>
							<mediatype>audio</mediatype>
							<trackindex>8</trackindex>
							<clipindex>66</clipindex>
							<groupindex>1</groupindex>
						</link>
						<logginginfo>
							<description></description>
							<scene></scene>
							<shottake></shottake>
							<lognote></lognote>
						</logginginfo>
						<labels>
							<label2>Caribbean</label2>
						</labels>
					</clipitem>
					<clipitem id="clipitem-647" premiereChannelType="mono">
						<masterclipid>masterclip-93</masterclipid>
						<name>Aashild-august-Clip0760.MXF</name>
						<enabled>TRUE</enabled>
						<duration>1128</duration>
						<rate>
							<timebase>25</timebase>
							<ntsc>FALSE</ntsc>
						</rate>
						<start>35186</start>
						<end>35219</end>
						<in>444</in>
						<out>477</out>
						<pproTicksIn>4511324160000</pproTicksIn>
						<pproTicksOut>4846625280000</pproTicksOut>
						<file id="file-93"/>
						<sourcetrack>
							<mediatype>audio</mediatype>
							<trackindex>2</trackindex>
						</sourcetrack>
						<link>
							<linkclipref>clipitem-133</linkclipref>
							<mediatype>video</mediatype>
							<trackindex>1</trackindex>
							<clipindex>142</clipindex>
						</link>
						<link>
							<linkclipref>clipitem-564</linkclipref>
							<mediatype>audio</mediatype>
							<trackindex>1</trackindex>
							<clipindex>75</clipindex>
							<groupindex>1</groupindex>
						</link>
						<link>
							<linkclipref>clipitem-647</linkclipref>
							<mediatype>audio</mediatype>
							<trackindex>3</trackindex>
							<clipindex>60</clipindex>
							<groupindex>1</groupindex>
						</link>
						<logginginfo>
							<description></description>
							<scene></scene>
							<shottake></shottake>
							<lognote></lognote>
						</logginginfo>
						<labels>
							<label2>Caribbean</label2>
						</labels>
					</clipitem>
					<clipitem id="clipitem-648" premiereChannelType="mono">
						<masterclipid>masterclip-93</masterclipid>
						<name>Aashild-august-Clip0760.MXF</name>
						<enabled>TRUE</enabled>
						<duration>1128</duration>
						<rate>
							<timebase>25</timebase>
							<ntsc>FALSE</ntsc>
						</rate>
						<start>35219</start>
						<end>35297</end>
						<in>668</in>
						<out>746</out>
						<pproTicksIn>6787307520000</pproTicksIn>
						<pproTicksOut>7579837440000</pproTicksOut>
						<file id="file-93"/>
						<sourcetrack>
							<mediatype>audio</mediatype>
							<trackindex>2</trackindex>
						</sourcetrack>
						<link>
							<linkclipref>clipitem-134</linkclipref>
							<mediatype>video</mediatype>
							<trackindex>1</trackindex>
							<clipindex>143</clipindex>
						</link>
						<link>
							<linkclipref>clipitem-565</linkclipref>
							<mediatype>audio</mediatype>
							<trackindex>1</trackindex>
							<clipindex>76</clipindex>
							<groupindex>1</groupindex>
						</link>
						<link>
							<linkclipref>clipitem-648</linkclipref>
							<mediatype>audio</mediatype>
							<trackindex>3</trackindex>
							<clipindex>61</clipindex>
							<groupindex>1</groupindex>
						</link>
						<logginginfo>
							<description></description>
							<scene></scene>
							<shottake></shottake>
							<lognote></lognote>
						</logginginfo>
						<labels>
							<label2>Caribbean</label2>
						</labels>
					</clipitem>
					<transitionitem>
						<start>48885</start>
						<end>48898</end>
						<alignment>start-black</alignment>
						<cutPointTicks>0</cutPointTicks>
						<rate>
							<timebase>25</timebase>
							<ntsc>FALSE</ntsc>
						</rate>
						<effect>
							<name>Cross Fade (+3dB)</name>
							<effectid>KGAudioTransCrossFade3dB</effectid>
							<effecttype>transition</effecttype>
							<mediatype>audio</mediatype>
							<wipecode>0</wipecode>
							<wipeaccuracy>100</wipeaccuracy>
							<startratio>0</startratio>
							<endratio>1</endratio>
							<reverse>FALSE</reverse>
						</effect>
					</transitionitem>
					<clipitem id="clipitem-649" premiereChannelType="mono">
						<masterclipid>masterclip-233</masterclipid>
						<name>Clip0026.MXF</name>
						<enabled>TRUE</enabled>
						<duration>2052</duration>
						<rate>
							<timebase>25</timebase>
							<ntsc>FALSE</ntsc>
						</rate>
						<start>-1</start>
						<end>49332</end>
						<in>166</in>
						<out>614</out>
						<pproTicksIn>1686666240000</pproTicksIn>
						<pproTicksOut>6238632960000</pproTicksOut>
						<file id="file-233"/>
						<sourcetrack>
							<mediatype>audio</mediatype>
							<trackindex>2</trackindex>
						</sourcetrack>
							<filter>
								<effect>
									<name>Audio Levels</name>
									<effectid>audiolevels</effectid>
									<effectcategory>audiolevels</effectcategory>
									<effecttype>audiolevels</effecttype>
									<mediatype>audio</mediatype>
									<parameter authoringApp="PremierePro">
										<parameterid>level</parameterid>
										<name>Level</name>
										<valuemin>0</valuemin>
										<valuemax>3.98109</valuemax>
										<value>0.0212262</value>
										<keyframe>
											<when>572</when>
											<value>0.99763</value>
										</keyframe>
										<keyframe>
											<when>604</when>
											<value>0.0212262</value>
										</keyframe>
									</parameter>
								</effect>
							</filter>
						<link>
							<linkclipref>clipitem-388</linkclipref>
							<mediatype>video</mediatype>
							<trackindex>2</trackindex>
							<clipindex>132</clipindex>
						</link>
						<link>
							<linkclipref>clipitem-649</linkclipref>
							<mediatype>audio</mediatype>
							<trackindex>3</trackindex>
							<clipindex>63</clipindex>
							<groupindex>1</groupindex>
						</link>
						<logginginfo>
							<description></description>
							<scene></scene>
							<shottake></shottake>
							<lognote></lognote>
						</logginginfo>
						<labels>
							<label2>Iris</label2>
						</labels>
					</clipitem>
					<clipitem id="clipitem-650" premiereChannelType="mono">
						<masterclipid>masterclip-235</masterclipid>
						<name>Clip0022.MXF</name>
						<enabled>TRUE</enabled>
						<duration>1536</duration>
						<rate>
							<timebase>25</timebase>
							<ntsc>FALSE</ntsc>
						</rate>
						<start>49358</start>
						<end>-1</end>
						<in>1078</in>
						<out>1487</out>
						<pproTicksIn>10953169920000</pproTicksIn>
						<pproTicksOut>15108871680000</pproTicksOut>
						<file id="file-235"/>
						<sourcetrack>
							<mediatype>audio</mediatype>
							<trackindex>2</trackindex>
						</sourcetrack>
							<filter>
								<effect>
									<name>Audio Levels</name>
									<effectid>audiolevels</effectid>
									<effectcategory>audiolevels</effectcategory>
									<effecttype>audiolevels</effecttype>
									<mediatype>audio</mediatype>
									<parameter authoringApp="PremierePro">
										<parameterid>level</parameterid>
										<name>Level</name>
										<valuemin>0</valuemin>
										<valuemax>3.98109</valuemax>
										<value>0.351293</value>
										<keyframe>
											<when>890</when>
											<value>0.233488</value>
										</keyframe>
										<keyframe>
											<when>899</when>
											<value>0.99763</value>
										</keyframe>
										<keyframe>
											<when>1059</when>
											<value>0.99763</value>
										</keyframe>
										<keyframe>
											<when>1076</when>
											<value>0.351293</value>
										</keyframe>
									</parameter>
								</effect>
							</filter>
						<logginginfo>
							<description></description>
							<scene></scene>
							<shottake></shottake>
							<lognote></lognote>
						</logginginfo>
						<labels>
							<label2>Iris</label2>
						</labels>
					</clipitem>
					<transitionitem>
						<start>49755</start>
						<end>49767</end>
						<alignment>center</alignment>
						<cutPointTicks>60963840000</cutPointTicks>
						<rate>
							<timebase>25</timebase>
							<ntsc>FALSE</ntsc>
						</rate>
						<effect>
							<name>Cross Fade (+3dB)</name>
							<effectid>KGAudioTransCrossFade3dB</effectid>
							<effecttype>transition</effecttype>
							<mediatype>audio</mediatype>
							<wipecode>0</wipecode>
							<wipeaccuracy>100</wipeaccuracy>
							<startratio>0</startratio>
							<endratio>1</endratio>
							<reverse>FALSE</reverse>
						</effect>
					</transitionitem>
					<clipitem id="clipitem-651" premiereChannelType="mono">
						<masterclipid>masterclip-310</masterclipid>
						<name>Clip0025.MXF</name>
						<enabled>TRUE</enabled>
						<duration>1704</duration>
						<rate>
							<timebase>25</timebase>
							<ntsc>FALSE</ntsc>
						</rate>
						<start>-1</start>
						<end>50093</end>
						<in>340</in>
						<out>678</out>
						<pproTicksIn>3454617600000</pproTicksIn>
						<pproTicksOut>6888913920000</pproTicksOut>
						<pixelaspectratio>square</pixelaspectratio>
						<anamorphic>FALSE</anamorphic>
						<file id="file-310">
							<name>Clip0025.MXF</name>
							<pathurl>file://localhost/Volumes/Vaagen/Prosjekter/DVNA210116_Horn%c3%b8ya_Nordvisjonen_010317_TGP/Bakomfilm/bakomstoff%20juli16/XDROOT/XDCAM%2025%20p/Clip0025.MXF</pathurl>
							<rate>
								<timebase>25</timebase>
								<ntsc>FALSE</ntsc>
							</rate>
							<duration>1704</duration>
							<timecode>
								<rate>
									<timebase>25</timebase>
									<ntsc>FALSE</ntsc>
								</rate>
								<string>14:55:11:01</string>
								<frame>1342776</frame>
								<displayformat>NDF</displayformat>
								<reel>
									<name></name>
								</reel>
							</timecode>
							<media>
								<video>
									<samplecharacteristics>
										<rate>
											<timebase>25</timebase>
											<ntsc>FALSE</ntsc>
										</rate>
										<width>1920</width>
										<height>1080</height>
										<anamorphic>FALSE</anamorphic>
										<pixelaspectratio>square</pixelaspectratio>
										<fielddominance>upper</fielddominance>
									</samplecharacteristics>
								</video>
								<audio>
									<samplecharacteristics>
										<depth>16</depth>
										<samplerate>48000</samplerate>
									</samplecharacteristics>
									<channelcount>4</channelcount>
								</audio>
							</media>
						</file>
						<sourcetrack>
							<mediatype>audio</mediatype>
							<trackindex>2</trackindex>
						</sourcetrack>
							<filter>
								<effect>
									<name>Gain</name>
									<effectid>{61756678, 4761696e, 4b657947}</effectid>
									<effecttype>filter</effecttype>
									<mediatype>audio</mediatype>
									<parameter authoringApp="PremierePro">
										<parameterid>Gain(dB)</parameterid>
										<name>Gain(dB)</name>
										<valuemin>-96</valuemin>
										<valuemax>96</valuemax>
										<value>-10</value>
									</parameter>
								</effect>
							</filter>
							<filter>
								<effect>
									<name>Audio Levels</name>
									<effectid>audiolevels</effectid>
									<effectcategory>audiolevels</effectcategory>
									<effecttype>audiolevels</effecttype>
									<mediatype>audio</mediatype>
									<parameter authoringApp="PremierePro">
										<parameterid>level</parameterid>
										<name>Level</name>
										<valuemin>0</valuemin>
										<valuemax>3.98109</valuemax>
										<value>0.0498815</value>
										<keyframe>
											<when>631</when>
											<value>0.99763</value>
										</keyframe>
										<keyframe>
											<when>663</when>
											<value>0.0498815</value>
										</keyframe>
									</parameter>
								</effect>
							</filter>
						<logginginfo>
							<description></description>
							<scene></scene>
							<shottake></shottake>
							<lognote></lognote>
						</logginginfo>
						<labels>
							<label2>Iris</label2>
						</labels>
					</clipitem>
					<clipitem id="clipitem-652" premiereChannelType="mono">
						<masterclipid>masterclip-115</masterclipid>
						<name>ENG19-2771.MXF</name>
						<enabled>TRUE</enabled>
						<duration>975</duration>
						<rate>
							<timebase>25</timebase>
							<ntsc>FALSE</ntsc>
						</rate>
						<start>54804</start>
						<end>54941</end>
						<in>200</in>
						<out>337</out>
						<pproTicksIn>2032128000000</pproTicksIn>
						<pproTicksOut>3424135680000</pproTicksOut>
						<file id="file-115"/>
						<sourcetrack>
							<mediatype>audio</mediatype>
							<trackindex>1</trackindex>
						</sourcetrack>
							<filter>
								<effect>
									<name>Audio Levels</name>
									<effectid>audiolevels</effectid>
									<effectcategory>audiolevels</effectcategory>
									<effecttype>audiolevels</effecttype>
									<mediatype>audio</mediatype>
									<parameter authoringApp="PremierePro">
										<parameterid>level</parameterid>
										<name>Level</name>
										<valuemin>0</valuemin>
										<valuemax>3.98109</valuemax>
										<value>0.748223</value>
									</parameter>
								</effect>
							</filter>
						<logginginfo>
							<description></description>
							<scene></scene>
							<shottake></shottake>
							<lognote></lognote>
						</logginginfo>
						<labels>
							<label2>Iris</label2>
						</labels>
					</clipitem>
					<clipitem id="clipitem-653" premiereChannelType="mono">
						<masterclipid>masterclip-115</masterclipid>
						<name>ENG19-2771.MXF</name>
						<enabled>TRUE</enabled>
						<duration>975</duration>
						<rate>
							<timebase>25</timebase>
							<ntsc>FALSE</ntsc>
						</rate>
						<start>54941</start>
						<end>55222</end>
						<in>621</in>
						<out>902</out>
						<pproTicksIn>6309757440000</pproTicksIn>
						<pproTicksOut>9164897280000</pproTicksOut>
						<file id="file-115"/>
						<sourcetrack>
							<mediatype>audio</mediatype>
							<trackindex>1</trackindex>
						</sourcetrack>
							<filter>
								<effect>
									<name>Audio Levels</name>
									<effectid>audiolevels</effectid>
									<effectcategory>audiolevels</effectcategory>
									<effecttype>audiolevels</effecttype>
									<mediatype>audio</mediatype>
									<parameter authoringApp="PremierePro">
										<parameterid>level</parameterid>
										<name>Level</name>
										<valuemin>0</valuemin>
										<valuemax>3.98109</valuemax>
										<value>0</value>
										<keyframe>
											<when>879</when>
											<value>1.19716</value>
										</keyframe>
										<keyframe>
											<when>902</when>
											<value>0</value>
										</keyframe>
									</parameter>
								</effect>
							</filter>
						<logginginfo>
							<description></description>
							<scene></scene>
							<shottake></shottake>
							<lognote></lognote>
						</logginginfo>
						<labels>
							<label2>Iris</label2>
						</labels>
					</clipitem>
					<enabled>TRUE</enabled>
					<locked>FALSE</locked>
					<outputchannelindex>1</outputchannelindex>
				</track>
				<track TL.SQTrackAudioKeyframeStyle="0" TL.SQTrackShy="0" TL.SQTrackExpandedHeight="58" TL.SQTrackExpanded="1" MZ.TrackTargeted="0" PannerCurrentValue="0.5" PannerIsInverted="true" PannerStartKeyframe="-91445760000000000,0.5,0,0,0,0,0,0" PannerName="Balance" currentExplodedTrackIndex="1" totalExplodedTrackCount="2" premiereTrackType="Stereo">
					<clipitem id="clipitem-654" premiereChannelType="stereo">
						<masterclipid>masterclip-1</masterclipid>
						<name>AA265201.MXF</name>
						<enabled>TRUE</enabled>
						<duration>384</duration>
						<rate>
							<timebase>25</timebase>
							<ntsc>FALSE</ntsc>
						</rate>
						<start>0</start>
						<end>109</end>
						<in>125</in>
						<out>234</out>
						<pproTicksIn>1270080000000</pproTicksIn>
						<pproTicksOut>2377589760000</pproTicksOut>
						<file id="file-1"/>
						<sourcetrack>
							<mediatype>audio</mediatype>
							<trackindex>2</trackindex>
						</sourcetrack>
						<link>
							<linkclipref>clipitem-598</linkclipref>
							<mediatype>audio</mediatype>
							<trackindex>3</trackindex>
							<clipindex>1</clipindex>
							<groupindex>1</groupindex>
						</link>
						<link>
							<linkclipref>clipitem-654</linkclipref>
							<mediatype>audio</mediatype>
							<trackindex>4</trackindex>
							<clipindex>1</clipindex>
							<groupindex>1</groupindex>
						</link>
						<logginginfo>
							<description></description>
							<scene></scene>
							<shottake></shottake>
							<lognote></lognote>
						</logginginfo>
						<labels>
							<label2>Iris</label2>
						</labels>
					</clipitem>
					<clipitem id="clipitem-655" premiereChannelType="stereo">
						<masterclipid>masterclip-2</masterclipid>
						<name>AA265301.MXF</name>
						<enabled>TRUE</enabled>
						<duration>840</duration>
						<rate>
							<timebase>25</timebase>
							<ntsc>FALSE</ntsc>
						</rate>
						<start>109</start>
						<end>134</end>
						<in>0</in>
						<out>25</out>
						<pproTicksIn>0</pproTicksIn>
						<pproTicksOut>254016000000</pproTicksOut>
						<file id="file-2"/>
						<sourcetrack>
							<mediatype>audio</mediatype>
							<trackindex>2</trackindex>
						</sourcetrack>
						<link>
							<linkclipref>clipitem-599</linkclipref>
							<mediatype>audio</mediatype>
							<trackindex>3</trackindex>
							<clipindex>2</clipindex>
							<groupindex>1</groupindex>
						</link>
						<link>
							<linkclipref>clipitem-655</linkclipref>
							<mediatype>audio</mediatype>
							<trackindex>4</trackindex>
							<clipindex>2</clipindex>
							<groupindex>1</groupindex>
						</link>
						<logginginfo>
							<description></description>
							<scene></scene>
							<shottake></shottake>
							<lognote></lognote>
						</logginginfo>
						<labels>
							<label2>Iris</label2>
						</labels>
					</clipitem>
					<clipitem id="clipitem-656" premiereChannelType="stereo">
						<masterclipid>masterclip-3</masterclipid>
						<name>AA264901.MXF</name>
						<enabled>TRUE</enabled>
						<duration>780</duration>
						<rate>
							<timebase>25</timebase>
							<ntsc>FALSE</ntsc>
						</rate>
						<start>134</start>
						<end>159</end>
						<in>0</in>
						<out>25</out>
						<pproTicksIn>0</pproTicksIn>
						<pproTicksOut>254016000000</pproTicksOut>
						<file id="file-3"/>
						<sourcetrack>
							<mediatype>audio</mediatype>
							<trackindex>2</trackindex>
						</sourcetrack>
						<link>
							<linkclipref>clipitem-600</linkclipref>
							<mediatype>audio</mediatype>
							<trackindex>3</trackindex>
							<clipindex>3</clipindex>
							<groupindex>1</groupindex>
						</link>
						<link>
							<linkclipref>clipitem-656</linkclipref>
							<mediatype>audio</mediatype>
							<trackindex>4</trackindex>
							<clipindex>3</clipindex>
							<groupindex>1</groupindex>
						</link>
						<logginginfo>
							<description></description>
							<scene></scene>
							<shottake></shottake>
							<lognote></lognote>
						</logginginfo>
						<labels>
							<label2>Iris</label2>
						</labels>
					</clipitem>
					<clipitem id="clipitem-657" premiereChannelType="stereo">
						<masterclipid>masterclip-4</masterclipid>
						<name>AA264401.MXF</name>
						<enabled>TRUE</enabled>
						<duration>756</duration>
						<rate>
							<timebase>25</timebase>
							<ntsc>FALSE</ntsc>
						</rate>
						<start>159</start>
						<end>188</end>
						<in>355</in>
						<out>384</out>
						<pproTicksIn>3607027200000</pproTicksIn>
						<pproTicksOut>3901685760000</pproTicksOut>
						<file id="file-4"/>
						<sourcetrack>
							<mediatype>audio</mediatype>
							<trackindex>2</trackindex>
						</sourcetrack>
						<link>
							<linkclipref>clipitem-601</linkclipref>
							<mediatype>audio</mediatype>
							<trackindex>3</trackindex>
							<clipindex>4</clipindex>
							<groupindex>1</groupindex>
						</link>
						<link>
							<linkclipref>clipitem-657</linkclipref>
							<mediatype>audio</mediatype>
							<trackindex>4</trackindex>
							<clipindex>4</clipindex>
							<groupindex>1</groupindex>
						</link>
						<logginginfo>
							<description></description>
							<scene></scene>
							<shottake></shottake>
							<lognote></lognote>
						</logginginfo>
						<labels>
							<label2>Iris</label2>
						</labels>
					</clipitem>
					<clipitem id="clipitem-658" premiereChannelType="stereo">
						<masterclipid>masterclip-5</masterclipid>
						<name>AA259301.MXF</name>
						<enabled>TRUE</enabled>
						<duration>2340</duration>
						<rate>
							<timebase>25</timebase>
							<ntsc>FALSE</ntsc>
						</rate>
						<start>188</start>
						<end>218</end>
						<in>490</in>
						<out>520</out>
						<pproTicksIn>4978713600000</pproTicksIn>
						<pproTicksOut>5283532800000</pproTicksOut>
						<file id="file-5"/>
						<sourcetrack>
							<mediatype>audio</mediatype>
							<trackindex>2</trackindex>
						</sourcetrack>
						<link>
							<linkclipref>clipitem-602</linkclipref>
							<mediatype>audio</mediatype>
							<trackindex>3</trackindex>
							<clipindex>5</clipindex>
							<groupindex>1</groupindex>
						</link>
						<link>
							<linkclipref>clipitem-658</linkclipref>
							<mediatype>audio</mediatype>
							<trackindex>4</trackindex>
							<clipindex>5</clipindex>
							<groupindex>1</groupindex>
						</link>
						<logginginfo>
							<description></description>
							<scene></scene>
							<shottake></shottake>
							<lognote></lognote>
						</logginginfo>
						<labels>
							<label2>Iris</label2>
						</labels>
					</clipitem>
					<clipitem id="clipitem-659" premiereChannelType="stereo">
						<masterclipid>masterclip-1</masterclipid>
						<name>AA265201.MXF</name>
						<enabled>TRUE</enabled>
						<duration>384</duration>
						<rate>
							<timebase>25</timebase>
							<ntsc>FALSE</ntsc>
						</rate>
						<start>218</start>
						<end>243</end>
						<in>304</in>
						<out>329</out>
						<pproTicksIn>3088834560000</pproTicksIn>
						<pproTicksOut>3342850560000</pproTicksOut>
						<file id="file-1"/>
						<sourcetrack>
							<mediatype>audio</mediatype>
							<trackindex>2</trackindex>
						</sourcetrack>
						<link>
							<linkclipref>clipitem-603</linkclipref>
							<mediatype>audio</mediatype>
							<trackindex>3</trackindex>
							<clipindex>6</clipindex>
							<groupindex>1</groupindex>
						</link>
						<link>
							<linkclipref>clipitem-659</linkclipref>
							<mediatype>audio</mediatype>
							<trackindex>4</trackindex>
							<clipindex>6</clipindex>
							<groupindex>1</groupindex>
						</link>
						<logginginfo>
							<description></description>
							<scene></scene>
							<shottake></shottake>
							<lognote></lognote>
						</logginginfo>
						<labels>
							<label2>Iris</label2>
						</labels>
					</clipitem>
					<clipitem id="clipitem-660" premiereChannelType="stereo">
						<masterclipid>masterclip-6</masterclipid>
						<name>AA259401.MXF</name>
						<enabled>TRUE</enabled>
						<duration>708</duration>
						<rate>
							<timebase>25</timebase>
							<ntsc>FALSE</ntsc>
						</rate>
						<start>243</start>
						<end>272</end>
						<in>24</in>
						<out>53</out>
						<pproTicksIn>243855360000</pproTicksIn>
						<pproTicksOut>538513920000</pproTicksOut>
						<file id="file-6"/>
						<sourcetrack>
							<mediatype>audio</mediatype>
							<trackindex>2</trackindex>
						</sourcetrack>
						<link>
							<linkclipref>clipitem-604</linkclipref>
							<mediatype>audio</mediatype>
							<trackindex>3</trackindex>
							<clipindex>7</clipindex>
							<groupindex>1</groupindex>
						</link>
						<link>
							<linkclipref>clipitem-660</linkclipref>
							<mediatype>audio</mediatype>
							<trackindex>4</trackindex>
							<clipindex>7</clipindex>
							<groupindex>1</groupindex>
						</link>
						<logginginfo>
							<description></description>
							<scene></scene>
							<shottake></shottake>
							<lognote></lognote>
						</logginginfo>
						<labels>
							<label2>Iris</label2>
						</labels>
					</clipitem>
					<clipitem id="clipitem-661" premiereChannelType="stereo">
						<masterclipid>masterclip-7</masterclipid>
						<name>AA264301.MXF</name>
						<enabled>TRUE</enabled>
						<duration>648</duration>
						<rate>
							<timebase>25</timebase>
							<ntsc>FALSE</ntsc>
						</rate>
						<start>272</start>
						<end>301</end>
						<in>0</in>
						<out>29</out>
						<pproTicksIn>0</pproTicksIn>
						<pproTicksOut>294658560000</pproTicksOut>
						<file id="file-7"/>
						<sourcetrack>
							<mediatype>audio</mediatype>
							<trackindex>2</trackindex>
						</sourcetrack>
						<link>
							<linkclipref>clipitem-605</linkclipref>
							<mediatype>audio</mediatype>
							<trackindex>3</trackindex>
							<clipindex>8</clipindex>
							<groupindex>1</groupindex>
						</link>
						<link>
							<linkclipref>clipitem-661</linkclipref>
							<mediatype>audio</mediatype>
							<trackindex>4</trackindex>
							<clipindex>8</clipindex>
							<groupindex>1</groupindex>
						</link>
						<logginginfo>
							<description></description>
							<scene></scene>
							<shottake></shottake>
							<lognote></lognote>
						</logginginfo>
						<labels>
							<label2>Iris</label2>
						</labels>
					</clipitem>
					<clipitem id="clipitem-662" premiereChannelType="stereo">
						<masterclipid>masterclip-8</masterclipid>
						<name>AA259701.MXF</name>
						<enabled>TRUE</enabled>
						<duration>300</duration>
						<rate>
							<timebase>25</timebase>
							<ntsc>FALSE</ntsc>
						</rate>
						<start>301</start>
						<end>409</end>
						<in>29</in>
						<out>137</out>
						<pproTicksIn>294658560000</pproTicksIn>
						<pproTicksOut>1392007680000</pproTicksOut>
						<file id="file-8"/>
						<sourcetrack>
							<mediatype>audio</mediatype>
							<trackindex>2</trackindex>
						</sourcetrack>
						<link>
							<linkclipref>clipitem-606</linkclipref>
							<mediatype>audio</mediatype>
							<trackindex>3</trackindex>
							<clipindex>9</clipindex>
							<groupindex>1</groupindex>
						</link>
						<link>
							<linkclipref>clipitem-662</linkclipref>
							<mediatype>audio</mediatype>
							<trackindex>4</trackindex>
							<clipindex>9</clipindex>
							<groupindex>1</groupindex>
						</link>
						<logginginfo>
							<description></description>
							<scene></scene>
							<shottake></shottake>
							<lognote></lognote>
						</logginginfo>
						<labels>
							<label2>Iris</label2>
						</labels>
					</clipitem>
					<clipitem id="clipitem-663" premiereChannelType="stereo">
						<masterclipid>masterclip-9</masterclipid>
						<name>GOPR9723.MP4</name>
						<enabled>TRUE</enabled>
						<duration>397</duration>
						<rate>
							<timebase>25</timebase>
							<ntsc>FALSE</ntsc>
						</rate>
						<start>409</start>
						<end>435</end>
						<in>25</in>
						<out>51</out>
						<pproTicksIn>772208640000</pproTicksIn>
						<pproTicksOut>1564738560000</pproTicksOut>
						<file id="file-9"/>
						<sourcetrack>
							<mediatype>audio</mediatype>
							<trackindex>2</trackindex>
						</sourcetrack>
							<filter>
								<effect>
									<name>Time Remap</name>
									<effectid>timeremap</effectid>
									<effectcategory>motion</effectcategory>
									<effecttype>motion</effecttype>
									<mediatype>audio</mediatype>
									<parameter authoringApp="PremierePro">
										<parameterid>variablespeed</parameterid>
										<name>variablespeed</name>
										<valuemin>0</valuemin>
										<valuemax>1</valuemax>
										<value>0</value>
									</parameter>
									<parameter authoringApp="PremierePro">
										<parameterid>speed</parameterid>
										<name>speed</name>
										<valuemin>-100000</valuemin>
										<valuemax>100000</valuemax>
										<value>300</value>
									</parameter>
									<parameter authoringApp="PremierePro">
										<parameterid>reverse</parameterid>
										<name>reverse</name>
										<value>FALSE</value>
									</parameter>
									<parameter authoringApp="PremierePro">
										<parameterid>frameblending</parameterid>
										<name>frameblending</name>
										<value>FALSE</value>
									</parameter>
									<parameter authoringApp="PremierePro">
										<parameterid>graphdict</parameterid>
										<name>graphdict</name>
										<valuemin>0</valuemin>
										<valuemax>1191</valuemax>
										<value>0</value>
										<keyframe>
											<when>0</when>
											<value>0</value>
											<speedvirtualkf>TRUE</speedvirtualkf>
											<speedkfstart>TRUE</speedkfstart>
										</keyframe>
										<keyframe>
											<when>25</when>
											<value>75</value>
											<speedvirtualkf>TRUE</speedvirtualkf>
											<speedkfin>TRUE</speedkfin>
										</keyframe>
										<keyframe>
											<when>51</when>
											<value>153</value>
											<speedvirtualkf>TRUE</speedvirtualkf>
											<speedkfout>TRUE</speedkfout>
										</keyframe>
										<keyframe>
											<when>397</when>
											<value>1191</value>
											<speedvirtualkf>TRUE</speedvirtualkf>
											<speedkfend>TRUE</speedkfend>
										</keyframe>
										<interpolation>
											<name>FCPCurve</name>
										</interpolation>
									</parameter>
								</effect>
							</filter>
						<link>
							<linkclipref>clipitem-607</linkclipref>
							<mediatype>audio</mediatype>
							<trackindex>3</trackindex>
							<clipindex>10</clipindex>
							<groupindex>1</groupindex>
						</link>
						<link>
							<linkclipref>clipitem-663</linkclipref>
							<mediatype>audio</mediatype>
							<trackindex>4</trackindex>
							<clipindex>10</clipindex>
							<groupindex>1</groupindex>
						</link>
						<logginginfo>
							<description></description>
							<scene></scene>
							<shottake></shottake>
							<lognote></lognote>
						</logginginfo>
						<labels>
							<label2>Iris</label2>
						</labels>
					</clipitem>
					<enabled>TRUE</enabled>
					<locked>FALSE</locked>
					<outputchannelindex>2</outputchannelindex>
				</track>
				<track TL.SQTrackAudioKeyframeStyle="0" TL.SQTrackShy="0" TL.SQTrackExpandedHeight="58" TL.SQTrackExpanded="1" MZ.TrackTargeted="0" PannerCurrentValue="0.5" PannerIsInverted="true" PannerStartKeyframe="-91445760000000000,0.5,0,0,0,0,0,0" PannerName="Balance" currentExplodedTrackIndex="0" totalExplodedTrackCount="2" premiereTrackType="Stereo">
					<clipitem id="clipitem-664" premiereChannelType="stereo">
						<masterclipid>masterclip-9</masterclipid>
						<name>GOPR9723.MP4</name>
						<enabled>TRUE</enabled>
						<duration>1191</duration>
						<rate>
							<timebase>25</timebase>
							<ntsc>FALSE</ntsc>
						</rate>
						<start>435</start>
						<end>486</end>
						<in>153</in>
						<out>204</out>
						<pproTicksIn>1554577920000</pproTicksIn>
						<pproTicksOut>2072770560000</pproTicksOut>
						<file id="file-9"/>
						<sourcetrack>
							<mediatype>audio</mediatype>
							<trackindex>1</trackindex>
						</sourcetrack>
						<link>
							<linkclipref>clipitem-257</linkclipref>
							<mediatype>video</mediatype>
							<trackindex>2</trackindex>
							<clipindex>1</clipindex>
						</link>
						<link>
							<linkclipref>clipitem-664</linkclipref>
							<mediatype>audio</mediatype>
							<trackindex>5</trackindex>
							<clipindex>1</clipindex>
							<groupindex>1</groupindex>
						</link>
						<link>
							<linkclipref>clipitem-694</linkclipref>
							<mediatype>audio</mediatype>
							<trackindex>6</trackindex>
							<clipindex>1</clipindex>
							<groupindex>1</groupindex>
						</link>
						<logginginfo>
							<description></description>
							<scene></scene>
							<shottake></shottake>
							<lognote></lognote>
						</logginginfo>
						<labels>
							<label2>Iris</label2>
						</labels>
					</clipitem>
					<clipitem id="clipitem-665" premiereChannelType="mono">
						<masterclipid>masterclip-188</masterclipid>
						<name>delfin-191016-2004.mxf</name>
						<enabled>TRUE</enabled>
						<duration>241</duration>
						<rate>
							<timebase>25</timebase>
							<ntsc>FALSE</ntsc>
						</rate>
						<start>11196</start>
						<end>11316</end>
						<in>25</in>
						<out>145</out>
						<pproTicksIn>254016000000</pproTicksIn>
						<pproTicksOut>1473292800000</pproTicksOut>
						<file id="file-188"/>
						<sourcetrack>
							<mediatype>audio</mediatype>
							<trackindex>3</trackindex>
						</sourcetrack>
						<link>
							<linkclipref>clipitem-281</linkclipref>
							<mediatype>video</mediatype>
							<trackindex>2</trackindex>
							<clipindex>25</clipindex>
						</link>
						<link>
							<linkclipref>clipitem-515</linkclipref>
							<mediatype>audio</mediatype>
							<trackindex>1</trackindex>
							<clipindex>11</clipindex>
							<groupindex>1</groupindex>
						</link>
						<link>
							<linkclipref>clipitem-608</linkclipref>
							<mediatype>audio</mediatype>
							<trackindex>3</trackindex>
							<clipindex>11</clipindex>
							<groupindex>1</groupindex>
						</link>
						<link>
							<linkclipref>clipitem-665</linkclipref>
							<mediatype>audio</mediatype>
							<trackindex>5</trackindex>
							<clipindex>2</clipindex>
							<groupindex>1</groupindex>
						</link>
						<link>
							<linkclipref>clipitem-695</linkclipref>
							<mediatype>audio</mediatype>
							<trackindex>7</trackindex>
							<clipindex>1</clipindex>
							<groupindex>1</groupindex>
						</link>
						<logginginfo>
							<description></description>
							<scene></scene>
							<shottake></shottake>
							<lognote></lognote>
						</logginginfo>
						<labels>
							<label2>Iris</label2>
						</labels>
					</clipitem>
					<transitionitem>
						<start>11316</start>
						<end>11329</end>
						<alignment>start-black</alignment>
						<cutPointTicks>0</cutPointTicks>
						<rate>
							<timebase>25</timebase>
							<ntsc>FALSE</ntsc>
						</rate>
						<effect>
							<name>Cross Fade (+3dB)</name>
							<effectid>KGAudioTransCrossFade3dB</effectid>
							<effecttype>transition</effecttype>
							<mediatype>audio</mediatype>
							<wipecode>0</wipecode>
							<wipeaccuracy>100</wipeaccuracy>
							<startratio>0</startratio>
							<endratio>1</endratio>
							<reverse>FALSE</reverse>
						</effect>
					</transitionitem>
					<clipitem id="clipitem-666" premiereChannelType="mono">
						<masterclipid>masterclip-31</masterclipid>
						<name>delfin-191016-2006.mxf</name>
						<enabled>TRUE</enabled>
						<duration>1160</duration>
						<rate>
							<timebase>25</timebase>
							<ntsc>FALSE</ntsc>
						</rate>
						<start>-1</start>
						<end>12420</end>
						<in>31</in>
						<out>1135</out>
						<pproTicksIn>314979840000</pproTicksIn>
						<pproTicksOut>11532326400000</pproTicksOut>
						<file id="file-31"/>
						<sourcetrack>
							<mediatype>audio</mediatype>
							<trackindex>4</trackindex>
						</sourcetrack>
							<filter>
								<effect>
									<name>Audio Levels</name>
									<effectid>audiolevels</effectid>
									<effectcategory>audiolevels</effectcategory>
									<effecttype>audiolevels</effecttype>
									<mediatype>audio</mediatype>
									<parameter authoringApp="PremierePro">
										<parameterid>level</parameterid>
										<name>Level</name>
										<valuemin>0</valuemin>
										<valuemax>3.98109</valuemax>
										<value>0.62538</value>
										<keyframe>
											<when>56</when>
											<value>0.58071</value>
										</keyframe>
										<keyframe>
											<when>61</when>
											<value>0.05956</value>
										</keyframe>
										<keyframe>
											<when>283</when>
											<value>0</value>
										</keyframe>
										<keyframe>
											<when>296</when>
											<value>0.573541</value>
										</keyframe>
										<keyframe>
											<when>541</when>
											<value>0.573541</value>
										</keyframe>
										<keyframe>
											<when>569</when>
											<value>0</value>
										</keyframe>
										<keyframe>
											<when>875</when>
											<value>0</value>
										</keyframe>
										<keyframe>
											<when>881</when>
											<value>0.65516</value>
										</keyframe>
										<keyframe>
											<when>911</when>
											<value>0.65516</value>
										</keyframe>
										<keyframe>
											<when>919</when>
											<value>0</value>
										</keyframe>
										<keyframe>
											<when>1081</when>
											<value>0</value>
										</keyframe>
										<keyframe>
											<when>1092</when>
											<value>0.62538</value>
										</keyframe>
									</parameter>
								</effect>
							</filter>
						<logginginfo>
							<description></description>
							<scene></scene>
							<shottake></shottake>
							<lognote></lognote>
						</logginginfo>
						<labels>
							<label2>Iris</label2>
						</labels>
					</clipitem>
					<clipitem id="clipitem-667" premiereChannelType="mono">
						<masterclipid>masterclip-32</masterclipid>
						<name>delfin-191016-2008.mxf</name>
						<enabled>TRUE</enabled>
						<duration>123</duration>
						<rate>
							<timebase>25</timebase>
							<ntsc>FALSE</ntsc>
						</rate>
						<start>12420</start>
						<end>12493</end>
						<in>25</in>
						<out>98</out>
						<pproTicksIn>254016000000</pproTicksIn>
						<pproTicksOut>995742720000</pproTicksOut>
						<file id="file-32"/>
						<sourcetrack>
							<mediatype>audio</mediatype>
							<trackindex>3</trackindex>
						</sourcetrack>
							<filter>
								<effect>
									<name>Audio Levels</name>
									<effectid>audiolevels</effectid>
									<effectcategory>audiolevels</effectcategory>
									<effecttype>audiolevels</effecttype>
									<mediatype>audio</mediatype>
									<parameter authoringApp="PremierePro">
										<parameterid>level</parameterid>
										<name>Level</name>
										<valuemin>0</valuemin>
										<valuemax>3.98109</valuemax>
										<value>0.0875114</value>
										<keyframe>
											<when>1</when>
											<value>0.99763</value>
										</keyframe>
										<keyframe>
											<when>36</when>
											<value>0.0875114</value>
										</keyframe>
									</parameter>
								</effect>
							</filter>
						<link>
							<linkclipref>clipitem-42</linkclipref>
							<mediatype>video</mediatype>
							<trackindex>1</trackindex>
							<clipindex>42</clipindex>
						</link>
						<link>
							<linkclipref>clipitem-517</linkclipref>
							<mediatype>audio</mediatype>
							<trackindex>1</trackindex>
							<clipindex>14</clipindex>
							<groupindex>1</groupindex>
						</link>
						<link>
							<linkclipref>clipitem-610</linkclipref>
							<mediatype>audio</mediatype>
							<trackindex>3</trackindex>
							<clipindex>14</clipindex>
							<groupindex>1</groupindex>
						</link>
						<link>
							<linkclipref>clipitem-667</linkclipref>
							<mediatype>audio</mediatype>
							<trackindex>5</trackindex>
							<clipindex>5</clipindex>
							<groupindex>1</groupindex>
						</link>
						<link>
							<linkclipref>clipitem-696</linkclipref>
							<mediatype>audio</mediatype>
							<trackindex>7</trackindex>
							<clipindex>2</clipindex>
							<groupindex>1</groupindex>
						</link>
						<logginginfo>
							<description></description>
							<scene></scene>
							<shottake></shottake>
							<lognote></lognote>
						</logginginfo>
						<labels>
							<label2>Iris</label2>
						</labels>
					</clipitem>
					<clipitem id="clipitem-668" premiereChannelType="mono">
						<masterclipid>masterclip-33</masterclipid>
						<name>delfin-191016-2013.mxf</name>
						<enabled>TRUE</enabled>
						<duration>106</duration>
						<rate>
							<timebase>25</timebase>
							<ntsc>FALSE</ntsc>
						</rate>
						<start>12493</start>
						<end>12549</end>
						<in>25</in>
						<out>81</out>
						<pproTicksIn>254016000000</pproTicksIn>
						<pproTicksOut>823011840000</pproTicksOut>
						<file id="file-33"/>
						<sourcetrack>
							<mediatype>audio</mediatype>
							<trackindex>3</trackindex>
						</sourcetrack>
							<filter>
								<effect>
									<name>Audio Levels</name>
									<effectid>audiolevels</effectid>
									<effectcategory>audiolevels</effectcategory>
									<effecttype>audiolevels</effecttype>
									<mediatype>audio</mediatype>
									<parameter authoringApp="PremierePro">
										<parameterid>level</parameterid>
										<name>Level</name>
										<valuemin>0</valuemin>
										<valuemax>3.98109</valuemax>
										<value>0.026963</value>
									</parameter>
								</effect>
							</filter>
						<link>
							<linkclipref>clipitem-43</linkclipref>
							<mediatype>video</mediatype>
							<trackindex>1</trackindex>
							<clipindex>43</clipindex>
						</link>
						<link>
							<linkclipref>clipitem-518</linkclipref>
							<mediatype>audio</mediatype>
							<trackindex>1</trackindex>
							<clipindex>15</clipindex>
							<groupindex>1</groupindex>
						</link>
						<link>
							<linkclipref>clipitem-611</linkclipref>
							<mediatype>audio</mediatype>
							<trackindex>3</trackindex>
							<clipindex>15</clipindex>
							<groupindex>1</groupindex>
						</link>
						<link>
							<linkclipref>clipitem-668</linkclipref>
							<mediatype>audio</mediatype>
							<trackindex>5</trackindex>
							<clipindex>6</clipindex>
							<groupindex>1</groupindex>
						</link>
						<link>
							<linkclipref>clipitem-697</linkclipref>
							<mediatype>audio</mediatype>
							<trackindex>7</trackindex>
							<clipindex>3</clipindex>
							<groupindex>1</groupindex>
						</link>
						<logginginfo>
							<description></description>
							<scene></scene>
							<shottake></shottake>
							<lognote></lognote>
						</logginginfo>
						<labels>
							<label2>Iris</label2>
						</labels>
					</clipitem>
					<clipitem id="clipitem-669" premiereChannelType="mono">
						<masterclipid>masterclip-34</masterclipid>
						<name>delfin-191016-2014.mxf</name>
						<enabled>TRUE</enabled>
						<duration>100</duration>
						<rate>
							<timebase>25</timebase>
							<ntsc>FALSE</ntsc>
						</rate>
						<start>12549</start>
						<end>12599</end>
						<in>25</in>
						<out>75</out>
						<pproTicksIn>254016000000</pproTicksIn>
						<pproTicksOut>762048000000</pproTicksOut>
						<file id="file-34"/>
						<sourcetrack>
							<mediatype>audio</mediatype>
							<trackindex>3</trackindex>
						</sourcetrack>
							<filter>
								<effect>
									<name>Audio Levels</name>
									<effectid>audiolevels</effectid>
									<effectcategory>audiolevels</effectcategory>
									<effecttype>audiolevels</effecttype>
									<mediatype>audio</mediatype>
									<parameter authoringApp="PremierePro">
										<parameterid>level</parameterid>
										<name>Level</name>
										<valuemin>0</valuemin>
										<valuemax>3.98109</valuemax>
										<value>0.026963</value>
									</parameter>
								</effect>
							</filter>
						<link>
							<linkclipref>clipitem-44</linkclipref>
							<mediatype>video</mediatype>
							<trackindex>1</trackindex>
							<clipindex>44</clipindex>
						</link>
						<link>
							<linkclipref>clipitem-519</linkclipref>
							<mediatype>audio</mediatype>
							<trackindex>1</trackindex>
							<clipindex>16</clipindex>
							<groupindex>1</groupindex>
						</link>
						<link>
							<linkclipref>clipitem-612</linkclipref>
							<mediatype>audio</mediatype>
							<trackindex>3</trackindex>
							<clipindex>16</clipindex>
							<groupindex>1</groupindex>
						</link>
						<link>
							<linkclipref>clipitem-669</linkclipref>
							<mediatype>audio</mediatype>
							<trackindex>5</trackindex>
							<clipindex>7</clipindex>
							<groupindex>1</groupindex>
						</link>
						<link>
							<linkclipref>clipitem-698</linkclipref>
							<mediatype>audio</mediatype>
							<trackindex>7</trackindex>
							<clipindex>4</clipindex>
							<groupindex>1</groupindex>
						</link>
						<logginginfo>
							<description></description>
							<scene></scene>
							<shottake></shottake>
							<lognote></lognote>
						</logginginfo>
						<labels>
							<label2>Iris</label2>
						</labels>
					</clipitem>
					<clipitem id="clipitem-670" premiereChannelType="mono">
						<masterclipid>masterclip-35</masterclipid>
						<name>delfin-191016-2012.mxf</name>
						<enabled>TRUE</enabled>
						<duration>126</duration>
						<rate>
							<timebase>25</timebase>
							<ntsc>FALSE</ntsc>
						</rate>
						<start>12599</start>
						<end>-1</end>
						<in>25</in>
						<out>101</out>
						<pproTicksIn>254016000000</pproTicksIn>
						<pproTicksOut>1026224640000</pproTicksOut>
						<file id="file-35"/>
						<sourcetrack>
							<mediatype>audio</mediatype>
							<trackindex>3</trackindex>
						</sourcetrack>
							<filter>
								<effect>
									<name>Audio Levels</name>
									<effectid>audiolevels</effectid>
									<effectcategory>audiolevels</effectcategory>
									<effecttype>audiolevels</effecttype>
									<mediatype>audio</mediatype>
									<parameter authoringApp="PremierePro">
										<parameterid>level</parameterid>
										<name>Level</name>
										<valuemin>0</valuemin>
										<valuemax>3.98109</valuemax>
										<value>0.0808889</value>
									</parameter>
								</effect>
							</filter>
						<link>
							<linkclipref>clipitem-45</linkclipref>
							<mediatype>video</mediatype>
							<trackindex>1</trackindex>
							<clipindex>45</clipindex>
						</link>
						<link>
							<linkclipref>clipitem-520</linkclipref>
							<mediatype>audio</mediatype>
							<trackindex>1</trackindex>
							<clipindex>17</clipindex>
							<groupindex>1</groupindex>
						</link>
						<link>
							<linkclipref>clipitem-613</linkclipref>
							<mediatype>audio</mediatype>
							<trackindex>3</trackindex>
							<clipindex>17</clipindex>
							<groupindex>1</groupindex>
						</link>
						<link>
							<linkclipref>clipitem-670</linkclipref>
							<mediatype>audio</mediatype>
							<trackindex>5</trackindex>
							<clipindex>8</clipindex>
							<groupindex>1</groupindex>
						</link>
						<link>
							<linkclipref>clipitem-699</linkclipref>
							<mediatype>audio</mediatype>
							<trackindex>7</trackindex>
							<clipindex>5</clipindex>
							<groupindex>1</groupindex>
						</link>
						<logginginfo>
							<description></description>
							<scene></scene>
							<shottake></shottake>
							<lognote></lognote>
						</logginginfo>
						<labels>
							<label2>Iris</label2>
						</labels>
					</clipitem>
					<transitionitem>
						<start>12662</start>
						<end>12675</end>
						<alignment>center</alignment>
						<cutPointTicks>60963840000</cutPointTicks>
						<rate>
							<timebase>25</timebase>
							<ntsc>FALSE</ntsc>
						</rate>
						<effect>
							<name>Cross Fade (+3dB)</name>
							<effectid>KGAudioTransCrossFade3dB</effectid>
							<effecttype>transition</effecttype>
							<mediatype>audio</mediatype>
							<wipecode>0</wipecode>
							<wipeaccuracy>100</wipeaccuracy>
							<startratio>0</startratio>
							<endratio>1</endratio>
							<reverse>FALSE</reverse>
						</effect>
					</transitionitem>
					<clipitem id="clipitem-671" premiereChannelType="mono">
						<masterclipid>masterclip-36</masterclipid>
						<name>delfin-191016-2016.mxf</name>
						<enabled>TRUE</enabled>
						<duration>804</duration>
						<rate>
							<timebase>25</timebase>
							<ntsc>FALSE</ntsc>
						</rate>
						<start>-1</start>
						<end>13416</end>
						<in>25</in>
						<out>779</out>
						<pproTicksIn>254016000000</pproTicksIn>
						<pproTicksOut>7915138560000</pproTicksOut>
						<file id="file-36"/>
						<sourcetrack>
							<mediatype>audio</mediatype>
							<trackindex>4</trackindex>
						</sourcetrack>
							<filter>
								<effect>
									<name>Audio Levels</name>
									<effectid>audiolevels</effectid>
									<effectcategory>audiolevels</effectcategory>
									<effecttype>audiolevels</effecttype>
									<mediatype>audio</mediatype>
									<parameter authoringApp="PremierePro">
										<parameterid>level</parameterid>
										<name>Level</name>
										<valuemin>0</valuemin>
										<valuemax>3.98109</valuemax>
										<value>0</value>
										<keyframe>
											<when>107</when>
											<value>0.99763</value>
										</keyframe>
										<keyframe>
											<when>121</when>
											<value>0</value>
										</keyframe>
										<keyframe>
											<when>227</when>
											<value>0</value>
										</keyframe>
										<keyframe>
											<when>232</when>
											<value>0.886782</value>
										</keyframe>
										<keyframe>
											<when>242</when>
											<value>0.886782</value>
										</keyframe>
										<keyframe>
											<when>249</when>
											<value>0</value>
										</keyframe>
										<keyframe>
											<when>600</when>
											<value>0</value>
										</keyframe>
										<keyframe>
											<when>617</when>
											<value>0.591188</value>
										</keyframe>
										<keyframe>
											<when>673</when>
											<value>0.591188</value>
										</keyframe>
										<keyframe>
											<when>700</when>
											<value>0</value>
										</keyframe>
									</parameter>
								</effect>
							</filter>
						<link>
							<linkclipref>clipitem-46</linkclipref>
							<mediatype>video</mediatype>
							<trackindex>1</trackindex>
							<clipindex>46</clipindex>
						</link>
						<link>
							<linkclipref>clipitem-521</linkclipref>
							<mediatype>audio</mediatype>
							<trackindex>1</trackindex>
							<clipindex>19</clipindex>
							<groupindex>1</groupindex>
						</link>
						<link>
							<linkclipref>clipitem-614</linkclipref>
							<mediatype>audio</mediatype>
							<trackindex>3</trackindex>
							<clipindex>19</clipindex>
							<groupindex>1</groupindex>
						</link>
						<link>
							<linkclipref>clipitem-671</linkclipref>
							<mediatype>audio</mediatype>
							<trackindex>5</trackindex>
							<clipindex>10</clipindex>
							<groupindex>1</groupindex>
						</link>
						<logginginfo>
							<description></description>
							<scene></scene>
							<shottake></shottake>
							<lognote></lognote>
						</logginginfo>
						<labels>
							<label2>Iris</label2>
						</labels>
					</clipitem>
					<transitionitem>
						<start>13509</start>
						<end>13522</end>
						<alignment>start-black</alignment>
						<cutPointTicks>0</cutPointTicks>
						<rate>
							<timebase>25</timebase>
							<ntsc>FALSE</ntsc>
						</rate>
						<effect>
							<name>Cross Fade (+3dB)</name>
							<effectid>KGAudioTransCrossFade3dB</effectid>
							<effecttype>transition</effecttype>
							<mediatype>audio</mediatype>
							<wipecode>0</wipecode>
							<wipeaccuracy>100</wipeaccuracy>
							<startratio>0</startratio>
							<endratio>1</endratio>
							<reverse>FALSE</reverse>
						</effect>
					</transitionitem>
					<clipitem id="clipitem-672" premiereChannelType="mono">
						<masterclipid>masterclip-37</masterclipid>
						<name>delfin-191016-2016.mxf</name>
						<enabled>TRUE</enabled>
						<duration>248</duration>
						<rate>
							<timebase>25</timebase>
							<ntsc>FALSE</ntsc>
						</rate>
						<start>-1</start>
						<end>-1</end>
						<in>25</in>
						<out>228</out>
						<pproTicksIn>254016000000</pproTicksIn>
						<pproTicksOut>2316625920000</pproTicksOut>
						<file id="file-37"/>
						<sourcetrack>
							<mediatype>audio</mediatype>
							<trackindex>4</trackindex>
						</sourcetrack>
							<filter>
								<effect>
									<name>Audio Levels</name>
									<effectid>audiolevels</effectid>
									<effectcategory>audiolevels</effectcategory>
									<effecttype>audiolevels</effecttype>
									<mediatype>audio</mediatype>
									<parameter authoringApp="PremierePro">
										<parameterid>level</parameterid>
										<name>Level</name>
										<valuemin>0</valuemin>
										<valuemax>3.98109</valuemax>
										<value>0</value>
										<keyframe>
											<when>81</when>
											<value>0.99763</value>
										</keyframe>
										<keyframe>
											<when>87</when>
											<value>0</value>
										</keyframe>
										<keyframe>
											<when>113</when>
											<value>0</value>
										</keyframe>
										<keyframe>
											<when>119</when>
											<value>0.886782</value>
										</keyframe>
										<keyframe>
											<when>179</when>
											<value>0.886782</value>
										</keyframe>
										<keyframe>
											<when>187</when>
											<value>0</value>
										</keyframe>
									</parameter>
								</effect>
							</filter>
						<link>
							<linkclipref>clipitem-48</linkclipref>
							<mediatype>video</mediatype>
							<trackindex>1</trackindex>
							<clipindex>48</clipindex>
						</link>
						<link>
							<linkclipref>clipitem-522</linkclipref>
							<mediatype>audio</mediatype>
							<trackindex>1</trackindex>
							<clipindex>21</clipindex>
							<groupindex>1</groupindex>
						</link>
						<link>
							<linkclipref>clipitem-615</linkclipref>
							<mediatype>audio</mediatype>
							<trackindex>3</trackindex>
							<clipindex>21</clipindex>
							<groupindex>1</groupindex>
						</link>
						<link>
							<linkclipref>clipitem-672</linkclipref>
							<mediatype>audio</mediatype>
							<trackindex>5</trackindex>
							<clipindex>12</clipindex>
							<groupindex>1</groupindex>
						</link>
						<logginginfo>
							<description></description>
							<scene></scene>
							<shottake></shottake>
							<lognote></lognote>
						</logginginfo>
						<labels>
							<label2>Iris</label2>
						</labels>
					</clipitem>
					<transitionitem>
						<start>13707</start>
						<end>13712</end>
						<alignment>start</alignment>
						<cutPointTicks>0</cutPointTicks>
						<rate>
							<timebase>25</timebase>
							<ntsc>FALSE</ntsc>
						</rate>
						<effect>
							<name>Cross Fade (+3dB)</name>
							<effectid>KGAudioTransCrossFade3dB</effectid>
							<effecttype>transition</effecttype>
							<mediatype>audio</mediatype>
							<wipecode>0</wipecode>
							<wipeaccuracy>100</wipeaccuracy>
							<startratio>0</startratio>
							<endratio>1</endratio>
							<reverse>FALSE</reverse>
						</effect>
					</transitionitem>
					<clipitem id="clipitem-673" premiereChannelType="mono">
						<masterclipid>masterclip-38</masterclipid>
						<name>delfin-191016-2016.mxf</name>
						<enabled>TRUE</enabled>
						<duration>513</duration>
						<rate>
							<timebase>25</timebase>
							<ntsc>FALSE</ntsc>
						</rate>
						<start>-1</start>
						<end>14170</end>
						<in>25</in>
						<out>488</out>
						<pproTicksIn>254016000000</pproTicksIn>
						<pproTicksOut>4958392320000</pproTicksOut>
						<file id="file-38"/>
						<sourcetrack>
							<mediatype>audio</mediatype>
							<trackindex>4</trackindex>
						</sourcetrack>
							<filter>
								<effect>
									<name>Audio Levels</name>
									<effectid>audiolevels</effectid>
									<effectcategory>audiolevels</effectcategory>
									<effecttype>audiolevels</effecttype>
									<mediatype>audio</mediatype>
									<parameter authoringApp="PremierePro">
										<parameterid>level</parameterid>
										<name>Level</name>
										<valuemin>0</valuemin>
										<valuemax>3.98109</valuemax>
										<value>0</value>
									</parameter>
								</effect>
							</filter>
						<link>
							<linkclipref>clipitem-49</linkclipref>
							<mediatype>video</mediatype>
							<trackindex>1</trackindex>
							<clipindex>49</clipindex>
						</link>
						<link>
							<linkclipref>clipitem-523</linkclipref>
							<mediatype>audio</mediatype>
							<trackindex>1</trackindex>
							<clipindex>22</clipindex>
							<groupindex>1</groupindex>
						</link>
						<link>
							<linkclipref>clipitem-616</linkclipref>
							<mediatype>audio</mediatype>
							<trackindex>3</trackindex>
							<clipindex>22</clipindex>
							<groupindex>1</groupindex>
						</link>
						<link>
							<linkclipref>clipitem-673</linkclipref>
							<mediatype>audio</mediatype>
							<trackindex>5</trackindex>
							<clipindex>14</clipindex>
							<groupindex>1</groupindex>
						</link>
						<logginginfo>
							<description></description>
							<scene></scene>
							<shottake></shottake>
							<lognote></lognote>
						</logginginfo>
						<labels>
							<label2>Iris</label2>
						</labels>
					</clipitem>
					<clipitem id="clipitem-674" premiereChannelType="mono">
						<masterclipid>masterclip-39</masterclipid>
						<name>delfin-191016-2017.mxf</name>
						<enabled>TRUE</enabled>
						<duration>130</duration>
						<rate>
							<timebase>25</timebase>
							<ntsc>FALSE</ntsc>
						</rate>
						<start>14170</start>
						<end>14250</end>
						<in>25</in>
						<out>105</out>
						<pproTicksIn>254016000000</pproTicksIn>
						<pproTicksOut>1066867200000</pproTicksOut>
						<file id="file-39"/>
						<sourcetrack>
							<mediatype>audio</mediatype>
							<trackindex>3</trackindex>
						</sourcetrack>
							<filter>
								<effect>
									<name>Audio Levels</name>
									<effectid>audiolevels</effectid>
									<effectcategory>audiolevels</effectcategory>
									<effecttype>audiolevels</effecttype>
									<mediatype>audio</mediatype>
									<parameter authoringApp="PremierePro">
										<parameterid>level</parameterid>
										<name>Level</name>
										<valuemin>0</valuemin>
										<valuemax>3.98109</valuemax>
										<value>0.27594</value>
									</parameter>
								</effect>
							</filter>
						<link>
							<linkclipref>clipitem-50</linkclipref>
							<mediatype>video</mediatype>
							<trackindex>1</trackindex>
							<clipindex>50</clipindex>
						</link>
						<link>
							<linkclipref>clipitem-524</linkclipref>
							<mediatype>audio</mediatype>
							<trackindex>1</trackindex>
							<clipindex>23</clipindex>
							<groupindex>1</groupindex>
						</link>
						<link>
							<linkclipref>clipitem-617</linkclipref>
							<mediatype>audio</mediatype>
							<trackindex>3</trackindex>
							<clipindex>23</clipindex>
							<groupindex>1</groupindex>
						</link>
						<link>
							<linkclipref>clipitem-674</linkclipref>
							<mediatype>audio</mediatype>
							<trackindex>5</trackindex>
							<clipindex>15</clipindex>
							<groupindex>1</groupindex>
						</link>
						<link>
							<linkclipref>clipitem-700</linkclipref>
							<mediatype>audio</mediatype>
							<trackindex>7</trackindex>
							<clipindex>6</clipindex>
							<groupindex>1</groupindex>
						</link>
						<logginginfo>
							<description></description>
							<scene></scene>
							<shottake></shottake>
							<lognote></lognote>
						</logginginfo>
						<labels>
							<label2>Iris</label2>
						</labels>
					</clipitem>
					<clipitem id="clipitem-675" premiereChannelType="mono">
						<masterclipid>masterclip-40</masterclipid>
						<name>delfin-191016-2017.mxf</name>
						<enabled>TRUE</enabled>
						<duration>128</duration>
						<rate>
							<timebase>25</timebase>
							<ntsc>FALSE</ntsc>
						</rate>
						<start>14250</start>
						<end>14328</end>
						<in>25</in>
						<out>103</out>
						<pproTicksIn>254016000000</pproTicksIn>
						<pproTicksOut>1046545920000</pproTicksOut>
						<file id="file-40"/>
						<sourcetrack>
							<mediatype>audio</mediatype>
							<trackindex>3</trackindex>
						</sourcetrack>
							<filter>
								<effect>
									<name>Audio Levels</name>
									<effectid>audiolevels</effectid>
									<effectcategory>audiolevels</effectcategory>
									<effecttype>audiolevels</effecttype>
									<mediatype>audio</mediatype>
									<parameter authoringApp="PremierePro">
										<parameterid>level</parameterid>
										<name>Level</name>
										<valuemin>0</valuemin>
										<valuemax>3.98109</valuemax>
										<value>0.27594</value>
									</parameter>
								</effect>
							</filter>
						<link>
							<linkclipref>clipitem-51</linkclipref>
							<mediatype>video</mediatype>
							<trackindex>1</trackindex>
							<clipindex>51</clipindex>
						</link>
						<link>
							<linkclipref>clipitem-525</linkclipref>
							<mediatype>audio</mediatype>
							<trackindex>1</trackindex>
							<clipindex>24</clipindex>
							<groupindex>1</groupindex>
						</link>
						<link>
							<linkclipref>clipitem-618</linkclipref>
							<mediatype>audio</mediatype>
							<trackindex>3</trackindex>
							<clipindex>24</clipindex>
							<groupindex>1</groupindex>
						</link>
						<link>
							<linkclipref>clipitem-675</linkclipref>
							<mediatype>audio</mediatype>
							<trackindex>5</trackindex>
							<clipindex>16</clipindex>
							<groupindex>1</groupindex>
						</link>
						<link>
							<linkclipref>clipitem-701</linkclipref>
							<mediatype>audio</mediatype>
							<trackindex>7</trackindex>
							<clipindex>7</clipindex>
							<groupindex>1</groupindex>
						</link>
						<logginginfo>
							<description></description>
							<scene></scene>
							<shottake></shottake>
							<lognote></lognote>
						</logginginfo>
						<labels>
							<label2>Iris</label2>
						</labels>
					</clipitem>
					<clipitem id="clipitem-676" premiereChannelType="mono">
						<masterclipid>masterclip-41</masterclipid>
						<name>delfin-191016-2017.mxf</name>
						<enabled>TRUE</enabled>
						<duration>200</duration>
						<rate>
							<timebase>25</timebase>
							<ntsc>FALSE</ntsc>
						</rate>
						<start>14328</start>
						<end>14478</end>
						<in>25</in>
						<out>175</out>
						<pproTicksIn>254016000000</pproTicksIn>
						<pproTicksOut>1778112000000</pproTicksOut>
						<file id="file-41"/>
						<sourcetrack>
							<mediatype>audio</mediatype>
							<trackindex>3</trackindex>
						</sourcetrack>
							<filter>
								<effect>
									<name>Audio Levels</name>
									<effectid>audiolevels</effectid>
									<effectcategory>audiolevels</effectcategory>
									<effecttype>audiolevels</effecttype>
									<mediatype>audio</mediatype>
									<parameter authoringApp="PremierePro">
										<parameterid>level</parameterid>
										<name>Level</name>
										<valuemin>0</valuemin>
										<valuemax>3.98109</valuemax>
										<value>0</value>
									</parameter>
								</effect>
							</filter>
						<link>
							<linkclipref>clipitem-52</linkclipref>
							<mediatype>video</mediatype>
							<trackindex>1</trackindex>
							<clipindex>52</clipindex>
						</link>
						<link>
							<linkclipref>clipitem-526</linkclipref>
							<mediatype>audio</mediatype>
							<trackindex>1</trackindex>
							<clipindex>25</clipindex>
							<groupindex>1</groupindex>
						</link>
						<link>
							<linkclipref>clipitem-619</linkclipref>
							<mediatype>audio</mediatype>
							<trackindex>3</trackindex>
							<clipindex>25</clipindex>
							<groupindex>1</groupindex>
						</link>
						<link>
							<linkclipref>clipitem-676</linkclipref>
							<mediatype>audio</mediatype>
							<trackindex>5</trackindex>
							<clipindex>17</clipindex>
							<groupindex>1</groupindex>
						</link>
						<link>
							<linkclipref>clipitem-702</linkclipref>
							<mediatype>audio</mediatype>
							<trackindex>7</trackindex>
							<clipindex>8</clipindex>
							<groupindex>1</groupindex>
						</link>
						<logginginfo>
							<description></description>
							<scene></scene>
							<shottake></shottake>
							<lognote></lognote>
						</logginginfo>
						<labels>
							<label2>Iris</label2>
						</labels>
					</clipitem>
					<clipitem id="clipitem-677" premiereChannelType="mono">
						<masterclipid>masterclip-42</masterclipid>
						<name>delfin-191016-2017.mxf</name>
						<enabled>TRUE</enabled>
						<duration>146</duration>
						<rate>
							<timebase>25</timebase>
							<ntsc>FALSE</ntsc>
						</rate>
						<start>14478</start>
						<end>14574</end>
						<in>25</in>
						<out>121</out>
						<pproTicksIn>254016000000</pproTicksIn>
						<pproTicksOut>1229437440000</pproTicksOut>
						<file id="file-42"/>
						<sourcetrack>
							<mediatype>audio</mediatype>
							<trackindex>3</trackindex>
						</sourcetrack>
							<filter>
								<effect>
									<name>Audio Levels</name>
									<effectid>audiolevels</effectid>
									<effectcategory>audiolevels</effectcategory>
									<effecttype>audiolevels</effecttype>
									<mediatype>audio</mediatype>
									<parameter authoringApp="PremierePro">
										<parameterid>level</parameterid>
										<name>Level</name>
										<valuemin>0</valuemin>
										<valuemax>3.98109</valuemax>
										<value>0</value>
									</parameter>
								</effect>
							</filter>
						<link>
							<linkclipref>clipitem-53</linkclipref>
							<mediatype>video</mediatype>
							<trackindex>1</trackindex>
							<clipindex>53</clipindex>
						</link>
						<link>
							<linkclipref>clipitem-527</linkclipref>
							<mediatype>audio</mediatype>
							<trackindex>1</trackindex>
							<clipindex>26</clipindex>
							<groupindex>1</groupindex>
						</link>
						<link>
							<linkclipref>clipitem-620</linkclipref>
							<mediatype>audio</mediatype>
							<trackindex>3</trackindex>
							<clipindex>26</clipindex>
							<groupindex>1</groupindex>
						</link>
						<link>
							<linkclipref>clipitem-677</linkclipref>
							<mediatype>audio</mediatype>
							<trackindex>5</trackindex>
							<clipindex>18</clipindex>
							<groupindex>1</groupindex>
						</link>
						<link>
							<linkclipref>clipitem-703</linkclipref>
							<mediatype>audio</mediatype>
							<trackindex>7</trackindex>
							<clipindex>9</clipindex>
							<groupindex>1</groupindex>
						</link>
						<logginginfo>
							<description></description>
							<scene></scene>
							<shottake></shottake>
							<lognote></lognote>
						</logginginfo>
						<labels>
							<label2>Iris</label2>
						</labels>
					</clipitem>
					<clipitem id="clipitem-678" premiereChannelType="mono">
						<masterclipid>masterclip-43</masterclipid>
						<name>delfin-191016-2017.mxf</name>
						<enabled>TRUE</enabled>
						<duration>233</duration>
						<rate>
							<timebase>25</timebase>
							<ntsc>FALSE</ntsc>
						</rate>
						<start>14574</start>
						<end>14656</end>
						<in>25</in>
						<out>107</out>
						<pproTicksIn>254016000000</pproTicksIn>
						<pproTicksOut>1087188480000</pproTicksOut>
						<file id="file-43"/>
						<sourcetrack>
							<mediatype>audio</mediatype>
							<trackindex>3</trackindex>
						</sourcetrack>
							<filter>
								<effect>
									<name>Audio Levels</name>
									<effectid>audiolevels</effectid>
									<effectcategory>audiolevels</effectcategory>
									<effecttype>audiolevels</effecttype>
									<mediatype>audio</mediatype>
									<parameter authoringApp="PremierePro">
										<parameterid>level</parameterid>
										<name>Level</name>
										<valuemin>0</valuemin>
										<valuemax>3.98109</valuemax>
										<value>0</value>
									</parameter>
								</effect>
							</filter>
						<link>
							<linkclipref>clipitem-54</linkclipref>
							<mediatype>video</mediatype>
							<trackindex>1</trackindex>
							<clipindex>54</clipindex>
						</link>
						<link>
							<linkclipref>clipitem-528</linkclipref>
							<mediatype>audio</mediatype>
							<trackindex>1</trackindex>
							<clipindex>27</clipindex>
							<groupindex>1</groupindex>
						</link>
						<link>
							<linkclipref>clipitem-621</linkclipref>
							<mediatype>audio</mediatype>
							<trackindex>3</trackindex>
							<clipindex>27</clipindex>
							<groupindex>1</groupindex>
						</link>
						<link>
							<linkclipref>clipitem-678</linkclipref>
							<mediatype>audio</mediatype>
							<trackindex>5</trackindex>
							<clipindex>19</clipindex>
							<groupindex>1</groupindex>
						</link>
						<link>
							<linkclipref>clipitem-704</linkclipref>
							<mediatype>audio</mediatype>
							<trackindex>7</trackindex>
							<clipindex>10</clipindex>
							<groupindex>1</groupindex>
						</link>
						<logginginfo>
							<description></description>
							<scene></scene>
							<shottake></shottake>
							<lognote></lognote>
						</logginginfo>
						<labels>
							<label2>Iris</label2>
						</labels>
					</clipitem>
					<clipitem id="clipitem-679" premiereChannelType="mono">
						<masterclipid>masterclip-43</masterclipid>
						<name>delfin-191016-2017.mxf</name>
						<enabled>TRUE</enabled>
						<duration>233</duration>
						<rate>
							<timebase>25</timebase>
							<ntsc>FALSE</ntsc>
						</rate>
						<start>14656</start>
						<end>-1</end>
						<in>142</in>
						<out>208</out>
						<pproTicksIn>1442810880000</pproTicksIn>
						<pproTicksOut>2113413120000</pproTicksOut>
						<file id="file-43"/>
						<sourcetrack>
							<mediatype>audio</mediatype>
							<trackindex>3</trackindex>
						</sourcetrack>
							<filter>
								<effect>
									<name>Audio Levels</name>
									<effectid>audiolevels</effectid>
									<effectcategory>audiolevels</effectcategory>
									<effecttype>audiolevels</effecttype>
									<mediatype>audio</mediatype>
									<parameter authoringApp="PremierePro">
										<parameterid>level</parameterid>
										<name>Level</name>
										<valuemin>0</valuemin>
										<valuemax>3.98109</valuemax>
										<value>0</value>
									</parameter>
								</effect>
							</filter>
						<logginginfo>
							<description></description>
							<scene></scene>
							<shottake></shottake>
							<lognote></lognote>
						</logginginfo>
						<labels>
							<label2>Iris</label2>
						</labels>
					</clipitem>
					<transitionitem>
						<start>14709</start>
						<end>14722</end>
						<alignment>end-black</alignment>
						<cutPointTicks>132088320000</cutPointTicks>
						<rate>
							<timebase>25</timebase>
							<ntsc>FALSE</ntsc>
						</rate>
						<effect>
							<name>Cross Fade (+3dB)</name>
							<effectid>KGAudioTransCrossFade3dB</effectid>
							<effecttype>transition</effecttype>
							<mediatype>audio</mediatype>
							<wipecode>0</wipecode>
							<wipeaccuracy>100</wipeaccuracy>
							<startratio>0</startratio>
							<endratio>1</endratio>
							<reverse>FALSE</reverse>
						</effect>
					</transitionitem>
					<clipitem id="clipitem-680" premiereChannelType="mono">
						<masterclipid>masterclip-306</masterclipid>
						<name>delfin-191016-2021.mxf</name>
						<enabled>TRUE</enabled>
						<duration>116</duration>
						<rate>
							<timebase>25</timebase>
							<ntsc>FALSE</ntsc>
						</rate>
						<start>15144</start>
						<end>-1</end>
						<in>0</in>
						<out>91</out>
						<pproTicksIn>0</pproTicksIn>
						<pproTicksOut>924618240000</pproTicksOut>
						<file id="file-306"/>
						<sourcetrack>
							<mediatype>audio</mediatype>
							<trackindex>3</trackindex>
						</sourcetrack>
							<filter>
								<effect>
									<name>Audio Levels</name>
									<effectid>audiolevels</effectid>
									<effectcategory>audiolevels</effectcategory>
									<effecttype>audiolevels</effecttype>
									<mediatype>audio</mediatype>
									<parameter authoringApp="PremierePro">
										<parameterid>level</parameterid>
										<name>Level</name>
										<valuemin>0</valuemin>
										<valuemax>3.98109</valuemax>
										<value>0</value>
									</parameter>
								</effect>
							</filter>
						<link>
							<linkclipref>clipitem-530</linkclipref>
							<mediatype>audio</mediatype>
							<trackindex>1</trackindex>
							<clipindex>30</clipindex>
							<groupindex>1</groupindex>
						</link>
						<link>
							<linkclipref>clipitem-623</linkclipref>
							<mediatype>audio</mediatype>
							<trackindex>3</trackindex>
							<clipindex>30</clipindex>
							<groupindex>1</groupindex>
						</link>
						<link>
							<linkclipref>clipitem-680</linkclipref>
							<mediatype>audio</mediatype>
							<trackindex>5</trackindex>
							<clipindex>22</clipindex>
							<groupindex>1</groupindex>
						</link>
						<link>
							<linkclipref>clipitem-706</linkclipref>
							<mediatype>audio</mediatype>
							<trackindex>7</trackindex>
							<clipindex>14</clipindex>
							<groupindex>1</groupindex>
						</link>
						<logginginfo>
							<description></description>
							<scene></scene>
							<shottake></shottake>
							<lognote></lognote>
						</logginginfo>
						<labels>
							<label2>Iris</label2>
						</labels>
					</clipitem>
					<transitionitem>
						<start>15222</start>
						<end>15235</end>
						<alignment>center</alignment>
						<cutPointTicks>60963840000</cutPointTicks>
						<rate>
							<timebase>25</timebase>
							<ntsc>FALSE</ntsc>
						</rate>
						<effect>
							<name>Cross Fade (+3dB)</name>
							<effectid>KGAudioTransCrossFade3dB</effectid>
							<effecttype>transition</effecttype>
							<mediatype>audio</mediatype>
							<wipecode>0</wipecode>
							<wipeaccuracy>100</wipeaccuracy>
							<startratio>0</startratio>
							<endratio>1</endratio>
							<reverse>FALSE</reverse>
						</effect>
					</transitionitem>
					<clipitem id="clipitem-681" premiereChannelType="mono">
						<masterclipid>masterclip-44</masterclipid>
						<name>delfin-191016-2021.mxf</name>
						<enabled>TRUE</enabled>
						<duration>346</duration>
						<rate>
							<timebase>25</timebase>
							<ntsc>FALSE</ntsc>
						</rate>
						<start>-1</start>
						<end>15465</end>
						<in>78</in>
						<out>321</out>
						<pproTicksIn>792529920000</pproTicksIn>
						<pproTicksOut>3261565440000</pproTicksOut>
						<file id="file-44"/>
						<sourcetrack>
							<mediatype>audio</mediatype>
							<trackindex>3</trackindex>
						</sourcetrack>
							<filter>
								<effect>
									<name>Audio Levels</name>
									<effectid>audiolevels</effectid>
									<effectcategory>audiolevels</effectcategory>
									<effecttype>audiolevels</effecttype>
									<mediatype>audio</mediatype>
									<parameter authoringApp="PremierePro">
										<parameterid>level</parameterid>
										<name>Level</name>
										<valuemin>0</valuemin>
										<valuemax>3.98109</valuemax>
										<value>0</value>
										<keyframe>
											<when>171</when>
											<value>0</value>
										</keyframe>
									</parameter>
								</effect>
							</filter>
						<link>
							<linkclipref>clipitem-56</linkclipref>
							<mediatype>video</mediatype>
							<trackindex>1</trackindex>
							<clipindex>56</clipindex>
						</link>
						<link>
							<linkclipref>clipitem-531</linkclipref>
							<mediatype>audio</mediatype>
							<trackindex>1</trackindex>
							<clipindex>32</clipindex>
							<groupindex>1</groupindex>
						</link>
						<link>
							<linkclipref>clipitem-624</linkclipref>
							<mediatype>audio</mediatype>
							<trackindex>3</trackindex>
							<clipindex>32</clipindex>
							<groupindex>1</groupindex>
						</link>
						<link>
							<linkclipref>clipitem-681</linkclipref>
							<mediatype>audio</mediatype>
							<trackindex>5</trackindex>
							<clipindex>24</clipindex>
							<groupindex>1</groupindex>
						</link>
						<link>
							<linkclipref>clipitem-707</linkclipref>
							<mediatype>audio</mediatype>
							<trackindex>7</trackindex>
							<clipindex>16</clipindex>
							<groupindex>1</groupindex>
						</link>
						<logginginfo>
							<description></description>
							<scene></scene>
							<shottake></shottake>
							<lognote></lognote>
						</logginginfo>
						<labels>
							<label2>Iris</label2>
						</labels>
					</clipitem>
					<clipitem id="clipitem-682" premiereChannelType="mono">
						<masterclipid>masterclip-45</masterclipid>
						<name>delfin-191016-2021.mxf</name>
						<enabled>TRUE</enabled>
						<duration>290</duration>
						<rate>
							<timebase>25</timebase>
							<ntsc>FALSE</ntsc>
						</rate>
						<start>15465</start>
						<end>15705</end>
						<in>25</in>
						<out>265</out>
						<pproTicksIn>254016000000</pproTicksIn>
						<pproTicksOut>2692569600000</pproTicksOut>
						<file id="file-45"/>
						<sourcetrack>
							<mediatype>audio</mediatype>
							<trackindex>3</trackindex>
						</sourcetrack>
							<filter>
								<effect>
									<name>Audio Levels</name>
									<effectid>audiolevels</effectid>
									<effectcategory>audiolevels</effectcategory>
									<effecttype>audiolevels</effecttype>
									<mediatype>audio</mediatype>
									<parameter authoringApp="PremierePro">
										<parameterid>level</parameterid>
										<name>Level</name>
										<valuemin>0</valuemin>
										<valuemax>3.98109</valuemax>
										<value>0</value>
									</parameter>
								</effect>
							</filter>
						<link>
							<linkclipref>clipitem-57</linkclipref>
							<mediatype>video</mediatype>
							<trackindex>1</trackindex>
							<clipindex>57</clipindex>
						</link>
						<link>
							<linkclipref>clipitem-532</linkclipref>
							<mediatype>audio</mediatype>
							<trackindex>1</trackindex>
							<clipindex>34</clipindex>
							<groupindex>1</groupindex>
						</link>
						<link>
							<linkclipref>clipitem-625</linkclipref>
							<mediatype>audio</mediatype>
							<trackindex>3</trackindex>
							<clipindex>33</clipindex>
							<groupindex>1</groupindex>
						</link>
						<link>
							<linkclipref>clipitem-682</linkclipref>
							<mediatype>audio</mediatype>
							<trackindex>5</trackindex>
							<clipindex>25</clipindex>
							<groupindex>1</groupindex>
						</link>
						<link>
							<linkclipref>clipitem-708</linkclipref>
							<mediatype>audio</mediatype>
							<trackindex>7</trackindex>
							<clipindex>18</clipindex>
							<groupindex>1</groupindex>
						</link>
						<logginginfo>
							<description></description>
							<scene></scene>
							<shottake></shottake>
							<lognote></lognote>
						</logginginfo>
						<labels>
							<label2>Iris</label2>
						</labels>
					</clipitem>
					<clipitem id="clipitem-683" premiereChannelType="mono">
						<masterclipid>masterclip-46</masterclipid>
						<name>delfin-191016-1008.mxf</name>
						<enabled>TRUE</enabled>
						<duration>575</duration>
						<rate>
							<timebase>25</timebase>
							<ntsc>FALSE</ntsc>
						</rate>
						<start>15705</start>
						<end>16230</end>
						<in>25</in>
						<out>550</out>
						<pproTicksIn>254016000000</pproTicksIn>
						<pproTicksOut>5588352000000</pproTicksOut>
						<file id="file-46"/>
						<sourcetrack>
							<mediatype>audio</mediatype>
							<trackindex>3</trackindex>
						</sourcetrack>
							<filter>
								<effect>
									<name>Audio Levels</name>
									<effectid>audiolevels</effectid>
									<effectcategory>audiolevels</effectcategory>
									<effecttype>audiolevels</effecttype>
									<mediatype>audio</mediatype>
									<parameter authoringApp="PremierePro">
										<parameterid>level</parameterid>
										<name>Level</name>
										<valuemin>0</valuemin>
										<valuemax>3.98109</valuemax>
										<value>0</value>
										<keyframe>
											<when>110</when>
											<value>0</value>
										</keyframe>
									</parameter>
								</effect>
							</filter>
						<logginginfo>
							<description></description>
							<scene></scene>
							<shottake></shottake>
							<lognote></lognote>
						</logginginfo>
						<labels>
							<label2>Iris</label2>
						</labels>
					</clipitem>
					<clipitem id="clipitem-684" premiereChannelType="mono">
						<masterclipid>masterclip-307</masterclipid>
						<name>delfin-191016-1008.mxf</name>
						<enabled>TRUE</enabled>
						<duration>147</duration>
						<rate>
							<timebase>25</timebase>
							<ntsc>FALSE</ntsc>
						</rate>
						<start>16230</start>
						<end>16327</end>
						<in>25</in>
						<out>122</out>
						<pproTicksIn>254016000000</pproTicksIn>
						<pproTicksOut>1239598080000</pproTicksOut>
						<file id="file-307"/>
						<sourcetrack>
							<mediatype>audio</mediatype>
							<trackindex>3</trackindex>
						</sourcetrack>
							<filter>
								<effect>
									<name>Audio Levels</name>
									<effectid>audiolevels</effectid>
									<effectcategory>audiolevels</effectcategory>
									<effecttype>audiolevels</effecttype>
									<mediatype>audio</mediatype>
									<parameter authoringApp="PremierePro">
										<parameterid>level</parameterid>
										<name>Level</name>
										<valuemin>0</valuemin>
										<valuemax>3.98109</valuemax>
										<value>0</value>
										<keyframe>
											<when>73</when>
											<value>0</value>
										</keyframe>
									</parameter>
								</effect>
							</filter>
						<logginginfo>
							<description></description>
							<scene></scene>
							<shottake></shottake>
							<lognote></lognote>
						</logginginfo>
						<labels>
							<label2>Iris</label2>
						</labels>
					</clipitem>
					<clipitem id="clipitem-685" premiereChannelType="mono">
						<masterclipid>masterclip-59</masterclipid>
						<name>IMG_4373.MOV</name>
						<enabled>TRUE</enabled>
						<duration>2626</duration>
						<rate>
							<timebase>25</timebase>
							<ntsc>FALSE</ntsc>
						</rate>
						<start>23704</start>
						<end>23837</end>
						<in>174</in>
						<out>307</out>
						<pproTicksIn>1767951360000</pproTicksIn>
						<pproTicksOut>3119316480000</pproTicksOut>
						<file id="file-59"/>
						<sourcetrack>
							<mediatype>audio</mediatype>
							<trackindex>1</trackindex>
						</sourcetrack>
							<filter>
								<effect>
									<name>Audio Levels</name>
									<effectid>audiolevels</effectid>
									<effectcategory>audiolevels</effectcategory>
									<effecttype>audiolevels</effecttype>
									<mediatype>audio</mediatype>
									<parameter authoringApp="PremierePro">
										<parameterid>level</parameterid>
										<name>Level</name>
										<valuemin>0</valuemin>
										<valuemax>3.98109</valuemax>
										<value>0.99763</value>
									</parameter>
								</effect>
							</filter>
						<link>
							<linkclipref>clipitem-76</linkclipref>
							<mediatype>video</mediatype>
							<trackindex>1</trackindex>
							<clipindex>76</clipindex>
						</link>
						<link>
							<linkclipref>clipitem-685</linkclipref>
							<mediatype>audio</mediatype>
							<trackindex>5</trackindex>
							<clipindex>28</clipindex>
							<groupindex>1</groupindex>
						</link>
						<logginginfo>
							<description></description>
							<scene></scene>
							<shottake></shottake>
							<lognote></lognote>
						</logginginfo>
						<labels>
							<label2>Iris</label2>
						</labels>
					</clipitem>
					<clipitem id="clipitem-686" premiereChannelType="mono">
						<masterclipid>masterclip-59</masterclipid>
						<name>IMG_4373.MOV</name>
						<enabled>TRUE</enabled>
						<duration>2626</duration>
						<rate>
							<timebase>25</timebase>
							<ntsc>FALSE</ntsc>
						</rate>
						<start>23837</start>
						<end>23964</end>
						<in>549</in>
						<out>676</out>
						<pproTicksIn>5578191360000</pproTicksIn>
						<pproTicksOut>6868592640000</pproTicksOut>
						<file id="file-59"/>
						<sourcetrack>
							<mediatype>audio</mediatype>
							<trackindex>1</trackindex>
						</sourcetrack>
							<filter>
								<effect>
									<name>Audio Levels</name>
									<effectid>audiolevels</effectid>
									<effectcategory>audiolevels</effectcategory>
									<effecttype>audiolevels</effecttype>
									<mediatype>audio</mediatype>
									<parameter authoringApp="PremierePro">
										<parameterid>level</parameterid>
										<name>Level</name>
										<valuemin>0</valuemin>
										<valuemax>3.98109</valuemax>
										<value>0.99763</value>
									</parameter>
								</effect>
							</filter>
						<link>
							<linkclipref>clipitem-77</linkclipref>
							<mediatype>video</mediatype>
							<trackindex>1</trackindex>
							<clipindex>77</clipindex>
						</link>
						<link>
							<linkclipref>clipitem-686</linkclipref>
							<mediatype>audio</mediatype>
							<trackindex>5</trackindex>
							<clipindex>29</clipindex>
							<groupindex>1</groupindex>
						</link>
						<logginginfo>
							<description></description>
							<scene></scene>
							<shottake></shottake>
							<lognote></lognote>
						</logginginfo>
						<labels>
							<label2>Iris</label2>
						</labels>
					</clipitem>
					<clipitem id="clipitem-687" premiereChannelType="mono">
						<masterclipid>masterclip-59</masterclipid>
						<name>IMG_4373.MOV</name>
						<enabled>TRUE</enabled>
						<duration>2626</duration>
						<rate>
							<timebase>25</timebase>
							<ntsc>FALSE</ntsc>
						</rate>
						<start>23964</start>
						<end>24241</end>
						<in>676</in>
						<out>953</out>
						<pproTicksIn>6868592640000</pproTicksIn>
						<pproTicksOut>9683089920000</pproTicksOut>
						<file id="file-59"/>
						<sourcetrack>
							<mediatype>audio</mediatype>
							<trackindex>1</trackindex>
						</sourcetrack>
							<filter>
								<effect>
									<name>Audio Levels</name>
									<effectid>audiolevels</effectid>
									<effectcategory>audiolevels</effectcategory>
									<effecttype>audiolevels</effecttype>
									<mediatype>audio</mediatype>
									<parameter authoringApp="PremierePro">
										<parameterid>level</parameterid>
										<name>Level</name>
										<valuemin>0</valuemin>
										<valuemax>3.98109</valuemax>
										<value>0.99763</value>
									</parameter>
								</effect>
							</filter>
						<logginginfo>
							<description></description>
							<scene></scene>
							<shottake></shottake>
							<lognote></lognote>
						</logginginfo>
						<labels>
							<label2>Iris</label2>
						</labels>
					</clipitem>
					<clipitem id="clipitem-688" premiereChannelType="mono">
						<masterclipid>masterclip-64</masterclipid>
						<name>IMG_4486.MOV</name>
						<enabled>TRUE</enabled>
						<duration>978</duration>
						<rate>
							<timebase>25</timebase>
							<ntsc>FALSE</ntsc>
						</rate>
						<start>25306</start>
						<end>25431</end>
						<in>0</in>
						<out>125</out>
						<pproTicksIn>0</pproTicksIn>
						<pproTicksOut>1270080000000</pproTicksOut>
						<file id="file-64"/>
						<sourcetrack>
							<mediatype>audio</mediatype>
							<trackindex>1</trackindex>
						</sourcetrack>
							<filter>
								<effect>
									<name>Audio Levels</name>
									<effectid>audiolevels</effectid>
									<effectcategory>audiolevels</effectcategory>
									<effecttype>audiolevels</effecttype>
									<mediatype>audio</mediatype>
									<parameter authoringApp="PremierePro">
										<parameterid>level</parameterid>
										<name>Level</name>
										<valuemin>0</valuemin>
										<valuemax>3.98109</valuemax>
										<value>0.0175023</value>
									</parameter>
								</effect>
							</filter>
						<link>
							<linkclipref>clipitem-82</linkclipref>
							<mediatype>video</mediatype>
							<trackindex>1</trackindex>
							<clipindex>82</clipindex>
						</link>
						<link>
							<linkclipref>clipitem-688</linkclipref>
							<mediatype>audio</mediatype>
							<trackindex>5</trackindex>
							<clipindex>31</clipindex>
							<groupindex>1</groupindex>
						</link>
						<logginginfo>
							<description></description>
							<scene></scene>
							<shottake></shottake>
							<lognote></lognote>
						</logginginfo>
						<labels>
							<label2>Iris</label2>
						</labels>
					</clipitem>
					<clipitem id="clipitem-689" premiereChannelType="mono">
						<masterclipid>masterclip-65</masterclipid>
						<name>IMG_4487.MOV</name>
						<enabled>TRUE</enabled>
						<duration>775</duration>
						<rate>
							<timebase>25</timebase>
							<ntsc>FALSE</ntsc>
						</rate>
						<start>25763</start>
						<end>25968</end>
						<in>294</in>
						<out>499</out>
						<pproTicksIn>2987228160000</pproTicksIn>
						<pproTicksOut>5070159360000</pproTicksOut>
						<file id="file-65"/>
						<sourcetrack>
							<mediatype>audio</mediatype>
							<trackindex>1</trackindex>
						</sourcetrack>
							<filter>
								<effect>
									<name>Audio Levels</name>
									<effectid>audiolevels</effectid>
									<effectcategory>audiolevels</effectcategory>
									<effecttype>audiolevels</effecttype>
									<mediatype>audio</mediatype>
									<parameter authoringApp="PremierePro">
										<parameterid>level</parameterid>
										<name>Level</name>
										<valuemin>0</valuemin>
										<valuemax>3.98109</valuemax>
										<value>0.122516</value>
									</parameter>
								</effect>
							</filter>
						<link>
							<linkclipref>clipitem-84</linkclipref>
							<mediatype>video</mediatype>
							<trackindex>1</trackindex>
							<clipindex>84</clipindex>
						</link>
						<link>
							<linkclipref>clipitem-689</linkclipref>
							<mediatype>audio</mediatype>
							<trackindex>5</trackindex>
							<clipindex>32</clipindex>
							<groupindex>1</groupindex>
						</link>
						<logginginfo>
							<description></description>
							<scene></scene>
							<shottake></shottake>
							<lognote></lognote>
						</logginginfo>
						<labels>
							<label2>Iris</label2>
						</labels>
					</clipitem>
					<clipitem id="clipitem-690" premiereChannelType="mono">
						<masterclipid>masterclip-89</masterclipid>
						<name>Aashild-august-Clip0347.MXF</name>
						<enabled>TRUE</enabled>
						<duration>1092</duration>
						<rate>
							<timebase>25</timebase>
							<ntsc>FALSE</ntsc>
						</rate>
						<start>34510</start>
						<end>34627</end>
						<in>662</in>
						<out>779</out>
						<pproTicksIn>6726343680000</pproTicksIn>
						<pproTicksOut>7915138560000</pproTicksOut>
						<file id="file-89"/>
						<sourcetrack>
							<mediatype>audio</mediatype>
							<trackindex>2</trackindex>
						</sourcetrack>
							<filter>
								<effect>
									<name>Audio Levels</name>
									<effectid>audiolevels</effectid>
									<effectcategory>audiolevels</effectcategory>
									<effecttype>audiolevels</effecttype>
									<mediatype>audio</mediatype>
									<parameter authoringApp="PremierePro">
										<parameterid>level</parameterid>
										<name>Level</name>
										<valuemin>0</valuemin>
										<valuemax>3.98109</valuemax>
										<value>0.99763</value>
									</parameter>
								</effect>
							</filter>
						<link>
							<linkclipref>clipitem-129</linkclipref>
							<mediatype>video</mediatype>
							<trackindex>1</trackindex>
							<clipindex>138</clipindex>
						</link>
						<link>
							<linkclipref>clipitem-640</linkclipref>
							<mediatype>audio</mediatype>
							<trackindex>3</trackindex>
							<clipindex>52</clipindex>
							<groupindex>1</groupindex>
						</link>
						<link>
							<linkclipref>clipitem-690</linkclipref>
							<mediatype>audio</mediatype>
							<trackindex>5</trackindex>
							<clipindex>33</clipindex>
							<groupindex>1</groupindex>
						</link>
						<logginginfo>
							<description></description>
							<scene></scene>
							<shottake></shottake>
							<lognote></lognote>
						</logginginfo>
						<labels>
							<label2>Caribbean</label2>
						</labels>
					</clipitem>
					<clipitem id="clipitem-691" premiereChannelType="mono">
						<masterclipid>masterclip-93</masterclipid>
						<name>Aashild-august-Clip0760.MXF</name>
						<enabled>TRUE</enabled>
						<duration>1128</duration>
						<rate>
							<timebase>25</timebase>
							<ntsc>FALSE</ntsc>
						</rate>
						<start>35104</start>
						<end>35161</end>
						<in>201</in>
						<out>258</out>
						<pproTicksIn>2042288640000</pproTicksIn>
						<pproTicksOut>2621445120000</pproTicksOut>
						<file id="file-93"/>
						<sourcetrack>
							<mediatype>audio</mediatype>
							<trackindex>2</trackindex>
						</sourcetrack>
						<link>
							<linkclipref>clipitem-321</linkclipref>
							<mediatype>video</mediatype>
							<trackindex>2</trackindex>
							<clipindex>65</clipindex>
						</link>
						<link>
							<linkclipref>clipitem-646</linkclipref>
							<mediatype>audio</mediatype>
							<trackindex>3</trackindex>
							<clipindex>59</clipindex>
							<groupindex>1</groupindex>
						</link>
						<link>
							<linkclipref>clipitem-691</linkclipref>
							<mediatype>audio</mediatype>
							<trackindex>5</trackindex>
							<clipindex>34</clipindex>
							<groupindex>1</groupindex>
						</link>
						<link>
							<linkclipref>clipitem-718</linkclipref>
							<mediatype>audio</mediatype>
							<trackindex>7</trackindex>
							<clipindex>29</clipindex>
							<groupindex>1</groupindex>
						</link>
						<link>
							<linkclipref>clipitem-772</linkclipref>
							<mediatype>audio</mediatype>
							<trackindex>8</trackindex>
							<clipindex>66</clipindex>
							<groupindex>1</groupindex>
						</link>
						<logginginfo>
							<description></description>
							<scene></scene>
							<shottake></shottake>
							<lognote></lognote>
						</logginginfo>
						<labels>
							<label2>Caribbean</label2>
						</labels>
					</clipitem>
					<clipitem id="clipitem-692" premiereChannelType="mono">
						<masterclipid>masterclip-93</masterclipid>
						<name>Aashild-august-Clip0760.MXF</name>
						<enabled>TRUE</enabled>
						<duration>1128</duration>
						<rate>
							<timebase>25</timebase>
							<ntsc>FALSE</ntsc>
						</rate>
						<start>35216</start>
						<end>35289</end>
						<in>752</in>
						<out>825</out>
						<pproTicksIn>7640801280000</pproTicksIn>
						<pproTicksOut>8382528000000</pproTicksOut>
						<file id="file-93"/>
						<sourcetrack>
							<mediatype>audio</mediatype>
							<trackindex>1</trackindex>
						</sourcetrack>
						<logginginfo>
							<description></description>
							<scene></scene>
							<shottake></shottake>
							<lognote></lognote>
						</logginginfo>
						<labels>
							<label2>Caribbean</label2>
						</labels>
					</clipitem>
					<clipitem id="clipitem-693" premiereChannelType="mono">
						<masterclipid>masterclip-233</masterclipid>
						<name>Clip0026.MXF</name>
						<enabled>TRUE</enabled>
						<duration>2052</duration>
						<rate>
							<timebase>25</timebase>
							<ntsc>FALSE</ntsc>
						</rate>
						<start>49287</start>
						<end>49386</end>
						<in>620</in>
						<out>719</out>
						<pproTicksIn>6299596800000</pproTicksIn>
						<pproTicksOut>7305500160000</pproTicksOut>
						<file id="file-233"/>
						<sourcetrack>
							<mediatype>audio</mediatype>
							<trackindex>2</trackindex>
						</sourcetrack>
						<logginginfo>
							<description></description>
							<scene></scene>
							<shottake></shottake>
							<lognote></lognote>
						</logginginfo>
						<labels>
							<label2>Iris</label2>
						</labels>
					</clipitem>
					<enabled>TRUE</enabled>
					<locked>FALSE</locked>
					<outputchannelindex>1</outputchannelindex>
				</track>
				<track TL.SQTrackAudioKeyframeStyle="0" TL.SQTrackShy="0" TL.SQTrackExpandedHeight="58" TL.SQTrackExpanded="1" MZ.TrackTargeted="0" PannerCurrentValue="0.5" PannerIsInverted="true" PannerStartKeyframe="-91445760000000000,0.5,0,0,0,0,0,0" PannerName="Balance" currentExplodedTrackIndex="1" totalExplodedTrackCount="2" premiereTrackType="Stereo">
					<clipitem id="clipitem-694" premiereChannelType="stereo">
						<masterclipid>masterclip-9</masterclipid>
						<name>GOPR9723.MP4</name>
						<enabled>TRUE</enabled>
						<duration>1191</duration>
						<rate>
							<timebase>25</timebase>
							<ntsc>FALSE</ntsc>
						</rate>
						<start>435</start>
						<end>486</end>
						<in>153</in>
						<out>204</out>
						<pproTicksIn>1554577920000</pproTicksIn>
						<pproTicksOut>2072770560000</pproTicksOut>
						<file id="file-9"/>
						<sourcetrack>
							<mediatype>audio</mediatype>
							<trackindex>2</trackindex>
						</sourcetrack>
						<link>
							<linkclipref>clipitem-257</linkclipref>
							<mediatype>video</mediatype>
							<trackindex>2</trackindex>
							<clipindex>1</clipindex>
						</link>
						<link>
							<linkclipref>clipitem-664</linkclipref>
							<mediatype>audio</mediatype>
							<trackindex>5</trackindex>
							<clipindex>1</clipindex>
							<groupindex>1</groupindex>
						</link>
						<link>
							<linkclipref>clipitem-694</linkclipref>
							<mediatype>audio</mediatype>
							<trackindex>6</trackindex>
							<clipindex>1</clipindex>
							<groupindex>1</groupindex>
						</link>
						<logginginfo>
							<description></description>
							<scene></scene>
							<shottake></shottake>
							<lognote></lognote>
						</logginginfo>
						<labels>
							<label2>Iris</label2>
						</labels>
					</clipitem>
					<enabled>TRUE</enabled>
					<locked>FALSE</locked>
					<outputchannelindex>2</outputchannelindex>
				</track>
				<track TL.SQTrackAudioKeyframeStyle="0" TL.SQTrackShy="0" TL.SQTrackExpandedHeight="58" TL.SQTrackExpanded="1" MZ.TrackTargeted="0" PannerCurrentValue="0.5" PannerIsInverted="true" PannerStartKeyframe="-91445760000000000,0.5,0,0,0,0,0,0" PannerName="Balance" currentExplodedTrackIndex="0" totalExplodedTrackCount="1" premiereTrackType="Stereo">
					<clipitem id="clipitem-695" premiereChannelType="mono">
						<masterclipid>masterclip-188</masterclipid>
						<name>delfin-191016-2004.mxf</name>
						<enabled>TRUE</enabled>
						<duration>241</duration>
						<rate>
							<timebase>25</timebase>
							<ntsc>FALSE</ntsc>
						</rate>
						<start>11196</start>
						<end>11387</end>
						<in>25</in>
						<out>216</out>
						<pproTicksIn>254016000000</pproTicksIn>
						<pproTicksOut>2194698240000</pproTicksOut>
						<file id="file-188"/>
						<sourcetrack>
							<mediatype>audio</mediatype>
							<trackindex>4</trackindex>
						</sourcetrack>
							<filter>
								<effect>
									<name>Audio Levels</name>
									<effectid>audiolevels</effectid>
									<effectcategory>audiolevels</effectcategory>
									<effecttype>audiolevels</effecttype>
									<mediatype>audio</mediatype>
									<parameter authoringApp="PremierePro">
										<parameterid>level</parameterid>
										<name>Level</name>
										<valuemin>0</valuemin>
										<valuemax>3.98109</valuemax>
										<value>0.48034</value>
									</parameter>
								</effect>
							</filter>
						<link>
							<linkclipref>clipitem-281</linkclipref>
							<mediatype>video</mediatype>
							<trackindex>2</trackindex>
							<clipindex>25</clipindex>
						</link>
						<link>
							<linkclipref>clipitem-515</linkclipref>
							<mediatype>audio</mediatype>
							<trackindex>1</trackindex>
							<clipindex>11</clipindex>
							<groupindex>1</groupindex>
						</link>
						<link>
							<linkclipref>clipitem-608</linkclipref>
							<mediatype>audio</mediatype>
							<trackindex>3</trackindex>
							<clipindex>11</clipindex>
							<groupindex>1</groupindex>
						</link>
						<link>
							<linkclipref>clipitem-665</linkclipref>
							<mediatype>audio</mediatype>
							<trackindex>5</trackindex>
							<clipindex>2</clipindex>
							<groupindex>1</groupindex>
						</link>
						<link>
							<linkclipref>clipitem-695</linkclipref>
							<mediatype>audio</mediatype>
							<trackindex>7</trackindex>
							<clipindex>1</clipindex>
							<groupindex>1</groupindex>
						</link>
						<logginginfo>
							<description></description>
							<scene></scene>
							<shottake></shottake>
							<lognote></lognote>
						</logginginfo>
						<labels>
							<label2>Iris</label2>
						</labels>
					</clipitem>
					<clipitem id="clipitem-696" premiereChannelType="mono">
						<masterclipid>masterclip-32</masterclipid>
						<name>delfin-191016-2008.mxf</name>
						<enabled>TRUE</enabled>
						<duration>123</duration>
						<rate>
							<timebase>25</timebase>
							<ntsc>FALSE</ntsc>
						</rate>
						<start>12420</start>
						<end>12493</end>
						<in>25</in>
						<out>98</out>
						<pproTicksIn>254016000000</pproTicksIn>
						<pproTicksOut>995742720000</pproTicksOut>
						<file id="file-32"/>
						<sourcetrack>
							<mediatype>audio</mediatype>
							<trackindex>4</trackindex>
						</sourcetrack>
							<filter>
								<effect>
									<name>Audio Levels</name>
									<effectid>audiolevels</effectid>
									<effectcategory>audiolevels</effectcategory>
									<effecttype>audiolevels</effecttype>
									<mediatype>audio</mediatype>
									<parameter authoringApp="PremierePro">
										<parameterid>level</parameterid>
										<name>Level</name>
										<valuemin>0</valuemin>
										<valuemax>3.98109</valuemax>
										<value>0</value>
										<keyframe>
											<when>54</when>
											<value>0</value>
										</keyframe>
									</parameter>
								</effect>
							</filter>
						<link>
							<linkclipref>clipitem-42</linkclipref>
							<mediatype>video</mediatype>
							<trackindex>1</trackindex>
							<clipindex>42</clipindex>
						</link>
						<link>
							<linkclipref>clipitem-517</linkclipref>
							<mediatype>audio</mediatype>
							<trackindex>1</trackindex>
							<clipindex>14</clipindex>
							<groupindex>1</groupindex>
						</link>
						<link>
							<linkclipref>clipitem-610</linkclipref>
							<mediatype>audio</mediatype>
							<trackindex>3</trackindex>
							<clipindex>14</clipindex>
							<groupindex>1</groupindex>
						</link>
						<link>
							<linkclipref>clipitem-667</linkclipref>
							<mediatype>audio</mediatype>
							<trackindex>5</trackindex>
							<clipindex>5</clipindex>
							<groupindex>1</groupindex>
						</link>
						<link>
							<linkclipref>clipitem-696</linkclipref>
							<mediatype>audio</mediatype>
							<trackindex>7</trackindex>
							<clipindex>2</clipindex>
							<groupindex>1</groupindex>
						</link>
						<logginginfo>
							<description></description>
							<scene></scene>
							<shottake></shottake>
							<lognote></lognote>
						</logginginfo>
						<labels>
							<label2>Iris</label2>
						</labels>
					</clipitem>
					<clipitem id="clipitem-697" premiereChannelType="mono">
						<masterclipid>masterclip-33</masterclipid>
						<name>delfin-191016-2013.mxf</name>
						<enabled>TRUE</enabled>
						<duration>106</duration>
						<rate>
							<timebase>25</timebase>
							<ntsc>FALSE</ntsc>
						</rate>
						<start>12493</start>
						<end>12549</end>
						<in>25</in>
						<out>81</out>
						<pproTicksIn>254016000000</pproTicksIn>
						<pproTicksOut>823011840000</pproTicksOut>
						<file id="file-33"/>
						<sourcetrack>
							<mediatype>audio</mediatype>
							<trackindex>4</trackindex>
						</sourcetrack>
							<filter>
								<effect>
									<name>Audio Levels</name>
									<effectid>audiolevels</effectid>
									<effectcategory>audiolevels</effectcategory>
									<effecttype>audiolevels</effecttype>
									<mediatype>audio</mediatype>
									<parameter authoringApp="PremierePro">
										<parameterid>level</parameterid>
										<name>Level</name>
										<valuemin>0</valuemin>
										<valuemax>3.98109</valuemax>
										<value>0.0212262</value>
									</parameter>
								</effect>
							</filter>
						<link>
							<linkclipref>clipitem-43</linkclipref>
							<mediatype>video</mediatype>
							<trackindex>1</trackindex>
							<clipindex>43</clipindex>
						</link>
						<link>
							<linkclipref>clipitem-518</linkclipref>
							<mediatype>audio</mediatype>
							<trackindex>1</trackindex>
							<clipindex>15</clipindex>
							<groupindex>1</groupindex>
						</link>
						<link>
							<linkclipref>clipitem-611</linkclipref>
							<mediatype>audio</mediatype>
							<trackindex>3</trackindex>
							<clipindex>15</clipindex>
							<groupindex>1</groupindex>
						</link>
						<link>
							<linkclipref>clipitem-668</linkclipref>
							<mediatype>audio</mediatype>
							<trackindex>5</trackindex>
							<clipindex>6</clipindex>
							<groupindex>1</groupindex>
						</link>
						<link>
							<linkclipref>clipitem-697</linkclipref>
							<mediatype>audio</mediatype>
							<trackindex>7</trackindex>
							<clipindex>3</clipindex>
							<groupindex>1</groupindex>
						</link>
						<logginginfo>
							<description></description>
							<scene></scene>
							<shottake></shottake>
							<lognote></lognote>
						</logginginfo>
						<labels>
							<label2>Iris</label2>
						</labels>
					</clipitem>
					<clipitem id="clipitem-698" premiereChannelType="mono">
						<masterclipid>masterclip-34</masterclipid>
						<name>delfin-191016-2014.mxf</name>
						<enabled>TRUE</enabled>
						<duration>100</duration>
						<rate>
							<timebase>25</timebase>
							<ntsc>FALSE</ntsc>
						</rate>
						<start>12549</start>
						<end>12599</end>
						<in>25</in>
						<out>75</out>
						<pproTicksIn>254016000000</pproTicksIn>
						<pproTicksOut>762048000000</pproTicksOut>
						<file id="file-34"/>
						<sourcetrack>
							<mediatype>audio</mediatype>
							<trackindex>4</trackindex>
						</sourcetrack>
							<filter>
								<effect>
									<name>Audio Levels</name>
									<effectid>audiolevels</effectid>
									<effectcategory>audiolevels</effectcategory>
									<effecttype>audiolevels</effecttype>
									<mediatype>audio</mediatype>
									<parameter authoringApp="PremierePro">
										<parameterid>level</parameterid>
										<name>Level</name>
										<valuemin>0</valuemin>
										<valuemax>3.98109</valuemax>
										<value>0.0212262</value>
									</parameter>
								</effect>
							</filter>
						<link>
							<linkclipref>clipitem-44</linkclipref>
							<mediatype>video</mediatype>
							<trackindex>1</trackindex>
							<clipindex>44</clipindex>
						</link>
						<link>
							<linkclipref>clipitem-519</linkclipref>
							<mediatype>audio</mediatype>
							<trackindex>1</trackindex>
							<clipindex>16</clipindex>
							<groupindex>1</groupindex>
						</link>
						<link>
							<linkclipref>clipitem-612</linkclipref>
							<mediatype>audio</mediatype>
							<trackindex>3</trackindex>
							<clipindex>16</clipindex>
							<groupindex>1</groupindex>
						</link>
						<link>
							<linkclipref>clipitem-669</linkclipref>
							<mediatype>audio</mediatype>
							<trackindex>5</trackindex>
							<clipindex>7</clipindex>
							<groupindex>1</groupindex>
						</link>
						<link>
							<linkclipref>clipitem-698</linkclipref>
							<mediatype>audio</mediatype>
							<trackindex>7</trackindex>
							<clipindex>4</clipindex>
							<groupindex>1</groupindex>
						</link>
						<logginginfo>
							<description></description>
							<scene></scene>
							<shottake></shottake>
							<lognote></lognote>
						</logginginfo>
						<labels>
							<label2>Iris</label2>
						</labels>
					</clipitem>
					<clipitem id="clipitem-699" premiereChannelType="mono">
						<masterclipid>masterclip-35</masterclipid>
						<name>delfin-191016-2012.mxf</name>
						<enabled>TRUE</enabled>
						<duration>126</duration>
						<rate>
							<timebase>25</timebase>
							<ntsc>FALSE</ntsc>
						</rate>
						<start>12599</start>
						<end>12668</end>
						<in>25</in>
						<out>94</out>
						<pproTicksIn>254016000000</pproTicksIn>
						<pproTicksOut>955100160000</pproTicksOut>
						<file id="file-35"/>
						<sourcetrack>
							<mediatype>audio</mediatype>
							<trackindex>4</trackindex>
						</sourcetrack>
						<link>
							<linkclipref>clipitem-45</linkclipref>
							<mediatype>video</mediatype>
							<trackindex>1</trackindex>
							<clipindex>45</clipindex>
						</link>
						<link>
							<linkclipref>clipitem-520</linkclipref>
							<mediatype>audio</mediatype>
							<trackindex>1</trackindex>
							<clipindex>17</clipindex>
							<groupindex>1</groupindex>
						</link>
						<link>
							<linkclipref>clipitem-613</linkclipref>
							<mediatype>audio</mediatype>
							<trackindex>3</trackindex>
							<clipindex>17</clipindex>
							<groupindex>1</groupindex>
						</link>
						<link>
							<linkclipref>clipitem-670</linkclipref>
							<mediatype>audio</mediatype>
							<trackindex>5</trackindex>
							<clipindex>8</clipindex>
							<groupindex>1</groupindex>
						</link>
						<link>
							<linkclipref>clipitem-699</linkclipref>
							<mediatype>audio</mediatype>
							<trackindex>7</trackindex>
							<clipindex>5</clipindex>
							<groupindex>1</groupindex>
						</link>
						<logginginfo>
							<description></description>
							<scene></scene>
							<shottake></shottake>
							<lognote></lognote>
						</logginginfo>
						<labels>
							<label2>Iris</label2>
						</labels>
					</clipitem>
					<clipitem id="clipitem-700" premiereChannelType="mono">
						<masterclipid>masterclip-39</masterclipid>
						<name>delfin-191016-2017.mxf</name>
						<enabled>TRUE</enabled>
						<duration>130</duration>
						<rate>
							<timebase>25</timebase>
							<ntsc>FALSE</ntsc>
						</rate>
						<start>14170</start>
						<end>14250</end>
						<in>25</in>
						<out>105</out>
						<pproTicksIn>254016000000</pproTicksIn>
						<pproTicksOut>1066867200000</pproTicksOut>
						<file id="file-39"/>
						<sourcetrack>
							<mediatype>audio</mediatype>
							<trackindex>4</trackindex>
						</sourcetrack>
							<filter>
								<effect>
									<name>Audio Levels</name>
									<effectid>audiolevels</effectid>
									<effectcategory>audiolevels</effectcategory>
									<effecttype>audiolevels</effecttype>
									<mediatype>audio</mediatype>
									<parameter authoringApp="PremierePro">
										<parameterid>level</parameterid>
										<name>Level</name>
										<valuemin>0</valuemin>
										<valuemax>3.98109</valuemax>
										<value>0</value>
									</parameter>
								</effect>
							</filter>
						<link>
							<linkclipref>clipitem-50</linkclipref>
							<mediatype>video</mediatype>
							<trackindex>1</trackindex>
							<clipindex>50</clipindex>
						</link>
						<link>
							<linkclipref>clipitem-524</linkclipref>
							<mediatype>audio</mediatype>
							<trackindex>1</trackindex>
							<clipindex>23</clipindex>
							<groupindex>1</groupindex>
						</link>
						<link>
							<linkclipref>clipitem-617</linkclipref>
							<mediatype>audio</mediatype>
							<trackindex>3</trackindex>
							<clipindex>23</clipindex>
							<groupindex>1</groupindex>
						</link>
						<link>
							<linkclipref>clipitem-674</linkclipref>
							<mediatype>audio</mediatype>
							<trackindex>5</trackindex>
							<clipindex>15</clipindex>
							<groupindex>1</groupindex>
						</link>
						<link>
							<linkclipref>clipitem-700</linkclipref>
							<mediatype>audio</mediatype>
							<trackindex>7</trackindex>
							<clipindex>6</clipindex>
							<groupindex>1</groupindex>
						</link>
						<logginginfo>
							<description></description>
							<scene></scene>
							<shottake></shottake>
							<lognote></lognote>
						</logginginfo>
						<labels>
							<label2>Iris</label2>
						</labels>
					</clipitem>
					<clipitem id="clipitem-701" premiereChannelType="mono">
						<masterclipid>masterclip-40</masterclipid>
						<name>delfin-191016-2017.mxf</name>
						<enabled>TRUE</enabled>
						<duration>128</duration>
						<rate>
							<timebase>25</timebase>
							<ntsc>FALSE</ntsc>
						</rate>
						<start>14250</start>
						<end>14328</end>
						<in>25</in>
						<out>103</out>
						<pproTicksIn>254016000000</pproTicksIn>
						<pproTicksOut>1046545920000</pproTicksOut>
						<file id="file-40"/>
						<sourcetrack>
							<mediatype>audio</mediatype>
							<trackindex>4</trackindex>
						</sourcetrack>
							<filter>
								<effect>
									<name>Audio Levels</name>
									<effectid>audiolevels</effectid>
									<effectcategory>audiolevels</effectcategory>
									<effecttype>audiolevels</effecttype>
									<mediatype>audio</mediatype>
									<parameter authoringApp="PremierePro">
										<parameterid>level</parameterid>
										<name>Level</name>
										<valuemin>0</valuemin>
										<valuemax>3.98109</valuemax>
										<value>0</value>
									</parameter>
								</effect>
							</filter>
						<link>
							<linkclipref>clipitem-51</linkclipref>
							<mediatype>video</mediatype>
							<trackindex>1</trackindex>
							<clipindex>51</clipindex>
						</link>
						<link>
							<linkclipref>clipitem-525</linkclipref>
							<mediatype>audio</mediatype>
							<trackindex>1</trackindex>
							<clipindex>24</clipindex>
							<groupindex>1</groupindex>
						</link>
						<link>
							<linkclipref>clipitem-618</linkclipref>
							<mediatype>audio</mediatype>
							<trackindex>3</trackindex>
							<clipindex>24</clipindex>
							<groupindex>1</groupindex>
						</link>
						<link>
							<linkclipref>clipitem-675</linkclipref>
							<mediatype>audio</mediatype>
							<trackindex>5</trackindex>
							<clipindex>16</clipindex>
							<groupindex>1</groupindex>
						</link>
						<link>
							<linkclipref>clipitem-701</linkclipref>
							<mediatype>audio</mediatype>
							<trackindex>7</trackindex>
							<clipindex>7</clipindex>
							<groupindex>1</groupindex>
						</link>
						<logginginfo>
							<description></description>
							<scene></scene>
							<shottake></shottake>
							<lognote></lognote>
						</logginginfo>
						<labels>
							<label2>Iris</label2>
						</labels>
					</clipitem>
					<clipitem id="clipitem-702" premiereChannelType="mono">
						<masterclipid>masterclip-41</masterclipid>
						<name>delfin-191016-2017.mxf</name>
						<enabled>TRUE</enabled>
						<duration>200</duration>
						<rate>
							<timebase>25</timebase>
							<ntsc>FALSE</ntsc>
						</rate>
						<start>14328</start>
						<end>14478</end>
						<in>25</in>
						<out>175</out>
						<pproTicksIn>254016000000</pproTicksIn>
						<pproTicksOut>1778112000000</pproTicksOut>
						<file id="file-41"/>
						<sourcetrack>
							<mediatype>audio</mediatype>
							<trackindex>4</trackindex>
						</sourcetrack>
							<filter>
								<effect>
									<name>Audio Levels</name>
									<effectid>audiolevels</effectid>
									<effectcategory>audiolevels</effectcategory>
									<effecttype>audiolevels</effecttype>
									<mediatype>audio</mediatype>
									<parameter authoringApp="PremierePro">
										<parameterid>level</parameterid>
										<name>Level</name>
										<valuemin>0</valuemin>
										<valuemax>3.98109</valuemax>
										<value>0</value>
									</parameter>
								</effect>
							</filter>
						<link>
							<linkclipref>clipitem-52</linkclipref>
							<mediatype>video</mediatype>
							<trackindex>1</trackindex>
							<clipindex>52</clipindex>
						</link>
						<link>
							<linkclipref>clipitem-526</linkclipref>
							<mediatype>audio</mediatype>
							<trackindex>1</trackindex>
							<clipindex>25</clipindex>
							<groupindex>1</groupindex>
						</link>
						<link>
							<linkclipref>clipitem-619</linkclipref>
							<mediatype>audio</mediatype>
							<trackindex>3</trackindex>
							<clipindex>25</clipindex>
							<groupindex>1</groupindex>
						</link>
						<link>
							<linkclipref>clipitem-676</linkclipref>
							<mediatype>audio</mediatype>
							<trackindex>5</trackindex>
							<clipindex>17</clipindex>
							<groupindex>1</groupindex>
						</link>
						<link>
							<linkclipref>clipitem-702</linkclipref>
							<mediatype>audio</mediatype>
							<trackindex>7</trackindex>
							<clipindex>8</clipindex>
							<groupindex>1</groupindex>
						</link>
						<logginginfo>
							<description></description>
							<scene></scene>
							<shottake></shottake>
							<lognote></lognote>
						</logginginfo>
						<labels>
							<label2>Iris</label2>
						</labels>
					</clipitem>
					<clipitem id="clipitem-703" premiereChannelType="mono">
						<masterclipid>masterclip-42</masterclipid>
						<name>delfin-191016-2017.mxf</name>
						<enabled>TRUE</enabled>
						<duration>146</duration>
						<rate>
							<timebase>25</timebase>
							<ntsc>FALSE</ntsc>
						</rate>
						<start>14478</start>
						<end>14574</end>
						<in>25</in>
						<out>121</out>
						<pproTicksIn>254016000000</pproTicksIn>
						<pproTicksOut>1229437440000</pproTicksOut>
						<file id="file-42"/>
						<sourcetrack>
							<mediatype>audio</mediatype>
							<trackindex>4</trackindex>
						</sourcetrack>
							<filter>
								<effect>
									<name>Audio Levels</name>
									<effectid>audiolevels</effectid>
									<effectcategory>audiolevels</effectcategory>
									<effecttype>audiolevels</effecttype>
									<mediatype>audio</mediatype>
									<parameter authoringApp="PremierePro">
										<parameterid>level</parameterid>
										<name>Level</name>
										<valuemin>0</valuemin>
										<valuemax>3.98109</valuemax>
										<value>0</value>
									</parameter>
								</effect>
							</filter>
						<link>
							<linkclipref>clipitem-53</linkclipref>
							<mediatype>video</mediatype>
							<trackindex>1</trackindex>
							<clipindex>53</clipindex>
						</link>
						<link>
							<linkclipref>clipitem-527</linkclipref>
							<mediatype>audio</mediatype>
							<trackindex>1</trackindex>
							<clipindex>26</clipindex>
							<groupindex>1</groupindex>
						</link>
						<link>
							<linkclipref>clipitem-620</linkclipref>
							<mediatype>audio</mediatype>
							<trackindex>3</trackindex>
							<clipindex>26</clipindex>
							<groupindex>1</groupindex>
						</link>
						<link>
							<linkclipref>clipitem-677</linkclipref>
							<mediatype>audio</mediatype>
							<trackindex>5</trackindex>
							<clipindex>18</clipindex>
							<groupindex>1</groupindex>
						</link>
						<link>
							<linkclipref>clipitem-703</linkclipref>
							<mediatype>audio</mediatype>
							<trackindex>7</trackindex>
							<clipindex>9</clipindex>
							<groupindex>1</groupindex>
						</link>
						<logginginfo>
							<description></description>
							<scene></scene>
							<shottake></shottake>
							<lognote></lognote>
						</logginginfo>
						<labels>
							<label2>Iris</label2>
						</labels>
					</clipitem>
					<clipitem id="clipitem-704" premiereChannelType="mono">
						<masterclipid>masterclip-43</masterclipid>
						<name>delfin-191016-2017.mxf</name>
						<enabled>TRUE</enabled>
						<duration>233</duration>
						<rate>
							<timebase>25</timebase>
							<ntsc>FALSE</ntsc>
						</rate>
						<start>14574</start>
						<end>-1</end>
						<in>25</in>
						<out>114</out>
						<pproTicksIn>254016000000</pproTicksIn>
						<pproTicksOut>1158312960000</pproTicksOut>
						<file id="file-43"/>
						<sourcetrack>
							<mediatype>audio</mediatype>
							<trackindex>4</trackindex>
						</sourcetrack>
							<filter>
								<effect>
									<name>Audio Levels</name>
									<effectid>audiolevels</effectid>
									<effectcategory>audiolevels</effectcategory>
									<effecttype>audiolevels</effecttype>
									<mediatype>audio</mediatype>
									<parameter authoringApp="PremierePro">
										<parameterid>level</parameterid>
										<name>Level</name>
										<valuemin>0</valuemin>
										<valuemax>3.98109</valuemax>
										<value>0</value>
									</parameter>
								</effect>
							</filter>
						<link>
							<linkclipref>clipitem-54</linkclipref>
							<mediatype>video</mediatype>
							<trackindex>1</trackindex>
							<clipindex>54</clipindex>
						</link>
						<link>
							<linkclipref>clipitem-528</linkclipref>
							<mediatype>audio</mediatype>
							<trackindex>1</trackindex>
							<clipindex>27</clipindex>
							<groupindex>1</groupindex>
						</link>
						<link>
							<linkclipref>clipitem-621</linkclipref>
							<mediatype>audio</mediatype>
							<trackindex>3</trackindex>
							<clipindex>27</clipindex>
							<groupindex>1</groupindex>
						</link>
						<link>
							<linkclipref>clipitem-678</linkclipref>
							<mediatype>audio</mediatype>
							<trackindex>5</trackindex>
							<clipindex>19</clipindex>
							<groupindex>1</groupindex>
						</link>
						<link>
							<linkclipref>clipitem-704</linkclipref>
							<mediatype>audio</mediatype>
							<trackindex>7</trackindex>
							<clipindex>10</clipindex>
							<groupindex>1</groupindex>
						</link>
						<logginginfo>
							<description></description>
							<scene></scene>
							<shottake></shottake>
							<lognote></lognote>
						</logginginfo>
						<labels>
							<label2>Iris</label2>
						</labels>
					</clipitem>
					<transitionitem>
						<start>14650</start>
						<end>14663</end>
						<alignment>center</alignment>
						<cutPointTicks>60963840000</cutPointTicks>
						<rate>
							<timebase>25</timebase>
							<ntsc>FALSE</ntsc>
						</rate>
						<effect>
							<name>Cross Fade (+3dB)</name>
							<effectid>KGAudioTransCrossFade3dB</effectid>
							<effecttype>transition</effecttype>
							<mediatype>audio</mediatype>
							<wipecode>0</wipecode>
							<wipeaccuracy>100</wipeaccuracy>
							<startratio>0</startratio>
							<endratio>1</endratio>
							<reverse>FALSE</reverse>
						</effect>
					</transitionitem>
					<clipitem id="clipitem-705" premiereChannelType="mono">
						<masterclipid>masterclip-43</masterclipid>
						<name>delfin-191016-2017.mxf</name>
						<enabled>TRUE</enabled>
						<duration>233</duration>
						<rate>
							<timebase>25</timebase>
							<ntsc>FALSE</ntsc>
						</rate>
						<start>-1</start>
						<end>-1</end>
						<in>136</in>
						<out>208</out>
						<pproTicksIn>1381847040000</pproTicksIn>
						<pproTicksOut>2113413120000</pproTicksOut>
						<file id="file-43"/>
						<sourcetrack>
							<mediatype>audio</mediatype>
							<trackindex>4</trackindex>
						</sourcetrack>
							<filter>
								<effect>
									<name>Audio Levels</name>
									<effectid>audiolevels</effectid>
									<effectcategory>audiolevels</effectcategory>
									<effecttype>audiolevels</effecttype>
									<mediatype>audio</mediatype>
									<parameter authoringApp="PremierePro">
										<parameterid>level</parameterid>
										<name>Level</name>
										<valuemin>0</valuemin>
										<valuemax>3.98109</valuemax>
										<value>0.86362</value>
									</parameter>
								</effect>
							</filter>
						<logginginfo>
							<description></description>
							<scene></scene>
							<shottake></shottake>
							<lognote></lognote>
						</logginginfo>
						<labels>
							<label2>Iris</label2>
						</labels>
					</clipitem>
					<transitionitem>
						<start>14709</start>
						<end>14722</end>
						<alignment>end-black</alignment>
						<cutPointTicks>132088320000</cutPointTicks>
						<rate>
							<timebase>25</timebase>
							<ntsc>FALSE</ntsc>
						</rate>
						<effect>
							<name>Cross Fade (+3dB)</name>
							<effectid>KGAudioTransCrossFade3dB</effectid>
							<effecttype>transition</effecttype>
							<mediatype>audio</mediatype>
							<wipecode>0</wipecode>
							<wipeaccuracy>100</wipeaccuracy>
							<startratio>0</startratio>
							<endratio>1</endratio>
							<reverse>FALSE</reverse>
						</effect>
					</transitionitem>
					<clipitem id="clipitem-706" premiereChannelType="mono">
						<masterclipid>masterclip-306</masterclipid>
						<name>delfin-191016-2021.mxf</name>
						<enabled>TRUE</enabled>
						<duration>116</duration>
						<rate>
							<timebase>25</timebase>
							<ntsc>FALSE</ntsc>
						</rate>
						<start>15144</start>
						<end>-1</end>
						<in>0</in>
						<out>91</out>
						<pproTicksIn>0</pproTicksIn>
						<pproTicksOut>924618240000</pproTicksOut>
						<file id="file-306"/>
						<sourcetrack>
							<mediatype>audio</mediatype>
							<trackindex>4</trackindex>
						</sourcetrack>
							<filter>
								<effect>
									<name>Audio Levels</name>
									<effectid>audiolevels</effectid>
									<effectcategory>audiolevels</effectcategory>
									<effecttype>audiolevels</effecttype>
									<mediatype>audio</mediatype>
									<parameter authoringApp="PremierePro">
										<parameterid>level</parameterid>
										<name>Level</name>
										<valuemin>0</valuemin>
										<valuemax>3.98109</valuemax>
										<value>0</value>
										<keyframe>
											<when>24</when>
											<value>0</value>
										</keyframe>
										<keyframe>
											<when>28</when>
											<value>0.947748</value>
										</keyframe>
										<keyframe>
											<when>47</when>
											<value>0.99763</value>
										</keyframe>
										<keyframe>
											<when>57</when>
											<value>0</value>
										</keyframe>
									</parameter>
								</effect>
							</filter>
						<link>
							<linkclipref>clipitem-530</linkclipref>
							<mediatype>audio</mediatype>
							<trackindex>1</trackindex>
							<clipindex>30</clipindex>
							<groupindex>1</groupindex>
						</link>
						<link>
							<linkclipref>clipitem-623</linkclipref>
							<mediatype>audio</mediatype>
							<trackindex>3</trackindex>
							<clipindex>30</clipindex>
							<groupindex>1</groupindex>
						</link>
						<link>
							<linkclipref>clipitem-680</linkclipref>
							<mediatype>audio</mediatype>
							<trackindex>5</trackindex>
							<clipindex>22</clipindex>
							<groupindex>1</groupindex>
						</link>
						<link>
							<linkclipref>clipitem-706</linkclipref>
							<mediatype>audio</mediatype>
							<trackindex>7</trackindex>
							<clipindex>14</clipindex>
							<groupindex>1</groupindex>
						</link>
						<logginginfo>
							<description></description>
							<scene></scene>
							<shottake></shottake>
							<lognote></lognote>
						</logginginfo>
						<labels>
							<label2>Iris</label2>
						</labels>
					</clipitem>
					<transitionitem>
						<start>15222</start>
						<end>15235</end>
						<alignment>center</alignment>
						<cutPointTicks>60963840000</cutPointTicks>
						<rate>
							<timebase>25</timebase>
							<ntsc>FALSE</ntsc>
						</rate>
						<effect>
							<name>Cross Fade (+3dB)</name>
							<effectid>KGAudioTransCrossFade3dB</effectid>
							<effecttype>transition</effecttype>
							<mediatype>audio</mediatype>
							<wipecode>0</wipecode>
							<wipeaccuracy>100</wipeaccuracy>
							<startratio>0</startratio>
							<endratio>1</endratio>
							<reverse>FALSE</reverse>
						</effect>
					</transitionitem>
					<clipitem id="clipitem-707" premiereChannelType="mono">
						<masterclipid>masterclip-44</masterclipid>
						<name>delfin-191016-2021.mxf</name>
						<enabled>TRUE</enabled>
						<duration>346</duration>
						<rate>
							<timebase>25</timebase>
							<ntsc>FALSE</ntsc>
						</rate>
						<start>-1</start>
						<end>-1</end>
						<in>78</in>
						<out>328</out>
						<pproTicksIn>792529920000</pproTicksIn>
						<pproTicksOut>3332689920000</pproTicksOut>
						<file id="file-44"/>
						<sourcetrack>
							<mediatype>audio</mediatype>
							<trackindex>4</trackindex>
						</sourcetrack>
							<filter>
								<effect>
									<name>Audio Levels</name>
									<effectid>audiolevels</effectid>
									<effectcategory>audiolevels</effectcategory>
									<effecttype>audiolevels</effecttype>
									<mediatype>audio</mediatype>
									<parameter authoringApp="PremierePro">
										<parameterid>level</parameterid>
										<name>Level</name>
										<valuemin>0</valuemin>
										<valuemax>3.98109</valuemax>
										<value>0.89398</value>
									</parameter>
								</effect>
							</filter>
						<link>
							<linkclipref>clipitem-56</linkclipref>
							<mediatype>video</mediatype>
							<trackindex>1</trackindex>
							<clipindex>56</clipindex>
						</link>
						<link>
							<linkclipref>clipitem-531</linkclipref>
							<mediatype>audio</mediatype>
							<trackindex>1</trackindex>
							<clipindex>32</clipindex>
							<groupindex>1</groupindex>
						</link>
						<link>
							<linkclipref>clipitem-624</linkclipref>
							<mediatype>audio</mediatype>
							<trackindex>3</trackindex>
							<clipindex>32</clipindex>
							<groupindex>1</groupindex>
						</link>
						<link>
							<linkclipref>clipitem-681</linkclipref>
							<mediatype>audio</mediatype>
							<trackindex>5</trackindex>
							<clipindex>24</clipindex>
							<groupindex>1</groupindex>
						</link>
						<link>
							<linkclipref>clipitem-707</linkclipref>
							<mediatype>audio</mediatype>
							<trackindex>7</trackindex>
							<clipindex>16</clipindex>
							<groupindex>1</groupindex>
						</link>
						<logginginfo>
							<description></description>
							<scene></scene>
							<shottake></shottake>
							<lognote></lognote>
						</logginginfo>
						<labels>
							<label2>Iris</label2>
						</labels>
					</clipitem>
					<transitionitem>
						<start>15459</start>
						<end>15472</end>
						<alignment>center</alignment>
						<cutPointTicks>60963840000</cutPointTicks>
						<rate>
							<timebase>25</timebase>
							<ntsc>FALSE</ntsc>
						</rate>
						<effect>
							<name>Cross Fade (+3dB)</name>
							<effectid>KGAudioTransCrossFade3dB</effectid>
							<effecttype>transition</effecttype>
							<mediatype>audio</mediatype>
							<wipecode>0</wipecode>
							<wipeaccuracy>100</wipeaccuracy>
							<startratio>0</startratio>
							<endratio>1</endratio>
							<reverse>FALSE</reverse>
						</effect>
					</transitionitem>
					<clipitem id="clipitem-708" premiereChannelType="mono">
						<masterclipid>masterclip-45</masterclipid>
						<name>delfin-191016-2021.mxf</name>
						<enabled>TRUE</enabled>
						<duration>290</duration>
						<rate>
							<timebase>25</timebase>
							<ntsc>FALSE</ntsc>
						</rate>
						<start>-1</start>
						<end>15705</end>
						<in>19</in>
						<out>265</out>
						<pproTicksIn>193052160000</pproTicksIn>
						<pproTicksOut>2692569600000</pproTicksOut>
						<file id="file-45"/>
						<sourcetrack>
							<mediatype>audio</mediatype>
							<trackindex>4</trackindex>
						</sourcetrack>
							<filter>
								<effect>
									<name>Audio Levels</name>
									<effectid>audiolevels</effectid>
									<effectcategory>audiolevels</effectcategory>
									<effecttype>audiolevels</effecttype>
									<mediatype>audio</mediatype>
									<parameter authoringApp="PremierePro">
										<parameterid>level</parameterid>
										<name>Level</name>
										<valuemin>0</valuemin>
										<valuemax>3.98109</valuemax>
										<value>0</value>
									</parameter>
								</effect>
							</filter>
						<link>
							<linkclipref>clipitem-57</linkclipref>
							<mediatype>video</mediatype>
							<trackindex>1</trackindex>
							<clipindex>57</clipindex>
						</link>
						<link>
							<linkclipref>clipitem-532</linkclipref>
							<mediatype>audio</mediatype>
							<trackindex>1</trackindex>
							<clipindex>34</clipindex>
							<groupindex>1</groupindex>
						</link>
						<link>
							<linkclipref>clipitem-625</linkclipref>
							<mediatype>audio</mediatype>
							<trackindex>3</trackindex>
							<clipindex>33</clipindex>
							<groupindex>1</groupindex>
						</link>
						<link>
							<linkclipref>clipitem-682</linkclipref>
							<mediatype>audio</mediatype>
							<trackindex>5</trackindex>
							<clipindex>25</clipindex>
							<groupindex>1</groupindex>
						</link>
						<link>
							<linkclipref>clipitem-708</linkclipref>
							<mediatype>audio</mediatype>
							<trackindex>7</trackindex>
							<clipindex>18</clipindex>
							<groupindex>1</groupindex>
						</link>
						<logginginfo>
							<description></description>
							<scene></scene>
							<shottake></shottake>
							<lognote></lognote>
						</logginginfo>
						<labels>
							<label2>Iris</label2>
						</labels>
					</clipitem>
					<clipitem id="clipitem-709" premiereChannelType="mono">
						<masterclipid>masterclip-46</masterclipid>
						<name>delfin-191016-1008.mxf</name>
						<enabled>TRUE</enabled>
						<duration>575</duration>
						<rate>
							<timebase>25</timebase>
							<ntsc>FALSE</ntsc>
						</rate>
						<start>15705</start>
						<end>16230</end>
						<in>25</in>
						<out>550</out>
						<pproTicksIn>254016000000</pproTicksIn>
						<pproTicksOut>5588352000000</pproTicksOut>
						<file id="file-46"/>
						<sourcetrack>
							<mediatype>audio</mediatype>
							<trackindex>4</trackindex>
						</sourcetrack>
							<filter>
								<effect>
									<name>Audio Levels</name>
									<effectid>audiolevels</effectid>
									<effectcategory>audiolevels</effectcategory>
									<effecttype>audiolevels</effecttype>
									<mediatype>audio</mediatype>
									<parameter authoringApp="PremierePro">
										<parameterid>level</parameterid>
										<name>Level</name>
										<valuemin>0</valuemin>
										<valuemax>3.98109</valuemax>
										<value>0</value>
										<keyframe>
											<when>97</when>
											<value>0</value>
										</keyframe>
										<keyframe>
											<when>139</when>
											<value>0</value>
										</keyframe>
										<keyframe>
											<when>147</when>
											<value>0.31095</value>
										</keyframe>
										<keyframe>
											<when>161</when>
											<value>0.31095</value>
										</keyframe>
										<keyframe>
											<when>174</when>
											<value>0</value>
										</keyframe>
										<keyframe>
											<when>474</when>
											<value>0</value>
										</keyframe>
										<keyframe>
											<when>483</when>
											<value>0.595987</value>
										</keyframe>
										<keyframe>
											<when>528</when>
											<value>0.595987</value>
										</keyframe>
										<keyframe>
											<when>541</when>
											<value>0</value>
										</keyframe>
									</parameter>
								</effect>
							</filter>
						<logginginfo>
							<description></description>
							<scene></scene>
							<shottake></shottake>
							<lognote></lognote>
						</logginginfo>
						<labels>
							<label2>Iris</label2>
						</labels>
					</clipitem>
					<clipitem id="clipitem-710" premiereChannelType="mono">
						<masterclipid>masterclip-307</masterclipid>
						<name>delfin-191016-1008.mxf</name>
						<enabled>TRUE</enabled>
						<duration>147</duration>
						<rate>
							<timebase>25</timebase>
							<ntsc>FALSE</ntsc>
						</rate>
						<start>16230</start>
						<end>16327</end>
						<in>25</in>
						<out>122</out>
						<pproTicksIn>254016000000</pproTicksIn>
						<pproTicksOut>1239598080000</pproTicksOut>
						<file id="file-307"/>
						<sourcetrack>
							<mediatype>audio</mediatype>
							<trackindex>4</trackindex>
						</sourcetrack>
							<filter>
								<effect>
									<name>Audio Levels</name>
									<effectid>audiolevels</effectid>
									<effectcategory>audiolevels</effectcategory>
									<effecttype>audiolevels</effecttype>
									<mediatype>audio</mediatype>
									<parameter authoringApp="PremierePro">
										<parameterid>level</parameterid>
										<name>Level</name>
										<valuemin>0</valuemin>
										<valuemax>3.98109</valuemax>
										<value>0</value>
										<keyframe>
											<when>68</when>
											<value>0</value>
										</keyframe>
									</parameter>
								</effect>
							</filter>
						<logginginfo>
							<description></description>
							<scene></scene>
							<shottake></shottake>
							<lognote></lognote>
						</logginginfo>
						<labels>
							<label2>Iris</label2>
						</labels>
					</clipitem>
					<clipitem id="clipitem-711" premiereChannelType="mono">
						<masterclipid>masterclip-311</masterclipid>
						<name>Aashild-august-Clip0342.MXF</name>
						<enabled>TRUE</enabled>
						<duration>780</duration>
						<rate>
							<timebase>25</timebase>
							<ntsc>FALSE</ntsc>
						</rate>
						<start>34496</start>
						<end>34642</end>
						<in>562</in>
						<out>708</out>
						<pproTicksIn>5710279680000</pproTicksIn>
						<pproTicksOut>7193733120000</pproTicksOut>
						<pixelaspectratio>square</pixelaspectratio>
						<anamorphic>FALSE</anamorphic>
						<file id="file-311">
							<name>Aashild-august-Clip0342.MXF</name>
							<pathurl>file://localhost/Volumes/Vaagen/Prosjekter/DVNA200216_OAO_Naturforskere_010118_OAO/Ra%cc%8astoff/A%cc%8ashild%20Pedersen/Svalbard%20august/Fs5/Aashild-august-Clip0342.MXF</pathurl>
							<rate>
								<timebase>50</timebase>
								<ntsc>FALSE</ntsc>
							</rate>
							<duration>1560</duration>
							<timecode>
								<rate>
									<timebase>50</timebase>
									<ntsc>FALSE</ntsc>
								</rate>
								<string>03:55:31:34</string>
								<frame>706584</frame>
								<displayformat>NDF</displayformat>
								<reel>
									<name></name>
								</reel>
							</timecode>
							<media>
								<video>
									<samplecharacteristics>
										<rate>
											<timebase>50</timebase>
											<ntsc>FALSE</ntsc>
										</rate>
										<width>1920</width>
										<height>1080</height>
										<anamorphic>FALSE</anamorphic>
										<pixelaspectratio>square</pixelaspectratio>
										<fielddominance>none</fielddominance>
									</samplecharacteristics>
								</video>
								<audio>
									<samplecharacteristics>
										<depth>16</depth>
										<samplerate>48000</samplerate>
									</samplecharacteristics>
									<channelcount>4</channelcount>
								</audio>
							</media>
						</file>
						<sourcetrack>
							<mediatype>audio</mediatype>
							<trackindex>2</trackindex>
						</sourcetrack>
							<filter>
								<effect>
									<name>Audio Levels</name>
									<effectid>audiolevels</effectid>
									<effectcategory>audiolevels</effectcategory>
									<effecttype>audiolevels</effecttype>
									<mediatype>audio</mediatype>
									<parameter authoringApp="PremierePro">
										<parameterid>level</parameterid>
										<name>Level</name>
										<valuemin>0</valuemin>
										<valuemax>3.98109</valuemax>
										<value>0.0962139</value>
										<keyframe>
											<when>563</when>
											<value>0.0668621</value>
										</keyframe>
										<keyframe>
											<when>582</when>
											<value>0.501206</value>
										</keyframe>
										<keyframe>
											<when>684</when>
											<value>0.501206</value>
										</keyframe>
										<keyframe>
											<when>702</when>
											<value>0.0962139</value>
										</keyframe>
									</parameter>
								</effect>
							</filter>
						<logginginfo>
							<description></description>
							<scene></scene>
							<shottake></shottake>
							<lognote></lognote>
						</logginginfo>
						<labels>
							<label2>Caribbean</label2>
						</labels>
					</clipitem>
					<transitionitem>
						<start>34859</start>
						<end>34872</end>
						<alignment>start-black</alignment>
						<cutPointTicks>0</cutPointTicks>
						<rate>
							<timebase>25</timebase>
							<ntsc>FALSE</ntsc>
						</rate>
						<effect>
							<name>Cross Fade (+3dB)</name>
							<effectid>KGAudioTransCrossFade3dB</effectid>
							<effecttype>transition</effecttype>
							<mediatype>audio</mediatype>
							<wipecode>0</wipecode>
							<wipeaccuracy>100</wipeaccuracy>
							<startratio>0</startratio>
							<endratio>1</endratio>
							<reverse>FALSE</reverse>
						</effect>
					</transitionitem>
					<clipitem id="clipitem-712" premiereChannelType="mono">
						<masterclipid>masterclip-197</masterclipid>
						<name>Aashild-august-Clip0756.MXF</name>
						<enabled>TRUE</enabled>
						<duration>192</duration>
						<rate>
							<timebase>25</timebase>
							<ntsc>FALSE</ntsc>
						</rate>
						<start>-1</start>
						<end>34915</end>
						<in>0</in>
						<out>55</out>
						<pproTicksIn>0</pproTicksIn>
						<pproTicksOut>558835200000</pproTicksOut>
						<file id="file-197"/>
						<sourcetrack>
							<mediatype>audio</mediatype>
							<trackindex>2</trackindex>
						</sourcetrack>
						<link>
							<linkclipref>clipitem-315</linkclipref>
							<mediatype>video</mediatype>
							<trackindex>2</trackindex>
							<clipindex>59</clipindex>
						</link>
						<link>
							<linkclipref>clipitem-712</linkclipref>
							<mediatype>audio</mediatype>
							<trackindex>7</trackindex>
							<clipindex>23</clipindex>
							<groupindex>1</groupindex>
						</link>
						<logginginfo>
							<description></description>
							<scene></scene>
							<shottake></shottake>
							<lognote></lognote>
						</logginginfo>
						<labels>
							<label2>Caribbean</label2>
						</labels>
					</clipitem>
					<clipitem id="clipitem-713" premiereChannelType="mono">
						<masterclipid>masterclip-198</masterclipid>
						<name>Aashild-august-Clip0753.MXF</name>
						<enabled>TRUE</enabled>
						<duration>1308</duration>
						<rate>
							<timebase>25</timebase>
							<ntsc>FALSE</ntsc>
						</rate>
						<start>34915</start>
						<end>34969</end>
						<in>127</in>
						<out>181</out>
						<pproTicksIn>1290401280000</pproTicksIn>
						<pproTicksOut>1839075840000</pproTicksOut>
						<file id="file-198"/>
						<sourcetrack>
							<mediatype>audio</mediatype>
							<trackindex>2</trackindex>
						</sourcetrack>
						<link>
							<linkclipref>clipitem-316</linkclipref>
							<mediatype>video</mediatype>
							<trackindex>2</trackindex>
							<clipindex>60</clipindex>
						</link>
						<link>
							<linkclipref>clipitem-713</linkclipref>
							<mediatype>audio</mediatype>
							<trackindex>7</trackindex>
							<clipindex>24</clipindex>
							<groupindex>1</groupindex>
						</link>
						<logginginfo>
							<description></description>
							<scene></scene>
							<shottake></shottake>
							<lognote></lognote>
						</logginginfo>
						<labels>
							<label2>Caribbean</label2>
						</labels>
					</clipitem>
					<clipitem id="clipitem-714" premiereChannelType="mono">
						<masterclipid>masterclip-199</masterclipid>
						<name>Aashild-august-Clip0754.MXF</name>
						<enabled>TRUE</enabled>
						<duration>4668</duration>
						<rate>
							<timebase>25</timebase>
							<ntsc>FALSE</ntsc>
						</rate>
						<start>34969</start>
						<end>34998</end>
						<in>283</in>
						<out>312</out>
						<pproTicksIn>2875461120000</pproTicksIn>
						<pproTicksOut>3170119680000</pproTicksOut>
						<file id="file-199"/>
						<sourcetrack>
							<mediatype>audio</mediatype>
							<trackindex>2</trackindex>
						</sourcetrack>
						<link>
							<linkclipref>clipitem-317</linkclipref>
							<mediatype>video</mediatype>
							<trackindex>2</trackindex>
							<clipindex>61</clipindex>
						</link>
						<link>
							<linkclipref>clipitem-714</linkclipref>
							<mediatype>audio</mediatype>
							<trackindex>7</trackindex>
							<clipindex>25</clipindex>
							<groupindex>1</groupindex>
						</link>
						<logginginfo>
							<description></description>
							<scene></scene>
							<shottake></shottake>
							<lognote></lognote>
						</logginginfo>
						<labels>
							<label2>Caribbean</label2>
						</labels>
					</clipitem>
					<clipitem id="clipitem-715" premiereChannelType="mono">
						<masterclipid>masterclip-199</masterclipid>
						<name>Aashild-august-Clip0754.MXF</name>
						<enabled>TRUE</enabled>
						<duration>4668</duration>
						<rate>
							<timebase>25</timebase>
							<ntsc>FALSE</ntsc>
						</rate>
						<start>34998</start>
						<end>35027</end>
						<in>410</in>
						<out>439</out>
						<pproTicksIn>4165862400000</pproTicksIn>
						<pproTicksOut>4460520960000</pproTicksOut>
						<file id="file-199"/>
						<sourcetrack>
							<mediatype>audio</mediatype>
							<trackindex>2</trackindex>
						</sourcetrack>
						<link>
							<linkclipref>clipitem-318</linkclipref>
							<mediatype>video</mediatype>
							<trackindex>2</trackindex>
							<clipindex>62</clipindex>
						</link>
						<link>
							<linkclipref>clipitem-715</linkclipref>
							<mediatype>audio</mediatype>
							<trackindex>7</trackindex>
							<clipindex>26</clipindex>
							<groupindex>1</groupindex>
						</link>
						<logginginfo>
							<description></description>
							<scene></scene>
							<shottake></shottake>
							<lognote></lognote>
						</logginginfo>
						<labels>
							<label2>Caribbean</label2>
						</labels>
					</clipitem>
					<clipitem id="clipitem-716" premiereChannelType="mono">
						<masterclipid>masterclip-199</masterclipid>
						<name>Aashild-august-Clip0754.MXF</name>
						<enabled>TRUE</enabled>
						<duration>4668</duration>
						<rate>
							<timebase>25</timebase>
							<ntsc>FALSE</ntsc>
						</rate>
						<start>35027</start>
						<end>35061</end>
						<in>3694</in>
						<out>3728</out>
						<pproTicksIn>37533404160000</pproTicksIn>
						<pproTicksOut>37878865920000</pproTicksOut>
						<file id="file-199"/>
						<sourcetrack>
							<mediatype>audio</mediatype>
							<trackindex>2</trackindex>
						</sourcetrack>
						<link>
							<linkclipref>clipitem-319</linkclipref>
							<mediatype>video</mediatype>
							<trackindex>2</trackindex>
							<clipindex>63</clipindex>
						</link>
						<link>
							<linkclipref>clipitem-716</linkclipref>
							<mediatype>audio</mediatype>
							<trackindex>7</trackindex>
							<clipindex>27</clipindex>
							<groupindex>1</groupindex>
						</link>
						<logginginfo>
							<description></description>
							<scene></scene>
							<shottake></shottake>
							<lognote></lognote>
						</logginginfo>
						<labels>
							<label2>Caribbean</label2>
						</labels>
					</clipitem>
					<clipitem id="clipitem-717" premiereChannelType="mono">
						<masterclipid>masterclip-200</masterclipid>
						<name>Aashild-august-Clip0755.MXF</name>
						<enabled>TRUE</enabled>
						<duration>6192</duration>
						<rate>
							<timebase>25</timebase>
							<ntsc>FALSE</ntsc>
						</rate>
						<start>35061</start>
						<end>35104</end>
						<in>4125</in>
						<out>4168</out>
						<pproTicksIn>41912640000000</pproTicksIn>
						<pproTicksOut>42349547520000</pproTicksOut>
						<file id="file-200"/>
						<sourcetrack>
							<mediatype>audio</mediatype>
							<trackindex>2</trackindex>
						</sourcetrack>
						<link>
							<linkclipref>clipitem-320</linkclipref>
							<mediatype>video</mediatype>
							<trackindex>2</trackindex>
							<clipindex>64</clipindex>
						</link>
						<link>
							<linkclipref>clipitem-717</linkclipref>
							<mediatype>audio</mediatype>
							<trackindex>7</trackindex>
							<clipindex>28</clipindex>
							<groupindex>1</groupindex>
						</link>
						<logginginfo>
							<description></description>
							<scene></scene>
							<shottake></shottake>
							<lognote></lognote>
						</logginginfo>
						<labels>
							<label2>Caribbean</label2>
						</labels>
					</clipitem>
					<clipitem id="clipitem-718" premiereChannelType="mono">
						<masterclipid>masterclip-93</masterclipid>
						<name>Aashild-august-Clip0760.MXF</name>
						<enabled>TRUE</enabled>
						<duration>1128</duration>
						<rate>
							<timebase>25</timebase>
							<ntsc>FALSE</ntsc>
						</rate>
						<start>35104</start>
						<end>35161</end>
						<in>201</in>
						<out>258</out>
						<pproTicksIn>2042288640000</pproTicksIn>
						<pproTicksOut>2621445120000</pproTicksOut>
						<file id="file-93"/>
						<sourcetrack>
							<mediatype>audio</mediatype>
							<trackindex>3</trackindex>
						</sourcetrack>
						<link>
							<linkclipref>clipitem-321</linkclipref>
							<mediatype>video</mediatype>
							<trackindex>2</trackindex>
							<clipindex>65</clipindex>
						</link>
						<link>
							<linkclipref>clipitem-646</linkclipref>
							<mediatype>audio</mediatype>
							<trackindex>3</trackindex>
							<clipindex>59</clipindex>
							<groupindex>1</groupindex>
						</link>
						<link>
							<linkclipref>clipitem-691</linkclipref>
							<mediatype>audio</mediatype>
							<trackindex>5</trackindex>
							<clipindex>34</clipindex>
							<groupindex>1</groupindex>
						</link>
						<link>
							<linkclipref>clipitem-718</linkclipref>
							<mediatype>audio</mediatype>
							<trackindex>7</trackindex>
							<clipindex>29</clipindex>
							<groupindex>1</groupindex>
						</link>
						<link>
							<linkclipref>clipitem-772</linkclipref>
							<mediatype>audio</mediatype>
							<trackindex>8</trackindex>
							<clipindex>66</clipindex>
							<groupindex>1</groupindex>
						</link>
						<logginginfo>
							<description></description>
							<scene></scene>
							<shottake></shottake>
							<lognote></lognote>
						</logginginfo>
						<labels>
							<label2>Caribbean</label2>
						</labels>
					</clipitem>
					<clipitem id="clipitem-719" premiereChannelType="mono">
						<masterclipid>masterclip-93</masterclipid>
						<name>Aashild-august-Clip0760.MXF</name>
						<enabled>TRUE</enabled>
						<duration>1128</duration>
						<rate>
							<timebase>25</timebase>
							<ntsc>FALSE</ntsc>
						</rate>
						<start>35218</start>
						<end>35294</end>
						<in>754</in>
						<out>830</out>
						<pproTicksIn>7661122560000</pproTicksIn>
						<pproTicksOut>8433331200000</pproTicksOut>
						<file id="file-93"/>
						<sourcetrack>
							<mediatype>audio</mediatype>
							<trackindex>2</trackindex>
						</sourcetrack>
						<logginginfo>
							<description></description>
							<scene></scene>
							<shottake></shottake>
							<lognote></lognote>
						</logginginfo>
						<labels>
							<label2>Caribbean</label2>
						</labels>
					</clipitem>
					<clipitem id="clipitem-720" premiereChannelType="mono">
						<masterclipid>masterclip-201</masterclipid>
						<name>Aashild-august-Clip0757.MXF</name>
						<enabled>TRUE</enabled>
						<duration>3204</duration>
						<rate>
							<timebase>25</timebase>
							<ntsc>FALSE</ntsc>
						</rate>
						<start>35294</start>
						<end>35556</end>
						<in>2069</in>
						<out>2331</out>
						<pproTicksIn>21022364160000</pproTicksIn>
						<pproTicksOut>23684451840000</pproTicksOut>
						<file id="file-201"/>
						<sourcetrack>
							<mediatype>audio</mediatype>
							<trackindex>2</trackindex>
						</sourcetrack>
							<filter>
								<effect>
									<name>Audio Levels</name>
									<effectid>audiolevels</effectid>
									<effectcategory>audiolevels</effectcategory>
									<effecttype>audiolevels</effecttype>
									<mediatype>audio</mediatype>
									<parameter authoringApp="PremierePro">
										<parameterid>level</parameterid>
										<name>Level</name>
										<valuemin>0</valuemin>
										<valuemax>3.98109</valuemax>
										<value>0.0626274</value>
										<keyframe>
											<when>2069</when>
											<value>0.0668621</value>
										</keyframe>
										<keyframe>
											<when>2077</when>
											<value>1.57911</value>
										</keyframe>
										<keyframe>
											<when>2135</when>
											<value>1.57911</value>
										</keyframe>
										<keyframe>
											<when>2183</when>
											<value>0.485815</value>
										</keyframe>
										<keyframe>
											<when>2233</when>
											<value>0.0626274</value>
										</keyframe>
									</parameter>
								</effect>
							</filter>
						<link>
							<linkclipref>clipitem-323</linkclipref>
							<mediatype>video</mediatype>
							<trackindex>2</trackindex>
							<clipindex>67</clipindex>
						</link>
						<link>
							<linkclipref>clipitem-720</linkclipref>
							<mediatype>audio</mediatype>
							<trackindex>7</trackindex>
							<clipindex>31</clipindex>
							<groupindex>1</groupindex>
						</link>
						<logginginfo>
							<description></description>
							<scene></scene>
							<shottake></shottake>
							<lognote></lognote>
						</logginginfo>
						<labels>
							<label2>Caribbean</label2>
						</labels>
					</clipitem>
					<enabled>TRUE</enabled>
					<locked>FALSE</locked>
					<outputchannelindex>1</outputchannelindex>
				</track>
				<track TL.SQTrackAudioKeyframeStyle="0" TL.SQTrackShy="0" TL.SQTrackExpandedHeight="58" TL.SQTrackExpanded="1" MZ.TrackTargeted="1" PannerCurrentValue="0.5" PannerIsInverted="true" PannerStartKeyframe="-91445760000000000,0.5,0,0,0,0,0,0" PannerName="Balance" currentExplodedTrackIndex="0" totalExplodedTrackCount="2" premiereTrackType="Stereo">
					<clipitem id="clipitem-721" premiereChannelType="stereo">
						<masterclipid>masterclip-10</masterclipid>
						<name>AA260901.MXF</name>
						<enabled>TRUE</enabled>
						<duration>1164</duration>
						<rate>
							<timebase>25</timebase>
							<ntsc>FALSE</ntsc>
						</rate>
						<start>506</start>
						<end>-1</end>
						<in>144</in>
						<out>492</out>
						<pproTicksIn>1463132160000</pproTicksIn>
						<pproTicksOut>4999034880000</pproTicksOut>
						<file id="file-10"/>
						<sourcetrack>
							<mediatype>audio</mediatype>
							<trackindex>1</trackindex>
						</sourcetrack>
						<link>
							<linkclipref>clipitem-11</linkclipref>
							<mediatype>video</mediatype>
							<trackindex>1</trackindex>
							<clipindex>11</clipindex>
						</link>
						<link>
							<linkclipref>clipitem-721</linkclipref>
							<mediatype>audio</mediatype>
							<trackindex>8</trackindex>
							<clipindex>1</clipindex>
							<groupindex>1</groupindex>
						</link>
						<link>
							<linkclipref>clipitem-817</linkclipref>
							<mediatype>audio</mediatype>
							<trackindex>9</trackindex>
							<clipindex>1</clipindex>
							<groupindex>1</groupindex>
						</link>
						<logginginfo>
							<description></description>
							<scene></scene>
							<shottake></shottake>
							<lognote></lognote>
						</logginginfo>
						<labels>
							<label2>Iris</label2>
						</labels>
					</clipitem>
					<transitionitem>
						<start>841</start>
						<end>854</end>
						<alignment>center</alignment>
						<cutPointTicks>60963840000</cutPointTicks>
						<rate>
							<timebase>25</timebase>
							<ntsc>FALSE</ntsc>
						</rate>
						<effect>
							<name>Cross Fade (+3dB)</name>
							<effectid>KGAudioTransCrossFade3dB</effectid>
							<effecttype>transition</effecttype>
							<mediatype>audio</mediatype>
							<wipecode>0</wipecode>
							<wipeaccuracy>100</wipeaccuracy>
							<startratio>0</startratio>
							<endratio>1</endratio>
							<reverse>FALSE</reverse>
						</effect>
					</transitionitem>
					<clipitem id="clipitem-722" premiereChannelType="stereo">
						<masterclipid>masterclip-10</masterclipid>
						<name>AA260901.MXF</name>
						<enabled>TRUE</enabled>
						<duration>1164</duration>
						<rate>
							<timebase>25</timebase>
							<ntsc>FALSE</ntsc>
						</rate>
						<start>-1</start>
						<end>1203</end>
						<in>646</in>
						<out>1008</out>
						<pproTicksIn>6563773440000</pproTicksIn>
						<pproTicksOut>10241925120000</pproTicksOut>
						<file id="file-10"/>
						<sourcetrack>
							<mediatype>audio</mediatype>
							<trackindex>1</trackindex>
						</sourcetrack>
						<link>
							<linkclipref>clipitem-722</linkclipref>
							<mediatype>audio</mediatype>
							<trackindex>8</trackindex>
							<clipindex>3</clipindex>
							<groupindex>1</groupindex>
						</link>
						<link>
							<linkclipref>clipitem-818</linkclipref>
							<mediatype>audio</mediatype>
							<trackindex>9</trackindex>
							<clipindex>3</clipindex>
							<groupindex>1</groupindex>
						</link>
						<logginginfo>
							<description></description>
							<scene></scene>
							<shottake></shottake>
							<lognote></lognote>
						</logginginfo>
						<labels>
							<label2>Iris</label2>
						</labels>
					</clipitem>
					<clipitem id="clipitem-723" premiereChannelType="stereo">
						<masterclipid>masterclip-161</masterclipid>
						<name>Nordvisjon3MASTER i-lyd.mxf</name>
						<enabled>TRUE</enabled>
						<duration>449</duration>
						<rate>
							<timebase>25</timebase>
							<ntsc>FALSE</ntsc>
						</rate>
						<start>1765</start>
						<end>2108</end>
						<in>70</in>
						<out>413</out>
						<pproTicksIn>711244800000</pproTicksIn>
						<pproTicksOut>4196344320000</pproTicksOut>
						<file id="file-161"/>
						<sourcetrack>
							<mediatype>audio</mediatype>
							<trackindex>1</trackindex>
						</sourcetrack>
							<filter>
								<effect>
									<name>Audio Levels</name>
									<effectid>audiolevels</effectid>
									<effectcategory>audiolevels</effectcategory>
									<effecttype>audiolevels</effecttype>
									<mediatype>audio</mediatype>
									<parameter authoringApp="PremierePro">
										<parameterid>level</parameterid>
										<name>Level</name>
										<valuemin>0</valuemin>
										<valuemax>3.98109</valuemax>
										<value>0</value>
										<keyframe>
											<when>141</when>
											<value>0</value>
										</keyframe>
										<keyframe>
											<when>172</when>
											<value>0.406442</value>
										</keyframe>
										<keyframe>
											<when>276</when>
											<value>0.406442</value>
										</keyframe>
										<keyframe>
											<when>341</when>
											<value>0</value>
										</keyframe>
									</parameter>
								</effect>
							</filter>
						<link>
							<linkclipref>clipitem-723</linkclipref>
							<mediatype>audio</mediatype>
							<trackindex>8</trackindex>
							<clipindex>4</clipindex>
							<groupindex>1</groupindex>
						</link>
						<link>
							<linkclipref>clipitem-819</linkclipref>
							<mediatype>audio</mediatype>
							<trackindex>9</trackindex>
							<clipindex>4</clipindex>
							<groupindex>1</groupindex>
						</link>
						<logginginfo>
							<description></description>
							<scene></scene>
							<shottake></shottake>
							<lognote></lognote>
						</logginginfo>
						<labels>
							<label2>Iris</label2>
						</labels>
					</clipitem>
					<clipitem id="clipitem-724" premiereChannelType="stereo">
						<masterclipid>masterclip-23</masterclipid>
						<name>AA262501.MXF</name>
						<enabled>TRUE</enabled>
						<duration>1800</duration>
						<rate>
							<timebase>25</timebase>
							<ntsc>FALSE</ntsc>
						</rate>
						<start>3396</start>
						<end>3549</end>
						<in>459</in>
						<out>612</out>
						<pproTicksIn>4663733760000</pproTicksIn>
						<pproTicksOut>6218311680000</pproTicksOut>
						<file id="file-23"/>
						<sourcetrack>
							<mediatype>audio</mediatype>
							<trackindex>1</trackindex>
						</sourcetrack>
						<link>
							<linkclipref>clipitem-29</linkclipref>
							<mediatype>video</mediatype>
							<trackindex>1</trackindex>
							<clipindex>29</clipindex>
						</link>
						<link>
							<linkclipref>clipitem-724</linkclipref>
							<mediatype>audio</mediatype>
							<trackindex>8</trackindex>
							<clipindex>5</clipindex>
							<groupindex>1</groupindex>
						</link>
						<link>
							<linkclipref>clipitem-820</linkclipref>
							<mediatype>audio</mediatype>
							<trackindex>9</trackindex>
							<clipindex>5</clipindex>
							<groupindex>1</groupindex>
						</link>
						<logginginfo>
							<description></description>
							<scene></scene>
							<shottake></shottake>
							<lognote></lognote>
						</logginginfo>
						<labels>
							<label2>Iris</label2>
						</labels>
					</clipitem>
					<transitionitem>
						<start>3574</start>
						<end>3656</end>
						<alignment>start-black</alignment>
						<cutPointTicks>0</cutPointTicks>
						<rate>
							<timebase>25</timebase>
							<ntsc>FALSE</ntsc>
						</rate>
						<effect>
							<name>Cross Fade (+3dB)</name>
							<effectid>KGAudioTransCrossFade3dB</effectid>
							<effecttype>transition</effecttype>
							<mediatype>audio</mediatype>
							<wipecode>0</wipecode>
							<wipeaccuracy>100</wipeaccuracy>
							<startratio>0</startratio>
							<endratio>1</endratio>
							<reverse>FALSE</reverse>
						</effect>
					</transitionitem>
					<clipitem id="clipitem-725" premiereChannelType="stereo">
						<masterclipid>masterclip-24</masterclipid>
						<name>20160325171754.m2ts</name>
						<enabled>TRUE</enabled>
						<duration>4550</duration>
						<rate>
							<timebase>25</timebase>
							<ntsc>FALSE</ntsc>
						</rate>
						<start>-1</start>
						<end>4138</end>
						<in>3741</in>
						<out>4305</out>
						<pproTicksIn>38010954240000</pproTicksIn>
						<pproTicksOut>43741555200000</pproTicksOut>
						<file id="file-24"/>
						<sourcetrack>
							<mediatype>audio</mediatype>
							<trackindex>1</trackindex>
						</sourcetrack>
							<filter>
								<effect>
									<name>Audio Levels</name>
									<effectid>audiolevels</effectid>
									<effectcategory>audiolevels</effectcategory>
									<effecttype>audiolevels</effecttype>
									<mediatype>audio</mediatype>
									<parameter authoringApp="PremierePro">
										<parameterid>level</parameterid>
										<name>Level</name>
										<valuemin>0</valuemin>
										<valuemax>3.98109</valuemax>
										<value>0</value>
										<keyframe>
											<when>4253</when>
											<value>0.99763</value>
										</keyframe>
										<keyframe>
											<when>4279</when>
											<value>0</value>
										</keyframe>
									</parameter>
								</effect>
							</filter>
						<link>
							<linkclipref>clipitem-30</linkclipref>
							<mediatype>video</mediatype>
							<trackindex>1</trackindex>
							<clipindex>30</clipindex>
						</link>
						<link>
							<linkclipref>clipitem-725</linkclipref>
							<mediatype>audio</mediatype>
							<trackindex>8</trackindex>
							<clipindex>7</clipindex>
							<groupindex>1</groupindex>
						</link>
						<link>
							<linkclipref>clipitem-821</linkclipref>
							<mediatype>audio</mediatype>
							<trackindex>9</trackindex>
							<clipindex>7</clipindex>
							<groupindex>1</groupindex>
						</link>
						<logginginfo>
							<description></description>
							<scene></scene>
							<shottake></shottake>
							<lognote></lognote>
						</logginginfo>
						<labels>
							<label2>Iris</label2>
						</labels>
					</clipitem>
					<clipitem id="clipitem-726" premiereChannelType="stereo">
						<masterclipid>masterclip-26</masterclipid>
						<name>AA263101.MXF</name>
						<enabled>TRUE</enabled>
						<duration>3336</duration>
						<rate>
							<timebase>25</timebase>
							<ntsc>FALSE</ntsc>
						</rate>
						<start>5997</start>
						<end>6052</end>
						<in>1998</in>
						<out>2053</out>
						<pproTicksIn>20300958720000</pproTicksIn>
						<pproTicksOut>20859793920000</pproTicksOut>
						<file id="file-26"/>
						<sourcetrack>
							<mediatype>audio</mediatype>
							<trackindex>1</trackindex>
						</sourcetrack>
						<link>
							<linkclipref>clipitem-726</linkclipref>
							<mediatype>audio</mediatype>
							<trackindex>8</trackindex>
							<clipindex>8</clipindex>
							<groupindex>1</groupindex>
						</link>
						<link>
							<linkclipref>clipitem-822</linkclipref>
							<mediatype>audio</mediatype>
							<trackindex>9</trackindex>
							<clipindex>8</clipindex>
							<groupindex>1</groupindex>
						</link>
						<logginginfo>
							<description></description>
							<scene></scene>
							<shottake></shottake>
							<lognote></lognote>
						</logginginfo>
						<labels>
							<label2>Iris</label2>
						</labels>
					</clipitem>
					<clipitem id="clipitem-727" premiereChannelType="stereo">
						<masterclipid>masterclip-312</masterclipid>
						<name>Ut i naturen 1 Drifter I-lyd.wav</name>
						<enabled>TRUE</enabled>
						<duration>58414</duration>
						<rate>
							<timebase>25</timebase>
							<ntsc>FALSE</ntsc>
						</rate>
						<start>7122</start>
						<end>-1</end>
						<in>26597</in>
						<out>26676</out>
						<pproTicksIn>270242542080000</pproTicksIn>
						<pproTicksOut>271045232640000</pproTicksOut>
						<file id="file-312">
							<name>Ut i naturen 1 Drifter I-lyd.wav</name>
							<pathurl>file://localhost/Volumes/Svartediket/Prosjekter/DVNA201815_Ut%20i%20naturen_FAL_010117/Eksport/Fra%20lyd/Ut%20i%20naturen%201%20Drifter%20I-lyd.wav</pathurl>
							<rate>
								<timebase>30</timebase>
								<ntsc>TRUE</ntsc>
							</rate>
							<duration>70027</duration>
							<timecode>
								<rate>
									<timebase>30</timebase>
									<ntsc>TRUE</ntsc>
								</rate>
								<string>00;00;00;00</string>
								<frame>0</frame>
								<displayformat>DF</displayformat>
								<reel>
									<name></name>
								</reel>
							</timecode>
							<media>
								<audio>
									<samplecharacteristics>
										<depth>16</depth>
										<samplerate>48000</samplerate>
									</samplecharacteristics>
									<channelcount>2</channelcount>
								</audio>
							</media>
						</file>
						<sourcetrack>
							<mediatype>audio</mediatype>
							<trackindex>1</trackindex>
						</sourcetrack>
							<filter>
								<effect>
									<name>Audio Levels</name>
									<effectid>audiolevels</effectid>
									<effectcategory>audiolevels</effectcategory>
									<effecttype>audiolevels</effecttype>
									<mediatype>audio</mediatype>
									<parameter authoringApp="PremierePro">
										<parameterid>level</parameterid>
										<name>Level</name>
										<valuemin>0</valuemin>
										<valuemax>3.98109</valuemax>
										<value>0.0906936</value>
										<keyframe>
											<when>26451</when>
											<value>0.0906936</value>
										</keyframe>
										<keyframe>
											<when>26470</when>
											<value>0.544162</value>
										</keyframe>
										<keyframe>
											<when>26512</when>
											<value>0.544162</value>
										</keyframe>
										<keyframe>
											<when>26520</when>
											<value>0.99763</value>
										</keyframe>
										<keyframe>
											<when>26604</when>
											<value>0</value>
										</keyframe>
										<keyframe>
											<when>26617</when>
											<value>0.99763</value>
										</keyframe>
									</parameter>
								</effect>
							</filter>
						<link>
							<linkclipref>clipitem-727</linkclipref>
							<mediatype>audio</mediatype>
							<trackindex>8</trackindex>
							<clipindex>9</clipindex>
							<groupindex>1</groupindex>
						</link>
						<link>
							<linkclipref>clipitem-823</linkclipref>
							<mediatype>audio</mediatype>
							<trackindex>9</trackindex>
							<clipindex>9</clipindex>
							<groupindex>1</groupindex>
						</link>
						<logginginfo>
							<description></description>
							<scene></scene>
							<shottake></shottake>
							<lognote></lognote>
						</logginginfo>
						<labels>
							<label2>Iris</label2>
						</labels>
					</clipitem>
					<transitionitem>
						<start>7188</start>
						<end>7201</end>
						<alignment>center</alignment>
						<cutPointTicks>60963840000</cutPointTicks>
						<rate>
							<timebase>25</timebase>
							<ntsc>FALSE</ntsc>
						</rate>
						<effect>
							<name>Cross Fade (+3dB)</name>
							<effectid>KGAudioTransCrossFade3dB</effectid>
							<effecttype>transition</effecttype>
							<mediatype>audio</mediatype>
							<wipecode>0</wipecode>
							<wipeaccuracy>100</wipeaccuracy>
							<startratio>0</startratio>
							<endratio>1</endratio>
							<reverse>FALSE</reverse>
						</effect>
					</transitionitem>
					<clipitem id="clipitem-728" premiereChannelType="stereo">
						<masterclipid>masterclip-312</masterclipid>
						<name>Ut i naturen 1 Drifter I-lyd.wav</name>
						<enabled>TRUE</enabled>
						<duration>58414</duration>
						<rate>
							<timebase>25</timebase>
							<ntsc>FALSE</ntsc>
						</rate>
						<start>-1</start>
						<end>7523</end>
						<in>26777</in>
						<out>27112</out>
						<pproTicksIn>272071457280000</pproTicksIn>
						<pproTicksOut>275475271680000</pproTicksOut>
						<file id="file-312"/>
						<sourcetrack>
							<mediatype>audio</mediatype>
							<trackindex>1</trackindex>
						</sourcetrack>
						<link>
							<linkclipref>clipitem-728</linkclipref>
							<mediatype>audio</mediatype>
							<trackindex>8</trackindex>
							<clipindex>11</clipindex>
							<groupindex>1</groupindex>
						</link>
						<link>
							<linkclipref>clipitem-824</linkclipref>
							<mediatype>audio</mediatype>
							<trackindex>9</trackindex>
							<clipindex>11</clipindex>
							<groupindex>1</groupindex>
						</link>
						<logginginfo>
							<description></description>
							<scene></scene>
							<shottake></shottake>
							<lognote></lognote>
						</logginginfo>
						<labels>
							<label2>Iris</label2>
						</labels>
					</clipitem>
					<clipitem id="clipitem-729" premiereChannelType="stereo">
						<masterclipid>masterclip-313</masterclipid>
						<name>Ut i naturen 1 Drifter Ferdigmix.wav</name>
						<enabled>TRUE</enabled>
						<duration>58414</duration>
						<rate>
							<timebase>25</timebase>
							<ntsc>FALSE</ntsc>
						</rate>
						<start>7523</start>
						<end>-1</end>
						<in>27112</in>
						<out>28493</out>
						<pproTicksIn>275475271680000</pproTicksIn>
						<pproTicksOut>289507115520000</pproTicksOut>
						<file id="file-313">
							<name>Ut i naturen 1 Drifter Ferdigmix.wav</name>
							<pathurl>file://localhost/Volumes/Svartediket/Prosjekter/DVNA201815_Ut%20i%20naturen_FAL_010117/Eksport/Fra%20lyd/Ut%20i%20naturen%201%20Drifter%20Ferdigmix.wav</pathurl>
							<rate>
								<timebase>30</timebase>
								<ntsc>TRUE</ntsc>
							</rate>
							<duration>70027</duration>
							<timecode>
								<rate>
									<timebase>30</timebase>
									<ntsc>TRUE</ntsc>
								</rate>
								<string>00;00;00;00</string>
								<frame>0</frame>
								<displayformat>DF</displayformat>
								<reel>
									<name></name>
								</reel>
							</timecode>
							<media>
								<audio>
									<samplecharacteristics>
										<depth>16</depth>
										<samplerate>48000</samplerate>
									</samplecharacteristics>
									<channelcount>2</channelcount>
								</audio>
							</media>
						</file>
						<sourcetrack>
							<mediatype>audio</mediatype>
							<trackindex>1</trackindex>
						</sourcetrack>
						<link>
							<linkclipref>clipitem-729</linkclipref>
							<mediatype>audio</mediatype>
							<trackindex>8</trackindex>
							<clipindex>12</clipindex>
							<groupindex>1</groupindex>
						</link>
						<link>
							<linkclipref>clipitem-825</linkclipref>
							<mediatype>audio</mediatype>
							<trackindex>9</trackindex>
							<clipindex>12</clipindex>
							<groupindex>1</groupindex>
						</link>
						<logginginfo>
							<description></description>
							<scene></scene>
							<shottake></shottake>
							<lognote></lognote>
						</logginginfo>
						<labels>
							<label2>Iris</label2>
						</labels>
					</clipitem>
					<transitionitem>
						<start>8891</start>
						<end>8904</end>
						<alignment>end-black</alignment>
						<cutPointTicks>132088320000</cutPointTicks>
						<rate>
							<timebase>25</timebase>
							<ntsc>FALSE</ntsc>
						</rate>
						<effect>
							<name>Cross Fade (+3dB)</name>
							<effectid>KGAudioTransCrossFade3dB</effectid>
							<effecttype>transition</effecttype>
							<mediatype>audio</mediatype>
							<wipecode>0</wipecode>
							<wipeaccuracy>100</wipeaccuracy>
							<startratio>0</startratio>
							<endratio>1</endratio>
							<reverse>FALSE</reverse>
						</effect>
					</transitionitem>
					<transitionitem>
						<start>8935</start>
						<end>8948</end>
						<alignment>start-black</alignment>
						<cutPointTicks>0</cutPointTicks>
						<rate>
							<timebase>25</timebase>
							<ntsc>FALSE</ntsc>
						</rate>
						<effect>
							<name>Cross Fade (+3dB)</name>
							<effectid>KGAudioTransCrossFade3dB</effectid>
							<effecttype>transition</effecttype>
							<mediatype>audio</mediatype>
							<wipecode>0</wipecode>
							<wipeaccuracy>100</wipeaccuracy>
							<startratio>0</startratio>
							<endratio>1</endratio>
							<reverse>FALSE</reverse>
						</effect>
					</transitionitem>
					<clipitem id="clipitem-730" premiereChannelType="stereo">
						<masterclipid>masterclip-29</masterclipid>
						<name>DVNA60000316AA</name>
						<enabled>TRUE</enabled>
						<duration>58641</duration>
						<rate>
							<timebase>25</timebase>
							<ntsc>FALSE</ntsc>
						</rate>
						<start>-1</start>
						<end>-1</end>
						<in>32597</in>
						<out>32675</out>
						<pproTicksIn>331206382080000</pproTicksIn>
						<pproTicksOut>331998912000000</pproTicksOut>
						<file id="file-29"/>
						<sourcetrack>
							<mediatype>audio</mediatype>
							<trackindex>3</trackindex>
						</sourcetrack>
						<link>
							<linkclipref>clipitem-730</linkclipref>
							<mediatype>audio</mediatype>
							<trackindex>8</trackindex>
							<clipindex>15</clipindex>
							<groupindex>1</groupindex>
						</link>
						<link>
							<linkclipref>clipitem-826</linkclipref>
							<mediatype>audio</mediatype>
							<trackindex>9</trackindex>
							<clipindex>15</clipindex>
							<groupindex>1</groupindex>
						</link>
						<logginginfo>
							<description>Ut i naturen - Hornøya</description>
							<scene></scene>
							<shottake></shottake>
							<lognote></lognote>
						</logginginfo>
						<labels>
							<label2>Iris</label2>
						</labels>
					</clipitem>
					<transitionitem>
						<start>9000</start>
						<end>9013</end>
						<alignment>center</alignment>
						<cutPointTicks>60963840000</cutPointTicks>
						<rate>
							<timebase>25</timebase>
							<ntsc>FALSE</ntsc>
						</rate>
						<effect>
							<name>Cross Fade (+3dB)</name>
							<effectid>KGAudioTransCrossFade3dB</effectid>
							<effecttype>transition</effecttype>
							<mediatype>audio</mediatype>
							<wipecode>0</wipecode>
							<wipeaccuracy>100</wipeaccuracy>
							<startratio>0</startratio>
							<endratio>1</endratio>
							<reverse>FALSE</reverse>
						</effect>
					</transitionitem>
					<clipitem id="clipitem-731" premiereChannelType="stereo">
						<masterclipid>masterclip-29</masterclipid>
						<name>DVNA60000316AA</name>
						<enabled>TRUE</enabled>
						<duration>58641</duration>
						<rate>
							<timebase>25</timebase>
							<ntsc>FALSE</ntsc>
						</rate>
						<start>-1</start>
						<end>-1</end>
						<in>31197</in>
						<out>32701</out>
						<pproTicksIn>316981486080000</pproTicksIn>
						<pproTicksOut>332263088640000</pproTicksOut>
						<file id="file-29"/>
						<sourcetrack>
							<mediatype>audio</mediatype>
							<trackindex>3</trackindex>
						</sourcetrack>
						<link>
							<linkclipref>clipitem-39</linkclipref>
							<mediatype>video</mediatype>
							<trackindex>1</trackindex>
							<clipindex>39</clipindex>
						</link>
						<link>
							<linkclipref>clipitem-731</linkclipref>
							<mediatype>audio</mediatype>
							<trackindex>8</trackindex>
							<clipindex>17</clipindex>
							<groupindex>1</groupindex>
						</link>
						<link>
							<linkclipref>clipitem-827</linkclipref>
							<mediatype>audio</mediatype>
							<trackindex>9</trackindex>
							<clipindex>17</clipindex>
							<groupindex>1</groupindex>
						</link>
						<logginginfo>
							<description>Ut i naturen - Hornøya</description>
							<scene></scene>
							<shottake></shottake>
							<lognote></lognote>
						</logginginfo>
						<labels>
							<label2>Iris</label2>
						</labels>
					</clipitem>
					<transitionitem>
						<start>10491</start>
						<end>10504</end>
						<alignment>start</alignment>
						<cutPointTicks>0</cutPointTicks>
						<rate>
							<timebase>25</timebase>
							<ntsc>FALSE</ntsc>
						</rate>
						<effect>
							<name>Cross Fade (+3dB)</name>
							<effectid>KGAudioTransCrossFade3dB</effectid>
							<effecttype>transition</effecttype>
							<mediatype>audio</mediatype>
							<wipecode>0</wipecode>
							<wipeaccuracy>100</wipeaccuracy>
							<startratio>0</startratio>
							<endratio>1</endratio>
							<reverse>FALSE</reverse>
						</effect>
					</transitionitem>
					<clipitem id="clipitem-732" premiereChannelType="stereo">
						<masterclipid>masterclip-30</masterclipid>
						<name>2015-12-19 11.39.19.mp4</name>
						<enabled>TRUE</enabled>
						<duration>2636</duration>
						<rate>
							<timebase>25</timebase>
							<ntsc>FALSE</ntsc>
						</rate>
						<start>-1</start>
						<end>11196</end>
						<in>0</in>
						<out>705</out>
						<pproTicksIn>0</pproTicksIn>
						<pproTicksOut>7163251200000</pproTicksOut>
						<file id="file-30"/>
						<sourcetrack>
							<mediatype>audio</mediatype>
							<trackindex>2</trackindex>
						</sourcetrack>
							<filter>
								<effect>
									<name>Audio Levels</name>
									<effectid>audiolevels</effectid>
									<effectcategory>audiolevels</effectcategory>
									<effecttype>audiolevels</effecttype>
									<mediatype>audio</mediatype>
									<parameter authoringApp="PremierePro">
										<parameterid>level</parameterid>
										<name>Level</name>
										<valuemin>0</valuemin>
										<valuemax>3.98109</valuemax>
										<value>0.242667</value>
										<keyframe>
											<when>435</when>
											<value>0.242667</value>
										</keyframe>
									</parameter>
								</effect>
							</filter>
							<marker>
								<comment></comment>
								<name></name>
								<in>1131</in>
								<out>-1</out>
							</marker>
							<marker>
								<comment></comment>
								<name></name>
								<in>667</in>
								<out>-1</out>
							</marker>
						<link>
							<linkclipref>clipitem-40</linkclipref>
							<mediatype>video</mediatype>
							<trackindex>1</trackindex>
							<clipindex>40</clipindex>
						</link>
						<link>
							<linkclipref>clipitem-732</linkclipref>
							<mediatype>audio</mediatype>
							<trackindex>8</trackindex>
							<clipindex>19</clipindex>
							<groupindex>1</groupindex>
						</link>
						<link>
							<linkclipref>clipitem-828</linkclipref>
							<mediatype>audio</mediatype>
							<trackindex>9</trackindex>
							<clipindex>19</clipindex>
							<groupindex>1</groupindex>
						</link>
						<logginginfo>
							<description></description>
							<scene></scene>
							<shottake></shottake>
							<lognote></lognote>
						</logginginfo>
						<labels>
							<label2>Iris</label2>
						</labels>
					</clipitem>
					<clipitem id="clipitem-733" premiereChannelType="stereo">
						<masterclipid>masterclip-30</masterclipid>
						<name>2015-12-19 11.39.19.mp4</name>
						<enabled>TRUE</enabled>
						<duration>2636</duration>
						<rate>
							<timebase>25</timebase>
							<ntsc>FALSE</ntsc>
						</rate>
						<start>13337</start>
						<end>13534</end>
						<in>1238</in>
						<out>1435</out>
						<pproTicksIn>12578872320000</pproTicksIn>
						<pproTicksOut>14580518400000</pproTicksOut>
						<file id="file-30"/>
						<sourcetrack>
							<mediatype>audio</mediatype>
							<trackindex>2</trackindex>
						</sourcetrack>
							<filter>
								<effect>
									<name>Audio Levels</name>
									<effectid>audiolevels</effectid>
									<effectcategory>audiolevels</effectcategory>
									<effecttype>audiolevels</effecttype>
									<mediatype>audio</mediatype>
									<parameter authoringApp="PremierePro">
										<parameterid>level</parameterid>
										<name>Level</name>
										<valuemin>0</valuemin>
										<valuemax>3.98109</valuemax>
										<value>0</value>
										<keyframe>
											<when>1402</when>
											<value>0.947748</value>
										</keyframe>
										<keyframe>
											<when>1421</when>
											<value>0</value>
										</keyframe>
									</parameter>
								</effect>
							</filter>
							<marker>
								<comment></comment>
								<name></name>
								<in>1131</in>
								<out>-1</out>
							</marker>
							<marker>
								<comment></comment>
								<name></name>
								<in>667</in>
								<out>-1</out>
							</marker>
						<link>
							<linkclipref>clipitem-282</linkclipref>
							<mediatype>video</mediatype>
							<trackindex>2</trackindex>
							<clipindex>26</clipindex>
						</link>
						<link>
							<linkclipref>clipitem-733</linkclipref>
							<mediatype>audio</mediatype>
							<trackindex>8</trackindex>
							<clipindex>20</clipindex>
							<groupindex>1</groupindex>
						</link>
						<link>
							<linkclipref>clipitem-829</linkclipref>
							<mediatype>audio</mediatype>
							<trackindex>9</trackindex>
							<clipindex>20</clipindex>
							<groupindex>1</groupindex>
						</link>
						<logginginfo>
							<description></description>
							<scene></scene>
							<shottake></shottake>
							<lognote></lognote>
						</logginginfo>
						<labels>
							<label2>Iris</label2>
						</labels>
					</clipitem>
					<transitionitem>
						<start>14709</start>
						<end>14722</end>
						<alignment>start-black</alignment>
						<cutPointTicks>0</cutPointTicks>
						<rate>
							<timebase>25</timebase>
							<ntsc>FALSE</ntsc>
						</rate>
						<effect>
							<name>Cross Fade (+3dB)</name>
							<effectid>KGAudioTransCrossFade3dB</effectid>
							<effecttype>transition</effecttype>
							<mediatype>audio</mediatype>
							<wipecode>0</wipecode>
							<wipeaccuracy>100</wipeaccuracy>
							<startratio>0</startratio>
							<endratio>1</endratio>
							<reverse>FALSE</reverse>
						</effect>
					</transitionitem>
					<clipitem id="clipitem-734" premiereChannelType="stereo">
						<masterclipid>masterclip-30</masterclipid>
						<name>2015-12-19 11.39.19.mp4</name>
						<enabled>TRUE</enabled>
						<duration>2636</duration>
						<rate>
							<timebase>25</timebase>
							<ntsc>FALSE</ntsc>
						</rate>
						<start>-1</start>
						<end>15217</end>
						<in>2077</in>
						<out>2585</out>
						<pproTicksIn>21103649280000</pproTicksIn>
						<pproTicksOut>26265254400000</pproTicksOut>
						<file id="file-30"/>
						<sourcetrack>
							<mediatype>audio</mediatype>
							<trackindex>2</trackindex>
						</sourcetrack>
							<filter>
								<effect>
									<name>Audio Levels</name>
									<effectid>audiolevels</effectid>
									<effectcategory>audiolevels</effectcategory>
									<effecttype>audiolevels</effecttype>
									<mediatype>audio</mediatype>
									<parameter authoringApp="PremierePro">
										<parameterid>level</parameterid>
										<name>Level</name>
										<valuemin>0</valuemin>
										<valuemax>3.98109</valuemax>
										<value>0</value>
										<keyframe>
											<when>2500</when>
											<value>0.537911</value>
										</keyframe>
										<keyframe>
											<when>2554</when>
											<value>0.448361</value>
										</keyframe>
										<keyframe>
											<when>2561</when>
											<value>0</value>
										</keyframe>
									</parameter>
								</effect>
							</filter>
							<marker>
								<comment></comment>
								<name></name>
								<in>1131</in>
								<out>-1</out>
							</marker>
							<marker>
								<comment></comment>
								<name></name>
								<in>667</in>
								<out>-1</out>
							</marker>
						<link>
							<linkclipref>clipitem-285</linkclipref>
							<mediatype>video</mediatype>
							<trackindex>2</trackindex>
							<clipindex>29</clipindex>
						</link>
						<link>
							<linkclipref>clipitem-734</linkclipref>
							<mediatype>audio</mediatype>
							<trackindex>8</trackindex>
							<clipindex>22</clipindex>
							<groupindex>1</groupindex>
						</link>
						<link>
							<linkclipref>clipitem-830</linkclipref>
							<mediatype>audio</mediatype>
							<trackindex>9</trackindex>
							<clipindex>22</clipindex>
							<groupindex>1</groupindex>
						</link>
						<logginginfo>
							<description></description>
							<scene></scene>
							<shottake></shottake>
							<lognote></lognote>
						</logginginfo>
						<labels>
							<label2>Iris</label2>
						</labels>
					</clipitem>
					<clipitem id="clipitem-735" premiereChannelType="stereo">
						<masterclipid>masterclip-314</masterclipid>
						<name>Ut i naturen 2 Sanser Ferdigmix.wav</name>
						<enabled>TRUE</enabled>
						<duration>58727</duration>
						<rate>
							<timebase>25</timebase>
							<ntsc>FALSE</ntsc>
						</rate>
						<start>16458</start>
						<end>18048</end>
						<in>7346</in>
						<out>8936</out>
						<pproTicksIn>74640061440000</pproTicksIn>
						<pproTicksOut>90795479040000</pproTicksOut>
						<file id="file-314">
							<name>Ut i naturen 2 Sanser Ferdigmix.wav</name>
							<pathurl>file://localhost/Volumes/Svartediket/Prosjekter/DVNA201815_Ut%20i%20naturen_FAL_010117/Eksport/Fra%20lyd/Ut%20i%20naturen%202%20Sanser%20Ferdigmix.wav</pathurl>
							<rate>
								<timebase>30</timebase>
								<ntsc>TRUE</ntsc>
							</rate>
							<duration>70402</duration>
							<timecode>
								<rate>
									<timebase>30</timebase>
									<ntsc>TRUE</ntsc>
								</rate>
								<string>00;00;00;00</string>
								<frame>0</frame>
								<displayformat>DF</displayformat>
								<reel>
									<name></name>
								</reel>
							</timecode>
							<media>
								<audio>
									<samplecharacteristics>
										<depth>16</depth>
										<samplerate>48000</samplerate>
									</samplecharacteristics>
									<channelcount>2</channelcount>
								</audio>
							</media>
						</file>
						<sourcetrack>
							<mediatype>audio</mediatype>
							<trackindex>1</trackindex>
						</sourcetrack>
							<filter>
								<effect>
									<name>Audio Levels</name>
									<effectid>audiolevels</effectid>
									<effectcategory>audiolevels</effectcategory>
									<effecttype>audiolevels</effecttype>
									<mediatype>audio</mediatype>
									<parameter authoringApp="PremierePro">
										<parameterid>level</parameterid>
										<name>Level</name>
										<valuemin>0</valuemin>
										<valuemax>3.98109</valuemax>
										<value>0.99763</value>
										<keyframe>
											<when>7362</when>
											<value>0</value>
										</keyframe>
										<keyframe>
											<when>7372</when>
											<value>0.413651</value>
										</keyframe>
										<keyframe>
											<when>7379</when>
											<value>0.99763</value>
										</keyframe>
									</parameter>
								</effect>
							</filter>
						<link>
							<linkclipref>clipitem-735</linkclipref>
							<mediatype>audio</mediatype>
							<trackindex>8</trackindex>
							<clipindex>23</clipindex>
							<groupindex>1</groupindex>
						</link>
						<link>
							<linkclipref>clipitem-831</linkclipref>
							<mediatype>audio</mediatype>
							<trackindex>9</trackindex>
							<clipindex>23</clipindex>
							<groupindex>1</groupindex>
						</link>
						<logginginfo>
							<description></description>
							<scene></scene>
							<shottake></shottake>
							<lognote></lognote>
						</logginginfo>
						<labels>
							<label2>Iris</label2>
						</labels>
					</clipitem>
					<transitionitem>
						<start>18079</start>
						<end>18092</end>
						<alignment>start-black</alignment>
						<cutPointTicks>0</cutPointTicks>
						<rate>
							<timebase>25</timebase>
							<ntsc>FALSE</ntsc>
						</rate>
						<effect>
							<name>Cross Fade (+3dB)</name>
							<effectid>KGAudioTransCrossFade3dB</effectid>
							<effecttype>transition</effecttype>
							<mediatype>audio</mediatype>
							<wipecode>0</wipecode>
							<wipeaccuracy>100</wipeaccuracy>
							<startratio>0</startratio>
							<endratio>1</endratio>
							<reverse>FALSE</reverse>
						</effect>
					</transitionitem>
					<clipitem id="clipitem-736" premiereChannelType="stereo">
						<masterclipid>masterclip-314</masterclipid>
						<name>Ut i naturen 2 Sanser Ferdigmix.wav</name>
						<enabled>TRUE</enabled>
						<duration>58727</duration>
						<rate>
							<timebase>25</timebase>
							<ntsc>FALSE</ntsc>
						</rate>
						<start>-1</start>
						<end>19578</end>
						<in>31137</in>
						<out>32636</out>
						<pproTicksIn>316371847680000</pproTicksIn>
						<pproTicksOut>331602647040000</pproTicksOut>
						<file id="file-314"/>
						<sourcetrack>
							<mediatype>audio</mediatype>
							<trackindex>1</trackindex>
						</sourcetrack>
						<link>
							<linkclipref>clipitem-736</linkclipref>
							<mediatype>audio</mediatype>
							<trackindex>8</trackindex>
							<clipindex>25</clipindex>
							<groupindex>1</groupindex>
						</link>
						<link>
							<linkclipref>clipitem-832</linkclipref>
							<mediatype>audio</mediatype>
							<trackindex>9</trackindex>
							<clipindex>25</clipindex>
							<groupindex>1</groupindex>
						</link>
						<logginginfo>
							<description></description>
							<scene></scene>
							<shottake></shottake>
							<lognote></lognote>
						</logginginfo>
						<labels>
							<label2>Iris</label2>
						</labels>
					</clipitem>
					<clipitem id="clipitem-737" premiereChannelType="stereo">
						<masterclipid>masterclip-52</masterclipid>
						<name>AA275401.MXF</name>
						<enabled>TRUE</enabled>
						<duration>7896</duration>
						<rate>
							<timebase>25</timebase>
							<ntsc>FALSE</ntsc>
						</rate>
						<start>20760</start>
						<end>21255</end>
						<in>320</in>
						<out>815</out>
						<pproTicksIn>3251404800000</pproTicksIn>
						<pproTicksOut>8280921600000</pproTicksOut>
						<file id="file-52"/>
						<sourcetrack>
							<mediatype>audio</mediatype>
							<trackindex>2</trackindex>
						</sourcetrack>
						<link>
							<linkclipref>clipitem-737</linkclipref>
							<mediatype>audio</mediatype>
							<trackindex>8</trackindex>
							<clipindex>26</clipindex>
							<groupindex>1</groupindex>
						</link>
						<link>
							<linkclipref>clipitem-833</linkclipref>
							<mediatype>audio</mediatype>
							<trackindex>9</trackindex>
							<clipindex>26</clipindex>
							<groupindex>1</groupindex>
						</link>
						<logginginfo>
							<description></description>
							<scene></scene>
							<shottake></shottake>
							<lognote></lognote>
						</logginginfo>
						<labels>
							<label2>Iris</label2>
						</labels>
					</clipitem>
					<clipitem id="clipitem-738" premiereChannelType="stereo">
						<masterclipid>masterclip-52</masterclipid>
						<name>AA275401.MXF</name>
						<enabled>TRUE</enabled>
						<duration>7896</duration>
						<rate>
							<timebase>25</timebase>
							<ntsc>FALSE</ntsc>
						</rate>
						<start>21255</start>
						<end>21454</end>
						<in>815</in>
						<out>1014</out>
						<pproTicksIn>8280921600000</pproTicksIn>
						<pproTicksOut>10302888960000</pproTicksOut>
						<file id="file-52"/>
						<sourcetrack>
							<mediatype>audio</mediatype>
							<trackindex>2</trackindex>
						</sourcetrack>
						<link>
							<linkclipref>clipitem-738</linkclipref>
							<mediatype>audio</mediatype>
							<trackindex>8</trackindex>
							<clipindex>27</clipindex>
							<groupindex>1</groupindex>
						</link>
						<link>
							<linkclipref>clipitem-834</linkclipref>
							<mediatype>audio</mediatype>
							<trackindex>9</trackindex>
							<clipindex>27</clipindex>
							<groupindex>1</groupindex>
						</link>
						<link>
							<linkclipref>clipitem-932</linkclipref>
							<mediatype>audio</mediatype>
							<trackindex>10</trackindex>
							<clipindex>30</clipindex>
							<groupindex>1</groupindex>
						</link>
						<link>
							<linkclipref>clipitem-1072</linkclipref>
							<mediatype>audio</mediatype>
							<trackindex>11</trackindex>
							<clipindex>30</clipindex>
							<groupindex>1</groupindex>
						</link>
						<logginginfo>
							<description></description>
							<scene></scene>
							<shottake></shottake>
							<lognote></lognote>
						</logginginfo>
						<labels>
							<label2>Iris</label2>
						</labels>
					</clipitem>
					<clipitem id="clipitem-739" premiereChannelType="stereo">
						<masterclipid>masterclip-53</masterclipid>
						<name>AA274901.MXF</name>
						<enabled>TRUE</enabled>
						<duration>7896</duration>
						<rate>
							<timebase>25</timebase>
							<ntsc>FALSE</ntsc>
						</rate>
						<start>21454</start>
						<end>21581</end>
						<in>3810</in>
						<out>3937</out>
						<pproTicksIn>38712038400000</pproTicksIn>
						<pproTicksOut>40002439680000</pproTicksOut>
						<file id="file-53"/>
						<sourcetrack>
							<mediatype>audio</mediatype>
							<trackindex>2</trackindex>
						</sourcetrack>
						<link>
							<linkclipref>clipitem-67</linkclipref>
							<mediatype>video</mediatype>
							<trackindex>1</trackindex>
							<clipindex>67</clipindex>
						</link>
						<link>
							<linkclipref>clipitem-739</linkclipref>
							<mediatype>audio</mediatype>
							<trackindex>8</trackindex>
							<clipindex>28</clipindex>
							<groupindex>1</groupindex>
						</link>
						<link>
							<linkclipref>clipitem-835</linkclipref>
							<mediatype>audio</mediatype>
							<trackindex>9</trackindex>
							<clipindex>28</clipindex>
							<groupindex>1</groupindex>
						</link>
						<logginginfo>
							<description></description>
							<scene></scene>
							<shottake></shottake>
							<lognote></lognote>
						</logginginfo>
						<labels>
							<label2>Iris</label2>
						</labels>
					</clipitem>
					<clipitem id="clipitem-740" premiereChannelType="stereo">
						<masterclipid>masterclip-54</masterclipid>
						<name>20160522_190802.mp4</name>
						<enabled>TRUE</enabled>
						<duration>736</duration>
						<rate>
							<timebase>25</timebase>
							<ntsc>FALSE</ntsc>
						</rate>
						<start>21581</start>
						<end>21845</end>
						<in>37</in>
						<out>301</out>
						<pproTicksIn>375943680000</pproTicksIn>
						<pproTicksOut>3058352640000</pproTicksOut>
						<file id="file-54"/>
						<sourcetrack>
							<mediatype>audio</mediatype>
							<trackindex>1</trackindex>
						</sourcetrack>
							<filter>
								<effect>
									<name>Audio Levels</name>
									<effectid>audiolevels</effectid>
									<effectcategory>audiolevels</effectcategory>
									<effecttype>audiolevels</effecttype>
									<mediatype>audio</mediatype>
									<parameter authoringApp="PremierePro">
										<parameterid>level</parameterid>
										<name>Level</name>
										<valuemin>0</valuemin>
										<valuemax>3.98109</valuemax>
										<value>0.315041</value>
									</parameter>
								</effect>
							</filter>
						<link>
							<linkclipref>clipitem-68</linkclipref>
							<mediatype>video</mediatype>
							<trackindex>1</trackindex>
							<clipindex>68</clipindex>
						</link>
						<link>
							<linkclipref>clipitem-740</linkclipref>
							<mediatype>audio</mediatype>
							<trackindex>8</trackindex>
							<clipindex>29</clipindex>
							<groupindex>1</groupindex>
						</link>
						<link>
							<linkclipref>clipitem-836</linkclipref>
							<mediatype>audio</mediatype>
							<trackindex>9</trackindex>
							<clipindex>29</clipindex>
							<groupindex>1</groupindex>
						</link>
						<logginginfo>
							<description></description>
							<scene></scene>
							<shottake></shottake>
							<lognote></lognote>
						</logginginfo>
						<labels>
							<label2>Iris</label2>
						</labels>
					</clipitem>
					<clipitem id="clipitem-741" premiereChannelType="stereo">
						<masterclipid>masterclip-53</masterclipid>
						<name>AA274901.MXF</name>
						<enabled>TRUE</enabled>
						<duration>7896</duration>
						<rate>
							<timebase>25</timebase>
							<ntsc>FALSE</ntsc>
						</rate>
						<start>21845</start>
						<end>22026</end>
						<in>6390</in>
						<out>6571</out>
						<pproTicksIn>64926489600000</pproTicksIn>
						<pproTicksOut>66765565440000</pproTicksOut>
						<file id="file-53"/>
						<sourcetrack>
							<mediatype>audio</mediatype>
							<trackindex>2</trackindex>
						</sourcetrack>
						<link>
							<linkclipref>clipitem-741</linkclipref>
							<mediatype>audio</mediatype>
							<trackindex>8</trackindex>
							<clipindex>30</clipindex>
							<groupindex>1</groupindex>
						</link>
						<link>
							<linkclipref>clipitem-837</linkclipref>
							<mediatype>audio</mediatype>
							<trackindex>9</trackindex>
							<clipindex>30</clipindex>
							<groupindex>1</groupindex>
						</link>
						<logginginfo>
							<description></description>
							<scene></scene>
							<shottake></shottake>
							<lognote></lognote>
						</logginginfo>
						<labels>
							<label2>Iris</label2>
						</labels>
					</clipitem>
					<clipitem id="clipitem-742" premiereChannelType="stereo">
						<masterclipid>masterclip-53</masterclipid>
						<name>AA274901.MXF</name>
						<enabled>TRUE</enabled>
						<duration>7896</duration>
						<rate>
							<timebase>25</timebase>
							<ntsc>FALSE</ntsc>
						</rate>
						<start>22026</start>
						<end>22201</end>
						<in>6636</in>
						<out>6811</out>
						<pproTicksIn>67426007040000</pproTicksIn>
						<pproTicksOut>69204119040000</pproTicksOut>
						<file id="file-53"/>
						<sourcetrack>
							<mediatype>audio</mediatype>
							<trackindex>2</trackindex>
						</sourcetrack>
						<link>
							<linkclipref>clipitem-742</linkclipref>
							<mediatype>audio</mediatype>
							<trackindex>8</trackindex>
							<clipindex>31</clipindex>
							<groupindex>1</groupindex>
						</link>
						<link>
							<linkclipref>clipitem-838</linkclipref>
							<mediatype>audio</mediatype>
							<trackindex>9</trackindex>
							<clipindex>31</clipindex>
							<groupindex>1</groupindex>
						</link>
						<logginginfo>
							<description></description>
							<scene></scene>
							<shottake></shottake>
							<lognote></lognote>
						</logginginfo>
						<labels>
							<label2>Iris</label2>
						</labels>
					</clipitem>
					<clipitem id="clipitem-743" premiereChannelType="stereo">
						<masterclipid>masterclip-56</masterclipid>
						<name>20160514_185459.mp4</name>
						<enabled>TRUE</enabled>
						<duration>908</duration>
						<rate>
							<timebase>25</timebase>
							<ntsc>FALSE</ntsc>
						</rate>
						<start>22201</start>
						<end>22355</end>
						<in>225</in>
						<out>379</out>
						<pproTicksIn>2286144000000</pproTicksIn>
						<pproTicksOut>3850882560000</pproTicksOut>
						<file id="file-56"/>
						<sourcetrack>
							<mediatype>audio</mediatype>
							<trackindex>1</trackindex>
						</sourcetrack>
							<filter>
								<effect>
									<name>Audio Levels</name>
									<effectid>audiolevels</effectid>
									<effectcategory>audiolevels</effectcategory>
									<effecttype>audiolevels</effecttype>
									<mediatype>audio</mediatype>
									<parameter authoringApp="PremierePro">
										<parameterid>level</parameterid>
										<name>Level</name>
										<valuemin>0</valuemin>
										<valuemax>3.98109</valuemax>
										<value>0.99763</value>
									</parameter>
								</effect>
							</filter>
						<link>
							<linkclipref>clipitem-743</linkclipref>
							<mediatype>audio</mediatype>
							<trackindex>8</trackindex>
							<clipindex>32</clipindex>
							<groupindex>1</groupindex>
						</link>
						<link>
							<linkclipref>clipitem-839</linkclipref>
							<mediatype>audio</mediatype>
							<trackindex>9</trackindex>
							<clipindex>32</clipindex>
							<groupindex>1</groupindex>
						</link>
						<logginginfo>
							<description></description>
							<scene></scene>
							<shottake></shottake>
							<lognote></lognote>
						</logginginfo>
						<labels>
							<label2>Iris</label2>
						</labels>
					</clipitem>
					<clipitem id="clipitem-744" premiereChannelType="stereo">
						<masterclipid>masterclip-53</masterclipid>
						<name>AA274901.MXF</name>
						<enabled>TRUE</enabled>
						<duration>7896</duration>
						<rate>
							<timebase>25</timebase>
							<ntsc>FALSE</ntsc>
						</rate>
						<start>22355</start>
						<end>22819</end>
						<in>6806</in>
						<out>7270</out>
						<pproTicksIn>69153315840000</pproTicksIn>
						<pproTicksOut>73867852800000</pproTicksOut>
						<file id="file-53"/>
						<sourcetrack>
							<mediatype>audio</mediatype>
							<trackindex>2</trackindex>
						</sourcetrack>
						<link>
							<linkclipref>clipitem-744</linkclipref>
							<mediatype>audio</mediatype>
							<trackindex>8</trackindex>
							<clipindex>33</clipindex>
							<groupindex>1</groupindex>
						</link>
						<link>
							<linkclipref>clipitem-840</linkclipref>
							<mediatype>audio</mediatype>
							<trackindex>9</trackindex>
							<clipindex>33</clipindex>
							<groupindex>1</groupindex>
						</link>
						<logginginfo>
							<description></description>
							<scene></scene>
							<shottake></shottake>
							<lognote></lognote>
						</logginginfo>
						<labels>
							<label2>Iris</label2>
						</labels>
					</clipitem>
					<clipitem id="clipitem-745" premiereChannelType="stereo">
						<masterclipid>masterclip-53</masterclipid>
						<name>AA274901.MXF</name>
						<enabled>TRUE</enabled>
						<duration>7896</duration>
						<rate>
							<timebase>25</timebase>
							<ntsc>FALSE</ntsc>
						</rate>
						<start>22819</start>
						<end>23338</end>
						<in>7361</in>
						<out>7880</out>
						<pproTicksIn>74792471040000</pproTicksIn>
						<pproTicksOut>80065843200000</pproTicksOut>
						<file id="file-53"/>
						<sourcetrack>
							<mediatype>audio</mediatype>
							<trackindex>2</trackindex>
						</sourcetrack>
						<link>
							<linkclipref>clipitem-745</linkclipref>
							<mediatype>audio</mediatype>
							<trackindex>8</trackindex>
							<clipindex>34</clipindex>
							<groupindex>1</groupindex>
						</link>
						<link>
							<linkclipref>clipitem-841</linkclipref>
							<mediatype>audio</mediatype>
							<trackindex>9</trackindex>
							<clipindex>34</clipindex>
							<groupindex>1</groupindex>
						</link>
						<logginginfo>
							<description></description>
							<scene></scene>
							<shottake></shottake>
							<lognote></lognote>
						</logginginfo>
						<labels>
							<label2>Iris</label2>
						</labels>
					</clipitem>
					<clipitem id="clipitem-746" premiereChannelType="stereo">
						<masterclipid>masterclip-52</masterclipid>
						<name>AA275401.MXF</name>
						<enabled>TRUE</enabled>
						<duration>7896</duration>
						<rate>
							<timebase>25</timebase>
							<ntsc>FALSE</ntsc>
						</rate>
						<start>23338</start>
						<end>23667</end>
						<in>1558</in>
						<out>1887</out>
						<pproTicksIn>15830277120000</pproTicksIn>
						<pproTicksOut>19173127680000</pproTicksOut>
						<file id="file-52"/>
						<sourcetrack>
							<mediatype>audio</mediatype>
							<trackindex>2</trackindex>
						</sourcetrack>
						<link>
							<linkclipref>clipitem-74</linkclipref>
							<mediatype>video</mediatype>
							<trackindex>1</trackindex>
							<clipindex>74</clipindex>
						</link>
						<link>
							<linkclipref>clipitem-746</linkclipref>
							<mediatype>audio</mediatype>
							<trackindex>8</trackindex>
							<clipindex>35</clipindex>
							<groupindex>1</groupindex>
						</link>
						<link>
							<linkclipref>clipitem-842</linkclipref>
							<mediatype>audio</mediatype>
							<trackindex>9</trackindex>
							<clipindex>35</clipindex>
							<groupindex>1</groupindex>
						</link>
						<logginginfo>
							<description></description>
							<scene></scene>
							<shottake></shottake>
							<lognote></lognote>
						</logginginfo>
						<labels>
							<label2>Iris</label2>
						</labels>
					</clipitem>
					<clipitem id="clipitem-747" premiereChannelType="stereo">
						<masterclipid>masterclip-52</masterclipid>
						<name>AA275401.MXF</name>
						<enabled>TRUE</enabled>
						<duration>7896</duration>
						<rate>
							<timebase>25</timebase>
							<ntsc>FALSE</ntsc>
						</rate>
						<start>23667</start>
						<end>-1</end>
						<in>1909</in>
						<out>2029</out>
						<pproTicksIn>19396661760000</pproTicksIn>
						<pproTicksOut>20615938560000</pproTicksOut>
						<file id="file-52"/>
						<sourcetrack>
							<mediatype>audio</mediatype>
							<trackindex>2</trackindex>
						</sourcetrack>
						<link>
							<linkclipref>clipitem-747</linkclipref>
							<mediatype>audio</mediatype>
							<trackindex>8</trackindex>
							<clipindex>36</clipindex>
							<groupindex>1</groupindex>
						</link>
						<link>
							<linkclipref>clipitem-843</linkclipref>
							<mediatype>audio</mediatype>
							<trackindex>9</trackindex>
							<clipindex>36</clipindex>
							<groupindex>1</groupindex>
						</link>
						<logginginfo>
							<description></description>
							<scene></scene>
							<shottake></shottake>
							<lognote></lognote>
						</logginginfo>
						<labels>
							<label2>Iris</label2>
						</labels>
					</clipitem>
					<transitionitem>
						<start>23782</start>
						<end>23787</end>
						<alignment>end-black</alignment>
						<cutPointTicks>50803200000</cutPointTicks>
						<rate>
							<timebase>25</timebase>
							<ntsc>FALSE</ntsc>
						</rate>
						<effect>
							<name>Cross Fade (+3dB)</name>
							<effectid>KGAudioTransCrossFade3dB</effectid>
							<effecttype>transition</effecttype>
							<mediatype>audio</mediatype>
							<wipecode>0</wipecode>
							<wipeaccuracy>100</wipeaccuracy>
							<startratio>0</startratio>
							<endratio>1</endratio>
							<reverse>FALSE</reverse>
						</effect>
					</transitionitem>
					<clipitem id="clipitem-748" premiereChannelType="stereo">
						<masterclipid>masterclip-60</masterclipid>
						<name>AA275501.MXF</name>
						<enabled>TRUE</enabled>
						<duration>6756</duration>
						<rate>
							<timebase>25</timebase>
							<ntsc>FALSE</ntsc>
						</rate>
						<start>24017</start>
						<end>24241</end>
						<in>3886</in>
						<out>4110</out>
						<pproTicksIn>39484247040000</pproTicksIn>
						<pproTicksOut>41760230400000</pproTicksOut>
						<file id="file-60"/>
						<sourcetrack>
							<mediatype>audio</mediatype>
							<trackindex>2</trackindex>
						</sourcetrack>
						<link>
							<linkclipref>clipitem-748</linkclipref>
							<mediatype>audio</mediatype>
							<trackindex>8</trackindex>
							<clipindex>38</clipindex>
							<groupindex>1</groupindex>
						</link>
						<link>
							<linkclipref>clipitem-844</linkclipref>
							<mediatype>audio</mediatype>
							<trackindex>9</trackindex>
							<clipindex>38</clipindex>
							<groupindex>1</groupindex>
						</link>
						<link>
							<linkclipref>clipitem-939</linkclipref>
							<mediatype>audio</mediatype>
							<trackindex>10</trackindex>
							<clipindex>38</clipindex>
							<groupindex>1</groupindex>
						</link>
						<link>
							<linkclipref>clipitem-1079</linkclipref>
							<mediatype>audio</mediatype>
							<trackindex>11</trackindex>
							<clipindex>38</clipindex>
							<groupindex>1</groupindex>
						</link>
						<logginginfo>
							<description></description>
							<scene></scene>
							<shottake></shottake>
							<lognote></lognote>
						</logginginfo>
						<labels>
							<label2>Iris</label2>
						</labels>
					</clipitem>
					<clipitem id="clipitem-749" premiereChannelType="stereo">
						<masterclipid>masterclip-60</masterclipid>
						<name>AA275501.MXF</name>
						<enabled>TRUE</enabled>
						<duration>6756</duration>
						<rate>
							<timebase>25</timebase>
							<ntsc>FALSE</ntsc>
						</rate>
						<start>24241</start>
						<end>24558</end>
						<in>5924</in>
						<out>6241</out>
						<pproTicksIn>60191631360000</pproTicksIn>
						<pproTicksOut>63412554240000</pproTicksOut>
						<file id="file-60"/>
						<sourcetrack>
							<mediatype>audio</mediatype>
							<trackindex>2</trackindex>
						</sourcetrack>
						<link>
							<linkclipref>clipitem-749</linkclipref>
							<mediatype>audio</mediatype>
							<trackindex>8</trackindex>
							<clipindex>39</clipindex>
							<groupindex>1</groupindex>
						</link>
						<link>
							<linkclipref>clipitem-845</linkclipref>
							<mediatype>audio</mediatype>
							<trackindex>9</trackindex>
							<clipindex>39</clipindex>
							<groupindex>1</groupindex>
						</link>
						<logginginfo>
							<description></description>
							<scene></scene>
							<shottake></shottake>
							<lognote></lognote>
						</logginginfo>
						<labels>
							<label2>Iris</label2>
						</labels>
					</clipitem>
					<clipitem id="clipitem-750" premiereChannelType="stereo">
						<masterclipid>masterclip-61</masterclipid>
						<name>AA276001.MXF</name>
						<enabled>TRUE</enabled>
						<duration>1260</duration>
						<rate>
							<timebase>25</timebase>
							<ntsc>FALSE</ntsc>
						</rate>
						<start>24558</start>
						<end>24687</end>
						<in>460</in>
						<out>589</out>
						<pproTicksIn>4673894400000</pproTicksIn>
						<pproTicksOut>5984616960000</pproTicksOut>
						<file id="file-61"/>
						<sourcetrack>
							<mediatype>audio</mediatype>
							<trackindex>2</trackindex>
						</sourcetrack>
						<link>
							<linkclipref>clipitem-79</linkclipref>
							<mediatype>video</mediatype>
							<trackindex>1</trackindex>
							<clipindex>79</clipindex>
						</link>
						<link>
							<linkclipref>clipitem-750</linkclipref>
							<mediatype>audio</mediatype>
							<trackindex>8</trackindex>
							<clipindex>40</clipindex>
							<groupindex>1</groupindex>
						</link>
						<link>
							<linkclipref>clipitem-846</linkclipref>
							<mediatype>audio</mediatype>
							<trackindex>9</trackindex>
							<clipindex>40</clipindex>
							<groupindex>1</groupindex>
						</link>
						<link>
							<linkclipref>clipitem-941</linkclipref>
							<mediatype>audio</mediatype>
							<trackindex>10</trackindex>
							<clipindex>40</clipindex>
							<groupindex>1</groupindex>
						</link>
						<link>
							<linkclipref>clipitem-1081</linkclipref>
							<mediatype>audio</mediatype>
							<trackindex>11</trackindex>
							<clipindex>40</clipindex>
							<groupindex>1</groupindex>
						</link>
						<logginginfo>
							<description></description>
							<scene></scene>
							<shottake></shottake>
							<lognote></lognote>
						</logginginfo>
						<labels>
							<label2>Iris</label2>
						</labels>
					</clipitem>
					<clipitem id="clipitem-751" premiereChannelType="stereo">
						<masterclipid>masterclip-62</masterclipid>
						<name>AA276101.MXF</name>
						<enabled>TRUE</enabled>
						<duration>564</duration>
						<rate>
							<timebase>25</timebase>
							<ntsc>FALSE</ntsc>
						</rate>
						<start>24687</start>
						<end>24756</end>
						<in>99</in>
						<out>168</out>
						<pproTicksIn>1005903360000</pproTicksIn>
						<pproTicksOut>1706987520000</pproTicksOut>
						<file id="file-62"/>
						<sourcetrack>
							<mediatype>audio</mediatype>
							<trackindex>2</trackindex>
						</sourcetrack>
							<filter>
								<effect>
									<name>Audio Levels</name>
									<effectid>audiolevels</effectid>
									<effectcategory>audiolevels</effectcategory>
									<effecttype>audiolevels</effecttype>
									<mediatype>audio</mediatype>
									<parameter authoringApp="PremierePro">
										<parameterid>level</parameterid>
										<name>Level</name>
										<valuemin>0</valuemin>
										<valuemax>3.98109</valuemax>
										<value>0.106131</value>
									</parameter>
								</effect>
							</filter>
						<link>
							<linkclipref>clipitem-80</linkclipref>
							<mediatype>video</mediatype>
							<trackindex>1</trackindex>
							<clipindex>80</clipindex>
						</link>
						<link>
							<linkclipref>clipitem-751</linkclipref>
							<mediatype>audio</mediatype>
							<trackindex>8</trackindex>
							<clipindex>41</clipindex>
							<groupindex>1</groupindex>
						</link>
						<link>
							<linkclipref>clipitem-847</linkclipref>
							<mediatype>audio</mediatype>
							<trackindex>9</trackindex>
							<clipindex>41</clipindex>
							<groupindex>1</groupindex>
						</link>
						<link>
							<linkclipref>clipitem-942</linkclipref>
							<mediatype>audio</mediatype>
							<trackindex>10</trackindex>
							<clipindex>41</clipindex>
							<groupindex>1</groupindex>
						</link>
						<link>
							<linkclipref>clipitem-1082</linkclipref>
							<mediatype>audio</mediatype>
							<trackindex>11</trackindex>
							<clipindex>41</clipindex>
							<groupindex>1</groupindex>
						</link>
						<logginginfo>
							<description></description>
							<scene></scene>
							<shottake></shottake>
							<lognote></lognote>
						</logginginfo>
						<labels>
							<label2>Iris</label2>
						</labels>
					</clipitem>
					<clipitem id="clipitem-752" premiereChannelType="stereo">
						<masterclipid>masterclip-63</masterclipid>
						<name>AA277101.MXF</name>
						<enabled>TRUE</enabled>
						<duration>5604</duration>
						<rate>
							<timebase>25</timebase>
							<ntsc>FALSE</ntsc>
						</rate>
						<start>24756</start>
						<end>25306</end>
						<in>2324</in>
						<out>2874</out>
						<pproTicksIn>23613327360000</pproTicksIn>
						<pproTicksOut>29201679360000</pproTicksOut>
						<file id="file-63"/>
						<sourcetrack>
							<mediatype>audio</mediatype>
							<trackindex>2</trackindex>
						</sourcetrack>
						<link>
							<linkclipref>clipitem-81</linkclipref>
							<mediatype>video</mediatype>
							<trackindex>1</trackindex>
							<clipindex>81</clipindex>
						</link>
						<link>
							<linkclipref>clipitem-752</linkclipref>
							<mediatype>audio</mediatype>
							<trackindex>8</trackindex>
							<clipindex>42</clipindex>
							<groupindex>1</groupindex>
						</link>
						<link>
							<linkclipref>clipitem-848</linkclipref>
							<mediatype>audio</mediatype>
							<trackindex>9</trackindex>
							<clipindex>42</clipindex>
							<groupindex>1</groupindex>
						</link>
						<link>
							<linkclipref>clipitem-943</linkclipref>
							<mediatype>audio</mediatype>
							<trackindex>10</trackindex>
							<clipindex>42</clipindex>
							<groupindex>1</groupindex>
						</link>
						<link>
							<linkclipref>clipitem-1083</linkclipref>
							<mediatype>audio</mediatype>
							<trackindex>11</trackindex>
							<clipindex>42</clipindex>
							<groupindex>1</groupindex>
						</link>
						<logginginfo>
							<description></description>
							<scene></scene>
							<shottake></shottake>
							<lognote></lognote>
						</logginginfo>
						<labels>
							<label2>Iris</label2>
						</labels>
					</clipitem>
					<clipitem id="clipitem-753" premiereChannelType="stereo">
						<masterclipid>masterclip-63</masterclipid>
						<name>AA277101.MXF</name>
						<enabled>TRUE</enabled>
						<duration>5604</duration>
						<rate>
							<timebase>25</timebase>
							<ntsc>FALSE</ntsc>
						</rate>
						<start>25306</start>
						<end>25431</end>
						<in>2874</in>
						<out>2999</out>
						<pproTicksIn>29201679360000</pproTicksIn>
						<pproTicksOut>30471759360000</pproTicksOut>
						<file id="file-63"/>
						<sourcetrack>
							<mediatype>audio</mediatype>
							<trackindex>2</trackindex>
						</sourcetrack>
						<link>
							<linkclipref>clipitem-753</linkclipref>
							<mediatype>audio</mediatype>
							<trackindex>8</trackindex>
							<clipindex>43</clipindex>
							<groupindex>1</groupindex>
						</link>
						<link>
							<linkclipref>clipitem-849</linkclipref>
							<mediatype>audio</mediatype>
							<trackindex>9</trackindex>
							<clipindex>43</clipindex>
							<groupindex>1</groupindex>
						</link>
						<link>
							<linkclipref>clipitem-944</linkclipref>
							<mediatype>audio</mediatype>
							<trackindex>10</trackindex>
							<clipindex>43</clipindex>
							<groupindex>1</groupindex>
						</link>
						<link>
							<linkclipref>clipitem-1084</linkclipref>
							<mediatype>audio</mediatype>
							<trackindex>11</trackindex>
							<clipindex>43</clipindex>
							<groupindex>1</groupindex>
						</link>
						<logginginfo>
							<description></description>
							<scene></scene>
							<shottake></shottake>
							<lognote></lognote>
						</logginginfo>
						<labels>
							<label2>Iris</label2>
						</labels>
					</clipitem>
					<clipitem id="clipitem-754" premiereChannelType="stereo">
						<masterclipid>masterclip-63</masterclipid>
						<name>AA277101.MXF</name>
						<enabled>TRUE</enabled>
						<duration>5604</duration>
						<rate>
							<timebase>25</timebase>
							<ntsc>FALSE</ntsc>
						</rate>
						<start>25431</start>
						<end>26270</end>
						<in>2999</in>
						<out>3838</out>
						<pproTicksIn>30471759360000</pproTicksIn>
						<pproTicksOut>38996536320000</pproTicksOut>
						<file id="file-63"/>
						<sourcetrack>
							<mediatype>audio</mediatype>
							<trackindex>2</trackindex>
						</sourcetrack>
						<link>
							<linkclipref>clipitem-83</linkclipref>
							<mediatype>video</mediatype>
							<trackindex>1</trackindex>
							<clipindex>83</clipindex>
						</link>
						<link>
							<linkclipref>clipitem-754</linkclipref>
							<mediatype>audio</mediatype>
							<trackindex>8</trackindex>
							<clipindex>44</clipindex>
							<groupindex>1</groupindex>
						</link>
						<link>
							<linkclipref>clipitem-850</linkclipref>
							<mediatype>audio</mediatype>
							<trackindex>9</trackindex>
							<clipindex>44</clipindex>
							<groupindex>1</groupindex>
						</link>
						<link>
							<linkclipref>clipitem-945</linkclipref>
							<mediatype>audio</mediatype>
							<trackindex>10</trackindex>
							<clipindex>44</clipindex>
							<groupindex>1</groupindex>
						</link>
						<link>
							<linkclipref>clipitem-1085</linkclipref>
							<mediatype>audio</mediatype>
							<trackindex>11</trackindex>
							<clipindex>44</clipindex>
							<groupindex>1</groupindex>
						</link>
						<logginginfo>
							<description></description>
							<scene></scene>
							<shottake></shottake>
							<lognote></lognote>
						</logginginfo>
						<labels>
							<label2>Iris</label2>
						</labels>
					</clipitem>
					<clipitem id="clipitem-755" premiereChannelType="stereo">
						<masterclipid>masterclip-19</masterclipid>
						<name>20160515_184145.mp4</name>
						<enabled>TRUE</enabled>
						<duration>1485</duration>
						<rate>
							<timebase>25</timebase>
							<ntsc>FALSE</ntsc>
						</rate>
						<start>26270</start>
						<end>26436</end>
						<in>0</in>
						<out>166</out>
						<pproTicksIn>0</pproTicksIn>
						<pproTicksOut>1686666240000</pproTicksOut>
						<file id="file-19"/>
						<sourcetrack>
							<mediatype>audio</mediatype>
							<trackindex>1</trackindex>
						</sourcetrack>
							<filter>
								<effect>
									<name>Audio Levels</name>
									<effectid>audiolevels</effectid>
									<effectcategory>audiolevels</effectcategory>
									<effecttype>audiolevels</effecttype>
									<mediatype>audio</mediatype>
									<parameter authoringApp="PremierePro">
										<parameterid>level</parameterid>
										<name>Level</name>
										<valuemin>0</valuemin>
										<valuemax>3.98109</valuemax>
										<value>0.0636785</value>
									</parameter>
								</effect>
							</filter>
						<link>
							<linkclipref>clipitem-86</linkclipref>
							<mediatype>video</mediatype>
							<trackindex>1</trackindex>
							<clipindex>86</clipindex>
						</link>
						<link>
							<linkclipref>clipitem-755</linkclipref>
							<mediatype>audio</mediatype>
							<trackindex>8</trackindex>
							<clipindex>45</clipindex>
							<groupindex>1</groupindex>
						</link>
						<link>
							<linkclipref>clipitem-851</linkclipref>
							<mediatype>audio</mediatype>
							<trackindex>9</trackindex>
							<clipindex>45</clipindex>
							<groupindex>1</groupindex>
						</link>
						<logginginfo>
							<description></description>
							<scene></scene>
							<shottake></shottake>
							<lognote></lognote>
						</logginginfo>
						<labels>
							<label2>Iris</label2>
						</labels>
					</clipitem>
					<clipitem id="clipitem-756" premiereChannelType="stereo">
						<masterclipid>masterclip-315</masterclipid>
						<name>AA277201.MXF</name>
						<enabled>TRUE</enabled>
						<duration>1956</duration>
						<rate>
							<timebase>25</timebase>
							<ntsc>FALSE</ntsc>
						</rate>
						<start>26622</start>
						<end>26665</end>
						<in>680</in>
						<out>723</out>
						<pproTicksIn>6909235200000</pproTicksIn>
						<pproTicksOut>7346142720000</pproTicksOut>
						<pixelaspectratio>square</pixelaspectratio>
						<anamorphic>FALSE</anamorphic>
						<file id="file-315">
							<name>AA277201.MXF</name>
							<pathurl>file://localhost/Volumes/Vaagen/Utveksling/Natur/Naturlig%20helaften%20fra%20Oslo/Copied_Copy%20of%20En%20Helaften%20MASTER_002/AA277201.MXF</pathurl>
							<rate>
								<timebase>25</timebase>
								<ntsc>FALSE</ntsc>
							</rate>
							<duration>1956</duration>
							<timecode>
								<rate>
									<timebase>25</timebase>
									<ntsc>FALSE</ntsc>
								</rate>
								<string>15:38:36:12</string>
								<frame>1407912</frame>
								<displayformat>NDF</displayformat>
								<reel>
									<name></name>
								</reel>
							</timecode>
							<media>
								<video>
									<samplecharacteristics>
										<rate>
											<timebase>25</timebase>
											<ntsc>FALSE</ntsc>
										</rate>
										<width>1920</width>
										<height>1080</height>
										<anamorphic>FALSE</anamorphic>
										<pixelaspectratio>square</pixelaspectratio>
										<fielddominance>none</fielddominance>
									</samplecharacteristics>
								</video>
								<audio>
									<samplecharacteristics>
										<depth>16</depth>
										<samplerate>48000</samplerate>
									</samplecharacteristics>
									<channelcount>2</channelcount>
								</audio>
							</media>
						</file>
						<sourcetrack>
							<mediatype>audio</mediatype>
							<trackindex>1</trackindex>
						</sourcetrack>
						<link>
							<linkclipref>clipitem-756</linkclipref>
							<mediatype>audio</mediatype>
							<trackindex>8</trackindex>
							<clipindex>46</clipindex>
							<groupindex>1</groupindex>
						</link>
						<link>
							<linkclipref>clipitem-852</linkclipref>
							<mediatype>audio</mediatype>
							<trackindex>9</trackindex>
							<clipindex>46</clipindex>
							<groupindex>1</groupindex>
						</link>
						<logginginfo>
							<description></description>
							<scene></scene>
							<shottake></shottake>
							<lognote></lognote>
						</logginginfo>
						<labels>
							<label2>Iris</label2>
						</labels>
					</clipitem>
					<clipitem id="clipitem-757" premiereChannelType="stereo">
						<masterclipid>masterclip-66</masterclipid>
						<name>AA277301.MXF</name>
						<enabled>TRUE</enabled>
						<duration>960</duration>
						<rate>
							<timebase>25</timebase>
							<ntsc>FALSE</ntsc>
						</rate>
						<start>26665</start>
						<end>27168</end>
						<in>371</in>
						<out>874</out>
						<pproTicksIn>3769597440000</pproTicksIn>
						<pproTicksOut>8880399360000</pproTicksOut>
						<file id="file-66"/>
						<sourcetrack>
							<mediatype>audio</mediatype>
							<trackindex>1</trackindex>
						</sourcetrack>
							<filter>
								<effect>
									<name>Audio Levels</name>
									<effectid>audiolevels</effectid>
									<effectcategory>audiolevels</effectcategory>
									<effecttype>audiolevels</effecttype>
									<mediatype>audio</mediatype>
									<parameter authoringApp="PremierePro">
										<parameterid>level</parameterid>
										<name>Level</name>
										<valuemin>0</valuemin>
										<valuemax>3.98109</valuemax>
										<value>0</value>
										<keyframe>
											<when>847</when>
											<value>0.99763</value>
										</keyframe>
										<keyframe>
											<when>854</when>
											<value>0</value>
										</keyframe>
									</parameter>
								</effect>
							</filter>
						<link>
							<linkclipref>clipitem-88</linkclipref>
							<mediatype>video</mediatype>
							<trackindex>1</trackindex>
							<clipindex>88</clipindex>
						</link>
						<link>
							<linkclipref>clipitem-757</linkclipref>
							<mediatype>audio</mediatype>
							<trackindex>8</trackindex>
							<clipindex>47</clipindex>
							<groupindex>1</groupindex>
						</link>
						<link>
							<linkclipref>clipitem-853</linkclipref>
							<mediatype>audio</mediatype>
							<trackindex>9</trackindex>
							<clipindex>47</clipindex>
							<groupindex>1</groupindex>
						</link>
						<logginginfo>
							<description></description>
							<scene></scene>
							<shottake></shottake>
							<lognote></lognote>
						</logginginfo>
						<labels>
							<label2>Iris</label2>
						</labels>
					</clipitem>
					<clipitem id="clipitem-758" premiereChannelType="stereo">
						<masterclipid>masterclip-70</masterclipid>
						<name>DVNA21000514BA_004.mxf</name>
						<enabled>TRUE</enabled>
						<duration>172</duration>
						<rate>
							<timebase>25</timebase>
							<ntsc>FALSE</ntsc>
						</rate>
						<start>27880</start>
						<end>27925</end>
						<in>14</in>
						<out>59</out>
						<pproTicksIn>142248960000</pproTicksIn>
						<pproTicksOut>599477760000</pproTicksOut>
						<file id="file-70"/>
						<sourcetrack>
							<mediatype>audio</mediatype>
							<trackindex>5</trackindex>
						</sourcetrack>
							<filter>
								<effect>
									<name>Audio Levels</name>
									<effectid>audiolevels</effectid>
									<effectcategory>audiolevels</effectcategory>
									<effecttype>audiolevels</effecttype>
									<mediatype>audio</mediatype>
									<parameter authoringApp="PremierePro">
										<parameterid>level</parameterid>
										<name>Level</name>
										<valuemin>0</valuemin>
										<valuemax>3.98109</valuemax>
										<value>0.99763</value>
										<keyframe>
											<when>14</when>
											<value>0</value>
										</keyframe>
										<keyframe>
											<when>22</when>
											<value>0.99763</value>
										</keyframe>
									</parameter>
								</effect>
							</filter>
						<link>
							<linkclipref>clipitem-758</linkclipref>
							<mediatype>audio</mediatype>
							<trackindex>8</trackindex>
							<clipindex>48</clipindex>
							<groupindex>1</groupindex>
						</link>
						<link>
							<linkclipref>clipitem-854</linkclipref>
							<mediatype>audio</mediatype>
							<trackindex>9</trackindex>
							<clipindex>48</clipindex>
							<groupindex>1</groupindex>
						</link>
						<logginginfo>
							<description></description>
							<scene></scene>
							<shottake></shottake>
							<lognote></lognote>
						</logginginfo>
						<labels>
							<label2>Iris</label2>
						</labels>
					</clipitem>
					<clipitem id="clipitem-759" premiereChannelType="stereo">
						<masterclipid>masterclip-67</masterclipid>
						<name>DVNA21000514BA</name>
						<enabled>TRUE</enabled>
						<duration>397</duration>
						<rate>
							<timebase>25</timebase>
							<ntsc>FALSE</ntsc>
						</rate>
						<start>27925</start>
						<end>28038</end>
						<in>284</in>
						<out>397</out>
						<pproTicksIn>2885621760000</pproTicksIn>
						<pproTicksOut>4033774080000</pproTicksOut>
						<file id="file-67"/>
						<sourcetrack>
							<mediatype>audio</mediatype>
							<trackindex>5</trackindex>
						</sourcetrack>
							<filter>
								<effect>
									<name>Audio Levels</name>
									<effectid>audiolevels</effectid>
									<effectcategory>audiolevels</effectcategory>
									<effecttype>audiolevels</effecttype>
									<mediatype>audio</mediatype>
									<parameter authoringApp="PremierePro">
										<parameterid>level</parameterid>
										<name>Level</name>
										<valuemin>0</valuemin>
										<valuemax>3.98109</valuemax>
										<value>0</value>
										<keyframe>
											<when>376</when>
											<value>0.99763</value>
										</keyframe>
										<keyframe>
											<when>393</when>
											<value>0</value>
										</keyframe>
									</parameter>
								</effect>
							</filter>
						<link>
							<linkclipref>clipitem-759</linkclipref>
							<mediatype>audio</mediatype>
							<trackindex>8</trackindex>
							<clipindex>49</clipindex>
							<groupindex>1</groupindex>
						</link>
						<link>
							<linkclipref>clipitem-855</linkclipref>
							<mediatype>audio</mediatype>
							<trackindex>9</trackindex>
							<clipindex>49</clipindex>
							<groupindex>1</groupindex>
						</link>
						<logginginfo>
							<description>Villmarkas voktere (5:8 @ Villmarkas voktere)</description>
							<scene></scene>
							<shottake></shottake>
							<lognote></lognote>
						</logginginfo>
						<labels>
							<label2>Iris</label2>
						</labels>
					</clipitem>
					<clipitem id="clipitem-760" premiereChannelType="stereo">
						<masterclipid>masterclip-73</masterclipid>
						<name>uin-seervideo-111116-h_p1</name>
						<enabled>TRUE</enabled>
						<duration>5247</duration>
						<rate>
							<timebase>25</timebase>
							<ntsc>FALSE</ntsc>
						</rate>
						<start>28489</start>
						<end>28608</end>
						<in>723</in>
						<out>842</out>
						<pproTicksIn>7346142720000</pproTicksIn>
						<pproTicksOut>8555258880000</pproTicksOut>
						<file id="file-73"/>
						<sourcetrack>
							<mediatype>audio</mediatype>
							<trackindex>1</trackindex>
						</sourcetrack>
							<filter>
								<effect>
									<name>Audio Levels</name>
									<effectid>audiolevels</effectid>
									<effectcategory>audiolevels</effectcategory>
									<effecttype>audiolevels</effecttype>
									<mediatype>audio</mediatype>
									<parameter authoringApp="PremierePro">
										<parameterid>level</parameterid>
										<name>Level</name>
										<valuemin>0</valuemin>
										<valuemax>3.98109</valuemax>
										<value>0.99763</value>
										<keyframe>
											<when>734</when>
											<value>0</value>
										</keyframe>
										<keyframe>
											<when>764</when>
											<value>0.99763</value>
										</keyframe>
									</parameter>
								</effect>
							</filter>
						<link>
							<linkclipref>clipitem-760</linkclipref>
							<mediatype>audio</mediatype>
							<trackindex>8</trackindex>
							<clipindex>50</clipindex>
							<groupindex>1</groupindex>
						</link>
						<link>
							<linkclipref>clipitem-856</linkclipref>
							<mediatype>audio</mediatype>
							<trackindex>9</trackindex>
							<clipindex>50</clipindex>
							<groupindex>1</groupindex>
						</link>
						<logginginfo>
							<description>DVNA60000116AA</description>
							<scene></scene>
							<shottake></shottake>
							<lognote></lognote>
						</logginginfo>
						<labels>
							<label2>Iris</label2>
						</labels>
					</clipitem>
					<clipitem id="clipitem-761" premiereChannelType="stereo">
						<masterclipid>masterclip-73</masterclipid>
						<name>uin-seervideo-111116-h_p1</name>
						<enabled>TRUE</enabled>
						<duration>5247</duration>
						<rate>
							<timebase>25</timebase>
							<ntsc>FALSE</ntsc>
						</rate>
						<start>28608</start>
						<end>-1</end>
						<in>991</in>
						<out>1092</out>
						<pproTicksIn>10069194240000</pproTicksIn>
						<pproTicksOut>11095418880000</pproTicksOut>
						<file id="file-73"/>
						<sourcetrack>
							<mediatype>audio</mediatype>
							<trackindex>5</trackindex>
						</sourcetrack>
						<link>
							<linkclipref>clipitem-761</linkclipref>
							<mediatype>audio</mediatype>
							<trackindex>8</trackindex>
							<clipindex>51</clipindex>
							<groupindex>1</groupindex>
						</link>
						<link>
							<linkclipref>clipitem-857</linkclipref>
							<mediatype>audio</mediatype>
							<trackindex>9</trackindex>
							<clipindex>51</clipindex>
							<groupindex>1</groupindex>
						</link>
						<logginginfo>
							<description>DVNA60000116AA</description>
							<scene></scene>
							<shottake></shottake>
							<lognote></lognote>
						</logginginfo>
						<labels>
							<label2>Iris</label2>
						</labels>
					</clipitem>
					<transitionitem>
						<start>28696</start>
						<end>28709</end>
						<alignment>center</alignment>
						<cutPointTicks>60963840000</cutPointTicks>
						<rate>
							<timebase>25</timebase>
							<ntsc>FALSE</ntsc>
						</rate>
						<effect>
							<name>Cross Fade (+3dB)</name>
							<effectid>KGAudioTransCrossFade3dB</effectid>
							<effecttype>transition</effecttype>
							<mediatype>audio</mediatype>
							<wipecode>0</wipecode>
							<wipeaccuracy>100</wipeaccuracy>
							<startratio>0</startratio>
							<endratio>1</endratio>
							<reverse>FALSE</reverse>
						</effect>
					</transitionitem>
					<clipitem id="clipitem-762" premiereChannelType="stereo">
						<masterclipid>masterclip-73</masterclipid>
						<name>uin-seervideo-111116-h_p1</name>
						<enabled>TRUE</enabled>
						<duration>5247</duration>
						<rate>
							<timebase>25</timebase>
							<ntsc>FALSE</ntsc>
						</rate>
						<start>-1</start>
						<end>28942</end>
						<in>1887</in>
						<out>2133</out>
						<pproTicksIn>19173127680000</pproTicksIn>
						<pproTicksOut>21672645120000</pproTicksOut>
						<file id="file-73"/>
						<sourcetrack>
							<mediatype>audio</mediatype>
							<trackindex>1</trackindex>
						</sourcetrack>
						<link>
							<linkclipref>clipitem-100</linkclipref>
							<mediatype>video</mediatype>
							<trackindex>1</trackindex>
							<clipindex>102</clipindex>
						</link>
						<link>
							<linkclipref>clipitem-762</linkclipref>
							<mediatype>audio</mediatype>
							<trackindex>8</trackindex>
							<clipindex>53</clipindex>
							<groupindex>1</groupindex>
						</link>
						<link>
							<linkclipref>clipitem-858</linkclipref>
							<mediatype>audio</mediatype>
							<trackindex>9</trackindex>
							<clipindex>53</clipindex>
							<groupindex>1</groupindex>
						</link>
						<logginginfo>
							<description>DVNA60000116AA</description>
							<scene></scene>
							<shottake></shottake>
							<lognote></lognote>
						</logginginfo>
						<labels>
							<label2>Iris</label2>
						</labels>
					</clipitem>
					<clipitem id="clipitem-763" premiereChannelType="stereo">
						<masterclipid>masterclip-73</masterclipid>
						<name>uin-seervideo-111116-h_p1</name>
						<enabled>TRUE</enabled>
						<duration>5247</duration>
						<rate>
							<timebase>25</timebase>
							<ntsc>FALSE</ntsc>
						</rate>
						<start>29052</start>
						<end>29106</end>
						<in>4106</in>
						<out>4160</out>
						<pproTicksIn>41719587840000</pproTicksIn>
						<pproTicksOut>42268262400000</pproTicksOut>
						<file id="file-73"/>
						<sourcetrack>
							<mediatype>audio</mediatype>
							<trackindex>1</trackindex>
						</sourcetrack>
						<link>
							<linkclipref>clipitem-763</linkclipref>
							<mediatype>audio</mediatype>
							<trackindex>8</trackindex>
							<clipindex>54</clipindex>
							<groupindex>1</groupindex>
						</link>
						<link>
							<linkclipref>clipitem-859</linkclipref>
							<mediatype>audio</mediatype>
							<trackindex>9</trackindex>
							<clipindex>54</clipindex>
							<groupindex>1</groupindex>
						</link>
						<logginginfo>
							<description>DVNA60000116AA</description>
							<scene></scene>
							<shottake></shottake>
							<lognote></lognote>
						</logginginfo>
						<labels>
							<label2>Iris</label2>
						</labels>
					</clipitem>
					<clipitem id="clipitem-764" premiereChannelType="stereo">
						<masterclipid>masterclip-73</masterclipid>
						<name>uin-seervideo-111116-h_p1</name>
						<enabled>TRUE</enabled>
						<duration>5247</duration>
						<rate>
							<timebase>25</timebase>
							<ntsc>FALSE</ntsc>
						</rate>
						<start>29106</start>
						<end>-1</end>
						<in>4200</in>
						<out>4266</out>
						<pproTicksIn>42674688000000</pproTicksIn>
						<pproTicksOut>43345290240000</pproTicksOut>
						<file id="file-73"/>
						<sourcetrack>
							<mediatype>audio</mediatype>
							<trackindex>1</trackindex>
						</sourcetrack>
						<link>
							<linkclipref>clipitem-764</linkclipref>
							<mediatype>audio</mediatype>
							<trackindex>8</trackindex>
							<clipindex>55</clipindex>
							<groupindex>1</groupindex>
						</link>
						<link>
							<linkclipref>clipitem-860</linkclipref>
							<mediatype>audio</mediatype>
							<trackindex>9</trackindex>
							<clipindex>55</clipindex>
							<groupindex>1</groupindex>
						</link>
						<logginginfo>
							<description>DVNA60000116AA</description>
							<scene></scene>
							<shottake></shottake>
							<lognote></lognote>
						</logginginfo>
						<labels>
							<label2>Iris</label2>
						</labels>
					</clipitem>
					<transitionitem>
						<start>29159</start>
						<end>29172</end>
						<alignment>end</alignment>
						<cutPointTicks>132088320000</cutPointTicks>
						<rate>
							<timebase>25</timebase>
							<ntsc>FALSE</ntsc>
						</rate>
						<effect>
							<name>Cross Fade (+3dB)</name>
							<effectid>KGAudioTransCrossFade3dB</effectid>
							<effecttype>transition</effecttype>
							<mediatype>audio</mediatype>
							<wipecode>0</wipecode>
							<wipeaccuracy>100</wipeaccuracy>
							<startratio>0</startratio>
							<endratio>1</endratio>
							<reverse>FALSE</reverse>
						</effect>
					</transitionitem>
					<clipitem id="clipitem-765" premiereChannelType="stereo">
						<masterclipid>masterclip-74</masterclipid>
						<name>eventyr-hel-041117-st</name>
						<enabled>TRUE</enabled>
						<duration>822</duration>
						<rate>
							<timebase>25</timebase>
							<ntsc>FALSE</ntsc>
						</rate>
						<start>-1</start>
						<end>29342</end>
						<in>4</in>
						<out>187</out>
						<pproTicksIn>40642560000</pproTicksIn>
						<pproTicksOut>1900039680000</pproTicksOut>
						<file id="file-74"/>
						<sourcetrack>
							<mediatype>audio</mediatype>
							<trackindex>1</trackindex>
						</sourcetrack>
						<link>
							<linkclipref>clipitem-104</linkclipref>
							<mediatype>video</mediatype>
							<trackindex>1</trackindex>
							<clipindex>107</clipindex>
						</link>
						<link>
							<linkclipref>clipitem-765</linkclipref>
							<mediatype>audio</mediatype>
							<trackindex>8</trackindex>
							<clipindex>57</clipindex>
							<groupindex>1</groupindex>
						</link>
						<link>
							<linkclipref>clipitem-861</linkclipref>
							<mediatype>audio</mediatype>
							<trackindex>9</trackindex>
							<clipindex>57</clipindex>
							<groupindex>1</groupindex>
						</link>
						<logginginfo>
							<description>eventyr-hel-041117-st</description>
							<scene></scene>
							<shottake></shottake>
							<lognote></lognote>
						</logginginfo>
						<labels>
							<label2>Iris</label2>
						</labels>
					</clipitem>
					<clipitem id="clipitem-766" premiereChannelType="stereo">
						<masterclipid>masterclip-74</masterclipid>
						<name>eventyr-hel-041117-st</name>
						<enabled>TRUE</enabled>
						<duration>822</duration>
						<rate>
							<timebase>25</timebase>
							<ntsc>FALSE</ntsc>
						</rate>
						<start>29342</start>
						<end>-1</end>
						<in>233</in>
						<out>570</out>
						<pproTicksIn>2367429120000</pproTicksIn>
						<pproTicksOut>5791564800000</pproTicksOut>
						<file id="file-74"/>
						<sourcetrack>
							<mediatype>audio</mediatype>
							<trackindex>1</trackindex>
						</sourcetrack>
						<link>
							<linkclipref>clipitem-105</linkclipref>
							<mediatype>video</mediatype>
							<trackindex>1</trackindex>
							<clipindex>108</clipindex>
						</link>
						<link>
							<linkclipref>clipitem-766</linkclipref>
							<mediatype>audio</mediatype>
							<trackindex>8</trackindex>
							<clipindex>58</clipindex>
							<groupindex>1</groupindex>
						</link>
						<link>
							<linkclipref>clipitem-862</linkclipref>
							<mediatype>audio</mediatype>
							<trackindex>9</trackindex>
							<clipindex>58</clipindex>
							<groupindex>1</groupindex>
						</link>
						<logginginfo>
							<description>eventyr-hel-041117-st</description>
							<scene></scene>
							<shottake></shottake>
							<lognote></lognote>
						</logginginfo>
						<labels>
							<label2>Iris</label2>
						</labels>
					</clipitem>
					<transitionitem>
						<start>29666</start>
						<end>29679</end>
						<alignment>center</alignment>
						<cutPointTicks>60963840000</cutPointTicks>
						<rate>
							<timebase>25</timebase>
							<ntsc>FALSE</ntsc>
						</rate>
						<effect>
							<name>Cross Fade (+3dB)</name>
							<effectid>KGAudioTransCrossFade3dB</effectid>
							<effecttype>transition</effecttype>
							<mediatype>audio</mediatype>
							<wipecode>0</wipecode>
							<wipeaccuracy>100</wipeaccuracy>
							<startratio>0</startratio>
							<endratio>1</endratio>
							<reverse>FALSE</reverse>
						</effect>
					</transitionitem>
					<clipitem id="clipitem-767" premiereChannelType="stereo">
						<masterclipid>masterclip-75</masterclipid>
						<name>naturligvis-111116-ho_p0</name>
						<enabled>TRUE</enabled>
						<duration>5914</duration>
						<rate>
							<timebase>25</timebase>
							<ntsc>FALSE</ntsc>
						</rate>
						<start>-1</start>
						<end>29920</end>
						<in>47</in>
						<out>301</out>
						<pproTicksIn>477550080000</pproTicksIn>
						<pproTicksOut>3058352640000</pproTicksOut>
						<file id="file-75"/>
						<sourcetrack>
							<mediatype>audio</mediatype>
							<trackindex>1</trackindex>
						</sourcetrack>
						<link>
							<linkclipref>clipitem-106</linkclipref>
							<mediatype>video</mediatype>
							<trackindex>1</trackindex>
							<clipindex>110</clipindex>
						</link>
						<link>
							<linkclipref>clipitem-767</linkclipref>
							<mediatype>audio</mediatype>
							<trackindex>8</trackindex>
							<clipindex>60</clipindex>
							<groupindex>1</groupindex>
						</link>
						<link>
							<linkclipref>clipitem-863</linkclipref>
							<mediatype>audio</mediatype>
							<trackindex>9</trackindex>
							<clipindex>60</clipindex>
							<groupindex>1</groupindex>
						</link>
						<logginginfo>
							<description>DVNA21001615AA</description>
							<scene></scene>
							<shottake></shottake>
							<lognote></lognote>
						</logginginfo>
						<labels>
							<label2>Iris</label2>
						</labels>
					</clipitem>
					<clipitem id="clipitem-768" premiereChannelType="stereo">
						<masterclipid>masterclip-75</masterclipid>
						<name>naturligvis-111116-ho_p0</name>
						<enabled>TRUE</enabled>
						<duration>5914</duration>
						<rate>
							<timebase>25</timebase>
							<ntsc>FALSE</ntsc>
						</rate>
						<start>29920</start>
						<end>30244</end>
						<in>531</in>
						<out>855</out>
						<pproTicksIn>5395299840000</pproTicksIn>
						<pproTicksOut>8687347200000</pproTicksOut>
						<file id="file-75"/>
						<sourcetrack>
							<mediatype>audio</mediatype>
							<trackindex>1</trackindex>
						</sourcetrack>
						<link>
							<linkclipref>clipitem-107</linkclipref>
							<mediatype>video</mediatype>
							<trackindex>1</trackindex>
							<clipindex>111</clipindex>
						</link>
						<link>
							<linkclipref>clipitem-768</linkclipref>
							<mediatype>audio</mediatype>
							<trackindex>8</trackindex>
							<clipindex>61</clipindex>
							<groupindex>1</groupindex>
						</link>
						<link>
							<linkclipref>clipitem-864</linkclipref>
							<mediatype>audio</mediatype>
							<trackindex>9</trackindex>
							<clipindex>61</clipindex>
							<groupindex>1</groupindex>
						</link>
						<logginginfo>
							<description>DVNA21001615AA</description>
							<scene></scene>
							<shottake></shottake>
							<lognote></lognote>
						</logginginfo>
						<labels>
							<label2>Iris</label2>
						</labels>
					</clipitem>
					<clipitem id="clipitem-769" premiereChannelType="stereo">
						<masterclipid>masterclip-75</masterclipid>
						<name>naturligvis-111116-ho_p0</name>
						<enabled>TRUE</enabled>
						<duration>5914</duration>
						<rate>
							<timebase>25</timebase>
							<ntsc>FALSE</ntsc>
						</rate>
						<start>30244</start>
						<end>30418</end>
						<in>2466</in>
						<out>2640</out>
						<pproTicksIn>25056138240000</pproTicksIn>
						<pproTicksOut>26824089600000</pproTicksOut>
						<file id="file-75"/>
						<sourcetrack>
							<mediatype>audio</mediatype>
							<trackindex>1</trackindex>
						</sourcetrack>
						<link>
							<linkclipref>clipitem-108</linkclipref>
							<mediatype>video</mediatype>
							<trackindex>1</trackindex>
							<clipindex>112</clipindex>
						</link>
						<link>
							<linkclipref>clipitem-769</linkclipref>
							<mediatype>audio</mediatype>
							<trackindex>8</trackindex>
							<clipindex>62</clipindex>
							<groupindex>1</groupindex>
						</link>
						<link>
							<linkclipref>clipitem-865</linkclipref>
							<mediatype>audio</mediatype>
							<trackindex>9</trackindex>
							<clipindex>62</clipindex>
							<groupindex>1</groupindex>
						</link>
						<logginginfo>
							<description>DVNA21001615AA</description>
							<scene></scene>
							<shottake></shottake>
							<lognote></lognote>
						</logginginfo>
						<labels>
							<label2>Iris</label2>
						</labels>
					</clipitem>
					<clipitem id="clipitem-770" premiereChannelType="stereo">
						<masterclipid>masterclip-76</masterclipid>
						<name>DVNA21002015AA</name>
						<enabled>TRUE</enabled>
						<duration>58716</duration>
						<rate>
							<timebase>25</timebase>
							<ntsc>FALSE</ntsc>
						</rate>
						<start>30418</start>
						<end>30961</end>
						<in>25431</in>
						<out>25974</out>
						<pproTicksIn>258395235840000</pproTicksIn>
						<pproTicksOut>263912463360000</pproTicksOut>
						<file id="file-76"/>
						<sourcetrack>
							<mediatype>audio</mediatype>
							<trackindex>1</trackindex>
						</sourcetrack>
							<filter>
								<effect>
									<name>Audio Levels</name>
									<effectid>audiolevels</effectid>
									<effectcategory>audiolevels</effectcategory>
									<effecttype>audiolevels</effecttype>
									<mediatype>audio</mediatype>
									<parameter authoringApp="PremierePro">
										<parameterid>level</parameterid>
										<name>Level</name>
										<valuemin>0</valuemin>
										<valuemax>3.98109</valuemax>
										<value>0.99763</value>
										<keyframe>
											<when>25947</when>
											<value>0.99763</value>
										</keyframe>
										<keyframe>
											<when>25963</when>
											<value>0</value>
										</keyframe>
									</parameter>
								</effect>
							</filter>
						<link>
							<linkclipref>clipitem-770</linkclipref>
							<mediatype>audio</mediatype>
							<trackindex>8</trackindex>
							<clipindex>63</clipindex>
							<groupindex>1</groupindex>
						</link>
						<link>
							<linkclipref>clipitem-866</linkclipref>
							<mediatype>audio</mediatype>
							<trackindex>9</trackindex>
							<clipindex>63</clipindex>
							<groupindex>1</groupindex>
						</link>
						<logginginfo>
							<description>Ut i naturen - Sanser (2:6 @ Ut i naturen)</description>
							<scene></scene>
							<shottake></shottake>
							<lognote></lognote>
						</logginginfo>
						<labels>
							<label2>Iris</label2>
						</labels>
					</clipitem>
					<transitionitem>
						<start>33532</start>
						<end>33534</end>
						<alignment>start-black</alignment>
						<cutPointTicks>0</cutPointTicks>
						<rate>
							<timebase>25</timebase>
							<ntsc>FALSE</ntsc>
						</rate>
						<effect>
							<name>Cross Fade (+3dB)</name>
							<effectid>KGAudioTransCrossFade3dB</effectid>
							<effecttype>transition</effecttype>
							<mediatype>audio</mediatype>
							<wipecode>0</wipecode>
							<wipeaccuracy>100</wipeaccuracy>
							<startratio>0</startratio>
							<endratio>1</endratio>
							<reverse>FALSE</reverse>
						</effect>
					</transitionitem>
					<clipitem id="clipitem-771" premiereChannelType="stereo">
						<masterclipid>masterclip-87</masterclipid>
						<name>HM-HELAFTEN</name>
						<enabled>TRUE</enabled>
						<duration>1424</duration>
						<rate>
							<timebase>25</timebase>
							<ntsc>FALSE</ntsc>
						</rate>
						<start>-1</start>
						<end>34476</end>
						<in>0</in>
						<out>944</out>
						<pproTicksIn>0</pproTicksIn>
						<pproTicksOut>9591644160000</pproTicksOut>
						<file id="file-87"/>
						<sourcetrack>
							<mediatype>audio</mediatype>
							<trackindex>1</trackindex>
						</sourcetrack>
							<filter>
								<effect>
									<name>Audio Levels</name>
									<effectid>audiolevels</effectid>
									<effectcategory>audiolevels</effectcategory>
									<effecttype>audiolevels</effecttype>
									<mediatype>audio</mediatype>
									<parameter authoringApp="PremierePro">
										<parameterid>level</parameterid>
										<name>Level</name>
										<valuemin>0</valuemin>
										<valuemax>3.98109</valuemax>
										<value>0</value>
										<keyframe>
											<when>857</when>
											<value>0.99763</value>
										</keyframe>
										<keyframe>
											<when>943</when>
											<value>0</value>
										</keyframe>
									</parameter>
								</effect>
							</filter>
						<link>
							<linkclipref>clipitem-126</linkclipref>
							<mediatype>video</mediatype>
							<trackindex>1</trackindex>
							<clipindex>134</clipindex>
						</link>
						<link>
							<linkclipref>clipitem-771</linkclipref>
							<mediatype>audio</mediatype>
							<trackindex>8</trackindex>
							<clipindex>65</clipindex>
							<groupindex>1</groupindex>
						</link>
						<link>
							<linkclipref>clipitem-867</linkclipref>
							<mediatype>audio</mediatype>
							<trackindex>9</trackindex>
							<clipindex>65</clipindex>
							<groupindex>1</groupindex>
						</link>
						<logginginfo>
							<description>HM-HELAFTEN</description>
							<scene></scene>
							<shottake></shottake>
							<lognote></lognote>
						</logginginfo>
						<labels>
							<label2>Iris</label2>
						</labels>
					</clipitem>
					<clipitem id="clipitem-772" premiereChannelType="mono">
						<masterclipid>masterclip-93</masterclipid>
						<name>Aashild-august-Clip0760.MXF</name>
						<enabled>TRUE</enabled>
						<duration>1128</duration>
						<rate>
							<timebase>25</timebase>
							<ntsc>FALSE</ntsc>
						</rate>
						<start>35104</start>
						<end>35161</end>
						<in>201</in>
						<out>258</out>
						<pproTicksIn>2042288640000</pproTicksIn>
						<pproTicksOut>2621445120000</pproTicksOut>
						<file id="file-93"/>
						<sourcetrack>
							<mediatype>audio</mediatype>
							<trackindex>4</trackindex>
						</sourcetrack>
						<link>
							<linkclipref>clipitem-321</linkclipref>
							<mediatype>video</mediatype>
							<trackindex>2</trackindex>
							<clipindex>65</clipindex>
						</link>
						<link>
							<linkclipref>clipitem-646</linkclipref>
							<mediatype>audio</mediatype>
							<trackindex>3</trackindex>
							<clipindex>59</clipindex>
							<groupindex>1</groupindex>
						</link>
						<link>
							<linkclipref>clipitem-691</linkclipref>
							<mediatype>audio</mediatype>
							<trackindex>5</trackindex>
							<clipindex>34</clipindex>
							<groupindex>1</groupindex>
						</link>
						<link>
							<linkclipref>clipitem-718</linkclipref>
							<mediatype>audio</mediatype>
							<trackindex>7</trackindex>
							<clipindex>29</clipindex>
							<groupindex>1</groupindex>
						</link>
						<link>
							<linkclipref>clipitem-772</linkclipref>
							<mediatype>audio</mediatype>
							<trackindex>8</trackindex>
							<clipindex>66</clipindex>
							<groupindex>1</groupindex>
						</link>
						<logginginfo>
							<description></description>
							<scene></scene>
							<shottake></shottake>
							<lognote></lognote>
						</logginginfo>
						<labels>
							<label2>Caribbean</label2>
						</labels>
					</clipitem>
					<clipitem id="clipitem-773" premiereChannelType="stereo">
						<masterclipid>masterclip-316</masterclipid>
						<name>Nordvisjon-MASTER-vr3-201016-ny-kontentum.wav</name>
						<enabled>TRUE</enabled>
						<duration>43013</duration>
						<rate>
							<timebase>25</timebase>
							<ntsc>FALSE</ntsc>
						</rate>
						<start>35955</start>
						<end>36786</end>
						<in>740</in>
						<out>1571</out>
						<pproTicksIn>7518873600000</pproTicksIn>
						<pproTicksOut>15962365440000</pproTicksOut>
						<file id="file-316">
							<name>Nordvisjon-MASTER-vr3-201016-ny-kontentum.wav</name>
							<pathurl>file://localhost/Volumes/Vaagen/Utveksling/Natur/Naturlig%20helaften%20fra%20Oslo/Transcoded_Nedklipp%20helaften/Nordvisjon-MASTER-vr3-201016-ny-kontentum.wav</pathurl>
							<rate>
								<timebase>30</timebase>
								<ntsc>TRUE</ntsc>
							</rate>
							<duration>51564</duration>
							<timecode>
								<rate>
									<timebase>30</timebase>
									<ntsc>TRUE</ntsc>
								</rate>
								<string>00;00;00;00</string>
								<frame>0</frame>
								<displayformat>DF</displayformat>
								<reel>
									<name></name>
								</reel>
							</timecode>
							<media>
								<audio>
									<samplecharacteristics>
										<depth>16</depth>
										<samplerate>48000</samplerate>
									</samplecharacteristics>
									<channelcount>2</channelcount>
								</audio>
							</media>
						</file>
						<sourcetrack>
							<mediatype>audio</mediatype>
							<trackindex>1</trackindex>
						</sourcetrack>
							<filter>
								<effect>
									<name>Audio Levels</name>
									<effectid>audiolevels</effectid>
									<effectcategory>audiolevels</effectcategory>
									<effecttype>audiolevels</effecttype>
									<mediatype>audio</mediatype>
									<parameter authoringApp="PremierePro">
										<parameterid>level</parameterid>
										<name>Level</name>
										<valuemin>0</valuemin>
										<valuemax>3.98109</valuemax>
										<value>0.258645</value>
										<keyframe>
											<when>1196</when>
											<value>0.598264</value>
										</keyframe>
										<keyframe>
											<when>1227</when>
											<value>0.199212</value>
										</keyframe>
										<keyframe>
											<when>1454</when>
											<value>0.298975</value>
										</keyframe>
										<keyframe>
											<when>1562</when>
											<value>0</value>
										</keyframe>
										<keyframe>
											<when>1577</when>
											<value>0</value>
										</keyframe>
										<keyframe>
											<when>1593</when>
											<value>0</value>
										</keyframe>
										<keyframe>
											<when>1614</when>
											<value>0</value>
										</keyframe>
										<keyframe>
											<when>1626</when>
											<value>0.258645</value>
										</keyframe>
										<keyframe>
											<when>2051</when>
											<value>0.332543</value>
										</keyframe>
										<keyframe>
											<when>2174</when>
											<value>0.131288</value>
										</keyframe>
										<keyframe>
											<when>2368</when>
											<value>0.131288</value>
										</keyframe>
										<keyframe>
											<when>2411</when>
											<value>0.428454</value>
										</keyframe>
										<keyframe>
											<when>2624</when>
											<value>0.386002</value>
										</keyframe>
										<keyframe>
											<when>2675</when>
											<value>0.258645</value>
										</keyframe>
									</parameter>
								</effect>
							</filter>
							<marker>
								<comment></comment>
								<name></name>
								<in>40399</in>
								<out>-1</out>
							</marker>
							<marker>
								<comment></comment>
								<name></name>
								<in>3092</in>
								<out>-1</out>
							</marker>
							<marker>
								<comment></comment>
								<name></name>
								<in>36054</in>
								<out>-1</out>
							</marker>
							<marker>
								<comment></comment>
								<name></name>
								<in>0</in>
								<out>-1</out>
							</marker>
						<link>
							<linkclipref>clipitem-773</linkclipref>
							<mediatype>audio</mediatype>
							<trackindex>8</trackindex>
							<clipindex>67</clipindex>
							<groupindex>1</groupindex>
						</link>
						<link>
							<linkclipref>clipitem-868</linkclipref>
							<mediatype>audio</mediatype>
							<trackindex>9</trackindex>
							<clipindex>66</clipindex>
							<groupindex>1</groupindex>
						</link>
						<logginginfo>
							<description></description>
							<scene></scene>
							<shottake></shottake>
							<lognote></lognote>
						</logginginfo>
						<labels>
							<label2>Iris</label2>
						</labels>
					</clipitem>
					<clipitem id="clipitem-774" premiereChannelType="stereo">
						<masterclipid>masterclip-98</masterclipid>
						<name>DVNA60000316AA</name>
						<enabled>TRUE</enabled>
						<duration>58641</duration>
						<rate>
							<timebase>25</timebase>
							<ntsc>FALSE</ntsc>
						</rate>
						<start>36975</start>
						<end>37222</end>
						<in>15193</in>
						<out>15440</out>
						<pproTicksIn>154370603520000</pproTicksIn>
						<pproTicksOut>156880281600000</pproTicksOut>
						<file id="file-98"/>
						<sourcetrack>
							<mediatype>audio</mediatype>
							<trackindex>1</trackindex>
						</sourcetrack>
							<filter>
								<effect>
									<name>Audio Levels</name>
									<effectid>audiolevels</effectid>
									<effectcategory>audiolevels</effectcategory>
									<effecttype>audiolevels</effecttype>
									<mediatype>audio</mediatype>
									<parameter authoringApp="PremierePro">
										<parameterid>level</parameterid>
										<name>Level</name>
										<valuemin>0</valuemin>
										<valuemax>3.98109</valuemax>
										<value>0.99763</value>
										<keyframe>
											<when>15297</when>
											<value>1.50706</value>
										</keyframe>
										<keyframe>
											<when>15319</when>
											<value>0.99763</value>
										</keyframe>
									</parameter>
								</effect>
							</filter>
						<link>
							<linkclipref>clipitem-139</linkclipref>
							<mediatype>video</mediatype>
							<trackindex>1</trackindex>
							<clipindex>148</clipindex>
						</link>
						<link>
							<linkclipref>clipitem-774</linkclipref>
							<mediatype>audio</mediatype>
							<trackindex>8</trackindex>
							<clipindex>68</clipindex>
							<groupindex>1</groupindex>
						</link>
						<link>
							<linkclipref>clipitem-869</linkclipref>
							<mediatype>audio</mediatype>
							<trackindex>9</trackindex>
							<clipindex>67</clipindex>
							<groupindex>1</groupindex>
						</link>
						<logginginfo>
							<description>Ut i naturen - Hornøya</description>
							<scene></scene>
							<shottake></shottake>
							<lognote></lognote>
						</logginginfo>
						<labels>
							<label2>Iris</label2>
						</labels>
					</clipitem>
					<clipitem id="clipitem-775" premiereChannelType="stereo">
						<masterclipid>masterclip-98</masterclipid>
						<name>DVNA60000316AA</name>
						<enabled>TRUE</enabled>
						<duration>58641</duration>
						<rate>
							<timebase>25</timebase>
							<ntsc>FALSE</ntsc>
						</rate>
						<start>37222</start>
						<end>-1</end>
						<in>15440</in>
						<out>15592</out>
						<pproTicksIn>156880281600000</pproTicksIn>
						<pproTicksOut>158424698880000</pproTicksOut>
						<file id="file-98"/>
						<sourcetrack>
							<mediatype>audio</mediatype>
							<trackindex>1</trackindex>
						</sourcetrack>
						<link>
							<linkclipref>clipitem-775</linkclipref>
							<mediatype>audio</mediatype>
							<trackindex>8</trackindex>
							<clipindex>69</clipindex>
							<groupindex>1</groupindex>
						</link>
						<link>
							<linkclipref>clipitem-870</linkclipref>
							<mediatype>audio</mediatype>
							<trackindex>9</trackindex>
							<clipindex>68</clipindex>
							<groupindex>1</groupindex>
						</link>
						<logginginfo>
							<description>Ut i naturen - Hornøya</description>
							<scene></scene>
							<shottake></shottake>
							<lognote></lognote>
						</logginginfo>
						<labels>
							<label2>Iris</label2>
						</labels>
					</clipitem>
					<transitionitem>
						<start>37361</start>
						<end>37374</end>
						<alignment>center</alignment>
						<cutPointTicks>60963840000</cutPointTicks>
						<rate>
							<timebase>25</timebase>
							<ntsc>FALSE</ntsc>
						</rate>
						<effect>
							<name>Cross Fade (+3dB)</name>
							<effectid>KGAudioTransCrossFade3dB</effectid>
							<effecttype>transition</effecttype>
							<mediatype>audio</mediatype>
							<wipecode>0</wipecode>
							<wipeaccuracy>100</wipeaccuracy>
							<startratio>0</startratio>
							<endratio>1</endratio>
							<reverse>FALSE</reverse>
						</effect>
					</transitionitem>
					<clipitem id="clipitem-776" premiereChannelType="stereo">
						<masterclipid>masterclip-98</masterclipid>
						<name>DVNA60000316AA</name>
						<enabled>TRUE</enabled>
						<duration>58641</duration>
						<rate>
							<timebase>25</timebase>
							<ntsc>FALSE</ntsc>
						</rate>
						<start>-1</start>
						<end>37415</end>
						<in>15424</in>
						<out>15478</out>
						<pproTicksIn>156717711360000</pproTicksIn>
						<pproTicksOut>157266385920000</pproTicksOut>
						<file id="file-98"/>
						<sourcetrack>
							<mediatype>audio</mediatype>
							<trackindex>1</trackindex>
						</sourcetrack>
							<filter>
								<effect>
									<name>Audio Levels</name>
									<effectid>audiolevels</effectid>
									<effectcategory>audiolevels</effectcategory>
									<effecttype>audiolevels</effecttype>
									<mediatype>audio</mediatype>
									<parameter authoringApp="PremierePro">
										<parameterid>level</parameterid>
										<name>Level</name>
										<valuemin>0</valuemin>
										<valuemax>3.98109</valuemax>
										<value>0</value>
										<keyframe>
											<when>15455</when>
											<value>0.99763</value>
										</keyframe>
										<keyframe>
											<when>15474</when>
											<value>0</value>
										</keyframe>
									</parameter>
								</effect>
							</filter>
						<link>
							<linkclipref>clipitem-776</linkclipref>
							<mediatype>audio</mediatype>
							<trackindex>8</trackindex>
							<clipindex>71</clipindex>
							<groupindex>1</groupindex>
						</link>
						<link>
							<linkclipref>clipitem-871</linkclipref>
							<mediatype>audio</mediatype>
							<trackindex>9</trackindex>
							<clipindex>70</clipindex>
							<groupindex>1</groupindex>
						</link>
						<logginginfo>
							<description>Ut i naturen - Hornøya</description>
							<scene></scene>
							<shottake></shottake>
							<lognote></lognote>
						</logginginfo>
						<labels>
							<label2>Iris</label2>
						</labels>
					</clipitem>
					<clipitem id="clipitem-777" premiereChannelType="stereo">
						<masterclipid>masterclip-102</masterclipid>
						<name>NRK2-180616.mxf</name>
						<enabled>TRUE</enabled>
						<duration>183000</duration>
						<rate>
							<timebase>25</timebase>
							<ntsc>FALSE</ntsc>
						</rate>
						<start>37582</start>
						<end>37685</end>
						<in>23144</in>
						<out>23247</out>
						<pproTicksIn>235157852160000</pproTicksIn>
						<pproTicksOut>236204398080000</pproTicksOut>
						<file id="file-102"/>
						<sourcetrack>
							<mediatype>audio</mediatype>
							<trackindex>3</trackindex>
						</sourcetrack>
						<link>
							<linkclipref>clipitem-143</linkclipref>
							<mediatype>video</mediatype>
							<trackindex>1</trackindex>
							<clipindex>152</clipindex>
						</link>
						<link>
							<linkclipref>clipitem-777</linkclipref>
							<mediatype>audio</mediatype>
							<trackindex>8</trackindex>
							<clipindex>72</clipindex>
							<groupindex>1</groupindex>
						</link>
						<link>
							<linkclipref>clipitem-872</linkclipref>
							<mediatype>audio</mediatype>
							<trackindex>9</trackindex>
							<clipindex>71</clipindex>
							<groupindex>1</groupindex>
						</link>
						<logginginfo>
							<description>Program 5</description>
							<scene></scene>
							<shottake></shottake>
							<lognote></lognote>
						</logginginfo>
						<labels>
							<label2>Iris</label2>
						</labels>
					</clipitem>
					<clipitem id="clipitem-778" premiereChannelType="stereo">
						<masterclipid>masterclip-103</masterclipid>
						<name>DVNA25000116AU.mxf</name>
						<enabled>TRUE</enabled>
						<duration>192000</duration>
						<rate>
							<timebase>25</timebase>
							<ntsc>FALSE</ntsc>
						</rate>
						<start>37724</start>
						<end>37788</end>
						<in>66194</in>
						<out>66258</out>
						<pproTicksIn>672573404160000</pproTicksIn>
						<pproTicksOut>673223685120000</pproTicksOut>
						<file id="file-103"/>
						<sourcetrack>
							<mediatype>audio</mediatype>
							<trackindex>3</trackindex>
						</sourcetrack>
						<link>
							<linkclipref>clipitem-144</linkclipref>
							<mediatype>video</mediatype>
							<trackindex>1</trackindex>
							<clipindex>153</clipindex>
						</link>
						<link>
							<linkclipref>clipitem-778</linkclipref>
							<mediatype>audio</mediatype>
							<trackindex>8</trackindex>
							<clipindex>73</clipindex>
							<groupindex>1</groupindex>
						</link>
						<link>
							<linkclipref>clipitem-873</linkclipref>
							<mediatype>audio</mediatype>
							<trackindex>9</trackindex>
							<clipindex>72</clipindex>
							<groupindex>1</groupindex>
						</link>
						<logginginfo>
							<description>Program 1</description>
							<scene></scene>
							<shottake></shottake>
							<lognote></lognote>
						</logginginfo>
						<labels>
							<label2>Iris</label2>
						</labels>
					</clipitem>
					<clipitem id="clipitem-779" premiereChannelType="stereo">
						<masterclipid>masterclip-12</masterclipid>
						<name>NRK2-300616 (1).mxf</name>
						<enabled>TRUE</enabled>
						<duration>183000</duration>
						<rate>
							<timebase>25</timebase>
							<ntsc>FALSE</ntsc>
						</rate>
						<start>37788</start>
						<end>-1</end>
						<in>76345</in>
						<out>76482</out>
						<pproTicksIn>775714060800000</pproTicksIn>
						<pproTicksOut>777106068480000</pproTicksOut>
						<file id="file-12"/>
						<sourcetrack>
							<mediatype>audio</mediatype>
							<trackindex>3</trackindex>
						</sourcetrack>
						<link>
							<linkclipref>clipitem-779</linkclipref>
							<mediatype>audio</mediatype>
							<trackindex>8</trackindex>
							<clipindex>74</clipindex>
							<groupindex>1</groupindex>
						</link>
						<link>
							<linkclipref>clipitem-874</linkclipref>
							<mediatype>audio</mediatype>
							<trackindex>9</trackindex>
							<clipindex>73</clipindex>
							<groupindex>1</groupindex>
						</link>
						<logginginfo>
							<description>Program 13</description>
							<scene></scene>
							<shottake></shottake>
							<lognote></lognote>
						</logginginfo>
						<labels>
							<label2>Iris</label2>
						</labels>
					</clipitem>
					<transitionitem>
						<start>37912</start>
						<end>37925</end>
						<alignment>center</alignment>
						<cutPointTicks>60963840000</cutPointTicks>
						<rate>
							<timebase>25</timebase>
							<ntsc>FALSE</ntsc>
						</rate>
						<effect>
							<name>Cross Fade (+3dB)</name>
							<effectid>KGAudioTransCrossFade3dB</effectid>
							<effecttype>transition</effecttype>
							<mediatype>audio</mediatype>
							<wipecode>0</wipecode>
							<wipeaccuracy>100</wipeaccuracy>
							<startratio>0</startratio>
							<endratio>1</endratio>
							<reverse>FALSE</reverse>
						</effect>
					</transitionitem>
					<clipitem id="clipitem-780" premiereChannelType="mono">
						<masterclipid>masterclip-105</masterclipid>
						<name>DVNA60000512AA</name>
						<enabled>TRUE</enabled>
						<duration>43804</duration>
						<rate>
							<timebase>25</timebase>
							<ntsc>FALSE</ntsc>
						</rate>
						<start>-1</start>
						<end>38148</end>
						<in>22712</in>
						<out>22947</out>
						<pproTicksIn>230768455680000</pproTicksIn>
						<pproTicksOut>233156206080000</pproTicksOut>
						<file id="file-105"/>
						<sourcetrack>
							<mediatype>audio</mediatype>
							<trackindex>1</trackindex>
						</sourcetrack>
							<filter>
								<effect>
									<name>Gain</name>
									<effectid>{61756678, 4761696e, 4b657947}</effectid>
									<effecttype>filter</effecttype>
									<mediatype>audio</mediatype>
									<parameter authoringApp="PremierePro">
										<parameterid>Gain(dB)</parameterid>
										<name>Gain(dB)</name>
										<valuemin>-96</valuemin>
										<valuemax>96</valuemax>
										<value>5</value>
									</parameter>
								</effect>
							</filter>
							<filter>
								<effect>
									<name>Audio Levels</name>
									<effectid>audiolevels</effectid>
									<effectcategory>audiolevels</effectcategory>
									<effecttype>audiolevels</effecttype>
									<mediatype>audio</mediatype>
									<parameter authoringApp="PremierePro">
										<parameterid>level</parameterid>
										<name>Level</name>
										<valuemin>0</valuemin>
										<valuemax>3.98109</valuemax>
										<value>1.84668</value>
										<keyframe>
											<when>22823</when>
											<value>1.84668</value>
										</keyframe>
										<keyframe>
											<when>22836</when>
											<value>0.955178</value>
										</keyframe>
										<keyframe>
											<when>22879</when>
											<value>0.233488</value>
										</keyframe>
									</parameter>
								</effect>
							</filter>
							<marker>
								<comment></comment>
								<name>Fugleturisme - del 4</name>
								<in>32246</in>
								<out>33673</out>
							</marker>
							<marker>
								<comment></comment>
								<name>Frankmotunet - del 1</name>
								<in>5947</in>
								<out>12861</out>
							</marker>
							<marker>
								<comment></comment>
								<name>Fugleturisme - del 2</name>
								<in>12862</in>
								<out>16789</out>
							</marker>
							<marker>
								<comment></comment>
								<name>Seervideo - Hareunge</name>
								<in>41155</in>
								<out>41680</out>
							</marker>
							<marker>
								<comment></comment>
								<name>Fugleturisme - del 5</name>
								<in>41682</in>
								<out>43802</out>
							</marker>
							<marker>
								<comment></comment>
								<name>Mat fra Naturen - strutseving</name>
								<in>33675</in>
								<out>36872</out>
							</marker>
							<marker>
								<comment></comment>
								<name>Fugleturisme</name>
								<in>27</in>
								<out>5946</out>
							</marker>
							<marker>
								<comment></comment>
								<name>Seervideo - Snømus</name>
								<in>39066</in>
								<out>40295</out>
							</marker>
							<marker>
								<comment></comment>
								<name>Fugleturisme - del 3</name>
								<in>22630</in>
								<out>25483</out>
							</marker>
							<marker>
								<comment></comment>
								<name>Seervideo - Ekornmor</name>
								<in>36873</in>
								<out>38171</out>
							</marker>
							<marker>
								<comment></comment>
								<name>Seervideo - Havørn</name>
								<in>40296</in>
								<out>41153</out>
							</marker>
							<marker>
								<comment></comment>
								<name>Frankmotunet - del 2</name>
								<in>25484</in>
								<out>32244</out>
							</marker>
							<marker>
								<comment></comment>
								<name>Seervideo - Spurveugle</name>
								<in>38172</in>
								<out>39065</out>
							</marker>
							<marker>
								<comment></comment>
								<name>Bever</name>
								<in>16790</in>
								<out>22629</out>
							</marker>
						<link>
							<linkclipref>clipitem-147</linkclipref>
							<mediatype>video</mediatype>
							<trackindex>1</trackindex>
							<clipindex>156</clipindex>
						</link>
						<link>
							<linkclipref>clipitem-780</linkclipref>
							<mediatype>audio</mediatype>
							<trackindex>8</trackindex>
							<clipindex>76</clipindex>
							<groupindex>1</groupindex>
						</link>
						<logginginfo>
							<description>Ut i naturen (5:12 @ Ut i naturen)</description>
							<scene></scene>
							<shottake></shottake>
							<lognote></lognote>
						</logginginfo>
						<labels>
							<label2>Iris</label2>
						</labels>
					</clipitem>
					<clipitem id="clipitem-781" premiereChannelType="stereo">
						<masterclipid>masterclip-202</masterclipid>
						<name>00066.MTS</name>
						<enabled>TRUE</enabled>
						<duration>819</duration>
						<rate>
							<timebase>25</timebase>
							<ntsc>FALSE</ntsc>
						</rate>
						<start>38324</start>
						<end>38564</end>
						<in>446</in>
						<out>686</out>
						<pproTicksIn>4531645440000</pproTicksIn>
						<pproTicksOut>6970199040000</pproTicksOut>
						<file id="file-202"/>
						<sourcetrack>
							<mediatype>audio</mediatype>
							<trackindex>1</trackindex>
						</sourcetrack>
							<filter>
								<effect>
									<name>Audio Levels</name>
									<effectid>audiolevels</effectid>
									<effectcategory>audiolevels</effectcategory>
									<effecttype>audiolevels</effecttype>
									<mediatype>audio</mediatype>
									<parameter authoringApp="PremierePro">
										<parameterid>level</parameterid>
										<name>Level</name>
										<valuemin>0</valuemin>
										<valuemax>3.98109</valuemax>
										<value>0</value>
										<keyframe>
											<when>396</when>
											<value>0</value>
										</keyframe>
										<keyframe>
											<when>437</when>
											<value>0.318393</value>
										</keyframe>
										<keyframe>
											<when>524</when>
											<value>0.318393</value>
										</keyframe>
										<keyframe>
											<when>541</when>
											<value>0.658011</value>
										</keyframe>
										<keyframe>
											<when>631</when>
											<value>0.658011</value>
										</keyframe>
										<keyframe>
											<when>653</when>
											<value>0</value>
										</keyframe>
									</parameter>
								</effect>
							</filter>
						<link>
							<linkclipref>clipitem-327</linkclipref>
							<mediatype>video</mediatype>
							<trackindex>2</trackindex>
							<clipindex>71</clipindex>
						</link>
						<link>
							<linkclipref>clipitem-781</linkclipref>
							<mediatype>audio</mediatype>
							<trackindex>8</trackindex>
							<clipindex>77</clipindex>
							<groupindex>1</groupindex>
						</link>
						<link>
							<linkclipref>clipitem-875</linkclipref>
							<mediatype>audio</mediatype>
							<trackindex>9</trackindex>
							<clipindex>75</clipindex>
							<groupindex>1</groupindex>
						</link>
						<logginginfo>
							<description></description>
							<scene></scene>
							<shottake></shottake>
							<lognote></lognote>
						</logginginfo>
						<labels>
							<label2>Iris</label2>
						</labels>
					</clipitem>
					<clipitem id="clipitem-782" premiereChannelType="stereo">
						<masterclipid>masterclip-205</masterclipid>
						<name>NRK1-210616.mxf</name>
						<enabled>TRUE</enabled>
						<duration>81914</duration>
						<rate>
							<timebase>25</timebase>
							<ntsc>FALSE</ntsc>
						</rate>
						<start>38736</start>
						<end>39010</end>
						<in>1256</in>
						<out>1530</out>
						<pproTicksIn>12761763840000</pproTicksIn>
						<pproTicksOut>15545779200000</pproTicksOut>
						<file id="file-205"/>
						<sourcetrack>
							<mediatype>audio</mediatype>
							<trackindex>1</trackindex>
						</sourcetrack>
							<filter>
								<effect>
									<name>Audio Levels</name>
									<effectid>audiolevels</effectid>
									<effectcategory>audiolevels</effectcategory>
									<effecttype>audiolevels</effecttype>
									<mediatype>audio</mediatype>
									<parameter authoringApp="PremierePro">
										<parameterid>level</parameterid>
										<name>Level</name>
										<valuemin>0</valuemin>
										<valuemax>3.98109</valuemax>
										<value>0</value>
										<keyframe>
											<when>1262</when>
											<value>0</value>
										</keyframe>
										<keyframe>
											<when>1328</when>
											<value>0.976404</value>
										</keyframe>
										<keyframe>
											<when>1472</when>
											<value>1.01886</value>
										</keyframe>
										<keyframe>
											<when>1496</when>
											<value>0</value>
										</keyframe>
									</parameter>
								</effect>
							</filter>
						<link>
							<linkclipref>clipitem-782</linkclipref>
							<mediatype>audio</mediatype>
							<trackindex>8</trackindex>
							<clipindex>78</clipindex>
							<groupindex>1</groupindex>
						</link>
						<link>
							<linkclipref>clipitem-876</linkclipref>
							<mediatype>audio</mediatype>
							<trackindex>9</trackindex>
							<clipindex>76</clipindex>
							<groupindex>1</groupindex>
						</link>
						<logginginfo>
							<description>DVNA20000616</description>
							<scene></scene>
							<shottake></shottake>
							<lognote></lognote>
						</logginginfo>
						<labels>
							<label2>Iris</label2>
						</labels>
					</clipitem>
					<clipitem id="clipitem-783" premiereChannelType="stereo">
						<masterclipid>masterclip-206</masterclipid>
						<name>AA017401.MXF</name>
						<enabled>TRUE</enabled>
						<duration>1104</duration>
						<rate>
							<timebase>25</timebase>
							<ntsc>FALSE</ntsc>
						</rate>
						<start>39589</start>
						<end>39662</end>
						<in>874</in>
						<out>947</out>
						<pproTicksIn>8880399360000</pproTicksIn>
						<pproTicksOut>9622126080000</pproTicksOut>
						<file id="file-206"/>
						<sourcetrack>
							<mediatype>audio</mediatype>
							<trackindex>1</trackindex>
						</sourcetrack>
						<link>
							<linkclipref>clipitem-333</linkclipref>
							<mediatype>video</mediatype>
							<trackindex>2</trackindex>
							<clipindex>77</clipindex>
						</link>
						<link>
							<linkclipref>clipitem-783</linkclipref>
							<mediatype>audio</mediatype>
							<trackindex>8</trackindex>
							<clipindex>79</clipindex>
							<groupindex>1</groupindex>
						</link>
						<link>
							<linkclipref>clipitem-877</linkclipref>
							<mediatype>audio</mediatype>
							<trackindex>9</trackindex>
							<clipindex>77</clipindex>
							<groupindex>1</groupindex>
						</link>
						<link>
							<linkclipref>clipitem-963</linkclipref>
							<mediatype>audio</mediatype>
							<trackindex>10</trackindex>
							<clipindex>65</clipindex>
							<groupindex>1</groupindex>
						</link>
						<link>
							<linkclipref>clipitem-1103</linkclipref>
							<mediatype>audio</mediatype>
							<trackindex>11</trackindex>
							<clipindex>65</clipindex>
							<groupindex>1</groupindex>
						</link>
						<logginginfo>
							<description></description>
							<scene></scene>
							<shottake></shottake>
							<lognote></lognote>
						</logginginfo>
						<labels>
							<label2>Iris</label2>
						</labels>
					</clipitem>
					<clipitem id="clipitem-784" premiereChannelType="stereo">
						<masterclipid>masterclip-207</masterclipid>
						<name>AA018201.MXF</name>
						<enabled>TRUE</enabled>
						<duration>1152</duration>
						<rate>
							<timebase>25</timebase>
							<ntsc>FALSE</ntsc>
						</rate>
						<start>39662</start>
						<end>39801</end>
						<in>192</in>
						<out>331</out>
						<pproTicksIn>1950842880000</pproTicksIn>
						<pproTicksOut>3363171840000</pproTicksOut>
						<file id="file-207"/>
						<sourcetrack>
							<mediatype>audio</mediatype>
							<trackindex>1</trackindex>
						</sourcetrack>
						<link>
							<linkclipref>clipitem-334</linkclipref>
							<mediatype>video</mediatype>
							<trackindex>2</trackindex>
							<clipindex>78</clipindex>
						</link>
						<link>
							<linkclipref>clipitem-784</linkclipref>
							<mediatype>audio</mediatype>
							<trackindex>8</trackindex>
							<clipindex>80</clipindex>
							<groupindex>1</groupindex>
						</link>
						<link>
							<linkclipref>clipitem-878</linkclipref>
							<mediatype>audio</mediatype>
							<trackindex>9</trackindex>
							<clipindex>78</clipindex>
							<groupindex>1</groupindex>
						</link>
						<link>
							<linkclipref>clipitem-964</linkclipref>
							<mediatype>audio</mediatype>
							<trackindex>10</trackindex>
							<clipindex>66</clipindex>
							<groupindex>1</groupindex>
						</link>
						<link>
							<linkclipref>clipitem-1104</linkclipref>
							<mediatype>audio</mediatype>
							<trackindex>11</trackindex>
							<clipindex>66</clipindex>
							<groupindex>1</groupindex>
						</link>
						<logginginfo>
							<description></description>
							<scene></scene>
							<shottake></shottake>
							<lognote></lognote>
						</logginginfo>
						<labels>
							<label2>Iris</label2>
						</labels>
					</clipitem>
					<clipitem id="clipitem-785" premiereChannelType="stereo">
						<masterclipid>masterclip-208</masterclipid>
						<name>00003.MTS</name>
						<enabled>TRUE</enabled>
						<duration>660</duration>
						<rate>
							<timebase>25</timebase>
							<ntsc>FALSE</ntsc>
						</rate>
						<start>40118</start>
						<end>40272</end>
						<in>187</in>
						<out>342</out>
						<pproTicksIn>1900039680000</pproTicksIn>
						<pproTicksOut>3474938880000</pproTicksOut>
						<file id="file-208"/>
						<sourcetrack>
							<mediatype>audio</mediatype>
							<trackindex>1</trackindex>
						</sourcetrack>
						<link>
							<linkclipref>clipitem-336</linkclipref>
							<mediatype>video</mediatype>
							<trackindex>2</trackindex>
							<clipindex>80</clipindex>
						</link>
						<link>
							<linkclipref>clipitem-785</linkclipref>
							<mediatype>audio</mediatype>
							<trackindex>8</trackindex>
							<clipindex>81</clipindex>
							<groupindex>1</groupindex>
						</link>
						<link>
							<linkclipref>clipitem-879</linkclipref>
							<mediatype>audio</mediatype>
							<trackindex>9</trackindex>
							<clipindex>79</clipindex>
							<groupindex>1</groupindex>
						</link>
						<logginginfo>
							<description></description>
							<scene></scene>
							<shottake></shottake>
							<lognote></lognote>
						</logginginfo>
						<labels>
							<label2>Iris</label2>
						</labels>
					</clipitem>
					<clipitem id="clipitem-786" premiereChannelType="stereo">
						<masterclipid>masterclip-209</masterclipid>
						<name>bakomstoff fra iphone og fotoapp.mxf</name>
						<enabled>TRUE</enabled>
						<duration>25210</duration>
						<rate>
							<timebase>25</timebase>
							<ntsc>FALSE</ntsc>
						</rate>
						<start>40272</start>
						<end>40332</end>
						<in>15628</in>
						<out>15688</out>
						<pproTicksIn>158790481920000</pproTicksIn>
						<pproTicksOut>159400120320000</pproTicksOut>
						<file id="file-209"/>
						<sourcetrack>
							<mediatype>audio</mediatype>
							<trackindex>1</trackindex>
						</sourcetrack>
							<filter>
								<effect>
									<name>Audio Levels</name>
									<effectid>audiolevels</effectid>
									<effectcategory>audiolevels</effectcategory>
									<effecttype>audiolevels</effecttype>
									<mediatype>audio</mediatype>
									<parameter authoringApp="PremierePro">
										<parameterid>level</parameterid>
										<name>Level</name>
										<valuemin>0</valuemin>
										<valuemax>3.98109</valuemax>
										<value>0.318393</value>
									</parameter>
								</effect>
							</filter>
						<link>
							<linkclipref>clipitem-337</linkclipref>
							<mediatype>video</mediatype>
							<trackindex>2</trackindex>
							<clipindex>81</clipindex>
						</link>
						<link>
							<linkclipref>clipitem-786</linkclipref>
							<mediatype>audio</mediatype>
							<trackindex>8</trackindex>
							<clipindex>82</clipindex>
							<groupindex>1</groupindex>
						</link>
						<link>
							<linkclipref>clipitem-880</linkclipref>
							<mediatype>audio</mediatype>
							<trackindex>9</trackindex>
							<clipindex>80</clipindex>
							<groupindex>1</groupindex>
						</link>
						<logginginfo>
							<description></description>
							<scene></scene>
							<shottake></shottake>
							<lognote></lognote>
						</logginginfo>
						<labels>
							<label2>Iris</label2>
						</labels>
					</clipitem>
					<clipitem id="clipitem-787" premiereChannelType="stereo">
						<masterclipid>masterclip-209</masterclipid>
						<name>bakomstoff fra iphone og fotoapp.mxf</name>
						<enabled>TRUE</enabled>
						<duration>25210</duration>
						<rate>
							<timebase>25</timebase>
							<ntsc>FALSE</ntsc>
						</rate>
						<start>40332</start>
						<end>40417</end>
						<in>16050</in>
						<out>16135</out>
						<pproTicksIn>163078272000000</pproTicksIn>
						<pproTicksOut>163941926400000</pproTicksOut>
						<file id="file-209"/>
						<sourcetrack>
							<mediatype>audio</mediatype>
							<trackindex>1</trackindex>
						</sourcetrack>
							<filter>
								<effect>
									<name>Audio Levels</name>
									<effectid>audiolevels</effectid>
									<effectcategory>audiolevels</effectcategory>
									<effecttype>audiolevels</effecttype>
									<mediatype>audio</mediatype>
									<parameter authoringApp="PremierePro">
										<parameterid>level</parameterid>
										<name>Level</name>
										<valuemin>0</valuemin>
										<valuemax>3.98109</valuemax>
										<value>0.27594</value>
									</parameter>
								</effect>
							</filter>
						<link>
							<linkclipref>clipitem-338</linkclipref>
							<mediatype>video</mediatype>
							<trackindex>2</trackindex>
							<clipindex>82</clipindex>
						</link>
						<link>
							<linkclipref>clipitem-787</linkclipref>
							<mediatype>audio</mediatype>
							<trackindex>8</trackindex>
							<clipindex>83</clipindex>
							<groupindex>1</groupindex>
						</link>
						<link>
							<linkclipref>clipitem-881</linkclipref>
							<mediatype>audio</mediatype>
							<trackindex>9</trackindex>
							<clipindex>81</clipindex>
							<groupindex>1</groupindex>
						</link>
						<logginginfo>
							<description></description>
							<scene></scene>
							<shottake></shottake>
							<lognote></lognote>
						</logginginfo>
						<labels>
							<label2>Iris</label2>
						</labels>
					</clipitem>
					<clipitem id="clipitem-788" premiereChannelType="stereo">
						<masterclipid>masterclip-223</masterclipid>
						<name>00070.MTS</name>
						<enabled>TRUE</enabled>
						<duration>403</duration>
						<rate>
							<timebase>25</timebase>
							<ntsc>FALSE</ntsc>
						</rate>
						<start>44558</start>
						<end>44654</end>
						<in>197</in>
						<out>292</out>
						<pproTicksIn>2001646080000</pproTicksIn>
						<pproTicksOut>2966906880000</pproTicksOut>
						<file id="file-223"/>
						<sourcetrack>
							<mediatype>audio</mediatype>
							<trackindex>1</trackindex>
						</sourcetrack>
							<filter>
								<effect>
									<name>Audio Levels</name>
									<effectid>audiolevels</effectid>
									<effectcategory>audiolevels</effectcategory>
									<effecttype>audiolevels</effecttype>
									<mediatype>audio</mediatype>
									<parameter authoringApp="PremierePro">
										<parameterid>level</parameterid>
										<name>Level</name>
										<valuemin>0</valuemin>
										<valuemax>3.98109</valuemax>
										<value>0.99763</value>
										<keyframe>
											<when>198</when>
											<value>0</value>
										</keyframe>
										<keyframe>
											<when>231</when>
											<value>0.99763</value>
										</keyframe>
									</parameter>
								</effect>
							</filter>
						<link>
							<linkclipref>clipitem-358</linkclipref>
							<mediatype>video</mediatype>
							<trackindex>2</trackindex>
							<clipindex>102</clipindex>
						</link>
						<link>
							<linkclipref>clipitem-788</linkclipref>
							<mediatype>audio</mediatype>
							<trackindex>8</trackindex>
							<clipindex>84</clipindex>
							<groupindex>1</groupindex>
						</link>
						<link>
							<linkclipref>clipitem-882</linkclipref>
							<mediatype>audio</mediatype>
							<trackindex>9</trackindex>
							<clipindex>82</clipindex>
							<groupindex>1</groupindex>
						</link>
						<logginginfo>
							<description>KOMM Rune sier at nå har de bilde på det første kamera</description>
							<scene></scene>
							<shottake></shottake>
							<lognote></lognote>
						</logginginfo>
						<labels>
							<label2>Iris</label2>
						</labels>
					</clipitem>
					<transitionitem>
						<start>47274</start>
						<end>47287</end>
						<alignment>start-black</alignment>
						<cutPointTicks>0</cutPointTicks>
						<rate>
							<timebase>25</timebase>
							<ntsc>FALSE</ntsc>
						</rate>
						<effect>
							<name>Cross Fade (+3dB)</name>
							<effectid>KGAudioTransCrossFade3dB</effectid>
							<effecttype>transition</effecttype>
							<mediatype>audio</mediatype>
							<wipecode>0</wipecode>
							<wipeaccuracy>100</wipeaccuracy>
							<startratio>0</startratio>
							<endratio>1</endratio>
							<reverse>FALSE</reverse>
						</effect>
					</transitionitem>
					<clipitem id="clipitem-789" premiereChannelType="stereo">
						<masterclipid>masterclip-209</masterclipid>
						<name>bakomstoff fra iphone og fotoapp.mxf</name>
						<enabled>TRUE</enabled>
						<duration>25210</duration>
						<rate>
							<timebase>25</timebase>
							<ntsc>FALSE</ntsc>
						</rate>
						<start>-1</start>
						<end>47399</end>
						<in>1418</in>
						<out>1543</out>
						<pproTicksIn>14407787520000</pproTicksIn>
						<pproTicksOut>15677867520000</pproTicksOut>
						<file id="file-209"/>
						<sourcetrack>
							<mediatype>audio</mediatype>
							<trackindex>1</trackindex>
						</sourcetrack>
						<link>
							<linkclipref>clipitem-378</linkclipref>
							<mediatype>video</mediatype>
							<trackindex>2</trackindex>
							<clipindex>122</clipindex>
						</link>
						<link>
							<linkclipref>clipitem-789</linkclipref>
							<mediatype>audio</mediatype>
							<trackindex>8</trackindex>
							<clipindex>86</clipindex>
							<groupindex>1</groupindex>
						</link>
						<link>
							<linkclipref>clipitem-883</linkclipref>
							<mediatype>audio</mediatype>
							<trackindex>9</trackindex>
							<clipindex>84</clipindex>
							<groupindex>1</groupindex>
						</link>
						<logginginfo>
							<description></description>
							<scene></scene>
							<shottake></shottake>
							<lognote></lognote>
						</logginginfo>
						<labels>
							<label2>Iris</label2>
						</labels>
					</clipitem>
					<clipitem id="clipitem-790" premiereChannelType="stereo">
						<masterclipid>masterclip-209</masterclipid>
						<name>bakomstoff fra iphone og fotoapp.mxf</name>
						<enabled>TRUE</enabled>
						<duration>25210</duration>
						<rate>
							<timebase>25</timebase>
							<ntsc>FALSE</ntsc>
						</rate>
						<start>47399</start>
						<end>47551</end>
						<in>2191</in>
						<out>2343</out>
						<pproTicksIn>22261962240000</pproTicksIn>
						<pproTicksOut>23806379520000</pproTicksOut>
						<file id="file-209"/>
						<sourcetrack>
							<mediatype>audio</mediatype>
							<trackindex>1</trackindex>
						</sourcetrack>
							<filter>
								<effect>
									<name>Audio Levels</name>
									<effectid>audiolevels</effectid>
									<effectcategory>audiolevels</effectcategory>
									<effecttype>audiolevels</effecttype>
									<mediatype>audio</mediatype>
									<parameter authoringApp="PremierePro">
										<parameterid>level</parameterid>
										<name>Level</name>
										<valuemin>0</valuemin>
										<valuemax>3.98109</valuemax>
										<value>0.0498815</value>
										<keyframe>
											<when>2315</when>
											<value>0.99763</value>
										</keyframe>
										<keyframe>
											<when>2331</when>
											<value>0.0498815</value>
										</keyframe>
									</parameter>
								</effect>
							</filter>
						<link>
							<linkclipref>clipitem-379</linkclipref>
							<mediatype>video</mediatype>
							<trackindex>2</trackindex>
							<clipindex>123</clipindex>
						</link>
						<link>
							<linkclipref>clipitem-790</linkclipref>
							<mediatype>audio</mediatype>
							<trackindex>8</trackindex>
							<clipindex>87</clipindex>
							<groupindex>1</groupindex>
						</link>
						<link>
							<linkclipref>clipitem-884</linkclipref>
							<mediatype>audio</mediatype>
							<trackindex>9</trackindex>
							<clipindex>85</clipindex>
							<groupindex>1</groupindex>
						</link>
						<logginginfo>
							<description></description>
							<scene></scene>
							<shottake></shottake>
							<lognote></lognote>
						</logginginfo>
						<labels>
							<label2>Iris</label2>
						</labels>
					</clipitem>
					<transitionitem>
						<start>47756</start>
						<end>47768</end>
						<alignment>start-black</alignment>
						<cutPointTicks>0</cutPointTicks>
						<rate>
							<timebase>25</timebase>
							<ntsc>FALSE</ntsc>
						</rate>
						<effect>
							<name>Cross Fade (+3dB)</name>
							<effectid>KGAudioTransCrossFade3dB</effectid>
							<effecttype>transition</effecttype>
							<mediatype>audio</mediatype>
							<wipecode>0</wipecode>
							<wipeaccuracy>100</wipeaccuracy>
							<startratio>0</startratio>
							<endratio>1</endratio>
							<reverse>FALSE</reverse>
						</effect>
					</transitionitem>
					<clipitem id="clipitem-791" premiereChannelType="stereo">
						<masterclipid>masterclip-209</masterclipid>
						<name>bakomstoff fra iphone og fotoapp.mxf</name>
						<enabled>TRUE</enabled>
						<duration>25210</duration>
						<rate>
							<timebase>25</timebase>
							<ntsc>FALSE</ntsc>
						</rate>
						<start>-1</start>
						<end>47864</end>
						<in>7226</in>
						<out>7334</out>
						<pproTicksIn>73420784640000</pproTicksIn>
						<pproTicksOut>74518133760000</pproTicksOut>
						<file id="file-209"/>
						<sourcetrack>
							<mediatype>audio</mediatype>
							<trackindex>1</trackindex>
						</sourcetrack>
						<link>
							<linkclipref>clipitem-381</linkclipref>
							<mediatype>video</mediatype>
							<trackindex>2</trackindex>
							<clipindex>125</clipindex>
						</link>
						<link>
							<linkclipref>clipitem-791</linkclipref>
							<mediatype>audio</mediatype>
							<trackindex>8</trackindex>
							<clipindex>89</clipindex>
							<groupindex>1</groupindex>
						</link>
						<link>
							<linkclipref>clipitem-885</linkclipref>
							<mediatype>audio</mediatype>
							<trackindex>9</trackindex>
							<clipindex>87</clipindex>
							<groupindex>1</groupindex>
						</link>
						<logginginfo>
							<description></description>
							<scene></scene>
							<shottake></shottake>
							<lognote></lognote>
						</logginginfo>
						<labels>
							<label2>Iris</label2>
						</labels>
					</clipitem>
					<clipitem id="clipitem-792" premiereChannelType="stereo">
						<masterclipid>masterclip-209</masterclipid>
						<name>bakomstoff fra iphone og fotoapp.mxf</name>
						<enabled>TRUE</enabled>
						<duration>25210</duration>
						<rate>
							<timebase>25</timebase>
							<ntsc>FALSE</ntsc>
						</rate>
						<start>48790</start>
						<end>48900</end>
						<in>14548</in>
						<out>14658</out>
						<pproTicksIn>147816990720000</pproTicksIn>
						<pproTicksOut>148934661120000</pproTicksOut>
						<file id="file-209"/>
						<sourcetrack>
							<mediatype>audio</mediatype>
							<trackindex>1</trackindex>
						</sourcetrack>
							<filter>
								<effect>
									<name>Audio Levels</name>
									<effectid>audiolevels</effectid>
									<effectcategory>audiolevels</effectcategory>
									<effecttype>audiolevels</effecttype>
									<mediatype>audio</mediatype>
									<parameter authoringApp="PremierePro">
										<parameterid>level</parameterid>
										<name>Level</name>
										<valuemin>0</valuemin>
										<valuemax>3.98109</valuemax>
										<value>0.233488</value>
									</parameter>
								</effect>
							</filter>
						<link>
							<linkclipref>clipitem-387</linkclipref>
							<mediatype>video</mediatype>
							<trackindex>2</trackindex>
							<clipindex>131</clipindex>
						</link>
						<link>
							<linkclipref>clipitem-792</linkclipref>
							<mediatype>audio</mediatype>
							<trackindex>8</trackindex>
							<clipindex>90</clipindex>
							<groupindex>1</groupindex>
						</link>
						<link>
							<linkclipref>clipitem-886</linkclipref>
							<mediatype>audio</mediatype>
							<trackindex>9</trackindex>
							<clipindex>88</clipindex>
							<groupindex>1</groupindex>
						</link>
						<logginginfo>
							<description></description>
							<scene></scene>
							<shottake></shottake>
							<lognote></lognote>
						</logginginfo>
						<labels>
							<label2>Iris</label2>
						</labels>
					</clipitem>
					<clipitem id="clipitem-793" premiereChannelType="stereo">
						<masterclipid>masterclip-244</masterclipid>
						<name>GOPR9300.MP4</name>
						<enabled>TRUE</enabled>
						<duration>568</duration>
						<rate>
							<timebase>25</timebase>
							<ntsc>FALSE</ntsc>
						</rate>
						<start>52153</start>
						<end>52275</end>
						<in>169</in>
						<out>291</out>
						<pproTicksIn>1717148160000</pproTicksIn>
						<pproTicksOut>2956746240000</pproTicksOut>
						<file id="file-244"/>
						<sourcetrack>
							<mediatype>audio</mediatype>
							<trackindex>1</trackindex>
						</sourcetrack>
						<link>
							<linkclipref>clipitem-404</linkclipref>
							<mediatype>video</mediatype>
							<trackindex>2</trackindex>
							<clipindex>148</clipindex>
						</link>
						<link>
							<linkclipref>clipitem-793</linkclipref>
							<mediatype>audio</mediatype>
							<trackindex>8</trackindex>
							<clipindex>91</clipindex>
							<groupindex>1</groupindex>
						</link>
						<link>
							<linkclipref>clipitem-887</linkclipref>
							<mediatype>audio</mediatype>
							<trackindex>9</trackindex>
							<clipindex>89</clipindex>
							<groupindex>1</groupindex>
						</link>
						<logginginfo>
							<description></description>
							<scene></scene>
							<shottake></shottake>
							<lognote></lognote>
						</logginginfo>
						<labels>
							<label2>Iris</label2>
						</labels>
					</clipitem>
					<clipitem id="clipitem-794" premiereChannelType="stereo">
						<masterclipid>masterclip-245</masterclipid>
						<name>GOPR9301.MP4</name>
						<enabled>TRUE</enabled>
						<duration>14095</duration>
						<rate>
							<timebase>25</timebase>
							<ntsc>FALSE</ntsc>
						</rate>
						<start>52275</start>
						<end>-1</end>
						<in>4872</in>
						<out>5024</out>
						<pproTicksIn>49502638080000</pproTicksIn>
						<pproTicksOut>51047055360000</pproTicksOut>
						<file id="file-245"/>
						<sourcetrack>
							<mediatype>audio</mediatype>
							<trackindex>1</trackindex>
						</sourcetrack>
						<link>
							<linkclipref>clipitem-405</linkclipref>
							<mediatype>video</mediatype>
							<trackindex>2</trackindex>
							<clipindex>149</clipindex>
						</link>
						<link>
							<linkclipref>clipitem-794</linkclipref>
							<mediatype>audio</mediatype>
							<trackindex>8</trackindex>
							<clipindex>92</clipindex>
							<groupindex>1</groupindex>
						</link>
						<link>
							<linkclipref>clipitem-888</linkclipref>
							<mediatype>audio</mediatype>
							<trackindex>9</trackindex>
							<clipindex>90</clipindex>
							<groupindex>1</groupindex>
						</link>
						<logginginfo>
							<description></description>
							<scene></scene>
							<shottake></shottake>
							<lognote></lognote>
						</logginginfo>
						<labels>
							<label2>Iris</label2>
						</labels>
					</clipitem>
					<transitionitem>
						<start>52415</start>
						<end>52427</end>
						<alignment>end-black</alignment>
						<cutPointTicks>121927680000</cutPointTicks>
						<rate>
							<timebase>25</timebase>
							<ntsc>FALSE</ntsc>
						</rate>
						<effect>
							<name>Cross Fade (+3dB)</name>
							<effectid>KGAudioTransCrossFade3dB</effectid>
							<effecttype>transition</effecttype>
							<mediatype>audio</mediatype>
							<wipecode>0</wipecode>
							<wipeaccuracy>100</wipeaccuracy>
							<startratio>0</startratio>
							<endratio>1</endratio>
							<reverse>FALSE</reverse>
						</effect>
					</transitionitem>
					<clipitem id="clipitem-795" premiereChannelType="stereo">
						<masterclipid>masterclip-115</masterclipid>
						<name>ENG19-2771.MXF</name>
						<enabled>TRUE</enabled>
						<duration>975</duration>
						<rate>
							<timebase>25</timebase>
							<ntsc>FALSE</ntsc>
						</rate>
						<start>54804</start>
						<end>55006</end>
						<in>200</in>
						<out>402</out>
						<pproTicksIn>2032128000000</pproTicksIn>
						<pproTicksOut>4084577280000</pproTicksOut>
						<file id="file-115"/>
						<sourcetrack>
							<mediatype>audio</mediatype>
							<trackindex>3</trackindex>
						</sourcetrack>
							<filter>
								<effect>
									<name>Audio Levels</name>
									<effectid>audiolevels</effectid>
									<effectcategory>audiolevels</effectcategory>
									<effecttype>audiolevels</effecttype>
									<mediatype>audio</mediatype>
									<parameter authoringApp="PremierePro">
										<parameterid>level</parameterid>
										<name>Level</name>
										<valuemin>0</valuemin>
										<valuemax>3.98109</valuemax>
										<value>0</value>
										<keyframe>
											<when>370</when>
											<value>0.34917</value>
										</keyframe>
										<keyframe>
											<when>397</when>
											<value>0</value>
										</keyframe>
									</parameter>
								</effect>
							</filter>
						<link>
							<linkclipref>clipitem-795</linkclipref>
							<mediatype>audio</mediatype>
							<trackindex>8</trackindex>
							<clipindex>94</clipindex>
							<groupindex>1</groupindex>
						</link>
						<link>
							<linkclipref>clipitem-889</linkclipref>
							<mediatype>audio</mediatype>
							<trackindex>9</trackindex>
							<clipindex>92</clipindex>
							<groupindex>1</groupindex>
						</link>
						<logginginfo>
							<description></description>
							<scene></scene>
							<shottake></shottake>
							<lognote></lognote>
						</logginginfo>
						<labels>
							<label2>Iris</label2>
						</labels>
					</clipitem>
					<clipitem id="clipitem-796" premiereChannelType="stereo">
						<masterclipid>masterclip-203</masterclipid>
						<name>ENG19-2785.MXF</name>
						<enabled>TRUE</enabled>
						<duration>539</duration>
						<rate>
							<timebase>25</timebase>
							<ntsc>FALSE</ntsc>
						</rate>
						<start>55170</start>
						<end>55408</end>
						<in>213</in>
						<out>451</out>
						<pproTicksIn>2164216320000</pproTicksIn>
						<pproTicksOut>4582448640000</pproTicksOut>
						<file id="file-203"/>
						<sourcetrack>
							<mediatype>audio</mediatype>
							<trackindex>3</trackindex>
						</sourcetrack>
							<filter>
								<effect>
									<name>Audio Levels</name>
									<effectid>audiolevels</effectid>
									<effectcategory>audiolevels</effectcategory>
									<effecttype>audiolevels</effecttype>
									<mediatype>audio</mediatype>
									<parameter authoringApp="PremierePro">
										<parameterid>level</parameterid>
										<name>Level</name>
										<valuemin>0</valuemin>
										<valuemax>3.98109</valuemax>
										<value>0.199526</value>
										<keyframe>
											<when>231</when>
											<value>0</value>
										</keyframe>
										<keyframe>
											<when>271</when>
											<value>0.648459</value>
										</keyframe>
										<keyframe>
											<when>374</when>
											<value>0.648459</value>
										</keyframe>
										<keyframe>
											<when>410</when>
											<value>0.517521</value>
										</keyframe>
										<keyframe>
											<when>444</when>
											<value>0.199526</value>
										</keyframe>
									</parameter>
								</effect>
							</filter>
						<link>
							<linkclipref>clipitem-796</linkclipref>
							<mediatype>audio</mediatype>
							<trackindex>8</trackindex>
							<clipindex>95</clipindex>
							<groupindex>1</groupindex>
						</link>
						<link>
							<linkclipref>clipitem-890</linkclipref>
							<mediatype>audio</mediatype>
							<trackindex>9</trackindex>
							<clipindex>93</clipindex>
							<groupindex>1</groupindex>
						</link>
						<logginginfo>
							<description></description>
							<scene></scene>
							<shottake></shottake>
							<lognote></lognote>
						</logginginfo>
						<labels>
							<label2>Iris</label2>
						</labels>
					</clipitem>
					<transitionitem>
						<start>58926</start>
						<end>58939</end>
						<alignment>start-black</alignment>
						<cutPointTicks>0</cutPointTicks>
						<rate>
							<timebase>25</timebase>
							<ntsc>FALSE</ntsc>
						</rate>
						<effect>
							<name>Cross Fade (+3dB)</name>
							<effectid>KGAudioTransCrossFade3dB</effectid>
							<effecttype>transition</effecttype>
							<mediatype>audio</mediatype>
							<wipecode>0</wipecode>
							<wipeaccuracy>100</wipeaccuracy>
							<startratio>0</startratio>
							<endratio>1</endratio>
							<reverse>FALSE</reverse>
						</effect>
					</transitionitem>
					<clipitem id="clipitem-797" premiereChannelType="stereo">
						<masterclipid>masterclip-317</masterclipid>
						<name>Ut i naturen 2 Sanser I-lyd uten musikk.wav</name>
						<enabled>TRUE</enabled>
						<duration>58727</duration>
						<rate>
							<timebase>25</timebase>
							<ntsc>FALSE</ntsc>
						</rate>
						<start>-1</start>
						<end>59908</end>
						<in>32628</in>
						<out>33610</out>
						<pproTicksIn>331521361920000</pproTicksIn>
						<pproTicksOut>341499110400000</pproTicksOut>
						<file id="file-317">
							<name>Ut i naturen 2 Sanser I-lyd uten musikk.wav</name>
							<pathurl>file://localhost/Volumes/Svartediket/Prosjekter/DVNA201815_Ut%20i%20naturen_FAL_010117/Eksport/Fra%20lyd/Ut%20i%20naturen%202%20Sanser%20I-lyd%20uten%20musikk.wav</pathurl>
							<rate>
								<timebase>30</timebase>
								<ntsc>TRUE</ntsc>
							</rate>
							<duration>70402</duration>
							<timecode>
								<rate>
									<timebase>30</timebase>
									<ntsc>TRUE</ntsc>
								</rate>
								<string>00;00;00;00</string>
								<frame>0</frame>
								<displayformat>DF</displayformat>
								<reel>
									<name></name>
								</reel>
							</timecode>
							<media>
								<audio>
									<samplecharacteristics>
										<depth>16</depth>
										<samplerate>48000</samplerate>
									</samplecharacteristics>
									<channelcount>2</channelcount>
								</audio>
							</media>
						</file>
						<sourcetrack>
							<mediatype>audio</mediatype>
							<trackindex>1</trackindex>
						</sourcetrack>
						<link>
							<linkclipref>clipitem-797</linkclipref>
							<mediatype>audio</mediatype>
							<trackindex>8</trackindex>
							<clipindex>97</clipindex>
							<groupindex>1</groupindex>
						</link>
						<link>
							<linkclipref>clipitem-891</linkclipref>
							<mediatype>audio</mediatype>
							<trackindex>9</trackindex>
							<clipindex>95</clipindex>
							<groupindex>1</groupindex>
						</link>
						<logginginfo>
							<description></description>
							<scene></scene>
							<shottake></shottake>
							<lognote></lognote>
						</logginginfo>
						<labels>
							<label2>Iris</label2>
						</labels>
					</clipitem>
					<clipitem id="clipitem-798" premiereChannelType="stereo">
						<masterclipid>masterclip-17</masterclipid>
						<name>dvna60000116aa-p1-270916r</name>
						<enabled>TRUE</enabled>
						<duration>4111</duration>
						<rate>
							<timebase>25</timebase>
							<ntsc>FALSE</ntsc>
						</rate>
						<start>60944</start>
						<end>62416</end>
						<in>87</in>
						<out>1559</out>
						<pproTicksIn>883975680000</pproTicksIn>
						<pproTicksOut>15840437760000</pproTicksOut>
						<file id="file-17"/>
						<sourcetrack>
							<mediatype>audio</mediatype>
							<trackindex>3</trackindex>
						</sourcetrack>
							<filter>
								<effect>
									<name>Audio Levels</name>
									<effectid>audiolevels</effectid>
									<effectcategory>audiolevels</effectcategory>
									<effecttype>audiolevels</effecttype>
									<mediatype>audio</mediatype>
									<parameter authoringApp="PremierePro">
										<parameterid>level</parameterid>
										<name>Level</name>
										<valuemin>0</valuemin>
										<valuemax>3.98109</valuemax>
										<value>0</value>
										<keyframe>
											<when>90</when>
											<value>0</value>
										</keyframe>
										<keyframe>
											<when>113</when>
											<value>0.99763</value>
										</keyframe>
										<keyframe>
											<when>1480</when>
											<value>0.99763</value>
										</keyframe>
										<keyframe>
											<when>1509</when>
											<value>0</value>
										</keyframe>
									</parameter>
								</effect>
							</filter>
						<link>
							<linkclipref>clipitem-181</linkclipref>
							<mediatype>video</mediatype>
							<trackindex>1</trackindex>
							<clipindex>191</clipindex>
						</link>
						<link>
							<linkclipref>clipitem-798</linkclipref>
							<mediatype>audio</mediatype>
							<trackindex>8</trackindex>
							<clipindex>98</clipindex>
							<groupindex>1</groupindex>
						</link>
						<link>
							<linkclipref>clipitem-892</linkclipref>
							<mediatype>audio</mediatype>
							<trackindex>9</trackindex>
							<clipindex>96</clipindex>
							<groupindex>1</groupindex>
						</link>
						<logginginfo>
							<description>dvna60000116aa-p1-270916r</description>
							<scene></scene>
							<shottake></shottake>
							<lognote></lognote>
						</logginginfo>
						<labels>
							<label2>Iris</label2>
						</labels>
					</clipitem>
					<clipitem id="clipitem-799" premiereChannelType="stereo">
						<masterclipid>masterclip-121</masterclipid>
						<name>AA282801.MXF</name>
						<enabled>TRUE</enabled>
						<duration>4944</duration>
						<rate>
							<timebase>25</timebase>
							<ntsc>FALSE</ntsc>
						</rate>
						<start>63983</start>
						<end>64140</end>
						<in>2642</in>
						<out>2799</out>
						<pproTicksIn>26844410880000</pproTicksIn>
						<pproTicksOut>28439631360000</pproTicksOut>
						<file id="file-121"/>
						<sourcetrack>
							<mediatype>audio</mediatype>
							<trackindex>2</trackindex>
						</sourcetrack>
							<filter>
								<effect>
									<name>Audio Levels</name>
									<effectid>audiolevels</effectid>
									<effectcategory>audiolevels</effectcategory>
									<effecttype>audiolevels</effecttype>
									<mediatype>audio</mediatype>
									<parameter authoringApp="PremierePro">
										<parameterid>level</parameterid>
										<name>Level</name>
										<valuemin>0</valuemin>
										<valuemax>3.98109</valuemax>
										<value>0.99763</value>
										<keyframe>
											<when>2648</when>
											<value>0</value>
										</keyframe>
										<keyframe>
											<when>2668</when>
											<value>0.99763</value>
										</keyframe>
									</parameter>
								</effect>
							</filter>
						<link>
							<linkclipref>clipitem-183</linkclipref>
							<mediatype>video</mediatype>
							<trackindex>1</trackindex>
							<clipindex>193</clipindex>
						</link>
						<link>
							<linkclipref>clipitem-799</linkclipref>
							<mediatype>audio</mediatype>
							<trackindex>8</trackindex>
							<clipindex>99</clipindex>
							<groupindex>1</groupindex>
						</link>
						<link>
							<linkclipref>clipitem-893</linkclipref>
							<mediatype>audio</mediatype>
							<trackindex>9</trackindex>
							<clipindex>97</clipindex>
							<groupindex>1</groupindex>
						</link>
						<link>
							<linkclipref>clipitem-1245</linkclipref>
							<mediatype>audio</mediatype>
							<trackindex>12</trackindex>
							<clipindex>87</clipindex>
							<groupindex>1</groupindex>
						</link>
						<link>
							<linkclipref>clipitem-1330</linkclipref>
							<mediatype>audio</mediatype>
							<trackindex>13</trackindex>
							<clipindex>87</clipindex>
							<groupindex>1</groupindex>
						</link>
						<logginginfo>
							<description></description>
							<scene></scene>
							<shottake></shottake>
							<lognote></lognote>
						</logginginfo>
						<labels>
							<label2>Iris</label2>
						</labels>
					</clipitem>
					<clipitem id="clipitem-800" premiereChannelType="stereo">
						<masterclipid>masterclip-122</masterclipid>
						<name>AA281501.MXF</name>
						<enabled>TRUE</enabled>
						<duration>732</duration>
						<rate>
							<timebase>25</timebase>
							<ntsc>FALSE</ntsc>
						</rate>
						<start>64140</start>
						<end>64170</end>
						<in>303</in>
						<out>333</out>
						<pproTicksIn>3078673920000</pproTicksIn>
						<pproTicksOut>3383493120000</pproTicksOut>
						<file id="file-122"/>
						<sourcetrack>
							<mediatype>audio</mediatype>
							<trackindex>2</trackindex>
						</sourcetrack>
						<link>
							<linkclipref>clipitem-184</linkclipref>
							<mediatype>video</mediatype>
							<trackindex>1</trackindex>
							<clipindex>194</clipindex>
						</link>
						<link>
							<linkclipref>clipitem-800</linkclipref>
							<mediatype>audio</mediatype>
							<trackindex>8</trackindex>
							<clipindex>100</clipindex>
							<groupindex>1</groupindex>
						</link>
						<link>
							<linkclipref>clipitem-894</linkclipref>
							<mediatype>audio</mediatype>
							<trackindex>9</trackindex>
							<clipindex>98</clipindex>
							<groupindex>1</groupindex>
						</link>
						<logginginfo>
							<description></description>
							<scene></scene>
							<shottake></shottake>
							<lognote></lognote>
						</logginginfo>
						<labels>
							<label2>Iris</label2>
						</labels>
					</clipitem>
					<clipitem id="clipitem-801" premiereChannelType="stereo">
						<masterclipid>masterclip-122</masterclipid>
						<name>AA281501.MXF</name>
						<enabled>TRUE</enabled>
						<duration>732</duration>
						<rate>
							<timebase>25</timebase>
							<ntsc>FALSE</ntsc>
						</rate>
						<start>64170</start>
						<end>64241</end>
						<in>109</in>
						<out>180</out>
						<pproTicksIn>1107509760000</pproTicksIn>
						<pproTicksOut>1828915200000</pproTicksOut>
						<file id="file-122"/>
						<sourcetrack>
							<mediatype>audio</mediatype>
							<trackindex>2</trackindex>
						</sourcetrack>
						<link>
							<linkclipref>clipitem-185</linkclipref>
							<mediatype>video</mediatype>
							<trackindex>1</trackindex>
							<clipindex>195</clipindex>
						</link>
						<link>
							<linkclipref>clipitem-801</linkclipref>
							<mediatype>audio</mediatype>
							<trackindex>8</trackindex>
							<clipindex>101</clipindex>
							<groupindex>1</groupindex>
						</link>
						<link>
							<linkclipref>clipitem-895</linkclipref>
							<mediatype>audio</mediatype>
							<trackindex>9</trackindex>
							<clipindex>99</clipindex>
							<groupindex>1</groupindex>
						</link>
						<logginginfo>
							<description></description>
							<scene></scene>
							<shottake></shottake>
							<lognote></lognote>
						</logginginfo>
						<labels>
							<label2>Iris</label2>
						</labels>
					</clipitem>
					<clipitem id="clipitem-802" premiereChannelType="stereo">
						<masterclipid>masterclip-123</masterclipid>
						<name>AA281701.MXF</name>
						<enabled>TRUE</enabled>
						<duration>1392</duration>
						<rate>
							<timebase>25</timebase>
							<ntsc>FALSE</ntsc>
						</rate>
						<start>64241</start>
						<end>64311</end>
						<in>1265</in>
						<out>1335</out>
						<pproTicksIn>12853209600000</pproTicksIn>
						<pproTicksOut>13564454400000</pproTicksOut>
						<file id="file-123"/>
						<sourcetrack>
							<mediatype>audio</mediatype>
							<trackindex>2</trackindex>
						</sourcetrack>
						<link>
							<linkclipref>clipitem-186</linkclipref>
							<mediatype>video</mediatype>
							<trackindex>1</trackindex>
							<clipindex>196</clipindex>
						</link>
						<link>
							<linkclipref>clipitem-802</linkclipref>
							<mediatype>audio</mediatype>
							<trackindex>8</trackindex>
							<clipindex>102</clipindex>
							<groupindex>1</groupindex>
						</link>
						<link>
							<linkclipref>clipitem-896</linkclipref>
							<mediatype>audio</mediatype>
							<trackindex>9</trackindex>
							<clipindex>100</clipindex>
							<groupindex>1</groupindex>
						</link>
						<logginginfo>
							<description></description>
							<scene></scene>
							<shottake></shottake>
							<lognote></lognote>
						</logginginfo>
						<labels>
							<label2>Iris</label2>
						</labels>
					</clipitem>
					<clipitem id="clipitem-803" premiereChannelType="stereo">
						<masterclipid>masterclip-124</masterclipid>
						<name>AA282301.MXF</name>
						<enabled>TRUE</enabled>
						<duration>2904</duration>
						<rate>
							<timebase>25</timebase>
							<ntsc>FALSE</ntsc>
						</rate>
						<start>64311</start>
						<end>64604</end>
						<in>1824</in>
						<out>2117</out>
						<pproTicksIn>18533007360000</pproTicksIn>
						<pproTicksOut>21510074880000</pproTicksOut>
						<file id="file-124"/>
						<sourcetrack>
							<mediatype>audio</mediatype>
							<trackindex>1</trackindex>
						</sourcetrack>
						<link>
							<linkclipref>clipitem-187</linkclipref>
							<mediatype>video</mediatype>
							<trackindex>1</trackindex>
							<clipindex>197</clipindex>
						</link>
						<link>
							<linkclipref>clipitem-803</linkclipref>
							<mediatype>audio</mediatype>
							<trackindex>8</trackindex>
							<clipindex>103</clipindex>
							<groupindex>1</groupindex>
						</link>
						<link>
							<linkclipref>clipitem-897</linkclipref>
							<mediatype>audio</mediatype>
							<trackindex>9</trackindex>
							<clipindex>101</clipindex>
							<groupindex>1</groupindex>
						</link>
						<logginginfo>
							<description></description>
							<scene></scene>
							<shottake></shottake>
							<lognote></lognote>
						</logginginfo>
						<labels>
							<label2>Iris</label2>
						</labels>
					</clipitem>
					<clipitem id="clipitem-804" premiereChannelType="stereo">
						<masterclipid>masterclip-124</masterclipid>
						<name>AA282301.MXF</name>
						<enabled>TRUE</enabled>
						<duration>2904</duration>
						<rate>
							<timebase>25</timebase>
							<ntsc>FALSE</ntsc>
						</rate>
						<start>64604</start>
						<end>64746</end>
						<in>2117</in>
						<out>2259</out>
						<pproTicksIn>21510074880000</pproTicksIn>
						<pproTicksOut>22952885760000</pproTicksOut>
						<file id="file-124"/>
						<sourcetrack>
							<mediatype>audio</mediatype>
							<trackindex>1</trackindex>
						</sourcetrack>
						<link>
							<linkclipref>clipitem-188</linkclipref>
							<mediatype>video</mediatype>
							<trackindex>1</trackindex>
							<clipindex>198</clipindex>
						</link>
						<link>
							<linkclipref>clipitem-804</linkclipref>
							<mediatype>audio</mediatype>
							<trackindex>8</trackindex>
							<clipindex>104</clipindex>
							<groupindex>1</groupindex>
						</link>
						<link>
							<linkclipref>clipitem-898</linkclipref>
							<mediatype>audio</mediatype>
							<trackindex>9</trackindex>
							<clipindex>102</clipindex>
							<groupindex>1</groupindex>
						</link>
						<logginginfo>
							<description></description>
							<scene></scene>
							<shottake></shottake>
							<lognote></lognote>
						</logginginfo>
						<labels>
							<label2>Iris</label2>
						</labels>
					</clipitem>
					<clipitem id="clipitem-805" premiereChannelType="stereo">
						<masterclipid>masterclip-125</masterclipid>
						<name>AA282501.MXF</name>
						<enabled>TRUE</enabled>
						<duration>2676</duration>
						<rate>
							<timebase>25</timebase>
							<ntsc>FALSE</ntsc>
						</rate>
						<start>64746</start>
						<end>64836</end>
						<in>246</in>
						<out>336</out>
						<pproTicksIn>2499517440000</pproTicksIn>
						<pproTicksOut>3413975040000</pproTicksOut>
						<file id="file-125"/>
						<sourcetrack>
							<mediatype>audio</mediatype>
							<trackindex>2</trackindex>
						</sourcetrack>
						<link>
							<linkclipref>clipitem-189</linkclipref>
							<mediatype>video</mediatype>
							<trackindex>1</trackindex>
							<clipindex>199</clipindex>
						</link>
						<link>
							<linkclipref>clipitem-805</linkclipref>
							<mediatype>audio</mediatype>
							<trackindex>8</trackindex>
							<clipindex>105</clipindex>
							<groupindex>1</groupindex>
						</link>
						<link>
							<linkclipref>clipitem-899</linkclipref>
							<mediatype>audio</mediatype>
							<trackindex>9</trackindex>
							<clipindex>103</clipindex>
							<groupindex>1</groupindex>
						</link>
						<link>
							<linkclipref>clipitem-1246</linkclipref>
							<mediatype>audio</mediatype>
							<trackindex>12</trackindex>
							<clipindex>88</clipindex>
							<groupindex>1</groupindex>
						</link>
						<link>
							<linkclipref>clipitem-1331</linkclipref>
							<mediatype>audio</mediatype>
							<trackindex>13</trackindex>
							<clipindex>88</clipindex>
							<groupindex>1</groupindex>
						</link>
						<logginginfo>
							<description></description>
							<scene></scene>
							<shottake></shottake>
							<lognote></lognote>
						</logginginfo>
						<labels>
							<label2>Iris</label2>
						</labels>
					</clipitem>
					<clipitem id="clipitem-806" premiereChannelType="stereo">
						<masterclipid>masterclip-255</masterclipid>
						<name>AA282101.MXF</name>
						<enabled>TRUE</enabled>
						<duration>3708</duration>
						<rate>
							<timebase>25</timebase>
							<ntsc>FALSE</ntsc>
						</rate>
						<start>64836</start>
						<end>-1</end>
						<in>2079</in>
						<out>2142</out>
						<pproTicksIn>21123970560000</pproTicksIn>
						<pproTicksOut>21764090880000</pproTicksOut>
						<file id="file-255"/>
						<sourcetrack>
							<mediatype>audio</mediatype>
							<trackindex>2</trackindex>
						</sourcetrack>
							<filter>
								<effect>
									<name>Audio Levels</name>
									<effectid>audiolevels</effectid>
									<effectcategory>audiolevels</effectcategory>
									<effecttype>audiolevels</effecttype>
									<mediatype>audio</mediatype>
									<parameter authoringApp="PremierePro">
										<parameterid>level</parameterid>
										<name>Level</name>
										<valuemin>0</valuemin>
										<valuemax>3.98109</valuemax>
										<value>0.110848</value>
									</parameter>
								</effect>
							</filter>
						<link>
							<linkclipref>clipitem-433</linkclipref>
							<mediatype>video</mediatype>
							<trackindex>2</trackindex>
							<clipindex>179</clipindex>
						</link>
						<link>
							<linkclipref>clipitem-806</linkclipref>
							<mediatype>audio</mediatype>
							<trackindex>8</trackindex>
							<clipindex>106</clipindex>
							<groupindex>1</groupindex>
						</link>
						<link>
							<linkclipref>clipitem-900</linkclipref>
							<mediatype>audio</mediatype>
							<trackindex>9</trackindex>
							<clipindex>104</clipindex>
							<groupindex>1</groupindex>
						</link>
						<link>
							<linkclipref>clipitem-1247</linkclipref>
							<mediatype>audio</mediatype>
							<trackindex>12</trackindex>
							<clipindex>89</clipindex>
							<groupindex>1</groupindex>
						</link>
						<link>
							<linkclipref>clipitem-1332</linkclipref>
							<mediatype>audio</mediatype>
							<trackindex>13</trackindex>
							<clipindex>89</clipindex>
							<groupindex>1</groupindex>
						</link>
						<logginginfo>
							<description></description>
							<scene></scene>
							<shottake></shottake>
							<lognote></lognote>
						</logginginfo>
						<labels>
							<label2>Iris</label2>
						</labels>
					</clipitem>
					<transitionitem>
						<start>64886</start>
						<end>64899</end>
						<alignment>center</alignment>
						<cutPointTicks>60963840000</cutPointTicks>
						<rate>
							<timebase>25</timebase>
							<ntsc>FALSE</ntsc>
						</rate>
						<effect>
							<name>Cross Fade (+3dB)</name>
							<effectid>KGAudioTransCrossFade3dB</effectid>
							<effecttype>transition</effecttype>
							<mediatype>audio</mediatype>
							<wipecode>0</wipecode>
							<wipeaccuracy>100</wipeaccuracy>
							<startratio>0</startratio>
							<endratio>1</endratio>
							<reverse>FALSE</reverse>
						</effect>
					</transitionitem>
					<clipitem id="clipitem-807" premiereChannelType="stereo">
						<masterclipid>masterclip-124</masterclipid>
						<name>AA282301.MXF</name>
						<enabled>TRUE</enabled>
						<duration>2904</duration>
						<rate>
							<timebase>25</timebase>
							<ntsc>FALSE</ntsc>
						</rate>
						<start>-1</start>
						<end>65071</end>
						<in>2253</in>
						<out>2438</out>
						<pproTicksIn>22891921920000</pproTicksIn>
						<pproTicksOut>24771640320000</pproTicksOut>
						<file id="file-124"/>
						<sourcetrack>
							<mediatype>audio</mediatype>
							<trackindex>1</trackindex>
						</sourcetrack>
						<link>
							<linkclipref>clipitem-190</linkclipref>
							<mediatype>video</mediatype>
							<trackindex>1</trackindex>
							<clipindex>200</clipindex>
						</link>
						<link>
							<linkclipref>clipitem-807</linkclipref>
							<mediatype>audio</mediatype>
							<trackindex>8</trackindex>
							<clipindex>108</clipindex>
							<groupindex>1</groupindex>
						</link>
						<link>
							<linkclipref>clipitem-901</linkclipref>
							<mediatype>audio</mediatype>
							<trackindex>9</trackindex>
							<clipindex>106</clipindex>
							<groupindex>1</groupindex>
						</link>
						<logginginfo>
							<description></description>
							<scene></scene>
							<shottake></shottake>
							<lognote></lognote>
						</logginginfo>
						<labels>
							<label2>Iris</label2>
						</labels>
					</clipitem>
					<clipitem id="clipitem-808" premiereChannelType="stereo">
						<masterclipid>masterclip-126</masterclipid>
						<name>AA282201.MXF</name>
						<enabled>TRUE</enabled>
						<duration>228</duration>
						<rate>
							<timebase>25</timebase>
							<ntsc>FALSE</ntsc>
						</rate>
						<start>65071</start>
						<end>65203</end>
						<in>64</in>
						<out>196</out>
						<pproTicksIn>650280960000</pproTicksIn>
						<pproTicksOut>1991485440000</pproTicksOut>
						<file id="file-126"/>
						<sourcetrack>
							<mediatype>audio</mediatype>
							<trackindex>2</trackindex>
						</sourcetrack>
							<filter>
								<effect>
									<name>Audio Levels</name>
									<effectid>audiolevels</effectid>
									<effectcategory>audiolevels</effectcategory>
									<effecttype>audiolevels</effecttype>
									<mediatype>audio</mediatype>
									<parameter authoringApp="PremierePro">
										<parameterid>level</parameterid>
										<name>Level</name>
										<valuemin>0</valuemin>
										<valuemax>3.98109</valuemax>
										<value>0.0369493</value>
									</parameter>
								</effect>
							</filter>
						<link>
							<linkclipref>clipitem-191</linkclipref>
							<mediatype>video</mediatype>
							<trackindex>1</trackindex>
							<clipindex>201</clipindex>
						</link>
						<link>
							<linkclipref>clipitem-808</linkclipref>
							<mediatype>audio</mediatype>
							<trackindex>8</trackindex>
							<clipindex>109</clipindex>
							<groupindex>1</groupindex>
						</link>
						<link>
							<linkclipref>clipitem-902</linkclipref>
							<mediatype>audio</mediatype>
							<trackindex>9</trackindex>
							<clipindex>107</clipindex>
							<groupindex>1</groupindex>
						</link>
						<link>
							<linkclipref>clipitem-1248</linkclipref>
							<mediatype>audio</mediatype>
							<trackindex>12</trackindex>
							<clipindex>91</clipindex>
							<groupindex>1</groupindex>
						</link>
						<link>
							<linkclipref>clipitem-1333</linkclipref>
							<mediatype>audio</mediatype>
							<trackindex>13</trackindex>
							<clipindex>91</clipindex>
							<groupindex>1</groupindex>
						</link>
						<logginginfo>
							<description></description>
							<scene></scene>
							<shottake></shottake>
							<lognote></lognote>
						</logginginfo>
						<labels>
							<label2>Iris</label2>
						</labels>
					</clipitem>
					<clipitem id="clipitem-809" premiereChannelType="stereo">
						<masterclipid>masterclip-124</masterclipid>
						<name>AA282301.MXF</name>
						<enabled>TRUE</enabled>
						<duration>2904</duration>
						<rate>
							<timebase>25</timebase>
							<ntsc>FALSE</ntsc>
						</rate>
						<start>65203</start>
						<end>65568</end>
						<in>2524</in>
						<out>2889</out>
						<pproTicksIn>25645455360000</pproTicksIn>
						<pproTicksOut>29354088960000</pproTicksOut>
						<file id="file-124"/>
						<sourcetrack>
							<mediatype>audio</mediatype>
							<trackindex>1</trackindex>
						</sourcetrack>
							<filter>
								<effect>
									<name>Audio Levels</name>
									<effectid>audiolevels</effectid>
									<effectcategory>audiolevels</effectcategory>
									<effecttype>audiolevels</effecttype>
									<mediatype>audio</mediatype>
									<parameter authoringApp="PremierePro">
										<parameterid>level</parameterid>
										<name>Level</name>
										<valuemin>0</valuemin>
										<valuemax>3.98109</valuemax>
										<value>0</value>
										<keyframe>
											<when>2825</when>
											<value>0.99763</value>
										</keyframe>
										<keyframe>
											<when>2846</when>
											<value>0</value>
										</keyframe>
									</parameter>
								</effect>
							</filter>
						<link>
							<linkclipref>clipitem-192</linkclipref>
							<mediatype>video</mediatype>
							<trackindex>1</trackindex>
							<clipindex>202</clipindex>
						</link>
						<link>
							<linkclipref>clipitem-809</linkclipref>
							<mediatype>audio</mediatype>
							<trackindex>8</trackindex>
							<clipindex>110</clipindex>
							<groupindex>1</groupindex>
						</link>
						<link>
							<linkclipref>clipitem-903</linkclipref>
							<mediatype>audio</mediatype>
							<trackindex>9</trackindex>
							<clipindex>108</clipindex>
							<groupindex>1</groupindex>
						</link>
						<logginginfo>
							<description></description>
							<scene></scene>
							<shottake></shottake>
							<lognote></lognote>
						</logginginfo>
						<labels>
							<label2>Iris</label2>
						</labels>
					</clipitem>
					<transitionitem>
						<start>91782</start>
						<end>91795</end>
						<alignment>start-black</alignment>
						<cutPointTicks>0</cutPointTicks>
						<rate>
							<timebase>25</timebase>
							<ntsc>FALSE</ntsc>
						</rate>
						<effect>
							<name>Cross Fade (+3dB)</name>
							<effectid>KGAudioTransCrossFade3dB</effectid>
							<effecttype>transition</effecttype>
							<mediatype>audio</mediatype>
							<wipecode>0</wipecode>
							<wipeaccuracy>100</wipeaccuracy>
							<startratio>0</startratio>
							<endratio>1</endratio>
							<reverse>FALSE</reverse>
						</effect>
					</transitionitem>
					<clipitem id="clipitem-810" premiereChannelType="stereo">
						<masterclipid>masterclip-318</masterclipid>
						<name>Nordvisjon3MASTER kommentar.wav</name>
						<enabled>TRUE</enabled>
						<duration>42413</duration>
						<rate>
							<timebase>25</timebase>
							<ntsc>FALSE</ntsc>
						</rate>
						<start>-1</start>
						<end>-1</end>
						<in>21840</in>
						<out>22016</out>
						<pproTicksIn>221908377600000</pproTicksIn>
						<pproTicksOut>223696650240000</pproTicksOut>
						<file id="file-318">
							<name>Nordvisjon3MASTER kommentar.wav</name>
							<pathurl>file://localhost/Volumes/Vaagen/Utveksling/Natur/Naturlig%20helaften%20fra%20Oslo/Transcoded_Nedklipp%20helaften/Nordvisjon3MASTER%20kommentar.wav</pathurl>
							<rate>
								<timebase>30</timebase>
								<ntsc>TRUE</ntsc>
							</rate>
							<duration>50844</duration>
							<timecode>
								<rate>
									<timebase>30</timebase>
									<ntsc>TRUE</ntsc>
								</rate>
								<string>00;00;00;00</string>
								<frame>0</frame>
								<displayformat>DF</displayformat>
								<reel>
									<name></name>
								</reel>
							</timecode>
							<media>
								<audio>
									<samplecharacteristics>
										<depth>16</depth>
										<samplerate>48000</samplerate>
									</samplecharacteristics>
									<channelcount>2</channelcount>
								</audio>
							</media>
						</file>
						<sourcetrack>
							<mediatype>audio</mediatype>
							<trackindex>1</trackindex>
						</sourcetrack>
						<link>
							<linkclipref>clipitem-810</linkclipref>
							<mediatype>audio</mediatype>
							<trackindex>8</trackindex>
							<clipindex>112</clipindex>
							<groupindex>1</groupindex>
						</link>
						<link>
							<linkclipref>clipitem-904</linkclipref>
							<mediatype>audio</mediatype>
							<trackindex>9</trackindex>
							<clipindex>110</clipindex>
							<groupindex>1</groupindex>
						</link>
						<logginginfo>
							<description></description>
							<scene></scene>
							<shottake></shottake>
							<lognote></lognote>
						</logginginfo>
						<labels>
							<label2>Iris</label2>
						</labels>
					</clipitem>
					<transitionitem>
						<start>91945</start>
						<end>91958</end>
						<alignment>center</alignment>
						<cutPointTicks>60963840000</cutPointTicks>
						<rate>
							<timebase>25</timebase>
							<ntsc>FALSE</ntsc>
						</rate>
						<effect>
							<name>Cross Fade (+3dB)</name>
							<effectid>KGAudioTransCrossFade3dB</effectid>
							<effecttype>transition</effecttype>
							<mediatype>audio</mediatype>
							<wipecode>0</wipecode>
							<wipeaccuracy>100</wipeaccuracy>
							<startratio>0</startratio>
							<endratio>1</endratio>
							<reverse>FALSE</reverse>
						</effect>
					</transitionitem>
					<clipitem id="clipitem-811" premiereChannelType="stereo">
						<masterclipid>masterclip-318</masterclipid>
						<name>Nordvisjon3MASTER kommentar.wav</name>
						<enabled>TRUE</enabled>
						<duration>42413</duration>
						<rate>
							<timebase>25</timebase>
							<ntsc>FALSE</ntsc>
						</rate>
						<start>-1</start>
						<end>-1</end>
						<in>21697</in>
						<out>21840</out>
						<pproTicksIn>220455406080000</pproTicksIn>
						<pproTicksOut>221908377600000</pproTicksOut>
						<file id="file-318"/>
						<sourcetrack>
							<mediatype>audio</mediatype>
							<trackindex>1</trackindex>
						</sourcetrack>
						<link>
							<linkclipref>clipitem-811</linkclipref>
							<mediatype>audio</mediatype>
							<trackindex>8</trackindex>
							<clipindex>114</clipindex>
							<groupindex>1</groupindex>
						</link>
						<link>
							<linkclipref>clipitem-905</linkclipref>
							<mediatype>audio</mediatype>
							<trackindex>9</trackindex>
							<clipindex>112</clipindex>
							<groupindex>1</groupindex>
						</link>
						<logginginfo>
							<description></description>
							<scene></scene>
							<shottake></shottake>
							<lognote></lognote>
						</logginginfo>
						<labels>
							<label2>Iris</label2>
						</labels>
					</clipitem>
					<transitionitem>
						<start>92075</start>
						<end>92088</end>
						<alignment>end-black</alignment>
						<cutPointTicks>132088320000</cutPointTicks>
						<rate>
							<timebase>25</timebase>
							<ntsc>FALSE</ntsc>
						</rate>
						<effect>
							<name>Cross Fade (+3dB)</name>
							<effectid>KGAudioTransCrossFade3dB</effectid>
							<effecttype>transition</effecttype>
							<mediatype>audio</mediatype>
							<wipecode>0</wipecode>
							<wipeaccuracy>100</wipeaccuracy>
							<startratio>0</startratio>
							<endratio>1</endratio>
							<reverse>FALSE</reverse>
						</effect>
					</transitionitem>
					<transitionitem>
						<start>100013</start>
						<end>100026</end>
						<alignment>start-black</alignment>
						<cutPointTicks>0</cutPointTicks>
						<rate>
							<timebase>25</timebase>
							<ntsc>FALSE</ntsc>
						</rate>
						<effect>
							<name>Cross Fade (+3dB)</name>
							<effectid>KGAudioTransCrossFade3dB</effectid>
							<effecttype>transition</effecttype>
							<mediatype>audio</mediatype>
							<wipecode>0</wipecode>
							<wipeaccuracy>100</wipeaccuracy>
							<startratio>0</startratio>
							<endratio>1</endratio>
							<reverse>FALSE</reverse>
						</effect>
					</transitionitem>
					<clipitem id="clipitem-812" premiereChannelType="stereo">
						<masterclipid>masterclip-167</masterclipid>
						<name>AA280201.MXF</name>
						<enabled>TRUE</enabled>
						<duration>432</duration>
						<rate>
							<timebase>25</timebase>
							<ntsc>FALSE</ntsc>
						</rate>
						<start>-1</start>
						<end>-1</end>
						<in>189</in>
						<out>331</out>
						<pproTicksIn>1920360960000</pproTicksIn>
						<pproTicksOut>3363171840000</pproTicksOut>
						<file id="file-167"/>
						<sourcetrack>
							<mediatype>audio</mediatype>
							<trackindex>2</trackindex>
						</sourcetrack>
						<link>
							<linkclipref>clipitem-241</linkclipref>
							<mediatype>video</mediatype>
							<trackindex>1</trackindex>
							<clipindex>251</clipindex>
						</link>
						<link>
							<linkclipref>clipitem-812</linkclipref>
							<mediatype>audio</mediatype>
							<trackindex>8</trackindex>
							<clipindex>117</clipindex>
							<groupindex>1</groupindex>
						</link>
						<link>
							<linkclipref>clipitem-906</linkclipref>
							<mediatype>audio</mediatype>
							<trackindex>9</trackindex>
							<clipindex>115</clipindex>
							<groupindex>1</groupindex>
						</link>
						<logginginfo>
							<description></description>
							<scene></scene>
							<shottake></shottake>
							<lognote></lognote>
						</logginginfo>
						<labels>
							<label2>Iris</label2>
						</labels>
					</clipitem>
					<transitionitem>
						<start>100142</start>
						<end>100155</end>
						<alignment>center</alignment>
						<cutPointTicks>60963840000</cutPointTicks>
						<rate>
							<timebase>25</timebase>
							<ntsc>FALSE</ntsc>
						</rate>
						<effect>
							<name>Cross Fade (+3dB)</name>
							<effectid>KGAudioTransCrossFade3dB</effectid>
							<effecttype>transition</effecttype>
							<mediatype>audio</mediatype>
							<wipecode>0</wipecode>
							<wipeaccuracy>100</wipeaccuracy>
							<startratio>0</startratio>
							<endratio>1</endratio>
							<reverse>FALSE</reverse>
						</effect>
					</transitionitem>
					<clipitem id="clipitem-813" premiereChannelType="stereo">
						<masterclipid>masterclip-168</masterclipid>
						<name>AA282601.MXF</name>
						<enabled>TRUE</enabled>
						<duration>2568</duration>
						<rate>
							<timebase>25</timebase>
							<ntsc>FALSE</ntsc>
						</rate>
						<start>-1</start>
						<end>-1</end>
						<in>1619</in>
						<out>1706</out>
						<pproTicksIn>16450076160000</pproTicksIn>
						<pproTicksOut>17334051840000</pproTicksOut>
						<file id="file-168"/>
						<sourcetrack>
							<mediatype>audio</mediatype>
							<trackindex>2</trackindex>
						</sourcetrack>
						<link>
							<linkclipref>clipitem-242</linkclipref>
							<mediatype>video</mediatype>
							<trackindex>1</trackindex>
							<clipindex>252</clipindex>
						</link>
						<link>
							<linkclipref>clipitem-813</linkclipref>
							<mediatype>audio</mediatype>
							<trackindex>8</trackindex>
							<clipindex>119</clipindex>
							<groupindex>1</groupindex>
						</link>
						<link>
							<linkclipref>clipitem-907</linkclipref>
							<mediatype>audio</mediatype>
							<trackindex>9</trackindex>
							<clipindex>117</clipindex>
							<groupindex>1</groupindex>
						</link>
						<link>
							<linkclipref>clipitem-1270</linkclipref>
							<mediatype>audio</mediatype>
							<trackindex>12</trackindex>
							<clipindex>137</clipindex>
							<groupindex>1</groupindex>
						</link>
						<link>
							<linkclipref>clipitem-1355</linkclipref>
							<mediatype>audio</mediatype>
							<trackindex>13</trackindex>
							<clipindex>137</clipindex>
							<groupindex>1</groupindex>
						</link>
						<logginginfo>
							<description></description>
							<scene></scene>
							<shottake></shottake>
							<lognote></lognote>
						</logginginfo>
						<labels>
							<label2>Iris</label2>
						</labels>
					</clipitem>
					<transitionitem>
						<start>100216</start>
						<end>100229</end>
						<alignment>start</alignment>
						<cutPointTicks>0</cutPointTicks>
						<rate>
							<timebase>25</timebase>
							<ntsc>FALSE</ntsc>
						</rate>
						<effect>
							<name>Cross Fade (+3dB)</name>
							<effectid>KGAudioTransCrossFade3dB</effectid>
							<effecttype>transition</effecttype>
							<mediatype>audio</mediatype>
							<wipecode>0</wipecode>
							<wipeaccuracy>100</wipeaccuracy>
							<startratio>0</startratio>
							<endratio>1</endratio>
							<reverse>FALSE</reverse>
						</effect>
					</transitionitem>
					<clipitem id="clipitem-814" premiereChannelType="stereo">
						<masterclipid>masterclip-169</masterclipid>
						<name>AA279001.MXF</name>
						<enabled>TRUE</enabled>
						<duration>132</duration>
						<rate>
							<timebase>25</timebase>
							<ntsc>FALSE</ntsc>
						</rate>
						<start>-1</start>
						<end>100295</end>
						<in>0</in>
						<out>79</out>
						<pproTicksIn>0</pproTicksIn>
						<pproTicksOut>802690560000</pproTicksOut>
						<file id="file-169"/>
						<sourcetrack>
							<mediatype>audio</mediatype>
							<trackindex>2</trackindex>
						</sourcetrack>
						<link>
							<linkclipref>clipitem-243</linkclipref>
							<mediatype>video</mediatype>
							<trackindex>1</trackindex>
							<clipindex>253</clipindex>
						</link>
						<link>
							<linkclipref>clipitem-814</linkclipref>
							<mediatype>audio</mediatype>
							<trackindex>8</trackindex>
							<clipindex>121</clipindex>
							<groupindex>1</groupindex>
						</link>
						<link>
							<linkclipref>clipitem-908</linkclipref>
							<mediatype>audio</mediatype>
							<trackindex>9</trackindex>
							<clipindex>119</clipindex>
							<groupindex>1</groupindex>
						</link>
						<logginginfo>
							<description></description>
							<scene></scene>
							<shottake></shottake>
							<lognote></lognote>
						</logginginfo>
						<labels>
							<label2>Iris</label2>
						</labels>
					</clipitem>
					<clipitem id="clipitem-815" premiereChannelType="stereo">
						<masterclipid>masterclip-170</masterclipid>
						<name>AA280001.MXF</name>
						<enabled>TRUE</enabled>
						<duration>1248</duration>
						<rate>
							<timebase>25</timebase>
							<ntsc>FALSE</ntsc>
						</rate>
						<start>100295</start>
						<end>101024</end>
						<in>458</in>
						<out>1187</out>
						<pproTicksIn>4653573120000</pproTicksIn>
						<pproTicksOut>12060679680000</pproTicksOut>
						<file id="file-170"/>
						<sourcetrack>
							<mediatype>audio</mediatype>
							<trackindex>1</trackindex>
						</sourcetrack>
						<link>
							<linkclipref>clipitem-244</linkclipref>
							<mediatype>video</mediatype>
							<trackindex>1</trackindex>
							<clipindex>254</clipindex>
						</link>
						<link>
							<linkclipref>clipitem-815</linkclipref>
							<mediatype>audio</mediatype>
							<trackindex>8</trackindex>
							<clipindex>122</clipindex>
							<groupindex>1</groupindex>
						</link>
						<link>
							<linkclipref>clipitem-909</linkclipref>
							<mediatype>audio</mediatype>
							<trackindex>9</trackindex>
							<clipindex>120</clipindex>
							<groupindex>1</groupindex>
						</link>
						<logginginfo>
							<description></description>
							<scene></scene>
							<shottake></shottake>
							<lognote></lognote>
						</logginginfo>
						<labels>
							<label2>Iris</label2>
						</labels>
					</clipitem>
					<clipitem id="clipitem-816" premiereChannelType="mono">
						<masterclipid>masterclip-173</masterclipid>
						<name>2011-08-02 at 21_00_06</name>
						<enabled>TRUE</enabled>
						<duration>477</duration>
						<rate>
							<timebase>25</timebase>
							<ntsc>FALSE</ntsc>
						</rate>
						<start>102504</start>
						<end>102527</end>
						<in>253</in>
						<out>276</out>
						<pproTicksIn>2570641920000</pproTicksIn>
						<pproTicksOut>2804336640000</pproTicksOut>
						<file id="file-173"/>
						<sourcetrack>
							<mediatype>audio</mediatype>
							<trackindex>3</trackindex>
						</sourcetrack>
							<filter>
								<effect>
									<name>Audio Levels</name>
									<effectid>audiolevels</effectid>
									<effectcategory>audiolevels</effectcategory>
									<effecttype>audiolevels</effecttype>
									<mediatype>audio</mediatype>
									<parameter authoringApp="PremierePro">
										<parameterid>level</parameterid>
										<name>Level</name>
										<valuemin>0</valuemin>
										<valuemax>3.98109</valuemax>
										<value>0</value>
										<keyframe>
											<when>253</when>
											<value>0</value>
										</keyframe>
										<keyframe>
											<when>256</when>
											<value>0.786665</value>
										</keyframe>
										<keyframe>
											<when>267</when>
											<value>0.786665</value>
										</keyframe>
										<keyframe>
											<when>276</when>
											<value>0</value>
										</keyframe>
									</parameter>
								</effect>
							</filter>
						<logginginfo>
							<description></description>
							<scene></scene>
							<shottake></shottake>
							<lognote></lognote>
						</logginginfo>
						<labels>
							<label2>Iris</label2>
						</labels>
					</clipitem>
					<enabled>TRUE</enabled>
					<locked>FALSE</locked>
					<outputchannelindex>2</outputchannelindex>
				</track>
				<track TL.SQTrackAudioKeyframeStyle="0" TL.SQTrackShy="0" TL.SQTrackExpandedHeight="58" TL.SQTrackExpanded="1" MZ.TrackTargeted="1" PannerCurrentValue="0.5" PannerIsInverted="true" PannerStartKeyframe="-91445760000000000,0.5,0,0,0,0,0,0" PannerName="Balance" currentExplodedTrackIndex="1" totalExplodedTrackCount="2" premiereTrackType="Stereo">
					<clipitem id="clipitem-817" premiereChannelType="stereo">
						<masterclipid>masterclip-10</masterclipid>
						<name>AA260901.MXF</name>
						<enabled>TRUE</enabled>
						<duration>1164</duration>
						<rate>
							<timebase>25</timebase>
							<ntsc>FALSE</ntsc>
						</rate>
						<start>506</start>
						<end>-1</end>
						<in>144</in>
						<out>492</out>
						<pproTicksIn>1463132160000</pproTicksIn>
						<pproTicksOut>4999034880000</pproTicksOut>
						<file id="file-10"/>
						<sourcetrack>
							<mediatype>audio</mediatype>
							<trackindex>1</trackindex>
						</sourcetrack>
						<link>
							<linkclipref>clipitem-11</linkclipref>
							<mediatype>video</mediatype>
							<trackindex>1</trackindex>
							<clipindex>11</clipindex>
						</link>
						<link>
							<linkclipref>clipitem-721</linkclipref>
							<mediatype>audio</mediatype>
							<trackindex>8</trackindex>
							<clipindex>1</clipindex>
							<groupindex>1</groupindex>
						</link>
						<link>
							<linkclipref>clipitem-817</linkclipref>
							<mediatype>audio</mediatype>
							<trackindex>9</trackindex>
							<clipindex>1</clipindex>
							<groupindex>1</groupindex>
						</link>
						<logginginfo>
							<description></description>
							<scene></scene>
							<shottake></shottake>
							<lognote></lognote>
						</logginginfo>
						<labels>
							<label2>Iris</label2>
						</labels>
					</clipitem>
					<transitionitem>
						<start>841</start>
						<end>854</end>
						<alignment>center</alignment>
						<cutPointTicks>60963840000</cutPointTicks>
						<rate>
							<timebase>25</timebase>
							<ntsc>FALSE</ntsc>
						</rate>
						<effect>
							<name>Cross Fade (+3dB)</name>
							<effectid>KGAudioTransCrossFade3dB</effectid>
							<effecttype>transition</effecttype>
							<mediatype>audio</mediatype>
							<wipecode>0</wipecode>
							<wipeaccuracy>100</wipeaccuracy>
							<startratio>0</startratio>
							<endratio>1</endratio>
							<reverse>FALSE</reverse>
						</effect>
					</transitionitem>
					<clipitem id="clipitem-818" premiereChannelType="stereo">
						<masterclipid>masterclip-10</masterclipid>
						<name>AA260901.MXF</name>
						<enabled>TRUE</enabled>
						<duration>1164</duration>
						<rate>
							<timebase>25</timebase>
							<ntsc>FALSE</ntsc>
						</rate>
						<start>-1</start>
						<end>1203</end>
						<in>646</in>
						<out>1008</out>
						<pproTicksIn>6563773440000</pproTicksIn>
						<pproTicksOut>10241925120000</pproTicksOut>
						<file id="file-10"/>
						<sourcetrack>
							<mediatype>audio</mediatype>
							<trackindex>1</trackindex>
						</sourcetrack>
						<link>
							<linkclipref>clipitem-722</linkclipref>
							<mediatype>audio</mediatype>
							<trackindex>8</trackindex>
							<clipindex>3</clipindex>
							<groupindex>1</groupindex>
						</link>
						<link>
							<linkclipref>clipitem-818</linkclipref>
							<mediatype>audio</mediatype>
							<trackindex>9</trackindex>
							<clipindex>3</clipindex>
							<groupindex>1</groupindex>
						</link>
						<logginginfo>
							<description></description>
							<scene></scene>
							<shottake></shottake>
							<lognote></lognote>
						</logginginfo>
						<labels>
							<label2>Iris</label2>
						</labels>
					</clipitem>
					<clipitem id="clipitem-819" premiereChannelType="stereo">
						<masterclipid>masterclip-161</masterclipid>
						<name>Nordvisjon3MASTER i-lyd.mxf</name>
						<enabled>TRUE</enabled>
						<duration>449</duration>
						<rate>
							<timebase>25</timebase>
							<ntsc>FALSE</ntsc>
						</rate>
						<start>1765</start>
						<end>2108</end>
						<in>70</in>
						<out>413</out>
						<pproTicksIn>711244800000</pproTicksIn>
						<pproTicksOut>4196344320000</pproTicksOut>
						<file id="file-161"/>
						<sourcetrack>
							<mediatype>audio</mediatype>
							<trackindex>2</trackindex>
						</sourcetrack>
							<filter>
								<effect>
									<name>Audio Levels</name>
									<effectid>audiolevels</effectid>
									<effectcategory>audiolevels</effectcategory>
									<effecttype>audiolevels</effecttype>
									<mediatype>audio</mediatype>
									<parameter authoringApp="PremierePro">
										<parameterid>level</parameterid>
										<name>Level</name>
										<valuemin>0</valuemin>
										<valuemax>3.98109</valuemax>
										<value>0</value>
										<keyframe>
											<when>141</when>
											<value>0</value>
										</keyframe>
										<keyframe>
											<when>172</when>
											<value>0.406442</value>
										</keyframe>
										<keyframe>
											<when>276</when>
											<value>0.406442</value>
										</keyframe>
										<keyframe>
											<when>341</when>
											<value>0</value>
										</keyframe>
									</parameter>
								</effect>
							</filter>
						<link>
							<linkclipref>clipitem-723</linkclipref>
							<mediatype>audio</mediatype>
							<trackindex>8</trackindex>
							<clipindex>4</clipindex>
							<groupindex>1</groupindex>
						</link>
						<link>
							<linkclipref>clipitem-819</linkclipref>
							<mediatype>audio</mediatype>
							<trackindex>9</trackindex>
							<clipindex>4</clipindex>
							<groupindex>1</groupindex>
						</link>
						<logginginfo>
							<description></description>
							<scene></scene>
							<shottake></shottake>
							<lognote></lognote>
						</logginginfo>
						<labels>
							<label2>Iris</label2>
						</labels>
					</clipitem>
					<clipitem id="clipitem-820" premiereChannelType="stereo">
						<masterclipid>masterclip-23</masterclipid>
						<name>AA262501.MXF</name>
						<enabled>TRUE</enabled>
						<duration>1800</duration>
						<rate>
							<timebase>25</timebase>
							<ntsc>FALSE</ntsc>
						</rate>
						<start>3396</start>
						<end>3549</end>
						<in>459</in>
						<out>612</out>
						<pproTicksIn>4663733760000</pproTicksIn>
						<pproTicksOut>6218311680000</pproTicksOut>
						<file id="file-23"/>
						<sourcetrack>
							<mediatype>audio</mediatype>
							<trackindex>1</trackindex>
						</sourcetrack>
						<link>
							<linkclipref>clipitem-29</linkclipref>
							<mediatype>video</mediatype>
							<trackindex>1</trackindex>
							<clipindex>29</clipindex>
						</link>
						<link>
							<linkclipref>clipitem-724</linkclipref>
							<mediatype>audio</mediatype>
							<trackindex>8</trackindex>
							<clipindex>5</clipindex>
							<groupindex>1</groupindex>
						</link>
						<link>
							<linkclipref>clipitem-820</linkclipref>
							<mediatype>audio</mediatype>
							<trackindex>9</trackindex>
							<clipindex>5</clipindex>
							<groupindex>1</groupindex>
						</link>
						<logginginfo>
							<description></description>
							<scene></scene>
							<shottake></shottake>
							<lognote></lognote>
						</logginginfo>
						<labels>
							<label2>Iris</label2>
						</labels>
					</clipitem>
					<transitionitem>
						<start>3574</start>
						<end>3656</end>
						<alignment>start-black</alignment>
						<cutPointTicks>0</cutPointTicks>
						<rate>
							<timebase>25</timebase>
							<ntsc>FALSE</ntsc>
						</rate>
						<effect>
							<name>Cross Fade (+3dB)</name>
							<effectid>KGAudioTransCrossFade3dB</effectid>
							<effecttype>transition</effecttype>
							<mediatype>audio</mediatype>
							<wipecode>0</wipecode>
							<wipeaccuracy>100</wipeaccuracy>
							<startratio>0</startratio>
							<endratio>1</endratio>
							<reverse>FALSE</reverse>
						</effect>
					</transitionitem>
					<clipitem id="clipitem-821" premiereChannelType="stereo">
						<masterclipid>masterclip-24</masterclipid>
						<name>20160325171754.m2ts</name>
						<enabled>TRUE</enabled>
						<duration>4550</duration>
						<rate>
							<timebase>25</timebase>
							<ntsc>FALSE</ntsc>
						</rate>
						<start>-1</start>
						<end>4138</end>
						<in>3741</in>
						<out>4305</out>
						<pproTicksIn>38010954240000</pproTicksIn>
						<pproTicksOut>43741555200000</pproTicksOut>
						<file id="file-24"/>
						<sourcetrack>
							<mediatype>audio</mediatype>
							<trackindex>2</trackindex>
						</sourcetrack>
							<filter>
								<effect>
									<name>Audio Levels</name>
									<effectid>audiolevels</effectid>
									<effectcategory>audiolevels</effectcategory>
									<effecttype>audiolevels</effecttype>
									<mediatype>audio</mediatype>
									<parameter authoringApp="PremierePro">
										<parameterid>level</parameterid>
										<name>Level</name>
										<valuemin>0</valuemin>
										<valuemax>3.98109</valuemax>
										<value>0</value>
										<keyframe>
											<when>4253</when>
											<value>0.99763</value>
										</keyframe>
										<keyframe>
											<when>4279</when>
											<value>0</value>
										</keyframe>
									</parameter>
								</effect>
							</filter>
						<link>
							<linkclipref>clipitem-30</linkclipref>
							<mediatype>video</mediatype>
							<trackindex>1</trackindex>
							<clipindex>30</clipindex>
						</link>
						<link>
							<linkclipref>clipitem-725</linkclipref>
							<mediatype>audio</mediatype>
							<trackindex>8</trackindex>
							<clipindex>7</clipindex>
							<groupindex>1</groupindex>
						</link>
						<link>
							<linkclipref>clipitem-821</linkclipref>
							<mediatype>audio</mediatype>
							<trackindex>9</trackindex>
							<clipindex>7</clipindex>
							<groupindex>1</groupindex>
						</link>
						<logginginfo>
							<description></description>
							<scene></scene>
							<shottake></shottake>
							<lognote></lognote>
						</logginginfo>
						<labels>
							<label2>Iris</label2>
						</labels>
					</clipitem>
					<clipitem id="clipitem-822" premiereChannelType="stereo">
						<masterclipid>masterclip-26</masterclipid>
						<name>AA263101.MXF</name>
						<enabled>TRUE</enabled>
						<duration>3336</duration>
						<rate>
							<timebase>25</timebase>
							<ntsc>FALSE</ntsc>
						</rate>
						<start>5997</start>
						<end>6052</end>
						<in>1998</in>
						<out>2053</out>
						<pproTicksIn>20300958720000</pproTicksIn>
						<pproTicksOut>20859793920000</pproTicksOut>
						<file id="file-26"/>
						<sourcetrack>
							<mediatype>audio</mediatype>
							<trackindex>1</trackindex>
						</sourcetrack>
						<link>
							<linkclipref>clipitem-726</linkclipref>
							<mediatype>audio</mediatype>
							<trackindex>8</trackindex>
							<clipindex>8</clipindex>
							<groupindex>1</groupindex>
						</link>
						<link>
							<linkclipref>clipitem-822</linkclipref>
							<mediatype>audio</mediatype>
							<trackindex>9</trackindex>
							<clipindex>8</clipindex>
							<groupindex>1</groupindex>
						</link>
						<logginginfo>
							<description></description>
							<scene></scene>
							<shottake></shottake>
							<lognote></lognote>
						</logginginfo>
						<labels>
							<label2>Iris</label2>
						</labels>
					</clipitem>
					<clipitem id="clipitem-823" premiereChannelType="stereo">
						<masterclipid>masterclip-312</masterclipid>
						<name>Ut i naturen 1 Drifter I-lyd.wav</name>
						<enabled>TRUE</enabled>
						<duration>58414</duration>
						<rate>
							<timebase>25</timebase>
							<ntsc>FALSE</ntsc>
						</rate>
						<start>7122</start>
						<end>-1</end>
						<in>26597</in>
						<out>26676</out>
						<pproTicksIn>270242542080000</pproTicksIn>
						<pproTicksOut>271045232640000</pproTicksOut>
						<file id="file-312"/>
						<sourcetrack>
							<mediatype>audio</mediatype>
							<trackindex>2</trackindex>
						</sourcetrack>
							<filter>
								<effect>
									<name>Audio Levels</name>
									<effectid>audiolevels</effectid>
									<effectcategory>audiolevels</effectcategory>
									<effecttype>audiolevels</effecttype>
									<mediatype>audio</mediatype>
									<parameter authoringApp="PremierePro">
										<parameterid>level</parameterid>
										<name>Level</name>
										<valuemin>0</valuemin>
										<valuemax>3.98109</valuemax>
										<value>0.0906936</value>
										<keyframe>
											<when>26451</when>
											<value>0.0906936</value>
										</keyframe>
										<keyframe>
											<when>26470</when>
											<value>0.544162</value>
										</keyframe>
										<keyframe>
											<when>26512</when>
											<value>0.544162</value>
										</keyframe>
										<keyframe>
											<when>26520</when>
											<value>0.99763</value>
										</keyframe>
										<keyframe>
											<when>26604</when>
											<value>0</value>
										</keyframe>
										<keyframe>
											<when>26617</when>
											<value>0.99763</value>
										</keyframe>
									</parameter>
								</effect>
							</filter>
						<link>
							<linkclipref>clipitem-727</linkclipref>
							<mediatype>audio</mediatype>
							<trackindex>8</trackindex>
							<clipindex>9</clipindex>
							<groupindex>1</groupindex>
						</link>
						<link>
							<linkclipref>clipitem-823</linkclipref>
							<mediatype>audio</mediatype>
							<trackindex>9</trackindex>
							<clipindex>9</clipindex>
							<groupindex>1</groupindex>
						</link>
						<logginginfo>
							<description></description>
							<scene></scene>
							<shottake></shottake>
							<lognote></lognote>
						</logginginfo>
						<labels>
							<label2>Iris</label2>
						</labels>
					</clipitem>
					<transitionitem>
						<start>7188</start>
						<end>7201</end>
						<alignment>center</alignment>
						<cutPointTicks>60963840000</cutPointTicks>
						<rate>
							<timebase>25</timebase>
							<ntsc>FALSE</ntsc>
						</rate>
						<effect>
							<name>Cross Fade (+3dB)</name>
							<effectid>KGAudioTransCrossFade3dB</effectid>
							<effecttype>transition</effecttype>
							<mediatype>audio</mediatype>
							<wipecode>0</wipecode>
							<wipeaccuracy>100</wipeaccuracy>
							<startratio>0</startratio>
							<endratio>1</endratio>
							<reverse>FALSE</reverse>
						</effect>
					</transitionitem>
					<clipitem id="clipitem-824" premiereChannelType="stereo">
						<masterclipid>masterclip-312</masterclipid>
						<name>Ut i naturen 1 Drifter I-lyd.wav</name>
						<enabled>TRUE</enabled>
						<duration>58414</duration>
						<rate>
							<timebase>25</timebase>
							<ntsc>FALSE</ntsc>
						</rate>
						<start>-1</start>
						<end>7523</end>
						<in>26777</in>
						<out>27112</out>
						<pproTicksIn>272071457280000</pproTicksIn>
						<pproTicksOut>275475271680000</pproTicksOut>
						<file id="file-312"/>
						<sourcetrack>
							<mediatype>audio</mediatype>
							<trackindex>2</trackindex>
						</sourcetrack>
						<link>
							<linkclipref>clipitem-728</linkclipref>
							<mediatype>audio</mediatype>
							<trackindex>8</trackindex>
							<clipindex>11</clipindex>
							<groupindex>1</groupindex>
						</link>
						<link>
							<linkclipref>clipitem-824</linkclipref>
							<mediatype>audio</mediatype>
							<trackindex>9</trackindex>
							<clipindex>11</clipindex>
							<groupindex>1</groupindex>
						</link>
						<logginginfo>
							<description></description>
							<scene></scene>
							<shottake></shottake>
							<lognote></lognote>
						</logginginfo>
						<labels>
							<label2>Iris</label2>
						</labels>
					</clipitem>
					<clipitem id="clipitem-825" premiereChannelType="stereo">
						<masterclipid>masterclip-313</masterclipid>
						<name>Ut i naturen 1 Drifter Ferdigmix.wav</name>
						<enabled>TRUE</enabled>
						<duration>58414</duration>
						<rate>
							<timebase>25</timebase>
							<ntsc>FALSE</ntsc>
						</rate>
						<start>7523</start>
						<end>-1</end>
						<in>27112</in>
						<out>28493</out>
						<pproTicksIn>275475271680000</pproTicksIn>
						<pproTicksOut>289507115520000</pproTicksOut>
						<file id="file-313"/>
						<sourcetrack>
							<mediatype>audio</mediatype>
							<trackindex>2</trackindex>
						</sourcetrack>
						<link>
							<linkclipref>clipitem-729</linkclipref>
							<mediatype>audio</mediatype>
							<trackindex>8</trackindex>
							<clipindex>12</clipindex>
							<groupindex>1</groupindex>
						</link>
						<link>
							<linkclipref>clipitem-825</linkclipref>
							<mediatype>audio</mediatype>
							<trackindex>9</trackindex>
							<clipindex>12</clipindex>
							<groupindex>1</groupindex>
						</link>
						<logginginfo>
							<description></description>
							<scene></scene>
							<shottake></shottake>
							<lognote></lognote>
						</logginginfo>
						<labels>
							<label2>Iris</label2>
						</labels>
					</clipitem>
					<transitionitem>
						<start>8891</start>
						<end>8904</end>
						<alignment>end-black</alignment>
						<cutPointTicks>132088320000</cutPointTicks>
						<rate>
							<timebase>25</timebase>
							<ntsc>FALSE</ntsc>
						</rate>
						<effect>
							<name>Cross Fade (+3dB)</name>
							<effectid>KGAudioTransCrossFade3dB</effectid>
							<effecttype>transition</effecttype>
							<mediatype>audio</mediatype>
							<wipecode>0</wipecode>
							<wipeaccuracy>100</wipeaccuracy>
							<startratio>0</startratio>
							<endratio>1</endratio>
							<reverse>FALSE</reverse>
						</effect>
					</transitionitem>
					<transitionitem>
						<start>8935</start>
						<end>8948</end>
						<alignment>start-black</alignment>
						<cutPointTicks>0</cutPointTicks>
						<rate>
							<timebase>25</timebase>
							<ntsc>FALSE</ntsc>
						</rate>
						<effect>
							<name>Cross Fade (+3dB)</name>
							<effectid>KGAudioTransCrossFade3dB</effectid>
							<effecttype>transition</effecttype>
							<mediatype>audio</mediatype>
							<wipecode>0</wipecode>
							<wipeaccuracy>100</wipeaccuracy>
							<startratio>0</startratio>
							<endratio>1</endratio>
							<reverse>FALSE</reverse>
						</effect>
					</transitionitem>
					<clipitem id="clipitem-826" premiereChannelType="stereo">
						<masterclipid>masterclip-29</masterclipid>
						<name>DVNA60000316AA</name>
						<enabled>TRUE</enabled>
						<duration>58641</duration>
						<rate>
							<timebase>25</timebase>
							<ntsc>FALSE</ntsc>
						</rate>
						<start>-1</start>
						<end>-1</end>
						<in>32597</in>
						<out>32675</out>
						<pproTicksIn>331206382080000</pproTicksIn>
						<pproTicksOut>331998912000000</pproTicksOut>
						<file id="file-29"/>
						<sourcetrack>
							<mediatype>audio</mediatype>
							<trackindex>4</trackindex>
						</sourcetrack>
						<link>
							<linkclipref>clipitem-730</linkclipref>
							<mediatype>audio</mediatype>
							<trackindex>8</trackindex>
							<clipindex>15</clipindex>
							<groupindex>1</groupindex>
						</link>
						<link>
							<linkclipref>clipitem-826</linkclipref>
							<mediatype>audio</mediatype>
							<trackindex>9</trackindex>
							<clipindex>15</clipindex>
							<groupindex>1</groupindex>
						</link>
						<logginginfo>
							<description>Ut i naturen - Hornøya</description>
							<scene></scene>
							<shottake></shottake>
							<lognote></lognote>
						</logginginfo>
						<labels>
							<label2>Iris</label2>
						</labels>
					</clipitem>
					<transitionitem>
						<start>9000</start>
						<end>9013</end>
						<alignment>center</alignment>
						<cutPointTicks>60963840000</cutPointTicks>
						<rate>
							<timebase>25</timebase>
							<ntsc>FALSE</ntsc>
						</rate>
						<effect>
							<name>Cross Fade (+3dB)</name>
							<effectid>KGAudioTransCrossFade3dB</effectid>
							<effecttype>transition</effecttype>
							<mediatype>audio</mediatype>
							<wipecode>0</wipecode>
							<wipeaccuracy>100</wipeaccuracy>
							<startratio>0</startratio>
							<endratio>1</endratio>
							<reverse>FALSE</reverse>
						</effect>
					</transitionitem>
					<clipitem id="clipitem-827" premiereChannelType="stereo">
						<masterclipid>masterclip-29</masterclipid>
						<name>DVNA60000316AA</name>
						<enabled>TRUE</enabled>
						<duration>58641</duration>
						<rate>
							<timebase>25</timebase>
							<ntsc>FALSE</ntsc>
						</rate>
						<start>-1</start>
						<end>-1</end>
						<in>31197</in>
						<out>32701</out>
						<pproTicksIn>316981486080000</pproTicksIn>
						<pproTicksOut>332263088640000</pproTicksOut>
						<file id="file-29"/>
						<sourcetrack>
							<mediatype>audio</mediatype>
							<trackindex>4</trackindex>
						</sourcetrack>
						<link>
							<linkclipref>clipitem-39</linkclipref>
							<mediatype>video</mediatype>
							<trackindex>1</trackindex>
							<clipindex>39</clipindex>
						</link>
						<link>
							<linkclipref>clipitem-731</linkclipref>
							<mediatype>audio</mediatype>
							<trackindex>8</trackindex>
							<clipindex>17</clipindex>
							<groupindex>1</groupindex>
						</link>
						<link>
							<linkclipref>clipitem-827</linkclipref>
							<mediatype>audio</mediatype>
							<trackindex>9</trackindex>
							<clipindex>17</clipindex>
							<groupindex>1</groupindex>
						</link>
						<logginginfo>
							<description>Ut i naturen - Hornøya</description>
							<scene></scene>
							<shottake></shottake>
							<lognote></lognote>
						</logginginfo>
						<labels>
							<label2>Iris</label2>
						</labels>
					</clipitem>
					<transitionitem>
						<start>10491</start>
						<end>10504</end>
						<alignment>start</alignment>
						<cutPointTicks>0</cutPointTicks>
						<rate>
							<timebase>25</timebase>
							<ntsc>FALSE</ntsc>
						</rate>
						<effect>
							<name>Cross Fade (+3dB)</name>
							<effectid>KGAudioTransCrossFade3dB</effectid>
							<effecttype>transition</effecttype>
							<mediatype>audio</mediatype>
							<wipecode>0</wipecode>
							<wipeaccuracy>100</wipeaccuracy>
							<startratio>0</startratio>
							<endratio>1</endratio>
							<reverse>FALSE</reverse>
						</effect>
					</transitionitem>
					<clipitem id="clipitem-828" premiereChannelType="stereo">
						<masterclipid>masterclip-30</masterclipid>
						<name>2015-12-19 11.39.19.mp4</name>
						<enabled>TRUE</enabled>
						<duration>2636</duration>
						<rate>
							<timebase>25</timebase>
							<ntsc>FALSE</ntsc>
						</rate>
						<start>-1</start>
						<end>11196</end>
						<in>0</in>
						<out>705</out>
						<pproTicksIn>0</pproTicksIn>
						<pproTicksOut>7163251200000</pproTicksOut>
						<file id="file-30"/>
						<sourcetrack>
							<mediatype>audio</mediatype>
							<trackindex>2</trackindex>
						</sourcetrack>
							<filter>
								<effect>
									<name>Audio Levels</name>
									<effectid>audiolevels</effectid>
									<effectcategory>audiolevels</effectcategory>
									<effecttype>audiolevels</effecttype>
									<mediatype>audio</mediatype>
									<parameter authoringApp="PremierePro">
										<parameterid>level</parameterid>
										<name>Level</name>
										<valuemin>0</valuemin>
										<valuemax>3.98109</valuemax>
										<value>0.242667</value>
										<keyframe>
											<when>435</when>
											<value>0.242667</value>
										</keyframe>
									</parameter>
								</effect>
							</filter>
							<marker>
								<comment></comment>
								<name></name>
								<in>1131</in>
								<out>-1</out>
							</marker>
							<marker>
								<comment></comment>
								<name></name>
								<in>667</in>
								<out>-1</out>
							</marker>
						<link>
							<linkclipref>clipitem-40</linkclipref>
							<mediatype>video</mediatype>
							<trackindex>1</trackindex>
							<clipindex>40</clipindex>
						</link>
						<link>
							<linkclipref>clipitem-732</linkclipref>
							<mediatype>audio</mediatype>
							<trackindex>8</trackindex>
							<clipindex>19</clipindex>
							<groupindex>1</groupindex>
						</link>
						<link>
							<linkclipref>clipitem-828</linkclipref>
							<mediatype>audio</mediatype>
							<trackindex>9</trackindex>
							<clipindex>19</clipindex>
							<groupindex>1</groupindex>
						</link>
						<logginginfo>
							<description></description>
							<scene></scene>
							<shottake></shottake>
							<lognote></lognote>
						</logginginfo>
						<labels>
							<label2>Iris</label2>
						</labels>
					</clipitem>
					<clipitem id="clipitem-829" premiereChannelType="stereo">
						<masterclipid>masterclip-30</masterclipid>
						<name>2015-12-19 11.39.19.mp4</name>
						<enabled>TRUE</enabled>
						<duration>2636</duration>
						<rate>
							<timebase>25</timebase>
							<ntsc>FALSE</ntsc>
						</rate>
						<start>13337</start>
						<end>13534</end>
						<in>1238</in>
						<out>1435</out>
						<pproTicksIn>12578872320000</pproTicksIn>
						<pproTicksOut>14580518400000</pproTicksOut>
						<file id="file-30"/>
						<sourcetrack>
							<mediatype>audio</mediatype>
							<trackindex>2</trackindex>
						</sourcetrack>
							<filter>
								<effect>
									<name>Audio Levels</name>
									<effectid>audiolevels</effectid>
									<effectcategory>audiolevels</effectcategory>
									<effecttype>audiolevels</effecttype>
									<mediatype>audio</mediatype>
									<parameter authoringApp="PremierePro">
										<parameterid>level</parameterid>
										<name>Level</name>
										<valuemin>0</valuemin>
										<valuemax>3.98109</valuemax>
										<value>0</value>
										<keyframe>
											<when>1402</when>
											<value>0.947748</value>
										</keyframe>
										<keyframe>
											<when>1421</when>
											<value>0</value>
										</keyframe>
									</parameter>
								</effect>
							</filter>
							<marker>
								<comment></comment>
								<name></name>
								<in>1131</in>
								<out>-1</out>
							</marker>
							<marker>
								<comment></comment>
								<name></name>
								<in>667</in>
								<out>-1</out>
							</marker>
						<link>
							<linkclipref>clipitem-282</linkclipref>
							<mediatype>video</mediatype>
							<trackindex>2</trackindex>
							<clipindex>26</clipindex>
						</link>
						<link>
							<linkclipref>clipitem-733</linkclipref>
							<mediatype>audio</mediatype>
							<trackindex>8</trackindex>
							<clipindex>20</clipindex>
							<groupindex>1</groupindex>
						</link>
						<link>
							<linkclipref>clipitem-829</linkclipref>
							<mediatype>audio</mediatype>
							<trackindex>9</trackindex>
							<clipindex>20</clipindex>
							<groupindex>1</groupindex>
						</link>
						<logginginfo>
							<description></description>
							<scene></scene>
							<shottake></shottake>
							<lognote></lognote>
						</logginginfo>
						<labels>
							<label2>Iris</label2>
						</labels>
					</clipitem>
					<transitionitem>
						<start>14709</start>
						<end>14722</end>
						<alignment>start-black</alignment>
						<cutPointTicks>0</cutPointTicks>
						<rate>
							<timebase>25</timebase>
							<ntsc>FALSE</ntsc>
						</rate>
						<effect>
							<name>Cross Fade (+3dB)</name>
							<effectid>KGAudioTransCrossFade3dB</effectid>
							<effecttype>transition</effecttype>
							<mediatype>audio</mediatype>
							<wipecode>0</wipecode>
							<wipeaccuracy>100</wipeaccuracy>
							<startratio>0</startratio>
							<endratio>1</endratio>
							<reverse>FALSE</reverse>
						</effect>
					</transitionitem>
					<clipitem id="clipitem-830" premiereChannelType="stereo">
						<masterclipid>masterclip-30</masterclipid>
						<name>2015-12-19 11.39.19.mp4</name>
						<enabled>TRUE</enabled>
						<duration>2636</duration>
						<rate>
							<timebase>25</timebase>
							<ntsc>FALSE</ntsc>
						</rate>
						<start>-1</start>
						<end>15217</end>
						<in>2077</in>
						<out>2585</out>
						<pproTicksIn>21103649280000</pproTicksIn>
						<pproTicksOut>26265254400000</pproTicksOut>
						<file id="file-30"/>
						<sourcetrack>
							<mediatype>audio</mediatype>
							<trackindex>2</trackindex>
						</sourcetrack>
							<filter>
								<effect>
									<name>Audio Levels</name>
									<effectid>audiolevels</effectid>
									<effectcategory>audiolevels</effectcategory>
									<effecttype>audiolevels</effecttype>
									<mediatype>audio</mediatype>
									<parameter authoringApp="PremierePro">
										<parameterid>level</parameterid>
										<name>Level</name>
										<valuemin>0</valuemin>
										<valuemax>3.98109</valuemax>
										<value>0</value>
										<keyframe>
											<when>2500</when>
											<value>0.537911</value>
										</keyframe>
										<keyframe>
											<when>2554</when>
											<value>0.448361</value>
										</keyframe>
										<keyframe>
											<when>2561</when>
											<value>0</value>
										</keyframe>
									</parameter>
								</effect>
							</filter>
							<marker>
								<comment></comment>
								<name></name>
								<in>1131</in>
								<out>-1</out>
							</marker>
							<marker>
								<comment></comment>
								<name></name>
								<in>667</in>
								<out>-1</out>
							</marker>
						<link>
							<linkclipref>clipitem-285</linkclipref>
							<mediatype>video</mediatype>
							<trackindex>2</trackindex>
							<clipindex>29</clipindex>
						</link>
						<link>
							<linkclipref>clipitem-734</linkclipref>
							<mediatype>audio</mediatype>
							<trackindex>8</trackindex>
							<clipindex>22</clipindex>
							<groupindex>1</groupindex>
						</link>
						<link>
							<linkclipref>clipitem-830</linkclipref>
							<mediatype>audio</mediatype>
							<trackindex>9</trackindex>
							<clipindex>22</clipindex>
							<groupindex>1</groupindex>
						</link>
						<logginginfo>
							<description></description>
							<scene></scene>
							<shottake></shottake>
							<lognote></lognote>
						</logginginfo>
						<labels>
							<label2>Iris</label2>
						</labels>
					</clipitem>
					<clipitem id="clipitem-831" premiereChannelType="stereo">
						<masterclipid>masterclip-314</masterclipid>
						<name>Ut i naturen 2 Sanser Ferdigmix.wav</name>
						<enabled>TRUE</enabled>
						<duration>58727</duration>
						<rate>
							<timebase>25</timebase>
							<ntsc>FALSE</ntsc>
						</rate>
						<start>16458</start>
						<end>18048</end>
						<in>7346</in>
						<out>8936</out>
						<pproTicksIn>74640061440000</pproTicksIn>
						<pproTicksOut>90795479040000</pproTicksOut>
						<file id="file-314"/>
						<sourcetrack>
							<mediatype>audio</mediatype>
							<trackindex>2</trackindex>
						</sourcetrack>
							<filter>
								<effect>
									<name>Audio Levels</name>
									<effectid>audiolevels</effectid>
									<effectcategory>audiolevels</effectcategory>
									<effecttype>audiolevels</effecttype>
									<mediatype>audio</mediatype>
									<parameter authoringApp="PremierePro">
										<parameterid>level</parameterid>
										<name>Level</name>
										<valuemin>0</valuemin>
										<valuemax>3.98109</valuemax>
										<value>0.99763</value>
										<keyframe>
											<when>7362</when>
											<value>0</value>
										</keyframe>
										<keyframe>
											<when>7372</when>
											<value>0.413651</value>
										</keyframe>
										<keyframe>
											<when>7379</when>
											<value>0.99763</value>
										</keyframe>
									</parameter>
								</effect>
							</filter>
						<link>
							<linkclipref>clipitem-735</linkclipref>
							<mediatype>audio</mediatype>
							<trackindex>8</trackindex>
							<clipindex>23</clipindex>
							<groupindex>1</groupindex>
						</link>
						<link>
							<linkclipref>clipitem-831</linkclipref>
							<mediatype>audio</mediatype>
							<trackindex>9</trackindex>
							<clipindex>23</clipindex>
							<groupindex>1</groupindex>
						</link>
						<logginginfo>
							<description></description>
							<scene></scene>
							<shottake></shottake>
							<lognote></lognote>
						</logginginfo>
						<labels>
							<label2>Iris</label2>
						</labels>
					</clipitem>
					<transitionitem>
						<start>18079</start>
						<end>18092</end>
						<alignment>start-black</alignment>
						<cutPointTicks>0</cutPointTicks>
						<rate>
							<timebase>25</timebase>
							<ntsc>FALSE</ntsc>
						</rate>
						<effect>
							<name>Cross Fade (+3dB)</name>
							<effectid>KGAudioTransCrossFade3dB</effectid>
							<effecttype>transition</effecttype>
							<mediatype>audio</mediatype>
							<wipecode>0</wipecode>
							<wipeaccuracy>100</wipeaccuracy>
							<startratio>0</startratio>
							<endratio>1</endratio>
							<reverse>FALSE</reverse>
						</effect>
					</transitionitem>
					<clipitem id="clipitem-832" premiereChannelType="stereo">
						<masterclipid>masterclip-314</masterclipid>
						<name>Ut i naturen 2 Sanser Ferdigmix.wav</name>
						<enabled>TRUE</enabled>
						<duration>58727</duration>
						<rate>
							<timebase>25</timebase>
							<ntsc>FALSE</ntsc>
						</rate>
						<start>-1</start>
						<end>19578</end>
						<in>31137</in>
						<out>32636</out>
						<pproTicksIn>316371847680000</pproTicksIn>
						<pproTicksOut>331602647040000</pproTicksOut>
						<file id="file-314"/>
						<sourcetrack>
							<mediatype>audio</mediatype>
							<trackindex>2</trackindex>
						</sourcetrack>
						<link>
							<linkclipref>clipitem-736</linkclipref>
							<mediatype>audio</mediatype>
							<trackindex>8</trackindex>
							<clipindex>25</clipindex>
							<groupindex>1</groupindex>
						</link>
						<link>
							<linkclipref>clipitem-832</linkclipref>
							<mediatype>audio</mediatype>
							<trackindex>9</trackindex>
							<clipindex>25</clipindex>
							<groupindex>1</groupindex>
						</link>
						<logginginfo>
							<description></description>
							<scene></scene>
							<shottake></shottake>
							<lognote></lognote>
						</logginginfo>
						<labels>
							<label2>Iris</label2>
						</labels>
					</clipitem>
					<clipitem id="clipitem-833" premiereChannelType="stereo">
						<masterclipid>masterclip-52</masterclipid>
						<name>AA275401.MXF</name>
						<enabled>TRUE</enabled>
						<duration>7896</duration>
						<rate>
							<timebase>25</timebase>
							<ntsc>FALSE</ntsc>
						</rate>
						<start>20760</start>
						<end>21255</end>
						<in>320</in>
						<out>815</out>
						<pproTicksIn>3251404800000</pproTicksIn>
						<pproTicksOut>8280921600000</pproTicksOut>
						<file id="file-52"/>
						<sourcetrack>
							<mediatype>audio</mediatype>
							<trackindex>2</trackindex>
						</sourcetrack>
						<link>
							<linkclipref>clipitem-737</linkclipref>
							<mediatype>audio</mediatype>
							<trackindex>8</trackindex>
							<clipindex>26</clipindex>
							<groupindex>1</groupindex>
						</link>
						<link>
							<linkclipref>clipitem-833</linkclipref>
							<mediatype>audio</mediatype>
							<trackindex>9</trackindex>
							<clipindex>26</clipindex>
							<groupindex>1</groupindex>
						</link>
						<logginginfo>
							<description></description>
							<scene></scene>
							<shottake></shottake>
							<lognote></lognote>
						</logginginfo>
						<labels>
							<label2>Iris</label2>
						</labels>
					</clipitem>
					<clipitem id="clipitem-834" premiereChannelType="stereo">
						<masterclipid>masterclip-52</masterclipid>
						<name>AA275401.MXF</name>
						<enabled>TRUE</enabled>
						<duration>7896</duration>
						<rate>
							<timebase>25</timebase>
							<ntsc>FALSE</ntsc>
						</rate>
						<start>21255</start>
						<end>21454</end>
						<in>815</in>
						<out>1014</out>
						<pproTicksIn>8280921600000</pproTicksIn>
						<pproTicksOut>10302888960000</pproTicksOut>
						<file id="file-52"/>
						<sourcetrack>
							<mediatype>audio</mediatype>
							<trackindex>2</trackindex>
						</sourcetrack>
						<link>
							<linkclipref>clipitem-738</linkclipref>
							<mediatype>audio</mediatype>
							<trackindex>8</trackindex>
							<clipindex>27</clipindex>
							<groupindex>1</groupindex>
						</link>
						<link>
							<linkclipref>clipitem-834</linkclipref>
							<mediatype>audio</mediatype>
							<trackindex>9</trackindex>
							<clipindex>27</clipindex>
							<groupindex>1</groupindex>
						</link>
						<link>
							<linkclipref>clipitem-932</linkclipref>
							<mediatype>audio</mediatype>
							<trackindex>10</trackindex>
							<clipindex>30</clipindex>
							<groupindex>1</groupindex>
						</link>
						<link>
							<linkclipref>clipitem-1072</linkclipref>
							<mediatype>audio</mediatype>
							<trackindex>11</trackindex>
							<clipindex>30</clipindex>
							<groupindex>1</groupindex>
						</link>
						<logginginfo>
							<description></description>
							<scene></scene>
							<shottake></shottake>
							<lognote></lognote>
						</logginginfo>
						<labels>
							<label2>Iris</label2>
						</labels>
					</clipitem>
					<clipitem id="clipitem-835" premiereChannelType="stereo">
						<masterclipid>masterclip-53</masterclipid>
						<name>AA274901.MXF</name>
						<enabled>TRUE</enabled>
						<duration>7896</duration>
						<rate>
							<timebase>25</timebase>
							<ntsc>FALSE</ntsc>
						</rate>
						<start>21454</start>
						<end>21581</end>
						<in>3810</in>
						<out>3937</out>
						<pproTicksIn>38712038400000</pproTicksIn>
						<pproTicksOut>40002439680000</pproTicksOut>
						<file id="file-53"/>
						<sourcetrack>
							<mediatype>audio</mediatype>
							<trackindex>2</trackindex>
						</sourcetrack>
						<link>
							<linkclipref>clipitem-67</linkclipref>
							<mediatype>video</mediatype>
							<trackindex>1</trackindex>
							<clipindex>67</clipindex>
						</link>
						<link>
							<linkclipref>clipitem-739</linkclipref>
							<mediatype>audio</mediatype>
							<trackindex>8</trackindex>
							<clipindex>28</clipindex>
							<groupindex>1</groupindex>
						</link>
						<link>
							<linkclipref>clipitem-835</linkclipref>
							<mediatype>audio</mediatype>
							<trackindex>9</trackindex>
							<clipindex>28</clipindex>
							<groupindex>1</groupindex>
						</link>
						<logginginfo>
							<description></description>
							<scene></scene>
							<shottake></shottake>
							<lognote></lognote>
						</logginginfo>
						<labels>
							<label2>Iris</label2>
						</labels>
					</clipitem>
					<clipitem id="clipitem-836" premiereChannelType="stereo">
						<masterclipid>masterclip-54</masterclipid>
						<name>20160522_190802.mp4</name>
						<enabled>TRUE</enabled>
						<duration>736</duration>
						<rate>
							<timebase>25</timebase>
							<ntsc>FALSE</ntsc>
						</rate>
						<start>21581</start>
						<end>21845</end>
						<in>37</in>
						<out>301</out>
						<pproTicksIn>375943680000</pproTicksIn>
						<pproTicksOut>3058352640000</pproTicksOut>
						<file id="file-54"/>
						<sourcetrack>
							<mediatype>audio</mediatype>
							<trackindex>2</trackindex>
						</sourcetrack>
							<filter>
								<effect>
									<name>Audio Levels</name>
									<effectid>audiolevels</effectid>
									<effectcategory>audiolevels</effectcategory>
									<effecttype>audiolevels</effecttype>
									<mediatype>audio</mediatype>
									<parameter authoringApp="PremierePro">
										<parameterid>level</parameterid>
										<name>Level</name>
										<valuemin>0</valuemin>
										<valuemax>3.98109</valuemax>
										<value>0.315041</value>
									</parameter>
								</effect>
							</filter>
						<link>
							<linkclipref>clipitem-68</linkclipref>
							<mediatype>video</mediatype>
							<trackindex>1</trackindex>
							<clipindex>68</clipindex>
						</link>
						<link>
							<linkclipref>clipitem-740</linkclipref>
							<mediatype>audio</mediatype>
							<trackindex>8</trackindex>
							<clipindex>29</clipindex>
							<groupindex>1</groupindex>
						</link>
						<link>
							<linkclipref>clipitem-836</linkclipref>
							<mediatype>audio</mediatype>
							<trackindex>9</trackindex>
							<clipindex>29</clipindex>
							<groupindex>1</groupindex>
						</link>
						<logginginfo>
							<description></description>
							<scene></scene>
							<shottake></shottake>
							<lognote></lognote>
						</logginginfo>
						<labels>
							<label2>Iris</label2>
						</labels>
					</clipitem>
					<clipitem id="clipitem-837" premiereChannelType="stereo">
						<masterclipid>masterclip-53</masterclipid>
						<name>AA274901.MXF</name>
						<enabled>TRUE</enabled>
						<duration>7896</duration>
						<rate>
							<timebase>25</timebase>
							<ntsc>FALSE</ntsc>
						</rate>
						<start>21845</start>
						<end>22026</end>
						<in>6390</in>
						<out>6571</out>
						<pproTicksIn>64926489600000</pproTicksIn>
						<pproTicksOut>66765565440000</pproTicksOut>
						<file id="file-53"/>
						<sourcetrack>
							<mediatype>audio</mediatype>
							<trackindex>2</trackindex>
						</sourcetrack>
						<link>
							<linkclipref>clipitem-741</linkclipref>
							<mediatype>audio</mediatype>
							<trackindex>8</trackindex>
							<clipindex>30</clipindex>
							<groupindex>1</groupindex>
						</link>
						<link>
							<linkclipref>clipitem-837</linkclipref>
							<mediatype>audio</mediatype>
							<trackindex>9</trackindex>
							<clipindex>30</clipindex>
							<groupindex>1</groupindex>
						</link>
						<logginginfo>
							<description></description>
							<scene></scene>
							<shottake></shottake>
							<lognote></lognote>
						</logginginfo>
						<labels>
							<label2>Iris</label2>
						</labels>
					</clipitem>
					<clipitem id="clipitem-838" premiereChannelType="stereo">
						<masterclipid>masterclip-53</masterclipid>
						<name>AA274901.MXF</name>
						<enabled>TRUE</enabled>
						<duration>7896</duration>
						<rate>
							<timebase>25</timebase>
							<ntsc>FALSE</ntsc>
						</rate>
						<start>22026</start>
						<end>22201</end>
						<in>6636</in>
						<out>6811</out>
						<pproTicksIn>67426007040000</pproTicksIn>
						<pproTicksOut>69204119040000</pproTicksOut>
						<file id="file-53"/>
						<sourcetrack>
							<mediatype>audio</mediatype>
							<trackindex>2</trackindex>
						</sourcetrack>
						<link>
							<linkclipref>clipitem-742</linkclipref>
							<mediatype>audio</mediatype>
							<trackindex>8</trackindex>
							<clipindex>31</clipindex>
							<groupindex>1</groupindex>
						</link>
						<link>
							<linkclipref>clipitem-838</linkclipref>
							<mediatype>audio</mediatype>
							<trackindex>9</trackindex>
							<clipindex>31</clipindex>
							<groupindex>1</groupindex>
						</link>
						<logginginfo>
							<description></description>
							<scene></scene>
							<shottake></shottake>
							<lognote></lognote>
						</logginginfo>
						<labels>
							<label2>Iris</label2>
						</labels>
					</clipitem>
					<clipitem id="clipitem-839" premiereChannelType="stereo">
						<masterclipid>masterclip-56</masterclipid>
						<name>20160514_185459.mp4</name>
						<enabled>TRUE</enabled>
						<duration>908</duration>
						<rate>
							<timebase>25</timebase>
							<ntsc>FALSE</ntsc>
						</rate>
						<start>22201</start>
						<end>22355</end>
						<in>225</in>
						<out>379</out>
						<pproTicksIn>2286144000000</pproTicksIn>
						<pproTicksOut>3850882560000</pproTicksOut>
						<file id="file-56"/>
						<sourcetrack>
							<mediatype>audio</mediatype>
							<trackindex>2</trackindex>
						</sourcetrack>
							<filter>
								<effect>
									<name>Audio Levels</name>
									<effectid>audiolevels</effectid>
									<effectcategory>audiolevels</effectcategory>
									<effecttype>audiolevels</effecttype>
									<mediatype>audio</mediatype>
									<parameter authoringApp="PremierePro">
										<parameterid>level</parameterid>
										<name>Level</name>
										<valuemin>0</valuemin>
										<valuemax>3.98109</valuemax>
										<value>0.99763</value>
									</parameter>
								</effect>
							</filter>
						<link>
							<linkclipref>clipitem-743</linkclipref>
							<mediatype>audio</mediatype>
							<trackindex>8</trackindex>
							<clipindex>32</clipindex>
							<groupindex>1</groupindex>
						</link>
						<link>
							<linkclipref>clipitem-839</linkclipref>
							<mediatype>audio</mediatype>
							<trackindex>9</trackindex>
							<clipindex>32</clipindex>
							<groupindex>1</groupindex>
						</link>
						<logginginfo>
							<description></description>
							<scene></scene>
							<shottake></shottake>
							<lognote></lognote>
						</logginginfo>
						<labels>
							<label2>Iris</label2>
						</labels>
					</clipitem>
					<clipitem id="clipitem-840" premiereChannelType="stereo">
						<masterclipid>masterclip-53</masterclipid>
						<name>AA274901.MXF</name>
						<enabled>TRUE</enabled>
						<duration>7896</duration>
						<rate>
							<timebase>25</timebase>
							<ntsc>FALSE</ntsc>
						</rate>
						<start>22355</start>
						<end>22819</end>
						<in>6806</in>
						<out>7270</out>
						<pproTicksIn>69153315840000</pproTicksIn>
						<pproTicksOut>73867852800000</pproTicksOut>
						<file id="file-53"/>
						<sourcetrack>
							<mediatype>audio</mediatype>
							<trackindex>2</trackindex>
						</sourcetrack>
						<link>
							<linkclipref>clipitem-744</linkclipref>
							<mediatype>audio</mediatype>
							<trackindex>8</trackindex>
							<clipindex>33</clipindex>
							<groupindex>1</groupindex>
						</link>
						<link>
							<linkclipref>clipitem-840</linkclipref>
							<mediatype>audio</mediatype>
							<trackindex>9</trackindex>
							<clipindex>33</clipindex>
							<groupindex>1</groupindex>
						</link>
						<logginginfo>
							<description></description>
							<scene></scene>
							<shottake></shottake>
							<lognote></lognote>
						</logginginfo>
						<labels>
							<label2>Iris</label2>
						</labels>
					</clipitem>
					<clipitem id="clipitem-841" premiereChannelType="stereo">
						<masterclipid>masterclip-53</masterclipid>
						<name>AA274901.MXF</name>
						<enabled>TRUE</enabled>
						<duration>7896</duration>
						<rate>
							<timebase>25</timebase>
							<ntsc>FALSE</ntsc>
						</rate>
						<start>22819</start>
						<end>23338</end>
						<in>7361</in>
						<out>7880</out>
						<pproTicksIn>74792471040000</pproTicksIn>
						<pproTicksOut>80065843200000</pproTicksOut>
						<file id="file-53"/>
						<sourcetrack>
							<mediatype>audio</mediatype>
							<trackindex>2</trackindex>
						</sourcetrack>
						<link>
							<linkclipref>clipitem-745</linkclipref>
							<mediatype>audio</mediatype>
							<trackindex>8</trackindex>
							<clipindex>34</clipindex>
							<groupindex>1</groupindex>
						</link>
						<link>
							<linkclipref>clipitem-841</linkclipref>
							<mediatype>audio</mediatype>
							<trackindex>9</trackindex>
							<clipindex>34</clipindex>
							<groupindex>1</groupindex>
						</link>
						<logginginfo>
							<description></description>
							<scene></scene>
							<shottake></shottake>
							<lognote></lognote>
						</logginginfo>
						<labels>
							<label2>Iris</label2>
						</labels>
					</clipitem>
					<clipitem id="clipitem-842" premiereChannelType="stereo">
						<masterclipid>masterclip-52</masterclipid>
						<name>AA275401.MXF</name>
						<enabled>TRUE</enabled>
						<duration>7896</duration>
						<rate>
							<timebase>25</timebase>
							<ntsc>FALSE</ntsc>
						</rate>
						<start>23338</start>
						<end>23667</end>
						<in>1558</in>
						<out>1887</out>
						<pproTicksIn>15830277120000</pproTicksIn>
						<pproTicksOut>19173127680000</pproTicksOut>
						<file id="file-52"/>
						<sourcetrack>
							<mediatype>audio</mediatype>
							<trackindex>2</trackindex>
						</sourcetrack>
						<link>
							<linkclipref>clipitem-74</linkclipref>
							<mediatype>video</mediatype>
							<trackindex>1</trackindex>
							<clipindex>74</clipindex>
						</link>
						<link>
							<linkclipref>clipitem-746</linkclipref>
							<mediatype>audio</mediatype>
							<trackindex>8</trackindex>
							<clipindex>35</clipindex>
							<groupindex>1</groupindex>
						</link>
						<link>
							<linkclipref>clipitem-842</linkclipref>
							<mediatype>audio</mediatype>
							<trackindex>9</trackindex>
							<clipindex>35</clipindex>
							<groupindex>1</groupindex>
						</link>
						<logginginfo>
							<description></description>
							<scene></scene>
							<shottake></shottake>
							<lognote></lognote>
						</logginginfo>
						<labels>
							<label2>Iris</label2>
						</labels>
					</clipitem>
					<clipitem id="clipitem-843" premiereChannelType="stereo">
						<masterclipid>masterclip-52</masterclipid>
						<name>AA275401.MXF</name>
						<enabled>TRUE</enabled>
						<duration>7896</duration>
						<rate>
							<timebase>25</timebase>
							<ntsc>FALSE</ntsc>
						</rate>
						<start>23667</start>
						<end>-1</end>
						<in>1909</in>
						<out>2029</out>
						<pproTicksIn>19396661760000</pproTicksIn>
						<pproTicksOut>20615938560000</pproTicksOut>
						<file id="file-52"/>
						<sourcetrack>
							<mediatype>audio</mediatype>
							<trackindex>2</trackindex>
						</sourcetrack>
						<link>
							<linkclipref>clipitem-747</linkclipref>
							<mediatype>audio</mediatype>
							<trackindex>8</trackindex>
							<clipindex>36</clipindex>
							<groupindex>1</groupindex>
						</link>
						<link>
							<linkclipref>clipitem-843</linkclipref>
							<mediatype>audio</mediatype>
							<trackindex>9</trackindex>
							<clipindex>36</clipindex>
							<groupindex>1</groupindex>
						</link>
						<logginginfo>
							<description></description>
							<scene></scene>
							<shottake></shottake>
							<lognote></lognote>
						</logginginfo>
						<labels>
							<label2>Iris</label2>
						</labels>
					</clipitem>
					<transitionitem>
						<start>23782</start>
						<end>23787</end>
						<alignment>end-black</alignment>
						<cutPointTicks>50803200000</cutPointTicks>
						<rate>
							<timebase>25</timebase>
							<ntsc>FALSE</ntsc>
						</rate>
						<effect>
							<name>Cross Fade (+3dB)</name>
							<effectid>KGAudioTransCrossFade3dB</effectid>
							<effecttype>transition</effecttype>
							<mediatype>audio</mediatype>
							<wipecode>0</wipecode>
							<wipeaccuracy>100</wipeaccuracy>
							<startratio>0</startratio>
							<endratio>1</endratio>
							<reverse>FALSE</reverse>
						</effect>
					</transitionitem>
					<clipitem id="clipitem-844" premiereChannelType="stereo">
						<masterclipid>masterclip-60</masterclipid>
						<name>AA275501.MXF</name>
						<enabled>TRUE</enabled>
						<duration>6756</duration>
						<rate>
							<timebase>25</timebase>
							<ntsc>FALSE</ntsc>
						</rate>
						<start>24017</start>
						<end>24241</end>
						<in>3886</in>
						<out>4110</out>
						<pproTicksIn>39484247040000</pproTicksIn>
						<pproTicksOut>41760230400000</pproTicksOut>
						<file id="file-60"/>
						<sourcetrack>
							<mediatype>audio</mediatype>
							<trackindex>2</trackindex>
						</sourcetrack>
						<link>
							<linkclipref>clipitem-748</linkclipref>
							<mediatype>audio</mediatype>
							<trackindex>8</trackindex>
							<clipindex>38</clipindex>
							<groupindex>1</groupindex>
						</link>
						<link>
							<linkclipref>clipitem-844</linkclipref>
							<mediatype>audio</mediatype>
							<trackindex>9</trackindex>
							<clipindex>38</clipindex>
							<groupindex>1</groupindex>
						</link>
						<link>
							<linkclipref>clipitem-939</linkclipref>
							<mediatype>audio</mediatype>
							<trackindex>10</trackindex>
							<clipindex>38</clipindex>
							<groupindex>1</groupindex>
						</link>
						<link>
							<linkclipref>clipitem-1079</linkclipref>
							<mediatype>audio</mediatype>
							<trackindex>11</trackindex>
							<clipindex>38</clipindex>
							<groupindex>1</groupindex>
						</link>
						<logginginfo>
							<description></description>
							<scene></scene>
							<shottake></shottake>
							<lognote></lognote>
						</logginginfo>
						<labels>
							<label2>Iris</label2>
						</labels>
					</clipitem>
					<clipitem id="clipitem-845" premiereChannelType="stereo">
						<masterclipid>masterclip-60</masterclipid>
						<name>AA275501.MXF</name>
						<enabled>TRUE</enabled>
						<duration>6756</duration>
						<rate>
							<timebase>25</timebase>
							<ntsc>FALSE</ntsc>
						</rate>
						<start>24241</start>
						<end>24558</end>
						<in>5924</in>
						<out>6241</out>
						<pproTicksIn>60191631360000</pproTicksIn>
						<pproTicksOut>63412554240000</pproTicksOut>
						<file id="file-60"/>
						<sourcetrack>
							<mediatype>audio</mediatype>
							<trackindex>2</trackindex>
						</sourcetrack>
						<link>
							<linkclipref>clipitem-749</linkclipref>
							<mediatype>audio</mediatype>
							<trackindex>8</trackindex>
							<clipindex>39</clipindex>
							<groupindex>1</groupindex>
						</link>
						<link>
							<linkclipref>clipitem-845</linkclipref>
							<mediatype>audio</mediatype>
							<trackindex>9</trackindex>
							<clipindex>39</clipindex>
							<groupindex>1</groupindex>
						</link>
						<logginginfo>
							<description></description>
							<scene></scene>
							<shottake></shottake>
							<lognote></lognote>
						</logginginfo>
						<labels>
							<label2>Iris</label2>
						</labels>
					</clipitem>
					<clipitem id="clipitem-846" premiereChannelType="stereo">
						<masterclipid>masterclip-61</masterclipid>
						<name>AA276001.MXF</name>
						<enabled>TRUE</enabled>
						<duration>1260</duration>
						<rate>
							<timebase>25</timebase>
							<ntsc>FALSE</ntsc>
						</rate>
						<start>24558</start>
						<end>24687</end>
						<in>460</in>
						<out>589</out>
						<pproTicksIn>4673894400000</pproTicksIn>
						<pproTicksOut>5984616960000</pproTicksOut>
						<file id="file-61"/>
						<sourcetrack>
							<mediatype>audio</mediatype>
							<trackindex>2</trackindex>
						</sourcetrack>
						<link>
							<linkclipref>clipitem-79</linkclipref>
							<mediatype>video</mediatype>
							<trackindex>1</trackindex>
							<clipindex>79</clipindex>
						</link>
						<link>
							<linkclipref>clipitem-750</linkclipref>
							<mediatype>audio</mediatype>
							<trackindex>8</trackindex>
							<clipindex>40</clipindex>
							<groupindex>1</groupindex>
						</link>
						<link>
							<linkclipref>clipitem-846</linkclipref>
							<mediatype>audio</mediatype>
							<trackindex>9</trackindex>
							<clipindex>40</clipindex>
							<groupindex>1</groupindex>
						</link>
						<link>
							<linkclipref>clipitem-941</linkclipref>
							<mediatype>audio</mediatype>
							<trackindex>10</trackindex>
							<clipindex>40</clipindex>
							<groupindex>1</groupindex>
						</link>
						<link>
							<linkclipref>clipitem-1081</linkclipref>
							<mediatype>audio</mediatype>
							<trackindex>11</trackindex>
							<clipindex>40</clipindex>
							<groupindex>1</groupindex>
						</link>
						<logginginfo>
							<description></description>
							<scene></scene>
							<shottake></shottake>
							<lognote></lognote>
						</logginginfo>
						<labels>
							<label2>Iris</label2>
						</labels>
					</clipitem>
					<clipitem id="clipitem-847" premiereChannelType="stereo">
						<masterclipid>masterclip-62</masterclipid>
						<name>AA276101.MXF</name>
						<enabled>TRUE</enabled>
						<duration>564</duration>
						<rate>
							<timebase>25</timebase>
							<ntsc>FALSE</ntsc>
						</rate>
						<start>24687</start>
						<end>24756</end>
						<in>99</in>
						<out>168</out>
						<pproTicksIn>1005903360000</pproTicksIn>
						<pproTicksOut>1706987520000</pproTicksOut>
						<file id="file-62"/>
						<sourcetrack>
							<mediatype>audio</mediatype>
							<trackindex>2</trackindex>
						</sourcetrack>
							<filter>
								<effect>
									<name>Audio Levels</name>
									<effectid>audiolevels</effectid>
									<effectcategory>audiolevels</effectcategory>
									<effecttype>audiolevels</effecttype>
									<mediatype>audio</mediatype>
									<parameter authoringApp="PremierePro">
										<parameterid>level</parameterid>
										<name>Level</name>
										<valuemin>0</valuemin>
										<valuemax>3.98109</valuemax>
										<value>0.106131</value>
									</parameter>
								</effect>
							</filter>
						<link>
							<linkclipref>clipitem-80</linkclipref>
							<mediatype>video</mediatype>
							<trackindex>1</trackindex>
							<clipindex>80</clipindex>
						</link>
						<link>
							<linkclipref>clipitem-751</linkclipref>
							<mediatype>audio</mediatype>
							<trackindex>8</trackindex>
							<clipindex>41</clipindex>
							<groupindex>1</groupindex>
						</link>
						<link>
							<linkclipref>clipitem-847</linkclipref>
							<mediatype>audio</mediatype>
							<trackindex>9</trackindex>
							<clipindex>41</clipindex>
							<groupindex>1</groupindex>
						</link>
						<link>
							<linkclipref>clipitem-942</linkclipref>
							<mediatype>audio</mediatype>
							<trackindex>10</trackindex>
							<clipindex>41</clipindex>
							<groupindex>1</groupindex>
						</link>
						<link>
							<linkclipref>clipitem-1082</linkclipref>
							<mediatype>audio</mediatype>
							<trackindex>11</trackindex>
							<clipindex>41</clipindex>
							<groupindex>1</groupindex>
						</link>
						<logginginfo>
							<description></description>
							<scene></scene>
							<shottake></shottake>
							<lognote></lognote>
						</logginginfo>
						<labels>
							<label2>Iris</label2>
						</labels>
					</clipitem>
					<clipitem id="clipitem-848" premiereChannelType="stereo">
						<masterclipid>masterclip-63</masterclipid>
						<name>AA277101.MXF</name>
						<enabled>TRUE</enabled>
						<duration>5604</duration>
						<rate>
							<timebase>25</timebase>
							<ntsc>FALSE</ntsc>
						</rate>
						<start>24756</start>
						<end>25306</end>
						<in>2324</in>
						<out>2874</out>
						<pproTicksIn>23613327360000</pproTicksIn>
						<pproTicksOut>29201679360000</pproTicksOut>
						<file id="file-63"/>
						<sourcetrack>
							<mediatype>audio</mediatype>
							<trackindex>2</trackindex>
						</sourcetrack>
						<link>
							<linkclipref>clipitem-81</linkclipref>
							<mediatype>video</mediatype>
							<trackindex>1</trackindex>
							<clipindex>81</clipindex>
						</link>
						<link>
							<linkclipref>clipitem-752</linkclipref>
							<mediatype>audio</mediatype>
							<trackindex>8</trackindex>
							<clipindex>42</clipindex>
							<groupindex>1</groupindex>
						</link>
						<link>
							<linkclipref>clipitem-848</linkclipref>
							<mediatype>audio</mediatype>
							<trackindex>9</trackindex>
							<clipindex>42</clipindex>
							<groupindex>1</groupindex>
						</link>
						<link>
							<linkclipref>clipitem-943</linkclipref>
							<mediatype>audio</mediatype>
							<trackindex>10</trackindex>
							<clipindex>42</clipindex>
							<groupindex>1</groupindex>
						</link>
						<link>
							<linkclipref>clipitem-1083</linkclipref>
							<mediatype>audio</mediatype>
							<trackindex>11</trackindex>
							<clipindex>42</clipindex>
							<groupindex>1</groupindex>
						</link>
						<logginginfo>
							<description></description>
							<scene></scene>
							<shottake></shottake>
							<lognote></lognote>
						</logginginfo>
						<labels>
							<label2>Iris</label2>
						</labels>
					</clipitem>
					<clipitem id="clipitem-849" premiereChannelType="stereo">
						<masterclipid>masterclip-63</masterclipid>
						<name>AA277101.MXF</name>
						<enabled>TRUE</enabled>
						<duration>5604</duration>
						<rate>
							<timebase>25</timebase>
							<ntsc>FALSE</ntsc>
						</rate>
						<start>25306</start>
						<end>25431</end>
						<in>2874</in>
						<out>2999</out>
						<pproTicksIn>29201679360000</pproTicksIn>
						<pproTicksOut>30471759360000</pproTicksOut>
						<file id="file-63"/>
						<sourcetrack>
							<mediatype>audio</mediatype>
							<trackindex>2</trackindex>
						</sourcetrack>
						<link>
							<linkclipref>clipitem-753</linkclipref>
							<mediatype>audio</mediatype>
							<trackindex>8</trackindex>
							<clipindex>43</clipindex>
							<groupindex>1</groupindex>
						</link>
						<link>
							<linkclipref>clipitem-849</linkclipref>
							<mediatype>audio</mediatype>
							<trackindex>9</trackindex>
							<clipindex>43</clipindex>
							<groupindex>1</groupindex>
						</link>
						<link>
							<linkclipref>clipitem-944</linkclipref>
							<mediatype>audio</mediatype>
							<trackindex>10</trackindex>
							<clipindex>43</clipindex>
							<groupindex>1</groupindex>
						</link>
						<link>
							<linkclipref>clipitem-1084</linkclipref>
							<mediatype>audio</mediatype>
							<trackindex>11</trackindex>
							<clipindex>43</clipindex>
							<groupindex>1</groupindex>
						</link>
						<logginginfo>
							<description></description>
							<scene></scene>
							<shottake></shottake>
							<lognote></lognote>
						</logginginfo>
						<labels>
							<label2>Iris</label2>
						</labels>
					</clipitem>
					<clipitem id="clipitem-850" premiereChannelType="stereo">
						<masterclipid>masterclip-63</masterclipid>
						<name>AA277101.MXF</name>
						<enabled>TRUE</enabled>
						<duration>5604</duration>
						<rate>
							<timebase>25</timebase>
							<ntsc>FALSE</ntsc>
						</rate>
						<start>25431</start>
						<end>26270</end>
						<in>2999</in>
						<out>3838</out>
						<pproTicksIn>30471759360000</pproTicksIn>
						<pproTicksOut>38996536320000</pproTicksOut>
						<file id="file-63"/>
						<sourcetrack>
							<mediatype>audio</mediatype>
							<trackindex>2</trackindex>
						</sourcetrack>
						<link>
							<linkclipref>clipitem-83</linkclipref>
							<mediatype>video</mediatype>
							<trackindex>1</trackindex>
							<clipindex>83</clipindex>
						</link>
						<link>
							<linkclipref>clipitem-754</linkclipref>
							<mediatype>audio</mediatype>
							<trackindex>8</trackindex>
							<clipindex>44</clipindex>
							<groupindex>1</groupindex>
						</link>
						<link>
							<linkclipref>clipitem-850</linkclipref>
							<mediatype>audio</mediatype>
							<trackindex>9</trackindex>
							<clipindex>44</clipindex>
							<groupindex>1</groupindex>
						</link>
						<link>
							<linkclipref>clipitem-945</linkclipref>
							<mediatype>audio</mediatype>
							<trackindex>10</trackindex>
							<clipindex>44</clipindex>
							<groupindex>1</groupindex>
						</link>
						<link>
							<linkclipref>clipitem-1085</linkclipref>
							<mediatype>audio</mediatype>
							<trackindex>11</trackindex>
							<clipindex>44</clipindex>
							<groupindex>1</groupindex>
						</link>
						<logginginfo>
							<description></description>
							<scene></scene>
							<shottake></shottake>
							<lognote></lognote>
						</logginginfo>
						<labels>
							<label2>Iris</label2>
						</labels>
					</clipitem>
					<clipitem id="clipitem-851" premiereChannelType="stereo">
						<masterclipid>masterclip-19</masterclipid>
						<name>20160515_184145.mp4</name>
						<enabled>TRUE</enabled>
						<duration>1485</duration>
						<rate>
							<timebase>25</timebase>
							<ntsc>FALSE</ntsc>
						</rate>
						<start>26270</start>
						<end>26436</end>
						<in>0</in>
						<out>166</out>
						<pproTicksIn>0</pproTicksIn>
						<pproTicksOut>1686666240000</pproTicksOut>
						<file id="file-19"/>
						<sourcetrack>
							<mediatype>audio</mediatype>
							<trackindex>2</trackindex>
						</sourcetrack>
							<filter>
								<effect>
									<name>Audio Levels</name>
									<effectid>audiolevels</effectid>
									<effectcategory>audiolevels</effectcategory>
									<effecttype>audiolevels</effecttype>
									<mediatype>audio</mediatype>
									<parameter authoringApp="PremierePro">
										<parameterid>level</parameterid>
										<name>Level</name>
										<valuemin>0</valuemin>
										<valuemax>3.98109</valuemax>
										<value>0.0636785</value>
									</parameter>
								</effect>
							</filter>
						<link>
							<linkclipref>clipitem-86</linkclipref>
							<mediatype>video</mediatype>
							<trackindex>1</trackindex>
							<clipindex>86</clipindex>
						</link>
						<link>
							<linkclipref>clipitem-755</linkclipref>
							<mediatype>audio</mediatype>
							<trackindex>8</trackindex>
							<clipindex>45</clipindex>
							<groupindex>1</groupindex>
						</link>
						<link>
							<linkclipref>clipitem-851</linkclipref>
							<mediatype>audio</mediatype>
							<trackindex>9</trackindex>
							<clipindex>45</clipindex>
							<groupindex>1</groupindex>
						</link>
						<logginginfo>
							<description></description>
							<scene></scene>
							<shottake></shottake>
							<lognote></lognote>
						</logginginfo>
						<labels>
							<label2>Iris</label2>
						</labels>
					</clipitem>
					<clipitem id="clipitem-852" premiereChannelType="stereo">
						<masterclipid>masterclip-315</masterclipid>
						<name>AA277201.MXF</name>
						<enabled>TRUE</enabled>
						<duration>1956</duration>
						<rate>
							<timebase>25</timebase>
							<ntsc>FALSE</ntsc>
						</rate>
						<start>26622</start>
						<end>26665</end>
						<in>680</in>
						<out>723</out>
						<pproTicksIn>6909235200000</pproTicksIn>
						<pproTicksOut>7346142720000</pproTicksOut>
						<file id="file-315"/>
						<sourcetrack>
							<mediatype>audio</mediatype>
							<trackindex>1</trackindex>
						</sourcetrack>
						<link>
							<linkclipref>clipitem-756</linkclipref>
							<mediatype>audio</mediatype>
							<trackindex>8</trackindex>
							<clipindex>46</clipindex>
							<groupindex>1</groupindex>
						</link>
						<link>
							<linkclipref>clipitem-852</linkclipref>
							<mediatype>audio</mediatype>
							<trackindex>9</trackindex>
							<clipindex>46</clipindex>
							<groupindex>1</groupindex>
						</link>
						<logginginfo>
							<description></description>
							<scene></scene>
							<shottake></shottake>
							<lognote></lognote>
						</logginginfo>
						<labels>
							<label2>Iris</label2>
						</labels>
					</clipitem>
					<clipitem id="clipitem-853" premiereChannelType="stereo">
						<masterclipid>masterclip-66</masterclipid>
						<name>AA277301.MXF</name>
						<enabled>TRUE</enabled>
						<duration>960</duration>
						<rate>
							<timebase>25</timebase>
							<ntsc>FALSE</ntsc>
						</rate>
						<start>26665</start>
						<end>27168</end>
						<in>371</in>
						<out>874</out>
						<pproTicksIn>3769597440000</pproTicksIn>
						<pproTicksOut>8880399360000</pproTicksOut>
						<file id="file-66"/>
						<sourcetrack>
							<mediatype>audio</mediatype>
							<trackindex>1</trackindex>
						</sourcetrack>
							<filter>
								<effect>
									<name>Audio Levels</name>
									<effectid>audiolevels</effectid>
									<effectcategory>audiolevels</effectcategory>
									<effecttype>audiolevels</effecttype>
									<mediatype>audio</mediatype>
									<parameter authoringApp="PremierePro">
										<parameterid>level</parameterid>
										<name>Level</name>
										<valuemin>0</valuemin>
										<valuemax>3.98109</valuemax>
										<value>0</value>
										<keyframe>
											<when>847</when>
											<value>0.99763</value>
										</keyframe>
										<keyframe>
											<when>854</when>
											<value>0</value>
										</keyframe>
									</parameter>
								</effect>
							</filter>
						<link>
							<linkclipref>clipitem-88</linkclipref>
							<mediatype>video</mediatype>
							<trackindex>1</trackindex>
							<clipindex>88</clipindex>
						</link>
						<link>
							<linkclipref>clipitem-757</linkclipref>
							<mediatype>audio</mediatype>
							<trackindex>8</trackindex>
							<clipindex>47</clipindex>
							<groupindex>1</groupindex>
						</link>
						<link>
							<linkclipref>clipitem-853</linkclipref>
							<mediatype>audio</mediatype>
							<trackindex>9</trackindex>
							<clipindex>47</clipindex>
							<groupindex>1</groupindex>
						</link>
						<logginginfo>
							<description></description>
							<scene></scene>
							<shottake></shottake>
							<lognote></lognote>
						</logginginfo>
						<labels>
							<label2>Iris</label2>
						</labels>
					</clipitem>
					<clipitem id="clipitem-854" premiereChannelType="stereo">
						<masterclipid>masterclip-70</masterclipid>
						<name>DVNA21000514BA_004.mxf</name>
						<enabled>TRUE</enabled>
						<duration>172</duration>
						<rate>
							<timebase>25</timebase>
							<ntsc>FALSE</ntsc>
						</rate>
						<start>27880</start>
						<end>27925</end>
						<in>14</in>
						<out>59</out>
						<pproTicksIn>142248960000</pproTicksIn>
						<pproTicksOut>599477760000</pproTicksOut>
						<file id="file-70"/>
						<sourcetrack>
							<mediatype>audio</mediatype>
							<trackindex>6</trackindex>
						</sourcetrack>
							<filter>
								<effect>
									<name>Audio Levels</name>
									<effectid>audiolevels</effectid>
									<effectcategory>audiolevels</effectcategory>
									<effecttype>audiolevels</effecttype>
									<mediatype>audio</mediatype>
									<parameter authoringApp="PremierePro">
										<parameterid>level</parameterid>
										<name>Level</name>
										<valuemin>0</valuemin>
										<valuemax>3.98109</valuemax>
										<value>0.99763</value>
										<keyframe>
											<when>14</when>
											<value>0</value>
										</keyframe>
										<keyframe>
											<when>22</when>
											<value>0.99763</value>
										</keyframe>
									</parameter>
								</effect>
							</filter>
						<link>
							<linkclipref>clipitem-758</linkclipref>
							<mediatype>audio</mediatype>
							<trackindex>8</trackindex>
							<clipindex>48</clipindex>
							<groupindex>1</groupindex>
						</link>
						<link>
							<linkclipref>clipitem-854</linkclipref>
							<mediatype>audio</mediatype>
							<trackindex>9</trackindex>
							<clipindex>48</clipindex>
							<groupindex>1</groupindex>
						</link>
						<logginginfo>
							<description></description>
							<scene></scene>
							<shottake></shottake>
							<lognote></lognote>
						</logginginfo>
						<labels>
							<label2>Iris</label2>
						</labels>
					</clipitem>
					<clipitem id="clipitem-855" premiereChannelType="stereo">
						<masterclipid>masterclip-67</masterclipid>
						<name>DVNA21000514BA</name>
						<enabled>TRUE</enabled>
						<duration>397</duration>
						<rate>
							<timebase>25</timebase>
							<ntsc>FALSE</ntsc>
						</rate>
						<start>27925</start>
						<end>28038</end>
						<in>284</in>
						<out>397</out>
						<pproTicksIn>2885621760000</pproTicksIn>
						<pproTicksOut>4033774080000</pproTicksOut>
						<file id="file-67"/>
						<sourcetrack>
							<mediatype>audio</mediatype>
							<trackindex>6</trackindex>
						</sourcetrack>
							<filter>
								<effect>
									<name>Audio Levels</name>
									<effectid>audiolevels</effectid>
									<effectcategory>audiolevels</effectcategory>
									<effecttype>audiolevels</effecttype>
									<mediatype>audio</mediatype>
									<parameter authoringApp="PremierePro">
										<parameterid>level</parameterid>
										<name>Level</name>
										<valuemin>0</valuemin>
										<valuemax>3.98109</valuemax>
										<value>0</value>
										<keyframe>
											<when>376</when>
											<value>0.99763</value>
										</keyframe>
										<keyframe>
											<when>393</when>
											<value>0</value>
										</keyframe>
									</parameter>
								</effect>
							</filter>
						<link>
							<linkclipref>clipitem-759</linkclipref>
							<mediatype>audio</mediatype>
							<trackindex>8</trackindex>
							<clipindex>49</clipindex>
							<groupindex>1</groupindex>
						</link>
						<link>
							<linkclipref>clipitem-855</linkclipref>
							<mediatype>audio</mediatype>
							<trackindex>9</trackindex>
							<clipindex>49</clipindex>
							<groupindex>1</groupindex>
						</link>
						<logginginfo>
							<description>Villmarkas voktere (5:8 @ Villmarkas voktere)</description>
							<scene></scene>
							<shottake></shottake>
							<lognote></lognote>
						</logginginfo>
						<labels>
							<label2>Iris</label2>
						</labels>
					</clipitem>
					<clipitem id="clipitem-856" premiereChannelType="stereo">
						<masterclipid>masterclip-73</masterclipid>
						<name>uin-seervideo-111116-h_p1</name>
						<enabled>TRUE</enabled>
						<duration>5247</duration>
						<rate>
							<timebase>25</timebase>
							<ntsc>FALSE</ntsc>
						</rate>
						<start>28489</start>
						<end>28608</end>
						<in>723</in>
						<out>842</out>
						<pproTicksIn>7346142720000</pproTicksIn>
						<pproTicksOut>8555258880000</pproTicksOut>
						<file id="file-73"/>
						<sourcetrack>
							<mediatype>audio</mediatype>
							<trackindex>2</trackindex>
						</sourcetrack>
							<filter>
								<effect>
									<name>Audio Levels</name>
									<effectid>audiolevels</effectid>
									<effectcategory>audiolevels</effectcategory>
									<effecttype>audiolevels</effecttype>
									<mediatype>audio</mediatype>
									<parameter authoringApp="PremierePro">
										<parameterid>level</parameterid>
										<name>Level</name>
										<valuemin>0</valuemin>
										<valuemax>3.98109</valuemax>
										<value>0.99763</value>
										<keyframe>
											<when>734</when>
											<value>0</value>
										</keyframe>
										<keyframe>
											<when>764</when>
											<value>0.99763</value>
										</keyframe>
									</parameter>
								</effect>
							</filter>
						<link>
							<linkclipref>clipitem-760</linkclipref>
							<mediatype>audio</mediatype>
							<trackindex>8</trackindex>
							<clipindex>50</clipindex>
							<groupindex>1</groupindex>
						</link>
						<link>
							<linkclipref>clipitem-856</linkclipref>
							<mediatype>audio</mediatype>
							<trackindex>9</trackindex>
							<clipindex>50</clipindex>
							<groupindex>1</groupindex>
						</link>
						<logginginfo>
							<description>DVNA60000116AA</description>
							<scene></scene>
							<shottake></shottake>
							<lognote></lognote>
						</logginginfo>
						<labels>
							<label2>Iris</label2>
						</labels>
					</clipitem>
					<clipitem id="clipitem-857" premiereChannelType="stereo">
						<masterclipid>masterclip-73</masterclipid>
						<name>uin-seervideo-111116-h_p1</name>
						<enabled>TRUE</enabled>
						<duration>5247</duration>
						<rate>
							<timebase>25</timebase>
							<ntsc>FALSE</ntsc>
						</rate>
						<start>28608</start>
						<end>-1</end>
						<in>991</in>
						<out>1092</out>
						<pproTicksIn>10069194240000</pproTicksIn>
						<pproTicksOut>11095418880000</pproTicksOut>
						<file id="file-73"/>
						<sourcetrack>
							<mediatype>audio</mediatype>
							<trackindex>6</trackindex>
						</sourcetrack>
						<link>
							<linkclipref>clipitem-761</linkclipref>
							<mediatype>audio</mediatype>
							<trackindex>8</trackindex>
							<clipindex>51</clipindex>
							<groupindex>1</groupindex>
						</link>
						<link>
							<linkclipref>clipitem-857</linkclipref>
							<mediatype>audio</mediatype>
							<trackindex>9</trackindex>
							<clipindex>51</clipindex>
							<groupindex>1</groupindex>
						</link>
						<logginginfo>
							<description>DVNA60000116AA</description>
							<scene></scene>
							<shottake></shottake>
							<lognote></lognote>
						</logginginfo>
						<labels>
							<label2>Iris</label2>
						</labels>
					</clipitem>
					<transitionitem>
						<start>28696</start>
						<end>28709</end>
						<alignment>center</alignment>
						<cutPointTicks>60963840000</cutPointTicks>
						<rate>
							<timebase>25</timebase>
							<ntsc>FALSE</ntsc>
						</rate>
						<effect>
							<name>Cross Fade (+3dB)</name>
							<effectid>KGAudioTransCrossFade3dB</effectid>
							<effecttype>transition</effecttype>
							<mediatype>audio</mediatype>
							<wipecode>0</wipecode>
							<wipeaccuracy>100</wipeaccuracy>
							<startratio>0</startratio>
							<endratio>1</endratio>
							<reverse>FALSE</reverse>
						</effect>
					</transitionitem>
					<clipitem id="clipitem-858" premiereChannelType="stereo">
						<masterclipid>masterclip-73</masterclipid>
						<name>uin-seervideo-111116-h_p1</name>
						<enabled>TRUE</enabled>
						<duration>5247</duration>
						<rate>
							<timebase>25</timebase>
							<ntsc>FALSE</ntsc>
						</rate>
						<start>-1</start>
						<end>28942</end>
						<in>1887</in>
						<out>2133</out>
						<pproTicksIn>19173127680000</pproTicksIn>
						<pproTicksOut>21672645120000</pproTicksOut>
						<file id="file-73"/>
						<sourcetrack>
							<mediatype>audio</mediatype>
							<trackindex>2</trackindex>
						</sourcetrack>
						<link>
							<linkclipref>clipitem-100</linkclipref>
							<mediatype>video</mediatype>
							<trackindex>1</trackindex>
							<clipindex>102</clipindex>
						</link>
						<link>
							<linkclipref>clipitem-762</linkclipref>
							<mediatype>audio</mediatype>
							<trackindex>8</trackindex>
							<clipindex>53</clipindex>
							<groupindex>1</groupindex>
						</link>
						<link>
							<linkclipref>clipitem-858</linkclipref>
							<mediatype>audio</mediatype>
							<trackindex>9</trackindex>
							<clipindex>53</clipindex>
							<groupindex>1</groupindex>
						</link>
						<logginginfo>
							<description>DVNA60000116AA</description>
							<scene></scene>
							<shottake></shottake>
							<lognote></lognote>
						</logginginfo>
						<labels>
							<label2>Iris</label2>
						</labels>
					</clipitem>
					<clipitem id="clipitem-859" premiereChannelType="stereo">
						<masterclipid>masterclip-73</masterclipid>
						<name>uin-seervideo-111116-h_p1</name>
						<enabled>TRUE</enabled>
						<duration>5247</duration>
						<rate>
							<timebase>25</timebase>
							<ntsc>FALSE</ntsc>
						</rate>
						<start>29052</start>
						<end>29106</end>
						<in>4106</in>
						<out>4160</out>
						<pproTicksIn>41719587840000</pproTicksIn>
						<pproTicksOut>42268262400000</pproTicksOut>
						<file id="file-73"/>
						<sourcetrack>
							<mediatype>audio</mediatype>
							<trackindex>2</trackindex>
						</sourcetrack>
						<link>
							<linkclipref>clipitem-763</linkclipref>
							<mediatype>audio</mediatype>
							<trackindex>8</trackindex>
							<clipindex>54</clipindex>
							<groupindex>1</groupindex>
						</link>
						<link>
							<linkclipref>clipitem-859</linkclipref>
							<mediatype>audio</mediatype>
							<trackindex>9</trackindex>
							<clipindex>54</clipindex>
							<groupindex>1</groupindex>
						</link>
						<logginginfo>
							<description>DVNA60000116AA</description>
							<scene></scene>
							<shottake></shottake>
							<lognote></lognote>
						</logginginfo>
						<labels>
							<label2>Iris</label2>
						</labels>
					</clipitem>
					<clipitem id="clipitem-860" premiereChannelType="stereo">
						<masterclipid>masterclip-73</masterclipid>
						<name>uin-seervideo-111116-h_p1</name>
						<enabled>TRUE</enabled>
						<duration>5247</duration>
						<rate>
							<timebase>25</timebase>
							<ntsc>FALSE</ntsc>
						</rate>
						<start>29106</start>
						<end>-1</end>
						<in>4200</in>
						<out>4266</out>
						<pproTicksIn>42674688000000</pproTicksIn>
						<pproTicksOut>43345290240000</pproTicksOut>
						<file id="file-73"/>
						<sourcetrack>
							<mediatype>audio</mediatype>
							<trackindex>2</trackindex>
						</sourcetrack>
						<link>
							<linkclipref>clipitem-764</linkclipref>
							<mediatype>audio</mediatype>
							<trackindex>8</trackindex>
							<clipindex>55</clipindex>
							<groupindex>1</groupindex>
						</link>
						<link>
							<linkclipref>clipitem-860</linkclipref>
							<mediatype>audio</mediatype>
							<trackindex>9</trackindex>
							<clipindex>55</clipindex>
							<groupindex>1</groupindex>
						</link>
						<logginginfo>
							<description>DVNA60000116AA</description>
							<scene></scene>
							<shottake></shottake>
							<lognote></lognote>
						</logginginfo>
						<labels>
							<label2>Iris</label2>
						</labels>
					</clipitem>
					<transitionitem>
						<start>29159</start>
						<end>29172</end>
						<alignment>end</alignment>
						<cutPointTicks>132088320000</cutPointTicks>
						<rate>
							<timebase>25</timebase>
							<ntsc>FALSE</ntsc>
						</rate>
						<effect>
							<name>Cross Fade (+3dB)</name>
							<effectid>KGAudioTransCrossFade3dB</effectid>
							<effecttype>transition</effecttype>
							<mediatype>audio</mediatype>
							<wipecode>0</wipecode>
							<wipeaccuracy>100</wipeaccuracy>
							<startratio>0</startratio>
							<endratio>1</endratio>
							<reverse>FALSE</reverse>
						</effect>
					</transitionitem>
					<clipitem id="clipitem-861" premiereChannelType="stereo">
						<masterclipid>masterclip-74</masterclipid>
						<name>eventyr-hel-041117-st</name>
						<enabled>TRUE</enabled>
						<duration>822</duration>
						<rate>
							<timebase>25</timebase>
							<ntsc>FALSE</ntsc>
						</rate>
						<start>-1</start>
						<end>29342</end>
						<in>4</in>
						<out>187</out>
						<pproTicksIn>40642560000</pproTicksIn>
						<pproTicksOut>1900039680000</pproTicksOut>
						<file id="file-74"/>
						<sourcetrack>
							<mediatype>audio</mediatype>
							<trackindex>2</trackindex>
						</sourcetrack>
						<link>
							<linkclipref>clipitem-104</linkclipref>
							<mediatype>video</mediatype>
							<trackindex>1</trackindex>
							<clipindex>107</clipindex>
						</link>
						<link>
							<linkclipref>clipitem-765</linkclipref>
							<mediatype>audio</mediatype>
							<trackindex>8</trackindex>
							<clipindex>57</clipindex>
							<groupindex>1</groupindex>
						</link>
						<link>
							<linkclipref>clipitem-861</linkclipref>
							<mediatype>audio</mediatype>
							<trackindex>9</trackindex>
							<clipindex>57</clipindex>
							<groupindex>1</groupindex>
						</link>
						<logginginfo>
							<description>eventyr-hel-041117-st</description>
							<scene></scene>
							<shottake></shottake>
							<lognote></lognote>
						</logginginfo>
						<labels>
							<label2>Iris</label2>
						</labels>
					</clipitem>
					<clipitem id="clipitem-862" premiereChannelType="stereo">
						<masterclipid>masterclip-74</masterclipid>
						<name>eventyr-hel-041117-st</name>
						<enabled>TRUE</enabled>
						<duration>822</duration>
						<rate>
							<timebase>25</timebase>
							<ntsc>FALSE</ntsc>
						</rate>
						<start>29342</start>
						<end>-1</end>
						<in>233</in>
						<out>570</out>
						<pproTicksIn>2367429120000</pproTicksIn>
						<pproTicksOut>5791564800000</pproTicksOut>
						<file id="file-74"/>
						<sourcetrack>
							<mediatype>audio</mediatype>
							<trackindex>2</trackindex>
						</sourcetrack>
						<link>
							<linkclipref>clipitem-105</linkclipref>
							<mediatype>video</mediatype>
							<trackindex>1</trackindex>
							<clipindex>108</clipindex>
						</link>
						<link>
							<linkclipref>clipitem-766</linkclipref>
							<mediatype>audio</mediatype>
							<trackindex>8</trackindex>
							<clipindex>58</clipindex>
							<groupindex>1</groupindex>
						</link>
						<link>
							<linkclipref>clipitem-862</linkclipref>
							<mediatype>audio</mediatype>
							<trackindex>9</trackindex>
							<clipindex>58</clipindex>
							<groupindex>1</groupindex>
						</link>
						<logginginfo>
							<description>eventyr-hel-041117-st</description>
							<scene></scene>
							<shottake></shottake>
							<lognote></lognote>
						</logginginfo>
						<labels>
							<label2>Iris</label2>
						</labels>
					</clipitem>
					<transitionitem>
						<start>29666</start>
						<end>29679</end>
						<alignment>center</alignment>
						<cutPointTicks>60963840000</cutPointTicks>
						<rate>
							<timebase>25</timebase>
							<ntsc>FALSE</ntsc>
						</rate>
						<effect>
							<name>Cross Fade (+3dB)</name>
							<effectid>KGAudioTransCrossFade3dB</effectid>
							<effecttype>transition</effecttype>
							<mediatype>audio</mediatype>
							<wipecode>0</wipecode>
							<wipeaccuracy>100</wipeaccuracy>
							<startratio>0</startratio>
							<endratio>1</endratio>
							<reverse>FALSE</reverse>
						</effect>
					</transitionitem>
					<clipitem id="clipitem-863" premiereChannelType="stereo">
						<masterclipid>masterclip-75</masterclipid>
						<name>naturligvis-111116-ho_p0</name>
						<enabled>TRUE</enabled>
						<duration>5914</duration>
						<rate>
							<timebase>25</timebase>
							<ntsc>FALSE</ntsc>
						</rate>
						<start>-1</start>
						<end>29920</end>
						<in>47</in>
						<out>301</out>
						<pproTicksIn>477550080000</pproTicksIn>
						<pproTicksOut>3058352640000</pproTicksOut>
						<file id="file-75"/>
						<sourcetrack>
							<mediatype>audio</mediatype>
							<trackindex>2</trackindex>
						</sourcetrack>
						<link>
							<linkclipref>clipitem-106</linkclipref>
							<mediatype>video</mediatype>
							<trackindex>1</trackindex>
							<clipindex>110</clipindex>
						</link>
						<link>
							<linkclipref>clipitem-767</linkclipref>
							<mediatype>audio</mediatype>
							<trackindex>8</trackindex>
							<clipindex>60</clipindex>
							<groupindex>1</groupindex>
						</link>
						<link>
							<linkclipref>clipitem-863</linkclipref>
							<mediatype>audio</mediatype>
							<trackindex>9</trackindex>
							<clipindex>60</clipindex>
							<groupindex>1</groupindex>
						</link>
						<logginginfo>
							<description>DVNA21001615AA</description>
							<scene></scene>
							<shottake></shottake>
							<lognote></lognote>
						</logginginfo>
						<labels>
							<label2>Iris</label2>
						</labels>
					</clipitem>
					<clipitem id="clipitem-864" premiereChannelType="stereo">
						<masterclipid>masterclip-75</masterclipid>
						<name>naturligvis-111116-ho_p0</name>
						<enabled>TRUE</enabled>
						<duration>5914</duration>
						<rate>
							<timebase>25</timebase>
							<ntsc>FALSE</ntsc>
						</rate>
						<start>29920</start>
						<end>30244</end>
						<in>531</in>
						<out>855</out>
						<pproTicksIn>5395299840000</pproTicksIn>
						<pproTicksOut>8687347200000</pproTicksOut>
						<file id="file-75"/>
						<sourcetrack>
							<mediatype>audio</mediatype>
							<trackindex>2</trackindex>
						</sourcetrack>
						<link>
							<linkclipref>clipitem-107</linkclipref>
							<mediatype>video</mediatype>
							<trackindex>1</trackindex>
							<clipindex>111</clipindex>
						</link>
						<link>
							<linkclipref>clipitem-768</linkclipref>
							<mediatype>audio</mediatype>
							<trackindex>8</trackindex>
							<clipindex>61</clipindex>
							<groupindex>1</groupindex>
						</link>
						<link>
							<linkclipref>clipitem-864</linkclipref>
							<mediatype>audio</mediatype>
							<trackindex>9</trackindex>
							<clipindex>61</clipindex>
							<groupindex>1</groupindex>
						</link>
						<logginginfo>
							<description>DVNA21001615AA</description>
							<scene></scene>
							<shottake></shottake>
							<lognote></lognote>
						</logginginfo>
						<labels>
							<label2>Iris</label2>
						</labels>
					</clipitem>
					<clipitem id="clipitem-865" premiereChannelType="stereo">
						<masterclipid>masterclip-75</masterclipid>
						<name>naturligvis-111116-ho_p0</name>
						<enabled>TRUE</enabled>
						<duration>5914</duration>
						<rate>
							<timebase>25</timebase>
							<ntsc>FALSE</ntsc>
						</rate>
						<start>30244</start>
						<end>30418</end>
						<in>2466</in>
						<out>2640</out>
						<pproTicksIn>25056138240000</pproTicksIn>
						<pproTicksOut>26824089600000</pproTicksOut>
						<file id="file-75"/>
						<sourcetrack>
							<mediatype>audio</mediatype>
							<trackindex>2</trackindex>
						</sourcetrack>
						<link>
							<linkclipref>clipitem-108</linkclipref>
							<mediatype>video</mediatype>
							<trackindex>1</trackindex>
							<clipindex>112</clipindex>
						</link>
						<link>
							<linkclipref>clipitem-769</linkclipref>
							<mediatype>audio</mediatype>
							<trackindex>8</trackindex>
							<clipindex>62</clipindex>
							<groupindex>1</groupindex>
						</link>
						<link>
							<linkclipref>clipitem-865</linkclipref>
							<mediatype>audio</mediatype>
							<trackindex>9</trackindex>
							<clipindex>62</clipindex>
							<groupindex>1</groupindex>
						</link>
						<logginginfo>
							<description>DVNA21001615AA</description>
							<scene></scene>
							<shottake></shottake>
							<lognote></lognote>
						</logginginfo>
						<labels>
							<label2>Iris</label2>
						</labels>
					</clipitem>
					<clipitem id="clipitem-866" premiereChannelType="stereo">
						<masterclipid>masterclip-76</masterclipid>
						<name>DVNA21002015AA</name>
						<enabled>TRUE</enabled>
						<duration>58716</duration>
						<rate>
							<timebase>25</timebase>
							<ntsc>FALSE</ntsc>
						</rate>
						<start>30418</start>
						<end>30961</end>
						<in>25431</in>
						<out>25974</out>
						<pproTicksIn>258395235840000</pproTicksIn>
						<pproTicksOut>263912463360000</pproTicksOut>
						<file id="file-76"/>
						<sourcetrack>
							<mediatype>audio</mediatype>
							<trackindex>2</trackindex>
						</sourcetrack>
							<filter>
								<effect>
									<name>Audio Levels</name>
									<effectid>audiolevels</effectid>
									<effectcategory>audiolevels</effectcategory>
									<effecttype>audiolevels</effecttype>
									<mediatype>audio</mediatype>
									<parameter authoringApp="PremierePro">
										<parameterid>level</parameterid>
										<name>Level</name>
										<valuemin>0</valuemin>
										<valuemax>3.98109</valuemax>
										<value>0.99763</value>
										<keyframe>
											<when>25947</when>
											<value>0.99763</value>
										</keyframe>
										<keyframe>
											<when>25963</when>
											<value>0</value>
										</keyframe>
									</parameter>
								</effect>
							</filter>
						<link>
							<linkclipref>clipitem-770</linkclipref>
							<mediatype>audio</mediatype>
							<trackindex>8</trackindex>
							<clipindex>63</clipindex>
							<groupindex>1</groupindex>
						</link>
						<link>
							<linkclipref>clipitem-866</linkclipref>
							<mediatype>audio</mediatype>
							<trackindex>9</trackindex>
							<clipindex>63</clipindex>
							<groupindex>1</groupindex>
						</link>
						<logginginfo>
							<description>Ut i naturen - Sanser (2:6 @ Ut i naturen)</description>
							<scene></scene>
							<shottake></shottake>
							<lognote></lognote>
						</logginginfo>
						<labels>
							<label2>Iris</label2>
						</labels>
					</clipitem>
					<transitionitem>
						<start>33532</start>
						<end>33534</end>
						<alignment>start-black</alignment>
						<cutPointTicks>0</cutPointTicks>
						<rate>
							<timebase>25</timebase>
							<ntsc>FALSE</ntsc>
						</rate>
						<effect>
							<name>Cross Fade (+3dB)</name>
							<effectid>KGAudioTransCrossFade3dB</effectid>
							<effecttype>transition</effecttype>
							<mediatype>audio</mediatype>
							<wipecode>0</wipecode>
							<wipeaccuracy>100</wipeaccuracy>
							<startratio>0</startratio>
							<endratio>1</endratio>
							<reverse>FALSE</reverse>
						</effect>
					</transitionitem>
					<clipitem id="clipitem-867" premiereChannelType="stereo">
						<masterclipid>masterclip-87</masterclipid>
						<name>HM-HELAFTEN</name>
						<enabled>TRUE</enabled>
						<duration>1424</duration>
						<rate>
							<timebase>25</timebase>
							<ntsc>FALSE</ntsc>
						</rate>
						<start>-1</start>
						<end>34476</end>
						<in>0</in>
						<out>944</out>
						<pproTicksIn>0</pproTicksIn>
						<pproTicksOut>9591644160000</pproTicksOut>
						<file id="file-87"/>
						<sourcetrack>
							<mediatype>audio</mediatype>
							<trackindex>2</trackindex>
						</sourcetrack>
							<filter>
								<effect>
									<name>Audio Levels</name>
									<effectid>audiolevels</effectid>
									<effectcategory>audiolevels</effectcategory>
									<effecttype>audiolevels</effecttype>
									<mediatype>audio</mediatype>
									<parameter authoringApp="PremierePro">
										<parameterid>level</parameterid>
										<name>Level</name>
										<valuemin>0</valuemin>
										<valuemax>3.98109</valuemax>
										<value>0</value>
										<keyframe>
											<when>857</when>
											<value>0.99763</value>
										</keyframe>
										<keyframe>
											<when>943</when>
											<value>0</value>
										</keyframe>
									</parameter>
								</effect>
							</filter>
						<link>
							<linkclipref>clipitem-126</linkclipref>
							<mediatype>video</mediatype>
							<trackindex>1</trackindex>
							<clipindex>134</clipindex>
						</link>
						<link>
							<linkclipref>clipitem-771</linkclipref>
							<mediatype>audio</mediatype>
							<trackindex>8</trackindex>
							<clipindex>65</clipindex>
							<groupindex>1</groupindex>
						</link>
						<link>
							<linkclipref>clipitem-867</linkclipref>
							<mediatype>audio</mediatype>
							<trackindex>9</trackindex>
							<clipindex>65</clipindex>
							<groupindex>1</groupindex>
						</link>
						<logginginfo>
							<description>HM-HELAFTEN</description>
							<scene></scene>
							<shottake></shottake>
							<lognote></lognote>
						</logginginfo>
						<labels>
							<label2>Iris</label2>
						</labels>
					</clipitem>
					<clipitem id="clipitem-868" premiereChannelType="stereo">
						<masterclipid>masterclip-316</masterclipid>
						<name>Nordvisjon-MASTER-vr3-201016-ny-kontentum.wav</name>
						<enabled>TRUE</enabled>
						<duration>43013</duration>
						<rate>
							<timebase>25</timebase>
							<ntsc>FALSE</ntsc>
						</rate>
						<start>35955</start>
						<end>36786</end>
						<in>740</in>
						<out>1571</out>
						<pproTicksIn>7518873600000</pproTicksIn>
						<pproTicksOut>15962365440000</pproTicksOut>
						<file id="file-316"/>
						<sourcetrack>
							<mediatype>audio</mediatype>
							<trackindex>2</trackindex>
						</sourcetrack>
							<filter>
								<effect>
									<name>Audio Levels</name>
									<effectid>audiolevels</effectid>
									<effectcategory>audiolevels</effectcategory>
									<effecttype>audiolevels</effecttype>
									<mediatype>audio</mediatype>
									<parameter authoringApp="PremierePro">
										<parameterid>level</parameterid>
										<name>Level</name>
										<valuemin>0</valuemin>
										<valuemax>3.98109</valuemax>
										<value>0.258645</value>
										<keyframe>
											<when>1196</when>
											<value>0.598264</value>
										</keyframe>
										<keyframe>
											<when>1227</when>
											<value>0.199212</value>
										</keyframe>
										<keyframe>
											<when>1454</when>
											<value>0.298975</value>
										</keyframe>
										<keyframe>
											<when>1562</when>
											<value>0</value>
										</keyframe>
										<keyframe>
											<when>1577</when>
											<value>0</value>
										</keyframe>
										<keyframe>
											<when>1593</when>
											<value>0</value>
										</keyframe>
										<keyframe>
											<when>1614</when>
											<value>0</value>
										</keyframe>
										<keyframe>
											<when>1626</when>
											<value>0.258645</value>
										</keyframe>
										<keyframe>
											<when>2051</when>
											<value>0.332543</value>
										</keyframe>
										<keyframe>
											<when>2174</when>
											<value>0.131288</value>
										</keyframe>
										<keyframe>
											<when>2368</when>
											<value>0.131288</value>
										</keyframe>
										<keyframe>
											<when>2411</when>
											<value>0.428454</value>
										</keyframe>
										<keyframe>
											<when>2624</when>
											<value>0.386002</value>
										</keyframe>
										<keyframe>
											<when>2675</when>
											<value>0.258645</value>
										</keyframe>
									</parameter>
								</effect>
							</filter>
							<marker>
								<comment></comment>
								<name></name>
								<in>40399</in>
								<out>-1</out>
							</marker>
							<marker>
								<comment></comment>
								<name></name>
								<in>3092</in>
								<out>-1</out>
							</marker>
							<marker>
								<comment></comment>
								<name></name>
								<in>36054</in>
								<out>-1</out>
							</marker>
							<marker>
								<comment></comment>
								<name></name>
								<in>0</in>
								<out>-1</out>
							</marker>
						<link>
							<linkclipref>clipitem-773</linkclipref>
							<mediatype>audio</mediatype>
							<trackindex>8</trackindex>
							<clipindex>67</clipindex>
							<groupindex>1</groupindex>
						</link>
						<link>
							<linkclipref>clipitem-868</linkclipref>
							<mediatype>audio</mediatype>
							<trackindex>9</trackindex>
							<clipindex>66</clipindex>
							<groupindex>1</groupindex>
						</link>
						<logginginfo>
							<description></description>
							<scene></scene>
							<shottake></shottake>
							<lognote></lognote>
						</logginginfo>
						<labels>
							<label2>Iris</label2>
						</labels>
					</clipitem>
					<clipitem id="clipitem-869" premiereChannelType="stereo">
						<masterclipid>masterclip-98</masterclipid>
						<name>DVNA60000316AA</name>
						<enabled>TRUE</enabled>
						<duration>58641</duration>
						<rate>
							<timebase>25</timebase>
							<ntsc>FALSE</ntsc>
						</rate>
						<start>36975</start>
						<end>37222</end>
						<in>15193</in>
						<out>15440</out>
						<pproTicksIn>154370603520000</pproTicksIn>
						<pproTicksOut>156880281600000</pproTicksOut>
						<file id="file-98"/>
						<sourcetrack>
							<mediatype>audio</mediatype>
							<trackindex>2</trackindex>
						</sourcetrack>
							<filter>
								<effect>
									<name>Audio Levels</name>
									<effectid>audiolevels</effectid>
									<effectcategory>audiolevels</effectcategory>
									<effecttype>audiolevels</effecttype>
									<mediatype>audio</mediatype>
									<parameter authoringApp="PremierePro">
										<parameterid>level</parameterid>
										<name>Level</name>
										<valuemin>0</valuemin>
										<valuemax>3.98109</valuemax>
										<value>0.99763</value>
										<keyframe>
											<when>15297</when>
											<value>1.50706</value>
										</keyframe>
										<keyframe>
											<when>15319</when>
											<value>0.99763</value>
										</keyframe>
									</parameter>
								</effect>
							</filter>
						<link>
							<linkclipref>clipitem-139</linkclipref>
							<mediatype>video</mediatype>
							<trackindex>1</trackindex>
							<clipindex>148</clipindex>
						</link>
						<link>
							<linkclipref>clipitem-774</linkclipref>
							<mediatype>audio</mediatype>
							<trackindex>8</trackindex>
							<clipindex>68</clipindex>
							<groupindex>1</groupindex>
						</link>
						<link>
							<linkclipref>clipitem-869</linkclipref>
							<mediatype>audio</mediatype>
							<trackindex>9</trackindex>
							<clipindex>67</clipindex>
							<groupindex>1</groupindex>
						</link>
						<logginginfo>
							<description>Ut i naturen - Hornøya</description>
							<scene></scene>
							<shottake></shottake>
							<lognote></lognote>
						</logginginfo>
						<labels>
							<label2>Iris</label2>
						</labels>
					</clipitem>
					<clipitem id="clipitem-870" premiereChannelType="stereo">
						<masterclipid>masterclip-98</masterclipid>
						<name>DVNA60000316AA</name>
						<enabled>TRUE</enabled>
						<duration>58641</duration>
						<rate>
							<timebase>25</timebase>
							<ntsc>FALSE</ntsc>
						</rate>
						<start>37222</start>
						<end>-1</end>
						<in>15440</in>
						<out>15592</out>
						<pproTicksIn>156880281600000</pproTicksIn>
						<pproTicksOut>158424698880000</pproTicksOut>
						<file id="file-98"/>
						<sourcetrack>
							<mediatype>audio</mediatype>
							<trackindex>2</trackindex>
						</sourcetrack>
						<link>
							<linkclipref>clipitem-775</linkclipref>
							<mediatype>audio</mediatype>
							<trackindex>8</trackindex>
							<clipindex>69</clipindex>
							<groupindex>1</groupindex>
						</link>
						<link>
							<linkclipref>clipitem-870</linkclipref>
							<mediatype>audio</mediatype>
							<trackindex>9</trackindex>
							<clipindex>68</clipindex>
							<groupindex>1</groupindex>
						</link>
						<logginginfo>
							<description>Ut i naturen - Hornøya</description>
							<scene></scene>
							<shottake></shottake>
							<lognote></lognote>
						</logginginfo>
						<labels>
							<label2>Iris</label2>
						</labels>
					</clipitem>
					<transitionitem>
						<start>37361</start>
						<end>37374</end>
						<alignment>center</alignment>
						<cutPointTicks>60963840000</cutPointTicks>
						<rate>
							<timebase>25</timebase>
							<ntsc>FALSE</ntsc>
						</rate>
						<effect>
							<name>Cross Fade (+3dB)</name>
							<effectid>KGAudioTransCrossFade3dB</effectid>
							<effecttype>transition</effecttype>
							<mediatype>audio</mediatype>
							<wipecode>0</wipecode>
							<wipeaccuracy>100</wipeaccuracy>
							<startratio>0</startratio>
							<endratio>1</endratio>
							<reverse>FALSE</reverse>
						</effect>
					</transitionitem>
					<clipitem id="clipitem-871" premiereChannelType="stereo">
						<masterclipid>masterclip-98</masterclipid>
						<name>DVNA60000316AA</name>
						<enabled>TRUE</enabled>
						<duration>58641</duration>
						<rate>
							<timebase>25</timebase>
							<ntsc>FALSE</ntsc>
						</rate>
						<start>-1</start>
						<end>37415</end>
						<in>15424</in>
						<out>15478</out>
						<pproTicksIn>156717711360000</pproTicksIn>
						<pproTicksOut>157266385920000</pproTicksOut>
						<file id="file-98"/>
						<sourcetrack>
							<mediatype>audio</mediatype>
							<trackindex>2</trackindex>
						</sourcetrack>
							<filter>
								<effect>
									<name>Audio Levels</name>
									<effectid>audiolevels</effectid>
									<effectcategory>audiolevels</effectcategory>
									<effecttype>audiolevels</effecttype>
									<mediatype>audio</mediatype>
									<parameter authoringApp="PremierePro">
										<parameterid>level</parameterid>
										<name>Level</name>
										<valuemin>0</valuemin>
										<valuemax>3.98109</valuemax>
										<value>0</value>
										<keyframe>
											<when>15455</when>
											<value>0.99763</value>
										</keyframe>
										<keyframe>
											<when>15474</when>
											<value>0</value>
										</keyframe>
									</parameter>
								</effect>
							</filter>
						<link>
							<linkclipref>clipitem-776</linkclipref>
							<mediatype>audio</mediatype>
							<trackindex>8</trackindex>
							<clipindex>71</clipindex>
							<groupindex>1</groupindex>
						</link>
						<link>
							<linkclipref>clipitem-871</linkclipref>
							<mediatype>audio</mediatype>
							<trackindex>9</trackindex>
							<clipindex>70</clipindex>
							<groupindex>1</groupindex>
						</link>
						<logginginfo>
							<description>Ut i naturen - Hornøya</description>
							<scene></scene>
							<shottake></shottake>
							<lognote></lognote>
						</logginginfo>
						<labels>
							<label2>Iris</label2>
						</labels>
					</clipitem>
					<clipitem id="clipitem-872" premiereChannelType="stereo">
						<masterclipid>masterclip-102</masterclipid>
						<name>NRK2-180616.mxf</name>
						<enabled>TRUE</enabled>
						<duration>183000</duration>
						<rate>
							<timebase>25</timebase>
							<ntsc>FALSE</ntsc>
						</rate>
						<start>37582</start>
						<end>37685</end>
						<in>23144</in>
						<out>23247</out>
						<pproTicksIn>235157852160000</pproTicksIn>
						<pproTicksOut>236204398080000</pproTicksOut>
						<file id="file-102"/>
						<sourcetrack>
							<mediatype>audio</mediatype>
							<trackindex>4</trackindex>
						</sourcetrack>
						<link>
							<linkclipref>clipitem-143</linkclipref>
							<mediatype>video</mediatype>
							<trackindex>1</trackindex>
							<clipindex>152</clipindex>
						</link>
						<link>
							<linkclipref>clipitem-777</linkclipref>
							<mediatype>audio</mediatype>
							<trackindex>8</trackindex>
							<clipindex>72</clipindex>
							<groupindex>1</groupindex>
						</link>
						<link>
							<linkclipref>clipitem-872</linkclipref>
							<mediatype>audio</mediatype>
							<trackindex>9</trackindex>
							<clipindex>71</clipindex>
							<groupindex>1</groupindex>
						</link>
						<logginginfo>
							<description>Program 5</description>
							<scene></scene>
							<shottake></shottake>
							<lognote></lognote>
						</logginginfo>
						<labels>
							<label2>Iris</label2>
						</labels>
					</clipitem>
					<clipitem id="clipitem-873" premiereChannelType="stereo">
						<masterclipid>masterclip-103</masterclipid>
						<name>DVNA25000116AU.mxf</name>
						<enabled>TRUE</enabled>
						<duration>192000</duration>
						<rate>
							<timebase>25</timebase>
							<ntsc>FALSE</ntsc>
						</rate>
						<start>37724</start>
						<end>37788</end>
						<in>66194</in>
						<out>66258</out>
						<pproTicksIn>672573404160000</pproTicksIn>
						<pproTicksOut>673223685120000</pproTicksOut>
						<file id="file-103"/>
						<sourcetrack>
							<mediatype>audio</mediatype>
							<trackindex>4</trackindex>
						</sourcetrack>
						<link>
							<linkclipref>clipitem-144</linkclipref>
							<mediatype>video</mediatype>
							<trackindex>1</trackindex>
							<clipindex>153</clipindex>
						</link>
						<link>
							<linkclipref>clipitem-778</linkclipref>
							<mediatype>audio</mediatype>
							<trackindex>8</trackindex>
							<clipindex>73</clipindex>
							<groupindex>1</groupindex>
						</link>
						<link>
							<linkclipref>clipitem-873</linkclipref>
							<mediatype>audio</mediatype>
							<trackindex>9</trackindex>
							<clipindex>72</clipindex>
							<groupindex>1</groupindex>
						</link>
						<logginginfo>
							<description>Program 1</description>
							<scene></scene>
							<shottake></shottake>
							<lognote></lognote>
						</logginginfo>
						<labels>
							<label2>Iris</label2>
						</labels>
					</clipitem>
					<clipitem id="clipitem-874" premiereChannelType="stereo">
						<masterclipid>masterclip-12</masterclipid>
						<name>NRK2-300616 (1).mxf</name>
						<enabled>TRUE</enabled>
						<duration>183000</duration>
						<rate>
							<timebase>25</timebase>
							<ntsc>FALSE</ntsc>
						</rate>
						<start>37788</start>
						<end>-1</end>
						<in>76345</in>
						<out>76482</out>
						<pproTicksIn>775714060800000</pproTicksIn>
						<pproTicksOut>777106068480000</pproTicksOut>
						<file id="file-12"/>
						<sourcetrack>
							<mediatype>audio</mediatype>
							<trackindex>4</trackindex>
						</sourcetrack>
						<link>
							<linkclipref>clipitem-779</linkclipref>
							<mediatype>audio</mediatype>
							<trackindex>8</trackindex>
							<clipindex>74</clipindex>
							<groupindex>1</groupindex>
						</link>
						<link>
							<linkclipref>clipitem-874</linkclipref>
							<mediatype>audio</mediatype>
							<trackindex>9</trackindex>
							<clipindex>73</clipindex>
							<groupindex>1</groupindex>
						</link>
						<logginginfo>
							<description>Program 13</description>
							<scene></scene>
							<shottake></shottake>
							<lognote></lognote>
						</logginginfo>
						<labels>
							<label2>Iris</label2>
						</labels>
					</clipitem>
					<transitionitem>
						<start>37912</start>
						<end>37925</end>
						<alignment>center</alignment>
						<cutPointTicks>60963840000</cutPointTicks>
						<rate>
							<timebase>25</timebase>
							<ntsc>FALSE</ntsc>
						</rate>
						<effect>
							<name>Cross Fade (+3dB)</name>
							<effectid>KGAudioTransCrossFade3dB</effectid>
							<effecttype>transition</effecttype>
							<mediatype>audio</mediatype>
							<wipecode>0</wipecode>
							<wipeaccuracy>100</wipeaccuracy>
							<startratio>0</startratio>
							<endratio>1</endratio>
							<reverse>FALSE</reverse>
						</effect>
					</transitionitem>
					<clipitem id="clipitem-875" premiereChannelType="stereo">
						<masterclipid>masterclip-202</masterclipid>
						<name>00066.MTS</name>
						<enabled>TRUE</enabled>
						<duration>819</duration>
						<rate>
							<timebase>25</timebase>
							<ntsc>FALSE</ntsc>
						</rate>
						<start>38324</start>
						<end>38564</end>
						<in>446</in>
						<out>686</out>
						<pproTicksIn>4531645440000</pproTicksIn>
						<pproTicksOut>6970199040000</pproTicksOut>
						<file id="file-202"/>
						<sourcetrack>
							<mediatype>audio</mediatype>
							<trackindex>2</trackindex>
						</sourcetrack>
							<filter>
								<effect>
									<name>Audio Levels</name>
									<effectid>audiolevels</effectid>
									<effectcategory>audiolevels</effectcategory>
									<effecttype>audiolevels</effecttype>
									<mediatype>audio</mediatype>
									<parameter authoringApp="PremierePro">
										<parameterid>level</parameterid>
										<name>Level</name>
										<valuemin>0</valuemin>
										<valuemax>3.98109</valuemax>
										<value>0</value>
										<keyframe>
											<when>396</when>
											<value>0</value>
										</keyframe>
										<keyframe>
											<when>437</when>
											<value>0.318393</value>
										</keyframe>
										<keyframe>
											<when>524</when>
											<value>0.318393</value>
										</keyframe>
										<keyframe>
											<when>541</when>
											<value>0.658011</value>
										</keyframe>
										<keyframe>
											<when>631</when>
											<value>0.658011</value>
										</keyframe>
										<keyframe>
											<when>653</when>
											<value>0</value>
										</keyframe>
									</parameter>
								</effect>
							</filter>
						<link>
							<linkclipref>clipitem-327</linkclipref>
							<mediatype>video</mediatype>
							<trackindex>2</trackindex>
							<clipindex>71</clipindex>
						</link>
						<link>
							<linkclipref>clipitem-781</linkclipref>
							<mediatype>audio</mediatype>
							<trackindex>8</trackindex>
							<clipindex>77</clipindex>
							<groupindex>1</groupindex>
						</link>
						<link>
							<linkclipref>clipitem-875</linkclipref>
							<mediatype>audio</mediatype>
							<trackindex>9</trackindex>
							<clipindex>75</clipindex>
							<groupindex>1</groupindex>
						</link>
						<logginginfo>
							<description></description>
							<scene></scene>
							<shottake></shottake>
							<lognote></lognote>
						</logginginfo>
						<labels>
							<label2>Iris</label2>
						</labels>
					</clipitem>
					<clipitem id="clipitem-876" premiereChannelType="stereo">
						<masterclipid>masterclip-205</masterclipid>
						<name>NRK1-210616.mxf</name>
						<enabled>TRUE</enabled>
						<duration>81914</duration>
						<rate>
							<timebase>25</timebase>
							<ntsc>FALSE</ntsc>
						</rate>
						<start>38736</start>
						<end>39010</end>
						<in>1256</in>
						<out>1530</out>
						<pproTicksIn>12761763840000</pproTicksIn>
						<pproTicksOut>15545779200000</pproTicksOut>
						<file id="file-205"/>
						<sourcetrack>
							<mediatype>audio</mediatype>
							<trackindex>2</trackindex>
						</sourcetrack>
							<filter>
								<effect>
									<name>Audio Levels</name>
									<effectid>audiolevels</effectid>
									<effectcategory>audiolevels</effectcategory>
									<effecttype>audiolevels</effecttype>
									<mediatype>audio</mediatype>
									<parameter authoringApp="PremierePro">
										<parameterid>level</parameterid>
										<name>Level</name>
										<valuemin>0</valuemin>
										<valuemax>3.98109</valuemax>
										<value>0</value>
										<keyframe>
											<when>1262</when>
											<value>0</value>
										</keyframe>
										<keyframe>
											<when>1328</when>
											<value>0.976404</value>
										</keyframe>
										<keyframe>
											<when>1472</when>
											<value>1.01886</value>
										</keyframe>
										<keyframe>
											<when>1496</when>
											<value>0</value>
										</keyframe>
									</parameter>
								</effect>
							</filter>
						<link>
							<linkclipref>clipitem-782</linkclipref>
							<mediatype>audio</mediatype>
							<trackindex>8</trackindex>
							<clipindex>78</clipindex>
							<groupindex>1</groupindex>
						</link>
						<link>
							<linkclipref>clipitem-876</linkclipref>
							<mediatype>audio</mediatype>
							<trackindex>9</trackindex>
							<clipindex>76</clipindex>
							<groupindex>1</groupindex>
						</link>
						<logginginfo>
							<description>DVNA20000616</description>
							<scene></scene>
							<shottake></shottake>
							<lognote></lognote>
						</logginginfo>
						<labels>
							<label2>Iris</label2>
						</labels>
					</clipitem>
					<clipitem id="clipitem-877" premiereChannelType="stereo">
						<masterclipid>masterclip-206</masterclipid>
						<name>AA017401.MXF</name>
						<enabled>TRUE</enabled>
						<duration>1104</duration>
						<rate>
							<timebase>25</timebase>
							<ntsc>FALSE</ntsc>
						</rate>
						<start>39589</start>
						<end>39662</end>
						<in>874</in>
						<out>947</out>
						<pproTicksIn>8880399360000</pproTicksIn>
						<pproTicksOut>9622126080000</pproTicksOut>
						<file id="file-206"/>
						<sourcetrack>
							<mediatype>audio</mediatype>
							<trackindex>2</trackindex>
						</sourcetrack>
						<link>
							<linkclipref>clipitem-333</linkclipref>
							<mediatype>video</mediatype>
							<trackindex>2</trackindex>
							<clipindex>77</clipindex>
						</link>
						<link>
							<linkclipref>clipitem-783</linkclipref>
							<mediatype>audio</mediatype>
							<trackindex>8</trackindex>
							<clipindex>79</clipindex>
							<groupindex>1</groupindex>
						</link>
						<link>
							<linkclipref>clipitem-877</linkclipref>
							<mediatype>audio</mediatype>
							<trackindex>9</trackindex>
							<clipindex>77</clipindex>
							<groupindex>1</groupindex>
						</link>
						<link>
							<linkclipref>clipitem-963</linkclipref>
							<mediatype>audio</mediatype>
							<trackindex>10</trackindex>
							<clipindex>65</clipindex>
							<groupindex>1</groupindex>
						</link>
						<link>
							<linkclipref>clipitem-1103</linkclipref>
							<mediatype>audio</mediatype>
							<trackindex>11</trackindex>
							<clipindex>65</clipindex>
							<groupindex>1</groupindex>
						</link>
						<logginginfo>
							<description></description>
							<scene></scene>
							<shottake></shottake>
							<lognote></lognote>
						</logginginfo>
						<labels>
							<label2>Iris</label2>
						</labels>
					</clipitem>
					<clipitem id="clipitem-878" premiereChannelType="stereo">
						<masterclipid>masterclip-207</masterclipid>
						<name>AA018201.MXF</name>
						<enabled>TRUE</enabled>
						<duration>1152</duration>
						<rate>
							<timebase>25</timebase>
							<ntsc>FALSE</ntsc>
						</rate>
						<start>39662</start>
						<end>39801</end>
						<in>192</in>
						<out>331</out>
						<pproTicksIn>1950842880000</pproTicksIn>
						<pproTicksOut>3363171840000</pproTicksOut>
						<file id="file-207"/>
						<sourcetrack>
							<mediatype>audio</mediatype>
							<trackindex>2</trackindex>
						</sourcetrack>
						<link>
							<linkclipref>clipitem-334</linkclipref>
							<mediatype>video</mediatype>
							<trackindex>2</trackindex>
							<clipindex>78</clipindex>
						</link>
						<link>
							<linkclipref>clipitem-784</linkclipref>
							<mediatype>audio</mediatype>
							<trackindex>8</trackindex>
							<clipindex>80</clipindex>
							<groupindex>1</groupindex>
						</link>
						<link>
							<linkclipref>clipitem-878</linkclipref>
							<mediatype>audio</mediatype>
							<trackindex>9</trackindex>
							<clipindex>78</clipindex>
							<groupindex>1</groupindex>
						</link>
						<link>
							<linkclipref>clipitem-964</linkclipref>
							<mediatype>audio</mediatype>
							<trackindex>10</trackindex>
							<clipindex>66</clipindex>
							<groupindex>1</groupindex>
						</link>
						<link>
							<linkclipref>clipitem-1104</linkclipref>
							<mediatype>audio</mediatype>
							<trackindex>11</trackindex>
							<clipindex>66</clipindex>
							<groupindex>1</groupindex>
						</link>
						<logginginfo>
							<description></description>
							<scene></scene>
							<shottake></shottake>
							<lognote></lognote>
						</logginginfo>
						<labels>
							<label2>Iris</label2>
						</labels>
					</clipitem>
					<clipitem id="clipitem-879" premiereChannelType="stereo">
						<masterclipid>masterclip-208</masterclipid>
						<name>00003.MTS</name>
						<enabled>TRUE</enabled>
						<duration>660</duration>
						<rate>
							<timebase>25</timebase>
							<ntsc>FALSE</ntsc>
						</rate>
						<start>40118</start>
						<end>40272</end>
						<in>187</in>
						<out>342</out>
						<pproTicksIn>1900039680000</pproTicksIn>
						<pproTicksOut>3474938880000</pproTicksOut>
						<file id="file-208"/>
						<sourcetrack>
							<mediatype>audio</mediatype>
							<trackindex>2</trackindex>
						</sourcetrack>
						<link>
							<linkclipref>clipitem-336</linkclipref>
							<mediatype>video</mediatype>
							<trackindex>2</trackindex>
							<clipindex>80</clipindex>
						</link>
						<link>
							<linkclipref>clipitem-785</linkclipref>
							<mediatype>audio</mediatype>
							<trackindex>8</trackindex>
							<clipindex>81</clipindex>
							<groupindex>1</groupindex>
						</link>
						<link>
							<linkclipref>clipitem-879</linkclipref>
							<mediatype>audio</mediatype>
							<trackindex>9</trackindex>
							<clipindex>79</clipindex>
							<groupindex>1</groupindex>
						</link>
						<logginginfo>
							<description></description>
							<scene></scene>
							<shottake></shottake>
							<lognote></lognote>
						</logginginfo>
						<labels>
							<label2>Iris</label2>
						</labels>
					</clipitem>
					<clipitem id="clipitem-880" premiereChannelType="stereo">
						<masterclipid>masterclip-209</masterclipid>
						<name>bakomstoff fra iphone og fotoapp.mxf</name>
						<enabled>TRUE</enabled>
						<duration>25210</duration>
						<rate>
							<timebase>25</timebase>
							<ntsc>FALSE</ntsc>
						</rate>
						<start>40272</start>
						<end>40332</end>
						<in>15628</in>
						<out>15688</out>
						<pproTicksIn>158790481920000</pproTicksIn>
						<pproTicksOut>159400120320000</pproTicksOut>
						<file id="file-209"/>
						<sourcetrack>
							<mediatype>audio</mediatype>
							<trackindex>2</trackindex>
						</sourcetrack>
							<filter>
								<effect>
									<name>Audio Levels</name>
									<effectid>audiolevels</effectid>
									<effectcategory>audiolevels</effectcategory>
									<effecttype>audiolevels</effecttype>
									<mediatype>audio</mediatype>
									<parameter authoringApp="PremierePro">
										<parameterid>level</parameterid>
										<name>Level</name>
										<valuemin>0</valuemin>
										<valuemax>3.98109</valuemax>
										<value>0.318393</value>
									</parameter>
								</effect>
							</filter>
						<link>
							<linkclipref>clipitem-337</linkclipref>
							<mediatype>video</mediatype>
							<trackindex>2</trackindex>
							<clipindex>81</clipindex>
						</link>
						<link>
							<linkclipref>clipitem-786</linkclipref>
							<mediatype>audio</mediatype>
							<trackindex>8</trackindex>
							<clipindex>82</clipindex>
							<groupindex>1</groupindex>
						</link>
						<link>
							<linkclipref>clipitem-880</linkclipref>
							<mediatype>audio</mediatype>
							<trackindex>9</trackindex>
							<clipindex>80</clipindex>
							<groupindex>1</groupindex>
						</link>
						<logginginfo>
							<description></description>
							<scene></scene>
							<shottake></shottake>
							<lognote></lognote>
						</logginginfo>
						<labels>
							<label2>Iris</label2>
						</labels>
					</clipitem>
					<clipitem id="clipitem-881" premiereChannelType="stereo">
						<masterclipid>masterclip-209</masterclipid>
						<name>bakomstoff fra iphone og fotoapp.mxf</name>
						<enabled>TRUE</enabled>
						<duration>25210</duration>
						<rate>
							<timebase>25</timebase>
							<ntsc>FALSE</ntsc>
						</rate>
						<start>40332</start>
						<end>40417</end>
						<in>16050</in>
						<out>16135</out>
						<pproTicksIn>163078272000000</pproTicksIn>
						<pproTicksOut>163941926400000</pproTicksOut>
						<file id="file-209"/>
						<sourcetrack>
							<mediatype>audio</mediatype>
							<trackindex>2</trackindex>
						</sourcetrack>
							<filter>
								<effect>
									<name>Audio Levels</name>
									<effectid>audiolevels</effectid>
									<effectcategory>audiolevels</effectcategory>
									<effecttype>audiolevels</effecttype>
									<mediatype>audio</mediatype>
									<parameter authoringApp="PremierePro">
										<parameterid>level</parameterid>
										<name>Level</name>
										<valuemin>0</valuemin>
										<valuemax>3.98109</valuemax>
										<value>0.27594</value>
									</parameter>
								</effect>
							</filter>
						<link>
							<linkclipref>clipitem-338</linkclipref>
							<mediatype>video</mediatype>
							<trackindex>2</trackindex>
							<clipindex>82</clipindex>
						</link>
						<link>
							<linkclipref>clipitem-787</linkclipref>
							<mediatype>audio</mediatype>
							<trackindex>8</trackindex>
							<clipindex>83</clipindex>
							<groupindex>1</groupindex>
						</link>
						<link>
							<linkclipref>clipitem-881</linkclipref>
							<mediatype>audio</mediatype>
							<trackindex>9</trackindex>
							<clipindex>81</clipindex>
							<groupindex>1</groupindex>
						</link>
						<logginginfo>
							<description></description>
							<scene></scene>
							<shottake></shottake>
							<lognote></lognote>
						</logginginfo>
						<labels>
							<label2>Iris</label2>
						</labels>
					</clipitem>
					<clipitem id="clipitem-882" premiereChannelType="stereo">
						<masterclipid>masterclip-223</masterclipid>
						<name>00070.MTS</name>
						<enabled>TRUE</enabled>
						<duration>403</duration>
						<rate>
							<timebase>25</timebase>
							<ntsc>FALSE</ntsc>
						</rate>
						<start>44558</start>
						<end>44654</end>
						<in>197</in>
						<out>292</out>
						<pproTicksIn>2001646080000</pproTicksIn>
						<pproTicksOut>2966906880000</pproTicksOut>
						<file id="file-223"/>
						<sourcetrack>
							<mediatype>audio</mediatype>
							<trackindex>2</trackindex>
						</sourcetrack>
							<filter>
								<effect>
									<name>Audio Levels</name>
									<effectid>audiolevels</effectid>
									<effectcategory>audiolevels</effectcategory>
									<effecttype>audiolevels</effecttype>
									<mediatype>audio</mediatype>
									<parameter authoringApp="PremierePro">
										<parameterid>level</parameterid>
										<name>Level</name>
										<valuemin>0</valuemin>
										<valuemax>3.98109</valuemax>
										<value>0.99763</value>
										<keyframe>
											<when>198</when>
											<value>0</value>
										</keyframe>
										<keyframe>
											<when>231</when>
											<value>0.99763</value>
										</keyframe>
									</parameter>
								</effect>
							</filter>
						<link>
							<linkclipref>clipitem-358</linkclipref>
							<mediatype>video</mediatype>
							<trackindex>2</trackindex>
							<clipindex>102</clipindex>
						</link>
						<link>
							<linkclipref>clipitem-788</linkclipref>
							<mediatype>audio</mediatype>
							<trackindex>8</trackindex>
							<clipindex>84</clipindex>
							<groupindex>1</groupindex>
						</link>
						<link>
							<linkclipref>clipitem-882</linkclipref>
							<mediatype>audio</mediatype>
							<trackindex>9</trackindex>
							<clipindex>82</clipindex>
							<groupindex>1</groupindex>
						</link>
						<logginginfo>
							<description>KOMM Rune sier at nå har de bilde på det første kamera</description>
							<scene></scene>
							<shottake></shottake>
							<lognote></lognote>
						</logginginfo>
						<labels>
							<label2>Iris</label2>
						</labels>
					</clipitem>
					<transitionitem>
						<start>47274</start>
						<end>47287</end>
						<alignment>start-black</alignment>
						<cutPointTicks>0</cutPointTicks>
						<rate>
							<timebase>25</timebase>
							<ntsc>FALSE</ntsc>
						</rate>
						<effect>
							<name>Cross Fade (+3dB)</name>
							<effectid>KGAudioTransCrossFade3dB</effectid>
							<effecttype>transition</effecttype>
							<mediatype>audio</mediatype>
							<wipecode>0</wipecode>
							<wipeaccuracy>100</wipeaccuracy>
							<startratio>0</startratio>
							<endratio>1</endratio>
							<reverse>FALSE</reverse>
						</effect>
					</transitionitem>
					<clipitem id="clipitem-883" premiereChannelType="stereo">
						<masterclipid>masterclip-209</masterclipid>
						<name>bakomstoff fra iphone og fotoapp.mxf</name>
						<enabled>TRUE</enabled>
						<duration>25210</duration>
						<rate>
							<timebase>25</timebase>
							<ntsc>FALSE</ntsc>
						</rate>
						<start>-1</start>
						<end>47399</end>
						<in>1418</in>
						<out>1543</out>
						<pproTicksIn>14407787520000</pproTicksIn>
						<pproTicksOut>15677867520000</pproTicksOut>
						<file id="file-209"/>
						<sourcetrack>
							<mediatype>audio</mediatype>
							<trackindex>2</trackindex>
						</sourcetrack>
						<link>
							<linkclipref>clipitem-378</linkclipref>
							<mediatype>video</mediatype>
							<trackindex>2</trackindex>
							<clipindex>122</clipindex>
						</link>
						<link>
							<linkclipref>clipitem-789</linkclipref>
							<mediatype>audio</mediatype>
							<trackindex>8</trackindex>
							<clipindex>86</clipindex>
							<groupindex>1</groupindex>
						</link>
						<link>
							<linkclipref>clipitem-883</linkclipref>
							<mediatype>audio</mediatype>
							<trackindex>9</trackindex>
							<clipindex>84</clipindex>
							<groupindex>1</groupindex>
						</link>
						<logginginfo>
							<description></description>
							<scene></scene>
							<shottake></shottake>
							<lognote></lognote>
						</logginginfo>
						<labels>
							<label2>Iris</label2>
						</labels>
					</clipitem>
					<clipitem id="clipitem-884" premiereChannelType="stereo">
						<masterclipid>masterclip-209</masterclipid>
						<name>bakomstoff fra iphone og fotoapp.mxf</name>
						<enabled>TRUE</enabled>
						<duration>25210</duration>
						<rate>
							<timebase>25</timebase>
							<ntsc>FALSE</ntsc>
						</rate>
						<start>47399</start>
						<end>47551</end>
						<in>2191</in>
						<out>2343</out>
						<pproTicksIn>22261962240000</pproTicksIn>
						<pproTicksOut>23806379520000</pproTicksOut>
						<file id="file-209"/>
						<sourcetrack>
							<mediatype>audio</mediatype>
							<trackindex>2</trackindex>
						</sourcetrack>
							<filter>
								<effect>
									<name>Audio Levels</name>
									<effectid>audiolevels</effectid>
									<effectcategory>audiolevels</effectcategory>
									<effecttype>audiolevels</effecttype>
									<mediatype>audio</mediatype>
									<parameter authoringApp="PremierePro">
										<parameterid>level</parameterid>
										<name>Level</name>
										<valuemin>0</valuemin>
										<valuemax>3.98109</valuemax>
										<value>0.0498815</value>
										<keyframe>
											<when>2315</when>
											<value>0.99763</value>
										</keyframe>
										<keyframe>
											<when>2331</when>
											<value>0.0498815</value>
										</keyframe>
									</parameter>
								</effect>
							</filter>
						<link>
							<linkclipref>clipitem-379</linkclipref>
							<mediatype>video</mediatype>
							<trackindex>2</trackindex>
							<clipindex>123</clipindex>
						</link>
						<link>
							<linkclipref>clipitem-790</linkclipref>
							<mediatype>audio</mediatype>
							<trackindex>8</trackindex>
							<clipindex>87</clipindex>
							<groupindex>1</groupindex>
						</link>
						<link>
							<linkclipref>clipitem-884</linkclipref>
							<mediatype>audio</mediatype>
							<trackindex>9</trackindex>
							<clipindex>85</clipindex>
							<groupindex>1</groupindex>
						</link>
						<logginginfo>
							<description></description>
							<scene></scene>
							<shottake></shottake>
							<lognote></lognote>
						</logginginfo>
						<labels>
							<label2>Iris</label2>
						</labels>
					</clipitem>
					<transitionitem>
						<start>47756</start>
						<end>47768</end>
						<alignment>start-black</alignment>
						<cutPointTicks>0</cutPointTicks>
						<rate>
							<timebase>25</timebase>
							<ntsc>FALSE</ntsc>
						</rate>
						<effect>
							<name>Cross Fade (+3dB)</name>
							<effectid>KGAudioTransCrossFade3dB</effectid>
							<effecttype>transition</effecttype>
							<mediatype>audio</mediatype>
							<wipecode>0</wipecode>
							<wipeaccuracy>100</wipeaccuracy>
							<startratio>0</startratio>
							<endratio>1</endratio>
							<reverse>FALSE</reverse>
						</effect>
					</transitionitem>
					<clipitem id="clipitem-885" premiereChannelType="stereo">
						<masterclipid>masterclip-209</masterclipid>
						<name>bakomstoff fra iphone og fotoapp.mxf</name>
						<enabled>TRUE</enabled>
						<duration>25210</duration>
						<rate>
							<timebase>25</timebase>
							<ntsc>FALSE</ntsc>
						</rate>
						<start>-1</start>
						<end>47864</end>
						<in>7226</in>
						<out>7334</out>
						<pproTicksIn>73420784640000</pproTicksIn>
						<pproTicksOut>74518133760000</pproTicksOut>
						<file id="file-209"/>
						<sourcetrack>
							<mediatype>audio</mediatype>
							<trackindex>2</trackindex>
						</sourcetrack>
						<link>
							<linkclipref>clipitem-381</linkclipref>
							<mediatype>video</mediatype>
							<trackindex>2</trackindex>
							<clipindex>125</clipindex>
						</link>
						<link>
							<linkclipref>clipitem-791</linkclipref>
							<mediatype>audio</mediatype>
							<trackindex>8</trackindex>
							<clipindex>89</clipindex>
							<groupindex>1</groupindex>
						</link>
						<link>
							<linkclipref>clipitem-885</linkclipref>
							<mediatype>audio</mediatype>
							<trackindex>9</trackindex>
							<clipindex>87</clipindex>
							<groupindex>1</groupindex>
						</link>
						<logginginfo>
							<description></description>
							<scene></scene>
							<shottake></shottake>
							<lognote></lognote>
						</logginginfo>
						<labels>
							<label2>Iris</label2>
						</labels>
					</clipitem>
					<clipitem id="clipitem-886" premiereChannelType="stereo">
						<masterclipid>masterclip-209</masterclipid>
						<name>bakomstoff fra iphone og fotoapp.mxf</name>
						<enabled>TRUE</enabled>
						<duration>25210</duration>
						<rate>
							<timebase>25</timebase>
							<ntsc>FALSE</ntsc>
						</rate>
						<start>48790</start>
						<end>48900</end>
						<in>14548</in>
						<out>14658</out>
						<pproTicksIn>147816990720000</pproTicksIn>
						<pproTicksOut>148934661120000</pproTicksOut>
						<file id="file-209"/>
						<sourcetrack>
							<mediatype>audio</mediatype>
							<trackindex>2</trackindex>
						</sourcetrack>
							<filter>
								<effect>
									<name>Audio Levels</name>
									<effectid>audiolevels</effectid>
									<effectcategory>audiolevels</effectcategory>
									<effecttype>audiolevels</effecttype>
									<mediatype>audio</mediatype>
									<parameter authoringApp="PremierePro">
										<parameterid>level</parameterid>
										<name>Level</name>
										<valuemin>0</valuemin>
										<valuemax>3.98109</valuemax>
										<value>0.233488</value>
									</parameter>
								</effect>
							</filter>
						<link>
							<linkclipref>clipitem-387</linkclipref>
							<mediatype>video</mediatype>
							<trackindex>2</trackindex>
							<clipindex>131</clipindex>
						</link>
						<link>
							<linkclipref>clipitem-792</linkclipref>
							<mediatype>audio</mediatype>
							<trackindex>8</trackindex>
							<clipindex>90</clipindex>
							<groupindex>1</groupindex>
						</link>
						<link>
							<linkclipref>clipitem-886</linkclipref>
							<mediatype>audio</mediatype>
							<trackindex>9</trackindex>
							<clipindex>88</clipindex>
							<groupindex>1</groupindex>
						</link>
						<logginginfo>
							<description></description>
							<scene></scene>
							<shottake></shottake>
							<lognote></lognote>
						</logginginfo>
						<labels>
							<label2>Iris</label2>
						</labels>
					</clipitem>
					<clipitem id="clipitem-887" premiereChannelType="stereo">
						<masterclipid>masterclip-244</masterclipid>
						<name>GOPR9300.MP4</name>
						<enabled>TRUE</enabled>
						<duration>568</duration>
						<rate>
							<timebase>25</timebase>
							<ntsc>FALSE</ntsc>
						</rate>
						<start>52153</start>
						<end>52275</end>
						<in>169</in>
						<out>291</out>
						<pproTicksIn>1717148160000</pproTicksIn>
						<pproTicksOut>2956746240000</pproTicksOut>
						<file id="file-244"/>
						<sourcetrack>
							<mediatype>audio</mediatype>
							<trackindex>2</trackindex>
						</sourcetrack>
						<link>
							<linkclipref>clipitem-404</linkclipref>
							<mediatype>video</mediatype>
							<trackindex>2</trackindex>
							<clipindex>148</clipindex>
						</link>
						<link>
							<linkclipref>clipitem-793</linkclipref>
							<mediatype>audio</mediatype>
							<trackindex>8</trackindex>
							<clipindex>91</clipindex>
							<groupindex>1</groupindex>
						</link>
						<link>
							<linkclipref>clipitem-887</linkclipref>
							<mediatype>audio</mediatype>
							<trackindex>9</trackindex>
							<clipindex>89</clipindex>
							<groupindex>1</groupindex>
						</link>
						<logginginfo>
							<description></description>
							<scene></scene>
							<shottake></shottake>
							<lognote></lognote>
						</logginginfo>
						<labels>
							<label2>Iris</label2>
						</labels>
					</clipitem>
					<clipitem id="clipitem-888" premiereChannelType="stereo">
						<masterclipid>masterclip-245</masterclipid>
						<name>GOPR9301.MP4</name>
						<enabled>TRUE</enabled>
						<duration>14095</duration>
						<rate>
							<timebase>25</timebase>
							<ntsc>FALSE</ntsc>
						</rate>
						<start>52275</start>
						<end>-1</end>
						<in>4872</in>
						<out>5024</out>
						<pproTicksIn>49502638080000</pproTicksIn>
						<pproTicksOut>51047055360000</pproTicksOut>
						<file id="file-245"/>
						<sourcetrack>
							<mediatype>audio</mediatype>
							<trackindex>2</trackindex>
						</sourcetrack>
						<link>
							<linkclipref>clipitem-405</linkclipref>
							<mediatype>video</mediatype>
							<trackindex>2</trackindex>
							<clipindex>149</clipindex>
						</link>
						<link>
							<linkclipref>clipitem-794</linkclipref>
							<mediatype>audio</mediatype>
							<trackindex>8</trackindex>
							<clipindex>92</clipindex>
							<groupindex>1</groupindex>
						</link>
						<link>
							<linkclipref>clipitem-888</linkclipref>
							<mediatype>audio</mediatype>
							<trackindex>9</trackindex>
							<clipindex>90</clipindex>
							<groupindex>1</groupindex>
						</link>
						<logginginfo>
							<description></description>
							<scene></scene>
							<shottake></shottake>
							<lognote></lognote>
						</logginginfo>
						<labels>
							<label2>Iris</label2>
						</labels>
					</clipitem>
					<transitionitem>
						<start>52415</start>
						<end>52427</end>
						<alignment>end-black</alignment>
						<cutPointTicks>121927680000</cutPointTicks>
						<rate>
							<timebase>25</timebase>
							<ntsc>FALSE</ntsc>
						</rate>
						<effect>
							<name>Cross Fade (+3dB)</name>
							<effectid>KGAudioTransCrossFade3dB</effectid>
							<effecttype>transition</effecttype>
							<mediatype>audio</mediatype>
							<wipecode>0</wipecode>
							<wipeaccuracy>100</wipeaccuracy>
							<startratio>0</startratio>
							<endratio>1</endratio>
							<reverse>FALSE</reverse>
						</effect>
					</transitionitem>
					<clipitem id="clipitem-889" premiereChannelType="stereo">
						<masterclipid>masterclip-115</masterclipid>
						<name>ENG19-2771.MXF</name>
						<enabled>TRUE</enabled>
						<duration>975</duration>
						<rate>
							<timebase>25</timebase>
							<ntsc>FALSE</ntsc>
						</rate>
						<start>54804</start>
						<end>55006</end>
						<in>200</in>
						<out>402</out>
						<pproTicksIn>2032128000000</pproTicksIn>
						<pproTicksOut>4084577280000</pproTicksOut>
						<file id="file-115"/>
						<sourcetrack>
							<mediatype>audio</mediatype>
							<trackindex>4</trackindex>
						</sourcetrack>
							<filter>
								<effect>
									<name>Audio Levels</name>
									<effectid>audiolevels</effectid>
									<effectcategory>audiolevels</effectcategory>
									<effecttype>audiolevels</effecttype>
									<mediatype>audio</mediatype>
									<parameter authoringApp="PremierePro">
										<parameterid>level</parameterid>
										<name>Level</name>
										<valuemin>0</valuemin>
										<valuemax>3.98109</valuemax>
										<value>0</value>
										<keyframe>
											<when>370</when>
											<value>0.34917</value>
										</keyframe>
										<keyframe>
											<when>397</when>
											<value>0</value>
										</keyframe>
									</parameter>
								</effect>
							</filter>
						<link>
							<linkclipref>clipitem-795</linkclipref>
							<mediatype>audio</mediatype>
							<trackindex>8</trackindex>
							<clipindex>94</clipindex>
							<groupindex>1</groupindex>
						</link>
						<link>
							<linkclipref>clipitem-889</linkclipref>
							<mediatype>audio</mediatype>
							<trackindex>9</trackindex>
							<clipindex>92</clipindex>
							<groupindex>1</groupindex>
						</link>
						<logginginfo>
							<description></description>
							<scene></scene>
							<shottake></shottake>
							<lognote></lognote>
						</logginginfo>
						<labels>
							<label2>Iris</label2>
						</labels>
					</clipitem>
					<clipitem id="clipitem-890" premiereChannelType="stereo">
						<masterclipid>masterclip-203</masterclipid>
						<name>ENG19-2785.MXF</name>
						<enabled>TRUE</enabled>
						<duration>539</duration>
						<rate>
							<timebase>25</timebase>
							<ntsc>FALSE</ntsc>
						</rate>
						<start>55170</start>
						<end>55408</end>
						<in>213</in>
						<out>451</out>
						<pproTicksIn>2164216320000</pproTicksIn>
						<pproTicksOut>4582448640000</pproTicksOut>
						<file id="file-203"/>
						<sourcetrack>
							<mediatype>audio</mediatype>
							<trackindex>4</trackindex>
						</sourcetrack>
							<filter>
								<effect>
									<name>Audio Levels</name>
									<effectid>audiolevels</effectid>
									<effectcategory>audiolevels</effectcategory>
									<effecttype>audiolevels</effecttype>
									<mediatype>audio</mediatype>
									<parameter authoringApp="PremierePro">
										<parameterid>level</parameterid>
										<name>Level</name>
										<valuemin>0</valuemin>
										<valuemax>3.98109</valuemax>
										<value>0.199526</value>
										<keyframe>
											<when>231</when>
											<value>0</value>
										</keyframe>
										<keyframe>
											<when>271</when>
											<value>0.648459</value>
										</keyframe>
										<keyframe>
											<when>374</when>
											<value>0.648459</value>
										</keyframe>
										<keyframe>
											<when>410</when>
											<value>0.517521</value>
										</keyframe>
										<keyframe>
											<when>444</when>
											<value>0.199526</value>
										</keyframe>
									</parameter>
								</effect>
							</filter>
						<link>
							<linkclipref>clipitem-796</linkclipref>
							<mediatype>audio</mediatype>
							<trackindex>8</trackindex>
							<clipindex>95</clipindex>
							<groupindex>1</groupindex>
						</link>
						<link>
							<linkclipref>clipitem-890</linkclipref>
							<mediatype>audio</mediatype>
							<trackindex>9</trackindex>
							<clipindex>93</clipindex>
							<groupindex>1</groupindex>
						</link>
						<logginginfo>
							<description></description>
							<scene></scene>
							<shottake></shottake>
							<lognote></lognote>
						</logginginfo>
						<labels>
							<label2>Iris</label2>
						</labels>
					</clipitem>
					<transitionitem>
						<start>58926</start>
						<end>58939</end>
						<alignment>start-black</alignment>
						<cutPointTicks>0</cutPointTicks>
						<rate>
							<timebase>25</timebase>
							<ntsc>FALSE</ntsc>
						</rate>
						<effect>
							<name>Cross Fade (+3dB)</name>
							<effectid>KGAudioTransCrossFade3dB</effectid>
							<effecttype>transition</effecttype>
							<mediatype>audio</mediatype>
							<wipecode>0</wipecode>
							<wipeaccuracy>100</wipeaccuracy>
							<startratio>0</startratio>
							<endratio>1</endratio>
							<reverse>FALSE</reverse>
						</effect>
					</transitionitem>
					<clipitem id="clipitem-891" premiereChannelType="stereo">
						<masterclipid>masterclip-317</masterclipid>
						<name>Ut i naturen 2 Sanser I-lyd uten musikk.wav</name>
						<enabled>TRUE</enabled>
						<duration>58727</duration>
						<rate>
							<timebase>25</timebase>
							<ntsc>FALSE</ntsc>
						</rate>
						<start>-1</start>
						<end>59908</end>
						<in>32628</in>
						<out>33610</out>
						<pproTicksIn>331521361920000</pproTicksIn>
						<pproTicksOut>341499110400000</pproTicksOut>
						<file id="file-317"/>
						<sourcetrack>
							<mediatype>audio</mediatype>
							<trackindex>2</trackindex>
						</sourcetrack>
						<link>
							<linkclipref>clipitem-797</linkclipref>
							<mediatype>audio</mediatype>
							<trackindex>8</trackindex>
							<clipindex>97</clipindex>
							<groupindex>1</groupindex>
						</link>
						<link>
							<linkclipref>clipitem-891</linkclipref>
							<mediatype>audio</mediatype>
							<trackindex>9</trackindex>
							<clipindex>95</clipindex>
							<groupindex>1</groupindex>
						</link>
						<logginginfo>
							<description></description>
							<scene></scene>
							<shottake></shottake>
							<lognote></lognote>
						</logginginfo>
						<labels>
							<label2>Iris</label2>
						</labels>
					</clipitem>
					<clipitem id="clipitem-892" premiereChannelType="stereo">
						<masterclipid>masterclip-17</masterclipid>
						<name>dvna60000116aa-p1-270916r</name>
						<enabled>TRUE</enabled>
						<duration>4111</duration>
						<rate>
							<timebase>25</timebase>
							<ntsc>FALSE</ntsc>
						</rate>
						<start>60944</start>
						<end>62416</end>
						<in>87</in>
						<out>1559</out>
						<pproTicksIn>883975680000</pproTicksIn>
						<pproTicksOut>15840437760000</pproTicksOut>
						<file id="file-17"/>
						<sourcetrack>
							<mediatype>audio</mediatype>
							<trackindex>4</trackindex>
						</sourcetrack>
							<filter>
								<effect>
									<name>Audio Levels</name>
									<effectid>audiolevels</effectid>
									<effectcategory>audiolevels</effectcategory>
									<effecttype>audiolevels</effecttype>
									<mediatype>audio</mediatype>
									<parameter authoringApp="PremierePro">
										<parameterid>level</parameterid>
										<name>Level</name>
										<valuemin>0</valuemin>
										<valuemax>3.98109</valuemax>
										<value>0</value>
										<keyframe>
											<when>90</when>
											<value>0</value>
										</keyframe>
										<keyframe>
											<when>113</when>
											<value>0.99763</value>
										</keyframe>
										<keyframe>
											<when>1480</when>
											<value>0.99763</value>
										</keyframe>
										<keyframe>
											<when>1509</when>
											<value>0</value>
										</keyframe>
									</parameter>
								</effect>
							</filter>
						<link>
							<linkclipref>clipitem-181</linkclipref>
							<mediatype>video</mediatype>
							<trackindex>1</trackindex>
							<clipindex>191</clipindex>
						</link>
						<link>
							<linkclipref>clipitem-798</linkclipref>
							<mediatype>audio</mediatype>
							<trackindex>8</trackindex>
							<clipindex>98</clipindex>
							<groupindex>1</groupindex>
						</link>
						<link>
							<linkclipref>clipitem-892</linkclipref>
							<mediatype>audio</mediatype>
							<trackindex>9</trackindex>
							<clipindex>96</clipindex>
							<groupindex>1</groupindex>
						</link>
						<logginginfo>
							<description>dvna60000116aa-p1-270916r</description>
							<scene></scene>
							<shottake></shottake>
							<lognote></lognote>
						</logginginfo>
						<labels>
							<label2>Iris</label2>
						</labels>
					</clipitem>
					<clipitem id="clipitem-893" premiereChannelType="stereo">
						<masterclipid>masterclip-121</masterclipid>
						<name>AA282801.MXF</name>
						<enabled>TRUE</enabled>
						<duration>4944</duration>
						<rate>
							<timebase>25</timebase>
							<ntsc>FALSE</ntsc>
						</rate>
						<start>63983</start>
						<end>64140</end>
						<in>2642</in>
						<out>2799</out>
						<pproTicksIn>26844410880000</pproTicksIn>
						<pproTicksOut>28439631360000</pproTicksOut>
						<file id="file-121"/>
						<sourcetrack>
							<mediatype>audio</mediatype>
							<trackindex>2</trackindex>
						</sourcetrack>
							<filter>
								<effect>
									<name>Audio Levels</name>
									<effectid>audiolevels</effectid>
									<effectcategory>audiolevels</effectcategory>
									<effecttype>audiolevels</effecttype>
									<mediatype>audio</mediatype>
									<parameter authoringApp="PremierePro">
										<parameterid>level</parameterid>
										<name>Level</name>
										<valuemin>0</valuemin>
										<valuemax>3.98109</valuemax>
										<value>0.99763</value>
										<keyframe>
											<when>2648</when>
											<value>0</value>
										</keyframe>
										<keyframe>
											<when>2668</when>
											<value>0.99763</value>
										</keyframe>
									</parameter>
								</effect>
							</filter>
						<link>
							<linkclipref>clipitem-183</linkclipref>
							<mediatype>video</mediatype>
							<trackindex>1</trackindex>
							<clipindex>193</clipindex>
						</link>
						<link>
							<linkclipref>clipitem-799</linkclipref>
							<mediatype>audio</mediatype>
							<trackindex>8</trackindex>
							<clipindex>99</clipindex>
							<groupindex>1</groupindex>
						</link>
						<link>
							<linkclipref>clipitem-893</linkclipref>
							<mediatype>audio</mediatype>
							<trackindex>9</trackindex>
							<clipindex>97</clipindex>
							<groupindex>1</groupindex>
						</link>
						<link>
							<linkclipref>clipitem-1245</linkclipref>
							<mediatype>audio</mediatype>
							<trackindex>12</trackindex>
							<clipindex>87</clipindex>
							<groupindex>1</groupindex>
						</link>
						<link>
							<linkclipref>clipitem-1330</linkclipref>
							<mediatype>audio</mediatype>
							<trackindex>13</trackindex>
							<clipindex>87</clipindex>
							<groupindex>1</groupindex>
						</link>
						<logginginfo>
							<description></description>
							<scene></scene>
							<shottake></shottake>
							<lognote></lognote>
						</logginginfo>
						<labels>
							<label2>Iris</label2>
						</labels>
					</clipitem>
					<clipitem id="clipitem-894" premiereChannelType="stereo">
						<masterclipid>masterclip-122</masterclipid>
						<name>AA281501.MXF</name>
						<enabled>TRUE</enabled>
						<duration>732</duration>
						<rate>
							<timebase>25</timebase>
							<ntsc>FALSE</ntsc>
						</rate>
						<start>64140</start>
						<end>64170</end>
						<in>303</in>
						<out>333</out>
						<pproTicksIn>3078673920000</pproTicksIn>
						<pproTicksOut>3383493120000</pproTicksOut>
						<file id="file-122"/>
						<sourcetrack>
							<mediatype>audio</mediatype>
							<trackindex>2</trackindex>
						</sourcetrack>
						<link>
							<linkclipref>clipitem-184</linkclipref>
							<mediatype>video</mediatype>
							<trackindex>1</trackindex>
							<clipindex>194</clipindex>
						</link>
						<link>
							<linkclipref>clipitem-800</linkclipref>
							<mediatype>audio</mediatype>
							<trackindex>8</trackindex>
							<clipindex>100</clipindex>
							<groupindex>1</groupindex>
						</link>
						<link>
							<linkclipref>clipitem-894</linkclipref>
							<mediatype>audio</mediatype>
							<trackindex>9</trackindex>
							<clipindex>98</clipindex>
							<groupindex>1</groupindex>
						</link>
						<logginginfo>
							<description></description>
							<scene></scene>
							<shottake></shottake>
							<lognote></lognote>
						</logginginfo>
						<labels>
							<label2>Iris</label2>
						</labels>
					</clipitem>
					<clipitem id="clipitem-895" premiereChannelType="stereo">
						<masterclipid>masterclip-122</masterclipid>
						<name>AA281501.MXF</name>
						<enabled>TRUE</enabled>
						<duration>732</duration>
						<rate>
							<timebase>25</timebase>
							<ntsc>FALSE</ntsc>
						</rate>
						<start>64170</start>
						<end>64241</end>
						<in>109</in>
						<out>180</out>
						<pproTicksIn>1107509760000</pproTicksIn>
						<pproTicksOut>1828915200000</pproTicksOut>
						<file id="file-122"/>
						<sourcetrack>
							<mediatype>audio</mediatype>
							<trackindex>2</trackindex>
						</sourcetrack>
						<link>
							<linkclipref>clipitem-185</linkclipref>
							<mediatype>video</mediatype>
							<trackindex>1</trackindex>
							<clipindex>195</clipindex>
						</link>
						<link>
							<linkclipref>clipitem-801</linkclipref>
							<mediatype>audio</mediatype>
							<trackindex>8</trackindex>
							<clipindex>101</clipindex>
							<groupindex>1</groupindex>
						</link>
						<link>
							<linkclipref>clipitem-895</linkclipref>
							<mediatype>audio</mediatype>
							<trackindex>9</trackindex>
							<clipindex>99</clipindex>
							<groupindex>1</groupindex>
						</link>
						<logginginfo>
							<description></description>
							<scene></scene>
							<shottake></shottake>
							<lognote></lognote>
						</logginginfo>
						<labels>
							<label2>Iris</label2>
						</labels>
					</clipitem>
					<clipitem id="clipitem-896" premiereChannelType="stereo">
						<masterclipid>masterclip-123</masterclipid>
						<name>AA281701.MXF</name>
						<enabled>TRUE</enabled>
						<duration>1392</duration>
						<rate>
							<timebase>25</timebase>
							<ntsc>FALSE</ntsc>
						</rate>
						<start>64241</start>
						<end>64311</end>
						<in>1265</in>
						<out>1335</out>
						<pproTicksIn>12853209600000</pproTicksIn>
						<pproTicksOut>13564454400000</pproTicksOut>
						<file id="file-123"/>
						<sourcetrack>
							<mediatype>audio</mediatype>
							<trackindex>2</trackindex>
						</sourcetrack>
						<link>
							<linkclipref>clipitem-186</linkclipref>
							<mediatype>video</mediatype>
							<trackindex>1</trackindex>
							<clipindex>196</clipindex>
						</link>
						<link>
							<linkclipref>clipitem-802</linkclipref>
							<mediatype>audio</mediatype>
							<trackindex>8</trackindex>
							<clipindex>102</clipindex>
							<groupindex>1</groupindex>
						</link>
						<link>
							<linkclipref>clipitem-896</linkclipref>
							<mediatype>audio</mediatype>
							<trackindex>9</trackindex>
							<clipindex>100</clipindex>
							<groupindex>1</groupindex>
						</link>
						<logginginfo>
							<description></description>
							<scene></scene>
							<shottake></shottake>
							<lognote></lognote>
						</logginginfo>
						<labels>
							<label2>Iris</label2>
						</labels>
					</clipitem>
					<clipitem id="clipitem-897" premiereChannelType="stereo">
						<masterclipid>masterclip-124</masterclipid>
						<name>AA282301.MXF</name>
						<enabled>TRUE</enabled>
						<duration>2904</duration>
						<rate>
							<timebase>25</timebase>
							<ntsc>FALSE</ntsc>
						</rate>
						<start>64311</start>
						<end>64604</end>
						<in>1824</in>
						<out>2117</out>
						<pproTicksIn>18533007360000</pproTicksIn>
						<pproTicksOut>21510074880000</pproTicksOut>
						<file id="file-124"/>
						<sourcetrack>
							<mediatype>audio</mediatype>
							<trackindex>1</trackindex>
						</sourcetrack>
						<link>
							<linkclipref>clipitem-187</linkclipref>
							<mediatype>video</mediatype>
							<trackindex>1</trackindex>
							<clipindex>197</clipindex>
						</link>
						<link>
							<linkclipref>clipitem-803</linkclipref>
							<mediatype>audio</mediatype>
							<trackindex>8</trackindex>
							<clipindex>103</clipindex>
							<groupindex>1</groupindex>
						</link>
						<link>
							<linkclipref>clipitem-897</linkclipref>
							<mediatype>audio</mediatype>
							<trackindex>9</trackindex>
							<clipindex>101</clipindex>
							<groupindex>1</groupindex>
						</link>
						<logginginfo>
							<description></description>
							<scene></scene>
							<shottake></shottake>
							<lognote></lognote>
						</logginginfo>
						<labels>
							<label2>Iris</label2>
						</labels>
					</clipitem>
					<clipitem id="clipitem-898" premiereChannelType="stereo">
						<masterclipid>masterclip-124</masterclipid>
						<name>AA282301.MXF</name>
						<enabled>TRUE</enabled>
						<duration>2904</duration>
						<rate>
							<timebase>25</timebase>
							<ntsc>FALSE</ntsc>
						</rate>
						<start>64604</start>
						<end>64746</end>
						<in>2117</in>
						<out>2259</out>
						<pproTicksIn>21510074880000</pproTicksIn>
						<pproTicksOut>22952885760000</pproTicksOut>
						<file id="file-124"/>
						<sourcetrack>
							<mediatype>audio</mediatype>
							<trackindex>1</trackindex>
						</sourcetrack>
						<link>
							<linkclipref>clipitem-188</linkclipref>
							<mediatype>video</mediatype>
							<trackindex>1</trackindex>
							<clipindex>198</clipindex>
						</link>
						<link>
							<linkclipref>clipitem-804</linkclipref>
							<mediatype>audio</mediatype>
							<trackindex>8</trackindex>
							<clipindex>104</clipindex>
							<groupindex>1</groupindex>
						</link>
						<link>
							<linkclipref>clipitem-898</linkclipref>
							<mediatype>audio</mediatype>
							<trackindex>9</trackindex>
							<clipindex>102</clipindex>
							<groupindex>1</groupindex>
						</link>
						<logginginfo>
							<description></description>
							<scene></scene>
							<shottake></shottake>
							<lognote></lognote>
						</logginginfo>
						<labels>
							<label2>Iris</label2>
						</labels>
					</clipitem>
					<clipitem id="clipitem-899" premiereChannelType="stereo">
						<masterclipid>masterclip-125</masterclipid>
						<name>AA282501.MXF</name>
						<enabled>TRUE</enabled>
						<duration>2676</duration>
						<rate>
							<timebase>25</timebase>
							<ntsc>FALSE</ntsc>
						</rate>
						<start>64746</start>
						<end>64836</end>
						<in>246</in>
						<out>336</out>
						<pproTicksIn>2499517440000</pproTicksIn>
						<pproTicksOut>3413975040000</pproTicksOut>
						<file id="file-125"/>
						<sourcetrack>
							<mediatype>audio</mediatype>
							<trackindex>2</trackindex>
						</sourcetrack>
						<link>
							<linkclipref>clipitem-189</linkclipref>
							<mediatype>video</mediatype>
							<trackindex>1</trackindex>
							<clipindex>199</clipindex>
						</link>
						<link>
							<linkclipref>clipitem-805</linkclipref>
							<mediatype>audio</mediatype>
							<trackindex>8</trackindex>
							<clipindex>105</clipindex>
							<groupindex>1</groupindex>
						</link>
						<link>
							<linkclipref>clipitem-899</linkclipref>
							<mediatype>audio</mediatype>
							<trackindex>9</trackindex>
							<clipindex>103</clipindex>
							<groupindex>1</groupindex>
						</link>
						<link>
							<linkclipref>clipitem-1246</linkclipref>
							<mediatype>audio</mediatype>
							<trackindex>12</trackindex>
							<clipindex>88</clipindex>
							<groupindex>1</groupindex>
						</link>
						<link>
							<linkclipref>clipitem-1331</linkclipref>
							<mediatype>audio</mediatype>
							<trackindex>13</trackindex>
							<clipindex>88</clipindex>
							<groupindex>1</groupindex>
						</link>
						<logginginfo>
							<description></description>
							<scene></scene>
							<shottake></shottake>
							<lognote></lognote>
						</logginginfo>
						<labels>
							<label2>Iris</label2>
						</labels>
					</clipitem>
					<clipitem id="clipitem-900" premiereChannelType="stereo">
						<masterclipid>masterclip-255</masterclipid>
						<name>AA282101.MXF</name>
						<enabled>TRUE</enabled>
						<duration>3708</duration>
						<rate>
							<timebase>25</timebase>
							<ntsc>FALSE</ntsc>
						</rate>
						<start>64836</start>
						<end>-1</end>
						<in>2079</in>
						<out>2142</out>
						<pproTicksIn>21123970560000</pproTicksIn>
						<pproTicksOut>21764090880000</pproTicksOut>
						<file id="file-255"/>
						<sourcetrack>
							<mediatype>audio</mediatype>
							<trackindex>2</trackindex>
						</sourcetrack>
							<filter>
								<effect>
									<name>Audio Levels</name>
									<effectid>audiolevels</effectid>
									<effectcategory>audiolevels</effectcategory>
									<effecttype>audiolevels</effecttype>
									<mediatype>audio</mediatype>
									<parameter authoringApp="PremierePro">
										<parameterid>level</parameterid>
										<name>Level</name>
										<valuemin>0</valuemin>
										<valuemax>3.98109</valuemax>
										<value>0.110848</value>
									</parameter>
								</effect>
							</filter>
						<link>
							<linkclipref>clipitem-433</linkclipref>
							<mediatype>video</mediatype>
							<trackindex>2</trackindex>
							<clipindex>179</clipindex>
						</link>
						<link>
							<linkclipref>clipitem-806</linkclipref>
							<mediatype>audio</mediatype>
							<trackindex>8</trackindex>
							<clipindex>106</clipindex>
							<groupindex>1</groupindex>
						</link>
						<link>
							<linkclipref>clipitem-900</linkclipref>
							<mediatype>audio</mediatype>
							<trackindex>9</trackindex>
							<clipindex>104</clipindex>
							<groupindex>1</groupindex>
						</link>
						<link>
							<linkclipref>clipitem-1247</linkclipref>
							<mediatype>audio</mediatype>
							<trackindex>12</trackindex>
							<clipindex>89</clipindex>
							<groupindex>1</groupindex>
						</link>
						<link>
							<linkclipref>clipitem-1332</linkclipref>
							<mediatype>audio</mediatype>
							<trackindex>13</trackindex>
							<clipindex>89</clipindex>
							<groupindex>1</groupindex>
						</link>
						<logginginfo>
							<description></description>
							<scene></scene>
							<shottake></shottake>
							<lognote></lognote>
						</logginginfo>
						<labels>
							<label2>Iris</label2>
						</labels>
					</clipitem>
					<transitionitem>
						<start>64886</start>
						<end>64899</end>
						<alignment>center</alignment>
						<cutPointTicks>60963840000</cutPointTicks>
						<rate>
							<timebase>25</timebase>
							<ntsc>FALSE</ntsc>
						</rate>
						<effect>
							<name>Cross Fade (+3dB)</name>
							<effectid>KGAudioTransCrossFade3dB</effectid>
							<effecttype>transition</effecttype>
							<mediatype>audio</mediatype>
							<wipecode>0</wipecode>
							<wipeaccuracy>100</wipeaccuracy>
							<startratio>0</startratio>
							<endratio>1</endratio>
							<reverse>FALSE</reverse>
						</effect>
					</transitionitem>
					<clipitem id="clipitem-901" premiereChannelType="stereo">
						<masterclipid>masterclip-124</masterclipid>
						<name>AA282301.MXF</name>
						<enabled>TRUE</enabled>
						<duration>2904</duration>
						<rate>
							<timebase>25</timebase>
							<ntsc>FALSE</ntsc>
						</rate>
						<start>-1</start>
						<end>65071</end>
						<in>2253</in>
						<out>2438</out>
						<pproTicksIn>22891921920000</pproTicksIn>
						<pproTicksOut>24771640320000</pproTicksOut>
						<file id="file-124"/>
						<sourcetrack>
							<mediatype>audio</mediatype>
							<trackindex>1</trackindex>
						</sourcetrack>
						<link>
							<linkclipref>clipitem-190</linkclipref>
							<mediatype>video</mediatype>
							<trackindex>1</trackindex>
							<clipindex>200</clipindex>
						</link>
						<link>
							<linkclipref>clipitem-807</linkclipref>
							<mediatype>audio</mediatype>
							<trackindex>8</trackindex>
							<clipindex>108</clipindex>
							<groupindex>1</groupindex>
						</link>
						<link>
							<linkclipref>clipitem-901</linkclipref>
							<mediatype>audio</mediatype>
							<trackindex>9</trackindex>
							<clipindex>106</clipindex>
							<groupindex>1</groupindex>
						</link>
						<logginginfo>
							<description></description>
							<scene></scene>
							<shottake></shottake>
							<lognote></lognote>
						</logginginfo>
						<labels>
							<label2>Iris</label2>
						</labels>
					</clipitem>
					<clipitem id="clipitem-902" premiereChannelType="stereo">
						<masterclipid>masterclip-126</masterclipid>
						<name>AA282201.MXF</name>
						<enabled>TRUE</enabled>
						<duration>228</duration>
						<rate>
							<timebase>25</timebase>
							<ntsc>FALSE</ntsc>
						</rate>
						<start>65071</start>
						<end>65203</end>
						<in>64</in>
						<out>196</out>
						<pproTicksIn>650280960000</pproTicksIn>
						<pproTicksOut>1991485440000</pproTicksOut>
						<file id="file-126"/>
						<sourcetrack>
							<mediatype>audio</mediatype>
							<trackindex>2</trackindex>
						</sourcetrack>
							<filter>
								<effect>
									<name>Audio Levels</name>
									<effectid>audiolevels</effectid>
									<effectcategory>audiolevels</effectcategory>
									<effecttype>audiolevels</effecttype>
									<mediatype>audio</mediatype>
									<parameter authoringApp="PremierePro">
										<parameterid>level</parameterid>
										<name>Level</name>
										<valuemin>0</valuemin>
										<valuemax>3.98109</valuemax>
										<value>0.0369493</value>
									</parameter>
								</effect>
							</filter>
						<link>
							<linkclipref>clipitem-191</linkclipref>
							<mediatype>video</mediatype>
							<trackindex>1</trackindex>
							<clipindex>201</clipindex>
						</link>
						<link>
							<linkclipref>clipitem-808</linkclipref>
							<mediatype>audio</mediatype>
							<trackindex>8</trackindex>
							<clipindex>109</clipindex>
							<groupindex>1</groupindex>
						</link>
						<link>
							<linkclipref>clipitem-902</linkclipref>
							<mediatype>audio</mediatype>
							<trackindex>9</trackindex>
							<clipindex>107</clipindex>
							<groupindex>1</groupindex>
						</link>
						<link>
							<linkclipref>clipitem-1248</linkclipref>
							<mediatype>audio</mediatype>
							<trackindex>12</trackindex>
							<clipindex>91</clipindex>
							<groupindex>1</groupindex>
						</link>
						<link>
							<linkclipref>clipitem-1333</linkclipref>
							<mediatype>audio</mediatype>
							<trackindex>13</trackindex>
							<clipindex>91</clipindex>
							<groupindex>1</groupindex>
						</link>
						<logginginfo>
							<description></description>
							<scene></scene>
							<shottake></shottake>
							<lognote></lognote>
						</logginginfo>
						<labels>
							<label2>Iris</label2>
						</labels>
					</clipitem>
					<clipitem id="clipitem-903" premiereChannelType="stereo">
						<masterclipid>masterclip-124</masterclipid>
						<name>AA282301.MXF</name>
						<enabled>TRUE</enabled>
						<duration>2904</duration>
						<rate>
							<timebase>25</timebase>
							<ntsc>FALSE</ntsc>
						</rate>
						<start>65203</start>
						<end>65568</end>
						<in>2524</in>
						<out>2889</out>
						<pproTicksIn>25645455360000</pproTicksIn>
						<pproTicksOut>29354088960000</pproTicksOut>
						<file id="file-124"/>
						<sourcetrack>
							<mediatype>audio</mediatype>
							<trackindex>1</trackindex>
						</sourcetrack>
							<filter>
								<effect>
									<name>Audio Levels</name>
									<effectid>audiolevels</effectid>
									<effectcategory>audiolevels</effectcategory>
									<effecttype>audiolevels</effecttype>
									<mediatype>audio</mediatype>
									<parameter authoringApp="PremierePro">
										<parameterid>level</parameterid>
										<name>Level</name>
										<valuemin>0</valuemin>
										<valuemax>3.98109</valuemax>
										<value>0</value>
										<keyframe>
											<when>2825</when>
											<value>0.99763</value>
										</keyframe>
										<keyframe>
											<when>2846</when>
											<value>0</value>
										</keyframe>
									</parameter>
								</effect>
							</filter>
						<link>
							<linkclipref>clipitem-192</linkclipref>
							<mediatype>video</mediatype>
							<trackindex>1</trackindex>
							<clipindex>202</clipindex>
						</link>
						<link>
							<linkclipref>clipitem-809</linkclipref>
							<mediatype>audio</mediatype>
							<trackindex>8</trackindex>
							<clipindex>110</clipindex>
							<groupindex>1</groupindex>
						</link>
						<link>
							<linkclipref>clipitem-903</linkclipref>
							<mediatype>audio</mediatype>
							<trackindex>9</trackindex>
							<clipindex>108</clipindex>
							<groupindex>1</groupindex>
						</link>
						<logginginfo>
							<description></description>
							<scene></scene>
							<shottake></shottake>
							<lognote></lognote>
						</logginginfo>
						<labels>
							<label2>Iris</label2>
						</labels>
					</clipitem>
					<transitionitem>
						<start>91782</start>
						<end>91795</end>
						<alignment>start-black</alignment>
						<cutPointTicks>0</cutPointTicks>
						<rate>
							<timebase>25</timebase>
							<ntsc>FALSE</ntsc>
						</rate>
						<effect>
							<name>Cross Fade (+3dB)</name>
							<effectid>KGAudioTransCrossFade3dB</effectid>
							<effecttype>transition</effecttype>
							<mediatype>audio</mediatype>
							<wipecode>0</wipecode>
							<wipeaccuracy>100</wipeaccuracy>
							<startratio>0</startratio>
							<endratio>1</endratio>
							<reverse>FALSE</reverse>
						</effect>
					</transitionitem>
					<clipitem id="clipitem-904" premiereChannelType="stereo">
						<masterclipid>masterclip-318</masterclipid>
						<name>Nordvisjon3MASTER kommentar.wav</name>
						<enabled>TRUE</enabled>
						<duration>42413</duration>
						<rate>
							<timebase>25</timebase>
							<ntsc>FALSE</ntsc>
						</rate>
						<start>-1</start>
						<end>-1</end>
						<in>21840</in>
						<out>22016</out>
						<pproTicksIn>221908377600000</pproTicksIn>
						<pproTicksOut>223696650240000</pproTicksOut>
						<file id="file-318"/>
						<sourcetrack>
							<mediatype>audio</mediatype>
							<trackindex>2</trackindex>
						</sourcetrack>
						<link>
							<linkclipref>clipitem-810</linkclipref>
							<mediatype>audio</mediatype>
							<trackindex>8</trackindex>
							<clipindex>112</clipindex>
							<groupindex>1</groupindex>
						</link>
						<link>
							<linkclipref>clipitem-904</linkclipref>
							<mediatype>audio</mediatype>
							<trackindex>9</trackindex>
							<clipindex>110</clipindex>
							<groupindex>1</groupindex>
						</link>
						<logginginfo>
							<description></description>
							<scene></scene>
							<shottake></shottake>
							<lognote></lognote>
						</logginginfo>
						<labels>
							<label2>Iris</label2>
						</labels>
					</clipitem>
					<transitionitem>
						<start>91945</start>
						<end>91958</end>
						<alignment>center</alignment>
						<cutPointTicks>60963840000</cutPointTicks>
						<rate>
							<timebase>25</timebase>
							<ntsc>FALSE</ntsc>
						</rate>
						<effect>
							<name>Cross Fade (+3dB)</name>
							<effectid>KGAudioTransCrossFade3dB</effectid>
							<effecttype>transition</effecttype>
							<mediatype>audio</mediatype>
							<wipecode>0</wipecode>
							<wipeaccuracy>100</wipeaccuracy>
							<startratio>0</startratio>
							<endratio>1</endratio>
							<reverse>FALSE</reverse>
						</effect>
					</transitionitem>
					<clipitem id="clipitem-905" premiereChannelType="stereo">
						<masterclipid>masterclip-318</masterclipid>
						<name>Nordvisjon3MASTER kommentar.wav</name>
						<enabled>TRUE</enabled>
						<duration>42413</duration>
						<rate>
							<timebase>25</timebase>
							<ntsc>FALSE</ntsc>
						</rate>
						<start>-1</start>
						<end>-1</end>
						<in>21697</in>
						<out>21840</out>
						<pproTicksIn>220455406080000</pproTicksIn>
						<pproTicksOut>221908377600000</pproTicksOut>
						<file id="file-318"/>
						<sourcetrack>
							<mediatype>audio</mediatype>
							<trackindex>2</trackindex>
						</sourcetrack>
						<link>
							<linkclipref>clipitem-811</linkclipref>
							<mediatype>audio</mediatype>
							<trackindex>8</trackindex>
							<clipindex>114</clipindex>
							<groupindex>1</groupindex>
						</link>
						<link>
							<linkclipref>clipitem-905</linkclipref>
							<mediatype>audio</mediatype>
							<trackindex>9</trackindex>
							<clipindex>112</clipindex>
							<groupindex>1</groupindex>
						</link>
						<logginginfo>
							<description></description>
							<scene></scene>
							<shottake></shottake>
							<lognote></lognote>
						</logginginfo>
						<labels>
							<label2>Iris</label2>
						</labels>
					</clipitem>
					<transitionitem>
						<start>92075</start>
						<end>92088</end>
						<alignment>end-black</alignment>
						<cutPointTicks>132088320000</cutPointTicks>
						<rate>
							<timebase>25</timebase>
							<ntsc>FALSE</ntsc>
						</rate>
						<effect>
							<name>Cross Fade (+3dB)</name>
							<effectid>KGAudioTransCrossFade3dB</effectid>
							<effecttype>transition</effecttype>
							<mediatype>audio</mediatype>
							<wipecode>0</wipecode>
							<wipeaccuracy>100</wipeaccuracy>
							<startratio>0</startratio>
							<endratio>1</endratio>
							<reverse>FALSE</reverse>
						</effect>
					</transitionitem>
					<transitionitem>
						<start>100013</start>
						<end>100026</end>
						<alignment>start-black</alignment>
						<cutPointTicks>0</cutPointTicks>
						<rate>
							<timebase>25</timebase>
							<ntsc>FALSE</ntsc>
						</rate>
						<effect>
							<name>Cross Fade (+3dB)</name>
							<effectid>KGAudioTransCrossFade3dB</effectid>
							<effecttype>transition</effecttype>
							<mediatype>audio</mediatype>
							<wipecode>0</wipecode>
							<wipeaccuracy>100</wipeaccuracy>
							<startratio>0</startratio>
							<endratio>1</endratio>
							<reverse>FALSE</reverse>
						</effect>
					</transitionitem>
					<clipitem id="clipitem-906" premiereChannelType="stereo">
						<masterclipid>masterclip-167</masterclipid>
						<name>AA280201.MXF</name>
						<enabled>TRUE</enabled>
						<duration>432</duration>
						<rate>
							<timebase>25</timebase>
							<ntsc>FALSE</ntsc>
						</rate>
						<start>-1</start>
						<end>-1</end>
						<in>189</in>
						<out>331</out>
						<pproTicksIn>1920360960000</pproTicksIn>
						<pproTicksOut>3363171840000</pproTicksOut>
						<file id="file-167"/>
						<sourcetrack>
							<mediatype>audio</mediatype>
							<trackindex>2</trackindex>
						</sourcetrack>
						<link>
							<linkclipref>clipitem-241</linkclipref>
							<mediatype>video</mediatype>
							<trackindex>1</trackindex>
							<clipindex>251</clipindex>
						</link>
						<link>
							<linkclipref>clipitem-812</linkclipref>
							<mediatype>audio</mediatype>
							<trackindex>8</trackindex>
							<clipindex>117</clipindex>
							<groupindex>1</groupindex>
						</link>
						<link>
							<linkclipref>clipitem-906</linkclipref>
							<mediatype>audio</mediatype>
							<trackindex>9</trackindex>
							<clipindex>115</clipindex>
							<groupindex>1</groupindex>
						</link>
						<logginginfo>
							<description></description>
							<scene></scene>
							<shottake></shottake>
							<lognote></lognote>
						</logginginfo>
						<labels>
							<label2>Iris</label2>
						</labels>
					</clipitem>
					<transitionitem>
						<start>100142</start>
						<end>100155</end>
						<alignment>center</alignment>
						<cutPointTicks>60963840000</cutPointTicks>
						<rate>
							<timebase>25</timebase>
							<ntsc>FALSE</ntsc>
						</rate>
						<effect>
							<name>Cross Fade (+3dB)</name>
							<effectid>KGAudioTransCrossFade3dB</effectid>
							<effecttype>transition</effecttype>
							<mediatype>audio</mediatype>
							<wipecode>0</wipecode>
							<wipeaccuracy>100</wipeaccuracy>
							<startratio>0</startratio>
							<endratio>1</endratio>
							<reverse>FALSE</reverse>
						</effect>
					</transitionitem>
					<clipitem id="clipitem-907" premiereChannelType="stereo">
						<masterclipid>masterclip-168</masterclipid>
						<name>AA282601.MXF</name>
						<enabled>TRUE</enabled>
						<duration>2568</duration>
						<rate>
							<timebase>25</timebase>
							<ntsc>FALSE</ntsc>
						</rate>
						<start>-1</start>
						<end>-1</end>
						<in>1619</in>
						<out>1706</out>
						<pproTicksIn>16450076160000</pproTicksIn>
						<pproTicksOut>17334051840000</pproTicksOut>
						<file id="file-168"/>
						<sourcetrack>
							<mediatype>audio</mediatype>
							<trackindex>2</trackindex>
						</sourcetrack>
						<link>
							<linkclipref>clipitem-242</linkclipref>
							<mediatype>video</mediatype>
							<trackindex>1</trackindex>
							<clipindex>252</clipindex>
						</link>
						<link>
							<linkclipref>clipitem-813</linkclipref>
							<mediatype>audio</mediatype>
							<trackindex>8</trackindex>
							<clipindex>119</clipindex>
							<groupindex>1</groupindex>
						</link>
						<link>
							<linkclipref>clipitem-907</linkclipref>
							<mediatype>audio</mediatype>
							<trackindex>9</trackindex>
							<clipindex>117</clipindex>
							<groupindex>1</groupindex>
						</link>
						<link>
							<linkclipref>clipitem-1270</linkclipref>
							<mediatype>audio</mediatype>
							<trackindex>12</trackindex>
							<clipindex>137</clipindex>
							<groupindex>1</groupindex>
						</link>
						<link>
							<linkclipref>clipitem-1355</linkclipref>
							<mediatype>audio</mediatype>
							<trackindex>13</trackindex>
							<clipindex>137</clipindex>
							<groupindex>1</groupindex>
						</link>
						<logginginfo>
							<description></description>
							<scene></scene>
							<shottake></shottake>
							<lognote></lognote>
						</logginginfo>
						<labels>
							<label2>Iris</label2>
						</labels>
					</clipitem>
					<transitionitem>
						<start>100216</start>
						<end>100229</end>
						<alignment>start</alignment>
						<cutPointTicks>0</cutPointTicks>
						<rate>
							<timebase>25</timebase>
							<ntsc>FALSE</ntsc>
						</rate>
						<effect>
							<name>Cross Fade (+3dB)</name>
							<effectid>KGAudioTransCrossFade3dB</effectid>
							<effecttype>transition</effecttype>
							<mediatype>audio</mediatype>
							<wipecode>0</wipecode>
							<wipeaccuracy>100</wipeaccuracy>
							<startratio>0</startratio>
							<endratio>1</endratio>
							<reverse>FALSE</reverse>
						</effect>
					</transitionitem>
					<clipitem id="clipitem-908" premiereChannelType="stereo">
						<masterclipid>masterclip-169</masterclipid>
						<name>AA279001.MXF</name>
						<enabled>TRUE</enabled>
						<duration>132</duration>
						<rate>
							<timebase>25</timebase>
							<ntsc>FALSE</ntsc>
						</rate>
						<start>-1</start>
						<end>100295</end>
						<in>0</in>
						<out>79</out>
						<pproTicksIn>0</pproTicksIn>
						<pproTicksOut>802690560000</pproTicksOut>
						<file id="file-169"/>
						<sourcetrack>
							<mediatype>audio</mediatype>
							<trackindex>2</trackindex>
						</sourcetrack>
						<link>
							<linkclipref>clipitem-243</linkclipref>
							<mediatype>video</mediatype>
							<trackindex>1</trackindex>
							<clipindex>253</clipindex>
						</link>
						<link>
							<linkclipref>clipitem-814</linkclipref>
							<mediatype>audio</mediatype>
							<trackindex>8</trackindex>
							<clipindex>121</clipindex>
							<groupindex>1</groupindex>
						</link>
						<link>
							<linkclipref>clipitem-908</linkclipref>
							<mediatype>audio</mediatype>
							<trackindex>9</trackindex>
							<clipindex>119</clipindex>
							<groupindex>1</groupindex>
						</link>
						<logginginfo>
							<description></description>
							<scene></scene>
							<shottake></shottake>
							<lognote></lognote>
						</logginginfo>
						<labels>
							<label2>Iris</label2>
						</labels>
					</clipitem>
					<clipitem id="clipitem-909" premiereChannelType="stereo">
						<masterclipid>masterclip-170</masterclipid>
						<name>AA280001.MXF</name>
						<enabled>TRUE</enabled>
						<duration>1248</duration>
						<rate>
							<timebase>25</timebase>
							<ntsc>FALSE</ntsc>
						</rate>
						<start>100295</start>
						<end>101024</end>
						<in>458</in>
						<out>1187</out>
						<pproTicksIn>4653573120000</pproTicksIn>
						<pproTicksOut>12060679680000</pproTicksOut>
						<file id="file-170"/>
						<sourcetrack>
							<mediatype>audio</mediatype>
							<trackindex>1</trackindex>
						</sourcetrack>
						<link>
							<linkclipref>clipitem-244</linkclipref>
							<mediatype>video</mediatype>
							<trackindex>1</trackindex>
							<clipindex>254</clipindex>
						</link>
						<link>
							<linkclipref>clipitem-815</linkclipref>
							<mediatype>audio</mediatype>
							<trackindex>8</trackindex>
							<clipindex>122</clipindex>
							<groupindex>1</groupindex>
						</link>
						<link>
							<linkclipref>clipitem-909</linkclipref>
							<mediatype>audio</mediatype>
							<trackindex>9</trackindex>
							<clipindex>120</clipindex>
							<groupindex>1</groupindex>
						</link>
						<logginginfo>
							<description></description>
							<scene></scene>
							<shottake></shottake>
							<lognote></lognote>
						</logginginfo>
						<labels>
							<label2>Iris</label2>
						</labels>
					</clipitem>
					<enabled>TRUE</enabled>
					<locked>FALSE</locked>
					<outputchannelindex>2</outputchannelindex>
				</track>
				<track TL.SQTrackAudioKeyframeStyle="0" TL.SQTrackShy="0" TL.SQTrackExpandedHeight="58" TL.SQTrackExpanded="1" MZ.TrackTargeted="1" PannerCurrentValue="0.5" PannerIsInverted="true" PannerStartKeyframe="-91445760000000000,0.5,0,0,0,0,0,0" PannerName="Balance" currentExplodedTrackIndex="0" totalExplodedTrackCount="2" premiereTrackType="Stereo">
					<clipitem id="clipitem-910" premiereChannelType="stereo">
						<masterclipid>masterclip-10</masterclipid>
						<name>AA260901.MXF</name>
						<enabled>TRUE</enabled>
						<duration>1164</duration>
						<rate>
							<timebase>25</timebase>
							<ntsc>FALSE</ntsc>
						</rate>
						<start>506</start>
						<end>-1</end>
						<in>144</in>
						<out>492</out>
						<pproTicksIn>1463132160000</pproTicksIn>
						<pproTicksOut>4999034880000</pproTicksOut>
						<file id="file-10"/>
						<sourcetrack>
							<mediatype>audio</mediatype>
							<trackindex>2</trackindex>
						</sourcetrack>
							<filter>
								<effect>
									<name>Audio Levels</name>
									<effectid>audiolevels</effectid>
									<effectcategory>audiolevels</effectcategory>
									<effecttype>audiolevels</effecttype>
									<mediatype>audio</mediatype>
									<parameter authoringApp="PremierePro">
										<parameterid>level</parameterid>
										<name>Level</name>
										<valuemin>0</valuemin>
										<valuemax>3.98109</valuemax>
										<value>0.99763</value>
										<keyframe>
											<when>157</when>
											<value>0</value>
										</keyframe>
										<keyframe>
											<when>180</when>
											<value>0.99763</value>
										</keyframe>
									</parameter>
								</effect>
							</filter>
						<link>
							<linkclipref>clipitem-910</linkclipref>
							<mediatype>audio</mediatype>
							<trackindex>10</trackindex>
							<clipindex>1</clipindex>
							<groupindex>1</groupindex>
						</link>
						<link>
							<linkclipref>clipitem-1050</linkclipref>
							<mediatype>audio</mediatype>
							<trackindex>11</trackindex>
							<clipindex>1</clipindex>
							<groupindex>1</groupindex>
						</link>
						<logginginfo>
							<description></description>
							<scene></scene>
							<shottake></shottake>
							<lognote></lognote>
						</logginginfo>
						<labels>
							<label2>Iris</label2>
						</labels>
					</clipitem>
					<transitionitem>
						<start>841</start>
						<end>854</end>
						<alignment>center</alignment>
						<cutPointTicks>60963840000</cutPointTicks>
						<rate>
							<timebase>25</timebase>
							<ntsc>FALSE</ntsc>
						</rate>
						<effect>
							<name>Cross Fade (+3dB)</name>
							<effectid>KGAudioTransCrossFade3dB</effectid>
							<effecttype>transition</effecttype>
							<mediatype>audio</mediatype>
							<wipecode>0</wipecode>
							<wipeaccuracy>100</wipeaccuracy>
							<startratio>0</startratio>
							<endratio>1</endratio>
							<reverse>FALSE</reverse>
						</effect>
					</transitionitem>
					<clipitem id="clipitem-911" premiereChannelType="stereo">
						<masterclipid>masterclip-10</masterclipid>
						<name>AA260901.MXF</name>
						<enabled>TRUE</enabled>
						<duration>1164</duration>
						<rate>
							<timebase>25</timebase>
							<ntsc>FALSE</ntsc>
						</rate>
						<start>-1</start>
						<end>1203</end>
						<in>646</in>
						<out>1008</out>
						<pproTicksIn>6563773440000</pproTicksIn>
						<pproTicksOut>10241925120000</pproTicksOut>
						<file id="file-10"/>
						<sourcetrack>
							<mediatype>audio</mediatype>
							<trackindex>2</trackindex>
						</sourcetrack>
							<filter>
								<effect>
									<name>Audio Levels</name>
									<effectid>audiolevels</effectid>
									<effectcategory>audiolevels</effectcategory>
									<effecttype>audiolevels</effecttype>
									<mediatype>audio</mediatype>
									<parameter authoringApp="PremierePro">
										<parameterid>level</parameterid>
										<name>Level</name>
										<valuemin>0</valuemin>
										<valuemax>3.98109</valuemax>
										<value>0.99763</value>
										<keyframe>
											<when>157</when>
											<value>0</value>
										</keyframe>
										<keyframe>
											<when>180</when>
											<value>0.99763</value>
										</keyframe>
									</parameter>
								</effect>
							</filter>
						<link>
							<linkclipref>clipitem-911</linkclipref>
							<mediatype>audio</mediatype>
							<trackindex>10</trackindex>
							<clipindex>3</clipindex>
							<groupindex>1</groupindex>
						</link>
						<link>
							<linkclipref>clipitem-1051</linkclipref>
							<mediatype>audio</mediatype>
							<trackindex>11</trackindex>
							<clipindex>3</clipindex>
							<groupindex>1</groupindex>
						</link>
						<logginginfo>
							<description></description>
							<scene></scene>
							<shottake></shottake>
							<lognote></lognote>
						</logginginfo>
						<labels>
							<label2>Iris</label2>
						</labels>
					</clipitem>
					<clipitem id="clipitem-912" premiereChannelType="stereo">
						<masterclipid>masterclip-13</masterclipid>
						<name>Nordvisjon3MASTER i-lyd.mxf</name>
						<enabled>TRUE</enabled>
						<duration>712</duration>
						<rate>
							<timebase>25</timebase>
							<ntsc>FALSE</ntsc>
						</rate>
						<start>1960</start>
						<end>2122</end>
						<in>194</in>
						<out>356</out>
						<pproTicksIn>1971164160000</pproTicksIn>
						<pproTicksOut>3617187840000</pproTicksOut>
						<file id="file-13"/>
						<sourcetrack>
							<mediatype>audio</mediatype>
							<trackindex>1</trackindex>
						</sourcetrack>
							<filter>
								<effect>
									<name>Audio Levels</name>
									<effectid>audiolevels</effectid>
									<effectcategory>audiolevels</effectcategory>
									<effecttype>audiolevels</effecttype>
									<mediatype>audio</mediatype>
									<parameter authoringApp="PremierePro">
										<parameterid>level</parameterid>
										<name>Level</name>
										<valuemin>0</valuemin>
										<valuemax>3.98109</valuemax>
										<value>0.332543</value>
										<keyframe>
											<when>194</when>
											<value>0</value>
										</keyframe>
										<keyframe>
											<when>218</when>
											<value>0.502642</value>
										</keyframe>
										<keyframe>
											<when>305</when>
											<value>0.502642</value>
										</keyframe>
										<keyframe>
											<when>326</when>
											<value>0</value>
										</keyframe>
										<keyframe>
											<when>566</when>
											<value>0.737379</value>
										</keyframe>
										<keyframe>
											<when>598</when>
											<value>0.332543</value>
										</keyframe>
									</parameter>
								</effect>
							</filter>
						<link>
							<linkclipref>clipitem-912</linkclipref>
							<mediatype>audio</mediatype>
							<trackindex>10</trackindex>
							<clipindex>4</clipindex>
							<groupindex>1</groupindex>
						</link>
						<link>
							<linkclipref>clipitem-1052</linkclipref>
							<mediatype>audio</mediatype>
							<trackindex>11</trackindex>
							<clipindex>4</clipindex>
							<groupindex>1</groupindex>
						</link>
						<logginginfo>
							<description></description>
							<scene></scene>
							<shottake></shottake>
							<lognote></lognote>
						</logginginfo>
						<labels>
							<label2>Iris</label2>
						</labels>
					</clipitem>
					<clipitem id="clipitem-913" premiereChannelType="stereo">
						<masterclipid>masterclip-23</masterclipid>
						<name>AA262501.MXF</name>
						<enabled>TRUE</enabled>
						<duration>1800</duration>
						<rate>
							<timebase>25</timebase>
							<ntsc>FALSE</ntsc>
						</rate>
						<start>3396</start>
						<end>-1</end>
						<in>459</in>
						<out>600</out>
						<pproTicksIn>4663733760000</pproTicksIn>
						<pproTicksOut>6096384000000</pproTicksOut>
						<file id="file-23"/>
						<sourcetrack>
							<mediatype>audio</mediatype>
							<trackindex>2</trackindex>
						</sourcetrack>
						<link>
							<linkclipref>clipitem-913</linkclipref>
							<mediatype>audio</mediatype>
							<trackindex>10</trackindex>
							<clipindex>5</clipindex>
							<groupindex>1</groupindex>
						</link>
						<link>
							<linkclipref>clipitem-1053</linkclipref>
							<mediatype>audio</mediatype>
							<trackindex>11</trackindex>
							<clipindex>5</clipindex>
							<groupindex>1</groupindex>
						</link>
						<logginginfo>
							<description></description>
							<scene></scene>
							<shottake></shottake>
							<lognote></lognote>
						</logginginfo>
						<labels>
							<label2>Iris</label2>
						</labels>
					</clipitem>
					<transitionitem>
						<start>3533</start>
						<end>3537</end>
						<alignment>end-black</alignment>
						<cutPointTicks>40642560000</cutPointTicks>
						<rate>
							<timebase>25</timebase>
							<ntsc>FALSE</ntsc>
						</rate>
						<effect>
							<name>Cross Fade (+3dB)</name>
							<effectid>KGAudioTransCrossFade3dB</effectid>
							<effecttype>transition</effecttype>
							<mediatype>audio</mediatype>
							<wipecode>0</wipecode>
							<wipeaccuracy>100</wipeaccuracy>
							<startratio>0</startratio>
							<endratio>1</endratio>
							<reverse>FALSE</reverse>
						</effect>
					</transitionitem>
					<clipitem id="clipitem-914" premiereChannelType="stereo">
						<masterclipid>masterclip-25</masterclipid>
						<name>AA262801.MXF</name>
						<enabled>TRUE</enabled>
						<duration>3660</duration>
						<rate>
							<timebase>25</timebase>
							<ntsc>FALSE</ntsc>
						</rate>
						<start>4087</start>
						<end>4202</end>
						<in>319</in>
						<out>434</out>
						<pproTicksIn>3241244160000</pproTicksIn>
						<pproTicksOut>4409717760000</pproTicksOut>
						<file id="file-25"/>
						<sourcetrack>
							<mediatype>audio</mediatype>
							<trackindex>1</trackindex>
						</sourcetrack>
						<link>
							<linkclipref>clipitem-268</linkclipref>
							<mediatype>video</mediatype>
							<trackindex>2</trackindex>
							<clipindex>12</clipindex>
						</link>
						<link>
							<linkclipref>clipitem-914</linkclipref>
							<mediatype>audio</mediatype>
							<trackindex>10</trackindex>
							<clipindex>7</clipindex>
							<groupindex>1</groupindex>
						</link>
						<link>
							<linkclipref>clipitem-1054</linkclipref>
							<mediatype>audio</mediatype>
							<trackindex>11</trackindex>
							<clipindex>7</clipindex>
							<groupindex>1</groupindex>
						</link>
						<logginginfo>
							<description></description>
							<scene></scene>
							<shottake></shottake>
							<lognote></lognote>
						</logginginfo>
						<labels>
							<label2>Iris</label2>
						</labels>
					</clipitem>
					<clipitem id="clipitem-915" premiereChannelType="stereo">
						<masterclipid>masterclip-182</masterclipid>
						<name>AA262601.MXF</name>
						<enabled>TRUE</enabled>
						<duration>2076</duration>
						<rate>
							<timebase>25</timebase>
							<ntsc>FALSE</ntsc>
						</rate>
						<start>4202</start>
						<end>-1</end>
						<in>256</in>
						<out>387</out>
						<pproTicksIn>2601123840000</pproTicksIn>
						<pproTicksOut>3932167680000</pproTicksOut>
						<file id="file-182"/>
						<sourcetrack>
							<mediatype>audio</mediatype>
							<trackindex>1</trackindex>
						</sourcetrack>
						<link>
							<linkclipref>clipitem-269</linkclipref>
							<mediatype>video</mediatype>
							<trackindex>2</trackindex>
							<clipindex>13</clipindex>
						</link>
						<link>
							<linkclipref>clipitem-915</linkclipref>
							<mediatype>audio</mediatype>
							<trackindex>10</trackindex>
							<clipindex>8</clipindex>
							<groupindex>1</groupindex>
						</link>
						<link>
							<linkclipref>clipitem-1055</linkclipref>
							<mediatype>audio</mediatype>
							<trackindex>11</trackindex>
							<clipindex>8</clipindex>
							<groupindex>1</groupindex>
						</link>
						<logginginfo>
							<description></description>
							<scene></scene>
							<shottake></shottake>
							<lognote></lognote>
						</logginginfo>
						<labels>
							<label2>Iris</label2>
						</labels>
					</clipitem>
					<transitionitem>
						<start>4320</start>
						<end>4333</end>
						<alignment>center</alignment>
						<cutPointTicks>60963840000</cutPointTicks>
						<rate>
							<timebase>25</timebase>
							<ntsc>FALSE</ntsc>
						</rate>
						<effect>
							<name>Cross Fade (+3dB)</name>
							<effectid>KGAudioTransCrossFade3dB</effectid>
							<effecttype>transition</effecttype>
							<mediatype>audio</mediatype>
							<wipecode>0</wipecode>
							<wipeaccuracy>100</wipeaccuracy>
							<startratio>0</startratio>
							<endratio>1</endratio>
							<reverse>FALSE</reverse>
						</effect>
					</transitionitem>
					<clipitem id="clipitem-916" premiereChannelType="stereo">
						<masterclipid>masterclip-25</masterclipid>
						<name>AA262801.MXF</name>
						<enabled>TRUE</enabled>
						<duration>3660</duration>
						<rate>
							<timebase>25</timebase>
							<ntsc>FALSE</ntsc>
						</rate>
						<start>-1</start>
						<end>4450</end>
						<in>428</in>
						<out>558</out>
						<pproTicksIn>4348753920000</pproTicksIn>
						<pproTicksOut>5669637120000</pproTicksOut>
						<file id="file-25"/>
						<sourcetrack>
							<mediatype>audio</mediatype>
							<trackindex>1</trackindex>
						</sourcetrack>
						<link>
							<linkclipref>clipitem-31</linkclipref>
							<mediatype>video</mediatype>
							<trackindex>1</trackindex>
							<clipindex>31</clipindex>
						</link>
						<link>
							<linkclipref>clipitem-916</linkclipref>
							<mediatype>audio</mediatype>
							<trackindex>10</trackindex>
							<clipindex>10</clipindex>
							<groupindex>1</groupindex>
						</link>
						<link>
							<linkclipref>clipitem-1056</linkclipref>
							<mediatype>audio</mediatype>
							<trackindex>11</trackindex>
							<clipindex>10</clipindex>
							<groupindex>1</groupindex>
						</link>
						<logginginfo>
							<description></description>
							<scene></scene>
							<shottake></shottake>
							<lognote></lognote>
						</logginginfo>
						<labels>
							<label2>Iris</label2>
						</labels>
					</clipitem>
					<clipitem id="clipitem-917" premiereChannelType="stereo">
						<masterclipid>masterclip-25</masterclipid>
						<name>AA262801.MXF</name>
						<enabled>TRUE</enabled>
						<duration>3660</duration>
						<rate>
							<timebase>25</timebase>
							<ntsc>FALSE</ntsc>
						</rate>
						<start>4450</start>
						<end>-1</end>
						<in>937</in>
						<out>1178</out>
						<pproTicksIn>9520519680000</pproTicksIn>
						<pproTicksOut>11969233920000</pproTicksOut>
						<file id="file-25"/>
						<sourcetrack>
							<mediatype>audio</mediatype>
							<trackindex>1</trackindex>
						</sourcetrack>
						<link>
							<linkclipref>clipitem-32</linkclipref>
							<mediatype>video</mediatype>
							<trackindex>1</trackindex>
							<clipindex>32</clipindex>
						</link>
						<link>
							<linkclipref>clipitem-917</linkclipref>
							<mediatype>audio</mediatype>
							<trackindex>10</trackindex>
							<clipindex>11</clipindex>
							<groupindex>1</groupindex>
						</link>
						<link>
							<linkclipref>clipitem-1057</linkclipref>
							<mediatype>audio</mediatype>
							<trackindex>11</trackindex>
							<clipindex>11</clipindex>
							<groupindex>1</groupindex>
						</link>
						<logginginfo>
							<description></description>
							<scene></scene>
							<shottake></shottake>
							<lognote></lognote>
						</logginginfo>
						<labels>
							<label2>Iris</label2>
						</labels>
					</clipitem>
					<transitionitem>
						<start>4690</start>
						<end>4691</end>
						<alignment>end-black</alignment>
						<cutPointTicks>10160640000</cutPointTicks>
						<rate>
							<timebase>25</timebase>
							<ntsc>FALSE</ntsc>
						</rate>
						<effect>
							<name>Cross Fade (+3dB)</name>
							<effectid>KGAudioTransCrossFade3dB</effectid>
							<effecttype>transition</effecttype>
							<mediatype>audio</mediatype>
							<wipecode>0</wipecode>
							<wipeaccuracy>100</wipeaccuracy>
							<startratio>0</startratio>
							<endratio>1</endratio>
							<reverse>FALSE</reverse>
						</effect>
					</transitionitem>
					<clipitem id="clipitem-918" premiereChannelType="stereo">
						<masterclipid>masterclip-25</masterclipid>
						<name>AA262801.MXF</name>
						<enabled>TRUE</enabled>
						<duration>3660</duration>
						<rate>
							<timebase>25</timebase>
							<ntsc>FALSE</ntsc>
						</rate>
						<start>4762</start>
						<end>4948</end>
						<in>3245</in>
						<out>3431</out>
						<pproTicksIn>32971276800000</pproTicksIn>
						<pproTicksOut>34861155840000</pproTicksOut>
						<file id="file-25"/>
						<sourcetrack>
							<mediatype>audio</mediatype>
							<trackindex>1</trackindex>
						</sourcetrack>
						<link>
							<linkclipref>clipitem-33</linkclipref>
							<mediatype>video</mediatype>
							<trackindex>1</trackindex>
							<clipindex>33</clipindex>
						</link>
						<link>
							<linkclipref>clipitem-918</linkclipref>
							<mediatype>audio</mediatype>
							<trackindex>10</trackindex>
							<clipindex>13</clipindex>
							<groupindex>1</groupindex>
						</link>
						<link>
							<linkclipref>clipitem-1058</linkclipref>
							<mediatype>audio</mediatype>
							<trackindex>11</trackindex>
							<clipindex>13</clipindex>
							<groupindex>1</groupindex>
						</link>
						<logginginfo>
							<description></description>
							<scene></scene>
							<shottake></shottake>
							<lognote></lognote>
						</logginginfo>
						<labels>
							<label2>Iris</label2>
						</labels>
					</clipitem>
					<clipitem id="clipitem-919" premiereChannelType="stereo">
						<masterclipid>masterclip-26</masterclipid>
						<name>AA263101.MXF</name>
						<enabled>TRUE</enabled>
						<duration>3336</duration>
						<rate>
							<timebase>25</timebase>
							<ntsc>FALSE</ntsc>
						</rate>
						<start>4948</start>
						<end>5463</end>
						<in>175</in>
						<out>690</out>
						<pproTicksIn>1778112000000</pproTicksIn>
						<pproTicksOut>7010841600000</pproTicksOut>
						<file id="file-26"/>
						<sourcetrack>
							<mediatype>audio</mediatype>
							<trackindex>1</trackindex>
						</sourcetrack>
						<link>
							<linkclipref>clipitem-34</linkclipref>
							<mediatype>video</mediatype>
							<trackindex>1</trackindex>
							<clipindex>34</clipindex>
						</link>
						<link>
							<linkclipref>clipitem-919</linkclipref>
							<mediatype>audio</mediatype>
							<trackindex>10</trackindex>
							<clipindex>14</clipindex>
							<groupindex>1</groupindex>
						</link>
						<link>
							<linkclipref>clipitem-1059</linkclipref>
							<mediatype>audio</mediatype>
							<trackindex>11</trackindex>
							<clipindex>14</clipindex>
							<groupindex>1</groupindex>
						</link>
						<logginginfo>
							<description></description>
							<scene></scene>
							<shottake></shottake>
							<lognote></lognote>
						</logginginfo>
						<labels>
							<label2>Iris</label2>
						</labels>
					</clipitem>
					<clipitem id="clipitem-920" premiereChannelType="stereo">
						<masterclipid>masterclip-26</masterclipid>
						<name>AA263101.MXF</name>
						<enabled>TRUE</enabled>
						<duration>3336</duration>
						<rate>
							<timebase>25</timebase>
							<ntsc>FALSE</ntsc>
						</rate>
						<start>5463</start>
						<end>5962</end>
						<in>1499</in>
						<out>1998</out>
						<pproTicksIn>15230799360000</pproTicksIn>
						<pproTicksOut>20300958720000</pproTicksOut>
						<file id="file-26"/>
						<sourcetrack>
							<mediatype>audio</mediatype>
							<trackindex>1</trackindex>
						</sourcetrack>
						<link>
							<linkclipref>clipitem-35</linkclipref>
							<mediatype>video</mediatype>
							<trackindex>1</trackindex>
							<clipindex>35</clipindex>
						</link>
						<link>
							<linkclipref>clipitem-920</linkclipref>
							<mediatype>audio</mediatype>
							<trackindex>10</trackindex>
							<clipindex>15</clipindex>
							<groupindex>1</groupindex>
						</link>
						<link>
							<linkclipref>clipitem-1060</linkclipref>
							<mediatype>audio</mediatype>
							<trackindex>11</trackindex>
							<clipindex>15</clipindex>
							<groupindex>1</groupindex>
						</link>
						<logginginfo>
							<description></description>
							<scene></scene>
							<shottake></shottake>
							<lognote></lognote>
						</logginginfo>
						<labels>
							<label2>Iris</label2>
						</labels>
					</clipitem>
					<clipitem id="clipitem-921" premiereChannelType="stereo">
						<masterclipid>masterclip-26</masterclipid>
						<name>AA263101.MXF</name>
						<enabled>TRUE</enabled>
						<duration>3336</duration>
						<rate>
							<timebase>25</timebase>
							<ntsc>FALSE</ntsc>
						</rate>
						<start>5997</start>
						<end>6052</end>
						<in>1998</in>
						<out>2053</out>
						<pproTicksIn>20300958720000</pproTicksIn>
						<pproTicksOut>20859793920000</pproTicksOut>
						<file id="file-26"/>
						<sourcetrack>
							<mediatype>audio</mediatype>
							<trackindex>2</trackindex>
						</sourcetrack>
						<link>
							<linkclipref>clipitem-921</linkclipref>
							<mediatype>audio</mediatype>
							<trackindex>10</trackindex>
							<clipindex>16</clipindex>
							<groupindex>1</groupindex>
						</link>
						<link>
							<linkclipref>clipitem-1061</linkclipref>
							<mediatype>audio</mediatype>
							<trackindex>11</trackindex>
							<clipindex>16</clipindex>
							<groupindex>1</groupindex>
						</link>
						<logginginfo>
							<description></description>
							<scene></scene>
							<shottake></shottake>
							<lognote></lognote>
						</logginginfo>
						<labels>
							<label2>Iris</label2>
						</labels>
					</clipitem>
					<clipitem id="clipitem-922" premiereChannelType="stereo">
						<masterclipid>masterclip-185</masterclipid>
						<name>AA263201.MXF</name>
						<enabled>TRUE</enabled>
						<duration>4740</duration>
						<rate>
							<timebase>25</timebase>
							<ntsc>FALSE</ntsc>
						</rate>
						<start>6181</start>
						<end>-1</end>
						<in>2513</in>
						<out>2648</out>
						<pproTicksIn>25533688320000</pproTicksIn>
						<pproTicksOut>26905374720000</pproTicksOut>
						<file id="file-185"/>
						<sourcetrack>
							<mediatype>audio</mediatype>
							<trackindex>2</trackindex>
						</sourcetrack>
						<link>
							<linkclipref>clipitem-274</linkclipref>
							<mediatype>video</mediatype>
							<trackindex>2</trackindex>
							<clipindex>18</clipindex>
						</link>
						<link>
							<linkclipref>clipitem-922</linkclipref>
							<mediatype>audio</mediatype>
							<trackindex>10</trackindex>
							<clipindex>17</clipindex>
							<groupindex>1</groupindex>
						</link>
						<link>
							<linkclipref>clipitem-1062</linkclipref>
							<mediatype>audio</mediatype>
							<trackindex>11</trackindex>
							<clipindex>17</clipindex>
							<groupindex>1</groupindex>
						</link>
						<logginginfo>
							<description></description>
							<scene></scene>
							<shottake></shottake>
							<lognote></lognote>
						</logginginfo>
						<labels>
							<label2>Iris</label2>
						</labels>
					</clipitem>
					<transitionitem>
						<start>6313</start>
						<end>6316</end>
						<alignment>center</alignment>
						<cutPointTicks>10160640000</cutPointTicks>
						<rate>
							<timebase>25</timebase>
							<ntsc>FALSE</ntsc>
						</rate>
						<effect>
							<name>Cross Fade (+3dB)</name>
							<effectid>KGAudioTransCrossFade3dB</effectid>
							<effecttype>transition</effecttype>
							<mediatype>audio</mediatype>
							<wipecode>0</wipecode>
							<wipeaccuracy>100</wipeaccuracy>
							<startratio>0</startratio>
							<endratio>1</endratio>
							<reverse>FALSE</reverse>
						</effect>
					</transitionitem>
					<clipitem id="clipitem-923" premiereChannelType="stereo">
						<masterclipid>masterclip-186</masterclipid>
						<name>AA263501.MXF</name>
						<enabled>TRUE</enabled>
						<duration>2556</duration>
						<rate>
							<timebase>25</timebase>
							<ntsc>FALSE</ntsc>
						</rate>
						<start>-1</start>
						<end>6495</end>
						<in>502</in>
						<out>684</out>
						<pproTicksIn>5100641280000</pproTicksIn>
						<pproTicksOut>6949877760000</pproTicksOut>
						<file id="file-186"/>
						<sourcetrack>
							<mediatype>audio</mediatype>
							<trackindex>2</trackindex>
						</sourcetrack>
						<link>
							<linkclipref>clipitem-275</linkclipref>
							<mediatype>video</mediatype>
							<trackindex>2</trackindex>
							<clipindex>19</clipindex>
						</link>
						<link>
							<linkclipref>clipitem-923</linkclipref>
							<mediatype>audio</mediatype>
							<trackindex>10</trackindex>
							<clipindex>19</clipindex>
							<groupindex>1</groupindex>
						</link>
						<link>
							<linkclipref>clipitem-1063</linkclipref>
							<mediatype>audio</mediatype>
							<trackindex>11</trackindex>
							<clipindex>19</clipindex>
							<groupindex>1</groupindex>
						</link>
						<logginginfo>
							<description></description>
							<scene></scene>
							<shottake></shottake>
							<lognote></lognote>
						</logginginfo>
						<labels>
							<label2>Iris</label2>
						</labels>
					</clipitem>
					<clipitem id="clipitem-924" premiereChannelType="stereo">
						<masterclipid>masterclip-185</masterclipid>
						<name>AA263201.MXF</name>
						<enabled>TRUE</enabled>
						<duration>4740</duration>
						<rate>
							<timebase>25</timebase>
							<ntsc>FALSE</ntsc>
						</rate>
						<start>6495</start>
						<end>6767</end>
						<in>3116</in>
						<out>3388</out>
						<pproTicksIn>31660554240000</pproTicksIn>
						<pproTicksOut>34424248320000</pproTicksOut>
						<file id="file-185"/>
						<sourcetrack>
							<mediatype>audio</mediatype>
							<trackindex>2</trackindex>
						</sourcetrack>
						<link>
							<linkclipref>clipitem-276</linkclipref>
							<mediatype>video</mediatype>
							<trackindex>2</trackindex>
							<clipindex>20</clipindex>
						</link>
						<link>
							<linkclipref>clipitem-924</linkclipref>
							<mediatype>audio</mediatype>
							<trackindex>10</trackindex>
							<clipindex>20</clipindex>
							<groupindex>1</groupindex>
						</link>
						<link>
							<linkclipref>clipitem-1064</linkclipref>
							<mediatype>audio</mediatype>
							<trackindex>11</trackindex>
							<clipindex>20</clipindex>
							<groupindex>1</groupindex>
						</link>
						<logginginfo>
							<description></description>
							<scene></scene>
							<shottake></shottake>
							<lognote></lognote>
						</logginginfo>
						<labels>
							<label2>Iris</label2>
						</labels>
					</clipitem>
					<clipitem id="clipitem-925" premiereChannelType="stereo">
						<masterclipid>masterclip-185</masterclipid>
						<name>AA263201.MXF</name>
						<enabled>TRUE</enabled>
						<duration>4740</duration>
						<rate>
							<timebase>25</timebase>
							<ntsc>FALSE</ntsc>
						</rate>
						<start>6767</start>
						<end>7109</end>
						<in>4275</in>
						<out>4617</out>
						<pproTicksIn>43436736000000</pproTicksIn>
						<pproTicksOut>46911674880000</pproTicksOut>
						<file id="file-185"/>
						<sourcetrack>
							<mediatype>audio</mediatype>
							<trackindex>2</trackindex>
						</sourcetrack>
							<filter>
								<effect>
									<name>Audio Levels</name>
									<effectid>audiolevels</effectid>
									<effectcategory>audiolevels</effectcategory>
									<effecttype>audiolevels</effecttype>
									<mediatype>audio</mediatype>
									<parameter authoringApp="PremierePro">
										<parameterid>level</parameterid>
										<name>Level</name>
										<valuemin>0</valuemin>
										<valuemax>3.98109</valuemax>
										<value>0.886782</value>
									</parameter>
								</effect>
							</filter>
						<link>
							<linkclipref>clipitem-925</linkclipref>
							<mediatype>audio</mediatype>
							<trackindex>10</trackindex>
							<clipindex>21</clipindex>
							<groupindex>1</groupindex>
						</link>
						<link>
							<linkclipref>clipitem-1065</linkclipref>
							<mediatype>audio</mediatype>
							<trackindex>11</trackindex>
							<clipindex>21</clipindex>
							<groupindex>1</groupindex>
						</link>
						<logginginfo>
							<description></description>
							<scene></scene>
							<shottake></shottake>
							<lognote></lognote>
						</logginginfo>
						<labels>
							<label2>Iris</label2>
						</labels>
					</clipitem>
					<transitionitem>
						<start>11046</start>
						<end>11059</end>
						<alignment>start-black</alignment>
						<cutPointTicks>0</cutPointTicks>
						<rate>
							<timebase>25</timebase>
							<ntsc>FALSE</ntsc>
						</rate>
						<effect>
							<name>Cross Fade (+3dB)</name>
							<effectid>KGAudioTransCrossFade3dB</effectid>
							<effecttype>transition</effecttype>
							<mediatype>audio</mediatype>
							<wipecode>0</wipecode>
							<wipeaccuracy>100</wipeaccuracy>
							<startratio>0</startratio>
							<endratio>1</endratio>
							<reverse>FALSE</reverse>
						</effect>
					</transitionitem>
					<clipitem id="clipitem-926" premiereChannelType="stereo">
						<masterclipid>masterclip-30</masterclipid>
						<name>2015-12-19 11.39.19.mp4</name>
						<enabled>TRUE</enabled>
						<duration>2636</duration>
						<rate>
							<timebase>25</timebase>
							<ntsc>FALSE</ntsc>
						</rate>
						<start>-1</start>
						<end>-1</end>
						<in>1138</in>
						<out>1232</out>
						<pproTicksIn>11562808320000</pproTicksIn>
						<pproTicksOut>12517908480000</pproTicksOut>
						<file id="file-30"/>
						<sourcetrack>
							<mediatype>audio</mediatype>
							<trackindex>1</trackindex>
						</sourcetrack>
							<marker>
								<comment></comment>
								<name></name>
								<in>1131</in>
								<out>-1</out>
							</marker>
							<marker>
								<comment></comment>
								<name></name>
								<in>667</in>
								<out>-1</out>
							</marker>
						<link>
							<linkclipref>clipitem-926</linkclipref>
							<mediatype>audio</mediatype>
							<trackindex>10</trackindex>
							<clipindex>23</clipindex>
							<groupindex>1</groupindex>
						</link>
						<link>
							<linkclipref>clipitem-1066</linkclipref>
							<mediatype>audio</mediatype>
							<trackindex>11</trackindex>
							<clipindex>23</clipindex>
							<groupindex>1</groupindex>
						</link>
						<link>
							<linkclipref>clipitem-1212</linkclipref>
							<mediatype>audio</mediatype>
							<trackindex>12</trackindex>
							<clipindex>41</clipindex>
							<groupindex>1</groupindex>
						</link>
						<link>
							<linkclipref>clipitem-1297</linkclipref>
							<mediatype>audio</mediatype>
							<trackindex>13</trackindex>
							<clipindex>41</clipindex>
							<groupindex>1</groupindex>
						</link>
						<logginginfo>
							<description></description>
							<scene></scene>
							<shottake></shottake>
							<lognote></lognote>
						</logginginfo>
						<labels>
							<label2>Iris</label2>
						</labels>
					</clipitem>
					<transitionitem>
						<start>11127</start>
						<end>11140</end>
						<alignment>end-black</alignment>
						<cutPointTicks>132088320000</cutPointTicks>
						<rate>
							<timebase>25</timebase>
							<ntsc>FALSE</ntsc>
						</rate>
						<effect>
							<name>Cross Fade (+3dB)</name>
							<effectid>KGAudioTransCrossFade3dB</effectid>
							<effecttype>transition</effecttype>
							<mediatype>audio</mediatype>
							<wipecode>0</wipecode>
							<wipeaccuracy>100</wipeaccuracy>
							<startratio>0</startratio>
							<endratio>1</endratio>
							<reverse>FALSE</reverse>
						</effect>
					</transitionitem>
					<clipitem id="clipitem-927" premiereChannelType="stereo">
						<masterclipid>masterclip-30</masterclipid>
						<name>2015-12-19 11.39.19.mp4</name>
						<enabled>TRUE</enabled>
						<duration>2636</duration>
						<rate>
							<timebase>25</timebase>
							<ntsc>FALSE</ntsc>
						</rate>
						<start>16174</start>
						<end>16497</end>
						<in>1849</in>
						<out>2172</out>
						<pproTicksIn>18787023360000</pproTicksIn>
						<pproTicksOut>22068910080000</pproTicksOut>
						<file id="file-30"/>
						<sourcetrack>
							<mediatype>audio</mediatype>
							<trackindex>2</trackindex>
						</sourcetrack>
							<filter>
								<effect>
									<name>Audio Levels</name>
									<effectid>audiolevels</effectid>
									<effectcategory>audiolevels</effectcategory>
									<effecttype>audiolevels</effecttype>
									<mediatype>audio</mediatype>
									<parameter authoringApp="PremierePro">
										<parameterid>level</parameterid>
										<name>Level</name>
										<valuemin>0</valuemin>
										<valuemax>3.98109</valuemax>
										<value>0</value>
										<keyframe>
											<when>1870</when>
											<value>0</value>
										</keyframe>
										<keyframe>
											<when>1889</when>
											<value>0.349425</value>
										</keyframe>
										<keyframe>
											<when>1994</when>
											<value>0.548951</value>
										</keyframe>
										<keyframe>
											<when>2016</when>
											<value>0.599261</value>
										</keyframe>
										<keyframe>
											<when>2074</when>
											<value>0.599261</value>
										</keyframe>
										<keyframe>
											<when>2121</when>
											<value>0.224718</value>
										</keyframe>
										<keyframe>
											<when>2169</when>
											<value>0</value>
										</keyframe>
									</parameter>
								</effect>
							</filter>
							<marker>
								<comment></comment>
								<name></name>
								<in>1131</in>
								<out>-1</out>
							</marker>
							<marker>
								<comment></comment>
								<name></name>
								<in>667</in>
								<out>-1</out>
							</marker>
						<link>
							<linkclipref>clipitem-59</linkclipref>
							<mediatype>video</mediatype>
							<trackindex>1</trackindex>
							<clipindex>59</clipindex>
						</link>
						<link>
							<linkclipref>clipitem-927</linkclipref>
							<mediatype>audio</mediatype>
							<trackindex>10</trackindex>
							<clipindex>25</clipindex>
							<groupindex>1</groupindex>
						</link>
						<link>
							<linkclipref>clipitem-1067</linkclipref>
							<mediatype>audio</mediatype>
							<trackindex>11</trackindex>
							<clipindex>25</clipindex>
							<groupindex>1</groupindex>
						</link>
						<logginginfo>
							<description></description>
							<scene></scene>
							<shottake></shottake>
							<lognote></lognote>
						</logginginfo>
						<labels>
							<label2>Iris</label2>
						</labels>
					</clipitem>
					<clipitem id="clipitem-928" premiereChannelType="stereo">
						<masterclipid>masterclip-49</masterclipid>
						<name>20160520_075448.mp4</name>
						<enabled>TRUE</enabled>
						<duration>5580</duration>
						<rate>
							<timebase>25</timebase>
							<ntsc>FALSE</ntsc>
						</rate>
						<start>19978</start>
						<end>20156</end>
						<in>1955</in>
						<out>2133</out>
						<pproTicksIn>19864051200000</pproTicksIn>
						<pproTicksOut>21672645120000</pproTicksOut>
						<file id="file-49"/>
						<sourcetrack>
							<mediatype>audio</mediatype>
							<trackindex>1</trackindex>
						</sourcetrack>
							<marker>
								<comment></comment>
								<name></name>
								<in>5251</in>
								<out>-1</out>
							</marker>
						<link>
							<linkclipref>clipitem-62</linkclipref>
							<mediatype>video</mediatype>
							<trackindex>1</trackindex>
							<clipindex>62</clipindex>
						</link>
						<link>
							<linkclipref>clipitem-928</linkclipref>
							<mediatype>audio</mediatype>
							<trackindex>10</trackindex>
							<clipindex>26</clipindex>
							<groupindex>1</groupindex>
						</link>
						<link>
							<linkclipref>clipitem-1068</linkclipref>
							<mediatype>audio</mediatype>
							<trackindex>11</trackindex>
							<clipindex>26</clipindex>
							<groupindex>1</groupindex>
						</link>
						<logginginfo>
							<description></description>
							<scene></scene>
							<shottake></shottake>
							<lognote></lognote>
						</logginginfo>
						<labels>
							<label2>Iris</label2>
						</labels>
					</clipitem>
					<clipitem id="clipitem-929" premiereChannelType="stereo">
						<masterclipid>masterclip-50</masterclipid>
						<name>20160523_223257.mp4</name>
						<enabled>TRUE</enabled>
						<duration>1072</duration>
						<rate>
							<timebase>25</timebase>
							<ntsc>FALSE</ntsc>
						</rate>
						<start>20156</start>
						<end>20431</end>
						<in>13</in>
						<out>288</out>
						<pproTicksIn>132088320000</pproTicksIn>
						<pproTicksOut>2926264320000</pproTicksOut>
						<file id="file-50"/>
						<sourcetrack>
							<mediatype>audio</mediatype>
							<trackindex>1</trackindex>
						</sourcetrack>
						<link>
							<linkclipref>clipitem-63</linkclipref>
							<mediatype>video</mediatype>
							<trackindex>1</trackindex>
							<clipindex>63</clipindex>
						</link>
						<link>
							<linkclipref>clipitem-929</linkclipref>
							<mediatype>audio</mediatype>
							<trackindex>10</trackindex>
							<clipindex>27</clipindex>
							<groupindex>1</groupindex>
						</link>
						<link>
							<linkclipref>clipitem-1069</linkclipref>
							<mediatype>audio</mediatype>
							<trackindex>11</trackindex>
							<clipindex>27</clipindex>
							<groupindex>1</groupindex>
						</link>
						<logginginfo>
							<description></description>
							<scene></scene>
							<shottake></shottake>
							<lognote></lognote>
						</logginginfo>
						<labels>
							<label2>Iris</label2>
						</labels>
					</clipitem>
					<clipitem id="clipitem-930" premiereChannelType="stereo">
						<masterclipid>masterclip-51</masterclipid>
						<name>AA274501.MXF</name>
						<enabled>TRUE</enabled>
						<duration>1212</duration>
						<rate>
							<timebase>25</timebase>
							<ntsc>FALSE</ntsc>
						</rate>
						<start>20431</start>
						<end>20760</end>
						<in>642</in>
						<out>971</out>
						<pproTicksIn>6523130880000</pproTicksIn>
						<pproTicksOut>9865981440000</pproTicksOut>
						<file id="file-51"/>
						<sourcetrack>
							<mediatype>audio</mediatype>
							<trackindex>1</trackindex>
						</sourcetrack>
							<filter>
								<effect>
									<name>Audio Levels</name>
									<effectid>audiolevels</effectid>
									<effectcategory>audiolevels</effectcategory>
									<effecttype>audiolevels</effecttype>
									<mediatype>audio</mediatype>
									<parameter authoringApp="PremierePro">
										<parameterid>level</parameterid>
										<name>Level</name>
										<valuemin>0</valuemin>
										<valuemax>3.98109</valuemax>
										<value>0.870273</value>
									</parameter>
								</effect>
							</filter>
						<link>
							<linkclipref>clipitem-64</linkclipref>
							<mediatype>video</mediatype>
							<trackindex>1</trackindex>
							<clipindex>64</clipindex>
						</link>
						<link>
							<linkclipref>clipitem-538</linkclipref>
							<mediatype>audio</mediatype>
							<trackindex>1</trackindex>
							<clipindex>40</clipindex>
							<groupindex>1</groupindex>
						</link>
						<link>
							<linkclipref>clipitem-596</linkclipref>
							<mediatype>audio</mediatype>
							<trackindex>2</trackindex>
							<clipindex>11</clipindex>
							<groupindex>1</groupindex>
						</link>
						<link>
							<linkclipref>clipitem-930</linkclipref>
							<mediatype>audio</mediatype>
							<trackindex>10</trackindex>
							<clipindex>28</clipindex>
							<groupindex>1</groupindex>
						</link>
						<link>
							<linkclipref>clipitem-1070</linkclipref>
							<mediatype>audio</mediatype>
							<trackindex>11</trackindex>
							<clipindex>28</clipindex>
							<groupindex>1</groupindex>
						</link>
						<logginginfo>
							<description></description>
							<scene></scene>
							<shottake></shottake>
							<lognote></lognote>
						</logginginfo>
						<labels>
							<label2>Iris</label2>
						</labels>
					</clipitem>
					<clipitem id="clipitem-931" premiereChannelType="stereo">
						<masterclipid>masterclip-52</masterclipid>
						<name>AA275401.MXF</name>
						<enabled>TRUE</enabled>
						<duration>7896</duration>
						<rate>
							<timebase>25</timebase>
							<ntsc>FALSE</ntsc>
						</rate>
						<start>20760</start>
						<end>21255</end>
						<in>320</in>
						<out>815</out>
						<pproTicksIn>3251404800000</pproTicksIn>
						<pproTicksOut>8280921600000</pproTicksOut>
						<file id="file-52"/>
						<sourcetrack>
							<mediatype>audio</mediatype>
							<trackindex>1</trackindex>
						</sourcetrack>
						<link>
							<linkclipref>clipitem-931</linkclipref>
							<mediatype>audio</mediatype>
							<trackindex>10</trackindex>
							<clipindex>29</clipindex>
							<groupindex>1</groupindex>
						</link>
						<link>
							<linkclipref>clipitem-1071</linkclipref>
							<mediatype>audio</mediatype>
							<trackindex>11</trackindex>
							<clipindex>29</clipindex>
							<groupindex>1</groupindex>
						</link>
						<logginginfo>
							<description></description>
							<scene></scene>
							<shottake></shottake>
							<lognote></lognote>
						</logginginfo>
						<labels>
							<label2>Iris</label2>
						</labels>
					</clipitem>
					<clipitem id="clipitem-932" premiereChannelType="stereo">
						<masterclipid>masterclip-52</masterclipid>
						<name>AA275401.MXF</name>
						<enabled>TRUE</enabled>
						<duration>7896</duration>
						<rate>
							<timebase>25</timebase>
							<ntsc>FALSE</ntsc>
						</rate>
						<start>21255</start>
						<end>21454</end>
						<in>815</in>
						<out>1014</out>
						<pproTicksIn>8280921600000</pproTicksIn>
						<pproTicksOut>10302888960000</pproTicksOut>
						<file id="file-52"/>
						<sourcetrack>
							<mediatype>audio</mediatype>
							<trackindex>1</trackindex>
						</sourcetrack>
						<link>
							<linkclipref>clipitem-738</linkclipref>
							<mediatype>audio</mediatype>
							<trackindex>8</trackindex>
							<clipindex>27</clipindex>
							<groupindex>1</groupindex>
						</link>
						<link>
							<linkclipref>clipitem-834</linkclipref>
							<mediatype>audio</mediatype>
							<trackindex>9</trackindex>
							<clipindex>27</clipindex>
							<groupindex>1</groupindex>
						</link>
						<link>
							<linkclipref>clipitem-932</linkclipref>
							<mediatype>audio</mediatype>
							<trackindex>10</trackindex>
							<clipindex>30</clipindex>
							<groupindex>1</groupindex>
						</link>
						<link>
							<linkclipref>clipitem-1072</linkclipref>
							<mediatype>audio</mediatype>
							<trackindex>11</trackindex>
							<clipindex>30</clipindex>
							<groupindex>1</groupindex>
						</link>
						<logginginfo>
							<description></description>
							<scene></scene>
							<shottake></shottake>
							<lognote></lognote>
						</logginginfo>
						<labels>
							<label2>Iris</label2>
						</labels>
					</clipitem>
					<clipitem id="clipitem-933" premiereChannelType="stereo">
						<masterclipid>masterclip-53</masterclipid>
						<name>AA274901.MXF</name>
						<enabled>TRUE</enabled>
						<duration>7896</duration>
						<rate>
							<timebase>25</timebase>
							<ntsc>FALSE</ntsc>
						</rate>
						<start>21845</start>
						<end>22026</end>
						<in>6390</in>
						<out>6571</out>
						<pproTicksIn>64926489600000</pproTicksIn>
						<pproTicksOut>66765565440000</pproTicksOut>
						<file id="file-53"/>
						<sourcetrack>
							<mediatype>audio</mediatype>
							<trackindex>1</trackindex>
						</sourcetrack>
						<link>
							<linkclipref>clipitem-933</linkclipref>
							<mediatype>audio</mediatype>
							<trackindex>10</trackindex>
							<clipindex>31</clipindex>
							<groupindex>1</groupindex>
						</link>
						<link>
							<linkclipref>clipitem-1073</linkclipref>
							<mediatype>audio</mediatype>
							<trackindex>11</trackindex>
							<clipindex>31</clipindex>
							<groupindex>1</groupindex>
						</link>
						<logginginfo>
							<description></description>
							<scene></scene>
							<shottake></shottake>
							<lognote></lognote>
						</logginginfo>
						<labels>
							<label2>Iris</label2>
						</labels>
					</clipitem>
					<clipitem id="clipitem-934" premiereChannelType="stereo">
						<masterclipid>masterclip-53</masterclipid>
						<name>AA274901.MXF</name>
						<enabled>TRUE</enabled>
						<duration>7896</duration>
						<rate>
							<timebase>25</timebase>
							<ntsc>FALSE</ntsc>
						</rate>
						<start>22026</start>
						<end>22201</end>
						<in>6636</in>
						<out>6811</out>
						<pproTicksIn>67426007040000</pproTicksIn>
						<pproTicksOut>69204119040000</pproTicksOut>
						<file id="file-53"/>
						<sourcetrack>
							<mediatype>audio</mediatype>
							<trackindex>1</trackindex>
						</sourcetrack>
						<link>
							<linkclipref>clipitem-934</linkclipref>
							<mediatype>audio</mediatype>
							<trackindex>10</trackindex>
							<clipindex>32</clipindex>
							<groupindex>1</groupindex>
						</link>
						<link>
							<linkclipref>clipitem-1074</linkclipref>
							<mediatype>audio</mediatype>
							<trackindex>11</trackindex>
							<clipindex>32</clipindex>
							<groupindex>1</groupindex>
						</link>
						<logginginfo>
							<description></description>
							<scene></scene>
							<shottake></shottake>
							<lognote></lognote>
						</logginginfo>
						<labels>
							<label2>Iris</label2>
						</labels>
					</clipitem>
					<clipitem id="clipitem-935" premiereChannelType="stereo">
						<masterclipid>masterclip-53</masterclipid>
						<name>AA274901.MXF</name>
						<enabled>TRUE</enabled>
						<duration>7896</duration>
						<rate>
							<timebase>25</timebase>
							<ntsc>FALSE</ntsc>
						</rate>
						<start>22355</start>
						<end>22819</end>
						<in>6806</in>
						<out>7270</out>
						<pproTicksIn>69153315840000</pproTicksIn>
						<pproTicksOut>73867852800000</pproTicksOut>
						<file id="file-53"/>
						<sourcetrack>
							<mediatype>audio</mediatype>
							<trackindex>1</trackindex>
						</sourcetrack>
						<link>
							<linkclipref>clipitem-935</linkclipref>
							<mediatype>audio</mediatype>
							<trackindex>10</trackindex>
							<clipindex>33</clipindex>
							<groupindex>1</groupindex>
						</link>
						<link>
							<linkclipref>clipitem-1075</linkclipref>
							<mediatype>audio</mediatype>
							<trackindex>11</trackindex>
							<clipindex>33</clipindex>
							<groupindex>1</groupindex>
						</link>
						<logginginfo>
							<description></description>
							<scene></scene>
							<shottake></shottake>
							<lognote></lognote>
						</logginginfo>
						<labels>
							<label2>Iris</label2>
						</labels>
					</clipitem>
					<clipitem id="clipitem-936" premiereChannelType="stereo">
						<masterclipid>masterclip-53</masterclipid>
						<name>AA274901.MXF</name>
						<enabled>TRUE</enabled>
						<duration>7896</duration>
						<rate>
							<timebase>25</timebase>
							<ntsc>FALSE</ntsc>
						</rate>
						<start>22819</start>
						<end>23338</end>
						<in>7361</in>
						<out>7880</out>
						<pproTicksIn>74792471040000</pproTicksIn>
						<pproTicksOut>80065843200000</pproTicksOut>
						<file id="file-53"/>
						<sourcetrack>
							<mediatype>audio</mediatype>
							<trackindex>1</trackindex>
						</sourcetrack>
						<link>
							<linkclipref>clipitem-936</linkclipref>
							<mediatype>audio</mediatype>
							<trackindex>10</trackindex>
							<clipindex>34</clipindex>
							<groupindex>1</groupindex>
						</link>
						<link>
							<linkclipref>clipitem-1076</linkclipref>
							<mediatype>audio</mediatype>
							<trackindex>11</trackindex>
							<clipindex>34</clipindex>
							<groupindex>1</groupindex>
						</link>
						<logginginfo>
							<description></description>
							<scene></scene>
							<shottake></shottake>
							<lognote></lognote>
						</logginginfo>
						<labels>
							<label2>Iris</label2>
						</labels>
					</clipitem>
					<clipitem id="clipitem-937" premiereChannelType="stereo">
						<masterclipid>masterclip-52</masterclipid>
						<name>AA275401.MXF</name>
						<enabled>TRUE</enabled>
						<duration>7896</duration>
						<rate>
							<timebase>25</timebase>
							<ntsc>FALSE</ntsc>
						</rate>
						<start>23338</start>
						<end>23667</end>
						<in>1558</in>
						<out>1887</out>
						<pproTicksIn>15830277120000</pproTicksIn>
						<pproTicksOut>19173127680000</pproTicksOut>
						<file id="file-52"/>
						<sourcetrack>
							<mediatype>audio</mediatype>
							<trackindex>1</trackindex>
						</sourcetrack>
							<filter>
								<effect>
									<name>Audio Levels</name>
									<effectid>audiolevels</effectid>
									<effectcategory>audiolevels</effectcategory>
									<effecttype>audiolevels</effecttype>
									<mediatype>audio</mediatype>
									<parameter authoringApp="PremierePro">
										<parameterid>level</parameterid>
										<name>Level</name>
										<valuemin>0</valuemin>
										<valuemax>3.98109</valuemax>
										<value>0.512296</value>
									</parameter>
								</effect>
							</filter>
						<link>
							<linkclipref>clipitem-937</linkclipref>
							<mediatype>audio</mediatype>
							<trackindex>10</trackindex>
							<clipindex>35</clipindex>
							<groupindex>1</groupindex>
						</link>
						<link>
							<linkclipref>clipitem-1077</linkclipref>
							<mediatype>audio</mediatype>
							<trackindex>11</trackindex>
							<clipindex>35</clipindex>
							<groupindex>1</groupindex>
						</link>
						<logginginfo>
							<description></description>
							<scene></scene>
							<shottake></shottake>
							<lognote></lognote>
						</logginginfo>
						<labels>
							<label2>Iris</label2>
						</labels>
					</clipitem>
					<clipitem id="clipitem-938" premiereChannelType="stereo">
						<masterclipid>masterclip-52</masterclipid>
						<name>AA275401.MXF</name>
						<enabled>TRUE</enabled>
						<duration>7896</duration>
						<rate>
							<timebase>25</timebase>
							<ntsc>FALSE</ntsc>
						</rate>
						<start>23667</start>
						<end>-1</end>
						<in>1909</in>
						<out>2029</out>
						<pproTicksIn>19396661760000</pproTicksIn>
						<pproTicksOut>20615938560000</pproTicksOut>
						<file id="file-52"/>
						<sourcetrack>
							<mediatype>audio</mediatype>
							<trackindex>1</trackindex>
						</sourcetrack>
						<link>
							<linkclipref>clipitem-938</linkclipref>
							<mediatype>audio</mediatype>
							<trackindex>10</trackindex>
							<clipindex>36</clipindex>
							<groupindex>1</groupindex>
						</link>
						<link>
							<linkclipref>clipitem-1078</linkclipref>
							<mediatype>audio</mediatype>
							<trackindex>11</trackindex>
							<clipindex>36</clipindex>
							<groupindex>1</groupindex>
						</link>
						<logginginfo>
							<description></description>
							<scene></scene>
							<shottake></shottake>
							<lognote></lognote>
						</logginginfo>
						<labels>
							<label2>Iris</label2>
						</labels>
					</clipitem>
					<transitionitem>
						<start>23774</start>
						<end>23787</end>
						<alignment>end-black</alignment>
						<cutPointTicks>132088320000</cutPointTicks>
						<rate>
							<timebase>25</timebase>
							<ntsc>FALSE</ntsc>
						</rate>
						<effect>
							<name>Cross Fade (+3dB)</name>
							<effectid>KGAudioTransCrossFade3dB</effectid>
							<effecttype>transition</effecttype>
							<mediatype>audio</mediatype>
							<wipecode>0</wipecode>
							<wipeaccuracy>100</wipeaccuracy>
							<startratio>0</startratio>
							<endratio>1</endratio>
							<reverse>FALSE</reverse>
						</effect>
					</transitionitem>
					<clipitem id="clipitem-939" premiereChannelType="stereo">
						<masterclipid>masterclip-60</masterclipid>
						<name>AA275501.MXF</name>
						<enabled>TRUE</enabled>
						<duration>6756</duration>
						<rate>
							<timebase>25</timebase>
							<ntsc>FALSE</ntsc>
						</rate>
						<start>24017</start>
						<end>24241</end>
						<in>3886</in>
						<out>4110</out>
						<pproTicksIn>39484247040000</pproTicksIn>
						<pproTicksOut>41760230400000</pproTicksOut>
						<file id="file-60"/>
						<sourcetrack>
							<mediatype>audio</mediatype>
							<trackindex>1</trackindex>
						</sourcetrack>
						<link>
							<linkclipref>clipitem-748</linkclipref>
							<mediatype>audio</mediatype>
							<trackindex>8</trackindex>
							<clipindex>38</clipindex>
							<groupindex>1</groupindex>
						</link>
						<link>
							<linkclipref>clipitem-844</linkclipref>
							<mediatype>audio</mediatype>
							<trackindex>9</trackindex>
							<clipindex>38</clipindex>
							<groupindex>1</groupindex>
						</link>
						<link>
							<linkclipref>clipitem-939</linkclipref>
							<mediatype>audio</mediatype>
							<trackindex>10</trackindex>
							<clipindex>38</clipindex>
							<groupindex>1</groupindex>
						</link>
						<link>
							<linkclipref>clipitem-1079</linkclipref>
							<mediatype>audio</mediatype>
							<trackindex>11</trackindex>
							<clipindex>38</clipindex>
							<groupindex>1</groupindex>
						</link>
						<logginginfo>
							<description></description>
							<scene></scene>
							<shottake></shottake>
							<lognote></lognote>
						</logginginfo>
						<labels>
							<label2>Iris</label2>
						</labels>
					</clipitem>
					<clipitem id="clipitem-940" premiereChannelType="stereo">
						<masterclipid>masterclip-60</masterclipid>
						<name>AA275501.MXF</name>
						<enabled>TRUE</enabled>
						<duration>6756</duration>
						<rate>
							<timebase>25</timebase>
							<ntsc>FALSE</ntsc>
						</rate>
						<start>24241</start>
						<end>24558</end>
						<in>5924</in>
						<out>6241</out>
						<pproTicksIn>60191631360000</pproTicksIn>
						<pproTicksOut>63412554240000</pproTicksOut>
						<file id="file-60"/>
						<sourcetrack>
							<mediatype>audio</mediatype>
							<trackindex>1</trackindex>
						</sourcetrack>
						<link>
							<linkclipref>clipitem-940</linkclipref>
							<mediatype>audio</mediatype>
							<trackindex>10</trackindex>
							<clipindex>39</clipindex>
							<groupindex>1</groupindex>
						</link>
						<link>
							<linkclipref>clipitem-1080</linkclipref>
							<mediatype>audio</mediatype>
							<trackindex>11</trackindex>
							<clipindex>39</clipindex>
							<groupindex>1</groupindex>
						</link>
						<logginginfo>
							<description></description>
							<scene></scene>
							<shottake></shottake>
							<lognote></lognote>
						</logginginfo>
						<labels>
							<label2>Iris</label2>
						</labels>
					</clipitem>
					<clipitem id="clipitem-941" premiereChannelType="stereo">
						<masterclipid>masterclip-61</masterclipid>
						<name>AA276001.MXF</name>
						<enabled>TRUE</enabled>
						<duration>1260</duration>
						<rate>
							<timebase>25</timebase>
							<ntsc>FALSE</ntsc>
						</rate>
						<start>24558</start>
						<end>24687</end>
						<in>460</in>
						<out>589</out>
						<pproTicksIn>4673894400000</pproTicksIn>
						<pproTicksOut>5984616960000</pproTicksOut>
						<file id="file-61"/>
						<sourcetrack>
							<mediatype>audio</mediatype>
							<trackindex>1</trackindex>
						</sourcetrack>
							<filter>
								<effect>
									<name>Audio Levels</name>
									<effectid>audiolevels</effectid>
									<effectcategory>audiolevels</effectcategory>
									<effecttype>audiolevels</effecttype>
									<mediatype>audio</mediatype>
									<parameter authoringApp="PremierePro">
										<parameterid>level</parameterid>
										<name>Level</name>
										<valuemin>0</valuemin>
										<valuemax>3.98109</valuemax>
										<value>0</value>
									</parameter>
								</effect>
							</filter>
						<link>
							<linkclipref>clipitem-79</linkclipref>
							<mediatype>video</mediatype>
							<trackindex>1</trackindex>
							<clipindex>79</clipindex>
						</link>
						<link>
							<linkclipref>clipitem-750</linkclipref>
							<mediatype>audio</mediatype>
							<trackindex>8</trackindex>
							<clipindex>40</clipindex>
							<groupindex>1</groupindex>
						</link>
						<link>
							<linkclipref>clipitem-846</linkclipref>
							<mediatype>audio</mediatype>
							<trackindex>9</trackindex>
							<clipindex>40</clipindex>
							<groupindex>1</groupindex>
						</link>
						<link>
							<linkclipref>clipitem-941</linkclipref>
							<mediatype>audio</mediatype>
							<trackindex>10</trackindex>
							<clipindex>40</clipindex>
							<groupindex>1</groupindex>
						</link>
						<link>
							<linkclipref>clipitem-1081</linkclipref>
							<mediatype>audio</mediatype>
							<trackindex>11</trackindex>
							<clipindex>40</clipindex>
							<groupindex>1</groupindex>
						</link>
						<logginginfo>
							<description></description>
							<scene></scene>
							<shottake></shottake>
							<lognote></lognote>
						</logginginfo>
						<labels>
							<label2>Iris</label2>
						</labels>
					</clipitem>
					<clipitem id="clipitem-942" premiereChannelType="stereo">
						<masterclipid>masterclip-62</masterclipid>
						<name>AA276101.MXF</name>
						<enabled>TRUE</enabled>
						<duration>564</duration>
						<rate>
							<timebase>25</timebase>
							<ntsc>FALSE</ntsc>
						</rate>
						<start>24687</start>
						<end>24756</end>
						<in>99</in>
						<out>168</out>
						<pproTicksIn>1005903360000</pproTicksIn>
						<pproTicksOut>1706987520000</pproTicksOut>
						<file id="file-62"/>
						<sourcetrack>
							<mediatype>audio</mediatype>
							<trackindex>1</trackindex>
						</sourcetrack>
							<filter>
								<effect>
									<name>Audio Levels</name>
									<effectid>audiolevels</effectid>
									<effectcategory>audiolevels</effectcategory>
									<effecttype>audiolevels</effecttype>
									<mediatype>audio</mediatype>
									<parameter authoringApp="PremierePro">
										<parameterid>level</parameterid>
										<name>Level</name>
										<valuemin>0</valuemin>
										<valuemax>3.98109</valuemax>
										<value>0</value>
									</parameter>
								</effect>
							</filter>
						<link>
							<linkclipref>clipitem-80</linkclipref>
							<mediatype>video</mediatype>
							<trackindex>1</trackindex>
							<clipindex>80</clipindex>
						</link>
						<link>
							<linkclipref>clipitem-751</linkclipref>
							<mediatype>audio</mediatype>
							<trackindex>8</trackindex>
							<clipindex>41</clipindex>
							<groupindex>1</groupindex>
						</link>
						<link>
							<linkclipref>clipitem-847</linkclipref>
							<mediatype>audio</mediatype>
							<trackindex>9</trackindex>
							<clipindex>41</clipindex>
							<groupindex>1</groupindex>
						</link>
						<link>
							<linkclipref>clipitem-942</linkclipref>
							<mediatype>audio</mediatype>
							<trackindex>10</trackindex>
							<clipindex>41</clipindex>
							<groupindex>1</groupindex>
						</link>
						<link>
							<linkclipref>clipitem-1082</linkclipref>
							<mediatype>audio</mediatype>
							<trackindex>11</trackindex>
							<clipindex>41</clipindex>
							<groupindex>1</groupindex>
						</link>
						<logginginfo>
							<description></description>
							<scene></scene>
							<shottake></shottake>
							<lognote></lognote>
						</logginginfo>
						<labels>
							<label2>Iris</label2>
						</labels>
					</clipitem>
					<clipitem id="clipitem-943" premiereChannelType="stereo">
						<masterclipid>masterclip-63</masterclipid>
						<name>AA277101.MXF</name>
						<enabled>TRUE</enabled>
						<duration>5604</duration>
						<rate>
							<timebase>25</timebase>
							<ntsc>FALSE</ntsc>
						</rate>
						<start>24756</start>
						<end>25306</end>
						<in>2324</in>
						<out>2874</out>
						<pproTicksIn>23613327360000</pproTicksIn>
						<pproTicksOut>29201679360000</pproTicksOut>
						<file id="file-63"/>
						<sourcetrack>
							<mediatype>audio</mediatype>
							<trackindex>1</trackindex>
						</sourcetrack>
						<link>
							<linkclipref>clipitem-81</linkclipref>
							<mediatype>video</mediatype>
							<trackindex>1</trackindex>
							<clipindex>81</clipindex>
						</link>
						<link>
							<linkclipref>clipitem-752</linkclipref>
							<mediatype>audio</mediatype>
							<trackindex>8</trackindex>
							<clipindex>42</clipindex>
							<groupindex>1</groupindex>
						</link>
						<link>
							<linkclipref>clipitem-848</linkclipref>
							<mediatype>audio</mediatype>
							<trackindex>9</trackindex>
							<clipindex>42</clipindex>
							<groupindex>1</groupindex>
						</link>
						<link>
							<linkclipref>clipitem-943</linkclipref>
							<mediatype>audio</mediatype>
							<trackindex>10</trackindex>
							<clipindex>42</clipindex>
							<groupindex>1</groupindex>
						</link>
						<link>
							<linkclipref>clipitem-1083</linkclipref>
							<mediatype>audio</mediatype>
							<trackindex>11</trackindex>
							<clipindex>42</clipindex>
							<groupindex>1</groupindex>
						</link>
						<logginginfo>
							<description></description>
							<scene></scene>
							<shottake></shottake>
							<lognote></lognote>
						</logginginfo>
						<labels>
							<label2>Iris</label2>
						</labels>
					</clipitem>
					<clipitem id="clipitem-944" premiereChannelType="stereo">
						<masterclipid>masterclip-63</masterclipid>
						<name>AA277101.MXF</name>
						<enabled>TRUE</enabled>
						<duration>5604</duration>
						<rate>
							<timebase>25</timebase>
							<ntsc>FALSE</ntsc>
						</rate>
						<start>25306</start>
						<end>25431</end>
						<in>2874</in>
						<out>2999</out>
						<pproTicksIn>29201679360000</pproTicksIn>
						<pproTicksOut>30471759360000</pproTicksOut>
						<file id="file-63"/>
						<sourcetrack>
							<mediatype>audio</mediatype>
							<trackindex>1</trackindex>
						</sourcetrack>
						<link>
							<linkclipref>clipitem-753</linkclipref>
							<mediatype>audio</mediatype>
							<trackindex>8</trackindex>
							<clipindex>43</clipindex>
							<groupindex>1</groupindex>
						</link>
						<link>
							<linkclipref>clipitem-849</linkclipref>
							<mediatype>audio</mediatype>
							<trackindex>9</trackindex>
							<clipindex>43</clipindex>
							<groupindex>1</groupindex>
						</link>
						<link>
							<linkclipref>clipitem-944</linkclipref>
							<mediatype>audio</mediatype>
							<trackindex>10</trackindex>
							<clipindex>43</clipindex>
							<groupindex>1</groupindex>
						</link>
						<link>
							<linkclipref>clipitem-1084</linkclipref>
							<mediatype>audio</mediatype>
							<trackindex>11</trackindex>
							<clipindex>43</clipindex>
							<groupindex>1</groupindex>
						</link>
						<logginginfo>
							<description></description>
							<scene></scene>
							<shottake></shottake>
							<lognote></lognote>
						</logginginfo>
						<labels>
							<label2>Iris</label2>
						</labels>
					</clipitem>
					<clipitem id="clipitem-945" premiereChannelType="stereo">
						<masterclipid>masterclip-63</masterclipid>
						<name>AA277101.MXF</name>
						<enabled>TRUE</enabled>
						<duration>5604</duration>
						<rate>
							<timebase>25</timebase>
							<ntsc>FALSE</ntsc>
						</rate>
						<start>25431</start>
						<end>26270</end>
						<in>2999</in>
						<out>3838</out>
						<pproTicksIn>30471759360000</pproTicksIn>
						<pproTicksOut>38996536320000</pproTicksOut>
						<file id="file-63"/>
						<sourcetrack>
							<mediatype>audio</mediatype>
							<trackindex>1</trackindex>
						</sourcetrack>
						<link>
							<linkclipref>clipitem-83</linkclipref>
							<mediatype>video</mediatype>
							<trackindex>1</trackindex>
							<clipindex>83</clipindex>
						</link>
						<link>
							<linkclipref>clipitem-754</linkclipref>
							<mediatype>audio</mediatype>
							<trackindex>8</trackindex>
							<clipindex>44</clipindex>
							<groupindex>1</groupindex>
						</link>
						<link>
							<linkclipref>clipitem-850</linkclipref>
							<mediatype>audio</mediatype>
							<trackindex>9</trackindex>
							<clipindex>44</clipindex>
							<groupindex>1</groupindex>
						</link>
						<link>
							<linkclipref>clipitem-945</linkclipref>
							<mediatype>audio</mediatype>
							<trackindex>10</trackindex>
							<clipindex>44</clipindex>
							<groupindex>1</groupindex>
						</link>
						<link>
							<linkclipref>clipitem-1085</linkclipref>
							<mediatype>audio</mediatype>
							<trackindex>11</trackindex>
							<clipindex>44</clipindex>
							<groupindex>1</groupindex>
						</link>
						<logginginfo>
							<description></description>
							<scene></scene>
							<shottake></shottake>
							<lognote></lognote>
						</logginginfo>
						<labels>
							<label2>Iris</label2>
						</labels>
					</clipitem>
					<clipitem id="clipitem-946" premiereChannelType="stereo">
						<masterclipid>masterclip-19</masterclipid>
						<name>20160515_184145.mp4</name>
						<enabled>TRUE</enabled>
						<duration>1485</duration>
						<rate>
							<timebase>25</timebase>
							<ntsc>FALSE</ntsc>
						</rate>
						<start>26436</start>
						<end>26684</end>
						<in>292</in>
						<out>540</out>
						<pproTicksIn>2966906880000</pproTicksIn>
						<pproTicksOut>5486745600000</pproTicksOut>
						<file id="file-19"/>
						<sourcetrack>
							<mediatype>audio</mediatype>
							<trackindex>1</trackindex>
						</sourcetrack>
							<filter>
								<effect>
									<name>Audio Levels</name>
									<effectid>audiolevels</effectid>
									<effectcategory>audiolevels</effectcategory>
									<effecttype>audiolevels</effecttype>
									<mediatype>audio</mediatype>
									<parameter authoringApp="PremierePro">
										<parameterid>level</parameterid>
										<name>Level</name>
										<valuemin>0</valuemin>
										<valuemax>3.98109</valuemax>
										<value>0</value>
										<keyframe>
											<when>476</when>
											<value>0.99763</value>
										</keyframe>
										<keyframe>
											<when>485</when>
											<value>0.396319</value>
										</keyframe>
										<keyframe>
											<when>504</when>
											<value>0.314322</value>
										</keyframe>
										<keyframe>
											<when>537</when>
											<value>0</value>
										</keyframe>
									</parameter>
								</effect>
							</filter>
						<link>
							<linkclipref>clipitem-946</linkclipref>
							<mediatype>audio</mediatype>
							<trackindex>10</trackindex>
							<clipindex>45</clipindex>
							<groupindex>1</groupindex>
						</link>
						<link>
							<linkclipref>clipitem-1086</linkclipref>
							<mediatype>audio</mediatype>
							<trackindex>11</trackindex>
							<clipindex>45</clipindex>
							<groupindex>1</groupindex>
						</link>
						<logginginfo>
							<description></description>
							<scene></scene>
							<shottake></shottake>
							<lognote></lognote>
						</logginginfo>
						<labels>
							<label2>Iris</label2>
						</labels>
					</clipitem>
					<clipitem id="clipitem-947" premiereChannelType="stereo">
						<masterclipid>masterclip-319</masterclipid>
						<name>DVNA21000514BA</name>
						<enabled>TRUE</enabled>
						<duration>58886</duration>
						<rate>
							<timebase>25</timebase>
							<ntsc>FALSE</ntsc>
						</rate>
						<start>27363</start>
						<end>28115</end>
						<in>16063</in>
						<out>16815</out>
						<pproTicksIn>163210360320000</pproTicksIn>
						<pproTicksOut>170851161600000</pproTicksOut>
						<pixelaspectratio>square</pixelaspectratio>
						<anamorphic>FALSE</anamorphic>
						<file id="file-319">
							<name>DVNA21000514BA.mxf</name>
							<pathurl>file://localhost/Volumes/omfs/clip.dir/MXF/1080i/DVNA21000514BA.mxf</pathurl>
							<rate>
								<timebase>25</timebase>
								<ntsc>FALSE</ntsc>
							</rate>
							<duration>58886</duration>
							<timecode>
								<rate>
									<timebase>25</timebase>
									<ntsc>FALSE</ntsc>
								</rate>
								<string>00:00:00:00</string>
								<frame>0</frame>
								<displayformat>NDF</displayformat>
								<reel>
									<name>\\NDHO\Omn\E\C\36\73</name>
								</reel>
							</timecode>
							<media>
								<video>
									<samplecharacteristics>
										<rate>
											<timebase>25</timebase>
											<ntsc>FALSE</ntsc>
										</rate>
										<width>1920</width>
										<height>1080</height>
										<anamorphic>FALSE</anamorphic>
										<pixelaspectratio>square</pixelaspectratio>
										<fielddominance>upper</fielddominance>
									</samplecharacteristics>
								</video>
								<audio>
									<samplecharacteristics>
										<depth>16</depth>
										<samplerate>48000</samplerate>
									</samplecharacteristics>
									<channelcount>2</channelcount>
								</audio>
								<audio>
									<samplecharacteristics>
										<depth>16</depth>
										<samplerate>48000</samplerate>
									</samplecharacteristics>
									<channelcount>2</channelcount>
								</audio>
								<audio>
									<samplecharacteristics>
										<depth>16</depth>
										<samplerate>48000</samplerate>
									</samplecharacteristics>
									<channelcount>2</channelcount>
								</audio>
								<audio>
									<samplecharacteristics>
										<depth>16</depth>
										<samplerate>48000</samplerate>
									</samplecharacteristics>
									<channelcount>2</channelcount>
								</audio>
							</media>
						</file>
						<sourcetrack>
							<mediatype>audio</mediatype>
							<trackindex>3</trackindex>
						</sourcetrack>
							<filter>
								<effect>
									<name>Audio Levels</name>
									<effectid>audiolevels</effectid>
									<effectcategory>audiolevels</effectcategory>
									<effecttype>audiolevels</effecttype>
									<mediatype>audio</mediatype>
									<parameter authoringApp="PremierePro">
										<parameterid>level</parameterid>
										<name>Level</name>
										<valuemin>0</valuemin>
										<valuemax>3.98109</valuemax>
										<value>0</value>
										<keyframe>
											<when>16074</when>
											<value>0</value>
										</keyframe>
										<keyframe>
											<when>16083</when>
											<value>0.0536347</value>
										</keyframe>
										<keyframe>
											<when>16091</when>
											<value>0.119548</value>
										</keyframe>
										<keyframe>
											<when>16096</when>
											<value>0.99763</value>
										</keyframe>
										<keyframe>
											<when>16769</when>
											<value>0.99763</value>
										</keyframe>
										<keyframe>
											<when>16778</when>
											<value>0</value>
										</keyframe>
									</parameter>
								</effect>
							</filter>
						<link>
							<linkclipref>clipitem-947</linkclipref>
							<mediatype>audio</mediatype>
							<trackindex>10</trackindex>
							<clipindex>46</clipindex>
							<groupindex>1</groupindex>
						</link>
						<link>
							<linkclipref>clipitem-1087</linkclipref>
							<mediatype>audio</mediatype>
							<trackindex>11</trackindex>
							<clipindex>46</clipindex>
							<groupindex>1</groupindex>
						</link>
						<logginginfo>
							<description>Villmarkas voktere (5:8 @ Villmarkas voktere)</description>
							<scene></scene>
							<shottake></shottake>
							<lognote></lognote>
						</logginginfo>
						<labels>
							<label2>Iris</label2>
						</labels>
					</clipitem>
					<clipitem id="clipitem-948" premiereChannelType="stereo">
						<masterclipid>masterclip-73</masterclipid>
						<name>uin-seervideo-111116-h_p1</name>
						<enabled>TRUE</enabled>
						<duration>5247</duration>
						<rate>
							<timebase>25</timebase>
							<ntsc>FALSE</ntsc>
						</rate>
						<start>28878</start>
						<end>29111</end>
						<in>3254</in>
						<out>3487</out>
						<pproTicksIn>33062722560000</pproTicksIn>
						<pproTicksOut>35430151680000</pproTicksOut>
						<file id="file-73"/>
						<sourcetrack>
							<mediatype>audio</mediatype>
							<trackindex>1</trackindex>
						</sourcetrack>
						<link>
							<linkclipref>clipitem-101</linkclipref>
							<mediatype>video</mediatype>
							<trackindex>1</trackindex>
							<clipindex>103</clipindex>
						</link>
						<link>
							<linkclipref>clipitem-948</linkclipref>
							<mediatype>audio</mediatype>
							<trackindex>10</trackindex>
							<clipindex>47</clipindex>
							<groupindex>1</groupindex>
						</link>
						<link>
							<linkclipref>clipitem-1088</linkclipref>
							<mediatype>audio</mediatype>
							<trackindex>11</trackindex>
							<clipindex>47</clipindex>
							<groupindex>1</groupindex>
						</link>
						<logginginfo>
							<description>DVNA60000116AA</description>
							<scene></scene>
							<shottake></shottake>
							<lognote></lognote>
						</logginginfo>
						<labels>
							<label2>Iris</label2>
						</labels>
					</clipitem>
					<clipitem id="clipitem-949" premiereChannelType="stereo">
						<masterclipid>masterclip-77</masterclipid>
						<name>AA277601.MXF</name>
						<enabled>TRUE</enabled>
						<duration>4476</duration>
						<rate>
							<timebase>25</timebase>
							<ntsc>FALSE</ntsc>
						</rate>
						<start>30934</start>
						<end>-1</end>
						<in>4167</in>
						<out>4399</out>
						<pproTicksIn>42339386880000</pproTicksIn>
						<pproTicksOut>44696655360000</pproTicksOut>
						<file id="file-77"/>
						<sourcetrack>
							<mediatype>audio</mediatype>
							<trackindex>1</trackindex>
						</sourcetrack>
							<filter>
								<effect>
									<name>Audio Levels</name>
									<effectid>audiolevels</effectid>
									<effectcategory>audiolevels</effectcategory>
									<effecttype>audiolevels</effecttype>
									<mediatype>audio</mediatype>
									<parameter authoringApp="PremierePro">
										<parameterid>level</parameterid>
										<name>Level</name>
										<valuemin>0</valuemin>
										<valuemax>3.98109</valuemax>
										<value>0.99763</value>
										<keyframe>
											<when>4172</when>
											<value>0</value>
										</keyframe>
										<keyframe>
											<when>4180</when>
											<value>0.99763</value>
										</keyframe>
									</parameter>
								</effect>
							</filter>
						<link>
							<linkclipref>clipitem-949</linkclipref>
							<mediatype>audio</mediatype>
							<trackindex>10</trackindex>
							<clipindex>48</clipindex>
							<groupindex>1</groupindex>
						</link>
						<link>
							<linkclipref>clipitem-1089</linkclipref>
							<mediatype>audio</mediatype>
							<trackindex>11</trackindex>
							<clipindex>48</clipindex>
							<groupindex>1</groupindex>
						</link>
						<logginginfo>
							<description></description>
							<scene></scene>
							<shottake></shottake>
							<lognote></lognote>
						</logginginfo>
						<labels>
							<label2>Iris</label2>
						</labels>
					</clipitem>
					<transitionitem>
						<start>31153</start>
						<end>31166</end>
						<alignment>end-black</alignment>
						<cutPointTicks>132088320000</cutPointTicks>
						<rate>
							<timebase>25</timebase>
							<ntsc>FALSE</ntsc>
						</rate>
						<effect>
							<name>Cross Fade (+3dB)</name>
							<effectid>KGAudioTransCrossFade3dB</effectid>
							<effecttype>transition</effecttype>
							<mediatype>audio</mediatype>
							<wipecode>0</wipecode>
							<wipeaccuracy>100</wipeaccuracy>
							<startratio>0</startratio>
							<endratio>1</endratio>
							<reverse>FALSE</reverse>
						</effect>
					</transitionitem>
					<clipitem id="clipitem-950" premiereChannelType="stereo">
						<masterclipid>masterclip-84</masterclipid>
						<name>isfiskeroye-3-210415r-029.mxf</name>
						<enabled>TRUE</enabled>
						<duration>8654</duration>
						<rate>
							<timebase>25</timebase>
							<ntsc>FALSE</ntsc>
						</rate>
						<start>31694</start>
						<end>31823</end>
						<in>6168</in>
						<out>6297</out>
						<pproTicksIn>62670827520000</pproTicksIn>
						<pproTicksOut>63981550080000</pproTicksOut>
						<file id="file-84"/>
						<sourcetrack>
							<mediatype>audio</mediatype>
							<trackindex>3</trackindex>
						</sourcetrack>
							<filter>
								<effect>
									<name>Audio Levels</name>
									<effectid>audiolevels</effectid>
									<effectcategory>audiolevels</effectcategory>
									<effecttype>audiolevels</effecttype>
									<mediatype>audio</mediatype>
									<parameter authoringApp="PremierePro">
										<parameterid>level</parameterid>
										<name>Level</name>
										<valuemin>0</valuemin>
										<valuemax>3.98109</valuemax>
										<value>0.151156</value>
									</parameter>
								</effect>
							</filter>
						<link>
							<linkclipref>clipitem-118</linkclipref>
							<mediatype>video</mediatype>
							<trackindex>1</trackindex>
							<clipindex>124</clipindex>
						</link>
						<link>
							<linkclipref>clipitem-950</linkclipref>
							<mediatype>audio</mediatype>
							<trackindex>10</trackindex>
							<clipindex>50</clipindex>
							<groupindex>1</groupindex>
						</link>
						<link>
							<linkclipref>clipitem-1090</linkclipref>
							<mediatype>audio</mediatype>
							<trackindex>11</trackindex>
							<clipindex>50</clipindex>
							<groupindex>1</groupindex>
						</link>
						<logginginfo>
							<description></description>
							<scene></scene>
							<shottake></shottake>
							<lognote></lognote>
						</logginginfo>
						<labels>
							<label2>Iris</label2>
						</labels>
					</clipitem>
					<clipitem id="clipitem-951" premiereChannelType="stereo">
						<masterclipid>masterclip-84</masterclipid>
						<name>isfiskeroye-3-210415r-029.mxf</name>
						<enabled>TRUE</enabled>
						<duration>8654</duration>
						<rate>
							<timebase>25</timebase>
							<ntsc>FALSE</ntsc>
						</rate>
						<start>31823</start>
						<end>32021</end>
						<in>7245</in>
						<out>7443</out>
						<pproTicksIn>73613836800000</pproTicksIn>
						<pproTicksOut>75625643520000</pproTicksOut>
						<file id="file-84"/>
						<sourcetrack>
							<mediatype>audio</mediatype>
							<trackindex>3</trackindex>
						</sourcetrack>
							<filter>
								<effect>
									<name>Audio Levels</name>
									<effectid>audiolevels</effectid>
									<effectcategory>audiolevels</effectcategory>
									<effecttype>audiolevels</effecttype>
									<mediatype>audio</mediatype>
									<parameter authoringApp="PremierePro">
										<parameterid>level</parameterid>
										<name>Level</name>
										<valuemin>0</valuemin>
										<valuemax>3.98109</valuemax>
										<value>0.151156</value>
									</parameter>
								</effect>
							</filter>
						<link>
							<linkclipref>clipitem-119</linkclipref>
							<mediatype>video</mediatype>
							<trackindex>1</trackindex>
							<clipindex>125</clipindex>
						</link>
						<link>
							<linkclipref>clipitem-951</linkclipref>
							<mediatype>audio</mediatype>
							<trackindex>10</trackindex>
							<clipindex>51</clipindex>
							<groupindex>1</groupindex>
						</link>
						<link>
							<linkclipref>clipitem-1091</linkclipref>
							<mediatype>audio</mediatype>
							<trackindex>11</trackindex>
							<clipindex>51</clipindex>
							<groupindex>1</groupindex>
						</link>
						<logginginfo>
							<description></description>
							<scene></scene>
							<shottake></shottake>
							<lognote></lognote>
						</logginginfo>
						<labels>
							<label2>Iris</label2>
						</labels>
					</clipitem>
					<clipitem id="clipitem-952" premiereChannelType="stereo">
						<masterclipid>masterclip-84</masterclipid>
						<name>isfiskeroye-3-210415r-029.mxf</name>
						<enabled>TRUE</enabled>
						<duration>8654</duration>
						<rate>
							<timebase>25</timebase>
							<ntsc>FALSE</ntsc>
						</rate>
						<start>32021</start>
						<end>32073</end>
						<in>7497</in>
						<out>7549</out>
						<pproTicksIn>76174318080000</pproTicksIn>
						<pproTicksOut>76702671360000</pproTicksOut>
						<file id="file-84"/>
						<sourcetrack>
							<mediatype>audio</mediatype>
							<trackindex>3</trackindex>
						</sourcetrack>
							<filter>
								<effect>
									<name>Audio Levels</name>
									<effectid>audiolevels</effectid>
									<effectcategory>audiolevels</effectcategory>
									<effecttype>audiolevels</effecttype>
									<mediatype>audio</mediatype>
									<parameter authoringApp="PremierePro">
										<parameterid>level</parameterid>
										<name>Level</name>
										<valuemin>0</valuemin>
										<valuemax>3.98109</valuemax>
										<value>0.151156</value>
									</parameter>
								</effect>
							</filter>
						<link>
							<linkclipref>clipitem-952</linkclipref>
							<mediatype>audio</mediatype>
							<trackindex>10</trackindex>
							<clipindex>52</clipindex>
							<groupindex>1</groupindex>
						</link>
						<link>
							<linkclipref>clipitem-1092</linkclipref>
							<mediatype>audio</mediatype>
							<trackindex>11</trackindex>
							<clipindex>52</clipindex>
							<groupindex>1</groupindex>
						</link>
						<logginginfo>
							<description></description>
							<scene></scene>
							<shottake></shottake>
							<lognote></lognote>
						</logginginfo>
						<labels>
							<label2>Iris</label2>
						</labels>
					</clipitem>
					<clipitem id="clipitem-953" premiereChannelType="stereo">
						<masterclipid>masterclip-84</masterclipid>
						<name>isfiskeroye-3-210415r-029.mxf</name>
						<enabled>TRUE</enabled>
						<duration>8654</duration>
						<rate>
							<timebase>25</timebase>
							<ntsc>FALSE</ntsc>
						</rate>
						<start>32073</start>
						<end>32091</end>
						<in>7579</in>
						<out>7597</out>
						<pproTicksIn>77007490560000</pproTicksIn>
						<pproTicksOut>77190382080000</pproTicksOut>
						<file id="file-84"/>
						<sourcetrack>
							<mediatype>audio</mediatype>
							<trackindex>3</trackindex>
						</sourcetrack>
							<filter>
								<effect>
									<name>Audio Levels</name>
									<effectid>audiolevels</effectid>
									<effectcategory>audiolevels</effectcategory>
									<effecttype>audiolevels</effecttype>
									<mediatype>audio</mediatype>
									<parameter authoringApp="PremierePro">
										<parameterid>level</parameterid>
										<name>Level</name>
										<valuemin>0</valuemin>
										<valuemax>3.98109</valuemax>
										<value>0.151156</value>
									</parameter>
								</effect>
							</filter>
						<link>
							<linkclipref>clipitem-953</linkclipref>
							<mediatype>audio</mediatype>
							<trackindex>10</trackindex>
							<clipindex>53</clipindex>
							<groupindex>1</groupindex>
						</link>
						<link>
							<linkclipref>clipitem-1093</linkclipref>
							<mediatype>audio</mediatype>
							<trackindex>11</trackindex>
							<clipindex>53</clipindex>
							<groupindex>1</groupindex>
						</link>
						<logginginfo>
							<description></description>
							<scene></scene>
							<shottake></shottake>
							<lognote></lognote>
						</logginginfo>
						<labels>
							<label2>Iris</label2>
						</labels>
					</clipitem>
					<clipitem id="clipitem-954" premiereChannelType="stereo">
						<masterclipid>masterclip-84</masterclipid>
						<name>isfiskeroye-3-210415r-029.mxf</name>
						<enabled>TRUE</enabled>
						<duration>8654</duration>
						<rate>
							<timebase>25</timebase>
							<ntsc>FALSE</ntsc>
						</rate>
						<start>32091</start>
						<end>32116</end>
						<in>7628</in>
						<out>7653</out>
						<pproTicksIn>77505361920000</pproTicksIn>
						<pproTicksOut>77759377920000</pproTicksOut>
						<file id="file-84"/>
						<sourcetrack>
							<mediatype>audio</mediatype>
							<trackindex>3</trackindex>
						</sourcetrack>
							<filter>
								<effect>
									<name>Audio Levels</name>
									<effectid>audiolevels</effectid>
									<effectcategory>audiolevels</effectcategory>
									<effecttype>audiolevels</effecttype>
									<mediatype>audio</mediatype>
									<parameter authoringApp="PremierePro">
										<parameterid>level</parameterid>
										<name>Level</name>
										<valuemin>0</valuemin>
										<valuemax>3.98109</valuemax>
										<value>0.151156</value>
									</parameter>
								</effect>
							</filter>
						<link>
							<linkclipref>clipitem-954</linkclipref>
							<mediatype>audio</mediatype>
							<trackindex>10</trackindex>
							<clipindex>54</clipindex>
							<groupindex>1</groupindex>
						</link>
						<link>
							<linkclipref>clipitem-1094</linkclipref>
							<mediatype>audio</mediatype>
							<trackindex>11</trackindex>
							<clipindex>54</clipindex>
							<groupindex>1</groupindex>
						</link>
						<logginginfo>
							<description></description>
							<scene></scene>
							<shottake></shottake>
							<lognote></lognote>
						</logginginfo>
						<labels>
							<label2>Iris</label2>
						</labels>
					</clipitem>
					<clipitem id="clipitem-955" premiereChannelType="stereo">
						<masterclipid>masterclip-85</masterclipid>
						<name>isfiskeroye-3-210415r-033.mxf</name>
						<enabled>TRUE</enabled>
						<duration>3106</duration>
						<rate>
							<timebase>25</timebase>
							<ntsc>FALSE</ntsc>
						</rate>
						<start>32116</start>
						<end>-1</end>
						<in>284</in>
						<out>881</out>
						<pproTicksIn>2885621760000</pproTicksIn>
						<pproTicksOut>8951523840000</pproTicksOut>
						<file id="file-85"/>
						<sourcetrack>
							<mediatype>audio</mediatype>
							<trackindex>3</trackindex>
						</sourcetrack>
							<filter>
								<effect>
									<name>Audio Levels</name>
									<effectid>audiolevels</effectid>
									<effectcategory>audiolevels</effectcategory>
									<effecttype>audiolevels</effecttype>
									<mediatype>audio</mediatype>
									<parameter authoringApp="PremierePro">
										<parameterid>level</parameterid>
										<name>Level</name>
										<valuemin>0</valuemin>
										<valuemax>3.98109</valuemax>
										<value>0.151156</value>
									</parameter>
								</effect>
							</filter>
						<link>
							<linkclipref>clipitem-121</linkclipref>
							<mediatype>video</mediatype>
							<trackindex>1</trackindex>
							<clipindex>127</clipindex>
						</link>
						<link>
							<linkclipref>clipitem-955</linkclipref>
							<mediatype>audio</mediatype>
							<trackindex>10</trackindex>
							<clipindex>55</clipindex>
							<groupindex>1</groupindex>
						</link>
						<link>
							<linkclipref>clipitem-1095</linkclipref>
							<mediatype>audio</mediatype>
							<trackindex>11</trackindex>
							<clipindex>55</clipindex>
							<groupindex>1</groupindex>
						</link>
						<logginginfo>
							<description></description>
							<scene></scene>
							<shottake></shottake>
							<lognote></lognote>
						</logginginfo>
						<labels>
							<label2>Iris</label2>
						</labels>
					</clipitem>
					<transitionitem>
						<start>32700</start>
						<end>32713</end>
						<alignment>end-black</alignment>
						<cutPointTicks>132088320000</cutPointTicks>
						<rate>
							<timebase>25</timebase>
							<ntsc>FALSE</ntsc>
						</rate>
						<effect>
							<name>Cross Fade (+3dB)</name>
							<effectid>KGAudioTransCrossFade3dB</effectid>
							<effecttype>transition</effecttype>
							<mediatype>audio</mediatype>
							<wipecode>0</wipecode>
							<wipeaccuracy>100</wipeaccuracy>
							<startratio>0</startratio>
							<endratio>1</endratio>
							<reverse>FALSE</reverse>
						</effect>
					</transitionitem>
					<clipitem id="clipitem-956" premiereChannelType="stereo">
						<masterclipid>masterclip-320</masterclipid>
						<name>Lyd isbre.mov</name>
						<enabled>TRUE</enabled>
						<duration>203</duration>
						<rate>
							<timebase>25</timebase>
							<ntsc>FALSE</ntsc>
						</rate>
						<start>35709</start>
						<end>35912</end>
						<in>0</in>
						<out>203</out>
						<pproTicksIn>0</pproTicksIn>
						<pproTicksOut>2062609920000</pproTicksOut>
						<pixelaspectratio>square</pixelaspectratio>
						<anamorphic>FALSE</anamorphic>
						<file id="file-320">
							<name>Lyd isbre.mov</name>
							<pathurl>file://localhost/Volumes/Svartediket/Prosjekter/DVNA600216_HELAFTEN2016_FAL_010217/Video/Trailere2017/Asgeir-Isbre/Lyd%20isbre.mov</pathurl>
							<rate>
								<timebase>25</timebase>
								<ntsc>FALSE</ntsc>
							</rate>
							<duration>203</duration>
							<timecode>
								<rate>
									<timebase>25</timebase>
									<ntsc>FALSE</ntsc>
								</rate>
								<string>00:02:07:24</string>
								<frame>3199</frame>
								<displayformat>NDF</displayformat>
								<reel>
									<name></name>
								</reel>
							</timecode>
							<media>
								<video>
									<samplecharacteristics>
										<rate>
											<timebase>25</timebase>
											<ntsc>FALSE</ntsc>
										</rate>
										<width>1920</width>
										<height>1080</height>
										<anamorphic>FALSE</anamorphic>
										<pixelaspectratio>square</pixelaspectratio>
										<fielddominance>none</fielddominance>
									</samplecharacteristics>
								</video>
								<audio>
									<samplecharacteristics>
										<depth>16</depth>
										<samplerate>48000</samplerate>
									</samplecharacteristics>
									<channelcount>2</channelcount>
								</audio>
							</media>
						</file>
						<sourcetrack>
							<mediatype>audio</mediatype>
							<trackindex>1</trackindex>
						</sourcetrack>
							<filter>
								<effect>
									<name>Audio Levels</name>
									<effectid>audiolevels</effectid>
									<effectcategory>audiolevels</effectcategory>
									<effecttype>audiolevels</effecttype>
									<mediatype>audio</mediatype>
									<parameter authoringApp="PremierePro">
										<parameterid>level</parameterid>
										<name>Level</name>
										<valuemin>0</valuemin>
										<valuemax>3.98109</valuemax>
										<value>0</value>
										<keyframe>
											<when>0</when>
											<value>0</value>
										</keyframe>
										<keyframe>
											<when>40</when>
											<value>0.816243</value>
										</keyframe>
										<keyframe>
											<when>131</when>
											<value>0.816243</value>
										</keyframe>
										<keyframe>
											<when>162</when>
											<value>0</value>
										</keyframe>
									</parameter>
								</effect>
							</filter>
						<link>
							<linkclipref>clipitem-956</linkclipref>
							<mediatype>audio</mediatype>
							<trackindex>10</trackindex>
							<clipindex>57</clipindex>
							<groupindex>1</groupindex>
						</link>
						<link>
							<linkclipref>clipitem-1096</linkclipref>
							<mediatype>audio</mediatype>
							<trackindex>11</trackindex>
							<clipindex>57</clipindex>
							<groupindex>1</groupindex>
						</link>
						<logginginfo>
							<description></description>
							<scene></scene>
							<shottake></shottake>
							<lognote></lognote>
						</logginginfo>
						<labels>
							<label2>Lavender</label2>
						</labels>
					</clipitem>
					<clipitem id="clipitem-957" premiereChannelType="stereo">
						<masterclipid>masterclip-97</masterclipid>
						<name>AA011001.MXF</name>
						<enabled>TRUE</enabled>
						<duration>2088</duration>
						<rate>
							<timebase>25</timebase>
							<ntsc>FALSE</ntsc>
						</rate>
						<start>36838</start>
						<end>37096</end>
						<in>885</in>
						<out>1143</out>
						<pproTicksIn>8992166400000</pproTicksIn>
						<pproTicksOut>11613611520000</pproTicksOut>
						<file id="file-97"/>
						<sourcetrack>
							<mediatype>audio</mediatype>
							<trackindex>3</trackindex>
						</sourcetrack>
							<filter>
								<effect>
									<name>Audio Levels</name>
									<effectid>audiolevels</effectid>
									<effectcategory>audiolevels</effectcategory>
									<effecttype>audiolevels</effecttype>
									<mediatype>audio</mediatype>
									<parameter authoringApp="PremierePro">
										<parameterid>level</parameterid>
										<name>Level</name>
										<valuemin>0</valuemin>
										<valuemax>3.98109</valuemax>
										<value>0</value>
										<keyframe>
											<when>919</when>
											<value>0</value>
										</keyframe>
										<keyframe>
											<when>939</when>
											<value>0.530654</value>
										</keyframe>
										<keyframe>
											<when>1080</when>
											<value>0.530654</value>
										</keyframe>
										<keyframe>
											<when>1135</when>
											<value>0</value>
										</keyframe>
									</parameter>
								</effect>
							</filter>
						<link>
							<linkclipref>clipitem-138</linkclipref>
							<mediatype>video</mediatype>
							<trackindex>1</trackindex>
							<clipindex>147</clipindex>
						</link>
						<link>
							<linkclipref>clipitem-957</linkclipref>
							<mediatype>audio</mediatype>
							<trackindex>10</trackindex>
							<clipindex>58</clipindex>
							<groupindex>1</groupindex>
						</link>
						<link>
							<linkclipref>clipitem-1097</linkclipref>
							<mediatype>audio</mediatype>
							<trackindex>11</trackindex>
							<clipindex>58</clipindex>
							<groupindex>1</groupindex>
						</link>
						<logginginfo>
							<description></description>
							<scene></scene>
							<shottake></shottake>
							<lognote></lognote>
						</logginginfo>
						<labels>
							<label2>Iris</label2>
						</labels>
					</clipitem>
					<clipitem id="clipitem-958" premiereChannelType="stereo">
						<masterclipid>masterclip-104</masterclipid>
						<name>NRK2-210616.mxf</name>
						<enabled>TRUE</enabled>
						<duration>198000</duration>
						<rate>
							<timebase>25</timebase>
							<ntsc>FALSE</ntsc>
						</rate>
						<start>37367</start>
						<end>37582</end>
						<in>194103</in>
						<out>194317</out>
						<pproTicksIn>1972210705920000</pproTicksIn>
						<pproTicksOut>1974385082880000</pproTicksOut>
						<file id="file-104"/>
						<sourcetrack>
							<mediatype>audio</mediatype>
							<trackindex>3</trackindex>
						</sourcetrack>
						<link>
							<linkclipref>clipitem-145</linkclipref>
							<mediatype>video</mediatype>
							<trackindex>1</trackindex>
							<clipindex>154</clipindex>
						</link>
						<link>
							<linkclipref>clipitem-958</linkclipref>
							<mediatype>audio</mediatype>
							<trackindex>10</trackindex>
							<clipindex>59</clipindex>
							<groupindex>1</groupindex>
						</link>
						<link>
							<linkclipref>clipitem-1098</linkclipref>
							<mediatype>audio</mediatype>
							<trackindex>11</trackindex>
							<clipindex>59</clipindex>
							<groupindex>1</groupindex>
						</link>
						<logginginfo>
							<description>Program 6</description>
							<scene></scene>
							<shottake></shottake>
							<lognote></lognote>
						</logginginfo>
						<labels>
							<label2>Iris</label2>
						</labels>
					</clipitem>
					<transitionitem>
						<start>37650</start>
						<end>37662</end>
						<alignment>start-black</alignment>
						<cutPointTicks>0</cutPointTicks>
						<rate>
							<timebase>25</timebase>
							<ntsc>FALSE</ntsc>
						</rate>
						<effect>
							<name>Cross Fade (+3dB)</name>
							<effectid>KGAudioTransCrossFade3dB</effectid>
							<effecttype>transition</effecttype>
							<mediatype>audio</mediatype>
							<wipecode>0</wipecode>
							<wipeaccuracy>100</wipeaccuracy>
							<startratio>0</startratio>
							<endratio>1</endratio>
							<reverse>FALSE</reverse>
						</effect>
					</transitionitem>
					<clipitem id="clipitem-959" premiereChannelType="stereo">
						<masterclipid>masterclip-98</masterclipid>
						<name>DVNA60000316AA</name>
						<enabled>TRUE</enabled>
						<duration>58641</duration>
						<rate>
							<timebase>25</timebase>
							<ntsc>FALSE</ntsc>
						</rate>
						<start>-1</start>
						<end>37724</end>
						<in>17833</in>
						<out>17908</out>
						<pproTicksIn>181194693120000</pproTicksIn>
						<pproTicksOut>181956741120000</pproTicksOut>
						<file id="file-98"/>
						<sourcetrack>
							<mediatype>audio</mediatype>
							<trackindex>5</trackindex>
						</sourcetrack>
						<link>
							<linkclipref>clipitem-325</linkclipref>
							<mediatype>video</mediatype>
							<trackindex>2</trackindex>
							<clipindex>69</clipindex>
						</link>
						<link>
							<linkclipref>clipitem-959</linkclipref>
							<mediatype>audio</mediatype>
							<trackindex>10</trackindex>
							<clipindex>61</clipindex>
							<groupindex>1</groupindex>
						</link>
						<link>
							<linkclipref>clipitem-1099</linkclipref>
							<mediatype>audio</mediatype>
							<trackindex>11</trackindex>
							<clipindex>61</clipindex>
							<groupindex>1</groupindex>
						</link>
						<logginginfo>
							<description>Ut i naturen - Hornøya</description>
							<scene></scene>
							<shottake></shottake>
							<lognote></lognote>
						</logginginfo>
						<labels>
							<label2>Iris</label2>
						</labels>
					</clipitem>
					<clipitem id="clipitem-960" premiereChannelType="stereo">
						<masterclipid>masterclip-98</masterclipid>
						<name>DVNA60000316AA</name>
						<enabled>TRUE</enabled>
						<duration>58641</duration>
						<rate>
							<timebase>25</timebase>
							<ntsc>FALSE</ntsc>
						</rate>
						<start>38281</start>
						<end>38426</end>
						<in>4965</in>
						<out>5110</out>
						<pproTicksIn>50447577600000</pproTicksIn>
						<pproTicksOut>51920870400000</pproTicksOut>
						<file id="file-98"/>
						<sourcetrack>
							<mediatype>audio</mediatype>
							<trackindex>5</trackindex>
						</sourcetrack>
							<filter>
								<effect>
									<name>Gain</name>
									<effectid>{61756678, 4761696e, 4b657947}</effectid>
									<effecttype>filter</effecttype>
									<mediatype>audio</mediatype>
									<parameter authoringApp="PremierePro">
										<parameterid>Gain(dB)</parameterid>
										<name>Gain(dB)</name>
										<valuemin>-96</valuemin>
										<valuemax>96</valuemax>
										<value>-10</value>
									</parameter>
								</effect>
							</filter>
						<link>
							<linkclipref>clipitem-960</linkclipref>
							<mediatype>audio</mediatype>
							<trackindex>10</trackindex>
							<clipindex>62</clipindex>
							<groupindex>1</groupindex>
						</link>
						<link>
							<linkclipref>clipitem-1100</linkclipref>
							<mediatype>audio</mediatype>
							<trackindex>11</trackindex>
							<clipindex>62</clipindex>
							<groupindex>1</groupindex>
						</link>
						<logginginfo>
							<description>Ut i naturen - Hornøya</description>
							<scene></scene>
							<shottake></shottake>
							<lognote></lognote>
						</logginginfo>
						<labels>
							<label2>Iris</label2>
						</labels>
					</clipitem>
					<clipitem id="clipitem-961" premiereChannelType="stereo">
						<masterclipid>masterclip-104</masterclipid>
						<name>NRK2-210616.mxf</name>
						<enabled>TRUE</enabled>
						<duration>198000</duration>
						<rate>
							<timebase>25</timebase>
							<ntsc>FALSE</ntsc>
						</rate>
						<start>38505</start>
						<end>38843</end>
						<in>85193</in>
						<out>85530</out>
						<pproTicksIn>865615403520000</pproTicksIn>
						<pproTicksOut>869039539200000</pproTicksOut>
						<file id="file-104"/>
						<sourcetrack>
							<mediatype>audio</mediatype>
							<trackindex>3</trackindex>
						</sourcetrack>
							<filter>
								<effect>
									<name>Audio Levels</name>
									<effectid>audiolevels</effectid>
									<effectcategory>audiolevels</effectcategory>
									<effecttype>audiolevels</effecttype>
									<mediatype>audio</mediatype>
									<parameter authoringApp="PremierePro">
										<parameterid>level</parameterid>
										<name>Level</name>
										<valuemin>0</valuemin>
										<valuemax>3.98109</valuemax>
										<value>0</value>
										<keyframe>
											<when>85192</when>
											<value>0</value>
										</keyframe>
										<keyframe>
											<when>85218</when>
											<value>0.99763</value>
										</keyframe>
										<keyframe>
											<when>85506</when>
											<value>0.99763</value>
										</keyframe>
										<keyframe>
											<when>85528</when>
											<value>0</value>
										</keyframe>
									</parameter>
								</effect>
							</filter>
						<link>
							<linkclipref>clipitem-961</linkclipref>
							<mediatype>audio</mediatype>
							<trackindex>10</trackindex>
							<clipindex>63</clipindex>
							<groupindex>1</groupindex>
						</link>
						<link>
							<linkclipref>clipitem-1101</linkclipref>
							<mediatype>audio</mediatype>
							<trackindex>11</trackindex>
							<clipindex>63</clipindex>
							<groupindex>1</groupindex>
						</link>
						<logginginfo>
							<description>Program 6</description>
							<scene></scene>
							<shottake></shottake>
							<lognote></lognote>
						</logginginfo>
						<labels>
							<label2>Iris</label2>
						</labels>
					</clipitem>
					<clipitem id="clipitem-962" premiereChannelType="stereo">
						<masterclipid>masterclip-205</masterclipid>
						<name>NRK1-210616.mxf</name>
						<enabled>TRUE</enabled>
						<duration>81914</duration>
						<rate>
							<timebase>25</timebase>
							<ntsc>FALSE</ntsc>
						</rate>
						<start>38949</start>
						<end>39371</end>
						<in>1497</in>
						<out>1920</out>
						<pproTicksIn>15210478080000</pproTicksIn>
						<pproTicksOut>19508428800000</pproTicksOut>
						<file id="file-205"/>
						<sourcetrack>
							<mediatype>audio</mediatype>
							<trackindex>1</trackindex>
						</sourcetrack>
							<filter>
								<effect>
									<name>Audio Levels</name>
									<effectid>audiolevels</effectid>
									<effectcategory>audiolevels</effectcategory>
									<effecttype>audiolevels</effecttype>
									<mediatype>audio</mediatype>
									<parameter authoringApp="PremierePro">
										<parameterid>level</parameterid>
										<name>Level</name>
										<valuemin>0</valuemin>
										<valuemax>3.98109</valuemax>
										<value>0</value>
										<keyframe>
											<when>1262</when>
											<value>0</value>
										</keyframe>
										<keyframe>
											<when>1328</when>
											<value>0.976404</value>
										</keyframe>
										<keyframe>
											<when>1461</when>
											<value>0.976404</value>
										</keyframe>
										<keyframe>
											<when>1492</when>
											<value>0.99763</value>
										</keyframe>
										<keyframe>
											<when>1900</when>
											<value>0.99763</value>
										</keyframe>
										<keyframe>
											<when>1916</when>
											<value>0</value>
										</keyframe>
									</parameter>
								</effect>
							</filter>
						<link>
							<linkclipref>clipitem-962</linkclipref>
							<mediatype>audio</mediatype>
							<trackindex>10</trackindex>
							<clipindex>64</clipindex>
							<groupindex>1</groupindex>
						</link>
						<link>
							<linkclipref>clipitem-1102</linkclipref>
							<mediatype>audio</mediatype>
							<trackindex>11</trackindex>
							<clipindex>64</clipindex>
							<groupindex>1</groupindex>
						</link>
						<logginginfo>
							<description>DVNA20000616</description>
							<scene></scene>
							<shottake></shottake>
							<lognote></lognote>
						</logginginfo>
						<labels>
							<label2>Iris</label2>
						</labels>
					</clipitem>
					<clipitem id="clipitem-963" premiereChannelType="stereo">
						<masterclipid>masterclip-206</masterclipid>
						<name>AA017401.MXF</name>
						<enabled>TRUE</enabled>
						<duration>1104</duration>
						<rate>
							<timebase>25</timebase>
							<ntsc>FALSE</ntsc>
						</rate>
						<start>39562</start>
						<end>39662</end>
						<in>847</in>
						<out>947</out>
						<pproTicksIn>8606062080000</pproTicksIn>
						<pproTicksOut>9622126080000</pproTicksOut>
						<file id="file-206"/>
						<sourcetrack>
							<mediatype>audio</mediatype>
							<trackindex>3</trackindex>
						</sourcetrack>
							<filter>
								<effect>
									<name>Audio Levels</name>
									<effectid>audiolevels</effectid>
									<effectcategory>audiolevels</effectcategory>
									<effecttype>audiolevels</effecttype>
									<mediatype>audio</mediatype>
									<parameter authoringApp="PremierePro">
										<parameterid>level</parameterid>
										<name>Level</name>
										<valuemin>0</valuemin>
										<valuemax>3.98109</valuemax>
										<value>0.99763</value>
										<keyframe>
											<when>851</when>
											<value>0</value>
										</keyframe>
										<keyframe>
											<when>885</when>
											<value>0.99763</value>
										</keyframe>
									</parameter>
								</effect>
							</filter>
						<link>
							<linkclipref>clipitem-333</linkclipref>
							<mediatype>video</mediatype>
							<trackindex>2</trackindex>
							<clipindex>77</clipindex>
						</link>
						<link>
							<linkclipref>clipitem-783</linkclipref>
							<mediatype>audio</mediatype>
							<trackindex>8</trackindex>
							<clipindex>79</clipindex>
							<groupindex>1</groupindex>
						</link>
						<link>
							<linkclipref>clipitem-877</linkclipref>
							<mediatype>audio</mediatype>
							<trackindex>9</trackindex>
							<clipindex>77</clipindex>
							<groupindex>1</groupindex>
						</link>
						<link>
							<linkclipref>clipitem-963</linkclipref>
							<mediatype>audio</mediatype>
							<trackindex>10</trackindex>
							<clipindex>65</clipindex>
							<groupindex>1</groupindex>
						</link>
						<link>
							<linkclipref>clipitem-1103</linkclipref>
							<mediatype>audio</mediatype>
							<trackindex>11</trackindex>
							<clipindex>65</clipindex>
							<groupindex>1</groupindex>
						</link>
						<logginginfo>
							<description></description>
							<scene></scene>
							<shottake></shottake>
							<lognote></lognote>
						</logginginfo>
						<labels>
							<label2>Iris</label2>
						</labels>
					</clipitem>
					<clipitem id="clipitem-964" premiereChannelType="stereo">
						<masterclipid>masterclip-207</masterclipid>
						<name>AA018201.MXF</name>
						<enabled>TRUE</enabled>
						<duration>1152</duration>
						<rate>
							<timebase>25</timebase>
							<ntsc>FALSE</ntsc>
						</rate>
						<start>39662</start>
						<end>39774</end>
						<in>192</in>
						<out>304</out>
						<pproTicksIn>1950842880000</pproTicksIn>
						<pproTicksOut>3088834560000</pproTicksOut>
						<file id="file-207"/>
						<sourcetrack>
							<mediatype>audio</mediatype>
							<trackindex>3</trackindex>
						</sourcetrack>
						<link>
							<linkclipref>clipitem-334</linkclipref>
							<mediatype>video</mediatype>
							<trackindex>2</trackindex>
							<clipindex>78</clipindex>
						</link>
						<link>
							<linkclipref>clipitem-784</linkclipref>
							<mediatype>audio</mediatype>
							<trackindex>8</trackindex>
							<clipindex>80</clipindex>
							<groupindex>1</groupindex>
						</link>
						<link>
							<linkclipref>clipitem-878</linkclipref>
							<mediatype>audio</mediatype>
							<trackindex>9</trackindex>
							<clipindex>78</clipindex>
							<groupindex>1</groupindex>
						</link>
						<link>
							<linkclipref>clipitem-964</linkclipref>
							<mediatype>audio</mediatype>
							<trackindex>10</trackindex>
							<clipindex>66</clipindex>
							<groupindex>1</groupindex>
						</link>
						<link>
							<linkclipref>clipitem-1104</linkclipref>
							<mediatype>audio</mediatype>
							<trackindex>11</trackindex>
							<clipindex>66</clipindex>
							<groupindex>1</groupindex>
						</link>
						<logginginfo>
							<description></description>
							<scene></scene>
							<shottake></shottake>
							<lognote></lognote>
						</logginginfo>
						<labels>
							<label2>Iris</label2>
						</labels>
					</clipitem>
					<clipitem id="clipitem-965" premiereChannelType="stereo">
						<masterclipid>masterclip-210</masterclipid>
						<name>DVNA25000416AU.mxf</name>
						<enabled>TRUE</enabled>
						<duration>181792</duration>
						<rate>
							<timebase>25</timebase>
							<ntsc>FALSE</ntsc>
						</rate>
						<start>40401</start>
						<end>40538</end>
						<in>160553</in>
						<out>160690</out>
						<pproTicksIn>1631321233920000</pproTicksIn>
						<pproTicksOut>1632713241600000</pproTicksOut>
						<file id="file-210"/>
						<sourcetrack>
							<mediatype>audio</mediatype>
							<trackindex>3</trackindex>
						</sourcetrack>
							<filter>
								<effect>
									<name>Audio Levels</name>
									<effectid>audiolevels</effectid>
									<effectcategory>audiolevels</effectcategory>
									<effecttype>audiolevels</effecttype>
									<mediatype>audio</mediatype>
									<parameter authoringApp="PremierePro">
										<parameterid>level</parameterid>
										<name>Level</name>
										<valuemin>0</valuemin>
										<valuemax>3.98109</valuemax>
										<value>0</value>
										<keyframe>
											<when>160553</when>
											<value>0</value>
										</keyframe>
										<keyframe>
											<when>160572</when>
											<value>1.23112</value>
										</keyframe>
										<keyframe>
											<when>160669</when>
											<value>1.23112</value>
										</keyframe>
										<keyframe>
											<when>160690</when>
											<value>0</value>
										</keyframe>
									</parameter>
								</effect>
							</filter>
						<link>
							<linkclipref>clipitem-339</linkclipref>
							<mediatype>video</mediatype>
							<trackindex>2</trackindex>
							<clipindex>83</clipindex>
						</link>
						<link>
							<linkclipref>clipitem-965</linkclipref>
							<mediatype>audio</mediatype>
							<trackindex>10</trackindex>
							<clipindex>67</clipindex>
							<groupindex>1</groupindex>
						</link>
						<link>
							<linkclipref>clipitem-1105</linkclipref>
							<mediatype>audio</mediatype>
							<trackindex>11</trackindex>
							<clipindex>67</clipindex>
							<groupindex>1</groupindex>
						</link>
						<logginginfo>
							<description>Program 4</description>
							<scene></scene>
							<shottake></shottake>
							<lognote></lognote>
						</logginginfo>
						<labels>
							<label2>Iris</label2>
						</labels>
					</clipitem>
					<clipitem id="clipitem-966" premiereChannelType="stereo">
						<masterclipid>masterclip-210</masterclipid>
						<name>DVNA25000416AU.mxf</name>
						<enabled>TRUE</enabled>
						<duration>181792</duration>
						<rate>
							<timebase>25</timebase>
							<ntsc>FALSE</ntsc>
						</rate>
						<start>40953</start>
						<end>41251</end>
						<in>160512</in>
						<out>160810</out>
						<pproTicksIn>1630904647680000</pproTicksIn>
						<pproTicksOut>1633932518400000</pproTicksOut>
						<file id="file-210"/>
						<sourcetrack>
							<mediatype>audio</mediatype>
							<trackindex>3</trackindex>
						</sourcetrack>
							<filter>
								<effect>
									<name>Audio Levels</name>
									<effectid>audiolevels</effectid>
									<effectcategory>audiolevels</effectcategory>
									<effecttype>audiolevels</effecttype>
									<mediatype>audio</mediatype>
									<parameter authoringApp="PremierePro">
										<parameterid>level</parameterid>
										<name>Level</name>
										<valuemin>0</valuemin>
										<valuemax>3.98109</valuemax>
										<value>0</value>
										<keyframe>
											<when>160514</when>
											<value>0</value>
										</keyframe>
										<keyframe>
											<when>160550</when>
											<value>0.99763</value>
										</keyframe>
									</parameter>
								</effect>
							</filter>
						<link>
							<linkclipref>clipitem-966</linkclipref>
							<mediatype>audio</mediatype>
							<trackindex>10</trackindex>
							<clipindex>68</clipindex>
							<groupindex>1</groupindex>
						</link>
						<link>
							<linkclipref>clipitem-1106</linkclipref>
							<mediatype>audio</mediatype>
							<trackindex>11</trackindex>
							<clipindex>68</clipindex>
							<groupindex>1</groupindex>
						</link>
						<logginginfo>
							<description>Program 4</description>
							<scene></scene>
							<shottake></shottake>
							<lognote></lognote>
						</logginginfo>
						<labels>
							<label2>Iris</label2>
						</labels>
					</clipitem>
					<clipitem id="clipitem-967" premiereChannelType="stereo">
						<masterclipid>masterclip-213</masterclipid>
						<name>AA011201.MXF</name>
						<enabled>TRUE</enabled>
						<duration>1428</duration>
						<rate>
							<timebase>25</timebase>
							<ntsc>FALSE</ntsc>
						</rate>
						<start>41477</start>
						<end>41571</end>
						<in>427</in>
						<out>521</out>
						<pproTicksIn>4338593280000</pproTicksIn>
						<pproTicksOut>5293693440000</pproTicksOut>
						<file id="file-213"/>
						<sourcetrack>
							<mediatype>audio</mediatype>
							<trackindex>3</trackindex>
						</sourcetrack>
							<filter>
								<effect>
									<name>Gain</name>
									<effectid>{61756678, 4761696e, 4b657947}</effectid>
									<effecttype>filter</effecttype>
									<mediatype>audio</mediatype>
									<parameter authoringApp="PremierePro">
										<parameterid>Gain(dB)</parameterid>
										<name>Gain(dB)</name>
										<valuemin>-96</valuemin>
										<valuemax>96</valuemax>
										<value>-10</value>
									</parameter>
								</effect>
							</filter>
						<link>
							<linkclipref>clipitem-967</linkclipref>
							<mediatype>audio</mediatype>
							<trackindex>10</trackindex>
							<clipindex>69</clipindex>
							<groupindex>1</groupindex>
						</link>
						<link>
							<linkclipref>clipitem-1107</linkclipref>
							<mediatype>audio</mediatype>
							<trackindex>11</trackindex>
							<clipindex>69</clipindex>
							<groupindex>1</groupindex>
						</link>
						<logginginfo>
							<description></description>
							<scene></scene>
							<shottake></shottake>
							<lognote></lognote>
						</logginginfo>
						<labels>
							<label2>Iris</label2>
						</labels>
					</clipitem>
					<clipitem id="clipitem-968" premiereChannelType="stereo">
						<masterclipid>masterclip-97</masterclipid>
						<name>AA011001.MXF</name>
						<enabled>TRUE</enabled>
						<duration>2088</duration>
						<rate>
							<timebase>25</timebase>
							<ntsc>FALSE</ntsc>
						</rate>
						<start>41571</start>
						<end>41753</end>
						<in>545</in>
						<out>727</out>
						<pproTicksIn>5537548800000</pproTicksIn>
						<pproTicksOut>7386785280000</pproTicksOut>
						<file id="file-97"/>
						<sourcetrack>
							<mediatype>audio</mediatype>
							<trackindex>3</trackindex>
						</sourcetrack>
							<filter>
								<effect>
									<name>Gain</name>
									<effectid>{61756678, 4761696e, 4b657947}</effectid>
									<effecttype>filter</effecttype>
									<mediatype>audio</mediatype>
									<parameter authoringApp="PremierePro">
										<parameterid>Gain(dB)</parameterid>
										<name>Gain(dB)</name>
										<valuemin>-96</valuemin>
										<valuemax>96</valuemax>
										<value>-10</value>
									</parameter>
								</effect>
							</filter>
							<filter>
								<effect>
									<name>Audio Levels</name>
									<effectid>audiolevels</effectid>
									<effectcategory>audiolevels</effectcategory>
									<effecttype>audiolevels</effecttype>
									<mediatype>audio</mediatype>
									<parameter authoringApp="PremierePro">
										<parameterid>level</parameterid>
										<name>Level</name>
										<valuemin>0</valuemin>
										<valuemax>3.98109</valuemax>
										<value>0.44575</value>
									</parameter>
								</effect>
							</filter>
						<link>
							<linkclipref>clipitem-344</linkclipref>
							<mediatype>video</mediatype>
							<trackindex>2</trackindex>
							<clipindex>88</clipindex>
						</link>
						<link>
							<linkclipref>clipitem-968</linkclipref>
							<mediatype>audio</mediatype>
							<trackindex>10</trackindex>
							<clipindex>70</clipindex>
							<groupindex>1</groupindex>
						</link>
						<link>
							<linkclipref>clipitem-1108</linkclipref>
							<mediatype>audio</mediatype>
							<trackindex>11</trackindex>
							<clipindex>70</clipindex>
							<groupindex>1</groupindex>
						</link>
						<logginginfo>
							<description></description>
							<scene></scene>
							<shottake></shottake>
							<lognote></lognote>
						</logginginfo>
						<labels>
							<label2>Iris</label2>
						</labels>
					</clipitem>
					<clipitem id="clipitem-969" premiereChannelType="stereo">
						<masterclipid>masterclip-214</masterclipid>
						<name>AA014401.MXF</name>
						<enabled>TRUE</enabled>
						<duration>588</duration>
						<rate>
							<timebase>25</timebase>
							<ntsc>FALSE</ntsc>
						</rate>
						<start>41753</start>
						<end>42128</end>
						<in>180</in>
						<out>555</out>
						<pproTicksIn>1828915200000</pproTicksIn>
						<pproTicksOut>5639155200000</pproTicksOut>
						<file id="file-214"/>
						<sourcetrack>
							<mediatype>audio</mediatype>
							<trackindex>3</trackindex>
						</sourcetrack>
							<filter>
								<effect>
									<name>Audio Levels</name>
									<effectid>audiolevels</effectid>
									<effectcategory>audiolevels</effectcategory>
									<effecttype>audiolevels</effecttype>
									<mediatype>audio</mediatype>
									<parameter authoringApp="PremierePro">
										<parameterid>level</parameterid>
										<name>Level</name>
										<valuemin>0</valuemin>
										<valuemax>3.98109</valuemax>
										<value>0.99763</value>
										<keyframe>
											<when>478</when>
											<value>0.99763</value>
										</keyframe>
										<keyframe>
											<when>498</when>
											<value>1.99526</value>
										</keyframe>
									</parameter>
								</effect>
							</filter>
						<link>
							<linkclipref>clipitem-345</linkclipref>
							<mediatype>video</mediatype>
							<trackindex>2</trackindex>
							<clipindex>89</clipindex>
						</link>
						<link>
							<linkclipref>clipitem-969</linkclipref>
							<mediatype>audio</mediatype>
							<trackindex>10</trackindex>
							<clipindex>71</clipindex>
							<groupindex>1</groupindex>
						</link>
						<link>
							<linkclipref>clipitem-1109</linkclipref>
							<mediatype>audio</mediatype>
							<trackindex>11</trackindex>
							<clipindex>71</clipindex>
							<groupindex>1</groupindex>
						</link>
						<logginginfo>
							<description></description>
							<scene></scene>
							<shottake></shottake>
							<lognote></lognote>
						</logginginfo>
						<labels>
							<label2>Iris</label2>
						</labels>
					</clipitem>
					<clipitem id="clipitem-970" premiereChannelType="stereo">
						<masterclipid>masterclip-215</masterclipid>
						<name>AA018401.MXF</name>
						<enabled>TRUE</enabled>
						<duration>1632</duration>
						<rate>
							<timebase>25</timebase>
							<ntsc>FALSE</ntsc>
						</rate>
						<start>42128</start>
						<end>42188</end>
						<in>896</in>
						<out>956</out>
						<pproTicksIn>9103933440000</pproTicksIn>
						<pproTicksOut>9713571840000</pproTicksOut>
						<file id="file-215"/>
						<sourcetrack>
							<mediatype>audio</mediatype>
							<trackindex>3</trackindex>
						</sourcetrack>
						<link>
							<linkclipref>clipitem-970</linkclipref>
							<mediatype>audio</mediatype>
							<trackindex>10</trackindex>
							<clipindex>72</clipindex>
							<groupindex>1</groupindex>
						</link>
						<link>
							<linkclipref>clipitem-1110</linkclipref>
							<mediatype>audio</mediatype>
							<trackindex>11</trackindex>
							<clipindex>72</clipindex>
							<groupindex>1</groupindex>
						</link>
						<logginginfo>
							<description></description>
							<scene></scene>
							<shottake></shottake>
							<lognote></lognote>
						</logginginfo>
						<labels>
							<label2>Iris</label2>
						</labels>
					</clipitem>
					<clipitem id="clipitem-971" premiereChannelType="stereo">
						<masterclipid>masterclip-215</masterclipid>
						<name>AA018401.MXF</name>
						<enabled>TRUE</enabled>
						<duration>1632</duration>
						<rate>
							<timebase>25</timebase>
							<ntsc>FALSE</ntsc>
						</rate>
						<start>42188</start>
						<end>42276</end>
						<in>998</in>
						<out>1086</out>
						<pproTicksIn>10140318720000</pproTicksIn>
						<pproTicksOut>11034455040000</pproTicksOut>
						<file id="file-215"/>
						<sourcetrack>
							<mediatype>audio</mediatype>
							<trackindex>3</trackindex>
						</sourcetrack>
						<link>
							<linkclipref>clipitem-347</linkclipref>
							<mediatype>video</mediatype>
							<trackindex>2</trackindex>
							<clipindex>91</clipindex>
						</link>
						<link>
							<linkclipref>clipitem-971</linkclipref>
							<mediatype>audio</mediatype>
							<trackindex>10</trackindex>
							<clipindex>73</clipindex>
							<groupindex>1</groupindex>
						</link>
						<link>
							<linkclipref>clipitem-1111</linkclipref>
							<mediatype>audio</mediatype>
							<trackindex>11</trackindex>
							<clipindex>73</clipindex>
							<groupindex>1</groupindex>
						</link>
						<logginginfo>
							<description></description>
							<scene></scene>
							<shottake></shottake>
							<lognote></lognote>
						</logginginfo>
						<labels>
							<label2>Iris</label2>
						</labels>
					</clipitem>
					<clipitem id="clipitem-972" premiereChannelType="stereo">
						<masterclipid>masterclip-216</masterclipid>
						<name>AA018301.MXF</name>
						<enabled>TRUE</enabled>
						<duration>3456</duration>
						<rate>
							<timebase>25</timebase>
							<ntsc>FALSE</ntsc>
						</rate>
						<start>42276</start>
						<end>42470</end>
						<in>140</in>
						<out>334</out>
						<pproTicksIn>1422489600000</pproTicksIn>
						<pproTicksOut>3393653760000</pproTicksOut>
						<file id="file-216"/>
						<sourcetrack>
							<mediatype>audio</mediatype>
							<trackindex>3</trackindex>
						</sourcetrack>
						<link>
							<linkclipref>clipitem-348</linkclipref>
							<mediatype>video</mediatype>
							<trackindex>2</trackindex>
							<clipindex>92</clipindex>
						</link>
						<link>
							<linkclipref>clipitem-972</linkclipref>
							<mediatype>audio</mediatype>
							<trackindex>10</trackindex>
							<clipindex>74</clipindex>
							<groupindex>1</groupindex>
						</link>
						<link>
							<linkclipref>clipitem-1112</linkclipref>
							<mediatype>audio</mediatype>
							<trackindex>11</trackindex>
							<clipindex>74</clipindex>
							<groupindex>1</groupindex>
						</link>
						<logginginfo>
							<description></description>
							<scene></scene>
							<shottake></shottake>
							<lognote></lognote>
						</logginginfo>
						<labels>
							<label2>Iris</label2>
						</labels>
					</clipitem>
					<clipitem id="clipitem-973" premiereChannelType="stereo">
						<masterclipid>masterclip-216</masterclipid>
						<name>AA018301.MXF</name>
						<enabled>TRUE</enabled>
						<duration>3456</duration>
						<rate>
							<timebase>25</timebase>
							<ntsc>FALSE</ntsc>
						</rate>
						<start>42470</start>
						<end>42520</end>
						<in>1413</in>
						<out>1463</out>
						<pproTicksIn>14356984320000</pproTicksIn>
						<pproTicksOut>14865016320000</pproTicksOut>
						<file id="file-216"/>
						<sourcetrack>
							<mediatype>audio</mediatype>
							<trackindex>3</trackindex>
						</sourcetrack>
						<link>
							<linkclipref>clipitem-973</linkclipref>
							<mediatype>audio</mediatype>
							<trackindex>10</trackindex>
							<clipindex>75</clipindex>
							<groupindex>1</groupindex>
						</link>
						<link>
							<linkclipref>clipitem-1113</linkclipref>
							<mediatype>audio</mediatype>
							<trackindex>11</trackindex>
							<clipindex>75</clipindex>
							<groupindex>1</groupindex>
						</link>
						<logginginfo>
							<description></description>
							<scene></scene>
							<shottake></shottake>
							<lognote></lognote>
						</logginginfo>
						<labels>
							<label2>Iris</label2>
						</labels>
					</clipitem>
					<clipitem id="clipitem-974" premiereChannelType="stereo">
						<masterclipid>masterclip-216</masterclipid>
						<name>AA018301.MXF</name>
						<enabled>TRUE</enabled>
						<duration>3456</duration>
						<rate>
							<timebase>25</timebase>
							<ntsc>FALSE</ntsc>
						</rate>
						<start>42520</start>
						<end>-1</end>
						<in>1871</in>
						<out>1958</out>
						<pproTicksIn>19010557440000</pproTicksIn>
						<pproTicksOut>19894533120000</pproTicksOut>
						<file id="file-216"/>
						<sourcetrack>
							<mediatype>audio</mediatype>
							<trackindex>3</trackindex>
						</sourcetrack>
						<link>
							<linkclipref>clipitem-350</linkclipref>
							<mediatype>video</mediatype>
							<trackindex>2</trackindex>
							<clipindex>94</clipindex>
						</link>
						<link>
							<linkclipref>clipitem-974</linkclipref>
							<mediatype>audio</mediatype>
							<trackindex>10</trackindex>
							<clipindex>76</clipindex>
							<groupindex>1</groupindex>
						</link>
						<link>
							<linkclipref>clipitem-1114</linkclipref>
							<mediatype>audio</mediatype>
							<trackindex>11</trackindex>
							<clipindex>76</clipindex>
							<groupindex>1</groupindex>
						</link>
						<logginginfo>
							<description></description>
							<scene></scene>
							<shottake></shottake>
							<lognote></lognote>
						</logginginfo>
						<labels>
							<label2>Iris</label2>
						</labels>
					</clipitem>
					<transitionitem>
						<start>42594</start>
						<end>42607</end>
						<alignment>center</alignment>
						<cutPointTicks>60963840000</cutPointTicks>
						<rate>
							<timebase>25</timebase>
							<ntsc>FALSE</ntsc>
						</rate>
						<effect>
							<name>Cross Fade (+3dB)</name>
							<effectid>KGAudioTransCrossFade3dB</effectid>
							<effecttype>transition</effecttype>
							<mediatype>audio</mediatype>
							<wipecode>0</wipecode>
							<wipeaccuracy>100</wipeaccuracy>
							<startratio>0</startratio>
							<endratio>1</endratio>
							<reverse>FALSE</reverse>
						</effect>
					</transitionitem>
					<clipitem id="clipitem-975" premiereChannelType="stereo">
						<masterclipid>masterclip-216</masterclipid>
						<name>AA018301.MXF</name>
						<enabled>TRUE</enabled>
						<duration>3456</duration>
						<rate>
							<timebase>25</timebase>
							<ntsc>FALSE</ntsc>
						</rate>
						<start>-1</start>
						<end>42690</end>
						<in>2022</in>
						<out>2118</out>
						<pproTicksIn>20544814080000</pproTicksIn>
						<pproTicksOut>21520235520000</pproTicksOut>
						<file id="file-216"/>
						<sourcetrack>
							<mediatype>audio</mediatype>
							<trackindex>3</trackindex>
						</sourcetrack>
							<filter>
								<effect>
									<name>Audio Levels</name>
									<effectid>audiolevels</effectid>
									<effectcategory>audiolevels</effectcategory>
									<effecttype>audiolevels</effecttype>
									<mediatype>audio</mediatype>
									<parameter authoringApp="PremierePro">
										<parameterid>level</parameterid>
										<name>Level</name>
										<valuemin>0</valuemin>
										<valuemax>3.98109</valuemax>
										<value>0.318393</value>
									</parameter>
								</effect>
							</filter>
						<link>
							<linkclipref>clipitem-351</linkclipref>
							<mediatype>video</mediatype>
							<trackindex>2</trackindex>
							<clipindex>95</clipindex>
						</link>
						<link>
							<linkclipref>clipitem-975</linkclipref>
							<mediatype>audio</mediatype>
							<trackindex>10</trackindex>
							<clipindex>78</clipindex>
							<groupindex>1</groupindex>
						</link>
						<link>
							<linkclipref>clipitem-1115</linkclipref>
							<mediatype>audio</mediatype>
							<trackindex>11</trackindex>
							<clipindex>78</clipindex>
							<groupindex>1</groupindex>
						</link>
						<logginginfo>
							<description></description>
							<scene></scene>
							<shottake></shottake>
							<lognote></lognote>
						</logginginfo>
						<labels>
							<label2>Iris</label2>
						</labels>
					</clipitem>
					<clipitem id="clipitem-976" premiereChannelType="stereo">
						<masterclipid>masterclip-217</masterclipid>
						<name>00001.mxf</name>
						<enabled>TRUE</enabled>
						<duration>456</duration>
						<rate>
							<timebase>25</timebase>
							<ntsc>FALSE</ntsc>
						</rate>
						<start>42690</start>
						<end>42786</end>
						<in>45</in>
						<out>141</out>
						<pproTicksIn>457228800000</pproTicksIn>
						<pproTicksOut>1432650240000</pproTicksOut>
						<file id="file-217"/>
						<sourcetrack>
							<mediatype>audio</mediatype>
							<trackindex>1</trackindex>
						</sourcetrack>
							<filter>
								<effect>
									<name>Audio Levels</name>
									<effectid>audiolevels</effectid>
									<effectcategory>audiolevels</effectcategory>
									<effecttype>audiolevels</effecttype>
									<mediatype>audio</mediatype>
									<parameter authoringApp="PremierePro">
										<parameterid>level</parameterid>
										<name>Level</name>
										<valuemin>0</valuemin>
										<valuemax>3.98109</valuemax>
										<value>0.403297</value>
									</parameter>
								</effect>
							</filter>
						<link>
							<linkclipref>clipitem-352</linkclipref>
							<mediatype>video</mediatype>
							<trackindex>2</trackindex>
							<clipindex>96</clipindex>
						</link>
						<link>
							<linkclipref>clipitem-976</linkclipref>
							<mediatype>audio</mediatype>
							<trackindex>10</trackindex>
							<clipindex>79</clipindex>
							<groupindex>1</groupindex>
						</link>
						<link>
							<linkclipref>clipitem-1116</linkclipref>
							<mediatype>audio</mediatype>
							<trackindex>11</trackindex>
							<clipindex>79</clipindex>
							<groupindex>1</groupindex>
						</link>
						<logginginfo>
							<description></description>
							<scene></scene>
							<shottake></shottake>
							<lognote></lognote>
						</logginginfo>
						<labels>
							<label2>Iris</label2>
						</labels>
					</clipitem>
					<clipitem id="clipitem-977" premiereChannelType="stereo">
						<masterclipid>masterclip-218</masterclipid>
						<name>00002.mxf</name>
						<enabled>TRUE</enabled>
						<duration>432</duration>
						<rate>
							<timebase>25</timebase>
							<ntsc>FALSE</ntsc>
						</rate>
						<start>42786</start>
						<end>42896</end>
						<in>48</in>
						<out>158</out>
						<pproTicksIn>487710720000</pproTicksIn>
						<pproTicksOut>1605381120000</pproTicksOut>
						<file id="file-218"/>
						<sourcetrack>
							<mediatype>audio</mediatype>
							<trackindex>1</trackindex>
						</sourcetrack>
							<filter>
								<effect>
									<name>Audio Levels</name>
									<effectid>audiolevels</effectid>
									<effectcategory>audiolevels</effectcategory>
									<effecttype>audiolevels</effecttype>
									<mediatype>audio</mediatype>
									<parameter authoringApp="PremierePro">
										<parameterid>level</parameterid>
										<name>Level</name>
										<valuemin>0</valuemin>
										<valuemax>3.98109</valuemax>
										<value>0</value>
										<keyframe>
											<when>127</when>
											<value>0.403297</value>
										</keyframe>
										<keyframe>
											<when>155</when>
											<value>0</value>
										</keyframe>
									</parameter>
								</effect>
							</filter>
						<link>
							<linkclipref>clipitem-353</linkclipref>
							<mediatype>video</mediatype>
							<trackindex>2</trackindex>
							<clipindex>97</clipindex>
						</link>
						<link>
							<linkclipref>clipitem-977</linkclipref>
							<mediatype>audio</mediatype>
							<trackindex>10</trackindex>
							<clipindex>80</clipindex>
							<groupindex>1</groupindex>
						</link>
						<link>
							<linkclipref>clipitem-1117</linkclipref>
							<mediatype>audio</mediatype>
							<trackindex>11</trackindex>
							<clipindex>80</clipindex>
							<groupindex>1</groupindex>
						</link>
						<logginginfo>
							<description></description>
							<scene></scene>
							<shottake></shottake>
							<lognote></lognote>
						</logginginfo>
						<labels>
							<label2>Iris</label2>
						</labels>
					</clipitem>
					<clipitem id="clipitem-978" premiereChannelType="stereo">
						<masterclipid>masterclip-220</masterclipid>
						<name>00060.MTS</name>
						<enabled>TRUE</enabled>
						<duration>1274</duration>
						<rate>
							<timebase>25</timebase>
							<ntsc>FALSE</ntsc>
						</rate>
						<start>43447</start>
						<end>43926</end>
						<in>389</in>
						<out>868</out>
						<pproTicksIn>3952488960000</pproTicksIn>
						<pproTicksOut>8819435520000</pproTicksOut>
						<file id="file-220"/>
						<sourcetrack>
							<mediatype>audio</mediatype>
							<trackindex>1</trackindex>
						</sourcetrack>
							<filter>
								<effect>
									<name>Audio Levels</name>
									<effectid>audiolevels</effectid>
									<effectcategory>audiolevels</effectcategory>
									<effecttype>audiolevels</effecttype>
									<mediatype>audio</mediatype>
									<parameter authoringApp="PremierePro">
										<parameterid>level</parameterid>
										<name>Level</name>
										<valuemin>0</valuemin>
										<valuemax>3.98109</valuemax>
										<value>0.827821</value>
										<keyframe>
											<when>399</when>
											<value>0</value>
										</keyframe>
										<keyframe>
											<when>420</when>
											<value>0.827821</value>
										</keyframe>
									</parameter>
								</effect>
							</filter>
						<link>
							<linkclipref>clipitem-355</linkclipref>
							<mediatype>video</mediatype>
							<trackindex>2</trackindex>
							<clipindex>99</clipindex>
						</link>
						<link>
							<linkclipref>clipitem-978</linkclipref>
							<mediatype>audio</mediatype>
							<trackindex>10</trackindex>
							<clipindex>81</clipindex>
							<groupindex>1</groupindex>
						</link>
						<link>
							<linkclipref>clipitem-1118</linkclipref>
							<mediatype>audio</mediatype>
							<trackindex>11</trackindex>
							<clipindex>81</clipindex>
							<groupindex>1</groupindex>
						</link>
						<logginginfo>
							<description></description>
							<scene></scene>
							<shottake></shottake>
							<lognote></lognote>
						</logginginfo>
						<labels>
							<label2>Iris</label2>
						</labels>
					</clipitem>
					<clipitem id="clipitem-979" premiereChannelType="stereo">
						<masterclipid>masterclip-222</masterclipid>
						<name>00064.mxf</name>
						<enabled>TRUE</enabled>
						<duration>1032</duration>
						<rate>
							<timebase>25</timebase>
							<ntsc>FALSE</ntsc>
						</rate>
						<start>44350</start>
						<end>-1</end>
						<in>579</in>
						<out>722</out>
						<pproTicksIn>5883010560000</pproTicksIn>
						<pproTicksOut>7335982080000</pproTicksOut>
						<file id="file-222"/>
						<sourcetrack>
							<mediatype>audio</mediatype>
							<trackindex>1</trackindex>
						</sourcetrack>
							<filter>
								<effect>
									<name>Audio Levels</name>
									<effectid>audiolevels</effectid>
									<effectcategory>audiolevels</effectcategory>
									<effecttype>audiolevels</effecttype>
									<mediatype>audio</mediatype>
									<parameter authoringApp="PremierePro">
										<parameterid>level</parameterid>
										<name>Level</name>
										<valuemin>0</valuemin>
										<valuemax>3.98109</valuemax>
										<value>0.99763</value>
										<keyframe>
											<when>583</when>
											<value>0</value>
										</keyframe>
										<keyframe>
											<when>598</when>
											<value>0.99763</value>
										</keyframe>
									</parameter>
								</effect>
							</filter>
						<link>
							<linkclipref>clipitem-357</linkclipref>
							<mediatype>video</mediatype>
							<trackindex>2</trackindex>
							<clipindex>101</clipindex>
						</link>
						<link>
							<linkclipref>clipitem-979</linkclipref>
							<mediatype>audio</mediatype>
							<trackindex>10</trackindex>
							<clipindex>82</clipindex>
							<groupindex>1</groupindex>
						</link>
						<link>
							<linkclipref>clipitem-1119</linkclipref>
							<mediatype>audio</mediatype>
							<trackindex>11</trackindex>
							<clipindex>82</clipindex>
							<groupindex>1</groupindex>
						</link>
						<logginginfo>
							<description></description>
							<scene></scene>
							<shottake></shottake>
							<lognote></lognote>
						</logginginfo>
						<labels>
							<label2>Iris</label2>
						</labels>
					</clipitem>
					<transitionitem>
						<start>44480</start>
						<end>44493</end>
						<alignment>start</alignment>
						<cutPointTicks>0</cutPointTicks>
						<rate>
							<timebase>25</timebase>
							<ntsc>FALSE</ntsc>
						</rate>
						<effect>
							<name>Cross Fade (+3dB)</name>
							<effectid>KGAudioTransCrossFade3dB</effectid>
							<effecttype>transition</effecttype>
							<mediatype>audio</mediatype>
							<wipecode>0</wipecode>
							<wipeaccuracy>100</wipeaccuracy>
							<startratio>0</startratio>
							<endratio>1</endratio>
							<reverse>FALSE</reverse>
						</effect>
					</transitionitem>
					<clipitem id="clipitem-980" premiereChannelType="stereo">
						<masterclipid>masterclip-104</masterclipid>
						<name>NRK2-210616.mxf</name>
						<enabled>TRUE</enabled>
						<duration>198000</duration>
						<rate>
							<timebase>25</timebase>
							<ntsc>FALSE</ntsc>
						</rate>
						<start>-1</start>
						<end>44654</end>
						<in>84367</in>
						<out>84541</out>
						<pproTicksIn>857222714880000</pproTicksIn>
						<pproTicksOut>858990666240000</pproTicksOut>
						<file id="file-104"/>
						<sourcetrack>
							<mediatype>audio</mediatype>
							<trackindex>3</trackindex>
						</sourcetrack>
							<filter>
								<effect>
									<name>Gain</name>
									<effectid>{61756678, 4761696e, 4b657947}</effectid>
									<effecttype>filter</effecttype>
									<mediatype>audio</mediatype>
									<parameter authoringApp="PremierePro">
										<parameterid>Gain(dB)</parameterid>
										<name>Gain(dB)</name>
										<valuemin>-96</valuemin>
										<valuemax>96</valuemax>
										<value>-5</value>
									</parameter>
								</effect>
							</filter>
						<link>
							<linkclipref>clipitem-980</linkclipref>
							<mediatype>audio</mediatype>
							<trackindex>10</trackindex>
							<clipindex>84</clipindex>
							<groupindex>1</groupindex>
						</link>
						<link>
							<linkclipref>clipitem-1120</linkclipref>
							<mediatype>audio</mediatype>
							<trackindex>11</trackindex>
							<clipindex>84</clipindex>
							<groupindex>1</groupindex>
						</link>
						<logginginfo>
							<description>Program 6</description>
							<scene></scene>
							<shottake></shottake>
							<lognote></lognote>
						</logginginfo>
						<labels>
							<label2>Iris</label2>
						</labels>
					</clipitem>
					<clipitem id="clipitem-981" premiereChannelType="mono">
						<masterclipid>masterclip-224</masterclipid>
						<name>IMG_1256.MOV</name>
						<enabled>TRUE</enabled>
						<duration>346</duration>
						<rate>
							<timebase>25</timebase>
							<ntsc>FALSE</ntsc>
						</rate>
						<start>44654</start>
						<end>44779</end>
						<in>23</in>
						<out>149</out>
						<pproTicksIn>233694720000</pproTicksIn>
						<pproTicksOut>1513935360000</pproTicksOut>
						<file id="file-224"/>
						<sourcetrack>
							<mediatype>audio</mediatype>
							<trackindex>1</trackindex>
						</sourcetrack>
						<link>
							<linkclipref>clipitem-359</linkclipref>
							<mediatype>video</mediatype>
							<trackindex>2</trackindex>
							<clipindex>103</clipindex>
						</link>
						<link>
							<linkclipref>clipitem-981</linkclipref>
							<mediatype>audio</mediatype>
							<trackindex>10</trackindex>
							<clipindex>85</clipindex>
							<groupindex>1</groupindex>
						</link>
						<logginginfo>
							<description>Kamera og måker</description>
							<scene></scene>
							<shottake></shottake>
							<lognote></lognote>
						</logginginfo>
						<labels>
							<label2>Iris</label2>
						</labels>
					</clipitem>
					<clipitem id="clipitem-982" premiereChannelType="stereo">
						<masterclipid>masterclip-102</masterclipid>
						<name>NRK2-180616.mxf</name>
						<enabled>TRUE</enabled>
						<duration>183000</duration>
						<rate>
							<timebase>25</timebase>
							<ntsc>FALSE</ntsc>
						</rate>
						<start>44779</start>
						<end>44837</end>
						<in>24183</in>
						<out>24241</out>
						<pproTicksIn>245714757120000</pproTicksIn>
						<pproTicksOut>246304074240000</pproTicksOut>
						<file id="file-102"/>
						<sourcetrack>
							<mediatype>audio</mediatype>
							<trackindex>3</trackindex>
						</sourcetrack>
							<filter>
								<effect>
									<name>Audio Levels</name>
									<effectid>audiolevels</effectid>
									<effectcategory>audiolevels</effectcategory>
									<effecttype>audiolevels</effecttype>
									<mediatype>audio</mediatype>
									<parameter authoringApp="PremierePro">
										<parameterid>level</parameterid>
										<name>Level</name>
										<valuemin>0</valuemin>
										<valuemax>3.98109</valuemax>
										<value>0.912725</value>
									</parameter>
								</effect>
							</filter>
						<link>
							<linkclipref>clipitem-362</linkclipref>
							<mediatype>video</mediatype>
							<trackindex>2</trackindex>
							<clipindex>106</clipindex>
						</link>
						<link>
							<linkclipref>clipitem-982</linkclipref>
							<mediatype>audio</mediatype>
							<trackindex>10</trackindex>
							<clipindex>86</clipindex>
							<groupindex>1</groupindex>
						</link>
						<link>
							<linkclipref>clipitem-1121</linkclipref>
							<mediatype>audio</mediatype>
							<trackindex>11</trackindex>
							<clipindex>85</clipindex>
							<groupindex>1</groupindex>
						</link>
						<logginginfo>
							<description>Program 5</description>
							<scene></scene>
							<shottake></shottake>
							<lognote></lognote>
						</logginginfo>
						<labels>
							<label2>Iris</label2>
						</labels>
					</clipitem>
					<clipitem id="clipitem-983" premiereChannelType="stereo">
						<masterclipid>masterclip-103</masterclipid>
						<name>DVNA25000116AU.mxf</name>
						<enabled>TRUE</enabled>
						<duration>192000</duration>
						<rate>
							<timebase>25</timebase>
							<ntsc>FALSE</ntsc>
						</rate>
						<start>44837</start>
						<end>45024</end>
						<in>64600</in>
						<out>64788</out>
						<pproTicksIn>656377344000000</pproTicksIn>
						<pproTicksOut>658287544320000</pproTicksOut>
						<file id="file-103"/>
						<sourcetrack>
							<mediatype>audio</mediatype>
							<trackindex>3</trackindex>
						</sourcetrack>
						<link>
							<linkclipref>clipitem-983</linkclipref>
							<mediatype>audio</mediatype>
							<trackindex>10</trackindex>
							<clipindex>87</clipindex>
							<groupindex>1</groupindex>
						</link>
						<link>
							<linkclipref>clipitem-1122</linkclipref>
							<mediatype>audio</mediatype>
							<trackindex>11</trackindex>
							<clipindex>86</clipindex>
							<groupindex>1</groupindex>
						</link>
						<logginginfo>
							<description>Program 1</description>
							<scene></scene>
							<shottake></shottake>
							<lognote></lognote>
						</logginginfo>
						<labels>
							<label2>Iris</label2>
						</labels>
					</clipitem>
					<clipitem id="clipitem-984" premiereChannelType="mono">
						<masterclipid>masterclip-228</masterclipid>
						<name>Clip0015.MXF</name>
						<enabled>TRUE</enabled>
						<duration>432</duration>
						<rate>
							<timebase>25</timebase>
							<ntsc>FALSE</ntsc>
						</rate>
						<start>45024</start>
						<end>45058</end>
						<in>183</in>
						<out>217</out>
						<pproTicksIn>1859397120000</pproTicksIn>
						<pproTicksOut>2204858880000</pproTicksOut>
						<file id="file-228"/>
						<sourcetrack>
							<mediatype>audio</mediatype>
							<trackindex>2</trackindex>
						</sourcetrack>
						<link>
							<linkclipref>clipitem-365</linkclipref>
							<mediatype>video</mediatype>
							<trackindex>2</trackindex>
							<clipindex>109</clipindex>
						</link>
						<link>
							<linkclipref>clipitem-984</linkclipref>
							<mediatype>audio</mediatype>
							<trackindex>10</trackindex>
							<clipindex>88</clipindex>
							<groupindex>1</groupindex>
						</link>
						<logginginfo>
							<description></description>
							<scene></scene>
							<shottake></shottake>
							<lognote></lognote>
						</logginginfo>
						<labels>
							<label2>Iris</label2>
						</labels>
					</clipitem>
					<clipitem id="clipitem-985" premiereChannelType="stereo">
						<masterclipid>masterclip-205</masterclipid>
						<name>NRK1-210616.mxf</name>
						<enabled>TRUE</enabled>
						<duration>81914</duration>
						<rate>
							<timebase>25</timebase>
							<ntsc>FALSE</ntsc>
						</rate>
						<start>45058</start>
						<end>45124</end>
						<in>8244</in>
						<out>8311</out>
						<pproTicksIn>83764316160000</pproTicksIn>
						<pproTicksOut>84445079040000</pproTicksOut>
						<file id="file-205"/>
						<sourcetrack>
							<mediatype>audio</mediatype>
							<trackindex>3</trackindex>
						</sourcetrack>
							<filter>
								<effect>
									<name>Audio Levels</name>
									<effectid>audiolevels</effectid>
									<effectcategory>audiolevels</effectcategory>
									<effecttype>audiolevels</effecttype>
									<mediatype>audio</mediatype>
									<parameter authoringApp="PremierePro">
										<parameterid>level</parameterid>
										<name>Level</name>
										<valuemin>0</valuemin>
										<valuemax>3.98109</valuemax>
										<value>1.04008</value>
									</parameter>
								</effect>
							</filter>
						<link>
							<linkclipref>clipitem-366</linkclipref>
							<mediatype>video</mediatype>
							<trackindex>2</trackindex>
							<clipindex>110</clipindex>
						</link>
						<link>
							<linkclipref>clipitem-985</linkclipref>
							<mediatype>audio</mediatype>
							<trackindex>10</trackindex>
							<clipindex>89</clipindex>
							<groupindex>1</groupindex>
						</link>
						<link>
							<linkclipref>clipitem-1123</linkclipref>
							<mediatype>audio</mediatype>
							<trackindex>11</trackindex>
							<clipindex>87</clipindex>
							<groupindex>1</groupindex>
						</link>
						<logginginfo>
							<description>DVNA20000616</description>
							<scene></scene>
							<shottake></shottake>
							<lognote></lognote>
						</logginginfo>
						<labels>
							<label2>Iris</label2>
						</labels>
					</clipitem>
					<clipitem id="clipitem-986" premiereChannelType="mono">
						<masterclipid>masterclip-229</masterclipid>
						<name>Clip0010.MXF</name>
						<enabled>TRUE</enabled>
						<duration>540</duration>
						<rate>
							<timebase>25</timebase>
							<ntsc>FALSE</ntsc>
						</rate>
						<start>45124</start>
						<end>45165</end>
						<in>152</in>
						<out>193</out>
						<pproTicksIn>1544417280000</pproTicksIn>
						<pproTicksOut>1961003520000</pproTicksOut>
						<file id="file-229"/>
						<sourcetrack>
							<mediatype>audio</mediatype>
							<trackindex>2</trackindex>
						</sourcetrack>
						<link>
							<linkclipref>clipitem-367</linkclipref>
							<mediatype>video</mediatype>
							<trackindex>2</trackindex>
							<clipindex>111</clipindex>
						</link>
						<link>
							<linkclipref>clipitem-986</linkclipref>
							<mediatype>audio</mediatype>
							<trackindex>10</trackindex>
							<clipindex>90</clipindex>
							<groupindex>1</groupindex>
						</link>
						<logginginfo>
							<description>Lundefugl sitter på kamera</description>
							<scene></scene>
							<shottake></shottake>
							<lognote></lognote>
						</logginginfo>
						<labels>
							<label2>Iris</label2>
						</labels>
					</clipitem>
					<clipitem id="clipitem-987" premiereChannelType="stereo">
						<masterclipid>masterclip-116</masterclipid>
						<name>NRK2-010716.mxf</name>
						<enabled>TRUE</enabled>
						<duration>183000</duration>
						<rate>
							<timebase>25</timebase>
							<ntsc>FALSE</ntsc>
						</rate>
						<start>45165</start>
						<end>45326</end>
						<in>32143</in>
						<out>32305</out>
						<pproTicksIn>326593451520000</pproTicksIn>
						<pproTicksOut>328239475200000</pproTicksOut>
						<file id="file-116"/>
						<sourcetrack>
							<mediatype>audio</mediatype>
							<trackindex>3</trackindex>
						</sourcetrack>
							<filter>
								<effect>
									<name>Audio Levels</name>
									<effectid>audiolevels</effectid>
									<effectcategory>audiolevels</effectcategory>
									<effecttype>audiolevels</effecttype>
									<mediatype>audio</mediatype>
									<parameter authoringApp="PremierePro">
										<parameterid>level</parameterid>
										<name>Level</name>
										<valuemin>0</valuemin>
										<valuemax>3.98109</valuemax>
										<value>0.99763</value>
										<keyframe>
											<when>32217</when>
											<value>0.99763</value>
										</keyframe>
										<keyframe>
											<when>32277</when>
											<value>0</value>
										</keyframe>
									</parameter>
								</effect>
							</filter>
						<link>
							<linkclipref>clipitem-987</linkclipref>
							<mediatype>audio</mediatype>
							<trackindex>10</trackindex>
							<clipindex>91</clipindex>
							<groupindex>1</groupindex>
						</link>
						<link>
							<linkclipref>clipitem-1124</linkclipref>
							<mediatype>audio</mediatype>
							<trackindex>11</trackindex>
							<clipindex>88</clipindex>
							<groupindex>1</groupindex>
						</link>
						<logginginfo>
							<description>Program 14</description>
							<scene></scene>
							<shottake></shottake>
							<lognote></lognote>
						</logginginfo>
						<labels>
							<label2>Iris</label2>
						</labels>
					</clipitem>
					<clipitem id="clipitem-988" premiereChannelType="stereo">
						<masterclipid>masterclip-230</masterclipid>
						<name>DVNA25000216AU.mxf</name>
						<enabled>TRUE</enabled>
						<duration>184500</duration>
						<rate>
							<timebase>25</timebase>
							<ntsc>FALSE</ntsc>
						</rate>
						<start>45366</start>
						<end>45540</end>
						<in>54164</in>
						<out>54338</out>
						<pproTicksIn>550340904960000</pproTicksIn>
						<pproTicksOut>552108856320000</pproTicksOut>
						<file id="file-230"/>
						<sourcetrack>
							<mediatype>audio</mediatype>
							<trackindex>3</trackindex>
						</sourcetrack>
							<filter>
								<effect>
									<name>Audio Levels</name>
									<effectid>audiolevels</effectid>
									<effectcategory>audiolevels</effectcategory>
									<effecttype>audiolevels</effecttype>
									<mediatype>audio</mediatype>
									<parameter authoringApp="PremierePro">
										<parameterid>level</parameterid>
										<name>Level</name>
										<valuemin>0</valuemin>
										<valuemax>3.98109</valuemax>
										<value>0</value>
										<keyframe>
											<when>54166</when>
											<value>0</value>
										</keyframe>
										<keyframe>
											<when>54182</when>
											<value>0.99763</value>
										</keyframe>
									</parameter>
								</effect>
							</filter>
						<link>
							<linkclipref>clipitem-369</linkclipref>
							<mediatype>video</mediatype>
							<trackindex>2</trackindex>
							<clipindex>113</clipindex>
						</link>
						<link>
							<linkclipref>clipitem-988</linkclipref>
							<mediatype>audio</mediatype>
							<trackindex>10</trackindex>
							<clipindex>92</clipindex>
							<groupindex>1</groupindex>
						</link>
						<link>
							<linkclipref>clipitem-1125</linkclipref>
							<mediatype>audio</mediatype>
							<trackindex>11</trackindex>
							<clipindex>89</clipindex>
							<groupindex>1</groupindex>
						</link>
						<logginginfo>
							<description>Program 2</description>
							<scene></scene>
							<shottake></shottake>
							<lognote></lognote>
						</logginginfo>
						<labels>
							<label2>Iris</label2>
						</labels>
					</clipitem>
					<clipitem id="clipitem-989" premiereChannelType="stereo">
						<masterclipid>masterclip-230</masterclipid>
						<name>DVNA25000216AU.mxf</name>
						<enabled>TRUE</enabled>
						<duration>184500</duration>
						<rate>
							<timebase>25</timebase>
							<ntsc>FALSE</ntsc>
						</rate>
						<start>45540</start>
						<end>45772</end>
						<in>56193</in>
						<out>56425</out>
						<pproTicksIn>570956843520000</pproTicksIn>
						<pproTicksOut>573314112000000</pproTicksOut>
						<file id="file-230"/>
						<sourcetrack>
							<mediatype>audio</mediatype>
							<trackindex>3</trackindex>
						</sourcetrack>
						<link>
							<linkclipref>clipitem-989</linkclipref>
							<mediatype>audio</mediatype>
							<trackindex>10</trackindex>
							<clipindex>93</clipindex>
							<groupindex>1</groupindex>
						</link>
						<link>
							<linkclipref>clipitem-1126</linkclipref>
							<mediatype>audio</mediatype>
							<trackindex>11</trackindex>
							<clipindex>90</clipindex>
							<groupindex>1</groupindex>
						</link>
						<logginginfo>
							<description>Program 2</description>
							<scene></scene>
							<shottake></shottake>
							<lognote></lognote>
						</logginginfo>
						<labels>
							<label2>Iris</label2>
						</labels>
					</clipitem>
					<clipitem id="clipitem-990" premiereChannelType="stereo">
						<masterclipid>masterclip-111</masterclipid>
						<name>NRK1-PGM-120716.mxf</name>
						<enabled>TRUE</enabled>
						<duration>81000</duration>
						<rate>
							<timebase>25</timebase>
							<ntsc>FALSE</ntsc>
						</rate>
						<start>45947</start>
						<end>46318</end>
						<in>29212</in>
						<out>29582</out>
						<pproTicksIn>296812615680000</pproTicksIn>
						<pproTicksOut>300572052480000</pproTicksOut>
						<file id="file-111"/>
						<sourcetrack>
							<mediatype>audio</mediatype>
							<trackindex>1</trackindex>
						</sourcetrack>
							<filter>
								<effect>
									<name>Audio Levels</name>
									<effectid>audiolevels</effectid>
									<effectcategory>audiolevels</effectcategory>
									<effecttype>audiolevels</effecttype>
									<mediatype>audio</mediatype>
									<parameter authoringApp="PremierePro">
										<parameterid>level</parameterid>
										<name>Level</name>
										<valuemin>0</valuemin>
										<valuemax>3.98109</valuemax>
										<value>0</value>
										<keyframe>
											<when>29211</when>
											<value>0</value>
										</keyframe>
										<keyframe>
											<when>29234</when>
											<value>0.99763</value>
										</keyframe>
									</parameter>
								</effect>
							</filter>
						<link>
							<linkclipref>clipitem-990</linkclipref>
							<mediatype>audio</mediatype>
							<trackindex>10</trackindex>
							<clipindex>94</clipindex>
							<groupindex>1</groupindex>
						</link>
						<link>
							<linkclipref>clipitem-1127</linkclipref>
							<mediatype>audio</mediatype>
							<trackindex>11</trackindex>
							<clipindex>91</clipindex>
							<groupindex>1</groupindex>
						</link>
						<logginginfo>
							<description>DVNA20000916</description>
							<scene></scene>
							<shottake></shottake>
							<lognote></lognote>
						</logginginfo>
						<labels>
							<label2>Iris</label2>
						</labels>
					</clipitem>
					<clipitem id="clipitem-991" premiereChannelType="stereo">
						<masterclipid>masterclip-231</masterclipid>
						<name>NRK1-CF-120716.mxf</name>
						<enabled>TRUE</enabled>
						<duration>81000</duration>
						<rate>
							<timebase>25</timebase>
							<ntsc>FALSE</ntsc>
						</rate>
						<start>46600</start>
						<end>46716</end>
						<in>31614</in>
						<out>31730</out>
						<pproTicksIn>321218472960000</pproTicksIn>
						<pproTicksOut>322397107200000</pproTicksOut>
						<file id="file-231"/>
						<sourcetrack>
							<mediatype>audio</mediatype>
							<trackindex>1</trackindex>
						</sourcetrack>
							<filter>
								<effect>
									<name>Audio Levels</name>
									<effectid>audiolevels</effectid>
									<effectcategory>audiolevels</effectcategory>
									<effecttype>audiolevels</effecttype>
									<mediatype>audio</mediatype>
									<parameter authoringApp="PremierePro">
										<parameterid>level</parameterid>
										<name>Level</name>
										<valuemin>0</valuemin>
										<valuemax>3.98109</valuemax>
										<value>0.99763</value>
										<keyframe>
											<when>31695</when>
											<value>0.99763</value>
										</keyframe>
										<keyframe>
											<when>31720</when>
											<value>0</value>
										</keyframe>
									</parameter>
								</effect>
							</filter>
						<link>
							<linkclipref>clipitem-374</linkclipref>
							<mediatype>video</mediatype>
							<trackindex>2</trackindex>
							<clipindex>118</clipindex>
						</link>
						<link>
							<linkclipref>clipitem-991</linkclipref>
							<mediatype>audio</mediatype>
							<trackindex>10</trackindex>
							<clipindex>95</clipindex>
							<groupindex>1</groupindex>
						</link>
						<link>
							<linkclipref>clipitem-1128</linkclipref>
							<mediatype>audio</mediatype>
							<trackindex>11</trackindex>
							<clipindex>92</clipindex>
							<groupindex>1</groupindex>
						</link>
						<logginginfo>
							<description>DVNA20000916</description>
							<scene></scene>
							<shottake></shottake>
							<lognote></lognote>
						</logginginfo>
						<labels>
							<label2>Iris</label2>
						</labels>
					</clipitem>
					<clipitem id="clipitem-992" premiereChannelType="stereo">
						<masterclipid>masterclip-231</masterclipid>
						<name>NRK1-CF-120716.mxf</name>
						<enabled>TRUE</enabled>
						<duration>81000</duration>
						<rate>
							<timebase>25</timebase>
							<ntsc>FALSE</ntsc>
						</rate>
						<start>47070</start>
						<end>47292</end>
						<in>33308</in>
						<out>33529</out>
						<pproTicksIn>338430597120000</pproTicksIn>
						<pproTicksOut>340676098560000</pproTicksOut>
						<file id="file-231"/>
						<sourcetrack>
							<mediatype>audio</mediatype>
							<trackindex>1</trackindex>
						</sourcetrack>
							<filter>
								<effect>
									<name>Audio Levels</name>
									<effectid>audiolevels</effectid>
									<effectcategory>audiolevels</effectcategory>
									<effecttype>audiolevels</effecttype>
									<mediatype>audio</mediatype>
									<parameter authoringApp="PremierePro">
										<parameterid>level</parameterid>
										<name>Level</name>
										<valuemin>0</valuemin>
										<valuemax>3.98109</valuemax>
										<value>0</value>
										<keyframe>
											<when>33270</when>
											<value>0</value>
										</keyframe>
										<keyframe>
											<when>33309</when>
											<value>0.530654</value>
										</keyframe>
										<keyframe>
											<when>33336</when>
											<value>0.99763</value>
										</keyframe>
									</parameter>
								</effect>
							</filter>
						<link>
							<linkclipref>clipitem-377</linkclipref>
							<mediatype>video</mediatype>
							<trackindex>2</trackindex>
							<clipindex>121</clipindex>
						</link>
						<link>
							<linkclipref>clipitem-992</linkclipref>
							<mediatype>audio</mediatype>
							<trackindex>10</trackindex>
							<clipindex>96</clipindex>
							<groupindex>1</groupindex>
						</link>
						<link>
							<linkclipref>clipitem-1129</linkclipref>
							<mediatype>audio</mediatype>
							<trackindex>11</trackindex>
							<clipindex>93</clipindex>
							<groupindex>1</groupindex>
						</link>
						<logginginfo>
							<description>DVNA20000916</description>
							<scene></scene>
							<shottake></shottake>
							<lognote></lognote>
						</logginginfo>
						<labels>
							<label2>Iris</label2>
						</labels>
					</clipitem>
					<clipitem id="clipitem-993" premiereChannelType="stereo">
						<masterclipid>masterclip-12</masterclipid>
						<name>NRK2-300616 (1).mxf</name>
						<enabled>TRUE</enabled>
						<duration>183000</duration>
						<rate>
							<timebase>25</timebase>
							<ntsc>FALSE</ntsc>
						</rate>
						<start>47532</start>
						<end>-1</end>
						<in>115178</in>
						<out>115415</out>
						<pproTicksIn>1170282193920000</pproTicksIn>
						<pproTicksOut>1172690265600000</pproTicksOut>
						<file id="file-12"/>
						<sourcetrack>
							<mediatype>audio</mediatype>
							<trackindex>3</trackindex>
						</sourcetrack>
						<link>
							<linkclipref>clipitem-993</linkclipref>
							<mediatype>audio</mediatype>
							<trackindex>10</trackindex>
							<clipindex>97</clipindex>
							<groupindex>1</groupindex>
						</link>
						<link>
							<linkclipref>clipitem-1130</linkclipref>
							<mediatype>audio</mediatype>
							<trackindex>11</trackindex>
							<clipindex>94</clipindex>
							<groupindex>1</groupindex>
						</link>
						<logginginfo>
							<description>Program 13</description>
							<scene></scene>
							<shottake></shottake>
							<lognote></lognote>
						</logginginfo>
						<labels>
							<label2>Iris</label2>
						</labels>
					</clipitem>
					<transitionitem>
						<start>47756</start>
						<end>47768</end>
						<alignment>end-black</alignment>
						<cutPointTicks>121927680000</cutPointTicks>
						<rate>
							<timebase>25</timebase>
							<ntsc>FALSE</ntsc>
						</rate>
						<effect>
							<name>Cross Fade (+3dB)</name>
							<effectid>KGAudioTransCrossFade3dB</effectid>
							<effecttype>transition</effecttype>
							<mediatype>audio</mediatype>
							<wipecode>0</wipecode>
							<wipeaccuracy>100</wipeaccuracy>
							<startratio>0</startratio>
							<endratio>1</endratio>
							<reverse>FALSE</reverse>
						</effect>
					</transitionitem>
					<clipitem id="clipitem-994" premiereChannelType="stereo">
						<masterclipid>masterclip-209</masterclipid>
						<name>bakomstoff fra iphone og fotoapp.mxf</name>
						<enabled>TRUE</enabled>
						<duration>25210</duration>
						<rate>
							<timebase>25</timebase>
							<ntsc>FALSE</ntsc>
						</rate>
						<start>47864</start>
						<end>-1</end>
						<in>10222</in>
						<out>10417</out>
						<pproTicksIn>103862062080000</pproTicksIn>
						<pproTicksOut>105843386880000</pproTicksOut>
						<file id="file-209"/>
						<sourcetrack>
							<mediatype>audio</mediatype>
							<trackindex>1</trackindex>
						</sourcetrack>
							<filter>
								<effect>
									<name>Audio Levels</name>
									<effectid>audiolevels</effectid>
									<effectcategory>audiolevels</effectcategory>
									<effecttype>audiolevels</effecttype>
									<mediatype>audio</mediatype>
									<parameter authoringApp="PremierePro">
										<parameterid>level</parameterid>
										<name>Level</name>
										<valuemin>0</valuemin>
										<valuemax>3.98109</valuemax>
										<value>0.0424523</value>
										<keyframe>
											<when>10367</when>
											<value>0.827821</value>
										</keyframe>
										<keyframe>
											<when>10386</when>
											<value>0.196633</value>
										</keyframe>
										<keyframe>
											<when>10407</when>
											<value>0.0424523</value>
										</keyframe>
									</parameter>
								</effect>
							</filter>
						<link>
							<linkclipref>clipitem-382</linkclipref>
							<mediatype>video</mediatype>
							<trackindex>2</trackindex>
							<clipindex>126</clipindex>
						</link>
						<link>
							<linkclipref>clipitem-994</linkclipref>
							<mediatype>audio</mediatype>
							<trackindex>10</trackindex>
							<clipindex>99</clipindex>
							<groupindex>1</groupindex>
						</link>
						<link>
							<linkclipref>clipitem-1131</linkclipref>
							<mediatype>audio</mediatype>
							<trackindex>11</trackindex>
							<clipindex>96</clipindex>
							<groupindex>1</groupindex>
						</link>
						<logginginfo>
							<description></description>
							<scene></scene>
							<shottake></shottake>
							<lognote></lognote>
						</logginginfo>
						<labels>
							<label2>Iris</label2>
						</labels>
					</clipitem>
					<transitionitem>
						<start>48046</start>
						<end>48059</end>
						<alignment>center</alignment>
						<cutPointTicks>60963840000</cutPointTicks>
						<rate>
							<timebase>25</timebase>
							<ntsc>FALSE</ntsc>
						</rate>
						<effect>
							<name>Cross Fade (+3dB)</name>
							<effectid>KGAudioTransCrossFade3dB</effectid>
							<effecttype>transition</effecttype>
							<mediatype>audio</mediatype>
							<wipecode>0</wipecode>
							<wipeaccuracy>100</wipeaccuracy>
							<startratio>0</startratio>
							<endratio>1</endratio>
							<reverse>FALSE</reverse>
						</effect>
					</transitionitem>
					<clipitem id="clipitem-995" premiereChannelType="stereo">
						<masterclipid>masterclip-209</masterclipid>
						<name>bakomstoff fra iphone og fotoapp.mxf</name>
						<enabled>TRUE</enabled>
						<duration>25210</duration>
						<rate>
							<timebase>25</timebase>
							<ntsc>FALSE</ntsc>
						</rate>
						<start>-1</start>
						<end>48358</end>
						<in>10697</in>
						<out>11009</out>
						<pproTicksIn>108688366080000</pproTicksIn>
						<pproTicksOut>111858485760000</pproTicksOut>
						<file id="file-209"/>
						<sourcetrack>
							<mediatype>audio</mediatype>
							<trackindex>1</trackindex>
						</sourcetrack>
							<filter>
								<effect>
									<name>Gain</name>
									<effectid>{61756678, 4761696e, 4b657947}</effectid>
									<effecttype>filter</effecttype>
									<mediatype>audio</mediatype>
									<parameter authoringApp="PremierePro">
										<parameterid>Gain(dB)</parameterid>
										<name>Gain(dB)</name>
										<valuemin>-96</valuemin>
										<valuemax>96</valuemax>
										<value>-10</value>
									</parameter>
								</effect>
							</filter>
							<filter>
								<effect>
									<name>Audio Levels</name>
									<effectid>audiolevels</effectid>
									<effectcategory>audiolevels</effectcategory>
									<effecttype>audiolevels</effecttype>
									<mediatype>audio</mediatype>
									<parameter authoringApp="PremierePro">
										<parameterid>level</parameterid>
										<name>Level</name>
										<valuemin>0</valuemin>
										<valuemax>3.98109</valuemax>
										<value>0.403297</value>
									</parameter>
								</effect>
							</filter>
						<link>
							<linkclipref>clipitem-383</linkclipref>
							<mediatype>video</mediatype>
							<trackindex>2</trackindex>
							<clipindex>127</clipindex>
						</link>
						<link>
							<linkclipref>clipitem-995</linkclipref>
							<mediatype>audio</mediatype>
							<trackindex>10</trackindex>
							<clipindex>101</clipindex>
							<groupindex>1</groupindex>
						</link>
						<link>
							<linkclipref>clipitem-1132</linkclipref>
							<mediatype>audio</mediatype>
							<trackindex>11</trackindex>
							<clipindex>98</clipindex>
							<groupindex>1</groupindex>
						</link>
						<logginginfo>
							<description></description>
							<scene></scene>
							<shottake></shottake>
							<lognote></lognote>
						</logginginfo>
						<labels>
							<label2>Iris</label2>
						</labels>
					</clipitem>
					<clipitem id="clipitem-996" premiereChannelType="stereo">
						<masterclipid>masterclip-232</masterclipid>
						<name>AA012301.MXF</name>
						<enabled>TRUE</enabled>
						<duration>216</duration>
						<rate>
							<timebase>25</timebase>
							<ntsc>FALSE</ntsc>
						</rate>
						<start>48358</start>
						<end>48493</end>
						<in>35</in>
						<out>170</out>
						<pproTicksIn>355622400000</pproTicksIn>
						<pproTicksOut>1727308800000</pproTicksOut>
						<file id="file-232"/>
						<sourcetrack>
							<mediatype>audio</mediatype>
							<trackindex>3</trackindex>
						</sourcetrack>
							<filter>
								<effect>
									<name>Gain</name>
									<effectid>{61756678, 4761696e, 4b657947}</effectid>
									<effecttype>filter</effecttype>
									<mediatype>audio</mediatype>
									<parameter authoringApp="PremierePro">
										<parameterid>Gain(dB)</parameterid>
										<name>Gain(dB)</name>
										<valuemin>-96</valuemin>
										<valuemax>96</valuemax>
										<value>-10</value>
									</parameter>
								</effect>
							</filter>
						<link>
							<linkclipref>clipitem-384</linkclipref>
							<mediatype>video</mediatype>
							<trackindex>2</trackindex>
							<clipindex>128</clipindex>
						</link>
						<link>
							<linkclipref>clipitem-996</linkclipref>
							<mediatype>audio</mediatype>
							<trackindex>10</trackindex>
							<clipindex>102</clipindex>
							<groupindex>1</groupindex>
						</link>
						<link>
							<linkclipref>clipitem-1133</linkclipref>
							<mediatype>audio</mediatype>
							<trackindex>11</trackindex>
							<clipindex>99</clipindex>
							<groupindex>1</groupindex>
						</link>
						<logginginfo>
							<description></description>
							<scene></scene>
							<shottake></shottake>
							<lognote></lognote>
						</logginginfo>
						<labels>
							<label2>Iris</label2>
						</labels>
					</clipitem>
					<clipitem id="clipitem-997" premiereChannelType="stereo">
						<masterclipid>masterclip-209</masterclipid>
						<name>bakomstoff fra iphone og fotoapp.mxf</name>
						<enabled>TRUE</enabled>
						<duration>25210</duration>
						<rate>
							<timebase>25</timebase>
							<ntsc>FALSE</ntsc>
						</rate>
						<start>48493</start>
						<end>48716</end>
						<in>7955</in>
						<out>8178</out>
						<pproTicksIn>80827891200000</pproTicksIn>
						<pproTicksOut>83093713920000</pproTicksOut>
						<file id="file-209"/>
						<sourcetrack>
							<mediatype>audio</mediatype>
							<trackindex>1</trackindex>
						</sourcetrack>
							<filter>
								<effect>
									<name>Audio Levels</name>
									<effectid>audiolevels</effectid>
									<effectcategory>audiolevels</effectcategory>
									<effecttype>audiolevels</effecttype>
									<mediatype>audio</mediatype>
									<parameter authoringApp="PremierePro">
										<parameterid>level</parameterid>
										<name>Level</name>
										<valuemin>0</valuemin>
										<valuemax>3.98109</valuemax>
										<value>0.573107</value>
									</parameter>
								</effect>
							</filter>
						<link>
							<linkclipref>clipitem-385</linkclipref>
							<mediatype>video</mediatype>
							<trackindex>2</trackindex>
							<clipindex>129</clipindex>
						</link>
						<link>
							<linkclipref>clipitem-997</linkclipref>
							<mediatype>audio</mediatype>
							<trackindex>10</trackindex>
							<clipindex>103</clipindex>
							<groupindex>1</groupindex>
						</link>
						<link>
							<linkclipref>clipitem-1134</linkclipref>
							<mediatype>audio</mediatype>
							<trackindex>11</trackindex>
							<clipindex>100</clipindex>
							<groupindex>1</groupindex>
						</link>
						<logginginfo>
							<description></description>
							<scene></scene>
							<shottake></shottake>
							<lognote></lognote>
						</logginginfo>
						<labels>
							<label2>Iris</label2>
						</labels>
					</clipitem>
					<clipitem id="clipitem-998" premiereChannelType="stereo">
						<masterclipid>masterclip-209</masterclipid>
						<name>bakomstoff fra iphone og fotoapp.mxf</name>
						<enabled>TRUE</enabled>
						<duration>25210</duration>
						<rate>
							<timebase>25</timebase>
							<ntsc>FALSE</ntsc>
						</rate>
						<start>48716</start>
						<end>48790</end>
						<in>9002</in>
						<out>9076</out>
						<pproTicksIn>91466081280000</pproTicksIn>
						<pproTicksOut>92217968640000</pproTicksOut>
						<file id="file-209"/>
						<sourcetrack>
							<mediatype>audio</mediatype>
							<trackindex>1</trackindex>
						</sourcetrack>
						<link>
							<linkclipref>clipitem-386</linkclipref>
							<mediatype>video</mediatype>
							<trackindex>2</trackindex>
							<clipindex>130</clipindex>
						</link>
						<link>
							<linkclipref>clipitem-998</linkclipref>
							<mediatype>audio</mediatype>
							<trackindex>10</trackindex>
							<clipindex>104</clipindex>
							<groupindex>1</groupindex>
						</link>
						<link>
							<linkclipref>clipitem-1135</linkclipref>
							<mediatype>audio</mediatype>
							<trackindex>11</trackindex>
							<clipindex>101</clipindex>
							<groupindex>1</groupindex>
						</link>
						<logginginfo>
							<description></description>
							<scene></scene>
							<shottake></shottake>
							<lognote></lognote>
						</logginginfo>
						<labels>
							<label2>Iris</label2>
						</labels>
					</clipitem>
					<clipitem id="clipitem-999" premiereChannelType="stereo">
						<masterclipid>masterclip-231</masterclipid>
						<name>NRK1-CF-120716.mxf</name>
						<enabled>TRUE</enabled>
						<duration>81000</duration>
						<rate>
							<timebase>25</timebase>
							<ntsc>FALSE</ntsc>
						</rate>
						<start>50981</start>
						<end>51837</end>
						<in>6380</in>
						<out>7236</out>
						<pproTicksIn>64824883200000</pproTicksIn>
						<pproTicksOut>73522391040000</pproTicksOut>
						<file id="file-231"/>
						<sourcetrack>
							<mediatype>audio</mediatype>
							<trackindex>1</trackindex>
						</sourcetrack>
							<filter>
								<effect>
									<name>Audio Levels</name>
									<effectid>audiolevels</effectid>
									<effectcategory>audiolevels</effectcategory>
									<effecttype>audiolevels</effecttype>
									<mediatype>audio</mediatype>
									<parameter authoringApp="PremierePro">
										<parameterid>level</parameterid>
										<name>Level</name>
										<valuemin>0</valuemin>
										<valuemax>3.98109</valuemax>
										<value>0</value>
										<keyframe>
											<when>6386</when>
											<value>0</value>
										</keyframe>
										<keyframe>
											<when>6422</when>
											<value>0.99763</value>
										</keyframe>
										<keyframe>
											<when>7214</when>
											<value>0.99763</value>
										</keyframe>
										<keyframe>
											<when>7232</when>
											<value>0</value>
										</keyframe>
									</parameter>
								</effect>
							</filter>
						<link>
							<linkclipref>clipitem-401</linkclipref>
							<mediatype>video</mediatype>
							<trackindex>2</trackindex>
							<clipindex>145</clipindex>
						</link>
						<link>
							<linkclipref>clipitem-999</linkclipref>
							<mediatype>audio</mediatype>
							<trackindex>10</trackindex>
							<clipindex>105</clipindex>
							<groupindex>1</groupindex>
						</link>
						<link>
							<linkclipref>clipitem-1136</linkclipref>
							<mediatype>audio</mediatype>
							<trackindex>11</trackindex>
							<clipindex>102</clipindex>
							<groupindex>1</groupindex>
						</link>
						<logginginfo>
							<description>DVNA20000916</description>
							<scene></scene>
							<shottake></shottake>
							<lognote></lognote>
						</logginginfo>
						<labels>
							<label2>Iris</label2>
						</labels>
					</clipitem>
					<clipitem id="clipitem-1000" premiereChannelType="stereo">
						<masterclipid>masterclip-243</masterclipid>
						<name>VR-0677.MXF</name>
						<enabled>TRUE</enabled>
						<duration>1203</duration>
						<rate>
							<timebase>25</timebase>
							<ntsc>FALSE</ntsc>
						</rate>
						<start>51943</start>
						<end>52186</end>
						<in>181</in>
						<out>424</out>
						<pproTicksIn>1839075840000</pproTicksIn>
						<pproTicksOut>4308111360000</pproTicksOut>
						<file id="file-243"/>
						<sourcetrack>
							<mediatype>audio</mediatype>
							<trackindex>3</trackindex>
						</sourcetrack>
							<filter>
								<effect>
									<name>Audio Levels</name>
									<effectid>audiolevels</effectid>
									<effectcategory>audiolevels</effectcategory>
									<effecttype>audiolevels</effecttype>
									<mediatype>audio</mediatype>
									<parameter authoringApp="PremierePro">
										<parameterid>level</parameterid>
										<name>Level</name>
										<valuemin>0</valuemin>
										<valuemax>3.98109</valuemax>
										<value>0</value>
										<keyframe>
											<when>202</when>
											<value>0.99763</value>
										</keyframe>
										<keyframe>
											<when>217</when>
											<value>0.473344</value>
										</keyframe>
										<keyframe>
											<when>374</when>
											<value>0.473344</value>
										</keyframe>
										<keyframe>
											<when>412</when>
											<value>0</value>
										</keyframe>
									</parameter>
								</effect>
							</filter>
						<link>
							<linkclipref>clipitem-403</linkclipref>
							<mediatype>video</mediatype>
							<trackindex>2</trackindex>
							<clipindex>147</clipindex>
						</link>
						<link>
							<linkclipref>clipitem-1000</linkclipref>
							<mediatype>audio</mediatype>
							<trackindex>10</trackindex>
							<clipindex>106</clipindex>
							<groupindex>1</groupindex>
						</link>
						<link>
							<linkclipref>clipitem-1137</linkclipref>
							<mediatype>audio</mediatype>
							<trackindex>11</trackindex>
							<clipindex>103</clipindex>
							<groupindex>1</groupindex>
						</link>
						<logginginfo>
							<description>Dykkerne går i vannet og tester utstyr</description>
							<scene></scene>
							<shottake></shottake>
							<lognote></lognote>
						</logginginfo>
						<labels>
							<label2>Iris</label2>
						</labels>
					</clipitem>
					<transitionitem>
						<start>52415</start>
						<end>52427</end>
						<alignment>start-black</alignment>
						<cutPointTicks>0</cutPointTicks>
						<rate>
							<timebase>25</timebase>
							<ntsc>FALSE</ntsc>
						</rate>
						<effect>
							<name>Cross Fade (+3dB)</name>
							<effectid>KGAudioTransCrossFade3dB</effectid>
							<effecttype>transition</effecttype>
							<mediatype>audio</mediatype>
							<wipecode>0</wipecode>
							<wipeaccuracy>100</wipeaccuracy>
							<startratio>0</startratio>
							<endratio>1</endratio>
							<reverse>FALSE</reverse>
						</effect>
					</transitionitem>
					<clipitem id="clipitem-1001" premiereChannelType="stereo">
						<masterclipid>masterclip-205</masterclipid>
						<name>NRK1-210616.mxf</name>
						<enabled>TRUE</enabled>
						<duration>81914</duration>
						<rate>
							<timebase>25</timebase>
							<ntsc>FALSE</ntsc>
						</rate>
						<start>-1</start>
						<end>52963</end>
						<in>36223</in>
						<out>36772</out>
						<pproTicksIn>368048862720000</pproTicksIn>
						<pproTicksOut>373627054080000</pproTicksOut>
						<file id="file-205"/>
						<sourcetrack>
							<mediatype>audio</mediatype>
							<trackindex>3</trackindex>
						</sourcetrack>
							<filter>
								<effect>
									<name>Audio Levels</name>
									<effectid>audiolevels</effectid>
									<effectcategory>audiolevels</effectcategory>
									<effecttype>audiolevels</effecttype>
									<mediatype>audio</mediatype>
									<parameter authoringApp="PremierePro">
										<parameterid>level</parameterid>
										<name>Level</name>
										<valuemin>0</valuemin>
										<valuemax>3.98109</valuemax>
										<value>0.99763</value>
										<keyframe>
											<when>36663</when>
											<value>0.99763</value>
										</keyframe>
										<keyframe>
											<when>36711</when>
											<value>0.235937</value>
										</keyframe>
										<keyframe>
											<when>36780</when>
											<value>0</value>
										</keyframe>
									</parameter>
								</effect>
							</filter>
						<link>
							<linkclipref>clipitem-406</linkclipref>
							<mediatype>video</mediatype>
							<trackindex>2</trackindex>
							<clipindex>150</clipindex>
						</link>
						<link>
							<linkclipref>clipitem-1001</linkclipref>
							<mediatype>audio</mediatype>
							<trackindex>10</trackindex>
							<clipindex>108</clipindex>
							<groupindex>1</groupindex>
						</link>
						<link>
							<linkclipref>clipitem-1138</linkclipref>
							<mediatype>audio</mediatype>
							<trackindex>11</trackindex>
							<clipindex>105</clipindex>
							<groupindex>1</groupindex>
						</link>
						<logginginfo>
							<description>DVNA20000616</description>
							<scene></scene>
							<shottake></shottake>
							<lognote></lognote>
						</logginginfo>
						<labels>
							<label2>Iris</label2>
						</labels>
					</clipitem>
					<clipitem id="clipitem-1002" premiereChannelType="stereo">
						<masterclipid>masterclip-246</masterclipid>
						<name>NRK1-280616-CF.mxf</name>
						<enabled>TRUE</enabled>
						<duration>81975</duration>
						<rate>
							<timebase>25</timebase>
							<ntsc>FALSE</ntsc>
						</rate>
						<start>52963</start>
						<end>53308</end>
						<in>42314</in>
						<out>42659</out>
						<pproTicksIn>429937320960000</pproTicksIn>
						<pproTicksOut>433442741760000</pproTicksOut>
						<file id="file-246"/>
						<sourcetrack>
							<mediatype>audio</mediatype>
							<trackindex>1</trackindex>
						</sourcetrack>
							<filter>
								<effect>
									<name>Audio Levels</name>
									<effectid>audiolevels</effectid>
									<effectcategory>audiolevels</effectcategory>
									<effecttype>audiolevels</effecttype>
									<mediatype>audio</mediatype>
									<parameter authoringApp="PremierePro">
										<parameterid>level</parameterid>
										<name>Level</name>
										<valuemin>0</valuemin>
										<valuemax>3.98109</valuemax>
										<value>0</value>
										<keyframe>
											<when>42354</when>
											<value>0</value>
										</keyframe>
										<keyframe>
											<when>42367</when>
											<value>0.99763</value>
										</keyframe>
									</parameter>
								</effect>
							</filter>
						<link>
							<linkclipref>clipitem-1002</linkclipref>
							<mediatype>audio</mediatype>
							<trackindex>10</trackindex>
							<clipindex>109</clipindex>
							<groupindex>1</groupindex>
						</link>
						<link>
							<linkclipref>clipitem-1139</linkclipref>
							<mediatype>audio</mediatype>
							<trackindex>11</trackindex>
							<clipindex>106</clipindex>
							<groupindex>1</groupindex>
						</link>
						<logginginfo>
							<description>DVNA20000716</description>
							<scene></scene>
							<shottake></shottake>
							<lognote></lognote>
						</logginginfo>
						<labels>
							<label2>Iris</label2>
						</labels>
					</clipitem>
					<clipitem id="clipitem-1003" premiereChannelType="stereo">
						<masterclipid>masterclip-246</masterclipid>
						<name>NRK1-280616-CF.mxf</name>
						<enabled>TRUE</enabled>
						<duration>81975</duration>
						<rate>
							<timebase>25</timebase>
							<ntsc>FALSE</ntsc>
						</rate>
						<start>53308</start>
						<end>53414</end>
						<in>42931</in>
						<out>43037</out>
						<pproTicksIn>436206435840000</pproTicksIn>
						<pproTicksOut>437283463680000</pproTicksOut>
						<file id="file-246"/>
						<sourcetrack>
							<mediatype>audio</mediatype>
							<trackindex>1</trackindex>
						</sourcetrack>
						<link>
							<linkclipref>clipitem-1003</linkclipref>
							<mediatype>audio</mediatype>
							<trackindex>10</trackindex>
							<clipindex>110</clipindex>
							<groupindex>1</groupindex>
						</link>
						<link>
							<linkclipref>clipitem-1140</linkclipref>
							<mediatype>audio</mediatype>
							<trackindex>11</trackindex>
							<clipindex>107</clipindex>
							<groupindex>1</groupindex>
						</link>
						<logginginfo>
							<description>DVNA20000716</description>
							<scene></scene>
							<shottake></shottake>
							<lognote></lognote>
						</logginginfo>
						<labels>
							<label2>Iris</label2>
						</labels>
					</clipitem>
					<clipitem id="clipitem-1004" premiereChannelType="stereo">
						<masterclipid>masterclip-246</masterclipid>
						<name>NRK1-280616-CF.mxf</name>
						<enabled>TRUE</enabled>
						<duration>81975</duration>
						<rate>
							<timebase>25</timebase>
							<ntsc>FALSE</ntsc>
						</rate>
						<start>53414</start>
						<end>53647</end>
						<in>43140</in>
						<out>43373</out>
						<pproTicksIn>438330009600000</pproTicksIn>
						<pproTicksOut>440697438720000</pproTicksOut>
						<file id="file-246"/>
						<sourcetrack>
							<mediatype>audio</mediatype>
							<trackindex>1</trackindex>
						</sourcetrack>
						<link>
							<linkclipref>clipitem-1004</linkclipref>
							<mediatype>audio</mediatype>
							<trackindex>10</trackindex>
							<clipindex>111</clipindex>
							<groupindex>1</groupindex>
						</link>
						<link>
							<linkclipref>clipitem-1141</linkclipref>
							<mediatype>audio</mediatype>
							<trackindex>11</trackindex>
							<clipindex>108</clipindex>
							<groupindex>1</groupindex>
						</link>
						<logginginfo>
							<description>DVNA20000716</description>
							<scene></scene>
							<shottake></shottake>
							<lognote></lognote>
						</logginginfo>
						<labels>
							<label2>Iris</label2>
						</labels>
					</clipitem>
					<clipitem id="clipitem-1005" premiereChannelType="mono">
						<masterclipid>masterclip-246</masterclipid>
						<name>NRK1-280616-CF.mxf</name>
						<enabled>TRUE</enabled>
						<duration>81975</duration>
						<rate>
							<timebase>25</timebase>
							<ntsc>FALSE</ntsc>
						</rate>
						<start>53713</start>
						<end>53716</end>
						<in>45468</in>
						<out>45471</out>
						<pproTicksIn>461983979520000</pproTicksIn>
						<pproTicksOut>462014461440000</pproTicksOut>
						<file id="file-246"/>
						<sourcetrack>
							<mediatype>audio</mediatype>
							<trackindex>1</trackindex>
						</sourcetrack>
							<filter>
								<effect>
									<name>Audio Levels</name>
									<effectid>audiolevels</effectid>
									<effectcategory>audiolevels</effectcategory>
									<effecttype>audiolevels</effecttype>
									<mediatype>audio</mediatype>
									<parameter authoringApp="PremierePro">
										<parameterid>level</parameterid>
										<name>Level</name>
										<valuemin>0</valuemin>
										<valuemax>3.98109</valuemax>
										<value>1.59196</value>
									</parameter>
								</effect>
							</filter>
						<link>
							<linkclipref>clipitem-413</linkclipref>
							<mediatype>video</mediatype>
							<trackindex>2</trackindex>
							<clipindex>158</clipindex>
						</link>
						<link>
							<linkclipref>clipitem-1005</linkclipref>
							<mediatype>audio</mediatype>
							<trackindex>10</trackindex>
							<clipindex>112</clipindex>
							<groupindex>1</groupindex>
						</link>
						<logginginfo>
							<description>DVNA20000716</description>
							<scene></scene>
							<shottake></shottake>
							<lognote></lognote>
						</logginginfo>
						<labels>
							<label2>Iris</label2>
						</labels>
					</clipitem>
					<clipitem id="clipitem-1006" premiereChannelType="stereo">
						<masterclipid>masterclip-246</masterclipid>
						<name>NRK1-280616-CF.mxf</name>
						<enabled>TRUE</enabled>
						<duration>81975</duration>
						<rate>
							<timebase>25</timebase>
							<ntsc>FALSE</ntsc>
						</rate>
						<start>53716</start>
						<end>-1</end>
						<in>45468</in>
						<out>45623</out>
						<pproTicksIn>461983979520000</pproTicksIn>
						<pproTicksOut>463558878720000</pproTicksOut>
						<file id="file-246"/>
						<sourcetrack>
							<mediatype>audio</mediatype>
							<trackindex>1</trackindex>
						</sourcetrack>
						<link>
							<linkclipref>clipitem-1006</linkclipref>
							<mediatype>audio</mediatype>
							<trackindex>10</trackindex>
							<clipindex>113</clipindex>
							<groupindex>1</groupindex>
						</link>
						<link>
							<linkclipref>clipitem-1142</linkclipref>
							<mediatype>audio</mediatype>
							<trackindex>11</trackindex>
							<clipindex>109</clipindex>
							<groupindex>1</groupindex>
						</link>
						<logginginfo>
							<description>DVNA20000716</description>
							<scene></scene>
							<shottake></shottake>
							<lognote></lognote>
						</logginginfo>
						<labels>
							<label2>Iris</label2>
						</labels>
					</clipitem>
					<transitionitem>
						<start>53868</start>
						<end>53871</end>
						<alignment>center</alignment>
						<cutPointTicks>10160640000</cutPointTicks>
						<rate>
							<timebase>25</timebase>
							<ntsc>FALSE</ntsc>
						</rate>
						<effect>
							<name>Cross Fade (+3dB)</name>
							<effectid>KGAudioTransCrossFade3dB</effectid>
							<effecttype>transition</effecttype>
							<mediatype>audio</mediatype>
							<wipecode>0</wipecode>
							<wipeaccuracy>100</wipeaccuracy>
							<startratio>0</startratio>
							<endratio>1</endratio>
							<reverse>FALSE</reverse>
						</effect>
					</transitionitem>
					<clipitem id="clipitem-1007" premiereChannelType="stereo">
						<masterclipid>masterclip-246</masterclipid>
						<name>NRK1-280616-CF.mxf</name>
						<enabled>TRUE</enabled>
						<duration>81975</duration>
						<rate>
							<timebase>25</timebase>
							<ntsc>FALSE</ntsc>
						</rate>
						<start>-1</start>
						<end>53967</end>
						<in>46004</in>
						<out>46103</out>
						<pproTicksIn>467430082560000</pproTicksIn>
						<pproTicksOut>468435985920000</pproTicksOut>
						<file id="file-246"/>
						<sourcetrack>
							<mediatype>audio</mediatype>
							<trackindex>1</trackindex>
						</sourcetrack>
						<link>
							<linkclipref>clipitem-1007</linkclipref>
							<mediatype>audio</mediatype>
							<trackindex>10</trackindex>
							<clipindex>115</clipindex>
							<groupindex>1</groupindex>
						</link>
						<link>
							<linkclipref>clipitem-1143</linkclipref>
							<mediatype>audio</mediatype>
							<trackindex>11</trackindex>
							<clipindex>111</clipindex>
							<groupindex>1</groupindex>
						</link>
						<logginginfo>
							<description>DVNA20000716</description>
							<scene></scene>
							<shottake></shottake>
							<lognote></lognote>
						</logginginfo>
						<labels>
							<label2>Iris</label2>
						</labels>
					</clipitem>
					<clipitem id="clipitem-1008" premiereChannelType="stereo">
						<masterclipid>masterclip-246</masterclipid>
						<name>NRK1-280616-CF.mxf</name>
						<enabled>TRUE</enabled>
						<duration>81975</duration>
						<rate>
							<timebase>25</timebase>
							<ntsc>FALSE</ntsc>
						</rate>
						<start>53967</start>
						<end>54142</end>
						<in>46183</in>
						<out>46358</out>
						<pproTicksIn>469248837120000</pproTicksIn>
						<pproTicksOut>471026949120000</pproTicksOut>
						<file id="file-246"/>
						<sourcetrack>
							<mediatype>audio</mediatype>
							<trackindex>1</trackindex>
						</sourcetrack>
							<filter>
								<effect>
									<name>Audio Levels</name>
									<effectid>audiolevels</effectid>
									<effectcategory>audiolevels</effectcategory>
									<effecttype>audiolevels</effecttype>
									<mediatype>audio</mediatype>
									<parameter authoringApp="PremierePro">
										<parameterid>level</parameterid>
										<name>Level</name>
										<valuemin>0</valuemin>
										<valuemax>3.98109</valuemax>
										<value>0.99763</value>
										<keyframe>
											<when>46339</when>
											<value>0.99763</value>
										</keyframe>
										<keyframe>
											<when>46352</when>
											<value>0</value>
										</keyframe>
									</parameter>
								</effect>
							</filter>
						<link>
							<linkclipref>clipitem-1008</linkclipref>
							<mediatype>audio</mediatype>
							<trackindex>10</trackindex>
							<clipindex>116</clipindex>
							<groupindex>1</groupindex>
						</link>
						<link>
							<linkclipref>clipitem-1144</linkclipref>
							<mediatype>audio</mediatype>
							<trackindex>11</trackindex>
							<clipindex>112</clipindex>
							<groupindex>1</groupindex>
						</link>
						<logginginfo>
							<description>DVNA20000716</description>
							<scene></scene>
							<shottake></shottake>
							<lognote></lognote>
						</logginginfo>
						<labels>
							<label2>Iris</label2>
						</labels>
					</clipitem>
					<clipitem id="clipitem-1009" premiereChannelType="stereo">
						<masterclipid>masterclip-102</masterclipid>
						<name>NRK2-180616.mxf</name>
						<enabled>TRUE</enabled>
						<duration>183000</duration>
						<rate>
							<timebase>25</timebase>
							<ntsc>FALSE</ntsc>
						</rate>
						<start>54184</start>
						<end>54336</end>
						<in>33179</in>
						<out>33331</out>
						<pproTicksIn>337119874560000</pproTicksIn>
						<pproTicksOut>338664291840000</pproTicksOut>
						<file id="file-102"/>
						<sourcetrack>
							<mediatype>audio</mediatype>
							<trackindex>1</trackindex>
						</sourcetrack>
							<filter>
								<effect>
									<name>Audio Levels</name>
									<effectid>audiolevels</effectid>
									<effectcategory>audiolevels</effectcategory>
									<effecttype>audiolevels</effecttype>
									<mediatype>audio</mediatype>
									<parameter authoringApp="PremierePro">
										<parameterid>level</parameterid>
										<name>Level</name>
										<valuemin>0</valuemin>
										<valuemax>3.98109</valuemax>
										<value>0.99763</value>
										<keyframe>
											<when>33197</when>
											<value>0.99763</value>
										</keyframe>
										<keyframe>
											<when>33210</when>
											<value>1.99526</value>
										</keyframe>
									</parameter>
								</effect>
							</filter>
						<link>
							<linkclipref>clipitem-416</linkclipref>
							<mediatype>video</mediatype>
							<trackindex>2</trackindex>
							<clipindex>162</clipindex>
						</link>
						<link>
							<linkclipref>clipitem-1009</linkclipref>
							<mediatype>audio</mediatype>
							<trackindex>10</trackindex>
							<clipindex>117</clipindex>
							<groupindex>1</groupindex>
						</link>
						<link>
							<linkclipref>clipitem-1145</linkclipref>
							<mediatype>audio</mediatype>
							<trackindex>11</trackindex>
							<clipindex>113</clipindex>
							<groupindex>1</groupindex>
						</link>
						<logginginfo>
							<description>Program 5</description>
							<scene></scene>
							<shottake></shottake>
							<lognote></lognote>
						</logginginfo>
						<labels>
							<label2>Iris</label2>
						</labels>
					</clipitem>
					<clipitem id="clipitem-1010" premiereChannelType="stereo">
						<masterclipid>masterclip-102</masterclipid>
						<name>NRK2-180616.mxf</name>
						<enabled>TRUE</enabled>
						<duration>183000</duration>
						<rate>
							<timebase>25</timebase>
							<ntsc>FALSE</ntsc>
						</rate>
						<start>54336</start>
						<end>54559</end>
						<in>33331</in>
						<out>33554</out>
						<pproTicksIn>338664291840000</pproTicksIn>
						<pproTicksOut>340930114560000</pproTicksOut>
						<file id="file-102"/>
						<sourcetrack>
							<mediatype>audio</mediatype>
							<trackindex>3</trackindex>
						</sourcetrack>
						<link>
							<linkclipref>clipitem-1010</linkclipref>
							<mediatype>audio</mediatype>
							<trackindex>10</trackindex>
							<clipindex>118</clipindex>
							<groupindex>1</groupindex>
						</link>
						<link>
							<linkclipref>clipitem-1146</linkclipref>
							<mediatype>audio</mediatype>
							<trackindex>11</trackindex>
							<clipindex>114</clipindex>
							<groupindex>1</groupindex>
						</link>
						<logginginfo>
							<description>Program 5</description>
							<scene></scene>
							<shottake></shottake>
							<lognote></lognote>
						</logginginfo>
						<labels>
							<label2>Iris</label2>
						</labels>
					</clipitem>
					<clipitem id="clipitem-1011" premiereChannelType="stereo">
						<masterclipid>masterclip-110</masterclipid>
						<name>NRK2-250616.mxf</name>
						<enabled>TRUE</enabled>
						<duration>186000</duration>
						<rate>
							<timebase>25</timebase>
							<ntsc>FALSE</ntsc>
						</rate>
						<start>54559</start>
						<end>54848</end>
						<in>50899</in>
						<out>51188</out>
						<pproTicksIn>517166415360000</pproTicksIn>
						<pproTicksOut>520102840320000</pproTicksOut>
						<file id="file-110"/>
						<sourcetrack>
							<mediatype>audio</mediatype>
							<trackindex>3</trackindex>
						</sourcetrack>
							<filter>
								<effect>
									<name>Audio Levels</name>
									<effectid>audiolevels</effectid>
									<effectcategory>audiolevels</effectcategory>
									<effecttype>audiolevels</effecttype>
									<mediatype>audio</mediatype>
									<parameter authoringApp="PremierePro">
										<parameterid>level</parameterid>
										<name>Level</name>
										<valuemin>0</valuemin>
										<valuemax>3.98109</valuemax>
										<value>0.99763</value>
										<keyframe>
											<when>51135</when>
											<value>0.99763</value>
										</keyframe>
										<keyframe>
											<when>51179</when>
											<value>0</value>
										</keyframe>
									</parameter>
								</effect>
							</filter>
						<link>
							<linkclipref>clipitem-417</linkclipref>
							<mediatype>video</mediatype>
							<trackindex>2</trackindex>
							<clipindex>163</clipindex>
						</link>
						<link>
							<linkclipref>clipitem-1011</linkclipref>
							<mediatype>audio</mediatype>
							<trackindex>10</trackindex>
							<clipindex>119</clipindex>
							<groupindex>1</groupindex>
						</link>
						<link>
							<linkclipref>clipitem-1147</linkclipref>
							<mediatype>audio</mediatype>
							<trackindex>11</trackindex>
							<clipindex>115</clipindex>
							<groupindex>1</groupindex>
						</link>
						<logginginfo>
							<description>Program 10</description>
							<scene></scene>
							<shottake></shottake>
							<lognote></lognote>
						</logginginfo>
						<labels>
							<label2>Iris</label2>
						</labels>
					</clipitem>
					<clipitem id="clipitem-1012" premiereChannelType="stereo">
						<masterclipid>masterclip-115</masterclipid>
						<name>ENG19-2771.MXF</name>
						<enabled>TRUE</enabled>
						<duration>975</duration>
						<rate>
							<timebase>25</timebase>
							<ntsc>FALSE</ntsc>
						</rate>
						<start>54941</start>
						<end>55222</end>
						<in>621</in>
						<out>902</out>
						<pproTicksIn>6309757440000</pproTicksIn>
						<pproTicksOut>9164897280000</pproTicksOut>
						<file id="file-115"/>
						<sourcetrack>
							<mediatype>audio</mediatype>
							<trackindex>3</trackindex>
						</sourcetrack>
							<filter>
								<effect>
									<name>Audio Levels</name>
									<effectid>audiolevels</effectid>
									<effectcategory>audiolevels</effectcategory>
									<effecttype>audiolevels</effecttype>
									<mediatype>audio</mediatype>
									<parameter authoringApp="PremierePro">
										<parameterid>level</parameterid>
										<name>Level</name>
										<valuemin>0</valuemin>
										<valuemax>3.98109</valuemax>
										<value>0</value>
										<keyframe>
											<when>881</when>
											<value>0.099763</value>
										</keyframe>
										<keyframe>
											<when>901</when>
											<value>0</value>
										</keyframe>
									</parameter>
								</effect>
							</filter>
						<link>
							<linkclipref>clipitem-1012</linkclipref>
							<mediatype>audio</mediatype>
							<trackindex>10</trackindex>
							<clipindex>120</clipindex>
							<groupindex>1</groupindex>
						</link>
						<link>
							<linkclipref>clipitem-1148</linkclipref>
							<mediatype>audio</mediatype>
							<trackindex>11</trackindex>
							<clipindex>116</clipindex>
							<groupindex>1</groupindex>
						</link>
						<logginginfo>
							<description></description>
							<scene></scene>
							<shottake></shottake>
							<lognote></lognote>
						</logginginfo>
						<labels>
							<label2>Iris</label2>
						</labels>
					</clipitem>
					<transitionitem>
						<start>55360</start>
						<end>55373</end>
						<alignment>start-black</alignment>
						<cutPointTicks>0</cutPointTicks>
						<rate>
							<timebase>25</timebase>
							<ntsc>FALSE</ntsc>
						</rate>
						<effect>
							<name>Cross Fade (+3dB)</name>
							<effectid>KGAudioTransCrossFade3dB</effectid>
							<effecttype>transition</effecttype>
							<mediatype>audio</mediatype>
							<wipecode>0</wipecode>
							<wipeaccuracy>100</wipeaccuracy>
							<startratio>0</startratio>
							<endratio>1</endratio>
							<reverse>FALSE</reverse>
						</effect>
					</transitionitem>
					<clipitem id="clipitem-1013" premiereChannelType="stereo">
						<masterclipid>masterclip-230</masterclipid>
						<name>DVNA25000216AU.mxf</name>
						<enabled>TRUE</enabled>
						<duration>184500</duration>
						<rate>
							<timebase>25</timebase>
							<ntsc>FALSE</ntsc>
						</rate>
						<start>-1</start>
						<end>-1</end>
						<in>54124</in>
						<out>54453</out>
						<pproTicksIn>549934479360000</pproTicksIn>
						<pproTicksOut>553277329920000</pproTicksOut>
						<file id="file-230"/>
						<sourcetrack>
							<mediatype>audio</mediatype>
							<trackindex>3</trackindex>
						</sourcetrack>
						<link>
							<linkclipref>clipitem-1013</linkclipref>
							<mediatype>audio</mediatype>
							<trackindex>10</trackindex>
							<clipindex>122</clipindex>
							<groupindex>1</groupindex>
						</link>
						<link>
							<linkclipref>clipitem-1149</linkclipref>
							<mediatype>audio</mediatype>
							<trackindex>11</trackindex>
							<clipindex>118</clipindex>
							<groupindex>1</groupindex>
						</link>
						<logginginfo>
							<description>Program 2</description>
							<scene></scene>
							<shottake></shottake>
							<lognote></lognote>
						</logginginfo>
						<labels>
							<label2>Iris</label2>
						</labels>
					</clipitem>
					<transitionitem>
						<start>55677</start>
						<end>55689</end>
						<alignment>end-black</alignment>
						<cutPointTicks>121927680000</cutPointTicks>
						<rate>
							<timebase>25</timebase>
							<ntsc>FALSE</ntsc>
						</rate>
						<effect>
							<name>Cross Fade (+3dB)</name>
							<effectid>KGAudioTransCrossFade3dB</effectid>
							<effecttype>transition</effecttype>
							<mediatype>audio</mediatype>
							<wipecode>0</wipecode>
							<wipeaccuracy>100</wipeaccuracy>
							<startratio>0</startratio>
							<endratio>1</endratio>
							<reverse>FALSE</reverse>
						</effect>
					</transitionitem>
					<clipitem id="clipitem-1014" premiereChannelType="stereo">
						<masterclipid>masterclip-12</masterclipid>
						<name>NRK2-300616 (1).mxf</name>
						<enabled>TRUE</enabled>
						<duration>183000</duration>
						<rate>
							<timebase>25</timebase>
							<ntsc>FALSE</ntsc>
						</rate>
						<start>55905</start>
						<end>56176</end>
						<in>45372</in>
						<out>45643</out>
						<pproTicksIn>461008558080000</pproTicksIn>
						<pproTicksOut>463762091520000</pproTicksOut>
						<file id="file-12"/>
						<sourcetrack>
							<mediatype>audio</mediatype>
							<trackindex>3</trackindex>
						</sourcetrack>
							<filter>
								<effect>
									<name>Audio Levels</name>
									<effectid>audiolevels</effectid>
									<effectcategory>audiolevels</effectcategory>
									<effecttype>audiolevels</effecttype>
									<mediatype>audio</mediatype>
									<parameter authoringApp="PremierePro">
										<parameterid>level</parameterid>
										<name>Level</name>
										<valuemin>0</valuemin>
										<valuemax>3.98109</valuemax>
										<value>0</value>
										<keyframe>
											<when>45373</when>
											<value>0</value>
										</keyframe>
										<keyframe>
											<when>45392</when>
											<value>0.99763</value>
										</keyframe>
										<keyframe>
											<when>45618</when>
											<value>0.99763</value>
										</keyframe>
										<keyframe>
											<when>45640</when>
											<value>0</value>
										</keyframe>
									</parameter>
								</effect>
							</filter>
						<link>
							<linkclipref>clipitem-423</linkclipref>
							<mediatype>video</mediatype>
							<trackindex>2</trackindex>
							<clipindex>169</clipindex>
						</link>
						<link>
							<linkclipref>clipitem-1014</linkclipref>
							<mediatype>audio</mediatype>
							<trackindex>10</trackindex>
							<clipindex>124</clipindex>
							<groupindex>1</groupindex>
						</link>
						<link>
							<linkclipref>clipitem-1150</linkclipref>
							<mediatype>audio</mediatype>
							<trackindex>11</trackindex>
							<clipindex>120</clipindex>
							<groupindex>1</groupindex>
						</link>
						<logginginfo>
							<description>Program 13</description>
							<scene></scene>
							<shottake></shottake>
							<lognote></lognote>
						</logginginfo>
						<labels>
							<label2>Iris</label2>
						</labels>
					</clipitem>
					<clipitem id="clipitem-1015" premiereChannelType="stereo">
						<masterclipid>masterclip-12</masterclipid>
						<name>NRK2-300616 (1).mxf</name>
						<enabled>TRUE</enabled>
						<duration>183000</duration>
						<rate>
							<timebase>25</timebase>
							<ntsc>FALSE</ntsc>
						</rate>
						<start>56294</start>
						<end>56728</end>
						<in>48058</in>
						<out>48492</out>
						<pproTicksIn>488300037120000</pproTicksIn>
						<pproTicksOut>492709754880000</pproTicksOut>
						<file id="file-12"/>
						<sourcetrack>
							<mediatype>audio</mediatype>
							<trackindex>1</trackindex>
						</sourcetrack>
							<filter>
								<effect>
									<name>Audio Levels</name>
									<effectid>audiolevels</effectid>
									<effectcategory>audiolevels</effectcategory>
									<effecttype>audiolevels</effecttype>
									<mediatype>audio</mediatype>
									<parameter authoringApp="PremierePro">
										<parameterid>level</parameterid>
										<name>Level</name>
										<valuemin>0</valuemin>
										<valuemax>3.98109</valuemax>
										<value>0.955178</value>
										<keyframe>
											<when>48769</when>
											<value>0.955178</value>
										</keyframe>
										<keyframe>
											<when>48852</when>
											<value>0</value>
										</keyframe>
									</parameter>
								</effect>
							</filter>
						<link>
							<linkclipref>clipitem-1015</linkclipref>
							<mediatype>audio</mediatype>
							<trackindex>10</trackindex>
							<clipindex>125</clipindex>
							<groupindex>1</groupindex>
						</link>
						<link>
							<linkclipref>clipitem-1151</linkclipref>
							<mediatype>audio</mediatype>
							<trackindex>11</trackindex>
							<clipindex>121</clipindex>
							<groupindex>1</groupindex>
						</link>
						<logginginfo>
							<description>Program 13</description>
							<scene></scene>
							<shottake></shottake>
							<lognote></lognote>
						</logginginfo>
						<labels>
							<label2>Iris</label2>
						</labels>
					</clipitem>
					<clipitem id="clipitem-1016" premiereChannelType="stereo">
						<masterclipid>masterclip-12</masterclipid>
						<name>NRK2-300616 (1).mxf</name>
						<enabled>TRUE</enabled>
						<duration>183000</duration>
						<rate>
							<timebase>25</timebase>
							<ntsc>FALSE</ntsc>
						</rate>
						<start>56728</start>
						<end>57021</end>
						<in>48668</in>
						<out>48961</out>
						<pproTicksIn>494498027520000</pproTicksIn>
						<pproTicksOut>497475095040000</pproTicksOut>
						<file id="file-12"/>
						<sourcetrack>
							<mediatype>audio</mediatype>
							<trackindex>1</trackindex>
						</sourcetrack>
							<filter>
								<effect>
									<name>Audio Levels</name>
									<effectid>audiolevels</effectid>
									<effectcategory>audiolevels</effectcategory>
									<effecttype>audiolevels</effecttype>
									<mediatype>audio</mediatype>
									<parameter authoringApp="PremierePro">
										<parameterid>level</parameterid>
										<name>Level</name>
										<valuemin>0</valuemin>
										<valuemax>3.98109</valuemax>
										<value>0.955178</value>
										<keyframe>
											<when>48769</when>
											<value>0.955178</value>
										</keyframe>
										<keyframe>
											<when>48852</when>
											<value>0</value>
										</keyframe>
									</parameter>
								</effect>
							</filter>
						<link>
							<linkclipref>clipitem-1016</linkclipref>
							<mediatype>audio</mediatype>
							<trackindex>10</trackindex>
							<clipindex>126</clipindex>
							<groupindex>1</groupindex>
						</link>
						<link>
							<linkclipref>clipitem-1152</linkclipref>
							<mediatype>audio</mediatype>
							<trackindex>11</trackindex>
							<clipindex>122</clipindex>
							<groupindex>1</groupindex>
						</link>
						<logginginfo>
							<description>Program 13</description>
							<scene></scene>
							<shottake></shottake>
							<lognote></lognote>
						</logginginfo>
						<labels>
							<label2>Iris</label2>
						</labels>
					</clipitem>
					<clipitem id="clipitem-1017" premiereChannelType="stereo">
						<masterclipid>masterclip-249</masterclipid>
						<name>NRK2-090716.mxf</name>
						<enabled>TRUE</enabled>
						<duration>183000</duration>
						<rate>
							<timebase>25</timebase>
							<ntsc>FALSE</ntsc>
						</rate>
						<start>57836</start>
						<end>58434</end>
						<in>80926</in>
						<out>81524</out>
						<pproTicksIn>822259952640000</pproTicksIn>
						<pproTicksOut>828336015360000</pproTicksOut>
						<file id="file-249"/>
						<sourcetrack>
							<mediatype>audio</mediatype>
							<trackindex>3</trackindex>
						</sourcetrack>
						<link>
							<linkclipref>clipitem-427</linkclipref>
							<mediatype>video</mediatype>
							<trackindex>2</trackindex>
							<clipindex>173</clipindex>
						</link>
						<link>
							<linkclipref>clipitem-1017</linkclipref>
							<mediatype>audio</mediatype>
							<trackindex>10</trackindex>
							<clipindex>127</clipindex>
							<groupindex>1</groupindex>
						</link>
						<link>
							<linkclipref>clipitem-1153</linkclipref>
							<mediatype>audio</mediatype>
							<trackindex>11</trackindex>
							<clipindex>123</clipindex>
							<groupindex>1</groupindex>
						</link>
						<logginginfo>
							<description>Program 20</description>
							<scene></scene>
							<shottake></shottake>
							<lognote></lognote>
						</logginginfo>
						<labels>
							<label2>Iris</label2>
						</labels>
					</clipitem>
					<clipitem id="clipitem-1018" premiereChannelType="stereo">
						<masterclipid>masterclip-321</masterclipid>
						<name>Ut i naturen 5 Intelligens I-lyd uten musikk.wav</name>
						<enabled>TRUE</enabled>
						<duration>57986</duration>
						<rate>
							<timebase>25</timebase>
							<ntsc>FALSE</ntsc>
						</rate>
						<start>59934</start>
						<end>60944</end>
						<in>49346</in>
						<out>50356</out>
						<pproTicksIn>501386941440000</pproTicksIn>
						<pproTicksOut>511649187840000</pproTicksOut>
						<file id="file-321">
							<name>Ut i naturen 5 Intelligens I-lyd uten musikk.wav</name>
							<pathurl>file://localhost/Volumes/Svartediket/Prosjekter/DVNA201815_Ut%20i%20naturen_FAL_010117/Eksport/Fra%20lyd/Ut%20i%20naturen%205%20Intelligens%20I-lyd%20uten%20musikk.wav</pathurl>
							<rate>
								<timebase>30</timebase>
								<ntsc>TRUE</ntsc>
							</rate>
							<duration>69513</duration>
							<timecode>
								<rate>
									<timebase>30</timebase>
									<ntsc>TRUE</ntsc>
								</rate>
								<string>00;00;00;00</string>
								<frame>0</frame>
								<displayformat>DF</displayformat>
								<reel>
									<name></name>
								</reel>
							</timecode>
							<media>
								<audio>
									<samplecharacteristics>
										<depth>16</depth>
										<samplerate>48000</samplerate>
									</samplecharacteristics>
									<channelcount>2</channelcount>
								</audio>
							</media>
						</file>
						<sourcetrack>
							<mediatype>audio</mediatype>
							<trackindex>1</trackindex>
						</sourcetrack>
							<filter>
								<effect>
									<name>Audio Levels</name>
									<effectid>audiolevels</effectid>
									<effectcategory>audiolevels</effectcategory>
									<effecttype>audiolevels</effecttype>
									<mediatype>audio</mediatype>
									<parameter authoringApp="PremierePro">
										<parameterid>level</parameterid>
										<name>Level</name>
										<valuemin>0</valuemin>
										<valuemax>3.98109</valuemax>
										<value>0</value>
										<keyframe>
											<when>49362</when>
											<value>0</value>
										</keyframe>
										<keyframe>
											<when>49369</when>
											<value>0.99763</value>
										</keyframe>
										<keyframe>
											<when>50344</when>
											<value>0.99763</value>
										</keyframe>
										<keyframe>
											<when>50355</when>
											<value>0</value>
										</keyframe>
									</parameter>
								</effect>
							</filter>
						<link>
							<linkclipref>clipitem-1018</linkclipref>
							<mediatype>audio</mediatype>
							<trackindex>10</trackindex>
							<clipindex>128</clipindex>
							<groupindex>1</groupindex>
						</link>
						<link>
							<linkclipref>clipitem-1154</linkclipref>
							<mediatype>audio</mediatype>
							<trackindex>11</trackindex>
							<clipindex>124</clipindex>
							<groupindex>1</groupindex>
						</link>
						<logginginfo>
							<description></description>
							<scene></scene>
							<shottake></shottake>
							<lognote></lognote>
						</logginginfo>
						<labels>
							<label2>Caribbean</label2>
						</labels>
					</clipitem>
					<clipitem id="clipitem-1019" premiereChannelType="stereo">
						<masterclipid>masterclip-322</masterclipid>
						<name>4-Fysikk-MASTER-TK-I-lyd.wav</name>
						<enabled>TRUE</enabled>
						<duration>57688</duration>
						<rate>
							<timebase>25</timebase>
							<ntsc>FALSE</ntsc>
						</rate>
						<start>62338</start>
						<end>64099</end>
						<in>32640</in>
						<out>34401</out>
						<pproTicksIn>331643289600000</pproTicksIn>
						<pproTicksOut>349536176640000</pproTicksOut>
						<file id="file-322">
							<name>4-Fysikk-MASTER-TK-I-lyd.wav</name>
							<pathurl>file://localhost/Volumes/Svartediket/Prosjekter/DVNA201815_Ut%20i%20naturen_FAL_010117/Eksport/Fra%20lyd/4-Fysikk-MASTER-TK-I-lyd.wav</pathurl>
							<rate>
								<timebase>30</timebase>
								<ntsc>TRUE</ntsc>
							</rate>
							<duration>69156</duration>
							<timecode>
								<rate>
									<timebase>30</timebase>
									<ntsc>TRUE</ntsc>
								</rate>
								<string>00;00;00;00</string>
								<frame>0</frame>
								<displayformat>DF</displayformat>
								<reel>
									<name></name>
								</reel>
							</timecode>
							<media>
								<audio>
									<samplecharacteristics>
										<depth>16</depth>
										<samplerate>48000</samplerate>
									</samplecharacteristics>
									<channelcount>2</channelcount>
								</audio>
							</media>
						</file>
						<sourcetrack>
							<mediatype>audio</mediatype>
							<trackindex>1</trackindex>
						</sourcetrack>
							<filter>
								<effect>
									<name>Audio Levels</name>
									<effectid>audiolevels</effectid>
									<effectcategory>audiolevels</effectcategory>
									<effecttype>audiolevels</effecttype>
									<mediatype>audio</mediatype>
									<parameter authoringApp="PremierePro">
										<parameterid>level</parameterid>
										<name>Level</name>
										<valuemin>0</valuemin>
										<valuemax>3.98109</valuemax>
										<value>0</value>
										<keyframe>
											<when>32641</when>
											<value>0</value>
										</keyframe>
										<keyframe>
											<when>32680</when>
											<value>0.99763</value>
										</keyframe>
										<keyframe>
											<when>34310</when>
											<value>0.99763</value>
										</keyframe>
										<keyframe>
											<when>34353</when>
											<value>0</value>
										</keyframe>
									</parameter>
								</effect>
							</filter>
							<marker>
								<comment></comment>
								<name></name>
								<in>32705</in>
								<out>-1</out>
							</marker>
							<marker>
								<comment></comment>
								<name></name>
								<in>15468</in>
								<out>-1</out>
							</marker>
							<marker>
								<comment></comment>
								<name></name>
								<in>28726</in>
								<out>-1</out>
							</marker>
						<link>
							<linkclipref>clipitem-1019</linkclipref>
							<mediatype>audio</mediatype>
							<trackindex>10</trackindex>
							<clipindex>129</clipindex>
							<groupindex>1</groupindex>
						</link>
						<link>
							<linkclipref>clipitem-1155</linkclipref>
							<mediatype>audio</mediatype>
							<trackindex>11</trackindex>
							<clipindex>125</clipindex>
							<groupindex>1</groupindex>
						</link>
						<logginginfo>
							<description></description>
							<scene></scene>
							<shottake></shottake>
							<lognote></lognote>
						</logginginfo>
						<labels>
							<label2>Caribbean</label2>
						</labels>
					</clipitem>
					<clipitem id="clipitem-1020" premiereChannelType="stereo">
						<masterclipid>masterclip-316</masterclipid>
						<name>Nordvisjon-MASTER-vr3-201016-ny-kontentum.wav</name>
						<enabled>TRUE</enabled>
						<duration>43013</duration>
						<rate>
							<timebase>25</timebase>
							<ntsc>FALSE</ntsc>
						</rate>
						<start>65463</start>
						<end>-1</end>
						<in>1558</in>
						<out>3131</out>
						<pproTicksIn>15830277120000</pproTicksIn>
						<pproTicksOut>31812963840000</pproTicksOut>
						<file id="file-316"/>
						<sourcetrack>
							<mediatype>audio</mediatype>
							<trackindex>1</trackindex>
						</sourcetrack>
							<filter>
								<effect>
									<name>Audio Levels</name>
									<effectid>audiolevels</effectid>
									<effectcategory>audiolevels</effectcategory>
									<effecttype>audiolevels</effecttype>
									<mediatype>audio</mediatype>
									<parameter authoringApp="PremierePro">
										<parameterid>level</parameterid>
										<name>Level</name>
										<valuemin>0</valuemin>
										<valuemax>3.98109</valuemax>
										<value>0.258645</value>
										<keyframe>
											<when>1453</when>
											<value>0.598264</value>
										</keyframe>
										<keyframe>
											<when>1563</when>
											<value>0</value>
										</keyframe>
										<keyframe>
											<when>1584</when>
											<value>0</value>
										</keyframe>
										<keyframe>
											<when>1599</when>
											<value>0.441063</value>
										</keyframe>
										<keyframe>
											<when>1624</when>
											<value>0.458171</value>
										</keyframe>
										<keyframe>
											<when>2051</when>
											<value>0.332543</value>
										</keyframe>
										<keyframe>
											<when>2174</when>
											<value>0.131288</value>
										</keyframe>
										<keyframe>
											<when>2368</when>
											<value>0.131288</value>
										</keyframe>
										<keyframe>
											<when>2411</when>
											<value>0.428454</value>
										</keyframe>
										<keyframe>
											<when>2624</when>
											<value>0.386002</value>
										</keyframe>
										<keyframe>
											<when>2675</when>
											<value>0.258645</value>
										</keyframe>
									</parameter>
								</effect>
							</filter>
							<marker>
								<comment></comment>
								<name></name>
								<in>40399</in>
								<out>-1</out>
							</marker>
							<marker>
								<comment></comment>
								<name></name>
								<in>3092</in>
								<out>-1</out>
							</marker>
							<marker>
								<comment></comment>
								<name></name>
								<in>36054</in>
								<out>-1</out>
							</marker>
							<marker>
								<comment></comment>
								<name></name>
								<in>0</in>
								<out>-1</out>
							</marker>
						<link>
							<linkclipref>clipitem-1020</linkclipref>
							<mediatype>audio</mediatype>
							<trackindex>10</trackindex>
							<clipindex>130</clipindex>
							<groupindex>1</groupindex>
						</link>
						<link>
							<linkclipref>clipitem-1156</linkclipref>
							<mediatype>audio</mediatype>
							<trackindex>11</trackindex>
							<clipindex>126</clipindex>
							<groupindex>1</groupindex>
						</link>
						<logginginfo>
							<description></description>
							<scene></scene>
							<shottake></shottake>
							<lognote></lognote>
						</logginginfo>
						<labels>
							<label2>Iris</label2>
						</labels>
					</clipitem>
					<transitionitem>
						<start>67023</start>
						<end>67036</end>
						<alignment>center</alignment>
						<cutPointTicks>60963840000</cutPointTicks>
						<rate>
							<timebase>25</timebase>
							<ntsc>FALSE</ntsc>
						</rate>
						<effect>
							<name>Cross Fade (+3dB)</name>
							<effectid>KGAudioTransCrossFade3dB</effectid>
							<effecttype>transition</effecttype>
							<mediatype>audio</mediatype>
							<wipecode>0</wipecode>
							<wipeaccuracy>100</wipeaccuracy>
							<startratio>0</startratio>
							<endratio>1</endratio>
							<reverse>FALSE</reverse>
						</effect>
					</transitionitem>
					<clipitem id="clipitem-1021" premiereChannelType="stereo">
						<masterclipid>masterclip-316</masterclipid>
						<name>Nordvisjon-MASTER-vr3-201016-ny-kontentum.wav</name>
						<enabled>TRUE</enabled>
						<duration>43013</duration>
						<rate>
							<timebase>25</timebase>
							<ntsc>FALSE</ntsc>
						</rate>
						<start>-1</start>
						<end>-1</end>
						<in>4082</in>
						<out>4506</out>
						<pproTicksIn>41475732480000</pproTicksIn>
						<pproTicksOut>45783843840000</pproTicksOut>
						<file id="file-316"/>
						<sourcetrack>
							<mediatype>audio</mediatype>
							<trackindex>1</trackindex>
						</sourcetrack>
							<filter>
								<effect>
									<name>Audio Levels</name>
									<effectid>audiolevels</effectid>
									<effectcategory>audiolevels</effectcategory>
									<effecttype>audiolevels</effecttype>
									<mediatype>audio</mediatype>
									<parameter authoringApp="PremierePro">
										<parameterid>level</parameterid>
										<name>Level</name>
										<valuemin>0</valuemin>
										<valuemax>3.98109</valuemax>
										<value>0.555811</value>
										<keyframe>
											<when>4334</when>
											<value>0.17374</value>
										</keyframe>
										<keyframe>
											<when>4381</when>
											<value>0.555811</value>
										</keyframe>
									</parameter>
								</effect>
							</filter>
							<marker>
								<comment></comment>
								<name></name>
								<in>40399</in>
								<out>-1</out>
							</marker>
							<marker>
								<comment></comment>
								<name></name>
								<in>3092</in>
								<out>-1</out>
							</marker>
							<marker>
								<comment></comment>
								<name></name>
								<in>36054</in>
								<out>-1</out>
							</marker>
							<marker>
								<comment></comment>
								<name></name>
								<in>0</in>
								<out>-1</out>
							</marker>
						<link>
							<linkclipref>clipitem-1021</linkclipref>
							<mediatype>audio</mediatype>
							<trackindex>10</trackindex>
							<clipindex>132</clipindex>
							<groupindex>1</groupindex>
						</link>
						<link>
							<linkclipref>clipitem-1157</linkclipref>
							<mediatype>audio</mediatype>
							<trackindex>11</trackindex>
							<clipindex>128</clipindex>
							<groupindex>1</groupindex>
						</link>
						<logginginfo>
							<description></description>
							<scene></scene>
							<shottake></shottake>
							<lognote></lognote>
						</logginginfo>
						<labels>
							<label2>Iris</label2>
						</labels>
					</clipitem>
					<transitionitem>
						<start>67434</start>
						<end>67447</end>
						<alignment>center</alignment>
						<cutPointTicks>60963840000</cutPointTicks>
						<rate>
							<timebase>25</timebase>
							<ntsc>FALSE</ntsc>
						</rate>
						<effect>
							<name>Cross Fade (+3dB)</name>
							<effectid>KGAudioTransCrossFade3dB</effectid>
							<effecttype>transition</effecttype>
							<mediatype>audio</mediatype>
							<wipecode>0</wipecode>
							<wipeaccuracy>100</wipeaccuracy>
							<startratio>0</startratio>
							<endratio>1</endratio>
							<reverse>FALSE</reverse>
						</effect>
					</transitionitem>
					<clipitem id="clipitem-1022" premiereChannelType="stereo">
						<masterclipid>masterclip-316</masterclipid>
						<name>Nordvisjon-MASTER-vr3-201016-ny-kontentum.wav</name>
						<enabled>TRUE</enabled>
						<duration>43013</duration>
						<rate>
							<timebase>25</timebase>
							<ntsc>FALSE</ntsc>
						</rate>
						<start>-1</start>
						<end>-1</end>
						<in>4652</in>
						<out>5247</out>
						<pproTicksIn>47267297280000</pproTicksIn>
						<pproTicksOut>53312878080000</pproTicksOut>
						<file id="file-316"/>
						<sourcetrack>
							<mediatype>audio</mediatype>
							<trackindex>1</trackindex>
						</sourcetrack>
							<filter>
								<effect>
									<name>Audio Levels</name>
									<effectid>audiolevels</effectid>
									<effectcategory>audiolevels</effectcategory>
									<effecttype>audiolevels</effecttype>
									<mediatype>audio</mediatype>
									<parameter authoringApp="PremierePro">
										<parameterid>level</parameterid>
										<name>Level</name>
										<valuemin>0</valuemin>
										<valuemax>3.98109</valuemax>
										<value>0.937882</value>
										<keyframe>
											<when>4985</when>
											<value>0.258645</value>
										</keyframe>
										<keyframe>
											<when>5020</when>
											<value>0.937882</value>
										</keyframe>
									</parameter>
								</effect>
							</filter>
							<marker>
								<comment></comment>
								<name></name>
								<in>40399</in>
								<out>-1</out>
							</marker>
							<marker>
								<comment></comment>
								<name></name>
								<in>3092</in>
								<out>-1</out>
							</marker>
							<marker>
								<comment></comment>
								<name></name>
								<in>36054</in>
								<out>-1</out>
							</marker>
							<marker>
								<comment></comment>
								<name></name>
								<in>0</in>
								<out>-1</out>
							</marker>
						<link>
							<linkclipref>clipitem-1022</linkclipref>
							<mediatype>audio</mediatype>
							<trackindex>10</trackindex>
							<clipindex>134</clipindex>
							<groupindex>1</groupindex>
						</link>
						<link>
							<linkclipref>clipitem-1158</linkclipref>
							<mediatype>audio</mediatype>
							<trackindex>11</trackindex>
							<clipindex>130</clipindex>
							<groupindex>1</groupindex>
						</link>
						<logginginfo>
							<description></description>
							<scene></scene>
							<shottake></shottake>
							<lognote></lognote>
						</logginginfo>
						<labels>
							<label2>Iris</label2>
						</labels>
					</clipitem>
					<transitionitem>
						<start>68016</start>
						<end>68029</end>
						<alignment>center</alignment>
						<cutPointTicks>60963840000</cutPointTicks>
						<rate>
							<timebase>25</timebase>
							<ntsc>FALSE</ntsc>
						</rate>
						<effect>
							<name>Cross Fade (+3dB)</name>
							<effectid>KGAudioTransCrossFade3dB</effectid>
							<effecttype>transition</effecttype>
							<mediatype>audio</mediatype>
							<wipecode>0</wipecode>
							<wipeaccuracy>100</wipeaccuracy>
							<startratio>0</startratio>
							<endratio>1</endratio>
							<reverse>FALSE</reverse>
						</effect>
					</transitionitem>
					<clipitem id="clipitem-1023" premiereChannelType="stereo">
						<masterclipid>masterclip-316</masterclipid>
						<name>Nordvisjon-MASTER-vr3-201016-ny-kontentum.wav</name>
						<enabled>TRUE</enabled>
						<duration>43013</duration>
						<rate>
							<timebase>25</timebase>
							<ntsc>FALSE</ntsc>
						</rate>
						<start>-1</start>
						<end>-1</end>
						<in>5466</in>
						<out>8147</out>
						<pproTicksIn>55538058240000</pproTicksIn>
						<pproTicksOut>82778734080000</pproTicksOut>
						<file id="file-316"/>
						<sourcetrack>
							<mediatype>audio</mediatype>
							<trackindex>1</trackindex>
						</sourcetrack>
							<filter>
								<effect>
									<name>Audio Levels</name>
									<effectid>audiolevels</effectid>
									<effectcategory>audiolevels</effectcategory>
									<effecttype>audiolevels</effecttype>
									<mediatype>audio</mediatype>
									<parameter authoringApp="PremierePro">
										<parameterid>level</parameterid>
										<name>Level</name>
										<valuemin>0</valuemin>
										<valuemax>3.98109</valuemax>
										<value>0.428454</value>
										<keyframe>
											<when>5539</when>
											<value>0.258645</value>
										</keyframe>
										<keyframe>
											<when>5570</when>
											<value>0.980335</value>
										</keyframe>
										<keyframe>
											<when>6470</when>
											<value>0.980335</value>
										</keyframe>
										<keyframe>
											<when>6525</when>
											<value>0.428454</value>
										</keyframe>
									</parameter>
								</effect>
							</filter>
							<marker>
								<comment></comment>
								<name></name>
								<in>40399</in>
								<out>-1</out>
							</marker>
							<marker>
								<comment></comment>
								<name></name>
								<in>3092</in>
								<out>-1</out>
							</marker>
							<marker>
								<comment></comment>
								<name></name>
								<in>36054</in>
								<out>-1</out>
							</marker>
							<marker>
								<comment></comment>
								<name></name>
								<in>0</in>
								<out>-1</out>
							</marker>
						<link>
							<linkclipref>clipitem-1023</linkclipref>
							<mediatype>audio</mediatype>
							<trackindex>10</trackindex>
							<clipindex>136</clipindex>
							<groupindex>1</groupindex>
						</link>
						<link>
							<linkclipref>clipitem-1159</linkclipref>
							<mediatype>audio</mediatype>
							<trackindex>11</trackindex>
							<clipindex>132</clipindex>
							<groupindex>1</groupindex>
						</link>
						<logginginfo>
							<description></description>
							<scene></scene>
							<shottake></shottake>
							<lognote></lognote>
						</logginginfo>
						<labels>
							<label2>Iris</label2>
						</labels>
					</clipitem>
					<transitionitem>
						<start>70684</start>
						<end>70697</end>
						<alignment>center</alignment>
						<cutPointTicks>60963840000</cutPointTicks>
						<rate>
							<timebase>25</timebase>
							<ntsc>FALSE</ntsc>
						</rate>
						<effect>
							<name>Cross Fade (+3dB)</name>
							<effectid>KGAudioTransCrossFade3dB</effectid>
							<effecttype>transition</effecttype>
							<mediatype>audio</mediatype>
							<wipecode>0</wipecode>
							<wipeaccuracy>100</wipeaccuracy>
							<startratio>0</startratio>
							<endratio>1</endratio>
							<reverse>FALSE</reverse>
						</effect>
					</transitionitem>
					<clipitem id="clipitem-1024" premiereChannelType="stereo">
						<masterclipid>masterclip-316</masterclipid>
						<name>Nordvisjon-MASTER-vr3-201016-ny-kontentum.wav</name>
						<enabled>TRUE</enabled>
						<duration>43013</duration>
						<rate>
							<timebase>25</timebase>
							<ntsc>FALSE</ntsc>
						</rate>
						<start>-1</start>
						<end>-1</end>
						<in>8134</in>
						<out>8768</out>
						<pproTicksIn>82646645760000</pproTicksIn>
						<pproTicksOut>89088491520000</pproTicksOut>
						<file id="file-316"/>
						<sourcetrack>
							<mediatype>audio</mediatype>
							<trackindex>1</trackindex>
						</sourcetrack>
							<filter>
								<effect>
									<name>Audio Levels</name>
									<effectid>audiolevels</effectid>
									<effectcategory>audiolevels</effectcategory>
									<effecttype>audiolevels</effecttype>
									<mediatype>audio</mediatype>
									<parameter authoringApp="PremierePro">
										<parameterid>level</parameterid>
										<name>Level</name>
										<valuemin>0</valuemin>
										<valuemax>3.98109</valuemax>
										<value>0.258645</value>
									</parameter>
								</effect>
							</filter>
							<marker>
								<comment></comment>
								<name></name>
								<in>40399</in>
								<out>-1</out>
							</marker>
							<marker>
								<comment></comment>
								<name></name>
								<in>3092</in>
								<out>-1</out>
							</marker>
							<marker>
								<comment></comment>
								<name></name>
								<in>36054</in>
								<out>-1</out>
							</marker>
							<marker>
								<comment></comment>
								<name></name>
								<in>0</in>
								<out>-1</out>
							</marker>
						<link>
							<linkclipref>clipitem-1024</linkclipref>
							<mediatype>audio</mediatype>
							<trackindex>10</trackindex>
							<clipindex>138</clipindex>
							<groupindex>1</groupindex>
						</link>
						<link>
							<linkclipref>clipitem-1160</linkclipref>
							<mediatype>audio</mediatype>
							<trackindex>11</trackindex>
							<clipindex>134</clipindex>
							<groupindex>1</groupindex>
						</link>
						<logginginfo>
							<description></description>
							<scene></scene>
							<shottake></shottake>
							<lognote></lognote>
						</logginginfo>
						<labels>
							<label2>Iris</label2>
						</labels>
					</clipitem>
					<transitionitem>
						<start>71306</start>
						<end>71318</end>
						<alignment>center</alignment>
						<cutPointTicks>60963840000</cutPointTicks>
						<rate>
							<timebase>25</timebase>
							<ntsc>FALSE</ntsc>
						</rate>
						<effect>
							<name>Cross Fade (+3dB)</name>
							<effectid>KGAudioTransCrossFade3dB</effectid>
							<effecttype>transition</effecttype>
							<mediatype>audio</mediatype>
							<wipecode>0</wipecode>
							<wipeaccuracy>100</wipeaccuracy>
							<startratio>0</startratio>
							<endratio>1</endratio>
							<reverse>FALSE</reverse>
						</effect>
					</transitionitem>
					<clipitem id="clipitem-1025" premiereChannelType="stereo">
						<masterclipid>masterclip-316</masterclipid>
						<name>Nordvisjon-MASTER-vr3-201016-ny-kontentum.wav</name>
						<enabled>TRUE</enabled>
						<duration>43013</duration>
						<rate>
							<timebase>25</timebase>
							<ntsc>FALSE</ntsc>
						</rate>
						<start>-1</start>
						<end>-1</end>
						<in>11186</in>
						<out>12655</out>
						<pproTicksIn>113656919040000</pproTicksIn>
						<pproTicksOut>128582899200000</pproTicksOut>
						<file id="file-316"/>
						<sourcetrack>
							<mediatype>audio</mediatype>
							<trackindex>1</trackindex>
						</sourcetrack>
							<filter>
								<effect>
									<name>Audio Levels</name>
									<effectid>audiolevels</effectid>
									<effectcategory>audiolevels</effectcategory>
									<effecttype>audiolevels</effecttype>
									<mediatype>audio</mediatype>
									<parameter authoringApp="PremierePro">
										<parameterid>level</parameterid>
										<name>Level</name>
										<valuemin>0</valuemin>
										<valuemax>3.98109</valuemax>
										<value>0.969328</value>
										<keyframe>
											<when>12048</when>
											<value>0.332543</value>
										</keyframe>
										<keyframe>
											<when>12066</when>
											<value>0.162734</value>
										</keyframe>
										<keyframe>
											<when>12145</when>
											<value>0.162734</value>
										</keyframe>
										<keyframe>
											<when>12158</when>
											<value>0.969328</value>
										</keyframe>
									</parameter>
								</effect>
							</filter>
							<marker>
								<comment></comment>
								<name></name>
								<in>40399</in>
								<out>-1</out>
							</marker>
							<marker>
								<comment></comment>
								<name></name>
								<in>3092</in>
								<out>-1</out>
							</marker>
							<marker>
								<comment></comment>
								<name></name>
								<in>36054</in>
								<out>-1</out>
							</marker>
							<marker>
								<comment></comment>
								<name></name>
								<in>0</in>
								<out>-1</out>
							</marker>
						<link>
							<linkclipref>clipitem-1025</linkclipref>
							<mediatype>audio</mediatype>
							<trackindex>10</trackindex>
							<clipindex>140</clipindex>
							<groupindex>1</groupindex>
						</link>
						<link>
							<linkclipref>clipitem-1161</linkclipref>
							<mediatype>audio</mediatype>
							<trackindex>11</trackindex>
							<clipindex>136</clipindex>
							<groupindex>1</groupindex>
						</link>
						<logginginfo>
							<description></description>
							<scene></scene>
							<shottake></shottake>
							<lognote></lognote>
						</logginginfo>
						<labels>
							<label2>Iris</label2>
						</labels>
					</clipitem>
					<transitionitem>
						<start>72763</start>
						<end>72775</end>
						<alignment>center</alignment>
						<cutPointTicks>60963840000</cutPointTicks>
						<rate>
							<timebase>25</timebase>
							<ntsc>FALSE</ntsc>
						</rate>
						<effect>
							<name>Cross Fade (+3dB)</name>
							<effectid>KGAudioTransCrossFade3dB</effectid>
							<effecttype>transition</effecttype>
							<mediatype>audio</mediatype>
							<wipecode>0</wipecode>
							<wipeaccuracy>100</wipeaccuracy>
							<startratio>0</startratio>
							<endratio>1</endratio>
							<reverse>FALSE</reverse>
						</effect>
					</transitionitem>
					<clipitem id="clipitem-1026" premiereChannelType="stereo">
						<masterclipid>masterclip-316</masterclipid>
						<name>Nordvisjon-MASTER-vr3-201016-ny-kontentum.wav</name>
						<enabled>TRUE</enabled>
						<duration>43013</duration>
						<rate>
							<timebase>25</timebase>
							<ntsc>FALSE</ntsc>
						</rate>
						<start>-1</start>
						<end>-1</end>
						<in>14118</in>
						<out>14936</out>
						<pproTicksIn>143447915520000</pproTicksIn>
						<pproTicksOut>151759319040000</pproTicksOut>
						<file id="file-316"/>
						<sourcetrack>
							<mediatype>audio</mediatype>
							<trackindex>1</trackindex>
						</sourcetrack>
							<filter>
								<effect>
									<name>Audio Levels</name>
									<effectid>audiolevels</effectid>
									<effectcategory>audiolevels</effectcategory>
									<effecttype>audiolevels</effecttype>
									<mediatype>audio</mediatype>
									<parameter authoringApp="PremierePro">
										<parameterid>level</parameterid>
										<name>Level</name>
										<valuemin>0</valuemin>
										<valuemax>3.98109</valuemax>
										<value>0.912725</value>
										<keyframe>
											<when>14156</when>
											<value>0.403297</value>
										</keyframe>
										<keyframe>
											<when>14168</when>
											<value>0.191036</value>
										</keyframe>
										<keyframe>
											<when>14641</when>
											<value>0.191036</value>
										</keyframe>
										<keyframe>
											<when>14662</when>
											<value>0.912725</value>
										</keyframe>
									</parameter>
								</effect>
							</filter>
							<marker>
								<comment></comment>
								<name></name>
								<in>40399</in>
								<out>-1</out>
							</marker>
							<marker>
								<comment></comment>
								<name></name>
								<in>3092</in>
								<out>-1</out>
							</marker>
							<marker>
								<comment></comment>
								<name></name>
								<in>36054</in>
								<out>-1</out>
							</marker>
							<marker>
								<comment></comment>
								<name></name>
								<in>0</in>
								<out>-1</out>
							</marker>
						<link>
							<linkclipref>clipitem-1026</linkclipref>
							<mediatype>audio</mediatype>
							<trackindex>10</trackindex>
							<clipindex>142</clipindex>
							<groupindex>1</groupindex>
						</link>
						<link>
							<linkclipref>clipitem-1162</linkclipref>
							<mediatype>audio</mediatype>
							<trackindex>11</trackindex>
							<clipindex>138</clipindex>
							<groupindex>1</groupindex>
						</link>
						<logginginfo>
							<description></description>
							<scene></scene>
							<shottake></shottake>
							<lognote></lognote>
						</logginginfo>
						<labels>
							<label2>Iris</label2>
						</labels>
					</clipitem>
					<transitionitem>
						<start>73569</start>
						<end>73581</end>
						<alignment>center</alignment>
						<cutPointTicks>60963840000</cutPointTicks>
						<rate>
							<timebase>25</timebase>
							<ntsc>FALSE</ntsc>
						</rate>
						<effect>
							<name>Cross Fade (+3dB)</name>
							<effectid>KGAudioTransCrossFade3dB</effectid>
							<effecttype>transition</effecttype>
							<mediatype>audio</mediatype>
							<wipecode>0</wipecode>
							<wipeaccuracy>100</wipeaccuracy>
							<startratio>0</startratio>
							<endratio>1</endratio>
							<reverse>FALSE</reverse>
						</effect>
					</transitionitem>
					<clipitem id="clipitem-1027" premiereChannelType="stereo">
						<masterclipid>masterclip-316</masterclipid>
						<name>Nordvisjon-MASTER-vr3-201016-ny-kontentum.wav</name>
						<enabled>TRUE</enabled>
						<duration>43013</duration>
						<rate>
							<timebase>25</timebase>
							<ntsc>FALSE</ntsc>
						</rate>
						<start>-1</start>
						<end>-1</end>
						<in>15447</in>
						<out>16526</out>
						<pproTicksIn>156951406080000</pproTicksIn>
						<pproTicksOut>167914736640000</pproTicksOut>
						<file id="file-316"/>
						<sourcetrack>
							<mediatype>audio</mediatype>
							<trackindex>1</trackindex>
						</sourcetrack>
							<filter>
								<effect>
									<name>Audio Levels</name>
									<effectid>audiolevels</effectid>
									<effectcategory>audiolevels</effectcategory>
									<effecttype>audiolevels</effecttype>
									<mediatype>audio</mediatype>
									<parameter authoringApp="PremierePro">
										<parameterid>level</parameterid>
										<name>Level</name>
										<valuemin>0</valuemin>
										<valuemax>3.98109</valuemax>
										<value>0.311545</value>
										<keyframe>
											<when>15555</when>
											<value>0.99763</value>
										</keyframe>
										<keyframe>
											<when>15618</when>
											<value>0.27594</value>
										</keyframe>
										<keyframe>
											<when>15794</when>
											<value>0.27594</value>
										</keyframe>
										<keyframe>
											<when>15846</when>
											<value>0.955178</value>
										</keyframe>
										<keyframe>
											<when>16217</when>
											<value>0.955178</value>
										</keyframe>
										<keyframe>
											<when>16262</when>
											<value>0.568998</value>
										</keyframe>
										<keyframe>
											<when>16313</when>
											<value>0.311545</value>
										</keyframe>
									</parameter>
								</effect>
							</filter>
							<marker>
								<comment></comment>
								<name></name>
								<in>40399</in>
								<out>-1</out>
							</marker>
							<marker>
								<comment></comment>
								<name></name>
								<in>3092</in>
								<out>-1</out>
							</marker>
							<marker>
								<comment></comment>
								<name></name>
								<in>36054</in>
								<out>-1</out>
							</marker>
							<marker>
								<comment></comment>
								<name></name>
								<in>0</in>
								<out>-1</out>
							</marker>
						<link>
							<linkclipref>clipitem-1027</linkclipref>
							<mediatype>audio</mediatype>
							<trackindex>10</trackindex>
							<clipindex>144</clipindex>
							<groupindex>1</groupindex>
						</link>
						<link>
							<linkclipref>clipitem-1163</linkclipref>
							<mediatype>audio</mediatype>
							<trackindex>11</trackindex>
							<clipindex>140</clipindex>
							<groupindex>1</groupindex>
						</link>
						<logginginfo>
							<description></description>
							<scene></scene>
							<shottake></shottake>
							<lognote></lognote>
						</logginginfo>
						<labels>
							<label2>Iris</label2>
						</labels>
					</clipitem>
					<transitionitem>
						<start>74497</start>
						<end>74648</end>
						<alignment>center</alignment>
						<cutPointTicks>762048000000</cutPointTicks>
						<rate>
							<timebase>25</timebase>
							<ntsc>FALSE</ntsc>
						</rate>
						<effect>
							<name>Cross Fade (+3dB)</name>
							<effectid>KGAudioTransCrossFade3dB</effectid>
							<effecttype>transition</effecttype>
							<mediatype>audio</mediatype>
							<wipecode>0</wipecode>
							<wipeaccuracy>100</wipeaccuracy>
							<startratio>0</startratio>
							<endratio>1</endratio>
							<reverse>FALSE</reverse>
						</effect>
					</transitionitem>
					<clipitem id="clipitem-1028" premiereChannelType="stereo">
						<masterclipid>masterclip-316</masterclipid>
						<name>Nordvisjon-MASTER-vr3-201016-ny-kontentum.wav</name>
						<enabled>TRUE</enabled>
						<duration>43013</duration>
						<rate>
							<timebase>25</timebase>
							<ntsc>FALSE</ntsc>
						</rate>
						<start>-1</start>
						<end>-1</end>
						<in>20323</in>
						<out>20912</out>
						<pproTicksIn>206494686720000</pproTicksIn>
						<pproTicksOut>212479303680000</pproTicksOut>
						<file id="file-316"/>
						<sourcetrack>
							<mediatype>audio</mediatype>
							<trackindex>1</trackindex>
						</sourcetrack>
							<marker>
								<comment></comment>
								<name></name>
								<in>40399</in>
								<out>-1</out>
							</marker>
							<marker>
								<comment></comment>
								<name></name>
								<in>3092</in>
								<out>-1</out>
							</marker>
							<marker>
								<comment></comment>
								<name></name>
								<in>36054</in>
								<out>-1</out>
							</marker>
							<marker>
								<comment></comment>
								<name></name>
								<in>0</in>
								<out>-1</out>
							</marker>
						<link>
							<linkclipref>clipitem-1028</linkclipref>
							<mediatype>audio</mediatype>
							<trackindex>10</trackindex>
							<clipindex>146</clipindex>
							<groupindex>1</groupindex>
						</link>
						<link>
							<linkclipref>clipitem-1164</linkclipref>
							<mediatype>audio</mediatype>
							<trackindex>11</trackindex>
							<clipindex>142</clipindex>
							<groupindex>1</groupindex>
						</link>
						<logginginfo>
							<description></description>
							<scene></scene>
							<shottake></shottake>
							<lognote></lognote>
						</logginginfo>
						<labels>
							<label2>Iris</label2>
						</labels>
					</clipitem>
					<transitionitem>
						<start>75073</start>
						<end>75086</end>
						<alignment>center</alignment>
						<cutPointTicks>60963840000</cutPointTicks>
						<rate>
							<timebase>25</timebase>
							<ntsc>FALSE</ntsc>
						</rate>
						<effect>
							<name>Cross Fade (+3dB)</name>
							<effectid>KGAudioTransCrossFade3dB</effectid>
							<effecttype>transition</effecttype>
							<mediatype>audio</mediatype>
							<wipecode>0</wipecode>
							<wipeaccuracy>100</wipeaccuracy>
							<startratio>0</startratio>
							<endratio>1</endratio>
							<reverse>FALSE</reverse>
						</effect>
					</transitionitem>
					<clipitem id="clipitem-1029" premiereChannelType="stereo">
						<masterclipid>masterclip-316</masterclipid>
						<name>Nordvisjon-MASTER-vr3-201016-ny-kontentum.wav</name>
						<enabled>TRUE</enabled>
						<duration>43013</duration>
						<rate>
							<timebase>25</timebase>
							<ntsc>FALSE</ntsc>
						</rate>
						<start>-1</start>
						<end>-1</end>
						<in>21901</in>
						<out>22209</out>
						<pproTicksIn>222528176640000</pproTicksIn>
						<pproTicksOut>225657653760000</pproTicksOut>
						<file id="file-316"/>
						<sourcetrack>
							<mediatype>audio</mediatype>
							<trackindex>1</trackindex>
						</sourcetrack>
							<marker>
								<comment></comment>
								<name></name>
								<in>40399</in>
								<out>-1</out>
							</marker>
							<marker>
								<comment></comment>
								<name></name>
								<in>3092</in>
								<out>-1</out>
							</marker>
							<marker>
								<comment></comment>
								<name></name>
								<in>36054</in>
								<out>-1</out>
							</marker>
							<marker>
								<comment></comment>
								<name></name>
								<in>0</in>
								<out>-1</out>
							</marker>
						<link>
							<linkclipref>clipitem-1029</linkclipref>
							<mediatype>audio</mediatype>
							<trackindex>10</trackindex>
							<clipindex>148</clipindex>
							<groupindex>1</groupindex>
						</link>
						<link>
							<linkclipref>clipitem-1165</linkclipref>
							<mediatype>audio</mediatype>
							<trackindex>11</trackindex>
							<clipindex>144</clipindex>
							<groupindex>1</groupindex>
						</link>
						<logginginfo>
							<description></description>
							<scene></scene>
							<shottake></shottake>
							<lognote></lognote>
						</logginginfo>
						<labels>
							<label2>Iris</label2>
						</labels>
					</clipitem>
					<transitionitem>
						<start>75368</start>
						<end>75381</end>
						<alignment>center</alignment>
						<cutPointTicks>60963840000</cutPointTicks>
						<rate>
							<timebase>25</timebase>
							<ntsc>FALSE</ntsc>
						</rate>
						<effect>
							<name>Cross Fade (+3dB)</name>
							<effectid>KGAudioTransCrossFade3dB</effectid>
							<effecttype>transition</effecttype>
							<mediatype>audio</mediatype>
							<wipecode>0</wipecode>
							<wipeaccuracy>100</wipeaccuracy>
							<startratio>0</startratio>
							<endratio>1</endratio>
							<reverse>FALSE</reverse>
						</effect>
					</transitionitem>
					<clipitem id="clipitem-1030" premiereChannelType="stereo">
						<masterclipid>masterclip-135</masterclipid>
						<name>Nordvisjon2MASTER_i-lyd_001.mxf</name>
						<enabled>TRUE</enabled>
						<duration>2125</duration>
						<rate>
							<timebase>25</timebase>
							<ntsc>FALSE</ntsc>
						</rate>
						<start>-1</start>
						<end>-1</end>
						<in>19</in>
						<out>2100</out>
						<pproTicksIn>193052160000</pproTicksIn>
						<pproTicksOut>21337344000000</pproTicksOut>
						<file id="file-135"/>
						<sourcetrack>
							<mediatype>audio</mediatype>
							<trackindex>1</trackindex>
						</sourcetrack>
						<link>
							<linkclipref>clipitem-1030</linkclipref>
							<mediatype>audio</mediatype>
							<trackindex>10</trackindex>
							<clipindex>150</clipindex>
							<groupindex>1</groupindex>
						</link>
						<link>
							<linkclipref>clipitem-1166</linkclipref>
							<mediatype>audio</mediatype>
							<trackindex>11</trackindex>
							<clipindex>146</clipindex>
							<groupindex>1</groupindex>
						</link>
						<logginginfo>
							<description></description>
							<scene></scene>
							<shottake></shottake>
							<lognote></lognote>
						</logginginfo>
						<labels>
							<label2>Iris</label2>
						</labels>
					</clipitem>
					<transitionitem>
						<start>77436</start>
						<end>77449</end>
						<alignment>center</alignment>
						<cutPointTicks>60963840000</cutPointTicks>
						<rate>
							<timebase>25</timebase>
							<ntsc>FALSE</ntsc>
						</rate>
						<effect>
							<name>Cross Fade (+3dB)</name>
							<effectid>KGAudioTransCrossFade3dB</effectid>
							<effecttype>transition</effecttype>
							<mediatype>audio</mediatype>
							<wipecode>0</wipecode>
							<wipeaccuracy>100</wipeaccuracy>
							<startratio>0</startratio>
							<endratio>1</endratio>
							<reverse>FALSE</reverse>
						</effect>
					</transitionitem>
					<clipitem id="clipitem-1031" premiereChannelType="stereo">
						<masterclipid>masterclip-136</masterclipid>
						<name>Nordvisjon2MASTER_i-lyd_011.mxf</name>
						<enabled>TRUE</enabled>
						<duration>1386</duration>
						<rate>
							<timebase>25</timebase>
							<ntsc>FALSE</ntsc>
						</rate>
						<start>-1</start>
						<end>-1</end>
						<in>25</in>
						<out>824</out>
						<pproTicksIn>254016000000</pproTicksIn>
						<pproTicksOut>8372367360000</pproTicksOut>
						<file id="file-136"/>
						<sourcetrack>
							<mediatype>audio</mediatype>
							<trackindex>1</trackindex>
						</sourcetrack>
						<link>
							<linkclipref>clipitem-1031</linkclipref>
							<mediatype>audio</mediatype>
							<trackindex>10</trackindex>
							<clipindex>152</clipindex>
							<groupindex>1</groupindex>
						</link>
						<link>
							<linkclipref>clipitem-1167</linkclipref>
							<mediatype>audio</mediatype>
							<trackindex>11</trackindex>
							<clipindex>148</clipindex>
							<groupindex>1</groupindex>
						</link>
						<logginginfo>
							<description></description>
							<scene></scene>
							<shottake></shottake>
							<lognote></lognote>
						</logginginfo>
						<labels>
							<label2>Iris</label2>
						</labels>
					</clipitem>
					<transitionitem>
						<start>78222</start>
						<end>78235</end>
						<alignment>center</alignment>
						<cutPointTicks>60963840000</cutPointTicks>
						<rate>
							<timebase>25</timebase>
							<ntsc>FALSE</ntsc>
						</rate>
						<effect>
							<name>Cross Fade (+3dB)</name>
							<effectid>KGAudioTransCrossFade3dB</effectid>
							<effecttype>transition</effecttype>
							<mediatype>audio</mediatype>
							<wipecode>0</wipecode>
							<wipeaccuracy>100</wipeaccuracy>
							<startratio>0</startratio>
							<endratio>1</endratio>
							<reverse>FALSE</reverse>
						</effect>
					</transitionitem>
					<clipitem id="clipitem-1032" premiereChannelType="stereo">
						<masterclipid>masterclip-137</masterclipid>
						<name>Nordvisjon2MASTER_i-lyd_002.mxf</name>
						<enabled>TRUE</enabled>
						<duration>859</duration>
						<rate>
							<timebase>25</timebase>
							<ntsc>FALSE</ntsc>
						</rate>
						<start>-1</start>
						<end>-1</end>
						<in>23</in>
						<out>827</out>
						<pproTicksIn>233694720000</pproTicksIn>
						<pproTicksOut>8402849280000</pproTicksOut>
						<file id="file-137"/>
						<sourcetrack>
							<mediatype>audio</mediatype>
							<trackindex>1</trackindex>
						</sourcetrack>
							<filter>
								<effect>
									<name>Audio Levels</name>
									<effectid>audiolevels</effectid>
									<effectcategory>audiolevels</effectcategory>
									<effecttype>audiolevels</effecttype>
									<mediatype>audio</mediatype>
									<parameter authoringApp="PremierePro">
										<parameterid>level</parameterid>
										<name>Level</name>
										<valuemin>0</valuemin>
										<valuemax>3.98109</valuemax>
										<value>0.611451</value>
									</parameter>
								</effect>
							</filter>
						<link>
							<linkclipref>clipitem-1032</linkclipref>
							<mediatype>audio</mediatype>
							<trackindex>10</trackindex>
							<clipindex>154</clipindex>
							<groupindex>1</groupindex>
						</link>
						<link>
							<linkclipref>clipitem-1168</linkclipref>
							<mediatype>audio</mediatype>
							<trackindex>11</trackindex>
							<clipindex>150</clipindex>
							<groupindex>1</groupindex>
						</link>
						<logginginfo>
							<description></description>
							<scene></scene>
							<shottake></shottake>
							<lognote></lognote>
						</logginginfo>
						<labels>
							<label2>Iris</label2>
						</labels>
					</clipitem>
					<transitionitem>
						<start>79013</start>
						<end>79026</end>
						<alignment>center</alignment>
						<cutPointTicks>60963840000</cutPointTicks>
						<rate>
							<timebase>25</timebase>
							<ntsc>FALSE</ntsc>
						</rate>
						<effect>
							<name>Cross Fade (+3dB)</name>
							<effectid>KGAudioTransCrossFade3dB</effectid>
							<effecttype>transition</effecttype>
							<mediatype>audio</mediatype>
							<wipecode>0</wipecode>
							<wipeaccuracy>100</wipeaccuracy>
							<startratio>0</startratio>
							<endratio>1</endratio>
							<reverse>FALSE</reverse>
						</effect>
					</transitionitem>
					<clipitem id="clipitem-1033" premiereChannelType="stereo">
						<masterclipid>masterclip-138</masterclipid>
						<name>Nordvisjon2MASTER_i-lyd_006.mxf</name>
						<enabled>TRUE</enabled>
						<duration>656</duration>
						<rate>
							<timebase>25</timebase>
							<ntsc>FALSE</ntsc>
						</rate>
						<start>-1</start>
						<end>-1</end>
						<in>25</in>
						<out>631</out>
						<pproTicksIn>254016000000</pproTicksIn>
						<pproTicksOut>6411363840000</pproTicksOut>
						<file id="file-138"/>
						<sourcetrack>
							<mediatype>audio</mediatype>
							<trackindex>1</trackindex>
						</sourcetrack>
						<link>
							<linkclipref>clipitem-1033</linkclipref>
							<mediatype>audio</mediatype>
							<trackindex>10</trackindex>
							<clipindex>156</clipindex>
							<groupindex>1</groupindex>
						</link>
						<link>
							<linkclipref>clipitem-1169</linkclipref>
							<mediatype>audio</mediatype>
							<trackindex>11</trackindex>
							<clipindex>152</clipindex>
							<groupindex>1</groupindex>
						</link>
						<logginginfo>
							<description></description>
							<scene></scene>
							<shottake></shottake>
							<lognote></lognote>
						</logginginfo>
						<labels>
							<label2>Iris</label2>
						</labels>
					</clipitem>
					<transitionitem>
						<start>79606</start>
						<end>79619</end>
						<alignment>center</alignment>
						<cutPointTicks>60963840000</cutPointTicks>
						<rate>
							<timebase>25</timebase>
							<ntsc>FALSE</ntsc>
						</rate>
						<effect>
							<name>Cross Fade (+3dB)</name>
							<effectid>KGAudioTransCrossFade3dB</effectid>
							<effecttype>transition</effecttype>
							<mediatype>audio</mediatype>
							<wipecode>0</wipecode>
							<wipeaccuracy>100</wipeaccuracy>
							<startratio>0</startratio>
							<endratio>1</endratio>
							<reverse>FALSE</reverse>
						</effect>
					</transitionitem>
					<clipitem id="clipitem-1034" premiereChannelType="stereo">
						<masterclipid>masterclip-139</masterclipid>
						<name>Nordvisjon2MASTER_i-lyd_003.mxf</name>
						<enabled>TRUE</enabled>
						<duration>985</duration>
						<rate>
							<timebase>25</timebase>
							<ntsc>FALSE</ntsc>
						</rate>
						<start>-1</start>
						<end>-1</end>
						<in>25</in>
						<out>960</out>
						<pproTicksIn>254016000000</pproTicksIn>
						<pproTicksOut>9754214400000</pproTicksOut>
						<file id="file-139"/>
						<sourcetrack>
							<mediatype>audio</mediatype>
							<trackindex>1</trackindex>
						</sourcetrack>
						<link>
							<linkclipref>clipitem-1034</linkclipref>
							<mediatype>audio</mediatype>
							<trackindex>10</trackindex>
							<clipindex>158</clipindex>
							<groupindex>1</groupindex>
						</link>
						<link>
							<linkclipref>clipitem-1170</linkclipref>
							<mediatype>audio</mediatype>
							<trackindex>11</trackindex>
							<clipindex>154</clipindex>
							<groupindex>1</groupindex>
						</link>
						<logginginfo>
							<description></description>
							<scene></scene>
							<shottake></shottake>
							<lognote></lognote>
						</logginginfo>
						<labels>
							<label2>Iris</label2>
						</labels>
					</clipitem>
					<transitionitem>
						<start>80528</start>
						<end>80541</end>
						<alignment>center</alignment>
						<cutPointTicks>60963840000</cutPointTicks>
						<rate>
							<timebase>25</timebase>
							<ntsc>FALSE</ntsc>
						</rate>
						<effect>
							<name>Cross Fade (+3dB)</name>
							<effectid>KGAudioTransCrossFade3dB</effectid>
							<effecttype>transition</effecttype>
							<mediatype>audio</mediatype>
							<wipecode>0</wipecode>
							<wipeaccuracy>100</wipeaccuracy>
							<startratio>0</startratio>
							<endratio>1</endratio>
							<reverse>FALSE</reverse>
						</effect>
					</transitionitem>
					<clipitem id="clipitem-1035" premiereChannelType="stereo">
						<masterclipid>masterclip-140</masterclipid>
						<name>Nordvisjon2MASTER_i-lyd_004.mxf</name>
						<enabled>TRUE</enabled>
						<duration>1678</duration>
						<rate>
							<timebase>25</timebase>
							<ntsc>FALSE</ntsc>
						</rate>
						<start>-1</start>
						<end>-1</end>
						<in>25</in>
						<out>1653</out>
						<pproTicksIn>254016000000</pproTicksIn>
						<pproTicksOut>16795537920000</pproTicksOut>
						<file id="file-140"/>
						<sourcetrack>
							<mediatype>audio</mediatype>
							<trackindex>1</trackindex>
						</sourcetrack>
						<link>
							<linkclipref>clipitem-1035</linkclipref>
							<mediatype>audio</mediatype>
							<trackindex>10</trackindex>
							<clipindex>160</clipindex>
							<groupindex>1</groupindex>
						</link>
						<link>
							<linkclipref>clipitem-1171</linkclipref>
							<mediatype>audio</mediatype>
							<trackindex>11</trackindex>
							<clipindex>156</clipindex>
							<groupindex>1</groupindex>
						</link>
						<logginginfo>
							<description></description>
							<scene></scene>
							<shottake></shottake>
							<lognote></lognote>
						</logginginfo>
						<labels>
							<label2>Iris</label2>
						</labels>
					</clipitem>
					<transitionitem>
						<start>82143</start>
						<end>82156</end>
						<alignment>center</alignment>
						<cutPointTicks>60963840000</cutPointTicks>
						<rate>
							<timebase>25</timebase>
							<ntsc>FALSE</ntsc>
						</rate>
						<effect>
							<name>Cross Fade (+3dB)</name>
							<effectid>KGAudioTransCrossFade3dB</effectid>
							<effecttype>transition</effecttype>
							<mediatype>audio</mediatype>
							<wipecode>0</wipecode>
							<wipeaccuracy>100</wipeaccuracy>
							<startratio>0</startratio>
							<endratio>1</endratio>
							<reverse>FALSE</reverse>
						</effect>
					</transitionitem>
					<clipitem id="clipitem-1036" premiereChannelType="stereo">
						<masterclipid>masterclip-141</masterclipid>
						<name>Nordvisjon2MASTER_i-lyd_005.mxf</name>
						<enabled>TRUE</enabled>
						<duration>3202</duration>
						<rate>
							<timebase>25</timebase>
							<ntsc>FALSE</ntsc>
						</rate>
						<start>-1</start>
						<end>-1</end>
						<in>25</in>
						<out>3177</out>
						<pproTicksIn>254016000000</pproTicksIn>
						<pproTicksOut>32280353280000</pproTicksOut>
						<file id="file-141"/>
						<sourcetrack>
							<mediatype>audio</mediatype>
							<trackindex>1</trackindex>
						</sourcetrack>
						<link>
							<linkclipref>clipitem-1036</linkclipref>
							<mediatype>audio</mediatype>
							<trackindex>10</trackindex>
							<clipindex>162</clipindex>
							<groupindex>1</groupindex>
						</link>
						<link>
							<linkclipref>clipitem-1172</linkclipref>
							<mediatype>audio</mediatype>
							<trackindex>11</trackindex>
							<clipindex>158</clipindex>
							<groupindex>1</groupindex>
						</link>
						<logginginfo>
							<description></description>
							<scene></scene>
							<shottake></shottake>
							<lognote></lognote>
						</logginginfo>
						<labels>
							<label2>Iris</label2>
						</labels>
					</clipitem>
					<transitionitem>
						<start>85282</start>
						<end>85295</end>
						<alignment>center</alignment>
						<cutPointTicks>60963840000</cutPointTicks>
						<rate>
							<timebase>25</timebase>
							<ntsc>FALSE</ntsc>
						</rate>
						<effect>
							<name>Cross Fade (+3dB)</name>
							<effectid>KGAudioTransCrossFade3dB</effectid>
							<effecttype>transition</effecttype>
							<mediatype>audio</mediatype>
							<wipecode>0</wipecode>
							<wipeaccuracy>100</wipeaccuracy>
							<startratio>0</startratio>
							<endratio>1</endratio>
							<reverse>FALSE</reverse>
						</effect>
					</transitionitem>
					<clipitem id="clipitem-1037" premiereChannelType="stereo">
						<masterclipid>masterclip-142</masterclipid>
						<name>Nordvisjon2MASTER_i-lyd_008.mxf</name>
						<enabled>TRUE</enabled>
						<duration>363</duration>
						<rate>
							<timebase>25</timebase>
							<ntsc>FALSE</ntsc>
						</rate>
						<start>-1</start>
						<end>-1</end>
						<in>25</in>
						<out>338</out>
						<pproTicksIn>254016000000</pproTicksIn>
						<pproTicksOut>3434296320000</pproTicksOut>
						<file id="file-142"/>
						<sourcetrack>
							<mediatype>audio</mediatype>
							<trackindex>1</trackindex>
						</sourcetrack>
						<link>
							<linkclipref>clipitem-1037</linkclipref>
							<mediatype>audio</mediatype>
							<trackindex>10</trackindex>
							<clipindex>164</clipindex>
							<groupindex>1</groupindex>
						</link>
						<link>
							<linkclipref>clipitem-1173</linkclipref>
							<mediatype>audio</mediatype>
							<trackindex>11</trackindex>
							<clipindex>160</clipindex>
							<groupindex>1</groupindex>
						</link>
						<logginginfo>
							<description></description>
							<scene></scene>
							<shottake></shottake>
							<lognote></lognote>
						</logginginfo>
						<labels>
							<label2>Iris</label2>
						</labels>
					</clipitem>
					<transitionitem>
						<start>85582</start>
						<end>85595</end>
						<alignment>center</alignment>
						<cutPointTicks>60963840000</cutPointTicks>
						<rate>
							<timebase>25</timebase>
							<ntsc>FALSE</ntsc>
						</rate>
						<effect>
							<name>Cross Fade (+3dB)</name>
							<effectid>KGAudioTransCrossFade3dB</effectid>
							<effecttype>transition</effecttype>
							<mediatype>audio</mediatype>
							<wipecode>0</wipecode>
							<wipeaccuracy>100</wipeaccuracy>
							<startratio>0</startratio>
							<endratio>1</endratio>
							<reverse>FALSE</reverse>
						</effect>
					</transitionitem>
					<clipitem id="clipitem-1038" premiereChannelType="stereo">
						<masterclipid>masterclip-136</masterclipid>
						<name>Nordvisjon2MASTER_i-lyd_011.mxf</name>
						<enabled>TRUE</enabled>
						<duration>1386</duration>
						<rate>
							<timebase>25</timebase>
							<ntsc>FALSE</ntsc>
						</rate>
						<start>-1</start>
						<end>-1</end>
						<in>971</in>
						<out>1123</out>
						<pproTicksIn>9865981440000</pproTicksIn>
						<pproTicksOut>11410398720000</pproTicksOut>
						<file id="file-136"/>
						<sourcetrack>
							<mediatype>audio</mediatype>
							<trackindex>1</trackindex>
						</sourcetrack>
						<link>
							<linkclipref>clipitem-1038</linkclipref>
							<mediatype>audio</mediatype>
							<trackindex>10</trackindex>
							<clipindex>166</clipindex>
							<groupindex>1</groupindex>
						</link>
						<link>
							<linkclipref>clipitem-1174</linkclipref>
							<mediatype>audio</mediatype>
							<trackindex>11</trackindex>
							<clipindex>162</clipindex>
							<groupindex>1</groupindex>
						</link>
						<logginginfo>
							<description></description>
							<scene></scene>
							<shottake></shottake>
							<lognote></lognote>
						</logginginfo>
						<labels>
							<label2>Iris</label2>
						</labels>
					</clipitem>
					<transitionitem>
						<start>85721</start>
						<end>85734</end>
						<alignment>center</alignment>
						<cutPointTicks>60963840000</cutPointTicks>
						<rate>
							<timebase>25</timebase>
							<ntsc>FALSE</ntsc>
						</rate>
						<effect>
							<name>Cross Fade (+3dB)</name>
							<effectid>KGAudioTransCrossFade3dB</effectid>
							<effecttype>transition</effecttype>
							<mediatype>audio</mediatype>
							<wipecode>0</wipecode>
							<wipeaccuracy>100</wipeaccuracy>
							<startratio>0</startratio>
							<endratio>1</endratio>
							<reverse>FALSE</reverse>
						</effect>
					</transitionitem>
					<clipitem id="clipitem-1039" premiereChannelType="stereo">
						<masterclipid>masterclip-143</masterclipid>
						<name>Nordvisjon2MASTER_i-lyd_010.mxf</name>
						<enabled>TRUE</enabled>
						<duration>289</duration>
						<rate>
							<timebase>25</timebase>
							<ntsc>FALSE</ntsc>
						</rate>
						<start>-1</start>
						<end>-1</end>
						<in>25</in>
						<out>271</out>
						<pproTicksIn>254016000000</pproTicksIn>
						<pproTicksOut>2753533440000</pproTicksOut>
						<file id="file-143"/>
						<sourcetrack>
							<mediatype>audio</mediatype>
							<trackindex>1</trackindex>
						</sourcetrack>
						<link>
							<linkclipref>clipitem-1039</linkclipref>
							<mediatype>audio</mediatype>
							<trackindex>10</trackindex>
							<clipindex>168</clipindex>
							<groupindex>1</groupindex>
						</link>
						<link>
							<linkclipref>clipitem-1175</linkclipref>
							<mediatype>audio</mediatype>
							<trackindex>11</trackindex>
							<clipindex>164</clipindex>
							<groupindex>1</groupindex>
						</link>
						<logginginfo>
							<description></description>
							<scene></scene>
							<shottake></shottake>
							<lognote></lognote>
						</logginginfo>
						<labels>
							<label2>Iris</label2>
						</labels>
					</clipitem>
					<transitionitem>
						<start>85954</start>
						<end>85967</end>
						<alignment>center</alignment>
						<cutPointTicks>60963840000</cutPointTicks>
						<rate>
							<timebase>25</timebase>
							<ntsc>FALSE</ntsc>
						</rate>
						<effect>
							<name>Cross Fade (+3dB)</name>
							<effectid>KGAudioTransCrossFade3dB</effectid>
							<effecttype>transition</effecttype>
							<mediatype>audio</mediatype>
							<wipecode>0</wipecode>
							<wipeaccuracy>100</wipeaccuracy>
							<startratio>0</startratio>
							<endratio>1</endratio>
							<reverse>FALSE</reverse>
						</effect>
					</transitionitem>
					<clipitem id="clipitem-1040" premiereChannelType="stereo">
						<masterclipid>masterclip-144</masterclipid>
						<name>Nordvisjon2MASTER_i-lyd_007.mxf</name>
						<enabled>TRUE</enabled>
						<duration>2723</duration>
						<rate>
							<timebase>25</timebase>
							<ntsc>FALSE</ntsc>
						</rate>
						<start>-1</start>
						<end>-1</end>
						<in>68</in>
						<out>2698</out>
						<pproTicksIn>690923520000</pproTicksIn>
						<pproTicksOut>27413406720000</pproTicksOut>
						<file id="file-144"/>
						<sourcetrack>
							<mediatype>audio</mediatype>
							<trackindex>1</trackindex>
						</sourcetrack>
						<link>
							<linkclipref>clipitem-1040</linkclipref>
							<mediatype>audio</mediatype>
							<trackindex>10</trackindex>
							<clipindex>170</clipindex>
							<groupindex>1</groupindex>
						</link>
						<link>
							<linkclipref>clipitem-1176</linkclipref>
							<mediatype>audio</mediatype>
							<trackindex>11</trackindex>
							<clipindex>166</clipindex>
							<groupindex>1</groupindex>
						</link>
						<logginginfo>
							<description></description>
							<scene></scene>
							<shottake></shottake>
							<lognote></lognote>
						</logginginfo>
						<labels>
							<label2>Iris</label2>
						</labels>
					</clipitem>
					<transitionitem>
						<start>88571</start>
						<end>88584</end>
						<alignment>center</alignment>
						<cutPointTicks>60963840000</cutPointTicks>
						<rate>
							<timebase>25</timebase>
							<ntsc>FALSE</ntsc>
						</rate>
						<effect>
							<name>Cross Fade (+3dB)</name>
							<effectid>KGAudioTransCrossFade3dB</effectid>
							<effecttype>transition</effecttype>
							<mediatype>audio</mediatype>
							<wipecode>0</wipecode>
							<wipeaccuracy>100</wipeaccuracy>
							<startratio>0</startratio>
							<endratio>1</endratio>
							<reverse>FALSE</reverse>
						</effect>
					</transitionitem>
					<clipitem id="clipitem-1041" premiereChannelType="stereo">
						<masterclipid>masterclip-145</masterclipid>
						<name>Nordvisjon2MASTER_i-lyd_009.mxf</name>
						<enabled>TRUE</enabled>
						<duration>380</duration>
						<rate>
							<timebase>25</timebase>
							<ntsc>FALSE</ntsc>
						</rate>
						<start>-1</start>
						<end>-1</end>
						<in>25</in>
						<out>248</out>
						<pproTicksIn>254016000000</pproTicksIn>
						<pproTicksOut>2519838720000</pproTicksOut>
						<file id="file-145"/>
						<sourcetrack>
							<mediatype>audio</mediatype>
							<trackindex>1</trackindex>
						</sourcetrack>
						<link>
							<linkclipref>clipitem-1041</linkclipref>
							<mediatype>audio</mediatype>
							<trackindex>10</trackindex>
							<clipindex>172</clipindex>
							<groupindex>1</groupindex>
						</link>
						<link>
							<linkclipref>clipitem-1177</linkclipref>
							<mediatype>audio</mediatype>
							<trackindex>11</trackindex>
							<clipindex>168</clipindex>
							<groupindex>1</groupindex>
						</link>
						<logginginfo>
							<description></description>
							<scene></scene>
							<shottake></shottake>
							<lognote></lognote>
						</logginginfo>
						<labels>
							<label2>Iris</label2>
						</labels>
					</clipitem>
					<transitionitem>
						<start>88781</start>
						<end>88794</end>
						<alignment>center</alignment>
						<cutPointTicks>60963840000</cutPointTicks>
						<rate>
							<timebase>25</timebase>
							<ntsc>FALSE</ntsc>
						</rate>
						<effect>
							<name>Cross Fade (+3dB)</name>
							<effectid>KGAudioTransCrossFade3dB</effectid>
							<effecttype>transition</effecttype>
							<mediatype>audio</mediatype>
							<wipecode>0</wipecode>
							<wipeaccuracy>100</wipeaccuracy>
							<startratio>0</startratio>
							<endratio>1</endratio>
							<reverse>FALSE</reverse>
						</effect>
					</transitionitem>
					<clipitem id="clipitem-1042" premiereChannelType="stereo">
						<masterclipid>masterclip-136</masterclipid>
						<name>Nordvisjon2MASTER_i-lyd_011.mxf</name>
						<enabled>TRUE</enabled>
						<duration>1386</duration>
						<rate>
							<timebase>25</timebase>
							<ntsc>FALSE</ntsc>
						</rate>
						<start>-1</start>
						<end>-1</end>
						<in>811</in>
						<out>1361</out>
						<pproTicksIn>8240279040000</pproTicksIn>
						<pproTicksOut>13828631040000</pproTicksOut>
						<file id="file-136"/>
						<sourcetrack>
							<mediatype>audio</mediatype>
							<trackindex>1</trackindex>
						</sourcetrack>
						<link>
							<linkclipref>clipitem-1042</linkclipref>
							<mediatype>audio</mediatype>
							<trackindex>10</trackindex>
							<clipindex>174</clipindex>
							<groupindex>1</groupindex>
						</link>
						<link>
							<linkclipref>clipitem-1178</linkclipref>
							<mediatype>audio</mediatype>
							<trackindex>11</trackindex>
							<clipindex>170</clipindex>
							<groupindex>1</groupindex>
						</link>
						<logginginfo>
							<description></description>
							<scene></scene>
							<shottake></shottake>
							<lognote></lognote>
						</logginginfo>
						<labels>
							<label2>Iris</label2>
						</labels>
					</clipitem>
					<transitionitem>
						<start>89318</start>
						<end>89331</end>
						<alignment>end-black</alignment>
						<cutPointTicks>132088320000</cutPointTicks>
						<rate>
							<timebase>25</timebase>
							<ntsc>FALSE</ntsc>
						</rate>
						<effect>
							<name>Cross Fade (+3dB)</name>
							<effectid>KGAudioTransCrossFade3dB</effectid>
							<effecttype>transition</effecttype>
							<mediatype>audio</mediatype>
							<wipecode>0</wipecode>
							<wipeaccuracy>100</wipeaccuracy>
							<startratio>0</startratio>
							<endratio>1</endratio>
							<reverse>FALSE</reverse>
						</effect>
					</transitionitem>
					<transitionitem>
						<start>91951</start>
						<end>91964</end>
						<alignment>start-black</alignment>
						<cutPointTicks>0</cutPointTicks>
						<rate>
							<timebase>25</timebase>
							<ntsc>FALSE</ntsc>
						</rate>
						<effect>
							<name>Cross Fade (+3dB)</name>
							<effectid>KGAudioTransCrossFade3dB</effectid>
							<effecttype>transition</effecttype>
							<mediatype>audio</mediatype>
							<wipecode>0</wipecode>
							<wipeaccuracy>100</wipeaccuracy>
							<startratio>0</startratio>
							<endratio>1</endratio>
							<reverse>FALSE</reverse>
						</effect>
					</transitionitem>
					<clipitem id="clipitem-1043" premiereChannelType="stereo">
						<masterclipid>masterclip-323</masterclipid>
						<name>Nordvisjon3MASTER musikk.wav</name>
						<enabled>TRUE</enabled>
						<duration>43207</duration>
						<rate>
							<timebase>25</timebase>
							<ntsc>FALSE</ntsc>
						</rate>
						<start>-1</start>
						<end>-1</end>
						<in>5892</in>
						<out>6029</out>
						<pproTicksIn>59866490880000</pproTicksIn>
						<pproTicksOut>61258498560000</pproTicksOut>
						<file id="file-323">
							<name>Nordvisjon3MASTER musikk.wav</name>
							<pathurl>file://localhost/Volumes/Vaagen/Utveksling/Natur/Naturlig%20helaften%20fra%20Oslo/Transcoded_Nedklipp%20helaften/Nordvisjon3MASTER%20musikk.wav</pathurl>
							<rate>
								<timebase>30</timebase>
								<ntsc>TRUE</ntsc>
							</rate>
							<duration>51796</duration>
							<timecode>
								<rate>
									<timebase>30</timebase>
									<ntsc>TRUE</ntsc>
								</rate>
								<string>00;00;00;00</string>
								<frame>0</frame>
								<displayformat>DF</displayformat>
								<reel>
									<name></name>
								</reel>
							</timecode>
							<media>
								<audio>
									<samplecharacteristics>
										<depth>16</depth>
										<samplerate>48000</samplerate>
									</samplecharacteristics>
									<channelcount>2</channelcount>
								</audio>
							</media>
						</file>
						<sourcetrack>
							<mediatype>audio</mediatype>
							<trackindex>1</trackindex>
						</sourcetrack>
						<link>
							<linkclipref>clipitem-1043</linkclipref>
							<mediatype>audio</mediatype>
							<trackindex>10</trackindex>
							<clipindex>177</clipindex>
							<groupindex>1</groupindex>
						</link>
						<link>
							<linkclipref>clipitem-1179</linkclipref>
							<mediatype>audio</mediatype>
							<trackindex>11</trackindex>
							<clipindex>173</clipindex>
							<groupindex>1</groupindex>
						</link>
						<logginginfo>
							<description></description>
							<scene></scene>
							<shottake></shottake>
							<lognote></lognote>
						</logginginfo>
						<labels>
							<label2>Iris</label2>
						</labels>
					</clipitem>
					<transitionitem>
						<start>92075</start>
						<end>92088</end>
						<alignment>end-black</alignment>
						<cutPointTicks>132088320000</cutPointTicks>
						<rate>
							<timebase>25</timebase>
							<ntsc>FALSE</ntsc>
						</rate>
						<effect>
							<name>Cross Fade (+3dB)</name>
							<effectid>KGAudioTransCrossFade3dB</effectid>
							<effecttype>transition</effecttype>
							<mediatype>audio</mediatype>
							<wipecode>0</wipecode>
							<wipeaccuracy>100</wipeaccuracy>
							<startratio>0</startratio>
							<endratio>1</endratio>
							<reverse>FALSE</reverse>
						</effect>
					</transitionitem>
					<transitionitem>
						<start>93071</start>
						<end>93084</end>
						<alignment>start-black</alignment>
						<cutPointTicks>0</cutPointTicks>
						<rate>
							<timebase>25</timebase>
							<ntsc>FALSE</ntsc>
						</rate>
						<effect>
							<name>Cross Fade (+3dB)</name>
							<effectid>KGAudioTransCrossFade3dB</effectid>
							<effecttype>transition</effecttype>
							<mediatype>audio</mediatype>
							<wipecode>0</wipecode>
							<wipeaccuracy>100</wipeaccuracy>
							<startratio>0</startratio>
							<endratio>1</endratio>
							<reverse>FALSE</reverse>
						</effect>
					</transitionitem>
					<clipitem id="clipitem-1044" premiereChannelType="stereo">
						<masterclipid>masterclip-316</masterclipid>
						<name>Nordvisjon-MASTER-vr3-201016-ny-kontentum.wav</name>
						<enabled>TRUE</enabled>
						<duration>43013</duration>
						<rate>
							<timebase>25</timebase>
							<ntsc>FALSE</ntsc>
						</rate>
						<start>-1</start>
						<end>-1</end>
						<in>40361</in>
						<out>40470</out>
						<pproTicksIn>410093591040000</pproTicksIn>
						<pproTicksOut>411201100800000</pproTicksOut>
						<file id="file-316"/>
						<sourcetrack>
							<mediatype>audio</mediatype>
							<trackindex>1</trackindex>
						</sourcetrack>
							<marker>
								<comment></comment>
								<name></name>
								<in>40399</in>
								<out>-1</out>
							</marker>
							<marker>
								<comment></comment>
								<name></name>
								<in>3092</in>
								<out>-1</out>
							</marker>
							<marker>
								<comment></comment>
								<name></name>
								<in>36054</in>
								<out>-1</out>
							</marker>
							<marker>
								<comment></comment>
								<name></name>
								<in>0</in>
								<out>-1</out>
							</marker>
						<link>
							<linkclipref>clipitem-1044</linkclipref>
							<mediatype>audio</mediatype>
							<trackindex>10</trackindex>
							<clipindex>180</clipindex>
							<groupindex>1</groupindex>
						</link>
						<link>
							<linkclipref>clipitem-1180</linkclipref>
							<mediatype>audio</mediatype>
							<trackindex>11</trackindex>
							<clipindex>176</clipindex>
							<groupindex>1</groupindex>
						</link>
						<logginginfo>
							<description></description>
							<scene></scene>
							<shottake></shottake>
							<lognote></lognote>
						</logginginfo>
						<labels>
							<label2>Iris</label2>
						</labels>
					</clipitem>
					<transitionitem>
						<start>93168</start>
						<end>93180</end>
						<alignment>center</alignment>
						<cutPointTicks>60963840000</cutPointTicks>
						<rate>
							<timebase>25</timebase>
							<ntsc>FALSE</ntsc>
						</rate>
						<effect>
							<name>Cross Fade (+3dB)</name>
							<effectid>KGAudioTransCrossFade3dB</effectid>
							<effecttype>transition</effecttype>
							<mediatype>audio</mediatype>
							<wipecode>0</wipecode>
							<wipeaccuracy>100</wipeaccuracy>
							<startratio>0</startratio>
							<endratio>1</endratio>
							<reverse>FALSE</reverse>
						</effect>
					</transitionitem>
					<clipitem id="clipitem-1045" premiereChannelType="stereo">
						<masterclipid>masterclip-316</masterclipid>
						<name>Nordvisjon-MASTER-vr3-201016-ny-kontentum.wav</name>
						<enabled>TRUE</enabled>
						<duration>43013</duration>
						<rate>
							<timebase>25</timebase>
							<ntsc>FALSE</ntsc>
						</rate>
						<start>-1</start>
						<end>-1</end>
						<in>40051</in>
						<out>40142</out>
						<pproTicksIn>406943792640000</pproTicksIn>
						<pproTicksOut>407868410880000</pproTicksOut>
						<file id="file-316"/>
						<sourcetrack>
							<mediatype>audio</mediatype>
							<trackindex>1</trackindex>
						</sourcetrack>
							<marker>
								<comment></comment>
								<name></name>
								<in>40399</in>
								<out>-1</out>
							</marker>
							<marker>
								<comment></comment>
								<name></name>
								<in>3092</in>
								<out>-1</out>
							</marker>
							<marker>
								<comment></comment>
								<name></name>
								<in>36054</in>
								<out>-1</out>
							</marker>
							<marker>
								<comment></comment>
								<name></name>
								<in>0</in>
								<out>-1</out>
							</marker>
						<link>
							<linkclipref>clipitem-1045</linkclipref>
							<mediatype>audio</mediatype>
							<trackindex>10</trackindex>
							<clipindex>182</clipindex>
							<groupindex>1</groupindex>
						</link>
						<link>
							<linkclipref>clipitem-1181</linkclipref>
							<mediatype>audio</mediatype>
							<trackindex>11</trackindex>
							<clipindex>178</clipindex>
							<groupindex>1</groupindex>
						</link>
						<logginginfo>
							<description></description>
							<scene></scene>
							<shottake></shottake>
							<lognote></lognote>
						</logginginfo>
						<labels>
							<label2>Iris</label2>
						</labels>
					</clipitem>
					<transitionitem>
						<start>93247</start>
						<end>93259</end>
						<alignment>center</alignment>
						<cutPointTicks>60963840000</cutPointTicks>
						<rate>
							<timebase>25</timebase>
							<ntsc>FALSE</ntsc>
						</rate>
						<effect>
							<name>Cross Fade (+3dB)</name>
							<effectid>KGAudioTransCrossFade3dB</effectid>
							<effecttype>transition</effecttype>
							<mediatype>audio</mediatype>
							<wipecode>0</wipecode>
							<wipeaccuracy>100</wipeaccuracy>
							<startratio>0</startratio>
							<endratio>1</endratio>
							<reverse>FALSE</reverse>
						</effect>
					</transitionitem>
					<clipitem id="clipitem-1046" premiereChannelType="stereo">
						<masterclipid>masterclip-316</masterclipid>
						<name>Nordvisjon-MASTER-vr3-201016-ny-kontentum.wav</name>
						<enabled>TRUE</enabled>
						<duration>43013</duration>
						<rate>
							<timebase>25</timebase>
							<ntsc>FALSE</ntsc>
						</rate>
						<start>-1</start>
						<end>-1</end>
						<in>40843</in>
						<out>42119</out>
						<pproTicksIn>414991019520000</pproTicksIn>
						<pproTicksOut>427955996160000</pproTicksOut>
						<file id="file-316"/>
						<sourcetrack>
							<mediatype>audio</mediatype>
							<trackindex>1</trackindex>
						</sourcetrack>
							<marker>
								<comment></comment>
								<name></name>
								<in>40399</in>
								<out>-1</out>
							</marker>
							<marker>
								<comment></comment>
								<name></name>
								<in>3092</in>
								<out>-1</out>
							</marker>
							<marker>
								<comment></comment>
								<name></name>
								<in>36054</in>
								<out>-1</out>
							</marker>
							<marker>
								<comment></comment>
								<name></name>
								<in>0</in>
								<out>-1</out>
							</marker>
						<link>
							<linkclipref>clipitem-1046</linkclipref>
							<mediatype>audio</mediatype>
							<trackindex>10</trackindex>
							<clipindex>184</clipindex>
							<groupindex>1</groupindex>
						</link>
						<link>
							<linkclipref>clipitem-1182</linkclipref>
							<mediatype>audio</mediatype>
							<trackindex>11</trackindex>
							<clipindex>180</clipindex>
							<groupindex>1</groupindex>
						</link>
						<logginginfo>
							<description></description>
							<scene></scene>
							<shottake></shottake>
							<lognote></lognote>
						</logginginfo>
						<labels>
							<label2>Iris</label2>
						</labels>
					</clipitem>
					<transitionitem>
						<start>94510</start>
						<end>94523</end>
						<alignment>end-black</alignment>
						<cutPointTicks>132088320000</cutPointTicks>
						<rate>
							<timebase>25</timebase>
							<ntsc>FALSE</ntsc>
						</rate>
						<effect>
							<name>Cross Fade (+3dB)</name>
							<effectid>KGAudioTransCrossFade3dB</effectid>
							<effecttype>transition</effecttype>
							<mediatype>audio</mediatype>
							<wipecode>0</wipecode>
							<wipeaccuracy>100</wipeaccuracy>
							<startratio>0</startratio>
							<endratio>1</endratio>
							<reverse>FALSE</reverse>
						</effect>
					</transitionitem>
					<transitionitem>
						<start>95251</start>
						<end>95264</end>
						<alignment>start-black</alignment>
						<cutPointTicks>0</cutPointTicks>
						<rate>
							<timebase>25</timebase>
							<ntsc>FALSE</ntsc>
						</rate>
						<effect>
							<name>Cross Fade (+3dB)</name>
							<effectid>KGAudioTransCrossFade3dB</effectid>
							<effecttype>transition</effecttype>
							<mediatype>audio</mediatype>
							<wipecode>0</wipecode>
							<wipeaccuracy>100</wipeaccuracy>
							<startratio>0</startratio>
							<endratio>1</endratio>
							<reverse>FALSE</reverse>
						</effect>
					</transitionitem>
					<clipitem id="clipitem-1047" premiereChannelType="stereo">
						<masterclipid>masterclip-318</masterclipid>
						<name>Nordvisjon3MASTER kommentar.wav</name>
						<enabled>TRUE</enabled>
						<duration>42413</duration>
						<rate>
							<timebase>25</timebase>
							<ntsc>FALSE</ntsc>
						</rate>
						<start>-1</start>
						<end>-1</end>
						<in>7243</in>
						<out>7954</out>
						<pproTicksIn>73593515520000</pproTicksIn>
						<pproTicksOut>80817730560000</pproTicksOut>
						<file id="file-318"/>
						<sourcetrack>
							<mediatype>audio</mediatype>
							<trackindex>1</trackindex>
						</sourcetrack>
						<link>
							<linkclipref>clipitem-1047</linkclipref>
							<mediatype>audio</mediatype>
							<trackindex>10</trackindex>
							<clipindex>187</clipindex>
							<groupindex>1</groupindex>
						</link>
						<link>
							<linkclipref>clipitem-1183</linkclipref>
							<mediatype>audio</mediatype>
							<trackindex>11</trackindex>
							<clipindex>183</clipindex>
							<groupindex>1</groupindex>
						</link>
						<logginginfo>
							<description></description>
							<scene></scene>
							<shottake></shottake>
							<lognote></lognote>
						</logginginfo>
						<labels>
							<label2>Iris</label2>
						</labels>
					</clipitem>
					<transitionitem>
						<start>95949</start>
						<end>95962</end>
						<alignment>end-black</alignment>
						<cutPointTicks>132088320000</cutPointTicks>
						<rate>
							<timebase>25</timebase>
							<ntsc>FALSE</ntsc>
						</rate>
						<effect>
							<name>Cross Fade (+3dB)</name>
							<effectid>KGAudioTransCrossFade3dB</effectid>
							<effecttype>transition</effecttype>
							<mediatype>audio</mediatype>
							<wipecode>0</wipecode>
							<wipeaccuracy>100</wipeaccuracy>
							<startratio>0</startratio>
							<endratio>1</endratio>
							<reverse>FALSE</reverse>
						</effect>
					</transitionitem>
					<clipitem id="clipitem-1048" premiereChannelType="stereo">
						<masterclipid>masterclip-324</masterclipid>
						<name>MASTER starten av  Lyden av natur  28 nov NY.wav</name>
						<enabled>TRUE</enabled>
						<duration>18529</duration>
						<rate>
							<timebase>25</timebase>
							<ntsc>FALSE</ntsc>
						</rate>
						<start>101840</start>
						<end>102301</end>
						<in>3379</in>
						<out>3840</out>
						<pproTicksIn>34332802560000</pproTicksIn>
						<pproTicksOut>39016857600000</pproTicksOut>
						<file id="file-324">
							<name>MASTER starten av  Lyden av natur  28 nov NY.wav</name>
							<pathurl>file://localhost/Volumes/Svartediket/Prosjekter/DVNA600216_HELAFTEN2016_FAL_010217/Video/Lyden%20av%20natur%20Trailer%20x2/Transcoded_%20Lyden%20av%20natur%20-161121/MASTER%20starten%20av%20%20Lyden%20av%20natur%20%2028%20nov%20NY.wav</pathurl>
							<rate>
								<timebase>30</timebase>
								<ntsc>TRUE</ntsc>
							</rate>
							<duration>22213</duration>
							<timecode>
								<rate>
									<timebase>30</timebase>
									<ntsc>TRUE</ntsc>
								</rate>
								<string>00;00;00;00</string>
								<frame>0</frame>
								<displayformat>DF</displayformat>
								<reel>
									<name></name>
								</reel>
							</timecode>
							<media>
								<audio>
									<samplecharacteristics>
										<depth>16</depth>
										<samplerate>48000</samplerate>
									</samplecharacteristics>
									<channelcount>2</channelcount>
								</audio>
							</media>
						</file>
						<sourcetrack>
							<mediatype>audio</mediatype>
							<trackindex>1</trackindex>
						</sourcetrack>
							<filter>
								<effect>
									<name>Audio Levels</name>
									<effectid>audiolevels</effectid>
									<effectcategory>audiolevels</effectcategory>
									<effecttype>audiolevels</effecttype>
									<mediatype>audio</mediatype>
									<parameter authoringApp="PremierePro">
										<parameterid>level</parameterid>
										<name>Level</name>
										<valuemin>0</valuemin>
										<valuemax>3.98109</valuemax>
										<value>0.99763</value>
										<keyframe>
											<when>3395</when>
											<value>0</value>
										</keyframe>
										<keyframe>
											<when>3423</when>
											<value>0.99763</value>
										</keyframe>
									</parameter>
								</effect>
							</filter>
						<link>
							<linkclipref>clipitem-1048</linkclipref>
							<mediatype>audio</mediatype>
							<trackindex>10</trackindex>
							<clipindex>189</clipindex>
							<groupindex>1</groupindex>
						</link>
						<link>
							<linkclipref>clipitem-1184</linkclipref>
							<mediatype>audio</mediatype>
							<trackindex>11</trackindex>
							<clipindex>185</clipindex>
							<groupindex>1</groupindex>
						</link>
						<logginginfo>
							<description></description>
							<scene></scene>
							<shottake></shottake>
							<lognote></lognote>
						</logginginfo>
						<labels>
							<label2>Caribbean</label2>
						</labels>
					</clipitem>
					<clipitem id="clipitem-1049" premiereChannelType="stereo">
						<masterclipid>masterclip-324</masterclipid>
						<name>MASTER starten av  Lyden av natur  28 nov NY.wav</name>
						<enabled>TRUE</enabled>
						<duration>18529</duration>
						<rate>
							<timebase>25</timebase>
							<ntsc>FALSE</ntsc>
						</rate>
						<start>102301</start>
						<end>103496</end>
						<in>1900</in>
						<out>3095</out>
						<pproTicksIn>19305216000000</pproTicksIn>
						<pproTicksOut>31447180800000</pproTicksOut>
						<file id="file-324"/>
						<sourcetrack>
							<mediatype>audio</mediatype>
							<trackindex>1</trackindex>
						</sourcetrack>
							<filter>
								<effect>
									<name>Audio Levels</name>
									<effectid>audiolevels</effectid>
									<effectcategory>audiolevels</effectcategory>
									<effecttype>audiolevels</effecttype>
									<mediatype>audio</mediatype>
									<parameter authoringApp="PremierePro">
										<parameterid>level</parameterid>
										<name>Level</name>
										<valuemin>0</valuemin>
										<valuemax>3.98109</valuemax>
										<value>0.99763</value>
										<keyframe>
											<when>2900</when>
											<value>0.99763</value>
										</keyframe>
										<keyframe>
											<when>2945</when>
											<value>0.895202</value>
										</keyframe>
										<keyframe>
											<when>2972</when>
											<value>0.578993</value>
										</keyframe>
										<keyframe>
											<when>2997</when>
											<value>0.240422</value>
										</keyframe>
										<keyframe>
											<when>3017</when>
											<value>0.0726505</value>
										</keyframe>
										<keyframe>
											<when>3081</when>
											<value>0</value>
										</keyframe>
										<keyframe>
											<when>3095</when>
											<value>0</value>
										</keyframe>
									</parameter>
								</effect>
							</filter>
						<link>
							<linkclipref>clipitem-1049</linkclipref>
							<mediatype>audio</mediatype>
							<trackindex>10</trackindex>
							<clipindex>190</clipindex>
							<groupindex>1</groupindex>
						</link>
						<link>
							<linkclipref>clipitem-1185</linkclipref>
							<mediatype>audio</mediatype>
							<trackindex>11</trackindex>
							<clipindex>186</clipindex>
							<groupindex>1</groupindex>
						</link>
						<logginginfo>
							<description></description>
							<scene></scene>
							<shottake></shottake>
							<lognote></lognote>
						</logginginfo>
						<labels>
							<label2>Caribbean</label2>
						</labels>
					</clipitem>
					<enabled>TRUE</enabled>
					<locked>FALSE</locked>
					<outputchannelindex>1</outputchannelindex>
				</track>
				<track TL.SQTrackAudioKeyframeStyle="0" TL.SQTrackShy="0" TL.SQTrackExpandedHeight="58" TL.SQTrackExpanded="1" MZ.TrackTargeted="1" PannerCurrentValue="0.5" PannerIsInverted="true" PannerStartKeyframe="-91445760000000000,0.5,0,0,0,0,0,0" PannerName="Balance" currentExplodedTrackIndex="1" totalExplodedTrackCount="2" premiereTrackType="Stereo">
					<clipitem id="clipitem-1050" premiereChannelType="stereo">
						<masterclipid>masterclip-10</masterclipid>
						<name>AA260901.MXF</name>
						<enabled>TRUE</enabled>
						<duration>1164</duration>
						<rate>
							<timebase>25</timebase>
							<ntsc>FALSE</ntsc>
						</rate>
						<start>506</start>
						<end>-1</end>
						<in>144</in>
						<out>492</out>
						<pproTicksIn>1463132160000</pproTicksIn>
						<pproTicksOut>4999034880000</pproTicksOut>
						<file id="file-10"/>
						<sourcetrack>
							<mediatype>audio</mediatype>
							<trackindex>2</trackindex>
						</sourcetrack>
							<filter>
								<effect>
									<name>Audio Levels</name>
									<effectid>audiolevels</effectid>
									<effectcategory>audiolevels</effectcategory>
									<effecttype>audiolevels</effecttype>
									<mediatype>audio</mediatype>
									<parameter authoringApp="PremierePro">
										<parameterid>level</parameterid>
										<name>Level</name>
										<valuemin>0</valuemin>
										<valuemax>3.98109</valuemax>
										<value>0.99763</value>
										<keyframe>
											<when>157</when>
											<value>0</value>
										</keyframe>
										<keyframe>
											<when>180</when>
											<value>0.99763</value>
										</keyframe>
									</parameter>
								</effect>
							</filter>
						<link>
							<linkclipref>clipitem-910</linkclipref>
							<mediatype>audio</mediatype>
							<trackindex>10</trackindex>
							<clipindex>1</clipindex>
							<groupindex>1</groupindex>
						</link>
						<link>
							<linkclipref>clipitem-1050</linkclipref>
							<mediatype>audio</mediatype>
							<trackindex>11</trackindex>
							<clipindex>1</clipindex>
							<groupindex>1</groupindex>
						</link>
						<logginginfo>
							<description></description>
							<scene></scene>
							<shottake></shottake>
							<lognote></lognote>
						</logginginfo>
						<labels>
							<label2>Iris</label2>
						</labels>
					</clipitem>
					<transitionitem>
						<start>841</start>
						<end>854</end>
						<alignment>center</alignment>
						<cutPointTicks>60963840000</cutPointTicks>
						<rate>
							<timebase>25</timebase>
							<ntsc>FALSE</ntsc>
						</rate>
						<effect>
							<name>Cross Fade (+3dB)</name>
							<effectid>KGAudioTransCrossFade3dB</effectid>
							<effecttype>transition</effecttype>
							<mediatype>audio</mediatype>
							<wipecode>0</wipecode>
							<wipeaccuracy>100</wipeaccuracy>
							<startratio>0</startratio>
							<endratio>1</endratio>
							<reverse>FALSE</reverse>
						</effect>
					</transitionitem>
					<clipitem id="clipitem-1051" premiereChannelType="stereo">
						<masterclipid>masterclip-10</masterclipid>
						<name>AA260901.MXF</name>
						<enabled>TRUE</enabled>
						<duration>1164</duration>
						<rate>
							<timebase>25</timebase>
							<ntsc>FALSE</ntsc>
						</rate>
						<start>-1</start>
						<end>1203</end>
						<in>646</in>
						<out>1008</out>
						<pproTicksIn>6563773440000</pproTicksIn>
						<pproTicksOut>10241925120000</pproTicksOut>
						<file id="file-10"/>
						<sourcetrack>
							<mediatype>audio</mediatype>
							<trackindex>2</trackindex>
						</sourcetrack>
							<filter>
								<effect>
									<name>Audio Levels</name>
									<effectid>audiolevels</effectid>
									<effectcategory>audiolevels</effectcategory>
									<effecttype>audiolevels</effecttype>
									<mediatype>audio</mediatype>
									<parameter authoringApp="PremierePro">
										<parameterid>level</parameterid>
										<name>Level</name>
										<valuemin>0</valuemin>
										<valuemax>3.98109</valuemax>
										<value>0.99763</value>
										<keyframe>
											<when>157</when>
											<value>0</value>
										</keyframe>
										<keyframe>
											<when>180</when>
											<value>0.99763</value>
										</keyframe>
									</parameter>
								</effect>
							</filter>
						<link>
							<linkclipref>clipitem-911</linkclipref>
							<mediatype>audio</mediatype>
							<trackindex>10</trackindex>
							<clipindex>3</clipindex>
							<groupindex>1</groupindex>
						</link>
						<link>
							<linkclipref>clipitem-1051</linkclipref>
							<mediatype>audio</mediatype>
							<trackindex>11</trackindex>
							<clipindex>3</clipindex>
							<groupindex>1</groupindex>
						</link>
						<logginginfo>
							<description></description>
							<scene></scene>
							<shottake></shottake>
							<lognote></lognote>
						</logginginfo>
						<labels>
							<label2>Iris</label2>
						</labels>
					</clipitem>
					<clipitem id="clipitem-1052" premiereChannelType="stereo">
						<masterclipid>masterclip-13</masterclipid>
						<name>Nordvisjon3MASTER i-lyd.mxf</name>
						<enabled>TRUE</enabled>
						<duration>712</duration>
						<rate>
							<timebase>25</timebase>
							<ntsc>FALSE</ntsc>
						</rate>
						<start>1960</start>
						<end>2122</end>
						<in>194</in>
						<out>356</out>
						<pproTicksIn>1971164160000</pproTicksIn>
						<pproTicksOut>3617187840000</pproTicksOut>
						<file id="file-13"/>
						<sourcetrack>
							<mediatype>audio</mediatype>
							<trackindex>2</trackindex>
						</sourcetrack>
							<filter>
								<effect>
									<name>Audio Levels</name>
									<effectid>audiolevels</effectid>
									<effectcategory>audiolevels</effectcategory>
									<effecttype>audiolevels</effecttype>
									<mediatype>audio</mediatype>
									<parameter authoringApp="PremierePro">
										<parameterid>level</parameterid>
										<name>Level</name>
										<valuemin>0</valuemin>
										<valuemax>3.98109</valuemax>
										<value>0.332543</value>
										<keyframe>
											<when>194</when>
											<value>0</value>
										</keyframe>
										<keyframe>
											<when>218</when>
											<value>0.502642</value>
										</keyframe>
										<keyframe>
											<when>305</when>
											<value>0.502642</value>
										</keyframe>
										<keyframe>
											<when>326</when>
											<value>0</value>
										</keyframe>
										<keyframe>
											<when>566</when>
											<value>0.737379</value>
										</keyframe>
										<keyframe>
											<when>598</when>
											<value>0.332543</value>
										</keyframe>
									</parameter>
								</effect>
							</filter>
						<link>
							<linkclipref>clipitem-912</linkclipref>
							<mediatype>audio</mediatype>
							<trackindex>10</trackindex>
							<clipindex>4</clipindex>
							<groupindex>1</groupindex>
						</link>
						<link>
							<linkclipref>clipitem-1052</linkclipref>
							<mediatype>audio</mediatype>
							<trackindex>11</trackindex>
							<clipindex>4</clipindex>
							<groupindex>1</groupindex>
						</link>
						<logginginfo>
							<description></description>
							<scene></scene>
							<shottake></shottake>
							<lognote></lognote>
						</logginginfo>
						<labels>
							<label2>Iris</label2>
						</labels>
					</clipitem>
					<clipitem id="clipitem-1053" premiereChannelType="stereo">
						<masterclipid>masterclip-23</masterclipid>
						<name>AA262501.MXF</name>
						<enabled>TRUE</enabled>
						<duration>1800</duration>
						<rate>
							<timebase>25</timebase>
							<ntsc>FALSE</ntsc>
						</rate>
						<start>3396</start>
						<end>-1</end>
						<in>459</in>
						<out>600</out>
						<pproTicksIn>4663733760000</pproTicksIn>
						<pproTicksOut>6096384000000</pproTicksOut>
						<file id="file-23"/>
						<sourcetrack>
							<mediatype>audio</mediatype>
							<trackindex>2</trackindex>
						</sourcetrack>
						<link>
							<linkclipref>clipitem-913</linkclipref>
							<mediatype>audio</mediatype>
							<trackindex>10</trackindex>
							<clipindex>5</clipindex>
							<groupindex>1</groupindex>
						</link>
						<link>
							<linkclipref>clipitem-1053</linkclipref>
							<mediatype>audio</mediatype>
							<trackindex>11</trackindex>
							<clipindex>5</clipindex>
							<groupindex>1</groupindex>
						</link>
						<logginginfo>
							<description></description>
							<scene></scene>
							<shottake></shottake>
							<lognote></lognote>
						</logginginfo>
						<labels>
							<label2>Iris</label2>
						</labels>
					</clipitem>
					<transitionitem>
						<start>3533</start>
						<end>3537</end>
						<alignment>end-black</alignment>
						<cutPointTicks>40642560000</cutPointTicks>
						<rate>
							<timebase>25</timebase>
							<ntsc>FALSE</ntsc>
						</rate>
						<effect>
							<name>Cross Fade (+3dB)</name>
							<effectid>KGAudioTransCrossFade3dB</effectid>
							<effecttype>transition</effecttype>
							<mediatype>audio</mediatype>
							<wipecode>0</wipecode>
							<wipeaccuracy>100</wipeaccuracy>
							<startratio>0</startratio>
							<endratio>1</endratio>
							<reverse>FALSE</reverse>
						</effect>
					</transitionitem>
					<clipitem id="clipitem-1054" premiereChannelType="stereo">
						<masterclipid>masterclip-25</masterclipid>
						<name>AA262801.MXF</name>
						<enabled>TRUE</enabled>
						<duration>3660</duration>
						<rate>
							<timebase>25</timebase>
							<ntsc>FALSE</ntsc>
						</rate>
						<start>4087</start>
						<end>4202</end>
						<in>319</in>
						<out>434</out>
						<pproTicksIn>3241244160000</pproTicksIn>
						<pproTicksOut>4409717760000</pproTicksOut>
						<file id="file-25"/>
						<sourcetrack>
							<mediatype>audio</mediatype>
							<trackindex>1</trackindex>
						</sourcetrack>
						<link>
							<linkclipref>clipitem-268</linkclipref>
							<mediatype>video</mediatype>
							<trackindex>2</trackindex>
							<clipindex>12</clipindex>
						</link>
						<link>
							<linkclipref>clipitem-914</linkclipref>
							<mediatype>audio</mediatype>
							<trackindex>10</trackindex>
							<clipindex>7</clipindex>
							<groupindex>1</groupindex>
						</link>
						<link>
							<linkclipref>clipitem-1054</linkclipref>
							<mediatype>audio</mediatype>
							<trackindex>11</trackindex>
							<clipindex>7</clipindex>
							<groupindex>1</groupindex>
						</link>
						<logginginfo>
							<description></description>
							<scene></scene>
							<shottake></shottake>
							<lognote></lognote>
						</logginginfo>
						<labels>
							<label2>Iris</label2>
						</labels>
					</clipitem>
					<clipitem id="clipitem-1055" premiereChannelType="stereo">
						<masterclipid>masterclip-182</masterclipid>
						<name>AA262601.MXF</name>
						<enabled>TRUE</enabled>
						<duration>2076</duration>
						<rate>
							<timebase>25</timebase>
							<ntsc>FALSE</ntsc>
						</rate>
						<start>4202</start>
						<end>-1</end>
						<in>256</in>
						<out>387</out>
						<pproTicksIn>2601123840000</pproTicksIn>
						<pproTicksOut>3932167680000</pproTicksOut>
						<file id="file-182"/>
						<sourcetrack>
							<mediatype>audio</mediatype>
							<trackindex>1</trackindex>
						</sourcetrack>
						<link>
							<linkclipref>clipitem-269</linkclipref>
							<mediatype>video</mediatype>
							<trackindex>2</trackindex>
							<clipindex>13</clipindex>
						</link>
						<link>
							<linkclipref>clipitem-915</linkclipref>
							<mediatype>audio</mediatype>
							<trackindex>10</trackindex>
							<clipindex>8</clipindex>
							<groupindex>1</groupindex>
						</link>
						<link>
							<linkclipref>clipitem-1055</linkclipref>
							<mediatype>audio</mediatype>
							<trackindex>11</trackindex>
							<clipindex>8</clipindex>
							<groupindex>1</groupindex>
						</link>
						<logginginfo>
							<description></description>
							<scene></scene>
							<shottake></shottake>
							<lognote></lognote>
						</logginginfo>
						<labels>
							<label2>Iris</label2>
						</labels>
					</clipitem>
					<transitionitem>
						<start>4320</start>
						<end>4333</end>
						<alignment>center</alignment>
						<cutPointTicks>60963840000</cutPointTicks>
						<rate>
							<timebase>25</timebase>
							<ntsc>FALSE</ntsc>
						</rate>
						<effect>
							<name>Cross Fade (+3dB)</name>
							<effectid>KGAudioTransCrossFade3dB</effectid>
							<effecttype>transition</effecttype>
							<mediatype>audio</mediatype>
							<wipecode>0</wipecode>
							<wipeaccuracy>100</wipeaccuracy>
							<startratio>0</startratio>
							<endratio>1</endratio>
							<reverse>FALSE</reverse>
						</effect>
					</transitionitem>
					<clipitem id="clipitem-1056" premiereChannelType="stereo">
						<masterclipid>masterclip-25</masterclipid>
						<name>AA262801.MXF</name>
						<enabled>TRUE</enabled>
						<duration>3660</duration>
						<rate>
							<timebase>25</timebase>
							<ntsc>FALSE</ntsc>
						</rate>
						<start>-1</start>
						<end>4450</end>
						<in>428</in>
						<out>558</out>
						<pproTicksIn>4348753920000</pproTicksIn>
						<pproTicksOut>5669637120000</pproTicksOut>
						<file id="file-25"/>
						<sourcetrack>
							<mediatype>audio</mediatype>
							<trackindex>1</trackindex>
						</sourcetrack>
						<link>
							<linkclipref>clipitem-31</linkclipref>
							<mediatype>video</mediatype>
							<trackindex>1</trackindex>
							<clipindex>31</clipindex>
						</link>
						<link>
							<linkclipref>clipitem-916</linkclipref>
							<mediatype>audio</mediatype>
							<trackindex>10</trackindex>
							<clipindex>10</clipindex>
							<groupindex>1</groupindex>
						</link>
						<link>
							<linkclipref>clipitem-1056</linkclipref>
							<mediatype>audio</mediatype>
							<trackindex>11</trackindex>
							<clipindex>10</clipindex>
							<groupindex>1</groupindex>
						</link>
						<logginginfo>
							<description></description>
							<scene></scene>
							<shottake></shottake>
							<lognote></lognote>
						</logginginfo>
						<labels>
							<label2>Iris</label2>
						</labels>
					</clipitem>
					<clipitem id="clipitem-1057" premiereChannelType="stereo">
						<masterclipid>masterclip-25</masterclipid>
						<name>AA262801.MXF</name>
						<enabled>TRUE</enabled>
						<duration>3660</duration>
						<rate>
							<timebase>25</timebase>
							<ntsc>FALSE</ntsc>
						</rate>
						<start>4450</start>
						<end>-1</end>
						<in>937</in>
						<out>1178</out>
						<pproTicksIn>9520519680000</pproTicksIn>
						<pproTicksOut>11969233920000</pproTicksOut>
						<file id="file-25"/>
						<sourcetrack>
							<mediatype>audio</mediatype>
							<trackindex>1</trackindex>
						</sourcetrack>
						<link>
							<linkclipref>clipitem-32</linkclipref>
							<mediatype>video</mediatype>
							<trackindex>1</trackindex>
							<clipindex>32</clipindex>
						</link>
						<link>
							<linkclipref>clipitem-917</linkclipref>
							<mediatype>audio</mediatype>
							<trackindex>10</trackindex>
							<clipindex>11</clipindex>
							<groupindex>1</groupindex>
						</link>
						<link>
							<linkclipref>clipitem-1057</linkclipref>
							<mediatype>audio</mediatype>
							<trackindex>11</trackindex>
							<clipindex>11</clipindex>
							<groupindex>1</groupindex>
						</link>
						<logginginfo>
							<description></description>
							<scene></scene>
							<shottake></shottake>
							<lognote></lognote>
						</logginginfo>
						<labels>
							<label2>Iris</label2>
						</labels>
					</clipitem>
					<transitionitem>
						<start>4690</start>
						<end>4691</end>
						<alignment>end-black</alignment>
						<cutPointTicks>10160640000</cutPointTicks>
						<rate>
							<timebase>25</timebase>
							<ntsc>FALSE</ntsc>
						</rate>
						<effect>
							<name>Cross Fade (+3dB)</name>
							<effectid>KGAudioTransCrossFade3dB</effectid>
							<effecttype>transition</effecttype>
							<mediatype>audio</mediatype>
							<wipecode>0</wipecode>
							<wipeaccuracy>100</wipeaccuracy>
							<startratio>0</startratio>
							<endratio>1</endratio>
							<reverse>FALSE</reverse>
						</effect>
					</transitionitem>
					<clipitem id="clipitem-1058" premiereChannelType="stereo">
						<masterclipid>masterclip-25</masterclipid>
						<name>AA262801.MXF</name>
						<enabled>TRUE</enabled>
						<duration>3660</duration>
						<rate>
							<timebase>25</timebase>
							<ntsc>FALSE</ntsc>
						</rate>
						<start>4762</start>
						<end>4948</end>
						<in>3245</in>
						<out>3431</out>
						<pproTicksIn>32971276800000</pproTicksIn>
						<pproTicksOut>34861155840000</pproTicksOut>
						<file id="file-25"/>
						<sourcetrack>
							<mediatype>audio</mediatype>
							<trackindex>1</trackindex>
						</sourcetrack>
						<link>
							<linkclipref>clipitem-33</linkclipref>
							<mediatype>video</mediatype>
							<trackindex>1</trackindex>
							<clipindex>33</clipindex>
						</link>
						<link>
							<linkclipref>clipitem-918</linkclipref>
							<mediatype>audio</mediatype>
							<trackindex>10</trackindex>
							<clipindex>13</clipindex>
							<groupindex>1</groupindex>
						</link>
						<link>
							<linkclipref>clipitem-1058</linkclipref>
							<mediatype>audio</mediatype>
							<trackindex>11</trackindex>
							<clipindex>13</clipindex>
							<groupindex>1</groupindex>
						</link>
						<logginginfo>
							<description></description>
							<scene></scene>
							<shottake></shottake>
							<lognote></lognote>
						</logginginfo>
						<labels>
							<label2>Iris</label2>
						</labels>
					</clipitem>
					<clipitem id="clipitem-1059" premiereChannelType="stereo">
						<masterclipid>masterclip-26</masterclipid>
						<name>AA263101.MXF</name>
						<enabled>TRUE</enabled>
						<duration>3336</duration>
						<rate>
							<timebase>25</timebase>
							<ntsc>FALSE</ntsc>
						</rate>
						<start>4948</start>
						<end>5463</end>
						<in>175</in>
						<out>690</out>
						<pproTicksIn>1778112000000</pproTicksIn>
						<pproTicksOut>7010841600000</pproTicksOut>
						<file id="file-26"/>
						<sourcetrack>
							<mediatype>audio</mediatype>
							<trackindex>1</trackindex>
						</sourcetrack>
						<link>
							<linkclipref>clipitem-34</linkclipref>
							<mediatype>video</mediatype>
							<trackindex>1</trackindex>
							<clipindex>34</clipindex>
						</link>
						<link>
							<linkclipref>clipitem-919</linkclipref>
							<mediatype>audio</mediatype>
							<trackindex>10</trackindex>
							<clipindex>14</clipindex>
							<groupindex>1</groupindex>
						</link>
						<link>
							<linkclipref>clipitem-1059</linkclipref>
							<mediatype>audio</mediatype>
							<trackindex>11</trackindex>
							<clipindex>14</clipindex>
							<groupindex>1</groupindex>
						</link>
						<logginginfo>
							<description></description>
							<scene></scene>
							<shottake></shottake>
							<lognote></lognote>
						</logginginfo>
						<labels>
							<label2>Iris</label2>
						</labels>
					</clipitem>
					<clipitem id="clipitem-1060" premiereChannelType="stereo">
						<masterclipid>masterclip-26</masterclipid>
						<name>AA263101.MXF</name>
						<enabled>TRUE</enabled>
						<duration>3336</duration>
						<rate>
							<timebase>25</timebase>
							<ntsc>FALSE</ntsc>
						</rate>
						<start>5463</start>
						<end>5962</end>
						<in>1499</in>
						<out>1998</out>
						<pproTicksIn>15230799360000</pproTicksIn>
						<pproTicksOut>20300958720000</pproTicksOut>
						<file id="file-26"/>
						<sourcetrack>
							<mediatype>audio</mediatype>
							<trackindex>1</trackindex>
						</sourcetrack>
						<link>
							<linkclipref>clipitem-35</linkclipref>
							<mediatype>video</mediatype>
							<trackindex>1</trackindex>
							<clipindex>35</clipindex>
						</link>
						<link>
							<linkclipref>clipitem-920</linkclipref>
							<mediatype>audio</mediatype>
							<trackindex>10</trackindex>
							<clipindex>15</clipindex>
							<groupindex>1</groupindex>
						</link>
						<link>
							<linkclipref>clipitem-1060</linkclipref>
							<mediatype>audio</mediatype>
							<trackindex>11</trackindex>
							<clipindex>15</clipindex>
							<groupindex>1</groupindex>
						</link>
						<logginginfo>
							<description></description>
							<scene></scene>
							<shottake></shottake>
							<lognote></lognote>
						</logginginfo>
						<labels>
							<label2>Iris</label2>
						</labels>
					</clipitem>
					<clipitem id="clipitem-1061" premiereChannelType="stereo">
						<masterclipid>masterclip-26</masterclipid>
						<name>AA263101.MXF</name>
						<enabled>TRUE</enabled>
						<duration>3336</duration>
						<rate>
							<timebase>25</timebase>
							<ntsc>FALSE</ntsc>
						</rate>
						<start>5997</start>
						<end>6052</end>
						<in>1998</in>
						<out>2053</out>
						<pproTicksIn>20300958720000</pproTicksIn>
						<pproTicksOut>20859793920000</pproTicksOut>
						<file id="file-26"/>
						<sourcetrack>
							<mediatype>audio</mediatype>
							<trackindex>2</trackindex>
						</sourcetrack>
						<link>
							<linkclipref>clipitem-921</linkclipref>
							<mediatype>audio</mediatype>
							<trackindex>10</trackindex>
							<clipindex>16</clipindex>
							<groupindex>1</groupindex>
						</link>
						<link>
							<linkclipref>clipitem-1061</linkclipref>
							<mediatype>audio</mediatype>
							<trackindex>11</trackindex>
							<clipindex>16</clipindex>
							<groupindex>1</groupindex>
						</link>
						<logginginfo>
							<description></description>
							<scene></scene>
							<shottake></shottake>
							<lognote></lognote>
						</logginginfo>
						<labels>
							<label2>Iris</label2>
						</labels>
					</clipitem>
					<clipitem id="clipitem-1062" premiereChannelType="stereo">
						<masterclipid>masterclip-185</masterclipid>
						<name>AA263201.MXF</name>
						<enabled>TRUE</enabled>
						<duration>4740</duration>
						<rate>
							<timebase>25</timebase>
							<ntsc>FALSE</ntsc>
						</rate>
						<start>6181</start>
						<end>-1</end>
						<in>2513</in>
						<out>2648</out>
						<pproTicksIn>25533688320000</pproTicksIn>
						<pproTicksOut>26905374720000</pproTicksOut>
						<file id="file-185"/>
						<sourcetrack>
							<mediatype>audio</mediatype>
							<trackindex>2</trackindex>
						</sourcetrack>
						<link>
							<linkclipref>clipitem-274</linkclipref>
							<mediatype>video</mediatype>
							<trackindex>2</trackindex>
							<clipindex>18</clipindex>
						</link>
						<link>
							<linkclipref>clipitem-922</linkclipref>
							<mediatype>audio</mediatype>
							<trackindex>10</trackindex>
							<clipindex>17</clipindex>
							<groupindex>1</groupindex>
						</link>
						<link>
							<linkclipref>clipitem-1062</linkclipref>
							<mediatype>audio</mediatype>
							<trackindex>11</trackindex>
							<clipindex>17</clipindex>
							<groupindex>1</groupindex>
						</link>
						<logginginfo>
							<description></description>
							<scene></scene>
							<shottake></shottake>
							<lognote></lognote>
						</logginginfo>
						<labels>
							<label2>Iris</label2>
						</labels>
					</clipitem>
					<transitionitem>
						<start>6313</start>
						<end>6316</end>
						<alignment>center</alignment>
						<cutPointTicks>10160640000</cutPointTicks>
						<rate>
							<timebase>25</timebase>
							<ntsc>FALSE</ntsc>
						</rate>
						<effect>
							<name>Cross Fade (+3dB)</name>
							<effectid>KGAudioTransCrossFade3dB</effectid>
							<effecttype>transition</effecttype>
							<mediatype>audio</mediatype>
							<wipecode>0</wipecode>
							<wipeaccuracy>100</wipeaccuracy>
							<startratio>0</startratio>
							<endratio>1</endratio>
							<reverse>FALSE</reverse>
						</effect>
					</transitionitem>
					<clipitem id="clipitem-1063" premiereChannelType="stereo">
						<masterclipid>masterclip-186</masterclipid>
						<name>AA263501.MXF</name>
						<enabled>TRUE</enabled>
						<duration>2556</duration>
						<rate>
							<timebase>25</timebase>
							<ntsc>FALSE</ntsc>
						</rate>
						<start>-1</start>
						<end>6495</end>
						<in>502</in>
						<out>684</out>
						<pproTicksIn>5100641280000</pproTicksIn>
						<pproTicksOut>6949877760000</pproTicksOut>
						<file id="file-186"/>
						<sourcetrack>
							<mediatype>audio</mediatype>
							<trackindex>2</trackindex>
						</sourcetrack>
						<link>
							<linkclipref>clipitem-275</linkclipref>
							<mediatype>video</mediatype>
							<trackindex>2</trackindex>
							<clipindex>19</clipindex>
						</link>
						<link>
							<linkclipref>clipitem-923</linkclipref>
							<mediatype>audio</mediatype>
							<trackindex>10</trackindex>
							<clipindex>19</clipindex>
							<groupindex>1</groupindex>
						</link>
						<link>
							<linkclipref>clipitem-1063</linkclipref>
							<mediatype>audio</mediatype>
							<trackindex>11</trackindex>
							<clipindex>19</clipindex>
							<groupindex>1</groupindex>
						</link>
						<logginginfo>
							<description></description>
							<scene></scene>
							<shottake></shottake>
							<lognote></lognote>
						</logginginfo>
						<labels>
							<label2>Iris</label2>
						</labels>
					</clipitem>
					<clipitem id="clipitem-1064" premiereChannelType="stereo">
						<masterclipid>masterclip-185</masterclipid>
						<name>AA263201.MXF</name>
						<enabled>TRUE</enabled>
						<duration>4740</duration>
						<rate>
							<timebase>25</timebase>
							<ntsc>FALSE</ntsc>
						</rate>
						<start>6495</start>
						<end>6767</end>
						<in>3116</in>
						<out>3388</out>
						<pproTicksIn>31660554240000</pproTicksIn>
						<pproTicksOut>34424248320000</pproTicksOut>
						<file id="file-185"/>
						<sourcetrack>
							<mediatype>audio</mediatype>
							<trackindex>2</trackindex>
						</sourcetrack>
						<link>
							<linkclipref>clipitem-276</linkclipref>
							<mediatype>video</mediatype>
							<trackindex>2</trackindex>
							<clipindex>20</clipindex>
						</link>
						<link>
							<linkclipref>clipitem-924</linkclipref>
							<mediatype>audio</mediatype>
							<trackindex>10</trackindex>
							<clipindex>20</clipindex>
							<groupindex>1</groupindex>
						</link>
						<link>
							<linkclipref>clipitem-1064</linkclipref>
							<mediatype>audio</mediatype>
							<trackindex>11</trackindex>
							<clipindex>20</clipindex>
							<groupindex>1</groupindex>
						</link>
						<logginginfo>
							<description></description>
							<scene></scene>
							<shottake></shottake>
							<lognote></lognote>
						</logginginfo>
						<labels>
							<label2>Iris</label2>
						</labels>
					</clipitem>
					<clipitem id="clipitem-1065" premiereChannelType="stereo">
						<masterclipid>masterclip-185</masterclipid>
						<name>AA263201.MXF</name>
						<enabled>TRUE</enabled>
						<duration>4740</duration>
						<rate>
							<timebase>25</timebase>
							<ntsc>FALSE</ntsc>
						</rate>
						<start>6767</start>
						<end>7109</end>
						<in>4275</in>
						<out>4617</out>
						<pproTicksIn>43436736000000</pproTicksIn>
						<pproTicksOut>46911674880000</pproTicksOut>
						<file id="file-185"/>
						<sourcetrack>
							<mediatype>audio</mediatype>
							<trackindex>2</trackindex>
						</sourcetrack>
							<filter>
								<effect>
									<name>Audio Levels</name>
									<effectid>audiolevels</effectid>
									<effectcategory>audiolevels</effectcategory>
									<effecttype>audiolevels</effecttype>
									<mediatype>audio</mediatype>
									<parameter authoringApp="PremierePro">
										<parameterid>level</parameterid>
										<name>Level</name>
										<valuemin>0</valuemin>
										<valuemax>3.98109</valuemax>
										<value>0.886782</value>
									</parameter>
								</effect>
							</filter>
						<link>
							<linkclipref>clipitem-925</linkclipref>
							<mediatype>audio</mediatype>
							<trackindex>10</trackindex>
							<clipindex>21</clipindex>
							<groupindex>1</groupindex>
						</link>
						<link>
							<linkclipref>clipitem-1065</linkclipref>
							<mediatype>audio</mediatype>
							<trackindex>11</trackindex>
							<clipindex>21</clipindex>
							<groupindex>1</groupindex>
						</link>
						<logginginfo>
							<description></description>
							<scene></scene>
							<shottake></shottake>
							<lognote></lognote>
						</logginginfo>
						<labels>
							<label2>Iris</label2>
						</labels>
					</clipitem>
					<transitionitem>
						<start>11046</start>
						<end>11059</end>
						<alignment>start-black</alignment>
						<cutPointTicks>0</cutPointTicks>
						<rate>
							<timebase>25</timebase>
							<ntsc>FALSE</ntsc>
						</rate>
						<effect>
							<name>Cross Fade (+3dB)</name>
							<effectid>KGAudioTransCrossFade3dB</effectid>
							<effecttype>transition</effecttype>
							<mediatype>audio</mediatype>
							<wipecode>0</wipecode>
							<wipeaccuracy>100</wipeaccuracy>
							<startratio>0</startratio>
							<endratio>1</endratio>
							<reverse>FALSE</reverse>
						</effect>
					</transitionitem>
					<clipitem id="clipitem-1066" premiereChannelType="stereo">
						<masterclipid>masterclip-30</masterclipid>
						<name>2015-12-19 11.39.19.mp4</name>
						<enabled>TRUE</enabled>
						<duration>2636</duration>
						<rate>
							<timebase>25</timebase>
							<ntsc>FALSE</ntsc>
						</rate>
						<start>-1</start>
						<end>-1</end>
						<in>1138</in>
						<out>1232</out>
						<pproTicksIn>11562808320000</pproTicksIn>
						<pproTicksOut>12517908480000</pproTicksOut>
						<file id="file-30"/>
						<sourcetrack>
							<mediatype>audio</mediatype>
							<trackindex>1</trackindex>
						</sourcetrack>
							<marker>
								<comment></comment>
								<name></name>
								<in>1131</in>
								<out>-1</out>
							</marker>
							<marker>
								<comment></comment>
								<name></name>
								<in>667</in>
								<out>-1</out>
							</marker>
						<link>
							<linkclipref>clipitem-926</linkclipref>
							<mediatype>audio</mediatype>
							<trackindex>10</trackindex>
							<clipindex>23</clipindex>
							<groupindex>1</groupindex>
						</link>
						<link>
							<linkclipref>clipitem-1066</linkclipref>
							<mediatype>audio</mediatype>
							<trackindex>11</trackindex>
							<clipindex>23</clipindex>
							<groupindex>1</groupindex>
						</link>
						<link>
							<linkclipref>clipitem-1212</linkclipref>
							<mediatype>audio</mediatype>
							<trackindex>12</trackindex>
							<clipindex>41</clipindex>
							<groupindex>1</groupindex>
						</link>
						<link>
							<linkclipref>clipitem-1297</linkclipref>
							<mediatype>audio</mediatype>
							<trackindex>13</trackindex>
							<clipindex>41</clipindex>
							<groupindex>1</groupindex>
						</link>
						<logginginfo>
							<description></description>
							<scene></scene>
							<shottake></shottake>
							<lognote></lognote>
						</logginginfo>
						<labels>
							<label2>Iris</label2>
						</labels>
					</clipitem>
					<transitionitem>
						<start>11127</start>
						<end>11140</end>
						<alignment>end-black</alignment>
						<cutPointTicks>132088320000</cutPointTicks>
						<rate>
							<timebase>25</timebase>
							<ntsc>FALSE</ntsc>
						</rate>
						<effect>
							<name>Cross Fade (+3dB)</name>
							<effectid>KGAudioTransCrossFade3dB</effectid>
							<effecttype>transition</effecttype>
							<mediatype>audio</mediatype>
							<wipecode>0</wipecode>
							<wipeaccuracy>100</wipeaccuracy>
							<startratio>0</startratio>
							<endratio>1</endratio>
							<reverse>FALSE</reverse>
						</effect>
					</transitionitem>
					<clipitem id="clipitem-1067" premiereChannelType="stereo">
						<masterclipid>masterclip-30</masterclipid>
						<name>2015-12-19 11.39.19.mp4</name>
						<enabled>TRUE</enabled>
						<duration>2636</duration>
						<rate>
							<timebase>25</timebase>
							<ntsc>FALSE</ntsc>
						</rate>
						<start>16174</start>
						<end>16497</end>
						<in>1849</in>
						<out>2172</out>
						<pproTicksIn>18787023360000</pproTicksIn>
						<pproTicksOut>22068910080000</pproTicksOut>
						<file id="file-30"/>
						<sourcetrack>
							<mediatype>audio</mediatype>
							<trackindex>2</trackindex>
						</sourcetrack>
							<filter>
								<effect>
									<name>Audio Levels</name>
									<effectid>audiolevels</effectid>
									<effectcategory>audiolevels</effectcategory>
									<effecttype>audiolevels</effecttype>
									<mediatype>audio</mediatype>
									<parameter authoringApp="PremierePro">
										<parameterid>level</parameterid>
										<name>Level</name>
										<valuemin>0</valuemin>
										<valuemax>3.98109</valuemax>
										<value>0</value>
										<keyframe>
											<when>1870</when>
											<value>0</value>
										</keyframe>
										<keyframe>
											<when>1889</when>
											<value>0.349425</value>
										</keyframe>
										<keyframe>
											<when>1994</when>
											<value>0.548951</value>
										</keyframe>
										<keyframe>
											<when>2016</when>
											<value>0.599261</value>
										</keyframe>
										<keyframe>
											<when>2074</when>
											<value>0.599261</value>
										</keyframe>
										<keyframe>
											<when>2121</when>
											<value>0.224718</value>
										</keyframe>
										<keyframe>
											<when>2169</when>
											<value>0</value>
										</keyframe>
									</parameter>
								</effect>
							</filter>
							<marker>
								<comment></comment>
								<name></name>
								<in>1131</in>
								<out>-1</out>
							</marker>
							<marker>
								<comment></comment>
								<name></name>
								<in>667</in>
								<out>-1</out>
							</marker>
						<link>
							<linkclipref>clipitem-59</linkclipref>
							<mediatype>video</mediatype>
							<trackindex>1</trackindex>
							<clipindex>59</clipindex>
						</link>
						<link>
							<linkclipref>clipitem-927</linkclipref>
							<mediatype>audio</mediatype>
							<trackindex>10</trackindex>
							<clipindex>25</clipindex>
							<groupindex>1</groupindex>
						</link>
						<link>
							<linkclipref>clipitem-1067</linkclipref>
							<mediatype>audio</mediatype>
							<trackindex>11</trackindex>
							<clipindex>25</clipindex>
							<groupindex>1</groupindex>
						</link>
						<logginginfo>
							<description></description>
							<scene></scene>
							<shottake></shottake>
							<lognote></lognote>
						</logginginfo>
						<labels>
							<label2>Iris</label2>
						</labels>
					</clipitem>
					<clipitem id="clipitem-1068" premiereChannelType="stereo">
						<masterclipid>masterclip-49</masterclipid>
						<name>20160520_075448.mp4</name>
						<enabled>TRUE</enabled>
						<duration>5580</duration>
						<rate>
							<timebase>25</timebase>
							<ntsc>FALSE</ntsc>
						</rate>
						<start>19978</start>
						<end>20156</end>
						<in>1955</in>
						<out>2133</out>
						<pproTicksIn>19864051200000</pproTicksIn>
						<pproTicksOut>21672645120000</pproTicksOut>
						<file id="file-49"/>
						<sourcetrack>
							<mediatype>audio</mediatype>
							<trackindex>2</trackindex>
						</sourcetrack>
							<marker>
								<comment></comment>
								<name></name>
								<in>5251</in>
								<out>-1</out>
							</marker>
						<link>
							<linkclipref>clipitem-62</linkclipref>
							<mediatype>video</mediatype>
							<trackindex>1</trackindex>
							<clipindex>62</clipindex>
						</link>
						<link>
							<linkclipref>clipitem-928</linkclipref>
							<mediatype>audio</mediatype>
							<trackindex>10</trackindex>
							<clipindex>26</clipindex>
							<groupindex>1</groupindex>
						</link>
						<link>
							<linkclipref>clipitem-1068</linkclipref>
							<mediatype>audio</mediatype>
							<trackindex>11</trackindex>
							<clipindex>26</clipindex>
							<groupindex>1</groupindex>
						</link>
						<logginginfo>
							<description></description>
							<scene></scene>
							<shottake></shottake>
							<lognote></lognote>
						</logginginfo>
						<labels>
							<label2>Iris</label2>
						</labels>
					</clipitem>
					<clipitem id="clipitem-1069" premiereChannelType="stereo">
						<masterclipid>masterclip-50</masterclipid>
						<name>20160523_223257.mp4</name>
						<enabled>TRUE</enabled>
						<duration>1072</duration>
						<rate>
							<timebase>25</timebase>
							<ntsc>FALSE</ntsc>
						</rate>
						<start>20156</start>
						<end>20431</end>
						<in>13</in>
						<out>288</out>
						<pproTicksIn>132088320000</pproTicksIn>
						<pproTicksOut>2926264320000</pproTicksOut>
						<file id="file-50"/>
						<sourcetrack>
							<mediatype>audio</mediatype>
							<trackindex>2</trackindex>
						</sourcetrack>
						<link>
							<linkclipref>clipitem-63</linkclipref>
							<mediatype>video</mediatype>
							<trackindex>1</trackindex>
							<clipindex>63</clipindex>
						</link>
						<link>
							<linkclipref>clipitem-929</linkclipref>
							<mediatype>audio</mediatype>
							<trackindex>10</trackindex>
							<clipindex>27</clipindex>
							<groupindex>1</groupindex>
						</link>
						<link>
							<linkclipref>clipitem-1069</linkclipref>
							<mediatype>audio</mediatype>
							<trackindex>11</trackindex>
							<clipindex>27</clipindex>
							<groupindex>1</groupindex>
						</link>
						<logginginfo>
							<description></description>
							<scene></scene>
							<shottake></shottake>
							<lognote></lognote>
						</logginginfo>
						<labels>
							<label2>Iris</label2>
						</labels>
					</clipitem>
					<clipitem id="clipitem-1070" premiereChannelType="stereo">
						<masterclipid>masterclip-51</masterclipid>
						<name>AA274501.MXF</name>
						<enabled>TRUE</enabled>
						<duration>1212</duration>
						<rate>
							<timebase>25</timebase>
							<ntsc>FALSE</ntsc>
						</rate>
						<start>20431</start>
						<end>20760</end>
						<in>642</in>
						<out>971</out>
						<pproTicksIn>6523130880000</pproTicksIn>
						<pproTicksOut>9865981440000</pproTicksOut>
						<file id="file-51"/>
						<sourcetrack>
							<mediatype>audio</mediatype>
							<trackindex>1</trackindex>
						</sourcetrack>
							<filter>
								<effect>
									<name>Audio Levels</name>
									<effectid>audiolevels</effectid>
									<effectcategory>audiolevels</effectcategory>
									<effecttype>audiolevels</effecttype>
									<mediatype>audio</mediatype>
									<parameter authoringApp="PremierePro">
										<parameterid>level</parameterid>
										<name>Level</name>
										<valuemin>0</valuemin>
										<valuemax>3.98109</valuemax>
										<value>0.870273</value>
									</parameter>
								</effect>
							</filter>
						<link>
							<linkclipref>clipitem-64</linkclipref>
							<mediatype>video</mediatype>
							<trackindex>1</trackindex>
							<clipindex>64</clipindex>
						</link>
						<link>
							<linkclipref>clipitem-538</linkclipref>
							<mediatype>audio</mediatype>
							<trackindex>1</trackindex>
							<clipindex>40</clipindex>
							<groupindex>1</groupindex>
						</link>
						<link>
							<linkclipref>clipitem-596</linkclipref>
							<mediatype>audio</mediatype>
							<trackindex>2</trackindex>
							<clipindex>11</clipindex>
							<groupindex>1</groupindex>
						</link>
						<link>
							<linkclipref>clipitem-930</linkclipref>
							<mediatype>audio</mediatype>
							<trackindex>10</trackindex>
							<clipindex>28</clipindex>
							<groupindex>1</groupindex>
						</link>
						<link>
							<linkclipref>clipitem-1070</linkclipref>
							<mediatype>audio</mediatype>
							<trackindex>11</trackindex>
							<clipindex>28</clipindex>
							<groupindex>1</groupindex>
						</link>
						<logginginfo>
							<description></description>
							<scene></scene>
							<shottake></shottake>
							<lognote></lognote>
						</logginginfo>
						<labels>
							<label2>Iris</label2>
						</labels>
					</clipitem>
					<clipitem id="clipitem-1071" premiereChannelType="stereo">
						<masterclipid>masterclip-52</masterclipid>
						<name>AA275401.MXF</name>
						<enabled>TRUE</enabled>
						<duration>7896</duration>
						<rate>
							<timebase>25</timebase>
							<ntsc>FALSE</ntsc>
						</rate>
						<start>20760</start>
						<end>21255</end>
						<in>320</in>
						<out>815</out>
						<pproTicksIn>3251404800000</pproTicksIn>
						<pproTicksOut>8280921600000</pproTicksOut>
						<file id="file-52"/>
						<sourcetrack>
							<mediatype>audio</mediatype>
							<trackindex>1</trackindex>
						</sourcetrack>
						<link>
							<linkclipref>clipitem-931</linkclipref>
							<mediatype>audio</mediatype>
							<trackindex>10</trackindex>
							<clipindex>29</clipindex>
							<groupindex>1</groupindex>
						</link>
						<link>
							<linkclipref>clipitem-1071</linkclipref>
							<mediatype>audio</mediatype>
							<trackindex>11</trackindex>
							<clipindex>29</clipindex>
							<groupindex>1</groupindex>
						</link>
						<logginginfo>
							<description></description>
							<scene></scene>
							<shottake></shottake>
							<lognote></lognote>
						</logginginfo>
						<labels>
							<label2>Iris</label2>
						</labels>
					</clipitem>
					<clipitem id="clipitem-1072" premiereChannelType="stereo">
						<masterclipid>masterclip-52</masterclipid>
						<name>AA275401.MXF</name>
						<enabled>TRUE</enabled>
						<duration>7896</duration>
						<rate>
							<timebase>25</timebase>
							<ntsc>FALSE</ntsc>
						</rate>
						<start>21255</start>
						<end>21454</end>
						<in>815</in>
						<out>1014</out>
						<pproTicksIn>8280921600000</pproTicksIn>
						<pproTicksOut>10302888960000</pproTicksOut>
						<file id="file-52"/>
						<sourcetrack>
							<mediatype>audio</mediatype>
							<trackindex>1</trackindex>
						</sourcetrack>
						<link>
							<linkclipref>clipitem-738</linkclipref>
							<mediatype>audio</mediatype>
							<trackindex>8</trackindex>
							<clipindex>27</clipindex>
							<groupindex>1</groupindex>
						</link>
						<link>
							<linkclipref>clipitem-834</linkclipref>
							<mediatype>audio</mediatype>
							<trackindex>9</trackindex>
							<clipindex>27</clipindex>
							<groupindex>1</groupindex>
						</link>
						<link>
							<linkclipref>clipitem-932</linkclipref>
							<mediatype>audio</mediatype>
							<trackindex>10</trackindex>
							<clipindex>30</clipindex>
							<groupindex>1</groupindex>
						</link>
						<link>
							<linkclipref>clipitem-1072</linkclipref>
							<mediatype>audio</mediatype>
							<trackindex>11</trackindex>
							<clipindex>30</clipindex>
							<groupindex>1</groupindex>
						</link>
						<logginginfo>
							<description></description>
							<scene></scene>
							<shottake></shottake>
							<lognote></lognote>
						</logginginfo>
						<labels>
							<label2>Iris</label2>
						</labels>
					</clipitem>
					<clipitem id="clipitem-1073" premiereChannelType="stereo">
						<masterclipid>masterclip-53</masterclipid>
						<name>AA274901.MXF</name>
						<enabled>TRUE</enabled>
						<duration>7896</duration>
						<rate>
							<timebase>25</timebase>
							<ntsc>FALSE</ntsc>
						</rate>
						<start>21845</start>
						<end>22026</end>
						<in>6390</in>
						<out>6571</out>
						<pproTicksIn>64926489600000</pproTicksIn>
						<pproTicksOut>66765565440000</pproTicksOut>
						<file id="file-53"/>
						<sourcetrack>
							<mediatype>audio</mediatype>
							<trackindex>1</trackindex>
						</sourcetrack>
						<link>
							<linkclipref>clipitem-933</linkclipref>
							<mediatype>audio</mediatype>
							<trackindex>10</trackindex>
							<clipindex>31</clipindex>
							<groupindex>1</groupindex>
						</link>
						<link>
							<linkclipref>clipitem-1073</linkclipref>
							<mediatype>audio</mediatype>
							<trackindex>11</trackindex>
							<clipindex>31</clipindex>
							<groupindex>1</groupindex>
						</link>
						<logginginfo>
							<description></description>
							<scene></scene>
							<shottake></shottake>
							<lognote></lognote>
						</logginginfo>
						<labels>
							<label2>Iris</label2>
						</labels>
					</clipitem>
					<clipitem id="clipitem-1074" premiereChannelType="stereo">
						<masterclipid>masterclip-53</masterclipid>
						<name>AA274901.MXF</name>
						<enabled>TRUE</enabled>
						<duration>7896</duration>
						<rate>
							<timebase>25</timebase>
							<ntsc>FALSE</ntsc>
						</rate>
						<start>22026</start>
						<end>22201</end>
						<in>6636</in>
						<out>6811</out>
						<pproTicksIn>67426007040000</pproTicksIn>
						<pproTicksOut>69204119040000</pproTicksOut>
						<file id="file-53"/>
						<sourcetrack>
							<mediatype>audio</mediatype>
							<trackindex>1</trackindex>
						</sourcetrack>
						<link>
							<linkclipref>clipitem-934</linkclipref>
							<mediatype>audio</mediatype>
							<trackindex>10</trackindex>
							<clipindex>32</clipindex>
							<groupindex>1</groupindex>
						</link>
						<link>
							<linkclipref>clipitem-1074</linkclipref>
							<mediatype>audio</mediatype>
							<trackindex>11</trackindex>
							<clipindex>32</clipindex>
							<groupindex>1</groupindex>
						</link>
						<logginginfo>
							<description></description>
							<scene></scene>
							<shottake></shottake>
							<lognote></lognote>
						</logginginfo>
						<labels>
							<label2>Iris</label2>
						</labels>
					</clipitem>
					<clipitem id="clipitem-1075" premiereChannelType="stereo">
						<masterclipid>masterclip-53</masterclipid>
						<name>AA274901.MXF</name>
						<enabled>TRUE</enabled>
						<duration>7896</duration>
						<rate>
							<timebase>25</timebase>
							<ntsc>FALSE</ntsc>
						</rate>
						<start>22355</start>
						<end>22819</end>
						<in>6806</in>
						<out>7270</out>
						<pproTicksIn>69153315840000</pproTicksIn>
						<pproTicksOut>73867852800000</pproTicksOut>
						<file id="file-53"/>
						<sourcetrack>
							<mediatype>audio</mediatype>
							<trackindex>1</trackindex>
						</sourcetrack>
						<link>
							<linkclipref>clipitem-935</linkclipref>
							<mediatype>audio</mediatype>
							<trackindex>10</trackindex>
							<clipindex>33</clipindex>
							<groupindex>1</groupindex>
						</link>
						<link>
							<linkclipref>clipitem-1075</linkclipref>
							<mediatype>audio</mediatype>
							<trackindex>11</trackindex>
							<clipindex>33</clipindex>
							<groupindex>1</groupindex>
						</link>
						<logginginfo>
							<description></description>
							<scene></scene>
							<shottake></shottake>
							<lognote></lognote>
						</logginginfo>
						<labels>
							<label2>Iris</label2>
						</labels>
					</clipitem>
					<clipitem id="clipitem-1076" premiereChannelType="stereo">
						<masterclipid>masterclip-53</masterclipid>
						<name>AA274901.MXF</name>
						<enabled>TRUE</enabled>
						<duration>7896</duration>
						<rate>
							<timebase>25</timebase>
							<ntsc>FALSE</ntsc>
						</rate>
						<start>22819</start>
						<end>23338</end>
						<in>7361</in>
						<out>7880</out>
						<pproTicksIn>74792471040000</pproTicksIn>
						<pproTicksOut>80065843200000</pproTicksOut>
						<file id="file-53"/>
						<sourcetrack>
							<mediatype>audio</mediatype>
							<trackindex>1</trackindex>
						</sourcetrack>
						<link>
							<linkclipref>clipitem-936</linkclipref>
							<mediatype>audio</mediatype>
							<trackindex>10</trackindex>
							<clipindex>34</clipindex>
							<groupindex>1</groupindex>
						</link>
						<link>
							<linkclipref>clipitem-1076</linkclipref>
							<mediatype>audio</mediatype>
							<trackindex>11</trackindex>
							<clipindex>34</clipindex>
							<groupindex>1</groupindex>
						</link>
						<logginginfo>
							<description></description>
							<scene></scene>
							<shottake></shottake>
							<lognote></lognote>
						</logginginfo>
						<labels>
							<label2>Iris</label2>
						</labels>
					</clipitem>
					<clipitem id="clipitem-1077" premiereChannelType="stereo">
						<masterclipid>masterclip-52</masterclipid>
						<name>AA275401.MXF</name>
						<enabled>TRUE</enabled>
						<duration>7896</duration>
						<rate>
							<timebase>25</timebase>
							<ntsc>FALSE</ntsc>
						</rate>
						<start>23338</start>
						<end>23667</end>
						<in>1558</in>
						<out>1887</out>
						<pproTicksIn>15830277120000</pproTicksIn>
						<pproTicksOut>19173127680000</pproTicksOut>
						<file id="file-52"/>
						<sourcetrack>
							<mediatype>audio</mediatype>
							<trackindex>1</trackindex>
						</sourcetrack>
							<filter>
								<effect>
									<name>Audio Levels</name>
									<effectid>audiolevels</effectid>
									<effectcategory>audiolevels</effectcategory>
									<effecttype>audiolevels</effecttype>
									<mediatype>audio</mediatype>
									<parameter authoringApp="PremierePro">
										<parameterid>level</parameterid>
										<name>Level</name>
										<valuemin>0</valuemin>
										<valuemax>3.98109</valuemax>
										<value>0.512296</value>
									</parameter>
								</effect>
							</filter>
						<link>
							<linkclipref>clipitem-937</linkclipref>
							<mediatype>audio</mediatype>
							<trackindex>10</trackindex>
							<clipindex>35</clipindex>
							<groupindex>1</groupindex>
						</link>
						<link>
							<linkclipref>clipitem-1077</linkclipref>
							<mediatype>audio</mediatype>
							<trackindex>11</trackindex>
							<clipindex>35</clipindex>
							<groupindex>1</groupindex>
						</link>
						<logginginfo>
							<description></description>
							<scene></scene>
							<shottake></shottake>
							<lognote></lognote>
						</logginginfo>
						<labels>
							<label2>Iris</label2>
						</labels>
					</clipitem>
					<clipitem id="clipitem-1078" premiereChannelType="stereo">
						<masterclipid>masterclip-52</masterclipid>
						<name>AA275401.MXF</name>
						<enabled>TRUE</enabled>
						<duration>7896</duration>
						<rate>
							<timebase>25</timebase>
							<ntsc>FALSE</ntsc>
						</rate>
						<start>23667</start>
						<end>-1</end>
						<in>1909</in>
						<out>2029</out>
						<pproTicksIn>19396661760000</pproTicksIn>
						<pproTicksOut>20615938560000</pproTicksOut>
						<file id="file-52"/>
						<sourcetrack>
							<mediatype>audio</mediatype>
							<trackindex>1</trackindex>
						</sourcetrack>
						<link>
							<linkclipref>clipitem-938</linkclipref>
							<mediatype>audio</mediatype>
							<trackindex>10</trackindex>
							<clipindex>36</clipindex>
							<groupindex>1</groupindex>
						</link>
						<link>
							<linkclipref>clipitem-1078</linkclipref>
							<mediatype>audio</mediatype>
							<trackindex>11</trackindex>
							<clipindex>36</clipindex>
							<groupindex>1</groupindex>
						</link>
						<logginginfo>
							<description></description>
							<scene></scene>
							<shottake></shottake>
							<lognote></lognote>
						</logginginfo>
						<labels>
							<label2>Iris</label2>
						</labels>
					</clipitem>
					<transitionitem>
						<start>23774</start>
						<end>23787</end>
						<alignment>end-black</alignment>
						<cutPointTicks>132088320000</cutPointTicks>
						<rate>
							<timebase>25</timebase>
							<ntsc>FALSE</ntsc>
						</rate>
						<effect>
							<name>Cross Fade (+3dB)</name>
							<effectid>KGAudioTransCrossFade3dB</effectid>
							<effecttype>transition</effecttype>
							<mediatype>audio</mediatype>
							<wipecode>0</wipecode>
							<wipeaccuracy>100</wipeaccuracy>
							<startratio>0</startratio>
							<endratio>1</endratio>
							<reverse>FALSE</reverse>
						</effect>
					</transitionitem>
					<clipitem id="clipitem-1079" premiereChannelType="stereo">
						<masterclipid>masterclip-60</masterclipid>
						<name>AA275501.MXF</name>
						<enabled>TRUE</enabled>
						<duration>6756</duration>
						<rate>
							<timebase>25</timebase>
							<ntsc>FALSE</ntsc>
						</rate>
						<start>24017</start>
						<end>24241</end>
						<in>3886</in>
						<out>4110</out>
						<pproTicksIn>39484247040000</pproTicksIn>
						<pproTicksOut>41760230400000</pproTicksOut>
						<file id="file-60"/>
						<sourcetrack>
							<mediatype>audio</mediatype>
							<trackindex>1</trackindex>
						</sourcetrack>
						<link>
							<linkclipref>clipitem-748</linkclipref>
							<mediatype>audio</mediatype>
							<trackindex>8</trackindex>
							<clipindex>38</clipindex>
							<groupindex>1</groupindex>
						</link>
						<link>
							<linkclipref>clipitem-844</linkclipref>
							<mediatype>audio</mediatype>
							<trackindex>9</trackindex>
							<clipindex>38</clipindex>
							<groupindex>1</groupindex>
						</link>
						<link>
							<linkclipref>clipitem-939</linkclipref>
							<mediatype>audio</mediatype>
							<trackindex>10</trackindex>
							<clipindex>38</clipindex>
							<groupindex>1</groupindex>
						</link>
						<link>
							<linkclipref>clipitem-1079</linkclipref>
							<mediatype>audio</mediatype>
							<trackindex>11</trackindex>
							<clipindex>38</clipindex>
							<groupindex>1</groupindex>
						</link>
						<logginginfo>
							<description></description>
							<scene></scene>
							<shottake></shottake>
							<lognote></lognote>
						</logginginfo>
						<labels>
							<label2>Iris</label2>
						</labels>
					</clipitem>
					<clipitem id="clipitem-1080" premiereChannelType="stereo">
						<masterclipid>masterclip-60</masterclipid>
						<name>AA275501.MXF</name>
						<enabled>TRUE</enabled>
						<duration>6756</duration>
						<rate>
							<timebase>25</timebase>
							<ntsc>FALSE</ntsc>
						</rate>
						<start>24241</start>
						<end>24558</end>
						<in>5924</in>
						<out>6241</out>
						<pproTicksIn>60191631360000</pproTicksIn>
						<pproTicksOut>63412554240000</pproTicksOut>
						<file id="file-60"/>
						<sourcetrack>
							<mediatype>audio</mediatype>
							<trackindex>1</trackindex>
						</sourcetrack>
						<link>
							<linkclipref>clipitem-940</linkclipref>
							<mediatype>audio</mediatype>
							<trackindex>10</trackindex>
							<clipindex>39</clipindex>
							<groupindex>1</groupindex>
						</link>
						<link>
							<linkclipref>clipitem-1080</linkclipref>
							<mediatype>audio</mediatype>
							<trackindex>11</trackindex>
							<clipindex>39</clipindex>
							<groupindex>1</groupindex>
						</link>
						<logginginfo>
							<description></description>
							<scene></scene>
							<shottake></shottake>
							<lognote></lognote>
						</logginginfo>
						<labels>
							<label2>Iris</label2>
						</labels>
					</clipitem>
					<clipitem id="clipitem-1081" premiereChannelType="stereo">
						<masterclipid>masterclip-61</masterclipid>
						<name>AA276001.MXF</name>
						<enabled>TRUE</enabled>
						<duration>1260</duration>
						<rate>
							<timebase>25</timebase>
							<ntsc>FALSE</ntsc>
						</rate>
						<start>24558</start>
						<end>24687</end>
						<in>460</in>
						<out>589</out>
						<pproTicksIn>4673894400000</pproTicksIn>
						<pproTicksOut>5984616960000</pproTicksOut>
						<file id="file-61"/>
						<sourcetrack>
							<mediatype>audio</mediatype>
							<trackindex>1</trackindex>
						</sourcetrack>
							<filter>
								<effect>
									<name>Audio Levels</name>
									<effectid>audiolevels</effectid>
									<effectcategory>audiolevels</effectcategory>
									<effecttype>audiolevels</effecttype>
									<mediatype>audio</mediatype>
									<parameter authoringApp="PremierePro">
										<parameterid>level</parameterid>
										<name>Level</name>
										<valuemin>0</valuemin>
										<valuemax>3.98109</valuemax>
										<value>0</value>
									</parameter>
								</effect>
							</filter>
						<link>
							<linkclipref>clipitem-79</linkclipref>
							<mediatype>video</mediatype>
							<trackindex>1</trackindex>
							<clipindex>79</clipindex>
						</link>
						<link>
							<linkclipref>clipitem-750</linkclipref>
							<mediatype>audio</mediatype>
							<trackindex>8</trackindex>
							<clipindex>40</clipindex>
							<groupindex>1</groupindex>
						</link>
						<link>
							<linkclipref>clipitem-846</linkclipref>
							<mediatype>audio</mediatype>
							<trackindex>9</trackindex>
							<clipindex>40</clipindex>
							<groupindex>1</groupindex>
						</link>
						<link>
							<linkclipref>clipitem-941</linkclipref>
							<mediatype>audio</mediatype>
							<trackindex>10</trackindex>
							<clipindex>40</clipindex>
							<groupindex>1</groupindex>
						</link>
						<link>
							<linkclipref>clipitem-1081</linkclipref>
							<mediatype>audio</mediatype>
							<trackindex>11</trackindex>
							<clipindex>40</clipindex>
							<groupindex>1</groupindex>
						</link>
						<logginginfo>
							<description></description>
							<scene></scene>
							<shottake></shottake>
							<lognote></lognote>
						</logginginfo>
						<labels>
							<label2>Iris</label2>
						</labels>
					</clipitem>
					<clipitem id="clipitem-1082" premiereChannelType="stereo">
						<masterclipid>masterclip-62</masterclipid>
						<name>AA276101.MXF</name>
						<enabled>TRUE</enabled>
						<duration>564</duration>
						<rate>
							<timebase>25</timebase>
							<ntsc>FALSE</ntsc>
						</rate>
						<start>24687</start>
						<end>24756</end>
						<in>99</in>
						<out>168</out>
						<pproTicksIn>1005903360000</pproTicksIn>
						<pproTicksOut>1706987520000</pproTicksOut>
						<file id="file-62"/>
						<sourcetrack>
							<mediatype>audio</mediatype>
							<trackindex>1</trackindex>
						</sourcetrack>
							<filter>
								<effect>
									<name>Audio Levels</name>
									<effectid>audiolevels</effectid>
									<effectcategory>audiolevels</effectcategory>
									<effecttype>audiolevels</effecttype>
									<mediatype>audio</mediatype>
									<parameter authoringApp="PremierePro">
										<parameterid>level</parameterid>
										<name>Level</name>
										<valuemin>0</valuemin>
										<valuemax>3.98109</valuemax>
										<value>0</value>
									</parameter>
								</effect>
							</filter>
						<link>
							<linkclipref>clipitem-80</linkclipref>
							<mediatype>video</mediatype>
							<trackindex>1</trackindex>
							<clipindex>80</clipindex>
						</link>
						<link>
							<linkclipref>clipitem-751</linkclipref>
							<mediatype>audio</mediatype>
							<trackindex>8</trackindex>
							<clipindex>41</clipindex>
							<groupindex>1</groupindex>
						</link>
						<link>
							<linkclipref>clipitem-847</linkclipref>
							<mediatype>audio</mediatype>
							<trackindex>9</trackindex>
							<clipindex>41</clipindex>
							<groupindex>1</groupindex>
						</link>
						<link>
							<linkclipref>clipitem-942</linkclipref>
							<mediatype>audio</mediatype>
							<trackindex>10</trackindex>
							<clipindex>41</clipindex>
							<groupindex>1</groupindex>
						</link>
						<link>
							<linkclipref>clipitem-1082</linkclipref>
							<mediatype>audio</mediatype>
							<trackindex>11</trackindex>
							<clipindex>41</clipindex>
							<groupindex>1</groupindex>
						</link>
						<logginginfo>
							<description></description>
							<scene></scene>
							<shottake></shottake>
							<lognote></lognote>
						</logginginfo>
						<labels>
							<label2>Iris</label2>
						</labels>
					</clipitem>
					<clipitem id="clipitem-1083" premiereChannelType="stereo">
						<masterclipid>masterclip-63</masterclipid>
						<name>AA277101.MXF</name>
						<enabled>TRUE</enabled>
						<duration>5604</duration>
						<rate>
							<timebase>25</timebase>
							<ntsc>FALSE</ntsc>
						</rate>
						<start>24756</start>
						<end>25306</end>
						<in>2324</in>
						<out>2874</out>
						<pproTicksIn>23613327360000</pproTicksIn>
						<pproTicksOut>29201679360000</pproTicksOut>
						<file id="file-63"/>
						<sourcetrack>
							<mediatype>audio</mediatype>
							<trackindex>1</trackindex>
						</sourcetrack>
						<link>
							<linkclipref>clipitem-81</linkclipref>
							<mediatype>video</mediatype>
							<trackindex>1</trackindex>
							<clipindex>81</clipindex>
						</link>
						<link>
							<linkclipref>clipitem-752</linkclipref>
							<mediatype>audio</mediatype>
							<trackindex>8</trackindex>
							<clipindex>42</clipindex>
							<groupindex>1</groupindex>
						</link>
						<link>
							<linkclipref>clipitem-848</linkclipref>
							<mediatype>audio</mediatype>
							<trackindex>9</trackindex>
							<clipindex>42</clipindex>
							<groupindex>1</groupindex>
						</link>
						<link>
							<linkclipref>clipitem-943</linkclipref>
							<mediatype>audio</mediatype>
							<trackindex>10</trackindex>
							<clipindex>42</clipindex>
							<groupindex>1</groupindex>
						</link>
						<link>
							<linkclipref>clipitem-1083</linkclipref>
							<mediatype>audio</mediatype>
							<trackindex>11</trackindex>
							<clipindex>42</clipindex>
							<groupindex>1</groupindex>
						</link>
						<logginginfo>
							<description></description>
							<scene></scene>
							<shottake></shottake>
							<lognote></lognote>
						</logginginfo>
						<labels>
							<label2>Iris</label2>
						</labels>
					</clipitem>
					<clipitem id="clipitem-1084" premiereChannelType="stereo">
						<masterclipid>masterclip-63</masterclipid>
						<name>AA277101.MXF</name>
						<enabled>TRUE</enabled>
						<duration>5604</duration>
						<rate>
							<timebase>25</timebase>
							<ntsc>FALSE</ntsc>
						</rate>
						<start>25306</start>
						<end>25431</end>
						<in>2874</in>
						<out>2999</out>
						<pproTicksIn>29201679360000</pproTicksIn>
						<pproTicksOut>30471759360000</pproTicksOut>
						<file id="file-63"/>
						<sourcetrack>
							<mediatype>audio</mediatype>
							<trackindex>1</trackindex>
						</sourcetrack>
						<link>
							<linkclipref>clipitem-753</linkclipref>
							<mediatype>audio</mediatype>
							<trackindex>8</trackindex>
							<clipindex>43</clipindex>
							<groupindex>1</groupindex>
						</link>
						<link>
							<linkclipref>clipitem-849</linkclipref>
							<mediatype>audio</mediatype>
							<trackindex>9</trackindex>
							<clipindex>43</clipindex>
							<groupindex>1</groupindex>
						</link>
						<link>
							<linkclipref>clipitem-944</linkclipref>
							<mediatype>audio</mediatype>
							<trackindex>10</trackindex>
							<clipindex>43</clipindex>
							<groupindex>1</groupindex>
						</link>
						<link>
							<linkclipref>clipitem-1084</linkclipref>
							<mediatype>audio</mediatype>
							<trackindex>11</trackindex>
							<clipindex>43</clipindex>
							<groupindex>1</groupindex>
						</link>
						<logginginfo>
							<description></description>
							<scene></scene>
							<shottake></shottake>
							<lognote></lognote>
						</logginginfo>
						<labels>
							<label2>Iris</label2>
						</labels>
					</clipitem>
					<clipitem id="clipitem-1085" premiereChannelType="stereo">
						<masterclipid>masterclip-63</masterclipid>
						<name>AA277101.MXF</name>
						<enabled>TRUE</enabled>
						<duration>5604</duration>
						<rate>
							<timebase>25</timebase>
							<ntsc>FALSE</ntsc>
						</rate>
						<start>25431</start>
						<end>26270</end>
						<in>2999</in>
						<out>3838</out>
						<pproTicksIn>30471759360000</pproTicksIn>
						<pproTicksOut>38996536320000</pproTicksOut>
						<file id="file-63"/>
						<sourcetrack>
							<mediatype>audio</mediatype>
							<trackindex>1</trackindex>
						</sourcetrack>
						<link>
							<linkclipref>clipitem-83</linkclipref>
							<mediatype>video</mediatype>
							<trackindex>1</trackindex>
							<clipindex>83</clipindex>
						</link>
						<link>
							<linkclipref>clipitem-754</linkclipref>
							<mediatype>audio</mediatype>
							<trackindex>8</trackindex>
							<clipindex>44</clipindex>
							<groupindex>1</groupindex>
						</link>
						<link>
							<linkclipref>clipitem-850</linkclipref>
							<mediatype>audio</mediatype>
							<trackindex>9</trackindex>
							<clipindex>44</clipindex>
							<groupindex>1</groupindex>
						</link>
						<link>
							<linkclipref>clipitem-945</linkclipref>
							<mediatype>audio</mediatype>
							<trackindex>10</trackindex>
							<clipindex>44</clipindex>
							<groupindex>1</groupindex>
						</link>
						<link>
							<linkclipref>clipitem-1085</linkclipref>
							<mediatype>audio</mediatype>
							<trackindex>11</trackindex>
							<clipindex>44</clipindex>
							<groupindex>1</groupindex>
						</link>
						<logginginfo>
							<description></description>
							<scene></scene>
							<shottake></shottake>
							<lognote></lognote>
						</logginginfo>
						<labels>
							<label2>Iris</label2>
						</labels>
					</clipitem>
					<clipitem id="clipitem-1086" premiereChannelType="stereo">
						<masterclipid>masterclip-19</masterclipid>
						<name>20160515_184145.mp4</name>
						<enabled>TRUE</enabled>
						<duration>1485</duration>
						<rate>
							<timebase>25</timebase>
							<ntsc>FALSE</ntsc>
						</rate>
						<start>26436</start>
						<end>26684</end>
						<in>292</in>
						<out>540</out>
						<pproTicksIn>2966906880000</pproTicksIn>
						<pproTicksOut>5486745600000</pproTicksOut>
						<file id="file-19"/>
						<sourcetrack>
							<mediatype>audio</mediatype>
							<trackindex>2</trackindex>
						</sourcetrack>
							<filter>
								<effect>
									<name>Audio Levels</name>
									<effectid>audiolevels</effectid>
									<effectcategory>audiolevels</effectcategory>
									<effecttype>audiolevels</effecttype>
									<mediatype>audio</mediatype>
									<parameter authoringApp="PremierePro">
										<parameterid>level</parameterid>
										<name>Level</name>
										<valuemin>0</valuemin>
										<valuemax>3.98109</valuemax>
										<value>0</value>
										<keyframe>
											<when>476</when>
											<value>0.99763</value>
										</keyframe>
										<keyframe>
											<when>485</when>
											<value>0.396319</value>
										</keyframe>
										<keyframe>
											<when>504</when>
											<value>0.314322</value>
										</keyframe>
										<keyframe>
											<when>537</when>
											<value>0</value>
										</keyframe>
									</parameter>
								</effect>
							</filter>
						<link>
							<linkclipref>clipitem-946</linkclipref>
							<mediatype>audio</mediatype>
							<trackindex>10</trackindex>
							<clipindex>45</clipindex>
							<groupindex>1</groupindex>
						</link>
						<link>
							<linkclipref>clipitem-1086</linkclipref>
							<mediatype>audio</mediatype>
							<trackindex>11</trackindex>
							<clipindex>45</clipindex>
							<groupindex>1</groupindex>
						</link>
						<logginginfo>
							<description></description>
							<scene></scene>
							<shottake></shottake>
							<lognote></lognote>
						</logginginfo>
						<labels>
							<label2>Iris</label2>
						</labels>
					</clipitem>
					<clipitem id="clipitem-1087" premiereChannelType="stereo">
						<masterclipid>masterclip-319</masterclipid>
						<name>DVNA21000514BA</name>
						<enabled>TRUE</enabled>
						<duration>58886</duration>
						<rate>
							<timebase>25</timebase>
							<ntsc>FALSE</ntsc>
						</rate>
						<start>27363</start>
						<end>28115</end>
						<in>16063</in>
						<out>16815</out>
						<pproTicksIn>163210360320000</pproTicksIn>
						<pproTicksOut>170851161600000</pproTicksOut>
						<file id="file-319"/>
						<sourcetrack>
							<mediatype>audio</mediatype>
							<trackindex>4</trackindex>
						</sourcetrack>
							<filter>
								<effect>
									<name>Audio Levels</name>
									<effectid>audiolevels</effectid>
									<effectcategory>audiolevels</effectcategory>
									<effecttype>audiolevels</effecttype>
									<mediatype>audio</mediatype>
									<parameter authoringApp="PremierePro">
										<parameterid>level</parameterid>
										<name>Level</name>
										<valuemin>0</valuemin>
										<valuemax>3.98109</valuemax>
										<value>0</value>
										<keyframe>
											<when>16074</when>
											<value>0</value>
										</keyframe>
										<keyframe>
											<when>16083</when>
											<value>0.0536347</value>
										</keyframe>
										<keyframe>
											<when>16091</when>
											<value>0.119548</value>
										</keyframe>
										<keyframe>
											<when>16096</when>
											<value>0.99763</value>
										</keyframe>
										<keyframe>
											<when>16769</when>
											<value>0.99763</value>
										</keyframe>
										<keyframe>
											<when>16778</when>
											<value>0</value>
										</keyframe>
									</parameter>
								</effect>
							</filter>
						<link>
							<linkclipref>clipitem-947</linkclipref>
							<mediatype>audio</mediatype>
							<trackindex>10</trackindex>
							<clipindex>46</clipindex>
							<groupindex>1</groupindex>
						</link>
						<link>
							<linkclipref>clipitem-1087</linkclipref>
							<mediatype>audio</mediatype>
							<trackindex>11</trackindex>
							<clipindex>46</clipindex>
							<groupindex>1</groupindex>
						</link>
						<logginginfo>
							<description>Villmarkas voktere (5:8 @ Villmarkas voktere)</description>
							<scene></scene>
							<shottake></shottake>
							<lognote></lognote>
						</logginginfo>
						<labels>
							<label2>Iris</label2>
						</labels>
					</clipitem>
					<clipitem id="clipitem-1088" premiereChannelType="stereo">
						<masterclipid>masterclip-73</masterclipid>
						<name>uin-seervideo-111116-h_p1</name>
						<enabled>TRUE</enabled>
						<duration>5247</duration>
						<rate>
							<timebase>25</timebase>
							<ntsc>FALSE</ntsc>
						</rate>
						<start>28878</start>
						<end>29111</end>
						<in>3254</in>
						<out>3487</out>
						<pproTicksIn>33062722560000</pproTicksIn>
						<pproTicksOut>35430151680000</pproTicksOut>
						<file id="file-73"/>
						<sourcetrack>
							<mediatype>audio</mediatype>
							<trackindex>2</trackindex>
						</sourcetrack>
						<link>
							<linkclipref>clipitem-101</linkclipref>
							<mediatype>video</mediatype>
							<trackindex>1</trackindex>
							<clipindex>103</clipindex>
						</link>
						<link>
							<linkclipref>clipitem-948</linkclipref>
							<mediatype>audio</mediatype>
							<trackindex>10</trackindex>
							<clipindex>47</clipindex>
							<groupindex>1</groupindex>
						</link>
						<link>
							<linkclipref>clipitem-1088</linkclipref>
							<mediatype>audio</mediatype>
							<trackindex>11</trackindex>
							<clipindex>47</clipindex>
							<groupindex>1</groupindex>
						</link>
						<logginginfo>
							<description>DVNA60000116AA</description>
							<scene></scene>
							<shottake></shottake>
							<lognote></lognote>
						</logginginfo>
						<labels>
							<label2>Iris</label2>
						</labels>
					</clipitem>
					<clipitem id="clipitem-1089" premiereChannelType="stereo">
						<masterclipid>masterclip-77</masterclipid>
						<name>AA277601.MXF</name>
						<enabled>TRUE</enabled>
						<duration>4476</duration>
						<rate>
							<timebase>25</timebase>
							<ntsc>FALSE</ntsc>
						</rate>
						<start>30934</start>
						<end>-1</end>
						<in>4167</in>
						<out>4399</out>
						<pproTicksIn>42339386880000</pproTicksIn>
						<pproTicksOut>44696655360000</pproTicksOut>
						<file id="file-77"/>
						<sourcetrack>
							<mediatype>audio</mediatype>
							<trackindex>1</trackindex>
						</sourcetrack>
							<filter>
								<effect>
									<name>Audio Levels</name>
									<effectid>audiolevels</effectid>
									<effectcategory>audiolevels</effectcategory>
									<effecttype>audiolevels</effecttype>
									<mediatype>audio</mediatype>
									<parameter authoringApp="PremierePro">
										<parameterid>level</parameterid>
										<name>Level</name>
										<valuemin>0</valuemin>
										<valuemax>3.98109</valuemax>
										<value>0.99763</value>
										<keyframe>
											<when>4172</when>
											<value>0</value>
										</keyframe>
										<keyframe>
											<when>4180</when>
											<value>0.99763</value>
										</keyframe>
									</parameter>
								</effect>
							</filter>
						<link>
							<linkclipref>clipitem-949</linkclipref>
							<mediatype>audio</mediatype>
							<trackindex>10</trackindex>
							<clipindex>48</clipindex>
							<groupindex>1</groupindex>
						</link>
						<link>
							<linkclipref>clipitem-1089</linkclipref>
							<mediatype>audio</mediatype>
							<trackindex>11</trackindex>
							<clipindex>48</clipindex>
							<groupindex>1</groupindex>
						</link>
						<logginginfo>
							<description></description>
							<scene></scene>
							<shottake></shottake>
							<lognote></lognote>
						</logginginfo>
						<labels>
							<label2>Iris</label2>
						</labels>
					</clipitem>
					<transitionitem>
						<start>31153</start>
						<end>31166</end>
						<alignment>end-black</alignment>
						<cutPointTicks>132088320000</cutPointTicks>
						<rate>
							<timebase>25</timebase>
							<ntsc>FALSE</ntsc>
						</rate>
						<effect>
							<name>Cross Fade (+3dB)</name>
							<effectid>KGAudioTransCrossFade3dB</effectid>
							<effecttype>transition</effecttype>
							<mediatype>audio</mediatype>
							<wipecode>0</wipecode>
							<wipeaccuracy>100</wipeaccuracy>
							<startratio>0</startratio>
							<endratio>1</endratio>
							<reverse>FALSE</reverse>
						</effect>
					</transitionitem>
					<clipitem id="clipitem-1090" premiereChannelType="stereo">
						<masterclipid>masterclip-84</masterclipid>
						<name>isfiskeroye-3-210415r-029.mxf</name>
						<enabled>TRUE</enabled>
						<duration>8654</duration>
						<rate>
							<timebase>25</timebase>
							<ntsc>FALSE</ntsc>
						</rate>
						<start>31694</start>
						<end>31823</end>
						<in>6168</in>
						<out>6297</out>
						<pproTicksIn>62670827520000</pproTicksIn>
						<pproTicksOut>63981550080000</pproTicksOut>
						<file id="file-84"/>
						<sourcetrack>
							<mediatype>audio</mediatype>
							<trackindex>4</trackindex>
						</sourcetrack>
							<filter>
								<effect>
									<name>Audio Levels</name>
									<effectid>audiolevels</effectid>
									<effectcategory>audiolevels</effectcategory>
									<effecttype>audiolevels</effecttype>
									<mediatype>audio</mediatype>
									<parameter authoringApp="PremierePro">
										<parameterid>level</parameterid>
										<name>Level</name>
										<valuemin>0</valuemin>
										<valuemax>3.98109</valuemax>
										<value>0.151156</value>
									</parameter>
								</effect>
							</filter>
						<link>
							<linkclipref>clipitem-118</linkclipref>
							<mediatype>video</mediatype>
							<trackindex>1</trackindex>
							<clipindex>124</clipindex>
						</link>
						<link>
							<linkclipref>clipitem-950</linkclipref>
							<mediatype>audio</mediatype>
							<trackindex>10</trackindex>
							<clipindex>50</clipindex>
							<groupindex>1</groupindex>
						</link>
						<link>
							<linkclipref>clipitem-1090</linkclipref>
							<mediatype>audio</mediatype>
							<trackindex>11</trackindex>
							<clipindex>50</clipindex>
							<groupindex>1</groupindex>
						</link>
						<logginginfo>
							<description></description>
							<scene></scene>
							<shottake></shottake>
							<lognote></lognote>
						</logginginfo>
						<labels>
							<label2>Iris</label2>
						</labels>
					</clipitem>
					<clipitem id="clipitem-1091" premiereChannelType="stereo">
						<masterclipid>masterclip-84</masterclipid>
						<name>isfiskeroye-3-210415r-029.mxf</name>
						<enabled>TRUE</enabled>
						<duration>8654</duration>
						<rate>
							<timebase>25</timebase>
							<ntsc>FALSE</ntsc>
						</rate>
						<start>31823</start>
						<end>32021</end>
						<in>7245</in>
						<out>7443</out>
						<pproTicksIn>73613836800000</pproTicksIn>
						<pproTicksOut>75625643520000</pproTicksOut>
						<file id="file-84"/>
						<sourcetrack>
							<mediatype>audio</mediatype>
							<trackindex>4</trackindex>
						</sourcetrack>
							<filter>
								<effect>
									<name>Audio Levels</name>
									<effectid>audiolevels</effectid>
									<effectcategory>audiolevels</effectcategory>
									<effecttype>audiolevels</effecttype>
									<mediatype>audio</mediatype>
									<parameter authoringApp="PremierePro">
										<parameterid>level</parameterid>
										<name>Level</name>
										<valuemin>0</valuemin>
										<valuemax>3.98109</valuemax>
										<value>0.151156</value>
									</parameter>
								</effect>
							</filter>
						<link>
							<linkclipref>clipitem-119</linkclipref>
							<mediatype>video</mediatype>
							<trackindex>1</trackindex>
							<clipindex>125</clipindex>
						</link>
						<link>
							<linkclipref>clipitem-951</linkclipref>
							<mediatype>audio</mediatype>
							<trackindex>10</trackindex>
							<clipindex>51</clipindex>
							<groupindex>1</groupindex>
						</link>
						<link>
							<linkclipref>clipitem-1091</linkclipref>
							<mediatype>audio</mediatype>
							<trackindex>11</trackindex>
							<clipindex>51</clipindex>
							<groupindex>1</groupindex>
						</link>
						<logginginfo>
							<description></description>
							<scene></scene>
							<shottake></shottake>
							<lognote></lognote>
						</logginginfo>
						<labels>
							<label2>Iris</label2>
						</labels>
					</clipitem>
					<clipitem id="clipitem-1092" premiereChannelType="stereo">
						<masterclipid>masterclip-84</masterclipid>
						<name>isfiskeroye-3-210415r-029.mxf</name>
						<enabled>TRUE</enabled>
						<duration>8654</duration>
						<rate>
							<timebase>25</timebase>
							<ntsc>FALSE</ntsc>
						</rate>
						<start>32021</start>
						<end>32073</end>
						<in>7497</in>
						<out>7549</out>
						<pproTicksIn>76174318080000</pproTicksIn>
						<pproTicksOut>76702671360000</pproTicksOut>
						<file id="file-84"/>
						<sourcetrack>
							<mediatype>audio</mediatype>
							<trackindex>4</trackindex>
						</sourcetrack>
							<filter>
								<effect>
									<name>Audio Levels</name>
									<effectid>audiolevels</effectid>
									<effectcategory>audiolevels</effectcategory>
									<effecttype>audiolevels</effecttype>
									<mediatype>audio</mediatype>
									<parameter authoringApp="PremierePro">
										<parameterid>level</parameterid>
										<name>Level</name>
										<valuemin>0</valuemin>
										<valuemax>3.98109</valuemax>
										<value>0.151156</value>
									</parameter>
								</effect>
							</filter>
						<link>
							<linkclipref>clipitem-952</linkclipref>
							<mediatype>audio</mediatype>
							<trackindex>10</trackindex>
							<clipindex>52</clipindex>
							<groupindex>1</groupindex>
						</link>
						<link>
							<linkclipref>clipitem-1092</linkclipref>
							<mediatype>audio</mediatype>
							<trackindex>11</trackindex>
							<clipindex>52</clipindex>
							<groupindex>1</groupindex>
						</link>
						<logginginfo>
							<description></description>
							<scene></scene>
							<shottake></shottake>
							<lognote></lognote>
						</logginginfo>
						<labels>
							<label2>Iris</label2>
						</labels>
					</clipitem>
					<clipitem id="clipitem-1093" premiereChannelType="stereo">
						<masterclipid>masterclip-84</masterclipid>
						<name>isfiskeroye-3-210415r-029.mxf</name>
						<enabled>TRUE</enabled>
						<duration>8654</duration>
						<rate>
							<timebase>25</timebase>
							<ntsc>FALSE</ntsc>
						</rate>
						<start>32073</start>
						<end>32091</end>
						<in>7579</in>
						<out>7597</out>
						<pproTicksIn>77007490560000</pproTicksIn>
						<pproTicksOut>77190382080000</pproTicksOut>
						<file id="file-84"/>
						<sourcetrack>
							<mediatype>audio</mediatype>
							<trackindex>4</trackindex>
						</sourcetrack>
							<filter>
								<effect>
									<name>Audio Levels</name>
									<effectid>audiolevels</effectid>
									<effectcategory>audiolevels</effectcategory>
									<effecttype>audiolevels</effecttype>
									<mediatype>audio</mediatype>
									<parameter authoringApp="PremierePro">
										<parameterid>level</parameterid>
										<name>Level</name>
										<valuemin>0</valuemin>
										<valuemax>3.98109</valuemax>
										<value>0.151156</value>
									</parameter>
								</effect>
							</filter>
						<link>
							<linkclipref>clipitem-953</linkclipref>
							<mediatype>audio</mediatype>
							<trackindex>10</trackindex>
							<clipindex>53</clipindex>
							<groupindex>1</groupindex>
						</link>
						<link>
							<linkclipref>clipitem-1093</linkclipref>
							<mediatype>audio</mediatype>
							<trackindex>11</trackindex>
							<clipindex>53</clipindex>
							<groupindex>1</groupindex>
						</link>
						<logginginfo>
							<description></description>
							<scene></scene>
							<shottake></shottake>
							<lognote></lognote>
						</logginginfo>
						<labels>
							<label2>Iris</label2>
						</labels>
					</clipitem>
					<clipitem id="clipitem-1094" premiereChannelType="stereo">
						<masterclipid>masterclip-84</masterclipid>
						<name>isfiskeroye-3-210415r-029.mxf</name>
						<enabled>TRUE</enabled>
						<duration>8654</duration>
						<rate>
							<timebase>25</timebase>
							<ntsc>FALSE</ntsc>
						</rate>
						<start>32091</start>
						<end>32116</end>
						<in>7628</in>
						<out>7653</out>
						<pproTicksIn>77505361920000</pproTicksIn>
						<pproTicksOut>77759377920000</pproTicksOut>
						<file id="file-84"/>
						<sourcetrack>
							<mediatype>audio</mediatype>
							<trackindex>4</trackindex>
						</sourcetrack>
							<filter>
								<effect>
									<name>Audio Levels</name>
									<effectid>audiolevels</effectid>
									<effectcategory>audiolevels</effectcategory>
									<effecttype>audiolevels</effecttype>
									<mediatype>audio</mediatype>
									<parameter authoringApp="PremierePro">
										<parameterid>level</parameterid>
										<name>Level</name>
										<valuemin>0</valuemin>
										<valuemax>3.98109</valuemax>
										<value>0.151156</value>
									</parameter>
								</effect>
							</filter>
						<link>
							<linkclipref>clipitem-954</linkclipref>
							<mediatype>audio</mediatype>
							<trackindex>10</trackindex>
							<clipindex>54</clipindex>
							<groupindex>1</groupindex>
						</link>
						<link>
							<linkclipref>clipitem-1094</linkclipref>
							<mediatype>audio</mediatype>
							<trackindex>11</trackindex>
							<clipindex>54</clipindex>
							<groupindex>1</groupindex>
						</link>
						<logginginfo>
							<description></description>
							<scene></scene>
							<shottake></shottake>
							<lognote></lognote>
						</logginginfo>
						<labels>
							<label2>Iris</label2>
						</labels>
					</clipitem>
					<clipitem id="clipitem-1095" premiereChannelType="stereo">
						<masterclipid>masterclip-85</masterclipid>
						<name>isfiskeroye-3-210415r-033.mxf</name>
						<enabled>TRUE</enabled>
						<duration>3106</duration>
						<rate>
							<timebase>25</timebase>
							<ntsc>FALSE</ntsc>
						</rate>
						<start>32116</start>
						<end>-1</end>
						<in>284</in>
						<out>881</out>
						<pproTicksIn>2885621760000</pproTicksIn>
						<pproTicksOut>8951523840000</pproTicksOut>
						<file id="file-85"/>
						<sourcetrack>
							<mediatype>audio</mediatype>
							<trackindex>4</trackindex>
						</sourcetrack>
							<filter>
								<effect>
									<name>Audio Levels</name>
									<effectid>audiolevels</effectid>
									<effectcategory>audiolevels</effectcategory>
									<effecttype>audiolevels</effecttype>
									<mediatype>audio</mediatype>
									<parameter authoringApp="PremierePro">
										<parameterid>level</parameterid>
										<name>Level</name>
										<valuemin>0</valuemin>
										<valuemax>3.98109</valuemax>
										<value>0.151156</value>
									</parameter>
								</effect>
							</filter>
						<link>
							<linkclipref>clipitem-121</linkclipref>
							<mediatype>video</mediatype>
							<trackindex>1</trackindex>
							<clipindex>127</clipindex>
						</link>
						<link>
							<linkclipref>clipitem-955</linkclipref>
							<mediatype>audio</mediatype>
							<trackindex>10</trackindex>
							<clipindex>55</clipindex>
							<groupindex>1</groupindex>
						</link>
						<link>
							<linkclipref>clipitem-1095</linkclipref>
							<mediatype>audio</mediatype>
							<trackindex>11</trackindex>
							<clipindex>55</clipindex>
							<groupindex>1</groupindex>
						</link>
						<logginginfo>
							<description></description>
							<scene></scene>
							<shottake></shottake>
							<lognote></lognote>
						</logginginfo>
						<labels>
							<label2>Iris</label2>
						</labels>
					</clipitem>
					<transitionitem>
						<start>32700</start>
						<end>32713</end>
						<alignment>end-black</alignment>
						<cutPointTicks>132088320000</cutPointTicks>
						<rate>
							<timebase>25</timebase>
							<ntsc>FALSE</ntsc>
						</rate>
						<effect>
							<name>Cross Fade (+3dB)</name>
							<effectid>KGAudioTransCrossFade3dB</effectid>
							<effecttype>transition</effecttype>
							<mediatype>audio</mediatype>
							<wipecode>0</wipecode>
							<wipeaccuracy>100</wipeaccuracy>
							<startratio>0</startratio>
							<endratio>1</endratio>
							<reverse>FALSE</reverse>
						</effect>
					</transitionitem>
					<clipitem id="clipitem-1096" premiereChannelType="stereo">
						<masterclipid>masterclip-320</masterclipid>
						<name>Lyd isbre.mov</name>
						<enabled>TRUE</enabled>
						<duration>203</duration>
						<rate>
							<timebase>25</timebase>
							<ntsc>FALSE</ntsc>
						</rate>
						<start>35709</start>
						<end>35912</end>
						<in>0</in>
						<out>203</out>
						<pproTicksIn>0</pproTicksIn>
						<pproTicksOut>2062609920000</pproTicksOut>
						<file id="file-320"/>
						<sourcetrack>
							<mediatype>audio</mediatype>
							<trackindex>2</trackindex>
						</sourcetrack>
							<filter>
								<effect>
									<name>Audio Levels</name>
									<effectid>audiolevels</effectid>
									<effectcategory>audiolevels</effectcategory>
									<effecttype>audiolevels</effecttype>
									<mediatype>audio</mediatype>
									<parameter authoringApp="PremierePro">
										<parameterid>level</parameterid>
										<name>Level</name>
										<valuemin>0</valuemin>
										<valuemax>3.98109</valuemax>
										<value>0</value>
										<keyframe>
											<when>0</when>
											<value>0</value>
										</keyframe>
										<keyframe>
											<when>40</when>
											<value>0.816243</value>
										</keyframe>
										<keyframe>
											<when>131</when>
											<value>0.816243</value>
										</keyframe>
										<keyframe>
											<when>162</when>
											<value>0</value>
										</keyframe>
									</parameter>
								</effect>
							</filter>
						<link>
							<linkclipref>clipitem-956</linkclipref>
							<mediatype>audio</mediatype>
							<trackindex>10</trackindex>
							<clipindex>57</clipindex>
							<groupindex>1</groupindex>
						</link>
						<link>
							<linkclipref>clipitem-1096</linkclipref>
							<mediatype>audio</mediatype>
							<trackindex>11</trackindex>
							<clipindex>57</clipindex>
							<groupindex>1</groupindex>
						</link>
						<logginginfo>
							<description></description>
							<scene></scene>
							<shottake></shottake>
							<lognote></lognote>
						</logginginfo>
						<labels>
							<label2>Lavender</label2>
						</labels>
					</clipitem>
					<clipitem id="clipitem-1097" premiereChannelType="stereo">
						<masterclipid>masterclip-97</masterclipid>
						<name>AA011001.MXF</name>
						<enabled>TRUE</enabled>
						<duration>2088</duration>
						<rate>
							<timebase>25</timebase>
							<ntsc>FALSE</ntsc>
						</rate>
						<start>36838</start>
						<end>37096</end>
						<in>885</in>
						<out>1143</out>
						<pproTicksIn>8992166400000</pproTicksIn>
						<pproTicksOut>11613611520000</pproTicksOut>
						<file id="file-97"/>
						<sourcetrack>
							<mediatype>audio</mediatype>
							<trackindex>4</trackindex>
						</sourcetrack>
							<filter>
								<effect>
									<name>Audio Levels</name>
									<effectid>audiolevels</effectid>
									<effectcategory>audiolevels</effectcategory>
									<effecttype>audiolevels</effecttype>
									<mediatype>audio</mediatype>
									<parameter authoringApp="PremierePro">
										<parameterid>level</parameterid>
										<name>Level</name>
										<valuemin>0</valuemin>
										<valuemax>3.98109</valuemax>
										<value>0</value>
										<keyframe>
											<when>919</when>
											<value>0</value>
										</keyframe>
										<keyframe>
											<when>939</when>
											<value>0.530654</value>
										</keyframe>
										<keyframe>
											<when>1080</when>
											<value>0.530654</value>
										</keyframe>
										<keyframe>
											<when>1135</when>
											<value>0</value>
										</keyframe>
									</parameter>
								</effect>
							</filter>
						<link>
							<linkclipref>clipitem-138</linkclipref>
							<mediatype>video</mediatype>
							<trackindex>1</trackindex>
							<clipindex>147</clipindex>
						</link>
						<link>
							<linkclipref>clipitem-957</linkclipref>
							<mediatype>audio</mediatype>
							<trackindex>10</trackindex>
							<clipindex>58</clipindex>
							<groupindex>1</groupindex>
						</link>
						<link>
							<linkclipref>clipitem-1097</linkclipref>
							<mediatype>audio</mediatype>
							<trackindex>11</trackindex>
							<clipindex>58</clipindex>
							<groupindex>1</groupindex>
						</link>
						<logginginfo>
							<description></description>
							<scene></scene>
							<shottake></shottake>
							<lognote></lognote>
						</logginginfo>
						<labels>
							<label2>Iris</label2>
						</labels>
					</clipitem>
					<clipitem id="clipitem-1098" premiereChannelType="stereo">
						<masterclipid>masterclip-104</masterclipid>
						<name>NRK2-210616.mxf</name>
						<enabled>TRUE</enabled>
						<duration>198000</duration>
						<rate>
							<timebase>25</timebase>
							<ntsc>FALSE</ntsc>
						</rate>
						<start>37367</start>
						<end>37582</end>
						<in>194103</in>
						<out>194317</out>
						<pproTicksIn>1972210705920000</pproTicksIn>
						<pproTicksOut>1974385082880000</pproTicksOut>
						<file id="file-104"/>
						<sourcetrack>
							<mediatype>audio</mediatype>
							<trackindex>4</trackindex>
						</sourcetrack>
						<link>
							<linkclipref>clipitem-145</linkclipref>
							<mediatype>video</mediatype>
							<trackindex>1</trackindex>
							<clipindex>154</clipindex>
						</link>
						<link>
							<linkclipref>clipitem-958</linkclipref>
							<mediatype>audio</mediatype>
							<trackindex>10</trackindex>
							<clipindex>59</clipindex>
							<groupindex>1</groupindex>
						</link>
						<link>
							<linkclipref>clipitem-1098</linkclipref>
							<mediatype>audio</mediatype>
							<trackindex>11</trackindex>
							<clipindex>59</clipindex>
							<groupindex>1</groupindex>
						</link>
						<logginginfo>
							<description>Program 6</description>
							<scene></scene>
							<shottake></shottake>
							<lognote></lognote>
						</logginginfo>
						<labels>
							<label2>Iris</label2>
						</labels>
					</clipitem>
					<transitionitem>
						<start>37650</start>
						<end>37662</end>
						<alignment>start-black</alignment>
						<cutPointTicks>0</cutPointTicks>
						<rate>
							<timebase>25</timebase>
							<ntsc>FALSE</ntsc>
						</rate>
						<effect>
							<name>Cross Fade (+3dB)</name>
							<effectid>KGAudioTransCrossFade3dB</effectid>
							<effecttype>transition</effecttype>
							<mediatype>audio</mediatype>
							<wipecode>0</wipecode>
							<wipeaccuracy>100</wipeaccuracy>
							<startratio>0</startratio>
							<endratio>1</endratio>
							<reverse>FALSE</reverse>
						</effect>
					</transitionitem>
					<clipitem id="clipitem-1099" premiereChannelType="stereo">
						<masterclipid>masterclip-98</masterclipid>
						<name>DVNA60000316AA</name>
						<enabled>TRUE</enabled>
						<duration>58641</duration>
						<rate>
							<timebase>25</timebase>
							<ntsc>FALSE</ntsc>
						</rate>
						<start>-1</start>
						<end>37724</end>
						<in>17833</in>
						<out>17908</out>
						<pproTicksIn>181194693120000</pproTicksIn>
						<pproTicksOut>181956741120000</pproTicksOut>
						<file id="file-98"/>
						<sourcetrack>
							<mediatype>audio</mediatype>
							<trackindex>6</trackindex>
						</sourcetrack>
						<link>
							<linkclipref>clipitem-325</linkclipref>
							<mediatype>video</mediatype>
							<trackindex>2</trackindex>
							<clipindex>69</clipindex>
						</link>
						<link>
							<linkclipref>clipitem-959</linkclipref>
							<mediatype>audio</mediatype>
							<trackindex>10</trackindex>
							<clipindex>61</clipindex>
							<groupindex>1</groupindex>
						</link>
						<link>
							<linkclipref>clipitem-1099</linkclipref>
							<mediatype>audio</mediatype>
							<trackindex>11</trackindex>
							<clipindex>61</clipindex>
							<groupindex>1</groupindex>
						</link>
						<logginginfo>
							<description>Ut i naturen - Hornøya</description>
							<scene></scene>
							<shottake></shottake>
							<lognote></lognote>
						</logginginfo>
						<labels>
							<label2>Iris</label2>
						</labels>
					</clipitem>
					<clipitem id="clipitem-1100" premiereChannelType="stereo">
						<masterclipid>masterclip-98</masterclipid>
						<name>DVNA60000316AA</name>
						<enabled>TRUE</enabled>
						<duration>58641</duration>
						<rate>
							<timebase>25</timebase>
							<ntsc>FALSE</ntsc>
						</rate>
						<start>38281</start>
						<end>38426</end>
						<in>4965</in>
						<out>5110</out>
						<pproTicksIn>50447577600000</pproTicksIn>
						<pproTicksOut>51920870400000</pproTicksOut>
						<file id="file-98"/>
						<sourcetrack>
							<mediatype>audio</mediatype>
							<trackindex>6</trackindex>
						</sourcetrack>
							<filter>
								<effect>
									<name>Gain</name>
									<effectid>{61756678, 4761696e, 4b657947}</effectid>
									<effecttype>filter</effecttype>
									<mediatype>audio</mediatype>
									<parameter authoringApp="PremierePro">
										<parameterid>Gain(dB)</parameterid>
										<name>Gain(dB)</name>
										<valuemin>-96</valuemin>
										<valuemax>96</valuemax>
										<value>-10</value>
									</parameter>
								</effect>
							</filter>
						<link>
							<linkclipref>clipitem-960</linkclipref>
							<mediatype>audio</mediatype>
							<trackindex>10</trackindex>
							<clipindex>62</clipindex>
							<groupindex>1</groupindex>
						</link>
						<link>
							<linkclipref>clipitem-1100</linkclipref>
							<mediatype>audio</mediatype>
							<trackindex>11</trackindex>
							<clipindex>62</clipindex>
							<groupindex>1</groupindex>
						</link>
						<logginginfo>
							<description>Ut i naturen - Hornøya</description>
							<scene></scene>
							<shottake></shottake>
							<lognote></lognote>
						</logginginfo>
						<labels>
							<label2>Iris</label2>
						</labels>
					</clipitem>
					<clipitem id="clipitem-1101" premiereChannelType="stereo">
						<masterclipid>masterclip-104</masterclipid>
						<name>NRK2-210616.mxf</name>
						<enabled>TRUE</enabled>
						<duration>198000</duration>
						<rate>
							<timebase>25</timebase>
							<ntsc>FALSE</ntsc>
						</rate>
						<start>38505</start>
						<end>38843</end>
						<in>85193</in>
						<out>85530</out>
						<pproTicksIn>865615403520000</pproTicksIn>
						<pproTicksOut>869039539200000</pproTicksOut>
						<file id="file-104"/>
						<sourcetrack>
							<mediatype>audio</mediatype>
							<trackindex>4</trackindex>
						</sourcetrack>
							<filter>
								<effect>
									<name>Audio Levels</name>
									<effectid>audiolevels</effectid>
									<effectcategory>audiolevels</effectcategory>
									<effecttype>audiolevels</effecttype>
									<mediatype>audio</mediatype>
									<parameter authoringApp="PremierePro">
										<parameterid>level</parameterid>
										<name>Level</name>
										<valuemin>0</valuemin>
										<valuemax>3.98109</valuemax>
										<value>0</value>
										<keyframe>
											<when>85192</when>
											<value>0</value>
										</keyframe>
										<keyframe>
											<when>85218</when>
											<value>0.99763</value>
										</keyframe>
										<keyframe>
											<when>85506</when>
											<value>0.99763</value>
										</keyframe>
										<keyframe>
											<when>85528</when>
											<value>0</value>
										</keyframe>
									</parameter>
								</effect>
							</filter>
						<link>
							<linkclipref>clipitem-961</linkclipref>
							<mediatype>audio</mediatype>
							<trackindex>10</trackindex>
							<clipindex>63</clipindex>
							<groupindex>1</groupindex>
						</link>
						<link>
							<linkclipref>clipitem-1101</linkclipref>
							<mediatype>audio</mediatype>
							<trackindex>11</trackindex>
							<clipindex>63</clipindex>
							<groupindex>1</groupindex>
						</link>
						<logginginfo>
							<description>Program 6</description>
							<scene></scene>
							<shottake></shottake>
							<lognote></lognote>
						</logginginfo>
						<labels>
							<label2>Iris</label2>
						</labels>
					</clipitem>
					<clipitem id="clipitem-1102" premiereChannelType="stereo">
						<masterclipid>masterclip-205</masterclipid>
						<name>NRK1-210616.mxf</name>
						<enabled>TRUE</enabled>
						<duration>81914</duration>
						<rate>
							<timebase>25</timebase>
							<ntsc>FALSE</ntsc>
						</rate>
						<start>38949</start>
						<end>39371</end>
						<in>1497</in>
						<out>1920</out>
						<pproTicksIn>15210478080000</pproTicksIn>
						<pproTicksOut>19508428800000</pproTicksOut>
						<file id="file-205"/>
						<sourcetrack>
							<mediatype>audio</mediatype>
							<trackindex>2</trackindex>
						</sourcetrack>
							<filter>
								<effect>
									<name>Audio Levels</name>
									<effectid>audiolevels</effectid>
									<effectcategory>audiolevels</effectcategory>
									<effecttype>audiolevels</effecttype>
									<mediatype>audio</mediatype>
									<parameter authoringApp="PremierePro">
										<parameterid>level</parameterid>
										<name>Level</name>
										<valuemin>0</valuemin>
										<valuemax>3.98109</valuemax>
										<value>0</value>
										<keyframe>
											<when>1262</when>
											<value>0</value>
										</keyframe>
										<keyframe>
											<when>1328</when>
											<value>0.976404</value>
										</keyframe>
										<keyframe>
											<when>1461</when>
											<value>0.976404</value>
										</keyframe>
										<keyframe>
											<when>1492</when>
											<value>0.99763</value>
										</keyframe>
										<keyframe>
											<when>1900</when>
											<value>0.99763</value>
										</keyframe>
										<keyframe>
											<when>1916</when>
											<value>0</value>
										</keyframe>
									</parameter>
								</effect>
							</filter>
						<link>
							<linkclipref>clipitem-962</linkclipref>
							<mediatype>audio</mediatype>
							<trackindex>10</trackindex>
							<clipindex>64</clipindex>
							<groupindex>1</groupindex>
						</link>
						<link>
							<linkclipref>clipitem-1102</linkclipref>
							<mediatype>audio</mediatype>
							<trackindex>11</trackindex>
							<clipindex>64</clipindex>
							<groupindex>1</groupindex>
						</link>
						<logginginfo>
							<description>DVNA20000616</description>
							<scene></scene>
							<shottake></shottake>
							<lognote></lognote>
						</logginginfo>
						<labels>
							<label2>Iris</label2>
						</labels>
					</clipitem>
					<clipitem id="clipitem-1103" premiereChannelType="stereo">
						<masterclipid>masterclip-206</masterclipid>
						<name>AA017401.MXF</name>
						<enabled>TRUE</enabled>
						<duration>1104</duration>
						<rate>
							<timebase>25</timebase>
							<ntsc>FALSE</ntsc>
						</rate>
						<start>39562</start>
						<end>39662</end>
						<in>847</in>
						<out>947</out>
						<pproTicksIn>8606062080000</pproTicksIn>
						<pproTicksOut>9622126080000</pproTicksOut>
						<file id="file-206"/>
						<sourcetrack>
							<mediatype>audio</mediatype>
							<trackindex>4</trackindex>
						</sourcetrack>
							<filter>
								<effect>
									<name>Audio Levels</name>
									<effectid>audiolevels</effectid>
									<effectcategory>audiolevels</effectcategory>
									<effecttype>audiolevels</effecttype>
									<mediatype>audio</mediatype>
									<parameter authoringApp="PremierePro">
										<parameterid>level</parameterid>
										<name>Level</name>
										<valuemin>0</valuemin>
										<valuemax>3.98109</valuemax>
										<value>0.99763</value>
										<keyframe>
											<when>851</when>
											<value>0</value>
										</keyframe>
										<keyframe>
											<when>885</when>
											<value>0.99763</value>
										</keyframe>
									</parameter>
								</effect>
							</filter>
						<link>
							<linkclipref>clipitem-333</linkclipref>
							<mediatype>video</mediatype>
							<trackindex>2</trackindex>
							<clipindex>77</clipindex>
						</link>
						<link>
							<linkclipref>clipitem-783</linkclipref>
							<mediatype>audio</mediatype>
							<trackindex>8</trackindex>
							<clipindex>79</clipindex>
							<groupindex>1</groupindex>
						</link>
						<link>
							<linkclipref>clipitem-877</linkclipref>
							<mediatype>audio</mediatype>
							<trackindex>9</trackindex>
							<clipindex>77</clipindex>
							<groupindex>1</groupindex>
						</link>
						<link>
							<linkclipref>clipitem-963</linkclipref>
							<mediatype>audio</mediatype>
							<trackindex>10</trackindex>
							<clipindex>65</clipindex>
							<groupindex>1</groupindex>
						</link>
						<link>
							<linkclipref>clipitem-1103</linkclipref>
							<mediatype>audio</mediatype>
							<trackindex>11</trackindex>
							<clipindex>65</clipindex>
							<groupindex>1</groupindex>
						</link>
						<logginginfo>
							<description></description>
							<scene></scene>
							<shottake></shottake>
							<lognote></lognote>
						</logginginfo>
						<labels>
							<label2>Iris</label2>
						</labels>
					</clipitem>
					<clipitem id="clipitem-1104" premiereChannelType="stereo">
						<masterclipid>masterclip-207</masterclipid>
						<name>AA018201.MXF</name>
						<enabled>TRUE</enabled>
						<duration>1152</duration>
						<rate>
							<timebase>25</timebase>
							<ntsc>FALSE</ntsc>
						</rate>
						<start>39662</start>
						<end>39774</end>
						<in>192</in>
						<out>304</out>
						<pproTicksIn>1950842880000</pproTicksIn>
						<pproTicksOut>3088834560000</pproTicksOut>
						<file id="file-207"/>
						<sourcetrack>
							<mediatype>audio</mediatype>
							<trackindex>4</trackindex>
						</sourcetrack>
						<link>
							<linkclipref>clipitem-334</linkclipref>
							<mediatype>video</mediatype>
							<trackindex>2</trackindex>
							<clipindex>78</clipindex>
						</link>
						<link>
							<linkclipref>clipitem-784</linkclipref>
							<mediatype>audio</mediatype>
							<trackindex>8</trackindex>
							<clipindex>80</clipindex>
							<groupindex>1</groupindex>
						</link>
						<link>
							<linkclipref>clipitem-878</linkclipref>
							<mediatype>audio</mediatype>
							<trackindex>9</trackindex>
							<clipindex>78</clipindex>
							<groupindex>1</groupindex>
						</link>
						<link>
							<linkclipref>clipitem-964</linkclipref>
							<mediatype>audio</mediatype>
							<trackindex>10</trackindex>
							<clipindex>66</clipindex>
							<groupindex>1</groupindex>
						</link>
						<link>
							<linkclipref>clipitem-1104</linkclipref>
							<mediatype>audio</mediatype>
							<trackindex>11</trackindex>
							<clipindex>66</clipindex>
							<groupindex>1</groupindex>
						</link>
						<logginginfo>
							<description></description>
							<scene></scene>
							<shottake></shottake>
							<lognote></lognote>
						</logginginfo>
						<labels>
							<label2>Iris</label2>
						</labels>
					</clipitem>
					<clipitem id="clipitem-1105" premiereChannelType="stereo">
						<masterclipid>masterclip-210</masterclipid>
						<name>DVNA25000416AU.mxf</name>
						<enabled>TRUE</enabled>
						<duration>181792</duration>
						<rate>
							<timebase>25</timebase>
							<ntsc>FALSE</ntsc>
						</rate>
						<start>40401</start>
						<end>40538</end>
						<in>160553</in>
						<out>160690</out>
						<pproTicksIn>1631321233920000</pproTicksIn>
						<pproTicksOut>1632713241600000</pproTicksOut>
						<file id="file-210"/>
						<sourcetrack>
							<mediatype>audio</mediatype>
							<trackindex>4</trackindex>
						</sourcetrack>
							<filter>
								<effect>
									<name>Audio Levels</name>
									<effectid>audiolevels</effectid>
									<effectcategory>audiolevels</effectcategory>
									<effecttype>audiolevels</effecttype>
									<mediatype>audio</mediatype>
									<parameter authoringApp="PremierePro">
										<parameterid>level</parameterid>
										<name>Level</name>
										<valuemin>0</valuemin>
										<valuemax>3.98109</valuemax>
										<value>0</value>
										<keyframe>
											<when>160553</when>
											<value>0</value>
										</keyframe>
										<keyframe>
											<when>160572</when>
											<value>1.23112</value>
										</keyframe>
										<keyframe>
											<when>160669</when>
											<value>1.23112</value>
										</keyframe>
										<keyframe>
											<when>160690</when>
											<value>0</value>
										</keyframe>
									</parameter>
								</effect>
							</filter>
						<link>
							<linkclipref>clipitem-339</linkclipref>
							<mediatype>video</mediatype>
							<trackindex>2</trackindex>
							<clipindex>83</clipindex>
						</link>
						<link>
							<linkclipref>clipitem-965</linkclipref>
							<mediatype>audio</mediatype>
							<trackindex>10</trackindex>
							<clipindex>67</clipindex>
							<groupindex>1</groupindex>
						</link>
						<link>
							<linkclipref>clipitem-1105</linkclipref>
							<mediatype>audio</mediatype>
							<trackindex>11</trackindex>
							<clipindex>67</clipindex>
							<groupindex>1</groupindex>
						</link>
						<logginginfo>
							<description>Program 4</description>
							<scene></scene>
							<shottake></shottake>
							<lognote></lognote>
						</logginginfo>
						<labels>
							<label2>Iris</label2>
						</labels>
					</clipitem>
					<clipitem id="clipitem-1106" premiereChannelType="stereo">
						<masterclipid>masterclip-210</masterclipid>
						<name>DVNA25000416AU.mxf</name>
						<enabled>TRUE</enabled>
						<duration>181792</duration>
						<rate>
							<timebase>25</timebase>
							<ntsc>FALSE</ntsc>
						</rate>
						<start>40953</start>
						<end>41251</end>
						<in>160512</in>
						<out>160810</out>
						<pproTicksIn>1630904647680000</pproTicksIn>
						<pproTicksOut>1633932518400000</pproTicksOut>
						<file id="file-210"/>
						<sourcetrack>
							<mediatype>audio</mediatype>
							<trackindex>4</trackindex>
						</sourcetrack>
							<filter>
								<effect>
									<name>Audio Levels</name>
									<effectid>audiolevels</effectid>
									<effectcategory>audiolevels</effectcategory>
									<effecttype>audiolevels</effecttype>
									<mediatype>audio</mediatype>
									<parameter authoringApp="PremierePro">
										<parameterid>level</parameterid>
										<name>Level</name>
										<valuemin>0</valuemin>
										<valuemax>3.98109</valuemax>
										<value>0</value>
										<keyframe>
											<when>160514</when>
											<value>0</value>
										</keyframe>
										<keyframe>
											<when>160550</when>
											<value>0.99763</value>
										</keyframe>
									</parameter>
								</effect>
							</filter>
						<link>
							<linkclipref>clipitem-966</linkclipref>
							<mediatype>audio</mediatype>
							<trackindex>10</trackindex>
							<clipindex>68</clipindex>
							<groupindex>1</groupindex>
						</link>
						<link>
							<linkclipref>clipitem-1106</linkclipref>
							<mediatype>audio</mediatype>
							<trackindex>11</trackindex>
							<clipindex>68</clipindex>
							<groupindex>1</groupindex>
						</link>
						<logginginfo>
							<description>Program 4</description>
							<scene></scene>
							<shottake></shottake>
							<lognote></lognote>
						</logginginfo>
						<labels>
							<label2>Iris</label2>
						</labels>
					</clipitem>
					<clipitem id="clipitem-1107" premiereChannelType="stereo">
						<masterclipid>masterclip-213</masterclipid>
						<name>AA011201.MXF</name>
						<enabled>TRUE</enabled>
						<duration>1428</duration>
						<rate>
							<timebase>25</timebase>
							<ntsc>FALSE</ntsc>
						</rate>
						<start>41477</start>
						<end>41571</end>
						<in>427</in>
						<out>521</out>
						<pproTicksIn>4338593280000</pproTicksIn>
						<pproTicksOut>5293693440000</pproTicksOut>
						<file id="file-213"/>
						<sourcetrack>
							<mediatype>audio</mediatype>
							<trackindex>4</trackindex>
						</sourcetrack>
							<filter>
								<effect>
									<name>Gain</name>
									<effectid>{61756678, 4761696e, 4b657947}</effectid>
									<effecttype>filter</effecttype>
									<mediatype>audio</mediatype>
									<parameter authoringApp="PremierePro">
										<parameterid>Gain(dB)</parameterid>
										<name>Gain(dB)</name>
										<valuemin>-96</valuemin>
										<valuemax>96</valuemax>
										<value>-10</value>
									</parameter>
								</effect>
							</filter>
						<link>
							<linkclipref>clipitem-967</linkclipref>
							<mediatype>audio</mediatype>
							<trackindex>10</trackindex>
							<clipindex>69</clipindex>
							<groupindex>1</groupindex>
						</link>
						<link>
							<linkclipref>clipitem-1107</linkclipref>
							<mediatype>audio</mediatype>
							<trackindex>11</trackindex>
							<clipindex>69</clipindex>
							<groupindex>1</groupindex>
						</link>
						<logginginfo>
							<description></description>
							<scene></scene>
							<shottake></shottake>
							<lognote></lognote>
						</logginginfo>
						<labels>
							<label2>Iris</label2>
						</labels>
					</clipitem>
					<clipitem id="clipitem-1108" premiereChannelType="stereo">
						<masterclipid>masterclip-97</masterclipid>
						<name>AA011001.MXF</name>
						<enabled>TRUE</enabled>
						<duration>2088</duration>
						<rate>
							<timebase>25</timebase>
							<ntsc>FALSE</ntsc>
						</rate>
						<start>41571</start>
						<end>41753</end>
						<in>545</in>
						<out>727</out>
						<pproTicksIn>5537548800000</pproTicksIn>
						<pproTicksOut>7386785280000</pproTicksOut>
						<file id="file-97"/>
						<sourcetrack>
							<mediatype>audio</mediatype>
							<trackindex>4</trackindex>
						</sourcetrack>
							<filter>
								<effect>
									<name>Gain</name>
									<effectid>{61756678, 4761696e, 4b657947}</effectid>
									<effecttype>filter</effecttype>
									<mediatype>audio</mediatype>
									<parameter authoringApp="PremierePro">
										<parameterid>Gain(dB)</parameterid>
										<name>Gain(dB)</name>
										<valuemin>-96</valuemin>
										<valuemax>96</valuemax>
										<value>-10</value>
									</parameter>
								</effect>
							</filter>
							<filter>
								<effect>
									<name>Audio Levels</name>
									<effectid>audiolevels</effectid>
									<effectcategory>audiolevels</effectcategory>
									<effecttype>audiolevels</effecttype>
									<mediatype>audio</mediatype>
									<parameter authoringApp="PremierePro">
										<parameterid>level</parameterid>
										<name>Level</name>
										<valuemin>0</valuemin>
										<valuemax>3.98109</valuemax>
										<value>0.44575</value>
									</parameter>
								</effect>
							</filter>
						<link>
							<linkclipref>clipitem-344</linkclipref>
							<mediatype>video</mediatype>
							<trackindex>2</trackindex>
							<clipindex>88</clipindex>
						</link>
						<link>
							<linkclipref>clipitem-968</linkclipref>
							<mediatype>audio</mediatype>
							<trackindex>10</trackindex>
							<clipindex>70</clipindex>
							<groupindex>1</groupindex>
						</link>
						<link>
							<linkclipref>clipitem-1108</linkclipref>
							<mediatype>audio</mediatype>
							<trackindex>11</trackindex>
							<clipindex>70</clipindex>
							<groupindex>1</groupindex>
						</link>
						<logginginfo>
							<description></description>
							<scene></scene>
							<shottake></shottake>
							<lognote></lognote>
						</logginginfo>
						<labels>
							<label2>Iris</label2>
						</labels>
					</clipitem>
					<clipitem id="clipitem-1109" premiereChannelType="stereo">
						<masterclipid>masterclip-214</masterclipid>
						<name>AA014401.MXF</name>
						<enabled>TRUE</enabled>
						<duration>588</duration>
						<rate>
							<timebase>25</timebase>
							<ntsc>FALSE</ntsc>
						</rate>
						<start>41753</start>
						<end>42128</end>
						<in>180</in>
						<out>555</out>
						<pproTicksIn>1828915200000</pproTicksIn>
						<pproTicksOut>5639155200000</pproTicksOut>
						<file id="file-214"/>
						<sourcetrack>
							<mediatype>audio</mediatype>
							<trackindex>4</trackindex>
						</sourcetrack>
							<filter>
								<effect>
									<name>Audio Levels</name>
									<effectid>audiolevels</effectid>
									<effectcategory>audiolevels</effectcategory>
									<effecttype>audiolevels</effecttype>
									<mediatype>audio</mediatype>
									<parameter authoringApp="PremierePro">
										<parameterid>level</parameterid>
										<name>Level</name>
										<valuemin>0</valuemin>
										<valuemax>3.98109</valuemax>
										<value>0.99763</value>
										<keyframe>
											<when>478</when>
											<value>0.99763</value>
										</keyframe>
										<keyframe>
											<when>498</when>
											<value>1.99526</value>
										</keyframe>
									</parameter>
								</effect>
							</filter>
						<link>
							<linkclipref>clipitem-345</linkclipref>
							<mediatype>video</mediatype>
							<trackindex>2</trackindex>
							<clipindex>89</clipindex>
						</link>
						<link>
							<linkclipref>clipitem-969</linkclipref>
							<mediatype>audio</mediatype>
							<trackindex>10</trackindex>
							<clipindex>71</clipindex>
							<groupindex>1</groupindex>
						</link>
						<link>
							<linkclipref>clipitem-1109</linkclipref>
							<mediatype>audio</mediatype>
							<trackindex>11</trackindex>
							<clipindex>71</clipindex>
							<groupindex>1</groupindex>
						</link>
						<logginginfo>
							<description></description>
							<scene></scene>
							<shottake></shottake>
							<lognote></lognote>
						</logginginfo>
						<labels>
							<label2>Iris</label2>
						</labels>
					</clipitem>
					<clipitem id="clipitem-1110" premiereChannelType="stereo">
						<masterclipid>masterclip-215</masterclipid>
						<name>AA018401.MXF</name>
						<enabled>TRUE</enabled>
						<duration>1632</duration>
						<rate>
							<timebase>25</timebase>
							<ntsc>FALSE</ntsc>
						</rate>
						<start>42128</start>
						<end>42188</end>
						<in>896</in>
						<out>956</out>
						<pproTicksIn>9103933440000</pproTicksIn>
						<pproTicksOut>9713571840000</pproTicksOut>
						<file id="file-215"/>
						<sourcetrack>
							<mediatype>audio</mediatype>
							<trackindex>4</trackindex>
						</sourcetrack>
						<link>
							<linkclipref>clipitem-970</linkclipref>
							<mediatype>audio</mediatype>
							<trackindex>10</trackindex>
							<clipindex>72</clipindex>
							<groupindex>1</groupindex>
						</link>
						<link>
							<linkclipref>clipitem-1110</linkclipref>
							<mediatype>audio</mediatype>
							<trackindex>11</trackindex>
							<clipindex>72</clipindex>
							<groupindex>1</groupindex>
						</link>
						<logginginfo>
							<description></description>
							<scene></scene>
							<shottake></shottake>
							<lognote></lognote>
						</logginginfo>
						<labels>
							<label2>Iris</label2>
						</labels>
					</clipitem>
					<clipitem id="clipitem-1111" premiereChannelType="stereo">
						<masterclipid>masterclip-215</masterclipid>
						<name>AA018401.MXF</name>
						<enabled>TRUE</enabled>
						<duration>1632</duration>
						<rate>
							<timebase>25</timebase>
							<ntsc>FALSE</ntsc>
						</rate>
						<start>42188</start>
						<end>42276</end>
						<in>998</in>
						<out>1086</out>
						<pproTicksIn>10140318720000</pproTicksIn>
						<pproTicksOut>11034455040000</pproTicksOut>
						<file id="file-215"/>
						<sourcetrack>
							<mediatype>audio</mediatype>
							<trackindex>4</trackindex>
						</sourcetrack>
						<link>
							<linkclipref>clipitem-347</linkclipref>
							<mediatype>video</mediatype>
							<trackindex>2</trackindex>
							<clipindex>91</clipindex>
						</link>
						<link>
							<linkclipref>clipitem-971</linkclipref>
							<mediatype>audio</mediatype>
							<trackindex>10</trackindex>
							<clipindex>73</clipindex>
							<groupindex>1</groupindex>
						</link>
						<link>
							<linkclipref>clipitem-1111</linkclipref>
							<mediatype>audio</mediatype>
							<trackindex>11</trackindex>
							<clipindex>73</clipindex>
							<groupindex>1</groupindex>
						</link>
						<logginginfo>
							<description></description>
							<scene></scene>
							<shottake></shottake>
							<lognote></lognote>
						</logginginfo>
						<labels>
							<label2>Iris</label2>
						</labels>
					</clipitem>
					<clipitem id="clipitem-1112" premiereChannelType="stereo">
						<masterclipid>masterclip-216</masterclipid>
						<name>AA018301.MXF</name>
						<enabled>TRUE</enabled>
						<duration>3456</duration>
						<rate>
							<timebase>25</timebase>
							<ntsc>FALSE</ntsc>
						</rate>
						<start>42276</start>
						<end>42470</end>
						<in>140</in>
						<out>334</out>
						<pproTicksIn>1422489600000</pproTicksIn>
						<pproTicksOut>3393653760000</pproTicksOut>
						<file id="file-216"/>
						<sourcetrack>
							<mediatype>audio</mediatype>
							<trackindex>4</trackindex>
						</sourcetrack>
						<link>
							<linkclipref>clipitem-348</linkclipref>
							<mediatype>video</mediatype>
							<trackindex>2</trackindex>
							<clipindex>92</clipindex>
						</link>
						<link>
							<linkclipref>clipitem-972</linkclipref>
							<mediatype>audio</mediatype>
							<trackindex>10</trackindex>
							<clipindex>74</clipindex>
							<groupindex>1</groupindex>
						</link>
						<link>
							<linkclipref>clipitem-1112</linkclipref>
							<mediatype>audio</mediatype>
							<trackindex>11</trackindex>
							<clipindex>74</clipindex>
							<groupindex>1</groupindex>
						</link>
						<logginginfo>
							<description></description>
							<scene></scene>
							<shottake></shottake>
							<lognote></lognote>
						</logginginfo>
						<labels>
							<label2>Iris</label2>
						</labels>
					</clipitem>
					<clipitem id="clipitem-1113" premiereChannelType="stereo">
						<masterclipid>masterclip-216</masterclipid>
						<name>AA018301.MXF</name>
						<enabled>TRUE</enabled>
						<duration>3456</duration>
						<rate>
							<timebase>25</timebase>
							<ntsc>FALSE</ntsc>
						</rate>
						<start>42470</start>
						<end>42520</end>
						<in>1413</in>
						<out>1463</out>
						<pproTicksIn>14356984320000</pproTicksIn>
						<pproTicksOut>14865016320000</pproTicksOut>
						<file id="file-216"/>
						<sourcetrack>
							<mediatype>audio</mediatype>
							<trackindex>4</trackindex>
						</sourcetrack>
						<link>
							<linkclipref>clipitem-973</linkclipref>
							<mediatype>audio</mediatype>
							<trackindex>10</trackindex>
							<clipindex>75</clipindex>
							<groupindex>1</groupindex>
						</link>
						<link>
							<linkclipref>clipitem-1113</linkclipref>
							<mediatype>audio</mediatype>
							<trackindex>11</trackindex>
							<clipindex>75</clipindex>
							<groupindex>1</groupindex>
						</link>
						<logginginfo>
							<description></description>
							<scene></scene>
							<shottake></shottake>
							<lognote></lognote>
						</logginginfo>
						<labels>
							<label2>Iris</label2>
						</labels>
					</clipitem>
					<clipitem id="clipitem-1114" premiereChannelType="stereo">
						<masterclipid>masterclip-216</masterclipid>
						<name>AA018301.MXF</name>
						<enabled>TRUE</enabled>
						<duration>3456</duration>
						<rate>
							<timebase>25</timebase>
							<ntsc>FALSE</ntsc>
						</rate>
						<start>42520</start>
						<end>-1</end>
						<in>1871</in>
						<out>1958</out>
						<pproTicksIn>19010557440000</pproTicksIn>
						<pproTicksOut>19894533120000</pproTicksOut>
						<file id="file-216"/>
						<sourcetrack>
							<mediatype>audio</mediatype>
							<trackindex>4</trackindex>
						</sourcetrack>
						<link>
							<linkclipref>clipitem-350</linkclipref>
							<mediatype>video</mediatype>
							<trackindex>2</trackindex>
							<clipindex>94</clipindex>
						</link>
						<link>
							<linkclipref>clipitem-974</linkclipref>
							<mediatype>audio</mediatype>
							<trackindex>10</trackindex>
							<clipindex>76</clipindex>
							<groupindex>1</groupindex>
						</link>
						<link>
							<linkclipref>clipitem-1114</linkclipref>
							<mediatype>audio</mediatype>
							<trackindex>11</trackindex>
							<clipindex>76</clipindex>
							<groupindex>1</groupindex>
						</link>
						<logginginfo>
							<description></description>
							<scene></scene>
							<shottake></shottake>
							<lognote></lognote>
						</logginginfo>
						<labels>
							<label2>Iris</label2>
						</labels>
					</clipitem>
					<transitionitem>
						<start>42594</start>
						<end>42607</end>
						<alignment>center</alignment>
						<cutPointTicks>60963840000</cutPointTicks>
						<rate>
							<timebase>25</timebase>
							<ntsc>FALSE</ntsc>
						</rate>
						<effect>
							<name>Cross Fade (+3dB)</name>
							<effectid>KGAudioTransCrossFade3dB</effectid>
							<effecttype>transition</effecttype>
							<mediatype>audio</mediatype>
							<wipecode>0</wipecode>
							<wipeaccuracy>100</wipeaccuracy>
							<startratio>0</startratio>
							<endratio>1</endratio>
							<reverse>FALSE</reverse>
						</effect>
					</transitionitem>
					<clipitem id="clipitem-1115" premiereChannelType="stereo">
						<masterclipid>masterclip-216</masterclipid>
						<name>AA018301.MXF</name>
						<enabled>TRUE</enabled>
						<duration>3456</duration>
						<rate>
							<timebase>25</timebase>
							<ntsc>FALSE</ntsc>
						</rate>
						<start>-1</start>
						<end>42690</end>
						<in>2022</in>
						<out>2118</out>
						<pproTicksIn>20544814080000</pproTicksIn>
						<pproTicksOut>21520235520000</pproTicksOut>
						<file id="file-216"/>
						<sourcetrack>
							<mediatype>audio</mediatype>
							<trackindex>4</trackindex>
						</sourcetrack>
							<filter>
								<effect>
									<name>Audio Levels</name>
									<effectid>audiolevels</effectid>
									<effectcategory>audiolevels</effectcategory>
									<effecttype>audiolevels</effecttype>
									<mediatype>audio</mediatype>
									<parameter authoringApp="PremierePro">
										<parameterid>level</parameterid>
										<name>Level</name>
										<valuemin>0</valuemin>
										<valuemax>3.98109</valuemax>
										<value>0.318393</value>
									</parameter>
								</effect>
							</filter>
						<link>
							<linkclipref>clipitem-351</linkclipref>
							<mediatype>video</mediatype>
							<trackindex>2</trackindex>
							<clipindex>95</clipindex>
						</link>
						<link>
							<linkclipref>clipitem-975</linkclipref>
							<mediatype>audio</mediatype>
							<trackindex>10</trackindex>
							<clipindex>78</clipindex>
							<groupindex>1</groupindex>
						</link>
						<link>
							<linkclipref>clipitem-1115</linkclipref>
							<mediatype>audio</mediatype>
							<trackindex>11</trackindex>
							<clipindex>78</clipindex>
							<groupindex>1</groupindex>
						</link>
						<logginginfo>
							<description></description>
							<scene></scene>
							<shottake></shottake>
							<lognote></lognote>
						</logginginfo>
						<labels>
							<label2>Iris</label2>
						</labels>
					</clipitem>
					<clipitem id="clipitem-1116" premiereChannelType="stereo">
						<masterclipid>masterclip-217</masterclipid>
						<name>00001.mxf</name>
						<enabled>TRUE</enabled>
						<duration>456</duration>
						<rate>
							<timebase>25</timebase>
							<ntsc>FALSE</ntsc>
						</rate>
						<start>42690</start>
						<end>42786</end>
						<in>45</in>
						<out>141</out>
						<pproTicksIn>457228800000</pproTicksIn>
						<pproTicksOut>1432650240000</pproTicksOut>
						<file id="file-217"/>
						<sourcetrack>
							<mediatype>audio</mediatype>
							<trackindex>2</trackindex>
						</sourcetrack>
							<filter>
								<effect>
									<name>Audio Levels</name>
									<effectid>audiolevels</effectid>
									<effectcategory>audiolevels</effectcategory>
									<effecttype>audiolevels</effecttype>
									<mediatype>audio</mediatype>
									<parameter authoringApp="PremierePro">
										<parameterid>level</parameterid>
										<name>Level</name>
										<valuemin>0</valuemin>
										<valuemax>3.98109</valuemax>
										<value>0.403297</value>
									</parameter>
								</effect>
							</filter>
						<link>
							<linkclipref>clipitem-352</linkclipref>
							<mediatype>video</mediatype>
							<trackindex>2</trackindex>
							<clipindex>96</clipindex>
						</link>
						<link>
							<linkclipref>clipitem-976</linkclipref>
							<mediatype>audio</mediatype>
							<trackindex>10</trackindex>
							<clipindex>79</clipindex>
							<groupindex>1</groupindex>
						</link>
						<link>
							<linkclipref>clipitem-1116</linkclipref>
							<mediatype>audio</mediatype>
							<trackindex>11</trackindex>
							<clipindex>79</clipindex>
							<groupindex>1</groupindex>
						</link>
						<logginginfo>
							<description></description>
							<scene></scene>
							<shottake></shottake>
							<lognote></lognote>
						</logginginfo>
						<labels>
							<label2>Iris</label2>
						</labels>
					</clipitem>
					<clipitem id="clipitem-1117" premiereChannelType="stereo">
						<masterclipid>masterclip-218</masterclipid>
						<name>00002.mxf</name>
						<enabled>TRUE</enabled>
						<duration>432</duration>
						<rate>
							<timebase>25</timebase>
							<ntsc>FALSE</ntsc>
						</rate>
						<start>42786</start>
						<end>42896</end>
						<in>48</in>
						<out>158</out>
						<pproTicksIn>487710720000</pproTicksIn>
						<pproTicksOut>1605381120000</pproTicksOut>
						<file id="file-218"/>
						<sourcetrack>
							<mediatype>audio</mediatype>
							<trackindex>2</trackindex>
						</sourcetrack>
							<filter>
								<effect>
									<name>Audio Levels</name>
									<effectid>audiolevels</effectid>
									<effectcategory>audiolevels</effectcategory>
									<effecttype>audiolevels</effecttype>
									<mediatype>audio</mediatype>
									<parameter authoringApp="PremierePro">
										<parameterid>level</parameterid>
										<name>Level</name>
										<valuemin>0</valuemin>
										<valuemax>3.98109</valuemax>
										<value>0</value>
										<keyframe>
											<when>127</when>
											<value>0.403297</value>
										</keyframe>
										<keyframe>
											<when>155</when>
											<value>0</value>
										</keyframe>
									</parameter>
								</effect>
							</filter>
						<link>
							<linkclipref>clipitem-353</linkclipref>
							<mediatype>video</mediatype>
							<trackindex>2</trackindex>
							<clipindex>97</clipindex>
						</link>
						<link>
							<linkclipref>clipitem-977</linkclipref>
							<mediatype>audio</mediatype>
							<trackindex>10</trackindex>
							<clipindex>80</clipindex>
							<groupindex>1</groupindex>
						</link>
						<link>
							<linkclipref>clipitem-1117</linkclipref>
							<mediatype>audio</mediatype>
							<trackindex>11</trackindex>
							<clipindex>80</clipindex>
							<groupindex>1</groupindex>
						</link>
						<logginginfo>
							<description></description>
							<scene></scene>
							<shottake></shottake>
							<lognote></lognote>
						</logginginfo>
						<labels>
							<label2>Iris</label2>
						</labels>
					</clipitem>
					<clipitem id="clipitem-1118" premiereChannelType="stereo">
						<masterclipid>masterclip-220</masterclipid>
						<name>00060.MTS</name>
						<enabled>TRUE</enabled>
						<duration>1274</duration>
						<rate>
							<timebase>25</timebase>
							<ntsc>FALSE</ntsc>
						</rate>
						<start>43447</start>
						<end>43926</end>
						<in>389</in>
						<out>868</out>
						<pproTicksIn>3952488960000</pproTicksIn>
						<pproTicksOut>8819435520000</pproTicksOut>
						<file id="file-220"/>
						<sourcetrack>
							<mediatype>audio</mediatype>
							<trackindex>2</trackindex>
						</sourcetrack>
							<filter>
								<effect>
									<name>Audio Levels</name>
									<effectid>audiolevels</effectid>
									<effectcategory>audiolevels</effectcategory>
									<effecttype>audiolevels</effecttype>
									<mediatype>audio</mediatype>
									<parameter authoringApp="PremierePro">
										<parameterid>level</parameterid>
										<name>Level</name>
										<valuemin>0</valuemin>
										<valuemax>3.98109</valuemax>
										<value>0.827821</value>
										<keyframe>
											<when>399</when>
											<value>0</value>
										</keyframe>
										<keyframe>
											<when>420</when>
											<value>0.827821</value>
										</keyframe>
									</parameter>
								</effect>
							</filter>
						<link>
							<linkclipref>clipitem-355</linkclipref>
							<mediatype>video</mediatype>
							<trackindex>2</trackindex>
							<clipindex>99</clipindex>
						</link>
						<link>
							<linkclipref>clipitem-978</linkclipref>
							<mediatype>audio</mediatype>
							<trackindex>10</trackindex>
							<clipindex>81</clipindex>
							<groupindex>1</groupindex>
						</link>
						<link>
							<linkclipref>clipitem-1118</linkclipref>
							<mediatype>audio</mediatype>
							<trackindex>11</trackindex>
							<clipindex>81</clipindex>
							<groupindex>1</groupindex>
						</link>
						<logginginfo>
							<description></description>
							<scene></scene>
							<shottake></shottake>
							<lognote></lognote>
						</logginginfo>
						<labels>
							<label2>Iris</label2>
						</labels>
					</clipitem>
					<clipitem id="clipitem-1119" premiereChannelType="stereo">
						<masterclipid>masterclip-222</masterclipid>
						<name>00064.mxf</name>
						<enabled>TRUE</enabled>
						<duration>1032</duration>
						<rate>
							<timebase>25</timebase>
							<ntsc>FALSE</ntsc>
						</rate>
						<start>44350</start>
						<end>-1</end>
						<in>579</in>
						<out>722</out>
						<pproTicksIn>5883010560000</pproTicksIn>
						<pproTicksOut>7335982080000</pproTicksOut>
						<file id="file-222"/>
						<sourcetrack>
							<mediatype>audio</mediatype>
							<trackindex>2</trackindex>
						</sourcetrack>
							<filter>
								<effect>
									<name>Audio Levels</name>
									<effectid>audiolevels</effectid>
									<effectcategory>audiolevels</effectcategory>
									<effecttype>audiolevels</effecttype>
									<mediatype>audio</mediatype>
									<parameter authoringApp="PremierePro">
										<parameterid>level</parameterid>
										<name>Level</name>
										<valuemin>0</valuemin>
										<valuemax>3.98109</valuemax>
										<value>0.99763</value>
										<keyframe>
											<when>583</when>
											<value>0</value>
										</keyframe>
										<keyframe>
											<when>598</when>
											<value>0.99763</value>
										</keyframe>
									</parameter>
								</effect>
							</filter>
						<link>
							<linkclipref>clipitem-357</linkclipref>
							<mediatype>video</mediatype>
							<trackindex>2</trackindex>
							<clipindex>101</clipindex>
						</link>
						<link>
							<linkclipref>clipitem-979</linkclipref>
							<mediatype>audio</mediatype>
							<trackindex>10</trackindex>
							<clipindex>82</clipindex>
							<groupindex>1</groupindex>
						</link>
						<link>
							<linkclipref>clipitem-1119</linkclipref>
							<mediatype>audio</mediatype>
							<trackindex>11</trackindex>
							<clipindex>82</clipindex>
							<groupindex>1</groupindex>
						</link>
						<logginginfo>
							<description></description>
							<scene></scene>
							<shottake></shottake>
							<lognote></lognote>
						</logginginfo>
						<labels>
							<label2>Iris</label2>
						</labels>
					</clipitem>
					<transitionitem>
						<start>44480</start>
						<end>44493</end>
						<alignment>start</alignment>
						<cutPointTicks>0</cutPointTicks>
						<rate>
							<timebase>25</timebase>
							<ntsc>FALSE</ntsc>
						</rate>
						<effect>
							<name>Cross Fade (+3dB)</name>
							<effectid>KGAudioTransCrossFade3dB</effectid>
							<effecttype>transition</effecttype>
							<mediatype>audio</mediatype>
							<wipecode>0</wipecode>
							<wipeaccuracy>100</wipeaccuracy>
							<startratio>0</startratio>
							<endratio>1</endratio>
							<reverse>FALSE</reverse>
						</effect>
					</transitionitem>
					<clipitem id="clipitem-1120" premiereChannelType="stereo">
						<masterclipid>masterclip-104</masterclipid>
						<name>NRK2-210616.mxf</name>
						<enabled>TRUE</enabled>
						<duration>198000</duration>
						<rate>
							<timebase>25</timebase>
							<ntsc>FALSE</ntsc>
						</rate>
						<start>-1</start>
						<end>44654</end>
						<in>84367</in>
						<out>84541</out>
						<pproTicksIn>857222714880000</pproTicksIn>
						<pproTicksOut>858990666240000</pproTicksOut>
						<file id="file-104"/>
						<sourcetrack>
							<mediatype>audio</mediatype>
							<trackindex>4</trackindex>
						</sourcetrack>
							<filter>
								<effect>
									<name>Gain</name>
									<effectid>{61756678, 4761696e, 4b657947}</effectid>
									<effecttype>filter</effecttype>
									<mediatype>audio</mediatype>
									<parameter authoringApp="PremierePro">
										<parameterid>Gain(dB)</parameterid>
										<name>Gain(dB)</name>
										<valuemin>-96</valuemin>
										<valuemax>96</valuemax>
										<value>-5</value>
									</parameter>
								</effect>
							</filter>
						<link>
							<linkclipref>clipitem-980</linkclipref>
							<mediatype>audio</mediatype>
							<trackindex>10</trackindex>
							<clipindex>84</clipindex>
							<groupindex>1</groupindex>
						</link>
						<link>
							<linkclipref>clipitem-1120</linkclipref>
							<mediatype>audio</mediatype>
							<trackindex>11</trackindex>
							<clipindex>84</clipindex>
							<groupindex>1</groupindex>
						</link>
						<logginginfo>
							<description>Program 6</description>
							<scene></scene>
							<shottake></shottake>
							<lognote></lognote>
						</logginginfo>
						<labels>
							<label2>Iris</label2>
						</labels>
					</clipitem>
					<clipitem id="clipitem-1121" premiereChannelType="stereo">
						<masterclipid>masterclip-102</masterclipid>
						<name>NRK2-180616.mxf</name>
						<enabled>TRUE</enabled>
						<duration>183000</duration>
						<rate>
							<timebase>25</timebase>
							<ntsc>FALSE</ntsc>
						</rate>
						<start>44779</start>
						<end>44837</end>
						<in>24183</in>
						<out>24241</out>
						<pproTicksIn>245714757120000</pproTicksIn>
						<pproTicksOut>246304074240000</pproTicksOut>
						<file id="file-102"/>
						<sourcetrack>
							<mediatype>audio</mediatype>
							<trackindex>4</trackindex>
						</sourcetrack>
							<filter>
								<effect>
									<name>Audio Levels</name>
									<effectid>audiolevels</effectid>
									<effectcategory>audiolevels</effectcategory>
									<effecttype>audiolevels</effecttype>
									<mediatype>audio</mediatype>
									<parameter authoringApp="PremierePro">
										<parameterid>level</parameterid>
										<name>Level</name>
										<valuemin>0</valuemin>
										<valuemax>3.98109</valuemax>
										<value>0.912725</value>
									</parameter>
								</effect>
							</filter>
						<link>
							<linkclipref>clipitem-362</linkclipref>
							<mediatype>video</mediatype>
							<trackindex>2</trackindex>
							<clipindex>106</clipindex>
						</link>
						<link>
							<linkclipref>clipitem-982</linkclipref>
							<mediatype>audio</mediatype>
							<trackindex>10</trackindex>
							<clipindex>86</clipindex>
							<groupindex>1</groupindex>
						</link>
						<link>
							<linkclipref>clipitem-1121</linkclipref>
							<mediatype>audio</mediatype>
							<trackindex>11</trackindex>
							<clipindex>85</clipindex>
							<groupindex>1</groupindex>
						</link>
						<logginginfo>
							<description>Program 5</description>
							<scene></scene>
							<shottake></shottake>
							<lognote></lognote>
						</logginginfo>
						<labels>
							<label2>Iris</label2>
						</labels>
					</clipitem>
					<clipitem id="clipitem-1122" premiereChannelType="stereo">
						<masterclipid>masterclip-103</masterclipid>
						<name>DVNA25000116AU.mxf</name>
						<enabled>TRUE</enabled>
						<duration>192000</duration>
						<rate>
							<timebase>25</timebase>
							<ntsc>FALSE</ntsc>
						</rate>
						<start>44837</start>
						<end>45024</end>
						<in>64600</in>
						<out>64788</out>
						<pproTicksIn>656377344000000</pproTicksIn>
						<pproTicksOut>658287544320000</pproTicksOut>
						<file id="file-103"/>
						<sourcetrack>
							<mediatype>audio</mediatype>
							<trackindex>4</trackindex>
						</sourcetrack>
						<link>
							<linkclipref>clipitem-983</linkclipref>
							<mediatype>audio</mediatype>
							<trackindex>10</trackindex>
							<clipindex>87</clipindex>
							<groupindex>1</groupindex>
						</link>
						<link>
							<linkclipref>clipitem-1122</linkclipref>
							<mediatype>audio</mediatype>
							<trackindex>11</trackindex>
							<clipindex>86</clipindex>
							<groupindex>1</groupindex>
						</link>
						<logginginfo>
							<description>Program 1</description>
							<scene></scene>
							<shottake></shottake>
							<lognote></lognote>
						</logginginfo>
						<labels>
							<label2>Iris</label2>
						</labels>
					</clipitem>
					<clipitem id="clipitem-1123" premiereChannelType="stereo">
						<masterclipid>masterclip-205</masterclipid>
						<name>NRK1-210616.mxf</name>
						<enabled>TRUE</enabled>
						<duration>81914</duration>
						<rate>
							<timebase>25</timebase>
							<ntsc>FALSE</ntsc>
						</rate>
						<start>45058</start>
						<end>45124</end>
						<in>8244</in>
						<out>8311</out>
						<pproTicksIn>83764316160000</pproTicksIn>
						<pproTicksOut>84445079040000</pproTicksOut>
						<file id="file-205"/>
						<sourcetrack>
							<mediatype>audio</mediatype>
							<trackindex>4</trackindex>
						</sourcetrack>
							<filter>
								<effect>
									<name>Audio Levels</name>
									<effectid>audiolevels</effectid>
									<effectcategory>audiolevels</effectcategory>
									<effecttype>audiolevels</effecttype>
									<mediatype>audio</mediatype>
									<parameter authoringApp="PremierePro">
										<parameterid>level</parameterid>
										<name>Level</name>
										<valuemin>0</valuemin>
										<valuemax>3.98109</valuemax>
										<value>1.04008</value>
									</parameter>
								</effect>
							</filter>
						<link>
							<linkclipref>clipitem-366</linkclipref>
							<mediatype>video</mediatype>
							<trackindex>2</trackindex>
							<clipindex>110</clipindex>
						</link>
						<link>
							<linkclipref>clipitem-985</linkclipref>
							<mediatype>audio</mediatype>
							<trackindex>10</trackindex>
							<clipindex>89</clipindex>
							<groupindex>1</groupindex>
						</link>
						<link>
							<linkclipref>clipitem-1123</linkclipref>
							<mediatype>audio</mediatype>
							<trackindex>11</trackindex>
							<clipindex>87</clipindex>
							<groupindex>1</groupindex>
						</link>
						<logginginfo>
							<description>DVNA20000616</description>
							<scene></scene>
							<shottake></shottake>
							<lognote></lognote>
						</logginginfo>
						<labels>
							<label2>Iris</label2>
						</labels>
					</clipitem>
					<clipitem id="clipitem-1124" premiereChannelType="stereo">
						<masterclipid>masterclip-116</masterclipid>
						<name>NRK2-010716.mxf</name>
						<enabled>TRUE</enabled>
						<duration>183000</duration>
						<rate>
							<timebase>25</timebase>
							<ntsc>FALSE</ntsc>
						</rate>
						<start>45165</start>
						<end>45326</end>
						<in>32143</in>
						<out>32305</out>
						<pproTicksIn>326593451520000</pproTicksIn>
						<pproTicksOut>328239475200000</pproTicksOut>
						<file id="file-116"/>
						<sourcetrack>
							<mediatype>audio</mediatype>
							<trackindex>4</trackindex>
						</sourcetrack>
							<filter>
								<effect>
									<name>Audio Levels</name>
									<effectid>audiolevels</effectid>
									<effectcategory>audiolevels</effectcategory>
									<effecttype>audiolevels</effecttype>
									<mediatype>audio</mediatype>
									<parameter authoringApp="PremierePro">
										<parameterid>level</parameterid>
										<name>Level</name>
										<valuemin>0</valuemin>
										<valuemax>3.98109</valuemax>
										<value>0.99763</value>
										<keyframe>
											<when>32217</when>
											<value>0.99763</value>
										</keyframe>
										<keyframe>
											<when>32277</when>
											<value>0</value>
										</keyframe>
									</parameter>
								</effect>
							</filter>
						<link>
							<linkclipref>clipitem-987</linkclipref>
							<mediatype>audio</mediatype>
							<trackindex>10</trackindex>
							<clipindex>91</clipindex>
							<groupindex>1</groupindex>
						</link>
						<link>
							<linkclipref>clipitem-1124</linkclipref>
							<mediatype>audio</mediatype>
							<trackindex>11</trackindex>
							<clipindex>88</clipindex>
							<groupindex>1</groupindex>
						</link>
						<logginginfo>
							<description>Program 14</description>
							<scene></scene>
							<shottake></shottake>
							<lognote></lognote>
						</logginginfo>
						<labels>
							<label2>Iris</label2>
						</labels>
					</clipitem>
					<clipitem id="clipitem-1125" premiereChannelType="stereo">
						<masterclipid>masterclip-230</masterclipid>
						<name>DVNA25000216AU.mxf</name>
						<enabled>TRUE</enabled>
						<duration>184500</duration>
						<rate>
							<timebase>25</timebase>
							<ntsc>FALSE</ntsc>
						</rate>
						<start>45366</start>
						<end>45540</end>
						<in>54164</in>
						<out>54338</out>
						<pproTicksIn>550340904960000</pproTicksIn>
						<pproTicksOut>552108856320000</pproTicksOut>
						<file id="file-230"/>
						<sourcetrack>
							<mediatype>audio</mediatype>
							<trackindex>4</trackindex>
						</sourcetrack>
							<filter>
								<effect>
									<name>Audio Levels</name>
									<effectid>audiolevels</effectid>
									<effectcategory>audiolevels</effectcategory>
									<effecttype>audiolevels</effecttype>
									<mediatype>audio</mediatype>
									<parameter authoringApp="PremierePro">
										<parameterid>level</parameterid>
										<name>Level</name>
										<valuemin>0</valuemin>
										<valuemax>3.98109</valuemax>
										<value>0</value>
										<keyframe>
											<when>54166</when>
											<value>0</value>
										</keyframe>
										<keyframe>
											<when>54182</when>
											<value>0.99763</value>
										</keyframe>
									</parameter>
								</effect>
							</filter>
						<link>
							<linkclipref>clipitem-369</linkclipref>
							<mediatype>video</mediatype>
							<trackindex>2</trackindex>
							<clipindex>113</clipindex>
						</link>
						<link>
							<linkclipref>clipitem-988</linkclipref>
							<mediatype>audio</mediatype>
							<trackindex>10</trackindex>
							<clipindex>92</clipindex>
							<groupindex>1</groupindex>
						</link>
						<link>
							<linkclipref>clipitem-1125</linkclipref>
							<mediatype>audio</mediatype>
							<trackindex>11</trackindex>
							<clipindex>89</clipindex>
							<groupindex>1</groupindex>
						</link>
						<logginginfo>
							<description>Program 2</description>
							<scene></scene>
							<shottake></shottake>
							<lognote></lognote>
						</logginginfo>
						<labels>
							<label2>Iris</label2>
						</labels>
					</clipitem>
					<clipitem id="clipitem-1126" premiereChannelType="stereo">
						<masterclipid>masterclip-230</masterclipid>
						<name>DVNA25000216AU.mxf</name>
						<enabled>TRUE</enabled>
						<duration>184500</duration>
						<rate>
							<timebase>25</timebase>
							<ntsc>FALSE</ntsc>
						</rate>
						<start>45540</start>
						<end>45772</end>
						<in>56193</in>
						<out>56425</out>
						<pproTicksIn>570956843520000</pproTicksIn>
						<pproTicksOut>573314112000000</pproTicksOut>
						<file id="file-230"/>
						<sourcetrack>
							<mediatype>audio</mediatype>
							<trackindex>4</trackindex>
						</sourcetrack>
						<link>
							<linkclipref>clipitem-989</linkclipref>
							<mediatype>audio</mediatype>
							<trackindex>10</trackindex>
							<clipindex>93</clipindex>
							<groupindex>1</groupindex>
						</link>
						<link>
							<linkclipref>clipitem-1126</linkclipref>
							<mediatype>audio</mediatype>
							<trackindex>11</trackindex>
							<clipindex>90</clipindex>
							<groupindex>1</groupindex>
						</link>
						<logginginfo>
							<description>Program 2</description>
							<scene></scene>
							<shottake></shottake>
							<lognote></lognote>
						</logginginfo>
						<labels>
							<label2>Iris</label2>
						</labels>
					</clipitem>
					<clipitem id="clipitem-1127" premiereChannelType="stereo">
						<masterclipid>masterclip-111</masterclipid>
						<name>NRK1-PGM-120716.mxf</name>
						<enabled>TRUE</enabled>
						<duration>81000</duration>
						<rate>
							<timebase>25</timebase>
							<ntsc>FALSE</ntsc>
						</rate>
						<start>45947</start>
						<end>46318</end>
						<in>29212</in>
						<out>29582</out>
						<pproTicksIn>296812615680000</pproTicksIn>
						<pproTicksOut>300572052480000</pproTicksOut>
						<file id="file-111"/>
						<sourcetrack>
							<mediatype>audio</mediatype>
							<trackindex>2</trackindex>
						</sourcetrack>
							<filter>
								<effect>
									<name>Audio Levels</name>
									<effectid>audiolevels</effectid>
									<effectcategory>audiolevels</effectcategory>
									<effecttype>audiolevels</effecttype>
									<mediatype>audio</mediatype>
									<parameter authoringApp="PremierePro">
										<parameterid>level</parameterid>
										<name>Level</name>
										<valuemin>0</valuemin>
										<valuemax>3.98109</valuemax>
										<value>0</value>
										<keyframe>
											<when>29211</when>
											<value>0</value>
										</keyframe>
										<keyframe>
											<when>29234</when>
											<value>0.99763</value>
										</keyframe>
									</parameter>
								</effect>
							</filter>
						<link>
							<linkclipref>clipitem-990</linkclipref>
							<mediatype>audio</mediatype>
							<trackindex>10</trackindex>
							<clipindex>94</clipindex>
							<groupindex>1</groupindex>
						</link>
						<link>
							<linkclipref>clipitem-1127</linkclipref>
							<mediatype>audio</mediatype>
							<trackindex>11</trackindex>
							<clipindex>91</clipindex>
							<groupindex>1</groupindex>
						</link>
						<logginginfo>
							<description>DVNA20000916</description>
							<scene></scene>
							<shottake></shottake>
							<lognote></lognote>
						</logginginfo>
						<labels>
							<label2>Iris</label2>
						</labels>
					</clipitem>
					<clipitem id="clipitem-1128" premiereChannelType="stereo">
						<masterclipid>masterclip-231</masterclipid>
						<name>NRK1-CF-120716.mxf</name>
						<enabled>TRUE</enabled>
						<duration>81000</duration>
						<rate>
							<timebase>25</timebase>
							<ntsc>FALSE</ntsc>
						</rate>
						<start>46600</start>
						<end>46716</end>
						<in>31614</in>
						<out>31730</out>
						<pproTicksIn>321218472960000</pproTicksIn>
						<pproTicksOut>322397107200000</pproTicksOut>
						<file id="file-231"/>
						<sourcetrack>
							<mediatype>audio</mediatype>
							<trackindex>2</trackindex>
						</sourcetrack>
							<filter>
								<effect>
									<name>Audio Levels</name>
									<effectid>audiolevels</effectid>
									<effectcategory>audiolevels</effectcategory>
									<effecttype>audiolevels</effecttype>
									<mediatype>audio</mediatype>
									<parameter authoringApp="PremierePro">
										<parameterid>level</parameterid>
										<name>Level</name>
										<valuemin>0</valuemin>
										<valuemax>3.98109</valuemax>
										<value>0.99763</value>
										<keyframe>
											<when>31695</when>
											<value>0.99763</value>
										</keyframe>
										<keyframe>
											<when>31720</when>
											<value>0</value>
										</keyframe>
									</parameter>
								</effect>
							</filter>
						<link>
							<linkclipref>clipitem-374</linkclipref>
							<mediatype>video</mediatype>
							<trackindex>2</trackindex>
							<clipindex>118</clipindex>
						</link>
						<link>
							<linkclipref>clipitem-991</linkclipref>
							<mediatype>audio</mediatype>
							<trackindex>10</trackindex>
							<clipindex>95</clipindex>
							<groupindex>1</groupindex>
						</link>
						<link>
							<linkclipref>clipitem-1128</linkclipref>
							<mediatype>audio</mediatype>
							<trackindex>11</trackindex>
							<clipindex>92</clipindex>
							<groupindex>1</groupindex>
						</link>
						<logginginfo>
							<description>DVNA20000916</description>
							<scene></scene>
							<shottake></shottake>
							<lognote></lognote>
						</logginginfo>
						<labels>
							<label2>Iris</label2>
						</labels>
					</clipitem>
					<clipitem id="clipitem-1129" premiereChannelType="stereo">
						<masterclipid>masterclip-231</masterclipid>
						<name>NRK1-CF-120716.mxf</name>
						<enabled>TRUE</enabled>
						<duration>81000</duration>
						<rate>
							<timebase>25</timebase>
							<ntsc>FALSE</ntsc>
						</rate>
						<start>47070</start>
						<end>47292</end>
						<in>33308</in>
						<out>33529</out>
						<pproTicksIn>338430597120000</pproTicksIn>
						<pproTicksOut>340676098560000</pproTicksOut>
						<file id="file-231"/>
						<sourcetrack>
							<mediatype>audio</mediatype>
							<trackindex>2</trackindex>
						</sourcetrack>
							<filter>
								<effect>
									<name>Audio Levels</name>
									<effectid>audiolevels</effectid>
									<effectcategory>audiolevels</effectcategory>
									<effecttype>audiolevels</effecttype>
									<mediatype>audio</mediatype>
									<parameter authoringApp="PremierePro">
										<parameterid>level</parameterid>
										<name>Level</name>
										<valuemin>0</valuemin>
										<valuemax>3.98109</valuemax>
										<value>0</value>
										<keyframe>
											<when>33270</when>
											<value>0</value>
										</keyframe>
										<keyframe>
											<when>33309</when>
											<value>0.530654</value>
										</keyframe>
										<keyframe>
											<when>33336</when>
											<value>0.99763</value>
										</keyframe>
									</parameter>
								</effect>
							</filter>
						<link>
							<linkclipref>clipitem-377</linkclipref>
							<mediatype>video</mediatype>
							<trackindex>2</trackindex>
							<clipindex>121</clipindex>
						</link>
						<link>
							<linkclipref>clipitem-992</linkclipref>
							<mediatype>audio</mediatype>
							<trackindex>10</trackindex>
							<clipindex>96</clipindex>
							<groupindex>1</groupindex>
						</link>
						<link>
							<linkclipref>clipitem-1129</linkclipref>
							<mediatype>audio</mediatype>
							<trackindex>11</trackindex>
							<clipindex>93</clipindex>
							<groupindex>1</groupindex>
						</link>
						<logginginfo>
							<description>DVNA20000916</description>
							<scene></scene>
							<shottake></shottake>
							<lognote></lognote>
						</logginginfo>
						<labels>
							<label2>Iris</label2>
						</labels>
					</clipitem>
					<clipitem id="clipitem-1130" premiereChannelType="stereo">
						<masterclipid>masterclip-12</masterclipid>
						<name>NRK2-300616 (1).mxf</name>
						<enabled>TRUE</enabled>
						<duration>183000</duration>
						<rate>
							<timebase>25</timebase>
							<ntsc>FALSE</ntsc>
						</rate>
						<start>47532</start>
						<end>-1</end>
						<in>115178</in>
						<out>115415</out>
						<pproTicksIn>1170282193920000</pproTicksIn>
						<pproTicksOut>1172690265600000</pproTicksOut>
						<file id="file-12"/>
						<sourcetrack>
							<mediatype>audio</mediatype>
							<trackindex>4</trackindex>
						</sourcetrack>
						<link>
							<linkclipref>clipitem-993</linkclipref>
							<mediatype>audio</mediatype>
							<trackindex>10</trackindex>
							<clipindex>97</clipindex>
							<groupindex>1</groupindex>
						</link>
						<link>
							<linkclipref>clipitem-1130</linkclipref>
							<mediatype>audio</mediatype>
							<trackindex>11</trackindex>
							<clipindex>94</clipindex>
							<groupindex>1</groupindex>
						</link>
						<logginginfo>
							<description>Program 13</description>
							<scene></scene>
							<shottake></shottake>
							<lognote></lognote>
						</logginginfo>
						<labels>
							<label2>Iris</label2>
						</labels>
					</clipitem>
					<transitionitem>
						<start>47756</start>
						<end>47768</end>
						<alignment>end-black</alignment>
						<cutPointTicks>121927680000</cutPointTicks>
						<rate>
							<timebase>25</timebase>
							<ntsc>FALSE</ntsc>
						</rate>
						<effect>
							<name>Cross Fade (+3dB)</name>
							<effectid>KGAudioTransCrossFade3dB</effectid>
							<effecttype>transition</effecttype>
							<mediatype>audio</mediatype>
							<wipecode>0</wipecode>
							<wipeaccuracy>100</wipeaccuracy>
							<startratio>0</startratio>
							<endratio>1</endratio>
							<reverse>FALSE</reverse>
						</effect>
					</transitionitem>
					<clipitem id="clipitem-1131" premiereChannelType="stereo">
						<masterclipid>masterclip-209</masterclipid>
						<name>bakomstoff fra iphone og fotoapp.mxf</name>
						<enabled>TRUE</enabled>
						<duration>25210</duration>
						<rate>
							<timebase>25</timebase>
							<ntsc>FALSE</ntsc>
						</rate>
						<start>47864</start>
						<end>-1</end>
						<in>10222</in>
						<out>10417</out>
						<pproTicksIn>103862062080000</pproTicksIn>
						<pproTicksOut>105843386880000</pproTicksOut>
						<file id="file-209"/>
						<sourcetrack>
							<mediatype>audio</mediatype>
							<trackindex>2</trackindex>
						</sourcetrack>
							<filter>
								<effect>
									<name>Audio Levels</name>
									<effectid>audiolevels</effectid>
									<effectcategory>audiolevels</effectcategory>
									<effecttype>audiolevels</effecttype>
									<mediatype>audio</mediatype>
									<parameter authoringApp="PremierePro">
										<parameterid>level</parameterid>
										<name>Level</name>
										<valuemin>0</valuemin>
										<valuemax>3.98109</valuemax>
										<value>0.0424523</value>
										<keyframe>
											<when>10367</when>
											<value>0.827821</value>
										</keyframe>
										<keyframe>
											<when>10386</when>
											<value>0.196633</value>
										</keyframe>
										<keyframe>
											<when>10407</when>
											<value>0.0424523</value>
										</keyframe>
									</parameter>
								</effect>
							</filter>
						<link>
							<linkclipref>clipitem-382</linkclipref>
							<mediatype>video</mediatype>
							<trackindex>2</trackindex>
							<clipindex>126</clipindex>
						</link>
						<link>
							<linkclipref>clipitem-994</linkclipref>
							<mediatype>audio</mediatype>
							<trackindex>10</trackindex>
							<clipindex>99</clipindex>
							<groupindex>1</groupindex>
						</link>
						<link>
							<linkclipref>clipitem-1131</linkclipref>
							<mediatype>audio</mediatype>
							<trackindex>11</trackindex>
							<clipindex>96</clipindex>
							<groupindex>1</groupindex>
						</link>
						<logginginfo>
							<description></description>
							<scene></scene>
							<shottake></shottake>
							<lognote></lognote>
						</logginginfo>
						<labels>
							<label2>Iris</label2>
						</labels>
					</clipitem>
					<transitionitem>
						<start>48046</start>
						<end>48059</end>
						<alignment>center</alignment>
						<cutPointTicks>60963840000</cutPointTicks>
						<rate>
							<timebase>25</timebase>
							<ntsc>FALSE</ntsc>
						</rate>
						<effect>
							<name>Cross Fade (+3dB)</name>
							<effectid>KGAudioTransCrossFade3dB</effectid>
							<effecttype>transition</effecttype>
							<mediatype>audio</mediatype>
							<wipecode>0</wipecode>
							<wipeaccuracy>100</wipeaccuracy>
							<startratio>0</startratio>
							<endratio>1</endratio>
							<reverse>FALSE</reverse>
						</effect>
					</transitionitem>
					<clipitem id="clipitem-1132" premiereChannelType="stereo">
						<masterclipid>masterclip-209</masterclipid>
						<name>bakomstoff fra iphone og fotoapp.mxf</name>
						<enabled>TRUE</enabled>
						<duration>25210</duration>
						<rate>
							<timebase>25</timebase>
							<ntsc>FALSE</ntsc>
						</rate>
						<start>-1</start>
						<end>48358</end>
						<in>10697</in>
						<out>11009</out>
						<pproTicksIn>108688366080000</pproTicksIn>
						<pproTicksOut>111858485760000</pproTicksOut>
						<file id="file-209"/>
						<sourcetrack>
							<mediatype>audio</mediatype>
							<trackindex>2</trackindex>
						</sourcetrack>
							<filter>
								<effect>
									<name>Gain</name>
									<effectid>{61756678, 4761696e, 4b657947}</effectid>
									<effecttype>filter</effecttype>
									<mediatype>audio</mediatype>
									<parameter authoringApp="PremierePro">
										<parameterid>Gain(dB)</parameterid>
										<name>Gain(dB)</name>
										<valuemin>-96</valuemin>
										<valuemax>96</valuemax>
										<value>-10</value>
									</parameter>
								</effect>
							</filter>
							<filter>
								<effect>
									<name>Audio Levels</name>
									<effectid>audiolevels</effectid>
									<effectcategory>audiolevels</effectcategory>
									<effecttype>audiolevels</effecttype>
									<mediatype>audio</mediatype>
									<parameter authoringApp="PremierePro">
										<parameterid>level</parameterid>
										<name>Level</name>
										<valuemin>0</valuemin>
										<valuemax>3.98109</valuemax>
										<value>0.403297</value>
									</parameter>
								</effect>
							</filter>
						<link>
							<linkclipref>clipitem-383</linkclipref>
							<mediatype>video</mediatype>
							<trackindex>2</trackindex>
							<clipindex>127</clipindex>
						</link>
						<link>
							<linkclipref>clipitem-995</linkclipref>
							<mediatype>audio</mediatype>
							<trackindex>10</trackindex>
							<clipindex>101</clipindex>
							<groupindex>1</groupindex>
						</link>
						<link>
							<linkclipref>clipitem-1132</linkclipref>
							<mediatype>audio</mediatype>
							<trackindex>11</trackindex>
							<clipindex>98</clipindex>
							<groupindex>1</groupindex>
						</link>
						<logginginfo>
							<description></description>
							<scene></scene>
							<shottake></shottake>
							<lognote></lognote>
						</logginginfo>
						<labels>
							<label2>Iris</label2>
						</labels>
					</clipitem>
					<clipitem id="clipitem-1133" premiereChannelType="stereo">
						<masterclipid>masterclip-232</masterclipid>
						<name>AA012301.MXF</name>
						<enabled>TRUE</enabled>
						<duration>216</duration>
						<rate>
							<timebase>25</timebase>
							<ntsc>FALSE</ntsc>
						</rate>
						<start>48358</start>
						<end>48493</end>
						<in>35</in>
						<out>170</out>
						<pproTicksIn>355622400000</pproTicksIn>
						<pproTicksOut>1727308800000</pproTicksOut>
						<file id="file-232"/>
						<sourcetrack>
							<mediatype>audio</mediatype>
							<trackindex>4</trackindex>
						</sourcetrack>
							<filter>
								<effect>
									<name>Gain</name>
									<effectid>{61756678, 4761696e, 4b657947}</effectid>
									<effecttype>filter</effecttype>
									<mediatype>audio</mediatype>
									<parameter authoringApp="PremierePro">
										<parameterid>Gain(dB)</parameterid>
										<name>Gain(dB)</name>
										<valuemin>-96</valuemin>
										<valuemax>96</valuemax>
										<value>-10</value>
									</parameter>
								</effect>
							</filter>
						<link>
							<linkclipref>clipitem-384</linkclipref>
							<mediatype>video</mediatype>
							<trackindex>2</trackindex>
							<clipindex>128</clipindex>
						</link>
						<link>
							<linkclipref>clipitem-996</linkclipref>
							<mediatype>audio</mediatype>
							<trackindex>10</trackindex>
							<clipindex>102</clipindex>
							<groupindex>1</groupindex>
						</link>
						<link>
							<linkclipref>clipitem-1133</linkclipref>
							<mediatype>audio</mediatype>
							<trackindex>11</trackindex>
							<clipindex>99</clipindex>
							<groupindex>1</groupindex>
						</link>
						<logginginfo>
							<description></description>
							<scene></scene>
							<shottake></shottake>
							<lognote></lognote>
						</logginginfo>
						<labels>
							<label2>Iris</label2>
						</labels>
					</clipitem>
					<clipitem id="clipitem-1134" premiereChannelType="stereo">
						<masterclipid>masterclip-209</masterclipid>
						<name>bakomstoff fra iphone og fotoapp.mxf</name>
						<enabled>TRUE</enabled>
						<duration>25210</duration>
						<rate>
							<timebase>25</timebase>
							<ntsc>FALSE</ntsc>
						</rate>
						<start>48493</start>
						<end>48716</end>
						<in>7955</in>
						<out>8178</out>
						<pproTicksIn>80827891200000</pproTicksIn>
						<pproTicksOut>83093713920000</pproTicksOut>
						<file id="file-209"/>
						<sourcetrack>
							<mediatype>audio</mediatype>
							<trackindex>2</trackindex>
						</sourcetrack>
							<filter>
								<effect>
									<name>Audio Levels</name>
									<effectid>audiolevels</effectid>
									<effectcategory>audiolevels</effectcategory>
									<effecttype>audiolevels</effecttype>
									<mediatype>audio</mediatype>
									<parameter authoringApp="PremierePro">
										<parameterid>level</parameterid>
										<name>Level</name>
										<valuemin>0</valuemin>
										<valuemax>3.98109</valuemax>
										<value>0.573107</value>
									</parameter>
								</effect>
							</filter>
						<link>
							<linkclipref>clipitem-385</linkclipref>
							<mediatype>video</mediatype>
							<trackindex>2</trackindex>
							<clipindex>129</clipindex>
						</link>
						<link>
							<linkclipref>clipitem-997</linkclipref>
							<mediatype>audio</mediatype>
							<trackindex>10</trackindex>
							<clipindex>103</clipindex>
							<groupindex>1</groupindex>
						</link>
						<link>
							<linkclipref>clipitem-1134</linkclipref>
							<mediatype>audio</mediatype>
							<trackindex>11</trackindex>
							<clipindex>100</clipindex>
							<groupindex>1</groupindex>
						</link>
						<logginginfo>
							<description></description>
							<scene></scene>
							<shottake></shottake>
							<lognote></lognote>
						</logginginfo>
						<labels>
							<label2>Iris</label2>
						</labels>
					</clipitem>
					<clipitem id="clipitem-1135" premiereChannelType="stereo">
						<masterclipid>masterclip-209</masterclipid>
						<name>bakomstoff fra iphone og fotoapp.mxf</name>
						<enabled>TRUE</enabled>
						<duration>25210</duration>
						<rate>
							<timebase>25</timebase>
							<ntsc>FALSE</ntsc>
						</rate>
						<start>48716</start>
						<end>48790</end>
						<in>9002</in>
						<out>9076</out>
						<pproTicksIn>91466081280000</pproTicksIn>
						<pproTicksOut>92217968640000</pproTicksOut>
						<file id="file-209"/>
						<sourcetrack>
							<mediatype>audio</mediatype>
							<trackindex>2</trackindex>
						</sourcetrack>
						<link>
							<linkclipref>clipitem-386</linkclipref>
							<mediatype>video</mediatype>
							<trackindex>2</trackindex>
							<clipindex>130</clipindex>
						</link>
						<link>
							<linkclipref>clipitem-998</linkclipref>
							<mediatype>audio</mediatype>
							<trackindex>10</trackindex>
							<clipindex>104</clipindex>
							<groupindex>1</groupindex>
						</link>
						<link>
							<linkclipref>clipitem-1135</linkclipref>
							<mediatype>audio</mediatype>
							<trackindex>11</trackindex>
							<clipindex>101</clipindex>
							<groupindex>1</groupindex>
						</link>
						<logginginfo>
							<description></description>
							<scene></scene>
							<shottake></shottake>
							<lognote></lognote>
						</logginginfo>
						<labels>
							<label2>Iris</label2>
						</labels>
					</clipitem>
					<clipitem id="clipitem-1136" premiereChannelType="stereo">
						<masterclipid>masterclip-231</masterclipid>
						<name>NRK1-CF-120716.mxf</name>
						<enabled>TRUE</enabled>
						<duration>81000</duration>
						<rate>
							<timebase>25</timebase>
							<ntsc>FALSE</ntsc>
						</rate>
						<start>50981</start>
						<end>51837</end>
						<in>6380</in>
						<out>7236</out>
						<pproTicksIn>64824883200000</pproTicksIn>
						<pproTicksOut>73522391040000</pproTicksOut>
						<file id="file-231"/>
						<sourcetrack>
							<mediatype>audio</mediatype>
							<trackindex>2</trackindex>
						</sourcetrack>
							<filter>
								<effect>
									<name>Audio Levels</name>
									<effectid>audiolevels</effectid>
									<effectcategory>audiolevels</effectcategory>
									<effecttype>audiolevels</effecttype>
									<mediatype>audio</mediatype>
									<parameter authoringApp="PremierePro">
										<parameterid>level</parameterid>
										<name>Level</name>
										<valuemin>0</valuemin>
										<valuemax>3.98109</valuemax>
										<value>0</value>
										<keyframe>
											<when>6386</when>
											<value>0</value>
										</keyframe>
										<keyframe>
											<when>6422</when>
											<value>0.99763</value>
										</keyframe>
										<keyframe>
											<when>7214</when>
											<value>0.99763</value>
										</keyframe>
										<keyframe>
											<when>7232</when>
											<value>0</value>
										</keyframe>
									</parameter>
								</effect>
							</filter>
						<link>
							<linkclipref>clipitem-401</linkclipref>
							<mediatype>video</mediatype>
							<trackindex>2</trackindex>
							<clipindex>145</clipindex>
						</link>
						<link>
							<linkclipref>clipitem-999</linkclipref>
							<mediatype>audio</mediatype>
							<trackindex>10</trackindex>
							<clipindex>105</clipindex>
							<groupindex>1</groupindex>
						</link>
						<link>
							<linkclipref>clipitem-1136</linkclipref>
							<mediatype>audio</mediatype>
							<trackindex>11</trackindex>
							<clipindex>102</clipindex>
							<groupindex>1</groupindex>
						</link>
						<logginginfo>
							<description>DVNA20000916</description>
							<scene></scene>
							<shottake></shottake>
							<lognote></lognote>
						</logginginfo>
						<labels>
							<label2>Iris</label2>
						</labels>
					</clipitem>
					<clipitem id="clipitem-1137" premiereChannelType="stereo">
						<masterclipid>masterclip-243</masterclipid>
						<name>VR-0677.MXF</name>
						<enabled>TRUE</enabled>
						<duration>1203</duration>
						<rate>
							<timebase>25</timebase>
							<ntsc>FALSE</ntsc>
						</rate>
						<start>51943</start>
						<end>52186</end>
						<in>181</in>
						<out>424</out>
						<pproTicksIn>1839075840000</pproTicksIn>
						<pproTicksOut>4308111360000</pproTicksOut>
						<file id="file-243"/>
						<sourcetrack>
							<mediatype>audio</mediatype>
							<trackindex>4</trackindex>
						</sourcetrack>
							<filter>
								<effect>
									<name>Audio Levels</name>
									<effectid>audiolevels</effectid>
									<effectcategory>audiolevels</effectcategory>
									<effecttype>audiolevels</effecttype>
									<mediatype>audio</mediatype>
									<parameter authoringApp="PremierePro">
										<parameterid>level</parameterid>
										<name>Level</name>
										<valuemin>0</valuemin>
										<valuemax>3.98109</valuemax>
										<value>0</value>
										<keyframe>
											<when>202</when>
											<value>0.99763</value>
										</keyframe>
										<keyframe>
											<when>217</when>
											<value>0.473344</value>
										</keyframe>
										<keyframe>
											<when>374</when>
											<value>0.473344</value>
										</keyframe>
										<keyframe>
											<when>412</when>
											<value>0</value>
										</keyframe>
									</parameter>
								</effect>
							</filter>
						<link>
							<linkclipref>clipitem-403</linkclipref>
							<mediatype>video</mediatype>
							<trackindex>2</trackindex>
							<clipindex>147</clipindex>
						</link>
						<link>
							<linkclipref>clipitem-1000</linkclipref>
							<mediatype>audio</mediatype>
							<trackindex>10</trackindex>
							<clipindex>106</clipindex>
							<groupindex>1</groupindex>
						</link>
						<link>
							<linkclipref>clipitem-1137</linkclipref>
							<mediatype>audio</mediatype>
							<trackindex>11</trackindex>
							<clipindex>103</clipindex>
							<groupindex>1</groupindex>
						</link>
						<logginginfo>
							<description>Dykkerne går i vannet og tester utstyr</description>
							<scene></scene>
							<shottake></shottake>
							<lognote></lognote>
						</logginginfo>
						<labels>
							<label2>Iris</label2>
						</labels>
					</clipitem>
					<transitionitem>
						<start>52415</start>
						<end>52427</end>
						<alignment>start-black</alignment>
						<cutPointTicks>0</cutPointTicks>
						<rate>
							<timebase>25</timebase>
							<ntsc>FALSE</ntsc>
						</rate>
						<effect>
							<name>Cross Fade (+3dB)</name>
							<effectid>KGAudioTransCrossFade3dB</effectid>
							<effecttype>transition</effecttype>
							<mediatype>audio</mediatype>
							<wipecode>0</wipecode>
							<wipeaccuracy>100</wipeaccuracy>
							<startratio>0</startratio>
							<endratio>1</endratio>
							<reverse>FALSE</reverse>
						</effect>
					</transitionitem>
					<clipitem id="clipitem-1138" premiereChannelType="stereo">
						<masterclipid>masterclip-205</masterclipid>
						<name>NRK1-210616.mxf</name>
						<enabled>TRUE</enabled>
						<duration>81914</duration>
						<rate>
							<timebase>25</timebase>
							<ntsc>FALSE</ntsc>
						</rate>
						<start>-1</start>
						<end>52963</end>
						<in>36223</in>
						<out>36772</out>
						<pproTicksIn>368048862720000</pproTicksIn>
						<pproTicksOut>373627054080000</pproTicksOut>
						<file id="file-205"/>
						<sourcetrack>
							<mediatype>audio</mediatype>
							<trackindex>4</trackindex>
						</sourcetrack>
							<filter>
								<effect>
									<name>Audio Levels</name>
									<effectid>audiolevels</effectid>
									<effectcategory>audiolevels</effectcategory>
									<effecttype>audiolevels</effecttype>
									<mediatype>audio</mediatype>
									<parameter authoringApp="PremierePro">
										<parameterid>level</parameterid>
										<name>Level</name>
										<valuemin>0</valuemin>
										<valuemax>3.98109</valuemax>
										<value>0.99763</value>
										<keyframe>
											<when>36663</when>
											<value>0.99763</value>
										</keyframe>
										<keyframe>
											<when>36711</when>
											<value>0.235937</value>
										</keyframe>
										<keyframe>
											<when>36780</when>
											<value>0</value>
										</keyframe>
									</parameter>
								</effect>
							</filter>
						<link>
							<linkclipref>clipitem-406</linkclipref>
							<mediatype>video</mediatype>
							<trackindex>2</trackindex>
							<clipindex>150</clipindex>
						</link>
						<link>
							<linkclipref>clipitem-1001</linkclipref>
							<mediatype>audio</mediatype>
							<trackindex>10</trackindex>
							<clipindex>108</clipindex>
							<groupindex>1</groupindex>
						</link>
						<link>
							<linkclipref>clipitem-1138</linkclipref>
							<mediatype>audio</mediatype>
							<trackindex>11</trackindex>
							<clipindex>105</clipindex>
							<groupindex>1</groupindex>
						</link>
						<logginginfo>
							<description>DVNA20000616</description>
							<scene></scene>
							<shottake></shottake>
							<lognote></lognote>
						</logginginfo>
						<labels>
							<label2>Iris</label2>
						</labels>
					</clipitem>
					<clipitem id="clipitem-1139" premiereChannelType="stereo">
						<masterclipid>masterclip-246</masterclipid>
						<name>NRK1-280616-CF.mxf</name>
						<enabled>TRUE</enabled>
						<duration>81975</duration>
						<rate>
							<timebase>25</timebase>
							<ntsc>FALSE</ntsc>
						</rate>
						<start>52963</start>
						<end>53308</end>
						<in>42314</in>
						<out>42659</out>
						<pproTicksIn>429937320960000</pproTicksIn>
						<pproTicksOut>433442741760000</pproTicksOut>
						<file id="file-246"/>
						<sourcetrack>
							<mediatype>audio</mediatype>
							<trackindex>2</trackindex>
						</sourcetrack>
							<filter>
								<effect>
									<name>Audio Levels</name>
									<effectid>audiolevels</effectid>
									<effectcategory>audiolevels</effectcategory>
									<effecttype>audiolevels</effecttype>
									<mediatype>audio</mediatype>
									<parameter authoringApp="PremierePro">
										<parameterid>level</parameterid>
										<name>Level</name>
										<valuemin>0</valuemin>
										<valuemax>3.98109</valuemax>
										<value>0</value>
										<keyframe>
											<when>42354</when>
											<value>0</value>
										</keyframe>
										<keyframe>
											<when>42367</when>
											<value>0.99763</value>
										</keyframe>
									</parameter>
								</effect>
							</filter>
						<link>
							<linkclipref>clipitem-1002</linkclipref>
							<mediatype>audio</mediatype>
							<trackindex>10</trackindex>
							<clipindex>109</clipindex>
							<groupindex>1</groupindex>
						</link>
						<link>
							<linkclipref>clipitem-1139</linkclipref>
							<mediatype>audio</mediatype>
							<trackindex>11</trackindex>
							<clipindex>106</clipindex>
							<groupindex>1</groupindex>
						</link>
						<logginginfo>
							<description>DVNA20000716</description>
							<scene></scene>
							<shottake></shottake>
							<lognote></lognote>
						</logginginfo>
						<labels>
							<label2>Iris</label2>
						</labels>
					</clipitem>
					<clipitem id="clipitem-1140" premiereChannelType="stereo">
						<masterclipid>masterclip-246</masterclipid>
						<name>NRK1-280616-CF.mxf</name>
						<enabled>TRUE</enabled>
						<duration>81975</duration>
						<rate>
							<timebase>25</timebase>
							<ntsc>FALSE</ntsc>
						</rate>
						<start>53308</start>
						<end>53414</end>
						<in>42931</in>
						<out>43037</out>
						<pproTicksIn>436206435840000</pproTicksIn>
						<pproTicksOut>437283463680000</pproTicksOut>
						<file id="file-246"/>
						<sourcetrack>
							<mediatype>audio</mediatype>
							<trackindex>2</trackindex>
						</sourcetrack>
						<link>
							<linkclipref>clipitem-1003</linkclipref>
							<mediatype>audio</mediatype>
							<trackindex>10</trackindex>
							<clipindex>110</clipindex>
							<groupindex>1</groupindex>
						</link>
						<link>
							<linkclipref>clipitem-1140</linkclipref>
							<mediatype>audio</mediatype>
							<trackindex>11</trackindex>
							<clipindex>107</clipindex>
							<groupindex>1</groupindex>
						</link>
						<logginginfo>
							<description>DVNA20000716</description>
							<scene></scene>
							<shottake></shottake>
							<lognote></lognote>
						</logginginfo>
						<labels>
							<label2>Iris</label2>
						</labels>
					</clipitem>
					<clipitem id="clipitem-1141" premiereChannelType="stereo">
						<masterclipid>masterclip-246</masterclipid>
						<name>NRK1-280616-CF.mxf</name>
						<enabled>TRUE</enabled>
						<duration>81975</duration>
						<rate>
							<timebase>25</timebase>
							<ntsc>FALSE</ntsc>
						</rate>
						<start>53414</start>
						<end>53647</end>
						<in>43140</in>
						<out>43373</out>
						<pproTicksIn>438330009600000</pproTicksIn>
						<pproTicksOut>440697438720000</pproTicksOut>
						<file id="file-246"/>
						<sourcetrack>
							<mediatype>audio</mediatype>
							<trackindex>2</trackindex>
						</sourcetrack>
						<link>
							<linkclipref>clipitem-1004</linkclipref>
							<mediatype>audio</mediatype>
							<trackindex>10</trackindex>
							<clipindex>111</clipindex>
							<groupindex>1</groupindex>
						</link>
						<link>
							<linkclipref>clipitem-1141</linkclipref>
							<mediatype>audio</mediatype>
							<trackindex>11</trackindex>
							<clipindex>108</clipindex>
							<groupindex>1</groupindex>
						</link>
						<logginginfo>
							<description>DVNA20000716</description>
							<scene></scene>
							<shottake></shottake>
							<lognote></lognote>
						</logginginfo>
						<labels>
							<label2>Iris</label2>
						</labels>
					</clipitem>
					<clipitem id="clipitem-1142" premiereChannelType="stereo">
						<masterclipid>masterclip-246</masterclipid>
						<name>NRK1-280616-CF.mxf</name>
						<enabled>TRUE</enabled>
						<duration>81975</duration>
						<rate>
							<timebase>25</timebase>
							<ntsc>FALSE</ntsc>
						</rate>
						<start>53716</start>
						<end>-1</end>
						<in>45468</in>
						<out>45623</out>
						<pproTicksIn>461983979520000</pproTicksIn>
						<pproTicksOut>463558878720000</pproTicksOut>
						<file id="file-246"/>
						<sourcetrack>
							<mediatype>audio</mediatype>
							<trackindex>2</trackindex>
						</sourcetrack>
						<link>
							<linkclipref>clipitem-1006</linkclipref>
							<mediatype>audio</mediatype>
							<trackindex>10</trackindex>
							<clipindex>113</clipindex>
							<groupindex>1</groupindex>
						</link>
						<link>
							<linkclipref>clipitem-1142</linkclipref>
							<mediatype>audio</mediatype>
							<trackindex>11</trackindex>
							<clipindex>109</clipindex>
							<groupindex>1</groupindex>
						</link>
						<logginginfo>
							<description>DVNA20000716</description>
							<scene></scene>
							<shottake></shottake>
							<lognote></lognote>
						</logginginfo>
						<labels>
							<label2>Iris</label2>
						</labels>
					</clipitem>
					<transitionitem>
						<start>53868</start>
						<end>53871</end>
						<alignment>center</alignment>
						<cutPointTicks>10160640000</cutPointTicks>
						<rate>
							<timebase>25</timebase>
							<ntsc>FALSE</ntsc>
						</rate>
						<effect>
							<name>Cross Fade (+3dB)</name>
							<effectid>KGAudioTransCrossFade3dB</effectid>
							<effecttype>transition</effecttype>
							<mediatype>audio</mediatype>
							<wipecode>0</wipecode>
							<wipeaccuracy>100</wipeaccuracy>
							<startratio>0</startratio>
							<endratio>1</endratio>
							<reverse>FALSE</reverse>
						</effect>
					</transitionitem>
					<clipitem id="clipitem-1143" premiereChannelType="stereo">
						<masterclipid>masterclip-246</masterclipid>
						<name>NRK1-280616-CF.mxf</name>
						<enabled>TRUE</enabled>
						<duration>81975</duration>
						<rate>
							<timebase>25</timebase>
							<ntsc>FALSE</ntsc>
						</rate>
						<start>-1</start>
						<end>53967</end>
						<in>46004</in>
						<out>46103</out>
						<pproTicksIn>467430082560000</pproTicksIn>
						<pproTicksOut>468435985920000</pproTicksOut>
						<file id="file-246"/>
						<sourcetrack>
							<mediatype>audio</mediatype>
							<trackindex>2</trackindex>
						</sourcetrack>
						<link>
							<linkclipref>clipitem-1007</linkclipref>
							<mediatype>audio</mediatype>
							<trackindex>10</trackindex>
							<clipindex>115</clipindex>
							<groupindex>1</groupindex>
						</link>
						<link>
							<linkclipref>clipitem-1143</linkclipref>
							<mediatype>audio</mediatype>
							<trackindex>11</trackindex>
							<clipindex>111</clipindex>
							<groupindex>1</groupindex>
						</link>
						<logginginfo>
							<description>DVNA20000716</description>
							<scene></scene>
							<shottake></shottake>
							<lognote></lognote>
						</logginginfo>
						<labels>
							<label2>Iris</label2>
						</labels>
					</clipitem>
					<clipitem id="clipitem-1144" premiereChannelType="stereo">
						<masterclipid>masterclip-246</masterclipid>
						<name>NRK1-280616-CF.mxf</name>
						<enabled>TRUE</enabled>
						<duration>81975</duration>
						<rate>
							<timebase>25</timebase>
							<ntsc>FALSE</ntsc>
						</rate>
						<start>53967</start>
						<end>54142</end>
						<in>46183</in>
						<out>46358</out>
						<pproTicksIn>469248837120000</pproTicksIn>
						<pproTicksOut>471026949120000</pproTicksOut>
						<file id="file-246"/>
						<sourcetrack>
							<mediatype>audio</mediatype>
							<trackindex>2</trackindex>
						</sourcetrack>
							<filter>
								<effect>
									<name>Audio Levels</name>
									<effectid>audiolevels</effectid>
									<effectcategory>audiolevels</effectcategory>
									<effecttype>audiolevels</effecttype>
									<mediatype>audio</mediatype>
									<parameter authoringApp="PremierePro">
										<parameterid>level</parameterid>
										<name>Level</name>
										<valuemin>0</valuemin>
										<valuemax>3.98109</valuemax>
										<value>0.99763</value>
										<keyframe>
											<when>46339</when>
											<value>0.99763</value>
										</keyframe>
										<keyframe>
											<when>46352</when>
											<value>0</value>
										</keyframe>
									</parameter>
								</effect>
							</filter>
						<link>
							<linkclipref>clipitem-1008</linkclipref>
							<mediatype>audio</mediatype>
							<trackindex>10</trackindex>
							<clipindex>116</clipindex>
							<groupindex>1</groupindex>
						</link>
						<link>
							<linkclipref>clipitem-1144</linkclipref>
							<mediatype>audio</mediatype>
							<trackindex>11</trackindex>
							<clipindex>112</clipindex>
							<groupindex>1</groupindex>
						</link>
						<logginginfo>
							<description>DVNA20000716</description>
							<scene></scene>
							<shottake></shottake>
							<lognote></lognote>
						</logginginfo>
						<labels>
							<label2>Iris</label2>
						</labels>
					</clipitem>
					<clipitem id="clipitem-1145" premiereChannelType="stereo">
						<masterclipid>masterclip-102</masterclipid>
						<name>NRK2-180616.mxf</name>
						<enabled>TRUE</enabled>
						<duration>183000</duration>
						<rate>
							<timebase>25</timebase>
							<ntsc>FALSE</ntsc>
						</rate>
						<start>54184</start>
						<end>54336</end>
						<in>33179</in>
						<out>33331</out>
						<pproTicksIn>337119874560000</pproTicksIn>
						<pproTicksOut>338664291840000</pproTicksOut>
						<file id="file-102"/>
						<sourcetrack>
							<mediatype>audio</mediatype>
							<trackindex>2</trackindex>
						</sourcetrack>
							<filter>
								<effect>
									<name>Audio Levels</name>
									<effectid>audiolevels</effectid>
									<effectcategory>audiolevels</effectcategory>
									<effecttype>audiolevels</effecttype>
									<mediatype>audio</mediatype>
									<parameter authoringApp="PremierePro">
										<parameterid>level</parameterid>
										<name>Level</name>
										<valuemin>0</valuemin>
										<valuemax>3.98109</valuemax>
										<value>0.99763</value>
										<keyframe>
											<when>33197</when>
											<value>0.99763</value>
										</keyframe>
										<keyframe>
											<when>33210</when>
											<value>1.99526</value>
										</keyframe>
									</parameter>
								</effect>
							</filter>
						<link>
							<linkclipref>clipitem-416</linkclipref>
							<mediatype>video</mediatype>
							<trackindex>2</trackindex>
							<clipindex>162</clipindex>
						</link>
						<link>
							<linkclipref>clipitem-1009</linkclipref>
							<mediatype>audio</mediatype>
							<trackindex>10</trackindex>
							<clipindex>117</clipindex>
							<groupindex>1</groupindex>
						</link>
						<link>
							<linkclipref>clipitem-1145</linkclipref>
							<mediatype>audio</mediatype>
							<trackindex>11</trackindex>
							<clipindex>113</clipindex>
							<groupindex>1</groupindex>
						</link>
						<logginginfo>
							<description>Program 5</description>
							<scene></scene>
							<shottake></shottake>
							<lognote></lognote>
						</logginginfo>
						<labels>
							<label2>Iris</label2>
						</labels>
					</clipitem>
					<clipitem id="clipitem-1146" premiereChannelType="stereo">
						<masterclipid>masterclip-102</masterclipid>
						<name>NRK2-180616.mxf</name>
						<enabled>TRUE</enabled>
						<duration>183000</duration>
						<rate>
							<timebase>25</timebase>
							<ntsc>FALSE</ntsc>
						</rate>
						<start>54336</start>
						<end>54559</end>
						<in>33331</in>
						<out>33554</out>
						<pproTicksIn>338664291840000</pproTicksIn>
						<pproTicksOut>340930114560000</pproTicksOut>
						<file id="file-102"/>
						<sourcetrack>
							<mediatype>audio</mediatype>
							<trackindex>4</trackindex>
						</sourcetrack>
						<link>
							<linkclipref>clipitem-1010</linkclipref>
							<mediatype>audio</mediatype>
							<trackindex>10</trackindex>
							<clipindex>118</clipindex>
							<groupindex>1</groupindex>
						</link>
						<link>
							<linkclipref>clipitem-1146</linkclipref>
							<mediatype>audio</mediatype>
							<trackindex>11</trackindex>
							<clipindex>114</clipindex>
							<groupindex>1</groupindex>
						</link>
						<logginginfo>
							<description>Program 5</description>
							<scene></scene>
							<shottake></shottake>
							<lognote></lognote>
						</logginginfo>
						<labels>
							<label2>Iris</label2>
						</labels>
					</clipitem>
					<clipitem id="clipitem-1147" premiereChannelType="stereo">
						<masterclipid>masterclip-110</masterclipid>
						<name>NRK2-250616.mxf</name>
						<enabled>TRUE</enabled>
						<duration>186000</duration>
						<rate>
							<timebase>25</timebase>
							<ntsc>FALSE</ntsc>
						</rate>
						<start>54559</start>
						<end>54848</end>
						<in>50899</in>
						<out>51188</out>
						<pproTicksIn>517166415360000</pproTicksIn>
						<pproTicksOut>520102840320000</pproTicksOut>
						<file id="file-110"/>
						<sourcetrack>
							<mediatype>audio</mediatype>
							<trackindex>4</trackindex>
						</sourcetrack>
							<filter>
								<effect>
									<name>Audio Levels</name>
									<effectid>audiolevels</effectid>
									<effectcategory>audiolevels</effectcategory>
									<effecttype>audiolevels</effecttype>
									<mediatype>audio</mediatype>
									<parameter authoringApp="PremierePro">
										<parameterid>level</parameterid>
										<name>Level</name>
										<valuemin>0</valuemin>
										<valuemax>3.98109</valuemax>
										<value>0.99763</value>
										<keyframe>
											<when>51135</when>
											<value>0.99763</value>
										</keyframe>
										<keyframe>
											<when>51179</when>
											<value>0</value>
										</keyframe>
									</parameter>
								</effect>
							</filter>
						<link>
							<linkclipref>clipitem-417</linkclipref>
							<mediatype>video</mediatype>
							<trackindex>2</trackindex>
							<clipindex>163</clipindex>
						</link>
						<link>
							<linkclipref>clipitem-1011</linkclipref>
							<mediatype>audio</mediatype>
							<trackindex>10</trackindex>
							<clipindex>119</clipindex>
							<groupindex>1</groupindex>
						</link>
						<link>
							<linkclipref>clipitem-1147</linkclipref>
							<mediatype>audio</mediatype>
							<trackindex>11</trackindex>
							<clipindex>115</clipindex>
							<groupindex>1</groupindex>
						</link>
						<logginginfo>
							<description>Program 10</description>
							<scene></scene>
							<shottake></shottake>
							<lognote></lognote>
						</logginginfo>
						<labels>
							<label2>Iris</label2>
						</labels>
					</clipitem>
					<clipitem id="clipitem-1148" premiereChannelType="stereo">
						<masterclipid>masterclip-115</masterclipid>
						<name>ENG19-2771.MXF</name>
						<enabled>TRUE</enabled>
						<duration>975</duration>
						<rate>
							<timebase>25</timebase>
							<ntsc>FALSE</ntsc>
						</rate>
						<start>54941</start>
						<end>55222</end>
						<in>621</in>
						<out>902</out>
						<pproTicksIn>6309757440000</pproTicksIn>
						<pproTicksOut>9164897280000</pproTicksOut>
						<file id="file-115"/>
						<sourcetrack>
							<mediatype>audio</mediatype>
							<trackindex>4</trackindex>
						</sourcetrack>
							<filter>
								<effect>
									<name>Audio Levels</name>
									<effectid>audiolevels</effectid>
									<effectcategory>audiolevels</effectcategory>
									<effecttype>audiolevels</effecttype>
									<mediatype>audio</mediatype>
									<parameter authoringApp="PremierePro">
										<parameterid>level</parameterid>
										<name>Level</name>
										<valuemin>0</valuemin>
										<valuemax>3.98109</valuemax>
										<value>0</value>
										<keyframe>
											<when>881</when>
											<value>0.099763</value>
										</keyframe>
										<keyframe>
											<when>901</when>
											<value>0</value>
										</keyframe>
									</parameter>
								</effect>
							</filter>
						<link>
							<linkclipref>clipitem-1012</linkclipref>
							<mediatype>audio</mediatype>
							<trackindex>10</trackindex>
							<clipindex>120</clipindex>
							<groupindex>1</groupindex>
						</link>
						<link>
							<linkclipref>clipitem-1148</linkclipref>
							<mediatype>audio</mediatype>
							<trackindex>11</trackindex>
							<clipindex>116</clipindex>
							<groupindex>1</groupindex>
						</link>
						<logginginfo>
							<description></description>
							<scene></scene>
							<shottake></shottake>
							<lognote></lognote>
						</logginginfo>
						<labels>
							<label2>Iris</label2>
						</labels>
					</clipitem>
					<transitionitem>
						<start>55360</start>
						<end>55373</end>
						<alignment>start-black</alignment>
						<cutPointTicks>0</cutPointTicks>
						<rate>
							<timebase>25</timebase>
							<ntsc>FALSE</ntsc>
						</rate>
						<effect>
							<name>Cross Fade (+3dB)</name>
							<effectid>KGAudioTransCrossFade3dB</effectid>
							<effecttype>transition</effecttype>
							<mediatype>audio</mediatype>
							<wipecode>0</wipecode>
							<wipeaccuracy>100</wipeaccuracy>
							<startratio>0</startratio>
							<endratio>1</endratio>
							<reverse>FALSE</reverse>
						</effect>
					</transitionitem>
					<clipitem id="clipitem-1149" premiereChannelType="stereo">
						<masterclipid>masterclip-230</masterclipid>
						<name>DVNA25000216AU.mxf</name>
						<enabled>TRUE</enabled>
						<duration>184500</duration>
						<rate>
							<timebase>25</timebase>
							<ntsc>FALSE</ntsc>
						</rate>
						<start>-1</start>
						<end>-1</end>
						<in>54124</in>
						<out>54453</out>
						<pproTicksIn>549934479360000</pproTicksIn>
						<pproTicksOut>553277329920000</pproTicksOut>
						<file id="file-230"/>
						<sourcetrack>
							<mediatype>audio</mediatype>
							<trackindex>4</trackindex>
						</sourcetrack>
						<link>
							<linkclipref>clipitem-1013</linkclipref>
							<mediatype>audio</mediatype>
							<trackindex>10</trackindex>
							<clipindex>122</clipindex>
							<groupindex>1</groupindex>
						</link>
						<link>
							<linkclipref>clipitem-1149</linkclipref>
							<mediatype>audio</mediatype>
							<trackindex>11</trackindex>
							<clipindex>118</clipindex>
							<groupindex>1</groupindex>
						</link>
						<logginginfo>
							<description>Program 2</description>
							<scene></scene>
							<shottake></shottake>
							<lognote></lognote>
						</logginginfo>
						<labels>
							<label2>Iris</label2>
						</labels>
					</clipitem>
					<transitionitem>
						<start>55677</start>
						<end>55689</end>
						<alignment>end-black</alignment>
						<cutPointTicks>121927680000</cutPointTicks>
						<rate>
							<timebase>25</timebase>
							<ntsc>FALSE</ntsc>
						</rate>
						<effect>
							<name>Cross Fade (+3dB)</name>
							<effectid>KGAudioTransCrossFade3dB</effectid>
							<effecttype>transition</effecttype>
							<mediatype>audio</mediatype>
							<wipecode>0</wipecode>
							<wipeaccuracy>100</wipeaccuracy>
							<startratio>0</startratio>
							<endratio>1</endratio>
							<reverse>FALSE</reverse>
						</effect>
					</transitionitem>
					<clipitem id="clipitem-1150" premiereChannelType="stereo">
						<masterclipid>masterclip-12</masterclipid>
						<name>NRK2-300616 (1).mxf</name>
						<enabled>TRUE</enabled>
						<duration>183000</duration>
						<rate>
							<timebase>25</timebase>
							<ntsc>FALSE</ntsc>
						</rate>
						<start>55905</start>
						<end>56176</end>
						<in>45372</in>
						<out>45643</out>
						<pproTicksIn>461008558080000</pproTicksIn>
						<pproTicksOut>463762091520000</pproTicksOut>
						<file id="file-12"/>
						<sourcetrack>
							<mediatype>audio</mediatype>
							<trackindex>4</trackindex>
						</sourcetrack>
							<filter>
								<effect>
									<name>Audio Levels</name>
									<effectid>audiolevels</effectid>
									<effectcategory>audiolevels</effectcategory>
									<effecttype>audiolevels</effecttype>
									<mediatype>audio</mediatype>
									<parameter authoringApp="PremierePro">
										<parameterid>level</parameterid>
										<name>Level</name>
										<valuemin>0</valuemin>
										<valuemax>3.98109</valuemax>
										<value>0</value>
										<keyframe>
											<when>45373</when>
											<value>0</value>
										</keyframe>
										<keyframe>
											<when>45392</when>
											<value>0.99763</value>
										</keyframe>
										<keyframe>
											<when>45618</when>
											<value>0.99763</value>
										</keyframe>
										<keyframe>
											<when>45640</when>
											<value>0</value>
										</keyframe>
									</parameter>
								</effect>
							</filter>
						<link>
							<linkclipref>clipitem-423</linkclipref>
							<mediatype>video</mediatype>
							<trackindex>2</trackindex>
							<clipindex>169</clipindex>
						</link>
						<link>
							<linkclipref>clipitem-1014</linkclipref>
							<mediatype>audio</mediatype>
							<trackindex>10</trackindex>
							<clipindex>124</clipindex>
							<groupindex>1</groupindex>
						</link>
						<link>
							<linkclipref>clipitem-1150</linkclipref>
							<mediatype>audio</mediatype>
							<trackindex>11</trackindex>
							<clipindex>120</clipindex>
							<groupindex>1</groupindex>
						</link>
						<logginginfo>
							<description>Program 13</description>
							<scene></scene>
							<shottake></shottake>
							<lognote></lognote>
						</logginginfo>
						<labels>
							<label2>Iris</label2>
						</labels>
					</clipitem>
					<clipitem id="clipitem-1151" premiereChannelType="stereo">
						<masterclipid>masterclip-12</masterclipid>
						<name>NRK2-300616 (1).mxf</name>
						<enabled>TRUE</enabled>
						<duration>183000</duration>
						<rate>
							<timebase>25</timebase>
							<ntsc>FALSE</ntsc>
						</rate>
						<start>56294</start>
						<end>56728</end>
						<in>48058</in>
						<out>48492</out>
						<pproTicksIn>488300037120000</pproTicksIn>
						<pproTicksOut>492709754880000</pproTicksOut>
						<file id="file-12"/>
						<sourcetrack>
							<mediatype>audio</mediatype>
							<trackindex>2</trackindex>
						</sourcetrack>
							<filter>
								<effect>
									<name>Audio Levels</name>
									<effectid>audiolevels</effectid>
									<effectcategory>audiolevels</effectcategory>
									<effecttype>audiolevels</effecttype>
									<mediatype>audio</mediatype>
									<parameter authoringApp="PremierePro">
										<parameterid>level</parameterid>
										<name>Level</name>
										<valuemin>0</valuemin>
										<valuemax>3.98109</valuemax>
										<value>0.955178</value>
										<keyframe>
											<when>48769</when>
											<value>0.955178</value>
										</keyframe>
										<keyframe>
											<when>48852</when>
											<value>0</value>
										</keyframe>
									</parameter>
								</effect>
							</filter>
						<link>
							<linkclipref>clipitem-1015</linkclipref>
							<mediatype>audio</mediatype>
							<trackindex>10</trackindex>
							<clipindex>125</clipindex>
							<groupindex>1</groupindex>
						</link>
						<link>
							<linkclipref>clipitem-1151</linkclipref>
							<mediatype>audio</mediatype>
							<trackindex>11</trackindex>
							<clipindex>121</clipindex>
							<groupindex>1</groupindex>
						</link>
						<logginginfo>
							<description>Program 13</description>
							<scene></scene>
							<shottake></shottake>
							<lognote></lognote>
						</logginginfo>
						<labels>
							<label2>Iris</label2>
						</labels>
					</clipitem>
					<clipitem id="clipitem-1152" premiereChannelType="stereo">
						<masterclipid>masterclip-12</masterclipid>
						<name>NRK2-300616 (1).mxf</name>
						<enabled>TRUE</enabled>
						<duration>183000</duration>
						<rate>
							<timebase>25</timebase>
							<ntsc>FALSE</ntsc>
						</rate>
						<start>56728</start>
						<end>57021</end>
						<in>48668</in>
						<out>48961</out>
						<pproTicksIn>494498027520000</pproTicksIn>
						<pproTicksOut>497475095040000</pproTicksOut>
						<file id="file-12"/>
						<sourcetrack>
							<mediatype>audio</mediatype>
							<trackindex>2</trackindex>
						</sourcetrack>
							<filter>
								<effect>
									<name>Audio Levels</name>
									<effectid>audiolevels</effectid>
									<effectcategory>audiolevels</effectcategory>
									<effecttype>audiolevels</effecttype>
									<mediatype>audio</mediatype>
									<parameter authoringApp="PremierePro">
										<parameterid>level</parameterid>
										<name>Level</name>
										<valuemin>0</valuemin>
										<valuemax>3.98109</valuemax>
										<value>0.955178</value>
										<keyframe>
											<when>48769</when>
											<value>0.955178</value>
										</keyframe>
										<keyframe>
											<when>48852</when>
											<value>0</value>
										</keyframe>
									</parameter>
								</effect>
							</filter>
						<link>
							<linkclipref>clipitem-1016</linkclipref>
							<mediatype>audio</mediatype>
							<trackindex>10</trackindex>
							<clipindex>126</clipindex>
							<groupindex>1</groupindex>
						</link>
						<link>
							<linkclipref>clipitem-1152</linkclipref>
							<mediatype>audio</mediatype>
							<trackindex>11</trackindex>
							<clipindex>122</clipindex>
							<groupindex>1</groupindex>
						</link>
						<logginginfo>
							<description>Program 13</description>
							<scene></scene>
							<shottake></shottake>
							<lognote></lognote>
						</logginginfo>
						<labels>
							<label2>Iris</label2>
						</labels>
					</clipitem>
					<clipitem id="clipitem-1153" premiereChannelType="stereo">
						<masterclipid>masterclip-249</masterclipid>
						<name>NRK2-090716.mxf</name>
						<enabled>TRUE</enabled>
						<duration>183000</duration>
						<rate>
							<timebase>25</timebase>
							<ntsc>FALSE</ntsc>
						</rate>
						<start>57836</start>
						<end>58434</end>
						<in>80926</in>
						<out>81524</out>
						<pproTicksIn>822259952640000</pproTicksIn>
						<pproTicksOut>828336015360000</pproTicksOut>
						<file id="file-249"/>
						<sourcetrack>
							<mediatype>audio</mediatype>
							<trackindex>4</trackindex>
						</sourcetrack>
						<link>
							<linkclipref>clipitem-427</linkclipref>
							<mediatype>video</mediatype>
							<trackindex>2</trackindex>
							<clipindex>173</clipindex>
						</link>
						<link>
							<linkclipref>clipitem-1017</linkclipref>
							<mediatype>audio</mediatype>
							<trackindex>10</trackindex>
							<clipindex>127</clipindex>
							<groupindex>1</groupindex>
						</link>
						<link>
							<linkclipref>clipitem-1153</linkclipref>
							<mediatype>audio</mediatype>
							<trackindex>11</trackindex>
							<clipindex>123</clipindex>
							<groupindex>1</groupindex>
						</link>
						<logginginfo>
							<description>Program 20</description>
							<scene></scene>
							<shottake></shottake>
							<lognote></lognote>
						</logginginfo>
						<labels>
							<label2>Iris</label2>
						</labels>
					</clipitem>
					<clipitem id="clipitem-1154" premiereChannelType="stereo">
						<masterclipid>masterclip-321</masterclipid>
						<name>Ut i naturen 5 Intelligens I-lyd uten musikk.wav</name>
						<enabled>TRUE</enabled>
						<duration>57986</duration>
						<rate>
							<timebase>25</timebase>
							<ntsc>FALSE</ntsc>
						</rate>
						<start>59934</start>
						<end>60944</end>
						<in>49346</in>
						<out>50356</out>
						<pproTicksIn>501386941440000</pproTicksIn>
						<pproTicksOut>511649187840000</pproTicksOut>
						<file id="file-321"/>
						<sourcetrack>
							<mediatype>audio</mediatype>
							<trackindex>2</trackindex>
						</sourcetrack>
							<filter>
								<effect>
									<name>Audio Levels</name>
									<effectid>audiolevels</effectid>
									<effectcategory>audiolevels</effectcategory>
									<effecttype>audiolevels</effecttype>
									<mediatype>audio</mediatype>
									<parameter authoringApp="PremierePro">
										<parameterid>level</parameterid>
										<name>Level</name>
										<valuemin>0</valuemin>
										<valuemax>3.98109</valuemax>
										<value>0</value>
										<keyframe>
											<when>49362</when>
											<value>0</value>
										</keyframe>
										<keyframe>
											<when>49369</when>
											<value>0.99763</value>
										</keyframe>
										<keyframe>
											<when>50344</when>
											<value>0.99763</value>
										</keyframe>
										<keyframe>
											<when>50355</when>
											<value>0</value>
										</keyframe>
									</parameter>
								</effect>
							</filter>
						<link>
							<linkclipref>clipitem-1018</linkclipref>
							<mediatype>audio</mediatype>
							<trackindex>10</trackindex>
							<clipindex>128</clipindex>
							<groupindex>1</groupindex>
						</link>
						<link>
							<linkclipref>clipitem-1154</linkclipref>
							<mediatype>audio</mediatype>
							<trackindex>11</trackindex>
							<clipindex>124</clipindex>
							<groupindex>1</groupindex>
						</link>
						<logginginfo>
							<description></description>
							<scene></scene>
							<shottake></shottake>
							<lognote></lognote>
						</logginginfo>
						<labels>
							<label2>Caribbean</label2>
						</labels>
					</clipitem>
					<clipitem id="clipitem-1155" premiereChannelType="stereo">
						<masterclipid>masterclip-322</masterclipid>
						<name>4-Fysikk-MASTER-TK-I-lyd.wav</name>
						<enabled>TRUE</enabled>
						<duration>57688</duration>
						<rate>
							<timebase>25</timebase>
							<ntsc>FALSE</ntsc>
						</rate>
						<start>62338</start>
						<end>64099</end>
						<in>32640</in>
						<out>34401</out>
						<pproTicksIn>331643289600000</pproTicksIn>
						<pproTicksOut>349536176640000</pproTicksOut>
						<file id="file-322"/>
						<sourcetrack>
							<mediatype>audio</mediatype>
							<trackindex>2</trackindex>
						</sourcetrack>
							<filter>
								<effect>
									<name>Audio Levels</name>
									<effectid>audiolevels</effectid>
									<effectcategory>audiolevels</effectcategory>
									<effecttype>audiolevels</effecttype>
									<mediatype>audio</mediatype>
									<parameter authoringApp="PremierePro">
										<parameterid>level</parameterid>
										<name>Level</name>
										<valuemin>0</valuemin>
										<valuemax>3.98109</valuemax>
										<value>0</value>
										<keyframe>
											<when>32641</when>
											<value>0</value>
										</keyframe>
										<keyframe>
											<when>32680</when>
											<value>0.99763</value>
										</keyframe>
										<keyframe>
											<when>34310</when>
											<value>0.99763</value>
										</keyframe>
										<keyframe>
											<when>34353</when>
											<value>0</value>
										</keyframe>
									</parameter>
								</effect>
							</filter>
							<marker>
								<comment></comment>
								<name></name>
								<in>32705</in>
								<out>-1</out>
							</marker>
							<marker>
								<comment></comment>
								<name></name>
								<in>15468</in>
								<out>-1</out>
							</marker>
							<marker>
								<comment></comment>
								<name></name>
								<in>28726</in>
								<out>-1</out>
							</marker>
						<link>
							<linkclipref>clipitem-1019</linkclipref>
							<mediatype>audio</mediatype>
							<trackindex>10</trackindex>
							<clipindex>129</clipindex>
							<groupindex>1</groupindex>
						</link>
						<link>
							<linkclipref>clipitem-1155</linkclipref>
							<mediatype>audio</mediatype>
							<trackindex>11</trackindex>
							<clipindex>125</clipindex>
							<groupindex>1</groupindex>
						</link>
						<logginginfo>
							<description></description>
							<scene></scene>
							<shottake></shottake>
							<lognote></lognote>
						</logginginfo>
						<labels>
							<label2>Caribbean</label2>
						</labels>
					</clipitem>
					<clipitem id="clipitem-1156" premiereChannelType="stereo">
						<masterclipid>masterclip-316</masterclipid>
						<name>Nordvisjon-MASTER-vr3-201016-ny-kontentum.wav</name>
						<enabled>TRUE</enabled>
						<duration>43013</duration>
						<rate>
							<timebase>25</timebase>
							<ntsc>FALSE</ntsc>
						</rate>
						<start>65463</start>
						<end>-1</end>
						<in>1558</in>
						<out>3131</out>
						<pproTicksIn>15830277120000</pproTicksIn>
						<pproTicksOut>31812963840000</pproTicksOut>
						<file id="file-316"/>
						<sourcetrack>
							<mediatype>audio</mediatype>
							<trackindex>2</trackindex>
						</sourcetrack>
							<filter>
								<effect>
									<name>Audio Levels</name>
									<effectid>audiolevels</effectid>
									<effectcategory>audiolevels</effectcategory>
									<effecttype>audiolevels</effecttype>
									<mediatype>audio</mediatype>
									<parameter authoringApp="PremierePro">
										<parameterid>level</parameterid>
										<name>Level</name>
										<valuemin>0</valuemin>
										<valuemax>3.98109</valuemax>
										<value>0.258645</value>
										<keyframe>
											<when>1453</when>
											<value>0.598264</value>
										</keyframe>
										<keyframe>
											<when>1563</when>
											<value>0</value>
										</keyframe>
										<keyframe>
											<when>1584</when>
											<value>0</value>
										</keyframe>
										<keyframe>
											<when>1599</when>
											<value>0.441063</value>
										</keyframe>
										<keyframe>
											<when>1624</when>
											<value>0.458171</value>
										</keyframe>
										<keyframe>
											<when>2051</when>
											<value>0.332543</value>
										</keyframe>
										<keyframe>
											<when>2174</when>
											<value>0.131288</value>
										</keyframe>
										<keyframe>
											<when>2368</when>
											<value>0.131288</value>
										</keyframe>
										<keyframe>
											<when>2411</when>
											<value>0.428454</value>
										</keyframe>
										<keyframe>
											<when>2624</when>
											<value>0.386002</value>
										</keyframe>
										<keyframe>
											<when>2675</when>
											<value>0.258645</value>
										</keyframe>
									</parameter>
								</effect>
							</filter>
							<marker>
								<comment></comment>
								<name></name>
								<in>40399</in>
								<out>-1</out>
							</marker>
							<marker>
								<comment></comment>
								<name></name>
								<in>3092</in>
								<out>-1</out>
							</marker>
							<marker>
								<comment></comment>
								<name></name>
								<in>36054</in>
								<out>-1</out>
							</marker>
							<marker>
								<comment></comment>
								<name></name>
								<in>0</in>
								<out>-1</out>
							</marker>
						<link>
							<linkclipref>clipitem-1020</linkclipref>
							<mediatype>audio</mediatype>
							<trackindex>10</trackindex>
							<clipindex>130</clipindex>
							<groupindex>1</groupindex>
						</link>
						<link>
							<linkclipref>clipitem-1156</linkclipref>
							<mediatype>audio</mediatype>
							<trackindex>11</trackindex>
							<clipindex>126</clipindex>
							<groupindex>1</groupindex>
						</link>
						<logginginfo>
							<description></description>
							<scene></scene>
							<shottake></shottake>
							<lognote></lognote>
						</logginginfo>
						<labels>
							<label2>Iris</label2>
						</labels>
					</clipitem>
					<transitionitem>
						<start>67023</start>
						<end>67036</end>
						<alignment>center</alignment>
						<cutPointTicks>60963840000</cutPointTicks>
						<rate>
							<timebase>25</timebase>
							<ntsc>FALSE</ntsc>
						</rate>
						<effect>
							<name>Cross Fade (+3dB)</name>
							<effectid>KGAudioTransCrossFade3dB</effectid>
							<effecttype>transition</effecttype>
							<mediatype>audio</mediatype>
							<wipecode>0</wipecode>
							<wipeaccuracy>100</wipeaccuracy>
							<startratio>0</startratio>
							<endratio>1</endratio>
							<reverse>FALSE</reverse>
						</effect>
					</transitionitem>
					<clipitem id="clipitem-1157" premiereChannelType="stereo">
						<masterclipid>masterclip-316</masterclipid>
						<name>Nordvisjon-MASTER-vr3-201016-ny-kontentum.wav</name>
						<enabled>TRUE</enabled>
						<duration>43013</duration>
						<rate>
							<timebase>25</timebase>
							<ntsc>FALSE</ntsc>
						</rate>
						<start>-1</start>
						<end>-1</end>
						<in>4082</in>
						<out>4506</out>
						<pproTicksIn>41475732480000</pproTicksIn>
						<pproTicksOut>45783843840000</pproTicksOut>
						<file id="file-316"/>
						<sourcetrack>
							<mediatype>audio</mediatype>
							<trackindex>2</trackindex>
						</sourcetrack>
							<filter>
								<effect>
									<name>Audio Levels</name>
									<effectid>audiolevels</effectid>
									<effectcategory>audiolevels</effectcategory>
									<effecttype>audiolevels</effecttype>
									<mediatype>audio</mediatype>
									<parameter authoringApp="PremierePro">
										<parameterid>level</parameterid>
										<name>Level</name>
										<valuemin>0</valuemin>
										<valuemax>3.98109</valuemax>
										<value>0.555811</value>
										<keyframe>
											<when>4334</when>
											<value>0.17374</value>
										</keyframe>
										<keyframe>
											<when>4381</when>
											<value>0.555811</value>
										</keyframe>
									</parameter>
								</effect>
							</filter>
							<marker>
								<comment></comment>
								<name></name>
								<in>40399</in>
								<out>-1</out>
							</marker>
							<marker>
								<comment></comment>
								<name></name>
								<in>3092</in>
								<out>-1</out>
							</marker>
							<marker>
								<comment></comment>
								<name></name>
								<in>36054</in>
								<out>-1</out>
							</marker>
							<marker>
								<comment></comment>
								<name></name>
								<in>0</in>
								<out>-1</out>
							</marker>
						<link>
							<linkclipref>clipitem-1021</linkclipref>
							<mediatype>audio</mediatype>
							<trackindex>10</trackindex>
							<clipindex>132</clipindex>
							<groupindex>1</groupindex>
						</link>
						<link>
							<linkclipref>clipitem-1157</linkclipref>
							<mediatype>audio</mediatype>
							<trackindex>11</trackindex>
							<clipindex>128</clipindex>
							<groupindex>1</groupindex>
						</link>
						<logginginfo>
							<description></description>
							<scene></scene>
							<shottake></shottake>
							<lognote></lognote>
						</logginginfo>
						<labels>
							<label2>Iris</label2>
						</labels>
					</clipitem>
					<transitionitem>
						<start>67434</start>
						<end>67447</end>
						<alignment>center</alignment>
						<cutPointTicks>60963840000</cutPointTicks>
						<rate>
							<timebase>25</timebase>
							<ntsc>FALSE</ntsc>
						</rate>
						<effect>
							<name>Cross Fade (+3dB)</name>
							<effectid>KGAudioTransCrossFade3dB</effectid>
							<effecttype>transition</effecttype>
							<mediatype>audio</mediatype>
							<wipecode>0</wipecode>
							<wipeaccuracy>100</wipeaccuracy>
							<startratio>0</startratio>
							<endratio>1</endratio>
							<reverse>FALSE</reverse>
						</effect>
					</transitionitem>
					<clipitem id="clipitem-1158" premiereChannelType="stereo">
						<masterclipid>masterclip-316</masterclipid>
						<name>Nordvisjon-MASTER-vr3-201016-ny-kontentum.wav</name>
						<enabled>TRUE</enabled>
						<duration>43013</duration>
						<rate>
							<timebase>25</timebase>
							<ntsc>FALSE</ntsc>
						</rate>
						<start>-1</start>
						<end>-1</end>
						<in>4652</in>
						<out>5247</out>
						<pproTicksIn>47267297280000</pproTicksIn>
						<pproTicksOut>53312878080000</pproTicksOut>
						<file id="file-316"/>
						<sourcetrack>
							<mediatype>audio</mediatype>
							<trackindex>2</trackindex>
						</sourcetrack>
							<filter>
								<effect>
									<name>Audio Levels</name>
									<effectid>audiolevels</effectid>
									<effectcategory>audiolevels</effectcategory>
									<effecttype>audiolevels</effecttype>
									<mediatype>audio</mediatype>
									<parameter authoringApp="PremierePro">
										<parameterid>level</parameterid>
										<name>Level</name>
										<valuemin>0</valuemin>
										<valuemax>3.98109</valuemax>
										<value>0.937882</value>
										<keyframe>
											<when>4985</when>
											<value>0.258645</value>
										</keyframe>
										<keyframe>
											<when>5020</when>
											<value>0.937882</value>
										</keyframe>
									</parameter>
								</effect>
							</filter>
							<marker>
								<comment></comment>
								<name></name>
								<in>40399</in>
								<out>-1</out>
							</marker>
							<marker>
								<comment></comment>
								<name></name>
								<in>3092</in>
								<out>-1</out>
							</marker>
							<marker>
								<comment></comment>
								<name></name>
								<in>36054</in>
								<out>-1</out>
							</marker>
							<marker>
								<comment></comment>
								<name></name>
								<in>0</in>
								<out>-1</out>
							</marker>
						<link>
							<linkclipref>clipitem-1022</linkclipref>
							<mediatype>audio</mediatype>
							<trackindex>10</trackindex>
							<clipindex>134</clipindex>
							<groupindex>1</groupindex>
						</link>
						<link>
							<linkclipref>clipitem-1158</linkclipref>
							<mediatype>audio</mediatype>
							<trackindex>11</trackindex>
							<clipindex>130</clipindex>
							<groupindex>1</groupindex>
						</link>
						<logginginfo>
							<description></description>
							<scene></scene>
							<shottake></shottake>
							<lognote></lognote>
						</logginginfo>
						<labels>
							<label2>Iris</label2>
						</labels>
					</clipitem>
					<transitionitem>
						<start>68016</start>
						<end>68029</end>
						<alignment>center</alignment>
						<cutPointTicks>60963840000</cutPointTicks>
						<rate>
							<timebase>25</timebase>
							<ntsc>FALSE</ntsc>
						</rate>
						<effect>
							<name>Cross Fade (+3dB)</name>
							<effectid>KGAudioTransCrossFade3dB</effectid>
							<effecttype>transition</effecttype>
							<mediatype>audio</mediatype>
							<wipecode>0</wipecode>
							<wipeaccuracy>100</wipeaccuracy>
							<startratio>0</startratio>
							<endratio>1</endratio>
							<reverse>FALSE</reverse>
						</effect>
					</transitionitem>
					<clipitem id="clipitem-1159" premiereChannelType="stereo">
						<masterclipid>masterclip-316</masterclipid>
						<name>Nordvisjon-MASTER-vr3-201016-ny-kontentum.wav</name>
						<enabled>TRUE</enabled>
						<duration>43013</duration>
						<rate>
							<timebase>25</timebase>
							<ntsc>FALSE</ntsc>
						</rate>
						<start>-1</start>
						<end>-1</end>
						<in>5466</in>
						<out>8147</out>
						<pproTicksIn>55538058240000</pproTicksIn>
						<pproTicksOut>82778734080000</pproTicksOut>
						<file id="file-316"/>
						<sourcetrack>
							<mediatype>audio</mediatype>
							<trackindex>2</trackindex>
						</sourcetrack>
							<filter>
								<effect>
									<name>Audio Levels</name>
									<effectid>audiolevels</effectid>
									<effectcategory>audiolevels</effectcategory>
									<effecttype>audiolevels</effecttype>
									<mediatype>audio</mediatype>
									<parameter authoringApp="PremierePro">
										<parameterid>level</parameterid>
										<name>Level</name>
										<valuemin>0</valuemin>
										<valuemax>3.98109</valuemax>
										<value>0.428454</value>
										<keyframe>
											<when>5539</when>
											<value>0.258645</value>
										</keyframe>
										<keyframe>
											<when>5570</when>
											<value>0.980335</value>
										</keyframe>
										<keyframe>
											<when>6470</when>
											<value>0.980335</value>
										</keyframe>
										<keyframe>
											<when>6525</when>
											<value>0.428454</value>
										</keyframe>
									</parameter>
								</effect>
							</filter>
							<marker>
								<comment></comment>
								<name></name>
								<in>40399</in>
								<out>-1</out>
							</marker>
							<marker>
								<comment></comment>
								<name></name>
								<in>3092</in>
								<out>-1</out>
							</marker>
							<marker>
								<comment></comment>
								<name></name>
								<in>36054</in>
								<out>-1</out>
							</marker>
							<marker>
								<comment></comment>
								<name></name>
								<in>0</in>
								<out>-1</out>
							</marker>
						<link>
							<linkclipref>clipitem-1023</linkclipref>
							<mediatype>audio</mediatype>
							<trackindex>10</trackindex>
							<clipindex>136</clipindex>
							<groupindex>1</groupindex>
						</link>
						<link>
							<linkclipref>clipitem-1159</linkclipref>
							<mediatype>audio</mediatype>
							<trackindex>11</trackindex>
							<clipindex>132</clipindex>
							<groupindex>1</groupindex>
						</link>
						<logginginfo>
							<description></description>
							<scene></scene>
							<shottake></shottake>
							<lognote></lognote>
						</logginginfo>
						<labels>
							<label2>Iris</label2>
						</labels>
					</clipitem>
					<transitionitem>
						<start>70684</start>
						<end>70697</end>
						<alignment>center</alignment>
						<cutPointTicks>60963840000</cutPointTicks>
						<rate>
							<timebase>25</timebase>
							<ntsc>FALSE</ntsc>
						</rate>
						<effect>
							<name>Cross Fade (+3dB)</name>
							<effectid>KGAudioTransCrossFade3dB</effectid>
							<effecttype>transition</effecttype>
							<mediatype>audio</mediatype>
							<wipecode>0</wipecode>
							<wipeaccuracy>100</wipeaccuracy>
							<startratio>0</startratio>
							<endratio>1</endratio>
							<reverse>FALSE</reverse>
						</effect>
					</transitionitem>
					<clipitem id="clipitem-1160" premiereChannelType="stereo">
						<masterclipid>masterclip-316</masterclipid>
						<name>Nordvisjon-MASTER-vr3-201016-ny-kontentum.wav</name>
						<enabled>TRUE</enabled>
						<duration>43013</duration>
						<rate>
							<timebase>25</timebase>
							<ntsc>FALSE</ntsc>
						</rate>
						<start>-1</start>
						<end>-1</end>
						<in>8134</in>
						<out>8768</out>
						<pproTicksIn>82646645760000</pproTicksIn>
						<pproTicksOut>89088491520000</pproTicksOut>
						<file id="file-316"/>
						<sourcetrack>
							<mediatype>audio</mediatype>
							<trackindex>2</trackindex>
						</sourcetrack>
							<filter>
								<effect>
									<name>Audio Levels</name>
									<effectid>audiolevels</effectid>
									<effectcategory>audiolevels</effectcategory>
									<effecttype>audiolevels</effecttype>
									<mediatype>audio</mediatype>
									<parameter authoringApp="PremierePro">
										<parameterid>level</parameterid>
										<name>Level</name>
										<valuemin>0</valuemin>
										<valuemax>3.98109</valuemax>
										<value>0.258645</value>
									</parameter>
								</effect>
							</filter>
							<marker>
								<comment></comment>
								<name></name>
								<in>40399</in>
								<out>-1</out>
							</marker>
							<marker>
								<comment></comment>
								<name></name>
								<in>3092</in>
								<out>-1</out>
							</marker>
							<marker>
								<comment></comment>
								<name></name>
								<in>36054</in>
								<out>-1</out>
							</marker>
							<marker>
								<comment></comment>
								<name></name>
								<in>0</in>
								<out>-1</out>
							</marker>
						<link>
							<linkclipref>clipitem-1024</linkclipref>
							<mediatype>audio</mediatype>
							<trackindex>10</trackindex>
							<clipindex>138</clipindex>
							<groupindex>1</groupindex>
						</link>
						<link>
							<linkclipref>clipitem-1160</linkclipref>
							<mediatype>audio</mediatype>
							<trackindex>11</trackindex>
							<clipindex>134</clipindex>
							<groupindex>1</groupindex>
						</link>
						<logginginfo>
							<description></description>
							<scene></scene>
							<shottake></shottake>
							<lognote></lognote>
						</logginginfo>
						<labels>
							<label2>Iris</label2>
						</labels>
					</clipitem>
					<transitionitem>
						<start>71306</start>
						<end>71318</end>
						<alignment>center</alignment>
						<cutPointTicks>60963840000</cutPointTicks>
						<rate>
							<timebase>25</timebase>
							<ntsc>FALSE</ntsc>
						</rate>
						<effect>
							<name>Cross Fade (+3dB)</name>
							<effectid>KGAudioTransCrossFade3dB</effectid>
							<effecttype>transition</effecttype>
							<mediatype>audio</mediatype>
							<wipecode>0</wipecode>
							<wipeaccuracy>100</wipeaccuracy>
							<startratio>0</startratio>
							<endratio>1</endratio>
							<reverse>FALSE</reverse>
						</effect>
					</transitionitem>
					<clipitem id="clipitem-1161" premiereChannelType="stereo">
						<masterclipid>masterclip-316</masterclipid>
						<name>Nordvisjon-MASTER-vr3-201016-ny-kontentum.wav</name>
						<enabled>TRUE</enabled>
						<duration>43013</duration>
						<rate>
							<timebase>25</timebase>
							<ntsc>FALSE</ntsc>
						</rate>
						<start>-1</start>
						<end>-1</end>
						<in>11186</in>
						<out>12655</out>
						<pproTicksIn>113656919040000</pproTicksIn>
						<pproTicksOut>128582899200000</pproTicksOut>
						<file id="file-316"/>
						<sourcetrack>
							<mediatype>audio</mediatype>
							<trackindex>2</trackindex>
						</sourcetrack>
							<filter>
								<effect>
									<name>Audio Levels</name>
									<effectid>audiolevels</effectid>
									<effectcategory>audiolevels</effectcategory>
									<effecttype>audiolevels</effecttype>
									<mediatype>audio</mediatype>
									<parameter authoringApp="PremierePro">
										<parameterid>level</parameterid>
										<name>Level</name>
										<valuemin>0</valuemin>
										<valuemax>3.98109</valuemax>
										<value>0.969328</value>
										<keyframe>
											<when>12048</when>
											<value>0.332543</value>
										</keyframe>
										<keyframe>
											<when>12066</when>
											<value>0.162734</value>
										</keyframe>
										<keyframe>
											<when>12145</when>
											<value>0.162734</value>
										</keyframe>
										<keyframe>
											<when>12158</when>
											<value>0.969328</value>
										</keyframe>
									</parameter>
								</effect>
							</filter>
							<marker>
								<comment></comment>
								<name></name>
								<in>40399</in>
								<out>-1</out>
							</marker>
							<marker>
								<comment></comment>
								<name></name>
								<in>3092</in>
								<out>-1</out>
							</marker>
							<marker>
								<comment></comment>
								<name></name>
								<in>36054</in>
								<out>-1</out>
							</marker>
							<marker>
								<comment></comment>
								<name></name>
								<in>0</in>
								<out>-1</out>
							</marker>
						<link>
							<linkclipref>clipitem-1025</linkclipref>
							<mediatype>audio</mediatype>
							<trackindex>10</trackindex>
							<clipindex>140</clipindex>
							<groupindex>1</groupindex>
						</link>
						<link>
							<linkclipref>clipitem-1161</linkclipref>
							<mediatype>audio</mediatype>
							<trackindex>11</trackindex>
							<clipindex>136</clipindex>
							<groupindex>1</groupindex>
						</link>
						<logginginfo>
							<description></description>
							<scene></scene>
							<shottake></shottake>
							<lognote></lognote>
						</logginginfo>
						<labels>
							<label2>Iris</label2>
						</labels>
					</clipitem>
					<transitionitem>
						<start>72763</start>
						<end>72775</end>
						<alignment>center</alignment>
						<cutPointTicks>60963840000</cutPointTicks>
						<rate>
							<timebase>25</timebase>
							<ntsc>FALSE</ntsc>
						</rate>
						<effect>
							<name>Cross Fade (+3dB)</name>
							<effectid>KGAudioTransCrossFade3dB</effectid>
							<effecttype>transition</effecttype>
							<mediatype>audio</mediatype>
							<wipecode>0</wipecode>
							<wipeaccuracy>100</wipeaccuracy>
							<startratio>0</startratio>
							<endratio>1</endratio>
							<reverse>FALSE</reverse>
						</effect>
					</transitionitem>
					<clipitem id="clipitem-1162" premiereChannelType="stereo">
						<masterclipid>masterclip-316</masterclipid>
						<name>Nordvisjon-MASTER-vr3-201016-ny-kontentum.wav</name>
						<enabled>TRUE</enabled>
						<duration>43013</duration>
						<rate>
							<timebase>25</timebase>
							<ntsc>FALSE</ntsc>
						</rate>
						<start>-1</start>
						<end>-1</end>
						<in>14118</in>
						<out>14936</out>
						<pproTicksIn>143447915520000</pproTicksIn>
						<pproTicksOut>151759319040000</pproTicksOut>
						<file id="file-316"/>
						<sourcetrack>
							<mediatype>audio</mediatype>
							<trackindex>2</trackindex>
						</sourcetrack>
							<filter>
								<effect>
									<name>Audio Levels</name>
									<effectid>audiolevels</effectid>
									<effectcategory>audiolevels</effectcategory>
									<effecttype>audiolevels</effecttype>
									<mediatype>audio</mediatype>
									<parameter authoringApp="PremierePro">
										<parameterid>level</parameterid>
										<name>Level</name>
										<valuemin>0</valuemin>
										<valuemax>3.98109</valuemax>
										<value>0.912725</value>
										<keyframe>
											<when>14156</when>
											<value>0.403297</value>
										</keyframe>
										<keyframe>
											<when>14168</when>
											<value>0.191036</value>
										</keyframe>
										<keyframe>
											<when>14641</when>
											<value>0.191036</value>
										</keyframe>
										<keyframe>
											<when>14662</when>
											<value>0.912725</value>
										</keyframe>
									</parameter>
								</effect>
							</filter>
							<marker>
								<comment></comment>
								<name></name>
								<in>40399</in>
								<out>-1</out>
							</marker>
							<marker>
								<comment></comment>
								<name></name>
								<in>3092</in>
								<out>-1</out>
							</marker>
							<marker>
								<comment></comment>
								<name></name>
								<in>36054</in>
								<out>-1</out>
							</marker>
							<marker>
								<comment></comment>
								<name></name>
								<in>0</in>
								<out>-1</out>
							</marker>
						<link>
							<linkclipref>clipitem-1026</linkclipref>
							<mediatype>audio</mediatype>
							<trackindex>10</trackindex>
							<clipindex>142</clipindex>
							<groupindex>1</groupindex>
						</link>
						<link>
							<linkclipref>clipitem-1162</linkclipref>
							<mediatype>audio</mediatype>
							<trackindex>11</trackindex>
							<clipindex>138</clipindex>
							<groupindex>1</groupindex>
						</link>
						<logginginfo>
							<description></description>
							<scene></scene>
							<shottake></shottake>
							<lognote></lognote>
						</logginginfo>
						<labels>
							<label2>Iris</label2>
						</labels>
					</clipitem>
					<transitionitem>
						<start>73569</start>
						<end>73581</end>
						<alignment>center</alignment>
						<cutPointTicks>60963840000</cutPointTicks>
						<rate>
							<timebase>25</timebase>
							<ntsc>FALSE</ntsc>
						</rate>
						<effect>
							<name>Cross Fade (+3dB)</name>
							<effectid>KGAudioTransCrossFade3dB</effectid>
							<effecttype>transition</effecttype>
							<mediatype>audio</mediatype>
							<wipecode>0</wipecode>
							<wipeaccuracy>100</wipeaccuracy>
							<startratio>0</startratio>
							<endratio>1</endratio>
							<reverse>FALSE</reverse>
						</effect>
					</transitionitem>
					<clipitem id="clipitem-1163" premiereChannelType="stereo">
						<masterclipid>masterclip-316</masterclipid>
						<name>Nordvisjon-MASTER-vr3-201016-ny-kontentum.wav</name>
						<enabled>TRUE</enabled>
						<duration>43013</duration>
						<rate>
							<timebase>25</timebase>
							<ntsc>FALSE</ntsc>
						</rate>
						<start>-1</start>
						<end>-1</end>
						<in>15447</in>
						<out>16526</out>
						<pproTicksIn>156951406080000</pproTicksIn>
						<pproTicksOut>167914736640000</pproTicksOut>
						<file id="file-316"/>
						<sourcetrack>
							<mediatype>audio</mediatype>
							<trackindex>2</trackindex>
						</sourcetrack>
							<filter>
								<effect>
									<name>Audio Levels</name>
									<effectid>audiolevels</effectid>
									<effectcategory>audiolevels</effectcategory>
									<effecttype>audiolevels</effecttype>
									<mediatype>audio</mediatype>
									<parameter authoringApp="PremierePro">
										<parameterid>level</parameterid>
										<name>Level</name>
										<valuemin>0</valuemin>
										<valuemax>3.98109</valuemax>
										<value>0.311545</value>
										<keyframe>
											<when>15555</when>
											<value>0.99763</value>
										</keyframe>
										<keyframe>
											<when>15618</when>
											<value>0.27594</value>
										</keyframe>
										<keyframe>
											<when>15794</when>
											<value>0.27594</value>
										</keyframe>
										<keyframe>
											<when>15846</when>
											<value>0.955178</value>
										</keyframe>
										<keyframe>
											<when>16217</when>
											<value>0.955178</value>
										</keyframe>
										<keyframe>
											<when>16262</when>
											<value>0.568998</value>
										</keyframe>
										<keyframe>
											<when>16313</when>
											<value>0.311545</value>
										</keyframe>
									</parameter>
								</effect>
							</filter>
							<marker>
								<comment></comment>
								<name></name>
								<in>40399</in>
								<out>-1</out>
							</marker>
							<marker>
								<comment></comment>
								<name></name>
								<in>3092</in>
								<out>-1</out>
							</marker>
							<marker>
								<comment></comment>
								<name></name>
								<in>36054</in>
								<out>-1</out>
							</marker>
							<marker>
								<comment></comment>
								<name></name>
								<in>0</in>
								<out>-1</out>
							</marker>
						<link>
							<linkclipref>clipitem-1027</linkclipref>
							<mediatype>audio</mediatype>
							<trackindex>10</trackindex>
							<clipindex>144</clipindex>
							<groupindex>1</groupindex>
						</link>
						<link>
							<linkclipref>clipitem-1163</linkclipref>
							<mediatype>audio</mediatype>
							<trackindex>11</trackindex>
							<clipindex>140</clipindex>
							<groupindex>1</groupindex>
						</link>
						<logginginfo>
							<description></description>
							<scene></scene>
							<shottake></shottake>
							<lognote></lognote>
						</logginginfo>
						<labels>
							<label2>Iris</label2>
						</labels>
					</clipitem>
					<transitionitem>
						<start>74497</start>
						<end>74648</end>
						<alignment>center</alignment>
						<cutPointTicks>762048000000</cutPointTicks>
						<rate>
							<timebase>25</timebase>
							<ntsc>FALSE</ntsc>
						</rate>
						<effect>
							<name>Cross Fade (+3dB)</name>
							<effectid>KGAudioTransCrossFade3dB</effectid>
							<effecttype>transition</effecttype>
							<mediatype>audio</mediatype>
							<wipecode>0</wipecode>
							<wipeaccuracy>100</wipeaccuracy>
							<startratio>0</startratio>
							<endratio>1</endratio>
							<reverse>FALSE</reverse>
						</effect>
					</transitionitem>
					<clipitem id="clipitem-1164" premiereChannelType="stereo">
						<masterclipid>masterclip-316</masterclipid>
						<name>Nordvisjon-MASTER-vr3-201016-ny-kontentum.wav</name>
						<enabled>TRUE</enabled>
						<duration>43013</duration>
						<rate>
							<timebase>25</timebase>
							<ntsc>FALSE</ntsc>
						</rate>
						<start>-1</start>
						<end>-1</end>
						<in>20323</in>
						<out>20912</out>
						<pproTicksIn>206494686720000</pproTicksIn>
						<pproTicksOut>212479303680000</pproTicksOut>
						<file id="file-316"/>
						<sourcetrack>
							<mediatype>audio</mediatype>
							<trackindex>2</trackindex>
						</sourcetrack>
							<marker>
								<comment></comment>
								<name></name>
								<in>40399</in>
								<out>-1</out>
							</marker>
							<marker>
								<comment></comment>
								<name></name>
								<in>3092</in>
								<out>-1</out>
							</marker>
							<marker>
								<comment></comment>
								<name></name>
								<in>36054</in>
								<out>-1</out>
							</marker>
							<marker>
								<comment></comment>
								<name></name>
								<in>0</in>
								<out>-1</out>
							</marker>
						<link>
							<linkclipref>clipitem-1028</linkclipref>
							<mediatype>audio</mediatype>
							<trackindex>10</trackindex>
							<clipindex>146</clipindex>
							<groupindex>1</groupindex>
						</link>
						<link>
							<linkclipref>clipitem-1164</linkclipref>
							<mediatype>audio</mediatype>
							<trackindex>11</trackindex>
							<clipindex>142</clipindex>
							<groupindex>1</groupindex>
						</link>
						<logginginfo>
							<description></description>
							<scene></scene>
							<shottake></shottake>
							<lognote></lognote>
						</logginginfo>
						<labels>
							<label2>Iris</label2>
						</labels>
					</clipitem>
					<transitionitem>
						<start>75073</start>
						<end>75086</end>
						<alignment>center</alignment>
						<cutPointTicks>60963840000</cutPointTicks>
						<rate>
							<timebase>25</timebase>
							<ntsc>FALSE</ntsc>
						</rate>
						<effect>
							<name>Cross Fade (+3dB)</name>
							<effectid>KGAudioTransCrossFade3dB</effectid>
							<effecttype>transition</effecttype>
							<mediatype>audio</mediatype>
							<wipecode>0</wipecode>
							<wipeaccuracy>100</wipeaccuracy>
							<startratio>0</startratio>
							<endratio>1</endratio>
							<reverse>FALSE</reverse>
						</effect>
					</transitionitem>
					<clipitem id="clipitem-1165" premiereChannelType="stereo">
						<masterclipid>masterclip-316</masterclipid>
						<name>Nordvisjon-MASTER-vr3-201016-ny-kontentum.wav</name>
						<enabled>TRUE</enabled>
						<duration>43013</duration>
						<rate>
							<timebase>25</timebase>
							<ntsc>FALSE</ntsc>
						</rate>
						<start>-1</start>
						<end>-1</end>
						<in>21901</in>
						<out>22209</out>
						<pproTicksIn>222528176640000</pproTicksIn>
						<pproTicksOut>225657653760000</pproTicksOut>
						<file id="file-316"/>
						<sourcetrack>
							<mediatype>audio</mediatype>
							<trackindex>2</trackindex>
						</sourcetrack>
							<marker>
								<comment></comment>
								<name></name>
								<in>40399</in>
								<out>-1</out>
							</marker>
							<marker>
								<comment></comment>
								<name></name>
								<in>3092</in>
								<out>-1</out>
							</marker>
							<marker>
								<comment></comment>
								<name></name>
								<in>36054</in>
								<out>-1</out>
							</marker>
							<marker>
								<comment></comment>
								<name></name>
								<in>0</in>
								<out>-1</out>
							</marker>
						<link>
							<linkclipref>clipitem-1029</linkclipref>
							<mediatype>audio</mediatype>
							<trackindex>10</trackindex>
							<clipindex>148</clipindex>
							<groupindex>1</groupindex>
						</link>
						<link>
							<linkclipref>clipitem-1165</linkclipref>
							<mediatype>audio</mediatype>
							<trackindex>11</trackindex>
							<clipindex>144</clipindex>
							<groupindex>1</groupindex>
						</link>
						<logginginfo>
							<description></description>
							<scene></scene>
							<shottake></shottake>
							<lognote></lognote>
						</logginginfo>
						<labels>
							<label2>Iris</label2>
						</labels>
					</clipitem>
					<transitionitem>
						<start>75368</start>
						<end>75381</end>
						<alignment>center</alignment>
						<cutPointTicks>60963840000</cutPointTicks>
						<rate>
							<timebase>25</timebase>
							<ntsc>FALSE</ntsc>
						</rate>
						<effect>
							<name>Cross Fade (+3dB)</name>
							<effectid>KGAudioTransCrossFade3dB</effectid>
							<effecttype>transition</effecttype>
							<mediatype>audio</mediatype>
							<wipecode>0</wipecode>
							<wipeaccuracy>100</wipeaccuracy>
							<startratio>0</startratio>
							<endratio>1</endratio>
							<reverse>FALSE</reverse>
						</effect>
					</transitionitem>
					<clipitem id="clipitem-1166" premiereChannelType="stereo">
						<masterclipid>masterclip-135</masterclipid>
						<name>Nordvisjon2MASTER_i-lyd_001.mxf</name>
						<enabled>TRUE</enabled>
						<duration>2125</duration>
						<rate>
							<timebase>25</timebase>
							<ntsc>FALSE</ntsc>
						</rate>
						<start>-1</start>
						<end>-1</end>
						<in>19</in>
						<out>2100</out>
						<pproTicksIn>193052160000</pproTicksIn>
						<pproTicksOut>21337344000000</pproTicksOut>
						<file id="file-135"/>
						<sourcetrack>
							<mediatype>audio</mediatype>
							<trackindex>2</trackindex>
						</sourcetrack>
						<link>
							<linkclipref>clipitem-1030</linkclipref>
							<mediatype>audio</mediatype>
							<trackindex>10</trackindex>
							<clipindex>150</clipindex>
							<groupindex>1</groupindex>
						</link>
						<link>
							<linkclipref>clipitem-1166</linkclipref>
							<mediatype>audio</mediatype>
							<trackindex>11</trackindex>
							<clipindex>146</clipindex>
							<groupindex>1</groupindex>
						</link>
						<logginginfo>
							<description></description>
							<scene></scene>
							<shottake></shottake>
							<lognote></lognote>
						</logginginfo>
						<labels>
							<label2>Iris</label2>
						</labels>
					</clipitem>
					<transitionitem>
						<start>77436</start>
						<end>77449</end>
						<alignment>center</alignment>
						<cutPointTicks>60963840000</cutPointTicks>
						<rate>
							<timebase>25</timebase>
							<ntsc>FALSE</ntsc>
						</rate>
						<effect>
							<name>Cross Fade (+3dB)</name>
							<effectid>KGAudioTransCrossFade3dB</effectid>
							<effecttype>transition</effecttype>
							<mediatype>audio</mediatype>
							<wipecode>0</wipecode>
							<wipeaccuracy>100</wipeaccuracy>
							<startratio>0</startratio>
							<endratio>1</endratio>
							<reverse>FALSE</reverse>
						</effect>
					</transitionitem>
					<clipitem id="clipitem-1167" premiereChannelType="stereo">
						<masterclipid>masterclip-136</masterclipid>
						<name>Nordvisjon2MASTER_i-lyd_011.mxf</name>
						<enabled>TRUE</enabled>
						<duration>1386</duration>
						<rate>
							<timebase>25</timebase>
							<ntsc>FALSE</ntsc>
						</rate>
						<start>-1</start>
						<end>-1</end>
						<in>25</in>
						<out>824</out>
						<pproTicksIn>254016000000</pproTicksIn>
						<pproTicksOut>8372367360000</pproTicksOut>
						<file id="file-136"/>
						<sourcetrack>
							<mediatype>audio</mediatype>
							<trackindex>2</trackindex>
						</sourcetrack>
						<link>
							<linkclipref>clipitem-1031</linkclipref>
							<mediatype>audio</mediatype>
							<trackindex>10</trackindex>
							<clipindex>152</clipindex>
							<groupindex>1</groupindex>
						</link>
						<link>
							<linkclipref>clipitem-1167</linkclipref>
							<mediatype>audio</mediatype>
							<trackindex>11</trackindex>
							<clipindex>148</clipindex>
							<groupindex>1</groupindex>
						</link>
						<logginginfo>
							<description></description>
							<scene></scene>
							<shottake></shottake>
							<lognote></lognote>
						</logginginfo>
						<labels>
							<label2>Iris</label2>
						</labels>
					</clipitem>
					<transitionitem>
						<start>78222</start>
						<end>78235</end>
						<alignment>center</alignment>
						<cutPointTicks>60963840000</cutPointTicks>
						<rate>
							<timebase>25</timebase>
							<ntsc>FALSE</ntsc>
						</rate>
						<effect>
							<name>Cross Fade (+3dB)</name>
							<effectid>KGAudioTransCrossFade3dB</effectid>
							<effecttype>transition</effecttype>
							<mediatype>audio</mediatype>
							<wipecode>0</wipecode>
							<wipeaccuracy>100</wipeaccuracy>
							<startratio>0</startratio>
							<endratio>1</endratio>
							<reverse>FALSE</reverse>
						</effect>
					</transitionitem>
					<clipitem id="clipitem-1168" premiereChannelType="stereo">
						<masterclipid>masterclip-137</masterclipid>
						<name>Nordvisjon2MASTER_i-lyd_002.mxf</name>
						<enabled>TRUE</enabled>
						<duration>859</duration>
						<rate>
							<timebase>25</timebase>
							<ntsc>FALSE</ntsc>
						</rate>
						<start>-1</start>
						<end>-1</end>
						<in>23</in>
						<out>827</out>
						<pproTicksIn>233694720000</pproTicksIn>
						<pproTicksOut>8402849280000</pproTicksOut>
						<file id="file-137"/>
						<sourcetrack>
							<mediatype>audio</mediatype>
							<trackindex>2</trackindex>
						</sourcetrack>
							<filter>
								<effect>
									<name>Audio Levels</name>
									<effectid>audiolevels</effectid>
									<effectcategory>audiolevels</effectcategory>
									<effecttype>audiolevels</effecttype>
									<mediatype>audio</mediatype>
									<parameter authoringApp="PremierePro">
										<parameterid>level</parameterid>
										<name>Level</name>
										<valuemin>0</valuemin>
										<valuemax>3.98109</valuemax>
										<value>0.611451</value>
									</parameter>
								</effect>
							</filter>
						<link>
							<linkclipref>clipitem-1032</linkclipref>
							<mediatype>audio</mediatype>
							<trackindex>10</trackindex>
							<clipindex>154</clipindex>
							<groupindex>1</groupindex>
						</link>
						<link>
							<linkclipref>clipitem-1168</linkclipref>
							<mediatype>audio</mediatype>
							<trackindex>11</trackindex>
							<clipindex>150</clipindex>
							<groupindex>1</groupindex>
						</link>
						<logginginfo>
							<description></description>
							<scene></scene>
							<shottake></shottake>
							<lognote></lognote>
						</logginginfo>
						<labels>
							<label2>Iris</label2>
						</labels>
					</clipitem>
					<transitionitem>
						<start>79013</start>
						<end>79026</end>
						<alignment>center</alignment>
						<cutPointTicks>60963840000</cutPointTicks>
						<rate>
							<timebase>25</timebase>
							<ntsc>FALSE</ntsc>
						</rate>
						<effect>
							<name>Cross Fade (+3dB)</name>
							<effectid>KGAudioTransCrossFade3dB</effectid>
							<effecttype>transition</effecttype>
							<mediatype>audio</mediatype>
							<wipecode>0</wipecode>
							<wipeaccuracy>100</wipeaccuracy>
							<startratio>0</startratio>
							<endratio>1</endratio>
							<reverse>FALSE</reverse>
						</effect>
					</transitionitem>
					<clipitem id="clipitem-1169" premiereChannelType="stereo">
						<masterclipid>masterclip-138</masterclipid>
						<name>Nordvisjon2MASTER_i-lyd_006.mxf</name>
						<enabled>TRUE</enabled>
						<duration>656</duration>
						<rate>
							<timebase>25</timebase>
							<ntsc>FALSE</ntsc>
						</rate>
						<start>-1</start>
						<end>-1</end>
						<in>25</in>
						<out>631</out>
						<pproTicksIn>254016000000</pproTicksIn>
						<pproTicksOut>6411363840000</pproTicksOut>
						<file id="file-138"/>
						<sourcetrack>
							<mediatype>audio</mediatype>
							<trackindex>2</trackindex>
						</sourcetrack>
						<link>
							<linkclipref>clipitem-1033</linkclipref>
							<mediatype>audio</mediatype>
							<trackindex>10</trackindex>
							<clipindex>156</clipindex>
							<groupindex>1</groupindex>
						</link>
						<link>
							<linkclipref>clipitem-1169</linkclipref>
							<mediatype>audio</mediatype>
							<trackindex>11</trackindex>
							<clipindex>152</clipindex>
							<groupindex>1</groupindex>
						</link>
						<logginginfo>
							<description></description>
							<scene></scene>
							<shottake></shottake>
							<lognote></lognote>
						</logginginfo>
						<labels>
							<label2>Iris</label2>
						</labels>
					</clipitem>
					<transitionitem>
						<start>79606</start>
						<end>79619</end>
						<alignment>center</alignment>
						<cutPointTicks>60963840000</cutPointTicks>
						<rate>
							<timebase>25</timebase>
							<ntsc>FALSE</ntsc>
						</rate>
						<effect>
							<name>Cross Fade (+3dB)</name>
							<effectid>KGAudioTransCrossFade3dB</effectid>
							<effecttype>transition</effecttype>
							<mediatype>audio</mediatype>
							<wipecode>0</wipecode>
							<wipeaccuracy>100</wipeaccuracy>
							<startratio>0</startratio>
							<endratio>1</endratio>
							<reverse>FALSE</reverse>
						</effect>
					</transitionitem>
					<clipitem id="clipitem-1170" premiereChannelType="stereo">
						<masterclipid>masterclip-139</masterclipid>
						<name>Nordvisjon2MASTER_i-lyd_003.mxf</name>
						<enabled>TRUE</enabled>
						<duration>985</duration>
						<rate>
							<timebase>25</timebase>
							<ntsc>FALSE</ntsc>
						</rate>
						<start>-1</start>
						<end>-1</end>
						<in>25</in>
						<out>960</out>
						<pproTicksIn>254016000000</pproTicksIn>
						<pproTicksOut>9754214400000</pproTicksOut>
						<file id="file-139"/>
						<sourcetrack>
							<mediatype>audio</mediatype>
							<trackindex>2</trackindex>
						</sourcetrack>
						<link>
							<linkclipref>clipitem-1034</linkclipref>
							<mediatype>audio</mediatype>
							<trackindex>10</trackindex>
							<clipindex>158</clipindex>
							<groupindex>1</groupindex>
						</link>
						<link>
							<linkclipref>clipitem-1170</linkclipref>
							<mediatype>audio</mediatype>
							<trackindex>11</trackindex>
							<clipindex>154</clipindex>
							<groupindex>1</groupindex>
						</link>
						<logginginfo>
							<description></description>
							<scene></scene>
							<shottake></shottake>
							<lognote></lognote>
						</logginginfo>
						<labels>
							<label2>Iris</label2>
						</labels>
					</clipitem>
					<transitionitem>
						<start>80528</start>
						<end>80541</end>
						<alignment>center</alignment>
						<cutPointTicks>60963840000</cutPointTicks>
						<rate>
							<timebase>25</timebase>
							<ntsc>FALSE</ntsc>
						</rate>
						<effect>
							<name>Cross Fade (+3dB)</name>
							<effectid>KGAudioTransCrossFade3dB</effectid>
							<effecttype>transition</effecttype>
							<mediatype>audio</mediatype>
							<wipecode>0</wipecode>
							<wipeaccuracy>100</wipeaccuracy>
							<startratio>0</startratio>
							<endratio>1</endratio>
							<reverse>FALSE</reverse>
						</effect>
					</transitionitem>
					<clipitem id="clipitem-1171" premiereChannelType="stereo">
						<masterclipid>masterclip-140</masterclipid>
						<name>Nordvisjon2MASTER_i-lyd_004.mxf</name>
						<enabled>TRUE</enabled>
						<duration>1678</duration>
						<rate>
							<timebase>25</timebase>
							<ntsc>FALSE</ntsc>
						</rate>
						<start>-1</start>
						<end>-1</end>
						<in>25</in>
						<out>1653</out>
						<pproTicksIn>254016000000</pproTicksIn>
						<pproTicksOut>16795537920000</pproTicksOut>
						<file id="file-140"/>
						<sourcetrack>
							<mediatype>audio</mediatype>
							<trackindex>2</trackindex>
						</sourcetrack>
						<link>
							<linkclipref>clipitem-1035</linkclipref>
							<mediatype>audio</mediatype>
							<trackindex>10</trackindex>
							<clipindex>160</clipindex>
							<groupindex>1</groupindex>
						</link>
						<link>
							<linkclipref>clipitem-1171</linkclipref>
							<mediatype>audio</mediatype>
							<trackindex>11</trackindex>
							<clipindex>156</clipindex>
							<groupindex>1</groupindex>
						</link>
						<logginginfo>
							<description></description>
							<scene></scene>
							<shottake></shottake>
							<lognote></lognote>
						</logginginfo>
						<labels>
							<label2>Iris</label2>
						</labels>
					</clipitem>
					<transitionitem>
						<start>82143</start>
						<end>82156</end>
						<alignment>center</alignment>
						<cutPointTicks>60963840000</cutPointTicks>
						<rate>
							<timebase>25</timebase>
							<ntsc>FALSE</ntsc>
						</rate>
						<effect>
							<name>Cross Fade (+3dB)</name>
							<effectid>KGAudioTransCrossFade3dB</effectid>
							<effecttype>transition</effecttype>
							<mediatype>audio</mediatype>
							<wipecode>0</wipecode>
							<wipeaccuracy>100</wipeaccuracy>
							<startratio>0</startratio>
							<endratio>1</endratio>
							<reverse>FALSE</reverse>
						</effect>
					</transitionitem>
					<clipitem id="clipitem-1172" premiereChannelType="stereo">
						<masterclipid>masterclip-141</masterclipid>
						<name>Nordvisjon2MASTER_i-lyd_005.mxf</name>
						<enabled>TRUE</enabled>
						<duration>3202</duration>
						<rate>
							<timebase>25</timebase>
							<ntsc>FALSE</ntsc>
						</rate>
						<start>-1</start>
						<end>-1</end>
						<in>25</in>
						<out>3177</out>
						<pproTicksIn>254016000000</pproTicksIn>
						<pproTicksOut>32280353280000</pproTicksOut>
						<file id="file-141"/>
						<sourcetrack>
							<mediatype>audio</mediatype>
							<trackindex>2</trackindex>
						</sourcetrack>
						<link>
							<linkclipref>clipitem-1036</linkclipref>
							<mediatype>audio</mediatype>
							<trackindex>10</trackindex>
							<clipindex>162</clipindex>
							<groupindex>1</groupindex>
						</link>
						<link>
							<linkclipref>clipitem-1172</linkclipref>
							<mediatype>audio</mediatype>
							<trackindex>11</trackindex>
							<clipindex>158</clipindex>
							<groupindex>1</groupindex>
						</link>
						<logginginfo>
							<description></description>
							<scene></scene>
							<shottake></shottake>
							<lognote></lognote>
						</logginginfo>
						<labels>
							<label2>Iris</label2>
						</labels>
					</clipitem>
					<transitionitem>
						<start>85282</start>
						<end>85295</end>
						<alignment>center</alignment>
						<cutPointTicks>60963840000</cutPointTicks>
						<rate>
							<timebase>25</timebase>
							<ntsc>FALSE</ntsc>
						</rate>
						<effect>
							<name>Cross Fade (+3dB)</name>
							<effectid>KGAudioTransCrossFade3dB</effectid>
							<effecttype>transition</effecttype>
							<mediatype>audio</mediatype>
							<wipecode>0</wipecode>
							<wipeaccuracy>100</wipeaccuracy>
							<startratio>0</startratio>
							<endratio>1</endratio>
							<reverse>FALSE</reverse>
						</effect>
					</transitionitem>
					<clipitem id="clipitem-1173" premiereChannelType="stereo">
						<masterclipid>masterclip-142</masterclipid>
						<name>Nordvisjon2MASTER_i-lyd_008.mxf</name>
						<enabled>TRUE</enabled>
						<duration>363</duration>
						<rate>
							<timebase>25</timebase>
							<ntsc>FALSE</ntsc>
						</rate>
						<start>-1</start>
						<end>-1</end>
						<in>25</in>
						<out>338</out>
						<pproTicksIn>254016000000</pproTicksIn>
						<pproTicksOut>3434296320000</pproTicksOut>
						<file id="file-142"/>
						<sourcetrack>
							<mediatype>audio</mediatype>
							<trackindex>2</trackindex>
						</sourcetrack>
						<link>
							<linkclipref>clipitem-1037</linkclipref>
							<mediatype>audio</mediatype>
							<trackindex>10</trackindex>
							<clipindex>164</clipindex>
							<groupindex>1</groupindex>
						</link>
						<link>
							<linkclipref>clipitem-1173</linkclipref>
							<mediatype>audio</mediatype>
							<trackindex>11</trackindex>
							<clipindex>160</clipindex>
							<groupindex>1</groupindex>
						</link>
						<logginginfo>
							<description></description>
							<scene></scene>
							<shottake></shottake>
							<lognote></lognote>
						</logginginfo>
						<labels>
							<label2>Iris</label2>
						</labels>
					</clipitem>
					<transitionitem>
						<start>85582</start>
						<end>85595</end>
						<alignment>center</alignment>
						<cutPointTicks>60963840000</cutPointTicks>
						<rate>
							<timebase>25</timebase>
							<ntsc>FALSE</ntsc>
						</rate>
						<effect>
							<name>Cross Fade (+3dB)</name>
							<effectid>KGAudioTransCrossFade3dB</effectid>
							<effecttype>transition</effecttype>
							<mediatype>audio</mediatype>
							<wipecode>0</wipecode>
							<wipeaccuracy>100</wipeaccuracy>
							<startratio>0</startratio>
							<endratio>1</endratio>
							<reverse>FALSE</reverse>
						</effect>
					</transitionitem>
					<clipitem id="clipitem-1174" premiereChannelType="stereo">
						<masterclipid>masterclip-136</masterclipid>
						<name>Nordvisjon2MASTER_i-lyd_011.mxf</name>
						<enabled>TRUE</enabled>
						<duration>1386</duration>
						<rate>
							<timebase>25</timebase>
							<ntsc>FALSE</ntsc>
						</rate>
						<start>-1</start>
						<end>-1</end>
						<in>971</in>
						<out>1123</out>
						<pproTicksIn>9865981440000</pproTicksIn>
						<pproTicksOut>11410398720000</pproTicksOut>
						<file id="file-136"/>
						<sourcetrack>
							<mediatype>audio</mediatype>
							<trackindex>2</trackindex>
						</sourcetrack>
						<link>
							<linkclipref>clipitem-1038</linkclipref>
							<mediatype>audio</mediatype>
							<trackindex>10</trackindex>
							<clipindex>166</clipindex>
							<groupindex>1</groupindex>
						</link>
						<link>
							<linkclipref>clipitem-1174</linkclipref>
							<mediatype>audio</mediatype>
							<trackindex>11</trackindex>
							<clipindex>162</clipindex>
							<groupindex>1</groupindex>
						</link>
						<logginginfo>
							<description></description>
							<scene></scene>
							<shottake></shottake>
							<lognote></lognote>
						</logginginfo>
						<labels>
							<label2>Iris</label2>
						</labels>
					</clipitem>
					<transitionitem>
						<start>85721</start>
						<end>85734</end>
						<alignment>center</alignment>
						<cutPointTicks>60963840000</cutPointTicks>
						<rate>
							<timebase>25</timebase>
							<ntsc>FALSE</ntsc>
						</rate>
						<effect>
							<name>Cross Fade (+3dB)</name>
							<effectid>KGAudioTransCrossFade3dB</effectid>
							<effecttype>transition</effecttype>
							<mediatype>audio</mediatype>
							<wipecode>0</wipecode>
							<wipeaccuracy>100</wipeaccuracy>
							<startratio>0</startratio>
							<endratio>1</endratio>
							<reverse>FALSE</reverse>
						</effect>
					</transitionitem>
					<clipitem id="clipitem-1175" premiereChannelType="stereo">
						<masterclipid>masterclip-143</masterclipid>
						<name>Nordvisjon2MASTER_i-lyd_010.mxf</name>
						<enabled>TRUE</enabled>
						<duration>289</duration>
						<rate>
							<timebase>25</timebase>
							<ntsc>FALSE</ntsc>
						</rate>
						<start>-1</start>
						<end>-1</end>
						<in>25</in>
						<out>271</out>
						<pproTicksIn>254016000000</pproTicksIn>
						<pproTicksOut>2753533440000</pproTicksOut>
						<file id="file-143"/>
						<sourcetrack>
							<mediatype>audio</mediatype>
							<trackindex>2</trackindex>
						</sourcetrack>
						<link>
							<linkclipref>clipitem-1039</linkclipref>
							<mediatype>audio</mediatype>
							<trackindex>10</trackindex>
							<clipindex>168</clipindex>
							<groupindex>1</groupindex>
						</link>
						<link>
							<linkclipref>clipitem-1175</linkclipref>
							<mediatype>audio</mediatype>
							<trackindex>11</trackindex>
							<clipindex>164</clipindex>
							<groupindex>1</groupindex>
						</link>
						<logginginfo>
							<description></description>
							<scene></scene>
							<shottake></shottake>
							<lognote></lognote>
						</logginginfo>
						<labels>
							<label2>Iris</label2>
						</labels>
					</clipitem>
					<transitionitem>
						<start>85954</start>
						<end>85967</end>
						<alignment>center</alignment>
						<cutPointTicks>60963840000</cutPointTicks>
						<rate>
							<timebase>25</timebase>
							<ntsc>FALSE</ntsc>
						</rate>
						<effect>
							<name>Cross Fade (+3dB)</name>
							<effectid>KGAudioTransCrossFade3dB</effectid>
							<effecttype>transition</effecttype>
							<mediatype>audio</mediatype>
							<wipecode>0</wipecode>
							<wipeaccuracy>100</wipeaccuracy>
							<startratio>0</startratio>
							<endratio>1</endratio>
							<reverse>FALSE</reverse>
						</effect>
					</transitionitem>
					<clipitem id="clipitem-1176" premiereChannelType="stereo">
						<masterclipid>masterclip-144</masterclipid>
						<name>Nordvisjon2MASTER_i-lyd_007.mxf</name>
						<enabled>TRUE</enabled>
						<duration>2723</duration>
						<rate>
							<timebase>25</timebase>
							<ntsc>FALSE</ntsc>
						</rate>
						<start>-1</start>
						<end>-1</end>
						<in>68</in>
						<out>2698</out>
						<pproTicksIn>690923520000</pproTicksIn>
						<pproTicksOut>27413406720000</pproTicksOut>
						<file id="file-144"/>
						<sourcetrack>
							<mediatype>audio</mediatype>
							<trackindex>2</trackindex>
						</sourcetrack>
						<link>
							<linkclipref>clipitem-1040</linkclipref>
							<mediatype>audio</mediatype>
							<trackindex>10</trackindex>
							<clipindex>170</clipindex>
							<groupindex>1</groupindex>
						</link>
						<link>
							<linkclipref>clipitem-1176</linkclipref>
							<mediatype>audio</mediatype>
							<trackindex>11</trackindex>
							<clipindex>166</clipindex>
							<groupindex>1</groupindex>
						</link>
						<logginginfo>
							<description></description>
							<scene></scene>
							<shottake></shottake>
							<lognote></lognote>
						</logginginfo>
						<labels>
							<label2>Iris</label2>
						</labels>
					</clipitem>
					<transitionitem>
						<start>88571</start>
						<end>88584</end>
						<alignment>center</alignment>
						<cutPointTicks>60963840000</cutPointTicks>
						<rate>
							<timebase>25</timebase>
							<ntsc>FALSE</ntsc>
						</rate>
						<effect>
							<name>Cross Fade (+3dB)</name>
							<effectid>KGAudioTransCrossFade3dB</effectid>
							<effecttype>transition</effecttype>
							<mediatype>audio</mediatype>
							<wipecode>0</wipecode>
							<wipeaccuracy>100</wipeaccuracy>
							<startratio>0</startratio>
							<endratio>1</endratio>
							<reverse>FALSE</reverse>
						</effect>
					</transitionitem>
					<clipitem id="clipitem-1177" premiereChannelType="stereo">
						<masterclipid>masterclip-145</masterclipid>
						<name>Nordvisjon2MASTER_i-lyd_009.mxf</name>
						<enabled>TRUE</enabled>
						<duration>380</duration>
						<rate>
							<timebase>25</timebase>
							<ntsc>FALSE</ntsc>
						</rate>
						<start>-1</start>
						<end>-1</end>
						<in>25</in>
						<out>248</out>
						<pproTicksIn>254016000000</pproTicksIn>
						<pproTicksOut>2519838720000</pproTicksOut>
						<file id="file-145"/>
						<sourcetrack>
							<mediatype>audio</mediatype>
							<trackindex>2</trackindex>
						</sourcetrack>
						<link>
							<linkclipref>clipitem-1041</linkclipref>
							<mediatype>audio</mediatype>
							<trackindex>10</trackindex>
							<clipindex>172</clipindex>
							<groupindex>1</groupindex>
						</link>
						<link>
							<linkclipref>clipitem-1177</linkclipref>
							<mediatype>audio</mediatype>
							<trackindex>11</trackindex>
							<clipindex>168</clipindex>
							<groupindex>1</groupindex>
						</link>
						<logginginfo>
							<description></description>
							<scene></scene>
							<shottake></shottake>
							<lognote></lognote>
						</logginginfo>
						<labels>
							<label2>Iris</label2>
						</labels>
					</clipitem>
					<transitionitem>
						<start>88781</start>
						<end>88794</end>
						<alignment>center</alignment>
						<cutPointTicks>60963840000</cutPointTicks>
						<rate>
							<timebase>25</timebase>
							<ntsc>FALSE</ntsc>
						</rate>
						<effect>
							<name>Cross Fade (+3dB)</name>
							<effectid>KGAudioTransCrossFade3dB</effectid>
							<effecttype>transition</effecttype>
							<mediatype>audio</mediatype>
							<wipecode>0</wipecode>
							<wipeaccuracy>100</wipeaccuracy>
							<startratio>0</startratio>
							<endratio>1</endratio>
							<reverse>FALSE</reverse>
						</effect>
					</transitionitem>
					<clipitem id="clipitem-1178" premiereChannelType="stereo">
						<masterclipid>masterclip-136</masterclipid>
						<name>Nordvisjon2MASTER_i-lyd_011.mxf</name>
						<enabled>TRUE</enabled>
						<duration>1386</duration>
						<rate>
							<timebase>25</timebase>
							<ntsc>FALSE</ntsc>
						</rate>
						<start>-1</start>
						<end>-1</end>
						<in>811</in>
						<out>1361</out>
						<pproTicksIn>8240279040000</pproTicksIn>
						<pproTicksOut>13828631040000</pproTicksOut>
						<file id="file-136"/>
						<sourcetrack>
							<mediatype>audio</mediatype>
							<trackindex>2</trackindex>
						</sourcetrack>
						<link>
							<linkclipref>clipitem-1042</linkclipref>
							<mediatype>audio</mediatype>
							<trackindex>10</trackindex>
							<clipindex>174</clipindex>
							<groupindex>1</groupindex>
						</link>
						<link>
							<linkclipref>clipitem-1178</linkclipref>
							<mediatype>audio</mediatype>
							<trackindex>11</trackindex>
							<clipindex>170</clipindex>
							<groupindex>1</groupindex>
						</link>
						<logginginfo>
							<description></description>
							<scene></scene>
							<shottake></shottake>
							<lognote></lognote>
						</logginginfo>
						<labels>
							<label2>Iris</label2>
						</labels>
					</clipitem>
					<transitionitem>
						<start>89318</start>
						<end>89331</end>
						<alignment>end-black</alignment>
						<cutPointTicks>132088320000</cutPointTicks>
						<rate>
							<timebase>25</timebase>
							<ntsc>FALSE</ntsc>
						</rate>
						<effect>
							<name>Cross Fade (+3dB)</name>
							<effectid>KGAudioTransCrossFade3dB</effectid>
							<effecttype>transition</effecttype>
							<mediatype>audio</mediatype>
							<wipecode>0</wipecode>
							<wipeaccuracy>100</wipeaccuracy>
							<startratio>0</startratio>
							<endratio>1</endratio>
							<reverse>FALSE</reverse>
						</effect>
					</transitionitem>
					<transitionitem>
						<start>91951</start>
						<end>91964</end>
						<alignment>start-black</alignment>
						<cutPointTicks>0</cutPointTicks>
						<rate>
							<timebase>25</timebase>
							<ntsc>FALSE</ntsc>
						</rate>
						<effect>
							<name>Cross Fade (+3dB)</name>
							<effectid>KGAudioTransCrossFade3dB</effectid>
							<effecttype>transition</effecttype>
							<mediatype>audio</mediatype>
							<wipecode>0</wipecode>
							<wipeaccuracy>100</wipeaccuracy>
							<startratio>0</startratio>
							<endratio>1</endratio>
							<reverse>FALSE</reverse>
						</effect>
					</transitionitem>
					<clipitem id="clipitem-1179" premiereChannelType="stereo">
						<masterclipid>masterclip-323</masterclipid>
						<name>Nordvisjon3MASTER musikk.wav</name>
						<enabled>TRUE</enabled>
						<duration>43207</duration>
						<rate>
							<timebase>25</timebase>
							<ntsc>FALSE</ntsc>
						</rate>
						<start>-1</start>
						<end>-1</end>
						<in>5892</in>
						<out>6029</out>
						<pproTicksIn>59866490880000</pproTicksIn>
						<pproTicksOut>61258498560000</pproTicksOut>
						<file id="file-323"/>
						<sourcetrack>
							<mediatype>audio</mediatype>
							<trackindex>2</trackindex>
						</sourcetrack>
						<link>
							<linkclipref>clipitem-1043</linkclipref>
							<mediatype>audio</mediatype>
							<trackindex>10</trackindex>
							<clipindex>177</clipindex>
							<groupindex>1</groupindex>
						</link>
						<link>
							<linkclipref>clipitem-1179</linkclipref>
							<mediatype>audio</mediatype>
							<trackindex>11</trackindex>
							<clipindex>173</clipindex>
							<groupindex>1</groupindex>
						</link>
						<logginginfo>
							<description></description>
							<scene></scene>
							<shottake></shottake>
							<lognote></lognote>
						</logginginfo>
						<labels>
							<label2>Iris</label2>
						</labels>
					</clipitem>
					<transitionitem>
						<start>92075</start>
						<end>92088</end>
						<alignment>end-black</alignment>
						<cutPointTicks>132088320000</cutPointTicks>
						<rate>
							<timebase>25</timebase>
							<ntsc>FALSE</ntsc>
						</rate>
						<effect>
							<name>Cross Fade (+3dB)</name>
							<effectid>KGAudioTransCrossFade3dB</effectid>
							<effecttype>transition</effecttype>
							<mediatype>audio</mediatype>
							<wipecode>0</wipecode>
							<wipeaccuracy>100</wipeaccuracy>
							<startratio>0</startratio>
							<endratio>1</endratio>
							<reverse>FALSE</reverse>
						</effect>
					</transitionitem>
					<transitionitem>
						<start>93071</start>
						<end>93084</end>
						<alignment>start-black</alignment>
						<cutPointTicks>0</cutPointTicks>
						<rate>
							<timebase>25</timebase>
							<ntsc>FALSE</ntsc>
						</rate>
						<effect>
							<name>Cross Fade (+3dB)</name>
							<effectid>KGAudioTransCrossFade3dB</effectid>
							<effecttype>transition</effecttype>
							<mediatype>audio</mediatype>
							<wipecode>0</wipecode>
							<wipeaccuracy>100</wipeaccuracy>
							<startratio>0</startratio>
							<endratio>1</endratio>
							<reverse>FALSE</reverse>
						</effect>
					</transitionitem>
					<clipitem id="clipitem-1180" premiereChannelType="stereo">
						<masterclipid>masterclip-316</masterclipid>
						<name>Nordvisjon-MASTER-vr3-201016-ny-kontentum.wav</name>
						<enabled>TRUE</enabled>
						<duration>43013</duration>
						<rate>
							<timebase>25</timebase>
							<ntsc>FALSE</ntsc>
						</rate>
						<start>-1</start>
						<end>-1</end>
						<in>40361</in>
						<out>40470</out>
						<pproTicksIn>410093591040000</pproTicksIn>
						<pproTicksOut>411201100800000</pproTicksOut>
						<file id="file-316"/>
						<sourcetrack>
							<mediatype>audio</mediatype>
							<trackindex>2</trackindex>
						</sourcetrack>
							<marker>
								<comment></comment>
								<name></name>
								<in>40399</in>
								<out>-1</out>
							</marker>
							<marker>
								<comment></comment>
								<name></name>
								<in>3092</in>
								<out>-1</out>
							</marker>
							<marker>
								<comment></comment>
								<name></name>
								<in>36054</in>
								<out>-1</out>
							</marker>
							<marker>
								<comment></comment>
								<name></name>
								<in>0</in>
								<out>-1</out>
							</marker>
						<link>
							<linkclipref>clipitem-1044</linkclipref>
							<mediatype>audio</mediatype>
							<trackindex>10</trackindex>
							<clipindex>180</clipindex>
							<groupindex>1</groupindex>
						</link>
						<link>
							<linkclipref>clipitem-1180</linkclipref>
							<mediatype>audio</mediatype>
							<trackindex>11</trackindex>
							<clipindex>176</clipindex>
							<groupindex>1</groupindex>
						</link>
						<logginginfo>
							<description></description>
							<scene></scene>
							<shottake></shottake>
							<lognote></lognote>
						</logginginfo>
						<labels>
							<label2>Iris</label2>
						</labels>
					</clipitem>
					<transitionitem>
						<start>93168</start>
						<end>93180</end>
						<alignment>center</alignment>
						<cutPointTicks>60963840000</cutPointTicks>
						<rate>
							<timebase>25</timebase>
							<ntsc>FALSE</ntsc>
						</rate>
						<effect>
							<name>Cross Fade (+3dB)</name>
							<effectid>KGAudioTransCrossFade3dB</effectid>
							<effecttype>transition</effecttype>
							<mediatype>audio</mediatype>
							<wipecode>0</wipecode>
							<wipeaccuracy>100</wipeaccuracy>
							<startratio>0</startratio>
							<endratio>1</endratio>
							<reverse>FALSE</reverse>
						</effect>
					</transitionitem>
					<clipitem id="clipitem-1181" premiereChannelType="stereo">
						<masterclipid>masterclip-316</masterclipid>
						<name>Nordvisjon-MASTER-vr3-201016-ny-kontentum.wav</name>
						<enabled>TRUE</enabled>
						<duration>43013</duration>
						<rate>
							<timebase>25</timebase>
							<ntsc>FALSE</ntsc>
						</rate>
						<start>-1</start>
						<end>-1</end>
						<in>40051</in>
						<out>40142</out>
						<pproTicksIn>406943792640000</pproTicksIn>
						<pproTicksOut>407868410880000</pproTicksOut>
						<file id="file-316"/>
						<sourcetrack>
							<mediatype>audio</mediatype>
							<trackindex>2</trackindex>
						</sourcetrack>
							<marker>
								<comment></comment>
								<name></name>
								<in>40399</in>
								<out>-1</out>
							</marker>
							<marker>
								<comment></comment>
								<name></name>
								<in>3092</in>
								<out>-1</out>
							</marker>
							<marker>
								<comment></comment>
								<name></name>
								<in>36054</in>
								<out>-1</out>
							</marker>
							<marker>
								<comment></comment>
								<name></name>
								<in>0</in>
								<out>-1</out>
							</marker>
						<link>
							<linkclipref>clipitem-1045</linkclipref>
							<mediatype>audio</mediatype>
							<trackindex>10</trackindex>
							<clipindex>182</clipindex>
							<groupindex>1</groupindex>
						</link>
						<link>
							<linkclipref>clipitem-1181</linkclipref>
							<mediatype>audio</mediatype>
							<trackindex>11</trackindex>
							<clipindex>178</clipindex>
							<groupindex>1</groupindex>
						</link>
						<logginginfo>
							<description></description>
							<scene></scene>
							<shottake></shottake>
							<lognote></lognote>
						</logginginfo>
						<labels>
							<label2>Iris</label2>
						</labels>
					</clipitem>
					<transitionitem>
						<start>93247</start>
						<end>93259</end>
						<alignment>center</alignment>
						<cutPointTicks>60963840000</cutPointTicks>
						<rate>
							<timebase>25</timebase>
							<ntsc>FALSE</ntsc>
						</rate>
						<effect>
							<name>Cross Fade (+3dB)</name>
							<effectid>KGAudioTransCrossFade3dB</effectid>
							<effecttype>transition</effecttype>
							<mediatype>audio</mediatype>
							<wipecode>0</wipecode>
							<wipeaccuracy>100</wipeaccuracy>
							<startratio>0</startratio>
							<endratio>1</endratio>
							<reverse>FALSE</reverse>
						</effect>
					</transitionitem>
					<clipitem id="clipitem-1182" premiereChannelType="stereo">
						<masterclipid>masterclip-316</masterclipid>
						<name>Nordvisjon-MASTER-vr3-201016-ny-kontentum.wav</name>
						<enabled>TRUE</enabled>
						<duration>43013</duration>
						<rate>
							<timebase>25</timebase>
							<ntsc>FALSE</ntsc>
						</rate>
						<start>-1</start>
						<end>-1</end>
						<in>40843</in>
						<out>42119</out>
						<pproTicksIn>414991019520000</pproTicksIn>
						<pproTicksOut>427955996160000</pproTicksOut>
						<file id="file-316"/>
						<sourcetrack>
							<mediatype>audio</mediatype>
							<trackindex>2</trackindex>
						</sourcetrack>
							<marker>
								<comment></comment>
								<name></name>
								<in>40399</in>
								<out>-1</out>
							</marker>
							<marker>
								<comment></comment>
								<name></name>
								<in>3092</in>
								<out>-1</out>
							</marker>
							<marker>
								<comment></comment>
								<name></name>
								<in>36054</in>
								<out>-1</out>
							</marker>
							<marker>
								<comment></comment>
								<name></name>
								<in>0</in>
								<out>-1</out>
							</marker>
						<link>
							<linkclipref>clipitem-1046</linkclipref>
							<mediatype>audio</mediatype>
							<trackindex>10</trackindex>
							<clipindex>184</clipindex>
							<groupindex>1</groupindex>
						</link>
						<link>
							<linkclipref>clipitem-1182</linkclipref>
							<mediatype>audio</mediatype>
							<trackindex>11</trackindex>
							<clipindex>180</clipindex>
							<groupindex>1</groupindex>
						</link>
						<logginginfo>
							<description></description>
							<scene></scene>
							<shottake></shottake>
							<lognote></lognote>
						</logginginfo>
						<labels>
							<label2>Iris</label2>
						</labels>
					</clipitem>
					<transitionitem>
						<start>94510</start>
						<end>94523</end>
						<alignment>end-black</alignment>
						<cutPointTicks>132088320000</cutPointTicks>
						<rate>
							<timebase>25</timebase>
							<ntsc>FALSE</ntsc>
						</rate>
						<effect>
							<name>Cross Fade (+3dB)</name>
							<effectid>KGAudioTransCrossFade3dB</effectid>
							<effecttype>transition</effecttype>
							<mediatype>audio</mediatype>
							<wipecode>0</wipecode>
							<wipeaccuracy>100</wipeaccuracy>
							<startratio>0</startratio>
							<endratio>1</endratio>
							<reverse>FALSE</reverse>
						</effect>
					</transitionitem>
					<transitionitem>
						<start>95251</start>
						<end>95264</end>
						<alignment>start-black</alignment>
						<cutPointTicks>0</cutPointTicks>
						<rate>
							<timebase>25</timebase>
							<ntsc>FALSE</ntsc>
						</rate>
						<effect>
							<name>Cross Fade (+3dB)</name>
							<effectid>KGAudioTransCrossFade3dB</effectid>
							<effecttype>transition</effecttype>
							<mediatype>audio</mediatype>
							<wipecode>0</wipecode>
							<wipeaccuracy>100</wipeaccuracy>
							<startratio>0</startratio>
							<endratio>1</endratio>
							<reverse>FALSE</reverse>
						</effect>
					</transitionitem>
					<clipitem id="clipitem-1183" premiereChannelType="stereo">
						<masterclipid>masterclip-318</masterclipid>
						<name>Nordvisjon3MASTER kommentar.wav</name>
						<enabled>TRUE</enabled>
						<duration>42413</duration>
						<rate>
							<timebase>25</timebase>
							<ntsc>FALSE</ntsc>
						</rate>
						<start>-1</start>
						<end>-1</end>
						<in>7243</in>
						<out>7954</out>
						<pproTicksIn>73593515520000</pproTicksIn>
						<pproTicksOut>80817730560000</pproTicksOut>
						<file id="file-318"/>
						<sourcetrack>
							<mediatype>audio</mediatype>
							<trackindex>2</trackindex>
						</sourcetrack>
						<link>
							<linkclipref>clipitem-1047</linkclipref>
							<mediatype>audio</mediatype>
							<trackindex>10</trackindex>
							<clipindex>187</clipindex>
							<groupindex>1</groupindex>
						</link>
						<link>
							<linkclipref>clipitem-1183</linkclipref>
							<mediatype>audio</mediatype>
							<trackindex>11</trackindex>
							<clipindex>183</clipindex>
							<groupindex>1</groupindex>
						</link>
						<logginginfo>
							<description></description>
							<scene></scene>
							<shottake></shottake>
							<lognote></lognote>
						</logginginfo>
						<labels>
							<label2>Iris</label2>
						</labels>
					</clipitem>
					<transitionitem>
						<start>95949</start>
						<end>95962</end>
						<alignment>end-black</alignment>
						<cutPointTicks>132088320000</cutPointTicks>
						<rate>
							<timebase>25</timebase>
							<ntsc>FALSE</ntsc>
						</rate>
						<effect>
							<name>Cross Fade (+3dB)</name>
							<effectid>KGAudioTransCrossFade3dB</effectid>
							<effecttype>transition</effecttype>
							<mediatype>audio</mediatype>
							<wipecode>0</wipecode>
							<wipeaccuracy>100</wipeaccuracy>
							<startratio>0</startratio>
							<endratio>1</endratio>
							<reverse>FALSE</reverse>
						</effect>
					</transitionitem>
					<clipitem id="clipitem-1184" premiereChannelType="stereo">
						<masterclipid>masterclip-324</masterclipid>
						<name>MASTER starten av  Lyden av natur  28 nov NY.wav</name>
						<enabled>TRUE</enabled>
						<duration>18529</duration>
						<rate>
							<timebase>25</timebase>
							<ntsc>FALSE</ntsc>
						</rate>
						<start>101840</start>
						<end>102301</end>
						<in>3379</in>
						<out>3840</out>
						<pproTicksIn>34332802560000</pproTicksIn>
						<pproTicksOut>39016857600000</pproTicksOut>
						<file id="file-324"/>
						<sourcetrack>
							<mediatype>audio</mediatype>
							<trackindex>2</trackindex>
						</sourcetrack>
							<filter>
								<effect>
									<name>Audio Levels</name>
									<effectid>audiolevels</effectid>
									<effectcategory>audiolevels</effectcategory>
									<effecttype>audiolevels</effecttype>
									<mediatype>audio</mediatype>
									<parameter authoringApp="PremierePro">
										<parameterid>level</parameterid>
										<name>Level</name>
										<valuemin>0</valuemin>
										<valuemax>3.98109</valuemax>
										<value>0.99763</value>
										<keyframe>
											<when>3395</when>
											<value>0</value>
										</keyframe>
										<keyframe>
											<when>3423</when>
											<value>0.99763</value>
										</keyframe>
									</parameter>
								</effect>
							</filter>
						<link>
							<linkclipref>clipitem-1048</linkclipref>
							<mediatype>audio</mediatype>
							<trackindex>10</trackindex>
							<clipindex>189</clipindex>
							<groupindex>1</groupindex>
						</link>
						<link>
							<linkclipref>clipitem-1184</linkclipref>
							<mediatype>audio</mediatype>
							<trackindex>11</trackindex>
							<clipindex>185</clipindex>
							<groupindex>1</groupindex>
						</link>
						<logginginfo>
							<description></description>
							<scene></scene>
							<shottake></shottake>
							<lognote></lognote>
						</logginginfo>
						<labels>
							<label2>Caribbean</label2>
						</labels>
					</clipitem>
					<clipitem id="clipitem-1185" premiereChannelType="stereo">
						<masterclipid>masterclip-324</masterclipid>
						<name>MASTER starten av  Lyden av natur  28 nov NY.wav</name>
						<enabled>TRUE</enabled>
						<duration>18529</duration>
						<rate>
							<timebase>25</timebase>
							<ntsc>FALSE</ntsc>
						</rate>
						<start>102301</start>
						<end>103496</end>
						<in>1900</in>
						<out>3095</out>
						<pproTicksIn>19305216000000</pproTicksIn>
						<pproTicksOut>31447180800000</pproTicksOut>
						<file id="file-324"/>
						<sourcetrack>
							<mediatype>audio</mediatype>
							<trackindex>2</trackindex>
						</sourcetrack>
							<filter>
								<effect>
									<name>Audio Levels</name>
									<effectid>audiolevels</effectid>
									<effectcategory>audiolevels</effectcategory>
									<effecttype>audiolevels</effecttype>
									<mediatype>audio</mediatype>
									<parameter authoringApp="PremierePro">
										<parameterid>level</parameterid>
										<name>Level</name>
										<valuemin>0</valuemin>
										<valuemax>3.98109</valuemax>
										<value>0.99763</value>
										<keyframe>
											<when>2900</when>
											<value>0.99763</value>
										</keyframe>
										<keyframe>
											<when>2945</when>
											<value>0.895202</value>
										</keyframe>
										<keyframe>
											<when>2972</when>
											<value>0.578993</value>
										</keyframe>
										<keyframe>
											<when>2997</when>
											<value>0.240422</value>
										</keyframe>
										<keyframe>
											<when>3017</when>
											<value>0.0726505</value>
										</keyframe>
										<keyframe>
											<when>3081</when>
											<value>0</value>
										</keyframe>
										<keyframe>
											<when>3095</when>
											<value>0</value>
										</keyframe>
									</parameter>
								</effect>
							</filter>
						<link>
							<linkclipref>clipitem-1049</linkclipref>
							<mediatype>audio</mediatype>
							<trackindex>10</trackindex>
							<clipindex>190</clipindex>
							<groupindex>1</groupindex>
						</link>
						<link>
							<linkclipref>clipitem-1185</linkclipref>
							<mediatype>audio</mediatype>
							<trackindex>11</trackindex>
							<clipindex>186</clipindex>
							<groupindex>1</groupindex>
						</link>
						<logginginfo>
							<description></description>
							<scene></scene>
							<shottake></shottake>
							<lognote></lognote>
						</logginginfo>
						<labels>
							<label2>Caribbean</label2>
						</labels>
					</clipitem>
					<enabled>TRUE</enabled>
					<locked>FALSE</locked>
					<outputchannelindex>2</outputchannelindex>
				</track>
				<track TL.SQTrackAudioKeyframeStyle="0" TL.SQTrackShy="0" TL.SQTrackExpandedHeight="58" TL.SQTrackExpanded="1" MZ.TrackTargeted="1" PannerCurrentValue="0.5" PannerIsInverted="true" PannerStartKeyframe="-91445760000000000,0.5,0,0,0,0,0,0" PannerName="Balance" currentExplodedTrackIndex="0" totalExplodedTrackCount="2" premiereTrackType="Stereo">
					<clipitem id="clipitem-1186" premiereChannelType="stereo">
						<masterclipid>masterclip-325</masterclipid>
						<name>AUXMP_RSM009804_SHARK_ATTACK.mp3</name>
						<enabled>TRUE</enabled>
						<duration>1490</duration>
						<rate>
							<timebase>25</timebase>
							<ntsc>FALSE</ntsc>
						</rate>
						<start>0</start>
						<end>598</end>
						<in>0</in>
						<out>598</out>
						<pproTicksIn>0</pproTicksIn>
						<pproTicksOut>6076062720000</pproTicksOut>
						<file id="file-325">
							<name>AUXMP_RSM009804_SHARK_ATTACK.wav</name>
							<pathurl>file://localhost/Volumes/Vaagen/Utveksling/Natur/Naturlig%20helaften%20fra%20Oslo/Copied_Copy%20of%20En%20Helaften%20MASTER_003/AUXMP_RSM009804_SHARK_ATTACK.wav</pathurl>
							<rate>
								<timebase>30</timebase>
								<ntsc>TRUE</ntsc>
							</rate>
							<duration>1787</duration>
							<timecode>
								<rate>
									<timebase>30</timebase>
									<ntsc>TRUE</ntsc>
								</rate>
								<string>00;00;00;00</string>
								<frame>0</frame>
								<displayformat>DF</displayformat>
								<reel>
									<name></name>
								</reel>
							</timecode>
							<media>
								<audio>
									<samplecharacteristics>
										<depth>16</depth>
										<samplerate>44100</samplerate>
									</samplecharacteristics>
									<channelcount>2</channelcount>
								</audio>
							</media>
						</file>
						<sourcetrack>
							<mediatype>audio</mediatype>
							<trackindex>1</trackindex>
						</sourcetrack>
							<filter>
								<effect>
									<name>Audio Levels</name>
									<effectid>audiolevels</effectid>
									<effectcategory>audiolevels</effectcategory>
									<effecttype>audiolevels</effecttype>
									<mediatype>audio</mediatype>
									<parameter authoringApp="PremierePro">
										<parameterid>level</parameterid>
										<name>Level</name>
										<valuemin>0</valuemin>
										<valuemax>3.98109</valuemax>
										<value>0.823352</value>
										<keyframe>
											<when>444</when>
											<value>0.823352</value>
										</keyframe>
										<keyframe>
											<when>470</when>
											<value>0.0783515</value>
										</keyframe>
										<keyframe>
											<when>514</when>
											<value>0</value>
										</keyframe>
										<keyframe>
											<when>1092</when>
											<value>0</value>
										</keyframe>
										<keyframe>
											<when>1113</when>
											<value>0</value>
										</keyframe>
									</parameter>
								</effect>
							</filter>
						<link>
							<linkclipref>clipitem-1186</linkclipref>
							<mediatype>audio</mediatype>
							<trackindex>12</trackindex>
							<clipindex>1</clipindex>
							<groupindex>1</groupindex>
						</link>
						<link>
							<linkclipref>clipitem-1271</linkclipref>
							<mediatype>audio</mediatype>
							<trackindex>13</trackindex>
							<clipindex>1</clipindex>
							<groupindex>1</groupindex>
						</link>
						<logginginfo>
							<description></description>
							<scene></scene>
							<shottake></shottake>
							<lognote></lognote>
						</logginginfo>
						<labels>
							<label2>Iris</label2>
						</labels>
					</clipitem>
					<clipitem id="clipitem-1187" premiereChannelType="stereo">
						<masterclipid>masterclip-136</masterclipid>
						<name>Nordvisjon2MASTER_i-lyd_011.mxf</name>
						<enabled>TRUE</enabled>
						<duration>1386</duration>
						<rate>
							<timebase>25</timebase>
							<ntsc>FALSE</ntsc>
						</rate>
						<start>1721</start>
						<end>-1</end>
						<in>985</in>
						<out>1359</out>
						<pproTicksIn>10008230400000</pproTicksIn>
						<pproTicksOut>13808309760000</pproTicksOut>
						<file id="file-136"/>
						<sourcetrack>
							<mediatype>audio</mediatype>
							<trackindex>1</trackindex>
						</sourcetrack>
							<filter>
								<effect>
									<name>Audio Levels</name>
									<effectid>audiolevels</effectid>
									<effectcategory>audiolevels</effectcategory>
									<effecttype>audiolevels</effecttype>
									<mediatype>audio</mediatype>
									<parameter authoringApp="PremierePro">
										<parameterid>level</parameterid>
										<name>Level</name>
										<valuemin>0</valuemin>
										<valuemax>3.98109</valuemax>
										<value>1.04101</value>
										<keyframe>
											<when>1001</when>
											<value>0</value>
										</keyframe>
										<keyframe>
											<when>1041</when>
											<value>1.86513</value>
										</keyframe>
										<keyframe>
											<when>1054</when>
											<value>1.80645</value>
										</keyframe>
										<keyframe>
											<when>1095</when>
											<value>1.86513</value>
										</keyframe>
										<keyframe>
											<when>1129</when>
											<value>1.04101</value>
										</keyframe>
									</parameter>
								</effect>
							</filter>
						<link>
							<linkclipref>clipitem-1187</linkclipref>
							<mediatype>audio</mediatype>
							<trackindex>12</trackindex>
							<clipindex>2</clipindex>
							<groupindex>1</groupindex>
						</link>
						<link>
							<linkclipref>clipitem-1272</linkclipref>
							<mediatype>audio</mediatype>
							<trackindex>13</trackindex>
							<clipindex>2</clipindex>
							<groupindex>1</groupindex>
						</link>
						<logginginfo>
							<description></description>
							<scene></scene>
							<shottake></shottake>
							<lognote></lognote>
						</logginginfo>
						<labels>
							<label2>Iris</label2>
						</labels>
					</clipitem>
					<transitionitem>
						<start>2082</start>
						<end>2095</end>
						<alignment>center</alignment>
						<cutPointTicks>60963840000</cutPointTicks>
						<rate>
							<timebase>25</timebase>
							<ntsc>FALSE</ntsc>
						</rate>
						<effect>
							<name>Cross Fade (+3dB)</name>
							<effectid>KGAudioTransCrossFade3dB</effectid>
							<effecttype>transition</effecttype>
							<mediatype>audio</mediatype>
							<wipecode>0</wipecode>
							<wipeaccuracy>100</wipeaccuracy>
							<startratio>0</startratio>
							<endratio>1</endratio>
							<reverse>FALSE</reverse>
						</effect>
					</transitionitem>
					<clipitem id="clipitem-1188" premiereChannelType="stereo">
						<masterclipid>masterclip-14</masterclipid>
						<name>dvna60001113b-p01-211116r</name>
						<enabled>TRUE</enabled>
						<duration>2868</duration>
						<rate>
							<timebase>25</timebase>
							<ntsc>FALSE</ntsc>
						</rate>
						<start>-1</start>
						<end>2537</end>
						<in>2060</in>
						<out>2515</out>
						<pproTicksIn>20930918400000</pproTicksIn>
						<pproTicksOut>25554009600000</pproTicksOut>
						<file id="file-14"/>
						<sourcetrack>
							<mediatype>audio</mediatype>
							<trackindex>3</trackindex>
						</sourcetrack>
							<filter>
								<effect>
									<name>Audio Levels</name>
									<effectid>audiolevels</effectid>
									<effectcategory>audiolevels</effectcategory>
									<effecttype>audiolevels</effecttype>
									<mediatype>audio</mediatype>
									<parameter authoringApp="PremierePro">
										<parameterid>level</parameterid>
										<name>Level</name>
										<valuemin>0</valuemin>
										<valuemax>3.98109</valuemax>
										<value>0</value>
										<keyframe>
											<when>2390</when>
											<value>1.47476</value>
										</keyframe>
										<keyframe>
											<when>2434</when>
											<value>0.307368</value>
										</keyframe>
										<keyframe>
											<when>2484</when>
											<value>0</value>
										</keyframe>
									</parameter>
								</effect>
							</filter>
						<link>
							<linkclipref>clipitem-435</linkclipref>
							<mediatype>video</mediatype>
							<trackindex>3</trackindex>
							<clipindex>2</clipindex>
						</link>
						<link>
							<linkclipref>clipitem-1188</linkclipref>
							<mediatype>audio</mediatype>
							<trackindex>12</trackindex>
							<clipindex>4</clipindex>
							<groupindex>1</groupindex>
						</link>
						<link>
							<linkclipref>clipitem-1273</linkclipref>
							<mediatype>audio</mediatype>
							<trackindex>13</trackindex>
							<clipindex>4</clipindex>
							<groupindex>1</groupindex>
						</link>
						<logginginfo>
							<description>dvna60001113b-p01-211116r</description>
							<scene></scene>
							<shottake></shottake>
							<lognote></lognote>
						</logginginfo>
						<labels>
							<label2>Iris</label2>
						</labels>
					</clipitem>
					<transitionitem>
						<start>2632</start>
						<end>2645</end>
						<alignment>start-black</alignment>
						<cutPointTicks>0</cutPointTicks>
						<rate>
							<timebase>25</timebase>
							<ntsc>FALSE</ntsc>
						</rate>
						<effect>
							<name>Cross Fade (+3dB)</name>
							<effectid>KGAudioTransCrossFade3dB</effectid>
							<effecttype>transition</effecttype>
							<mediatype>audio</mediatype>
							<wipecode>0</wipecode>
							<wipeaccuracy>100</wipeaccuracy>
							<startratio>0</startratio>
							<endratio>1</endratio>
							<reverse>FALSE</reverse>
						</effect>
					</transitionitem>
					<clipitem id="clipitem-1189" premiereChannelType="stereo">
						<masterclipid>masterclip-27</masterclipid>
						<name>Drifter.mov</name>
						<enabled>TRUE</enabled>
						<duration>58403</duration>
						<rate>
							<timebase>25</timebase>
							<ntsc>FALSE</ntsc>
						</rate>
						<start>-1</start>
						<end>-1</end>
						<in>11812</in>
						<out>11957</out>
						<pproTicksIn>120017479680000</pproTicksIn>
						<pproTicksOut>121490772480000</pproTicksOut>
						<file id="file-27"/>
						<sourcetrack>
							<mediatype>audio</mediatype>
							<trackindex>1</trackindex>
						</sourcetrack>
							<filter>
								<effect>
									<name>Audio Levels</name>
									<effectid>audiolevels</effectid>
									<effectcategory>audiolevels</effectcategory>
									<effecttype>audiolevels</effecttype>
									<mediatype>audio</mediatype>
									<parameter authoringApp="PremierePro">
										<parameterid>level</parameterid>
										<name>Level</name>
										<valuemin>0</valuemin>
										<valuemax>3.98109</valuemax>
										<value>0.99763</value>
										<keyframe>
											<when>11806</when>
											<value>0.99763</value>
										</keyframe>
										<keyframe>
											<when>11813</when>
											<value>0.711137</value>
										</keyframe>
										<keyframe>
											<when>11869</when>
											<value>0.726535</value>
										</keyframe>
										<keyframe>
											<when>11881</when>
											<value>0.99763</value>
										</keyframe>
									</parameter>
								</effect>
							</filter>
						<link>
							<linkclipref>clipitem-266</linkclipref>
							<mediatype>video</mediatype>
							<trackindex>2</trackindex>
							<clipindex>10</clipindex>
						</link>
						<link>
							<linkclipref>clipitem-1189</linkclipref>
							<mediatype>audio</mediatype>
							<trackindex>12</trackindex>
							<clipindex>6</clipindex>
							<groupindex>1</groupindex>
						</link>
						<link>
							<linkclipref>clipitem-1274</linkclipref>
							<mediatype>audio</mediatype>
							<trackindex>13</trackindex>
							<clipindex>6</clipindex>
							<groupindex>1</groupindex>
						</link>
						<logginginfo>
							<description></description>
							<scene></scene>
							<shottake></shottake>
							<lognote></lognote>
						</logginginfo>
						<labels>
							<label2>Iris</label2>
						</labels>
					</clipitem>
					<transitionitem>
						<start>2764</start>
						<end>2777</end>
						<alignment>center</alignment>
						<cutPointTicks>60963840000</cutPointTicks>
						<rate>
							<timebase>25</timebase>
							<ntsc>FALSE</ntsc>
						</rate>
						<effect>
							<name>Cross Fade (+3dB)</name>
							<effectid>KGAudioTransCrossFade3dB</effectid>
							<effecttype>transition</effecttype>
							<mediatype>audio</mediatype>
							<wipecode>0</wipecode>
							<wipeaccuracy>100</wipeaccuracy>
							<startratio>0</startratio>
							<endratio>1</endratio>
							<reverse>FALSE</reverse>
						</effect>
					</transitionitem>
					<clipitem id="clipitem-1190" premiereChannelType="stereo">
						<masterclipid>masterclip-16</masterclipid>
						<name>DVNA21002215AA</name>
						<enabled>TRUE</enabled>
						<duration>57688</duration>
						<rate>
							<timebase>25</timebase>
							<ntsc>FALSE</ntsc>
						</rate>
						<start>-1</start>
						<end>-1</end>
						<in>7345</in>
						<out>7442</out>
						<pproTicksIn>74629900800000</pproTicksIn>
						<pproTicksOut>75615482880000</pproTicksOut>
						<file id="file-16"/>
						<sourcetrack>
							<mediatype>audio</mediatype>
							<trackindex>3</trackindex>
						</sourcetrack>
						<link>
							<linkclipref>clipitem-1190</linkclipref>
							<mediatype>audio</mediatype>
							<trackindex>12</trackindex>
							<clipindex>8</clipindex>
							<groupindex>1</groupindex>
						</link>
						<link>
							<linkclipref>clipitem-1275</linkclipref>
							<mediatype>audio</mediatype>
							<trackindex>13</trackindex>
							<clipindex>8</clipindex>
							<groupindex>1</groupindex>
						</link>
						<logginginfo>
							<description>Ut i naturen - Fysikk (4:6 @ Ut i naturen)</description>
							<scene></scene>
							<shottake></shottake>
							<lognote></lognote>
						</logginginfo>
						<labels>
							<label2>Iris</label2>
						</labels>
					</clipitem>
					<transitionitem>
						<start>2848</start>
						<end>2861</end>
						<alignment>center</alignment>
						<cutPointTicks>60963840000</cutPointTicks>
						<rate>
							<timebase>25</timebase>
							<ntsc>FALSE</ntsc>
						</rate>
						<effect>
							<name>Cross Fade (+3dB)</name>
							<effectid>KGAudioTransCrossFade3dB</effectid>
							<effecttype>transition</effecttype>
							<mediatype>audio</mediatype>
							<wipecode>0</wipecode>
							<wipeaccuracy>100</wipeaccuracy>
							<startratio>0</startratio>
							<endratio>1</endratio>
							<reverse>FALSE</reverse>
						</effect>
					</transitionitem>
					<clipitem id="clipitem-1191" premiereChannelType="stereo">
						<masterclipid>masterclip-17</masterclipid>
						<name>dvna60000116aa-p1-270916r</name>
						<enabled>TRUE</enabled>
						<duration>4111</duration>
						<rate>
							<timebase>25</timebase>
							<ntsc>FALSE</ntsc>
						</rate>
						<start>-1</start>
						<end>-1</end>
						<in>1050</in>
						<out>1109</out>
						<pproTicksIn>10668672000000</pproTicksIn>
						<pproTicksOut>11268149760000</pproTicksOut>
						<file id="file-17"/>
						<sourcetrack>
							<mediatype>audio</mediatype>
							<trackindex>3</trackindex>
						</sourcetrack>
						<link>
							<linkclipref>clipitem-1191</linkclipref>
							<mediatype>audio</mediatype>
							<trackindex>12</trackindex>
							<clipindex>10</clipindex>
							<groupindex>1</groupindex>
						</link>
						<link>
							<linkclipref>clipitem-1276</linkclipref>
							<mediatype>audio</mediatype>
							<trackindex>13</trackindex>
							<clipindex>10</clipindex>
							<groupindex>1</groupindex>
						</link>
						<logginginfo>
							<description>dvna60000116aa-p1-270916r</description>
							<scene></scene>
							<shottake></shottake>
							<lognote></lognote>
						</logginginfo>
						<labels>
							<label2>Iris</label2>
						</labels>
					</clipitem>
					<transitionitem>
						<start>2894</start>
						<end>2907</end>
						<alignment>center</alignment>
						<cutPointTicks>60963840000</cutPointTicks>
						<rate>
							<timebase>25</timebase>
							<ntsc>FALSE</ntsc>
						</rate>
						<effect>
							<name>Cross Fade (+3dB)</name>
							<effectid>KGAudioTransCrossFade3dB</effectid>
							<effecttype>transition</effecttype>
							<mediatype>audio</mediatype>
							<wipecode>0</wipecode>
							<wipeaccuracy>100</wipeaccuracy>
							<startratio>0</startratio>
							<endratio>1</endratio>
							<reverse>FALSE</reverse>
						</effect>
					</transitionitem>
					<clipitem id="clipitem-1192" premiereChannelType="stereo">
						<masterclipid>masterclip-317</masterclipid>
						<name>Ut i naturen 2 Sanser I-lyd uten musikk.wav</name>
						<enabled>TRUE</enabled>
						<duration>58727</duration>
						<rate>
							<timebase>25</timebase>
							<ntsc>FALSE</ntsc>
						</rate>
						<start>-1</start>
						<end>-1</end>
						<in>53045</in>
						<out>53130</out>
						<pproTicksIn>538971148800000</pproTicksIn>
						<pproTicksOut>539834803200000</pproTicksOut>
						<file id="file-317"/>
						<sourcetrack>
							<mediatype>audio</mediatype>
							<trackindex>1</trackindex>
						</sourcetrack>
							<filter>
								<effect>
									<name>Audio Levels</name>
									<effectid>audiolevels</effectid>
									<effectcategory>audiolevels</effectcategory>
									<effecttype>audiolevels</effecttype>
									<mediatype>audio</mediatype>
									<parameter authoringApp="PremierePro">
										<parameterid>level</parameterid>
										<name>Level</name>
										<valuemin>0</valuemin>
										<valuemax>3.98109</valuemax>
										<value>1.77838</value>
									</parameter>
								</effect>
							</filter>
						<link>
							<linkclipref>clipitem-1192</linkclipref>
							<mediatype>audio</mediatype>
							<trackindex>12</trackindex>
							<clipindex>12</clipindex>
							<groupindex>1</groupindex>
						</link>
						<link>
							<linkclipref>clipitem-1277</linkclipref>
							<mediatype>audio</mediatype>
							<trackindex>13</trackindex>
							<clipindex>12</clipindex>
							<groupindex>1</groupindex>
						</link>
						<logginginfo>
							<description></description>
							<scene></scene>
							<shottake></shottake>
							<lognote></lognote>
						</logginginfo>
						<labels>
							<label2>Iris</label2>
						</labels>
					</clipitem>
					<transitionitem>
						<start>2966</start>
						<end>2979</end>
						<alignment>center</alignment>
						<cutPointTicks>60963840000</cutPointTicks>
						<rate>
							<timebase>25</timebase>
							<ntsc>FALSE</ntsc>
						</rate>
						<effect>
							<name>Cross Fade (+3dB)</name>
							<effectid>KGAudioTransCrossFade3dB</effectid>
							<effecttype>transition</effecttype>
							<mediatype>audio</mediatype>
							<wipecode>0</wipecode>
							<wipeaccuracy>100</wipeaccuracy>
							<startratio>0</startratio>
							<endratio>1</endratio>
							<reverse>FALSE</reverse>
						</effect>
					</transitionitem>
					<clipitem id="clipitem-1193" premiereChannelType="stereo">
						<masterclipid>masterclip-19</masterclipid>
						<name>20160515_184145.mp4</name>
						<enabled>TRUE</enabled>
						<duration>1485</duration>
						<rate>
							<timebase>25</timebase>
							<ntsc>FALSE</ntsc>
						</rate>
						<start>-1</start>
						<end>-1</end>
						<in>241</in>
						<out>368</out>
						<pproTicksIn>2448714240000</pproTicksIn>
						<pproTicksOut>3739115520000</pproTicksOut>
						<file id="file-19"/>
						<sourcetrack>
							<mediatype>audio</mediatype>
							<trackindex>1</trackindex>
						</sourcetrack>
							<filter>
								<effect>
									<name>Audio Levels</name>
									<effectid>audiolevels</effectid>
									<effectcategory>audiolevels</effectcategory>
									<effecttype>audiolevels</effecttype>
									<mediatype>audio</mediatype>
									<parameter authoringApp="PremierePro">
										<parameterid>level</parameterid>
										<name>Level</name>
										<valuemin>0</valuemin>
										<valuemax>3.98109</valuemax>
										<value>1.37008</value>
									</parameter>
								</effect>
							</filter>
						<link>
							<linkclipref>clipitem-1193</linkclipref>
							<mediatype>audio</mediatype>
							<trackindex>12</trackindex>
							<clipindex>14</clipindex>
							<groupindex>1</groupindex>
						</link>
						<link>
							<linkclipref>clipitem-1278</linkclipref>
							<mediatype>audio</mediatype>
							<trackindex>13</trackindex>
							<clipindex>14</clipindex>
							<groupindex>1</groupindex>
						</link>
						<logginginfo>
							<description></description>
							<scene></scene>
							<shottake></shottake>
							<lognote></lognote>
						</logginginfo>
						<labels>
							<label2>Iris</label2>
						</labels>
					</clipitem>
					<transitionitem>
						<start>3080</start>
						<end>3093</end>
						<alignment>center</alignment>
						<cutPointTicks>60963840000</cutPointTicks>
						<rate>
							<timebase>25</timebase>
							<ntsc>FALSE</ntsc>
						</rate>
						<effect>
							<name>Cross Fade (+3dB)</name>
							<effectid>KGAudioTransCrossFade3dB</effectid>
							<effecttype>transition</effecttype>
							<mediatype>audio</mediatype>
							<wipecode>0</wipecode>
							<wipeaccuracy>100</wipeaccuracy>
							<startratio>0</startratio>
							<endratio>1</endratio>
							<reverse>FALSE</reverse>
						</effect>
					</transitionitem>
					<clipitem id="clipitem-1194" premiereChannelType="stereo">
						<masterclipid>masterclip-20</masterclipid>
						<name>finalister2016-280916r-na</name>
						<enabled>TRUE</enabled>
						<duration>28573</duration>
						<rate>
							<timebase>25</timebase>
							<ntsc>FALSE</ntsc>
						</rate>
						<start>-1</start>
						<end>-1</end>
						<in>3385</in>
						<out>3495</out>
						<pproTicksIn>34393766400000</pproTicksIn>
						<pproTicksOut>35511436800000</pproTicksOut>
						<file id="file-20"/>
						<sourcetrack>
							<mediatype>audio</mediatype>
							<trackindex>1</trackindex>
						</sourcetrack>
						<link>
							<linkclipref>clipitem-25</linkclipref>
							<mediatype>video</mediatype>
							<trackindex>1</trackindex>
							<clipindex>25</clipindex>
						</link>
						<link>
							<linkclipref>clipitem-1194</linkclipref>
							<mediatype>audio</mediatype>
							<trackindex>12</trackindex>
							<clipindex>16</clipindex>
							<groupindex>1</groupindex>
						</link>
						<link>
							<linkclipref>clipitem-1279</linkclipref>
							<mediatype>audio</mediatype>
							<trackindex>13</trackindex>
							<clipindex>16</clipindex>
							<groupindex>1</groupindex>
						</link>
						<logginginfo>
							<description>finalister2016-280916r-na</description>
							<scene></scene>
							<shottake></shottake>
							<lognote></lognote>
						</logginginfo>
						<labels>
							<label2>Iris</label2>
						</labels>
					</clipitem>
					<transitionitem>
						<start>3177</start>
						<end>3190</end>
						<alignment>center</alignment>
						<cutPointTicks>60963840000</cutPointTicks>
						<rate>
							<timebase>25</timebase>
							<ntsc>FALSE</ntsc>
						</rate>
						<effect>
							<name>Cross Fade (+3dB)</name>
							<effectid>KGAudioTransCrossFade3dB</effectid>
							<effecttype>transition</effecttype>
							<mediatype>audio</mediatype>
							<wipecode>0</wipecode>
							<wipeaccuracy>100</wipeaccuracy>
							<startratio>0</startratio>
							<endratio>1</endratio>
							<reverse>FALSE</reverse>
						</effect>
					</transitionitem>
					<clipitem id="clipitem-1195" premiereChannelType="stereo">
						<masterclipid>masterclip-21</masterclipid>
						<name>Hegrefangst.mov</name>
						<enabled>TRUE</enabled>
						<duration>2677</duration>
						<rate>
							<timebase>25</timebase>
							<ntsc>FALSE</ntsc>
						</rate>
						<start>-1</start>
						<end>-1</end>
						<in>2103</in>
						<out>2196</out>
						<pproTicksIn>21367825920000</pproTicksIn>
						<pproTicksOut>22312765440000</pproTicksOut>
						<file id="file-21"/>
						<sourcetrack>
							<mediatype>audio</mediatype>
							<trackindex>1</trackindex>
						</sourcetrack>
							<filter>
								<effect>
									<name>Audio Levels</name>
									<effectid>audiolevels</effectid>
									<effectcategory>audiolevels</effectcategory>
									<effecttype>audiolevels</effecttype>
									<mediatype>audio</mediatype>
									<parameter authoringApp="PremierePro">
										<parameterid>level</parameterid>
										<name>Level</name>
										<valuemin>0</valuemin>
										<valuemax>3.98109</valuemax>
										<value>0.116003</value>
									</parameter>
								</effect>
							</filter>
							<marker>
								<comment></comment>
								<name></name>
								<in>963</in>
								<out>-1</out>
							</marker>
						<link>
							<linkclipref>clipitem-1195</linkclipref>
							<mediatype>audio</mediatype>
							<trackindex>12</trackindex>
							<clipindex>18</clipindex>
							<groupindex>1</groupindex>
						</link>
						<link>
							<linkclipref>clipitem-1280</linkclipref>
							<mediatype>audio</mediatype>
							<trackindex>13</trackindex>
							<clipindex>18</clipindex>
							<groupindex>1</groupindex>
						</link>
						<logginginfo>
							<description></description>
							<scene></scene>
							<shottake></shottake>
							<lognote></lognote>
						</logginginfo>
						<labels>
							<label2>Iris</label2>
						</labels>
					</clipitem>
					<transitionitem>
						<start>3257</start>
						<end>3270</end>
						<alignment>center</alignment>
						<cutPointTicks>60963840000</cutPointTicks>
						<rate>
							<timebase>25</timebase>
							<ntsc>FALSE</ntsc>
						</rate>
						<effect>
							<name>Cross Fade (+3dB)</name>
							<effectid>KGAudioTransCrossFade3dB</effectid>
							<effecttype>transition</effecttype>
							<mediatype>audio</mediatype>
							<wipecode>0</wipecode>
							<wipeaccuracy>100</wipeaccuracy>
							<startratio>0</startratio>
							<endratio>1</endratio>
							<reverse>FALSE</reverse>
						</effect>
					</transitionitem>
					<clipitem id="clipitem-1196" premiereChannelType="stereo">
						<masterclipid>masterclip-22</masterclipid>
						<name>DVNA21001915AA</name>
						<enabled>TRUE</enabled>
						<duration>58403</duration>
						<rate>
							<timebase>25</timebase>
							<ntsc>FALSE</ntsc>
						</rate>
						<start>-1</start>
						<end>-1</end>
						<in>13946</in>
						<out>14046</out>
						<pproTicksIn>141700285440000</pproTicksIn>
						<pproTicksOut>142716349440000</pproTicksOut>
						<file id="file-22"/>
						<sourcetrack>
							<mediatype>audio</mediatype>
							<trackindex>3</trackindex>
						</sourcetrack>
							<filter>
								<effect>
									<name>Audio Levels</name>
									<effectid>audiolevels</effectid>
									<effectcategory>audiolevels</effectcategory>
									<effecttype>audiolevels</effecttype>
									<mediatype>audio</mediatype>
									<parameter authoringApp="PremierePro">
										<parameterid>level</parameterid>
										<name>Level</name>
										<valuemin>0</valuemin>
										<valuemax>3.98109</valuemax>
										<value>0</value>
										<keyframe>
											<when>14040</when>
											<value>0.99763</value>
										</keyframe>
										<keyframe>
											<when>14052</when>
											<value>0</value>
										</keyframe>
										<keyframe>
											<when>14084</when>
											<value>0</value>
										</keyframe>
									</parameter>
								</effect>
							</filter>
						<link>
							<linkclipref>clipitem-27</linkclipref>
							<mediatype>video</mediatype>
							<trackindex>1</trackindex>
							<clipindex>27</clipindex>
						</link>
						<link>
							<linkclipref>clipitem-1196</linkclipref>
							<mediatype>audio</mediatype>
							<trackindex>12</trackindex>
							<clipindex>20</clipindex>
							<groupindex>1</groupindex>
						</link>
						<link>
							<linkclipref>clipitem-1281</linkclipref>
							<mediatype>audio</mediatype>
							<trackindex>13</trackindex>
							<clipindex>20</clipindex>
							<groupindex>1</groupindex>
						</link>
						<logginginfo>
							<description>Ut i naturen - Drifter (1:6 @ Ut i naturen)</description>
							<scene></scene>
							<shottake></shottake>
							<lognote></lognote>
						</logginginfo>
						<labels>
							<label2>Iris</label2>
						</labels>
					</clipitem>
					<transitionitem>
						<start>3344</start>
						<end>3357</end>
						<alignment>center</alignment>
						<cutPointTicks>60963840000</cutPointTicks>
						<rate>
							<timebase>25</timebase>
							<ntsc>FALSE</ntsc>
						</rate>
						<effect>
							<name>Cross Fade (+3dB)</name>
							<effectid>KGAudioTransCrossFade3dB</effectid>
							<effecttype>transition</effecttype>
							<mediatype>audio</mediatype>
							<wipecode>0</wipecode>
							<wipeaccuracy>100</wipeaccuracy>
							<startratio>0</startratio>
							<endratio>1</endratio>
							<reverse>FALSE</reverse>
						</effect>
					</transitionitem>
					<clipitem id="clipitem-1197" premiereChannelType="stereo">
						<masterclipid>masterclip-22</masterclipid>
						<name>DVNA21001915AA</name>
						<enabled>TRUE</enabled>
						<duration>58403</duration>
						<rate>
							<timebase>25</timebase>
							<ntsc>FALSE</ntsc>
						</rate>
						<start>-1</start>
						<end>3427</end>
						<in>14194</in>
						<out>14277</out>
						<pproTicksIn>144220124160000</pproTicksIn>
						<pproTicksOut>145063457280000</pproTicksOut>
						<file id="file-22"/>
						<sourcetrack>
							<mediatype>audio</mediatype>
							<trackindex>3</trackindex>
						</sourcetrack>
						<link>
							<linkclipref>clipitem-28</linkclipref>
							<mediatype>video</mediatype>
							<trackindex>1</trackindex>
							<clipindex>28</clipindex>
						</link>
						<link>
							<linkclipref>clipitem-1197</linkclipref>
							<mediatype>audio</mediatype>
							<trackindex>12</trackindex>
							<clipindex>22</clipindex>
							<groupindex>1</groupindex>
						</link>
						<link>
							<linkclipref>clipitem-1282</linkclipref>
							<mediatype>audio</mediatype>
							<trackindex>13</trackindex>
							<clipindex>22</clipindex>
							<groupindex>1</groupindex>
						</link>
						<logginginfo>
							<description>Ut i naturen - Drifter (1:6 @ Ut i naturen)</description>
							<scene></scene>
							<shottake></shottake>
							<lognote></lognote>
						</logginginfo>
						<labels>
							<label2>Iris</label2>
						</labels>
					</clipitem>
					<clipitem id="clipitem-1198" premiereChannelType="stereo">
						<masterclipid>masterclip-25</masterclipid>
						<name>AA262801.MXF</name>
						<enabled>TRUE</enabled>
						<duration>3660</duration>
						<rate>
							<timebase>25</timebase>
							<ntsc>FALSE</ntsc>
						</rate>
						<start>4087</start>
						<end>4202</end>
						<in>319</in>
						<out>434</out>
						<pproTicksIn>3241244160000</pproTicksIn>
						<pproTicksOut>4409717760000</pproTicksOut>
						<file id="file-25"/>
						<sourcetrack>
							<mediatype>audio</mediatype>
							<trackindex>2</trackindex>
						</sourcetrack>
						<link>
							<linkclipref>clipitem-1198</linkclipref>
							<mediatype>audio</mediatype>
							<trackindex>12</trackindex>
							<clipindex>23</clipindex>
							<groupindex>1</groupindex>
						</link>
						<link>
							<linkclipref>clipitem-1283</linkclipref>
							<mediatype>audio</mediatype>
							<trackindex>13</trackindex>
							<clipindex>23</clipindex>
							<groupindex>1</groupindex>
						</link>
						<logginginfo>
							<description></description>
							<scene></scene>
							<shottake></shottake>
							<lognote></lognote>
						</logginginfo>
						<labels>
							<label2>Iris</label2>
						</labels>
					</clipitem>
					<clipitem id="clipitem-1199" premiereChannelType="stereo">
						<masterclipid>masterclip-182</masterclipid>
						<name>AA262601.MXF</name>
						<enabled>TRUE</enabled>
						<duration>2076</duration>
						<rate>
							<timebase>25</timebase>
							<ntsc>FALSE</ntsc>
						</rate>
						<start>4202</start>
						<end>-1</end>
						<in>256</in>
						<out>387</out>
						<pproTicksIn>2601123840000</pproTicksIn>
						<pproTicksOut>3932167680000</pproTicksOut>
						<file id="file-182"/>
						<sourcetrack>
							<mediatype>audio</mediatype>
							<trackindex>2</trackindex>
						</sourcetrack>
						<link>
							<linkclipref>clipitem-1199</linkclipref>
							<mediatype>audio</mediatype>
							<trackindex>12</trackindex>
							<clipindex>24</clipindex>
							<groupindex>1</groupindex>
						</link>
						<link>
							<linkclipref>clipitem-1284</linkclipref>
							<mediatype>audio</mediatype>
							<trackindex>13</trackindex>
							<clipindex>24</clipindex>
							<groupindex>1</groupindex>
						</link>
						<logginginfo>
							<description></description>
							<scene></scene>
							<shottake></shottake>
							<lognote></lognote>
						</logginginfo>
						<labels>
							<label2>Iris</label2>
						</labels>
					</clipitem>
					<transitionitem>
						<start>4320</start>
						<end>4333</end>
						<alignment>center</alignment>
						<cutPointTicks>60963840000</cutPointTicks>
						<rate>
							<timebase>25</timebase>
							<ntsc>FALSE</ntsc>
						</rate>
						<effect>
							<name>Cross Fade (+3dB)</name>
							<effectid>KGAudioTransCrossFade3dB</effectid>
							<effecttype>transition</effecttype>
							<mediatype>audio</mediatype>
							<wipecode>0</wipecode>
							<wipeaccuracy>100</wipeaccuracy>
							<startratio>0</startratio>
							<endratio>1</endratio>
							<reverse>FALSE</reverse>
						</effect>
					</transitionitem>
					<clipitem id="clipitem-1200" premiereChannelType="stereo">
						<masterclipid>masterclip-25</masterclipid>
						<name>AA262801.MXF</name>
						<enabled>TRUE</enabled>
						<duration>3660</duration>
						<rate>
							<timebase>25</timebase>
							<ntsc>FALSE</ntsc>
						</rate>
						<start>-1</start>
						<end>4450</end>
						<in>428</in>
						<out>558</out>
						<pproTicksIn>4348753920000</pproTicksIn>
						<pproTicksOut>5669637120000</pproTicksOut>
						<file id="file-25"/>
						<sourcetrack>
							<mediatype>audio</mediatype>
							<trackindex>2</trackindex>
						</sourcetrack>
						<link>
							<linkclipref>clipitem-1200</linkclipref>
							<mediatype>audio</mediatype>
							<trackindex>12</trackindex>
							<clipindex>26</clipindex>
							<groupindex>1</groupindex>
						</link>
						<link>
							<linkclipref>clipitem-1285</linkclipref>
							<mediatype>audio</mediatype>
							<trackindex>13</trackindex>
							<clipindex>26</clipindex>
							<groupindex>1</groupindex>
						</link>
						<logginginfo>
							<description></description>
							<scene></scene>
							<shottake></shottake>
							<lognote></lognote>
						</logginginfo>
						<labels>
							<label2>Iris</label2>
						</labels>
					</clipitem>
					<clipitem id="clipitem-1201" premiereChannelType="stereo">
						<masterclipid>masterclip-25</masterclipid>
						<name>AA262801.MXF</name>
						<enabled>TRUE</enabled>
						<duration>3660</duration>
						<rate>
							<timebase>25</timebase>
							<ntsc>FALSE</ntsc>
						</rate>
						<start>4450</start>
						<end>-1</end>
						<in>937</in>
						<out>1178</out>
						<pproTicksIn>9520519680000</pproTicksIn>
						<pproTicksOut>11969233920000</pproTicksOut>
						<file id="file-25"/>
						<sourcetrack>
							<mediatype>audio</mediatype>
							<trackindex>2</trackindex>
						</sourcetrack>
						<link>
							<linkclipref>clipitem-1201</linkclipref>
							<mediatype>audio</mediatype>
							<trackindex>12</trackindex>
							<clipindex>27</clipindex>
							<groupindex>1</groupindex>
						</link>
						<link>
							<linkclipref>clipitem-1286</linkclipref>
							<mediatype>audio</mediatype>
							<trackindex>13</trackindex>
							<clipindex>27</clipindex>
							<groupindex>1</groupindex>
						</link>
						<logginginfo>
							<description></description>
							<scene></scene>
							<shottake></shottake>
							<lognote></lognote>
						</logginginfo>
						<labels>
							<label2>Iris</label2>
						</labels>
					</clipitem>
					<transitionitem>
						<start>4690</start>
						<end>4691</end>
						<alignment>end-black</alignment>
						<cutPointTicks>10160640000</cutPointTicks>
						<rate>
							<timebase>25</timebase>
							<ntsc>FALSE</ntsc>
						</rate>
						<effect>
							<name>Cross Fade (+3dB)</name>
							<effectid>KGAudioTransCrossFade3dB</effectid>
							<effecttype>transition</effecttype>
							<mediatype>audio</mediatype>
							<wipecode>0</wipecode>
							<wipeaccuracy>100</wipeaccuracy>
							<startratio>0</startratio>
							<endratio>1</endratio>
							<reverse>FALSE</reverse>
						</effect>
					</transitionitem>
					<clipitem id="clipitem-1202" premiereChannelType="stereo">
						<masterclipid>masterclip-25</masterclipid>
						<name>AA262801.MXF</name>
						<enabled>TRUE</enabled>
						<duration>3660</duration>
						<rate>
							<timebase>25</timebase>
							<ntsc>FALSE</ntsc>
						</rate>
						<start>4762</start>
						<end>4948</end>
						<in>3245</in>
						<out>3431</out>
						<pproTicksIn>32971276800000</pproTicksIn>
						<pproTicksOut>34861155840000</pproTicksOut>
						<file id="file-25"/>
						<sourcetrack>
							<mediatype>audio</mediatype>
							<trackindex>2</trackindex>
						</sourcetrack>
						<link>
							<linkclipref>clipitem-1202</linkclipref>
							<mediatype>audio</mediatype>
							<trackindex>12</trackindex>
							<clipindex>29</clipindex>
							<groupindex>1</groupindex>
						</link>
						<link>
							<linkclipref>clipitem-1287</linkclipref>
							<mediatype>audio</mediatype>
							<trackindex>13</trackindex>
							<clipindex>29</clipindex>
							<groupindex>1</groupindex>
						</link>
						<logginginfo>
							<description></description>
							<scene></scene>
							<shottake></shottake>
							<lognote></lognote>
						</logginginfo>
						<labels>
							<label2>Iris</label2>
						</labels>
					</clipitem>
					<clipitem id="clipitem-1203" premiereChannelType="stereo">
						<masterclipid>masterclip-26</masterclipid>
						<name>AA263101.MXF</name>
						<enabled>TRUE</enabled>
						<duration>3336</duration>
						<rate>
							<timebase>25</timebase>
							<ntsc>FALSE</ntsc>
						</rate>
						<start>4948</start>
						<end>5463</end>
						<in>175</in>
						<out>690</out>
						<pproTicksIn>1778112000000</pproTicksIn>
						<pproTicksOut>7010841600000</pproTicksOut>
						<file id="file-26"/>
						<sourcetrack>
							<mediatype>audio</mediatype>
							<trackindex>2</trackindex>
						</sourcetrack>
						<link>
							<linkclipref>clipitem-1203</linkclipref>
							<mediatype>audio</mediatype>
							<trackindex>12</trackindex>
							<clipindex>30</clipindex>
							<groupindex>1</groupindex>
						</link>
						<link>
							<linkclipref>clipitem-1288</linkclipref>
							<mediatype>audio</mediatype>
							<trackindex>13</trackindex>
							<clipindex>30</clipindex>
							<groupindex>1</groupindex>
						</link>
						<logginginfo>
							<description></description>
							<scene></scene>
							<shottake></shottake>
							<lognote></lognote>
						</logginginfo>
						<labels>
							<label2>Iris</label2>
						</labels>
					</clipitem>
					<clipitem id="clipitem-1204" premiereChannelType="stereo">
						<masterclipid>masterclip-26</masterclipid>
						<name>AA263101.MXF</name>
						<enabled>TRUE</enabled>
						<duration>3336</duration>
						<rate>
							<timebase>25</timebase>
							<ntsc>FALSE</ntsc>
						</rate>
						<start>5463</start>
						<end>5962</end>
						<in>1499</in>
						<out>1998</out>
						<pproTicksIn>15230799360000</pproTicksIn>
						<pproTicksOut>20300958720000</pproTicksOut>
						<file id="file-26"/>
						<sourcetrack>
							<mediatype>audio</mediatype>
							<trackindex>2</trackindex>
						</sourcetrack>
						<link>
							<linkclipref>clipitem-1204</linkclipref>
							<mediatype>audio</mediatype>
							<trackindex>12</trackindex>
							<clipindex>31</clipindex>
							<groupindex>1</groupindex>
						</link>
						<link>
							<linkclipref>clipitem-1289</linkclipref>
							<mediatype>audio</mediatype>
							<trackindex>13</trackindex>
							<clipindex>31</clipindex>
							<groupindex>1</groupindex>
						</link>
						<logginginfo>
							<description></description>
							<scene></scene>
							<shottake></shottake>
							<lognote></lognote>
						</logginginfo>
						<labels>
							<label2>Iris</label2>
						</labels>
					</clipitem>
					<clipitem id="clipitem-1205" premiereChannelType="stereo">
						<masterclipid>masterclip-184</masterclipid>
						<name>4 Mår vil ta dorullen på utedoen.mp4</name>
						<enabled>TRUE</enabled>
						<duration>778</duration>
						<rate>
							<timebase>25</timebase>
							<ntsc>FALSE</ntsc>
						</rate>
						<start>5962</start>
						<end>6008</end>
						<in>223</in>
						<out>269</out>
						<pproTicksIn>2265822720000</pproTicksIn>
						<pproTicksOut>2733212160000</pproTicksOut>
						<file id="file-184"/>
						<sourcetrack>
							<mediatype>audio</mediatype>
							<trackindex>2</trackindex>
						</sourcetrack>
							<filter>
								<effect>
									<name>Audio Levels</name>
									<effectid>audiolevels</effectid>
									<effectcategory>audiolevels</effectcategory>
									<effecttype>audiolevels</effecttype>
									<mediatype>audio</mediatype>
									<parameter authoringApp="PremierePro">
										<parameterid>level</parameterid>
										<name>Level</name>
										<valuemin>0</valuemin>
										<valuemax>3.98109</valuemax>
										<value>0.96785</value>
									</parameter>
								</effect>
							</filter>
						<link>
							<linkclipref>clipitem-1205</linkclipref>
							<mediatype>audio</mediatype>
							<trackindex>12</trackindex>
							<clipindex>32</clipindex>
							<groupindex>1</groupindex>
						</link>
						<link>
							<linkclipref>clipitem-1290</linkclipref>
							<mediatype>audio</mediatype>
							<trackindex>13</trackindex>
							<clipindex>32</clipindex>
							<groupindex>1</groupindex>
						</link>
						<logginginfo>
							<description></description>
							<scene></scene>
							<shottake></shottake>
							<lognote></lognote>
						</logginginfo>
						<labels>
							<label2>Iris</label2>
						</labels>
					</clipitem>
					<clipitem id="clipitem-1206" premiereChannelType="stereo">
						<masterclipid>masterclip-184</masterclipid>
						<name>4 Mår vil ta dorullen på utedoen.mp4</name>
						<enabled>TRUE</enabled>
						<duration>778</duration>
						<rate>
							<timebase>25</timebase>
							<ntsc>FALSE</ntsc>
						</rate>
						<start>6008</start>
						<end>6181</end>
						<in>269</in>
						<out>442</out>
						<pproTicksIn>2733212160000</pproTicksIn>
						<pproTicksOut>4491002880000</pproTicksOut>
						<file id="file-184"/>
						<sourcetrack>
							<mediatype>audio</mediatype>
							<trackindex>2</trackindex>
						</sourcetrack>
							<filter>
								<effect>
									<name>Audio Levels</name>
									<effectid>audiolevels</effectid>
									<effectcategory>audiolevels</effectcategory>
									<effecttype>audiolevels</effecttype>
									<mediatype>audio</mediatype>
									<parameter authoringApp="PremierePro">
										<parameterid>level</parameterid>
										<name>Level</name>
										<valuemin>0</valuemin>
										<valuemax>3.98109</valuemax>
										<value>0.96785</value>
									</parameter>
								</effect>
							</filter>
						<link>
							<linkclipref>clipitem-273</linkclipref>
							<mediatype>video</mediatype>
							<trackindex>2</trackindex>
							<clipindex>17</clipindex>
						</link>
						<link>
							<linkclipref>clipitem-1206</linkclipref>
							<mediatype>audio</mediatype>
							<trackindex>12</trackindex>
							<clipindex>33</clipindex>
							<groupindex>1</groupindex>
						</link>
						<link>
							<linkclipref>clipitem-1291</linkclipref>
							<mediatype>audio</mediatype>
							<trackindex>13</trackindex>
							<clipindex>33</clipindex>
							<groupindex>1</groupindex>
						</link>
						<logginginfo>
							<description></description>
							<scene></scene>
							<shottake></shottake>
							<lognote></lognote>
						</logginginfo>
						<labels>
							<label2>Iris</label2>
						</labels>
					</clipitem>
					<clipitem id="clipitem-1207" premiereChannelType="stereo">
						<masterclipid>masterclip-185</masterclipid>
						<name>AA263201.MXF</name>
						<enabled>TRUE</enabled>
						<duration>4740</duration>
						<rate>
							<timebase>25</timebase>
							<ntsc>FALSE</ntsc>
						</rate>
						<start>6181</start>
						<end>-1</end>
						<in>2513</in>
						<out>2648</out>
						<pproTicksIn>25533688320000</pproTicksIn>
						<pproTicksOut>26905374720000</pproTicksOut>
						<file id="file-185"/>
						<sourcetrack>
							<mediatype>audio</mediatype>
							<trackindex>1</trackindex>
						</sourcetrack>
						<link>
							<linkclipref>clipitem-1207</linkclipref>
							<mediatype>audio</mediatype>
							<trackindex>12</trackindex>
							<clipindex>34</clipindex>
							<groupindex>1</groupindex>
						</link>
						<link>
							<linkclipref>clipitem-1292</linkclipref>
							<mediatype>audio</mediatype>
							<trackindex>13</trackindex>
							<clipindex>34</clipindex>
							<groupindex>1</groupindex>
						</link>
						<logginginfo>
							<description></description>
							<scene></scene>
							<shottake></shottake>
							<lognote></lognote>
						</logginginfo>
						<labels>
							<label2>Iris</label2>
						</labels>
					</clipitem>
					<transitionitem>
						<start>6313</start>
						<end>6316</end>
						<alignment>center</alignment>
						<cutPointTicks>10160640000</cutPointTicks>
						<rate>
							<timebase>25</timebase>
							<ntsc>FALSE</ntsc>
						</rate>
						<effect>
							<name>Cross Fade (+3dB)</name>
							<effectid>KGAudioTransCrossFade3dB</effectid>
							<effecttype>transition</effecttype>
							<mediatype>audio</mediatype>
							<wipecode>0</wipecode>
							<wipeaccuracy>100</wipeaccuracy>
							<startratio>0</startratio>
							<endratio>1</endratio>
							<reverse>FALSE</reverse>
						</effect>
					</transitionitem>
					<clipitem id="clipitem-1208" premiereChannelType="stereo">
						<masterclipid>masterclip-186</masterclipid>
						<name>AA263501.MXF</name>
						<enabled>TRUE</enabled>
						<duration>2556</duration>
						<rate>
							<timebase>25</timebase>
							<ntsc>FALSE</ntsc>
						</rate>
						<start>-1</start>
						<end>6495</end>
						<in>502</in>
						<out>684</out>
						<pproTicksIn>5100641280000</pproTicksIn>
						<pproTicksOut>6949877760000</pproTicksOut>
						<file id="file-186"/>
						<sourcetrack>
							<mediatype>audio</mediatype>
							<trackindex>1</trackindex>
						</sourcetrack>
						<link>
							<linkclipref>clipitem-1208</linkclipref>
							<mediatype>audio</mediatype>
							<trackindex>12</trackindex>
							<clipindex>36</clipindex>
							<groupindex>1</groupindex>
						</link>
						<link>
							<linkclipref>clipitem-1293</linkclipref>
							<mediatype>audio</mediatype>
							<trackindex>13</trackindex>
							<clipindex>36</clipindex>
							<groupindex>1</groupindex>
						</link>
						<logginginfo>
							<description></description>
							<scene></scene>
							<shottake></shottake>
							<lognote></lognote>
						</logginginfo>
						<labels>
							<label2>Iris</label2>
						</labels>
					</clipitem>
					<clipitem id="clipitem-1209" premiereChannelType="stereo">
						<masterclipid>masterclip-185</masterclipid>
						<name>AA263201.MXF</name>
						<enabled>TRUE</enabled>
						<duration>4740</duration>
						<rate>
							<timebase>25</timebase>
							<ntsc>FALSE</ntsc>
						</rate>
						<start>6495</start>
						<end>6767</end>
						<in>3116</in>
						<out>3388</out>
						<pproTicksIn>31660554240000</pproTicksIn>
						<pproTicksOut>34424248320000</pproTicksOut>
						<file id="file-185"/>
						<sourcetrack>
							<mediatype>audio</mediatype>
							<trackindex>1</trackindex>
						</sourcetrack>
						<link>
							<linkclipref>clipitem-1209</linkclipref>
							<mediatype>audio</mediatype>
							<trackindex>12</trackindex>
							<clipindex>37</clipindex>
							<groupindex>1</groupindex>
						</link>
						<link>
							<linkclipref>clipitem-1294</linkclipref>
							<mediatype>audio</mediatype>
							<trackindex>13</trackindex>
							<clipindex>37</clipindex>
							<groupindex>1</groupindex>
						</link>
						<logginginfo>
							<description></description>
							<scene></scene>
							<shottake></shottake>
							<lognote></lognote>
						</logginginfo>
						<labels>
							<label2>Iris</label2>
						</labels>
					</clipitem>
					<clipitem id="clipitem-1210" premiereChannelType="stereo">
						<masterclipid>masterclip-185</masterclipid>
						<name>AA263201.MXF</name>
						<enabled>TRUE</enabled>
						<duration>4740</duration>
						<rate>
							<timebase>25</timebase>
							<ntsc>FALSE</ntsc>
						</rate>
						<start>6767</start>
						<end>6954</end>
						<in>4275</in>
						<out>4462</out>
						<pproTicksIn>43436736000000</pproTicksIn>
						<pproTicksOut>45336775680000</pproTicksOut>
						<file id="file-185"/>
						<sourcetrack>
							<mediatype>audio</mediatype>
							<trackindex>1</trackindex>
						</sourcetrack>
						<link>
							<linkclipref>clipitem-1210</linkclipref>
							<mediatype>audio</mediatype>
							<trackindex>12</trackindex>
							<clipindex>38</clipindex>
							<groupindex>1</groupindex>
						</link>
						<link>
							<linkclipref>clipitem-1295</linkclipref>
							<mediatype>audio</mediatype>
							<trackindex>13</trackindex>
							<clipindex>38</clipindex>
							<groupindex>1</groupindex>
						</link>
						<logginginfo>
							<description></description>
							<scene></scene>
							<shottake></shottake>
							<lognote></lognote>
						</logginginfo>
						<labels>
							<label2>Iris</label2>
						</labels>
					</clipitem>
					<clipitem id="clipitem-1211" premiereChannelType="stereo">
						<masterclipid>masterclip-185</masterclipid>
						<name>AA263201.MXF</name>
						<enabled>TRUE</enabled>
						<duration>4740</duration>
						<rate>
							<timebase>25</timebase>
							<ntsc>FALSE</ntsc>
						</rate>
						<start>6954</start>
						<end>7109</end>
						<in>4462</in>
						<out>4617</out>
						<pproTicksIn>45336775680000</pproTicksIn>
						<pproTicksOut>46911674880000</pproTicksOut>
						<file id="file-185"/>
						<sourcetrack>
							<mediatype>audio</mediatype>
							<trackindex>1</trackindex>
						</sourcetrack>
						<link>
							<linkclipref>clipitem-1211</linkclipref>
							<mediatype>audio</mediatype>
							<trackindex>12</trackindex>
							<clipindex>39</clipindex>
							<groupindex>1</groupindex>
						</link>
						<link>
							<linkclipref>clipitem-1296</linkclipref>
							<mediatype>audio</mediatype>
							<trackindex>13</trackindex>
							<clipindex>39</clipindex>
							<groupindex>1</groupindex>
						</link>
						<logginginfo>
							<description></description>
							<scene></scene>
							<shottake></shottake>
							<lognote></lognote>
						</logginginfo>
						<labels>
							<label2>Iris</label2>
						</labels>
					</clipitem>
					<transitionitem>
						<start>11046</start>
						<end>11059</end>
						<alignment>start-black</alignment>
						<cutPointTicks>0</cutPointTicks>
						<rate>
							<timebase>25</timebase>
							<ntsc>FALSE</ntsc>
						</rate>
						<effect>
							<name>Cross Fade (+3dB)</name>
							<effectid>KGAudioTransCrossFade3dB</effectid>
							<effecttype>transition</effecttype>
							<mediatype>audio</mediatype>
							<wipecode>0</wipecode>
							<wipeaccuracy>100</wipeaccuracy>
							<startratio>0</startratio>
							<endratio>1</endratio>
							<reverse>FALSE</reverse>
						</effect>
					</transitionitem>
					<clipitem id="clipitem-1212" premiereChannelType="stereo">
						<masterclipid>masterclip-30</masterclipid>
						<name>2015-12-19 11.39.19.mp4</name>
						<enabled>TRUE</enabled>
						<duration>2636</duration>
						<rate>
							<timebase>25</timebase>
							<ntsc>FALSE</ntsc>
						</rate>
						<start>-1</start>
						<end>-1</end>
						<in>1138</in>
						<out>1232</out>
						<pproTicksIn>11562808320000</pproTicksIn>
						<pproTicksOut>12517908480000</pproTicksOut>
						<file id="file-30"/>
						<sourcetrack>
							<mediatype>audio</mediatype>
							<trackindex>2</trackindex>
						</sourcetrack>
							<marker>
								<comment></comment>
								<name></name>
								<in>1131</in>
								<out>-1</out>
							</marker>
							<marker>
								<comment></comment>
								<name></name>
								<in>667</in>
								<out>-1</out>
							</marker>
						<link>
							<linkclipref>clipitem-926</linkclipref>
							<mediatype>audio</mediatype>
							<trackindex>10</trackindex>
							<clipindex>23</clipindex>
							<groupindex>1</groupindex>
						</link>
						<link>
							<linkclipref>clipitem-1066</linkclipref>
							<mediatype>audio</mediatype>
							<trackindex>11</trackindex>
							<clipindex>23</clipindex>
							<groupindex>1</groupindex>
						</link>
						<link>
							<linkclipref>clipitem-1212</linkclipref>
							<mediatype>audio</mediatype>
							<trackindex>12</trackindex>
							<clipindex>41</clipindex>
							<groupindex>1</groupindex>
						</link>
						<link>
							<linkclipref>clipitem-1297</linkclipref>
							<mediatype>audio</mediatype>
							<trackindex>13</trackindex>
							<clipindex>41</clipindex>
							<groupindex>1</groupindex>
						</link>
						<logginginfo>
							<description></description>
							<scene></scene>
							<shottake></shottake>
							<lognote></lognote>
						</logginginfo>
						<labels>
							<label2>Iris</label2>
						</labels>
					</clipitem>
					<transitionitem>
						<start>11127</start>
						<end>11140</end>
						<alignment>end-black</alignment>
						<cutPointTicks>132088320000</cutPointTicks>
						<rate>
							<timebase>25</timebase>
							<ntsc>FALSE</ntsc>
						</rate>
						<effect>
							<name>Cross Fade (+3dB)</name>
							<effectid>KGAudioTransCrossFade3dB</effectid>
							<effecttype>transition</effecttype>
							<mediatype>audio</mediatype>
							<wipecode>0</wipecode>
							<wipeaccuracy>100</wipeaccuracy>
							<startratio>0</startratio>
							<endratio>1</endratio>
							<reverse>FALSE</reverse>
						</effect>
					</transitionitem>
					<clipitem id="clipitem-1213" premiereChannelType="stereo">
						<masterclipid>masterclip-56</masterclipid>
						<name>20160514_185459.mp4</name>
						<enabled>TRUE</enabled>
						<duration>908</duration>
						<rate>
							<timebase>25</timebase>
							<ntsc>FALSE</ntsc>
						</rate>
						<start>22124</start>
						<end>22196</end>
						<in>25</in>
						<out>97</out>
						<pproTicksIn>254016000000</pproTicksIn>
						<pproTicksOut>985582080000</pproTicksOut>
						<file id="file-56"/>
						<sourcetrack>
							<mediatype>audio</mediatype>
							<trackindex>1</trackindex>
						</sourcetrack>
							<filter>
								<effect>
									<name>Audio Levels</name>
									<effectid>audiolevels</effectid>
									<effectcategory>audiolevels</effectcategory>
									<effecttype>audiolevels</effecttype>
									<mediatype>audio</mediatype>
									<parameter authoringApp="PremierePro">
										<parameterid>level</parameterid>
										<name>Level</name>
										<valuemin>0</valuemin>
										<valuemax>3.98109</valuemax>
										<value>0.99763</value>
									</parameter>
								</effect>
							</filter>
						<link>
							<linkclipref>clipitem-70</linkclipref>
							<mediatype>video</mediatype>
							<trackindex>1</trackindex>
							<clipindex>70</clipindex>
						</link>
						<link>
							<linkclipref>clipitem-1213</linkclipref>
							<mediatype>audio</mediatype>
							<trackindex>12</trackindex>
							<clipindex>43</clipindex>
							<groupindex>1</groupindex>
						</link>
						<link>
							<linkclipref>clipitem-1298</linkclipref>
							<mediatype>audio</mediatype>
							<trackindex>13</trackindex>
							<clipindex>43</clipindex>
							<groupindex>1</groupindex>
						</link>
						<logginginfo>
							<description></description>
							<scene></scene>
							<shottake></shottake>
							<lognote></lognote>
						</logginginfo>
						<labels>
							<label2>Iris</label2>
						</labels>
					</clipitem>
					<clipitem id="clipitem-1214" premiereChannelType="stereo">
						<masterclipid>masterclip-56</masterclipid>
						<name>20160514_185459.mp4</name>
						<enabled>TRUE</enabled>
						<duration>908</duration>
						<rate>
							<timebase>25</timebase>
							<ntsc>FALSE</ntsc>
						</rate>
						<start>22355</start>
						<end>22612</end>
						<in>97</in>
						<out>354</out>
						<pproTicksIn>985582080000</pproTicksIn>
						<pproTicksOut>3596866560000</pproTicksOut>
						<file id="file-56"/>
						<sourcetrack>
							<mediatype>audio</mediatype>
							<trackindex>1</trackindex>
						</sourcetrack>
							<filter>
								<effect>
									<name>Audio Levels</name>
									<effectid>audiolevels</effectid>
									<effectcategory>audiolevels</effectcategory>
									<effecttype>audiolevels</effecttype>
									<mediatype>audio</mediatype>
									<parameter authoringApp="PremierePro">
										<parameterid>level</parameterid>
										<name>Level</name>
										<valuemin>0</valuemin>
										<valuemax>3.98109</valuemax>
										<value>0.99763</value>
									</parameter>
								</effect>
							</filter>
						<link>
							<linkclipref>clipitem-1214</linkclipref>
							<mediatype>audio</mediatype>
							<trackindex>12</trackindex>
							<clipindex>44</clipindex>
							<groupindex>1</groupindex>
						</link>
						<link>
							<linkclipref>clipitem-1299</linkclipref>
							<mediatype>audio</mediatype>
							<trackindex>13</trackindex>
							<clipindex>44</clipindex>
							<groupindex>1</groupindex>
						</link>
						<logginginfo>
							<description></description>
							<scene></scene>
							<shottake></shottake>
							<lognote></lognote>
						</logginginfo>
						<labels>
							<label2>Iris</label2>
						</labels>
					</clipitem>
					<clipitem id="clipitem-1215" premiereChannelType="stereo">
						<masterclipid>masterclip-57</masterclipid>
						<name>20160514_185543.mp4</name>
						<enabled>TRUE</enabled>
						<duration>834</duration>
						<rate>
							<timebase>25</timebase>
							<ntsc>FALSE</ntsc>
						</rate>
						<start>22612</start>
						<end>22792</end>
						<in>15</in>
						<out>195</out>
						<pproTicksIn>152409600000</pproTicksIn>
						<pproTicksOut>1981324800000</pproTicksOut>
						<file id="file-57"/>
						<sourcetrack>
							<mediatype>audio</mediatype>
							<trackindex>1</trackindex>
						</sourcetrack>
						<link>
							<linkclipref>clipitem-71</linkclipref>
							<mediatype>video</mediatype>
							<trackindex>1</trackindex>
							<clipindex>71</clipindex>
						</link>
						<link>
							<linkclipref>clipitem-1215</linkclipref>
							<mediatype>audio</mediatype>
							<trackindex>12</trackindex>
							<clipindex>45</clipindex>
							<groupindex>1</groupindex>
						</link>
						<link>
							<linkclipref>clipitem-1300</linkclipref>
							<mediatype>audio</mediatype>
							<trackindex>13</trackindex>
							<clipindex>45</clipindex>
							<groupindex>1</groupindex>
						</link>
						<logginginfo>
							<description></description>
							<scene></scene>
							<shottake></shottake>
							<lognote></lognote>
						</logginginfo>
						<labels>
							<label2>Iris</label2>
						</labels>
					</clipitem>
					<clipitem id="clipitem-1216" premiereChannelType="stereo">
						<masterclipid>masterclip-63</masterclipid>
						<name>AA277101.MXF</name>
						<enabled>TRUE</enabled>
						<duration>5604</duration>
						<rate>
							<timebase>25</timebase>
							<ntsc>FALSE</ntsc>
						</rate>
						<start>26270</start>
						<end>26431</end>
						<in>5368</in>
						<out>5529</out>
						<pproTicksIn>54542315520000</pproTicksIn>
						<pproTicksOut>56178178560000</pproTicksOut>
						<file id="file-63"/>
						<sourcetrack>
							<mediatype>audio</mediatype>
							<trackindex>2</trackindex>
						</sourcetrack>
						<link>
							<linkclipref>clipitem-1216</linkclipref>
							<mediatype>audio</mediatype>
							<trackindex>12</trackindex>
							<clipindex>46</clipindex>
							<groupindex>1</groupindex>
						</link>
						<link>
							<linkclipref>clipitem-1301</linkclipref>
							<mediatype>audio</mediatype>
							<trackindex>13</trackindex>
							<clipindex>46</clipindex>
							<groupindex>1</groupindex>
						</link>
						<logginginfo>
							<description></description>
							<scene></scene>
							<shottake></shottake>
							<lognote></lognote>
						</logginginfo>
						<labels>
							<label2>Iris</label2>
						</labels>
					</clipitem>
					<transitionitem>
						<start>27140</start>
						<end>27146</end>
						<alignment>start-black</alignment>
						<cutPointTicks>0</cutPointTicks>
						<rate>
							<timebase>25</timebase>
							<ntsc>FALSE</ntsc>
						</rate>
						<effect>
							<name>Cross Fade (+3dB)</name>
							<effectid>KGAudioTransCrossFade3dB</effectid>
							<effecttype>transition</effecttype>
							<mediatype>audio</mediatype>
							<wipecode>0</wipecode>
							<wipeaccuracy>100</wipeaccuracy>
							<startratio>0</startratio>
							<endratio>1</endratio>
							<reverse>FALSE</reverse>
						</effect>
					</transitionitem>
					<clipitem id="clipitem-1217" premiereChannelType="stereo">
						<masterclipid>masterclip-67</masterclipid>
						<name>DVNA21000514BA.mxf</name>
						<enabled>TRUE</enabled>
						<duration>397</duration>
						<rate>
							<timebase>25</timebase>
							<ntsc>FALSE</ntsc>
						</rate>
						<start>-1</start>
						<end>-1</end>
						<in>0</in>
						<out>267</out>
						<pproTicksIn>0</pproTicksIn>
						<pproTicksOut>2712890880000</pproTicksOut>
						<file id="file-67"/>
						<sourcetrack>
							<mediatype>audio</mediatype>
							<trackindex>3</trackindex>
						</sourcetrack>
						<link>
							<linkclipref>clipitem-1217</linkclipref>
							<mediatype>audio</mediatype>
							<trackindex>12</trackindex>
							<clipindex>48</clipindex>
							<groupindex>1</groupindex>
						</link>
						<link>
							<linkclipref>clipitem-1302</linkclipref>
							<mediatype>audio</mediatype>
							<trackindex>13</trackindex>
							<clipindex>48</clipindex>
							<groupindex>1</groupindex>
						</link>
						<logginginfo>
							<description>Villmarkas voktere (5:8 @ Villmarkas voktere)</description>
							<scene></scene>
							<shottake></shottake>
							<lognote></lognote>
						</logginginfo>
						<labels>
							<label2>Iris</label2>
						</labels>
					</clipitem>
					<transitionitem>
						<start>27394</start>
						<end>27407</end>
						<alignment>center</alignment>
						<cutPointTicks>60963840000</cutPointTicks>
						<rate>
							<timebase>25</timebase>
							<ntsc>FALSE</ntsc>
						</rate>
						<effect>
							<name>Cross Fade (+3dB)</name>
							<effectid>KGAudioTransCrossFade3dB</effectid>
							<effecttype>transition</effecttype>
							<mediatype>audio</mediatype>
							<wipecode>0</wipecode>
							<wipeaccuracy>100</wipeaccuracy>
							<startratio>0</startratio>
							<endratio>1</endratio>
							<reverse>FALSE</reverse>
						</effect>
					</transitionitem>
					<clipitem id="clipitem-1218" premiereChannelType="stereo">
						<masterclipid>masterclip-67</masterclipid>
						<name>DVNA21000514BA</name>
						<enabled>TRUE</enabled>
						<duration>397</duration>
						<rate>
							<timebase>25</timebase>
							<ntsc>FALSE</ntsc>
						</rate>
						<start>-1</start>
						<end>27457</end>
						<in>254</in>
						<out>317</out>
						<pproTicksIn>2580802560000</pproTicksIn>
						<pproTicksOut>3220922880000</pproTicksOut>
						<file id="file-67"/>
						<sourcetrack>
							<mediatype>audio</mediatype>
							<trackindex>5</trackindex>
						</sourcetrack>
							<filter>
								<effect>
									<name>Audio Levels</name>
									<effectid>audiolevels</effectid>
									<effectcategory>audiolevels</effectcategory>
									<effecttype>audiolevels</effecttype>
									<mediatype>audio</mediatype>
									<parameter authoringApp="PremierePro">
										<parameterid>level</parameterid>
										<name>Level</name>
										<valuemin>0</valuemin>
										<valuemax>3.98109</valuemax>
										<value>0</value>
										<keyframe>
											<when>267</when>
											<value>0.99763</value>
										</keyframe>
										<keyframe>
											<when>282</when>
											<value>0</value>
										</keyframe>
									</parameter>
								</effect>
							</filter>
						<link>
							<linkclipref>clipitem-1218</linkclipref>
							<mediatype>audio</mediatype>
							<trackindex>12</trackindex>
							<clipindex>50</clipindex>
							<groupindex>1</groupindex>
						</link>
						<link>
							<linkclipref>clipitem-1303</linkclipref>
							<mediatype>audio</mediatype>
							<trackindex>13</trackindex>
							<clipindex>50</clipindex>
							<groupindex>1</groupindex>
						</link>
						<logginginfo>
							<description>Villmarkas voktere (5:8 @ Villmarkas voktere)</description>
							<scene></scene>
							<shottake></shottake>
							<lognote></lognote>
						</logginginfo>
						<labels>
							<label2>Iris</label2>
						</labels>
					</clipitem>
					<clipitem id="clipitem-1219" premiereChannelType="stereo">
						<masterclipid>masterclip-72</masterclipid>
						<name>DNPR65008515AA</name>
						<enabled>TRUE</enabled>
						<duration>89053</duration>
						<rate>
							<timebase>25</timebase>
							<ntsc>FALSE</ntsc>
						</rate>
						<start>28050</start>
						<end>28184</end>
						<in>47297</in>
						<out>47431</out>
						<pproTicksIn>480567790080000</pproTicksIn>
						<pproTicksOut>481929315840000</pproTicksOut>
						<file id="file-72"/>
						<sourcetrack>
							<mediatype>audio</mediatype>
							<trackindex>1</trackindex>
						</sourcetrack>
							<filter>
								<effect>
									<name>Audio Levels</name>
									<effectid>audiolevels</effectid>
									<effectcategory>audiolevels</effectcategory>
									<effecttype>audiolevels</effecttype>
									<mediatype>audio</mediatype>
									<parameter authoringApp="PremierePro">
										<parameterid>level</parameterid>
										<name>Level</name>
										<valuemin>0</valuemin>
										<valuemax>3.98109</valuemax>
										<value>0</value>
										<keyframe>
											<when>47310</when>
											<value>0</value>
										</keyframe>
										<keyframe>
											<when>47323</when>
											<value>0.99763</value>
										</keyframe>
									</parameter>
								</effect>
							</filter>
						<link>
							<linkclipref>clipitem-95</linkclipref>
							<mediatype>video</mediatype>
							<trackindex>1</trackindex>
							<clipindex>96</clipindex>
						</link>
						<link>
							<linkclipref>clipitem-1219</linkclipref>
							<mediatype>audio</mediatype>
							<trackindex>12</trackindex>
							<clipindex>51</clipindex>
							<groupindex>1</groupindex>
						</link>
						<link>
							<linkclipref>clipitem-1304</linkclipref>
							<mediatype>audio</mediatype>
							<trackindex>13</trackindex>
							<clipindex>51</clipindex>
							<groupindex>1</groupindex>
						</link>
						<logginginfo>
							<description>Et eventyr gjennom linsa</description>
							<scene></scene>
							<shottake></shottake>
							<lognote></lognote>
						</logginginfo>
						<labels>
							<label2>Iris</label2>
						</labels>
					</clipitem>
					<clipitem id="clipitem-1220" premiereChannelType="stereo">
						<masterclipid>masterclip-72</masterclipid>
						<name>DNPR65008515AA</name>
						<enabled>TRUE</enabled>
						<duration>89053</duration>
						<rate>
							<timebase>25</timebase>
							<ntsc>FALSE</ntsc>
						</rate>
						<start>28350</start>
						<end>28532</end>
						<in>52358</in>
						<out>52540</out>
						<pproTicksIn>531990789120000</pproTicksIn>
						<pproTicksOut>533840025600000</pproTicksOut>
						<file id="file-72"/>
						<sourcetrack>
							<mediatype>audio</mediatype>
							<trackindex>5</trackindex>
						</sourcetrack>
						<link>
							<linkclipref>clipitem-1220</linkclipref>
							<mediatype>audio</mediatype>
							<trackindex>12</trackindex>
							<clipindex>52</clipindex>
							<groupindex>1</groupindex>
						</link>
						<link>
							<linkclipref>clipitem-1305</linkclipref>
							<mediatype>audio</mediatype>
							<trackindex>13</trackindex>
							<clipindex>52</clipindex>
							<groupindex>1</groupindex>
						</link>
						<logginginfo>
							<description>Et eventyr gjennom linsa</description>
							<scene></scene>
							<shottake></shottake>
							<lognote></lognote>
						</logginginfo>
						<labels>
							<label2>Iris</label2>
						</labels>
					</clipitem>
					<clipitem id="clipitem-1221" premiereChannelType="stereo">
						<masterclipid>masterclip-86</masterclipid>
						<name>ANSLAGUllf22nov.mxf</name>
						<enabled>TRUE</enabled>
						<duration>1662</duration>
						<rate>
							<timebase>25</timebase>
							<ntsc>FALSE</ntsc>
						</rate>
						<start>32702</start>
						<end>33012</end>
						<in>0</in>
						<out>310</out>
						<pproTicksIn>0</pproTicksIn>
						<pproTicksOut>3149798400000</pproTicksOut>
						<file id="file-86"/>
						<sourcetrack>
							<mediatype>audio</mediatype>
							<trackindex>1</trackindex>
						</sourcetrack>
						<link>
							<linkclipref>clipitem-123</linkclipref>
							<mediatype>video</mediatype>
							<trackindex>1</trackindex>
							<clipindex>130</clipindex>
						</link>
						<link>
							<linkclipref>clipitem-1221</linkclipref>
							<mediatype>audio</mediatype>
							<trackindex>12</trackindex>
							<clipindex>53</clipindex>
							<groupindex>1</groupindex>
						</link>
						<link>
							<linkclipref>clipitem-1306</linkclipref>
							<mediatype>audio</mediatype>
							<trackindex>13</trackindex>
							<clipindex>53</clipindex>
							<groupindex>1</groupindex>
						</link>
						<logginginfo>
							<description></description>
							<scene></scene>
							<shottake></shottake>
							<lognote></lognote>
						</logginginfo>
						<labels>
							<label2>Iris</label2>
						</labels>
					</clipitem>
					<clipitem id="clipitem-1222" premiereChannelType="stereo">
						<masterclipid>masterclip-86</masterclipid>
						<name>ANSLAGUllf22nov.mxf</name>
						<enabled>TRUE</enabled>
						<duration>1662</duration>
						<rate>
							<timebase>25</timebase>
							<ntsc>FALSE</ntsc>
						</rate>
						<start>33012</start>
						<end>33676</end>
						<in>526</in>
						<out>1190</out>
						<pproTicksIn>5344496640000</pproTicksIn>
						<pproTicksOut>12091161600000</pproTicksOut>
						<file id="file-86"/>
						<sourcetrack>
							<mediatype>audio</mediatype>
							<trackindex>1</trackindex>
						</sourcetrack>
							<filter>
								<effect>
									<name>Audio Levels</name>
									<effectid>audiolevels</effectid>
									<effectcategory>audiolevels</effectcategory>
									<effecttype>audiolevels</effecttype>
									<mediatype>audio</mediatype>
									<parameter authoringApp="PremierePro">
										<parameterid>level</parameterid>
										<name>Level</name>
										<valuemin>0</valuemin>
										<valuemax>3.98109</valuemax>
										<value>0</value>
										<keyframe>
											<when>987</when>
											<value>0.99763</value>
										</keyframe>
										<keyframe>
											<when>1026</when>
											<value>0.903495</value>
										</keyframe>
										<keyframe>
											<when>1055</when>
											<value>0.613364</value>
										</keyframe>
										<keyframe>
											<when>1074</when>
											<value>0.361074</value>
										</keyframe>
										<keyframe>
											<when>1108</when>
											<value>0.0756135</value>
										</keyframe>
										<keyframe>
											<when>1170</when>
											<value>0</value>
										</keyframe>
										<keyframe>
											<when>1200</when>
											<value>0</value>
										</keyframe>
										<keyframe>
											<when>1355</when>
											<value>0.99763</value>
										</keyframe>
										<keyframe>
											<when>1383</when>
											<value>0.844148</value>
										</keyframe>
										<keyframe>
											<when>1425</when>
											<value>0.695215</value>
										</keyframe>
										<keyframe>
											<when>1454</when>
											<value>0.331449</value>
										</keyframe>
										<keyframe>
											<when>1489</when>
											<value>0.179062</value>
										</keyframe>
										<keyframe>
											<when>1543</when>
											<value>0</value>
										</keyframe>
									</parameter>
								</effect>
							</filter>
						<link>
							<linkclipref>clipitem-124</linkclipref>
							<mediatype>video</mediatype>
							<trackindex>1</trackindex>
							<clipindex>131</clipindex>
						</link>
						<link>
							<linkclipref>clipitem-1222</linkclipref>
							<mediatype>audio</mediatype>
							<trackindex>12</trackindex>
							<clipindex>54</clipindex>
							<groupindex>1</groupindex>
						</link>
						<link>
							<linkclipref>clipitem-1307</linkclipref>
							<mediatype>audio</mediatype>
							<trackindex>13</trackindex>
							<clipindex>54</clipindex>
							<groupindex>1</groupindex>
						</link>
						<logginginfo>
							<description></description>
							<scene></scene>
							<shottake></shottake>
							<lognote></lognote>
						</logginginfo>
						<labels>
							<label2>Iris</label2>
						</labels>
					</clipitem>
					<clipitem id="clipitem-1223" premiereChannelType="stereo">
						<masterclipid>masterclip-326</masterclipid>
						<name>AA278401.MXF</name>
						<enabled>TRUE</enabled>
						<duration>7896</duration>
						<rate>
							<timebase>25</timebase>
							<ntsc>FALSE</ntsc>
						</rate>
						<start>36434</start>
						<end>36469</end>
						<in>7861</in>
						<out>7896</out>
						<pproTicksIn>79872791040000</pproTicksIn>
						<pproTicksOut>80228413440000</pproTicksOut>
						<pixelaspectratio>square</pixelaspectratio>
						<anamorphic>FALSE</anamorphic>
						<file id="file-326">
							<name>AA278401.MXF</name>
							<pathurl>file://localhost/Volumes/Vaagen/Utveksling/Natur/Naturlig%20helaften%20fra%20Oslo/Copied_Copy%20of%20En%20Helaften%20MASTER_002/AA278401.MXF</pathurl>
							<rate>
								<timebase>25</timebase>
								<ntsc>FALSE</ntsc>
							</rate>
							<duration>7896</duration>
							<timecode>
								<rate>
									<timebase>25</timebase>
									<ntsc>FALSE</ntsc>
								</rate>
								<string>15:55:19:00</string>
								<frame>1432975</frame>
								<displayformat>NDF</displayformat>
								<reel>
									<name></name>
								</reel>
							</timecode>
							<media>
								<video>
									<samplecharacteristics>
										<rate>
											<timebase>25</timebase>
											<ntsc>FALSE</ntsc>
										</rate>
										<width>1920</width>
										<height>1080</height>
										<anamorphic>FALSE</anamorphic>
										<pixelaspectratio>square</pixelaspectratio>
										<fielddominance>none</fielddominance>
									</samplecharacteristics>
								</video>
								<audio>
									<samplecharacteristics>
										<depth>16</depth>
										<samplerate>48000</samplerate>
									</samplecharacteristics>
									<channelcount>2</channelcount>
								</audio>
							</media>
						</file>
						<sourcetrack>
							<mediatype>audio</mediatype>
							<trackindex>1</trackindex>
						</sourcetrack>
						<link>
							<linkclipref>clipitem-1223</linkclipref>
							<mediatype>audio</mediatype>
							<trackindex>12</trackindex>
							<clipindex>55</clipindex>
							<groupindex>1</groupindex>
						</link>
						<link>
							<linkclipref>clipitem-1308</linkclipref>
							<mediatype>audio</mediatype>
							<trackindex>13</trackindex>
							<clipindex>55</clipindex>
							<groupindex>1</groupindex>
						</link>
						<logginginfo>
							<description></description>
							<scene></scene>
							<shottake></shottake>
							<lognote></lognote>
						</logginginfo>
						<labels>
							<label2>Iris</label2>
						</labels>
					</clipitem>
					<clipitem id="clipitem-1224" premiereChannelType="stereo">
						<masterclipid>masterclip-96</masterclipid>
						<name>AA278402.MXF</name>
						<enabled>TRUE</enabled>
						<duration>816</duration>
						<rate>
							<timebase>25</timebase>
							<ntsc>FALSE</ntsc>
						</rate>
						<start>36469</start>
						<end>-1</end>
						<in>0</in>
						<out>72</out>
						<pproTicksIn>0</pproTicksIn>
						<pproTicksOut>731566080000</pproTicksOut>
						<file id="file-96"/>
						<sourcetrack>
							<mediatype>audio</mediatype>
							<trackindex>1</trackindex>
						</sourcetrack>
						<link>
							<linkclipref>clipitem-1224</linkclipref>
							<mediatype>audio</mediatype>
							<trackindex>12</trackindex>
							<clipindex>56</clipindex>
							<groupindex>1</groupindex>
						</link>
						<link>
							<linkclipref>clipitem-1309</linkclipref>
							<mediatype>audio</mediatype>
							<trackindex>13</trackindex>
							<clipindex>56</clipindex>
							<groupindex>1</groupindex>
						</link>
						<logginginfo>
							<description></description>
							<scene></scene>
							<shottake></shottake>
							<lognote></lognote>
						</logginginfo>
						<labels>
							<label2>Iris</label2>
						</labels>
					</clipitem>
					<transitionitem>
						<start>36540</start>
						<end>36541</end>
						<alignment>start</alignment>
						<cutPointTicks>0</cutPointTicks>
						<rate>
							<timebase>25</timebase>
							<ntsc>FALSE</ntsc>
						</rate>
						<effect>
							<name>Cross Fade (+3dB)</name>
							<effectid>KGAudioTransCrossFade3dB</effectid>
							<effecttype>transition</effecttype>
							<mediatype>audio</mediatype>
							<wipecode>0</wipecode>
							<wipeaccuracy>100</wipeaccuracy>
							<startratio>0</startratio>
							<endratio>1</endratio>
							<reverse>FALSE</reverse>
						</effect>
					</transitionitem>
					<clipitem id="clipitem-1225" premiereChannelType="stereo">
						<masterclipid>masterclip-96</masterclipid>
						<name>AA278402.MXF</name>
						<enabled>TRUE</enabled>
						<duration>816</duration>
						<rate>
							<timebase>25</timebase>
							<ntsc>FALSE</ntsc>
						</rate>
						<start>-1</start>
						<end>36638</end>
						<in>169</in>
						<out>267</out>
						<pproTicksIn>1717148160000</pproTicksIn>
						<pproTicksOut>2712890880000</pproTicksOut>
						<file id="file-96"/>
						<sourcetrack>
							<mediatype>audio</mediatype>
							<trackindex>1</trackindex>
						</sourcetrack>
						<link>
							<linkclipref>clipitem-1225</linkclipref>
							<mediatype>audio</mediatype>
							<trackindex>12</trackindex>
							<clipindex>58</clipindex>
							<groupindex>1</groupindex>
						</link>
						<link>
							<linkclipref>clipitem-1310</linkclipref>
							<mediatype>audio</mediatype>
							<trackindex>13</trackindex>
							<clipindex>58</clipindex>
							<groupindex>1</groupindex>
						</link>
						<logginginfo>
							<description></description>
							<scene></scene>
							<shottake></shottake>
							<lognote></lognote>
						</logginginfo>
						<labels>
							<label2>Iris</label2>
						</labels>
					</clipitem>
					<clipitem id="clipitem-1226" premiereChannelType="stereo">
						<masterclipid>masterclip-96</masterclipid>
						<name>AA278402.MXF</name>
						<enabled>TRUE</enabled>
						<duration>816</duration>
						<rate>
							<timebase>25</timebase>
							<ntsc>FALSE</ntsc>
						</rate>
						<start>36638</start>
						<end>36891</end>
						<in>482</in>
						<out>735</out>
						<pproTicksIn>4897428480000</pproTicksIn>
						<pproTicksOut>7468070400000</pproTicksOut>
						<file id="file-96"/>
						<sourcetrack>
							<mediatype>audio</mediatype>
							<trackindex>1</trackindex>
						</sourcetrack>
						<link>
							<linkclipref>clipitem-1226</linkclipref>
							<mediatype>audio</mediatype>
							<trackindex>12</trackindex>
							<clipindex>59</clipindex>
							<groupindex>1</groupindex>
						</link>
						<link>
							<linkclipref>clipitem-1311</linkclipref>
							<mediatype>audio</mediatype>
							<trackindex>13</trackindex>
							<clipindex>59</clipindex>
							<groupindex>1</groupindex>
						</link>
						<logginginfo>
							<description></description>
							<scene></scene>
							<shottake></shottake>
							<lognote></lognote>
						</logginginfo>
						<labels>
							<label2>Iris</label2>
						</labels>
					</clipitem>
					<clipitem id="clipitem-1227" premiereChannelType="stereo">
						<masterclipid>masterclip-327</masterclipid>
						<name>VIND MIDDELS STERK HYLENDE 2.WAV</name>
						<enabled>TRUE</enabled>
						<duration>1305</duration>
						<rate>
							<timebase>25</timebase>
							<ntsc>FALSE</ntsc>
						</rate>
						<start>36992</start>
						<end>37452</end>
						<in>99</in>
						<out>558</out>
						<pproTicksIn>1005903360000</pproTicksIn>
						<pproTicksOut>5669637120000</pproTicksOut>
						<file id="file-327">
							<name>VIND MIDDELS STERK HYLENDE 2.WAV</name>
							<pathurl>file://localhost/Volumes/Vaagen/Prosjekter/DVNA210116_Horn%c3%b8ya_Nordvisjonen_010317_TGP/Bakomfilm/Musikk/VIND%20MIDDELS%20STERK%20HYLENDE%202.WAV</pathurl>
							<rate>
								<timebase>30</timebase>
								<ntsc>TRUE</ntsc>
							</rate>
							<duration>1565</duration>
							<timecode>
								<rate>
									<timebase>30</timebase>
									<ntsc>TRUE</ntsc>
								</rate>
								<string>00;00;00;00</string>
								<frame>0</frame>
								<displayformat>DF</displayformat>
								<reel>
									<name></name>
								</reel>
							</timecode>
							<media>
								<audio>
									<samplecharacteristics>
										<depth>16</depth>
										<samplerate>48000</samplerate>
									</samplecharacteristics>
									<channelcount>2</channelcount>
								</audio>
							</media>
						</file>
						<sourcetrack>
							<mediatype>audio</mediatype>
							<trackindex>1</trackindex>
						</sourcetrack>
							<filter>
								<effect>
									<name>Audio Levels</name>
									<effectid>audiolevels</effectid>
									<effectcategory>audiolevels</effectcategory>
									<effecttype>audiolevels</effecttype>
									<mediatype>audio</mediatype>
									<parameter authoringApp="PremierePro">
										<parameterid>level</parameterid>
										<name>Level</name>
										<valuemin>0</valuemin>
										<valuemax>3.98109</valuemax>
										<value>0</value>
										<keyframe>
											<when>105</when>
											<value>0</value>
										</keyframe>
										<keyframe>
											<when>152</when>
											<value>0.99763</value>
										</keyframe>
										<keyframe>
											<when>480</when>
											<value>0.99763</value>
										</keyframe>
										<keyframe>
											<when>549</when>
											<value>0</value>
										</keyframe>
									</parameter>
								</effect>
							</filter>
						<link>
							<linkclipref>clipitem-1227</linkclipref>
							<mediatype>audio</mediatype>
							<trackindex>12</trackindex>
							<clipindex>60</clipindex>
							<groupindex>1</groupindex>
						</link>
						<link>
							<linkclipref>clipitem-1312</linkclipref>
							<mediatype>audio</mediatype>
							<trackindex>13</trackindex>
							<clipindex>60</clipindex>
							<groupindex>1</groupindex>
						</link>
						<logginginfo>
							<description></description>
							<scene></scene>
							<shottake></shottake>
							<lognote></lognote>
						</logginginfo>
						<labels>
							<label2>Iris</label2>
						</labels>
					</clipitem>
					<transitionitem>
						<start>38943</start>
						<end>38955</end>
						<alignment>start-black</alignment>
						<cutPointTicks>0</cutPointTicks>
						<rate>
							<timebase>25</timebase>
							<ntsc>FALSE</ntsc>
						</rate>
						<effect>
							<name>Cross Fade (+3dB)</name>
							<effectid>KGAudioTransCrossFade3dB</effectid>
							<effecttype>transition</effecttype>
							<mediatype>audio</mediatype>
							<wipecode>0</wipecode>
							<wipeaccuracy>100</wipeaccuracy>
							<startratio>0</startratio>
							<endratio>1</endratio>
							<reverse>FALSE</reverse>
						</effect>
					</transitionitem>
					<clipitem id="clipitem-1228" premiereChannelType="stereo">
						<masterclipid>masterclip-98</masterclipid>
						<name>DVNA60000316AA</name>
						<enabled>TRUE</enabled>
						<duration>58641</duration>
						<rate>
							<timebase>25</timebase>
							<ntsc>FALSE</ntsc>
						</rate>
						<start>-1</start>
						<end>39425</end>
						<in>4620</in>
						<out>5103</out>
						<pproTicksIn>46942156800000</pproTicksIn>
						<pproTicksOut>51849745920000</pproTicksOut>
						<file id="file-98"/>
						<sourcetrack>
							<mediatype>audio</mediatype>
							<trackindex>5</trackindex>
						</sourcetrack>
							<filter>
								<effect>
									<name>Audio Levels</name>
									<effectid>audiolevels</effectid>
									<effectcategory>audiolevels</effectcategory>
									<effecttype>audiolevels</effecttype>
									<mediatype>audio</mediatype>
									<parameter authoringApp="PremierePro">
										<parameterid>level</parameterid>
										<name>Level</name>
										<valuemin>0</valuemin>
										<valuemax>3.98109</valuemax>
										<value>0</value>
										<keyframe>
											<when>4779</when>
											<value>0.530654</value>
										</keyframe>
										<keyframe>
											<when>4802</when>
											<value>0.191036</value>
										</keyframe>
										<keyframe>
											<when>4993</when>
											<value>0.191036</value>
										</keyframe>
										<keyframe>
											<when>5026</when>
											<value>0.658011</value>
										</keyframe>
										<keyframe>
											<when>5048</when>
											<value>0.700464</value>
										</keyframe>
										<keyframe>
											<when>5080</when>
											<value>0</value>
										</keyframe>
									</parameter>
								</effect>
							</filter>
						<link>
							<linkclipref>clipitem-1228</linkclipref>
							<mediatype>audio</mediatype>
							<trackindex>12</trackindex>
							<clipindex>62</clipindex>
							<groupindex>1</groupindex>
						</link>
						<link>
							<linkclipref>clipitem-1313</linkclipref>
							<mediatype>audio</mediatype>
							<trackindex>13</trackindex>
							<clipindex>62</clipindex>
							<groupindex>1</groupindex>
						</link>
						<logginginfo>
							<description>Ut i naturen - Hornøya</description>
							<scene></scene>
							<shottake></shottake>
							<lognote></lognote>
						</logginginfo>
						<labels>
							<label2>Iris</label2>
						</labels>
					</clipitem>
					<clipitem id="clipitem-1229" premiereChannelType="stereo">
						<masterclipid>masterclip-108</masterclipid>
						<name>00067.MTS</name>
						<enabled>TRUE</enabled>
						<duration>858</duration>
						<rate>
							<timebase>25</timebase>
							<ntsc>FALSE</ntsc>
						</rate>
						<start>39769</start>
						<end>40134</end>
						<in>70</in>
						<out>435</out>
						<pproTicksIn>711244800000</pproTicksIn>
						<pproTicksOut>4419878400000</pproTicksOut>
						<file id="file-108"/>
						<sourcetrack>
							<mediatype>audio</mediatype>
							<trackindex>1</trackindex>
						</sourcetrack>
							<filter>
								<effect>
									<name>Audio Levels</name>
									<effectid>audiolevels</effectid>
									<effectcategory>audiolevels</effectcategory>
									<effecttype>audiolevels</effecttype>
									<mediatype>audio</mediatype>
									<parameter authoringApp="PremierePro">
										<parameterid>level</parameterid>
										<name>Level</name>
										<valuemin>0</valuemin>
										<valuemax>3.98109</valuemax>
										<value>0.658011</value>
									</parameter>
								</effect>
							</filter>
						<link>
							<linkclipref>clipitem-1229</linkclipref>
							<mediatype>audio</mediatype>
							<trackindex>12</trackindex>
							<clipindex>63</clipindex>
							<groupindex>1</groupindex>
						</link>
						<link>
							<linkclipref>clipitem-1314</linkclipref>
							<mediatype>audio</mediatype>
							<trackindex>13</trackindex>
							<clipindex>63</clipindex>
							<groupindex>1</groupindex>
						</link>
						<logginginfo>
							<description></description>
							<scene></scene>
							<shottake></shottake>
							<lognote></lognote>
						</logginginfo>
						<labels>
							<label2>Iris</label2>
						</labels>
					</clipitem>
					<clipitem id="clipitem-1230" premiereChannelType="stereo">
						<masterclipid>masterclip-211</masterclipid>
						<name>5E4A0180.MOV</name>
						<enabled>TRUE</enabled>
						<duration>585</duration>
						<rate>
							<timebase>25</timebase>
							<ntsc>FALSE</ntsc>
						</rate>
						<start>40492</start>
						<end>41077</end>
						<in>0</in>
						<out>585</out>
						<pproTicksIn>0</pproTicksIn>
						<pproTicksOut>5943974400000</pproTicksOut>
						<file id="file-211"/>
						<sourcetrack>
							<mediatype>audio</mediatype>
							<trackindex>1</trackindex>
						</sourcetrack>
							<filter>
								<effect>
									<name>Gain</name>
									<effectid>{61756678, 4761696e, 4b657947}</effectid>
									<effecttype>filter</effecttype>
									<mediatype>audio</mediatype>
									<parameter authoringApp="PremierePro">
										<parameterid>Gain(dB)</parameterid>
										<name>Gain(dB)</name>
										<valuemin>-96</valuemin>
										<valuemax>96</valuemax>
										<value>-5</value>
									</parameter>
								</effect>
							</filter>
							<filter>
								<effect>
									<name>Audio Levels</name>
									<effectid>audiolevels</effectid>
									<effectcategory>audiolevels</effectcategory>
									<effecttype>audiolevels</effecttype>
									<mediatype>audio</mediatype>
									<parameter authoringApp="PremierePro">
										<parameterid>level</parameterid>
										<name>Level</name>
										<valuemin>0</valuemin>
										<valuemax>3.98109</valuemax>
										<value>0</value>
										<keyframe>
											<when>30</when>
											<value>0.106131</value>
										</keyframe>
										<keyframe>
											<when>70</when>
											<value>0.44575</value>
										</keyframe>
										<keyframe>
											<when>74</when>
											<value>0.99763</value>
										</keyframe>
										<keyframe>
											<when>490</when>
											<value>0.99763</value>
										</keyframe>
										<keyframe>
											<when>531</when>
											<value>0</value>
										</keyframe>
									</parameter>
								</effect>
							</filter>
						<link>
							<linkclipref>clipitem-340</linkclipref>
							<mediatype>video</mediatype>
							<trackindex>2</trackindex>
							<clipindex>84</clipindex>
						</link>
						<link>
							<linkclipref>clipitem-1230</linkclipref>
							<mediatype>audio</mediatype>
							<trackindex>12</trackindex>
							<clipindex>64</clipindex>
							<groupindex>1</groupindex>
						</link>
						<link>
							<linkclipref>clipitem-1315</linkclipref>
							<mediatype>audio</mediatype>
							<trackindex>13</trackindex>
							<clipindex>64</clipindex>
							<groupindex>1</groupindex>
						</link>
						<logginginfo>
							<description>Skarv har lagt reir under kamerafeste</description>
							<scene></scene>
							<shottake></shottake>
							<lognote></lognote>
						</logginginfo>
						<labels>
							<label2>Iris</label2>
						</labels>
					</clipitem>
					<clipitem id="clipitem-1231" premiereChannelType="stereo">
						<masterclipid>masterclip-98</masterclipid>
						<name>DVNA60000316AA</name>
						<enabled>TRUE</enabled>
						<duration>58641</duration>
						<rate>
							<timebase>25</timebase>
							<ntsc>FALSE</ntsc>
						</rate>
						<start>41231</start>
						<end>41825</end>
						<in>17507</in>
						<out>18101</out>
						<pproTicksIn>177882324480000</pproTicksIn>
						<pproTicksOut>183917744640000</pproTicksOut>
						<file id="file-98"/>
						<sourcetrack>
							<mediatype>audio</mediatype>
							<trackindex>3</trackindex>
						</sourcetrack>
							<filter>
								<effect>
									<name>Audio Levels</name>
									<effectid>audiolevels</effectid>
									<effectcategory>audiolevels</effectcategory>
									<effecttype>audiolevels</effecttype>
									<mediatype>audio</mediatype>
									<parameter authoringApp="PremierePro">
										<parameterid>level</parameterid>
										<name>Level</name>
										<valuemin>0</valuemin>
										<valuemax>3.98109</valuemax>
										<value>0</value>
										<keyframe>
											<when>17521</when>
											<value>0</value>
										</keyframe>
										<keyframe>
											<when>17555</when>
											<value>1.04008</value>
										</keyframe>
										<keyframe>
											<when>17744</when>
											<value>0.99763</value>
										</keyframe>
										<keyframe>
											<when>17785</when>
											<value>0.752598</value>
										</keyframe>
										<keyframe>
											<when>17943</when>
											<value>0.752598</value>
										</keyframe>
										<keyframe>
											<when>18089</when>
											<value>0</value>
										</keyframe>
									</parameter>
								</effect>
							</filter>
						<link>
							<linkclipref>clipitem-1231</linkclipref>
							<mediatype>audio</mediatype>
							<trackindex>12</trackindex>
							<clipindex>65</clipindex>
							<groupindex>1</groupindex>
						</link>
						<link>
							<linkclipref>clipitem-1316</linkclipref>
							<mediatype>audio</mediatype>
							<trackindex>13</trackindex>
							<clipindex>65</clipindex>
							<groupindex>1</groupindex>
						</link>
						<logginginfo>
							<description>Ut i naturen - Hornøya</description>
							<scene></scene>
							<shottake></shottake>
							<lognote></lognote>
						</logginginfo>
						<labels>
							<label2>Iris</label2>
						</labels>
					</clipitem>
					<clipitem id="clipitem-1232" premiereChannelType="stereo">
						<masterclipid>masterclip-221</masterclipid>
						<name>00040.mxf</name>
						<enabled>TRUE</enabled>
						<duration>1812</duration>
						<rate>
							<timebase>25</timebase>
							<ntsc>FALSE</ntsc>
						</rate>
						<start>43897</start>
						<end>44379</end>
						<in>195</in>
						<out>677</out>
						<pproTicksIn>1981324800000</pproTicksIn>
						<pproTicksOut>6878753280000</pproTicksOut>
						<file id="file-221"/>
						<sourcetrack>
							<mediatype>audio</mediatype>
							<trackindex>1</trackindex>
						</sourcetrack>
							<filter>
								<effect>
									<name>Audio Levels</name>
									<effectid>audiolevels</effectid>
									<effectcategory>audiolevels</effectcategory>
									<effecttype>audiolevels</effecttype>
									<mediatype>audio</mediatype>
									<parameter authoringApp="PremierePro">
										<parameterid>level</parameterid>
										<name>Level</name>
										<valuemin>0</valuemin>
										<valuemax>3.98109</valuemax>
										<value>0</value>
										<keyframe>
											<when>160</when>
											<value>0</value>
										</keyframe>
										<keyframe>
											<when>189</when>
											<value>1.04008</value>
										</keyframe>
										<keyframe>
											<when>195</when>
											<value>0</value>
										</keyframe>
										<keyframe>
											<when>225</when>
											<value>1.04008</value>
										</keyframe>
										<keyframe>
											<when>320</when>
											<value>1.04008</value>
										</keyframe>
										<keyframe>
											<when>336</when>
											<value>1.59196</value>
										</keyframe>
										<keyframe>
											<when>658</when>
											<value>1.63442</value>
										</keyframe>
										<keyframe>
											<when>671</when>
											<value>0</value>
										</keyframe>
									</parameter>
								</effect>
							</filter>
						<link>
							<linkclipref>clipitem-1232</linkclipref>
							<mediatype>audio</mediatype>
							<trackindex>12</trackindex>
							<clipindex>66</clipindex>
							<groupindex>1</groupindex>
						</link>
						<link>
							<linkclipref>clipitem-1317</linkclipref>
							<mediatype>audio</mediatype>
							<trackindex>13</trackindex>
							<clipindex>66</clipindex>
							<groupindex>1</groupindex>
						</link>
						<logginginfo>
							<description></description>
							<scene></scene>
							<shottake></shottake>
							<lognote></lognote>
						</logginginfo>
						<labels>
							<label2>Iris</label2>
						</labels>
					</clipitem>
					<clipitem id="clipitem-1233" premiereChannelType="stereo">
						<masterclipid>masterclip-110</masterclipid>
						<name>NRK2-250616.mxf</name>
						<enabled>TRUE</enabled>
						<duration>186000</duration>
						<rate>
							<timebase>25</timebase>
							<ntsc>FALSE</ntsc>
						</rate>
						<start>45772</start>
						<end>45968</end>
						<in>67643</in>
						<out>67839</out>
						<pproTicksIn>687296171520000</pproTicksIn>
						<pproTicksOut>689287656960000</pproTicksOut>
						<file id="file-110"/>
						<sourcetrack>
							<mediatype>audio</mediatype>
							<trackindex>3</trackindex>
						</sourcetrack>
						<link>
							<linkclipref>clipitem-159</linkclipref>
							<mediatype>video</mediatype>
							<trackindex>1</trackindex>
							<clipindex>168</clipindex>
						</link>
						<link>
							<linkclipref>clipitem-1233</linkclipref>
							<mediatype>audio</mediatype>
							<trackindex>12</trackindex>
							<clipindex>67</clipindex>
							<groupindex>1</groupindex>
						</link>
						<link>
							<linkclipref>clipitem-1318</linkclipref>
							<mediatype>audio</mediatype>
							<trackindex>13</trackindex>
							<clipindex>67</clipindex>
							<groupindex>1</groupindex>
						</link>
						<logginginfo>
							<description>Program 10</description>
							<scene></scene>
							<shottake></shottake>
							<lognote></lognote>
						</logginginfo>
						<labels>
							<label2>Iris</label2>
						</labels>
					</clipitem>
					<clipitem id="clipitem-1234" premiereChannelType="stereo">
						<masterclipid>masterclip-111</masterclipid>
						<name>NRK1-PGM-120716.mxf</name>
						<enabled>TRUE</enabled>
						<duration>81000</duration>
						<rate>
							<timebase>25</timebase>
							<ntsc>FALSE</ntsc>
						</rate>
						<start>46238</start>
						<end>46656</end>
						<in>30842</in>
						<out>31260</out>
						<pproTicksIn>313374458880000</pproTicksIn>
						<pproTicksOut>317621606400000</pproTicksOut>
						<file id="file-111"/>
						<sourcetrack>
							<mediatype>audio</mediatype>
							<trackindex>1</trackindex>
						</sourcetrack>
							<filter>
								<effect>
									<name>Audio Levels</name>
									<effectid>audiolevels</effectid>
									<effectcategory>audiolevels</effectcategory>
									<effecttype>audiolevels</effecttype>
									<mediatype>audio</mediatype>
									<parameter authoringApp="PremierePro">
										<parameterid>level</parameterid>
										<name>Level</name>
										<valuemin>0</valuemin>
										<valuemax>3.98109</valuemax>
										<value>0.233488</value>
										<keyframe>
											<when>30851</when>
											<value>0.233488</value>
										</keyframe>
										<keyframe>
											<when>30900</when>
											<value>0.615559</value>
										</keyframe>
										<keyframe>
											<when>30920</when>
											<value>0.99763</value>
										</keyframe>
										<keyframe>
											<when>31198</when>
											<value>0.99763</value>
										</keyframe>
										<keyframe>
											<when>31255</when>
											<value>0</value>
										</keyframe>
									</parameter>
								</effect>
							</filter>
						<link>
							<linkclipref>clipitem-373</linkclipref>
							<mediatype>video</mediatype>
							<trackindex>2</trackindex>
							<clipindex>117</clipindex>
						</link>
						<link>
							<linkclipref>clipitem-1234</linkclipref>
							<mediatype>audio</mediatype>
							<trackindex>12</trackindex>
							<clipindex>68</clipindex>
							<groupindex>1</groupindex>
						</link>
						<link>
							<linkclipref>clipitem-1319</linkclipref>
							<mediatype>audio</mediatype>
							<trackindex>13</trackindex>
							<clipindex>68</clipindex>
							<groupindex>1</groupindex>
						</link>
						<logginginfo>
							<description>DVNA20000916</description>
							<scene></scene>
							<shottake></shottake>
							<lognote></lognote>
						</logginginfo>
						<labels>
							<label2>Iris</label2>
						</labels>
					</clipitem>
					<clipitem id="clipitem-1235" premiereChannelType="stereo">
						<masterclipid>masterclip-231</masterclipid>
						<name>NRK1-CF-120716.mxf</name>
						<enabled>TRUE</enabled>
						<duration>81000</duration>
						<rate>
							<timebase>25</timebase>
							<ntsc>FALSE</ntsc>
						</rate>
						<start>46669</start>
						<end>47108</end>
						<in>31942</in>
						<out>32381</out>
						<pproTicksIn>324551162880000</pproTicksIn>
						<pproTicksOut>329011683840000</pproTicksOut>
						<file id="file-231"/>
						<sourcetrack>
							<mediatype>audio</mediatype>
							<trackindex>1</trackindex>
						</sourcetrack>
							<filter>
								<effect>
									<name>Audio Levels</name>
									<effectid>audiolevels</effectid>
									<effectcategory>audiolevels</effectcategory>
									<effecttype>audiolevels</effecttype>
									<mediatype>audio</mediatype>
									<parameter authoringApp="PremierePro">
										<parameterid>level</parameterid>
										<name>Level</name>
										<valuemin>0</valuemin>
										<valuemax>3.98109</valuemax>
										<value>0</value>
										<keyframe>
											<when>31946</when>
											<value>0</value>
										</keyframe>
										<keyframe>
											<when>31974</when>
											<value>0.99763</value>
										</keyframe>
										<keyframe>
											<when>32358</when>
											<value>0.99763</value>
										</keyframe>
										<keyframe>
											<when>32378</when>
											<value>0</value>
										</keyframe>
									</parameter>
								</effect>
							</filter>
						<link>
							<linkclipref>clipitem-375</linkclipref>
							<mediatype>video</mediatype>
							<trackindex>2</trackindex>
							<clipindex>119</clipindex>
						</link>
						<link>
							<linkclipref>clipitem-1235</linkclipref>
							<mediatype>audio</mediatype>
							<trackindex>12</trackindex>
							<clipindex>69</clipindex>
							<groupindex>1</groupindex>
						</link>
						<link>
							<linkclipref>clipitem-1320</linkclipref>
							<mediatype>audio</mediatype>
							<trackindex>13</trackindex>
							<clipindex>69</clipindex>
							<groupindex>1</groupindex>
						</link>
						<logginginfo>
							<description>DVNA20000916</description>
							<scene></scene>
							<shottake></shottake>
							<lognote></lognote>
						</logginginfo>
						<labels>
							<label2>Iris</label2>
						</labels>
					</clipitem>
					<transitionitem>
						<start>50427</start>
						<end>50440</end>
						<alignment>start-black</alignment>
						<cutPointTicks>0</cutPointTicks>
						<rate>
							<timebase>25</timebase>
							<ntsc>FALSE</ntsc>
						</rate>
						<effect>
							<name>Cross Fade (+3dB)</name>
							<effectid>KGAudioTransCrossFade3dB</effectid>
							<effecttype>transition</effecttype>
							<mediatype>audio</mediatype>
							<wipecode>0</wipecode>
							<wipeaccuracy>100</wipeaccuracy>
							<startratio>0</startratio>
							<endratio>1</endratio>
							<reverse>FALSE</reverse>
						</effect>
					</transitionitem>
					<clipitem id="clipitem-1236" premiereChannelType="stereo">
						<masterclipid>masterclip-241</masterclipid>
						<name>DVNA25000316AU.mxf</name>
						<enabled>TRUE</enabled>
						<duration>181500</duration>
						<rate>
							<timebase>25</timebase>
							<ntsc>FALSE</ntsc>
						</rate>
						<start>-1</start>
						<end>-1</end>
						<in>50355</in>
						<out>50532</out>
						<pproTicksIn>511639027200000</pproTicksIn>
						<pproTicksOut>513437460480000</pproTicksOut>
						<file id="file-241"/>
						<sourcetrack>
							<mediatype>audio</mediatype>
							<trackindex>3</trackindex>
						</sourcetrack>
							<filter>
								<effect>
									<name>Audio Levels</name>
									<effectid>audiolevels</effectid>
									<effectcategory>audiolevels</effectcategory>
									<effecttype>audiolevels</effecttype>
									<mediatype>audio</mediatype>
									<parameter authoringApp="PremierePro">
										<parameterid>level</parameterid>
										<name>Level</name>
										<valuemin>0</valuemin>
										<valuemax>3.98109</valuemax>
										<value>0</value>
										<keyframe>
											<when>50267</when>
											<value>0</value>
										</keyframe>
										<keyframe>
											<when>50297</when>
											<value>0.99763</value>
										</keyframe>
										<keyframe>
											<when>50327</when>
											<value>0</value>
										</keyframe>
										<keyframe>
											<when>50385</when>
											<value>0.742916</value>
										</keyframe>
										<keyframe>
											<when>50885</when>
											<value>0.785368</value>
										</keyframe>
										<keyframe>
											<when>50956</when>
											<value>0</value>
										</keyframe>
									</parameter>
								</effect>
							</filter>
						<link>
							<linkclipref>clipitem-1236</linkclipref>
							<mediatype>audio</mediatype>
							<trackindex>12</trackindex>
							<clipindex>71</clipindex>
							<groupindex>1</groupindex>
						</link>
						<link>
							<linkclipref>clipitem-1321</linkclipref>
							<mediatype>audio</mediatype>
							<trackindex>13</trackindex>
							<clipindex>71</clipindex>
							<groupindex>1</groupindex>
						</link>
						<logginginfo>
							<description>Program 3</description>
							<scene></scene>
							<shottake></shottake>
							<lognote></lognote>
						</logginginfo>
						<labels>
							<label2>Iris</label2>
						</labels>
					</clipitem>
					<transitionitem>
						<start>50592</start>
						<end>50604</end>
						<alignment>center</alignment>
						<cutPointTicks>60963840000</cutPointTicks>
						<rate>
							<timebase>25</timebase>
							<ntsc>FALSE</ntsc>
						</rate>
						<effect>
							<name>Cross Fade (+3dB)</name>
							<effectid>KGAudioTransCrossFade3dB</effectid>
							<effecttype>transition</effecttype>
							<mediatype>audio</mediatype>
							<wipecode>0</wipecode>
							<wipeaccuracy>100</wipeaccuracy>
							<startratio>0</startratio>
							<endratio>1</endratio>
							<reverse>FALSE</reverse>
						</effect>
					</transitionitem>
					<clipitem id="clipitem-1237" premiereChannelType="stereo">
						<masterclipid>masterclip-328</masterclipid>
						<name>NRK2-230616 (1).mxf</name>
						<enabled>TRUE</enabled>
						<duration>183000</duration>
						<rate>
							<timebase>25</timebase>
							<ntsc>FALSE</ntsc>
						</rate>
						<start>-1</start>
						<end>-1</end>
						<in>127823</in>
						<out>128032</out>
						<pproTicksIn>1298763486720000</pproTicksIn>
						<pproTicksOut>1300887060480000</pproTicksOut>
						<pixelaspectratio>square</pixelaspectratio>
						<anamorphic>FALSE</anamorphic>
						<file id="file-328">
							<name>DVNA25000816AU.mxf</name>
							<pathurl>file://localhost/Volumes/Vaagen/Prosjekter/DVNA210116_Horn%c3%b8ya_Nordvisjonen_010317_TGP/Horn%c3%b8ya%20Trond/NRK2sendinger/DVNA25000816AU.mxf</pathurl>
							<rate>
								<timebase>25</timebase>
								<ntsc>FALSE</ntsc>
							</rate>
							<duration>183000</duration>
							<timecode>
								<rate>
									<timebase>25</timebase>
									<ntsc>FALSE</ntsc>
								</rate>
								<string>21:59:00:00</string>
								<frame>1978500</frame>
								<displayformat>NDF</displayformat>
								<reel>
									<name></name>
								</reel>
							</timecode>
							<media>
								<video>
									<samplecharacteristics>
										<rate>
											<timebase>25</timebase>
											<ntsc>FALSE</ntsc>
										</rate>
										<width>1920</width>
										<height>1080</height>
										<anamorphic>FALSE</anamorphic>
										<pixelaspectratio>square</pixelaspectratio>
										<fielddominance>upper</fielddominance>
									</samplecharacteristics>
								</video>
								<audio>
									<samplecharacteristics>
										<depth>16</depth>
										<samplerate>48000</samplerate>
									</samplecharacteristics>
									<channelcount>8</channelcount>
								</audio>
							</media>
						</file>
						<sourcetrack>
							<mediatype>audio</mediatype>
							<trackindex>3</trackindex>
						</sourcetrack>
							<filter>
								<effect>
									<name>Audio Levels</name>
									<effectid>audiolevels</effectid>
									<effectcategory>audiolevels</effectcategory>
									<effecttype>audiolevels</effecttype>
									<mediatype>audio</mediatype>
									<parameter authoringApp="PremierePro">
										<parameterid>level</parameterid>
										<name>Level</name>
										<valuemin>0</valuemin>
										<valuemax>3.98109</valuemax>
										<value>0.785368</value>
									</parameter>
								</effect>
							</filter>
						<link>
							<linkclipref>clipitem-1237</linkclipref>
							<mediatype>audio</mediatype>
							<trackindex>12</trackindex>
							<clipindex>73</clipindex>
							<groupindex>1</groupindex>
						</link>
						<link>
							<linkclipref>clipitem-1322</linkclipref>
							<mediatype>audio</mediatype>
							<trackindex>13</trackindex>
							<clipindex>73</clipindex>
							<groupindex>1</groupindex>
						</link>
						<logginginfo>
							<description>Program 8</description>
							<scene></scene>
							<shottake></shottake>
							<lognote></lognote>
						</logginginfo>
						<labels>
							<label2>Iris</label2>
						</labels>
					</clipitem>
					<transitionitem>
						<start>50787</start>
						<end>50800</end>
						<alignment>center</alignment>
						<cutPointTicks>60963840000</cutPointTicks>
						<rate>
							<timebase>25</timebase>
							<ntsc>FALSE</ntsc>
						</rate>
						<effect>
							<name>Cross Fade (+3dB)</name>
							<effectid>KGAudioTransCrossFade3dB</effectid>
							<effecttype>transition</effecttype>
							<mediatype>audio</mediatype>
							<wipecode>0</wipecode>
							<wipeaccuracy>100</wipeaccuracy>
							<startratio>0</startratio>
							<endratio>1</endratio>
							<reverse>FALSE</reverse>
						</effect>
					</transitionitem>
					<clipitem id="clipitem-1238" premiereChannelType="stereo">
						<masterclipid>masterclip-241</masterclipid>
						<name>DVNA25000316AU.mxf</name>
						<enabled>TRUE</enabled>
						<duration>181500</duration>
						<rate>
							<timebase>25</timebase>
							<ntsc>FALSE</ntsc>
						</rate>
						<start>-1</start>
						<end>51041</end>
						<in>50716</in>
						<out>50970</out>
						<pproTicksIn>515307018240000</pproTicksIn>
						<pproTicksOut>517887820800000</pproTicksOut>
						<file id="file-241"/>
						<sourcetrack>
							<mediatype>audio</mediatype>
							<trackindex>3</trackindex>
						</sourcetrack>
							<filter>
								<effect>
									<name>Audio Levels</name>
									<effectid>audiolevels</effectid>
									<effectcategory>audiolevels</effectcategory>
									<effecttype>audiolevels</effecttype>
									<mediatype>audio</mediatype>
									<parameter authoringApp="PremierePro">
										<parameterid>level</parameterid>
										<name>Level</name>
										<valuemin>0</valuemin>
										<valuemax>3.98109</valuemax>
										<value>0</value>
										<keyframe>
											<when>50267</when>
											<value>0</value>
										</keyframe>
										<keyframe>
											<when>50297</when>
											<value>0.99763</value>
										</keyframe>
										<keyframe>
											<when>50327</when>
											<value>0</value>
										</keyframe>
										<keyframe>
											<when>50385</when>
											<value>0.827821</value>
										</keyframe>
										<keyframe>
											<when>50885</when>
											<value>0.870273</value>
										</keyframe>
										<keyframe>
											<when>50956</when>
											<value>0</value>
										</keyframe>
									</parameter>
								</effect>
							</filter>
						<link>
							<linkclipref>clipitem-1238</linkclipref>
							<mediatype>audio</mediatype>
							<trackindex>12</trackindex>
							<clipindex>75</clipindex>
							<groupindex>1</groupindex>
						</link>
						<link>
							<linkclipref>clipitem-1323</linkclipref>
							<mediatype>audio</mediatype>
							<trackindex>13</trackindex>
							<clipindex>75</clipindex>
							<groupindex>1</groupindex>
						</link>
						<logginginfo>
							<description>Program 3</description>
							<scene></scene>
							<shottake></shottake>
							<lognote></lognote>
						</logginginfo>
						<labels>
							<label2>Iris</label2>
						</labels>
					</clipitem>
					<clipitem id="clipitem-1239" premiereChannelType="stereo">
						<masterclipid>masterclip-242</masterclipid>
						<name>VR-0676.MXF</name>
						<enabled>TRUE</enabled>
						<duration>3946</duration>
						<rate>
							<timebase>25</timebase>
							<ntsc>FALSE</ntsc>
						</rate>
						<start>51794</start>
						<end>51943</end>
						<in>2108</in>
						<out>2257</out>
						<pproTicksIn>21418629120000</pproTicksIn>
						<pproTicksOut>22932564480000</pproTicksOut>
						<file id="file-242"/>
						<sourcetrack>
							<mediatype>audio</mediatype>
							<trackindex>3</trackindex>
						</sourcetrack>
							<filter>
								<effect>
									<name>Audio Levels</name>
									<effectid>audiolevels</effectid>
									<effectcategory>audiolevels</effectcategory>
									<effecttype>audiolevels</effecttype>
									<mediatype>audio</mediatype>
									<parameter authoringApp="PremierePro">
										<parameterid>level</parameterid>
										<name>Level</name>
										<valuemin>0</valuemin>
										<valuemax>3.98109</valuemax>
										<value>1.08253</value>
										<keyframe>
											<when>2110</when>
											<value>0</value>
										</keyframe>
										<keyframe>
											<when>2131</when>
											<value>1.08253</value>
										</keyframe>
									</parameter>
								</effect>
							</filter>
						<link>
							<linkclipref>clipitem-402</linkclipref>
							<mediatype>video</mediatype>
							<trackindex>2</trackindex>
							<clipindex>146</clipindex>
						</link>
						<link>
							<linkclipref>clipitem-1239</linkclipref>
							<mediatype>audio</mediatype>
							<trackindex>12</trackindex>
							<clipindex>76</clipindex>
							<groupindex>1</groupindex>
						</link>
						<link>
							<linkclipref>clipitem-1324</linkclipref>
							<mediatype>audio</mediatype>
							<trackindex>13</trackindex>
							<clipindex>76</clipindex>
							<groupindex>1</groupindex>
						</link>
						<logginginfo>
							<description></description>
							<scene></scene>
							<shottake></shottake>
							<lognote></lognote>
						</logginginfo>
						<labels>
							<label2>Iris</label2>
						</labels>
					</clipitem>
					<clipitem id="clipitem-1240" premiereChannelType="stereo">
						<masterclipid>masterclip-241</masterclipid>
						<name>DVNA25000316AU.mxf</name>
						<enabled>TRUE</enabled>
						<duration>181500</duration>
						<rate>
							<timebase>25</timebase>
							<ntsc>FALSE</ntsc>
						</rate>
						<start>52854</start>
						<end>53097</end>
						<in>50810</in>
						<out>51054</out>
						<pproTicksIn>516262118400000</pproTicksIn>
						<pproTicksOut>518741314560000</pproTicksOut>
						<file id="file-241"/>
						<sourcetrack>
							<mediatype>audio</mediatype>
							<trackindex>3</trackindex>
						</sourcetrack>
							<filter>
								<effect>
									<name>Audio Levels</name>
									<effectid>audiolevels</effectid>
									<effectcategory>audiolevels</effectcategory>
									<effecttype>audiolevels</effecttype>
									<mediatype>audio</mediatype>
									<parameter authoringApp="PremierePro">
										<parameterid>level</parameterid>
										<name>Level</name>
										<valuemin>0</valuemin>
										<valuemax>3.98109</valuemax>
										<value>0</value>
										<keyframe>
											<when>50799</when>
											<value>0</value>
										</keyframe>
										<keyframe>
											<when>50838</when>
											<value>0</value>
										</keyframe>
										<keyframe>
											<when>50885</when>
											<value>0.99763</value>
										</keyframe>
										<keyframe>
											<when>50963</when>
											<value>0.99763</value>
										</keyframe>
										<keyframe>
											<when>51021</when>
											<value>0</value>
										</keyframe>
									</parameter>
								</effect>
							</filter>
						<link>
							<linkclipref>clipitem-1240</linkclipref>
							<mediatype>audio</mediatype>
							<trackindex>12</trackindex>
							<clipindex>77</clipindex>
							<groupindex>1</groupindex>
						</link>
						<link>
							<linkclipref>clipitem-1325</linkclipref>
							<mediatype>audio</mediatype>
							<trackindex>13</trackindex>
							<clipindex>77</clipindex>
							<groupindex>1</groupindex>
						</link>
						<logginginfo>
							<description>Program 3</description>
							<scene></scene>
							<shottake></shottake>
							<lognote></lognote>
						</logginginfo>
						<labels>
							<label2>Iris</label2>
						</labels>
					</clipitem>
					<transitionitem>
						<start>53540</start>
						<end>53553</end>
						<alignment>start-black</alignment>
						<cutPointTicks>0</cutPointTicks>
						<rate>
							<timebase>25</timebase>
							<ntsc>FALSE</ntsc>
						</rate>
						<effect>
							<name>Cross Fade (+3dB)</name>
							<effectid>KGAudioTransCrossFade3dB</effectid>
							<effecttype>transition</effecttype>
							<mediatype>audio</mediatype>
							<wipecode>0</wipecode>
							<wipeaccuracy>100</wipeaccuracy>
							<startratio>0</startratio>
							<endratio>1</endratio>
							<reverse>FALSE</reverse>
						</effect>
					</transitionitem>
					<clipitem id="clipitem-1241" premiereChannelType="stereo">
						<masterclipid>masterclip-103</masterclipid>
						<name>DVNA25000116AU.mxf</name>
						<enabled>TRUE</enabled>
						<duration>192000</duration>
						<rate>
							<timebase>25</timebase>
							<ntsc>FALSE</ntsc>
						</rate>
						<start>-1</start>
						<end>-1</end>
						<in>117901</in>
						<out>118090</out>
						<pproTicksIn>1197949616640000</pproTicksIn>
						<pproTicksOut>1199869977600000</pproTicksOut>
						<file id="file-103"/>
						<sourcetrack>
							<mediatype>audio</mediatype>
							<trackindex>3</trackindex>
						</sourcetrack>
						<link>
							<linkclipref>clipitem-1241</linkclipref>
							<mediatype>audio</mediatype>
							<trackindex>12</trackindex>
							<clipindex>79</clipindex>
							<groupindex>1</groupindex>
						</link>
						<link>
							<linkclipref>clipitem-1326</linkclipref>
							<mediatype>audio</mediatype>
							<trackindex>13</trackindex>
							<clipindex>79</clipindex>
							<groupindex>1</groupindex>
						</link>
						<logginginfo>
							<description>Program 1</description>
							<scene></scene>
							<shottake></shottake>
							<lognote></lognote>
						</logginginfo>
						<labels>
							<label2>Iris</label2>
						</labels>
					</clipitem>
					<transitionitem>
						<start>53716</start>
						<end>53729</end>
						<alignment>end-black</alignment>
						<cutPointTicks>132088320000</cutPointTicks>
						<rate>
							<timebase>25</timebase>
							<ntsc>FALSE</ntsc>
						</rate>
						<effect>
							<name>Cross Fade (+3dB)</name>
							<effectid>KGAudioTransCrossFade3dB</effectid>
							<effecttype>transition</effecttype>
							<mediatype>audio</mediatype>
							<wipecode>0</wipecode>
							<wipeaccuracy>100</wipeaccuracy>
							<startratio>0</startratio>
							<endratio>1</endratio>
							<reverse>FALSE</reverse>
						</effect>
					</transitionitem>
					<clipitem id="clipitem-1242" premiereChannelType="stereo">
						<masterclipid>masterclip-102</masterclipid>
						<name>NRK2-180616.mxf</name>
						<enabled>TRUE</enabled>
						<duration>183000</duration>
						<rate>
							<timebase>25</timebase>
							<ntsc>FALSE</ntsc>
						</rate>
						<start>54110</start>
						<end>54224</end>
						<in>33105</in>
						<out>33219</out>
						<pproTicksIn>336367987200000</pproTicksIn>
						<pproTicksOut>337526300160000</pproTicksOut>
						<file id="file-102"/>
						<sourcetrack>
							<mediatype>audio</mediatype>
							<trackindex>3</trackindex>
						</sourcetrack>
							<filter>
								<effect>
									<name>Audio Levels</name>
									<effectid>audiolevels</effectid>
									<effectcategory>audiolevels</effectcategory>
									<effecttype>audiolevels</effecttype>
									<mediatype>audio</mediatype>
									<parameter authoringApp="PremierePro">
										<parameterid>level</parameterid>
										<name>Level</name>
										<valuemin>0</valuemin>
										<valuemax>3.98109</valuemax>
										<value>0</value>
										<keyframe>
											<when>33121</when>
											<value>0</value>
										</keyframe>
										<keyframe>
											<when>33131</when>
											<value>1.04751</value>
										</keyframe>
										<keyframe>
											<when>33187</when>
											<value>1.04751</value>
										</keyframe>
										<keyframe>
											<when>33211</when>
											<value>0</value>
										</keyframe>
									</parameter>
								</effect>
							</filter>
						<link>
							<linkclipref>clipitem-1242</linkclipref>
							<mediatype>audio</mediatype>
							<trackindex>12</trackindex>
							<clipindex>81</clipindex>
							<groupindex>1</groupindex>
						</link>
						<link>
							<linkclipref>clipitem-1327</linkclipref>
							<mediatype>audio</mediatype>
							<trackindex>13</trackindex>
							<clipindex>81</clipindex>
							<groupindex>1</groupindex>
						</link>
						<logginginfo>
							<description>Program 5</description>
							<scene></scene>
							<shottake></shottake>
							<lognote></lognote>
						</logginginfo>
						<labels>
							<label2>Iris</label2>
						</labels>
					</clipitem>
					<transitionitem>
						<start>56067</start>
						<end>56079</end>
						<alignment>start-black</alignment>
						<cutPointTicks>0</cutPointTicks>
						<rate>
							<timebase>25</timebase>
							<ntsc>FALSE</ntsc>
						</rate>
						<effect>
							<name>Cross Fade (+3dB)</name>
							<effectid>KGAudioTransCrossFade3dB</effectid>
							<effecttype>transition</effecttype>
							<mediatype>audio</mediatype>
							<wipecode>0</wipecode>
							<wipeaccuracy>100</wipeaccuracy>
							<startratio>0</startratio>
							<endratio>1</endratio>
							<reverse>FALSE</reverse>
						</effect>
					</transitionitem>
					<clipitem id="clipitem-1243" premiereChannelType="stereo">
						<masterclipid>masterclip-12</masterclipid>
						<name>NRK2-300616 (1).mxf</name>
						<enabled>TRUE</enabled>
						<duration>183000</duration>
						<rate>
							<timebase>25</timebase>
							<ntsc>FALSE</ntsc>
						</rate>
						<start>-1</start>
						<end>56294</end>
						<in>47831</in>
						<out>48058</out>
						<pproTicksIn>485993571840000</pproTicksIn>
						<pproTicksOut>488300037120000</pproTicksOut>
						<file id="file-12"/>
						<sourcetrack>
							<mediatype>audio</mediatype>
							<trackindex>1</trackindex>
						</sourcetrack>
						<link>
							<linkclipref>clipitem-1243</linkclipref>
							<mediatype>audio</mediatype>
							<trackindex>12</trackindex>
							<clipindex>83</clipindex>
							<groupindex>1</groupindex>
						</link>
						<link>
							<linkclipref>clipitem-1328</linkclipref>
							<mediatype>audio</mediatype>
							<trackindex>13</trackindex>
							<clipindex>83</clipindex>
							<groupindex>1</groupindex>
						</link>
						<logginginfo>
							<description>Program 13</description>
							<scene></scene>
							<shottake></shottake>
							<lognote></lognote>
						</logginginfo>
						<labels>
							<label2>Iris</label2>
						</labels>
					</clipitem>
					<transitionitem>
						<start>56986</start>
						<end>56998</end>
						<alignment>start-black</alignment>
						<cutPointTicks>0</cutPointTicks>
						<rate>
							<timebase>25</timebase>
							<ntsc>FALSE</ntsc>
						</rate>
						<effect>
							<name>Cross Fade (+3dB)</name>
							<effectid>KGAudioTransCrossFade3dB</effectid>
							<effecttype>transition</effecttype>
							<mediatype>audio</mediatype>
							<wipecode>0</wipecode>
							<wipeaccuracy>100</wipeaccuracy>
							<startratio>0</startratio>
							<endratio>1</endratio>
							<reverse>FALSE</reverse>
						</effect>
					</transitionitem>
					<clipitem id="clipitem-1244" premiereChannelType="stereo">
						<masterclipid>masterclip-12</masterclipid>
						<name>NRK2-300616 (1).mxf</name>
						<enabled>TRUE</enabled>
						<duration>183000</duration>
						<rate>
							<timebase>25</timebase>
							<ntsc>FALSE</ntsc>
						</rate>
						<start>-1</start>
						<end>-1</end>
						<in>46356</in>
						<out>46854</out>
						<pproTicksIn>471006627840000</pproTicksIn>
						<pproTicksOut>476066626560000</pproTicksOut>
						<file id="file-12"/>
						<sourcetrack>
							<mediatype>audio</mediatype>
							<trackindex>3</trackindex>
						</sourcetrack>
							<filter>
								<effect>
									<name>Audio Levels</name>
									<effectid>audiolevels</effectid>
									<effectcategory>audiolevels</effectcategory>
									<effecttype>audiolevels</effecttype>
									<mediatype>audio</mediatype>
									<parameter authoringApp="PremierePro">
										<parameterid>level</parameterid>
										<name>Level</name>
										<valuemin>0</valuemin>
										<valuemax>3.98109</valuemax>
										<value>0.742916</value>
									</parameter>
								</effect>
							</filter>
						<link>
							<linkclipref>clipitem-1244</linkclipref>
							<mediatype>audio</mediatype>
							<trackindex>12</trackindex>
							<clipindex>85</clipindex>
							<groupindex>1</groupindex>
						</link>
						<link>
							<linkclipref>clipitem-1329</linkclipref>
							<mediatype>audio</mediatype>
							<trackindex>13</trackindex>
							<clipindex>85</clipindex>
							<groupindex>1</groupindex>
						</link>
						<logginginfo>
							<description>Program 13</description>
							<scene></scene>
							<shottake></shottake>
							<lognote></lognote>
						</logginginfo>
						<labels>
							<label2>Iris</label2>
						</labels>
					</clipitem>
					<transitionitem>
						<start>57471</start>
						<end>57484</end>
						<alignment>end-black</alignment>
						<cutPointTicks>132088320000</cutPointTicks>
						<rate>
							<timebase>25</timebase>
							<ntsc>FALSE</ntsc>
						</rate>
						<effect>
							<name>Cross Fade (+3dB)</name>
							<effectid>KGAudioTransCrossFade3dB</effectid>
							<effecttype>transition</effecttype>
							<mediatype>audio</mediatype>
							<wipecode>0</wipecode>
							<wipeaccuracy>100</wipeaccuracy>
							<startratio>0</startratio>
							<endratio>1</endratio>
							<reverse>FALSE</reverse>
						</effect>
					</transitionitem>
					<clipitem id="clipitem-1245" premiereChannelType="stereo">
						<masterclipid>masterclip-121</masterclipid>
						<name>AA282801.MXF</name>
						<enabled>TRUE</enabled>
						<duration>4944</duration>
						<rate>
							<timebase>25</timebase>
							<ntsc>FALSE</ntsc>
						</rate>
						<start>64006</start>
						<end>64140</end>
						<in>2665</in>
						<out>2799</out>
						<pproTicksIn>27078105600000</pproTicksIn>
						<pproTicksOut>28439631360000</pproTicksOut>
						<file id="file-121"/>
						<sourcetrack>
							<mediatype>audio</mediatype>
							<trackindex>1</trackindex>
						</sourcetrack>
						<link>
							<linkclipref>clipitem-183</linkclipref>
							<mediatype>video</mediatype>
							<trackindex>1</trackindex>
							<clipindex>193</clipindex>
						</link>
						<link>
							<linkclipref>clipitem-799</linkclipref>
							<mediatype>audio</mediatype>
							<trackindex>8</trackindex>
							<clipindex>99</clipindex>
							<groupindex>1</groupindex>
						</link>
						<link>
							<linkclipref>clipitem-893</linkclipref>
							<mediatype>audio</mediatype>
							<trackindex>9</trackindex>
							<clipindex>97</clipindex>
							<groupindex>1</groupindex>
						</link>
						<link>
							<linkclipref>clipitem-1245</linkclipref>
							<mediatype>audio</mediatype>
							<trackindex>12</trackindex>
							<clipindex>87</clipindex>
							<groupindex>1</groupindex>
						</link>
						<link>
							<linkclipref>clipitem-1330</linkclipref>
							<mediatype>audio</mediatype>
							<trackindex>13</trackindex>
							<clipindex>87</clipindex>
							<groupindex>1</groupindex>
						</link>
						<logginginfo>
							<description></description>
							<scene></scene>
							<shottake></shottake>
							<lognote></lognote>
						</logginginfo>
						<labels>
							<label2>Iris</label2>
						</labels>
					</clipitem>
					<clipitem id="clipitem-1246" premiereChannelType="stereo">
						<masterclipid>masterclip-125</masterclipid>
						<name>AA282501.MXF</name>
						<enabled>TRUE</enabled>
						<duration>2676</duration>
						<rate>
							<timebase>25</timebase>
							<ntsc>FALSE</ntsc>
						</rate>
						<start>64746</start>
						<end>64836</end>
						<in>246</in>
						<out>336</out>
						<pproTicksIn>2499517440000</pproTicksIn>
						<pproTicksOut>3413975040000</pproTicksOut>
						<file id="file-125"/>
						<sourcetrack>
							<mediatype>audio</mediatype>
							<trackindex>1</trackindex>
						</sourcetrack>
							<filter>
								<effect>
									<name>Audio Levels</name>
									<effectid>audiolevels</effectid>
									<effectcategory>audiolevels</effectcategory>
									<effecttype>audiolevels</effecttype>
									<mediatype>audio</mediatype>
									<parameter authoringApp="PremierePro">
										<parameterid>level</parameterid>
										<name>Level</name>
										<valuemin>0</valuemin>
										<valuemax>3.98109</valuemax>
										<value>0.192525</value>
									</parameter>
								</effect>
							</filter>
						<link>
							<linkclipref>clipitem-189</linkclipref>
							<mediatype>video</mediatype>
							<trackindex>1</trackindex>
							<clipindex>199</clipindex>
						</link>
						<link>
							<linkclipref>clipitem-805</linkclipref>
							<mediatype>audio</mediatype>
							<trackindex>8</trackindex>
							<clipindex>105</clipindex>
							<groupindex>1</groupindex>
						</link>
						<link>
							<linkclipref>clipitem-899</linkclipref>
							<mediatype>audio</mediatype>
							<trackindex>9</trackindex>
							<clipindex>103</clipindex>
							<groupindex>1</groupindex>
						</link>
						<link>
							<linkclipref>clipitem-1246</linkclipref>
							<mediatype>audio</mediatype>
							<trackindex>12</trackindex>
							<clipindex>88</clipindex>
							<groupindex>1</groupindex>
						</link>
						<link>
							<linkclipref>clipitem-1331</linkclipref>
							<mediatype>audio</mediatype>
							<trackindex>13</trackindex>
							<clipindex>88</clipindex>
							<groupindex>1</groupindex>
						</link>
						<logginginfo>
							<description></description>
							<scene></scene>
							<shottake></shottake>
							<lognote></lognote>
						</logginginfo>
						<labels>
							<label2>Iris</label2>
						</labels>
					</clipitem>
					<clipitem id="clipitem-1247" premiereChannelType="stereo">
						<masterclipid>masterclip-255</masterclipid>
						<name>AA282101.MXF</name>
						<enabled>TRUE</enabled>
						<duration>3708</duration>
						<rate>
							<timebase>25</timebase>
							<ntsc>FALSE</ntsc>
						</rate>
						<start>64836</start>
						<end>-1</end>
						<in>2079</in>
						<out>2135</out>
						<pproTicksIn>21123970560000</pproTicksIn>
						<pproTicksOut>21692966400000</pproTicksOut>
						<file id="file-255"/>
						<sourcetrack>
							<mediatype>audio</mediatype>
							<trackindex>1</trackindex>
						</sourcetrack>
							<filter>
								<effect>
									<name>Audio Levels</name>
									<effectid>audiolevels</effectid>
									<effectcategory>audiolevels</effectcategory>
									<effecttype>audiolevels</effecttype>
									<mediatype>audio</mediatype>
									<parameter authoringApp="PremierePro">
										<parameterid>level</parameterid>
										<name>Level</name>
										<valuemin>0</valuemin>
										<valuemax>3.98109</valuemax>
										<value>0.0875114</value>
									</parameter>
								</effect>
							</filter>
						<link>
							<linkclipref>clipitem-433</linkclipref>
							<mediatype>video</mediatype>
							<trackindex>2</trackindex>
							<clipindex>179</clipindex>
						</link>
						<link>
							<linkclipref>clipitem-806</linkclipref>
							<mediatype>audio</mediatype>
							<trackindex>8</trackindex>
							<clipindex>106</clipindex>
							<groupindex>1</groupindex>
						</link>
						<link>
							<linkclipref>clipitem-900</linkclipref>
							<mediatype>audio</mediatype>
							<trackindex>9</trackindex>
							<clipindex>104</clipindex>
							<groupindex>1</groupindex>
						</link>
						<link>
							<linkclipref>clipitem-1247</linkclipref>
							<mediatype>audio</mediatype>
							<trackindex>12</trackindex>
							<clipindex>89</clipindex>
							<groupindex>1</groupindex>
						</link>
						<link>
							<linkclipref>clipitem-1332</linkclipref>
							<mediatype>audio</mediatype>
							<trackindex>13</trackindex>
							<clipindex>89</clipindex>
							<groupindex>1</groupindex>
						</link>
						<logginginfo>
							<description></description>
							<scene></scene>
							<shottake></shottake>
							<lognote></lognote>
						</logginginfo>
						<labels>
							<label2>Iris</label2>
						</labels>
					</clipitem>
					<transitionitem>
						<start>64879</start>
						<end>64892</end>
						<alignment>end-black</alignment>
						<cutPointTicks>132088320000</cutPointTicks>
						<rate>
							<timebase>25</timebase>
							<ntsc>FALSE</ntsc>
						</rate>
						<effect>
							<name>Cross Fade (+3dB)</name>
							<effectid>KGAudioTransCrossFade3dB</effectid>
							<effecttype>transition</effecttype>
							<mediatype>audio</mediatype>
							<wipecode>0</wipecode>
							<wipeaccuracy>100</wipeaccuracy>
							<startratio>0</startratio>
							<endratio>1</endratio>
							<reverse>FALSE</reverse>
						</effect>
					</transitionitem>
					<clipitem id="clipitem-1248" premiereChannelType="stereo">
						<masterclipid>masterclip-126</masterclipid>
						<name>AA282201.MXF</name>
						<enabled>TRUE</enabled>
						<duration>228</duration>
						<rate>
							<timebase>25</timebase>
							<ntsc>FALSE</ntsc>
						</rate>
						<start>65071</start>
						<end>65203</end>
						<in>64</in>
						<out>196</out>
						<pproTicksIn>650280960000</pproTicksIn>
						<pproTicksOut>1991485440000</pproTicksOut>
						<file id="file-126"/>
						<sourcetrack>
							<mediatype>audio</mediatype>
							<trackindex>1</trackindex>
						</sourcetrack>
							<filter>
								<effect>
									<name>Audio Levels</name>
									<effectid>audiolevels</effectid>
									<effectcategory>audiolevels</effectcategory>
									<effecttype>audiolevels</effecttype>
									<mediatype>audio</mediatype>
									<parameter authoringApp="PremierePro">
										<parameterid>level</parameterid>
										<name>Level</name>
										<valuemin>0</valuemin>
										<valuemax>3.98109</valuemax>
										<value>0.134815</value>
									</parameter>
								</effect>
							</filter>
						<link>
							<linkclipref>clipitem-191</linkclipref>
							<mediatype>video</mediatype>
							<trackindex>1</trackindex>
							<clipindex>201</clipindex>
						</link>
						<link>
							<linkclipref>clipitem-808</linkclipref>
							<mediatype>audio</mediatype>
							<trackindex>8</trackindex>
							<clipindex>109</clipindex>
							<groupindex>1</groupindex>
						</link>
						<link>
							<linkclipref>clipitem-902</linkclipref>
							<mediatype>audio</mediatype>
							<trackindex>9</trackindex>
							<clipindex>107</clipindex>
							<groupindex>1</groupindex>
						</link>
						<link>
							<linkclipref>clipitem-1248</linkclipref>
							<mediatype>audio</mediatype>
							<trackindex>12</trackindex>
							<clipindex>91</clipindex>
							<groupindex>1</groupindex>
						</link>
						<link>
							<linkclipref>clipitem-1333</linkclipref>
							<mediatype>audio</mediatype>
							<trackindex>13</trackindex>
							<clipindex>91</clipindex>
							<groupindex>1</groupindex>
						</link>
						<logginginfo>
							<description></description>
							<scene></scene>
							<shottake></shottake>
							<lognote></lognote>
						</logginginfo>
						<labels>
							<label2>Iris</label2>
						</labels>
					</clipitem>
					<transitionitem>
						<start>89323</start>
						<end>89336</end>
						<alignment>start-black</alignment>
						<cutPointTicks>0</cutPointTicks>
						<rate>
							<timebase>25</timebase>
							<ntsc>FALSE</ntsc>
						</rate>
						<effect>
							<name>Cross Fade (+3dB)</name>
							<effectid>KGAudioTransCrossFade3dB</effectid>
							<effecttype>transition</effecttype>
							<mediatype>audio</mediatype>
							<wipecode>0</wipecode>
							<wipeaccuracy>100</wipeaccuracy>
							<startratio>0</startratio>
							<endratio>1</endratio>
							<reverse>FALSE</reverse>
						</effect>
					</transitionitem>
					<clipitem id="clipitem-1249" premiereChannelType="stereo">
						<masterclipid>masterclip-147</masterclipid>
						<name>Nordvisjon3MASTER i-lyd.mxf</name>
						<enabled>TRUE</enabled>
						<duration>1551</duration>
						<rate>
							<timebase>25</timebase>
							<ntsc>FALSE</ntsc>
						</rate>
						<start>-1</start>
						<end>-1</end>
						<in>25</in>
						<out>1521</out>
						<pproTicksIn>254016000000</pproTicksIn>
						<pproTicksOut>15454333440000</pproTicksOut>
						<file id="file-147"/>
						<sourcetrack>
							<mediatype>audio</mediatype>
							<trackindex>1</trackindex>
						</sourcetrack>
						<link>
							<linkclipref>clipitem-1249</linkclipref>
							<mediatype>audio</mediatype>
							<trackindex>12</trackindex>
							<clipindex>93</clipindex>
							<groupindex>1</groupindex>
						</link>
						<link>
							<linkclipref>clipitem-1334</linkclipref>
							<mediatype>audio</mediatype>
							<trackindex>13</trackindex>
							<clipindex>93</clipindex>
							<groupindex>1</groupindex>
						</link>
						<logginginfo>
							<description></description>
							<scene></scene>
							<shottake></shottake>
							<lognote></lognote>
						</logginginfo>
						<labels>
							<label2>Iris</label2>
						</labels>
					</clipitem>
					<transitionitem>
						<start>90807</start>
						<end>90819</end>
						<alignment>center</alignment>
						<cutPointTicks>60963840000</cutPointTicks>
						<rate>
							<timebase>25</timebase>
							<ntsc>FALSE</ntsc>
						</rate>
						<effect>
							<name>Cross Fade (+3dB)</name>
							<effectid>KGAudioTransCrossFade3dB</effectid>
							<effecttype>transition</effecttype>
							<mediatype>audio</mediatype>
							<wipecode>0</wipecode>
							<wipeaccuracy>100</wipeaccuracy>
							<startratio>0</startratio>
							<endratio>1</endratio>
							<reverse>FALSE</reverse>
						</effect>
					</transitionitem>
					<clipitem id="clipitem-1250" premiereChannelType="stereo">
						<masterclipid>masterclip-148</masterclipid>
						<name>Nordvisjon3MASTER i-lyd.mxf</name>
						<enabled>TRUE</enabled>
						<duration>1375</duration>
						<rate>
							<timebase>25</timebase>
							<ntsc>FALSE</ntsc>
						</rate>
						<start>-1</start>
						<end>-1</end>
						<in>20</in>
						<out>1002</out>
						<pproTicksIn>203212800000</pproTicksIn>
						<pproTicksOut>10180961280000</pproTicksOut>
						<file id="file-148"/>
						<sourcetrack>
							<mediatype>audio</mediatype>
							<trackindex>1</trackindex>
						</sourcetrack>
						<link>
							<linkclipref>clipitem-1250</linkclipref>
							<mediatype>audio</mediatype>
							<trackindex>12</trackindex>
							<clipindex>95</clipindex>
							<groupindex>1</groupindex>
						</link>
						<link>
							<linkclipref>clipitem-1335</linkclipref>
							<mediatype>audio</mediatype>
							<trackindex>13</trackindex>
							<clipindex>95</clipindex>
							<groupindex>1</groupindex>
						</link>
						<logginginfo>
							<description></description>
							<scene></scene>
							<shottake></shottake>
							<lognote></lognote>
						</logginginfo>
						<labels>
							<label2>Iris</label2>
						</labels>
					</clipitem>
					<transitionitem>
						<start>91776</start>
						<end>91789</end>
						<alignment>center</alignment>
						<cutPointTicks>60963840000</cutPointTicks>
						<rate>
							<timebase>25</timebase>
							<ntsc>FALSE</ntsc>
						</rate>
						<effect>
							<name>Cross Fade (+3dB)</name>
							<effectid>KGAudioTransCrossFade3dB</effectid>
							<effecttype>transition</effecttype>
							<mediatype>audio</mediatype>
							<wipecode>0</wipecode>
							<wipeaccuracy>100</wipeaccuracy>
							<startratio>0</startratio>
							<endratio>1</endratio>
							<reverse>FALSE</reverse>
						</effect>
					</transitionitem>
					<clipitem id="clipitem-1251" premiereChannelType="stereo">
						<masterclipid>masterclip-148</masterclipid>
						<name>Nordvisjon3MASTER i-lyd.mxf</name>
						<enabled>TRUE</enabled>
						<duration>1375</duration>
						<rate>
							<timebase>25</timebase>
							<ntsc>FALSE</ntsc>
						</rate>
						<start>-1</start>
						<end>-1</end>
						<in>1164</in>
						<out>1346</out>
						<pproTicksIn>11826984960000</pproTicksIn>
						<pproTicksOut>13676221440000</pproTicksOut>
						<file id="file-148"/>
						<sourcetrack>
							<mediatype>audio</mediatype>
							<trackindex>1</trackindex>
						</sourcetrack>
						<link>
							<linkclipref>clipitem-1251</linkclipref>
							<mediatype>audio</mediatype>
							<trackindex>12</trackindex>
							<clipindex>97</clipindex>
							<groupindex>1</groupindex>
						</link>
						<link>
							<linkclipref>clipitem-1336</linkclipref>
							<mediatype>audio</mediatype>
							<trackindex>13</trackindex>
							<clipindex>97</clipindex>
							<groupindex>1</groupindex>
						</link>
						<logginginfo>
							<description></description>
							<scene></scene>
							<shottake></shottake>
							<lognote></lognote>
						</logginginfo>
						<labels>
							<label2>Iris</label2>
						</labels>
					</clipitem>
					<transitionitem>
						<start>91945</start>
						<end>91958</end>
						<alignment>center</alignment>
						<cutPointTicks>60963840000</cutPointTicks>
						<rate>
							<timebase>25</timebase>
							<ntsc>FALSE</ntsc>
						</rate>
						<effect>
							<name>Cross Fade (+3dB)</name>
							<effectid>KGAudioTransCrossFade3dB</effectid>
							<effecttype>transition</effecttype>
							<mediatype>audio</mediatype>
							<wipecode>0</wipecode>
							<wipeaccuracy>100</wipeaccuracy>
							<startratio>0</startratio>
							<endratio>1</endratio>
							<reverse>FALSE</reverse>
						</effect>
					</transitionitem>
					<clipitem id="clipitem-1252" premiereChannelType="stereo">
						<masterclipid>masterclip-148</masterclipid>
						<name>Nordvisjon3MASTER i-lyd.mxf</name>
						<enabled>TRUE</enabled>
						<duration>1375</duration>
						<rate>
							<timebase>25</timebase>
							<ntsc>FALSE</ntsc>
						</rate>
						<start>-1</start>
						<end>-1</end>
						<in>1027</in>
						<out>1176</out>
						<pproTicksIn>10434977280000</pproTicksIn>
						<pproTicksOut>11948912640000</pproTicksOut>
						<file id="file-148"/>
						<sourcetrack>
							<mediatype>audio</mediatype>
							<trackindex>1</trackindex>
						</sourcetrack>
						<link>
							<linkclipref>clipitem-1252</linkclipref>
							<mediatype>audio</mediatype>
							<trackindex>12</trackindex>
							<clipindex>99</clipindex>
							<groupindex>1</groupindex>
						</link>
						<link>
							<linkclipref>clipitem-1337</linkclipref>
							<mediatype>audio</mediatype>
							<trackindex>13</trackindex>
							<clipindex>99</clipindex>
							<groupindex>1</groupindex>
						</link>
						<logginginfo>
							<description></description>
							<scene></scene>
							<shottake></shottake>
							<lognote></lognote>
						</logginginfo>
						<labels>
							<label2>Iris</label2>
						</labels>
					</clipitem>
					<transitionitem>
						<start>92082</start>
						<end>92094</end>
						<alignment>center</alignment>
						<cutPointTicks>60963840000</cutPointTicks>
						<rate>
							<timebase>25</timebase>
							<ntsc>FALSE</ntsc>
						</rate>
						<effect>
							<name>Cross Fade (+3dB)</name>
							<effectid>KGAudioTransCrossFade3dB</effectid>
							<effecttype>transition</effecttype>
							<mediatype>audio</mediatype>
							<wipecode>0</wipecode>
							<wipeaccuracy>100</wipeaccuracy>
							<startratio>0</startratio>
							<endratio>1</endratio>
							<reverse>FALSE</reverse>
						</effect>
					</transitionitem>
					<clipitem id="clipitem-1253" premiereChannelType="stereo">
						<masterclipid>masterclip-316</masterclipid>
						<name>Nordvisjon-MASTER-vr3-201016-ny-kontentum.wav</name>
						<enabled>TRUE</enabled>
						<duration>43013</duration>
						<rate>
							<timebase>25</timebase>
							<ntsc>FALSE</ntsc>
						</rate>
						<start>-1</start>
						<end>-1</end>
						<in>37927</in>
						<out>38611</out>
						<pproTicksIn>385362593280000</pproTicksIn>
						<pproTicksOut>392312471040000</pproTicksOut>
						<file id="file-316"/>
						<sourcetrack>
							<mediatype>audio</mediatype>
							<trackindex>1</trackindex>
						</sourcetrack>
							<marker>
								<comment></comment>
								<name></name>
								<in>40399</in>
								<out>-1</out>
							</marker>
							<marker>
								<comment></comment>
								<name></name>
								<in>3092</in>
								<out>-1</out>
							</marker>
							<marker>
								<comment></comment>
								<name></name>
								<in>36054</in>
								<out>-1</out>
							</marker>
							<marker>
								<comment></comment>
								<name></name>
								<in>0</in>
								<out>-1</out>
							</marker>
						<link>
							<linkclipref>clipitem-1253</linkclipref>
							<mediatype>audio</mediatype>
							<trackindex>12</trackindex>
							<clipindex>101</clipindex>
							<groupindex>1</groupindex>
						</link>
						<link>
							<linkclipref>clipitem-1338</linkclipref>
							<mediatype>audio</mediatype>
							<trackindex>13</trackindex>
							<clipindex>101</clipindex>
							<groupindex>1</groupindex>
						</link>
						<logginginfo>
							<description></description>
							<scene></scene>
							<shottake></shottake>
							<lognote></lognote>
						</logginginfo>
						<labels>
							<label2>Iris</label2>
						</labels>
					</clipitem>
					<transitionitem>
						<start>92754</start>
						<end>92766</end>
						<alignment>center</alignment>
						<cutPointTicks>60963840000</cutPointTicks>
						<rate>
							<timebase>25</timebase>
							<ntsc>FALSE</ntsc>
						</rate>
						<effect>
							<name>Cross Fade (+3dB)</name>
							<effectid>KGAudioTransCrossFade3dB</effectid>
							<effecttype>transition</effecttype>
							<mediatype>audio</mediatype>
							<wipecode>0</wipecode>
							<wipeaccuracy>100</wipeaccuracy>
							<startratio>0</startratio>
							<endratio>1</endratio>
							<reverse>FALSE</reverse>
						</effect>
					</transitionitem>
					<clipitem id="clipitem-1254" premiereChannelType="stereo">
						<masterclipid>masterclip-316</masterclipid>
						<name>Nordvisjon-MASTER-vr3-201016-ny-kontentum.wav</name>
						<enabled>TRUE</enabled>
						<duration>43013</duration>
						<rate>
							<timebase>25</timebase>
							<ntsc>FALSE</ntsc>
						</rate>
						<start>-1</start>
						<end>-1</end>
						<in>39623</in>
						<out>39985</out>
						<pproTicksIn>402595038720000</pproTicksIn>
						<pproTicksOut>406273190400000</pproTicksOut>
						<file id="file-316"/>
						<sourcetrack>
							<mediatype>audio</mediatype>
							<trackindex>1</trackindex>
						</sourcetrack>
							<marker>
								<comment></comment>
								<name></name>
								<in>40399</in>
								<out>-1</out>
							</marker>
							<marker>
								<comment></comment>
								<name></name>
								<in>3092</in>
								<out>-1</out>
							</marker>
							<marker>
								<comment></comment>
								<name></name>
								<in>36054</in>
								<out>-1</out>
							</marker>
							<marker>
								<comment></comment>
								<name></name>
								<in>0</in>
								<out>-1</out>
							</marker>
						<link>
							<linkclipref>clipitem-1254</linkclipref>
							<mediatype>audio</mediatype>
							<trackindex>12</trackindex>
							<clipindex>103</clipindex>
							<groupindex>1</groupindex>
						</link>
						<link>
							<linkclipref>clipitem-1339</linkclipref>
							<mediatype>audio</mediatype>
							<trackindex>13</trackindex>
							<clipindex>103</clipindex>
							<groupindex>1</groupindex>
						</link>
						<logginginfo>
							<description></description>
							<scene></scene>
							<shottake></shottake>
							<lognote></lognote>
						</logginginfo>
						<labels>
							<label2>Iris</label2>
						</labels>
					</clipitem>
					<transitionitem>
						<start>93103</start>
						<end>93116</end>
						<alignment>center</alignment>
						<cutPointTicks>60963840000</cutPointTicks>
						<rate>
							<timebase>25</timebase>
							<ntsc>FALSE</ntsc>
						</rate>
						<effect>
							<name>Cross Fade (+3dB)</name>
							<effectid>KGAudioTransCrossFade3dB</effectid>
							<effecttype>transition</effecttype>
							<mediatype>audio</mediatype>
							<wipecode>0</wipecode>
							<wipeaccuracy>100</wipeaccuracy>
							<startratio>0</startratio>
							<endratio>1</endratio>
							<reverse>FALSE</reverse>
						</effect>
					</transitionitem>
					<clipitem id="clipitem-1255" premiereChannelType="stereo">
						<masterclipid>masterclip-329</masterclipid>
						<name>Nordvisjon-MASTER-vr3-201016-ny-kommentar.wav</name>
						<enabled>TRUE</enabled>
						<duration>42953</duration>
						<rate>
							<timebase>25</timebase>
							<ntsc>FALSE</ntsc>
						</rate>
						<start>-1</start>
						<end>-1</end>
						<in>40393</in>
						<out>40471</out>
						<pproTicksIn>410418731520000</pproTicksIn>
						<pproTicksOut>411211261440000</pproTicksOut>
						<file id="file-329">
							<name>Nordvisjon-MASTER-vr3-201016-ny-kommentar.wav</name>
							<pathurl>file://localhost/Volumes/Vaagen/Utveksling/Natur/Naturlig%20helaften%20fra%20Oslo/Transcoded_Nedklipp%20helaften/Nordvisjon-MASTER-vr3-201016-ny-kommentar.wav</pathurl>
							<rate>
								<timebase>30</timebase>
								<ntsc>TRUE</ntsc>
							</rate>
							<duration>51492</duration>
							<timecode>
								<rate>
									<timebase>30</timebase>
									<ntsc>TRUE</ntsc>
								</rate>
								<string>00;00;00;00</string>
								<frame>0</frame>
								<displayformat>DF</displayformat>
								<reel>
									<name></name>
								</reel>
							</timecode>
							<media>
								<audio>
									<samplecharacteristics>
										<depth>16</depth>
										<samplerate>48000</samplerate>
									</samplecharacteristics>
									<channelcount>2</channelcount>
								</audio>
							</media>
						</file>
						<sourcetrack>
							<mediatype>audio</mediatype>
							<trackindex>1</trackindex>
						</sourcetrack>
							<marker>
								<comment></comment>
								<name></name>
								<in>40399</in>
								<out>-1</out>
							</marker>
							<marker>
								<comment></comment>
								<name></name>
								<in>3092</in>
								<out>-1</out>
							</marker>
							<marker>
								<comment></comment>
								<name></name>
								<in>36054</in>
								<out>-1</out>
							</marker>
							<marker>
								<comment></comment>
								<name></name>
								<in>0</in>
								<out>-1</out>
							</marker>
						<link>
							<linkclipref>clipitem-1255</linkclipref>
							<mediatype>audio</mediatype>
							<trackindex>12</trackindex>
							<clipindex>105</clipindex>
							<groupindex>1</groupindex>
						</link>
						<link>
							<linkclipref>clipitem-1340</linkclipref>
							<mediatype>audio</mediatype>
							<trackindex>13</trackindex>
							<clipindex>105</clipindex>
							<groupindex>1</groupindex>
						</link>
						<logginginfo>
							<description></description>
							<scene></scene>
							<shottake></shottake>
							<lognote></lognote>
						</logginginfo>
						<labels>
							<label2>Iris</label2>
						</labels>
					</clipitem>
					<transitionitem>
						<start>93168</start>
						<end>93181</end>
						<alignment>center</alignment>
						<cutPointTicks>60963840000</cutPointTicks>
						<rate>
							<timebase>25</timebase>
							<ntsc>FALSE</ntsc>
						</rate>
						<effect>
							<name>Cross Fade (+3dB)</name>
							<effectid>KGAudioTransCrossFade3dB</effectid>
							<effecttype>transition</effecttype>
							<mediatype>audio</mediatype>
							<wipecode>0</wipecode>
							<wipeaccuracy>100</wipeaccuracy>
							<startratio>0</startratio>
							<endratio>1</endratio>
							<reverse>FALSE</reverse>
						</effect>
					</transitionitem>
					<clipitem id="clipitem-1256" premiereChannelType="stereo">
						<masterclipid>masterclip-329</masterclipid>
						<name>Nordvisjon-MASTER-vr3-201016-ny-kommentar.wav</name>
						<enabled>TRUE</enabled>
						<duration>42953</duration>
						<rate>
							<timebase>25</timebase>
							<ntsc>FALSE</ntsc>
						</rate>
						<start>-1</start>
						<end>-1</end>
						<in>40051</in>
						<out>40136</out>
						<pproTicksIn>406943792640000</pproTicksIn>
						<pproTicksOut>407807447040000</pproTicksOut>
						<file id="file-329"/>
						<sourcetrack>
							<mediatype>audio</mediatype>
							<trackindex>1</trackindex>
						</sourcetrack>
							<marker>
								<comment></comment>
								<name></name>
								<in>40399</in>
								<out>-1</out>
							</marker>
							<marker>
								<comment></comment>
								<name></name>
								<in>3092</in>
								<out>-1</out>
							</marker>
							<marker>
								<comment></comment>
								<name></name>
								<in>36054</in>
								<out>-1</out>
							</marker>
							<marker>
								<comment></comment>
								<name></name>
								<in>0</in>
								<out>-1</out>
							</marker>
						<link>
							<linkclipref>clipitem-1256</linkclipref>
							<mediatype>audio</mediatype>
							<trackindex>12</trackindex>
							<clipindex>107</clipindex>
							<groupindex>1</groupindex>
						</link>
						<link>
							<linkclipref>clipitem-1341</linkclipref>
							<mediatype>audio</mediatype>
							<trackindex>13</trackindex>
							<clipindex>107</clipindex>
							<groupindex>1</groupindex>
						</link>
						<logginginfo>
							<description></description>
							<scene></scene>
							<shottake></shottake>
							<lognote></lognote>
						</logginginfo>
						<labels>
							<label2>Iris</label2>
						</labels>
					</clipitem>
					<transitionitem>
						<start>93240</start>
						<end>93253</end>
						<alignment>end-black</alignment>
						<cutPointTicks>132088320000</cutPointTicks>
						<rate>
							<timebase>25</timebase>
							<ntsc>FALSE</ntsc>
						</rate>
						<effect>
							<name>Cross Fade (+3dB)</name>
							<effectid>KGAudioTransCrossFade3dB</effectid>
							<effecttype>transition</effecttype>
							<mediatype>audio</mediatype>
							<wipecode>0</wipecode>
							<wipeaccuracy>100</wipeaccuracy>
							<startratio>0</startratio>
							<endratio>1</endratio>
							<reverse>FALSE</reverse>
						</effect>
					</transitionitem>
					<transitionitem>
						<start>94523</start>
						<end>94536</end>
						<alignment>start-black</alignment>
						<cutPointTicks>0</cutPointTicks>
						<rate>
							<timebase>25</timebase>
							<ntsc>FALSE</ntsc>
						</rate>
						<effect>
							<name>Cross Fade (+3dB)</name>
							<effectid>KGAudioTransCrossFade3dB</effectid>
							<effecttype>transition</effecttype>
							<mediatype>audio</mediatype>
							<wipecode>0</wipecode>
							<wipeaccuracy>100</wipeaccuracy>
							<startratio>0</startratio>
							<endratio>1</endratio>
							<reverse>FALSE</reverse>
						</effect>
					</transitionitem>
					<clipitem id="clipitem-1257" premiereChannelType="stereo">
						<masterclipid>masterclip-154</masterclipid>
						<name>Nordvisjon3MASTER i-lyd.mxf</name>
						<enabled>TRUE</enabled>
						<duration>789</duration>
						<rate>
							<timebase>25</timebase>
							<ntsc>FALSE</ntsc>
						</rate>
						<start>-1</start>
						<end>-1</end>
						<in>25</in>
						<out>759</out>
						<pproTicksIn>254016000000</pproTicksIn>
						<pproTicksOut>7711925760000</pproTicksOut>
						<file id="file-154"/>
						<sourcetrack>
							<mediatype>audio</mediatype>
							<trackindex>1</trackindex>
						</sourcetrack>
						<link>
							<linkclipref>clipitem-1257</linkclipref>
							<mediatype>audio</mediatype>
							<trackindex>12</trackindex>
							<clipindex>110</clipindex>
							<groupindex>1</groupindex>
						</link>
						<link>
							<linkclipref>clipitem-1342</linkclipref>
							<mediatype>audio</mediatype>
							<trackindex>13</trackindex>
							<clipindex>110</clipindex>
							<groupindex>1</groupindex>
						</link>
						<logginginfo>
							<description></description>
							<scene></scene>
							<shottake></shottake>
							<lognote></lognote>
						</logginginfo>
						<labels>
							<label2>Iris</label2>
						</labels>
					</clipitem>
					<transitionitem>
						<start>95245</start>
						<end>95257</end>
						<alignment>center</alignment>
						<cutPointTicks>60963840000</cutPointTicks>
						<rate>
							<timebase>25</timebase>
							<ntsc>FALSE</ntsc>
						</rate>
						<effect>
							<name>Cross Fade (+3dB)</name>
							<effectid>KGAudioTransCrossFade3dB</effectid>
							<effecttype>transition</effecttype>
							<mediatype>audio</mediatype>
							<wipecode>0</wipecode>
							<wipeaccuracy>100</wipeaccuracy>
							<startratio>0</startratio>
							<endratio>1</endratio>
							<reverse>FALSE</reverse>
						</effect>
					</transitionitem>
					<clipitem id="clipitem-1258" premiereChannelType="stereo">
						<masterclipid>masterclip-155</masterclipid>
						<name>Nordvisjon3MASTER i-lyd.mxf</name>
						<enabled>TRUE</enabled>
						<duration>778</duration>
						<rate>
							<timebase>25</timebase>
							<ntsc>FALSE</ntsc>
						</rate>
						<start>-1</start>
						<end>-1</end>
						<in>25</in>
						<out>748</out>
						<pproTicksIn>254016000000</pproTicksIn>
						<pproTicksOut>7600158720000</pproTicksOut>
						<file id="file-155"/>
						<sourcetrack>
							<mediatype>audio</mediatype>
							<trackindex>1</trackindex>
						</sourcetrack>
						<link>
							<linkclipref>clipitem-1258</linkclipref>
							<mediatype>audio</mediatype>
							<trackindex>12</trackindex>
							<clipindex>112</clipindex>
							<groupindex>1</groupindex>
						</link>
						<link>
							<linkclipref>clipitem-1343</linkclipref>
							<mediatype>audio</mediatype>
							<trackindex>13</trackindex>
							<clipindex>112</clipindex>
							<groupindex>1</groupindex>
						</link>
						<logginginfo>
							<description></description>
							<scene></scene>
							<shottake></shottake>
							<lognote></lognote>
						</logginginfo>
						<labels>
							<label2>Iris</label2>
						</labels>
					</clipitem>
					<transitionitem>
						<start>95956</start>
						<end>95968</end>
						<alignment>center</alignment>
						<cutPointTicks>60963840000</cutPointTicks>
						<rate>
							<timebase>25</timebase>
							<ntsc>FALSE</ntsc>
						</rate>
						<effect>
							<name>Cross Fade (+3dB)</name>
							<effectid>KGAudioTransCrossFade3dB</effectid>
							<effecttype>transition</effecttype>
							<mediatype>audio</mediatype>
							<wipecode>0</wipecode>
							<wipeaccuracy>100</wipeaccuracy>
							<startratio>0</startratio>
							<endratio>1</endratio>
							<reverse>FALSE</reverse>
						</effect>
					</transitionitem>
					<clipitem id="clipitem-1259" premiereChannelType="stereo">
						<masterclipid>masterclip-316</masterclipid>
						<name>Nordvisjon-MASTER-vr3-201016-ny-kontentum.wav</name>
						<enabled>TRUE</enabled>
						<duration>43013</duration>
						<rate>
							<timebase>25</timebase>
							<ntsc>FALSE</ntsc>
						</rate>
						<start>-1</start>
						<end>-1</end>
						<in>23855</in>
						<out>24611</out>
						<pproTicksIn>242382067200000</pproTicksIn>
						<pproTicksOut>250063511040000</pproTicksOut>
						<file id="file-316"/>
						<sourcetrack>
							<mediatype>audio</mediatype>
							<trackindex>1</trackindex>
						</sourcetrack>
							<marker>
								<comment></comment>
								<name></name>
								<in>40399</in>
								<out>-1</out>
							</marker>
							<marker>
								<comment></comment>
								<name></name>
								<in>3092</in>
								<out>-1</out>
							</marker>
							<marker>
								<comment></comment>
								<name></name>
								<in>36054</in>
								<out>-1</out>
							</marker>
							<marker>
								<comment></comment>
								<name></name>
								<in>0</in>
								<out>-1</out>
							</marker>
						<link>
							<linkclipref>clipitem-1259</linkclipref>
							<mediatype>audio</mediatype>
							<trackindex>12</trackindex>
							<clipindex>114</clipindex>
							<groupindex>1</groupindex>
						</link>
						<link>
							<linkclipref>clipitem-1344</linkclipref>
							<mediatype>audio</mediatype>
							<trackindex>13</trackindex>
							<clipindex>114</clipindex>
							<groupindex>1</groupindex>
						</link>
						<logginginfo>
							<description></description>
							<scene></scene>
							<shottake></shottake>
							<lognote></lognote>
						</logginginfo>
						<labels>
							<label2>Iris</label2>
						</labels>
					</clipitem>
					<transitionitem>
						<start>96700</start>
						<end>96712</end>
						<alignment>center</alignment>
						<cutPointTicks>60963840000</cutPointTicks>
						<rate>
							<timebase>25</timebase>
							<ntsc>FALSE</ntsc>
						</rate>
						<effect>
							<name>Cross Fade (+3dB)</name>
							<effectid>KGAudioTransCrossFade3dB</effectid>
							<effecttype>transition</effecttype>
							<mediatype>audio</mediatype>
							<wipecode>0</wipecode>
							<wipeaccuracy>100</wipeaccuracy>
							<startratio>0</startratio>
							<endratio>1</endratio>
							<reverse>FALSE</reverse>
						</effect>
					</transitionitem>
					<clipitem id="clipitem-1260" premiereChannelType="stereo">
						<masterclipid>masterclip-157</masterclipid>
						<name>Nordvisjon3MASTER i-lyd.mxf</name>
						<enabled>TRUE</enabled>
						<duration>491</duration>
						<rate>
							<timebase>25</timebase>
							<ntsc>FALSE</ntsc>
						</rate>
						<start>-1</start>
						<end>-1</end>
						<in>25</in>
						<out>461</out>
						<pproTicksIn>254016000000</pproTicksIn>
						<pproTicksOut>4684055040000</pproTicksOut>
						<file id="file-157"/>
						<sourcetrack>
							<mediatype>audio</mediatype>
							<trackindex>1</trackindex>
						</sourcetrack>
						<link>
							<linkclipref>clipitem-1260</linkclipref>
							<mediatype>audio</mediatype>
							<trackindex>12</trackindex>
							<clipindex>116</clipindex>
							<groupindex>1</groupindex>
						</link>
						<link>
							<linkclipref>clipitem-1345</linkclipref>
							<mediatype>audio</mediatype>
							<trackindex>13</trackindex>
							<clipindex>116</clipindex>
							<groupindex>1</groupindex>
						</link>
						<logginginfo>
							<description></description>
							<scene></scene>
							<shottake></shottake>
							<lognote></lognote>
						</logginginfo>
						<labels>
							<label2>Iris</label2>
						</labels>
					</clipitem>
					<transitionitem>
						<start>97124</start>
						<end>97136</end>
						<alignment>center</alignment>
						<cutPointTicks>60963840000</cutPointTicks>
						<rate>
							<timebase>25</timebase>
							<ntsc>FALSE</ntsc>
						</rate>
						<effect>
							<name>Cross Fade (+3dB)</name>
							<effectid>KGAudioTransCrossFade3dB</effectid>
							<effecttype>transition</effecttype>
							<mediatype>audio</mediatype>
							<wipecode>0</wipecode>
							<wipeaccuracy>100</wipeaccuracy>
							<startratio>0</startratio>
							<endratio>1</endratio>
							<reverse>FALSE</reverse>
						</effect>
					</transitionitem>
					<clipitem id="clipitem-1261" premiereChannelType="stereo">
						<masterclipid>masterclip-158</masterclipid>
						<name>Nordvisjon3MASTER i-lyd.mxf</name>
						<enabled>TRUE</enabled>
						<duration>458</duration>
						<rate>
							<timebase>25</timebase>
							<ntsc>FALSE</ntsc>
						</rate>
						<start>-1</start>
						<end>-1</end>
						<in>25</in>
						<out>428</out>
						<pproTicksIn>254016000000</pproTicksIn>
						<pproTicksOut>4348753920000</pproTicksOut>
						<file id="file-158"/>
						<sourcetrack>
							<mediatype>audio</mediatype>
							<trackindex>1</trackindex>
						</sourcetrack>
						<link>
							<linkclipref>clipitem-1261</linkclipref>
							<mediatype>audio</mediatype>
							<trackindex>12</trackindex>
							<clipindex>118</clipindex>
							<groupindex>1</groupindex>
						</link>
						<link>
							<linkclipref>clipitem-1346</linkclipref>
							<mediatype>audio</mediatype>
							<trackindex>13</trackindex>
							<clipindex>118</clipindex>
							<groupindex>1</groupindex>
						</link>
						<logginginfo>
							<description></description>
							<scene></scene>
							<shottake></shottake>
							<lognote></lognote>
						</logginginfo>
						<labels>
							<label2>Iris</label2>
						</labels>
					</clipitem>
					<transitionitem>
						<start>97515</start>
						<end>97527</end>
						<alignment>center</alignment>
						<cutPointTicks>60963840000</cutPointTicks>
						<rate>
							<timebase>25</timebase>
							<ntsc>FALSE</ntsc>
						</rate>
						<effect>
							<name>Cross Fade (+3dB)</name>
							<effectid>KGAudioTransCrossFade3dB</effectid>
							<effecttype>transition</effecttype>
							<mediatype>audio</mediatype>
							<wipecode>0</wipecode>
							<wipeaccuracy>100</wipeaccuracy>
							<startratio>0</startratio>
							<endratio>1</endratio>
							<reverse>FALSE</reverse>
						</effect>
					</transitionitem>
					<clipitem id="clipitem-1262" premiereChannelType="stereo">
						<masterclipid>masterclip-159</masterclipid>
						<name>Nordvisjon3MASTER i-lyd.mxf</name>
						<enabled>TRUE</enabled>
						<duration>348</duration>
						<rate>
							<timebase>25</timebase>
							<ntsc>FALSE</ntsc>
						</rate>
						<start>-1</start>
						<end>-1</end>
						<in>25</in>
						<out>318</out>
						<pproTicksIn>254016000000</pproTicksIn>
						<pproTicksOut>3231083520000</pproTicksOut>
						<file id="file-159"/>
						<sourcetrack>
							<mediatype>audio</mediatype>
							<trackindex>1</trackindex>
						</sourcetrack>
						<link>
							<linkclipref>clipitem-1262</linkclipref>
							<mediatype>audio</mediatype>
							<trackindex>12</trackindex>
							<clipindex>120</clipindex>
							<groupindex>1</groupindex>
						</link>
						<link>
							<linkclipref>clipitem-1347</linkclipref>
							<mediatype>audio</mediatype>
							<trackindex>13</trackindex>
							<clipindex>120</clipindex>
							<groupindex>1</groupindex>
						</link>
						<logginginfo>
							<description></description>
							<scene></scene>
							<shottake></shottake>
							<lognote></lognote>
						</logginginfo>
						<labels>
							<label2>Iris</label2>
						</labels>
					</clipitem>
					<transitionitem>
						<start>97796</start>
						<end>97808</end>
						<alignment>center</alignment>
						<cutPointTicks>60963840000</cutPointTicks>
						<rate>
							<timebase>25</timebase>
							<ntsc>FALSE</ntsc>
						</rate>
						<effect>
							<name>Cross Fade (+3dB)</name>
							<effectid>KGAudioTransCrossFade3dB</effectid>
							<effecttype>transition</effecttype>
							<mediatype>audio</mediatype>
							<wipecode>0</wipecode>
							<wipeaccuracy>100</wipeaccuracy>
							<startratio>0</startratio>
							<endratio>1</endratio>
							<reverse>FALSE</reverse>
						</effect>
					</transitionitem>
					<clipitem id="clipitem-1263" premiereChannelType="stereo">
						<masterclipid>masterclip-160</masterclipid>
						<name>Nordvisjon3MASTER i-lyd.mxf</name>
						<enabled>TRUE</enabled>
						<duration>480</duration>
						<rate>
							<timebase>25</timebase>
							<ntsc>FALSE</ntsc>
						</rate>
						<start>-1</start>
						<end>-1</end>
						<in>25</in>
						<out>450</out>
						<pproTicksIn>254016000000</pproTicksIn>
						<pproTicksOut>4572288000000</pproTicksOut>
						<file id="file-160"/>
						<sourcetrack>
							<mediatype>audio</mediatype>
							<trackindex>1</trackindex>
						</sourcetrack>
						<link>
							<linkclipref>clipitem-1263</linkclipref>
							<mediatype>audio</mediatype>
							<trackindex>12</trackindex>
							<clipindex>122</clipindex>
							<groupindex>1</groupindex>
						</link>
						<link>
							<linkclipref>clipitem-1348</linkclipref>
							<mediatype>audio</mediatype>
							<trackindex>13</trackindex>
							<clipindex>122</clipindex>
							<groupindex>1</groupindex>
						</link>
						<logginginfo>
							<description></description>
							<scene></scene>
							<shottake></shottake>
							<lognote></lognote>
						</logginginfo>
						<labels>
							<label2>Iris</label2>
						</labels>
					</clipitem>
					<transitionitem>
						<start>98209</start>
						<end>98221</end>
						<alignment>center</alignment>
						<cutPointTicks>60963840000</cutPointTicks>
						<rate>
							<timebase>25</timebase>
							<ntsc>FALSE</ntsc>
						</rate>
						<effect>
							<name>Cross Fade (+3dB)</name>
							<effectid>KGAudioTransCrossFade3dB</effectid>
							<effecttype>transition</effecttype>
							<mediatype>audio</mediatype>
							<wipecode>0</wipecode>
							<wipeaccuracy>100</wipeaccuracy>
							<startratio>0</startratio>
							<endratio>1</endratio>
							<reverse>FALSE</reverse>
						</effect>
					</transitionitem>
					<clipitem id="clipitem-1264" premiereChannelType="stereo">
						<masterclipid>masterclip-161</masterclipid>
						<name>Nordvisjon3MASTER i-lyd.mxf</name>
						<enabled>TRUE</enabled>
						<duration>449</duration>
						<rate>
							<timebase>25</timebase>
							<ntsc>FALSE</ntsc>
						</rate>
						<start>-1</start>
						<end>-1</end>
						<in>25</in>
						<out>419</out>
						<pproTicksIn>254016000000</pproTicksIn>
						<pproTicksOut>4257308160000</pproTicksOut>
						<file id="file-161"/>
						<sourcetrack>
							<mediatype>audio</mediatype>
							<trackindex>1</trackindex>
						</sourcetrack>
							<filter>
								<effect>
									<name>Audio Levels</name>
									<effectid>audiolevels</effectid>
									<effectcategory>audiolevels</effectcategory>
									<effecttype>audiolevels</effecttype>
									<mediatype>audio</mediatype>
									<parameter authoringApp="PremierePro">
										<parameterid>level</parameterid>
										<name>Level</name>
										<valuemin>0</valuemin>
										<valuemax>3.98109</valuemax>
										<value>0.406442</value>
										<keyframe>
											<when>150</when>
											<value>0.99763</value>
										</keyframe>
										<keyframe>
											<when>172</when>
											<value>0.406442</value>
										</keyframe>
									</parameter>
								</effect>
							</filter>
						<link>
							<linkclipref>clipitem-1264</linkclipref>
							<mediatype>audio</mediatype>
							<trackindex>12</trackindex>
							<clipindex>124</clipindex>
							<groupindex>1</groupindex>
						</link>
						<link>
							<linkclipref>clipitem-1349</linkclipref>
							<mediatype>audio</mediatype>
							<trackindex>13</trackindex>
							<clipindex>124</clipindex>
							<groupindex>1</groupindex>
						</link>
						<logginginfo>
							<description></description>
							<scene></scene>
							<shottake></shottake>
							<lognote></lognote>
						</logginginfo>
						<labels>
							<label2>Iris</label2>
						</labels>
					</clipitem>
					<transitionitem>
						<start>98591</start>
						<end>98603</end>
						<alignment>center</alignment>
						<cutPointTicks>60963840000</cutPointTicks>
						<rate>
							<timebase>25</timebase>
							<ntsc>FALSE</ntsc>
						</rate>
						<effect>
							<name>Cross Fade (+3dB)</name>
							<effectid>KGAudioTransCrossFade3dB</effectid>
							<effecttype>transition</effecttype>
							<mediatype>audio</mediatype>
							<wipecode>0</wipecode>
							<wipeaccuracy>100</wipeaccuracy>
							<startratio>0</startratio>
							<endratio>1</endratio>
							<reverse>FALSE</reverse>
						</effect>
					</transitionitem>
					<clipitem id="clipitem-1265" premiereChannelType="stereo">
						<masterclipid>masterclip-162</masterclipid>
						<name>Nordvisjon3MASTER i-lyd.mxf</name>
						<enabled>TRUE</enabled>
						<duration>244</duration>
						<rate>
							<timebase>25</timebase>
							<ntsc>FALSE</ntsc>
						</rate>
						<start>-1</start>
						<end>-1</end>
						<in>25</in>
						<out>215</out>
						<pproTicksIn>254016000000</pproTicksIn>
						<pproTicksOut>2184537600000</pproTicksOut>
						<file id="file-162"/>
						<sourcetrack>
							<mediatype>audio</mediatype>
							<trackindex>1</trackindex>
						</sourcetrack>
						<link>
							<linkclipref>clipitem-1265</linkclipref>
							<mediatype>audio</mediatype>
							<trackindex>12</trackindex>
							<clipindex>126</clipindex>
							<groupindex>1</groupindex>
						</link>
						<link>
							<linkclipref>clipitem-1350</linkclipref>
							<mediatype>audio</mediatype>
							<trackindex>13</trackindex>
							<clipindex>126</clipindex>
							<groupindex>1</groupindex>
						</link>
						<logginginfo>
							<description></description>
							<scene></scene>
							<shottake></shottake>
							<lognote></lognote>
						</logginginfo>
						<labels>
							<label2>Iris</label2>
						</labels>
					</clipitem>
					<transitionitem>
						<start>98768</start>
						<end>98781</end>
						<alignment>center</alignment>
						<cutPointTicks>60963840000</cutPointTicks>
						<rate>
							<timebase>25</timebase>
							<ntsc>FALSE</ntsc>
						</rate>
						<effect>
							<name>Cross Fade (+3dB)</name>
							<effectid>KGAudioTransCrossFade3dB</effectid>
							<effecttype>transition</effecttype>
							<mediatype>audio</mediatype>
							<wipecode>0</wipecode>
							<wipeaccuracy>100</wipeaccuracy>
							<startratio>0</startratio>
							<endratio>1</endratio>
							<reverse>FALSE</reverse>
						</effect>
					</transitionitem>
					<clipitem id="clipitem-1266" premiereChannelType="stereo">
						<masterclipid>masterclip-13</masterclipid>
						<name>Nordvisjon3MASTER i-lyd.mxf</name>
						<enabled>TRUE</enabled>
						<duration>712</duration>
						<rate>
							<timebase>25</timebase>
							<ntsc>FALSE</ntsc>
						</rate>
						<start>-1</start>
						<end>-1</end>
						<in>19</in>
						<out>683</out>
						<pproTicksIn>193052160000</pproTicksIn>
						<pproTicksOut>6939717120000</pproTicksOut>
						<file id="file-13"/>
						<sourcetrack>
							<mediatype>audio</mediatype>
							<trackindex>1</trackindex>
						</sourcetrack>
							<filter>
								<effect>
									<name>Audio Levels</name>
									<effectid>audiolevels</effectid>
									<effectcategory>audiolevels</effectcategory>
									<effecttype>audiolevels</effecttype>
									<mediatype>audio</mediatype>
									<parameter authoringApp="PremierePro">
										<parameterid>level</parameterid>
										<name>Level</name>
										<valuemin>0</valuemin>
										<valuemax>3.98109</valuemax>
										<value>0.332543</value>
										<keyframe>
											<when>566</when>
											<value>0.99763</value>
										</keyframe>
										<keyframe>
											<when>598</when>
											<value>0.332543</value>
										</keyframe>
									</parameter>
								</effect>
							</filter>
						<link>
							<linkclipref>clipitem-1266</linkclipref>
							<mediatype>audio</mediatype>
							<trackindex>12</trackindex>
							<clipindex>128</clipindex>
							<groupindex>1</groupindex>
						</link>
						<link>
							<linkclipref>clipitem-1351</linkclipref>
							<mediatype>audio</mediatype>
							<trackindex>13</trackindex>
							<clipindex>128</clipindex>
							<groupindex>1</groupindex>
						</link>
						<logginginfo>
							<description></description>
							<scene></scene>
							<shottake></shottake>
							<lognote></lognote>
						</logginginfo>
						<labels>
							<label2>Iris</label2>
						</labels>
					</clipitem>
					<transitionitem>
						<start>99419</start>
						<end>99432</end>
						<alignment>center</alignment>
						<cutPointTicks>60963840000</cutPointTicks>
						<rate>
							<timebase>25</timebase>
							<ntsc>FALSE</ntsc>
						</rate>
						<effect>
							<name>Cross Fade (+3dB)</name>
							<effectid>KGAudioTransCrossFade3dB</effectid>
							<effecttype>transition</effecttype>
							<mediatype>audio</mediatype>
							<wipecode>0</wipecode>
							<wipeaccuracy>100</wipeaccuracy>
							<startratio>0</startratio>
							<endratio>1</endratio>
							<reverse>FALSE</reverse>
						</effect>
					</transitionitem>
					<clipitem id="clipitem-1267" premiereChannelType="stereo">
						<masterclipid>masterclip-163</masterclipid>
						<name>Nordvisjon3MASTER i-lyd.mxf</name>
						<enabled>TRUE</enabled>
						<duration>154</duration>
						<rate>
							<timebase>25</timebase>
							<ntsc>FALSE</ntsc>
						</rate>
						<start>-1</start>
						<end>-1</end>
						<in>19</in>
						<out>125</out>
						<pproTicksIn>193052160000</pproTicksIn>
						<pproTicksOut>1270080000000</pproTicksOut>
						<file id="file-163"/>
						<sourcetrack>
							<mediatype>audio</mediatype>
							<trackindex>1</trackindex>
						</sourcetrack>
							<filter>
								<effect>
									<name>Audio Levels</name>
									<effectid>audiolevels</effectid>
									<effectcategory>audiolevels</effectcategory>
									<effecttype>audiolevels</effecttype>
									<mediatype>audio</mediatype>
									<parameter authoringApp="PremierePro">
										<parameterid>level</parameterid>
										<name>Level</name>
										<valuemin>0</valuemin>
										<valuemax>3.98109</valuemax>
										<value>0.332543</value>
										<keyframe>
											<when>66</when>
											<value>0.332543</value>
										</keyframe>
									</parameter>
								</effect>
							</filter>
						<link>
							<linkclipref>clipitem-1267</linkclipref>
							<mediatype>audio</mediatype>
							<trackindex>12</trackindex>
							<clipindex>130</clipindex>
							<groupindex>1</groupindex>
						</link>
						<link>
							<linkclipref>clipitem-1352</linkclipref>
							<mediatype>audio</mediatype>
							<trackindex>13</trackindex>
							<clipindex>130</clipindex>
							<groupindex>1</groupindex>
						</link>
						<logginginfo>
							<description></description>
							<scene></scene>
							<shottake></shottake>
							<lognote></lognote>
						</logginginfo>
						<labels>
							<label2>Iris</label2>
						</labels>
					</clipitem>
					<transitionitem>
						<start>99512</start>
						<end>99525</end>
						<alignment>center</alignment>
						<cutPointTicks>60963840000</cutPointTicks>
						<rate>
							<timebase>25</timebase>
							<ntsc>FALSE</ntsc>
						</rate>
						<effect>
							<name>Cross Fade (+3dB)</name>
							<effectid>KGAudioTransCrossFade3dB</effectid>
							<effecttype>transition</effecttype>
							<mediatype>audio</mediatype>
							<wipecode>0</wipecode>
							<wipeaccuracy>100</wipeaccuracy>
							<startratio>0</startratio>
							<endratio>1</endratio>
							<reverse>FALSE</reverse>
						</effect>
					</transitionitem>
					<clipitem id="clipitem-1268" premiereChannelType="stereo">
						<masterclipid>masterclip-164</masterclipid>
						<name>Nordvisjon3MASTER i-lyd.mxf</name>
						<enabled>TRUE</enabled>
						<duration>175</duration>
						<rate>
							<timebase>25</timebase>
							<ntsc>FALSE</ntsc>
						</rate>
						<start>-1</start>
						<end>-1</end>
						<in>19</in>
						<out>146</out>
						<pproTicksIn>193052160000</pproTicksIn>
						<pproTicksOut>1483453440000</pproTicksOut>
						<file id="file-164"/>
						<sourcetrack>
							<mediatype>audio</mediatype>
							<trackindex>1</trackindex>
						</sourcetrack>
							<filter>
								<effect>
									<name>Audio Levels</name>
									<effectid>audiolevels</effectid>
									<effectcategory>audiolevels</effectcategory>
									<effecttype>audiolevels</effecttype>
									<mediatype>audio</mediatype>
									<parameter authoringApp="PremierePro">
										<parameterid>level</parameterid>
										<name>Level</name>
										<valuemin>0</valuemin>
										<valuemax>3.98109</valuemax>
										<value>0.406442</value>
										<keyframe>
											<when>88</when>
											<value>0.406442</value>
										</keyframe>
									</parameter>
								</effect>
							</filter>
						<link>
							<linkclipref>clipitem-1268</linkclipref>
							<mediatype>audio</mediatype>
							<trackindex>12</trackindex>
							<clipindex>132</clipindex>
							<groupindex>1</groupindex>
						</link>
						<link>
							<linkclipref>clipitem-1353</linkclipref>
							<mediatype>audio</mediatype>
							<trackindex>13</trackindex>
							<clipindex>132</clipindex>
							<groupindex>1</groupindex>
						</link>
						<logginginfo>
							<description></description>
							<scene></scene>
							<shottake></shottake>
							<lognote></lognote>
						</logginginfo>
						<labels>
							<label2>Iris</label2>
						</labels>
					</clipitem>
					<transitionitem>
						<start>99626</start>
						<end>99639</end>
						<alignment>center</alignment>
						<cutPointTicks>60963840000</cutPointTicks>
						<rate>
							<timebase>25</timebase>
							<ntsc>FALSE</ntsc>
						</rate>
						<effect>
							<name>Cross Fade (+3dB)</name>
							<effectid>KGAudioTransCrossFade3dB</effectid>
							<effecttype>transition</effecttype>
							<mediatype>audio</mediatype>
							<wipecode>0</wipecode>
							<wipeaccuracy>100</wipeaccuracy>
							<startratio>0</startratio>
							<endratio>1</endratio>
							<reverse>FALSE</reverse>
						</effect>
					</transitionitem>
					<clipitem id="clipitem-1269" premiereChannelType="stereo">
						<masterclipid>masterclip-165</masterclipid>
						<name>Nordvisjon3MASTER i-lyd.mxf</name>
						<enabled>TRUE</enabled>
						<duration>890</duration>
						<rate>
							<timebase>25</timebase>
							<ntsc>FALSE</ntsc>
						</rate>
						<start>-1</start>
						<end>-1</end>
						<in>19</in>
						<out>464</out>
						<pproTicksIn>193052160000</pproTicksIn>
						<pproTicksOut>4714536960000</pproTicksOut>
						<file id="file-165"/>
						<sourcetrack>
							<mediatype>audio</mediatype>
							<trackindex>1</trackindex>
						</sourcetrack>
						<link>
							<linkclipref>clipitem-1269</linkclipref>
							<mediatype>audio</mediatype>
							<trackindex>12</trackindex>
							<clipindex>134</clipindex>
							<groupindex>1</groupindex>
						</link>
						<link>
							<linkclipref>clipitem-1354</linkclipref>
							<mediatype>audio</mediatype>
							<trackindex>13</trackindex>
							<clipindex>134</clipindex>
							<groupindex>1</groupindex>
						</link>
						<logginginfo>
							<description></description>
							<scene></scene>
							<shottake></shottake>
							<lognote></lognote>
						</logginginfo>
						<labels>
							<label2>Iris</label2>
						</labels>
					</clipitem>
					<transitionitem>
						<start>100058</start>
						<end>100071</end>
						<alignment>end-black</alignment>
						<cutPointTicks>132088320000</cutPointTicks>
						<rate>
							<timebase>25</timebase>
							<ntsc>FALSE</ntsc>
						</rate>
						<effect>
							<name>Cross Fade (+3dB)</name>
							<effectid>KGAudioTransCrossFade3dB</effectid>
							<effecttype>transition</effecttype>
							<mediatype>audio</mediatype>
							<wipecode>0</wipecode>
							<wipeaccuracy>100</wipeaccuracy>
							<startratio>0</startratio>
							<endratio>1</endratio>
							<reverse>FALSE</reverse>
						</effect>
					</transitionitem>
					<transitionitem>
						<start>100142</start>
						<end>100155</end>
						<alignment>start-black</alignment>
						<cutPointTicks>0</cutPointTicks>
						<rate>
							<timebase>25</timebase>
							<ntsc>FALSE</ntsc>
						</rate>
						<effect>
							<name>Cross Fade (+3dB)</name>
							<effectid>KGAudioTransCrossFade3dB</effectid>
							<effecttype>transition</effecttype>
							<mediatype>audio</mediatype>
							<wipecode>0</wipecode>
							<wipeaccuracy>100</wipeaccuracy>
							<startratio>0</startratio>
							<endratio>1</endratio>
							<reverse>FALSE</reverse>
						</effect>
					</transitionitem>
					<clipitem id="clipitem-1270" premiereChannelType="stereo">
						<masterclipid>masterclip-168</masterclipid>
						<name>AA282601.MXF</name>
						<enabled>TRUE</enabled>
						<duration>2568</duration>
						<rate>
							<timebase>25</timebase>
							<ntsc>FALSE</ntsc>
						</rate>
						<start>-1</start>
						<end>100270</end>
						<in>1625</in>
						<out>1753</out>
						<pproTicksIn>16511040000000</pproTicksIn>
						<pproTicksOut>17811601920000</pproTicksOut>
						<file id="file-168"/>
						<sourcetrack>
							<mediatype>audio</mediatype>
							<trackindex>1</trackindex>
						</sourcetrack>
						<link>
							<linkclipref>clipitem-242</linkclipref>
							<mediatype>video</mediatype>
							<trackindex>1</trackindex>
							<clipindex>252</clipindex>
						</link>
						<link>
							<linkclipref>clipitem-813</linkclipref>
							<mediatype>audio</mediatype>
							<trackindex>8</trackindex>
							<clipindex>119</clipindex>
							<groupindex>1</groupindex>
						</link>
						<link>
							<linkclipref>clipitem-907</linkclipref>
							<mediatype>audio</mediatype>
							<trackindex>9</trackindex>
							<clipindex>117</clipindex>
							<groupindex>1</groupindex>
						</link>
						<link>
							<linkclipref>clipitem-1270</linkclipref>
							<mediatype>audio</mediatype>
							<trackindex>12</trackindex>
							<clipindex>137</clipindex>
							<groupindex>1</groupindex>
						</link>
						<link>
							<linkclipref>clipitem-1355</linkclipref>
							<mediatype>audio</mediatype>
							<trackindex>13</trackindex>
							<clipindex>137</clipindex>
							<groupindex>1</groupindex>
						</link>
						<logginginfo>
							<description></description>
							<scene></scene>
							<shottake></shottake>
							<lognote></lognote>
						</logginginfo>
						<labels>
							<label2>Iris</label2>
						</labels>
					</clipitem>
					<enabled>TRUE</enabled>
					<locked>FALSE</locked>
					<outputchannelindex>1</outputchannelindex>
				</track>
				<track TL.SQTrackAudioKeyframeStyle="0" TL.SQTrackShy="0" TL.SQTrackExpandedHeight="58" TL.SQTrackExpanded="1" MZ.TrackTargeted="1" PannerCurrentValue="0.5" PannerIsInverted="true" PannerStartKeyframe="-91445760000000000,0.5,0,0,0,0,0,0" PannerName="Balance" currentExplodedTrackIndex="1" totalExplodedTrackCount="2" premiereTrackType="Stereo">
					<clipitem id="clipitem-1271" premiereChannelType="stereo">
						<masterclipid>masterclip-325</masterclipid>
						<name>AUXMP_RSM009804_SHARK_ATTACK.mp3</name>
						<enabled>TRUE</enabled>
						<duration>1490</duration>
						<rate>
							<timebase>25</timebase>
							<ntsc>FALSE</ntsc>
						</rate>
						<start>0</start>
						<end>598</end>
						<in>0</in>
						<out>598</out>
						<pproTicksIn>0</pproTicksIn>
						<pproTicksOut>6076062720000</pproTicksOut>
						<file id="file-325"/>
						<sourcetrack>
							<mediatype>audio</mediatype>
							<trackindex>2</trackindex>
						</sourcetrack>
							<filter>
								<effect>
									<name>Audio Levels</name>
									<effectid>audiolevels</effectid>
									<effectcategory>audiolevels</effectcategory>
									<effecttype>audiolevels</effecttype>
									<mediatype>audio</mediatype>
									<parameter authoringApp="PremierePro">
										<parameterid>level</parameterid>
										<name>Level</name>
										<valuemin>0</valuemin>
										<valuemax>3.98109</valuemax>
										<value>0.823352</value>
										<keyframe>
											<when>444</when>
											<value>0.823352</value>
										</keyframe>
										<keyframe>
											<when>470</when>
											<value>0.0783515</value>
										</keyframe>
										<keyframe>
											<when>514</when>
											<value>0</value>
										</keyframe>
										<keyframe>
											<when>1092</when>
											<value>0</value>
										</keyframe>
										<keyframe>
											<when>1113</when>
											<value>0</value>
										</keyframe>
									</parameter>
								</effect>
							</filter>
						<link>
							<linkclipref>clipitem-1186</linkclipref>
							<mediatype>audio</mediatype>
							<trackindex>12</trackindex>
							<clipindex>1</clipindex>
							<groupindex>1</groupindex>
						</link>
						<link>
							<linkclipref>clipitem-1271</linkclipref>
							<mediatype>audio</mediatype>
							<trackindex>13</trackindex>
							<clipindex>1</clipindex>
							<groupindex>1</groupindex>
						</link>
						<logginginfo>
							<description></description>
							<scene></scene>
							<shottake></shottake>
							<lognote></lognote>
						</logginginfo>
						<labels>
							<label2>Iris</label2>
						</labels>
					</clipitem>
					<clipitem id="clipitem-1272" premiereChannelType="stereo">
						<masterclipid>masterclip-136</masterclipid>
						<name>Nordvisjon2MASTER_i-lyd_011.mxf</name>
						<enabled>TRUE</enabled>
						<duration>1386</duration>
						<rate>
							<timebase>25</timebase>
							<ntsc>FALSE</ntsc>
						</rate>
						<start>1721</start>
						<end>-1</end>
						<in>985</in>
						<out>1359</out>
						<pproTicksIn>10008230400000</pproTicksIn>
						<pproTicksOut>13808309760000</pproTicksOut>
						<file id="file-136"/>
						<sourcetrack>
							<mediatype>audio</mediatype>
							<trackindex>2</trackindex>
						</sourcetrack>
							<filter>
								<effect>
									<name>Audio Levels</name>
									<effectid>audiolevels</effectid>
									<effectcategory>audiolevels</effectcategory>
									<effecttype>audiolevels</effecttype>
									<mediatype>audio</mediatype>
									<parameter authoringApp="PremierePro">
										<parameterid>level</parameterid>
										<name>Level</name>
										<valuemin>0</valuemin>
										<valuemax>3.98109</valuemax>
										<value>1.04101</value>
										<keyframe>
											<when>1001</when>
											<value>0</value>
										</keyframe>
										<keyframe>
											<when>1041</when>
											<value>1.86513</value>
										</keyframe>
										<keyframe>
											<when>1054</when>
											<value>1.80645</value>
										</keyframe>
										<keyframe>
											<when>1095</when>
											<value>1.86513</value>
										</keyframe>
										<keyframe>
											<when>1129</when>
											<value>1.04101</value>
										</keyframe>
									</parameter>
								</effect>
							</filter>
						<link>
							<linkclipref>clipitem-1187</linkclipref>
							<mediatype>audio</mediatype>
							<trackindex>12</trackindex>
							<clipindex>2</clipindex>
							<groupindex>1</groupindex>
						</link>
						<link>
							<linkclipref>clipitem-1272</linkclipref>
							<mediatype>audio</mediatype>
							<trackindex>13</trackindex>
							<clipindex>2</clipindex>
							<groupindex>1</groupindex>
						</link>
						<logginginfo>
							<description></description>
							<scene></scene>
							<shottake></shottake>
							<lognote></lognote>
						</logginginfo>
						<labels>
							<label2>Iris</label2>
						</labels>
					</clipitem>
					<transitionitem>
						<start>2082</start>
						<end>2095</end>
						<alignment>center</alignment>
						<cutPointTicks>60963840000</cutPointTicks>
						<rate>
							<timebase>25</timebase>
							<ntsc>FALSE</ntsc>
						</rate>
						<effect>
							<name>Cross Fade (+3dB)</name>
							<effectid>KGAudioTransCrossFade3dB</effectid>
							<effecttype>transition</effecttype>
							<mediatype>audio</mediatype>
							<wipecode>0</wipecode>
							<wipeaccuracy>100</wipeaccuracy>
							<startratio>0</startratio>
							<endratio>1</endratio>
							<reverse>FALSE</reverse>
						</effect>
					</transitionitem>
					<clipitem id="clipitem-1273" premiereChannelType="stereo">
						<masterclipid>masterclip-14</masterclipid>
						<name>dvna60001113b-p01-211116r</name>
						<enabled>TRUE</enabled>
						<duration>2868</duration>
						<rate>
							<timebase>25</timebase>
							<ntsc>FALSE</ntsc>
						</rate>
						<start>-1</start>
						<end>2537</end>
						<in>2060</in>
						<out>2515</out>
						<pproTicksIn>20930918400000</pproTicksIn>
						<pproTicksOut>25554009600000</pproTicksOut>
						<file id="file-14"/>
						<sourcetrack>
							<mediatype>audio</mediatype>
							<trackindex>4</trackindex>
						</sourcetrack>
							<filter>
								<effect>
									<name>Audio Levels</name>
									<effectid>audiolevels</effectid>
									<effectcategory>audiolevels</effectcategory>
									<effecttype>audiolevels</effecttype>
									<mediatype>audio</mediatype>
									<parameter authoringApp="PremierePro">
										<parameterid>level</parameterid>
										<name>Level</name>
										<valuemin>0</valuemin>
										<valuemax>3.98109</valuemax>
										<value>0</value>
										<keyframe>
											<when>2390</when>
											<value>1.47476</value>
										</keyframe>
										<keyframe>
											<when>2434</when>
											<value>0.307368</value>
										</keyframe>
										<keyframe>
											<when>2484</when>
											<value>0</value>
										</keyframe>
									</parameter>
								</effect>
							</filter>
						<link>
							<linkclipref>clipitem-435</linkclipref>
							<mediatype>video</mediatype>
							<trackindex>3</trackindex>
							<clipindex>2</clipindex>
						</link>
						<link>
							<linkclipref>clipitem-1188</linkclipref>
							<mediatype>audio</mediatype>
							<trackindex>12</trackindex>
							<clipindex>4</clipindex>
							<groupindex>1</groupindex>
						</link>
						<link>
							<linkclipref>clipitem-1273</linkclipref>
							<mediatype>audio</mediatype>
							<trackindex>13</trackindex>
							<clipindex>4</clipindex>
							<groupindex>1</groupindex>
						</link>
						<logginginfo>
							<description>dvna60001113b-p01-211116r</description>
							<scene></scene>
							<shottake></shottake>
							<lognote></lognote>
						</logginginfo>
						<labels>
							<label2>Iris</label2>
						</labels>
					</clipitem>
					<transitionitem>
						<start>2632</start>
						<end>2645</end>
						<alignment>start-black</alignment>
						<cutPointTicks>0</cutPointTicks>
						<rate>
							<timebase>25</timebase>
							<ntsc>FALSE</ntsc>
						</rate>
						<effect>
							<name>Cross Fade (+3dB)</name>
							<effectid>KGAudioTransCrossFade3dB</effectid>
							<effecttype>transition</effecttype>
							<mediatype>audio</mediatype>
							<wipecode>0</wipecode>
							<wipeaccuracy>100</wipeaccuracy>
							<startratio>0</startratio>
							<endratio>1</endratio>
							<reverse>FALSE</reverse>
						</effect>
					</transitionitem>
					<clipitem id="clipitem-1274" premiereChannelType="stereo">
						<masterclipid>masterclip-27</masterclipid>
						<name>Drifter.mov</name>
						<enabled>TRUE</enabled>
						<duration>58403</duration>
						<rate>
							<timebase>25</timebase>
							<ntsc>FALSE</ntsc>
						</rate>
						<start>-1</start>
						<end>-1</end>
						<in>11812</in>
						<out>11957</out>
						<pproTicksIn>120017479680000</pproTicksIn>
						<pproTicksOut>121490772480000</pproTicksOut>
						<file id="file-27"/>
						<sourcetrack>
							<mediatype>audio</mediatype>
							<trackindex>2</trackindex>
						</sourcetrack>
							<filter>
								<effect>
									<name>Audio Levels</name>
									<effectid>audiolevels</effectid>
									<effectcategory>audiolevels</effectcategory>
									<effecttype>audiolevels</effecttype>
									<mediatype>audio</mediatype>
									<parameter authoringApp="PremierePro">
										<parameterid>level</parameterid>
										<name>Level</name>
										<valuemin>0</valuemin>
										<valuemax>3.98109</valuemax>
										<value>0.99763</value>
										<keyframe>
											<when>11806</when>
											<value>0.99763</value>
										</keyframe>
										<keyframe>
											<when>11813</when>
											<value>0.711137</value>
										</keyframe>
										<keyframe>
											<when>11869</when>
											<value>0.726535</value>
										</keyframe>
										<keyframe>
											<when>11881</when>
											<value>0.99763</value>
										</keyframe>
									</parameter>
								</effect>
							</filter>
						<link>
							<linkclipref>clipitem-266</linkclipref>
							<mediatype>video</mediatype>
							<trackindex>2</trackindex>
							<clipindex>10</clipindex>
						</link>
						<link>
							<linkclipref>clipitem-1189</linkclipref>
							<mediatype>audio</mediatype>
							<trackindex>12</trackindex>
							<clipindex>6</clipindex>
							<groupindex>1</groupindex>
						</link>
						<link>
							<linkclipref>clipitem-1274</linkclipref>
							<mediatype>audio</mediatype>
							<trackindex>13</trackindex>
							<clipindex>6</clipindex>
							<groupindex>1</groupindex>
						</link>
						<logginginfo>
							<description></description>
							<scene></scene>
							<shottake></shottake>
							<lognote></lognote>
						</logginginfo>
						<labels>
							<label2>Iris</label2>
						</labels>
					</clipitem>
					<transitionitem>
						<start>2764</start>
						<end>2777</end>
						<alignment>center</alignment>
						<cutPointTicks>60963840000</cutPointTicks>
						<rate>
							<timebase>25</timebase>
							<ntsc>FALSE</ntsc>
						</rate>
						<effect>
							<name>Cross Fade (+3dB)</name>
							<effectid>KGAudioTransCrossFade3dB</effectid>
							<effecttype>transition</effecttype>
							<mediatype>audio</mediatype>
							<wipecode>0</wipecode>
							<wipeaccuracy>100</wipeaccuracy>
							<startratio>0</startratio>
							<endratio>1</endratio>
							<reverse>FALSE</reverse>
						</effect>
					</transitionitem>
					<clipitem id="clipitem-1275" premiereChannelType="stereo">
						<masterclipid>masterclip-16</masterclipid>
						<name>DVNA21002215AA</name>
						<enabled>TRUE</enabled>
						<duration>57688</duration>
						<rate>
							<timebase>25</timebase>
							<ntsc>FALSE</ntsc>
						</rate>
						<start>-1</start>
						<end>-1</end>
						<in>7345</in>
						<out>7442</out>
						<pproTicksIn>74629900800000</pproTicksIn>
						<pproTicksOut>75615482880000</pproTicksOut>
						<file id="file-16"/>
						<sourcetrack>
							<mediatype>audio</mediatype>
							<trackindex>4</trackindex>
						</sourcetrack>
						<link>
							<linkclipref>clipitem-1190</linkclipref>
							<mediatype>audio</mediatype>
							<trackindex>12</trackindex>
							<clipindex>8</clipindex>
							<groupindex>1</groupindex>
						</link>
						<link>
							<linkclipref>clipitem-1275</linkclipref>
							<mediatype>audio</mediatype>
							<trackindex>13</trackindex>
							<clipindex>8</clipindex>
							<groupindex>1</groupindex>
						</link>
						<logginginfo>
							<description>Ut i naturen - Fysikk (4:6 @ Ut i naturen)</description>
							<scene></scene>
							<shottake></shottake>
							<lognote></lognote>
						</logginginfo>
						<labels>
							<label2>Iris</label2>
						</labels>
					</clipitem>
					<transitionitem>
						<start>2848</start>
						<end>2861</end>
						<alignment>center</alignment>
						<cutPointTicks>60963840000</cutPointTicks>
						<rate>
							<timebase>25</timebase>
							<ntsc>FALSE</ntsc>
						</rate>
						<effect>
							<name>Cross Fade (+3dB)</name>
							<effectid>KGAudioTransCrossFade3dB</effectid>
							<effecttype>transition</effecttype>
							<mediatype>audio</mediatype>
							<wipecode>0</wipecode>
							<wipeaccuracy>100</wipeaccuracy>
							<startratio>0</startratio>
							<endratio>1</endratio>
							<reverse>FALSE</reverse>
						</effect>
					</transitionitem>
					<clipitem id="clipitem-1276" premiereChannelType="stereo">
						<masterclipid>masterclip-17</masterclipid>
						<name>dvna60000116aa-p1-270916r</name>
						<enabled>TRUE</enabled>
						<duration>4111</duration>
						<rate>
							<timebase>25</timebase>
							<ntsc>FALSE</ntsc>
						</rate>
						<start>-1</start>
						<end>-1</end>
						<in>1050</in>
						<out>1109</out>
						<pproTicksIn>10668672000000</pproTicksIn>
						<pproTicksOut>11268149760000</pproTicksOut>
						<file id="file-17"/>
						<sourcetrack>
							<mediatype>audio</mediatype>
							<trackindex>4</trackindex>
						</sourcetrack>
						<link>
							<linkclipref>clipitem-1191</linkclipref>
							<mediatype>audio</mediatype>
							<trackindex>12</trackindex>
							<clipindex>10</clipindex>
							<groupindex>1</groupindex>
						</link>
						<link>
							<linkclipref>clipitem-1276</linkclipref>
							<mediatype>audio</mediatype>
							<trackindex>13</trackindex>
							<clipindex>10</clipindex>
							<groupindex>1</groupindex>
						</link>
						<logginginfo>
							<description>dvna60000116aa-p1-270916r</description>
							<scene></scene>
							<shottake></shottake>
							<lognote></lognote>
						</logginginfo>
						<labels>
							<label2>Iris</label2>
						</labels>
					</clipitem>
					<transitionitem>
						<start>2894</start>
						<end>2907</end>
						<alignment>center</alignment>
						<cutPointTicks>60963840000</cutPointTicks>
						<rate>
							<timebase>25</timebase>
							<ntsc>FALSE</ntsc>
						</rate>
						<effect>
							<name>Cross Fade (+3dB)</name>
							<effectid>KGAudioTransCrossFade3dB</effectid>
							<effecttype>transition</effecttype>
							<mediatype>audio</mediatype>
							<wipecode>0</wipecode>
							<wipeaccuracy>100</wipeaccuracy>
							<startratio>0</startratio>
							<endratio>1</endratio>
							<reverse>FALSE</reverse>
						</effect>
					</transitionitem>
					<clipitem id="clipitem-1277" premiereChannelType="stereo">
						<masterclipid>masterclip-317</masterclipid>
						<name>Ut i naturen 2 Sanser I-lyd uten musikk.wav</name>
						<enabled>TRUE</enabled>
						<duration>58727</duration>
						<rate>
							<timebase>25</timebase>
							<ntsc>FALSE</ntsc>
						</rate>
						<start>-1</start>
						<end>-1</end>
						<in>53045</in>
						<out>53130</out>
						<pproTicksIn>538971148800000</pproTicksIn>
						<pproTicksOut>539834803200000</pproTicksOut>
						<file id="file-317"/>
						<sourcetrack>
							<mediatype>audio</mediatype>
							<trackindex>2</trackindex>
						</sourcetrack>
							<filter>
								<effect>
									<name>Audio Levels</name>
									<effectid>audiolevels</effectid>
									<effectcategory>audiolevels</effectcategory>
									<effecttype>audiolevels</effecttype>
									<mediatype>audio</mediatype>
									<parameter authoringApp="PremierePro">
										<parameterid>level</parameterid>
										<name>Level</name>
										<valuemin>0</valuemin>
										<valuemax>3.98109</valuemax>
										<value>1.77838</value>
									</parameter>
								</effect>
							</filter>
						<link>
							<linkclipref>clipitem-1192</linkclipref>
							<mediatype>audio</mediatype>
							<trackindex>12</trackindex>
							<clipindex>12</clipindex>
							<groupindex>1</groupindex>
						</link>
						<link>
							<linkclipref>clipitem-1277</linkclipref>
							<mediatype>audio</mediatype>
							<trackindex>13</trackindex>
							<clipindex>12</clipindex>
							<groupindex>1</groupindex>
						</link>
						<logginginfo>
							<description></description>
							<scene></scene>
							<shottake></shottake>
							<lognote></lognote>
						</logginginfo>
						<labels>
							<label2>Iris</label2>
						</labels>
					</clipitem>
					<transitionitem>
						<start>2966</start>
						<end>2979</end>
						<alignment>center</alignment>
						<cutPointTicks>60963840000</cutPointTicks>
						<rate>
							<timebase>25</timebase>
							<ntsc>FALSE</ntsc>
						</rate>
						<effect>
							<name>Cross Fade (+3dB)</name>
							<effectid>KGAudioTransCrossFade3dB</effectid>
							<effecttype>transition</effecttype>
							<mediatype>audio</mediatype>
							<wipecode>0</wipecode>
							<wipeaccuracy>100</wipeaccuracy>
							<startratio>0</startratio>
							<endratio>1</endratio>
							<reverse>FALSE</reverse>
						</effect>
					</transitionitem>
					<clipitem id="clipitem-1278" premiereChannelType="stereo">
						<masterclipid>masterclip-19</masterclipid>
						<name>20160515_184145.mp4</name>
						<enabled>TRUE</enabled>
						<duration>1485</duration>
						<rate>
							<timebase>25</timebase>
							<ntsc>FALSE</ntsc>
						</rate>
						<start>-1</start>
						<end>-1</end>
						<in>241</in>
						<out>368</out>
						<pproTicksIn>2448714240000</pproTicksIn>
						<pproTicksOut>3739115520000</pproTicksOut>
						<file id="file-19"/>
						<sourcetrack>
							<mediatype>audio</mediatype>
							<trackindex>2</trackindex>
						</sourcetrack>
							<filter>
								<effect>
									<name>Audio Levels</name>
									<effectid>audiolevels</effectid>
									<effectcategory>audiolevels</effectcategory>
									<effecttype>audiolevels</effecttype>
									<mediatype>audio</mediatype>
									<parameter authoringApp="PremierePro">
										<parameterid>level</parameterid>
										<name>Level</name>
										<valuemin>0</valuemin>
										<valuemax>3.98109</valuemax>
										<value>1.37008</value>
									</parameter>
								</effect>
							</filter>
						<link>
							<linkclipref>clipitem-1193</linkclipref>
							<mediatype>audio</mediatype>
							<trackindex>12</trackindex>
							<clipindex>14</clipindex>
							<groupindex>1</groupindex>
						</link>
						<link>
							<linkclipref>clipitem-1278</linkclipref>
							<mediatype>audio</mediatype>
							<trackindex>13</trackindex>
							<clipindex>14</clipindex>
							<groupindex>1</groupindex>
						</link>
						<logginginfo>
							<description></description>
							<scene></scene>
							<shottake></shottake>
							<lognote></lognote>
						</logginginfo>
						<labels>
							<label2>Iris</label2>
						</labels>
					</clipitem>
					<transitionitem>
						<start>3080</start>
						<end>3093</end>
						<alignment>center</alignment>
						<cutPointTicks>60963840000</cutPointTicks>
						<rate>
							<timebase>25</timebase>
							<ntsc>FALSE</ntsc>
						</rate>
						<effect>
							<name>Cross Fade (+3dB)</name>
							<effectid>KGAudioTransCrossFade3dB</effectid>
							<effecttype>transition</effecttype>
							<mediatype>audio</mediatype>
							<wipecode>0</wipecode>
							<wipeaccuracy>100</wipeaccuracy>
							<startratio>0</startratio>
							<endratio>1</endratio>
							<reverse>FALSE</reverse>
						</effect>
					</transitionitem>
					<clipitem id="clipitem-1279" premiereChannelType="stereo">
						<masterclipid>masterclip-20</masterclipid>
						<name>finalister2016-280916r-na</name>
						<enabled>TRUE</enabled>
						<duration>28573</duration>
						<rate>
							<timebase>25</timebase>
							<ntsc>FALSE</ntsc>
						</rate>
						<start>-1</start>
						<end>-1</end>
						<in>3385</in>
						<out>3495</out>
						<pproTicksIn>34393766400000</pproTicksIn>
						<pproTicksOut>35511436800000</pproTicksOut>
						<file id="file-20"/>
						<sourcetrack>
							<mediatype>audio</mediatype>
							<trackindex>2</trackindex>
						</sourcetrack>
						<link>
							<linkclipref>clipitem-25</linkclipref>
							<mediatype>video</mediatype>
							<trackindex>1</trackindex>
							<clipindex>25</clipindex>
						</link>
						<link>
							<linkclipref>clipitem-1194</linkclipref>
							<mediatype>audio</mediatype>
							<trackindex>12</trackindex>
							<clipindex>16</clipindex>
							<groupindex>1</groupindex>
						</link>
						<link>
							<linkclipref>clipitem-1279</linkclipref>
							<mediatype>audio</mediatype>
							<trackindex>13</trackindex>
							<clipindex>16</clipindex>
							<groupindex>1</groupindex>
						</link>
						<logginginfo>
							<description>finalister2016-280916r-na</description>
							<scene></scene>
							<shottake></shottake>
							<lognote></lognote>
						</logginginfo>
						<labels>
							<label2>Iris</label2>
						</labels>
					</clipitem>
					<transitionitem>
						<start>3177</start>
						<end>3190</end>
						<alignment>center</alignment>
						<cutPointTicks>60963840000</cutPointTicks>
						<rate>
							<timebase>25</timebase>
							<ntsc>FALSE</ntsc>
						</rate>
						<effect>
							<name>Cross Fade (+3dB)</name>
							<effectid>KGAudioTransCrossFade3dB</effectid>
							<effecttype>transition</effecttype>
							<mediatype>audio</mediatype>
							<wipecode>0</wipecode>
							<wipeaccuracy>100</wipeaccuracy>
							<startratio>0</startratio>
							<endratio>1</endratio>
							<reverse>FALSE</reverse>
						</effect>
					</transitionitem>
					<clipitem id="clipitem-1280" premiereChannelType="stereo">
						<masterclipid>masterclip-21</masterclipid>
						<name>Hegrefangst.mov</name>
						<enabled>TRUE</enabled>
						<duration>2677</duration>
						<rate>
							<timebase>25</timebase>
							<ntsc>FALSE</ntsc>
						</rate>
						<start>-1</start>
						<end>-1</end>
						<in>2103</in>
						<out>2196</out>
						<pproTicksIn>21367825920000</pproTicksIn>
						<pproTicksOut>22312765440000</pproTicksOut>
						<file id="file-21"/>
						<sourcetrack>
							<mediatype>audio</mediatype>
							<trackindex>2</trackindex>
						</sourcetrack>
							<filter>
								<effect>
									<name>Audio Levels</name>
									<effectid>audiolevels</effectid>
									<effectcategory>audiolevels</effectcategory>
									<effecttype>audiolevels</effecttype>
									<mediatype>audio</mediatype>
									<parameter authoringApp="PremierePro">
										<parameterid>level</parameterid>
										<name>Level</name>
										<valuemin>0</valuemin>
										<valuemax>3.98109</valuemax>
										<value>0.116003</value>
									</parameter>
								</effect>
							</filter>
							<marker>
								<comment></comment>
								<name></name>
								<in>963</in>
								<out>-1</out>
							</marker>
						<link>
							<linkclipref>clipitem-1195</linkclipref>
							<mediatype>audio</mediatype>
							<trackindex>12</trackindex>
							<clipindex>18</clipindex>
							<groupindex>1</groupindex>
						</link>
						<link>
							<linkclipref>clipitem-1280</linkclipref>
							<mediatype>audio</mediatype>
							<trackindex>13</trackindex>
							<clipindex>18</clipindex>
							<groupindex>1</groupindex>
						</link>
						<logginginfo>
							<description></description>
							<scene></scene>
							<shottake></shottake>
							<lognote></lognote>
						</logginginfo>
						<labels>
							<label2>Iris</label2>
						</labels>
					</clipitem>
					<transitionitem>
						<start>3257</start>
						<end>3270</end>
						<alignment>center</alignment>
						<cutPointTicks>60963840000</cutPointTicks>
						<rate>
							<timebase>25</timebase>
							<ntsc>FALSE</ntsc>
						</rate>
						<effect>
							<name>Cross Fade (+3dB)</name>
							<effectid>KGAudioTransCrossFade3dB</effectid>
							<effecttype>transition</effecttype>
							<mediatype>audio</mediatype>
							<wipecode>0</wipecode>
							<wipeaccuracy>100</wipeaccuracy>
							<startratio>0</startratio>
							<endratio>1</endratio>
							<reverse>FALSE</reverse>
						</effect>
					</transitionitem>
					<clipitem id="clipitem-1281" premiereChannelType="stereo">
						<masterclipid>masterclip-22</masterclipid>
						<name>DVNA21001915AA</name>
						<enabled>TRUE</enabled>
						<duration>58403</duration>
						<rate>
							<timebase>25</timebase>
							<ntsc>FALSE</ntsc>
						</rate>
						<start>-1</start>
						<end>-1</end>
						<in>13946</in>
						<out>14046</out>
						<pproTicksIn>141700285440000</pproTicksIn>
						<pproTicksOut>142716349440000</pproTicksOut>
						<file id="file-22"/>
						<sourcetrack>
							<mediatype>audio</mediatype>
							<trackindex>4</trackindex>
						</sourcetrack>
							<filter>
								<effect>
									<name>Audio Levels</name>
									<effectid>audiolevels</effectid>
									<effectcategory>audiolevels</effectcategory>
									<effecttype>audiolevels</effecttype>
									<mediatype>audio</mediatype>
									<parameter authoringApp="PremierePro">
										<parameterid>level</parameterid>
										<name>Level</name>
										<valuemin>0</valuemin>
										<valuemax>3.98109</valuemax>
										<value>0</value>
										<keyframe>
											<when>14040</when>
											<value>0.99763</value>
										</keyframe>
										<keyframe>
											<when>14052</when>
											<value>0</value>
										</keyframe>
										<keyframe>
											<when>14084</when>
											<value>0</value>
										</keyframe>
									</parameter>
								</effect>
							</filter>
						<link>
							<linkclipref>clipitem-27</linkclipref>
							<mediatype>video</mediatype>
							<trackindex>1</trackindex>
							<clipindex>27</clipindex>
						</link>
						<link>
							<linkclipref>clipitem-1196</linkclipref>
							<mediatype>audio</mediatype>
							<trackindex>12</trackindex>
							<clipindex>20</clipindex>
							<groupindex>1</groupindex>
						</link>
						<link>
							<linkclipref>clipitem-1281</linkclipref>
							<mediatype>audio</mediatype>
							<trackindex>13</trackindex>
							<clipindex>20</clipindex>
							<groupindex>1</groupindex>
						</link>
						<logginginfo>
							<description>Ut i naturen - Drifter (1:6 @ Ut i naturen)</description>
							<scene></scene>
							<shottake></shottake>
							<lognote></lognote>
						</logginginfo>
						<labels>
							<label2>Iris</label2>
						</labels>
					</clipitem>
					<transitionitem>
						<start>3344</start>
						<end>3357</end>
						<alignment>center</alignment>
						<cutPointTicks>60963840000</cutPointTicks>
						<rate>
							<timebase>25</timebase>
							<ntsc>FALSE</ntsc>
						</rate>
						<effect>
							<name>Cross Fade (+3dB)</name>
							<effectid>KGAudioTransCrossFade3dB</effectid>
							<effecttype>transition</effecttype>
							<mediatype>audio</mediatype>
							<wipecode>0</wipecode>
							<wipeaccuracy>100</wipeaccuracy>
							<startratio>0</startratio>
							<endratio>1</endratio>
							<reverse>FALSE</reverse>
						</effect>
					</transitionitem>
					<clipitem id="clipitem-1282" premiereChannelType="stereo">
						<masterclipid>masterclip-22</masterclipid>
						<name>DVNA21001915AA</name>
						<enabled>TRUE</enabled>
						<duration>58403</duration>
						<rate>
							<timebase>25</timebase>
							<ntsc>FALSE</ntsc>
						</rate>
						<start>-1</start>
						<end>3427</end>
						<in>14194</in>
						<out>14277</out>
						<pproTicksIn>144220124160000</pproTicksIn>
						<pproTicksOut>145063457280000</pproTicksOut>
						<file id="file-22"/>
						<sourcetrack>
							<mediatype>audio</mediatype>
							<trackindex>4</trackindex>
						</sourcetrack>
						<link>
							<linkclipref>clipitem-28</linkclipref>
							<mediatype>video</mediatype>
							<trackindex>1</trackindex>
							<clipindex>28</clipindex>
						</link>
						<link>
							<linkclipref>clipitem-1197</linkclipref>
							<mediatype>audio</mediatype>
							<trackindex>12</trackindex>
							<clipindex>22</clipindex>
							<groupindex>1</groupindex>
						</link>
						<link>
							<linkclipref>clipitem-1282</linkclipref>
							<mediatype>audio</mediatype>
							<trackindex>13</trackindex>
							<clipindex>22</clipindex>
							<groupindex>1</groupindex>
						</link>
						<logginginfo>
							<description>Ut i naturen - Drifter (1:6 @ Ut i naturen)</description>
							<scene></scene>
							<shottake></shottake>
							<lognote></lognote>
						</logginginfo>
						<labels>
							<label2>Iris</label2>
						</labels>
					</clipitem>
					<clipitem id="clipitem-1283" premiereChannelType="stereo">
						<masterclipid>masterclip-25</masterclipid>
						<name>AA262801.MXF</name>
						<enabled>TRUE</enabled>
						<duration>3660</duration>
						<rate>
							<timebase>25</timebase>
							<ntsc>FALSE</ntsc>
						</rate>
						<start>4087</start>
						<end>4202</end>
						<in>319</in>
						<out>434</out>
						<pproTicksIn>3241244160000</pproTicksIn>
						<pproTicksOut>4409717760000</pproTicksOut>
						<file id="file-25"/>
						<sourcetrack>
							<mediatype>audio</mediatype>
							<trackindex>2</trackindex>
						</sourcetrack>
						<link>
							<linkclipref>clipitem-1198</linkclipref>
							<mediatype>audio</mediatype>
							<trackindex>12</trackindex>
							<clipindex>23</clipindex>
							<groupindex>1</groupindex>
						</link>
						<link>
							<linkclipref>clipitem-1283</linkclipref>
							<mediatype>audio</mediatype>
							<trackindex>13</trackindex>
							<clipindex>23</clipindex>
							<groupindex>1</groupindex>
						</link>
						<logginginfo>
							<description></description>
							<scene></scene>
							<shottake></shottake>
							<lognote></lognote>
						</logginginfo>
						<labels>
							<label2>Iris</label2>
						</labels>
					</clipitem>
					<clipitem id="clipitem-1284" premiereChannelType="stereo">
						<masterclipid>masterclip-182</masterclipid>
						<name>AA262601.MXF</name>
						<enabled>TRUE</enabled>
						<duration>2076</duration>
						<rate>
							<timebase>25</timebase>
							<ntsc>FALSE</ntsc>
						</rate>
						<start>4202</start>
						<end>-1</end>
						<in>256</in>
						<out>387</out>
						<pproTicksIn>2601123840000</pproTicksIn>
						<pproTicksOut>3932167680000</pproTicksOut>
						<file id="file-182"/>
						<sourcetrack>
							<mediatype>audio</mediatype>
							<trackindex>2</trackindex>
						</sourcetrack>
						<link>
							<linkclipref>clipitem-1199</linkclipref>
							<mediatype>audio</mediatype>
							<trackindex>12</trackindex>
							<clipindex>24</clipindex>
							<groupindex>1</groupindex>
						</link>
						<link>
							<linkclipref>clipitem-1284</linkclipref>
							<mediatype>audio</mediatype>
							<trackindex>13</trackindex>
							<clipindex>24</clipindex>
							<groupindex>1</groupindex>
						</link>
						<logginginfo>
							<description></description>
							<scene></scene>
							<shottake></shottake>
							<lognote></lognote>
						</logginginfo>
						<labels>
							<label2>Iris</label2>
						</labels>
					</clipitem>
					<transitionitem>
						<start>4320</start>
						<end>4333</end>
						<alignment>center</alignment>
						<cutPointTicks>60963840000</cutPointTicks>
						<rate>
							<timebase>25</timebase>
							<ntsc>FALSE</ntsc>
						</rate>
						<effect>
							<name>Cross Fade (+3dB)</name>
							<effectid>KGAudioTransCrossFade3dB</effectid>
							<effecttype>transition</effecttype>
							<mediatype>audio</mediatype>
							<wipecode>0</wipecode>
							<wipeaccuracy>100</wipeaccuracy>
							<startratio>0</startratio>
							<endratio>1</endratio>
							<reverse>FALSE</reverse>
						</effect>
					</transitionitem>
					<clipitem id="clipitem-1285" premiereChannelType="stereo">
						<masterclipid>masterclip-25</masterclipid>
						<name>AA262801.MXF</name>
						<enabled>TRUE</enabled>
						<duration>3660</duration>
						<rate>
							<timebase>25</timebase>
							<ntsc>FALSE</ntsc>
						</rate>
						<start>-1</start>
						<end>4450</end>
						<in>428</in>
						<out>558</out>
						<pproTicksIn>4348753920000</pproTicksIn>
						<pproTicksOut>5669637120000</pproTicksOut>
						<file id="file-25"/>
						<sourcetrack>
							<mediatype>audio</mediatype>
							<trackindex>2</trackindex>
						</sourcetrack>
						<link>
							<linkclipref>clipitem-1200</linkclipref>
							<mediatype>audio</mediatype>
							<trackindex>12</trackindex>
							<clipindex>26</clipindex>
							<groupindex>1</groupindex>
						</link>
						<link>
							<linkclipref>clipitem-1285</linkclipref>
							<mediatype>audio</mediatype>
							<trackindex>13</trackindex>
							<clipindex>26</clipindex>
							<groupindex>1</groupindex>
						</link>
						<logginginfo>
							<description></description>
							<scene></scene>
							<shottake></shottake>
							<lognote></lognote>
						</logginginfo>
						<labels>
							<label2>Iris</label2>
						</labels>
					</clipitem>
					<clipitem id="clipitem-1286" premiereChannelType="stereo">
						<masterclipid>masterclip-25</masterclipid>
						<name>AA262801.MXF</name>
						<enabled>TRUE</enabled>
						<duration>3660</duration>
						<rate>
							<timebase>25</timebase>
							<ntsc>FALSE</ntsc>
						</rate>
						<start>4450</start>
						<end>-1</end>
						<in>937</in>
						<out>1178</out>
						<pproTicksIn>9520519680000</pproTicksIn>
						<pproTicksOut>11969233920000</pproTicksOut>
						<file id="file-25"/>
						<sourcetrack>
							<mediatype>audio</mediatype>
							<trackindex>2</trackindex>
						</sourcetrack>
						<link>
							<linkclipref>clipitem-1201</linkclipref>
							<mediatype>audio</mediatype>
							<trackindex>12</trackindex>
							<clipindex>27</clipindex>
							<groupindex>1</groupindex>
						</link>
						<link>
							<linkclipref>clipitem-1286</linkclipref>
							<mediatype>audio</mediatype>
							<trackindex>13</trackindex>
							<clipindex>27</clipindex>
							<groupindex>1</groupindex>
						</link>
						<logginginfo>
							<description></description>
							<scene></scene>
							<shottake></shottake>
							<lognote></lognote>
						</logginginfo>
						<labels>
							<label2>Iris</label2>
						</labels>
					</clipitem>
					<transitionitem>
						<start>4690</start>
						<end>4691</end>
						<alignment>end-black</alignment>
						<cutPointTicks>10160640000</cutPointTicks>
						<rate>
							<timebase>25</timebase>
							<ntsc>FALSE</ntsc>
						</rate>
						<effect>
							<name>Cross Fade (+3dB)</name>
							<effectid>KGAudioTransCrossFade3dB</effectid>
							<effecttype>transition</effecttype>
							<mediatype>audio</mediatype>
							<wipecode>0</wipecode>
							<wipeaccuracy>100</wipeaccuracy>
							<startratio>0</startratio>
							<endratio>1</endratio>
							<reverse>FALSE</reverse>
						</effect>
					</transitionitem>
					<clipitem id="clipitem-1287" premiereChannelType="stereo">
						<masterclipid>masterclip-25</masterclipid>
						<name>AA262801.MXF</name>
						<enabled>TRUE</enabled>
						<duration>3660</duration>
						<rate>
							<timebase>25</timebase>
							<ntsc>FALSE</ntsc>
						</rate>
						<start>4762</start>
						<end>4948</end>
						<in>3245</in>
						<out>3431</out>
						<pproTicksIn>32971276800000</pproTicksIn>
						<pproTicksOut>34861155840000</pproTicksOut>
						<file id="file-25"/>
						<sourcetrack>
							<mediatype>audio</mediatype>
							<trackindex>2</trackindex>
						</sourcetrack>
						<link>
							<linkclipref>clipitem-1202</linkclipref>
							<mediatype>audio</mediatype>
							<trackindex>12</trackindex>
							<clipindex>29</clipindex>
							<groupindex>1</groupindex>
						</link>
						<link>
							<linkclipref>clipitem-1287</linkclipref>
							<mediatype>audio</mediatype>
							<trackindex>13</trackindex>
							<clipindex>29</clipindex>
							<groupindex>1</groupindex>
						</link>
						<logginginfo>
							<description></description>
							<scene></scene>
							<shottake></shottake>
							<lognote></lognote>
						</logginginfo>
						<labels>
							<label2>Iris</label2>
						</labels>
					</clipitem>
					<clipitem id="clipitem-1288" premiereChannelType="stereo">
						<masterclipid>masterclip-26</masterclipid>
						<name>AA263101.MXF</name>
						<enabled>TRUE</enabled>
						<duration>3336</duration>
						<rate>
							<timebase>25</timebase>
							<ntsc>FALSE</ntsc>
						</rate>
						<start>4948</start>
						<end>5463</end>
						<in>175</in>
						<out>690</out>
						<pproTicksIn>1778112000000</pproTicksIn>
						<pproTicksOut>7010841600000</pproTicksOut>
						<file id="file-26"/>
						<sourcetrack>
							<mediatype>audio</mediatype>
							<trackindex>2</trackindex>
						</sourcetrack>
						<link>
							<linkclipref>clipitem-1203</linkclipref>
							<mediatype>audio</mediatype>
							<trackindex>12</trackindex>
							<clipindex>30</clipindex>
							<groupindex>1</groupindex>
						</link>
						<link>
							<linkclipref>clipitem-1288</linkclipref>
							<mediatype>audio</mediatype>
							<trackindex>13</trackindex>
							<clipindex>30</clipindex>
							<groupindex>1</groupindex>
						</link>
						<logginginfo>
							<description></description>
							<scene></scene>
							<shottake></shottake>
							<lognote></lognote>
						</logginginfo>
						<labels>
							<label2>Iris</label2>
						</labels>
					</clipitem>
					<clipitem id="clipitem-1289" premiereChannelType="stereo">
						<masterclipid>masterclip-26</masterclipid>
						<name>AA263101.MXF</name>
						<enabled>TRUE</enabled>
						<duration>3336</duration>
						<rate>
							<timebase>25</timebase>
							<ntsc>FALSE</ntsc>
						</rate>
						<start>5463</start>
						<end>5962</end>
						<in>1499</in>
						<out>1998</out>
						<pproTicksIn>15230799360000</pproTicksIn>
						<pproTicksOut>20300958720000</pproTicksOut>
						<file id="file-26"/>
						<sourcetrack>
							<mediatype>audio</mediatype>
							<trackindex>2</trackindex>
						</sourcetrack>
						<link>
							<linkclipref>clipitem-1204</linkclipref>
							<mediatype>audio</mediatype>
							<trackindex>12</trackindex>
							<clipindex>31</clipindex>
							<groupindex>1</groupindex>
						</link>
						<link>
							<linkclipref>clipitem-1289</linkclipref>
							<mediatype>audio</mediatype>
							<trackindex>13</trackindex>
							<clipindex>31</clipindex>
							<groupindex>1</groupindex>
						</link>
						<logginginfo>
							<description></description>
							<scene></scene>
							<shottake></shottake>
							<lognote></lognote>
						</logginginfo>
						<labels>
							<label2>Iris</label2>
						</labels>
					</clipitem>
					<clipitem id="clipitem-1290" premiereChannelType="stereo">
						<masterclipid>masterclip-184</masterclipid>
						<name>4 Mår vil ta dorullen på utedoen.mp4</name>
						<enabled>TRUE</enabled>
						<duration>778</duration>
						<rate>
							<timebase>25</timebase>
							<ntsc>FALSE</ntsc>
						</rate>
						<start>5962</start>
						<end>6008</end>
						<in>223</in>
						<out>269</out>
						<pproTicksIn>2265822720000</pproTicksIn>
						<pproTicksOut>2733212160000</pproTicksOut>
						<file id="file-184"/>
						<sourcetrack>
							<mediatype>audio</mediatype>
							<trackindex>2</trackindex>
						</sourcetrack>
							<filter>
								<effect>
									<name>Audio Levels</name>
									<effectid>audiolevels</effectid>
									<effectcategory>audiolevels</effectcategory>
									<effecttype>audiolevels</effecttype>
									<mediatype>audio</mediatype>
									<parameter authoringApp="PremierePro">
										<parameterid>level</parameterid>
										<name>Level</name>
										<valuemin>0</valuemin>
										<valuemax>3.98109</valuemax>
										<value>0.96785</value>
									</parameter>
								</effect>
							</filter>
						<link>
							<linkclipref>clipitem-1205</linkclipref>
							<mediatype>audio</mediatype>
							<trackindex>12</trackindex>
							<clipindex>32</clipindex>
							<groupindex>1</groupindex>
						</link>
						<link>
							<linkclipref>clipitem-1290</linkclipref>
							<mediatype>audio</mediatype>
							<trackindex>13</trackindex>
							<clipindex>32</clipindex>
							<groupindex>1</groupindex>
						</link>
						<logginginfo>
							<description></description>
							<scene></scene>
							<shottake></shottake>
							<lognote></lognote>
						</logginginfo>
						<labels>
							<label2>Iris</label2>
						</labels>
					</clipitem>
					<clipitem id="clipitem-1291" premiereChannelType="stereo">
						<masterclipid>masterclip-184</masterclipid>
						<name>4 Mår vil ta dorullen på utedoen.mp4</name>
						<enabled>TRUE</enabled>
						<duration>778</duration>
						<rate>
							<timebase>25</timebase>
							<ntsc>FALSE</ntsc>
						</rate>
						<start>6008</start>
						<end>6181</end>
						<in>269</in>
						<out>442</out>
						<pproTicksIn>2733212160000</pproTicksIn>
						<pproTicksOut>4491002880000</pproTicksOut>
						<file id="file-184"/>
						<sourcetrack>
							<mediatype>audio</mediatype>
							<trackindex>2</trackindex>
						</sourcetrack>
							<filter>
								<effect>
									<name>Audio Levels</name>
									<effectid>audiolevels</effectid>
									<effectcategory>audiolevels</effectcategory>
									<effecttype>audiolevels</effecttype>
									<mediatype>audio</mediatype>
									<parameter authoringApp="PremierePro">
										<parameterid>level</parameterid>
										<name>Level</name>
										<valuemin>0</valuemin>
										<valuemax>3.98109</valuemax>
										<value>0.96785</value>
									</parameter>
								</effect>
							</filter>
						<link>
							<linkclipref>clipitem-273</linkclipref>
							<mediatype>video</mediatype>
							<trackindex>2</trackindex>
							<clipindex>17</clipindex>
						</link>
						<link>
							<linkclipref>clipitem-1206</linkclipref>
							<mediatype>audio</mediatype>
							<trackindex>12</trackindex>
							<clipindex>33</clipindex>
							<groupindex>1</groupindex>
						</link>
						<link>
							<linkclipref>clipitem-1291</linkclipref>
							<mediatype>audio</mediatype>
							<trackindex>13</trackindex>
							<clipindex>33</clipindex>
							<groupindex>1</groupindex>
						</link>
						<logginginfo>
							<description></description>
							<scene></scene>
							<shottake></shottake>
							<lognote></lognote>
						</logginginfo>
						<labels>
							<label2>Iris</label2>
						</labels>
					</clipitem>
					<clipitem id="clipitem-1292" premiereChannelType="stereo">
						<masterclipid>masterclip-185</masterclipid>
						<name>AA263201.MXF</name>
						<enabled>TRUE</enabled>
						<duration>4740</duration>
						<rate>
							<timebase>25</timebase>
							<ntsc>FALSE</ntsc>
						</rate>
						<start>6181</start>
						<end>-1</end>
						<in>2513</in>
						<out>2648</out>
						<pproTicksIn>25533688320000</pproTicksIn>
						<pproTicksOut>26905374720000</pproTicksOut>
						<file id="file-185"/>
						<sourcetrack>
							<mediatype>audio</mediatype>
							<trackindex>1</trackindex>
						</sourcetrack>
						<link>
							<linkclipref>clipitem-1207</linkclipref>
							<mediatype>audio</mediatype>
							<trackindex>12</trackindex>
							<clipindex>34</clipindex>
							<groupindex>1</groupindex>
						</link>
						<link>
							<linkclipref>clipitem-1292</linkclipref>
							<mediatype>audio</mediatype>
							<trackindex>13</trackindex>
							<clipindex>34</clipindex>
							<groupindex>1</groupindex>
						</link>
						<logginginfo>
							<description></description>
							<scene></scene>
							<shottake></shottake>
							<lognote></lognote>
						</logginginfo>
						<labels>
							<label2>Iris</label2>
						</labels>
					</clipitem>
					<transitionitem>
						<start>6313</start>
						<end>6316</end>
						<alignment>center</alignment>
						<cutPointTicks>10160640000</cutPointTicks>
						<rate>
							<timebase>25</timebase>
							<ntsc>FALSE</ntsc>
						</rate>
						<effect>
							<name>Cross Fade (+3dB)</name>
							<effectid>KGAudioTransCrossFade3dB</effectid>
							<effecttype>transition</effecttype>
							<mediatype>audio</mediatype>
							<wipecode>0</wipecode>
							<wipeaccuracy>100</wipeaccuracy>
							<startratio>0</startratio>
							<endratio>1</endratio>
							<reverse>FALSE</reverse>
						</effect>
					</transitionitem>
					<clipitem id="clipitem-1293" premiereChannelType="stereo">
						<masterclipid>masterclip-186</masterclipid>
						<name>AA263501.MXF</name>
						<enabled>TRUE</enabled>
						<duration>2556</duration>
						<rate>
							<timebase>25</timebase>
							<ntsc>FALSE</ntsc>
						</rate>
						<start>-1</start>
						<end>6495</end>
						<in>502</in>
						<out>684</out>
						<pproTicksIn>5100641280000</pproTicksIn>
						<pproTicksOut>6949877760000</pproTicksOut>
						<file id="file-186"/>
						<sourcetrack>
							<mediatype>audio</mediatype>
							<trackindex>1</trackindex>
						</sourcetrack>
						<link>
							<linkclipref>clipitem-1208</linkclipref>
							<mediatype>audio</mediatype>
							<trackindex>12</trackindex>
							<clipindex>36</clipindex>
							<groupindex>1</groupindex>
						</link>
						<link>
							<linkclipref>clipitem-1293</linkclipref>
							<mediatype>audio</mediatype>
							<trackindex>13</trackindex>
							<clipindex>36</clipindex>
							<groupindex>1</groupindex>
						</link>
						<logginginfo>
							<description></description>
							<scene></scene>
							<shottake></shottake>
							<lognote></lognote>
						</logginginfo>
						<labels>
							<label2>Iris</label2>
						</labels>
					</clipitem>
					<clipitem id="clipitem-1294" premiereChannelType="stereo">
						<masterclipid>masterclip-185</masterclipid>
						<name>AA263201.MXF</name>
						<enabled>TRUE</enabled>
						<duration>4740</duration>
						<rate>
							<timebase>25</timebase>
							<ntsc>FALSE</ntsc>
						</rate>
						<start>6495</start>
						<end>6767</end>
						<in>3116</in>
						<out>3388</out>
						<pproTicksIn>31660554240000</pproTicksIn>
						<pproTicksOut>34424248320000</pproTicksOut>
						<file id="file-185"/>
						<sourcetrack>
							<mediatype>audio</mediatype>
							<trackindex>1</trackindex>
						</sourcetrack>
						<link>
							<linkclipref>clipitem-1209</linkclipref>
							<mediatype>audio</mediatype>
							<trackindex>12</trackindex>
							<clipindex>37</clipindex>
							<groupindex>1</groupindex>
						</link>
						<link>
							<linkclipref>clipitem-1294</linkclipref>
							<mediatype>audio</mediatype>
							<trackindex>13</trackindex>
							<clipindex>37</clipindex>
							<groupindex>1</groupindex>
						</link>
						<logginginfo>
							<description></description>
							<scene></scene>
							<shottake></shottake>
							<lognote></lognote>
						</logginginfo>
						<labels>
							<label2>Iris</label2>
						</labels>
					</clipitem>
					<clipitem id="clipitem-1295" premiereChannelType="stereo">
						<masterclipid>masterclip-185</masterclipid>
						<name>AA263201.MXF</name>
						<enabled>TRUE</enabled>
						<duration>4740</duration>
						<rate>
							<timebase>25</timebase>
							<ntsc>FALSE</ntsc>
						</rate>
						<start>6767</start>
						<end>6954</end>
						<in>4275</in>
						<out>4462</out>
						<pproTicksIn>43436736000000</pproTicksIn>
						<pproTicksOut>45336775680000</pproTicksOut>
						<file id="file-185"/>
						<sourcetrack>
							<mediatype>audio</mediatype>
							<trackindex>1</trackindex>
						</sourcetrack>
						<link>
							<linkclipref>clipitem-1210</linkclipref>
							<mediatype>audio</mediatype>
							<trackindex>12</trackindex>
							<clipindex>38</clipindex>
							<groupindex>1</groupindex>
						</link>
						<link>
							<linkclipref>clipitem-1295</linkclipref>
							<mediatype>audio</mediatype>
							<trackindex>13</trackindex>
							<clipindex>38</clipindex>
							<groupindex>1</groupindex>
						</link>
						<logginginfo>
							<description></description>
							<scene></scene>
							<shottake></shottake>
							<lognote></lognote>
						</logginginfo>
						<labels>
							<label2>Iris</label2>
						</labels>
					</clipitem>
					<clipitem id="clipitem-1296" premiereChannelType="stereo">
						<masterclipid>masterclip-185</masterclipid>
						<name>AA263201.MXF</name>
						<enabled>TRUE</enabled>
						<duration>4740</duration>
						<rate>
							<timebase>25</timebase>
							<ntsc>FALSE</ntsc>
						</rate>
						<start>6954</start>
						<end>7109</end>
						<in>4462</in>
						<out>4617</out>
						<pproTicksIn>45336775680000</pproTicksIn>
						<pproTicksOut>46911674880000</pproTicksOut>
						<file id="file-185"/>
						<sourcetrack>
							<mediatype>audio</mediatype>
							<trackindex>1</trackindex>
						</sourcetrack>
						<link>
							<linkclipref>clipitem-1211</linkclipref>
							<mediatype>audio</mediatype>
							<trackindex>12</trackindex>
							<clipindex>39</clipindex>
							<groupindex>1</groupindex>
						</link>
						<link>
							<linkclipref>clipitem-1296</linkclipref>
							<mediatype>audio</mediatype>
							<trackindex>13</trackindex>
							<clipindex>39</clipindex>
							<groupindex>1</groupindex>
						</link>
						<logginginfo>
							<description></description>
							<scene></scene>
							<shottake></shottake>
							<lognote></lognote>
						</logginginfo>
						<labels>
							<label2>Iris</label2>
						</labels>
					</clipitem>
					<transitionitem>
						<start>11046</start>
						<end>11059</end>
						<alignment>start-black</alignment>
						<cutPointTicks>0</cutPointTicks>
						<rate>
							<timebase>25</timebase>
							<ntsc>FALSE</ntsc>
						</rate>
						<effect>
							<name>Cross Fade (+3dB)</name>
							<effectid>KGAudioTransCrossFade3dB</effectid>
							<effecttype>transition</effecttype>
							<mediatype>audio</mediatype>
							<wipecode>0</wipecode>
							<wipeaccuracy>100</wipeaccuracy>
							<startratio>0</startratio>
							<endratio>1</endratio>
							<reverse>FALSE</reverse>
						</effect>
					</transitionitem>
					<clipitem id="clipitem-1297" premiereChannelType="stereo">
						<masterclipid>masterclip-30</masterclipid>
						<name>2015-12-19 11.39.19.mp4</name>
						<enabled>TRUE</enabled>
						<duration>2636</duration>
						<rate>
							<timebase>25</timebase>
							<ntsc>FALSE</ntsc>
						</rate>
						<start>-1</start>
						<end>-1</end>
						<in>1138</in>
						<out>1232</out>
						<pproTicksIn>11562808320000</pproTicksIn>
						<pproTicksOut>12517908480000</pproTicksOut>
						<file id="file-30"/>
						<sourcetrack>
							<mediatype>audio</mediatype>
							<trackindex>2</trackindex>
						</sourcetrack>
							<marker>
								<comment></comment>
								<name></name>
								<in>1131</in>
								<out>-1</out>
							</marker>
							<marker>
								<comment></comment>
								<name></name>
								<in>667</in>
								<out>-1</out>
							</marker>
						<link>
							<linkclipref>clipitem-926</linkclipref>
							<mediatype>audio</mediatype>
							<trackindex>10</trackindex>
							<clipindex>23</clipindex>
							<groupindex>1</groupindex>
						</link>
						<link>
							<linkclipref>clipitem-1066</linkclipref>
							<mediatype>audio</mediatype>
							<trackindex>11</trackindex>
							<clipindex>23</clipindex>
							<groupindex>1</groupindex>
						</link>
						<link>
							<linkclipref>clipitem-1212</linkclipref>
							<mediatype>audio</mediatype>
							<trackindex>12</trackindex>
							<clipindex>41</clipindex>
							<groupindex>1</groupindex>
						</link>
						<link>
							<linkclipref>clipitem-1297</linkclipref>
							<mediatype>audio</mediatype>
							<trackindex>13</trackindex>
							<clipindex>41</clipindex>
							<groupindex>1</groupindex>
						</link>
						<logginginfo>
							<description></description>
							<scene></scene>
							<shottake></shottake>
							<lognote></lognote>
						</logginginfo>
						<labels>
							<label2>Iris</label2>
						</labels>
					</clipitem>
					<transitionitem>
						<start>11127</start>
						<end>11140</end>
						<alignment>end-black</alignment>
						<cutPointTicks>132088320000</cutPointTicks>
						<rate>
							<timebase>25</timebase>
							<ntsc>FALSE</ntsc>
						</rate>
						<effect>
							<name>Cross Fade (+3dB)</name>
							<effectid>KGAudioTransCrossFade3dB</effectid>
							<effecttype>transition</effecttype>
							<mediatype>audio</mediatype>
							<wipecode>0</wipecode>
							<wipeaccuracy>100</wipeaccuracy>
							<startratio>0</startratio>
							<endratio>1</endratio>
							<reverse>FALSE</reverse>
						</effect>
					</transitionitem>
					<clipitem id="clipitem-1298" premiereChannelType="stereo">
						<masterclipid>masterclip-56</masterclipid>
						<name>20160514_185459.mp4</name>
						<enabled>TRUE</enabled>
						<duration>908</duration>
						<rate>
							<timebase>25</timebase>
							<ntsc>FALSE</ntsc>
						</rate>
						<start>22124</start>
						<end>22196</end>
						<in>25</in>
						<out>97</out>
						<pproTicksIn>254016000000</pproTicksIn>
						<pproTicksOut>985582080000</pproTicksOut>
						<file id="file-56"/>
						<sourcetrack>
							<mediatype>audio</mediatype>
							<trackindex>2</trackindex>
						</sourcetrack>
							<filter>
								<effect>
									<name>Audio Levels</name>
									<effectid>audiolevels</effectid>
									<effectcategory>audiolevels</effectcategory>
									<effecttype>audiolevels</effecttype>
									<mediatype>audio</mediatype>
									<parameter authoringApp="PremierePro">
										<parameterid>level</parameterid>
										<name>Level</name>
										<valuemin>0</valuemin>
										<valuemax>3.98109</valuemax>
										<value>0.99763</value>
									</parameter>
								</effect>
							</filter>
						<link>
							<linkclipref>clipitem-70</linkclipref>
							<mediatype>video</mediatype>
							<trackindex>1</trackindex>
							<clipindex>70</clipindex>
						</link>
						<link>
							<linkclipref>clipitem-1213</linkclipref>
							<mediatype>audio</mediatype>
							<trackindex>12</trackindex>
							<clipindex>43</clipindex>
							<groupindex>1</groupindex>
						</link>
						<link>
							<linkclipref>clipitem-1298</linkclipref>
							<mediatype>audio</mediatype>
							<trackindex>13</trackindex>
							<clipindex>43</clipindex>
							<groupindex>1</groupindex>
						</link>
						<logginginfo>
							<description></description>
							<scene></scene>
							<shottake></shottake>
							<lognote></lognote>
						</logginginfo>
						<labels>
							<label2>Iris</label2>
						</labels>
					</clipitem>
					<clipitem id="clipitem-1299" premiereChannelType="stereo">
						<masterclipid>masterclip-56</masterclipid>
						<name>20160514_185459.mp4</name>
						<enabled>TRUE</enabled>
						<duration>908</duration>
						<rate>
							<timebase>25</timebase>
							<ntsc>FALSE</ntsc>
						</rate>
						<start>22355</start>
						<end>22612</end>
						<in>97</in>
						<out>354</out>
						<pproTicksIn>985582080000</pproTicksIn>
						<pproTicksOut>3596866560000</pproTicksOut>
						<file id="file-56"/>
						<sourcetrack>
							<mediatype>audio</mediatype>
							<trackindex>2</trackindex>
						</sourcetrack>
							<filter>
								<effect>
									<name>Audio Levels</name>
									<effectid>audiolevels</effectid>
									<effectcategory>audiolevels</effectcategory>
									<effecttype>audiolevels</effecttype>
									<mediatype>audio</mediatype>
									<parameter authoringApp="PremierePro">
										<parameterid>level</parameterid>
										<name>Level</name>
										<valuemin>0</valuemin>
										<valuemax>3.98109</valuemax>
										<value>0.99763</value>
									</parameter>
								</effect>
							</filter>
						<link>
							<linkclipref>clipitem-1214</linkclipref>
							<mediatype>audio</mediatype>
							<trackindex>12</trackindex>
							<clipindex>44</clipindex>
							<groupindex>1</groupindex>
						</link>
						<link>
							<linkclipref>clipitem-1299</linkclipref>
							<mediatype>audio</mediatype>
							<trackindex>13</trackindex>
							<clipindex>44</clipindex>
							<groupindex>1</groupindex>
						</link>
						<logginginfo>
							<description></description>
							<scene></scene>
							<shottake></shottake>
							<lognote></lognote>
						</logginginfo>
						<labels>
							<label2>Iris</label2>
						</labels>
					</clipitem>
					<clipitem id="clipitem-1300" premiereChannelType="stereo">
						<masterclipid>masterclip-57</masterclipid>
						<name>20160514_185543.mp4</name>
						<enabled>TRUE</enabled>
						<duration>834</duration>
						<rate>
							<timebase>25</timebase>
							<ntsc>FALSE</ntsc>
						</rate>
						<start>22612</start>
						<end>22792</end>
						<in>15</in>
						<out>195</out>
						<pproTicksIn>152409600000</pproTicksIn>
						<pproTicksOut>1981324800000</pproTicksOut>
						<file id="file-57"/>
						<sourcetrack>
							<mediatype>audio</mediatype>
							<trackindex>2</trackindex>
						</sourcetrack>
						<link>
							<linkclipref>clipitem-71</linkclipref>
							<mediatype>video</mediatype>
							<trackindex>1</trackindex>
							<clipindex>71</clipindex>
						</link>
						<link>
							<linkclipref>clipitem-1215</linkclipref>
							<mediatype>audio</mediatype>
							<trackindex>12</trackindex>
							<clipindex>45</clipindex>
							<groupindex>1</groupindex>
						</link>
						<link>
							<linkclipref>clipitem-1300</linkclipref>
							<mediatype>audio</mediatype>
							<trackindex>13</trackindex>
							<clipindex>45</clipindex>
							<groupindex>1</groupindex>
						</link>
						<logginginfo>
							<description></description>
							<scene></scene>
							<shottake></shottake>
							<lognote></lognote>
						</logginginfo>
						<labels>
							<label2>Iris</label2>
						</labels>
					</clipitem>
					<clipitem id="clipitem-1301" premiereChannelType="stereo">
						<masterclipid>masterclip-63</masterclipid>
						<name>AA277101.MXF</name>
						<enabled>TRUE</enabled>
						<duration>5604</duration>
						<rate>
							<timebase>25</timebase>
							<ntsc>FALSE</ntsc>
						</rate>
						<start>26270</start>
						<end>26431</end>
						<in>5368</in>
						<out>5529</out>
						<pproTicksIn>54542315520000</pproTicksIn>
						<pproTicksOut>56178178560000</pproTicksOut>
						<file id="file-63"/>
						<sourcetrack>
							<mediatype>audio</mediatype>
							<trackindex>2</trackindex>
						</sourcetrack>
						<link>
							<linkclipref>clipitem-1216</linkclipref>
							<mediatype>audio</mediatype>
							<trackindex>12</trackindex>
							<clipindex>46</clipindex>
							<groupindex>1</groupindex>
						</link>
						<link>
							<linkclipref>clipitem-1301</linkclipref>
							<mediatype>audio</mediatype>
							<trackindex>13</trackindex>
							<clipindex>46</clipindex>
							<groupindex>1</groupindex>
						</link>
						<logginginfo>
							<description></description>
							<scene></scene>
							<shottake></shottake>
							<lognote></lognote>
						</logginginfo>
						<labels>
							<label2>Iris</label2>
						</labels>
					</clipitem>
					<transitionitem>
						<start>27140</start>
						<end>27146</end>
						<alignment>start-black</alignment>
						<cutPointTicks>0</cutPointTicks>
						<rate>
							<timebase>25</timebase>
							<ntsc>FALSE</ntsc>
						</rate>
						<effect>
							<name>Cross Fade (+3dB)</name>
							<effectid>KGAudioTransCrossFade3dB</effectid>
							<effecttype>transition</effecttype>
							<mediatype>audio</mediatype>
							<wipecode>0</wipecode>
							<wipeaccuracy>100</wipeaccuracy>
							<startratio>0</startratio>
							<endratio>1</endratio>
							<reverse>FALSE</reverse>
						</effect>
					</transitionitem>
					<clipitem id="clipitem-1302" premiereChannelType="stereo">
						<masterclipid>masterclip-67</masterclipid>
						<name>DVNA21000514BA.mxf</name>
						<enabled>TRUE</enabled>
						<duration>397</duration>
						<rate>
							<timebase>25</timebase>
							<ntsc>FALSE</ntsc>
						</rate>
						<start>-1</start>
						<end>-1</end>
						<in>0</in>
						<out>267</out>
						<pproTicksIn>0</pproTicksIn>
						<pproTicksOut>2712890880000</pproTicksOut>
						<file id="file-67"/>
						<sourcetrack>
							<mediatype>audio</mediatype>
							<trackindex>4</trackindex>
						</sourcetrack>
						<link>
							<linkclipref>clipitem-1217</linkclipref>
							<mediatype>audio</mediatype>
							<trackindex>12</trackindex>
							<clipindex>48</clipindex>
							<groupindex>1</groupindex>
						</link>
						<link>
							<linkclipref>clipitem-1302</linkclipref>
							<mediatype>audio</mediatype>
							<trackindex>13</trackindex>
							<clipindex>48</clipindex>
							<groupindex>1</groupindex>
						</link>
						<logginginfo>
							<description>Villmarkas voktere (5:8 @ Villmarkas voktere)</description>
							<scene></scene>
							<shottake></shottake>
							<lognote></lognote>
						</logginginfo>
						<labels>
							<label2>Iris</label2>
						</labels>
					</clipitem>
					<transitionitem>
						<start>27394</start>
						<end>27407</end>
						<alignment>center</alignment>
						<cutPointTicks>60963840000</cutPointTicks>
						<rate>
							<timebase>25</timebase>
							<ntsc>FALSE</ntsc>
						</rate>
						<effect>
							<name>Cross Fade (+3dB)</name>
							<effectid>KGAudioTransCrossFade3dB</effectid>
							<effecttype>transition</effecttype>
							<mediatype>audio</mediatype>
							<wipecode>0</wipecode>
							<wipeaccuracy>100</wipeaccuracy>
							<startratio>0</startratio>
							<endratio>1</endratio>
							<reverse>FALSE</reverse>
						</effect>
					</transitionitem>
					<clipitem id="clipitem-1303" premiereChannelType="stereo">
						<masterclipid>masterclip-67</masterclipid>
						<name>DVNA21000514BA</name>
						<enabled>TRUE</enabled>
						<duration>397</duration>
						<rate>
							<timebase>25</timebase>
							<ntsc>FALSE</ntsc>
						</rate>
						<start>-1</start>
						<end>27457</end>
						<in>254</in>
						<out>317</out>
						<pproTicksIn>2580802560000</pproTicksIn>
						<pproTicksOut>3220922880000</pproTicksOut>
						<file id="file-67"/>
						<sourcetrack>
							<mediatype>audio</mediatype>
							<trackindex>6</trackindex>
						</sourcetrack>
							<filter>
								<effect>
									<name>Audio Levels</name>
									<effectid>audiolevels</effectid>
									<effectcategory>audiolevels</effectcategory>
									<effecttype>audiolevels</effecttype>
									<mediatype>audio</mediatype>
									<parameter authoringApp="PremierePro">
										<parameterid>level</parameterid>
										<name>Level</name>
										<valuemin>0</valuemin>
										<valuemax>3.98109</valuemax>
										<value>0</value>
										<keyframe>
											<when>267</when>
											<value>0.99763</value>
										</keyframe>
										<keyframe>
											<when>282</when>
											<value>0</value>
										</keyframe>
									</parameter>
								</effect>
							</filter>
						<link>
							<linkclipref>clipitem-1218</linkclipref>
							<mediatype>audio</mediatype>
							<trackindex>12</trackindex>
							<clipindex>50</clipindex>
							<groupindex>1</groupindex>
						</link>
						<link>
							<linkclipref>clipitem-1303</linkclipref>
							<mediatype>audio</mediatype>
							<trackindex>13</trackindex>
							<clipindex>50</clipindex>
							<groupindex>1</groupindex>
						</link>
						<logginginfo>
							<description>Villmarkas voktere (5:8 @ Villmarkas voktere)</description>
							<scene></scene>
							<shottake></shottake>
							<lognote></lognote>
						</logginginfo>
						<labels>
							<label2>Iris</label2>
						</labels>
					</clipitem>
					<clipitem id="clipitem-1304" premiereChannelType="stereo">
						<masterclipid>masterclip-72</masterclipid>
						<name>DNPR65008515AA</name>
						<enabled>TRUE</enabled>
						<duration>89053</duration>
						<rate>
							<timebase>25</timebase>
							<ntsc>FALSE</ntsc>
						</rate>
						<start>28050</start>
						<end>28184</end>
						<in>47297</in>
						<out>47431</out>
						<pproTicksIn>480567790080000</pproTicksIn>
						<pproTicksOut>481929315840000</pproTicksOut>
						<file id="file-72"/>
						<sourcetrack>
							<mediatype>audio</mediatype>
							<trackindex>2</trackindex>
						</sourcetrack>
							<filter>
								<effect>
									<name>Audio Levels</name>
									<effectid>audiolevels</effectid>
									<effectcategory>audiolevels</effectcategory>
									<effecttype>audiolevels</effecttype>
									<mediatype>audio</mediatype>
									<parameter authoringApp="PremierePro">
										<parameterid>level</parameterid>
										<name>Level</name>
										<valuemin>0</valuemin>
										<valuemax>3.98109</valuemax>
										<value>0</value>
										<keyframe>
											<when>47310</when>
											<value>0</value>
										</keyframe>
										<keyframe>
											<when>47323</when>
											<value>0.99763</value>
										</keyframe>
									</parameter>
								</effect>
							</filter>
						<link>
							<linkclipref>clipitem-95</linkclipref>
							<mediatype>video</mediatype>
							<trackindex>1</trackindex>
							<clipindex>96</clipindex>
						</link>
						<link>
							<linkclipref>clipitem-1219</linkclipref>
							<mediatype>audio</mediatype>
							<trackindex>12</trackindex>
							<clipindex>51</clipindex>
							<groupindex>1</groupindex>
						</link>
						<link>
							<linkclipref>clipitem-1304</linkclipref>
							<mediatype>audio</mediatype>
							<trackindex>13</trackindex>
							<clipindex>51</clipindex>
							<groupindex>1</groupindex>
						</link>
						<logginginfo>
							<description>Et eventyr gjennom linsa</description>
							<scene></scene>
							<shottake></shottake>
							<lognote></lognote>
						</logginginfo>
						<labels>
							<label2>Iris</label2>
						</labels>
					</clipitem>
					<clipitem id="clipitem-1305" premiereChannelType="stereo">
						<masterclipid>masterclip-72</masterclipid>
						<name>DNPR65008515AA</name>
						<enabled>TRUE</enabled>
						<duration>89053</duration>
						<rate>
							<timebase>25</timebase>
							<ntsc>FALSE</ntsc>
						</rate>
						<start>28350</start>
						<end>28532</end>
						<in>52358</in>
						<out>52540</out>
						<pproTicksIn>531990789120000</pproTicksIn>
						<pproTicksOut>533840025600000</pproTicksOut>
						<file id="file-72"/>
						<sourcetrack>
							<mediatype>audio</mediatype>
							<trackindex>6</trackindex>
						</sourcetrack>
						<link>
							<linkclipref>clipitem-1220</linkclipref>
							<mediatype>audio</mediatype>
							<trackindex>12</trackindex>
							<clipindex>52</clipindex>
							<groupindex>1</groupindex>
						</link>
						<link>
							<linkclipref>clipitem-1305</linkclipref>
							<mediatype>audio</mediatype>
							<trackindex>13</trackindex>
							<clipindex>52</clipindex>
							<groupindex>1</groupindex>
						</link>
						<logginginfo>
							<description>Et eventyr gjennom linsa</description>
							<scene></scene>
							<shottake></shottake>
							<lognote></lognote>
						</logginginfo>
						<labels>
							<label2>Iris</label2>
						</labels>
					</clipitem>
					<clipitem id="clipitem-1306" premiereChannelType="stereo">
						<masterclipid>masterclip-86</masterclipid>
						<name>ANSLAGUllf22nov.mxf</name>
						<enabled>TRUE</enabled>
						<duration>1662</duration>
						<rate>
							<timebase>25</timebase>
							<ntsc>FALSE</ntsc>
						</rate>
						<start>32702</start>
						<end>33012</end>
						<in>0</in>
						<out>310</out>
						<pproTicksIn>0</pproTicksIn>
						<pproTicksOut>3149798400000</pproTicksOut>
						<file id="file-86"/>
						<sourcetrack>
							<mediatype>audio</mediatype>
							<trackindex>2</trackindex>
						</sourcetrack>
						<link>
							<linkclipref>clipitem-123</linkclipref>
							<mediatype>video</mediatype>
							<trackindex>1</trackindex>
							<clipindex>130</clipindex>
						</link>
						<link>
							<linkclipref>clipitem-1221</linkclipref>
							<mediatype>audio</mediatype>
							<trackindex>12</trackindex>
							<clipindex>53</clipindex>
							<groupindex>1</groupindex>
						</link>
						<link>
							<linkclipref>clipitem-1306</linkclipref>
							<mediatype>audio</mediatype>
							<trackindex>13</trackindex>
							<clipindex>53</clipindex>
							<groupindex>1</groupindex>
						</link>
						<logginginfo>
							<description></description>
							<scene></scene>
							<shottake></shottake>
							<lognote></lognote>
						</logginginfo>
						<labels>
							<label2>Iris</label2>
						</labels>
					</clipitem>
					<clipitem id="clipitem-1307" premiereChannelType="stereo">
						<masterclipid>masterclip-86</masterclipid>
						<name>ANSLAGUllf22nov.mxf</name>
						<enabled>TRUE</enabled>
						<duration>1662</duration>
						<rate>
							<timebase>25</timebase>
							<ntsc>FALSE</ntsc>
						</rate>
						<start>33012</start>
						<end>33676</end>
						<in>526</in>
						<out>1190</out>
						<pproTicksIn>5344496640000</pproTicksIn>
						<pproTicksOut>12091161600000</pproTicksOut>
						<file id="file-86"/>
						<sourcetrack>
							<mediatype>audio</mediatype>
							<trackindex>2</trackindex>
						</sourcetrack>
							<filter>
								<effect>
									<name>Audio Levels</name>
									<effectid>audiolevels</effectid>
									<effectcategory>audiolevels</effectcategory>
									<effecttype>audiolevels</effecttype>
									<mediatype>audio</mediatype>
									<parameter authoringApp="PremierePro">
										<parameterid>level</parameterid>
										<name>Level</name>
										<valuemin>0</valuemin>
										<valuemax>3.98109</valuemax>
										<value>0</value>
										<keyframe>
											<when>987</when>
											<value>0.99763</value>
										</keyframe>
										<keyframe>
											<when>1026</when>
											<value>0.903495</value>
										</keyframe>
										<keyframe>
											<when>1055</when>
											<value>0.613364</value>
										</keyframe>
										<keyframe>
											<when>1074</when>
											<value>0.361074</value>
										</keyframe>
										<keyframe>
											<when>1108</when>
											<value>0.0756135</value>
										</keyframe>
										<keyframe>
											<when>1170</when>
											<value>0</value>
										</keyframe>
										<keyframe>
											<when>1200</when>
											<value>0</value>
										</keyframe>
										<keyframe>
											<when>1355</when>
											<value>0.99763</value>
										</keyframe>
										<keyframe>
											<when>1383</when>
											<value>0.844148</value>
										</keyframe>
										<keyframe>
											<when>1425</when>
											<value>0.695215</value>
										</keyframe>
										<keyframe>
											<when>1454</when>
											<value>0.331449</value>
										</keyframe>
										<keyframe>
											<when>1489</when>
											<value>0.179062</value>
										</keyframe>
										<keyframe>
											<when>1543</when>
											<value>0</value>
										</keyframe>
									</parameter>
								</effect>
							</filter>
						<link>
							<linkclipref>clipitem-124</linkclipref>
							<mediatype>video</mediatype>
							<trackindex>1</trackindex>
							<clipindex>131</clipindex>
						</link>
						<link>
							<linkclipref>clipitem-1222</linkclipref>
							<mediatype>audio</mediatype>
							<trackindex>12</trackindex>
							<clipindex>54</clipindex>
							<groupindex>1</groupindex>
						</link>
						<link>
							<linkclipref>clipitem-1307</linkclipref>
							<mediatype>audio</mediatype>
							<trackindex>13</trackindex>
							<clipindex>54</clipindex>
							<groupindex>1</groupindex>
						</link>
						<logginginfo>
							<description></description>
							<scene></scene>
							<shottake></shottake>
							<lognote></lognote>
						</logginginfo>
						<labels>
							<label2>Iris</label2>
						</labels>
					</clipitem>
					<clipitem id="clipitem-1308" premiereChannelType="stereo">
						<masterclipid>masterclip-326</masterclipid>
						<name>AA278401.MXF</name>
						<enabled>TRUE</enabled>
						<duration>7896</duration>
						<rate>
							<timebase>25</timebase>
							<ntsc>FALSE</ntsc>
						</rate>
						<start>36434</start>
						<end>36469</end>
						<in>7861</in>
						<out>7896</out>
						<pproTicksIn>79872791040000</pproTicksIn>
						<pproTicksOut>80228413440000</pproTicksOut>
						<file id="file-326"/>
						<sourcetrack>
							<mediatype>audio</mediatype>
							<trackindex>1</trackindex>
						</sourcetrack>
						<link>
							<linkclipref>clipitem-1223</linkclipref>
							<mediatype>audio</mediatype>
							<trackindex>12</trackindex>
							<clipindex>55</clipindex>
							<groupindex>1</groupindex>
						</link>
						<link>
							<linkclipref>clipitem-1308</linkclipref>
							<mediatype>audio</mediatype>
							<trackindex>13</trackindex>
							<clipindex>55</clipindex>
							<groupindex>1</groupindex>
						</link>
						<logginginfo>
							<description></description>
							<scene></scene>
							<shottake></shottake>
							<lognote></lognote>
						</logginginfo>
						<labels>
							<label2>Iris</label2>
						</labels>
					</clipitem>
					<clipitem id="clipitem-1309" premiereChannelType="stereo">
						<masterclipid>masterclip-96</masterclipid>
						<name>AA278402.MXF</name>
						<enabled>TRUE</enabled>
						<duration>816</duration>
						<rate>
							<timebase>25</timebase>
							<ntsc>FALSE</ntsc>
						</rate>
						<start>36469</start>
						<end>-1</end>
						<in>0</in>
						<out>72</out>
						<pproTicksIn>0</pproTicksIn>
						<pproTicksOut>731566080000</pproTicksOut>
						<file id="file-96"/>
						<sourcetrack>
							<mediatype>audio</mediatype>
							<trackindex>1</trackindex>
						</sourcetrack>
						<link>
							<linkclipref>clipitem-1224</linkclipref>
							<mediatype>audio</mediatype>
							<trackindex>12</trackindex>
							<clipindex>56</clipindex>
							<groupindex>1</groupindex>
						</link>
						<link>
							<linkclipref>clipitem-1309</linkclipref>
							<mediatype>audio</mediatype>
							<trackindex>13</trackindex>
							<clipindex>56</clipindex>
							<groupindex>1</groupindex>
						</link>
						<logginginfo>
							<description></description>
							<scene></scene>
							<shottake></shottake>
							<lognote></lognote>
						</logginginfo>
						<labels>
							<label2>Iris</label2>
						</labels>
					</clipitem>
					<transitionitem>
						<start>36540</start>
						<end>36541</end>
						<alignment>start</alignment>
						<cutPointTicks>0</cutPointTicks>
						<rate>
							<timebase>25</timebase>
							<ntsc>FALSE</ntsc>
						</rate>
						<effect>
							<name>Cross Fade (+3dB)</name>
							<effectid>KGAudioTransCrossFade3dB</effectid>
							<effecttype>transition</effecttype>
							<mediatype>audio</mediatype>
							<wipecode>0</wipecode>
							<wipeaccuracy>100</wipeaccuracy>
							<startratio>0</startratio>
							<endratio>1</endratio>
							<reverse>FALSE</reverse>
						</effect>
					</transitionitem>
					<clipitem id="clipitem-1310" premiereChannelType="stereo">
						<masterclipid>masterclip-96</masterclipid>
						<name>AA278402.MXF</name>
						<enabled>TRUE</enabled>
						<duration>816</duration>
						<rate>
							<timebase>25</timebase>
							<ntsc>FALSE</ntsc>
						</rate>
						<start>-1</start>
						<end>36638</end>
						<in>169</in>
						<out>267</out>
						<pproTicksIn>1717148160000</pproTicksIn>
						<pproTicksOut>2712890880000</pproTicksOut>
						<file id="file-96"/>
						<sourcetrack>
							<mediatype>audio</mediatype>
							<trackindex>1</trackindex>
						</sourcetrack>
						<link>
							<linkclipref>clipitem-1225</linkclipref>
							<mediatype>audio</mediatype>
							<trackindex>12</trackindex>
							<clipindex>58</clipindex>
							<groupindex>1</groupindex>
						</link>
						<link>
							<linkclipref>clipitem-1310</linkclipref>
							<mediatype>audio</mediatype>
							<trackindex>13</trackindex>
							<clipindex>58</clipindex>
							<groupindex>1</groupindex>
						</link>
						<logginginfo>
							<description></description>
							<scene></scene>
							<shottake></shottake>
							<lognote></lognote>
						</logginginfo>
						<labels>
							<label2>Iris</label2>
						</labels>
					</clipitem>
					<clipitem id="clipitem-1311" premiereChannelType="stereo">
						<masterclipid>masterclip-96</masterclipid>
						<name>AA278402.MXF</name>
						<enabled>TRUE</enabled>
						<duration>816</duration>
						<rate>
							<timebase>25</timebase>
							<ntsc>FALSE</ntsc>
						</rate>
						<start>36638</start>
						<end>36891</end>
						<in>482</in>
						<out>735</out>
						<pproTicksIn>4897428480000</pproTicksIn>
						<pproTicksOut>7468070400000</pproTicksOut>
						<file id="file-96"/>
						<sourcetrack>
							<mediatype>audio</mediatype>
							<trackindex>1</trackindex>
						</sourcetrack>
						<link>
							<linkclipref>clipitem-1226</linkclipref>
							<mediatype>audio</mediatype>
							<trackindex>12</trackindex>
							<clipindex>59</clipindex>
							<groupindex>1</groupindex>
						</link>
						<link>
							<linkclipref>clipitem-1311</linkclipref>
							<mediatype>audio</mediatype>
							<trackindex>13</trackindex>
							<clipindex>59</clipindex>
							<groupindex>1</groupindex>
						</link>
						<logginginfo>
							<description></description>
							<scene></scene>
							<shottake></shottake>
							<lognote></lognote>
						</logginginfo>
						<labels>
							<label2>Iris</label2>
						</labels>
					</clipitem>
					<clipitem id="clipitem-1312" premiereChannelType="stereo">
						<masterclipid>masterclip-327</masterclipid>
						<name>VIND MIDDELS STERK HYLENDE 2.WAV</name>
						<enabled>TRUE</enabled>
						<duration>1305</duration>
						<rate>
							<timebase>25</timebase>
							<ntsc>FALSE</ntsc>
						</rate>
						<start>36992</start>
						<end>37452</end>
						<in>99</in>
						<out>558</out>
						<pproTicksIn>1005903360000</pproTicksIn>
						<pproTicksOut>5669637120000</pproTicksOut>
						<file id="file-327"/>
						<sourcetrack>
							<mediatype>audio</mediatype>
							<trackindex>2</trackindex>
						</sourcetrack>
							<filter>
								<effect>
									<name>Audio Levels</name>
									<effectid>audiolevels</effectid>
									<effectcategory>audiolevels</effectcategory>
									<effecttype>audiolevels</effecttype>
									<mediatype>audio</mediatype>
									<parameter authoringApp="PremierePro">
										<parameterid>level</parameterid>
										<name>Level</name>
										<valuemin>0</valuemin>
										<valuemax>3.98109</valuemax>
										<value>0</value>
										<keyframe>
											<when>105</when>
											<value>0</value>
										</keyframe>
										<keyframe>
											<when>152</when>
											<value>0.99763</value>
										</keyframe>
										<keyframe>
											<when>480</when>
											<value>0.99763</value>
										</keyframe>
										<keyframe>
											<when>549</when>
											<value>0</value>
										</keyframe>
									</parameter>
								</effect>
							</filter>
						<link>
							<linkclipref>clipitem-1227</linkclipref>
							<mediatype>audio</mediatype>
							<trackindex>12</trackindex>
							<clipindex>60</clipindex>
							<groupindex>1</groupindex>
						</link>
						<link>
							<linkclipref>clipitem-1312</linkclipref>
							<mediatype>audio</mediatype>
							<trackindex>13</trackindex>
							<clipindex>60</clipindex>
							<groupindex>1</groupindex>
						</link>
						<logginginfo>
							<description></description>
							<scene></scene>
							<shottake></shottake>
							<lognote></lognote>
						</logginginfo>
						<labels>
							<label2>Iris</label2>
						</labels>
					</clipitem>
					<transitionitem>
						<start>38943</start>
						<end>38955</end>
						<alignment>start-black</alignment>
						<cutPointTicks>0</cutPointTicks>
						<rate>
							<timebase>25</timebase>
							<ntsc>FALSE</ntsc>
						</rate>
						<effect>
							<name>Cross Fade (+3dB)</name>
							<effectid>KGAudioTransCrossFade3dB</effectid>
							<effecttype>transition</effecttype>
							<mediatype>audio</mediatype>
							<wipecode>0</wipecode>
							<wipeaccuracy>100</wipeaccuracy>
							<startratio>0</startratio>
							<endratio>1</endratio>
							<reverse>FALSE</reverse>
						</effect>
					</transitionitem>
					<clipitem id="clipitem-1313" premiereChannelType="stereo">
						<masterclipid>masterclip-98</masterclipid>
						<name>DVNA60000316AA</name>
						<enabled>TRUE</enabled>
						<duration>58641</duration>
						<rate>
							<timebase>25</timebase>
							<ntsc>FALSE</ntsc>
						</rate>
						<start>-1</start>
						<end>39425</end>
						<in>4620</in>
						<out>5103</out>
						<pproTicksIn>46942156800000</pproTicksIn>
						<pproTicksOut>51849745920000</pproTicksOut>
						<file id="file-98"/>
						<sourcetrack>
							<mediatype>audio</mediatype>
							<trackindex>6</trackindex>
						</sourcetrack>
							<filter>
								<effect>
									<name>Audio Levels</name>
									<effectid>audiolevels</effectid>
									<effectcategory>audiolevels</effectcategory>
									<effecttype>audiolevels</effecttype>
									<mediatype>audio</mediatype>
									<parameter authoringApp="PremierePro">
										<parameterid>level</parameterid>
										<name>Level</name>
										<valuemin>0</valuemin>
										<valuemax>3.98109</valuemax>
										<value>0</value>
										<keyframe>
											<when>4779</when>
											<value>0.530654</value>
										</keyframe>
										<keyframe>
											<when>4802</when>
											<value>0.191036</value>
										</keyframe>
										<keyframe>
											<when>4993</when>
											<value>0.191036</value>
										</keyframe>
										<keyframe>
											<when>5026</when>
											<value>0.658011</value>
										</keyframe>
										<keyframe>
											<when>5048</when>
											<value>0.700464</value>
										</keyframe>
										<keyframe>
											<when>5080</when>
											<value>0</value>
										</keyframe>
									</parameter>
								</effect>
							</filter>
						<link>
							<linkclipref>clipitem-1228</linkclipref>
							<mediatype>audio</mediatype>
							<trackindex>12</trackindex>
							<clipindex>62</clipindex>
							<groupindex>1</groupindex>
						</link>
						<link>
							<linkclipref>clipitem-1313</linkclipref>
							<mediatype>audio</mediatype>
							<trackindex>13</trackindex>
							<clipindex>62</clipindex>
							<groupindex>1</groupindex>
						</link>
						<logginginfo>
							<description>Ut i naturen - Hornøya</description>
							<scene></scene>
							<shottake></shottake>
							<lognote></lognote>
						</logginginfo>
						<labels>
							<label2>Iris</label2>
						</labels>
					</clipitem>
					<clipitem id="clipitem-1314" premiereChannelType="stereo">
						<masterclipid>masterclip-108</masterclipid>
						<name>00067.MTS</name>
						<enabled>TRUE</enabled>
						<duration>858</duration>
						<rate>
							<timebase>25</timebase>
							<ntsc>FALSE</ntsc>
						</rate>
						<start>39769</start>
						<end>40134</end>
						<in>70</in>
						<out>435</out>
						<pproTicksIn>711244800000</pproTicksIn>
						<pproTicksOut>4419878400000</pproTicksOut>
						<file id="file-108"/>
						<sourcetrack>
							<mediatype>audio</mediatype>
							<trackindex>2</trackindex>
						</sourcetrack>
							<filter>
								<effect>
									<name>Audio Levels</name>
									<effectid>audiolevels</effectid>
									<effectcategory>audiolevels</effectcategory>
									<effecttype>audiolevels</effecttype>
									<mediatype>audio</mediatype>
									<parameter authoringApp="PremierePro">
										<parameterid>level</parameterid>
										<name>Level</name>
										<valuemin>0</valuemin>
										<valuemax>3.98109</valuemax>
										<value>0.658011</value>
									</parameter>
								</effect>
							</filter>
						<link>
							<linkclipref>clipitem-1229</linkclipref>
							<mediatype>audio</mediatype>
							<trackindex>12</trackindex>
							<clipindex>63</clipindex>
							<groupindex>1</groupindex>
						</link>
						<link>
							<linkclipref>clipitem-1314</linkclipref>
							<mediatype>audio</mediatype>
							<trackindex>13</trackindex>
							<clipindex>63</clipindex>
							<groupindex>1</groupindex>
						</link>
						<logginginfo>
							<description></description>
							<scene></scene>
							<shottake></shottake>
							<lognote></lognote>
						</logginginfo>
						<labels>
							<label2>Iris</label2>
						</labels>
					</clipitem>
					<clipitem id="clipitem-1315" premiereChannelType="stereo">
						<masterclipid>masterclip-211</masterclipid>
						<name>5E4A0180.MOV</name>
						<enabled>TRUE</enabled>
						<duration>585</duration>
						<rate>
							<timebase>25</timebase>
							<ntsc>FALSE</ntsc>
						</rate>
						<start>40492</start>
						<end>41077</end>
						<in>0</in>
						<out>585</out>
						<pproTicksIn>0</pproTicksIn>
						<pproTicksOut>5943974400000</pproTicksOut>
						<file id="file-211"/>
						<sourcetrack>
							<mediatype>audio</mediatype>
							<trackindex>2</trackindex>
						</sourcetrack>
							<filter>
								<effect>
									<name>Gain</name>
									<effectid>{61756678, 4761696e, 4b657947}</effectid>
									<effecttype>filter</effecttype>
									<mediatype>audio</mediatype>
									<parameter authoringApp="PremierePro">
										<parameterid>Gain(dB)</parameterid>
										<name>Gain(dB)</name>
										<valuemin>-96</valuemin>
										<valuemax>96</valuemax>
										<value>-5</value>
									</parameter>
								</effect>
							</filter>
							<filter>
								<effect>
									<name>Audio Levels</name>
									<effectid>audiolevels</effectid>
									<effectcategory>audiolevels</effectcategory>
									<effecttype>audiolevels</effecttype>
									<mediatype>audio</mediatype>
									<parameter authoringApp="PremierePro">
										<parameterid>level</parameterid>
										<name>Level</name>
										<valuemin>0</valuemin>
										<valuemax>3.98109</valuemax>
										<value>0</value>
										<keyframe>
											<when>30</when>
											<value>0.106131</value>
										</keyframe>
										<keyframe>
											<when>70</when>
											<value>0.44575</value>
										</keyframe>
										<keyframe>
											<when>74</when>
											<value>0.99763</value>
										</keyframe>
										<keyframe>
											<when>490</when>
											<value>0.99763</value>
										</keyframe>
										<keyframe>
											<when>531</when>
											<value>0</value>
										</keyframe>
									</parameter>
								</effect>
							</filter>
						<link>
							<linkclipref>clipitem-340</linkclipref>
							<mediatype>video</mediatype>
							<trackindex>2</trackindex>
							<clipindex>84</clipindex>
						</link>
						<link>
							<linkclipref>clipitem-1230</linkclipref>
							<mediatype>audio</mediatype>
							<trackindex>12</trackindex>
							<clipindex>64</clipindex>
							<groupindex>1</groupindex>
						</link>
						<link>
							<linkclipref>clipitem-1315</linkclipref>
							<mediatype>audio</mediatype>
							<trackindex>13</trackindex>
							<clipindex>64</clipindex>
							<groupindex>1</groupindex>
						</link>
						<logginginfo>
							<description>Skarv har lagt reir under kamerafeste</description>
							<scene></scene>
							<shottake></shottake>
							<lognote></lognote>
						</logginginfo>
						<labels>
							<label2>Iris</label2>
						</labels>
					</clipitem>
					<clipitem id="clipitem-1316" premiereChannelType="stereo">
						<masterclipid>masterclip-98</masterclipid>
						<name>DVNA60000316AA</name>
						<enabled>TRUE</enabled>
						<duration>58641</duration>
						<rate>
							<timebase>25</timebase>
							<ntsc>FALSE</ntsc>
						</rate>
						<start>41231</start>
						<end>41825</end>
						<in>17507</in>
						<out>18101</out>
						<pproTicksIn>177882324480000</pproTicksIn>
						<pproTicksOut>183917744640000</pproTicksOut>
						<file id="file-98"/>
						<sourcetrack>
							<mediatype>audio</mediatype>
							<trackindex>4</trackindex>
						</sourcetrack>
							<filter>
								<effect>
									<name>Audio Levels</name>
									<effectid>audiolevels</effectid>
									<effectcategory>audiolevels</effectcategory>
									<effecttype>audiolevels</effecttype>
									<mediatype>audio</mediatype>
									<parameter authoringApp="PremierePro">
										<parameterid>level</parameterid>
										<name>Level</name>
										<valuemin>0</valuemin>
										<valuemax>3.98109</valuemax>
										<value>0</value>
										<keyframe>
											<when>17521</when>
											<value>0</value>
										</keyframe>
										<keyframe>
											<when>17555</when>
											<value>1.04008</value>
										</keyframe>
										<keyframe>
											<when>17744</when>
											<value>0.99763</value>
										</keyframe>
										<keyframe>
											<when>17785</when>
											<value>0.752598</value>
										</keyframe>
										<keyframe>
											<when>17943</when>
											<value>0.752598</value>
										</keyframe>
										<keyframe>
											<when>18089</when>
											<value>0</value>
										</keyframe>
									</parameter>
								</effect>
							</filter>
						<link>
							<linkclipref>clipitem-1231</linkclipref>
							<mediatype>audio</mediatype>
							<trackindex>12</trackindex>
							<clipindex>65</clipindex>
							<groupindex>1</groupindex>
						</link>
						<link>
							<linkclipref>clipitem-1316</linkclipref>
							<mediatype>audio</mediatype>
							<trackindex>13</trackindex>
							<clipindex>65</clipindex>
							<groupindex>1</groupindex>
						</link>
						<logginginfo>
							<description>Ut i naturen - Hornøya</description>
							<scene></scene>
							<shottake></shottake>
							<lognote></lognote>
						</logginginfo>
						<labels>
							<label2>Iris</label2>
						</labels>
					</clipitem>
					<clipitem id="clipitem-1317" premiereChannelType="stereo">
						<masterclipid>masterclip-221</masterclipid>
						<name>00040.mxf</name>
						<enabled>TRUE</enabled>
						<duration>1812</duration>
						<rate>
							<timebase>25</timebase>
							<ntsc>FALSE</ntsc>
						</rate>
						<start>43897</start>
						<end>44379</end>
						<in>195</in>
						<out>677</out>
						<pproTicksIn>1981324800000</pproTicksIn>
						<pproTicksOut>6878753280000</pproTicksOut>
						<file id="file-221"/>
						<sourcetrack>
							<mediatype>audio</mediatype>
							<trackindex>2</trackindex>
						</sourcetrack>
							<filter>
								<effect>
									<name>Audio Levels</name>
									<effectid>audiolevels</effectid>
									<effectcategory>audiolevels</effectcategory>
									<effecttype>audiolevels</effecttype>
									<mediatype>audio</mediatype>
									<parameter authoringApp="PremierePro">
										<parameterid>level</parameterid>
										<name>Level</name>
										<valuemin>0</valuemin>
										<valuemax>3.98109</valuemax>
										<value>0</value>
										<keyframe>
											<when>160</when>
											<value>0</value>
										</keyframe>
										<keyframe>
											<when>189</when>
											<value>1.04008</value>
										</keyframe>
										<keyframe>
											<when>195</when>
											<value>0</value>
										</keyframe>
										<keyframe>
											<when>225</when>
											<value>1.04008</value>
										</keyframe>
										<keyframe>
											<when>320</when>
											<value>1.04008</value>
										</keyframe>
										<keyframe>
											<when>336</when>
											<value>1.59196</value>
										</keyframe>
										<keyframe>
											<when>658</when>
											<value>1.63442</value>
										</keyframe>
										<keyframe>
											<when>671</when>
											<value>0</value>
										</keyframe>
									</parameter>
								</effect>
							</filter>
						<link>
							<linkclipref>clipitem-1232</linkclipref>
							<mediatype>audio</mediatype>
							<trackindex>12</trackindex>
							<clipindex>66</clipindex>
							<groupindex>1</groupindex>
						</link>
						<link>
							<linkclipref>clipitem-1317</linkclipref>
							<mediatype>audio</mediatype>
							<trackindex>13</trackindex>
							<clipindex>66</clipindex>
							<groupindex>1</groupindex>
						</link>
						<logginginfo>
							<description></description>
							<scene></scene>
							<shottake></shottake>
							<lognote></lognote>
						</logginginfo>
						<labels>
							<label2>Iris</label2>
						</labels>
					</clipitem>
					<clipitem id="clipitem-1318" premiereChannelType="stereo">
						<masterclipid>masterclip-110</masterclipid>
						<name>NRK2-250616.mxf</name>
						<enabled>TRUE</enabled>
						<duration>186000</duration>
						<rate>
							<timebase>25</timebase>
							<ntsc>FALSE</ntsc>
						</rate>
						<start>45772</start>
						<end>45968</end>
						<in>67643</in>
						<out>67839</out>
						<pproTicksIn>687296171520000</pproTicksIn>
						<pproTicksOut>689287656960000</pproTicksOut>
						<file id="file-110"/>
						<sourcetrack>
							<mediatype>audio</mediatype>
							<trackindex>4</trackindex>
						</sourcetrack>
						<link>
							<linkclipref>clipitem-159</linkclipref>
							<mediatype>video</mediatype>
							<trackindex>1</trackindex>
							<clipindex>168</clipindex>
						</link>
						<link>
							<linkclipref>clipitem-1233</linkclipref>
							<mediatype>audio</mediatype>
							<trackindex>12</trackindex>
							<clipindex>67</clipindex>
							<groupindex>1</groupindex>
						</link>
						<link>
							<linkclipref>clipitem-1318</linkclipref>
							<mediatype>audio</mediatype>
							<trackindex>13</trackindex>
							<clipindex>67</clipindex>
							<groupindex>1</groupindex>
						</link>
						<logginginfo>
							<description>Program 10</description>
							<scene></scene>
							<shottake></shottake>
							<lognote></lognote>
						</logginginfo>
						<labels>
							<label2>Iris</label2>
						</labels>
					</clipitem>
					<clipitem id="clipitem-1319" premiereChannelType="stereo">
						<masterclipid>masterclip-111</masterclipid>
						<name>NRK1-PGM-120716.mxf</name>
						<enabled>TRUE</enabled>
						<duration>81000</duration>
						<rate>
							<timebase>25</timebase>
							<ntsc>FALSE</ntsc>
						</rate>
						<start>46238</start>
						<end>46656</end>
						<in>30842</in>
						<out>31260</out>
						<pproTicksIn>313374458880000</pproTicksIn>
						<pproTicksOut>317621606400000</pproTicksOut>
						<file id="file-111"/>
						<sourcetrack>
							<mediatype>audio</mediatype>
							<trackindex>2</trackindex>
						</sourcetrack>
							<filter>
								<effect>
									<name>Audio Levels</name>
									<effectid>audiolevels</effectid>
									<effectcategory>audiolevels</effectcategory>
									<effecttype>audiolevels</effecttype>
									<mediatype>audio</mediatype>
									<parameter authoringApp="PremierePro">
										<parameterid>level</parameterid>
										<name>Level</name>
										<valuemin>0</valuemin>
										<valuemax>3.98109</valuemax>
										<value>0.233488</value>
										<keyframe>
											<when>30851</when>
											<value>0.233488</value>
										</keyframe>
										<keyframe>
											<when>30900</when>
											<value>0.615559</value>
										</keyframe>
										<keyframe>
											<when>30920</when>
											<value>0.99763</value>
										</keyframe>
										<keyframe>
											<when>31198</when>
											<value>0.99763</value>
										</keyframe>
										<keyframe>
											<when>31255</when>
											<value>0</value>
										</keyframe>
									</parameter>
								</effect>
							</filter>
						<link>
							<linkclipref>clipitem-373</linkclipref>
							<mediatype>video</mediatype>
							<trackindex>2</trackindex>
							<clipindex>117</clipindex>
						</link>
						<link>
							<linkclipref>clipitem-1234</linkclipref>
							<mediatype>audio</mediatype>
							<trackindex>12</trackindex>
							<clipindex>68</clipindex>
							<groupindex>1</groupindex>
						</link>
						<link>
							<linkclipref>clipitem-1319</linkclipref>
							<mediatype>audio</mediatype>
							<trackindex>13</trackindex>
							<clipindex>68</clipindex>
							<groupindex>1</groupindex>
						</link>
						<logginginfo>
							<description>DVNA20000916</description>
							<scene></scene>
							<shottake></shottake>
							<lognote></lognote>
						</logginginfo>
						<labels>
							<label2>Iris</label2>
						</labels>
					</clipitem>
					<clipitem id="clipitem-1320" premiereChannelType="stereo">
						<masterclipid>masterclip-231</masterclipid>
						<name>NRK1-CF-120716.mxf</name>
						<enabled>TRUE</enabled>
						<duration>81000</duration>
						<rate>
							<timebase>25</timebase>
							<ntsc>FALSE</ntsc>
						</rate>
						<start>46669</start>
						<end>47108</end>
						<in>31942</in>
						<out>32381</out>
						<pproTicksIn>324551162880000</pproTicksIn>
						<pproTicksOut>329011683840000</pproTicksOut>
						<file id="file-231"/>
						<sourcetrack>
							<mediatype>audio</mediatype>
							<trackindex>2</trackindex>
						</sourcetrack>
							<filter>
								<effect>
									<name>Audio Levels</name>
									<effectid>audiolevels</effectid>
									<effectcategory>audiolevels</effectcategory>
									<effecttype>audiolevels</effecttype>
									<mediatype>audio</mediatype>
									<parameter authoringApp="PremierePro">
										<parameterid>level</parameterid>
										<name>Level</name>
										<valuemin>0</valuemin>
										<valuemax>3.98109</valuemax>
										<value>0</value>
										<keyframe>
											<when>31946</when>
											<value>0</value>
										</keyframe>
										<keyframe>
											<when>31974</when>
											<value>0.99763</value>
										</keyframe>
										<keyframe>
											<when>32358</when>
											<value>0.99763</value>
										</keyframe>
										<keyframe>
											<when>32378</when>
											<value>0</value>
										</keyframe>
									</parameter>
								</effect>
							</filter>
						<link>
							<linkclipref>clipitem-375</linkclipref>
							<mediatype>video</mediatype>
							<trackindex>2</trackindex>
							<clipindex>119</clipindex>
						</link>
						<link>
							<linkclipref>clipitem-1235</linkclipref>
							<mediatype>audio</mediatype>
							<trackindex>12</trackindex>
							<clipindex>69</clipindex>
							<groupindex>1</groupindex>
						</link>
						<link>
							<linkclipref>clipitem-1320</linkclipref>
							<mediatype>audio</mediatype>
							<trackindex>13</trackindex>
							<clipindex>69</clipindex>
							<groupindex>1</groupindex>
						</link>
						<logginginfo>
							<description>DVNA20000916</description>
							<scene></scene>
							<shottake></shottake>
							<lognote></lognote>
						</logginginfo>
						<labels>
							<label2>Iris</label2>
						</labels>
					</clipitem>
					<transitionitem>
						<start>50427</start>
						<end>50440</end>
						<alignment>start-black</alignment>
						<cutPointTicks>0</cutPointTicks>
						<rate>
							<timebase>25</timebase>
							<ntsc>FALSE</ntsc>
						</rate>
						<effect>
							<name>Cross Fade (+3dB)</name>
							<effectid>KGAudioTransCrossFade3dB</effectid>
							<effecttype>transition</effecttype>
							<mediatype>audio</mediatype>
							<wipecode>0</wipecode>
							<wipeaccuracy>100</wipeaccuracy>
							<startratio>0</startratio>
							<endratio>1</endratio>
							<reverse>FALSE</reverse>
						</effect>
					</transitionitem>
					<clipitem id="clipitem-1321" premiereChannelType="stereo">
						<masterclipid>masterclip-241</masterclipid>
						<name>DVNA25000316AU.mxf</name>
						<enabled>TRUE</enabled>
						<duration>181500</duration>
						<rate>
							<timebase>25</timebase>
							<ntsc>FALSE</ntsc>
						</rate>
						<start>-1</start>
						<end>-1</end>
						<in>50355</in>
						<out>50532</out>
						<pproTicksIn>511639027200000</pproTicksIn>
						<pproTicksOut>513437460480000</pproTicksOut>
						<file id="file-241"/>
						<sourcetrack>
							<mediatype>audio</mediatype>
							<trackindex>4</trackindex>
						</sourcetrack>
							<filter>
								<effect>
									<name>Audio Levels</name>
									<effectid>audiolevels</effectid>
									<effectcategory>audiolevels</effectcategory>
									<effecttype>audiolevels</effecttype>
									<mediatype>audio</mediatype>
									<parameter authoringApp="PremierePro">
										<parameterid>level</parameterid>
										<name>Level</name>
										<valuemin>0</valuemin>
										<valuemax>3.98109</valuemax>
										<value>0</value>
										<keyframe>
											<when>50267</when>
											<value>0</value>
										</keyframe>
										<keyframe>
											<when>50297</when>
											<value>0.99763</value>
										</keyframe>
										<keyframe>
											<when>50327</when>
											<value>0</value>
										</keyframe>
										<keyframe>
											<when>50385</when>
											<value>0.742916</value>
										</keyframe>
										<keyframe>
											<when>50885</when>
											<value>0.785368</value>
										</keyframe>
										<keyframe>
											<when>50956</when>
											<value>0</value>
										</keyframe>
									</parameter>
								</effect>
							</filter>
						<link>
							<linkclipref>clipitem-1236</linkclipref>
							<mediatype>audio</mediatype>
							<trackindex>12</trackindex>
							<clipindex>71</clipindex>
							<groupindex>1</groupindex>
						</link>
						<link>
							<linkclipref>clipitem-1321</linkclipref>
							<mediatype>audio</mediatype>
							<trackindex>13</trackindex>
							<clipindex>71</clipindex>
							<groupindex>1</groupindex>
						</link>
						<logginginfo>
							<description>Program 3</description>
							<scene></scene>
							<shottake></shottake>
							<lognote></lognote>
						</logginginfo>
						<labels>
							<label2>Iris</label2>
						</labels>
					</clipitem>
					<transitionitem>
						<start>50592</start>
						<end>50604</end>
						<alignment>center</alignment>
						<cutPointTicks>60963840000</cutPointTicks>
						<rate>
							<timebase>25</timebase>
							<ntsc>FALSE</ntsc>
						</rate>
						<effect>
							<name>Cross Fade (+3dB)</name>
							<effectid>KGAudioTransCrossFade3dB</effectid>
							<effecttype>transition</effecttype>
							<mediatype>audio</mediatype>
							<wipecode>0</wipecode>
							<wipeaccuracy>100</wipeaccuracy>
							<startratio>0</startratio>
							<endratio>1</endratio>
							<reverse>FALSE</reverse>
						</effect>
					</transitionitem>
					<clipitem id="clipitem-1322" premiereChannelType="stereo">
						<masterclipid>masterclip-328</masterclipid>
						<name>NRK2-230616 (1).mxf</name>
						<enabled>TRUE</enabled>
						<duration>183000</duration>
						<rate>
							<timebase>25</timebase>
							<ntsc>FALSE</ntsc>
						</rate>
						<start>-1</start>
						<end>-1</end>
						<in>127823</in>
						<out>128032</out>
						<pproTicksIn>1298763486720000</pproTicksIn>
						<pproTicksOut>1300887060480000</pproTicksOut>
						<file id="file-328"/>
						<sourcetrack>
							<mediatype>audio</mediatype>
							<trackindex>4</trackindex>
						</sourcetrack>
							<filter>
								<effect>
									<name>Audio Levels</name>
									<effectid>audiolevels</effectid>
									<effectcategory>audiolevels</effectcategory>
									<effecttype>audiolevels</effecttype>
									<mediatype>audio</mediatype>
									<parameter authoringApp="PremierePro">
										<parameterid>level</parameterid>
										<name>Level</name>
										<valuemin>0</valuemin>
										<valuemax>3.98109</valuemax>
										<value>0.785368</value>
									</parameter>
								</effect>
							</filter>
						<link>
							<linkclipref>clipitem-1237</linkclipref>
							<mediatype>audio</mediatype>
							<trackindex>12</trackindex>
							<clipindex>73</clipindex>
							<groupindex>1</groupindex>
						</link>
						<link>
							<linkclipref>clipitem-1322</linkclipref>
							<mediatype>audio</mediatype>
							<trackindex>13</trackindex>
							<clipindex>73</clipindex>
							<groupindex>1</groupindex>
						</link>
						<logginginfo>
							<description>Program 8</description>
							<scene></scene>
							<shottake></shottake>
							<lognote></lognote>
						</logginginfo>
						<labels>
							<label2>Iris</label2>
						</labels>
					</clipitem>
					<transitionitem>
						<start>50787</start>
						<end>50800</end>
						<alignment>center</alignment>
						<cutPointTicks>60963840000</cutPointTicks>
						<rate>
							<timebase>25</timebase>
							<ntsc>FALSE</ntsc>
						</rate>
						<effect>
							<name>Cross Fade (+3dB)</name>
							<effectid>KGAudioTransCrossFade3dB</effectid>
							<effecttype>transition</effecttype>
							<mediatype>audio</mediatype>
							<wipecode>0</wipecode>
							<wipeaccuracy>100</wipeaccuracy>
							<startratio>0</startratio>
							<endratio>1</endratio>
							<reverse>FALSE</reverse>
						</effect>
					</transitionitem>
					<clipitem id="clipitem-1323" premiereChannelType="stereo">
						<masterclipid>masterclip-241</masterclipid>
						<name>DVNA25000316AU.mxf</name>
						<enabled>TRUE</enabled>
						<duration>181500</duration>
						<rate>
							<timebase>25</timebase>
							<ntsc>FALSE</ntsc>
						</rate>
						<start>-1</start>
						<end>51041</end>
						<in>50716</in>
						<out>50970</out>
						<pproTicksIn>515307018240000</pproTicksIn>
						<pproTicksOut>517887820800000</pproTicksOut>
						<file id="file-241"/>
						<sourcetrack>
							<mediatype>audio</mediatype>
							<trackindex>4</trackindex>
						</sourcetrack>
							<filter>
								<effect>
									<name>Audio Levels</name>
									<effectid>audiolevels</effectid>
									<effectcategory>audiolevels</effectcategory>
									<effecttype>audiolevels</effecttype>
									<mediatype>audio</mediatype>
									<parameter authoringApp="PremierePro">
										<parameterid>level</parameterid>
										<name>Level</name>
										<valuemin>0</valuemin>
										<valuemax>3.98109</valuemax>
										<value>0</value>
										<keyframe>
											<when>50267</when>
											<value>0</value>
										</keyframe>
										<keyframe>
											<when>50297</when>
											<value>0.99763</value>
										</keyframe>
										<keyframe>
											<when>50327</when>
											<value>0</value>
										</keyframe>
										<keyframe>
											<when>50385</when>
											<value>0.827821</value>
										</keyframe>
										<keyframe>
											<when>50885</when>
											<value>0.870273</value>
										</keyframe>
										<keyframe>
											<when>50956</when>
											<value>0</value>
										</keyframe>
									</parameter>
								</effect>
							</filter>
						<link>
							<linkclipref>clipitem-1238</linkclipref>
							<mediatype>audio</mediatype>
							<trackindex>12</trackindex>
							<clipindex>75</clipindex>
							<groupindex>1</groupindex>
						</link>
						<link>
							<linkclipref>clipitem-1323</linkclipref>
							<mediatype>audio</mediatype>
							<trackindex>13</trackindex>
							<clipindex>75</clipindex>
							<groupindex>1</groupindex>
						</link>
						<logginginfo>
							<description>Program 3</description>
							<scene></scene>
							<shottake></shottake>
							<lognote></lognote>
						</logginginfo>
						<labels>
							<label2>Iris</label2>
						</labels>
					</clipitem>
					<clipitem id="clipitem-1324" premiereChannelType="stereo">
						<masterclipid>masterclip-242</masterclipid>
						<name>VR-0676.MXF</name>
						<enabled>TRUE</enabled>
						<duration>3946</duration>
						<rate>
							<timebase>25</timebase>
							<ntsc>FALSE</ntsc>
						</rate>
						<start>51794</start>
						<end>51943</end>
						<in>2108</in>
						<out>2257</out>
						<pproTicksIn>21418629120000</pproTicksIn>
						<pproTicksOut>22932564480000</pproTicksOut>
						<file id="file-242"/>
						<sourcetrack>
							<mediatype>audio</mediatype>
							<trackindex>4</trackindex>
						</sourcetrack>
							<filter>
								<effect>
									<name>Audio Levels</name>
									<effectid>audiolevels</effectid>
									<effectcategory>audiolevels</effectcategory>
									<effecttype>audiolevels</effecttype>
									<mediatype>audio</mediatype>
									<parameter authoringApp="PremierePro">
										<parameterid>level</parameterid>
										<name>Level</name>
										<valuemin>0</valuemin>
										<valuemax>3.98109</valuemax>
										<value>1.08253</value>
										<keyframe>
											<when>2110</when>
											<value>0</value>
										</keyframe>
										<keyframe>
											<when>2131</when>
											<value>1.08253</value>
										</keyframe>
									</parameter>
								</effect>
							</filter>
						<link>
							<linkclipref>clipitem-402</linkclipref>
							<mediatype>video</mediatype>
							<trackindex>2</trackindex>
							<clipindex>146</clipindex>
						</link>
						<link>
							<linkclipref>clipitem-1239</linkclipref>
							<mediatype>audio</mediatype>
							<trackindex>12</trackindex>
							<clipindex>76</clipindex>
							<groupindex>1</groupindex>
						</link>
						<link>
							<linkclipref>clipitem-1324</linkclipref>
							<mediatype>audio</mediatype>
							<trackindex>13</trackindex>
							<clipindex>76</clipindex>
							<groupindex>1</groupindex>
						</link>
						<logginginfo>
							<description></description>
							<scene></scene>
							<shottake></shottake>
							<lognote></lognote>
						</logginginfo>
						<labels>
							<label2>Iris</label2>
						</labels>
					</clipitem>
					<clipitem id="clipitem-1325" premiereChannelType="stereo">
						<masterclipid>masterclip-241</masterclipid>
						<name>DVNA25000316AU.mxf</name>
						<enabled>TRUE</enabled>
						<duration>181500</duration>
						<rate>
							<timebase>25</timebase>
							<ntsc>FALSE</ntsc>
						</rate>
						<start>52854</start>
						<end>53097</end>
						<in>50810</in>
						<out>51054</out>
						<pproTicksIn>516262118400000</pproTicksIn>
						<pproTicksOut>518741314560000</pproTicksOut>
						<file id="file-241"/>
						<sourcetrack>
							<mediatype>audio</mediatype>
							<trackindex>4</trackindex>
						</sourcetrack>
							<filter>
								<effect>
									<name>Audio Levels</name>
									<effectid>audiolevels</effectid>
									<effectcategory>audiolevels</effectcategory>
									<effecttype>audiolevels</effecttype>
									<mediatype>audio</mediatype>
									<parameter authoringApp="PremierePro">
										<parameterid>level</parameterid>
										<name>Level</name>
										<valuemin>0</valuemin>
										<valuemax>3.98109</valuemax>
										<value>0</value>
										<keyframe>
											<when>50799</when>
											<value>0</value>
										</keyframe>
										<keyframe>
											<when>50838</when>
											<value>0</value>
										</keyframe>
										<keyframe>
											<when>50885</when>
											<value>0.99763</value>
										</keyframe>
										<keyframe>
											<when>50963</when>
											<value>0.99763</value>
										</keyframe>
										<keyframe>
											<when>51021</when>
											<value>0</value>
										</keyframe>
									</parameter>
								</effect>
							</filter>
						<link>
							<linkclipref>clipitem-1240</linkclipref>
							<mediatype>audio</mediatype>
							<trackindex>12</trackindex>
							<clipindex>77</clipindex>
							<groupindex>1</groupindex>
						</link>
						<link>
							<linkclipref>clipitem-1325</linkclipref>
							<mediatype>audio</mediatype>
							<trackindex>13</trackindex>
							<clipindex>77</clipindex>
							<groupindex>1</groupindex>
						</link>
						<logginginfo>
							<description>Program 3</description>
							<scene></scene>
							<shottake></shottake>
							<lognote></lognote>
						</logginginfo>
						<labels>
							<label2>Iris</label2>
						</labels>
					</clipitem>
					<transitionitem>
						<start>53540</start>
						<end>53553</end>
						<alignment>start-black</alignment>
						<cutPointTicks>0</cutPointTicks>
						<rate>
							<timebase>25</timebase>
							<ntsc>FALSE</ntsc>
						</rate>
						<effect>
							<name>Cross Fade (+3dB)</name>
							<effectid>KGAudioTransCrossFade3dB</effectid>
							<effecttype>transition</effecttype>
							<mediatype>audio</mediatype>
							<wipecode>0</wipecode>
							<wipeaccuracy>100</wipeaccuracy>
							<startratio>0</startratio>
							<endratio>1</endratio>
							<reverse>FALSE</reverse>
						</effect>
					</transitionitem>
					<clipitem id="clipitem-1326" premiereChannelType="stereo">
						<masterclipid>masterclip-103</masterclipid>
						<name>DVNA25000116AU.mxf</name>
						<enabled>TRUE</enabled>
						<duration>192000</duration>
						<rate>
							<timebase>25</timebase>
							<ntsc>FALSE</ntsc>
						</rate>
						<start>-1</start>
						<end>-1</end>
						<in>117901</in>
						<out>118090</out>
						<pproTicksIn>1197949616640000</pproTicksIn>
						<pproTicksOut>1199869977600000</pproTicksOut>
						<file id="file-103"/>
						<sourcetrack>
							<mediatype>audio</mediatype>
							<trackindex>4</trackindex>
						</sourcetrack>
						<link>
							<linkclipref>clipitem-1241</linkclipref>
							<mediatype>audio</mediatype>
							<trackindex>12</trackindex>
							<clipindex>79</clipindex>
							<groupindex>1</groupindex>
						</link>
						<link>
							<linkclipref>clipitem-1326</linkclipref>
							<mediatype>audio</mediatype>
							<trackindex>13</trackindex>
							<clipindex>79</clipindex>
							<groupindex>1</groupindex>
						</link>
						<logginginfo>
							<description>Program 1</description>
							<scene></scene>
							<shottake></shottake>
							<lognote></lognote>
						</logginginfo>
						<labels>
							<label2>Iris</label2>
						</labels>
					</clipitem>
					<transitionitem>
						<start>53716</start>
						<end>53729</end>
						<alignment>end-black</alignment>
						<cutPointTicks>132088320000</cutPointTicks>
						<rate>
							<timebase>25</timebase>
							<ntsc>FALSE</ntsc>
						</rate>
						<effect>
							<name>Cross Fade (+3dB)</name>
							<effectid>KGAudioTransCrossFade3dB</effectid>
							<effecttype>transition</effecttype>
							<mediatype>audio</mediatype>
							<wipecode>0</wipecode>
							<wipeaccuracy>100</wipeaccuracy>
							<startratio>0</startratio>
							<endratio>1</endratio>
							<reverse>FALSE</reverse>
						</effect>
					</transitionitem>
					<clipitem id="clipitem-1327" premiereChannelType="stereo">
						<masterclipid>masterclip-102</masterclipid>
						<name>NRK2-180616.mxf</name>
						<enabled>TRUE</enabled>
						<duration>183000</duration>
						<rate>
							<timebase>25</timebase>
							<ntsc>FALSE</ntsc>
						</rate>
						<start>54110</start>
						<end>54224</end>
						<in>33105</in>
						<out>33219</out>
						<pproTicksIn>336367987200000</pproTicksIn>
						<pproTicksOut>337526300160000</pproTicksOut>
						<file id="file-102"/>
						<sourcetrack>
							<mediatype>audio</mediatype>
							<trackindex>4</trackindex>
						</sourcetrack>
							<filter>
								<effect>
									<name>Audio Levels</name>
									<effectid>audiolevels</effectid>
									<effectcategory>audiolevels</effectcategory>
									<effecttype>audiolevels</effecttype>
									<mediatype>audio</mediatype>
									<parameter authoringApp="PremierePro">
										<parameterid>level</parameterid>
										<name>Level</name>
										<valuemin>0</valuemin>
										<valuemax>3.98109</valuemax>
										<value>0</value>
										<keyframe>
											<when>33121</when>
											<value>0</value>
										</keyframe>
										<keyframe>
											<when>33131</when>
											<value>1.04751</value>
										</keyframe>
										<keyframe>
											<when>33187</when>
											<value>1.04751</value>
										</keyframe>
										<keyframe>
											<when>33211</when>
											<value>0</value>
										</keyframe>
									</parameter>
								</effect>
							</filter>
						<link>
							<linkclipref>clipitem-1242</linkclipref>
							<mediatype>audio</mediatype>
							<trackindex>12</trackindex>
							<clipindex>81</clipindex>
							<groupindex>1</groupindex>
						</link>
						<link>
							<linkclipref>clipitem-1327</linkclipref>
							<mediatype>audio</mediatype>
							<trackindex>13</trackindex>
							<clipindex>81</clipindex>
							<groupindex>1</groupindex>
						</link>
						<logginginfo>
							<description>Program 5</description>
							<scene></scene>
							<shottake></shottake>
							<lognote></lognote>
						</logginginfo>
						<labels>
							<label2>Iris</label2>
						</labels>
					</clipitem>
					<transitionitem>
						<start>56067</start>
						<end>56079</end>
						<alignment>start-black</alignment>
						<cutPointTicks>0</cutPointTicks>
						<rate>
							<timebase>25</timebase>
							<ntsc>FALSE</ntsc>
						</rate>
						<effect>
							<name>Cross Fade (+3dB)</name>
							<effectid>KGAudioTransCrossFade3dB</effectid>
							<effecttype>transition</effecttype>
							<mediatype>audio</mediatype>
							<wipecode>0</wipecode>
							<wipeaccuracy>100</wipeaccuracy>
							<startratio>0</startratio>
							<endratio>1</endratio>
							<reverse>FALSE</reverse>
						</effect>
					</transitionitem>
					<clipitem id="clipitem-1328" premiereChannelType="stereo">
						<masterclipid>masterclip-12</masterclipid>
						<name>NRK2-300616 (1).mxf</name>
						<enabled>TRUE</enabled>
						<duration>183000</duration>
						<rate>
							<timebase>25</timebase>
							<ntsc>FALSE</ntsc>
						</rate>
						<start>-1</start>
						<end>56294</end>
						<in>47831</in>
						<out>48058</out>
						<pproTicksIn>485993571840000</pproTicksIn>
						<pproTicksOut>488300037120000</pproTicksOut>
						<file id="file-12"/>
						<sourcetrack>
							<mediatype>audio</mediatype>
							<trackindex>2</trackindex>
						</sourcetrack>
						<link>
							<linkclipref>clipitem-1243</linkclipref>
							<mediatype>audio</mediatype>
							<trackindex>12</trackindex>
							<clipindex>83</clipindex>
							<groupindex>1</groupindex>
						</link>
						<link>
							<linkclipref>clipitem-1328</linkclipref>
							<mediatype>audio</mediatype>
							<trackindex>13</trackindex>
							<clipindex>83</clipindex>
							<groupindex>1</groupindex>
						</link>
						<logginginfo>
							<description>Program 13</description>
							<scene></scene>
							<shottake></shottake>
							<lognote></lognote>
						</logginginfo>
						<labels>
							<label2>Iris</label2>
						</labels>
					</clipitem>
					<transitionitem>
						<start>56986</start>
						<end>56998</end>
						<alignment>start-black</alignment>
						<cutPointTicks>0</cutPointTicks>
						<rate>
							<timebase>25</timebase>
							<ntsc>FALSE</ntsc>
						</rate>
						<effect>
							<name>Cross Fade (+3dB)</name>
							<effectid>KGAudioTransCrossFade3dB</effectid>
							<effecttype>transition</effecttype>
							<mediatype>audio</mediatype>
							<wipecode>0</wipecode>
							<wipeaccuracy>100</wipeaccuracy>
							<startratio>0</startratio>
							<endratio>1</endratio>
							<reverse>FALSE</reverse>
						</effect>
					</transitionitem>
					<clipitem id="clipitem-1329" premiereChannelType="stereo">
						<masterclipid>masterclip-12</masterclipid>
						<name>NRK2-300616 (1).mxf</name>
						<enabled>TRUE</enabled>
						<duration>183000</duration>
						<rate>
							<timebase>25</timebase>
							<ntsc>FALSE</ntsc>
						</rate>
						<start>-1</start>
						<end>-1</end>
						<in>46356</in>
						<out>46854</out>
						<pproTicksIn>471006627840000</pproTicksIn>
						<pproTicksOut>476066626560000</pproTicksOut>
						<file id="file-12"/>
						<sourcetrack>
							<mediatype>audio</mediatype>
							<trackindex>4</trackindex>
						</sourcetrack>
							<filter>
								<effect>
									<name>Audio Levels</name>
									<effectid>audiolevels</effectid>
									<effectcategory>audiolevels</effectcategory>
									<effecttype>audiolevels</effecttype>
									<mediatype>audio</mediatype>
									<parameter authoringApp="PremierePro">
										<parameterid>level</parameterid>
										<name>Level</name>
										<valuemin>0</valuemin>
										<valuemax>3.98109</valuemax>
										<value>0.742916</value>
									</parameter>
								</effect>
							</filter>
						<link>
							<linkclipref>clipitem-1244</linkclipref>
							<mediatype>audio</mediatype>
							<trackindex>12</trackindex>
							<clipindex>85</clipindex>
							<groupindex>1</groupindex>
						</link>
						<link>
							<linkclipref>clipitem-1329</linkclipref>
							<mediatype>audio</mediatype>
							<trackindex>13</trackindex>
							<clipindex>85</clipindex>
							<groupindex>1</groupindex>
						</link>
						<logginginfo>
							<description>Program 13</description>
							<scene></scene>
							<shottake></shottake>
							<lognote></lognote>
						</logginginfo>
						<labels>
							<label2>Iris</label2>
						</labels>
					</clipitem>
					<transitionitem>
						<start>57471</start>
						<end>57484</end>
						<alignment>end-black</alignment>
						<cutPointTicks>132088320000</cutPointTicks>
						<rate>
							<timebase>25</timebase>
							<ntsc>FALSE</ntsc>
						</rate>
						<effect>
							<name>Cross Fade (+3dB)</name>
							<effectid>KGAudioTransCrossFade3dB</effectid>
							<effecttype>transition</effecttype>
							<mediatype>audio</mediatype>
							<wipecode>0</wipecode>
							<wipeaccuracy>100</wipeaccuracy>
							<startratio>0</startratio>
							<endratio>1</endratio>
							<reverse>FALSE</reverse>
						</effect>
					</transitionitem>
					<clipitem id="clipitem-1330" premiereChannelType="stereo">
						<masterclipid>masterclip-121</masterclipid>
						<name>AA282801.MXF</name>
						<enabled>TRUE</enabled>
						<duration>4944</duration>
						<rate>
							<timebase>25</timebase>
							<ntsc>FALSE</ntsc>
						</rate>
						<start>64006</start>
						<end>64140</end>
						<in>2665</in>
						<out>2799</out>
						<pproTicksIn>27078105600000</pproTicksIn>
						<pproTicksOut>28439631360000</pproTicksOut>
						<file id="file-121"/>
						<sourcetrack>
							<mediatype>audio</mediatype>
							<trackindex>1</trackindex>
						</sourcetrack>
						<link>
							<linkclipref>clipitem-183</linkclipref>
							<mediatype>video</mediatype>
							<trackindex>1</trackindex>
							<clipindex>193</clipindex>
						</link>
						<link>
							<linkclipref>clipitem-799</linkclipref>
							<mediatype>audio</mediatype>
							<trackindex>8</trackindex>
							<clipindex>99</clipindex>
							<groupindex>1</groupindex>
						</link>
						<link>
							<linkclipref>clipitem-893</linkclipref>
							<mediatype>audio</mediatype>
							<trackindex>9</trackindex>
							<clipindex>97</clipindex>
							<groupindex>1</groupindex>
						</link>
						<link>
							<linkclipref>clipitem-1245</linkclipref>
							<mediatype>audio</mediatype>
							<trackindex>12</trackindex>
							<clipindex>87</clipindex>
							<groupindex>1</groupindex>
						</link>
						<link>
							<linkclipref>clipitem-1330</linkclipref>
							<mediatype>audio</mediatype>
							<trackindex>13</trackindex>
							<clipindex>87</clipindex>
							<groupindex>1</groupindex>
						</link>
						<logginginfo>
							<description></description>
							<scene></scene>
							<shottake></shottake>
							<lognote></lognote>
						</logginginfo>
						<labels>
							<label2>Iris</label2>
						</labels>
					</clipitem>
					<clipitem id="clipitem-1331" premiereChannelType="stereo">
						<masterclipid>masterclip-125</masterclipid>
						<name>AA282501.MXF</name>
						<enabled>TRUE</enabled>
						<duration>2676</duration>
						<rate>
							<timebase>25</timebase>
							<ntsc>FALSE</ntsc>
						</rate>
						<start>64746</start>
						<end>64836</end>
						<in>246</in>
						<out>336</out>
						<pproTicksIn>2499517440000</pproTicksIn>
						<pproTicksOut>3413975040000</pproTicksOut>
						<file id="file-125"/>
						<sourcetrack>
							<mediatype>audio</mediatype>
							<trackindex>1</trackindex>
						</sourcetrack>
							<filter>
								<effect>
									<name>Audio Levels</name>
									<effectid>audiolevels</effectid>
									<effectcategory>audiolevels</effectcategory>
									<effecttype>audiolevels</effecttype>
									<mediatype>audio</mediatype>
									<parameter authoringApp="PremierePro">
										<parameterid>level</parameterid>
										<name>Level</name>
										<valuemin>0</valuemin>
										<valuemax>3.98109</valuemax>
										<value>0.192525</value>
									</parameter>
								</effect>
							</filter>
						<link>
							<linkclipref>clipitem-189</linkclipref>
							<mediatype>video</mediatype>
							<trackindex>1</trackindex>
							<clipindex>199</clipindex>
						</link>
						<link>
							<linkclipref>clipitem-805</linkclipref>
							<mediatype>audio</mediatype>
							<trackindex>8</trackindex>
							<clipindex>105</clipindex>
							<groupindex>1</groupindex>
						</link>
						<link>
							<linkclipref>clipitem-899</linkclipref>
							<mediatype>audio</mediatype>
							<trackindex>9</trackindex>
							<clipindex>103</clipindex>
							<groupindex>1</groupindex>
						</link>
						<link>
							<linkclipref>clipitem-1246</linkclipref>
							<mediatype>audio</mediatype>
							<trackindex>12</trackindex>
							<clipindex>88</clipindex>
							<groupindex>1</groupindex>
						</link>
						<link>
							<linkclipref>clipitem-1331</linkclipref>
							<mediatype>audio</mediatype>
							<trackindex>13</trackindex>
							<clipindex>88</clipindex>
							<groupindex>1</groupindex>
						</link>
						<logginginfo>
							<description></description>
							<scene></scene>
							<shottake></shottake>
							<lognote></lognote>
						</logginginfo>
						<labels>
							<label2>Iris</label2>
						</labels>
					</clipitem>
					<clipitem id="clipitem-1332" premiereChannelType="stereo">
						<masterclipid>masterclip-255</masterclipid>
						<name>AA282101.MXF</name>
						<enabled>TRUE</enabled>
						<duration>3708</duration>
						<rate>
							<timebase>25</timebase>
							<ntsc>FALSE</ntsc>
						</rate>
						<start>64836</start>
						<end>-1</end>
						<in>2079</in>
						<out>2135</out>
						<pproTicksIn>21123970560000</pproTicksIn>
						<pproTicksOut>21692966400000</pproTicksOut>
						<file id="file-255"/>
						<sourcetrack>
							<mediatype>audio</mediatype>
							<trackindex>1</trackindex>
						</sourcetrack>
							<filter>
								<effect>
									<name>Audio Levels</name>
									<effectid>audiolevels</effectid>
									<effectcategory>audiolevels</effectcategory>
									<effecttype>audiolevels</effecttype>
									<mediatype>audio</mediatype>
									<parameter authoringApp="PremierePro">
										<parameterid>level</parameterid>
										<name>Level</name>
										<valuemin>0</valuemin>
										<valuemax>3.98109</valuemax>
										<value>0.0875114</value>
									</parameter>
								</effect>
							</filter>
						<link>
							<linkclipref>clipitem-433</linkclipref>
							<mediatype>video</mediatype>
							<trackindex>2</trackindex>
							<clipindex>179</clipindex>
						</link>
						<link>
							<linkclipref>clipitem-806</linkclipref>
							<mediatype>audio</mediatype>
							<trackindex>8</trackindex>
							<clipindex>106</clipindex>
							<groupindex>1</groupindex>
						</link>
						<link>
							<linkclipref>clipitem-900</linkclipref>
							<mediatype>audio</mediatype>
							<trackindex>9</trackindex>
							<clipindex>104</clipindex>
							<groupindex>1</groupindex>
						</link>
						<link>
							<linkclipref>clipitem-1247</linkclipref>
							<mediatype>audio</mediatype>
							<trackindex>12</trackindex>
							<clipindex>89</clipindex>
							<groupindex>1</groupindex>
						</link>
						<link>
							<linkclipref>clipitem-1332</linkclipref>
							<mediatype>audio</mediatype>
							<trackindex>13</trackindex>
							<clipindex>89</clipindex>
							<groupindex>1</groupindex>
						</link>
						<logginginfo>
							<description></description>
							<scene></scene>
							<shottake></shottake>
							<lognote></lognote>
						</logginginfo>
						<labels>
							<label2>Iris</label2>
						</labels>
					</clipitem>
					<transitionitem>
						<start>64879</start>
						<end>64892</end>
						<alignment>end-black</alignment>
						<cutPointTicks>132088320000</cutPointTicks>
						<rate>
							<timebase>25</timebase>
							<ntsc>FALSE</ntsc>
						</rate>
						<effect>
							<name>Cross Fade (+3dB)</name>
							<effectid>KGAudioTransCrossFade3dB</effectid>
							<effecttype>transition</effecttype>
							<mediatype>audio</mediatype>
							<wipecode>0</wipecode>
							<wipeaccuracy>100</wipeaccuracy>
							<startratio>0</startratio>
							<endratio>1</endratio>
							<reverse>FALSE</reverse>
						</effect>
					</transitionitem>
					<clipitem id="clipitem-1333" premiereChannelType="stereo">
						<masterclipid>masterclip-126</masterclipid>
						<name>AA282201.MXF</name>
						<enabled>TRUE</enabled>
						<duration>228</duration>
						<rate>
							<timebase>25</timebase>
							<ntsc>FALSE</ntsc>
						</rate>
						<start>65071</start>
						<end>65203</end>
						<in>64</in>
						<out>196</out>
						<pproTicksIn>650280960000</pproTicksIn>
						<pproTicksOut>1991485440000</pproTicksOut>
						<file id="file-126"/>
						<sourcetrack>
							<mediatype>audio</mediatype>
							<trackindex>1</trackindex>
						</sourcetrack>
							<filter>
								<effect>
									<name>Audio Levels</name>
									<effectid>audiolevels</effectid>
									<effectcategory>audiolevels</effectcategory>
									<effecttype>audiolevels</effecttype>
									<mediatype>audio</mediatype>
									<parameter authoringApp="PremierePro">
										<parameterid>level</parameterid>
										<name>Level</name>
										<valuemin>0</valuemin>
										<valuemax>3.98109</valuemax>
										<value>0.134815</value>
									</parameter>
								</effect>
							</filter>
						<link>
							<linkclipref>clipitem-191</linkclipref>
							<mediatype>video</mediatype>
							<trackindex>1</trackindex>
							<clipindex>201</clipindex>
						</link>
						<link>
							<linkclipref>clipitem-808</linkclipref>
							<mediatype>audio</mediatype>
							<trackindex>8</trackindex>
							<clipindex>109</clipindex>
							<groupindex>1</groupindex>
						</link>
						<link>
							<linkclipref>clipitem-902</linkclipref>
							<mediatype>audio</mediatype>
							<trackindex>9</trackindex>
							<clipindex>107</clipindex>
							<groupindex>1</groupindex>
						</link>
						<link>
							<linkclipref>clipitem-1248</linkclipref>
							<mediatype>audio</mediatype>
							<trackindex>12</trackindex>
							<clipindex>91</clipindex>
							<groupindex>1</groupindex>
						</link>
						<link>
							<linkclipref>clipitem-1333</linkclipref>
							<mediatype>audio</mediatype>
							<trackindex>13</trackindex>
							<clipindex>91</clipindex>
							<groupindex>1</groupindex>
						</link>
						<logginginfo>
							<description></description>
							<scene></scene>
							<shottake></shottake>
							<lognote></lognote>
						</logginginfo>
						<labels>
							<label2>Iris</label2>
						</labels>
					</clipitem>
					<transitionitem>
						<start>89323</start>
						<end>89336</end>
						<alignment>start-black</alignment>
						<cutPointTicks>0</cutPointTicks>
						<rate>
							<timebase>25</timebase>
							<ntsc>FALSE</ntsc>
						</rate>
						<effect>
							<name>Cross Fade (+3dB)</name>
							<effectid>KGAudioTransCrossFade3dB</effectid>
							<effecttype>transition</effecttype>
							<mediatype>audio</mediatype>
							<wipecode>0</wipecode>
							<wipeaccuracy>100</wipeaccuracy>
							<startratio>0</startratio>
							<endratio>1</endratio>
							<reverse>FALSE</reverse>
						</effect>
					</transitionitem>
					<clipitem id="clipitem-1334" premiereChannelType="stereo">
						<masterclipid>masterclip-147</masterclipid>
						<name>Nordvisjon3MASTER i-lyd.mxf</name>
						<enabled>TRUE</enabled>
						<duration>1551</duration>
						<rate>
							<timebase>25</timebase>
							<ntsc>FALSE</ntsc>
						</rate>
						<start>-1</start>
						<end>-1</end>
						<in>25</in>
						<out>1521</out>
						<pproTicksIn>254016000000</pproTicksIn>
						<pproTicksOut>15454333440000</pproTicksOut>
						<file id="file-147"/>
						<sourcetrack>
							<mediatype>audio</mediatype>
							<trackindex>2</trackindex>
						</sourcetrack>
						<link>
							<linkclipref>clipitem-1249</linkclipref>
							<mediatype>audio</mediatype>
							<trackindex>12</trackindex>
							<clipindex>93</clipindex>
							<groupindex>1</groupindex>
						</link>
						<link>
							<linkclipref>clipitem-1334</linkclipref>
							<mediatype>audio</mediatype>
							<trackindex>13</trackindex>
							<clipindex>93</clipindex>
							<groupindex>1</groupindex>
						</link>
						<logginginfo>
							<description></description>
							<scene></scene>
							<shottake></shottake>
							<lognote></lognote>
						</logginginfo>
						<labels>
							<label2>Iris</label2>
						</labels>
					</clipitem>
					<transitionitem>
						<start>90807</start>
						<end>90819</end>
						<alignment>center</alignment>
						<cutPointTicks>60963840000</cutPointTicks>
						<rate>
							<timebase>25</timebase>
							<ntsc>FALSE</ntsc>
						</rate>
						<effect>
							<name>Cross Fade (+3dB)</name>
							<effectid>KGAudioTransCrossFade3dB</effectid>
							<effecttype>transition</effecttype>
							<mediatype>audio</mediatype>
							<wipecode>0</wipecode>
							<wipeaccuracy>100</wipeaccuracy>
							<startratio>0</startratio>
							<endratio>1</endratio>
							<reverse>FALSE</reverse>
						</effect>
					</transitionitem>
					<clipitem id="clipitem-1335" premiereChannelType="stereo">
						<masterclipid>masterclip-148</masterclipid>
						<name>Nordvisjon3MASTER i-lyd.mxf</name>
						<enabled>TRUE</enabled>
						<duration>1375</duration>
						<rate>
							<timebase>25</timebase>
							<ntsc>FALSE</ntsc>
						</rate>
						<start>-1</start>
						<end>-1</end>
						<in>20</in>
						<out>1002</out>
						<pproTicksIn>203212800000</pproTicksIn>
						<pproTicksOut>10180961280000</pproTicksOut>
						<file id="file-148"/>
						<sourcetrack>
							<mediatype>audio</mediatype>
							<trackindex>2</trackindex>
						</sourcetrack>
						<link>
							<linkclipref>clipitem-1250</linkclipref>
							<mediatype>audio</mediatype>
							<trackindex>12</trackindex>
							<clipindex>95</clipindex>
							<groupindex>1</groupindex>
						</link>
						<link>
							<linkclipref>clipitem-1335</linkclipref>
							<mediatype>audio</mediatype>
							<trackindex>13</trackindex>
							<clipindex>95</clipindex>
							<groupindex>1</groupindex>
						</link>
						<logginginfo>
							<description></description>
							<scene></scene>
							<shottake></shottake>
							<lognote></lognote>
						</logginginfo>
						<labels>
							<label2>Iris</label2>
						</labels>
					</clipitem>
					<transitionitem>
						<start>91776</start>
						<end>91789</end>
						<alignment>center</alignment>
						<cutPointTicks>60963840000</cutPointTicks>
						<rate>
							<timebase>25</timebase>
							<ntsc>FALSE</ntsc>
						</rate>
						<effect>
							<name>Cross Fade (+3dB)</name>
							<effectid>KGAudioTransCrossFade3dB</effectid>
							<effecttype>transition</effecttype>
							<mediatype>audio</mediatype>
							<wipecode>0</wipecode>
							<wipeaccuracy>100</wipeaccuracy>
							<startratio>0</startratio>
							<endratio>1</endratio>
							<reverse>FALSE</reverse>
						</effect>
					</transitionitem>
					<clipitem id="clipitem-1336" premiereChannelType="stereo">
						<masterclipid>masterclip-148</masterclipid>
						<name>Nordvisjon3MASTER i-lyd.mxf</name>
						<enabled>TRUE</enabled>
						<duration>1375</duration>
						<rate>
							<timebase>25</timebase>
							<ntsc>FALSE</ntsc>
						</rate>
						<start>-1</start>
						<end>-1</end>
						<in>1164</in>
						<out>1346</out>
						<pproTicksIn>11826984960000</pproTicksIn>
						<pproTicksOut>13676221440000</pproTicksOut>
						<file id="file-148"/>
						<sourcetrack>
							<mediatype>audio</mediatype>
							<trackindex>2</trackindex>
						</sourcetrack>
						<link>
							<linkclipref>clipitem-1251</linkclipref>
							<mediatype>audio</mediatype>
							<trackindex>12</trackindex>
							<clipindex>97</clipindex>
							<groupindex>1</groupindex>
						</link>
						<link>
							<linkclipref>clipitem-1336</linkclipref>
							<mediatype>audio</mediatype>
							<trackindex>13</trackindex>
							<clipindex>97</clipindex>
							<groupindex>1</groupindex>
						</link>
						<logginginfo>
							<description></description>
							<scene></scene>
							<shottake></shottake>
							<lognote></lognote>
						</logginginfo>
						<labels>
							<label2>Iris</label2>
						</labels>
					</clipitem>
					<transitionitem>
						<start>91945</start>
						<end>91958</end>
						<alignment>center</alignment>
						<cutPointTicks>60963840000</cutPointTicks>
						<rate>
							<timebase>25</timebase>
							<ntsc>FALSE</ntsc>
						</rate>
						<effect>
							<name>Cross Fade (+3dB)</name>
							<effectid>KGAudioTransCrossFade3dB</effectid>
							<effecttype>transition</effecttype>
							<mediatype>audio</mediatype>
							<wipecode>0</wipecode>
							<wipeaccuracy>100</wipeaccuracy>
							<startratio>0</startratio>
							<endratio>1</endratio>
							<reverse>FALSE</reverse>
						</effect>
					</transitionitem>
					<clipitem id="clipitem-1337" premiereChannelType="stereo">
						<masterclipid>masterclip-148</masterclipid>
						<name>Nordvisjon3MASTER i-lyd.mxf</name>
						<enabled>TRUE</enabled>
						<duration>1375</duration>
						<rate>
							<timebase>25</timebase>
							<ntsc>FALSE</ntsc>
						</rate>
						<start>-1</start>
						<end>-1</end>
						<in>1027</in>
						<out>1176</out>
						<pproTicksIn>10434977280000</pproTicksIn>
						<pproTicksOut>11948912640000</pproTicksOut>
						<file id="file-148"/>
						<sourcetrack>
							<mediatype>audio</mediatype>
							<trackindex>2</trackindex>
						</sourcetrack>
						<link>
							<linkclipref>clipitem-1252</linkclipref>
							<mediatype>audio</mediatype>
							<trackindex>12</trackindex>
							<clipindex>99</clipindex>
							<groupindex>1</groupindex>
						</link>
						<link>
							<linkclipref>clipitem-1337</linkclipref>
							<mediatype>audio</mediatype>
							<trackindex>13</trackindex>
							<clipindex>99</clipindex>
							<groupindex>1</groupindex>
						</link>
						<logginginfo>
							<description></description>
							<scene></scene>
							<shottake></shottake>
							<lognote></lognote>
						</logginginfo>
						<labels>
							<label2>Iris</label2>
						</labels>
					</clipitem>
					<transitionitem>
						<start>92082</start>
						<end>92094</end>
						<alignment>center</alignment>
						<cutPointTicks>60963840000</cutPointTicks>
						<rate>
							<timebase>25</timebase>
							<ntsc>FALSE</ntsc>
						</rate>
						<effect>
							<name>Cross Fade (+3dB)</name>
							<effectid>KGAudioTransCrossFade3dB</effectid>
							<effecttype>transition</effecttype>
							<mediatype>audio</mediatype>
							<wipecode>0</wipecode>
							<wipeaccuracy>100</wipeaccuracy>
							<startratio>0</startratio>
							<endratio>1</endratio>
							<reverse>FALSE</reverse>
						</effect>
					</transitionitem>
					<clipitem id="clipitem-1338" premiereChannelType="stereo">
						<masterclipid>masterclip-316</masterclipid>
						<name>Nordvisjon-MASTER-vr3-201016-ny-kontentum.wav</name>
						<enabled>TRUE</enabled>
						<duration>43013</duration>
						<rate>
							<timebase>25</timebase>
							<ntsc>FALSE</ntsc>
						</rate>
						<start>-1</start>
						<end>-1</end>
						<in>37927</in>
						<out>38611</out>
						<pproTicksIn>385362593280000</pproTicksIn>
						<pproTicksOut>392312471040000</pproTicksOut>
						<file id="file-316"/>
						<sourcetrack>
							<mediatype>audio</mediatype>
							<trackindex>2</trackindex>
						</sourcetrack>
							<marker>
								<comment></comment>
								<name></name>
								<in>40399</in>
								<out>-1</out>
							</marker>
							<marker>
								<comment></comment>
								<name></name>
								<in>3092</in>
								<out>-1</out>
							</marker>
							<marker>
								<comment></comment>
								<name></name>
								<in>36054</in>
								<out>-1</out>
							</marker>
							<marker>
								<comment></comment>
								<name></name>
								<in>0</in>
								<out>-1</out>
							</marker>
						<link>
							<linkclipref>clipitem-1253</linkclipref>
							<mediatype>audio</mediatype>
							<trackindex>12</trackindex>
							<clipindex>101</clipindex>
							<groupindex>1</groupindex>
						</link>
						<link>
							<linkclipref>clipitem-1338</linkclipref>
							<mediatype>audio</mediatype>
							<trackindex>13</trackindex>
							<clipindex>101</clipindex>
							<groupindex>1</groupindex>
						</link>
						<logginginfo>
							<description></description>
							<scene></scene>
							<shottake></shottake>
							<lognote></lognote>
						</logginginfo>
						<labels>
							<label2>Iris</label2>
						</labels>
					</clipitem>
					<transitionitem>
						<start>92754</start>
						<end>92766</end>
						<alignment>center</alignment>
						<cutPointTicks>60963840000</cutPointTicks>
						<rate>
							<timebase>25</timebase>
							<ntsc>FALSE</ntsc>
						</rate>
						<effect>
							<name>Cross Fade (+3dB)</name>
							<effectid>KGAudioTransCrossFade3dB</effectid>
							<effecttype>transition</effecttype>
							<mediatype>audio</mediatype>
							<wipecode>0</wipecode>
							<wipeaccuracy>100</wipeaccuracy>
							<startratio>0</startratio>
							<endratio>1</endratio>
							<reverse>FALSE</reverse>
						</effect>
					</transitionitem>
					<clipitem id="clipitem-1339" premiereChannelType="stereo">
						<masterclipid>masterclip-316</masterclipid>
						<name>Nordvisjon-MASTER-vr3-201016-ny-kontentum.wav</name>
						<enabled>TRUE</enabled>
						<duration>43013</duration>
						<rate>
							<timebase>25</timebase>
							<ntsc>FALSE</ntsc>
						</rate>
						<start>-1</start>
						<end>-1</end>
						<in>39623</in>
						<out>39985</out>
						<pproTicksIn>402595038720000</pproTicksIn>
						<pproTicksOut>406273190400000</pproTicksOut>
						<file id="file-316"/>
						<sourcetrack>
							<mediatype>audio</mediatype>
							<trackindex>2</trackindex>
						</sourcetrack>
							<marker>
								<comment></comment>
								<name></name>
								<in>40399</in>
								<out>-1</out>
							</marker>
							<marker>
								<comment></comment>
								<name></name>
								<in>3092</in>
								<out>-1</out>
							</marker>
							<marker>
								<comment></comment>
								<name></name>
								<in>36054</in>
								<out>-1</out>
							</marker>
							<marker>
								<comment></comment>
								<name></name>
								<in>0</in>
								<out>-1</out>
							</marker>
						<link>
							<linkclipref>clipitem-1254</linkclipref>
							<mediatype>audio</mediatype>
							<trackindex>12</trackindex>
							<clipindex>103</clipindex>
							<groupindex>1</groupindex>
						</link>
						<link>
							<linkclipref>clipitem-1339</linkclipref>
							<mediatype>audio</mediatype>
							<trackindex>13</trackindex>
							<clipindex>103</clipindex>
							<groupindex>1</groupindex>
						</link>
						<logginginfo>
							<description></description>
							<scene></scene>
							<shottake></shottake>
							<lognote></lognote>
						</logginginfo>
						<labels>
							<label2>Iris</label2>
						</labels>
					</clipitem>
					<transitionitem>
						<start>93103</start>
						<end>93116</end>
						<alignment>center</alignment>
						<cutPointTicks>60963840000</cutPointTicks>
						<rate>
							<timebase>25</timebase>
							<ntsc>FALSE</ntsc>
						</rate>
						<effect>
							<name>Cross Fade (+3dB)</name>
							<effectid>KGAudioTransCrossFade3dB</effectid>
							<effecttype>transition</effecttype>
							<mediatype>audio</mediatype>
							<wipecode>0</wipecode>
							<wipeaccuracy>100</wipeaccuracy>
							<startratio>0</startratio>
							<endratio>1</endratio>
							<reverse>FALSE</reverse>
						</effect>
					</transitionitem>
					<clipitem id="clipitem-1340" premiereChannelType="stereo">
						<masterclipid>masterclip-329</masterclipid>
						<name>Nordvisjon-MASTER-vr3-201016-ny-kommentar.wav</name>
						<enabled>TRUE</enabled>
						<duration>42953</duration>
						<rate>
							<timebase>25</timebase>
							<ntsc>FALSE</ntsc>
						</rate>
						<start>-1</start>
						<end>-1</end>
						<in>40393</in>
						<out>40471</out>
						<pproTicksIn>410418731520000</pproTicksIn>
						<pproTicksOut>411211261440000</pproTicksOut>
						<file id="file-329"/>
						<sourcetrack>
							<mediatype>audio</mediatype>
							<trackindex>2</trackindex>
						</sourcetrack>
							<marker>
								<comment></comment>
								<name></name>
								<in>40399</in>
								<out>-1</out>
							</marker>
							<marker>
								<comment></comment>
								<name></name>
								<in>3092</in>
								<out>-1</out>
							</marker>
							<marker>
								<comment></comment>
								<name></name>
								<in>36054</in>
								<out>-1</out>
							</marker>
							<marker>
								<comment></comment>
								<name></name>
								<in>0</in>
								<out>-1</out>
							</marker>
						<link>
							<linkclipref>clipitem-1255</linkclipref>
							<mediatype>audio</mediatype>
							<trackindex>12</trackindex>
							<clipindex>105</clipindex>
							<groupindex>1</groupindex>
						</link>
						<link>
							<linkclipref>clipitem-1340</linkclipref>
							<mediatype>audio</mediatype>
							<trackindex>13</trackindex>
							<clipindex>105</clipindex>
							<groupindex>1</groupindex>
						</link>
						<logginginfo>
							<description></description>
							<scene></scene>
							<shottake></shottake>
							<lognote></lognote>
						</logginginfo>
						<labels>
							<label2>Iris</label2>
						</labels>
					</clipitem>
					<transitionitem>
						<start>93168</start>
						<end>93181</end>
						<alignment>center</alignment>
						<cutPointTicks>60963840000</cutPointTicks>
						<rate>
							<timebase>25</timebase>
							<ntsc>FALSE</ntsc>
						</rate>
						<effect>
							<name>Cross Fade (+3dB)</name>
							<effectid>KGAudioTransCrossFade3dB</effectid>
							<effecttype>transition</effecttype>
							<mediatype>audio</mediatype>
							<wipecode>0</wipecode>
							<wipeaccuracy>100</wipeaccuracy>
							<startratio>0</startratio>
							<endratio>1</endratio>
							<reverse>FALSE</reverse>
						</effect>
					</transitionitem>
					<clipitem id="clipitem-1341" premiereChannelType="stereo">
						<masterclipid>masterclip-329</masterclipid>
						<name>Nordvisjon-MASTER-vr3-201016-ny-kommentar.wav</name>
						<enabled>TRUE</enabled>
						<duration>42953</duration>
						<rate>
							<timebase>25</timebase>
							<ntsc>FALSE</ntsc>
						</rate>
						<start>-1</start>
						<end>-1</end>
						<in>40051</in>
						<out>40136</out>
						<pproTicksIn>406943792640000</pproTicksIn>
						<pproTicksOut>407807447040000</pproTicksOut>
						<file id="file-329"/>
						<sourcetrack>
							<mediatype>audio</mediatype>
							<trackindex>2</trackindex>
						</sourcetrack>
							<marker>
								<comment></comment>
								<name></name>
								<in>40399</in>
								<out>-1</out>
							</marker>
							<marker>
								<comment></comment>
								<name></name>
								<in>3092</in>
								<out>-1</out>
							</marker>
							<marker>
								<comment></comment>
								<name></name>
								<in>36054</in>
								<out>-1</out>
							</marker>
							<marker>
								<comment></comment>
								<name></name>
								<in>0</in>
								<out>-1</out>
							</marker>
						<link>
							<linkclipref>clipitem-1256</linkclipref>
							<mediatype>audio</mediatype>
							<trackindex>12</trackindex>
							<clipindex>107</clipindex>
							<groupindex>1</groupindex>
						</link>
						<link>
							<linkclipref>clipitem-1341</linkclipref>
							<mediatype>audio</mediatype>
							<trackindex>13</trackindex>
							<clipindex>107</clipindex>
							<groupindex>1</groupindex>
						</link>
						<logginginfo>
							<description></description>
							<scene></scene>
							<shottake></shottake>
							<lognote></lognote>
						</logginginfo>
						<labels>
							<label2>Iris</label2>
						</labels>
					</clipitem>
					<transitionitem>
						<start>93240</start>
						<end>93253</end>
						<alignment>end-black</alignment>
						<cutPointTicks>132088320000</cutPointTicks>
						<rate>
							<timebase>25</timebase>
							<ntsc>FALSE</ntsc>
						</rate>
						<effect>
							<name>Cross Fade (+3dB)</name>
							<effectid>KGAudioTransCrossFade3dB</effectid>
							<effecttype>transition</effecttype>
							<mediatype>audio</mediatype>
							<wipecode>0</wipecode>
							<wipeaccuracy>100</wipeaccuracy>
							<startratio>0</startratio>
							<endratio>1</endratio>
							<reverse>FALSE</reverse>
						</effect>
					</transitionitem>
					<transitionitem>
						<start>94523</start>
						<end>94536</end>
						<alignment>start-black</alignment>
						<cutPointTicks>0</cutPointTicks>
						<rate>
							<timebase>25</timebase>
							<ntsc>FALSE</ntsc>
						</rate>
						<effect>
							<name>Cross Fade (+3dB)</name>
							<effectid>KGAudioTransCrossFade3dB</effectid>
							<effecttype>transition</effecttype>
							<mediatype>audio</mediatype>
							<wipecode>0</wipecode>
							<wipeaccuracy>100</wipeaccuracy>
							<startratio>0</startratio>
							<endratio>1</endratio>
							<reverse>FALSE</reverse>
						</effect>
					</transitionitem>
					<clipitem id="clipitem-1342" premiereChannelType="stereo">
						<masterclipid>masterclip-154</masterclipid>
						<name>Nordvisjon3MASTER i-lyd.mxf</name>
						<enabled>TRUE</enabled>
						<duration>789</duration>
						<rate>
							<timebase>25</timebase>
							<ntsc>FALSE</ntsc>
						</rate>
						<start>-1</start>
						<end>-1</end>
						<in>25</in>
						<out>759</out>
						<pproTicksIn>254016000000</pproTicksIn>
						<pproTicksOut>7711925760000</pproTicksOut>
						<file id="file-154"/>
						<sourcetrack>
							<mediatype>audio</mediatype>
							<trackindex>2</trackindex>
						</sourcetrack>
						<link>
							<linkclipref>clipitem-1257</linkclipref>
							<mediatype>audio</mediatype>
							<trackindex>12</trackindex>
							<clipindex>110</clipindex>
							<groupindex>1</groupindex>
						</link>
						<link>
							<linkclipref>clipitem-1342</linkclipref>
							<mediatype>audio</mediatype>
							<trackindex>13</trackindex>
							<clipindex>110</clipindex>
							<groupindex>1</groupindex>
						</link>
						<logginginfo>
							<description></description>
							<scene></scene>
							<shottake></shottake>
							<lognote></lognote>
						</logginginfo>
						<labels>
							<label2>Iris</label2>
						</labels>
					</clipitem>
					<transitionitem>
						<start>95245</start>
						<end>95257</end>
						<alignment>center</alignment>
						<cutPointTicks>60963840000</cutPointTicks>
						<rate>
							<timebase>25</timebase>
							<ntsc>FALSE</ntsc>
						</rate>
						<effect>
							<name>Cross Fade (+3dB)</name>
							<effectid>KGAudioTransCrossFade3dB</effectid>
							<effecttype>transition</effecttype>
							<mediatype>audio</mediatype>
							<wipecode>0</wipecode>
							<wipeaccuracy>100</wipeaccuracy>
							<startratio>0</startratio>
							<endratio>1</endratio>
							<reverse>FALSE</reverse>
						</effect>
					</transitionitem>
					<clipitem id="clipitem-1343" premiereChannelType="stereo">
						<masterclipid>masterclip-155</masterclipid>
						<name>Nordvisjon3MASTER i-lyd.mxf</name>
						<enabled>TRUE</enabled>
						<duration>778</duration>
						<rate>
							<timebase>25</timebase>
							<ntsc>FALSE</ntsc>
						</rate>
						<start>-1</start>
						<end>-1</end>
						<in>25</in>
						<out>748</out>
						<pproTicksIn>254016000000</pproTicksIn>
						<pproTicksOut>7600158720000</pproTicksOut>
						<file id="file-155"/>
						<sourcetrack>
							<mediatype>audio</mediatype>
							<trackindex>2</trackindex>
						</sourcetrack>
						<link>
							<linkclipref>clipitem-1258</linkclipref>
							<mediatype>audio</mediatype>
							<trackindex>12</trackindex>
							<clipindex>112</clipindex>
							<groupindex>1</groupindex>
						</link>
						<link>
							<linkclipref>clipitem-1343</linkclipref>
							<mediatype>audio</mediatype>
							<trackindex>13</trackindex>
							<clipindex>112</clipindex>
							<groupindex>1</groupindex>
						</link>
						<logginginfo>
							<description></description>
							<scene></scene>
							<shottake></shottake>
							<lognote></lognote>
						</logginginfo>
						<labels>
							<label2>Iris</label2>
						</labels>
					</clipitem>
					<transitionitem>
						<start>95956</start>
						<end>95968</end>
						<alignment>center</alignment>
						<cutPointTicks>60963840000</cutPointTicks>
						<rate>
							<timebase>25</timebase>
							<ntsc>FALSE</ntsc>
						</rate>
						<effect>
							<name>Cross Fade (+3dB)</name>
							<effectid>KGAudioTransCrossFade3dB</effectid>
							<effecttype>transition</effecttype>
							<mediatype>audio</mediatype>
							<wipecode>0</wipecode>
							<wipeaccuracy>100</wipeaccuracy>
							<startratio>0</startratio>
							<endratio>1</endratio>
							<reverse>FALSE</reverse>
						</effect>
					</transitionitem>
					<clipitem id="clipitem-1344" premiereChannelType="stereo">
						<masterclipid>masterclip-316</masterclipid>
						<name>Nordvisjon-MASTER-vr3-201016-ny-kontentum.wav</name>
						<enabled>TRUE</enabled>
						<duration>43013</duration>
						<rate>
							<timebase>25</timebase>
							<ntsc>FALSE</ntsc>
						</rate>
						<start>-1</start>
						<end>-1</end>
						<in>23855</in>
						<out>24611</out>
						<pproTicksIn>242382067200000</pproTicksIn>
						<pproTicksOut>250063511040000</pproTicksOut>
						<file id="file-316"/>
						<sourcetrack>
							<mediatype>audio</mediatype>
							<trackindex>2</trackindex>
						</sourcetrack>
							<marker>
								<comment></comment>
								<name></name>
								<in>40399</in>
								<out>-1</out>
							</marker>
							<marker>
								<comment></comment>
								<name></name>
								<in>3092</in>
								<out>-1</out>
							</marker>
							<marker>
								<comment></comment>
								<name></name>
								<in>36054</in>
								<out>-1</out>
							</marker>
							<marker>
								<comment></comment>
								<name></name>
								<in>0</in>
								<out>-1</out>
							</marker>
						<link>
							<linkclipref>clipitem-1259</linkclipref>
							<mediatype>audio</mediatype>
							<trackindex>12</trackindex>
							<clipindex>114</clipindex>
							<groupindex>1</groupindex>
						</link>
						<link>
							<linkclipref>clipitem-1344</linkclipref>
							<mediatype>audio</mediatype>
							<trackindex>13</trackindex>
							<clipindex>114</clipindex>
							<groupindex>1</groupindex>
						</link>
						<logginginfo>
							<description></description>
							<scene></scene>
							<shottake></shottake>
							<lognote></lognote>
						</logginginfo>
						<labels>
							<label2>Iris</label2>
						</labels>
					</clipitem>
					<transitionitem>
						<start>96700</start>
						<end>96712</end>
						<alignment>center</alignment>
						<cutPointTicks>60963840000</cutPointTicks>
						<rate>
							<timebase>25</timebase>
							<ntsc>FALSE</ntsc>
						</rate>
						<effect>
							<name>Cross Fade (+3dB)</name>
							<effectid>KGAudioTransCrossFade3dB</effectid>
							<effecttype>transition</effecttype>
							<mediatype>audio</mediatype>
							<wipecode>0</wipecode>
							<wipeaccuracy>100</wipeaccuracy>
							<startratio>0</startratio>
							<endratio>1</endratio>
							<reverse>FALSE</reverse>
						</effect>
					</transitionitem>
					<clipitem id="clipitem-1345" premiereChannelType="stereo">
						<masterclipid>masterclip-157</masterclipid>
						<name>Nordvisjon3MASTER i-lyd.mxf</name>
						<enabled>TRUE</enabled>
						<duration>491</duration>
						<rate>
							<timebase>25</timebase>
							<ntsc>FALSE</ntsc>
						</rate>
						<start>-1</start>
						<end>-1</end>
						<in>25</in>
						<out>461</out>
						<pproTicksIn>254016000000</pproTicksIn>
						<pproTicksOut>4684055040000</pproTicksOut>
						<file id="file-157"/>
						<sourcetrack>
							<mediatype>audio</mediatype>
							<trackindex>2</trackindex>
						</sourcetrack>
						<link>
							<linkclipref>clipitem-1260</linkclipref>
							<mediatype>audio</mediatype>
							<trackindex>12</trackindex>
							<clipindex>116</clipindex>
							<groupindex>1</groupindex>
						</link>
						<link>
							<linkclipref>clipitem-1345</linkclipref>
							<mediatype>audio</mediatype>
							<trackindex>13</trackindex>
							<clipindex>116</clipindex>
							<groupindex>1</groupindex>
						</link>
						<logginginfo>
							<description></description>
							<scene></scene>
							<shottake></shottake>
							<lognote></lognote>
						</logginginfo>
						<labels>
							<label2>Iris</label2>
						</labels>
					</clipitem>
					<transitionitem>
						<start>97124</start>
						<end>97136</end>
						<alignment>center</alignment>
						<cutPointTicks>60963840000</cutPointTicks>
						<rate>
							<timebase>25</timebase>
							<ntsc>FALSE</ntsc>
						</rate>
						<effect>
							<name>Cross Fade (+3dB)</name>
							<effectid>KGAudioTransCrossFade3dB</effectid>
							<effecttype>transition</effecttype>
							<mediatype>audio</mediatype>
							<wipecode>0</wipecode>
							<wipeaccuracy>100</wipeaccuracy>
							<startratio>0</startratio>
							<endratio>1</endratio>
							<reverse>FALSE</reverse>
						</effect>
					</transitionitem>
					<clipitem id="clipitem-1346" premiereChannelType="stereo">
						<masterclipid>masterclip-158</masterclipid>
						<name>Nordvisjon3MASTER i-lyd.mxf</name>
						<enabled>TRUE</enabled>
						<duration>458</duration>
						<rate>
							<timebase>25</timebase>
							<ntsc>FALSE</ntsc>
						</rate>
						<start>-1</start>
						<end>-1</end>
						<in>25</in>
						<out>428</out>
						<pproTicksIn>254016000000</pproTicksIn>
						<pproTicksOut>4348753920000</pproTicksOut>
						<file id="file-158"/>
						<sourcetrack>
							<mediatype>audio</mediatype>
							<trackindex>2</trackindex>
						</sourcetrack>
						<link>
							<linkclipref>clipitem-1261</linkclipref>
							<mediatype>audio</mediatype>
							<trackindex>12</trackindex>
							<clipindex>118</clipindex>
							<groupindex>1</groupindex>
						</link>
						<link>
							<linkclipref>clipitem-1346</linkclipref>
							<mediatype>audio</mediatype>
							<trackindex>13</trackindex>
							<clipindex>118</clipindex>
							<groupindex>1</groupindex>
						</link>
						<logginginfo>
							<description></description>
							<scene></scene>
							<shottake></shottake>
							<lognote></lognote>
						</logginginfo>
						<labels>
							<label2>Iris</label2>
						</labels>
					</clipitem>
					<transitionitem>
						<start>97515</start>
						<end>97527</end>
						<alignment>center</alignment>
						<cutPointTicks>60963840000</cutPointTicks>
						<rate>
							<timebase>25</timebase>
							<ntsc>FALSE</ntsc>
						</rate>
						<effect>
							<name>Cross Fade (+3dB)</name>
							<effectid>KGAudioTransCrossFade3dB</effectid>
							<effecttype>transition</effecttype>
							<mediatype>audio</mediatype>
							<wipecode>0</wipecode>
							<wipeaccuracy>100</wipeaccuracy>
							<startratio>0</startratio>
							<endratio>1</endratio>
							<reverse>FALSE</reverse>
						</effect>
					</transitionitem>
					<clipitem id="clipitem-1347" premiereChannelType="stereo">
						<masterclipid>masterclip-159</masterclipid>
						<name>Nordvisjon3MASTER i-lyd.mxf</name>
						<enabled>TRUE</enabled>
						<duration>348</duration>
						<rate>
							<timebase>25</timebase>
							<ntsc>FALSE</ntsc>
						</rate>
						<start>-1</start>
						<end>-1</end>
						<in>25</in>
						<out>318</out>
						<pproTicksIn>254016000000</pproTicksIn>
						<pproTicksOut>3231083520000</pproTicksOut>
						<file id="file-159"/>
						<sourcetrack>
							<mediatype>audio</mediatype>
							<trackindex>2</trackindex>
						</sourcetrack>
						<link>
							<linkclipref>clipitem-1262</linkclipref>
							<mediatype>audio</mediatype>
							<trackindex>12</trackindex>
							<clipindex>120</clipindex>
							<groupindex>1</groupindex>
						</link>
						<link>
							<linkclipref>clipitem-1347</linkclipref>
							<mediatype>audio</mediatype>
							<trackindex>13</trackindex>
							<clipindex>120</clipindex>
							<groupindex>1</groupindex>
						</link>
						<logginginfo>
							<description></description>
							<scene></scene>
							<shottake></shottake>
							<lognote></lognote>
						</logginginfo>
						<labels>
							<label2>Iris</label2>
						</labels>
					</clipitem>
					<transitionitem>
						<start>97796</start>
						<end>97808</end>
						<alignment>center</alignment>
						<cutPointTicks>60963840000</cutPointTicks>
						<rate>
							<timebase>25</timebase>
							<ntsc>FALSE</ntsc>
						</rate>
						<effect>
							<name>Cross Fade (+3dB)</name>
							<effectid>KGAudioTransCrossFade3dB</effectid>
							<effecttype>transition</effecttype>
							<mediatype>audio</mediatype>
							<wipecode>0</wipecode>
							<wipeaccuracy>100</wipeaccuracy>
							<startratio>0</startratio>
							<endratio>1</endratio>
							<reverse>FALSE</reverse>
						</effect>
					</transitionitem>
					<clipitem id="clipitem-1348" premiereChannelType="stereo">
						<masterclipid>masterclip-160</masterclipid>
						<name>Nordvisjon3MASTER i-lyd.mxf</name>
						<enabled>TRUE</enabled>
						<duration>480</duration>
						<rate>
							<timebase>25</timebase>
							<ntsc>FALSE</ntsc>
						</rate>
						<start>-1</start>
						<end>-1</end>
						<in>25</in>
						<out>450</out>
						<pproTicksIn>254016000000</pproTicksIn>
						<pproTicksOut>4572288000000</pproTicksOut>
						<file id="file-160"/>
						<sourcetrack>
							<mediatype>audio</mediatype>
							<trackindex>2</trackindex>
						</sourcetrack>
						<link>
							<linkclipref>clipitem-1263</linkclipref>
							<mediatype>audio</mediatype>
							<trackindex>12</trackindex>
							<clipindex>122</clipindex>
							<groupindex>1</groupindex>
						</link>
						<link>
							<linkclipref>clipitem-1348</linkclipref>
							<mediatype>audio</mediatype>
							<trackindex>13</trackindex>
							<clipindex>122</clipindex>
							<groupindex>1</groupindex>
						</link>
						<logginginfo>
							<description></description>
							<scene></scene>
							<shottake></shottake>
							<lognote></lognote>
						</logginginfo>
						<labels>
							<label2>Iris</label2>
						</labels>
					</clipitem>
					<transitionitem>
						<start>98209</start>
						<end>98221</end>
						<alignment>center</alignment>
						<cutPointTicks>60963840000</cutPointTicks>
						<rate>
							<timebase>25</timebase>
							<ntsc>FALSE</ntsc>
						</rate>
						<effect>
							<name>Cross Fade (+3dB)</name>
							<effectid>KGAudioTransCrossFade3dB</effectid>
							<effecttype>transition</effecttype>
							<mediatype>audio</mediatype>
							<wipecode>0</wipecode>
							<wipeaccuracy>100</wipeaccuracy>
							<startratio>0</startratio>
							<endratio>1</endratio>
							<reverse>FALSE</reverse>
						</effect>
					</transitionitem>
					<clipitem id="clipitem-1349" premiereChannelType="stereo">
						<masterclipid>masterclip-161</masterclipid>
						<name>Nordvisjon3MASTER i-lyd.mxf</name>
						<enabled>TRUE</enabled>
						<duration>449</duration>
						<rate>
							<timebase>25</timebase>
							<ntsc>FALSE</ntsc>
						</rate>
						<start>-1</start>
						<end>-1</end>
						<in>25</in>
						<out>419</out>
						<pproTicksIn>254016000000</pproTicksIn>
						<pproTicksOut>4257308160000</pproTicksOut>
						<file id="file-161"/>
						<sourcetrack>
							<mediatype>audio</mediatype>
							<trackindex>2</trackindex>
						</sourcetrack>
							<filter>
								<effect>
									<name>Audio Levels</name>
									<effectid>audiolevels</effectid>
									<effectcategory>audiolevels</effectcategory>
									<effecttype>audiolevels</effecttype>
									<mediatype>audio</mediatype>
									<parameter authoringApp="PremierePro">
										<parameterid>level</parameterid>
										<name>Level</name>
										<valuemin>0</valuemin>
										<valuemax>3.98109</valuemax>
										<value>0.406442</value>
										<keyframe>
											<when>150</when>
											<value>0.99763</value>
										</keyframe>
										<keyframe>
											<when>172</when>
											<value>0.406442</value>
										</keyframe>
									</parameter>
								</effect>
							</filter>
						<link>
							<linkclipref>clipitem-1264</linkclipref>
							<mediatype>audio</mediatype>
							<trackindex>12</trackindex>
							<clipindex>124</clipindex>
							<groupindex>1</groupindex>
						</link>
						<link>
							<linkclipref>clipitem-1349</linkclipref>
							<mediatype>audio</mediatype>
							<trackindex>13</trackindex>
							<clipindex>124</clipindex>
							<groupindex>1</groupindex>
						</link>
						<logginginfo>
							<description></description>
							<scene></scene>
							<shottake></shottake>
							<lognote></lognote>
						</logginginfo>
						<labels>
							<label2>Iris</label2>
						</labels>
					</clipitem>
					<transitionitem>
						<start>98591</start>
						<end>98603</end>
						<alignment>center</alignment>
						<cutPointTicks>60963840000</cutPointTicks>
						<rate>
							<timebase>25</timebase>
							<ntsc>FALSE</ntsc>
						</rate>
						<effect>
							<name>Cross Fade (+3dB)</name>
							<effectid>KGAudioTransCrossFade3dB</effectid>
							<effecttype>transition</effecttype>
							<mediatype>audio</mediatype>
							<wipecode>0</wipecode>
							<wipeaccuracy>100</wipeaccuracy>
							<startratio>0</startratio>
							<endratio>1</endratio>
							<reverse>FALSE</reverse>
						</effect>
					</transitionitem>
					<clipitem id="clipitem-1350" premiereChannelType="stereo">
						<masterclipid>masterclip-162</masterclipid>
						<name>Nordvisjon3MASTER i-lyd.mxf</name>
						<enabled>TRUE</enabled>
						<duration>244</duration>
						<rate>
							<timebase>25</timebase>
							<ntsc>FALSE</ntsc>
						</rate>
						<start>-1</start>
						<end>-1</end>
						<in>25</in>
						<out>215</out>
						<pproTicksIn>254016000000</pproTicksIn>
						<pproTicksOut>2184537600000</pproTicksOut>
						<file id="file-162"/>
						<sourcetrack>
							<mediatype>audio</mediatype>
							<trackindex>2</trackindex>
						</sourcetrack>
						<link>
							<linkclipref>clipitem-1265</linkclipref>
							<mediatype>audio</mediatype>
							<trackindex>12</trackindex>
							<clipindex>126</clipindex>
							<groupindex>1</groupindex>
						</link>
						<link>
							<linkclipref>clipitem-1350</linkclipref>
							<mediatype>audio</mediatype>
							<trackindex>13</trackindex>
							<clipindex>126</clipindex>
							<groupindex>1</groupindex>
						</link>
						<logginginfo>
							<description></description>
							<scene></scene>
							<shottake></shottake>
							<lognote></lognote>
						</logginginfo>
						<labels>
							<label2>Iris</label2>
						</labels>
					</clipitem>
					<transitionitem>
						<start>98768</start>
						<end>98781</end>
						<alignment>center</alignment>
						<cutPointTicks>60963840000</cutPointTicks>
						<rate>
							<timebase>25</timebase>
							<ntsc>FALSE</ntsc>
						</rate>
						<effect>
							<name>Cross Fade (+3dB)</name>
							<effectid>KGAudioTransCrossFade3dB</effectid>
							<effecttype>transition</effecttype>
							<mediatype>audio</mediatype>
							<wipecode>0</wipecode>
							<wipeaccuracy>100</wipeaccuracy>
							<startratio>0</startratio>
							<endratio>1</endratio>
							<reverse>FALSE</reverse>
						</effect>
					</transitionitem>
					<clipitem id="clipitem-1351" premiereChannelType="stereo">
						<masterclipid>masterclip-13</masterclipid>
						<name>Nordvisjon3MASTER i-lyd.mxf</name>
						<enabled>TRUE</enabled>
						<duration>712</duration>
						<rate>
							<timebase>25</timebase>
							<ntsc>FALSE</ntsc>
						</rate>
						<start>-1</start>
						<end>-1</end>
						<in>19</in>
						<out>683</out>
						<pproTicksIn>193052160000</pproTicksIn>
						<pproTicksOut>6939717120000</pproTicksOut>
						<file id="file-13"/>
						<sourcetrack>
							<mediatype>audio</mediatype>
							<trackindex>2</trackindex>
						</sourcetrack>
							<filter>
								<effect>
									<name>Audio Levels</name>
									<effectid>audiolevels</effectid>
									<effectcategory>audiolevels</effectcategory>
									<effecttype>audiolevels</effecttype>
									<mediatype>audio</mediatype>
									<parameter authoringApp="PremierePro">
										<parameterid>level</parameterid>
										<name>Level</name>
										<valuemin>0</valuemin>
										<valuemax>3.98109</valuemax>
										<value>0.332543</value>
										<keyframe>
											<when>566</when>
											<value>0.99763</value>
										</keyframe>
										<keyframe>
											<when>598</when>
											<value>0.332543</value>
										</keyframe>
									</parameter>
								</effect>
							</filter>
						<link>
							<linkclipref>clipitem-1266</linkclipref>
							<mediatype>audio</mediatype>
							<trackindex>12</trackindex>
							<clipindex>128</clipindex>
							<groupindex>1</groupindex>
						</link>
						<link>
							<linkclipref>clipitem-1351</linkclipref>
							<mediatype>audio</mediatype>
							<trackindex>13</trackindex>
							<clipindex>128</clipindex>
							<groupindex>1</groupindex>
						</link>
						<logginginfo>
							<description></description>
							<scene></scene>
							<shottake></shottake>
							<lognote></lognote>
						</logginginfo>
						<labels>
							<label2>Iris</label2>
						</labels>
					</clipitem>
					<transitionitem>
						<start>99419</start>
						<end>99432</end>
						<alignment>center</alignment>
						<cutPointTicks>60963840000</cutPointTicks>
						<rate>
							<timebase>25</timebase>
							<ntsc>FALSE</ntsc>
						</rate>
						<effect>
							<name>Cross Fade (+3dB)</name>
							<effectid>KGAudioTransCrossFade3dB</effectid>
							<effecttype>transition</effecttype>
							<mediatype>audio</mediatype>
							<wipecode>0</wipecode>
							<wipeaccuracy>100</wipeaccuracy>
							<startratio>0</startratio>
							<endratio>1</endratio>
							<reverse>FALSE</reverse>
						</effect>
					</transitionitem>
					<clipitem id="clipitem-1352" premiereChannelType="stereo">
						<masterclipid>masterclip-163</masterclipid>
						<name>Nordvisjon3MASTER i-lyd.mxf</name>
						<enabled>TRUE</enabled>
						<duration>154</duration>
						<rate>
							<timebase>25</timebase>
							<ntsc>FALSE</ntsc>
						</rate>
						<start>-1</start>
						<end>-1</end>
						<in>19</in>
						<out>125</out>
						<pproTicksIn>193052160000</pproTicksIn>
						<pproTicksOut>1270080000000</pproTicksOut>
						<file id="file-163"/>
						<sourcetrack>
							<mediatype>audio</mediatype>
							<trackindex>2</trackindex>
						</sourcetrack>
							<filter>
								<effect>
									<name>Audio Levels</name>
									<effectid>audiolevels</effectid>
									<effectcategory>audiolevels</effectcategory>
									<effecttype>audiolevels</effecttype>
									<mediatype>audio</mediatype>
									<parameter authoringApp="PremierePro">
										<parameterid>level</parameterid>
										<name>Level</name>
										<valuemin>0</valuemin>
										<valuemax>3.98109</valuemax>
										<value>0.332543</value>
										<keyframe>
											<when>66</when>
											<value>0.332543</value>
										</keyframe>
									</parameter>
								</effect>
							</filter>
						<link>
							<linkclipref>clipitem-1267</linkclipref>
							<mediatype>audio</mediatype>
							<trackindex>12</trackindex>
							<clipindex>130</clipindex>
							<groupindex>1</groupindex>
						</link>
						<link>
							<linkclipref>clipitem-1352</linkclipref>
							<mediatype>audio</mediatype>
							<trackindex>13</trackindex>
							<clipindex>130</clipindex>
							<groupindex>1</groupindex>
						</link>
						<logginginfo>
							<description></description>
							<scene></scene>
							<shottake></shottake>
							<lognote></lognote>
						</logginginfo>
						<labels>
							<label2>Iris</label2>
						</labels>
					</clipitem>
					<transitionitem>
						<start>99512</start>
						<end>99525</end>
						<alignment>center</alignment>
						<cutPointTicks>60963840000</cutPointTicks>
						<rate>
							<timebase>25</timebase>
							<ntsc>FALSE</ntsc>
						</rate>
						<effect>
							<name>Cross Fade (+3dB)</name>
							<effectid>KGAudioTransCrossFade3dB</effectid>
							<effecttype>transition</effecttype>
							<mediatype>audio</mediatype>
							<wipecode>0</wipecode>
							<wipeaccuracy>100</wipeaccuracy>
							<startratio>0</startratio>
							<endratio>1</endratio>
							<reverse>FALSE</reverse>
						</effect>
					</transitionitem>
					<clipitem id="clipitem-1353" premiereChannelType="stereo">
						<masterclipid>masterclip-164</masterclipid>
						<name>Nordvisjon3MASTER i-lyd.mxf</name>
						<enabled>TRUE</enabled>
						<duration>175</duration>
						<rate>
							<timebase>25</timebase>
							<ntsc>FALSE</ntsc>
						</rate>
						<start>-1</start>
						<end>-1</end>
						<in>19</in>
						<out>146</out>
						<pproTicksIn>193052160000</pproTicksIn>
						<pproTicksOut>1483453440000</pproTicksOut>
						<file id="file-164"/>
						<sourcetrack>
							<mediatype>audio</mediatype>
							<trackindex>2</trackindex>
						</sourcetrack>
							<filter>
								<effect>
									<name>Audio Levels</name>
									<effectid>audiolevels</effectid>
									<effectcategory>audiolevels</effectcategory>
									<effecttype>audiolevels</effecttype>
									<mediatype>audio</mediatype>
									<parameter authoringApp="PremierePro">
										<parameterid>level</parameterid>
										<name>Level</name>
										<valuemin>0</valuemin>
										<valuemax>3.98109</valuemax>
										<value>0.406442</value>
										<keyframe>
											<when>88</when>
											<value>0.406442</value>
										</keyframe>
									</parameter>
								</effect>
							</filter>
						<link>
							<linkclipref>clipitem-1268</linkclipref>
							<mediatype>audio</mediatype>
							<trackindex>12</trackindex>
							<clipindex>132</clipindex>
							<groupindex>1</groupindex>
						</link>
						<link>
							<linkclipref>clipitem-1353</linkclipref>
							<mediatype>audio</mediatype>
							<trackindex>13</trackindex>
							<clipindex>132</clipindex>
							<groupindex>1</groupindex>
						</link>
						<logginginfo>
							<description></description>
							<scene></scene>
							<shottake></shottake>
							<lognote></lognote>
						</logginginfo>
						<labels>
							<label2>Iris</label2>
						</labels>
					</clipitem>
					<transitionitem>
						<start>99626</start>
						<end>99639</end>
						<alignment>center</alignment>
						<cutPointTicks>60963840000</cutPointTicks>
						<rate>
							<timebase>25</timebase>
							<ntsc>FALSE</ntsc>
						</rate>
						<effect>
							<name>Cross Fade (+3dB)</name>
							<effectid>KGAudioTransCrossFade3dB</effectid>
							<effecttype>transition</effecttype>
							<mediatype>audio</mediatype>
							<wipecode>0</wipecode>
							<wipeaccuracy>100</wipeaccuracy>
							<startratio>0</startratio>
							<endratio>1</endratio>
							<reverse>FALSE</reverse>
						</effect>
					</transitionitem>
					<clipitem id="clipitem-1354" premiereChannelType="stereo">
						<masterclipid>masterclip-165</masterclipid>
						<name>Nordvisjon3MASTER i-lyd.mxf</name>
						<enabled>TRUE</enabled>
						<duration>890</duration>
						<rate>
							<timebase>25</timebase>
							<ntsc>FALSE</ntsc>
						</rate>
						<start>-1</start>
						<end>-1</end>
						<in>19</in>
						<out>464</out>
						<pproTicksIn>193052160000</pproTicksIn>
						<pproTicksOut>4714536960000</pproTicksOut>
						<file id="file-165"/>
						<sourcetrack>
							<mediatype>audio</mediatype>
							<trackindex>2</trackindex>
						</sourcetrack>
						<link>
							<linkclipref>clipitem-1269</linkclipref>
							<mediatype>audio</mediatype>
							<trackindex>12</trackindex>
							<clipindex>134</clipindex>
							<groupindex>1</groupindex>
						</link>
						<link>
							<linkclipref>clipitem-1354</linkclipref>
							<mediatype>audio</mediatype>
							<trackindex>13</trackindex>
							<clipindex>134</clipindex>
							<groupindex>1</groupindex>
						</link>
						<logginginfo>
							<description></description>
							<scene></scene>
							<shottake></shottake>
							<lognote></lognote>
						</logginginfo>
						<labels>
							<label2>Iris</label2>
						</labels>
					</clipitem>
					<transitionitem>
						<start>100058</start>
						<end>100071</end>
						<alignment>end-black</alignment>
						<cutPointTicks>132088320000</cutPointTicks>
						<rate>
							<timebase>25</timebase>
							<ntsc>FALSE</ntsc>
						</rate>
						<effect>
							<name>Cross Fade (+3dB)</name>
							<effectid>KGAudioTransCrossFade3dB</effectid>
							<effecttype>transition</effecttype>
							<mediatype>audio</mediatype>
							<wipecode>0</wipecode>
							<wipeaccuracy>100</wipeaccuracy>
							<startratio>0</startratio>
							<endratio>1</endratio>
							<reverse>FALSE</reverse>
						</effect>
					</transitionitem>
					<transitionitem>
						<start>100142</start>
						<end>100155</end>
						<alignment>start-black</alignment>
						<cutPointTicks>0</cutPointTicks>
						<rate>
							<timebase>25</timebase>
							<ntsc>FALSE</ntsc>
						</rate>
						<effect>
							<name>Cross Fade (+3dB)</name>
							<effectid>KGAudioTransCrossFade3dB</effectid>
							<effecttype>transition</effecttype>
							<mediatype>audio</mediatype>
							<wipecode>0</wipecode>
							<wipeaccuracy>100</wipeaccuracy>
							<startratio>0</startratio>
							<endratio>1</endratio>
							<reverse>FALSE</reverse>
						</effect>
					</transitionitem>
					<clipitem id="clipitem-1355" premiereChannelType="stereo">
						<masterclipid>masterclip-168</masterclipid>
						<name>AA282601.MXF</name>
						<enabled>TRUE</enabled>
						<duration>2568</duration>
						<rate>
							<timebase>25</timebase>
							<ntsc>FALSE</ntsc>
						</rate>
						<start>-1</start>
						<end>100270</end>
						<in>1625</in>
						<out>1753</out>
						<pproTicksIn>16511040000000</pproTicksIn>
						<pproTicksOut>17811601920000</pproTicksOut>
						<file id="file-168"/>
						<sourcetrack>
							<mediatype>audio</mediatype>
							<trackindex>1</trackindex>
						</sourcetrack>
						<link>
							<linkclipref>clipitem-242</linkclipref>
							<mediatype>video</mediatype>
							<trackindex>1</trackindex>
							<clipindex>252</clipindex>
						</link>
						<link>
							<linkclipref>clipitem-813</linkclipref>
							<mediatype>audio</mediatype>
							<trackindex>8</trackindex>
							<clipindex>119</clipindex>
							<groupindex>1</groupindex>
						</link>
						<link>
							<linkclipref>clipitem-907</linkclipref>
							<mediatype>audio</mediatype>
							<trackindex>9</trackindex>
							<clipindex>117</clipindex>
							<groupindex>1</groupindex>
						</link>
						<link>
							<linkclipref>clipitem-1270</linkclipref>
							<mediatype>audio</mediatype>
							<trackindex>12</trackindex>
							<clipindex>137</clipindex>
							<groupindex>1</groupindex>
						</link>
						<link>
							<linkclipref>clipitem-1355</linkclipref>
							<mediatype>audio</mediatype>
							<trackindex>13</trackindex>
							<clipindex>137</clipindex>
							<groupindex>1</groupindex>
						</link>
						<logginginfo>
							<description></description>
							<scene></scene>
							<shottake></shottake>
							<lognote></lognote>
						</logginginfo>
						<labels>
							<label2>Iris</label2>
						</labels>
					</clipitem>
					<enabled>TRUE</enabled>
					<locked>FALSE</locked>
					<outputchannelindex>2</outputchannelindex>
				</track>
				<track TL.SQTrackAudioKeyframeStyle="0" TL.SQTrackShy="0" TL.SQTrackExpandedHeight="92" TL.SQTrackExpanded="1" MZ.TrackTargeted="1" PannerCurrentValue="0.5" PannerIsInverted="true" PannerStartKeyframe="-91445760000000000,0.5,0,0,0,0,0,0" PannerName="Balance" currentExplodedTrackIndex="0" totalExplodedTrackCount="2" premiereTrackType="Stereo">
					<clipitem id="clipitem-1356" premiereChannelType="stereo">
						<masterclipid>masterclip-330</masterclipid>
						<name>NATURLIGHELAFTEN-Clean.wav</name>
						<enabled>TRUE</enabled>
						<duration>151</duration>
						<rate>
							<timebase>25</timebase>
							<ntsc>FALSE</ntsc>
						</rate>
						<start>453</start>
						<end>566</end>
						<in>0</in>
						<out>113</out>
						<pproTicksIn>0</pproTicksIn>
						<pproTicksOut>1148152320000</pproTicksOut>
						<file id="file-330">
							<name>NATURLIGHELAFTEN-Clean.wav</name>
							<pathurl>file://localhost/Volumes/Svartediket/FCPutveksling/NATUR/_UIN-NY_GRAFIKK2015_PremierePro-mal/Rastoff/NATURLIGHELAFTEN-Clean.wav</pathurl>
							<rate>
								<timebase>30</timebase>
								<ntsc>TRUE</ntsc>
							</rate>
							<duration>181</duration>
							<timecode>
								<rate>
									<timebase>30</timebase>
									<ntsc>TRUE</ntsc>
								</rate>
								<string>00;00;19;29</string>
								<frame>599</frame>
								<displayformat>DF</displayformat>
								<reel>
									<name></name>
								</reel>
							</timecode>
							<media>
								<audio>
									<samplecharacteristics>
										<depth>16</depth>
										<samplerate>48000</samplerate>
									</samplecharacteristics>
									<channelcount>2</channelcount>
								</audio>
							</media>
						</file>
						<sourcetrack>
							<mediatype>audio</mediatype>
							<trackindex>1</trackindex>
						</sourcetrack>
							<filter>
								<effect>
									<name>Audio Levels</name>
									<effectid>audiolevels</effectid>
									<effectcategory>audiolevels</effectcategory>
									<effecttype>audiolevels</effecttype>
									<mediatype>audio</mediatype>
									<parameter authoringApp="PremierePro">
										<parameterid>level</parameterid>
										<name>Level</name>
										<valuemin>0</valuemin>
										<valuemax>3.98109</valuemax>
										<value>0.425786</value>
									</parameter>
								</effect>
							</filter>
						<link>
							<linkclipref>clipitem-1356</linkclipref>
							<mediatype>audio</mediatype>
							<trackindex>14</trackindex>
							<clipindex>1</clipindex>
							<groupindex>1</groupindex>
						</link>
						<link>
							<linkclipref>clipitem-1388</linkclipref>
							<mediatype>audio</mediatype>
							<trackindex>15</trackindex>
							<clipindex>1</clipindex>
							<groupindex>1</groupindex>
						</link>
						<logginginfo>
							<description></description>
							<scene></scene>
							<shottake></shottake>
							<lognote></lognote>
						</logginginfo>
						<labels>
							<label2>Iris</label2>
						</labels>
					</clipitem>
					<clipitem id="clipitem-1357" premiereChannelType="stereo">
						<masterclipid>masterclip-11</masterclipid>
						<name>OWH Master 161123_.mov</name>
						<enabled>TRUE</enabled>
						<duration>86750</duration>
						<rate>
							<timebase>25</timebase>
							<ntsc>FALSE</ntsc>
						</rate>
						<start>1603</start>
						<end>1917</end>
						<in>25004</in>
						<out>25318</out>
						<pproTicksIn>254056642560000</pproTicksIn>
						<pproTicksOut>257247083520000</pproTicksOut>
						<file id="file-11"/>
						<sourcetrack>
							<mediatype>audio</mediatype>
							<trackindex>1</trackindex>
						</sourcetrack>
							<filter>
								<effect>
									<name>Audio Levels</name>
									<effectid>audiolevels</effectid>
									<effectcategory>audiolevels</effectcategory>
									<effecttype>audiolevels</effecttype>
									<mediatype>audio</mediatype>
									<parameter authoringApp="PremierePro">
										<parameterid>level</parameterid>
										<name>Level</name>
										<valuemin>0</valuemin>
										<valuemax>3.98109</valuemax>
										<value>0</value>
										<keyframe>
											<when>24305</when>
											<value>0</value>
										</keyframe>
										<keyframe>
											<when>24321</when>
											<value>0</value>
										</keyframe>
										<keyframe>
											<when>24421</when>
											<value>0</value>
										</keyframe>
										<keyframe>
											<when>24435</when>
											<value>0.254371</value>
										</keyframe>
										<keyframe>
											<when>24445</when>
											<value>0.725549</value>
										</keyframe>
										<keyframe>
											<when>24473</when>
											<value>0.725549</value>
										</keyframe>
										<keyframe>
											<when>24510</when>
											<value>0.469473</value>
										</keyframe>
										<keyframe>
											<when>24745</when>
											<value>0.469473</value>
										</keyframe>
										<keyframe>
											<when>24762</when>
											<value>0.938946</value>
										</keyframe>
										<keyframe>
											<when>25008</when>
											<value>0</value>
										</keyframe>
										<keyframe>
											<when>25030</when>
											<value>0.938946</value>
										</keyframe>
										<keyframe>
											<when>25166</when>
											<value>0.938946</value>
										</keyframe>
										<keyframe>
											<when>25240</when>
											<value>0</value>
										</keyframe>
									</parameter>
								</effect>
							</filter>
						<link>
							<linkclipref>clipitem-15</linkclipref>
							<mediatype>video</mediatype>
							<trackindex>1</trackindex>
							<clipindex>15</clipindex>
						</link>
						<link>
							<linkclipref>clipitem-1357</linkclipref>
							<mediatype>audio</mediatype>
							<trackindex>14</trackindex>
							<clipindex>2</clipindex>
							<groupindex>1</groupindex>
						</link>
						<link>
							<linkclipref>clipitem-1389</linkclipref>
							<mediatype>audio</mediatype>
							<trackindex>15</trackindex>
							<clipindex>2</clipindex>
							<groupindex>1</groupindex>
						</link>
						<logginginfo>
							<description></description>
							<scene></scene>
							<shottake></shottake>
							<lognote></lognote>
						</logginginfo>
						<labels>
							<label2>Iris</label2>
						</labels>
					</clipitem>
					<clipitem id="clipitem-1358" premiereChannelType="stereo">
						<masterclipid>masterclip-331</masterclipid>
						<name>KOS_515_27_Chase_The_Sun_Song_Gall_883953.wav</name>
						<enabled>TRUE</enabled>
						<duration>3798</duration>
						<rate>
							<timebase>25</timebase>
							<ntsc>FALSE</ntsc>
						</rate>
						<start>2481</start>
						<end>3558</end>
						<in>2721</in>
						<out>3798</out>
						<pproTicksIn>27647101440000</pproTicksIn>
						<pproTicksOut>38590110720000</pproTicksOut>
						<file id="file-331">
							<name>KOS_515_27_Chase_The_Sun_Song_Gall_883953.wav</name>
							<pathurl>file://localhost/Volumes/Svartediket/Prosjekter/DVNA600216_HELAFTEN2016_FAL_010217/Musikk/KOS_515_27_Chase_The_Sun_Song_Gall_883953.wav</pathurl>
							<rate>
								<timebase>30</timebase>
								<ntsc>TRUE</ntsc>
							</rate>
							<duration>4553</duration>
							<timecode>
								<rate>
									<timebase>30</timebase>
									<ntsc>TRUE</ntsc>
								</rate>
								<string>00;00;00;00</string>
								<frame>0</frame>
								<displayformat>DF</displayformat>
								<reel>
									<name></name>
								</reel>
							</timecode>
							<media>
								<audio>
									<samplecharacteristics>
										<depth>16</depth>
										<samplerate>44100</samplerate>
									</samplecharacteristics>
									<channelcount>2</channelcount>
								</audio>
							</media>
						</file>
						<sourcetrack>
							<mediatype>audio</mediatype>
							<trackindex>1</trackindex>
						</sourcetrack>
							<filter>
								<effect>
									<name>Audio Levels</name>
									<effectid>audiolevels</effectid>
									<effectcategory>audiolevels</effectcategory>
									<effecttype>audiolevels</effecttype>
									<mediatype>audio</mediatype>
									<parameter authoringApp="PremierePro">
										<parameterid>level</parameterid>
										<name>Level</name>
										<valuemin>0</valuemin>
										<valuemax>3.98109</valuemax>
										<value>0.116992</value>
										<keyframe>
											<when>2505</when>
											<value>0</value>
										</keyframe>
										<keyframe>
											<when>2573</when>
											<value>0.102321</value>
										</keyframe>
										<keyframe>
											<when>2709</when>
											<value>0</value>
										</keyframe>
										<keyframe>
											<when>2742</when>
											<value>0</value>
										</keyframe>
										<keyframe>
											<when>2878</when>
											<value>0</value>
										</keyframe>
										<keyframe>
											<when>2942</when>
											<value>0.0799955</value>
										</keyframe>
										<keyframe>
											<when>2958</when>
											<value>0.116992</value>
										</keyframe>
									</parameter>
								</effect>
							</filter>
						<link>
							<linkclipref>clipitem-1358</linkclipref>
							<mediatype>audio</mediatype>
							<trackindex>14</trackindex>
							<clipindex>3</clipindex>
							<groupindex>1</groupindex>
						</link>
						<link>
							<linkclipref>clipitem-1390</linkclipref>
							<mediatype>audio</mediatype>
							<trackindex>15</trackindex>
							<clipindex>3</clipindex>
							<groupindex>1</groupindex>
						</link>
						<logginginfo>
							<description></description>
							<scene></scene>
							<shottake></shottake>
							<lognote></lognote>
						</logginginfo>
						<labels>
							<label2>Caribbean</label2>
						</labels>
					</clipitem>
					<clipitem id="clipitem-1359" premiereChannelType="stereo">
						<masterclipid>masterclip-24</masterclipid>
						<name>20160325171754.m2ts</name>
						<enabled>TRUE</enabled>
						<duration>4550</duration>
						<rate>
							<timebase>25</timebase>
							<ntsc>FALSE</ntsc>
						</rate>
						<start>4326</start>
						<end>4450</end>
						<in>2904</in>
						<out>3028</out>
						<pproTicksIn>29506498560000</pproTicksIn>
						<pproTicksOut>30766417920000</pproTicksOut>
						<file id="file-24"/>
						<sourcetrack>
							<mediatype>audio</mediatype>
							<trackindex>1</trackindex>
						</sourcetrack>
							<filter>
								<effect>
									<name>Audio Levels</name>
									<effectid>audiolevels</effectid>
									<effectcategory>audiolevels</effectcategory>
									<effecttype>audiolevels</effecttype>
									<mediatype>audio</mediatype>
									<parameter authoringApp="PremierePro">
										<parameterid>level</parameterid>
										<name>Level</name>
										<valuemin>0</valuemin>
										<valuemax>3.98109</valuemax>
										<value>0.272081</value>
									</parameter>
								</effect>
							</filter>
						<link>
							<linkclipref>clipitem-270</linkclipref>
							<mediatype>video</mediatype>
							<trackindex>2</trackindex>
							<clipindex>14</clipindex>
						</link>
						<link>
							<linkclipref>clipitem-1359</linkclipref>
							<mediatype>audio</mediatype>
							<trackindex>14</trackindex>
							<clipindex>4</clipindex>
							<groupindex>1</groupindex>
						</link>
						<link>
							<linkclipref>clipitem-1391</linkclipref>
							<mediatype>audio</mediatype>
							<trackindex>15</trackindex>
							<clipindex>4</clipindex>
							<groupindex>1</groupindex>
						</link>
						<logginginfo>
							<description></description>
							<scene></scene>
							<shottake></shottake>
							<lognote></lognote>
						</logginginfo>
						<labels>
							<label2>Iris</label2>
						</labels>
					</clipitem>
					<clipitem id="clipitem-1360" premiereChannelType="stereo">
						<masterclipid>masterclip-24</masterclipid>
						<name>20160325171754.m2ts</name>
						<enabled>TRUE</enabled>
						<duration>4550</duration>
						<rate>
							<timebase>25</timebase>
							<ntsc>FALSE</ntsc>
						</rate>
						<start>4654</start>
						<end>4848</end>
						<in>4262</in>
						<out>4456</out>
						<pproTicksIn>43304647680000</pproTicksIn>
						<pproTicksOut>45275811840000</pproTicksOut>
						<file id="file-24"/>
						<sourcetrack>
							<mediatype>audio</mediatype>
							<trackindex>1</trackindex>
						</sourcetrack>
							<filter>
								<effect>
									<name>Audio Levels</name>
									<effectid>audiolevels</effectid>
									<effectcategory>audiolevels</effectcategory>
									<effecttype>audiolevels</effecttype>
									<mediatype>audio</mediatype>
									<parameter authoringApp="PremierePro">
										<parameterid>level</parameterid>
										<name>Level</name>
										<valuemin>0</valuemin>
										<valuemax>3.98109</valuemax>
										<value>0</value>
										<keyframe>
											<when>4417</when>
											<value>0.453468</value>
										</keyframe>
										<keyframe>
											<when>4453</when>
											<value>0</value>
										</keyframe>
									</parameter>
								</effect>
							</filter>
						<link>
							<linkclipref>clipitem-271</linkclipref>
							<mediatype>video</mediatype>
							<trackindex>2</trackindex>
							<clipindex>15</clipindex>
						</link>
						<link>
							<linkclipref>clipitem-1360</linkclipref>
							<mediatype>audio</mediatype>
							<trackindex>14</trackindex>
							<clipindex>5</clipindex>
							<groupindex>1</groupindex>
						</link>
						<link>
							<linkclipref>clipitem-1392</linkclipref>
							<mediatype>audio</mediatype>
							<trackindex>15</trackindex>
							<clipindex>5</clipindex>
							<groupindex>1</groupindex>
						</link>
						<logginginfo>
							<description></description>
							<scene></scene>
							<shottake></shottake>
							<lognote></lognote>
						</logginginfo>
						<labels>
							<label2>Iris</label2>
						</labels>
					</clipitem>
					<clipitem id="clipitem-1361" premiereChannelType="stereo">
						<masterclipid>masterclip-184</masterclipid>
						<name>4 Mår vil ta dorullen på utedoen.mp4</name>
						<enabled>TRUE</enabled>
						<duration>778</duration>
						<rate>
							<timebase>25</timebase>
							<ntsc>FALSE</ntsc>
						</rate>
						<start>5962</start>
						<end>6008</end>
						<in>223</in>
						<out>269</out>
						<pproTicksIn>2265822720000</pproTicksIn>
						<pproTicksOut>2733212160000</pproTicksOut>
						<file id="file-184"/>
						<sourcetrack>
							<mediatype>audio</mediatype>
							<trackindex>1</trackindex>
						</sourcetrack>
							<filter>
								<effect>
									<name>Audio Levels</name>
									<effectid>audiolevels</effectid>
									<effectcategory>audiolevels</effectcategory>
									<effecttype>audiolevels</effecttype>
									<mediatype>audio</mediatype>
									<parameter authoringApp="PremierePro">
										<parameterid>level</parameterid>
										<name>Level</name>
										<valuemin>0</valuemin>
										<valuemax>3.98109</valuemax>
										<value>1.06131</value>
									</parameter>
								</effect>
							</filter>
						<link>
							<linkclipref>clipitem-1361</linkclipref>
							<mediatype>audio</mediatype>
							<trackindex>14</trackindex>
							<clipindex>6</clipindex>
							<groupindex>1</groupindex>
						</link>
						<link>
							<linkclipref>clipitem-1393</linkclipref>
							<mediatype>audio</mediatype>
							<trackindex>15</trackindex>
							<clipindex>6</clipindex>
							<groupindex>1</groupindex>
						</link>
						<logginginfo>
							<description></description>
							<scene></scene>
							<shottake></shottake>
							<lognote></lognote>
						</logginginfo>
						<labels>
							<label2>Iris</label2>
						</labels>
					</clipitem>
					<clipitem id="clipitem-1362" premiereChannelType="stereo">
						<masterclipid>masterclip-184</masterclipid>
						<name>4 Mår vil ta dorullen på utedoen.mp4</name>
						<enabled>TRUE</enabled>
						<duration>778</duration>
						<rate>
							<timebase>25</timebase>
							<ntsc>FALSE</ntsc>
						</rate>
						<start>6008</start>
						<end>6181</end>
						<in>269</in>
						<out>442</out>
						<pproTicksIn>2733212160000</pproTicksIn>
						<pproTicksOut>4491002880000</pproTicksOut>
						<file id="file-184"/>
						<sourcetrack>
							<mediatype>audio</mediatype>
							<trackindex>1</trackindex>
						</sourcetrack>
							<filter>
								<effect>
									<name>Audio Levels</name>
									<effectid>audiolevels</effectid>
									<effectcategory>audiolevels</effectcategory>
									<effecttype>audiolevels</effecttype>
									<mediatype>audio</mediatype>
									<parameter authoringApp="PremierePro">
										<parameterid>level</parameterid>
										<name>Level</name>
										<valuemin>0</valuemin>
										<valuemax>3.98109</valuemax>
										<value>1.06131</value>
									</parameter>
								</effect>
							</filter>
						<link>
							<linkclipref>clipitem-1362</linkclipref>
							<mediatype>audio</mediatype>
							<trackindex>14</trackindex>
							<clipindex>7</clipindex>
							<groupindex>1</groupindex>
						</link>
						<link>
							<linkclipref>clipitem-1394</linkclipref>
							<mediatype>audio</mediatype>
							<trackindex>15</trackindex>
							<clipindex>7</clipindex>
							<groupindex>1</groupindex>
						</link>
						<logginginfo>
							<description></description>
							<scene></scene>
							<shottake></shottake>
							<lognote></lognote>
						</logginginfo>
						<labels>
							<label2>Iris</label2>
						</labels>
					</clipitem>
					<clipitem id="clipitem-1363" premiereChannelType="stereo">
						<masterclipid>masterclip-187</masterclipid>
						<name>Måren vil ut av vedboden rediget.mp4</name>
						<enabled>TRUE</enabled>
						<duration>2600</duration>
						<rate>
							<timebase>25</timebase>
							<ntsc>FALSE</ntsc>
						</rate>
						<start>6954</start>
						<end>7109</end>
						<in>2118</in>
						<out>2273</out>
						<pproTicksIn>21520235520000</pproTicksIn>
						<pproTicksOut>23095134720000</pproTicksOut>
						<file id="file-187"/>
						<sourcetrack>
							<mediatype>audio</mediatype>
							<trackindex>1</trackindex>
						</sourcetrack>
							<filter>
								<effect>
									<name>Audio Levels</name>
									<effectid>audiolevels</effectid>
									<effectcategory>audiolevels</effectcategory>
									<effecttype>audiolevels</effecttype>
									<mediatype>audio</mediatype>
									<parameter authoringApp="PremierePro">
										<parameterid>level</parameterid>
										<name>Level</name>
										<valuemin>0</valuemin>
										<valuemax>3.98109</valuemax>
										<value>0.122516</value>
									</parameter>
								</effect>
							</filter>
						<link>
							<linkclipref>clipitem-278</linkclipref>
							<mediatype>video</mediatype>
							<trackindex>2</trackindex>
							<clipindex>22</clipindex>
						</link>
						<link>
							<linkclipref>clipitem-1363</linkclipref>
							<mediatype>audio</mediatype>
							<trackindex>14</trackindex>
							<clipindex>8</clipindex>
							<groupindex>1</groupindex>
						</link>
						<link>
							<linkclipref>clipitem-1395</linkclipref>
							<mediatype>audio</mediatype>
							<trackindex>15</trackindex>
							<clipindex>8</clipindex>
							<groupindex>1</groupindex>
						</link>
						<logginginfo>
							<description></description>
							<scene></scene>
							<shottake></shottake>
							<lognote></lognote>
						</logginginfo>
						<labels>
							<label2>Iris</label2>
						</labels>
					</clipitem>
					<clipitem id="clipitem-1364" premiereChannelType="stereo">
						<masterclipid>masterclip-55</masterclipid>
						<name>20160516_113449.mp4</name>
						<enabled>TRUE</enabled>
						<duration>1056</duration>
						<rate>
							<timebase>25</timebase>
							<ntsc>FALSE</ntsc>
						</rate>
						<start>21778</start>
						<end>22668</end>
						<in>0</in>
						<out>890</out>
						<pproTicksIn>0</pproTicksIn>
						<pproTicksOut>9042969600000</pproTicksOut>
						<file id="file-55"/>
						<sourcetrack>
							<mediatype>audio</mediatype>
							<trackindex>1</trackindex>
						</sourcetrack>
							<filter>
								<effect>
									<name>Audio Levels</name>
									<effectid>audiolevels</effectid>
									<effectcategory>audiolevels</effectcategory>
									<effecttype>audiolevels</effecttype>
									<mediatype>audio</mediatype>
									<parameter authoringApp="PremierePro">
										<parameterid>level</parameterid>
										<name>Level</name>
										<valuemin>0</valuemin>
										<valuemax>3.98109</valuemax>
										<value>0</value>
									</parameter>
								</effect>
							</filter>
						<link>
							<linkclipref>clipitem-69</linkclipref>
							<mediatype>video</mediatype>
							<trackindex>1</trackindex>
							<clipindex>69</clipindex>
						</link>
						<link>
							<linkclipref>clipitem-1364</linkclipref>
							<mediatype>audio</mediatype>
							<trackindex>14</trackindex>
							<clipindex>9</clipindex>
							<groupindex>1</groupindex>
						</link>
						<link>
							<linkclipref>clipitem-1396</linkclipref>
							<mediatype>audio</mediatype>
							<trackindex>15</trackindex>
							<clipindex>9</clipindex>
							<groupindex>1</groupindex>
						</link>
						<logginginfo>
							<description></description>
							<scene></scene>
							<shottake></shottake>
							<lognote></lognote>
						</logginginfo>
						<labels>
							<label2>Iris</label2>
						</labels>
					</clipitem>
					<clipitem id="clipitem-1365" premiereChannelType="stereo">
						<masterclipid>masterclip-63</masterclipid>
						<name>AA277101.MXF</name>
						<enabled>TRUE</enabled>
						<duration>5604</duration>
						<rate>
							<timebase>25</timebase>
							<ntsc>FALSE</ntsc>
						</rate>
						<start>26270</start>
						<end>26431</end>
						<in>5368</in>
						<out>5529</out>
						<pproTicksIn>54542315520000</pproTicksIn>
						<pproTicksOut>56178178560000</pproTicksOut>
						<file id="file-63"/>
						<sourcetrack>
							<mediatype>audio</mediatype>
							<trackindex>1</trackindex>
						</sourcetrack>
						<link>
							<linkclipref>clipitem-1365</linkclipref>
							<mediatype>audio</mediatype>
							<trackindex>14</trackindex>
							<clipindex>10</clipindex>
							<groupindex>1</groupindex>
						</link>
						<link>
							<linkclipref>clipitem-1397</linkclipref>
							<mediatype>audio</mediatype>
							<trackindex>15</trackindex>
							<clipindex>10</clipindex>
							<groupindex>1</groupindex>
						</link>
						<logginginfo>
							<description></description>
							<scene></scene>
							<shottake></shottake>
							<lognote></lognote>
						</logginginfo>
						<labels>
							<label2>Iris</label2>
						</labels>
					</clipitem>
					<clipitem id="clipitem-1366" premiereChannelType="stereo">
						<masterclipid>masterclip-72</masterclipid>
						<name>DNPR65008515AA</name>
						<enabled>TRUE</enabled>
						<duration>89053</duration>
						<rate>
							<timebase>25</timebase>
							<ntsc>FALSE</ntsc>
						</rate>
						<start>28038</start>
						<end>28563</end>
						<in>51727</in>
						<out>52252</out>
						<pproTicksIn>525579425280000</pproTicksIn>
						<pproTicksOut>530913761280000</pproTicksOut>
						<file id="file-72"/>
						<sourcetrack>
							<mediatype>audio</mediatype>
							<trackindex>1</trackindex>
						</sourcetrack>
							<filter>
								<effect>
									<name>Audio Levels</name>
									<effectid>audiolevels</effectid>
									<effectcategory>audiolevels</effectcategory>
									<effecttype>audiolevels</effecttype>
									<mediatype>audio</mediatype>
									<parameter authoringApp="PremierePro">
										<parameterid>level</parameterid>
										<name>Level</name>
										<valuemin>0</valuemin>
										<valuemax>3.98109</valuemax>
										<value>0.137604</value>
										<keyframe>
											<when>51809</when>
											<value>0.137604</value>
										</keyframe>
										<keyframe>
											<when>51861</when>
											<value>0.99763</value>
										</keyframe>
										<keyframe>
											<when>52168</when>
											<value>0.99763</value>
										</keyframe>
										<keyframe>
											<when>52215</when>
											<value>0</value>
										</keyframe>
									</parameter>
								</effect>
							</filter>
						<link>
							<linkclipref>clipitem-1366</linkclipref>
							<mediatype>audio</mediatype>
							<trackindex>14</trackindex>
							<clipindex>11</clipindex>
							<groupindex>1</groupindex>
						</link>
						<link>
							<linkclipref>clipitem-1398</linkclipref>
							<mediatype>audio</mediatype>
							<trackindex>15</trackindex>
							<clipindex>11</clipindex>
							<groupindex>1</groupindex>
						</link>
						<logginginfo>
							<description>Et eventyr gjennom linsa</description>
							<scene></scene>
							<shottake></shottake>
							<lognote></lognote>
						</logginginfo>
						<labels>
							<label2>Iris</label2>
						</labels>
					</clipitem>
					<clipitem id="clipitem-1367" premiereChannelType="stereo">
						<masterclipid>masterclip-268</masterclipid>
						<name>00007.mxf</name>
						<enabled>TRUE</enabled>
						<duration>216</duration>
						<rate>
							<timebase>25</timebase>
							<ntsc>FALSE</ntsc>
						</rate>
						<start>43893</start>
						<end>44005</end>
						<in>62</in>
						<out>174</out>
						<pproTicksIn>629959680000</pproTicksIn>
						<pproTicksOut>1767951360000</pproTicksOut>
						<file id="file-268"/>
						<sourcetrack>
							<mediatype>audio</mediatype>
							<trackindex>1</trackindex>
						</sourcetrack>
							<filter>
								<effect>
									<name>Gain</name>
									<effectid>{61756678, 4761696e, 4b657947}</effectid>
									<effecttype>filter</effecttype>
									<mediatype>audio</mediatype>
									<parameter authoringApp="PremierePro">
										<parameterid>Gain(dB)</parameterid>
										<name>Gain(dB)</name>
										<valuemin>-96</valuemin>
										<valuemax>96</valuemax>
										<value>-15</value>
									</parameter>
								</effect>
							</filter>
							<filter>
								<effect>
									<name>Audio Levels</name>
									<effectid>audiolevels</effectid>
									<effectcategory>audiolevels</effectcategory>
									<effecttype>audiolevels</effecttype>
									<mediatype>audio</mediatype>
									<parameter authoringApp="PremierePro">
										<parameterid>level</parameterid>
										<name>Level</name>
										<valuemin>0</valuemin>
										<valuemax>3.98109</valuemax>
										<value>0.912725</value>
										<keyframe>
											<when>68</when>
											<value>0</value>
										</keyframe>
										<keyframe>
											<when>94</when>
											<value>0.912725</value>
										</keyframe>
									</parameter>
								</effect>
							</filter>
						<link>
							<linkclipref>clipitem-1367</linkclipref>
							<mediatype>audio</mediatype>
							<trackindex>14</trackindex>
							<clipindex>12</clipindex>
							<groupindex>1</groupindex>
						</link>
						<link>
							<linkclipref>clipitem-1399</linkclipref>
							<mediatype>audio</mediatype>
							<trackindex>15</trackindex>
							<clipindex>12</clipindex>
							<groupindex>1</groupindex>
						</link>
						<logginginfo>
							<description></description>
							<scene></scene>
							<shottake></shottake>
							<lognote></lognote>
						</logginginfo>
						<labels>
							<label2>Iris</label2>
						</labels>
					</clipitem>
					<clipitem id="clipitem-1368" premiereChannelType="stereo">
						<masterclipid>masterclip-246</masterclipid>
						<name>NRK1-280616-CF.mxf</name>
						<enabled>TRUE</enabled>
						<duration>81975</duration>
						<rate>
							<timebase>25</timebase>
							<ntsc>FALSE</ntsc>
						</rate>
						<start>53201</start>
						<end>53827</end>
						<in>44242</in>
						<out>44868</out>
						<pproTicksIn>449527034880000</pproTicksIn>
						<pproTicksOut>455887595520000</pproTicksOut>
						<file id="file-246"/>
						<sourcetrack>
							<mediatype>audio</mediatype>
							<trackindex>1</trackindex>
						</sourcetrack>
							<filter>
								<effect>
									<name>Audio Levels</name>
									<effectid>audiolevels</effectid>
									<effectcategory>audiolevels</effectcategory>
									<effecttype>audiolevels</effecttype>
									<mediatype>audio</mediatype>
									<parameter authoringApp="PremierePro">
										<parameterid>level</parameterid>
										<name>Level</name>
										<valuemin>0</valuemin>
										<valuemax>3.98109</valuemax>
										<value>0</value>
										<keyframe>
											<when>44301</when>
											<value>0</value>
										</keyframe>
										<keyframe>
											<when>44344</when>
											<value>0.249408</value>
										</keyframe>
										<keyframe>
											<when>44776</when>
											<value>0.249408</value>
										</keyframe>
										<keyframe>
											<when>44866</when>
											<value>0</value>
										</keyframe>
									</parameter>
								</effect>
							</filter>
						<link>
							<linkclipref>clipitem-1368</linkclipref>
							<mediatype>audio</mediatype>
							<trackindex>14</trackindex>
							<clipindex>13</clipindex>
							<groupindex>1</groupindex>
						</link>
						<link>
							<linkclipref>clipitem-1400</linkclipref>
							<mediatype>audio</mediatype>
							<trackindex>15</trackindex>
							<clipindex>13</clipindex>
							<groupindex>1</groupindex>
						</link>
						<logginginfo>
							<description>DVNA20000716</description>
							<scene></scene>
							<shottake></shottake>
							<lognote></lognote>
						</logginginfo>
						<labels>
							<label2>Iris</label2>
						</labels>
					</clipitem>
					<clipitem id="clipitem-1369" premiereChannelType="stereo">
						<masterclipid>masterclip-332</masterclipid>
						<name>Nordvisjon-MASTER-vr3-201016-ny-musikk.wav</name>
						<enabled>TRUE</enabled>
						<duration>43741</duration>
						<rate>
							<timebase>25</timebase>
							<ntsc>FALSE</ntsc>
						</rate>
						<start>65533</start>
						<end>66954</end>
						<in>1628</in>
						<out>3049</out>
						<pproTicksIn>16541521920000</pproTicksIn>
						<pproTicksOut>30979791360000</pproTicksOut>
						<file id="file-332">
							<name>Nordvisjon-MASTER-vr3-201016-ny-musikk.wav</name>
							<pathurl>file://localhost/Volumes/Vaagen/Utveksling/Natur/Naturlig%20helaften%20fra%20Oslo/Transcoded_Nedklipp%20helaften/Nordvisjon-MASTER-vr3-201016-ny-musikk.wav</pathurl>
							<rate>
								<timebase>30</timebase>
								<ntsc>TRUE</ntsc>
							</rate>
							<duration>52436</duration>
							<timecode>
								<rate>
									<timebase>30</timebase>
									<ntsc>TRUE</ntsc>
								</rate>
								<string>00;00;00;00</string>
								<frame>0</frame>
								<displayformat>DF</displayformat>
								<reel>
									<name></name>
								</reel>
							</timecode>
							<media>
								<audio>
									<samplecharacteristics>
										<depth>16</depth>
										<samplerate>48000</samplerate>
									</samplecharacteristics>
									<channelcount>2</channelcount>
								</audio>
							</media>
						</file>
						<sourcetrack>
							<mediatype>audio</mediatype>
							<trackindex>1</trackindex>
						</sourcetrack>
							<filter>
								<effect>
									<name>Audio Levels</name>
									<effectid>audiolevels</effectid>
									<effectcategory>audiolevels</effectcategory>
									<effecttype>audiolevels</effecttype>
									<mediatype>audio</mediatype>
									<parameter authoringApp="PremierePro">
										<parameterid>level</parameterid>
										<name>Level</name>
										<valuemin>0</valuemin>
										<valuemax>3.98109</valuemax>
										<value>0.55188</value>
										<keyframe>
											<when>2147</when>
											<value>0.99763</value>
										</keyframe>
										<keyframe>
											<when>2179</when>
											<value>0.339619</value>
										</keyframe>
										<keyframe>
											<when>2353</when>
											<value>0.339619</value>
										</keyframe>
										<keyframe>
											<when>2403</when>
											<value>1.02574</value>
										</keyframe>
										<keyframe>
											<when>2612</when>
											<value>1.02574</value>
										</keyframe>
										<keyframe>
											<when>2675</when>
											<value>0.55188</value>
										</keyframe>
									</parameter>
								</effect>
							</filter>
							<marker>
								<comment></comment>
								<name></name>
								<in>40399</in>
								<out>-1</out>
							</marker>
							<marker>
								<comment></comment>
								<name></name>
								<in>3092</in>
								<out>-1</out>
							</marker>
							<marker>
								<comment></comment>
								<name></name>
								<in>36054</in>
								<out>-1</out>
							</marker>
							<marker>
								<comment></comment>
								<name></name>
								<in>0</in>
								<out>-1</out>
							</marker>
						<link>
							<linkclipref>clipitem-1369</linkclipref>
							<mediatype>audio</mediatype>
							<trackindex>14</trackindex>
							<clipindex>14</clipindex>
							<groupindex>1</groupindex>
						</link>
						<link>
							<linkclipref>clipitem-1401</linkclipref>
							<mediatype>audio</mediatype>
							<trackindex>15</trackindex>
							<clipindex>14</clipindex>
							<groupindex>1</groupindex>
						</link>
						<logginginfo>
							<description></description>
							<scene></scene>
							<shottake></shottake>
							<lognote></lognote>
						</logginginfo>
						<labels>
							<label2>Iris</label2>
						</labels>
					</clipitem>
					<clipitem id="clipitem-1370" premiereChannelType="stereo">
						<masterclipid>masterclip-332</masterclipid>
						<name>Nordvisjon-MASTER-vr3-201016-ny-musikk.wav</name>
						<enabled>TRUE</enabled>
						<duration>43741</duration>
						<rate>
							<timebase>25</timebase>
							<ntsc>FALSE</ntsc>
						</rate>
						<start>66954</start>
						<end>67722</end>
						<in>4013</in>
						<out>4781</out>
						<pproTicksIn>40774648320000</pproTicksIn>
						<pproTicksOut>48578019840000</pproTicksOut>
						<file id="file-332"/>
						<sourcetrack>
							<mediatype>audio</mediatype>
							<trackindex>1</trackindex>
						</sourcetrack>
							<filter>
								<effect>
									<name>Audio Levels</name>
									<effectid>audiolevels</effectid>
									<effectcategory>audiolevels</effectcategory>
									<effecttype>audiolevels</effecttype>
									<mediatype>audio</mediatype>
									<parameter authoringApp="PremierePro">
										<parameterid>level</parameterid>
										<name>Level</name>
										<valuemin>0</valuemin>
										<valuemax>3.98109</valuemax>
										<value>0.318393</value>
										<keyframe>
											<when>4342</when>
											<value>0.488202</value>
										</keyframe>
										<keyframe>
											<when>4377</when>
											<value>0.785368</value>
										</keyframe>
										<keyframe>
											<when>4445</when>
											<value>0.785368</value>
										</keyframe>
										<keyframe>
											<when>4535</when>
											<value>0.76768</value>
										</keyframe>
										<keyframe>
											<when>4586</when>
											<value>0.318393</value>
										</keyframe>
									</parameter>
								</effect>
							</filter>
							<marker>
								<comment></comment>
								<name></name>
								<in>40399</in>
								<out>-1</out>
							</marker>
							<marker>
								<comment></comment>
								<name></name>
								<in>3092</in>
								<out>-1</out>
							</marker>
							<marker>
								<comment></comment>
								<name></name>
								<in>36054</in>
								<out>-1</out>
							</marker>
							<marker>
								<comment></comment>
								<name></name>
								<in>0</in>
								<out>-1</out>
							</marker>
						<link>
							<linkclipref>clipitem-1370</linkclipref>
							<mediatype>audio</mediatype>
							<trackindex>14</trackindex>
							<clipindex>15</clipindex>
							<groupindex>1</groupindex>
						</link>
						<link>
							<linkclipref>clipitem-1402</linkclipref>
							<mediatype>audio</mediatype>
							<trackindex>15</trackindex>
							<clipindex>15</clipindex>
							<groupindex>1</groupindex>
						</link>
						<logginginfo>
							<description></description>
							<scene></scene>
							<shottake></shottake>
							<lognote></lognote>
						</logginginfo>
						<labels>
							<label2>Iris</label2>
						</labels>
					</clipitem>
					<clipitem id="clipitem-1371" premiereChannelType="stereo">
						<masterclipid>masterclip-332</masterclipid>
						<name>Nordvisjon-MASTER-vr3-201016-ny-musikk.wav</name>
						<enabled>TRUE</enabled>
						<duration>43741</duration>
						<rate>
							<timebase>25</timebase>
							<ntsc>FALSE</ntsc>
						</rate>
						<start>67722</start>
						<end>68022</end>
						<in>4940</in>
						<out>5240</out>
						<pproTicksIn>50193561600000</pproTicksIn>
						<pproTicksOut>53241753600000</pproTicksOut>
						<file id="file-332"/>
						<sourcetrack>
							<mediatype>audio</mediatype>
							<trackindex>1</trackindex>
						</sourcetrack>
							<marker>
								<comment></comment>
								<name></name>
								<in>40399</in>
								<out>-1</out>
							</marker>
							<marker>
								<comment></comment>
								<name></name>
								<in>3092</in>
								<out>-1</out>
							</marker>
							<marker>
								<comment></comment>
								<name></name>
								<in>36054</in>
								<out>-1</out>
							</marker>
							<marker>
								<comment></comment>
								<name></name>
								<in>0</in>
								<out>-1</out>
							</marker>
						<link>
							<linkclipref>clipitem-1371</linkclipref>
							<mediatype>audio</mediatype>
							<trackindex>14</trackindex>
							<clipindex>16</clipindex>
							<groupindex>1</groupindex>
						</link>
						<link>
							<linkclipref>clipitem-1403</linkclipref>
							<mediatype>audio</mediatype>
							<trackindex>15</trackindex>
							<clipindex>16</clipindex>
							<groupindex>1</groupindex>
						</link>
						<logginginfo>
							<description></description>
							<scene></scene>
							<shottake></shottake>
							<lognote></lognote>
						</logginginfo>
						<labels>
							<label2>Iris</label2>
						</labels>
					</clipitem>
					<clipitem id="clipitem-1372" premiereChannelType="stereo">
						<masterclipid>masterclip-332</masterclipid>
						<name>Nordvisjon-MASTER-vr3-201016-ny-musikk.wav</name>
						<enabled>TRUE</enabled>
						<duration>43741</duration>
						<rate>
							<timebase>25</timebase>
							<ntsc>FALSE</ntsc>
						</rate>
						<start>68022</start>
						<end>70690</end>
						<in>5472</in>
						<out>8140</out>
						<pproTicksIn>55599022080000</pproTicksIn>
						<pproTicksOut>82707609600000</pproTicksOut>
						<file id="file-332"/>
						<sourcetrack>
							<mediatype>audio</mediatype>
							<trackindex>1</trackindex>
						</sourcetrack>
							<filter>
								<effect>
									<name>Audio Levels</name>
									<effectid>audiolevels</effectid>
									<effectcategory>audiolevels</effectcategory>
									<effecttype>audiolevels</effecttype>
									<mediatype>audio</mediatype>
									<parameter authoringApp="PremierePro">
										<parameterid>level</parameterid>
										<name>Level</name>
										<valuemin>0</valuemin>
										<valuemax>3.98109</valuemax>
										<value>0.488202</value>
										<keyframe>
											<when>6470</when>
											<value>0.99763</value>
										</keyframe>
										<keyframe>
											<when>6517</when>
											<value>0.488202</value>
										</keyframe>
									</parameter>
								</effect>
							</filter>
							<marker>
								<comment></comment>
								<name></name>
								<in>40399</in>
								<out>-1</out>
							</marker>
							<marker>
								<comment></comment>
								<name></name>
								<in>3092</in>
								<out>-1</out>
							</marker>
							<marker>
								<comment></comment>
								<name></name>
								<in>36054</in>
								<out>-1</out>
							</marker>
							<marker>
								<comment></comment>
								<name></name>
								<in>0</in>
								<out>-1</out>
							</marker>
						<link>
							<linkclipref>clipitem-1372</linkclipref>
							<mediatype>audio</mediatype>
							<trackindex>14</trackindex>
							<clipindex>17</clipindex>
							<groupindex>1</groupindex>
						</link>
						<link>
							<linkclipref>clipitem-1404</linkclipref>
							<mediatype>audio</mediatype>
							<trackindex>15</trackindex>
							<clipindex>17</clipindex>
							<groupindex>1</groupindex>
						</link>
						<logginginfo>
							<description></description>
							<scene></scene>
							<shottake></shottake>
							<lognote></lognote>
						</logginginfo>
						<labels>
							<label2>Iris</label2>
						</labels>
					</clipitem>
					<clipitem id="clipitem-1373" premiereChannelType="stereo">
						<masterclipid>masterclip-332</masterclipid>
						<name>Nordvisjon-MASTER-vr3-201016-ny-musikk.wav</name>
						<enabled>TRUE</enabled>
						<duration>43741</duration>
						<rate>
							<timebase>25</timebase>
							<ntsc>FALSE</ntsc>
						</rate>
						<start>71306</start>
						<end>-1</end>
						<in>11186</in>
						<out>12656</out>
						<pproTicksIn>113656919040000</pproTicksIn>
						<pproTicksOut>128593059840000</pproTicksOut>
						<file id="file-332"/>
						<sourcetrack>
							<mediatype>audio</mediatype>
							<trackindex>1</trackindex>
						</sourcetrack>
							<filter>
								<effect>
									<name>Audio Levels</name>
									<effectid>audiolevels</effectid>
									<effectcategory>audiolevels</effectcategory>
									<effecttype>audiolevels</effecttype>
									<mediatype>audio</mediatype>
									<parameter authoringApp="PremierePro">
										<parameterid>level</parameterid>
										<name>Level</name>
										<valuemin>0</valuemin>
										<valuemax>3.98109</valuemax>
										<value>0.99763</value>
										<keyframe>
											<when>11477</when>
											<value>0.99763</value>
										</keyframe>
										<keyframe>
											<when>11501</when>
											<value>0.360845</value>
										</keyframe>
										<keyframe>
											<when>11600</when>
											<value>0.360845</value>
										</keyframe>
										<keyframe>
											<when>11614</when>
											<value>0.99763</value>
										</keyframe>
										<keyframe>
											<when>11659</when>
											<value>0.99763</value>
										</keyframe>
										<keyframe>
											<when>11677</when>
											<value>0.360845</value>
										</keyframe>
										<keyframe>
											<when>11809</when>
											<value>0.360845</value>
										</keyframe>
										<keyframe>
											<when>11824</when>
											<value>0.955178</value>
										</keyframe>
										<keyframe>
											<when>12053</when>
											<value>0.955178</value>
										</keyframe>
										<keyframe>
											<when>12067</when>
											<value>0.488202</value>
										</keyframe>
										<keyframe>
											<when>12144</when>
											<value>0.488202</value>
										</keyframe>
										<keyframe>
											<when>12160</when>
											<value>0.99763</value>
										</keyframe>
									</parameter>
								</effect>
							</filter>
							<marker>
								<comment></comment>
								<name></name>
								<in>40399</in>
								<out>-1</out>
							</marker>
							<marker>
								<comment></comment>
								<name></name>
								<in>3092</in>
								<out>-1</out>
							</marker>
							<marker>
								<comment></comment>
								<name></name>
								<in>36054</in>
								<out>-1</out>
							</marker>
							<marker>
								<comment></comment>
								<name></name>
								<in>0</in>
								<out>-1</out>
							</marker>
						<link>
							<linkclipref>clipitem-1373</linkclipref>
							<mediatype>audio</mediatype>
							<trackindex>14</trackindex>
							<clipindex>18</clipindex>
							<groupindex>1</groupindex>
						</link>
						<link>
							<linkclipref>clipitem-1405</linkclipref>
							<mediatype>audio</mediatype>
							<trackindex>15</trackindex>
							<clipindex>18</clipindex>
							<groupindex>1</groupindex>
						</link>
						<logginginfo>
							<description></description>
							<scene></scene>
							<shottake></shottake>
							<lognote></lognote>
						</logginginfo>
						<labels>
							<label2>Iris</label2>
						</labels>
					</clipitem>
					<transitionitem>
						<start>72763</start>
						<end>72776</end>
						<alignment>center</alignment>
						<cutPointTicks>60963840000</cutPointTicks>
						<rate>
							<timebase>25</timebase>
							<ntsc>FALSE</ntsc>
						</rate>
						<effect>
							<name>Cross Fade (+3dB)</name>
							<effectid>KGAudioTransCrossFade3dB</effectid>
							<effecttype>transition</effecttype>
							<mediatype>audio</mediatype>
							<wipecode>0</wipecode>
							<wipeaccuracy>100</wipeaccuracy>
							<startratio>0</startratio>
							<endratio>1</endratio>
							<reverse>FALSE</reverse>
						</effect>
					</transitionitem>
					<clipitem id="clipitem-1374" premiereChannelType="stereo">
						<masterclipid>masterclip-332</masterclipid>
						<name>Nordvisjon-MASTER-vr3-201016-ny-musikk.wav</name>
						<enabled>TRUE</enabled>
						<duration>43741</duration>
						<rate>
							<timebase>25</timebase>
							<ntsc>FALSE</ntsc>
						</rate>
						<start>-1</start>
						<end>-1</end>
						<in>14118</in>
						<out>15677</out>
						<pproTicksIn>143447915520000</pproTicksIn>
						<pproTicksOut>159288353280000</pproTicksOut>
						<file id="file-332"/>
						<sourcetrack>
							<mediatype>audio</mediatype>
							<trackindex>1</trackindex>
						</sourcetrack>
							<filter>
								<effect>
									<name>Audio Levels</name>
									<effectid>audiolevels</effectid>
									<effectcategory>audiolevels</effectcategory>
									<effecttype>audiolevels</effecttype>
									<mediatype>audio</mediatype>
									<parameter authoringApp="PremierePro">
										<parameterid>level</parameterid>
										<name>Level</name>
										<valuemin>0</valuemin>
										<valuemax>3.98109</valuemax>
										<value>0</value>
										<keyframe>
											<when>14195</when>
											<value>1.76177</value>
										</keyframe>
										<keyframe>
											<when>14213</when>
											<value>0.99763</value>
										</keyframe>
										<keyframe>
											<when>14436</when>
											<value>0.99763</value>
										</keyframe>
										<keyframe>
											<when>14448</when>
											<value>0.615559</value>
										</keyframe>
										<keyframe>
											<when>14634</when>
											<value>0.615559</value>
										</keyframe>
										<keyframe>
											<when>14655</when>
											<value>0.99763</value>
										</keyframe>
										<keyframe>
											<when>15032</when>
											<value>0.99763</value>
										</keyframe>
										<keyframe>
											<when>15121</when>
											<value>0.450543</value>
										</keyframe>
										<keyframe>
											<when>15265</when>
											<value>0</value>
										</keyframe>
										<keyframe>
											<when>15310</when>
											<value>0</value>
										</keyframe>
									</parameter>
								</effect>
							</filter>
							<marker>
								<comment></comment>
								<name></name>
								<in>40399</in>
								<out>-1</out>
							</marker>
							<marker>
								<comment></comment>
								<name></name>
								<in>3092</in>
								<out>-1</out>
							</marker>
							<marker>
								<comment></comment>
								<name></name>
								<in>36054</in>
								<out>-1</out>
							</marker>
							<marker>
								<comment></comment>
								<name></name>
								<in>0</in>
								<out>-1</out>
							</marker>
						<link>
							<linkclipref>clipitem-1374</linkclipref>
							<mediatype>audio</mediatype>
							<trackindex>14</trackindex>
							<clipindex>20</clipindex>
							<groupindex>1</groupindex>
						</link>
						<link>
							<linkclipref>clipitem-1406</linkclipref>
							<mediatype>audio</mediatype>
							<trackindex>15</trackindex>
							<clipindex>20</clipindex>
							<groupindex>1</groupindex>
						</link>
						<logginginfo>
							<description></description>
							<scene></scene>
							<shottake></shottake>
							<lognote></lognote>
						</logginginfo>
						<labels>
							<label2>Iris</label2>
						</labels>
					</clipitem>
					<transitionitem>
						<start>74239</start>
						<end>74322</end>
						<alignment>center</alignment>
						<cutPointTicks>416586240000</cutPointTicks>
						<rate>
							<timebase>25</timebase>
							<ntsc>FALSE</ntsc>
						</rate>
						<effect>
							<name>Cross Fade (+3dB)</name>
							<effectid>KGAudioTransCrossFade3dB</effectid>
							<effecttype>transition</effecttype>
							<mediatype>audio</mediatype>
							<wipecode>0</wipecode>
							<wipeaccuracy>100</wipeaccuracy>
							<startratio>0</startratio>
							<endratio>1</endratio>
							<reverse>FALSE</reverse>
						</effect>
					</transitionitem>
					<clipitem id="clipitem-1375" premiereChannelType="stereo">
						<masterclipid>masterclip-332</masterclipid>
						<name>Nordvisjon-MASTER-vr3-201016-ny-musikk.wav</name>
						<enabled>TRUE</enabled>
						<duration>43741</duration>
						<rate>
							<timebase>25</timebase>
							<ntsc>FALSE</ntsc>
						</rate>
						<start>-1</start>
						<end>77442</end>
						<in>20065</in>
						<out>23268</out>
						<pproTicksIn>203873241600000</pproTicksIn>
						<pproTicksOut>236417771520000</pproTicksOut>
						<file id="file-332"/>
						<sourcetrack>
							<mediatype>audio</mediatype>
							<trackindex>1</trackindex>
						</sourcetrack>
							<marker>
								<comment></comment>
								<name></name>
								<in>40399</in>
								<out>-1</out>
							</marker>
							<marker>
								<comment></comment>
								<name></name>
								<in>3092</in>
								<out>-1</out>
							</marker>
							<marker>
								<comment></comment>
								<name></name>
								<in>36054</in>
								<out>-1</out>
							</marker>
							<marker>
								<comment></comment>
								<name></name>
								<in>0</in>
								<out>-1</out>
							</marker>
						<link>
							<linkclipref>clipitem-1375</linkclipref>
							<mediatype>audio</mediatype>
							<trackindex>14</trackindex>
							<clipindex>22</clipindex>
							<groupindex>1</groupindex>
						</link>
						<link>
							<linkclipref>clipitem-1407</linkclipref>
							<mediatype>audio</mediatype>
							<trackindex>15</trackindex>
							<clipindex>22</clipindex>
							<groupindex>1</groupindex>
						</link>
						<logginginfo>
							<description></description>
							<scene></scene>
							<shottake></shottake>
							<lognote></lognote>
						</logginginfo>
						<labels>
							<label2>Iris</label2>
						</labels>
					</clipitem>
					<clipitem id="clipitem-1376" premiereChannelType="stereo">
						<masterclipid>masterclip-333</masterclipid>
						<name>Nordvisjon2MASTER_musikk.wav</name>
						<enabled>TRUE</enabled>
						<duration>45037</duration>
						<rate>
							<timebase>25</timebase>
							<ntsc>FALSE</ntsc>
						</rate>
						<start>77442</start>
						<end>78517</end>
						<in>37865</in>
						<out>38940</out>
						<pproTicksIn>384732633600000</pproTicksIn>
						<pproTicksOut>395655321600000</pproTicksOut>
						<file id="file-333">
							<name>Nordvisjon2MASTER_musikk.wav</name>
							<pathurl>file://localhost/Volumes/Vaagen/Utveksling/Natur/Naturlig%20helaften%20fra%20Oslo/Transcoded_Nedklipp%20helaften/Nordvisjon2MASTER_musikk.wav</pathurl>
							<rate>
								<timebase>30</timebase>
								<ntsc>TRUE</ntsc>
							</rate>
							<duration>53990</duration>
							<timecode>
								<rate>
									<timebase>30</timebase>
									<ntsc>TRUE</ntsc>
								</rate>
								<string>00;00;00;00</string>
								<frame>0</frame>
								<displayformat>DF</displayformat>
								<reel>
									<name></name>
								</reel>
							</timecode>
							<media>
								<audio>
									<samplecharacteristics>
										<depth>16</depth>
										<samplerate>48000</samplerate>
									</samplecharacteristics>
									<channelcount>2</channelcount>
								</audio>
							</media>
						</file>
						<sourcetrack>
							<mediatype>audio</mediatype>
							<trackindex>1</trackindex>
						</sourcetrack>
							<filter>
								<effect>
									<name>Audio Levels</name>
									<effectid>audiolevels</effectid>
									<effectcategory>audiolevels</effectcategory>
									<effecttype>audiolevels</effecttype>
									<mediatype>audio</mediatype>
									<parameter authoringApp="PremierePro">
										<parameterid>level</parameterid>
										<name>Level</name>
										<valuemin>0</valuemin>
										<valuemax>3.98109</valuemax>
										<value>0.99763</value>
										<keyframe>
											<when>38185</when>
											<value>0.99763</value>
										</keyframe>
										<keyframe>
											<when>38218</when>
											<value>0.404445</value>
										</keyframe>
										<keyframe>
											<when>38299</when>
											<value>0.404445</value>
										</keyframe>
										<keyframe>
											<when>38332</when>
											<value>0.99763</value>
										</keyframe>
										<keyframe>
											<when>38441</when>
											<value>0.99763</value>
										</keyframe>
										<keyframe>
											<when>38466</when>
											<value>0.458371</value>
										</keyframe>
										<keyframe>
											<when>38519</when>
											<value>0.458371</value>
										</keyframe>
										<keyframe>
											<when>38542</when>
											<value>0.99763</value>
										</keyframe>
										<keyframe>
											<when>38696</when>
											<value>0.99763</value>
										</keyframe>
										<keyframe>
											<when>38731</when>
											<value>0</value>
										</keyframe>
									</parameter>
								</effect>
							</filter>
						<link>
							<linkclipref>clipitem-1376</linkclipref>
							<mediatype>audio</mediatype>
							<trackindex>14</trackindex>
							<clipindex>23</clipindex>
							<groupindex>1</groupindex>
						</link>
						<link>
							<linkclipref>clipitem-1408</linkclipref>
							<mediatype>audio</mediatype>
							<trackindex>15</trackindex>
							<clipindex>23</clipindex>
							<groupindex>1</groupindex>
						</link>
						<logginginfo>
							<description></description>
							<scene></scene>
							<shottake></shottake>
							<lognote></lognote>
						</logginginfo>
						<labels>
							<label2>Iris</label2>
						</labels>
					</clipitem>
					<clipitem id="clipitem-1377" premiereChannelType="stereo">
						<masterclipid>masterclip-333</masterclipid>
						<name>Nordvisjon2MASTER_musikk.wav</name>
						<enabled>TRUE</enabled>
						<duration>45037</duration>
						<rate>
							<timebase>25</timebase>
							<ntsc>FALSE</ntsc>
						</rate>
						<start>78611</start>
						<end>79457</end>
						<in>25244</in>
						<out>26090</out>
						<pproTicksIn>256495196160000</pproTicksIn>
						<pproTicksOut>265091097600000</pproTicksOut>
						<file id="file-333"/>
						<sourcetrack>
							<mediatype>audio</mediatype>
							<trackindex>1</trackindex>
						</sourcetrack>
							<filter>
								<effect>
									<name>Audio Levels</name>
									<effectid>audiolevels</effectid>
									<effectcategory>audiolevels</effectcategory>
									<effecttype>audiolevels</effecttype>
									<mediatype>audio</mediatype>
									<parameter authoringApp="PremierePro">
										<parameterid>level</parameterid>
										<name>Level</name>
										<valuemin>0</valuemin>
										<valuemax>3.98109</valuemax>
										<value>0.99763</value>
										<keyframe>
											<when>25723</when>
											<value>0.99763</value>
										</keyframe>
										<keyframe>
											<when>25738</when>
											<value>0.242667</value>
										</keyframe>
										<keyframe>
											<when>25908</when>
											<value>0.242667</value>
										</keyframe>
										<keyframe>
											<when>25923</when>
											<value>0.99763</value>
										</keyframe>
									</parameter>
								</effect>
							</filter>
						<link>
							<linkclipref>clipitem-1377</linkclipref>
							<mediatype>audio</mediatype>
							<trackindex>14</trackindex>
							<clipindex>24</clipindex>
							<groupindex>1</groupindex>
						</link>
						<link>
							<linkclipref>clipitem-1409</linkclipref>
							<mediatype>audio</mediatype>
							<trackindex>15</trackindex>
							<clipindex>24</clipindex>
							<groupindex>1</groupindex>
						</link>
						<logginginfo>
							<description></description>
							<scene></scene>
							<shottake></shottake>
							<lognote></lognote>
						</logginginfo>
						<labels>
							<label2>Iris</label2>
						</labels>
					</clipitem>
					<clipitem id="clipitem-1378" premiereChannelType="stereo">
						<masterclipid>masterclip-333</masterclipid>
						<name>Nordvisjon2MASTER_musikk.wav</name>
						<enabled>TRUE</enabled>
						<duration>45037</duration>
						<rate>
							<timebase>25</timebase>
							<ntsc>FALSE</ntsc>
						</rate>
						<start>79612</start>
						<end>80534</end>
						<in>26981</in>
						<out>27903</out>
						<pproTicksIn>274144227840000</pproTicksIn>
						<pproTicksOut>283512337920000</pproTicksOut>
						<file id="file-333"/>
						<sourcetrack>
							<mediatype>audio</mediatype>
							<trackindex>1</trackindex>
						</sourcetrack>
						<link>
							<linkclipref>clipitem-1378</linkclipref>
							<mediatype>audio</mediatype>
							<trackindex>14</trackindex>
							<clipindex>25</clipindex>
							<groupindex>1</groupindex>
						</link>
						<link>
							<linkclipref>clipitem-1410</linkclipref>
							<mediatype>audio</mediatype>
							<trackindex>15</trackindex>
							<clipindex>25</clipindex>
							<groupindex>1</groupindex>
						</link>
						<logginginfo>
							<description></description>
							<scene></scene>
							<shottake></shottake>
							<lognote></lognote>
						</logginginfo>
						<labels>
							<label2>Iris</label2>
						</labels>
					</clipitem>
					<clipitem id="clipitem-1379" premiereChannelType="stereo">
						<masterclipid>masterclip-333</masterclipid>
						<name>Nordvisjon2MASTER_musikk.wav</name>
						<enabled>TRUE</enabled>
						<duration>45037</duration>
						<rate>
							<timebase>25</timebase>
							<ntsc>FALSE</ntsc>
						</rate>
						<start>80534</start>
						<end>82149</end>
						<in>28818</in>
						<out>30433</out>
						<pproTicksIn>292809323520000</pproTicksIn>
						<pproTicksOut>309218757120000</pproTicksOut>
						<file id="file-333"/>
						<sourcetrack>
							<mediatype>audio</mediatype>
							<trackindex>1</trackindex>
						</sourcetrack>
						<link>
							<linkclipref>clipitem-1379</linkclipref>
							<mediatype>audio</mediatype>
							<trackindex>14</trackindex>
							<clipindex>26</clipindex>
							<groupindex>1</groupindex>
						</link>
						<link>
							<linkclipref>clipitem-1411</linkclipref>
							<mediatype>audio</mediatype>
							<trackindex>15</trackindex>
							<clipindex>26</clipindex>
							<groupindex>1</groupindex>
						</link>
						<logginginfo>
							<description></description>
							<scene></scene>
							<shottake></shottake>
							<lognote></lognote>
						</logginginfo>
						<labels>
							<label2>Iris</label2>
						</labels>
					</clipitem>
					<clipitem id="clipitem-1380" premiereChannelType="stereo">
						<masterclipid>masterclip-333</masterclipid>
						<name>Nordvisjon2MASTER_musikk.wav</name>
						<enabled>TRUE</enabled>
						<duration>45037</duration>
						<rate>
							<timebase>25</timebase>
							<ntsc>FALSE</ntsc>
						</rate>
						<start>82149</start>
						<end>84299</end>
						<in>31013</in>
						<out>33163</out>
						<pproTicksIn>315111928320000</pproTicksIn>
						<pproTicksOut>336957304320000</pproTicksOut>
						<file id="file-333"/>
						<sourcetrack>
							<mediatype>audio</mediatype>
							<trackindex>1</trackindex>
						</sourcetrack>
						<link>
							<linkclipref>clipitem-1380</linkclipref>
							<mediatype>audio</mediatype>
							<trackindex>14</trackindex>
							<clipindex>27</clipindex>
							<groupindex>1</groupindex>
						</link>
						<link>
							<linkclipref>clipitem-1412</linkclipref>
							<mediatype>audio</mediatype>
							<trackindex>15</trackindex>
							<clipindex>27</clipindex>
							<groupindex>1</groupindex>
						</link>
						<logginginfo>
							<description></description>
							<scene></scene>
							<shottake></shottake>
							<lognote></lognote>
						</logginginfo>
						<labels>
							<label2>Iris</label2>
						</labels>
					</clipitem>
					<clipitem id="clipitem-1381" premiereChannelType="stereo">
						<masterclipid>masterclip-323</masterclipid>
						<name>Nordvisjon3MASTER musikk.wav</name>
						<enabled>TRUE</enabled>
						<duration>43207</duration>
						<rate>
							<timebase>25</timebase>
							<ntsc>FALSE</ntsc>
						</rate>
						<start>89317</start>
						<end>91782</end>
						<in>3377</in>
						<out>5842</out>
						<pproTicksIn>34312481280000</pproTicksIn>
						<pproTicksOut>59358458880000</pproTicksOut>
						<file id="file-323"/>
						<sourcetrack>
							<mediatype>audio</mediatype>
							<trackindex>1</trackindex>
						</sourcetrack>
						<link>
							<linkclipref>clipitem-1381</linkclipref>
							<mediatype>audio</mediatype>
							<trackindex>14</trackindex>
							<clipindex>28</clipindex>
							<groupindex>1</groupindex>
						</link>
						<link>
							<linkclipref>clipitem-1413</linkclipref>
							<mediatype>audio</mediatype>
							<trackindex>15</trackindex>
							<clipindex>28</clipindex>
							<groupindex>1</groupindex>
						</link>
						<logginginfo>
							<description></description>
							<scene></scene>
							<shottake></shottake>
							<lognote></lognote>
						</logginginfo>
						<labels>
							<label2>Iris</label2>
						</labels>
					</clipitem>
					<clipitem id="clipitem-1382" premiereChannelType="stereo">
						<masterclipid>masterclip-332</masterclipid>
						<name>Nordvisjon-MASTER-vr3-201016-ny-musikk.wav</name>
						<enabled>TRUE</enabled>
						<duration>43741</duration>
						<rate>
							<timebase>25</timebase>
							<ntsc>FALSE</ntsc>
						</rate>
						<start>92678</start>
						<end>95648</end>
						<in>40274</in>
						<out>43244</out>
						<pproTicksIn>409209615360000</pproTicksIn>
						<pproTicksOut>439386716160000</pproTicksOut>
						<file id="file-332"/>
						<sourcetrack>
							<mediatype>audio</mediatype>
							<trackindex>1</trackindex>
						</sourcetrack>
							<filter>
								<effect>
									<name>Audio Levels</name>
									<effectid>audiolevels</effectid>
									<effectcategory>audiolevels</effectcategory>
									<effecttype>audiolevels</effecttype>
									<mediatype>audio</mediatype>
									<parameter authoringApp="PremierePro">
										<parameterid>level</parameterid>
										<name>Level</name>
										<valuemin>0</valuemin>
										<valuemax>3.98109</valuemax>
										<value>0</value>
										<keyframe>
											<when>40274</when>
											<value>0</value>
										</keyframe>
										<keyframe>
											<when>40613</when>
											<value>0.99763</value>
										</keyframe>
										<keyframe>
											<when>42746</when>
											<value>0.99763</value>
										</keyframe>
										<keyframe>
											<when>42907</when>
											<value>0.242667</value>
										</keyframe>
									</parameter>
								</effect>
							</filter>
							<marker>
								<comment></comment>
								<name></name>
								<in>40399</in>
								<out>-1</out>
							</marker>
							<marker>
								<comment></comment>
								<name></name>
								<in>3092</in>
								<out>-1</out>
							</marker>
							<marker>
								<comment></comment>
								<name></name>
								<in>36054</in>
								<out>-1</out>
							</marker>
							<marker>
								<comment></comment>
								<name></name>
								<in>0</in>
								<out>-1</out>
							</marker>
						<link>
							<linkclipref>clipitem-1382</linkclipref>
							<mediatype>audio</mediatype>
							<trackindex>14</trackindex>
							<clipindex>29</clipindex>
							<groupindex>1</groupindex>
						</link>
						<link>
							<linkclipref>clipitem-1414</linkclipref>
							<mediatype>audio</mediatype>
							<trackindex>15</trackindex>
							<clipindex>29</clipindex>
							<groupindex>1</groupindex>
						</link>
						<logginginfo>
							<description></description>
							<scene></scene>
							<shottake></shottake>
							<lognote></lognote>
						</logginginfo>
						<labels>
							<label2>Iris</label2>
						</labels>
					</clipitem>
					<clipitem id="clipitem-1383" premiereChannelType="stereo">
						<masterclipid>masterclip-323</masterclipid>
						<name>Nordvisjon3MASTER musikk.wav</name>
						<enabled>TRUE</enabled>
						<duration>43207</duration>
						<rate>
							<timebase>25</timebase>
							<ntsc>FALSE</ntsc>
						</rate>
						<start>96834</start>
						<end>97521</end>
						<in>9688</in>
						<out>10375</out>
						<pproTicksIn>98436280320000</pproTicksIn>
						<pproTicksOut>105416640000000</pproTicksOut>
						<file id="file-323"/>
						<sourcetrack>
							<mediatype>audio</mediatype>
							<trackindex>1</trackindex>
						</sourcetrack>
						<link>
							<linkclipref>clipitem-1383</linkclipref>
							<mediatype>audio</mediatype>
							<trackindex>14</trackindex>
							<clipindex>30</clipindex>
							<groupindex>1</groupindex>
						</link>
						<link>
							<linkclipref>clipitem-1415</linkclipref>
							<mediatype>audio</mediatype>
							<trackindex>15</trackindex>
							<clipindex>30</clipindex>
							<groupindex>1</groupindex>
						</link>
						<logginginfo>
							<description></description>
							<scene></scene>
							<shottake></shottake>
							<lognote></lognote>
						</logginginfo>
						<labels>
							<label2>Iris</label2>
						</labels>
					</clipitem>
					<clipitem id="clipitem-1384" premiereChannelType="stereo">
						<masterclipid>masterclip-323</masterclipid>
						<name>Nordvisjon3MASTER musikk.wav</name>
						<enabled>TRUE</enabled>
						<duration>43207</duration>
						<rate>
							<timebase>25</timebase>
							<ntsc>FALSE</ntsc>
						</rate>
						<start>97521</start>
						<end>97802</end>
						<in>10911</in>
						<out>11192</out>
						<pproTicksIn>110862743040000</pproTicksIn>
						<pproTicksOut>113717882880000</pproTicksOut>
						<file id="file-323"/>
						<sourcetrack>
							<mediatype>audio</mediatype>
							<trackindex>1</trackindex>
						</sourcetrack>
						<link>
							<linkclipref>clipitem-1384</linkclipref>
							<mediatype>audio</mediatype>
							<trackindex>14</trackindex>
							<clipindex>31</clipindex>
							<groupindex>1</groupindex>
						</link>
						<link>
							<linkclipref>clipitem-1416</linkclipref>
							<mediatype>audio</mediatype>
							<trackindex>15</trackindex>
							<clipindex>31</clipindex>
							<groupindex>1</groupindex>
						</link>
						<logginginfo>
							<description></description>
							<scene></scene>
							<shottake></shottake>
							<lognote></lognote>
						</logginginfo>
						<labels>
							<label2>Iris</label2>
						</labels>
					</clipitem>
					<clipitem id="clipitem-1385" premiereChannelType="stereo">
						<masterclipid>masterclip-323</masterclipid>
						<name>Nordvisjon3MASTER musikk.wav</name>
						<enabled>TRUE</enabled>
						<duration>43207</duration>
						<rate>
							<timebase>25</timebase>
							<ntsc>FALSE</ntsc>
						</rate>
						<start>97802</start>
						<end>97982</end>
						<in>13698</in>
						<out>13878</out>
						<pproTicksIn>139180446720000</pproTicksIn>
						<pproTicksOut>141009361920000</pproTicksOut>
						<file id="file-323"/>
						<sourcetrack>
							<mediatype>audio</mediatype>
							<trackindex>1</trackindex>
						</sourcetrack>
						<link>
							<linkclipref>clipitem-1385</linkclipref>
							<mediatype>audio</mediatype>
							<trackindex>14</trackindex>
							<clipindex>32</clipindex>
							<groupindex>1</groupindex>
						</link>
						<link>
							<linkclipref>clipitem-1417</linkclipref>
							<mediatype>audio</mediatype>
							<trackindex>15</trackindex>
							<clipindex>32</clipindex>
							<groupindex>1</groupindex>
						</link>
						<logginginfo>
							<description></description>
							<scene></scene>
							<shottake></shottake>
							<lognote></lognote>
						</logginginfo>
						<labels>
							<label2>Iris</label2>
						</labels>
					</clipitem>
					<clipitem id="clipitem-1386" premiereChannelType="stereo">
						<masterclipid>masterclip-323</masterclipid>
						<name>Nordvisjon3MASTER musikk.wav</name>
						<enabled>TRUE</enabled>
						<duration>43207</duration>
						<rate>
							<timebase>25</timebase>
							<ntsc>FALSE</ntsc>
						</rate>
						<start>98567</start>
						<end>100186</end>
						<in>41561</in>
						<out>43180</out>
						<pproTicksIn>422286359040000</pproTicksIn>
						<pproTicksOut>438736435200000</pproTicksOut>
						<file id="file-323"/>
						<sourcetrack>
							<mediatype>audio</mediatype>
							<trackindex>1</trackindex>
						</sourcetrack>
							<filter>
								<effect>
									<name>Audio Levels</name>
									<effectid>audiolevels</effectid>
									<effectcategory>audiolevels</effectcategory>
									<effecttype>audiolevels</effecttype>
									<mediatype>audio</mediatype>
									<parameter authoringApp="PremierePro">
										<parameterid>level</parameterid>
										<name>Level</name>
										<valuemin>0</valuemin>
										<valuemax>3.98109</valuemax>
										<value>0.99763</value>
										<keyframe>
											<when>42212</when>
											<value>0.99763</value>
										</keyframe>
										<keyframe>
											<when>42367</when>
											<value>0.615559</value>
										</keyframe>
										<keyframe>
											<when>42449</when>
											<value>0.393863</value>
										</keyframe>
										<keyframe>
											<when>42499</when>
											<value>0.184746</value>
										</keyframe>
										<keyframe>
											<when>42705</when>
											<value>0.184746</value>
										</keyframe>
										<keyframe>
											<when>42771</when>
											<value>0.554239</value>
										</keyframe>
									</parameter>
								</effect>
							</filter>
						<link>
							<linkclipref>clipitem-1386</linkclipref>
							<mediatype>audio</mediatype>
							<trackindex>14</trackindex>
							<clipindex>33</clipindex>
							<groupindex>1</groupindex>
						</link>
						<link>
							<linkclipref>clipitem-1418</linkclipref>
							<mediatype>audio</mediatype>
							<trackindex>15</trackindex>
							<clipindex>33</clipindex>
							<groupindex>1</groupindex>
						</link>
						<logginginfo>
							<description></description>
							<scene></scene>
							<shottake></shottake>
							<lognote></lognote>
						</logginginfo>
						<labels>
							<label2>Iris</label2>
						</labels>
					</clipitem>
					<clipitem id="clipitem-1387" premiereChannelType="stereo">
						<masterclipid>masterclip-11</masterclipid>
						<name>OWH Master 161123_.mov</name>
						<enabled>TRUE</enabled>
						<duration>86750</duration>
						<rate>
							<timebase>25</timebase>
							<ntsc>FALSE</ntsc>
						</rate>
						<start>100919</start>
						<end>102100</end>
						<in>61634</in>
						<out>62815</out>
						<pproTicksIn>626240885760000</pproTicksIn>
						<pproTicksOut>638240601600000</pproTicksOut>
						<file id="file-11"/>
						<sourcetrack>
							<mediatype>audio</mediatype>
							<trackindex>1</trackindex>
						</sourcetrack>
							<filter>
								<effect>
									<name>Audio Levels</name>
									<effectid>audiolevels</effectid>
									<effectcategory>audiolevels</effectcategory>
									<effecttype>audiolevels</effecttype>
									<mediatype>audio</mediatype>
									<parameter authoringApp="PremierePro">
										<parameterid>level</parameterid>
										<name>Level</name>
										<valuemin>0</valuemin>
										<valuemax>3.98109</valuemax>
										<value>0</value>
										<keyframe>
											<when>61634</when>
											<value>0</value>
										</keyframe>
										<keyframe>
											<when>61739</when>
											<value>0.99763</value>
										</keyframe>
										<keyframe>
											<when>62578</when>
											<value>0.99763</value>
										</keyframe>
										<keyframe>
											<when>62591</when>
											<value>0.620148</value>
										</keyframe>
										<keyframe>
											<when>62607</when>
											<value>0.278145</value>
										</keyframe>
										<keyframe>
											<when>62618</when>
											<value>0.121279</value>
										</keyframe>
										<keyframe>
											<when>62633</when>
											<value>0</value>
										</keyframe>
										<keyframe>
											<when>62650</when>
											<value>0</value>
										</keyframe>
										<keyframe>
											<when>62668</when>
											<value>0</value>
										</keyframe>
									</parameter>
								</effect>
							</filter>
						<link>
							<linkclipref>clipitem-245</linkclipref>
							<mediatype>video</mediatype>
							<trackindex>1</trackindex>
							<clipindex>255</clipindex>
						</link>
						<link>
							<linkclipref>clipitem-1387</linkclipref>
							<mediatype>audio</mediatype>
							<trackindex>14</trackindex>
							<clipindex>34</clipindex>
							<groupindex>1</groupindex>
						</link>
						<link>
							<linkclipref>clipitem-1419</linkclipref>
							<mediatype>audio</mediatype>
							<trackindex>15</trackindex>
							<clipindex>34</clipindex>
							<groupindex>1</groupindex>
						</link>
						<logginginfo>
							<description></description>
							<scene></scene>
							<shottake></shottake>
							<lognote></lognote>
						</logginginfo>
						<labels>
							<label2>Iris</label2>
						</labels>
					</clipitem>
					<enabled>TRUE</enabled>
					<locked>FALSE</locked>
					<outputchannelindex>1</outputchannelindex>
				</track>
				<track TL.SQTrackAudioKeyframeStyle="0" TL.SQTrackShy="0" TL.SQTrackExpandedHeight="92" TL.SQTrackExpanded="1" MZ.TrackTargeted="1" PannerCurrentValue="0.5" PannerIsInverted="true" PannerStartKeyframe="-91445760000000000,0.5,0,0,0,0,0,0" PannerName="Balance" currentExplodedTrackIndex="1" totalExplodedTrackCount="2" premiereTrackType="Stereo">
					<clipitem id="clipitem-1388" premiereChannelType="stereo">
						<masterclipid>masterclip-330</masterclipid>
						<name>NATURLIGHELAFTEN-Clean.wav</name>
						<enabled>TRUE</enabled>
						<duration>151</duration>
						<rate>
							<timebase>25</timebase>
							<ntsc>FALSE</ntsc>
						</rate>
						<start>453</start>
						<end>566</end>
						<in>0</in>
						<out>113</out>
						<pproTicksIn>0</pproTicksIn>
						<pproTicksOut>1148152320000</pproTicksOut>
						<file id="file-330"/>
						<sourcetrack>
							<mediatype>audio</mediatype>
							<trackindex>2</trackindex>
						</sourcetrack>
							<filter>
								<effect>
									<name>Audio Levels</name>
									<effectid>audiolevels</effectid>
									<effectcategory>audiolevels</effectcategory>
									<effecttype>audiolevels</effecttype>
									<mediatype>audio</mediatype>
									<parameter authoringApp="PremierePro">
										<parameterid>level</parameterid>
										<name>Level</name>
										<valuemin>0</valuemin>
										<valuemax>3.98109</valuemax>
										<value>0.425786</value>
									</parameter>
								</effect>
							</filter>
						<link>
							<linkclipref>clipitem-1356</linkclipref>
							<mediatype>audio</mediatype>
							<trackindex>14</trackindex>
							<clipindex>1</clipindex>
							<groupindex>1</groupindex>
						</link>
						<link>
							<linkclipref>clipitem-1388</linkclipref>
							<mediatype>audio</mediatype>
							<trackindex>15</trackindex>
							<clipindex>1</clipindex>
							<groupindex>1</groupindex>
						</link>
						<logginginfo>
							<description></description>
							<scene></scene>
							<shottake></shottake>
							<lognote></lognote>
						</logginginfo>
						<labels>
							<label2>Iris</label2>
						</labels>
					</clipitem>
					<clipitem id="clipitem-1389" premiereChannelType="stereo">
						<masterclipid>masterclip-11</masterclipid>
						<name>OWH Master 161123_.mov</name>
						<enabled>TRUE</enabled>
						<duration>86750</duration>
						<rate>
							<timebase>25</timebase>
							<ntsc>FALSE</ntsc>
						</rate>
						<start>1603</start>
						<end>1917</end>
						<in>25004</in>
						<out>25318</out>
						<pproTicksIn>254056642560000</pproTicksIn>
						<pproTicksOut>257247083520000</pproTicksOut>
						<file id="file-11"/>
						<sourcetrack>
							<mediatype>audio</mediatype>
							<trackindex>2</trackindex>
						</sourcetrack>
							<filter>
								<effect>
									<name>Audio Levels</name>
									<effectid>audiolevels</effectid>
									<effectcategory>audiolevels</effectcategory>
									<effecttype>audiolevels</effecttype>
									<mediatype>audio</mediatype>
									<parameter authoringApp="PremierePro">
										<parameterid>level</parameterid>
										<name>Level</name>
										<valuemin>0</valuemin>
										<valuemax>3.98109</valuemax>
										<value>0</value>
										<keyframe>
											<when>24305</when>
											<value>0</value>
										</keyframe>
										<keyframe>
											<when>24321</when>
											<value>0</value>
										</keyframe>
										<keyframe>
											<when>24421</when>
											<value>0</value>
										</keyframe>
										<keyframe>
											<when>24435</when>
											<value>0.254371</value>
										</keyframe>
										<keyframe>
											<when>24445</when>
											<value>0.725549</value>
										</keyframe>
										<keyframe>
											<when>24473</when>
											<value>0.725549</value>
										</keyframe>
										<keyframe>
											<when>24510</when>
											<value>0.469473</value>
										</keyframe>
										<keyframe>
											<when>24745</when>
											<value>0.469473</value>
										</keyframe>
										<keyframe>
											<when>24762</when>
											<value>0.938946</value>
										</keyframe>
										<keyframe>
											<when>25008</when>
											<value>0</value>
										</keyframe>
										<keyframe>
											<when>25030</when>
											<value>0.938946</value>
										</keyframe>
										<keyframe>
											<when>25166</when>
											<value>0.938946</value>
										</keyframe>
										<keyframe>
											<when>25240</when>
											<value>0</value>
										</keyframe>
									</parameter>
								</effect>
							</filter>
						<link>
							<linkclipref>clipitem-15</linkclipref>
							<mediatype>video</mediatype>
							<trackindex>1</trackindex>
							<clipindex>15</clipindex>
						</link>
						<link>
							<linkclipref>clipitem-1357</linkclipref>
							<mediatype>audio</mediatype>
							<trackindex>14</trackindex>
							<clipindex>2</clipindex>
							<groupindex>1</groupindex>
						</link>
						<link>
							<linkclipref>clipitem-1389</linkclipref>
							<mediatype>audio</mediatype>
							<trackindex>15</trackindex>
							<clipindex>2</clipindex>
							<groupindex>1</groupindex>
						</link>
						<logginginfo>
							<description></description>
							<scene></scene>
							<shottake></shottake>
							<lognote></lognote>
						</logginginfo>
						<labels>
							<label2>Iris</label2>
						</labels>
					</clipitem>
					<clipitem id="clipitem-1390" premiereChannelType="stereo">
						<masterclipid>masterclip-331</masterclipid>
						<name>KOS_515_27_Chase_The_Sun_Song_Gall_883953.wav</name>
						<enabled>TRUE</enabled>
						<duration>3798</duration>
						<rate>
							<timebase>25</timebase>
							<ntsc>FALSE</ntsc>
						</rate>
						<start>2481</start>
						<end>3558</end>
						<in>2721</in>
						<out>3798</out>
						<pproTicksIn>27647101440000</pproTicksIn>
						<pproTicksOut>38590110720000</pproTicksOut>
						<file id="file-331"/>
						<sourcetrack>
							<mediatype>audio</mediatype>
							<trackindex>2</trackindex>
						</sourcetrack>
							<filter>
								<effect>
									<name>Audio Levels</name>
									<effectid>audiolevels</effectid>
									<effectcategory>audiolevels</effectcategory>
									<effecttype>audiolevels</effecttype>
									<mediatype>audio</mediatype>
									<parameter authoringApp="PremierePro">
										<parameterid>level</parameterid>
										<name>Level</name>
										<valuemin>0</valuemin>
										<valuemax>3.98109</valuemax>
										<value>0.116992</value>
										<keyframe>
											<when>2505</when>
											<value>0</value>
										</keyframe>
										<keyframe>
											<when>2573</when>
											<value>0.102321</value>
										</keyframe>
										<keyframe>
											<when>2709</when>
											<value>0</value>
										</keyframe>
										<keyframe>
											<when>2742</when>
											<value>0</value>
										</keyframe>
										<keyframe>
											<when>2878</when>
											<value>0</value>
										</keyframe>
										<keyframe>
											<when>2942</when>
											<value>0.0799955</value>
										</keyframe>
										<keyframe>
											<when>2958</when>
											<value>0.116992</value>
										</keyframe>
									</parameter>
								</effect>
							</filter>
						<link>
							<linkclipref>clipitem-1358</linkclipref>
							<mediatype>audio</mediatype>
							<trackindex>14</trackindex>
							<clipindex>3</clipindex>
							<groupindex>1</groupindex>
						</link>
						<link>
							<linkclipref>clipitem-1390</linkclipref>
							<mediatype>audio</mediatype>
							<trackindex>15</trackindex>
							<clipindex>3</clipindex>
							<groupindex>1</groupindex>
						</link>
						<logginginfo>
							<description></description>
							<scene></scene>
							<shottake></shottake>
							<lognote></lognote>
						</logginginfo>
						<labels>
							<label2>Caribbean</label2>
						</labels>
					</clipitem>
					<clipitem id="clipitem-1391" premiereChannelType="stereo">
						<masterclipid>masterclip-24</masterclipid>
						<name>20160325171754.m2ts</name>
						<enabled>TRUE</enabled>
						<duration>4550</duration>
						<rate>
							<timebase>25</timebase>
							<ntsc>FALSE</ntsc>
						</rate>
						<start>4326</start>
						<end>4450</end>
						<in>2904</in>
						<out>3028</out>
						<pproTicksIn>29506498560000</pproTicksIn>
						<pproTicksOut>30766417920000</pproTicksOut>
						<file id="file-24"/>
						<sourcetrack>
							<mediatype>audio</mediatype>
							<trackindex>2</trackindex>
						</sourcetrack>
							<filter>
								<effect>
									<name>Audio Levels</name>
									<effectid>audiolevels</effectid>
									<effectcategory>audiolevels</effectcategory>
									<effecttype>audiolevels</effecttype>
									<mediatype>audio</mediatype>
									<parameter authoringApp="PremierePro">
										<parameterid>level</parameterid>
										<name>Level</name>
										<valuemin>0</valuemin>
										<valuemax>3.98109</valuemax>
										<value>0.272081</value>
									</parameter>
								</effect>
							</filter>
						<link>
							<linkclipref>clipitem-270</linkclipref>
							<mediatype>video</mediatype>
							<trackindex>2</trackindex>
							<clipindex>14</clipindex>
						</link>
						<link>
							<linkclipref>clipitem-1359</linkclipref>
							<mediatype>audio</mediatype>
							<trackindex>14</trackindex>
							<clipindex>4</clipindex>
							<groupindex>1</groupindex>
						</link>
						<link>
							<linkclipref>clipitem-1391</linkclipref>
							<mediatype>audio</mediatype>
							<trackindex>15</trackindex>
							<clipindex>4</clipindex>
							<groupindex>1</groupindex>
						</link>
						<logginginfo>
							<description></description>
							<scene></scene>
							<shottake></shottake>
							<lognote></lognote>
						</logginginfo>
						<labels>
							<label2>Iris</label2>
						</labels>
					</clipitem>
					<clipitem id="clipitem-1392" premiereChannelType="stereo">
						<masterclipid>masterclip-24</masterclipid>
						<name>20160325171754.m2ts</name>
						<enabled>TRUE</enabled>
						<duration>4550</duration>
						<rate>
							<timebase>25</timebase>
							<ntsc>FALSE</ntsc>
						</rate>
						<start>4654</start>
						<end>4848</end>
						<in>4262</in>
						<out>4456</out>
						<pproTicksIn>43304647680000</pproTicksIn>
						<pproTicksOut>45275811840000</pproTicksOut>
						<file id="file-24"/>
						<sourcetrack>
							<mediatype>audio</mediatype>
							<trackindex>2</trackindex>
						</sourcetrack>
							<filter>
								<effect>
									<name>Audio Levels</name>
									<effectid>audiolevels</effectid>
									<effectcategory>audiolevels</effectcategory>
									<effecttype>audiolevels</effecttype>
									<mediatype>audio</mediatype>
									<parameter authoringApp="PremierePro">
										<parameterid>level</parameterid>
										<name>Level</name>
										<valuemin>0</valuemin>
										<valuemax>3.98109</valuemax>
										<value>0</value>
										<keyframe>
											<when>4417</when>
											<value>0.453468</value>
										</keyframe>
										<keyframe>
											<when>4453</when>
											<value>0</value>
										</keyframe>
									</parameter>
								</effect>
							</filter>
						<link>
							<linkclipref>clipitem-271</linkclipref>
							<mediatype>video</mediatype>
							<trackindex>2</trackindex>
							<clipindex>15</clipindex>
						</link>
						<link>
							<linkclipref>clipitem-1360</linkclipref>
							<mediatype>audio</mediatype>
							<trackindex>14</trackindex>
							<clipindex>5</clipindex>
							<groupindex>1</groupindex>
						</link>
						<link>
							<linkclipref>clipitem-1392</linkclipref>
							<mediatype>audio</mediatype>
							<trackindex>15</trackindex>
							<clipindex>5</clipindex>
							<groupindex>1</groupindex>
						</link>
						<logginginfo>
							<description></description>
							<scene></scene>
							<shottake></shottake>
							<lognote></lognote>
						</logginginfo>
						<labels>
							<label2>Iris</label2>
						</labels>
					</clipitem>
					<clipitem id="clipitem-1393" premiereChannelType="stereo">
						<masterclipid>masterclip-184</masterclipid>
						<name>4 Mår vil ta dorullen på utedoen.mp4</name>
						<enabled>TRUE</enabled>
						<duration>778</duration>
						<rate>
							<timebase>25</timebase>
							<ntsc>FALSE</ntsc>
						</rate>
						<start>5962</start>
						<end>6008</end>
						<in>223</in>
						<out>269</out>
						<pproTicksIn>2265822720000</pproTicksIn>
						<pproTicksOut>2733212160000</pproTicksOut>
						<file id="file-184"/>
						<sourcetrack>
							<mediatype>audio</mediatype>
							<trackindex>1</trackindex>
						</sourcetrack>
							<filter>
								<effect>
									<name>Audio Levels</name>
									<effectid>audiolevels</effectid>
									<effectcategory>audiolevels</effectcategory>
									<effecttype>audiolevels</effecttype>
									<mediatype>audio</mediatype>
									<parameter authoringApp="PremierePro">
										<parameterid>level</parameterid>
										<name>Level</name>
										<valuemin>0</valuemin>
										<valuemax>3.98109</valuemax>
										<value>1.06131</value>
									</parameter>
								</effect>
							</filter>
						<link>
							<linkclipref>clipitem-1361</linkclipref>
							<mediatype>audio</mediatype>
							<trackindex>14</trackindex>
							<clipindex>6</clipindex>
							<groupindex>1</groupindex>
						</link>
						<link>
							<linkclipref>clipitem-1393</linkclipref>
							<mediatype>audio</mediatype>
							<trackindex>15</trackindex>
							<clipindex>6</clipindex>
							<groupindex>1</groupindex>
						</link>
						<logginginfo>
							<description></description>
							<scene></scene>
							<shottake></shottake>
							<lognote></lognote>
						</logginginfo>
						<labels>
							<label2>Iris</label2>
						</labels>
					</clipitem>
					<clipitem id="clipitem-1394" premiereChannelType="stereo">
						<masterclipid>masterclip-184</masterclipid>
						<name>4 Mår vil ta dorullen på utedoen.mp4</name>
						<enabled>TRUE</enabled>
						<duration>778</duration>
						<rate>
							<timebase>25</timebase>
							<ntsc>FALSE</ntsc>
						</rate>
						<start>6008</start>
						<end>6181</end>
						<in>269</in>
						<out>442</out>
						<pproTicksIn>2733212160000</pproTicksIn>
						<pproTicksOut>4491002880000</pproTicksOut>
						<file id="file-184"/>
						<sourcetrack>
							<mediatype>audio</mediatype>
							<trackindex>1</trackindex>
						</sourcetrack>
							<filter>
								<effect>
									<name>Audio Levels</name>
									<effectid>audiolevels</effectid>
									<effectcategory>audiolevels</effectcategory>
									<effecttype>audiolevels</effecttype>
									<mediatype>audio</mediatype>
									<parameter authoringApp="PremierePro">
										<parameterid>level</parameterid>
										<name>Level</name>
										<valuemin>0</valuemin>
										<valuemax>3.98109</valuemax>
										<value>1.06131</value>
									</parameter>
								</effect>
							</filter>
						<link>
							<linkclipref>clipitem-1362</linkclipref>
							<mediatype>audio</mediatype>
							<trackindex>14</trackindex>
							<clipindex>7</clipindex>
							<groupindex>1</groupindex>
						</link>
						<link>
							<linkclipref>clipitem-1394</linkclipref>
							<mediatype>audio</mediatype>
							<trackindex>15</trackindex>
							<clipindex>7</clipindex>
							<groupindex>1</groupindex>
						</link>
						<logginginfo>
							<description></description>
							<scene></scene>
							<shottake></shottake>
							<lognote></lognote>
						</logginginfo>
						<labels>
							<label2>Iris</label2>
						</labels>
					</clipitem>
					<clipitem id="clipitem-1395" premiereChannelType="stereo">
						<masterclipid>masterclip-187</masterclipid>
						<name>Måren vil ut av vedboden rediget.mp4</name>
						<enabled>TRUE</enabled>
						<duration>2600</duration>
						<rate>
							<timebase>25</timebase>
							<ntsc>FALSE</ntsc>
						</rate>
						<start>6954</start>
						<end>7109</end>
						<in>2118</in>
						<out>2273</out>
						<pproTicksIn>21520235520000</pproTicksIn>
						<pproTicksOut>23095134720000</pproTicksOut>
						<file id="file-187"/>
						<sourcetrack>
							<mediatype>audio</mediatype>
							<trackindex>2</trackindex>
						</sourcetrack>
							<filter>
								<effect>
									<name>Audio Levels</name>
									<effectid>audiolevels</effectid>
									<effectcategory>audiolevels</effectcategory>
									<effecttype>audiolevels</effecttype>
									<mediatype>audio</mediatype>
									<parameter authoringApp="PremierePro">
										<parameterid>level</parameterid>
										<name>Level</name>
										<valuemin>0</valuemin>
										<valuemax>3.98109</valuemax>
										<value>0.122516</value>
									</parameter>
								</effect>
							</filter>
						<link>
							<linkclipref>clipitem-278</linkclipref>
							<mediatype>video</mediatype>
							<trackindex>2</trackindex>
							<clipindex>22</clipindex>
						</link>
						<link>
							<linkclipref>clipitem-1363</linkclipref>
							<mediatype>audio</mediatype>
							<trackindex>14</trackindex>
							<clipindex>8</clipindex>
							<groupindex>1</groupindex>
						</link>
						<link>
							<linkclipref>clipitem-1395</linkclipref>
							<mediatype>audio</mediatype>
							<trackindex>15</trackindex>
							<clipindex>8</clipindex>
							<groupindex>1</groupindex>
						</link>
						<logginginfo>
							<description></description>
							<scene></scene>
							<shottake></shottake>
							<lognote></lognote>
						</logginginfo>
						<labels>
							<label2>Iris</label2>
						</labels>
					</clipitem>
					<clipitem id="clipitem-1396" premiereChannelType="stereo">
						<masterclipid>masterclip-55</masterclipid>
						<name>20160516_113449.mp4</name>
						<enabled>TRUE</enabled>
						<duration>1056</duration>
						<rate>
							<timebase>25</timebase>
							<ntsc>FALSE</ntsc>
						</rate>
						<start>21778</start>
						<end>22668</end>
						<in>0</in>
						<out>890</out>
						<pproTicksIn>0</pproTicksIn>
						<pproTicksOut>9042969600000</pproTicksOut>
						<file id="file-55"/>
						<sourcetrack>
							<mediatype>audio</mediatype>
							<trackindex>2</trackindex>
						</sourcetrack>
							<filter>
								<effect>
									<name>Audio Levels</name>
									<effectid>audiolevels</effectid>
									<effectcategory>audiolevels</effectcategory>
									<effecttype>audiolevels</effecttype>
									<mediatype>audio</mediatype>
									<parameter authoringApp="PremierePro">
										<parameterid>level</parameterid>
										<name>Level</name>
										<valuemin>0</valuemin>
										<valuemax>3.98109</valuemax>
										<value>0</value>
									</parameter>
								</effect>
							</filter>
						<link>
							<linkclipref>clipitem-69</linkclipref>
							<mediatype>video</mediatype>
							<trackindex>1</trackindex>
							<clipindex>69</clipindex>
						</link>
						<link>
							<linkclipref>clipitem-1364</linkclipref>
							<mediatype>audio</mediatype>
							<trackindex>14</trackindex>
							<clipindex>9</clipindex>
							<groupindex>1</groupindex>
						</link>
						<link>
							<linkclipref>clipitem-1396</linkclipref>
							<mediatype>audio</mediatype>
							<trackindex>15</trackindex>
							<clipindex>9</clipindex>
							<groupindex>1</groupindex>
						</link>
						<logginginfo>
							<description></description>
							<scene></scene>
							<shottake></shottake>
							<lognote></lognote>
						</logginginfo>
						<labels>
							<label2>Iris</label2>
						</labels>
					</clipitem>
					<clipitem id="clipitem-1397" premiereChannelType="stereo">
						<masterclipid>masterclip-63</masterclipid>
						<name>AA277101.MXF</name>
						<enabled>TRUE</enabled>
						<duration>5604</duration>
						<rate>
							<timebase>25</timebase>
							<ntsc>FALSE</ntsc>
						</rate>
						<start>26270</start>
						<end>26431</end>
						<in>5368</in>
						<out>5529</out>
						<pproTicksIn>54542315520000</pproTicksIn>
						<pproTicksOut>56178178560000</pproTicksOut>
						<file id="file-63"/>
						<sourcetrack>
							<mediatype>audio</mediatype>
							<trackindex>1</trackindex>
						</sourcetrack>
						<link>
							<linkclipref>clipitem-1365</linkclipref>
							<mediatype>audio</mediatype>
							<trackindex>14</trackindex>
							<clipindex>10</clipindex>
							<groupindex>1</groupindex>
						</link>
						<link>
							<linkclipref>clipitem-1397</linkclipref>
							<mediatype>audio</mediatype>
							<trackindex>15</trackindex>
							<clipindex>10</clipindex>
							<groupindex>1</groupindex>
						</link>
						<logginginfo>
							<description></description>
							<scene></scene>
							<shottake></shottake>
							<lognote></lognote>
						</logginginfo>
						<labels>
							<label2>Iris</label2>
						</labels>
					</clipitem>
					<clipitem id="clipitem-1398" premiereChannelType="stereo">
						<masterclipid>masterclip-72</masterclipid>
						<name>DNPR65008515AA</name>
						<enabled>TRUE</enabled>
						<duration>89053</duration>
						<rate>
							<timebase>25</timebase>
							<ntsc>FALSE</ntsc>
						</rate>
						<start>28038</start>
						<end>28563</end>
						<in>51727</in>
						<out>52252</out>
						<pproTicksIn>525579425280000</pproTicksIn>
						<pproTicksOut>530913761280000</pproTicksOut>
						<file id="file-72"/>
						<sourcetrack>
							<mediatype>audio</mediatype>
							<trackindex>2</trackindex>
						</sourcetrack>
							<filter>
								<effect>
									<name>Audio Levels</name>
									<effectid>audiolevels</effectid>
									<effectcategory>audiolevels</effectcategory>
									<effecttype>audiolevels</effecttype>
									<mediatype>audio</mediatype>
									<parameter authoringApp="PremierePro">
										<parameterid>level</parameterid>
										<name>Level</name>
										<valuemin>0</valuemin>
										<valuemax>3.98109</valuemax>
										<value>0.137604</value>
										<keyframe>
											<when>51809</when>
											<value>0.137604</value>
										</keyframe>
										<keyframe>
											<when>51861</when>
											<value>0.99763</value>
										</keyframe>
										<keyframe>
											<when>52168</when>
											<value>0.99763</value>
										</keyframe>
										<keyframe>
											<when>52215</when>
											<value>0</value>
										</keyframe>
									</parameter>
								</effect>
							</filter>
						<link>
							<linkclipref>clipitem-1366</linkclipref>
							<mediatype>audio</mediatype>
							<trackindex>14</trackindex>
							<clipindex>11</clipindex>
							<groupindex>1</groupindex>
						</link>
						<link>
							<linkclipref>clipitem-1398</linkclipref>
							<mediatype>audio</mediatype>
							<trackindex>15</trackindex>
							<clipindex>11</clipindex>
							<groupindex>1</groupindex>
						</link>
						<logginginfo>
							<description>Et eventyr gjennom linsa</description>
							<scene></scene>
							<shottake></shottake>
							<lognote></lognote>
						</logginginfo>
						<labels>
							<label2>Iris</label2>
						</labels>
					</clipitem>
					<clipitem id="clipitem-1399" premiereChannelType="stereo">
						<masterclipid>masterclip-268</masterclipid>
						<name>00007.mxf</name>
						<enabled>TRUE</enabled>
						<duration>216</duration>
						<rate>
							<timebase>25</timebase>
							<ntsc>FALSE</ntsc>
						</rate>
						<start>43893</start>
						<end>44005</end>
						<in>62</in>
						<out>174</out>
						<pproTicksIn>629959680000</pproTicksIn>
						<pproTicksOut>1767951360000</pproTicksOut>
						<file id="file-268"/>
						<sourcetrack>
							<mediatype>audio</mediatype>
							<trackindex>2</trackindex>
						</sourcetrack>
							<filter>
								<effect>
									<name>Gain</name>
									<effectid>{61756678, 4761696e, 4b657947}</effectid>
									<effecttype>filter</effecttype>
									<mediatype>audio</mediatype>
									<parameter authoringApp="PremierePro">
										<parameterid>Gain(dB)</parameterid>
										<name>Gain(dB)</name>
										<valuemin>-96</valuemin>
										<valuemax>96</valuemax>
										<value>-15</value>
									</parameter>
								</effect>
							</filter>
							<filter>
								<effect>
									<name>Audio Levels</name>
									<effectid>audiolevels</effectid>
									<effectcategory>audiolevels</effectcategory>
									<effecttype>audiolevels</effecttype>
									<mediatype>audio</mediatype>
									<parameter authoringApp="PremierePro">
										<parameterid>level</parameterid>
										<name>Level</name>
										<valuemin>0</valuemin>
										<valuemax>3.98109</valuemax>
										<value>0.912725</value>
										<keyframe>
											<when>68</when>
											<value>0</value>
										</keyframe>
										<keyframe>
											<when>94</when>
											<value>0.912725</value>
										</keyframe>
									</parameter>
								</effect>
							</filter>
						<link>
							<linkclipref>clipitem-1367</linkclipref>
							<mediatype>audio</mediatype>
							<trackindex>14</trackindex>
							<clipindex>12</clipindex>
							<groupindex>1</groupindex>
						</link>
						<link>
							<linkclipref>clipitem-1399</linkclipref>
							<mediatype>audio</mediatype>
							<trackindex>15</trackindex>
							<clipindex>12</clipindex>
							<groupindex>1</groupindex>
						</link>
						<logginginfo>
							<description></description>
							<scene></scene>
							<shottake></shottake>
							<lognote></lognote>
						</logginginfo>
						<labels>
							<label2>Iris</label2>
						</labels>
					</clipitem>
					<clipitem id="clipitem-1400" premiereChannelType="stereo">
						<masterclipid>masterclip-246</masterclipid>
						<name>NRK1-280616-CF.mxf</name>
						<enabled>TRUE</enabled>
						<duration>81975</duration>
						<rate>
							<timebase>25</timebase>
							<ntsc>FALSE</ntsc>
						</rate>
						<start>53201</start>
						<end>53827</end>
						<in>44242</in>
						<out>44868</out>
						<pproTicksIn>449527034880000</pproTicksIn>
						<pproTicksOut>455887595520000</pproTicksOut>
						<file id="file-246"/>
						<sourcetrack>
							<mediatype>audio</mediatype>
							<trackindex>2</trackindex>
						</sourcetrack>
							<filter>
								<effect>
									<name>Audio Levels</name>
									<effectid>audiolevels</effectid>
									<effectcategory>audiolevels</effectcategory>
									<effecttype>audiolevels</effecttype>
									<mediatype>audio</mediatype>
									<parameter authoringApp="PremierePro">
										<parameterid>level</parameterid>
										<name>Level</name>
										<valuemin>0</valuemin>
										<valuemax>3.98109</valuemax>
										<value>0</value>
										<keyframe>
											<when>44301</when>
											<value>0</value>
										</keyframe>
										<keyframe>
											<when>44344</when>
											<value>0.249408</value>
										</keyframe>
										<keyframe>
											<when>44776</when>
											<value>0.249408</value>
										</keyframe>
										<keyframe>
											<when>44866</when>
											<value>0</value>
										</keyframe>
									</parameter>
								</effect>
							</filter>
						<link>
							<linkclipref>clipitem-1368</linkclipref>
							<mediatype>audio</mediatype>
							<trackindex>14</trackindex>
							<clipindex>13</clipindex>
							<groupindex>1</groupindex>
						</link>
						<link>
							<linkclipref>clipitem-1400</linkclipref>
							<mediatype>audio</mediatype>
							<trackindex>15</trackindex>
							<clipindex>13</clipindex>
							<groupindex>1</groupindex>
						</link>
						<logginginfo>
							<description>DVNA20000716</description>
							<scene></scene>
							<shottake></shottake>
							<lognote></lognote>
						</logginginfo>
						<labels>
							<label2>Iris</label2>
						</labels>
					</clipitem>
					<clipitem id="clipitem-1401" premiereChannelType="stereo">
						<masterclipid>masterclip-332</masterclipid>
						<name>Nordvisjon-MASTER-vr3-201016-ny-musikk.wav</name>
						<enabled>TRUE</enabled>
						<duration>43741</duration>
						<rate>
							<timebase>25</timebase>
							<ntsc>FALSE</ntsc>
						</rate>
						<start>65533</start>
						<end>66954</end>
						<in>1628</in>
						<out>3049</out>
						<pproTicksIn>16541521920000</pproTicksIn>
						<pproTicksOut>30979791360000</pproTicksOut>
						<file id="file-332"/>
						<sourcetrack>
							<mediatype>audio</mediatype>
							<trackindex>2</trackindex>
						</sourcetrack>
							<filter>
								<effect>
									<name>Audio Levels</name>
									<effectid>audiolevels</effectid>
									<effectcategory>audiolevels</effectcategory>
									<effecttype>audiolevels</effecttype>
									<mediatype>audio</mediatype>
									<parameter authoringApp="PremierePro">
										<parameterid>level</parameterid>
										<name>Level</name>
										<valuemin>0</valuemin>
										<valuemax>3.98109</valuemax>
										<value>0.55188</value>
										<keyframe>
											<when>2147</when>
											<value>0.99763</value>
										</keyframe>
										<keyframe>
											<when>2179</when>
											<value>0.339619</value>
										</keyframe>
										<keyframe>
											<when>2353</when>
											<value>0.339619</value>
										</keyframe>
										<keyframe>
											<when>2403</when>
											<value>1.02574</value>
										</keyframe>
										<keyframe>
											<when>2612</when>
											<value>1.02574</value>
										</keyframe>
										<keyframe>
											<when>2675</when>
											<value>0.55188</value>
										</keyframe>
									</parameter>
								</effect>
							</filter>
							<marker>
								<comment></comment>
								<name></name>
								<in>40399</in>
								<out>-1</out>
							</marker>
							<marker>
								<comment></comment>
								<name></name>
								<in>3092</in>
								<out>-1</out>
							</marker>
							<marker>
								<comment></comment>
								<name></name>
								<in>36054</in>
								<out>-1</out>
							</marker>
							<marker>
								<comment></comment>
								<name></name>
								<in>0</in>
								<out>-1</out>
							</marker>
						<link>
							<linkclipref>clipitem-1369</linkclipref>
							<mediatype>audio</mediatype>
							<trackindex>14</trackindex>
							<clipindex>14</clipindex>
							<groupindex>1</groupindex>
						</link>
						<link>
							<linkclipref>clipitem-1401</linkclipref>
							<mediatype>audio</mediatype>
							<trackindex>15</trackindex>
							<clipindex>14</clipindex>
							<groupindex>1</groupindex>
						</link>
						<logginginfo>
							<description></description>
							<scene></scene>
							<shottake></shottake>
							<lognote></lognote>
						</logginginfo>
						<labels>
							<label2>Iris</label2>
						</labels>
					</clipitem>
					<clipitem id="clipitem-1402" premiereChannelType="stereo">
						<masterclipid>masterclip-332</masterclipid>
						<name>Nordvisjon-MASTER-vr3-201016-ny-musikk.wav</name>
						<enabled>TRUE</enabled>
						<duration>43741</duration>
						<rate>
							<timebase>25</timebase>
							<ntsc>FALSE</ntsc>
						</rate>
						<start>66954</start>
						<end>67722</end>
						<in>4013</in>
						<out>4781</out>
						<pproTicksIn>40774648320000</pproTicksIn>
						<pproTicksOut>48578019840000</pproTicksOut>
						<file id="file-332"/>
						<sourcetrack>
							<mediatype>audio</mediatype>
							<trackindex>2</trackindex>
						</sourcetrack>
							<filter>
								<effect>
									<name>Audio Levels</name>
									<effectid>audiolevels</effectid>
									<effectcategory>audiolevels</effectcategory>
									<effecttype>audiolevels</effecttype>
									<mediatype>audio</mediatype>
									<parameter authoringApp="PremierePro">
										<parameterid>level</parameterid>
										<name>Level</name>
										<valuemin>0</valuemin>
										<valuemax>3.98109</valuemax>
										<value>0.318393</value>
										<keyframe>
											<when>4342</when>
											<value>0.488202</value>
										</keyframe>
										<keyframe>
											<when>4377</when>
											<value>0.785368</value>
										</keyframe>
										<keyframe>
											<when>4445</when>
											<value>0.785368</value>
										</keyframe>
										<keyframe>
											<when>4535</when>
											<value>0.76768</value>
										</keyframe>
										<keyframe>
											<when>4586</when>
											<value>0.318393</value>
										</keyframe>
									</parameter>
								</effect>
							</filter>
							<marker>
								<comment></comment>
								<name></name>
								<in>40399</in>
								<out>-1</out>
							</marker>
							<marker>
								<comment></comment>
								<name></name>
								<in>3092</in>
								<out>-1</out>
							</marker>
							<marker>
								<comment></comment>
								<name></name>
								<in>36054</in>
								<out>-1</out>
							</marker>
							<marker>
								<comment></comment>
								<name></name>
								<in>0</in>
								<out>-1</out>
							</marker>
						<link>
							<linkclipref>clipitem-1370</linkclipref>
							<mediatype>audio</mediatype>
							<trackindex>14</trackindex>
							<clipindex>15</clipindex>
							<groupindex>1</groupindex>
						</link>
						<link>
							<linkclipref>clipitem-1402</linkclipref>
							<mediatype>audio</mediatype>
							<trackindex>15</trackindex>
							<clipindex>15</clipindex>
							<groupindex>1</groupindex>
						</link>
						<logginginfo>
							<description></description>
							<scene></scene>
							<shottake></shottake>
							<lognote></lognote>
						</logginginfo>
						<labels>
							<label2>Iris</label2>
						</labels>
					</clipitem>
					<clipitem id="clipitem-1403" premiereChannelType="stereo">
						<masterclipid>masterclip-332</masterclipid>
						<name>Nordvisjon-MASTER-vr3-201016-ny-musikk.wav</name>
						<enabled>TRUE</enabled>
						<duration>43741</duration>
						<rate>
							<timebase>25</timebase>
							<ntsc>FALSE</ntsc>
						</rate>
						<start>67722</start>
						<end>68022</end>
						<in>4940</in>
						<out>5240</out>
						<pproTicksIn>50193561600000</pproTicksIn>
						<pproTicksOut>53241753600000</pproTicksOut>
						<file id="file-332"/>
						<sourcetrack>
							<mediatype>audio</mediatype>
							<trackindex>2</trackindex>
						</sourcetrack>
							<marker>
								<comment></comment>
								<name></name>
								<in>40399</in>
								<out>-1</out>
							</marker>
							<marker>
								<comment></comment>
								<name></name>
								<in>3092</in>
								<out>-1</out>
							</marker>
							<marker>
								<comment></comment>
								<name></name>
								<in>36054</in>
								<out>-1</out>
							</marker>
							<marker>
								<comment></comment>
								<name></name>
								<in>0</in>
								<out>-1</out>
							</marker>
						<link>
							<linkclipref>clipitem-1371</linkclipref>
							<mediatype>audio</mediatype>
							<trackindex>14</trackindex>
							<clipindex>16</clipindex>
							<groupindex>1</groupindex>
						</link>
						<link>
							<linkclipref>clipitem-1403</linkclipref>
							<mediatype>audio</mediatype>
							<trackindex>15</trackindex>
							<clipindex>16</clipindex>
							<groupindex>1</groupindex>
						</link>
						<logginginfo>
							<description></description>
							<scene></scene>
							<shottake></shottake>
							<lognote></lognote>
						</logginginfo>
						<labels>
							<label2>Iris</label2>
						</labels>
					</clipitem>
					<clipitem id="clipitem-1404" premiereChannelType="stereo">
						<masterclipid>masterclip-332</masterclipid>
						<name>Nordvisjon-MASTER-vr3-201016-ny-musikk.wav</name>
						<enabled>TRUE</enabled>
						<duration>43741</duration>
						<rate>
							<timebase>25</timebase>
							<ntsc>FALSE</ntsc>
						</rate>
						<start>68022</start>
						<end>70690</end>
						<in>5472</in>
						<out>8140</out>
						<pproTicksIn>55599022080000</pproTicksIn>
						<pproTicksOut>82707609600000</pproTicksOut>
						<file id="file-332"/>
						<sourcetrack>
							<mediatype>audio</mediatype>
							<trackindex>2</trackindex>
						</sourcetrack>
							<filter>
								<effect>
									<name>Audio Levels</name>
									<effectid>audiolevels</effectid>
									<effectcategory>audiolevels</effectcategory>
									<effecttype>audiolevels</effecttype>
									<mediatype>audio</mediatype>
									<parameter authoringApp="PremierePro">
										<parameterid>level</parameterid>
										<name>Level</name>
										<valuemin>0</valuemin>
										<valuemax>3.98109</valuemax>
										<value>0.488202</value>
										<keyframe>
											<when>6470</when>
											<value>0.99763</value>
										</keyframe>
										<keyframe>
											<when>6517</when>
											<value>0.488202</value>
										</keyframe>
									</parameter>
								</effect>
							</filter>
							<marker>
								<comment></comment>
								<name></name>
								<in>40399</in>
								<out>-1</out>
							</marker>
							<marker>
								<comment></comment>
								<name></name>
								<in>3092</in>
								<out>-1</out>
							</marker>
							<marker>
								<comment></comment>
								<name></name>
								<in>36054</in>
								<out>-1</out>
							</marker>
							<marker>
								<comment></comment>
								<name></name>
								<in>0</in>
								<out>-1</out>
							</marker>
						<link>
							<linkclipref>clipitem-1372</linkclipref>
							<mediatype>audio</mediatype>
							<trackindex>14</trackindex>
							<clipindex>17</clipindex>
							<groupindex>1</groupindex>
						</link>
						<link>
							<linkclipref>clipitem-1404</linkclipref>
							<mediatype>audio</mediatype>
							<trackindex>15</trackindex>
							<clipindex>17</clipindex>
							<groupindex>1</groupindex>
						</link>
						<logginginfo>
							<description></description>
							<scene></scene>
							<shottake></shottake>
							<lognote></lognote>
						</logginginfo>
						<labels>
							<label2>Iris</label2>
						</labels>
					</clipitem>
					<clipitem id="clipitem-1405" premiereChannelType="stereo">
						<masterclipid>masterclip-332</masterclipid>
						<name>Nordvisjon-MASTER-vr3-201016-ny-musikk.wav</name>
						<enabled>TRUE</enabled>
						<duration>43741</duration>
						<rate>
							<timebase>25</timebase>
							<ntsc>FALSE</ntsc>
						</rate>
						<start>71306</start>
						<end>-1</end>
						<in>11186</in>
						<out>12656</out>
						<pproTicksIn>113656919040000</pproTicksIn>
						<pproTicksOut>128593059840000</pproTicksOut>
						<file id="file-332"/>
						<sourcetrack>
							<mediatype>audio</mediatype>
							<trackindex>2</trackindex>
						</sourcetrack>
							<filter>
								<effect>
									<name>Audio Levels</name>
									<effectid>audiolevels</effectid>
									<effectcategory>audiolevels</effectcategory>
									<effecttype>audiolevels</effecttype>
									<mediatype>audio</mediatype>
									<parameter authoringApp="PremierePro">
										<parameterid>level</parameterid>
										<name>Level</name>
										<valuemin>0</valuemin>
										<valuemax>3.98109</valuemax>
										<value>0.99763</value>
										<keyframe>
											<when>11477</when>
											<value>0.99763</value>
										</keyframe>
										<keyframe>
											<when>11501</when>
											<value>0.360845</value>
										</keyframe>
										<keyframe>
											<when>11600</when>
											<value>0.360845</value>
										</keyframe>
										<keyframe>
											<when>11614</when>
											<value>0.99763</value>
										</keyframe>
										<keyframe>
											<when>11659</when>
											<value>0.99763</value>
										</keyframe>
										<keyframe>
											<when>11677</when>
											<value>0.360845</value>
										</keyframe>
										<keyframe>
											<when>11809</when>
											<value>0.360845</value>
										</keyframe>
										<keyframe>
											<when>11824</when>
											<value>0.955178</value>
										</keyframe>
										<keyframe>
											<when>12053</when>
											<value>0.955178</value>
										</keyframe>
										<keyframe>
											<when>12067</when>
											<value>0.488202</value>
										</keyframe>
										<keyframe>
											<when>12144</when>
											<value>0.488202</value>
										</keyframe>
										<keyframe>
											<when>12160</when>
											<value>0.99763</value>
										</keyframe>
									</parameter>
								</effect>
							</filter>
							<marker>
								<comment></comment>
								<name></name>
								<in>40399</in>
								<out>-1</out>
							</marker>
							<marker>
								<comment></comment>
								<name></name>
								<in>3092</in>
								<out>-1</out>
							</marker>
							<marker>
								<comment></comment>
								<name></name>
								<in>36054</in>
								<out>-1</out>
							</marker>
							<marker>
								<comment></comment>
								<name></name>
								<in>0</in>
								<out>-1</out>
							</marker>
						<link>
							<linkclipref>clipitem-1373</linkclipref>
							<mediatype>audio</mediatype>
							<trackindex>14</trackindex>
							<clipindex>18</clipindex>
							<groupindex>1</groupindex>
						</link>
						<link>
							<linkclipref>clipitem-1405</linkclipref>
							<mediatype>audio</mediatype>
							<trackindex>15</trackindex>
							<clipindex>18</clipindex>
							<groupindex>1</groupindex>
						</link>
						<logginginfo>
							<description></description>
							<scene></scene>
							<shottake></shottake>
							<lognote></lognote>
						</logginginfo>
						<labels>
							<label2>Iris</label2>
						</labels>
					</clipitem>
					<transitionitem>
						<start>72763</start>
						<end>72776</end>
						<alignment>center</alignment>
						<cutPointTicks>60963840000</cutPointTicks>
						<rate>
							<timebase>25</timebase>
							<ntsc>FALSE</ntsc>
						</rate>
						<effect>
							<name>Cross Fade (+3dB)</name>
							<effectid>KGAudioTransCrossFade3dB</effectid>
							<effecttype>transition</effecttype>
							<mediatype>audio</mediatype>
							<wipecode>0</wipecode>
							<wipeaccuracy>100</wipeaccuracy>
							<startratio>0</startratio>
							<endratio>1</endratio>
							<reverse>FALSE</reverse>
						</effect>
					</transitionitem>
					<clipitem id="clipitem-1406" premiereChannelType="stereo">
						<masterclipid>masterclip-332</masterclipid>
						<name>Nordvisjon-MASTER-vr3-201016-ny-musikk.wav</name>
						<enabled>TRUE</enabled>
						<duration>43741</duration>
						<rate>
							<timebase>25</timebase>
							<ntsc>FALSE</ntsc>
						</rate>
						<start>-1</start>
						<end>-1</end>
						<in>14118</in>
						<out>15677</out>
						<pproTicksIn>143447915520000</pproTicksIn>
						<pproTicksOut>159288353280000</pproTicksOut>
						<file id="file-332"/>
						<sourcetrack>
							<mediatype>audio</mediatype>
							<trackindex>2</trackindex>
						</sourcetrack>
							<filter>
								<effect>
									<name>Audio Levels</name>
									<effectid>audiolevels</effectid>
									<effectcategory>audiolevels</effectcategory>
									<effecttype>audiolevels</effecttype>
									<mediatype>audio</mediatype>
									<parameter authoringApp="PremierePro">
										<parameterid>level</parameterid>
										<name>Level</name>
										<valuemin>0</valuemin>
										<valuemax>3.98109</valuemax>
										<value>0</value>
										<keyframe>
											<when>14195</when>
											<value>1.76177</value>
										</keyframe>
										<keyframe>
											<when>14213</when>
											<value>0.99763</value>
										</keyframe>
										<keyframe>
											<when>14436</when>
											<value>0.99763</value>
										</keyframe>
										<keyframe>
											<when>14448</when>
											<value>0.615559</value>
										</keyframe>
										<keyframe>
											<when>14634</when>
											<value>0.615559</value>
										</keyframe>
										<keyframe>
											<when>14655</when>
											<value>0.99763</value>
										</keyframe>
										<keyframe>
											<when>15032</when>
											<value>0.99763</value>
										</keyframe>
										<keyframe>
											<when>15121</when>
											<value>0.450543</value>
										</keyframe>
										<keyframe>
											<when>15265</when>
											<value>0</value>
										</keyframe>
										<keyframe>
											<when>15310</when>
											<value>0</value>
										</keyframe>
									</parameter>
								</effect>
							</filter>
							<marker>
								<comment></comment>
								<name></name>
								<in>40399</in>
								<out>-1</out>
							</marker>
							<marker>
								<comment></comment>
								<name></name>
								<in>3092</in>
								<out>-1</out>
							</marker>
							<marker>
								<comment></comment>
								<name></name>
								<in>36054</in>
								<out>-1</out>
							</marker>
							<marker>
								<comment></comment>
								<name></name>
								<in>0</in>
								<out>-1</out>
							</marker>
						<link>
							<linkclipref>clipitem-1374</linkclipref>
							<mediatype>audio</mediatype>
							<trackindex>14</trackindex>
							<clipindex>20</clipindex>
							<groupindex>1</groupindex>
						</link>
						<link>
							<linkclipref>clipitem-1406</linkclipref>
							<mediatype>audio</mediatype>
							<trackindex>15</trackindex>
							<clipindex>20</clipindex>
							<groupindex>1</groupindex>
						</link>
						<logginginfo>
							<description></description>
							<scene></scene>
							<shottake></shottake>
							<lognote></lognote>
						</logginginfo>
						<labels>
							<label2>Iris</label2>
						</labels>
					</clipitem>
					<transitionitem>
						<start>74239</start>
						<end>74322</end>
						<alignment>center</alignment>
						<cutPointTicks>416586240000</cutPointTicks>
						<rate>
							<timebase>25</timebase>
							<ntsc>FALSE</ntsc>
						</rate>
						<effect>
							<name>Cross Fade (+3dB)</name>
							<effectid>KGAudioTransCrossFade3dB</effectid>
							<effecttype>transition</effecttype>
							<mediatype>audio</mediatype>
							<wipecode>0</wipecode>
							<wipeaccuracy>100</wipeaccuracy>
							<startratio>0</startratio>
							<endratio>1</endratio>
							<reverse>FALSE</reverse>
						</effect>
					</transitionitem>
					<clipitem id="clipitem-1407" premiereChannelType="stereo">
						<masterclipid>masterclip-332</masterclipid>
						<name>Nordvisjon-MASTER-vr3-201016-ny-musikk.wav</name>
						<enabled>TRUE</enabled>
						<duration>43741</duration>
						<rate>
							<timebase>25</timebase>
							<ntsc>FALSE</ntsc>
						</rate>
						<start>-1</start>
						<end>77442</end>
						<in>20065</in>
						<out>23268</out>
						<pproTicksIn>203873241600000</pproTicksIn>
						<pproTicksOut>236417771520000</pproTicksOut>
						<file id="file-332"/>
						<sourcetrack>
							<mediatype>audio</mediatype>
							<trackindex>2</trackindex>
						</sourcetrack>
							<marker>
								<comment></comment>
								<name></name>
								<in>40399</in>
								<out>-1</out>
							</marker>
							<marker>
								<comment></comment>
								<name></name>
								<in>3092</in>
								<out>-1</out>
							</marker>
							<marker>
								<comment></comment>
								<name></name>
								<in>36054</in>
								<out>-1</out>
							</marker>
							<marker>
								<comment></comment>
								<name></name>
								<in>0</in>
								<out>-1</out>
							</marker>
						<link>
							<linkclipref>clipitem-1375</linkclipref>
							<mediatype>audio</mediatype>
							<trackindex>14</trackindex>
							<clipindex>22</clipindex>
							<groupindex>1</groupindex>
						</link>
						<link>
							<linkclipref>clipitem-1407</linkclipref>
							<mediatype>audio</mediatype>
							<trackindex>15</trackindex>
							<clipindex>22</clipindex>
							<groupindex>1</groupindex>
						</link>
						<logginginfo>
							<description></description>
							<scene></scene>
							<shottake></shottake>
							<lognote></lognote>
						</logginginfo>
						<labels>
							<label2>Iris</label2>
						</labels>
					</clipitem>
					<clipitem id="clipitem-1408" premiereChannelType="stereo">
						<masterclipid>masterclip-333</masterclipid>
						<name>Nordvisjon2MASTER_musikk.wav</name>
						<enabled>TRUE</enabled>
						<duration>45037</duration>
						<rate>
							<timebase>25</timebase>
							<ntsc>FALSE</ntsc>
						</rate>
						<start>77442</start>
						<end>78517</end>
						<in>37865</in>
						<out>38940</out>
						<pproTicksIn>384732633600000</pproTicksIn>
						<pproTicksOut>395655321600000</pproTicksOut>
						<file id="file-333"/>
						<sourcetrack>
							<mediatype>audio</mediatype>
							<trackindex>2</trackindex>
						</sourcetrack>
							<filter>
								<effect>
									<name>Audio Levels</name>
									<effectid>audiolevels</effectid>
									<effectcategory>audiolevels</effectcategory>
									<effecttype>audiolevels</effecttype>
									<mediatype>audio</mediatype>
									<parameter authoringApp="PremierePro">
										<parameterid>level</parameterid>
										<name>Level</name>
										<valuemin>0</valuemin>
										<valuemax>3.98109</valuemax>
										<value>0.99763</value>
										<keyframe>
											<when>38185</when>
											<value>0.99763</value>
										</keyframe>
										<keyframe>
											<when>38218</when>
											<value>0.404445</value>
										</keyframe>
										<keyframe>
											<when>38299</when>
											<value>0.404445</value>
										</keyframe>
										<keyframe>
											<when>38332</when>
											<value>0.99763</value>
										</keyframe>
										<keyframe>
											<when>38441</when>
											<value>0.99763</value>
										</keyframe>
										<keyframe>
											<when>38466</when>
											<value>0.458371</value>
										</keyframe>
										<keyframe>
											<when>38519</when>
											<value>0.458371</value>
										</keyframe>
										<keyframe>
											<when>38542</when>
											<value>0.99763</value>
										</keyframe>
										<keyframe>
											<when>38696</when>
											<value>0.99763</value>
										</keyframe>
										<keyframe>
											<when>38731</when>
											<value>0</value>
										</keyframe>
									</parameter>
								</effect>
							</filter>
						<link>
							<linkclipref>clipitem-1376</linkclipref>
							<mediatype>audio</mediatype>
							<trackindex>14</trackindex>
							<clipindex>23</clipindex>
							<groupindex>1</groupindex>
						</link>
						<link>
							<linkclipref>clipitem-1408</linkclipref>
							<mediatype>audio</mediatype>
							<trackindex>15</trackindex>
							<clipindex>23</clipindex>
							<groupindex>1</groupindex>
						</link>
						<logginginfo>
							<description></description>
							<scene></scene>
							<shottake></shottake>
							<lognote></lognote>
						</logginginfo>
						<labels>
							<label2>Iris</label2>
						</labels>
					</clipitem>
					<clipitem id="clipitem-1409" premiereChannelType="stereo">
						<masterclipid>masterclip-333</masterclipid>
						<name>Nordvisjon2MASTER_musikk.wav</name>
						<enabled>TRUE</enabled>
						<duration>45037</duration>
						<rate>
							<timebase>25</timebase>
							<ntsc>FALSE</ntsc>
						</rate>
						<start>78611</start>
						<end>79457</end>
						<in>25244</in>
						<out>26090</out>
						<pproTicksIn>256495196160000</pproTicksIn>
						<pproTicksOut>265091097600000</pproTicksOut>
						<file id="file-333"/>
						<sourcetrack>
							<mediatype>audio</mediatype>
							<trackindex>2</trackindex>
						</sourcetrack>
							<filter>
								<effect>
									<name>Audio Levels</name>
									<effectid>audiolevels</effectid>
									<effectcategory>audiolevels</effectcategory>
									<effecttype>audiolevels</effecttype>
									<mediatype>audio</mediatype>
									<parameter authoringApp="PremierePro">
										<parameterid>level</parameterid>
										<name>Level</name>
										<valuemin>0</valuemin>
										<valuemax>3.98109</valuemax>
										<value>0.99763</value>
										<keyframe>
											<when>25723</when>
											<value>0.99763</value>
										</keyframe>
										<keyframe>
											<when>25738</when>
											<value>0.242667</value>
										</keyframe>
										<keyframe>
											<when>25908</when>
											<value>0.242667</value>
										</keyframe>
										<keyframe>
											<when>25923</when>
											<value>0.99763</value>
										</keyframe>
									</parameter>
								</effect>
							</filter>
						<link>
							<linkclipref>clipitem-1377</linkclipref>
							<mediatype>audio</mediatype>
							<trackindex>14</trackindex>
							<clipindex>24</clipindex>
							<groupindex>1</groupindex>
						</link>
						<link>
							<linkclipref>clipitem-1409</linkclipref>
							<mediatype>audio</mediatype>
							<trackindex>15</trackindex>
							<clipindex>24</clipindex>
							<groupindex>1</groupindex>
						</link>
						<logginginfo>
							<description></description>
							<scene></scene>
							<shottake></shottake>
							<lognote></lognote>
						</logginginfo>
						<labels>
							<label2>Iris</label2>
						</labels>
					</clipitem>
					<clipitem id="clipitem-1410" premiereChannelType="stereo">
						<masterclipid>masterclip-333</masterclipid>
						<name>Nordvisjon2MASTER_musikk.wav</name>
						<enabled>TRUE</enabled>
						<duration>45037</duration>
						<rate>
							<timebase>25</timebase>
							<ntsc>FALSE</ntsc>
						</rate>
						<start>79612</start>
						<end>80534</end>
						<in>26981</in>
						<out>27903</out>
						<pproTicksIn>274144227840000</pproTicksIn>
						<pproTicksOut>283512337920000</pproTicksOut>
						<file id="file-333"/>
						<sourcetrack>
							<mediatype>audio</mediatype>
							<trackindex>2</trackindex>
						</sourcetrack>
						<link>
							<linkclipref>clipitem-1378</linkclipref>
							<mediatype>audio</mediatype>
							<trackindex>14</trackindex>
							<clipindex>25</clipindex>
							<groupindex>1</groupindex>
						</link>
						<link>
							<linkclipref>clipitem-1410</linkclipref>
							<mediatype>audio</mediatype>
							<trackindex>15</trackindex>
							<clipindex>25</clipindex>
							<groupindex>1</groupindex>
						</link>
						<logginginfo>
							<description></description>
							<scene></scene>
							<shottake></shottake>
							<lognote></lognote>
						</logginginfo>
						<labels>
							<label2>Iris</label2>
						</labels>
					</clipitem>
					<clipitem id="clipitem-1411" premiereChannelType="stereo">
						<masterclipid>masterclip-333</masterclipid>
						<name>Nordvisjon2MASTER_musikk.wav</name>
						<enabled>TRUE</enabled>
						<duration>45037</duration>
						<rate>
							<timebase>25</timebase>
							<ntsc>FALSE</ntsc>
						</rate>
						<start>80534</start>
						<end>82149</end>
						<in>28818</in>
						<out>30433</out>
						<pproTicksIn>292809323520000</pproTicksIn>
						<pproTicksOut>309218757120000</pproTicksOut>
						<file id="file-333"/>
						<sourcetrack>
							<mediatype>audio</mediatype>
							<trackindex>2</trackindex>
						</sourcetrack>
						<link>
							<linkclipref>clipitem-1379</linkclipref>
							<mediatype>audio</mediatype>
							<trackindex>14</trackindex>
							<clipindex>26</clipindex>
							<groupindex>1</groupindex>
						</link>
						<link>
							<linkclipref>clipitem-1411</linkclipref>
							<mediatype>audio</mediatype>
							<trackindex>15</trackindex>
							<clipindex>26</clipindex>
							<groupindex>1</groupindex>
						</link>
						<logginginfo>
							<description></description>
							<scene></scene>
							<shottake></shottake>
							<lognote></lognote>
						</logginginfo>
						<labels>
							<label2>Iris</label2>
						</labels>
					</clipitem>
					<clipitem id="clipitem-1412" premiereChannelType="stereo">
						<masterclipid>masterclip-333</masterclipid>
						<name>Nordvisjon2MASTER_musikk.wav</name>
						<enabled>TRUE</enabled>
						<duration>45037</duration>
						<rate>
							<timebase>25</timebase>
							<ntsc>FALSE</ntsc>
						</rate>
						<start>82149</start>
						<end>84299</end>
						<in>31013</in>
						<out>33163</out>
						<pproTicksIn>315111928320000</pproTicksIn>
						<pproTicksOut>336957304320000</pproTicksOut>
						<file id="file-333"/>
						<sourcetrack>
							<mediatype>audio</mediatype>
							<trackindex>2</trackindex>
						</sourcetrack>
						<link>
							<linkclipref>clipitem-1380</linkclipref>
							<mediatype>audio</mediatype>
							<trackindex>14</trackindex>
							<clipindex>27</clipindex>
							<groupindex>1</groupindex>
						</link>
						<link>
							<linkclipref>clipitem-1412</linkclipref>
							<mediatype>audio</mediatype>
							<trackindex>15</trackindex>
							<clipindex>27</clipindex>
							<groupindex>1</groupindex>
						</link>
						<logginginfo>
							<description></description>
							<scene></scene>
							<shottake></shottake>
							<lognote></lognote>
						</logginginfo>
						<labels>
							<label2>Iris</label2>
						</labels>
					</clipitem>
					<clipitem id="clipitem-1413" premiereChannelType="stereo">
						<masterclipid>masterclip-323</masterclipid>
						<name>Nordvisjon3MASTER musikk.wav</name>
						<enabled>TRUE</enabled>
						<duration>43207</duration>
						<rate>
							<timebase>25</timebase>
							<ntsc>FALSE</ntsc>
						</rate>
						<start>89317</start>
						<end>91782</end>
						<in>3377</in>
						<out>5842</out>
						<pproTicksIn>34312481280000</pproTicksIn>
						<pproTicksOut>59358458880000</pproTicksOut>
						<file id="file-323"/>
						<sourcetrack>
							<mediatype>audio</mediatype>
							<trackindex>2</trackindex>
						</sourcetrack>
						<link>
							<linkclipref>clipitem-1381</linkclipref>
							<mediatype>audio</mediatype>
							<trackindex>14</trackindex>
							<clipindex>28</clipindex>
							<groupindex>1</groupindex>
						</link>
						<link>
							<linkclipref>clipitem-1413</linkclipref>
							<mediatype>audio</mediatype>
							<trackindex>15</trackindex>
							<clipindex>28</clipindex>
							<groupindex>1</groupindex>
						</link>
						<logginginfo>
							<description></description>
							<scene></scene>
							<shottake></shottake>
							<lognote></lognote>
						</logginginfo>
						<labels>
							<label2>Iris</label2>
						</labels>
					</clipitem>
					<clipitem id="clipitem-1414" premiereChannelType="stereo">
						<masterclipid>masterclip-332</masterclipid>
						<name>Nordvisjon-MASTER-vr3-201016-ny-musikk.wav</name>
						<enabled>TRUE</enabled>
						<duration>43741</duration>
						<rate>
							<timebase>25</timebase>
							<ntsc>FALSE</ntsc>
						</rate>
						<start>92678</start>
						<end>95648</end>
						<in>40274</in>
						<out>43244</out>
						<pproTicksIn>409209615360000</pproTicksIn>
						<pproTicksOut>439386716160000</pproTicksOut>
						<file id="file-332"/>
						<sourcetrack>
							<mediatype>audio</mediatype>
							<trackindex>2</trackindex>
						</sourcetrack>
							<filter>
								<effect>
									<name>Audio Levels</name>
									<effectid>audiolevels</effectid>
									<effectcategory>audiolevels</effectcategory>
									<effecttype>audiolevels</effecttype>
									<mediatype>audio</mediatype>
									<parameter authoringApp="PremierePro">
										<parameterid>level</parameterid>
										<name>Level</name>
										<valuemin>0</valuemin>
										<valuemax>3.98109</valuemax>
										<value>0</value>
										<keyframe>
											<when>40274</when>
											<value>0</value>
										</keyframe>
										<keyframe>
											<when>40613</when>
											<value>0.99763</value>
										</keyframe>
										<keyframe>
											<when>42746</when>
											<value>0.99763</value>
										</keyframe>
										<keyframe>
											<when>42907</when>
											<value>0.242667</value>
										</keyframe>
									</parameter>
								</effect>
							</filter>
							<marker>
								<comment></comment>
								<name></name>
								<in>40399</in>
								<out>-1</out>
							</marker>
							<marker>
								<comment></comment>
								<name></name>
								<in>3092</in>
								<out>-1</out>
							</marker>
							<marker>
								<comment></comment>
								<name></name>
								<in>36054</in>
								<out>-1</out>
							</marker>
							<marker>
								<comment></comment>
								<name></name>
								<in>0</in>
								<out>-1</out>
							</marker>
						<link>
							<linkclipref>clipitem-1382</linkclipref>
							<mediatype>audio</mediatype>
							<trackindex>14</trackindex>
							<clipindex>29</clipindex>
							<groupindex>1</groupindex>
						</link>
						<link>
							<linkclipref>clipitem-1414</linkclipref>
							<mediatype>audio</mediatype>
							<trackindex>15</trackindex>
							<clipindex>29</clipindex>
							<groupindex>1</groupindex>
						</link>
						<logginginfo>
							<description></description>
							<scene></scene>
							<shottake></shottake>
							<lognote></lognote>
						</logginginfo>
						<labels>
							<label2>Iris</label2>
						</labels>
					</clipitem>
					<clipitem id="clipitem-1415" premiereChannelType="stereo">
						<masterclipid>masterclip-323</masterclipid>
						<name>Nordvisjon3MASTER musikk.wav</name>
						<enabled>TRUE</enabled>
						<duration>43207</duration>
						<rate>
							<timebase>25</timebase>
							<ntsc>FALSE</ntsc>
						</rate>
						<start>96834</start>
						<end>97521</end>
						<in>9688</in>
						<out>10375</out>
						<pproTicksIn>98436280320000</pproTicksIn>
						<pproTicksOut>105416640000000</pproTicksOut>
						<file id="file-323"/>
						<sourcetrack>
							<mediatype>audio</mediatype>
							<trackindex>2</trackindex>
						</sourcetrack>
						<link>
							<linkclipref>clipitem-1383</linkclipref>
							<mediatype>audio</mediatype>
							<trackindex>14</trackindex>
							<clipindex>30</clipindex>
							<groupindex>1</groupindex>
						</link>
						<link>
							<linkclipref>clipitem-1415</linkclipref>
							<mediatype>audio</mediatype>
							<trackindex>15</trackindex>
							<clipindex>30</clipindex>
							<groupindex>1</groupindex>
						</link>
						<logginginfo>
							<description></description>
							<scene></scene>
							<shottake></shottake>
							<lognote></lognote>
						</logginginfo>
						<labels>
							<label2>Iris</label2>
						</labels>
					</clipitem>
					<clipitem id="clipitem-1416" premiereChannelType="stereo">
						<masterclipid>masterclip-323</masterclipid>
						<name>Nordvisjon3MASTER musikk.wav</name>
						<enabled>TRUE</enabled>
						<duration>43207</duration>
						<rate>
							<timebase>25</timebase>
							<ntsc>FALSE</ntsc>
						</rate>
						<start>97521</start>
						<end>97802</end>
						<in>10911</in>
						<out>11192</out>
						<pproTicksIn>110862743040000</pproTicksIn>
						<pproTicksOut>113717882880000</pproTicksOut>
						<file id="file-323"/>
						<sourcetrack>
							<mediatype>audio</mediatype>
							<trackindex>2</trackindex>
						</sourcetrack>
						<link>
							<linkclipref>clipitem-1384</linkclipref>
							<mediatype>audio</mediatype>
							<trackindex>14</trackindex>
							<clipindex>31</clipindex>
							<groupindex>1</groupindex>
						</link>
						<link>
							<linkclipref>clipitem-1416</linkclipref>
							<mediatype>audio</mediatype>
							<trackindex>15</trackindex>
							<clipindex>31</clipindex>
							<groupindex>1</groupindex>
						</link>
						<logginginfo>
							<description></description>
							<scene></scene>
							<shottake></shottake>
							<lognote></lognote>
						</logginginfo>
						<labels>
							<label2>Iris</label2>
						</labels>
					</clipitem>
					<clipitem id="clipitem-1417" premiereChannelType="stereo">
						<masterclipid>masterclip-323</masterclipid>
						<name>Nordvisjon3MASTER musikk.wav</name>
						<enabled>TRUE</enabled>
						<duration>43207</duration>
						<rate>
							<timebase>25</timebase>
							<ntsc>FALSE</ntsc>
						</rate>
						<start>97802</start>
						<end>97982</end>
						<in>13698</in>
						<out>13878</out>
						<pproTicksIn>139180446720000</pproTicksIn>
						<pproTicksOut>141009361920000</pproTicksOut>
						<file id="file-323"/>
						<sourcetrack>
							<mediatype>audio</mediatype>
							<trackindex>2</trackindex>
						</sourcetrack>
						<link>
							<linkclipref>clipitem-1385</linkclipref>
							<mediatype>audio</mediatype>
							<trackindex>14</trackindex>
							<clipindex>32</clipindex>
							<groupindex>1</groupindex>
						</link>
						<link>
							<linkclipref>clipitem-1417</linkclipref>
							<mediatype>audio</mediatype>
							<trackindex>15</trackindex>
							<clipindex>32</clipindex>
							<groupindex>1</groupindex>
						</link>
						<logginginfo>
							<description></description>
							<scene></scene>
							<shottake></shottake>
							<lognote></lognote>
						</logginginfo>
						<labels>
							<label2>Iris</label2>
						</labels>
					</clipitem>
					<clipitem id="clipitem-1418" premiereChannelType="stereo">
						<masterclipid>masterclip-323</masterclipid>
						<name>Nordvisjon3MASTER musikk.wav</name>
						<enabled>TRUE</enabled>
						<duration>43207</duration>
						<rate>
							<timebase>25</timebase>
							<ntsc>FALSE</ntsc>
						</rate>
						<start>98567</start>
						<end>100186</end>
						<in>41561</in>
						<out>43180</out>
						<pproTicksIn>422286359040000</pproTicksIn>
						<pproTicksOut>438736435200000</pproTicksOut>
						<file id="file-323"/>
						<sourcetrack>
							<mediatype>audio</mediatype>
							<trackindex>2</trackindex>
						</sourcetrack>
							<filter>
								<effect>
									<name>Audio Levels</name>
									<effectid>audiolevels</effectid>
									<effectcategory>audiolevels</effectcategory>
									<effecttype>audiolevels</effecttype>
									<mediatype>audio</mediatype>
									<parameter authoringApp="PremierePro">
										<parameterid>level</parameterid>
										<name>Level</name>
										<valuemin>0</valuemin>
										<valuemax>3.98109</valuemax>
										<value>0.99763</value>
										<keyframe>
											<when>42212</when>
											<value>0.99763</value>
										</keyframe>
										<keyframe>
											<when>42367</when>
											<value>0.615559</value>
										</keyframe>
										<keyframe>
											<when>42449</when>
											<value>0.393863</value>
										</keyframe>
										<keyframe>
											<when>42499</when>
											<value>0.184746</value>
										</keyframe>
										<keyframe>
											<when>42705</when>
											<value>0.184746</value>
										</keyframe>
										<keyframe>
											<when>42771</when>
											<value>0.554239</value>
										</keyframe>
									</parameter>
								</effect>
							</filter>
						<link>
							<linkclipref>clipitem-1386</linkclipref>
							<mediatype>audio</mediatype>
							<trackindex>14</trackindex>
							<clipindex>33</clipindex>
							<groupindex>1</groupindex>
						</link>
						<link>
							<linkclipref>clipitem-1418</linkclipref>
							<mediatype>audio</mediatype>
							<trackindex>15</trackindex>
							<clipindex>33</clipindex>
							<groupindex>1</groupindex>
						</link>
						<logginginfo>
							<description></description>
							<scene></scene>
							<shottake></shottake>
							<lognote></lognote>
						</logginginfo>
						<labels>
							<label2>Iris</label2>
						</labels>
					</clipitem>
					<clipitem id="clipitem-1419" premiereChannelType="stereo">
						<masterclipid>masterclip-11</masterclipid>
						<name>OWH Master 161123_.mov</name>
						<enabled>TRUE</enabled>
						<duration>86750</duration>
						<rate>
							<timebase>25</timebase>
							<ntsc>FALSE</ntsc>
						</rate>
						<start>100919</start>
						<end>102100</end>
						<in>61634</in>
						<out>62815</out>
						<pproTicksIn>626240885760000</pproTicksIn>
						<pproTicksOut>638240601600000</pproTicksOut>
						<file id="file-11"/>
						<sourcetrack>
							<mediatype>audio</mediatype>
							<trackindex>2</trackindex>
						</sourcetrack>
							<filter>
								<effect>
									<name>Audio Levels</name>
									<effectid>audiolevels</effectid>
									<effectcategory>audiolevels</effectcategory>
									<effecttype>audiolevels</effecttype>
									<mediatype>audio</mediatype>
									<parameter authoringApp="PremierePro">
										<parameterid>level</parameterid>
										<name>Level</name>
										<valuemin>0</valuemin>
										<valuemax>3.98109</valuemax>
										<value>0</value>
										<keyframe>
											<when>61634</when>
											<value>0</value>
										</keyframe>
										<keyframe>
											<when>61739</when>
											<value>0.99763</value>
										</keyframe>
										<keyframe>
											<when>62578</when>
											<value>0.99763</value>
										</keyframe>
										<keyframe>
											<when>62591</when>
											<value>0.620148</value>
										</keyframe>
										<keyframe>
											<when>62607</when>
											<value>0.278145</value>
										</keyframe>
										<keyframe>
											<when>62618</when>
											<value>0.121279</value>
										</keyframe>
										<keyframe>
											<when>62633</when>
											<value>0</value>
										</keyframe>
										<keyframe>
											<when>62650</when>
											<value>0</value>
										</keyframe>
										<keyframe>
											<when>62668</when>
											<value>0</value>
										</keyframe>
									</parameter>
								</effect>
							</filter>
						<link>
							<linkclipref>clipitem-245</linkclipref>
							<mediatype>video</mediatype>
							<trackindex>1</trackindex>
							<clipindex>255</clipindex>
						</link>
						<link>
							<linkclipref>clipitem-1387</linkclipref>
							<mediatype>audio</mediatype>
							<trackindex>14</trackindex>
							<clipindex>34</clipindex>
							<groupindex>1</groupindex>
						</link>
						<link>
							<linkclipref>clipitem-1419</linkclipref>
							<mediatype>audio</mediatype>
							<trackindex>15</trackindex>
							<clipindex>34</clipindex>
							<groupindex>1</groupindex>
						</link>
						<logginginfo>
							<description></description>
							<scene></scene>
							<shottake></shottake>
							<lognote></lognote>
						</logginginfo>
						<labels>
							<label2>Iris</label2>
						</labels>
					</clipitem>
					<enabled>TRUE</enabled>
					<locked>FALSE</locked>
					<outputchannelindex>2</outputchannelindex>
				</track>
				<track TL.SQTrackAudioKeyframeStyle="0" TL.SQTrackShy="0" TL.SQTrackExpandedHeight="58" TL.SQTrackExpanded="1" MZ.TrackTargeted="0" PannerCurrentValue="0.5" PannerIsInverted="true" PannerStartKeyframe="-91445760000000000,0.5,0,0,0,0,0,0" PannerName="Balance" currentExplodedTrackIndex="0" totalExplodedTrackCount="2" premiereTrackType="Stereo">
					<clipitem id="clipitem-1420" premiereChannelType="stereo">
						<masterclipid>masterclip-11</masterclipid>
						<name>OWH Master 161123_.mov</name>
						<enabled>TRUE</enabled>
						<duration>86750</duration>
						<rate>
							<timebase>25</timebase>
							<ntsc>FALSE</ntsc>
						</rate>
						<start>1035</start>
						<end>1677</end>
						<in>24288</in>
						<out>24930</out>
						<pproTicksIn>246781624320000</pproTicksIn>
						<pproTicksOut>253304755200000</pproTicksOut>
						<file id="file-11"/>
						<sourcetrack>
							<mediatype>audio</mediatype>
							<trackindex>1</trackindex>
						</sourcetrack>
							<filter>
								<effect>
									<name>Audio Levels</name>
									<effectid>audiolevels</effectid>
									<effectcategory>audiolevels</effectcategory>
									<effecttype>audiolevels</effecttype>
									<mediatype>audio</mediatype>
									<parameter authoringApp="PremierePro">
										<parameterid>level</parameterid>
										<name>Level</name>
										<valuemin>0</valuemin>
										<valuemax>3.98109</valuemax>
										<value>0</value>
										<keyframe>
											<when>24305</when>
											<value>0</value>
										</keyframe>
										<keyframe>
											<when>24321</when>
											<value>0</value>
										</keyframe>
										<keyframe>
											<when>24421</when>
											<value>0</value>
										</keyframe>
										<keyframe>
											<when>24435</when>
											<value>0.254371</value>
										</keyframe>
										<keyframe>
											<when>24445</when>
											<value>0.725549</value>
										</keyframe>
										<keyframe>
											<when>24473</when>
											<value>0.725549</value>
										</keyframe>
										<keyframe>
											<when>24510</when>
											<value>0.469473</value>
										</keyframe>
										<keyframe>
											<when>24745</when>
											<value>0.469473</value>
										</keyframe>
										<keyframe>
											<when>24762</when>
											<value>0.938946</value>
										</keyframe>
										<keyframe>
											<when>24847</when>
											<value>0.938946</value>
										</keyframe>
										<keyframe>
											<when>24862</when>
											<value>0.898258</value>
										</keyframe>
										<keyframe>
											<when>24895</when>
											<value>0</value>
										</keyframe>
										<keyframe>
											<when>25166</when>
											<value>0.938946</value>
										</keyframe>
										<keyframe>
											<when>25240</when>
											<value>0</value>
										</keyframe>
									</parameter>
								</effect>
							</filter>
						<link>
							<linkclipref>clipitem-14</linkclipref>
							<mediatype>video</mediatype>
							<trackindex>1</trackindex>
							<clipindex>14</clipindex>
						</link>
						<link>
							<linkclipref>clipitem-1420</linkclipref>
							<mediatype>audio</mediatype>
							<trackindex>16</trackindex>
							<clipindex>1</clipindex>
							<groupindex>1</groupindex>
						</link>
						<link>
							<linkclipref>clipitem-1448</linkclipref>
							<mediatype>audio</mediatype>
							<trackindex>17</trackindex>
							<clipindex>1</clipindex>
							<groupindex>1</groupindex>
						</link>
						<logginginfo>
							<description></description>
							<scene></scene>
							<shottake></shottake>
							<lognote></lognote>
						</logginginfo>
						<labels>
							<label2>Iris</label2>
						</labels>
					</clipitem>
					<clipitem id="clipitem-1421" premiereChannelType="stereo">
						<masterclipid>masterclip-330</masterclipid>
						<name>NATURLIGHELAFTEN-Clean.wav</name>
						<enabled>TRUE</enabled>
						<duration>151</duration>
						<rate>
							<timebase>25</timebase>
							<ntsc>FALSE</ntsc>
						</rate>
						<start>1765</start>
						<end>1895</end>
						<in>0</in>
						<out>130</out>
						<pproTicksIn>0</pproTicksIn>
						<pproTicksOut>1320883200000</pproTicksOut>
						<file id="file-330"/>
						<sourcetrack>
							<mediatype>audio</mediatype>
							<trackindex>1</trackindex>
						</sourcetrack>
							<filter>
								<effect>
									<name>Audio Levels</name>
									<effectid>audiolevels</effectid>
									<effectcategory>audiolevels</effectcategory>
									<effecttype>audiolevels</effecttype>
									<mediatype>audio</mediatype>
									<parameter authoringApp="PremierePro">
										<parameterid>level</parameterid>
										<name>Level</name>
										<valuemin>0</valuemin>
										<valuemax>3.98109</valuemax>
										<value>0.180092</value>
									</parameter>
								</effect>
							</filter>
						<link>
							<linkclipref>clipitem-1421</linkclipref>
							<mediatype>audio</mediatype>
							<trackindex>16</trackindex>
							<clipindex>2</clipindex>
							<groupindex>1</groupindex>
						</link>
						<link>
							<linkclipref>clipitem-1449</linkclipref>
							<mediatype>audio</mediatype>
							<trackindex>17</trackindex>
							<clipindex>2</clipindex>
							<groupindex>1</groupindex>
						</link>
						<logginginfo>
							<description></description>
							<scene></scene>
							<shottake></shottake>
							<lognote></lognote>
						</logginginfo>
						<labels>
							<label2>Iris</label2>
						</labels>
					</clipitem>
					<clipitem id="clipitem-1422" premiereChannelType="stereo">
						<masterclipid>masterclip-330</masterclipid>
						<name>NATURLIGHELAFTEN-Clean.wav</name>
						<enabled>TRUE</enabled>
						<duration>151</duration>
						<rate>
							<timebase>25</timebase>
							<ntsc>FALSE</ntsc>
						</rate>
						<start>2066</start>
						<end>2196</end>
						<in>0</in>
						<out>130</out>
						<pproTicksIn>0</pproTicksIn>
						<pproTicksOut>1320883200000</pproTicksOut>
						<file id="file-330"/>
						<sourcetrack>
							<mediatype>audio</mediatype>
							<trackindex>1</trackindex>
						</sourcetrack>
							<filter>
								<effect>
									<name>Audio Levels</name>
									<effectid>audiolevels</effectid>
									<effectcategory>audiolevels</effectcategory>
									<effecttype>audiolevels</effecttype>
									<mediatype>audio</mediatype>
									<parameter authoringApp="PremierePro">
										<parameterid>level</parameterid>
										<name>Level</name>
										<valuemin>0</valuemin>
										<valuemax>3.98109</valuemax>
										<value>0.180092</value>
									</parameter>
								</effect>
							</filter>
						<link>
							<linkclipref>clipitem-1422</linkclipref>
							<mediatype>audio</mediatype>
							<trackindex>16</trackindex>
							<clipindex>3</clipindex>
							<groupindex>1</groupindex>
						</link>
						<link>
							<linkclipref>clipitem-1450</linkclipref>
							<mediatype>audio</mediatype>
							<trackindex>17</trackindex>
							<clipindex>3</clipindex>
							<groupindex>1</groupindex>
						</link>
						<logginginfo>
							<description></description>
							<scene></scene>
							<shottake></shottake>
							<lognote></lognote>
						</logginginfo>
						<labels>
							<label2>Iris</label2>
						</labels>
					</clipitem>
					<clipitem id="clipitem-1423" premiereChannelType="stereo">
						<masterclipid>masterclip-330</masterclipid>
						<name>NATURLIGHELAFTEN-Clean.wav</name>
						<enabled>TRUE</enabled>
						<duration>151</duration>
						<rate>
							<timebase>25</timebase>
							<ntsc>FALSE</ntsc>
						</rate>
						<start>3527</start>
						<end>3657</end>
						<in>0</in>
						<out>130</out>
						<pproTicksIn>0</pproTicksIn>
						<pproTicksOut>1320883200000</pproTicksOut>
						<file id="file-330"/>
						<sourcetrack>
							<mediatype>audio</mediatype>
							<trackindex>1</trackindex>
						</sourcetrack>
							<filter>
								<effect>
									<name>Audio Levels</name>
									<effectid>audiolevels</effectid>
									<effectcategory>audiolevels</effectcategory>
									<effecttype>audiolevels</effecttype>
									<mediatype>audio</mediatype>
									<parameter authoringApp="PremierePro">
										<parameterid>level</parameterid>
										<name>Level</name>
										<valuemin>0</valuemin>
										<valuemax>3.98109</valuemax>
										<value>0.121141</value>
									</parameter>
								</effect>
							</filter>
						<link>
							<linkclipref>clipitem-1423</linkclipref>
							<mediatype>audio</mediatype>
							<trackindex>16</trackindex>
							<clipindex>4</clipindex>
							<groupindex>1</groupindex>
						</link>
						<link>
							<linkclipref>clipitem-1451</linkclipref>
							<mediatype>audio</mediatype>
							<trackindex>17</trackindex>
							<clipindex>4</clipindex>
							<groupindex>1</groupindex>
						</link>
						<logginginfo>
							<description></description>
							<scene></scene>
							<shottake></shottake>
							<lognote></lognote>
						</logginginfo>
						<labels>
							<label2>Iris</label2>
						</labels>
					</clipitem>
					<clipitem id="clipitem-1424" premiereChannelType="stereo">
						<masterclipid>masterclip-330</masterclipid>
						<name>NATURLIGHELAFTEN-Clean.wav</name>
						<enabled>TRUE</enabled>
						<duration>151</duration>
						<rate>
							<timebase>25</timebase>
							<ntsc>FALSE</ntsc>
						</rate>
						<start>7083</start>
						<end>7232</end>
						<in>0</in>
						<out>149</out>
						<pproTicksIn>0</pproTicksIn>
						<pproTicksOut>1513935360000</pproTicksOut>
						<file id="file-330"/>
						<sourcetrack>
							<mediatype>audio</mediatype>
							<trackindex>1</trackindex>
						</sourcetrack>
							<filter>
								<effect>
									<name>Audio Levels</name>
									<effectid>audiolevels</effectid>
									<effectcategory>audiolevels</effectcategory>
									<effecttype>audiolevels</effecttype>
									<mediatype>audio</mediatype>
									<parameter authoringApp="PremierePro">
										<parameterid>level</parameterid>
										<name>Level</name>
										<valuemin>0</valuemin>
										<valuemax>3.98109</valuemax>
										<value>0.243865</value>
									</parameter>
								</effect>
							</filter>
						<link>
							<linkclipref>clipitem-1424</linkclipref>
							<mediatype>audio</mediatype>
							<trackindex>16</trackindex>
							<clipindex>5</clipindex>
							<groupindex>1</groupindex>
						</link>
						<link>
							<linkclipref>clipitem-1452</linkclipref>
							<mediatype>audio</mediatype>
							<trackindex>17</trackindex>
							<clipindex>5</clipindex>
							<groupindex>1</groupindex>
						</link>
						<logginginfo>
							<description></description>
							<scene></scene>
							<shottake></shottake>
							<lognote></lognote>
						</logginginfo>
						<labels>
							<label2>Iris</label2>
						</labels>
					</clipitem>
					<clipitem id="clipitem-1425" premiereChannelType="stereo">
						<masterclipid>masterclip-330</masterclipid>
						<name>NATURLIGHELAFTEN-Clean.wav</name>
						<enabled>TRUE</enabled>
						<duration>151</duration>
						<rate>
							<timebase>25</timebase>
							<ntsc>FALSE</ntsc>
						</rate>
						<start>8870</start>
						<end>9021</end>
						<in>0</in>
						<out>151</out>
						<pproTicksIn>0</pproTicksIn>
						<pproTicksOut>1534256640000</pproTicksOut>
						<file id="file-330"/>
						<sourcetrack>
							<mediatype>audio</mediatype>
							<trackindex>1</trackindex>
						</sourcetrack>
							<filter>
								<effect>
									<name>Audio Levels</name>
									<effectid>audiolevels</effectid>
									<effectcategory>audiolevels</effectcategory>
									<effecttype>audiolevels</effecttype>
									<mediatype>audio</mediatype>
									<parameter authoringApp="PremierePro">
										<parameterid>level</parameterid>
										<name>Level</name>
										<valuemin>0</valuemin>
										<valuemax>3.98109</valuemax>
										<value>0.361767</value>
									</parameter>
								</effect>
							</filter>
						<link>
							<linkclipref>clipitem-1425</linkclipref>
							<mediatype>audio</mediatype>
							<trackindex>16</trackindex>
							<clipindex>6</clipindex>
							<groupindex>1</groupindex>
						</link>
						<link>
							<linkclipref>clipitem-1453</linkclipref>
							<mediatype>audio</mediatype>
							<trackindex>17</trackindex>
							<clipindex>6</clipindex>
							<groupindex>1</groupindex>
						</link>
						<logginginfo>
							<description></description>
							<scene></scene>
							<shottake></shottake>
							<lognote></lognote>
						</logginginfo>
						<labels>
							<label2>Iris</label2>
						</labels>
					</clipitem>
					<clipitem id="clipitem-1426" premiereChannelType="stereo">
						<masterclipid>masterclip-330</masterclipid>
						<name>NATURLIGHELAFTEN-Clean.wav</name>
						<enabled>TRUE</enabled>
						<duration>151</duration>
						<rate>
							<timebase>25</timebase>
							<ntsc>FALSE</ntsc>
						</rate>
						<start>10447</start>
						<end>10598</end>
						<in>0</in>
						<out>151</out>
						<pproTicksIn>0</pproTicksIn>
						<pproTicksOut>1534256640000</pproTicksOut>
						<file id="file-330"/>
						<sourcetrack>
							<mediatype>audio</mediatype>
							<trackindex>1</trackindex>
						</sourcetrack>
							<filter>
								<effect>
									<name>Audio Levels</name>
									<effectid>audiolevels</effectid>
									<effectcategory>audiolevels</effectcategory>
									<effecttype>audiolevels</effecttype>
									<mediatype>audio</mediatype>
									<parameter authoringApp="PremierePro">
										<parameterid>level</parameterid>
										<name>Level</name>
										<valuemin>0</valuemin>
										<valuemax>3.98109</valuemax>
										<value>0.271073</value>
									</parameter>
								</effect>
							</filter>
						<link>
							<linkclipref>clipitem-1426</linkclipref>
							<mediatype>audio</mediatype>
							<trackindex>16</trackindex>
							<clipindex>7</clipindex>
							<groupindex>1</groupindex>
						</link>
						<link>
							<linkclipref>clipitem-1454</linkclipref>
							<mediatype>audio</mediatype>
							<trackindex>17</trackindex>
							<clipindex>7</clipindex>
							<groupindex>1</groupindex>
						</link>
						<logginginfo>
							<description></description>
							<scene></scene>
							<shottake></shottake>
							<lognote></lognote>
						</logginginfo>
						<labels>
							<label2>Iris</label2>
						</labels>
					</clipitem>
					<clipitem id="clipitem-1427" premiereChannelType="stereo">
						<masterclipid>masterclip-330</masterclipid>
						<name>NATURLIGHELAFTEN-Clean.wav</name>
						<enabled>TRUE</enabled>
						<duration>151</duration>
						<rate>
							<timebase>25</timebase>
							<ntsc>FALSE</ntsc>
						</rate>
						<start>16391</start>
						<end>16513</end>
						<in>0</in>
						<out>122</out>
						<pproTicksIn>0</pproTicksIn>
						<pproTicksOut>1239598080000</pproTicksOut>
						<file id="file-330"/>
						<sourcetrack>
							<mediatype>audio</mediatype>
							<trackindex>1</trackindex>
						</sourcetrack>
							<filter>
								<effect>
									<name>Audio Levels</name>
									<effectid>audiolevels</effectid>
									<effectcategory>audiolevels</effectcategory>
									<effecttype>audiolevels</effecttype>
									<mediatype>audio</mediatype>
									<parameter authoringApp="PremierePro">
										<parameterid>level</parameterid>
										<name>Level</name>
										<valuemin>0</valuemin>
										<valuemax>3.98109</valuemax>
										<value>0.39351</value>
									</parameter>
								</effect>
							</filter>
						<link>
							<linkclipref>clipitem-1427</linkclipref>
							<mediatype>audio</mediatype>
							<trackindex>16</trackindex>
							<clipindex>8</clipindex>
							<groupindex>1</groupindex>
						</link>
						<link>
							<linkclipref>clipitem-1455</linkclipref>
							<mediatype>audio</mediatype>
							<trackindex>17</trackindex>
							<clipindex>8</clipindex>
							<groupindex>1</groupindex>
						</link>
						<logginginfo>
							<description></description>
							<scene></scene>
							<shottake></shottake>
							<lognote></lognote>
						</logginginfo>
						<labels>
							<label2>Iris</label2>
						</labels>
					</clipitem>
					<clipitem id="clipitem-1428" premiereChannelType="stereo">
						<masterclipid>masterclip-330</masterclipid>
						<name>NATURLIGHELAFTEN-Clean.wav</name>
						<enabled>TRUE</enabled>
						<duration>151</duration>
						<rate>
							<timebase>25</timebase>
							<ntsc>FALSE</ntsc>
						</rate>
						<start>17995</start>
						<end>18146</end>
						<in>0</in>
						<out>151</out>
						<pproTicksIn>0</pproTicksIn>
						<pproTicksOut>1534256640000</pproTicksOut>
						<file id="file-330"/>
						<sourcetrack>
							<mediatype>audio</mediatype>
							<trackindex>1</trackindex>
						</sourcetrack>
							<filter>
								<effect>
									<name>Audio Levels</name>
									<effectid>audiolevels</effectid>
									<effectcategory>audiolevels</effectcategory>
									<effecttype>audiolevels</effecttype>
									<mediatype>audio</mediatype>
									<parameter authoringApp="PremierePro">
										<parameterid>level</parameterid>
										<name>Level</name>
										<valuemin>0</valuemin>
										<valuemax>3.98109</valuemax>
										<value>0.271073</value>
									</parameter>
								</effect>
							</filter>
						<link>
							<linkclipref>clipitem-1428</linkclipref>
							<mediatype>audio</mediatype>
							<trackindex>16</trackindex>
							<clipindex>9</clipindex>
							<groupindex>1</groupindex>
						</link>
						<link>
							<linkclipref>clipitem-1456</linkclipref>
							<mediatype>audio</mediatype>
							<trackindex>17</trackindex>
							<clipindex>9</clipindex>
							<groupindex>1</groupindex>
						</link>
						<logginginfo>
							<description></description>
							<scene></scene>
							<shottake></shottake>
							<lognote></lognote>
						</logginginfo>
						<labels>
							<label2>Iris</label2>
						</labels>
					</clipitem>
					<clipitem id="clipitem-1429" premiereChannelType="stereo">
						<masterclipid>masterclip-330</masterclipid>
						<name>NATURLIGHELAFTEN-Clean.wav</name>
						<enabled>TRUE</enabled>
						<duration>151</duration>
						<rate>
							<timebase>25</timebase>
							<ntsc>FALSE</ntsc>
						</rate>
						<start>19537</start>
						<end>19688</end>
						<in>0</in>
						<out>151</out>
						<pproTicksIn>0</pproTicksIn>
						<pproTicksOut>1534256640000</pproTicksOut>
						<file id="file-330"/>
						<sourcetrack>
							<mediatype>audio</mediatype>
							<trackindex>1</trackindex>
						</sourcetrack>
							<filter>
								<effect>
									<name>Audio Levels</name>
									<effectid>audiolevels</effectid>
									<effectcategory>audiolevels</effectcategory>
									<effecttype>audiolevels</effecttype>
									<mediatype>audio</mediatype>
									<parameter authoringApp="PremierePro">
										<parameterid>level</parameterid>
										<name>Level</name>
										<valuemin>0</valuemin>
										<valuemax>3.98109</valuemax>
										<value>0.273524</value>
									</parameter>
								</effect>
							</filter>
						<link>
							<linkclipref>clipitem-1429</linkclipref>
							<mediatype>audio</mediatype>
							<trackindex>16</trackindex>
							<clipindex>10</clipindex>
							<groupindex>1</groupindex>
						</link>
						<link>
							<linkclipref>clipitem-1457</linkclipref>
							<mediatype>audio</mediatype>
							<trackindex>17</trackindex>
							<clipindex>10</clipindex>
							<groupindex>1</groupindex>
						</link>
						<logginginfo>
							<description></description>
							<scene></scene>
							<shottake></shottake>
							<lognote></lognote>
						</logginginfo>
						<labels>
							<label2>Iris</label2>
						</labels>
					</clipitem>
					<clipitem id="clipitem-1430" premiereChannelType="stereo">
						<masterclipid>masterclip-334</masterclipid>
						<name>AUXMP_SCDV055566_UPBEAT_PEOPLE_A.wav</name>
						<enabled>TRUE</enabled>
						<duration>2784</duration>
						<rate>
							<timebase>25</timebase>
							<ntsc>FALSE</ntsc>
						</rate>
						<start>24558</start>
						<end>26105</end>
						<in>0</in>
						<out>1547</out>
						<pproTicksIn>0</pproTicksIn>
						<pproTicksOut>15718510080000</pproTicksOut>
						<file id="file-334">
							<name>AUXMP_SCDV055566_UPBEAT_PEOPLE_A.wav</name>
							<pathurl>file://localhost/Volumes/Vaagen/Utveksling/Natur/Naturlig%20helaften%20fra%20Oslo/Copied_Copy%20of%20En%20Helaften%20MASTER_002/AUXMP_SCDV055566_UPBEAT_PEOPLE_A.wav</pathurl>
							<rate>
								<timebase>30</timebase>
								<ntsc>TRUE</ntsc>
							</rate>
							<duration>3337</duration>
							<timecode>
								<rate>
									<timebase>30</timebase>
									<ntsc>TRUE</ntsc>
								</rate>
								<string>01;22;16;27</string>
								<frame>147959</frame>
								<displayformat>DF</displayformat>
								<reel>
									<name></name>
								</reel>
							</timecode>
							<media>
								<audio>
									<samplecharacteristics>
										<depth>16</depth>
										<samplerate>48000</samplerate>
									</samplecharacteristics>
									<channelcount>2</channelcount>
								</audio>
							</media>
						</file>
						<sourcetrack>
							<mediatype>audio</mediatype>
							<trackindex>1</trackindex>
						</sourcetrack>
							<filter>
								<effect>
									<name>Audio Levels</name>
									<effectid>audiolevels</effectid>
									<effectcategory>audiolevels</effectcategory>
									<effecttype>audiolevels</effecttype>
									<mediatype>audio</mediatype>
									<parameter authoringApp="PremierePro">
										<parameterid>level</parameterid>
										<name>Level</name>
										<valuemin>0</valuemin>
										<valuemax>3.98109</valuemax>
										<value>0</value>
										<keyframe>
											<when>83</when>
											<value>0.233488</value>
										</keyframe>
										<keyframe>
											<when>167</when>
											<value>0.0636785</value>
										</keyframe>
										<keyframe>
											<when>197</when>
											<value>0.0212262</value>
										</keyframe>
										<keyframe>
											<when>364</when>
											<value>0.0212262</value>
										</keyframe>
										<keyframe>
											<when>451</when>
											<value>0</value>
										</keyframe>
										<keyframe>
											<when>518</when>
											<value>0</value>
										</keyframe>
										<keyframe>
											<when>541</when>
											<value>0</value>
										</keyframe>
										<keyframe>
											<when>773</when>
											<value>0</value>
										</keyframe>
										<keyframe>
											<when>1109</when>
											<value>0</value>
										</keyframe>
									</parameter>
								</effect>
							</filter>
						<link>
							<linkclipref>clipitem-1430</linkclipref>
							<mediatype>audio</mediatype>
							<trackindex>16</trackindex>
							<clipindex>11</clipindex>
							<groupindex>1</groupindex>
						</link>
						<link>
							<linkclipref>clipitem-1458</linkclipref>
							<mediatype>audio</mediatype>
							<trackindex>17</trackindex>
							<clipindex>11</clipindex>
							<groupindex>1</groupindex>
						</link>
						<logginginfo>
							<description></description>
							<scene></scene>
							<shottake></shottake>
							<lognote></lognote>
						</logginginfo>
						<labels>
							<label2>Iris</label2>
						</labels>
					</clipitem>
					<clipitem id="clipitem-1431" premiereChannelType="stereo">
						<masterclipid>masterclip-334</masterclipid>
						<name>AUXMP_SCDV055566_UPBEAT_PEOPLE_A.wav</name>
						<enabled>TRUE</enabled>
						<duration>2784</duration>
						<rate>
							<timebase>25</timebase>
							<ntsc>FALSE</ntsc>
						</rate>
						<start>26270</start>
						<end>26677</end>
						<in>2377</in>
						<out>2784</out>
						<pproTicksIn>24151841280000</pproTicksIn>
						<pproTicksOut>28287221760000</pproTicksOut>
						<file id="file-334"/>
						<sourcetrack>
							<mediatype>audio</mediatype>
							<trackindex>1</trackindex>
						</sourcetrack>
							<filter>
								<effect>
									<name>Audio Levels</name>
									<effectid>audiolevels</effectid>
									<effectcategory>audiolevels</effectcategory>
									<effecttype>audiolevels</effecttype>
									<mediatype>audio</mediatype>
									<parameter authoringApp="PremierePro">
										<parameterid>level</parameterid>
										<name>Level</name>
										<valuemin>0</valuemin>
										<valuemax>3.98109</valuemax>
										<value>0.239356</value>
										<keyframe>
											<when>83</when>
											<value>0.233488</value>
										</keyframe>
										<keyframe>
											<when>167</when>
											<value>0.0636785</value>
										</keyframe>
										<keyframe>
											<when>197</when>
											<value>0.0212262</value>
										</keyframe>
										<keyframe>
											<when>364</when>
											<value>0.0212262</value>
										</keyframe>
										<keyframe>
											<when>451</when>
											<value>0</value>
										</keyframe>
										<keyframe>
											<when>518</when>
											<value>0</value>
										</keyframe>
										<keyframe>
											<when>541</when>
											<value>0</value>
										</keyframe>
										<keyframe>
											<when>773</when>
											<value>0</value>
										</keyframe>
										<keyframe>
											<when>1109</when>
											<value>0.455059</value>
										</keyframe>
										<keyframe>
											<when>2379</when>
											<value>0</value>
										</keyframe>
										<keyframe>
											<when>2520</when>
											<value>0.0166343</value>
										</keyframe>
										<keyframe>
											<when>2577</when>
											<value>0.239356</value>
										</keyframe>
									</parameter>
								</effect>
							</filter>
						<link>
							<linkclipref>clipitem-1431</linkclipref>
							<mediatype>audio</mediatype>
							<trackindex>16</trackindex>
							<clipindex>12</clipindex>
							<groupindex>1</groupindex>
						</link>
						<link>
							<linkclipref>clipitem-1459</linkclipref>
							<mediatype>audio</mediatype>
							<trackindex>17</trackindex>
							<clipindex>12</clipindex>
							<groupindex>1</groupindex>
						</link>
						<logginginfo>
							<description></description>
							<scene></scene>
							<shottake></shottake>
							<lognote></lognote>
						</logginginfo>
						<labels>
							<label2>Iris</label2>
						</labels>
					</clipitem>
					<clipitem id="clipitem-1432" premiereChannelType="stereo">
						<masterclipid>masterclip-72</masterclipid>
						<name>DNPR65008515AA</name>
						<enabled>TRUE</enabled>
						<duration>89053</duration>
						<rate>
							<timebase>25</timebase>
							<ntsc>FALSE</ntsc>
						</rate>
						<start>28075</start>
						<end>28208</end>
						<in>44829</in>
						<out>44962</out>
						<pproTicksIn>455491330560000</pproTicksIn>
						<pproTicksOut>456842695680000</pproTicksOut>
						<file id="file-72"/>
						<sourcetrack>
							<mediatype>audio</mediatype>
							<trackindex>1</trackindex>
						</sourcetrack>
						<link>
							<linkclipref>clipitem-1432</linkclipref>
							<mediatype>audio</mediatype>
							<trackindex>16</trackindex>
							<clipindex>13</clipindex>
							<groupindex>1</groupindex>
						</link>
						<link>
							<linkclipref>clipitem-1460</linkclipref>
							<mediatype>audio</mediatype>
							<trackindex>17</trackindex>
							<clipindex>13</clipindex>
							<groupindex>1</groupindex>
						</link>
						<logginginfo>
							<description>Et eventyr gjennom linsa</description>
							<scene></scene>
							<shottake></shottake>
							<lognote></lognote>
						</logginginfo>
						<labels>
							<label2>Iris</label2>
						</labels>
					</clipitem>
					<clipitem id="clipitem-1433" premiereChannelType="stereo">
						<masterclipid>masterclip-335</masterclipid>
						<name>Daylight.mp3</name>
						<enabled>TRUE</enabled>
						<duration>4201</duration>
						<rate>
							<timebase>25</timebase>
							<ntsc>FALSE</ntsc>
						</rate>
						<start>35363</start>
						<end>36261</end>
						<in>2951</in>
						<out>3849</out>
						<pproTicksIn>29984048640000</pproTicksIn>
						<pproTicksOut>39108303360000</pproTicksOut>
						<file id="file-335">
							<name>Daylight.mp3</name>
							<pathurl>file://localhost/Volumes/Svartediket/Prosjekter/DVNA600216_HELAFTEN2016_FAL_010217/Video/Trailere2017/Asgeir-Isbre/Daylight.mp3</pathurl>
							<rate>
								<timebase>30</timebase>
								<ntsc>TRUE</ntsc>
							</rate>
							<duration>5036</duration>
							<timecode>
								<rate>
									<timebase>30</timebase>
									<ntsc>TRUE</ntsc>
								</rate>
								<string>00;00;00;00</string>
								<frame>0</frame>
								<displayformat>DF</displayformat>
								<reel>
									<name></name>
								</reel>
							</timecode>
							<media>
								<audio>
									<samplecharacteristics>
										<depth>16</depth>
										<samplerate>48000</samplerate>
									</samplecharacteristics>
									<channelcount>2</channelcount>
								</audio>
							</media>
						</file>
						<sourcetrack>
							<mediatype>audio</mediatype>
							<trackindex>1</trackindex>
						</sourcetrack>
							<filter>
								<effect>
									<name>Audio Levels</name>
									<effectid>audiolevels</effectid>
									<effectcategory>audiolevels</effectcategory>
									<effecttype>audiolevels</effecttype>
									<mediatype>audio</mediatype>
									<parameter authoringApp="PremierePro">
										<parameterid>level</parameterid>
										<name>Level</name>
										<valuemin>0</valuemin>
										<valuemax>3.98109</valuemax>
										<value>0</value>
										<keyframe>
											<when>2953</when>
											<value>0</value>
										</keyframe>
										<keyframe>
											<when>2973</when>
											<value>0.65945</value>
										</keyframe>
										<keyframe>
											<when>3439</when>
											<value>0.65945</value>
										</keyframe>
										<keyframe>
											<when>3505</when>
											<value>0.673702</value>
										</keyframe>
										<keyframe>
											<when>3564</when>
											<value>0.390115</value>
										</keyframe>
										<keyframe>
											<when>3608</when>
											<value>0.0739394</value>
										</keyframe>
										<keyframe>
											<when>3667</when>
											<value>0</value>
										</keyframe>
										<keyframe>
											<when>3829</when>
											<value>0</value>
										</keyframe>
									</parameter>
								</effect>
							</filter>
						<link>
							<linkclipref>clipitem-1433</linkclipref>
							<mediatype>audio</mediatype>
							<trackindex>16</trackindex>
							<clipindex>14</clipindex>
							<groupindex>1</groupindex>
						</link>
						<link>
							<linkclipref>clipitem-1461</linkclipref>
							<mediatype>audio</mediatype>
							<trackindex>17</trackindex>
							<clipindex>14</clipindex>
							<groupindex>1</groupindex>
						</link>
						<logginginfo>
							<description></description>
							<scene></scene>
							<shottake></shottake>
							<lognote></lognote>
						</logginginfo>
						<labels>
							<label2>Caribbean</label2>
						</labels>
					</clipitem>
					<clipitem id="clipitem-1434" premiereChannelType="stereo">
						<masterclipid>masterclip-336</masterclipid>
						<name>AUXMP_SCDV034403_STRINGS_POSITIVE_C.wav</name>
						<enabled>TRUE</enabled>
						<duration>5044</duration>
						<rate>
							<timebase>25</timebase>
							<ntsc>FALSE</ntsc>
						</rate>
						<start>37276</start>
						<end>38237</end>
						<in>189</in>
						<out>1150</out>
						<pproTicksIn>1920360960000</pproTicksIn>
						<pproTicksOut>11684736000000</pproTicksOut>
						<file id="file-336">
							<name>AUXMP_SCDV034403_STRINGS_POSITIVE_C.wav</name>
							<pathurl>file://localhost/Volumes/Vaagen/Prosjekter/DVNA210116_Horn%c3%b8ya_Nordvisjonen_010317_TGP/Bakomfilm/Musikk/AUXMP_SCDV034403_STRINGS_POSITIVE_C.wav</pathurl>
							<rate>
								<timebase>30</timebase>
								<ntsc>TRUE</ntsc>
							</rate>
							<duration>6047</duration>
							<timecode>
								<rate>
									<timebase>30</timebase>
									<ntsc>TRUE</ntsc>
								</rate>
								<string>00;05;04;06</string>
								<frame>9116</frame>
								<displayformat>DF</displayformat>
								<reel>
									<name></name>
								</reel>
							</timecode>
							<media>
								<audio>
									<samplecharacteristics>
										<depth>16</depth>
										<samplerate>48000</samplerate>
									</samplecharacteristics>
									<channelcount>2</channelcount>
								</audio>
							</media>
						</file>
						<sourcetrack>
							<mediatype>audio</mediatype>
							<trackindex>1</trackindex>
						</sourcetrack>
							<filter>
								<effect>
									<name>Gain</name>
									<effectid>{61756678, 4761696e, 4b657947}</effectid>
									<effecttype>filter</effecttype>
									<mediatype>audio</mediatype>
									<parameter authoringApp="PremierePro">
										<parameterid>Gain(dB)</parameterid>
										<name>Gain(dB)</name>
										<valuemin>-96</valuemin>
										<valuemax>96</valuemax>
										<value>-5</value>
									</parameter>
								</effect>
							</filter>
							<filter>
								<effect>
									<name>Audio Levels</name>
									<effectid>audiolevels</effectid>
									<effectcategory>audiolevels</effectcategory>
									<effecttype>audiolevels</effecttype>
									<mediatype>audio</mediatype>
									<parameter authoringApp="PremierePro">
										<parameterid>level</parameterid>
										<name>Level</name>
										<valuemin>0</valuemin>
										<valuemax>3.98109</valuemax>
										<value>0</value>
										<keyframe>
											<when>236</when>
											<value>0.106131</value>
										</keyframe>
										<keyframe>
											<when>289</when>
											<value>0.700464</value>
										</keyframe>
										<keyframe>
											<when>798</when>
											<value>0.700464</value>
										</keyframe>
										<keyframe>
											<when>898</when>
											<value>0.233488</value>
										</keyframe>
										<keyframe>
											<when>944</when>
											<value>0.106131</value>
										</keyframe>
										<keyframe>
											<when>1068</when>
											<value>0</value>
										</keyframe>
									</parameter>
								</effect>
							</filter>
						<link>
							<linkclipref>clipitem-1434</linkclipref>
							<mediatype>audio</mediatype>
							<trackindex>16</trackindex>
							<clipindex>15</clipindex>
							<groupindex>1</groupindex>
						</link>
						<link>
							<linkclipref>clipitem-1462</linkclipref>
							<mediatype>audio</mediatype>
							<trackindex>17</trackindex>
							<clipindex>15</clipindex>
							<groupindex>1</groupindex>
						</link>
						<logginginfo>
							<description></description>
							<scene></scene>
							<shottake></shottake>
							<lognote></lognote>
						</logginginfo>
						<labels>
							<label2>Iris</label2>
						</labels>
					</clipitem>
					<clipitem id="clipitem-1435" premiereChannelType="stereo">
						<masterclipid>masterclip-336</masterclipid>
						<name>AUXMP_SCDV034403_STRINGS_POSITIVE_C.wav</name>
						<enabled>TRUE</enabled>
						<duration>5044</duration>
						<rate>
							<timebase>25</timebase>
							<ntsc>FALSE</ntsc>
						</rate>
						<start>44322</start>
						<end>45442</end>
						<in>0</in>
						<out>1120</out>
						<pproTicksIn>0</pproTicksIn>
						<pproTicksOut>11379916800000</pproTicksOut>
						<file id="file-336"/>
						<sourcetrack>
							<mediatype>audio</mediatype>
							<trackindex>1</trackindex>
						</sourcetrack>
							<filter>
								<effect>
									<name>Gain</name>
									<effectid>{61756678, 4761696e, 4b657947}</effectid>
									<effecttype>filter</effecttype>
									<mediatype>audio</mediatype>
									<parameter authoringApp="PremierePro">
										<parameterid>Gain(dB)</parameterid>
										<name>Gain(dB)</name>
										<valuemin>-96</valuemin>
										<valuemax>96</valuemax>
										<value>-5</value>
									</parameter>
								</effect>
							</filter>
							<filter>
								<effect>
									<name>Audio Levels</name>
									<effectid>audiolevels</effectid>
									<effectcategory>audiolevels</effectcategory>
									<effecttype>audiolevels</effecttype>
									<mediatype>audio</mediatype>
									<parameter authoringApp="PremierePro">
										<parameterid>level</parameterid>
										<name>Level</name>
										<valuemin>0</valuemin>
										<valuemax>3.98109</valuemax>
										<value>0</value>
										<keyframe>
											<when>57</when>
											<value>0.0424523</value>
										</keyframe>
										<keyframe>
											<when>219</when>
											<value>0.658011</value>
										</keyframe>
										<keyframe>
											<when>316</when>
											<value>0.615559</value>
										</keyframe>
										<keyframe>
											<when>333</when>
											<value>0.99763</value>
										</keyframe>
										<keyframe>
											<when>806</when>
											<value>0.99763</value>
										</keyframe>
										<keyframe>
											<when>895</when>
											<value>0.44575</value>
										</keyframe>
										<keyframe>
											<when>1049</when>
											<value>0</value>
										</keyframe>
									</parameter>
								</effect>
							</filter>
						<link>
							<linkclipref>clipitem-1435</linkclipref>
							<mediatype>audio</mediatype>
							<trackindex>16</trackindex>
							<clipindex>16</clipindex>
							<groupindex>1</groupindex>
						</link>
						<link>
							<linkclipref>clipitem-1463</linkclipref>
							<mediatype>audio</mediatype>
							<trackindex>17</trackindex>
							<clipindex>16</clipindex>
							<groupindex>1</groupindex>
						</link>
						<logginginfo>
							<description></description>
							<scene></scene>
							<shottake></shottake>
							<lognote></lognote>
						</logginginfo>
						<labels>
							<label2>Iris</label2>
						</labels>
					</clipitem>
					<clipitem id="clipitem-1436" premiereChannelType="stereo">
						<masterclipid>masterclip-337</masterclipid>
						<name>AUXMP_MML017401_LONE_TRAVELLER.wav</name>
						<enabled>TRUE</enabled>
						<duration>6082</duration>
						<rate>
							<timebase>25</timebase>
							<ntsc>FALSE</ntsc>
						</rate>
						<start>52088</start>
						<end>53045</end>
						<in>168</in>
						<out>1125</out>
						<pproTicksIn>1706987520000</pproTicksIn>
						<pproTicksOut>11430720000000</pproTicksOut>
						<file id="file-337">
							<name>AUXMP_MML017401_LONE_TRAVELLER.wav</name>
							<pathurl>file://localhost/Volumes/Vaagen/Prosjekter/DVNA210116_Horn%c3%b8ya_Nordvisjonen_010317_TGP/Bakomfilm/Musikk/AUXMP_MML017401_LONE_TRAVELLER.wav</pathurl>
							<rate>
								<timebase>30</timebase>
								<ntsc>TRUE</ntsc>
							</rate>
							<duration>7291</duration>
							<timecode>
								<rate>
									<timebase>30</timebase>
									<ntsc>TRUE</ntsc>
								</rate>
								<string>00;00;00;00</string>
								<frame>0</frame>
								<displayformat>DF</displayformat>
								<reel>
									<name></name>
								</reel>
							</timecode>
							<media>
								<audio>
									<samplecharacteristics>
										<depth>16</depth>
										<samplerate>48000</samplerate>
									</samplecharacteristics>
									<channelcount>2</channelcount>
								</audio>
							</media>
						</file>
						<sourcetrack>
							<mediatype>audio</mediatype>
							<trackindex>1</trackindex>
						</sourcetrack>
							<filter>
								<effect>
									<name>Gain</name>
									<effectid>{61756678, 4761696e, 4b657947}</effectid>
									<effecttype>filter</effecttype>
									<mediatype>audio</mediatype>
									<parameter authoringApp="PremierePro">
										<parameterid>Gain(dB)</parameterid>
										<name>Gain(dB)</name>
										<valuemin>-96</valuemin>
										<valuemax>96</valuemax>
										<value>-10</value>
									</parameter>
								</effect>
							</filter>
							<filter>
								<effect>
									<name>Audio Levels</name>
									<effectid>audiolevels</effectid>
									<effectcategory>audiolevels</effectcategory>
									<effecttype>audiolevels</effecttype>
									<mediatype>audio</mediatype>
									<parameter authoringApp="PremierePro">
										<parameterid>level</parameterid>
										<name>Level</name>
										<valuemin>0</valuemin>
										<valuemax>3.98109</valuemax>
										<value>0</value>
										<keyframe>
											<when>180</when>
											<value>0</value>
										</keyframe>
										<keyframe>
											<when>300</when>
											<value>0.0838434</value>
										</keyframe>
										<keyframe>
											<when>571</when>
											<value>0.133725</value>
										</keyframe>
										<keyframe>
											<when>626</when>
											<value>0.827821</value>
										</keyframe>
										<keyframe>
											<when>822</when>
											<value>0.827821</value>
										</keyframe>
										<keyframe>
											<when>895</when>
											<value>0.573107</value>
										</keyframe>
										<keyframe>
											<when>1023</when>
											<value>0</value>
										</keyframe>
									</parameter>
								</effect>
							</filter>
						<link>
							<linkclipref>clipitem-1436</linkclipref>
							<mediatype>audio</mediatype>
							<trackindex>16</trackindex>
							<clipindex>17</clipindex>
							<groupindex>1</groupindex>
						</link>
						<link>
							<linkclipref>clipitem-1464</linkclipref>
							<mediatype>audio</mediatype>
							<trackindex>17</trackindex>
							<clipindex>17</clipindex>
							<groupindex>1</groupindex>
						</link>
						<logginginfo>
							<description></description>
							<scene></scene>
							<shottake></shottake>
							<lognote></lognote>
						</logginginfo>
						<labels>
							<label2>Iris</label2>
						</labels>
					</clipitem>
					<clipitem id="clipitem-1437" premiereChannelType="stereo">
						<masterclipid>masterclip-336</masterclipid>
						<name>AUXMP_SCDV034403_STRINGS_POSITIVE_C.wav</name>
						<enabled>TRUE</enabled>
						<duration>5044</duration>
						<rate>
							<timebase>25</timebase>
							<ntsc>FALSE</ntsc>
						</rate>
						<start>57831</start>
						<end>58647</end>
						<in>4189</in>
						<out>5006</out>
						<pproTicksIn>42562920960000</pproTicksIn>
						<pproTicksOut>50864163840000</pproTicksOut>
						<file id="file-336"/>
						<sourcetrack>
							<mediatype>audio</mediatype>
							<trackindex>1</trackindex>
						</sourcetrack>
							<filter>
								<effect>
									<name>Gain</name>
									<effectid>{61756678, 4761696e, 4b657947}</effectid>
									<effecttype>filter</effecttype>
									<mediatype>audio</mediatype>
									<parameter authoringApp="PremierePro">
										<parameterid>Gain(dB)</parameterid>
										<name>Gain(dB)</name>
										<valuemin>-96</valuemin>
										<valuemax>96</valuemax>
										<value>-5</value>
									</parameter>
								</effect>
							</filter>
							<filter>
								<effect>
									<name>Audio Levels</name>
									<effectid>audiolevels</effectid>
									<effectcategory>audiolevels</effectcategory>
									<effecttype>audiolevels</effecttype>
									<mediatype>audio</mediatype>
									<parameter authoringApp="PremierePro">
										<parameterid>level</parameterid>
										<name>Level</name>
										<valuemin>0</valuemin>
										<valuemax>3.98109</valuemax>
										<value>0.742916</value>
										<keyframe>
											<when>4282</when>
											<value>0</value>
										</keyframe>
										<keyframe>
											<when>4345</when>
											<value>0.0636785</value>
										</keyframe>
										<keyframe>
											<when>4608</when>
											<value>0.126296</value>
										</keyframe>
										<keyframe>
											<when>4666</when>
											<value>0.293982</value>
										</keyframe>
										<keyframe>
											<when>4699</when>
											<value>0.742916</value>
										</keyframe>
									</parameter>
								</effect>
							</filter>
						<link>
							<linkclipref>clipitem-1437</linkclipref>
							<mediatype>audio</mediatype>
							<trackindex>16</trackindex>
							<clipindex>18</clipindex>
							<groupindex>1</groupindex>
						</link>
						<link>
							<linkclipref>clipitem-1465</linkclipref>
							<mediatype>audio</mediatype>
							<trackindex>17</trackindex>
							<clipindex>18</clipindex>
							<groupindex>1</groupindex>
						</link>
						<logginginfo>
							<description></description>
							<scene></scene>
							<shottake></shottake>
							<lognote></lognote>
						</logginginfo>
						<labels>
							<label2>Iris</label2>
						</labels>
					</clipitem>
					<clipitem id="clipitem-1438" premiereChannelType="stereo">
						<masterclipid>masterclip-330</masterclipid>
						<name>NATURLIGHELAFTEN-Clean.wav</name>
						<enabled>TRUE</enabled>
						<duration>151</duration>
						<rate>
							<timebase>25</timebase>
							<ntsc>FALSE</ntsc>
						</rate>
						<start>58851</start>
						<end>58993</end>
						<in>0</in>
						<out>142</out>
						<pproTicksIn>0</pproTicksIn>
						<pproTicksOut>1442810880000</pproTicksOut>
						<file id="file-330"/>
						<sourcetrack>
							<mediatype>audio</mediatype>
							<trackindex>1</trackindex>
						</sourcetrack>
							<filter>
								<effect>
									<name>Audio Levels</name>
									<effectid>audiolevels</effectid>
									<effectcategory>audiolevels</effectcategory>
									<effecttype>audiolevels</effecttype>
									<mediatype>audio</mediatype>
									<parameter authoringApp="PremierePro">
										<parameterid>level</parameterid>
										<name>Level</name>
										<valuemin>0</valuemin>
										<valuemax>3.98109</valuemax>
										<value>0.313699</value>
									</parameter>
								</effect>
							</filter>
						<link>
							<linkclipref>clipitem-1438</linkclipref>
							<mediatype>audio</mediatype>
							<trackindex>16</trackindex>
							<clipindex>19</clipindex>
							<groupindex>1</groupindex>
						</link>
						<link>
							<linkclipref>clipitem-1466</linkclipref>
							<mediatype>audio</mediatype>
							<trackindex>17</trackindex>
							<clipindex>19</clipindex>
							<groupindex>1</groupindex>
						</link>
						<logginginfo>
							<description></description>
							<scene></scene>
							<shottake></shottake>
							<lognote></lognote>
						</logginginfo>
						<labels>
							<label2>Iris</label2>
						</labels>
					</clipitem>
					<clipitem id="clipitem-1439" premiereChannelType="stereo">
						<masterclipid>masterclip-330</masterclipid>
						<name>NATURLIGHELAFTEN-Clean.wav</name>
						<enabled>TRUE</enabled>
						<duration>151</duration>
						<rate>
							<timebase>25</timebase>
							<ntsc>FALSE</ntsc>
						</rate>
						<start>59873</start>
						<end>60015</end>
						<in>0</in>
						<out>142</out>
						<pproTicksIn>0</pproTicksIn>
						<pproTicksOut>1442810880000</pproTicksOut>
						<file id="file-330"/>
						<sourcetrack>
							<mediatype>audio</mediatype>
							<trackindex>1</trackindex>
						</sourcetrack>
							<filter>
								<effect>
									<name>Audio Levels</name>
									<effectid>audiolevels</effectid>
									<effectcategory>audiolevels</effectcategory>
									<effecttype>audiolevels</effecttype>
									<mediatype>audio</mediatype>
									<parameter authoringApp="PremierePro">
										<parameterid>level</parameterid>
										<name>Level</name>
										<valuemin>0</valuemin>
										<valuemax>3.98109</valuemax>
										<value>0.24764</value>
									</parameter>
								</effect>
							</filter>
						<link>
							<linkclipref>clipitem-1439</linkclipref>
							<mediatype>audio</mediatype>
							<trackindex>16</trackindex>
							<clipindex>20</clipindex>
							<groupindex>1</groupindex>
						</link>
						<link>
							<linkclipref>clipitem-1467</linkclipref>
							<mediatype>audio</mediatype>
							<trackindex>17</trackindex>
							<clipindex>20</clipindex>
							<groupindex>1</groupindex>
						</link>
						<logginginfo>
							<description></description>
							<scene></scene>
							<shottake></shottake>
							<lognote></lognote>
						</logginginfo>
						<labels>
							<label2>Iris</label2>
						</labels>
					</clipitem>
					<clipitem id="clipitem-1440" premiereChannelType="stereo">
						<masterclipid>masterclip-330</masterclipid>
						<name>NATURLIGHELAFTEN-Clean.wav</name>
						<enabled>TRUE</enabled>
						<duration>151</duration>
						<rate>
							<timebase>25</timebase>
							<ntsc>FALSE</ntsc>
						</rate>
						<start>60890</start>
						<end>61041</end>
						<in>0</in>
						<out>151</out>
						<pproTicksIn>0</pproTicksIn>
						<pproTicksOut>1534256640000</pproTicksOut>
						<file id="file-330"/>
						<sourcetrack>
							<mediatype>audio</mediatype>
							<trackindex>1</trackindex>
						</sourcetrack>
							<filter>
								<effect>
									<name>Audio Levels</name>
									<effectid>audiolevels</effectid>
									<effectcategory>audiolevels</effectcategory>
									<effecttype>audiolevels</effecttype>
									<mediatype>audio</mediatype>
									<parameter authoringApp="PremierePro">
										<parameterid>level</parameterid>
										<name>Level</name>
										<valuemin>0</valuemin>
										<valuemax>3.98109</valuemax>
										<value>0.24764</value>
									</parameter>
								</effect>
							</filter>
						<link>
							<linkclipref>clipitem-1440</linkclipref>
							<mediatype>audio</mediatype>
							<trackindex>16</trackindex>
							<clipindex>21</clipindex>
							<groupindex>1</groupindex>
						</link>
						<link>
							<linkclipref>clipitem-1468</linkclipref>
							<mediatype>audio</mediatype>
							<trackindex>17</trackindex>
							<clipindex>21</clipindex>
							<groupindex>1</groupindex>
						</link>
						<logginginfo>
							<description></description>
							<scene></scene>
							<shottake></shottake>
							<lognote></lognote>
						</logginginfo>
						<labels>
							<label2>Iris</label2>
						</labels>
					</clipitem>
					<clipitem id="clipitem-1441" premiereChannelType="stereo">
						<masterclipid>masterclip-330</masterclipid>
						<name>NATURLIGHELAFTEN-Clean.wav</name>
						<enabled>TRUE</enabled>
						<duration>151</duration>
						<rate>
							<timebase>25</timebase>
							<ntsc>FALSE</ntsc>
						</rate>
						<start>62302</start>
						<end>62381</end>
						<in>0</in>
						<out>79</out>
						<pproTicksIn>0</pproTicksIn>
						<pproTicksOut>802690560000</pproTicksOut>
						<file id="file-330"/>
						<sourcetrack>
							<mediatype>audio</mediatype>
							<trackindex>1</trackindex>
						</sourcetrack>
							<filter>
								<effect>
									<name>Audio Levels</name>
									<effectid>audiolevels</effectid>
									<effectcategory>audiolevels</effectcategory>
									<effecttype>audiolevels</effecttype>
									<mediatype>audio</mediatype>
									<parameter authoringApp="PremierePro">
										<parameterid>level</parameterid>
										<name>Level</name>
										<valuemin>0</valuemin>
										<valuemax>3.98109</valuemax>
										<value>0.24764</value>
									</parameter>
								</effect>
							</filter>
						<link>
							<linkclipref>clipitem-1441</linkclipref>
							<mediatype>audio</mediatype>
							<trackindex>16</trackindex>
							<clipindex>22</clipindex>
							<groupindex>1</groupindex>
						</link>
						<link>
							<linkclipref>clipitem-1469</linkclipref>
							<mediatype>audio</mediatype>
							<trackindex>17</trackindex>
							<clipindex>22</clipindex>
							<groupindex>1</groupindex>
						</link>
						<logginginfo>
							<description></description>
							<scene></scene>
							<shottake></shottake>
							<lognote></lognote>
						</logginginfo>
						<labels>
							<label2>Iris</label2>
						</labels>
					</clipitem>
					<clipitem id="clipitem-1442" premiereChannelType="stereo">
						<masterclipid>masterclip-338</masterclipid>
						<name>AUXMP_SCDV054331_TAKE_A_LOAD_OFF_C.wav</name>
						<enabled>TRUE</enabled>
						<duration>4296</duration>
						<rate>
							<timebase>25</timebase>
							<ntsc>FALSE</ntsc>
						</rate>
						<start>64006</start>
						<end>65472</end>
						<in>0</in>
						<out>1466</out>
						<pproTicksIn>0</pproTicksIn>
						<pproTicksOut>14895498240000</pproTicksOut>
						<file id="file-338">
							<name>AUXMP_SCDV054331_TAKE_A_LOAD_OFF_C.wav</name>
							<pathurl>file://localhost/Volumes/Vaagen/Utveksling/Natur/Naturlig%20helaften%20fra%20Oslo/Copied_Copy%20of%20En%20Helaften%20MASTER_001/AUXMP_SCDV054331_TAKE_A_LOAD_OFF_C.wav</pathurl>
							<rate>
								<timebase>30</timebase>
								<ntsc>TRUE</ntsc>
							</rate>
							<duration>5151</duration>
							<timecode>
								<rate>
									<timebase>30</timebase>
									<ntsc>TRUE</ntsc>
								</rate>
								<string>00;44;05;12</string>
								<frame>79282</frame>
								<displayformat>DF</displayformat>
								<reel>
									<name></name>
								</reel>
							</timecode>
							<media>
								<audio>
									<samplecharacteristics>
										<depth>16</depth>
										<samplerate>48000</samplerate>
									</samplecharacteristics>
									<channelcount>2</channelcount>
								</audio>
							</media>
						</file>
						<sourcetrack>
							<mediatype>audio</mediatype>
							<trackindex>1</trackindex>
						</sourcetrack>
							<filter>
								<effect>
									<name>Audio Levels</name>
									<effectid>audiolevels</effectid>
									<effectcategory>audiolevels</effectcategory>
									<effecttype>audiolevels</effecttype>
									<mediatype>audio</mediatype>
									<parameter authoringApp="PremierePro">
										<parameterid>level</parameterid>
										<name>Level</name>
										<valuemin>0</valuemin>
										<valuemax>3.98109</valuemax>
										<value>0</value>
										<keyframe>
											<when>249</when>
											<value>0.472562</value>
										</keyframe>
										<keyframe>
											<when>288</when>
											<value>0.266885</value>
										</keyframe>
										<keyframe>
											<when>444</when>
											<value>0.0350046</value>
										</keyframe>
										<keyframe>
											<when>741</when>
											<value>0.0424523</value>
										</keyframe>
										<keyframe>
											<when>759</when>
											<value>0.417076</value>
										</keyframe>
										<keyframe>
											<when>858</when>
											<value>0.414913</value>
										</keyframe>
										<keyframe>
											<when>885</when>
											<value>0.0722323</value>
										</keyframe>
										<keyframe>
											<when>1050</when>
											<value>0.0397074</value>
										</keyframe>
										<keyframe>
											<when>1066</when>
											<value>0.353714</value>
										</keyframe>
										<keyframe>
											<when>1163</when>
											<value>0.353718</value>
										</keyframe>
										<keyframe>
											<when>1209</when>
											<value>0.0499454</value>
										</keyframe>
										<keyframe>
											<when>1266</when>
											<value>0.0350046</value>
										</keyframe>
										<keyframe>
											<when>1315</when>
											<value>0.0424523</value>
										</keyframe>
										<keyframe>
											<when>1444</when>
											<value>0</value>
										</keyframe>
									</parameter>
								</effect>
							</filter>
						<link>
							<linkclipref>clipitem-1442</linkclipref>
							<mediatype>audio</mediatype>
							<trackindex>16</trackindex>
							<clipindex>23</clipindex>
							<groupindex>1</groupindex>
						</link>
						<link>
							<linkclipref>clipitem-1470</linkclipref>
							<mediatype>audio</mediatype>
							<trackindex>17</trackindex>
							<clipindex>23</clipindex>
							<groupindex>1</groupindex>
						</link>
						<logginginfo>
							<description></description>
							<scene></scene>
							<shottake></shottake>
							<lognote></lognote>
						</logginginfo>
						<labels>
							<label2>Iris</label2>
						</labels>
					</clipitem>
					<clipitem id="clipitem-1443" premiereChannelType="stereo">
						<masterclipid>masterclip-329</masterclipid>
						<name>Nordvisjon-MASTER-vr3-201016-ny-kommentar.wav</name>
						<enabled>TRUE</enabled>
						<duration>42953</duration>
						<rate>
							<timebase>25</timebase>
							<ntsc>FALSE</ntsc>
						</rate>
						<start>75079</start>
						<end>-1</end>
						<in>21907</in>
						<out>22209</out>
						<pproTicksIn>222589140480000</pproTicksIn>
						<pproTicksOut>225657653760000</pproTicksOut>
						<file id="file-329"/>
						<sourcetrack>
							<mediatype>audio</mediatype>
							<trackindex>1</trackindex>
						</sourcetrack>
							<marker>
								<comment></comment>
								<name></name>
								<in>40399</in>
								<out>-1</out>
							</marker>
							<marker>
								<comment></comment>
								<name></name>
								<in>3092</in>
								<out>-1</out>
							</marker>
							<marker>
								<comment></comment>
								<name></name>
								<in>36054</in>
								<out>-1</out>
							</marker>
							<marker>
								<comment></comment>
								<name></name>
								<in>0</in>
								<out>-1</out>
							</marker>
						<link>
							<linkclipref>clipitem-1443</linkclipref>
							<mediatype>audio</mediatype>
							<trackindex>16</trackindex>
							<clipindex>24</clipindex>
							<groupindex>1</groupindex>
						</link>
						<link>
							<linkclipref>clipitem-1471</linkclipref>
							<mediatype>audio</mediatype>
							<trackindex>17</trackindex>
							<clipindex>24</clipindex>
							<groupindex>1</groupindex>
						</link>
						<logginginfo>
							<description></description>
							<scene></scene>
							<shottake></shottake>
							<lognote></lognote>
						</logginginfo>
						<labels>
							<label2>Iris</label2>
						</labels>
					</clipitem>
					<transitionitem>
						<start>75368</start>
						<end>75381</end>
						<alignment>center</alignment>
						<cutPointTicks>60963840000</cutPointTicks>
						<rate>
							<timebase>25</timebase>
							<ntsc>FALSE</ntsc>
						</rate>
						<effect>
							<name>Cross Fade (+3dB)</name>
							<effectid>KGAudioTransCrossFade3dB</effectid>
							<effecttype>transition</effecttype>
							<mediatype>audio</mediatype>
							<wipecode>0</wipecode>
							<wipeaccuracy>100</wipeaccuracy>
							<startratio>0</startratio>
							<endratio>1</endratio>
							<reverse>FALSE</reverse>
						</effect>
					</transitionitem>
					<clipitem id="clipitem-1444" premiereChannelType="stereo">
						<masterclipid>masterclip-333</masterclipid>
						<name>Nordvisjon2MASTER_musikk.wav</name>
						<enabled>TRUE</enabled>
						<duration>45037</duration>
						<rate>
							<timebase>25</timebase>
							<ntsc>FALSE</ntsc>
						</rate>
						<start>-1</start>
						<end>76925</end>
						<in>13641</in>
						<out>15198</out>
						<pproTicksIn>138601290240000</pproTicksIn>
						<pproTicksOut>154421406720000</pproTicksOut>
						<file id="file-333"/>
						<sourcetrack>
							<mediatype>audio</mediatype>
							<trackindex>1</trackindex>
						</sourcetrack>
							<filter>
								<effect>
									<name>Audio Levels</name>
									<effectid>audiolevels</effectid>
									<effectcategory>audiolevels</effectcategory>
									<effecttype>audiolevels</effecttype>
									<mediatype>audio</mediatype>
									<parameter authoringApp="PremierePro">
										<parameterid>level</parameterid>
										<name>Level</name>
										<valuemin>0</valuemin>
										<valuemax>3.98109</valuemax>
										<value>0</value>
										<keyframe>
											<when>14107</when>
											<value>0</value>
										</keyframe>
										<keyframe>
											<when>14153</when>
											<value>0.743558</value>
										</keyframe>
										<keyframe>
											<when>14330</when>
											<value>0.741266</value>
										</keyframe>
										<keyframe>
											<when>14394</when>
											<value>0</value>
										</keyframe>
										<keyframe>
											<when>14653</when>
											<value>0</value>
										</keyframe>
										<keyframe>
											<when>15529</when>
											<value>0.99763</value>
										</keyframe>
										<keyframe>
											<when>15565</when>
											<value>0.332543</value>
										</keyframe>
										<keyframe>
											<when>15688</when>
											<value>0.332543</value>
										</keyframe>
										<keyframe>
											<when>15741</when>
											<value>0</value>
										</keyframe>
									</parameter>
								</effect>
							</filter>
						<link>
							<linkclipref>clipitem-1444</linkclipref>
							<mediatype>audio</mediatype>
							<trackindex>16</trackindex>
							<clipindex>26</clipindex>
							<groupindex>1</groupindex>
						</link>
						<link>
							<linkclipref>clipitem-1472</linkclipref>
							<mediatype>audio</mediatype>
							<trackindex>17</trackindex>
							<clipindex>26</clipindex>
							<groupindex>1</groupindex>
						</link>
						<logginginfo>
							<description></description>
							<scene></scene>
							<shottake></shottake>
							<lognote></lognote>
						</logginginfo>
						<labels>
							<label2>Iris</label2>
						</labels>
					</clipitem>
					<clipitem id="clipitem-1445" premiereChannelType="stereo">
						<masterclipid>masterclip-333</masterclipid>
						<name>Nordvisjon2MASTER_musikk.wav</name>
						<enabled>TRUE</enabled>
						<duration>45037</duration>
						<rate>
							<timebase>25</timebase>
							<ntsc>FALSE</ntsc>
						</rate>
						<start>85548</start>
						<end>87600</end>
						<in>40324</in>
						<out>42376</out>
						<pproTicksIn>409717647360000</pproTicksIn>
						<pproTicksOut>430567280640000</pproTicksOut>
						<file id="file-333"/>
						<sourcetrack>
							<mediatype>audio</mediatype>
							<trackindex>1</trackindex>
						</sourcetrack>
							<filter>
								<effect>
									<name>Audio Levels</name>
									<effectid>audiolevels</effectid>
									<effectcategory>audiolevels</effectcategory>
									<effecttype>audiolevels</effecttype>
									<mediatype>audio</mediatype>
									<parameter authoringApp="PremierePro">
										<parameterid>level</parameterid>
										<name>Level</name>
										<valuemin>0</valuemin>
										<valuemax>3.98109</valuemax>
										<value>0.512296</value>
										<keyframe>
											<when>42110</when>
											<value>0.512296</value>
										</keyframe>
										<keyframe>
											<when>42141</when>
											<value>0</value>
										</keyframe>
										<keyframe>
											<when>42200</when>
											<value>0</value>
										</keyframe>
										<keyframe>
											<when>42379</when>
											<value>0</value>
										</keyframe>
										<keyframe>
											<when>42589</when>
											<value>0</value>
										</keyframe>
										<keyframe>
											<when>42873</when>
											<value>0</value>
										</keyframe>
										<keyframe>
											<when>43019</when>
											<value>0</value>
										</keyframe>
									</parameter>
								</effect>
							</filter>
						<link>
							<linkclipref>clipitem-1445</linkclipref>
							<mediatype>audio</mediatype>
							<trackindex>16</trackindex>
							<clipindex>27</clipindex>
							<groupindex>1</groupindex>
						</link>
						<link>
							<linkclipref>clipitem-1473</linkclipref>
							<mediatype>audio</mediatype>
							<trackindex>17</trackindex>
							<clipindex>27</clipindex>
							<groupindex>1</groupindex>
						</link>
						<logginginfo>
							<description></description>
							<scene></scene>
							<shottake></shottake>
							<lognote></lognote>
						</logginginfo>
						<labels>
							<label2>Iris</label2>
						</labels>
					</clipitem>
					<clipitem id="clipitem-1446" premiereChannelType="stereo">
						<masterclipid>masterclip-333</masterclipid>
						<name>Nordvisjon2MASTER_musikk.wav</name>
						<enabled>TRUE</enabled>
						<duration>45037</duration>
						<rate>
							<timebase>25</timebase>
							<ntsc>FALSE</ntsc>
						</rate>
						<start>87600</start>
						<end>89546</end>
						<in>42410</in>
						<out>44356</out>
						<pproTicksIn>430912742400000</pproTicksIn>
						<pproTicksOut>450685347840000</pproTicksOut>
						<file id="file-333"/>
						<sourcetrack>
							<mediatype>audio</mediatype>
							<trackindex>1</trackindex>
						</sourcetrack>
							<filter>
								<effect>
									<name>Audio Levels</name>
									<effectid>audiolevels</effectid>
									<effectcategory>audiolevels</effectcategory>
									<effecttype>audiolevels</effecttype>
									<mediatype>audio</mediatype>
									<parameter authoringApp="PremierePro">
										<parameterid>level</parameterid>
										<name>Level</name>
										<valuemin>0</valuemin>
										<valuemax>3.98109</valuemax>
										<value>0</value>
										<keyframe>
											<when>42411</when>
											<value>0</value>
										</keyframe>
										<keyframe>
											<when>42426</when>
											<value>0.792446</value>
										</keyframe>
										<keyframe>
											<when>43844</when>
											<value>0.792446</value>
										</keyframe>
										<keyframe>
											<when>44106</when>
											<value>0</value>
										</keyframe>
									</parameter>
								</effect>
							</filter>
						<link>
							<linkclipref>clipitem-1446</linkclipref>
							<mediatype>audio</mediatype>
							<trackindex>16</trackindex>
							<clipindex>28</clipindex>
							<groupindex>1</groupindex>
						</link>
						<link>
							<linkclipref>clipitem-1474</linkclipref>
							<mediatype>audio</mediatype>
							<trackindex>17</trackindex>
							<clipindex>28</clipindex>
							<groupindex>1</groupindex>
						</link>
						<logginginfo>
							<description></description>
							<scene></scene>
							<shottake></shottake>
							<lognote></lognote>
						</logginginfo>
						<labels>
							<label2>Iris</label2>
						</labels>
					</clipitem>
					<clipitem id="clipitem-1447" premiereChannelType="stereo">
						<masterclipid>masterclip-332</masterclipid>
						<name>Nordvisjon-MASTER-vr3-201016-ny-musikk.wav</name>
						<enabled>TRUE</enabled>
						<duration>43741</duration>
						<rate>
							<timebase>25</timebase>
							<ntsc>FALSE</ntsc>
						</rate>
						<start>95962</start>
						<end>96929</end>
						<in>23861</in>
						<out>24828</out>
						<pproTicksIn>242443031040000</pproTicksIn>
						<pproTicksOut>252268369920000</pproTicksOut>
						<file id="file-332"/>
						<sourcetrack>
							<mediatype>audio</mediatype>
							<trackindex>1</trackindex>
						</sourcetrack>
							<filter>
								<effect>
									<name>Audio Levels</name>
									<effectid>audiolevels</effectid>
									<effectcategory>audiolevels</effectcategory>
									<effecttype>audiolevels</effecttype>
									<mediatype>audio</mediatype>
									<parameter authoringApp="PremierePro">
										<parameterid>level</parameterid>
										<name>Level</name>
										<valuemin>0</valuemin>
										<valuemax>3.98109</valuemax>
										<value>0.406442</value>
										<keyframe>
											<when>24105</when>
											<value>0.406442</value>
										</keyframe>
										<keyframe>
											<when>24209</when>
											<value>0.99763</value>
										</keyframe>
										<keyframe>
											<when>24607</when>
											<value>0.99763</value>
										</keyframe>
										<keyframe>
											<when>24811</when>
											<value>0</value>
										</keyframe>
									</parameter>
								</effect>
							</filter>
							<marker>
								<comment></comment>
								<name></name>
								<in>40399</in>
								<out>-1</out>
							</marker>
							<marker>
								<comment></comment>
								<name></name>
								<in>3092</in>
								<out>-1</out>
							</marker>
							<marker>
								<comment></comment>
								<name></name>
								<in>36054</in>
								<out>-1</out>
							</marker>
							<marker>
								<comment></comment>
								<name></name>
								<in>0</in>
								<out>-1</out>
							</marker>
						<link>
							<linkclipref>clipitem-1447</linkclipref>
							<mediatype>audio</mediatype>
							<trackindex>16</trackindex>
							<clipindex>29</clipindex>
							<groupindex>1</groupindex>
						</link>
						<link>
							<linkclipref>clipitem-1475</linkclipref>
							<mediatype>audio</mediatype>
							<trackindex>17</trackindex>
							<clipindex>29</clipindex>
							<groupindex>1</groupindex>
						</link>
						<logginginfo>
							<description></description>
							<scene></scene>
							<shottake></shottake>
							<lognote></lognote>
						</logginginfo>
						<labels>
							<label2>Iris</label2>
						</labels>
					</clipitem>
					<enabled>TRUE</enabled>
					<locked>FALSE</locked>
					<outputchannelindex>1</outputchannelindex>
				</track>
				<track TL.SQTrackAudioKeyframeStyle="0" TL.SQTrackShy="0" TL.SQTrackExpandedHeight="58" TL.SQTrackExpanded="1" MZ.TrackTargeted="0" PannerCurrentValue="0.5" PannerIsInverted="true" PannerStartKeyframe="-91445760000000000,0.5,0,0,0,0,0,0" PannerName="Balance" currentExplodedTrackIndex="1" totalExplodedTrackCount="2" premiereTrackType="Stereo">
					<clipitem id="clipitem-1448" premiereChannelType="stereo">
						<masterclipid>masterclip-11</masterclipid>
						<name>OWH Master 161123_.mov</name>
						<enabled>TRUE</enabled>
						<duration>86750</duration>
						<rate>
							<timebase>25</timebase>
							<ntsc>FALSE</ntsc>
						</rate>
						<start>1035</start>
						<end>1677</end>
						<in>24288</in>
						<out>24930</out>
						<pproTicksIn>246781624320000</pproTicksIn>
						<pproTicksOut>253304755200000</pproTicksOut>
						<file id="file-11"/>
						<sourcetrack>
							<mediatype>audio</mediatype>
							<trackindex>2</trackindex>
						</sourcetrack>
							<filter>
								<effect>
									<name>Audio Levels</name>
									<effectid>audiolevels</effectid>
									<effectcategory>audiolevels</effectcategory>
									<effecttype>audiolevels</effecttype>
									<mediatype>audio</mediatype>
									<parameter authoringApp="PremierePro">
										<parameterid>level</parameterid>
										<name>Level</name>
										<valuemin>0</valuemin>
										<valuemax>3.98109</valuemax>
										<value>0</value>
										<keyframe>
											<when>24305</when>
											<value>0</value>
										</keyframe>
										<keyframe>
											<when>24321</when>
											<value>0</value>
										</keyframe>
										<keyframe>
											<when>24421</when>
											<value>0</value>
										</keyframe>
										<keyframe>
											<when>24435</when>
											<value>0.254371</value>
										</keyframe>
										<keyframe>
											<when>24445</when>
											<value>0.725549</value>
										</keyframe>
										<keyframe>
											<when>24473</when>
											<value>0.725549</value>
										</keyframe>
										<keyframe>
											<when>24510</when>
											<value>0.469473</value>
										</keyframe>
										<keyframe>
											<when>24745</when>
											<value>0.469473</value>
										</keyframe>
										<keyframe>
											<when>24762</when>
											<value>0.938946</value>
										</keyframe>
										<keyframe>
											<when>24847</when>
											<value>0.938946</value>
										</keyframe>
										<keyframe>
											<when>24862</when>
											<value>0.898258</value>
										</keyframe>
										<keyframe>
											<when>24895</when>
											<value>0</value>
										</keyframe>
										<keyframe>
											<when>25166</when>
											<value>0.938946</value>
										</keyframe>
										<keyframe>
											<when>25240</when>
											<value>0</value>
										</keyframe>
									</parameter>
								</effect>
							</filter>
						<link>
							<linkclipref>clipitem-14</linkclipref>
							<mediatype>video</mediatype>
							<trackindex>1</trackindex>
							<clipindex>14</clipindex>
						</link>
						<link>
							<linkclipref>clipitem-1420</linkclipref>
							<mediatype>audio</mediatype>
							<trackindex>16</trackindex>
							<clipindex>1</clipindex>
							<groupindex>1</groupindex>
						</link>
						<link>
							<linkclipref>clipitem-1448</linkclipref>
							<mediatype>audio</mediatype>
							<trackindex>17</trackindex>
							<clipindex>1</clipindex>
							<groupindex>1</groupindex>
						</link>
						<logginginfo>
							<description></description>
							<scene></scene>
							<shottake></shottake>
							<lognote></lognote>
						</logginginfo>
						<labels>
							<label2>Iris</label2>
						</labels>
					</clipitem>
					<clipitem id="clipitem-1449" premiereChannelType="stereo">
						<masterclipid>masterclip-330</masterclipid>
						<name>NATURLIGHELAFTEN-Clean.wav</name>
						<enabled>TRUE</enabled>
						<duration>151</duration>
						<rate>
							<timebase>25</timebase>
							<ntsc>FALSE</ntsc>
						</rate>
						<start>1765</start>
						<end>1895</end>
						<in>0</in>
						<out>130</out>
						<pproTicksIn>0</pproTicksIn>
						<pproTicksOut>1320883200000</pproTicksOut>
						<file id="file-330"/>
						<sourcetrack>
							<mediatype>audio</mediatype>
							<trackindex>2</trackindex>
						</sourcetrack>
							<filter>
								<effect>
									<name>Audio Levels</name>
									<effectid>audiolevels</effectid>
									<effectcategory>audiolevels</effectcategory>
									<effecttype>audiolevels</effecttype>
									<mediatype>audio</mediatype>
									<parameter authoringApp="PremierePro">
										<parameterid>level</parameterid>
										<name>Level</name>
										<valuemin>0</valuemin>
										<valuemax>3.98109</valuemax>
										<value>0.180092</value>
									</parameter>
								</effect>
							</filter>
						<link>
							<linkclipref>clipitem-1421</linkclipref>
							<mediatype>audio</mediatype>
							<trackindex>16</trackindex>
							<clipindex>2</clipindex>
							<groupindex>1</groupindex>
						</link>
						<link>
							<linkclipref>clipitem-1449</linkclipref>
							<mediatype>audio</mediatype>
							<trackindex>17</trackindex>
							<clipindex>2</clipindex>
							<groupindex>1</groupindex>
						</link>
						<logginginfo>
							<description></description>
							<scene></scene>
							<shottake></shottake>
							<lognote></lognote>
						</logginginfo>
						<labels>
							<label2>Iris</label2>
						</labels>
					</clipitem>
					<clipitem id="clipitem-1450" premiereChannelType="stereo">
						<masterclipid>masterclip-330</masterclipid>
						<name>NATURLIGHELAFTEN-Clean.wav</name>
						<enabled>TRUE</enabled>
						<duration>151</duration>
						<rate>
							<timebase>25</timebase>
							<ntsc>FALSE</ntsc>
						</rate>
						<start>2066</start>
						<end>2196</end>
						<in>0</in>
						<out>130</out>
						<pproTicksIn>0</pproTicksIn>
						<pproTicksOut>1320883200000</pproTicksOut>
						<file id="file-330"/>
						<sourcetrack>
							<mediatype>audio</mediatype>
							<trackindex>2</trackindex>
						</sourcetrack>
							<filter>
								<effect>
									<name>Audio Levels</name>
									<effectid>audiolevels</effectid>
									<effectcategory>audiolevels</effectcategory>
									<effecttype>audiolevels</effecttype>
									<mediatype>audio</mediatype>
									<parameter authoringApp="PremierePro">
										<parameterid>level</parameterid>
										<name>Level</name>
										<valuemin>0</valuemin>
										<valuemax>3.98109</valuemax>
										<value>0.180092</value>
									</parameter>
								</effect>
							</filter>
						<link>
							<linkclipref>clipitem-1422</linkclipref>
							<mediatype>audio</mediatype>
							<trackindex>16</trackindex>
							<clipindex>3</clipindex>
							<groupindex>1</groupindex>
						</link>
						<link>
							<linkclipref>clipitem-1450</linkclipref>
							<mediatype>audio</mediatype>
							<trackindex>17</trackindex>
							<clipindex>3</clipindex>
							<groupindex>1</groupindex>
						</link>
						<logginginfo>
							<description></description>
							<scene></scene>
							<shottake></shottake>
							<lognote></lognote>
						</logginginfo>
						<labels>
							<label2>Iris</label2>
						</labels>
					</clipitem>
					<clipitem id="clipitem-1451" premiereChannelType="stereo">
						<masterclipid>masterclip-330</masterclipid>
						<name>NATURLIGHELAFTEN-Clean.wav</name>
						<enabled>TRUE</enabled>
						<duration>151</duration>
						<rate>
							<timebase>25</timebase>
							<ntsc>FALSE</ntsc>
						</rate>
						<start>3527</start>
						<end>3657</end>
						<in>0</in>
						<out>130</out>
						<pproTicksIn>0</pproTicksIn>
						<pproTicksOut>1320883200000</pproTicksOut>
						<file id="file-330"/>
						<sourcetrack>
							<mediatype>audio</mediatype>
							<trackindex>2</trackindex>
						</sourcetrack>
							<filter>
								<effect>
									<name>Audio Levels</name>
									<effectid>audiolevels</effectid>
									<effectcategory>audiolevels</effectcategory>
									<effecttype>audiolevels</effecttype>
									<mediatype>audio</mediatype>
									<parameter authoringApp="PremierePro">
										<parameterid>level</parameterid>
										<name>Level</name>
										<valuemin>0</valuemin>
										<valuemax>3.98109</valuemax>
										<value>0.121141</value>
									</parameter>
								</effect>
							</filter>
						<link>
							<linkclipref>clipitem-1423</linkclipref>
							<mediatype>audio</mediatype>
							<trackindex>16</trackindex>
							<clipindex>4</clipindex>
							<groupindex>1</groupindex>
						</link>
						<link>
							<linkclipref>clipitem-1451</linkclipref>
							<mediatype>audio</mediatype>
							<trackindex>17</trackindex>
							<clipindex>4</clipindex>
							<groupindex>1</groupindex>
						</link>
						<logginginfo>
							<description></description>
							<scene></scene>
							<shottake></shottake>
							<lognote></lognote>
						</logginginfo>
						<labels>
							<label2>Iris</label2>
						</labels>
					</clipitem>
					<clipitem id="clipitem-1452" premiereChannelType="stereo">
						<masterclipid>masterclip-330</masterclipid>
						<name>NATURLIGHELAFTEN-Clean.wav</name>
						<enabled>TRUE</enabled>
						<duration>151</duration>
						<rate>
							<timebase>25</timebase>
							<ntsc>FALSE</ntsc>
						</rate>
						<start>7083</start>
						<end>7232</end>
						<in>0</in>
						<out>149</out>
						<pproTicksIn>0</pproTicksIn>
						<pproTicksOut>1513935360000</pproTicksOut>
						<file id="file-330"/>
						<sourcetrack>
							<mediatype>audio</mediatype>
							<trackindex>2</trackindex>
						</sourcetrack>
							<filter>
								<effect>
									<name>Audio Levels</name>
									<effectid>audiolevels</effectid>
									<effectcategory>audiolevels</effectcategory>
									<effecttype>audiolevels</effecttype>
									<mediatype>audio</mediatype>
									<parameter authoringApp="PremierePro">
										<parameterid>level</parameterid>
										<name>Level</name>
										<valuemin>0</valuemin>
										<valuemax>3.98109</valuemax>
										<value>0.243865</value>
									</parameter>
								</effect>
							</filter>
						<link>
							<linkclipref>clipitem-1424</linkclipref>
							<mediatype>audio</mediatype>
							<trackindex>16</trackindex>
							<clipindex>5</clipindex>
							<groupindex>1</groupindex>
						</link>
						<link>
							<linkclipref>clipitem-1452</linkclipref>
							<mediatype>audio</mediatype>
							<trackindex>17</trackindex>
							<clipindex>5</clipindex>
							<groupindex>1</groupindex>
						</link>
						<logginginfo>
							<description></description>
							<scene></scene>
							<shottake></shottake>
							<lognote></lognote>
						</logginginfo>
						<labels>
							<label2>Iris</label2>
						</labels>
					</clipitem>
					<clipitem id="clipitem-1453" premiereChannelType="stereo">
						<masterclipid>masterclip-330</masterclipid>
						<name>NATURLIGHELAFTEN-Clean.wav</name>
						<enabled>TRUE</enabled>
						<duration>151</duration>
						<rate>
							<timebase>25</timebase>
							<ntsc>FALSE</ntsc>
						</rate>
						<start>8870</start>
						<end>9021</end>
						<in>0</in>
						<out>151</out>
						<pproTicksIn>0</pproTicksIn>
						<pproTicksOut>1534256640000</pproTicksOut>
						<file id="file-330"/>
						<sourcetrack>
							<mediatype>audio</mediatype>
							<trackindex>2</trackindex>
						</sourcetrack>
							<filter>
								<effect>
									<name>Audio Levels</name>
									<effectid>audiolevels</effectid>
									<effectcategory>audiolevels</effectcategory>
									<effecttype>audiolevels</effecttype>
									<mediatype>audio</mediatype>
									<parameter authoringApp="PremierePro">
										<parameterid>level</parameterid>
										<name>Level</name>
										<valuemin>0</valuemin>
										<valuemax>3.98109</valuemax>
										<value>0.361767</value>
									</parameter>
								</effect>
							</filter>
						<link>
							<linkclipref>clipitem-1425</linkclipref>
							<mediatype>audio</mediatype>
							<trackindex>16</trackindex>
							<clipindex>6</clipindex>
							<groupindex>1</groupindex>
						</link>
						<link>
							<linkclipref>clipitem-1453</linkclipref>
							<mediatype>audio</mediatype>
							<trackindex>17</trackindex>
							<clipindex>6</clipindex>
							<groupindex>1</groupindex>
						</link>
						<logginginfo>
							<description></description>
							<scene></scene>
							<shottake></shottake>
							<lognote></lognote>
						</logginginfo>
						<labels>
							<label2>Iris</label2>
						</labels>
					</clipitem>
					<clipitem id="clipitem-1454" premiereChannelType="stereo">
						<masterclipid>masterclip-330</masterclipid>
						<name>NATURLIGHELAFTEN-Clean.wav</name>
						<enabled>TRUE</enabled>
						<duration>151</duration>
						<rate>
							<timebase>25</timebase>
							<ntsc>FALSE</ntsc>
						</rate>
						<start>10447</start>
						<end>10598</end>
						<in>0</in>
						<out>151</out>
						<pproTicksIn>0</pproTicksIn>
						<pproTicksOut>1534256640000</pproTicksOut>
						<file id="file-330"/>
						<sourcetrack>
							<mediatype>audio</mediatype>
							<trackindex>2</trackindex>
						</sourcetrack>
							<filter>
								<effect>
									<name>Audio Levels</name>
									<effectid>audiolevels</effectid>
									<effectcategory>audiolevels</effectcategory>
									<effecttype>audiolevels</effecttype>
									<mediatype>audio</mediatype>
									<parameter authoringApp="PremierePro">
										<parameterid>level</parameterid>
										<name>Level</name>
										<valuemin>0</valuemin>
										<valuemax>3.98109</valuemax>
										<value>0.271073</value>
									</parameter>
								</effect>
							</filter>
						<link>
							<linkclipref>clipitem-1426</linkclipref>
							<mediatype>audio</mediatype>
							<trackindex>16</trackindex>
							<clipindex>7</clipindex>
							<groupindex>1</groupindex>
						</link>
						<link>
							<linkclipref>clipitem-1454</linkclipref>
							<mediatype>audio</mediatype>
							<trackindex>17</trackindex>
							<clipindex>7</clipindex>
							<groupindex>1</groupindex>
						</link>
						<logginginfo>
							<description></description>
							<scene></scene>
							<shottake></shottake>
							<lognote></lognote>
						</logginginfo>
						<labels>
							<label2>Iris</label2>
						</labels>
					</clipitem>
					<clipitem id="clipitem-1455" premiereChannelType="stereo">
						<masterclipid>masterclip-330</masterclipid>
						<name>NATURLIGHELAFTEN-Clean.wav</name>
						<enabled>TRUE</enabled>
						<duration>151</duration>
						<rate>
							<timebase>25</timebase>
							<ntsc>FALSE</ntsc>
						</rate>
						<start>16391</start>
						<end>16513</end>
						<in>0</in>
						<out>122</out>
						<pproTicksIn>0</pproTicksIn>
						<pproTicksOut>1239598080000</pproTicksOut>
						<file id="file-330"/>
						<sourcetrack>
							<mediatype>audio</mediatype>
							<trackindex>2</trackindex>
						</sourcetrack>
							<filter>
								<effect>
									<name>Audio Levels</name>
									<effectid>audiolevels</effectid>
									<effectcategory>audiolevels</effectcategory>
									<effecttype>audiolevels</effecttype>
									<mediatype>audio</mediatype>
									<parameter authoringApp="PremierePro">
										<parameterid>level</parameterid>
										<name>Level</name>
										<valuemin>0</valuemin>
										<valuemax>3.98109</valuemax>
										<value>0.39351</value>
									</parameter>
								</effect>
							</filter>
						<link>
							<linkclipref>clipitem-1427</linkclipref>
							<mediatype>audio</mediatype>
							<trackindex>16</trackindex>
							<clipindex>8</clipindex>
							<groupindex>1</groupindex>
						</link>
						<link>
							<linkclipref>clipitem-1455</linkclipref>
							<mediatype>audio</mediatype>
							<trackindex>17</trackindex>
							<clipindex>8</clipindex>
							<groupindex>1</groupindex>
						</link>
						<logginginfo>
							<description></description>
							<scene></scene>
							<shottake></shottake>
							<lognote></lognote>
						</logginginfo>
						<labels>
							<label2>Iris</label2>
						</labels>
					</clipitem>
					<clipitem id="clipitem-1456" premiereChannelType="stereo">
						<masterclipid>masterclip-330</masterclipid>
						<name>NATURLIGHELAFTEN-Clean.wav</name>
						<enabled>TRUE</enabled>
						<duration>151</duration>
						<rate>
							<timebase>25</timebase>
							<ntsc>FALSE</ntsc>
						</rate>
						<start>17995</start>
						<end>18146</end>
						<in>0</in>
						<out>151</out>
						<pproTicksIn>0</pproTicksIn>
						<pproTicksOut>1534256640000</pproTicksOut>
						<file id="file-330"/>
						<sourcetrack>
							<mediatype>audio</mediatype>
							<trackindex>2</trackindex>
						</sourcetrack>
							<filter>
								<effect>
									<name>Audio Levels</name>
									<effectid>audiolevels</effectid>
									<effectcategory>audiolevels</effectcategory>
									<effecttype>audiolevels</effecttype>
									<mediatype>audio</mediatype>
									<parameter authoringApp="PremierePro">
										<parameterid>level</parameterid>
										<name>Level</name>
										<valuemin>0</valuemin>
										<valuemax>3.98109</valuemax>
										<value>0.271073</value>
									</parameter>
								</effect>
							</filter>
						<link>
							<linkclipref>clipitem-1428</linkclipref>
							<mediatype>audio</mediatype>
							<trackindex>16</trackindex>
							<clipindex>9</clipindex>
							<groupindex>1</groupindex>
						</link>
						<link>
							<linkclipref>clipitem-1456</linkclipref>
							<mediatype>audio</mediatype>
							<trackindex>17</trackindex>
							<clipindex>9</clipindex>
							<groupindex>1</groupindex>
						</link>
						<logginginfo>
							<description></description>
							<scene></scene>
							<shottake></shottake>
							<lognote></lognote>
						</logginginfo>
						<labels>
							<label2>Iris</label2>
						</labels>
					</clipitem>
					<clipitem id="clipitem-1457" premiereChannelType="stereo">
						<masterclipid>masterclip-330</masterclipid>
						<name>NATURLIGHELAFTEN-Clean.wav</name>
						<enabled>TRUE</enabled>
						<duration>151</duration>
						<rate>
							<timebase>25</timebase>
							<ntsc>FALSE</ntsc>
						</rate>
						<start>19537</start>
						<end>19688</end>
						<in>0</in>
						<out>151</out>
						<pproTicksIn>0</pproTicksIn>
						<pproTicksOut>1534256640000</pproTicksOut>
						<file id="file-330"/>
						<sourcetrack>
							<mediatype>audio</mediatype>
							<trackindex>2</trackindex>
						</sourcetrack>
							<filter>
								<effect>
									<name>Audio Levels</name>
									<effectid>audiolevels</effectid>
									<effectcategory>audiolevels</effectcategory>
									<effecttype>audiolevels</effecttype>
									<mediatype>audio</mediatype>
									<parameter authoringApp="PremierePro">
										<parameterid>level</parameterid>
										<name>Level</name>
										<valuemin>0</valuemin>
										<valuemax>3.98109</valuemax>
										<value>0.273524</value>
									</parameter>
								</effect>
							</filter>
						<link>
							<linkclipref>clipitem-1429</linkclipref>
							<mediatype>audio</mediatype>
							<trackindex>16</trackindex>
							<clipindex>10</clipindex>
							<groupindex>1</groupindex>
						</link>
						<link>
							<linkclipref>clipitem-1457</linkclipref>
							<mediatype>audio</mediatype>
							<trackindex>17</trackindex>
							<clipindex>10</clipindex>
							<groupindex>1</groupindex>
						</link>
						<logginginfo>
							<description></description>
							<scene></scene>
							<shottake></shottake>
							<lognote></lognote>
						</logginginfo>
						<labels>
							<label2>Iris</label2>
						</labels>
					</clipitem>
					<clipitem id="clipitem-1458" premiereChannelType="stereo">
						<masterclipid>masterclip-334</masterclipid>
						<name>AUXMP_SCDV055566_UPBEAT_PEOPLE_A.wav</name>
						<enabled>TRUE</enabled>
						<duration>2784</duration>
						<rate>
							<timebase>25</timebase>
							<ntsc>FALSE</ntsc>
						</rate>
						<start>24558</start>
						<end>26105</end>
						<in>0</in>
						<out>1547</out>
						<pproTicksIn>0</pproTicksIn>
						<pproTicksOut>15718510080000</pproTicksOut>
						<file id="file-334"/>
						<sourcetrack>
							<mediatype>audio</mediatype>
							<trackindex>2</trackindex>
						</sourcetrack>
							<filter>
								<effect>
									<name>Audio Levels</name>
									<effectid>audiolevels</effectid>
									<effectcategory>audiolevels</effectcategory>
									<effecttype>audiolevels</effecttype>
									<mediatype>audio</mediatype>
									<parameter authoringApp="PremierePro">
										<parameterid>level</parameterid>
										<name>Level</name>
										<valuemin>0</valuemin>
										<valuemax>3.98109</valuemax>
										<value>0</value>
										<keyframe>
											<when>83</when>
											<value>0.233488</value>
										</keyframe>
										<keyframe>
											<when>167</when>
											<value>0.0636785</value>
										</keyframe>
										<keyframe>
											<when>197</when>
											<value>0.0212262</value>
										</keyframe>
										<keyframe>
											<when>364</when>
											<value>0.0212262</value>
										</keyframe>
										<keyframe>
											<when>451</when>
											<value>0</value>
										</keyframe>
										<keyframe>
											<when>518</when>
											<value>0</value>
										</keyframe>
										<keyframe>
											<when>541</when>
											<value>0</value>
										</keyframe>
										<keyframe>
											<when>773</when>
											<value>0</value>
										</keyframe>
										<keyframe>
											<when>1109</when>
											<value>0</value>
										</keyframe>
									</parameter>
								</effect>
							</filter>
						<link>
							<linkclipref>clipitem-1430</linkclipref>
							<mediatype>audio</mediatype>
							<trackindex>16</trackindex>
							<clipindex>11</clipindex>
							<groupindex>1</groupindex>
						</link>
						<link>
							<linkclipref>clipitem-1458</linkclipref>
							<mediatype>audio</mediatype>
							<trackindex>17</trackindex>
							<clipindex>11</clipindex>
							<groupindex>1</groupindex>
						</link>
						<logginginfo>
							<description></description>
							<scene></scene>
							<shottake></shottake>
							<lognote></lognote>
						</logginginfo>
						<labels>
							<label2>Iris</label2>
						</labels>
					</clipitem>
					<clipitem id="clipitem-1459" premiereChannelType="stereo">
						<masterclipid>masterclip-334</masterclipid>
						<name>AUXMP_SCDV055566_UPBEAT_PEOPLE_A.wav</name>
						<enabled>TRUE</enabled>
						<duration>2784</duration>
						<rate>
							<timebase>25</timebase>
							<ntsc>FALSE</ntsc>
						</rate>
						<start>26270</start>
						<end>26677</end>
						<in>2377</in>
						<out>2784</out>
						<pproTicksIn>24151841280000</pproTicksIn>
						<pproTicksOut>28287221760000</pproTicksOut>
						<file id="file-334"/>
						<sourcetrack>
							<mediatype>audio</mediatype>
							<trackindex>2</trackindex>
						</sourcetrack>
							<filter>
								<effect>
									<name>Audio Levels</name>
									<effectid>audiolevels</effectid>
									<effectcategory>audiolevels</effectcategory>
									<effecttype>audiolevels</effecttype>
									<mediatype>audio</mediatype>
									<parameter authoringApp="PremierePro">
										<parameterid>level</parameterid>
										<name>Level</name>
										<valuemin>0</valuemin>
										<valuemax>3.98109</valuemax>
										<value>0.239356</value>
										<keyframe>
											<when>83</when>
											<value>0.233488</value>
										</keyframe>
										<keyframe>
											<when>167</when>
											<value>0.0636785</value>
										</keyframe>
										<keyframe>
											<when>197</when>
											<value>0.0212262</value>
										</keyframe>
										<keyframe>
											<when>364</when>
											<value>0.0212262</value>
										</keyframe>
										<keyframe>
											<when>451</when>
											<value>0</value>
										</keyframe>
										<keyframe>
											<when>518</when>
											<value>0</value>
										</keyframe>
										<keyframe>
											<when>541</when>
											<value>0</value>
										</keyframe>
										<keyframe>
											<when>773</when>
											<value>0</value>
										</keyframe>
										<keyframe>
											<when>1109</when>
											<value>0.455059</value>
										</keyframe>
										<keyframe>
											<when>2379</when>
											<value>0</value>
										</keyframe>
										<keyframe>
											<when>2520</when>
											<value>0.0166343</value>
										</keyframe>
										<keyframe>
											<when>2577</when>
											<value>0.239356</value>
										</keyframe>
									</parameter>
								</effect>
							</filter>
						<link>
							<linkclipref>clipitem-1431</linkclipref>
							<mediatype>audio</mediatype>
							<trackindex>16</trackindex>
							<clipindex>12</clipindex>
							<groupindex>1</groupindex>
						</link>
						<link>
							<linkclipref>clipitem-1459</linkclipref>
							<mediatype>audio</mediatype>
							<trackindex>17</trackindex>
							<clipindex>12</clipindex>
							<groupindex>1</groupindex>
						</link>
						<logginginfo>
							<description></description>
							<scene></scene>
							<shottake></shottake>
							<lognote></lognote>
						</logginginfo>
						<labels>
							<label2>Iris</label2>
						</labels>
					</clipitem>
					<clipitem id="clipitem-1460" premiereChannelType="stereo">
						<masterclipid>masterclip-72</masterclipid>
						<name>DNPR65008515AA</name>
						<enabled>TRUE</enabled>
						<duration>89053</duration>
						<rate>
							<timebase>25</timebase>
							<ntsc>FALSE</ntsc>
						</rate>
						<start>28075</start>
						<end>28208</end>
						<in>44829</in>
						<out>44962</out>
						<pproTicksIn>455491330560000</pproTicksIn>
						<pproTicksOut>456842695680000</pproTicksOut>
						<file id="file-72"/>
						<sourcetrack>
							<mediatype>audio</mediatype>
							<trackindex>2</trackindex>
						</sourcetrack>
						<link>
							<linkclipref>clipitem-1432</linkclipref>
							<mediatype>audio</mediatype>
							<trackindex>16</trackindex>
							<clipindex>13</clipindex>
							<groupindex>1</groupindex>
						</link>
						<link>
							<linkclipref>clipitem-1460</linkclipref>
							<mediatype>audio</mediatype>
							<trackindex>17</trackindex>
							<clipindex>13</clipindex>
							<groupindex>1</groupindex>
						</link>
						<logginginfo>
							<description>Et eventyr gjennom linsa</description>
							<scene></scene>
							<shottake></shottake>
							<lognote></lognote>
						</logginginfo>
						<labels>
							<label2>Iris</label2>
						</labels>
					</clipitem>
					<clipitem id="clipitem-1461" premiereChannelType="stereo">
						<masterclipid>masterclip-335</masterclipid>
						<name>Daylight.mp3</name>
						<enabled>TRUE</enabled>
						<duration>4201</duration>
						<rate>
							<timebase>25</timebase>
							<ntsc>FALSE</ntsc>
						</rate>
						<start>35363</start>
						<end>36261</end>
						<in>2951</in>
						<out>3849</out>
						<pproTicksIn>29984048640000</pproTicksIn>
						<pproTicksOut>39108303360000</pproTicksOut>
						<file id="file-335"/>
						<sourcetrack>
							<mediatype>audio</mediatype>
							<trackindex>2</trackindex>
						</sourcetrack>
							<filter>
								<effect>
									<name>Audio Levels</name>
									<effectid>audiolevels</effectid>
									<effectcategory>audiolevels</effectcategory>
									<effecttype>audiolevels</effecttype>
									<mediatype>audio</mediatype>
									<parameter authoringApp="PremierePro">
										<parameterid>level</parameterid>
										<name>Level</name>
										<valuemin>0</valuemin>
										<valuemax>3.98109</valuemax>
										<value>0</value>
										<keyframe>
											<when>2953</when>
											<value>0</value>
										</keyframe>
										<keyframe>
											<when>2973</when>
											<value>0.65945</value>
										</keyframe>
										<keyframe>
											<when>3439</when>
											<value>0.65945</value>
										</keyframe>
										<keyframe>
											<when>3505</when>
											<value>0.673702</value>
										</keyframe>
										<keyframe>
											<when>3564</when>
											<value>0.390115</value>
										</keyframe>
										<keyframe>
											<when>3608</when>
											<value>0.0739394</value>
										</keyframe>
										<keyframe>
											<when>3667</when>
											<value>0</value>
										</keyframe>
										<keyframe>
											<when>3829</when>
											<value>0</value>
										</keyframe>
									</parameter>
								</effect>
							</filter>
						<link>
							<linkclipref>clipitem-1433</linkclipref>
							<mediatype>audio</mediatype>
							<trackindex>16</trackindex>
							<clipindex>14</clipindex>
							<groupindex>1</groupindex>
						</link>
						<link>
							<linkclipref>clipitem-1461</linkclipref>
							<mediatype>audio</mediatype>
							<trackindex>17</trackindex>
							<clipindex>14</clipindex>
							<groupindex>1</groupindex>
						</link>
						<logginginfo>
							<description></description>
							<scene></scene>
							<shottake></shottake>
							<lognote></lognote>
						</logginginfo>
						<labels>
							<label2>Caribbean</label2>
						</labels>
					</clipitem>
					<clipitem id="clipitem-1462" premiereChannelType="stereo">
						<masterclipid>masterclip-336</masterclipid>
						<name>AUXMP_SCDV034403_STRINGS_POSITIVE_C.wav</name>
						<enabled>TRUE</enabled>
						<duration>5044</duration>
						<rate>
							<timebase>25</timebase>
							<ntsc>FALSE</ntsc>
						</rate>
						<start>37276</start>
						<end>38237</end>
						<in>189</in>
						<out>1150</out>
						<pproTicksIn>1920360960000</pproTicksIn>
						<pproTicksOut>11684736000000</pproTicksOut>
						<file id="file-336"/>
						<sourcetrack>
							<mediatype>audio</mediatype>
							<trackindex>2</trackindex>
						</sourcetrack>
							<filter>
								<effect>
									<name>Gain</name>
									<effectid>{61756678, 4761696e, 4b657947}</effectid>
									<effecttype>filter</effecttype>
									<mediatype>audio</mediatype>
									<parameter authoringApp="PremierePro">
										<parameterid>Gain(dB)</parameterid>
										<name>Gain(dB)</name>
										<valuemin>-96</valuemin>
										<valuemax>96</valuemax>
										<value>-5</value>
									</parameter>
								</effect>
							</filter>
							<filter>
								<effect>
									<name>Audio Levels</name>
									<effectid>audiolevels</effectid>
									<effectcategory>audiolevels</effectcategory>
									<effecttype>audiolevels</effecttype>
									<mediatype>audio</mediatype>
									<parameter authoringApp="PremierePro">
										<parameterid>level</parameterid>
										<name>Level</name>
										<valuemin>0</valuemin>
										<valuemax>3.98109</valuemax>
										<value>0</value>
										<keyframe>
											<when>236</when>
											<value>0.106131</value>
										</keyframe>
										<keyframe>
											<when>289</when>
											<value>0.700464</value>
										</keyframe>
										<keyframe>
											<when>798</when>
											<value>0.700464</value>
										</keyframe>
										<keyframe>
											<when>898</when>
											<value>0.233488</value>
										</keyframe>
										<keyframe>
											<when>944</when>
											<value>0.106131</value>
										</keyframe>
										<keyframe>
											<when>1068</when>
											<value>0</value>
										</keyframe>
									</parameter>
								</effect>
							</filter>
						<link>
							<linkclipref>clipitem-1434</linkclipref>
							<mediatype>audio</mediatype>
							<trackindex>16</trackindex>
							<clipindex>15</clipindex>
							<groupindex>1</groupindex>
						</link>
						<link>
							<linkclipref>clipitem-1462</linkclipref>
							<mediatype>audio</mediatype>
							<trackindex>17</trackindex>
							<clipindex>15</clipindex>
							<groupindex>1</groupindex>
						</link>
						<logginginfo>
							<description></description>
							<scene></scene>
							<shottake></shottake>
							<lognote></lognote>
						</logginginfo>
						<labels>
							<label2>Iris</label2>
						</labels>
					</clipitem>
					<clipitem id="clipitem-1463" premiereChannelType="stereo">
						<masterclipid>masterclip-336</masterclipid>
						<name>AUXMP_SCDV034403_STRINGS_POSITIVE_C.wav</name>
						<enabled>TRUE</enabled>
						<duration>5044</duration>
						<rate>
							<timebase>25</timebase>
							<ntsc>FALSE</ntsc>
						</rate>
						<start>44322</start>
						<end>45442</end>
						<in>0</in>
						<out>1120</out>
						<pproTicksIn>0</pproTicksIn>
						<pproTicksOut>11379916800000</pproTicksOut>
						<file id="file-336"/>
						<sourcetrack>
							<mediatype>audio</mediatype>
							<trackindex>2</trackindex>
						</sourcetrack>
							<filter>
								<effect>
									<name>Gain</name>
									<effectid>{61756678, 4761696e, 4b657947}</effectid>
									<effecttype>filter</effecttype>
									<mediatype>audio</mediatype>
									<parameter authoringApp="PremierePro">
										<parameterid>Gain(dB)</parameterid>
										<name>Gain(dB)</name>
										<valuemin>-96</valuemin>
										<valuemax>96</valuemax>
										<value>-5</value>
									</parameter>
								</effect>
							</filter>
							<filter>
								<effect>
									<name>Audio Levels</name>
									<effectid>audiolevels</effectid>
									<effectcategory>audiolevels</effectcategory>
									<effecttype>audiolevels</effecttype>
									<mediatype>audio</mediatype>
									<parameter authoringApp="PremierePro">
										<parameterid>level</parameterid>
										<name>Level</name>
										<valuemin>0</valuemin>
										<valuemax>3.98109</valuemax>
										<value>0</value>
										<keyframe>
											<when>57</when>
											<value>0.0424523</value>
										</keyframe>
										<keyframe>
											<when>219</when>
											<value>0.658011</value>
										</keyframe>
										<keyframe>
											<when>316</when>
											<value>0.615559</value>
										</keyframe>
										<keyframe>
											<when>333</when>
											<value>0.99763</value>
										</keyframe>
										<keyframe>
											<when>806</when>
											<value>0.99763</value>
										</keyframe>
										<keyframe>
											<when>895</when>
											<value>0.44575</value>
										</keyframe>
										<keyframe>
											<when>1049</when>
											<value>0</value>
										</keyframe>
									</parameter>
								</effect>
							</filter>
						<link>
							<linkclipref>clipitem-1435</linkclipref>
							<mediatype>audio</mediatype>
							<trackindex>16</trackindex>
							<clipindex>16</clipindex>
							<groupindex>1</groupindex>
						</link>
						<link>
							<linkclipref>clipitem-1463</linkclipref>
							<mediatype>audio</mediatype>
							<trackindex>17</trackindex>
							<clipindex>16</clipindex>
							<groupindex>1</groupindex>
						</link>
						<logginginfo>
							<description></description>
							<scene></scene>
							<shottake></shottake>
							<lognote></lognote>
						</logginginfo>
						<labels>
							<label2>Iris</label2>
						</labels>
					</clipitem>
					<clipitem id="clipitem-1464" premiereChannelType="stereo">
						<masterclipid>masterclip-337</masterclipid>
						<name>AUXMP_MML017401_LONE_TRAVELLER.wav</name>
						<enabled>TRUE</enabled>
						<duration>6082</duration>
						<rate>
							<timebase>25</timebase>
							<ntsc>FALSE</ntsc>
						</rate>
						<start>52088</start>
						<end>53045</end>
						<in>168</in>
						<out>1125</out>
						<pproTicksIn>1706987520000</pproTicksIn>
						<pproTicksOut>11430720000000</pproTicksOut>
						<file id="file-337"/>
						<sourcetrack>
							<mediatype>audio</mediatype>
							<trackindex>2</trackindex>
						</sourcetrack>
							<filter>
								<effect>
									<name>Gain</name>
									<effectid>{61756678, 4761696e, 4b657947}</effectid>
									<effecttype>filter</effecttype>
									<mediatype>audio</mediatype>
									<parameter authoringApp="PremierePro">
										<parameterid>Gain(dB)</parameterid>
										<name>Gain(dB)</name>
										<valuemin>-96</valuemin>
										<valuemax>96</valuemax>
										<value>-10</value>
									</parameter>
								</effect>
							</filter>
							<filter>
								<effect>
									<name>Audio Levels</name>
									<effectid>audiolevels</effectid>
									<effectcategory>audiolevels</effectcategory>
									<effecttype>audiolevels</effecttype>
									<mediatype>audio</mediatype>
									<parameter authoringApp="PremierePro">
										<parameterid>level</parameterid>
										<name>Level</name>
										<valuemin>0</valuemin>
										<valuemax>3.98109</valuemax>
										<value>0</value>
										<keyframe>
											<when>180</when>
											<value>0</value>
										</keyframe>
										<keyframe>
											<when>300</when>
											<value>0.0838434</value>
										</keyframe>
										<keyframe>
											<when>571</when>
											<value>0.133725</value>
										</keyframe>
										<keyframe>
											<when>626</when>
											<value>0.827821</value>
										</keyframe>
										<keyframe>
											<when>822</when>
											<value>0.827821</value>
										</keyframe>
										<keyframe>
											<when>895</when>
											<value>0.573107</value>
										</keyframe>
										<keyframe>
											<when>1023</when>
											<value>0</value>
										</keyframe>
									</parameter>
								</effect>
							</filter>
						<link>
							<linkclipref>clipitem-1436</linkclipref>
							<mediatype>audio</mediatype>
							<trackindex>16</trackindex>
							<clipindex>17</clipindex>
							<groupindex>1</groupindex>
						</link>
						<link>
							<linkclipref>clipitem-1464</linkclipref>
							<mediatype>audio</mediatype>
							<trackindex>17</trackindex>
							<clipindex>17</clipindex>
							<groupindex>1</groupindex>
						</link>
						<logginginfo>
							<description></description>
							<scene></scene>
							<shottake></shottake>
							<lognote></lognote>
						</logginginfo>
						<labels>
							<label2>Iris</label2>
						</labels>
					</clipitem>
					<clipitem id="clipitem-1465" premiereChannelType="stereo">
						<masterclipid>masterclip-336</masterclipid>
						<name>AUXMP_SCDV034403_STRINGS_POSITIVE_C.wav</name>
						<enabled>TRUE</enabled>
						<duration>5044</duration>
						<rate>
							<timebase>25</timebase>
							<ntsc>FALSE</ntsc>
						</rate>
						<start>57831</start>
						<end>58647</end>
						<in>4189</in>
						<out>5006</out>
						<pproTicksIn>42562920960000</pproTicksIn>
						<pproTicksOut>50864163840000</pproTicksOut>
						<file id="file-336"/>
						<sourcetrack>
							<mediatype>audio</mediatype>
							<trackindex>2</trackindex>
						</sourcetrack>
							<filter>
								<effect>
									<name>Gain</name>
									<effectid>{61756678, 4761696e, 4b657947}</effectid>
									<effecttype>filter</effecttype>
									<mediatype>audio</mediatype>
									<parameter authoringApp="PremierePro">
										<parameterid>Gain(dB)</parameterid>
										<name>Gain(dB)</name>
										<valuemin>-96</valuemin>
										<valuemax>96</valuemax>
										<value>-5</value>
									</parameter>
								</effect>
							</filter>
							<filter>
								<effect>
									<name>Audio Levels</name>
									<effectid>audiolevels</effectid>
									<effectcategory>audiolevels</effectcategory>
									<effecttype>audiolevels</effecttype>
									<mediatype>audio</mediatype>
									<parameter authoringApp="PremierePro">
										<parameterid>level</parameterid>
										<name>Level</name>
										<valuemin>0</valuemin>
										<valuemax>3.98109</valuemax>
										<value>0.742916</value>
										<keyframe>
											<when>4282</when>
											<value>0</value>
										</keyframe>
										<keyframe>
											<when>4345</when>
											<value>0.0636785</value>
										</keyframe>
										<keyframe>
											<when>4608</when>
											<value>0.126296</value>
										</keyframe>
										<keyframe>
											<when>4666</when>
											<value>0.293982</value>
										</keyframe>
										<keyframe>
											<when>4699</when>
											<value>0.742916</value>
										</keyframe>
									</parameter>
								</effect>
							</filter>
						<link>
							<linkclipref>clipitem-1437</linkclipref>
							<mediatype>audio</mediatype>
							<trackindex>16</trackindex>
							<clipindex>18</clipindex>
							<groupindex>1</groupindex>
						</link>
						<link>
							<linkclipref>clipitem-1465</linkclipref>
							<mediatype>audio</mediatype>
							<trackindex>17</trackindex>
							<clipindex>18</clipindex>
							<groupindex>1</groupindex>
						</link>
						<logginginfo>
							<description></description>
							<scene></scene>
							<shottake></shottake>
							<lognote></lognote>
						</logginginfo>
						<labels>
							<label2>Iris</label2>
						</labels>
					</clipitem>
					<clipitem id="clipitem-1466" premiereChannelType="stereo">
						<masterclipid>masterclip-330</masterclipid>
						<name>NATURLIGHELAFTEN-Clean.wav</name>
						<enabled>TRUE</enabled>
						<duration>151</duration>
						<rate>
							<timebase>25</timebase>
							<ntsc>FALSE</ntsc>
						</rate>
						<start>58851</start>
						<end>58993</end>
						<in>0</in>
						<out>142</out>
						<pproTicksIn>0</pproTicksIn>
						<pproTicksOut>1442810880000</pproTicksOut>
						<file id="file-330"/>
						<sourcetrack>
							<mediatype>audio</mediatype>
							<trackindex>2</trackindex>
						</sourcetrack>
							<filter>
								<effect>
									<name>Audio Levels</name>
									<effectid>audiolevels</effectid>
									<effectcategory>audiolevels</effectcategory>
									<effecttype>audiolevels</effecttype>
									<mediatype>audio</mediatype>
									<parameter authoringApp="PremierePro">
										<parameterid>level</parameterid>
										<name>Level</name>
										<valuemin>0</valuemin>
										<valuemax>3.98109</valuemax>
										<value>0.313699</value>
									</parameter>
								</effect>
							</filter>
						<link>
							<linkclipref>clipitem-1438</linkclipref>
							<mediatype>audio</mediatype>
							<trackindex>16</trackindex>
							<clipindex>19</clipindex>
							<groupindex>1</groupindex>
						</link>
						<link>
							<linkclipref>clipitem-1466</linkclipref>
							<mediatype>audio</mediatype>
							<trackindex>17</trackindex>
							<clipindex>19</clipindex>
							<groupindex>1</groupindex>
						</link>
						<logginginfo>
							<description></description>
							<scene></scene>
							<shottake></shottake>
							<lognote></lognote>
						</logginginfo>
						<labels>
							<label2>Iris</label2>
						</labels>
					</clipitem>
					<clipitem id="clipitem-1467" premiereChannelType="stereo">
						<masterclipid>masterclip-330</masterclipid>
						<name>NATURLIGHELAFTEN-Clean.wav</name>
						<enabled>TRUE</enabled>
						<duration>151</duration>
						<rate>
							<timebase>25</timebase>
							<ntsc>FALSE</ntsc>
						</rate>
						<start>59873</start>
						<end>60015</end>
						<in>0</in>
						<out>142</out>
						<pproTicksIn>0</pproTicksIn>
						<pproTicksOut>1442810880000</pproTicksOut>
						<file id="file-330"/>
						<sourcetrack>
							<mediatype>audio</mediatype>
							<trackindex>2</trackindex>
						</sourcetrack>
							<filter>
								<effect>
									<name>Audio Levels</name>
									<effectid>audiolevels</effectid>
									<effectcategory>audiolevels</effectcategory>
									<effecttype>audiolevels</effecttype>
									<mediatype>audio</mediatype>
									<parameter authoringApp="PremierePro">
										<parameterid>level</parameterid>
										<name>Level</name>
										<valuemin>0</valuemin>
										<valuemax>3.98109</valuemax>
										<value>0.24764</value>
									</parameter>
								</effect>
							</filter>
						<link>
							<linkclipref>clipitem-1439</linkclipref>
							<mediatype>audio</mediatype>
							<trackindex>16</trackindex>
							<clipindex>20</clipindex>
							<groupindex>1</groupindex>
						</link>
						<link>
							<linkclipref>clipitem-1467</linkclipref>
							<mediatype>audio</mediatype>
							<trackindex>17</trackindex>
							<clipindex>20</clipindex>
							<groupindex>1</groupindex>
						</link>
						<logginginfo>
							<description></description>
							<scene></scene>
							<shottake></shottake>
							<lognote></lognote>
						</logginginfo>
						<labels>
							<label2>Iris</label2>
						</labels>
					</clipitem>
					<clipitem id="clipitem-1468" premiereChannelType="stereo">
						<masterclipid>masterclip-330</masterclipid>
						<name>NATURLIGHELAFTEN-Clean.wav</name>
						<enabled>TRUE</enabled>
						<duration>151</duration>
						<rate>
							<timebase>25</timebase>
							<ntsc>FALSE</ntsc>
						</rate>
						<start>60890</start>
						<end>61041</end>
						<in>0</in>
						<out>151</out>
						<pproTicksIn>0</pproTicksIn>
						<pproTicksOut>1534256640000</pproTicksOut>
						<file id="file-330"/>
						<sourcetrack>
							<mediatype>audio</mediatype>
							<trackindex>2</trackindex>
						</sourcetrack>
							<filter>
								<effect>
									<name>Audio Levels</name>
									<effectid>audiolevels</effectid>
									<effectcategory>audiolevels</effectcategory>
									<effecttype>audiolevels</effecttype>
									<mediatype>audio</mediatype>
									<parameter authoringApp="PremierePro">
										<parameterid>level</parameterid>
										<name>Level</name>
										<valuemin>0</valuemin>
										<valuemax>3.98109</valuemax>
										<value>0.24764</value>
									</parameter>
								</effect>
							</filter>
						<link>
							<linkclipref>clipitem-1440</linkclipref>
							<mediatype>audio</mediatype>
							<trackindex>16</trackindex>
							<clipindex>21</clipindex>
							<groupindex>1</groupindex>
						</link>
						<link>
							<linkclipref>clipitem-1468</linkclipref>
							<mediatype>audio</mediatype>
							<trackindex>17</trackindex>
							<clipindex>21</clipindex>
							<groupindex>1</groupindex>
						</link>
						<logginginfo>
							<description></description>
							<scene></scene>
							<shottake></shottake>
							<lognote></lognote>
						</logginginfo>
						<labels>
							<label2>Iris</label2>
						</labels>
					</clipitem>
					<clipitem id="clipitem-1469" premiereChannelType="stereo">
						<masterclipid>masterclip-330</masterclipid>
						<name>NATURLIGHELAFTEN-Clean.wav</name>
						<enabled>TRUE</enabled>
						<duration>151</duration>
						<rate>
							<timebase>25</timebase>
							<ntsc>FALSE</ntsc>
						</rate>
						<start>62302</start>
						<end>62381</end>
						<in>0</in>
						<out>79</out>
						<pproTicksIn>0</pproTicksIn>
						<pproTicksOut>802690560000</pproTicksOut>
						<file id="file-330"/>
						<sourcetrack>
							<mediatype>audio</mediatype>
							<trackindex>2</trackindex>
						</sourcetrack>
							<filter>
								<effect>
									<name>Audio Levels</name>
									<effectid>audiolevels</effectid>
									<effectcategory>audiolevels</effectcategory>
									<effecttype>audiolevels</effecttype>
									<mediatype>audio</mediatype>
									<parameter authoringApp="PremierePro">
										<parameterid>level</parameterid>
										<name>Level</name>
										<valuemin>0</valuemin>
										<valuemax>3.98109</valuemax>
										<value>0.24764</value>
									</parameter>
								</effect>
							</filter>
						<link>
							<linkclipref>clipitem-1441</linkclipref>
							<mediatype>audio</mediatype>
							<trackindex>16</trackindex>
							<clipindex>22</clipindex>
							<groupindex>1</groupindex>
						</link>
						<link>
							<linkclipref>clipitem-1469</linkclipref>
							<mediatype>audio</mediatype>
							<trackindex>17</trackindex>
							<clipindex>22</clipindex>
							<groupindex>1</groupindex>
						</link>
						<logginginfo>
							<description></description>
							<scene></scene>
							<shottake></shottake>
							<lognote></lognote>
						</logginginfo>
						<labels>
							<label2>Iris</label2>
						</labels>
					</clipitem>
					<clipitem id="clipitem-1470" premiereChannelType="stereo">
						<masterclipid>masterclip-338</masterclipid>
						<name>AUXMP_SCDV054331_TAKE_A_LOAD_OFF_C.wav</name>
						<enabled>TRUE</enabled>
						<duration>4296</duration>
						<rate>
							<timebase>25</timebase>
							<ntsc>FALSE</ntsc>
						</rate>
						<start>64006</start>
						<end>65472</end>
						<in>0</in>
						<out>1466</out>
						<pproTicksIn>0</pproTicksIn>
						<pproTicksOut>14895498240000</pproTicksOut>
						<file id="file-338"/>
						<sourcetrack>
							<mediatype>audio</mediatype>
							<trackindex>2</trackindex>
						</sourcetrack>
							<filter>
								<effect>
									<name>Audio Levels</name>
									<effectid>audiolevels</effectid>
									<effectcategory>audiolevels</effectcategory>
									<effecttype>audiolevels</effecttype>
									<mediatype>audio</mediatype>
									<parameter authoringApp="PremierePro">
										<parameterid>level</parameterid>
										<name>Level</name>
										<valuemin>0</valuemin>
										<valuemax>3.98109</valuemax>
										<value>0</value>
										<keyframe>
											<when>249</when>
											<value>0.472562</value>
										</keyframe>
										<keyframe>
											<when>288</when>
											<value>0.266885</value>
										</keyframe>
										<keyframe>
											<when>444</when>
											<value>0.0350046</value>
										</keyframe>
										<keyframe>
											<when>741</when>
											<value>0.0424523</value>
										</keyframe>
										<keyframe>
											<when>759</when>
											<value>0.417076</value>
										</keyframe>
										<keyframe>
											<when>858</when>
											<value>0.414913</value>
										</keyframe>
										<keyframe>
											<when>885</when>
											<value>0.0722323</value>
										</keyframe>
										<keyframe>
											<when>1050</when>
											<value>0.0397074</value>
										</keyframe>
										<keyframe>
											<when>1066</when>
											<value>0.353714</value>
										</keyframe>
										<keyframe>
											<when>1163</when>
											<value>0.353718</value>
										</keyframe>
										<keyframe>
											<when>1209</when>
											<value>0.0499454</value>
										</keyframe>
										<keyframe>
											<when>1266</when>
											<value>0.0350046</value>
										</keyframe>
										<keyframe>
											<when>1315</when>
											<value>0.0424523</value>
										</keyframe>
										<keyframe>
											<when>1444</when>
											<value>0</value>
										</keyframe>
									</parameter>
								</effect>
							</filter>
						<link>
							<linkclipref>clipitem-1442</linkclipref>
							<mediatype>audio</mediatype>
							<trackindex>16</trackindex>
							<clipindex>23</clipindex>
							<groupindex>1</groupindex>
						</link>
						<link>
							<linkclipref>clipitem-1470</linkclipref>
							<mediatype>audio</mediatype>
							<trackindex>17</trackindex>
							<clipindex>23</clipindex>
							<groupindex>1</groupindex>
						</link>
						<logginginfo>
							<description></description>
							<scene></scene>
							<shottake></shottake>
							<lognote></lognote>
						</logginginfo>
						<labels>
							<label2>Iris</label2>
						</labels>
					</clipitem>
					<clipitem id="clipitem-1471" premiereChannelType="stereo">
						<masterclipid>masterclip-329</masterclipid>
						<name>Nordvisjon-MASTER-vr3-201016-ny-kommentar.wav</name>
						<enabled>TRUE</enabled>
						<duration>42953</duration>
						<rate>
							<timebase>25</timebase>
							<ntsc>FALSE</ntsc>
						</rate>
						<start>75079</start>
						<end>-1</end>
						<in>21907</in>
						<out>22209</out>
						<pproTicksIn>222589140480000</pproTicksIn>
						<pproTicksOut>225657653760000</pproTicksOut>
						<file id="file-329"/>
						<sourcetrack>
							<mediatype>audio</mediatype>
							<trackindex>2</trackindex>
						</sourcetrack>
							<marker>
								<comment></comment>
								<name></name>
								<in>40399</in>
								<out>-1</out>
							</marker>
							<marker>
								<comment></comment>
								<name></name>
								<in>3092</in>
								<out>-1</out>
							</marker>
							<marker>
								<comment></comment>
								<name></name>
								<in>36054</in>
								<out>-1</out>
							</marker>
							<marker>
								<comment></comment>
								<name></name>
								<in>0</in>
								<out>-1</out>
							</marker>
						<link>
							<linkclipref>clipitem-1443</linkclipref>
							<mediatype>audio</mediatype>
							<trackindex>16</trackindex>
							<clipindex>24</clipindex>
							<groupindex>1</groupindex>
						</link>
						<link>
							<linkclipref>clipitem-1471</linkclipref>
							<mediatype>audio</mediatype>
							<trackindex>17</trackindex>
							<clipindex>24</clipindex>
							<groupindex>1</groupindex>
						</link>
						<logginginfo>
							<description></description>
							<scene></scene>
							<shottake></shottake>
							<lognote></lognote>
						</logginginfo>
						<labels>
							<label2>Iris</label2>
						</labels>
					</clipitem>
					<transitionitem>
						<start>75368</start>
						<end>75381</end>
						<alignment>center</alignment>
						<cutPointTicks>60963840000</cutPointTicks>
						<rate>
							<timebase>25</timebase>
							<ntsc>FALSE</ntsc>
						</rate>
						<effect>
							<name>Cross Fade (+3dB)</name>
							<effectid>KGAudioTransCrossFade3dB</effectid>
							<effecttype>transition</effecttype>
							<mediatype>audio</mediatype>
							<wipecode>0</wipecode>
							<wipeaccuracy>100</wipeaccuracy>
							<startratio>0</startratio>
							<endratio>1</endratio>
							<reverse>FALSE</reverse>
						</effect>
					</transitionitem>
					<clipitem id="clipitem-1472" premiereChannelType="stereo">
						<masterclipid>masterclip-333</masterclipid>
						<name>Nordvisjon2MASTER_musikk.wav</name>
						<enabled>TRUE</enabled>
						<duration>45037</duration>
						<rate>
							<timebase>25</timebase>
							<ntsc>FALSE</ntsc>
						</rate>
						<start>-1</start>
						<end>76925</end>
						<in>13641</in>
						<out>15198</out>
						<pproTicksIn>138601290240000</pproTicksIn>
						<pproTicksOut>154421406720000</pproTicksOut>
						<file id="file-333"/>
						<sourcetrack>
							<mediatype>audio</mediatype>
							<trackindex>2</trackindex>
						</sourcetrack>
							<filter>
								<effect>
									<name>Audio Levels</name>
									<effectid>audiolevels</effectid>
									<effectcategory>audiolevels</effectcategory>
									<effecttype>audiolevels</effecttype>
									<mediatype>audio</mediatype>
									<parameter authoringApp="PremierePro">
										<parameterid>level</parameterid>
										<name>Level</name>
										<valuemin>0</valuemin>
										<valuemax>3.98109</valuemax>
										<value>0</value>
										<keyframe>
											<when>14107</when>
											<value>0</value>
										</keyframe>
										<keyframe>
											<when>14153</when>
											<value>0.743558</value>
										</keyframe>
										<keyframe>
											<when>14330</when>
											<value>0.741266</value>
										</keyframe>
										<keyframe>
											<when>14394</when>
											<value>0</value>
										</keyframe>
										<keyframe>
											<when>14653</when>
											<value>0</value>
										</keyframe>
										<keyframe>
											<when>15529</when>
											<value>0.99763</value>
										</keyframe>
										<keyframe>
											<when>15565</when>
											<value>0.332543</value>
										</keyframe>
										<keyframe>
											<when>15688</when>
											<value>0.332543</value>
										</keyframe>
										<keyframe>
											<when>15741</when>
											<value>0</value>
										</keyframe>
									</parameter>
								</effect>
							</filter>
						<link>
							<linkclipref>clipitem-1444</linkclipref>
							<mediatype>audio</mediatype>
							<trackindex>16</trackindex>
							<clipindex>26</clipindex>
							<groupindex>1</groupindex>
						</link>
						<link>
							<linkclipref>clipitem-1472</linkclipref>
							<mediatype>audio</mediatype>
							<trackindex>17</trackindex>
							<clipindex>26</clipindex>
							<groupindex>1</groupindex>
						</link>
						<logginginfo>
							<description></description>
							<scene></scene>
							<shottake></shottake>
							<lognote></lognote>
						</logginginfo>
						<labels>
							<label2>Iris</label2>
						</labels>
					</clipitem>
					<clipitem id="clipitem-1473" premiereChannelType="stereo">
						<masterclipid>masterclip-333</masterclipid>
						<name>Nordvisjon2MASTER_musikk.wav</name>
						<enabled>TRUE</enabled>
						<duration>45037</duration>
						<rate>
							<timebase>25</timebase>
							<ntsc>FALSE</ntsc>
						</rate>
						<start>85548</start>
						<end>87600</end>
						<in>40324</in>
						<out>42376</out>
						<pproTicksIn>409717647360000</pproTicksIn>
						<pproTicksOut>430567280640000</pproTicksOut>
						<file id="file-333"/>
						<sourcetrack>
							<mediatype>audio</mediatype>
							<trackindex>2</trackindex>
						</sourcetrack>
							<filter>
								<effect>
									<name>Audio Levels</name>
									<effectid>audiolevels</effectid>
									<effectcategory>audiolevels</effectcategory>
									<effecttype>audiolevels</effecttype>
									<mediatype>audio</mediatype>
									<parameter authoringApp="PremierePro">
										<parameterid>level</parameterid>
										<name>Level</name>
										<valuemin>0</valuemin>
										<valuemax>3.98109</valuemax>
										<value>0.512296</value>
										<keyframe>
											<when>42110</when>
											<value>0.512296</value>
										</keyframe>
										<keyframe>
											<when>42141</when>
											<value>0</value>
										</keyframe>
										<keyframe>
											<when>42200</when>
											<value>0</value>
										</keyframe>
										<keyframe>
											<when>42379</when>
											<value>0</value>
										</keyframe>
										<keyframe>
											<when>42589</when>
											<value>0</value>
										</keyframe>
										<keyframe>
											<when>42873</when>
											<value>0</value>
										</keyframe>
										<keyframe>
											<when>43019</when>
											<value>0</value>
										</keyframe>
									</parameter>
								</effect>
							</filter>
						<link>
							<linkclipref>clipitem-1445</linkclipref>
							<mediatype>audio</mediatype>
							<trackindex>16</trackindex>
							<clipindex>27</clipindex>
							<groupindex>1</groupindex>
						</link>
						<link>
							<linkclipref>clipitem-1473</linkclipref>
							<mediatype>audio</mediatype>
							<trackindex>17</trackindex>
							<clipindex>27</clipindex>
							<groupindex>1</groupindex>
						</link>
						<logginginfo>
							<description></description>
							<scene></scene>
							<shottake></shottake>
							<lognote></lognote>
						</logginginfo>
						<labels>
							<label2>Iris</label2>
						</labels>
					</clipitem>
					<clipitem id="clipitem-1474" premiereChannelType="stereo">
						<masterclipid>masterclip-333</masterclipid>
						<name>Nordvisjon2MASTER_musikk.wav</name>
						<enabled>TRUE</enabled>
						<duration>45037</duration>
						<rate>
							<timebase>25</timebase>
							<ntsc>FALSE</ntsc>
						</rate>
						<start>87600</start>
						<end>89546</end>
						<in>42410</in>
						<out>44356</out>
						<pproTicksIn>430912742400000</pproTicksIn>
						<pproTicksOut>450685347840000</pproTicksOut>
						<file id="file-333"/>
						<sourcetrack>
							<mediatype>audio</mediatype>
							<trackindex>2</trackindex>
						</sourcetrack>
							<filter>
								<effect>
									<name>Audio Levels</name>
									<effectid>audiolevels</effectid>
									<effectcategory>audiolevels</effectcategory>
									<effecttype>audiolevels</effecttype>
									<mediatype>audio</mediatype>
									<parameter authoringApp="PremierePro">
										<parameterid>level</parameterid>
										<name>Level</name>
										<valuemin>0</valuemin>
										<valuemax>3.98109</valuemax>
										<value>0</value>
										<keyframe>
											<when>42411</when>
											<value>0</value>
										</keyframe>
										<keyframe>
											<when>42426</when>
											<value>0.792446</value>
										</keyframe>
										<keyframe>
											<when>43844</when>
											<value>0.792446</value>
										</keyframe>
										<keyframe>
											<when>44106</when>
											<value>0</value>
										</keyframe>
									</parameter>
								</effect>
							</filter>
						<link>
							<linkclipref>clipitem-1446</linkclipref>
							<mediatype>audio</mediatype>
							<trackindex>16</trackindex>
							<clipindex>28</clipindex>
							<groupindex>1</groupindex>
						</link>
						<link>
							<linkclipref>clipitem-1474</linkclipref>
							<mediatype>audio</mediatype>
							<trackindex>17</trackindex>
							<clipindex>28</clipindex>
							<groupindex>1</groupindex>
						</link>
						<logginginfo>
							<description></description>
							<scene></scene>
							<shottake></shottake>
							<lognote></lognote>
						</logginginfo>
						<labels>
							<label2>Iris</label2>
						</labels>
					</clipitem>
					<clipitem id="clipitem-1475" premiereChannelType="stereo">
						<masterclipid>masterclip-332</masterclipid>
						<name>Nordvisjon-MASTER-vr3-201016-ny-musikk.wav</name>
						<enabled>TRUE</enabled>
						<duration>43741</duration>
						<rate>
							<timebase>25</timebase>
							<ntsc>FALSE</ntsc>
						</rate>
						<start>95962</start>
						<end>96929</end>
						<in>23861</in>
						<out>24828</out>
						<pproTicksIn>242443031040000</pproTicksIn>
						<pproTicksOut>252268369920000</pproTicksOut>
						<file id="file-332"/>
						<sourcetrack>
							<mediatype>audio</mediatype>
							<trackindex>2</trackindex>
						</sourcetrack>
							<filter>
								<effect>
									<name>Audio Levels</name>
									<effectid>audiolevels</effectid>
									<effectcategory>audiolevels</effectcategory>
									<effecttype>audiolevels</effecttype>
									<mediatype>audio</mediatype>
									<parameter authoringApp="PremierePro">
										<parameterid>level</parameterid>
										<name>Level</name>
										<valuemin>0</valuemin>
										<valuemax>3.98109</valuemax>
										<value>0.406442</value>
										<keyframe>
											<when>24105</when>
											<value>0.406442</value>
										</keyframe>
										<keyframe>
											<when>24209</when>
											<value>0.99763</value>
										</keyframe>
										<keyframe>
											<when>24607</when>
											<value>0.99763</value>
										</keyframe>
										<keyframe>
											<when>24811</when>
											<value>0</value>
										</keyframe>
									</parameter>
								</effect>
							</filter>
							<marker>
								<comment></comment>
								<name></name>
								<in>40399</in>
								<out>-1</out>
							</marker>
							<marker>
								<comment></comment>
								<name></name>
								<in>3092</in>
								<out>-1</out>
							</marker>
							<marker>
								<comment></comment>
								<name></name>
								<in>36054</in>
								<out>-1</out>
							</marker>
							<marker>
								<comment></comment>
								<name></name>
								<in>0</in>
								<out>-1</out>
							</marker>
						<link>
							<linkclipref>clipitem-1447</linkclipref>
							<mediatype>audio</mediatype>
							<trackindex>16</trackindex>
							<clipindex>29</clipindex>
							<groupindex>1</groupindex>
						</link>
						<link>
							<linkclipref>clipitem-1475</linkclipref>
							<mediatype>audio</mediatype>
							<trackindex>17</trackindex>
							<clipindex>29</clipindex>
							<groupindex>1</groupindex>
						</link>
						<logginginfo>
							<description></description>
							<scene></scene>
							<shottake></shottake>
							<lognote></lognote>
						</logginginfo>
						<labels>
							<label2>Iris</label2>
						</labels>
					</clipitem>
					<enabled>TRUE</enabled>
					<locked>FALSE</locked>
					<outputchannelindex>2</outputchannelindex>
				</track>
				<track TL.SQTrackAudioKeyframeStyle="0" TL.SQTrackShy="0" TL.SQTrackExpandedHeight="58" TL.SQTrackExpanded="1" MZ.TrackTargeted="0" PannerCurrentValue="0.5" PannerIsInverted="true" PannerStartKeyframe="-91445760000000000,0.5,0,0,0,0,0,0" PannerName="Balance" currentExplodedTrackIndex="0" totalExplodedTrackCount="2" premiereTrackType="Stereo">
					<clipitem id="clipitem-1476" premiereChannelType="stereo">
						<masterclipid>masterclip-325</masterclipid>
						<name>AUXMP_RSM009804_SHARK_ATTACK.mp3</name>
						<enabled>TRUE</enabled>
						<duration>1490</duration>
						<rate>
							<timebase>25</timebase>
							<ntsc>FALSE</ntsc>
						</rate>
						<start>5741</start>
						<end>5962</end>
						<in>0</in>
						<out>221</out>
						<pproTicksIn>0</pproTicksIn>
						<pproTicksOut>2245501440000</pproTicksOut>
						<file id="file-325"/>
						<sourcetrack>
							<mediatype>audio</mediatype>
							<trackindex>1</trackindex>
						</sourcetrack>
							<filter>
								<effect>
									<name>Audio Levels</name>
									<effectid>audiolevels</effectid>
									<effectcategory>audiolevels</effectcategory>
									<effecttype>audiolevels</effecttype>
									<mediatype>audio</mediatype>
									<parameter authoringApp="PremierePro">
										<parameterid>level</parameterid>
										<name>Level</name>
										<valuemin>0</valuemin>
										<valuemax>3.98109</valuemax>
										<value>0.108534</value>
										<keyframe>
											<when>0</when>
											<value>0</value>
										</keyframe>
										<keyframe>
											<when>84</when>
											<value>0.27594</value>
										</keyframe>
										<keyframe>
											<when>444</when>
											<value>0.27594</value>
										</keyframe>
										<keyframe>
											<when>470</when>
											<value>0.0783515</value>
										</keyframe>
										<keyframe>
											<when>514</when>
											<value>0</value>
										</keyframe>
									</parameter>
								</effect>
							</filter>
						<link>
							<linkclipref>clipitem-1476</linkclipref>
							<mediatype>audio</mediatype>
							<trackindex>18</trackindex>
							<clipindex>1</clipindex>
							<groupindex>1</groupindex>
						</link>
						<link>
							<linkclipref>clipitem-1529</linkclipref>
							<mediatype>audio</mediatype>
							<trackindex>19</trackindex>
							<clipindex>1</clipindex>
							<groupindex>1</groupindex>
						</link>
						<logginginfo>
							<description></description>
							<scene></scene>
							<shottake></shottake>
							<lognote></lognote>
						</logginginfo>
						<labels>
							<label2>Iris</label2>
						</labels>
					</clipitem>
					<clipitem id="clipitem-1477" premiereChannelType="stereo">
						<masterclipid>masterclip-325</masterclipid>
						<name>AUXMP_RSM009804_SHARK_ATTACK.mp3</name>
						<enabled>TRUE</enabled>
						<duration>1490</duration>
						<rate>
							<timebase>25</timebase>
							<ntsc>FALSE</ntsc>
						</rate>
						<start>5962</start>
						<end>6327</end>
						<in>220</in>
						<out>585</out>
						<pproTicksIn>2235340800000</pproTicksIn>
						<pproTicksOut>5943974400000</pproTicksOut>
						<file id="file-325"/>
						<sourcetrack>
							<mediatype>audio</mediatype>
							<trackindex>1</trackindex>
						</sourcetrack>
							<filter>
								<effect>
									<name>Audio Levels</name>
									<effectid>audiolevels</effectid>
									<effectcategory>audiolevels</effectcategory>
									<effecttype>audiolevels</effecttype>
									<mediatype>audio</mediatype>
									<parameter authoringApp="PremierePro">
										<parameterid>level</parameterid>
										<name>Level</name>
										<valuemin>0</valuemin>
										<valuemax>3.98109</valuemax>
										<value>0</value>
										<keyframe>
											<when>0</when>
											<value>0.26802</value>
										</keyframe>
										<keyframe>
											<when>84</when>
											<value>0.27594</value>
										</keyframe>
										<keyframe>
											<when>444</when>
											<value>0.27594</value>
										</keyframe>
										<keyframe>
											<when>470</when>
											<value>0.0783515</value>
										</keyframe>
										<keyframe>
											<when>514</when>
											<value>0</value>
										</keyframe>
									</parameter>
								</effect>
							</filter>
						<link>
							<linkclipref>clipitem-1477</linkclipref>
							<mediatype>audio</mediatype>
							<trackindex>18</trackindex>
							<clipindex>2</clipindex>
							<groupindex>1</groupindex>
						</link>
						<link>
							<linkclipref>clipitem-1530</linkclipref>
							<mediatype>audio</mediatype>
							<trackindex>19</trackindex>
							<clipindex>2</clipindex>
							<groupindex>1</groupindex>
						</link>
						<logginginfo>
							<description></description>
							<scene></scene>
							<shottake></shottake>
							<lognote></lognote>
						</logginginfo>
						<labels>
							<label2>Iris</label2>
						</labels>
					</clipitem>
					<clipitem id="clipitem-1478" premiereChannelType="stereo">
						<masterclipid>masterclip-325</masterclipid>
						<name>AUXMP_RSM009804_SHARK_ATTACK.mp3</name>
						<enabled>TRUE</enabled>
						<duration>1490</duration>
						<rate>
							<timebase>25</timebase>
							<ntsc>FALSE</ntsc>
						</rate>
						<start>6431</start>
						<end>7071</end>
						<in>689</in>
						<out>1329</out>
						<pproTicksIn>7000680960000</pproTicksIn>
						<pproTicksOut>13503490560000</pproTicksOut>
						<file id="file-325"/>
						<sourcetrack>
							<mediatype>audio</mediatype>
							<trackindex>1</trackindex>
						</sourcetrack>
							<filter>
								<effect>
									<name>Audio Levels</name>
									<effectid>audiolevels</effectid>
									<effectcategory>audiolevels</effectcategory>
									<effecttype>audiolevels</effecttype>
									<mediatype>audio</mediatype>
									<parameter authoringApp="PremierePro">
										<parameterid>level</parameterid>
										<name>Level</name>
										<valuemin>0</valuemin>
										<valuemax>3.98109</valuemax>
										<value>0</value>
										<keyframe>
											<when>0</when>
											<value>0.26802</value>
										</keyframe>
										<keyframe>
											<when>84</when>
											<value>0.27594</value>
										</keyframe>
										<keyframe>
											<when>444</when>
											<value>0.27594</value>
										</keyframe>
										<keyframe>
											<when>470</when>
											<value>0.0783515</value>
										</keyframe>
										<keyframe>
											<when>514</when>
											<value>0</value>
										</keyframe>
									</parameter>
								</effect>
							</filter>
						<link>
							<linkclipref>clipitem-1478</linkclipref>
							<mediatype>audio</mediatype>
							<trackindex>18</trackindex>
							<clipindex>3</clipindex>
							<groupindex>1</groupindex>
						</link>
						<link>
							<linkclipref>clipitem-1531</linkclipref>
							<mediatype>audio</mediatype>
							<trackindex>19</trackindex>
							<clipindex>3</clipindex>
							<groupindex>1</groupindex>
						</link>
						<logginginfo>
							<description></description>
							<scene></scene>
							<shottake></shottake>
							<lognote></lognote>
						</logginginfo>
						<labels>
							<label2>Iris</label2>
						</labels>
					</clipitem>
					<clipitem id="clipitem-1479" premiereChannelType="stereo">
						<masterclipid>masterclip-339</masterclipid>
						<name>AUXMP_BBX019901_KEY_TO_SUCCESS.wav</name>
						<enabled>TRUE</enabled>
						<duration>3747</duration>
						<rate>
							<timebase>25</timebase>
							<ntsc>FALSE</ntsc>
						</rate>
						<start>10564</start>
						<end>11742</end>
						<in>0</in>
						<out>1178</out>
						<pproTicksIn>0</pproTicksIn>
						<pproTicksOut>11969233920000</pproTicksOut>
						<file id="file-339">
							<name>AUXMP_BBX019901_KEY_TO_SUCCESS.wav</name>
							<pathurl>file://localhost/Volumes/Vaagen/Utveksling/Natur/Naturlig%20helaften%20fra%20Oslo/Transcoded_Copy%20of%20En%20Helaften%20MASTER/AUXMP_BBX019901_KEY_TO_SUCCESS.wav</pathurl>
							<rate>
								<timebase>30</timebase>
								<ntsc>TRUE</ntsc>
							</rate>
							<duration>4492</duration>
							<timecode>
								<rate>
									<timebase>30</timebase>
									<ntsc>TRUE</ntsc>
								</rate>
								<string>00;00;00;00</string>
								<frame>0</frame>
								<displayformat>DF</displayformat>
								<reel>
									<name></name>
								</reel>
							</timecode>
							<media>
								<audio>
									<samplecharacteristics>
										<depth>16</depth>
										<samplerate>48000</samplerate>
									</samplecharacteristics>
									<channelcount>2</channelcount>
								</audio>
							</media>
						</file>
						<sourcetrack>
							<mediatype>audio</mediatype>
							<trackindex>1</trackindex>
						</sourcetrack>
							<filter>
								<effect>
									<name>Audio Levels</name>
									<effectid>audiolevels</effectid>
									<effectcategory>audiolevels</effectcategory>
									<effecttype>audiolevels</effecttype>
									<mediatype>audio</mediatype>
									<parameter authoringApp="PremierePro">
										<parameterid>level</parameterid>
										<name>Level</name>
										<valuemin>0</valuemin>
										<valuemax>3.98109</valuemax>
										<value>0.105615</value>
										<keyframe>
											<when>145</when>
											<value>0.361672</value>
										</keyframe>
										<keyframe>
											<when>176</when>
											<value>0.204423</value>
										</keyframe>
										<keyframe>
											<when>201</when>
											<value>0.121932</value>
										</keyframe>
										<keyframe>
											<when>326</when>
											<value>0.064506</value>
										</keyframe>
										<keyframe>
											<when>719</when>
											<value>0.106958</value>
										</keyframe>
										<keyframe>
											<when>820</when>
											<value>0</value>
										</keyframe>
									</parameter>
								</effect>
							</filter>
						<link>
							<linkclipref>clipitem-1479</linkclipref>
							<mediatype>audio</mediatype>
							<trackindex>18</trackindex>
							<clipindex>4</clipindex>
							<groupindex>1</groupindex>
						</link>
						<link>
							<linkclipref>clipitem-1532</linkclipref>
							<mediatype>audio</mediatype>
							<trackindex>19</trackindex>
							<clipindex>4</clipindex>
							<groupindex>1</groupindex>
						</link>
						<logginginfo>
							<description></description>
							<scene></scene>
							<shottake></shottake>
							<lognote></lognote>
						</logginginfo>
						<labels>
							<label2>Iris</label2>
						</labels>
					</clipitem>
					<clipitem id="clipitem-1480" premiereChannelType="stereo">
						<masterclipid>masterclip-339</masterclipid>
						<name>AUXMP_BBX019901_KEY_TO_SUCCESS.wav</name>
						<enabled>TRUE</enabled>
						<duration>3747</duration>
						<rate>
							<timebase>25</timebase>
							<ntsc>FALSE</ntsc>
						</rate>
						<start>12263</start>
						<end>13018</end>
						<in>1078</in>
						<out>1833</out>
						<pproTicksIn>10953169920000</pproTicksIn>
						<pproTicksOut>18624453120000</pproTicksOut>
						<file id="file-339"/>
						<sourcetrack>
							<mediatype>audio</mediatype>
							<trackindex>1</trackindex>
						</sourcetrack>
							<filter>
								<effect>
									<name>Audio Levels</name>
									<effectid>audiolevels</effectid>
									<effectcategory>audiolevels</effectcategory>
									<effecttype>audiolevels</effecttype>
									<mediatype>audio</mediatype>
									<parameter authoringApp="PremierePro">
										<parameterid>level</parameterid>
										<name>Level</name>
										<valuemin>0</valuemin>
										<valuemax>3.98109</valuemax>
										<value>0</value>
										<keyframe>
											<when>719</when>
											<value>0.106958</value>
										</keyframe>
										<keyframe>
											<when>820</when>
											<value>0.169809</value>
										</keyframe>
										<keyframe>
											<when>1078</when>
											<value>0</value>
										</keyframe>
										<keyframe>
											<when>1210</when>
											<value>0.0247639</value>
										</keyframe>
										<keyframe>
											<when>1302</when>
											<value>0.212262</value>
										</keyframe>
										<keyframe>
											<when>1481</when>
											<value>0.212262</value>
										</keyframe>
										<keyframe>
											<when>1527</when>
											<value>0.0306052</value>
										</keyframe>
										<keyframe>
											<when>1663</when>
											<value>0</value>
										</keyframe>
										<keyframe>
											<when>2065</when>
											<value>0</value>
										</keyframe>
									</parameter>
								</effect>
							</filter>
						<link>
							<linkclipref>clipitem-1480</linkclipref>
							<mediatype>audio</mediatype>
							<trackindex>18</trackindex>
							<clipindex>5</clipindex>
							<groupindex>1</groupindex>
						</link>
						<link>
							<linkclipref>clipitem-1533</linkclipref>
							<mediatype>audio</mediatype>
							<trackindex>19</trackindex>
							<clipindex>5</clipindex>
							<groupindex>1</groupindex>
						</link>
						<logginginfo>
							<description></description>
							<scene></scene>
							<shottake></shottake>
							<lognote></lognote>
						</logginginfo>
						<labels>
							<label2>Iris</label2>
						</labels>
					</clipitem>
					<clipitem id="clipitem-1481" premiereChannelType="stereo">
						<masterclipid>masterclip-339</masterclipid>
						<name>AUXMP_BBX019901_KEY_TO_SUCCESS.wav</name>
						<enabled>TRUE</enabled>
						<duration>3747</duration>
						<rate>
							<timebase>25</timebase>
							<ntsc>FALSE</ntsc>
						</rate>
						<start>13937</start>
						<end>14656</end>
						<in>1111</in>
						<out>1830</out>
						<pproTicksIn>11288471040000</pproTicksIn>
						<pproTicksOut>18593971200000</pproTicksOut>
						<file id="file-339"/>
						<sourcetrack>
							<mediatype>audio</mediatype>
							<trackindex>1</trackindex>
						</sourcetrack>
							<filter>
								<effect>
									<name>Audio Levels</name>
									<effectid>audiolevels</effectid>
									<effectcategory>audiolevels</effectcategory>
									<effecttype>audiolevels</effecttype>
									<mediatype>audio</mediatype>
									<parameter authoringApp="PremierePro">
										<parameterid>level</parameterid>
										<name>Level</name>
										<valuemin>0</valuemin>
										<valuemax>3.98109</valuemax>
										<value>0.05956</value>
										<keyframe>
											<when>292</when>
											<value>0</value>
										</keyframe>
										<keyframe>
											<when>399</when>
											<value>0.106958</value>
										</keyframe>
										<keyframe>
											<when>419</when>
											<value>0.191863</value>
										</keyframe>
										<keyframe>
											<when>719</when>
											<value>0.191863</value>
										</keyframe>
										<keyframe>
											<when>820</when>
											<value>0.169809</value>
										</keyframe>
										<keyframe>
											<when>1078</when>
											<value>0</value>
										</keyframe>
										<keyframe>
											<when>1207</when>
											<value>0</value>
										</keyframe>
										<keyframe>
											<when>1276</when>
											<value>0</value>
										</keyframe>
										<keyframe>
											<when>1300</when>
											<value>0</value>
										</keyframe>
										<keyframe>
											<when>1379</when>
											<value>0.212262</value>
										</keyframe>
										<keyframe>
											<when>1512</when>
											<value>0.212262</value>
										</keyframe>
										<keyframe>
											<when>1590</when>
											<value>0</value>
										</keyframe>
										<keyframe>
											<when>1640</when>
											<value>0</value>
										</keyframe>
										<keyframe>
											<when>1840</when>
											<value>0</value>
										</keyframe>
										<keyframe>
											<when>1907</when>
											<value>0</value>
										</keyframe>
										<keyframe>
											<when>2547</when>
											<value>0.0424523</value>
										</keyframe>
										<keyframe>
											<when>2565</when>
											<value>0</value>
										</keyframe>
										<keyframe>
											<when>2868</when>
											<value>0</value>
										</keyframe>
										<keyframe>
											<when>2920</when>
											<value>0.05956</value>
										</keyframe>
									</parameter>
								</effect>
							</filter>
						<link>
							<linkclipref>clipitem-1481</linkclipref>
							<mediatype>audio</mediatype>
							<trackindex>18</trackindex>
							<clipindex>6</clipindex>
							<groupindex>1</groupindex>
						</link>
						<link>
							<linkclipref>clipitem-1534</linkclipref>
							<mediatype>audio</mediatype>
							<trackindex>19</trackindex>
							<clipindex>6</clipindex>
							<groupindex>1</groupindex>
						</link>
						<logginginfo>
							<description></description>
							<scene></scene>
							<shottake></shottake>
							<lognote></lognote>
						</logginginfo>
						<labels>
							<label2>Iris</label2>
						</labels>
					</clipitem>
					<clipitem id="clipitem-1482" premiereChannelType="stereo">
						<masterclipid>masterclip-339</masterclipid>
						<name>AUXMP_BBX019901_KEY_TO_SUCCESS.wav</name>
						<enabled>TRUE</enabled>
						<duration>3747</duration>
						<rate>
							<timebase>25</timebase>
							<ntsc>FALSE</ntsc>
						</rate>
						<start>15268</start>
						<end>15650</end>
						<in>2442</in>
						<out>2824</out>
						<pproTicksIn>24812282880000</pproTicksIn>
						<pproTicksOut>28693647360000</pproTicksOut>
						<file id="file-339"/>
						<sourcetrack>
							<mediatype>audio</mediatype>
							<trackindex>1</trackindex>
						</sourcetrack>
							<filter>
								<effect>
									<name>Audio Levels</name>
									<effectid>audiolevels</effectid>
									<effectcategory>audiolevels</effectcategory>
									<effecttype>audiolevels</effecttype>
									<mediatype>audio</mediatype>
									<parameter authoringApp="PremierePro">
										<parameterid>level</parameterid>
										<name>Level</name>
										<valuemin>0</valuemin>
										<valuemax>3.98109</valuemax>
										<value>0.05956</value>
										<keyframe>
											<when>292</when>
											<value>0</value>
										</keyframe>
										<keyframe>
											<when>399</when>
											<value>0.106958</value>
										</keyframe>
										<keyframe>
											<when>419</when>
											<value>0.191863</value>
										</keyframe>
										<keyframe>
											<when>719</when>
											<value>0.191863</value>
										</keyframe>
										<keyframe>
											<when>820</when>
											<value>0.169809</value>
										</keyframe>
										<keyframe>
											<when>1078</when>
											<value>0</value>
										</keyframe>
										<keyframe>
											<when>1207</when>
											<value>0</value>
										</keyframe>
										<keyframe>
											<when>1276</when>
											<value>0</value>
										</keyframe>
										<keyframe>
											<when>1300</when>
											<value>0</value>
										</keyframe>
										<keyframe>
											<when>1379</when>
											<value>0.212262</value>
										</keyframe>
										<keyframe>
											<when>1512</when>
											<value>0.212262</value>
										</keyframe>
										<keyframe>
											<when>1590</when>
											<value>0</value>
										</keyframe>
										<keyframe>
											<when>1640</when>
											<value>0</value>
										</keyframe>
										<keyframe>
											<when>1840</when>
											<value>0</value>
										</keyframe>
										<keyframe>
											<when>1907</when>
											<value>0</value>
										</keyframe>
										<keyframe>
											<when>2547</when>
											<value>0.0424523</value>
										</keyframe>
										<keyframe>
											<when>2565</when>
											<value>0</value>
										</keyframe>
										<keyframe>
											<when>2868</when>
											<value>0</value>
										</keyframe>
										<keyframe>
											<when>2920</when>
											<value>0.05956</value>
										</keyframe>
									</parameter>
								</effect>
							</filter>
						<link>
							<linkclipref>clipitem-1482</linkclipref>
							<mediatype>audio</mediatype>
							<trackindex>18</trackindex>
							<clipindex>7</clipindex>
							<groupindex>1</groupindex>
						</link>
						<link>
							<linkclipref>clipitem-1535</linkclipref>
							<mediatype>audio</mediatype>
							<trackindex>19</trackindex>
							<clipindex>7</clipindex>
							<groupindex>1</groupindex>
						</link>
						<logginginfo>
							<description></description>
							<scene></scene>
							<shottake></shottake>
							<lognote></lognote>
						</logginginfo>
						<labels>
							<label2>Iris</label2>
						</labels>
					</clipitem>
					<clipitem id="clipitem-1483" premiereChannelType="stereo">
						<masterclipid>masterclip-334</masterclipid>
						<name>AUXMP_SCDV055566_UPBEAT_PEOPLE_A.wav</name>
						<enabled>TRUE</enabled>
						<duration>2784</duration>
						<rate>
							<timebase>25</timebase>
							<ntsc>FALSE</ntsc>
						</rate>
						<start>19614</start>
						<end>21255</end>
						<in>0</in>
						<out>1641</out>
						<pproTicksIn>0</pproTicksIn>
						<pproTicksOut>16673610240000</pproTicksOut>
						<file id="file-334"/>
						<sourcetrack>
							<mediatype>audio</mediatype>
							<trackindex>1</trackindex>
						</sourcetrack>
							<filter>
								<effect>
									<name>Audio Levels</name>
									<effectid>audiolevels</effectid>
									<effectcategory>audiolevels</effectcategory>
									<effecttype>audiolevels</effecttype>
									<mediatype>audio</mediatype>
									<parameter authoringApp="PremierePro">
										<parameterid>level</parameterid>
										<name>Level</name>
										<valuemin>0</valuemin>
										<valuemax>3.98109</valuemax>
										<value>0</value>
										<keyframe>
											<when>83</when>
											<value>0.233488</value>
										</keyframe>
										<keyframe>
											<when>167</when>
											<value>0.0636785</value>
										</keyframe>
										<keyframe>
											<when>197</when>
											<value>0.0212262</value>
										</keyframe>
										<keyframe>
											<when>364</when>
											<value>0.0212262</value>
										</keyframe>
										<keyframe>
											<when>404</when>
											<value>0.0636785</value>
										</keyframe>
										<keyframe>
											<when>500</when>
											<value>0.0636785</value>
										</keyframe>
										<keyframe>
											<when>536</when>
											<value>0.0212262</value>
										</keyframe>
										<keyframe>
											<when>773</when>
											<value>0.0212262</value>
										</keyframe>
										<keyframe>
											<when>1109</when>
											<value>0</value>
										</keyframe>
									</parameter>
								</effect>
							</filter>
						<link>
							<linkclipref>clipitem-1483</linkclipref>
							<mediatype>audio</mediatype>
							<trackindex>18</trackindex>
							<clipindex>8</clipindex>
							<groupindex>1</groupindex>
						</link>
						<link>
							<linkclipref>clipitem-1536</linkclipref>
							<mediatype>audio</mediatype>
							<trackindex>19</trackindex>
							<clipindex>8</clipindex>
							<groupindex>1</groupindex>
						</link>
						<logginginfo>
							<description></description>
							<scene></scene>
							<shottake></shottake>
							<lognote></lognote>
						</logginginfo>
						<labels>
							<label2>Iris</label2>
						</labels>
					</clipitem>
					<clipitem id="clipitem-1484" premiereChannelType="stereo">
						<masterclipid>masterclip-334</masterclipid>
						<name>AUXMP_SCDV055566_UPBEAT_PEOPLE_A.wav</name>
						<enabled>TRUE</enabled>
						<duration>2784</duration>
						<rate>
							<timebase>25</timebase>
							<ntsc>FALSE</ntsc>
						</rate>
						<start>21500</start>
						<end>23141</end>
						<in>0</in>
						<out>1641</out>
						<pproTicksIn>0</pproTicksIn>
						<pproTicksOut>16673610240000</pproTicksOut>
						<file id="file-334"/>
						<sourcetrack>
							<mediatype>audio</mediatype>
							<trackindex>1</trackindex>
						</sourcetrack>
							<filter>
								<effect>
									<name>Audio Levels</name>
									<effectid>audiolevels</effectid>
									<effectcategory>audiolevels</effectcategory>
									<effecttype>audiolevels</effecttype>
									<mediatype>audio</mediatype>
									<parameter authoringApp="PremierePro">
										<parameterid>level</parameterid>
										<name>Level</name>
										<valuemin>0</valuemin>
										<valuemax>3.98109</valuemax>
										<value>0</value>
										<keyframe>
											<when>83</when>
											<value>0.360845</value>
										</keyframe>
										<keyframe>
											<when>261</when>
											<value>0.395849</value>
										</keyframe>
										<keyframe>
											<when>344</when>
											<value>0.133688</value>
										</keyframe>
										<keyframe>
											<when>445</when>
											<value>0</value>
										</keyframe>
										<keyframe>
											<when>485</when>
											<value>0</value>
										</keyframe>
										<keyframe>
											<when>500</when>
											<value>0</value>
										</keyframe>
										<keyframe>
											<when>536</when>
											<value>0</value>
										</keyframe>
										<keyframe>
											<when>773</when>
											<value>0</value>
										</keyframe>
										<keyframe>
											<when>1320</when>
											<value>0</value>
										</keyframe>
									</parameter>
								</effect>
							</filter>
						<link>
							<linkclipref>clipitem-1484</linkclipref>
							<mediatype>audio</mediatype>
							<trackindex>18</trackindex>
							<clipindex>9</clipindex>
							<groupindex>1</groupindex>
						</link>
						<link>
							<linkclipref>clipitem-1537</linkclipref>
							<mediatype>audio</mediatype>
							<trackindex>19</trackindex>
							<clipindex>9</clipindex>
							<groupindex>1</groupindex>
						</link>
						<logginginfo>
							<description></description>
							<scene></scene>
							<shottake></shottake>
							<lognote></lognote>
						</logginginfo>
						<labels>
							<label2>Iris</label2>
						</labels>
					</clipitem>
					<clipitem id="clipitem-1485" premiereChannelType="stereo">
						<masterclipid>masterclip-334</masterclipid>
						<name>AUXMP_SCDV055566_UPBEAT_PEOPLE_A.wav</name>
						<enabled>TRUE</enabled>
						<duration>2784</duration>
						<rate>
							<timebase>25</timebase>
							<ntsc>FALSE</ntsc>
						</rate>
						<start>23704</start>
						<end>26488</end>
						<in>0</in>
						<out>2784</out>
						<pproTicksIn>0</pproTicksIn>
						<pproTicksOut>28287221760000</pproTicksOut>
						<file id="file-334"/>
						<sourcetrack>
							<mediatype>audio</mediatype>
							<trackindex>1</trackindex>
						</sourcetrack>
							<filter>
								<effect>
									<name>Audio Levels</name>
									<effectid>audiolevels</effectid>
									<effectcategory>audiolevels</effectcategory>
									<effecttype>audiolevels</effecttype>
									<mediatype>audio</mediatype>
									<parameter authoringApp="PremierePro">
										<parameterid>level</parameterid>
										<name>Level</name>
										<valuemin>0</valuemin>
										<valuemax>3.98109</valuemax>
										<value>0</value>
										<keyframe>
											<when>83</when>
											<value>0.233488</value>
										</keyframe>
										<keyframe>
											<when>274</when>
											<value>0.233488</value>
										</keyframe>
										<keyframe>
											<when>319</when>
											<value>0.0212262</value>
										</keyframe>
										<keyframe>
											<when>475</when>
											<value>0.0212262</value>
										</keyframe>
										<keyframe>
											<when>655</when>
											<value>0</value>
										</keyframe>
										<keyframe>
											<when>744</when>
											<value>0</value>
										</keyframe>
										<keyframe>
											<when>768</when>
											<value>0</value>
										</keyframe>
										<keyframe>
											<when>945</when>
											<value>0</value>
										</keyframe>
										<keyframe>
											<when>1248</when>
											<value>0</value>
										</keyframe>
									</parameter>
								</effect>
							</filter>
						<link>
							<linkclipref>clipitem-1485</linkclipref>
							<mediatype>audio</mediatype>
							<trackindex>18</trackindex>
							<clipindex>10</clipindex>
							<groupindex>1</groupindex>
						</link>
						<link>
							<linkclipref>clipitem-1538</linkclipref>
							<mediatype>audio</mediatype>
							<trackindex>19</trackindex>
							<clipindex>10</clipindex>
							<groupindex>1</groupindex>
						</link>
						<logginginfo>
							<description></description>
							<scene></scene>
							<shottake></shottake>
							<lognote></lognote>
						</logginginfo>
						<labels>
							<label2>Iris</label2>
						</labels>
					</clipitem>
					<clipitem id="clipitem-1486" premiereChannelType="stereo">
						<masterclipid>masterclip-340</masterclipid>
						<name>SCDV047301.wav</name>
						<enabled>TRUE</enabled>
						<duration>4449</duration>
						<rate>
							<timebase>25</timebase>
							<ntsc>FALSE</ntsc>
						</rate>
						<start>31083</start>
						<end>31795</end>
						<in>2244</in>
						<out>2956</out>
						<pproTicksIn>22800476160000</pproTicksIn>
						<pproTicksOut>30034851840000</pproTicksOut>
						<file id="file-340">
							<name>SCDV047301.wav</name>
							<pathurl>file://localhost/Volumes/Svartediket/Prosjekter/DVNA600216_HELAFTEN2016_FAL_010217/Video/Trailere2017/Copied_hb%20Molla2_1AA/SCDV047301.wav</pathurl>
							<rate>
								<timebase>30</timebase>
								<ntsc>TRUE</ntsc>
							</rate>
							<duration>5334</duration>
							<timecode>
								<rate>
									<timebase>30</timebase>
									<ntsc>TRUE</ntsc>
								</rate>
								<string>00;00;59;26</string>
								<frame>1796</frame>
								<displayformat>DF</displayformat>
								<reel>
									<name></name>
								</reel>
							</timecode>
							<media>
								<audio>
									<samplecharacteristics>
										<depth>16</depth>
										<samplerate>48000</samplerate>
									</samplecharacteristics>
									<channelcount>2</channelcount>
								</audio>
							</media>
						</file>
						<sourcetrack>
							<mediatype>audio</mediatype>
							<trackindex>1</trackindex>
						</sourcetrack>
							<filter>
								<effect>
									<name>Audio Levels</name>
									<effectid>audiolevels</effectid>
									<effectcategory>audiolevels</effectcategory>
									<effecttype>audiolevels</effecttype>
									<mediatype>audio</mediatype>
									<parameter authoringApp="PremierePro">
										<parameterid>level</parameterid>
										<name>Level</name>
										<valuemin>0</valuemin>
										<valuemax>3.98109</valuemax>
										<value>0.16571</value>
										<keyframe>
											<when>1728</when>
											<value>0</value>
										</keyframe>
										<keyframe>
											<when>1776</when>
											<value>0.0532488</value>
										</keyframe>
										<keyframe>
											<when>2298</when>
											<value>0</value>
										</keyframe>
										<keyframe>
											<when>2326</when>
											<value>0.0532488</value>
										</keyframe>
										<keyframe>
											<when>2680</when>
											<value>0.0532488</value>
										</keyframe>
										<keyframe>
											<when>2720</when>
											<value>0.0693873</value>
										</keyframe>
										<keyframe>
											<when>2847</when>
											<value>0.0602952</value>
										</keyframe>
										<keyframe>
											<when>2890</when>
											<value>0.0475062</value>
										</keyframe>
										<keyframe>
											<when>2911</when>
											<value>0</value>
										</keyframe>
										<keyframe>
											<when>3656</when>
											<value>0</value>
										</keyframe>
										<keyframe>
											<when>3712</when>
											<value>0.16571</value>
										</keyframe>
									</parameter>
								</effect>
							</filter>
						<link>
							<linkclipref>clipitem-1486</linkclipref>
							<mediatype>audio</mediatype>
							<trackindex>18</trackindex>
							<clipindex>11</clipindex>
							<groupindex>1</groupindex>
						</link>
						<link>
							<linkclipref>clipitem-1539</linkclipref>
							<mediatype>audio</mediatype>
							<trackindex>19</trackindex>
							<clipindex>11</clipindex>
							<groupindex>1</groupindex>
						</link>
						<logginginfo>
							<description></description>
							<scene></scene>
							<shottake></shottake>
							<lognote></lognote>
						</logginginfo>
						<labels>
							<label2>Caribbean</label2>
						</labels>
					</clipitem>
					<clipitem id="clipitem-1487" premiereChannelType="stereo">
						<masterclipid>masterclip-341</masterclipid>
						<name>KT_292_36_Darkness_Ascending_Constantinou_Frazer_Young_822574.wav</name>
						<enabled>TRUE</enabled>
						<duration>3538</duration>
						<rate>
							<timebase>25</timebase>
							<ntsc>FALSE</ntsc>
						</rate>
						<start>34435</start>
						<end>-1</end>
						<in>107</in>
						<out>952</out>
						<pproTicksIn>1087188480000</pproTicksIn>
						<pproTicksOut>9672929280000</pproTicksOut>
						<file id="file-341">
							<name>KT_292_36_Darkness_Ascending_Constantinou_Frazer_Young_822574.wav</name>
							<pathurl>file://localhost/Volumes/Vaagen/Prosjekter/DVNA200216_OAO_Naturforskere_010118_OAO/Musikk/SNO%2027.8%20-puls%20og%20droner/KT_292_36_Darkness_Ascending_Constantinou_Frazer_Young_822574.wav</pathurl>
							<rate>
								<timebase>30</timebase>
								<ntsc>TRUE</ntsc>
							</rate>
							<duration>4241</duration>
							<timecode>
								<rate>
									<timebase>30</timebase>
									<ntsc>TRUE</ntsc>
								</rate>
								<string>00;00;00;00</string>
								<frame>0</frame>
								<displayformat>DF</displayformat>
								<reel>
									<name></name>
								</reel>
							</timecode>
							<media>
								<audio>
									<samplecharacteristics>
										<depth>16</depth>
										<samplerate>44100</samplerate>
									</samplecharacteristics>
									<channelcount>2</channelcount>
								</audio>
							</media>
						</file>
						<sourcetrack>
							<mediatype>audio</mediatype>
							<trackindex>1</trackindex>
						</sourcetrack>
							<filter>
								<effect>
									<name>Audio Levels</name>
									<effectid>audiolevels</effectid>
									<effectcategory>audiolevels</effectcategory>
									<effecttype>audiolevels</effecttype>
									<mediatype>audio</mediatype>
									<parameter authoringApp="PremierePro">
										<parameterid>level</parameterid>
										<name>Level</name>
										<valuemin>0</valuemin>
										<valuemax>3.98109</valuemax>
										<value>0.295</value>
										<keyframe>
											<when>172</when>
											<value>0.368944</value>
										</keyframe>
										<keyframe>
											<when>217</when>
											<value>0.721474</value>
										</keyframe>
										<keyframe>
											<when>804</when>
											<value>0.721474</value>
										</keyframe>
										<keyframe>
											<when>851</when>
											<value>0.295</value>
										</keyframe>
									</parameter>
								</effect>
							</filter>
						<link>
							<linkclipref>clipitem-1487</linkclipref>
							<mediatype>audio</mediatype>
							<trackindex>18</trackindex>
							<clipindex>12</clipindex>
							<groupindex>1</groupindex>
						</link>
						<link>
							<linkclipref>clipitem-1540</linkclipref>
							<mediatype>audio</mediatype>
							<trackindex>19</trackindex>
							<clipindex>12</clipindex>
							<groupindex>1</groupindex>
						</link>
						<logginginfo>
							<description></description>
							<scene></scene>
							<shottake></shottake>
							<lognote></lognote>
						</logginginfo>
						<labels>
							<label2>Caribbean</label2>
						</labels>
					</clipitem>
					<transitionitem>
						<start>35268</start>
						<end>35280</end>
						<alignment>center</alignment>
						<cutPointTicks>60963840000</cutPointTicks>
						<rate>
							<timebase>25</timebase>
							<ntsc>FALSE</ntsc>
						</rate>
						<effect>
							<name>Cross Fade (+3dB)</name>
							<effectid>KGAudioTransCrossFade3dB</effectid>
							<effecttype>transition</effecttype>
							<mediatype>audio</mediatype>
							<wipecode>0</wipecode>
							<wipeaccuracy>100</wipeaccuracy>
							<startratio>0</startratio>
							<endratio>1</endratio>
							<reverse>FALSE</reverse>
						</effect>
					</transitionitem>
					<clipitem id="clipitem-1488" premiereChannelType="stereo">
						<masterclipid>masterclip-341</masterclipid>
						<name>KT_292_36_Darkness_Ascending_Constantinou_Frazer_Young_822574.wav</name>
						<enabled>TRUE</enabled>
						<duration>3538</duration>
						<rate>
							<timebase>25</timebase>
							<ntsc>FALSE</ntsc>
						</rate>
						<start>-1</start>
						<end>35481</end>
						<in>3324</in>
						<out>3537</out>
						<pproTicksIn>33773967360000</pproTicksIn>
						<pproTicksOut>35938183680000</pproTicksOut>
						<file id="file-341"/>
						<sourcetrack>
							<mediatype>audio</mediatype>
							<trackindex>1</trackindex>
						</sourcetrack>
							<filter>
								<effect>
									<name>Audio Levels</name>
									<effectid>audiolevels</effectid>
									<effectcategory>audiolevels</effectcategory>
									<effecttype>audiolevels</effecttype>
									<mediatype>audio</mediatype>
									<parameter authoringApp="PremierePro">
										<parameterid>level</parameterid>
										<name>Level</name>
										<valuemin>0</valuemin>
										<valuemax>3.98109</valuemax>
										<value>0.295</value>
										<keyframe>
											<when>804</when>
											<value>0.721474</value>
										</keyframe>
										<keyframe>
											<when>851</when>
											<value>0.295</value>
										</keyframe>
									</parameter>
								</effect>
							</filter>
						<link>
							<linkclipref>clipitem-1488</linkclipref>
							<mediatype>audio</mediatype>
							<trackindex>18</trackindex>
							<clipindex>14</clipindex>
							<groupindex>1</groupindex>
						</link>
						<link>
							<linkclipref>clipitem-1541</linkclipref>
							<mediatype>audio</mediatype>
							<trackindex>19</trackindex>
							<clipindex>14</clipindex>
							<groupindex>1</groupindex>
						</link>
						<logginginfo>
							<description></description>
							<scene></scene>
							<shottake></shottake>
							<lognote></lognote>
						</logginginfo>
						<labels>
							<label2>Caribbean</label2>
						</labels>
					</clipitem>
					<clipitem id="clipitem-1489" premiereChannelType="stereo">
						<masterclipid>masterclip-330</masterclipid>
						<name>NATURLIGHELAFTEN-Clean.wav</name>
						<enabled>TRUE</enabled>
						<duration>151</duration>
						<rate>
							<timebase>25</timebase>
							<ntsc>FALSE</ntsc>
						</rate>
						<start>35998</start>
						<end>36149</end>
						<in>0</in>
						<out>151</out>
						<pproTicksIn>0</pproTicksIn>
						<pproTicksOut>1534256640000</pproTicksOut>
						<file id="file-330"/>
						<sourcetrack>
							<mediatype>audio</mediatype>
							<trackindex>1</trackindex>
						</sourcetrack>
							<filter>
								<effect>
									<name>Audio Levels</name>
									<effectid>audiolevels</effectid>
									<effectcategory>audiolevels</effectcategory>
									<effecttype>audiolevels</effecttype>
									<mediatype>audio</mediatype>
									<parameter authoringApp="PremierePro">
										<parameterid>level</parameterid>
										<name>Level</name>
										<valuemin>0</valuemin>
										<valuemax>3.98109</valuemax>
										<value>0.173761</value>
									</parameter>
								</effect>
							</filter>
						<link>
							<linkclipref>clipitem-1489</linkclipref>
							<mediatype>audio</mediatype>
							<trackindex>18</trackindex>
							<clipindex>15</clipindex>
							<groupindex>1</groupindex>
						</link>
						<link>
							<linkclipref>clipitem-1542</linkclipref>
							<mediatype>audio</mediatype>
							<trackindex>19</trackindex>
							<clipindex>15</clipindex>
							<groupindex>1</groupindex>
						</link>
						<logginginfo>
							<description></description>
							<scene></scene>
							<shottake></shottake>
							<lognote></lognote>
						</logginginfo>
						<labels>
							<label2>Iris</label2>
						</labels>
					</clipitem>
					<clipitem id="clipitem-1490" premiereChannelType="stereo">
						<masterclipid>masterclip-329</masterclipid>
						<name>Nordvisjon-MASTER-vr3-201016-ny-kommentar.wav</name>
						<enabled>TRUE</enabled>
						<duration>42953</duration>
						<rate>
							<timebase>25</timebase>
							<ntsc>FALSE</ntsc>
						</rate>
						<start>65508</start>
						<end>67029</end>
						<in>1603</in>
						<out>3124</out>
						<pproTicksIn>16287505920000</pproTicksIn>
						<pproTicksOut>31741839360000</pproTicksOut>
						<file id="file-329"/>
						<sourcetrack>
							<mediatype>audio</mediatype>
							<trackindex>1</trackindex>
						</sourcetrack>
							<filter>
								<effect>
									<name>Audio Levels</name>
									<effectid>audiolevels</effectid>
									<effectcategory>audiolevels</effectcategory>
									<effecttype>audiolevels</effecttype>
									<mediatype>audio</mediatype>
									<parameter authoringApp="PremierePro">
										<parameterid>level</parameterid>
										<name>Level</name>
										<valuemin>0</valuemin>
										<valuemax>3.98109</valuemax>
										<value>0.48034</value>
										<keyframe>
											<when>2364</when>
											<value>0.48034</value>
										</keyframe>
									</parameter>
								</effect>
							</filter>
							<marker>
								<comment></comment>
								<name></name>
								<in>40399</in>
								<out>-1</out>
							</marker>
							<marker>
								<comment></comment>
								<name></name>
								<in>3092</in>
								<out>-1</out>
							</marker>
							<marker>
								<comment></comment>
								<name></name>
								<in>36054</in>
								<out>-1</out>
							</marker>
							<marker>
								<comment></comment>
								<name></name>
								<in>0</in>
								<out>-1</out>
							</marker>
						<link>
							<linkclipref>clipitem-1490</linkclipref>
							<mediatype>audio</mediatype>
							<trackindex>18</trackindex>
							<clipindex>16</clipindex>
							<groupindex>1</groupindex>
						</link>
						<link>
							<linkclipref>clipitem-1543</linkclipref>
							<mediatype>audio</mediatype>
							<trackindex>19</trackindex>
							<clipindex>16</clipindex>
							<groupindex>1</groupindex>
						</link>
						<logginginfo>
							<description></description>
							<scene></scene>
							<shottake></shottake>
							<lognote></lognote>
						</logginginfo>
						<labels>
							<label2>Iris</label2>
						</labels>
					</clipitem>
					<clipitem id="clipitem-1491" premiereChannelType="stereo">
						<masterclipid>masterclip-329</masterclipid>
						<name>Nordvisjon-MASTER-vr3-201016-ny-kommentar.wav</name>
						<enabled>TRUE</enabled>
						<duration>42953</duration>
						<rate>
							<timebase>25</timebase>
							<ntsc>FALSE</ntsc>
						</rate>
						<start>67029</start>
						<end>67440</end>
						<in>4088</in>
						<out>4499</out>
						<pproTicksIn>41536696320000</pproTicksIn>
						<pproTicksOut>45712719360000</pproTicksOut>
						<file id="file-329"/>
						<sourcetrack>
							<mediatype>audio</mediatype>
							<trackindex>1</trackindex>
						</sourcetrack>
							<filter>
								<effect>
									<name>Audio Levels</name>
									<effectid>audiolevels</effectid>
									<effectcategory>audiolevels</effectcategory>
									<effecttype>audiolevels</effecttype>
									<mediatype>audio</mediatype>
									<parameter authoringApp="PremierePro">
										<parameterid>level</parameterid>
										<name>Level</name>
										<valuemin>0</valuemin>
										<valuemax>3.98109</valuemax>
										<value>0.628137</value>
									</parameter>
								</effect>
							</filter>
							<marker>
								<comment></comment>
								<name></name>
								<in>40399</in>
								<out>-1</out>
							</marker>
							<marker>
								<comment></comment>
								<name></name>
								<in>3092</in>
								<out>-1</out>
							</marker>
							<marker>
								<comment></comment>
								<name></name>
								<in>36054</in>
								<out>-1</out>
							</marker>
							<marker>
								<comment></comment>
								<name></name>
								<in>0</in>
								<out>-1</out>
							</marker>
						<link>
							<linkclipref>clipitem-1491</linkclipref>
							<mediatype>audio</mediatype>
							<trackindex>18</trackindex>
							<clipindex>17</clipindex>
							<groupindex>1</groupindex>
						</link>
						<link>
							<linkclipref>clipitem-1544</linkclipref>
							<mediatype>audio</mediatype>
							<trackindex>19</trackindex>
							<clipindex>17</clipindex>
							<groupindex>1</groupindex>
						</link>
						<logginginfo>
							<description></description>
							<scene></scene>
							<shottake></shottake>
							<lognote></lognote>
						</logginginfo>
						<labels>
							<label2>Iris</label2>
						</labels>
					</clipitem>
					<clipitem id="clipitem-1492" premiereChannelType="stereo">
						<masterclipid>masterclip-329</masterclipid>
						<name>Nordvisjon-MASTER-vr3-201016-ny-kommentar.wav</name>
						<enabled>TRUE</enabled>
						<duration>42953</duration>
						<rate>
							<timebase>25</timebase>
							<ntsc>FALSE</ntsc>
						</rate>
						<start>67440</start>
						<end>68022</end>
						<in>4658</in>
						<out>5240</out>
						<pproTicksIn>47328261120000</pproTicksIn>
						<pproTicksOut>53241753600000</pproTicksOut>
						<file id="file-329"/>
						<sourcetrack>
							<mediatype>audio</mediatype>
							<trackindex>1</trackindex>
						</sourcetrack>
							<marker>
								<comment></comment>
								<name></name>
								<in>40399</in>
								<out>-1</out>
							</marker>
							<marker>
								<comment></comment>
								<name></name>
								<in>3092</in>
								<out>-1</out>
							</marker>
							<marker>
								<comment></comment>
								<name></name>
								<in>36054</in>
								<out>-1</out>
							</marker>
							<marker>
								<comment></comment>
								<name></name>
								<in>0</in>
								<out>-1</out>
							</marker>
						<link>
							<linkclipref>clipitem-1492</linkclipref>
							<mediatype>audio</mediatype>
							<trackindex>18</trackindex>
							<clipindex>18</clipindex>
							<groupindex>1</groupindex>
						</link>
						<link>
							<linkclipref>clipitem-1545</linkclipref>
							<mediatype>audio</mediatype>
							<trackindex>19</trackindex>
							<clipindex>18</clipindex>
							<groupindex>1</groupindex>
						</link>
						<logginginfo>
							<description></description>
							<scene></scene>
							<shottake></shottake>
							<lognote></lognote>
						</logginginfo>
						<labels>
							<label2>Iris</label2>
						</labels>
					</clipitem>
					<clipitem id="clipitem-1493" premiereChannelType="stereo">
						<masterclipid>masterclip-329</masterclipid>
						<name>Nordvisjon-MASTER-vr3-201016-ny-kommentar.wav</name>
						<enabled>TRUE</enabled>
						<duration>42953</duration>
						<rate>
							<timebase>25</timebase>
							<ntsc>FALSE</ntsc>
						</rate>
						<start>68022</start>
						<end>70690</end>
						<in>5472</in>
						<out>8140</out>
						<pproTicksIn>55599022080000</pproTicksIn>
						<pproTicksOut>82707609600000</pproTicksOut>
						<file id="file-329"/>
						<sourcetrack>
							<mediatype>audio</mediatype>
							<trackindex>1</trackindex>
						</sourcetrack>
							<filter>
								<effect>
									<name>Audio Levels</name>
									<effectid>audiolevels</effectid>
									<effectcategory>audiolevels</effectcategory>
									<effecttype>audiolevels</effecttype>
									<mediatype>audio</mediatype>
									<parameter authoringApp="PremierePro">
										<parameterid>level</parameterid>
										<name>Level</name>
										<valuemin>0</valuemin>
										<valuemax>3.98109</valuemax>
										<value>0.628137</value>
										<keyframe>
											<when>5641</when>
											<value>0.628137</value>
										</keyframe>
									</parameter>
								</effect>
							</filter>
							<marker>
								<comment></comment>
								<name></name>
								<in>40399</in>
								<out>-1</out>
							</marker>
							<marker>
								<comment></comment>
								<name></name>
								<in>3092</in>
								<out>-1</out>
							</marker>
							<marker>
								<comment></comment>
								<name></name>
								<in>36054</in>
								<out>-1</out>
							</marker>
							<marker>
								<comment></comment>
								<name></name>
								<in>0</in>
								<out>-1</out>
							</marker>
						<link>
							<linkclipref>clipitem-1493</linkclipref>
							<mediatype>audio</mediatype>
							<trackindex>18</trackindex>
							<clipindex>19</clipindex>
							<groupindex>1</groupindex>
						</link>
						<link>
							<linkclipref>clipitem-1546</linkclipref>
							<mediatype>audio</mediatype>
							<trackindex>19</trackindex>
							<clipindex>19</clipindex>
							<groupindex>1</groupindex>
						</link>
						<logginginfo>
							<description></description>
							<scene></scene>
							<shottake></shottake>
							<lognote></lognote>
						</logginginfo>
						<labels>
							<label2>Iris</label2>
						</labels>
					</clipitem>
					<clipitem id="clipitem-1494" premiereChannelType="stereo">
						<masterclipid>masterclip-329</masterclipid>
						<name>Nordvisjon-MASTER-vr3-201016-ny-kommentar.wav</name>
						<enabled>TRUE</enabled>
						<duration>42953</duration>
						<rate>
							<timebase>25</timebase>
							<ntsc>FALSE</ntsc>
						</rate>
						<start>70690</start>
						<end>71092</end>
						<in>8140</in>
						<out>8542</out>
						<pproTicksIn>82707609600000</pproTicksIn>
						<pproTicksOut>86792186880000</pproTicksOut>
						<file id="file-329"/>
						<sourcetrack>
							<mediatype>audio</mediatype>
							<trackindex>1</trackindex>
						</sourcetrack>
							<filter>
								<effect>
									<name>Audio Levels</name>
									<effectid>audiolevels</effectid>
									<effectcategory>audiolevels</effectcategory>
									<effecttype>audiolevels</effecttype>
									<mediatype>audio</mediatype>
									<parameter authoringApp="PremierePro">
										<parameterid>level</parameterid>
										<name>Level</name>
										<valuemin>0</valuemin>
										<valuemax>3.98109</valuemax>
										<value>0.628137</value>
									</parameter>
								</effect>
							</filter>
							<marker>
								<comment></comment>
								<name></name>
								<in>40399</in>
								<out>-1</out>
							</marker>
							<marker>
								<comment></comment>
								<name></name>
								<in>3092</in>
								<out>-1</out>
							</marker>
							<marker>
								<comment></comment>
								<name></name>
								<in>36054</in>
								<out>-1</out>
							</marker>
							<marker>
								<comment></comment>
								<name></name>
								<in>0</in>
								<out>-1</out>
							</marker>
						<link>
							<linkclipref>clipitem-1494</linkclipref>
							<mediatype>audio</mediatype>
							<trackindex>18</trackindex>
							<clipindex>20</clipindex>
							<groupindex>1</groupindex>
						</link>
						<link>
							<linkclipref>clipitem-1547</linkclipref>
							<mediatype>audio</mediatype>
							<trackindex>19</trackindex>
							<clipindex>20</clipindex>
							<groupindex>1</groupindex>
						</link>
						<logginginfo>
							<description></description>
							<scene></scene>
							<shottake></shottake>
							<lognote></lognote>
						</logginginfo>
						<labels>
							<label2>Iris</label2>
						</labels>
					</clipitem>
					<clipitem id="clipitem-1495" premiereChannelType="stereo">
						<masterclipid>masterclip-329</masterclipid>
						<name>Nordvisjon-MASTER-vr3-201016-ny-kommentar.wav</name>
						<enabled>TRUE</enabled>
						<duration>42953</duration>
						<rate>
							<timebase>25</timebase>
							<ntsc>FALSE</ntsc>
						</rate>
						<start>71092</start>
						<end>71312</end>
						<in>8542</in>
						<out>8762</out>
						<pproTicksIn>86792186880000</pproTicksIn>
						<pproTicksOut>89027527680000</pproTicksOut>
						<file id="file-329"/>
						<sourcetrack>
							<mediatype>audio</mediatype>
							<trackindex>1</trackindex>
						</sourcetrack>
							<filter>
								<effect>
									<name>Audio Levels</name>
									<effectid>audiolevels</effectid>
									<effectcategory>audiolevels</effectcategory>
									<effecttype>audiolevels</effecttype>
									<mediatype>audio</mediatype>
									<parameter authoringApp="PremierePro">
										<parameterid>level</parameterid>
										<name>Level</name>
										<valuemin>0</valuemin>
										<valuemax>3.98109</valuemax>
										<value>0.628137</value>
									</parameter>
								</effect>
							</filter>
							<marker>
								<comment></comment>
								<name></name>
								<in>40399</in>
								<out>-1</out>
							</marker>
							<marker>
								<comment></comment>
								<name></name>
								<in>3092</in>
								<out>-1</out>
							</marker>
							<marker>
								<comment></comment>
								<name></name>
								<in>36054</in>
								<out>-1</out>
							</marker>
							<marker>
								<comment></comment>
								<name></name>
								<in>0</in>
								<out>-1</out>
							</marker>
						<link>
							<linkclipref>clipitem-1495</linkclipref>
							<mediatype>audio</mediatype>
							<trackindex>18</trackindex>
							<clipindex>21</clipindex>
							<groupindex>1</groupindex>
						</link>
						<link>
							<linkclipref>clipitem-1548</linkclipref>
							<mediatype>audio</mediatype>
							<trackindex>19</trackindex>
							<clipindex>21</clipindex>
							<groupindex>1</groupindex>
						</link>
						<logginginfo>
							<description></description>
							<scene></scene>
							<shottake></shottake>
							<lognote></lognote>
						</logginginfo>
						<labels>
							<label2>Iris</label2>
						</labels>
					</clipitem>
					<clipitem id="clipitem-1496" premiereChannelType="stereo">
						<masterclipid>masterclip-329</masterclipid>
						<name>Nordvisjon-MASTER-vr3-201016-ny-kommentar.wav</name>
						<enabled>TRUE</enabled>
						<duration>42953</duration>
						<rate>
							<timebase>25</timebase>
							<ntsc>FALSE</ntsc>
						</rate>
						<start>71312</start>
						<end>72769</end>
						<in>11192</in>
						<out>12649</out>
						<pproTicksIn>113717882880000</pproTicksIn>
						<pproTicksOut>128521935360000</pproTicksOut>
						<file id="file-329"/>
						<sourcetrack>
							<mediatype>audio</mediatype>
							<trackindex>1</trackindex>
						</sourcetrack>
							<filter>
								<effect>
									<name>Audio Levels</name>
									<effectid>audiolevels</effectid>
									<effectcategory>audiolevels</effectcategory>
									<effecttype>audiolevels</effecttype>
									<mediatype>audio</mediatype>
									<parameter authoringApp="PremierePro">
										<parameterid>level</parameterid>
										<name>Level</name>
										<valuemin>0</valuemin>
										<valuemax>3.98109</valuemax>
										<value>0.554239</value>
										<keyframe>
											<when>11509</when>
											<value>0.554239</value>
										</keyframe>
									</parameter>
								</effect>
							</filter>
							<marker>
								<comment></comment>
								<name></name>
								<in>40399</in>
								<out>-1</out>
							</marker>
							<marker>
								<comment></comment>
								<name></name>
								<in>3092</in>
								<out>-1</out>
							</marker>
							<marker>
								<comment></comment>
								<name></name>
								<in>36054</in>
								<out>-1</out>
							</marker>
							<marker>
								<comment></comment>
								<name></name>
								<in>0</in>
								<out>-1</out>
							</marker>
						<link>
							<linkclipref>clipitem-1496</linkclipref>
							<mediatype>audio</mediatype>
							<trackindex>18</trackindex>
							<clipindex>22</clipindex>
							<groupindex>1</groupindex>
						</link>
						<link>
							<linkclipref>clipitem-1549</linkclipref>
							<mediatype>audio</mediatype>
							<trackindex>19</trackindex>
							<clipindex>22</clipindex>
							<groupindex>1</groupindex>
						</link>
						<logginginfo>
							<description></description>
							<scene></scene>
							<shottake></shottake>
							<lognote></lognote>
						</logginginfo>
						<labels>
							<label2>Iris</label2>
						</labels>
					</clipitem>
					<clipitem id="clipitem-1497" premiereChannelType="stereo">
						<masterclipid>masterclip-329</masterclipid>
						<name>Nordvisjon-MASTER-vr3-201016-ny-kommentar.wav</name>
						<enabled>TRUE</enabled>
						<duration>42953</duration>
						<rate>
							<timebase>25</timebase>
							<ntsc>FALSE</ntsc>
						</rate>
						<start>72769</start>
						<end>73575</end>
						<in>14124</in>
						<out>14930</out>
						<pproTicksIn>143508879360000</pproTicksIn>
						<pproTicksOut>151698355200000</pproTicksOut>
						<file id="file-329"/>
						<sourcetrack>
							<mediatype>audio</mediatype>
							<trackindex>1</trackindex>
						</sourcetrack>
							<filter>
								<effect>
									<name>Audio Levels</name>
									<effectid>audiolevels</effectid>
									<effectcategory>audiolevels</effectcategory>
									<effecttype>audiolevels</effecttype>
									<mediatype>audio</mediatype>
									<parameter authoringApp="PremierePro">
										<parameterid>level</parameterid>
										<name>Level</name>
										<valuemin>0</valuemin>
										<valuemax>3.98109</valuemax>
										<value>0.702036</value>
										<keyframe>
											<when>14446</when>
											<value>0.406442</value>
										</keyframe>
										<keyframe>
											<when>14456</when>
											<value>0.702036</value>
										</keyframe>
									</parameter>
								</effect>
							</filter>
							<marker>
								<comment></comment>
								<name></name>
								<in>40399</in>
								<out>-1</out>
							</marker>
							<marker>
								<comment></comment>
								<name></name>
								<in>3092</in>
								<out>-1</out>
							</marker>
							<marker>
								<comment></comment>
								<name></name>
								<in>36054</in>
								<out>-1</out>
							</marker>
							<marker>
								<comment></comment>
								<name></name>
								<in>0</in>
								<out>-1</out>
							</marker>
						<link>
							<linkclipref>clipitem-1497</linkclipref>
							<mediatype>audio</mediatype>
							<trackindex>18</trackindex>
							<clipindex>23</clipindex>
							<groupindex>1</groupindex>
						</link>
						<link>
							<linkclipref>clipitem-1550</linkclipref>
							<mediatype>audio</mediatype>
							<trackindex>19</trackindex>
							<clipindex>23</clipindex>
							<groupindex>1</groupindex>
						</link>
						<logginginfo>
							<description></description>
							<scene></scene>
							<shottake></shottake>
							<lognote></lognote>
						</logginginfo>
						<labels>
							<label2>Iris</label2>
						</labels>
					</clipitem>
					<clipitem id="clipitem-1498" premiereChannelType="stereo">
						<masterclipid>masterclip-329</masterclipid>
						<name>Nordvisjon-MASTER-vr3-201016-ny-kommentar.wav</name>
						<enabled>TRUE</enabled>
						<duration>42953</duration>
						<rate>
							<timebase>25</timebase>
							<ntsc>FALSE</ntsc>
						</rate>
						<start>73575</start>
						<end>74356</end>
						<in>15453</in>
						<out>16234</out>
						<pproTicksIn>157012369920000</pproTicksIn>
						<pproTicksOut>164947829760000</pproTicksOut>
						<file id="file-329"/>
						<sourcetrack>
							<mediatype>audio</mediatype>
							<trackindex>1</trackindex>
						</sourcetrack>
							<filter>
								<effect>
									<name>Audio Levels</name>
									<effectid>audiolevels</effectid>
									<effectcategory>audiolevels</effectcategory>
									<effecttype>audiolevels</effecttype>
									<mediatype>audio</mediatype>
									<parameter authoringApp="PremierePro">
										<parameterid>level</parameterid>
										<name>Level</name>
										<valuemin>0</valuemin>
										<valuemax>3.98109</valuemax>
										<value>0.702036</value>
									</parameter>
								</effect>
							</filter>
							<marker>
								<comment></comment>
								<name></name>
								<in>40399</in>
								<out>-1</out>
							</marker>
							<marker>
								<comment></comment>
								<name></name>
								<in>3092</in>
								<out>-1</out>
							</marker>
							<marker>
								<comment></comment>
								<name></name>
								<in>36054</in>
								<out>-1</out>
							</marker>
							<marker>
								<comment></comment>
								<name></name>
								<in>0</in>
								<out>-1</out>
							</marker>
						<link>
							<linkclipref>clipitem-1498</linkclipref>
							<mediatype>audio</mediatype>
							<trackindex>18</trackindex>
							<clipindex>24</clipindex>
							<groupindex>1</groupindex>
						</link>
						<link>
							<linkclipref>clipitem-1551</linkclipref>
							<mediatype>audio</mediatype>
							<trackindex>19</trackindex>
							<clipindex>24</clipindex>
							<groupindex>1</groupindex>
						</link>
						<logginginfo>
							<description></description>
							<scene></scene>
							<shottake></shottake>
							<lognote></lognote>
						</logginginfo>
						<labels>
							<label2>Iris</label2>
						</labels>
					</clipitem>
					<clipitem id="clipitem-1499" premiereChannelType="stereo">
						<masterclipid>masterclip-342</masterclipid>
						<name>Nordvisjon2MASTER_kommentar.wav</name>
						<enabled>TRUE</enabled>
						<duration>44313</duration>
						<rate>
							<timebase>25</timebase>
							<ntsc>FALSE</ntsc>
						</rate>
						<start>75374</start>
						<end>77442</end>
						<in>13647</in>
						<out>15715</out>
						<pproTicksIn>138662254080000</pproTicksIn>
						<pproTicksOut>159674457600000</pproTicksOut>
						<file id="file-342">
							<name>Nordvisjon2MASTER_kommentar.wav</name>
							<pathurl>file://localhost/Volumes/Vaagen/Utveksling/Natur/Naturlig%20helaften%20fra%20Oslo/Transcoded_Nedklipp%20helaften/Nordvisjon2MASTER_kommentar.wav</pathurl>
							<rate>
								<timebase>30</timebase>
								<ntsc>TRUE</ntsc>
							</rate>
							<duration>53122</duration>
							<timecode>
								<rate>
									<timebase>30</timebase>
									<ntsc>TRUE</ntsc>
								</rate>
								<string>00;00;00;00</string>
								<frame>0</frame>
								<displayformat>DF</displayformat>
								<reel>
									<name></name>
								</reel>
							</timecode>
							<media>
								<audio>
									<samplecharacteristics>
										<depth>16</depth>
										<samplerate>48000</samplerate>
									</samplecharacteristics>
									<channelcount>2</channelcount>
								</audio>
							</media>
						</file>
						<sourcetrack>
							<mediatype>audio</mediatype>
							<trackindex>1</trackindex>
						</sourcetrack>
						<link>
							<linkclipref>clipitem-1499</linkclipref>
							<mediatype>audio</mediatype>
							<trackindex>18</trackindex>
							<clipindex>25</clipindex>
							<groupindex>1</groupindex>
						</link>
						<link>
							<linkclipref>clipitem-1552</linkclipref>
							<mediatype>audio</mediatype>
							<trackindex>19</trackindex>
							<clipindex>25</clipindex>
							<groupindex>1</groupindex>
						</link>
						<logginginfo>
							<description></description>
							<scene></scene>
							<shottake></shottake>
							<lognote></lognote>
						</logginginfo>
						<labels>
							<label2>Iris</label2>
						</labels>
					</clipitem>
					<clipitem id="clipitem-1500" premiereChannelType="stereo">
						<masterclipid>masterclip-342</masterclipid>
						<name>Nordvisjon2MASTER_kommentar.wav</name>
						<enabled>TRUE</enabled>
						<duration>44313</duration>
						<rate>
							<timebase>25</timebase>
							<ntsc>FALSE</ntsc>
						</rate>
						<start>77442</start>
						<end>-1</end>
						<in>37865</in>
						<out>38658</out>
						<pproTicksIn>384732633600000</pproTicksIn>
						<pproTicksOut>392790021120000</pproTicksOut>
						<file id="file-342"/>
						<sourcetrack>
							<mediatype>audio</mediatype>
							<trackindex>1</trackindex>
						</sourcetrack>
						<link>
							<linkclipref>clipitem-1500</linkclipref>
							<mediatype>audio</mediatype>
							<trackindex>18</trackindex>
							<clipindex>26</clipindex>
							<groupindex>1</groupindex>
						</link>
						<link>
							<linkclipref>clipitem-1553</linkclipref>
							<mediatype>audio</mediatype>
							<trackindex>19</trackindex>
							<clipindex>26</clipindex>
							<groupindex>1</groupindex>
						</link>
						<logginginfo>
							<description></description>
							<scene></scene>
							<shottake></shottake>
							<lognote></lognote>
						</logginginfo>
						<labels>
							<label2>Iris</label2>
						</labels>
					</clipitem>
					<transitionitem>
						<start>78222</start>
						<end>78235</end>
						<alignment>center</alignment>
						<cutPointTicks>60963840000</cutPointTicks>
						<rate>
							<timebase>25</timebase>
							<ntsc>FALSE</ntsc>
						</rate>
						<effect>
							<name>Cross Fade (+3dB)</name>
							<effectid>KGAudioTransCrossFade3dB</effectid>
							<effecttype>transition</effecttype>
							<mediatype>audio</mediatype>
							<wipecode>0</wipecode>
							<wipeaccuracy>100</wipeaccuracy>
							<startratio>0</startratio>
							<endratio>1</endratio>
							<reverse>FALSE</reverse>
						</effect>
					</transitionitem>
					<clipitem id="clipitem-1501" premiereChannelType="stereo">
						<masterclipid>masterclip-342</masterclipid>
						<name>Nordvisjon2MASTER_kommentar.wav</name>
						<enabled>TRUE</enabled>
						<duration>44313</duration>
						<rate>
							<timebase>25</timebase>
							<ntsc>FALSE</ntsc>
						</rate>
						<start>-1</start>
						<end>78401</end>
						<in>24005</in>
						<out>24184</out>
						<pproTicksIn>243906163200000</pproTicksIn>
						<pproTicksOut>245724917760000</pproTicksOut>
						<file id="file-342"/>
						<sourcetrack>
							<mediatype>audio</mediatype>
							<trackindex>1</trackindex>
						</sourcetrack>
						<link>
							<linkclipref>clipitem-1501</linkclipref>
							<mediatype>audio</mediatype>
							<trackindex>18</trackindex>
							<clipindex>28</clipindex>
							<groupindex>1</groupindex>
						</link>
						<link>
							<linkclipref>clipitem-1554</linkclipref>
							<mediatype>audio</mediatype>
							<trackindex>19</trackindex>
							<clipindex>28</clipindex>
							<groupindex>1</groupindex>
						</link>
						<logginginfo>
							<description></description>
							<scene></scene>
							<shottake></shottake>
							<lognote></lognote>
						</logginginfo>
						<labels>
							<label2>Iris</label2>
						</labels>
					</clipitem>
					<clipitem id="clipitem-1502" premiereChannelType="stereo">
						<masterclipid>masterclip-342</masterclipid>
						<name>Nordvisjon2MASTER_kommentar.wav</name>
						<enabled>TRUE</enabled>
						<duration>44313</duration>
						<rate>
							<timebase>25</timebase>
							<ntsc>FALSE</ntsc>
						</rate>
						<start>78463</start>
						<end>78876</end>
						<in>24389</in>
						<out>24802</out>
						<pproTicksIn>247807848960000</pproTicksIn>
						<pproTicksOut>252004193280000</pproTicksOut>
						<file id="file-342"/>
						<sourcetrack>
							<mediatype>audio</mediatype>
							<trackindex>1</trackindex>
						</sourcetrack>
							<filter>
								<effect>
									<name>Audio Levels</name>
									<effectid>audiolevels</effectid>
									<effectcategory>audiolevels</effectcategory>
									<effecttype>audiolevels</effecttype>
									<mediatype>audio</mediatype>
									<parameter authoringApp="PremierePro">
										<parameterid>level</parameterid>
										<name>Level</name>
										<valuemin>0</valuemin>
										<valuemax>3.98109</valuemax>
										<value>0.702036</value>
									</parameter>
								</effect>
							</filter>
						<link>
							<linkclipref>clipitem-1502</linkclipref>
							<mediatype>audio</mediatype>
							<trackindex>18</trackindex>
							<clipindex>29</clipindex>
							<groupindex>1</groupindex>
						</link>
						<link>
							<linkclipref>clipitem-1555</linkclipref>
							<mediatype>audio</mediatype>
							<trackindex>19</trackindex>
							<clipindex>29</clipindex>
							<groupindex>1</groupindex>
						</link>
						<logginginfo>
							<description></description>
							<scene></scene>
							<shottake></shottake>
							<lognote></lognote>
						</logginginfo>
						<labels>
							<label2>Iris</label2>
						</labels>
					</clipitem>
					<clipitem id="clipitem-1503" premiereChannelType="stereo">
						<masterclipid>masterclip-342</masterclipid>
						<name>Nordvisjon2MASTER_kommentar.wav</name>
						<enabled>TRUE</enabled>
						<duration>44313</duration>
						<rate>
							<timebase>25</timebase>
							<ntsc>FALSE</ntsc>
						</rate>
						<start>79019</start>
						<end>79612</end>
						<in>25996</in>
						<out>26589</out>
						<pproTicksIn>264135997440000</pproTicksIn>
						<pproTicksOut>270161256960000</pproTicksOut>
						<file id="file-342"/>
						<sourcetrack>
							<mediatype>audio</mediatype>
							<trackindex>1</trackindex>
						</sourcetrack>
						<link>
							<linkclipref>clipitem-1503</linkclipref>
							<mediatype>audio</mediatype>
							<trackindex>18</trackindex>
							<clipindex>30</clipindex>
							<groupindex>1</groupindex>
						</link>
						<link>
							<linkclipref>clipitem-1556</linkclipref>
							<mediatype>audio</mediatype>
							<trackindex>19</trackindex>
							<clipindex>30</clipindex>
							<groupindex>1</groupindex>
						</link>
						<logginginfo>
							<description></description>
							<scene></scene>
							<shottake></shottake>
							<lognote></lognote>
						</logginginfo>
						<labels>
							<label2>Iris</label2>
						</labels>
					</clipitem>
					<clipitem id="clipitem-1504" premiereChannelType="stereo">
						<masterclipid>masterclip-342</masterclipid>
						<name>Nordvisjon2MASTER_kommentar.wav</name>
						<enabled>TRUE</enabled>
						<duration>44313</duration>
						<rate>
							<timebase>25</timebase>
							<ntsc>FALSE</ntsc>
						</rate>
						<start>79612</start>
						<end>80534</end>
						<in>26981</in>
						<out>27903</out>
						<pproTicksIn>274144227840000</pproTicksIn>
						<pproTicksOut>283512337920000</pproTicksOut>
						<file id="file-342"/>
						<sourcetrack>
							<mediatype>audio</mediatype>
							<trackindex>1</trackindex>
						</sourcetrack>
						<link>
							<linkclipref>clipitem-1504</linkclipref>
							<mediatype>audio</mediatype>
							<trackindex>18</trackindex>
							<clipindex>31</clipindex>
							<groupindex>1</groupindex>
						</link>
						<link>
							<linkclipref>clipitem-1557</linkclipref>
							<mediatype>audio</mediatype>
							<trackindex>19</trackindex>
							<clipindex>31</clipindex>
							<groupindex>1</groupindex>
						</link>
						<logginginfo>
							<description></description>
							<scene></scene>
							<shottake></shottake>
							<lognote></lognote>
						</logginginfo>
						<labels>
							<label2>Iris</label2>
						</labels>
					</clipitem>
					<clipitem id="clipitem-1505" premiereChannelType="stereo">
						<masterclipid>masterclip-342</masterclipid>
						<name>Nordvisjon2MASTER_kommentar.wav</name>
						<enabled>TRUE</enabled>
						<duration>44313</duration>
						<rate>
							<timebase>25</timebase>
							<ntsc>FALSE</ntsc>
						</rate>
						<start>80534</start>
						<end>80768</end>
						<in>28818</in>
						<out>29052</out>
						<pproTicksIn>292809323520000</pproTicksIn>
						<pproTicksOut>295186913280000</pproTicksOut>
						<file id="file-342"/>
						<sourcetrack>
							<mediatype>audio</mediatype>
							<trackindex>1</trackindex>
						</sourcetrack>
						<link>
							<linkclipref>clipitem-1505</linkclipref>
							<mediatype>audio</mediatype>
							<trackindex>18</trackindex>
							<clipindex>32</clipindex>
							<groupindex>1</groupindex>
						</link>
						<link>
							<linkclipref>clipitem-1558</linkclipref>
							<mediatype>audio</mediatype>
							<trackindex>19</trackindex>
							<clipindex>32</clipindex>
							<groupindex>1</groupindex>
						</link>
						<logginginfo>
							<description></description>
							<scene></scene>
							<shottake></shottake>
							<lognote></lognote>
						</logginginfo>
						<labels>
							<label2>Iris</label2>
						</labels>
					</clipitem>
					<clipitem id="clipitem-1506" premiereChannelType="stereo">
						<masterclipid>masterclip-342</masterclipid>
						<name>Nordvisjon2MASTER_kommentar.wav</name>
						<enabled>TRUE</enabled>
						<duration>44313</duration>
						<rate>
							<timebase>25</timebase>
							<ntsc>FALSE</ntsc>
						</rate>
						<start>80987</start>
						<end>82149</end>
						<in>29271</in>
						<out>30433</out>
						<pproTicksIn>297412093440000</pproTicksIn>
						<pproTicksOut>309218757120000</pproTicksOut>
						<file id="file-342"/>
						<sourcetrack>
							<mediatype>audio</mediatype>
							<trackindex>1</trackindex>
						</sourcetrack>
						<link>
							<linkclipref>clipitem-1506</linkclipref>
							<mediatype>audio</mediatype>
							<trackindex>18</trackindex>
							<clipindex>33</clipindex>
							<groupindex>1</groupindex>
						</link>
						<link>
							<linkclipref>clipitem-1559</linkclipref>
							<mediatype>audio</mediatype>
							<trackindex>19</trackindex>
							<clipindex>33</clipindex>
							<groupindex>1</groupindex>
						</link>
						<logginginfo>
							<description></description>
							<scene></scene>
							<shottake></shottake>
							<lognote></lognote>
						</logginginfo>
						<labels>
							<label2>Iris</label2>
						</labels>
					</clipitem>
					<clipitem id="clipitem-1507" premiereChannelType="stereo">
						<masterclipid>masterclip-342</masterclipid>
						<name>Nordvisjon2MASTER_kommentar.wav</name>
						<enabled>TRUE</enabled>
						<duration>44313</duration>
						<rate>
							<timebase>25</timebase>
							<ntsc>FALSE</ntsc>
						</rate>
						<start>82149</start>
						<end>85288</end>
						<in>31013</in>
						<out>34152</out>
						<pproTicksIn>315111928320000</pproTicksIn>
						<pproTicksOut>347006177280000</pproTicksOut>
						<file id="file-342"/>
						<sourcetrack>
							<mediatype>audio</mediatype>
							<trackindex>1</trackindex>
						</sourcetrack>
						<link>
							<linkclipref>clipitem-1507</linkclipref>
							<mediatype>audio</mediatype>
							<trackindex>18</trackindex>
							<clipindex>34</clipindex>
							<groupindex>1</groupindex>
						</link>
						<link>
							<linkclipref>clipitem-1560</linkclipref>
							<mediatype>audio</mediatype>
							<trackindex>19</trackindex>
							<clipindex>34</clipindex>
							<groupindex>1</groupindex>
						</link>
						<logginginfo>
							<description></description>
							<scene></scene>
							<shottake></shottake>
							<lognote></lognote>
						</logginginfo>
						<labels>
							<label2>Iris</label2>
						</labels>
					</clipitem>
					<clipitem id="clipitem-1508" premiereChannelType="stereo">
						<masterclipid>masterclip-342</masterclipid>
						<name>Nordvisjon2MASTER_kommentar.wav</name>
						<enabled>TRUE</enabled>
						<duration>44313</duration>
						<rate>
							<timebase>25</timebase>
							<ntsc>FALSE</ntsc>
						</rate>
						<start>85288</start>
						<end>85588</end>
						<in>34903</in>
						<out>35203</out>
						<pproTicksIn>354636817920000</pproTicksIn>
						<pproTicksOut>357685009920000</pproTicksOut>
						<file id="file-342"/>
						<sourcetrack>
							<mediatype>audio</mediatype>
							<trackindex>1</trackindex>
						</sourcetrack>
						<link>
							<linkclipref>clipitem-1508</linkclipref>
							<mediatype>audio</mediatype>
							<trackindex>18</trackindex>
							<clipindex>35</clipindex>
							<groupindex>1</groupindex>
						</link>
						<link>
							<linkclipref>clipitem-1561</linkclipref>
							<mediatype>audio</mediatype>
							<trackindex>19</trackindex>
							<clipindex>35</clipindex>
							<groupindex>1</groupindex>
						</link>
						<logginginfo>
							<description></description>
							<scene></scene>
							<shottake></shottake>
							<lognote></lognote>
						</logginginfo>
						<labels>
							<label2>Iris</label2>
						</labels>
					</clipitem>
					<clipitem id="clipitem-1509" premiereChannelType="stereo">
						<masterclipid>masterclip-342</masterclipid>
						<name>Nordvisjon2MASTER_kommentar.wav</name>
						<enabled>TRUE</enabled>
						<duration>44313</duration>
						<rate>
							<timebase>25</timebase>
							<ntsc>FALSE</ntsc>
						</rate>
						<start>85727</start>
						<end>85817</end>
						<in>21901</in>
						<out>21991</out>
						<pproTicksIn>222528176640000</pproTicksIn>
						<pproTicksOut>223442634240000</pproTicksOut>
						<file id="file-342"/>
						<sourcetrack>
							<mediatype>audio</mediatype>
							<trackindex>1</trackindex>
						</sourcetrack>
						<link>
							<linkclipref>clipitem-1509</linkclipref>
							<mediatype>audio</mediatype>
							<trackindex>18</trackindex>
							<clipindex>36</clipindex>
							<groupindex>1</groupindex>
						</link>
						<link>
							<linkclipref>clipitem-1562</linkclipref>
							<mediatype>audio</mediatype>
							<trackindex>19</trackindex>
							<clipindex>36</clipindex>
							<groupindex>1</groupindex>
						</link>
						<logginginfo>
							<description></description>
							<scene></scene>
							<shottake></shottake>
							<lognote></lognote>
						</logginginfo>
						<labels>
							<label2>Iris</label2>
						</labels>
					</clipitem>
					<clipitem id="clipitem-1510" premiereChannelType="stereo">
						<masterclipid>masterclip-342</masterclipid>
						<name>Nordvisjon2MASTER_kommentar.wav</name>
						<enabled>TRUE</enabled>
						<duration>44313</duration>
						<rate>
							<timebase>25</timebase>
							<ntsc>FALSE</ntsc>
						</rate>
						<start>85863</start>
						<end>85960</end>
						<in>40176</in>
						<out>40273</out>
						<pproTicksIn>408213872640000</pproTicksIn>
						<pproTicksOut>409199454720000</pproTicksOut>
						<file id="file-342"/>
						<sourcetrack>
							<mediatype>audio</mediatype>
							<trackindex>1</trackindex>
						</sourcetrack>
						<link>
							<linkclipref>clipitem-1510</linkclipref>
							<mediatype>audio</mediatype>
							<trackindex>18</trackindex>
							<clipindex>37</clipindex>
							<groupindex>1</groupindex>
						</link>
						<link>
							<linkclipref>clipitem-1563</linkclipref>
							<mediatype>audio</mediatype>
							<trackindex>19</trackindex>
							<clipindex>37</clipindex>
							<groupindex>1</groupindex>
						</link>
						<logginginfo>
							<description></description>
							<scene></scene>
							<shottake></shottake>
							<lognote></lognote>
						</logginginfo>
						<labels>
							<label2>Iris</label2>
						</labels>
					</clipitem>
					<clipitem id="clipitem-1511" premiereChannelType="stereo">
						<masterclipid>masterclip-342</masterclipid>
						<name>Nordvisjon2MASTER_kommentar.wav</name>
						<enabled>TRUE</enabled>
						<duration>44313</duration>
						<rate>
							<timebase>25</timebase>
							<ntsc>FALSE</ntsc>
						</rate>
						<start>85960</start>
						<end>88577</end>
						<in>40362</in>
						<out>42979</out>
						<pproTicksIn>410103751680000</pproTicksIn>
						<pproTicksOut>436694146560000</pproTicksOut>
						<file id="file-342"/>
						<sourcetrack>
							<mediatype>audio</mediatype>
							<trackindex>1</trackindex>
						</sourcetrack>
						<link>
							<linkclipref>clipitem-1511</linkclipref>
							<mediatype>audio</mediatype>
							<trackindex>18</trackindex>
							<clipindex>38</clipindex>
							<groupindex>1</groupindex>
						</link>
						<link>
							<linkclipref>clipitem-1564</linkclipref>
							<mediatype>audio</mediatype>
							<trackindex>19</trackindex>
							<clipindex>38</clipindex>
							<groupindex>1</groupindex>
						</link>
						<logginginfo>
							<description></description>
							<scene></scene>
							<shottake></shottake>
							<lognote></lognote>
						</logginginfo>
						<labels>
							<label2>Iris</label2>
						</labels>
					</clipitem>
					<clipitem id="clipitem-1512" premiereChannelType="stereo">
						<masterclipid>masterclip-342</masterclipid>
						<name>Nordvisjon2MASTER_kommentar.wav</name>
						<enabled>TRUE</enabled>
						<duration>44313</duration>
						<rate>
							<timebase>25</timebase>
							<ntsc>FALSE</ntsc>
						</rate>
						<start>88577</start>
						<end>88786</end>
						<in>43340</in>
						<out>43549</out>
						<pproTicksIn>440362137600000</pproTicksIn>
						<pproTicksOut>442485711360000</pproTicksOut>
						<file id="file-342"/>
						<sourcetrack>
							<mediatype>audio</mediatype>
							<trackindex>1</trackindex>
						</sourcetrack>
						<link>
							<linkclipref>clipitem-1512</linkclipref>
							<mediatype>audio</mediatype>
							<trackindex>18</trackindex>
							<clipindex>39</clipindex>
							<groupindex>1</groupindex>
						</link>
						<link>
							<linkclipref>clipitem-1565</linkclipref>
							<mediatype>audio</mediatype>
							<trackindex>19</trackindex>
							<clipindex>39</clipindex>
							<groupindex>1</groupindex>
						</link>
						<logginginfo>
							<description></description>
							<scene></scene>
							<shottake></shottake>
							<lognote></lognote>
						</logginginfo>
						<labels>
							<label2>Iris</label2>
						</labels>
					</clipitem>
					<clipitem id="clipitem-1513" premiereChannelType="stereo">
						<masterclipid>masterclip-342</masterclipid>
						<name>Nordvisjon2MASTER_kommentar.wav</name>
						<enabled>TRUE</enabled>
						<duration>44313</duration>
						<rate>
							<timebase>25</timebase>
							<ntsc>FALSE</ntsc>
						</rate>
						<start>88786</start>
						<end>88901</end>
						<in>38651</in>
						<out>38766</out>
						<pproTicksIn>392718896640000</pproTicksIn>
						<pproTicksOut>393887370240000</pproTicksOut>
						<file id="file-342"/>
						<sourcetrack>
							<mediatype>audio</mediatype>
							<trackindex>1</trackindex>
						</sourcetrack>
						<link>
							<linkclipref>clipitem-1513</linkclipref>
							<mediatype>audio</mediatype>
							<trackindex>18</trackindex>
							<clipindex>40</clipindex>
							<groupindex>1</groupindex>
						</link>
						<link>
							<linkclipref>clipitem-1566</linkclipref>
							<mediatype>audio</mediatype>
							<trackindex>19</trackindex>
							<clipindex>40</clipindex>
							<groupindex>1</groupindex>
						</link>
						<logginginfo>
							<description></description>
							<scene></scene>
							<shottake></shottake>
							<lognote></lognote>
						</logginginfo>
						<labels>
							<label2>Iris</label2>
						</labels>
					</clipitem>
					<clipitem id="clipitem-1514" premiereChannelType="stereo">
						<masterclipid>masterclip-342</masterclipid>
						<name>Nordvisjon2MASTER_kommentar.wav</name>
						<enabled>TRUE</enabled>
						<duration>44313</duration>
						<rate>
							<timebase>25</timebase>
							<ntsc>FALSE</ntsc>
						</rate>
						<start>88902</start>
						<end>89053</end>
						<in>38796</in>
						<out>38947</out>
						<pproTicksIn>394192189440000</pproTicksIn>
						<pproTicksOut>395726446080000</pproTicksOut>
						<file id="file-342"/>
						<sourcetrack>
							<mediatype>audio</mediatype>
							<trackindex>1</trackindex>
						</sourcetrack>
						<link>
							<linkclipref>clipitem-1514</linkclipref>
							<mediatype>audio</mediatype>
							<trackindex>18</trackindex>
							<clipindex>41</clipindex>
							<groupindex>1</groupindex>
						</link>
						<link>
							<linkclipref>clipitem-1567</linkclipref>
							<mediatype>audio</mediatype>
							<trackindex>19</trackindex>
							<clipindex>41</clipindex>
							<groupindex>1</groupindex>
						</link>
						<logginginfo>
							<description></description>
							<scene></scene>
							<shottake></shottake>
							<lognote></lognote>
						</logginginfo>
						<labels>
							<label2>Iris</label2>
						</labels>
					</clipitem>
					<clipitem id="clipitem-1515" premiereChannelType="stereo">
						<masterclipid>masterclip-318</masterclipid>
						<name>Nordvisjon3MASTER kommentar.wav</name>
						<enabled>TRUE</enabled>
						<duration>42413</duration>
						<rate>
							<timebase>25</timebase>
							<ntsc>FALSE</ntsc>
						</rate>
						<start>89330</start>
						<end>-1</end>
						<in>3401</in>
						<out>4674</out>
						<pproTicksIn>34556336640000</pproTicksIn>
						<pproTicksOut>47490831360000</pproTicksOut>
						<file id="file-318"/>
						<sourcetrack>
							<mediatype>audio</mediatype>
							<trackindex>1</trackindex>
						</sourcetrack>
						<link>
							<linkclipref>clipitem-1515</linkclipref>
							<mediatype>audio</mediatype>
							<trackindex>18</trackindex>
							<clipindex>42</clipindex>
							<groupindex>1</groupindex>
						</link>
						<link>
							<linkclipref>clipitem-1568</linkclipref>
							<mediatype>audio</mediatype>
							<trackindex>19</trackindex>
							<clipindex>42</clipindex>
							<groupindex>1</groupindex>
						</link>
						<logginginfo>
							<description></description>
							<scene></scene>
							<shottake></shottake>
							<lognote></lognote>
						</logginginfo>
						<labels>
							<label2>Iris</label2>
						</labels>
					</clipitem>
					<transitionitem>
						<start>90590</start>
						<end>90603</end>
						<alignment>end-black</alignment>
						<cutPointTicks>132088320000</cutPointTicks>
						<rate>
							<timebase>25</timebase>
							<ntsc>FALSE</ntsc>
						</rate>
						<effect>
							<name>Cross Fade (+3dB)</name>
							<effectid>KGAudioTransCrossFade3dB</effectid>
							<effecttype>transition</effecttype>
							<mediatype>audio</mediatype>
							<wipecode>0</wipecode>
							<wipeaccuracy>100</wipeaccuracy>
							<startratio>0</startratio>
							<endratio>1</endratio>
							<reverse>FALSE</reverse>
						</effect>
					</transitionitem>
					<transitionitem>
						<start>90813</start>
						<end>90826</end>
						<alignment>start-black</alignment>
						<cutPointTicks>0</cutPointTicks>
						<rate>
							<timebase>25</timebase>
							<ntsc>FALSE</ntsc>
						</rate>
						<effect>
							<name>Cross Fade (+3dB)</name>
							<effectid>KGAudioTransCrossFade3dB</effectid>
							<effecttype>transition</effecttype>
							<mediatype>audio</mediatype>
							<wipecode>0</wipecode>
							<wipeaccuracy>100</wipeaccuracy>
							<startratio>0</startratio>
							<endratio>1</endratio>
							<reverse>FALSE</reverse>
						</effect>
					</transitionitem>
					<clipitem id="clipitem-1516" premiereChannelType="stereo">
						<masterclipid>masterclip-318</masterclipid>
						<name>Nordvisjon3MASTER kommentar.wav</name>
						<enabled>TRUE</enabled>
						<duration>42413</duration>
						<rate>
							<timebase>25</timebase>
							<ntsc>FALSE</ntsc>
						</rate>
						<start>-1</start>
						<end>91782</end>
						<in>20696</in>
						<out>21665</out>
						<pproTicksIn>210284605440000</pproTicksIn>
						<pproTicksOut>220130265600000</pproTicksOut>
						<file id="file-318"/>
						<sourcetrack>
							<mediatype>audio</mediatype>
							<trackindex>1</trackindex>
						</sourcetrack>
						<link>
							<linkclipref>clipitem-1516</linkclipref>
							<mediatype>audio</mediatype>
							<trackindex>18</trackindex>
							<clipindex>45</clipindex>
							<groupindex>1</groupindex>
						</link>
						<link>
							<linkclipref>clipitem-1569</linkclipref>
							<mediatype>audio</mediatype>
							<trackindex>19</trackindex>
							<clipindex>45</clipindex>
							<groupindex>1</groupindex>
						</link>
						<logginginfo>
							<description></description>
							<scene></scene>
							<shottake></shottake>
							<lognote></lognote>
						</logginginfo>
						<labels>
							<label2>Iris</label2>
						</labels>
					</clipitem>
					<clipitem id="clipitem-1517" premiereChannelType="stereo">
						<masterclipid>masterclip-329</masterclipid>
						<name>Nordvisjon-MASTER-vr3-201016-ny-kommentar.wav</name>
						<enabled>TRUE</enabled>
						<duration>42953</duration>
						<rate>
							<timebase>25</timebase>
							<ntsc>FALSE</ntsc>
						</rate>
						<start>92373</start>
						<end>92678</end>
						<in>38218</in>
						<out>38523</out>
						<pproTicksIn>388319339520000</pproTicksIn>
						<pproTicksOut>391418334720000</pproTicksOut>
						<file id="file-329"/>
						<sourcetrack>
							<mediatype>audio</mediatype>
							<trackindex>1</trackindex>
						</sourcetrack>
							<marker>
								<comment></comment>
								<name></name>
								<in>40399</in>
								<out>-1</out>
							</marker>
							<marker>
								<comment></comment>
								<name></name>
								<in>3092</in>
								<out>-1</out>
							</marker>
							<marker>
								<comment></comment>
								<name></name>
								<in>36054</in>
								<out>-1</out>
							</marker>
							<marker>
								<comment></comment>
								<name></name>
								<in>0</in>
								<out>-1</out>
							</marker>
						<link>
							<linkclipref>clipitem-1517</linkclipref>
							<mediatype>audio</mediatype>
							<trackindex>18</trackindex>
							<clipindex>46</clipindex>
							<groupindex>1</groupindex>
						</link>
						<link>
							<linkclipref>clipitem-1570</linkclipref>
							<mediatype>audio</mediatype>
							<trackindex>19</trackindex>
							<clipindex>46</clipindex>
							<groupindex>1</groupindex>
						</link>
						<logginginfo>
							<description></description>
							<scene></scene>
							<shottake></shottake>
							<lognote></lognote>
						</logginginfo>
						<labels>
							<label2>Iris</label2>
						</labels>
					</clipitem>
					<clipitem id="clipitem-1518" premiereChannelType="stereo">
						<masterclipid>masterclip-329</masterclipid>
						<name>Nordvisjon-MASTER-vr3-201016-ny-kommentar.wav</name>
						<enabled>TRUE</enabled>
						<duration>42953</duration>
						<rate>
							<timebase>25</timebase>
							<ntsc>FALSE</ntsc>
						</rate>
						<start>93253</start>
						<end>94523</end>
						<in>40849</in>
						<out>42119</out>
						<pproTicksIn>415051983360000</pproTicksIn>
						<pproTicksOut>427955996160000</pproTicksOut>
						<file id="file-329"/>
						<sourcetrack>
							<mediatype>audio</mediatype>
							<trackindex>1</trackindex>
						</sourcetrack>
							<marker>
								<comment></comment>
								<name></name>
								<in>40399</in>
								<out>-1</out>
							</marker>
							<marker>
								<comment></comment>
								<name></name>
								<in>3092</in>
								<out>-1</out>
							</marker>
							<marker>
								<comment></comment>
								<name></name>
								<in>36054</in>
								<out>-1</out>
							</marker>
							<marker>
								<comment></comment>
								<name></name>
								<in>0</in>
								<out>-1</out>
							</marker>
						<link>
							<linkclipref>clipitem-1518</linkclipref>
							<mediatype>audio</mediatype>
							<trackindex>18</trackindex>
							<clipindex>47</clipindex>
							<groupindex>1</groupindex>
						</link>
						<link>
							<linkclipref>clipitem-1571</linkclipref>
							<mediatype>audio</mediatype>
							<trackindex>19</trackindex>
							<clipindex>47</clipindex>
							<groupindex>1</groupindex>
						</link>
						<logginginfo>
							<description></description>
							<scene></scene>
							<shottake></shottake>
							<lognote></lognote>
						</logginginfo>
						<labels>
							<label2>Iris</label2>
						</labels>
					</clipitem>
					<clipitem id="clipitem-1519" premiereChannelType="stereo">
						<masterclipid>masterclip-318</masterclipid>
						<name>Nordvisjon3MASTER kommentar.wav</name>
						<enabled>TRUE</enabled>
						<duration>42413</duration>
						<rate>
							<timebase>25</timebase>
							<ntsc>FALSE</ntsc>
						</rate>
						<start>94523</start>
						<end>95251</end>
						<in>22124</in>
						<out>22852</out>
						<pproTicksIn>224793999360000</pproTicksIn>
						<pproTicksOut>232190945280000</pproTicksOut>
						<file id="file-318"/>
						<sourcetrack>
							<mediatype>audio</mediatype>
							<trackindex>1</trackindex>
						</sourcetrack>
						<link>
							<linkclipref>clipitem-1519</linkclipref>
							<mediatype>audio</mediatype>
							<trackindex>18</trackindex>
							<clipindex>48</clipindex>
							<groupindex>1</groupindex>
						</link>
						<link>
							<linkclipref>clipitem-1572</linkclipref>
							<mediatype>audio</mediatype>
							<trackindex>19</trackindex>
							<clipindex>48</clipindex>
							<groupindex>1</groupindex>
						</link>
						<logginginfo>
							<description></description>
							<scene></scene>
							<shottake></shottake>
							<lognote></lognote>
						</logginginfo>
						<labels>
							<label2>Iris</label2>
						</labels>
					</clipitem>
					<clipitem id="clipitem-1520" premiereChannelType="stereo">
						<masterclipid>masterclip-318</masterclipid>
						<name>Nordvisjon3MASTER kommentar.wav</name>
						<enabled>TRUE</enabled>
						<duration>42413</duration>
						<rate>
							<timebase>25</timebase>
							<ntsc>FALSE</ntsc>
						</rate>
						<start>95962</start>
						<end>96471</end>
						<in>8029</in>
						<out>8538</out>
						<pproTicksIn>81579778560000</pproTicksIn>
						<pproTicksOut>86751544320000</pproTicksOut>
						<file id="file-318"/>
						<sourcetrack>
							<mediatype>audio</mediatype>
							<trackindex>1</trackindex>
						</sourcetrack>
						<link>
							<linkclipref>clipitem-1520</linkclipref>
							<mediatype>audio</mediatype>
							<trackindex>18</trackindex>
							<clipindex>49</clipindex>
							<groupindex>1</groupindex>
						</link>
						<link>
							<linkclipref>clipitem-1573</linkclipref>
							<mediatype>audio</mediatype>
							<trackindex>19</trackindex>
							<clipindex>49</clipindex>
							<groupindex>1</groupindex>
						</link>
						<logginginfo>
							<description></description>
							<scene></scene>
							<shottake></shottake>
							<lognote></lognote>
						</logginginfo>
						<labels>
							<label2>Iris</label2>
						</labels>
					</clipitem>
					<clipitem id="clipitem-1521" premiereChannelType="stereo">
						<masterclipid>masterclip-318</masterclipid>
						<name>Nordvisjon3MASTER kommentar.wav</name>
						<enabled>TRUE</enabled>
						<duration>42413</duration>
						<rate>
							<timebase>25</timebase>
							<ntsc>FALSE</ntsc>
						</rate>
						<start>96706</start>
						<end>97130</end>
						<in>8538</in>
						<out>8962</out>
						<pproTicksIn>86751544320000</pproTicksIn>
						<pproTicksOut>91059655680000</pproTicksOut>
						<file id="file-318"/>
						<sourcetrack>
							<mediatype>audio</mediatype>
							<trackindex>1</trackindex>
						</sourcetrack>
						<link>
							<linkclipref>clipitem-1521</linkclipref>
							<mediatype>audio</mediatype>
							<trackindex>18</trackindex>
							<clipindex>50</clipindex>
							<groupindex>1</groupindex>
						</link>
						<link>
							<linkclipref>clipitem-1574</linkclipref>
							<mediatype>audio</mediatype>
							<trackindex>19</trackindex>
							<clipindex>50</clipindex>
							<groupindex>1</groupindex>
						</link>
						<logginginfo>
							<description></description>
							<scene></scene>
							<shottake></shottake>
							<lognote></lognote>
						</logginginfo>
						<labels>
							<label2>Iris</label2>
						</labels>
					</clipitem>
					<clipitem id="clipitem-1522" premiereChannelType="stereo">
						<masterclipid>masterclip-318</masterclipid>
						<name>Nordvisjon3MASTER kommentar.wav</name>
						<enabled>TRUE</enabled>
						<duration>42413</duration>
						<rate>
							<timebase>25</timebase>
							<ntsc>FALSE</ntsc>
						</rate>
						<start>97130</start>
						<end>97245</end>
						<in>9984</in>
						<out>10099</out>
						<pproTicksIn>101443829760000</pproTicksIn>
						<pproTicksOut>102612303360000</pproTicksOut>
						<file id="file-318"/>
						<sourcetrack>
							<mediatype>audio</mediatype>
							<trackindex>1</trackindex>
						</sourcetrack>
						<link>
							<linkclipref>clipitem-1522</linkclipref>
							<mediatype>audio</mediatype>
							<trackindex>18</trackindex>
							<clipindex>51</clipindex>
							<groupindex>1</groupindex>
						</link>
						<link>
							<linkclipref>clipitem-1575</linkclipref>
							<mediatype>audio</mediatype>
							<trackindex>19</trackindex>
							<clipindex>51</clipindex>
							<groupindex>1</groupindex>
						</link>
						<logginginfo>
							<description></description>
							<scene></scene>
							<shottake></shottake>
							<lognote></lognote>
						</logginginfo>
						<labels>
							<label2>Iris</label2>
						</labels>
					</clipitem>
					<clipitem id="clipitem-1523" premiereChannelType="stereo">
						<masterclipid>masterclip-318</masterclipid>
						<name>Nordvisjon3MASTER kommentar.wav</name>
						<enabled>TRUE</enabled>
						<duration>42413</duration>
						<rate>
							<timebase>25</timebase>
							<ntsc>FALSE</ntsc>
						</rate>
						<start>97245</start>
						<end>97436</end>
						<in>10184</in>
						<out>10375</out>
						<pproTicksIn>103475957760000</pproTicksIn>
						<pproTicksOut>105416640000000</pproTicksOut>
						<file id="file-318"/>
						<sourcetrack>
							<mediatype>audio</mediatype>
							<trackindex>1</trackindex>
						</sourcetrack>
						<link>
							<linkclipref>clipitem-1523</linkclipref>
							<mediatype>audio</mediatype>
							<trackindex>18</trackindex>
							<clipindex>52</clipindex>
							<groupindex>1</groupindex>
						</link>
						<link>
							<linkclipref>clipitem-1576</linkclipref>
							<mediatype>audio</mediatype>
							<trackindex>19</trackindex>
							<clipindex>52</clipindex>
							<groupindex>1</groupindex>
						</link>
						<logginginfo>
							<description></description>
							<scene></scene>
							<shottake></shottake>
							<lognote></lognote>
						</logginginfo>
						<labels>
							<label2>Iris</label2>
						</labels>
					</clipitem>
					<clipitem id="clipitem-1524" premiereChannelType="stereo">
						<masterclipid>masterclip-318</masterclipid>
						<name>Nordvisjon3MASTER kommentar.wav</name>
						<enabled>TRUE</enabled>
						<duration>42413</duration>
						<rate>
							<timebase>25</timebase>
							<ntsc>FALSE</ntsc>
						</rate>
						<start>97521</start>
						<end>97802</end>
						<in>10911</in>
						<out>11192</out>
						<pproTicksIn>110862743040000</pproTicksIn>
						<pproTicksOut>113717882880000</pproTicksOut>
						<file id="file-318"/>
						<sourcetrack>
							<mediatype>audio</mediatype>
							<trackindex>1</trackindex>
						</sourcetrack>
						<link>
							<linkclipref>clipitem-1524</linkclipref>
							<mediatype>audio</mediatype>
							<trackindex>18</trackindex>
							<clipindex>53</clipindex>
							<groupindex>1</groupindex>
						</link>
						<link>
							<linkclipref>clipitem-1577</linkclipref>
							<mediatype>audio</mediatype>
							<trackindex>19</trackindex>
							<clipindex>53</clipindex>
							<groupindex>1</groupindex>
						</link>
						<logginginfo>
							<description></description>
							<scene></scene>
							<shottake></shottake>
							<lognote></lognote>
						</logginginfo>
						<labels>
							<label2>Iris</label2>
						</labels>
					</clipitem>
					<clipitem id="clipitem-1525" premiereChannelType="stereo">
						<masterclipid>masterclip-318</masterclipid>
						<name>Nordvisjon3MASTER kommentar.wav</name>
						<enabled>TRUE</enabled>
						<duration>42413</duration>
						<rate>
							<timebase>25</timebase>
							<ntsc>FALSE</ntsc>
						</rate>
						<start>97802</start>
						<end>98215</end>
						<in>13698</in>
						<out>14111</out>
						<pproTicksIn>139180446720000</pproTicksIn>
						<pproTicksOut>143376791040000</pproTicksOut>
						<file id="file-318"/>
						<sourcetrack>
							<mediatype>audio</mediatype>
							<trackindex>1</trackindex>
						</sourcetrack>
						<link>
							<linkclipref>clipitem-1525</linkclipref>
							<mediatype>audio</mediatype>
							<trackindex>18</trackindex>
							<clipindex>54</clipindex>
							<groupindex>1</groupindex>
						</link>
						<link>
							<linkclipref>clipitem-1578</linkclipref>
							<mediatype>audio</mediatype>
							<trackindex>19</trackindex>
							<clipindex>54</clipindex>
							<groupindex>1</groupindex>
						</link>
						<logginginfo>
							<description></description>
							<scene></scene>
							<shottake></shottake>
							<lognote></lognote>
						</logginginfo>
						<labels>
							<label2>Iris</label2>
						</labels>
					</clipitem>
					<clipitem id="clipitem-1526" premiereChannelType="stereo">
						<masterclipid>masterclip-318</masterclipid>
						<name>Nordvisjon3MASTER kommentar.wav</name>
						<enabled>TRUE</enabled>
						<duration>42413</duration>
						<rate>
							<timebase>25</timebase>
							<ntsc>FALSE</ntsc>
						</rate>
						<start>98292</start>
						<end>98546</end>
						<in>40418</in>
						<out>40672</out>
						<pproTicksIn>410672747520000</pproTicksIn>
						<pproTicksOut>413253550080000</pproTicksOut>
						<file id="file-318"/>
						<sourcetrack>
							<mediatype>audio</mediatype>
							<trackindex>1</trackindex>
						</sourcetrack>
						<link>
							<linkclipref>clipitem-1526</linkclipref>
							<mediatype>audio</mediatype>
							<trackindex>18</trackindex>
							<clipindex>55</clipindex>
							<groupindex>1</groupindex>
						</link>
						<link>
							<linkclipref>clipitem-1579</linkclipref>
							<mediatype>audio</mediatype>
							<trackindex>19</trackindex>
							<clipindex>55</clipindex>
							<groupindex>1</groupindex>
						</link>
						<logginginfo>
							<description></description>
							<scene></scene>
							<shottake></shottake>
							<lognote></lognote>
						</logginginfo>
						<labels>
							<label2>Iris</label2>
						</labels>
					</clipitem>
					<clipitem id="clipitem-1527" premiereChannelType="stereo">
						<masterclipid>masterclip-318</masterclipid>
						<name>Nordvisjon3MASTER kommentar.wav</name>
						<enabled>TRUE</enabled>
						<duration>42413</duration>
						<rate>
							<timebase>25</timebase>
							<ntsc>FALSE</ntsc>
						</rate>
						<start>99216</start>
						<end>99949</end>
						<in>41680</in>
						<out>42413</out>
						<pproTicksIn>423495475200000</pproTicksIn>
						<pproTicksOut>430943224320000</pproTicksOut>
						<file id="file-318"/>
						<sourcetrack>
							<mediatype>audio</mediatype>
							<trackindex>1</trackindex>
						</sourcetrack>
						<link>
							<linkclipref>clipitem-1527</linkclipref>
							<mediatype>audio</mediatype>
							<trackindex>18</trackindex>
							<clipindex>56</clipindex>
							<groupindex>1</groupindex>
						</link>
						<link>
							<linkclipref>clipitem-1580</linkclipref>
							<mediatype>audio</mediatype>
							<trackindex>19</trackindex>
							<clipindex>56</clipindex>
							<groupindex>1</groupindex>
						</link>
						<logginginfo>
							<description></description>
							<scene></scene>
							<shottake></shottake>
							<lognote></lognote>
						</logginginfo>
						<labels>
							<label2>Iris</label2>
						</labels>
					</clipitem>
					<clipitem id="clipitem-1528" premiereChannelType="stereo">
						<masterclipid>masterclip-338</masterclipid>
						<name>AUXMP_SCDV054331_TAKE_A_LOAD_OFF_C.wav</name>
						<enabled>TRUE</enabled>
						<duration>4296</duration>
						<rate>
							<timebase>25</timebase>
							<ntsc>FALSE</ntsc>
						</rate>
						<start>100019</start>
						<end>100621</end>
						<in>0</in>
						<out>602</out>
						<pproTicksIn>0</pproTicksIn>
						<pproTicksOut>6116705280000</pproTicksOut>
						<file id="file-338"/>
						<sourcetrack>
							<mediatype>audio</mediatype>
							<trackindex>1</trackindex>
						</sourcetrack>
							<filter>
								<effect>
									<name>Audio Levels</name>
									<effectid>audiolevels</effectid>
									<effectcategory>audiolevels</effectcategory>
									<effecttype>audiolevels</effecttype>
									<mediatype>audio</mediatype>
									<parameter authoringApp="PremierePro">
										<parameterid>level</parameterid>
										<name>Level</name>
										<valuemin>0</valuemin>
										<valuemax>3.98109</valuemax>
										<value>0</value>
										<keyframe>
											<when>260</when>
											<value>0.377997</value>
										</keyframe>
										<keyframe>
											<when>313</when>
											<value>0.02978</value>
										</keyframe>
										<keyframe>
											<when>394</when>
											<value>0</value>
										</keyframe>
									</parameter>
								</effect>
							</filter>
						<link>
							<linkclipref>clipitem-1528</linkclipref>
							<mediatype>audio</mediatype>
							<trackindex>18</trackindex>
							<clipindex>57</clipindex>
							<groupindex>1</groupindex>
						</link>
						<link>
							<linkclipref>clipitem-1581</linkclipref>
							<mediatype>audio</mediatype>
							<trackindex>19</trackindex>
							<clipindex>57</clipindex>
							<groupindex>1</groupindex>
						</link>
						<logginginfo>
							<description></description>
							<scene></scene>
							<shottake></shottake>
							<lognote></lognote>
						</logginginfo>
						<labels>
							<label2>Iris</label2>
						</labels>
					</clipitem>
					<enabled>TRUE</enabled>
					<locked>FALSE</locked>
					<outputchannelindex>1</outputchannelindex>
				</track>
				<track TL.SQTrackAudioKeyframeStyle="0" TL.SQTrackShy="0" TL.SQTrackExpandedHeight="58" TL.SQTrackExpanded="1" MZ.TrackTargeted="0" PannerCurrentValue="0.5" PannerIsInverted="true" PannerStartKeyframe="-91445760000000000,0.5,0,0,0,0,0,0" PannerName="Balance" currentExplodedTrackIndex="1" totalExplodedTrackCount="2" premiereTrackType="Stereo">
					<clipitem id="clipitem-1529" premiereChannelType="stereo">
						<masterclipid>masterclip-325</masterclipid>
						<name>AUXMP_RSM009804_SHARK_ATTACK.mp3</name>
						<enabled>TRUE</enabled>
						<duration>1490</duration>
						<rate>
							<timebase>25</timebase>
							<ntsc>FALSE</ntsc>
						</rate>
						<start>5741</start>
						<end>5962</end>
						<in>0</in>
						<out>221</out>
						<pproTicksIn>0</pproTicksIn>
						<pproTicksOut>2245501440000</pproTicksOut>
						<file id="file-325"/>
						<sourcetrack>
							<mediatype>audio</mediatype>
							<trackindex>2</trackindex>
						</sourcetrack>
							<filter>
								<effect>
									<name>Audio Levels</name>
									<effectid>audiolevels</effectid>
									<effectcategory>audiolevels</effectcategory>
									<effecttype>audiolevels</effecttype>
									<mediatype>audio</mediatype>
									<parameter authoringApp="PremierePro">
										<parameterid>level</parameterid>
										<name>Level</name>
										<valuemin>0</valuemin>
										<valuemax>3.98109</valuemax>
										<value>0.108534</value>
										<keyframe>
											<when>0</when>
											<value>0</value>
										</keyframe>
										<keyframe>
											<when>84</when>
											<value>0.27594</value>
										</keyframe>
										<keyframe>
											<when>444</when>
											<value>0.27594</value>
										</keyframe>
										<keyframe>
											<when>470</when>
											<value>0.0783515</value>
										</keyframe>
										<keyframe>
											<when>514</when>
											<value>0</value>
										</keyframe>
									</parameter>
								</effect>
							</filter>
						<link>
							<linkclipref>clipitem-1476</linkclipref>
							<mediatype>audio</mediatype>
							<trackindex>18</trackindex>
							<clipindex>1</clipindex>
							<groupindex>1</groupindex>
						</link>
						<link>
							<linkclipref>clipitem-1529</linkclipref>
							<mediatype>audio</mediatype>
							<trackindex>19</trackindex>
							<clipindex>1</clipindex>
							<groupindex>1</groupindex>
						</link>
						<logginginfo>
							<description></description>
							<scene></scene>
							<shottake></shottake>
							<lognote></lognote>
						</logginginfo>
						<labels>
							<label2>Iris</label2>
						</labels>
					</clipitem>
					<clipitem id="clipitem-1530" premiereChannelType="stereo">
						<masterclipid>masterclip-325</masterclipid>
						<name>AUXMP_RSM009804_SHARK_ATTACK.mp3</name>
						<enabled>TRUE</enabled>
						<duration>1490</duration>
						<rate>
							<timebase>25</timebase>
							<ntsc>FALSE</ntsc>
						</rate>
						<start>5962</start>
						<end>6327</end>
						<in>220</in>
						<out>585</out>
						<pproTicksIn>2235340800000</pproTicksIn>
						<pproTicksOut>5943974400000</pproTicksOut>
						<file id="file-325"/>
						<sourcetrack>
							<mediatype>audio</mediatype>
							<trackindex>2</trackindex>
						</sourcetrack>
							<filter>
								<effect>
									<name>Audio Levels</name>
									<effectid>audiolevels</effectid>
									<effectcategory>audiolevels</effectcategory>
									<effecttype>audiolevels</effecttype>
									<mediatype>audio</mediatype>
									<parameter authoringApp="PremierePro">
										<parameterid>level</parameterid>
										<name>Level</name>
										<valuemin>0</valuemin>
										<valuemax>3.98109</valuemax>
										<value>0</value>
										<keyframe>
											<when>0</when>
											<value>0.26802</value>
										</keyframe>
										<keyframe>
											<when>84</when>
											<value>0.27594</value>
										</keyframe>
										<keyframe>
											<when>444</when>
											<value>0.27594</value>
										</keyframe>
										<keyframe>
											<when>470</when>
											<value>0.0783515</value>
										</keyframe>
										<keyframe>
											<when>514</when>
											<value>0</value>
										</keyframe>
									</parameter>
								</effect>
							</filter>
						<link>
							<linkclipref>clipitem-1477</linkclipref>
							<mediatype>audio</mediatype>
							<trackindex>18</trackindex>
							<clipindex>2</clipindex>
							<groupindex>1</groupindex>
						</link>
						<link>
							<linkclipref>clipitem-1530</linkclipref>
							<mediatype>audio</mediatype>
							<trackindex>19</trackindex>
							<clipindex>2</clipindex>
							<groupindex>1</groupindex>
						</link>
						<logginginfo>
							<description></description>
							<scene></scene>
							<shottake></shottake>
							<lognote></lognote>
						</logginginfo>
						<labels>
							<label2>Iris</label2>
						</labels>
					</clipitem>
					<clipitem id="clipitem-1531" premiereChannelType="stereo">
						<masterclipid>masterclip-325</masterclipid>
						<name>AUXMP_RSM009804_SHARK_ATTACK.mp3</name>
						<enabled>TRUE</enabled>
						<duration>1490</duration>
						<rate>
							<timebase>25</timebase>
							<ntsc>FALSE</ntsc>
						</rate>
						<start>6431</start>
						<end>7071</end>
						<in>689</in>
						<out>1329</out>
						<pproTicksIn>7000680960000</pproTicksIn>
						<pproTicksOut>13503490560000</pproTicksOut>
						<file id="file-325"/>
						<sourcetrack>
							<mediatype>audio</mediatype>
							<trackindex>2</trackindex>
						</sourcetrack>
							<filter>
								<effect>
									<name>Audio Levels</name>
									<effectid>audiolevels</effectid>
									<effectcategory>audiolevels</effectcategory>
									<effecttype>audiolevels</effecttype>
									<mediatype>audio</mediatype>
									<parameter authoringApp="PremierePro">
										<parameterid>level</parameterid>
										<name>Level</name>
										<valuemin>0</valuemin>
										<valuemax>3.98109</valuemax>
										<value>0</value>
										<keyframe>
											<when>0</when>
											<value>0.26802</value>
										</keyframe>
										<keyframe>
											<when>84</when>
											<value>0.27594</value>
										</keyframe>
										<keyframe>
											<when>444</when>
											<value>0.27594</value>
										</keyframe>
										<keyframe>
											<when>470</when>
											<value>0.0783515</value>
										</keyframe>
										<keyframe>
											<when>514</when>
											<value>0</value>
										</keyframe>
									</parameter>
								</effect>
							</filter>
						<link>
							<linkclipref>clipitem-1478</linkclipref>
							<mediatype>audio</mediatype>
							<trackindex>18</trackindex>
							<clipindex>3</clipindex>
							<groupindex>1</groupindex>
						</link>
						<link>
							<linkclipref>clipitem-1531</linkclipref>
							<mediatype>audio</mediatype>
							<trackindex>19</trackindex>
							<clipindex>3</clipindex>
							<groupindex>1</groupindex>
						</link>
						<logginginfo>
							<description></description>
							<scene></scene>
							<shottake></shottake>
							<lognote></lognote>
						</logginginfo>
						<labels>
							<label2>Iris</label2>
						</labels>
					</clipitem>
					<clipitem id="clipitem-1532" premiereChannelType="stereo">
						<masterclipid>masterclip-339</masterclipid>
						<name>AUXMP_BBX019901_KEY_TO_SUCCESS.wav</name>
						<enabled>TRUE</enabled>
						<duration>3747</duration>
						<rate>
							<timebase>25</timebase>
							<ntsc>FALSE</ntsc>
						</rate>
						<start>10564</start>
						<end>11742</end>
						<in>0</in>
						<out>1178</out>
						<pproTicksIn>0</pproTicksIn>
						<pproTicksOut>11969233920000</pproTicksOut>
						<file id="file-339"/>
						<sourcetrack>
							<mediatype>audio</mediatype>
							<trackindex>2</trackindex>
						</sourcetrack>
							<filter>
								<effect>
									<name>Audio Levels</name>
									<effectid>audiolevels</effectid>
									<effectcategory>audiolevels</effectcategory>
									<effecttype>audiolevels</effecttype>
									<mediatype>audio</mediatype>
									<parameter authoringApp="PremierePro">
										<parameterid>level</parameterid>
										<name>Level</name>
										<valuemin>0</valuemin>
										<valuemax>3.98109</valuemax>
										<value>0.105615</value>
										<keyframe>
											<when>145</when>
											<value>0.361672</value>
										</keyframe>
										<keyframe>
											<when>176</when>
											<value>0.204423</value>
										</keyframe>
										<keyframe>
											<when>201</when>
											<value>0.121932</value>
										</keyframe>
										<keyframe>
											<when>326</when>
											<value>0.064506</value>
										</keyframe>
										<keyframe>
											<when>719</when>
											<value>0.106958</value>
										</keyframe>
										<keyframe>
											<when>820</when>
											<value>0</value>
										</keyframe>
									</parameter>
								</effect>
							</filter>
						<link>
							<linkclipref>clipitem-1479</linkclipref>
							<mediatype>audio</mediatype>
							<trackindex>18</trackindex>
							<clipindex>4</clipindex>
							<groupindex>1</groupindex>
						</link>
						<link>
							<linkclipref>clipitem-1532</linkclipref>
							<mediatype>audio</mediatype>
							<trackindex>19</trackindex>
							<clipindex>4</clipindex>
							<groupindex>1</groupindex>
						</link>
						<logginginfo>
							<description></description>
							<scene></scene>
							<shottake></shottake>
							<lognote></lognote>
						</logginginfo>
						<labels>
							<label2>Iris</label2>
						</labels>
					</clipitem>
					<clipitem id="clipitem-1533" premiereChannelType="stereo">
						<masterclipid>masterclip-339</masterclipid>
						<name>AUXMP_BBX019901_KEY_TO_SUCCESS.wav</name>
						<enabled>TRUE</enabled>
						<duration>3747</duration>
						<rate>
							<timebase>25</timebase>
							<ntsc>FALSE</ntsc>
						</rate>
						<start>12263</start>
						<end>13018</end>
						<in>1078</in>
						<out>1833</out>
						<pproTicksIn>10953169920000</pproTicksIn>
						<pproTicksOut>18624453120000</pproTicksOut>
						<file id="file-339"/>
						<sourcetrack>
							<mediatype>audio</mediatype>
							<trackindex>2</trackindex>
						</sourcetrack>
							<filter>
								<effect>
									<name>Audio Levels</name>
									<effectid>audiolevels</effectid>
									<effectcategory>audiolevels</effectcategory>
									<effecttype>audiolevels</effecttype>
									<mediatype>audio</mediatype>
									<parameter authoringApp="PremierePro">
										<parameterid>level</parameterid>
										<name>Level</name>
										<valuemin>0</valuemin>
										<valuemax>3.98109</valuemax>
										<value>0</value>
										<keyframe>
											<when>719</when>
											<value>0.106958</value>
										</keyframe>
										<keyframe>
											<when>820</when>
											<value>0.169809</value>
										</keyframe>
										<keyframe>
											<when>1078</when>
											<value>0</value>
										</keyframe>
										<keyframe>
											<when>1210</when>
											<value>0.0247639</value>
										</keyframe>
										<keyframe>
											<when>1302</when>
											<value>0.212262</value>
										</keyframe>
										<keyframe>
											<when>1481</when>
											<value>0.212262</value>
										</keyframe>
										<keyframe>
											<when>1527</when>
											<value>0.0306052</value>
										</keyframe>
										<keyframe>
											<when>1663</when>
											<value>0</value>
										</keyframe>
										<keyframe>
											<when>2065</when>
											<value>0</value>
										</keyframe>
									</parameter>
								</effect>
							</filter>
						<link>
							<linkclipref>clipitem-1480</linkclipref>
							<mediatype>audio</mediatype>
							<trackindex>18</trackindex>
							<clipindex>5</clipindex>
							<groupindex>1</groupindex>
						</link>
						<link>
							<linkclipref>clipitem-1533</linkclipref>
							<mediatype>audio</mediatype>
							<trackindex>19</trackindex>
							<clipindex>5</clipindex>
							<groupindex>1</groupindex>
						</link>
						<logginginfo>
							<description></description>
							<scene></scene>
							<shottake></shottake>
							<lognote></lognote>
						</logginginfo>
						<labels>
							<label2>Iris</label2>
						</labels>
					</clipitem>
					<clipitem id="clipitem-1534" premiereChannelType="stereo">
						<masterclipid>masterclip-339</masterclipid>
						<name>AUXMP_BBX019901_KEY_TO_SUCCESS.wav</name>
						<enabled>TRUE</enabled>
						<duration>3747</duration>
						<rate>
							<timebase>25</timebase>
							<ntsc>FALSE</ntsc>
						</rate>
						<start>13937</start>
						<end>14656</end>
						<in>1111</in>
						<out>1830</out>
						<pproTicksIn>11288471040000</pproTicksIn>
						<pproTicksOut>18593971200000</pproTicksOut>
						<file id="file-339"/>
						<sourcetrack>
							<mediatype>audio</mediatype>
							<trackindex>2</trackindex>
						</sourcetrack>
							<filter>
								<effect>
									<name>Audio Levels</name>
									<effectid>audiolevels</effectid>
									<effectcategory>audiolevels</effectcategory>
									<effecttype>audiolevels</effecttype>
									<mediatype>audio</mediatype>
									<parameter authoringApp="PremierePro">
										<parameterid>level</parameterid>
										<name>Level</name>
										<valuemin>0</valuemin>
										<valuemax>3.98109</valuemax>
										<value>0.05956</value>
										<keyframe>
											<when>292</when>
											<value>0</value>
										</keyframe>
										<keyframe>
											<when>399</when>
											<value>0.106958</value>
										</keyframe>
										<keyframe>
											<when>419</when>
											<value>0.191863</value>
										</keyframe>
										<keyframe>
											<when>719</when>
											<value>0.191863</value>
										</keyframe>
										<keyframe>
											<when>820</when>
											<value>0.169809</value>
										</keyframe>
										<keyframe>
											<when>1078</when>
											<value>0</value>
										</keyframe>
										<keyframe>
											<when>1207</when>
											<value>0</value>
										</keyframe>
										<keyframe>
											<when>1276</when>
											<value>0</value>
										</keyframe>
										<keyframe>
											<when>1300</when>
											<value>0</value>
										</keyframe>
										<keyframe>
											<when>1379</when>
											<value>0.212262</value>
										</keyframe>
										<keyframe>
											<when>1512</when>
											<value>0.212262</value>
										</keyframe>
										<keyframe>
											<when>1590</when>
											<value>0</value>
										</keyframe>
										<keyframe>
											<when>1640</when>
											<value>0</value>
										</keyframe>
										<keyframe>
											<when>1840</when>
											<value>0</value>
										</keyframe>
										<keyframe>
											<when>1907</when>
											<value>0</value>
										</keyframe>
										<keyframe>
											<when>2547</when>
											<value>0.0424523</value>
										</keyframe>
										<keyframe>
											<when>2565</when>
											<value>0</value>
										</keyframe>
										<keyframe>
											<when>2868</when>
											<value>0</value>
										</keyframe>
										<keyframe>
											<when>2920</when>
											<value>0.05956</value>
										</keyframe>
									</parameter>
								</effect>
							</filter>
						<link>
							<linkclipref>clipitem-1481</linkclipref>
							<mediatype>audio</mediatype>
							<trackindex>18</trackindex>
							<clipindex>6</clipindex>
							<groupindex>1</groupindex>
						</link>
						<link>
							<linkclipref>clipitem-1534</linkclipref>
							<mediatype>audio</mediatype>
							<trackindex>19</trackindex>
							<clipindex>6</clipindex>
							<groupindex>1</groupindex>
						</link>
						<logginginfo>
							<description></description>
							<scene></scene>
							<shottake></shottake>
							<lognote></lognote>
						</logginginfo>
						<labels>
							<label2>Iris</label2>
						</labels>
					</clipitem>
					<clipitem id="clipitem-1535" premiereChannelType="stereo">
						<masterclipid>masterclip-339</masterclipid>
						<name>AUXMP_BBX019901_KEY_TO_SUCCESS.wav</name>
						<enabled>TRUE</enabled>
						<duration>3747</duration>
						<rate>
							<timebase>25</timebase>
							<ntsc>FALSE</ntsc>
						</rate>
						<start>15268</start>
						<end>15650</end>
						<in>2442</in>
						<out>2824</out>
						<pproTicksIn>24812282880000</pproTicksIn>
						<pproTicksOut>28693647360000</pproTicksOut>
						<file id="file-339"/>
						<sourcetrack>
							<mediatype>audio</mediatype>
							<trackindex>2</trackindex>
						</sourcetrack>
							<filter>
								<effect>
									<name>Audio Levels</name>
									<effectid>audiolevels</effectid>
									<effectcategory>audiolevels</effectcategory>
									<effecttype>audiolevels</effecttype>
									<mediatype>audio</mediatype>
									<parameter authoringApp="PremierePro">
										<parameterid>level</parameterid>
										<name>Level</name>
										<valuemin>0</valuemin>
										<valuemax>3.98109</valuemax>
										<value>0.05956</value>
										<keyframe>
											<when>292</when>
											<value>0</value>
										</keyframe>
										<keyframe>
											<when>399</when>
											<value>0.106958</value>
										</keyframe>
										<keyframe>
											<when>419</when>
											<value>0.191863</value>
										</keyframe>
										<keyframe>
											<when>719</when>
											<value>0.191863</value>
										</keyframe>
										<keyframe>
											<when>820</when>
											<value>0.169809</value>
										</keyframe>
										<keyframe>
											<when>1078</when>
											<value>0</value>
										</keyframe>
										<keyframe>
											<when>1207</when>
											<value>0</value>
										</keyframe>
										<keyframe>
											<when>1276</when>
											<value>0</value>
										</keyframe>
										<keyframe>
											<when>1300</when>
											<value>0</value>
										</keyframe>
										<keyframe>
											<when>1379</when>
											<value>0.212262</value>
										</keyframe>
										<keyframe>
											<when>1512</when>
											<value>0.212262</value>
										</keyframe>
										<keyframe>
											<when>1590</when>
											<value>0</value>
										</keyframe>
										<keyframe>
											<when>1640</when>
											<value>0</value>
										</keyframe>
										<keyframe>
											<when>1840</when>
											<value>0</value>
										</keyframe>
										<keyframe>
											<when>1907</when>
											<value>0</value>
										</keyframe>
										<keyframe>
											<when>2547</when>
											<value>0.0424523</value>
										</keyframe>
										<keyframe>
											<when>2565</when>
											<value>0</value>
										</keyframe>
										<keyframe>
											<when>2868</when>
											<value>0</value>
										</keyframe>
										<keyframe>
											<when>2920</when>
											<value>0.05956</value>
										</keyframe>
									</parameter>
								</effect>
							</filter>
						<link>
							<linkclipref>clipitem-1482</linkclipref>
							<mediatype>audio</mediatype>
							<trackindex>18</trackindex>
							<clipindex>7</clipindex>
							<groupindex>1</groupindex>
						</link>
						<link>
							<linkclipref>clipitem-1535</linkclipref>
							<mediatype>audio</mediatype>
							<trackindex>19</trackindex>
							<clipindex>7</clipindex>
							<groupindex>1</groupindex>
						</link>
						<logginginfo>
							<description></description>
							<scene></scene>
							<shottake></shottake>
							<lognote></lognote>
						</logginginfo>
						<labels>
							<label2>Iris</label2>
						</labels>
					</clipitem>
					<clipitem id="clipitem-1536" premiereChannelType="stereo">
						<masterclipid>masterclip-334</masterclipid>
						<name>AUXMP_SCDV055566_UPBEAT_PEOPLE_A.wav</name>
						<enabled>TRUE</enabled>
						<duration>2784</duration>
						<rate>
							<timebase>25</timebase>
							<ntsc>FALSE</ntsc>
						</rate>
						<start>19614</start>
						<end>21255</end>
						<in>0</in>
						<out>1641</out>
						<pproTicksIn>0</pproTicksIn>
						<pproTicksOut>16673610240000</pproTicksOut>
						<file id="file-334"/>
						<sourcetrack>
							<mediatype>audio</mediatype>
							<trackindex>2</trackindex>
						</sourcetrack>
							<filter>
								<effect>
									<name>Audio Levels</name>
									<effectid>audiolevels</effectid>
									<effectcategory>audiolevels</effectcategory>
									<effecttype>audiolevels</effecttype>
									<mediatype>audio</mediatype>
									<parameter authoringApp="PremierePro">
										<parameterid>level</parameterid>
										<name>Level</name>
										<valuemin>0</valuemin>
										<valuemax>3.98109</valuemax>
										<value>0</value>
										<keyframe>
											<when>83</when>
											<value>0.233488</value>
										</keyframe>
										<keyframe>
											<when>167</when>
											<value>0.0636785</value>
										</keyframe>
										<keyframe>
											<when>197</when>
											<value>0.0212262</value>
										</keyframe>
										<keyframe>
											<when>364</when>
											<value>0.0212262</value>
										</keyframe>
										<keyframe>
											<when>404</when>
											<value>0.0636785</value>
										</keyframe>
										<keyframe>
											<when>500</when>
											<value>0.0636785</value>
										</keyframe>
										<keyframe>
											<when>536</when>
											<value>0.0212262</value>
										</keyframe>
										<keyframe>
											<when>773</when>
											<value>0.0212262</value>
										</keyframe>
										<keyframe>
											<when>1109</when>
											<value>0</value>
										</keyframe>
									</parameter>
								</effect>
							</filter>
						<link>
							<linkclipref>clipitem-1483</linkclipref>
							<mediatype>audio</mediatype>
							<trackindex>18</trackindex>
							<clipindex>8</clipindex>
							<groupindex>1</groupindex>
						</link>
						<link>
							<linkclipref>clipitem-1536</linkclipref>
							<mediatype>audio</mediatype>
							<trackindex>19</trackindex>
							<clipindex>8</clipindex>
							<groupindex>1</groupindex>
						</link>
						<logginginfo>
							<description></description>
							<scene></scene>
							<shottake></shottake>
							<lognote></lognote>
						</logginginfo>
						<labels>
							<label2>Iris</label2>
						</labels>
					</clipitem>
					<clipitem id="clipitem-1537" premiereChannelType="stereo">
						<masterclipid>masterclip-334</masterclipid>
						<name>AUXMP_SCDV055566_UPBEAT_PEOPLE_A.wav</name>
						<enabled>TRUE</enabled>
						<duration>2784</duration>
						<rate>
							<timebase>25</timebase>
							<ntsc>FALSE</ntsc>
						</rate>
						<start>21500</start>
						<end>23141</end>
						<in>0</in>
						<out>1641</out>
						<pproTicksIn>0</pproTicksIn>
						<pproTicksOut>16673610240000</pproTicksOut>
						<file id="file-334"/>
						<sourcetrack>
							<mediatype>audio</mediatype>
							<trackindex>2</trackindex>
						</sourcetrack>
							<filter>
								<effect>
									<name>Audio Levels</name>
									<effectid>audiolevels</effectid>
									<effectcategory>audiolevels</effectcategory>
									<effecttype>audiolevels</effecttype>
									<mediatype>audio</mediatype>
									<parameter authoringApp="PremierePro">
										<parameterid>level</parameterid>
										<name>Level</name>
										<valuemin>0</valuemin>
										<valuemax>3.98109</valuemax>
										<value>0</value>
										<keyframe>
											<when>83</when>
											<value>0.360845</value>
										</keyframe>
										<keyframe>
											<when>261</when>
											<value>0.395849</value>
										</keyframe>
										<keyframe>
											<when>344</when>
											<value>0.133688</value>
										</keyframe>
										<keyframe>
											<when>445</when>
											<value>0</value>
										</keyframe>
										<keyframe>
											<when>485</when>
											<value>0</value>
										</keyframe>
										<keyframe>
											<when>500</when>
											<value>0</value>
										</keyframe>
										<keyframe>
											<when>536</when>
											<value>0</value>
										</keyframe>
										<keyframe>
											<when>773</when>
											<value>0</value>
										</keyframe>
										<keyframe>
											<when>1320</when>
											<value>0</value>
										</keyframe>
									</parameter>
								</effect>
							</filter>
						<link>
							<linkclipref>clipitem-1484</linkclipref>
							<mediatype>audio</mediatype>
							<trackindex>18</trackindex>
							<clipindex>9</clipindex>
							<groupindex>1</groupindex>
						</link>
						<link>
							<linkclipref>clipitem-1537</linkclipref>
							<mediatype>audio</mediatype>
							<trackindex>19</trackindex>
							<clipindex>9</clipindex>
							<groupindex>1</groupindex>
						</link>
						<logginginfo>
							<description></description>
							<scene></scene>
							<shottake></shottake>
							<lognote></lognote>
						</logginginfo>
						<labels>
							<label2>Iris</label2>
						</labels>
					</clipitem>
					<clipitem id="clipitem-1538" premiereChannelType="stereo">
						<masterclipid>masterclip-334</masterclipid>
						<name>AUXMP_SCDV055566_UPBEAT_PEOPLE_A.wav</name>
						<enabled>TRUE</enabled>
						<duration>2784</duration>
						<rate>
							<timebase>25</timebase>
							<ntsc>FALSE</ntsc>
						</rate>
						<start>23704</start>
						<end>26488</end>
						<in>0</in>
						<out>2784</out>
						<pproTicksIn>0</pproTicksIn>
						<pproTicksOut>28287221760000</pproTicksOut>
						<file id="file-334"/>
						<sourcetrack>
							<mediatype>audio</mediatype>
							<trackindex>2</trackindex>
						</sourcetrack>
							<filter>
								<effect>
									<name>Audio Levels</name>
									<effectid>audiolevels</effectid>
									<effectcategory>audiolevels</effectcategory>
									<effecttype>audiolevels</effecttype>
									<mediatype>audio</mediatype>
									<parameter authoringApp="PremierePro">
										<parameterid>level</parameterid>
										<name>Level</name>
										<valuemin>0</valuemin>
										<valuemax>3.98109</valuemax>
										<value>0</value>
										<keyframe>
											<when>83</when>
											<value>0.233488</value>
										</keyframe>
										<keyframe>
											<when>274</when>
											<value>0.233488</value>
										</keyframe>
										<keyframe>
											<when>319</when>
											<value>0.0212262</value>
										</keyframe>
										<keyframe>
											<when>475</when>
											<value>0.0212262</value>
										</keyframe>
										<keyframe>
											<when>655</when>
											<value>0</value>
										</keyframe>
										<keyframe>
											<when>744</when>
											<value>0</value>
										</keyframe>
										<keyframe>
											<when>768</when>
											<value>0</value>
										</keyframe>
										<keyframe>
											<when>945</when>
											<value>0</value>
										</keyframe>
										<keyframe>
											<when>1248</when>
											<value>0</value>
										</keyframe>
									</parameter>
								</effect>
							</filter>
						<link>
							<linkclipref>clipitem-1485</linkclipref>
							<mediatype>audio</mediatype>
							<trackindex>18</trackindex>
							<clipindex>10</clipindex>
							<groupindex>1</groupindex>
						</link>
						<link>
							<linkclipref>clipitem-1538</linkclipref>
							<mediatype>audio</mediatype>
							<trackindex>19</trackindex>
							<clipindex>10</clipindex>
							<groupindex>1</groupindex>
						</link>
						<logginginfo>
							<description></description>
							<scene></scene>
							<shottake></shottake>
							<lognote></lognote>
						</logginginfo>
						<labels>
							<label2>Iris</label2>
						</labels>
					</clipitem>
					<clipitem id="clipitem-1539" premiereChannelType="stereo">
						<masterclipid>masterclip-340</masterclipid>
						<name>SCDV047301.wav</name>
						<enabled>TRUE</enabled>
						<duration>4449</duration>
						<rate>
							<timebase>25</timebase>
							<ntsc>FALSE</ntsc>
						</rate>
						<start>31083</start>
						<end>31795</end>
						<in>2244</in>
						<out>2956</out>
						<pproTicksIn>22800476160000</pproTicksIn>
						<pproTicksOut>30034851840000</pproTicksOut>
						<file id="file-340"/>
						<sourcetrack>
							<mediatype>audio</mediatype>
							<trackindex>2</trackindex>
						</sourcetrack>
							<filter>
								<effect>
									<name>Audio Levels</name>
									<effectid>audiolevels</effectid>
									<effectcategory>audiolevels</effectcategory>
									<effecttype>audiolevels</effecttype>
									<mediatype>audio</mediatype>
									<parameter authoringApp="PremierePro">
										<parameterid>level</parameterid>
										<name>Level</name>
										<valuemin>0</valuemin>
										<valuemax>3.98109</valuemax>
										<value>0.16571</value>
										<keyframe>
											<when>1728</when>
											<value>0</value>
										</keyframe>
										<keyframe>
											<when>1776</when>
											<value>0.0532488</value>
										</keyframe>
										<keyframe>
											<when>2298</when>
											<value>0</value>
										</keyframe>
										<keyframe>
											<when>2326</when>
											<value>0.0532488</value>
										</keyframe>
										<keyframe>
											<when>2680</when>
											<value>0.0532488</value>
										</keyframe>
										<keyframe>
											<when>2720</when>
											<value>0.0693873</value>
										</keyframe>
										<keyframe>
											<when>2847</when>
											<value>0.0602952</value>
										</keyframe>
										<keyframe>
											<when>2890</when>
											<value>0.0475062</value>
										</keyframe>
										<keyframe>
											<when>2911</when>
											<value>0</value>
										</keyframe>
										<keyframe>
											<when>3656</when>
											<value>0</value>
										</keyframe>
										<keyframe>
											<when>3712</when>
											<value>0.16571</value>
										</keyframe>
									</parameter>
								</effect>
							</filter>
						<link>
							<linkclipref>clipitem-1486</linkclipref>
							<mediatype>audio</mediatype>
							<trackindex>18</trackindex>
							<clipindex>11</clipindex>
							<groupindex>1</groupindex>
						</link>
						<link>
							<linkclipref>clipitem-1539</linkclipref>
							<mediatype>audio</mediatype>
							<trackindex>19</trackindex>
							<clipindex>11</clipindex>
							<groupindex>1</groupindex>
						</link>
						<logginginfo>
							<description></description>
							<scene></scene>
							<shottake></shottake>
							<lognote></lognote>
						</logginginfo>
						<labels>
							<label2>Caribbean</label2>
						</labels>
					</clipitem>
					<clipitem id="clipitem-1540" premiereChannelType="stereo">
						<masterclipid>masterclip-341</masterclipid>
						<name>KT_292_36_Darkness_Ascending_Constantinou_Frazer_Young_822574.wav</name>
						<enabled>TRUE</enabled>
						<duration>3538</duration>
						<rate>
							<timebase>25</timebase>
							<ntsc>FALSE</ntsc>
						</rate>
						<start>34435</start>
						<end>-1</end>
						<in>107</in>
						<out>952</out>
						<pproTicksIn>1087188480000</pproTicksIn>
						<pproTicksOut>9672929280000</pproTicksOut>
						<file id="file-341"/>
						<sourcetrack>
							<mediatype>audio</mediatype>
							<trackindex>2</trackindex>
						</sourcetrack>
							<filter>
								<effect>
									<name>Audio Levels</name>
									<effectid>audiolevels</effectid>
									<effectcategory>audiolevels</effectcategory>
									<effecttype>audiolevels</effecttype>
									<mediatype>audio</mediatype>
									<parameter authoringApp="PremierePro">
										<parameterid>level</parameterid>
										<name>Level</name>
										<valuemin>0</valuemin>
										<valuemax>3.98109</valuemax>
										<value>0.295</value>
										<keyframe>
											<when>172</when>
											<value>0.368944</value>
										</keyframe>
										<keyframe>
											<when>217</when>
											<value>0.721474</value>
										</keyframe>
										<keyframe>
											<when>804</when>
											<value>0.721474</value>
										</keyframe>
										<keyframe>
											<when>851</when>
											<value>0.295</value>
										</keyframe>
									</parameter>
								</effect>
							</filter>
						<link>
							<linkclipref>clipitem-1487</linkclipref>
							<mediatype>audio</mediatype>
							<trackindex>18</trackindex>
							<clipindex>12</clipindex>
							<groupindex>1</groupindex>
						</link>
						<link>
							<linkclipref>clipitem-1540</linkclipref>
							<mediatype>audio</mediatype>
							<trackindex>19</trackindex>
							<clipindex>12</clipindex>
							<groupindex>1</groupindex>
						</link>
						<logginginfo>
							<description></description>
							<scene></scene>
							<shottake></shottake>
							<lognote></lognote>
						</logginginfo>
						<labels>
							<label2>Caribbean</label2>
						</labels>
					</clipitem>
					<transitionitem>
						<start>35268</start>
						<end>35280</end>
						<alignment>center</alignment>
						<cutPointTicks>60963840000</cutPointTicks>
						<rate>
							<timebase>25</timebase>
							<ntsc>FALSE</ntsc>
						</rate>
						<effect>
							<name>Cross Fade (+3dB)</name>
							<effectid>KGAudioTransCrossFade3dB</effectid>
							<effecttype>transition</effecttype>
							<mediatype>audio</mediatype>
							<wipecode>0</wipecode>
							<wipeaccuracy>100</wipeaccuracy>
							<startratio>0</startratio>
							<endratio>1</endratio>
							<reverse>FALSE</reverse>
						</effect>
					</transitionitem>
					<clipitem id="clipitem-1541" premiereChannelType="stereo">
						<masterclipid>masterclip-341</masterclipid>
						<name>KT_292_36_Darkness_Ascending_Constantinou_Frazer_Young_822574.wav</name>
						<enabled>TRUE</enabled>
						<duration>3538</duration>
						<rate>
							<timebase>25</timebase>
							<ntsc>FALSE</ntsc>
						</rate>
						<start>-1</start>
						<end>35481</end>
						<in>3324</in>
						<out>3537</out>
						<pproTicksIn>33773967360000</pproTicksIn>
						<pproTicksOut>35938183680000</pproTicksOut>
						<file id="file-341"/>
						<sourcetrack>
							<mediatype>audio</mediatype>
							<trackindex>2</trackindex>
						</sourcetrack>
							<filter>
								<effect>
									<name>Audio Levels</name>
									<effectid>audiolevels</effectid>
									<effectcategory>audiolevels</effectcategory>
									<effecttype>audiolevels</effecttype>
									<mediatype>audio</mediatype>
									<parameter authoringApp="PremierePro">
										<parameterid>level</parameterid>
										<name>Level</name>
										<valuemin>0</valuemin>
										<valuemax>3.98109</valuemax>
										<value>0.295</value>
										<keyframe>
											<when>804</when>
											<value>0.721474</value>
										</keyframe>
										<keyframe>
											<when>851</when>
											<value>0.295</value>
										</keyframe>
									</parameter>
								</effect>
							</filter>
						<link>
							<linkclipref>clipitem-1488</linkclipref>
							<mediatype>audio</mediatype>
							<trackindex>18</trackindex>
							<clipindex>14</clipindex>
							<groupindex>1</groupindex>
						</link>
						<link>
							<linkclipref>clipitem-1541</linkclipref>
							<mediatype>audio</mediatype>
							<trackindex>19</trackindex>
							<clipindex>14</clipindex>
							<groupindex>1</groupindex>
						</link>
						<logginginfo>
							<description></description>
							<scene></scene>
							<shottake></shottake>
							<lognote></lognote>
						</logginginfo>
						<labels>
							<label2>Caribbean</label2>
						</labels>
					</clipitem>
					<clipitem id="clipitem-1542" premiereChannelType="stereo">
						<masterclipid>masterclip-330</masterclipid>
						<name>NATURLIGHELAFTEN-Clean.wav</name>
						<enabled>TRUE</enabled>
						<duration>151</duration>
						<rate>
							<timebase>25</timebase>
							<ntsc>FALSE</ntsc>
						</rate>
						<start>35998</start>
						<end>36149</end>
						<in>0</in>
						<out>151</out>
						<pproTicksIn>0</pproTicksIn>
						<pproTicksOut>1534256640000</pproTicksOut>
						<file id="file-330"/>
						<sourcetrack>
							<mediatype>audio</mediatype>
							<trackindex>2</trackindex>
						</sourcetrack>
							<filter>
								<effect>
									<name>Audio Levels</name>
									<effectid>audiolevels</effectid>
									<effectcategory>audiolevels</effectcategory>
									<effecttype>audiolevels</effecttype>
									<mediatype>audio</mediatype>
									<parameter authoringApp="PremierePro">
										<parameterid>level</parameterid>
										<name>Level</name>
										<valuemin>0</valuemin>
										<valuemax>3.98109</valuemax>
										<value>0.173761</value>
									</parameter>
								</effect>
							</filter>
						<link>
							<linkclipref>clipitem-1489</linkclipref>
							<mediatype>audio</mediatype>
							<trackindex>18</trackindex>
							<clipindex>15</clipindex>
							<groupindex>1</groupindex>
						</link>
						<link>
							<linkclipref>clipitem-1542</linkclipref>
							<mediatype>audio</mediatype>
							<trackindex>19</trackindex>
							<clipindex>15</clipindex>
							<groupindex>1</groupindex>
						</link>
						<logginginfo>
							<description></description>
							<scene></scene>
							<shottake></shottake>
							<lognote></lognote>
						</logginginfo>
						<labels>
							<label2>Iris</label2>
						</labels>
					</clipitem>
					<clipitem id="clipitem-1543" premiereChannelType="stereo">
						<masterclipid>masterclip-329</masterclipid>
						<name>Nordvisjon-MASTER-vr3-201016-ny-kommentar.wav</name>
						<enabled>TRUE</enabled>
						<duration>42953</duration>
						<rate>
							<timebase>25</timebase>
							<ntsc>FALSE</ntsc>
						</rate>
						<start>65508</start>
						<end>67029</end>
						<in>1603</in>
						<out>3124</out>
						<pproTicksIn>16287505920000</pproTicksIn>
						<pproTicksOut>31741839360000</pproTicksOut>
						<file id="file-329"/>
						<sourcetrack>
							<mediatype>audio</mediatype>
							<trackindex>2</trackindex>
						</sourcetrack>
							<filter>
								<effect>
									<name>Audio Levels</name>
									<effectid>audiolevels</effectid>
									<effectcategory>audiolevels</effectcategory>
									<effecttype>audiolevels</effecttype>
									<mediatype>audio</mediatype>
									<parameter authoringApp="PremierePro">
										<parameterid>level</parameterid>
										<name>Level</name>
										<valuemin>0</valuemin>
										<valuemax>3.98109</valuemax>
										<value>0.48034</value>
										<keyframe>
											<when>2364</when>
											<value>0.48034</value>
										</keyframe>
									</parameter>
								</effect>
							</filter>
							<marker>
								<comment></comment>
								<name></name>
								<in>40399</in>
								<out>-1</out>
							</marker>
							<marker>
								<comment></comment>
								<name></name>
								<in>3092</in>
								<out>-1</out>
							</marker>
							<marker>
								<comment></comment>
								<name></name>
								<in>36054</in>
								<out>-1</out>
							</marker>
							<marker>
								<comment></comment>
								<name></name>
								<in>0</in>
								<out>-1</out>
							</marker>
						<link>
							<linkclipref>clipitem-1490</linkclipref>
							<mediatype>audio</mediatype>
							<trackindex>18</trackindex>
							<clipindex>16</clipindex>
							<groupindex>1</groupindex>
						</link>
						<link>
							<linkclipref>clipitem-1543</linkclipref>
							<mediatype>audio</mediatype>
							<trackindex>19</trackindex>
							<clipindex>16</clipindex>
							<groupindex>1</groupindex>
						</link>
						<logginginfo>
							<description></description>
							<scene></scene>
							<shottake></shottake>
							<lognote></lognote>
						</logginginfo>
						<labels>
							<label2>Iris</label2>
						</labels>
					</clipitem>
					<clipitem id="clipitem-1544" premiereChannelType="stereo">
						<masterclipid>masterclip-329</masterclipid>
						<name>Nordvisjon-MASTER-vr3-201016-ny-kommentar.wav</name>
						<enabled>TRUE</enabled>
						<duration>42953</duration>
						<rate>
							<timebase>25</timebase>
							<ntsc>FALSE</ntsc>
						</rate>
						<start>67029</start>
						<end>67440</end>
						<in>4088</in>
						<out>4499</out>
						<pproTicksIn>41536696320000</pproTicksIn>
						<pproTicksOut>45712719360000</pproTicksOut>
						<file id="file-329"/>
						<sourcetrack>
							<mediatype>audio</mediatype>
							<trackindex>2</trackindex>
						</sourcetrack>
							<filter>
								<effect>
									<name>Audio Levels</name>
									<effectid>audiolevels</effectid>
									<effectcategory>audiolevels</effectcategory>
									<effecttype>audiolevels</effecttype>
									<mediatype>audio</mediatype>
									<parameter authoringApp="PremierePro">
										<parameterid>level</parameterid>
										<name>Level</name>
										<valuemin>0</valuemin>
										<valuemax>3.98109</valuemax>
										<value>0.628137</value>
									</parameter>
								</effect>
							</filter>
							<marker>
								<comment></comment>
								<name></name>
								<in>40399</in>
								<out>-1</out>
							</marker>
							<marker>
								<comment></comment>
								<name></name>
								<in>3092</in>
								<out>-1</out>
							</marker>
							<marker>
								<comment></comment>
								<name></name>
								<in>36054</in>
								<out>-1</out>
							</marker>
							<marker>
								<comment></comment>
								<name></name>
								<in>0</in>
								<out>-1</out>
							</marker>
						<link>
							<linkclipref>clipitem-1491</linkclipref>
							<mediatype>audio</mediatype>
							<trackindex>18</trackindex>
							<clipindex>17</clipindex>
							<groupindex>1</groupindex>
						</link>
						<link>
							<linkclipref>clipitem-1544</linkclipref>
							<mediatype>audio</mediatype>
							<trackindex>19</trackindex>
							<clipindex>17</clipindex>
							<groupindex>1</groupindex>
						</link>
						<logginginfo>
							<description></description>
							<scene></scene>
							<shottake></shottake>
							<lognote></lognote>
						</logginginfo>
						<labels>
							<label2>Iris</label2>
						</labels>
					</clipitem>
					<clipitem id="clipitem-1545" premiereChannelType="stereo">
						<masterclipid>masterclip-329</masterclipid>
						<name>Nordvisjon-MASTER-vr3-201016-ny-kommentar.wav</name>
						<enabled>TRUE</enabled>
						<duration>42953</duration>
						<rate>
							<timebase>25</timebase>
							<ntsc>FALSE</ntsc>
						</rate>
						<start>67440</start>
						<end>68022</end>
						<in>4658</in>
						<out>5240</out>
						<pproTicksIn>47328261120000</pproTicksIn>
						<pproTicksOut>53241753600000</pproTicksOut>
						<file id="file-329"/>
						<sourcetrack>
							<mediatype>audio</mediatype>
							<trackindex>2</trackindex>
						</sourcetrack>
							<marker>
								<comment></comment>
								<name></name>
								<in>40399</in>
								<out>-1</out>
							</marker>
							<marker>
								<comment></comment>
								<name></name>
								<in>3092</in>
								<out>-1</out>
							</marker>
							<marker>
								<comment></comment>
								<name></name>
								<in>36054</in>
								<out>-1</out>
							</marker>
							<marker>
								<comment></comment>
								<name></name>
								<in>0</in>
								<out>-1</out>
							</marker>
						<link>
							<linkclipref>clipitem-1492</linkclipref>
							<mediatype>audio</mediatype>
							<trackindex>18</trackindex>
							<clipindex>18</clipindex>
							<groupindex>1</groupindex>
						</link>
						<link>
							<linkclipref>clipitem-1545</linkclipref>
							<mediatype>audio</mediatype>
							<trackindex>19</trackindex>
							<clipindex>18</clipindex>
							<groupindex>1</groupindex>
						</link>
						<logginginfo>
							<description></description>
							<scene></scene>
							<shottake></shottake>
							<lognote></lognote>
						</logginginfo>
						<labels>
							<label2>Iris</label2>
						</labels>
					</clipitem>
					<clipitem id="clipitem-1546" premiereChannelType="stereo">
						<masterclipid>masterclip-329</masterclipid>
						<name>Nordvisjon-MASTER-vr3-201016-ny-kommentar.wav</name>
						<enabled>TRUE</enabled>
						<duration>42953</duration>
						<rate>
							<timebase>25</timebase>
							<ntsc>FALSE</ntsc>
						</rate>
						<start>68022</start>
						<end>70690</end>
						<in>5472</in>
						<out>8140</out>
						<pproTicksIn>55599022080000</pproTicksIn>
						<pproTicksOut>82707609600000</pproTicksOut>
						<file id="file-329"/>
						<sourcetrack>
							<mediatype>audio</mediatype>
							<trackindex>2</trackindex>
						</sourcetrack>
							<filter>
								<effect>
									<name>Audio Levels</name>
									<effectid>audiolevels</effectid>
									<effectcategory>audiolevels</effectcategory>
									<effecttype>audiolevels</effecttype>
									<mediatype>audio</mediatype>
									<parameter authoringApp="PremierePro">
										<parameterid>level</parameterid>
										<name>Level</name>
										<valuemin>0</valuemin>
										<valuemax>3.98109</valuemax>
										<value>0.628137</value>
										<keyframe>
											<when>5641</when>
											<value>0.628137</value>
										</keyframe>
									</parameter>
								</effect>
							</filter>
							<marker>
								<comment></comment>
								<name></name>
								<in>40399</in>
								<out>-1</out>
							</marker>
							<marker>
								<comment></comment>
								<name></name>
								<in>3092</in>
								<out>-1</out>
							</marker>
							<marker>
								<comment></comment>
								<name></name>
								<in>36054</in>
								<out>-1</out>
							</marker>
							<marker>
								<comment></comment>
								<name></name>
								<in>0</in>
								<out>-1</out>
							</marker>
						<link>
							<linkclipref>clipitem-1493</linkclipref>
							<mediatype>audio</mediatype>
							<trackindex>18</trackindex>
							<clipindex>19</clipindex>
							<groupindex>1</groupindex>
						</link>
						<link>
							<linkclipref>clipitem-1546</linkclipref>
							<mediatype>audio</mediatype>
							<trackindex>19</trackindex>
							<clipindex>19</clipindex>
							<groupindex>1</groupindex>
						</link>
						<logginginfo>
							<description></description>
							<scene></scene>
							<shottake></shottake>
							<lognote></lognote>
						</logginginfo>
						<labels>
							<label2>Iris</label2>
						</labels>
					</clipitem>
					<clipitem id="clipitem-1547" premiereChannelType="stereo">
						<masterclipid>masterclip-329</masterclipid>
						<name>Nordvisjon-MASTER-vr3-201016-ny-kommentar.wav</name>
						<enabled>TRUE</enabled>
						<duration>42953</duration>
						<rate>
							<timebase>25</timebase>
							<ntsc>FALSE</ntsc>
						</rate>
						<start>70690</start>
						<end>71092</end>
						<in>8140</in>
						<out>8542</out>
						<pproTicksIn>82707609600000</pproTicksIn>
						<pproTicksOut>86792186880000</pproTicksOut>
						<file id="file-329"/>
						<sourcetrack>
							<mediatype>audio</mediatype>
							<trackindex>1</trackindex>
						</sourcetrack>
							<filter>
								<effect>
									<name>Audio Levels</name>
									<effectid>audiolevels</effectid>
									<effectcategory>audiolevels</effectcategory>
									<effecttype>audiolevels</effecttype>
									<mediatype>audio</mediatype>
									<parameter authoringApp="PremierePro">
										<parameterid>level</parameterid>
										<name>Level</name>
										<valuemin>0</valuemin>
										<valuemax>3.98109</valuemax>
										<value>0.628137</value>
									</parameter>
								</effect>
							</filter>
							<marker>
								<comment></comment>
								<name></name>
								<in>40399</in>
								<out>-1</out>
							</marker>
							<marker>
								<comment></comment>
								<name></name>
								<in>3092</in>
								<out>-1</out>
							</marker>
							<marker>
								<comment></comment>
								<name></name>
								<in>36054</in>
								<out>-1</out>
							</marker>
							<marker>
								<comment></comment>
								<name></name>
								<in>0</in>
								<out>-1</out>
							</marker>
						<link>
							<linkclipref>clipitem-1494</linkclipref>
							<mediatype>audio</mediatype>
							<trackindex>18</trackindex>
							<clipindex>20</clipindex>
							<groupindex>1</groupindex>
						</link>
						<link>
							<linkclipref>clipitem-1547</linkclipref>
							<mediatype>audio</mediatype>
							<trackindex>19</trackindex>
							<clipindex>20</clipindex>
							<groupindex>1</groupindex>
						</link>
						<logginginfo>
							<description></description>
							<scene></scene>
							<shottake></shottake>
							<lognote></lognote>
						</logginginfo>
						<labels>
							<label2>Iris</label2>
						</labels>
					</clipitem>
					<clipitem id="clipitem-1548" premiereChannelType="stereo">
						<masterclipid>masterclip-329</masterclipid>
						<name>Nordvisjon-MASTER-vr3-201016-ny-kommentar.wav</name>
						<enabled>TRUE</enabled>
						<duration>42953</duration>
						<rate>
							<timebase>25</timebase>
							<ntsc>FALSE</ntsc>
						</rate>
						<start>71092</start>
						<end>71312</end>
						<in>8542</in>
						<out>8762</out>
						<pproTicksIn>86792186880000</pproTicksIn>
						<pproTicksOut>89027527680000</pproTicksOut>
						<file id="file-329"/>
						<sourcetrack>
							<mediatype>audio</mediatype>
							<trackindex>2</trackindex>
						</sourcetrack>
							<filter>
								<effect>
									<name>Audio Levels</name>
									<effectid>audiolevels</effectid>
									<effectcategory>audiolevels</effectcategory>
									<effecttype>audiolevels</effecttype>
									<mediatype>audio</mediatype>
									<parameter authoringApp="PremierePro">
										<parameterid>level</parameterid>
										<name>Level</name>
										<valuemin>0</valuemin>
										<valuemax>3.98109</valuemax>
										<value>0.628137</value>
									</parameter>
								</effect>
							</filter>
							<marker>
								<comment></comment>
								<name></name>
								<in>40399</in>
								<out>-1</out>
							</marker>
							<marker>
								<comment></comment>
								<name></name>
								<in>3092</in>
								<out>-1</out>
							</marker>
							<marker>
								<comment></comment>
								<name></name>
								<in>36054</in>
								<out>-1</out>
							</marker>
							<marker>
								<comment></comment>
								<name></name>
								<in>0</in>
								<out>-1</out>
							</marker>
						<link>
							<linkclipref>clipitem-1495</linkclipref>
							<mediatype>audio</mediatype>
							<trackindex>18</trackindex>
							<clipindex>21</clipindex>
							<groupindex>1</groupindex>
						</link>
						<link>
							<linkclipref>clipitem-1548</linkclipref>
							<mediatype>audio</mediatype>
							<trackindex>19</trackindex>
							<clipindex>21</clipindex>
							<groupindex>1</groupindex>
						</link>
						<logginginfo>
							<description></description>
							<scene></scene>
							<shottake></shottake>
							<lognote></lognote>
						</logginginfo>
						<labels>
							<label2>Iris</label2>
						</labels>
					</clipitem>
					<clipitem id="clipitem-1549" premiereChannelType="stereo">
						<masterclipid>masterclip-329</masterclipid>
						<name>Nordvisjon-MASTER-vr3-201016-ny-kommentar.wav</name>
						<enabled>TRUE</enabled>
						<duration>42953</duration>
						<rate>
							<timebase>25</timebase>
							<ntsc>FALSE</ntsc>
						</rate>
						<start>71312</start>
						<end>72769</end>
						<in>11192</in>
						<out>12649</out>
						<pproTicksIn>113717882880000</pproTicksIn>
						<pproTicksOut>128521935360000</pproTicksOut>
						<file id="file-329"/>
						<sourcetrack>
							<mediatype>audio</mediatype>
							<trackindex>2</trackindex>
						</sourcetrack>
							<filter>
								<effect>
									<name>Audio Levels</name>
									<effectid>audiolevels</effectid>
									<effectcategory>audiolevels</effectcategory>
									<effecttype>audiolevels</effecttype>
									<mediatype>audio</mediatype>
									<parameter authoringApp="PremierePro">
										<parameterid>level</parameterid>
										<name>Level</name>
										<valuemin>0</valuemin>
										<valuemax>3.98109</valuemax>
										<value>0.554239</value>
										<keyframe>
											<when>11509</when>
											<value>0.554239</value>
										</keyframe>
									</parameter>
								</effect>
							</filter>
							<marker>
								<comment></comment>
								<name></name>
								<in>40399</in>
								<out>-1</out>
							</marker>
							<marker>
								<comment></comment>
								<name></name>
								<in>3092</in>
								<out>-1</out>
							</marker>
							<marker>
								<comment></comment>
								<name></name>
								<in>36054</in>
								<out>-1</out>
							</marker>
							<marker>
								<comment></comment>
								<name></name>
								<in>0</in>
								<out>-1</out>
							</marker>
						<link>
							<linkclipref>clipitem-1496</linkclipref>
							<mediatype>audio</mediatype>
							<trackindex>18</trackindex>
							<clipindex>22</clipindex>
							<groupindex>1</groupindex>
						</link>
						<link>
							<linkclipref>clipitem-1549</linkclipref>
							<mediatype>audio</mediatype>
							<trackindex>19</trackindex>
							<clipindex>22</clipindex>
							<groupindex>1</groupindex>
						</link>
						<logginginfo>
							<description></description>
							<scene></scene>
							<shottake></shottake>
							<lognote></lognote>
						</logginginfo>
						<labels>
							<label2>Iris</label2>
						</labels>
					</clipitem>
					<clipitem id="clipitem-1550" premiereChannelType="stereo">
						<masterclipid>masterclip-329</masterclipid>
						<name>Nordvisjon-MASTER-vr3-201016-ny-kommentar.wav</name>
						<enabled>TRUE</enabled>
						<duration>42953</duration>
						<rate>
							<timebase>25</timebase>
							<ntsc>FALSE</ntsc>
						</rate>
						<start>72769</start>
						<end>73575</end>
						<in>14124</in>
						<out>14930</out>
						<pproTicksIn>143508879360000</pproTicksIn>
						<pproTicksOut>151698355200000</pproTicksOut>
						<file id="file-329"/>
						<sourcetrack>
							<mediatype>audio</mediatype>
							<trackindex>2</trackindex>
						</sourcetrack>
							<filter>
								<effect>
									<name>Audio Levels</name>
									<effectid>audiolevels</effectid>
									<effectcategory>audiolevels</effectcategory>
									<effecttype>audiolevels</effecttype>
									<mediatype>audio</mediatype>
									<parameter authoringApp="PremierePro">
										<parameterid>level</parameterid>
										<name>Level</name>
										<valuemin>0</valuemin>
										<valuemax>3.98109</valuemax>
										<value>0.702036</value>
										<keyframe>
											<when>14446</when>
											<value>0.406442</value>
										</keyframe>
										<keyframe>
											<when>14456</when>
											<value>0.702036</value>
										</keyframe>
									</parameter>
								</effect>
							</filter>
							<marker>
								<comment></comment>
								<name></name>
								<in>40399</in>
								<out>-1</out>
							</marker>
							<marker>
								<comment></comment>
								<name></name>
								<in>3092</in>
								<out>-1</out>
							</marker>
							<marker>
								<comment></comment>
								<name></name>
								<in>36054</in>
								<out>-1</out>
							</marker>
							<marker>
								<comment></comment>
								<name></name>
								<in>0</in>
								<out>-1</out>
							</marker>
						<link>
							<linkclipref>clipitem-1497</linkclipref>
							<mediatype>audio</mediatype>
							<trackindex>18</trackindex>
							<clipindex>23</clipindex>
							<groupindex>1</groupindex>
						</link>
						<link>
							<linkclipref>clipitem-1550</linkclipref>
							<mediatype>audio</mediatype>
							<trackindex>19</trackindex>
							<clipindex>23</clipindex>
							<groupindex>1</groupindex>
						</link>
						<logginginfo>
							<description></description>
							<scene></scene>
							<shottake></shottake>
							<lognote></lognote>
						</logginginfo>
						<labels>
							<label2>Iris</label2>
						</labels>
					</clipitem>
					<clipitem id="clipitem-1551" premiereChannelType="stereo">
						<masterclipid>masterclip-329</masterclipid>
						<name>Nordvisjon-MASTER-vr3-201016-ny-kommentar.wav</name>
						<enabled>TRUE</enabled>
						<duration>42953</duration>
						<rate>
							<timebase>25</timebase>
							<ntsc>FALSE</ntsc>
						</rate>
						<start>73575</start>
						<end>74356</end>
						<in>15453</in>
						<out>16234</out>
						<pproTicksIn>157012369920000</pproTicksIn>
						<pproTicksOut>164947829760000</pproTicksOut>
						<file id="file-329"/>
						<sourcetrack>
							<mediatype>audio</mediatype>
							<trackindex>2</trackindex>
						</sourcetrack>
							<filter>
								<effect>
									<name>Audio Levels</name>
									<effectid>audiolevels</effectid>
									<effectcategory>audiolevels</effectcategory>
									<effecttype>audiolevels</effecttype>
									<mediatype>audio</mediatype>
									<parameter authoringApp="PremierePro">
										<parameterid>level</parameterid>
										<name>Level</name>
										<valuemin>0</valuemin>
										<valuemax>3.98109</valuemax>
										<value>0.702036</value>
									</parameter>
								</effect>
							</filter>
							<marker>
								<comment></comment>
								<name></name>
								<in>40399</in>
								<out>-1</out>
							</marker>
							<marker>
								<comment></comment>
								<name></name>
								<in>3092</in>
								<out>-1</out>
							</marker>
							<marker>
								<comment></comment>
								<name></name>
								<in>36054</in>
								<out>-1</out>
							</marker>
							<marker>
								<comment></comment>
								<name></name>
								<in>0</in>
								<out>-1</out>
							</marker>
						<link>
							<linkclipref>clipitem-1498</linkclipref>
							<mediatype>audio</mediatype>
							<trackindex>18</trackindex>
							<clipindex>24</clipindex>
							<groupindex>1</groupindex>
						</link>
						<link>
							<linkclipref>clipitem-1551</linkclipref>
							<mediatype>audio</mediatype>
							<trackindex>19</trackindex>
							<clipindex>24</clipindex>
							<groupindex>1</groupindex>
						</link>
						<logginginfo>
							<description></description>
							<scene></scene>
							<shottake></shottake>
							<lognote></lognote>
						</logginginfo>
						<labels>
							<label2>Iris</label2>
						</labels>
					</clipitem>
					<clipitem id="clipitem-1552" premiereChannelType="stereo">
						<masterclipid>masterclip-342</masterclipid>
						<name>Nordvisjon2MASTER_kommentar.wav</name>
						<enabled>TRUE</enabled>
						<duration>44313</duration>
						<rate>
							<timebase>25</timebase>
							<ntsc>FALSE</ntsc>
						</rate>
						<start>75374</start>
						<end>77442</end>
						<in>13647</in>
						<out>15715</out>
						<pproTicksIn>138662254080000</pproTicksIn>
						<pproTicksOut>159674457600000</pproTicksOut>
						<file id="file-342"/>
						<sourcetrack>
							<mediatype>audio</mediatype>
							<trackindex>2</trackindex>
						</sourcetrack>
						<link>
							<linkclipref>clipitem-1499</linkclipref>
							<mediatype>audio</mediatype>
							<trackindex>18</trackindex>
							<clipindex>25</clipindex>
							<groupindex>1</groupindex>
						</link>
						<link>
							<linkclipref>clipitem-1552</linkclipref>
							<mediatype>audio</mediatype>
							<trackindex>19</trackindex>
							<clipindex>25</clipindex>
							<groupindex>1</groupindex>
						</link>
						<logginginfo>
							<description></description>
							<scene></scene>
							<shottake></shottake>
							<lognote></lognote>
						</logginginfo>
						<labels>
							<label2>Iris</label2>
						</labels>
					</clipitem>
					<clipitem id="clipitem-1553" premiereChannelType="stereo">
						<masterclipid>masterclip-342</masterclipid>
						<name>Nordvisjon2MASTER_kommentar.wav</name>
						<enabled>TRUE</enabled>
						<duration>44313</duration>
						<rate>
							<timebase>25</timebase>
							<ntsc>FALSE</ntsc>
						</rate>
						<start>77442</start>
						<end>-1</end>
						<in>37865</in>
						<out>38658</out>
						<pproTicksIn>384732633600000</pproTicksIn>
						<pproTicksOut>392790021120000</pproTicksOut>
						<file id="file-342"/>
						<sourcetrack>
							<mediatype>audio</mediatype>
							<trackindex>2</trackindex>
						</sourcetrack>
						<link>
							<linkclipref>clipitem-1500</linkclipref>
							<mediatype>audio</mediatype>
							<trackindex>18</trackindex>
							<clipindex>26</clipindex>
							<groupindex>1</groupindex>
						</link>
						<link>
							<linkclipref>clipitem-1553</linkclipref>
							<mediatype>audio</mediatype>
							<trackindex>19</trackindex>
							<clipindex>26</clipindex>
							<groupindex>1</groupindex>
						</link>
						<logginginfo>
							<description></description>
							<scene></scene>
							<shottake></shottake>
							<lognote></lognote>
						</logginginfo>
						<labels>
							<label2>Iris</label2>
						</labels>
					</clipitem>
					<transitionitem>
						<start>78222</start>
						<end>78235</end>
						<alignment>center</alignment>
						<cutPointTicks>60963840000</cutPointTicks>
						<rate>
							<timebase>25</timebase>
							<ntsc>FALSE</ntsc>
						</rate>
						<effect>
							<name>Cross Fade (+3dB)</name>
							<effectid>KGAudioTransCrossFade3dB</effectid>
							<effecttype>transition</effecttype>
							<mediatype>audio</mediatype>
							<wipecode>0</wipecode>
							<wipeaccuracy>100</wipeaccuracy>
							<startratio>0</startratio>
							<endratio>1</endratio>
							<reverse>FALSE</reverse>
						</effect>
					</transitionitem>
					<clipitem id="clipitem-1554" premiereChannelType="stereo">
						<masterclipid>masterclip-342</masterclipid>
						<name>Nordvisjon2MASTER_kommentar.wav</name>
						<enabled>TRUE</enabled>
						<duration>44313</duration>
						<rate>
							<timebase>25</timebase>
							<ntsc>FALSE</ntsc>
						</rate>
						<start>-1</start>
						<end>78401</end>
						<in>24005</in>
						<out>24184</out>
						<pproTicksIn>243906163200000</pproTicksIn>
						<pproTicksOut>245724917760000</pproTicksOut>
						<file id="file-342"/>
						<sourcetrack>
							<mediatype>audio</mediatype>
							<trackindex>2</trackindex>
						</sourcetrack>
						<link>
							<linkclipref>clipitem-1501</linkclipref>
							<mediatype>audio</mediatype>
							<trackindex>18</trackindex>
							<clipindex>28</clipindex>
							<groupindex>1</groupindex>
						</link>
						<link>
							<linkclipref>clipitem-1554</linkclipref>
							<mediatype>audio</mediatype>
							<trackindex>19</trackindex>
							<clipindex>28</clipindex>
							<groupindex>1</groupindex>
						</link>
						<logginginfo>
							<description></description>
							<scene></scene>
							<shottake></shottake>
							<lognote></lognote>
						</logginginfo>
						<labels>
							<label2>Iris</label2>
						</labels>
					</clipitem>
					<clipitem id="clipitem-1555" premiereChannelType="stereo">
						<masterclipid>masterclip-342</masterclipid>
						<name>Nordvisjon2MASTER_kommentar.wav</name>
						<enabled>TRUE</enabled>
						<duration>44313</duration>
						<rate>
							<timebase>25</timebase>
							<ntsc>FALSE</ntsc>
						</rate>
						<start>78463</start>
						<end>78876</end>
						<in>24389</in>
						<out>24802</out>
						<pproTicksIn>247807848960000</pproTicksIn>
						<pproTicksOut>252004193280000</pproTicksOut>
						<file id="file-342"/>
						<sourcetrack>
							<mediatype>audio</mediatype>
							<trackindex>2</trackindex>
						</sourcetrack>
							<filter>
								<effect>
									<name>Audio Levels</name>
									<effectid>audiolevels</effectid>
									<effectcategory>audiolevels</effectcategory>
									<effecttype>audiolevels</effecttype>
									<mediatype>audio</mediatype>
									<parameter authoringApp="PremierePro">
										<parameterid>level</parameterid>
										<name>Level</name>
										<valuemin>0</valuemin>
										<valuemax>3.98109</valuemax>
										<value>0.702036</value>
									</parameter>
								</effect>
							</filter>
						<link>
							<linkclipref>clipitem-1502</linkclipref>
							<mediatype>audio</mediatype>
							<trackindex>18</trackindex>
							<clipindex>29</clipindex>
							<groupindex>1</groupindex>
						</link>
						<link>
							<linkclipref>clipitem-1555</linkclipref>
							<mediatype>audio</mediatype>
							<trackindex>19</trackindex>
							<clipindex>29</clipindex>
							<groupindex>1</groupindex>
						</link>
						<logginginfo>
							<description></description>
							<scene></scene>
							<shottake></shottake>
							<lognote></lognote>
						</logginginfo>
						<labels>
							<label2>Iris</label2>
						</labels>
					</clipitem>
					<clipitem id="clipitem-1556" premiereChannelType="stereo">
						<masterclipid>masterclip-342</masterclipid>
						<name>Nordvisjon2MASTER_kommentar.wav</name>
						<enabled>TRUE</enabled>
						<duration>44313</duration>
						<rate>
							<timebase>25</timebase>
							<ntsc>FALSE</ntsc>
						</rate>
						<start>79019</start>
						<end>79612</end>
						<in>25996</in>
						<out>26589</out>
						<pproTicksIn>264135997440000</pproTicksIn>
						<pproTicksOut>270161256960000</pproTicksOut>
						<file id="file-342"/>
						<sourcetrack>
							<mediatype>audio</mediatype>
							<trackindex>2</trackindex>
						</sourcetrack>
						<link>
							<linkclipref>clipitem-1503</linkclipref>
							<mediatype>audio</mediatype>
							<trackindex>18</trackindex>
							<clipindex>30</clipindex>
							<groupindex>1</groupindex>
						</link>
						<link>
							<linkclipref>clipitem-1556</linkclipref>
							<mediatype>audio</mediatype>
							<trackindex>19</trackindex>
							<clipindex>30</clipindex>
							<groupindex>1</groupindex>
						</link>
						<logginginfo>
							<description></description>
							<scene></scene>
							<shottake></shottake>
							<lognote></lognote>
						</logginginfo>
						<labels>
							<label2>Iris</label2>
						</labels>
					</clipitem>
					<clipitem id="clipitem-1557" premiereChannelType="stereo">
						<masterclipid>masterclip-342</masterclipid>
						<name>Nordvisjon2MASTER_kommentar.wav</name>
						<enabled>TRUE</enabled>
						<duration>44313</duration>
						<rate>
							<timebase>25</timebase>
							<ntsc>FALSE</ntsc>
						</rate>
						<start>79612</start>
						<end>80534</end>
						<in>26981</in>
						<out>27903</out>
						<pproTicksIn>274144227840000</pproTicksIn>
						<pproTicksOut>283512337920000</pproTicksOut>
						<file id="file-342"/>
						<sourcetrack>
							<mediatype>audio</mediatype>
							<trackindex>2</trackindex>
						</sourcetrack>
						<link>
							<linkclipref>clipitem-1504</linkclipref>
							<mediatype>audio</mediatype>
							<trackindex>18</trackindex>
							<clipindex>31</clipindex>
							<groupindex>1</groupindex>
						</link>
						<link>
							<linkclipref>clipitem-1557</linkclipref>
							<mediatype>audio</mediatype>
							<trackindex>19</trackindex>
							<clipindex>31</clipindex>
							<groupindex>1</groupindex>
						</link>
						<logginginfo>
							<description></description>
							<scene></scene>
							<shottake></shottake>
							<lognote></lognote>
						</logginginfo>
						<labels>
							<label2>Iris</label2>
						</labels>
					</clipitem>
					<clipitem id="clipitem-1558" premiereChannelType="stereo">
						<masterclipid>masterclip-342</masterclipid>
						<name>Nordvisjon2MASTER_kommentar.wav</name>
						<enabled>TRUE</enabled>
						<duration>44313</duration>
						<rate>
							<timebase>25</timebase>
							<ntsc>FALSE</ntsc>
						</rate>
						<start>80534</start>
						<end>80768</end>
						<in>28818</in>
						<out>29052</out>
						<pproTicksIn>292809323520000</pproTicksIn>
						<pproTicksOut>295186913280000</pproTicksOut>
						<file id="file-342"/>
						<sourcetrack>
							<mediatype>audio</mediatype>
							<trackindex>2</trackindex>
						</sourcetrack>
						<link>
							<linkclipref>clipitem-1505</linkclipref>
							<mediatype>audio</mediatype>
							<trackindex>18</trackindex>
							<clipindex>32</clipindex>
							<groupindex>1</groupindex>
						</link>
						<link>
							<linkclipref>clipitem-1558</linkclipref>
							<mediatype>audio</mediatype>
							<trackindex>19</trackindex>
							<clipindex>32</clipindex>
							<groupindex>1</groupindex>
						</link>
						<logginginfo>
							<description></description>
							<scene></scene>
							<shottake></shottake>
							<lognote></lognote>
						</logginginfo>
						<labels>
							<label2>Iris</label2>
						</labels>
					</clipitem>
					<clipitem id="clipitem-1559" premiereChannelType="stereo">
						<masterclipid>masterclip-342</masterclipid>
						<name>Nordvisjon2MASTER_kommentar.wav</name>
						<enabled>TRUE</enabled>
						<duration>44313</duration>
						<rate>
							<timebase>25</timebase>
							<ntsc>FALSE</ntsc>
						</rate>
						<start>80987</start>
						<end>82149</end>
						<in>29271</in>
						<out>30433</out>
						<pproTicksIn>297412093440000</pproTicksIn>
						<pproTicksOut>309218757120000</pproTicksOut>
						<file id="file-342"/>
						<sourcetrack>
							<mediatype>audio</mediatype>
							<trackindex>2</trackindex>
						</sourcetrack>
						<link>
							<linkclipref>clipitem-1506</linkclipref>
							<mediatype>audio</mediatype>
							<trackindex>18</trackindex>
							<clipindex>33</clipindex>
							<groupindex>1</groupindex>
						</link>
						<link>
							<linkclipref>clipitem-1559</linkclipref>
							<mediatype>audio</mediatype>
							<trackindex>19</trackindex>
							<clipindex>33</clipindex>
							<groupindex>1</groupindex>
						</link>
						<logginginfo>
							<description></description>
							<scene></scene>
							<shottake></shottake>
							<lognote></lognote>
						</logginginfo>
						<labels>
							<label2>Iris</label2>
						</labels>
					</clipitem>
					<clipitem id="clipitem-1560" premiereChannelType="stereo">
						<masterclipid>masterclip-342</masterclipid>
						<name>Nordvisjon2MASTER_kommentar.wav</name>
						<enabled>TRUE</enabled>
						<duration>44313</duration>
						<rate>
							<timebase>25</timebase>
							<ntsc>FALSE</ntsc>
						</rate>
						<start>82149</start>
						<end>85288</end>
						<in>31013</in>
						<out>34152</out>
						<pproTicksIn>315111928320000</pproTicksIn>
						<pproTicksOut>347006177280000</pproTicksOut>
						<file id="file-342"/>
						<sourcetrack>
							<mediatype>audio</mediatype>
							<trackindex>2</trackindex>
						</sourcetrack>
						<link>
							<linkclipref>clipitem-1507</linkclipref>
							<mediatype>audio</mediatype>
							<trackindex>18</trackindex>
							<clipindex>34</clipindex>
							<groupindex>1</groupindex>
						</link>
						<link>
							<linkclipref>clipitem-1560</linkclipref>
							<mediatype>audio</mediatype>
							<trackindex>19</trackindex>
							<clipindex>34</clipindex>
							<groupindex>1</groupindex>
						</link>
						<logginginfo>
							<description></description>
							<scene></scene>
							<shottake></shottake>
							<lognote></lognote>
						</logginginfo>
						<labels>
							<label2>Iris</label2>
						</labels>
					</clipitem>
					<clipitem id="clipitem-1561" premiereChannelType="stereo">
						<masterclipid>masterclip-342</masterclipid>
						<name>Nordvisjon2MASTER_kommentar.wav</name>
						<enabled>TRUE</enabled>
						<duration>44313</duration>
						<rate>
							<timebase>25</timebase>
							<ntsc>FALSE</ntsc>
						</rate>
						<start>85288</start>
						<end>85588</end>
						<in>34903</in>
						<out>35203</out>
						<pproTicksIn>354636817920000</pproTicksIn>
						<pproTicksOut>357685009920000</pproTicksOut>
						<file id="file-342"/>
						<sourcetrack>
							<mediatype>audio</mediatype>
							<trackindex>2</trackindex>
						</sourcetrack>
						<link>
							<linkclipref>clipitem-1508</linkclipref>
							<mediatype>audio</mediatype>
							<trackindex>18</trackindex>
							<clipindex>35</clipindex>
							<groupindex>1</groupindex>
						</link>
						<link>
							<linkclipref>clipitem-1561</linkclipref>
							<mediatype>audio</mediatype>
							<trackindex>19</trackindex>
							<clipindex>35</clipindex>
							<groupindex>1</groupindex>
						</link>
						<logginginfo>
							<description></description>
							<scene></scene>
							<shottake></shottake>
							<lognote></lognote>
						</logginginfo>
						<labels>
							<label2>Iris</label2>
						</labels>
					</clipitem>
					<clipitem id="clipitem-1562" premiereChannelType="stereo">
						<masterclipid>masterclip-342</masterclipid>
						<name>Nordvisjon2MASTER_kommentar.wav</name>
						<enabled>TRUE</enabled>
						<duration>44313</duration>
						<rate>
							<timebase>25</timebase>
							<ntsc>FALSE</ntsc>
						</rate>
						<start>85727</start>
						<end>85817</end>
						<in>21901</in>
						<out>21991</out>
						<pproTicksIn>222528176640000</pproTicksIn>
						<pproTicksOut>223442634240000</pproTicksOut>
						<file id="file-342"/>
						<sourcetrack>
							<mediatype>audio</mediatype>
							<trackindex>2</trackindex>
						</sourcetrack>
						<link>
							<linkclipref>clipitem-1509</linkclipref>
							<mediatype>audio</mediatype>
							<trackindex>18</trackindex>
							<clipindex>36</clipindex>
							<groupindex>1</groupindex>
						</link>
						<link>
							<linkclipref>clipitem-1562</linkclipref>
							<mediatype>audio</mediatype>
							<trackindex>19</trackindex>
							<clipindex>36</clipindex>
							<groupindex>1</groupindex>
						</link>
						<logginginfo>
							<description></description>
							<scene></scene>
							<shottake></shottake>
							<lognote></lognote>
						</logginginfo>
						<labels>
							<label2>Iris</label2>
						</labels>
					</clipitem>
					<clipitem id="clipitem-1563" premiereChannelType="stereo">
						<masterclipid>masterclip-342</masterclipid>
						<name>Nordvisjon2MASTER_kommentar.wav</name>
						<enabled>TRUE</enabled>
						<duration>44313</duration>
						<rate>
							<timebase>25</timebase>
							<ntsc>FALSE</ntsc>
						</rate>
						<start>85863</start>
						<end>85960</end>
						<in>40176</in>
						<out>40273</out>
						<pproTicksIn>408213872640000</pproTicksIn>
						<pproTicksOut>409199454720000</pproTicksOut>
						<file id="file-342"/>
						<sourcetrack>
							<mediatype>audio</mediatype>
							<trackindex>2</trackindex>
						</sourcetrack>
						<link>
							<linkclipref>clipitem-1510</linkclipref>
							<mediatype>audio</mediatype>
							<trackindex>18</trackindex>
							<clipindex>37</clipindex>
							<groupindex>1</groupindex>
						</link>
						<link>
							<linkclipref>clipitem-1563</linkclipref>
							<mediatype>audio</mediatype>
							<trackindex>19</trackindex>
							<clipindex>37</clipindex>
							<groupindex>1</groupindex>
						</link>
						<logginginfo>
							<description></description>
							<scene></scene>
							<shottake></shottake>
							<lognote></lognote>
						</logginginfo>
						<labels>
							<label2>Iris</label2>
						</labels>
					</clipitem>
					<clipitem id="clipitem-1564" premiereChannelType="stereo">
						<masterclipid>masterclip-342</masterclipid>
						<name>Nordvisjon2MASTER_kommentar.wav</name>
						<enabled>TRUE</enabled>
						<duration>44313</duration>
						<rate>
							<timebase>25</timebase>
							<ntsc>FALSE</ntsc>
						</rate>
						<start>85960</start>
						<end>88577</end>
						<in>40362</in>
						<out>42979</out>
						<pproTicksIn>410103751680000</pproTicksIn>
						<pproTicksOut>436694146560000</pproTicksOut>
						<file id="file-342"/>
						<sourcetrack>
							<mediatype>audio</mediatype>
							<trackindex>2</trackindex>
						</sourcetrack>
						<link>
							<linkclipref>clipitem-1511</linkclipref>
							<mediatype>audio</mediatype>
							<trackindex>18</trackindex>
							<clipindex>38</clipindex>
							<groupindex>1</groupindex>
						</link>
						<link>
							<linkclipref>clipitem-1564</linkclipref>
							<mediatype>audio</mediatype>
							<trackindex>19</trackindex>
							<clipindex>38</clipindex>
							<groupindex>1</groupindex>
						</link>
						<logginginfo>
							<description></description>
							<scene></scene>
							<shottake></shottake>
							<lognote></lognote>
						</logginginfo>
						<labels>
							<label2>Iris</label2>
						</labels>
					</clipitem>
					<clipitem id="clipitem-1565" premiereChannelType="stereo">
						<masterclipid>masterclip-342</masterclipid>
						<name>Nordvisjon2MASTER_kommentar.wav</name>
						<enabled>TRUE</enabled>
						<duration>44313</duration>
						<rate>
							<timebase>25</timebase>
							<ntsc>FALSE</ntsc>
						</rate>
						<start>88577</start>
						<end>88786</end>
						<in>43340</in>
						<out>43549</out>
						<pproTicksIn>440362137600000</pproTicksIn>
						<pproTicksOut>442485711360000</pproTicksOut>
						<file id="file-342"/>
						<sourcetrack>
							<mediatype>audio</mediatype>
							<trackindex>2</trackindex>
						</sourcetrack>
						<link>
							<linkclipref>clipitem-1512</linkclipref>
							<mediatype>audio</mediatype>
							<trackindex>18</trackindex>
							<clipindex>39</clipindex>
							<groupindex>1</groupindex>
						</link>
						<link>
							<linkclipref>clipitem-1565</linkclipref>
							<mediatype>audio</mediatype>
							<trackindex>19</trackindex>
							<clipindex>39</clipindex>
							<groupindex>1</groupindex>
						</link>
						<logginginfo>
							<description></description>
							<scene></scene>
							<shottake></shottake>
							<lognote></lognote>
						</logginginfo>
						<labels>
							<label2>Iris</label2>
						</labels>
					</clipitem>
					<clipitem id="clipitem-1566" premiereChannelType="stereo">
						<masterclipid>masterclip-342</masterclipid>
						<name>Nordvisjon2MASTER_kommentar.wav</name>
						<enabled>TRUE</enabled>
						<duration>44313</duration>
						<rate>
							<timebase>25</timebase>
							<ntsc>FALSE</ntsc>
						</rate>
						<start>88786</start>
						<end>88901</end>
						<in>38651</in>
						<out>38766</out>
						<pproTicksIn>392718896640000</pproTicksIn>
						<pproTicksOut>393887370240000</pproTicksOut>
						<file id="file-342"/>
						<sourcetrack>
							<mediatype>audio</mediatype>
							<trackindex>2</trackindex>
						</sourcetrack>
						<link>
							<linkclipref>clipitem-1513</linkclipref>
							<mediatype>audio</mediatype>
							<trackindex>18</trackindex>
							<clipindex>40</clipindex>
							<groupindex>1</groupindex>
						</link>
						<link>
							<linkclipref>clipitem-1566</linkclipref>
							<mediatype>audio</mediatype>
							<trackindex>19</trackindex>
							<clipindex>40</clipindex>
							<groupindex>1</groupindex>
						</link>
						<logginginfo>
							<description></description>
							<scene></scene>
							<shottake></shottake>
							<lognote></lognote>
						</logginginfo>
						<labels>
							<label2>Iris</label2>
						</labels>
					</clipitem>
					<clipitem id="clipitem-1567" premiereChannelType="stereo">
						<masterclipid>masterclip-342</masterclipid>
						<name>Nordvisjon2MASTER_kommentar.wav</name>
						<enabled>TRUE</enabled>
						<duration>44313</duration>
						<rate>
							<timebase>25</timebase>
							<ntsc>FALSE</ntsc>
						</rate>
						<start>88902</start>
						<end>89053</end>
						<in>38796</in>
						<out>38947</out>
						<pproTicksIn>394192189440000</pproTicksIn>
						<pproTicksOut>395726446080000</pproTicksOut>
						<file id="file-342"/>
						<sourcetrack>
							<mediatype>audio</mediatype>
							<trackindex>2</trackindex>
						</sourcetrack>
						<link>
							<linkclipref>clipitem-1514</linkclipref>
							<mediatype>audio</mediatype>
							<trackindex>18</trackindex>
							<clipindex>41</clipindex>
							<groupindex>1</groupindex>
						</link>
						<link>
							<linkclipref>clipitem-1567</linkclipref>
							<mediatype>audio</mediatype>
							<trackindex>19</trackindex>
							<clipindex>41</clipindex>
							<groupindex>1</groupindex>
						</link>
						<logginginfo>
							<description></description>
							<scene></scene>
							<shottake></shottake>
							<lognote></lognote>
						</logginginfo>
						<labels>
							<label2>Iris</label2>
						</labels>
					</clipitem>
					<clipitem id="clipitem-1568" premiereChannelType="stereo">
						<masterclipid>masterclip-318</masterclipid>
						<name>Nordvisjon3MASTER kommentar.wav</name>
						<enabled>TRUE</enabled>
						<duration>42413</duration>
						<rate>
							<timebase>25</timebase>
							<ntsc>FALSE</ntsc>
						</rate>
						<start>89330</start>
						<end>-1</end>
						<in>3401</in>
						<out>4674</out>
						<pproTicksIn>34556336640000</pproTicksIn>
						<pproTicksOut>47490831360000</pproTicksOut>
						<file id="file-318"/>
						<sourcetrack>
							<mediatype>audio</mediatype>
							<trackindex>2</trackindex>
						</sourcetrack>
						<link>
							<linkclipref>clipitem-1515</linkclipref>
							<mediatype>audio</mediatype>
							<trackindex>18</trackindex>
							<clipindex>42</clipindex>
							<groupindex>1</groupindex>
						</link>
						<link>
							<linkclipref>clipitem-1568</linkclipref>
							<mediatype>audio</mediatype>
							<trackindex>19</trackindex>
							<clipindex>42</clipindex>
							<groupindex>1</groupindex>
						</link>
						<logginginfo>
							<description></description>
							<scene></scene>
							<shottake></shottake>
							<lognote></lognote>
						</logginginfo>
						<labels>
							<label2>Iris</label2>
						</labels>
					</clipitem>
					<transitionitem>
						<start>90590</start>
						<end>90603</end>
						<alignment>end-black</alignment>
						<cutPointTicks>132088320000</cutPointTicks>
						<rate>
							<timebase>25</timebase>
							<ntsc>FALSE</ntsc>
						</rate>
						<effect>
							<name>Cross Fade (+3dB)</name>
							<effectid>KGAudioTransCrossFade3dB</effectid>
							<effecttype>transition</effecttype>
							<mediatype>audio</mediatype>
							<wipecode>0</wipecode>
							<wipeaccuracy>100</wipeaccuracy>
							<startratio>0</startratio>
							<endratio>1</endratio>
							<reverse>FALSE</reverse>
						</effect>
					</transitionitem>
					<transitionitem>
						<start>90813</start>
						<end>90826</end>
						<alignment>start-black</alignment>
						<cutPointTicks>0</cutPointTicks>
						<rate>
							<timebase>25</timebase>
							<ntsc>FALSE</ntsc>
						</rate>
						<effect>
							<name>Cross Fade (+3dB)</name>
							<effectid>KGAudioTransCrossFade3dB</effectid>
							<effecttype>transition</effecttype>
							<mediatype>audio</mediatype>
							<wipecode>0</wipecode>
							<wipeaccuracy>100</wipeaccuracy>
							<startratio>0</startratio>
							<endratio>1</endratio>
							<reverse>FALSE</reverse>
						</effect>
					</transitionitem>
					<clipitem id="clipitem-1569" premiereChannelType="stereo">
						<masterclipid>masterclip-318</masterclipid>
						<name>Nordvisjon3MASTER kommentar.wav</name>
						<enabled>TRUE</enabled>
						<duration>42413</duration>
						<rate>
							<timebase>25</timebase>
							<ntsc>FALSE</ntsc>
						</rate>
						<start>-1</start>
						<end>91782</end>
						<in>20696</in>
						<out>21665</out>
						<pproTicksIn>210284605440000</pproTicksIn>
						<pproTicksOut>220130265600000</pproTicksOut>
						<file id="file-318"/>
						<sourcetrack>
							<mediatype>audio</mediatype>
							<trackindex>2</trackindex>
						</sourcetrack>
						<link>
							<linkclipref>clipitem-1516</linkclipref>
							<mediatype>audio</mediatype>
							<trackindex>18</trackindex>
							<clipindex>45</clipindex>
							<groupindex>1</groupindex>
						</link>
						<link>
							<linkclipref>clipitem-1569</linkclipref>
							<mediatype>audio</mediatype>
							<trackindex>19</trackindex>
							<clipindex>45</clipindex>
							<groupindex>1</groupindex>
						</link>
						<logginginfo>
							<description></description>
							<scene></scene>
							<shottake></shottake>
							<lognote></lognote>
						</logginginfo>
						<labels>
							<label2>Iris</label2>
						</labels>
					</clipitem>
					<clipitem id="clipitem-1570" premiereChannelType="stereo">
						<masterclipid>masterclip-329</masterclipid>
						<name>Nordvisjon-MASTER-vr3-201016-ny-kommentar.wav</name>
						<enabled>TRUE</enabled>
						<duration>42953</duration>
						<rate>
							<timebase>25</timebase>
							<ntsc>FALSE</ntsc>
						</rate>
						<start>92373</start>
						<end>92678</end>
						<in>38218</in>
						<out>38523</out>
						<pproTicksIn>388319339520000</pproTicksIn>
						<pproTicksOut>391418334720000</pproTicksOut>
						<file id="file-329"/>
						<sourcetrack>
							<mediatype>audio</mediatype>
							<trackindex>2</trackindex>
						</sourcetrack>
							<marker>
								<comment></comment>
								<name></name>
								<in>40399</in>
								<out>-1</out>
							</marker>
							<marker>
								<comment></comment>
								<name></name>
								<in>3092</in>
								<out>-1</out>
							</marker>
							<marker>
								<comment></comment>
								<name></name>
								<in>36054</in>
								<out>-1</out>
							</marker>
							<marker>
								<comment></comment>
								<name></name>
								<in>0</in>
								<out>-1</out>
							</marker>
						<link>
							<linkclipref>clipitem-1517</linkclipref>
							<mediatype>audio</mediatype>
							<trackindex>18</trackindex>
							<clipindex>46</clipindex>
							<groupindex>1</groupindex>
						</link>
						<link>
							<linkclipref>clipitem-1570</linkclipref>
							<mediatype>audio</mediatype>
							<trackindex>19</trackindex>
							<clipindex>46</clipindex>
							<groupindex>1</groupindex>
						</link>
						<logginginfo>
							<description></description>
							<scene></scene>
							<shottake></shottake>
							<lognote></lognote>
						</logginginfo>
						<labels>
							<label2>Iris</label2>
						</labels>
					</clipitem>
					<clipitem id="clipitem-1571" premiereChannelType="stereo">
						<masterclipid>masterclip-329</masterclipid>
						<name>Nordvisjon-MASTER-vr3-201016-ny-kommentar.wav</name>
						<enabled>TRUE</enabled>
						<duration>42953</duration>
						<rate>
							<timebase>25</timebase>
							<ntsc>FALSE</ntsc>
						</rate>
						<start>93253</start>
						<end>94523</end>
						<in>40849</in>
						<out>42119</out>
						<pproTicksIn>415051983360000</pproTicksIn>
						<pproTicksOut>427955996160000</pproTicksOut>
						<file id="file-329"/>
						<sourcetrack>
							<mediatype>audio</mediatype>
							<trackindex>2</trackindex>
						</sourcetrack>
							<marker>
								<comment></comment>
								<name></name>
								<in>40399</in>
								<out>-1</out>
							</marker>
							<marker>
								<comment></comment>
								<name></name>
								<in>3092</in>
								<out>-1</out>
							</marker>
							<marker>
								<comment></comment>
								<name></name>
								<in>36054</in>
								<out>-1</out>
							</marker>
							<marker>
								<comment></comment>
								<name></name>
								<in>0</in>
								<out>-1</out>
							</marker>
						<link>
							<linkclipref>clipitem-1518</linkclipref>
							<mediatype>audio</mediatype>
							<trackindex>18</trackindex>
							<clipindex>47</clipindex>
							<groupindex>1</groupindex>
						</link>
						<link>
							<linkclipref>clipitem-1571</linkclipref>
							<mediatype>audio</mediatype>
							<trackindex>19</trackindex>
							<clipindex>47</clipindex>
							<groupindex>1</groupindex>
						</link>
						<logginginfo>
							<description></description>
							<scene></scene>
							<shottake></shottake>
							<lognote></lognote>
						</logginginfo>
						<labels>
							<label2>Iris</label2>
						</labels>
					</clipitem>
					<clipitem id="clipitem-1572" premiereChannelType="stereo">
						<masterclipid>masterclip-318</masterclipid>
						<name>Nordvisjon3MASTER kommentar.wav</name>
						<enabled>TRUE</enabled>
						<duration>42413</duration>
						<rate>
							<timebase>25</timebase>
							<ntsc>FALSE</ntsc>
						</rate>
						<start>94523</start>
						<end>95251</end>
						<in>22124</in>
						<out>22852</out>
						<pproTicksIn>224793999360000</pproTicksIn>
						<pproTicksOut>232190945280000</pproTicksOut>
						<file id="file-318"/>
						<sourcetrack>
							<mediatype>audio</mediatype>
							<trackindex>2</trackindex>
						</sourcetrack>
						<link>
							<linkclipref>clipitem-1519</linkclipref>
							<mediatype>audio</mediatype>
							<trackindex>18</trackindex>
							<clipindex>48</clipindex>
							<groupindex>1</groupindex>
						</link>
						<link>
							<linkclipref>clipitem-1572</linkclipref>
							<mediatype>audio</mediatype>
							<trackindex>19</trackindex>
							<clipindex>48</clipindex>
							<groupindex>1</groupindex>
						</link>
						<logginginfo>
							<description></description>
							<scene></scene>
							<shottake></shottake>
							<lognote></lognote>
						</logginginfo>
						<labels>
							<label2>Iris</label2>
						</labels>
					</clipitem>
					<clipitem id="clipitem-1573" premiereChannelType="stereo">
						<masterclipid>masterclip-318</masterclipid>
						<name>Nordvisjon3MASTER kommentar.wav</name>
						<enabled>TRUE</enabled>
						<duration>42413</duration>
						<rate>
							<timebase>25</timebase>
							<ntsc>FALSE</ntsc>
						</rate>
						<start>95962</start>
						<end>96471</end>
						<in>8029</in>
						<out>8538</out>
						<pproTicksIn>81579778560000</pproTicksIn>
						<pproTicksOut>86751544320000</pproTicksOut>
						<file id="file-318"/>
						<sourcetrack>
							<mediatype>audio</mediatype>
							<trackindex>2</trackindex>
						</sourcetrack>
						<link>
							<linkclipref>clipitem-1520</linkclipref>
							<mediatype>audio</mediatype>
							<trackindex>18</trackindex>
							<clipindex>49</clipindex>
							<groupindex>1</groupindex>
						</link>
						<link>
							<linkclipref>clipitem-1573</linkclipref>
							<mediatype>audio</mediatype>
							<trackindex>19</trackindex>
							<clipindex>49</clipindex>
							<groupindex>1</groupindex>
						</link>
						<logginginfo>
							<description></description>
							<scene></scene>
							<shottake></shottake>
							<lognote></lognote>
						</logginginfo>
						<labels>
							<label2>Iris</label2>
						</labels>
					</clipitem>
					<clipitem id="clipitem-1574" premiereChannelType="stereo">
						<masterclipid>masterclip-318</masterclipid>
						<name>Nordvisjon3MASTER kommentar.wav</name>
						<enabled>TRUE</enabled>
						<duration>42413</duration>
						<rate>
							<timebase>25</timebase>
							<ntsc>FALSE</ntsc>
						</rate>
						<start>96706</start>
						<end>97130</end>
						<in>8538</in>
						<out>8962</out>
						<pproTicksIn>86751544320000</pproTicksIn>
						<pproTicksOut>91059655680000</pproTicksOut>
						<file id="file-318"/>
						<sourcetrack>
							<mediatype>audio</mediatype>
							<trackindex>2</trackindex>
						</sourcetrack>
						<link>
							<linkclipref>clipitem-1521</linkclipref>
							<mediatype>audio</mediatype>
							<trackindex>18</trackindex>
							<clipindex>50</clipindex>
							<groupindex>1</groupindex>
						</link>
						<link>
							<linkclipref>clipitem-1574</linkclipref>
							<mediatype>audio</mediatype>
							<trackindex>19</trackindex>
							<clipindex>50</clipindex>
							<groupindex>1</groupindex>
						</link>
						<logginginfo>
							<description></description>
							<scene></scene>
							<shottake></shottake>
							<lognote></lognote>
						</logginginfo>
						<labels>
							<label2>Iris</label2>
						</labels>
					</clipitem>
					<clipitem id="clipitem-1575" premiereChannelType="stereo">
						<masterclipid>masterclip-318</masterclipid>
						<name>Nordvisjon3MASTER kommentar.wav</name>
						<enabled>TRUE</enabled>
						<duration>42413</duration>
						<rate>
							<timebase>25</timebase>
							<ntsc>FALSE</ntsc>
						</rate>
						<start>97130</start>
						<end>97245</end>
						<in>9984</in>
						<out>10099</out>
						<pproTicksIn>101443829760000</pproTicksIn>
						<pproTicksOut>102612303360000</pproTicksOut>
						<file id="file-318"/>
						<sourcetrack>
							<mediatype>audio</mediatype>
							<trackindex>2</trackindex>
						</sourcetrack>
						<link>
							<linkclipref>clipitem-1522</linkclipref>
							<mediatype>audio</mediatype>
							<trackindex>18</trackindex>
							<clipindex>51</clipindex>
							<groupindex>1</groupindex>
						</link>
						<link>
							<linkclipref>clipitem-1575</linkclipref>
							<mediatype>audio</mediatype>
							<trackindex>19</trackindex>
							<clipindex>51</clipindex>
							<groupindex>1</groupindex>
						</link>
						<logginginfo>
							<description></description>
							<scene></scene>
							<shottake></shottake>
							<lognote></lognote>
						</logginginfo>
						<labels>
							<label2>Iris</label2>
						</labels>
					</clipitem>
					<clipitem id="clipitem-1576" premiereChannelType="stereo">
						<masterclipid>masterclip-318</masterclipid>
						<name>Nordvisjon3MASTER kommentar.wav</name>
						<enabled>TRUE</enabled>
						<duration>42413</duration>
						<rate>
							<timebase>25</timebase>
							<ntsc>FALSE</ntsc>
						</rate>
						<start>97245</start>
						<end>97436</end>
						<in>10184</in>
						<out>10375</out>
						<pproTicksIn>103475957760000</pproTicksIn>
						<pproTicksOut>105416640000000</pproTicksOut>
						<file id="file-318"/>
						<sourcetrack>
							<mediatype>audio</mediatype>
							<trackindex>2</trackindex>
						</sourcetrack>
						<link>
							<linkclipref>clipitem-1523</linkclipref>
							<mediatype>audio</mediatype>
							<trackindex>18</trackindex>
							<clipindex>52</clipindex>
							<groupindex>1</groupindex>
						</link>
						<link>
							<linkclipref>clipitem-1576</linkclipref>
							<mediatype>audio</mediatype>
							<trackindex>19</trackindex>
							<clipindex>52</clipindex>
							<groupindex>1</groupindex>
						</link>
						<logginginfo>
							<description></description>
							<scene></scene>
							<shottake></shottake>
							<lognote></lognote>
						</logginginfo>
						<labels>
							<label2>Iris</label2>
						</labels>
					</clipitem>
					<clipitem id="clipitem-1577" premiereChannelType="stereo">
						<masterclipid>masterclip-318</masterclipid>
						<name>Nordvisjon3MASTER kommentar.wav</name>
						<enabled>TRUE</enabled>
						<duration>42413</duration>
						<rate>
							<timebase>25</timebase>
							<ntsc>FALSE</ntsc>
						</rate>
						<start>97521</start>
						<end>97802</end>
						<in>10911</in>
						<out>11192</out>
						<pproTicksIn>110862743040000</pproTicksIn>
						<pproTicksOut>113717882880000</pproTicksOut>
						<file id="file-318"/>
						<sourcetrack>
							<mediatype>audio</mediatype>
							<trackindex>2</trackindex>
						</sourcetrack>
						<link>
							<linkclipref>clipitem-1524</linkclipref>
							<mediatype>audio</mediatype>
							<trackindex>18</trackindex>
							<clipindex>53</clipindex>
							<groupindex>1</groupindex>
						</link>
						<link>
							<linkclipref>clipitem-1577</linkclipref>
							<mediatype>audio</mediatype>
							<trackindex>19</trackindex>
							<clipindex>53</clipindex>
							<groupindex>1</groupindex>
						</link>
						<logginginfo>
							<description></description>
							<scene></scene>
							<shottake></shottake>
							<lognote></lognote>
						</logginginfo>
						<labels>
							<label2>Iris</label2>
						</labels>
					</clipitem>
					<clipitem id="clipitem-1578" premiereChannelType="stereo">
						<masterclipid>masterclip-318</masterclipid>
						<name>Nordvisjon3MASTER kommentar.wav</name>
						<enabled>TRUE</enabled>
						<duration>42413</duration>
						<rate>
							<timebase>25</timebase>
							<ntsc>FALSE</ntsc>
						</rate>
						<start>97802</start>
						<end>98215</end>
						<in>13698</in>
						<out>14111</out>
						<pproTicksIn>139180446720000</pproTicksIn>
						<pproTicksOut>143376791040000</pproTicksOut>
						<file id="file-318"/>
						<sourcetrack>
							<mediatype>audio</mediatype>
							<trackindex>2</trackindex>
						</sourcetrack>
						<link>
							<linkclipref>clipitem-1525</linkclipref>
							<mediatype>audio</mediatype>
							<trackindex>18</trackindex>
							<clipindex>54</clipindex>
							<groupindex>1</groupindex>
						</link>
						<link>
							<linkclipref>clipitem-1578</linkclipref>
							<mediatype>audio</mediatype>
							<trackindex>19</trackindex>
							<clipindex>54</clipindex>
							<groupindex>1</groupindex>
						</link>
						<logginginfo>
							<description></description>
							<scene></scene>
							<shottake></shottake>
							<lognote></lognote>
						</logginginfo>
						<labels>
							<label2>Iris</label2>
						</labels>
					</clipitem>
					<clipitem id="clipitem-1579" premiereChannelType="stereo">
						<masterclipid>masterclip-318</masterclipid>
						<name>Nordvisjon3MASTER kommentar.wav</name>
						<enabled>TRUE</enabled>
						<duration>42413</duration>
						<rate>
							<timebase>25</timebase>
							<ntsc>FALSE</ntsc>
						</rate>
						<start>98292</start>
						<end>98546</end>
						<in>40418</in>
						<out>40672</out>
						<pproTicksIn>410672747520000</pproTicksIn>
						<pproTicksOut>413253550080000</pproTicksOut>
						<file id="file-318"/>
						<sourcetrack>
							<mediatype>audio</mediatype>
							<trackindex>2</trackindex>
						</sourcetrack>
						<link>
							<linkclipref>clipitem-1526</linkclipref>
							<mediatype>audio</mediatype>
							<trackindex>18</trackindex>
							<clipindex>55</clipindex>
							<groupindex>1</groupindex>
						</link>
						<link>
							<linkclipref>clipitem-1579</linkclipref>
							<mediatype>audio</mediatype>
							<trackindex>19</trackindex>
							<clipindex>55</clipindex>
							<groupindex>1</groupindex>
						</link>
						<logginginfo>
							<description></description>
							<scene></scene>
							<shottake></shottake>
							<lognote></lognote>
						</logginginfo>
						<labels>
							<label2>Iris</label2>
						</labels>
					</clipitem>
					<clipitem id="clipitem-1580" premiereChannelType="stereo">
						<masterclipid>masterclip-318</masterclipid>
						<name>Nordvisjon3MASTER kommentar.wav</name>
						<enabled>TRUE</enabled>
						<duration>42413</duration>
						<rate>
							<timebase>25</timebase>
							<ntsc>FALSE</ntsc>
						</rate>
						<start>99216</start>
						<end>99949</end>
						<in>41680</in>
						<out>42413</out>
						<pproTicksIn>423495475200000</pproTicksIn>
						<pproTicksOut>430943224320000</pproTicksOut>
						<file id="file-318"/>
						<sourcetrack>
							<mediatype>audio</mediatype>
							<trackindex>2</trackindex>
						</sourcetrack>
						<link>
							<linkclipref>clipitem-1527</linkclipref>
							<mediatype>audio</mediatype>
							<trackindex>18</trackindex>
							<clipindex>56</clipindex>
							<groupindex>1</groupindex>
						</link>
						<link>
							<linkclipref>clipitem-1580</linkclipref>
							<mediatype>audio</mediatype>
							<trackindex>19</trackindex>
							<clipindex>56</clipindex>
							<groupindex>1</groupindex>
						</link>
						<logginginfo>
							<description></description>
							<scene></scene>
							<shottake></shottake>
							<lognote></lognote>
						</logginginfo>
						<labels>
							<label2>Iris</label2>
						</labels>
					</clipitem>
					<clipitem id="clipitem-1581" premiereChannelType="stereo">
						<masterclipid>masterclip-338</masterclipid>
						<name>AUXMP_SCDV054331_TAKE_A_LOAD_OFF_C.wav</name>
						<enabled>TRUE</enabled>
						<duration>4296</duration>
						<rate>
							<timebase>25</timebase>
							<ntsc>FALSE</ntsc>
						</rate>
						<start>100019</start>
						<end>100621</end>
						<in>0</in>
						<out>602</out>
						<pproTicksIn>0</pproTicksIn>
						<pproTicksOut>6116705280000</pproTicksOut>
						<file id="file-338"/>
						<sourcetrack>
							<mediatype>audio</mediatype>
							<trackindex>2</trackindex>
						</sourcetrack>
							<filter>
								<effect>
									<name>Audio Levels</name>
									<effectid>audiolevels</effectid>
									<effectcategory>audiolevels</effectcategory>
									<effecttype>audiolevels</effecttype>
									<mediatype>audio</mediatype>
									<parameter authoringApp="PremierePro">
										<parameterid>level</parameterid>
										<name>Level</name>
										<valuemin>0</valuemin>
										<valuemax>3.98109</valuemax>
										<value>0</value>
										<keyframe>
											<when>260</when>
											<value>0.377997</value>
										</keyframe>
										<keyframe>
											<when>313</when>
											<value>0.02978</value>
										</keyframe>
										<keyframe>
											<when>394</when>
											<value>0</value>
										</keyframe>
									</parameter>
								</effect>
							</filter>
						<link>
							<linkclipref>clipitem-1528</linkclipref>
							<mediatype>audio</mediatype>
							<trackindex>18</trackindex>
							<clipindex>57</clipindex>
							<groupindex>1</groupindex>
						</link>
						<link>
							<linkclipref>clipitem-1581</linkclipref>
							<mediatype>audio</mediatype>
							<trackindex>19</trackindex>
							<clipindex>57</clipindex>
							<groupindex>1</groupindex>
						</link>
						<logginginfo>
							<description></description>
							<scene></scene>
							<shottake></shottake>
							<lognote></lognote>
						</logginginfo>
						<labels>
							<label2>Iris</label2>
						</labels>
					</clipitem>
					<enabled>TRUE</enabled>
					<locked>FALSE</locked>
					<outputchannelindex>2</outputchannelindex>
				</track>
				<track TL.SQTrackAudioKeyframeStyle="0" TL.SQTrackShy="0" TL.SQTrackExpandedHeight="58" TL.SQTrackExpanded="1" MZ.TrackTargeted="0" PannerCurrentValue="0.5" PannerIsInverted="true" PannerStartKeyframe="-91445760000000000,0.5,0,0,0,0,0,0" PannerName="Balance" currentExplodedTrackIndex="0" totalExplodedTrackCount="2" premiereTrackType="Stereo">
					<clipitem id="clipitem-1582" premiereChannelType="stereo">
						<masterclipid>masterclip-343</masterclipid>
						<name>AA261101.MXF</name>
						<enabled>TRUE</enabled>
						<duration>2172</duration>
						<rate>
							<timebase>25</timebase>
							<ntsc>FALSE</ntsc>
						</rate>
						<start>1244</start>
						<end>1502</end>
						<in>1187</in>
						<out>1445</out>
						<pproTicksIn>12060679680000</pproTicksIn>
						<pproTicksOut>14682124800000</pproTicksOut>
						<pixelaspectratio>square</pixelaspectratio>
						<anamorphic>FALSE</anamorphic>
						<file id="file-343">
							<name>AA261101.MXF</name>
							<pathurl>file://localhost/Volumes/Vaagen/Utveksling/Natur/Naturlig%20helaften%20fra%20Oslo/Copied_Copy%20of%20En%20Helaften%20MASTER_003/AA261101.MXF</pathurl>
							<rate>
								<timebase>25</timebase>
								<ntsc>FALSE</ntsc>
							</rate>
							<duration>2172</duration>
							<timecode>
								<rate>
									<timebase>25</timebase>
									<ntsc>FALSE</ntsc>
								</rate>
								<string>13:34:31:08</string>
								<frame>1221783</frame>
								<displayformat>NDF</displayformat>
								<reel>
									<name></name>
								</reel>
							</timecode>
							<media>
								<video>
									<samplecharacteristics>
										<rate>
											<timebase>25</timebase>
											<ntsc>FALSE</ntsc>
										</rate>
										<width>1920</width>
										<height>1080</height>
										<anamorphic>FALSE</anamorphic>
										<pixelaspectratio>square</pixelaspectratio>
										<fielddominance>none</fielddominance>
									</samplecharacteristics>
								</video>
								<audio>
									<samplecharacteristics>
										<depth>16</depth>
										<samplerate>48000</samplerate>
									</samplecharacteristics>
									<channelcount>2</channelcount>
								</audio>
							</media>
						</file>
						<sourcetrack>
							<mediatype>audio</mediatype>
							<trackindex>2</trackindex>
						</sourcetrack>
						<link>
							<linkclipref>clipitem-1582</linkclipref>
							<mediatype>audio</mediatype>
							<trackindex>20</trackindex>
							<clipindex>1</clipindex>
							<groupindex>1</groupindex>
						</link>
						<link>
							<linkclipref>clipitem-1622</linkclipref>
							<mediatype>audio</mediatype>
							<trackindex>21</trackindex>
							<clipindex>1</clipindex>
							<groupindex>1</groupindex>
						</link>
						<logginginfo>
							<description></description>
							<scene></scene>
							<shottake></shottake>
							<lognote></lognote>
						</logginginfo>
						<labels>
							<label2>Iris</label2>
						</labels>
					</clipitem>
					<clipitem id="clipitem-1583" premiereChannelType="stereo">
						<masterclipid>masterclip-343</masterclipid>
						<name>AA261101.MXF</name>
						<enabled>TRUE</enabled>
						<duration>2172</duration>
						<rate>
							<timebase>25</timebase>
							<ntsc>FALSE</ntsc>
						</rate>
						<start>1811</start>
						<end>1924</end>
						<in>1445</in>
						<out>1558</out>
						<pproTicksIn>14682124800000</pproTicksIn>
						<pproTicksOut>15830277120000</pproTicksOut>
						<file id="file-343"/>
						<sourcetrack>
							<mediatype>audio</mediatype>
							<trackindex>2</trackindex>
						</sourcetrack>
						<link>
							<linkclipref>clipitem-1583</linkclipref>
							<mediatype>audio</mediatype>
							<trackindex>20</trackindex>
							<clipindex>2</clipindex>
							<groupindex>1</groupindex>
						</link>
						<link>
							<linkclipref>clipitem-1623</linkclipref>
							<mediatype>audio</mediatype>
							<trackindex>21</trackindex>
							<clipindex>2</clipindex>
							<groupindex>1</groupindex>
						</link>
						<logginginfo>
							<description></description>
							<scene></scene>
							<shottake></shottake>
							<lognote></lognote>
						</logginginfo>
						<labels>
							<label2>Iris</label2>
						</labels>
					</clipitem>
					<clipitem id="clipitem-1584" premiereChannelType="stereo">
						<masterclipid>masterclip-343</masterclipid>
						<name>AA261101.MXF</name>
						<enabled>TRUE</enabled>
						<duration>2172</duration>
						<rate>
							<timebase>25</timebase>
							<ntsc>FALSE</ntsc>
						</rate>
						<start>1924</start>
						<end>2054</end>
						<in>1593</in>
						<out>1723</out>
						<pproTicksIn>16185899520000</pproTicksIn>
						<pproTicksOut>17506782720000</pproTicksOut>
						<file id="file-343"/>
						<sourcetrack>
							<mediatype>audio</mediatype>
							<trackindex>2</trackindex>
						</sourcetrack>
						<link>
							<linkclipref>clipitem-1584</linkclipref>
							<mediatype>audio</mediatype>
							<trackindex>20</trackindex>
							<clipindex>3</clipindex>
							<groupindex>1</groupindex>
						</link>
						<link>
							<linkclipref>clipitem-1624</linkclipref>
							<mediatype>audio</mediatype>
							<trackindex>21</trackindex>
							<clipindex>3</clipindex>
							<groupindex>1</groupindex>
						</link>
						<logginginfo>
							<description></description>
							<scene></scene>
							<shottake></shottake>
							<lognote></lognote>
						</logginginfo>
						<labels>
							<label2>Iris</label2>
						</labels>
					</clipitem>
					<clipitem id="clipitem-1585" premiereChannelType="stereo">
						<masterclipid>masterclip-343</masterclipid>
						<name>AA261101.MXF</name>
						<enabled>TRUE</enabled>
						<duration>2172</duration>
						<rate>
							<timebase>25</timebase>
							<ntsc>FALSE</ntsc>
						</rate>
						<start>2153</start>
						<end>2346</end>
						<in>1723</in>
						<out>1916</out>
						<pproTicksIn>17506782720000</pproTicksIn>
						<pproTicksOut>19467786240000</pproTicksOut>
						<file id="file-343"/>
						<sourcetrack>
							<mediatype>audio</mediatype>
							<trackindex>2</trackindex>
						</sourcetrack>
						<link>
							<linkclipref>clipitem-1585</linkclipref>
							<mediatype>audio</mediatype>
							<trackindex>20</trackindex>
							<clipindex>4</clipindex>
							<groupindex>1</groupindex>
						</link>
						<link>
							<linkclipref>clipitem-1625</linkclipref>
							<mediatype>audio</mediatype>
							<trackindex>21</trackindex>
							<clipindex>4</clipindex>
							<groupindex>1</groupindex>
						</link>
						<logginginfo>
							<description></description>
							<scene></scene>
							<shottake></shottake>
							<lognote></lognote>
						</logginginfo>
						<labels>
							<label2>Iris</label2>
						</labels>
					</clipitem>
					<clipitem id="clipitem-1586" premiereChannelType="stereo">
						<masterclipid>masterclip-15</masterclipid>
						<name>AA261301.MXF</name>
						<enabled>TRUE</enabled>
						<duration>1020</duration>
						<rate>
							<timebase>25</timebase>
							<ntsc>FALSE</ntsc>
						</rate>
						<start>2430</start>
						<end>2719</end>
						<in>346</in>
						<out>635</out>
						<pproTicksIn>3515581440000</pproTicksIn>
						<pproTicksOut>6452006400000</pproTicksOut>
						<file id="file-15"/>
						<sourcetrack>
							<mediatype>audio</mediatype>
							<trackindex>2</trackindex>
						</sourcetrack>
						<link>
							<linkclipref>clipitem-1586</linkclipref>
							<mediatype>audio</mediatype>
							<trackindex>20</trackindex>
							<clipindex>5</clipindex>
							<groupindex>1</groupindex>
						</link>
						<link>
							<linkclipref>clipitem-1626</linkclipref>
							<mediatype>audio</mediatype>
							<trackindex>21</trackindex>
							<clipindex>5</clipindex>
							<groupindex>1</groupindex>
						</link>
						<logginginfo>
							<description></description>
							<scene></scene>
							<shottake></shottake>
							<lognote></lognote>
						</logginginfo>
						<labels>
							<label2>Iris</label2>
						</labels>
					</clipitem>
					<clipitem id="clipitem-1587" premiereChannelType="stereo">
						<masterclipid>masterclip-344</masterclipid>
						<name>NATURLIG HELAFTEN 2016 kommentar.WAV</name>
						<enabled>TRUE</enabled>
						<duration>13590</duration>
						<rate>
							<timebase>25</timebase>
							<ntsc>FALSE</ntsc>
						</rate>
						<start>3643</start>
						<end>4095</end>
						<in>4405</in>
						<out>4857</out>
						<pproTicksIn>44757619200000</pproTicksIn>
						<pproTicksOut>49350228480000</pproTicksOut>
						<file id="file-344">
							<name>NATURLIG HELAFTEN 2016 kommentar.WAV</name>
							<pathurl>file://localhost/Volumes/Vaagen/Utveksling/Natur/Naturlig%20helaften%20fra%20Oslo/Copied_Copy%20of%20En%20Helaften%20MASTER_003/NATURLIG%20HELAFTEN%202016%20kommentar.WAV</pathurl>
							<rate>
								<timebase>30</timebase>
								<ntsc>TRUE</ntsc>
							</rate>
							<duration>16291</duration>
							<timecode>
								<rate>
									<timebase>30</timebase>
									<ntsc>TRUE</ntsc>
								</rate>
								<string>00;00;00;00</string>
								<frame>0</frame>
								<displayformat>DF</displayformat>
								<reel>
									<name></name>
								</reel>
							</timecode>
							<media>
								<audio>
									<samplecharacteristics>
										<depth>16</depth>
										<samplerate>44100</samplerate>
									</samplecharacteristics>
									<channelcount>2</channelcount>
								</audio>
							</media>
						</file>
						<sourcetrack>
							<mediatype>audio</mediatype>
							<trackindex>1</trackindex>
						</sourcetrack>
						<link>
							<linkclipref>clipitem-1587</linkclipref>
							<mediatype>audio</mediatype>
							<trackindex>20</trackindex>
							<clipindex>6</clipindex>
							<groupindex>1</groupindex>
						</link>
						<link>
							<linkclipref>clipitem-1627</linkclipref>
							<mediatype>audio</mediatype>
							<trackindex>21</trackindex>
							<clipindex>6</clipindex>
							<groupindex>1</groupindex>
						</link>
						<logginginfo>
							<description></description>
							<scene></scene>
							<shottake></shottake>
							<lognote></lognote>
						</logginginfo>
						<labels>
							<label2>Iris</label2>
						</labels>
					</clipitem>
					<clipitem id="clipitem-1588" premiereChannelType="stereo">
						<masterclipid>masterclip-345</masterclipid>
						<name>NATURLIG HELAFTEN ny seervideokommentar.WAV</name>
						<enabled>TRUE</enabled>
						<duration>13249</duration>
						<rate>
							<timebase>25</timebase>
							<ntsc>FALSE</ntsc>
						</rate>
						<start>7232</start>
						<end>7455</end>
						<in>60</in>
						<out>283</out>
						<pproTicksIn>609638400000</pproTicksIn>
						<pproTicksOut>2875461120000</pproTicksOut>
						<file id="file-345">
							<name>NATURLIG HELAFTEN ny seervideokommentar.WAV</name>
							<pathurl>file://localhost/Volumes/Svartediket/Prosjekter/DVNA600216_HELAFTEN2016_FAL_010217/Lydeffekter/NATURLIG%20HELAFTEN%20ny%20seervideokommentar.WAV</pathurl>
							<rate>
								<timebase>30</timebase>
								<ntsc>TRUE</ntsc>
							</rate>
							<duration>15883</duration>
							<timecode>
								<rate>
									<timebase>30</timebase>
									<ntsc>TRUE</ntsc>
								</rate>
								<string>00;00;00;00</string>
								<frame>0</frame>
								<displayformat>DF</displayformat>
								<reel>
									<name></name>
								</reel>
							</timecode>
							<media>
								<audio>
									<samplecharacteristics>
										<depth>16</depth>
										<samplerate>44100</samplerate>
									</samplecharacteristics>
									<channelcount>2</channelcount>
								</audio>
							</media>
						</file>
						<sourcetrack>
							<mediatype>audio</mediatype>
							<trackindex>1</trackindex>
						</sourcetrack>
						<link>
							<linkclipref>clipitem-1588</linkclipref>
							<mediatype>audio</mediatype>
							<trackindex>20</trackindex>
							<clipindex>7</clipindex>
							<groupindex>1</groupindex>
						</link>
						<link>
							<linkclipref>clipitem-1628</linkclipref>
							<mediatype>audio</mediatype>
							<trackindex>21</trackindex>
							<clipindex>7</clipindex>
							<groupindex>1</groupindex>
						</link>
						<logginginfo>
							<description></description>
							<scene></scene>
							<shottake></shottake>
							<lognote></lognote>
						</logginginfo>
						<labels>
							<label2>Iris</label2>
						</labels>
					</clipitem>
					<clipitem id="clipitem-1589" premiereChannelType="stereo">
						<masterclipid>masterclip-345</masterclipid>
						<name>NATURLIG HELAFTEN ny seervideokommentar.WAV</name>
						<enabled>TRUE</enabled>
						<duration>13249</duration>
						<rate>
							<timebase>25</timebase>
							<ntsc>FALSE</ntsc>
						</rate>
						<start>8994</start>
						<end>9243</end>
						<in>4345</in>
						<out>4594</out>
						<pproTicksIn>44147980800000</pproTicksIn>
						<pproTicksOut>46677980160000</pproTicksOut>
						<file id="file-345"/>
						<sourcetrack>
							<mediatype>audio</mediatype>
							<trackindex>1</trackindex>
						</sourcetrack>
						<link>
							<linkclipref>clipitem-1589</linkclipref>
							<mediatype>audio</mediatype>
							<trackindex>20</trackindex>
							<clipindex>8</clipindex>
							<groupindex>1</groupindex>
						</link>
						<link>
							<linkclipref>clipitem-1629</linkclipref>
							<mediatype>audio</mediatype>
							<trackindex>21</trackindex>
							<clipindex>8</clipindex>
							<groupindex>1</groupindex>
						</link>
						<logginginfo>
							<description></description>
							<scene></scene>
							<shottake></shottake>
							<lognote></lognote>
						</logginginfo>
						<labels>
							<label2>Iris</label2>
						</labels>
					</clipitem>
					<clipitem id="clipitem-1590" premiereChannelType="stereo">
						<masterclipid>masterclip-345</masterclipid>
						<name>NATURLIG HELAFTEN ny seervideokommentar.WAV</name>
						<enabled>TRUE</enabled>
						<duration>13249</duration>
						<rate>
							<timebase>25</timebase>
							<ntsc>FALSE</ntsc>
						</rate>
						<start>9288</start>
						<end>9440</end>
						<in>4594</in>
						<out>4746</out>
						<pproTicksIn>46677980160000</pproTicksIn>
						<pproTicksOut>48222397440000</pproTicksOut>
						<file id="file-345"/>
						<sourcetrack>
							<mediatype>audio</mediatype>
							<trackindex>1</trackindex>
						</sourcetrack>
						<link>
							<linkclipref>clipitem-1590</linkclipref>
							<mediatype>audio</mediatype>
							<trackindex>20</trackindex>
							<clipindex>9</clipindex>
							<groupindex>1</groupindex>
						</link>
						<link>
							<linkclipref>clipitem-1630</linkclipref>
							<mediatype>audio</mediatype>
							<trackindex>21</trackindex>
							<clipindex>9</clipindex>
							<groupindex>1</groupindex>
						</link>
						<logginginfo>
							<description></description>
							<scene></scene>
							<shottake></shottake>
							<lognote></lognote>
						</logginginfo>
						<labels>
							<label2>Iris</label2>
						</labels>
					</clipitem>
					<clipitem id="clipitem-1591" premiereChannelType="stereo">
						<masterclipid>masterclip-345</masterclipid>
						<name>NATURLIG HELAFTEN ny seervideokommentar.WAV</name>
						<enabled>TRUE</enabled>
						<duration>13249</duration>
						<rate>
							<timebase>25</timebase>
							<ntsc>FALSE</ntsc>
						</rate>
						<start>9509</start>
						<end>9698</end>
						<in>4764</in>
						<out>4953</out>
						<pproTicksIn>48405288960000</pproTicksIn>
						<pproTicksOut>50325649920000</pproTicksOut>
						<file id="file-345"/>
						<sourcetrack>
							<mediatype>audio</mediatype>
							<trackindex>1</trackindex>
						</sourcetrack>
						<link>
							<linkclipref>clipitem-1591</linkclipref>
							<mediatype>audio</mediatype>
							<trackindex>20</trackindex>
							<clipindex>10</clipindex>
							<groupindex>1</groupindex>
						</link>
						<link>
							<linkclipref>clipitem-1631</linkclipref>
							<mediatype>audio</mediatype>
							<trackindex>21</trackindex>
							<clipindex>10</clipindex>
							<groupindex>1</groupindex>
						</link>
						<logginginfo>
							<description></description>
							<scene></scene>
							<shottake></shottake>
							<lognote></lognote>
						</logginginfo>
						<labels>
							<label2>Iris</label2>
						</labels>
					</clipitem>
					<clipitem id="clipitem-1592" premiereChannelType="stereo">
						<masterclipid>masterclip-345</masterclipid>
						<name>NATURLIG HELAFTEN ny seervideokommentar.WAV</name>
						<enabled>TRUE</enabled>
						<duration>13249</duration>
						<rate>
							<timebase>25</timebase>
							<ntsc>FALSE</ntsc>
						</rate>
						<start>9698</start>
						<end>10003</end>
						<in>4981</in>
						<out>5286</out>
						<pproTicksIn>50610147840000</pproTicksIn>
						<pproTicksOut>53709143040000</pproTicksOut>
						<file id="file-345"/>
						<sourcetrack>
							<mediatype>audio</mediatype>
							<trackindex>1</trackindex>
						</sourcetrack>
						<link>
							<linkclipref>clipitem-1592</linkclipref>
							<mediatype>audio</mediatype>
							<trackindex>20</trackindex>
							<clipindex>11</clipindex>
							<groupindex>1</groupindex>
						</link>
						<link>
							<linkclipref>clipitem-1632</linkclipref>
							<mediatype>audio</mediatype>
							<trackindex>21</trackindex>
							<clipindex>11</clipindex>
							<groupindex>1</groupindex>
						</link>
						<logginginfo>
							<description></description>
							<scene></scene>
							<shottake></shottake>
							<lognote></lognote>
						</logginginfo>
						<labels>
							<label2>Iris</label2>
						</labels>
					</clipitem>
					<clipitem id="clipitem-1593" premiereChannelType="stereo">
						<masterclipid>masterclip-345</masterclipid>
						<name>NATURLIG HELAFTEN ny seervideokommentar.WAV</name>
						<enabled>TRUE</enabled>
						<duration>13249</duration>
						<rate>
							<timebase>25</timebase>
							<ntsc>FALSE</ntsc>
						</rate>
						<start>10004</start>
						<end>10177</end>
						<in>5306</in>
						<out>5479</out>
						<pproTicksIn>53912355840000</pproTicksIn>
						<pproTicksOut>55670146560000</pproTicksOut>
						<file id="file-345"/>
						<sourcetrack>
							<mediatype>audio</mediatype>
							<trackindex>1</trackindex>
						</sourcetrack>
						<link>
							<linkclipref>clipitem-1593</linkclipref>
							<mediatype>audio</mediatype>
							<trackindex>20</trackindex>
							<clipindex>12</clipindex>
							<groupindex>1</groupindex>
						</link>
						<link>
							<linkclipref>clipitem-1633</linkclipref>
							<mediatype>audio</mediatype>
							<trackindex>21</trackindex>
							<clipindex>12</clipindex>
							<groupindex>1</groupindex>
						</link>
						<logginginfo>
							<description></description>
							<scene></scene>
							<shottake></shottake>
							<lognote></lognote>
						</logginginfo>
						<labels>
							<label2>Iris</label2>
						</labels>
					</clipitem>
					<clipitem id="clipitem-1594" premiereChannelType="stereo">
						<masterclipid>masterclip-345</masterclipid>
						<name>NATURLIG HELAFTEN ny seervideokommentar.WAV</name>
						<enabled>TRUE</enabled>
						<duration>13249</duration>
						<rate>
							<timebase>25</timebase>
							<ntsc>FALSE</ntsc>
						</rate>
						<start>10177</start>
						<end>10491</end>
						<in>5573</in>
						<out>5887</out>
						<pproTicksIn>56625246720000</pproTicksIn>
						<pproTicksOut>59815687680000</pproTicksOut>
						<file id="file-345"/>
						<sourcetrack>
							<mediatype>audio</mediatype>
							<trackindex>1</trackindex>
						</sourcetrack>
						<link>
							<linkclipref>clipitem-1594</linkclipref>
							<mediatype>audio</mediatype>
							<trackindex>20</trackindex>
							<clipindex>13</clipindex>
							<groupindex>1</groupindex>
						</link>
						<link>
							<linkclipref>clipitem-1634</linkclipref>
							<mediatype>audio</mediatype>
							<trackindex>21</trackindex>
							<clipindex>13</clipindex>
							<groupindex>1</groupindex>
						</link>
						<logginginfo>
							<description></description>
							<scene></scene>
							<shottake></shottake>
							<lognote></lognote>
						</logginginfo>
						<labels>
							<label2>Iris</label2>
						</labels>
					</clipitem>
					<clipitem id="clipitem-1595" premiereChannelType="stereo">
						<masterclipid>masterclip-346</masterclipid>
						<name>NATURLIG HELAFTEN 2016 kommentar.WAV</name>
						<enabled>TRUE</enabled>
						<duration>13590</duration>
						<rate>
							<timebase>25</timebase>
							<ntsc>FALSE</ntsc>
						</rate>
						<start>10680</start>
						<end>11046</end>
						<in>1163</in>
						<out>1529</out>
						<pproTicksIn>11816824320000</pproTicksIn>
						<pproTicksOut>15535618560000</pproTicksOut>
						<file id="file-346">
							<name>NATURLIG HELAFTEN 2016 kommentar.WAV</name>
							<pathurl>file://localhost/Volumes/Vaagen/Utveksling/Natur/Naturlig%20helaften%20fra%20Oslo/Transcoded_Copy%20of%20En%20Helaften%20MASTER/NATURLIG%20HELAFTEN%202016%20kommentar.WAV</pathurl>
							<rate>
								<timebase>30</timebase>
								<ntsc>TRUE</ntsc>
							</rate>
							<duration>16291</duration>
							<timecode>
								<rate>
									<timebase>30</timebase>
									<ntsc>TRUE</ntsc>
								</rate>
								<string>00;00;00;00</string>
								<frame>0</frame>
								<displayformat>DF</displayformat>
								<reel>
									<name></name>
								</reel>
							</timecode>
							<media>
								<audio>
									<samplecharacteristics>
										<depth>16</depth>
										<samplerate>44100</samplerate>
									</samplecharacteristics>
									<channelcount>2</channelcount>
								</audio>
							</media>
						</file>
						<sourcetrack>
							<mediatype>audio</mediatype>
							<trackindex>1</trackindex>
						</sourcetrack>
						<link>
							<linkclipref>clipitem-1595</linkclipref>
							<mediatype>audio</mediatype>
							<trackindex>20</trackindex>
							<clipindex>14</clipindex>
							<groupindex>1</groupindex>
						</link>
						<link>
							<linkclipref>clipitem-1635</linkclipref>
							<mediatype>audio</mediatype>
							<trackindex>21</trackindex>
							<clipindex>14</clipindex>
							<groupindex>1</groupindex>
						</link>
						<logginginfo>
							<description></description>
							<scene></scene>
							<shottake></shottake>
							<lognote></lognote>
						</logginginfo>
						<labels>
							<label2>Iris</label2>
						</labels>
					</clipitem>
					<clipitem id="clipitem-1596" premiereChannelType="stereo">
						<masterclipid>masterclip-346</masterclipid>
						<name>NATURLIG HELAFTEN 2016 kommentar.WAV</name>
						<enabled>TRUE</enabled>
						<duration>13590</duration>
						<rate>
							<timebase>25</timebase>
							<ntsc>FALSE</ntsc>
						</rate>
						<start>11090</start>
						<end>11351</end>
						<in>1529</in>
						<out>1790</out>
						<pproTicksIn>15535618560000</pproTicksIn>
						<pproTicksOut>18187545600000</pproTicksOut>
						<file id="file-346"/>
						<sourcetrack>
							<mediatype>audio</mediatype>
							<trackindex>1</trackindex>
						</sourcetrack>
						<link>
							<linkclipref>clipitem-1596</linkclipref>
							<mediatype>audio</mediatype>
							<trackindex>20</trackindex>
							<clipindex>15</clipindex>
							<groupindex>1</groupindex>
						</link>
						<link>
							<linkclipref>clipitem-1636</linkclipref>
							<mediatype>audio</mediatype>
							<trackindex>21</trackindex>
							<clipindex>15</clipindex>
							<groupindex>1</groupindex>
						</link>
						<logginginfo>
							<description></description>
							<scene></scene>
							<shottake></shottake>
							<lognote></lognote>
						</logginginfo>
						<labels>
							<label2>Iris</label2>
						</labels>
					</clipitem>
					<clipitem id="clipitem-1597" premiereChannelType="stereo">
						<masterclipid>masterclip-346</masterclipid>
						<name>NATURLIG HELAFTEN 2016 kommentar.WAV</name>
						<enabled>TRUE</enabled>
						<duration>13590</duration>
						<rate>
							<timebase>25</timebase>
							<ntsc>FALSE</ntsc>
						</rate>
						<start>14766</start>
						<end>15148</end>
						<in>1829</in>
						<out>2211</out>
						<pproTicksIn>18583810560000</pproTicksIn>
						<pproTicksOut>22465175040000</pproTicksOut>
						<file id="file-346"/>
						<sourcetrack>
							<mediatype>audio</mediatype>
							<trackindex>1</trackindex>
						</sourcetrack>
						<link>
							<linkclipref>clipitem-1597</linkclipref>
							<mediatype>audio</mediatype>
							<trackindex>20</trackindex>
							<clipindex>16</clipindex>
							<groupindex>1</groupindex>
						</link>
						<link>
							<linkclipref>clipitem-1637</linkclipref>
							<mediatype>audio</mediatype>
							<trackindex>21</trackindex>
							<clipindex>16</clipindex>
							<groupindex>1</groupindex>
						</link>
						<logginginfo>
							<description></description>
							<scene></scene>
							<shottake></shottake>
							<lognote></lognote>
						</logginginfo>
						<labels>
							<label2>Iris</label2>
						</labels>
					</clipitem>
					<clipitem id="clipitem-1598" premiereChannelType="stereo">
						<masterclipid>masterclip-347</masterclipid>
						<name>NATURLIG HELAFTEN 2016 kommentar.WAV</name>
						<enabled>TRUE</enabled>
						<duration>13590</duration>
						<rate>
							<timebase>25</timebase>
							<ntsc>FALSE</ntsc>
						</rate>
						<start>19748</start>
						<end>19978</end>
						<in>11435</in>
						<out>11665</out>
						<pproTicksIn>116186918400000</pproTicksIn>
						<pproTicksOut>118523865600000</pproTicksOut>
						<file id="file-347">
							<name>NATURLIG HELAFTEN 2016 kommentar.WAV</name>
							<pathurl>file://localhost/Volumes/Vaagen/Utveksling/Natur/Naturlig%20helaften%20fra%20Oslo/Copied_Copy%20of%20En%20Helaften%20MASTER_002/NATURLIG%20HELAFTEN%202016%20kommentar.WAV</pathurl>
							<rate>
								<timebase>30</timebase>
								<ntsc>TRUE</ntsc>
							</rate>
							<duration>16291</duration>
							<timecode>
								<rate>
									<timebase>30</timebase>
									<ntsc>TRUE</ntsc>
								</rate>
								<string>00;00;00;00</string>
								<frame>0</frame>
								<displayformat>DF</displayformat>
								<reel>
									<name></name>
								</reel>
							</timecode>
							<media>
								<audio>
									<samplecharacteristics>
										<depth>16</depth>
										<samplerate>44100</samplerate>
									</samplecharacteristics>
									<channelcount>2</channelcount>
								</audio>
							</media>
						</file>
						<sourcetrack>
							<mediatype>audio</mediatype>
							<trackindex>1</trackindex>
						</sourcetrack>
						<link>
							<linkclipref>clipitem-1598</linkclipref>
							<mediatype>audio</mediatype>
							<trackindex>20</trackindex>
							<clipindex>17</clipindex>
							<groupindex>1</groupindex>
						</link>
						<link>
							<linkclipref>clipitem-1638</linkclipref>
							<mediatype>audio</mediatype>
							<trackindex>21</trackindex>
							<clipindex>17</clipindex>
							<groupindex>1</groupindex>
						</link>
						<logginginfo>
							<description></description>
							<scene></scene>
							<shottake></shottake>
							<lognote></lognote>
						</logginginfo>
						<labels>
							<label2>Iris</label2>
						</labels>
					</clipitem>
					<clipitem id="clipitem-1599" premiereChannelType="stereo">
						<masterclipid>masterclip-347</masterclipid>
						<name>NATURLIG HELAFTEN 2016 kommentar.WAV</name>
						<enabled>TRUE</enabled>
						<duration>13590</duration>
						<rate>
							<timebase>25</timebase>
							<ntsc>FALSE</ntsc>
						</rate>
						<start>20111</start>
						<end>20279</end>
						<in>11665</in>
						<out>11833</out>
						<pproTicksIn>118523865600000</pproTicksIn>
						<pproTicksOut>120230853120000</pproTicksOut>
						<file id="file-347"/>
						<sourcetrack>
							<mediatype>audio</mediatype>
							<trackindex>1</trackindex>
						</sourcetrack>
						<link>
							<linkclipref>clipitem-1599</linkclipref>
							<mediatype>audio</mediatype>
							<trackindex>20</trackindex>
							<clipindex>18</clipindex>
							<groupindex>1</groupindex>
						</link>
						<link>
							<linkclipref>clipitem-1639</linkclipref>
							<mediatype>audio</mediatype>
							<trackindex>21</trackindex>
							<clipindex>18</clipindex>
							<groupindex>1</groupindex>
						</link>
						<logginginfo>
							<description></description>
							<scene></scene>
							<shottake></shottake>
							<lognote></lognote>
						</logginginfo>
						<labels>
							<label2>Iris</label2>
						</labels>
					</clipitem>
					<clipitem id="clipitem-1600" premiereChannelType="stereo">
						<masterclipid>masterclip-345</masterclipid>
						<name>NATURLIG HELAFTEN ny seervideokommentar.WAV</name>
						<enabled>TRUE</enabled>
						<duration>13249</duration>
						<rate>
							<timebase>25</timebase>
							<ntsc>FALSE</ntsc>
						</rate>
						<start>58993</start>
						<end>59178</end>
						<in>6025</in>
						<out>6210</out>
						<pproTicksIn>61217856000000</pproTicksIn>
						<pproTicksOut>63097574400000</pproTicksOut>
						<file id="file-345"/>
						<sourcetrack>
							<mediatype>audio</mediatype>
							<trackindex>1</trackindex>
						</sourcetrack>
						<link>
							<linkclipref>clipitem-1600</linkclipref>
							<mediatype>audio</mediatype>
							<trackindex>20</trackindex>
							<clipindex>19</clipindex>
							<groupindex>1</groupindex>
						</link>
						<link>
							<linkclipref>clipitem-1640</linkclipref>
							<mediatype>audio</mediatype>
							<trackindex>21</trackindex>
							<clipindex>19</clipindex>
							<groupindex>1</groupindex>
						</link>
						<logginginfo>
							<description></description>
							<scene></scene>
							<shottake></shottake>
							<lognote></lognote>
						</logginginfo>
						<labels>
							<label2>Iris</label2>
						</labels>
					</clipitem>
					<clipitem id="clipitem-1601" premiereChannelType="stereo">
						<masterclipid>masterclip-345</masterclipid>
						<name>NATURLIG HELAFTEN ny seervideokommentar.WAV</name>
						<enabled>TRUE</enabled>
						<duration>13249</duration>
						<rate>
							<timebase>25</timebase>
							<ntsc>FALSE</ntsc>
						</rate>
						<start>59272</start>
						<end>59494</end>
						<in>6227</in>
						<out>6449</out>
						<pproTicksIn>63270305280000</pproTicksIn>
						<pproTicksOut>65525967360000</pproTicksOut>
						<file id="file-345"/>
						<sourcetrack>
							<mediatype>audio</mediatype>
							<trackindex>1</trackindex>
						</sourcetrack>
						<link>
							<linkclipref>clipitem-1601</linkclipref>
							<mediatype>audio</mediatype>
							<trackindex>20</trackindex>
							<clipindex>20</clipindex>
							<groupindex>1</groupindex>
						</link>
						<link>
							<linkclipref>clipitem-1641</linkclipref>
							<mediatype>audio</mediatype>
							<trackindex>21</trackindex>
							<clipindex>20</clipindex>
							<groupindex>1</groupindex>
						</link>
						<logginginfo>
							<description></description>
							<scene></scene>
							<shottake></shottake>
							<lognote></lognote>
						</logginginfo>
						<labels>
							<label2>Iris</label2>
						</labels>
					</clipitem>
					<clipitem id="clipitem-1602" premiereChannelType="stereo">
						<masterclipid>masterclip-345</masterclipid>
						<name>NATURLIG HELAFTEN ny seervideokommentar.WAV</name>
						<enabled>TRUE</enabled>
						<duration>13249</duration>
						<rate>
							<timebase>25</timebase>
							<ntsc>FALSE</ntsc>
						</rate>
						<start>59572</start>
						<end>59800</end>
						<in>7256</in>
						<out>7484</out>
						<pproTicksIn>73725603840000</pproTicksIn>
						<pproTicksOut>76042229760000</pproTicksOut>
						<file id="file-345"/>
						<sourcetrack>
							<mediatype>audio</mediatype>
							<trackindex>1</trackindex>
						</sourcetrack>
						<link>
							<linkclipref>clipitem-1602</linkclipref>
							<mediatype>audio</mediatype>
							<trackindex>20</trackindex>
							<clipindex>21</clipindex>
							<groupindex>1</groupindex>
						</link>
						<link>
							<linkclipref>clipitem-1642</linkclipref>
							<mediatype>audio</mediatype>
							<trackindex>21</trackindex>
							<clipindex>21</clipindex>
							<groupindex>1</groupindex>
						</link>
						<logginginfo>
							<description></description>
							<scene></scene>
							<shottake></shottake>
							<lognote></lognote>
						</logginginfo>
						<labels>
							<label2>Iris</label2>
						</labels>
					</clipitem>
					<clipitem id="clipitem-1603" premiereChannelType="stereo">
						<masterclipid>masterclip-345</masterclipid>
						<name>NATURLIG HELAFTEN ny seervideokommentar.WAV</name>
						<enabled>TRUE</enabled>
						<duration>13249</duration>
						<rate>
							<timebase>25</timebase>
							<ntsc>FALSE</ntsc>
						</rate>
						<start>60010</start>
						<end>60336</end>
						<in>8358</in>
						<out>8684</out>
						<pproTicksIn>84922629120000</pproTicksIn>
						<pproTicksOut>88234997760000</pproTicksOut>
						<file id="file-345"/>
						<sourcetrack>
							<mediatype>audio</mediatype>
							<trackindex>1</trackindex>
						</sourcetrack>
						<link>
							<linkclipref>clipitem-1603</linkclipref>
							<mediatype>audio</mediatype>
							<trackindex>20</trackindex>
							<clipindex>22</clipindex>
							<groupindex>1</groupindex>
						</link>
						<link>
							<linkclipref>clipitem-1643</linkclipref>
							<mediatype>audio</mediatype>
							<trackindex>21</trackindex>
							<clipindex>22</clipindex>
							<groupindex>1</groupindex>
						</link>
						<logginginfo>
							<description></description>
							<scene></scene>
							<shottake></shottake>
							<lognote></lognote>
						</logginginfo>
						<labels>
							<label2>Iris</label2>
						</labels>
					</clipitem>
					<clipitem id="clipitem-1604" premiereChannelType="stereo">
						<masterclipid>masterclip-345</masterclipid>
						<name>NATURLIG HELAFTEN ny seervideokommentar.WAV</name>
						<enabled>TRUE</enabled>
						<duration>13249</duration>
						<rate>
							<timebase>25</timebase>
							<ntsc>FALSE</ntsc>
						</rate>
						<start>60370</start>
						<end>60479</end>
						<in>8699</in>
						<out>8808</out>
						<pproTicksIn>88387407360000</pproTicksIn>
						<pproTicksOut>89494917120000</pproTicksOut>
						<file id="file-345"/>
						<sourcetrack>
							<mediatype>audio</mediatype>
							<trackindex>1</trackindex>
						</sourcetrack>
						<link>
							<linkclipref>clipitem-1604</linkclipref>
							<mediatype>audio</mediatype>
							<trackindex>20</trackindex>
							<clipindex>23</clipindex>
							<groupindex>1</groupindex>
						</link>
						<link>
							<linkclipref>clipitem-1644</linkclipref>
							<mediatype>audio</mediatype>
							<trackindex>21</trackindex>
							<clipindex>23</clipindex>
							<groupindex>1</groupindex>
						</link>
						<logginginfo>
							<description></description>
							<scene></scene>
							<shottake></shottake>
							<lognote></lognote>
						</logginginfo>
						<labels>
							<label2>Iris</label2>
						</labels>
					</clipitem>
					<clipitem id="clipitem-1605" premiereChannelType="stereo">
						<masterclipid>masterclip-345</masterclipid>
						<name>NATURLIG HELAFTEN ny seervideokommentar.WAV</name>
						<enabled>TRUE</enabled>
						<duration>13249</duration>
						<rate>
							<timebase>25</timebase>
							<ntsc>FALSE</ntsc>
						</rate>
						<start>60558</start>
						<end>60746</end>
						<in>8833</in>
						<out>9021</out>
						<pproTicksIn>89748933120000</pproTicksIn>
						<pproTicksOut>91659133440000</pproTicksOut>
						<file id="file-345"/>
						<sourcetrack>
							<mediatype>audio</mediatype>
							<trackindex>1</trackindex>
						</sourcetrack>
						<link>
							<linkclipref>clipitem-1605</linkclipref>
							<mediatype>audio</mediatype>
							<trackindex>20</trackindex>
							<clipindex>24</clipindex>
							<groupindex>1</groupindex>
						</link>
						<link>
							<linkclipref>clipitem-1645</linkclipref>
							<mediatype>audio</mediatype>
							<trackindex>21</trackindex>
							<clipindex>24</clipindex>
							<groupindex>1</groupindex>
						</link>
						<logginginfo>
							<description></description>
							<scene></scene>
							<shottake></shottake>
							<lognote></lognote>
						</logginginfo>
						<labels>
							<label2>Iris</label2>
						</labels>
					</clipitem>
					<clipitem id="clipitem-1606" premiereChannelType="stereo">
						<masterclipid>masterclip-345</masterclipid>
						<name>NATURLIG HELAFTEN ny seervideokommentar.WAV</name>
						<enabled>TRUE</enabled>
						<duration>13249</duration>
						<rate>
							<timebase>25</timebase>
							<ntsc>FALSE</ntsc>
						</rate>
						<start>60789</start>
						<end>60881</end>
						<in>9021</in>
						<out>9113</out>
						<pproTicksIn>91659133440000</pproTicksIn>
						<pproTicksOut>92593912320000</pproTicksOut>
						<file id="file-345"/>
						<sourcetrack>
							<mediatype>audio</mediatype>
							<trackindex>1</trackindex>
						</sourcetrack>
						<link>
							<linkclipref>clipitem-1606</linkclipref>
							<mediatype>audio</mediatype>
							<trackindex>20</trackindex>
							<clipindex>25</clipindex>
							<groupindex>1</groupindex>
						</link>
						<link>
							<linkclipref>clipitem-1646</linkclipref>
							<mediatype>audio</mediatype>
							<trackindex>21</trackindex>
							<clipindex>25</clipindex>
							<groupindex>1</groupindex>
						</link>
						<logginginfo>
							<description></description>
							<scene></scene>
							<shottake></shottake>
							<lognote></lognote>
						</logginginfo>
						<labels>
							<label2>Iris</label2>
						</labels>
					</clipitem>
					<clipitem id="clipitem-1607" premiereChannelType="stereo">
						<masterclipid>masterclip-345</masterclipid>
						<name>NATURLIG HELAFTEN ny seervideokommentar.WAV</name>
						<enabled>TRUE</enabled>
						<duration>13249</duration>
						<rate>
							<timebase>25</timebase>
							<ntsc>FALSE</ntsc>
						</rate>
						<start>61001</start>
						<end>61129</end>
						<in>9208</in>
						<out>9336</out>
						<pproTicksIn>93559173120000</pproTicksIn>
						<pproTicksOut>94859735040000</pproTicksOut>
						<file id="file-345"/>
						<sourcetrack>
							<mediatype>audio</mediatype>
							<trackindex>1</trackindex>
						</sourcetrack>
						<link>
							<linkclipref>clipitem-1607</linkclipref>
							<mediatype>audio</mediatype>
							<trackindex>20</trackindex>
							<clipindex>26</clipindex>
							<groupindex>1</groupindex>
						</link>
						<link>
							<linkclipref>clipitem-1647</linkclipref>
							<mediatype>audio</mediatype>
							<trackindex>21</trackindex>
							<clipindex>26</clipindex>
							<groupindex>1</groupindex>
						</link>
						<logginginfo>
							<description></description>
							<scene></scene>
							<shottake></shottake>
							<lognote></lognote>
						</logginginfo>
						<labels>
							<label2>Iris</label2>
						</labels>
					</clipitem>
					<clipitem id="clipitem-1608" premiereChannelType="stereo">
						<masterclipid>masterclip-345</masterclipid>
						<name>NATURLIG HELAFTEN ny seervideokommentar.WAV</name>
						<enabled>TRUE</enabled>
						<duration>13249</duration>
						<rate>
							<timebase>25</timebase>
							<ntsc>FALSE</ntsc>
						</rate>
						<start>61194</start>
						<end>61299</end>
						<in>9342</in>
						<out>9447</out>
						<pproTicksIn>94920698880000</pproTicksIn>
						<pproTicksOut>95987566080000</pproTicksOut>
						<file id="file-345"/>
						<sourcetrack>
							<mediatype>audio</mediatype>
							<trackindex>1</trackindex>
						</sourcetrack>
						<link>
							<linkclipref>clipitem-1608</linkclipref>
							<mediatype>audio</mediatype>
							<trackindex>20</trackindex>
							<clipindex>27</clipindex>
							<groupindex>1</groupindex>
						</link>
						<link>
							<linkclipref>clipitem-1648</linkclipref>
							<mediatype>audio</mediatype>
							<trackindex>21</trackindex>
							<clipindex>27</clipindex>
							<groupindex>1</groupindex>
						</link>
						<logginginfo>
							<description></description>
							<scene></scene>
							<shottake></shottake>
							<lognote></lognote>
						</logginginfo>
						<labels>
							<label2>Iris</label2>
						</labels>
					</clipitem>
					<clipitem id="clipitem-1609" premiereChannelType="stereo">
						<masterclipid>masterclip-345</masterclipid>
						<name>NATURLIG HELAFTEN ny seervideokommentar.WAV</name>
						<enabled>TRUE</enabled>
						<duration>13249</duration>
						<rate>
							<timebase>25</timebase>
							<ntsc>FALSE</ntsc>
						</rate>
						<start>61299</start>
						<end>61487</end>
						<in>9447</in>
						<out>9635</out>
						<pproTicksIn>95987566080000</pproTicksIn>
						<pproTicksOut>97897766400000</pproTicksOut>
						<file id="file-345"/>
						<sourcetrack>
							<mediatype>audio</mediatype>
							<trackindex>1</trackindex>
						</sourcetrack>
						<link>
							<linkclipref>clipitem-1609</linkclipref>
							<mediatype>audio</mediatype>
							<trackindex>20</trackindex>
							<clipindex>28</clipindex>
							<groupindex>1</groupindex>
						</link>
						<link>
							<linkclipref>clipitem-1649</linkclipref>
							<mediatype>audio</mediatype>
							<trackindex>21</trackindex>
							<clipindex>28</clipindex>
							<groupindex>1</groupindex>
						</link>
						<logginginfo>
							<description></description>
							<scene></scene>
							<shottake></shottake>
							<lognote></lognote>
						</logginginfo>
						<labels>
							<label2>Iris</label2>
						</labels>
					</clipitem>
					<clipitem id="clipitem-1610" premiereChannelType="stereo">
						<masterclipid>masterclip-345</masterclipid>
						<name>NATURLIG HELAFTEN ny seervideokommentar.WAV</name>
						<enabled>TRUE</enabled>
						<duration>13249</duration>
						<rate>
							<timebase>25</timebase>
							<ntsc>FALSE</ntsc>
						</rate>
						<start>61559</start>
						<end>61700</end>
						<in>9635</in>
						<out>9776</out>
						<pproTicksIn>97897766400000</pproTicksIn>
						<pproTicksOut>99330416640000</pproTicksOut>
						<file id="file-345"/>
						<sourcetrack>
							<mediatype>audio</mediatype>
							<trackindex>1</trackindex>
						</sourcetrack>
						<link>
							<linkclipref>clipitem-1610</linkclipref>
							<mediatype>audio</mediatype>
							<trackindex>20</trackindex>
							<clipindex>29</clipindex>
							<groupindex>1</groupindex>
						</link>
						<link>
							<linkclipref>clipitem-1650</linkclipref>
							<mediatype>audio</mediatype>
							<trackindex>21</trackindex>
							<clipindex>29</clipindex>
							<groupindex>1</groupindex>
						</link>
						<logginginfo>
							<description></description>
							<scene></scene>
							<shottake></shottake>
							<lognote></lognote>
						</logginginfo>
						<labels>
							<label2>Iris</label2>
						</labels>
					</clipitem>
					<clipitem id="clipitem-1611" premiereChannelType="stereo">
						<masterclipid>masterclip-345</masterclipid>
						<name>NATURLIG HELAFTEN ny seervideokommentar.WAV</name>
						<enabled>TRUE</enabled>
						<duration>13249</duration>
						<rate>
							<timebase>25</timebase>
							<ntsc>FALSE</ntsc>
						</rate>
						<start>61787</start>
						<end>61852</end>
						<in>9776</in>
						<out>9841</out>
						<pproTicksIn>99330416640000</pproTicksIn>
						<pproTicksOut>99990858240000</pproTicksOut>
						<file id="file-345"/>
						<sourcetrack>
							<mediatype>audio</mediatype>
							<trackindex>1</trackindex>
						</sourcetrack>
						<link>
							<linkclipref>clipitem-1611</linkclipref>
							<mediatype>audio</mediatype>
							<trackindex>20</trackindex>
							<clipindex>30</clipindex>
							<groupindex>1</groupindex>
						</link>
						<link>
							<linkclipref>clipitem-1651</linkclipref>
							<mediatype>audio</mediatype>
							<trackindex>21</trackindex>
							<clipindex>30</clipindex>
							<groupindex>1</groupindex>
						</link>
						<logginginfo>
							<description></description>
							<scene></scene>
							<shottake></shottake>
							<lognote></lognote>
						</logginginfo>
						<labels>
							<label2>Iris</label2>
						</labels>
					</clipitem>
					<clipitem id="clipitem-1612" premiereChannelType="stereo">
						<masterclipid>masterclip-345</masterclipid>
						<name>NATURLIG HELAFTEN ny seervideokommentar.WAV</name>
						<enabled>TRUE</enabled>
						<duration>13249</duration>
						<rate>
							<timebase>25</timebase>
							<ntsc>FALSE</ntsc>
						</rate>
						<start>62035</start>
						<end>62215</end>
						<in>9849</in>
						<out>10029</out>
						<pproTicksIn>100072143360000</pproTicksIn>
						<pproTicksOut>101901058560000</pproTicksOut>
						<file id="file-345"/>
						<sourcetrack>
							<mediatype>audio</mediatype>
							<trackindex>1</trackindex>
						</sourcetrack>
						<link>
							<linkclipref>clipitem-1612</linkclipref>
							<mediatype>audio</mediatype>
							<trackindex>20</trackindex>
							<clipindex>31</clipindex>
							<groupindex>1</groupindex>
						</link>
						<link>
							<linkclipref>clipitem-1652</linkclipref>
							<mediatype>audio</mediatype>
							<trackindex>21</trackindex>
							<clipindex>31</clipindex>
							<groupindex>1</groupindex>
						</link>
						<logginginfo>
							<description></description>
							<scene></scene>
							<shottake></shottake>
							<lognote></lognote>
						</logginginfo>
						<labels>
							<label2>Iris</label2>
						</labels>
					</clipitem>
					<clipitem id="clipitem-1613" premiereChannelType="stereo">
						<masterclipid>masterclip-345</masterclipid>
						<name>NATURLIG HELAFTEN ny seervideokommentar.WAV</name>
						<enabled>TRUE</enabled>
						<duration>13249</duration>
						<rate>
							<timebase>25</timebase>
							<ntsc>FALSE</ntsc>
						</rate>
						<start>62427</start>
						<end>62574</end>
						<in>11646</in>
						<out>11793</out>
						<pproTicksIn>118330813440000</pproTicksIn>
						<pproTicksOut>119824427520000</pproTicksOut>
						<file id="file-345"/>
						<sourcetrack>
							<mediatype>audio</mediatype>
							<trackindex>1</trackindex>
						</sourcetrack>
						<link>
							<linkclipref>clipitem-1613</linkclipref>
							<mediatype>audio</mediatype>
							<trackindex>20</trackindex>
							<clipindex>32</clipindex>
							<groupindex>1</groupindex>
						</link>
						<link>
							<linkclipref>clipitem-1653</linkclipref>
							<mediatype>audio</mediatype>
							<trackindex>21</trackindex>
							<clipindex>32</clipindex>
							<groupindex>1</groupindex>
						</link>
						<logginginfo>
							<description></description>
							<scene></scene>
							<shottake></shottake>
							<lognote></lognote>
						</logginginfo>
						<labels>
							<label2>Iris</label2>
						</labels>
					</clipitem>
					<clipitem id="clipitem-1614" premiereChannelType="stereo">
						<masterclipid>masterclip-345</masterclipid>
						<name>NATURLIG HELAFTEN ny seervideokommentar.WAV</name>
						<enabled>TRUE</enabled>
						<duration>13249</duration>
						<rate>
							<timebase>25</timebase>
							<ntsc>FALSE</ntsc>
						</rate>
						<start>62598</start>
						<end>62804</end>
						<in>11816</in>
						<out>12022</out>
						<pproTicksIn>120058122240000</pproTicksIn>
						<pproTicksOut>122151214080000</pproTicksOut>
						<file id="file-345"/>
						<sourcetrack>
							<mediatype>audio</mediatype>
							<trackindex>1</trackindex>
						</sourcetrack>
						<link>
							<linkclipref>clipitem-1614</linkclipref>
							<mediatype>audio</mediatype>
							<trackindex>20</trackindex>
							<clipindex>33</clipindex>
							<groupindex>1</groupindex>
						</link>
						<link>
							<linkclipref>clipitem-1654</linkclipref>
							<mediatype>audio</mediatype>
							<trackindex>21</trackindex>
							<clipindex>33</clipindex>
							<groupindex>1</groupindex>
						</link>
						<logginginfo>
							<description></description>
							<scene></scene>
							<shottake></shottake>
							<lognote></lognote>
						</logginginfo>
						<labels>
							<label2>Iris</label2>
						</labels>
					</clipitem>
					<clipitem id="clipitem-1615" premiereChannelType="stereo">
						<masterclipid>masterclip-345</masterclipid>
						<name>NATURLIG HELAFTEN ny seervideokommentar.WAV</name>
						<enabled>TRUE</enabled>
						<duration>13249</duration>
						<rate>
							<timebase>25</timebase>
							<ntsc>FALSE</ntsc>
						</rate>
						<start>62830</start>
						<end>62953</end>
						<in>12113</in>
						<out>12236</out>
						<pproTicksIn>123075832320000</pproTicksIn>
						<pproTicksOut>124325591040000</pproTicksOut>
						<file id="file-345"/>
						<sourcetrack>
							<mediatype>audio</mediatype>
							<trackindex>1</trackindex>
						</sourcetrack>
						<link>
							<linkclipref>clipitem-1615</linkclipref>
							<mediatype>audio</mediatype>
							<trackindex>20</trackindex>
							<clipindex>34</clipindex>
							<groupindex>1</groupindex>
						</link>
						<link>
							<linkclipref>clipitem-1655</linkclipref>
							<mediatype>audio</mediatype>
							<trackindex>21</trackindex>
							<clipindex>34</clipindex>
							<groupindex>1</groupindex>
						</link>
						<logginginfo>
							<description></description>
							<scene></scene>
							<shottake></shottake>
							<lognote></lognote>
						</logginginfo>
						<labels>
							<label2>Iris</label2>
						</labels>
					</clipitem>
					<clipitem id="clipitem-1616" premiereChannelType="stereo">
						<masterclipid>masterclip-345</masterclipid>
						<name>NATURLIG HELAFTEN ny seervideokommentar.WAV</name>
						<enabled>TRUE</enabled>
						<duration>13249</duration>
						<rate>
							<timebase>25</timebase>
							<ntsc>FALSE</ntsc>
						</rate>
						<start>62973</start>
						<end>63107</end>
						<in>12236</in>
						<out>12370</out>
						<pproTicksIn>124325591040000</pproTicksIn>
						<pproTicksOut>125687116800000</pproTicksOut>
						<file id="file-345"/>
						<sourcetrack>
							<mediatype>audio</mediatype>
							<trackindex>1</trackindex>
						</sourcetrack>
						<link>
							<linkclipref>clipitem-1616</linkclipref>
							<mediatype>audio</mediatype>
							<trackindex>20</trackindex>
							<clipindex>35</clipindex>
							<groupindex>1</groupindex>
						</link>
						<link>
							<linkclipref>clipitem-1656</linkclipref>
							<mediatype>audio</mediatype>
							<trackindex>21</trackindex>
							<clipindex>35</clipindex>
							<groupindex>1</groupindex>
						</link>
						<logginginfo>
							<description></description>
							<scene></scene>
							<shottake></shottake>
							<lognote></lognote>
						</logginginfo>
						<labels>
							<label2>Iris</label2>
						</labels>
					</clipitem>
					<clipitem id="clipitem-1617" premiereChannelType="stereo">
						<masterclipid>masterclip-345</masterclipid>
						<name>NATURLIG HELAFTEN ny seervideokommentar.WAV</name>
						<enabled>TRUE</enabled>
						<duration>13249</duration>
						<rate>
							<timebase>25</timebase>
							<ntsc>FALSE</ntsc>
						</rate>
						<start>63151</start>
						<end>63256</end>
						<in>12370</in>
						<out>12475</out>
						<pproTicksIn>125687116800000</pproTicksIn>
						<pproTicksOut>126753984000000</pproTicksOut>
						<file id="file-345"/>
						<sourcetrack>
							<mediatype>audio</mediatype>
							<trackindex>1</trackindex>
						</sourcetrack>
						<link>
							<linkclipref>clipitem-1617</linkclipref>
							<mediatype>audio</mediatype>
							<trackindex>20</trackindex>
							<clipindex>36</clipindex>
							<groupindex>1</groupindex>
						</link>
						<link>
							<linkclipref>clipitem-1657</linkclipref>
							<mediatype>audio</mediatype>
							<trackindex>21</trackindex>
							<clipindex>36</clipindex>
							<groupindex>1</groupindex>
						</link>
						<logginginfo>
							<description></description>
							<scene></scene>
							<shottake></shottake>
							<lognote></lognote>
						</logginginfo>
						<labels>
							<label2>Iris</label2>
						</labels>
					</clipitem>
					<clipitem id="clipitem-1618" premiereChannelType="stereo">
						<masterclipid>masterclip-345</masterclipid>
						<name>NATURLIG HELAFTEN ny seervideokommentar.WAV</name>
						<enabled>TRUE</enabled>
						<duration>13249</duration>
						<rate>
							<timebase>25</timebase>
							<ntsc>FALSE</ntsc>
						</rate>
						<start>63292</start>
						<end>63523</end>
						<in>12475</in>
						<out>12706</out>
						<pproTicksIn>126753984000000</pproTicksIn>
						<pproTicksOut>129101091840000</pproTicksOut>
						<file id="file-345"/>
						<sourcetrack>
							<mediatype>audio</mediatype>
							<trackindex>1</trackindex>
						</sourcetrack>
						<link>
							<linkclipref>clipitem-1618</linkclipref>
							<mediatype>audio</mediatype>
							<trackindex>20</trackindex>
							<clipindex>37</clipindex>
							<groupindex>1</groupindex>
						</link>
						<link>
							<linkclipref>clipitem-1658</linkclipref>
							<mediatype>audio</mediatype>
							<trackindex>21</trackindex>
							<clipindex>37</clipindex>
							<groupindex>1</groupindex>
						</link>
						<logginginfo>
							<description></description>
							<scene></scene>
							<shottake></shottake>
							<lognote></lognote>
						</logginginfo>
						<labels>
							<label2>Iris</label2>
						</labels>
					</clipitem>
					<clipitem id="clipitem-1619" premiereChannelType="stereo">
						<masterclipid>masterclip-345</masterclipid>
						<name>NATURLIG HELAFTEN ny seervideokommentar.WAV</name>
						<enabled>TRUE</enabled>
						<duration>13249</duration>
						<rate>
							<timebase>25</timebase>
							<ntsc>FALSE</ntsc>
						</rate>
						<start>63566</start>
						<end>63739</end>
						<in>12733</in>
						<out>12906</out>
						<pproTicksIn>129375429120000</pproTicksIn>
						<pproTicksOut>131133219840000</pproTicksOut>
						<file id="file-345"/>
						<sourcetrack>
							<mediatype>audio</mediatype>
							<trackindex>1</trackindex>
						</sourcetrack>
						<link>
							<linkclipref>clipitem-1619</linkclipref>
							<mediatype>audio</mediatype>
							<trackindex>20</trackindex>
							<clipindex>38</clipindex>
							<groupindex>1</groupindex>
						</link>
						<link>
							<linkclipref>clipitem-1659</linkclipref>
							<mediatype>audio</mediatype>
							<trackindex>21</trackindex>
							<clipindex>38</clipindex>
							<groupindex>1</groupindex>
						</link>
						<logginginfo>
							<description></description>
							<scene></scene>
							<shottake></shottake>
							<lognote></lognote>
						</logginginfo>
						<labels>
							<label2>Iris</label2>
						</labels>
					</clipitem>
					<clipitem id="clipitem-1620" premiereChannelType="stereo">
						<masterclipid>masterclip-345</masterclipid>
						<name>NATURLIG HELAFTEN ny seervideokommentar.WAV</name>
						<enabled>TRUE</enabled>
						<duration>13249</duration>
						<rate>
							<timebase>25</timebase>
							<ntsc>FALSE</ntsc>
						</rate>
						<start>63771</start>
						<end>64005</end>
						<in>12906</in>
						<out>13140</out>
						<pproTicksIn>131133219840000</pproTicksIn>
						<pproTicksOut>133510809600000</pproTicksOut>
						<file id="file-345"/>
						<sourcetrack>
							<mediatype>audio</mediatype>
							<trackindex>1</trackindex>
						</sourcetrack>
						<link>
							<linkclipref>clipitem-1620</linkclipref>
							<mediatype>audio</mediatype>
							<trackindex>20</trackindex>
							<clipindex>39</clipindex>
							<groupindex>1</groupindex>
						</link>
						<link>
							<linkclipref>clipitem-1660</linkclipref>
							<mediatype>audio</mediatype>
							<trackindex>21</trackindex>
							<clipindex>39</clipindex>
							<groupindex>1</groupindex>
						</link>
						<logginginfo>
							<description></description>
							<scene></scene>
							<shottake></shottake>
							<lognote></lognote>
						</logginginfo>
						<labels>
							<label2>Iris</label2>
						</labels>
					</clipitem>
					<clipitem id="clipitem-1621" premiereChannelType="stereo">
						<masterclipid>masterclip-345</masterclipid>
						<name>NATURLIG HELAFTEN ny seervideokommentar.WAV</name>
						<enabled>TRUE</enabled>
						<duration>13249</duration>
						<rate>
							<timebase>25</timebase>
							<ntsc>FALSE</ntsc>
						</rate>
						<start>64005</start>
						<end>64006</end>
						<in>13154</in>
						<out>13155</out>
						<pproTicksIn>133653058560000</pproTicksIn>
						<pproTicksOut>133663219200000</pproTicksOut>
						<file id="file-345"/>
						<sourcetrack>
							<mediatype>audio</mediatype>
							<trackindex>1</trackindex>
						</sourcetrack>
						<link>
							<linkclipref>clipitem-1621</linkclipref>
							<mediatype>audio</mediatype>
							<trackindex>20</trackindex>
							<clipindex>40</clipindex>
							<groupindex>1</groupindex>
						</link>
						<link>
							<linkclipref>clipitem-1661</linkclipref>
							<mediatype>audio</mediatype>
							<trackindex>21</trackindex>
							<clipindex>40</clipindex>
							<groupindex>1</groupindex>
						</link>
						<logginginfo>
							<description></description>
							<scene></scene>
							<shottake></shottake>
							<lognote></lognote>
						</logginginfo>
						<labels>
							<label2>Iris</label2>
						</labels>
					</clipitem>
					<enabled>TRUE</enabled>
					<locked>FALSE</locked>
					<outputchannelindex>1</outputchannelindex>
				</track>
				<track TL.SQTrackAudioKeyframeStyle="0" TL.SQTrackShy="0" TL.SQTrackExpandedHeight="58" TL.SQTrackExpanded="1" MZ.TrackTargeted="0" PannerCurrentValue="0.5" PannerIsInverted="true" PannerStartKeyframe="-91445760000000000,0.5,0,0,0,0,0,0" PannerName="Balance" currentExplodedTrackIndex="1" totalExplodedTrackCount="2" premiereTrackType="Stereo">
					<clipitem id="clipitem-1622" premiereChannelType="stereo">
						<masterclipid>masterclip-343</masterclipid>
						<name>AA261101.MXF</name>
						<enabled>TRUE</enabled>
						<duration>2172</duration>
						<rate>
							<timebase>25</timebase>
							<ntsc>FALSE</ntsc>
						</rate>
						<start>1244</start>
						<end>1502</end>
						<in>1187</in>
						<out>1445</out>
						<pproTicksIn>12060679680000</pproTicksIn>
						<pproTicksOut>14682124800000</pproTicksOut>
						<file id="file-343"/>
						<sourcetrack>
							<mediatype>audio</mediatype>
							<trackindex>2</trackindex>
						</sourcetrack>
						<link>
							<linkclipref>clipitem-1582</linkclipref>
							<mediatype>audio</mediatype>
							<trackindex>20</trackindex>
							<clipindex>1</clipindex>
							<groupindex>1</groupindex>
						</link>
						<link>
							<linkclipref>clipitem-1622</linkclipref>
							<mediatype>audio</mediatype>
							<trackindex>21</trackindex>
							<clipindex>1</clipindex>
							<groupindex>1</groupindex>
						</link>
						<logginginfo>
							<description></description>
							<scene></scene>
							<shottake></shottake>
							<lognote></lognote>
						</logginginfo>
						<labels>
							<label2>Iris</label2>
						</labels>
					</clipitem>
					<clipitem id="clipitem-1623" premiereChannelType="stereo">
						<masterclipid>masterclip-343</masterclipid>
						<name>AA261101.MXF</name>
						<enabled>TRUE</enabled>
						<duration>2172</duration>
						<rate>
							<timebase>25</timebase>
							<ntsc>FALSE</ntsc>
						</rate>
						<start>1811</start>
						<end>1924</end>
						<in>1445</in>
						<out>1558</out>
						<pproTicksIn>14682124800000</pproTicksIn>
						<pproTicksOut>15830277120000</pproTicksOut>
						<file id="file-343"/>
						<sourcetrack>
							<mediatype>audio</mediatype>
							<trackindex>2</trackindex>
						</sourcetrack>
						<link>
							<linkclipref>clipitem-1583</linkclipref>
							<mediatype>audio</mediatype>
							<trackindex>20</trackindex>
							<clipindex>2</clipindex>
							<groupindex>1</groupindex>
						</link>
						<link>
							<linkclipref>clipitem-1623</linkclipref>
							<mediatype>audio</mediatype>
							<trackindex>21</trackindex>
							<clipindex>2</clipindex>
							<groupindex>1</groupindex>
						</link>
						<logginginfo>
							<description></description>
							<scene></scene>
							<shottake></shottake>
							<lognote></lognote>
						</logginginfo>
						<labels>
							<label2>Iris</label2>
						</labels>
					</clipitem>
					<clipitem id="clipitem-1624" premiereChannelType="stereo">
						<masterclipid>masterclip-343</masterclipid>
						<name>AA261101.MXF</name>
						<enabled>TRUE</enabled>
						<duration>2172</duration>
						<rate>
							<timebase>25</timebase>
							<ntsc>FALSE</ntsc>
						</rate>
						<start>1924</start>
						<end>2054</end>
						<in>1593</in>
						<out>1723</out>
						<pproTicksIn>16185899520000</pproTicksIn>
						<pproTicksOut>17506782720000</pproTicksOut>
						<file id="file-343"/>
						<sourcetrack>
							<mediatype>audio</mediatype>
							<trackindex>2</trackindex>
						</sourcetrack>
						<link>
							<linkclipref>clipitem-1584</linkclipref>
							<mediatype>audio</mediatype>
							<trackindex>20</trackindex>
							<clipindex>3</clipindex>
							<groupindex>1</groupindex>
						</link>
						<link>
							<linkclipref>clipitem-1624</linkclipref>
							<mediatype>audio</mediatype>
							<trackindex>21</trackindex>
							<clipindex>3</clipindex>
							<groupindex>1</groupindex>
						</link>
						<logginginfo>
							<description></description>
							<scene></scene>
							<shottake></shottake>
							<lognote></lognote>
						</logginginfo>
						<labels>
							<label2>Iris</label2>
						</labels>
					</clipitem>
					<clipitem id="clipitem-1625" premiereChannelType="stereo">
						<masterclipid>masterclip-343</masterclipid>
						<name>AA261101.MXF</name>
						<enabled>TRUE</enabled>
						<duration>2172</duration>
						<rate>
							<timebase>25</timebase>
							<ntsc>FALSE</ntsc>
						</rate>
						<start>2153</start>
						<end>2346</end>
						<in>1723</in>
						<out>1916</out>
						<pproTicksIn>17506782720000</pproTicksIn>
						<pproTicksOut>19467786240000</pproTicksOut>
						<file id="file-343"/>
						<sourcetrack>
							<mediatype>audio</mediatype>
							<trackindex>2</trackindex>
						</sourcetrack>
						<link>
							<linkclipref>clipitem-1585</linkclipref>
							<mediatype>audio</mediatype>
							<trackindex>20</trackindex>
							<clipindex>4</clipindex>
							<groupindex>1</groupindex>
						</link>
						<link>
							<linkclipref>clipitem-1625</linkclipref>
							<mediatype>audio</mediatype>
							<trackindex>21</trackindex>
							<clipindex>4</clipindex>
							<groupindex>1</groupindex>
						</link>
						<logginginfo>
							<description></description>
							<scene></scene>
							<shottake></shottake>
							<lognote></lognote>
						</logginginfo>
						<labels>
							<label2>Iris</label2>
						</labels>
					</clipitem>
					<clipitem id="clipitem-1626" premiereChannelType="stereo">
						<masterclipid>masterclip-15</masterclipid>
						<name>AA261301.MXF</name>
						<enabled>TRUE</enabled>
						<duration>1020</duration>
						<rate>
							<timebase>25</timebase>
							<ntsc>FALSE</ntsc>
						</rate>
						<start>2430</start>
						<end>2719</end>
						<in>346</in>
						<out>635</out>
						<pproTicksIn>3515581440000</pproTicksIn>
						<pproTicksOut>6452006400000</pproTicksOut>
						<file id="file-15"/>
						<sourcetrack>
							<mediatype>audio</mediatype>
							<trackindex>2</trackindex>
						</sourcetrack>
						<link>
							<linkclipref>clipitem-1586</linkclipref>
							<mediatype>audio</mediatype>
							<trackindex>20</trackindex>
							<clipindex>5</clipindex>
							<groupindex>1</groupindex>
						</link>
						<link>
							<linkclipref>clipitem-1626</linkclipref>
							<mediatype>audio</mediatype>
							<trackindex>21</trackindex>
							<clipindex>5</clipindex>
							<groupindex>1</groupindex>
						</link>
						<logginginfo>
							<description></description>
							<scene></scene>
							<shottake></shottake>
							<lognote></lognote>
						</logginginfo>
						<labels>
							<label2>Iris</label2>
						</labels>
					</clipitem>
					<clipitem id="clipitem-1627" premiereChannelType="stereo">
						<masterclipid>masterclip-344</masterclipid>
						<name>NATURLIG HELAFTEN 2016 kommentar.WAV</name>
						<enabled>TRUE</enabled>
						<duration>13590</duration>
						<rate>
							<timebase>25</timebase>
							<ntsc>FALSE</ntsc>
						</rate>
						<start>3643</start>
						<end>4095</end>
						<in>4405</in>
						<out>4857</out>
						<pproTicksIn>44757619200000</pproTicksIn>
						<pproTicksOut>49350228480000</pproTicksOut>
						<file id="file-344"/>
						<sourcetrack>
							<mediatype>audio</mediatype>
							<trackindex>2</trackindex>
						</sourcetrack>
						<link>
							<linkclipref>clipitem-1587</linkclipref>
							<mediatype>audio</mediatype>
							<trackindex>20</trackindex>
							<clipindex>6</clipindex>
							<groupindex>1</groupindex>
						</link>
						<link>
							<linkclipref>clipitem-1627</linkclipref>
							<mediatype>audio</mediatype>
							<trackindex>21</trackindex>
							<clipindex>6</clipindex>
							<groupindex>1</groupindex>
						</link>
						<logginginfo>
							<description></description>
							<scene></scene>
							<shottake></shottake>
							<lognote></lognote>
						</logginginfo>
						<labels>
							<label2>Iris</label2>
						</labels>
					</clipitem>
					<clipitem id="clipitem-1628" premiereChannelType="stereo">
						<masterclipid>masterclip-345</masterclipid>
						<name>NATURLIG HELAFTEN ny seervideokommentar.WAV</name>
						<enabled>TRUE</enabled>
						<duration>13249</duration>
						<rate>
							<timebase>25</timebase>
							<ntsc>FALSE</ntsc>
						</rate>
						<start>7232</start>
						<end>7455</end>
						<in>60</in>
						<out>283</out>
						<pproTicksIn>609638400000</pproTicksIn>
						<pproTicksOut>2875461120000</pproTicksOut>
						<file id="file-345"/>
						<sourcetrack>
							<mediatype>audio</mediatype>
							<trackindex>2</trackindex>
						</sourcetrack>
						<link>
							<linkclipref>clipitem-1588</linkclipref>
							<mediatype>audio</mediatype>
							<trackindex>20</trackindex>
							<clipindex>7</clipindex>
							<groupindex>1</groupindex>
						</link>
						<link>
							<linkclipref>clipitem-1628</linkclipref>
							<mediatype>audio</mediatype>
							<trackindex>21</trackindex>
							<clipindex>7</clipindex>
							<groupindex>1</groupindex>
						</link>
						<logginginfo>
							<description></description>
							<scene></scene>
							<shottake></shottake>
							<lognote></lognote>
						</logginginfo>
						<labels>
							<label2>Iris</label2>
						</labels>
					</clipitem>
					<clipitem id="clipitem-1629" premiereChannelType="stereo">
						<masterclipid>masterclip-345</masterclipid>
						<name>NATURLIG HELAFTEN ny seervideokommentar.WAV</name>
						<enabled>TRUE</enabled>
						<duration>13249</duration>
						<rate>
							<timebase>25</timebase>
							<ntsc>FALSE</ntsc>
						</rate>
						<start>8994</start>
						<end>9243</end>
						<in>4345</in>
						<out>4594</out>
						<pproTicksIn>44147980800000</pproTicksIn>
						<pproTicksOut>46677980160000</pproTicksOut>
						<file id="file-345"/>
						<sourcetrack>
							<mediatype>audio</mediatype>
							<trackindex>2</trackindex>
						</sourcetrack>
						<link>
							<linkclipref>clipitem-1589</linkclipref>
							<mediatype>audio</mediatype>
							<trackindex>20</trackindex>
							<clipindex>8</clipindex>
							<groupindex>1</groupindex>
						</link>
						<link>
							<linkclipref>clipitem-1629</linkclipref>
							<mediatype>audio</mediatype>
							<trackindex>21</trackindex>
							<clipindex>8</clipindex>
							<groupindex>1</groupindex>
						</link>
						<logginginfo>
							<description></description>
							<scene></scene>
							<shottake></shottake>
							<lognote></lognote>
						</logginginfo>
						<labels>
							<label2>Iris</label2>
						</labels>
					</clipitem>
					<clipitem id="clipitem-1630" premiereChannelType="stereo">
						<masterclipid>masterclip-345</masterclipid>
						<name>NATURLIG HELAFTEN ny seervideokommentar.WAV</name>
						<enabled>TRUE</enabled>
						<duration>13249</duration>
						<rate>
							<timebase>25</timebase>
							<ntsc>FALSE</ntsc>
						</rate>
						<start>9288</start>
						<end>9440</end>
						<in>4594</in>
						<out>4746</out>
						<pproTicksIn>46677980160000</pproTicksIn>
						<pproTicksOut>48222397440000</pproTicksOut>
						<file id="file-345"/>
						<sourcetrack>
							<mediatype>audio</mediatype>
							<trackindex>2</trackindex>
						</sourcetrack>
						<link>
							<linkclipref>clipitem-1590</linkclipref>
							<mediatype>audio</mediatype>
							<trackindex>20</trackindex>
							<clipindex>9</clipindex>
							<groupindex>1</groupindex>
						</link>
						<link>
							<linkclipref>clipitem-1630</linkclipref>
							<mediatype>audio</mediatype>
							<trackindex>21</trackindex>
							<clipindex>9</clipindex>
							<groupindex>1</groupindex>
						</link>
						<logginginfo>
							<description></description>
							<scene></scene>
							<shottake></shottake>
							<lognote></lognote>
						</logginginfo>
						<labels>
							<label2>Iris</label2>
						</labels>
					</clipitem>
					<clipitem id="clipitem-1631" premiereChannelType="stereo">
						<masterclipid>masterclip-345</masterclipid>
						<name>NATURLIG HELAFTEN ny seervideokommentar.WAV</name>
						<enabled>TRUE</enabled>
						<duration>13249</duration>
						<rate>
							<timebase>25</timebase>
							<ntsc>FALSE</ntsc>
						</rate>
						<start>9509</start>
						<end>9698</end>
						<in>4764</in>
						<out>4953</out>
						<pproTicksIn>48405288960000</pproTicksIn>
						<pproTicksOut>50325649920000</pproTicksOut>
						<file id="file-345"/>
						<sourcetrack>
							<mediatype>audio</mediatype>
							<trackindex>2</trackindex>
						</sourcetrack>
						<link>
							<linkclipref>clipitem-1591</linkclipref>
							<mediatype>audio</mediatype>
							<trackindex>20</trackindex>
							<clipindex>10</clipindex>
							<groupindex>1</groupindex>
						</link>
						<link>
							<linkclipref>clipitem-1631</linkclipref>
							<mediatype>audio</mediatype>
							<trackindex>21</trackindex>
							<clipindex>10</clipindex>
							<groupindex>1</groupindex>
						</link>
						<logginginfo>
							<description></description>
							<scene></scene>
							<shottake></shottake>
							<lognote></lognote>
						</logginginfo>
						<labels>
							<label2>Iris</label2>
						</labels>
					</clipitem>
					<clipitem id="clipitem-1632" premiereChannelType="stereo">
						<masterclipid>masterclip-345</masterclipid>
						<name>NATURLIG HELAFTEN ny seervideokommentar.WAV</name>
						<enabled>TRUE</enabled>
						<duration>13249</duration>
						<rate>
							<timebase>25</timebase>
							<ntsc>FALSE</ntsc>
						</rate>
						<start>9698</start>
						<end>10003</end>
						<in>4981</in>
						<out>5286</out>
						<pproTicksIn>50610147840000</pproTicksIn>
						<pproTicksOut>53709143040000</pproTicksOut>
						<file id="file-345"/>
						<sourcetrack>
							<mediatype>audio</mediatype>
							<trackindex>2</trackindex>
						</sourcetrack>
						<link>
							<linkclipref>clipitem-1592</linkclipref>
							<mediatype>audio</mediatype>
							<trackindex>20</trackindex>
							<clipindex>11</clipindex>
							<groupindex>1</groupindex>
						</link>
						<link>
							<linkclipref>clipitem-1632</linkclipref>
							<mediatype>audio</mediatype>
							<trackindex>21</trackindex>
							<clipindex>11</clipindex>
							<groupindex>1</groupindex>
						</link>
						<logginginfo>
							<description></description>
							<scene></scene>
							<shottake></shottake>
							<lognote></lognote>
						</logginginfo>
						<labels>
							<label2>Iris</label2>
						</labels>
					</clipitem>
					<clipitem id="clipitem-1633" premiereChannelType="stereo">
						<masterclipid>masterclip-345</masterclipid>
						<name>NATURLIG HELAFTEN ny seervideokommentar.WAV</name>
						<enabled>TRUE</enabled>
						<duration>13249</duration>
						<rate>
							<timebase>25</timebase>
							<ntsc>FALSE</ntsc>
						</rate>
						<start>10004</start>
						<end>10177</end>
						<in>5306</in>
						<out>5479</out>
						<pproTicksIn>53912355840000</pproTicksIn>
						<pproTicksOut>55670146560000</pproTicksOut>
						<file id="file-345"/>
						<sourcetrack>
							<mediatype>audio</mediatype>
							<trackindex>2</trackindex>
						</sourcetrack>
						<link>
							<linkclipref>clipitem-1593</linkclipref>
							<mediatype>audio</mediatype>
							<trackindex>20</trackindex>
							<clipindex>12</clipindex>
							<groupindex>1</groupindex>
						</link>
						<link>
							<linkclipref>clipitem-1633</linkclipref>
							<mediatype>audio</mediatype>
							<trackindex>21</trackindex>
							<clipindex>12</clipindex>
							<groupindex>1</groupindex>
						</link>
						<logginginfo>
							<description></description>
							<scene></scene>
							<shottake></shottake>
							<lognote></lognote>
						</logginginfo>
						<labels>
							<label2>Iris</label2>
						</labels>
					</clipitem>
					<clipitem id="clipitem-1634" premiereChannelType="stereo">
						<masterclipid>masterclip-345</masterclipid>
						<name>NATURLIG HELAFTEN ny seervideokommentar.WAV</name>
						<enabled>TRUE</enabled>
						<duration>13249</duration>
						<rate>
							<timebase>25</timebase>
							<ntsc>FALSE</ntsc>
						</rate>
						<start>10177</start>
						<end>10491</end>
						<in>5573</in>
						<out>5887</out>
						<pproTicksIn>56625246720000</pproTicksIn>
						<pproTicksOut>59815687680000</pproTicksOut>
						<file id="file-345"/>
						<sourcetrack>
							<mediatype>audio</mediatype>
							<trackindex>2</trackindex>
						</sourcetrack>
						<link>
							<linkclipref>clipitem-1594</linkclipref>
							<mediatype>audio</mediatype>
							<trackindex>20</trackindex>
							<clipindex>13</clipindex>
							<groupindex>1</groupindex>
						</link>
						<link>
							<linkclipref>clipitem-1634</linkclipref>
							<mediatype>audio</mediatype>
							<trackindex>21</trackindex>
							<clipindex>13</clipindex>
							<groupindex>1</groupindex>
						</link>
						<logginginfo>
							<description></description>
							<scene></scene>
							<shottake></shottake>
							<lognote></lognote>
						</logginginfo>
						<labels>
							<label2>Iris</label2>
						</labels>
					</clipitem>
					<clipitem id="clipitem-1635" premiereChannelType="stereo">
						<masterclipid>masterclip-346</masterclipid>
						<name>NATURLIG HELAFTEN 2016 kommentar.WAV</name>
						<enabled>TRUE</enabled>
						<duration>13590</duration>
						<rate>
							<timebase>25</timebase>
							<ntsc>FALSE</ntsc>
						</rate>
						<start>10680</start>
						<end>11046</end>
						<in>1163</in>
						<out>1529</out>
						<pproTicksIn>11816824320000</pproTicksIn>
						<pproTicksOut>15535618560000</pproTicksOut>
						<file id="file-346"/>
						<sourcetrack>
							<mediatype>audio</mediatype>
							<trackindex>2</trackindex>
						</sourcetrack>
						<link>
							<linkclipref>clipitem-1595</linkclipref>
							<mediatype>audio</mediatype>
							<trackindex>20</trackindex>
							<clipindex>14</clipindex>
							<groupindex>1</groupindex>
						</link>
						<link>
							<linkclipref>clipitem-1635</linkclipref>
							<mediatype>audio</mediatype>
							<trackindex>21</trackindex>
							<clipindex>14</clipindex>
							<groupindex>1</groupindex>
						</link>
						<logginginfo>
							<description></description>
							<scene></scene>
							<shottake></shottake>
							<lognote></lognote>
						</logginginfo>
						<labels>
							<label2>Iris</label2>
						</labels>
					</clipitem>
					<clipitem id="clipitem-1636" premiereChannelType="stereo">
						<masterclipid>masterclip-346</masterclipid>
						<name>NATURLIG HELAFTEN 2016 kommentar.WAV</name>
						<enabled>TRUE</enabled>
						<duration>13590</duration>
						<rate>
							<timebase>25</timebase>
							<ntsc>FALSE</ntsc>
						</rate>
						<start>11090</start>
						<end>11351</end>
						<in>1529</in>
						<out>1790</out>
						<pproTicksIn>15535618560000</pproTicksIn>
						<pproTicksOut>18187545600000</pproTicksOut>
						<file id="file-346"/>
						<sourcetrack>
							<mediatype>audio</mediatype>
							<trackindex>2</trackindex>
						</sourcetrack>
						<link>
							<linkclipref>clipitem-1596</linkclipref>
							<mediatype>audio</mediatype>
							<trackindex>20</trackindex>
							<clipindex>15</clipindex>
							<groupindex>1</groupindex>
						</link>
						<link>
							<linkclipref>clipitem-1636</linkclipref>
							<mediatype>audio</mediatype>
							<trackindex>21</trackindex>
							<clipindex>15</clipindex>
							<groupindex>1</groupindex>
						</link>
						<logginginfo>
							<description></description>
							<scene></scene>
							<shottake></shottake>
							<lognote></lognote>
						</logginginfo>
						<labels>
							<label2>Iris</label2>
						</labels>
					</clipitem>
					<clipitem id="clipitem-1637" premiereChannelType="stereo">
						<masterclipid>masterclip-346</masterclipid>
						<name>NATURLIG HELAFTEN 2016 kommentar.WAV</name>
						<enabled>TRUE</enabled>
						<duration>13590</duration>
						<rate>
							<timebase>25</timebase>
							<ntsc>FALSE</ntsc>
						</rate>
						<start>14766</start>
						<end>15148</end>
						<in>1829</in>
						<out>2211</out>
						<pproTicksIn>18583810560000</pproTicksIn>
						<pproTicksOut>22465175040000</pproTicksOut>
						<file id="file-346"/>
						<sourcetrack>
							<mediatype>audio</mediatype>
							<trackindex>2</trackindex>
						</sourcetrack>
						<link>
							<linkclipref>clipitem-1597</linkclipref>
							<mediatype>audio</mediatype>
							<trackindex>20</trackindex>
							<clipindex>16</clipindex>
							<groupindex>1</groupindex>
						</link>
						<link>
							<linkclipref>clipitem-1637</linkclipref>
							<mediatype>audio</mediatype>
							<trackindex>21</trackindex>
							<clipindex>16</clipindex>
							<groupindex>1</groupindex>
						</link>
						<logginginfo>
							<description></description>
							<scene></scene>
							<shottake></shottake>
							<lognote></lognote>
						</logginginfo>
						<labels>
							<label2>Iris</label2>
						</labels>
					</clipitem>
					<clipitem id="clipitem-1638" premiereChannelType="stereo">
						<masterclipid>masterclip-347</masterclipid>
						<name>NATURLIG HELAFTEN 2016 kommentar.WAV</name>
						<enabled>TRUE</enabled>
						<duration>13590</duration>
						<rate>
							<timebase>25</timebase>
							<ntsc>FALSE</ntsc>
						</rate>
						<start>19748</start>
						<end>19978</end>
						<in>11435</in>
						<out>11665</out>
						<pproTicksIn>116186918400000</pproTicksIn>
						<pproTicksOut>118523865600000</pproTicksOut>
						<file id="file-347"/>
						<sourcetrack>
							<mediatype>audio</mediatype>
							<trackindex>2</trackindex>
						</sourcetrack>
						<link>
							<linkclipref>clipitem-1598</linkclipref>
							<mediatype>audio</mediatype>
							<trackindex>20</trackindex>
							<clipindex>17</clipindex>
							<groupindex>1</groupindex>
						</link>
						<link>
							<linkclipref>clipitem-1638</linkclipref>
							<mediatype>audio</mediatype>
							<trackindex>21</trackindex>
							<clipindex>17</clipindex>
							<groupindex>1</groupindex>
						</link>
						<logginginfo>
							<description></description>
							<scene></scene>
							<shottake></shottake>
							<lognote></lognote>
						</logginginfo>
						<labels>
							<label2>Iris</label2>
						</labels>
					</clipitem>
					<clipitem id="clipitem-1639" premiereChannelType="stereo">
						<masterclipid>masterclip-347</masterclipid>
						<name>NATURLIG HELAFTEN 2016 kommentar.WAV</name>
						<enabled>TRUE</enabled>
						<duration>13590</duration>
						<rate>
							<timebase>25</timebase>
							<ntsc>FALSE</ntsc>
						</rate>
						<start>20111</start>
						<end>20279</end>
						<in>11665</in>
						<out>11833</out>
						<pproTicksIn>118523865600000</pproTicksIn>
						<pproTicksOut>120230853120000</pproTicksOut>
						<file id="file-347"/>
						<sourcetrack>
							<mediatype>audio</mediatype>
							<trackindex>2</trackindex>
						</sourcetrack>
						<link>
							<linkclipref>clipitem-1599</linkclipref>
							<mediatype>audio</mediatype>
							<trackindex>20</trackindex>
							<clipindex>18</clipindex>
							<groupindex>1</groupindex>
						</link>
						<link>
							<linkclipref>clipitem-1639</linkclipref>
							<mediatype>audio</mediatype>
							<trackindex>21</trackindex>
							<clipindex>18</clipindex>
							<groupindex>1</groupindex>
						</link>
						<logginginfo>
							<description></description>
							<scene></scene>
							<shottake></shottake>
							<lognote></lognote>
						</logginginfo>
						<labels>
							<label2>Iris</label2>
						</labels>
					</clipitem>
					<clipitem id="clipitem-1640" premiereChannelType="stereo">
						<masterclipid>masterclip-345</masterclipid>
						<name>NATURLIG HELAFTEN ny seervideokommentar.WAV</name>
						<enabled>TRUE</enabled>
						<duration>13249</duration>
						<rate>
							<timebase>25</timebase>
							<ntsc>FALSE</ntsc>
						</rate>
						<start>58993</start>
						<end>59178</end>
						<in>6025</in>
						<out>6210</out>
						<pproTicksIn>61217856000000</pproTicksIn>
						<pproTicksOut>63097574400000</pproTicksOut>
						<file id="file-345"/>
						<sourcetrack>
							<mediatype>audio</mediatype>
							<trackindex>2</trackindex>
						</sourcetrack>
						<link>
							<linkclipref>clipitem-1600</linkclipref>
							<mediatype>audio</mediatype>
							<trackindex>20</trackindex>
							<clipindex>19</clipindex>
							<groupindex>1</groupindex>
						</link>
						<link>
							<linkclipref>clipitem-1640</linkclipref>
							<mediatype>audio</mediatype>
							<trackindex>21</trackindex>
							<clipindex>19</clipindex>
							<groupindex>1</groupindex>
						</link>
						<logginginfo>
							<description></description>
							<scene></scene>
							<shottake></shottake>
							<lognote></lognote>
						</logginginfo>
						<labels>
							<label2>Iris</label2>
						</labels>
					</clipitem>
					<clipitem id="clipitem-1641" premiereChannelType="stereo">
						<masterclipid>masterclip-345</masterclipid>
						<name>NATURLIG HELAFTEN ny seervideokommentar.WAV</name>
						<enabled>TRUE</enabled>
						<duration>13249</duration>
						<rate>
							<timebase>25</timebase>
							<ntsc>FALSE</ntsc>
						</rate>
						<start>59272</start>
						<end>59494</end>
						<in>6227</in>
						<out>6449</out>
						<pproTicksIn>63270305280000</pproTicksIn>
						<pproTicksOut>65525967360000</pproTicksOut>
						<file id="file-345"/>
						<sourcetrack>
							<mediatype>audio</mediatype>
							<trackindex>2</trackindex>
						</sourcetrack>
						<link>
							<linkclipref>clipitem-1601</linkclipref>
							<mediatype>audio</mediatype>
							<trackindex>20</trackindex>
							<clipindex>20</clipindex>
							<groupindex>1</groupindex>
						</link>
						<link>
							<linkclipref>clipitem-1641</linkclipref>
							<mediatype>audio</mediatype>
							<trackindex>21</trackindex>
							<clipindex>20</clipindex>
							<groupindex>1</groupindex>
						</link>
						<logginginfo>
							<description></description>
							<scene></scene>
							<shottake></shottake>
							<lognote></lognote>
						</logginginfo>
						<labels>
							<label2>Iris</label2>
						</labels>
					</clipitem>
					<clipitem id="clipitem-1642" premiereChannelType="stereo">
						<masterclipid>masterclip-345</masterclipid>
						<name>NATURLIG HELAFTEN ny seervideokommentar.WAV</name>
						<enabled>TRUE</enabled>
						<duration>13249</duration>
						<rate>
							<timebase>25</timebase>
							<ntsc>FALSE</ntsc>
						</rate>
						<start>59572</start>
						<end>59800</end>
						<in>7256</in>
						<out>7484</out>
						<pproTicksIn>73725603840000</pproTicksIn>
						<pproTicksOut>76042229760000</pproTicksOut>
						<file id="file-345"/>
						<sourcetrack>
							<mediatype>audio</mediatype>
							<trackindex>2</trackindex>
						</sourcetrack>
						<link>
							<linkclipref>clipitem-1602</linkclipref>
							<mediatype>audio</mediatype>
							<trackindex>20</trackindex>
							<clipindex>21</clipindex>
							<groupindex>1</groupindex>
						</link>
						<link>
							<linkclipref>clipitem-1642</linkclipref>
							<mediatype>audio</mediatype>
							<trackindex>21</trackindex>
							<clipindex>21</clipindex>
							<groupindex>1</groupindex>
						</link>
						<logginginfo>
							<description></description>
							<scene></scene>
							<shottake></shottake>
							<lognote></lognote>
						</logginginfo>
						<labels>
							<label2>Iris</label2>
						</labels>
					</clipitem>
					<clipitem id="clipitem-1643" premiereChannelType="stereo">
						<masterclipid>masterclip-345</masterclipid>
						<name>NATURLIG HELAFTEN ny seervideokommentar.WAV</name>
						<enabled>TRUE</enabled>
						<duration>13249</duration>
						<rate>
							<timebase>25</timebase>
							<ntsc>FALSE</ntsc>
						</rate>
						<start>60010</start>
						<end>60336</end>
						<in>8358</in>
						<out>8684</out>
						<pproTicksIn>84922629120000</pproTicksIn>
						<pproTicksOut>88234997760000</pproTicksOut>
						<file id="file-345"/>
						<sourcetrack>
							<mediatype>audio</mediatype>
							<trackindex>2</trackindex>
						</sourcetrack>
						<link>
							<linkclipref>clipitem-1603</linkclipref>
							<mediatype>audio</mediatype>
							<trackindex>20</trackindex>
							<clipindex>22</clipindex>
							<groupindex>1</groupindex>
						</link>
						<link>
							<linkclipref>clipitem-1643</linkclipref>
							<mediatype>audio</mediatype>
							<trackindex>21</trackindex>
							<clipindex>22</clipindex>
							<groupindex>1</groupindex>
						</link>
						<logginginfo>
							<description></description>
							<scene></scene>
							<shottake></shottake>
							<lognote></lognote>
						</logginginfo>
						<labels>
							<label2>Iris</label2>
						</labels>
					</clipitem>
					<clipitem id="clipitem-1644" premiereChannelType="stereo">
						<masterclipid>masterclip-345</masterclipid>
						<name>NATURLIG HELAFTEN ny seervideokommentar.WAV</name>
						<enabled>TRUE</enabled>
						<duration>13249</duration>
						<rate>
							<timebase>25</timebase>
							<ntsc>FALSE</ntsc>
						</rate>
						<start>60370</start>
						<end>60479</end>
						<in>8699</in>
						<out>8808</out>
						<pproTicksIn>88387407360000</pproTicksIn>
						<pproTicksOut>89494917120000</pproTicksOut>
						<file id="file-345"/>
						<sourcetrack>
							<mediatype>audio</mediatype>
							<trackindex>2</trackindex>
						</sourcetrack>
						<link>
							<linkclipref>clipitem-1604</linkclipref>
							<mediatype>audio</mediatype>
							<trackindex>20</trackindex>
							<clipindex>23</clipindex>
							<groupindex>1</groupindex>
						</link>
						<link>
							<linkclipref>clipitem-1644</linkclipref>
							<mediatype>audio</mediatype>
							<trackindex>21</trackindex>
							<clipindex>23</clipindex>
							<groupindex>1</groupindex>
						</link>
						<logginginfo>
							<description></description>
							<scene></scene>
							<shottake></shottake>
							<lognote></lognote>
						</logginginfo>
						<labels>
							<label2>Iris</label2>
						</labels>
					</clipitem>
					<clipitem id="clipitem-1645" premiereChannelType="stereo">
						<masterclipid>masterclip-345</masterclipid>
						<name>NATURLIG HELAFTEN ny seervideokommentar.WAV</name>
						<enabled>TRUE</enabled>
						<duration>13249</duration>
						<rate>
							<timebase>25</timebase>
							<ntsc>FALSE</ntsc>
						</rate>
						<start>60558</start>
						<end>60746</end>
						<in>8833</in>
						<out>9021</out>
						<pproTicksIn>89748933120000</pproTicksIn>
						<pproTicksOut>91659133440000</pproTicksOut>
						<file id="file-345"/>
						<sourcetrack>
							<mediatype>audio</mediatype>
							<trackindex>2</trackindex>
						</sourcetrack>
						<link>
							<linkclipref>clipitem-1605</linkclipref>
							<mediatype>audio</mediatype>
							<trackindex>20</trackindex>
							<clipindex>24</clipindex>
							<groupindex>1</groupindex>
						</link>
						<link>
							<linkclipref>clipitem-1645</linkclipref>
							<mediatype>audio</mediatype>
							<trackindex>21</trackindex>
							<clipindex>24</clipindex>
							<groupindex>1</groupindex>
						</link>
						<logginginfo>
							<description></description>
							<scene></scene>
							<shottake></shottake>
							<lognote></lognote>
						</logginginfo>
						<labels>
							<label2>Iris</label2>
						</labels>
					</clipitem>
					<clipitem id="clipitem-1646" premiereChannelType="stereo">
						<masterclipid>masterclip-345</masterclipid>
						<name>NATURLIG HELAFTEN ny seervideokommentar.WAV</name>
						<enabled>TRUE</enabled>
						<duration>13249</duration>
						<rate>
							<timebase>25</timebase>
							<ntsc>FALSE</ntsc>
						</rate>
						<start>60789</start>
						<end>60881</end>
						<in>9021</in>
						<out>9113</out>
						<pproTicksIn>91659133440000</pproTicksIn>
						<pproTicksOut>92593912320000</pproTicksOut>
						<file id="file-345"/>
						<sourcetrack>
							<mediatype>audio</mediatype>
							<trackindex>2</trackindex>
						</sourcetrack>
						<link>
							<linkclipref>clipitem-1606</linkclipref>
							<mediatype>audio</mediatype>
							<trackindex>20</trackindex>
							<clipindex>25</clipindex>
							<groupindex>1</groupindex>
						</link>
						<link>
							<linkclipref>clipitem-1646</linkclipref>
							<mediatype>audio</mediatype>
							<trackindex>21</trackindex>
							<clipindex>25</clipindex>
							<groupindex>1</groupindex>
						</link>
						<logginginfo>
							<description></description>
							<scene></scene>
							<shottake></shottake>
							<lognote></lognote>
						</logginginfo>
						<labels>
							<label2>Iris</label2>
						</labels>
					</clipitem>
					<clipitem id="clipitem-1647" premiereChannelType="stereo">
						<masterclipid>masterclip-345</masterclipid>
						<name>NATURLIG HELAFTEN ny seervideokommentar.WAV</name>
						<enabled>TRUE</enabled>
						<duration>13249</duration>
						<rate>
							<timebase>25</timebase>
							<ntsc>FALSE</ntsc>
						</rate>
						<start>61001</start>
						<end>61129</end>
						<in>9208</in>
						<out>9336</out>
						<pproTicksIn>93559173120000</pproTicksIn>
						<pproTicksOut>94859735040000</pproTicksOut>
						<file id="file-345"/>
						<sourcetrack>
							<mediatype>audio</mediatype>
							<trackindex>2</trackindex>
						</sourcetrack>
						<link>
							<linkclipref>clipitem-1607</linkclipref>
							<mediatype>audio</mediatype>
							<trackindex>20</trackindex>
							<clipindex>26</clipindex>
							<groupindex>1</groupindex>
						</link>
						<link>
							<linkclipref>clipitem-1647</linkclipref>
							<mediatype>audio</mediatype>
							<trackindex>21</trackindex>
							<clipindex>26</clipindex>
							<groupindex>1</groupindex>
						</link>
						<logginginfo>
							<description></description>
							<scene></scene>
							<shottake></shottake>
							<lognote></lognote>
						</logginginfo>
						<labels>
							<label2>Iris</label2>
						</labels>
					</clipitem>
					<clipitem id="clipitem-1648" premiereChannelType="stereo">
						<masterclipid>masterclip-345</masterclipid>
						<name>NATURLIG HELAFTEN ny seervideokommentar.WAV</name>
						<enabled>TRUE</enabled>
						<duration>13249</duration>
						<rate>
							<timebase>25</timebase>
							<ntsc>FALSE</ntsc>
						</rate>
						<start>61194</start>
						<end>61299</end>
						<in>9342</in>
						<out>9447</out>
						<pproTicksIn>94920698880000</pproTicksIn>
						<pproTicksOut>95987566080000</pproTicksOut>
						<file id="file-345"/>
						<sourcetrack>
							<mediatype>audio</mediatype>
							<trackindex>2</trackindex>
						</sourcetrack>
						<link>
							<linkclipref>clipitem-1608</linkclipref>
							<mediatype>audio</mediatype>
							<trackindex>20</trackindex>
							<clipindex>27</clipindex>
							<groupindex>1</groupindex>
						</link>
						<link>
							<linkclipref>clipitem-1648</linkclipref>
							<mediatype>audio</mediatype>
							<trackindex>21</trackindex>
							<clipindex>27</clipindex>
							<groupindex>1</groupindex>
						</link>
						<logginginfo>
							<description></description>
							<scene></scene>
							<shottake></shottake>
							<lognote></lognote>
						</logginginfo>
						<labels>
							<label2>Iris</label2>
						</labels>
					</clipitem>
					<clipitem id="clipitem-1649" premiereChannelType="stereo">
						<masterclipid>masterclip-345</masterclipid>
						<name>NATURLIG HELAFTEN ny seervideokommentar.WAV</name>
						<enabled>TRUE</enabled>
						<duration>13249</duration>
						<rate>
							<timebase>25</timebase>
							<ntsc>FALSE</ntsc>
						</rate>
						<start>61299</start>
						<end>61487</end>
						<in>9447</in>
						<out>9635</out>
						<pproTicksIn>95987566080000</pproTicksIn>
						<pproTicksOut>97897766400000</pproTicksOut>
						<file id="file-345"/>
						<sourcetrack>
							<mediatype>audio</mediatype>
							<trackindex>2</trackindex>
						</sourcetrack>
						<link>
							<linkclipref>clipitem-1609</linkclipref>
							<mediatype>audio</mediatype>
							<trackindex>20</trackindex>
							<clipindex>28</clipindex>
							<groupindex>1</groupindex>
						</link>
						<link>
							<linkclipref>clipitem-1649</linkclipref>
							<mediatype>audio</mediatype>
							<trackindex>21</trackindex>
							<clipindex>28</clipindex>
							<groupindex>1</groupindex>
						</link>
						<logginginfo>
							<description></description>
							<scene></scene>
							<shottake></shottake>
							<lognote></lognote>
						</logginginfo>
						<labels>
							<label2>Iris</label2>
						</labels>
					</clipitem>
					<clipitem id="clipitem-1650" premiereChannelType="stereo">
						<masterclipid>masterclip-345</masterclipid>
						<name>NATURLIG HELAFTEN ny seervideokommentar.WAV</name>
						<enabled>TRUE</enabled>
						<duration>13249</duration>
						<rate>
							<timebase>25</timebase>
							<ntsc>FALSE</ntsc>
						</rate>
						<start>61559</start>
						<end>61700</end>
						<in>9635</in>
						<out>9776</out>
						<pproTicksIn>97897766400000</pproTicksIn>
						<pproTicksOut>99330416640000</pproTicksOut>
						<file id="file-345"/>
						<sourcetrack>
							<mediatype>audio</mediatype>
							<trackindex>2</trackindex>
						</sourcetrack>
						<link>
							<linkclipref>clipitem-1610</linkclipref>
							<mediatype>audio</mediatype>
							<trackindex>20</trackindex>
							<clipindex>29</clipindex>
							<groupindex>1</groupindex>
						</link>
						<link>
							<linkclipref>clipitem-1650</linkclipref>
							<mediatype>audio</mediatype>
							<trackindex>21</trackindex>
							<clipindex>29</clipindex>
							<groupindex>1</groupindex>
						</link>
						<logginginfo>
							<description></description>
							<scene></scene>
							<shottake></shottake>
							<lognote></lognote>
						</logginginfo>
						<labels>
							<label2>Iris</label2>
						</labels>
					</clipitem>
					<clipitem id="clipitem-1651" premiereChannelType="stereo">
						<masterclipid>masterclip-345</masterclipid>
						<name>NATURLIG HELAFTEN ny seervideokommentar.WAV</name>
						<enabled>TRUE</enabled>
						<duration>13249</duration>
						<rate>
							<timebase>25</timebase>
							<ntsc>FALSE</ntsc>
						</rate>
						<start>61787</start>
						<end>61852</end>
						<in>9776</in>
						<out>9841</out>
						<pproTicksIn>99330416640000</pproTicksIn>
						<pproTicksOut>99990858240000</pproTicksOut>
						<file id="file-345"/>
						<sourcetrack>
							<mediatype>audio</mediatype>
							<trackindex>2</trackindex>
						</sourcetrack>
						<link>
							<linkclipref>clipitem-1611</linkclipref>
							<mediatype>audio</mediatype>
							<trackindex>20</trackindex>
							<clipindex>30</clipindex>
							<groupindex>1</groupindex>
						</link>
						<link>
							<linkclipref>clipitem-1651</linkclipref>
							<mediatype>audio</mediatype>
							<trackindex>21</trackindex>
							<clipindex>30</clipindex>
							<groupindex>1</groupindex>
						</link>
						<logginginfo>
							<description></description>
							<scene></scene>
							<shottake></shottake>
							<lognote></lognote>
						</logginginfo>
						<labels>
							<label2>Iris</label2>
						</labels>
					</clipitem>
					<clipitem id="clipitem-1652" premiereChannelType="stereo">
						<masterclipid>masterclip-345</masterclipid>
						<name>NATURLIG HELAFTEN ny seervideokommentar.WAV</name>
						<enabled>TRUE</enabled>
						<duration>13249</duration>
						<rate>
							<timebase>25</timebase>
							<ntsc>FALSE</ntsc>
						</rate>
						<start>62035</start>
						<end>62215</end>
						<in>9849</in>
						<out>10029</out>
						<pproTicksIn>100072143360000</pproTicksIn>
						<pproTicksOut>101901058560000</pproTicksOut>
						<file id="file-345"/>
						<sourcetrack>
							<mediatype>audio</mediatype>
							<trackindex>2</trackindex>
						</sourcetrack>
						<link>
							<linkclipref>clipitem-1612</linkclipref>
							<mediatype>audio</mediatype>
							<trackindex>20</trackindex>
							<clipindex>31</clipindex>
							<groupindex>1</groupindex>
						</link>
						<link>
							<linkclipref>clipitem-1652</linkclipref>
							<mediatype>audio</mediatype>
							<trackindex>21</trackindex>
							<clipindex>31</clipindex>
							<groupindex>1</groupindex>
						</link>
						<logginginfo>
							<description></description>
							<scene></scene>
							<shottake></shottake>
							<lognote></lognote>
						</logginginfo>
						<labels>
							<label2>Iris</label2>
						</labels>
					</clipitem>
					<clipitem id="clipitem-1653" premiereChannelType="stereo">
						<masterclipid>masterclip-345</masterclipid>
						<name>NATURLIG HELAFTEN ny seervideokommentar.WAV</name>
						<enabled>TRUE</enabled>
						<duration>13249</duration>
						<rate>
							<timebase>25</timebase>
							<ntsc>FALSE</ntsc>
						</rate>
						<start>62427</start>
						<end>62574</end>
						<in>11646</in>
						<out>11793</out>
						<pproTicksIn>118330813440000</pproTicksIn>
						<pproTicksOut>119824427520000</pproTicksOut>
						<file id="file-345"/>
						<sourcetrack>
							<mediatype>audio</mediatype>
							<trackindex>2</trackindex>
						</sourcetrack>
						<link>
							<linkclipref>clipitem-1613</linkclipref>
							<mediatype>audio</mediatype>
							<trackindex>20</trackindex>
							<clipindex>32</clipindex>
							<groupindex>1</groupindex>
						</link>
						<link>
							<linkclipref>clipitem-1653</linkclipref>
							<mediatype>audio</mediatype>
							<trackindex>21</trackindex>
							<clipindex>32</clipindex>
							<groupindex>1</groupindex>
						</link>
						<logginginfo>
							<description></description>
							<scene></scene>
							<shottake></shottake>
							<lognote></lognote>
						</logginginfo>
						<labels>
							<label2>Iris</label2>
						</labels>
					</clipitem>
					<clipitem id="clipitem-1654" premiereChannelType="stereo">
						<masterclipid>masterclip-345</masterclipid>
						<name>NATURLIG HELAFTEN ny seervideokommentar.WAV</name>
						<enabled>TRUE</enabled>
						<duration>13249</duration>
						<rate>
							<timebase>25</timebase>
							<ntsc>FALSE</ntsc>
						</rate>
						<start>62598</start>
						<end>62804</end>
						<in>11816</in>
						<out>12022</out>
						<pproTicksIn>120058122240000</pproTicksIn>
						<pproTicksOut>122151214080000</pproTicksOut>
						<file id="file-345"/>
						<sourcetrack>
							<mediatype>audio</mediatype>
							<trackindex>2</trackindex>
						</sourcetrack>
						<link>
							<linkclipref>clipitem-1614</linkclipref>
							<mediatype>audio</mediatype>
							<trackindex>20</trackindex>
							<clipindex>33</clipindex>
							<groupindex>1</groupindex>
						</link>
						<link>
							<linkclipref>clipitem-1654</linkclipref>
							<mediatype>audio</mediatype>
							<trackindex>21</trackindex>
							<clipindex>33</clipindex>
							<groupindex>1</groupindex>
						</link>
						<logginginfo>
							<description></description>
							<scene></scene>
							<shottake></shottake>
							<lognote></lognote>
						</logginginfo>
						<labels>
							<label2>Iris</label2>
						</labels>
					</clipitem>
					<clipitem id="clipitem-1655" premiereChannelType="stereo">
						<masterclipid>masterclip-345</masterclipid>
						<name>NATURLIG HELAFTEN ny seervideokommentar.WAV</name>
						<enabled>TRUE</enabled>
						<duration>13249</duration>
						<rate>
							<timebase>25</timebase>
							<ntsc>FALSE</ntsc>
						</rate>
						<start>62830</start>
						<end>62953</end>
						<in>12113</in>
						<out>12236</out>
						<pproTicksIn>123075832320000</pproTicksIn>
						<pproTicksOut>124325591040000</pproTicksOut>
						<file id="file-345"/>
						<sourcetrack>
							<mediatype>audio</mediatype>
							<trackindex>2</trackindex>
						</sourcetrack>
						<link>
							<linkclipref>clipitem-1615</linkclipref>
							<mediatype>audio</mediatype>
							<trackindex>20</trackindex>
							<clipindex>34</clipindex>
							<groupindex>1</groupindex>
						</link>
						<link>
							<linkclipref>clipitem-1655</linkclipref>
							<mediatype>audio</mediatype>
							<trackindex>21</trackindex>
							<clipindex>34</clipindex>
							<groupindex>1</groupindex>
						</link>
						<logginginfo>
							<description></description>
							<scene></scene>
							<shottake></shottake>
							<lognote></lognote>
						</logginginfo>
						<labels>
							<label2>Iris</label2>
						</labels>
					</clipitem>
					<clipitem id="clipitem-1656" premiereChannelType="stereo">
						<masterclipid>masterclip-345</masterclipid>
						<name>NATURLIG HELAFTEN ny seervideokommentar.WAV</name>
						<enabled>TRUE</enabled>
						<duration>13249</duration>
						<rate>
							<timebase>25</timebase>
							<ntsc>FALSE</ntsc>
						</rate>
						<start>62973</start>
						<end>63107</end>
						<in>12236</in>
						<out>12370</out>
						<pproTicksIn>124325591040000</pproTicksIn>
						<pproTicksOut>125687116800000</pproTicksOut>
						<file id="file-345"/>
						<sourcetrack>
							<mediatype>audio</mediatype>
							<trackindex>2</trackindex>
						</sourcetrack>
						<link>
							<linkclipref>clipitem-1616</linkclipref>
							<mediatype>audio</mediatype>
							<trackindex>20</trackindex>
							<clipindex>35</clipindex>
							<groupindex>1</groupindex>
						</link>
						<link>
							<linkclipref>clipitem-1656</linkclipref>
							<mediatype>audio</mediatype>
							<trackindex>21</trackindex>
							<clipindex>35</clipindex>
							<groupindex>1</groupindex>
						</link>
						<logginginfo>
							<description></description>
							<scene></scene>
							<shottake></shottake>
							<lognote></lognote>
						</logginginfo>
						<labels>
							<label2>Iris</label2>
						</labels>
					</clipitem>
					<clipitem id="clipitem-1657" premiereChannelType="stereo">
						<masterclipid>masterclip-345</masterclipid>
						<name>NATURLIG HELAFTEN ny seervideokommentar.WAV</name>
						<enabled>TRUE</enabled>
						<duration>13249</duration>
						<rate>
							<timebase>25</timebase>
							<ntsc>FALSE</ntsc>
						</rate>
						<start>63151</start>
						<end>63256</end>
						<in>12370</in>
						<out>12475</out>
						<pproTicksIn>125687116800000</pproTicksIn>
						<pproTicksOut>126753984000000</pproTicksOut>
						<file id="file-345"/>
						<sourcetrack>
							<mediatype>audio</mediatype>
							<trackindex>2</trackindex>
						</sourcetrack>
						<link>
							<linkclipref>clipitem-1617</linkclipref>
							<mediatype>audio</mediatype>
							<trackindex>20</trackindex>
							<clipindex>36</clipindex>
							<groupindex>1</groupindex>
						</link>
						<link>
							<linkclipref>clipitem-1657</linkclipref>
							<mediatype>audio</mediatype>
							<trackindex>21</trackindex>
							<clipindex>36</clipindex>
							<groupindex>1</groupindex>
						</link>
						<logginginfo>
							<description></description>
							<scene></scene>
							<shottake></shottake>
							<lognote></lognote>
						</logginginfo>
						<labels>
							<label2>Iris</label2>
						</labels>
					</clipitem>
					<clipitem id="clipitem-1658" premiereChannelType="stereo">
						<masterclipid>masterclip-345</masterclipid>
						<name>NATURLIG HELAFTEN ny seervideokommentar.WAV</name>
						<enabled>TRUE</enabled>
						<duration>13249</duration>
						<rate>
							<timebase>25</timebase>
							<ntsc>FALSE</ntsc>
						</rate>
						<start>63292</start>
						<end>63523</end>
						<in>12475</in>
						<out>12706</out>
						<pproTicksIn>126753984000000</pproTicksIn>
						<pproTicksOut>129101091840000</pproTicksOut>
						<file id="file-345"/>
						<sourcetrack>
							<mediatype>audio</mediatype>
							<trackindex>2</trackindex>
						</sourcetrack>
						<link>
							<linkclipref>clipitem-1618</linkclipref>
							<mediatype>audio</mediatype>
							<trackindex>20</trackindex>
							<clipindex>37</clipindex>
							<groupindex>1</groupindex>
						</link>
						<link>
							<linkclipref>clipitem-1658</linkclipref>
							<mediatype>audio</mediatype>
							<trackindex>21</trackindex>
							<clipindex>37</clipindex>
							<groupindex>1</groupindex>
						</link>
						<logginginfo>
							<description></description>
							<scene></scene>
							<shottake></shottake>
							<lognote></lognote>
						</logginginfo>
						<labels>
							<label2>Iris</label2>
						</labels>
					</clipitem>
					<clipitem id="clipitem-1659" premiereChannelType="stereo">
						<masterclipid>masterclip-345</masterclipid>
						<name>NATURLIG HELAFTEN ny seervideokommentar.WAV</name>
						<enabled>TRUE</enabled>
						<duration>13249</duration>
						<rate>
							<timebase>25</timebase>
							<ntsc>FALSE</ntsc>
						</rate>
						<start>63566</start>
						<end>63739</end>
						<in>12733</in>
						<out>12906</out>
						<pproTicksIn>129375429120000</pproTicksIn>
						<pproTicksOut>131133219840000</pproTicksOut>
						<file id="file-345"/>
						<sourcetrack>
							<mediatype>audio</mediatype>
							<trackindex>2</trackindex>
						</sourcetrack>
						<link>
							<linkclipref>clipitem-1619</linkclipref>
							<mediatype>audio</mediatype>
							<trackindex>20</trackindex>
							<clipindex>38</clipindex>
							<groupindex>1</groupindex>
						</link>
						<link>
							<linkclipref>clipitem-1659</linkclipref>
							<mediatype>audio</mediatype>
							<trackindex>21</trackindex>
							<clipindex>38</clipindex>
							<groupindex>1</groupindex>
						</link>
						<logginginfo>
							<description></description>
							<scene></scene>
							<shottake></shottake>
							<lognote></lognote>
						</logginginfo>
						<labels>
							<label2>Iris</label2>
						</labels>
					</clipitem>
					<clipitem id="clipitem-1660" premiereChannelType="stereo">
						<masterclipid>masterclip-345</masterclipid>
						<name>NATURLIG HELAFTEN ny seervideokommentar.WAV</name>
						<enabled>TRUE</enabled>
						<duration>13249</duration>
						<rate>
							<timebase>25</timebase>
							<ntsc>FALSE</ntsc>
						</rate>
						<start>63771</start>
						<end>64005</end>
						<in>12906</in>
						<out>13140</out>
						<pproTicksIn>131133219840000</pproTicksIn>
						<pproTicksOut>133510809600000</pproTicksOut>
						<file id="file-345"/>
						<sourcetrack>
							<mediatype>audio</mediatype>
							<trackindex>2</trackindex>
						</sourcetrack>
						<link>
							<linkclipref>clipitem-1620</linkclipref>
							<mediatype>audio</mediatype>
							<trackindex>20</trackindex>
							<clipindex>39</clipindex>
							<groupindex>1</groupindex>
						</link>
						<link>
							<linkclipref>clipitem-1660</linkclipref>
							<mediatype>audio</mediatype>
							<trackindex>21</trackindex>
							<clipindex>39</clipindex>
							<groupindex>1</groupindex>
						</link>
						<logginginfo>
							<description></description>
							<scene></scene>
							<shottake></shottake>
							<lognote></lognote>
						</logginginfo>
						<labels>
							<label2>Iris</label2>
						</labels>
					</clipitem>
					<clipitem id="clipitem-1661" premiereChannelType="stereo">
						<masterclipid>masterclip-345</masterclipid>
						<name>NATURLIG HELAFTEN ny seervideokommentar.WAV</name>
						<enabled>TRUE</enabled>
						<duration>13249</duration>
						<rate>
							<timebase>25</timebase>
							<ntsc>FALSE</ntsc>
						</rate>
						<start>64005</start>
						<end>64006</end>
						<in>13154</in>
						<out>13155</out>
						<pproTicksIn>133653058560000</pproTicksIn>
						<pproTicksOut>133663219200000</pproTicksOut>
						<file id="file-345"/>
						<sourcetrack>
							<mediatype>audio</mediatype>
							<trackindex>2</trackindex>
						</sourcetrack>
						<link>
							<linkclipref>clipitem-1621</linkclipref>
							<mediatype>audio</mediatype>
							<trackindex>20</trackindex>
							<clipindex>40</clipindex>
							<groupindex>1</groupindex>
						</link>
						<link>
							<linkclipref>clipitem-1661</linkclipref>
							<mediatype>audio</mediatype>
							<trackindex>21</trackindex>
							<clipindex>40</clipindex>
							<groupindex>1</groupindex>
						</link>
						<logginginfo>
							<description></description>
							<scene></scene>
							<shottake></shottake>
							<lognote></lognote>
						</logginginfo>
						<labels>
							<label2>Iris</label2>
						</labels>
					</clipitem>
					<enabled>TRUE</enabled>
					<locked>FALSE</locked>
					<outputchannelindex>2</outputchannelindex>
				</track>
				<track TL.SQTrackAudioKeyframeStyle="0" TL.SQTrackShy="0" TL.SQTrackExpandedHeight="58" TL.SQTrackExpanded="1" MZ.TrackTargeted="0" PannerCurrentValue="0.5" PannerIsInverted="true" PannerStartKeyframe="-91445760000000000,0.5,0,0,0,0,0,0" PannerName="Balance" currentExplodedTrackIndex="0" totalExplodedTrackCount="2" premiereTrackType="Stereo">
					<clipitem id="clipitem-1662" premiereChannelType="stereo">
						<masterclipid>masterclip-312</masterclipid>
						<name>Ut i naturen 1 Drifter I-lyd.wav</name>
						<enabled>TRUE</enabled>
						<duration>58414</duration>
						<rate>
							<timebase>25</timebase>
							<ntsc>FALSE</ntsc>
						</rate>
						<start>7130</start>
						<end>7194</end>
						<in>26605</in>
						<out>26669</out>
						<pproTicksIn>270323827200000</pproTicksIn>
						<pproTicksOut>270974108160000</pproTicksOut>
						<file id="file-312"/>
						<sourcetrack>
							<mediatype>audio</mediatype>
							<trackindex>1</trackindex>
						</sourcetrack>
							<filter>
								<effect>
									<name>Audio Levels</name>
									<effectid>audiolevels</effectid>
									<effectcategory>audiolevels</effectcategory>
									<effecttype>audiolevels</effecttype>
									<mediatype>audio</mediatype>
									<parameter authoringApp="PremierePro">
										<parameterid>level</parameterid>
										<name>Level</name>
										<valuemin>0</valuemin>
										<valuemax>3.98109</valuemax>
										<value>0</value>
										<keyframe>
											<when>26526</when>
											<value>0</value>
										</keyframe>
										<keyframe>
											<when>26572</when>
											<value>0.99763</value>
										</keyframe>
									</parameter>
								</effect>
							</filter>
						<link>
							<linkclipref>clipitem-1662</linkclipref>
							<mediatype>audio</mediatype>
							<trackindex>22</trackindex>
							<clipindex>1</clipindex>
							<groupindex>1</groupindex>
						</link>
						<link>
							<linkclipref>clipitem-1666</linkclipref>
							<mediatype>audio</mediatype>
							<trackindex>23</trackindex>
							<clipindex>1</clipindex>
							<groupindex>1</groupindex>
						</link>
						<logginginfo>
							<description></description>
							<scene></scene>
							<shottake></shottake>
							<lognote></lognote>
						</logginginfo>
						<labels>
							<label2>Iris</label2>
						</labels>
					</clipitem>
					<clipitem id="clipitem-1663" premiereChannelType="stereo">
						<masterclipid>masterclip-312</masterclipid>
						<name>Ut i naturen 1 Drifter I-lyd.wav</name>
						<enabled>TRUE</enabled>
						<duration>58414</duration>
						<rate>
							<timebase>25</timebase>
							<ntsc>FALSE</ntsc>
						</rate>
						<start>7194</start>
						<end>-1</end>
						<in>26783</in>
						<out>28493</out>
						<pproTicksIn>272132421120000</pproTicksIn>
						<pproTicksOut>289507115520000</pproTicksOut>
						<file id="file-312"/>
						<sourcetrack>
							<mediatype>audio</mediatype>
							<trackindex>1</trackindex>
						</sourcetrack>
						<link>
							<linkclipref>clipitem-1663</linkclipref>
							<mediatype>audio</mediatype>
							<trackindex>22</trackindex>
							<clipindex>2</clipindex>
							<groupindex>1</groupindex>
						</link>
						<link>
							<linkclipref>clipitem-1667</linkclipref>
							<mediatype>audio</mediatype>
							<trackindex>23</trackindex>
							<clipindex>2</clipindex>
							<groupindex>1</groupindex>
						</link>
						<logginginfo>
							<description></description>
							<scene></scene>
							<shottake></shottake>
							<lognote></lognote>
						</logginginfo>
						<labels>
							<label2>Iris</label2>
						</labels>
					</clipitem>
					<transitionitem>
						<start>8891</start>
						<end>8904</end>
						<alignment>end-black</alignment>
						<cutPointTicks>132088320000</cutPointTicks>
						<rate>
							<timebase>25</timebase>
							<ntsc>FALSE</ntsc>
						</rate>
						<effect>
							<name>Cross Fade (+3dB)</name>
							<effectid>KGAudioTransCrossFade3dB</effectid>
							<effecttype>transition</effecttype>
							<mediatype>audio</mediatype>
							<wipecode>0</wipecode>
							<wipeaccuracy>100</wipeaccuracy>
							<startratio>0</startratio>
							<endratio>1</endratio>
							<reverse>FALSE</reverse>
						</effect>
					</transitionitem>
					<clipitem id="clipitem-1664" premiereChannelType="stereo">
						<masterclipid>masterclip-317</masterclipid>
						<name>Ut i naturen 2 Sanser I-lyd uten musikk.wav</name>
						<enabled>TRUE</enabled>
						<duration>58727</duration>
						<rate>
							<timebase>25</timebase>
							<ntsc>FALSE</ntsc>
						</rate>
						<start>16475</start>
						<end>18048</end>
						<in>7363</in>
						<out>8936</out>
						<pproTicksIn>74812792320000</pproTicksIn>
						<pproTicksOut>90795479040000</pproTicksOut>
						<file id="file-317"/>
						<sourcetrack>
							<mediatype>audio</mediatype>
							<trackindex>1</trackindex>
						</sourcetrack>
							<filter>
								<effect>
									<name>Audio Levels</name>
									<effectid>audiolevels</effectid>
									<effectcategory>audiolevels</effectcategory>
									<effecttype>audiolevels</effecttype>
									<mediatype>audio</mediatype>
									<parameter authoringApp="PremierePro">
										<parameterid>level</parameterid>
										<name>Level</name>
										<valuemin>0</valuemin>
										<valuemax>3.98109</valuemax>
										<value>1.06414</value>
									</parameter>
								</effect>
							</filter>
						<link>
							<linkclipref>clipitem-1664</linkclipref>
							<mediatype>audio</mediatype>
							<trackindex>22</trackindex>
							<clipindex>4</clipindex>
							<groupindex>1</groupindex>
						</link>
						<link>
							<linkclipref>clipitem-1668</linkclipref>
							<mediatype>audio</mediatype>
							<trackindex>23</trackindex>
							<clipindex>4</clipindex>
							<groupindex>1</groupindex>
						</link>
						<logginginfo>
							<description></description>
							<scene></scene>
							<shottake></shottake>
							<lognote></lognote>
						</logginginfo>
						<labels>
							<label2>Iris</label2>
						</labels>
					</clipitem>
					<transitionitem>
						<start>18079</start>
						<end>18092</end>
						<alignment>start-black</alignment>
						<cutPointTicks>0</cutPointTicks>
						<rate>
							<timebase>25</timebase>
							<ntsc>FALSE</ntsc>
						</rate>
						<effect>
							<name>Cross Fade (+3dB)</name>
							<effectid>KGAudioTransCrossFade3dB</effectid>
							<effecttype>transition</effecttype>
							<mediatype>audio</mediatype>
							<wipecode>0</wipecode>
							<wipeaccuracy>100</wipeaccuracy>
							<startratio>0</startratio>
							<endratio>1</endratio>
							<reverse>FALSE</reverse>
						</effect>
					</transitionitem>
					<clipitem id="clipitem-1665" premiereChannelType="stereo">
						<masterclipid>masterclip-317</masterclipid>
						<name>Ut i naturen 2 Sanser I-lyd uten musikk.wav</name>
						<enabled>TRUE</enabled>
						<duration>58727</duration>
						<rate>
							<timebase>25</timebase>
							<ntsc>FALSE</ntsc>
						</rate>
						<start>-1</start>
						<end>19588</end>
						<in>31137</in>
						<out>32646</out>
						<pproTicksIn>316371847680000</pproTicksIn>
						<pproTicksOut>331704253440000</pproTicksOut>
						<file id="file-317"/>
						<sourcetrack>
							<mediatype>audio</mediatype>
							<trackindex>1</trackindex>
						</sourcetrack>
						<link>
							<linkclipref>clipitem-1665</linkclipref>
							<mediatype>audio</mediatype>
							<trackindex>22</trackindex>
							<clipindex>6</clipindex>
							<groupindex>1</groupindex>
						</link>
						<link>
							<linkclipref>clipitem-1669</linkclipref>
							<mediatype>audio</mediatype>
							<trackindex>23</trackindex>
							<clipindex>6</clipindex>
							<groupindex>1</groupindex>
						</link>
						<logginginfo>
							<description></description>
							<scene></scene>
							<shottake></shottake>
							<lognote></lognote>
						</logginginfo>
						<labels>
							<label2>Iris</label2>
						</labels>
					</clipitem>
					<enabled>FALSE</enabled>
					<locked>FALSE</locked>
					<outputchannelindex>1</outputchannelindex>
				</track>
				<track TL.SQTrackAudioKeyframeStyle="0" TL.SQTrackShy="0" TL.SQTrackExpandedHeight="58" TL.SQTrackExpanded="1" MZ.TrackTargeted="0" PannerCurrentValue="0.5" PannerIsInverted="true" PannerStartKeyframe="-91445760000000000,0.5,0,0,0,0,0,0" PannerName="Balance" currentExplodedTrackIndex="1" totalExplodedTrackCount="2" premiereTrackType="Stereo">
					<clipitem id="clipitem-1666" premiereChannelType="stereo">
						<masterclipid>masterclip-312</masterclipid>
						<name>Ut i naturen 1 Drifter I-lyd.wav</name>
						<enabled>TRUE</enabled>
						<duration>58414</duration>
						<rate>
							<timebase>25</timebase>
							<ntsc>FALSE</ntsc>
						</rate>
						<start>7130</start>
						<end>7194</end>
						<in>26605</in>
						<out>26669</out>
						<pproTicksIn>270323827200000</pproTicksIn>
						<pproTicksOut>270974108160000</pproTicksOut>
						<file id="file-312"/>
						<sourcetrack>
							<mediatype>audio</mediatype>
							<trackindex>2</trackindex>
						</sourcetrack>
							<filter>
								<effect>
									<name>Audio Levels</name>
									<effectid>audiolevels</effectid>
									<effectcategory>audiolevels</effectcategory>
									<effecttype>audiolevels</effecttype>
									<mediatype>audio</mediatype>
									<parameter authoringApp="PremierePro">
										<parameterid>level</parameterid>
										<name>Level</name>
										<valuemin>0</valuemin>
										<valuemax>3.98109</valuemax>
										<value>0</value>
										<keyframe>
											<when>26526</when>
											<value>0</value>
										</keyframe>
										<keyframe>
											<when>26572</when>
											<value>0.99763</value>
										</keyframe>
									</parameter>
								</effect>
							</filter>
						<link>
							<linkclipref>clipitem-1662</linkclipref>
							<mediatype>audio</mediatype>
							<trackindex>22</trackindex>
							<clipindex>1</clipindex>
							<groupindex>1</groupindex>
						</link>
						<link>
							<linkclipref>clipitem-1666</linkclipref>
							<mediatype>audio</mediatype>
							<trackindex>23</trackindex>
							<clipindex>1</clipindex>
							<groupindex>1</groupindex>
						</link>
						<logginginfo>
							<description></description>
							<scene></scene>
							<shottake></shottake>
							<lognote></lognote>
						</logginginfo>
						<labels>
							<label2>Iris</label2>
						</labels>
					</clipitem>
					<clipitem id="clipitem-1667" premiereChannelType="stereo">
						<masterclipid>masterclip-312</masterclipid>
						<name>Ut i naturen 1 Drifter I-lyd.wav</name>
						<enabled>TRUE</enabled>
						<duration>58414</duration>
						<rate>
							<timebase>25</timebase>
							<ntsc>FALSE</ntsc>
						</rate>
						<start>7194</start>
						<end>-1</end>
						<in>26783</in>
						<out>28493</out>
						<pproTicksIn>272132421120000</pproTicksIn>
						<pproTicksOut>289507115520000</pproTicksOut>
						<file id="file-312"/>
						<sourcetrack>
							<mediatype>audio</mediatype>
							<trackindex>2</trackindex>
						</sourcetrack>
						<link>
							<linkclipref>clipitem-1663</linkclipref>
							<mediatype>audio</mediatype>
							<trackindex>22</trackindex>
							<clipindex>2</clipindex>
							<groupindex>1</groupindex>
						</link>
						<link>
							<linkclipref>clipitem-1667</linkclipref>
							<mediatype>audio</mediatype>
							<trackindex>23</trackindex>
							<clipindex>2</clipindex>
							<groupindex>1</groupindex>
						</link>
						<logginginfo>
							<description></description>
							<scene></scene>
							<shottake></shottake>
							<lognote></lognote>
						</logginginfo>
						<labels>
							<label2>Iris</label2>
						</labels>
					</clipitem>
					<transitionitem>
						<start>8891</start>
						<end>8904</end>
						<alignment>end-black</alignment>
						<cutPointTicks>132088320000</cutPointTicks>
						<rate>
							<timebase>25</timebase>
							<ntsc>FALSE</ntsc>
						</rate>
						<effect>
							<name>Cross Fade (+3dB)</name>
							<effectid>KGAudioTransCrossFade3dB</effectid>
							<effecttype>transition</effecttype>
							<mediatype>audio</mediatype>
							<wipecode>0</wipecode>
							<wipeaccuracy>100</wipeaccuracy>
							<startratio>0</startratio>
							<endratio>1</endratio>
							<reverse>FALSE</reverse>
						</effect>
					</transitionitem>
					<clipitem id="clipitem-1668" premiereChannelType="stereo">
						<masterclipid>masterclip-317</masterclipid>
						<name>Ut i naturen 2 Sanser I-lyd uten musikk.wav</name>
						<enabled>TRUE</enabled>
						<duration>58727</duration>
						<rate>
							<timebase>25</timebase>
							<ntsc>FALSE</ntsc>
						</rate>
						<start>16475</start>
						<end>18048</end>
						<in>7363</in>
						<out>8936</out>
						<pproTicksIn>74812792320000</pproTicksIn>
						<pproTicksOut>90795479040000</pproTicksOut>
						<file id="file-317"/>
						<sourcetrack>
							<mediatype>audio</mediatype>
							<trackindex>2</trackindex>
						</sourcetrack>
							<filter>
								<effect>
									<name>Audio Levels</name>
									<effectid>audiolevels</effectid>
									<effectcategory>audiolevels</effectcategory>
									<effecttype>audiolevels</effecttype>
									<mediatype>audio</mediatype>
									<parameter authoringApp="PremierePro">
										<parameterid>level</parameterid>
										<name>Level</name>
										<valuemin>0</valuemin>
										<valuemax>3.98109</valuemax>
										<value>1.06414</value>
									</parameter>
								</effect>
							</filter>
						<link>
							<linkclipref>clipitem-1664</linkclipref>
							<mediatype>audio</mediatype>
							<trackindex>22</trackindex>
							<clipindex>4</clipindex>
							<groupindex>1</groupindex>
						</link>
						<link>
							<linkclipref>clipitem-1668</linkclipref>
							<mediatype>audio</mediatype>
							<trackindex>23</trackindex>
							<clipindex>4</clipindex>
							<groupindex>1</groupindex>
						</link>
						<logginginfo>
							<description></description>
							<scene></scene>
							<shottake></shottake>
							<lognote></lognote>
						</logginginfo>
						<labels>
							<label2>Iris</label2>
						</labels>
					</clipitem>
					<transitionitem>
						<start>18079</start>
						<end>18092</end>
						<alignment>start-black</alignment>
						<cutPointTicks>0</cutPointTicks>
						<rate>
							<timebase>25</timebase>
							<ntsc>FALSE</ntsc>
						</rate>
						<effect>
							<name>Cross Fade (+3dB)</name>
							<effectid>KGAudioTransCrossFade3dB</effectid>
							<effecttype>transition</effecttype>
							<mediatype>audio</mediatype>
							<wipecode>0</wipecode>
							<wipeaccuracy>100</wipeaccuracy>
							<startratio>0</startratio>
							<endratio>1</endratio>
							<reverse>FALSE</reverse>
						</effect>
					</transitionitem>
					<clipitem id="clipitem-1669" premiereChannelType="stereo">
						<masterclipid>masterclip-317</masterclipid>
						<name>Ut i naturen 2 Sanser I-lyd uten musikk.wav</name>
						<enabled>TRUE</enabled>
						<duration>58727</duration>
						<rate>
							<timebase>25</timebase>
							<ntsc>FALSE</ntsc>
						</rate>
						<start>-1</start>
						<end>19588</end>
						<in>31137</in>
						<out>32646</out>
						<pproTicksIn>316371847680000</pproTicksIn>
						<pproTicksOut>331704253440000</pproTicksOut>
						<file id="file-317"/>
						<sourcetrack>
							<mediatype>audio</mediatype>
							<trackindex>2</trackindex>
						</sourcetrack>
						<link>
							<linkclipref>clipitem-1665</linkclipref>
							<mediatype>audio</mediatype>
							<trackindex>22</trackindex>
							<clipindex>6</clipindex>
							<groupindex>1</groupindex>
						</link>
						<link>
							<linkclipref>clipitem-1669</linkclipref>
							<mediatype>audio</mediatype>
							<trackindex>23</trackindex>
							<clipindex>6</clipindex>
							<groupindex>1</groupindex>
						</link>
						<logginginfo>
							<description></description>
							<scene></scene>
							<shottake></shottake>
							<lognote></lognote>
						</logginginfo>
						<labels>
							<label2>Iris</label2>
						</labels>
					</clipitem>
					<enabled>FALSE</enabled>
					<locked>FALSE</locked>
					<outputchannelindex>2</outputchannelindex>
				</track>
			</audio>
		</media>
		<timecode>
			<rate>
				<timebase>25</timebase>
				<ntsc>FALSE</ntsc>
			</rate>
			<string>00:00:00:00</string>
			<frame>0</frame>
			<displayformat>NDF</displayformat>
		</timecode>
			<marker>
				<comment></comment>
				<name></name>
				<in>26023</in>
				<out>-1</out>
			</marker>
			<marker>
				<comment></comment>
				<name></name>
				<in>62971</in>
				<out>-1</out>
			</marker>
		<labels>
			<label2>Forest</label2>
		</labels>
	</sequence>
</xmeml>
