<?xml version="1.0" encoding="UTF-8"?>
<!DOCTYPE xmeml>
<!-- FCP version 1.0.9.7 -->
<xmeml version="3">
  <project>
    <name>Icebreaker-døvetolk</name>
    <children>
      <bin>
        <name>Source Clips</name>
        <children>
          <clip id="Icebrareaker-døv_p1">
            <name>Icebrareaker-døv_p1</name>
            <duration>1088</duration>
            <rate>
              <ntsc>False</ntsc>
              <timebase>25</timebase>
            </rate>
            <masterclipid>Icebrareaker-døv_p1</masterclipid>
            <ismasterclip>TRUE</ismasterclip>
            <logginginfo>
              <description>MUHU12000016AT</description>
              <lognote />
            </logginginfo>
            <comments>
              <mastercomment1>2016;CLIP;n12756;NYHETER;OPROBROWSER;OPROKEYFRAMES;OPROMGRID;WEEK09;</mastercomment1>
              <mastercomment2 />
              <mastercomment3 />
              <mastercomment4 />
            </comments>
            <media>
              <video>
                <track>
                  <clipitem>
                    <name>Icebrareaker-døv_p1</name>
                    <anamorphic>TRUE</anamorphic>
                  </clipitem>
                </track>
              </video>
            </media>
            <file id="Icebrareaker-døv_p11">
              <name>Icebrareaker-døv_p1</name>
              <pathurl>file://localhost/Volumes/omfs/clip.dir/MXF/1080i/Icebrareaker-d%C3%B8v_p1.mxf</pathurl>
              <timecode>
                <string>00:00:00:00</string>
                <frame>0</frame>
                <displayformat>NDF</displayformat>
                <source>source</source>
              </timecode>
            </file>
          </clip>
        </children>
      </bin>
      <sequence>
        <name>Icebreaker-døvetolk</name>
        <duration>1088</duration>
        <rate>
          <ntsc>False</ntsc>
          <timebase>25</timebase>
        </rate>
        <media>
          <video>
            <track>
              <clipitem>
                <name>Icebrareaker-døv_p1</name>
                <duration>1088</duration>
                <rate>
                  <ntsc>False</ntsc>
                  <timebase>25</timebase>
                </rate>
                <in>0</in>
                <out>1088</out>
                <masterclipid>Icebrareaker-døv_p1</masterclipid>
                <start>0</start>
                <end>1088</end>
                <link>
                  <mediatype>video</mediatype>
                  <trackindex>1</trackindex>
                  <clipindex>1</clipindex>
                </link>
                <link>
                  <mediatype>audio</mediatype>
                  <trackindex>1</trackindex>
                  <clipindex>1</clipindex>
                  <groupindex>1</groupindex>
                </link>
                <link>
                  <mediatype>audio</mediatype>
                  <trackindex>2</trackindex>
                  <clipindex>1</clipindex>
                  <groupindex>1</groupindex>
                </link>
                <link>
                  <mediatype>audio</mediatype>
                  <trackindex>3</trackindex>
                  <clipindex>1</clipindex>
                  <groupindex>1</groupindex>
                </link>
                <link>
                  <mediatype>audio</mediatype>
                  <trackindex>4</trackindex>
                  <clipindex>1</clipindex>
                  <groupindex>1</groupindex>
                </link>
                <link>
                  <mediatype>audio</mediatype>
                  <trackindex>5</trackindex>
                  <clipindex>1</clipindex>
                  <groupindex>1</groupindex>
                </link>
                <link>
                  <mediatype>audio</mediatype>
                  <trackindex>6</trackindex>
                  <clipindex>1</clipindex>
                  <groupindex>1</groupindex>
                </link>
                <link>
                  <mediatype>audio</mediatype>
                  <trackindex>7</trackindex>
                  <clipindex>1</clipindex>
                  <groupindex>1</groupindex>
                </link>
                <link>
                  <mediatype>audio</mediatype>
                  <trackindex>8</trackindex>
                  <clipindex>1</clipindex>
                  <groupindex>1</groupindex>
                </link>
                <file id="Icebrareaker-døv_p11">
                  <name>Icebrareaker-døv_p1</name>
                  <pathurl>file://localhost/Volumes/omfs/clip.dir/MXF/1080i/Icebrareaker-d%C3%B8v_p1.mxf</pathurl>
                  <timecode>
                    <string>00:00:00:00</string>
                    <frame>0</frame>
                    <displayformat>NDF</displayformat>
                    <source>source</source>
                  </timecode>
                </file>
              </clipitem>
            </track>
          </video>
          <audio>
            <track>
              <clipitem>
                <name>Icebrareaker-døv_p1</name>
                <duration>1088</duration>
                <rate>
                  <ntsc>False</ntsc>
                  <timebase>25</timebase>
                </rate>
                <in>0</in>
                <out>1088</out>
                <masterclipid>Icebrareaker-døv_p1</masterclipid>
                <start>0</start>
                <end>1088</end>
                <sourcetrack>
                  <mediatype>audio</mediatype>
                  <trackindex>1</trackindex>
                </sourcetrack>
                <file id="Icebrareaker-døv_p11">
                  <name>Icebrareaker-døv_p1</name>
                  <pathurl>file://localhost/Volumes/omfs/clip.dir/MXF/1080i/Icebrareaker-d%C3%B8v_p1.mxf</pathurl>
                  <timecode>
                    <string>00:00:00:00</string>
                    <frame>0</frame>
                    <displayformat>NDF</displayformat>
                    <source>source</source>
                  </timecode>
                </file>
              </clipitem>
            </track>
            <track>
              <clipitem>
                <name>Icebrareaker-døv_p1</name>
                <duration>1088</duration>
                <rate>
                  <ntsc>False</ntsc>
                  <timebase>25</timebase>
                </rate>
                <in>0</in>
                <out>1088</out>
                <masterclipid>Icebrareaker-døv_p1</masterclipid>
                <start>0</start>
                <end>1088</end>
                <sourcetrack>
                  <mediatype>audio</mediatype>
                  <trackindex>2</trackindex>
                </sourcetrack>
                <file id="Icebrareaker-døv_p11">
                  <name>Icebrareaker-døv_p1</name>
                  <pathurl>file://localhost/Volumes/omfs/clip.dir/MXF/1080i/Icebrareaker-d%C3%B8v_p1.mxf</pathurl>
                  <timecode>
                    <string>00:00:00:00</string>
                    <frame>0</frame>
                    <displayformat>NDF</displayformat>
                    <source>source</source>
                  </timecode>
                </file>
              </clipitem>
            </track>
            <track>
              <clipitem>
                <name>Icebrareaker-døv_p1</name>
                <duration>1088</duration>
                <rate>
                  <ntsc>False</ntsc>
                  <timebase>25</timebase>
                </rate>
                <in>0</in>
                <out>1088</out>
                <masterclipid>Icebrareaker-døv_p1</masterclipid>
                <start>0</start>
                <end>1088</end>
                <sourcetrack>
                  <mediatype>audio</mediatype>
                  <trackindex>3</trackindex>
                </sourcetrack>
                <file id="Icebrareaker-døv_p11">
                  <name>Icebrareaker-døv_p1</name>
                  <pathurl>file://localhost/Volumes/omfs/clip.dir/MXF/1080i/Icebrareaker-d%C3%B8v_p1.mxf</pathurl>
                  <timecode>
                    <string>00:00:00:00</string>
                    <frame>0</frame>
                    <displayformat>NDF</displayformat>
                    <source>source</source>
                  </timecode>
                </file>
              </clipitem>
            </track>
            <track>
              <clipitem>
                <name>Icebrareaker-døv_p1</name>
                <duration>1088</duration>
                <rate>
                  <ntsc>False</ntsc>
                  <timebase>25</timebase>
                </rate>
                <in>0</in>
                <out>1088</out>
                <masterclipid>Icebrareaker-døv_p1</masterclipid>
                <start>0</start>
                <end>1088</end>
                <sourcetrack>
                  <mediatype>audio</mediatype>
                  <trackindex>4</trackindex>
                </sourcetrack>
                <file id="Icebrareaker-døv_p11">
                  <name>Icebrareaker-døv_p1</name>
                  <pathurl>file://localhost/Volumes/omfs/clip.dir/MXF/1080i/Icebrareaker-d%C3%B8v_p1.mxf</pathurl>
                  <timecode>
                    <string>00:00:00:00</string>
                    <frame>0</frame>
                    <displayformat>NDF</displayformat>
                    <source>source</source>
                  </timecode>
                </file>
              </clipitem>
            </track>
            <track>
              <clipitem>
                <name>Icebrareaker-døv_p1</name>
                <duration>1088</duration>
                <rate>
                  <ntsc>False</ntsc>
                  <timebase>25</timebase>
                </rate>
                <in>0</in>
                <out>1088</out>
                <masterclipid>Icebrareaker-døv_p1</masterclipid>
                <start>0</start>
                <end>1088</end>
                <sourcetrack>
                  <mediatype>audio</mediatype>
                  <trackindex>5</trackindex>
                </sourcetrack>
                <file id="Icebrareaker-døv_p11">
                  <name>Icebrareaker-døv_p1</name>
                  <pathurl>file://localhost/Volumes/omfs/clip.dir/MXF/1080i/Icebrareaker-d%C3%B8v_p1.mxf</pathurl>
                  <timecode>
                    <string>00:00:00:00</string>
                    <frame>0</frame>
                    <displayformat>NDF</displayformat>
                    <source>source</source>
                  </timecode>
                </file>
              </clipitem>
            </track>
            <track>
              <clipitem>
                <name>Icebrareaker-døv_p1</name>
                <duration>1088</duration>
                <rate>
                  <ntsc>False</ntsc>
                  <timebase>25</timebase>
                </rate>
                <in>0</in>
                <out>1088</out>
                <masterclipid>Icebrareaker-døv_p1</masterclipid>
                <start>0</start>
                <end>1088</end>
                <sourcetrack>
                  <mediatype>audio</mediatype>
                  <trackindex>6</trackindex>
                </sourcetrack>
                <file id="Icebrareaker-døv_p11">
                  <name>Icebrareaker-døv_p1</name>
                  <pathurl>file://localhost/Volumes/omfs/clip.dir/MXF/1080i/Icebrareaker-d%C3%B8v_p1.mxf</pathurl>
                  <timecode>
                    <string>00:00:00:00</string>
                    <frame>0</frame>
                    <displayformat>NDF</displayformat>
                    <source>source</source>
                  </timecode>
                </file>
              </clipitem>
            </track>
            <track>
              <clipitem>
                <name>Icebrareaker-døv_p1</name>
                <duration>1088</duration>
                <rate>
                  <ntsc>False</ntsc>
                  <timebase>25</timebase>
                </rate>
                <in>0</in>
                <out>1088</out>
                <masterclipid>Icebrareaker-døv_p1</masterclipid>
                <start>0</start>
                <end>1088</end>
                <sourcetrack>
                  <mediatype>audio</mediatype>
                  <trackindex>7</trackindex>
                </sourcetrack>
                <file id="Icebrareaker-døv_p11">
                  <name>Icebrareaker-døv_p1</name>
                  <pathurl>file://localhost/Volumes/omfs/clip.dir/MXF/1080i/Icebrareaker-d%C3%B8v_p1.mxf</pathurl>
                  <timecode>
                    <string>00:00:00:00</string>
                    <frame>0</frame>
                    <displayformat>NDF</displayformat>
                    <source>source</source>
                  </timecode>
                </file>
              </clipitem>
            </track>
            <track>
              <clipitem>
                <name>Icebrareaker-døv_p1</name>
                <duration>1088</duration>
                <rate>
                  <ntsc>False</ntsc>
                  <timebase>25</timebase>
                </rate>
                <in>0</in>
                <out>1088</out>
                <masterclipid>Icebrareaker-døv_p1</masterclipid>
                <start>0</start>
                <end>1088</end>
                <sourcetrack>
                  <mediatype>audio</mediatype>
                  <trackindex>8</trackindex>
                </sourcetrack>
                <file id="Icebrareaker-døv_p11">
                  <name>Icebrareaker-døv_p1</name>
                  <pathurl>file://localhost/Volumes/omfs/clip.dir/MXF/1080i/Icebrareaker-d%C3%B8v_p1.mxf</pathurl>
                  <timecode>
                    <string>00:00:00:00</string>
                    <frame>0</frame>
                    <displayformat>NDF</displayformat>
                    <source>source</source>
                  </timecode>
                </file>
              </clipitem>
            </track>
          </audio>
        </media>
      </sequence>
    </children>
  </project>
</xmeml>