<?xml version="1.0" encoding="UTF-8"?>
<!DOCTYPE xmeml>
<!-- FCP version 1.0.9.7 -->
<xmeml version="3">
  <project>
    <name>jrpa-ths-skvln-henrik5</name>
    <children>
      <bin>
        <name>Source Clips</name>
        <children>
          <clip id="SCHLADM-1OMG-280114-SP1900">
            <name>SCHLADM-1OMG-280114-SP1900</name>
            <duration>1724</duration>
            <rate>
              <ntsc>False</ntsc>
              <timebase>25</timebase>
            </rate>
            <masterclipid>SCHLADM-1OMG-280114-SP1900</masterclipid>
            <ismasterclip>TRUE</ismasterclip>
            <logginginfo>
              <description>Slal√•m Schladming</description>
              <lognote />
            </logginginfo>
            <comments>
              <mastercomment1>2016;CLIP;OPROBROWSER;oprog3app07;OPROMGRID;SPORT;WEEK10;</mastercomment1>
              <mastercomment2 />
              <mastercomment3 />
              <mastercomment4 />
            </comments>
            <media>
              <video>
                <track>
                  <clipitem>
                    <name>SCHLADM-1OMG-280114-SP1900</name>
                    <anamorphic>TRUE</anamorphic>
                  </clipitem>
                </track>
              </video>
            </media>
            <file id="SCHLADM-1OMG-280114-SP19001">
              <name>SCHLADM-1OMG-280114-SP1900</name>
              <pathurl>file://localhost/Volumes/omfs/clip.dir/MXF/576i/SCHLADM-1OMG-280114-SP1900.mxf</pathurl>
              <timecode>
                <string>00:00:00:00</string>
                <frame>0</frame>
                <displayformat>NDF</displayformat>
                <source>source</source>
              </timecode>
            </file>
          </clip>
          <clip id="jrpa-ths-skvln-henrik5_p0">
            <name>jrpa-ths-skvln-henrik5_p0</name>
            <duration>12181</duration>
            <rate>
              <ntsc>False</ntsc>
              <timebase>25</timebase>
            </rate>
            <masterclipid>jrpa-ths-skvln-henrik5_p0</masterclipid>
            <ismasterclip>TRUE</ismasterclip>
            <logginginfo>
              <description>MSPO40550214AH</description>
              <lognote />
            </logginginfo>
            <comments>
              <mastercomment1>2016;CLIP;NYHETER;OPROMGRID;Unknown;WEEK10;</mastercomment1>
              <mastercomment2 />
              <mastercomment3 />
              <mastercomment4 />
            </comments>
            <media>
              <video>
                <track>
                  <clipitem>
                    <name>jrpa-ths-skvln-henrik5_p0</name>
                    <anamorphic>TRUE</anamorphic>
                  </clipitem>
                </track>
              </video>
            </media>
            <file id="jrpa-ths-skvln-henrik5_p01">
              <name>jrpa-ths-skvln-henrik5_p0</name>
              <pathurl>file://localhost/Volumes/omfs/clip.dir/MXF/1080i/jrpa-ths-skvln-henrik5_p0.mxf</pathurl>
              <timecode>
                <string>00:00:00:00</string>
                <frame>0</frame>
                <displayformat>NDF</displayformat>
                <source>source</source>
              </timecode>
            </file>
          </clip>
          <clip id="jrpa-ths-skvln-henrik5_p1">
            <name>jrpa-ths-skvln-henrik5_p1</name>
            <duration>1983</duration>
            <rate>
              <ntsc>False</ntsc>
              <timebase>25</timebase>
            </rate>
            <masterclipid>jrpa-ths-skvln-henrik5_p1</masterclipid>
            <ismasterclip>TRUE</ismasterclip>
            <logginginfo>
              <description>NNFA19012814AH</description>
              <lognote />
            </logginginfo>
            <comments>
              <mastercomment1>2016;CLIP;NYHETER;OPROBROWSER;OPROMGRID;Unknown;WEEK10;</mastercomment1>
              <mastercomment2 />
              <mastercomment3 />
              <mastercomment4 />
            </comments>
            <media>
              <video>
                <track>
                  <clipitem>
                    <name>jrpa-ths-skvln-henrik5_p1</name>
                    <anamorphic>TRUE</anamorphic>
                  </clipitem>
                </track>
              </video>
            </media>
            <file id="jrpa-ths-skvln-henrik5_p11">
              <name>jrpa-ths-skvln-henrik5_p1</name>
              <pathurl>file://localhost/Volumes/omfs/clip.dir/MXF/1080i/jrpa-ths-skvln-henrik5_p1.mxf</pathurl>
              <timecode>
                <string>00:00:00:00</string>
                <frame>0</frame>
                <displayformat>NDF</displayformat>
                <source>source</source>
              </timecode>
            </file>
          </clip>
        </children>
      </bin>
      <sequence>
        <name>jrpa-ths-skvln-henrik5</name>
        <duration>15888</duration>
        <rate>
          <ntsc>False</ntsc>
          <timebase>25</timebase>
        </rate>
        <media>
          <video>
            <track>
              <clipitem>
                <name>SCHLADM-1OMG-280114-SP1900</name>
                <duration>1724</duration>
                <rate>
                  <ntsc>False</ntsc>
                  <timebase>25</timebase>
                </rate>
                <in>0</in>
                <out>1724</out>
                <masterclipid>SCHLADM-1OMG-280114-SP1900</masterclipid>
                <start>0</start>
                <end>1724</end>
                <link>
                  <mediatype>video</mediatype>
                  <trackindex>1</trackindex>
                  <clipindex>1</clipindex>
                </link>
                <link>
                  <mediatype>audio</mediatype>
                  <trackindex>1</trackindex>
                  <clipindex>1</clipindex>
                  <groupindex>1</groupindex>
                </link>
                <link>
                  <mediatype>audio</mediatype>
                  <trackindex>2</trackindex>
                  <clipindex>1</clipindex>
                  <groupindex>1</groupindex>
                </link>
                <link>
                  <mediatype>audio</mediatype>
                  <trackindex>3</trackindex>
                  <clipindex>1</clipindex>
                  <groupindex>1</groupindex>
                </link>
                <link>
                  <mediatype>audio</mediatype>
                  <trackindex>4</trackindex>
                  <clipindex>1</clipindex>
                  <groupindex>1</groupindex>
                </link>
                <link>
                  <mediatype>audio</mediatype>
                  <trackindex>5</trackindex>
                  <clipindex>1</clipindex>
                  <groupindex>1</groupindex>
                </link>
                <link>
                  <mediatype>audio</mediatype>
                  <trackindex>6</trackindex>
                  <clipindex>1</clipindex>
                  <groupindex>1</groupindex>
                </link>
                <link>
                  <mediatype>audio</mediatype>
                  <trackindex>7</trackindex>
                  <clipindex>1</clipindex>
                  <groupindex>1</groupindex>
                </link>
                <link>
                  <mediatype>audio</mediatype>
                  <trackindex>8</trackindex>
                  <clipindex>1</clipindex>
                  <groupindex>1</groupindex>
                </link>
                <file id="SCHLADM-1OMG-280114-SP19001">
                  <name>SCHLADM-1OMG-280114-SP1900</name>
                  <pathurl>file://localhost/Volumes/omfs/clip.dir/MXF/576i/SCHLADM-1OMG-280114-SP1900.mxf</pathurl>
                  <timecode>
                    <string>00:00:00:00</string>
                    <frame>0</frame>
                    <displayformat>NDF</displayformat>
                    <source>source</source>
                  </timecode>
                </file>
              </clipitem>
              <clipitem>
                <name>jrpa-ths-skvln-henrik5_p0</name>
                <duration>12181</duration>
                <rate>
                  <ntsc>False</ntsc>
                  <timebase>25</timebase>
                </rate>
                <in>0</in>
                <out>12181</out>
                <masterclipid>jrpa-ths-skvln-henrik5_p0</masterclipid>
                <start>1724</start>
                <end>13905</end>
                <link>
                  <mediatype>video</mediatype>
                  <trackindex>1</trackindex>
                  <clipindex>2</clipindex>
                </link>
                <link>
                  <mediatype>audio</mediatype>
                  <trackindex>1</trackindex>
                  <clipindex>2</clipindex>
                  <groupindex>1</groupindex>
                </link>
                <link>
                  <mediatype>audio</mediatype>
                  <trackindex>2</trackindex>
                  <clipindex>2</clipindex>
                  <groupindex>1</groupindex>
                </link>
                <link>
                  <mediatype>audio</mediatype>
                  <trackindex>3</trackindex>
                  <clipindex>2</clipindex>
                  <groupindex>1</groupindex>
                </link>
                <link>
                  <mediatype>audio</mediatype>
                  <trackindex>4</trackindex>
                  <clipindex>2</clipindex>
                  <groupindex>1</groupindex>
                </link>
                <link>
                  <mediatype>audio</mediatype>
                  <trackindex>5</trackindex>
                  <clipindex>2</clipindex>
                  <groupindex>1</groupindex>
                </link>
                <link>
                  <mediatype>audio</mediatype>
                  <trackindex>6</trackindex>
                  <clipindex>2</clipindex>
                  <groupindex>1</groupindex>
                </link>
                <link>
                  <mediatype>audio</mediatype>
                  <trackindex>7</trackindex>
                  <clipindex>2</clipindex>
                  <groupindex>1</groupindex>
                </link>
                <link>
                  <mediatype>audio</mediatype>
                  <trackindex>8</trackindex>
                  <clipindex>2</clipindex>
                  <groupindex>1</groupindex>
                </link>
                <file id="jrpa-ths-skvln-henrik5_p01">
                  <name>jrpa-ths-skvln-henrik5_p0</name>
                  <pathurl>file://localhost/Volumes/omfs/clip.dir/MXF/1080i/jrpa-ths-skvln-henrik5_p0.mxf</pathurl>
                  <timecode>
                    <string>00:00:00:00</string>
                    <frame>0</frame>
                    <displayformat>NDF</displayformat>
                    <source>source</source>
                  </timecode>
                </file>
              </clipitem>
              <clipitem>
                <name>jrpa-ths-skvln-henrik5_p1</name>
                <duration>1983</duration>
                <rate>
                  <ntsc>False</ntsc>
                  <timebase>25</timebase>
                </rate>
                <in>0</in>
                <out>1983</out>
                <masterclipid>jrpa-ths-skvln-henrik5_p1</masterclipid>
                <start>13905</start>
                <end>15888</end>
                <link>
                  <mediatype>video</mediatype>
                  <trackindex>1</trackindex>
                  <clipindex>3</clipindex>
                </link>
                <link>
                  <mediatype>audio</mediatype>
                  <trackindex>1</trackindex>
                  <clipindex>3</clipindex>
                  <groupindex>1</groupindex>
                </link>
                <link>
                  <mediatype>audio</mediatype>
                  <trackindex>2</trackindex>
                  <clipindex>3</clipindex>
                  <groupindex>1</groupindex>
                </link>
                <link>
                  <mediatype>audio</mediatype>
                  <trackindex>3</trackindex>
                  <clipindex>3</clipindex>
                  <groupindex>1</groupindex>
                </link>
                <link>
                  <mediatype>audio</mediatype>
                  <trackindex>4</trackindex>
                  <clipindex>3</clipindex>
                  <groupindex>1</groupindex>
                </link>
                <link>
                  <mediatype>audio</mediatype>
                  <trackindex>5</trackindex>
                  <clipindex>3</clipindex>
                  <groupindex>1</groupindex>
                </link>
                <link>
                  <mediatype>audio</mediatype>
                  <trackindex>6</trackindex>
                  <clipindex>3</clipindex>
                  <groupindex>1</groupindex>
                </link>
                <link>
                  <mediatype>audio</mediatype>
                  <trackindex>7</trackindex>
                  <clipindex>3</clipindex>
                  <groupindex>1</groupindex>
                </link>
                <link>
                  <mediatype>audio</mediatype>
                  <trackindex>8</trackindex>
                  <clipindex>3</clipindex>
                  <groupindex>1</groupindex>
                </link>
                <file id="jrpa-ths-skvln-henrik5_p11">
                  <name>jrpa-ths-skvln-henrik5_p1</name>
                  <pathurl>file://localhost/Volumes/omfs/clip.dir/MXF/1080i/jrpa-ths-skvln-henrik5_p1.mxf</pathurl>
                  <timecode>
                    <string>00:00:00:00</string>
                    <frame>0</frame>
                    <displayformat>NDF</displayformat>
                    <source>source</source>
                  </timecode>
                </file>
              </clipitem>
            </track>
          </video>
          <audio>
            <track>
              <clipitem>
                <name>SCHLADM-1OMG-280114-SP1900</name>
                <duration>1724</duration>
                <rate>
                  <ntsc>False</ntsc>
                  <timebase>25</timebase>
                </rate>
                <in>0</in>
                <out>1724</out>
                <masterclipid>SCHLADM-1OMG-280114-SP1900</masterclipid>
                <start>0</start>
                <end>1724</end>
                <sourcetrack>
                  <mediatype>audio</mediatype>
                  <trackindex>1</trackindex>
                </sourcetrack>
                <file id="SCHLADM-1OMG-280114-SP19001">
                  <name>SCHLADM-1OMG-280114-SP1900</name>
                  <pathurl>file://localhost/Volumes/omfs/clip.dir/MXF/576i/SCHLADM-1OMG-280114-SP1900.mxf</pathurl>
                  <timecode>
                    <string>00:00:00:00</string>
                    <frame>0</frame>
                    <displayformat>NDF</displayformat>
                    <source>source</source>
                  </timecode>
                </file>
              </clipitem>
              <clipitem>
                <name>jrpa-ths-skvln-henrik5_p0</name>
                <duration>12181</duration>
                <rate>
                  <ntsc>False</ntsc>
                  <timebase>25</timebase>
                </rate>
                <in>0</in>
                <out>12181</out>
                <masterclipid>jrpa-ths-skvln-henrik5_p0</masterclipid>
                <start>1724</start>
                <end>13905</end>
                <sourcetrack>
                  <mediatype>audio</mediatype>
                  <trackindex>1</trackindex>
                </sourcetrack>
                <file id="jrpa-ths-skvln-henrik5_p01">
                  <name>jrpa-ths-skvln-henrik5_p0</name>
                  <pathurl>file://localhost/Volumes/omfs/clip.dir/MXF/1080i/jrpa-ths-skvln-henrik5_p0.mxf</pathurl>
                  <timecode>
                    <string>00:00:00:00</string>
                    <frame>0</frame>
                    <displayformat>NDF</displayformat>
                    <source>source</source>
                  </timecode>
                </file>
              </clipitem>
              <clipitem>
                <name>jrpa-ths-skvln-henrik5_p1</name>
                <duration>1983</duration>
                <rate>
                  <ntsc>False</ntsc>
                  <timebase>25</timebase>
                </rate>
                <in>0</in>
                <out>1983</out>
                <masterclipid>jrpa-ths-skvln-henrik5_p1</masterclipid>
                <start>13905</start>
                <end>15888</end>
                <sourcetrack>
                  <mediatype>audio</mediatype>
                  <trackindex>1</trackindex>
                </sourcetrack>
                <file id="jrpa-ths-skvln-henrik5_p11">
                  <name>jrpa-ths-skvln-henrik5_p1</name>
                  <pathurl>file://localhost/Volumes/omfs/clip.dir/MXF/1080i/jrpa-ths-skvln-henrik5_p1.mxf</pathurl>
                  <timecode>
                    <string>00:00:00:00</string>
                    <frame>0</frame>
                    <displayformat>NDF</displayformat>
                    <source>source</source>
                  </timecode>
                </file>
              </clipitem>
            </track>
            <track>
              <clipitem>
                <name>SCHLADM-1OMG-280114-SP1900</name>
                <duration>1724</duration>
                <rate>
                  <ntsc>False</ntsc>
                  <timebase>25</timebase>
                </rate>
                <in>0</in>
                <out>1724</out>
                <masterclipid>SCHLADM-1OMG-280114-SP1900</masterclipid>
                <start>0</start>
                <end>1724</end>
                <sourcetrack>
                  <mediatype>audio</mediatype>
                  <trackindex>2</trackindex>
                </sourcetrack>
                <file id="SCHLADM-1OMG-280114-SP19001">
                  <name>SCHLADM-1OMG-280114-SP1900</name>
                  <pathurl>file://localhost/Volumes/omfs/clip.dir/MXF/576i/SCHLADM-1OMG-280114-SP1900.mxf</pathurl>
                  <timecode>
                    <string>00:00:00:00</string>
                    <frame>0</frame>
                    <displayformat>NDF</displayformat>
                    <source>source</source>
                  </timecode>
                </file>
              </clipitem>
              <clipitem>
                <name>jrpa-ths-skvln-henrik5_p0</name>
                <duration>12181</duration>
                <rate>
                  <ntsc>False</ntsc>
                  <timebase>25</timebase>
                </rate>
                <in>0</in>
                <out>12181</out>
                <masterclipid>jrpa-ths-skvln-henrik5_p0</masterclipid>
                <start>1724</start>
                <end>13905</end>
                <sourcetrack>
                  <mediatype>audio</mediatype>
                  <trackindex>2</trackindex>
                </sourcetrack>
                <file id="jrpa-ths-skvln-henrik5_p01">
                  <name>jrpa-ths-skvln-henrik5_p0</name>
                  <pathurl>file://localhost/Volumes/omfs/clip.dir/MXF/1080i/jrpa-ths-skvln-henrik5_p0.mxf</pathurl>
                  <timecode>
                    <string>00:00:00:00</string>
                    <frame>0</frame>
                    <displayformat>NDF</displayformat>
                    <source>source</source>
                  </timecode>
                </file>
              </clipitem>
              <clipitem>
                <name>jrpa-ths-skvln-henrik5_p1</name>
                <duration>1983</duration>
                <rate>
                  <ntsc>False</ntsc>
                  <timebase>25</timebase>
                </rate>
                <in>0</in>
                <out>1983</out>
                <masterclipid>jrpa-ths-skvln-henrik5_p1</masterclipid>
                <start>13905</start>
                <end>15888</end>
                <sourcetrack>
                  <mediatype>audio</mediatype>
                  <trackindex>2</trackindex>
                </sourcetrack>
                <file id="jrpa-ths-skvln-henrik5_p11">
                  <name>jrpa-ths-skvln-henrik5_p1</name>
                  <pathurl>file://localhost/Volumes/omfs/clip.dir/MXF/1080i/jrpa-ths-skvln-henrik5_p1.mxf</pathurl>
                  <timecode>
                    <string>00:00:00:00</string>
                    <frame>0</frame>
                    <displayformat>NDF</displayformat>
                    <source>source</source>
                  </timecode>
                </file>
              </clipitem>
            </track>
            <track>
              <clipitem>
                <name>SCHLADM-1OMG-280114-SP1900</name>
                <duration>1724</duration>
                <rate>
                  <ntsc>False</ntsc>
                  <timebase>25</timebase>
                </rate>
                <in>0</in>
                <out>1724</out>
                <masterclipid>SCHLADM-1OMG-280114-SP1900</masterclipid>
                <start>0</start>
                <end>1724</end>
                <sourcetrack>
                  <mediatype>audio</mediatype>
                  <trackindex>3</trackindex>
                </sourcetrack>
                <file id="SCHLADM-1OMG-280114-SP19001">
                  <name>SCHLADM-1OMG-280114-SP1900</name>
                  <pathurl>file://localhost/Volumes/omfs/clip.dir/MXF/576i/SCHLADM-1OMG-280114-SP1900.mxf</pathurl>
                  <timecode>
                    <string>00:00:00:00</string>
                    <frame>0</frame>
                    <displayformat>NDF</displayformat>
                    <source>source</source>
                  </timecode>
                </file>
              </clipitem>
              <clipitem>
                <name>jrpa-ths-skvln-henrik5_p0</name>
                <duration>12181</duration>
                <rate>
                  <ntsc>False</ntsc>
                  <timebase>25</timebase>
                </rate>
                <in>0</in>
                <out>12181</out>
                <masterclipid>jrpa-ths-skvln-henrik5_p0</masterclipid>
                <start>1724</start>
                <end>13905</end>
                <sourcetrack>
                  <mediatype>audio</mediatype>
                  <trackindex>3</trackindex>
                </sourcetrack>
                <file id="jrpa-ths-skvln-henrik5_p01">
                  <name>jrpa-ths-skvln-henrik5_p0</name>
                  <pathurl>file://localhost/Volumes/omfs/clip.dir/MXF/1080i/jrpa-ths-skvln-henrik5_p0.mxf</pathurl>
                  <timecode>
                    <string>00:00:00:00</string>
                    <frame>0</frame>
                    <displayformat>NDF</displayformat>
                    <source>source</source>
                  </timecode>
                </file>
              </clipitem>
              <clipitem>
                <name>jrpa-ths-skvln-henrik5_p1</name>
                <duration>1983</duration>
                <rate>
                  <ntsc>False</ntsc>
                  <timebase>25</timebase>
                </rate>
                <in>0</in>
                <out>1983</out>
                <masterclipid>jrpa-ths-skvln-henrik5_p1</masterclipid>
                <start>13905</start>
                <end>15888</end>
                <sourcetrack>
                  <mediatype>audio</mediatype>
                  <trackindex>3</trackindex>
                </sourcetrack>
                <file id="jrpa-ths-skvln-henrik5_p11">
                  <name>jrpa-ths-skvln-henrik5_p1</name>
                  <pathurl>file://localhost/Volumes/omfs/clip.dir/MXF/1080i/jrpa-ths-skvln-henrik5_p1.mxf</pathurl>
                  <timecode>
                    <string>00:00:00:00</string>
                    <frame>0</frame>
                    <displayformat>NDF</displayformat>
                    <source>source</source>
                  </timecode>
                </file>
              </clipitem>
            </track>
            <track>
              <clipitem>
                <name>SCHLADM-1OMG-280114-SP1900</name>
                <duration>1724</duration>
                <rate>
                  <ntsc>False</ntsc>
                  <timebase>25</timebase>
                </rate>
                <in>0</in>
                <out>1724</out>
                <masterclipid>SCHLADM-1OMG-280114-SP1900</masterclipid>
                <start>0</start>
                <end>1724</end>
                <sourcetrack>
                  <mediatype>audio</mediatype>
                  <trackindex>4</trackindex>
                </sourcetrack>
                <file id="SCHLADM-1OMG-280114-SP19001">
                  <name>SCHLADM-1OMG-280114-SP1900</name>
                  <pathurl>file://localhost/Volumes/omfs/clip.dir/MXF/576i/SCHLADM-1OMG-280114-SP1900.mxf</pathurl>
                  <timecode>
                    <string>00:00:00:00</string>
                    <frame>0</frame>
                    <displayformat>NDF</displayformat>
                    <source>source</source>
                  </timecode>
                </file>
              </clipitem>
              <clipitem>
                <name>jrpa-ths-skvln-henrik5_p0</name>
                <duration>12181</duration>
                <rate>
                  <ntsc>False</ntsc>
                  <timebase>25</timebase>
                </rate>
                <in>0</in>
                <out>12181</out>
                <masterclipid>jrpa-ths-skvln-henrik5_p0</masterclipid>
                <start>1724</start>
                <end>13905</end>
                <sourcetrack>
                  <mediatype>audio</mediatype>
                  <trackindex>4</trackindex>
                </sourcetrack>
                <file id="jrpa-ths-skvln-henrik5_p01">
                  <name>jrpa-ths-skvln-henrik5_p0</name>
                  <pathurl>file://localhost/Volumes/omfs/clip.dir/MXF/1080i/jrpa-ths-skvln-henrik5_p0.mxf</pathurl>
                  <timecode>
                    <string>00:00:00:00</string>
                    <frame>0</frame>
                    <displayformat>NDF</displayformat>
                    <source>source</source>
                  </timecode>
                </file>
              </clipitem>
              <clipitem>
                <name>jrpa-ths-skvln-henrik5_p1</name>
                <duration>1983</duration>
                <rate>
                  <ntsc>False</ntsc>
                  <timebase>25</timebase>
                </rate>
                <in>0</in>
                <out>1983</out>
                <masterclipid>jrpa-ths-skvln-henrik5_p1</masterclipid>
                <start>13905</start>
                <end>15888</end>
                <sourcetrack>
                  <mediatype>audio</mediatype>
                  <trackindex>4</trackindex>
                </sourcetrack>
                <file id="jrpa-ths-skvln-henrik5_p11">
                  <name>jrpa-ths-skvln-henrik5_p1</name>
                  <pathurl>file://localhost/Volumes/omfs/clip.dir/MXF/1080i/jrpa-ths-skvln-henrik5_p1.mxf</pathurl>
                  <timecode>
                    <string>00:00:00:00</string>
                    <frame>0</frame>
                    <displayformat>NDF</displayformat>
                    <source>source</source>
                  </timecode>
                </file>
              </clipitem>
            </track>
            <track>
              <clipitem>
                <name>SCHLADM-1OMG-280114-SP1900</name>
                <duration>1724</duration>
                <rate>
                  <ntsc>False</ntsc>
                  <timebase>25</timebase>
                </rate>
                <in>0</in>
                <out>1724</out>
                <masterclipid>SCHLADM-1OMG-280114-SP1900</masterclipid>
                <start>0</start>
                <end>1724</end>
                <sourcetrack>
                  <mediatype>audio</mediatype>
                  <trackindex>5</trackindex>
                </sourcetrack>
                <file id="SCHLADM-1OMG-280114-SP19001">
                  <name>SCHLADM-1OMG-280114-SP1900</name>
                  <pathurl>file://localhost/Volumes/omfs/clip.dir/MXF/576i/SCHLADM-1OMG-280114-SP1900.mxf</pathurl>
                  <timecode>
                    <string>00:00:00:00</string>
                    <frame>0</frame>
                    <displayformat>NDF</displayformat>
                    <source>source</source>
                  </timecode>
                </file>
              </clipitem>
              <clipitem>
                <name>jrpa-ths-skvln-henrik5_p0</name>
                <duration>12181</duration>
                <rate>
                  <ntsc>False</ntsc>
                  <timebase>25</timebase>
                </rate>
                <in>0</in>
                <out>12181</out>
                <masterclipid>jrpa-ths-skvln-henrik5_p0</masterclipid>
                <start>1724</start>
                <end>13905</end>
                <sourcetrack>
                  <mediatype>audio</mediatype>
                  <trackindex>5</trackindex>
                </sourcetrack>
                <file id="jrpa-ths-skvln-henrik5_p01">
                  <name>jrpa-ths-skvln-henrik5_p0</name>
                  <pathurl>file://localhost/Volumes/omfs/clip.dir/MXF/1080i/jrpa-ths-skvln-henrik5_p0.mxf</pathurl>
                  <timecode>
                    <string>00:00:00:00</string>
                    <frame>0</frame>
                    <displayformat>NDF</displayformat>
                    <source>source</source>
                  </timecode>
                </file>
              </clipitem>
              <clipitem>
                <name>jrpa-ths-skvln-henrik5_p1</name>
                <duration>1983</duration>
                <rate>
                  <ntsc>False</ntsc>
                  <timebase>25</timebase>
                </rate>
                <in>0</in>
                <out>1983</out>
                <masterclipid>jrpa-ths-skvln-henrik5_p1</masterclipid>
                <start>13905</start>
                <end>15888</end>
                <sourcetrack>
                  <mediatype>audio</mediatype>
                  <trackindex>5</trackindex>
                </sourcetrack>
                <file id="jrpa-ths-skvln-henrik5_p11">
                  <name>jrpa-ths-skvln-henrik5_p1</name>
                  <pathurl>file://localhost/Volumes/omfs/clip.dir/MXF/1080i/jrpa-ths-skvln-henrik5_p1.mxf</pathurl>
                  <timecode>
                    <string>00:00:00:00</string>
                    <frame>0</frame>
                    <displayformat>NDF</displayformat>
                    <source>source</source>
                  </timecode>
                </file>
              </clipitem>
            </track>
            <track>
              <clipitem>
                <name>SCHLADM-1OMG-280114-SP1900</name>
                <duration>1724</duration>
                <rate>
                  <ntsc>False</ntsc>
                  <timebase>25</timebase>
                </rate>
                <in>0</in>
                <out>1724</out>
                <masterclipid>SCHLADM-1OMG-280114-SP1900</masterclipid>
                <start>0</start>
                <end>1724</end>
                <sourcetrack>
                  <mediatype>audio</mediatype>
                  <trackindex>6</trackindex>
                </sourcetrack>
                <file id="SCHLADM-1OMG-280114-SP19001">
                  <name>SCHLADM-1OMG-280114-SP1900</name>
                  <pathurl>file://localhost/Volumes/omfs/clip.dir/MXF/576i/SCHLADM-1OMG-280114-SP1900.mxf</pathurl>
                  <timecode>
                    <string>00:00:00:00</string>
                    <frame>0</frame>
                    <displayformat>NDF</displayformat>
                    <source>source</source>
                  </timecode>
                </file>
              </clipitem>
              <clipitem>
                <name>jrpa-ths-skvln-henrik5_p0</name>
                <duration>12181</duration>
                <rate>
                  <ntsc>False</ntsc>
                  <timebase>25</timebase>
                </rate>
                <in>0</in>
                <out>12181</out>
                <masterclipid>jrpa-ths-skvln-henrik5_p0</masterclipid>
                <start>1724</start>
                <end>13905</end>
                <sourcetrack>
                  <mediatype>audio</mediatype>
                  <trackindex>6</trackindex>
                </sourcetrack>
                <file id="jrpa-ths-skvln-henrik5_p01">
                  <name>jrpa-ths-skvln-henrik5_p0</name>
                  <pathurl>file://localhost/Volumes/omfs/clip.dir/MXF/1080i/jrpa-ths-skvln-henrik5_p0.mxf</pathurl>
                  <timecode>
                    <string>00:00:00:00</string>
                    <frame>0</frame>
                    <displayformat>NDF</displayformat>
                    <source>source</source>
                  </timecode>
                </file>
              </clipitem>
              <clipitem>
                <name>jrpa-ths-skvln-henrik5_p1</name>
                <duration>1983</duration>
                <rate>
                  <ntsc>False</ntsc>
                  <timebase>25</timebase>
                </rate>
                <in>0</in>
                <out>1983</out>
                <masterclipid>jrpa-ths-skvln-henrik5_p1</masterclipid>
                <start>13905</start>
                <end>15888</end>
                <sourcetrack>
                  <mediatype>audio</mediatype>
                  <trackindex>6</trackindex>
                </sourcetrack>
                <file id="jrpa-ths-skvln-henrik5_p11">
                  <name>jrpa-ths-skvln-henrik5_p1</name>
                  <pathurl>file://localhost/Volumes/omfs/clip.dir/MXF/1080i/jrpa-ths-skvln-henrik5_p1.mxf</pathurl>
                  <timecode>
                    <string>00:00:00:00</string>
                    <frame>0</frame>
                    <displayformat>NDF</displayformat>
                    <source>source</source>
                  </timecode>
                </file>
              </clipitem>
            </track>
            <track>
              <clipitem>
                <name>SCHLADM-1OMG-280114-SP1900</name>
                <duration>1724</duration>
                <rate>
                  <ntsc>False</ntsc>
                  <timebase>25</timebase>
                </rate>
                <in>0</in>
                <out>1724</out>
                <masterclipid>SCHLADM-1OMG-280114-SP1900</masterclipid>
                <start>0</start>
                <end>1724</end>
                <sourcetrack>
                  <mediatype>audio</mediatype>
                  <trackindex>7</trackindex>
                </sourcetrack>
                <file id="SCHLADM-1OMG-280114-SP19001">
                  <name>SCHLADM-1OMG-280114-SP1900</name>
                  <pathurl>file://localhost/Volumes/omfs/clip.dir/MXF/576i/SCHLADM-1OMG-280114-SP1900.mxf</pathurl>
                  <timecode>
                    <string>00:00:00:00</string>
                    <frame>0</frame>
                    <displayformat>NDF</displayformat>
                    <source>source</source>
                  </timecode>
                </file>
              </clipitem>
              <clipitem>
                <name>jrpa-ths-skvln-henrik5_p0</name>
                <duration>12181</duration>
                <rate>
                  <ntsc>False</ntsc>
                  <timebase>25</timebase>
                </rate>
                <in>0</in>
                <out>12181</out>
                <masterclipid>jrpa-ths-skvln-henrik5_p0</masterclipid>
                <start>1724</start>
                <end>13905</end>
                <sourcetrack>
                  <mediatype>audio</mediatype>
                  <trackindex>7</trackindex>
                </sourcetrack>
                <file id="jrpa-ths-skvln-henrik5_p01">
                  <name>jrpa-ths-skvln-henrik5_p0</name>
                  <pathurl>file://localhost/Volumes/omfs/clip.dir/MXF/1080i/jrpa-ths-skvln-henrik5_p0.mxf</pathurl>
                  <timecode>
                    <string>00:00:00:00</string>
                    <frame>0</frame>
                    <displayformat>NDF</displayformat>
                    <source>source</source>
                  </timecode>
                </file>
              </clipitem>
              <clipitem>
                <name>jrpa-ths-skvln-henrik5_p1</name>
                <duration>1983</duration>
                <rate>
                  <ntsc>False</ntsc>
                  <timebase>25</timebase>
                </rate>
                <in>0</in>
                <out>1983</out>
                <masterclipid>jrpa-ths-skvln-henrik5_p1</masterclipid>
                <start>13905</start>
                <end>15888</end>
                <sourcetrack>
                  <mediatype>audio</mediatype>
                  <trackindex>7</trackindex>
                </sourcetrack>
                <file id="jrpa-ths-skvln-henrik5_p11">
                  <name>jrpa-ths-skvln-henrik5_p1</name>
                  <pathurl>file://localhost/Volumes/omfs/clip.dir/MXF/1080i/jrpa-ths-skvln-henrik5_p1.mxf</pathurl>
                  <timecode>
                    <string>00:00:00:00</string>
                    <frame>0</frame>
                    <displayformat>NDF</displayformat>
                    <source>source</source>
                  </timecode>
                </file>
              </clipitem>
            </track>
            <track>
              <clipitem>
                <name>SCHLADM-1OMG-280114-SP1900</name>
                <duration>1724</duration>
                <rate>
                  <ntsc>False</ntsc>
                  <timebase>25</timebase>
                </rate>
                <in>0</in>
                <out>1724</out>
                <masterclipid>SCHLADM-1OMG-280114-SP1900</masterclipid>
                <start>0</start>
                <end>1724</end>
                <sourcetrack>
                  <mediatype>audio</mediatype>
                  <trackindex>8</trackindex>
                </sourcetrack>
                <file id="SCHLADM-1OMG-280114-SP19001">
                  <name>SCHLADM-1OMG-280114-SP1900</name>
                  <pathurl>file://localhost/Volumes/omfs/clip.dir/MXF/576i/SCHLADM-1OMG-280114-SP1900.mxf</pathurl>
                  <timecode>
                    <string>00:00:00:00</string>
                    <frame>0</frame>
                    <displayformat>NDF</displayformat>
                    <source>source</source>
                  </timecode>
                </file>
              </clipitem>
              <clipitem>
                <name>jrpa-ths-skvln-henrik5_p0</name>
                <duration>12181</duration>
                <rate>
                  <ntsc>False</ntsc>
                  <timebase>25</timebase>
                </rate>
                <in>0</in>
                <out>12181</out>
                <masterclipid>jrpa-ths-skvln-henrik5_p0</masterclipid>
                <start>1724</start>
                <end>13905</end>
                <sourcetrack>
                  <mediatype>audio</mediatype>
                  <trackindex>8</trackindex>
                </sourcetrack>
                <file id="jrpa-ths-skvln-henrik5_p01">
                  <name>jrpa-ths-skvln-henrik5_p0</name>
                  <pathurl>file://localhost/Volumes/omfs/clip.dir/MXF/1080i/jrpa-ths-skvln-henrik5_p0.mxf</pathurl>
                  <timecode>
                    <string>00:00:00:00</string>
                    <frame>0</frame>
                    <displayformat>NDF</displayformat>
                    <source>source</source>
                  </timecode>
                </file>
              </clipitem>
              <clipitem>
                <name>jrpa-ths-skvln-henrik5_p1</name>
                <duration>1983</duration>
                <rate>
                  <ntsc>False</ntsc>
                  <timebase>25</timebase>
                </rate>
                <in>0</in>
                <out>1983</out>
                <masterclipid>jrpa-ths-skvln-henrik5_p1</masterclipid>
                <start>13905</start>
                <end>15888</end>
                <sourcetrack>
                  <mediatype>audio</mediatype>
                  <trackindex>8</trackindex>
                </sourcetrack>
                <file id="jrpa-ths-skvln-henrik5_p11">
                  <name>jrpa-ths-skvln-henrik5_p1</name>
                  <pathurl>file://localhost/Volumes/omfs/clip.dir/MXF/1080i/jrpa-ths-skvln-henrik5_p1.mxf</pathurl>
                  <timecode>
                    <string>00:00:00:00</string>
                    <frame>0</frame>
                    <displayformat>NDF</displayformat>
                    <source>source</source>
                  </timecode>
                </file>
              </clipitem>
            </track>
          </audio>
        </media>
      </sequence>
    </children>
  </project>
</xmeml>